<svg xmlns="http://www.w3.org/2000/svg" fill="none" viewBox="0 0 24 24"><g clip-path="url(#a)"><path fill="#F5EB16" d="M12 24c6.627 0 12-5.373 12-12S18.627 0 12 0 0 5.373 0 12s5.373 12 12 12Z"/><path fill="#000" d="M11.998 5a7 7 0 1 0 .004 14 7 7 0 0 0-.004-14ZM9.156 8.067a.072.072 0 0 1 .074-.07h2.916a4.093 4.093 0 0 1 1.775.368c.105.051.21.109.31.17l-1.899 1.087h-.99a.072.072 0 0 0-.07.074v.547l-2.116 1.223v-3.4Zm-.785 6.144-1.268-1.28 4.175-2.41v1.561a.072.072 0 0 0 .074.07h.596l-3.573 2.059h-.004Zm6.252-1.19c-.612.51-1.452.767-2.52.767h-.761a.072.072 0 0 0-.072.072v1.576l-1.062.611-.99.573-.063.035v-2.612l3.285-1.89c.28-.01.55-.116.76-.302a1.02 1.02 0 0 0 .187-.253l2.098-1.214c.035.192.053.387.052.582.003.858-.302 1.543-.914 2.055Zm-1.126-1.77a1.92 1.92 0 0 0 .022-.273c.018-.357-.1-.707-.33-.981a1.069 1.069 0 0 0-.478-.306l2.916-1.683 1.28 1.28-3.41 1.962Z"/></g><defs><clipPath id="a"><path fill="#fff" d="M0 0h24v24H0z"/></clipPath></defs></svg>