<svg xmlns="http://www.w3.org/2000/svg" fill="none" viewBox="0 0 24 24"><g clip-path="url(#a)"><path fill="#F5EB16" d="M12 24c6.627 0 12-5.373 12-12S18.627 0 12 0 0 5.373 0 12s5.373 12 12 12"/><path fill="#000" d="M11.999 5a7 7 0 1 0 .003 14 7 7 0 0 0-.004-14M9.156 8.067a.07.07 0 0 1 .074-.07h2.916a4.1 4.1 0 0 1 1.775.368q.159.078.31.17l-1.899 1.087h-.99a.07.07 0 0 0-.07.074v.547l-2.116 1.223zm-.785 6.144-1.268-1.28 4.176-2.41v1.561a.07.07 0 0 0 .073.07h.596l-3.573 2.059zm6.252-1.19q-.918.766-2.52.767h-.761a.07.07 0 0 0-.072.072v1.576l-1.062.611-.99.573-.063.035v-2.612l3.285-1.89c.28-.01.55-.116.76-.302a1 1 0 0 0 .187-.253l2.098-1.214q.053.289.052.582.004 1.287-.914 2.055m-1.126-1.77q.02-.136.022-.273c.018-.357-.1-.707-.33-.981a1.07 1.07 0 0 0-.478-.306l2.916-1.683 1.28 1.28z"/></g><defs><clipPath id="a"><path fill="#fff" d="M0 0h24v24H0z"/></clipPath></defs></svg>