<svg xmlns="http://www.w3.org/2000/svg" fill="none" viewBox="0 0 24 24"><g clip-path="url(#a)"><path fill="#FF914D" d="M12 24c6.627 0 12-5.373 12-12S18.627 0 12 0 0 5.373 0 12s5.373 12 12 12"/><path fill="#fff" fill-rule="evenodd" d="M5 12a7 7 0 1 0 14 0 7 7 0 1 0-14 0m13.588 0a6.588 6.588 0 1 1-13.176 0 6.588 6.588 0 0 1 13.176 0m-6.436 4.027c-.582.5-1.185.966-1.34 1.03-.146.062-.162.047-.305-.279-.34-.768-1.01-3.106-1.379-4.799-.093-.426-.142-.786-.13-.93.019-.186.26-.47 1.129-1.324 1.482-1.458 3.156-2.85 3.343-2.778.307.118 1.816 5.593 1.678 6.09-.04.143-.276.417-.914 1.055a32 32 0 0 1-2.082 1.935" clip-rule="evenodd"/></g><defs><clipPath id="a"><path fill="#fff" d="M0 0h24v24H0z"/></clipPath></defs></svg>