<svg xmlns="http://www.w3.org/2000/svg" fill="none" viewBox="0 0 24 24"><path fill="#62757E" fill-rule="evenodd" d="M4 0a4 4 0 0 0-4 4v16a4 4 0 0 0 4 4h16a4 4 0 0 0 4-4V4a4 4 0 0 0-4-4H4Zm8.853 16.273v1.523h7.977v-1.762h-5.068v-.08l2.006-2.04c.754-.726 1.339-1.346 1.755-1.857.421-.511.715-.978.881-1.398.167-.42.25-.848.25-1.284 0-.652-.165-1.231-.494-1.739-.326-.507-.784-.907-1.375-1.199C18.194 6.146 17.508 6 16.728 6c-.769 0-1.45.15-2.045.449-.591.3-1.055.721-1.392 1.267-.338.545-.506 1.187-.506 1.926h2.006c0-.398.077-.74.232-1.028.16-.288.383-.51.671-.665.288-.16.623-.239 1.006-.239.37 0 .702.072.994.216.292.144.52.349.688.614.166.261.25.576.25.943 0 .322-.065.625-.194.909a3.816 3.816 0 0 1-.58.88c-.257.304-.579.65-.965 1.04l-4.04 3.96ZM7.931 6.017v11.636H5.823V8.068h-.068L3.033 9.807V7.875l2.892-1.858h2.006Zm2.604 11.761c-.345 0-.64-.12-.886-.363a1.178 1.178 0 0 1-.364-.887c-.004-.34.117-.632.364-.875.246-.242.541-.363.886-.363.333 0 .623.121.87.363a1.195 1.195 0 0 1 .198 1.506 1.31 1.31 0 0 1-.454.455c-.186.11-.39.164-.614.164Z" clip-rule="evenodd"/></svg>