<svg xmlns="http://www.w3.org/2000/svg" fill="none" viewBox="0 0 24 24"><path fill="#62757E" fill-rule="evenodd" d="M4 0a4 4 0 0 0-4 4v16a4 4 0 0 0 4 4h16a4 4 0 0 0 4-4V4a4 4 0 0 0-4-4zm8.853 16.273v1.523h7.977v-1.762h-5.068v-.08l2.006-2.04q1.131-1.09 1.755-1.857.632-.767.881-1.398.25-.63.25-1.284 0-.977-.494-1.739-.489-.76-1.375-1.199Q17.898 6 16.728 6q-1.153 0-2.045.449-.886.449-1.392 1.267t-.506 1.926h2.006q0-.597.232-1.028.24-.432.671-.665.432-.24 1.006-.239.556 0 .994.216t.688.614q.25.392.25.943 0 .483-.194.909a3.8 3.8 0 0 1-.58.88q-.386.456-.965 1.04zM7.931 6.017v11.636H5.823V8.068h-.068L3.033 9.807V7.875l2.892-1.858zm2.604 11.761q-.517 0-.886-.363a1.18 1.18 0 0 1-.364-.887q-.006-.51.364-.875.369-.363.886-.363.5 0 .87.363a1.195 1.195 0 0 1 .198 1.506q-.17.285-.454.455-.278.164-.614.164" clip-rule="evenodd"/></svg>