<svg xmlns="http://www.w3.org/2000/svg" fill="none" viewBox="0 0 24 24"><path fill="#62757E" d="M20 0a4 4 0 0 1 4 4v16a4 4 0 0 1-4 4H4a4 4 0 0 1-4-4V4a4 4 0 0 1 4-4zm-3.271 6q-1.155 0-2.046.45-.886.447-1.392 1.266-.506.817-.506 1.926h2.006q0-.596.232-1.029.24-.431.671-.664.432-.239 1.005-.239.558 0 .995.216.438.216.688.614.25.392.25.943 0 .483-.194.909a3.8 3.8 0 0 1-.58.88q-.387.455-.965 1.04l-4.04 3.96v1.524h7.977v-1.762h-5.068v-.08l2.006-2.039q1.13-1.091 1.755-1.858.631-.767.881-1.398t.25-1.284q0-.976-.494-1.738-.489-.762-1.375-1.2T16.73 6m-6.194 9.29q-.516 0-.887.363a1.16 1.16 0 0 0-.363.875q-.006.524.363.887.37.363.887.363.335 0 .613-.165a1.3 1.3 0 0 0 .637-1.085 1.2 1.2 0 0 0-.38-.875 1.2 1.2 0 0 0-.87-.363m-4.61-9.273L3.034 7.875v1.932l2.722-1.739h.068v9.585h2.109V6.017z"/></svg>