<svg xmlns="http://www.w3.org/2000/svg" fill="none" viewBox="0 0 24 24"><path fill="#62757E" d="M20 0a4 4 0 0 1 4 4v16a4 4 0 0 1-4 4H4a4 4 0 0 1-4-4V4a4 4 0 0 1 4-4zm-6.392 6.363-.607 6 1.903.313q.296-.324.801-.523.506-.198 1.028-.193.643 0 1.137.296.495.29.778.8.284.512.279 1.172a2.3 2.3 0 0 1-.273 1.153q-.279.505-.761.79-.483.284-1.103.283-.79 0-1.351-.448a1.6 1.6 0 0 1-.62-1.171h-2.046q.035.966.557 1.716.528.75 1.427 1.182.897.426 2.033.426 1.233 0 2.17-.511a3.8 3.8 0 0 0 1.473-1.415q.534-.903.534-2.057 0-1.119-.478-1.989a3.54 3.54 0 0 0-1.306-1.363q-.83-.5-1.887-.5-.704 0-1.295.255-.592.25-.915.631h-.068l.334-3.085h5.006V6.363zm-3.073 9.274q-.516 0-.887.363a1.16 1.16 0 0 0-.363.875q-.006.523.363.887.37.363.887.363.335 0 .613-.165.284-.17.454-.454.178-.285.183-.631a1.2 1.2 0 0 0-.38-.875 1.2 1.2 0 0 0-.87-.363m-4.61-9.274L3.034 8.222v1.931l2.722-1.738h.068V18h2.108V6.363z"/></svg>