<svg xmlns="http://www.w3.org/2000/svg" fill="none" viewBox="0 0 24 24"><path fill="#62757E" fill-rule="evenodd" d="M4 0a4 4 0 0 0-4 4v16a4 4 0 0 0 4 4h16a4 4 0 0 0 4-4V4a4 4 0 0 0-4-4zm3.931 6.364V18H5.823V8.415h-.068l-2.722 1.738V8.222l2.892-1.858zm2.604 11.761q-.517 0-.887-.364a1.18 1.18 0 0 1-.363-.886q-.006-.511.363-.875.37-.363.887-.364.5 0 .87.364a1.195 1.195 0 0 1 .198 1.506q-.17.284-.455.454-.278.165-.613.165m4.221-.392q.898.426 2.035.426 1.233 0 2.17-.511a3.8 3.8 0 0 0 1.472-1.415q.534-.903.534-2.057 0-1.119-.478-1.989a3.54 3.54 0 0 0-1.306-1.363q-.83-.5-1.887-.5-.704 0-1.295.256-.592.25-.915.63h-.068l.335-3.085h5.006V6.364h-6.75l-.608 6 1.903.312q.295-.324.801-.523.506-.198 1.029-.193.642 0 1.136.296.495.29.778.8.285.513.279 1.171a2.3 2.3 0 0 1-.273 1.154q-.28.505-.761.79-.483.284-1.102.284-.79 0-1.353-.45a1.6 1.6 0 0 1-.62-1.17h-2.045q.035.966.557 1.716.528.75 1.426 1.182" clip-rule="evenodd"/></svg>