<svg xmlns="http://www.w3.org/2000/svg" fill="none" viewBox="0 0 24 24"><path fill="currentColor" fill-rule="evenodd" d="M4 0a4 4 0 0 0-4 4v16a4 4 0 0 0 4 4h16a4 4 0 0 0 4-4V4a4 4 0 0 0-4-4H4Zm9.787 6.91h6.332V5h-8.317v8.045h2.042c.189-.535.491-.956.907-1.261.429-.319.952-.478 1.569-.478.882 0 1.55.248 2.004.745.453.484.68 1.185.68 2.102 0 .905-.227 1.63-.68 2.179-.441.547-1.11.821-2.004.821-.718 0-1.317-.172-1.796-.516a2.405 2.405 0 0 1-.926-1.433H11.5c.164 1.134.662 2.045 1.493 2.733.832.688 1.935 1.032 3.308 1.032 1.033 0 1.903-.21 2.609-.631a3.97 3.97 0 0 0 1.606-1.72c.366-.739.549-1.58.549-2.522a5.76 5.76 0 0 0-.435-2.217c-.277-.7-.75-1.28-1.418-1.739-.655-.458-1.512-.688-2.57-.688-.593 0-1.154.121-1.683.363-.517.242-.907.542-1.172.899V6.91Zm-10.719.116V5.038H7v13.93H4.826V7.027H3.068ZM9.478 19c-.39 0-.718-.134-.983-.401a1.357 1.357 0 0 1-.397-.994c0-.395.132-.726.397-.994.265-.267.592-.4.983-.4.378 0 .7.133.964.4.265.268.397.6.397.994 0 .395-.132.726-.397.994a1.305 1.305 0 0 1-.964.401Z" clip-rule="evenodd"/></svg>