<svg xmlns="http://www.w3.org/2000/svg" fill="none" viewBox="0 0 24 24"><path fill="#697284" fill-rule="evenodd" d="M4 0a4 4 0 0 0-4 4v16a4 4 0 0 0 4 4h16a4 4 0 0 0 4-4V4a4 4 0 0 0-4-4H4Zm8.873 6.3h7.02V4.7h-8.7v8.16h1.72c.24-.587.62-1.047 1.14-1.38.533-.347 1.153-.52 1.86-.52 1.04 0 1.827.287 2.36.86.533.56.8 1.36.8 2.4 0 1.04-.267 1.88-.8 2.52-.533.627-1.327.94-2.38.94-.853 0-1.56-.213-2.12-.64-.56-.427-.927-1.02-1.1-1.78h-1.78c.187 1.2.713 2.16 1.58 2.88.867.72 2 1.08 3.4 1.08 1.093 0 2.007-.22 2.74-.66a4.08 4.08 0 0 0 1.66-1.8c.36-.76.54-1.62.54-2.58 0-.813-.153-1.58-.46-2.3-.293-.733-.787-1.327-1.48-1.78-.693-.467-1.593-.7-2.7-.7-.693 0-1.34.14-1.94.42-.6.267-1.053.613-1.36 1.04V6.3Zm-9.685.08V4.72h3.76v14.46h-1.84V6.38h-1.92ZM9.154 19.3c-.347 0-.64-.12-.88-.36s-.36-.533-.36-.88.12-.64.36-.88.533-.36.88-.36c.333 0 .613.12.84.36.24.24.36.533.36.88s-.12.64-.36.88a1.11 1.11 0 0 1-.84.36Z" clip-rule="evenodd"/></svg>