<svg xmlns="http://www.w3.org/2000/svg" fill="none" viewBox="0 0 24 24"><g clip-path="url(#a)"><circle cx="12" cy="12" r="12" fill="#EEEFF1"/><path fill="#fff" d="m7.78 12.77.364-2.74-3.162-2.195 2.89.979.682-1.047 2.492-1.547 5.492 3.027.285 4.617-2.447 3.4-1.934.297 1-1.831v-1.763l-.727-1.376-.74-.49-1.136 1.172v1.24l-.887.83-1.127.137-.5.283-.818-.261-.341-1.229.614-.863v-.64Z"/><path fill="#EEEFF1" d="M12.83 7.812c-.603-.125-1.262-.092-1.262-.092s-.216 1-1.558 1.263c.01 0 1.773.603 2.82-1.171Zm.546 9.076a4.386 4.386 0 0 0 1.525-2.24c.011-.033.113-.092.18-.137.114-.068.23-.124.25-.216.045-.261.069-.534.069-.807 0-.102-.104-.205-.205-.306-.08-.069-.16-.149-.16-.205a4.323 4.323 0 0 0-1.353-2.707l-.08.08a4.244 4.244 0 0 1 1.32 2.639c.012.091.101.18.193.272.08.069.172.172.172.217 0 .261-.024.523-.069.784-.011.045-.113.091-.193.136-.113.057-.216.113-.238.205a4.205 4.205 0 0 1-1.729 2.355c.148-.317.614-1.353.864-1.877l-.045-1.683L12.432 12l-.819.113-.899 1.457s.421.534-.171 1.16c-.58.614-1.036.75-1.036.75l-.42-.228c.124-.16.375-.398.568-.557.33-.273.66-.297.66-.591.013-.616-.648-.447-.648-.447l-.24.229-.101.842-.5.626-.056-.012-.819-.181s.501-.262.581-.558c.08-.285-.16-1.228-.171-1.285.011.012.24.205.341.523.181-.502.421-.98.49-1.024.068-.045.988-.534.988-.534l-.306.807.228-.125.546-1.341s.534-.262.932-.262c.716-.011 1.774-.887 1.297-2.456.136.056 2.501 1.24 2.91 3.56.307 1.784-.705 3.455-2.411 4.422Z"/><path fill="#1B314F" d="M10.67 8.061c.26-.308.16-.762.16-.762l-.763 1.127c-.012 0 .271.012.602-.365Zm-2.56 6.154.09-.454s-.375.659-.409.75c-.035.104.024.285.17.273.148-.011.33-.228.33-.386 0-.204-.182-.183-.182-.183Z"/><path fill="#1B314F" d="M15.031 6.789s.579.024 1.179.093c-1.353-1.064-2.635-1.375-3.675-1.375-1.431 0-2.402.59-2.461.624l.451-.717s-1.802-.175-2.438 1.733c-.162-.404-.311-.994-.311-.994s-.937.822-.497 2.185c-1.076-.392-2.61-.937-2.67-.947-.081-.012-.105.024-.105.024s-.024.034.045.093c.13.101 2.556 1.894 3.088 2.241-.115.416-.115.612 0 .808.163.266.173.405.15.6-.023.197-.23 1.897-.276 2.105-.046.208-.531.947-.51 1.167.024.22.323 1.156.59 1.26.197.07.682.22 1.005.22.115 0 .22-.023.265-.069.196-.172.254-.208.393-.208h.033c.058 0 .127.012.208.012.184 0 .428-.036.6-.196.254-.254.694-.6.832-.763.175-.22.266-.52.22-.82-.036-.278.115-.521.29-.763.22-.29.623-.809.623-.809.798.599 1.295 1.512 1.295 2.529 0 1.803-1.57 3.26-3.511 3.26-.301 0-.588-.034-.878-.104.89.311 1.64.416 2.254.416 1.306 0 1.999-.473 1.999-.473s-.242.313-.636.67h.012c2.16-.302 3.213-2.081 3.213-2.081s-.082.578-.185.97c2.874-2.161 2.39-4.866 2.377-4.957.024.034.313.38.462.567.463-4.764-3.43-6.301-3.43-6.301Zm-4.425 7.607c-.045.057-.241.231-.38.358-.139.127-.29.254-.404.37-.046.046-.139.07-.277.07h-.347c.174-.232.681-.763.856-.878.208-.138.313-.277.184-.519-.127-.244-.462-.184-.462-.184s.197-.081.37-.081c-.219-.058-.496 0-.623.127-.139.126-.115.578-.172.865-.058.302-.254.452-.555.73-.162.15-.277.196-.37.196a3.943 3.943 0 0 1-.59-.15c-.115-.151-.29-.649-.335-.857.033-.115.172-.358.241-.497.139-.266.22-.416.244-.555.045-.196.196-1.41.253-1.918.151.196.359.521.311.73.335-.474.094-.938-.023-1.122-.103-.185-.242-.555-.127-.947.115-.393.53-1.48.53-1.48s.14.243.335.195c.197-.045 1.78-2.427 1.78-2.427s.427.935-.025 1.619c-.461.682-.913.808-.913.808s.636.115 1.224-.313c.242.567.474 1.156.486 1.237-.036.081-.498 1.19-.543 1.26-.024.024-.184.07-.301.093-.196.058-.311.093-.359.127-.08.07-.451 1.086-.624 1.583a.96.96 0 0 0-.566.405c.081-.058.335-.094.52-.115.163-.012.658.253.787.75v.024a.714.714 0 0 1-.125.496Zm-1.085.138c.105-.15.093-.404.105-.485.012-.081.034-.232.127-.254.093-.024.313.012.313.173 0 .15-.163.184-.278.289-.083.08-.245.254-.267.277Zm4.609-2.209a5.556 5.556 0 0 0 .093-1.514c.45.6.727 1.33.808 2.08.012.094.103.185.196.278.082.07.175.163.175.22 0 .266-.024.531-.07.799-.012.033-.115.093-.196.138-.115.058-.22.115-.241.208a4.308 4.308 0 0 1-1.526 2.231c1.074-1.121 1.593-2.972.761-4.44Zm-.727 4.544c.75-.579 1.33-1.387 1.583-2.3.011-.035.114-.094.184-.14.115-.057.232-.127.253-.22.046-.265.07-.543.07-.82 0-.103-.105-.208-.208-.311-.058-.07-.15-.15-.15-.208a4.534 4.534 0 0 0-.948-2.3c-.231-1.388-1.154-1.816-1.178-1.828.024.036.624.902.208 1.919-.428 1.028-1.525.867-1.618.877-.093 0-.45.462-.902 1.318a1.246 1.246 0 0 0-.578-.034c.208-.578.521-1.399.579-1.468.023-.024.196-.07.312-.103.22-.057.323-.093.359-.139.024-.035.139-.3.253-.578.105 0 .37-.024.393-.036.023-.024.243-.588.243-.658 0-.057-.451-1.179-.624-1.607.082-.093.163-.208.242-.335a4.737 4.737 0 0 1 4.219 4.704 4.734 4.734 0 0 1-2.692 4.267Z"/><path fill="#1B314F" d="M10.236 10.758a.496.496 0 0 0-.296-.796c.103-.237.25-.715.25-.715S9.03 11.066 8.928 11.1c-.103.035-.205-.365-.205-.365-.216.831.365.944.433.683.318-.082.864-.423 1.08-.661Z"/><path fill="#FFD923" d="m9.246 11.2.59-1.011s.342.171.17.444c-.214.318-.76.568-.76.568Z"/><path fill="#D82122" d="M16.56 15.888a6.653 6.653 0 0 1-.59.694c1.465-2.821.067-5.403.01-5.504.104.103.206.216.297.318 1.125 1.25 1.262 3.127.283 4.492Zm1.365-3.628c-.513-1.377-1.24-2.55-2.843-3.606-1.546-1.024-3.208-.944-3.3-.932h-.023a.78.78 0 0 1 .17-.045 7.267 7.267 0 0 1 1.263-.261 3.742 3.742 0 0 1 3.278 1.136c.944 1 1.433 2.25 1.455 3.707Zm-3.208-5.632c-1.694-.318-2.786-.16-3.572.137a3.38 3.38 0 0 0-.171-.421c-.236.284-.488.625-.646.842-.433.296-.614.58-.614.58a2.37 2.37 0 0 1 1.866-1.649 4.63 4.63 0 0 1 .819-.068 5.355 5.355 0 0 1 2.318.58ZM8.45 8.812c-1.33-.045-.887-1.593-.863-1.683 0 .012.09 1.217.863 1.683Zm1.309-2.786c-1.024.614-.82 2.08-.82 2.08-.978-1.488.74-2.045.82-2.08Z"/><path fill="#fff" d="M8.076 9.221c.068.057.136.16.057.308-.045.08-.114.069-.217.024a26.835 26.835 0 0 1-1.694-1.036c.842.297 1.694.615 1.83.683 0 0 .012.012.024.021Z"/></g><defs><clipPath id="a"><path fill="#fff" d="M0 0h24v24H0z"/></clipPath></defs></svg>