<svg xmlns="http://www.w3.org/2000/svg" fill="none" viewBox="0 0 24 24"><g clip-path="url(#a)"><circle cx="12" cy="12" r="12" fill="#EEEFF1"/><path fill="#fff" d="m7.78 12.77.364-2.74-3.163-2.195 2.89.979.683-1.047 2.492-1.546 5.492 3.026.285 4.617-2.447 3.4-1.934.297 1-1.831v-1.763l-.727-1.376-.74-.49-1.136 1.172v1.24l-.887.83-1.127.137-.5.283-.818-.261-.342-1.229.614-.863z"/><path fill="#EEEFF1" d="M12.83 7.812c-.603-.125-1.262-.092-1.262-.092s-.216 1-1.558 1.264c.01 0 1.773.602 2.82-1.172m.546 9.076a4.4 4.4 0 0 0 1.524-2.24c.012-.033.114-.092.182-.136.113-.069.228-.125.25-.217.044-.261.068-.534.068-.807 0-.102-.104-.205-.205-.306-.08-.069-.16-.149-.16-.205a4.32 4.32 0 0 0-1.353-2.706l-.08.08a4.24 4.24 0 0 1 1.32 2.638c.012.091.101.181.193.273.08.068.172.171.172.216q0 .392-.069.784c-.011.045-.113.092-.193.136-.113.057-.216.114-.238.205a4.2 4.2 0 0 1-1.73 2.356c.149-.318.615-1.354.865-1.878l-.045-1.683L12.432 12l-.819.113-.899 1.457s.421.534-.171 1.16c-.58.614-1.036.75-1.036.75l-.421-.228a4.4 4.4 0 0 1 .57-.557c.329-.273.658-.297.658-.591.014-.616-.647-.446-.647-.446l-.24.228-.101.842-.5.626-.056-.012-.819-.181s.501-.261.581-.558c.08-.284-.16-1.228-.171-1.285.011.012.24.205.34.523.182-.501.422-.98.49-1.024.069-.045.989-.534.989-.534l-.306.807.228-.125.546-1.341s.534-.261.932-.261c.716-.012 1.774-.888 1.297-2.457.136.056 2.501 1.24 2.91 3.56.307 1.784-.705 3.455-2.411 4.422"/><path fill="#1B314F" d="M10.67 8.061c.26-.308.16-.762.16-.762l-.763 1.127c-.012 0 .27.012.602-.365M8.11 14.215l.091-.454s-.376.659-.41.75c-.034.104.024.285.17.273.148-.011.33-.228.33-.386 0-.204-.182-.183-.182-.183"/><path fill="#1B314F" d="M15.031 6.789s.579.024 1.179.093c-1.353-1.064-2.635-1.375-3.674-1.375-1.432 0-2.403.59-2.462.624l.451-.717s-1.802-.175-2.438 1.733c-.162-.404-.311-.994-.311-.994s-.937.822-.497 2.185c-1.076-.392-2.61-.937-2.67-.947-.081-.012-.105.024-.105.024s-.024.034.045.093c.13.101 2.556 1.894 3.088 2.241-.115.416-.115.612 0 .809.163.265.173.404.15.6s-.23 1.896-.276 2.104-.531.947-.51 1.167c.024.22.323 1.156.59 1.26.197.07.682.22 1.005.22.115 0 .22-.023.265-.069.196-.172.254-.208.393-.208h.033c.058 0 .127.012.208.012.184 0 .428-.036.6-.196.254-.254.694-.6.832-.763.175-.22.266-.52.22-.82-.036-.278.115-.521.29-.763.22-.29.623-.809.623-.809.798.599 1.295 1.512 1.295 2.529 0 1.803-1.57 3.26-3.511 3.26-.301 0-.588-.034-.878-.104.89.311 1.64.416 2.254.416 1.306 0 1.999-.473 1.999-.473s-.242.313-.636.67h.012c2.16-.302 3.213-2.081 3.213-2.081s-.082.579-.185.97c2.874-2.16 2.39-4.866 2.377-4.957.024.034.313.38.462.567.463-4.764-3.43-6.301-3.43-6.301m-4.425 7.607c-.045.057-.241.232-.38.358-.139.127-.29.254-.404.37q-.07.07-.277.07h-.347c.174-.232.681-.763.856-.878.208-.138.313-.277.184-.519-.127-.243-.462-.184-.462-.184s.197-.081.37-.081c-.219-.058-.496 0-.623.127-.139.126-.115.578-.172.865-.058.302-.254.452-.555.73-.162.15-.277.196-.37.196a4 4 0 0 1-.59-.15c-.115-.151-.29-.649-.335-.857.033-.115.172-.358.241-.497.139-.266.22-.416.244-.555.045-.196.196-1.41.253-1.918.151.196.359.521.311.73.335-.474.094-.938-.023-1.122-.103-.185-.242-.555-.127-.947.115-.393.53-1.48.53-1.48s.14.243.335.196c.197-.046 1.78-2.428 1.78-2.428s.427.935-.025 1.62c-.461.68-.913.808-.913.808s.636.114 1.224-.314c.242.567.474 1.156.486 1.237-.036.081-.498 1.19-.543 1.26-.024.024-.184.07-.301.093-.196.058-.311.093-.359.127-.08.07-.451 1.086-.624 1.583a.96.96 0 0 0-.566.405c.081-.058.335-.094.52-.115.163-.012.658.253.787.75v.024a.7.7 0 0 1-.125.496m-1.085.138c.105-.15.093-.404.105-.485s.034-.232.127-.254c.093-.023.313.012.313.173 0 .15-.163.184-.278.289-.083.08-.245.254-.267.277m4.609-2.209a5.6 5.6 0 0 0 .093-1.514c.45.6.727 1.33.808 2.08.012.094.103.185.196.278.082.07.175.163.175.22q0 .398-.07.799c-.012.033-.115.093-.196.138-.115.058-.22.115-.241.208a4.3 4.3 0 0 1-1.526 2.232c1.074-1.122 1.593-2.973.761-4.44m-.727 4.544c.75-.579 1.33-1.387 1.583-2.3.011-.035.114-.094.184-.14.115-.057.232-.126.253-.22.046-.265.07-.543.07-.82 0-.103-.105-.208-.208-.311-.058-.07-.15-.15-.15-.208a4.53 4.53 0 0 0-.948-2.3c-.231-1.388-1.154-1.816-1.178-1.827.024.035.624.901.208 1.918-.428 1.028-1.525.867-1.618.877-.093 0-.45.462-.902 1.318a1.25 1.25 0 0 0-.578-.034c.208-.578.521-1.398.579-1.468.023-.024.196-.07.312-.103.22-.057.323-.093.359-.139.024-.035.139-.3.253-.578.105 0 .37-.024.393-.036.023-.024.243-.588.243-.658 0-.057-.451-1.179-.624-1.607.082-.093.163-.208.242-.335a4.737 4.737 0 0 1 4.219 4.704 4.73 4.73 0 0 1-2.692 4.267"/><path fill="#1B314F" d="M10.236 10.758a.496.496 0 0 0-.296-.796c.103-.237.25-.715.25-.715s-1.16 1.82-1.262 1.854-.205-.364-.205-.364c-.216.83.365.943.433.682.318-.082.864-.423 1.08-.661"/><path fill="#FFD923" d="m9.246 11.2.59-1.011s.342.171.17.444c-.214.318-.76.568-.76.568"/><path fill="#D82122" d="M16.56 15.888a7 7 0 0 1-.59.694c1.466-2.821.068-5.403.01-5.504.104.103.206.216.297.318 1.125 1.25 1.262 3.127.283 4.492m1.365-3.628c-.513-1.377-1.24-2.55-2.843-3.606-1.546-1.024-3.208-.944-3.3-.932h-.023a1 1 0 0 1 .17-.045 7.3 7.3 0 0 1 1.263-.261 3.74 3.74 0 0 1 3.255 1.113l.023.024c.944 1 1.433 2.25 1.455 3.706m-3.208-5.631c-1.694-.318-2.786-.16-3.572.137a3 3 0 0 0-.171-.421c-.236.284-.488.625-.646.842-.433.296-.614.58-.614.58a2.37 2.37 0 0 1 1.866-1.649q.374-.068.819-.068a5.36 5.36 0 0 1 2.318.58M8.45 8.812c-1.33-.045-.887-1.593-.863-1.683 0 .012.09 1.217.863 1.683m1.309-2.786c-1.024.614-.82 2.08-.82 2.08-.978-1.488.74-2.045.82-2.08"/><path fill="#fff" d="M8.076 9.221c.068.057.136.16.057.309-.045.08-.114.068-.217.023a27 27 0 0 1-1.694-1.035c.842.296 1.694.614 1.83.682 0 0 .012.012.024.021"/></g><defs><clipPath id="a"><path fill="#fff" d="M0 0h24v24H0z"/></clipPath></defs></svg>