<svg xmlns="http://www.w3.org/2000/svg" fill="none" viewBox="0 0 24 24"><g clip-path="url(#a)"><path fill="#fff" fill-rule="evenodd" d="M.414 12C.414 18.4 5.6 23.586 12 23.586S23.586 18.4 23.586 12 18.399.414 12 .414C5.6.414.414 5.6.414 12Z" clip-rule="evenodd"/><path fill="#1A8CFF" fill-rule="evenodd" d="M12 2.897a9.104 9.104 0 1 1 0 18.207 9.104 9.104 0 0 1 0-18.207Z" clip-rule="evenodd"/><path fill="#000" d="M0 12c0 6.628 5.372 12 12 12s12-5.372 12-12S18.628 0 12 0 0 5.372 0 12Zm.414 0C.414 5.602 5.6.414 12 .414S23.586 5.602 23.586 12c0 6.398-5.186 11.586-11.586 11.586S.414 18.398.414 12Z" opacity=".5"/><path fill="#000" fill-opacity=".052" fill-rule="evenodd" d="M23.57 11.38c.01.205.016.412.016.62 0 6.399-5.187 11.586-11.586 11.586C5.6 23.586.414 18.4.414 12c0-.208.005-.415.016-.62C.752 17.49 5.81 22.344 12 22.344c6.142 0 11.17-4.78 11.561-10.825l.009-.14ZM12 1.654c5.599 0 10.138 4.54 10.138 10.138 0 3.13-1.419 5.93-3.648 7.789a9.517 9.517 0 1 0-12.98 0 10.118 10.118 0 0 1-3.648-7.789C1.862 6.194 6.4 1.655 12 1.655Z" clip-rule="evenodd"/><path fill="#000" d="M12 2.897a9.104 9.104 0 1 1-9.102 9.254L2.896 12A9.103 9.103 0 0 1 12 2.897Zm0 .413a8.69 8.69 0 1 0 0 17.38 8.69 8.69 0 0 0 0-17.38Z" opacity=".256"/><path fill="#000" fill-opacity=".25" d="M12.046 4.759a7.262 7.262 0 0 0-7.287 7.287c0 3.968 3.257 7.195 7.287 7.195 3.954 0 7.196-3.242 7.196-7.195 0-4.03-3.228-7.287-7.196-7.287Zm0 .413c3.725 0 6.782 3.057 6.782 6.874 0 3.725-3.057 6.782-6.782 6.782-3.816 0-6.873-3.057-6.873-6.782a6.847 6.847 0 0 1 6.873-6.874Z"/><path fill="#F7F7F7" fill-rule="evenodd" d="M12.046 5.172c3.725 0 6.782 3.057 6.782 6.874 0 3.725-3.057 6.782-6.782 6.782-3.817 0-6.874-3.057-6.874-6.782a6.847 6.847 0 0 1 6.874-6.874Z" clip-rule="evenodd"/><path fill="#000" fill-opacity=".05" fill-rule="evenodd" d="M15.103 12a3.103 3.103 0 1 1-6.207 0 3.103 3.103 0 0 1 6.207 0Z" clip-rule="evenodd"/><path fill="#fff" d="M12 8.483a3.517 3.517 0 1 0 0 7.034 3.517 3.517 0 0 0 0-7.034Zm0 .414a3.104 3.104 0 1 1 0 6.207 3.104 3.104 0 0 1 0-6.207Z"/><path fill="#000" fill-opacity=".15" d="M12 8.897a3.104 3.104 0 1 1 0 6.207 3.104 3.104 0 0 1 0-6.207Zm0 .413a2.69 2.69 0 1 0 0 5.38 2.69 2.69 0 0 0 0-5.38Z"/><path fill="#fff" d="M13.154 6.62h-2.308c-.511 0-.915.449-.915.988v2.233c0 .203.073.4.206.546l.34.377c.007.009.007.033 0 .042l-.34.376a.818.818 0 0 0-.206.547v4.663c0 .54.404.987.915.987h2.308c.511 0 .915-.448.915-.987v-2.233a.817.817 0 0 0-.206-.546l-.34-.377c-.007-.009-.007-.033 0-.042l.34-.376a.817.817 0 0 0 .206-.547V7.608c0-.54-.404-.987-.915-.987Zm-.026.422c.291 0 .527.268.527.598v4.63a.428.428 0 0 1-.103.281l-.33.374a.437.437 0 0 0 0 .564l.33.373a.426.426 0 0 1 .103.282v2.216c0 .33-.236.598-.527.598h-2.255c-.292 0-.528-.268-.528-.598v-4.63c0-.105.037-.207.103-.281l.33-.374a.437.437 0 0 0 0-.564l-.33-.373a.426.426 0 0 1-.103-.282V7.64c0-.33.236-.598.527-.598h2.256Z"/><path fill="#0A2D4D" fill-rule="evenodd" d="M10.345 9.852V7.633c0-.33.236-.599.527-.599h2.255c.292 0 .528.269.528.6v4.636a.429.429 0 0 1-.103.282l-.33.375a.438.438 0 0 0 0 .564l.33.374a.428.428 0 0 1 .103.282v2.22c0 .33-.236.598-.527.598h-2.256c-.291 0-.527-.268-.527-.598V11.73a.43.43 0 0 1 .103-.282l.33-.375a.438.438 0 0 0 0-.564l-.33-.374a.429.429 0 0 1-.103-.283Z" clip-rule="evenodd"/><path fill="#000" fill-opacity=".4" d="M13.127 7.034c.292 0 .528.269.528.6v4.636a.429.429 0 0 1-.103.282l-.33.375a.438.438 0 0 0 0 .564l.33.374a.428.428 0 0 1 .103.282v2.22c0 .33-.236.598-.527.598h-2.256c-.291 0-.527-.268-.527-.598V11.73a.43.43 0 0 1 .103-.282l.33-.375a.438.438 0 0 0 0-.564l-.33-.374a.428.428 0 0 1-.103-.282v-2.22c0-.33.236-.599.527-.599h2.255Zm-.06.425-2.135-.002c-.084 0-.162.078-.172.19l-.002.024V9.87c0 .007.002.012.004.016l.002.005.346.371c.27.29.28.745.028 1.047l-.028.031-.345.372a.025.025 0 0 0-.005.012l-.001.008v4.597c0 .116.073.202.155.213l.018.001 2.136.003c.084 0 .162-.078.173-.19v-2.224a.04.04 0 0 0-.003-.015l-.002-.005-.346-.371a.798.798 0 0 1-.028-1.047l.028-.032.345-.37a.024.024 0 0 0 .006-.013V7.673c0-.115-.072-.201-.155-.212l-.018-.002Z"/></g><defs><clipPath id="a"><path fill="#fff" d="M0 0h24v24H0z"/></clipPath></defs></svg>