<svg xmlns="http://www.w3.org/2000/svg" fill="none" viewBox="0 0 24 24"><g clip-path="url(#a)"><path fill="#E9B113" d="M12 24c6.627 0 12-5.372 12-12 0-6.627-5.373-12-12-12S0 5.373 0 12c0 6.628 5.373 12 12 12"/><path fill="#fff" fill-rule="evenodd" d="M14.367 9.353v-.391h3.552v2.74H15.16v-.787h-.397v-.39h-.397v-.385h-.396v-.397h.396v.39h.391v-.39h.397v-.39zm1.184 1.965h1.971V9.353h-1.97zM9.514 8.5c-.243-.012-.55-.047-.823-.23-.343-.231-.515-.61-.509-1.12 0-.23.054-.556.314-.804.38-.368.96-.35 1.163-.344h.033c.118 0 .544.06 1.041.344.48.272.912.61 1.243 1.107l.03.047.035-.089a3.5 3.5 0 0 1 1.143-1.047c.503-.285.929-.35 1.047-.35h.032c.204-.006.785-.024 1.164.344.142.142.314.39.314.805 0 .515-.172.893-.515 1.124-.273.178-.58.22-.823.231-.213.006-.556.012-.923.012-.592 0-1.261 0-1.48-.006l-.194-.002c-.294-.003-.864-.01-1.369-.01-.367 0-.716 0-.923-.012m4.723-1.835c-.023 0-.343.036-.763.279a2.8 2.8 0 0 0-.96.935c.58.006 1.475.012 1.86-.006.455-.024.721-.148.721-.71 0-.154-.041-.26-.118-.338-.124-.118-.361-.171-.698-.16zm-4.693-.017q-.436 0-.604.16c-.077.076-.113.183-.113.337 0 .562.267.686.723.71a47 47 0 0 0 1.864.006 2.85 2.85 0 0 0-.965-.935c-.42-.243-.74-.278-.763-.278zm2.852 10.565h.391v-.39h.397v-.397h.396v-.391h-.396v-.397h.396v-.39h.39v-.39h1.185v-.398H13.97v-.787h-.39l-.397.006v-.396h.396v-.787h.39v.787h.397v-.397h.397v-.39h.39v.396h-.39v1.178h.39v-.397h.397v-.39h.787v-1.178h.397v1.178h-.39v.396h.39v.781h-.787v-.39h-.397v1.568h-1.184v1.965h1.971v-1.965h.397V18H13.58v-.397h.39v-.39h-.39v-.39h-.396v.39h-.391V18h-.396zm-1.58-6.683v-.39h.39v-.397h-.39v-.781H9.632v.39h.787v.391h-.396v.39h-.39v-.39h-.391v-.781H6.08v2.752h3.16v-.396h.391v-.787h.397v.39h.396v-.39zm-1.184-.396v.39h-.39v-.384h-.403v-.39h.397v.384zM8.45 11.318H6.478V9.353h1.97zm.39 0v-.787h.397v.787zm1.58-1.184v-.385h.397v.385zm3.161 4.327v-.391h-.793v-.787h-.39v-1.184h-.788v.396h-.402v.788h-.39v.39h.396v-.39h.39v1.178h-.787v-.391h-.397v-.787h-.39v-.39h-.793V12.5H8.84v-.39h-.787v.39h-.397v.391h.397v.39h.397v.391h.396v.391h.39v-.39h.397v.39h-.39v.787h.787v.397h-.793v-.39H8.84v.39h-.787v-.39h-.39v.39h-.397V18h2.764v-2.362h.39v1.184h.794v-.39h.396v-.794h-.396v-.39h-.397v.39h-.39v-.787h1.183v.39h.397v-.78h.781v.396h.397v-.396zm-3.948-.788v-.39h.391v.39zm-1.183-.39v-.39h.396v.39zm3.947 0v.39h-.39v-.39zm-2.764 4.32h-1.97v-1.965h1.97zm.397-3.142h-.397v-.391h.397zm.787 1.574h.397v.39h-.397zm2.764-7.073h.39v.781h-.39zm-.793.781h.793v.787h.787v.788h-.396v.396h-.39v-.793h-.397v.787h-.397v-.787h-.39v-.39H12v-.391h-.397v.39h-.39v-.39h.39v-.397H12v.397h.396V8.962h.391zm-1.574 1.575h-.397v.39h-.39v-.787h.39v-.39h.397zm0 0h.39v.39h-.39zm.39 5.895V18H12v-1.178h.396v-.396h.391v-1.178h-.39v1.178H12v.396h-.787v.39zm-3.947-4.32h-.391v1.964h.39v-.787h.397v-.787h-.396zm.396 3.142h1.184v1.178H8.052zm-.787-3.93h.396v.39h-.396zm2.367-.787h.397v.396h-.397zM12 10.92h.396v.787H12zM6.868 9.743h1.184v1.178H6.868zm3.552 7.47h.396V18h-.396zm-1.184-5.108h1.184v.39H9.236zm3.948 2.752h.396v.39h-.396zm1.97-1.965h.397v.39h-.396zm.794 1.965h.787v.397h-.787zm0-5.108h1.183v1.178h-1.183zm-1.58 1.569h.396v.396h-.397zm-1.58.787h.396v.39h-.397zm2.763 0h.397v.39h-.397zm-.787 3.93h1.184v1.178h-1.184zm-.397-3.93h.397v.39h-.397z" clip-rule="evenodd"/></g><defs><clipPath id="a"><path fill="#fff" d="M0 0h24v24H0z"/></clipPath></defs></svg>