<svg xmlns="http://www.w3.org/2000/svg" fill="none" viewBox="0 0 24 24"><g clip-path="url(#a)"><path fill="#E9B113" d="M12 24c6.627 0 12-5.373 12-12S18.627 0 12 0 0 5.373 0 12s5.373 12 12 12Z"/><path fill="#fff" fill-rule="evenodd" d="M14.368 9.353v-.391h3.55v2.74h-2.757v-.787h-.397v-.39h-.396v-.385h-.397v-.397h.397v.39h.39v-.39h.397v-.39h-.787Zm1.183 1.965h1.971V9.353h-1.97v1.965ZM9.514 8.5c-.243-.012-.55-.047-.823-.23-.343-.231-.514-.61-.509-1.12 0-.23.054-.556.314-.804.38-.368.96-.35 1.164-.344h.032c.118 0 .544.06 1.041.344.48.272.912.61 1.243 1.107l.03.047.035-.089a3.495 3.495 0 0 1 1.143-1.047c.503-.285.93-.35 1.047-.35h.033c.203-.006.784-.024 1.163.344.142.142.314.39.314.805 0 .515-.172.893-.515 1.124-.273.178-.58.22-.823.231-.213.006-.556.012-.923.012-.592 0-1.261 0-1.48-.006l-.194-.002c-.294-.003-.864-.01-1.368-.01-.368 0-.717 0-.924-.012Zm4.723-1.835c-.023 0-.343.036-.763.279a2.78 2.78 0 0 0-.959.935c.58.006 1.474.012 1.858-.006.456-.024.723-.148.723-.71 0-.154-.042-.26-.119-.338-.124-.118-.36-.171-.698-.16h-.042Zm-4.693-.017c-.29 0-.492.053-.604.16-.077.076-.112.183-.112.337 0 .562.266.686.722.71a46.68 46.68 0 0 0 1.864.006 2.849 2.849 0 0 0-.965-.935c-.42-.243-.74-.278-.763-.278h-.142Zm2.853 10.565h.39v-.39h.397v-.397h.396v-.391h-.396v-.397h.396v-.39h.391v-.39h1.184v-.398H13.97v-.787h-.39l-.397.006v-.396h.396v-.787h.391v.787h.396v-.397h.397v-.39h.39v.396h-.39v1.178h.39v-.397h.397v-.39h.787v-1.178h.397v1.178h-.39v.396h.39v.781h-.787v-.39h-.397v1.568h-1.184v1.965h1.971v-1.965h.397V18H13.58v-.397h.391v-.39h-.39v-.39h-.397v.39h-.39V18h-.397v-.787Zm-1.58-6.683v-.39h.39v-.397h-.39v-.781H9.631v.39h.788v.391h-.397v.39h-.39v-.39h-.391v-.781h-3.16v2.752h3.16v-.396h.39v-.787h.397v.39h.397v-.39h.39Zm-1.185-.396v.39h-.39v-.384h-.403v-.39h.397v.384h.396ZM8.45 11.318H6.478V9.353h1.97v1.965Zm.39 0v-.787h.397v.787H8.84Zm1.58-1.184v-.385h.397v.385h-.396Zm3.161 4.327v-.391h-.793v-.787h-.39v-1.184h-.788v.396h-.402v.788h-.39v.39h.396v-.39h.39v1.178h-.787v-.391h-.396v-.787h-.391v-.39h-.793V12.5H8.84v-.39h-.787v.39h-.396v.391h.396v.39h.397v.391h.396v.391h.39v-.39h.397v.39h-.39v.787h.787v.397h-.793v-.39H8.84v.39h-.787v-.39h-.39v.39h-.397V18h2.764v-2.362h.39v1.184h.794v-.39h.396v-.794h-.396v-.39h-.397v.39h-.39v-.787h1.183v.39h.397v-.78h.781v.396h.397v-.396h.396Zm-3.948-.788v-.39h.391v.39h-.39Zm-1.183-.39v-.39h.396v.39H8.45Zm3.947 0v.39h-.39v-.39h.39Zm-2.764 4.32h-1.97v-1.965h1.97v1.965Zm.397-3.142h-.397v-.391h.397v.39Zm.787 1.574h.397v.39h-.397v-.39Zm2.764-7.073h.39v.781h-.39v-.781Zm-.793.781h.793v.787h.787v.788h-.396v.396h-.39v-.793h-.397v.787h-.397v-.787h-.39v-.39H12v-.391h-.396v.39h-.391v-.39h.39v-.397H12v.397h.396V8.962h.391v.781Zm-1.574 1.575h-.397v.39h-.39v-.787h.39v-.39h.397v.787Zm0 0h.39v.39h-.39v-.39Zm.39 5.895V18H12v-1.178h.397v-.396h.39v-1.178h-.39v1.178H12v.396h-.787v.39h.39Zm-3.947-4.32h-.391v1.964h.39v-.787h.397v-.787h-.396v-.39Zm.396 3.142h1.184v1.178H8.052v-1.178Zm-.787-3.93h.397v.39h-.397v-.39Zm2.368-.787h.396v.396h-.396v-.396ZM12 10.92h.397v.787H12v-.787ZM6.868 9.743h1.184v1.178H6.868V9.743Zm3.552 7.47h.396V18h-.396v-.787Zm-1.184-5.108h1.184v.39H9.236v-.39Zm3.948 2.752h.396v.39h-.396v-.39Zm1.97-1.965h.397v.39h-.396v-.39Zm.794 1.965h.787v.397h-.787v-.397Zm0-5.108h1.184v1.178h-1.184V9.75Zm-1.58 1.569h.396v.396h-.396v-.396Zm-1.58.787h.396v.39h-.397v-.39Zm2.763 0h.397v.39h-.397v-.39Zm-.787 3.93h1.184v1.178h-1.184v-1.178Zm-.396-3.93h.396v.39h-.396v-.39Z" clip-rule="evenodd"/></g><defs><clipPath id="a"><path fill="#fff" d="M0 0h24v24H0z"/></clipPath></defs></svg>