<svg xmlns="http://www.w3.org/2000/svg" fill="none" viewBox="0 0 24 24"><path fill="currentColor" fill-rule="evenodd" d="M4 0a4 4 0 0 0-4 4v16a4 4 0 0 0 4 4h16a4 4 0 0 0 4-4V4a4 4 0 0 0-4-4H4Zm2.215 13.712a74.38 74.38 0 0 1-2.841 2.56l-1.355 1.166V19h9.145v-1.788H5.199l.847-.752a42.102 42.102 0 0 0 2.408-2.277 10.382 10.382 0 0 0 1.637-2.24c.465-.84.697-1.712.697-2.615 0-1.255-.39-2.258-1.167-3.01-.765-.753-1.832-1.13-3.199-1.13-1.267 0-2.314.383-3.142 1.148C2.464 7.089 2.038 8.18 2 9.61h2.07c.025-.79.238-1.417.64-1.882.414-.476.99-.715 1.73-.715.766 0 1.324.214 1.676.64.363.427.545 1.016.545 1.769 0 .728-.232 1.455-.696 2.183a11.643 11.643 0 0 1-1.75 2.107ZM22 19l-3.35-5.25L22 8.632h-2.24l-2.107 3.518-2.239-3.518h-2.427l3.349 5.268-3.35 5.1h2.24l2.107-3.519L19.573 19H22Z" clip-rule="evenodd"/></svg>