<svg xmlns="http://www.w3.org/2000/svg" fill="none" viewBox="0 0 24 24"><path fill="#62757E" fill-rule="evenodd" d="M4 0a4 4 0 0 0-4 4v16a4 4 0 0 0 4 4h16a4 4 0 0 0 4-4V4a4 4 0 0 0-4-4zm-.185 16.477V18h7.978v-1.761H6.724v-.08l2.006-2.04q1.131-1.09 1.756-1.858.63-.767.88-1.397t.25-1.284q0-.977-.494-1.739-.489-.761-1.375-1.199-.885-.437-2.057-.437-1.153 0-2.045.448-.886.45-1.392 1.268-.506.817-.506 1.926h2.006q0-.596.233-1.029.238-.432.67-.665.432-.238 1.006-.238.557 0 .994.216.438.216.688.613.25.393.25.944 0 .481-.193.909a3.8 3.8 0 0 1-.58.88q-.387.455-.966 1.04zm12.904-3.983-1.762-3.221h-2.181l2.59 4.363L12.708 18h2.182l1.83-3.142L18.565 18h2.165l-2.676-4.364 2.63-4.363H18.51z" clip-rule="evenodd"/></svg>