<svg xmlns="http://www.w3.org/2000/svg" fill="none" viewBox="0 0 24 24"><path fill="#62757E" fill-rule="evenodd" d="M4 0a4 4 0 0 0-4 4v16a4 4 0 0 0 4 4h16a4 4 0 0 0 4-4V4a4 4 0 0 0-4-4H4Zm-.185 16.477V18h7.978v-1.761H6.724v-.08l2.006-2.04c.754-.727 1.34-1.346 1.756-1.858.42-.511.714-.977.88-1.397.167-.42.25-.849.25-1.284 0-.652-.164-1.231-.494-1.739-.326-.508-.784-.907-1.375-1.199-.59-.292-1.276-.437-2.057-.437-.769 0-1.45.15-2.045.448-.591.3-1.055.722-1.392 1.268-.337.545-.506 1.187-.506 1.926h2.006c0-.398.078-.74.233-1.029.159-.288.382-.51.67-.665a2.047 2.047 0 0 1 1.006-.238c.371 0 .703.072.994.216.292.144.521.348.688.613.166.262.25.576.25.944 0 .321-.065.624-.193.909a3.816 3.816 0 0 1-.58.88c-.258.303-.58.65-.966 1.04l-4.04 3.96Zm12.904-3.983-1.762-3.221h-2.181l2.59 4.363L12.707 18h2.182l1.83-3.142L18.565 18h2.165l-2.676-4.364 2.63-4.363H18.51l-1.79 3.221Z" clip-rule="evenodd"/></svg>