<svg xmlns="http://www.w3.org/2000/svg" fill="none" viewBox="0 0 24 24"><path fill="#62757E" d="M20 0a4 4 0 0 1 4 4v16a4 4 0 0 1-4 4H4a4 4 0 0 1-4-4V4a4 4 0 0 1 4-4zM7.69 6.205q-1.153 0-2.045.448-.886.45-1.392 1.268-.506.817-.506 1.926h2.006q0-.596.232-1.029.24-.432.671-.665.433-.238 1.006-.238.557 0 .994.216.438.216.688.613.25.392.25.944 0 .482-.194.909a3.8 3.8 0 0 1-.579.88q-.386.456-.966 1.04l-4.04 3.96V18h7.978v-1.762H6.725v-.079l2.005-2.04q1.131-1.09 1.755-1.857.631-.768.881-1.399.25-.63.25-1.283 0-.977-.494-1.74-.489-.76-1.375-1.197-.885-.438-2.057-.438m5.085 3.067 2.591 4.365L12.707 18h2.183l1.829-3.142L18.565 18h2.165l-2.676-4.363 2.63-4.365H18.51l-1.79 3.222-1.762-3.222z"/></svg>