<svg xmlns="http://www.w3.org/2000/svg" fill="none" viewBox="0 0 24 24"><path fill="#62757E" fill-rule="evenodd" d="M20.556 17.333H3.444c-.796 0-1.444-.635-1.444-1.416v-10.5C2 4.636 2.648 4 3.444 4h17.112C21.352 4 22 4.636 22 5.417v10.5c0 .78-.648 1.416-1.444 1.416m-.223-11.666H3.667v10h16.666zm-10.666 2a.833.833 0 0 1 1.5.5v5a.834.834 0 0 1-1.667 0v-.834H7.833A.832.832 0 0 1 7.167 11zm3.166-.334c.46 0 .834.374.834.834v1.321l1.91-1.91a.832.832 0 1 1 1.179 1.178l-1.911 1.91 1.91 1.912a.832.832 0 1 1-1.177 1.178l-1.911-1.911v1.322a.834.834 0 0 1-1.667 0v-5c0-.46.373-.834.833-.834M7 19h10a.834.834 0 0 1 0 1.667H7A.834.834 0 0 1 7 19" clip-rule="evenodd"/></svg>