<svg xmlns="http://www.w3.org/2000/svg" fill="none" viewBox="0 0 24 24"><g clip-path="url(#a)"><path fill="#2EBAC6" d="M12 24c6.627 0 12-5.373 12-12S18.627 0 12 0 0 5.373 0 12s5.373 12 12 12Z"/><path fill="#fff" d="m17.448 16.431-4.202-10.15c-.237-.525-.59-.781-1.054-.781h-.372c-.464 0-.816.256-1.053.78l-1.83 4.423H7.555a.758.758 0 0 0-.753.752v.01a.76.76 0 0 0 .753.752h.743L6.551 16.43a.88.88 0 0 0-.051.288.81.81 0 0 0 .205.567c.131.144.32.214.557.214a.746.746 0 0 0 .433-.144.935.935 0 0 0 .3-.38l1.923-4.762h1.332a.758.758 0 0 0 .753-.752v-.02a.76.76 0 0 0-.753-.752h-.71l1.466-3.65 3.998 9.932a.936.936 0 0 0 .3.38.75.75 0 0 0 .433.145c.237 0 .423-.07.558-.215a.793.793 0 0 0 .205-.566.67.67 0 0 0-.052-.285Z"/></g><defs><clipPath id="a"><path fill="#fff" d="M0 0h24v24H0z"/></clipPath></defs></svg>