<svg xmlns="http://www.w3.org/2000/svg" fill="none" viewBox="0 0 24 24"><path fill="#FE9B00" d="M22 12.002C22.007 17.473 17.572 22 12.002 22S1.997 17.47 2 11.995 6.431 2 12.005 2 22.01 6.534 22 12.002"/><path fill="#191C31" d="M19.687 13.243c-.017-.034-.003-.061-.003-.088a1.14 1.14 0 0 0-.894-1.242c-.375-.078-.71.027-.996.273a20 20 0 0 0-1.006.935q-.599.588-1.174 1.197a2.4 2.4 0 0 1-.958.638c-1.058.361-2.214-.205-2.617-1.187-.048-.12-.044-.143.051-.225l.669-.58.02-.017c.028-.017.048-.058.082-.041s.014.054.017.082a1.13 1.13 0 0 0 .98 1.064 1.154 1.154 0 0 0 1.248-.774c.194-.614-.13-1.225-.757-1.426-.383-.123-.73-.041-1.034.211-.249.205-.488.42-.73.635-.16.143-.32.29-.484.43a.36.36 0 0 0-.12.207c-.13.659-.498 1.15-1.081 1.474a2 2 0 0 1-1.2.242 2.1 2.1 0 0 1-1.219-.525 2.04 2.04 0 0 1-.563-.812.12.12 0 0 1 .038-.146q.115-.098.232-.195.239-.211.484-.416c.028-.024.055-.065.089-.051.034.013.02.061.024.095a1.16 1.16 0 0 0 .907 1.095 1.14 1.14 0 0 0 1.338-.812 1.162 1.162 0 0 0-1.17-1.46 1.04 1.04 0 0 0-.645.25q-.333.278-.655.566l-.662.586a.25.25 0 0 0-.092.202v1.48c0 .14-.02.16-.16.157a.92.92 0 0 1-.693-.317c-.068-.079-.082-.079-.174-.027a2.05 2.05 0 0 1-1.081.276c-.792-.027-1.395-.386-1.805-1.065a2 2 0 0 1-.286-1.06c0-.49.173-.965.487-1.341.321-.392.73-.648 1.232-.73.669-.106 1.283.017 1.798.484q.246.225.423.509a.2.2 0 0 0 .081.088.17.17 0 0 0 .079-.15c-.003-.337 0-.675 0-1.016q0-1.152-.003-2.3c0-.15.017-.167.17-.167a.92.92 0 0 1 .914.82q.01.08.01.163v1.79c.004.083.021.093.096.055a2.2 2.2 0 0 1 .703-.228 2.1 2.1 0 0 1 1.64.45 2 2 0 0 1 .444.491c.024.034.044.072.089.079.024.003.092-.086.095-.123a1 1 0 0 0 .007-.14V9.208c0-.495.307-.867.795-.959a.7.7 0 0 1 .164-.017c.071.004.102.031.119.1a.7.7 0 0 1 .014.163v2.52c.006.045.02.059.064.042l.174-.075a2.1 2.1 0 0 1 2.33.505c.2.214.355.466.457.74l.02.061c.035.089.045.092.117.028l.962-.85c.27-.246.597-.42.951-.505a2.13 2.13 0 0 1 2.467 1.293.194.194 0 0 1-.048.236c-.235.232-.464.467-.7.702a.2.2 0 0 1-.07.051"/><path fill="#191C31" d="M18.763 14.168a.08.08 0 0 1-.038.065q-.374.373-.743.75a.14.14 0 0 1-.167.038 2.1 2.1 0 0 1-1.245-1.19c-.038-.086-.031-.114.037-.171q.365-.319.73-.632a.1.1 0 0 1 .058-.034c.024.024.017.055.02.082.013.16.053.318.12.464.16.334.433.526.785.61a1 1 0 0 0 .228.021c.068-.007.14-.003.215-.003"/><path fill="#FF9C00" d="M6.875 12.899c.017.607-.502 1.136-1.133 1.143a1.14 1.14 0 0 1-1.146-1.13 1.15 1.15 0 0 1 1.146-1.166c.617-.014 1.136.491 1.133 1.153"/></svg>