<svg xmlns="http://www.w3.org/2000/svg" fill="none" viewBox="0 0 24 24"><path fill="#FE9B00" d="M22 12.002C22.007 17.473 17.572 22 12.002 22 6.432 22 1.997 17.47 2 11.995 2.003 6.52 6.431 2 12.005 2 17.58 2 22.01 6.534 22 12.002Z"/><path fill="#191C31" d="M19.687 13.243c-.017-.034-.003-.061-.003-.088a1.139 1.139 0 0 0-.894-1.242c-.375-.078-.71.027-.996.273a20.08 20.08 0 0 0-1.006.935c-.4.392-.79.791-1.174 1.197-.27.287-.583.508-.958.638-1.058.361-2.214-.205-2.617-1.187-.048-.12-.044-.143.051-.225.222-.195.447-.386.669-.58.007-.007.014-.01.02-.017.028-.017.048-.058.082-.041s.014.054.017.082a1.132 1.132 0 0 0 .98 1.064 1.154 1.154 0 0 0 1.248-.774c.194-.614-.13-1.225-.757-1.426-.383-.123-.73-.041-1.034.211-.249.205-.488.42-.73.635-.16.143-.32.29-.484.43a.36.36 0 0 0-.12.207c-.13.659-.498 1.15-1.081 1.474a2.01 2.01 0 0 1-1.2.242 2.096 2.096 0 0 1-1.219-.525 2.042 2.042 0 0 1-.563-.812.118.118 0 0 1 .038-.146c.078-.065.153-.13.232-.195.16-.14.32-.28.484-.416.028-.024.055-.065.089-.051.034.013.02.061.024.095a1.158 1.158 0 0 0 .907 1.095 1.14 1.14 0 0 0 1.338-.812 1.161 1.161 0 0 0-1.17-1.46 1.039 1.039 0 0 0-.645.25c-.222.184-.44.375-.655.566-.222.194-.44.392-.662.586a.25.25 0 0 0-.092.202v1.48c0 .14-.02.16-.16.157a.915.915 0 0 1-.693-.317c-.068-.079-.082-.079-.174-.027a2.05 2.05 0 0 1-1.081.276c-.792-.027-1.395-.386-1.805-1.065a2 2 0 0 1-.286-1.06c0-.49.173-.965.487-1.341a1.97 1.97 0 0 1 1.232-.73c.669-.106 1.283.017 1.798.484.163.15.306.32.423.509a.188.188 0 0 0 .081.088.17.17 0 0 0 .079-.15c-.003-.337 0-.675 0-1.016 0-.768-.001-1.534-.003-2.3 0-.15.017-.167.17-.167a.921.921 0 0 1 .914.82c.007.053.01.108.01.163v1.79c.004.083.021.093.096.055a2.15 2.15 0 0 1 .703-.228 2.084 2.084 0 0 1 1.64.45 2.06 2.06 0 0 1 .444.491c.024.034.044.072.089.079.024.003.092-.086.095-.123a.92.92 0 0 0 .007-.14V9.208c0-.495.307-.866.795-.959a.65.65 0 0 1 .164-.017c.071.004.102.031.119.1a.662.662 0 0 1 .014.163v2.52c.006.045.02.059.064.042l.174-.075a2.103 2.103 0 0 1 2.33.505c.2.214.355.466.457.74l.02.061c.035.089.045.092.117.028l.962-.85c.27-.246.597-.42.951-.505a2.129 2.129 0 0 1 2.467 1.293.194.194 0 0 1-.048.236c-.235.232-.464.467-.7.702a.213.213 0 0 1-.07.051Z"/><path fill="#191C31" d="M18.763 14.168a.084.084 0 0 1-.038.065c-.249.249-.498.498-.744.75a.143.143 0 0 1-.167.037 2.09 2.09 0 0 1-1.245-1.19c-.037-.085-.03-.113.038-.17.242-.212.488-.424.73-.632a.11.11 0 0 1 .058-.034c.024.024.017.055.02.082.012.16.053.318.12.464.16.334.433.525.784.61a.853.853 0 0 0 .229.021c.068-.007.14-.003.215-.003Z"/><path fill="#FF9C00" d="M6.875 12.899c.017.607-.502 1.136-1.133 1.143a1.14 1.14 0 0 1-1.146-1.13 1.15 1.15 0 0 1 1.146-1.166c.618-.014 1.136.491 1.133 1.153Z"/></svg>