<svg xmlns="http://www.w3.org/2000/svg" fill="none" viewBox="0 0 24 24"><path fill="#62757E" fill-rule="evenodd" d="M12.32 3.063a.8.8 0 0 0-.64 0 57.3 57.3 0 0 0-9.94 5.582.8.8 0 0 0 .247 1.427q.927.255 1.843.55a58 58 0 0 0-.387 5.406.8.8 0 0 0 .492.758q.897.375 1.778.788c-.23.444-.526.851-.881 1.205a.8.8 0 0 0 1.13 1.133c.48-.479.88-1.03 1.187-1.632a45 45 0 0 1 4.407 2.59.8.8 0 0 0 .888 0 45 45 0 0 1 7.622-4.084.8.8 0 0 0 .492-.758 58 58 0 0 0-.387-5.407 48 48 0 0 1 1.843-.55.8.8 0 0 0 .245-1.427 57.3 57.3 0 0 0-9.939-5.581M4.936 9.3l.051.017q1.13.381 2.238.816a53 53 0 0 1 4.429-2.393.8.8 0 1 1 .693 1.442 51 51 0 0 0-3.274 1.72q1.486.656 2.927 1.41a48.6 48.6 0 0 1 7.952-3.3A56 56 0 0 0 12 4.67a56 56 0 0 0-7.95 4.342q.445.14.887.288m.123 6.225a56 56 0 0 1 .321-4.377q.438.157.872.324v1.148a1.548 1.548 0 0 0 0 2.627v.101q0 .347-.048.69-.57-.264-1.145-.513m2.706-.204-.02.025-.048 1.417Q9.914 17.89 12 19.246a46.6 46.6 0 0 1 6.942-3.72 56 56 0 0 0-.321-4.378 47 47 0 0 0-6.244 2.774.8.8 0 0 1-.754 0 47 47 0 0 0-3.77-1.805v.477a1.548 1.548 0 0 1-.088 2.727" clip-rule="evenodd"/></svg>