<svg xmlns="http://www.w3.org/2000/svg" fill="none" viewBox="0 0 24 24"><path fill="#62757E" fill-rule="evenodd" d="M12.32 3.063a.8.8 0 0 0-.64 0 57.254 57.254 0 0 0-9.94 5.582.8.8 0 0 0 .247 1.427c.618.17 1.233.354 1.843.55a57.752 57.752 0 0 0-.387 5.406.8.8 0 0 0 .492.758c.598.25 1.191.513 1.778.788-.23.444-.526.851-.881 1.205a.8.8 0 0 0 1.13 1.133c.48-.479.88-1.03 1.187-1.632a45.024 45.024 0 0 1 4.407 2.59.8.8 0 0 0 .888 0 45.015 45.015 0 0 1 7.622-4.084.8.8 0 0 0 .492-.758 57.738 57.738 0 0 0-.387-5.407 47.54 47.54 0 0 1 1.843-.55.8.8 0 0 0 .245-1.427 57.254 57.254 0 0 0-9.939-5.581ZM4.936 9.3a48.607 48.607 0 0 1 2.29.833 52.989 52.989 0 0 1 4.428-2.393.8.8 0 1 1 .693 1.442 51.392 51.392 0 0 0-3.274 1.72c.99.437 1.967.907 2.927 1.41a48.606 48.606 0 0 1 7.952-3.3A55.656 55.656 0 0 0 12 4.67a55.653 55.653 0 0 0-7.95 4.342c.297.093.592.19.887.288Zm.123 6.225a56.16 56.16 0 0 1 .321-4.377c.292.105.583.213.872.324v1.148a1.548 1.548 0 0 0 0 2.627v.101c0 .231-.015.462-.048.69-.38-.176-.761-.347-1.145-.513Zm2.706-.204-.02.025-.048 1.417c1.477.75 2.913 1.58 4.303 2.483a46.612 46.612 0 0 1 6.942-3.72 56.191 56.191 0 0 0-.321-4.378 46.999 46.999 0 0 0-6.244 2.774.8.8 0 0 1-.754 0 46.982 46.982 0 0 0-3.77-1.805v.477a1.548 1.548 0 0 1-.088 2.727Z" clip-rule="evenodd"/></svg>