<svg xmlns="http://www.w3.org/2000/svg" fill="none" viewBox="0 0 24 24"><path fill="url(#a)" d="M15.401 15.974a9.8 9.8 0 0 0-2.823-.397 9.6 9.6 0 0 0-4.497 1.11l.893-1.52.797-1.35 2.15-3.662 2.026 3.376-3.34-5.574-3.586 6.12-3.59 6.21h2.597a9.03 9.03 0 0 1 5.883-2.272c2.379-.01 4.531.856 6.076 2.267z"/><path fill="url(#b)" d="m10.675 3.51-4.338 7.35L2 18.215l.716.99.715 1.081 3.59-6.211 3.587-6.117 3.328 5.57a11 11 0 0 0-1.432-.092c-.925.002-1.846.129-2.737.376l-.797 1.35-.893 1.519a9.6 9.6 0 0 1 4.497-1.11 9.8 9.8 0 0 1 2.823.397l2.58 4.311h2.746z"/><path fill="url(#c)" d="m10.675 3.51 10.052 16.775L22 18.138 13.199 3.5z"/><defs><linearGradient id="a" x1="7.439" x2="11.517" y1="9.599" y2="22.933" gradientUnits="userSpaceOnUse"><stop offset=".39" stop-color="#FF9373"/><stop offset=".51" stop-color="#FE8F73"/><stop offset=".62" stop-color="#FB8373"/><stop offset=".73" stop-color="#F77073"/><stop offset=".83" stop-color="#F15472"/><stop offset=".94" stop-color="#E93172"/><stop offset="1" stop-color="#E41A72"/></linearGradient><linearGradient id="b" x1="20.727" x2="3.619" y1="11.898" y2="11.898" gradientUnits="userSpaceOnUse"><stop offset=".09" stop-color="#FF9373"/><stop offset=".15" stop-color="#FD8A73"/><stop offset=".55" stop-color="#F04E72"/><stop offset=".85" stop-color="#E72872"/><stop offset="1" stop-color="#E41A72"/></linearGradient><linearGradient id="c" x1="20.777" x2="13.892" y1="11.893" y2="11.893" gradientUnits="userSpaceOnUse"><stop stop-color="#FF9373"/><stop offset="1" stop-color="#E41A72"/></linearGradient></defs></svg>