<svg xmlns="http://www.w3.org/2000/svg" fill="none" viewBox="0 0 24 24"><path fill="#62757E" fill-rule="evenodd" d="M11.996 22a9.937 9.937 0 0 0 7.073-2.928A9.933 9.933 0 0 0 22 12a9.93 9.93 0 0 0-2.93-7.07A9.934 9.934 0 0 0 11.995 2a9.936 9.936 0 0 0-7.072 2.93c-3.899 3.898-3.899 10.242 0 14.14A9.936 9.936 0 0 0 11.996 22Zm0-18.333a8.28 8.28 0 0 1 5.895 2.44A8.276 8.276 0 0 1 20.333 12a8.27 8.27 0 0 1-2.442 5.892 8.28 8.28 0 0 1-5.894 2.441 8.28 8.28 0 0 1-5.894-2.44c-3.25-3.25-3.25-8.536 0-11.786a8.28 8.28 0 0 1 5.893-2.44ZM12 8.909A1.455 1.455 0 1 1 12 6a1.455 1.455 0 0 1 0 2.909Zm-3.677 1.332a.727.727 0 0 1 .808-1.21c.988.66 1.946.982 2.884.982.936 0 1.882-.32 2.849-.978a.727.727 0 0 1 .818 1.203c-.968.658-1.955 1.056-2.955 1.184v1.76l1.389 3.039a.727.727 0 0 1-1.323.605L12 15.09l-.793 1.736a.727.727 0 1 1-1.323-.605l1.389-3.04v-1.763c-.992-.132-1.976-.527-2.95-1.177Z" clip-rule="evenodd"/></svg>