<svg xmlns="http://www.w3.org/2000/svg" fill="none" viewBox="0 0 24 24"><path fill="#62757E" fill-rule="evenodd" d="M18.004 11.277 11 21.421a.86.86 0 0 1-.923.572.84.84 0 0 1-.743-.724c-.006-.022-.003-.046-.006-.069-.002-.045-.017-.087-.01-.133l.007-.066c.004-.03.005-.061.012-.092l.824-6.392-4.02-.001c-.633 0-.912-.332-1.022-.53-.31-.556.073-1.095.198-1.272l8.51-10.394a.903.903 0 0 1 1.225-.144.8.8 0 0 1 .325.629.8.8 0 0 1-.014.307l-1.646 6.414h3.49c.63 0 .904.319 1.011.509.292.52-.037.99-.213 1.242m-4.669-.089a1.35 1.35 0 0 1-1.02-.463 1.58 1.58 0 0 1-.367-1.302l.785-3.063-5.317 6.492h3.142c.49 0 .87.146 1.126.434.136.153.352.486.264 1.002l-.432 3.358 4.46-6.458z" clip-rule="evenodd"/></svg>