<svg xmlns="http://www.w3.org/2000/svg" fill="none" viewBox="0 0 24 24"><g clip-path="url(#a)"><path fill="red" d="M12 24c6.627 0 12-5.373 12-12S18.627 0 12 0 0 5.373 0 12s5.373 12 12 12Z"/><path fill="#fff" d="m4.27 16.14 3.56-6.476c.147-.271.392-.344.64-.198h.026a.469.469 0 0 0 .662-.194l2.499-3.83c.085-.161.193-.31.32-.441.112.137.195.295.245.465l1.08 2.676c.244.614.833 1.056 1.448 1.056h.195c.315.012.614.143.835.368l.784.833c.233.247.447.509.64.786l2.528 3.632c.095.144.185.291.269.441v.024a2.234 2.234 0 0 1-.368-.361l-3.411-3.54a3.411 3.411 0 0 1-.541-.711c-.272-.589-.615-.836-1.153-.81h-.687c-.416 0-.515-.073-.64-.491l-.98-3.067c-.17-.614-.196-.614-.367 0l-.662 2.08c-.148.416-.198 1.104-.124 1.104.026 0 .197-.32.467-.884a1.47 1.47 0 0 1 .195-.32c.063.235.096.476.1.719-.072.17-.154.333-.246.491l-.024.074c-.295.539-.295.564.024 1.08l.294.49c.112.15.202.316.27.49a3.548 3.548 0 0 1-.442.32l-1.521.982a2 2 0 0 1-.883.244c-.541-.024-1.007.247-1.424.81l-.589.835c-.212.261-.45.5-.712.712l-.54.441a5.125 5.125 0 0 1-.883.492l-.294.073a2.596 2.596 0 0 1-.662.146c-.101 0-.197 0-.197-.024.077-.179.167-.35.27-.515Z"/></g><defs><clipPath id="a"><path fill="#fff" d="M0 0h24v24H0z"/></clipPath></defs></svg>