<svg xmlns="http://www.w3.org/2000/svg" fill="none" viewBox="0 0 24 24"><g clip-path="url(#a)"><path fill="#0061FF" d="M12 24c6.627 0 12-5.373 12-12S18.627 0 12 0 0 5.373 0 12s5.373 12 12 12Z"/><path fill="#fff" d="M11.816 5.24c.327-.168.726.222.553.543-.102.262-.485.331-.68.132-.207-.191-.14-.57.127-.675Zm-3.517.373c.199-.08.45.098.43.312.02.23-.266.4-.468.291-.269-.102-.238-.53.038-.603Zm7.203.61c-.31-.038-.36-.518-.062-.615.232-.11.445.098.48.314-.05.184-.207.353-.418.3ZM9.1 7.084c.332-.207.805.101.754.481-.017.383-.534.605-.826.346-.282-.203-.24-.67.072-.827Zm5.068.22c.148-.375.748-.388.917-.022.167.284-.038.637-.335.734-.394.072-.767-.346-.582-.712Zm-2.776.69c-.003-.322.296-.563.607-.585.208.04.433.127.522.333.165.284.018.673-.28.803-.136.075-.299.047-.447.039-.228-.11-.42-.326-.402-.59Zm-5.23.472c.304-.185.714.15.598.474-.062.28-.446.395-.665.216-.234-.168-.197-.571.069-.691h-.001Zm11.23-.002c.258-.196.683.03.652.349.017.291-.35.511-.605.361-.282-.124-.31-.55-.046-.71Zm-4.529.58c.424-.15.93.03 1.17.403.32.455.15 1.148-.345 1.41-.513.309-1.263.047-1.453-.518-.215-.504.099-1.136.627-1.294h.001Zm-2.492.05c.47-.218 1.105-.035 1.332.439.267.46.06 1.103-.418 1.34-.479.269-1.155.066-1.386-.43-.26-.478-.03-1.128.472-1.348Zm-2.495.839c.037-.298.322-.493.611-.513a.669.669 0 0 1 .593.585c-.02.306-.26.605-.591.604-.364.03-.682-.325-.613-.676Zm7.37-.448c.372-.213.89.097.874.519.025.447-.548.761-.92.5-.385-.22-.355-.833.045-1.019ZM9.357 11.06c.435-.118.935.084 1.148.478a.987.987 0 0 1-.225 1.24c-.467.428-1.327.256-1.576-.327-.286-.534.062-1.25.652-1.392l.001.001Zm4.726-.002c.423-.12.921.041 1.149.421.301.435.158 1.083-.29 1.363-.471.325-1.198.155-1.458-.354-.313-.526.002-1.27.599-1.43Zm-7.532.495c.377-.14.794.27.642.637-.093.334-.573.458-.82.211-.29-.232-.183-.747.178-.848Zm10.212.534a.57.57 0 0 1 .537-.596c.258.04.51.245.489.521.024.365-.423.613-.74.442-.148-.075-.224-.224-.286-.367ZM4.7 11.735c.227-.098.507.095.455.343-.012.28-.433.389-.587.154-.137-.163-.055-.413.132-.498Zm14.291-.006c.16-.111.416-.032.479.152.107.2-.09.475-.319.441-.322.029-.425-.453-.16-.593Zm-8.402 1.346c.596-.152 1.237.337 1.241.941.038.61-.593 1.152-1.203 1.011-.472-.075-.843-.522-.827-.991a1.01 1.01 0 0 1 .789-.961Zm2.361-.001c.606-.166 1.266.332 1.256.95.032.599-.58 1.122-1.177 1.002-.563-.07-.978-.678-.82-1.216.078-.357.383-.648.741-.737v.001Zm-4.554.372c.42-.07.812.389.642.78-.124.418-.74.53-1.014.19-.319-.328-.08-.925.372-.97Zm6.927.018c.374-.154.832.164.804.563.015.439-.552.742-.916.485-.415-.23-.339-.907.112-1.048Zm1.936 1.91c-.146-.268.12-.623.423-.573.15-.003.256.114.352.212.02.159.053.348-.081.47-.182.228-.595.163-.694-.109Zm-11.098-.5c.284-.184.69.092.627.417-.034.289-.403.453-.645.29-.26-.149-.251-.571.018-.706Zm5.59.603c.37-.16.842.157.806.558.028.444-.556.75-.918.485-.402-.229-.335-.902.112-1.043Zm-2.589.594c.316-.163.738.12.71.467.01.285-.273.528-.56.486-.236-.005-.39-.214-.467-.413.004-.216.095-.457.317-.539Zm5.243.006c.325-.198.786.086.756.457.008.389-.513.637-.816.382-.292-.2-.256-.68.06-.84Zm.913 2.217c-.145-.214.025-.473.259-.522.189.038.389.178.348.392-.027.291-.46.38-.607.13Zm-7.239-.186c.057-.17.197-.34.4-.295.297.02.385.461.125.597-.233.155-.504-.057-.525-.302Zm3.493.195c.056-.252.387-.374.606-.24.144.061.186.22.223.354-.02.07-.037.141-.054.212-.09.104-.205.208-.354.205-.276.032-.526-.276-.422-.53Z"/></g><defs><clipPath id="a"><path fill="#fff" d="M0 0h24v24H0z"/></clipPath></defs></svg>