<svg xmlns="http://www.w3.org/2000/svg" fill="none" viewBox="0 0 24 24"><path fill="url(#a)" d="M20.275 6.557c.374.216.605.615.605 1.047v8.792c0 .432-.23.831-.605 1.047l-7.609 4.395a1.21 1.21 0 0 1-1.21 0l-7.608-4.395a1.21 1.21 0 0 1-.605-1.047V7.604c0-.432.23-.831.605-1.047l7.607-4.395a1.21 1.21 0 0 1 1.21 0zm-.132.228-7.61-4.394a.95.95 0 0 0-.946 0L3.98 6.785a.95.95 0 0 0-.473.82v8.79c0 .338.18.65.473.82l7.609 4.394a.95.95 0 0 0 .945 0l7.61-4.395a.95.95 0 0 0 .472-.818V7.604c0-.337-.18-.65-.473-.819"/><path fill="url(#b)" d="m19.418 7.135-6.824-3.941c-.33-.19-.736-.19-1.066 0L4.704 7.135c-.33.19-.532.542-.533.922v7.885c0 .38.203.732.533.923l6.825 3.941c.33.19.735.19 1.065 0l6.825-3.942c.33-.19.532-.542.532-.922V8.057c0-.38-.204-.732-.533-.922"/><path fill="#fff" d="m7.136 7.57.49-.49.492.491-.49.49q-.247-.245-.492-.491m1.478 0 .49-.49.49.49-.49.49zm5.916-.001.49-.49q.246.245.49.491-.243.246-.489.49zm1.475.003.492-.493.49.49-.492.493zm-8.13.737.49-.49.49.49-.49.49zm1.482 0 .486-.487.485.488-.485.485zm4.44-.002.485-.489.487.49q-.244.242-.487.486-.242-.244-.486-.487m1.472 0 .49-.489.49.49-.49.49zm-8.133.741.491-.492.49.49-.491.492zm1.477 0 .49-.49q.246.244.49.49l-.49.49zm1.48-.003.485-.485.488.489-.485.484zm2.966 0 .484-.485.487.486-.486.485q-.242-.244-.485-.486m1.471.002.491-.492.49.49-.49.493zm1.477 0 .49-.49.49.49-.49.49zm-4.438.05.484-.485q.256.237.5.485-.245.248-.5.484zm-3.692.69.49-.486.484.486-.486.487zm2.955-.003.484-.485.484.485-.484.484zm1.489 0 .483-.485c.166.159.324.324.488.485l-.487.486q-.241-.244-.484-.486m2.955 0 .483-.486.49.487-.49.486zm-6.66.74q.241-.244.485-.486l.488.488-.485.485zm2.954-.002q.24-.243.483-.483.255.235.5.484-.244.248-.5.483zm2.967.001.484-.483q.242.243.485.483l-.485.483q-.241-.242-.484-.483m-5.182.74.484-.486.483.484q-.24.242-.484.485zm4.442 0 .485-.486.483.485-.483.485-.485-.485M8.617 12l.484-.485.484.485-.484.485zm1.476 0 .484-.484.483.484q-.24.243-.483.484zm2.965 0q.244-.242.486-.486l.486.486-.486.486zm1.436 0c.165-.156.313-.332.49-.475.154.164.324.313.479.475-.155.162-.322.31-.477.473-.18-.137-.325-.318-.492-.473m-5.14.738.484-.484.484.485q-.24.243-.483.484zm4.444 0 .484-.485.484.485q-.242.243-.485.484-.24-.242-.483-.484m-5.183.739.489-.488.485.485-.488.489zm2.953.001.486-.486q.257.237.501.485-.244.251-.502.487zm2.97 0q.24-.242.483-.483l.485.482-.485.483zm-6.662.735.49-.487.485.487-.485.487q-.244-.244-.49-.487m2.953.003.487-.487.488.487-.487.488zm1.489 0 .488-.488.488.486-.489.49zm2.958 0 .483-.488.49.487-.49.488zm-3.71.687.487-.487q.258.237.504.487-.246.25-.503.489zm-4.43.05.49-.491.491.491-.49.49zm1.477-.001.49-.49.49.49q-.244.246-.489.49zm1.476.002.492-.49.488.488-.49.492zm2.966.001.49-.49.489.489-.49.49zm1.475-.002.49-.49.492.491-.49.49zm1.477 0 .49-.49.49.49-.49.49zm-8.132.738.49-.49.49.49-.49.49zm1.478 0 .489-.49.49.49-.49.49zm4.439.001.49-.49.492.49-.491.492q-.247-.244-.491-.492m1.477 0 .49-.49.49.49-.49.49zm-8.132.736.49-.49.49.49-.49.49zm1.476.002.49-.49.49.49q-.244.246-.489.49zm5.917.001.491-.492q.244.247.49.49l-.491.492zm1.475-.003.49-.49.492.492-.49.49q-.247-.244-.492-.492"/><defs><linearGradient id="a" x1="5.222" x2="19.875" y1="6.933" y2="15.375" gradientUnits="userSpaceOnUse"><stop stop-color="#0071BC"/><stop offset="1" stop-color="#662D91"/></linearGradient><linearGradient id="b" x1="6.054" x2="19.025" y1="7.579" y2="15.03" gradientUnits="userSpaceOnUse"><stop stop-color="#0071BC"/><stop offset="1" stop-color="#662D91"/></linearGradient></defs></svg>