<svg xmlns="http://www.w3.org/2000/svg" fill="none" viewBox="0 0 24 24"><path fill="url(#a)" d="M20.275 6.557c.374.216.605.615.605 1.047v8.792c0 .432-.23.831-.605 1.047l-7.609 4.395a1.209 1.209 0 0 1-1.21 0l-7.608-4.395a1.21 1.21 0 0 1-.605-1.047V7.604c0-.432.23-.831.605-1.047l7.607-4.395a1.209 1.209 0 0 1 1.21 0l7.61 4.395Zm-.132.228-7.61-4.394a.945.945 0 0 0-.946 0L3.98 6.785a.946.946 0 0 0-.473.82v8.79c0 .338.18.65.473.82l7.609 4.394a.945.945 0 0 0 .945 0l7.61-4.395a.946.946 0 0 0 .472-.818V7.604c0-.337-.18-.65-.473-.819Z"/><path fill="url(#b)" d="m19.418 7.135-6.824-3.941c-.33-.19-.736-.19-1.066 0L4.704 7.135c-.33.19-.532.542-.533.922v7.885c0 .38.203.732.533.923l6.825 3.941c.33.19.735.19 1.065 0l6.825-3.942c.33-.19.532-.542.532-.922V8.057c0-.38-.204-.732-.533-.922Z"/><path fill="#fff" d="m7.136 7.57.49-.49.492.491a213.8 213.8 0 0 1-.49.49 75.945 75.945 0 0 1-.492-.491Zm1.478 0 .49-.49.49.49-.49.49a75.457 75.457 0 0 1-.49-.49Zm5.916-.001.49-.49.49.491c-.162.164-.325.327-.489.49a258.94 258.94 0 0 0-.491-.491Zm1.475.003.492-.493.49.49-.492.493-.49-.49Zm-8.13.737.49-.49.49.49-.49.49-.49-.49Zm1.482 0a95.3 95.3 0 0 0 .485-.487l.486.488-.486.485-.485-.485Zm4.439-.002.486-.489.487.49c-.163.161-.325.324-.487.486-.161-.163-.324-.325-.486-.487Zm1.473 0 .49-.49.49.491-.49.49-.49-.49Zm-8.133.741.491-.492.49.49-.491.492-.49-.49Zm1.477 0 .49-.49c.164.163.328.326.49.49l-.49.49-.49-.49Zm1.48-.003.485-.486.488.49-.485.484-.488-.488Zm2.966 0 .484-.486.487.487c-.163.161-.324.324-.486.485-.16-.163-.324-.324-.485-.486Zm1.47.002.492-.492.49.49-.49.493-.491-.491Zm1.478 0 .49-.49.49.49-.49.49-.49-.49Zm-4.438.05.484-.485c.17.158.337.32.5.485-.163.165-.33.326-.5.484a960.27 960.27 0 0 0-.484-.484Zm-3.693.69.49-.486.485.486-.486.487-.489-.487Zm2.956-.003.484-.485.484.485-.484.484-.484-.484Zm1.489 0c.16-.162.323-.322.483-.485.166.159.324.324.488.485-.163.161-.324.324-.487.486-.16-.163-.323-.324-.484-.486Zm2.955 0 .483-.486.49.487-.49.486c-.16-.163-.323-.324-.483-.486Zm-6.66.74c.16-.163.323-.325.485-.486l.488.488-.485.485a239.28 239.28 0 0 1-.489-.488Zm2.954-.002c.16-.162.322-.323.483-.483.17.157.337.318.5.484-.163.165-.329.326-.5.483-.16-.162-.322-.323-.483-.484Zm2.967.001.484-.483.484.483c-.162.16-.323.322-.484.483-.16-.162-.323-.322-.484-.483Zm-5.183.739.485-.485.483.484-.484.485c-.16-.162-.322-.323-.484-.484Zm4.443 0 .485-.485.483.485-.483.485-.485-.485ZM8.617 12c.16-.162.323-.324.484-.485l.484.485-.484.485L8.616 12Zm1.476 0 .484-.484c.16.162.322.323.483.484-.16.162-.321.323-.483.484L10.093 12Zm2.965 0 .486-.486.486.486-.486.486c-.16-.162-.324-.323-.486-.486Zm1.435 0c.166-.156.314-.332.492-.475.153.164.323.312.478.475-.155.162-.323.31-.477.473-.18-.137-.325-.318-.493-.473Zm-5.139.738.484-.484.484.485-.483.483-.485-.484Zm4.444 0c.16-.162.323-.323.484-.485l.484.485c-.162.16-.322.325-.485.483l-.483-.483Zm-5.183.739.489-.488.485.485-.488.489-.486-.486Zm2.953.001.486-.486c.171.158.338.32.501.485-.163.167-.33.33-.502.487l-.485-.486Zm2.97 0c.16-.162.322-.323.483-.484l.485.483-.485.483-.484-.483Zm-6.662.735.49-.487.485.487-.485.487c-.163-.162-.326-.326-.49-.487Zm2.953.003.487-.487.488.487-.487.488a124.65 124.65 0 0 1-.488-.488Zm1.489 0 .488-.488.488.486-.489.49-.487-.488Zm2.957 0c.16-.163.323-.325.484-.488l.49.487-.49.488c-.16-.163-.323-.325-.484-.488Zm-3.71.687.488-.487c.172.158.34.32.504.487-.164.167-.332.33-.503.489a449.17 449.17 0 0 1-.488-.489Zm-4.43.05.49-.491c.165.163.329.327.492.491l-.49.49-.491-.49Zm1.478-.001.49-.49.49.49-.49.49a294.61 294.61 0 0 1-.49-.49Zm1.476.002.492-.49.488.488-.49.492-.49-.49Zm2.966 0 .49-.489.489.488-.49.491-.489-.49Zm1.475 0 .49-.492.491.492-.49.49-.491-.49Zm1.477 0 .49-.492c.163.164.326.328.49.49l-.49.491-.49-.49Zm-8.133.737.49-.49c.164.163.328.326.49.49-.162.164-.325.327-.489.49l-.49-.49Zm1.479 0c.162-.164.325-.327.489-.49l.49.49-.49.49-.49-.49Zm4.439.001.49-.49.492.49a162.7 162.7 0 0 0-.491.492 56.94 56.94 0 0 1-.491-.492Zm1.477 0 .49-.49.49.49-.49.49a376.78 376.78 0 0 1-.49-.49Zm-8.132.736.49-.49.49.49-.49.49-.49-.49Zm1.476.002.49-.49.49.49-.49.49a294.61 294.61 0 0 1-.49-.49Zm5.917.001.491-.492.49.49-.491.492-.49-.49Zm1.475-.003.49-.49.492.492-.49.49a57.056 57.056 0 0 1-.492-.492Z"/><defs><linearGradient id="a" x1="5.222" x2="19.875" y1="6.933" y2="15.375" gradientUnits="userSpaceOnUse"><stop stop-color="#0071BC"/><stop offset="1" stop-color="#662D91"/></linearGradient><linearGradient id="b" x1="6.054" x2="19.025" y1="7.579" y2="15.03" gradientUnits="userSpaceOnUse"><stop stop-color="#0071BC"/><stop offset="1" stop-color="#662D91"/></linearGradient></defs></svg>