<svg xmlns="http://www.w3.org/2000/svg" fill="none" viewBox="0 0 24 24"><path fill="currentColor" fill-rule="evenodd" d="M21.167 22h-15a.834.834 0 0 1-.834-.833v-15c0-.46.374-.834.834-.834h15c.46 0 .833.374.833.834v15c0 .46-.373.833-.833.833Zm-.834-15H7v13.333h13.333V7Zm-10 5.833h2.5v-2.5a.834.834 0 0 1 1.667 0v2.5H17a.834.834 0 0 1 0 1.667h-2.5V17a.834.834 0 0 1-1.667 0v-2.5h-2.5a.834.834 0 0 1 0-1.667Zm7.5-9.166H3.667v14.166a.834.834 0 0 1-1.667 0v-15c0-.46.373-.833.833-.833h15a.834.834 0 0 1 0 1.667Z" clip-rule="evenodd"/></svg>