<svg xmlns="http://www.w3.org/2000/svg" fill="none" viewBox="0 0 24 24"><path fill="#62757E" fill-rule="evenodd" d="M7.475 2a5.35 5.35 0 0 0-5.35 5.35v10.283a.85.85 0 1 0 1.7 0V7.35a3.65 3.65 0 0 1 3.65-3.65h10.283a.85.85 0 0 0 0-1.7zM5.393 8.296a2.85 2.85 0 0 1 2.85-2.85h10.783a2.85 2.85 0 0 1 2.85 2.85V19.08a2.85 2.85 0 0 1-2.85 2.85H8.243a2.85 2.85 0 0 1-2.85-2.85zm2.85-1.15a1.15 1.15 0 0 0-1.15 1.15V19.08c0 .635.515 1.15 1.15 1.15h10.783a1.15 1.15 0 0 0 1.15-1.15V8.296a1.15 1.15 0 0 0-1.15-1.15zm2.191 5.742h2.4v-2.4a.8.8 0 0 1 1.6 0v2.4h2.4a.8.8 0 0 1 0 1.6h-2.4v2.4a.8.8 0 0 1-1.6 0v-2.4h-2.4a.8.8 0 0 1 0-1.6" clip-rule="evenodd"/></svg>