<svg xmlns="http://www.w3.org/2000/svg" fill="none" viewBox="0 0 24 24"><g clip-path="url(#a)"><path fill="#FEC807" d="M12 24c6.627 0 12-5.373 12-12S18.627 0 12 0 0 5.373 0 12s5.373 12 12 12"/><path fill="#000" fill-rule="evenodd" d="M17.085 12.933h-2.873l-.514-1.539h3.382a.436.436 0 1 0 0-.872h-3.66l-1.467-4.474a.627.627 0 0 0-1.236-.04l-3.51 10.671a.6.6 0 0 0 0 .175.59.59 0 0 0 1.16.143l2.945-8.979.841 2.504h-.729a.436.436 0 1 0 0 .872h1.027l.513 1.54h-1.54a.436.436 0 0 0 0 .872h1.843l.83 2.463H9.69a.616.616 0 1 0 0 1.231h5.214a.585.585 0 0 0 .528-.841l-.939-2.853h2.566a.436.436 0 0 0 0-.873z" clip-rule="evenodd"/></g><defs><clipPath id="a"><path fill="#fff" d="M0 0h24v24H0z"/></clipPath></defs></svg>