<svg xmlns="http://www.w3.org/2000/svg" fill="none" viewBox="0 0 24 24"><g clip-path="url(#a)"><path fill="#1B75BC" d="M12 24c6.627 0 12-5.373 12-12S18.627 0 12 0 0 5.373 0 12s5.373 12 12 12"/><path fill="#fff" fill-rule="evenodd" d="M9.426 7.685 12 10.37l2.512-2.687 1.572 1.61L13.519 12l2.565 2.685-1.572 1.63L12 13.628l-2.574 2.685-1.509-1.584 2.543-2.745-2.543-2.692zm.207-.22L11.99 5l2.357 2.465-1.24 1.321-1.117-1.233-1.117 1.233zm0 9.07 1.24-1.321 1.117 1.233 1.116-1.233 1.24 1.32L11.99 19z" clip-rule="evenodd"/></g><defs><clipPath id="a"><path fill="#fff" d="M0 0h24v24H0z"/></clipPath></defs></svg>