<svg xmlns="http://www.w3.org/2000/svg" fill="none" viewBox="0 0 24 24"><g clip-path="url(#a)"><path fill="#DE3F6B" d="M12 24c6.627 0 12-5.373 12-12S18.627 0 12 0 0 5.373 0 12s5.373 12 12 12"/><path fill="#fff" d="M8.024 9h.575c.9.085 1.731.522 2.346 1.152 1.279 1.297 1.982 3.128 3.609 4.094 1.176.698 2.82.127 3.399-1.053q.442-.007.884-.004c-.405 1.198-1.584 2.06-2.874 2.175h-.474c-.794-.064-1.566-.36-2.166-.87-.872-.714-1.432-1.695-2.11-2.568-.582-.772-1.177-1.64-2.142-1.99-1.191-.433-2.647.243-3.081 1.391-.382.946-.072 2.118.782 2.724.64.478 1.532.657 2.3.379.855-.298 1.489-.976 1.975-1.693q.286.398.562.805c-.756.921-1.804 1.712-3.052 1.822h-.51C6.473 15.258 5.107 13.966 5 12.44v-.5C5.102 10.419 6.45 9.11 8.024 9m7.433 0h.477c1.586.1 2.935 1.418 3.066 2.944v.782c-1.309.012-2.62.004-3.928.006v-.686c1.035-.002 2.068.005 3.1-.002-.073-.405-.167-.82-.416-1.162-.604-.894-1.883-1.259-2.905-.872-.814.293-1.428.933-1.9 1.616q-.274-.379-.538-.767c.746-.934 1.788-1.743 3.044-1.859"/></g><defs><clipPath id="a"><path fill="#fff" d="M0 0h24v24H0z"/></clipPath></defs></svg>