<svg xmlns="http://www.w3.org/2000/svg" fill="none" viewBox="0 0 24 24"><g clip-path="url(#a)"><path fill="#134451" d="M12 24c6.627 0 12-5.373 12-12S18.627 0 12 0 0 5.373 0 12s5.373 12 12 12"/><path fill="#fff" fill-rule="evenodd" d="M8.757 17.049q.529-.021 1.043-.144c1.122-.261 2.35-.85 3.53-1.683q.446-.09.875-.21c-1.206 2.401-2.91 3.851-4.226 3.409-.545-.183-.958-.673-1.222-1.372m6.588-10.091a5.4 5.4 0 0 0-1.043.138c-1.124.257-2.356.839-3.534 1.668q-.451.087-.878.204c1.214-2.392 2.924-3.835 4.238-3.387.546.186.955.678 1.217 1.377m-3.03 8.429c-.52.06-1.035.089-1.534.089-1.189 0-2.3-.167-3.225-.495a5.2 5.2 0 0 1-1.09-.523c-.126.662-.042 1.246.284 1.68.934 1.249 3.549.851 6.136-.83q-.285.044-.571.079m-.607-6.753c1.754-.205 3.445-.06 4.758.405a5.2 5.2 0 0 1 1.092.524c.125-.663.04-1.246-.285-1.68-.935-1.25-3.549-.852-6.136.829q.285-.048.571-.078m-.062.183c3.591-.417 6.662.67 6.856 2.426.195 1.756-2.555 3.518-6.15 3.935-3.592.416-6.66-.67-6.855-2.427-.194-1.757 2.559-3.518 6.15-3.934m1.51 3.696q1.043-.003 1.59-.39.545-.386.54-1.113c-.003-.316-.107-.568-.32-.749q-.316-.272-.879-.27c-.295 0-.588.06-.86.176a2.8 2.8 0 0 0-.794.53 1.12 1.12 0 0 0-.602-.545q-.326-.125-.817-.124-.36.003-.715.053a7 7 0 0 0-.752.144l-.172.922q.312-.159.65-.236.343-.08.72-.082.397 0 .602.113a.36.36 0 0 1 .205.332q0 .017-.003.037a.3.3 0 0 1-.01.065l-.021.098-.676.002c-.696.003-1.227.13-1.59.39q-.543.383-.54 1.113.002.476.32.748c.21.18.504.273.878.27.296 0 .589-.06.86-.176a2.8 2.8 0 0 0 .795-.528c.125.27.376.458.601.544q.327.124.817.123.36 0 .715-.052.367-.049.752-.144l.172-.922a3 3 0 0 1-.65.236q-.343.079-.72.08-.396.002-.602-.112a.36.36 0 0 1-.205-.332q0-.015.003-.037 0-.033.01-.065l.021-.097zm-3.008-.17q.23-.144.671-.145h.568l-.024.14q-.083.408-.326.635a.86.86 0 0 1-.607.225.55.55 0 0 1-.372-.117.42.42 0 0 1-.133-.325q0-.275.223-.414m3.42-1.547c.155 0 .281.039.37.117q.135.118.134.322a.46.46 0 0 1-.223.414q-.23.143-.67.144l-.57.002.026-.138q.082-.409.325-.636a.86.86 0 0 1 .607-.225" clip-rule="evenodd"/></g><defs><clipPath id="a"><path fill="#fff" d="M0 0h24v24H0z"/></clipPath></defs></svg>