<svg xmlns="http://www.w3.org/2000/svg" fill="none" viewBox="0 0 24 24"><g clip-path="url(#a)"><path fill="#134451" d="M12 24c6.627 0 12-5.373 12-12S18.627 0 12 0 0 5.373 0 12s5.373 12 12 12Z"/><path fill="#fff" fill-rule="evenodd" d="M8.757 17.049a5.39 5.39 0 0 0 1.043-.144c1.122-.261 2.35-.85 3.53-1.683.296-.06.59-.13.875-.21-1.206 2.401-2.91 3.851-4.226 3.409-.545-.183-.958-.673-1.222-1.372Zm6.588-10.091a5.36 5.36 0 0 0-1.043.138c-1.124.257-2.356.839-3.534 1.668-.3.058-.594.126-.878.204 1.214-2.392 2.924-3.835 4.238-3.387.546.186.955.678 1.217 1.377Zm-3.03 8.429c-.52.06-1.035.089-1.534.089-1.189 0-2.3-.167-3.225-.495a5.214 5.214 0 0 1-1.09-.523c-.126.662-.042 1.246.284 1.68.934 1.249 3.549.851 6.136-.83-.19.03-.38.055-.571.079Zm-.607-6.753c1.754-.205 3.445-.06 4.758.405a5.2 5.2 0 0 1 1.092.524c.125-.663.04-1.246-.285-1.68-.935-1.25-3.549-.852-6.136.829.19-.032.381-.058.571-.078Zm-.062.183c3.591-.417 6.662.67 6.856 2.426.195 1.756-2.555 3.518-6.15 3.935-3.592.416-6.66-.67-6.855-2.427-.194-1.757 2.559-3.518 6.15-3.934Zm1.51 3.696c.695-.003 1.226-.131 1.59-.39.364-.257.542-.629.54-1.113-.003-.316-.107-.568-.32-.749-.21-.18-.505-.272-.879-.27-.295 0-.588.06-.86.176a2.748 2.748 0 0 0-.794.53 1.12 1.12 0 0 0-.602-.545c-.218-.084-.489-.124-.817-.124-.24.002-.478.02-.715.053a6.893 6.893 0 0 0-.752.144l-.172.921c.207-.105.425-.183.65-.235.228-.053.469-.082.72-.082.264 0 .466.037.602.113a.356.356 0 0 1 .205.332c0 .011 0 .024-.003.037a.262.262 0 0 1-.01.065l-.021.098-.676.002c-.696.003-1.227.13-1.59.39-.361.256-.543.626-.54 1.113.002.316.107.568.32.748.21.18.504.273.878.27.296 0 .589-.06.86-.176a2.75 2.75 0 0 0 .795-.528c.125.27.376.458.601.544.218.084.49.123.817.123.24 0 .478-.018.715-.052.246-.032.494-.081.752-.144l.172-.922a2.91 2.91 0 0 1-.65.236c-.228.052-.469.08-.72.08-.264 0-.465-.035-.602-.112a.355.355 0 0 1-.205-.332c0-.01 0-.023.003-.037 0-.022.004-.044.01-.065l.021-.097.676-.002Zm-3.008-.17c.154-.095.377-.145.671-.145h.568l-.024.14c-.055.272-.165.484-.326.635a.86.86 0 0 1-.607.225.546.546 0 0 1-.372-.117.419.419 0 0 1-.133-.325c0-.183.075-.322.223-.414Zm3.42-1.547c.155 0 .281.039.37.117.09.079.134.186.134.322a.456.456 0 0 1-.223.414c-.154.094-.376.144-.67.144l-.57.002.026-.138c.054-.272.164-.485.325-.636a.86.86 0 0 1 .607-.225Z" clip-rule="evenodd"/></g><defs><clipPath id="a"><path fill="#fff" d="M0 0h24v24H0z"/></clipPath></defs></svg>