<svg xmlns="http://www.w3.org/2000/svg" fill="none" viewBox="0 0 24 24"><path fill="#62757E" fill-rule="evenodd" d="M19.667 19.5H13v1.666a.832.832 0 0 1-1.068.8L3.6 19.522a.833.833 0 0 1-.599-.8V5.278a.83.83 0 0 1 .6-.8l8.332-2.444a.832.832 0 0 1 1.068.8V4.5h6.667c.46 0 .833.373.833.834v13.332c0 .46-.373.834-.833.834ZM11.333 3.946 4.667 5.901V18.1l6.666 1.954V3.946Zm7.5 2.22H13v2.5h3.333a.834.834 0 0 1 0 1.668H13v.833h3.333a.834.834 0 0 1 0 1.666H13v.833h3.333a.834.834 0 0 1 0 1.667H13v2.5h5.833V6.167Z" clip-rule="evenodd"/></svg>