<svg xmlns="http://www.w3.org/2000/svg" fill="none" viewBox="0 0 24 24"><path fill="#62757E" fill-rule="evenodd" d="M19.193 20.333h-1.026c0 .92-.748 1.667-1.667 1.667H5.667C4.747 22 4 21.253 4 20.333V3.667C4 2.747 4.747 2 5.667 2H19c.92 0 1.667.748 1.667 1.667V7c0 .92-.748 1.667-1.667 1.667h-.833v1.666h1.025a1.47 1.47 0 0 1 1.475 1.459v7.083c0 .804-.662 1.458-1.475 1.458M19 7V3.667H5.667v16.666h10.83L16.5 8.667c0-.92.747-1.667 1.667-1.667zm0 5h-.833v2.5H19zm0 4.167h-.833v2.5H19zM14.833 17h-7.5a.834.834 0 0 1 0-1.667h7.5a.834.834 0 0 1 0 1.667m0-3.333h-7.5a.834.834 0 0 1 0-1.667h7.5a.834.834 0 0 1 0 1.667m-2.5-4.167h-5a.834.834 0 0 1 0-1.667h5a.834.834 0 0 1 0 1.667" clip-rule="evenodd"/></svg>