<svg xmlns="http://www.w3.org/2000/svg" fill="none" viewBox="0 0 24 24"><g clip-path="url(#a)"><path fill="#F49E00" d="M12 24c6.627 0 12-5.373 12-12S18.627 0 12 0 0 5.373 0 12s5.373 12 12 12"/><path fill="#fff" d="M14.503 12.89c1.498-2.346 2.664-6.223 2.664-6.223l-2.497.566-.914 3.233c-.086-2.424-1.748-3.311-1.748-3.311-1.332-.649-2.518-.364-3.374.082-1.059.551-1.829 1.511-2.197 2.617-.524 1.572-.46 3.337-.391 4.136.028.374.11.743.247 1.095.918 2.382 3.463 2.247 3.463 2.247 2.332-.083 3.748-2.828 3.748-2.828l.668 2.019c.6 1.012 1.925.633 2.198.576.048-.01.09-.016.14-.026l1.49-.228v-.648c-3.245.088-3.497-3.307-3.497-3.307m-3.16 2.44c-.2.206-.453.353-.731.425-.605.15-1.07-.103-1.39-.415a2.63 2.63 0 0 1-.707-1.318c-.588-3.327.225-4.785.765-5.455a1.5 1.5 0 0 1 1.246-.576c2.096.11 2.566 4.495 2.566 4.495-.593 1.556-1.358 2.46-1.748 2.844"/></g><defs><clipPath id="a"><path fill="#fff" d="M0 0h24v24H0z"/></clipPath></defs></svg>