<svg xmlns="http://www.w3.org/2000/svg" fill="none" viewBox="0 0 24 24"><path fill="#000" d="M12.976 6.11s.02-.076.082-.076c.061 0 .225-.034.273 0 .048.034.027.137-.027.137-.055 0-.355-.014-.328-.062Zm1.68-.212c.176.088.361.159.552.211a.126.126 0 0 0 .11-.034c.054-.061.129-.177.054-.212-.11-.054-.287-.177-.567-.102-.28.075-.19.123-.15.137Zm-8.779 4.314s-.164.006-.136-.185c.027-.19.245-.423.375-.512.13-.088.198-.157.198-.293 0-.137.198-.246.246-.314.047-.068.225-.157.198-.041-.028.116-.096.164-.096.314s.027.252.102.095.54-.887 1.01-1.27c.472-.381 1.1-.805 1.182-.818.081-.014.13.04.13.13 0 .088-.226.177-.335.272-.11.096-1.447 1.154-1.83 1.966-.078.11-.167.21-.266.3-.13.11-.15.267-.327.444-.178.178-.171.362-.26.39-.089.027-.205-.082-.136-.315.068-.232.28-.375.43-.546.15-.17.204-.32.163-.32-.04 0-.259.047-.32.218-.062.17-.062.246-.137.314-.089.082-.143.177-.191.17Zm3.304-3.127a.109.109 0 0 0-.062.082.102.102 0 0 0 .014.062c.04.054.137.013.205-.048a5.53 5.53 0 0 1 .464-.3s-.444.109-.621.204Z"/><path fill="#000" d="M6.3 10.997s-.06.095-.15 0c-.088-.096.028-.294.178-.43.15-.137.58-.82.696-1.01a5.915 5.915 0 0 1 1.044-1.14c.451-.362 1.256-1.01 1.666-1.243.41-.232.97-.54 1.563-.655.594-.116 1.816-.02 3.31.908a.176.176 0 0 1-.088.232s-1.529-.956-2.853-.908c-1.325.048-2.403.928-3.365 1.775-.963.846-.854.942-.977 1.092-.122.15-.512.69-.58.785-.068.095-.286.478-.443.594Zm8.69-4.349c-1.638-.634-2.69-.477-2.997-.41a.047.047 0 0 0-.035.043c0 .01.002.02.007.028a.047.047 0 0 0 .021.019c.087.026.176.042.267.047.355.035.675.11.908.103.232-.007.825.061 1.18.198.355.136.506.19.506.19a.148.148 0 0 0 .13-.081c.068-.089.013-.137.013-.137Z"/><path fill="#000" d="M14.82 7.01s.06.219-.144.232c-.205.014-1.038-.491-1.358-.525-.321-.034-.103-.24.314-.123.416.116 1.187.416 1.187.416ZM13.7 5.973a.047.047 0 0 0-.023.071.047.047 0 0 0 .023.017c.115.052.237.089.362.11.19.013.71.177.955.307.157.082.24-.205.137-.24-.185-.067-.649-.245-.792-.279-.13-.034-.471-.055-.662.014Zm-2.833 1.276c2.205-.3 3.351.778 3.495.75.143-.026.102-.183.102-.183-.553-.465-1.904-1.01-3.16-.854-1.256.157-1.932.983-2.184 1.133-.253.15-.458.471-.656.663-.198.19-.484.252-.566.32-.082.069-1.236 1.775-1.386 1.96-.15.184-.191.354-.061.423.13.068.211-.15.211-.15s.608-.997.744-1.154c.137-.157.58-.846.67-.956.088-.109.19-.088.156 0-.034.089-.737 1.106-.867 1.263-.13.157-.696.935-.73 1.215-.034.28.17.328.328-.04.157-.37.395-.888.491-.99.096-.103.444-.492.532-.67.09-.177.478-.887.785-1.228a7 7 0 0 1 1.018-.888c.18-.127.373-.239.573-.334.102-.048.28-.253.505-.28Z"/><path fill="#000" d="M8.444 9.468s.532-.806 1.099-1.195c.566-.389.894-.662 1.071-.73.178-.069.785-.383 2.164-.069s1.543.765 1.481.854c-.061.088-.28-.048-.593-.219-.314-.17-.908-.437-1.386-.423-.478.014-1.42.341-1.481.396-.062.055-.069-.11.095-.143.164-.035.266-.164.369-.178.102-.014.252-.048.252-.13 0-.081-.34-.068-.511 0-.171.069-.833.444-.956.512-.123.069-.287.116-.314.219-.027.102-.232.341-.335.396-.102.054-.614.457-.669.553a.266.266 0 0 1-.286.157Z"/><path fill="#000" d="M9.502 8.833s.068.102.355-.116c.286-.219.32-.266.348-.266.027 0-.048-.11-.103-.062-.054.048-.594.348-.6.444Zm.791-.178s-.082-.02.075-.136 1.188-.73 1.932-.69c.744.041 1.604.478 1.755.608.15.13.04.389 0 .375-.041-.013-.97-.716-1.611-.737-.642-.02-1.29.225-1.557.396-.266.17-.362.232-.594.184Z"/><path fill="#000" d="M11.126 8.614a.042.042 0 0 1-.028-.056.042.042 0 0 1 .015-.019 1.97 1.97 0 0 1 1.508-.293c.922.198 1.304.635 1.324.737.02.102-.013.341-.15.293-.136-.047-.58-.723-1.297-.785-.69-.061-.846.246-1.372.123Z"/><path fill="#000" d="m12.075 8.778-.082-.027c-.014-.007-.007-.02 0-.02.116-.028.505-.103.86.027.253.104.48.26.67.457a.02.02 0 0 1 .002.025.02.02 0 0 1-.023.01l-1.427-.472Zm-4.97 3.481s-.04.13-.156.035c-.116-.096-.041-.246 0-.355.04-.11.355-.751.43-.826.075-.075.355-.41.355-.485 0-.075.075.212-.212.649-.273.436-.164.552-.416.982Zm.246.43s-.04.09-.116 0c-.075-.088-.006-.3.082-.511.09-.212.212-.69.273-.785.062-.096.069.116.069.177 0 .062.02.396-.096.683a2.32 2.32 0 0 1-.212.437Zm.355.417s-.081.136-.184-.027a.346.346 0 0 1 0-.369c.034-.062.082-.26.11-.294.027-.034.06.048.074.15.014.103.076.22.076.267 0 .048-.014.205-.076.273Zm.198.164a.401.401 0 0 0-.054-.11c-.02-.013-.089.076-.096.144-.007.068.068.095.075.157.007.061.062-.014.075-.082a.243.243 0 0 0 0-.11Zm.212-2.048a2.29 2.29 0 0 1 .478-1.044c.396-.465.58-.54.58-.54s.055-.013.027.096c-.027.11-.232.362-.266.437-.034.075-.28.32-.28.362 0 .04.11.006.123.027.014.02.062.048 0 .19-.061.144-.3.65-.307.759-.007.109-.362.928-.396.928-.034 0-.11-.007-.102-.26.006-.252.382-1.2.484-1.358.103-.157.11-.157.069-.15-.041.007-.294.28-.328.471-.034.191-.082.082-.082.082Zm.956-.061s-.096.225-.294.211c-.198-.014.103-.512.15-.723.048-.212.417-1.024.492-1.093.075-.068.28-.15.314-.082.034.069-.11.164-.185.314s-.307.574-.327.724c-.02.15-.15.649-.15.649Z"/><path fill="#000" d="M8.88 11.638a.13.13 0 0 0-.081-.17c-.13-.055-.137-.014-.198.088-.062.103-.458 1.058-.458 1.202 0 .143.041.41.09.45.047.041.095-.034.095-.136a.66.66 0 0 1 .15-.342.495.495 0 0 0 .082-.396c-.027-.163.232-.43.232-.43a5.5 5.5 0 0 1-.027.574c-.028.17-.205.307-.246.382-.041.075-.062.369-.096.458a.697.697 0 0 0-.02.334c.02.089.075.307.109.15s.157-.621.191-.614c.034.007.027.512.007.614-.02.103-.048.6-.048.662 0 .062-.184.341-.218.444-.034.102-.24.478-.24.498 0 .02.206 0 .335-.102a.477.477 0 0 0 .164-.341c0-.082-.013-.28.034-.396.048-.116.17-.39.191-.499a6.54 6.54 0 0 0 0-.84c-.013-.156.02-.818.069-.955.047-.136.054-.205.088-.205.035 0 .014.417 0 .546-.013.13-.047.553-.047.615a2.93 2.93 0 0 0 .239 1.529s.034.15.197.048c.164-.103-.075-.56-.116-.69-.04-.13-.177-.805-.13-.9.049-.096.322.941.328 1.043.007.103.041.424.096.43.055.007.28-.13.28-.156a.377.377 0 0 0-.062-.205c-.061-.103-.389-.942-.45-1.638-.062-.697.048-1.884.102-2.007.055-.123.307-.683.369-.772.061-.088.239-.457.273-.47.034-.014.068-.014.068.027-.042.141-.092.28-.15.416-.041.116-.26.464-.3.58a4.651 4.651 0 0 0-.232 1.14c-.062.615.081 1.652.122 1.857.041.205.3.9.444.962.143.062.266-.123.246-.157-.02-.034-.321-.58-.39-.805-.067-.226-.19-.765-.17-.888.02-.122.178 1.024.717 1.625 0 0 .068.041.191-.04.123-.083.116-.151 0-.28-.116-.13-.512-.895-.567-1.093a13.854 13.854 0 0 0-.307-.874 2.31 2.31 0 0 1 .028-.696c.061-.287.15-.69.157-.799.006-.109.184-.354.225-.41.04-.054.136-.313.184-.497.048-.185.143-.308.062-.321-.082-.014-.383.034-.437.095-.055.062-.273.191-.738 1.25 0 0-.13.245-.13.389a.904.904 0 0 1-.163.518.933.933 0 0 1-.143.198Z"/><path fill="#000" d="M8.99 14.444a.124.124 0 0 0-.144.102 2.607 2.607 0 0 0-.013.382c-.007.068-.09.24-.069.253.02.014.178-.027.253-.116a.55.55 0 0 0 .143-.335c0-.116-.04-.286-.17-.286Zm1.966-5.093s.102-.122.075-.15c-.028-.027-.178-.116-.232-.047a2.51 2.51 0 0 0-.328.641c-.055.205-.355.785-.382.908a3.37 3.37 0 0 0-.014 1.126c.082.587.594 1.782.82 2.034.224.253.443 0 .443 0l-.17-.197s-.424-.765-.479-.854c-.054-.088-.348-.757-.327-.976.02-.218.068-.519-.007-.805-.075-.287.266-.99.32-1.092.055-.09.28-.588.28-.588Z"/><path fill="#000" d="M10.771 10.853a1.14 1.14 0 0 1 .062-.32c.048-.137.102-.362 0-.417-.103-.054-.28-.014-.28.369 0 .382-.089.819 0 1.392.089.574.519 1.584 1.092 2.103.574.518.471.34.751.593.28.253 1.7.52 2.095.471.396-.047.499-.239.52-.307.02-.068-.035-.184-.09-.13-.054.055-.348.321-1.31.11-.963-.212-1.215-.45-1.27-.498-.054-.048-.593-.601-.655-.656-.061-.054-.682-.9-.682-1.024 0-.123.805 1.413 1.877 1.823 1.071.41 1.467.341 1.672.273.205-.068.416-.13.416-.205 0-.075-.006-.218-.075-.218-.068 0-.47.239-.662.218-.191-.02-.47-.143-.73-.143s-.806-.321-.942-.45c-.137-.13-.86-.499-1.556-1.994-.007.007-.267-.764-.233-.99Z"/><path fill="#000" d="M12.655 14.847s-.286-.192-.34-.185c-.056.007-.049.103-.042.205.007.102.048.212.116.225.068.014.253-.027.294 0 .329.166.69.261 1.058.28.553.02.662.041.819.027.157-.013.423-.109.444-.17.02-.062.006-.253-.048-.253-.055 0-.116.273-1.16.15-1.031-.136-1.14-.28-1.14-.28Z"/><path fill="#000" d="M12.792 15.27s-.212-.15-.273-.09c-.062.062-.075.247.136.294.212.048.69.185.8.205.213.04.43.063.648.068.232 0 .464-.109.56-.109.095 0 .382 0 .395-.061a.595.595 0 0 0-.034-.212c-.007-.027-.089-.02-.143.007a2.6 2.6 0 0 1-.546.15 3.572 3.572 0 0 1-.936-.068 4.858 4.858 0 0 1-.607-.184Z"/><path fill="#000" d="M14.846 15.864s-.437.3-1.652.109c-1.215-.191-.9-.67-.873-.649.027.02.13.164.204.191.076.028.983.328 1.236.335.253.007.58-.007.724-.055.143-.047.334-.17.41-.068.074.089-.049.136-.049.136Z"/><path fill="#000" d="M12.478 15.877s-.11-.075-.11 0a.313.313 0 0 0 .178.253c.096.048.2.073.307.075a.93.93 0 0 1 .369.109c.102.048.464.191 1.092.075.628-.116.785-.266.812-.307a.305.305 0 0 0 0-.191c-.013-.069-.061-.096-.116-.041-.054.055-.423.382-1.324.32-.901-.06-1.208-.293-1.208-.293Z"/><path fill="#000" d="M13.092 16.369s-.075-.11-.28-.055c-.205.055.526.444.567.478.04.034.088.054.266.034.177-.02.683-.048.86-.089.177-.04.532-.143.642-.28.109-.136.068-.225-.034-.211-.103.013-.73.402-1.359.348-.628-.055-.662-.225-.662-.225Z"/><path fill="#000" d="M13.966 16.922s-.307.006-.294.068a.295.295 0 0 0 .294.164c.136-.028.9-.15 1.058-.232.157-.082.287-.103.287-.198 0-.096-.028-.205-.096-.185-.068.02-.73.444-1.25.383Zm.607.273s-.334.109-.334.143c0 .034.136.191.245.184.11-.007.349-.164.472-.204.122-.042.416-.082.43-.164a.403.403 0 0 0-.048-.246.174.174 0 0 0-.144 0c-.047.027-.512.28-.62.287Zm.321.518a.273.273 0 0 1-.239 0c-.13-.061-.082-.136.027-.19.11-.055.314-.13.39-.165.075-.034.28-.109.314-.082.036.038.06.086.068.137 0 .034-.56.3-.56.3Zm.184.308s-.204-.11-.204-.137a.187.187 0 0 1 .143-.102c.061 0 .478-.171.478-.171s.109.102.109.205c0 .102-.444.218-.526.205Zm.526.225a.477.477 0 0 1-.177 0c-.062-.02-.144-.11-.171-.11-.027 0 .061-.054.13-.06.068-.008.184-.049.225-.055.04-.007.095.047.095.116 0 .068-.102.109-.102.109ZM11.481 9.42a.804.804 0 0 0 .116-.137c0-.02-.211-.15-.314-.13-.102.021-.45.704-.341 1.652.11.95.355 1.925 1.693 2.977a2.252 2.252 0 0 0 1.856.45s.096-.089-.04-.095c-.137-.007-.854-.137-1.093-.246-.239-.11-.757-.608-.84-.642-.081-.034-.696-.669-.71-.744-.013-.075-.252-.505-.306-.71-.055-.204-.192-1.065-.232-1.228-.041-.164-.082-.43-.069-.526.014-.096.164-.485.28-.621Z"/><path fill="#000" d="M11.952 9.522s.123-.034.13-.075c.007-.04-.014-.136-.178-.164-.163-.027-.32.089-.43.383-.109.293-.061.914.082 1.296.144.383.062.69.328 1.202s.26.512.362.594c.102.082.593.56.669.635.075.075.512.361.593.361.082 0 .123-.136.117-.204-.007-.069-.014-.103-.13-.11-.116-.006-.28-.198-.28-.198s-.621-.587-.669-.614c-.048-.027-.553-.6-.553-.669 0-.068.007-.164.048-.11.04.056.334.479.525.656.192.178.8.69.942.751.144.061.212.068.226-.048.013-.116.082-.17.143-.136.061.034.519.3.662.28.143-.02.355-.232.423-.219.069.014-.123.225-.184.26-.061.034.048.109.068.122a.21.21 0 0 0 .24-.027c.108-.095.122-.225.047-.396-.075-.17-.096-.457-.116-.512-.02-.054-.048-.136-.102 0-.055.137-.157.417-.512.43a1.818 1.818 0 0 1-1.188-.32c-.437-.287-.963-.683-1.372-1.85-.41-1.168.11-1.318.11-1.318Z"/><path fill="#000" d="M14.86 12.007a.095.095 0 0 0-.11.02c-.02.035-.047-.122-.006-.273.041-.15.007-.375-.04-.361-.049.013-.417.6-.827.375-.41-.225-.921-.867-1.065-1.154-.143-.286-.32-.614-.293-.805 0 0 .02-.15.027-.191.007-.041-.082-.205-.191-.164-.11.041-.375.191-.41.3-.034.11-.143.212-.088.526.054.314.218.717.28.901.061.184.252.6.457.785.205.184.607.546.785.628.177.082.553.362 1.037.253.485-.11.492-.594.492-.642a.602.602 0 0 0-.048-.198Zm-2.13-.143c-.02-.028-.259-.396-.286-.417.13.097.25.204.361.321.137.157.26.341.26.396 0 0-.314-.273-.335-.3Zm1.434.573c-.382-.014-.526-.184-.628-.246-.102-.061-.369-.402-.594-.635-.225-.232-.403-.43-.478-.573-.075-.143-.273-.846-.293-.928-.02-.082.109-.15.109-.11.003.074.012.147.027.219-.013.341.396.942.45 1.058.055.116.526.628.943.908.416.28.69.13.757.102.069-.027.144-.027.164 0 .02.027-.075.219-.457.205Z"/><path fill="#000" d="M14.655 11.065c-.061 0-.198.164-.218.068-.02-.095.095-.3.095-.491s-.04-.553-.13-.73c-.088-.178-.177-.335-.334-.24-.157.096-.075.171-.007.26.069.088.24.287.24.519 0 .232-.035.532-.123.553-.09.02-.3-.048-.492-.198a4.161 4.161 0 0 1-.566-.512c-.062-.09-.185-.294-.15-.328.033-.034.088-.048.143.048.054.095.32.375.389.443.114.114.235.222.361.321.082.055.185.15.26.027.075-.122.089-.416.027-.525-.061-.11-.164-.3-.198-.348-.034-.048-.088-.13-.204-.082-.117.048-.11.143-.069.177.041.035.225.164.24.253.013.089.054.246-.015.17-.068-.074-.245-.32-.293-.348a34.642 34.642 0 0 1-.376-.232s-.395-.163-.423-.204c-.027-.041-.109-.048-.047.184.06.232.102.512.273.723a.99.99 0 0 1 .204.383c.034.102.376.607.813.716.437.11.594-.396.614-.437.02-.04.048-.17-.014-.17Zm-.416.307c-.014.103-.205-.007-.287 0-.082.007-.232-.13-.327-.239-.096-.11-.171-.225-.144-.239.027-.013.15.137.273.205.123.068.287.164.396.15.11-.014.089.123.089.123Zm.935 2.157s-.089.102-.089.143c0 .041.048.062.048.103 0 .04.034.061.082.027s.048-.075.041-.13c-.007-.054.007-.163-.082-.143Zm.089.362s-.089.054-.089.123a1.387 1.387 0 0 0 0 .17.058.058 0 0 0 .055.039.058.058 0 0 0 .054-.039c.028-.054.062-.088.034-.157-.027-.054 0-.184-.054-.136Zm.068.662s-.123.089-.116.04c.007-.047.014-.252.055-.258.04-.007.04-.09.109.034.068.123.02.143-.048.184Zm.103.157s.034-.13-.062-.048c-.095.082-.123.055-.116.11.007.054.027.15.082.136.04-.014.136.007.096-.198Zm.054.273s-.157.075-.143.164c.013.088.088.177.123.177.034 0 .088-.095.068-.17-.02-.075.007-.205-.048-.171Z"/><path fill="#000" d="M12 3.413a8.587 8.587 0 1 0 0 17.174 8.587 8.587 0 0 0 0-17.174Zm0 16.6a8.016 8.016 0 1 1-.007-16.032A8.016 8.016 0 0 1 12 20.014Z"/><path fill="#151515" d="M12 2a10 10 0 1 0 0 20 10 10 0 0 0 0-20Zm0 19.065a9.064 9.064 0 1 1 0-18.129 9.064 9.064 0 0 1 0 18.129Z"/></svg>