<svg xmlns="http://www.w3.org/2000/svg" fill="none" viewBox="0 0 24 24"><g clip-path="url(#a)"><path fill="#00BFEC" d="M12 24c6.627 0 12-5.373 12-12S18.627 0 12 0 0 5.373 0 12s5.373 12 12 12"/><path fill="#fff" d="M11.962 16.557c-2.526 0-4.582-2.044-4.582-4.557s2.056-4.557 4.582-4.557c2.527 0 4.582 2.044 4.582 4.557s-2.055 4.557-4.582 4.557m0-8.221c-2.03 0-3.684 1.643-3.684 3.664s1.653 3.664 3.684 3.664 3.685-1.643 3.685-3.664-1.653-3.664-3.685-3.664m3.209-1.544a6.17 6.17 0 0 0-6.188-.133l-.437-.78a7.07 7.07 0 0 1 7.095.153zm1.338 10.552-.58-.682A6.08 6.08 0 0 0 18.101 12H19c0 2.062-.908 4.01-2.491 5.343zm-4.547 1.655a7.07 7.07 0 0 1-4.48-1.6l.573-.688a6.17 6.17 0 0 0 6.73.713l.414.793a7.1 7.1 0 0 1-3.237.783"/><path fill="#fff" d="M17.95 10.342a6.1 6.1 0 0 0-1.21-2.295l.575-.477a6.85 6.85 0 0 1 1.357 2.573l-.72.199zM6.146 15.807A6.87 6.87 0 0 1 5 12c0-1.893.753-3.66 2.122-4.978l.52.535A6.1 6.1 0 0 0 5.748 12c0 1.214.353 2.389 1.021 3.398z" opacity=".5"/></g><defs><clipPath id="a"><path fill="#fff" d="M0 0h24v24H0z"/></clipPath></defs></svg>