<svg xmlns="http://www.w3.org/2000/svg" fill="none" viewBox="0 0 24 24"><path fill="currentColor" fill-rule="evenodd" d="M21.167 15.333H17a.833.833 0 1 1 0-1.666h3.333v-10H3.667v10H7a.833.833 0 1 1 0 1.666H2.833A.833.833 0 0 1 2 14.5V2.833c0-.46.373-.833.833-.833h18.334c.46 0 .833.373.833.833V14.5c0 .46-.373.833-.833.833Zm-10.199-3.491a1.222 1.222 0 0 1 2.063 0l4.63 7.527c.254.391.286.844.086 1.212-.2.367-.599.586-1.068.586H7.32c-.467 0-.866-.22-1.066-.586-.2-.366-.168-.821.086-1.213l4.63-7.526Zm4.797 7.658L12 13.32 8.235 19.5h7.53Z" clip-rule="evenodd"/></svg>