<svg xmlns="http://www.w3.org/2000/svg" fill="none" viewBox="0 0 24 24"><path fill="#62757E" fill-rule="evenodd" d="M5.81 3.044a3.8 3.8 0 0 0-3.8 3.8v5.904a3.8 3.8 0 0 0 3.8 3.8h1.199a.8.8 0 1 0 0-1.6h-1.2a2.2 2.2 0 0 1-2.2-2.2V6.845a2.2 2.2 0 0 1 2.2-2.2h12.382a2.2 2.2 0 0 1 2.2 2.2v5.904a2.2 2.2 0 0 1-2.2 2.2h-1.219a.8.8 0 1 0 0 1.6h1.219a3.8 3.8 0 0 0 3.8-3.8V6.845a3.8 3.8 0 0 0-3.8-3.8H5.81Zm2.863 16.202L12 15.587l3.327 3.66H8.673Zm2.957-5.63a.5.5 0 0 1 .74 0l5.814 6.394a.5.5 0 0 1-.37.836H6.186a.5.5 0 0 1-.37-.836l5.814-6.394Z" clip-rule="evenodd"/></svg>