<svg xmlns="http://www.w3.org/2000/svg" fill="none" viewBox="0 0 24 24"><path fill="#62757E" d="M11.63 13.616a.5.5 0 0 1 .74 0l5.814 6.393a.5.5 0 0 1-.37.837H6.187a.5.5 0 0 1-.37-.837zm-2.957 5.63h6.654L12 15.586zM12 2.035c5.503 0 9.965 4.461 9.965 9.965a9.93 9.93 0 0 1-2.407 6.495.8.8 0 1 1-1.213-1.043 8.366 8.366 0 1 0-12.69 0 .8.8 0 1 1-1.213 1.043A9.93 9.93 0 0 1 2.035 12c0-5.504 4.462-9.965 9.965-9.965m0 2.679a7.286 7.286 0 0 1 5.61 11.936.8.8 0 0 1-1.231-1.021 5.687 5.687 0 1 0-8.757 0 .8.8 0 0 1-1.231 1.021A7.286 7.286 0 0 1 12 4.714m0 2.957a4.33 4.33 0 0 1 3.57 6.78.8.8 0 0 1-1.319-.907 2.73 2.73 0 1 0-4.502 0 .801.801 0 0 1-1.318.907A4.329 4.329 0 0 1 12 7.67"/></svg>