<svg xmlns="http://www.w3.org/2000/svg" fill="none" viewBox="0 0 24 24"><path fill="url(#a)" d="M12.034 22a2.84 2.84 0 0 1-1.4-.377L4.412 18.03A2.83 2.83 0 0 1 3 15.584V8.401c0-.998.536-1.936 1.4-2.435l6.234-3.592a2.83 2.83 0 0 1 2.812 0l6.221 3.592c.865.5 1.4 1.437 1.4 2.435v7.195a2.82 2.82 0 0 1-1.4 2.435l-6.221 3.592a2.9 2.9 0 0 1-1.412.377m0-19.03c-.317 0-.633.086-.913.244L4.887 6.818a1.83 1.83 0 0 0-.913 1.583v7.195c0 .658.353 1.254.913 1.583l6.221 3.604a1.84 1.84 0 0 0 1.839 0l6.221-3.592c.56-.329.913-.925.913-1.583V8.401a1.82 1.82 0 0 0-.913-1.583l-6.21-3.604a1.9 1.9 0 0 0-.924-.243m0 15.767c-.268 0-.524-.073-.755-.207l-4.53-2.605a1.52 1.52 0 0 1-.754-1.315V9.387c0-.536.28-1.035.755-1.315l4.529-2.605a1.52 1.52 0 0 1 1.51 0l4.516 2.605c.463.268.755.767.755 1.315v5.223c0 .536-.292 1.047-.755 1.315l-4.529 2.605a1.4 1.4 0 0 1-.742.207m0-12.747a.76.76 0 0 0-.39.11L7.115 8.705a.79.79 0 0 0-.39.682v5.223c0 .28.147.536.39.682l4.53 2.605a.75.75 0 0 0 .778 0l4.517-2.605a.79.79 0 0 0 .39-.682V9.387a.79.79 0 0 0-.39-.682L12.423 6.1a.7.7 0 0 0-.39-.11m0 9.436a.9.9 0 0 1-.39-.098L9.355 13.99a.77.77 0 0 1-.39-.67v-2.654c0-.28.147-.535.39-.67l2.29-1.326a.8.8 0 0 1 .778 0l2.29 1.327c.243.134.389.39.389.67v2.653c0 .28-.146.536-.39.67l-2.289 1.327a.76.76 0 0 1-.39.11m0-6.368a.3.3 0 0 0-.146.037l-2.29 1.327a.29.29 0 0 0-.145.243v2.655c0 .097.06.194.146.255l2.289 1.327a.31.31 0 0 0 .292 0l2.289-1.327a.31.31 0 0 0 .146-.255v-2.655a.29.29 0 0 0-.146-.243l-2.29-1.327a.3.3 0 0 0-.145-.037"/><defs><linearGradient id="a" x1="3" x2="21.072" y1="11.996" y2="11.996" gradientUnits="userSpaceOnUse"><stop stop-color="#E168FD"/><stop offset="1" stop-color="#7B00FC"/></linearGradient></defs></svg>