<svg xmlns="http://www.w3.org/2000/svg" fill="none" viewBox="0 0 24 24"><path fill="#62757E" fill-rule="evenodd" d="M21.756 3.423 3.423 21.756a.83.83 0 0 1-1.178 0 .83.83 0 0 1 0-1.178l2.618-2.62a8.3 8.3 0 0 1-1.196-4.29c0-4.596 3.738-8.334 8.333-8.334 1.502 0 2.973.403 4.257 1.167.014.009.02.022.033.03l1.376-1.376-1.937-1.694a.835.835 0 0 1-.08-1.177.835.835 0 0 1 1.177-.078l2.022 1.768 1.73-1.73a.832.832 0 1 1 1.178 1.179M12 7a6.675 6.675 0 0 0-6.667 6.667c0 1.074.272 2.118.761 3.061l8.968-8.968A6.64 6.64 0 0 0 12 7m-8.618.738a.834.834 0 0 1-1.097-1.254l4.889-4.277A.834.834 0 1 1 8.271 3.46zM9.01 19.626a6.6 6.6 0 0 0 2.991.707 6.675 6.675 0 0 0 6.667-6.666 6.6 6.6 0 0 0-.669-2.914.834.834 0 0 1 1.499-.73 8.26 8.26 0 0 1 .836 3.644C20.333 18.262 16.595 22 12 22a8.25 8.25 0 0 1-3.74-.885.834.834 0 0 1 .749-1.489" clip-rule="evenodd"/></svg>