<svg xmlns="http://www.w3.org/2000/svg" fill="none" viewBox="0 0 24 24"><path fill="#62757E" fill-rule="evenodd" d="M21.794 7.66a.836.836 0 0 1-1.176.078l-4.89-4.278a.833.833 0 1 1 1.098-1.254l4.89 4.278c.346.303.38.83.078 1.176Zm-1.461 6.007C20.333 18.262 16.595 22 12 22c-4.595 0-8.333-3.738-8.333-8.333 0-4.595 3.738-8.333 8.333-8.333 4.595 0 8.333 3.738 8.333 8.333ZM12 7a6.674 6.674 0 0 0-6.667 6.667A6.674 6.674 0 0 0 12 20.333a6.674 6.674 0 0 0 6.666-6.666A6.674 6.674 0 0 0 12 7Zm-.193 9.7a.837.837 0 0 1-.603.3h-.037a.83.83 0 0 1-.59-.244l-2.5-2.5a.834.834 0 0 1 1.179-1.178l1.854 1.854 3.583-4.298a.833.833 0 1 1 1.28 1.066l-4.166 5ZM3.382 7.739a.837.837 0 0 1-1.176-.078.834.834 0 0 1 .079-1.176l4.889-4.278A.833.833 0 1 1 8.27 3.46L3.382 7.738Z" clip-rule="evenodd"/></svg>