<svg xmlns="http://www.w3.org/2000/svg" fill="none" viewBox="0 0 24 24"><path fill="#62757E" fill-rule="evenodd" d="M21.794 7.66a.836.836 0 0 1-1.176.078l-4.89-4.277a.833.833 0 1 1 1.098-1.254l4.89 4.277c.346.303.38.83.078 1.176m-1.461 6.007C20.333 18.262 16.595 22 12 22s-8.333-3.738-8.333-8.333S7.405 5.334 12 5.334s8.333 3.738 8.333 8.333M12 7a6.674 6.674 0 0 0-6.667 6.667A6.674 6.674 0 0 0 12 20.334a6.674 6.674 0 0 0 6.666-6.667A6.674 6.674 0 0 0 12 7m2.5 10c-.236 0-.47-.1-.636-.293l-2.5-2.944c-.027-.033-.037-.071-.058-.106-.03-.048-.062-.094-.081-.148-.022-.059-.028-.116-.036-.177-.005-.037-.022-.07-.022-.11V9.501a.833.833 0 1 1 1.666 0v3.415l2.302 2.71A.834.834 0 0 1 14.5 17M3.382 7.738a.83.83 0 0 1-1.176-.078.834.834 0 0 1 .079-1.176l4.889-4.277A.832.832 0 1 1 8.27 3.46z" clip-rule="evenodd"/></svg>