<svg xmlns="http://www.w3.org/2000/svg" fill="none" viewBox="0 0 24 24"><path fill="#62757E" fill-rule="evenodd" d="M21.167 19.5a.834.834 0 0 1-.834-.833v-15h-15a.834.834 0 0 1 0-1.667h15.834c.46 0 .833.373.833.833v15.834c0 .46-.373.833-.833.833M19.5 5.333v15.834c0 .46-.373.833-.833.833H2.833A.834.834 0 0 1 2 21.167V5.333c0-.46.373-.833.833-.833h15.834c.46 0 .833.373.833.833m-1.667.834H3.667v14.166h14.166zm-9.166 7.5c.615 0 1.177.128 1.666.337v-6.17a.832.832 0 0 1 1.354-.651l4.166 3.333a.833.833 0 1 1-1.04 1.302L12 9.568v6.604c0 1.399-1.464 2.495-3.333 2.495s-3.334-1.096-3.334-2.495c0-1.405 1.465-2.505 3.334-2.505m0 3.333c1.001 0 1.666-.498 1.666-.828 0-.342-.649-.839-1.666-.839-1.018 0-1.667.497-1.667.839 0 .33.665.828 1.667.828" clip-rule="evenodd"/></svg>