<svg xmlns="http://www.w3.org/2000/svg" fill="none" viewBox="0 0 24 24"><g clip-path="url(#a)"><path fill="#000" d="M12 24c6.627 0 12-5.373 12-12S18.627 0 12 0 0 5.373 0 12s5.373 12 12 12"/><path fill="#fff" d="m8.095 18 1.736-3.005L11.566 12l1.725-3.005.287-.477.126.477.529 1.978L13.64 12l-1.735 2.995L10.18 18h2.074l1.735-3.005.9-1.556.424 1.556.803 3.005h1.863l-.804-3.005L16.37 12l-.21-.773 1.29-2.232h-1.883l-.065-.223-.655-2.455L14.762 6h-1.81l-.042.063-1.693 2.932L9.481 12l-1.724 2.995L6.021 18z"/></g><defs><clipPath id="a"><path fill="#fff" d="M0 0h24v24H0z"/></clipPath></defs></svg>