<svg xmlns="http://www.w3.org/2000/svg" fill="none" viewBox="0 0 24 24"><g clip-path="url(#a)"><path fill="#34BAFF" d="M20 0H4a4 4 0 0 0-4 4v16a4 4 0 0 0 4 4h16a4 4 0 0 0 4-4V4a4 4 0 0 0-4-4"/><path fill="#fff" d="M12.404 3.188c-1.697 0-2.347.982-3.169 3.168l-2.295 6.06a9.8 9.8 0 0 1-2.378-2.44l-2.48 2.499c.827 1.17 2.063 2.344 3.598 3.272L4.024 20.12H8l1.043-2.936a12.3 12.3 0 0 0 3.194.423c1.183 0 2.228-.16 3.155-.419l.984 2.932h4.262L15.68 6.355c-.789-2.19-1.587-3.168-3.276-3.168m-.166 10.898a9.5 9.5 0 0 1-2.016-.214l1.97-5.54c.037-.106.052-.148.113-.148.057 0 .08.042.116.148l1.855 5.528c-.65.146-1.33.226-2.038.226"/></g><defs><clipPath id="a"><path fill="#fff" d="M0 0h24v24H0z"/></clipPath></defs></svg>