<svg xmlns="http://www.w3.org/2000/svg" fill="none" viewBox="0 0 24 24"><path fill="url(#a)" fill-rule="evenodd" d="m9.21 4.52-5.07 9.282a1.258 1.258 0 0 0 .85 1.802c1.766.417 5.136-.618 7.885.417s4.02 3.154 5.685 4.277c.373.27.819.413 1.276.418h.008a2.2 2.2 0 0 0 1.424-.522c.185-.16.341-.353.466-.566.409-.67.425-1.504.04-2.186L14.71 4.528a3.135 3.135 0 0 0-4.253-1.244c-.53.28-.963.71-1.248 1.236" clip-rule="evenodd"/><path fill="url(#b)" fill-rule="evenodd" d="M5.764 17.408A2.027 2.027 0 0 0 2.3 19.515a2.025 2.025 0 0 0 2.773.682 2.025 2.025 0 0 0 .694-2.78s-.004-.005-.004-.009" clip-rule="evenodd"/><path fill="url(#c)" fill-rule="evenodd" d="M6.057 18.484a2.026 2.026 0 0 1-2.055 1.998 2.027 2.027 0 0 1-1.416-3.45c-.526.938-.213 1.7.165 1.985.581.446 2.022.354 3.306-.533" clip-rule="evenodd"/><path fill="url(#d)" fill-rule="evenodd" d="M5.579 13.93a.819.819 0 0 1-.97-1.088l-.527.96a1.256 1.256 0 0 0 .855 1.8c1.765.418 5.136-.617 7.884.418 3.832 1.44 4.84 4.94 7.25 4.683a2.208 2.208 0 0 0 1.654-3.262l-3.226-5.878c-1.372-2.512-4.976-1.97-7.186-.992-2.211.98-4.695 3.046-5.734 3.359" clip-rule="evenodd"/><path fill="url(#e)" fill-rule="evenodd" d="m4.38 13.26-.297.541a1.258 1.258 0 0 0 .85 1.802c1.766.417 5.136-.618 7.884.417 2.552.96 3.832 2.857 5.333 4.025.216.2.501.308.798.308.638 0 1.156-.517 1.156-1.155 0-.425-.31-.875-.514-1.244-4.31-7.784-8.883-4.991-14.075-3.262a.997.997 0 0 1-1.256-.959c.004-.164.044-.329.12-.473" clip-rule="evenodd"/><defs><linearGradient id="a" x1="7.707" x2="16.686" y1="8.806" y2="12.568" gradientUnits="userSpaceOnUse"><stop stop-color="#5F6DED"/><stop offset="1" stop-color="#49B9D9"/></linearGradient><linearGradient id="b" x1="2.835" x2="5.676" y1="18.691" y2="18.145" gradientUnits="userSpaceOnUse"><stop stop-color="#5F6EED"/><stop offset="1" stop-color="#45C8D4"/></linearGradient><linearGradient id="c" x1="2.798" x2="5.383" y1="18.907" y2="18.29" gradientUnits="userSpaceOnUse"><stop stop-color="#578BE5"/><stop offset="1" stop-color="#43CED3"/></linearGradient><linearGradient id="d" x1="6.14" x2="21.187" y1="12.036" y2="16.221" gradientUnits="userSpaceOnUse"><stop stop-color="#5788E6"/><stop offset="1" stop-color="#3FDDCF"/></linearGradient><linearGradient id="e" x1="18.354" x2="5.734" y1="17.183" y2="13.483" gradientUnits="userSpaceOnUse"><stop stop-color="#4452CF"/><stop offset="1" stop-color="#0BD3B9"/></linearGradient></defs></svg>