<svg xmlns="http://www.w3.org/2000/svg" fill="none" viewBox="0 0 24 24"><path fill="#ff6101" d="M0 9.366c0-3.279 0-4.918.638-6.17A5.85 5.85 0 0 1 3.196.638C4.448 0 6.087 0 9.366 0h5.268c3.279 0 4.918 0 6.17.638a5.85 5.85 0 0 1 2.558 2.558C24 4.448 24 6.087 24 9.366v5.268c0 3.279 0 4.918-.638 6.17a5.85 5.85 0 0 1-2.558 2.558c-1.252.638-2.891.638-6.17.638H9.366c-3.279 0-4.918 0-6.17-.638a5.85 5.85 0 0 1-2.558-2.558C0 19.552 0 17.913 0 14.634z"/><path fill="#fff" fill-rule="evenodd" d="M19.145 11.812c-2.256 1.208-4.708 1.79-6.94 1.79-3.306 0-6.508-1.143-9.097-3.042-.228-.166-.395.126-.206.341 2.401 2.731 5.57 4.373 9.093 4.373 2.513 0 5.43-.997 7.443-2.869.334-.31.048-.775-.293-.593m.55 1.82c-.074.186.086.262.255.12 1.1-.92 1.383-2.846 1.158-3.123-.223-.276-2.144-.514-3.317.31-.18.126-.149.3.051.276.661-.079 2.13-.256 2.392.08.262.337-.292 1.72-.539 2.336" clip-rule="evenodd"/></svg>