<svg xmlns="http://www.w3.org/2000/svg" fill="none" viewBox="0 0 24 24"><g clip-path="url(#a)"><path fill="url(#b)" d="m13.483 17.46 1.157 1.157c.053.053.07.131.041.2l-1.81 4.589a.938.938 0 0 1-1.743 0l-2.604-6.604-4.213 4.213a.187.187 0 0 1-.265 0l-1.061-1.061a.187.187 0 0 1 0-.264l5.2-5.2a.98.98 0 0 1 .63-.297.94.94 0 0 1 .93.592l2.257 5.722 1.175-2.983a.188.188 0 0 1 .308-.064zM19.69 2.986l-4.213 4.212L12.872.594a.94.94 0 0 0-1.078-.572.97.97 0 0 0-.679.604L9.319 5.18a.19.19 0 0 0 .041.2l1.157 1.158a.188.188 0 0 0 .307-.064L12 3.49l2.258 5.722a.93.93 0 0 0 .871.592.95.95 0 0 0 .664-.273l5.224-5.224a.187.187 0 0 0 0-.264l-1.061-1.061a.187.187 0 0 0-.265 0zM6.474 13.175l-2.983-1.176 5.723-2.257a.94.94 0 0 0 .592-.93.98.98 0 0 0-.298-.63L4.311 2.985a.187.187 0 0 0-.265 0l-1.061 1.06a.187.187 0 0 0 0 .265l4.213 4.213-6.604 2.604a.938.938 0 0 0 0 1.744l4.589 1.809a.19.19 0 0 0 .2-.041l1.157-1.157a.188.188 0 0 0-.064-.307zm16.932-2.048-4.588-1.809a.19.19 0 0 0-.201.041l-1.157 1.157a.188.188 0 0 0 .064.307L20.507 12l-5.723 2.257a.94.94 0 0 0-.592.93c.013.238.13.462.298.63l5.2 5.2a.187.187 0 0 0 .264 0l1.061-1.062a.187.187 0 0 0 0-.264l-4.213-4.213 6.604-2.604a.938.938 0 0 0 0-1.744z"/></g><defs><linearGradient id="b" x1="23.442" x2="-.218" y1="23.674" y2=".918" gradientUnits="userSpaceOnUse"><stop stop-color="#FF6200"/><stop offset=".399" stop-color="#E433FF"/><stop offset=".96" stop-color="#6842FF"/></linearGradient><clipPath id="a"><path fill="#fff" d="M0 0h24v24H0z"/></clipPath></defs></svg>