<svg xmlns="http://www.w3.org/2000/svg" fill="none" viewBox="0 0 24 24"><path fill="#FF8B25" fill-rule="evenodd" d="M20.703 19.783c-2.748 1.472-5.735 2.181-8.453 2.181-4.027 0-7.927-1.393-11.081-3.706-.277-.202-.481.154-.251.416C3.843 22 7.704 24 11.994 24c3.06 0 6.614-1.214 9.066-3.494.406-.377.058-.945-.357-.723m.67 2.216c-.091.227.104.32.31.147 1.339-1.12 1.685-3.466 1.41-3.804-.271-.336-2.611-.626-4.04.377-.22.154-.181.367.063.337.805-.096 2.595-.312 2.913.098.319.41-.355 2.094-.656 2.845" clip-rule="evenodd"/><path fill="#000" fill-rule="evenodd" d="M13.958 10.09c0 1.232.029 2.256-.591 3.351-.502.891-1.301 1.438-2.186 1.438-1.214 0-1.922-.924-1.922-2.292 0-2.692 2.415-3.182 4.7-3.182zm3.186 7.705a.65.65 0 0 1-.745.074c-1.052-.872-1.238-1.276-1.814-2.106-1.734 1.767-2.962 2.297-5.209 2.297-2.66 0-4.731-1.641-4.731-4.925 0-2.565 1.391-4.309 3.37-5.164 1.715-.754 4.11-.891 5.942-1.095v-.41c0-.753.06-1.642-.383-2.294-.385-.579-1.124-.82-1.775-.82-1.205 0-2.277.618-2.54 1.897-.054.285-.261.567-.549.582l-3.061-.333c-.259-.056-.548-.266-.472-.66C5.881 1.122 9.237 0 12.243 0c1.537 0 3.547.41 4.758 1.574 1.538 1.436 1.392 3.352 1.392 5.438v4.923c0 1.481.616 2.13 1.192 2.929.204.287.247.63-.01.839-.647.541-1.794 1.537-2.423 2.099z" clip-rule="evenodd"/></svg>