<svg xmlns="http://www.w3.org/2000/svg" fill="none" viewBox="0 0 24 24"><g clip-path="url(#a)"><path fill="#3C5BE0" d="M12 24c6.627 0 12-5.373 12-12S18.627 0 12 0 0 5.373 0 12s5.373 12 12 12"/><path fill="#fff" d="M19 12.146v.005a.3.3 0 0 1-.04.145c-.09.162-2.222 3.977-6.96 3.977s-6.87-3.815-6.96-3.977a.3.3 0 0 1-.04-.145v-.043a.3.3 0 0 1 .035-.12l.001-.003.004-.008C5.13 11.814 7.262 8 12 8s6.87 3.815 6.96 3.977l.003.008.002.003q.028.056.034.12v.029zm-.706-.01c-.359-.556-1.705-2.413-4.146-3.16a3.86 3.86 0 0 1 1.55 2.31.38.38 0 0 1 .291.362.38.38 0 0 1-.278.373.37.37 0 0 1-.423-.184.38.38 0 0 1 .076-.461c-.315-1.415-1.478-2.507-2.91-2.698l-.033-.007a8 8 0 0 0-.843 0l-.032.007A3.4 3.4 0 0 0 10 9.296a.173.173 0 0 1-.265-.198.2.2 0 0 1 .064-.087l.046-.034c-2.437.75-3.781 2.603-4.139 3.16.355.551 1.68 2.38 4.08 3.14a3.84 3.84 0 0 1-1.512-2.4.38.38 0 0 1-.242-.398.376.376 0 0 1 .324-.334.374.374 0 0 1 .397.24.38.38 0 0 1-.135.447 3.46 3.46 0 0 0 2.756 2.756q.627.051 1.253 0a3.4 3.4 0 0 0 1.428-.631.17.17 0 0 1 .245.035.177.177 0 0 1-.038.247l-.056.041c2.404-.76 3.733-2.591 4.088-3.144m-3.227.011c0 1.717-1.376 3.113-3.067 3.113s-3.067-1.396-3.067-3.113c0-1.716 1.376-3.112 3.067-3.112s3.067 1.395 3.067 3.112m-.346 0c0-1.522-1.22-2.761-2.721-2.761-1.5 0-2.722 1.238-2.722 2.762 0 1.523 1.221 2.76 2.722 2.76s2.721-1.238 2.721-2.76m-1.718-.854a1 1 0 0 1-.44.827l.274 1.672a.2.2 0 0 1-.113.223.2.2 0 0 1-.088.018h-1.222a.2.2 0 0 1-.2-.152.2.2 0 0 1-.003-.09l.273-1.671a1 1 0 0 1-.365-1.205.976.976 0 0 1 1.095-.597.99.99 0 0 1 .789.975m2.766 1.3a3.85 3.85 0 0 1-.96 2.143.173.173 0 0 1-.247.013.18.18 0 0 1-.01-.25 3.5 3.5 0 0 0 .874-1.947.175.175 0 0 1 .191-.154.175.175 0 0 1 .152.195M9.49 9.495a.177.177 0 0 1 .006.248 3.5 3.5 0 0 0-.906 1.89.174.174 0 0 1-.197.147.176.176 0 0 1-.146-.2c.112-.778.46-1.504.997-2.078a.17.17 0 0 1 .245-.007"/></g><defs><clipPath id="a"><path fill="#fff" d="M0 0h24v24H0z"/></clipPath></defs></svg>