<svg xmlns="http://www.w3.org/2000/svg" fill="none" viewBox="0 0 24 24"><g clip-path="url(#a)"><path fill="#2DAEE4" d="M12 24c6.627 0 12-5.373 12-12S18.627 0 12 0 0 5.373 0 12s5.373 12 12 12"/><path fill="#fff" fill-rule="evenodd" d="M6.672 9.047h.071q.939-.017 1.632-.709.672-.727.673-1.667 0-.48.346-.825a1.15 1.15 0 0 1 .842-.346q.48 0 .825.346t.345.825q0 .478-.327.825a1.1 1.1 0 0 1-.79.363 2.25 2.25 0 0 0-1.737.692q-.727.727-.692 1.703.036 1.01.727 1.684.763.674 1.703.656a1.1 1.1 0 0 1 .789.365q.327.345.327.806 0 .496-.345.843a1.13 1.13 0 0 1-.825.345q-.496 0-.842-.345a1.15 1.15 0 0 1-.346-.843 2.22 2.22 0 0 0-.674-1.631 2.32 2.32 0 0 0-1.631-.728 1.1 1.1 0 0 1-.576-.106 1.04 1.04 0 0 1-.39-.346 1.52 1.52 0 0 1-.24-1.037q.23-.87 1.135-.87m.016 3.547q.461 0 .807.338.345.336.364.798-.019.975.673 1.702.692.71 1.667.71h.054q.956 0 1.649-.71.708-.709.691-1.703a2.25 2.25 0 0 0-.727-1.649q-.7-.666-1.63-.674h-.072a1.1 1.1 0 0 1-.79-.363 1.16 1.16 0 0 1-.328-.825q0-.479.346-.825.294-.293.696-.338l.078-.008.03.001h.093q.915-.01 1.597-.692.727-.728.709-1.72 0-.391.266-.71l.018-.018.017-.018q0-.017.018-.017l.018-.018v-.017h.018v-.02q.017 0 .017-.017l.018-.017h.036q0-.02.017-.019l.018-.017V5.73h.035q0-.018.018-.018l.018-.017.018-.018h.017q0-.018.018-.018t.018-.018h.018l.017-.017h.036v-.018h.017l.019-.018h.035v-.016h.035l.018-.018h.036l.017-.017h.054l.017-.019h.053q.018 0 .018-.017h.372l.01.009q.008.008.025.008h.036l.01.01q.008.008.025.009h.036l.018.017h.035l.018.018h.036q.017.017.035.017l.018.018h.035v.018h.018l.018.018.008.009q.01.009.027.009l.018.017h.018q0 .018.035.018l.018.017v.019h.018q0 .017.035.017 0 .018.018.018v.018h.017l.019.017q.017.018.035.018l.017.018q0 .018.018.018v.017h.018q0 .018.01.026l.008.01q0 .018.018.018l.017.017q0 .017.009.027l.009.009.018.017.018.018v.036l.017.017v.017h.018q0 .019.009.027l.008.009q0 .018.018.017v.019q0 .017.009.026l.01.009.017.017q0 .036.018.036v.018q0 .017.008.026l.01.01v.034l.017.019v.053q.018.017.018.035v.053q.018.018.018.036v.141q0 .94.673 1.668.692.69 1.65.709.477-.018.851.328.372.345.372.842 0 .496-.346.843a1.13 1.13 0 0 1-.825.346 1.16 1.16 0 0 1-.824-.329 1.13 1.13 0 0 1-.364-.807q.019-.975-.708-1.72a2.28 2.28 0 0 0-1.72-.692 2.32 2.32 0 0 0-1.632.728 2.22 2.22 0 0 0-.675 1.631v.055q.02.906.673 1.612.691.692 1.65.71.638-.036.974.461.337.48.214 1.011-.249.888-1.135.887h-.054q-.993.035-1.649.727-.674.675-.674 1.65 0 .477-.346.824a1.13 1.13 0 0 1-.824.346h-.036q-.479 0-.815-.346a1.14 1.14 0 0 1-.338-.825q0-.975-.673-1.649a2.32 2.32 0 0 0-1.632-.727 1.17 1.17 0 0 1-.877-.328 1.14 1.14 0 0 1-.364-.86q0-.48.346-.825a1.15 1.15 0 0 1 .842-.346" clip-rule="evenodd"/></g><defs><clipPath id="a"><path fill="#fff" d="M0 0h24v24H0z"/></clipPath></defs></svg>