<svg xmlns="http://www.w3.org/2000/svg" fill="none" viewBox="0 0 24 24"><g clip-path="url(#a)"><path fill="#2DAEE4" d="M12 24c6.627 0 12-5.373 12-12S18.627 0 12 0 0 5.373 0 12s5.373 12 12 12Z"/><path fill="#fff" fill-rule="evenodd" d="M6.672 9.047h.071c.626-.011 1.17-.248 1.632-.709.448-.485.673-1.04.673-1.667 0-.32.115-.594.346-.825a1.147 1.147 0 0 1 .842-.346c.319 0 .595.115.825.346.23.23.345.506.345.825 0 .318-.109.594-.327.825a1.111 1.111 0 0 1-.79.363 2.25 2.25 0 0 0-1.737.692c-.485.485-.715 1.052-.692 1.703.023.673.267 1.235.727 1.684.509.45 1.076.668 1.703.656a1.113 1.113 0 0 1 .789.365c.218.23.327.499.327.806 0 .331-.115.612-.345.843a1.126 1.126 0 0 1-.825.345c-.331 0-.611-.115-.842-.345a1.146 1.146 0 0 1-.346-.843 2.223 2.223 0 0 0-.674-1.631 2.322 2.322 0 0 0-1.631-.728 1.105 1.105 0 0 1-.576-.106 1.04 1.04 0 0 1-.39-.346 1.523 1.523 0 0 1-.24-1.037c.154-.58.532-.87 1.135-.87Zm.016 3.547c.307 0 .577.113.807.338.23.224.351.49.364.798-.013.65.212 1.218.673 1.702.462.473 1.017.71 1.667.71h.054c.638 0 1.187-.237 1.649-.71.472-.473.703-1.04.691-1.703a2.247 2.247 0 0 0-.727-1.649c-.467-.444-1.01-.668-1.63-.674h-.072a1.113 1.113 0 0 1-.79-.363 1.156 1.156 0 0 1-.328-.825c0-.318.116-.594.346-.825.196-.195.428-.308.696-.338l.078-.008.03.001h.093c.61-.007 1.142-.238 1.597-.692.485-.485.721-1.058.709-1.72 0-.26.089-.497.266-.71l.018-.018.017-.018c0-.011.007-.017.018-.017l.018-.018v-.017h.018v-.02c.011 0 .017-.005.017-.017l.018-.017h.036c0-.013.006-.019.017-.019l.018-.017V5.73h.035c0-.012.007-.018.018-.018l.018-.017.018-.018h.017c0-.012.007-.018.018-.018.012 0 .018-.006.018-.018h.018l.017-.017h.036v-.018h.017l.019-.018h.035v-.016h.035l.018-.018h.036l.017-.017h.054l.017-.019h.053c.012 0 .018-.005.018-.017h.372l.01.009c.005.006.014.008.025.008h.036l.01.01a.036.036 0 0 0 .025.009h.036l.018.017h.035l.018.018h.036c.011.011.023.017.035.017l.018.018h.035v.018h.018l.018.018.008.009a.038.038 0 0 0 .027.009l.018.017h.018c0 .012.011.018.035.018l.018.017v.019h.018c0 .011.011.017.035.017 0 .012.006.018.018.018v.018h.017l.019.017c.011.012.023.018.035.018l.017.018c0 .012.007.018.018.018v.017h.018c0 .012.003.021.01.026l.008.01c0 .012.006.018.018.018l.017.017c0 .012.003.021.009.027l.009.009.018.017.018.018v.036l.017.017v.017h.018c0 .013.003.021.009.027l.008.009c0 .012.007.018.018.018v.018c0 .011.003.02.009.026l.01.009.017.017c0 .024.006.036.018.036v.018c0 .012.002.02.008.026l.01.01v.035l.017.018v.053c.012.012.018.023.018.035v.053c.012.012.018.024.018.036v.141c0 .627.224 1.183.673 1.668.462.46 1.011.697 1.65.709.318-.012.602.097.851.328.248.23.372.51.372.842 0 .331-.115.611-.346.843a1.124 1.124 0 0 1-.825.346 1.156 1.156 0 0 1-.824-.329 1.13 1.13 0 0 1-.364-.807c.013-.65-.224-1.223-.708-1.72a2.282 2.282 0 0 0-1.72-.692 2.32 2.32 0 0 0-1.632.728 2.221 2.221 0 0 0-.675 1.631v.055c.013.604.237 1.142.673 1.612a2.318 2.318 0 0 0 1.65.71c.425-.024.75.13.974.461.225.319.296.657.214 1.011-.166.592-.544.887-1.135.887h-.054c-.662.023-1.212.266-1.649.727-.45.45-.674 1-.674 1.65 0 .318-.115.593-.346.824a1.125 1.125 0 0 1-.824.346h-.036c-.319 0-.591-.115-.815-.346a1.14 1.14 0 0 1-.338-.825c0-.65-.224-1.2-.673-1.649a2.32 2.32 0 0 0-1.632-.727 1.167 1.167 0 0 1-.877-.329 1.14 1.14 0 0 1-.364-.86c0-.319.115-.594.346-.824a1.146 1.146 0 0 1 .842-.346Z" clip-rule="evenodd"/></g><defs><clipPath id="a"><path fill="#fff" d="M0 0h24v24H0z"/></clipPath></defs></svg>