<svg xmlns="http://www.w3.org/2000/svg" fill="none" viewBox="0 0 24 24"><path fill="#000" d="M4.252 20a6.674 6.674 0 0 1-.004-.667c.074-.022.149-.037.226-.048a5.67 5.67 0 0 0 .66-.156 3.4 3.4 0 0 0 .178-.063c.285-.11.537-.296.73-.533a3.45 3.45 0 0 0 .348-.537c.14-.26.263-.53.374-.804.222-.556.444-1.108.663-1.663l2.267-5.735a405.395 405.395 0 0 0 2.108-5.468l.045-.111c.255-.07.503-.145.763-.215.014.037.03.07.04.104.293.815.586 1.63.875 2.448a917.258 917.258 0 0 0 3.015 8.332c.282.756.563 1.515.849 2.27.11.308.244.612.396.901.067.126.137.245.215.363.237.37.604.634 1.03.745.23.059.459.107.696.137l.167.026c.022.074.01.144.01.215v.226c.005.074 0 .144-.003.218-.022.004-.04.008-.063.011h-5.86a.132.132 0 0 1-.015-.04v-.6c0-.008.004-.02.007-.027a.953.953 0 0 1 .148-.03c.241-.032.478-.077.715-.14a2.46 2.46 0 0 0 .278-.096c.045-.019.09-.041.133-.067.234-.13.327-.333.304-.593a1.85 1.85 0 0 0-.063-.348c-.048-.178-.11-.352-.17-.522-1.215-3.39-2.415-6.783-3.605-10.184-.01-.037-.018-.078-.055-.111-.011.007-.03.015-.037.022a.175.175 0 0 0-.022.056c-.582 1.67-1.2 3.33-1.816 4.986a146.192 146.192 0 0 0-1.333 3.693c-.17.497-.334.997-.493 1.497a3.625 3.625 0 0 0-.137.585 1.472 1.472 0 0 0-.011.404.62.62 0 0 0 .255.437c.093.067.197.119.308.156.174.063.352.107.533.137.2.037.4.067.604.096.015.004.026.004.045.008l.01.044v.582a.108.108 0 0 1-.007.033.26.26 0 0 1-.055.008H9.42L4.252 20Z"/></svg>