<svg xmlns="http://www.w3.org/2000/svg" fill="none" viewBox="0 0 24 24"><path fill="#000" d="M4.252 20a6.671 6.671 0 0 1-.003-.667c.074-.022.148-.037.226-.048a5.67 5.67 0 0 0 .659-.156c.06-.018.119-.04.178-.063.285-.11.537-.296.73-.533a3.45 3.45 0 0 0 .348-.537c.14-.26.263-.53.374-.804.222-.556.445-1.108.663-1.663l2.267-5.735a407.282 407.282 0 0 0 2.108-5.468l.045-.111c.255-.07.504-.145.763-.215.015.037.03.07.04.104.293.815.586 1.63.875 2.448a926.82 926.82 0 0 0 3.015 8.332c.282.756.564 1.515.849 2.27.11.308.244.612.396.901.067.126.137.245.215.363.237.37.604.634 1.03.745.23.059.46.107.696.137l.167.026c.022.074.011.144.011.215v.226c.004.074 0 .144-.004.218-.022.004-.04.008-.063.011h-5.86a.132.132 0 0 1-.015-.04v-.6c0-.008.004-.02.007-.027a.955.955 0 0 1 .149-.03 5.75 5.75 0 0 0 .715-.14c.092-.026.188-.06.277-.096a1.12 1.12 0 0 0 .134-.067c.233-.13.326-.333.304-.593a1.859 1.859 0 0 0-.063-.348c-.049-.178-.111-.352-.17-.522A1335.83 1335.83 0 0 1 11.71 7.349c-.012-.037-.019-.078-.056-.111-.011.007-.03.015-.037.022a.175.175 0 0 0-.022.056c-.582 1.67-1.2 3.33-1.815 4.986a146.192 146.192 0 0 0-1.334 3.693c-.17.497-.333.997-.493 1.497a3.624 3.624 0 0 0-.137.585 1.472 1.472 0 0 0-.011.404.62.62 0 0 0 .256.437c.092.067.196.119.307.156.174.063.352.107.534.137.2.037.4.067.603.096.015.004.026.004.045.008l.011.044v.582a.109.109 0 0 1-.007.033c-.019.004-.037.008-.056.008H9.42L4.252 20Z"/></svg>