<svg xmlns="http://www.w3.org/2000/svg" fill="none" viewBox="0 0 24 24"><path fill="#000" d="M4.252 20a7 7 0 0 1-.004-.667q.11-.032.226-.048a6 6 0 0 0 .66-.156 3 3 0 0 0 .178-.062c.285-.112.537-.297.73-.534q.199-.252.348-.537.209-.392.374-.804.334-.832.663-1.663l2.267-5.735a405 405 0 0 0 2.108-5.468l.045-.111c.255-.07.503-.145.763-.215q.023.054.04.104.44 1.222.875 2.448a917 917 0 0 0 3.015 8.332q.421 1.136.849 2.27c.11.308.244.612.396.901q.1.188.215.363c.237.37.604.634 1.03.745.23.059.459.107.696.137l.167.026c.022.074.01.144.01.215v.226c.005.074 0 .144-.003.218-.022.004-.04.008-.063.011h-5.86a.1.1 0 0 1-.015-.04v-.6c0-.008.004-.02.007-.027a1 1 0 0 1 .148-.03q.36-.047.715-.14a3 3 0 0 0 .278-.096q.068-.028.133-.067c.234-.13.327-.333.304-.593a2 2 0 0 0-.063-.348c-.048-.178-.11-.352-.17-.522q-1.821-5.084-3.605-10.184c-.01-.037-.018-.078-.055-.111-.011.007-.03.015-.037.022a.2.2 0 0 0-.022.056c-.582 1.67-1.2 3.33-1.816 4.986a146 146 0 0 0-1.333 3.693q-.255.746-.493 1.497a3.6 3.6 0 0 0-.137.585 1.5 1.5 0 0 0-.011.404.62.62 0 0 0 .255.437q.14.1.308.156.261.093.533.137.299.054.604.096c.015.004.026.004.045.008l.01.044v.582a.1.1 0 0 1-.007.033q-.027.007-.055.008H9.42z"/></svg>