<svg xmlns="http://www.w3.org/2000/svg" fill="none" viewBox="0 0 24 24"><g clip-path="url(#a)"><path fill="#000" d="M12 24c6.627 0 12-5.373 12-12S18.627 0 12 0 0 5.373 0 12s5.373 12 12 12Z"/><path fill="#fff" d="M6.008 18a4.433 4.433 0 0 1-.002-.5c.057-.017.115-.029.174-.036.17-.029.34-.068.506-.118.045-.014.09-.03.134-.046.22-.084.412-.223.56-.402.101-.125.19-.26.266-.402a5.82 5.82 0 0 0 .287-.602c.17-.415.34-.832.508-1.25l1.736-4.3a286.83 286.83 0 0 0 1.614-4.1c.01-.029.023-.056.035-.084.194-.053.386-.108.586-.16.01.028.022.052.031.078l.67 1.836a669 669 0 0 0 2.311 6.25c.215.568.43 1.136.649 1.702.086.232.187.457.303.676.05.094.106.185.165.273.181.277.463.477.788.559.175.046.353.08.533.104l.127.018c.019.056.008.11.009.162.002.054 0 .113 0 .17.002.056 0 .11-.003.165-.018.003-.032.006-.047.007h-4.491a.112.112 0 0 1-.01-.03v-.451a.091.091 0 0 1 .006-.02.676.676 0 0 1 .113-.021c.185-.024.367-.059.548-.105.072-.02.143-.045.214-.07a.758.758 0 0 0 .102-.05c.177-.097.248-.25.233-.445a1.476 1.476 0 0 0-.048-.26c-.035-.135-.084-.264-.131-.394-.93-2.542-1.85-5.088-2.76-7.638-.01-.028-.013-.058-.042-.083-.01.006-.021.01-.029.018a.178.178 0 0 0-.017.04c-.444 1.254-.918 2.498-1.39 3.742-.348.922-.697 1.842-1.021 2.772-.13.373-.256.747-.378 1.122a2.66 2.66 0 0 0-.106.44c-.017.1-.02.201-.008.302a.47.47 0 0 0 .194.328c.072.05.151.09.235.118.132.046.27.08.408.103.154.028.308.05.462.073l.033.006a.146.146 0 0 1 .007.034v.436a.136.136 0 0 1-.005.025.389.389 0 0 1-.042.007H6.008V18Z"/></g><defs><clipPath id="a"><path fill="#fff" d="M0 0h24v24H0z"/></clipPath></defs></svg>