<svg xmlns="http://www.w3.org/2000/svg" fill="none" viewBox="0 0 24 24"><rect width="20" height="20" x="2" y="2" fill="#1E1E1E" rx="10"/><path fill="#4BDB4B" d="M17.69 14.088A1.918 1.918 0 1 1 14.361 16l-4.026-6.973a1.918 1.918 0 0 1 3.327-1.912l4.026 6.973Z" opacity=".4"/><path fill="#4BDB4B" d="M9.638 16a1.919 1.919 0 0 1-3.327-1.912l4.025-6.972a1.919 1.919 0 1 1 3.327 1.911L9.638 16Z" opacity=".8"/><path fill="#4BDB4B" d="M13.652 7.096a1.938 1.938 0 0 0-.07-.11l-.036-.051a1.816 1.816 0 0 0-.075-.094c-.016-.02-.03-.038-.047-.057-.023-.025-.048-.049-.072-.073-.024-.024-.042-.043-.065-.063-.022-.02-.043-.037-.065-.055-.028-.023-.055-.046-.085-.068l-.061-.042a1.61 1.61 0 0 0-.1-.064l-.02-.013c-.015-.009-.031-.015-.047-.024a1.96 1.96 0 0 0-.367-.151A2.007 2.007 0 0 0 12 6.153a1.99 1.99 0 0 0-.642.11 1.946 1.946 0 0 0-.268.12c-.015.009-.03.015-.046.024l-.02.013c-.035.02-.069.043-.102.065l-.059.04c-.03.023-.06.047-.088.071l-.06.051a1.172 1.172 0 0 0-.071.07c-.023.022-.046.043-.066.066-.02.022-.036.042-.054.064a1.784 1.784 0 0 0-.067.085 1.805 1.805 0 0 0-.106.16 1.917 1.917 0 0 0-.014 1.933l1.664 2.882 1.663-2.882a1.916 1.916 0 0 0-.012-1.929Z"/></svg>