<svg xmlns="http://www.w3.org/2000/svg" fill="none" viewBox="0 0 24 24"><rect width="20" height="20" x="2" y="2" fill="#1E1E1E" rx="10"/><path fill="#4BDB4B" d="M17.69 14.088A1.918 1.918 0 1 1 14.361 16l-4.026-6.973a1.918 1.918 0 0 1 3.327-1.912z" opacity=".4"/><path fill="#4BDB4B" d="M9.638 16a1.919 1.919 0 0 1-3.327-1.912l4.025-6.972a1.919 1.919 0 1 1 3.327 1.911z" opacity=".8"/><path fill="#4BDB4B" d="M13.652 7.096a2 2 0 0 0-.07-.11l-.036-.051-.075-.094q-.023-.03-.047-.057-.035-.037-.072-.073c-.024-.024-.042-.043-.065-.063l-.065-.055q-.041-.035-.085-.068l-.061-.042-.1-.064-.02-.013-.047-.024a2 2 0 0 0-.367-.151l-.074-.02A2 2 0 0 0 12 6.153l-.095.002a2 2 0 0 0-.547.109 2 2 0 0 0-.269.12q-.022.01-.045.023l-.02.013q-.053.031-.102.065l-.059.04q-.046.035-.088.071l-.06.051q-.037.034-.071.07-.035.032-.066.066l-.054.064q-.035.042-.067.085-.024.03-.043.063l-.063.097a1.92 1.92 0 0 0-.014 1.933l1.664 2.882 1.663-2.882a1.92 1.92 0 0 0-.012-1.929"/></svg>