<svg xmlns="http://www.w3.org/2000/svg" fill="none" viewBox="0 0 24 24"><path fill="#34A853" d="m23.996 18.469-.022-.146q-.074-.446-.183-.893-.183-.766-.473-1.498a11 11 0 0 0-.548-1.2 13 13 0 0 0-.882-1.432 13 13 0 0 0-1.328-1.563 10 10 0 0 0-.634-.581 12 12 0 0 0-1.51-1.106c.007-.007.007-.014.014-.022.242-.421.489-.835.73-1.257.24-.407.474-.814.715-1.228.167-.291.343-.59.51-.88a.8.8 0 0 0 .095-.219 1.07 1.07 0 0 0-.036-.77 1 1 0 0 0-.073-.138 1 1 0 0 0-.387-.378 1.1 1.1 0 0 0-.474-.153 1 1 0 0 0-.212 0c-.058.007-.116.014-.167.03a1.06 1.06 0 0 0-.671.508c-.168.29-.343.589-.51.88l-.715 1.229c-.241.421-.49.835-.73 1.257-.03.044-.05.095-.08.138l-.11-.043a12.1 12.1 0 0 0-4.317-.785h-.125a12.2 12.2 0 0 0-3.866.668l-.415.153c-.022-.043-.051-.087-.073-.131-.24-.422-.489-.836-.73-1.257-.24-.408-.474-.815-.714-1.229l-.511-.88a1.1 1.1 0 0 0-.671-.508c-.058-.016-.117-.023-.167-.03a1 1 0 0 0-.212 0 1.13 1.13 0 0 0-.984.814 1.13 1.13 0 0 0 .109.843c.167.291.342.59.51.88.241.408.474.815.715 1.23.24.42.488.835.73 1.256l.007.008q-.735.457-1.4 1.01A12 12 0 0 0 2.114 13.3c-.33.459-.621.932-.883 1.433q-.307.578-.547 1.2a12 12 0 0 0-.657 2.391l-.022.146a.463.463 0 0 0 .466.53h23.033c.296 0 .53-.24.492-.531"/><path fill="#202124" d="M18.263 15.658c.48-.32.552-1.06.152-1.648-.391-.596-1.103-.813-1.582-.494-.48.32-.552 1.06-.153 1.648.393.596 1.104.814 1.583.494M7.385 15.17c.392-.595.327-1.328-.152-1.648-.48-.319-1.191-.1-1.584.495-.391.594-.326 1.328.153 1.648.48.319 1.184.094 1.583-.495"/></svg>