<svg xmlns="http://www.w3.org/2000/svg" fill="none" viewBox="0 0 24 24"><g clip-path="url(#a)"><path fill="#245AE5" fill-opacity=".9" fill-rule="evenodd" d="m13.2 2.3 6.55 3.35c.95.5 1.55 1.45 1.55 2.55v1.55h-2.4V8.2c0-.15-.1-.3-.25-.4L12.1 4.45c-.1-.05-.25-.05-.4 0L5.15 7.8c-.15.05-.25.2-.25.4v1.55H2.5V8.2c0-1.05.6-2.05 1.55-2.55L10.6 2.3c.8-.4 1.75-.4 2.6 0m.75 9.6c0-1.15-.95-2.05-2.05-2.05-1.15 0-2.05.9-2.05 2.05s.95 2.05 2.05 2.05 2.05-.9 2.05-2.05m4.65 4.3c.15-.05.25-.2.25-.4v-1.55h2.4v1.55c0 1.05-.6 2.05-1.55 2.55l-6.55 3.35c-.4.2-.85.3-1.3.3s-.9-.1-1.3-.3l-6.5-3.35c-.95-.5-1.55-1.45-1.55-2.55v-1.55h2.4v1.55c0 .15.1.3.25.4L10.7 19v-2.8c-1.9-.55-3.25-2.25-3.25-4.3 0-2.45 2-4.5 4.5-4.5 2.45 0 4.5 2 4.5 4.5 0 2.05-1.4 3.8-3.25 4.3V19z" clip-rule="evenodd"/></g><defs><clipPath id="a"><path fill="#fff" d="M2.5 2h18.75v20H2.5z"/></clipPath></defs></svg>