<svg xmlns="http://www.w3.org/2000/svg" fill="none" viewBox="0 0 24 24"><g clip-path="url(#a)"><path fill="#2CD3E1" d="M12 24c6.627 0 12-5.373 12-12S18.627 0 12 0 0 5.373 0 12s5.373 12 12 12"/><path fill="#000" d="M6.887 13.38a3 3 0 0 1-.007-.201c0-2.238 1.745-4.058 3.928-4.135.052 0 .108 0 .16.004l-.52-.517s2.095-.35 4.786 1.267c0 0 .04.083 0 .324 0 0 1.268.543 1.376 1.6s-.564 1.66-1.107 1.746c0 0 .282-.435-.151-.668a.6.6 0 0 0-.309-.07c-.828 0-.924.94-.924.94-.009.048-.009.095-.009.143 0 0-.12 1.195 1.86 1.336q.68-.878 1.184-1.867a14 14 0 0 0 1.18-3.275c-1.155-.945-2.515-1.756-3.978-2.435a23 23 0 0 0-1.583-.665 17 17 0 0 0-.777-.274q-.308.099-.776.274c-.503.189-1.035.41-1.583.665-1.462.678-2.823 1.489-3.976 2.436a13.7 13.7 0 0 0 1.226 3.373M19 9.756l-.032.178c-.016.138-.129.633-.268 1.107a14.4 14.4 0 0 1-.998 2.514c-.577 1.124-1.277 2.104-2.08 2.91a9.14 9.14 0 0 1-3.415 2.185l-.072.025-.135.052-.134-.047-.075-.026a9.1 9.1 0 0 1-3.415-2.184 11.7 11.7 0 0 1-2.08-2.911 14.5 14.5 0 0 1-1.202-3.311 7 7 0 0 1-.06-.296L5 9.77l.076-.063.056-.048c1.174-.988 2.562-1.835 4.06-2.547a22 22 0 0 1 2.601-1.048L11.996 6l.138.041.068.023c.688.22 1.6.572 2.6 1.047 1.496.71 2.882 1.557 4.054 2.542zm-4.838.46a1 1 0 0 0 .278-.206c.26.034.517.116.517.116-.473-.284-1.12-.453-1.836-.448 0 0 .273.388 1.032.547z"/></g><defs><clipPath id="a"><path fill="#fff" d="M0 0h24v24H0z"/></clipPath></defs></svg>