<svg xmlns="http://www.w3.org/2000/svg" fill="none" viewBox="0 0 24 24"><path fill="#62757E" fill-rule="evenodd" d="M18.384 18.82a.83.83 0 0 1-1.17-.137.833.833 0 0 1 .138-1.17c1.896-1.5 2.983-3.69 2.983-6.005 0-2.332-1.097-4.526-3.01-6.018a.835.835 0 0 1-.145-1.17.835.835 0 0 1 1.169-.145C20.67 5.985 22 8.658 22 11.508c0 2.83-1.317 5.495-3.616 7.312Zm-1.692-3.577a.83.83 0 0 1-1.173-.1.833.833 0 0 1 .1-1.173c.883-.745 1.369-1.703 1.369-2.699 0-.992-.486-1.95-1.37-2.694a.834.834 0 0 1 1.074-1.274c1.265 1.066 1.962 2.475 1.962 3.968 0 1.496-.697 2.907-1.962 3.972Zm-3.417-1.61 3.592 5.76a.834.834 0 0 1-1.413.88L12 14.739l-3.46 5.536a.834.834 0 0 1-1.148.264.834.834 0 0 1-.264-1.149l3.595-5.75a2.492 2.492 0 0 1-1.23-2.14c0-1.38 1.122-2.5 2.5-2.5a2.502 2.502 0 0 1 2.497 2.5c0 .907-.49 1.695-1.215 2.133Zm-1.283-2.967a.834.834 0 1 0 .003 1.667.834.834 0 0 0-.003-1.667Zm-3.51 4.478a.829.829 0 0 1-1.174.1c-1.265-1.066-1.961-2.477-1.961-3.973 0-1.493.696-2.902 1.961-3.968a.834.834 0 0 1 1.073 1.274c-.883.744-1.369 1.702-1.369 2.694 0 .996.486 1.954 1.37 2.699a.833.833 0 0 1 .1 1.174Zm-4.817-3.636c0 2.317 1.087 4.505 2.982 6.005a.834.834 0 0 1-1.033 1.306C3.317 17.004 2 14.34 2 11.509c0-2.85 1.33-5.523 3.652-7.333A.834.834 0 0 1 6.675 5.49c-1.913 1.492-3.01 3.686-3.01 6.018Z" clip-rule="evenodd"/></svg>