<svg xmlns="http://www.w3.org/2000/svg" fill="none" viewBox="0 0 24 24"><path fill="#62757E" d="M18.312 16.351c.329.393.904.411 1.324-.045C21.16 14.672 22 12.436 22 10.026s-.858-4.674-2.364-6.28c-.42-.457-.995-.439-1.324-.046-.32.365-.219.83.137 1.232 1.205 1.333 1.871 3.122 1.871 5.093 0 1.963-.666 3.752-1.87 5.085-.357.402-.457.867-.138 1.241m-12.624 0c.32-.374.21-.84-.137-1.241-1.205-1.333-1.871-3.122-1.871-5.084 0-1.972.666-3.761 1.87-5.094.348-.402.457-.867.138-1.232-.329-.393-.904-.411-1.324.045C2.858 5.352 2 7.615 2 10.025s.84 4.647 2.364 6.28c.42.457.995.439 1.324.046m9.822-2.656c.328.393.95.402 1.333-.055.794-.958 1.241-2.245 1.241-3.615 0-1.378-.447-2.665-1.241-3.614-.384-.466-1.005-.448-1.333-.064-.31.374-.183.812.119 1.232.483.657.775 1.534.775 2.446 0 .904-.273 1.799-.775 2.438-.302.42-.43.867-.12 1.232m-7.02 0c.301-.365.183-.812-.118-1.232-.503-.64-.786-1.534-.786-2.437 0-.913.302-1.79.786-2.447.3-.42.42-.858.118-1.232-.328-.384-.95-.402-1.333.064-.794.95-1.241 2.236-1.241 3.614 0 1.37.447 2.657 1.241 3.615.384.457 1.005.448 1.333.055m3.505 6.901c.493 0 .804-.356.804-.895v-8.096c.575-.292.976-.886.976-1.58 0-.994-.785-1.78-1.78-1.78-.985 0-1.77.786-1.77 1.78 0 .694.392 1.297.976 1.58V19.7c0 .53.329.895.794.895"/></svg>