<svg xmlns="http://www.w3.org/2000/svg" fill="none" viewBox="0 0 24 24"><path fill="#070001" d="M12.06 3.35c1.781 0 3.498.668 4.739 1.908 1.272 1.24 1.971 2.862 1.971 4.611V20.65H5.35V9.87c0-1.75.7-3.372 1.972-4.612 1.24-1.24 2.925-1.908 4.738-1.908m0-.35c-1.876 0-3.657.7-4.993 2.004C5.731 6.307 5 8.024 5 9.869V21h14.12V9.87a6.6 6.6 0 0 0-2.067-4.835C15.717 3.7 13.936 3 12.06 3"/><path fill="#070001" d="m16.215 5.899-.318-.318c-1.05-.922-2.385-1.4-3.816-1.4-1.559 0-3.053.605-4.135 1.718a5.8 5.8 0 0 0-1.717 4.134v9.732h11.703v-9.7c0-1.59-.636-3.053-1.717-4.166M14.402 19.16a5.3 5.3 0 0 1-1.749.287h-4.23v-1.94a2 2 0 0 1-.254-.318 5.48 5.48 0 0 1-1.113-3.34v-3.657c0-1.43.54-2.767 1.495-3.816.127 0 .286 0 .445.032.986.095 2.321.445 3.466 1.24 1.018.7 2.258 1.972 2.258 4.039v7.378c-.095.032-.19.064-.318.095"/><path fill="#070001" d="M12.494 7.648a7.9 7.9 0 0 0-3.466-1.24c-.16 0-.318-.032-.445-.032a5.64 5.64 0 0 0-1.495 3.816v3.658c0 1.208.382 2.385 1.113 3.339.095.095.159.222.254.318v1.94h4.23a5.5 5.5 0 0 0 1.75-.287 1.6 1.6 0 0 0 .349-.127v-7.378c-.032-2.067-1.272-3.307-2.29-4.007m-3.72 11.449v-1.24c.572.54 1.24.985 1.971 1.24zm5.628-.286a5.3 5.3 0 0 1-1.749.286c-1.399 0-2.703-.54-3.72-1.559l-.191-.19a2.4 2.4 0 0 1-.35-.445 5.13 5.13 0 0 1-1.018-3.085v-3.626c0-1.272.477-2.512 1.304-3.466 2.226.095 5.693 1.622 5.693 4.93v7.155z"/><path fill="#070001" d="M10.723 14.843a.205.205 0 0 1-.19-.19v-3.245a1.56 1.56 0 0 1 1.558-1.558c.858 0 1.558.7 1.558 1.558 0 .096-.096.191-.191.191a.205.205 0 0 1-.19-.19c0-.637-.541-1.177-1.178-1.177s-1.176.54-1.176 1.176v3.244c0 .096-.096.191-.191.191"/><path fill="#070001" d="M12.663 12.33a.205.205 0 0 1-.19-.19.367.367 0 0 0-.382-.382.367.367 0 0 0-.382.382c0 .095-.095.19-.19.19a.205.205 0 0 1-.191-.19c0-.446.35-.795.795-.795s.795.35.795.795c-.064.095-.16.19-.255.19m-1.94 2.513a1.06 1.06 0 0 1-1.05-1.05c0-.095.096-.19.192-.19.095 0 .19.095.19.19 0 .35.287.636.636.636s.636-.286.636-.636c0-.095.096-.19.191-.19.096 0 .191.095.191.19a.986.986 0 0 1-.986 1.05M9.61 12.649c-.063 0-.095-.032-.127-.064l-.859-.859v.732c0 .095-.095.19-.19.19-.096 0-.223-.095-.223-.222v-1.177c0-.095.064-.159.127-.19.096-.032.16-.032.223.031l.858.859v-.509c0-.095.096-.19.191-.19.096 0 .191.095.191.19v.986a.22.22 0 0 1-.127.19c0 .033-.032.033-.064.033m1.082-1.018a.205.205 0 0 1-.191-.19c0-.032 0-.827-.54-.827a.205.205 0 0 1-.191-.191c0-.096.095-.191.19-.191.732 0 .923.795.923 1.208 0 .096-.096.191-.191.191"/></svg>