<svg xmlns="http://www.w3.org/2000/svg" fill="none" viewBox="0 0 24 24"><path fill="#070001" d="M12.06 3.35c1.781 0 3.498.668 4.739 1.908 1.272 1.24 1.971 2.862 1.971 4.611V20.65H5.35V9.87c0-1.75.7-3.372 1.972-4.612 1.24-1.24 2.925-1.908 4.738-1.908Zm0-.35c-1.876 0-3.657.7-4.993 2.004C5.731 6.307 5 8.024 5 9.869V21h14.12V9.87a6.612 6.612 0 0 0-2.067-4.835C15.717 3.7 13.936 3 12.06 3Z"/><path fill="#070001" d="m16.215 5.899-.318-.318c-1.05-.922-2.386-1.4-3.817-1.4-1.558 0-3.053.605-4.134 1.718a5.798 5.798 0 0 0-1.717 4.134v9.732h11.703v-9.7c0-1.59-.636-3.053-1.717-4.166ZM14.402 19.16a5.304 5.304 0 0 1-1.75.287H8.424v-1.94a2.227 2.227 0 0 1-.254-.318 5.478 5.478 0 0 1-1.113-3.34v-3.657c0-1.43.54-2.767 1.494-3.816.128 0 .287 0 .446.032.985.095 2.321.445 3.466 1.24 1.018.7 2.258 1.972 2.258 4.039v7.378c-.096.032-.19.064-.318.095Z"/><path fill="#070001" d="M12.494 7.648a7.918 7.918 0 0 0-3.467-1.24c-.159 0-.318-.032-.445-.032a5.642 5.642 0 0 0-1.495 3.816v3.658c0 1.208.382 2.385 1.113 3.339.096.095.16.222.255.318v1.94h4.23a5.45 5.45 0 0 0 1.749-.287 1.55 1.55 0 0 0 .35-.127v-7.378c-.032-2.067-1.273-3.307-2.29-4.007ZM8.773 19.097v-1.24c.572.54 1.24.985 1.972 1.24H8.773Zm5.629-.286a5.31 5.31 0 0 1-1.75.286c-1.398 0-2.702-.54-3.72-1.559l-.19-.19a2.401 2.401 0 0 1-.35-.445 5.128 5.128 0 0 1-1.018-3.085v-3.626c0-1.272.477-2.512 1.304-3.466 2.226.095 5.692 1.622 5.692 4.93v7.155h.032Z"/><path fill="#070001" d="M10.723 14.843a.205.205 0 0 1-.19-.19v-3.245c0-.858.7-1.558 1.558-1.558.859 0 1.558.7 1.558 1.558 0 .096-.095.191-.19.191a.205.205 0 0 1-.191-.19c0-.637-.541-1.177-1.177-1.177s-1.177.54-1.177 1.176v3.244c0 .096-.095.191-.19.191Z"/><path fill="#070001" d="M12.663 12.33a.205.205 0 0 1-.19-.19.367.367 0 0 0-.382-.382.367.367 0 0 0-.382.382c0 .095-.095.19-.19.19a.205.205 0 0 1-.191-.19c0-.446.35-.795.795-.795.445 0 .795.35.795.795-.064.095-.16.19-.255.19Zm-1.94 2.513a1.06 1.06 0 0 1-1.05-1.05c0-.095.096-.19.192-.19.095 0 .19.095.19.19a.638.638 0 0 0 1.273 0c0-.095.095-.19.19-.19.096 0 .191.095.191.19a.986.986 0 0 1-.986 1.05ZM9.61 12.649c-.063 0-.095-.032-.127-.064l-.859-.859v.732c0 .095-.095.19-.19.19-.096 0-.223-.095-.223-.222v-1.177c0-.095.064-.159.127-.19.096-.032.16-.032.223.031l.859.859v-.509c0-.095.095-.19.19-.19.096 0 .191.095.191.19v.986a.215.215 0 0 1-.127.19c0 .033-.032.033-.064.033Zm1.082-1.018a.205.205 0 0 1-.191-.19c0-.032 0-.827-.54-.827a.205.205 0 0 1-.192-.191c0-.096.096-.191.191-.191.732 0 .922.795.922 1.208 0 .096-.095.191-.19.191Z"/></svg>