<svg xmlns="http://www.w3.org/2000/svg" fill="none" viewBox="0 0 24 24"><rect width="20" height="20" x="2" y="2" fill="url(#a)" rx="10"/><path fill="#FEFEFE" d="m10.7 13.07 1.33-4.047 1.355 4.048zm5.639 2.56-1.1-3.021h.656a.48.48 0 0 0 .474-.476.453.453 0 0 0-.451-.452H14.89l-.164-.47h1.168a.47.47 0 0 0 .472-.46.47.47 0 0 0-.474-.474h-1.517l-.821-2.258a2.04 2.04 0 0 0-.59-.831 1.38 1.38 0 0 0-.927-.312c-.338-.011-.669.1-.932.312a2.05 2.05 0 0 0-.591.831l-.86 2.279H8.146a.456.456 0 0 0-.456.453.47.47 0 0 0 .472.472h1.146l-.177.458H8.105a.456.456 0 0 0-.456.456.47.47 0 0 0 .466.468h.66l-1.12 3.026c-.068.17-.107.352-.113.535a1 1 0 0 0 .313.678c.207.18.472.277.747.275a1.006 1.006 0 0 0 1.026-.743l.433-1.291h3.985l.433 1.322a1.01 1.01 0 0 0 1.026.706.96.96 0 0 0 .493-.125q.196-.146.343-.341a.9.9 0 0 0 .125-.48 3 3 0 0 0-.128-.528z"/><defs><linearGradient id="a" x1="6.165" x2="19.733" y1="5.681" y2="20.376" gradientUnits="userSpaceOnUse"><stop stop-color="#FC8F55"/><stop offset=".44" stop-color="#FE7A6A"/><stop offset="1" stop-color="#FE687C"/></linearGradient></defs></svg>