<svg xmlns="http://www.w3.org/2000/svg" fill="none" viewBox="0 0 24 24"><rect width="20" height="20" x="2" y="2" fill="url(#a)" rx="10"/><path fill="#FEFEFE" d="m10.7 13.07 1.33-4.047 1.354 4.048H10.7Zm5.638 2.56-1.1-3.021h.657a.477.477 0 0 0 .44-.65.452.452 0 0 0-.418-.278h-1.026l-.164-.47h1.168a.472.472 0 0 0 .472-.46.472.472 0 0 0-.474-.474h-1.517l-.821-2.258a2.035 2.035 0 0 0-.59-.831 1.375 1.375 0 0 0-.927-.312c-.338-.011-.669.1-.932.312a2.053 2.053 0 0 0-.591.831l-.86 2.278h-1.51a.456.456 0 0 0-.455.454.472.472 0 0 0 .472.472h1.146l-.177.458H8.105a.456.456 0 0 0-.456.456.468.468 0 0 0 .466.468h.659L7.655 15.63c-.069.17-.107.351-.113.535a.99.99 0 0 0 .312.678c.208.18.473.277.747.275a1.005 1.005 0 0 0 1.027-.743l.433-1.291h3.984l.434 1.322a1.013 1.013 0 0 0 1.026.706.957.957 0 0 0 .492-.125c.13-.097.246-.212.343-.341a.924.924 0 0 0 .126-.48 3.156 3.156 0 0 0-.128-.528v-.008Z"/><defs><linearGradient id="a" x1="6.165" x2="19.733" y1="5.681" y2="20.376" gradientUnits="userSpaceOnUse"><stop stop-color="#FC8F55"/><stop offset=".44" stop-color="#FE7A6A"/><stop offset="1" stop-color="#FE687C"/></linearGradient></defs></svg>