<svg xmlns="http://www.w3.org/2000/svg" fill="none" viewBox="0 0 24 24"><path fill="#62757E" fill-rule="evenodd" d="M15.166 17c-1.016 0-1.214.207-1.216.21-.067.156.146.774.26 1.107.284.827.638 1.856.033 2.704-.626.877-1.929.979-2.855.979C5.948 22 2 17.794 2 12 2 6.486 6.486 2 12 2s10 4.486 10 10c0 1.857-1.44 5-6.834 5M12 3.667c-4.595 0-8.333 3.738-8.333 8.333 0 4.83 3.246 8.333 7.721 8.333 1.284 0 1.497-.278 1.499-.28.106-.15-.137-.855-.253-1.194-.277-.804-.62-1.804-.04-2.617.58-.815 1.746-.909 2.572-.909 4.079 0 5.167-2.095 5.167-3.333 0-4.595-3.738-8.333-8.333-8.333m5 9.166a1.667 1.667 0 1 1 .001-3.334A1.667 1.667 0 0 1 17 12.833m-3.333-4.166a1.667 1.667 0 1 1 0-3.335 1.667 1.667 0 0 1 0 3.335m-4.999 1.666A1.667 1.667 0 1 1 8.666 7a1.667 1.667 0 0 1 .002 3.334m.832 3.334a1.667 1.667 0 1 1-3.334 0 1.667 1.667 0 0 1 3.334 0" clip-rule="evenodd"/></svg>