<svg xmlns="http://www.w3.org/2000/svg" fill="none" viewBox="0 0 24 24"><g clip-path="url(#a)"><path fill="url(#b)" d="M19.152 0H4.848A4.846 4.846 0 0 0 0 4.848v14.307A4.845 4.845 0 0 0 4.848 24h14.307a4.85 4.85 0 0 0 4.848-4.848V4.848A4.85 4.85 0 0 0 19.152 0"/><path fill="#fff" d="m11.898 5.514.486-.84a1.093 1.093 0 1 1 1.896 1.092l-4.683 8.106h3.387c1.098 0 1.713 1.29 1.236 2.184H4.29a1.09 1.09 0 0 1-1.092-1.092c0-.606.486-1.092 1.092-1.092h2.784l3.564-6.177-1.113-1.932a1.095 1.095 0 0 1 1.896-1.092zM7.686 17.181l-1.05 1.821A1.093 1.093 0 1 1 4.74 17.91l.78-1.35c.882-.273 1.6-.063 2.166.621m9.042-3.303h2.841c.606 0 1.092.486 1.092 1.092s-.486 1.092-1.092 1.092h-1.578l1.065 1.848a1.095 1.095 0 0 1-1.896 1.092l-4.035-6.99c-.915-1.578-.26-3.162.384-3.699q1.074 1.847 3.22 5.565"/></g><defs><linearGradient id="b" x1="12.002" x2="12.002" y1="0" y2="24" gradientUnits="userSpaceOnUse"><stop stop-color="#18bffb"/><stop offset="1" stop-color="#2072f3"/></linearGradient><clipPath id="a"><path fill="#fff" d="M0 0h24v24H0z"/></clipPath></defs></svg>