<svg xmlns="http://www.w3.org/2000/svg" fill="none" viewBox="0 0 24 24"><g clip-path="url(#a)"><path fill="#213147" d="M12 24c6.627 0 12-5.373 12-12S18.627 0 12 0 0 5.373 0 12s5.373 12 12 12"/><path fill="#213147" d="M5.446 8.864v6.272c0 .403.211.768.563.973l5.434 3.136a1.13 1.13 0 0 0 1.12 0l5.434-3.136c.345-.199.563-.57.563-.973V8.864c0-.403-.211-.768-.563-.973l-5.434-3.136a1.13 1.13 0 0 0-1.12 0L6.01 7.891a1.12 1.12 0 0 0-.556.973z"/><path fill="#12AAFF" d="m13.184 13.216-.775 2.125a.3.3 0 0 0 0 .185l1.332 3.655 1.542-.89-1.85-5.075a.133.133 0 0 0-.25 0m1.557-3.571a.133.133 0 0 0-.25 0l-.775 2.125a.3.3 0 0 0 0 .185l2.183 5.984 1.542-.89-2.7-7.398z"/><path fill="#9DCCED" d="M12 4.992q.059.002.109.032l5.875 3.392c.07.038.109.115.109.192v6.784a.23.23 0 0 1-.11.192l-5.874 3.392a.2.2 0 0 1-.11.032.2.2 0 0 1-.108-.032l-5.875-3.392a.22.22 0 0 1-.109-.192v-6.79a.23.23 0 0 1 .109-.192l5.875-3.392A.2.2 0 0 1 12 4.986zM12 4q-.318-.002-.608.16L5.517 7.552a1.21 1.21 0 0 0-.608 1.05v6.784c0 .435.23.832.608 1.05l5.875 3.391a1.2 1.2 0 0 0 .608.16q.318.002.608-.16l5.875-3.392c.378-.217.608-.614.608-1.05V8.603c0-.436-.23-.832-.608-1.05L12.601 4.16a1.2 1.2 0 0 0-.608-.16z"/><path fill="#213147" d="m8.109 17.946.544-1.485 1.088.902-1.018.935z"/><path fill="#fff" d="M11.5 8.122h-1.49a.27.27 0 0 0-.25.172L6.566 17.05l1.543.89 3.52-9.646a.132.132 0 0 0-.122-.179zm2.612 0h-1.491a.27.27 0 0 0-.25.172l-3.648 9.997 1.543.89 3.968-10.887a.132.132 0 0 0-.122-.179z"/></g><defs><clipPath id="a"><path fill="#fff" d="M0 0h24v24H0z"/></clipPath></defs></svg>