<svg xmlns="http://www.w3.org/2000/svg" fill="none" viewBox="0 0 24 24"><path fill="#210784" d="M5.565 10.841 4.43 13.285l-1.187 2.55q.67.556 1.407 1.021a13.5 13.5 0 0 0 3.161 1.458l1.147-2.462 1.076-2.315c-1.733-.362-3.468-1.407-4.468-2.696"/><path fill="#26069c" d="m19.625 15.545-2.403-4.95a8.7 8.7 0 0 1-1.832 1.695 7.9 7.9 0 0 1-2.542 1.169l2.296 4.718a13.3 13.3 0 0 0 3.169-1.612q.687-.47 1.312-1.02"/><path fill="#2404aa" d="M4.645 16.854q-.736-.465-1.407-1.021l-1.2 2.58a2.59 2.59 0 0 0 .103 2.389c.222.393.547.72.939.944a2.6 2.6 0 0 0 1.605.34 2.65 2.65 0 0 0 2.083-1.541l1.038-2.232a13.5 13.5 0 0 1-3.161-1.459"/><path fill="#f99" d="M23.548 6.192a2.6 2.6 0 0 0-2.168-1.136 2.6 2.6 0 0 0-2.523 2.114 7.8 7.8 0 0 1-1.631 3.426l2.403 4.95c2.175-1.914 3.772-4.513 4.324-7.409a2.57 2.57 0 0 0-.405-1.945"/><path fill="#ff5060" d="m20.922 18.212-1.292-2.67-2.403-4.95-3.513-7.234a2.595 2.595 0 0 0-4.686.04l-3.466 7.44c.999 1.289 2.738 2.34 4.467 2.695l1.128-2.424a.303.303 0 0 1 .547-.005l1.148 2.355 2.296 4.718 1.137 2.343a2.61 2.61 0 0 0 2.356 1.462 2.6 2.6 0 0 0 2.513-2.041 2.66 2.66 0 0 0-.232-1.729"/><path fill="#0034fe" d="M12.85 13.458a6.6 6.6 0 0 1-1.56.203q-.637 0-1.258-.13c-1.73-.36-3.465-1.406-4.463-2.694a4.6 4.6 0 0 1-.592-.983 2.59 2.59 0 0 0-3.621-1.341C.168 9.13-.32 10.689.216 11.919c.621 1.436 1.67 2.786 3.029 3.915q.67.558 1.407 1.021a13.5 13.5 0 0 0 3.161 1.46c1.14.357 2.329.538 3.524.534a11.9 11.9 0 0 0 3.804-.673z"/></svg>