<svg xmlns="http://www.w3.org/2000/svg" fill="none" viewBox="0 0 24 24"><g clip-path="url(#a)"><path fill="#A71435" d="M12 24c6.627 0 12-5.373 12-12S18.627 0 12 0 0 5.373 0 12s5.373 12 12 12Z"/><path fill="#fff" d="M8.896 5.728a7.001 7.001 0 0 1 8.643 1.987 6.985 6.985 0 0 1-.253 8.858c-.349-.759-.616-1.555-.915-2.338l-1.805-4.726c-.174-.479-.467-.94-.921-1.188a3.563 3.563 0 0 0-2.048-.318c-.56.063-1.145.256-1.525.697-.361.417-.523.952-.728 1.456L8.043 13.45c-.436 1.045-.803 2.127-1.276 3.165a6.453 6.453 0 0 1-1.462-2.58A6.99 6.99 0 0 1 8.902 5.72l-.006.006Z"/><path fill="#fff" d="M11.497 10.491c.125-.373.623-.498.946-.286.174.13.237.355.318.554.809 2.114 1.606 4.24 2.409 6.362.105.304.26.596.323.913-.05.054-.11.1-.174.137a7.02 7.02 0 0 1-5.763.386c-.35-.143-.71-.268-1.015-.485.031-.286.174-.541.28-.803.896-2.257 1.774-4.52 2.676-6.778Z"/></g><defs><clipPath id="a"><path fill="#fff" d="M0 0h24v24H0z"/></clipPath></defs></svg>