<svg xmlns="http://www.w3.org/2000/svg" fill="none" viewBox="0 0 24 24"><g clip-path="url(#a)"><path fill="#0092B5" d="M12 24c6.627 0 12-5.373 12-12S18.627 0 12 0 0 5.373 0 12s5.373 12 12 12Z"/><path fill="#fff" d="m9.244 10.441 2.783-4.9c.005-.009.016-.014.052 0l2.648 4.811a.634.634 0 0 0 .016.996l-2.446 4.412a.656.656 0 0 0-.559-.004l-2.517-4.484a.631.631 0 0 0 .022-.83Zm-.267.997 2.527 4.502a.632.632 0 0 0-.117.231 997.78 997.78 0 0 0-3.803-.907 6.206 6.206 0 0 1-.549-.935l1.62-2.851c.109.014.22 0 .322-.039Zm-.35-1.224L6.62 6.64c1.368-.726 3.065-1.107 5.093-1.139l-2.705 4.762a.656.656 0 0 0-.381-.048Zm-.273.115a.636.636 0 0 0 .022 1.045l-1.488 2.62a6.152 6.152 0 0 1-.436-1.92l-.3-4.799a.578.578 0 0 1 .215-.486l1.987 3.54Zm4.29 5.848a.633.633 0 0 0-.114-.23l2.482-4.477a.662.662 0 0 0 .322-.015l1.608 2.92a6.162 6.162 0 0 1-.47.81l-3.828.992Zm-.482.78a.646.646 0 0 0 .486-.48l3.546-.92a6.277 6.277 0 0 1-1.518 1.36l-2.355 1.504a.593.593 0 0 1-.159.072v-1.535Zm-.295 0V18.5a.595.595 0 0 1-.188-.079l-2.355-1.504a6.283 6.283 0 0 1-1.46-1.288c.643.153 1.815.432 3.516.84a.645.645 0 0 0 .487.49v-.001Zm3.49-6.717a.658.658 0 0 0-.366-.018l-2.598-4.72c1.97.043 3.627.42 4.967 1.128l-2.002 3.61Zm.25.157 2.008-3.622a.579.579 0 0 1 .234.5l-.3 4.8a6.151 6.151 0 0 1-.456 1.965l-1.504-2.732a.633.633 0 0 0 .018-.91ZM12 8.577a.358.358 0 0 0-.352.347v1.27L9.772 11.35l.201.434 1.675-.55v1.271l-.47.346v.347l.822-.232.82.231v-.346l-.469-.347v-1.27l1.647.579.23-.463-1.877-1.156v-1.27a.357.357 0 0 0-.35-.346H12Z"/></g><defs><clipPath id="a"><path fill="#fff" d="M0 0h24v24H0z"/></clipPath></defs></svg>