<svg xmlns="http://www.w3.org/2000/svg" fill="none" viewBox="0 0 24 24"><g clip-path="url(#a)"><path fill="#436697" d="M12 24c6.627 0 12-5.373 12-12S18.627 0 12 0 0 5.373 0 12s5.373 12 12 12Z"/><path fill="#fff" fill-rule="evenodd" d="M13.96 15.013a.166.166 0 0 1-.087-.03.18.18 0 0 1-.058-.057h-.005l-1.416 2.486c.759-.167 1.516-.335 2.273-.504.679-.15 1.357-.302 2.037-.451a1.469 1.469 0 0 1-.092-.127 1.47 1.47 0 0 1-.093-.16l-.022-.041a3.575 3.575 0 0 1-.103-.208v-.005c0-.006-.007-.012-.007-.012a6.806 6.806 0 0 1-.19-.443l-.017-.043c-.009-.023-.017-.044-.028-.066-.088-.217-.17-.435-.248-.656a35.512 35.512 0 0 0-.598.12 17.82 17.82 0 0 1-.61.122c-.066.013-.13.023-.19.032a4.46 4.46 0 0 0-.12.019c-.014.004-.03.005-.046.007l-.04.005s-.07.012-.162.017a.803.803 0 0 1-.18-.006h.002Zm1.323-2.199a3.283 3.283 0 0 1-.075-.334l-1.082 1.9.007-.007a10.26 10.26 0 0 1 .652-.184l.066-.017.317-.08.483-.12-.066-.195c-.043-.128-.088-.26-.13-.393a7.641 7.641 0 0 1-.172-.57Zm1.668-3.366h-.023l-1.397 2.457.008.002a.093.093 0 0 0 .026.004c.006 0 .006 0 .011.006.006 0 .006 0 .012.005.003 0 .005.002.006.004l.005.002c.006 0 .006 0 .012.006.017.009.032.02.045.034a.69.69 0 0 1 .038.041.212.212 0 0 0 .01.011l.005.009.006.008a.5.5 0 0 1 .034.058l.046.08c.069.133.138.288.207.473l.01.026c.067.176.137.363.203.56l.023.067.023.066.08.234.07.209.226-.044c.16-.03.317-.061.47-.088a7.44 7.44 0 0 1 .61-.087c.184-.018.34-.029.472-.023a.828.828 0 0 1 .204.02l.02.003a55.83 55.83 0 0 1-.131-.372c-.07-.201-.145-.414-.226-.635l-1.104-3.136Zm1.318 4.655c-.159.059-.32.11-.483.155l-.044.013c-.019.005-.038.01-.054.017-.014.002-.029.007-.043.011a2.334 2.334 0 0 1-.423.103h-.006c-.138.035-.322.075-.535.122.046.16.104.339.172.54l.03.093c.053.169.106.333.149.488l.023.084c.007.027.014.055.023.083.03.086.052.173.07.277l.005.025.006.026a.622.622 0 0 1 .023.213s.241-.046.362-.075a7.002 7.002 0 0 0 1.1-2.042l-.052-.153-.052-.153c-.052.07-.139.122-.27.173Zm-7.567-8.919h.023a.17.17 0 0 1 .087.035l.015.01a.62.62 0 0 1 .111.088c.104.091.22.201.351.333.127.127.26.265.397.415l.05.055c.113.122.218.235.313.33.052-.052.103-.11.156-.172l.018-.021c.057-.063.114-.125.171-.192l.053-.059a2.24 2.24 0 0 1 .143-.149 5.04 5.04 0 0 1 .19-.195l.091-.092.051-.048.048-.045.015-.014c.052-.045.099-.087.146-.123.11-.092.19-.133.253-.133.023 0 .046.006.069.012l-.063-.075-.168-.035c-.005 0-.011 0-.017-.006a1.399 1.399 0 0 0-.153-.022h-.013a1.77 1.77 0 0 1-.08-.012l-.081-.012h-.007a7.378 7.378 0 0 0-.88-.057h-.161c-.026 0-.051.002-.076.003a.773.773 0 0 1-.068.003h-.017c-.052 0-.098.005-.15.011h-.006a6.85 6.85 0 0 0-.776.098.608.608 0 0 0-.05.057l-.013.018c.005 0 .01-.001.014-.003a.039.039 0 0 1 .014-.003ZM6.755 8.458l.015-.012a.378.378 0 0 1 .106-.068.573.573 0 0 1 .213-.052.508.508 0 0 1 .193.029.894.894 0 0 0 .02.006l1.452-1.632 1.292-1.453-.224.07a7.175 7.175 0 0 0-1.9.966 7.272 7.272 0 0 0-1.754 1.813l.302.171c.095.055.19.11.285.162Zm-.15.685a.533.533 0 0 1-.063-.253v-.04s.006-.03.006-.04l-.593-.334A6.959 6.959 0 0 0 5 11.732v.484c.017.54.092 1.065.225 1.565.252-.733.506-1.464.76-2.195l.782-2.253a.578.578 0 0 1-.161-.19Zm6.986-3.596a.427.427 0 0 1-.057.115c-.039.071-.081.14-.127.207-.029.04-.057.086-.086.132a6.051 6.051 0 0 1-.309.416 2.63 2.63 0 0 1-.051.068 8.54 8.54 0 0 1-.25.299l-.042.049a5.36 5.36 0 0 1-.149.17l.092.101c.061.068.126.139.19.215a.993.993 0 0 1 .099.115c.069.075.132.15.195.225l.184.218c.115.144.213.27.294.385a.715.715 0 0 1 .115.237v.023a.243.243 0 0 1-.08.167h2.75a.543.543 0 0 1 .07-.127l-2.815-3.16v.012a.33.33 0 0 1-.023.133Zm1.651.253a.19.19 0 0 1-.008-.005.038.038 0 0 0-.02-.007 2.979 2.979 0 0 0-.237-.115.092.092 0 0 1-.04-.023 8.927 8.927 0 0 0-.23-.103l-.017-.007-.028-.01a3.304 3.304 0 0 0-.254-.099l-.017-.005-.017-.006c-.084-.034-.174-.062-.264-.09l-.007-.002.892 1.002c.596.67 1.191 1.34 1.79 2.008a.102.102 0 0 0 .02-.003.101.101 0 0 1 .02-.004h.12l.026.005c.03.006.07.013.119.03.006 0 .011.006.017.012a.03.03 0 0 0 .012.006.627.627 0 0 1 .132.086c.003 0 .004.001.006.003 0 .001.002.003.005.003.012.007.021.018.03.028l.01.012.212-.12c.12-.068.237-.134.353-.202a7.095 7.095 0 0 0-2.371-2.25h-.006c-.06-.039-.124-.074-.185-.11l-.063-.034Zm-2.157 2.808a1.034 1.034 0 0 1-.04-.035l-.04-.034-.18-.161-.091-.093a5.074 5.074 0 0 1-.294-.31 7.792 7.792 0 0 1-.1-.113l-.095-.106a3.53 3.53 0 0 0-.13-.142l-.066-.07a25.69 25.69 0 0 0-.54.57c-.018.016-.035.035-.053.054-.017.018-.034.037-.052.054l-.011.012c-.036.036-.07.07-.1.103l-.084.087-.08.08c-.07.068-.143.131-.22.19h2.273a.064.064 0 0 0-.012-.009c-.004-.003-.008-.005-.01-.008-.015-.018-.032-.032-.048-.046a.453.453 0 0 1-.027-.023Zm-5.455.08h2.843a.23.23 0 0 1-.018-.02l-.017-.02a.092.092 0 0 1-.018-.03.166.166 0 0 0-.006-.01c-.011-.029-.023-.058-.023-.086 0-.012.003-.027.007-.044l.005-.025c0-.004.002-.007.003-.01a.011.011 0 0 0 .003-.008l.003-.007c.005-.01.01-.025.02-.039a.825.825 0 0 1 .08-.127 7.753 7.753 0 0 1 .673-.822c.021-.02.04-.043.06-.065.018-.021.036-.042.056-.062l.022-.025c.08-.09.157-.179.226-.262l.002-.003c.005-.005.009-.01.009-.015-.21-.243-.415-.49-.616-.742a6.039 6.039 0 0 1-.092-.125l-.069-.094a4.145 4.145 0 0 1-.236-.374l-.034-.069-.013-.029a.268.268 0 0 0-.016-.034l-.005-.018a.315.315 0 0 1-.018-.086l-2.855 3.2a.252.252 0 0 0 .012.024.22.22 0 0 1 .012.028Zm4.626 10.306a6.975 6.975 0 0 0 4.834-2.198h-.001c-1.611.357-3.222.714-4.833 1.065v1.133Zm6.664-5.961.005-.032a.319.319 0 0 1 .006-.032c.003-.029.007-.056.012-.083l.011-.083v-.006l.017-.179.003-.025a.154.154 0 0 0 .003-.026c0-.017.002-.033.003-.05a7.8 7.8 0 0 0 .02-.55 6.999 6.999 0 0 0-.702-3.02l-.017-.034a1.173 1.173 0 0 0-.038-.075 1.228 1.228 0 0 1-.037-.075l-.034-.069a3.419 3.419 0 0 0-.087-.161l-.316.179-.317.178c0 .017 0 .034-.006.051-.004.029-.01.054-.014.077l-.003.016-.009.023a.597.597 0 0 1-.072.144l-.014.017a.154.154 0 0 1-.014.017l.606 1.747.002.005.893 2.575c.026-.107.047-.218.068-.326l.008-.042c0-.005 0-.01.002-.016a1.974 1.974 0 0 0 .02-.145ZM16.53 9.32a.552.552 0 0 1-.167-.23H7.63a.636.636 0 0 1-.127.196l4.523 7.958 4.506-7.924Zm-4.862 5.11a.143.143 0 0 1 .246-.102.145.145 0 0 1 .042.102v.003a.142.142 0 0 1-.144.147l-.039-.006a.143.143 0 0 1-.105-.141v-.003Zm-1.15-1.536a.143.143 0 0 1 .224.12c0 .08-.063.144-.143.144a.142.142 0 0 1-.144-.145l.005-.038.005-.015c.01-.027.03-.05.053-.066Zm1.856-2.768c.074-.078.244-.194.532-.087l.656.237.31.108a.326.326 0 0 0 .328-.046l.334-.224s.179-.144.368-.046c.003 0 .006.001.01.007l-.004-.001.005.002-.002-.001c.002 0 .003.002.004.004a.038.038 0 0 0 .005.006c.034.207-.155.34-.155.34l-.311.247a.346.346 0 0 0-.144.274v.025l.046 1.03c.023.432-.305.506-.31.506-.006 0-.006 0-.012-.005-.004 0-.005-.002-.006-.006 0 0-.006-.005-.006-.012a88.85 88.85 0 0 0-.188-1.159l-.001-.009-.007-.028v-.002a.263.263 0 0 0-.026-.075.076.076 0 0 0-.019-.015c-.046-.025-.109.011-.158.04a1.329 1.329 0 0 1-.02.01l-.04.026c-.223.143-.442.292-.657.447a.599.599 0 0 0-.07.058.205.205 0 0 0-.048.077c-.001.003-.003.006-.003.01-.012.022-.023.045-.012.155 0 .028 0 .08-.023.132a.089.089 0 0 1-.034.046.064.064 0 0 1-.007.005c-.005.005-.012.01-.016.018a.098.098 0 0 1-.026.017l-.02.012h-.017l-.003-.005h-.003c-.006-.007-.006-.012-.006-.018v-.07a.436.436 0 0 0-.017-.12.332.332 0 0 0-.029-.08l-.046-.064-.052-.075a.6.6 0 0 0-.107-.112l.011.008-.021-.016-.01-.007.01.007a.666.666 0 0 0-.112-.058.084.084 0 0 0-.04-.012c-.012-.005-.018-.005-.03-.005l-.008-.004-.002-.005c-.004-.003-.01-.003-.019-.003 0-.006 0-.011.006-.017a.262.262 0 0 1 .037-.032l-.006.005.01-.008-.004.003a.233.233 0 0 0 .01-.008l.014-.009a.128.128 0 0 1 .014-.009l.058-.017a.285.285 0 0 1 .132.017c.097.04.12.04.15.04h.017a.187.187 0 0 0 .08-.022.207.207 0 0 0 .07-.046c.482-.376.57-.448.636-.503l.025-.021.03-.027.024-.024c.029-.03.05-.065.044-.099-.005-.034-.043-.056-.064-.069a.186.186 0 0 1-.011-.006l-.017-.011a81.368 81.368 0 0 0-1.065-.535l-.006-.005c-.003-.002-.005-.003-.005-.007-.004 0-.003-.002-.002-.005l.002-.006a.243.243 0 0 1 .043-.057l.006-.006Zm-2.16.3a.144.144 0 0 1 .204 0 .144.144 0 0 1 .043.102v.003a.142.142 0 0 1-.145.147l-.038-.005a.143.143 0 0 1-.105-.142v-.003a.14.14 0 0 1 .042-.101Zm1.088-.719a.144.144 0 0 1 .246.102v.003a.142.142 0 0 1-.144.146l-.038-.005a.143.143 0 0 1-.106-.141V9.81c0-.038.015-.075.042-.102Zm-2.582-.03a.144.144 0 0 1 .2.133v.003a.142.142 0 0 1-.145.146l-.038-.005a.143.143 0 0 1-.105-.141V9.81a.144.144 0 0 1 .088-.133Zm-1.723 6.112a7.03 7.03 0 0 0-.086.357.83.83 0 0 0-.024.218 18.364 18.364 0 0 1-.443-.098 6.982 6.982 0 0 1-1.013-1.823c.026-.07.05-.141.074-.212l.076-.22a.54.54 0 0 0 .087.052 1.235 1.235 0 0 0 .164.068.669.669 0 0 0 .066.024c.09.033.192.062.303.094l.07.02c.191.053.383.101.576.144.12.025.237.053.345.078l.19.044a.966.966 0 0 0-.04.12l-.061.19-.026.08c-.008.033-.019.066-.03.1l-.015.045c-.07.201-.127.397-.179.58l-.034.139Zm-1.122-2.216a.942.942 0 0 0-.15.013v-.001l1.422-4.09 1.363 2.433c-.03 0-.06.008-.086.023a.175.175 0 0 0-.04.029.764.764 0 0 0-.133.207 3.96 3.96 0 0 0-.103.219 12.53 12.53 0 0 0-.317.834c-.069.207-.132.397-.195.575-.213-.046-.421-.083-.625-.12l-.066-.012a6.96 6.96 0 0 0-.604-.086 4.836 4.836 0 0 0-.466-.024Zm3.397 1.356c.025.004.05.008.072.014l.065.01c.026.005.052.01.08.013.121.022.244.039.367.052.15.012.248.006.3-.023a.12.12 0 0 0 .034-.023l.023-.023 1.433 2.457-4.304-.95a.547.547 0 0 0 .086-.12 5.91 5.91 0 0 0 .466-.978 5.37 5.37 0 0 0 .127-.322c.046-.116.086-.225.127-.34.184.034.38.075.592.12l.155.035c.102.023.203.044.306.063.023.006.047.01.071.015ZM8.77 12.78c.013-.051.026-.1.035-.145.009-.057.022-.113.04-.167l1.094 1.922a2.395 2.395 0 0 1-.047-.016c-.04-.014-.083-.03-.132-.041a3.967 3.967 0 0 0-.248-.07 1.065 1.065 0 0 0-.143-.04l-.081-.018a.292.292 0 0 0-.068-.02l-.013-.002a1.928 1.928 0 0 0-.099-.026 2.943 2.943 0 0 1-.079-.02 2.451 2.451 0 0 1-.155-.036 15.025 15.025 0 0 1-.477-.12 4.87 4.87 0 0 0 .053-.157c.014-.043.028-.087.044-.13.03-.1.062-.2.097-.3.046-.132.083-.26.12-.383l.013-.048.035-.139.01-.043Zm-.293 5.264a6.848 6.848 0 0 1-.369-.224v-.001a7.644 7.644 0 0 1-1.231-1.047l2.483.547 2.483.547V19a7.021 7.021 0 0 1-2.095-.368c-.098-.035-.184-.07-.27-.104a7.477 7.477 0 0 1-1.001-.483Z" clip-rule="evenodd"/></g><defs><clipPath id="a"><path fill="#fff" d="M0 0h24v24H0z"/></clipPath></defs></svg>