<svg xmlns="http://www.w3.org/2000/svg" fill="none" viewBox="0 0 24 24"><path fill="#62757E" fill-rule="evenodd" d="M18.423 10.09a.833.833 0 0 1-1.178-1.18l1.945-1.945H6.15c-.037 0-.078-.015-.117-.02A.8.8 0 0 1 5.767 7c-1.158 0-2.1.936-2.1 2.084s.942 2.084 2.1 2.084c.022 0 .04.01.062.011.02-.001.039-.011.06-.011h12.222c.03 0 .055.013.085.017.028-.004.054-.017.084-.017 2.052 0 3.72 1.682 3.72 3.749 0 2.069-1.668 3.75-3.72 3.75-.03 0-.056-.014-.084-.017-.03.003-.055.018-.085.018H4.845l1.911 1.91a.834.834 0 0 1-1.178 1.179l-3.334-3.334a.84.84 0 0 1-.244-.59v-.001q.001-.163.065-.316a.8.8 0 0 1 .18-.272l3.333-3.333a.834.834 0 0 1 1.178 1.179L4.846 17H18.11c.03 0 .055.015.085.018.028-.003.054-.017.084-.017 1.132 0 2.053-.935 2.053-2.084s-.92-2.083-2.053-2.083c-.03 0-.056-.014-.084-.017-.03.003-.055.017-.085.017H5.889c-.021 0-.04-.01-.06-.013-.022.002-.04.013-.062.013C3.69 12.833 2 11.151 2 9.083s1.69-3.75 3.767-3.75c.022 0 .04.01.062.012.02-.002.039-.012.06-.012h13.266l-1.91-1.911a.832.832 0 1 1 1.177-1.178l3.334 3.333a.84.84 0 0 1 .244.588v.001c0 .286-.117.512-.306.652z" clip-rule="evenodd"/></svg>