<svg xmlns="http://www.w3.org/2000/svg" fill="none" viewBox="0 0 24 24"><path fill="#62757E" d="M6.122 7.144a.75.75 0 1 0 0 1.5h5a.75.75 0 0 0 0-1.5zm-.75 3.671a.75.75 0 0 1 .75-.75h10a.75.75 0 0 1 0 1.5h-10a.75.75 0 0 1-.75-.75m.75 2.333a.75.75 0 0 0 0 1.5h10a.75.75 0 0 0 0-1.5z"/><path fill="#62757E" fill-rule="evenodd" d="M17 2c.856 0 1.662.215 2.366.594a4.445 4.445 0 0 1 2.63 4.199Q22 6.895 22 7v10a5 5 0 0 1-5 5H7a5 5 0 0 1-5-5V7a5 5 0 0 1 5-5zm0 1.75h-.281a1 1 0 0 0-.719.96v2.667h3.778a.72.72 0 0 0 .472-.176V7A3.25 3.25 0 0 0 17 3.75m2.778 5.127q.243-.001.472-.05V17A3.25 3.25 0 0 1 17 20.25H7A3.25 3.25 0 0 1 3.75 17V7A3.25 3.25 0 0 1 7 3.75h7.69c-.122.296-.19.62-.19.96v2.917c0 .69.56 1.25 1.25 1.25z" clip-rule="evenodd"/></svg>