<svg xmlns="http://www.w3.org/2000/svg" fill="none" viewBox="0 0 24 24"><path stroke="#222326" stroke-width="2" d="M12.245 21.49a9.245 9.245 0 1 0 0-18.49 9.245 9.245 0 0 0 0 18.49Z"/><path fill="#222326" d="M13.717 15.484c-.063-.063-.063-.188-.126-.314 0-.126-.063-.252-.063-.377-.126.125-.251.188-.377.314s-.315.189-.44.252c-.189.062-.315.125-.566.188-.189.063-.44.063-.63.063-.377 0-.691-.063-1.006-.189a3.4 3.4 0 0 1-.817-.44c-.252-.188-.378-.44-.503-.692A2 2 0 0 1 9 13.41c0-.755.314-1.384.88-1.761.566-.44 1.447-.63 2.58-.63h1.068v-.44c0-.377-.126-.628-.314-.817-.252-.189-.566-.314-1.007-.314-.377 0-.628.062-.817.251a.8.8 0 0 0-.252.629H9.252c0-.314.062-.629.188-.88a2.2 2.2 0 0 1 .63-.755c.25-.189.565-.378.943-.503a4.2 4.2 0 0 1 1.32-.19c.44 0 .818.063 1.195.189.378.125.692.251 1.007.503.251.188.503.503.629.817.125.315.251.692.251 1.133v3.144c0 .378 0 .692.063.944.063.251.126.503.189.628v.126zm-1.824-1.32c.189 0 .377 0 .503-.063.189-.063.315-.126.44-.189.126-.063.252-.126.315-.252l.252-.251V12.15h-.944c-.314 0-.566 0-.755.063-.188.063-.377.126-.503.251-.126.126-.251.19-.314.378-.063.126-.063.314-.063.44 0 .252.063.44.252.629.188.189.503.252.817.252"/></svg>