<svg xmlns="http://www.w3.org/2000/svg" fill="none" viewBox="0 0 24 24"><g clip-path="url(#a)"><path fill="#343434" d="M12 24c6.627 0 12-5.373 12-12S18.627 0 12 0 0 5.373 0 12s5.373 12 12 12Z"/><path fill="#fff" d="M17.718 15.69a.613.613 0 0 0 .412-.62v.794a.657.657 0 0 1-.43.62l-5.48 1.975a.582.582 0 0 1-.43 0l-5.481-1.973a.65.65 0 0 1-.43-.622v-.794c0 .274.17.53.43.621l5.498 1.973a.582.582 0 0 0 .43 0l5.48-1.974Zm0-1.406a.626.626 0 0 0 .412-.622v.795a.657.657 0 0 1-.43.621l-5.48 1.974a.582.582 0 0 1-.43 0l-5.481-1.973a.65.65 0 0 1-.43-.621v-.804c0 .283.17.53.43.63l5.498 1.973a.582.582 0 0 0 .43 0l5.48-1.973Zm0-1.416a.635.635 0 0 0 .42-.612v.794a.657.657 0 0 1-.43.621l-5.48 1.974a.582.582 0 0 1-.43 0l-5.49-1.982a.65.65 0 0 1-.429-.622v-.794c0 .274.17.53.43.621l5.498 1.973a.581.581 0 0 0 .43 0l5.48-1.973ZM5.86 8.145a.65.65 0 0 1 .43-.621l5.49-1.983a.582.582 0 0 1 .43 0l5.49 1.983a.65.65 0 0 1 .43.62v3.49a.657.657 0 0 1-.43.622l-5.498 1.973a.582.582 0 0 1-.43 0L6.29 12.256a.65.65 0 0 1-.43-.622v-3.49Z"/></g><defs><clipPath id="a"><path fill="#fff" d="M0 0h24v24H0z"/></clipPath></defs></svg>