<svg xmlns="http://www.w3.org/2000/svg" fill="none" viewBox="0 0 24 24"><g clip-path="url(#a)"><path fill="#343434" d="M12 24c6.627 0 12-5.373 12-12S18.627 0 12 0 0 5.373 0 12s5.373 12 12 12"/><path fill="#fff" d="M17.718 15.69a.61.61 0 0 0 .411-.62v.794a.66.66 0 0 1-.43.62l-5.48 1.975a.58.58 0 0 1-.43 0l-5.48-1.973a.65.65 0 0 1-.43-.622v-.794c0 .274.17.53.43.621l5.498 1.973a.58.58 0 0 0 .43 0zm0-1.406a.63.63 0 0 0 .411-.622v.795a.66.66 0 0 1-.43.621l-5.48 1.974a.58.58 0 0 1-.43 0l-5.48-1.973a.65.65 0 0 1-.43-.621v-.804c0 .283.17.53.43.63l5.498 1.973a.58.58 0 0 0 .43 0zm0-1.416a.635.635 0 0 0 .42-.612v.794a.66.66 0 0 1-.43.621l-5.48 1.974a.58.58 0 0 1-.43 0l-5.49-1.982a.65.65 0 0 1-.429-.622v-.794c0 .274.17.53.43.621l5.498 1.973a.58.58 0 0 0 .43 0zM5.86 8.145a.65.65 0 0 1 .43-.621l5.49-1.983a.58.58 0 0 1 .429 0l5.49 1.983a.65.65 0 0 1 .43.62v3.49a.66.66 0 0 1-.43.622L12.2 14.229a.58.58 0 0 1-.43 0l-5.48-1.973a.65.65 0 0 1-.43-.622z"/></g><defs><clipPath id="a"><path fill="#fff" d="M0 0h24v24H0z"/></clipPath></defs></svg>