<svg xmlns="http://www.w3.org/2000/svg" fill="none" viewBox="0 0 24 24"><path fill="#62757E" fill-rule="evenodd" d="M19 5.7H5A1.3 1.3 0 0 0 3.7 7v10A1.3 1.3 0 0 0 5 18.3h14a1.3 1.3 0 0 0 1.3-1.3V7A1.3 1.3 0 0 0 19 5.7M5 4a3 3 0 0 0-3 3v10a3 3 0 0 0 3 3h14a3 3 0 0 0 3-3V7a3 3 0 0 0-3-3zm1.133 3.3h2.5a.834.834 0 0 1 0 1.667H6.967v1.666a.834.834 0 0 1-1.667 0v-2.5c0-.46.373-.833.833-.833m9.25 7.7h1.667v-1.667a.834.834 0 0 1 1.667 0v2.5c0 .46-.374.834-.834.834h-2.5a.834.834 0 0 1 0-1.667" clip-rule="evenodd"/></svg>