<svg xmlns="http://www.w3.org/2000/svg" fill="none" viewBox="0 0 24 24"><path fill="#62757E" fill-rule="evenodd" d="M20.34 20H3.66A1.66 1.66 0 0 1 2 18.342V6.659A1.66 1.66 0 0 1 3.66 5h16.68c.916 0 1.66.744 1.66 1.66v11.682A1.66 1.66 0 0 1 20.34 20Zm-.007-13.34L3.66 6.666l.008 11.675 16.666-.009V6.66Zm.008 11.673v.834-.834ZM5.333 7.5h2.5a.834.834 0 0 1 0 1.667H6.167v1.666a.834.834 0 0 1-1.667 0v-2.5c0-.46.373-.833.833-.833Zm10.834 8.333h1.666v-1.666a.834.834 0 0 1 1.667 0v2.5c0 .46-.373.833-.833.833h-2.5a.834.834 0 0 1 0-1.667Z" clip-rule="evenodd"/></svg>