<svg xmlns="http://www.w3.org/2000/svg" fill="none" viewBox="0 0 24 24"><path fill="#62757E" fill-rule="evenodd" d="M3.538 12a8.461 8.461 0 1 0 16.923 0 8.461 8.461 0 0 0-16.923 0M12 22C6.477 22 2 17.523 2 12S6.477 2 12 2s10 4.477 10 10-4.477 10-10 10m0-16a.8.8 0 0 0-.8.8v3.814L7.897 8.707a.8.8 0 0 0-.8 1.386L10.4 12l-3.303 1.907a.8.8 0 1 0 .8 1.386l3.303-1.907V17.2a.8.8 0 1 0 1.6 0v-3.814l3.303 1.907a.8.8 0 0 0 .8-1.386L13.6 12l3.303-1.907a.8.8 0 1 0-.8-1.386L12.8 10.614V6.8A.8.8 0 0 0 12 6" clip-rule="evenodd"/></svg>