<svg xmlns="http://www.w3.org/2000/svg" fill="none" viewBox="0 0 24 24"><path fill="#62757E" fill-rule="evenodd" d="M17.763 6.237a8.15 8.15 0 1 0 0 11.526.85.85 0 0 1 1.202 1.202 9.85 9.85 0 0 1-13.93 0 9.85 9.85 0 0 1 0-13.93 9.85 9.85 0 0 1 13.93 0A9.822 9.822 0 0 1 21.85 12c0 .995-.301 1.928-.83 2.631-.527.704-1.321 1.219-2.27 1.219-.889 0-1.642-.452-2.168-1.087a5.35 5.35 0 1 1-.92-6.662.85.85 0 0 1 1.688.149V12c0 .662.202 1.23.489 1.611.286.382.617.539.91.539.295 0 .626-.157.912-.539.287-.382.489-.949.489-1.611a8.122 8.122 0 0 0-2.387-5.763ZM15.65 12a3.65 3.65 0 1 0-7.3 0 3.65 3.65 0 0 0 7.3 0Z" clip-rule="evenodd"/></svg>