<svg xmlns="http://www.w3.org/2000/svg" fill="none" viewBox="0 0 24 24"><g clip-path="url(#a)"><path fill="#346FCE" d="M12 24c6.627 0 12-5.372 12-12 0-6.627-5.373-12-12-12S0 5.373 0 12c0 6.628 5.373 12 12 12"/><path fill="#fff" fill-rule="evenodd" d="m14.622 13.835.596 1.12a2.725 2.725 0 0 1-1.127 3.685l-.077.041a2.725 2.725 0 0 1-3.685-1.126l-2.01-3.78a2.725 2.725 0 0 1 .993-3.61l-.596-1.12A2.725 2.725 0 0 1 9.843 5.36l.077-.041a2.725 2.725 0 0 1 3.684 1.126l2.01 3.78a2.724 2.724 0 0 1-.992 3.61m0 0-1.414-2.66a2.725 2.725 0 0 0-3.685-1.126l-.077.04-.134.076 1.414 2.66a2.725 2.725 0 0 0 3.685 1.126l.077-.04z" clip-rule="evenodd"/></g><defs><clipPath id="a"><path fill="#fff" d="M0 0h24v24H0z"/></clipPath></defs></svg>