<svg xmlns="http://www.w3.org/2000/svg" fill="none" viewBox="0 0 24 24"><g clip-path="url(#a)"><path fill="#346FCE" d="M12 24c6.627 0 12-5.373 12-12S18.627 0 12 0 0 5.373 0 12s5.373 12 12 12Z"/><path fill="#fff" fill-rule="evenodd" d="m14.621 13.835.597 1.12a2.725 2.725 0 0 1-1.127 3.685l-.077.04a2.723 2.723 0 0 1-3.685-1.125l-2.01-3.78a2.724 2.724 0 0 1 .993-3.61l-.596-1.12A2.725 2.725 0 0 1 9.843 5.36l.077-.041a2.725 2.725 0 0 1 3.684 1.126l2.01 3.78a2.725 2.725 0 0 1-.992 3.61Zm0 0-1.413-2.66a2.725 2.725 0 0 0-3.685-1.127l-.077.041a4.03 4.03 0 0 0-.134.076l1.414 2.66a2.725 2.725 0 0 0 3.685 1.126l.077-.04.134-.076Z" clip-rule="evenodd"/></g><defs><clipPath id="a"><path fill="#fff" d="M0 0h24v24H0z"/></clipPath></defs></svg>