<svg xmlns="http://www.w3.org/2000/svg" fill="none" viewBox="0 0 24 24"><path fill="#62757E" fill-rule="evenodd" d="M20.556 8.667h-.223a.833.833 0 1 1 0-1.667V3.667H3.667V7a.833.833 0 1 1 0 1.667h-.223C2.648 8.667 2 8.043 2 7.277V3.389C2 2.623 2.648 2 3.444 2h17.112C21.352 2 22 2.623 22 3.388v3.89c0 .765-.648 1.389-1.444 1.389M6.166 5.333h11.667c.461 0 .834.374.834.834v15c0 .46-.373.833-.834.833H6.167a.833.833 0 0 1-.834-.833v-15c0-.46.373-.834.834-.834m.834 15h10V7H7zm5-7.5c1.402 0 2.5.915 2.5 2.084 0 .93-.7 1.69-1.69 1.966.006.04.023.075.023.117v.833a.833.833 0 1 1-1.666 0V17h-.834a.833.833 0 1 1 0-1.667H12c.517 0 .833-.27.833-.416 0-.147-.316-.417-.833-.417-1.402 0-2.5-.915-2.5-2.083 0-.93.7-1.69 1.69-1.966-.006-.04-.023-.076-.023-.118V9.5a.833.833 0 1 1 1.666 0v.833h.834a.833.833 0 1 1 0 1.667H12c-.517 0-.833.27-.833.417s.316.416.833.416" clip-rule="evenodd"/></svg>