<svg xmlns="http://www.w3.org/2000/svg" fill="none" viewBox="0 0 24 24"><g clip-path="url(#a)"><path fill="#2E3148" d="M12 24c6.627 0 12-5.372 12-12 0-6.627-5.373-12-12-12S0 5.373 0 12c0 6.628 5.373 12 12 12"/><path fill="#fff" d="M12 4.5c-.926 0-1.677 3.358-1.677 7.5s.751 7.5 1.677 7.5c.925 0 1.676-3.358 1.676-7.5S12.925 4.5 12 4.5m.116 14.576c-.106.142-.213.036-.213.036-.426-.495-.639-1.412-.639-1.412-.746-2.4-.568-7.553-.568-7.553.35-4.09.988-5.057 1.204-5.272a.13.13 0 0 1 .17-.013c.315.224.58 1.156.58 1.156.78 2.894.708 5.611.708 5.611.071 2.365-.39 5.012-.39 5.012-.355 2.012-.852 2.435-.852 2.435"/><path fill="#fff" d="M18.505 8.268c-.462-.804-3.747.217-7.341 2.278s-6.13 4.383-5.67 5.186c.461.804 3.747-.216 7.342-2.278s6.13-4.383 5.67-5.186zM5.919 15.62c-.176-.021-.136-.167-.136-.167.216-.615.905-1.257.905-1.257 1.711-1.84 6.27-4.251 6.27-4.251 3.722-1.732 4.878-1.659 5.171-1.579a.13.13 0 0 1 .097.142c-.036.384-.715 1.077-.715 1.077-2.12 2.117-4.513 3.41-4.513 3.41-2.016 1.238-4.542 2.153-4.542 2.153-1.922.693-2.537.472-2.537.472"/><path fill="#fff" d="M18.488 15.759c.465-.801-2.064-3.134-5.647-5.211-3.582-2.076-6.866-3.109-7.33-2.306s2.064 3.133 5.648 5.21 6.865 3.109 7.329 2.307M5.818 8.55c-.069-.163.077-.202.077-.202.64-.122 1.542.155 1.542.155 2.45.558 6.82 3.295 6.82 3.295 3.363 2.353 3.88 3.39 3.956 3.684a.13.13 0 0 1-.073.154c-.35.161-1.29-.079-1.29-.079a22 22 0 0 1-5.212-2.198c-2.08-1.123-4.138-2.85-4.138-2.85-1.564-1.316-1.68-1.958-1.68-1.958z"/><path fill="#fff" d="M11.982 12.864a.882.882 0 1 0 0-1.764.882.882 0 0 0 0 1.764M15.6 9.309a.715.715 0 1 0 0-1.43.715.715 0 0 0 0 1.43M7.2 11.11a.715.715 0 1 0 0-1.43.715.715 0 0 0 0 1.43m3.741 6.493a.715.715 0 1 0 0-1.43.715.715 0 0 0 0 1.43"/></g><defs><clipPath id="a"><path fill="#fff" d="M0 0h24v24H0z"/></clipPath></defs></svg>