<svg xmlns="http://www.w3.org/2000/svg" fill="none" viewBox="0 0 24 24"><path fill="#62757e" d="M18.05 17.5a5.555 5.555 0 0 1-6.095 5.53c-1.98-.188-3.598-1.467-4.42-3.185l1.188-1.188a3.94 3.94 0 0 0 4.162 2.773c2.052-.197 3.565-2.033 3.565-4.1v-6.4l1.6-1.599zM6.95 5A4.05 4.05 0 0 1 11.395.97c2.108.203 3.655 2.087 3.655 4.2v2.373L19.195 3.4a.85.85 0 0 1 1.202 1.2l-16 16a.85.85 0 1 1-1.202-1.202l3.755-3.756zm8.1 10.5a2.55 2.55 0 0 1-2.814 2.54c-.756-.076-1.39-.501-1.797-1.098l1.155-1.156a.955.955 0 0 0 .906.664c.522 0 .95-.428.95-.95v-1.57l1.6-1.599zM10.745 2.56c-1.27.127-2.195 1.292-2.195 2.58v8.903l1.4-1.4V6.75c0-.437.363-.8.8-.8s.8.363.8.8v4.293l1.9-1.9V5a2.45 2.45 0 0 0-2.705-2.44"/></svg>