<svg xmlns="http://www.w3.org/2000/svg" fill="none" viewBox="0 0 24 24"><path fill="#62757E" fill-rule="evenodd" d="m21.756 11.756-5 4.999a.833.833 0 0 1-1.179 0 .82.82 0 0 1-.084-1.053l-2.967-3.051-9.104 9.105a.834.834 0 1 1-1.178-1.179l9.12-9.122-2.946-3.03a.832.832 0 0 1-1.174-1.183l5-4.998a.833.833 0 0 1 1.179 0 .82.82 0 0 1 .085 1.05l7.073 7.28a.833.833 0 0 1 1.175 1.182m-9.406-7.26-2.753 2.75 7.053 7.257 2.752-2.75zm2.15 15.837h6.666a.834.834 0 0 1 0 1.667H14.5a.833.833 0 1 1 0-1.667" clip-rule="evenodd"/></svg>