<svg xmlns="http://www.w3.org/2000/svg" fill="none" viewBox="0 0 24 24"><g clip-path="url(#a)"><path fill="#001B69" d="M24 12A12 12 0 1 1 .001 12 12 12 0 0 1 24 12"/><path fill="#fff" fill-rule="evenodd" d="M18.845 14.75c.106-.251.158-.522.155-.796a2 2 0 0 0-.15-.781 1.7 1.7 0 0 0-.425-.596 2.8 2.8 0 0 0-.698-.471 9 9 0 0 0-.954-.402V9.052q.453.038.888.17.4.113.778.282l.407-.91a5 5 0 0 0-.937-.327 6 6 0 0 0-1.136-.163V7h-.849v1.13a3.3 3.3 0 0 0-.885.229c-.25.1-.48.243-.68.424a1.8 1.8 0 0 0-.58 1.374c-.005.276.039.55.13.81.088.23.225.44.4.615.197.19.422.348.666.47q.463.231.954.395v2.73q-.304-.001-.604-.05a7 7 0 0 1-1.173-.321 10 10 0 0 1-.469-.212v1.08q.22.115.456.187.274.086.556.14.297.063.612.087.315.025.622.025V17.5h.849v-1.444a3.8 3.8 0 0 0 .926-.245 2.3 2.3 0 0 0 .697-.439c.19-.172.343-.384.444-.621m-.994-1.172c.043.12.064.248.063.376a1.08 1.08 0 0 1-.288.765q-.273.307-.848.395v-2.35q.274.094.53.232.195.102.346.264c.09.089.157.198.197.318m-2.938-3a1.6 1.6 0 0 1-.05-.409c-.01-.26.081-.514.254-.708q.26-.285.808-.383v2.315a3 3 0 0 1-.506-.226 1.3 1.3 0 0 1-.326-.263 1 1 0 0 1-.18-.327m-4.388 3.332.988 2.843h1.172L9.365 7.54h-1.05L5 16.753h1.16l1-2.843zm-1.283-3.696.919 2.66H7.533l.895-2.66c.025-.071.055-.156.087-.264q.017-.06.038-.122.035-.107.068-.23.05-.194.106-.401t.1-.402l.043.163q.03.12.063.239l.005.018a16 16 0 0 0 .155.533l.057.189z" clip-rule="evenodd"/></g><defs><clipPath id="a"><path fill="#fff" d="M0 0h24v24H0z"/></clipPath></defs></svg>