<svg xmlns="http://www.w3.org/2000/svg" fill="none" viewBox="0 0 24 24"><path fill="currentColor" fill-rule="evenodd" d="M13.18 4.232c1.127.478 1.666 1.59 1.968 2.677.304 1.097.431 2.417.55 3.646l.005.046c.124 1.283.241 2.467.503 3.413.268.966.622 1.44 1.038 1.615a1.09 1.09 0 0 0 .992.002c.457-.196.793-.797.98-1.671.162-.762.156-1.473.155-1.63v-.022a.814.814 0 0 1 1.628 0 8.964 8.964 0 0 1-.015.648c-.02.36-.068.838-.176 1.344-.198.932-.672 2.275-1.91 2.818a2.718 2.718 0 0 1-2.31.001c-1.116-.482-1.651-1.588-1.951-2.67-.304-1.097-.432-2.417-.55-3.646l-.005-.046c-.125-1.283-.242-2.467-.504-3.413-.268-.966-.622-1.44-1.038-1.615l-.014-.006a1.304 1.304 0 0 0-.647-.086c-.103.01-.186.028-.235.043h-.003a.812.812 0 0 1-.127.061c-.586.22-1.082.905-1.457 2.23-.364 1.285-.542 2.907-.706 4.598l-.043.45c-.145 1.512-.293 3.058-.585 4.307-.161.688-.378 1.344-.697 1.878-.323.54-.787 1.013-1.45 1.212a.814.814 0 0 1-.11.025l-.021.006c-.057.015-.154.04-.273.056a1.826 1.826 0 0 1-.915-.098c-.884-.288-1.372-1.104-1.652-1.862-.296-.799-.449-1.766-.527-2.696-.159-1.869-.032-3.796.009-4.408a.814.814 0 1 1 1.625.108c-.041.61-.159 2.428-.012 4.163.074.872.211 1.67.432 2.268.234.631.48.832.635.88a.782.782 0 0 1 .063.022c.038.015.07.017.112.011a.789.789 0 0 0 .088-.02l.009-.001.074-.02.035-.007c.142-.055.305-.182.48-.474.195-.327.365-.798.509-1.415.265-1.134.403-2.568.552-4.114l.041-.428c.162-1.667.35-3.435.76-4.884.39-1.377 1.054-2.739 2.365-3.277.048-.028.088-.045.106-.053l.002-.001a2 2 0 0 1 .22-.08 2.95 2.95 0 0 1 .534-.101c.396-.04.931-.019 1.463.216Z" clip-rule="evenodd"/></svg>