<svg xmlns="http://www.w3.org/2000/svg" fill="none" viewBox="0 0 24 24"><path fill="#62757E" fill-rule="evenodd" d="m20.513 20.3-8.35 1.683a.83.83 0 0 1-.668-.159c-.053.005-.103.027-.158.027q-.157 0-.318-.032L3.487 20.3C2.653 20.132 2 19.33 2 18.473V3.53c0-.473.198-.908.545-1.194a1.52 1.52 0 0 1 1.268-.305l7.534 1.518c.16.032.306.106.45.181.014-.003.025-.014.04-.016l8.349-1.682c.462-.093.923.018 1.269.304.347.286.545.721.545 1.194v14.943c0 .856-.653 1.66-1.487 1.827m-.18-16.586L12.807 5.23c.004.05.026.097.026.146v1.512c0 .464-.373.84-.833.84a.837.837 0 0 1-.833-.84V5.376c0-.06-.089-.17-.148-.18L3.667 3.713v14.76c0 .06.088.168.147.18l7.353 1.482v-2.334c0-.463.373-.839.833-.839s.833.375.833.839v2.334l7.353-1.482c.059-.012.147-.12.147-.18zm-4.618 9.282L9.882 16.03a.83.83 0 0 1-.815-.03.84.84 0 0 1-.4-.717V9.407a.83.83 0 0 1 1.197-.756l5.832 2.843a.842.842 0 0 1 .019 1.502m-5.382-2.25v3.16l3.137-1.632z" clip-rule="evenodd"/></svg>