<svg xmlns="http://www.w3.org/2000/svg" fill="none" viewBox="0 0 24 24"><g clip-path="url(#a)"><path fill="#34318A" d="M12 24c6.627 0 12-5.373 12-12S18.627 0 12 0 0 5.373 0 12s5.373 12 12 12Z"/><path fill="#fff" d="m8.128 10.39 2.126 1.13 1.13-.566-2.702-1.463V6.913l5.194 2.697 1.13-.565-6.652-3.488a.497.497 0 0 0-.729.441V9.57a.926.926 0 0 0 .503.82Zm8.1-.6a.497.497 0 0 0-.566-.09l-7.534 3.91a.926.926 0 0 0-.503.826v3.566a.497.497 0 0 0 .73.44l7.516-3.899a.932.932 0 0 0 .503-.842v-3.56a.493.493 0 0 0-.147-.351Zm-.905 3.849-6.64 3.448v-2.578l6.64-3.447v2.577Z"/></g><defs><clipPath id="a"><path fill="#fff" d="M0 0h24v24H0z"/></clipPath></defs></svg>