<svg xmlns="http://www.w3.org/2000/svg" fill="none" viewBox="0 0 24 24"><g clip-path="url(#a)"><path fill="#34318A" d="M12 24c6.627 0 12-5.373 12-12S18.627 0 12 0 0 5.373 0 12s5.373 12 12 12"/><path fill="#fff" d="m8.128 10.39 2.125 1.13 1.13-.566-2.701-1.463V6.913l5.194 2.697 1.13-.565-6.652-3.488a.497.497 0 0 0-.729.441V9.57a.93.93 0 0 0 .503.82m8.099-.6a.5.5 0 0 0-.565-.09l-7.534 3.91a.93.93 0 0 0-.503.826v3.566a.497.497 0 0 0 .729.44l7.517-3.899a.93.93 0 0 0 .503-.842v-3.56a.5.5 0 0 0-.147-.351m-.905 3.849-6.64 3.448v-2.578l6.64-3.447z"/></g><defs><clipPath id="a"><path fill="#fff" d="M0 0h24v24H0z"/></clipPath></defs></svg>