<svg xmlns="http://www.w3.org/2000/svg" fill="none" viewBox="0 0 24 24"><g clip-path="url(#a)"><path fill="#70D44B" d="M12 24c6.627 0 12-5.373 12-12S18.627 0 12 0 0 5.373 0 12s5.373 12 12 12"/><path fill="#fff" d="M12 5.917a1.33 1.33 0 0 1 1.192.736l3.75 7.5a1.333 1.333 0 0 1-1.192 1.93h-7.5a1.333 1.333 0 0 1-1.192-1.93l3.75-7.5A1.33 1.33 0 0 1 12 5.917M12 5a2.25 2.25 0 0 0-2.012 1.243l-3.75 7.5A2.25 2.25 0 0 0 8.25 17h7.5a2.25 2.25 0 0 0 2.012-3.257l-3.75-7.5A2.25 2.25 0 0 0 12 5"/></g><defs><clipPath id="a"><path fill="#fff" d="M0 0h24v24H0z"/></clipPath></defs></svg>