<svg xmlns="http://www.w3.org/2000/svg" fill="none" viewBox="0 0 24 24"><path fill="#62757E" fill-rule="evenodd" d="M12.165 3.702a8 8 0 0 0-.819.023l-.131-1.695a10 10 0 0 1 1.57 0 9.95 9.95 0 0 1 5.548 2.23l.862-.861A.85.85 0 1 1 20.396 4.6l-16 16a.85.85 0 1 1-1.202-1.202l1.066-1.066q-.43-.526-.788-1.107l1.449-.89q.252.41.549.788l4.03-4.03V8.826a1 1 0 0 1 1.559-.829l2.113 1.423 3.952-3.951a8.26 8.26 0 0 0-4.96-1.768m7.147 4.367 1.246-1.245A9.95 9.95 0 0 1 22 12c0 5.259-4.059 9.57-9.215 9.97a10 10 0 0 1-1.57 0l.131-1.695a8 8 0 0 0 .906.021 8.3 8.3 0 0 0 7.06-12.227m-3.314 3.314-3.957 3.957 3.728-2.51a1 1 0 0 0 .23-1.447M9.665 2.274l.395 1.654q-.64.152-1.237.401l-.65-1.57q.719-.3 1.492-.485m-2.89 1.198.889 1.449a8 8 0 0 0-1.054.767L5.505 4.396q.598-.51 1.27-.924m-2.38 2.033L5.689 6.61q-.424.496-.767 1.054l-1.449-.89q.413-.671.924-1.269M2.76 8.172l1.57.651q-.248.598-.401 1.237l-1.654-.395a10 10 0 0 1 .485-1.493m-.729 3.043a10 10 0 0 0 0 1.57l1.695-.131a8.4 8.4 0 0 1 0-1.308zm.244 3.12 1.654-.395q.152.64.401 1.237l-1.57.65a10 10 0 0 1-.485-1.492m5.898 6.906.651-1.57q.598.248 1.237.402l-.395 1.653a10 10 0 0 1-1.493-.485" clip-rule="evenodd"/></svg>