<svg xmlns="http://www.w3.org/2000/svg" fill="none" viewBox="0 0 24 24"><g clip-path="url(#a)"><path fill="#FAB431" d="M12 24c6.627 0 12-5.373 12-12S18.627 0 12 0 0 5.373 0 12s5.373 12 12 12"/><path fill="#fff" fill-rule="evenodd" d="m18 14.306-2.954-1.772.339-1.404 1.261.744V9.311l-4.052-2.416v5.577l-.963.533 5.32 3.155L12 19.059l-6-3.514V8.518l6-3.577 6 3.577zM7.354 9.311v4.572l3.895-2.258V6.988zm2.892 4.478L8.03 15.143 12 17.467l2.241-1.313z" clip-rule="evenodd"/></g><defs><clipPath id="a"><path fill="#fff" d="M0 0h24v24H0z"/></clipPath></defs></svg>