<svg xmlns="http://www.w3.org/2000/svg" fill="none" viewBox="0 0 24 24"><path fill="#62757E" fill-rule="evenodd" d="M12.165 3.702a8.44 8.44 0 0 0-.819.023l-.131-1.695a10.137 10.137 0 0 1 1.57 0C17.941 2.43 22 6.741 22 12s-4.059 9.57-9.215 9.97a10.157 10.157 0 0 1-1.57 0l.131-1.695a8.406 8.406 0 0 0 .906.021 8.3 8.3 0 0 0-.087-16.594Zm-2.5-1.428.395 1.654c-.426.101-.84.236-1.237.401l-.65-1.57c.479-.2.977-.362 1.492-.485Zm-2.89 1.198.889 1.449a8.332 8.332 0 0 0-1.054.767L5.505 4.396c.398-.34.822-.649 1.27-.924Zm-2.38 2.033L5.689 6.61c-.282.33-.539.683-.767 1.054l-1.449-.89c.275-.447.584-.871.924-1.269ZM2.76 8.172l1.57.651c-.165.398-.3.811-.401 1.237l-1.654-.395a9.923 9.923 0 0 1 .485-1.493Zm-.729 3.043a10.137 10.137 0 0 0 0 1.57l1.695-.131a8.44 8.44 0 0 1 0-1.308l-1.695-.131Zm.244 3.12 1.654-.395c.101.426.236.839.401 1.237l-1.57.65a9.924 9.924 0 0 1-.485-1.492Zm1.198 2.89 1.449-.889c.228.371.485.724.767 1.054l-1.292 1.105c-.34-.398-.649-.822-.924-1.27Zm2.033 2.38 1.105-1.293c.33.282.683.539 1.054.767l-.89 1.449a10.025 10.025 0 0 1-1.269-.924Zm2.667 1.636.651-1.57c.398.165.811.3 1.237.402l-.395 1.653a9.93 9.93 0 0 1-1.493-.485Zm7.597-10.07a1 1 0 0 1 0 1.658l-4.71 3.173a1 1 0 0 1-1.559-.83V8.828a1 1 0 0 1 1.559-.829l4.71 3.173Z" clip-rule="evenodd"/></svg>