<svg xmlns="http://www.w3.org/2000/svg" fill="none" viewBox="0 0 24 24"><path fill="#62757E" fill-rule="evenodd" d="M12.165 3.702a8.44 8.44 0 0 0-.819.023l-.131-1.695a10.137 10.137 0 0 1 1.57 0 9.954 9.954 0 0 1 5.548 2.23l.862-.861A.85.85 0 1 1 20.396 4.6l-16 16a.85.85 0 1 1-1.202-1.202l1.066-1.066c-.286-.35-.55-.72-.788-1.107l1.449-.89c.168.273.351.536.549.788l4.03-4.03V8.826a1 1 0 0 1 1.559-.829l2.113 1.423 3.952-3.951a8.262 8.262 0 0 0-4.96-1.768Zm7.147 4.367 1.246-1.245A9.954 9.954 0 0 1 22 12c0 5.259-4.059 9.57-9.215 9.97a10.157 10.157 0 0 1-1.57 0l.131-1.695a8.406 8.406 0 0 0 .906.021 8.3 8.3 0 0 0 7.06-12.227Zm-3.314 3.314-3.957 3.957 3.728-2.51a1.001 1.001 0 0 0 .23-1.447ZM9.665 2.274l.395 1.654c-.426.101-.84.236-1.237.401l-.65-1.57c.479-.2.977-.362 1.492-.485Zm-2.89 1.198.889 1.449a8.332 8.332 0 0 0-1.054.767L5.505 4.396c.398-.34.822-.649 1.27-.924Zm-2.38 2.033L5.689 6.61c-.282.33-.539.683-.767 1.054l-1.449-.89c.275-.447.584-.871.924-1.269ZM2.76 8.172l1.57.651c-.165.398-.3.811-.401 1.237l-1.654-.395a9.923 9.923 0 0 1 .485-1.493Zm-.729 3.043a10.137 10.137 0 0 0 0 1.57l1.695-.131a8.44 8.44 0 0 1 0-1.308l-1.695-.131Zm.244 3.12 1.654-.395c.101.426.236.839.401 1.237l-1.57.65a9.924 9.924 0 0 1-.485-1.492Zm5.898 6.906.651-1.57c.398.165.811.3 1.237.402l-.395 1.653a9.93 9.93 0 0 1-1.493-.485Z" clip-rule="evenodd"/></svg>