<svg xmlns="http://www.w3.org/2000/svg" fill="none" viewBox="0 0 24 24"><path fill="#62757E" fill-rule="evenodd" d="M12.165 3.702a8 8 0 0 0-.819.023l-.131-1.695a10 10 0 0 1 1.57 0C17.941 2.43 22 6.741 22 12s-4.059 9.57-9.215 9.97a10 10 0 0 1-1.57 0l.131-1.695a8 8 0 0 0 .906.021 8.3 8.3 0 0 0-.087-16.594m-2.5-1.428.395 1.654q-.64.152-1.237.401l-.65-1.57q.719-.3 1.492-.485m-2.89 1.198.889 1.449a8 8 0 0 0-1.054.767L5.505 4.396q.598-.51 1.27-.924m-2.38 2.033L5.689 6.61q-.424.496-.767 1.054l-1.449-.89q.413-.671.924-1.269M2.76 8.172l1.57.651q-.248.598-.401 1.237l-1.654-.395a10 10 0 0 1 .485-1.493m-.729 3.043a10 10 0 0 0 0 1.57l1.695-.131a8.4 8.4 0 0 1 0-1.308zm.244 3.12 1.654-.395q.152.64.401 1.237l-1.57.65a10 10 0 0 1-.485-1.492m1.198 2.89 1.449-.889q.343.558.767 1.054l-1.292 1.105q-.51-.597-.924-1.27m2.033 2.38 1.105-1.293q.496.424 1.054.767l-.89 1.449a10 10 0 0 1-1.269-.924m2.667 1.636.651-1.57q.598.248 1.237.402l-.395 1.653a10 10 0 0 1-1.493-.485m7.597-10.07a1 1 0 0 1 0 1.658l-4.71 3.173a1 1 0 0 1-1.559-.83V8.828a1 1 0 0 1 1.559-.829z" clip-rule="evenodd"/></svg>