<svg xmlns="http://www.w3.org/2000/svg" fill="none" viewBox="0 0 24 24"><g clip-path="url(#a)"><path fill="#3355B5" d="M12 24c6.627 0 12-5.373 12-12S18.627 0 12 0 0 5.373 0 12s5.373 12 12 12"/><path fill="#fff" fill-rule="evenodd" d="M12 5a7 7 0 1 0 0 14 7 7 0 0 0 0-14m0 13.866a6.866 6.866 0 1 1 0-13.732 6.866 6.866 0 0 1 0 13.732m1.92-8.324-.018-.065-.018-.064-.017-.07-.024-.058-.017-.064-.024-.059-.029-.064-.023-.058-.03-.052-.028-.059-.03-.052-.035-.053-.029-.046-.035-.053-.035-.04-.04-.047-.035-.041-.035-.041-.041-.035-.041-.035-.041-.035-.04-.03-.048-.028-.04-.024-.047-.029-.04-.017-.047-.024-.047-.017-.047-.018-.052-.011-.047-.012-.047-.012-.052-.006-.053-.005-.046-.006h-.158l-.052.006-.053.005-.058.006-.053.012-.052.012-.053.011-.058.018-.053.017-.058.018-.058.023-.053.023-.058.03-.052.023-.059.029-.058.035-.053.03-.058.034-.058.041-.053.035-.058.04-.058.048-.059.04-.052.047-.059.047-.052.052-.059.053-.058.052-.052.058-.059.059-.052.058-.053.059-.058.064-.053.064-.052.064-.053.07-.052.07-.052.076-.07.099-.07.105-.07.11-.065.106-.064.117-.064.11-.058.111-.059.117-.052.117-.053.116-.046.117-.041.093 4.194-1.37zm-3.787 2.047 3.716-.029.018-.082.017-.081.018-.082.017-.088.012-.081.017-.082.012-.082.006-.081.011-.082.006-.082.006-.075.006-.082.006-.082v-.169zM5.327 12a6.673 6.673 0 1 1 13.346 0 6.673 6.673 0 0 1-13.346 0m10.336 1.225.117-.688-1.02.017v-.076l.04-.175.035-.175.03-.175v-.95l.746-.245-.199-.695-.583.187V9.218l-.03-.088-.034-.087-.035-.082-.035-.082-.035-.081-.04-.076-.042-.076-.04-.07-.047-.07-.047-.064-.047-.064-.046-.065-.053-.058-.052-.058-.053-.053-.052-.052-.059-.047-.058-.047-.058-.04-.059-.041-.064-.035-.064-.035-.064-.03-.064-.029h-1.406l-.082.03-.081.035-.082.035-.105.029-.076.064-.087.047-.088.046-.087.053-.088.052-.087.059-.088.064-.087.064-.088.064-.087.07-.065.064-.081.076-.082.076-.082.076-.081.081-.082.082-.082.082-.075.087-.076.088-.076.087-.1.082-.075.093-.07.094-.07.099-.064.11-.07.1-.07.099-.064.105-.065.11-.064.106-.064.105-.064.11-.058.111-.059.111-.058.111-.058.11-.053.112-.052.116-.053.117-.052.117-.047.116-.047.117-.046.117-.047.116-.04.117-.06.11-.04.123v.076l-.98.321.198.694.117-.04h.315v1.831l1.085-.752v-1.08l4.24-.035v.07l-.028.082-.035.082-.035.081-.035.082-.035.082-.035.081-.041.082-.041.082-.04.081-.042.082-.04.076-.047.076-.047.075-.047.076-.046.076-.047.076-.052.076-.053.076.543.91.052-.076.053-.076.116-.152.1-.157.093-.158.093-.157.088-.163.087-.164.082-.169.081-.17.076-.168.053-.175.07-.175.064-.175.064-.175.035-.117z" clip-rule="evenodd"/></g><defs><clipPath id="a"><path fill="#fff" d="M0 0h24v24H0z"/></clipPath></defs></svg>