<svg xmlns="http://www.w3.org/2000/svg" fill="none" viewBox="0 0 24 24"><g clip-path="url(#a)"><path fill="#F19F13" d="M12 24c6.627 0 12-5.373 12-12S18.627 0 12 0 0 5.373 0 12s5.373 12 12 12Z"/><path fill="#fff" d="M16.231 11.14h3.044l.225-1.25h-2.944a2.988 2.988 0 0 0-1.619.538c-.175-.625-1.874-.537-1.874-.537l.224-1.25h-.662L12.4 9.89h-.694l.194-1.25h-.719l-.262 1.25h-.744l-.381 1.95-.507-1.913H7.625L4.5 14.522h2.575l.263-1.219h-.526l1.5-2.194.563 2.207h-.563l-.243 1.206H9.98l-.156.837h.75l.175-.837h.625l-.156.837H12l.156-.837h.975a1.874 1.874 0 0 0 1.169-.594 2 2 0 0 0 1.375.594h2.944l.194-1.219h-2.644c-1.819-.031-1.044-2.175.062-2.162Zm-3.306 2.132h-1.95l.156-.594h1.875c.475.031.319.594-.081.594Zm.294-1.6h-1.95l.156-.594H13.3c.475.031.3.619-.081.619v-.025Z"/></g><defs><clipPath id="a"><path fill="#fff" d="M0 0h24v24H0z"/></clipPath></defs></svg>