<svg xmlns="http://www.w3.org/2000/svg" fill="none" viewBox="0 0 24 24"><path fill="#62757E" fill-rule="evenodd" d="M20.5 13.223c0 4.84-3.925 8.777-8.75 8.777S3 18.063 3 13.223a.832.832 0 1 1 1.661 0c0 3.92 3.18 7.11 7.09 7.11 3.908 0 7.088-3.19 7.088-7.11 0-3.884-3.172-7.043-7.071-7.043h-.11l1.06 1.064a.834.834 0 0 1-.587 1.423.83.83 0 0 1-.587-.245l-2.492-2.5a.834.834 0 0 1 0-1.178l2.492-2.5a.83.83 0 0 1 1.175 0 .834.834 0 0 1 0 1.179l-1.088 1.09h.137c4.815 0 8.732 3.907 8.732 8.71" clip-rule="evenodd"/></svg>