<svg xmlns="http://www.w3.org/2000/svg" fill="none" viewBox="0 0 24 24"><g clip-path="url(#a)"><path fill="#1E1E1E" d="M12 24c6.627 0 12-5.373 12-12S18.627 0 12 0 0 5.373 0 12s5.373 12 12 12"/><path fill="#fff" d="M12 16.893c-3.59 0-6.5-1.037-6.5-2.426 0-.726.792-1.379 2.06-1.84.991.636 2.653.962 4.536.962 1.84 0 3.465-.398 4.464-1.006 1.197.455 1.94 1.09 1.94 1.791 0 1.392-2.91 2.52-6.5 2.52"/><path fill="#fff" d="M12.038 13.277c-2.722 0-4.928-.854-4.928-1.907 0-.583.68-1.106 1.747-1.455.76.398 1.901.651 3.181.651s2.42-.253 3.182-.65c1.068.35 1.746.87 1.746 1.454.002 1.053-2.205 1.907-4.928 1.907"/><path fill="#fff" d="M12.02 10.25c-2.103 0-3.81-.705-3.81-1.572 0-.866 1.707-1.571 3.81-1.571 2.104 0 3.81.705 3.81 1.571 0 .867-1.706 1.571-3.81 1.571"/></g><defs><clipPath id="a"><path fill="#fff" d="M0 0h24v24H0z"/></clipPath></defs></svg>