<svg xmlns="http://www.w3.org/2000/svg" fill="none" viewBox="0 0 24 24"><path fill="#62757E" fill-rule="evenodd" d="M21.167 16.723a.833.833 0 0 1-.834-.835V6.667H5.278a.833.833 0 1 1 0-1.667h15.889c.46 0 .833.373.833.833v10.055a.833.833 0 0 1-.833.835m-1.612-8.39v10c0 .46-.372.834-.833.834H2.833A.833.833 0 0 1 2 18.333v-10c0-.46.373-.833.833-.833h15.889c.46 0 .833.373.833.833m-1.667.834H3.667V17.5h14.221zM5.333 15h.834a.833.833 0 1 1 0 1.667h-.834a.833.833 0 1 1 0-1.667m5.4-4.99c1.618 0 2.934 1.492 2.934 3.323 0 1.821-1.354 3.36-2.956 3.36-1.587 0-2.878-1.507-2.878-3.36 0-1.831 1.301-3.323 2.9-3.323m-.022 5.016c.61 0 1.289-.695 1.289-1.693 0-.897-.58-1.655-1.267-1.655-.68 0-1.233.742-1.233 1.655 0 .918.554 1.693 1.21 1.693M15.333 10h.834a.833.833 0 1 1 0 1.667h-.834a.833.833 0 1 1 0-1.667" clip-rule="evenodd"/></svg>