<svg xmlns="http://www.w3.org/2000/svg" fill="none" viewBox="0 0 24 24"><path fill="#62757E" fill-rule="evenodd" d="M21.167 21.5H2.833A.833.833 0 0 1 2 20.667V9.833c0-.46.373-.833.833-.833h18.334c.46 0 .833.373.833.833v10.834c0 .46-.372.833-.833.833m-.834-10.833H3.667v9.166h16.666zm-15 6.666h.834a.833.833 0 1 1 0 1.667h-.834a.833.833 0 1 1 0-1.667m6.695-5.888c1.823 0 3.305 1.692 3.305 3.77 0 2.08-1.482 3.773-3.305 3.773-1.822 0-3.306-1.692-3.306-3.772s1.484-3.771 3.306-3.771m0 5.876c.904 0 1.639-.944 1.639-2.105 0-1.16-.735-2.104-1.639-2.104s-1.64.944-1.64 2.104.736 2.105 1.64 2.105m5.805-5.821h.834a.833.833 0 1 1 0 1.667h-.834a.833.833 0 1 1 0-1.667M19.5 8.167h-15a.833.833 0 1 1 0-1.667h15a.833.833 0 1 1 0 1.667m-1.667-2.5H6.167a.833.833 0 1 1 0-1.667h11.666a.833.833 0 1 1 0 1.667" clip-rule="evenodd"/></svg>