<svg xmlns="http://www.w3.org/2000/svg" fill="none" viewBox="0 0 24 24"><path fill="currentColor" fill-rule="evenodd" d="M21.167 11.166h-2.513v6.667h2.497c.46 0 .833.374.833.834v2.5c0 .46-.373.833-.833.833H2.833A.833.833 0 0 1 2 21.167v-2.5c0-.46.373-.834.833-.834h2.498v-6.667H2.833a.834.834 0 0 1-.527-1.478l9.173-7.5a.832.832 0 0 1 1.054 0l9.053 7.425a.833.833 0 0 1-.419 1.554Zm-8.343 6.667h4.164v-6.667h-4.163v6.667Zm-9.158 2.5h16.653V19.5H3.666v.834Zm7.493-2.5v-6.667H6.972v6.667h4.187Zm.845-13.923L5.17 9.5h13.653l-6.818-5.59Z" clip-rule="evenodd"/></svg>