<svg xmlns="http://www.w3.org/2000/svg" fill="none" viewBox="0 0 24 24"><path fill="#22E6AA" fill-rule="evenodd" d="m12.731 8.492 2.747 1.805-1.912 1.334-1.556-1.015-6.882 4.522 6.882 4.52 6.882-4.52-2.171-1.427 1.969-1.305 2.493 1.625a1.314 1.314 0 0 1 .004 2.2l-8.456 5.553a1.31 1.31 0 0 1-1.443 0l-8.445-5.548a1.314 1.314 0 0 1 0-2.197l8.445-5.547a1.31 1.31 0 0 1 1.443 0m.017-6.276 8.446 5.548a1.314 1.314 0 0 1 0 2.197l-8.445 5.547a1.31 1.31 0 0 1-1.444 0L8.56 13.703l1.912-1.334 1.556 1.015 6.882-4.522-6.882-4.52-6.883 4.52 2.172 1.427-1.97 1.305-2.492-1.625a1.314 1.314 0 0 1-.004-2.2l8.455-5.553a1.31 1.31 0 0 1 1.443 0" clip-rule="evenodd"/></svg>