<svg xmlns="http://www.w3.org/2000/svg" fill="none" viewBox="0 0 24 24"><path fill="#62757E" fill-rule="evenodd" d="M20.333 22h-4.166a.833.833 0 0 1-.834-.833V2.833c0-.46.373-.833.834-.833h4.166c.461 0 .834.373.834.833v18.334c0 .46-.373.833-.834.833M19.5 3.667H17v16.666h2.5zM13.667 22H9.5a.833.833 0 0 1-.833-.833v-8.334c0-.46.372-.833.833-.833h4.167c.46 0 .833.373.833.833v8.334c0 .46-.373.833-.833.833m-.834-8.333h-2.5v6.666h2.5zM7 22H2.833A.833.833 0 0 1 2 21.167v-12.5c0-.46.373-.834.833-.834H7c.46 0 .833.374.833.834v12.5c0 .46-.372.833-.833.833M6.167 9.5h-2.5v10.833h2.5z" clip-rule="evenodd"/></svg>