<svg xmlns="http://www.w3.org/2000/svg" fill="none" viewBox="0 0 24 24"><path fill="#62757E" fill-rule="evenodd" d="M21.756 15.071a.833.833 0 0 1-1.179 0l-3.712-3.707a4.9 4.9 0 0 1-2.365.622c-2.757 0-5-2.24-5-4.993A5 5 0 0 1 14.5 2c2.757 0 5 2.24 5 4.993a4.96 4.96 0 0 1-1.31 3.34l3.566 3.561a.83.83 0 0 1 0 1.177M14.5 3.664a3.334 3.334 0 0 0-3.333 3.329 3.334 3.334 0 0 0 6.666 0A3.334 3.334 0 0 0 14.5 3.664m-.833 9.987c.46 0 .833.372.833.832v6.657c0 .46-.373.832-.833.832H9.5a.833.833 0 0 1-.834-.832v-6.657c0-.46.374-.832.834-.832zm-3.333 6.657 2.565.027v-5l-2.565-.02zM7 21.973H2.833A.833.833 0 0 1 2 21.14V9.49c0-.46.373-.833.833-.833H7c.46 0 .833.372.833.832V21.14c0 .46-.373.832-.833.832m-.793-11.637-2.54-.014v9.987l2.54.026zm9.96 6.644h4.166c.461 0 .833.372.833.831v3.357c0 .46-.372.832-.833.832h-4.166a.833.833 0 0 1-.834-.832V17.81c0-.459.373-.831.834-.831M17 20.335h2.59V18.67L17 18.644z" clip-rule="evenodd"/></svg>