<svg xmlns="http://www.w3.org/2000/svg" fill="none" viewBox="0 0 24 24"><path fill="#62757E" fill-rule="evenodd" d="M21.01 22h-2.479c-.457 0-.695-.353-.695-.813V11.149c0-.46.238-1.648.696-1.648h2.479c.457 0 .989.352.989.812v10.874c0 .46-.532.813-.99.813m-.676-10.85h-.832v9.2h.832zm1.504-8.316v3.333A.83.83 0 0 1 21.01 7a.83.83 0 0 1-.826-.833V4.845l-5.202 5.244a.82.82 0 0 1-1.1.062l-3.556-2.867-6.916 6.972a.82.82 0 0 1-1.169 0 .837.837 0 0 1 0-1.178l7.44-7.5a.82.82 0 0 1 1.1-.061l3.555 2.866 4.678-4.716h-1.31a.83.83 0 0 1-.827-.833c0-.46.37-.834.826-.834h3.307q.009.001.017.004a.82.82 0 0 1 .745.511q.065.154.065.319M3.653 16.167h2.48A.83.83 0 0 1 6.96 17v4.167a.83.83 0 0 1-.826.833h-2.48a.83.83 0 0 1-.826-.833V17a.83.83 0 0 1 .826-.834m.827 4.167h.826v-2.5H4.48zM8.612 12h2.48a.83.83 0 0 1 .826.833v8.333a.83.83 0 0 1-.826.833h-2.48c-.456 0-.77-.353-.77-.813v-8.365c0-.46.314-.821.77-.821m.827 8.333h.826v-6.667H9.44zm4.132-6.667h2.48c.458 0 .952.368.952.828v6.692c0 .46-.494.813-.951.813h-2.48c-.457 0-.733-.353-.733-.813v-6.692c0-.46.276-.828.732-.828m.827 6.667.94.017v-5.02l-.94.003z" clip-rule="evenodd"/></svg>