<svg xmlns="http://www.w3.org/2000/svg" fill="none" viewBox="0 0 24 24"><path fill="#62757E" fill-rule="evenodd" d="M22 13.666a.84.84 0 0 1-.834.832h-3.333a.833.833 0 0 1 0-1.666h1.322l-5.55-5.55-3.584 2.868a.833.833 0 0 1-1.11-.062L2.244 3.422a.832.832 0 1 1 1.178-1.177l6.14 6.138 3.584-2.867a.834.834 0 0 1 1.11.061l6.077 6.078v-1.322a.833.833 0 1 1 1.667 0zM2.833 9.5h2.5c.461 0 .834.373.834.833v10.834c0 .46-.373.833-.834.833h-2.5A.833.833 0 0 1 2 21.167V10.333c0-.46.373-.833.833-.833m.834 10.833h.832v-9.167h-.832zm4.167-6.667h2.499c.46 0 .834.373.834.833v6.668c0 .46-.373.833-.834.833h-2.5A.833.833 0 0 1 7 21.167v-6.668c0-.46.373-.833.834-.833m.832 6.667H9.5v-5h-.834zM12.833 12h2.5c.46 0 .833.373.833.833v8.334c0 .46-.372.833-.832.833h-2.5a.833.833 0 0 1-.834-.833v-8.334c0-.46.372-.833.833-.833m.833 8.333h.834v-6.667h-.834zm4.167-4.166h2.5c.46 0 .833.373.833.833v4.167c0 .46-.372.833-.833.833h-2.5c-.46 0-.735-.351-.735-.811v-4.182c0-.46.275-.84.735-.84m.834 4.166h.833v-2.5h-.833z" clip-rule="evenodd"/></svg>