<svg xmlns="http://www.w3.org/2000/svg" fill="none" viewBox="0 0 24 24"><path fill="#62757E" fill-rule="evenodd" d="M21.167 20a.833.833 0 0 1-.834-.833V5.833a.833.833 0 1 1 1.667 0v13.334c0 .46-.372.833-.833.833m-2.5 0a.833.833 0 0 1-.834-.833V5.833a.833.833 0 1 1 1.667 0v13.334c0 .46-.372.833-.833.833m-2.5 0h-.834a.833.833 0 0 1-.833-.833V5.833c0-.46.373-.833.833-.833h.834c.46 0 .833.373.833.833v13.334c0 .46-.372.833-.833.833m-3.334 0a.833.833 0 0 1-.833-.833V5.833a.833.833 0 1 1 1.667 0v13.334c0 .46-.373.833-.834.833M9.5 20h-.833a.833.833 0 0 1-.834-.833V5.833c0-.46.373-.833.834-.833H9.5c.46 0 .833.373.833.833v13.334c0 .46-.372.833-.833.833m-4.167 0a.833.833 0 0 1-.833-.833V5.833a.833.833 0 1 1 1.667 0v13.334c0 .46-.373.833-.834.833m-2.5 0A.833.833 0 0 1 2 19.167V5.833a.833.833 0 1 1 1.667 0v13.334c0 .46-.373.833-.834.833" clip-rule="evenodd"/></svg>