<svg xmlns="http://www.w3.org/2000/svg" fill="none" viewBox="0 0 24 24"><path fill="#62757E" fill-rule="evenodd" d="M20.056 20.667h-2.223a.833.833 0 1 1 0-1.667h2.223c.15 0 .277-.128.277-.278V16.5a.833.833 0 1 1 1.667 0v2.222a1.947 1.947 0 0 1-1.944 1.945M21.166 9a.833.833 0 0 1-.833-.833V5.945a.28.28 0 0 0-.277-.278h-2.223a.833.833 0 1 1 0-1.667h2.223C21.128 4 22 4.872 22 5.945v2.222c0 .46-.372.833-.833.833m-3.333-.833V16.5c0 .46-.372.833-.833.833h-.833a.833.833 0 0 1-.834-.833V8.167c0-.46.373-.834.834-.834H17c.46 0 .833.374.833.834m-4.166 9.166a.833.833 0 0 1-.834-.833V8.167a.833.833 0 1 1 1.667 0V16.5c0 .46-.373.833-.833.833m-3.334 0H9.5a.833.833 0 0 1-.833-.833V8.167c0-.46.372-.834.833-.834h.833c.461 0 .834.374.834.834V16.5c0 .46-.373.833-.834.833m-3.333 0a.833.833 0 0 1-.833-.833V8.167a.833.833 0 1 1 1.666 0V16.5c0 .46-.372.833-.833.833M6.167 5.667H3.944a.28.28 0 0 0-.277.278v2.222a.833.833 0 1 1-1.667 0V5.945C2 4.872 2.873 4 3.944 4h2.223a.833.833 0 1 1 0 1.667m-3.334 10c.461 0 .834.373.834.833v2.222c0 .15.126.278.277.278h2.223a.833.833 0 1 1 0 1.667H3.944A1.947 1.947 0 0 1 2 18.722V16.5c0-.46.373-.833.833-.833" clip-rule="evenodd"/></svg>