<svg xmlns="http://www.w3.org/2000/svg" fill="none" viewBox="0 0 24 24"><path fill="#62757E" fill-rule="evenodd" d="M21.141 12.202a.833.833 0 1 1-1.616-.404l.91-2.333H3.68l2.265 9.201h6.89a.834.834 0 0 1 0 1.668H5.277a.834.834 0 0 1-.814-.65L2.02 8.85a.833.833 0 0 1 .813-1.018h3.554l1.478-5.226a.833.833 0 1 1 1.603.454l-1.35 4.772h7.763l-1.35-4.773a.833.833 0 1 1 1.604-.453l1.478 5.226h3.553a.832.832 0 0 1 .809 1.036l-.834 3.333Zm-3.065 2.543a.838.838 0 0 1 .576-.242c.005 0 .01-.003.014-.003.007 0 .013.004.019.004a.829.829 0 0 1 .572.243l2.5 2.497a.834.834 0 0 1-1.18 1.178L19.5 17.345v3.821a.833.833 0 1 1-1.667 0v-3.821l-1.077 1.077a.834.834 0 0 1-1.179-1.178l2.5-2.498Z" clip-rule="evenodd"/></svg>