<svg xmlns="http://www.w3.org/2000/svg" fill="none" viewBox="0 0 24 24"><path fill="#62757E" fill-rule="evenodd" d="M21.141 12.202a.832.832 0 1 1-1.616-.403l.91-2.336H3.677l2.266 9.204h6.89a.832.832 0 1 1 0 1.667H5.278a.834.834 0 0 1-.813-.65L2.02 8.85a.834.834 0 0 1 .814-1.017h3.554l1.478-5.226a.833.833 0 1 1 1.603.453l-1.35 4.773h7.763l-1.35-4.774a.833.833 0 1 1 1.602-.452l1.48 5.226h3.552a.833.833 0 0 1 .809 1.035zm-4.385 5.876 1.165 1.164v-3.92c0-.461.285-.822.745-.822.461 0 .834.374.834.834v3.821l1.077-1.077a.833.833 0 1 1 1.18 1.179l-2.5 2.497a.83.83 0 0 1-.59.246.83.83 0 0 1-.59-.244l-2.5-2.5a.834.834 0 0 1 1.18-1.178" clip-rule="evenodd"/></svg>