<svg xmlns="http://www.w3.org/2000/svg" fill="none" viewBox="0 0 24 24"><path fill="#62757E" fill-rule="evenodd" d="m19.845 18.667 1.911 1.91a.834.834 0 0 1-1.179 1.179l-1.91-1.911-1.911 1.91a.83.83 0 0 1-1.179 0 .834.834 0 0 1 0-1.178l1.911-1.91-1.91-1.911a.834.834 0 0 1 1.178-1.179l1.911 1.911 1.91-1.91a.834.834 0 0 1 1.18 1.178zm.325-5.017a.833.833 0 0 1-.653-.98l.931-3.209H3.692l2.252 9.205h6.89a.833.833 0 1 1 0 1.667H5.277a.83.83 0 0 1-.813-.65L2.02 8.85a.835.835 0 0 1 .813-1.017h3.554l1.478-5.226a.832.832 0 1 1 1.603.453l-1.35 4.773h7.763l-1.35-4.773a.833.833 0 0 1 1.604-.453l1.478 5.226h3.554a.834.834 0 0 1 .817.997l-.834 4.166a.835.835 0 0 1-.98.654" clip-rule="evenodd"/></svg>