<svg xmlns="http://www.w3.org/2000/svg" fill="none" viewBox="0 0 24 24"><path fill="#62757E" fill-rule="evenodd" d="M21.141 12.202a.833.833 0 1 1-1.616-.404l.91-2.333H3.68l2.265 9.202h6.89a.834.834 0 0 1 0 1.667H5.277a.834.834 0 0 1-.814-.65L2.02 8.85a.833.833 0 0 1 .813-1.018h3.554l1.478-5.226a.833.833 0 1 1 1.603.454l-1.35 4.772h7.763l-1.35-4.773a.833.833 0 1 1 1.604-.453l1.478 5.226h3.553a.832.832 0 0 1 .809 1.036zm-3.065 2.544a.84.84 0 0 1 .576-.243l.014-.003.019.004q.154.001.3.06a.8.8 0 0 1 .272.182l2.5 2.498a.834.834 0 0 1-1.18 1.178L19.5 17.345v3.821a.833.833 0 1 1-1.667 0v-3.821l-1.077 1.077a.834.834 0 0 1-1.179-1.178z" clip-rule="evenodd"/></svg>