<svg xmlns="http://www.w3.org/2000/svg" fill="none" viewBox="0 0 24 24"><g clip-path="url(#a)"><path fill="#F2F4F7" d="M12 24c6.627 0 12-5.373 12-12S18.627 0 12 0 0 5.373 0 12s5.373 12 12 12"/><path fill="#FF4724" fill-rule="evenodd" d="m5.024 17.226 4.13-2.426L12 9.81V5c-.075 0-.15.05-.207.15L8.42 11.06l-3.372 5.91c-.057.1-.063.19-.025.256" clip-rule="evenodd"/><path fill="#9E1F63" fill-rule="evenodd" d="M12 5v4.81l2.847 4.99 4.13 2.425c.037-.065.031-.156-.026-.256l-3.372-5.91-3.372-5.91C12.15 5.05 12.075 5 12 5" clip-rule="evenodd"/><path fill="#662D91" fill-rule="evenodd" d="M18.976 17.226 14.847 14.8H9.153l-4.13 2.425c.038.067.118.107.232.107h13.49c.114 0 .194-.04.231-.107" clip-rule="evenodd"/><path fill="#fff" fill-rule="evenodd" d="M9.153 14.8h5.694L12 9.81z" clip-rule="evenodd"/></g><defs><clipPath id="a"><path fill="#fff" d="M0 0h24v24H0z"/></clipPath></defs></svg>