<svg xmlns="http://www.w3.org/2000/svg" fill="none" viewBox="0 0 24 24"><path fill="#62757E" fill-rule="evenodd" d="M21.167 15H19.5v2.5c0 .46-.373.833-.833.833H2.833A.833.833 0 0 1 2 17.5V5.833c0-.46.373-.833.833-.833h15.834c.46 0 .833.372.833.833v2.5h1.667c.46 0 .833.373.833.834v5c0 .46-.373.833-.833.833m-3.334-8.333H3.667v10h14.166zm2.5 3.333H19.5v3.333h.833zm-11.99 1.84 1.477 1.145 3.176-4.312a.834.834 0 0 1 1.342.988l-3.682 5a.83.83 0 0 1-1.181.165l-2.152-1.667a.833.833 0 1 1 1.02-1.318" clip-rule="evenodd"/></svg>