<svg xmlns="http://www.w3.org/2000/svg" fill="none" viewBox="0 0 24 24"><path fill="#62757E" fill-rule="evenodd" d="M21.167 14H19.5v2.5a.833.833 0 1 1-1.667 0V5.667H3.667v10a.833.833 0 1 1 0 1.666h-.834A.833.833 0 0 1 2 16.5V4.833c0-.46.373-.833.833-.833h15.834c.46 0 .833.373.833.833v2.5h1.667c.46 0 .833.373.833.834v5c0 .46-.372.833-.833.833m-.834-5H19.5v3.333h.833zm-15 4.166v-5a.833.833 0 1 1 1.667 0v5a.833.833 0 1 1-1.667 0m5.1-4.56c.291-.542 1.176-.542 1.468 0l5.762 10.701a.832.832 0 0 1-.647 1.36H5.334a.834.834 0 0 1-.734-1.228zM15.604 19l-4.438-8.242L6.728 19zM12 14v1.666a.833.833 0 1 1-1.667 0V14A.833.833 0 1 1 12 14m-.242 2.741a.88.88 0 0 1 .242.592.88.88 0 0 1-.242.592.88.88 0 0 1-.591.241.834.834 0 0 1-.834-.833c0-.216.091-.433.242-.592.3-.308.867-.308 1.183 0" clip-rule="evenodd"/></svg>