<svg xmlns="http://www.w3.org/2000/svg" fill="none" viewBox="0 0 24 24"><path fill="#62757E" fill-rule="evenodd" d="M21.167 15H19.5v2.5c0 .46-.373.833-.833.833H2.833A.833.833 0 0 1 2 17.5V5.833c0-.46.373-.833.833-.833h15.834c.46 0 .833.372.833.833v2.5h1.667c.46 0 .833.373.833.834v5c0 .46-.373.833-.833.833m-3.334-8.333H3.667v10h14.166zm2.5 3.333H19.5v3.333h.833zm-11.64 1.537c.007-.045.001-.09.016-.134l.834-2.5a.833.833 0 1 1 1.582.527l-.468 1.403h.51l.013.003a.8.8 0 0 1 .25.04c.01.004.017.012.027.016.059.022.108.057.16.091.04.026.082.047.116.08.04.036.066.082.098.126.032.043.066.082.088.13.02.044.027.093.04.141.014.058.033.114.034.175.001.012.007.02.007.032 0 .046-.02.086-.027.13s-.001.09-.016.134l-.833 2.499a.834.834 0 0 1-1.582-.527l.469-1.403H9.5a.8.8 0 0 1-.263-.043c-.011-.004-.018-.012-.028-.015-.057-.022-.105-.056-.155-.09-.042-.026-.087-.048-.122-.081-.038-.037-.064-.082-.095-.124-.032-.045-.067-.084-.09-.133-.02-.044-.026-.092-.039-.14-.015-.058-.033-.114-.035-.176 0-.01-.006-.02-.006-.031 0-.046.019-.086.026-.13" clip-rule="evenodd"/></svg>