<svg xmlns="http://www.w3.org/2000/svg" fill="none" viewBox="0 0 24 24"><g clip-path="url(#a)"><path fill="#6356AB" d="M12 24c6.627 0 12-5.373 12-12S18.627 0 12 0 0 5.373 0 12s5.373 12 12 12"/><path fill="#fff" d="M16.41 11.983q.057-.063.122-.127c.136-.147.286-.304.427-.455.565-.59.88-1.374.882-2.19 0-.057.009-.29.009-.323-.066-1.866-1.637-3.388-3.495-3.388h-5.85v2.36H6.15V18.5h8.299c1.844 0 3.4-1.64 3.4-3.583.006-1.389-.853-2.37-1.44-2.934M9.677 9.045l4.659.005-2.927 2.967 2.894 2.938H9.677zm4.772 8.266H7.322V9.04h1.182v7.094h5.798c.479 0 .906-.289 1.089-.734a1.19 1.19 0 0 0-.254-1.294l-2.068-2.095 2.101-2.128a1.19 1.19 0 0 0 .254-1.294 1.18 1.18 0 0 0-1.089-.734H9.682V6.68h4.677c1.24 0 2.28 1.01 2.323 2.237 0 .052-.01.256-.01.26v.024c0 .515-.2 1.01-.558 1.38l-.431.454c-.23.242-.427.45-.521.546l-.423.416.418.423q.084.083.211.203c.488.455 1.31 1.213 1.31 2.284.004 1.28-1.037 2.404-2.23 2.404"/></g><defs><clipPath id="a"><path fill="#fff" d="M0 0h24v24H0z"/></clipPath></defs></svg>