<svg xmlns="http://www.w3.org/2000/svg" fill="none" viewBox="0 0 24 24"><g clip-path="url(#a)"><path fill="#004AB5" d="M12 24c6.627 0 12-5.373 12-12S18.627 0 12 0 0 5.373 0 12s5.373 12 12 12Z"/><path fill="#fff" d="M9.859 6.718a5.33 5.33 0 1 0 6.543 7.564l-4.664-2.578 1.893-4.982a5.33 5.33 0 0 0-3.772-.004Zm.332.957a4.315 4.315 0 0 1 3.055.004l-1.533 4.034L15.49 13.8a4.316 4.316 0 1 1-5.299-6.126Zm1.787-2.67c.725.029 1.44.175 2.119.432l-2.383 6.276 5.874 3.247a6.713 6.713 0 1 1-5.61-9.955Zm4.583 2.32c.161 0 .31.02.448.059.406.11.68.363.822.755.087.238.106.472.057.701a1.25 1.25 0 0 1-.316.615c.313-.014.587.056.822.208.233.147.406.373.516.676.156.43.11.823-.142 1.178-.248.35-.692.641-1.332.874l-2.535.923-1.784-4.902 2.395-.872c.392-.142.742-.214 1.05-.214ZM16.19 8.34a1.51 1.51 0 0 0-.507.105l-1.127.41.42 1.156 1.128-.41c.28-.102.474-.228.583-.38a.52.52 0 0 0 .059-.512c-.07-.191-.194-.308-.373-.348a.743.743 0 0 0-.183-.021Zm.95 1.9c-.153.002-.333.04-.54.116l-1.323.481.44 1.212 1.324-.482c.298-.109.505-.239.619-.392.118-.154.14-.333.065-.54-.097-.265-.292-.397-.584-.395Z"/></g><defs><clipPath id="a"><path fill="#fff" d="M0 0h24v24H0z"/></clipPath></defs></svg>