<svg xmlns="http://www.w3.org/2000/svg" fill="none" viewBox="0 0 24 24"><g clip-path="url(#a)"><path fill="#004AB5" d="M12 24c6.627 0 12-5.372 12-12 0-6.627-5.373-12-12-12S0 5.373 0 12c0 6.628 5.373 12 12 12"/><path fill="#fff" d="M9.859 6.718a5.33 5.33 0 1 0 6.544 7.564l-4.664-2.578 1.892-4.982a5.33 5.33 0 0 0-3.772-.004m.332.957a4.32 4.32 0 0 1 3.055.004l-1.533 4.034L15.49 13.8a4.315 4.315 0 1 1-5.299-6.126m1.787-2.67a6.7 6.7 0 0 1 2.119.433l-2.383 6.275 5.874 3.247a6.714 6.714 0 0 1-12.587-3.366 6.713 6.713 0 0 1 6.977-6.589m4.583 2.32q.241 0 .448.059.609.167.822.755.13.357.057.701a1.25 1.25 0 0 1-.316.615q.47-.02.822.208.35.222.516.676.235.645-.142 1.178-.372.525-1.332.874l-2.535.923-1.784-4.902 2.395-.872q.588-.213 1.05-.214M16.19 8.34q-.219 0-.507.105l-1.127.41.42 1.156 1.128-.41q.42-.152.583-.38a.52.52 0 0 0 .059-.512q-.105-.287-.373-.348a.7.7 0 0 0-.183-.021m.95 1.9q-.23.003-.54.116l-1.323.482.44 1.21 1.324-.48q.447-.164.619-.393.177-.23.065-.539-.146-.399-.584-.396"/></g><defs><clipPath id="a"><path fill="#fff" d="M0 0h24v24H0z"/></clipPath></defs></svg>