<svg xmlns="http://www.w3.org/2000/svg" fill="none" viewBox="0 0 24 24"><g clip-path="url(#a)"><path fill="#F7931C" d="M12 24c6.627 0 12-5.372 12-12 0-6.627-5.373-12-12-12S0 5.373 0 12c0 6.628 5.373 12 12 12"/><path fill="#FEFDFC" d="M7 13.887c-.005-1.91 1.34-3.513 3.263-3.874.165-.03.212-.085.208-.246q-.015-.644 0-1.287c.003-.154-.046-.246-.178-.332a1.15 1.15 0 0 1-.482-1.342 1.19 1.19 0 0 1 1.197-.817c.488.022.935.386 1.067.868a1.16 1.16 0 0 1-.482 1.285c-.152.096-.2.193-.195.366.013.428.008.857.003 1.286-.002.124.016.19.164.21.28.037.555.113.815.224.098.042.15.017.216-.056q1.365-1.503 2.738-3c.094-.103.067-.173.024-.28a1.37 1.37 0 0 1 .328-1.537c.384-.358 1.02-.46 1.479-.238.54.262.837.764.8 1.354-.05.789-.817 1.383-1.595 1.221-.158-.033-.25.005-.352.118q-1.27 1.405-2.55 2.799c-.104.112-.119.172.01.284 1.397 1.218 1.778 3.054.981 4.727-.06.127-.046.2.051.292q.348.333.681.681c.089.092.172.116.304.083a1.174 1.174 0 0 1 1.137 1.95c-.352.373-.926.482-1.371.259a1.17 1.17 0 0 1-.64-1.299c.033-.153-.003-.24-.105-.338q-.285-.267-.55-.554c-.103-.111-.167-.113-.285-.002-1.204 1.122-2.6 1.412-4.141.864-1.532-.543-2.536-2.032-2.54-3.669"/></g><defs><clipPath id="a"><path fill="#fff" d="M0 0h24v24H0z"/></clipPath></defs></svg>