<svg xmlns="http://www.w3.org/2000/svg" fill="none" viewBox="0 0 24 24"><g clip-path="url(#a)"><path fill="#ECAE00" d="M12 24c6.627 0 12-5.373 12-12S18.627 0 12 0 0 5.373 0 12s5.373 12 12 12Z"/><path fill="#fff" d="m17.268 6.555.062.137-2.444 1.122 1.1 3.64 3.616-1.827.048.095.015-.017-2.343-3.125-.054-.025Zm-.132-.061-2.218-1.032H9.18L6.81 6.55l2.464 1.036h5.48l2.381-1.092ZM6.613 6.75 4.394 9.63l3.612 1.824L9.11 7.8 6.613 6.75Zm2.752 1.098-1.14 3.776 3.77 6.666 3.771-6.666-1.14-3.776H9.365Zm10.01 2.186L16 11.74l-3.364 5.947 6.738-7.652Zm-8.038 7.62L7.99 11.739l-3.357-1.695 6.703 7.61Zm-6.992-7.94.026-.053-.034.045.008.008ZM6.578 6.37 9.124 5.2h5.85l2.515 1.17L20 9.718 12 18.8 4 9.717 6.578 6.37Zm7.36 4.297c.048.486-.153.778-.475.944.529.127.86.446.795 1.16-.08.884-.732 1.121-1.664 1.175v.93h-.553v-.917c-.144 0-.29-.001-.443-.005v.923h-.552v-.933c-.13 0-.262-.003-.396-.003h-.72l.11-.67s.409.007.402 0c.156 0 .198-.114.208-.185v-1.47h.059a.434.434 0 0 0-.06-.004v-1.049c-.02-.114-.093-.245-.318-.246.007-.008-.401 0-.401 0v-.599h.763v.004c.115 0 .232-.003.352-.005v-.92h.554v.902c.147-.003.296-.006.442-.006v-.896h.553v.92c.716.064 1.281.286 1.344.95Zm-.774 1.992c0-.726-1.177-.617-1.552-.617v1.235c.375 0 1.552.078 1.552-.618Zm-.258-1.741c0-.661-.982-.56-1.294-.56v1.12c.312 0 1.294.073 1.294-.56Z"/></g><defs><clipPath id="a"><path fill="#fff" d="M0 0h24v24H0z"/></clipPath></defs></svg>