<svg xmlns="http://www.w3.org/2000/svg" fill="none" viewBox="0 0 24 24"><g clip-path="url(#a)"><path fill="#8DC351" d="M12 24c6.627 0 12-5.373 12-12S18.627 0 12 0 0 5.373 0 12s5.373 12 12 12Z"/><path fill="#fff" d="M15.36 8.448c-.505-1.285-1.774-1.401-3.251-1.114L11.583 5.5l-1.116.32.512 1.786c-.293.084-.592.176-.888.267l-.515-1.797-1.116.319.525 1.834c-.24.074-.476.147-.707.213l-.002-.006-1.54.441.343 1.193s.82-.253.81-.233c.452-.13.674.09.782.305l.6 2.088a.995.995 0 0 1 .12-.026l-.118.034.839 2.927c.02.148.002.399-.313.49.017.009-.812.232-.812.232l.16 1.397 1.453-.417c.27-.076.538-.148.8-.222l.532 1.855 1.114-.32-.526-1.834c.3-.08.597-.162.895-.248l.522 1.827 1.117-.32-.53-1.851c1.845-.646 3.023-1.496 2.68-3.305-.275-1.456-1.123-1.898-2.262-1.849.553-.515.79-1.211.418-2.151Zm-.423 4.413c.397 1.387-2.021 1.91-2.777 2.127l-.705-2.457c.756-.217 3.066-1.115 3.481.331Zm-1.514-3.318c.361 1.262-1.66 1.682-2.29 1.863l-.64-2.229c.63-.18 2.553-.948 2.93.367Z"/></g><defs><clipPath id="a"><path fill="#fff" d="M0 0h24v24H0z"/></clipPath></defs></svg>