<svg xmlns="http://www.w3.org/2000/svg" fill="none" viewBox="0 0 24 24"><g clip-path="url(#a)"><path fill="#43A047" d="M24 12A12 12 0 1 1 .001 12 12 12 0 0 1 24 12"/><path fill="#fff" fill-rule="evenodd" d="m9.2 6.755 2.219.594.497-1.849 1.109.301-.478 1.772.904.243.477-1.79 1.128.3-.486 1.801s1.843.408 2.277 1.907-.952 2.287-1.378 2.316c0 0 1.616.886 1.061 2.628-.554 1.742-2.257 2.053-4.047 1.654l-.487 1.868-1.129-.301.497-1.843-.896-.24-.499 1.85-1.118-.3.495-1.843-2.277-.614.575-1.275s.642.176.885.234c.244.058.399-.195.467-.448.069-.252 1.1-4.44 1.197-4.786.098-.344.058-.614-.35-.72-.41-.106-.966-.272-.966-.272zm2.238 5.546-.614 2.442s3.045 1.1 3.435-.447-2.82-1.995-2.82-1.995m.283-1.158.603-2.238s2.608.467 2.287 1.713-1.862.767-2.89.525" clip-rule="evenodd"/></g><defs><clipPath id="a"><path fill="#fff" d="M0 0h24v24H0z"/></clipPath></defs></svg>