<svg xmlns="http://www.w3.org/2000/svg" fill="none" viewBox="0 0 24 24"><g clip-path="url(#a)"><path fill="#3F43AD" d="M12 24c6.627 0 12-5.373 12-12S18.627 0 12 0 0 5.373 0 12s5.373 12 12 12Z"/><path fill="#fff" d="M9.254 6.606a.58.58 0 0 0 0 1.156.58.58 0 0 0 0-1.156ZM11.93 5a.58.58 0 0 0 0 1.158.58.58 0 0 0 0-1.158Zm0 6.421a.58.58 0 0 0 0 1.158.58.58 0 0 0 0-1.158Zm2.676-1.605a.579.579 0 1 0 0 1.158.579.579 0 0 0 0-1.158Zm2.675-1.605a.58.58 0 1 0-.038 1.158.58.58 0 0 0 .038-1.158Zm-8.027 4.816a.579.579 0 0 0 0 1.157.579.579 0 0 0 0-1.157ZM6.578 8.211A.579.579 0 1 0 6.58 9.37a.579.579 0 0 0-.002-1.158Zm0 6.421a.579.579 0 1 0 .002 1.158.579.579 0 0 0-.002-1.158Zm0-3.21a.58.58 0 0 0 0 1.156.58.58 0 0 0 0-1.156Zm5.352-3.21a.58.58 0 1 0-.039 1.158.58.58 0 0 0 .04-1.159Zm2.676-1.606a.58.58 0 1 0-.038 1.158.58.58 0 0 0 .038-1.158Zm0 6.421a.576.576 0 0 0-.579.58.577.577 0 0 0 .58.578.579.579 0 0 0-.001-1.158Zm2.675-1.605a.58.58 0 0 0 0 1.156.58.58 0 0 0 0-1.156Zm-2.675 4.816a.58.58 0 0 0-.41.988.579.579 0 1 0 .41-.988Zm2.675-1.606a.58.58 0 0 0 0 1.158.58.58 0 0 0 0-1.158Zm-5.35 3.211a.58.58 0 0 0 0 1.157.58.58 0 0 0 0-1.157Zm0-3.211a.58.58 0 1 0 0 1.16.58.58 0 0 0 0-1.16ZM9.253 9.816a.58.58 0 0 0 0 1.157.58.58 0 0 0 0-1.156v-.001Zm0 6.421a.58.58 0 0 0 0 1.158.58.58 0 0 0 0-1.157Z"/></g><defs><clipPath id="a"><path fill="#fff" d="M0 0h24v24H0z"/></clipPath></defs></svg>