<svg xmlns="http://www.w3.org/2000/svg" fill="none" viewBox="0 0 24 24"><g clip-path="url(#a)"><path fill="#F04086" d="M12 24c6.627 0 12-5.373 12-12S18.627 0 12 0 0 5.373 0 12s5.373 12 12 12"/><path fill="#fff" d="M17.8 12.7q-.679-.75-1.958-.932v-.018c.747-.121 1.333-.427 1.732-.916a2.68 2.68 0 0 0 .62-1.73c0-1.052-.338-1.767-1.039-2.329-.7-.561-1.753-.746-3.179-.746H8.592v5.011H5.5v1.92h8.44c.665 0 1.163.046 1.493.312s.498.609.498 1.116-.166.941-.498 1.213c-.331.271-.83.45-1.493.45h-2.896V14.56H8.592v3.412h5.561c1.415 0 2.496-.369 3.246-.943.749-.573 1.1-1.42 1.1-2.46A2.74 2.74 0 0 0 17.8 12.7m-4.17-1.665h-2.586V7.943h2.587c1.33 0 1.993.52 1.993 1.546s-.663 1.546-1.993 1.546"/></g><defs><clipPath id="a"><path fill="#fff" d="M0 0h24v24H0z"/></clipPath></defs></svg>