<svg xmlns="http://www.w3.org/2000/svg" fill="none" viewBox="0 0 24 24"><g clip-path="url(#a)"><path fill="#F04086" d="M12 24c6.627 0 12-5.373 12-12S18.627 0 12 0 0 5.373 0 12s5.373 12 12 12Z"/><path fill="#fff" d="M17.8 12.7c-.453-.5-1.105-.811-1.958-.932v-.018c.747-.121 1.333-.427 1.732-.916a2.676 2.676 0 0 0 .62-1.73c0-1.052-.338-1.767-1.039-2.329-.7-.561-1.753-.746-3.179-.746H8.592v5.011H5.5v1.92h8.44c.665 0 1.163.047 1.493.312.33.266.498.61.498 1.117s-.166.94-.498 1.212c-.331.271-.83.45-1.493.45h-2.896V14.56H8.592v3.412h5.561c1.415 0 2.496-.369 3.246-.943.749-.573 1.1-1.42 1.1-2.46A2.742 2.742 0 0 0 17.8 12.7Zm-4.17-1.665h-2.586V7.943h2.587c1.33 0 1.993.52 1.993 1.546 0 1.027-.663 1.546-1.993 1.546Z"/></g><defs><clipPath id="a"><path fill="#fff" d="M0 0h24v24H0z"/></clipPath></defs></svg>