<svg xmlns="http://www.w3.org/2000/svg" fill="none" viewBox="0 0 24 24"><g clip-path="url(#a)"><path fill="#2C76B7" d="M12 24c6.627 0 12-5.373 12-12S18.627 0 12 0 0 5.373 0 12s5.373 12 12 12Z"/><path fill="#fff" d="m10.685 15.378-1.054-.593c-.266.36-.698.595-1.188.595a1.47 1.47 0 0 1-1.19-.598l-.342.194a.6.6 0 0 1-.141.668.622.622 0 0 1-.441.177.62.62 0 0 1-.629-.614c0-.338.281-.614.629-.614.202 0 .381.094.497.239l.336-.19a1.395 1.395 0 0 1-.182-.69c0-.77.625-1.397 1.406-1.426v-1.088c-.761-.03-1.368-.64-1.368-1.39 0-.238.062-.464.17-.66l-.357-.199a.633.633 0 0 1-.502.245.622.622 0 0 1-.629-.613.62.62 0 0 1 .629-.614.62.62 0 0 1 .628.614.603.603 0 0 1-.043.222l.364.203c.258-.357.684-.59 1.165-.59.49 0 .924.243 1.18.612l1.073-.594a1.382 1.382 0 0 1-.154-.634c0-.75.6-1.364 1.358-1.407v-.412a.619.619 0 0 1-.543-.608.62.62 0 0 1 .629-.613.62.62 0 0 1 .628.613.62.62 0 0 1-.543.608v.412c.758.043 1.358.657 1.358 1.407 0 .228-.056.445-.154.636l1.07.602a1.434 1.434 0 0 1 1.198-.635c.496 0 .932.247 1.188.622l.353-.225a.601.601 0 0 1-.041-.22.62.62 0 0 1 .628-.613.62.62 0 0 1 .629.614.622.622 0 0 1-.629.613.633.633 0 0 1-.504-.247l-.35.223c.096.188.15.399.15.624 0 .763-.63 1.384-1.41 1.39v1.133c.791.007 1.43.636 1.43 1.41 0 .234-.06.455-.163.65l.36.203a.634.634 0 0 1 .487-.226c.348 0 .629.275.629.613a.62.62 0 0 1-.629.614.623.623 0 0 1-.628-.614c0-.084.017-.167.052-.244l-.36-.203c-.26.371-.697.615-1.192.615-.491 0-.924-.239-1.185-.604l-1.074.604c.117.206.183.444.183.697 0 .76-.602 1.384-1.367 1.442v.269a.618.618 0 0 1 .514.604.62.62 0 0 1-.628.613.621.621 0 0 1-.629-.613c0-.32.25-.583.572-.611v-.26c-.792-.029-1.424-.664-1.424-1.444 0-.252.065-.488.18-.694Zm.091-.142a1.49 1.49 0 0 1 1.21-.61c.497 0 .938.24 1.207.607l1.075-.605a1.377 1.377 0 0 1-.169-.662c0-.726.563-1.324 1.287-1.401v-1.148c-.713-.077-1.268-.666-1.268-1.383 0-.219.051-.426.144-.61l-1.074-.604c-.26.38-.7.63-1.202.63-.503 0-.945-.251-1.204-.63l-1.071.592c.1.19.157.406.157.636 0 .73-.577 1.33-1.31 1.386v1.095c.753.056 1.348.672 1.348 1.423a1.4 1.4 0 0 1-.183.691l1.053.593ZM8.443 14.7a.757.757 0 0 0 .766-.748.757.757 0 0 0-.766-.747.757.757 0 0 0-.766.747c0 .413.343.748.766.748Zm0-3.924a.737.737 0 0 0 .746-.728.74.74 0 0 0-.746-.729.737.737 0 0 0-.747.729c0 .402.334.728.747.728Zm3.543-1.998c.417 0 .756-.33.756-.738a.747.747 0 0 0-.756-.738.747.747 0 0 0-.756.738c0 .407.338.738.756.738Zm3.557 1.984a.737.737 0 0 0 .747-.728.738.738 0 0 0-.747-.729.737.737 0 0 0-.747.729c0 .402.334.728.747.728Zm0 3.942c.418 0 .756-.33.756-.738a.747.747 0 0 0-.756-.738.747.747 0 0 0-.756.738c0 .408.338.738.756.738Zm-3.557 2.126c.428 0 .775-.34.775-.757a.767.767 0 0 0-.775-.758.767.767 0 0 0-.776.758c0 .418.347.757.776.757Zm0-2.786c-1.157 0-2.094-.915-2.094-2.043 0-1.129.938-2.044 2.093-2.044 1.157 0 2.095.915 2.095 2.044 0 1.128-.938 2.043-2.094 2.043Zm0-1.242a.81.81 0 0 0 .82-.801.81.81 0 0 0-.82-.801.811.811 0 0 0-.821.8c0 .443.367.802.82.802Z"/></g><defs><clipPath id="a"><path fill="#fff" d="M0 0h24v24H0z"/></clipPath></defs></svg>