<svg xmlns="http://www.w3.org/2000/svg" fill="none" viewBox="0 0 24 24"><g clip-path="url(#a)"><path fill="#404040" d="M12 24c6.627 0 12-5.373 12-12S18.627 0 12 0 0 5.373 0 12s5.373 12 12 12Z"/><path fill="#fff" d="M12 19a7 7 0 1 1 0-14 7 7 0 0 1 0 14Zm0-.701A6.3 6.3 0 1 0 12 5.7a6.3 6.3 0 0 0 0 12.598Zm3.845-8.768c.105 1.87-1.622 2.363-1.622 2.363 1.975.282 1.869 1.976 1.869 1.976 0 2.75-3.069 2.857-3.069 2.857H8.72V7.273h3.88c3.245.141 3.245 2.258 3.245 2.258Zm-4.903-.565v2.293h1.553s1.093-.035 1.163-.917v-.565s0-.74-1.058-.81h-1.658Zm2.927 5.187v-.565s0-.742-1.058-.812h-1.87v2.294h1.765s1.093-.035 1.164-.918h-.001Z"/></g><defs><clipPath id="a"><path fill="#fff" d="M0 0h24v24H0z"/></clipPath></defs></svg>