<svg xmlns="http://www.w3.org/2000/svg" fill="none" viewBox="0 0 24 24"><g clip-path="url(#a)"><path fill="#E54C40" d="M12 24c6.627 0 12-5.373 12-12S18.627 0 12 0 0 5.373 0 12s5.373 12 12 12Z"/><path fill="#fff" d="M8.011 7.193c-.013-.096.077-.154.129-.219a283.78 283.78 0 0 0 1.937-1.935c-.01 1.773.005 3.545-.007 5.317 1.337-.737 3.021-.77 4.395-.11l-.001.343c-1.097-.59-2.446-.665-3.616-.254-1.346.463-2.419 1.603-2.838 2.96.001-2.035-.001-4.068.001-6.102Zm8.738 7.61a4.341 4.341 0 0 1-1.238 2.874 4.37 4.37 0 0 1-5.548.594 4.37 4.37 0 0 1-1.878-2.803c-.186-.9-.06-1.857.326-2.689a4.376 4.376 0 0 1 6.05-1.997c-.006.975-.005 1.95.002 2.925a2.394 2.394 0 0 0-.865-1.002c-.755-.487-1.804-.464-2.533.064-.803.553-1.165 1.647-.846 2.568.285.908 1.188 1.574 2.142 1.564.917.023 1.803-.577 2.131-1.433.209-.485.157-1.02.161-1.533.004-2.646-.006-5.292-.005-7.938 0-.333.007-.665-.013-.997.711.7 1.416 1.41 2.12 2.118-.014 2.562 0 5.123-.006 7.685Z"/></g><defs><clipPath id="a"><path fill="#fff" d="M0 0h24v24H0z"/></clipPath></defs></svg>