<svg xmlns="http://www.w3.org/2000/svg" fill="none" viewBox="0 0 24 24"><path fill="#62757E" d="M13.361 4.094a21 21 0 0 0-2.722 0v4.822c0 .784-.302 1.536-.839 2.09L7.656 13.22a9.04 9.04 0 0 1 4.68.994 7.54 7.54 0 0 0 5.329.613l.186-.05-3.651-3.771a3 3 0 0 1-.839-2.09zm-1.696 11.508a7.54 7.54 0 0 0-5.33-.612l-.522.134-1.918 1.982c-.767.792-.358 2.02.596 2.188 2.44.43 4.95.655 7.51.655s5.068-.225 7.508-.655c.954-.168 1.363-1.396.596-2.188l-1.015-1.049-1.061.275a9 9 0 0 1-6.364-.73m3.197-6.686c0 .372.144.73.399.994l5.906 6.1c1.546 1.597.863 4.413-1.406 4.813A44.7 44.7 0 0 1 12 21.5c-2.646 0-5.24-.232-7.763-.677-2.268-.4-2.95-3.216-1.405-4.813l5.906-6.1a1.43 1.43 0 0 0 .399-.994V4.229a.76.76 0 0 1-.698-.677.77.77 0 0 1 .652-.866A23 23 0 0 1 12 2.5a23 23 0 0 1 2.908.186.77.77 0 0 1 .653.866.76.76 0 0 1-.699.677z"/></svg>