<svg xmlns="http://www.w3.org/2000/svg" fill="none" viewBox="0 0 24 24"><g clip-path="url(#a)"><path fill="#0B76FF" d="M12 24c6.627 0 12-5.372 12-12 0-6.627-5.373-12-12-12S0 5.373 0 12c0 6.628 5.373 12 12 12"/><path fill="#fff" d="M18.976 10.41V9.082l-4.32 2.516L11.987 7v3.017l1.358 2.354-.55.326-.808-1.424-.869 1.544-.604-.247 1.473-2.553V7l-2.92 4.973L5 10.289v1.539l3.62.893-2.292 3.934h5.66v-1.623h-2.89l1.08-1.895.651.163-.651 1.147h3.62l-.543-.96.718-.054.924 1.599h-2.91v1.623h5.685l-1.955-3.337L19 13.077v-1.334l-3.693.911 3.687-.947V10.5l-4 1.623zm-5.25 2.624-.652.163.64-.162zm-.205-.362-.604.242.604-.248z"/></g><defs><clipPath id="a"><path fill="#fff" d="M0 0h24v24H0z"/></clipPath></defs></svg>