<svg xmlns="http://www.w3.org/2000/svg" fill="none" viewBox="0 0 24 24"><path fill="#000" fill-rule="evenodd" d="M18.962 18.35a.145.145 0 0 0-.207-.008l-.002.003a.144.144 0 0 0-.002.208l3.249 3.2zm-1.226-5.016-.003.003a.145.145 0 0 0-.002.208l3.388 3.333-3.175-3.536a.145.145 0 0 0-.208-.008" clip-rule="evenodd"/><path fill="#FECD0F" fill-rule="evenodd" d="m14.966 12.67-2.102-2.055c-.032 1.084-.202 3.323-.636 4.37q-.01.024-.023.049c.306.195.95.571 1.206.571.32 0 .958-.354 1.188-.576.2-.194.413-.582.618-.958.166-.303.337-.617.515-.858q.158-.214.302-.322c.2-.15.53-.272.88-.4.467-.171.997-.366 1.158-.63.162-.263.067-1.178.002-1.613-.442.048-2.235.182-3.527-.648-.615-.395-1.52-1.26-1.94-1.671.15.884.25 1.797.259 2.411z" clip-rule="evenodd"/><path fill="#000" fill-rule="evenodd" d="m14.829 18.794-.002.002a.144.144 0 0 0-.002.207l3.261 3.217-3.05-3.418a.145.145 0 0 0-.207-.008m.627-2.906a.144.144 0 0 0-.1.249l2.29 2.207-2.081-2.406a.14.14 0 0 0-.109-.05" clip-rule="evenodd"/><path fill="#FECD0F" fill-rule="evenodd" d="M12.176 18.217v.258l.49-.375a.16.16 0 0 1 .155-.02.16.16 0 0 1 .096.122c.016.255.077.94.173 1.148.091.194.421.578.93 1.08a.035.035 0 0 0 .063-.023c.022-.116.04-.256.034-.293-.117-.647-1.1-2.29-1.296-2.613a.13.13 0 0 0-.052-.048l-.82-.432v.324l.227.183z" clip-rule="evenodd"/><path fill="#000" fill-rule="evenodd" d="M10.74 19.79h-.002a.145.145 0 0 0-.002.209l2.38 2.321-2.169-2.518a.144.144 0 0 0-.208-.011" clip-rule="evenodd"/><mask id="a" width="10" height="18" x="3" y="1" maskUnits="userSpaceOnUse" style="mask-type:alpha"><path fill="#fff" d="m10.924 11.339.226.26-.184.025c-.298.041-.764.144-.866.244-.137.136-.27.737-.323 1.085l-.004.026-.016.02c-.09.115-.4.491-.62.5h-.011q-.208 0-.487-.321c-.178-.011-.603-.067-.752-.343-.087-.16.071-.517.15-.676l-.003-.063c.003-.214.223-.624.425-.725.144-.073.36-.05.589-.025.202.021.431.046.519-.02.131-.098.194-.688.195-1.056v-.268l.495.568c.093-.232.195-.53.185-.643-.015-.158-.27-.585-.428-.817l.166-.113c.045.066.438.65.462.912.018.203-.166.661-.238.83l.384.443c.187-.27.505-.769.517-.977.015-.273-.312-.969-.597-1.481l-.026-.047.173-.103.03.053c.15.271.643 1.191.621 1.59-.017.297-.433.912-.582 1.122m-3.58-3.47a2 2 0 0 1-.302.436l-.06.058a.29.29 0 0 1 .284.084c.09.1.073.47-.044.536-.17.094-.647-.279-.774-.382q-.15.038-.304.06a.1.1 0 0 1-.112-.089.1.1 0 0 1 .09-.105q.202-.015.399-.061c.08-.02.16-.041.233-.072a.7.7 0 0 0 .204-.121c.126-.103.234-.237.332-.377a3.4 3.4 0 0 0 .26-.446 3.5 3.5 0 0 1-.207.478m-2.791-.636a1.04 1.04 0 1 1 .29-2.038 1.577 1.577 0 1 1 .747.962l.003.037a1.04 1.04 0 0 1-1.04 1.04m8.112 3.286h.1l-.072-.07.073-.07-.101.001c-.006-.675-.129-1.746-.311-2.729a12 12 0 0 0-.227-1.02c-.576-2.065-2.123-3.685-4.357-4.563-.672-.265-2.214-.266-2.76.083C2.369 3.835 3.1 6.525 3.34 7.408c.235.865.94 2.001 2.154 2.358l.796.075-.677.06a.43.43 0 0 1-.022.219l.378.016-.41.069a1 1 0 0 1-.1.183c-.08.11-.22.23-.368.358-.18.156-.385.333-.448.468a2 2 0 0 0-.064.157c-.13.366-.201.919-.202 1.556-.002.794.107 1.613.278 2.085.198.551 1.161 1.4 1.689 1.683q.202.108.584.183l-.02.1.002-.002.019-.098a8 8 0 0 0 1.64.12c.368-.016 1.474-.329 1.823-.43l-.251-.615.186-.076.883 2.158.763.072v-.482l-.696-.56-.323-1.506.197-.042.115.54c.225-.293.564-.75.72-1.035a1 1 0 0 0 .056-.115c.397-.96.589-3.123.621-4.342z"/></mask><g mask="url(#a)"><path fill="url(#b)" fill-rule="evenodd" d="m10.924 11.339.226.26-.184.025c-.298.041-.764.144-.866.244-.137.136-.27.737-.323 1.085l-.004.026-.016.02c-.09.115-.4.491-.62.5h-.011q-.208 0-.487-.321c-.178-.011-.603-.067-.752-.343-.087-.16.071-.517.15-.676l-.003-.063c.003-.214.223-.624.425-.725.144-.073.36-.05.589-.025.202.021.431.046.519-.02.131-.098.194-.688.195-1.056v-.268l.495.568c.093-.232.195-.53.185-.643-.015-.158-.27-.585-.428-.817l.166-.113c.045.066.438.65.462.912.018.203-.166.661-.238.83l.384.443c.187-.27.505-.769.517-.977.015-.273-.312-.969-.597-1.481l-.026-.047.173-.103.03.053c.15.271.643 1.191.621 1.59-.017.297-.433.912-.582 1.122m-3.58-3.47a2 2 0 0 1-.302.436l-.06.058a.29.29 0 0 1 .284.084c.09.1.073.47-.044.536-.17.094-.647-.279-.774-.382q-.15.038-.304.06a.1.1 0 0 1-.112-.089.1.1 0 0 1 .09-.105q.202-.015.399-.061c.08-.02.16-.041.233-.072a.7.7 0 0 0 .204-.121c.126-.103.234-.237.332-.377a3.4 3.4 0 0 0 .26-.446 3.5 3.5 0 0 1-.207.478m-2.791-.636a1.04 1.04 0 1 1 .29-2.038 1.577 1.577 0 1 1 .747.962l.003.037a1.04 1.04 0 0 1-1.04 1.04m8.112 3.286h.1l-.072-.07.073-.07-.101.001c-.006-.675-.129-1.746-.311-2.729a12 12 0 0 0-.227-1.02c-.576-2.065-2.123-3.685-4.357-4.563-.672-.265-2.214-.266-2.76.083C2.369 3.835 3.1 6.525 3.34 7.408c.235.865.94 2.001 2.154 2.358l.796.075-.677.06a.43.43 0 0 1-.022.219l.378.016-.41.069a1 1 0 0 1-.1.183c-.08.11-.22.23-.368.358-.18.156-.385.333-.448.468a2 2 0 0 0-.064.157c-.13.366-.201.919-.202 1.556-.002.794.107 1.613.278 2.085.198.551 1.161 1.4 1.689 1.683q.202.108.584.183l-.02.1.002-.002.019-.098a8 8 0 0 0 1.64.12c.368-.016 1.474-.329 1.823-.43l-.251-.615.186-.076.883 2.158.763.072v-.482l-.696-.56-.323-1.506.197-.042.115.54c.225-.293.564-.75.72-1.035a1 1 0 0 0 .056-.115c.397-.96.589-3.123.621-4.342z" clip-rule="evenodd"/></g><mask id="c" width="2" height="3" x="6" y="16" maskUnits="userSpaceOnUse" style="mask-type:alpha"><path fill="#fff" d="M6.444 16.957c.097.37.274.968.419 1.153.141.18.677.493.996.666v-1.151c-.176.009-.49.013-.62-.057-.136-.073-.316-.367-.394-.502a3 3 0 0 1-.4-.109"/></mask><g mask="url(#c)"><path fill="#356C00" fill-rule="evenodd" d="M6.444 16.957c.097.37.274.968.419 1.153.141.18.677.493.996.666v-1.151c-.176.009-.49.013-.62-.057-.136-.073-.316-.367-.394-.502a3 3 0 0 1-.4-.109" clip-rule="evenodd"/></g><path fill="#FECD0F" fill-rule="evenodd" d="M9.687 11.488c-.15.112-.398.086-.66.058a3 3 0 0 0-.303-.023.4.4 0 0 0-.175.028c-.124.062-.312.39-.314.547q0 .033.008.067v.002c.055.247.352.633.45.76q.027.038.07.086c.225.27.336.284.366.285.083-.003.297-.207.453-.402.028-.177.161-.958.377-1.171.14-.138.548-.228.799-.272l-.803-.923c-.019.322-.078.816-.268.958m-1.218 6.13H8.06v.965l1.33 1.319zm-.405-4.878c.063.112.232.178.41.212a3.4 3.4 0 0 1-.338-.51c-.055.14-.087.261-.072.298" clip-rule="evenodd"/><path fill="#fff" fill-rule="evenodd" d="M5.006 4.784a.754.754 0 1 1 1.51 0 .755.755 0 0 1-1.51 0M4.418 6.73a.537.537 0 1 1 .001-1.074.537.537 0 0 1 0 1.074m1.947-.37a1.576 1.576 0 1 0-1.521-1.165 1.04 1.04 0 1 0 .749.999l-.002-.037c.228.13.492.204.774.204" clip-rule="evenodd"/><path fill="#000" fill-rule="evenodd" d="M6.958 8.213a.7.7 0 0 1-.204.12 1.5 1.5 0 0 1-.233.073q-.196.045-.399.061a.1.1 0 0 0-.09.105.1.1 0 0 0 .112.09 3 3 0 0 0 .42-.092q.129-.037.255-.097a.7.7 0 0 0 .163-.11l.06-.058c.126-.132.22-.283.301-.437q.121-.232.206-.478a3.4 3.4 0 0 1-.26.446c-.097.14-.205.274-.331.377" clip-rule="evenodd"/><path fill="#CA1117" fill-rule="evenodd" d="m6.564 8.57-.116.031c.127.103.604.476.774.382.117-.067.134-.436.044-.536a.29.29 0 0 0-.284-.084.7.7 0 0 1-.163.11q-.127.059-.255.097" clip-rule="evenodd"/><path fill="#000" fill-rule="evenodd" d="M6.516 4.784a.755.755 0 1 0-1.51 0 .755.755 0 0 0 1.51 0m-2.098.872a.537.537 0 1 0 .001 1.075.537.537 0 0 0-.001-1.075" clip-rule="evenodd"/><path fill="#FECD0F" fill-rule="evenodd" d="M3.485 11.117q-.117.005-.158.08c-.085.155.061.522.226.813l.006.012.01.017.017.029-.09.045-.01-.018-.015-.024-.005-.01c-.163-.264-.396-.54-.559-.516-.108.015-.174.169-.21.295-.013.044.058.14.11.21.044.06.086.117.103.167a1 1 0 0 1 .027.204c.006.092.012.197.042.241.064.092.24.27.358.27h.002c.036 0 .112-.088.157-.168l.133-.233-.039.265c-.016.11-.008.23.017.246.138.093.413-.025.57-.113v-.003c0-.628.07-1.18.195-1.566a4 4 0 0 0-.424-.185 2 2 0 0 0-.463-.058" clip-rule="evenodd"/><path fill="#000" fill-rule="evenodd" d="M11.987 15.022c-.156.286-.495.742-.72 1.034l-.115-.54-.197.043.322 1.507.697.559v.482l-.763-.072-.883-2.158-.186.076.251.615c-.35.101-1.455.414-1.823.43a8 8 0 0 1-1.64-.12l-.02.098-.001.002.02-.1q-.382-.075-.584-.183c-.528-.282-1.491-1.132-1.69-1.683-.17-.472-.28-1.29-.277-2.085 0-.637.073-1.19.202-1.556q.033-.09.064-.157c.063-.135.268-.312.448-.468a2.6 2.6 0 0 0 .368-.358 1 1 0 0 0 .1-.184l.41-.068-.378-.016a.43.43 0 0 0 .022-.22l.677-.059-.796-.075c-1.214-.357-1.919-1.493-2.154-2.358-.24-.884-.972-3.573 1.669-5.257.546-.349 2.088-.348 2.76-.083 2.234.878 3.78 2.498 4.357 4.563.075.27.154.622.226 1.02.183.983.305 2.054.312 2.729l.1-.001-.072.07.073.07h-.101l-.001.046c-.032 1.22-.224 3.382-.621 4.342a1 1 0 0 1-.056.115m-.039 1.999.82.432q.034.018.053.049c.196.322 1.179 1.965 1.296 2.612.006.037-.012.177-.035.294a.04.04 0 0 1-.025.031.04.04 0 0 1-.038-.008c-.508-.503-.838-.887-.929-1.082-.096-.207-.157-.892-.173-1.147a.16.16 0 0 0-.096-.123.16.16 0 0 0-.156.021l-.49.375v-.947l-.227-.183zm-4.709.547c.13.07.444.066.62.057v1.15c-.319-.172-.855-.485-.996-.665-.145-.185-.322-.782-.419-1.153q.172.061.4.109c.079.135.26.429.395.502m-3.063-4.642v.003c-.156.088-.43.206-.569.113-.025-.017-.033-.136-.017-.246l.039-.265-.133.233c-.045.08-.12.168-.157.169h-.002c-.119 0-.294-.18-.358-.271-.03-.044-.037-.149-.042-.241a1 1 0 0 0-.028-.204.7.7 0 0 0-.102-.167c-.052-.07-.123-.166-.11-.21.036-.126.102-.28.21-.295.162-.023.396.252.559.516l.005.01.015.024.01.018.09-.045-.017-.03-.01-.016-.006-.012c-.165-.291-.31-.658-.226-.813q.04-.075.158-.08c.117-.006.352.027.463.057.094.026.33.14.424.186-.125.387-.195.938-.196 1.566M14.547 9.6c1.292.83 3.085.696 3.527.648.064.435.16 1.35-.002 1.614-.161.263-.691.458-1.159.63-.35.127-.68.248-.88.399a1.6 1.6 0 0 0-.301.322c-.178.24-.35.554-.515.858-.205.376-.417.764-.618.958-.23.222-.868.575-1.188.576-.256 0-.9-.377-1.207-.572q.014-.024.024-.049c.434-1.047.604-3.285.636-4.37l2.102 2.055-2.1-2.33c-.01-.613-.108-1.526-.259-2.41.42.412 1.325 1.276 1.94 1.671m-6.486 8.02h.408l.923 2.283-1.331-1.319zm5.35-1.812c.383-.002 1.07-.385 1.328-.633.223-.215.433-.6.655-1.007.162-.297.33-.605.5-.834q.14-.19.26-.282c.177-.132.493-.248.828-.37.523-.192 1.064-.39 1.262-.714.245-.4.038-1.7.013-1.847l-.016-.097-.097.014c-.021.003-2.1.285-3.488-.606-.732-.47-1.937-1.672-2.11-1.847-.073-.391-.15-.739-.225-1.007-.594-2.127-2.184-3.795-4.477-4.697-.65-.255-2.294-.313-2.943.102-2.765 1.763-2.004 4.56-1.754 5.48.248.91.991 2.105 2.273 2.491.007.054-.052.22-.122.316-.067.09-.198.204-.337.325-.205.177-.417.36-.5.534a2 2 0 0 0-.056.136 4 4 0 0 0-.43-.187 2 2 0 0 0-.495-.06q-.174.009-.241.132c-.066.12-.036.3.026.48-.116-.117-.246-.202-.372-.184q-.196.028-.293.368c-.026.09.051.195.126.297.037.051.076.104.088.14.013.039.018.11.022.177.007.11.014.224.06.292.047.067.261.32.444.314.05 0 .1-.036.142-.08.004.07.022.14.069.172a.32.32 0 0 0 .185.051c.154 0 .327-.074.441-.133.008.779.12 1.568.29 2.038.211.588 1.17 1.447 1.743 1.769.05.21.28 1.11.494 1.384.225.286 1.11.747 1.21.799l.147.075v-.242l1.265 1.255a.18.18 0 0 0 .225.022.18.18 0 0 0 .068-.217l-1.014-2.509H8.06v-.008l-.109.009c-.205.016-.533.018-.617-.027-.048-.026-.137-.142-.224-.277a8.5 8.5 0 0 0 1.467.085c.403-.017 1.56-.347 1.892-.444l.6 1.47.904.084v.26a.155.155 0 0 0 .25.123l.498-.382c.019.244.075.887.186 1.125.13.276.599.772.97 1.139a.24.24 0 0 0 .246.055.23.23 0 0 0 .157-.19c.012-.062.05-.269.034-.36-.12-.666-1.042-2.221-1.322-2.682a.34.34 0 0 0-.13-.122l-.87-.458a.17.17 0 0 0-.246.15v.217l-.288-.23-.136-.64c.225-.289.585-.764.787-1.102.26.165.967.595 1.301.595" clip-rule="evenodd"/><path fill="#000" fill-rule="evenodd" d="M9.96 11.725c-.216.213-.35.994-.378 1.171-.156.195-.37.399-.453.402-.03 0-.14-.016-.366-.285l-.07-.086c-.098-.127-.395-.513-.45-.76v-.002a.3.3 0 0 1-.008-.067c.003-.158.19-.485.314-.547a.4.4 0 0 1 .175-.028c.093 0 .201.012.302.023.263.028.51.054.661-.059.19-.14.25-.635.268-.957l.803.923c-.25.044-.66.134-.799.272M8.063 12.74c-.014-.037.016-.159.07-.299.085.173.21.356.325.51-.171-.033-.334-.1-.395-.211m2.792-4.166-.174.102.026.048c.285.512.612 1.208.598 1.481-.012.208-.33.707-.517.977l-.385-.442c.072-.17.256-.628.239-.831-.024-.261-.418-.846-.462-.912l-.167.113c.158.232.414.66.428.817.01.113-.092.411-.185.643l-.494-.568v.268c-.002.368-.065.958-.196 1.056-.087.066-.317.041-.52.02-.228-.025-.444-.048-.588.025-.201.101-.422.511-.425.725q0 .032.004.063c-.08.16-.238.515-.151.676.15.276.574.332.753.343q.279.322.486.321h.011c.221-.009.53-.385.62-.5l.016-.02.004-.026c.052-.348.186-.95.324-1.085.101-.1.567-.203.866-.244l.184-.025-.226-.26c.148-.21.565-.826.582-1.123.02-.398-.472-1.318-.622-1.589z" clip-rule="evenodd"/><defs><linearGradient id="b" x1="6.839" x2="12.199" y1="1.878" y2="15.837" gradientUnits="userSpaceOnUse"><stop stop-color="#B8E27F"/><stop offset="1" stop-color="#2A6700"/></linearGradient></defs></svg>