<svg xmlns="http://www.w3.org/2000/svg" fill="none" viewBox="0 0 24 24"><path fill="#000" fill-rule="evenodd" d="M18.962 18.35a.145.145 0 0 0-.207-.008l-.002.003a.144.144 0 0 0-.002.208l3.249 3.2-3.038-3.403Zm-1.226-5.016-.003.004a.145.145 0 0 0-.002.207l3.388 3.333-3.175-3.536a.145.145 0 0 0-.208-.008Z" clip-rule="evenodd"/><path fill="#FECD0F" fill-rule="evenodd" d="m14.966 12.67-2.102-2.055c-.032 1.084-.202 3.322-.636 4.37-.006.016-.016.032-.023.049.306.195.95.571 1.206.571.32 0 .958-.354 1.188-.576.2-.194.413-.582.618-.958.166-.303.337-.617.515-.858.106-.143.205-.249.302-.322.2-.15.53-.272.88-.4.467-.171.997-.365 1.158-.63.162-.263.067-1.178.002-1.613-.442.048-2.235.182-3.527-.648-.615-.395-1.52-1.26-1.94-1.67.15.883.25 1.796.259 2.41l2.1 2.33Z" clip-rule="evenodd"/><path fill="#000" fill-rule="evenodd" d="m14.83 18.794-.003.002a.144.144 0 0 0-.002.207l3.262 3.217-3.05-3.418a.145.145 0 0 0-.208-.008Zm.626-2.906a.142.142 0 0 0-.1.04.144.144 0 0 0 0 .209l2.29 2.207-2.08-2.406a.142.142 0 0 0-.11-.05Z" clip-rule="evenodd"/><path fill="#FECD0F" fill-rule="evenodd" d="M12.176 18.218v.257l.49-.375a.159.159 0 0 1 .155-.02.155.155 0 0 1 .096.122c.016.255.077.94.173 1.148.091.194.421.578.93 1.08a.035.035 0 0 0 .063-.023c.022-.116.04-.256.034-.293-.117-.647-1.1-2.29-1.296-2.612a.133.133 0 0 0-.052-.05l-.82-.43v.324l.227.182v.69Z" clip-rule="evenodd"/><path fill="#000" fill-rule="evenodd" d="M10.74 19.79h-.002a.145.145 0 0 0-.002.209l2.38 2.321-2.168-2.518a.144.144 0 0 0-.209-.011Z" clip-rule="evenodd"/><mask id="a" width="10" height="18" x="3" y="1" maskUnits="userSpaceOnUse" style="mask-type:alpha"><path fill="#fff" d="m10.924 11.339.226.26-.184.025c-.298.041-.764.144-.866.244-.137.136-.271.738-.323 1.085l-.004.026-.016.02c-.09.116-.4.491-.62.5h-.011c-.14 0-.3-.106-.487-.32-.178-.012-.603-.068-.752-.344-.087-.16.071-.517.15-.676a.489.489 0 0 1-.003-.063c.003-.214.223-.624.424-.725.145-.073.36-.05.59-.025.202.021.431.046.519-.02.13-.098.194-.688.195-1.056v-.268l.494.568c.094-.232.196-.53.186-.643-.015-.158-.27-.585-.428-.817l.166-.113c.045.066.438.65.462.912.018.203-.166.661-.238.83l.384.443c.187-.27.505-.768.517-.977.015-.273-.313-.969-.597-1.481l-.026-.047.173-.103.03.054c.15.27.643 1.19.621 1.588-.017.298-.433.913-.582 1.123Zm-3.581-3.47a1.923 1.923 0 0 1-.301.436l-.06.058a.287.287 0 0 1 .283.084c.091.1.074.47-.043.536-.17.094-.647-.279-.774-.382-.1.026-.201.046-.304.06a.098.098 0 0 1-.112-.089.098.098 0 0 1 .09-.105c.134-.01.269-.03.399-.06.08-.02.16-.042.233-.073a.74.74 0 0 0 .203-.121c.127-.103.235-.237.333-.377.096-.14.184-.29.26-.446a3.509 3.509 0 0 1-.207.479Zm-2.79-.636a1.04 1.04 0 1 1 .29-2.038 1.577 1.577 0 1 1 .747.962 1.04 1.04 0 0 1-1.038 1.076Zm8.112 3.286h.1l-.072-.07.072-.07-.1.001c-.007-.675-.129-1.746-.311-2.729a12.14 12.14 0 0 0-.227-1.02c-.576-2.065-2.123-3.685-4.357-4.563-.672-.265-2.214-.266-2.76.083C2.369 3.835 3.1 6.525 3.34 7.408c.235.865.94 2.001 2.154 2.358l.796.075-.677.06a.433.433 0 0 1-.022.219l.378.017-.41.067a.957.957 0 0 1-.1.184c-.081.11-.22.23-.368.358-.18.156-.385.333-.448.468a1.794 1.794 0 0 0-.064.157c-.13.366-.201.919-.203 1.556-.001.794.108 1.613.278 2.085.199.551 1.162 1.4 1.69 1.683.134.072.33.133.583.183l-.02.1.002-.002.02-.098a7.88 7.88 0 0 0 1.64.12c.368-.016 1.474-.329 1.823-.43l-.251-.615.186-.076.883 2.158.763.072v-.482l-.697-.56-.322-1.506.197-.042.115.54c.224-.293.564-.75.72-1.035.021-.04.04-.079.056-.115.397-.96.589-3.123.62-4.342l.002-.046Z"/></mask><g mask="url(#a)"><path fill="url(#b)" fill-rule="evenodd" d="m10.924 11.339.226.26-.184.025c-.298.041-.764.144-.866.244-.137.136-.271.738-.323 1.085l-.004.026-.016.02c-.09.116-.4.491-.62.5h-.011c-.14 0-.3-.106-.487-.32-.178-.012-.603-.068-.752-.344-.087-.16.071-.517.15-.676a.489.489 0 0 1-.003-.063c.003-.214.223-.624.424-.725.145-.073.36-.05.59-.025.202.021.431.046.519-.02.13-.098.194-.688.195-1.056v-.268l.494.568c.094-.232.196-.53.186-.643-.015-.158-.27-.585-.428-.817l.166-.113c.045.066.438.65.462.912.018.203-.166.661-.238.83l.384.443c.187-.27.505-.768.517-.977.015-.273-.313-.969-.597-1.481l-.026-.047.173-.103.03.054c.15.27.643 1.19.621 1.588-.017.298-.433.913-.582 1.123Zm-3.581-3.47a1.923 1.923 0 0 1-.301.436l-.06.058a.287.287 0 0 1 .283.084c.091.1.074.47-.043.536-.17.094-.647-.279-.774-.382-.1.026-.201.046-.304.06a.098.098 0 0 1-.112-.089.098.098 0 0 1 .09-.105c.134-.01.269-.03.399-.06.08-.02.16-.042.233-.073a.74.74 0 0 0 .203-.121c.127-.103.235-.237.333-.377.096-.14.184-.29.26-.446a3.509 3.509 0 0 1-.207.479Zm-2.79-.636a1.04 1.04 0 1 1 .29-2.038 1.577 1.577 0 1 1 .747.962 1.04 1.04 0 0 1-1.038 1.076Zm8.112 3.286h.1l-.072-.07.072-.07-.1.001c-.007-.675-.129-1.746-.311-2.729a12.14 12.14 0 0 0-.227-1.02c-.576-2.065-2.123-3.685-4.357-4.563-.672-.265-2.214-.266-2.76.083C2.369 3.835 3.1 6.525 3.34 7.408c.235.865.94 2.001 2.154 2.358l.796.075-.677.06a.433.433 0 0 1-.022.219l.378.017-.41.067a.957.957 0 0 1-.1.184c-.081.11-.22.23-.368.358-.18.156-.385.333-.448.468a1.794 1.794 0 0 0-.064.157c-.13.366-.201.919-.203 1.556-.001.794.108 1.613.278 2.085.199.551 1.162 1.4 1.69 1.683.134.072.33.133.583.183l-.02.1.002-.002.02-.098a7.88 7.88 0 0 0 1.64.12c.368-.016 1.474-.329 1.823-.43l-.251-.615.186-.076.883 2.158.763.072v-.482l-.697-.56-.322-1.506.197-.042.115.54c.224-.293.564-.75.72-1.035.021-.04.04-.079.056-.115.397-.96.589-3.123.62-4.342l.002-.046Z" clip-rule="evenodd"/></g><mask id="c" width="2" height="3" x="6" y="16" maskUnits="userSpaceOnUse" style="mask-type:alpha"><path fill="#fff" d="M6.444 16.957c.097.37.274.968.419 1.153.141.18.677.493.996.666v-1.15c-.176.008-.49.012-.62-.058-.135-.073-.316-.367-.394-.502a2.978 2.978 0 0 1-.4-.109Z"/></mask><g mask="url(#c)"><path fill="#356C00" fill-rule="evenodd" d="M6.444 16.957c.097.37.274.968.419 1.153.141.18.677.493.996.666v-1.15c-.176.008-.49.012-.62-.058-.135-.073-.316-.367-.394-.502a2.978 2.978 0 0 1-.4-.109Z" clip-rule="evenodd"/></g><path fill="#FECD0F" fill-rule="evenodd" d="M9.687 11.488c-.15.112-.398.086-.66.058a3.024 3.024 0 0 0-.303-.023.415.415 0 0 0-.175.028c-.124.062-.312.39-.314.547 0 .021.003.045.008.067v.002c.055.247.352.633.45.76a1.7 1.7 0 0 0 .07.086c.225.27.336.284.366.285.083-.003.297-.207.453-.402.028-.177.161-.958.377-1.171.14-.138.548-.228.799-.272l-.803-.923c-.019.322-.078.816-.268.958Zm-1.218 6.131h-.408v.964l1.33 1.32-.922-2.284Zm-.405-4.879c.063.112.232.178.41.212a3.435 3.435 0 0 1-.338-.51c-.055.14-.087.261-.072.298Z" clip-rule="evenodd"/><path fill="#fff" fill-rule="evenodd" d="M5.006 4.784a.754.754 0 1 1 1.508-.002.754.754 0 0 1-1.508.002ZM4.418 6.73a.537.537 0 1 1 0-1.074.537.537 0 0 1 0 1.074Zm1.947-.37a1.576 1.576 0 1 0-1.521-1.165 1.04 1.04 0 1 0 .749.999l-.002-.037c.228.13.492.204.774.204Z" clip-rule="evenodd"/><path fill="#000" fill-rule="evenodd" d="M6.957 8.213a.74.74 0 0 1-.203.12 1.46 1.46 0 0 1-.233.073c-.13.03-.265.05-.4.061a.098.098 0 0 0-.089.105.098.098 0 0 0 .112.09 3.116 3.116 0 0 0 .42-.092c.085-.026.171-.056.255-.097a.715.715 0 0 0 .163-.11l.06-.058c.126-.132.22-.282.301-.437.08-.155.15-.314.206-.478a3.439 3.439 0 0 1-.26.446 1.8 1.8 0 0 1-.332.377Z" clip-rule="evenodd"/><path fill="#CA1117" fill-rule="evenodd" d="M6.564 8.57a3.71 3.71 0 0 1-.116.031c.127.103.604.477.774.382.117-.067.134-.436.044-.536a.287.287 0 0 0-.284-.084.715.715 0 0 1-.163.11c-.084.04-.17.071-.255.097Z" clip-rule="evenodd"/><path fill="#000" fill-rule="evenodd" d="M6.516 4.784a.755.755 0 1 0-1.51 0 .755.755 0 0 0 1.51 0Zm-2.098.872a.537.537 0 1 0 .001 1.075.537.537 0 0 0-.001-1.075Z" clip-rule="evenodd"/><path fill="#FECD0F" fill-rule="evenodd" d="M3.485 11.117c-.079.004-.13.03-.158.08-.085.155.061.522.226.813l.006.012.01.017a.37.37 0 0 1 .017.029l-.09.045-.01-.018a.225.225 0 0 1-.015-.024l-.005-.01c-.163-.264-.397-.54-.559-.516-.108.015-.174.169-.21.295-.013.044.058.14.11.21a.7.7 0 0 1 .102.167.872.872 0 0 1 .028.204c.005.092.012.197.042.241.063.092.24.27.358.27h.002c.036 0 .112-.088.157-.168l.133-.233-.04.265c-.015.11-.007.23.018.246.138.094.413-.025.57-.113v-.003c0-.628.07-1.18.195-1.566a3.813 3.813 0 0 0-.424-.185 1.979 1.979 0 0 0-.463-.058Z" clip-rule="evenodd"/><path fill="#000" fill-rule="evenodd" d="M11.987 15.022c-.156.286-.495.742-.72 1.034l-.115-.54-.197.043.322 1.507.697.559v.482l-.763-.072-.883-2.158-.186.076.251.615c-.35.101-1.455.414-1.823.43a7.884 7.884 0 0 1-1.64-.12l-.02.098-.001.002.02-.1a2.18 2.18 0 0 1-.584-.183c-.528-.282-1.491-1.132-1.69-1.683-.17-.472-.28-1.29-.277-2.085 0-.637.073-1.19.202-1.556.022-.061.043-.112.064-.157.063-.135.268-.312.448-.468a2.64 2.64 0 0 0 .368-.358 1.03 1.03 0 0 0 .1-.184l.41-.068-.378-.016a.433.433 0 0 0 .022-.22l.677-.059-.796-.075C4.281 9.41 3.576 8.273 3.341 7.408c-.24-.883-.972-3.573 1.669-5.257.546-.349 2.088-.348 2.76-.083 2.234.878 3.78 2.498 4.357 4.563.075.27.154.622.226 1.02.183.983.305 2.054.312 2.729l.1-.001-.072.07.073.07h-.101l-.001.046c-.032 1.22-.224 3.383-.621 4.342a1.173 1.173 0 0 1-.056.115Zm-.039 2 .82.43a.15.15 0 0 1 .053.05c.196.322 1.179 1.965 1.296 2.612.006.037-.012.177-.035.294a.036.036 0 0 1-.025.031.034.034 0 0 1-.038-.008c-.508-.503-.838-.887-.929-1.081-.096-.208-.157-.893-.173-1.148a.155.155 0 0 0-.096-.123.159.159 0 0 0-.156.021l-.49.375v-.947l-.227-.182v-.325Zm-4.709.546c.13.07.444.066.62.057v1.15c-.319-.172-.855-.484-.996-.665-.145-.185-.322-.782-.419-1.153.114.041.248.077.4.109.079.135.26.429.395.502Zm-3.063-4.642v.003c-.156.088-.43.206-.569.113-.025-.017-.033-.136-.017-.246l.039-.265-.133.233c-.045.08-.12.168-.157.169h-.002c-.119 0-.294-.18-.358-.271-.03-.044-.037-.149-.042-.241a.872.872 0 0 0-.028-.204.7.7 0 0 0-.102-.167c-.052-.07-.123-.166-.11-.21.036-.126.102-.28.21-.295.162-.023.396.252.559.516l.005.01a.24.24 0 0 0 .015.024l.01.018.09-.045-.017-.03-.01-.016-.006-.012c-.165-.291-.31-.658-.226-.813.027-.05.08-.076.158-.08.117-.006.352.027.463.057.094.026.33.14.424.187-.125.386-.195.937-.196 1.565ZM14.547 9.6c1.292.83 3.085.696 3.527.648.064.435.16 1.35-.002 1.614-.161.263-.691.458-1.159.63-.35.127-.68.248-.88.399a1.583 1.583 0 0 0-.301.322c-.178.24-.35.555-.515.858-.205.376-.417.764-.618.958-.23.222-.868.575-1.188.576-.256 0-.9-.376-1.207-.572.008-.016.018-.032.024-.049.434-1.046.604-3.285.636-4.37l2.102 2.055-2.1-2.329c-.01-.614-.108-1.527-.259-2.411.42.412 1.325 1.276 1.94 1.671Zm-6.486 8.02h.408l.923 2.283-1.331-1.319v-.964Zm5.35-1.812c.383-.002 1.07-.385 1.328-.633.223-.215.433-.6.655-1.007.162-.297.33-.605.5-.834.094-.128.18-.22.26-.281.177-.133.493-.249.828-.372.523-.191 1.064-.39 1.262-.713.245-.4.038-1.7.013-1.847l-.016-.097-.097.014c-.021.003-2.1.285-3.488-.606-.732-.47-1.937-1.672-2.11-1.847-.073-.391-.15-.739-.225-1.007-.594-2.127-2.184-3.795-4.477-4.697-.65-.255-2.294-.313-2.943.102-2.765 1.763-2.004 4.56-1.754 5.48.248.91.991 2.105 2.273 2.491.007.054-.052.22-.122.316-.067.09-.198.204-.337.325-.205.177-.417.36-.5.534-.018.04-.037.086-.056.136a3.694 3.694 0 0 0-.43-.186 2.049 2.049 0 0 0-.495-.062c-.115.007-.197.051-.241.133-.066.12-.036.301.026.48-.116-.117-.246-.202-.372-.184-.13.018-.229.142-.293.368-.026.09.051.196.126.297a.662.662 0 0 1 .088.14c.013.039.018.11.022.177.007.11.014.224.06.292.047.067.261.32.444.315.05-.001.1-.037.142-.08.004.07.022.14.069.171a.321.321 0 0 0 .185.051c.154 0 .327-.074.441-.133.008.779.12 1.568.29 2.038.211.588 1.17 1.447 1.743 1.769.05.21.28 1.11.494 1.384.225.286 1.11.747 1.21.799l.147.075v-.241l1.265 1.254a.178.178 0 0 0 .225.022.178.178 0 0 0 .068-.217l-1.014-2.509H8.06v-.008l-.109.009c-.205.016-.533.018-.617-.027-.048-.026-.137-.142-.224-.277a8.521 8.521 0 0 0 1.467.085c.403-.017 1.56-.347 1.892-.444l.6 1.47.904.084v.26c0 .06.034.113.087.14.053.026.116.02.163-.017l.498-.382c.019.244.075.887.186 1.125.13.276.599.772.97 1.139a.236.236 0 0 0 .246.055.232.232 0 0 0 .157-.19c.012-.062.05-.269.034-.36-.12-.666-1.042-2.221-1.322-2.682a.337.337 0 0 0-.13-.122l-.87-.458a.168.168 0 0 0-.246.15v.217l-.288-.23-.136-.64c.225-.289.585-.764.787-1.102.26.165.967.595 1.301.595Z" clip-rule="evenodd"/><path fill="#000" fill-rule="evenodd" d="M9.959 11.725c-.215.213-.35.994-.377 1.171-.156.195-.37.399-.453.402-.03 0-.14-.016-.367-.285a1.706 1.706 0 0 1-.07-.086c-.097-.127-.394-.513-.448-.76v-.002a.285.285 0 0 1-.009-.067c.003-.158.19-.485.314-.547a.413.413 0 0 1 .175-.028c.092 0 .201.012.302.023.263.028.51.054.661-.058.19-.142.25-.636.268-.958l.803.923c-.25.044-.66.134-.8.272ZM8.064 12.74c-.015-.037.016-.159.07-.298.084.172.21.355.325.51-.172-.034-.334-.1-.395-.212Zm2.791-4.166-.173.103s.01.016.026.047c.285.512.612 1.208.597 1.481-.011.209-.33.707-.517.977l-.384-.442c.072-.17.256-.628.238-.831-.024-.261-.417-.846-.462-.912l-.166.113c.158.232.413.66.428.817.01.114-.092.411-.185.643l-.494-.568-.001.268c-.001.368-.064.958-.195 1.056-.088.066-.317.041-.52.02-.228-.025-.444-.048-.588.025-.202.101-.422.511-.425.725 0 .021.001.042.004.063-.08.16-.238.516-.151.676.15.276.574.332.752.343.188.215.348.322.487.322h.011c.22-.01.53-.385.62-.5l.016-.021.004-.026c.052-.347.186-.949.323-1.085.102-.1.568-.203.866-.244l.184-.025-.226-.26c.149-.21.566-.825.582-1.123.022-.398-.47-1.318-.621-1.588l-.03-.054Z" clip-rule="evenodd"/><defs><linearGradient id="b" x1="6.839" x2="12.199" y1="1.879" y2="15.837" gradientUnits="userSpaceOnUse"><stop stop-color="#B8E27F"/><stop offset="1" stop-color="#2A6700"/></linearGradient></defs></svg>