<svg xmlns="http://www.w3.org/2000/svg" fill="none" viewBox="0 0 24 24"><g clip-path="url(#a)"><path fill="#13A0F6" d="M12 24c6.627 0 12-5.373 12-12S18.627 0 12 0 0 5.373 0 12s5.373 12 12 12"/><path fill="#fff" fill-rule="evenodd" d="M6.858 9.368a1.65 1.65 0 0 1-.882-1.46 1.643 1.643 0 1 1 3.095-.77 6.05 6.05 0 0 1 3.06-.827c3.359 0 6.083 2.73 6.083 6.095S15.49 18.5 12.13 18.5s-6.082-2.728-6.082-6.094a6.1 6.1 0 0 1 .809-3.038m5.273 6.036a2.995 2.995 0 0 0 2.992-2.998 2.995 2.995 0 0 0-2.992-2.999 2.995 2.995 0 0 0-2.991 2.999 2.995 2.995 0 0 0 2.991 2.998" clip-rule="evenodd"/></g><defs><clipPath id="a"><path fill="#fff" d="M0 0h24v24H0z"/></clipPath></defs></svg>