<svg xmlns="http://www.w3.org/2000/svg" fill="none" viewBox="0 0 24 24"><path fill="#000" d="M22.08 12c0-5.523-4.477-10-10-10s-10 4.477-10 10 4.477 10 10 10 10-4.477 10-10"/><path fill="#D85111" d="M13.58 7.336A2.5 2.5 0 0 0 12.328 7H9.832c.692 0 1.248.56 1.248 1.248V12h1.248a2.507 2.507 0 0 0 2.5-2.5c0-.924-.5-1.732-1.248-2.164"/><path fill="#fff" d="M14.292 11.048a2.5 2.5 0 0 1-1.96.952H11.08V8.248a1.25 1.25 0 0 0-2.5 0V17h4.372q.324.001.624-.064a3.125 3.125 0 0 0 2.5-3.064 3.12 3.12 0 0 0-1.784-2.824"/></svg>