<svg xmlns="http://www.w3.org/2000/svg" fill="none" viewBox="0 0 24 24"><path fill="#62757E" fill-rule="evenodd" d="M19.983 7.913v12.42c0 .919-.746 1.667-1.665 1.667H6.666A1.67 1.67 0 0 1 5 20.333V3.667C5 2.748 5.747 2 6.665 2h7.491c.039 0 .071.017.108.022a1 1 0 0 1 .105.021c.143.039.276.1.377.202l4.903 4.909c.027.018.04.05.063.071.025.023.044.049.066.075a.8.8 0 0 1 .222.533c0 .029-.013.053-.017.08M14.99 4.845V7h2.153zm3.33 3.821h-4.162a.83.83 0 0 1-.833-.833V3.627H6.668l-.003 16.706h11.654zm-9.99 2.5h4.995a.833.833 0 0 1 0 1.667H8.33a.833.833 0 0 1 0-1.667m0 2.5h4.995a.833.833 0 0 1 0 1.668H8.33a.833.833 0 0 1 0-1.668m0 2.5h4.995a.832.832 0 1 1 0 1.667H8.33a.833.833 0 0 1 0-1.666m7.492-5h.833a.833.833 0 0 1 0 1.667h-.833a.832.832 0 0 1 0-1.667m0 2.5h.833a.833.833 0 0 1 0 1.668h-.833a.833.833 0 0 1 0-1.668m0 2.5h.833a.832.832 0 1 1 0 1.667h-.833a.832.832 0 0 1 0-1.666" clip-rule="evenodd"/></svg>