<svg xmlns="http://www.w3.org/2000/svg" fill="none" viewBox="0 0 24 24"><path fill="#F3BA2F" d="M13.86 18.61v2.24L11.906 22l-1.897-1.15v-2.24l1.897 1.149 1.954-1.15ZM3.4 10.85 5.297 12v3.85l3.275 1.955v2.241L3.4 17v-6.15Zm17.011 0V17l-5.23 3.046v-2.241l3.277-1.954V12l1.954-1.15Zm-5.23-3.045 1.955 1.149v2.241L13.86 13.15v3.909l-1.897 1.149-1.896-1.15V13.15l-3.391-1.954V8.954l1.954-1.15 3.276 1.955 3.276-1.954Zm-8.505 5 1.896 1.149v2.241l-1.896-1.149v-2.241Zm10.46 0v2.241l-1.897 1.15v-2.242l1.897-1.15ZM5.296 5.85 7.252 7 5.297 8.15v2.24L3.4 9.242V7l1.897-1.15Zm13.219 0L20.469 7v2.241l-1.954 1.15V8.149L16.618 7l1.897-1.15Zm-6.61 0L13.86 7l-1.954 1.15L10.009 7l1.897-1.15Zm0-3.851 5.23 3.046-1.896 1.15-3.276-1.955L8.63 6.195 6.733 5.046 11.906 2Z"/></svg>