<svg xmlns="http://www.w3.org/2000/svg" fill="none" viewBox="0 0 24 24"><path fill="url(#a)" fill-rule="evenodd" d="M12.088 7.569a.922.922 0 0 0-.81.863c-.014.195-.01.209.433 1.347 1.006 2.59 1.25 3.214 1.291 3.302.1.213.24.412.414.592.134.138.222.212.372.312.262.175.393.223 1.415.526.995.295 1.539.49 2.008.723.607.302 1.03.645 1.299 1.051.192.292.362.815.436 1.342.03.206.03.661 0 .848a2.48 2.48 0 0 1-.378 1.025c-.102.151-.066.126.082-.058.418-.52.843-1.407 1.06-2.213a6.63 6.63 0 0 0-3.21-7.543 104.305 104.305 0 0 0-1.33-.697l-.256-.133c-.085-.044-.328-.17-.54-.282l-.53-.275-.517-.27c-.551-.29-.785-.406-.851-.426a1.394 1.394 0 0 0-.292-.045c-.01 0-.052.006-.095.01Z" clip-rule="evenodd"/><path fill="url(#b)" d="M13.29 17.24a4.61 4.61 0 0 0-.203.125 464.612 464.612 0 0 0-1.808 1.115 156.18 156.18 0 0 1-.995.614l-.466.288a99.324 99.324 0 0 1-1.513.941c-.329.2-.709.334-1.098.387a3.387 3.387 0 0 1-.705 0 2.837 2.837 0 0 1-1.327-.538 3.674 3.674 0 0 1-.546-.545 2.827 2.827 0 0 1-.51-1.141 2.14 2.14 0 0 0-.042-.182c-.008-.008.007.138.033.33.027.199.086.487.148.733.485 1.907 1.864 3.457 3.73 4.195a6.39 6.39 0 0 0 1.67.412c.222.025.85.035 1.081.017 1.062-.08 1.986-.393 2.934-.992a261.093 261.093 0 0 1 .944-.596l.387-.244.688-.435.236-.149.008-.005.026-.017.013-.008.173-.11.601-.379c.766-.481.994-.65 1.35-.998.148-.146.372-.394.383-.425.002-.006.042-.068.088-.136.189-.279.314-.62.377-1.023a4.157 4.157 0 0 0 0-.847 4.31 4.31 0 0 0-.321-1.137c-.225-.472-.704-.9-1.393-1.245a2.993 2.993 0 0 0-.408-.181c-.01 0-.65.392-1.423.87a6696.743 6696.743 0 0 0-1.67 1.031l-.441.274Z"/><path fill="url(#c)" d="m4.066 14.946.003 3.33.043.193c.135.604.368 1.04.774 1.445a2.735 2.735 0 0 0 1.969.814c.54 0 1.008-.135 1.49-.43l.708-.435.56-.346V8.003c0-2.306-.005-3.675-.012-3.782a2.725 2.725 0 0 0-.803-1.765c-.146-.144-.27-.24-.64-.496A1962.803 1962.803 0 0 1 5.837.362C5.477.115 5.45.098 5.341.059A.98.98 0 0 0 4.91.005a.947.947 0 0 0-.83.75c-.014.063-.017.904-.017 5.468v5.394l.003 3.329Z"/><defs><radialGradient id="a" cx="0" cy="0" r="1" gradientTransform="matrix(-8.1202 -9.37123 6.74303 -5.84285 19.393 16.928)" gradientUnits="userSpaceOnUse"><stop stop-color="#00CACC"/><stop offset="1" stop-color="#048FCE"/></radialGradient><radialGradient id="b" cx="0" cy="0" r="1" gradientTransform="matrix(12.32814 -5.28268 8.80378 20.54531 6.144 21.448)" gradientUnits="userSpaceOnUse"><stop stop-color="#00BBEC"/><stop offset="1" stop-color="#2756A9"/></radialGradient><linearGradient id="c" x1="6.838" x2="6.838" y1="0" y2="20.728" gradientUnits="userSpaceOnUse"><stop stop-color="#00BBEC"/><stop offset="1" stop-color="#2756A9"/></linearGradient></defs></svg>