<svg xmlns="http://www.w3.org/2000/svg" fill="none" viewBox="0 0 24 24"><path fill="url(#a)" fill-rule="evenodd" d="M12.088 7.569a.922.922 0 0 0-.81.863c-.014.195-.01.209.432 1.347 1.007 2.59 1.251 3.214 1.292 3.302.1.213.24.412.414.592.134.138.222.212.371.312.263.175.393.223 1.415.526.996.295 1.54.49 2.008.723.608.302 1.031.644 1.3 1.051.192.292.362.815.436 1.342.029.206.03.661 0 .847a2.48 2.48 0 0 1-.378 1.026c-.102.151-.066.126.081-.058.418-.52.844-1.407 1.061-2.213a6.63 6.63 0 0 0-3.21-7.543 105.966 105.966 0 0 0-1.33-.697l-.257-.133-.54-.282-.529-.275-.517-.27c-.552-.29-.785-.406-.851-.426a1.394 1.394 0 0 0-.292-.045c-.01 0-.052.006-.095.01Z" clip-rule="evenodd"/><path fill="url(#b)" d="M13.29 17.24a4.385 4.385 0 0 0-.203.125 524.592 524.592 0 0 0-1.808 1.115 145.063 145.063 0 0 1-.995.614l-.467.288a100.45 100.45 0 0 1-1.513.941c-.328.2-.708.334-1.097.387a3.394 3.394 0 0 1-.705 0 2.839 2.839 0 0 1-1.327-.538 3.679 3.679 0 0 1-.547-.545 2.828 2.828 0 0 1-.51-1.141 2.146 2.146 0 0 0-.04-.182c-.009-.008.006.138.032.33.027.199.085.487.148.733.485 1.907 1.863 3.457 3.73 4.195.538.213 1.08.346 1.67.412.222.025.85.035 1.081.017 1.061-.08 1.986-.393 2.934-.992a304.056 304.056 0 0 1 .944-.596l.386-.244.688-.435.236-.149.009-.005.026-.017.012-.008.174-.11.601-.379c.766-.481.994-.65 1.35-.998.148-.146.372-.394.383-.425a2.42 2.42 0 0 1 .088-.136c.189-.279.314-.62.376-1.023a4.15 4.15 0 0 0 0-.847 4.316 4.316 0 0 0-.32-1.137c-.225-.472-.704-.9-1.393-1.245a3.001 3.001 0 0 0-.408-.181c-.01 0-.651.392-1.423.87a3802.72 3802.72 0 0 0-1.67 1.031l-.441.274Z"/><path fill="url(#c)" d="m4.066 14.946.003 3.33.043.193c.135.604.368 1.04.774 1.445a2.735 2.735 0 0 0 1.969.814c.54 0 1.008-.135 1.49-.43l.708-.435.56-.346V8.003c0-2.306-.005-3.675-.012-3.782a2.725 2.725 0 0 0-.803-1.765c-.146-.144-.27-.24-.641-.496A1816.45 1816.45 0 0 1 5.837.362C5.479.115 5.45.098 5.342.059A.98.98 0 0 0 4.91.005a.947.947 0 0 0-.831.75c-.013.063-.016.904-.016 5.468v5.394l.003 3.329Z"/><defs><radialGradient id="a" cx="0" cy="0" r="1" gradientTransform="matrix(-8.1202 -9.37123 6.74303 -5.84285 19.393 16.928)" gradientUnits="userSpaceOnUse"><stop stop-color="#00CACC"/><stop offset="1" stop-color="#048FCE"/></radialGradient><radialGradient id="b" cx="0" cy="0" r="1" gradientTransform="matrix(12.32814 -5.28268 8.80378 20.54531 6.144 21.448)" gradientUnits="userSpaceOnUse"><stop stop-color="#00BBEC"/><stop offset="1" stop-color="#2756A9"/></radialGradient><linearGradient id="c" x1="6.837" x2="6.837" y1="0" y2="20.728" gradientUnits="userSpaceOnUse"><stop stop-color="#00BBEC"/><stop offset="1" stop-color="#2756A9"/></linearGradient></defs></svg>