<svg xmlns="http://www.w3.org/2000/svg" fill="none" viewBox="0 0 24 24"><path fill="#62757E" d="M12 4.5c6.496 0 10 5.323 10 7.5s-3.504 7.5-10 7.5S2 14.177 2 12s3.504-7.5 10-7.5m0 1.667c-5.653 0-8.333 4.679-8.333 5.833s2.68 5.833 8.333 5.833 8.333-4.679 8.333-5.833S17.653 6.167 12 6.167m2.563 7.918a.801.801 0 0 1 1.24 1.01 4.9 4.9 0 0 1-3.302 1.784.8.8 0 0 1-.163-1.592 3.3 3.3 0 0 0 2.225-1.202M10.471 7.34a.8.8 0 0 1 .498 1.52 3.305 3.305 0 0 0-.701 5.955.8.8 0 0 1-.84 1.363 4.907 4.907 0 0 1-1.226-7.283 4.9 4.9 0 0 1 2.269-1.555M12 10c1.108 0 2 .892 2 2s-.892 2-2 2-2-.892-2-2 .892-2 2-2m.674-2.127A.8.8 0 0 1 13.7 7.4a4.91 4.91 0 0 1 3.203 4.6.8.8 0 0 1-1.6 0 3.31 3.31 0 0 0-2.158-3.1.8.8 0 0 1-.472-1.027"/></svg>