<svg xmlns="http://www.w3.org/2000/svg" fill="none" viewBox="0 0 24 24"><path fill="#62757E" fill-rule="evenodd" d="M21.298 12.15a.834.834 0 0 1-.954-.692c-.144-.897-.451-1.912-.802-2.647a.834.834 0 0 1 1.503-.719c.421.883.775 2.043.944 3.104a.834.834 0 0 1-.69.955m-2.237-4.98a.83.83 0 0 1-.658-.322 8.18 8.18 0 0 0-6.49-3.181c-1.354 0-2.626.282-3.78.839a.834.834 0 0 1-.725-1.501C8.791 2.338 10.307 2 11.913 2a9.84 9.84 0 0 1 7.806 3.823.835.835 0 0 1-.658 1.346m-8.667-1.125a.83.83 0 0 1-.424 1.1C8.04 8 6.693 10.001 6.693 12.012q0 .434.016.79a.834.834 0 0 1-.8.867h-.034a.833.833 0 0 1-.832-.8q-.016-.385-.017-.857c0-2.65 1.755-5.279 4.268-6.393a.833.833 0 0 1 1.1.425m-6.728 5.943c0 1.159.132 1.87.27 2.625.116.63.236 1.283.297 2.216a.834.834 0 0 1-.777.886l-.055.002a.833.833 0 0 1-.831-.78 16 16 0 0 0-.273-2.024C2.15 14.12 2 13.3 2 11.988c0-2.973 1.12-5.626 3.155-7.47a.833.833 0 1 1 1.119 1.235c-1.682 1.524-2.608 3.738-2.608 6.235m1.87 6.597c.135-.4.223-.665.223-1.076 0-.771-.132-1.259-.26-1.73l-.09-.34a.834.834 0 0 1 1.619-.4l.08.303c.141.523.318 1.175.318 2.167 0 .683-.157 1.153-.31 1.606-.06.183-.127.382-.191.618a.834.834 0 0 1-1.61-.431c.073-.274.15-.505.221-.717m2.685 1.688c.355-.785.589-1.304.589-2.62 0-1.904-.204-2.587-.402-3.247-.175-.584-.355-1.185-.355-2.394 0-2.219 1.66-3.893 3.86-3.893q.386.001.757.068a.833.833 0 1 1-.296 1.64 2.6 2.6 0 0 0-.461-.04c-1.291 0-2.193.915-2.193 2.225 0 .964.125 1.385.284 1.915.222.74.472 1.577.472 3.726 0 1.675-.358 2.467-.736 3.305-.069.153-.14.311-.212.483a.834.834 0 0 1-1.536-.65q.117-.274.23-.518m4.449-3.078h-.008a.834.834 0 0 1-.826-.84c.02-2.232-.619-3.843-.691-4.02l.768-.323.794-.252c.12.28.819 2.103.796 4.61a.834.834 0 0 1-.833.825m-.806 1.593a.833.833 0 1 1 1.654.2c-.22 1.83-.866 2.608-.993 2.745a.833.833 0 0 1-1.237-1.117c.027-.035.423-.56.575-1.828m3.469-8.86c.38.565.644 1.254.786 2.047l.047.263c.313 1.729.607 3.361.052 7.064-.003.015-.246 1.554-.6 2.218a.834.834 0 1 1-1.471-.783c.124-.234.34-1.136.423-1.683.514-3.43.256-4.862-.044-6.52l-.047-.266c-.1-.564-.279-1.037-.53-1.409a.834.834 0 0 1 1.384-.93m-3.262-3.2a.834.834 0 0 1 .119-1.663c3.943.282 6.006 2.973 6.622 5.398l.06.231c.512 2.018.726 2.854.685 5.323a16.7 16.7 0 0 1-.5 3.83.834.834 0 0 1-1.613-.42c.155-.598.42-1.839.446-3.437.037-2.247-.133-2.912-.634-4.885l-.06-.232c-.472-1.861-2.066-3.927-5.125-4.145" clip-rule="evenodd"/></svg>