<svg xmlns="http://www.w3.org/2000/svg" fill="none" viewBox="0 0 24 24"><path fill="#62757e" d="M12.79 18.06c.456.056.783.47.728.927-.22 1.83-.867 2.609-.994 2.746a.833.833 0 0 1-1.236-1.117c.028-.035.422-.56.575-1.828a.835.835 0 0 1 .926-.727m2.86-7.57q.32.662.47 1.485l.046.262c.313 1.73.607 3.363.052 7.066-.005.028-.248 1.555-.6 2.217a.835.835 0 0 1-1.127.344.835.835 0 0 1-.344-1.128c.124-.234.34-1.136.422-1.682.515-3.43.257-4.863-.043-6.52l-.047-.265a5 5 0 0 0-.116-.493zm-5.263 5.263c.054.496.09 1.109.09 1.9 0 1.674-.358 2.467-.737 3.305-.068.152-.14.31-.213.482a.834.834 0 0 1-1.535-.649c.078-.184.155-.354.23-.518.354-.785.588-1.304.588-2.62l-.005-.318zM19.183 2.17a.85.85 0 0 1 1.202 1.202L3.5 20.257a.85.85 0 1 1-1.202-1.202l.666-.667a.83.83 0 0 1-.34-.615c-.054-.835-.22-2.276-.327-2.86C2.15 14.12 2 13.3 2 11.987 2 9.015 3.12 6.362 5.155 4.52a.832.832 0 1 1 1.12 1.234c-1.683 1.523-2.61 3.736-2.61 6.233 0 1.16.132 1.871.27 2.625.095.517.226 1.608.305 2.498l1.274-1.272-.016-.06-.089-.34a.835.835 0 0 1 .609-1.01.83.83 0 0 1 .733.172l1.378-1.378a8.5 8.5 0 0 1-.077-1.21c0-2.218 1.66-3.893 3.86-3.893q.386 0 .757.068a.8.8 0 0 1 .346.149l1.114-1.113a6.2 6.2 0 0 0-2.059-.495.834.834 0 0 1 .119-1.663c1.247.09 2.307.42 3.192.906l.988-.989a8.16 8.16 0 0 0-4.457-1.315c-1.354 0-2.626.282-3.78.839a.834.834 0 0 1-.725-1.501C8.791 2.338 10.307 2 11.913 2c2.062 0 4.02.632 5.658 1.781zm-1.328 6.113a7.4 7.4 0 0 1 .956 2.179l.06.231c.513 2.018.727 2.855.686 5.324a16.7 16.7 0 0 1-.5 3.829.834.834 0 0 1-1.614-.42c.156-.598.42-1.839.447-3.437.036-2.246-.133-2.912-.634-4.885l-.06-.232a5.6 5.6 0 0 0-.554-1.375zM7.116 19.115c-.06.184-.128.382-.191.618a.834.834 0 0 1-1.02.59l-.066-.022L7.16 18.98zm5.991-6.083c.205.82.408 1.978.396 3.338a.834.834 0 0 1-.833.825h-.009a.835.835 0 0 1-.825-.84 12 12 0 0 0-.142-1.91zM9.295 5.62a.833.833 0 0 1 .675 1.525C8.04 8 6.692 10.002 6.692 12.013q.001.434.017.79a.834.834 0 0 1-.799.867h-.035a.834.834 0 0 1-.832-.799q-.016-.386-.017-.858c0-2.65 1.756-5.279 4.269-6.393m10.64 2.08a.833.833 0 0 1 1.11.393c.421.882.775 2.043.944 3.103a.834.834 0 0 1-1.645.263c-.144-.898-.451-1.914-.802-2.648a.834.834 0 0 1 .393-1.112m-.046-1.449a.834.834 0 0 1-.913.913z"/></svg>