<svg xmlns="http://www.w3.org/2000/svg" fill="none" viewBox="0 0 24 24"><path fill="#62757E" fill-rule="evenodd" d="M12 22C6.486 22 2 17.513 2 12 2 6.486 6.486 2 12 2s10 4.486 10 10c0 5.513-4.486 10-10 10m0-18.333c-4.595 0-8.333 3.738-8.333 8.333S7.405 20.333 12 20.333s8.333-3.738 8.333-8.333S16.595 3.667 12 3.667m.833 13.31V17a.833.833 0 1 1-1.666 0A.833.833 0 1 1 9.5 17a.833.833 0 0 1-.833-.833V7.833c0-.46.372-.833.833-.833a.833.833 0 1 1 1.667 0 .833.833 0 1 1 1.666 0v.18c.968.402 1.667 1.47 1.667 2.737 0 .63-.176 1.21-.468 1.686.777.514 1.301 1.429 1.301 2.48 0 1.532-1.106 2.778-2.5 2.894M12 8.667h-1.667v2.5H12c.443 0 .833-.585.833-1.25 0-.666-.39-1.25-.833-1.25m.625 4.166h-2.292v2.5h2.292c.574 0 1.042-.56 1.042-1.25 0-.689-.468-1.25-1.042-1.25" clip-rule="evenodd"/></svg>