<svg xmlns="http://www.w3.org/2000/svg" fill="none" viewBox="0 0 24 24"><path fill="#F5B300" d="M6.805 4.022c.55.15 1.102.25 1.653.4s1.101.25 1.652.401c.15.05.2 0 .25-.15.2-.851.401-1.653.601-2.504.05-.15.1-.2.25-.15.502.15.952.25 1.453.35.15.05.15.1.1.2-.2.802-.4 1.653-.6 2.454 0 .05 0 .1-.05.2.4.1.85.201 1.251.301.05 0 .1-.1.15-.15.15-.651.301-1.252.501-1.903l.15-.6c0-.101.05-.151.15-.101.502.15 1.002.25 1.553.4.05 0 .05.05.1.05-.15.652-.3 1.253-.45 1.854-.05.25-.1.5-.2.75-.05.151 0 .201.15.251l1.652.751c.5.3.952.701 1.302 1.202.45.751.501 1.553.3 2.354-.15.55-.35 1.052-.75 1.452-.301.3-.702.5-1.102.651-.05 0-.1.05-.2.05.2.15.4.25.6.4.601.451 1.002 1.002 1.202 1.704.1.55.05 1.151-.1 1.702-.2.701-.45 1.302-.901 1.853a3.1 3.1 0 0 1-2.054 1.102c-1.051.15-2.053.05-3.054-.1q-.225-.075-.3.15c-.201.801-.401 1.652-.602 2.454-.05.2-.05.25-.3.15-.45-.1-.952-.25-1.402-.35-.15-.05-.15-.1-.1-.2.2-.852.4-1.704.65-2.505 0-.1.05-.15-.05-.2-.4-.1-.8-.2-1.252-.3-.1.45-.25.9-.35 1.352-.1.45-.25.9-.35 1.352-.05.1-.05.15-.2.1-.502-.15-1.002-.25-1.503-.35-.15-.05-.15-.101-.1-.201.2-.851.4-1.703.65-2.504 0-.05.05-.1.05-.2-1.151-.3-2.303-.601-3.505-.902.1-.2.15-.35.25-.55.2-.451.401-.902.551-1.303.05-.15.1-.15.25-.15.351.1.752.2 1.103.25.4.1.7-.1.75-.45.652-2.554 1.303-5.108 1.904-7.712.1-.4-.15-.852-.601-1.002s-.902-.25-1.302-.35c-.1 0-.15-.05-.1-.15.15-.551.3-1.152.45-1.703-.2.15-.2.15-.15.1m2.554 12.37c.05 0 .1.05.1.05.801.2 1.653.45 2.504.5.601.05 1.152.05 1.703-.15.951-.3 1.352-1.553.801-2.354-.25-.4-.651-.65-1.052-.901-.901-.501-1.953-.701-2.954-.902-.15-.05-.15 0-.2.15-.1.501-.25.952-.351 1.453-.2.701-.35 1.402-.551 2.153m4.207-5.109c.1 0 .35-.05.55-.1.952-.2 1.453-1.302.952-2.153-.25-.451-.701-.751-1.152-.952-.7-.3-1.402-.45-2.153-.65-.15-.05-.2 0-.25.15a71 71 0 0 1-.802 3.104c-.05.1 0 .15.1.2.2.05.35.1.551.15.751.101 1.402.251 2.204.251"/></svg>