<svg xmlns="http://www.w3.org/2000/svg" fill="none" viewBox="0 0 24 24"><path fill="url(#a)" d="m19.436 10.474-3.021 1.035-1.467 1.727-.605 2.158h-8.2l-.95 3.539h9.15c2.417 0 5.093-1.813 5.956-4.316.604-1.727.173-3.194-.863-4.143"/><path fill="#F37320" d="M8.992 15.394c-2.331 0-2.417-1.727-2.158-2.676s0 0 .431-1.726c.26-.864.863-1.813 1.727-2.504.086-.086.259-.172.345-.259h.086c.777-.431 1.64-.776 2.59-.776h4.402l.345-1.036 2.59 2.158-3.799 2.158.346-1.122h-4.143c-1.468 0-1.9 1.035-2.072 1.467-.086.69-.259 2.158 1.554 2.158h4.661c2.417 0 5.092-1.813 5.956-4.316.863-2.676-.605-4.92-3.28-4.92H9.768c-.95 0-1.899.259-2.59.777h-.085c-.087.086-.26.172-.346.259-.863.69-1.467 1.553-1.726 2.503L2 18.933h3.798l.95-3.54h2.589-.432"/><defs><linearGradient id="a" x1="21.215" x2="10.147" y1="13.235" y2="17.301" gradientUnits="userSpaceOnUse"><stop offset=".363" stop-color="#D63026"/><stop offset="1" stop-color="#F37320"/></linearGradient></defs></svg>