<svg xmlns="http://www.w3.org/2000/svg" fill="none" viewBox="0 0 24 24"><path fill="#D53127" d="M5.35 6.763h2.819l-2.192 5.414s-1.146-.018-1.497-1.03a1.6 1.6 0 0 1-.024-.928z"/><path fill="#F47320" d="m16.285 6.88-3.586-.064.807-2.687a1.67 1.67 0 0 0-.248-1.46A1.64 1.64 0 0 0 11.95 2H8.678L4.937 15.567s-1.34 5.802 3.74 6.327c0 0 8.034 1.658 10.612-8.143 0 0 1.36-5.928-3.004-6.872m-2.45 6.728s-.144 2.503-2.015 2.942c-.276.07-.568.04-.824-.085-.293-.151-.596-.465-.589-1.122q.008-.287.09-.56l.691-2.606h1.885s.855.281.761 1.43"/><path fill="url(#a)" d="M19.46 11.019c-.342-3.983-3.176-4.14-3.176-4.14L12.7 6.816l-1.54 5.393h1.88c.346.019.976.594.771 1.613"/><defs><linearGradient id="a" x1="18.802" x2="13.075" y1="16.346" y2="7.642" gradientUnits="userSpaceOnUse"><stop offset=".41" stop-color="#F47320"/><stop offset=".5" stop-color="#F16D21"/><stop offset=".62" stop-color="#E95C22"/><stop offset=".75" stop-color="#DC4125"/><stop offset=".81" stop-color="#D53127"/></linearGradient></defs></svg>