<svg xmlns="http://www.w3.org/2000/svg" fill="none" viewBox="0 0 24 24"><path fill="#55A49F" d="M18.077 11.693a6.027 6.027 0 0 0 1.3-3.747C19.376 4.6 16.665 2 13.321 2H5.97v.757h7.189c2.955 0 5.35 2.288 5.35 5.243a5.33 5.33 0 0 1-1.053 3.19l.621.503Z"/><path fill="#4A8C89" d="M17.257 11.067a4.379 4.379 0 0 0-3.125-7.446H7.917v.758h6.378a3.567 3.567 0 0 1 2.299 6.297l.664.39Z"/><path fill="#5AABA5" d="M16.058 10.496c1.023-.447 1.806-1.42 1.806-2.55 0-1.552-1.475-2.81-3.027-2.81H9.429v.431h5.352c1.281 0 2.54 1.042 2.54 2.325 0 1.04-.824 1.922-1.82 2.217l.557.387Z"/><path fill="#4A8C8A" d="M3.808 21.243h1.19V22h-1.19v-.757Z"/><path fill="#5AABA6" d="M4.997 19.73h4.757v.54H4.997v-.54Z"/><path fill="#4B8F8E" d="M4.997 16.379h5.082v.432H4.997v-.432Z"/><path fill="#7CC6C7" d="M11.052 16.379h3.243v.432h-3.243v-.432Z"/><path fill="#5AB5B4" d="M5.97 14.865H7.7v.433H5.97v-.433Z"/><path fill="#428989" d="M8.673 14.865h5.621v.433H8.673v-.433Z"/><path fill="#549391" d="M10.51 8.054h3.676v.433h-3.675v-.433Z"/><path fill="#306563" d="M6.187 5.135H8.24v.433H6.187v-.433Z"/><path fill="#64B9B9" d="M6.727 6.757h7.567v.432H6.727v-.432Z"/><path fill="#7FD6D5" d="M4.781 8.054H9.43v.433H4.78v-.433Z"/><path fill="#55A49F" d="M6.079 21.135v.757h8.215c3.346 0 6.054-2.602 6.054-5.946a6.054 6.054 0 0 0-6.054-6.054H8.997v.649h5.136a5.351 5.351 0 0 1 5.35 5.352c0 2.955-2.395 5.243-5.35 5.243H6.079Z"/><path fill="#4A8C89" d="M7.375 11.513v.758h7.892a3.567 3.567 0 1 1 0 7.135H10.62v.864h4.484a4.379 4.379 0 0 0 0-8.757H7.375Z"/><path fill="#5AABA5" d="M9.646 13.135v.432h6.108c1.281 0 2.54 1.042 2.54 2.325 0 1.281-1.256 2.324-2.54 2.324H3.7v.54h12.108c1.552 0 3.027-1.258 3.027-2.81s-1.475-2.81-3.027-2.81H9.646Z"/></svg>