<svg xmlns="http://www.w3.org/2000/svg" fill="none" viewBox="0 0 24 24"><path fill="#0E0E0E" d="m14.63 5.886-.337.084v1.22c0 .631-.42 1.178-1.01 1.388L9.877 9.63v1.851l4.46-1.388c1.051-.337 1.683-1.22 1.683-2.44V6.81c.042-.547-.631-1.178-1.389-.925Zm-7.11-.547 6.31-1.978c.674-.21 1.22-.21 1.557-.168l-.799-.59c-.379-.252-1.472-.883-2.861-.462L5.795 4.076 7.52 5.34Z"/><path fill="#0E0E0E" d="M17.113 10.808s1.093-1.01 1.093-3.197v-.926c0-1.43-1.64-3.745-4.291-2.903L7.73 5.759v11.57l1.767-.546v-2.861l5.638-1.767c1.052-.337 1.935.505 1.935 1.43v1.136c0 1.136-1.01 2.777-2.608 3.282l-8.667 2.693L7.52 22l7.783-2.44c1.641-.505 3.45-1.936 3.45-4.923v-1.136c.043-1.851-1.64-2.693-1.64-2.693Zm-2.61-.294-5.006 1.599v-5.05l5.007-1.598c1.052-.337 1.977.505 1.977 1.388v.842c0 1.388-.799 2.44-1.977 2.819Z"/><path fill="#0E0E0E" d="M16.608 14.679v-1.094c0-.631-.632-1.22-1.347-1.01l-.378.127v1.556c0 .758-.505 1.43-1.22 1.683L7.266 17.92V5.675L5.5 4.371v15.946l8.793-2.777c1.389-.42 2.315-1.81 2.315-2.861Z"/></svg>