<svg xmlns="http://www.w3.org/2000/svg" fill="none" viewBox="0 0 24 24"><path fill="url(#a)" d="M17.816 15.396V5.434l2.906 1.66v9.963l-5.359 3.056-2.905-1.66zM3.25 10.943l2.906-1.66v6.076l8.754 4.98L12.005 22 3.25 17.019zM12.005 2l5.358 3.019v3.32l-5.358-3.018L3.25 10.34V7.019zM8.722 7.925l1.962-1.133v4.19c.226-.152.68-.53 1.396-.53.944 0 1.736.303 2.377.982.68.642.982 1.434.982 2.34s-.34 1.698-.982 2.34c-.679.64-1.433.98-2.377.98s-1.736-.264-2.377-.943c-.68-.642-.981-1.434-.981-2.34zm2.377 6.868c.264.264.604.415.981.415s.717-.151.981-.415a1.37 1.37 0 0 0 .415-.982c0-.377-.15-.717-.415-.98a1.37 1.37 0 0 0-.98-.416c-.378 0-.718.151-.982.415a1.37 1.37 0 0 0-.415.981c.038.378.15.68.415.982"/><defs><linearGradient id="a" x1="11.988" x2="11.988" y1="2.015" y2="21.985" gradientUnits="userSpaceOnUse"><stop stop-color="#FEE276"/><stop offset="1" stop-color="#F0B734"/></linearGradient></defs></svg>