<svg xmlns="http://www.w3.org/2000/svg" fill="none" viewBox="0 0 24 24"><path fill="#149F49" fill-rule="evenodd" d="M13.194 10.848c-.349-.055-.707-.035-1.059-.039-.522 0-1.044.007-1.564-.003-.006.946-.006 1.89 0 2.836.627-.007 1.252-.003 1.878-.003.332 0 .672.012.99-.107a1.347 1.347 0 0 0 .861-.977c.074-.374.036-.784-.179-1.107-.203-.322-.56-.526-.927-.6Z" clip-rule="evenodd"/><path fill="#149F49" fill-rule="evenodd" d="M12 2C6.477 2 2 6.477 2 12s4.477 10 10 10 10-4.477 10-10S17.523 2 12 2ZM7.833 13.752c.533.01 1.042-.33 1.262-.81.102-.226.146-.473.129-.72a1.396 1.396 0 0 0-.616-1.225c-.224-.161-.5-.224-.772-.242-.003-.378 0-.752-.003-1.126.39.016.77-.164 1.03-.452.252-.282.38-.653.36-1.03-.046-.458-.314-.9-.73-1.11a1.407 1.407 0 0 0-.658-.167c-.007-.413 0-.823-.003-1.233 1.777-.003 3.555-.006 5.335 0 .707.045 1.423.294 1.949.781.353.331.59.768.677 1.245.078.57.026 1.194-.32 1.674-.219.342-.554.59-.912.778.555.213 1.052.603 1.329 1.135.38.73.37 1.652-.039 2.365-.28.5-.752.877-1.277 1.096-.526.22-1.11.297-1.678.29H7.834c-.002-.417.002-.833-.002-1.25h.001Zm8.334 4.61c-1.133.012-2.268.003-3.405.006-1.642-.003-3.284.006-4.926-.007a30.02 30.02 0 0 1 0-1.342c1.716-.013 3.432 0 5.152-.003 1.059.003 2.12-.01 3.178.003.008.449.008.897-.002 1.342h.003Z" clip-rule="evenodd"/><path fill="#149F49" fill-rule="evenodd" d="M12.268 9.58c.28-.006.564.027.835-.06.445-.127.845-.498.916-.969.065-.387-.01-.815-.28-1.112-.288-.32-.733-.474-1.155-.458h-2.02c.004.867.004 1.732 0 2.598l1.704.002Z" clip-rule="evenodd"/><path fill="#fff" d="M12.897 15c.567.006 1.151-.065 1.677-.29.526-.226.997-.597 1.277-1.097.41-.713.42-1.635.04-2.365-.278-.532-.775-.922-1.33-1.135.359-.187.694-.436.913-.777.345-.481.397-1.104.32-1.675a2.255 2.255 0 0 0-.678-1.245c-.527-.487-1.243-.735-1.949-.78-1.78-.007-3.557-.004-5.335 0 .003.41-.003.819.003 1.232.23.01.458.051.659.167.415.21.683.652.729 1.11.021.378-.108.748-.359 1.03a1.345 1.345 0 0 1-1.03.452c.003.374 0 .748.003 1.126.27.02.548.08.77.242.407.261.64.748.617 1.226.017.247-.027.494-.13.719-.219.48-.728.82-1.26.81.003.416 0 .832 0 1.248l5.063.002Zm1.403-2.445a1.347 1.347 0 0 1-.862.977c-.315.12-.658.107-.99.107-.627 0-1.252-.004-1.877.003-.007-.945-.007-1.89 0-2.835.52.01 1.042.003 1.564.003.352.003.71-.017 1.058.039.368.073.723.277.926.6.216.322.255.732.181 1.106ZM10.564 6.98h2.02c.422-.016.867.138 1.155.458.27.297.345.725.28 1.113-.07.47-.47.841-.916.967-.269.088-.555.055-.835.062h-1.703c.003-.868.003-1.732 0-2.6Z"/><path fill="#73C692" d="M12.987 17.016c-1.719.003-3.435-.01-5.152.003-.01.448-.01.896 0 1.342 1.642.013 3.283.004 4.925.007 1.136-.003 2.271.006 3.405-.007.01-.445.01-.893 0-1.342-1.058-.013-2.12 0-3.178-.003Z"/></svg>