<svg xmlns="http://www.w3.org/2000/svg" fill="none" viewBox="0 0 24 24"><path fill="#149F49" fill-rule="evenodd" d="M13.194 10.849c-.349-.056-.707-.036-1.058-.04-.523 0-1.045.007-1.565-.003q-.009 1.418 0 2.836c.627-.007 1.252-.003 1.878-.003.332 0 .672.012.99-.107a1.35 1.35 0 0 0 .861-.977c.074-.374.036-.784-.179-1.107-.203-.322-.56-.526-.927-.6" clip-rule="evenodd"/><path fill="#149F49" fill-rule="evenodd" d="M12 2C6.477 2 2 6.477 2 12s4.477 10 10 10 10-4.477 10-10S17.523 2 12 2M7.833 13.752c.533.01 1.042-.33 1.262-.81.102-.226.146-.473.129-.72a1.4 1.4 0 0 0-.616-1.225c-.224-.161-.5-.224-.772-.242-.003-.378 0-.752-.003-1.126.39.016.77-.164 1.03-.452.252-.282.38-.653.36-1.03-.046-.458-.314-.9-.73-1.11a1.4 1.4 0 0 0-.658-.167c-.007-.413 0-.823-.003-1.233 1.777-.003 3.555-.006 5.335 0 .707.045 1.423.294 1.949.781.353.331.59.768.677 1.245.078.57.026 1.194-.32 1.674-.219.342-.554.59-.912.778.555.213 1.052.603 1.329 1.135.38.73.37 1.652-.039 2.365-.28.5-.751.877-1.277 1.096s-1.11.297-1.678.29H7.834c-.002-.417.002-.833-.002-1.25zm8.334 4.61c-1.133.012-2.268.003-3.405.006-1.642-.003-3.284.006-4.926-.007q-.015-.668 0-1.342c1.716-.013 3.432 0 5.152-.003 1.059.003 2.12-.01 3.178.003q.012.674-.002 1.342z" clip-rule="evenodd"/><path fill="#149F49" fill-rule="evenodd" d="M12.268 9.58c.28-.006.564.027.835-.06.445-.127.845-.498.916-.969.065-.387-.01-.815-.28-1.112-.288-.32-.733-.474-1.155-.458h-2.02q.006 1.3 0 2.598z" clip-rule="evenodd"/><path fill="#fff" d="M12.897 15c.567.006 1.151-.065 1.677-.29.526-.226.996-.597 1.277-1.097.41-.713.42-1.635.039-2.365-.277-.532-.774-.922-1.329-1.135.358-.187.694-.436.913-.777.345-.481.397-1.104.32-1.675a2.26 2.26 0 0 0-.678-1.245c-.527-.487-1.244-.735-1.949-.78-1.78-.007-3.558-.004-5.335 0 .003.41-.004.819.003 1.232.23.01.458.051.658.167.416.21.684.652.73 1.11a1.43 1.43 0 0 1-.36 1.03 1.35 1.35 0 0 1-1.03.452c.004.374 0 .749.004 1.126.27.02.548.08.77.242.407.261.639.748.617 1.226.017.247-.027.494-.13.719-.219.48-.728.82-1.26.81.003.416 0 .832 0 1.248zm1.403-2.445a1.35 1.35 0 0 1-.862.977c-.316.12-.658.107-.99.107-.627 0-1.252-.004-1.878.003q-.009-1.418 0-2.835c.52.01 1.043.003 1.565.003.352.003.71-.017 1.058.039.368.073.723.277.926.6.216.322.255.732.18 1.106M10.564 6.98h2.02c.422-.016.867.138 1.154.458.271.297.345.725.28 1.113-.07.47-.47.841-.915.967-.27.088-.555.055-.835.062h-1.703c.002-.868.002-1.732 0-2.6"/><path fill="#73C692" d="M12.987 17.016c-1.72.003-3.436-.01-5.152.003q-.015.672 0 1.342c1.642.013 3.283.004 4.925.007 1.136-.003 2.271.006 3.405-.007q.015-.668 0-1.342c-1.058-.013-2.12 0-3.178-.003"/></svg>