<svg xmlns="http://www.w3.org/2000/svg" fill="none" viewBox="0 0 24 24"><g clip-path="url(#a)"><path fill="#000" d="M12 24c6.627 0 12-5.373 12-12S18.627 0 12 0 0 5.373 0 12s5.373 12 12 12"/><path fill="#fff" d="M12.706 18.433q.06.137.06.296a.777.777 0 0 1-.784.771.777.777 0 0 1-.784-.771q0-.154.057-.289l-4.657-2.645a.8.8 0 0 1-.564.236.777.777 0 0 1-.784-.771c0-.36.25-.662.588-.748v-5.27a.774.774 0 0 1-.588-.747c0-.426.351-.77.784-.77.26 0 .49.124.633.316l4.554-2.588a.778.778 0 0 1 .761-.953.778.778 0 0 1 .763.949l4.58 2.602a.79.79 0 0 1 .641-.327c.433 0 .784.345.784.771 0 .36-.251.663-.59.748l-.014 5.265c.346.08.604.386.604.752a.777.777 0 0 1-.784.77.8.8 0 0 1-.582-.255zm-.21-.285 4.716-2.68a.76.76 0 0 1 .015-.466l-4.549-2.925a.932.932 0 0 1-1.412-.065l-4.483 3.02a.76.76 0 0 1-.003.462l4.681 2.659a.8.8 0 0 1 .521-.195.8.8 0 0 1 .515.189m.09-12.385a.8.8 0 0 1-.41.255l-.012 4.542a.916.916 0 0 1 .762.897.9.9 0 0 1-.06.322l4.553 2.928a.8.8 0 0 1 .371-.199l.014-5.258a.775.775 0 0 1-.612-.87zm-1.204.004-4.577 2.6a.775.775 0 0 1-.612.885v5.253c.16.033.3.113.408.225l4.504-3.033a.916.916 0 0 1 .701-1.13l.012-4.54a.8.8 0 0 1-.437-.26"/></g><defs><clipPath id="a"><path fill="#fff" d="M0 0h24v24H0z"/></clipPath></defs></svg>