<svg xmlns="http://www.w3.org/2000/svg" fill="none" viewBox="0 0 24 24"><g clip-path="url(#a)"><path fill="#2AABE4" d="M12 24c6.627 0 12-5.373 12-12S18.627 0 12 0 0 5.373 0 12s5.373 12 12 12"/><path fill="#fff" fill-rule="evenodd" d="M7.05 6.5h3.789a.55.55 0 0 1 .55.55v3.789a.55.55 0 0 1-.55.55H7.05a.55.55 0 0 1-.55-.55V7.05a.55.55 0 0 1 .55-.55m6.111 0h3.789a.55.55 0 0 1 .55.55v3.789a.55.55 0 0 1-.55.55h-3.789a.55.55 0 0 1-.55-.55V7.05a.55.55 0 0 1 .55-.55m0 6.111h3.789a.55.55 0 0 1 .55.55v3.789a.55.55 0 0 1-.55.55h-3.789a.55.55 0 0 1-.55-.55v-3.789a.55.55 0 0 1 .55-.55m-6.111 0h3.789a.55.55 0 0 1 .55.55v3.789a.55.55 0 0 1-.55.55H7.05a.55.55 0 0 1-.55-.55v-3.789a.55.55 0 0 1 .55-.55" clip-rule="evenodd"/></g><defs><clipPath id="a"><path fill="#fff" d="M0 0h24v24H0z"/></clipPath></defs></svg>