<svg xmlns="http://www.w3.org/2000/svg" fill="none" viewBox="0 0 24 24"><g clip-path="url(#a)"><path fill="#101341" d="M12 24c6.627 0 12-5.373 12-12S18.627 0 12 0 0 5.373 0 12s5.373 12 12 12Z"/><path fill="#fff" fill-rule="evenodd" d="M8.918 6.429h6.332L18.5 12l-3.25 5.571H8.862L12.056 12 8.918 6.429Zm3.362 1.96L14.354 12l-2.074 3.611h1.85L16.203 12l-2.074-3.612H12.28Z" clip-rule="evenodd"/><path fill="#fff" fill-rule="evenodd" d="M9.594 8.92 7.797 12l1.78 3.052-1.138 1.986L5.5 12l2.965-5.083 1.129 2.004Z" clip-rule="evenodd" opacity=".5"/></g><defs><clipPath id="a"><path fill="#fff" d="M0 0h24v24H0z"/></clipPath></defs></svg>