<svg xmlns="http://www.w3.org/2000/svg" fill="none" viewBox="0 0 24 24"><path fill="currentColor" fill-rule="evenodd" d="M14.989 8.398 10.011 12l4.976 3.603a.836.836 0 0 1 .048 1.313l-5.834 4.89c-.04.033-.087.05-.13.074-.035.02-.065.045-.103.059a.83.83 0 0 1-.302.061.82.82 0 0 1-.336-.073c-.025-.01-.044-.032-.068-.046a.8.8 0 0 1-.208-.158c-.008-.008-.02-.012-.027-.02-.026-.031-.035-.068-.055-.101-.031-.05-.062-.097-.083-.153-.02-.056-.026-.112-.034-.17-.006-.038-.022-.072-.022-.112v-7.59l-4.512 3.266a.833.833 0 1 1-.977-1.35L7.17 12 2.345 8.509a.834.834 0 0 1 .977-1.35l4.512 3.265v-7.59c0-.04.016-.074.022-.112.008-.058.014-.115.034-.17.02-.056.052-.103.083-.153.02-.033.03-.07.055-.1.008-.01.02-.014.028-.024.04-.043.088-.073.136-.108.041-.03.08-.063.125-.084.043-.02.091-.028.139-.04.059-.015.115-.033.176-.035.012-.001.022-.008.035-.008.038 0 .071.018.108.023.06.007.117.014.175.035.054.02.1.05.149.081.034.02.072.03.103.056l5.834 4.889a.837.837 0 0 1-.047 1.314ZM9.5 19.38l3.646-3.055L9.5 13.687v5.693Zm0-14.76v5.693l3.646-2.638L9.5 4.62Z" clip-rule="evenodd"/></svg>