<svg xmlns="http://www.w3.org/2000/svg" fill="none" viewBox="0 0 24 24"><path fill="#62757E" fill-rule="evenodd" d="M19.182 2.17a.85.85 0 0 1 1.202 1.203l-16 16a.85.85 0 0 1-1.202-1.202l6.653-6.653-4.157-3.01a.834.834 0 0 1 .977-1.35l4.374 3.166.138-.138V2.834q.001-.035.012-.068l.01-.044.002-.017a.7.7 0 0 1 .032-.153 1 1 0 0 1 .075-.14l.008-.013.02-.04q.014-.033.035-.06.006-.008.014-.012l.014-.012a.6.6 0 0 1 .108-.088l.028-.02.03-.022a.5.5 0 0 1 .095-.062q.048-.021.1-.03l.039-.01.029-.008a.7.7 0 0 1 .147-.027l.016-.004L12 2q.033.001.063.012.023.007.045.01l.007.001c.057.008.112.015.168.035.05.018.093.046.138.074l.01.007.04.02q.034.013.064.036l3.66 2.963zm-4.171 4.172L12.833 4.62v3.9zm-3.844 8.632 2.64-2.64 4.515 3.269a.835.835 0 0 1 .047 1.313l-5.834 4.89a.4.4 0 0 1-.085.05l-.045.024-.032.02a.4.4 0 0 1-.07.039A.8.8 0 0 1 12 22a.8.8 0 0 1-.336-.073q-.02-.01-.038-.025l-.03-.02a.8.8 0 0 1-.208-.16l-.013-.009-.014-.01q-.022-.03-.034-.06l-.021-.041-.008-.014a1 1 0 0 1-.075-.139.7.7 0 0 1-.032-.154l-.002-.016-.01-.044q-.01-.032-.012-.068zm1.666 4.406 3.646-3.055-3.646-2.638z" clip-rule="evenodd"/></svg>