<svg xmlns="http://www.w3.org/2000/svg" fill="none" viewBox="0 0 24 24"><g clip-path="url(#a)"><path fill="#18578C" d="M12 24c6.627 0 12-5.373 12-12S18.627 0 12 0 0 5.373 0 12s5.373 12 12 12Z"/><path fill="#fff" d="M8.593 15.035a1.226 1.226 0 0 1 0 1.711 1.173 1.173 0 0 1-1.68.002 1.222 1.222 0 0 1 0-1.715 1.172 1.172 0 0 1 1.68.002Zm7.744-8.127a1.212 1.212 0 0 1 .734 1.12c0 .49-.29.93-.734 1.118a1.171 1.171 0 0 1-1.295-.262 1.221 1.221 0 0 1 0-1.713 1.173 1.173 0 0 1 1.295-.262Zm-7.9 7.194 1.146-1.173a2.284 2.284 0 0 0 1.257 1.28l-1.149 1.17-1.254-1.277Zm6.788-4.296-1.149 1.17A2.26 2.26 0 0 0 12.822 9.7l1.149-1.17 1.254 1.277Zm-.481 5.56a1.188 1.188 0 0 1 1.098-.747c.481 0 .914.294 1.099.747a1.23 1.23 0 0 1-.258 1.32 1.178 1.178 0 0 1-.84.355 1.177 1.177 0 0 1-.84-.356 1.227 1.227 0 0 1-.259-1.32Zm-7.97-7.909a1.189 1.189 0 0 1 1.099-.748c.48 0 .914.295 1.098.748a1.23 1.23 0 0 1-.258 1.32 1.176 1.176 0 0 1-1.68 0 1.227 1.227 0 0 1-.259-1.32Zm7.102 7.87-1.151-1.166a2.286 2.286 0 0 0 1.257-1.281l1.148 1.17-1.254 1.278ZM9.787 8.462l1.148 1.17c-.283.116-.54.288-.754.507a2.35 2.35 0 0 0-.5.771L8.535 9.74l1.253-1.278Zm2.06-1.037a1.2 1.2 0 0 1-1.19-1.212A1.2 1.2 0 0 1 11.847 5c.315 0 .618.127.841.355.223.227.349.535.348.857a1.2 1.2 0 0 1-1.19 1.212Zm1.19 10.364c0 .67-.534 1.212-1.19 1.212-.657 0-1.19-.543-1.19-1.212a1.2 1.2 0 0 1 1.19-1.212c.315 0 .618.127.841.355.223.227.349.535.348.857Zm-.758-9.73V9.56a2.153 2.153 0 0 0-.75 0v-1.5h.75Zm0 6.449v1.501h-.75v-1.502c.248.044.502.044.75 0Zm3.732-2.375a1.229 1.229 0 0 1 .258-1.32 1.174 1.174 0 0 1 1.297-.264 1.226 1.226 0 0 1 .386 1.978 1.178 1.178 0 0 1-1.941-.394ZM5 11.874a1.2 1.2 0 0 1 1.19-1.212 1.2 1.2 0 0 1 1.19 1.211c0 .322-.126.63-.349.858a1.179 1.179 0 0 1-.841.355A1.2 1.2 0 0 1 5 11.875v-.001Zm10.558.381h-1.473a2.279 2.279 0 0 0 0-.764h1.473v.764Zm-6.05 0H8.035v-.763h1.473a2.273 2.273 0 0 0 0 .763Zm2.303 1.426c-.932 0-1.687-.769-1.687-1.717 0-.949.755-1.719 1.687-1.719.931 0 1.686.77 1.687 1.719 0 .948-.756 1.717-1.687 1.717Z"/></g><defs><clipPath id="a"><path fill="#fff" d="M0 0h24v24H0z"/></clipPath></defs></svg>