<svg xmlns="http://www.w3.org/2000/svg" fill="none" viewBox="0 0 24 24"><g clip-path="url(#a)"><path fill="#18578C" d="M12 24c6.627 0 12-5.373 12-12S18.627 0 12 0 0 5.373 0 12s5.373 12 12 12"/><path fill="#fff" d="M8.593 15.035a1.226 1.226 0 0 1 0 1.711 1.173 1.173 0 0 1-1.68.002 1.22 1.22 0 0 1 0-1.715 1.17 1.17 0 0 1 1.68.002m7.744-8.127a1.21 1.21 0 0 1 .734 1.12c0 .49-.29.93-.734 1.118a1.17 1.17 0 0 1-1.295-.262 1.22 1.22 0 0 1 0-1.713 1.17 1.17 0 0 1 1.295-.262m-7.9 7.194 1.146-1.173a2.28 2.28 0 0 0 1.257 1.28l-1.149 1.17zm6.788-4.296-1.149 1.17A2.26 2.26 0 0 0 12.822 9.7l1.149-1.17zm-.481 5.56a1.19 1.19 0 0 1 1.098-.747c.481 0 .914.294 1.099.747a1.23 1.23 0 0 1-.258 1.32 1.18 1.18 0 0 1-.84.355 1.18 1.18 0 0 1-.84-.356 1.23 1.23 0 0 1-.259-1.32m-7.97-7.909a1.19 1.19 0 0 1 1.099-.748c.48 0 .914.295 1.098.748a1.23 1.23 0 0 1-.258 1.32 1.176 1.176 0 0 1-1.68 0 1.23 1.23 0 0 1-.259-1.32m7.102 7.87-1.151-1.166a2.3 2.3 0 0 0 1.257-1.281l1.148 1.17zM9.787 8.462l1.148 1.17c-.283.116-.54.288-.754.507a2.4 2.4 0 0 0-.5.771L8.535 9.74zm2.06-1.037a1.2 1.2 0 0 1-1.19-1.212A1.2 1.2 0 0 1 11.847 5c.315 0 .618.127.841.355s.349.535.348.857a1.2 1.2 0 0 1-1.19 1.212m1.19 10.364c0 .67-.534 1.212-1.19 1.212-.657 0-1.19-.543-1.19-1.212s.532-1.212 1.19-1.212c.315 0 .618.127.841.355s.349.535.348.857m-.758-9.73V9.56a2.2 2.2 0 0 0-.75 0v-1.5zm0 6.449v1.501h-.75v-1.502c.248.044.502.044.75 0m3.732-2.375a1.23 1.23 0 0 1 .258-1.32 1.17 1.17 0 0 1 1.297-.264 1.226 1.226 0 0 1 .386 1.978 1.178 1.178 0 0 1-1.941-.394M5 11.874a1.2 1.2 0 0 1 1.19-1.212 1.2 1.2 0 0 1 1.19 1.211c0 .322-.126.63-.349.858a1.18 1.18 0 0 1-.841.355A1.2 1.2 0 0 1 5 11.875zm10.558.381h-1.473a2.3 2.3 0 0 0 0-.764h1.473zm-6.05 0H8.035v-.763h1.473a2.3 2.3 0 0 0 0 .763m2.303 1.426c-.932 0-1.687-.769-1.687-1.717s.755-1.719 1.687-1.719c.931 0 1.686.77 1.687 1.719 0 .948-.756 1.717-1.687 1.717"/></g><defs><clipPath id="a"><path fill="#fff" d="M0 0h24v24H0z"/></clipPath></defs></svg>