<svg xmlns="http://www.w3.org/2000/svg" fill="none" viewBox="0 0 24 24"><g clip-path="url(#a)"><path fill="#F8D339" d="M12 24c6.627 0 12-5.373 12-12S18.627 0 12 0 0 5.373 0 12s5.373 12 12 12"/><path fill="#0B0E11" d="M9.475 10.963 12 8.438l2.526 2.526 1.469-1.47L12 5.5 8.006 9.494zM5.5 12l1.469-1.469L8.438 12l-1.469 1.469zm3.975 1.037L12 15.562l2.526-2.526 1.469 1.468L12 18.5l-3.994-3.994-.002-.002zM15.562 12l1.469-1.469L18.5 12l-1.469 1.469zm-2.072-.001L12 13.491l-1.49-1.488-.002-.003.003-.002.26-.261.127-.127L12 10.509z"/></g><defs><clipPath id="a"><path fill="#fff" d="M0 0h24v24H0z"/></clipPath></defs></svg>