<svg xmlns="http://www.w3.org/2000/svg" fill="none" viewBox="0 0 24 24"><g clip-path="url(#a)"><path fill="#F8D339" d="M12 24c6.627 0 12-5.373 12-12S18.627 0 12 0 0 5.373 0 12s5.373 12 12 12"/><path fill="#000" d="M13.24 16.406V17.9l-1.303.767-1.264-.767v-1.494l1.264.767zm-6.973-5.172L7.53 12v2.567l2.184 1.303v1.494l-3.448-2.03zm11.34 0v4.1l-3.486 2.03V15.87l2.184-1.303V12zm-3.486-2.03 1.303.765v1.495l-2.184 1.302v2.606l-1.265.766-1.264-.766v-2.606l-2.26-1.302V9.969l1.302-.766 2.184 1.303zm-5.67 3.332 1.264.767v1.494l-1.264-.766zm6.973 0v1.495l-1.265.766v-1.494zM7.53 7.9l1.303.767-1.303.766v1.494l-1.264-.766V8.667zm8.812 0 1.303.767v1.494l-1.303.766V9.433l-1.264-.766zm-4.406 0 1.303.767-1.303.766-1.264-.766zm0-2.567 3.487 2.031-1.265.766-2.184-1.302L9.753 8.13 8.49 7.364z"/></g><defs><clipPath id="a"><path fill="#fff" d="M0 0h24v24H0z"/></clipPath></defs></svg>