<svg xmlns="http://www.w3.org/2000/svg" fill="none" viewBox="0 0 24 24"><g clip-path="url(#a)"><path fill="#FD7A3D" d="M12 24c6.627 0 12-5.373 12-12S18.627 0 12 0 0 5.373 0 12s5.373 12 12 12"/><path fill="#fff" d="M17.85 14.164c.49.267.654.882.327 1.363-.271.48-.897.641-1.387.374a1.04 1.04 0 0 1-.517-.829h-2.504l-1.198 2.031c0 .027-.027.053-.054.08.272.16.463.481.463.829 0 .534-.463.988-1.008.988a.996.996 0 0 1-1.007-.988c0-.348.191-.642.463-.829 0-.026-.027-.053-.055-.08l-1.197-2.03H7.672c-.027.347-.217.64-.517.827-.49.268-1.116.108-1.388-.373a.99.99 0 0 1 .381-1.363.99.99 0 0 1 .98-.027c.027-.026.027-.08.054-.106L8.407 12 7.21 9.97a.2.2 0 0 1-.055-.108c-.3.134-.68.16-.98-.026a.99.99 0 0 1-.38-1.363c.271-.48.897-.641 1.387-.374.327.187.49.508.518.829h2.53l1.198-2.031c0-.027.027-.053.054-.08a.97.97 0 0 1-.462-.829c0-.534.462-.988 1.007-.988a.996.996 0 0 1 1.007.988c0 .348-.191.642-.463.829 0 .027.027.053.055.08l1.197 2.03h2.504c.027-.347.217-.64.517-.827.49-.268 1.116-.108 1.388.373a.99.99 0 0 1-.381 1.363.99.99 0 0 1-.98.026c-.027.027-.027.08-.054.107L15.619 12l1.198 2.03a.2.2 0 0 1 .055.107c.299-.133.68-.16.98.027zm-4.544-2.832c0-.56-.463-1.015-1.034-1.015h-1.307a.24.24 0 0 0-.245.24v2.886c0 .133.11.24.245.24h1.307c.571 0 1.034-.454 1.034-1.015a.9.9 0 0 0-.245-.641c.136-.214.245-.428.245-.695"/></g><defs><clipPath id="a"><path fill="#fff" d="M0 0h24v24H0z"/></clipPath></defs></svg>