<svg xmlns="http://www.w3.org/2000/svg" fill="none" viewBox="0 0 24 24"><mask id="a" fill="#fff"><path fill-rule="evenodd" d="M7 5.5a1 1 0 0 1 1-1h3a4 4 0 0 1 2.595 7.044A4 4 0 0 1 13 19.5H8a1 1 0 0 1-1-1v-13Zm2 1h2a2 2 0 1 1 0 4H9v-4Zm0 11v-4h4a2 2 0 1 1 0 4H9Z" clip-rule="evenodd"/></mask><path fill="#62757E" d="m13.595 11.544-1.298-1.521-3.341 2.851 4.344.648.295-1.978ZM9 6.5v-2H7v2h2Zm0 4H7v2h2v-2Zm0 7H7v2h2v-2Zm0-4v-2H7v2h2Zm-1-7h3v-4H8v4Zm3 0a2 2 0 0 1 2 2h4a6 6 0 0 0-6-6v4Zm2 2c0 .609-.27 1.153-.703 1.523l2.596 3.042A5.991 5.991 0 0 0 17 8.5h-4Zm.3 5.022A2 2 0 0 1 15 15.5h4a6.001 6.001 0 0 0-5.11-5.934l-.59 3.956ZM15 15.5a2 2 0 0 1-2 2v4a6 6 0 0 0 6-6h-4Zm-2 2H8v4h5v-4Zm-4 1v-13H5v13h4Zm0-10h2v-4H9v4Zm2 0h4a4 4 0 0 0-4-4v4Zm0 0v4a4 4 0 0 0 4-4h-4Zm0 0H9v4h2v-4Zm0 2v-4H7v4h4Zm0 7v-4H7v4h4Zm-2-2h4v-4H9v4Zm4 0h4a4 4 0 0 0-4-4v4Zm0 0v4a4 4 0 0 0 4-4h-4Zm0 0H9v4h4v-4Zm-5 2a1 1 0 0 1 1 1H5a3 3 0 0 0 3 3v-4Zm0-15a3 3 0 0 0-3 3h4a1 1 0 0 1-1 1v-4Z" mask="url(#a)"/></svg>