<svg xmlns="http://www.w3.org/2000/svg" fill="none" viewBox="0 0 24 24"><path fill="#000" fill-rule="evenodd" d="m11.737 6.998-.005-4.391h.536l.005 4.39-.536.001Zm4.866 7.262 3.733 2.198-.272.463-3.733-2.198.272-.462Zm-8.745.463-3.734 2.198-.272-.463 3.734-2.197.272.462Z" clip-rule="evenodd"/><path fill="#000" fill-rule="evenodd" d="M11.869 6.723a.268.268 0 0 1 .269 0l4.355 2.53a.268.268 0 0 1-.001.465l-4.355 2.51a.268.268 0 0 1-.268 0l-4.361-2.52a.268.268 0 0 1 0-.465l4.36-2.52ZM8.178 9.475l3.825 2.212 3.82-2.202-3.82-2.22-3.825 2.21Z" clip-rule="evenodd"/><path fill="#000" fill-rule="evenodd" d="M7.508 9.243a.268.268 0 0 1 .268 0l4.365 2.521a.268.268 0 0 1 .134.232v5.015a.268.268 0 0 1-.402.232l-4.359-2.501a.268.268 0 0 1-.135-.233l-.005-5.034c0-.096.051-.184.134-.232Zm.403.697.005 4.414 3.823 2.194V12.15L7.91 9.941Z" clip-rule="evenodd"/><path fill="#000" fill-rule="evenodd" d="M16.493 9.253a.268.268 0 0 1 .134.233v5.034a.268.268 0 0 1-.135.233l-4.359 2.49a.268.268 0 0 1-.401-.232v-5.014a.27.27 0 0 1 .134-.233l4.36-2.51a.268.268 0 0 1 .267 0Zm-4.225 2.899v4.397l3.823-2.184V9.95l-3.823 2.202Z" clip-rule="evenodd"/><path fill="#000" fill-rule="evenodd" d="m12 2 8.582 5.002v9.996L12 22l-8.582-5.002V7.002L12 2Zm0 1.242L4.49 7.619v8.762L12 20.758l7.509-4.377V7.62l-7.51-4.377Z" clip-rule="evenodd"/><path fill="#000" fill-rule="evenodd" d="m20.328 7.782-8.329 4.847-8.302-4.847.54-.926L12 11.387l7.788-4.532.54.927Z" clip-rule="evenodd"/><path fill="#000" fill-rule="evenodd" d="M12 11.472c.296 0 .536.24.536.536v9.371a.536.536 0 1 1-1.072 0v-9.37c0-.297.24-.537.536-.537Z" clip-rule="evenodd"/></svg>