<svg xmlns="http://www.w3.org/2000/svg" fill="none" viewBox="0 0 24 24"><path fill="#000" fill-rule="evenodd" d="m11.737 6.998-.005-4.391h.536l.005 4.39zm4.866 7.262 3.734 2.198-.272.463-3.734-2.198zm-8.745.463-3.734 2.198-.272-.463 3.734-2.197z" clip-rule="evenodd"/><path fill="#000" fill-rule="evenodd" d="M11.869 6.723a.27.27 0 0 1 .269 0l4.355 2.53a.268.268 0 0 1 0 .465l-4.356 2.51a.27.27 0 0 1-.268 0l-4.36-2.52a.268.268 0 0 1 0-.465zm-3.69 2.752 3.824 2.212 3.82-2.202-3.82-2.22z" clip-rule="evenodd"/><path fill="#000" fill-rule="evenodd" d="M7.508 9.243a.27.27 0 0 1 .268 0l4.365 2.521a.27.27 0 0 1 .134.232v5.015a.268.268 0 0 1-.401.232l-4.36-2.501a.27.27 0 0 1-.134-.233l-.006-5.034c0-.096.051-.184.134-.232m.403.697.005 4.414 3.823 2.194V12.15z" clip-rule="evenodd"/><path fill="#000" fill-rule="evenodd" d="M16.494 9.253a.27.27 0 0 1 .133.233v5.034a.27.27 0 0 1-.135.233l-4.359 2.49a.268.268 0 0 1-.401-.232v-5.014a.27.27 0 0 1 .134-.233l4.36-2.51a.27.27 0 0 1 .268 0m-4.226 2.899v4.397l3.823-2.184V9.95z" clip-rule="evenodd"/><path fill="#000" fill-rule="evenodd" d="m12 2 8.582 5.002v9.996L12 22l-8.582-5.002V7.002zm0 1.242L4.491 7.619v8.762l7.51 4.377 7.508-4.377V7.62z" clip-rule="evenodd"/><path fill="#000" fill-rule="evenodd" d="m20.328 7.782-8.329 4.847-8.302-4.847.54-.926L12 11.387l7.788-4.532z" clip-rule="evenodd"/><path fill="#000" fill-rule="evenodd" d="M12 11.472c.296 0 .537.24.537.536v9.371a.536.536 0 0 1-1.073 0v-9.37c0-.297.24-.537.536-.537" clip-rule="evenodd"/></svg>