<svg xmlns="http://www.w3.org/2000/svg" fill="none" viewBox="0 0 24 24"><path fill="#667489" fill-rule="evenodd" d="M20 21.167c0 .46-.373.833-.833.833H7.652a2.646 2.646 0 0 1-2.621-2.348C5.02 19.6 5 19.554 5 19.5V4.955c0-.054.02-.1.03-.152-.012-.1-.03-.199-.03-.303C5 3.122 6.122 2 7.5 2h11.667a.833.833 0 1 1 0 1.667.834.834 0 0 0 0 1.666c.46 0 .833.373.833.834 0 .08-.024.153-.046.226.022.075.046.147.046.228v14.546ZM7.5 3.667a.834.834 0 0 0 0 1.666h9.315a2.466 2.466 0 0 1-.148-.833c0-.293.06-.57.153-.833H7.5ZM7.5 7c-.293 0-.572-.06-.833-.153v12.501c0 .544.441.985.985.985h10.681V7H7.5Z" clip-rule="evenodd"/></svg>