<svg xmlns="http://www.w3.org/2000/svg" fill="none" viewBox="0 0 24 24"><path fill="#62757E" fill-rule="evenodd" d="M20.46 20.46h-.59a7.6 7.6 0 0 1 0-3.08h.59a.77.77 0 0 0 0-1.54V3.39c0-.77-.63-1.39-1.4-1.39H5.33c-1.4 0-2.56 1.07-2.56 2.42v14.5c0 1.7 1.4 3.08 3.12 3.08h14.57a.77.77 0 0 0 0-1.54m-2.16 0H5.89c-.88 0-1.58-.69-1.58-1.54s.7-1.54 1.58-1.54H18.3a9.4 9.4 0 0 0 0 3.08M7 3.531 5.34 3.53c-.58 0-1.03.41-1.03.89v11.86c.46-.27 1-.44 1.58-.44H7zm1.6.001 10.34.008v12.31L8.6 15.842z" clip-rule="evenodd"/></svg>