<svg xmlns="http://www.w3.org/2000/svg" fill="none" viewBox="0 0 24 24"><path fill="currentColor" fill-rule="evenodd" d="M7.295 4.008c1.373-.084 2.934.497 4.709 1.706 1.586-1.08 3.002-1.656 4.281-1.705l.224-.003.196.007c1.412.086 3.01.658 4.81 1.7.225.13.374.358.406.613l.006.097L22 18.83a.827.827 0 0 1-1.303.68c-1.386-.975-2.614-1.505-3.672-1.608-.956-.093-2.421.405-4.343 1.53l-.144.087a.778.778 0 0 1-.465.197.774.774 0 0 1-.64-.22c-1.98-1.175-3.484-1.694-4.458-1.599-1.058.103-2.286.633-3.672 1.61a.827.827 0 0 1-1.298-.588L2 18.824l.073-12.406a.827.827 0 0 1 .412-.71c1.8-1.042 3.398-1.614 4.81-1.7Zm9.177 1.65c-.862-.008-1.946.39-3.232 1.22l-.244.16-.163.111-.006 5.07.006 5.24.126-.066c1.5-.766 2.771-1.156 3.834-1.156l.21.005.182.013c.861.084 1.764.366 2.711.84l.285.149.156.086-.061-10.417-.177-.096c-1.153-.61-2.174-.978-3.048-1.108l-.216-.027-.21-.018-.153-.005Zm-9.076 0 .15-.005.165.005c.892.047 2.004.504 3.32 1.394l.135.093.007 5.076-.007 5.232-.125-.064-.295-.148c-1.558-.759-2.86-1.095-3.931-.99l-.26.03-.291.049c-.781.149-1.596.453-2.445.91l-.156.085.06-10.416.178-.096.286-.148c1.225-.618 2.297-.951 3.209-1.007Z" clip-rule="evenodd"/></svg>