<svg xmlns="http://www.w3.org/2000/svg" fill="none" viewBox="0 0 24 24"><path fill="#62757E" fill-rule="evenodd" d="m20.514 20.3-8.35 1.684a1 1 0 0 1-.16.016h-.007a1 1 0 0 1-.16-.016l-8.35-1.683C2.652 20.132 2 19.329 2 18.473V3.53c0-.473.2-.909.546-1.195a1.51 1.51 0 0 1 1.269-.303l8.027 1.617c.052-.011.102-.03.158-.03.055 0 .102.02.154.03l8.033-1.617c.457-.091.92.017 1.267.303S22 3.057 22 3.53v14.943c0 .856-.652 1.659-1.486 1.828M11.167 5.226l-7.5-1.51v14.758c0 .063.086.169.148.181l7.352 1.482zm6.666-1.007-2.5.503v3.207l.61-.738a.83.83 0 0 1 1.16-.119l.73.589zm2.5-.504-.833.168v5.525a.84.84 0 0 1-.473.756.83.83 0 0 1-.881-.1L16.7 8.897l-1.561 1.888a.83.83 0 0 1-.923.25.84.84 0 0 1-.55-.789V5.057l-.834.168v14.911l7.353-1.482c.06-.012.147-.118.147-.18z" clip-rule="evenodd"/></svg>