<svg xmlns="http://www.w3.org/2000/svg" fill="none" viewBox="0 0 24 24"><path fill="#666D89" fill-rule="evenodd" d="m20.512 20.3-8.349 1.684a.808.808 0 0 1-.16.016h-.006a.808.808 0 0 1-.16-.016l-8.35-1.683C2.653 20.134 2 19.33 2 18.473V3.53c0-.473.2-.908.546-1.195a1.512 1.512 0 0 1 1.269-.303l8.023 1.616c.054-.011.105-.031.162-.031.056 0 .105.022.158.032l8.029-1.617a1.51 1.51 0 0 1 1.267.303c.347.287.546.722.546 1.195v14.943c0 .858-.653 1.66-1.488 1.828ZM3.668 3.715v14.759c0 .061.087.169.146.181l7.354 1.482V5.225l-7.5-1.511Zm16.666 0-7.5 1.51v14.912l7.353-1.482c.06-.012.147-.12.147-.181V3.713Z" clip-rule="evenodd"/></svg>