<svg xmlns="http://www.w3.org/2000/svg" fill="none" viewBox="0 0 24 24"><g clip-path="url(#a)"><path fill="#00B4F4" d="M12 24c6.627 0 12-5.373 12-12S18.627 0 12 0 0 5.373 0 12s5.373 12 12 12"/><path fill="#FEFFFF" d="M7.2 15.908v.09h-.938V14.3l-.03.093-.898-.27.508-1.636-.063.092L5 12.063l.973-1.422-.093.074-.59-.72 1.4-1.117-.18.068-.336-.864 1.673-.633-.196.014-.065-.923 1.751-.121-.157-.036.21-.903 1.674.381-.106-.06.47-.801 1.46.83-.058-.06.687-.631 1.137 1.2-.024-.049.844-.406.729 1.473-.006-.041.927-.145.274 1.7.019-.12.928.144-.278 1.726.07-.138.844.406-.782 1.578.114-.12.687.631-1.215 1.283.148-.083.47.801-1.527.868.153-.034.211.901-1.687.384.13.009-.066.924-1.689-.117.087.033-.337.863-1.617-.61.102.08-.59.72-1.335-1.064.066.096-.78.517-.953-1.393.029.092-.9.27zm0-1.1.588-.176.456 1.47.507-.338.867 1.267.388-.472 1.201.959.215-.552 1.448.548.043-.598 1.55.107-.14-.595 1.52-.346-.316-.537 1.357-.77-.465-.427 1.071-1.133-.571-.274.689-1.391-.625-.098.245-1.527-.598.093-.244-1.528-.539.259-.684-1.381-.439.403-1.058-1.118-.303.517-1.34-.763-.138.591-1.507-.343.043.617-1.546.106.228.588-1.456.55.392.477-1.224.976.517.343-.882 1.287.594.18-.46 1.483H7.2zm2.078-5.66h1.894q.33 0 .656.046.327.046.575.184t.376.385.072.657a1.18 1.18 0 0 1-.34.704q-.284.28-.693.399v.014q.243.036.434.138a1 1 0 0 1 .312.262q.123.16.172.371.051.212.015.452a1.36 1.36 0 0 1-.266.661c-.136.175-.307.32-.502.428q-.305.166-.646.234-.34.07-.689.07h-2.08l.709-5.005m.832 2.001h.81q.13 0 .26-.028a1 1 0 0 0 .24-.092.6.6 0 0 0 .186-.17.6.6 0 0 0 .097-.254.42.42 0 0 0-.033-.258.4.4 0 0 0-.154-.16.8.8 0 0 0-.233-.08 1.4 1.4 0 0 0-.262-.025h-.76zm-.295 2.072h1.005q.13 0 .269-.029a.74.74 0 0 0 .455-.283.57.57 0 0 0 .109-.276.42.42 0 0 0-.05-.285.45.45 0 0 0-.201-.167 1 1 0 0 0-.284-.078 2 2 0 0 0-.29-.02H9.98zm5.402-3.993-1.188 4.275-.981-.067.74-4.408zm-1.036 4.721-.308 1.51-1.305-.374.298-1.449z"/></g><defs><clipPath id="a"><path fill="#fff" d="M0 0h24v24H0z"/></clipPath></defs></svg>