<svg xmlns="http://www.w3.org/2000/svg" fill="none" viewBox="0 0 24 24"><g clip-path="url(#a)"><path fill="#00B4F4" d="M12 24c6.627 0 12-5.373 12-12S18.627 0 12 0 0 5.373 0 12s5.373 12 12 12Z"/><path fill="#FEFFFF" d="M7.2 15.908v.09h-.938V14.3l-.03.093-.898-.27.508-1.636-.063.092L5 12.063l.973-1.422-.093.074-.59-.72 1.4-1.117-.18.068-.336-.864 1.673-.633-.196.014-.065-.923 1.751-.121-.157-.036.21-.903 1.674.381-.106-.06.47-.801 1.46.83-.058-.06.687-.631 1.137 1.2-.024-.049.844-.406.729 1.473-.006-.041.927-.145.274 1.7.019-.12.928.144-.278 1.726.07-.138.844.405-.782 1.58.114-.121.687.631-1.215 1.283.148-.083.47.801-1.527.868.153-.034.211.901-1.687.384.13.009-.066.924-1.689-.117.087.033-.337.863-1.617-.61.102.08-.59.72-1.335-1.064.066.096-.78.517-.953-1.393.029.092-.9.27-.5-1.61Zm0-1.1.588-.176.456 1.47.507-.338.867 1.267.388-.472 1.201.959.215-.552 1.448.548.043-.598 1.55.107-.14-.595 1.52-.346-.316-.537 1.357-.77-.465-.427 1.071-1.133-.571-.274.689-1.391-.625-.098.245-1.527-.598.093-.244-1.528-.539.259-.684-1.381-.439.403-1.058-1.118-.303.517-1.34-.763-.138.591-1.507-.343.043.617-1.546.106.228.588-1.456.55.392.477-1.224.976.517.343-.882 1.287.594.18-.46 1.483H7.2v1.546Zm2.078-5.66h1.894c.22 0 .439.015.656.046.218.03.41.092.575.184.165.092.29.22.376.385.087.165.11.384.072.657a1.175 1.175 0 0 1-.34.704c-.19.186-.42.32-.693.399v.014c.162.024.307.07.434.138a.959.959 0 0 1 .312.262c.082.106.139.23.172.371.034.141.039.292.015.452a1.364 1.364 0 0 1-.266.661c-.136.175-.307.32-.502.428-.202.11-.42.19-.646.234-.227.046-.457.07-.689.07h-2.08l.709-5.005Zm.832 2.001h.81c.087 0 .173-.01.26-.028a.847.847 0 0 0 .24-.092.58.58 0 0 0 .186-.17.576.576 0 0 0 .097-.254.422.422 0 0 0-.033-.258.382.382 0 0 0-.154-.16.753.753 0 0 0-.233-.08 1.429 1.429 0 0 0-.262-.025h-.76l-.151 1.067Zm-.295 2.072h1.005c.086 0 .176-.01.269-.029a.744.744 0 0 0 .455-.283.57.57 0 0 0 .109-.276.419.419 0 0 0-.05-.285.448.448 0 0 0-.201-.167 1.067 1.067 0 0 0-.284-.078 2.155 2.155 0 0 0-.29-.02H9.98l-.165 1.137Zm5.402-3.993-1.188 4.275-.981-.067.74-4.408 1.428.2h.001Zm-1.036 4.721-.308 1.51-1.305-.374.298-1.449 1.315.313Z"/></g><defs><clipPath id="a"><path fill="#fff" d="M0 0h24v24H0z"/></clipPath></defs></svg>