<svg xmlns="http://www.w3.org/2000/svg" fill="none" viewBox="0 0 24 24"><g clip-path="url(#a)"><path fill="#00A8D6" d="M12 24c6.627 0 12-5.373 12-12S18.627 0 12 0 0 5.373 0 12s5.373 12 12 12Z"/><path fill="#fff" fill-rule="evenodd" d="M10.621 13.967v-1.278h1.97c1.313 0 1.97-.328 1.97-.984V8.262c0-.655-.657-.983-1.97-.983H9.44v2.065H7.667V6h4.726c2.627 0 3.94.721 3.94 2.164v3.64c0 1.442-1.313 2.163-3.94 2.163h-1.772Zm3.94.787h1.772v1.082c0 1.443-1.313 2.164-3.94 2.164H7.666v-7.672h4.727c.278 0 .54.008.789.024v1.28a6.08 6.08 0 0 0-.591-.026H9.44v5.115h3.151c1.314 0 1.97-.328 1.97-.983v-.985.001Z" clip-rule="evenodd"/></g><defs><clipPath id="a"><path fill="#fff" d="M0 0h24v24H0z"/></clipPath></defs></svg>