<svg xmlns="http://www.w3.org/2000/svg" fill="none" viewBox="0 0 24 24"><g clip-path="url(#a)"><path fill="#00A8D6" d="M12 24c6.627 0 12-5.373 12-12S18.627 0 12 0 0 5.373 0 12s5.373 12 12 12"/><path fill="#fff" fill-rule="evenodd" d="M10.621 13.967v-1.278h1.97q1.97 0 1.97-.984V8.262q0-.983-1.97-.983H9.44v2.065H7.667V6h4.726q3.94 0 3.94 2.164v3.64q0 2.163-3.94 2.163zm3.94.787h1.772v1.082q0 2.164-3.94 2.164H7.666v-7.672h4.727q.416 0 .789.024v1.28a6 6 0 0 0-.591-.026H9.44v5.115h3.151q1.97 0 1.97-.983z" clip-rule="evenodd"/></g><defs><clipPath id="a"><path fill="#fff" d="M0 0h24v24H0z"/></clipPath></defs></svg>