<svg xmlns="http://www.w3.org/2000/svg" fill="none" viewBox="0 0 24 24"><g clip-path="url(#a)"><path fill="#0F63D8" d="M12 24c6.627 0 12-5.372 12-12 0-6.627-5.373-12-12-12S0 5.373 0 12c0 6.628 5.373 12 12 12"/><path fill="#fff" d="M18.29 15.015q-.093.19-.202.369c-.05.088-.096.175-.148.259l-.066.116h-.008a6.934 6.934 0 0 1-9.73 2.066c-.033-.022-.06-.045-.091-.066a5 5 0 0 1-.35-.251 6 6 0 0 1-.509-.435 6 6 0 0 1-.225-.22c-.08-.081-.148-.16-.228-.25q-.121-.137-.236-.278a6 6 0 0 1-.173-.233 7 7 0 0 1-.226-.328 6 6 0 0 1-.133-.221 6 6 0 0 1-.31-.59 9 9 0 0 1-.168-.384q-.046-.12-.09-.243c-.043-.128-.086-.26-.124-.385-.025-.09-.041-.177-.07-.27a7 7 0 0 1-.084-.375c-.013-.095-.034-.196-.043-.286a8 8 0 0 1-.046-.376c-.009-.098-.02-.197-.02-.296-.01-.125-.01-.25-.01-.376 0-.095.008-.19.008-.287q.015-.332.06-.662a7 7 0 0 1 .498-1.781c.014-.035.032-.078.04-.107a.2.2 0 0 1 .051-.084 7 7 0 0 1 .215-.42q.056-.116.125-.229c.032-.054.054-.106.096-.166.04-.06.088-.123.13-.185q.082-.13.174-.25.12-.162.25-.316.228-.268.481-.514.092-.089.188-.174.257-.22.528-.424.18-.125.366-.25.099-.065.2-.125.188-.109.376-.208.425-.22.877-.378.47-.168.962-.265.322-.063.646-.098.212-.024.428-.032.117-.008.235-.006.34-.004.678.026a6.7 6.7 0 0 1 1.36.261 6 6 0 0 1 .664.234c.07.03.142.052.212.083v.01a6.933 6.933 0 0 1 3.482 9.325zm-8.945 2.863v-.001a6.456 6.456 0 0 0 8.135-2.503q.069-.115.132-.233c.06-.114.128-.225.186-.35a6.42 6.42 0 0 0-3.615-8.856 7 7 0 0 0-.61-.186 6.3 6.3 0 0 0-1.014-.173l-.214-.015a9 9 0 0 0-.412-.01h-.215a7 7 0 0 0-.633.06 6 6 0 0 0-.63.12 6 6 0 0 0-.617.185 5 5 0 0 0-.26.097q-.278.115-.547.25a7 7 0 0 0-.532.306q-.175.109-.339.232-.086.06-.17.125a7 7 0 0 0-.482.42q-.14.142-.275.286a7 7 0 0 0-.404.487 7 7 0 0 0-.37.55q-.062.104-.118.206a6.5 6.5 0 0 0-.505 1.182 5 5 0 0 0-.17.63 6 6 0 0 0-.07.405q-.015.116-.028.234c-.012.125-.026.25-.026.375-.008.086-.008.172-.008.258 0 .119.01.237.01.356q.017.31.062.618c.017.085.031.167.047.26q.035.176.079.352.03.12.063.242.054.18.118.358.038.11.08.22c.048.12.1.236.15.36q.047.103.098.205.092.172.188.337.062.104.125.205.099.152.207.303c.053.072.091.132.16.215a15 15 0 0 0 .425.481c.067.07.12.12.207.203q.222.215.467.401c.408.32.853.59 1.325.803m2.642-.525a5.357 5.357 0 1 1 5.353-5.359 5.363 5.363 0 0 1-5.353 5.36m0-8.958A3.602 3.602 0 1 0 14.53 9.45a3.6 3.6 0 0 0-2.543-1.058z"/></g><defs><clipPath id="a"><path fill="#fff" d="M0 0h24v24H0z"/></clipPath></defs></svg>