<svg xmlns="http://www.w3.org/2000/svg" fill="none" viewBox="0 0 24 24"><g clip-path="url(#a)"><path fill="#0F63D8" d="M12 24c6.627 0 12-5.372 12-12 0-6.627-5.373-12-12-12S0 5.373 0 12c0 6.628 5.373 12 12 12Z"/><path fill="#fff" d="M18.29 15.015c-.062.126-.13.25-.202.369-.05.088-.096.175-.148.259-.023.039-.043.079-.066.116h-.008a6.934 6.934 0 0 1-9.73 2.066c-.033-.022-.06-.045-.091-.066a4.466 4.466 0 0 1-.35-.251 5.953 5.953 0 0 1-.509-.435 6.117 6.117 0 0 1-.225-.22c-.08-.081-.148-.16-.228-.25a8.882 8.882 0 0 1-.236-.278 6.243 6.243 0 0 1-.173-.233 7.255 7.255 0 0 1-.226-.328 6.42 6.42 0 0 1-.133-.221 6.026 6.026 0 0 1-.31-.59 9.196 9.196 0 0 1-.168-.384c-.032-.08-.06-.162-.09-.243-.043-.128-.086-.26-.124-.385-.025-.09-.041-.177-.07-.27a6.633 6.633 0 0 1-.084-.375c-.013-.095-.034-.196-.043-.286a7.68 7.68 0 0 1-.046-.376c-.009-.098-.02-.197-.02-.296-.01-.125-.01-.25-.01-.376 0-.095.008-.19.008-.287a7.029 7.029 0 0 1 .558-2.444c.014-.034.032-.077.04-.106a.216.216 0 0 1 .051-.084 6.87 6.87 0 0 1 .215-.42c.036-.077.08-.154.125-.229.032-.054.054-.106.096-.166.04-.06.088-.123.13-.185a6.323 6.323 0 0 1 .424-.566c.152-.179.312-.35.481-.514.062-.058.124-.118.188-.174.171-.147.348-.288.528-.424.12-.083.242-.167.366-.25.066-.043.132-.085.2-.125a6.747 6.747 0 0 1 1.252-.586c.314-.112.636-.2.963-.265a6.758 6.758 0 0 1 1.074-.13C11.776 5 11.855 5 11.934 5a6.718 6.718 0 0 1 2.038.288 5.538 5.538 0 0 1 .664.233c.07.03.142.052.212.083v.01a6.933 6.933 0 0 1 3.482 9.325c-.013.026-.028.049-.04.075Zm-8.945 2.863v-.001a6.456 6.456 0 0 0 8.135-2.503c.046-.076.09-.155.132-.233.06-.114.128-.225.186-.35a6.421 6.421 0 0 0-3.615-8.856 7.22 7.22 0 0 0-.61-.186 6.298 6.298 0 0 0-1.014-.173l-.214-.015a8.934 8.934 0 0 0-.412-.01h-.215a6.836 6.836 0 0 0-.633.06 5.798 5.798 0 0 0-.63.12 5.93 5.93 0 0 0-.617.185 4.93 4.93 0 0 0-.26.097 7.92 7.92 0 0 0-.547.25 7.07 7.07 0 0 0-.532.306 4.61 4.61 0 0 0-.339.232 3.89 3.89 0 0 0-.17.125 6.68 6.68 0 0 0-.482.42 6.755 6.755 0 0 0-.68.773 7.055 7.055 0 0 0-.37.55l-.117.206a6.487 6.487 0 0 0-.505 1.182 5.04 5.04 0 0 0-.17.63 6.23 6.23 0 0 0-.07.405c-.01.077-.02.156-.028.234-.012.125-.026.25-.026.375-.008.086-.008.172-.008.258 0 .119.01.237.01.356.011.207.032.413.062.618.017.085.031.167.047.26a7.411 7.411 0 0 0 .142.594c.035.12.076.24.118.358.026.073.051.147.08.22.048.12.1.236.15.36.032.068.063.138.098.205.062.114.123.227.188.337.042.07.082.137.125.205.065.102.136.202.207.303.053.072.091.132.16.215a14.997 14.997 0 0 0 .425.481c.067.07.12.12.207.203.148.143.304.277.467.401.408.32.853.59 1.325.803Zm2.642-.525a5.357 5.357 0 1 1 5.353-5.359 5.363 5.363 0 0 1-5.353 5.36Zm0-8.958A3.602 3.602 0 1 0 14.53 9.45a3.605 3.605 0 0 0-2.543-1.058v.003Z"/></g><defs><clipPath id="a"><path fill="#fff" d="M0 0h24v24H0z"/></clipPath></defs></svg>