<svg xmlns="http://www.w3.org/2000/svg" fill="none" viewBox="0 0 24 24"><g clip-path="url(#a)"><path fill="#1D1D1D" d="M12 24c6.627 0 12-5.373 12-12S18.627 0 12 0 0 5.373 0 12s5.373 12 12 12Z"/><path fill="#fff" fill-rule="evenodd" d="M7.64 11.967a2.78 2.78 0 0 0 2.793 2.779c1.533-.01 2.778-1.24 2.779-2.745a2.767 2.767 0 0 0-2.787-2.794c-1.54.002-2.786 1.237-2.786 2.76Zm.002 2.99v.92h-1.42V5.5a1.39 1.39 0 0 1 1.018.437c.263.274.393.603.392.984-.004.684-.002 1.368-.002 2.085.992-.829 2.096-1.237 3.383-1.04 1.274.195 2.253.836 2.92 1.933 1.008 1.658.681 3.774-.778 5.092-1.424 1.285-3.789 1.485-5.513-.034Zm4.593.9c.056-.034.086-.054.117-.07.447-.22.85-.519 1.191-.882a.38.38 0 0 1 .275-.13c1.206-.069 2.293-1.04 2.497-2.227.269-1.56-.679-2.936-2.246-3.235a.926.926 0 0 1-.556-.304c-.289-.319-.64-.568-1.013-.783-.032-.018-.062-.037-.114-.069.71-.195 1.403-.241 2.105-.082.698.159 1.3.5 1.863.968v-.92h1.424V18.5a1.415 1.415 0 0 1-1.012-.435 1.374 1.374 0 0 1-.399-.994V15c-1.226 1.027-2.582 1.335-4.132.858Z" clip-rule="evenodd"/></g><defs><clipPath id="a"><path fill="#fff" d="M0 0h24v24H0z"/></clipPath></defs></svg>