<svg xmlns="http://www.w3.org/2000/svg" fill="none" viewBox="0 0 24 24"><path fill="#000" d="M12.12 16.768c.804 0 1.607-.239 2.41-.637 2.25-1.276 3.052-4.225 1.767-6.457-1.285-2.232-4.257-3.029-6.506-1.754-1.124.638-1.847 1.674-2.249 2.87a4.7 4.7 0 0 0 .482 3.587c.803 1.594 2.41 2.391 4.097 2.391Zm-3.132-5.5c.241-.797.723-1.514 1.526-1.913.482-.319 1.044-.398 1.607-.398 1.124 0 2.168.558 2.81 1.594.884 1.514.322 3.507-1.204 4.384-1.526.877-3.534.319-4.418-1.196-.401-.797-.562-1.674-.321-2.47Zm8.434-2.311c.642 1.036 1.606 1.833 2.811 2.152.402.08.803.16 1.205.16.24 0 .401 0 .642-.08-.08-.479-.16-.957-.24-1.515-.402.08-.804 0-1.205-.08-.804-.239-1.446-.717-1.928-1.435-.402-.717-.562-1.514-.321-2.311.08-.399.32-.718.562-1.036-.402-.32-.723-.638-1.205-.957-.402.478-.642 1.036-.803 1.594-.322 1.276-.16 2.471.482 3.508Zm2.811 4.065a4.47 4.47 0 0 0-2.811 2.152c-.643 1.036-.803 2.311-.482 3.507.16.638.482 1.116.803 1.594l1.205-.956a4.272 4.272 0 0 1-.562-1.036c-.241-.798-.08-1.595.32-2.312.402-.717 1.125-1.196 1.929-1.435.401-.08.803-.16 1.204-.08.08-.478.161-.956.241-1.514-.642-.16-1.204-.08-1.847.08Zm-8.193 6.695c1.285 0 2.41.798 2.892 1.913.482-.159.964-.318 1.446-.558-.723-1.674-2.33-2.87-4.257-2.87-1.928 0-3.615 1.196-4.257 2.87.481.24.963.399 1.445.558a2.874 2.874 0 0 1 2.731-1.913Zm0-13.789c1.928 0 3.615-1.196 4.257-2.87a7.77 7.77 0 0 0-1.446-.558c-.482 1.116-1.606 1.913-2.891 1.913S9.55 3.616 9.068 2.5c-.482.16-.964.319-1.445.558.883 1.674 2.49 2.87 4.417 2.87Zm-5.301 9.246c-.643-1.036-1.606-1.833-2.811-2.152-.643-.16-1.205-.16-1.848-.08.08.478.161.957.241 1.514h.402c.24 0 .562 0 .803.08.803.24 1.446.718 1.928 1.435.642 1.116.482 2.471-.241 3.427.401.32.723.638 1.205.957 1.044-1.514 1.285-3.587.321-5.181Zm-2.811-4.065a4.47 4.47 0 0 0 2.811-2.152c.643-1.037.803-2.312.482-3.508-.16-.637-.482-1.116-.803-1.594a7.887 7.887 0 0 0-1.205.957c.24.318.401.637.562 1.036.241.797.08 1.594-.321 2.311-.402.718-1.125 1.196-1.928 1.435-.401.08-.803.16-1.205.08a62.5 62.5 0 0 0-.24 1.514c.24 0 .4.08.642.08.401 0 .803 0 1.205-.16Z"/></svg>