<svg xmlns="http://www.w3.org/2000/svg" fill="none" viewBox="0 0 24 24"><path fill="#000" d="M12.12 16.768c.804 0 1.607-.239 2.41-.638 2.249-1.275 3.052-4.224 1.767-6.456S12.04 6.644 9.791 7.92c-1.125.638-1.847 1.674-2.249 2.87a4.7 4.7 0 0 0 .482 3.587c.803 1.594 2.41 2.391 4.096 2.391m-3.132-5.5c.24-.797.723-1.514 1.526-1.913.482-.319 1.044-.398 1.606-.398 1.125 0 2.169.557 2.812 1.594.883 1.514.32 3.507-1.205 4.384s-3.534.319-4.418-1.196c-.402-.797-.562-1.674-.321-2.47m8.433-2.312c.643 1.036 1.607 1.833 2.812 2.152.401.08.803.16 1.204.16.241 0 .402 0 .643-.08-.08-.479-.16-.957-.241-1.515-.402.08-.803 0-1.205-.08q-1.205-.358-1.928-1.435c-.401-.717-.562-1.514-.32-2.311.08-.399.32-.718.562-1.036-.402-.32-.723-.638-1.205-.957-.402.478-.643 1.036-.803 1.594-.322 1.276-.161 2.471.481 3.508m2.812 4.065a4.47 4.47 0 0 0-2.812 2.152c-.642 1.036-.803 2.311-.482 3.507.161.638.482 1.116.804 1.594l1.205-.956c-.242-.319-.402-.638-.563-1.036-.24-.798-.08-1.595.321-2.312.402-.717 1.125-1.196 1.928-1.435.402-.08.803-.16 1.205-.08.08-.478.16-.956.241-1.514-.643-.16-1.205-.08-1.847.08m-8.193 6.695c1.285 0 2.41.798 2.892 1.913.482-.159.963-.318 1.445-.558-.723-1.674-2.329-2.87-4.257-2.87s-3.614 1.196-4.257 2.87c.482.24.964.399 1.446.558a2.87 2.87 0 0 1 2.731-1.913m0-13.789c1.928 0 3.614-1.196 4.257-2.87A8 8 0 0 0 14.85 2.5a3.17 3.17 0 0 1-2.892 1.913A3.17 3.17 0 0 1 9.067 2.5c-.482.16-.964.319-1.446.558.884 1.674 2.49 2.87 4.418 2.87m-5.3 9.246c-.643-1.036-1.607-1.833-2.812-2.152-.642-.16-1.204-.16-1.847-.08.08.478.16.957.241 1.515h.402c.24 0 .562 0 .803.08q1.205.358 1.928 1.434c.642 1.116.482 2.471-.241 3.428.401.318.723.637 1.204.956 1.045-1.514 1.286-3.587.322-5.181m-2.812-4.065A4.47 4.47 0 0 0 6.74 8.957c.642-1.037.803-2.312.482-3.508-.161-.637-.482-1.116-.804-1.594a8 8 0 0 0-1.204.957c.24.318.401.637.562 1.036.24.797.08 1.594-.321 2.311-.402.718-1.125 1.196-1.928 1.435-.402.08-.803.16-1.205.08-.08.478-.16.956-.24 1.514.24 0 .4.08.642.08.401 0 .803 0 1.204-.16"/></svg>