<svg xmlns="http://www.w3.org/2000/svg" fill="none" viewBox="0 0 24 24"><path fill="#62757E" fill-rule="evenodd" d="M7.62 2.24a.85.85 0 0 1 1.14.38l.584 1.168a5.85 5.85 0 0 1 5.312 0l.584-1.168a.85.85 0 1 1 1.52.76l-.703 1.406.08.077A5.85 5.85 0 0 1 17.85 9v8A1.85 1.85 0 0 1 16 18.85h-.15V21a.85.85 0 1 1-1.7 0v-2.15h-4.3V21a.85.85 0 1 1-1.7 0v-2.15H8A1.85 1.85 0 0 1 6.15 17V9a5.85 5.85 0 0 1 1.793-4.214L7.24 3.38a.85.85 0 0 1 .38-1.14Zm1.879 3.449A4.151 4.151 0 0 0 7.938 8.15h8.124A4.15 4.15 0 0 0 9.5 5.689ZM16.15 9.85h-8.3V17a.15.15 0 0 0 .15.15h8a.15.15 0 0 0 .15-.15V9.85ZM4 9.15c.47 0 .85.38.85.85v6a.85.85 0 1 1-1.7 0v-6c0-.47.38-.85.85-.85Zm16 0c.47 0 .85.38.85.85v6a.85.85 0 1 1-1.7 0v-6c0-.47.38-.85.85-.85Z" clip-rule="evenodd"/></svg>