<svg xmlns="http://www.w3.org/2000/svg" fill="none" viewBox="0 0 24 24"><path fill="#62757E" d="M12.005 2c.21.006.812.047 1.564.303.391.132.966.35 1.293.43l3.267-.595.087-.016.055.067q.629.779 1.125 1.433l.667-.666a.84.84 0 0 1 1.186 1.186L3.616 21.775A.839.839 0 1 1 2.43 20.59l3.636-3.637a4.4 4.4 0 0 1-.612-.765l-.174-.303c-.672-1.285-.223-2.474.03-3.092-.183-.197-.677-.732-1.157-1.255A305 305 0 0 0 3 10.294l-.015-.015h-.002l-.015-.015C2.616 9.914 2 9.3 2 8.07c0-.118.039-.296.136-.551a7.6 7.6 0 0 1 .526-1.064c.527-.914 1.457-2.276 3.069-4.267l.055-.067.085.016 3.268.594c.327-.08.902-.298 1.294-.43A5.6 5.6 0 0 1 11.996 2zm9.335 4.456c.264.457.427.805.526 1.064.097.255.134.433.134.551 0 1.23-.614 1.842-.966 2.193l-.015.015-.004.001-.014.014-.078.082-.27.289-.804.872c-.48.523-.975 1.058-1.16 1.255.254.618.703 1.807.033 3.092-.416.79-1.065 1.445-1.768 1.774.015.577-.278 1.127-.772 1.485-.23.17-2.292 1.806-2.493 1.982-.572.566-1.12.875-1.689.875-.568 0-1.116-.31-1.688-.876a147 147 0 0 0-2.028-1.617l1.087-1.088c.725.572 1.802 1.424 1.957 1.564.118.106.245.229.376.33q.097.076.178.119a.3.3 0 0 0 .118.038q.037.002.12-.038.08-.043.178-.117c.13-.102.257-.226.374-.332.232-.208 2.46-1.968 2.617-2.082a.4.4 0 0 0 .116-.128q.011-.023.015-.042c-1.836-.667-2.849-1.388-3.418-1.943l1.043-1.043q.06.057.13.115c.215.18.487.364.794.544.607.355 1.345.69 2.044.948.192-.012.435-.124.682-.332.253-.212.496-.51.674-.85.384-.74.06-1.428-.216-2.099l-.001-.002c-.131-.332-.1-.595.012-.814.104-.203.28-.366.398-.492l1.973-2.139h-.005l.23-.249c.098-.106.2-.203.283-.288.086-.088.16-.17.222-.259.12-.172.202-.389.204-.755l-.006-.058a1.4 1.4 0 0 0-.104-.292q-.043-.09-.098-.194l1.077-1.077zM11.997 3.53a4 4 0 0 0-1.076.224c-.246.082-.617.219-.934.323a7 7 0 0 1-.464.138 1.5 1.5 0 0 1-.365.056h-.003c-.099 0-.327-.033-.596-.077a52 52 0 0 1-.953-.167 92 92 0 0 1-1.214-.23 55 55 0 0 0-1.463 1.908c-.36.493-.714 1.005-.978 1.44-.132.217-.24.414-.315.578-.077.169-.11.285-.111.35.001.366.085.583.204.755.062.09.136.171.223.259l.283.287 2.2 2.389c.119.126.295.29.4.492.111.218.143.482.012.814v.002c-.278.672-.6 1.358-.218 2.1.141.267.323.507.517.701l3.065-3.065-1.065-.278-.121-.031.011-.125.33-3.658a.66.66 0 0 0-.518-.702l-2.483-.466-.224-.043.13-.188.743-1.07.056-.079 3.823.745.13.026-.01.132-.388 4.305.125.036c.144.042.335.1.526.155l.136.04 1.818-1.818-.243-2.718-.012-.133.13-.025 3.727-.726 1.48-1.48c-.33-.429-.597-.766-.711-.908-.197.038-.693.135-1.212.23-.331.06-.674.12-.953.166-.27.044-.498.076-.597.077h-.002c-.1.002-.23-.022-.365-.056-.14-.035-.3-.084-.464-.138-.317-.104-.687-.24-.933-.323a4 4 0 0 0-1.078-.224m2.862 4.63-.058.057z"/></svg>