<svg xmlns="http://www.w3.org/2000/svg" fill="none" viewBox="0 0 24 24"><path fill="#62757e" d="M12.006 2a5.6 5.6 0 0 1 1.57.304c.39.13.948.342 1.272.423l3.242-.59.087-.015.027-.006.019.024.056.067q.621.769 1.114 1.418l.67-.669a.84.84 0 0 1 1.186 1.186L3.616 21.775A.839.839 0 1 1 2.43 20.59l3.628-3.629a4.4 4.4 0 0 1-.613-.767l-.001-.002-.174-.301-.001-.002c-.668-1.28-.24-2.464.016-3.09-.199-.212-.67-.725-1.13-1.225a281 281 0 0 0-1.07-1.155l-.075-.081-.007-.005-.002-.002h-.003l-.021-.022C2.624 9.956 2 9.334 2 8.09c0-.127.04-.31.138-.567.1-.26.264-.609.527-1.065.527-.912 1.453-2.27 3.058-4.252l.056-.067.018-.024.028.006.086.015 3.24.59c.325-.081.884-.292 1.274-.423A5.6 5.6 0 0 1 11.995 2zm9.33 4.459c.263.456.428.805.528 1.065.097.256.136.44.136.567 0 1.243-.623 1.864-.976 2.216l-.02.022-.006.001-.006.007-.077.081-.267.287-.802.868c-.46.5-.932 1.012-1.13 1.225.237.585.63 1.66.131 2.847l-.114.243c-.413.782-1.055 1.434-1.754 1.771.004.581-.293 1.13-.787 1.489a163 163 0 0 0-2.479 1.97c-.5.495-.99.799-1.495.867L12 22c-.584 0-1.14-.317-1.713-.883l-1.226-.985c-.278-.221-.56-.44-.785-.617L9.43 18.36c.722.57 1.78 1.407 1.935 1.547l.181.165q.093.086.19.161.094.074.169.113a.24.24 0 0 0 .095.031l.034-.006a.4.4 0 0 0 .063-.025 1 1 0 0 0 .169-.112c.128-.099.252-.22.37-.327.233-.209 2.446-1.959 2.607-2.075a.4.4 0 0 0 .093-.1c-1.767-.65-2.763-1.349-3.336-1.897q-.15.144-.343.299l1.428-1.429q.054.051.116.104c.211.176.48.357.784.535.597.35 1.325.68 2.015.935.175-.014.402-.118.639-.316.247-.207.484-.5.66-.83.368-.714.06-1.374-.219-2.048l-.002-.006c-.133-.342-.102-.618.016-.848.108-.21.29-.38.404-.502l1.885-2.043h-.005l.308-.332c.098-.106.2-.204.282-.288.085-.086.156-.165.215-.25.112-.163.192-.368.194-.723l-.005-.049a1.3 1.3 0 0 0-.1-.28q-.036-.075-.082-.163l1.144-1.145zm-9.339-2.836a4 4 0 0 0-1.054.219c-.24.08-.617.219-.93.322a7 7 0 0 1-.465.138c-.13.033-.262.055-.367.055l-.005.002h-.008c-.102 0-.334-.034-.6-.077a51 51 0 0 1-.95-.167c-.494-.09-.967-.181-1.18-.222a55 55 0 0 0-1.434 1.873c-.357.49-.709.997-.97 1.428a6 6 0 0 0-.312.57c-.076.169-.105.276-.105.33.001.355.082.56.194.721.059.086.132.165.217.251l.28.287h.002L6.5 11.73c.113.121.297.292.405.501.117.23.148.505.014.847l.001.001-.002.006c-.277.675-.586 1.333-.217 2.048.137.26.313.493.502.682l2.972-2.972-1.027-.269-.12-.03-.042-.01.015-.167.328-3.64v-.114a.61.61 0 0 0-.474-.532L6.16 7.576l-.076-.014.044-.064.128-.186.741-1.067.055-.078.02-.026.03.006 3.935.767.043.008-.003.045-.011.132-.382 4.242.086.025.522.155.159.045 1.725-1.725-.245-2.741-.012-.132-.005-.046.045-.008 3.906-.762 1.378-1.378a61 61 0 0 0-.69-.881c-.213.04-.685.132-1.177.222-.329.06-.67.122-.949.167a6 6 0 0 1-.583.074l-.002.003h-.02a1.6 1.6 0 0 1-.375-.057 7 7 0 0 1-.465-.138c-.314-.103-.69-.24-.93-.321a4 4 0 0 0-1.056-.22"/></svg>