<svg xmlns="http://www.w3.org/2000/svg" fill="none" viewBox="0 0 24 24"><path fill="#62757E" fill-rule="evenodd" d="M12.005 2a5.6 5.6 0 0 1 1.563.303c.392.132.966.35 1.293.43l3.268-.595.087-.016.054.068c1.613 1.99 2.543 3.353 3.07 4.266.263.457.427.805.526 1.064.097.255.134.434.134.552 0 1.23-.614 1.84-.966 2.191l-.016.016-.004.002-.013.013-.078.082-.27.289-.805.872c-.48.523-.974 1.058-1.158 1.255.253.618.702 1.807.031 3.092-.416.79-1.064 1.445-1.767 1.774.015.577-.278 1.127-.772 1.485-.23.17-2.296 1.809-2.494 1.982-.572.566-1.12.875-1.688.875s-1.116-.31-1.688-.875c-.2-.176-2.262-1.81-2.493-1.982l-.186-.152a1.76 1.76 0 0 1-.587-1.333c-.61-.286-1.18-.818-1.592-1.471l-.174-.303c-.672-1.285-.223-2.474.03-3.092a295 295 0 0 1-1.157-1.255 302 302 0 0 0-1.075-1.161L3 10.294l-.015-.014-.002-.001-.016-.016C2.615 9.913 2 9.301 2 8.072c0-.118.038-.297.135-.552a8 8 0 0 1 .526-1.064c.527-.913 1.457-2.276 3.07-4.266l.054-.068.086.016 3.268.594c.327-.08.901-.297 1.294-.429A5.6 5.6 0 0 1 11.996 2zM12 15.787c-.569.555-1.581 1.276-3.42 1.944q.004.019.016.042c.025.047.07.094.117.128.16.117 2.386 1.876 2.615 2.082.118.106.245.229.375.33q.098.076.179.119a.3.3 0 0 0 .118.037q.036.002.119-.037.081-.043.178-.118c.13-.101.258-.225.375-.33.23-.208 2.46-1.969 2.616-2.083a.4.4 0 0 0 .116-.128q.012-.023.016-.042c-1.839-.668-2.851-1.389-3.42-1.944M11.997 3.53a4 4 0 0 0-1.076.223c-.246.082-.617.219-.935.323a7 7 0 0 1-.463.138 1.5 1.5 0 0 1-.366.056h-.003a6 6 0 0 1-.596-.076 96 96 0 0 1-2.166-.397 55 55 0 0 0-1.464 1.907 22 22 0 0 0-.978 1.44c-.132.217-.24.414-.315.578-.077.169-.11.285-.11.35 0 .367.084.583.204.755.061.09.136.171.222.259l.283.287 2.201 2.388c.118.127.295.29.4.493.112.219.143.481.012.814l-.001.003c-.277.672-.6 1.357-.217 2.1.179.338.421.636.675.849.246.206.487.319.68.331a13.4 13.4 0 0 0 2.046-.948c.307-.18.579-.364.793-.544a1.8 1.8 0 0 0 .425-.474l.003-1.306-2.105-.55-.121-.032.011-.125.33-3.659a.66.66 0 0 0-.518-.7l-2.484-.468-.223-.042.13-.187.743-1.071.056-.08 3.822.746.13.025-.01.133-.387 4.305.125.036.525.155.724.213.724-.213.525-.155.125-.036-.386-4.305-.013-.133.132-.025 3.823-.745.055.079.743 1.07.13.188-.223.042-2.484.467a.66.66 0 0 0-.517.701l.329 3.66.011.124-.12.031-2.107.55.003 1.307c.079.143.222.304.426.474.214.18.486.364.793.544.607.355 1.346.69 2.045.948.192-.012.434-.124.681-.331.254-.213.496-.511.675-.85.384-.742.06-1.428-.217-2.1v-.002c-.132-.333-.1-.595.012-.814.104-.203.28-.366.398-.493l1.972-2.138h-.005l.23-.249c.1-.106.2-.203.284-.288.086-.088.16-.17.222-.259.119-.172.202-.388.204-.754l-.007-.059a1.4 1.4 0 0 0-.103-.292 6 6 0 0 0-.315-.578 22 22 0 0 0-.978-1.439A54 54 0 0 0 17.6 3.798c-.197.038-.692.134-1.21.23-.332.06-.674.121-.954.167-.27.043-.499.075-.597.076h-.002a1.5 1.5 0 0 1-.366-.056c-.14-.035-.3-.084-.463-.138-.317-.104-.688-.24-.934-.323a4 4 0 0 0-1.077-.223" clip-rule="evenodd"/></svg>