<svg xmlns="http://www.w3.org/2000/svg" fill="none" viewBox="0 0 24 24"><path fill="url(#a)" d="M21.02 17.351a13.963 13.963 0 0 1-3.163 3.182 32.89 32.89 0 0 1-5.699 3.42.333.333 0 0 1-.342 0 34.021 34.021 0 0 1-5.384-3.201A15.488 15.488 0 0 1 3.26 17.75a5.361 5.361 0 0 1-1.24-2.91V5.827c0-.635 0-1.27-.02-1.905 0-.248.116-.327.342-.409C4.322 2.793 6.3 2.07 8.27 1.34 9.451.908 10.625.466 11.81.03a.636.636 0 0 1 .39 0c2.293.835 4.582 1.683 6.875 2.524.883.334 1.772.654 2.667.96a.33.33 0 0 1 .196.129.317.317 0 0 1 .06.22V14.32a5.078 5.078 0 0 1-.979 3.031Z"/><path fill="#FFD3C4" d="M19.653 16.09a11.848 11.848 0 0 1-2.683 2.699 27.913 27.913 0 0 1-4.836 2.902.282.282 0 0 1-.29 0 28.873 28.873 0 0 1-4.568-2.716 13.138 13.138 0 0 1-2.693-2.547 4.549 4.549 0 0 1-1.05-2.469V6.311c0-.539 0-1.078-.018-1.616 0-.211.098-.278.29-.348 1.68-.61 3.357-1.225 5.03-1.844 1.002-.366 1.998-.741 3.003-1.11a.54.54 0 0 1 .331 0c1.946.708 3.889 1.427 5.835 2.14.749.284 1.503.555 2.262.814a.291.291 0 0 1 .167.11c.04.055.058.121.05.188v8.873a4.309 4.309 0 0 1-.83 2.572Z"/><path fill="url(#b)" fill-rule="evenodd" d="m17.928 7.79.351-.86s-.447-.48-.99-1.022c-.543-.543-1.694-.223-1.694-.223L14.285 4.2h-4.6l-1.31 1.485s-1.15-.32-1.694.223c-.543.542-.99 1.021-.99 1.021l.351.862-.447 1.277s1.315 4.977 1.47 5.585c.303 1.196.51 1.66 1.373 2.266.863.606 2.429 1.66 2.684 1.819.256.16.575.431.863.431.288 0 .607-.272.863-.431.255-.16 1.82-1.213 2.683-1.82.863-.606 1.07-1.069 1.374-2.265.154-.608 1.47-5.585 1.47-5.585l-.447-1.277Z" clip-rule="evenodd"/><path fill="#fff" d="M13.614 6.897c.192 0 1.614-.271 1.614-.271s1.685 2.035 1.685 2.47c0 .359-.145.5-.316.665-.035.035-.072.07-.11.11l-1.263 1.34a1.943 1.943 0 0 1-.04.042c-.127.127-.313.313-.182.623.01.02.018.042.027.063.144.336.321.75.096 1.17-.24.447-.652.745-.915.695-.264-.049-.883-.372-1.11-.52-.228-.147-.95-.742-.95-.97 0-.189.519-.504.771-.658.05-.03.09-.054.113-.07l.123-.077c.23-.143.645-.401.656-.515.013-.141.008-.183-.178-.53a6.92 6.92 0 0 0-.133-.236c-.177-.304-.374-.644-.33-.887.049-.275.48-.433.845-.566l.133-.05.38-.142c.365-.136.77-.288.837-.319.093-.042.069-.083-.211-.11a12.648 12.648 0 0 1-.136-.013c-.347-.037-.987-.105-1.298-.018l-.201.055c-.35.094-.778.21-.819.277l-.02.03c-.04.057-.066.093-.022.33l.072.382c.097.503.248 1.289.266 1.465l.009.071c.024.197.04.328-.189.38l-.06.014c-.258.06-.636.146-.773.146s-.516-.087-.774-.146l-.06-.014c-.228-.052-.212-.183-.188-.38l.008-.07c.02-.178.17-.965.267-1.468l.072-.38c.043-.237.018-.273-.021-.33a.581.581 0 0 1-.021-.03c-.042-.067-.47-.183-.819-.277l-.202-.055c-.31-.087-.95-.02-1.297.018l-.136.014c-.28.026-.304.067-.211.11.067.03.471.182.836.318l.38.143.134.049c.365.133.796.291.845.566.044.243-.153.583-.33.887a6.239 6.239 0 0 0-.133.235c-.186.348-.19.39-.178.53.01.115.426.373.656.515.054.034.097.06.123.078.023.016.063.04.113.07.252.153.77.47.77.659 0 .227-.72.822-.948.97-.228.147-.847.47-1.11.52-.264.049-.676-.25-.916-.696-.225-.42-.048-.834.095-1.17l.027-.063c.131-.31-.054-.496-.18-.623a2.406 2.406 0 0 1-.042-.042l-1.263-1.34a3.466 3.466 0 0 0-.11-.11c-.17-.165-.315-.306-.315-.666 0-.434 1.685-2.469 1.685-2.469s1.422.271 1.613.271c.153 0 .449-.101.757-.207l.234-.08c.383-.128.639-.129.639-.129s.256.001.639.13l.234.079c.308.106.603.207.756.207Z"/><path fill="#fff" d="M13.37 14.094c.3.155.514.264.595.315.104.065.04.188-.054.255a76.924 76.924 0 0 0-1.496 1.164l-.05.045c-.12.107-.272.244-.38.244-.108 0-.26-.137-.38-.245a5.438 5.438 0 0 0-.05-.044c-.124-.11-1.4-1.097-1.496-1.164-.095-.067-.158-.19-.054-.255.08-.05.294-.16.595-.316l.286-.147c.45-.233 1.011-.43 1.099-.43.088 0 .649.197 1.099.43l.286.148Z"/><path fill="url(#c)" fill-rule="evenodd" d="M15.595 5.685 14.285 4.2h-4.6l-1.31 1.485s-1.15-.32-1.694.223c0 0 1.534-.138 2.06.718 0 0 1.423.271 1.614.271.192 0 .607-.16.99-.287.384-.128.64-.129.64-.129s.256.001.639.13c.383.127.799.286.99.286.192 0 1.614-.271 1.614-.271.527-.856 2.06-.718 2.06-.718-.542-.543-1.693-.223-1.693-.223Z" clip-rule="evenodd"/><defs><linearGradient id="a" x1="2" x2="22" y1="24.169" y2="24.169" gradientUnits="userSpaceOnUse"><stop stop-color="#F50"/><stop offset=".333" stop-color="#F50"/><stop offset=".667" stop-color="#FF2000"/><stop offset="1" stop-color="#FF2000"/></linearGradient><linearGradient id="b" x1="5.595" x2="18.375" y1="19.275" y2="19.275" gradientUnits="userSpaceOnUse"><stop stop-color="#F50"/><stop offset=".333" stop-color="#F50"/><stop offset=".667" stop-color="#FF2000"/><stop offset="1" stop-color="#FF2000"/></linearGradient><linearGradient id="c" x1="6.681" x2="17.289" y1="6.916" y2="6.916" gradientUnits="userSpaceOnUse"><stop stop-color="#F50"/><stop offset=".333" stop-color="#F50"/><stop offset=".667" stop-color="#FF2000"/><stop offset="1" stop-color="#FF2000"/></linearGradient></defs></svg>