<svg xmlns="http://www.w3.org/2000/svg" fill="none" viewBox="0 0 24 24"><path fill="#62757E" d="M18.024 8.217a4 4 0 0 1 .249.417c.04.084.074.395.07.493l-.026.085c-.042.151-.047.16-.047.16-.11.136-.296.353-.414.48l-1.84 1.973a.54.54 0 0 0-.093.527l.3.718a.94.94 0 0 1 .015.594l-.061.168c-.098.27-.267.51-.489.693l-.289.238a.54.54 0 0 1-.53.064l-1.026-.495a2.6 2.6 0 0 1-.52-.35l-.82-.75a.335.335 0 0 1-.017-.478l1.853-1.261a.366.366 0 0 0 .113-.46l-.718-1.367c-.081-.154-.098-.398-.035-.542a.82.82 0 0 1 .408-.374l2.254-.86c.162-.062.154-.126-.019-.143L15.02 7.62a2 2 0 0 0-.619.054L13.248 8a.356.356 0 0 0-.246.4l.452 2.497c.03.172.041.362.023.422-.02.06-.174.138-.343.175l-.703.15a1.3 1.3 0 0 1-.24.025 1.4 1.4 0 0 1-.243-.025l-.701-.15c-.17-.037-.324-.116-.342-.175-.02-.06-.01-.25.021-.422L11.38 8.4a.36.36 0 0 0-.248-.4L9.98 7.675a2 2 0 0 0-.619-.054l-1.323.126c-.173.017-.181.08-.019.143l2.254.86c.162.062.347.23.409.374a.72.72 0 0 1-.035.542l-.72 1.367a.365.365 0 0 0 .113.46l1.855 1.261a.335.335 0 0 1-.017.478l-.822.75a2.6 2.6 0 0 1-.519.35l-1.026.495a.54.54 0 0 1-.53-.064l-.288-.238a1.6 1.6 0 0 1-.49-.694l-.061-.167a.94.94 0 0 1 .014-.594l.3-.718a.54.54 0 0 0-.092-.527L6.526 9.852a9 9 0 0 1-.414-.48s-.008-.009-.05-.16l-.026-.085c-.002-.098.032-.409.072-.493s.15-.272.247-.417l.521-.78a10 10 0 0 1 .374-.512l.702-.89c.108-.138.201-.248.209-.247h.014c0-.001.14.024.311.057l1.076.209.47.09c.088.017.295-.013.46-.067l.85-.278c.165-.054.438-.131.607-.17 0 0 .069-.017.241-.016.173 0 .24.016.24.016.17.039.444.116.609.17l.849.278c.164.054.372.084.46.067.089-.016.3-.057.47-.09l1.076-.209a9 9 0 0 1 .326-.057c.006-.001.1.109.209.247l.702.89c.108.137.275.368.373.513z"/><path fill="#62757E" d="m13.667 14.94.93.49c.154.08.163.23.022.33l-.806.577a8 8 0 0 0-.497.393l-.227.198-.476.418-.214.194a.36.36 0 0 1-.209.085.36.36 0 0 1-.208-.085l-.215-.194c-.13-.115-.344-.304-.476-.418l-.226-.198a8 8 0 0 0-.497-.393l-.807-.576c-.141-.1-.132-.25.023-.33l.93-.49c.153-.081.41-.202.57-.27l.506-.213c.16-.066.31-.122.333-.122h.135c.023 0 .172.056.333.122l.505.213c.16.068.417.189.571.27"/><path fill="#62757E" fill-rule="evenodd" d="M20.525 8.475a.5.5 0 0 1 .014.308l-2.065 7.935a3.83 3.83 0 0 1-1.47 2.15l-.3.212a154 154 0 0 1-3.726 2.544l-.074.049c-.278.185-.548.288-.842.286-.3.002-.567-.1-.845-.284l-.077-.05-.444-.294a139 139 0 0 1-3.583-2.465 3.83 3.83 0 0 1-1.468-2.148L3.579 8.784a.5.5 0 0 1 .015-.308l.502-1.386-.335-.756a.77.77 0 0 1 .155-.848l1.109-1.134a2.27 2.27 0 0 1 2.365-.574l1.433-1.583a.52.52 0 0 1 .381-.17L12.055 2l2.86.023a.52.52 0 0 1 .38.171l1.434 1.583a2.27 2.27 0 0 1 2.364.572l1.108 1.134a.77.77 0 0 1 .155.852l-.334.754zm-1.033.202-.52-1.43a.52.52 0 0 1 .014-.389l.345-.777-.983-1.006c-.34-.35-.846-.47-1.3-.308l-.296.106a.52.52 0 0 1-.561-.14L14.678 3.06l-2.615-.02-2.622.02-1.512 1.672a.52.52 0 0 1-.56.14l-.298-.106a1.23 1.23 0 0 0-1.3.31L4.786 6.08l.345.777a.52.52 0 0 1 .014.388l-.52 1.431 2.026 7.78a2.8 2.8 0 0 0 1.067 1.563 100 100 0 0 0 1.086.764 138 138 0 0 0 2.906 1.971l.077.05c.124.082.208.115.274.114.06 0 .146-.032.27-.114l.075-.05.44-.29a139 139 0 0 0 3.55-2.443 2.8 2.8 0 0 0 1.07-1.565z" clip-rule="evenodd"/></svg>