<svg xmlns="http://www.w3.org/2000/svg" fill="none" viewBox="0 0 24 24"><path fill="#62757E" fill-rule="evenodd" d="M15.56 3.6H8.44c-1.166 0-1.942.001-2.539.05-.577.049-.84.133-1.007.22A2.4 2.4 0 0 0 3.87 4.894c-.087.167-.171.43-.22 1.007-.049.597-.05 1.373-.05 2.539v5.16h16.8V8.44c0-1.166-.001-1.942-.05-2.539-.049-.577-.133-.84-.22-1.007a2.4 2.4 0 0 0-1.024-1.024c-.167-.087-.43-.171-1.007-.22-.597-.049-1.373-.05-2.539-.05m4.84 11.6H3.6v.36c0 1.166.001 1.942.05 2.539.049.577.133.84.22 1.007a2.4 2.4 0 0 0 1.024 1.024c.167.087.43.171 1.007.22.597.049 1.373.05 2.539.05h7.12c1.166 0 1.942-.001 2.539-.05.577-.049.84-.133 1.007-.22a2.4 2.4 0 0 0 1.024-1.024c.087-.167.171-.43.22-1.007.049-.597.05-1.373.05-2.539zM2.45 4.156C2 5.023 2 6.162 2 8.44v7.12c0 2.278 0 3.417.45 4.284a4 4 0 0 0 1.706 1.706c.867.45 2.006.45 4.284.45h7.12c2.278 0 3.417 0 4.284-.45a4 4 0 0 0 1.706-1.706c.45-.867.45-2.006.45-4.284V8.44c0-2.278 0-3.417-.45-4.284a4 4 0 0 0-1.706-1.706C18.977 2 17.838 2 15.56 2H8.44c-2.278 0-3.417 0-4.284.45A4 4 0 0 0 2.45 4.156M9.168 6.37c0-.897.97-1.46 1.748-1.014l3.902 2.23c.785.448.785 1.58 0 2.029l-3.902 2.23a1.17 1.17 0 0 1-1.748-1.015zM5.2 17.8A.8.8 0 0 1 6 17h3.382a1.6 1.6 0 0 1 2.772 0H18a.8.8 0 0 1 0 1.6h-5.846a1.6 1.6 0 0 1-2.772 0H6a.8.8 0 0 1-.8-.8" clip-rule="evenodd"/></svg>