<svg xmlns="http://www.w3.org/2000/svg" fill="none" viewBox="0 0 24 24"><path fill="#62757E" d="M6.88 3.343a10.2 10.2 0 0 1 5.804-1.316.73.73 0 0 1 .687.776.74.74 0 0 1-.8.666 8.66 8.66 0 0 0-4.934 1.118 8.3 8.3 0 0 0-3.385 3.655 7.97 7.97 0 0 0-.622 4.877 8.1 8.1 0 0 0 2.368 4.344 8.54 8.54 0 0 0 4.504 2.25 8.7 8.7 0 0 0 5.021-.655 8.36 8.36 0 0 0 3.732-3.325 8 8 0 0 0 1.1-4.796.73.73 0 0 1 .678-.783c.41-.034.77.26.806.658a9.4 9.4 0 0 1-1.292 5.644 9.7 9.7 0 0 1-1.372 1.787l2.607 2.524c.29.282.29.739 0 1.021a.76.76 0 0 1-1.053 0l-2.654-2.568a10 10 0 0 1-1.92 1.147 10.2 10.2 0 0 1-5.907.77 10.05 10.05 0 0 1-5.3-2.646 9.55 9.55 0 0 1-2.784-5.111 9.38 9.38 0 0 1 .73-5.738 9.75 9.75 0 0 1 3.986-4.3m5.06 2.798c.434 0 .813.286.919.694l.327 1.267c.298 1.15 1.225 2.047 2.411 2.334l1.306.315a.924.924 0 0 1 .718.89.92.92 0 0 1-.716.89l-1.306.319c-1.186.288-2.111 1.187-2.407 2.338l-.325 1.266a.94.94 0 0 1-.917.695.94.94 0 0 1-.92-.693l-.326-1.266c-.298-1.15-1.225-2.049-2.411-2.335l-1.306-.316a.924.924 0 0 1-.718-.89c0-.42.295-.788.716-.89l1.306-.318c1.185-.288 2.111-1.187 2.407-2.337l.325-1.268a.94.94 0 0 1 .917-.695m5.676-2.76a.47.47 0 0 1 .459.348l.164.632a1.63 1.63 0 0 0 1.206 1.168l.653.159c.21.05.358.234.359.444 0 .21-.148.394-.359.445l-.652.16a1.63 1.63 0 0 0-1.204 1.168l-.163.634a.47.47 0 0 1-.458.348.47.47 0 0 1-.46-.347l-.163-.634a1.63 1.63 0 0 0-1.206-1.167l-.654-.158a.46.46 0 0 1-.358-.444c0-.21.148-.394.358-.445l.653-.16a1.63 1.63 0 0 0 1.204-1.17l.162-.632a.47.47 0 0 1 .459-.349"/></svg>