<svg xmlns="http://www.w3.org/2000/svg" fill="none" viewBox="0 0 24 24"><path fill="#62757E" fill-rule="evenodd" d="M2.826 3.2a2.09 2.09 0 0 0-2.09 2.09V18.4a2.4 2.4 0 0 0 2.4 2.4h11.091a.8.8 0 0 0 0-1.6H3.135a.8.8 0 0 1-.8-.8V7.323q.237.058.49.058h15.51a.8.8 0 0 1 .8.8v1.635h-5.848a2.4 2.4 0 0 0-2.4 2.4v2.27a2.4 2.4 0 0 0 2.4 2.4H14.9v.003h2.119a.8.8 0 0 0 0-1.6H15.84v-.002h-2.552a.8.8 0 0 1-.8-.8v-2.271a.8.8 0 0 1 .8-.8h5.848v2.545h.004v.289a.798.798 0 0 0 1.596 0V8.18a2.4 2.4 0 0 0-2.4-2.4h-.138V5.6a2.4 2.4 0 0 0-2.4-2.4zm0 2.58a.49.49 0 0 1 0-.98h12.971a.8.8 0 0 1 .8.8v.18zm17.94 15.027h1.666a.833.833 0 1 0 0-1.666h-1.666v-1.668a.833.833 0 1 0-1.667 0v1.668h-1.668a.833.833 0 1 0 0 1.666H19.1v1.667a.834.834 0 0 0 1.667 0z" clip-rule="evenodd"/></svg>