<svg xmlns="http://www.w3.org/2000/svg" fill="none" viewBox="0 0 24 24"><path fill="#687485" fill-rule="evenodd" d="m5.497 6.473 6.418-2.853a.234.234 0 0 1 .19 0l6.42 2.853a.234.234 0 0 1 .138.214v4.31c0 4.275-2.884 8.22-6.653 9.346-3.768-1.125-6.652-5.07-6.652-9.346v-4.31c0-.093.054-.177.139-.214Zm7.258-4.315a1.834 1.834 0 0 0-1.49 0L4.848 5.011a1.834 1.834 0 0 0-1.09 1.676v4.31c0 5.089 3.522 9.848 8.253 11.003 4.732-1.155 8.253-5.914 8.253-11.003v-4.31c0-.725-.427-1.382-1.09-1.676l-6.418-2.853Zm1.997 10.472a.76.76 0 0 0 0-1.26l-3.578-2.41a.76.76 0 0 0-1.183.63v4.82c0 .608.679.97 1.183.63l3.578-2.41Z" clip-rule="evenodd"/></svg>