<svg xmlns="http://www.w3.org/2000/svg" fill="none" viewBox="0 0 24 24"><path fill="#667489" fill-rule="evenodd" d="M10.9 20.361a8.805 8.805 0 1 0 0-17.61 8.805 8.805 0 0 0 0 17.61Zm0 1.65c5.774 0 10.455-4.68 10.455-10.455 0-5.774-4.681-10.455-10.456-10.455C5.125 1.1.444 5.78.444 11.556s4.68 10.456 10.455 10.456Z" clip-rule="evenodd"/><circle cx="21.905" cy="20.361" r="1.651" fill="#667489"/><path fill="url(#a)" fill-rule="evenodd" d="m16.03 8.612.305-.747s-.388-.415-.858-.885c-.471-.47-1.468-.193-1.468-.193L12.874 5.5H8.886L7.751 6.787s-.997-.277-1.468.193c-.47.47-.858.885-.858.885l.304.747-.387 1.107s1.14 4.313 1.274 4.84c.263 1.037.443 1.438 1.19 1.964.748.525 2.105 1.438 2.326 1.576.222.139.499.374.748.374.25 0 .526-.235.747-.374a97.095 97.095 0 0 0 2.327-1.576c.747-.526.927-.927 1.19-1.964.134-.527 1.274-4.84 1.274-4.84l-.388-1.107Z" clip-rule="evenodd"/><path fill="#fff" d="M12.292 7.838c.166 0 1.399-.235 1.399-.235s1.46 1.763 1.46 2.14c0 .311-.126.433-.274.577-.03.03-.063.061-.095.095l-1.095 1.161a1.95 1.95 0 0 1-.035.037c-.11.11-.27.271-.157.54l.023.054c.125.291.279.65.083 1.014-.208.387-.565.645-.793.603-.229-.043-.765-.323-.962-.451-.198-.128-.823-.643-.823-.84 0-.165.45-.438.668-.57l.098-.061c.022-.016.06-.04.107-.068.199-.124.559-.347.568-.446.011-.122.007-.158-.154-.46a6.097 6.097 0 0 0-.115-.204c-.153-.263-.325-.558-.287-.769.043-.238.417-.374.733-.49l.115-.043.33-.123c.316-.119.667-.25.725-.277.08-.036.06-.072-.183-.095a11.412 11.412 0 0 1-.118-.012c-.3-.032-.855-.09-1.124-.015l-.175.047c-.303.082-.674.182-.71.24-.006.01-.012.02-.018.027-.034.049-.056.08-.018.286l.063.33c.083.437.214 1.118.23 1.27l.008.062c.02.17.034.284-.164.33l-.052.012c-.224.05-.552.126-.67.126-.119 0-.447-.075-.67-.127l-.052-.011c-.199-.046-.185-.16-.164-.33l.008-.062c.016-.153.147-.835.23-1.271l.063-.329c.038-.206.015-.237-.019-.286a.483.483 0 0 1-.018-.027c-.035-.058-.406-.158-.71-.24a25.277 25.277 0 0 1-.174-.047c-.27-.075-.824-.017-1.124.015-.046.005-.086.01-.118.012-.243.023-.263.059-.183.095.058.027.408.158.724.277l.33.123.116.043c.316.116.69.252.733.49.038.211-.134.506-.287.769-.041.071-.081.14-.115.204-.161.302-.165.338-.154.46.009.099.369.322.568.446.047.029.084.052.107.068l.098.06c.218.133.668.406.668.57 0 .198-.626.713-.823.841-.197.128-.734.408-.962.45-.229.043-.585-.215-.793-.602-.196-.364-.042-.723.082-1.014l.024-.054c.113-.269-.048-.43-.157-.54a1.815 1.815 0 0 1-.036-.037l-1.095-1.161a2.836 2.836 0 0 0-.095-.095c-.147-.144-.273-.266-.273-.577 0-.377 1.46-2.14 1.46-2.14s1.233.235 1.399.235c.132 0 .388-.088.655-.18l.203-.07c.332-.11.554-.11.554-.11s.221 0 .554.11l.203.07c.266.092.522.18.655.18Z"/><path fill="#fff" d="M12.08 14.075c.261.134.446.229.516.273.09.056.035.163-.047.22-.083.059-1.19.915-1.297 1.01a5.884 5.884 0 0 0-.043.038c-.104.093-.236.212-.33.212-.093 0-.225-.119-.328-.212a4.376 4.376 0 0 0-.044-.039 67.371 67.371 0 0 0-1.296-1.008c-.082-.058-.137-.165-.047-.222.07-.043.255-.138.516-.273l.247-.127c.39-.202.877-.374.953-.374.076 0 .562.172.952.374l.249.128Z"/><path fill="url(#b)" fill-rule="evenodd" d="M14.009 6.787 12.874 5.5H8.886L7.751 6.787s-.997-.277-1.468.193c0 0 1.33-.12 1.786.623 0 0 1.233.235 1.399.235.166 0 .526-.139.858-.25.332-.11.554-.11.554-.11s.221 0 .554.11c.332.111.692.25.858.25.166 0 1.399-.235 1.399-.235.456-.743 1.786-.623 1.786-.623-.471-.47-1.468-.193-1.468-.193Z" clip-rule="evenodd"/><defs><linearGradient id="a" x1="5.342" x2="16.418" y1="18.565" y2="18.565" gradientUnits="userSpaceOnUse"><stop stop-color="#F50"/><stop offset=".333" stop-color="#F50"/><stop offset=".667" stop-color="#FF2000"/><stop offset="1" stop-color="#FF2000"/></linearGradient><linearGradient id="b" x1="6.283" x2="15.477" y1="7.854" y2="7.854" gradientUnits="userSpaceOnUse"><stop stop-color="#F50"/><stop offset=".333" stop-color="#F50"/><stop offset=".667" stop-color="#FF2000"/><stop offset="1" stop-color="#FF2000"/></linearGradient></defs></svg>