<svg xmlns="http://www.w3.org/2000/svg" fill="none" viewBox="0 0 24 24"><path fill="#62757E" fill-rule="evenodd" d="M22.105 12c0 5.58-4.524 10.105-10.105 10.105S1.895 17.581 1.895 12 6.419 1.895 12 1.895c5.58 0 10.105 4.524 10.105 10.105ZM24 12c0 6.627-5.373 12-12 12S0 18.627 0 12 5.373 0 12 0s12 5.373 12 12Zm-1.895 12a1.895 1.895 0 1 0 0-3.79 1.895 1.895 0 0 0 0 3.79Z" clip-rule="evenodd"/><path fill="url(#a)" fill-rule="evenodd" d="m18.736 7.765.4-1s-.509-.554-1.126-1.184c-.617-.63-1.924-.259-1.924-.259L14.597 3.6H9.369L7.88 5.322s-1.307-.37-1.924.26c-.617.629-1.125 1.184-1.125 1.184l.399 1-.508 1.48s1.495 5.774 1.67 6.479c.345 1.388.58 1.925 1.561 2.628.98.704 2.76 1.925 3.05 2.11.29.186.653.501.98.501.327 0 .69-.315.98-.5.29-.185 2.07-1.407 3.05-2.11.98-.704 1.216-1.24 1.561-2.63.175-.704 1.67-6.478 1.67-6.478l-.508-1.48Z" clip-rule="evenodd"/><path fill="#fff" d="M13.835 6.729c.217 0 1.833-.315 1.833-.315s1.915 2.36 1.915 2.865c0 .417-.165.58-.359.772-.04.04-.082.082-.124.127l-1.436 1.555-.047.049c-.143.147-.354.363-.205.722l.03.074c.164.389.365.87.109 1.356-.273.518-.74.864-1.04.807-.3-.057-1.003-.432-1.262-.603-.258-.172-1.078-.861-1.078-1.125 0-.22.59-.586.876-.764a3.95 3.95 0 0 0 .128-.08c.03-.021.079-.053.14-.091.261-.166.733-.465.745-.598.015-.163.01-.211-.202-.615a8.636 8.636 0 0 0-.151-.273c-.2-.352-.425-.746-.376-1.029.056-.319.546-.501.961-.656l.151-.057.433-.166c.414-.158.874-.334.95-.37.105-.049.078-.096-.24-.127l-.155-.016c-.394-.043-1.12-.121-1.474-.02l-.229.063c-.397.11-.883.244-.93.321a.694.694 0 0 1-.024.036c-.044.065-.073.107-.024.383l.082.443c.11.583.281 1.494.303 1.699a5.3 5.3 0 0 0 .01.083c.027.228.045.38-.215.44l-.068.017c-.293.068-.723.169-.879.169-.155 0-.586-.101-.88-.17l-.067-.015c-.26-.061-.242-.213-.214-.441l.01-.083c.021-.205.192-1.118.302-1.702l.082-.44c.05-.275.02-.318-.024-.383a.69.69 0 0 1-.024-.036c-.047-.077-.533-.211-.93-.321l-.23-.064c-.353-.1-1.08-.022-1.473.021l-.155.016c-.318.031-.345.078-.24.128.076.035.536.211.95.37l.433.165.15.057c.416.155.906.337.962.656.05.283-.175.677-.376 1.029-.054.095-.107.187-.151.273-.211.404-.217.452-.202.615.012.133.484.432.745.598.061.038.11.07.14.09.026.018.071.046.128.081.287.178.876.544.876.764 0 .264-.82.953-1.078 1.125-.259.17-.962.546-1.262.603-.3.057-.767-.289-1.04-.807-.256-.487-.055-.967.109-1.356l.03-.074c.15-.36-.062-.575-.205-.722l-.047-.05-1.436-1.554a3.93 3.93 0 0 0-.124-.127c-.194-.192-.359-.355-.359-.772 0-.505 1.915-2.865 1.915-2.865s1.616.315 1.833.315c.174 0 .51-.118.86-.24.088-.032.178-.063.266-.093.436-.148.726-.15.726-.15s.29.002.726.15l.266.092c.35.123.686.24.86.24Z"/><path fill="#fff" d="M13.557 15.077c.342.18.584.306.676.365.118.076.046.218-.062.296a88.136 88.136 0 0 0-1.7 1.35l-.056.052c-.136.125-.31.284-.432.284-.123 0-.296-.16-.431-.284l-.057-.052a88.229 88.229 0 0 0-1.7-1.35c-.108-.078-.18-.22-.062-.296.092-.059.335-.186.676-.366l.325-.17c.512-.27 1.15-.5 1.25-.5.099 0 .736.23 1.248.5l.325.17Z"/><defs><linearGradient id="a" x1="4.722" x2="19.244" y1="21.087" y2="21.087" gradientUnits="userSpaceOnUse"><stop stop-color="#FF5601"/><stop offset=".5" stop-color="#FF4000"/><stop offset="1" stop-color="#FF1F01"/></linearGradient></defs></svg>