<svg xmlns="http://www.w3.org/2000/svg" fill="none" viewBox="0 0 24 24"><path fill="url(#a)" d="M0 9.366c0-3.278 0-4.918.638-6.17A5.85 5.85 0 0 1 3.196.638C4.448 0 6.088 0 9.366 0h5.268c3.279 0 4.918 0 6.17.638a5.85 5.85 0 0 1 2.558 2.558C24 4.448 24 6.088 24 9.366v5.268c0 3.279 0 4.918-.638 6.17a5.85 5.85 0 0 1-2.558 2.558c-1.252.638-2.891.638-6.17.638H9.366c-3.278 0-4.918 0-6.17-.638a5.85 5.85 0 0 1-2.558-2.558C0 19.552 0 17.913 0 14.634z"/><path fill="#fff" d="M17.892 2.907c-.91.18-2.814.485-3.162.525h-.017c-.185-.04-.601-.187-.876-.282q-.21-.075-.405-.141c-.696-.237-1.213-.277-1.398-.282h-.09c-.186 0-.702.045-1.399.282-.135.045-.27.095-.404.14-.281.096-.691.243-.876.283h-.017c-.349-.04-1.517-.254-2.455-.435l-.69-.135-.445.547C2.586 7.211 2.586 8.03 2.586 8.373c0 1.105.545 1.652.876 1.974l.017.017.135.135 2.112 2.29.04.04.033.034-.017.04c-.225.546-.69 1.68-.062 2.876.393.756 1.023 1.37 1.674 1.652l.045.017v.051s-.006.045-.006.068c-.01.49.236.964.669 1.28.213.158 2.207 1.743 2.404 1.912l.073.068c.314.288.792.728 1.427.728.634 0 1.112-.44 1.426-.728l.073-.068c.191-.169 2.191-1.754 2.404-1.912.427-.31.68-.79.663-1.274v-.113l.04-.017c.651-.282 1.28-.903 1.673-1.653.63-1.201.163-2.335-.061-2.882l-.017-.04.034-.034.027-.028.012-.017 2.106-2.29c.045-.045.084-.09.13-.13l.022-.022c.326-.327.876-.869.876-1.974 0-.35 0-1.162-3.078-4.964l-.416-.502zm-2.651 15.05c-.146.106-2.28 1.793-2.494 1.985l-.084.073c-.214.197-.472.44-.68.44s-.472-.243-.68-.434l-.084-.08a122 122 0 0 0-2.494-1.985c-.123-.09-.241-.254-.196-.406l.01-.034.035-.011c1.893-.677 2.87-1.422 3.364-1.93l.05-.05.051.05c.489.508 1.472 1.253 3.365 1.93l.034.011.01.034c.04.147-.072.316-.196.406zm5.044-9.584c0 .643-.253.897-.545 1.19-.062.056-.118.118-.18.186l-1.224 1.331c-.416.451-.792.863-.887.96l-.057.061-.01.011c-.22.226-.49.502-.287.993l.045.107c.247.587.55 1.315.157 2.06-.365.693-.994 1.223-1.472 1.234h-.017c-1.381-.507-2.92-1.325-3.269-2.013v-.023l-.005-1.382 2.117-.609-.309-3.469a.81.81 0 0 1 .64-.869l2.326-.44-.663-.958-3.516.688.382 4.253-1.421.406h-.011l-1.59-.418v-.056l.382-4.185-3.516-.688-.663.959 2.32.44c.404.084.68.456.64.868l-.314 3.48 2.123.553v1.45c-.354.682-1.893 1.5-3.27 2.008H8.17c-.483-.006-1.112-.536-1.477-1.23-.393-.744-.09-1.478.157-2.059l.045-.107c.202-.485-.067-.767-.286-.993l-.012-.01s-.039-.046-.061-.063L4.423 9.75c-.062-.068-.124-.124-.18-.186-.292-.293-.545-.547-.545-1.19 0-.767 2.713-4.123 2.831-4.264l.028-.034.05.01c.242.046 2.382.463 2.674.463.242 0 .725-.169 1.242-.35l.022-.01c.124-.046.247-.085.37-.13.585-.198 1-.22 1.074-.226h.022c.079 0 .489.023 1.079.226l.393.135c.511.18.994.35 1.241.35.292 0 2.427-.412 2.674-.463l.05-.011.029.034c.118.14 2.83 3.497 2.83 4.264z"/><g clip-path="url(#b)"><path fill="#e4e4e5" d="M10.64 18.347c0-.368 0-.551.072-.692a.66.66 0 0 1 .287-.287c.14-.071.325-.071.693-.071h7.999c.368 0 .552 0 .693.071a.66.66 0 0 1 .287.287c.071.14.071.324.071.692v1.181c0 .368 0 .551-.071.692a.66.66 0 0 1-.287.287c-.141.071-.325.071-.693.071h-8c-.367 0-.551 0-.692-.071a.66.66 0 0 1-.287-.287c-.071-.14-.071-.324-.071-.692z"/><path fill="#000" d="M11.298 19.635V18.19h.312l.578.834h.007v-.834h.367v1.445h-.309l-.581-.843h-.007v.843zm1.525 0V18.19h.368v1.445zm1.303.025c-.446 0-.715-.275-.715-.75v-.001c0-.469.27-.745.706-.745.355 0 .61.208.648.488l.002.012h-.363l-.003-.01c-.038-.117-.142-.186-.283-.186-.209 0-.332.156-.332.437 0 .287.136.451.348.451.166 0 .28-.09.293-.235v-.018h-.29v-.26h.646v.18c0 .396-.245.638-.657.638m.88-.026V18.19h.368v.568h.576v-.568h.367v1.445h-.367v-.582h-.576v.582zm1.909 0v-1.15h-.4v-.295h1.166v.295h-.4v1.15zm.962 0V18.19h.368v1.15h.599v.295zm1.348 0v-.497l-.499-.948h.391l.288.6h.007l.288-.6h.39l-.497.948v.497z"/></g><defs><linearGradient id="a" x1="12" x2="12" y1="0" y2="24" gradientUnits="userSpaceOnUse"><stop stop-color="#281c35"/><stop offset="1" stop-color="#181120"/></linearGradient><clipPath id="b"><path fill="#fff" d="M10.64 17.297h10.103v3.28H10.64z"/></clipPath></defs></svg>