<svg xmlns="http://www.w3.org/2000/svg" fill="none" viewBox="0 0 24 24"><path fill="#62757E" fill-rule="evenodd" d="M12 20.421A8.421 8.421 0 1 0 12 3.58a8.421 8.421 0 0 0 0 16.842M12 22c5.523 0 10-4.477 10-10S17.523 2 12 2 2 6.477 2 12s4.477 10 10 10m8.5 0a1.5 1.5 0 1 0 0-3 1.5 1.5 0 0 0 0 3M16.102 6.369l.226.278c2.069 2.548 2.069 3.116 2.069 3.388 0 .818-.401 1.216-.642 1.454l-.004.004-.085.086-1.159 1.254a.43.43 0 0 0-.084.424c.138.415.256 1.053-.1 1.729a2.8 2.8 0 0 1-.897 1.012.58.58 0 0 0-.234.348c-.07.28-.244.537-.496.719a96 96 0 0 0-1.56 1.236l-.045.042h-.001c-.232.214-.583.536-1.09.536s-.858-.323-1.09-.537l-.046-.04a95 95 0 0 0-1.558-1.236 1.27 1.27 0 0 1-.498-.72.58.58 0 0 0-.233-.348 2.8 2.8 0 0 1-.897-1.012c-.356-.676-.239-1.314-.1-1.73a.43.43 0 0 0-.085-.423l-1.159-1.254-.08-.082c-.244-.241-.65-.644-.65-1.462 0-.272 0-.84 2.069-3.389l.226-.278a.4.4 0 0 1 .387-.14l.352.068c.527.102 1.179.222 1.482.268q.077.01.15-.01c.122-.037.294-.097.422-.142l.012-.004.02-.007.05-.018.205-.07c.488-.166.852-.192.986-.196h.057c.171.005.528.036 1 .196l.264.092c.125.044.313.11.444.15q.074.02.15.01c.304-.047.956-.166 1.482-.268l.352-.069a.4.4 0 0 1 .388.14m-.73 5.949.042-.044 1.383-1.497q.063-.067.12-.123l.006-.005c.176-.174.291-.288.291-.614 0-.19-.588-1.114-1.584-2.369a.4.4 0 0 0-.387-.143c-.478.09-1.292.24-1.458.24-.2 0-.52-.112-.89-.243l-.03-.01-.057-.02-.168-.057a2.3 2.3 0 0 0-.635-.134 2.3 2.3 0 0 0-.646.134q-.107.035-.214.073l-.04.015c-.355.124-.693.242-.89.242-.165 0-.98-.15-1.458-.24a.4.4 0 0 0-.386.143c-.81 1.022-1.586 2.13-1.586 2.37 0 .325.116.44.291.612l.006.006q.06.058.12.123l1.384 1.497.042.044c.138.142.426.437.236.895l-.03.071v.002c-.149.354-.317.756-.11 1.148.249.473.635.716.803.682.24-.045.877-.372 1.15-.554a5 5 0 0 0 .618-.518.38.38 0 0 0 .111-.271v-.46a.19.19 0 0 0-.14-.185l-1.08-.3a.25.25 0 0 1-.18-.256l.152-2.285a.19.19 0 0 0-.148-.202l-1.335-.301a.4.4 0 0 1-.256-.594l.225-.38a.27.27 0 0 1 .293-.127l2.267.468c.12.025.203.135.194.257l-.157 2.353a.19.19 0 0 0 .14.199l.587.163a.4.4 0 0 0 .23-.005l.442-.142a.19.19 0 0 0 .133-.2l-.218-2.358a.253.253 0 0 1 .197-.27l2.207-.411a.4.4 0 0 1 .396.157l.197.269a.4.4 0 0 1-.237.627l-1.345.295a.19.19 0 0 0-.15.205l.198 2.151a.4.4 0 0 1-.276.418l-1.025.328a.19.19 0 0 0-.133.183v.392c0 .102.038.2.11.27.233.23.512.452.629.53.274.181.911.509 1.149.554l.03.003c.174 0 .54-.238.774-.685.207-.392.039-.795-.11-1.15l-.03-.071c-.19-.458.097-.753.236-.895m-4.49 3.3-.326.172a26 26 0 0 0-.555.295c-.009.005-.01.017-.002.022a87 87 0 0 1 1.654 1.313l.056.052c.046.042.14.128.213.18a.13.13 0 0 0 .157 0c.074-.053.169-.14.213-.18l.056-.051a85 85 0 0 1 1.654-1.313.014.014 0 0 0-.001-.023 28 28 0 0 0-.551-.293l-.01-.005-.322-.17a7 7 0 0 0-1.052-.442.23.23 0 0 0-.131 0c-.184.055-.65.23-1.053.443" clip-rule="evenodd"/></svg>