<svg xmlns="http://www.w3.org/2000/svg" fill="none" viewBox="0 0 24 24"><path fill="#62757E" d="M18.259 2.192c-.967.191-2.99.515-3.36.557h-.017c-.197-.042-.639-.198-.93-.3-.15-.054-.293-.101-.43-.15-.74-.251-1.29-.293-1.486-.299h-.096c-.197 0-.745.048-1.485.3-.144.048-.287.101-.43.15-.298.101-.734.257-.93.299h-.019c-.37-.042-1.61-.27-2.607-.461l-.734-.144-.471.581C2 6.763 2 7.632 2 7.998c0 1.174.579 1.755.93 2.097l.019.018.143.144 2.243 2.432.042.042.036.036-.018.042c-.239.581-.734 1.785-.066 3.056.418.803 1.086 1.455 1.778 1.755l.048.018v.054s-.006.048-.006.072c-.012.521.25 1.024.71 1.36.227.168 2.345 1.851 2.554 2.031l.078.072c.334.306.84.773 1.515.773s1.181-.467 1.515-.773l.078-.072a146 146 0 0 1 2.554-2.031c.453-.33.722-.839.704-1.354v-.12l.041-.018c.693-.3 1.36-.959 1.779-1.755.668-1.277.173-2.481-.066-3.062l-.018-.042.036-.036.03-.03.012-.018 2.237-2.432c.048-.048.09-.096.137-.138l.024-.024c.346-.348.931-.923.931-2.097 0-.372 0-1.235-3.27-5.273l-.441-.533zm-2.816 15.985c-.155.114-2.423 1.906-2.65 2.11l-.089.077c-.227.21-.501.468-.722.468s-.501-.258-.722-.462l-.09-.084c-.226-.203-2.487-1.995-2.649-2.109-.13-.096-.256-.27-.208-.431l.012-.036.035-.012c2.011-.719 3.05-1.51 3.574-2.05l.054-.053.054.054c.519.54 1.563 1.33 3.574 2.049l.036.012.012.036c.041.156-.078.335-.21.431zM20.8 7.997c0 .684-.269.953-.579 1.265-.066.06-.125.126-.19.198l-1.302 1.414c-.441.479-.841.916-.942 1.018l-.06.066-.012.012c-.233.24-.52.533-.304 1.055l.047.113c.263.624.585 1.396.168 2.187-.388.737-1.057 1.3-1.564 1.313h-.018c-1.468-.54-3.102-1.409-3.472-2.14v-.023l-.006-1.468 2.25-.647-.329-3.685a.86.86 0 0 1 .68-.923l2.47-.467-.704-1.019-3.735.731.406 4.518-1.51.431h-.011l-1.689-.443v-.06l.406-4.446-3.735-.731-.704 1.019 2.464.467c.43.09.722.485.68.923l-.334 3.696 2.255.588v1.54c-.376.724-2.01 1.593-3.472 2.132H7.93c-.513-.006-1.182-.569-1.57-1.306-.417-.79-.095-1.57.168-2.187l.047-.113c.215-.516-.071-.815-.304-1.055l-.012-.012s-.042-.048-.065-.066L3.95 9.46c-.066-.072-.131-.132-.19-.198-.311-.312-.58-.581-.58-1.264 0-.815 2.882-4.38 3.008-4.53l.03-.036.053.012c.257.048 2.53.491 2.84.491.257 0 .77-.18 1.319-.371l.024-.012c.131-.048.262-.09.393-.138.621-.21 1.063-.234 1.14-.24h.024c.083 0 .519.024 1.146.24l.417.144c.543.192 1.056.371 1.319.371.31 0 2.577-.437 2.84-.491l.054-.012.03.036c.125.15 3.007 3.715 3.007 4.53z"/></svg>