<svg xmlns="http://www.w3.org/2000/svg" fill="none" viewBox="0 0 24 24"><path fill="#7E7E81" fill-rule="evenodd" d="M22 12c0 5.523-4.477 10-10 10S2 17.523 2 12 6.477 2 12 2s10 4.477 10 10m-1.579 0A8.421 8.421 0 1 1 3.58 12a8.421 8.421 0 0 1 16.842 0" clip-rule="evenodd"/><path fill="#7E7E81" d="M20.421 22a1.579 1.579 0 1 0 0-3.158 1.579 1.579 0 0 0 0 3.158"/><path fill="url(#a)" fill-rule="evenodd" d="m17.613 8.471.333-.833s-.424-.463-.938-.987-1.603-.216-1.603-.216L14.165 5H9.806l-1.24 1.435s-1.09-.308-1.604.216-.938.987-.938.987l.333.833-.423 1.234s1.245 4.812 1.391 5.4c.288 1.156.484 1.603 1.301 2.19.817.586 2.3 1.604 2.542 1.758s.544.417.817.417.574-.263.817-.417c.242-.154 1.724-1.172 2.541-1.758s1.014-1.034 1.301-2.19c.146-.588 1.392-5.4 1.392-5.4z" clip-rule="evenodd"/><path fill="#fff" d="M13.529 7.607c.181 0 1.527-.262 1.527-.262s1.596 1.967 1.596 2.387c0 .348-.137.484-.299.644l-.103.106-1.197 1.296-.039.04c-.12.123-.295.303-.171.602l.025.061c.136.325.304.725.09 1.131-.227.432-.616.72-.866.672s-.836-.36-1.051-.503c-.216-.142-.9-.717-.9-.937 0-.183.492-.488.731-.636l.107-.068c.024-.017.066-.043.116-.075.218-.138.612-.387.621-.498.013-.136.008-.176-.168-.513a7 7 0 0 0-.126-.227c-.167-.294-.354-.622-.313-.858.047-.265.455-.418.801-.547l.126-.047.36-.138c.345-.132.729-.278.792-.308.088-.041.065-.08-.2-.106l-.129-.014c-.328-.035-.934-.1-1.228-.017l-.191.053c-.33.091-.736.203-.775.268l-.02.03c-.037.054-.061.09-.02.319l.068.369c.092.486.234 1.245.252 1.416l.008.069c.023.19.038.317-.178.367l-.057.013c-.245.058-.603.141-.732.141-.13 0-.489-.083-.733-.14l-.056-.014c-.217-.05-.202-.177-.18-.367l.009-.07c.018-.17.16-.931.252-1.417l.068-.367c.042-.23.017-.265-.02-.319l-.02-.03c-.039-.065-.444-.177-.775-.268l-.19-.053c-.295-.084-.9-.018-1.229.017l-.129.014c-.265.026-.288.065-.2.106.063.03.447.176.792.308l.36.138q.06.024.126.047c.346.13.754.282.801.547.041.236-.146.564-.313.858q-.069.12-.126.227c-.176.337-.18.377-.168.513.01.11.403.36.62.498q.08.049.117.075l.107.068c.239.148.73.453.73.636 0 .22-.683.795-.899.938s-.801.454-1.051.502-.64-.24-.867-.672c-.213-.406-.045-.806.09-1.13l.026-.062c.124-.3-.052-.48-.171-.602l-.04-.04-1.195-1.296-.104-.106c-.162-.16-.299-.296-.299-.644 0-.42 1.596-2.387 1.596-2.387s1.346.262 1.528.262c.144 0 .424-.098.716-.2l.221-.077c.363-.124.606-.125.606-.125s.242.001.605.125q.11.037.222.077c.291.102.57.2.716.2"/><path fill="#fff" d="M13.298 14.564c.284.15.486.256.562.304.1.063.039.182-.051.247s-1.3 1.02-1.416 1.125l-.048.044c-.113.104-.257.236-.36.236s-.246-.133-.36-.237l-.046-.043a74 74 0 0 0-1.417-1.125c-.09-.065-.15-.184-.051-.247.076-.048.278-.155.563-.304l.27-.143c.427-.225.959-.416 1.042-.416.082 0 .614.191 1.04.416z"/><defs><linearGradient id="a" x1="5.935" x2="18.037" y1="19.572" y2="19.572" gradientUnits="userSpaceOnUse"><stop stop-color="#FF5601"/><stop offset=".5" stop-color="#FF4000"/><stop offset="1" stop-color="#FF1F01"/></linearGradient></defs></svg>