<svg xmlns="http://www.w3.org/2000/svg" fill="none" viewBox="0 0 24 24"><g clip-path="url(#a)"><path fill="#FE5D86" d="M12 24c6.627 0 12-5.373 12-12S18.627 0 12 0 0 5.373 0 12s5.373 12 12 12"/><path fill="#fff" d="M6.5 7.214c0-.394.305-.714.682-.714h4.91c2.896 0 3.918.363 4.622 1.1.218.236.387.516.496.825.11.309.156.638.138.967 0 1.273-.645 2.136-2.385 2.515 1.68.312 2.534 1.038 2.534 2.498.016.34-.034.68-.148 1s-.288.61-.512.853c-.689.722-1.815 1.242-4.845 1.242h-4.81a.66.66 0 0 1-.48-.207.74.74 0 0 1-.202-.507zm3.728 4.1c0-.264.204-.477.455-.477h1.58c.903 0 1.578-.047 1.89-.39a.86.86 0 0 0 .209-.613.8.8 0 0 0-.194-.602c-.317-.331-.991-.39-1.904-.39H9.32v6.347h2.912c.992 0 1.726-.078 2.069-.441a.87.87 0 0 0 .224-.644.92.92 0 0 0-.224-.66c-.347-.363-1.08-.39-2.069-.39h-1.54a.43.43 0 0 1-.334-.141.48.48 0 0 1-.132-.35z"/></g><defs><clipPath id="a"><path fill="#fff" d="M0 0h24v24H0z"/></clipPath></defs></svg>