<svg xmlns="http://www.w3.org/2000/svg" fill="none" viewBox="0 0 24 24"><path fill="#62757E" fill-rule="evenodd" d="M20.333 21.167H3.667C2.747 21.167 2 20.419 2 19.5V7c0-.92.748-1.667 1.667-1.667h4.166V4.5c0-1.378 1.122-2.5 2.5-2.5h3.334c1.378 0 2.5 1.122 2.5 2.5v.833h4.166A1.67 1.67 0 0 1 22 7v12.5c0 .92-.748 1.667-1.667 1.667M3.667 19.5H20.33l.002-6.667H14.5c0 1.379-1.122 2.5-2.5 2.5-.66 0-1.286-.26-1.762-.733a2.48 2.48 0 0 1-.738-1.767H3.667zm7.5-6.667a.843.843 0 0 0 .833.833c.46 0 .833-.373.833-.833v-1.666a.846.846 0 0 0-.833-.833.834.834 0 0 0-.833.833zM14.5 4.5a.834.834 0 0 0-.833-.833h-3.334A.834.834 0 0 0 9.5 4.5v.833h5zM3.667 7v4.167H9.5c0-1.379 1.122-2.5 2.5-2.5.66 0 1.286.26 1.762.733.477.477.738 1.104.738 1.767h5.833V7z" clip-rule="evenodd"/></svg>