<svg xmlns="http://www.w3.org/2000/svg" fill="none" viewBox="0 0 24 24"><path fill="#62757E" fill-rule="evenodd" d="M21.366 2.122a.792.792 0 1 0-1.316-.881l-4.33 6.463-1.101-.738a.79.79 0 0 0-1.099.217v.002l-.007.009-.028.04-.12.167a16.7 16.7 0 0 1-2.253 2.471c-1.528 1.363-3.539 2.591-5.73 2.522a.792.792 0 0 0-.802.945l.777-.153-.777.154v.003l.002.005.002.012a3 3 0 0 0 .04.162q.04.155.131.422c.124.351.325.836.644 1.397.638 1.123 1.744 2.543 3.617 3.797s3.607 1.736 4.89 1.9c.639.08 1.164.082 1.536.062a6 6 0 0 0 .605-.064l.012-.002.005-.001h.002c.001 0 .002 0-.152-.778l.154.777a.792.792 0 0 0 .568-1.101c-.898-2-.528-4.327.15-6.259a16.7 16.7 0 0 1 1.427-3.024q.071-.116.109-.174l.027-.042.006-.01a.79.79 0 0 0-.217-1.099l-1.101-.738zm-7.25 6.895q.138-.168.25-.313l1.132.757 1.131.757a18 18 0 0 0-.73 1.428l-2.574-1.724c.308-.33.573-.639.79-.905m-1.947 2.037 3.123 2.092v.002c-.626 1.784-1.101 4.124-.48 6.375a8 8 0 0 1-.706-.057 9 9 0 0 1-.865-.157c-.308-1.044-.303-2.133-.104-3.202a.792.792 0 1 0-1.557-.29c-.172.925-.228 1.906-.086 2.895a11 11 0 0 1-1.595-.89c-1.646-1.102-2.59-2.33-3.122-3.264a8 8 0 0 1-.322-.632c2.318-.282 4.3-1.612 5.713-2.87zM1.345 16.203a.792.792 0 0 0 0 1.584h2.112a.792.792 0 1 0 0-1.584zm-.792 3.96c0-.437.354-.792.792-.792h4.224a.792.792 0 0 1 0 1.584H1.345a.79.79 0 0 1-.792-.792m.74-5.597a.792.792 0 1 0 0-1.584.792.792 0 0 0 0 1.584" clip-rule="evenodd"/></svg>