<svg xmlns="http://www.w3.org/2000/svg" fill="none" viewBox="0 0 24 24"><path fill="#62757E" fill-rule="evenodd" d="M15.2 3.54H5.8a.76.76 0 0 0-.76.76v12.4c0 .42.34.76.76.76h9.4c.42 0 .76-.34.76-.76V4.3a.76.76 0 0 0-.76-.76M5.8 2a2.3 2.3 0 0 0-2.3 2.3v12.4A2.3 2.3 0 0 0 5.8 19h9.4a2.3 2.3 0 0 0 2.3-2.3V6.54h.7c.42 0 .76.34.76.76v12.4c0 .42-.34.76-.76.76H8.8a.76.76 0 0 1-.76-.76V19H6.5v.7A2.3 2.3 0 0 0 8.8 22h9.4a2.3 2.3 0 0 0 2.3-2.3V7.3A2.3 2.3 0 0 0 18.2 5h-.7v-.7A2.3 2.3 0 0 0 15.2 2zm3.9 7.7H7.3a.8.8 0 0 0 0 1.6h2.4v2.4a.8.8 0 0 0 1.6 0v-2.4h2.4a.8.8 0 0 0 0-1.6h-2.4V7.3a.8.8 0 0 0-1.6 0z" clip-rule="evenodd"/></svg>