<svg xmlns="http://www.w3.org/2000/svg" fill="none" viewBox="0 0 24 24"><path fill="#62757E" d="M10.576 19.629a.8.8 0 0 0 .8.8h1.025v1.6h-1.025a2.4 2.4 0 0 1-2.4-2.4v-1.325h1.6zm5.925 2.4h-2.05v-1.6h2.05zm5.476-2.4a2.4 2.4 0 0 1-2.4 2.4h-1.025v-1.6h1.024a.8.8 0 0 0 .8-.8v-1.325h1.6zM12.6 2A2.4 2.4 0 0 1 15 4.4v2.229h1.501v1.6h-3.1V8.22h-.002V4.399a.8.8 0 0 0-.8-.8H4.4a.8.8 0 0 0-.8.8V15a.8.8 0 0 0 .8.8h4.578v-2.796h1.6v4.395h-6.18A2.4 2.4 0 0 1 2 15V4.4A2.4 2.4 0 0 1 4.4 2zm9.377 13.653h-1.601v-2.65h1.6zM12.4 8.23h-1.025a.8.8 0 0 0-.8.8v1.325h-1.6V9.028a2.4 2.4 0 0 1 2.4-2.4H12.4zm7.175-1.6a2.4 2.4 0 0 1 2.4 2.4v1.325h-1.6V9.028a.8.8 0 0 0-.8-.8h-1.024v-1.6z"/></svg>