<svg xmlns="http://www.w3.org/2000/svg" fill="none" viewBox="0 0 24 24"><path fill="#62757E" fill-rule="evenodd" d="M20.462 19.692a.77.77 0 0 1-.77.77h-8.461a.77.77 0 0 1-.77-.77v-2.307h2.308a2.31 2.31 0 0 0 2.308-2.308V8.154h4.615a.77.77 0 0 1 .77.77zM3.538 15.077V4.307a.77.77 0 0 1 .77-.769h8.461a.77.77 0 0 1 .77.77v10.769a.77.77 0 0 1-.77.77H4.308a.77.77 0 0 1-.77-.77m16.154-8.462h-4.615V4.308A2.31 2.31 0 0 0 12.769 2H4.308A2.31 2.31 0 0 0 2 4.308v10.769a2.31 2.31 0 0 0 2.308 2.308h4.615v2.307A2.31 2.31 0 0 0 11.231 22h8.461A2.31 2.31 0 0 0 22 19.692V8.923a2.31 2.31 0 0 0-2.308-2.308" clip-rule="evenodd"/></svg>