<svg xmlns="http://www.w3.org/2000/svg" fill="none" viewBox="0 0 24 24"><path fill="currentColor" fill-rule="evenodd" d="M18.57 21.911a.73.73 0 0 1-.814-.078L12 17.2l-5.756 4.633a.734.734 0 0 1-.814.078.842.842 0 0 1-.43-.746V2.801C5 2.34 5.348 2 5.778 2h12.444c.43 0 .778.34.778.8v18.365a.842.842 0 0 1-.43.746ZM17.445 3.636H6.555v15.86l4.978-4.006a.738.738 0 0 1 .934 0l4.978 4.006V3.636Zm-6.188 9.181h-.035a.753.753 0 0 1-.55-.244L8.34 10.07a.878.878 0 0 1 0-1.18.741.741 0 0 1 1.1 0l1.731 1.857 3.344-4.306a.742.742 0 0 1 1.095-.107c.33.296.375.822.1 1.176l-3.89 5.008a.76.76 0 0 1-.562.3Z" clip-rule="evenodd"/></svg>