<svg xmlns="http://www.w3.org/2000/svg" fill="none" viewBox="0 0 24 24"><path fill="#62757E" fill-rule="evenodd" d="M18 3.6H6a.4.4 0 0 0-.4.4v16c0 .22.18.4.4.4h12a.4.4 0 0 0 .4-.4V4a.4.4 0 0 0-.4-.4M6 2a2 2 0 0 0-2 2v16a2 2 0 0 0 2 2h12a2 2 0 0 0 2-2V4a2 2 0 0 0-2-2zm1 15.698a.7.7 0 0 1 .7-.7h8.6a.7.7 0 0 1 .7.7v.6a.7.7 0 0 1-.7.7H7.7a.7.7 0 0 1-.7-.7zM11.324 9.8a.676.676 0 1 1 1.352 0v3.302l.82-.82a.676.676 0 0 1 .956.957l-1.974 1.974a.676.676 0 0 1-.956 0L9.548 13.24a.676.676 0 0 1 .957-.956l.819.819z" clip-rule="evenodd"/></svg>