<svg xmlns="http://www.w3.org/2000/svg" fill="none" viewBox="0 0 24 24"><path fill="#62757E" fill-rule="evenodd" d="M2 5.818C2 4.814 2.814 4 3.818 4h16.364C21.186 4 22 4.814 22 5.818v10.91a1.82 1.82 0 0 1-1.818 1.817h-4.546v.91a.91.91 0 0 1-.909.909H9.273a.91.91 0 0 1-.91-.91v-.909H3.819A1.82 1.82 0 0 1 2 16.728zm18.182 0H3.818v10.91h16.364zM6.545 7.636a.91.91 0 0 0-.909.91v.909a.91.91 0 0 0 .91.909h3.636a.91.91 0 0 0 .909-.91v-.909a.91.91 0 0 0-.91-.909zm6.364.91a.91.91 0 0 1 .91-.91h3.635a.91.91 0 0 1 .91.91v.909a.91.91 0 0 1-.91.909h-3.636a.91.91 0 0 1-.909-.91zm-6.364 3.636a.91.91 0 0 0-.909.909V14c0 .502.407.91.91.91h3.636a.91.91 0 0 0 .909-.91v-.91a.91.91 0 0 0-.91-.908zm6.364.909a.91.91 0 0 1 .91-.91h3.635a.91.91 0 0 1 .91.91V14a.91.91 0 0 1-.91.91h-3.636a.91.91 0 0 1-.909-.91z" clip-rule="evenodd"/></svg>