<svg xmlns="http://www.w3.org/2000/svg" fill="none" viewBox="0 0 24 24"><path fill="#62757E" fill-rule="evenodd" d="M3.538 5.839v12.323a2.3 2.3 0 0 0 2.3 2.3h12.324a2.3 2.3 0 0 0 2.3-2.3V5.839a2.3 2.3 0 0 0-2.3-2.3H5.839a2.3 2.3 0 0 0-2.3 2.3M2 5.839A3.837 3.837 0 0 1 5.839 2h12.323A3.837 3.837 0 0 1 22 5.839v12.323A3.837 3.837 0 0 1 18.162 22H5.839A3.837 3.837 0 0 1 2 18.162zM8.8 11.2h2.4V8.8a.8.8 0 0 1 1.6 0v2.4h2.4a.8.8 0 0 1 0 1.6h-2.4v2.4a.8.8 0 0 1-1.6 0v-2.4H8.8a.8.8 0 0 1 0-1.6" clip-rule="evenodd"/></svg>