<svg xmlns="http://www.w3.org/2000/svg" fill="none" viewBox="0 0 24 24"><path fill="#62757E" fill-rule="evenodd" d="M4.797 3.854a1.8 1.8 0 0 1 1.8-1.8h10.805a1.8 1.8 0 0 1 1.8 1.8v16.295c0 1.479-1.685 2.326-2.872 1.445l-4.21-3.125a.2.2 0 0 0-.24 0l-4.21 3.125c-1.188.881-2.873.034-2.873-1.445V3.854Zm1.8-.2a.2.2 0 0 0-.2.2v16.295a.2.2 0 0 0 .32.16l4.21-3.125a1.8 1.8 0 0 1 2.146 0l4.21 3.125a.2.2 0 0 0 .32-.16V3.854a.2.2 0 0 0-.2-.2H6.596Zm4.66 9.163h-.035a.753.753 0 0 1-.55-.244L8.34 10.07a.878.878 0 0 1 0-1.18.741.741 0 0 1 1.1 0l1.731 1.857 3.344-4.306a.742.742 0 0 1 1.095-.107c.33.296.375.822.1 1.176l-3.89 5.008a.76.76 0 0 1-.562.3Z" clip-rule="evenodd"/></svg>