<svg xmlns="http://www.w3.org/2000/svg" fill="none" viewBox="0 0 24 24"><path fill="#62757E" fill-rule="evenodd" d="M4.981 22.183A3.32 3.32 0 0 1 2 18.879v-2.505a3.32 3.32 0 0 1 3.321-3.32h2.505a3.32 3.32 0 0 1 3.32 3.32v2.505a3.32 3.32 0 0 1-3.32 3.321H5.32q-.172 0-.34-.017m-1.348-3.304c0 .932.756 1.688 1.688 1.688h2.505c.932 0 1.688-.756 1.688-1.688v-2.505c0-.932-.756-1.688-1.688-1.688H5.32c-.932 0-1.688.756-1.688 1.688zM16.153 22.2a3.32 3.32 0 0 1-3.3-3.321v-2.505a3.32 3.32 0 0 1 3.321-3.32h2.505A3.32 3.32 0 0 1 22 16.373v2.505a3.32 3.32 0 0 1-3.321 3.321zm-1.667-3.321c0 .932.756 1.688 1.688 1.688h2.505c.933 0 1.688-.756 1.688-1.688v-2.505c0-.932-.756-1.688-1.688-1.688h-2.515a1.69 1.69 0 0 0-1.678 1.688zm-9.165-7.531A3.32 3.32 0 0 1 2 8.026V5.52A3.32 3.32 0 0 1 5.321 2.2h2.505a3.32 3.32 0 0 1 3.32 3.321v2.505a3.32 3.32 0 0 1-3.32 3.32zM3.633 8.026c0 .932.756 1.688 1.688 1.688h2.505c.932 0 1.688-.756 1.688-1.688V5.52c0-.932-.756-1.688-1.688-1.688H5.32c-.932 0-1.688.756-1.688 1.688zm15.046 3.321A3.32 3.32 0 0 0 22 8.026V5.52a3.32 3.32 0 0 0-3.321-3.32h-2.505a3.32 3.32 0 0 0-3.32 3.321v2.505a3.32 3.32 0 0 0 3.32 3.32zm1.688-3.321c0 .932-.756 1.688-1.688 1.688h-2.505a1.69 1.69 0 0 1-1.688-1.688V5.52c0-.932.756-1.688 1.688-1.688h2.505c.933 0 1.688.756 1.688 1.688z" clip-rule="evenodd"/></svg>