<svg xmlns="http://www.w3.org/2000/svg" fill="none" viewBox="0 0 24 24"><path fill="#62757E" fill-rule="evenodd" d="M4.797 3.854a1.8 1.8 0 0 1 1.8-1.8h10.805a1.8 1.8 0 0 1 1.8 1.8v16.295c0 1.479-1.685 2.326-2.872 1.445l-4.21-3.125a.2.2 0 0 0-.24 0l-4.21 3.125c-1.188.881-2.873.034-2.873-1.445V3.854Zm1.8-.2a.2.2 0 0 0-.2.2v16.295a.2.2 0 0 0 .32.16l4.21-3.125a1.8 1.8 0 0 1 2.146 0l4.21 3.125a.2.2 0 0 0 .32-.16V3.854a.2.2 0 0 0-.2-.2H6.596Zm4.625 8.329v-1.67H9.667c-.43 0-.778-.373-.778-.834 0-.461.348-.835.778-.835h1.555v-1.67c0-.46.349-.834.778-.834.43 0 .778.373.778.834v1.67h1.555c.43 0 .778.374.778.835 0 .462-.348.835-.778.835h-1.555v1.669c0 .46-.349.835-.778.835-.43 0-.778-.374-.778-.835Z" clip-rule="evenodd"/></svg>