<svg xmlns="http://www.w3.org/2000/svg" fill="none" viewBox="0 0 24 24"><path fill="#666D89" fill-rule="evenodd" d="M16 20.4H8a.4.4 0 0 1-.4-.4V4c0-.22.18-.4.4-.4h8c.22 0 .4.18.4.4v16a.4.4 0 0 1-.4.4ZM8 22a2 2 0 0 1-2-2V4a2 2 0 0 1 2-2h8a2 2 0 0 1 2 2v16a2 2 0 0 1-2 2H8ZM9 6.302a.7.7 0 0 0 .7.7h4.6a.7.7 0 0 0 .7-.7v-.6a.7.7 0 0 0-.7-.7H9.7a.7.7 0 0 0-.7.7v.6Zm2.324 7.897a.676.676 0 0 0 1.352 0v-3.302l.82.82a.676.676 0 0 0 .956-.957l-1.974-1.974a.676.676 0 0 0-.956 0L9.548 10.76a.676.676 0 0 0 .957.956l.819-.819V14.2Z" clip-rule="evenodd"/></svg>