<svg xmlns="http://www.w3.org/2000/svg" fill="none" viewBox="0 0 24 24"><path fill="#62757E" fill-rule="evenodd" d="M15.2 3.54H5.8a.76.76 0 0 0-.76.76v12.4c0 .42.34.76.76.76h9.4c.42 0 .76-.34.76-.76V4.3a.76.76 0 0 0-.76-.76M5.8 2a2.3 2.3 0 0 0-2.3 2.3v12.4A2.3 2.3 0 0 0 5.8 19h9.4a2.3 2.3 0 0 0 2.3-2.3V6.54h.7c.42 0 .76.34.76.76v12.4c0 .42-.34.76-.76.76H8.8a.76.76 0 0 1-.76-.76V19H6.5v.7A2.3 2.3 0 0 0 8.8 22h9.4a2.3 2.3 0 0 0 2.3-2.3V7.3A2.3 2.3 0 0 0 18.2 5h-.7v-.7A2.3 2.3 0 0 0 15.2 2zm4.7 7.369L8.803 7.672a.8.8 0 0 0-1.131 1.131L9.369 10.5l-1.697 1.697a.8.8 0 0 0 1.13 1.132L10.5 11.63l1.697 1.697a.8.8 0 0 0 1.131-1.13L11.631 10.5l1.697-1.697a.8.8 0 0 0-1.13-1.131z" clip-rule="evenodd"/></svg>