<svg width="24" height="24" viewBox="0 0 24 24" fill="none" xmlns="http://www.w3.org/2000/svg">
<path d="M10.5762 19.6289C10.5763 20.0705 10.9344 20.4285 11.376 20.4287H12.4014V22.0283H11.376C10.0507 22.0281 8.97667 20.9542 8.97656 19.6289V18.3037H10.5762V19.6289ZM16.501 22.0283H14.4512V20.4287H16.501V22.0283ZM21.9766 19.6289C21.9765 20.9543 20.9016 22.0283 19.5762 22.0283H18.5518V20.4287H19.5762C20.0179 20.4287 20.3759 20.0706 20.376 19.6289V18.3037H21.9766V19.6289ZM12.5996 2C13.9249 2 14.9997 3.07419 15 4.39941V6.62891H16.501V8.22852H13.4004V8.2207H13.3994V4.39941C13.3991 3.95785 13.0412 3.59961 12.5996 3.59961H4.39941C3.95807 3.59995 3.59992 3.95806 3.59961 4.39941V15C3.59971 15.4415 3.95794 15.7995 4.39941 15.7998H8.97656V13.0039H10.5762V17.3994H4.39941C3.07429 17.3991 2.00011 16.3252 2 15V4.39941C2.00031 3.07441 3.07441 2.00034 4.39941 2H12.5996ZM21.9766 15.6533H20.376V13.0039H21.9766V15.6533ZM12.4014 8.22852H11.376C10.9346 8.22873 10.5766 8.58699 10.5762 9.02832V10.3535H8.97656V9.02832C8.97699 7.70334 10.0509 6.62913 11.376 6.62891H12.4014V8.22852ZM19.5762 6.62891C20.9014 6.62891 21.9761 7.7032 21.9766 9.02832V10.3535H20.376V9.02832C20.3756 8.58686 20.0177 8.22852 19.5762 8.22852H18.5518V6.62891H19.5762Z" fill="#464649"/>
</svg>
