<svg xmlns="http://www.w3.org/2000/svg" fill="none" viewBox="0 0 24 24"><path fill="#62757E" fill-rule="evenodd" d="M3.538 5.838v12.323c0 1.272 1.03 2.3 2.3 2.3h12.323c1.272 0 2.3-1.029 2.3-2.3V5.838a2.3 2.3 0 0 0-2.3-2.3H5.84c-1.272 0-2.3 1.03-2.3 2.3ZM2 5.838A3.837 3.837 0 0 1 5.838 2h12.323A3.837 3.837 0 0 1 22 5.838v12.323A3.837 3.837 0 0 1 18.162 22H5.838A3.837 3.837 0 0 1 2 18.162V5.838ZM8.8 11.2h2.4V8.8a.8.8 0 0 1 1.6 0v2.4h2.4a.8.8 0 0 1 0 1.6h-2.4v2.4a.8.8 0 0 1-1.6 0v-2.4H8.8a.8.8 0 0 1 0-1.6Z" clip-rule="evenodd"/></svg>