<svg xmlns="http://www.w3.org/2000/svg" fill="none" viewBox="0 0 24 24"><path fill="#62757E" fill-rule="evenodd" d="M8.005 7.132a1.8 1.8 0 0 1 1.8-1.8h9.366a1.8 1.8 0 0 1 1.8 1.8v13.05c0 1.686-2.11 2.447-3.186 1.15l-3.143-3.789a.2.2 0 0 0-.308 0l-3.144 3.789c-1.076 1.297-3.185.536-3.185-1.15V7.132Zm1.8-.2a.2.2 0 0 0-.2.2v13.05c0 .06.016.096.034.119.02.027.053.054.098.07a.212.212 0 0 0 .12.008.187.187 0 0 0 .102-.069l3.143-3.788a1.8 1.8 0 0 1 2.77 0l3.145 3.788a.187.187 0 0 0 .102.07.212.212 0 0 0 .12-.01.212.212 0 0 0 .098-.07.187.187 0 0 0 .034-.118V7.132a.2.2 0 0 0-.2-.2H9.805ZM3.037 3.847a1.8 1.8 0 0 1 1.8-1.8h10.366a.8.8 0 0 1 0 1.6H4.837a.2.2 0 0 0-.2.2v13.406a.2.2 0 0 0 .341.142l.399-.398a.8.8 0 0 1 1.131 1.13l-.398.4c-1.134 1.133-3.073.33-3.073-1.274V3.847Z" clip-rule="evenodd"/></svg>