<svg xmlns="http://www.w3.org/2000/svg" fill="none" viewBox="0 0 24 24"><path fill="currentColor" fill-rule="evenodd" d="M17.7 3.54H6.3a.76.76 0 0 0-.76.76v15.4c0 .42.34.76.76.76h11.4c.42 0 .76-.34.76-.76V4.3a.76.76 0 0 0-.76-.76ZM6.3 2A2.3 2.3 0 0 0 4 4.3v15.4A2.3 2.3 0 0 0 6.3 22h11.4a2.3 2.3 0 0 0 2.3-2.3V4.3A2.3 2.3 0 0 0 17.7 2H6.3Z" clip-rule="evenodd"/><path fill="currentColor" fill-rule="evenodd" d="M17.7 3.54H6.3a.76.76 0 0 0-.76.76v1.16h12.92V4.3a.76.76 0 0 0-.76-.76ZM6.3 2A2.3 2.3 0 0 0 4 4.3V7h16V4.3A2.3 2.3 0 0 0 17.7 2H6.3Zm2.5 10.924h2.4v-2.4a.8.8 0 0 1 1.6 0v2.4h2.4a.8.8 0 0 1 0 1.6h-2.4v2.4a.8.8 0 0 1-1.6 0v-2.4H8.8a.8.8 0 0 1 0-1.6Z" clip-rule="evenodd"/></svg>