<svg xmlns="http://www.w3.org/2000/svg" fill="none" viewBox="0 0 24 24"><path fill="currentColor" fill-rule="evenodd" d="M20.524 21.923a.801.801 0 0 1-.875-.125l-5.195-4.544-5.195 4.545a.808.808 0 0 1-.875.124.837.837 0 0 1-.476-.759V6.131c0-.461.368-.781.82-.781h11.454c.451 0 .818.32.818.781v15.033a.837.837 0 0 1-.476.759Zm-1.16-14.957h-9.82V19.35l4.378-3.83a.806.806 0 0 1 1.065 0l4.377 3.83V6.966Zm-4.092-3.34H4.636v12.465l.684-.557a.808.808 0 0 1 1.15.134.847.847 0 0 1-.131 1.174l-2.011 1.635a.81.81 0 0 1-.865.098.835.835 0 0 1-.463-.75V2.79c0-.461.367-.79.818-.79h11.455c.451 0 .817.33.817.79a.827.827 0 0 1-.818.836Z" clip-rule="evenodd"/></svg>