<svg xmlns="http://www.w3.org/2000/svg" fill="none" viewBox="0 0 24 24"><path fill="#62757E" fill-rule="evenodd" d="M3.538 5.839v12.323a2.3 2.3 0 0 0 2.3 2.3h12.324a2.3 2.3 0 0 0 2.3-2.3V5.839a2.3 2.3 0 0 0-2.3-2.3H5.839a2.3 2.3 0 0 0-2.3 2.3M2 5.839A3.837 3.837 0 0 1 5.839 2h12.323A3.837 3.837 0 0 1 22 5.839v12.323A3.837 3.837 0 0 1 18.162 22H5.839A3.837 3.837 0 0 1 2 18.162zm11.354.227a.64.64 0 0 1 .348.703l-.703 3.517H16.5a.643.643 0 0 1 .486 1.064l-5.572 6.428a.643.643 0 0 1-1.116-.547l.704-3.517H7.5a.643.643 0 0 1-.486-1.064l5.572-6.428a.64.64 0 0 1 .768-.156" clip-rule="evenodd"/></svg>