<svg xmlns="http://www.w3.org/2000/svg" fill="none" viewBox="0 0 24 24"><path fill="#62757E" fill-rule="evenodd" d="M6.3 3.54h11.4c.42 0 .76.34.76.76v15.4c0 .42-.34.76-.76.76H6.3a.76.76 0 0 1-.76-.76V4.3c0-.42.34-.76.76-.76M4 4.3A2.3 2.3 0 0 1 6.3 2h11.4A2.3 2.3 0 0 1 20 4.3v15.4a2.3 2.3 0 0 1-2.3 2.3H6.3A2.3 2.3 0 0 1 4 19.7zm8 6.225-1.697-1.697A.8.8 0 0 0 9.172 9.96l1.697 1.697-1.697 1.697a.8.8 0 0 0 1.13 1.131L12 12.788l1.697 1.697a.8.8 0 0 0 1.131-1.131l-1.697-1.697 1.697-1.697a.8.8 0 0 0-1.13-1.132z" clip-rule="evenodd"/></svg>