<svg xmlns="http://www.w3.org/2000/svg" fill="none" viewBox="0 0 24 24"><path fill="#62757E" fill-rule="evenodd" d="M18 20.4H6a.4.4 0 0 1-.4-.4V4c0-.22.18-.4.4-.4h12c.22 0 .4.18.4.4v16a.4.4 0 0 1-.4.4M6 22a2 2 0 0 1-2-2V4a2 2 0 0 1 2-2h12a2 2 0 0 1 2 2v16a2 2 0 0 1-2 2zM7 6.302a.7.7 0 0 0 .7.7h8.6a.7.7 0 0 0 .7-.7v-.6a.7.7 0 0 0-.7-.7H7.7a.7.7 0 0 0-.7.7zm4.324 7.897a.676.676 0 0 0 1.352 0v-3.302l.82.82a.676.676 0 0 0 .956-.957l-1.974-1.974a.676.676 0 0 0-.956 0L9.548 10.76a.676.676 0 0 0 .957.956l.819-.819z" clip-rule="evenodd"/></svg>