<svg xmlns="http://www.w3.org/2000/svg" fill="none" viewBox="0 0 24 24"><path fill="#62757E" fill-rule="evenodd" d="M11 19.5c0 .919-.737 1.667-1.641 1.667H3.64c-.903 0-1.64-.748-1.64-1.667v-15c0-.919.737-1.667 1.641-1.667H9.36c.904 0 1.641.748 1.641 1.667v2.179a.82.82 0 0 1-1.641 0V4.5H3.64v15h5.72v-2.203a.82.82 0 0 1 1.641 0zm2-2.203a.82.82 0 0 1 1.642 0V19.5h5.717v-15H14.64v2.179a.82.82 0 0 1-1.641 0V4.5c0-.919.737-1.667 1.642-1.667h5.717c.904 0 1.641.748 1.641 1.667v15c0 .919-.737 1.667-1.642 1.667h-5.716c-.905 0-1.642-.748-1.642-1.667zM9.73 8.578a.922.922 0 1 0-1.306 1.306L10.541 12l-2.117 2.117a.923.923 0 1 0 1.306 1.305l2.116-2.117 2.117 2.117a.92.92 0 0 0 1.305 0 .92.92 0 0 0 0-1.305L13.15 12l2.117-2.117a.92.92 0 0 0 0-1.305.92.92 0 0 0-1.305 0l-2.117 2.117z" clip-rule="evenodd"/></svg>