<svg xmlns="http://www.w3.org/2000/svg" fill="none" viewBox="0 0 24 24"><path fill="#62757E" fill-rule="evenodd" d="M13.338 20.333H17c.46 0 .833-.373.833-.833v-2.134c0-.46.373-.834.834-.834a1.667 1.667 0 0 0 0-3.333.833.833 0 0 1-.834-.833V7A.833.833 0 0 0 17 6.167h-3.333a.833.833 0 0 1-.834-.834 1.667 1.667 0 1 0-3.333 0c0 .46-.373.834-.833.834H4.5A.833.833 0 0 0 3.667 7v2.605a3.335 3.335 0 0 1 0 6.457V19.5c0 .46.373.833.833.833h2.305a3.334 3.334 0 0 1 6.533 0ZM19.5 19.5A2.5 2.5 0 0 1 17 22h-4.434a.833.833 0 0 1-.832-.888 1.667 1.667 0 1 0-3.326 0 .833.833 0 0 1-.831.888H4.5A2.5 2.5 0 0 1 2 19.5v-4.167c0-.46.373-.833.833-.833a1.667 1.667 0 0 0 0-3.333.833.833 0 0 1-.833-.834V7a2.5 2.5 0 0 1 2.5-2.5h3.438a3.335 3.335 0 0 1 6.457 0H17A2.5 2.5 0 0 1 19.5 7v4.637a3.335 3.335 0 0 1 0 6.457V19.5Z" clip-rule="evenodd"/></svg>