<svg xmlns="http://www.w3.org/2000/svg" fill="none" viewBox="0 0 24 24"><path fill="#46464A" fill-rule="evenodd" d="M13.338 20.333c.392 0 .633.5.513.874a2.396 2.396 0 0 0-.062.227c-.066.306-.312.566-.625.566h-.598a.833.833 0 0 1-.832-.888 1.667 1.667 0 1 0-3.326 0 .833.833 0 0 1-.831.888H4.5A2.5 2.5 0 0 1 2 19.5v-4.167c0-.46.373-.833.833-.833a1.667 1.667 0 0 0 0-3.333.833.833 0 0 1-.833-.834V7a2.5 2.5 0 0 1 2.5-2.5h3.438a3.335 3.335 0 0 1 6.457 0H17A2.5 2.5 0 0 1 19.5 7v4.637a3.34 3.34 0 0 1 2.312 2.122c.146.414-.29.749-.729.764-.396.013-.807-.245-1.025-.575a1.665 1.665 0 0 0-1.391-.749.833.833 0 0 1-.834-.833V7A.833.833 0 0 0 17 6.167h-3.333a.833.833 0 0 1-.834-.834 1.667 1.667 0 1 0-3.333 0c0 .46-.373.834-.833.834H4.5A.833.833 0 0 0 3.667 7v2.605a3.335 3.335 0 0 1 0 6.457V19.5c0 .46.373.833.833.833h2.305a3.334 3.334 0 0 1 6.533 0Zm3.418-3.967a.832.832 0 1 0-1.179 1.178l1.912 1.91-1.912 1.912a.833.833 0 1 0 1.179 1.178l1.91-1.91 1.912 1.91a.83.83 0 0 0 1.177 0 .832.832 0 0 0 0-1.178l-1.91-1.911 1.91-1.911a.832.832 0 0 0 0-1.178.832.832 0 0 0-1.177 0l-1.912 1.91-1.91-1.91Z" clip-rule="evenodd"/></svg>