<svg xmlns="http://www.w3.org/2000/svg" fill="none" viewBox="0 0 24 24"><path fill="#62757E" fill-rule="evenodd" d="M20.87 12.713c.247.258.62.423.974.376.485-.065.942-.5.693-.92a3.34 3.34 0 0 0-2.037-1.532V6A2.5 2.5 0 0 0 18 3.5h-2.605a3.335 3.335 0 0 0-6.457 0H5.5A2.5 2.5 0 0 0 3 6v3.333c0 .46.373.834.833.834a1.667 1.667 0 1 1 0 3.333.833.833 0 0 0-.833.833V18.5A2.5 2.5 0 0 0 5.5 21h3.077a.833.833 0 0 0 .831-.888L9.404 20a1.667 1.667 0 0 1 3.316-.243v.001c.023.158.048.327.168.432a1 1 0 0 0 .103.077c.537.34 1.005-.371.8-.973l-.552-1.626a.86.86 0 0 0-.332-.45 3.334 3.334 0 0 0-5.102 2.116H5.5a.833.833 0 0 1-.833-.834v-3.438a3.335 3.335 0 0 0 0-6.457V6c0-.46.373-.833.833-.833h4.167c.46 0 .833-.373.833-.834a1.667 1.667 0 0 1 3.333 0c0 .46.373.834.834.834H18c.46 0 .833.373.833.833v5.366c0 .46.373.833.834.833.473 0 .9.197 1.203.514m-2.532 6.579-2.303-1.93a.833.833 0 1 0-1.07 1.277l2.983 2.5a.83.83 0 0 0 1.206-.144l3.683-5a.834.834 0 0 0-1.341-.989z" clip-rule="evenodd"/></svg>