<svg xmlns="http://www.w3.org/2000/svg" fill="none" viewBox="0 0 24 24"><path fill="#62757E" fill-rule="evenodd" d="M14.338 19.333H18c.46 0 .833-.373.833-.833v-2.134c0-.46.373-.834.834-.834a1.667 1.667 0 0 0 0-3.333.833.833 0 0 1-.834-.833V6A.833.833 0 0 0 18 5.167h-3.333a.833.833 0 0 1-.834-.834 1.667 1.667 0 1 0-3.333 0c0 .46-.373.834-.833.834H5.5A.833.833 0 0 0 4.667 6v2.605a3.335 3.335 0 0 1 0 6.457V18.5c0 .46.373.833.833.833h2.305a3.334 3.334 0 0 1 6.533 0M20.5 18.5A2.5 2.5 0 0 1 18 21h-4.434a.833.833 0 0 1-.832-.888l.004-.112a1.667 1.667 0 1 0-3.33.112.833.833 0 0 1-.831.888H5.5A2.5 2.5 0 0 1 3 18.5v-4.167c0-.46.373-.833.833-.833a1.667 1.667 0 0 0 0-3.333A.833.833 0 0 1 3 9.333V6a2.5 2.5 0 0 1 2.5-2.5h3.438a3.335 3.335 0 0 1 6.457 0H18A2.5 2.5 0 0 1 20.5 6v4.637a3.335 3.335 0 0 1 0 6.457z" clip-rule="evenodd"/></svg>