<svg xmlns="http://www.w3.org/2000/svg" fill="none" viewBox="0 0 24 24"><path fill="#666D89" fill-rule="evenodd" d="M16 3.6H8a.4.4 0 0 0-.4.4v16c0 .22.18.4.4.4h8a.4.4 0 0 0 .4-.4V4a.4.4 0 0 0-.4-.4ZM8 2a2 2 0 0 0-2 2v16a2 2 0 0 0 2 2h8a2 2 0 0 0 2-2V4a2 2 0 0 0-2-2H8Zm1 15.698a.7.7 0 0 1 .7-.7h4.6a.7.7 0 0 1 .7.7v.6a.7.7 0 0 1-.7.7H9.7a.7.7 0 0 1-.7-.7v-.6ZM11.324 9.8a.676.676 0 1 1 1.352 0v3.302l.82-.82a.676.676 0 0 1 .956.957l-1.974 1.974a.676.676 0 0 1-.956 0L9.548 13.24a.676.676 0 0 1 .957-.956l.819.819V9.8Z" clip-rule="evenodd"/></svg>