<svg xmlns="http://www.w3.org/2000/svg" fill="none" viewBox="0 0 24 24"><path fill="#62757E" fill-rule="evenodd" d="M18.226 2H6.51C5.088 2 4 3.088 4 4.51v14.98C4 20.913 5.088 22 6.51 22h11.716c1.422 0 2.51-1.088 2.51-2.51V4.51c0-1.422-1.088-2.51-2.51-2.51M6.51 3.674h11.716c.502 0 .837.334.837.836v1.005c-.251-.084-.502-.168-.837-.168H6.51c-.334 0-.585.084-.836.168V4.51c0-.502.334-.836.836-.836m-.836 4.184c0-.502.334-.837.836-.837h11.716c.502 0 .837.335.837.837v.92c-.251-.083-.502-.167-.837-.167H6.51c-.334 0-.585.084-.836.167zm13.389 4.184v7.448c0 .502-.335.836-.837.836H6.51c-.502 0-.836-.334-.836-.837v-8.367c0-.503.334-.838.836-.838h11.716c.502 0 .837.335.837.837z" clip-rule="evenodd"/></svg>