<svg xmlns="http://www.w3.org/2000/svg" fill="none" viewBox="0 0 24 24"><path fill="#62757E" fill-rule="evenodd" d="M8.643 8.155a2.8 2.8 0 0 1 2.8-2.8H18.2a2.8 2.8 0 0 1 2.8 2.8v11.928c0 1.457-1.64 2.31-2.834 1.473l-3.23-2.265a.2.2 0 0 0-.23 0l-3.23 2.265c-1.193.837-2.833-.016-2.833-1.473zm2.8-1.2a1.2 1.2 0 0 0-1.2 1.2v11.928a.2.2 0 0 0 .314.163l3.23-2.265a1.8 1.8 0 0 1 2.068 0l3.23 2.265a.2.2 0 0 0 .315-.163V8.155a1.2 1.2 0 0 0-1.2-1.2zM3 4.8A2.8 2.8 0 0 1 5.8 2h8.757a.8.8 0 0 1 0 1.6H5.8a1.2 1.2 0 0 0-1.2 1.2v11.928a.2.2 0 0 0 .315.164l.59-.414a.8.8 0 1 1 .919 1.31l-.59.414C4.64 19.038 3 18.185 3 16.728z" clip-rule="evenodd"/></svg>