<svg xmlns="http://www.w3.org/2000/svg" fill="none" viewBox="0 0 24 24"><path fill="#62757E" fill-rule="evenodd" d="M4.7 4.85a2.8 2.8 0 0 1 2.8-2.8h9a2.8 2.8 0 0 1 2.8 2.8v15.233c0 1.457-1.64 2.31-2.834 1.473l-4.351-3.052a.2.2 0 0 0-.23 0l-4.351 3.052C6.34 22.393 4.7 21.54 4.7 20.083zm2.8-1.2a1.2 1.2 0 0 0-1.2 1.2v15.233a.2.2 0 0 0 .315.163l4.351-3.052a1.8 1.8 0 0 1 2.068 0l4.351 3.052a.2.2 0 0 0 .315-.163V4.85a1.2 1.2 0 0 0-1.2-1.2zm7.956 2.54a.85.85 0 0 1 .261 1.174l-3.5 5.5a.85.85 0 0 1-1.248.208l-2.5-2A.85.85 0 0 1 9.53 9.744l1.76 1.408 2.992-4.7a.85.85 0 0 1 1.173-.261" clip-rule="evenodd"/></svg>