<svg xmlns="http://www.w3.org/2000/svg" fill="none" viewBox="0 0 24 24"><path fill="currentColor" fill-rule="evenodd" d="M18.57 21.911a.73.73 0 0 1-.814-.078L12 17.2l-5.756 4.633a.734.734 0 0 1-.814.078.842.842 0 0 1-.43-.746V2.801C5 2.34 5.348 2 5.778 2h12.444c.43 0 .778.34.778.8v18.365a.842.842 0 0 1-.43.746ZM17.445 3.636H6.555v15.86l4.978-4.006a.738.738 0 0 1 .934 0l4.978 4.006V3.636Zm-6.223 8.347v-1.67H9.667c-.43 0-.778-.373-.778-.834 0-.461.348-.835.778-.835h1.555v-1.67c0-.46.349-.834.778-.834.43 0 .778.373.778.834v1.67h1.555c.43 0 .778.374.778.835 0 .462-.348.835-.778.835h-1.555v1.669c0 .46-.349.835-.778.835-.43 0-.778-.374-.778-.835Z" clip-rule="evenodd"/></svg>