<svg xmlns="http://www.w3.org/2000/svg" fill="none" viewBox="0 0 24 24"><g clip-path="url(#a)"><path fill="#170636" d="M12 24c6.627 0 12-5.373 12-12S18.627 0 12 0 0 5.373 0 12s5.373 12 12 12"/><path fill="#14B23D" d="m16.667 8.34-2.334 2.334 2.333 2.334L19 10.674z"/><path fill="#FFC100" d="M7.333 8.327 5 10.66l2.333 2.334 2.334-2.334z"/><path fill="#14B23D" d="M12.014 13.007 9.68 15.34l2.334 2.334 2.333-2.334z"/><path fill="url(#b)" d="m7.334 8.327 4.682 4.682h4.652l-4.682-4.682z"/></g><defs><linearGradient id="b" x1="8.5" x2="10.573" y1="7.166" y2="15.409" gradientUnits="userSpaceOnUse"><stop stop-color="#FFDC00"/><stop offset="1" stop-color="#07E58A"/></linearGradient><clipPath id="a"><path fill="#fff" d="M0 0h24v24H0z"/></clipPath></defs></svg>