<svg xmlns="http://www.w3.org/2000/svg" fill="none" viewBox="0 0 24 24"><g clip-path="url(#a)"><path fill="#EAB304" d="M12 24c6.627 0 12-5.373 12-12S18.627 0 12 0 0 5.373 0 12s5.373 12 12 12Z"/><path fill="#000" d="m15.778 10.497.041-.083c0-.042 0-.083.084-.054a.334.334 0 0 0 0-.113.238.238 0 0 0 0-.166 1.015 1.015 0 0 1-.042-.647.18.18 0 0 0 0-.083l.042-.042c.016.015.03.033.041.054a.177.177 0 0 1 0 .083v.041c0 .042.071-.041.101-.071a.593.593 0 0 1 .119-.071.808.808 0 0 0-.042-.321.991.991 0 0 1 .042-.677c0 .042.053.071.053.113.01.154.076.3.184.41.121.138.212.3.268.475 0 0 0 .053.041.053.171.05.327.14.452.267.143.13.28.266.41.41.022.025.04.053.053.083h.041a3.66 3.66 0 0 0 0-.392c0-.112.054-.225.167-.207h.053a.231.231 0 0 1 .178-.214.237.237 0 0 1 0 .237c.083.101.101.155 0 .268-.1.112-.053.124 0 .237a.512.512 0 0 1 .072-.184c.03-.06.041-.154.112-.184a.107.107 0 0 1 .072 0 .554.554 0 0 0 .207 0 .207.207 0 0 1 .208.125l-.196.095c.042.083 0 .112-.083.166a.901.901 0 0 0-.113.125c.076-.014.152-.032.226-.054a.22.22 0 0 1 .255.125c.016.033.04.062.072.083.057.05.093.12.1.196a.107.107 0 0 1 0 .053l-.112-.083a.077.077 0 0 0-.107 0 .107.107 0 0 1-.149 0 .26.26 0 0 0-.267 0 1.66 1.66 0 0 1-.196.113.504.504 0 0 1 .374.255c.042.084.101.167.143.256a.148.148 0 0 1-.071.196h-.03v-.03c0-.071-.042-.083-.113-.071a.154.154 0 0 1-.196-.101.653.653 0 0 0-.326-.309l-.125-.053a.503.503 0 0 1-.054.154.373.373 0 0 1-.071.083c-.083.071-.083.083 0 .184.083.101.042.054.071.101a.29.29 0 0 1-.237-.1 1.053 1.053 0 0 1-.178-.28.232.232 0 0 1 .083-.267.505.505 0 0 0 .1-.143l-.421-.112a.943.943 0 0 1 0 .195c.014.24.014.48 0 .72-.014.355-.07.708-.166 1.05-.07.264-.17.52-.297.76a5.653 5.653 0 0 1-.362.63 4.04 4.04 0 0 1-.38.475 3.47 3.47 0 0 1-.464.451c-.184.155-.38.28-.594.41-.287.183-.6.325-.926.422-.22.064-.445.116-.671.154a3.524 3.524 0 0 1-.38.054.255.255 0 0 0-.167.166.706.706 0 0 1-.308.463c-.071.054-.155.101-.238.154l.042-.124a.161.161 0 0 0-.042-.155c-.041-.041-.1 0-.154 0-.054 0-.101.072-.113.155a.457.457 0 0 1-.267.35h-.072a.853.853 0 0 0 .042-.154c0-.042-.042-.083-.071-.125-.03-.041-.054 0-.083 0l-.256.125-.083.041.226.101c.122.059.22.157.279.28a.19.19 0 0 1 0 .225.065.065 0 0 0 0 .071.551.551 0 0 1-.054.422c0 .042-.07.083-.1.125l-.042-.285a.053.053 0 0 0-.053-.054.44.44 0 0 1-.41-.237l-.042-.054a.516.516 0 0 1-.309.208.634.634 0 0 0-.35.41c-.02.103-.054.203-.101.297a.268.268 0 0 1-.339.154v.226a.248.248 0 0 1-.178-.309.237.237 0 0 0 0-.1.368.368 0 0 1 .125-.476c.116-.085.217-.19.297-.309a.072.072 0 0 0 0-.041l-.422-.054a.397.397 0 0 0-.309.042l-.083.107c-.124.142-.184.154-.35.07a.594.594 0 0 0-.071.381.445.445 0 0 1-.125-.226.469.469 0 0 1 0-.142v-.083a.196.196 0 0 1 0-.125.493.493 0 0 1 .255-.255.885.885 0 0 1 .422-.143c.113-.007.226-.007.339 0h.083a.476.476 0 0 0-.28-.267l-.32-.125a.137.137 0 0 1-.155-.113.054.054 0 0 0-.053-.053c-.1 0-.196.028-.28.083.042-.125.102-.255.238-.28a.798.798 0 0 1 .185 0h.053c.083-.124.208-.1.32-.04a.896.896 0 0 1 .393.361.32.32 0 0 0 .207.167.808.808 0 0 0-.041-.32.226.226 0 0 0-.166-.209c-.143-.041-.184-.142-.113-.297a.357.357 0 0 0-.35-.071c.041-.113.207-.154.32-.143.102.062.22.09.339.084a.254.254 0 0 1 .184.142l.083.166c.071.125.124.268.184.392.083-.237.184-.492.279-.76l-.143-.053-.41-.166a4.631 4.631 0 0 1-.884-.505.506.506 0 0 0-.155-.054c-.041 0-.1.054-.07.101.029.048.07.054.1.101.03.048 0 .042.054.072h-.072a.475.475 0 0 1-.451-.298 1.52 1.52 0 0 1-.154-.564.054.054 0 0 0 0-.041l-.38-.422a.309.309 0 0 0 0 .226l.041.083v.1h-.113a.867.867 0 0 1-.154-.237c-.054-.207-.083-.421-.125-.63a2.13 2.13 0 0 0-.053-.308 3.159 3.159 0 0 0-.113-.35v.326c0 .03-.071 0-.083-.053a.85.85 0 0 1-.113-.362 2.75 2.75 0 0 1 .125-.885c.027-.105.06-.208.1-.31a.42.42 0 0 1-.053.096l-.053.053v-.07a.73.73 0 0 1 .1-.38c.102-.227.226-.452.34-.672a2.14 2.14 0 0 1 .154-.226l-.101.107-.072.042v-.042c.039-.063.08-.125.125-.184a2.21 2.21 0 0 1 .463-.422.19.19 0 0 1 .125 0l.594.125.208.054a.855.855 0 0 0-.143.196.256.256 0 0 0 0 .231.09.09 0 0 1 0 .101 1.58 1.58 0 0 0-.338.41v.053s.196.196.297.31a.082.082 0 0 1 0 .053.5.5 0 0 0 0 .504.202.202 0 0 0 .255.143.493.493 0 0 0 .1.32c.042.042.102.072.143.114a.142.142 0 0 1 .054.07.593.593 0 0 0 .475.41.755.755 0 0 0 .493-.1c.053 0 .071-.042.083 0 .033.207.1.407.196.593.123.218.275.417.451.594.159.152.353.262.564.321a.814.814 0 0 0 .731-.196c.123-.125.227-.267.309-.422l.255-.41c.112-.154.256-.284.422-.38a.233.233 0 0 1 .196-.041l-.042.083a.32.32 0 0 0 0 .339c.042.053.072.053.101 0 .03-.054.083-.155.196-.143.113.012.113-.071.125-.143a1.79 1.79 0 0 1 .267-.873.596.596 0 0 1 .101-.083v.226a.97.97 0 0 0 .053.184l.036-.077a.124.124 0 0 1 .113-.071.118.118 0 0 0 .071-.042.362.362 0 0 0 .072-.338.85.85 0 0 1 0-.268c0-.112.028-.222.083-.32a.29.29 0 0 1 .053-.083h.042v.196a.108.108 0 0 0 0 .053h.053l.107-.071a.428.428 0 0 0 .053-.238.416.416 0 0 1 0-.142v-.487c0-.066 0-.072.042-.113l.065-.036v.261a.054.054 0 0 1 .048-.03ZM8.479 7.789l.35-.35a.243.243 0 0 1 .072-.054c.041-.042 0-.083 0-.125 0-.041-.054 0-.101 0h-.054v-.07a.35.35 0 0 1 .196-.22.7.7 0 0 1 .476 0 .095.095 0 0 0 .083 0l.338-.184c.054 0 .042-.053 0-.083-.041-.03-.1-.071-.154 0a.107.107 0 0 1-.054 0c0-.101.101-.184.196-.226a.84.84 0 0 1 .493 0h.024c.042 0 .166.054.267 0l.208-.07c.053 0 .053-.042 0-.072-.053-.03-.071-.083-.125-.042-.053.042 0 0-.053 0a.065.065 0 0 1 0-.089.493.493 0 0 1 .362-.095.594.594 0 0 1 .32.125h.042a.166.166 0 0 0 .167.053.22.22 0 0 1 .225 0h.042v-.053a.166.166 0 0 0-.166-.125h-.042a.51.51 0 0 1 .505-.071c.122.05.23.132.309.237.03.02.065.034.1.042a.594.594 0 0 1 .238.042c.071.041.042 0 .054.053a.16.16 0 0 0-.078-.214h-.118v-.089a.51.51 0 0 1 .196 0 .654.654 0 0 1 .463.28c.041.07.076.146.1.225a.291.291 0 0 1 .268.113h.042a.31.31 0 0 0 .07-.024.225.225 0 0 0-.154-.208h-.041c.053 0 .1-.041.154 0 .09.008.175.033.256.071.211.087.37.267.427.487.101.054.167.113.238.155h.083v-.125a.278.278 0 0 0-.154-.196l-.054-.041a.38.38 0 0 1 .362.112c.11.093.192.214.238.35a.142.142 0 0 0 .083.102.895.895 0 0 1 .125.113c.053-.155-.072-.238-.113-.35a.321.321 0 0 1 .238.112c.083.087.157.18.225.28.043.072.09.141.143.207.042.08.07.166.083.255a1.67 1.67 0 0 1-.083.594c-.007.13-.007.262 0 .392a.083.083 0 0 1 0 .054.51.51 0 0 0-.184.35 1.699 1.699 0 0 0 0 .534v.042a.594.594 0 0 0-.268.493v.309a.487.487 0 0 0-.368.332c-.042.084-.053.184-.1.268-.048.083-.054.053-.084.083v-.113c.036-.186.05-.375.042-.564a2.002 2.002 0 0 0-.155-.814v-.1a.594.594 0 0 0 .166-.351 3.95 3.95 0 0 0 0-.594.552.552 0 0 0-.142-.38.344.344 0 0 0-.38-.077.457.457 0 0 0-.28.421v.208a2.042 2.042 0 0 0-.742-.475 2.804 2.804 0 0 0-.492-.125h-.363c-.234.001-.466.04-.689.113-.124.042-.237.101-.362.143a.09.09 0 0 1-.083 0 3.28 3.28 0 0 0-.855-.363 2.168 2.168 0 0 0-.434-.07c-.297-.06-.594-.102-.843-.179a2.055 2.055 0 0 1-.63-.267.214.214 0 0 0-.07-.101Zm5.612 2.791c0 .1-.184.125-.38.071v.208a.283.283 0 0 1 0 .071h-.083a1.662 1.662 0 0 1-.166-.154.25.25 0 0 0-.143.166c-.041.113-.1.125-.184 0a.628.628 0 0 0-.1-.083 1.55 1.55 0 0 1-.126.155.12.12 0 0 1-.083.041.298.298 0 0 1-.053-.071.427.427 0 0 1 0-.125c-.071.184-.155.339-.362.38a.415.415 0 0 1 .041-.226c.042-.07 0 0 0-.041a.505.505 0 0 0-.154.338c.01.258.076.51.196.737.083.208.184.41.267.594.076.188.11.39.1.594a.534.534 0 0 1-.854.475 1.282 1.282 0 0 1-.35-.321 5.376 5.376 0 0 1-.238-.339 1.869 1.869 0 0 1-.101-.255v-.083a.154.154 0 0 1 .154.1c.03.048.155.238.238.351a.892.892 0 0 0 .297.339.345.345 0 0 0 .451-.184v-.042a.558.558 0 0 0-.042-.451c-.1-.226-.225-.452-.338-.671a2.444 2.444 0 0 1-.267-.76.917.917 0 0 1 0-.196 1.7 1.7 0 0 1-.267 0l-.268-.072-.124.084a.208.208 0 0 0 0-.084.297.297 0 0 0-.155-.267.113.113 0 0 0-.113.113.339.339 0 0 0 .155.309l.237.166c.084.054.072.054.113 0a.204.204 0 0 0 0-.083c.113 0 .155.071.166.184.028.143.066.284.113.422a.225.225 0 0 1-.053.166.676.676 0 0 1-.28.208.385.385 0 0 1-.278 0c.051-.052.107-.1.166-.143a.208.208 0 0 0 .053-.196.065.065 0 0 0-.053-.041.67.67 0 0 0-.166 0 .172.172 0 0 0-.113.053 2.37 2.37 0 0 1-.31.208.47.47 0 0 1-.545-.083.552.552 0 0 1-.113-.196l-.042-.083a.299.299 0 0 1-.071.053c-.03 0-.042-.071 0-.083a1.42 1.42 0 0 1 .071-.226.09.09 0 0 0 0-.083.487.487 0 0 0-.184-.154c-.053-.042-.1 0-.142 0h-.072a.593.593 0 0 0 0-.071.332.332 0 0 1 .238-.268h.071a1.253 1.253 0 0 1-.451-.297c-.042-.041-.054-.07 0-.113.053-.041.154-.136.237-.195a.735.735 0 0 1 .493 0c.147.048.281.129.392.237l.042.042a.694.694 0 0 0-.434-.44 1.817 1.817 0 0 0-.564-.113.196.196 0 0 1 .154-.142l.321-.06a.713.713 0 0 0 .309-.154 1.193 1.193 0 0 0-.184-.125c-.166-.07-.339-.154-.505-.208a1.68 1.68 0 0 0-.475-.13 3.326 3.326 0 0 1-.671-.166 2.75 2.75 0 0 1-.742-.327 2.022 2.022 0 0 1-.594-.594.832.832 0 0 1-.083-.196v-.07h.07l.096.053c.154.125.297.28.451.392.19.138.403.238.63.297.184.042.362.083.546.113.184.03.309 0 .463.042l.339.041c.129.009.256.033.38.071.196.072.38.155.564.226a.065.065 0 0 0 .071 0 1.42 1.42 0 0 0 .226-.071v-.066a4.608 4.608 0 0 0-.422-.207 2.97 2.97 0 0 0-.843-.196l-.392-.042a4.98 4.98 0 0 1-.635-.148 2.03 2.03 0 0 1-.594-.339.95.95 0 0 1-.32-.451V7.57a.13.13 0 0 1 .1 0l.154.166c.084.083.167.167.268.256.235.184.506.317.795.392.167.041.339.07.505.1.267.042.547.084.814.143.317.057.612.199.855.41.101.083.184.041.28 0a.238.238 0 0 1 .255.125.852.852 0 0 1 0 .593.179.179 0 0 0 .083.185h.07a.505.505 0 0 1 .506.07.124.124 0 0 0 .154 0c.117-.054.23-.115.339-.183.112-.072.053-.101.083-.155a.434.434 0 0 1 .451-.237c.128 0 .255.013.38.041a.594.594 0 0 0 .309 0 .303.303 0 0 0 .261-.243v-.38c0-.042 0-.083.072-.083.07 0 .053.053.053.1.043.197.043.399 0 .594a.327.327 0 0 1-.362.28h-.505a.285.285 0 0 0-.297.225.177.177 0 0 0 0 .083c.042.084.071.155.196.143a.137.137 0 0 1 .125.125.327.327 0 0 0 .297.267l.13-.006Zm-3.308-.41c.072.073.147.143.226.208a.231.231 0 0 0 .28 0c.078-.047.153-.098.225-.154v-.042a.191.191 0 0 0-.101-.125.302.302 0 0 0-.155 0l-.1.042a.592.592 0 0 1-.31 0l-.065.071Zm1.936.196c.025.02.053.034.084.042a.47.47 0 0 1 .267.154c.069.007.139.007.208 0 .041 0 .07-.041.112-.053a.847.847 0 0 0-.112-.113.825.825 0 0 0-.559-.03Zm-7.4 1.83a.595.595 0 0 0 .595.166.239.239 0 0 0 .154-.143.962.962 0 0 1-.66-.083.79.79 0 0 1-.38-.517.772.772 0 0 1 .322-.855.778.778 0 0 0 .51.974h.083a.814.814 0 0 0 .897-.44c-.062.049-.122.1-.178.155a.76.76 0 0 1-.861 0 .527.527 0 0 1-.03-.861.333.333 0 0 0 .166.237.951.951 0 0 0 .28.101.7.7 0 0 0 .593-.184.89.89 0 0 0 .196-.309c.113-.267.196-.546.321-.813.08-.163.17-.322.267-.475 0-.042.054 0 .083 0l.31.166.195.083-.083.071a3.16 3.16 0 0 0-.475.66c-.1.184-.196.35-.28.534a7.732 7.732 0 0 0-.237.63l-.166.475c-.041.124-.1.237-.154.362a.88.88 0 0 1-.392.422.914.914 0 0 1-.327.089 1.36 1.36 0 0 1-.338 0 .452.452 0 0 1-.398-.321.22.22 0 0 0-.012-.125Zm8.357-.476a.892.892 0 0 1 0 .196c0 .083-.054.083-.125.042l-.166-.083h-.072a.345.345 0 0 1 0 .308.143.143 0 0 1-.053.072h-.066l-.041-.125a.136.136 0 0 0-.178-.071.515.515 0 0 0-.155.071h-.083a1.848 1.848 0 0 1-.196-.63l.06.072a.28.28 0 0 0 .338 0 .232.232 0 0 0 0-.196c0-.042-.041-.071-.053-.113.083 0 .083-.071.297.184l.154-.083c.053 0 0-.083 0-.113v-.125l.101.042a.14.14 0 0 1 .071.053c.089.1.188.19.297.268a.28.28 0 0 1 .101.225v.054h-.041c-.149-.048-.149-.048-.19-.048Zm-7.014-.944a.624.624 0 0 0-.38-.083.68.68 0 0 1-.166 0 .225.225 0 0 1-.167-.32c.054 0 .101.07.155.1.053.03.071 0 .071-.042a.172.172 0 0 1 .101-.166.267.267 0 0 1 .267.054c.12.118.166.294.119.457Z"/></g><defs><clipPath id="a"><path fill="#fff" d="M0 0h24v24H0z"/></clipPath></defs></svg>