<svg xmlns="http://www.w3.org/2000/svg" fill="none" viewBox="0 0 24 24"><g clip-path="url(#a)"><path fill="#EAB304" d="M12 24c6.627 0 12-5.373 12-12S18.627 0 12 0 0 5.373 0 12s5.373 12 12 12"/><path fill="#000" d="m15.778 10.497.041-.083c0-.042 0-.083.084-.054a.3.3 0 0 0 0-.113.24.24 0 0 0 0-.166 1 1 0 0 1-.042-.647.2.2 0 0 0 0-.083l.042-.042q.024.023.041.053a.2.2 0 0 1 0 .084v.041c0 .042.071-.041.101-.071a.6.6 0 0 1 .119-.071.8.8 0 0 0-.042-.321 1 1 0 0 1 .042-.677c0 .042.053.071.053.113.01.154.076.3.184.41.121.138.212.3.268.475 0 0 0 .053.041.053.171.05.327.14.452.267q.215.195.41.41.033.038.053.083h.041q.01-.195 0-.392c0-.113.054-.225.167-.208h.053a.23.23 0 0 1 .178-.213.24.24 0 0 1 0 .237c.083.101.101.155 0 .267-.1.113-.053.125 0 .238a.5.5 0 0 1 .072-.184c.03-.06.041-.155.112-.184a.1.1 0 0 1 .072 0q.103.02.207 0a.21.21 0 0 1 .208.125l-.196.095c.042.083 0 .112-.083.166a1 1 0 0 0-.113.124 2 2 0 0 0 .226-.053.22.22 0 0 1 .255.125q.024.05.072.083c.057.05.093.12.1.196a.1.1 0 0 1 0 .053l-.112-.083a.077.077 0 0 0-.107 0 .107.107 0 0 1-.149 0 .26.26 0 0 0-.267 0q-.094.063-.196.113a.5.5 0 0 1 .374.255c.042.084.101.167.143.256a.15.15 0 0 1-.071.196h-.03v-.03c0-.071-.042-.083-.113-.071a.16.16 0 0 1-.167-.048.2.2 0 0 1-.029-.053.65.65 0 0 0-.326-.309l-.125-.053a.5.5 0 0 1-.054.154.4.4 0 0 1-.071.083c-.083.071-.083.083 0 .184s.042.054.071.101a.3.3 0 0 1-.237-.1 1 1 0 0 1-.178-.28.23.23 0 0 1 .083-.267.5.5 0 0 0 .1-.143l-.421-.113a1 1 0 0 1 0 .196q.021.36 0 .719-.021.536-.166 1.051-.106.398-.297.76a6 6 0 0 1-.362.63 4 4 0 0 1-.38.475 3.5 3.5 0 0 1-.464.451c-.184.155-.38.28-.594.41-.287.183-.6.325-.926.422q-.331.097-.671.154a4 4 0 0 1-.38.053.26.26 0 0 0-.167.167.7.7 0 0 1-.308.463c-.071.053-.155.101-.238.154l.042-.124a.16.16 0 0 0-.042-.155c-.041-.041-.1 0-.154 0s-.101.072-.113.155a.46.46 0 0 1-.267.35h-.072a1 1 0 0 0 .042-.154c0-.042-.042-.083-.071-.125-.03-.042-.054 0-.083 0l-.256.125-.083.041.226.101c.122.059.22.157.279.28a.19.19 0 0 1 0 .225.07.07 0 0 0 0 .071.55.55 0 0 1-.054.422c0 .041-.07.083-.1.125l-.042-.285a.053.053 0 0 0-.053-.054.44.44 0 0 1-.41-.237l-.042-.054a.52.52 0 0 1-.309.208.64.64 0 0 0-.35.41q-.03.155-.101.297a.267.267 0 0 1-.339.154v.226a.25.25 0 0 1-.178-.309.24.24 0 0 0 0-.101.37.37 0 0 1 .125-.475 1.2 1.2 0 0 0 .297-.309.1.1 0 0 0 0-.041l-.422-.054a.4.4 0 0 0-.309.042l-.083.107c-.124.142-.184.154-.35.07a.6.6 0 0 0-.071.38.45.45 0 0 1-.125-.225.5.5 0 0 1 0-.142v-.083a.2.2 0 0 1 0-.125.5.5 0 0 1 .255-.255.9.9 0 0 1 .422-.143q.17-.01.339 0h.083a.47.47 0 0 0-.28-.267l-.32-.125a.136.136 0 0 1-.155-.113.053.053 0 0 0-.053-.053q-.152 0-.28.083c.042-.125.102-.255.238-.28a.8.8 0 0 1 .185 0h.053c.083-.124.208-.1.32-.04a.9.9 0 0 1 .393.361.32.32 0 0 0 .207.167.8.8 0 0 0-.041-.321.23.23 0 0 0-.166-.208c-.143-.041-.184-.142-.113-.297a.36.36 0 0 0-.35-.071c.041-.113.207-.154.32-.143.102.061.22.09.339.084a.26.26 0 0 1 .184.142l.083.166c.071.125.124.268.184.392.083-.237.184-.493.279-.76l-.143-.053-.41-.166a4.6 4.6 0 0 1-.884-.505.5.5 0 0 0-.155-.054c-.041 0-.1.054-.07.101s.07.054.1.101 0 .042.054.071h-.072a.475.475 0 0 1-.451-.296 1.5 1.5 0 0 1-.154-.565.05.05 0 0 0 0-.041l-.38-.422a.3.3 0 0 0 0 .226l.041.083v.1h-.113a.9.9 0 0 1-.154-.237c-.054-.207-.083-.421-.125-.63a2 2 0 0 0-.053-.308 3 3 0 0 0-.113-.35v.326c0 .03-.071 0-.083-.053a.85.85 0 0 1-.113-.362 2.8 2.8 0 0 1 .125-.885 3 3 0 0 1 .1-.31.4.4 0 0 1-.053.096l-.053.053v-.07a.73.73 0 0 1 .1-.381c.102-.226.226-.451.34-.671a2 2 0 0 1 .154-.226l-.101.107-.072.042v-.042q.058-.095.125-.184a2.2 2.2 0 0 1 .463-.422.2.2 0 0 1 .125 0l.594.125.208.054a1 1 0 0 0-.143.196.26.26 0 0 0 0 .231.09.09 0 0 1 0 .101q-.204.177-.338.41v.053s.196.196.297.31a.1.1 0 0 1 0 .053.5.5 0 0 0 0 .504.2.2 0 0 0 .255.143.5.5 0 0 0 .1.32c.042.042.102.072.143.113a.14.14 0 0 1 .054.072.59.59 0 0 0 .475.41.76.76 0 0 0 .493-.101c.053 0 .071-.042.083 0q.05.312.196.593.186.328.451.594c.159.152.353.261.564.32a.81.81 0 0 0 .731-.195q.185-.189.309-.422l.255-.41c.112-.154.256-.284.422-.38a.23.23 0 0 1 .196-.041l-.042.083a.32.32 0 0 0 0 .338c.042.054.072.054.101 0 .03-.053.083-.154.196-.142s.113-.071.125-.143a1.8 1.8 0 0 1 .267-.873.6.6 0 0 1 .101-.083v.226q.017.095.053.184l.036-.077a.13.13 0 0 1 .113-.071.12.12 0 0 0 .071-.042.36.36 0 0 0 .072-.338.9.9 0 0 1 0-.268c0-.112.028-.222.083-.32a.3.3 0 0 1 .053-.084h.042v.197a.1.1 0 0 0 0 .053h.053l.107-.071a.43.43 0 0 0 .053-.238.4.4 0 0 1 0-.142v-.487c0-.066 0-.072.042-.113l.065-.036v.261a.05.05 0 0 1 .048-.03M8.479 7.789l.35-.35a.2.2 0 0 1 .072-.054c.041-.042 0-.083 0-.125s-.054 0-.101 0h-.054v-.07a.35.35 0 0 1 .196-.22.7.7 0 0 1 .476 0 .1.1 0 0 0 .083 0l.338-.184c.054 0 .042-.053 0-.083-.041-.03-.1-.071-.154 0a.1.1 0 0 1-.054 0c0-.101.101-.184.196-.226a.84.84 0 0 1 .493 0h.024c.042 0 .166.054.267 0l.208-.071c.053 0 .053-.042 0-.071-.053-.03-.071-.083-.125-.042-.053.042 0 0-.053 0a.065.065 0 0 1 0-.089.5.5 0 0 1 .362-.095.6.6 0 0 1 .32.125h.042a.17.17 0 0 0 .167.053.22.22 0 0 1 .225 0h.042v-.053a.166.166 0 0 0-.166-.125h-.042a.51.51 0 0 1 .505-.071c.122.05.23.132.309.237q.046.03.1.042a.6.6 0 0 1 .238.042c.071.041.042 0 .054.053a.16.16 0 0 0-.078-.214h-.118v-.089a.5.5 0 0 1 .196 0 .65.65 0 0 1 .463.28q.063.106.1.225a.29.29 0 0 1 .268.113h.042a.3.3 0 0 0 .07-.024.225.225 0 0 0-.154-.208h-.041c.053 0 .1-.041.154 0q.135.013.256.071c.211.086.37.267.427.487.101.054.167.113.238.155h.083v-.125a.28.28 0 0 0-.154-.196l-.054-.042a.38.38 0 0 1 .362.113c.11.093.192.214.238.35a.14.14 0 0 0 .083.102 1 1 0 0 1 .125.112c.053-.154-.072-.237-.113-.35a.32.32 0 0 1 .238.113q.124.13.225.279.064.11.143.208.063.12.083.255a1.7 1.7 0 0 1-.083.594q-.01.196 0 .392a.1.1 0 0 1 0 .054.5.5 0 0 0-.184.35 1.7 1.7 0 0 0 0 .534v.042a.6.6 0 0 0-.268.493v.309a.49.49 0 0 0-.368.332c-.042.083-.053.184-.1.268-.048.083-.054.053-.084.083v-.113q.054-.28.042-.564a2 2 0 0 0-.155-.814v-.1a.6.6 0 0 0 .166-.351 4 4 0 0 0 0-.594.55.55 0 0 0-.142-.38.34.34 0 0 0-.38-.077.46.46 0 0 0-.28.421v.208a2 2 0 0 0-.742-.475 3 3 0 0 0-.492-.125h-.363q-.353.002-.689.113c-.124.042-.237.101-.362.143a.09.09 0 0 1-.083 0 3.3 3.3 0 0 0-.855-.363 2 2 0 0 0-.434-.07c-.297-.06-.594-.102-.843-.18a2 2 0 0 1-.63-.266.2.2 0 0 0-.07-.101m5.612 2.79c0 .102-.184.126-.38.072v.208a.3.3 0 0 1 0 .071h-.083a2 2 0 0 1-.166-.154.25.25 0 0 0-.143.166c-.041.113-.1.125-.184 0a.6.6 0 0 0-.1-.083q-.058.082-.126.154a.12.12 0 0 1-.083.042.3.3 0 0 1-.053-.071.4.4 0 0 1 0-.125c-.071.184-.155.338-.362.38a.4.4 0 0 1 .041-.226c.042-.07 0 0 0-.041a.5.5 0 0 0-.154.338c.01.258.076.51.196.737.083.208.184.41.267.594.076.188.11.39.1.594a.534.534 0 0 1-.854.475 1.3 1.3 0 0 1-.35-.321 5 5 0 0 1-.238-.339 2 2 0 0 1-.101-.255v-.083a.154.154 0 0 1 .154.1c.03.048.155.238.238.351a.9.9 0 0 0 .297.339.343.343 0 0 0 .451-.184v-.042a.56.56 0 0 0-.042-.451c-.1-.226-.225-.452-.338-.671a2.4 2.4 0 0 1-.267-.76 1 1 0 0 1 0-.197q-.134.012-.267 0l-.268-.07-.124.082a.2.2 0 0 0 0-.083.3.3 0 0 0-.155-.267.113.113 0 0 0-.113.113.34.34 0 0 0 .155.309l.237.166c.084.053.072.053.113 0a.2.2 0 0 0 0-.083c.113 0 .155.071.166.184q.042.214.113.422a.23.23 0 0 1-.053.166.7.7 0 0 1-.28.208.4.4 0 0 1-.278 0q.077-.078.166-.143a.21.21 0 0 0 .053-.196.07.07 0 0 0-.053-.041.7.7 0 0 0-.166 0 .17.17 0 0 0-.113.053 2.4 2.4 0 0 1-.31.208.47.47 0 0 1-.545-.083.6.6 0 0 1-.113-.196l-.042-.083a.3.3 0 0 1-.071.053c-.03 0-.042-.071 0-.083q.026-.116.071-.226a.09.09 0 0 0 0-.083.5.5 0 0 0-.184-.154c-.053-.042-.1 0-.142 0h-.072V11.3a.33.33 0 0 1 .238-.268h.071a1.25 1.25 0 0 1-.451-.297c-.042-.041-.054-.071 0-.113.053-.041.154-.136.237-.196a.74.74 0 0 1 .493 0c.147.05.281.13.392.238l.042.042a.7.7 0 0 0-.434-.44 1.8 1.8 0 0 0-.564-.113.2.2 0 0 1 .154-.142l.321-.06a.7.7 0 0 0 .309-.154 1.2 1.2 0 0 0-.184-.125c-.166-.071-.339-.154-.505-.208a1.7 1.7 0 0 0-.475-.13 3.3 3.3 0 0 1-.671-.167 2.8 2.8 0 0 1-.742-.326 2 2 0 0 1-.594-.594.8.8 0 0 1-.083-.196V7.98h.07l.096.053c.154.125.297.28.451.392.19.138.403.238.63.297.184.042.362.083.546.113s.309 0 .463.042l.339.041q.194.014.38.071c.196.072.38.155.564.226a.07.07 0 0 0 .071 0 1.4 1.4 0 0 0 .226-.071v-.066a5 5 0 0 0-.422-.207 3 3 0 0 0-.843-.196l-.392-.042a5 5 0 0 1-.635-.148 2 2 0 0 1-.594-.339.95.95 0 0 1-.32-.451V7.57a.13.13 0 0 1 .1 0l.154.166c.084.083.167.167.268.256.235.184.506.317.795.392.167.041.339.07.505.1.267.042.547.084.814.143.317.057.612.199.855.41.101.083.184.041.28 0a.24.24 0 0 1 .255.125.85.85 0 0 1 0 .593.18.18 0 0 0 .083.185h.07a.5.5 0 0 1 .506.07.125.125 0 0 0 .154 0q.175-.081.339-.183c.112-.072.053-.101.083-.155a.43.43 0 0 1 .451-.237q.192 0 .38.041a.6.6 0 0 0 .309 0 .3.3 0 0 0 .261-.243v-.38c0-.042 0-.083.072-.083.07 0 .053.053.053.1.043.197.043.398 0 .594a.327.327 0 0 1-.362.28h-.505a.285.285 0 0 0-.297.225.2.2 0 0 0 0 .083c.042.083.071.155.196.143a.14.14 0 0 1 .125.125.33.33 0 0 0 .297.267zm-3.308-.409q.108.11.226.208a.23.23 0 0 0 .28 0q.117-.07.225-.154v-.042a.2.2 0 0 0-.101-.125.3.3 0 0 0-.155 0l-.1.042a.6.6 0 0 1-.31 0zm1.936.196q.038.03.084.042c.103.02.198.074.267.154q.104.01.208 0c.041 0 .07-.041.112-.053a1 1 0 0 0-.112-.113.83.83 0 0 0-.559-.03m-7.4 1.83a.59.59 0 0 0 .595.165.24.24 0 0 0 .154-.142.96.96 0 0 1-.66-.083.8.8 0 0 1-.38-.517.77.77 0 0 1 .322-.855.78.78 0 0 0 .51.974h.083a.81.81 0 0 0 .897-.44q-.094.073-.178.155a.76.76 0 0 1-.861 0 .53.53 0 0 1-.03-.861.33.33 0 0 0 .166.237 1 1 0 0 0 .28.101.7.7 0 0 0 .593-.184.9.9 0 0 0 .196-.309c.113-.267.196-.546.321-.813q.12-.245.267-.475c0-.042.054 0 .083 0l.31.166.195.083-.083.071q-.28.3-.475.66c-.1.184-.196.35-.28.534a8 8 0 0 0-.237.63l-.166.475c-.041.124-.1.237-.154.362a.88.88 0 0 1-.392.422.9.9 0 0 1-.327.089 1.4 1.4 0 0 1-.338 0 .45.45 0 0 1-.398-.321.2.2 0 0 0-.012-.125m8.357-.476a1 1 0 0 1 0 .196c0 .083-.054.083-.125.042l-.166-.084h-.072a.35.35 0 0 1 0 .31.14.14 0 0 1-.053.07h-.066l-.041-.124a.136.136 0 0 0-.178-.071.5.5 0 0 0-.155.07h-.083a1.9 1.9 0 0 1-.196-.629l.06.072a.28.28 0 0 0 .338 0 .23.23 0 0 0 0-.196c0-.042-.041-.072-.053-.113.083 0 .083-.071.297.184l.154-.083c.053 0 0-.083 0-.113v-.125l.101.042q.044.015.071.053.134.15.297.268a.28.28 0 0 1 .101.225v.054h-.041c-.149-.048-.149-.048-.19-.048m-7.014-.944a.62.62 0 0 0-.38-.083.7.7 0 0 1-.166 0 .225.225 0 0 1-.167-.321c.054 0 .101.071.155.101s.071 0 .071-.042a.17.17 0 0 1 .101-.166.27.27 0 0 1 .267.054c.12.118.166.294.119.457"/></g><defs><clipPath id="a"><path fill="#fff" d="M0 0h24v24H0z"/></clipPath></defs></svg>