<svg xmlns="http://www.w3.org/2000/svg" fill="none" viewBox="0 0 24 24"><g clip-path="url(#a)"><path fill="#4700C2" d="M12 24c6.627 0 12-5.372 12-12 0-6.627-5.373-12-12-12S0 5.373 0 12c0 6.628 5.373 12 12 12"/><path fill="#fff" fill-rule="evenodd" d="M10.403 11.587c-.205.133-.439.274-.681.422v1.331q.33-.167.68-.335zM6.998 14.05a.513.513 0 0 0 .685.224l.637-.32c.004-.535.006-.942.006-1.103v-.043l-1.107.553a.51.51 0 0 0-.22.69m3.597-.135a.507.507 0 0 0 .507.51h.006a.51.51 0 0 0 .509-.51V9.695a.511.511 0 0 0-.894-.338.5.5 0 0 0-.126.336v2.108q-.003 1.06-.002 2.113" clip-rule="evenodd"/><path fill="#fff" fill-rule="evenodd" d="M17.85 10.647c-.032-.247-.195-.384-.444-.448a2.5 2.5 0 0 0-.61-.063c-.485-.002-.966.077-1.443.17q-1.035.2-2.04.514l-.605.19-.002-.007.037-.03c.39-.334.777-.667 1.17-.997A21 21 0 0 0 16.27 7.61c.197-.229.366-.473.453-.752.132-.418-.016-.679-.44-.796a2.2 2.2 0 0 0-.55-.06c-.404-.003-.804.064-1.198.144a19 19 0 0 0-1.412.36c-.647.198-1.445.538-2.158.826-.364.142-.751.324-1.114.465l-1.37.558c-1.818.782-2.347.22-2.347.22q0 .004.002.007l-.008-.017c-.354.697-.06 1.964 1.986 1.059.321-.125.648-.261.968-.384.616-.24 1.226-.538 1.845-.776q.638-.262 1.286-.5l.39-.15c.4-.132.8-.263 1.208-.364.445-.115.833-.184 1.068-.154q.036.002.07.009c.107.013.164.07.154.145-.004.115-.19.497-1.881 1.905l-.37.317q-.283.245-.56.488l-.156.137-.002.002-.072.064-.019.017-.017.016-.142.107-.03.026v1.788c.598-.204 3.509-1.176 3.823-.891.024.033.394.263-2.991 2.578-.133.101-.262.202-.396.303l-.489.374c-.612.443-1.22.887-1.832 1.33l-.265.191c-.004.483-.006.946-.008 1.37l6.457-4.764a13 13 0 0 0 1.117-1.065c.198-.212.376-.436.493-.693.06-.133.106-.262.087-.401zM7.33 17.975a.546.546 0 0 0 .034.722.54.54 0 0 0 .671.093l.259-.19.01-1.37-.873.646a.6.6 0 0 0-.101.1" clip-rule="evenodd"/><path fill="#fff" fill-rule="evenodd" d="M9.534 10.556a.51.51 0 0 0-.56-.374.506.506 0 0 0-.444.504v2.107c0 .426-.018 2.542-.034 4.297-.004.504-.009.976-.01 1.37-.005.502-.007.877-.007 1.03a.507.507 0 0 0 .508.51h.006a.51.51 0 0 0 .51-.51c0-.352.003-.998.007-1.788.002-.421.007-.886.008-1.37.014-2.196.034-4.783.033-5.646a.6.6 0 0 0-.017-.13" clip-rule="evenodd"/></g><defs><clipPath id="a"><path fill="#fff" d="M0 0h24v24H0z"/></clipPath></defs></svg>