<svg xmlns="http://www.w3.org/2000/svg" fill="none" viewBox="0 0 24 24"><g clip-path="url(#a)"><path fill="#4700C2" d="M12 24c6.627 0 12-5.373 12-12S18.627 0 12 0 0 5.373 0 12s5.373 12 12 12Z"/><path fill="#fff" fill-rule="evenodd" d="M10.403 11.587c-.204.133-.438.274-.68.422v1.332c.22-.112.446-.225.68-.336v-1.419.001ZM6.998 14.05a.513.513 0 0 0 .686.225l.636-.321c.004-.535.007-.942.007-1.103v-.043l-1.108.553a.512.512 0 0 0-.22.69Zm3.597-.135a.508.508 0 0 0 .508.51h.005a.51.51 0 0 0 .51-.51v-4.22a.51.51 0 0 0-1.02-.002v2.108c-.003.707-.003 1.41-.003 2.113Z" clip-rule="evenodd"/><path fill="#fff" fill-rule="evenodd" d="M17.85 10.647c-.032-.247-.195-.384-.444-.448a2.541 2.541 0 0 0-.61-.063c-.485-.002-.966.077-1.443.17-.69.133-1.37.305-2.04.514-.203.062-.402.126-.605.19l-.002-.007.037-.03c.39-.334.777-.667 1.17-.997A20.726 20.726 0 0 0 16.27 7.61c.197-.229.366-.473.453-.752.132-.418-.016-.679-.44-.796a2.173 2.173 0 0 0-.55-.06c-.404-.003-.804.064-1.198.144a18.77 18.77 0 0 0-1.412.36c-.647.198-1.445.538-2.158.826-.364.142-.751.324-1.114.465l-1.37.558c-1.818.782-2.347.22-2.347.22 0 .003 0 .005.002.007a.06.06 0 0 1-.008-.017c-.354.697-.06 1.964 1.986 1.059.321-.125.648-.261.968-.384.616-.24 1.226-.538 1.845-.776.425-.175.854-.341 1.286-.5l.39-.15c.4-.132.8-.263 1.208-.364.445-.115.833-.184 1.068-.154.023.002.048.004.07.009.107.013.164.07.154.145-.004.115-.19.497-1.881 1.905l-.37.317c-.19.164-.374.326-.56.488l-.156.137-.002.002-.072.064a.145.145 0 0 1-.019.017l-.017.016-.142.107a.421.421 0 0 1-.03.026v1.788c.598-.204 3.509-1.176 3.823-.891.024.033.394.263-2.991 2.578-.133.101-.262.202-.396.303l-.489.374c-.612.443-1.22.887-1.832 1.33l-.265.191c-.004.483-.006.946-.008 1.37l6.457-4.764a12.67 12.67 0 0 0 1.117-1.065c.198-.212.376-.436.493-.693.06-.133.106-.262.087-.401v-.001ZM7.33 17.975a.546.546 0 0 0 .034.722.54.54 0 0 0 .671.093l.259-.19.01-1.37-.873.646a.586.586 0 0 0-.101.1Z" clip-rule="evenodd"/><path fill="#fff" fill-rule="evenodd" d="M9.534 10.556a.51.51 0 0 0-1.004.13v2.107c0 .426-.018 2.542-.034 4.297-.004.504-.009.976-.01 1.37-.005.502-.007.877-.007 1.03a.508.508 0 0 0 .508.51h.006a.51.51 0 0 0 .51-.51c0-.352.003-.997.007-1.787.002-.422.007-.887.008-1.37.014-2.196.034-4.784.033-5.647a.565.565 0 0 0-.017-.13Z" clip-rule="evenodd"/></g><defs><clipPath id="a"><path fill="#fff" d="M0 0h24v24H0z"/></clipPath></defs></svg>