<svg xmlns="http://www.w3.org/2000/svg" fill="none" viewBox="0 0 24 24"><g clip-path="url(#a)"><path fill="#272D63" d="M12 24c6.627 0 12-5.373 12-12S18.627 0 12 0 0 5.373 0 12s5.373 12 12 12"/><path fill="#FEFEFE" d="m15.065 6.28-.455 1.847c1.406.492 2.442 1.229 2.24 2.594-.059.415-.202.83-.497 1.144-.253.27-.648.415-.985.525a4.2 4.2 0 0 1-1.255.22 9 9 0 0 1-.85-.034c-.463-.034-.935-.076-1.39-.178-.142-.033-.277-.059-.403-.093l-.615 2.483-.362 1.356L10.038 18l-1.12-.28.464-1.873c-.261-.067-.531-.143-.8-.211l-1.457-.364.556-1.281s.825.221.816.204c.32.076.455-.136.514-.271l.631-2.543.295-1.178.337-1.355c.017-.238-.067-.543-.522-.653.017-.009-.817-.204-.817-.204l.295-1.203 1.54.39c.237.059.472.11.716.17l.455-1.848 1.12.28-.446 1.813c.294.068.598.136.892.212L13.945 6zm-.093 6.695c.312-.051.69-.178.96-.289.008-.008.026-.008.034-.017.58.517.858 1.356.48 2.433-.599 1.746-2.038 1.89-3.941 1.525l-.463 1.873-1.111-.28.429-1.788.017-.059.337-1.373c.993.22 2.332.364 2.584-.67.136-.55-.126-.949-.547-1.237l.438-.026c.312-.016.471-.041.783-.093zm-.328-2.272c.328-1.33-1.71-1.618-2.34-1.787l-.557 2.253c.632.162 2.585.806 2.896-.466"/></g><defs><clipPath id="a"><path fill="#fff" d="M0 0h24v24H0z"/></clipPath></defs></svg>