<svg xmlns="http://www.w3.org/2000/svg" fill="none" viewBox="0 0 24 24"><g clip-path="url(#a)"><path fill="#E9B113" d="M12 24c6.627 0 12-5.373 12-12S18.627 0 12 0 0 5.373 0 12s5.373 12 12 12"/><path fill="#fff" d="M12 19c-3.86 0-7-3.14-7-7s3.142-7 7-7 7 3.142 7 7c0 .638-.087 1.273-.258 1.887a.565.565 0 0 1-1.088-.304A5.877 5.877 0 0 0 12 6.13 5.877 5.877 0 0 0 6.13 12a5.877 5.877 0 0 0 7.656 5.593.563.563 0 0 1 .747.585.57.57 0 0 1-.405.492c-.688.22-1.406.33-2.128.33m2.148-7.017q.363.304.489.878c.054.22.05.451-.01.67a1.35 1.35 0 0 1-.315.54q-.241.25-.553.406c-.217.112-.269.149-.528.206l-.162.039a.19.19 0 0 0-.14.224l.096.427a.19.19 0 0 1-.076.196.2.2 0 0 1-.068.029l-.43.095a.19.19 0 0 1-.225-.143l-.094-.424a.19.19 0 0 0-.225-.143l-1.166.258a.46.46 0 0 1-.548-.35l-1.05-4.747a.46.46 0 0 1 .35-.547l1.167-.258a.19.19 0 0 0 .143-.225l-.096-.428a.19.19 0 0 1 .145-.224l.43-.095a.19.19 0 0 1 .226.143l.094.425a.19.19 0 0 0 .224.143L12.183 9c.184-.043.377-.04.56.01.174.047.337.129.479.24.288.23.489.552.569.912.06.268.047.546-.035.808a1.3 1.3 0 0 1-.488.675c.322.015.63.133.88.338m-3.456-1.016.063.271a.46.46 0 0 0 .547.35l.832-.184a.6.6 0 0 0 .35-.227q.134-.18.068-.482-.062-.279-.242-.397a.5.5 0 0 0-.39-.073l-.878.194a.46.46 0 0 0-.35.548m2.488 2.397h.001a.6.6 0 0 0 .07-.474.7.7 0 0 0-.25-.412.49.49 0 0 0-.422-.099l-1.054.234a.46.46 0 0 0-.35.547l.074.335a.46.46 0 0 0 .548.35l.999-.22a.58.58 0 0 0 .384-.26m2.098 3.426.976-1.166a.176.176 0 0 0-.04-.262.2.2 0 0 0-.095-.027h-.657a.176.176 0 0 1-.177-.177v-.137c0-.098.079-.177.177-.177h1.5a.176.176 0 0 1 .177.177v.18q-.001.062-.038.11l-.934 1.172a.176.176 0 0 0 .138.287h.669c.097 0 .177.079.177.176v.137a.176.176 0 0 1-.177.176h-1.56a.177.177 0 0 1-.177-.176v-.178q.001-.065.041-.115"/></g><defs><clipPath id="a"><path fill="#fff" d="M0 0h24v24H0z"/></clipPath></defs></svg>