<svg xmlns="http://www.w3.org/2000/svg" fill="none" viewBox="0 0 24 24"><g clip-path="url(#a)"><path fill="#0AF" d="M12 24c6.627 0 12-5.373 12-12S18.627 0 12 0 0 5.373 0 12s5.373 12 12 12"/><path fill="#fff" d="M11.98 6.045a5.935 5.935 0 1 0 0 11.87 5.935 5.935 0 0 0 0-11.87m.018.94a2.95 2.95 0 0 1 2.77 3.965 1.93 1.93 0 0 0-1.468.34 1.87 1.87 0 0 0 .578-1.354 1.883 1.883 0 0 0-1.88-1.883 1.88 1.88 0 0 0-1.871 1.69 3.2 3.2 0 0 0-1.07-.01 2.95 2.95 0 0 1 2.941-2.748m1.085 5.542-1.043-.625a.22.22 0 0 0-.225.002l-.916.565a.22.22 0 0 0-.101.213 1.26 1.26 0 0 1-1.2 1.427 1.25 1.25 0 0 1-.929-2.127 1.25 1.25 0 0 1 1.824.044.215.215 0 0 0 .265.042l.882-.495a.22.22 0 0 0 .111-.189v-.053a.22.22 0 0 0-.15-.205 1.253 1.253 0 0 1 .455-2.44 1.256 1.256 0 0 1 1.188 1.16 1.25 1.25 0 0 1-.932 1.302.22.22 0 0 0-.166.21v.009c0 .075.04.145.104.184l.926.57a.215.215 0 0 0 .281-.047 1.25 1.25 0 0 1 1.007-.469 1.253 1.253 0 0 1-.096 2.504 1.256 1.256 0 0 1-1.181-1.375.22.22 0 0 0-.104-.207m-3.525 3.248a2.917 2.917 0 0 1-2.92-2.92 2.92 2.92 0 0 1 3.478-2.866c.014.493.222.962.579 1.303-.33-.24-.727-.37-1.135-.369a1.934 1.934 0 0 0 0 3.866 1.93 1.93 0 0 0 1.793-1.217c.092.401.262.772.491 1.1a2.91 2.91 0 0 1-2.286 1.104m4.876 0a2.92 2.92 0 0 1-2.913-2.721c.328.05.663.048.99-.006a1.932 1.932 0 1 0 2.457-2.05 3.1 3.1 0 0 0 .182-.974 2.92 2.92 0 0 1-.716 5.751"/><path fill="#fff" d="M12 5a7 7 0 1 0 .001 14.001A7 7 0 0 0 12 5m-.02 13.473a6.492 6.492 0 1 1-.001-12.984 6.492 6.492 0 0 1 0 12.984"/></g><defs><clipPath id="a"><path fill="#fff" d="M0 0h24v24H0z"/></clipPath></defs></svg>