<svg xmlns="http://www.w3.org/2000/svg" fill="none" viewBox="0 0 24 24"><g clip-path="url(#a)"><path fill="#0AF" d="M12 24c6.627 0 12-5.373 12-12S18.627 0 12 0 0 5.373 0 12s5.373 12 12 12Z"/><path fill="#fff" d="M11.98 6.045a5.935 5.935 0 1 0 0 11.87 5.935 5.935 0 0 0 0-11.87Zm.018.94a2.95 2.95 0 0 1 2.77 3.965 1.928 1.928 0 0 0-1.468.34 1.873 1.873 0 0 0 .578-1.355 1.883 1.883 0 0 0-3.14-1.396 1.882 1.882 0 0 0-.611 1.204 3.225 3.225 0 0 0-1.07-.01 2.95 2.95 0 0 1 2.941-2.748Zm1.085 5.542-1.043-.625a.215.215 0 0 0-.225.002l-.916.565a.216.216 0 0 0-.1.213 1.255 1.255 0 0 1-1.692 1.343 1.252 1.252 0 1 1 1.386-2 .215.215 0 0 0 .265.043l.882-.495a.22.22 0 0 0 .111-.189v-.053a.218.218 0 0 0-.149-.205 1.253 1.253 0 0 1 .454-2.44 1.256 1.256 0 0 1 1.188 1.159 1.25 1.25 0 0 1-.932 1.303.218.218 0 0 0-.166.21v.009c0 .075.04.145.104.184l.927.57a.215.215 0 0 0 .28-.047 1.25 1.25 0 0 1 1.007-.469 1.253 1.253 0 0 1-.096 2.504 1.257 1.257 0 0 1-1.181-1.375.216.216 0 0 0-.104-.207Zm-3.525 3.248a2.92 2.92 0 1 1 .558-5.786c.014.493.222.962.579 1.303-.33-.24-.727-.37-1.135-.369a1.933 1.933 0 0 0 0 3.866 1.93 1.93 0 0 0 1.793-1.217c.092.401.262.772.491 1.1a2.914 2.914 0 0 1-2.286 1.104Zm4.876 0a2.921 2.921 0 0 1-2.913-2.721c.328.05.663.048.991-.006a1.933 1.933 0 1 0 2.457-2.05c.112-.313.173-.641.181-.974a2.92 2.92 0 0 1-.716 5.751Z"/><path fill="#fff" d="M12 5a7 7 0 1 0 .001 14.001A7 7 0 0 0 12 5Zm-.02 13.473a6.492 6.492 0 1 1-.001-12.984 6.492 6.492 0 0 1 0 12.984Z"/></g><defs><clipPath id="a"><path fill="#fff" d="M0 0h24v24H0z"/></clipPath></defs></svg>