<svg xmlns="http://www.w3.org/2000/svg" fill="none" viewBox="0 0 24 24"><g clip-path="url(#a)"><path fill="#EBA809" d="M12 24c6.627 0 12-5.373 12-12S18.627 0 12 0 0 5.373 0 12s5.373 12 12 12"/><path fill="#fff" fill-rule="evenodd" d="M12 19a7 7 0 1 1 0-14 7 7 0 0 1 0 14m-.629-12.893q.003.836.002 1.67l.833.002q.004-.856 0-1.713-.418.014-.835.041m2.006 1.697c.733.1 1.521.211 2.105.706.891.8.776 2.479-.316 3.059.654.152 1.301.587 1.462 1.273.21.9.044 1.98-.68 2.614-.716.588-1.686.666-2.573.75q.005.78.002 1.563c1.864-.455 3.474-1.842 4.158-3.636.65-1.656.497-3.604-.421-5.13A6.08 6.08 0 0 0 13.38 6.23q-.005.788-.002 1.574m-5.566-.022c.809.038 1.617.03 2.425.03 0-.492.002-.983-.003-1.474-.904.293-1.71.82-2.422 1.444M6.868 9.05c-.95 1.616-1.057 3.69-.264 5.39.684 1.525 2.041 2.712 3.63 3.223q.003-.736.002-1.471c-.811-.009-1.625.021-2.434-.023.009-.452.114-.893.27-1.318.396-.008.81.061 1.194-.068.224-.188.16-.5.172-.757-.011-1.473.006-2.946-.008-4.418.015-.238-.134-.494-.381-.541-.408-.081-.826-.05-1.238-.052-.048-.33-.053-.666-.059-1.001a.25.25 0 0 0-.045-.196c-.233.441-.603.79-.839 1.23zm4.538.064v2.171c.726-.013 1.53.067 2.166-.354.527-.344.493-1.218-.051-1.527-.635-.377-1.41-.27-2.115-.29m0 3.34v2.408c.896-.072 1.901.078 2.68-.462.558-.37.491-1.285-.083-1.605-.781-.466-1.73-.318-2.597-.341m-.033 3.77-.003 1.672q.435.027.87.038.003-.855.002-1.71z" clip-rule="evenodd"/></g><defs><clipPath id="a"><path fill="#fff" d="M0 0h24v24H0z"/></clipPath></defs></svg>