<svg xmlns="http://www.w3.org/2000/svg" fill="none" viewBox="0 0 24 24"><g clip-path="url(#a)"><path fill="#504C4C" d="M12 24c6.627 0 12-5.373 12-12S18.627 0 12 0 0 5.373 0 12s5.373 12 12 12"/><path fill="#fff" d="m8.638 11.594-1.135 2.404.528 1.97 1.343.36 1.667 1.668-.502.504-3.973-1.066L5.5 13.461l.8-.798L9.772 9.19zl-1.135 2.404 3.538-3.537L9.77 9.19zm1.823 1.365 3.537 3.538 1.97-.528.361-1.343 1.667-1.667.504.502-1.065 3.974-3.974 1.065-4.27-4.272zm3.078-1.918-3.537-3.538-1.972.528-.359 1.341-1.667 1.669-.504-.502 1.066-3.974L10.539 5.5l.798.8 3.471 3.47zm1.087-3.37-1.667-1.667.502-.504 3.974 1.065 1.065 3.974-4.272 4.27-1.269-1.27 3.539-3.538-.53-1.971z"/></g><defs><clipPath id="a"><path fill="#fff" d="M0 0h24v24H0z"/></clipPath></defs></svg>