<svg xmlns="http://www.w3.org/2000/svg" fill="none" viewBox="0 0 24 24"><g clip-path="url(#a)"><path fill="#35BAEB" d="M12 24c6.627 0 12-5.373 12-12S18.627 0 12 0 0 5.373 0 12s5.373 12 12 12"/><path fill="#fff" d="m8 4 3.901 3.46c.045.042.095.077.132.121a.4.4 0 0 1 .006.08c-.002 1.49.004 2.98-.002 4.468q-.295.061-.553.215L8.037 8.898a.1.1 0 0 1-.036-.09C8.004 7.204 8 5.602 8.004 4zm4.63 5.351a4.33 4.33 0 0 1 2.557 1.056c-.203.218-.423.423-.633.636-.444.443-.885.89-1.33 1.328-.18-.118-.382-.2-.592-.242-.005-.924 0-1.85 0-2.778zm-4.628.416c1.012 1.003 2.018 2.012 3.028 3.017a1.8 1.8 0 0 0-.25.599H8V9.765zm7.216 1.45c.133-.127.254-.263.394-.385a4.3 4.3 0 0 1 1.057 2.549c-.912.004-1.827 0-2.739.002-.054.012-.054-.051-.065-.085a1.6 1.6 0 0 0-.223-.505q.785-.789 1.576-1.574zM8 13.974h2.376c.136 0 .272-.006.41.003.043.21.125.41.24.59L9.1 16.489c-.014.011-.038.046-.054.019A4.3 4.3 0 0 1 8 13.974m5.883.003c.392-.008.78 0 1.172-.003h1.614a4.28 4.28 0 0 1-1.03 2.515l-1.125-1.12c-.28-.283-.567-.561-.845-.848a1.6 1.6 0 0 0 .214-.544m-.78 1.076q.066-.039.131-.073l1.962 1.959c-.715.627-1.617 1-2.566 1.061v-2.775a1.6 1.6 0 0 0 .472-.174zm-2.854 1.115c.4-.395.794-.795 1.197-1.187.18.115.381.199.59.244V18a4.3 4.3 0 0 1-2.556-1.056c.25-.263.513-.514.769-.774z"/></g><defs><clipPath id="a"><path fill="#fff" d="M0 0h24v24H0z"/></clipPath></defs></svg>