<svg xmlns="http://www.w3.org/2000/svg" fill="none" viewBox="0 0 24 24"><g clip-path="url(#a)"><path fill="#35BAEB" d="M12 24c6.627 0 12-5.373 12-12S18.627 0 12 0 0 5.373 0 12s5.373 12 12 12Z"/><path fill="#fff" d="m8 4 3.901 3.46c.045.042.095.077.132.121a.43.43 0 0 1 .006.08c-.002 1.49.004 2.98-.002 4.468-.195.04-.382.113-.553.215L8.037 8.898a.101.101 0 0 1-.036-.09C8.004 7.204 8 5.602 8.004 4H8Zm4.63 5.351a4.333 4.333 0 0 1 2.557 1.056c-.203.218-.423.423-.633.636-.444.443-.885.89-1.33 1.328-.18-.118-.382-.2-.592-.242-.005-.924 0-1.85 0-2.778h-.002Zm-4.628.416c1.012 1.003 2.018 2.012 3.028 3.017a1.838 1.838 0 0 0-.25.599H8V9.765l.002.002Zm7.216 1.45c.133-.127.254-.263.394-.385a4.317 4.317 0 0 1 1.057 2.549c-.912.004-1.827 0-2.739.002-.054.012-.054-.051-.065-.085a1.588 1.588 0 0 0-.223-.505c.522-.526 1.05-1.05 1.576-1.574v-.002ZM8 13.974h2.376c.136 0 .272-.006.41.003.043.21.125.41.24.59L9.1 16.489c-.014.011-.038.046-.054.019A4.301 4.301 0 0 1 8 13.974Zm5.883.003c.392-.008.78 0 1.172-.003h1.614a4.279 4.279 0 0 1-1.03 2.515l-1.125-1.12c-.28-.283-.567-.561-.845-.848a1.62 1.62 0 0 0 .214-.544Zm-.78 1.076c.044-.025.088-.051.131-.073l1.962 1.959c-.715.627-1.617 1-2.566 1.061v-2.775a1.62 1.62 0 0 0 .472-.174l.002.002Zm-2.854 1.115c.4-.395.794-.795 1.197-1.187.18.115.381.199.59.244V18a4.312 4.312 0 0 1-2.556-1.056c.25-.263.513-.514.769-.774v-.002Z"/></g><defs><clipPath id="a"><path fill="#fff" d="M0 0h24v24H0z"/></clipPath></defs></svg>