<svg xmlns="http://www.w3.org/2000/svg" fill="none" viewBox="0 0 24 24"><g clip-path="url(#a)"><path fill="#000" d="M12 24c6.627 0 12-5.373 12-12S18.627 0 12 0 0 5.373 0 12s5.373 12 12 12Z"/><path fill="#fff" d="M18.856 10.593a6.968 6.968 0 0 0-1.055-2.506 6.948 6.948 0 0 0-.854-1.034 6.953 6.953 0 0 0-2.226-1.5 6.969 6.969 0 0 0-5.442 0 6.956 6.956 0 0 0-2.226 1.501 6.956 6.956 0 0 0-1.5 2.225 6.969 6.969 0 0 0 .646 6.633c.251.372.537.718.854 1.034a6.952 6.952 0 0 0 2.226 1.5 6.968 6.968 0 0 0 6.633-.645 6.943 6.943 0 0 0 1.034-.854 6.948 6.948 0 0 0 1.5-2.226 6.969 6.969 0 0 0 .41-4.128Zm-6.85 7.53a6.117 6.117 0 0 1 0-12.233 6.122 6.122 0 0 1 6.117 6.117 6.122 6.122 0 0 1-6.117 6.117Z"/><path fill="#fff" d="M12.115 17.593h.165c.029 0 .057 0 .086-.008h.008c.028 0 .05 0 .078-.007h.022c.021 0 .043 0 .064-.007h.022c.022 0 .043-.007.072-.007h.014c.029 0 .058-.008.086-.008.029 0 .05-.007.08-.014h.014c.021 0 .043-.007.064-.007h.015c.028-.008.05-.008.079-.015.057-.007.114-.021.165-.035h.014c.021-.007.05-.007.072-.015h.007l.165-.043a6.417 6.417 0 0 1-1.6-.15c-.79-.173-1.544-.481-2.183-1.013a4.422 4.422 0 0 1-1.594-3.438 4.179 4.179 0 0 1 .983-2.671 4.264 4.264 0 0 1 3.174-1.508h.165v-.955h-.187c-.362.007-.723.05-1.077.13-.356.08-.702.198-1.033.351a5.29 5.29 0 0 0-.948.575 5.053 5.053 0 0 0-.826.79c-.23.271-.43.567-.595.883a5.047 5.047 0 0 0-.59 1.952l-.02.316v.186a5.181 5.181 0 0 0 .48 2.111c.18.395.503.977.984 1.415a5.552 5.552 0 0 0 3.445 1.192h.13Z"/><path fill="#fff" d="M13.68 16.673a7.317 7.317 0 0 1-1.056-.114c-1.478-.266-2.75-1.17-3.215-2.535-.568-1.658.301-3.453 1.952-3.998.315-.105.644-.159.976-.158a3.3 3.3 0 0 1 1.235.244l.402-.855a7.704 7.704 0 0 0-.366-.136 4.229 4.229 0 0 0-1.27-.194 4.03 4.03 0 0 0-1.271.208 3.993 3.993 0 0 0-1.414.819c-.198.176-.378.37-.539.582a4.048 4.048 0 0 0-.811 2.183c-.036.545.036 1.09.215 1.607a3.97 3.97 0 0 0 .862 1.429c.352.38.76.667 1.256.933.517.273 1.156.416 1.823.51.431.057 1.006.072 1.343.072.294-.108.416-.159.574-.223.137-.065.273-.13.41-.208.136-.08.158-.094.387-.244a.398.398 0 0 0 .057-.044c-.79.137-.99.13-1.55.122Z"/><path fill="#fff" d="M15.446 15.604c-.223.014-.539.035-.898.035-.639 0-1.421-.057-2.089-.28-1.034-.344-2.01-1.227-2.01-2.318a1.965 1.965 0 0 1 1.967-1.967c.74 0 1.378.409 1.716 1.005l.854-.424a2.774 2.774 0 0 0-.51-.682 2.91 2.91 0 0 0-4.12 0 2.911 2.911 0 0 0-.855 2.06c.002.402.088.798.252 1.164.15.33.359.639.624.926a4.391 4.391 0 0 0 1.788 1.134c.653.215 1.615.294 2.549.23a5.35 5.35 0 0 0 .782-.115 5.39 5.39 0 0 0 .862-.854c-.223.021-.632.064-.912.086Z"/></g><defs><clipPath id="a"><path fill="#fff" d="M0 0h24v24H0z"/></clipPath></defs></svg>