<svg xmlns="http://www.w3.org/2000/svg" fill="none" viewBox="0 0 24 24"><g clip-path="url(#a)"><path fill="#000" d="M12 24c6.627 0 12-5.373 12-12S18.627 0 12 0 0 5.373 0 12s5.373 12 12 12"/><path fill="#fff" d="M18.856 10.593a7 7 0 0 0-1.055-2.506 7 7 0 0 0-.854-1.034 7 7 0 0 0-2.226-1.5 6.97 6.97 0 0 0-5.442 0 7 7 0 0 0-2.226 1.501 7 7 0 0 0-1.5 2.225 6.97 6.97 0 0 0 .646 6.633q.378.559.854 1.034a7 7 0 0 0 2.226 1.5 6.97 6.97 0 0 0 6.633-.645q.559-.378 1.034-.854a7 7 0 0 0 1.5-2.226 6.97 6.97 0 0 0 .41-4.128m-6.85 7.53a6.117 6.117 0 0 1 0-12.233 6.12 6.12 0 0 1 6.117 6.117 6.12 6.12 0 0 1-6.117 6.117"/><path fill="#fff" d="M12.115 17.593h.165c.029 0 .057 0 .086-.008h.008c.028 0 .05 0 .078-.007h.022q.032.002.064-.007h.022c.022 0 .043-.007.072-.007h.014c.029 0 .058-.008.086-.008.029 0 .05-.007.08-.014h.014c.021 0 .043-.007.064-.007h.015c.028-.008.05-.008.079-.015q.087-.012.165-.035h.014c.021-.007.05-.007.072-.015h.007l.165-.043a6.4 6.4 0 0 1-1.6-.15c-.79-.173-1.544-.481-2.183-1.013a4.42 4.42 0 0 1-1.594-3.438 4.18 4.18 0 0 1 .983-2.671 4.26 4.26 0 0 1 3.174-1.508h.165v-.955h-.187q-.544.01-1.077.13-.535.12-1.033.351a5.3 5.3 0 0 0-.948.575 5 5 0 0 0-.826.79q-.346.408-.595.883a5.05 5.05 0 0 0-.59 1.952l-.02.316v.186q.01.55.128 1.077c.08.36.201.704.352 1.034.18.395.503.977.984 1.415a5.55 5.55 0 0 0 3.445 1.192z"/><path fill="#fff" d="M13.68 16.673a7 7 0 0 1-1.056-.114c-1.478-.266-2.75-1.17-3.215-2.535-.568-1.658.301-3.453 1.952-3.998.315-.105.644-.159.976-.158a3.3 3.3 0 0 1 1.235.244l.402-.855a8 8 0 0 0-.366-.136 4.2 4.2 0 0 0-1.27-.194 4 4 0 0 0-1.271.208 4 4 0 0 0-1.414.819q-.297.264-.539.582a4.05 4.05 0 0 0-.811 2.183c-.036.545.036 1.09.215 1.607a4 4 0 0 0 .862 1.429c.352.38.76.667 1.256.933.517.273 1.156.416 1.823.51.431.057 1.006.072 1.343.072.294-.108.416-.159.574-.223.137-.065.273-.13.41-.208.136-.08.158-.094.387-.244a.4.4 0 0 0 .057-.044c-.79.137-.99.13-1.55.122"/><path fill="#fff" d="M15.446 15.604c-.223.014-.539.035-.898.035-.639 0-1.421-.057-2.089-.28-1.034-.344-2.01-1.227-2.01-2.318a1.965 1.965 0 0 1 1.967-1.967c.74 0 1.378.409 1.716 1.005l.854-.424a2.8 2.8 0 0 0-.51-.682 2.91 2.91 0 0 0-4.12 0 2.9 2.9 0 0 0-.855 2.06c.002.402.088.798.252 1.164q.226.495.624.926a4.4 4.4 0 0 0 1.788 1.134c.653.215 1.615.294 2.549.23a5.4 5.4 0 0 0 .782-.115 5.4 5.4 0 0 0 .862-.854c-.223.021-.632.064-.912.086"/></g><defs><clipPath id="a"><path fill="#fff" d="M0 0h24v24H0z"/></clipPath></defs></svg>