<svg xmlns="http://www.w3.org/2000/svg" fill="none" viewBox="0 0 24 24"><g clip-path="url(#a)"><path fill="#FB2EA3" d="M12 24c6.627 0 12-5.373 12-12S18.627 0 12 0 0 5.373 0 12s5.373 12 12 12"/><path fill="#fff" d="M14.965 10.77c-.143.966-.679 1.433-1.39 1.597.976.508 1.474 1.288 1 2.64-.587 1.678-1.983 1.819-3.838 1.468l-.451 1.805-1.088-.271.444-1.78q-.436-.11-.867-.226l-.446 1.79-1.088-.271.451-1.81-.776-.2L5.5 15.16l.54-1.247s.802.214.791.198c.308.076.445-.125.5-.258L8.04 11l.116.028a1 1 0 0 0-.113-.036l.507-2.037c.013-.231-.066-.522-.507-.633.017-.011-.79-.197-.79-.197l.289-1.162 1.501.375-.001.006q.338.084.695.163l.446-1.787 1.088.27-.437 1.753c.292.067.586.134.872.206l.434-1.741 1.088.27-.446 1.789c1.375.473 2.38 1.183 2.182 2.502m-2.487 3.486c.352-1.41-2.014-1.774-2.752-1.958l-.597 2.395c.738.184 3.013.915 3.35-.437zm.337-3.506c.32-1.283-1.659-1.568-2.273-1.722L10 11.201c.614.154 2.508.778 2.815-.451m3.167 4.803a.4.4 0 0 0-.3.08.48.48 0 0 0-.158.272.6.6 0 0 0-.012.18.4.4 0 0 0 .064.192.6.6 0 0 0 .18.177q.123.083.34.133a1 1 0 0 0 .241.027.7.7 0 0 0 .23-.04.46.46 0 0 0 .297-.34.43.43 0 0 0-.044-.331.55.55 0 0 0-.286-.223l.097-.42q.358.146.503.413.146.268.06.637a1 1 0 0 1-.166.377.86.86 0 0 1-.625.35 1.37 1.37 0 0 1-.791-.18.9.9 0 0 1-.286-.253.85.85 0 0 1-.15-.343 1 1 0 0 1 .016-.43 1.2 1.2 0 0 1 .115-.304.8.8 0 0 1 .188-.236.7.7 0 0 1 .257-.14.75.75 0 0 1 .326-.018zm1.694-1.33q-.046.212-.169.39a.9.9 0 0 1-.277.253.9.9 0 0 1-.36.114c-.14.015-.283.005-.42-.028a1.2 1.2 0 0 1-.387-.158.9.9 0 0 1-.412-.61 1.1 1.1 0 0 1 .02-.424c.03-.14.087-.273.169-.39a.9.9 0 0 1 .638-.368q.198-.022.415.028.209.045.39.157a.9.9 0 0 1 .274.262.9.9 0 0 1 .138.35c.023.14.016.285-.019.424m-1.652-1.762.092-.394.367.085.002-.007a.4.4 0 0 1-.134-.107.7.7 0 0 1-.164-.35.5.5 0 0 1 .007-.196 1 1 0 0 1 .048-.156l.404.094-.033.087a1 1 0 0 0-.026.089.47.47 0 0 0 .083.403q.075.096.178.157a.9.9 0 0 0 .271.106l.906.209-.097.42zm1.436-1.379a.8.8 0 0 0 .22.019.5.5 0 0 0 .202-.053.5.5 0 0 0 .16-.13.5.5 0 0 0 .098-.217.5.5 0 0 0-.01-.315.5.5 0 0 0-.199-.222l.092-.397a.81.81 0 0 1 .475.704q.009.151-.026.306-.052.225-.165.381a.84.84 0 0 1-.633.353 1.32 1.32 0 0 1-.788-.186 1 1 0 0 1-.278-.259.9.9 0 0 1-.145-.74.9.9 0 0 1 .187-.382.9.9 0 0 1 .317-.24 1.12 1.12 0 0 1 .815-.02zm-.115 3.064a.5.5 0 0 0-.118-.461.7.7 0 0 0-.193-.148 1 1 0 0 0-.488-.113.7.7 0 0 0-.237.049.5.5 0 0 0-.307.363.5.5 0 0 0 .116.46q.078.089.193.148c.15.079.318.118.488.113a.7.7 0 0 0 .238-.048.5.5 0 0 0 .308-.363m.065-4.107a.7.7 0 0 0-.202-.001.5.5 0 0 0-.327.18.52.52 0 0 0-.094.393.5.5 0 0 0 .07.18.57.57 0 0 0 .326.228z"/></g><defs><clipPath id="a"><path fill="#fff" d="M0 0h24v24H0z"/></clipPath></defs></svg>