<svg xmlns="http://www.w3.org/2000/svg" fill="none" viewBox="0 0 24 24"><g clip-path="url(#a)"><path fill="#FB2EA3" d="M12 24c6.627 0 12-5.373 12-12S18.627 0 12 0 0 5.373 0 12s5.373 12 12 12Z"/><path fill="#fff" d="M14.965 10.77c-.143.966-.679 1.433-1.39 1.597.976.508 1.474 1.288 1 2.64-.587 1.678-1.983 1.819-3.838 1.468l-.451 1.805-1.088-.271.444-1.78c-.29-.073-.58-.148-.867-.226l-.446 1.79-1.088-.271.451-1.81c-.254-.064-.512-.133-.776-.2L5.5 15.16l.54-1.247s.802.214.791.198c.308.076.445-.125.5-.258l.71-2.854.116.029a.883.883 0 0 0-.113-.036l.507-2.037c.013-.231-.066-.522-.507-.633.017-.011-.79-.197-.79-.197l.289-1.162 1.501.375-.001.006c.225.055.458.109.695.163l.446-1.787 1.088.27-.437 1.753c.292.067.586.134.872.205l.434-1.74 1.088.27-.446 1.788c1.375.474 2.38 1.183 2.182 2.503Zm-2.487 3.486c.352-1.41-2.014-1.774-2.752-1.958l-.597 2.395c.738.184 3.013.915 3.35-.437h-.001Zm.337-3.506c.32-1.283-1.659-1.568-2.273-1.722L10 11.201c.614.154 2.508.778 2.815-.451Zm3.167 4.803a.402.402 0 0 0-.3.08.475.475 0 0 0-.158.272.621.621 0 0 0-.012.18.422.422 0 0 0 .064.192.59.59 0 0 0 .18.177c.082.055.195.1.34.133a.987.987 0 0 0 .241.027c.083 0 .16-.014.23-.04a.457.457 0 0 0 .297-.34.434.434 0 0 0-.044-.331.55.55 0 0 0-.286-.223l.097-.42c.239.097.406.235.503.413.097.179.117.391.06.636a1 1 0 0 1-.166.378.86.86 0 0 1-.625.35 1.366 1.366 0 0 1-.791-.18.944.944 0 0 1-.286-.253.849.849 0 0 1-.15-.344 1.013 1.013 0 0 1 .016-.428 1.17 1.17 0 0 1 .115-.305.833.833 0 0 1 .188-.236.688.688 0 0 1 .257-.14.751.751 0 0 1 .326-.018l-.096.42Zm1.694-1.33c-.03.14-.087.272-.169.39a.898.898 0 0 1-.277.253.913.913 0 0 1-.36.114c-.14.014-.283.005-.42-.029a1.237 1.237 0 0 1-.387-.157.89.89 0 0 1-.412-.61 1.063 1.063 0 0 1 .02-.424c.03-.14.087-.273.169-.39a.892.892 0 0 1 .638-.368c.132-.015.27-.005.415.028.138.03.27.083.39.157a.91.91 0 0 1 .274.262.9.9 0 0 1 .138.35c.023.14.016.285-.019.423Zm-1.652-1.762.092-.394.367.085.002-.007a.438.438 0 0 1-.134-.107.718.718 0 0 1-.164-.35.515.515 0 0 1 .007-.196.926.926 0 0 1 .048-.156l.404.094a2.104 2.104 0 0 0-.033.087.76.76 0 0 0-.026.089.473.473 0 0 0 .083.403.63.63 0 0 0 .178.157.906.906 0 0 0 .271.106l.906.209-.097.42-1.904-.44Zm1.436-1.379a.747.747 0 0 0 .22.019.541.541 0 0 0 .202-.053.465.465 0 0 0 .16-.13.536.536 0 0 0 .098-.217.518.518 0 0 0-.01-.315.48.48 0 0 0-.199-.222l.092-.397a.813.813 0 0 1 .475.704 1.1 1.1 0 0 1-.026.306c-.034.15-.09.277-.165.381a.844.844 0 0 1-.633.353 1.32 1.32 0 0 1-.788-.187 1.01 1.01 0 0 1-.278-.258.903.903 0 0 1-.145-.741.874.874 0 0 1 .187-.381.918.918 0 0 1 .317-.24 1.116 1.116 0 0 1 .815-.02l-.323 1.399v-.001Zm-.115 3.064a.493.493 0 0 0-.118-.461.693.693 0 0 0-.193-.148.99.99 0 0 0-.488-.113.669.669 0 0 0-.237.049.494.494 0 0 0-.307.363.494.494 0 0 0 .116.46c.052.06.117.108.193.148.15.079.318.118.488.113a.693.693 0 0 0 .238-.048.494.494 0 0 0 .308-.363Zm.065-4.107a.694.694 0 0 0-.202-.002.486.486 0 0 0-.327.181.517.517 0 0 0-.094.393.489.489 0 0 0 .07.18.573.573 0 0 0 .326.228l.227-.98Z"/></g><defs><clipPath id="a"><path fill="#fff" d="M0 0h24v24H0z"/></clipPath></defs></svg>