<svg xmlns="http://www.w3.org/2000/svg" fill="none" viewBox="0 0 24 24"><path fill="#62757E" fill-rule="evenodd" d="M21.766 21.766a.8.8 0 0 1-1.131 0l-1.82-1.82a3.17 3.17 0 0 1-1.615.454 3.204 3.204 0 0 1-3.2-3.2c0-1.765 1.436-3.2 3.2-3.2s3.2 1.435 3.2 3.2a3.15 3.15 0 0 1-.454 1.615l1.82 1.82a.8.8 0 0 1 0 1.13M17.2 15.6c-.882 0-1.6.718-1.6 1.6s.718 1.6 1.6 1.6 1.6-.718 1.6-1.6-.717-1.6-1.6-1.6m2.767-7.218a.8.8 0 0 1-.559.476l-2.544.592c.264.454.481.942.662 1.453l3.057.718a.8.8 0 0 1-.365 1.557l-3.479-.816c-.011-.003-.018-.01-.03-.014a.8.8 0 0 1-.228-.105c-.01-.007-.024-.01-.035-.018a.8.8 0 0 1-.193-.208c-.016-.026-.024-.055-.037-.081-.023-.046-.051-.09-.066-.142-.384-1.403-1.177-2.574-2.232-3.296-.06-.04-.099-.096-.143-.148a.79.79 0 0 1-.924-.305.8.8 0 0 1 .232-1.107c.04-.028.117-.152.117-.297 0-.579-1.119-.641-1.6-.641s-1.6.062-1.6.64c0 .147.069.276.104.3.355.246.47.745.234 1.107a.8.8 0 0 1-.668.372c-.083 0-.163-.04-.244-.069-.044.053-.085.108-.145.15-1.53 1.046-2.48 3.03-2.48 5.18 0 3.26 3.858 5.92 4.8 5.92.028 0 .191-.007.532-.15a.801.801 0 0 1 .616 1.477c-.434.182-.82.273-1.149.273-1.433 0-4.625-2.111-5.877-5.078l-1.153.267-1.021 2.694a.8.8 0 0 1-1.497-.567l1.174-3.094a.8.8 0 0 1 .567-.496l1.485-.344a6 6 0 0 1-.078-.902q0-.57.075-1.126l-2.264.618a.8.8 0 0 1-.421-1.544l2.933-.8c.064-.018.127-.012.19-.014.17-.476.366-.939.614-1.366l-2.535-.59a.8.8 0 0 1-.559-.476L2.06 5.502a.8.8 0 0 1 1.483-.604L4.56 7.394l2.746.64c.023.004.04.02.06.027.313-.327.646-.63 1.014-.882.025-.017.055-.02.083-.035a2 2 0 0 1-.062-.503c0-.329.09-1.123.885-1.672-.01-.03-.03-.055-.037-.088A2.403 2.403 0 0 1 11.6 2 2.4 2.4 0 0 1 14 4.399q-.001.292-.073.578a2.02 2.02 0 0 1 .809 2.163c.028.014.059.018.085.037.37.252.708.55 1.023.879.018-.006.032-.02.05-.023l2.748-.64 1.017-2.496a.8.8 0 0 1 1.482.603zM11.6 3.6a.8.8 0 0 0-.8.8c0 .02.005.04.006.06a6 6 0 0 1 .794-.06c.297 0 .548.029.793.06.001-.02.007-.04.007-.06a.8.8 0 0 0-.8-.8" clip-rule="evenodd"/></svg>