<svg xmlns="http://www.w3.org/2000/svg" fill="none" viewBox="0 0 24 24"><path fill="#62757E" fill-rule="evenodd" d="m21.938 5.648-1.222 3a.83.83 0 0 1-.584.497l-2.64.613c.258.445.463.928.64 1.425.066.001.132-.005.197.013l3.057.833a.833.833 0 0 1-.439 1.608l-2.359-.643q.077.577.078 1.173c0 .319-.032.631-.08.94l1.546.36a.83.83 0 0 1 .591.515l1.223 3.222a.83.83 0 0 1-.78 1.13.83.83 0 0 1-.779-.539l-1.064-2.806-1.201-.279C16.818 19.8 13.494 22 12 22s-4.818-2.2-6.121-5.29l-1.202.28-1.064 2.805a.833.833 0 1 1-1.558-.59l1.222-3.222a.83.83 0 0 1 .59-.516l1.548-.36a6 6 0 0 1-.081-.94q0-.596.078-1.173l-2.359.643a.835.835 0 0 1-1.024-.585.835.835 0 0 1 .585-1.023l3.056-.833c.066-.02.132-.013.198-.014.176-.497.38-.98.639-1.424l-2.64-.613a.84.84 0 0 1-.583-.497l-1.222-3a.833.833 0 1 1 1.543-.629l1.06 2.6 2.861.665c.024.005.04.021.063.028.325-.34.672-.656 1.055-.918.027-.018.058-.022.087-.037a2.2 2.2 0 0 1-.064-.523c0-.342.094-1.17.922-1.741-.01-.032-.031-.057-.038-.09A2.503 2.503 0 0 1 12 2a2.503 2.503 0 0 1 2.499 2.5q-.002.305-.077.603a2.1 2.1 0 0 1 .843 2.253c.03.016.061.019.09.038.383.263.729.579 1.055.918.022-.006.04-.023.063-.028l2.862-.665 1.059-2.6a.833.833 0 0 1 1.543.628M12 3.667a.834.834 0 0 0-.834.833c0 .02.006.042.007.063.255-.033.517-.063.827-.063s.57.03.825.063c.002-.021.009-.042.009-.063A.834.834 0 0 0 12 3.667m2.415 5.102c-.063-.042-.104-.1-.15-.154a.82.82 0 0 1-.963-.32.834.834 0 0 1 .244-1.153c.041-.027.12-.159.12-.308 0-.602-1.165-.667-1.666-.667-.502 0-1.667.065-1.667.667 0 .153.07.284.107.311.369.257.49.775.243 1.152a.83.83 0 0 1-.695.389c-.085 0-.169-.042-.252-.071-.047.055-.09.113-.151.156C7.99 9.86 7 11.927 7 14.167c0 3.396 4.02 6.166 5 6.166s5-2.77 5-6.166c0-2.239-.99-4.306-2.585-5.398" clip-rule="evenodd"/></svg>