<svg xmlns="http://www.w3.org/2000/svg" fill="none" viewBox="0 0 24 24"><g clip-path="url(#a)"><path fill="#2D2D2D" d="M12 24c6.627 0 12-5.373 12-12S18.627 0 12 0 0 5.373 0 12s5.373 12 12 12"/><path fill="#fff" d="M8.394 13.907 3 12.14h3.608l.357-1.71 3.205.002.8-4.431h3.224c2.182 0 3.067.878 2.74 2.691l-.07.389c-.191 1.056-.673 1.758-1.502 2.164.821.42 1.097 1.214.89 2.359l-.16.886c-.318 1.768-1.62 2.71-3.732 2.71H8.948l.884-4.894H8.76zm3.546-1.923-.66 3.661h1.361c.808 0 1.257-.358 1.41-1.204l.17-.947c.195-1.08-.179-1.51-1.238-1.51zm.8-4.43-.576 3.195h.988c.902 0 1.429-.385 1.59-1.281l.11-.606c.158-.873-.168-1.308-.995-1.308z"/></g><defs><clipPath id="a"><path fill="#fff" d="M0 0h24v24H0z"/></clipPath></defs></svg>