<svg xmlns="http://www.w3.org/2000/svg" fill="none" viewBox="0 0 24 24"><g clip-path="url(#a)"><path fill="#F8D339" d="M12 24c6.627 0 12-5.373 12-12S18.627 0 12 0 0 5.373 0 12s5.373 12 12 12Z"/><path fill="#0B0E11" fill-rule="evenodd" d="M13.61 7.144 12 5.5 7.945 9.582l1.61 1.606 4.055-4.044Zm2.445 2.438-1.61-1.644-6.5 6.519 1.61 1.606 6.5-6.481Zm-8.945.793 1.61 1.644-1.61 1.606-1.61-1.606 1.61-1.644Zm11.39 1.644-1.61-1.644-6.5 6.52L12 18.5l6.5-6.48Z" clip-rule="evenodd"/></g><defs><clipPath id="a"><path fill="#fff" d="M0 0h24v24H0z"/></clipPath></defs></svg>