<svg xmlns="http://www.w3.org/2000/svg" fill="none" viewBox="0 0 24 24"><g clip-path="url(#a)"><path fill="#00AEEF" d="M12 24c6.627 0 12-5.373 12-12S18.627 0 12 0 0 5.373 0 12s5.373 12 12 12"/><path fill="#fff" d="M10.386 18.787H6.195l.822-4.653 4.35-3.92h-3.7l2.993-1.833h4.865l-6.292 6.211-.423 2.373s1.405.103 2.512 0c1.108-.114 2.353-.573 2.353-.573zm6.59-9.96-1.873 1.835s1.576 1.753.125 4.16c-1.427 2.36-6.167 1.925-6.167 1.925l.365-2.074 6.67-6.51h-5.528L11.128 5H8.456l-.96 5.41H10.9l-4.043 3.644L6 18.96s3.233.092 5.974 0c2.752-.092 5.96-2.453 6.43-5.123.639-3.61-1.428-5.008-1.428-5.008"/></g><defs><clipPath id="a"><path fill="#fff" d="M0 0h24v24H0z"/></clipPath></defs></svg>