<svg xmlns="http://www.w3.org/2000/svg" fill="none" viewBox="0 0 24 24"><path fill="#62757E" fill-rule="evenodd" d="M6.643 2c.45 0 .816.365.816.816v1.48h9.082v-1.48a.816.816 0 0 1 1.633 0v1.48h.714A3.11 3.11 0 0 1 22 7.408v11.48A3.11 3.11 0 0 1 18.888 22H5.112A3.11 3.11 0 0 1 2 18.888V7.408a3.11 3.11 0 0 1 3.112-3.112h.715v-1.48c0-.45.365-.816.816-.816m-1.53 3.929a1.48 1.48 0 0 0-1.48 1.48v1.087c.44-.238.944-.374 1.48-.374h13.775c.535 0 1.04.136 1.48.374V7.408a1.48 1.48 0 0 0-1.48-1.48zm15.254 5.306a1.48 1.48 0 0 0-1.48-1.48H5.113a1.48 1.48 0 0 0-1.48 1.48v7.653c0 .817.663 1.48 1.48 1.48h13.776a1.48 1.48 0 0 0 1.48-1.48zm-9.183 1.53c0-.45.365-.816.816-.816h.008c.45 0 .816.366.816.816v.008c0 .45-.365.816-.816.816H12a.816.816 0 0 1-.816-.816zm2.296 0c0-.45.365-.816.816-.816h.008c.45 0 .816.366.816.816v.008c0 .45-.366.816-.816.816h-.008a.816.816 0 0 1-.816-.816zm2.295 0c0-.45.366-.816.817-.816h.008c.45 0 .816.366.816.816v.008c0 .45-.366.816-.817.816h-.007a.816.816 0 0 1-.816-.816zm-9.183 2.296c0-.45.365-.816.816-.816h.008c.45 0 .816.365.816.816v.008c0 .45-.365.816-.816.816h-.008a.816.816 0 0 1-.816-.816zm2.296 0c0-.45.365-.816.816-.816h.008c.45 0 .816.365.816.816v.008c0 .45-.365.816-.816.816h-.008a.816.816 0 0 1-.816-.816zm2.296 0c0-.45.365-.816.816-.816h.008c.45 0 .816.365.816.816v.008c0 .45-.365.816-.816.816H12a.816.816 0 0 1-.816-.816zm2.296 0c0-.45.365-.816.816-.816h.008c.45 0 .816.365.816.816v.008c0 .45-.366.816-.816.816h-.008a.816.816 0 0 1-.816-.816zm2.295 0c0-.45.366-.816.817-.816h.008c.45 0 .816.365.816.816v.008c0 .45-.366.816-.817.816h-.007a.816.816 0 0 1-.816-.816zm-9.183 2.296c0-.45.365-.816.816-.816h.008c.45 0 .816.365.816.816v.008c0 .45-.365.816-.816.816h-.008a.816.816 0 0 1-.816-.816zm2.296 0c0-.45.365-.816.816-.816h.008c.45 0 .816.365.816.816v.008c0 .45-.365.816-.816.816h-.008a.816.816 0 0 1-.816-.816zm2.296 0c0-.45.365-.816.816-.816h.008c.45 0 .816.365.816.816v.008c0 .45-.365.816-.816.816H12a.816.816 0 0 1-.816-.816zm2.296 0c0-.45.365-.816.816-.816h.008c.45 0 .816.365.816.816v.008c0 .45-.366.816-.816.816h-.008a.816.816 0 0 1-.816-.816z" clip-rule="evenodd"/></svg>