<svg xmlns="http://www.w3.org/2000/svg" fill="none" viewBox="0 0 24 24"><path fill="#62757E" fill-rule="evenodd" d="M17.556 21.989a4.45 4.45 0 0 1-4.445-4.445 4.45 4.45 0 0 1 4.445-4.444A4.449 4.449 0 0 1 22 17.544a4.45 4.45 0 0 1-4.444 4.445Zm0-7.408a2.967 2.967 0 0 0-2.964 2.963 2.967 2.967 0 0 0 2.964 2.963 2.966 2.966 0 0 0 2.962-2.963 2.966 2.966 0 0 0-2.962-2.963Zm-.741 2.222v1.481h2.963v-1.48h-1.482v-1.482h-1.481v1.481ZM7.459 2.816a.816.816 0 1 0-1.632 0v1.48h-.715A3.112 3.112 0 0 0 2 7.408v11.48A3.112 3.112 0 0 0 5.112 22H14a5.748 5.748 0 0 1-1.398-1.633h-7.49a1.48 1.48 0 0 1-1.48-1.48v-7.652c0-.817.663-1.48 1.48-1.48h13.776c.817 0 1.48.662 1.48 1.48v1.347c.627.357 1.181.83 1.632 1.39V7.408a3.112 3.112 0 0 0-3.112-3.112h-.715v-1.48a.816.816 0 0 0-1.632 0v1.48H7.459v-1.48Zm7.586 9.607a.816.816 0 0 0-.741-.474h-.008a.816.816 0 0 0-.816.816v.008c0 .22.086.418.227.565a5.726 5.726 0 0 1 1.338-.915Zm-2.369 2.17a.815.815 0 0 0-.668-.348H12a.816.816 0 0 0-.816.816v.008c0 .45.365.816.816.816h.008c.03 0 .061-.002.091-.005a5.68 5.68 0 0 1 .577-1.288Zm-.736 1.95a.816.816 0 0 0-.756.814v.008c0 .412.305.753.702.808a5.759 5.759 0 0 1 .054-1.63ZM3.633 7.408c0-.817.662-1.48 1.48-1.48h13.775c.817 0 1.48.663 1.48 1.48v1.088a3.098 3.098 0 0 0-1.48-.374H5.112c-.535 0-1.04.136-1.48.374V7.408ZM12 11.95a.816.816 0 0 0-.816.816v.008c0 .45.365.816.816.816h.008c.45 0 .816-.365.816-.816v-.008a.816.816 0 0 0-.816-.816H12Zm-4.592 2.296a.816.816 0 0 0-.816.816v.008c0 .45.365.816.816.816h.008c.45 0 .816-.365.816-.816v-.008a.816.816 0 0 0-.816-.816h-.008Zm2.296 0a.816.816 0 0 0-.816.816v.008c0 .45.365.816.816.816h.008c.45 0 .816-.365.816-.816v-.008a.816.816 0 0 0-.816-.816h-.008ZM7.408 16.54a.816.816 0 0 0-.816.816v.008c0 .45.365.816.816.816h.008c.45 0 .816-.365.816-.816v-.008a.816.816 0 0 0-.816-.816h-.008Zm2.296 0a.816.816 0 0 0-.816.816v.008c0 .45.365.816.816.816h.008c.45 0 .816-.365.816-.816v-.008a.816.816 0 0 0-.816-.816h-.008Z" clip-rule="evenodd"/></svg>