<svg xmlns="http://www.w3.org/2000/svg" fill="none" viewBox="0 0 24 24"><path fill="#62757E" fill-rule="evenodd" d="M19.5 22H2.833A.833.833 0 0 1 2 21.167V4.5c0-.46.373-.833.833-.833H7v-.834a.833.833 0 1 1 1.667 0v.834h5v-.834a.833.833 0 1 1 1.666 0v.834H19.5c.46 0 .833.373.833.833v16.667c0 .46-.372.833-.833.833m-.833-16.667h-3.334a.833.833 0 1 1-1.666 0h-5a.833.833 0 1 1-1.667 0H3.667V7h15zm0 3.334h-15v11.666h15zm-7.084 6.666A2.086 2.086 0 0 1 9.5 13.25c0-.852.516-1.584 1.25-1.907v-.176a.833.833 0 1 1 1.667 0h.416a.833.833 0 1 1 0 1.666h-1.25a.417.417 0 0 0 0 .834c1.15 0 2.084.935 2.084 2.083 0 .852-.515 1.584-1.25 1.907v.176a.833.833 0 1 1-1.667 0h-.417a.833.833 0 1 1 0-1.666h1.25a.417.417 0 0 0 0-.834" clip-rule="evenodd"/></svg>