<svg xmlns="http://www.w3.org/2000/svg" fill="none" viewBox="0 0 24 24"><g clip-path="url(#a)"><path fill="#FBB413" d="M12 24c6.627 0 12-5.373 12-12S18.627 0 12 0 0 5.373 0 12s5.373 12 12 12Z"/><path fill="#fff" d="M12.014 15.336a2.68 2.68 0 0 0 1.133-.195c.142-.05.278-.117.405-.198a.105.105 0 0 1 .084-.026.108.108 0 0 1 .074.045l.921.944c.066.068.064.09-.015.144-.32.219-.668.394-1.034.521a4.923 4.923 0 0 1-1.406.259 4.903 4.903 0 0 1-1.799-.244 4.431 4.431 0 0 1-1.368-.766 5.057 5.057 0 0 1-.959-1.046 4.134 4.134 0 0 1-.39-.679 7.168 7.168 0 0 1-.222-.575 5.09 5.09 0 0 1-.206-1.097c-.03-.273-.026-.55.012-.821a5.9 5.9 0 0 1 .143-.8c.11-.402.27-.788.477-1.151a4.707 4.707 0 0 1 1.877-1.8c.298-.16.611-.288.936-.38.264-.079.535-.132.809-.157.21-.027.424-.031.636-.015a.921.921 0 0 0 .113 0c.347.01.692.063 1.025.162.284.075.56.182.818.32.274.135.531.298.77.489.046.041.083.022.12-.018l.568-.596.818-.865c.096-.102.12-.105.223-.013.316.283.607.591.87.922.334.413.618.862.848 1.34.184.394.335.803.452 1.222.099.345.13.696.207 1.041v.02c0 .32.071.64.037.96-.04.365-.06.734-.136 1.093-.064.302-.147.6-.245.892a6.854 6.854 0 0 1-1.069 2.014c-.071.093-.093.096-.175 0-.27-.271-.54-.547-.813-.816-.057-.056-.05-.1 0-.161.288-.401.52-.839.693-1.3.155-.434.261-.884.317-1.34.034-.35.041-.703.022-1.053a3.81 3.81 0 0 0-.071-.595 5.489 5.489 0 0 0-.959-2.23c-.051-.072-.115-.139-.162-.216-.047-.079-.051-.057-.096-.013-.26.262-.528.516-.781.782-.088.093-.19.166-.273.262-.083.095-.184.185-.278.278l-.284.284c-.045.044-.08.027-.109-.014a3.167 3.167 0 0 0-.912-.88 3.043 3.043 0 0 0-1.147-.44 3.474 3.474 0 0 0-.963-.013 2.98 2.98 0 0 0-1.12.352c-.372.203-.699.48-.96.812-.227.286-.402.61-.518.955-.13.41-.19.84-.174 1.27a3.049 3.049 0 0 0 .806 2.084c.314.346.7.62 1.13.805.409.178.854.262 1.3.241Z"/><path fill="#fff" d="m17.278 16.443-2.486-2.518c-.054-.056-.1-.058-.143 0a3.119 3.119 0 0 1-.632.675c-.059.046-.059.083 0 .137.224.222.445.45.666.672.288.291.575.582.865.873.052.051.05.075 0 .12-.115.085-.229.174-.349.244a5.435 5.435 0 0 1-2.098.866 4.2 4.2 0 0 1-.892.102h-.12a3.188 3.188 0 0 1-.637-.02c-.246-.036-.477-.066-.71-.117a5.632 5.632 0 0 1-2.19-1.051 5.787 5.787 0 0 1-1.06-1.08 5.33 5.33 0 0 1-.756-1.39 4.58 4.58 0 0 1-.335-1.534 1.106 1.106 0 0 1 0-.166v-.577a.448.448 0 0 1 0-.188c0-.047.02-.09.028-.137.024-.216.063-.431.115-.643a5.632 5.632 0 0 1 2.814-3.654 5.445 5.445 0 0 1 2.212-.662h.142a5.538 5.538 0 0 1 2.372.371l.211.088c.322.142.63.313.922.51a.101.101 0 0 0 .15-.014c.26-.296.535-.577.808-.86.051-.054.054-.103 0-.147a7.042 7.042 0 0 0-3.045-1.252 7.719 7.719 0 0 0-.953-.09 6.842 6.842 0 0 0-1.475.137 7.159 7.159 0 0 0-2.425.965 7.137 7.137 0 0 0-1.521 1.298 6.904 6.904 0 0 0-1.344 2.284 7.716 7.716 0 0 0-.293 1.088c-.054.323-.09.65-.11.977a5.15 5.15 0 0 0 .048 1.053c.039.347.105.69.2 1.025.066.227.132.455.218.675a7.063 7.063 0 0 0 1.767 2.607c.276.253.572.484.885.69.419.285.87.523 1.342.706.47.186.961.319 1.462.396a9.27 9.27 0 0 0 1.133.098c.245 0 .491-.039.722-.044.175-.013.348-.039.519-.078.189-.032.376-.081.562-.13a6.653 6.653 0 0 0 1.966-.87 7.111 7.111 0 0 0 1.475-1.251c.071-.081.069-.095-.03-.184Z"/></g><defs><clipPath id="a"><path fill="#fff" d="M0 0h24v24H0z"/></clipPath></defs></svg>