<svg xmlns="http://www.w3.org/2000/svg" fill="none" viewBox="0 0 24 24"><g clip-path="url(#a)"><path fill="#FBB413" d="M12 24c6.627 0 12-5.373 12-12S18.627 0 12 0 0 5.373 0 12s5.373 12 12 12Z"/><path fill="#fff" d="M12.014 15.336a2.68 2.68 0 0 0 1.133-.195 1.99 1.99 0 0 0 .405-.198.105.105 0 0 1 .083-.026.106.106 0 0 1 .075.045l.921.944c.066.068.064.09-.015.144a4.4 4.4 0 0 1-1.034.521 4.925 4.925 0 0 1-1.406.259 4.899 4.899 0 0 1-1.799-.244 4.43 4.43 0 0 1-1.369-.766 5.052 5.052 0 0 1-.958-1.046 4.133 4.133 0 0 1-.39-.679 7.17 7.17 0 0 1-.222-.575 5.088 5.088 0 0 1-.206-1.097c-.03-.273-.027-.55.012-.821.029-.27.077-.537.143-.8a5 5 0 0 1 .476-1.151 4.707 4.707 0 0 1 1.878-1.8 4.64 4.64 0 0 1 .936-.38c.264-.079.534-.131.809-.157.21-.027.424-.031.636-.015a.923.923 0 0 0 .113 0c.347.01.692.063 1.025.162.284.075.559.182.818.32.274.135.531.299.77.489.046.041.083.022.12-.017l.567-.597.819-.865c.095-.102.12-.105.223-.012.315.282.607.59.87.921.334.413.618.862.848 1.34.184.395.335.803.452 1.222.099.345.13.696.207 1.041v.02c0 .32.071.64.037.96-.04.365-.06.734-.136 1.093-.065.302-.147.6-.245.892a6.859 6.859 0 0 1-1.07 2.015c-.07.092-.093.095-.174 0-.27-.272-.54-.548-.813-.817-.057-.056-.05-.1 0-.161a5.62 5.62 0 0 0 .693-1.3c.155-.434.26-.884.317-1.34.034-.35.04-.703.022-1.053a3.81 3.81 0 0 0-.072-.595 5.49 5.49 0 0 0-.958-2.23c-.051-.072-.116-.139-.162-.216-.047-.079-.052-.057-.096-.013-.26.262-.528.516-.782.782-.088.093-.189.166-.272.262-.084.095-.184.185-.278.278l-.285.284c-.044.044-.079.027-.108-.014a3.168 3.168 0 0 0-.912-.88 3.042 3.042 0 0 0-1.147-.44 3.474 3.474 0 0 0-.963-.013 2.98 2.98 0 0 0-1.12.352c-.373.203-.699.48-.96.812-.227.286-.402.61-.518.955-.13.41-.19.84-.175 1.27a3.048 3.048 0 0 0 .806 2.084c.315.346.7.62 1.13.805.41.179.855.262 1.3.241Z"/><path fill="#fff" d="m17.278 16.443-2.486-2.518c-.054-.056-.1-.058-.143 0a3.119 3.119 0 0 1-.632.675c-.059.046-.059.083 0 .137.224.222.445.45.666.672.288.291.575.582.865.873.052.051.05.075 0 .12-.115.085-.229.174-.349.244a5.435 5.435 0 0 1-2.098.866 4.2 4.2 0 0 1-.892.102h-.12a3.188 3.188 0 0 1-.637-.02c-.246-.036-.477-.066-.71-.117a5.632 5.632 0 0 1-2.19-1.051 5.787 5.787 0 0 1-1.06-1.08 5.33 5.33 0 0 1-.756-1.39 4.58 4.58 0 0 1-.335-1.534 1.106 1.106 0 0 1 0-.166v-.577a.448.448 0 0 1 0-.188c0-.047.02-.09.028-.137.024-.216.063-.431.115-.643a5.632 5.632 0 0 1 2.814-3.654 5.445 5.445 0 0 1 2.212-.662h.142a5.538 5.538 0 0 1 2.372.371l.211.088c.322.142.63.313.922.51a.101.101 0 0 0 .15-.014c.26-.296.535-.577.808-.86.051-.054.054-.103 0-.147a7.042 7.042 0 0 0-3.045-1.252 7.719 7.719 0 0 0-.953-.09 6.842 6.842 0 0 0-1.475.137 7.159 7.159 0 0 0-2.425.965 7.137 7.137 0 0 0-1.521 1.298 6.904 6.904 0 0 0-1.344 2.284 7.716 7.716 0 0 0-.293 1.088c-.054.323-.09.65-.11.977a5.15 5.15 0 0 0 .048 1.053c.039.347.105.69.2 1.025.066.227.132.455.218.675a7.063 7.063 0 0 0 1.767 2.607c.276.253.572.484.885.69.419.285.87.523 1.342.706.47.186.961.319 1.462.396a9.27 9.27 0 0 0 1.133.098c.245 0 .491-.039.722-.044.175-.013.348-.039.519-.078.189-.032.376-.081.562-.13a6.653 6.653 0 0 0 1.966-.87 7.111 7.111 0 0 0 1.475-1.251c.071-.081.069-.095-.03-.184Z"/></g><defs><clipPath id="a"><path fill="#fff" d="M0 0h24v24H0z"/></clipPath></defs></svg>