<svg xmlns="http://www.w3.org/2000/svg" fill="none" viewBox="0 0 24 24"><path fill="#62757E" fill-rule="evenodd" d="M21.826 11.166a.833.833 0 0 1-.832-.834V9.5h-1.666a.834.834 0 0 1-.666-1.333l2.499-3.333a.83.83 0 0 1 .928-.291c.341.114.744.422.744.782v5.003c0 .46-.546.84-1.007.84m-3.906-.834a.833.833 0 0 1-.834.834h-3.33a.833.833 0 0 1-.504-1.497l2.808-2.137A.833.833 0 1 1 12.923 7c0-1.38 1.12-2.501 2.498-2.501a2.5 2.5 0 0 1 2.499 2.5c0 .645-.246 1.257-.691 1.725a1 1 0 0 1-.1.088l-.902.687h.86c.46 0 .833.374.833.833m-9.083-.164 4.98 4.984 2.795-1.398a.83.83 0 0 1 .915.115l4.164 3.59a.83.83 0 0 1 .083 1.181l-2.414 2.748c-.306.31-.77.612-1.545.612-2.149 0-6.067-2.479-9.751-6.169C4.053 11.818.619 6.616 2.556 4.677l2.77-2.467a.833.833 0 0 1 1.182.078l3.61 4.166c.22.255.266.617.116.918zM5.802 4.016 3.714 5.873c-.471.475.81 4.06 5.527 8.78 3.685 3.69 7.167 5.68 8.574 5.68.182 0 .283-.036.314-.066l1.838-2.094-3.107-2.68-2.835 1.417a.83.83 0 0 1-.961-.155l-5.83-5.832a.83.83 0 0 1-.156-.962l1.417-2.835z" clip-rule="evenodd"/></svg>