<svg xmlns="http://www.w3.org/2000/svg" fill="none" viewBox="0 0 24 24"><path fill="#62757E" fill-rule="evenodd" d="M17.832 22c-2.149 0-6.069-2.479-9.755-6.168-2.13-2.13-3.895-4.377-4.97-6.326-1.266-2.296-1.447-3.92-.54-4.827L5.34 2.21a.835.835 0 0 1 1.183.078l3.61 4.166a.83.83 0 0 1 .117.918l-1.4 2.797 4.983 4.982 2.795-1.397c.3-.15.662-.106.917.114l4.165 3.592a.83.83 0 0 1 .082 1.181l-2.415 2.748c-.307.31-.771.611-1.546.611M3.77 5.834c-.138.196-.237.992.797 2.867 1 1.816 2.666 3.93 4.69 5.953 3.684 3.689 7.168 5.68 8.575 5.68.183 0 .284-.037.315-.067l1.84-2.094-3.109-2.68-2.836 1.418a.83.83 0 0 1-.962-.156L7.249 10.92a.83.83 0 0 1-.157-.96L8.51 7.124 5.815 4.017z" clip-rule="evenodd"/></svg>