<svg xmlns="http://www.w3.org/2000/svg" fill="none" viewBox="0 0 24 24"><path fill="#62757E" fill-rule="evenodd" d="M21.755 3.423 9.332 15.847l-.01.02c-.012.013-.029.018-.04.03l-5.859 5.859a.83.83 0 0 1-1.179 0 .833.833 0 0 1 0-1.179l5.222-5.221c-3.57-3.226-5.33-6.831-5.43-8.933-.038-.77.139-1.355.521-1.743l2.781-2.47a.834.834 0 0 1 1.184.078l3.608 4.166c.22.255.266.618.116.92l-1.398 2.793 1.909 1.898 9.82-9.82a.833.833 0 1 1 1.178 1.178m-14.51 7.501a.835.835 0 0 1-.157-.963l1.418-2.836-2.693-3.109-2.092 1.858c-.387.639.734 4.57 4.915 8.312l.942-.942zm4.462 5.977c3.817 3.168 6.118 3.686 6.437 3.37l1.84-2.097-3.107-2.68-2.837 1.419a.83.83 0 0 1-.962-.158l-.806-.807a.832.832 0 1 1 1.177-1.177l.383.382 2.795-1.398a.83.83 0 0 1 .918.115l4.166 3.591a.83.83 0 0 1 .081 1.181l-2.417 2.75c-.406.407-.935.577-1.535.577-2.417 0-5.97-2.766-7.197-3.785a.834.834 0 0 1 1.064-1.283" clip-rule="evenodd"/></svg>