<svg xmlns="http://www.w3.org/2000/svg" fill="none" viewBox="0 0 24 24"><path fill="#62757E" fill-rule="evenodd" d="M19.5 20.667h-15a2.503 2.503 0 0 1-2.5-2.5V9c0-1.378 1.122-2.5 2.5-2.5h2l1.094-2.058A.832.832 0 0 1 8.33 4h7.34c.308 0 .592.17.736.442L17.5 6.5h2C20.878 6.5 22 7.622 22 9v9.167c0 1.378-1.122 2.5-2.5 2.5ZM20.333 9a.835.835 0 0 0-.833-.833H17a.814.814 0 0 1-.382-.104c-.031-.017-.056-.038-.086-.059a.817.817 0 0 1-.224-.233c-.011-.018-.033-.026-.044-.046L15.17 5.667H8.83L7.736 7.725c-.02.036-.051.058-.074.09-.034.047-.065.092-.109.132-.04.036-.085.061-.132.089-.045.027-.088.056-.139.074-.054.02-.111.026-.17.034-.038.005-.072.023-.112.023H4.5A.835.835 0 0 0 3.667 9v9.167c0 .459.374.833.833.833h15c.46 0 .833-.374.833-.833V9ZM12 17.333a4.588 4.588 0 0 1-4.583-4.582A4.588 4.588 0 0 1 12 8.168a4.588 4.588 0 0 1 4.583 4.583A4.588 4.588 0 0 1 12 17.333Zm0-7.499a2.92 2.92 0 0 0-2.917 2.917A2.92 2.92 0 0 0 12 15.667a2.92 2.92 0 0 0 2.917-2.916A2.92 2.92 0 0 0 12 9.834Z" clip-rule="evenodd"/></svg>