<svg xmlns="http://www.w3.org/2000/svg" fill="none" viewBox="0 0 24 24"><path fill="#62757E" fill-rule="evenodd" d="M19.5 20.167h-15a2.503 2.503 0 0 1-2.5-2.5V8.5C2 7.122 3.122 6 4.5 6h2l1.094-2.057A.83.83 0 0 1 8.33 3.5h7.34c.308 0 .592.17.736.442L17.5 6h2C20.878 6 22 7.122 22 8.5v9.167c0 1.378-1.122 2.5-2.5 2.5M20.333 8.5a.835.835 0 0 0-.833-.833H17a.8.8 0 0 1-.382-.104c-.031-.017-.056-.038-.086-.059a.8.8 0 0 1-.224-.233c-.011-.018-.033-.026-.044-.046L15.17 5.167H8.83L7.736 7.225c-.02.036-.051.058-.074.09-.034.047-.065.092-.109.132-.04.036-.085.061-.132.089-.045.027-.088.056-.139.074-.054.02-.111.026-.17.034-.038.005-.072.023-.112.023H4.5a.835.835 0 0 0-.833.833v9.167c0 .459.374.833.833.833h15c.46 0 .833-.374.833-.833zM12 16.833a4.59 4.59 0 0 1-4.583-4.582A4.59 4.59 0 0 1 12 7.668a4.59 4.59 0 0 1 4.583 4.583A4.59 4.59 0 0 1 12 16.833m0-7.499a2.92 2.92 0 0 0-2.917 2.917A2.92 2.92 0 0 0 12 15.167a2.92 2.92 0 0 0 2.917-2.916A2.92 2.92 0 0 0 12 9.334" clip-rule="evenodd"/></svg>