<svg xmlns="http://www.w3.org/2000/svg" fill="none" viewBox="0 0 24 24"><path fill="#62757E" fill-rule="evenodd" d="M19.5 20.667h-15a2.503 2.503 0 0 1-2.5-2.5V9c0-1.378 1.122-2.5 2.5-2.5h2l1.094-2.058A.832.832 0 0 1 8.33 4h7.34c.308 0 .592.17.736.442L17.5 6.5h2C20.878 6.5 22 7.622 22 9v9.167c0 1.378-1.122 2.5-2.5 2.5ZM20.333 9a.835.835 0 0 0-.833-.833H17a.814.814 0 0 1-.382-.104c-.031-.017-.056-.038-.086-.059a.82.82 0 0 1-.223-.232c-.012-.02-.034-.027-.045-.047L15.17 5.667H8.83L7.736 7.725c-.02.035-.051.058-.074.09-.034.047-.065.093-.109.132-.04.036-.085.061-.132.089-.045.027-.088.055-.139.074-.054.02-.111.026-.17.034-.038.005-.072.023-.112.023H4.5A.835.835 0 0 0 3.667 9v9.167c0 .459.374.833.833.833h15c.46 0 .833-.374.833-.833V9Zm-3.337 5.427a.83.83 0 0 1-.593-.25l-.039-.039c-.429 1.373-1.487 2.48-2.956 2.956a4.883 4.883 0 0 1-1.51.24 4.715 4.715 0 0 1-2.912-.998.833.833 0 1 1 1.028-1.312c.803.63 1.878.81 2.88.484a2.92 2.92 0 0 0 1.518-1.117.822.822 0 0 1-.51-.234.833.833 0 0 1 .01-1.179l1.26-1.239a.834.834 0 0 1 1.177.01l1.24 1.26a.833.833 0 0 1-.593 1.418Zm-3.014-3.951a3.107 3.107 0 0 0-2.88-.484 2.92 2.92 0 0 0-1.52 1.118c.187.02.37.09.512.233a.833.833 0 0 1-.01 1.179l-1.26 1.239a.831.831 0 0 1-1.177-.01l-1.24-1.26a.833.833 0 1 1 1.186-1.168l.039.039c.429-1.373 1.487-2.48 2.956-2.956 1.53-.497 3.183-.213 4.422.758a.834.834 0 0 1-1.028 1.312Z" clip-rule="evenodd"/></svg>