<svg xmlns="http://www.w3.org/2000/svg" fill="none" viewBox="0 0 24 24"><path fill="#62757E" fill-rule="evenodd" d="M21.756 3.423 3.423 21.756a.834.834 0 0 1-1.179-1.179l.757-.756A2.492 2.492 0 0 1 2 17.833V8.667c0-1.38 1.122-2.5 2.5-2.5h2l1.094-2.059a.834.834 0 0 1 .736-.441h7.34c.308 0 .592.17.737.441l.8 1.507 3.37-3.371a.834.834 0 0 1 1.18 1.179ZM9.558 13.264l2.873-2.873c-.143-.025-.285-.057-.43-.057a2.503 2.503 0 0 0-2.501 2.5c0 .146.033.287.058.43Zm5.82-7.935H8.663L7.77 7.316l-.008.017-.026.058c-.018.036-.05.058-.073.09-.034.047-.066.094-.11.132-.04.037-.086.062-.132.09-.045.027-.088.055-.138.073-.055.02-.112.026-.17.035-.04.005-.073.022-.112.022H4.5c-.46 0-.876.382-.876.842v9.2c0 .353.26.62.59.732l4.016-4.015a4.163 4.163 0 0 1-.398-1.759A4.171 4.171 0 0 1 12 8.668c.61 0 1.208.14 1.758.396l2.256-2.256-.635-1.48Zm-4.211 10.838c0-.46.373-.834.833-.834 1.379 0 2.5-1.121 2.5-2.5a.832.832 0 1 1 1.667 0A4.171 4.171 0 0 1 12 17a.834.834 0 0 1-.833-.833Zm-2.505 2.545h10.915c.459 0 .84-.377.84-.837v-9.2c0-.204-.16-.41-.298-.563a.834.834 0 0 1 1.241-1.114c.413.46.64 1.053.64 1.67v9.165c0 1.38-1.121 2.5-2.5 2.5H8.667a.834.834 0 0 1-.834-.833c0-.46.369-.788.83-.788Z" clip-rule="evenodd"/></svg>