<svg xmlns="http://www.w3.org/2000/svg" fill="none" viewBox="0 0 24 24"><path fill="#62757E" fill-rule="evenodd" d="M21.756 3.262 3.423 21.595a.833.833 0 1 1-1.179-1.179l.757-.756A2.49 2.49 0 0 1 2 17.672V8.506c0-1.379 1.122-2.5 2.5-2.5h2l1.094-2.058a.83.83 0 0 1 .736-.442h7.34c.308 0 .592.17.737.442l.8 1.506 3.37-3.37a.834.834 0 0 1 1.18 1.178M9.558 13.103l2.873-2.873c-.143-.025-.285-.057-.43-.057a2.503 2.503 0 0 0-2.501 2.5c0 .146.033.287.058.43m5.82-7.935H8.663L7.77 7.155l-.008.017-.026.059c-.018.035-.05.057-.073.09-.034.046-.066.093-.11.131-.04.037-.086.062-.132.09-.045.027-.088.055-.138.074-.055.02-.112.025-.17.034-.04.005-.073.022-.112.022H4.5c-.46 0-.876.383-.876.842v9.2c0 .353.26.62.59.732L8.23 14.43a4.2 4.2 0 0 1-.398-1.758A4.17 4.17 0 0 1 12 8.507c.61 0 1.208.14 1.758.397l2.256-2.257zm-4.211 10.838c0-.46.373-.834.833-.834 1.379 0 2.5-1.12 2.5-2.5a.832.832 0 1 1 1.667 0A4.17 4.17 0 0 1 12 16.84a.834.834 0 0 1-.833-.833M8.662 18.55h10.915c.459 0 .84-.377.84-.836v-9.2c0-.204-.16-.41-.298-.563a.834.834 0 0 1 1.241-1.113c.413.46.64 1.052.64 1.668v9.166c0 1.38-1.121 2.5-2.5 2.5H8.667a.834.834 0 0 1-.834-.833c0-.46.369-.788.83-.788" clip-rule="evenodd"/></svg>