<svg xmlns="http://www.w3.org/2000/svg" fill="none" viewBox="0 0 24 24"><path fill="#0033AD" d="M7.13 11.925a1.46 1.46 0 0 0 1.374 1.541h.08a1.458 1.458 0 1 0-1.457-1.54l.004-.001Zm-5.433-.37a.47.47 0 1 0-.053.94.47.47 0 0 0 .053-.94Zm5.341-8.088a.471.471 0 1 0-.43-.838.471.471 0 0 0 .43.838Zm1.479 2.579a.728.728 0 1 0-.655-1.3.728.728 0 0 0 .655 1.3ZM3.541 7.82A.6.6 0 1 0 4.2 6.816a.6.6 0 0 0-.66 1.004Zm.886 3.47a.728.728 0 1 0-.081 1.455.728.728 0 0 0 .081-1.455Zm-.807 4.893a.6.6 0 1 0 .541 1.07.6.6 0 0 0-.54-1.07Zm2.83-6.397a.857.857 0 1 0 .94-1.433.857.857 0 0 0-.94 1.433Zm8.976-3.798a.729.729 0 1 0 .796-1.22.729.729 0 0 0-.796 1.22Zm1.494-2.57a.471.471 0 1 0 .516-.788.471.471 0 0 0-.517.788Zm-1.38 7.12a1.457 1.457 0 1 0-.167 2.91h.085a1.457 1.457 0 0 0 .082-2.91Zm-6.544-.853a1.451 1.451 0 0 0 1.302.802 1.458 1.458 0 0 0 .763-2.7 1.458 1.458 0 0 0-2.066 1.898Zm11.426-1.868a.6.6 0 1 0-.54-1.07.6.6 0 0 0 .54 1.07Zm-3.695.465a.857.857 0 1 0 .77 1.53.857.857 0 0 0-.77-1.53Zm-4.76-5.084A.6.6 0 1 0 12.035 2a.6.6 0 0 0-.068 1.198Zm-.007 3.774a.857.857 0 1 0 .096-1.71.857.857 0 0 0-.096 1.71Zm-4.642 8.746a.857.857 0 1 0-.772-1.53.857.857 0 0 0 .772 1.53Zm5.196-7.496a1.457 1.457 0 1 0 2.437 1.597 1.457 1.457 0 0 0-2.437-1.597Zm2.533 6.094a1.458 1.458 0 1 0-1.3 2.113 1.458 1.458 0 0 0 1.301-2.113Zm2.547-.102a.856.856 0 1 0-.94 1.432.856.856 0 0 0 .94-1.432Zm2.79-2.189a.728.728 0 1 0-1.453-.082.728.728 0 0 0 1.453.082Zm2.016-.518a.47.47 0 1 0-.054.94.47.47 0 0 0 .054-.94Zm-1.898 4.673a.6.6 0 1 0-.657 1.003.6.6 0 0 0 .657-1.002ZM7.124 20.582a.472.472 0 1 0-.517.788.472.472 0 0 0 .517-.788Zm9.881-.049a.471.471 0 1 0 .424.841.471.471 0 0 0-.424-.841Zm-5.475-4.757a1.458 1.458 0 1 0-2.44-1.598 1.458 1.458 0 0 0 2.44 1.598Zm-2.913 2.236a.728.728 0 1 0-.797 1.22.728.728 0 0 0 .797-1.22Zm3.398 2.79a.598.598 0 1 0-.069 1.195.598.598 0 0 0 .07-1.195Zm.006-3.773a.858.858 0 1 0-.103 1.712.858.858 0 0 0 .104-1.712Zm3.505.925a.73.73 0 1 0 .66 1.301.73.73 0 0 0-.66-1.3Z"/></svg>