<svg xmlns="http://www.w3.org/2000/svg" fill="none" viewBox="0 0 24 24"><path fill="#0033AD" d="M7.131 11.925a1.46 1.46 0 0 0 1.373 1.541h.08a1.458 1.458 0 1 0-1.457-1.54l.004-.001Zm-5.434-.37a.47.47 0 1 0-.053.94.47.47 0 0 0 .053-.94Zm5.342-8.088a.471.471 0 1 0-.431-.838.471.471 0 0 0 .43.838Zm1.478 2.579a.728.728 0 1 0-.655-1.3.728.728 0 0 0 .655 1.3ZM3.541 7.82a.6.6 0 1 0 .66-1.003.6.6 0 0 0-.66 1.002Zm.887 3.47a.728.728 0 1 0-.082 1.455.728.728 0 0 0 .082-1.455Zm-.808 4.893a.6.6 0 1 0 .542 1.07.6.6 0 0 0-.541-1.07Zm2.83-6.397a.857.857 0 1 0 .94-1.433.857.857 0 0 0-.94 1.433Zm8.976-3.798a.729.729 0 1 0 .796-1.22.729.729 0 0 0-.796 1.22Zm1.494-2.57a.471.471 0 1 0 .517-.788.471.471 0 0 0-.517.788Zm-1.38 7.12a1.457 1.457 0 0 0-.167 2.91h.085a1.457 1.457 0 0 0 .083-2.91Zm-6.544-.853a1.451 1.451 0 0 0 1.303.802 1.458 1.458 0 0 0 .762-2.7 1.458 1.458 0 0 0-2.066 1.898Zm11.427-1.868a.6.6 0 1 0-.54-1.07.6.6 0 0 0 .54 1.07Zm-3.696.465a.857.857 0 1 0 .771 1.53.857.857 0 0 0-.771-1.53Zm-4.76-5.084a.6.6 0 1 0 .068-1.197.6.6 0 0 0-.068 1.197Zm-.007 3.774a.857.857 0 1 0 .096-1.712.857.857 0 0 0-.096 1.712Zm-4.642 8.746a.857.857 0 1 0-.772-1.53.857.857 0 0 0 .772 1.53Zm5.196-7.496a1.458 1.458 0 1 0 2.438 1.598 1.458 1.458 0 0 0-2.438-1.598Zm2.534 6.094a1.458 1.458 0 1 0-1.302 2.113 1.458 1.458 0 0 0 1.301-2.113Zm2.546-.102a.857.857 0 1 0-.94 1.432.857.857 0 0 0 .94-1.432Zm2.79-2.189a.728.728 0 1 0-1.453-.082.728.728 0 0 0 1.453.082Zm2.016-.518a.471.471 0 1 0-.054.94.471.471 0 0 0 .055-.94Zm-1.898 4.673a.6.6 0 1 0-.657 1.003.6.6 0 0 0 .657-1.002ZM7.125 20.582a.472.472 0 1 0-.518.788.472.472 0 0 0 .518-.788Zm9.88-.049a.472.472 0 1 0 .425.842.472.472 0 0 0-.425-.842Zm-5.475-4.757a1.457 1.457 0 1 0-2.438-1.598 1.457 1.457 0 0 0 2.438 1.598Zm-2.912 2.236a.728.728 0 1 0-.798 1.22.728.728 0 0 0 .798-1.22Zm3.397 2.79a.599.599 0 1 0-.068 1.195.599.599 0 0 0 .068-1.195Zm.007-3.773a.857.857 0 1 0-.104 1.711.857.857 0 0 0 .104-1.711Zm3.504.925a.729.729 0 1 0 .66 1.3.729.729 0 0 0-.66-1.3Z"/></svg>