<svg xmlns="http://www.w3.org/2000/svg" fill="none" viewBox="0 0 24 24"><path fill="#62757E" d="M12.015 20.801a.6.6 0 0 1 .532.402.6.6 0 0 1-.369.764.6.6 0 1 1-.163-1.166m-4.89-.22a.474.474 0 0 1 .134.654.47.47 0 0 1-.832-.086l.61-.61q.046.016.087.043m10.057-.098a.48.48 0 0 1 .343.113.474.474 0 0 1-.183.812.473.473 0 0 1-.596-.42.473.473 0 0 1 .436-.505M19.399 3.4A.85.85 0 1 1 20.6 4.601l-16 16A.85.85 0 0 1 3.399 19.4l3.59-3.59a.86.86 0 0 1-.908-.96.858.858 0 0 1 1.705.162l4.939-4.938-.066-.066a1.46 1.46 0 0 1 .381-2.27 1.46 1.46 0 0 1 1.588.135q.083.065.155.141zM8.944 18.633a.73.73 0 0 1-.44.659.7.7 0 0 1-.274.054zm6.855-.756a.73.73 0 0 1 .705.396.728.728 0 1 1-.705-.396m-3.778-.848a.857.857 0 1 1-.102 1.712.857.857 0 0 1 .102-1.712m-8.175-.908a.6.6 0 0 1 .58.327.603.603 0 0 1-.375.849.6.6 0 1 1-.205-1.176m16.321-.038a.6.6 0 0 1 .593.477.6.6 0 0 1-.353.674.602.602 0 0 1-.82-.43.6.6 0 0 1 .58-.721m-6.135-2.538a1.46 1.46 0 0 1 1.016.771 1.459 1.459 0 0 1-2.04 1.913 1.46 1.46 0 0 1-.534-.547 1.5 1.5 0 0 1-.154-.425zm3.084.529a.857.857 0 1 1 .016 1.714.857.857 0 0 1-.016-1.714M8.081 10.64a1.46 1.46 0 0 1 1.559.368 1.457 1.457 0 0 1-1.058 2.459h-.079a1.463 1.463 0 0 1-1.373-1.543l-.004.001a1.46 1.46 0 0 1 .955-1.285m8.468.387a1.458 1.458 0 0 1-.3 2.187 1.46 1.46 0 0 1-.792.234h-.085a1.46 1.46 0 0 1-.88-.364zm-12.122.263a.73.73 0 0 1 .686.768.728.728 0 1 1-.686-.768m15.129-.027a.729.729 0 1 1-.337 1.302.73.73 0 0 1-.047-1.124.73.73 0 0 1 .384-.178m-17.86.292a.473.473 0 0 1 .444.497.47.47 0 1 1-.443-.497m20.704-.048a.475.475 0 0 1 .443.498.472.472 0 1 1-.443-.498M10.296 7.574a1.455 1.455 0 0 1 .714 2.727 1.46 1.46 0 0 1-2.015-.617 1.46 1.46 0 0 1 .592-1.925c.217-.12.461-.185.71-.185m-3.217.653a.86.86 0 0 1 .634 1.163.856.856 0 1 1-.634-1.163M3.982 6.73a.602.602 0 0 1 .444.814.6.6 0 0 1-.886.276.6.6 0 0 1-.172-.83.6.6 0 0 1 .614-.26m16.656.205a.599.599 0 0 1-.674.917.6.6 0 0 1-.157-.082l.794-.793q.02-.02.037-.042m-8.912-1.627a.858.858 0 0 1 1.054 1.18.858.858 0 1 1-1.054-1.18m-3.732-.612a.73.73 0 0 1 .768.253.728.728 0 1 1-.768-.253m7.964-.033a.73.73 0 0 1 .541.988.729.729 0 1 1-.54-.988m-9.262-2.07a.473.473 0 0 1 .341.874.476.476 0 0 1-.637-.209.473.473 0 0 1 .296-.665m10.568-.033a.47.47 0 0 1 .374.367.472.472 0 1 1-.374-.367m-5.463-.526a.6.6 0 0 1 .646.166.603.603 0 0 1-.143.916.6.6 0 0 1-.752-.117.6.6 0 0 1 .25-.965"/></svg>