<svg xmlns="http://www.w3.org/2000/svg" fill="none" viewBox="0 0 24 24"><path fill="#62757E" d="M7.13 11.925a1.46 1.46 0 0 0 1.374 1.541h.08a1.458 1.458 0 1 0-1.457-1.54zm-5.433-.37a.47.47 0 1 0-.053.94.47.47 0 0 0 .053-.94m5.341-8.088a.471.471 0 1 0-.43-.838.471.471 0 0 0 .43.838m1.479 2.579a.728.728 0 1 0-.655-1.3.728.728 0 0 0 .655 1.3M3.541 7.82A.6.6 0 1 0 4.2 6.816a.6.6 0 0 0-.66 1.004m.887 3.47a.728.728 0 1 0-.081 1.455.728.728 0 0 0 .081-1.455m-.807 4.893a.6.6 0 1 0 .541 1.07.6.6 0 0 0-.54-1.07M6.45 9.786a.857.857 0 1 0 .94-1.433.857.857 0 0 0-.94 1.433m8.976-3.798a.728.728 0 1 0 .796-1.22.728.728 0 0 0-.796 1.22m1.494-2.57a.471.471 0 1 0 .516-.788.471.471 0 0 0-.517.788m-1.379 7.12a1.457 1.457 0 1 0-.167 2.91h.085a1.457 1.457 0 0 0 .082-2.91m-6.544-.853a1.45 1.45 0 0 0 1.302.802 1.459 1.459 0 0 0 .763-2.7 1.458 1.458 0 0 0-2.066 1.898m11.427-1.867a.6.6 0 1 0-.54-1.072.6.6 0 0 0 .54 1.071m-3.695.465a.857.857 0 1 0 .77 1.53.857.857 0 0 0-.77-1.53m-4.76-5.084a.6.6 0 1 0 .068-1.197.6.6 0 0 0-.068 1.197m-.007 3.774a.857.857 0 1 0 .096-1.71.857.857 0 0 0-.096 1.71m-4.642 8.746a.857.857 0 1 0-.772-1.53.857.857 0 0 0 .772 1.53m5.196-7.496a1.457 1.457 0 1 0 2.438 1.597 1.457 1.457 0 0 0-2.438-1.597m2.533 6.094a1.457 1.457 0 1 0-2.601 1.312 1.457 1.457 0 0 0 2.601-1.312m2.547-.102a.857.857 0 1 0-.94 1.433.857.857 0 0 0 .94-1.433m2.79-2.189a.727.727 0 1 0-1.452-.083.727.727 0 0 0 1.452.083m2.016-.518a.47.47 0 1 0-.054.94.47.47 0 0 0 .054-.94m-1.898 4.673a.6.6 0 1 0-.657 1.003.6.6 0 0 0 .657-1.002M7.124 20.582a.472.472 0 1 0-.517.788.472.472 0 0 0 .517-.788m9.881-.049a.471.471 0 1 0 .424.841.471.471 0 0 0-.424-.841m-5.475-4.757a1.457 1.457 0 1 0-2.438-1.598 1.457 1.457 0 0 0 2.437 1.598m-2.912 2.236a.728.728 0 1 0-.797 1.22.728.728 0 0 0 .797-1.22m3.398 2.79a.599.599 0 1 0-.068 1.195.599.599 0 0 0 .068-1.195m.007-3.773a.857.857 0 1 0-.104 1.71.857.857 0 0 0 .104-1.71m3.504.925a.729.729 0 1 0 .66 1.3.729.729 0 0 0-.66-1.3"/></svg>