<svg xmlns="http://www.w3.org/2000/svg" fill="none" viewBox="0 0 24 24"><path fill="#62757E" fill-rule="evenodd" d="m10.433 4.68 1.855 1.853 3.583-4.298a.834.834 0 0 1 1.28 1.067l-4.167 5a.83.83 0 0 1-.603.299h-.037a.83.83 0 0 1-.59-.244l-2.5-2.499a.833.833 0 0 1 1.18-1.178M2.511 2.213a.8.8 0 1 0 0 1.6h1.16l3.765 7.846-1.46 2.494c-.702 1.2.164 2.709 1.554 2.709h10.996a.8.8 0 1 0 0-1.6H7.53a.2.2 0 0 1-.172-.301l1.296-2.214h7.694a.8.8 0 0 0 .685-.387l4.199-6.946a.8.8 0 1 0-1.37-.828l-3.965 6.56h-6.89a1 1 0 0 0-.089-.096L4.896 2.668a.8.8 0 0 0-.721-.454zM9.54 20a2 2 0 1 1-4 0 2 2 0 0 1 4 0m8.003 2a2 2 0 1 0 0-4 2 2 0 0 0 0 4" clip-rule="evenodd"/></svg>