<svg xmlns="http://www.w3.org/2000/svg" fill="none" viewBox="0 0 24 24"><path fill="#46464A" fill-rule="evenodd" d="m19.964 8.908-2.516 8.333a.832.832 0 0 1-.798.592h-7.8a.818.818 0 0 1-.296-.06c-.032-.012-.059-.03-.089-.046a.828.828 0 0 1-.162-.11.824.824 0 0 1-.23-.342c-.007-.02-.02-.035-.026-.056L4.633 4.66c-.142-.52-.76-.993-1.3-.993h-.5a.833.833 0 1 1 0-1.667h.5c1.292 0 2.57.977 2.908 2.223l.982 3.61h11.944a.833.833 0 0 1 .797 1.075ZM7.675 9.5l1.813 6.667h6.544L18.045 9.5H7.675ZM10 18.667c.92 0 1.667.747 1.667 1.666a1.668 1.668 0 0 1-3.334 0c0-.919.748-1.666 1.667-1.666Zm5.833 0a1.668 1.668 0 0 1 0 3.333 1.669 1.669 0 0 1-1.666-1.667c0-.919.748-1.666 1.666-1.666Z" clip-rule="evenodd"/></svg>