<svg xmlns="http://www.w3.org/2000/svg" fill="none" viewBox="0 0 24 24"><path fill="#62757E" fill-rule="evenodd" d="m21.964 8.908-2.516 8.333a.831.831 0 0 1-.798.592h-7.8a.813.813 0 0 1-.296-.06c-.032-.012-.059-.03-.089-.046a.852.852 0 0 1-.162-.11.847.847 0 0 1-.23-.342c-.007-.02-.02-.035-.026-.056L6.633 4.66c-.142-.52-.76-.993-1.3-.993h-2.5a.834.834 0 0 1 0-1.667h2.5c1.292 0 2.57.977 2.908 2.223l.982 3.61h1.11a.834.834 0 1 1 0 1.667h-.658l1.813 6.667h6.544l2.026-6.714a.833.833 0 0 1 .276-1.62h.833a.833.833 0 0 1 .797 1.075Zm-3.541 2.848a.832.832 0 0 1-1.179 0l-1.91-1.911-1.912 1.91a.831.831 0 0 1-1.178 0 .833.833 0 0 1 0-1.178l1.911-1.91-1.91-1.911a.833.833 0 1 1 1.177-1.179l1.911 1.911 1.911-1.91a.832.832 0 1 1 1.178 1.178l-1.91 1.91 1.91 1.912a.833.833 0 0 1 0 1.178ZM12 18.666a1.668 1.668 0 1 1-1.668 1.667c0-.919.748-1.666 1.668-1.666Zm5.832 0c.92 0 1.667.748 1.667 1.667 0 .92-.748 1.667-1.667 1.667a1.669 1.669 0 0 1-1.666-1.667c0-.919.748-1.666 1.666-1.666Z" clip-rule="evenodd"/></svg>