<svg xmlns="http://www.w3.org/2000/svg" fill="none" viewBox="0 0 24 24"><path fill="#62757E" fill-rule="evenodd" d="m10.722 4.745 1.855 1.853L16.159 2.3a.834.834 0 0 1 1.28 1.067l-4.166 5a.83.83 0 0 1-.603.299h-.037a.83.83 0 0 1-.59-.244l-2.5-2.499a.833.833 0 0 1 1.179-1.178M2.8 2.278a.8.8 0 1 0 0 1.6h1.16l3.765 7.847-1.46 2.493c-.702 1.2.163 2.709 1.554 2.709h10.995a.8.8 0 0 0 0-1.6H7.82a.2.2 0 0 1-.173-.301l1.296-2.214h7.695a.8.8 0 0 0 .685-.386l4.198-6.947a.8.8 0 0 0-1.369-.828l-3.965 6.56h-6.89a1 1 0 0 0-.089-.095L5.184 2.732a.8.8 0 0 0-.72-.454zm7.028 17.787a2 2 0 1 1-4 0 2 2 0 0 1 4 0m8.003 2a2 2 0 1 0 0-4 2 2 0 0 0 0 4" clip-rule="evenodd"/></svg>