<svg xmlns="http://www.w3.org/2000/svg" fill="none" viewBox="0 0 24 24"><path fill="#62757E" fill-rule="evenodd" d="m19.964 8.908-2.515 8.333a.833.833 0 0 1-.799.592H8.852a.815.815 0 0 1-.298-.06c-.032-.012-.059-.03-.089-.046a.848.848 0 0 1-.161-.11.798.798 0 0 1-.18-.234.698.698 0 0 1-.05-.107c-.008-.02-.021-.036-.027-.057L4.634 4.66c-.142-.52-.762-.993-1.3-.993h-.5a.834.834 0 0 1 0-1.667h.5c1.292 0 2.569.977 2.908 2.223l.98 3.61h1.112a.834.834 0 0 1 0 1.667h-.658l1.812 6.667h6.544l2.027-6.714a.833.833 0 0 1 .274-1.62h.834a.832.832 0 0 1 .797 1.075Zm-4.963.593h-3.334a.833.833 0 1 1 0-1.667H15a.834.834 0 0 1 0 1.667Zm-5 9.166a1.667 1.667 0 0 1 0 3.333 1.668 1.668 0 0 1 0-3.333Zm5.833 0c.918 0 1.666.747 1.666 1.666 0 .92-.748 1.667-1.666 1.667-.92 0-1.668-.747-1.668-1.667 0-.919.748-1.666 1.668-1.666Z" clip-rule="evenodd"/></svg>