<svg xmlns="http://www.w3.org/2000/svg" fill="none" viewBox="0 0 24 24"><path fill="#62757E" fill-rule="evenodd" d="m21.965 8.908-2.517 8.333a.833.833 0 0 1-.797.592H10.85a.831.831 0 0 1-.297-.06c-.031-.012-.057-.03-.085-.045a.822.822 0 0 1-.166-.111.875.875 0 0 1-.23-.341c-.006-.02-.02-.036-.025-.058L6.633 4.66c-.142-.52-.761-.993-1.3-.993h-2.5a.833.833 0 1 1 0-1.667h2.5c1.292 0 2.569.977 2.908 2.223l.981 3.61h1.6l3.922-3.922a.834.834 0 0 1 1.178 0l3.923 3.922h1.322a.834.834 0 0 1 .797 1.075Zm-6.631-3.23-2.155 2.155h4.31l-2.155-2.155ZM9.675 9.5l1.813 6.667h6.544L20.044 9.5H9.675Zm2.326 9.167A1.667 1.667 0 0 1 12 22c-.92 0-1.668-.747-1.668-1.667 0-.919.748-1.666 1.668-1.666Zm5.832 0a1.668 1.668 0 0 1 0 3.333 1.669 1.669 0 0 1-1.666-1.667c0-.919.748-1.666 1.666-1.666Z" clip-rule="evenodd"/></svg>