<svg xmlns="http://www.w3.org/2000/svg" fill="none" viewBox="0 0 24 24"><path fill="#62757E" fill-rule="evenodd" d="m21.965 8.908-2.517 8.333a.833.833 0 0 1-.797.592h-7.8a.814.814 0 0 1-.297-.06c-.032-.012-.06-.03-.089-.046a.717.717 0 0 1-.239-.19.772.772 0 0 1-.103-.154.787.787 0 0 1-.05-.107c-.007-.02-.02-.036-.026-.057L6.633 4.66c-.142-.52-.761-.993-1.3-.993h-2.5a.833.833 0 1 1 0-1.667h2.5c1.292 0 2.569.977 2.908 2.223l.981 3.61h1.111a.833.833 0 1 1 0 1.667h-.658l1.813 6.667h6.544l2.026-6.714a.833.833 0 0 1 .275-1.62h.833a.834.834 0 0 1 .799 1.075Zm-4.132.593h-1.665v1.667c0 .46-.373.833-.833.833-.461 0-.804-.374-.804-.834V9.5h-1.698a.834.834 0 0 1 0-1.667h1.698V6.167c0-.46.343-.834.803-.834s.834.374.834.834v1.667h1.665a.833.833 0 1 1 0 1.667Zm-5.832 9.166A1.667 1.667 0 0 1 12 22c-.92 0-1.668-.747-1.668-1.667 0-.919.748-1.666 1.668-1.666Zm5.832 0c.919 0 1.667.747 1.667 1.666 0 .92-.748 1.667-1.667 1.667a1.669 1.669 0 0 1-1.666-1.667c0-.919.748-1.666 1.666-1.666Z" clip-rule="evenodd"/></svg>