<svg xmlns="http://www.w3.org/2000/svg" fill="none" viewBox="0 0 24 24"><path fill="#62757E" fill-rule="evenodd" d="M2.511 2.213a.8.8 0 1 0 0 1.6h1.16l3.765 7.846-1.46 2.494c-.702 1.2.164 2.709 1.554 2.709h10.996a.8.8 0 1 0 0-1.6H7.53a.2.2 0 0 1-.172-.301l1.296-2.214h7.694a.8.8 0 0 0 .685-.387l4.199-6.946a.8.8 0 1 0-1.37-.828l-3.965 6.56h-6.89a1 1 0 0 0-.089-.096L4.896 2.668a.8.8 0 0 0-.721-.454zM9.54 20a2 2 0 1 1-4 0 2 2 0 0 1 4 0m8.003 2a2 2 0 1 0 0-4 2 2 0 0 0 0 4m-5.56-12.532a.84.84 0 0 0 .576.243l.014.002.018-.003a.83.83 0 0 0 .572-.243l2.5-2.497a.834.834 0 0 0-1.18-1.179l-1.077 1.077V3.047a.833.833 0 1 0-1.666 0v3.821l-1.077-1.077A.834.834 0 0 0 9.484 6.97z" clip-rule="evenodd"/></svg>