<svg xmlns="http://www.w3.org/2000/svg" fill="none" viewBox="0 0 24 24"><path fill="#62757E" fill-rule="evenodd" d="M1.711 3.013a.8.8 0 0 1 .8-.8h1.664a.8.8 0 0 1 .72.454l4.023 8.384q.049.045.089.096h6.89l3.965-6.56a.8.8 0 0 1 1.37.827l-4.199 6.946a.8.8 0 0 1-.685.387H8.654L7.358 14.96a.2.2 0 0 0 .172.3h10.996a.8.8 0 0 1 0 1.6H7.53c-1.39 0-2.256-1.508-1.553-2.708l1.459-2.494-3.765-7.846h-1.16a.8.8 0 0 1-.8-.8M7.54 22a2 2 0 1 0 0-4 2 2 0 0 0 0 4m12.003-2a2 2 0 1 1-4 0 2 2 0 0 1 4 0M15.09 5.846h-5a.834.834 0 0 1 0-1.667h5a.833.833 0 1 1 0 1.667" clip-rule="evenodd"/></svg>