<svg xmlns="http://www.w3.org/2000/svg" fill="none" viewBox="0 0 24 24"><path fill="#62757E" fill-rule="evenodd" d="m21.965 8.908-2.517 8.333a.833.833 0 0 1-.797.592h-7.8a.814.814 0 0 1-.297-.06c-.032-.012-.06-.03-.089-.046a.717.717 0 0 1-.239-.19.772.772 0 0 1-.103-.154.787.787 0 0 1-.05-.107c-.007-.02-.02-.036-.026-.057L6.633 4.66c-.142-.52-.761-.993-1.3-.993h-2.5a.833.833 0 1 1 0-1.667h2.5c1.292 0 2.569.977 2.908 2.223l.981 3.61H12A.833.833 0 1 1 12 9.5H9.675l1.813 6.667h6.544L20.044 9.5h-1.377a.834.834 0 0 1 0-1.667h2.5a.834.834 0 0 1 .797 1.075ZM17.833 7a.833.833 0 0 1-.59-.244l-1.076-1.078v4.655a.834.834 0 0 1-1.668 0V5.678l-1.077 1.078a.832.832 0 1 1-1.178-1.179l2.498-2.498a.84.84 0 0 1 .592-.246.852.852 0 0 1 .59.246l2.499 2.498A.833.833 0 0 1 17.833 7Zm-5.832 11.667A1.667 1.667 0 0 1 12 22c-.92 0-1.668-.747-1.668-1.667 0-.919.748-1.666 1.668-1.666Zm5.832 0a1.668 1.668 0 0 1 0 3.333 1.669 1.669 0 0 1-1.666-1.667c0-.919.748-1.666 1.666-1.666Z" clip-rule="evenodd"/></svg>