<svg xmlns="http://www.w3.org/2000/svg" fill="none" viewBox="0 0 24 24"><path fill="#62757E" fill-rule="evenodd" d="m21.964 8.908-2.515 8.333a.833.833 0 0 1-.799.592h-7.8a.81.81 0 0 1-.296-.06c-.032-.012-.059-.03-.089-.046a.846.846 0 0 1-.161-.11.803.803 0 0 1-.18-.233.754.754 0 0 1-.05-.108c-.008-.02-.021-.037-.027-.058L6.634 4.66c-.142-.52-.762-.993-1.3-.993h-2.5a.834.834 0 0 1 0-1.667h2.5c1.292 0 2.569.977 2.908 2.223l.98 3.61H12A.833.833 0 1 1 12 9.5H9.676l1.812 6.667h6.544L20.045 9.5h-1.378a.833.833 0 1 1 0-1.667h2.5a.832.832 0 0 1 .797 1.075Zm-3.542 1.67a.833.833 0 0 1 0 1.178l-2.498 2.499a.831.831 0 0 1-.909.18.823.823 0 0 1-.271-.18l-2.5-2.5a.833.833 0 1 1 1.179-1.178l1.077 1.078V7a.834.834 0 0 1 1.666 0v4.655l1.078-1.077a.832.832 0 0 1 1.178 0Zm-6.42 8.089A1.667 1.667 0 1 1 12 22.001a1.667 1.667 0 0 1 0-3.334Zm5.832 0c.918 0 1.666.747 1.666 1.666 0 .92-.748 1.667-1.666 1.667-.92 0-1.668-.747-1.668-1.667a1.67 1.67 0 0 1 1.668-1.666Z" clip-rule="evenodd"/></svg>