<svg xmlns="http://www.w3.org/2000/svg" fill="none" viewBox="0 0 24 24"><path fill="#FF0012" d="M22.08 12c0-5.523-4.477-10-10-10s-10 4.477-10 10 4.477 10 10 10 10-4.477 10-10"/><mask id="a" width="12" height="14" x="6" y="5" maskUnits="userSpaceOnUse" style="mask-type:alpha"><path fill="#fff" d="M6.08 5.5h11v13h-11z"/></mask><g mask="url(#a)"><path fill="#fff" fill-rule="evenodd" d="M16.445 15.553a.64.64 0 0 0-.621.517l-2.399-.119a.9.9 0 0 0-.023-.393l.871-.517c.117.146.293.24.491.24a.645.645 0 0 0 .636-.654.645.645 0 0 0-.636-.654.645.645 0 0 0-.635.654q.001.16.07.295l-.846.501a.88.88 0 0 0-.8-.524.897.897 0 0 0-.883.91q.001.162.052.306l-1.566.394a.92.92 0 0 0-.25-.587l.283-.403a.6.6 0 0 0 .202.034c.35 0 .635-.292.635-.654a.645.645 0 0 0-.635-.653.645.645 0 0 0-.635.653c0 .237.122.444.306.559l-.26.37a.86.86 0 0 0-.642-.171l-.271-1.587a.904.904 0 0 0 .691-.887.897.897 0 0 0-.883-.91.86.86 0 0 0-.41.104l-.68-1.367a.9.9 0 0 0 .352-.333l.565.154a.645.645 0 0 0 .628.748c.35 0 .635-.293.635-.654a.645.645 0 0 0-.635-.654.64.64 0 0 0-.594.422l-.533-.145a.93.93 0 0 0 .041-.565l1.57-.743a.87.87 0 0 0 .686.337.897.897 0 0 0 .884-.91.9.9 0 0 0-.136-.483l1.006-1.01q.182.122.409.142v.445a.647.647 0 0 0-.567.65c0 .361.285.654.636.654.35 0 .635-.293.635-.654a.647.647 0 0 0-.566-.65v-.445a.9.9 0 0 0 .358-.11l1.101 1.295a.92.92 0 0 0-.18.549c0 .502.395.91.883.91a.897.897 0 0 0 .884-.91 1 1 0 0 0-.053-.307l.343-.2c.117.143.29.234.486.234.35 0 .635-.293.635-.654a.645.645 0 0 0-.635-.654.645.645 0 0 0-.635.654q.002.166.072.302l-.322.187a.867.867 0 0 0-1.385-.219l-1.078-1.267a.9.9 0 0 0 .252-.322l.944.162a.64.64 0 0 0 .62.51c.35 0 .634-.292.634-.653a.645.645 0 0 0-.635-.654c-.35 0-.633.29-.635.65l-.876-.15a1 1 0 0 0 .036-.26.897.897 0 0 0-.883-.909.897.897 0 0 0-.884.91c0 .27.114.51.295.677l-.978.982a.87.87 0 0 0-.596-.308v-.685a.647.647 0 0 0 .566-.65.645.645 0 0 0-.635-.654.645.645 0 0 0-.635.654c0 .337.248.615.566.65v.685a.9.9 0 0 0-.815.906c0 .165.044.32.119.454l-1.533.725a.9.9 0 0 0-.252-.349l.6-1.108a.6.6 0 0 0 .16.022.645.645 0 0 0 .636-.654.645.645 0 0 0-.635-.654.645.645 0 0 0-.635.654c0 .253.14.472.343.58l-.584 1.079a.86.86 0 0 0-.448-.127.897.897 0 0 0-.884.91c0 .502.396.91.884.91a.9.9 0 0 0 .27-.044l.692 1.388a.9.9 0 0 0-.34.547l-.5-.153a.645.645 0 0 0-.615-.814.645.645 0 0 0-.636.654c0 .361.285.654.635.654a.63.63 0 0 0 .567-.36l.533.162-.002.04c0 .32.162.602.405.764l-.342.462a.62.62 0 0 0-.419-.164.645.645 0 0 0-.635.655c0 .36.285.653.635.653s.636-.292.636-.654a.66.66 0 0 0-.122-.383l.37-.5q.166.075.356.076l.055-.002.272 1.596a.91.91 0 0 0-.633.872c0 .502.396.91.884.91.286 0 .539-.14.7-.356l1.28.586a.645.645 0 0 0 .618.802c.35 0 .635-.293.635-.654a.645.645 0 0 0-.635-.654.63.63 0 0 0-.572.372l-1.249-.573a.9.9 0 0 0 .101-.335l1.626-.409a.88.88 0 0 0 .775.472.86.86 0 0 0 .546-.196l.609.54a.7.7 0 0 0-.057.27c0 .362.284.655.635.655.35 0 .635-.293.635-.654a.645.645 0 0 0-.635-.654.63.63 0 0 0-.506.26l-.579-.514a.9.9 0 0 0 .191-.334l2.417.12c.002.359.286.65.635.65s.635-.294.635-.655a.645.645 0 0 0-.635-.654" clip-rule="evenodd"/></g></svg>