<svg xmlns="http://www.w3.org/2000/svg" fill="none" viewBox="0 0 24 24"><path fill="#FF0012" d="M22.08 12c0-5.523-4.477-10-10-10s-10 4.477-10 10 4.477 10 10 10 10-4.477 10-10Z"/><mask id="a" width="12" height="14" x="6" y="5" maskUnits="userSpaceOnUse" style="mask-type:alpha"><path fill="#fff" d="M6.08 5.5h11v13h-11v-13Z"/></mask><g mask="url(#a)"><path fill="#fff" fill-rule="evenodd" d="M16.445 15.553a.64.64 0 0 0-.62.517l-2.4-.119a.935.935 0 0 0-.023-.393l.871-.517a.63.63 0 0 0 .492.24c.35 0 .635-.293.635-.654a.645.645 0 0 0-.635-.654.645.645 0 0 0-.636.654c0 .106.026.206.07.295l-.846.501a.882.882 0 0 0-.8-.524.897.897 0 0 0-.883.91c0 .108.02.21.052.306l-1.565.394a.92.92 0 0 0-.25-.587l.282-.403a.616.616 0 0 0 .202.034.645.645 0 0 0 .636-.654.645.645 0 0 0-.636-.653.645.645 0 0 0-.635.653c0 .237.123.444.306.559l-.26.37a.862.862 0 0 0-.642-.171l-.27-1.587a.904.904 0 0 0 .69-.887.897.897 0 0 0-.883-.91.859.859 0 0 0-.409.104l-.681-1.367a.897.897 0 0 0 .353-.333l.564.154a.645.645 0 0 0 .628.748c.35 0 .635-.293.635-.654a.645.645 0 0 0-.635-.654.636.636 0 0 0-.593.422l-.534-.145a.93.93 0 0 0 .042-.565l1.569-.743c.162.205.41.337.686.337a.897.897 0 0 0 .884-.91.924.924 0 0 0-.136-.483l1.006-1.01c.12.08.259.13.409.142v.445a.647.647 0 0 0-.566.65c0 .361.284.654.635.654.35 0 .635-.293.635-.654a.647.647 0 0 0-.566-.65v-.445c.13-.01.25-.049.358-.11l1.101 1.295a.922.922 0 0 0-.18.549c0 .502.395.91.884.91a.897.897 0 0 0 .883-.91.93.93 0 0 0-.053-.307l.343-.2a.627.627 0 0 0 .486.234c.35 0 .635-.293.635-.654a.645.645 0 0 0-.635-.654.645.645 0 0 0-.635.654c0 .11.026.212.072.302l-.322.187a.867.867 0 0 0-1.385-.219l-1.078-1.267a.907.907 0 0 0 .252-.322l.944.162a.64.64 0 0 0 .62.51c.35 0 .635-.292.635-.653a.645.645 0 0 0-.636-.654c-.35 0-.633.29-.635.65l-.876-.15a.933.933 0 0 0 .037-.26.897.897 0 0 0-.884-.909.897.897 0 0 0-.884.91c0 .27.115.51.296.677l-.978.982a.872.872 0 0 0-.597-.308v-.685a.647.647 0 0 0 .566-.65.645.645 0 0 0-.635-.654.645.645 0 0 0-.635.654c0 .337.248.615.566.65v.685a.899.899 0 0 0-.814.906c0 .165.043.32.118.454l-1.533.725a.911.911 0 0 0-.252-.349l.6-1.108a.618.618 0 0 0 .161.022c.35 0 .635-.293.635-.654a.645.645 0 0 0-.635-.654.645.645 0 0 0-.635.654c0 .253.14.472.344.58l-.584 1.079a.86.86 0 0 0-.449-.127.897.897 0 0 0-.884.91c0 .502.396.91.884.91a.861.861 0 0 0 .27-.044l.692 1.388a.912.912 0 0 0-.34.547l-.5-.153a.645.645 0 0 0-.615-.814.645.645 0 0 0-.636.654c0 .361.285.654.636.654a.633.633 0 0 0 .566-.36l.533.162-.002.04c0 .32.162.602.406.764l-.342.462a.622.622 0 0 0-.42-.164.645.645 0 0 0-.635.655c0 .36.285.653.636.653.35 0 .635-.292.635-.654a.663.663 0 0 0-.122-.383l.37-.5c.11.049.23.076.356.076l.055-.002.273 1.596a.907.907 0 0 0-.633.872c0 .502.395.91.883.91.286 0 .539-.14.7-.356l1.28.586a.645.645 0 0 0 .618.802c.35 0 .635-.293.635-.654a.645.645 0 0 0-.635-.654.633.633 0 0 0-.572.372l-1.248-.573a.92.92 0 0 0 .1-.335l1.626-.409a.88.88 0 0 0 .775.472.864.864 0 0 0 .547-.196l.608.54a.665.665 0 0 0-.057.27c0 .362.284.655.635.655.35 0 .635-.293.635-.654a.645.645 0 0 0-.635-.654.628.628 0 0 0-.506.26l-.579-.514a.913.913 0 0 0 .192-.334l2.416.12c.003.359.286.65.635.65.35 0 .635-.294.635-.655a.645.645 0 0 0-.635-.654Z" clip-rule="evenodd"/></g></svg>