<svg xmlns="http://www.w3.org/2000/svg" fill="none" viewBox="0 0 24 24"><g clip-path="url(#a)"><path fill="#36B0F3" d="M12 24c6.627 0 12-5.373 12-12S18.627 0 12 0 0 5.373 0 12s5.373 12 12 12"/><path fill="#fff" fill-rule="evenodd" d="M10.877 5.123a6.3 6.3 0 0 1 1.422-.12q.447 0 .888.08c.57.078 1.121.26 1.658.464.39.175.8.339 1.117.635.088.065.04.193-.038.244-.181.117-.4.15-.607.196-.934.16-1.885.233-2.802.482-.412.092-.808.244-1.2.4-.727.326-1.396.805-1.88 1.445a10 10 0 0 0-.267.413c-.077.15-.154.299-.217.455q-.07.168-.131.339c-.083.242-.123.494-.184.743-.02.163-.03.327-.065.488-.021.369-.01.738-.008 1.107 0 .123.033.244.035.368q.003.17.048.336c.059.308.13.62.26.907.17.409.433.791.808 1.034.31.231.695.33 1.072.388.504.066 1.015.006 1.51-.084q.39-.07.773-.174c.163-.046.33-.076.49-.13q.092-.016.186-.018a5 5 0 0 1-.63.502c-.774.5-1.674.76-2.571.927-.406.083-.818.132-1.227.203-.465.067-.948.123-1.367.351a1.3 1.3 0 0 0-.31.332c-.026.054-.076 0-.106-.02-.095-.109-.217-.19-.32-.29q-.167-.16-.326-.326c-.17-.2-.346-.395-.496-.609a6.3 6.3 0 0 1-.76-1.308l-.033-.015c-.025-.135-.093-.253-.138-.38a6 6 0 0 1-.258-.856 2 2 0 0 1-.06-.27 1.3 1.3 0 0 1-.056-.317c-.057-.252-.047-.512-.083-.766 0-.212-.014-.426.012-.638.028-.176.016-.355.052-.53.036-.143.029-.292.074-.432q.084-.471.246-.921l.12-.332q.034-.077.058-.157l.03-.037q.057-.165.145-.316.088-.183.19-.359a2 2 0 0 1 .066-.123c.369-.578.8-1.126 1.319-1.579a7.4 7.4 0 0 1 2.183-1.347 7 7 0 0 1 1.378-.385" clip-rule="evenodd"/><path fill="#fff" fill-rule="evenodd" d="M16.233 6.957c.129-.075.217-.197.306-.312a7.03 7.03 0 0 1 2.11 7.538 7 7 0 0 1-1.349 2.395 6.9 6.9 0 0 1-4.265 2.351c-.757.111-1.528.082-2.284-.022a6.6 6.6 0 0 1-1.684-.471c-.293-.13-.584-.28-.813-.509-.059-.052-.096-.137-.057-.212.058-.09.164-.136.263-.168.284-.082.576-.13.868-.175.528-.092 1.062-.151 1.586-.267.87-.188 1.74-.454 2.493-.943a4.3 4.3 0 0 0 1.295-1.262c.476-.72.696-1.582.749-2.436.026-.636.012-1.278-.121-1.902-.121-.54-.334-1.083-.736-1.475a2.12 2.12 0 0 0-1.158-.587c-.717-.135-1.45-.005-2.152.153-.329.078-.653.176-.986.24.473-.445 1.052-.764 1.66-.982.35-.13.713-.216 1.074-.3.792-.179 1.602-.247 2.4-.384.279-.059.562-.115.801-.27" clip-rule="evenodd"/></g><defs><clipPath id="a"><path fill="#fff" d="M0 0h24v24H0z"/></clipPath></defs></svg>