<svg xmlns="http://www.w3.org/2000/svg" fill="none" viewBox="0 0 24 24"><g clip-path="url(#a)"><path fill="#36B0F3" d="M12 24c6.627 0 12-5.373 12-12S18.627 0 12 0 0 5.373 0 12s5.373 12 12 12Z"/><path fill="#fff" fill-rule="evenodd" d="M10.877 5.123a6.334 6.334 0 0 1 1.422-.12c.297 0 .595.026.888.08.57.078 1.121.26 1.658.464.39.175.8.339 1.117.635.088.065.04.193-.038.244-.181.117-.4.15-.607.196-.934.16-1.885.233-2.803.482-.411.092-.807.244-1.198.4-.728.326-1.397.805-1.881 1.445a9.55 9.55 0 0 0-.267.413c-.077.15-.154.299-.217.455a6.97 6.97 0 0 0-.131.339c-.083.242-.123.494-.184.743-.02.163-.03.327-.065.488-.021.369-.01.738-.008 1.107 0 .123.033.244.035.368.002.113.018.226.048.336.059.308.13.62.26.907.17.409.433.791.808 1.034.31.231.695.33 1.072.388.504.066 1.015.006 1.51-.084a9.28 9.28 0 0 0 .773-.174c.163-.046.33-.076.49-.13a1.16 1.16 0 0 1 .186-.018 4.99 4.99 0 0 1-.63.502c-.774.5-1.674.76-2.571.927-.406.083-.818.132-1.227.203-.465.067-.948.123-1.367.351a1.314 1.314 0 0 0-.31.332c-.026.054-.076 0-.106-.02-.095-.109-.217-.19-.32-.29-.111-.107-.22-.216-.326-.326-.17-.2-.346-.395-.496-.609a6.32 6.32 0 0 1-.76-1.308l-.033-.015c-.025-.135-.093-.253-.138-.38a6.209 6.209 0 0 1-.258-.856 2.212 2.212 0 0 1-.06-.27 1.33 1.33 0 0 1-.056-.317c-.057-.252-.047-.512-.083-.766 0-.212-.014-.426.012-.638.028-.176.016-.355.052-.53.036-.143.029-.292.074-.432.056-.313.138-.622.246-.921.042-.11.08-.222.12-.332.023-.051.042-.104.058-.157l.03-.037c.038-.11.087-.216.145-.316.059-.122.122-.242.19-.359a1.92 1.92 0 0 1 .066-.123c.369-.578.8-1.126 1.319-1.579a7.37 7.37 0 0 1 2.183-1.347 6.99 6.99 0 0 1 1.378-.385Z" clip-rule="evenodd"/><path fill="#fff" fill-rule="evenodd" d="M16.233 6.957c.13-.075.218-.197.306-.312a7.03 7.03 0 0 1 2.44 4.808 7.04 7.04 0 0 1-1.678 5.125 6.905 6.905 0 0 1-4.266 2.351c-.757.111-1.528.082-2.284-.022a6.6 6.6 0 0 1-1.684-.471c-.293-.13-.584-.28-.813-.509-.059-.052-.096-.137-.057-.212.059-.09.164-.136.263-.168.284-.082.576-.13.869-.175.528-.092 1.06-.151 1.585-.267.87-.188 1.74-.454 2.494-.943a4.299 4.299 0 0 0 1.294-1.262c.476-.72.697-1.582.75-2.436.026-.636.011-1.278-.122-1.902-.121-.54-.334-1.083-.736-1.475a2.122 2.122 0 0 0-1.158-.587c-.717-.135-1.45-.005-2.152.153-.329.078-.653.176-.985.24.473-.445 1.052-.764 1.66-.982.35-.13.712-.216 1.073-.3.792-.179 1.602-.247 2.4-.384.28-.059.563-.115.801-.27Z" clip-rule="evenodd"/></g><defs><clipPath id="a"><path fill="#fff" d="M0 0h24v24H0z"/></clipPath></defs></svg>