<svg xmlns="http://www.w3.org/2000/svg" fill="none" viewBox="0 0 24 24"><g clip-path="url(#a)"><path fill="#F70808" d="M12 24c6.627 0 12-5.373 12-12S18.627 0 12 0 0 5.373 0 12s5.373 12 12 12"/><path fill="#fff" d="m11.65 5-1.16 2.111c-.132.23-.368.209-.604.08l-.84-.424.625 3.243c.133.593-.29.593-.499.336L7.703 8.745l-.238.813c-.028.107-.149.22-.33.193L5.28 9.37l.486 1.727c.106.384.187.543-.104.644L5 12.045l3.194 2.529a.4.4 0 0 1 .146.423l-.28.895c1.1-.124 2.086-.31 3.186-.424.097-.01.26.146.26.256L11.36 19h.535l-.084-3.269c0-.11.147-.273.244-.263 1.1.115 2.086.3 3.185.424l-.279-.895a.4.4 0 0 1 .146-.423l3.194-2.528-.662-.304c-.291-.101-.21-.26-.105-.644l.487-1.728-1.855.38c-.182.027-.303-.085-.33-.192l-.238-.813-1.468 1.602c-.209.256-.631.256-.499-.336l.627-3.244-.841.425c-.237.128-.473.149-.604-.08z"/></g><defs><clipPath id="a"><path fill="#fff" d="M0 0h24v24H0z"/></clipPath></defs></svg>