<svg xmlns="http://www.w3.org/2000/svg" fill="none" viewBox="0 0 24 24"><g fill="#262761" clip-path="url(#a)"><path d="M17.009 10.284a.485.485 0 1 0 0-.97.485.485 0 0 0 0 .97Z"/><path d="M12.017 2A10 10 0 0 0 2 12.017a10 10 0 0 0 10.017 10.018 10 10 0 0 0 10.018-10.018C22.035 6.471 17.529 2 12.017 2Zm4.541 14.177a6.202 6.202 0 0 1-4.61 2.045 6.253 6.253 0 0 1-4.645-2.08c-1.213-1.352-1.733-3.05-1.56-4.853.312-2.877 2.6-5.164 5.477-5.51.243-.035.485-.035.728-.035 1.386 0 2.704.45 3.813 1.317.07.034.104.138.104.208a.314.314 0 0 1-.104.242l-.659.59a.394.394 0 0 1-.277.104.371.371 0 0 1-.208-.07 4.671 4.671 0 0 0-2.669-.832 4.63 4.63 0 0 0-3.5 1.595 4.584 4.584 0 0 0-1.145 3.674 4.713 4.713 0 0 0 4.125 4.125c.173.034.347.034.555.034a4.669 4.669 0 0 0 3.327-1.386.394.394 0 0 1 .277-.104c.07 0 .14.035.209.07l.727.485c.07.034.104.104.139.207a.757.757 0 0 0-.104.174Zm.45-4.853A1.539 1.539 0 0 1 15.485 9.8c0-.832.693-1.525 1.525-1.525s1.525.693 1.525 1.525-.693 1.525-1.525 1.525Z"/></g><defs><clipPath id="a"><path fill="#fff" d="M2 2h20v20H2z"/></clipPath></defs></svg>