<svg xmlns="http://www.w3.org/2000/svg" fill="none" viewBox="0 0 24 24"><path fill="#62757E" fill-rule="evenodd" d="M17.312 6.85a.835.835 0 0 1-1.163-.204 6 6 0 0 0-.631-.744L9.91 18.224c.81.805 1.754 1.247 2.735 1.247 1.3 0 2.544-.752 3.504-2.117a.835.835 0 0 1 1.366.958c-1.281 1.821-3.01 2.825-4.87 2.825-1.25 0-2.433-.466-3.46-1.32l-.772 1.695a.83.83 0 0 1-1.104.413.83.83 0 0 1-.414-1.103l1.058-2.325c-.032-.043-.067-.081-.098-.125-2.473-3.513-2.473-9.23 0-12.743 1.255-1.783 2.956-2.766 4.79-2.766a5.2 5.2 0 0 1 2.195.502l.398-.876a.834.834 0 1 1 1.52.69l-.506 1.11c.454.394.88.855 1.263 1.399a.834.834 0 0 1-.203 1.161m-4.667-2.32c-1.274 0-2.49.73-3.425 2.058-1.937 2.75-2.065 7.073-.432 10.074l5.35-11.757c-.481-.226-.98-.375-1.493-.376" clip-rule="evenodd"/></svg>