<svg xmlns="http://www.w3.org/2000/svg" fill="none" viewBox="0 0 24 24"><path fill="#000" d="M22.08 12c0-5.523-4.477-10-10-10s-10 4.477-10 10 4.477 10 10 10 10-4.477 10-10"/><path fill="#fff" d="M6.802 15.334a6.24 6.24 0 0 1-.602-2.682c0-3.505 2.884-6.346 6.441-6.346 1.981 0 3.753.881 4.934 2.267l.705-.583a7.39 7.39 0 0 0-5.639-2.59c-4.065 0-7.36 3.247-7.36 7.252 0 1.096.246 2.134.687 3.066z"/><path fill="#fff" d="M12.687 17.37c-2.368 0-4.288-1.979-4.288-4.42s1.92-4.42 4.288-4.42a4.23 4.23 0 0 1 3.285 1.58l.692-.599c-.952-1.168-2.38-1.911-3.977-1.911-2.867 0-5.19 2.395-5.19 5.35s2.323 5.35 5.19 5.35z"/><path fill="#fff" d="M14.455 14.286c-.384.436-.96.714-1.603.714-1.156 0-2.093-.895-2.093-2s.937-2 2.093-2c.643 0 1.219.278 1.603.714l.801-.642A3.2 3.2 0 0 0 12.852 10c-1.734 0-3.14 1.343-3.14 3s1.406 3 3.14 3c.884 0 1.683-.35 2.254-.913z"/></svg>