<svg xmlns="http://www.w3.org/2000/svg" fill="none" viewBox="0 0 24 24"><path fill="#62757E" fill-rule="evenodd" d="M12 22C6.486 22 2 17.513 2 12 2 6.486 6.486 2 12 2s10 4.486 10 10c0 5.513-4.486 10-10 10Zm0-18.333c-4.595 0-8.333 3.738-8.333 8.333 0 4.595 3.738 8.333 8.333 8.333 4.595 0 8.333-3.738 8.333-8.333 0-4.595-3.738-8.333-8.333-8.333Zm2.887 4.569c.099.112.205.212.295.339a.833.833 0 0 1-.203 1.16.821.821 0 0 1-.753.09l-2.248 5.393c.638.222 1.329-.021 1.84-.75a.832.832 0 1 1 1.364.958c-.703 1-1.707 1.574-2.753 1.574-.377 0-.74-.098-1.093-.24l-.234.56a.832.832 0 0 1-1.09.45.832.832 0 0 1-.448-1.09l.39-.934c-.093-.108-.194-.2-.278-.32-1.35-1.922-1.35-4.931 0-6.851.704-1 1.707-1.575 2.752-1.575.37 0 .726.095 1.073.23l.23-.55a.834.834 0 0 1 1.538.64l-.382.916ZM11.04 9.533c-.817 1.163-.922 3.022-.317 4.368l2.136-5.128c-.632-.21-1.313.04-1.819.76Z" clip-rule="evenodd"/></svg>