<svg xmlns="http://www.w3.org/2000/svg" fill="none" viewBox="0 0 24 24"><g clip-path="url(#a)"><path fill="#3089F2" d="M12 24c6.627 0 12-5.372 12-12 0-6.627-5.373-12-12-12S0 5.373 0 12c0 6.628 5.373 12 12 12"/><path fill="#fff" d="M16.377 13.46c-.328.283-.622.534-.913.788-.033.03-.066.08-.066.122-.004.496-.003.991-.003 1.505.748-.316 1.138-1.276.982-2.415m-.9-3.03c.832-.497.93-.669.934-1.653q.002-.117 0-.232c-.037-.905-.656-1.703-1.513-1.895a46 46 0 0 0-2.324-.445c-.396-.067-.8-.125-1.2-.112-.483.016-.877.27-1.24.683.88.164 1.697.333 2.52.467 1.13.184 1.993.75 2.464 1.83.183.42.242.895.358 1.357M8.613 8.09c-.669.415-.999.978-1.009 1.678q-.035 2.835-.005 5.67c.007.916.612 1.7 1.484 1.914.747.182 1.51.294 2.267.44.479.093.953.235 1.448.112.405-.101.765-.271 1.05-.671-.907-.17-1.758-.358-2.619-.486-1.472-.218-2.614-1.522-2.615-3.04q-.003-2.605-.001-5.208zm1.04-.273c-.009.192-.023.335-.023.478q-.003 2.62 0 5.241c.002 1.148.696 1.972 1.798 2.165.797.14 1.59.296 2.385.444q.083.014.167.021c.377.042.39.035.393-.343.004-.579-.016-1.158.012-1.736.008-.171.094-.387.218-.497.63-.562 1.285-1.096 1.931-1.64.176-.148.357-.25.593-.135.25.12.315.329.311.59-.01.657.005 1.315-.015 1.97-.038 1.183-.897 2.348-2 2.722a.73.73 0 0 0-.435.365c-.679 1.206-1.842 1.67-3.09 1.506-1.021-.136-2.035-.352-3.045-.568-1.3-.278-2.26-1.488-2.282-2.937-.028-1.949-.018-3.899.015-5.847.02-1.218.926-2.349 2.074-2.722a.6.6 0 0 0 .306-.253c.77-1.336 2.02-1.878 3.507-1.545.824.184 1.664.305 2.493.474 1.471.3 2.454 1.515 2.474 3.044.005.435.008.87-.016 1.303-.007.138-.067.313-.166.4a63 63 0 0 1-2.15 1.824.54.54 0 0 1-.492.045c-.124-.067-.228-.284-.237-.441-.03-.519.027-1.045-.023-1.561-.101-1.034-.805-1.717-1.866-1.893-.843-.14-1.685-.292-2.527-.437-.09-.015-.182-.022-.31-.037"/></g><defs><clipPath id="a"><path fill="#fff" d="M0 0h24v24H0z"/></clipPath></defs></svg>