<svg xmlns="http://www.w3.org/2000/svg" fill="none" viewBox="0 0 24 24"><path fill="#62757E" fill-rule="evenodd" d="M20.333 3q.188 0 .364.04l-1.38 1.38a1 1 0 0 1-.101.121L4.019 19.738a1 1 0 0 1-.12.1L2.707 21.03A1.67 1.67 0 0 1 2 19.667v-15A1.67 1.67 0 0 1 3.667 3zM3.667 17.686l3.374-3.375H6.1a.8.8 0 0 1 0-1.6h2.541l1.599-1.598H6.1a.8.8 0 0 1 0-1.6h5.74L13.353 8H3.667zM15.02 6.333l1.666-1.666H3.666v1.666zm6.915-2.127-1.602 1.602v.525h-.525L18.14 8h2.192v11.667H6.474l-1.666 1.666h15.525A1.67 1.67 0 0 0 22 19.667v-15q-.001-.241-.065-.461m-5.307 5.307-1.6 1.6H17.5a.8.8 0 1 0 0-1.6zM10.23 15.91l-1.6 1.6h2.139a.8.8 0 0 0 0-1.6zm4.69-2.507a.8.8 0 0 0-1.132 1.131l1.225 1.225-1.225 1.226a.8.8 0 0 0 1.131 1.131l1.225-1.225 1.226 1.225a.8.8 0 1 0 1.131-1.131l-1.225-1.226 1.225-1.225a.8.8 0 0 0-1.131-1.131l-1.226 1.225z" clip-rule="evenodd"/></svg>