<svg xmlns="http://www.w3.org/2000/svg" fill="none" viewBox="0 0 24 24"><g clip-path="url(#a)"><path fill="#000" d="m3.226 8.136-.045.12.021-.01.024-.11Z"/><path fill="#19A6F2" d="M12.278 17.667h.621l-.312-.54-.31.536v.004Zm-.43 1.803c-.2 0-.398-.011-.594-.03l-1.353 2.34a8.726 8.726 0 0 0 1.946.219h3.551l-1.46-2.53h-2.09Z"/><path fill="#18C1F3" d="m18.177 15.301-5.59 1.83.312.54h3.261l-.017-.017 2.534-2.353h-.5Zm-4.239 4.169 1.46 2.53h1.972l.94-2.53h-4.372Zm4.946-1.8h.092l.05-.134-.142.134Z"/><path fill="#17B8F3" d="M11.413 15.097c-1.106-.463-1.896-1.658-1.896-3.057 0-.072 0-.145.006-.215l-.948-1.644-.609 5.146-.015.135.153.055 4.48 1.613-1.17-2.033Z"/><path fill="#18C2F2" d="M8.107 15.517a5.383 5.383 0 0 0 4.17 2.15l.31-.537-4.48-1.613Zm.05 2.75.217 3.017a8.789 8.789 0 0 0 1.527.497l1.353-2.342a6.358 6.358 0 0 1-3.097-1.172Z"/><path fill="#18F2F2" d="M18.177 15.301h-5.752a2.62 2.62 0 0 1-1.012-.204l1.174 2.033 5.59-1.829Zm-8.654-3.48c.022-.402.113-.797.269-1.168l-1.217-.472.948 1.64Zm1.77.229a1.27 1.27 0 0 0 1.276 1.254h4.014l-5.069-1.976a1.257 1.257 0 0 0-.22.722Z"/><path fill="#18D1F4" d="M9.792 10.656a3.31 3.31 0 0 1 .329-.605l-1.546.13 1.217.475Zm8.262.117h-5.496a1.28 1.28 0 0 0-1.044.556l5.07 1.975h2.796l-1.326-2.53Z"/><path fill="#19DEF3" d="M17.37 22h4.065v-2.53h-3.124l-.94 2.53Zm1.66-4.464-.05.134h2.456v-1.297l-.49-.62-1.917 1.783Z"/><path fill="#19A7F3" d="M21.435 16.377V15.3l-.49.455.49.62Z"/><path fill="#19D1F3" d="M2.554 13.073c.066.668.197 1.328.389 1.97l1.118-1.987-1.507.017Z"/><path fill="#02C1E9" d="m5.25 13.79-1.189-.734-1.118 1.988c.279.933.689 1.822 1.218 2.64l2.197-1.287a7.808 7.808 0 0 1-1.107-2.606Z"/><path fill="#18A8F2" d="m3.202 8.246-.021.01a10.539 10.539 0 0 0-.675 4.079l1.555.721-.859-4.81Z"/><path fill="#18F2F2" d="M2.505 12.334c.008.249.024.495.049.742l1.507-.017-1.556-.725Z"/><path fill="#18C2F3" d="m4.061 13.056 1.19.735a8.111 8.111 0 0 1-.151-2.664L3.202 8.246l.859 4.81Z"/><path fill="#18E9F3" d="M7.425 9.767a5.671 5.671 0 0 0-.463 2.272 5.754 5.754 0 0 0 1.004 3.288l.61-5.146-1.15-.414ZM5.1 11.127a7.985 7.985 0 0 1 .483-2.023l-2.38-.858L5.1 11.127Z"/><path fill="#19E0F3" d="M6.358 16.397 4.16 17.684a9.543 9.543 0 0 0 4.212 3.6l-.217-3.017a7.203 7.203 0 0 1-1.798-1.87Z"/><path fill="#19DFF3" d="m18.612 8.776-.3-.26-.268.26h.568Zm.764 4.528h.608l-.2-2.53h-1.73l1.322 2.53Z"/><path fill="#18C3F3" d="m20.027 13.304 1.467-1.177-1.404-1.354h-.307l.2 2.53h.044Zm1.343-4.528V7.003l-1.68.32 1.68 1.453Z"/><path fill="#19E0F4" d="M17.88 4.53 16.422 2h-1.107l-.297 2.53h2.864Zm.939 2.038.478.414-.238-.414h-.24Z"/><path fill="#18F3E8" d="m18.043 8.776.269-.26L16.06 6.57h-.6l1.458 2.208 1.125-.002Z"/><path fill="#19F3E7" d="M21.37 4.53v-.525L18.1 2h-1.68l1.46 2.53h3.49Zm0 2.473v-.435h-2.31l.238.414.393.339 1.68-.318Z"/><path fill="#18CAF2" d="M21.37 2H18.1l3.27 2.005V2Z"/><path fill="#18A7F3" d="M9.397 7.442a5.24 5.24 0 0 0-1.972 2.325l1.15.414.822-2.739Zm-6.195.804 2.381.858c.824-2.144 2.533-3.78 4.622-4.355l.19-.635-7.193 4.132Z"/><path fill="#18C9F3" d="M13.645 6.568h-1.22a5.56 5.56 0 0 0-3.028.874l-.822 2.74 5.07-3.614Zm-3.44-1.815c.453-.125.92-.197 1.39-.215l-1.205-.42-.19.635h.005Z"/><path fill="#18F3E6" d="M10.05 2.185a8.854 8.854 0 0 0-2.176.764l2.522 1.169-.346-1.933Z"/><path fill="#009FDC" d="m10.396 4.118-2.522-1.17C5.79 4 4.124 5.855 3.226 8.136l-.024.11 7.194-4.127Z"/><path fill="#17E6F2" d="M11.596 4.538c.083 0 .167-.008.252-.008h2.063L11.792 2a8.727 8.727 0 0 0-1.742.185l.346 1.932 1.204.42h-.004Z"/><path fill="#18CFF2" d="M15.017 4.53 15.314 2h-3.52l2.118 2.53h1.105Z"/><path fill="#17E7F2" d="M10.12 10.05c.533-.774 1.367-1.274 2.305-1.274h4.494L15.46 6.568h-1.816l-5.07 3.613 1.546-.13Z"/></g><defs><clipPath id="a"><path fill="#fff" d="M2.5 2h18.993v20H2.5z"/></clipPath></defs></svg>