<svg xmlns="http://www.w3.org/2000/svg" fill="none" viewBox="0 0 24 24"><g clip-path="url(#a)"><path fill="#000" d="m3.226 8.136-.045.12.021-.01z"/><path fill="#19A6F2" d="M12.278 17.667h.621l-.312-.54-.31.536zm-.43 1.803q-.3 0-.594-.03l-1.353 2.34a8.7 8.7 0 0 0 1.946.219h3.551l-1.46-2.53z"/><path fill="#18C1F3" d="m18.177 15.301-5.59 1.83.312.54h3.262l-.018-.017 2.534-2.353zm-4.239 4.169 1.46 2.53h1.972l.94-2.53zm4.946-1.8h.092l.05-.134z"/><path fill="#17B8F3" d="M11.413 15.097c-1.106-.463-1.896-1.658-1.896-3.057q-.002-.109.006-.215l-.948-1.644-.609 5.146-.015.135.153.055 4.48 1.613z"/><path fill="#18C2F2" d="M8.107 15.517a5.38 5.38 0 0 0 4.17 2.15l.31-.537zm.05 2.75.217 3.017a9 9 0 0 0 1.527.497l1.353-2.342a6.36 6.36 0 0 1-3.097-1.172"/><path fill="#18F2F2" d="M18.177 15.301h-5.752a2.6 2.6 0 0 1-1.012-.204l1.174 2.033zm-8.654-3.48c.022-.402.113-.797.269-1.168l-1.217-.472zm1.771.229a1.27 1.27 0 0 0 1.275 1.254h4.014l-5.069-1.976a1.26 1.26 0 0 0-.22.722"/><path fill="#18D1F4" d="M9.792 10.656q.133-.32.329-.605l-1.546.13zm8.262.117h-5.496a1.28 1.28 0 0 0-1.044.556l5.07 1.975h2.796z"/><path fill="#19DEF3" d="M17.37 22h4.065v-2.53h-3.124zm1.66-4.464-.05.134h2.456v-1.297l-.49-.62z"/><path fill="#19A7F3" d="M21.435 16.377V15.3l-.49.455z"/><path fill="#19D1F3" d="M2.554 13.073c.066.668.197 1.328.389 1.97l1.118-1.987z"/><path fill="#02C1E9" d="m5.25 13.79-1.189-.734-1.118 1.988c.279.933.689 1.822 1.218 2.64l2.197-1.287a7.8 7.8 0 0 1-1.107-2.606"/><path fill="#18A8F2" d="m3.202 8.246-.021.01a10.5 10.5 0 0 0-.675 4.079l1.555.721z"/><path fill="#18F2F2" d="M2.505 12.334q.012.373.049.742l1.507-.017z"/><path fill="#18C2F3" d="m4.061 13.056 1.19.735a8.1 8.1 0 0 1-.151-2.664L3.202 8.246z"/><path fill="#18E9F3" d="M7.425 9.767a5.7 5.7 0 0 0-.463 2.272 5.75 5.75 0 0 0 1.004 3.288l.61-5.146zM5.1 11.127a8 8 0 0 1 .483-2.023l-2.38-.858z"/><path fill="#19E0F3" d="M6.358 16.397 4.16 17.684a9.54 9.54 0 0 0 4.212 3.6l-.217-3.017a7.2 7.2 0 0 1-1.798-1.87"/><path fill="#19DFF3" d="m18.612 8.776-.3-.26-.268.26zm.764 4.528h.608l-.2-2.53h-1.73z"/><path fill="#18C3F3" d="m20.027 13.304 1.467-1.177-1.404-1.354h-.307l.2 2.53zm1.343-4.528V7.003l-1.68.32z"/><path fill="#19E0F4" d="M17.88 4.53 16.422 2h-1.107l-.297 2.53zm.939 2.038.478.414-.238-.414z"/><path fill="#18F3E8" d="m18.043 8.776.269-.26-2.252-1.945h-.6l1.458 2.207z"/><path fill="#19F3E7" d="M21.37 4.53v-.525L18.1 2h-1.68l1.46 2.53zm0 2.473v-.435h-2.31l.238.414.393.339z"/><path fill="#18CAF2" d="M21.37 2H18.1l3.27 2.005z"/><path fill="#18A7F3" d="M9.397 7.442a5.24 5.24 0 0 0-1.972 2.325l1.15.414zm-6.195.804 2.381.858c.824-2.144 2.533-3.78 4.622-4.355l.19-.635z"/><path fill="#18C9F3" d="M13.645 6.568h-1.22a5.56 5.56 0 0 0-3.028.874l-.822 2.74zm-3.44-1.815c.453-.125.92-.197 1.39-.215l-1.205-.42-.19.635z"/><path fill="#18F3E6" d="M10.05 2.185a9 9 0 0 0-2.176.764l2.522 1.169z"/><path fill="#009FDC" d="m10.396 4.118-2.522-1.17C5.79 4 4.124 5.855 3.226 8.136l-.024.11z"/><path fill="#17E6F2" d="M11.596 4.538c.083 0 .167-.008.252-.008h2.063L11.792 2a8.7 8.7 0 0 0-1.742.185l.346 1.932 1.204.42z"/><path fill="#18CFF2" d="M15.017 4.53 15.314 2h-3.52l2.118 2.53z"/><path fill="#17E7F2" d="M10.12 10.05c.533-.774 1.367-1.274 2.305-1.274h4.494L15.46 6.568h-1.816l-5.07 3.613z"/></g><defs><clipPath id="a"><path fill="#fff" d="M2.5 2h18.993v20H2.5z"/></clipPath></defs></svg>