<svg xmlns="http://www.w3.org/2000/svg" fill="none" viewBox="0 0 24 24"><g clip-path="url(#a)"><path fill="#00ACED" d="M12 24c6.627 0 12-5.373 12-12S18.627 0 12 0 0 5.373 0 12s5.373 12 12 12"/><path fill="#fff" fill-rule="evenodd" d="M6 8.5v2.496l6.06 3.5 3.933-2.274v2.03L18.11 15.5v-7L12.055 12z" clip-rule="evenodd"/><path fill="#fff" fill-rule="evenodd" d="M12.055 5 6 8.5v7l6.055 3.5 6.038-3.5-2.141-1.248-3.897 2.251-3.914-2.251V9.748l3.914-2.251 3.897 2.251 2.14-1.248z" clip-rule="evenodd" opacity=".7"/></g><defs><clipPath id="a"><path fill="#fff" d="M0 0h24v24H0z"/></clipPath></defs></svg>