<svg xmlns="http://www.w3.org/2000/svg" fill="none" viewBox="0 0 24 24"><path fill="#62757E" d="M3.004 18.598c.52 0 .816-.251 1.004-.834l.977-2.779h4.949l.986 2.788c.18.574.475.825 1.013.825.582 0 1.004-.386 1.004-.914 0-.17-.036-.341-.126-.592L8.867 6.415c-.27-.717-.7-1.04-1.399-1.04-.708 0-1.147.332-1.407 1.049L2.126 17.092c-.09.242-.126.44-.126.592 0 .546.403.914 1.004.914m2.492-5.253L7.424 7.67h.053l1.946 5.675zm11.627 5.271c1.228 0 2.43-.663 2.976-1.712h.045v.797c.018.574.386.924.924.924.546 0 .932-.368.932-.977v-5.693c0-1.891-1.461-3.102-3.747-3.102-1.695 0-3.12.682-3.613 1.749-.117.215-.17.43-.17.627 0 .484.35.807.833.807a.89.89 0 0 0 .79-.412c.537-.861 1.156-1.193 2.088-1.193 1.183 0 1.892.628 1.892 1.677v.726l-2.591.152c-2.232.126-3.505 1.139-3.505 2.788 0 1.694 1.3 2.842 3.146 2.842m.53-1.533c-1.032 0-1.722-.538-1.722-1.363 0-.806.654-1.318 1.81-1.398l2.332-.144v.744c0 1.229-1.067 2.16-2.42 2.16"/></svg>