<svg xmlns="http://www.w3.org/2000/svg" fill="none" viewBox="0 0 24 24"><g clip-path="url(#a)"><path fill="#1C98F7" d="M12 24c6.627 0 12-5.373 12-12S18.627 0 12 0 0 5.373 0 12s5.373 12 12 12Z"/><path fill="#fff" fill-rule="evenodd" d="M12.182 16.761c.457-.032.91-.106 1.355-.22a3.703 3.703 0 0 0 1.69.11.413.413 0 0 1 .069-.006c.201 0 .466.117.851.364v-.406a.396.396 0 0 1 .202-.345c.168-.095.324-.204.466-.324.562-.476.879-1.11.879-1.782a2.12 2.12 0 0 0-.103-.654c.17-.317.306-.65.407-.995.326.488.5 1.062.502 1.649 0 .913-.425 1.764-1.16 2.387-.123.104-.252.2-.387.287v.95a.404.404 0 0 1-.643.32 9.772 9.772 0 0 0-.78-.526 1.925 1.925 0 0 0-.24-.122c-.22.033-.446.05-.674.05a4.277 4.277 0 0 1-2.433-.737h-.001Zm-4.853-1.9C6.17 13.88 5.5 12.54 5.5 11.104c0-2.934 2.768-5.278 6.147-5.278 3.38 0 6.148 2.344 6.148 5.278 0 2.934-2.769 5.279-6.148 5.279-.38 0-.755-.03-1.123-.088-.16.038-.796.416-1.713 1.085a.504.504 0 0 1-.803-.4v-1.62a6.029 6.029 0 0 1-.679-.497Zm3.217.434c.028 0 .056.002.084.006.332.056.672.085 1.017.085 2.855 0 5.14-1.936 5.14-4.283 0-2.347-2.285-4.282-5.14-4.282-2.853 0-5.14 1.935-5.14 4.282 0 1.135.534 2.204 1.478 3.003.237.2.498.382.777.54a.497.497 0 0 1 .254.432v.934c.725-.486 1.202-.717 1.53-.717Zm-1.52-3.196a.802.802 0 0 1-.805-.796c0-.44.36-.797.806-.797.445 0 .806.357.806.796 0 .44-.36.797-.806.797Zm2.621 0a.802.802 0 0 1-.806-.796c0-.44.36-.797.806-.797.445 0 .806.357.806.796 0 .44-.36.797-.806.797Zm2.62 0a.802.802 0 0 1-.806-.796c0-.44.36-.797.806-.797a.8.8 0 0 1 .806.796c0 .44-.36.797-.806.797Z" clip-rule="evenodd"/></g><defs><clipPath id="a"><path fill="#fff" d="M0 0h24v24H0z"/></clipPath></defs></svg>