<svg xmlns="http://www.w3.org/2000/svg" fill="none" viewBox="0 0 24 24"><path fill="#62757E" fill-rule="evenodd" d="M3.094 5.345C2.5 6.489 2.5 7.992 2.5 10.997v2.006c0 3.005 0 4.508.594 5.652.5.964 1.287 1.75 2.25 2.25 1.145.595 2.648.595 5.653.595h2.006c3.005 0 4.508 0 5.652-.594a5.3 5.3 0 0 0 2.25-2.25c.595-1.145.595-2.648.595-5.653v-2.006c0-3.005 0-4.508-.594-5.652a5.3 5.3 0 0 0-2.25-2.25C17.51 2.5 16.007 2.5 13.002 2.5h-2.006c-3.005 0-4.508 0-5.652.594a5.3 5.3 0 0 0-2.25 2.25m13.088 4.726c.334-.363.338-.956.009-1.324a.796.796 0 0 0-1.202-.01l-4.186 4.546-1.794-1.933a.796.796 0 0 0-1.202.015c-.328.37-.322.963.013 1.324l2.39 2.576a.795.795 0 0 0 1.191-.002z" clip-rule="evenodd"/></svg>