<svg xmlns="http://www.w3.org/2000/svg" fill="none" viewBox="0 0 24 24"><path fill="#62757E" fill-rule="evenodd" d="M3.094 5.345C2.5 6.489 2.5 7.992 2.5 10.997v2.006c0 3.005 0 4.508.594 5.652.5.964 1.287 1.75 2.25 2.25 1.145.595 2.648.595 5.653.595h2.006c3.005 0 4.508 0 5.652-.594a5.3 5.3 0 0 0 2.25-2.25c.595-1.145.595-2.648.595-5.653v-2.006c0-3.005 0-4.508-.594-5.652a5.3 5.3 0 0 0-2.25-2.25C17.51 2.5 16.007 2.5 13.002 2.5h-2.006c-3.005 0-4.508 0-5.652.594a5.3 5.3 0 0 0-2.25 2.25m4.748 5.815a.842.842 0 1 0 0 1.684h8.316a.842.842 0 1 0 0-1.684z" clip-rule="evenodd"/><rect width="10" height="1.684" x="7" y="11.158" fill="#fff" rx=".842"/></svg>