<svg xmlns="http://www.w3.org/2000/svg" fill="none" viewBox="0 0 24 24"><g clip-path="url(#a)"><path fill="#598182" d="M12 24c6.627 0 12-5.373 12-12S18.627 0 12 0 0 5.373 0 12s5.373 12 12 12Z"/><path fill="#fff" fill-rule="evenodd" d="m9.984 18.585 1.775-2.294c.664.104 1.319.045 1.944-.227.227-.098.429-.25.642-.38.03-.018.058-.041.08-.059l2.151 2.127c-.178.119-.355.248-.544.358-.728.422-1.531.7-2.365.819a7.32 7.32 0 0 1-1.485.056 8.342 8.342 0 0 1-2.198-.4Zm-.676-.264a6.992 6.992 0 0 1-.697-.36 6.267 6.267 0 0 1-2.597-2.904 6.982 6.982 0 0 1-.551-2.002 8.624 8.624 0 0 1-.044-1.615c.087-1.383.507-2.653 1.355-3.771.782-1.032 1.81-1.738 3.026-2.191a6.762 6.762 0 0 1 1.795-.413c.464-.04.933-.08 1.397-.06.287.012.57.04.847.084l-1.8 2.614c-.6.05-1.18.246-1.687.571-.93.591-1.488 1.442-1.75 2.492a5.069 5.069 0 0 0-.151 1.354c.006.24.027.474.062.703l-.215.313c-.174.252.04.585.348.544l.079-.01c.18.51.454.987.833 1.425.235.27.497.497.786.679l-1.011 2.443a.343.343 0 0 0-.025.105Zm5.21-13.087a5.73 5.73 0 0 1 1.747.798c.096.066.184.144.277.216a.937.937 0 0 0 .058.04c-.03.034-.046.056-.067.076-.637.629-1.276 1.255-1.912 1.886-.07.07-.114.081-.199.02a2.995 2.995 0 0 0-.84-.416l.898-2.363.024-.06a.341.341 0 0 0 .014-.197Zm-2.593 7.663-3.327.434 5.535-8.037.031.014-2.138 5.621 3.902-.616-6.229 8.057-.03-.021 2.256-5.452Z" clip-rule="evenodd"/></g><defs><clipPath id="a"><path fill="#fff" d="M0 0h24v24H0z"/></clipPath></defs></svg>