<svg xmlns="http://www.w3.org/2000/svg" fill="none" viewBox="0 0 24 24"><g clip-path="url(#a)"><path fill="#598182" d="M12 24c6.627 0 12-5.372 12-12 0-6.627-5.373-12-12-12S0 5.373 0 12c0 6.628 5.373 12 12 12Z"/><path fill="#fff" fill-rule="evenodd" d="m9.984 18.585 1.775-2.294c.665.104 1.319.045 1.945-.227.226-.098.428-.25.64-.38.031-.018.059-.041.082-.059l2.15 2.127c-.178.119-.355.248-.544.358-.728.422-1.531.7-2.365.819a7.32 7.32 0 0 1-1.485.056 8.342 8.342 0 0 1-2.198-.4Zm-.676-.264a6.992 6.992 0 0 1-.697-.36 6.267 6.267 0 0 1-2.597-2.904 6.982 6.982 0 0 1-.55-2.002 8.626 8.626 0 0 1-.044-1.615c.086-1.383.506-2.653 1.354-3.771.783-1.032 1.81-1.738 3.026-2.191a6.762 6.762 0 0 1 1.795-.413c.464-.04.933-.08 1.398-.06.287.012.569.04.846.084l-1.8 2.614c-.6.05-1.18.246-1.687.571-.93.591-1.488 1.442-1.75 2.492a5.068 5.068 0 0 0-.15 1.354c.006.24.026.474.062.703l-.216.313c-.174.252.04.585.349.544l.078-.01c.18.51.454.987.833 1.425.235.27.498.497.787.679l-1.012 2.443a.343.343 0 0 0-.025.105Zm5.21-13.087a5.732 5.732 0 0 1 1.747.798c.096.066.185.144.277.216l.058.04c-.03.034-.046.056-.066.076-.638.629-1.277 1.255-1.913 1.886-.07.07-.114.081-.198.02a2.997 2.997 0 0 0-.841-.416l.898-2.363.024-.06a.341.341 0 0 0 .014-.197Zm-2.593 7.663-3.327.434 5.535-8.037.031.014-2.138 5.621 3.902-.616L9.7 18.37l-.03-.021 2.256-5.452Z" clip-rule="evenodd"/></g><defs><clipPath id="a"><path fill="#fff" d="M0 0h24v24H0z"/></clipPath></defs></svg>