<svg xmlns="http://www.w3.org/2000/svg" fill="none" viewBox="0 0 24 24"><path fill="#fff" d="M12 17.997a6 6 0 1 0 0-12 6 6 0 0 0 0 12"/><path fill="#F29900" d="M12 6h10.39a11.996 11.996 0 0 0-20.781.001L6.804 15l.005-.001A5.993 5.993 0 0 1 12 6"/><path fill="#FBBC04" d="M12 16.75a4.75 4.75 0 1 0 0-9.5 4.75 4.75 0 0 0 0 9.5"/><path fill="#FDD663" d="M17.196 15.002 12 24A11.997 11.997 0 0 0 22.39 6.002H12l-.002.004a5.993 5.993 0 0 1 5.198 8.996"/><path fill="#FBBC04" d="M6.804 15.002 1.61 6.003A11.997 11.997 0 0 0 12.001 24l5.196-8.998-.004-.004a5.992 5.992 0 0 1-10.389.004"/></svg>