<svg xmlns="http://www.w3.org/2000/svg" fill="none" viewBox="0 0 24 24"><path fill="#202124" d="M22.003 18.382c-.226.402-.47.782-.728 1.14l2.706-1.14h-1.978Z"/><path fill="#fff" d="M11.994 18.002a6 6 0 0 0 5.998-6.003 6 6 0 0 0-5.998-6.002 6 6 0 0 0-5.998 6.002 6 6 0 0 0 5.998 6.002Z"/><path fill="url(#a)" d="M17.2 15.006 12.012 24a11.974 11.974 0 0 0 10.387-5.998 11.992 11.992 0 0 0-.013-12h-10.38l-.008.006A5.988 5.988 0 0 1 17.202 9a5.998 5.998 0 0 1-.001 6.006Z"/><path fill="url(#b)" d="M6.8 15.006 1.61 6.012A11.992 11.992 0 0 0 6 22.401 11.973 11.973 0 0 0 12 24l5.189-8.994v-.01a5.993 5.993 0 0 1-5.192 3.014 5.988 5.988 0 0 1-5.198-3.004Z"/><path fill="#1A73E8" d="M11.994 16.756a4.75 4.75 0 0 0 4.749-4.752 4.75 4.75 0 0 0-4.75-4.751 4.75 4.75 0 0 0-4.748 4.752 4.75 4.75 0 0 0 4.749 4.751Z"/><path fill="url(#c)" d="M11.994 6.002h10.378A11.981 11.981 0 0 0 11.988 0 11.972 11.972 0 0 0 1.61 6.012l5.19 8.994.009.005a5.998 5.998 0 0 1 2.184-8.206 5.987 5.987 0 0 1 3.002-.803Z"/><path fill="#3C4043" d="M7.873 11.254c0-.207.167-.375.374-.375h15.746v7.503H8.247a.375.375 0 0 1-.374-.375v-6.753Z"/><path fill="#fff" d="M12.211 14.415a1.07 1.07 0 0 0 .412-.36.994.994 0 0 0 .166-.568 1.135 1.135 0 0 0-.174-.617 1.22 1.22 0 0 0-.468-.429 1.334 1.334 0 0 0-.628-.155H9.935v4.408h1.669c.23 0 .455-.054.658-.162.2-.104.369-.26.489-.45a1.2 1.2 0 0 0 .183-.651c.004-.232-.07-.46-.212-.644a1.13 1.13 0 0 0-.51-.373Zm-.204 1.627a.685.685 0 0 1-.375.105H10.5v-1.432h1.11a.728.728 0 0 1 .75.713.731.731 0 0 1-.352.614Zm.127-2.224a.692.692 0 0 1-.618.353H10.5v-1.335h1.043a.648.648 0 0 1 .358.1.702.702 0 0 1 .323.565.64.64 0 0 1-.087.316l-.003.001Zm3.664-.197a1.478 1.478 0 0 0-.793-.21 1.394 1.394 0 0 0-.795.235 1.54 1.54 0 0 0-.528.617 1.93 1.93 0 0 0-.185.844c-.005.299.063.594.198.86a1.5 1.5 0 0 0 .552.601 1.5 1.5 0 0 0 .8.219 1.5 1.5 0 0 0 .833-.227c.232-.151.42-.362.546-.61l.014-.026-.48-.239-.013.023c-.206.364-.501.549-.881.549a.996.996 0 0 1-.47-.12.958.958 0 0 1-.37-.357 1.203 1.203 0 0 1-.161-.555h2.406l.006-.021a.642.642 0 0 0 .018-.167 1.886 1.886 0 0 0-.18-.838 1.384 1.384 0 0 0-.517-.578Zm-.8.319a.909.909 0 0 1 .504.13.814.814 0 0 1 .293.319 1 1 0 0 1 .102.35h-1.799a1.1 1.1 0 0 1 .311-.571.824.824 0 0 1 .59-.228Zm3.287 2.311a.38.38 0 0 1-.31-.126c-.06-.077-.091-.2-.091-.367V14.06h.75v-.524h-.75v-.875h-.57v.875h-.537v.524h.537v1.821a1.08 1.08 0 0 0 .063.388.799.799 0 0 0 .188.282.829.829 0 0 0 .28.173.988.988 0 0 0 .357.063c.082.002.163-.005.244-.019a.8.8 0 0 0 .19-.062l.017-.008v-.573l-.043.027a.602.602 0 0 1-.325.1Zm3.279-2.499c-.243-.227-.58-.34-1.003-.34a1.565 1.565 0 0 0-.715.162 1.277 1.277 0 0 0-.507.45l-.014.023.43.329.016-.026a.844.844 0 0 1 .333-.306.993.993 0 0 1 .462-.11.866.866 0 0 1 .59.205.678.678 0 0 1 .232.539v.14a1.512 1.512 0 0 0-.33-.119 2.088 2.088 0 0 0-.522-.062c-.378 0-.695.096-.944.284a.956.956 0 0 0-.378.796c-.003.195.049.386.149.551.102.165.248.297.42.381.192.094.402.142.615.138a1.17 1.17 0 0 0 .611-.162c.15-.087.28-.207.38-.351v.416h.543v-2.007c-.001-.39-.125-.703-.368-.93Zm-1.118 2.52a.718.718 0 0 1-.47-.153.478.478 0 0 1-.183-.394.543.543 0 0 1 .204-.438c.137-.114.345-.17.618-.17.148-.001.295.02.437.06.119.032.232.082.336.147a.939.939 0 0 1-.128.466.989.989 0 0 1-.346.352.888.888 0 0 1-.468.13Z"/><defs><linearGradient id="a" x1="10.744" x2="21.033" y1="23.189" y2="5.38" gradientUnits="userSpaceOnUse"><stop stop-color="#FCC934"/><stop offset="1" stop-color="#FBBC04"/></linearGradient><linearGradient id="b" x1="14.113" x2="-1.07" y1="20.153" y2="11.392" gradientUnits="userSpaceOnUse"><stop stop-color="#1E8E3E"/><stop offset="1" stop-color="#34A853"/></linearGradient><linearGradient id="c" x1="1.854" x2="22.144" y1="7.505" y2="7.505" gradientUnits="userSpaceOnUse"><stop stop-color="#D93025"/><stop offset="1" stop-color="#EA4335"/></linearGradient></defs></svg>