<svg xmlns="http://www.w3.org/2000/svg" fill="none" viewBox="0 0 24 24"><path fill="#202124" d="M22.003 18.382c-.226.402-.47.782-.728 1.14l2.706-1.14h-1.978Z"/><path fill="#fff" d="M11.994 18.001A6 6 0 0 0 17.992 12a6 6 0 0 0-5.998-6.002A6 6 0 0 0 5.996 12a6 6 0 0 0 5.998 6.002Z"/><path fill="url(#a)" d="M17.2 15.006 12.012 24a11.973 11.973 0 0 0 10.387-5.998 11.992 11.992 0 0 0-.013-12h-10.38l-.008.005A5.988 5.988 0 0 1 17.2 9a5.997 5.997 0 0 1 0 6.007Z"/><path fill="url(#b)" d="M6.8 15.006 1.61 6.012A11.992 11.992 0 0 0 6 22.401 11.972 11.972 0 0 0 12 24l5.189-8.994v-.01a5.993 5.993 0 0 1-5.192 3.014 5.987 5.987 0 0 1-5.198-3.004Z"/><path fill="#1A73E8" d="M11.994 16.756a4.75 4.75 0 0 0 4.749-4.752 4.75 4.75 0 0 0-4.75-4.751 4.75 4.75 0 0 0-4.748 4.751 4.75 4.75 0 0 0 4.749 4.752Z"/><path fill="url(#c)" d="M11.994 6.002h10.378A11.982 11.982 0 0 0 11.988 0 11.972 11.972 0 0 0 1.61 6.012l5.19 8.994.009.005a5.997 5.997 0 0 1 2.184-8.206 5.987 5.987 0 0 1 3.002-.803Z"/><path fill="#3C4043" d="M7.873 11.254c0-.207.168-.375.375-.375h15.745v7.503H8.248a.375.375 0 0 1-.375-.375v-6.753Z"/><path fill="#fff" d="M12.211 14.415a1.07 1.07 0 0 0 .412-.36.994.994 0 0 0 .165-.568 1.135 1.135 0 0 0-.173-.617 1.22 1.22 0 0 0-.468-.43 1.335 1.335 0 0 0-.628-.154H9.935v4.408h1.669c.229 0 .455-.055.658-.162.2-.104.368-.26.489-.45a1.2 1.2 0 0 0 .183-.651 1.03 1.03 0 0 0-.212-.644 1.13 1.13 0 0 0-.51-.373Zm-.204 1.627a.686.686 0 0 1-.375.105H10.5v-1.432h1.11a.728.728 0 0 1 .75.713.732.732 0 0 1-.352.614Zm.127-2.224a.692.692 0 0 1-.618.353H10.5v-1.335h1.043a.648.648 0 0 1 .357.099.703.703 0 0 1 .324.566.64.64 0 0 1-.088.316l-.002.001Zm3.664-.197a1.478 1.478 0 0 0-.794-.21 1.393 1.393 0 0 0-.794.235 1.54 1.54 0 0 0-.528.616 1.93 1.93 0 0 0-.186.845c-.004.299.064.594.198.86a1.5 1.5 0 0 0 .553.601 1.5 1.5 0 0 0 .799.219 1.5 1.5 0 0 0 .834-.227 1.59 1.59 0 0 0 .546-.61l.014-.027-.48-.238-.014.023c-.205.364-.5.549-.88.549a.996.996 0 0 1-.47-.12.958.958 0 0 1-.37-.357 1.203 1.203 0 0 1-.162-.555h2.407l.005-.021a.641.641 0 0 0 .02-.167 1.886 1.886 0 0 0-.18-.838 1.383 1.383 0 0 0-.518-.578Zm-.8.319a.909.909 0 0 1 .503.13.814.814 0 0 1 .293.319c.055.11.09.228.103.35h-1.799c.044-.218.153-.418.311-.571a.825.825 0 0 1 .589-.228Zm3.287 2.311a.38.38 0 0 1-.31-.126c-.06-.077-.091-.2-.091-.367V14.06h.75v-.524h-.75v-.875h-.57v.875h-.537v.524h.537v1.821c-.003.132.018.264.063.388a.799.799 0 0 0 .187.282.829.829 0 0 0 .28.173.988.988 0 0 0 .358.063c.081.002.163-.005.243-.019a.8.8 0 0 0 .191-.062l.016-.008v-.573l-.042.027a.602.602 0 0 1-.325.1Zm3.279-2.499c-.244-.227-.581-.34-1.003-.34a1.566 1.566 0 0 0-.715.162 1.278 1.278 0 0 0-.508.45l-.013.023.43.329.016-.026a.843.843 0 0 1 .332-.306.99.99 0 0 1 .463-.11.865.865 0 0 1 .59.205.678.678 0 0 1 .232.538v.141a1.51 1.51 0 0 0-.33-.119 2.092 2.092 0 0 0-.522-.062c-.378 0-.695.095-.944.284a.955.955 0 0 0-.378.796c-.003.194.049.386.149.551.102.165.248.297.42.381.192.094.402.142.615.138a1.191 1.191 0 0 0 .991-.513v.416h.543v-2.007c-.001-.39-.125-.703-.368-.93Zm-1.118 2.52a.718.718 0 0 1-.47-.153.479.479 0 0 1-.183-.394.54.54 0 0 1 .204-.438c.137-.114.345-.17.618-.17.148-.001.295.019.437.06.119.032.232.081.336.147a.938.938 0 0 1-.128.466.987.987 0 0 1-.346.351.888.888 0 0 1-.468.131Z"/><defs><linearGradient id="a" x1="10.744" x2="21.033" y1="23.189" y2="5.38" gradientUnits="userSpaceOnUse"><stop stop-color="#FCC934"/><stop offset="1" stop-color="#FBBC04"/></linearGradient><linearGradient id="b" x1="14.112" x2="-1.07" y1="20.152" y2="11.392" gradientUnits="userSpaceOnUse"><stop stop-color="#1E8E3E"/><stop offset="1" stop-color="#34A853"/></linearGradient><linearGradient id="c" x1="1.854" x2="22.144" y1="7.505" y2="7.505" gradientUnits="userSpaceOnUse"><stop stop-color="#D93025"/><stop offset="1" stop-color="#EA4335"/></linearGradient></defs></svg>