<svg xmlns="http://www.w3.org/2000/svg" fill="none" viewBox="0 0 24 24"><path fill="#202124" d="M22.003 18.382q-.34.603-.728 1.14l2.706-1.14z"/><path fill="#fff" d="M11.994 18.002a6 6 0 0 0 5.998-6.003 6 6 0 0 0-5.998-6.002 6 6 0 0 0-5.998 6.002 6 6 0 0 0 5.998 6.002"/><path fill="url(#a)" d="M17.2 15.006 12.012 24a11.97 11.97 0 0 0 10.387-5.998 11.99 11.99 0 0 0-.013-12h-10.38l-.008.006A5.99 5.99 0 0 1 17.202 9a6 6 0 0 1-.001 6.006"/><path fill="url(#b)" d="M6.8 15.006 1.61 6.012A11.99 11.99 0 0 0 6 22.401 12 12 0 0 0 12 24l5.189-8.994v-.01a5.99 5.99 0 0 1-5.192 3.014 5.99 5.99 0 0 1-5.198-3.004"/><path fill="#1A73E8" d="M11.994 16.756a4.75 4.75 0 0 0 4.749-4.751 4.75 4.75 0 0 0-4.75-4.752 4.75 4.75 0 0 0-4.748 4.752 4.75 4.75 0 0 0 4.749 4.751"/><path fill="url(#c)" d="M11.994 6.002h10.378A11.98 11.98 0 0 0 11.988 0 11.97 11.97 0 0 0 1.61 6.012l5.19 8.994.009.005a6 6 0 0 1 2.184-8.206 6 6 0 0 1 3.002-.803"/><path fill="#3C4043" d="M7.873 11.254c0-.207.167-.375.374-.375h15.746v7.503H8.247a.375.375 0 0 1-.374-.375z"/><path fill="#fff" d="M12.212 14.415a1.1 1.1 0 0 0 .411-.36 1 1 0 0 0 .166-.568 1.14 1.14 0 0 0-.174-.617 1.2 1.2 0 0 0-.468-.429 1.3 1.3 0 0 0-.628-.155H9.935v4.408h1.669c.23 0 .455-.054.658-.162.2-.104.369-.26.489-.45a1.2 1.2 0 0 0 .183-.651c.004-.232-.07-.46-.212-.644a1.13 1.13 0 0 0-.51-.373m-.204 1.627a.7.7 0 0 1-.376.105H10.5v-1.432h1.11a.73.73 0 0 1 .75.713.73.73 0 0 1-.352.614m.127-2.224a.69.69 0 0 1-.618.353H10.5v-1.335h1.043a.65.65 0 0 1 .358.1.7.7 0 0 1 .323.565.64.64 0 0 1-.087.316zm3.663-.196a1.5 1.5 0 0 0-.793-.21 1.4 1.4 0 0 0-.795.235 1.54 1.54 0 0 0-.528.617 1.9 1.9 0 0 0-.185.844c-.005.299.063.594.198.86a1.5 1.5 0 0 0 .552.601 1.5 1.5 0 0 0 .8.219 1.5 1.5 0 0 0 .833-.227c.232-.151.42-.362.547-.61l.013-.026-.48-.239-.013.023q-.31.547-.881.549a1 1 0 0 1-.47-.12.96.96 0 0 1-.37-.357 1.2 1.2 0 0 1-.161-.555h2.406l.006-.021a.6.6 0 0 0 .018-.167 1.9 1.9 0 0 0-.18-.838 1.4 1.4 0 0 0-.517-.578m-.8.319a.9.9 0 0 1 .504.13.8.8 0 0 1 .293.319q.083.166.102.35h-1.799a1.1 1.1 0 0 1 .311-.571.82.82 0 0 1 .59-.228m3.286 2.311a.38.38 0 0 1-.31-.126q-.09-.116-.091-.367V14.06h.75v-.524h-.75v-.875h-.57v.875h-.537v.524h.537v1.821a1.1 1.1 0 0 0 .063.388.8.8 0 0 0 .188.282.8.8 0 0 0 .28.173 1 1 0 0 0 .357.063q.123.002.244-.019a.8.8 0 0 0 .19-.062l.017-.008v-.573l-.043.027a.6.6 0 0 1-.325.1m3.279-2.499q-.366-.342-1.003-.342a1.6 1.6 0 0 0-.715.163 1.3 1.3 0 0 0-.507.45l-.014.023.43.329.016-.026a.84.84 0 0 1 .333-.306 1 1 0 0 1 .462-.11.87.87 0 0 1 .59.205.68.68 0 0 1 .232.539v.14a1.5 1.5 0 0 0-.33-.119 2 2 0 0 0-.522-.062q-.569.001-.944.284a.96.96 0 0 0-.378.796c-.003.195.049.386.149.551.102.165.248.297.42.381.192.094.402.142.615.138a1.17 1.17 0 0 0 .611-.162c.15-.087.28-.207.38-.351v.416h.543v-2.007c-.001-.39-.125-.703-.368-.93m-1.118 2.52a.72.72 0 0 1-.47-.154.48.48 0 0 1-.183-.394.54.54 0 0 1 .204-.438q.207-.17.618-.17.223 0 .437.06.18.049.336.147a.94.94 0 0 1-.128.466 1 1 0 0 1-.346.352.9.9 0 0 1-.468.13"/><defs><linearGradient id="a" x1="10.744" x2="21.033" y1="23.189" y2="5.38" gradientUnits="userSpaceOnUse"><stop stop-color="#FCC934"/><stop offset="1" stop-color="#FBBC04"/></linearGradient><linearGradient id="b" x1="14.113" x2="-1.07" y1="20.153" y2="11.392" gradientUnits="userSpaceOnUse"><stop stop-color="#1E8E3E"/><stop offset="1" stop-color="#34A853"/></linearGradient><linearGradient id="c" x1="1.854" x2="22.144" y1="7.505" y2="7.505" gradientUnits="userSpaceOnUse"><stop stop-color="#D93025"/><stop offset="1" stop-color="#EA4335"/></linearGradient></defs></svg>