<svg xmlns="http://www.w3.org/2000/svg" fill="none" viewBox="0 0 24 24"><path fill="#202124" d="M22.003 18.382q-.34.603-.728 1.14l2.706-1.14z"/><path fill="#fff" d="M11.994 18.002a6 6 0 0 0 5.999-6.003 6 6 0 0 0-5.999-6.002 6 6 0 0 0-5.998 6.002 6 6 0 0 0 5.998 6.002"/><path fill="url(#a)" d="M17.2 15.006 12.012 24a11.97 11.97 0 0 0 10.387-5.998 11.99 11.99 0 0 0-.013-12h-10.38l-.008.005A5.99 5.99 0 0 1 17.202 9a6 6 0 0 1-.001 6.007"/><path fill="url(#b)" d="M6.8 15.006 1.61 6.012A11.99 11.99 0 0 0 6 22.401 12 12 0 0 0 12 24l5.189-8.994v-.01a5.99 5.99 0 0 1-5.192 3.014 5.99 5.99 0 0 1-5.198-3.004"/><path fill="#1A73E8" d="M11.994 16.756a4.75 4.75 0 0 0 4.749-4.751 4.75 4.75 0 0 0-4.75-4.752 4.75 4.75 0 0 0-4.748 4.752 4.75 4.75 0 0 0 4.749 4.751"/><path fill="url(#c)" d="M11.994 6.002h10.378A11.98 11.98 0 0 0 11.988 0 11.97 11.97 0 0 0 1.61 6.012l5.19 8.994.009.005a6 6 0 0 1 2.184-8.206 6 6 0 0 1 3.002-.803"/><path fill="#3C4043" d="M9.935 11.63c0-.354 0-.531.11-.641s.286-.11.64-.11h13.309v7.503h-13.31c-.353 0-.53 0-.64-.11s-.109-.287-.109-.64z"/><path fill="#fff" d="M14.326 12.662a2.4 2.4 0 0 0-1.179-.282H11.81v4.407h1.337a2.4 2.4 0 0 0 1.179-.282c.327-.178.596-.448.775-.776.184-.352.277-.745.27-1.143a2.4 2.4 0 0 0-.27-1.144 1.94 1.94 0 0 0-.775-.78m-1.95.269h.771q.761 0 1.203.435c.294.289.443.7.443 1.22s-.15.93-.443 1.219c-.294.288-.7.435-1.203.435h-.772zm5.765.784a1.47 1.47 0 0 0-.793-.21 1.4 1.4 0 0 0-.794.235c-.227.153-.41.367-.528.617a1.9 1.9 0 0 0-.186.845c-.004.3.064.595.198.861.127.248.318.455.552.6.242.146.518.222.8.218a1.5 1.5 0 0 0 .833-.227 1.6 1.6 0 0 0 .546-.611l.014-.026-.481-.239-.013.023q-.309.549-.88.55a.97.97 0 0 1-.84-.477 1.2 1.2 0 0 1-.162-.557h2.407l.006-.02a.7.7 0 0 0 .019-.167 1.9 1.9 0 0 0-.18-.84 1.4 1.4 0 0 0-.518-.575m-.8.319a.9.9 0 0 1 .504.13.8.8 0 0 1 .293.32q.083.165.102.35h-1.798c.044-.218.152-.418.31-.572a.83.83 0 0 1 .59-.228m4.181-.435-.95 2.483-.931-2.465-.007-.018h-.609l1.256 3.17.007.019h.555l1.275-3.19z"/><defs><linearGradient id="a" x1="10.744" x2="21.033" y1="23.189" y2="5.38" gradientUnits="userSpaceOnUse"><stop stop-color="#FCC934"/><stop offset="1" stop-color="#FBBC04"/></linearGradient><linearGradient id="b" x1="14.113" x2="-1.07" y1="20.153" y2="11.392" gradientUnits="userSpaceOnUse"><stop stop-color="#1E8E3E"/><stop offset="1" stop-color="#34A853"/></linearGradient><linearGradient id="c" x1="1.854" x2="22.144" y1="7.505" y2="7.505" gradientUnits="userSpaceOnUse"><stop stop-color="#D93025"/><stop offset="1" stop-color="#EA4335"/></linearGradient></defs></svg>