<svg xmlns="http://www.w3.org/2000/svg" fill="none" viewBox="0 0 24 24"><path fill="#202124" d="M22.003 18.382c-.226.402-.47.782-.727 1.14l2.706-1.14h-1.979Z"/><path fill="#fff" d="M11.994 18.001A6 6 0 0 0 17.992 12a6 6 0 0 0-5.998-6.002A6 6 0 0 0 5.995 12a6 6 0 0 0 5.999 6.002Z"/><path fill="url(#a)" d="M17.2 15.006 12.011 24a11.971 11.971 0 0 0 10.387-5.998 11.992 11.992 0 0 0-.013-12h-10.38l-.008.006A5.988 5.988 0 0 1 17.2 9a5.996 5.996 0 0 1 0 6.006Z"/><path fill="url(#b)" d="M6.8 15.006 1.61 6.012A11.992 11.992 0 0 0 6 22.401 11.973 11.973 0 0 0 12 24l5.189-8.994v-.01a5.993 5.993 0 0 1-5.192 3.014 5.987 5.987 0 0 1-5.198-3.004Z"/><path fill="#1A73E8" d="M11.994 16.756a4.75 4.75 0 0 0 4.749-4.751 4.75 4.75 0 0 0-4.749-4.752 4.75 4.75 0 0 0-4.749 4.752 4.75 4.75 0 0 0 4.75 4.751Z"/><path fill="url(#c)" d="M11.994 6.002h10.379A11.981 11.981 0 0 0 11.988 0 11.972 11.972 0 0 0 1.61 6.012l5.19 8.994.009.005a5.997 5.997 0 0 1 2.184-8.206 5.987 5.987 0 0 1 3.002-.803Z"/><path fill="#3C4043" d="M9.935 11.63c0-.354 0-.531.11-.641.11-.11.286-.11.64-.11h13.309v7.503h-13.31c-.353 0-.53 0-.64-.11-.11-.11-.11-.287-.11-.64v-6.003Z"/><path fill="#fff" d="M14.325 12.662a2.396 2.396 0 0 0-1.178-.282h-1.338v4.407h1.338a2.4 2.4 0 0 0 1.178-.282 1.93 1.93 0 0 0 .775-.776c.185-.352.278-.745.27-1.143a2.37 2.37 0 0 0-.27-1.144c-.177-.33-.447-.6-.774-.78Zm-1.95.269h.772c.506 0 .908.146 1.203.435.294.289.443.7.443 1.22s-.15.93-.443 1.219c-.294.288-.7.435-1.203.435h-.772v-3.31Zm5.765.784a1.472 1.472 0 0 0-.792-.21 1.394 1.394 0 0 0-.795.235 1.54 1.54 0 0 0-.528.617 1.925 1.925 0 0 0-.185.845c-.005.3.063.595.198.861.126.248.317.455.552.6.241.146.518.222.799.218a1.5 1.5 0 0 0 .834-.227 1.59 1.59 0 0 0 .545-.611l.014-.026-.48-.239-.014.023c-.205.365-.5.55-.88.55a.963.963 0 0 1-.84-.477 1.218 1.218 0 0 1-.161-.557h2.407l.006-.02a.67.67 0 0 0 .018-.167 1.9 1.9 0 0 0-.18-.84 1.383 1.383 0 0 0-.517-.575Zm-.798.319a.91.91 0 0 1 .503.13.81.81 0 0 1 .292.32c.055.109.09.228.103.35h-1.799c.045-.218.153-.418.311-.572a.827.827 0 0 1 .59-.228Zm4.181-.435-.95 2.483-.931-2.465-.007-.018h-.609l1.256 3.17.007.019h.555l1.275-3.19h-.596Z"/><defs><linearGradient id="a" x1="10.744" x2="21.033" y1="23.189" y2="5.38" gradientUnits="userSpaceOnUse"><stop stop-color="#FCC934"/><stop offset="1" stop-color="#FBBC04"/></linearGradient><linearGradient id="b" x1="14.113" x2="-1.07" y1="20.153" y2="11.392" gradientUnits="userSpaceOnUse"><stop stop-color="#1E8E3E"/><stop offset="1" stop-color="#34A853"/></linearGradient><linearGradient id="c" x1="1.854" x2="22.145" y1="7.505" y2="7.505" gradientUnits="userSpaceOnUse"><stop stop-color="#D93025"/><stop offset="1" stop-color="#EA4335"/></linearGradient></defs></svg>