<svg xmlns="http://www.w3.org/2000/svg" fill="none" viewBox="0 0 24 24"><g clip-path="url(#a)"><path fill="url(#b)" d="m12 12 5.196 3L12 24c6.628 0 12-5.372 12-12a11.94 11.94 0 0 0-1.61-6H12z"/><path fill="url(#c)" d="M12 0C7.558 0 3.683 2.415 1.608 6.001L6.804 15 12 12V6h10.39A11.99 11.99 0 0 0 12 0"/><path fill="url(#d)" d="M0 12c0 6.628 5.372 12 12 12l5.196-9L12 12l-5.196 3-5.195-8.999A11.94 11.94 0 0 0 0 12"/><path fill="#fff" d="M18 12a6 6 0 1 1-12 0 6 6 0 0 1 12 0"/><path fill="url(#e)" d="M16.875 12a4.875 4.875 0 1 1-9.75 0 4.875 4.875 0 0 1 9.75 0"/></g><defs><linearGradient id="b" x1="18.026" x2="18" y1="5.975" y2="24" gradientUnits="userSpaceOnUse"><stop stop-color="#afccfb"/><stop offset="1" stop-color="#8bb5f8"/></linearGradient><linearGradient id="c" x1="10.26" x2="11.251" y1=".183" y2="16.309" gradientUnits="userSpaceOnUse"><stop stop-color="#1972e7"/><stop offset="1" stop-color="#1969d5"/></linearGradient><linearGradient id="d" x1="8.598" x2="8.598" y1="6.001" y2="24" gradientUnits="userSpaceOnUse"><stop stop-color="#659cf6"/><stop offset="1" stop-color="#4285f4"/></linearGradient><linearGradient id="e" x1="11.95" x2="12" y1="7.144" y2="16.875" gradientUnits="userSpaceOnUse"><stop stop-color="#3680f0"/><stop offset="1" stop-color="#2678ec"/></linearGradient><clipPath id="a"><path fill="#fff" d="M0 0h24v24H0z"/></clipPath></defs></svg>