<svg xmlns="http://www.w3.org/2000/svg" fill="none" viewBox="0 0 24 24"><path fill="#fff" d="M12 17.997a6 6 0 1 0 0-12 6 6 0 0 0 0 12"/><path fill="url(#a)" d="M12 6h10.39a11.997 11.997 0 0 0-20.781.001L6.804 15l.005-.001A5.993 5.993 0 0 1 12 6"/><path fill="#1A73E8" d="M12 16.75a4.75 4.75 0 1 0 0-9.5 4.75 4.75 0 0 0 0 9.5"/><path fill="url(#b)" d="M17.196 15.002 12 24A11.997 11.997 0 0 0 22.39 6.002H12l-.002.004a5.993 5.993 0 0 1 5.198 8.996"/><path fill="url(#c)" d="M6.804 15.002 1.61 6.003A11.997 11.997 0 0 0 12.001 24l5.196-8.998-.004-.004a5.992 5.992 0 0 1-10.389.004"/><defs><linearGradient id="a" x1="1.609" x2="22.391" y1="7.5" y2="7.5" gradientUnits="userSpaceOnUse"><stop stop-color="#D93025"/><stop offset="1" stop-color="#EA4335"/></linearGradient><linearGradient id="b" x1="10.361" x2="20.752" y1="23.84" y2="5.842" gradientUnits="userSpaceOnUse"><stop stop-color="#FCC934"/><stop offset="1" stop-color="#FBBC04"/></linearGradient><linearGradient id="c" x1="13.299" x2="2.908" y1="23.251" y2="5.253" gradientUnits="userSpaceOnUse"><stop stop-color="#1E8E3E"/><stop offset="1" stop-color="#34A853"/></linearGradient></defs></svg>