<svg xmlns="http://www.w3.org/2000/svg" fill="none" viewBox="0 0 24 24"><g clip-path="url(#a)"><path fill="#0576B4" d="M12 24c6.627 0 12-5.373 12-12S18.627 0 12 0 0 5.373 0 12s5.373 12 12 12"/><path fill="#fff" d="m18.018 13.677-.698-.436 1.52-.018.032-.017v.016l.628-.006-1.065 1.733-.096-.836-4.846 2.674-1.839-2.454-5.153 2.716v-.619l5.313-2.8 1.838 2.455zm-6.656-.596-2.014 1.06v-7.19h2.014zm5.695.317-2.014 1.119V6.95h2.014z"/><path fill="#fff" d="m14.21 14.98-.433.24-1.582-2.113V7.774h2.014zm-5.696-.4L6.5 15.643V8.707h2.014z" opacity=".5"/></g><defs><clipPath id="a"><path fill="#fff" d="M0 0h24v24H0z"/></clipPath></defs></svg>