<svg xmlns="http://www.w3.org/2000/svg" fill="none" viewBox="0 0 24 24"><g clip-path="url(#a)"><path fill="#20C5D3" d="M12 24c6.627 0 12-5.373 12-12S18.627 0 12 0 0 5.373 0 12s5.373 12 12 12"/><path fill="#fff" d="M13.267 6.609v-.062c.124-.053.37-.103.792.01.484.131.858.617 1.03.879l-.002.168c-.008.937-.307 3.253-.823 4.989-.452 1.517-1.437 3.535-1.637 3.938a3 3 0 0 0-.298-.047c.083-.512.447-2.791.675-4.868.243-2.203.262-4.389.262-5.006zm2.03.997v-.008c.181-.004.585.029 1.044.325.446.286.675.83.77 1.123l-.044.173c-.108.422-.912 2.594-1.776 4.231-.734 1.388-1.905 2.923-2.16 3.252a2 2 0 0 0-.298-.117c.238-.481 1.188-2.444 1.631-3.934.522-1.755.823-4.097.832-5.045m.18 5.939c.822-1.56 1.654-3.747 1.791-4.268.181.066.57.24.824.586.217.295.288.695.31.946l-.084.197c-.164.38-1.162 2.132-2.168 3.38-.87 1.08-2.179 2.363-2.492 2.667a2.2 2.2 0 0 0-.342-.252c.295-.38 1.437-1.888 2.16-3.256M8.502 7.768l-.024-.192c.114-.248.366-.662.848-.883.525-.24.934-.174 1.116-.121l.002.041c.014.417.123 2.467.392 4.887.246 2.214.643 4.569.72 5.016a2.4 2.4 0 0 0-.31.077c-.194-.413-1.06-2.289-1.643-4.168-.65-2.097-1.022-4.043-1.1-4.657m2.15-1.162-.003-.096c.192-.172.639-.51 1.197-.51s1.014.338 1.21.511v.098c0 .615-.018 2.792-.26 4.984a107 107 0 0 1-.678 4.88l-.055-.002q-.15 0-.3.016a94 94 0 0 1-.72-5.01 78 78 0 0 1-.39-4.871m1.411 10.071c1.132 0 1.654.687 1.811.949-.857.602-1.555.974-1.802.974-.246 0-.858-.308-1.822-1.005.154-.248.674-.918 1.813-.918m6.441-5.577c.172.111.526.413.493.994-.044.764-1.355 2.279-3.001 3.811a20 20 0 0 1-1.953 1.6q-.105-.163-.239-.306c.32-.31 1.633-1.596 2.51-2.685 1.007-1.25 2.01-3.006 2.19-3.414m-12.932-.15a10 10 0 0 1-.145-.383c0-.226.054-.45.161-.65.24-.434.847-.633 1.088-.697l.001.005.026.09c.175.61.584 2.039 1.66 4.104.962 1.843 2.006 3.117 2.299 3.458a2 2 0 0 0-.224.176 23.7 23.7 0 0 1-2.737-2.797C6.666 13.002 5.95 11.89 5.574 10.95m4.718 6.25a2 2 0 0 0-.21.271 32 32 0 0 1-1.771-1.42c-2.108-1.803-3.262-3.057-3.308-3.849-.035-.604.271-.945.42-1.073.393.936 1.104 2.03 2.118 3.257a24 24 0 0 0 2.751 2.813m-3.411-8.03a7 7 0 0 1-.065-.235c.054-.256.187-.64.513-.876.28-.203.62-.304.964-.288l.004.024c.08.62.454 2.582 1.107 4.69.58 1.87 1.438 3.736 1.648 4.183a2 2 0 0 0-.21.1c-.255-.295-1.314-1.57-2.29-3.44C7.485 11.278 7.08 9.864 6.907 9.26z"/></g><defs><clipPath id="a"><path fill="#fff" d="M0 0h24v24H0z"/></clipPath></defs></svg>