<svg xmlns="http://www.w3.org/2000/svg" fill="none" viewBox="0 0 24 24"><path fill="#697284" fill-rule="evenodd" d="M12 2c-.566 0-1.02.453-1 1l.193 4.626c.015.42.372.752.806.752a.795.795 0 0 0 .807-.751l.193-4.628C13.02 2.453 12.566 2 12 2Zm0 20c-.566 0-1.02-.453-1-1l.193-4.627a.794.794 0 0 1 .806-.75c.435 0 .791.331.807.75L12.999 21c.02.547-.433 1-.999 1ZM2 12c0 .566.453 1.02 1 1l4.626-.193a.794.794 0 0 0 .752-.806.794.794 0 0 0-.751-.807l-4.628-.193C2.453 10.98 2 11.434 2 12Zm20 0c0 .566-.453 1.02-1 1l-4.627-.193a.794.794 0 0 1-.75-.806c0-.435.331-.791.75-.807L21 11.001c.547-.02 1 .433 1 .999ZM4.929 6.342c-.4-.372-.4-1.013 0-1.413.4-.4 1.041-.4 1.413 0l3.135 3.409a.794.794 0 0 1-.039 1.101.794.794 0 0 1-1.101.04L4.929 6.341Zm12.729 12.73c.372.4 1.013.4 1.413 0 .4-.401.4-1.042 0-1.414l-3.409-3.135a.795.795 0 0 0-1.101.039.794.794 0 0 0-.04 1.101l3.137 3.408Zm-12.73 0c.401.4 1.042.4 1.414 0l3.136-3.409a.794.794 0 0 0-.039-1.101.795.795 0 0 0-1.101-.04l-3.409 3.136c-.4.372-.4 1.013 0 1.413ZM19.072 4.928c.4.4.4 1.041 0 1.413l-3.408 3.136a.794.794 0 0 1-1.101-.039.794.794 0 0 1-.04-1.101l3.136-3.409c.372-.4 1.013-.4 1.413 0ZM12 14a2 2 0 1 0 0-4 2 2 0 0 0 0 4Z" clip-rule="evenodd"/></svg>