<svg xmlns="http://www.w3.org/2000/svg" fill="none" viewBox="0 0 24 24"><path fill="#697284" fill-rule="evenodd" d="M7.332 20.851a9.983 9.983 0 0 1-2.406-1.777c-3.904-3.904-3.9-10.235.006-14.142 3.907-3.906 10.238-3.91 14.142-.006 3.904 3.904 3.9 10.235-.006 14.142a10.008 10.008 0 0 1-10.83 2.203 7.868 7.868 0 0 1-.906-.42ZM4.022 9.346a8.386 8.386 0 0 1 2.035-3.29c3.286-3.285 8.61-3.287 11.893-.006 3.281 3.282 3.28 8.607-.007 11.893a8.417 8.417 0 0 1-9.867 1.502C6.171 18.4 4.88 16.417 4.568 14.304c-.346-2.345.521-4.798 3.097-6.263 1.82-1.033 4.165-1.138 5.967-.401 1.755.718 2.936 2.192 2.703 4.406v.001c-.26 2.512-2.148 3.676-3.97 3.655-.916-.01-1.77-.324-2.365-.883-.578-.543-.967-1.366-.893-2.53a.795.795 0 0 0-1.588-.1c-.101 1.609.448 2.903 1.392 3.79.929.871 2.184 1.3 3.437 1.314 2.52.028 5.212-1.635 5.57-5.082.319-3.035-1.392-5.106-3.684-6.043-2.246-.919-5.103-.789-7.354.49-1.27.722-2.212 1.65-2.859 2.688Z" clip-rule="evenodd"/><path fill="#697284" fill-rule="evenodd" d="M10.615 10.732a1.507 1.507 0 1 0 0 3.015 1.507 1.507 0 0 0 0-3.015ZM7.518 12.24a3.098 3.098 0 1 1 6.195 0 3.098 3.098 0 0 1-6.195 0Z" clip-rule="evenodd"/></svg>