<svg xmlns="http://www.w3.org/2000/svg" fill="none" viewBox="0 0 24 24"><path fill="#697284" fill-rule="evenodd" d="M6.057 6.057a8.403 8.403 0 0 0 8.466 13.964.795.795 0 1 1 .478 1.517 9.993 9.993 0 0 1-10.075-2.464c-3.904-3.904-3.9-10.235.006-14.142 3.907-3.906 10.238-3.91 14.142-.006a9.993 9.993 0 0 1 2.468 10.063.795.795 0 1 1-1.518-.475A8.403 8.403 0 0 0 17.95 6.05c-3.282-3.281-8.607-3.28-11.893.007Z" clip-rule="evenodd"/><path fill="#697284" fill-rule="evenodd" d="M13.632 7.64c-1.802-.737-4.147-.632-5.967.4-2.576 1.466-3.443 3.919-3.097 6.264.35 2.38 1.946 4.597 4.262 5.491a.795.795 0 0 1-.573 1.484c-2.906-1.122-4.838-3.856-5.263-6.743-.43-2.923.678-6.055 3.885-7.878 2.251-1.278 5.11-1.409 7.355-.49 2.292.937 4.003 3.008 3.684 6.044-.358 3.446-3.05 5.109-5.57 5.08-1.252-.013-2.508-.442-3.437-1.313-.944-.887-1.493-2.181-1.392-3.79a.795.795 0 1 1 1.588.1c-.074 1.164.315 1.987.893 2.53.595.559 1.449.873 2.366.883 1.82.02 3.71-1.143 3.97-3.655v-.001c.233-2.214-.949-3.688-2.704-4.406Z" clip-rule="evenodd"/><path fill="#697284" fill-rule="evenodd" d="M10.616 10.732a1.507 1.507 0 1 0 0 3.015 1.507 1.507 0 0 0 0-3.014ZM7.518 12.24a3.098 3.098 0 1 1 6.195 0 3.098 3.098 0 0 1-6.195 0Zm7.457 6.172c0-.419.34-.758.758-.758h5.352a.758.758 0 0 1 0 1.516h-5.352a.758.758 0 0 1-.758-.758Z" clip-rule="evenodd"/><path fill="#697284" fill-rule="evenodd" d="M18.409 21.846a.758.758 0 0 1-.758-.758v-5.352a.758.758 0 0 1 1.516 0v5.352c0 .419-.34.758-.758.758Z" clip-rule="evenodd"/></svg>