<svg xmlns="http://www.w3.org/2000/svg" fill="none" viewBox="0 0 24 24"><path fill="#666D89" fill-rule="evenodd" d="M11 3c-.02-.547.434-1 1-1 .566 0 1.02.453 1 1l-.194 4.627a.794.794 0 0 1-.807.75.794.794 0 0 1-.806-.75l-.192-4.628Zm0 18c-.02.547.434 1 1 1 .566 0 1.02-.453 1-1l-.194-4.627a.794.794 0 0 0-.807-.75.794.794 0 0 0-.806.75l-.192 4.628Zm-8-8c-.547.02-1-.434-1-1 0-.566.453-1.02 1-1l4.627.194a.794.794 0 0 1 .75.807.794.794 0 0 1-.75.806l-4.628.192Zm18 0c.547.02 1-.434 1-1 0-.566-.453-1.02-1-1l-4.627.194a.794.794 0 0 0-.75.807c0 .434.331.79.75.806l4.628.192ZM4.93 6.341c-.4-.372-.4-1.013 0-1.413.4-.4 1.041-.4 1.413 0l3.135 3.409a.794.794 0 0 1-.039 1.101.794.794 0 0 1-1.101.04L4.929 6.341Zm1.413 12.73c-.372.4-1.013.4-1.413 0-.4-.401-.4-1.042 0-1.414l3.409-3.135a.795.795 0 0 1 1.101.039.794.794 0 0 1 .04 1.101L6.343 19.07Zm12.73-12.73c.4-.372.4-1.013 0-1.413-.401-.4-1.042-.4-1.414 0l-3.135 3.409a.794.794 0 0 0 .039 1.101.794.794 0 0 0 1.101.04l3.408-3.137ZM14 12a2 2 0 1 1-4 0 2 2 0 0 1 4 0Zm4.25 10a3.734 3.734 0 0 1-3.75-3.75 3.734 3.734 0 0 1 3.75-3.75A3.734 3.734 0 0 1 22 18.25 3.734 3.734 0 0 1 18.25 22Zm1.918-3.002c.082-.25.166-.499.166-.748a2.063 2.063 0 0 0-2.084-2.083c-.25 0-.5.083-.75.166L20.167 19v-.002ZM16.334 17.5c-.084.25-.167.5-.167.75 0 1.167.916 2.083 2.083 2.083.25 0 .5-.083.75-.166L16.334 17.5Z" clip-rule="evenodd"/></svg>