<svg xmlns="http://www.w3.org/2000/svg" fill="none" viewBox="0 0 24 24"><path fill="#62757E" fill-rule="evenodd" d="M10.508 3.113a1.431 1.431 0 0 0-1.429 1.37h5.841a1.431 1.431 0 0 0-1.429-1.37H10.51Zm-2.717.058A3.043 3.043 0 0 1 10.508 1.5h2.983c1.188 0 2.216.68 2.717 1.671.484.042.966.09 1.446.146.38.044.733.159 1.049.33l1.34-1.341a.85.85 0 0 1 1.203 1.202L3.378 21.376a.85.85 0 1 1-1.202-1.202l1.56-1.561V6.29c0-1.49 1.089-2.796 2.61-2.973.48-.055.962-.104 1.445-.146ZM5.35 17 17.433 4.916a47.043 47.043 0 0 0-.923-.097 1.553 1.553 0 0 1-1.528 1.277H9.017A1.553 1.553 0 0 1 7.49 4.819c-.32.03-.639.064-.957.1-.668.078-1.182.659-1.182 1.371V17Zm13.3-8.511 1.613-1.614v12.582a3.044 3.044 0 0 1-3.044 3.044H6.78a3.03 3.03 0 0 1-1.654-.488l1.199-1.2a1.4 1.4 0 0 0 .455.075h10.44c.79 0 1.43-.64 1.43-1.43V8.486Z" clip-rule="evenodd"/></svg>