<svg xmlns="http://www.w3.org/2000/svg" fill="none" viewBox="0 0 24 24"><path fill="#62757E" fill-rule="evenodd" d="M19.167 22H5.833A.833.833 0 0 1 5 21.167V4.5c0-.46.373-.833.833-.833h2.5v-.834c0-.46.374-.833.834-.833h6.666c.46 0 .834.373.834.833v.834h2.5c.46 0 .833.372.833.833v16.667c0 .46-.373.833-.833.833ZM15 3.667h-5v.416c0 .227.228.417.5.417h4c.272 0 .5-.19.5-.417v-.416Zm3.333 1.666h-2.11a2.186 2.186 0 0 1-1.723.834h-4c-.705 0-1.327-.33-1.723-.834h-2.11v15h11.666v-15Zm-7.744 7.745 1.078 1.077 2.744-2.744a.834.834 0 0 1 1.178 1.178l-3.333 3.333a.831.831 0 0 1-1.178 0L9.41 14.256a.832.832 0 1 1 1.178-1.178Z" clip-rule="evenodd"/></svg>