<svg xmlns="http://www.w3.org/2000/svg" fill="none" viewBox="0 0 24 24"><path fill="#62757E" fill-rule="evenodd" d="M19.167 22H5.833A.833.833 0 0 1 5 21.167V5.333c0-.46.373-.833.833-.833H8.96c.379-.49.9-.848 1.505-1.01C10.76 2.627 11.557 2 12.5 2c.943 0 1.74.626 2.036 1.49a2.82 2.82 0 0 1 1.505 1.01h3.126c.46 0 .833.372.833.833v15.834c0 .46-.373.833-.833.833ZM12.5 3.667c-.276 0-.5.249-.5.556 0 .46-.373.833-.833.833-.6 0-1.095.487-1.16 1.11h4.986c-.065-.623-.56-1.11-1.16-1.11A.833.833 0 0 1 13 4.223c0-.307-.224-.556-.5-.556Zm5.833 2.5h-1.68c.002.046.014.09.014.138V7c0 .46-.374.833-.834.833H9.167A.833.833 0 0 1 8.333 7v-.695c0-.047.012-.092.014-.138h-1.68v14.166h11.666V6.167Z" clip-rule="evenodd"/></svg>