<svg xmlns="http://www.w3.org/2000/svg" fill="none" viewBox="0 0 24 24"><g clip-path="url(#a)"><path fill="#FF3A00" d="M12 24c6.627 0 12-5.373 12-12S18.627 0 12 0 0 5.373 0 12s5.373 12 12 12"/><path fill="#fff" d="M12.002 5c3.86.006 7 3.147 6.998 7.002C18.999 15.86 15.858 19 11.998 19h-.007C8.135 18.996 4.998 15.852 5 11.991 5.002 8.137 8.144 5 12.002 5M12 5.902c-3.358 0-6.091 2.735-6.093 6.097a6.1 6.1 0 0 0 6.085 6.094c3.362 0 6.1-2.734 6.102-6.094A6.05 6.05 0 0 0 16.31 7.69a6.05 6.05 0 0 0-4.308-1.789zm3.009 5.472c.216 1.094-.062 2.013-.848 2.811l-.108.11-.138-.068a4 4 0 0 0-.231-.105l-.311-.13.25-.225c.49-.439.75-1.012.775-1.703s-.22-1.294-.727-1.791a2.395 2.395 0 0 0-3.469.136 2.34 2.34 0 0 0-.56 2.038c.087.499.336.955.709 1.299l.246.228-.311.125q-.117.046-.247.102l-.133.056-.102-.104a2.97 2.97 0 0 1-.867-1.899c-.125-1.555.883-2.926 2.4-3.258a3.054 3.054 0 0 1 3.672 2.379m-6.844 4.003a5.1 5.1 0 0 1-1.02-4.979 5.111 5.111 0 0 1 9.691-.057c.602 1.764.184 3.77-1.065 5.11l-.16.17-.57-.638.125-.142a4.17 4.17 0 0 0 1.08-3.1c-.062-1.076-.49-2.013-1.272-2.784a4.2 4.2 0 0 0-2.97-1.215 4.26 4.26 0 0 0-2.782 1.034 4.2 4.2 0 0 0-1.278 1.933 4.2 4.2 0 0 0-.077 2.307c.158.652.47 1.257.91 1.763l.125.145-.583.627z"/></g><defs><clipPath id="a"><path fill="#fff" d="M0 0h24v24H0z"/></clipPath></defs></svg>