<svg xmlns="http://www.w3.org/2000/svg" fill="none" viewBox="0 0 24 24"><path fill="#62757E" fill-rule="evenodd" d="M12 3.633a8.367 8.367 0 1 0 0 16.734 8.367 8.367 0 0 0 0-16.734M2 12C2 6.477 6.477 2 12 2s10 4.477 10 10-4.477 10-10 10S2 17.523 2 12m6.362-3.638a.816.816 0 0 1 1.154 0L12 10.845l2.484-2.483a.816.816 0 0 1 1.155 1.154L13.155 12l2.484 2.484a.816.816 0 0 1-1.155 1.155L12 13.155l-2.484 2.484a.816.816 0 1 1-1.154-1.155L10.845 12 8.362 9.516a.816.816 0 0 1 0-1.154" clip-rule="evenodd"/></svg>