<svg xmlns="http://www.w3.org/2000/svg" fill="none" viewBox="0 0 24 24"><path fill="#62757E" fill-rule="evenodd" d="M21.167 14a.833.833 0 0 1-.834-.833c0-2.166-1.781-3.864-4.055-3.864q-.11 0-.22.013a.84.84 0 0 1-.877-.551 4.67 4.67 0 0 0-4.403-3.098c-2.573 0-4.666 2.072-4.666 4.62 0 .214.018.43.056.661a.83.83 0 0 1-.564.925 2.8 2.8 0 0 0-1.937 2.658c0 1.545 1.27 2.802 2.833 2.802h3.833a.834.834 0 0 1 0 1.667H6.5C4.02 19 2 16.995 2 14.53c0-1.7.962-3.225 2.45-3.977a6 6 0 0 1-.005-.266C4.445 6.821 7.285 4 10.778 4a6.35 6.35 0 0 1 5.741 3.64C19.612 7.76 22 10.144 22 13.168c0 .46-.373.833-.833.833m-5 1.666h1.32l-.243-.244a.832.832 0 1 1 1.178-1.178l1.667 1.667a.833.833 0 0 1 0 1.178l-1.666 1.667a.83.83 0 0 1-1.179 0 .83.83 0 0 1 0-1.178l.245-.245h-1.322a2.504 2.504 0 0 0-2.5 2.5.833.833 0 1 1-1.667 0 4.17 4.17 0 0 1 4.167-4.167" clip-rule="evenodd"/></svg>