<svg xmlns="http://www.w3.org/2000/svg" fill="none" viewBox="0 0 24 24"><path fill="#62757E" fill-rule="evenodd" d="M17.12 16.99a.832.832 0 0 1-.945-.704.833.833 0 0 1 .704-.944c1.97-.288 3.454-2.018 3.454-4.024 0-2.215-1.82-4.015-4.055-4.015-.074 0-.147.005-.22.013a.832.832 0 0 1-.877-.551 4.67 4.67 0 0 0-4.403-3.098c-2.573 0-4.666 2.072-4.666 4.62 0 .214.018.43.055.661a.832.832 0 0 1-.563.925 2.798 2.798 0 0 0-1.937 2.657c0 1.546 1.27 2.803 2.833 2.803H7A.833.833 0 1 1 7 17h-.5C4.02 17 2 14.995 2 12.53c0-1.7.962-3.225 2.45-3.978a5.597 5.597 0 0 1-.005-.264C4.445 4.82 7.285 2 10.777 2a6.347 6.347 0 0 1 5.742 3.64C19.563 5.769 22 8.266 22 11.319c0 2.827-2.098 5.266-4.88 5.673ZM9.5 8.668h5c.46 0 .833.372.833.833v11.667c0 .46-.373.833-.833.833h-5a.834.834 0 0 1-.833-.833V9.5c0-.46.373-.833.833-.833Zm.833 11.666h3.334v-10h-3.334v10Zm.834-2.5h1.666V19.5h-1.666v-1.667Zm0-4.166h1.666v1.666h-1.666v-1.666Zm0-2.5h1.666v1.666h-1.666v-1.666Z" clip-rule="evenodd"/></svg>