<svg xmlns="http://www.w3.org/2000/svg" fill="none" viewBox="0 0 24 24"><path fill="#62757E" fill-rule="evenodd" d="M21.457 12.276a.85.85 0 0 1-1.094-.481c-.588-1.514-2.105-2.492-3.865-2.492-.075 0-.149.004-.222.013a.853.853 0 0 1-.892-.551c-.665-1.853-2.462-3.098-4.47-3.098-2.614 0-4.74 2.072-4.74 4.62 0 .214.02.43.058.661a.833.833 0 0 1-.572.925c-1.177.38-1.968 1.449-1.968 2.658 0 1.545 1.29 2.802 2.878 2.802H13a.84.84 0 0 1 .847.834.84.84 0 0 1-.846.833H6.57C4.05 19 2 16.995 2 14.53c0-1.7.976-3.225 2.489-3.977a4.7 4.7 0 0 1-.007-.266C4.482 6.821 7.367 4 10.914 4c2.514 0 4.784 1.44 5.83 3.64 2.362.09 4.387 1.468 5.2 3.56a.83.83 0 0 1-.487 1.076Zm-5.633 5.89 3.882-3.825.04-.04c.394-.387 1.029-.461 1.422-.074a.978.978 0 0 1 0 1.4l-.04.04-3.88 3.825h-.002l-1.77.341.347-1.668.002.002Z" clip-rule="evenodd"/></svg>