<svg xmlns="http://www.w3.org/2000/svg" fill="none" viewBox="0 0 24 24"><path fill="#62757E" fill-rule="evenodd" d="M17.912 17.167a.833.833 0 1 1 0-1.667c1.38 0 2.421-1.433 2.421-3.333 0-2.167-1.781-3.864-4.055-3.864q-.11 0-.22.013a.834.834 0 0 1-.877-.551 4.67 4.67 0 0 0-4.403-3.098c-2.573 0-4.666 2.073-4.666 4.621 0 .213.018.429.056.66a.83.83 0 0 1-.564.925 2.8 2.8 0 0 0-1.937 2.658c0 1.713 2.039 1.969 3.255 1.969a.833.833 0 1 1 0 1.667C3.84 17.167 2 15.807 2 13.53a4.46 4.46 0 0 1 2.45-3.98 6 6 0 0 1-.005-.263C4.445 5.821 7.285 3 10.778 3a6.35 6.35 0 0 1 5.741 3.64C19.612 6.759 22 9.144 22 12.168c0 2.85-1.758 5-4.088 5M8.25 18q.245.002.473.045l.009-4.213c0-.37.246-.696.601-.8l5.77-1.666c.038-.011.076-.004.114-.01.04-.005.075-.023.116-.023.018 0 .032.009.05.01a1 1 0 0 1 .162.033c.053.014.103.025.15.048s.084.054.126.084c.045.034.089.065.127.106.033.037.056.08.083.123.03.05.06.098.08.155.006.016.018.027.023.044.012.039.004.077.01.117.005.039.023.074.023.114v5.896a.8.8 0 0 1-.077.341c.045.138.077.281.077.432 0 .933-.915 1.664-2.084 1.664-1.168 0-2.083-.73-2.083-1.664 0-.936.915-1.67 2.083-1.67q.216 0 .417.033v-3.886l-4.167 1.354v5.002c0 .933-.915 1.664-2.083 1.664s-2.083-.73-2.083-1.664c0-.936.915-1.669 2.083-1.669" clip-rule="evenodd"/></svg>