<svg xmlns="http://www.w3.org/2000/svg" fill="none" viewBox="0 0 24 24"><path fill="#62757E" fill-rule="evenodd" d="M21.167 14a.833.833 0 0 1-.834-.833c0-2.166-1.781-3.864-4.055-3.864-.074 0-.147.004-.22.013a.84.84 0 0 1-.877-.551 4.67 4.67 0 0 0-4.403-3.098c-2.573 0-4.666 2.072-4.666 4.62 0 .214.018.43.055.661a.832.832 0 0 1-.563.925 2.798 2.798 0 0 0-1.937 2.658c0 1.545 1.27 2.802 2.833 2.802h3A.834.834 0 0 1 9.5 19h-3C4.02 19 2 16.995 2 14.53c0-1.7.962-3.225 2.45-3.977a5.683 5.683 0 0 1-.005-.266C4.445 6.821 7.285 4 10.777 4a6.347 6.347 0 0 1 5.742 3.64C19.612 7.76 22 10.144 22 13.168c0 .46-.373.833-.833.833Zm-7.702 2.79 1.527 1.775 3.05-3.45a.834.834 0 0 1 1.249 1.104l-3.683 4.166a.832.832 0 0 1-.625.282h-.005a.833.833 0 0 1-.626-.29l-2.15-2.5a.833.833 0 1 1 1.263-1.087Z" clip-rule="evenodd"/></svg>