<svg xmlns="http://www.w3.org/2000/svg" fill="none" viewBox="0 0 24 24"><path fill="#62757E" fill-rule="evenodd" d="M21.167 15a.833.833 0 0 1-.834-.833c0-2.167-1.781-3.864-4.055-3.864l-.22.013a.84.84 0 0 1-.877-.551 4.67 4.67 0 0 0-4.403-3.098c-2.573 0-4.666 2.072-4.666 4.62 0 .214.018.429.055.661a.83.83 0 0 1-.563.925 2.8 2.8 0 0 0-1.937 2.658c0 1.545 1.27 2.802 2.833 2.802h6.333a.833.833 0 1 1 0 1.667H6.5C4.02 20 2 17.995 2 15.53c0-1.7.962-3.225 2.45-3.978a6 6 0 0 1-.005-.264C4.445 7.82 7.285 5 10.778 5a6.35 6.35 0 0 1 5.741 3.64C19.612 8.76 22 11.144 22 14.168c0 .46-.373.833-.833.833m-5 1.667h5a.833.833 0 1 1 0 1.666h-5a.834.834 0 0 1 0-1.666" clip-rule="evenodd"/></svg>