<svg xmlns="http://www.w3.org/2000/svg" fill="none" viewBox="0 0 24 24"><path fill="#62757E" fill-rule="evenodd" d="M21.853 13.604a.834.834 0 0 1-1.624-.375c.07-.299.104-.606.104-.91 0-2.216-1.82-4.016-4.055-4.016q-.11 0-.22.013a.84.84 0 0 1-.877-.551 4.67 4.67 0 0 0-4.403-3.098c-2.573 0-4.666 2.072-4.666 4.62 0 .214.018.43.056.661a.83.83 0 0 1-.564.925 2.8 2.8 0 0 0-1.937 2.658c0 1.545 1.27 2.802 2.833 2.802h3A.833.833 0 1 1 9.5 18h-3C4.02 18 2 15.995 2 13.53c0-1.7.962-3.225 2.45-3.978a6 6 0 0 1-.005-.264C4.445 5.82 7.285 3 10.778 3a6.35 6.35 0 0 1 5.741 3.64C19.563 6.768 22 9.267 22 12.319c0 .431-.05.864-.147 1.286M12.447 16.9c.16-1.66 1.755-3.067 3.58-3.067.45 0 .888.088 1.298.263a.833.833 0 1 1-.65 1.534 1.7 1.7 0 0 0-.648-.13c-.875 0-1.709.622-1.901 1.352.312-.16.7-.12.963.142a.83.83 0 0 1 0 1.178l-1.25 1.25a.83.83 0 0 1-1.178 0l-1.25-1.25a.83.83 0 0 1 0-1.178.82.82 0 0 1 1.037-.094m3.21 2.636q.31.13.651.13c.875 0 1.707-.621 1.9-1.351a.82.82 0 0 1-.964-.143.83.83 0 0 1 0-1.178l1.25-1.25a.83.83 0 0 1 1.178 0l1.25 1.25a.832.832 0 0 1-.589 1.423.83.83 0 0 1-.447-.15c-.16 1.66-1.753 3.066-3.578 3.066a3.3 3.3 0 0 1-1.299-.261.833.833 0 0 1 .649-1.536" clip-rule="evenodd"/></svg>