<svg xmlns="http://www.w3.org/2000/svg" fill="none" viewBox="0 0 24 24"><path fill="#62757E" fill-rule="evenodd" d="M21.853 14.603a.833.833 0 1 1-1.624-.374c.07-.299.104-.606.104-.91 0-2.215-1.82-4.017-4.055-4.017q-.11 0-.22.014a.84.84 0 0 1-.877-.551 4.67 4.67 0 0 0-4.403-3.098c-2.573 0-4.666 2.073-4.666 4.62 0 .214.018.429.055.661a.83.83 0 0 1-.563.925 2.8 2.8 0 0 0-1.937 2.658c0 1.545 1.27 2.802 2.833 2.802h7.167a.833.833 0 1 1 0 1.667H6.5C4.02 19 2 16.995 2 14.53c0-1.7.962-3.225 2.45-3.978a6 6 0 0 1-.005-.264C4.445 6.82 7.285 4 10.778 4a6.35 6.35 0 0 1 5.741 3.64C19.563 7.768 22 10.267 22 13.319c0 .431-.05.864-.147 1.285m-4.02-1.436c.46 0 .834.373.834.833v3.333a.833.833 0 1 1-1.667 0V14c0-.46.373-.833.833-.833m.592 6.075c.15.158.242.375.242.591a.88.88 0 0 1-.242.592.843.843 0 0 1-1.183 0 .88.88 0 0 1-.242-.592c0-.216.092-.433.242-.591.308-.309.866-.309 1.183 0" clip-rule="evenodd"/></svg>