<svg xmlns="http://www.w3.org/2000/svg" fill="none" viewBox="0 0 24 24"><path fill="#62757E" fill-rule="evenodd" d="M17.833 17.939a.843.843 0 0 1-.833-.854c0-.472.373-.853.833-.853 1.156 0 2.5-1.611 2.5-3.687 0-2.269-1.82-4.113-4.055-4.113a2 2 0 0 0-.22.013.84.84 0 0 1-.877-.565c-.655-1.898-2.425-3.173-4.403-3.173-2.573 0-4.666 2.124-4.666 4.734 0 .217.018.439.056.676a.856.856 0 0 1-.564.949 2.86 2.86 0 0 0-1.937 2.721c0 1.587 1.288 2.445 2.5 2.445.46 0 .833.381.833.853a.843.843 0 0 1-.833.854C4.118 17.939 2 16.386 2 13.787c0-1.742.962-3.304 2.45-4.075a6 6 0 0 1-.005-.27C4.445 5.888 7.285 3 10.778 3c2.475 0 4.712 1.475 5.741 3.729C19.563 6.859 22 9.418 22 12.545c0 2.874-1.947 5.394-4.167 5.394M10.09 16.48l1.078 1.104v-5.623c0-.47.373-.853.833-.853s.833.383.833.854v5.622l1.078-1.104a.82.82 0 0 1 1.178 0 .87.87 0 0 1 0 1.208l-2.499 2.56a.823.823 0 0 1-1.18 0l-2.5-2.56a.87.87 0 0 1 0-1.208.82.82 0 0 1 1.18 0" clip-rule="evenodd"/></svg>