<svg xmlns="http://www.w3.org/2000/svg" fill="none" viewBox="0 0 24 24"><path fill="#62757E" fill-rule="evenodd" d="M22 15.667v1.665h-.952a3.3 3.3 0 0 1-.354.85l.674.673-1.177 1.18-.676-.674a3.3 3.3 0 0 1-.848.353v.953L17 20.665v-.95a3.3 3.3 0 0 1-.85-.355l-.702.703-1.179-1.178.704-.703a3.3 3.3 0 0 1-.354-.85h-.952v-1.665h.952a3.3 3.3 0 0 1 .354-.85l-.676-.675 1.179-1.178.675.675a3.3 3.3 0 0 1 .85-.354v-.952h1.666v.953q.454.119.849.353l.645-.646 1.178 1.179-.644.646a3.3 3.3 0 0 1 .353.849zm-4.167-.834a1.667 1.667 0 0 0 0 3.333c.92 0 1.667-.748 1.667-1.667 0-.918-.747-1.666-1.667-1.666m1.938-3.558a4.09 4.09 0 0 0-3.494-1.973q-.11 0-.219.013a.84.84 0 0 1-.877-.55 4.67 4.67 0 0 0-4.403-3.098c-2.573 0-4.666 2.072-4.666 4.62 0 .213.018.429.055.661a.83.83 0 0 1-.563.925 2.8 2.8 0 0 0-1.937 2.657c0 1.545 1.27 2.803 2.833 2.803H12a.834.834 0 0 1 0 1.666H6.5C4.018 19 2 16.994 2 14.53c0-1.7.962-3.226 2.45-3.978a6 6 0 0 1-.005-.264C4.445 6.82 7.285 4 10.778 4a6.35 6.35 0 0 1 5.741 3.64 5.76 5.76 0 0 1 4.682 2.778.834.834 0 0 1-1.43.857" clip-rule="evenodd"/></svg>