<svg xmlns="http://www.w3.org/2000/svg" fill="none" viewBox="0 0 24 24"><path fill="#62757E" fill-rule="evenodd" d="M21.167 14a.833.833 0 0 1-.834-.833c0-2.166-1.781-3.864-4.055-3.864q-.11 0-.22.013a.84.84 0 0 1-.877-.551 4.67 4.67 0 0 0-4.403-3.098c-2.574 0-4.666 2.072-4.666 4.62 0 .214.017.43.056.661a.83.83 0 0 1-.564.925 2.8 2.8 0 0 0-1.937 2.658c0 1.545 1.27 2.802 2.833 2.802h4.667a.833.833 0 1 1 0 1.667H6.5C4.02 19 2 16.995 2 14.53c0-1.7.96-3.225 2.45-3.977a7 7 0 0 1-.005-.266C4.445 6.821 7.285 4 10.778 4c2.475 0 4.71 1.44 5.741 3.64C19.612 7.76 22 10.144 22 13.168c0 .46-.372.833-.833.833M14.5 16.5c.46 0 .833.372.833.833 0 .92.748 1.667 1.667 1.667a1.67 1.67 0 0 0 1.667-1.667c0-.78-.543-1.433-1.269-1.613l.191.19a.833.833 0 1 1-1.178 1.18l-1.667-1.668a.83.83 0 0 1 0-1.178l1.667-1.666a.833.833 0 1 1 1.178 1.178l-.277.277c1.698.167 3.021 1.574 3.021 3.3A3.337 3.337 0 0 1 17 20.667a3.337 3.337 0 0 1-3.333-3.334c0-.46.372-.833.833-.833" clip-rule="evenodd"/></svg>