<svg xmlns="http://www.w3.org/2000/svg" fill="none" viewBox="0 0 24 24"><path fill="#62757E" fill-rule="evenodd" d="M17.52 18.167h-2.187a.833.833 0 1 1 0-1.667h2.188c1.397 0 2.812-1.093 2.812-3.182 0-2.215-1.82-4.015-4.055-4.015q-.11 0-.22.013a.83.83 0 0 1-.877-.551 4.67 4.67 0 0 0-4.403-3.098c-2.573 0-4.666 2.073-4.666 4.621 0 .213.018.428.055.66a.83.83 0 0 1-.563.925 2.8 2.8 0 0 0-1.937 2.658c0 1.827 1.913 1.969 2.5 1.969h2.5a.833.833 0 0 1 0 1.667h-2.5C3.674 18.167 2 16.705 2 14.53c0-1.702.962-3.226 2.45-3.98a6 6 0 0 1-.005-.263C4.445 6.821 7.285 4 10.778 4a6.35 6.35 0 0 1 5.741 3.64C19.563 7.768 22 10.267 22 13.319c0 2.765-1.925 4.849-4.48 4.849M8.91 13.41l2.5-2.5a.85.85 0 0 1 .588-.245H12a.84.84 0 0 1 .59.246l2.5 2.499a.833.833 0 1 1-1.18 1.178l-1.077-1.077V19a.833.833 0 1 1-1.666 0v-5.488l-1.078 1.077a.832.832 0 1 1-1.178-1.178" clip-rule="evenodd"/></svg>