<svg xmlns="http://www.w3.org/2000/svg" fill="none" viewBox="0 0 24 24"><path fill="#62757E" fill-rule="evenodd" d="M17.833 10.334h-2.5v3.333h2.5A4.17 4.17 0 0 1 22 17.834 4.17 4.17 0 0 1 17.833 22a4.17 4.17 0 0 1-4.166-4.166c0-.024.011-.045.014-.069-.003-.023-.014-.044-.014-.068v-2.364h-3.334v2.364c0 .024-.011.045-.014.068.003.024.014.045.014.07A4.17 4.17 0 0 1 6.168 22 4.17 4.17 0 0 1 2 17.834a4.173 4.173 0 0 1 4.168-4.167h2.5v-3.333h-2.5A4.173 4.173 0 0 1 2 6.167 4.17 4.17 0 0 1 6.168 2a4.17 4.17 0 0 1 4.167 4.167v2.5h3.332v-2.5A4.17 4.17 0 0 1 17.833 2 4.17 4.17 0 0 1 22 6.167a4.17 4.17 0 0 1-4.167 4.167M6.168 3.667a2.504 2.504 0 0 0-2.501 2.5c0 1.379 1.122 2.5 2.501 2.5h2.5v-2.5c0-1.379-1.121-2.5-2.5-2.5m2.499 14.03v-2.364H6.168a2.504 2.504 0 0 0-2.501 2.501c0 1.378 1.122 2.5 2.501 2.5a2.5 2.5 0 0 0 2.499-2.5c0-.024.011-.045.014-.069-.003-.023-.014-.044-.014-.068m5-7.363h-3.333v3.333h3.333zm4.166 10c1.379 0 2.5-1.122 2.5-2.5 0-1.379-1.121-2.5-2.5-2.5h-2.5v2.363c0 .024-.011.045-.014.068.003.024.014.045.014.07a2.5 2.5 0 0 0 2.5 2.498m0-16.667a2.503 2.503 0 0 0-2.5 2.5v2.5h2.5c1.379 0 2.5-1.121 2.5-2.5s-1.121-2.5-2.5-2.5" clip-rule="evenodd"/></svg>