<svg xmlns="http://www.w3.org/2000/svg" fill="none" viewBox="0 0 24 24"><g clip-path="url(#a)"><path fill="#2FD2E5" d="M12 24c6.627 0 12-5.373 12-12S18.627 0 12 0 0 5.373 0 12s5.373 12 12 12Z"/><path fill="#fff" d="M11.854 5.004a6.962 6.962 0 0 0-4.436 1.402 1.043 1.043 0 0 0-.065 1.613c.367.348.933.375 1.332.065a4.953 4.953 0 0 1 6.67.537c.35.36.36.928.025 1.301a.939.939 0 0 1-1.325.046l-.046-.046a3.093 3.093 0 1 0 0 4.17.92.92 0 0 1 1.425.063.93.93 0 0 1-.054 1.187 4.969 4.969 0 0 1-6.697.588 1.042 1.042 0 0 0-1.34.065 1.054 1.054 0 0 0 .087 1.628 7.001 7.001 0 1 0 4.424-12.618Zm-.13 8.734a1.733 1.733 0 1 1 .012-3.465 1.733 1.733 0 0 1-.01 3.465h-.002Z"/></g><defs><clipPath id="a"><path fill="#fff" d="M0 0h24v24H0z"/></clipPath></defs></svg>