<svg xmlns="http://www.w3.org/2000/svg" fill="none" viewBox="0 0 24 24"><g clip-path="url(#a)"><path fill="#C1A05C" d="M12 24c6.627 0 12-5.373 12-12S18.627 0 12 0 0 5.373 0 12s5.373 12 12 12"/><path fill="#fff" fill-rule="evenodd" d="M12.184 18.334c-1.546-.004-2.93-.48-4.166-1.387-.329-.241-.339-.38-.059-.68l.026-.027c.342-.371.34-.37.746-.077a5.7 5.7 0 0 0 3.215 1.097c1.23.043 2.361-.251 3.383-.91 1.226-.791 2.062-1.893 2.412-3.299.44-1.765.113-3.4-1.044-4.836-.81-1.007-1.864-1.656-3.137-1.963a5.86 5.86 0 0 0-3.349.17 5.5 5.5 0 0 0-1.602.873c-.24.187-.33.183-.533-.045a4 4 0 0 1-.275-.335c-.125-.177-.108-.282.062-.417a6.9 6.9 0 0 1 2.743-1.316 6.75 6.75 0 0 1 2.763-.073c1.246.225 2.354.737 3.305 1.566a6.6 6.6 0 0 1 1.67 2.174c.545 1.157.767 2.37.604 3.648a6.5 6.5 0 0 1-1.327 3.2 6.63 6.63 0 0 1-2.812 2.123 6.8 6.8 0 0 1-2.625.514m-.424-4.256c-.045.068-.068.119-.105.158a1.18 1.18 0 0 1-.833.389c-.23.007-.46-.013-.69-.008a.5.5 0 0 0-.255.064c-1.063.667-2.207.765-3.412.509a2.3 2.3 0 0 1-1.055-.497c-.228-.195-.389-.426-.408-.75-.033-.565.385-.95.815-1.076.796-.234 1.552-.092 2.276.26.33.16.64.364.956.553.182.107.236.104.326-.082.41-.837.146-1.76-.856-2.102-.878-.3-1.738-.27-2.584.12-.124.058-.26.167-.406.05-.151-.123-.05-.27-.011-.399q.417-1.404.846-2.803c.063-.205.226-.31.465-.297.35.02.7.072 1.052.08a21 21 0 0 0 1.58-.008c.392-.02.736-.192 1.038-.442.036-.03.11-.064.134-.048.036.023.057.088.06.138.025.404-.148.715-.47.957-.38.287-.814.42-1.288.431a78 78 0 0 1-1.473.02c-.11.002-.17.042-.195.146q-.066.26-.141.52c-.038.128.01.18.14.174.31-.01.62-.032.928-.03.71-.004 1.397.26 1.922.738.515.459.724 1.05.755 1.712.025.53-.076 1.037-.368 1.494-.079.125-.043.178.091.214.356.094.685.03.999-.146l.078-.044c.01-.004.024.001.089.005m-3.045.15-.011-.064c-.045-.027-.087-.061-.135-.082-.354-.157-.702-.33-1.065-.463-.37-.135-.755-.232-1.157-.137-.182.042-.363.088-.416.296-.058.23.082.373.246.499a.7.7 0 0 0 .176.091c.623.24 1.255.247 1.89.059.162-.048.315-.131.472-.198" clip-rule="evenodd"/></g><defs><clipPath id="a"><path fill="#fff" d="M0 0h24v24H0z"/></clipPath></defs></svg>