<svg xmlns="http://www.w3.org/2000/svg" fill="none" viewBox="0 0 24 24"><g clip-path="url(#a)"><path fill="#383939" d="M12 24c6.627 0 12-5.373 12-12S18.627 0 12 0 0 5.373 0 12s5.373 12 12 12"/><path fill="#fff" fill-rule="evenodd" d="m13.983 9.061 1.733-.397.672-1.105-.663-1.088-.85-.586-1.743-.385-1.076.606-1.721-.306L7.97 7.437l-.184 1.912-1.002.419.115 1.774-.7.557.7 1.997.105.21.74 2.056 1.52.538 1.127 1.146 1.296.454.586-.169.93-.107 1.364-.39 2.032-1.148-.532-2.101-1.023-.403-.51.583-1.433.352-2.084-.33-.673-.778.234-.761-.985-1.56.829-1.01.088-1.72 1.187-.681.814-.325 1.105.2z" clip-rule="evenodd"/></g><defs><clipPath id="a"><path fill="#fff" d="M0 0h24v24H0z"/></clipPath></defs></svg>