<svg xmlns="http://www.w3.org/2000/svg" fill="none" viewBox="0 0 24 24"><g clip-path="url(#a)"><path fill="#4C6BAE" d="M12 24c6.627 0 12-5.373 12-12S18.627 0 12 0 0 5.373 0 12s5.373 12 12 12Z"/><path fill="#fff" fill-rule="evenodd" d="m5.88 12.643-.88.09c.47-1.317 1.402-2.37 2.794-3.16.132 1.091.65 1.994 1.553 2.71l-.827.085a3.502 3.502 0 0 0 2.897 3.084 3.872 3.872 0 0 1-1.9.754c.433.764.946 1.389 1.537 1.875a6.156 6.156 0 0 1-5.174-5.438Zm12.24-1.286.88-.09c-.47 1.317-1.402 2.37-2.794 3.16-.132-1.091-.65-1.994-1.553-2.71l.827-.085a3.502 3.502 0 0 0-2.944-3.091 3.872 3.872 0 0 1 1.892-.747c-.438-.769-.954-1.397-1.552-1.885a6.156 6.156 0 0 1 5.244 5.448Z" clip-rule="evenodd" opacity=".5"/><path fill="#fff" fill-rule="evenodd" d="m12.587 18.126.09.874c-1.317-.47-2.37-1.402-3.16-2.794 1.09-.132 1.994-.65 2.709-1.553l.086.834a3.502 3.502 0 0 0 3.147-2.95c.413.552.67 1.205.747 1.89.77-.436 1.397-.953 1.885-1.55a6.156 6.156 0 0 1-5.504 5.249ZM11.357 5.88l-.09-.88c1.317.47 2.37 1.402 3.16 2.794-1.091.132-1.994.65-2.71 1.553l-.085-.827a3.502 3.502 0 0 0-3.091 2.944 3.872 3.872 0 0 1-.747-1.892c-.77.438-1.397.954-1.885 1.552a6.156 6.156 0 0 1 5.448-5.244Z" clip-rule="evenodd"/></g><defs><clipPath id="a"><path fill="#fff" d="M0 0h24v24H0z"/></clipPath></defs></svg>