<svg xmlns="http://www.w3.org/2000/svg" fill="none" viewBox="0 0 24 24"><g clip-path="url(#a)"><path fill="#4C6BAE" d="M12 24c6.627 0 12-5.373 12-12S18.627 0 12 0 0 5.373 0 12s5.373 12 12 12"/><path fill="#fff" fill-rule="evenodd" d="m5.88 12.643-.88.09q.705-1.975 2.794-3.16.198 1.636 1.553 2.71l-.827.085a3.5 3.5 0 0 0 2.897 3.084 3.9 3.9 0 0 1-1.9.754q.65 1.145 1.537 1.875a6.156 6.156 0 0 1-5.174-5.438m12.24-1.286.88-.09q-.706 1.975-2.794 3.16-.198-1.636-1.553-2.71l.827-.085a3.5 3.5 0 0 0-2.943-3.091 3.87 3.87 0 0 1 1.89-.747q-.654-1.154-1.55-1.885a6.156 6.156 0 0 1 5.243 5.448" clip-rule="evenodd" opacity=".5"/><path fill="#fff" fill-rule="evenodd" d="m12.587 18.126.09.874q-1.975-.706-3.16-2.794 1.636-.198 2.709-1.553l.086.834a3.5 3.5 0 0 0 3.147-2.95c.413.552.67 1.205.747 1.89q1.154-.654 1.885-1.55a6.156 6.156 0 0 1-5.504 5.249M11.357 5.88l-.09-.88q1.975.705 3.16 2.794-1.636.198-2.71 1.553l-.085-.827a3.5 3.5 0 0 0-3.091 2.944 3.87 3.87 0 0 1-.747-1.892q-1.154.656-1.885 1.552a6.156 6.156 0 0 1 5.448-5.244" clip-rule="evenodd"/></g><defs><clipPath id="a"><path fill="#fff" d="M0 0h24v24H0z"/></clipPath></defs></svg>