<svg xmlns="http://www.w3.org/2000/svg" fill="none" viewBox="0 0 24 24"><g clip-path="url(#a)"><path fill="#13BF99" d="M12 24c6.627 0 12-5.373 12-12S18.627 0 12 0 0 5.373 0 12s5.373 12 12 12Z"/><path fill="#fff" d="M12 18.6H8.825l1.59-2.77h3.17l1.59 2.77H12Zm-1.584-9.83L8.824 6h6.35l-1.59 2.77h-3.17Zm7 6.677h-.002.001l-1.59 2.77-1.586-2.77h.001l1.584-2.77H19l-1.585 2.77Zm-10.831-6.3 1.59-2.77 1.585 2.77-1.585 2.77H5l1.585-2.77Zm3.174 6.3h.001l-1.585 2.77-1.59-2.77L5 12.676h3.175l1.585 2.77v.001Zm7.656-6.3L19 11.917h-3.175l-1.586-2.77 1.585-2.77 1.591 2.77Z"/></g><defs><clipPath id="a"><path fill="#fff" d="M0 0h24v24H0z"/></clipPath></defs></svg>