<svg xmlns="http://www.w3.org/2000/svg" fill="none" viewBox="0 0 24 24"><path fill="#F16037" d="m15.52 1.998-1.74 4.3a.487.487 0 0 1-.635.268.47.47 0 0 1-.303-.478l.227-4.626A1.29 1.29 0 0 1 14.404.25c.71.038 1.24.64 1.211 1.328a1.6 1.6 0 0 1-.094.42"/><path fill="url(#a)" fill-rule="evenodd" d="M19.808 0h2.839c.312 0 .615.315.596.602 0 .335-.161.478-.265.574-.01 0-.01.01-.019.01l-6.795 6.546v.01a.556.556 0 0 1-.804 0 .54.54 0 0 1-.095-.65L18.767.535C19.032.067 19.59 0 19.807 0M24 11.995C24 18.628 18.634 24 12 24 5.385 24 0 18.628 0 11.995 0 5.945 4.467.937 10.287.105a.2.2 0 0 1 .076-.01c.028 0 .057-.009.075-.009.19.01.35.134.407.325l.01.172.464 5.4.01.153a.44.44 0 0 1-.323.392.3.3 0 0 0-.085.01c-2.555.506-4.495 2.762-4.495 5.467A5.57 5.57 0 0 0 12 17.577c3.066 0 5.555-2.485 5.574-5.553v-.067a.42.42 0 0 1 .312-.392l.086-.01 5.394-1.118.123-.028h.028c.209 0 .379.133.436.344 0 .019 0 .038.01.057 0 .02.009.048.009.076.018.345.028.727.028 1.11m-8.196 0A3.8 3.8 0 0 1 12.01 15.8a3.803 3.803 0 1 1 0-7.608 3.81 3.81 0 0 1 3.795 3.804" clip-rule="evenodd"/><path fill="#F16037" d="M22.032 8.507 17.63 9.93a.487.487 0 0 1-.615-.316.51.51 0 0 1 .16-.545l3.682-2.8a1.27 1.27 0 0 1 1.78.249 1.267 1.267 0 0 1-.247 1.777.9.9 0 0 1-.36.21"/><defs><linearGradient id="a" x1=".009" x2="24.001" y1="11.999" y2="11.999" gradientUnits="userSpaceOnUse"><stop stop-color="#97C93D"/><stop offset="1" stop-color="#4FBA69"/></linearGradient></defs></svg>