<svg xmlns="http://www.w3.org/2000/svg" fill="none" viewBox="0 0 24 24"><path fill="#62757E" fill-rule="evenodd" d="M19.182 2.17a.85.85 0 1 1 1.202 1.203l-16 16a.85.85 0 0 1-1.202-1.202l2.393-2.393L2.4 12.6a.85.85 0 0 1 0-1.202l4-4a.85.85 0 0 1 1.2 1.203L4.202 12l2.575 2.575 4.937-4.936 1.461-5.845a.85.85 0 1 1 1.65.412l-.774 3.096zm-1.01 5.8-1.203 1.202L19.798 12l-3.4 3.399a.85.85 0 1 0 1.203 1.202l4-4a.85.85 0 0 0 0-1.202zm-8.054 8.053 2.336-2.336-1.63 6.52a.85.85 0 1 1-1.649-.413z" clip-rule="evenodd"/></svg>