<svg xmlns="http://www.w3.org/2000/svg" fill="none" viewBox="0 0 24 24"><g clip-path="url(#a)"><path fill="#F7DF1E" d="M20.4 0H3.6A3.6 3.6 0 0 0 0 3.6v16.8A3.6 3.6 0 0 0 3.6 24h16.8a3.6 3.6 0 0 0 3.6-3.6V3.6A3.6 3.6 0 0 0 20.4 0"/><path fill="#000" d="M15.188 17.344c.468.797 1.124 1.36 2.203 1.36.937 0 1.547-.47 1.547-1.126 0-.75-.61-1.031-1.641-1.5l-.563-.234c-1.64-.703-2.718-1.547-2.718-3.375 0-1.688 1.265-3 3.28-3 1.454 0 2.485.515 3.188 1.828l-1.734 1.125c-.375-.703-.797-.985-1.453-.985s-1.078.422-1.078.985c0 .656.422.937 1.406 1.36l.563.234c1.921.843 3 1.64 3 3.562 0 2.016-1.594 3.14-3.75 3.14-2.11 0-3.47-.984-4.125-2.296zm-7.97.187c.376.61.657 1.172 1.454 1.172.75 0 1.219-.281 1.219-1.406V9.516h2.25v7.687c0 2.344-1.36 3.375-3.375 3.375-1.828 0-2.86-.937-3.375-2.062z"/></g><defs><clipPath id="a"><path fill="#fff" d="M0 0h24v24H0z"/></clipPath></defs></svg>