<svg xmlns="http://www.w3.org/2000/svg" fill="none" viewBox="0 0 24 24"><path fill="#73758C" fill-rule="evenodd" d="m21.761 5.533.03-.139v-.119l-.007-.052a3.122 3.122 0 0 0-.018-.106c-.076-.406-.304-.699-.664-.896l-.973-.532c-.826-.452-1.652-.903-2.48-1.352-.096-.053-.126-.108-.125-.216.005-.518.008-1.038-.003-1.556A.565.565 0 0 0 16.94 0a3.202 3.202 0 0 0-.648.072 2.76 2.76 0 0 0-1.627 1.054 2.833 2.833 0 0 0-.58 1.767v7.951c0 .05 0 .099-.003.149-.033.458-.23.83-.596 1.108-.28.212-.6.296-.947.295h-3.93c-.051-.001-.102-.002-.153 0-.447.014-.724.4-.58.807.084.241.314.39.607.39l.875.001c1.07.001 2.139.002 3.208-.004.23-.001.466-.03.69-.085a2.643 2.643 0 0 0 2.018-2.524c.012-.703.01-1.407.007-2.111l-.002-.875V2.89c0-.56.213-1.02.659-1.363.079-.06.166-.11.258-.162.045-.025.09-.051.136-.079l.001.398c.001.297.002.582-.002.867-.004.291.12.493.376.632 1.264.687 2.525 1.379 3.786 2.07a.254.254 0 0 1 .063.058l.028.03a.64.64 0 0 0-.037.01.284.284 0 0 1-.08.016 669.297 669.297 0 0 1-2.186.002.894.894 0 0 0-.219.02c-.289.075-.454.302-.454.618v5.207c0 .043.001.086.007.127a.593.593 0 0 0 .879.436c.222-.124.309-.324.308-.574V6.566h.602c.374.002.747.003 1.12-.002.535-.006.929-.251 1.154-.738a1.34 1.34 0 0 0 .084-.293Zm-3.48 12.532.133.18-.005.002a.278.278 0 0 0-.044.035c-.204.206-.36.444-.47.711a2.37 2.37 0 0 0-.166.922v.46c.002.38.002.76-.004 1.14a1.338 1.338 0 0 1-.86 1.2c-.142.054-.289.07-.436.085l-.139.016a.586.586 0 0 0-.504.616.588.588 0 0 0 .563.563 2.5 2.5 0 0 0 2.063-1.013c.358-.468.515-1.003.516-1.587 0-.16 0-.32-.002-.48-.001-.382-.003-.764.008-1.145.014-.426.242-.726.637-.88a1.41 1.41 0 0 1 .356-.072l.083-.01a.597.597 0 0 0 .455-.848c-.124-.246-.336-.334-.598-.346a.978.978 0 0 1-.934-.938c-.006-.29-.005-.58-.005-.87 0-.252.001-.504-.003-.755a3.06 3.06 0 0 0-.06-.599c-.162-.747-.584-1.31-1.246-1.69a2.395 2.395 0 0 0-1.253-.322.558.558 0 0 0-.531.36.567.567 0 0 0 .093.62c.121.147.284.206.472.213.77.032 1.323.603 1.329 1.375.002.34.001.682 0 1.023v.525c0 .398.075.78.283 1.123.08.132.172.257.269.386Zm-13.872.26c.07.083.138.164.2.25.271.385.393.817.392 1.287a208.88 208.88 0 0 0 0 1.566c.002.605.352 1.107.914 1.3.137.046.287.063.433.073.333.023.562.232.596.562.033.308-.222.616-.534.63a2.37 2.37 0 0 1-1.302-.321 2.515 2.515 0 0 1-1.17-1.415 2.575 2.575 0 0 1-.132-.844v-.271c.001-.434.002-.869 0-1.303a1 1 0 0 0-.862-1.012c-.04-.006-.08-.01-.121-.013-.065-.006-.129-.011-.19-.028a.585.585 0 0 1-.422-.63.585.585 0 0 1 .535-.527c.22-.017.433-.05.619-.182a.998.998 0 0 0 .44-.855c.002-.516.004-1.032 0-1.548-.002-.518.121-1 .407-1.434a2.49 2.49 0 0 1 1.738-1.137c.125-.02.253-.03.38-.033a.594.594 0 1 1 .038 1.19c-.515.018-.914.235-1.183.678-.133.219-.185.46-.185.715v.478c-.002.343-.002.685.001 1.028.007.648-.206 1.204-.67 1.66a.166.166 0 0 0-.014.018l-.003.004.095.115Zm3.82 3.678.002.311-.002.35c-.003.266-.005.533.005.799.012.354.387.61.73.518.287-.077.456-.304.457-.618 0-.215 0-.431-.002-.647-.002-.453-.004-.907.009-1.36a1.82 1.82 0 0 1 .719-1.417c.676-.54 1.548-.587 2.274-.118.54.349.845.857.88 1.503.016.29.014.581.013.873v.668c0 .2 0 .401.007.602.01.268.257.507.524.528.38.03.663-.236.663-.627.002-.633.003-1.265 0-1.897a3.126 3.126 0 0 0-.255-1.257 3.107 3.107 0 0 0-1.308-1.476 3.073 3.073 0 0 0-2.23-.36 3.012 3.012 0 0 0-1.48.77c-.626.589-.967 1.312-1.002 2.171-.01.228-.007.456-.004.684Z" clip-rule="evenodd"/></svg>