<svg xmlns="http://www.w3.org/2000/svg" fill="none" viewBox="0 0 24 24"><g clip-path="url(#a)"><path fill="#1E589C" d="M22.394 6c-.167-.29-.398-.543-.652-.69L12.926.22c-.51-.294-1.34-.294-1.848 0L2.26 5.31c-.508.293-.923 1.013-.923 1.6v10.18c0 .294.104.62.27.91.168.29.399.543.653.69l8.816 5.09c.508.293 1.34.293 1.848 0l8.816-5.09c.254-.147.485-.4.652-.69s.27-.616.27-.91V6.91c.003-.294-.1-.62-.268-.91M12 19.11c-3.92 0-7.11-3.19-7.11-7.11S8.08 4.89 12 4.89a7.13 7.13 0 0 1 6.157 3.553l-3.076 1.78A3.57 3.57 0 0 0 12 8.443 3.56 3.56 0 0 0 8.444 12 3.56 3.56 0 0 0 12 15.555a3.57 3.57 0 0 0 3.08-1.778l3.078 1.78A7.13 7.13 0 0 1 12 19.11m7.11-6.715h-.79v.79h-.79v-.79h-.79v-.79h.79v-.79h.79v.79h.79zm2.962 0h-.79v.79h-.79v-.79h-.79v-.79h.79v-.79h.79v.79h.79z"/></g><defs><clipPath id="a"><path fill="#fff" d="M0 0h24v24H0z"/></clipPath></defs></svg>