<svg xmlns="http://www.w3.org/2000/svg" fill="none" viewBox="0 0 24 24"><g clip-path="url(#a)"><path fill="url(#b)" d="M11.25 2.828a.713.713 0 1 1 1.425 0 .713.713 0 0 1-1.426 0M2.741 9.287a.713.713 0 1 1 1.426 0 .713.713 0 0 1-1.426 0m17.021.033a.714.714 0 1 1 1.428 0 .714.714 0 0 1-1.428 0m-14.96.978a.65.65 0 0 0 .331-.858l-.316-.716h1.245v5.612H3.55a8.8 8.8 0 0 1-.285-3.353zm5.207.138V8.782h2.965c.153 0 1.08.176 1.08.87 0 .577-.71.784-1.296.784zM5.963 19.34a.713.713 0 1 1 1.427 0 .713.713 0 0 1-1.427 0m10.571.033a.713.713 0 1 1 1.426 0 .713.713 0 0 1-1.426 0m.22-1.618a.65.65 0 0 0-.771.501l-.359 1.671a8.8 8.8 0 0 1-7.325-.035l-.357-1.671a.65.65 0 0 0-.772-.5l-1.475.317a9 9 0 0 1-.763-.899h7.179c.081 0 .135-.015.135-.086V14.51c0-.073-.054-.085-.135-.085h-2.1v-1.613h2.27a1.43 1.43 0 0 1 1.397 1.21c.09.355.288 1.507.423 1.876.135.414.686 1.24 1.27 1.24h3.706q-.373.5-.813.943zm3.986-6.705q.075.762.02 1.525h-.902c-.09 0-.127.06-.127.148v.414c0 .974-.549 1.187-1.028 1.24-.459.052-.967-.191-1.029-.472a3.1 3.1 0 0 0-1.432-2.407c.883-.561 1.8-1.388 1.8-2.496a2.82 2.82 0 0 0-1.379-2.317 3.9 3.9 0 0 0-1.886-.621h-9.32a8.8 8.8 0 0 1 4.914-2.774l1.1 1.152a.65.65 0 0 0 .918.022l1.23-1.176a8.78 8.78 0 0 1 6.013 4.287l-.842 1.9a.65.65 0 0 0 .331.858zm2.099.031-.028-.294.866-.808a.36.36 0 0 0-.114-.58l-1.105-.414-.085-.286.69-.96a.36.36 0 0 0-.225-.546l-1.168-.19-.14-.263.49-1.077a.36.36 0 0 0-.327-.491l-1.186.04-.192-.226.273-1.154a.36.36 0 0 0-.418-.418l-1.155.27-.228-.188.042-1.184a.36.36 0 0 0-.49-.328l-1.078.491-.262-.14-.19-1.169a.36.36 0 0 0-.543-.225l-.961.69-.286-.085-.414-1.109a.36.36 0 0 0-.578-.115l-.811.867-.294-.028-.625-1.01a.36.36 0 0 0-.59 0l-.623 1.01-.294.028-.81-.866a.36.36 0 0 0-.578.115l-.418 1.104-.285.085-.96-.685a.362.362 0 0 0-.546.225l-.19 1.169-.262.14-1.079-.491a.36.36 0 0 0-.49.328L5.214 3.5l-.228.186-1.155-.27a.36.36 0 0 0-.417.417l.27 1.155-.186.228-1.185-.042a.362.362 0 0 0-.328.492l.491 1.077-.14.263-1.169.19a.36.36 0 0 0-.225.543l.69.96-.085.286-1.109.414a.36.36 0 0 0-.115.58l.867.808-.028.294-1.01.624a.36.36 0 0 0 0 .59l1.01.624.028.295-.867.808a.36.36 0 0 0 .115.579l1.109.414.085.286-.69.964a.36.36 0 0 0 .226.545l1.168.19.14.264-.49 1.077a.362.362 0 0 0 .328.491l1.186-.04.187.227-.271 1.156a.36.36 0 0 0 .417.417l1.153-.274.228.187-.042 1.185a.36.36 0 0 0 .49.327l1.078-.49.262.14.19 1.168a.36.36 0 0 0 .543.226l.96-.692.287.086.414 1.107a.362.362 0 0 0 .578.115l.809-.866.294.029.624 1.009a.362.362 0 0 0 .59 0l.624-1.01.294-.029.808.867a.36.36 0 0 0 .579-.115l.414-1.107.286-.086.96.692a.36.36 0 0 0 .498-.112.4.4 0 0 0 .047-.114l.19-1.168.263-.14 1.078.49a.36.36 0 0 0 .49-.327l-.041-1.187.227-.186 1.155.271a.36.36 0 0 0 .417-.416l-.265-1.154.187-.228 1.186.04a.36.36 0 0 0 .327-.49l-.491-1.078.14-.263 1.169-.19a.36.36 0 0 0 .226-.545l-.692-.96.086-.287 1.109-.414a.36.36 0 0 0 .115-.578l-.867-.809.028-.294 1.01-.624a.36.36 0 0 0 0-.59z"/></g><defs><radialGradient id="b" cx="0" cy="0" r="1" gradientTransform="matrix(10.3918 -6.00044 -3.59992 -6.24046 12.013 12.29)" gradientUnits="userSpaceOnUse"><stop stop-color="#7D7D7D"/><stop offset=".267" stop-color="#7E7C7A"/><stop offset=".45" stop-color="#817871"/><stop offset=".608" stop-color="#867162"/><stop offset=".753" stop-color="#8D684C"/><stop offset=".886" stop-color="#965C30"/><stop offset="1" stop-color="#A04F12"/></radialGradient><clipPath id="a"><path fill="#fff" d="M0 0h24v24H0z"/></clipPath></defs></svg>