<svg xmlns="http://www.w3.org/2000/svg" fill="none" viewBox="0 0 24 24"><g clip-path="url(#a)"><path fill="#62757E" d="m23.834 11.703-1.007-.623-.028-.294.865-.807a.348.348 0 0 0-.115-.578l-1.107-.414a8 8 0 0 0-.087-.285l.69-.96a.347.347 0 0 0-.225-.544l-1.166-.19a9 9 0 0 0-.14-.261l.49-1.076a.344.344 0 0 0-.159-.452.35.35 0 0 0-.17-.038l-1.184.041a7 7 0 0 0-.188-.227l.273-1.153a.348.348 0 0 0-.417-.417l-1.154.273-.227-.188.041-1.184a.344.344 0 0 0-.49-.328l-1.076.49-.262-.14-.19-1.167a.35.35 0 0 0-.545-.226l-.96.69a9 9 0 0 0-.285-.085L14.597.453a.348.348 0 0 0-.578-.115l-.807.866a9 9 0 0 0-.294-.028L12.294.168a.347.347 0 0 0-.589 0l-.623 1.008-.294.028L9.98.337a.346.346 0 0 0-.578.116l-.414 1.106-.285.086-.96-.69a.348.348 0 0 0-.544.226l-.19 1.167a9 9 0 0 0-.262.14l-1.077-.49a.346.346 0 0 0-.49.328l.042 1.184a8 8 0 0 0-.228.188l-1.153-.273a.347.347 0 0 0-.417.417l.271 1.153-.186.227-1.184-.041a.346.346 0 0 0-.329.49l.491 1.076a9 9 0 0 0-.14.262l-1.166.19a.348.348 0 0 0-.226.544l.69.959q-.045.142-.087.285l-1.106.414a.348.348 0 0 0-.116.578l.866.807q-.016.147-.028.294l-1.008.623a.345.345 0 0 0 0 .59l1.008.623.028.294-.866.807a.346.346 0 0 0 .116.579l1.106.414q.041.144.087.285l-.69.959a.345.345 0 0 0 .227.544l1.166.19q.068.132.14.262l-.49 1.076a.346.346 0 0 0 .328.49l1.183-.041q.092.115.187.227l-.271 1.155a.346.346 0 0 0 .417.416l1.153-.272q.112.096.228.187l-.042 1.184a.344.344 0 0 0 .49.327l1.077-.49q.13.073.262.14l.19 1.167a.348.348 0 0 0 .545.227l.958-.69q.142.045.286.086l.414 1.107a.345.345 0 0 0 .578.115l.808-.865.294.03.623 1.006a.348.348 0 0 0 .59 0l.623-1.007q.147-.013.294-.03l.807.866a.348.348 0 0 0 .578-.115l.414-1.107q.143-.04.285-.087l.959.69a.345.345 0 0 0 .544-.226l.19-1.166.263-.14 1.076.49a.347.347 0 0 0 .49-.328l-.041-1.184q.115-.09.226-.187l1.153.272a.347.347 0 0 0 .418-.416l-.272-1.155q.095-.112.187-.227l1.184.041a.343.343 0 0 0 .328-.49l-.49-1.076q.072-.13.14-.262l1.167-.19a.347.347 0 0 0 .226-.544l-.69-.959.086-.285 1.107-.414a.346.346 0 0 0 .115-.578l-.865-.808.028-.294 1.007-.624a.344.344 0 0 0 0-.589zm-6.74 8.355a.714.714 0 0 1 .298-1.396.716.716 0 0 1 .244 1.304.7.7 0 0 1-.544.092zm-.343-2.314a.65.65 0 0 0-.772.5l-.357 1.669a8.7 8.7 0 0 1-3.62.78 8.7 8.7 0 0 1-3.694-.815L7.95 18.21a.65.65 0 0 0-.771-.5l-1.473.317a9 9 0 0 1-.761-.898h7.167c.081 0 .136-.015.136-.088v-2.536c0-.074-.054-.089-.136-.089h-2.096V12.81h2.267c.207 0 1.107.059 1.394 1.209.09.353.288 1.504.424 1.872.134.413.683 1.239 1.268 1.239h3.572a1 1 0 0 0 .13-.014 9 9 0 0 1-.813.953zm-9.914 2.28a.713.713 0 1 1-.323-1.389.713.713 0 0 1 .323 1.389M4.117 8.997a.714.714 0 1 1-1.287.617.714.714 0 0 1 1.287-.617m-.835 1.982 1.535-.683a.65.65 0 0 0 .33-.858l-.316-.715h1.243v5.602H3.567a8.8 8.8 0 0 1-.284-3.348zm6.735-.544V8.784h2.96c.153 0 1.079.177 1.079.87 0 .574-.71.78-1.295.78zm10.757 1.486q0 .328-.024.651h-.9c-.09 0-.127.059-.127.148v.413c0 .973-.549 1.184-1.03 1.238-.457.052-.964-.191-1.027-.472-.27-1.518-.72-1.843-1.43-2.403.881-.56 1.799-1.386 1.799-2.492 0-1.193-.82-1.945-1.377-2.315-.783-.516-1.65-.62-1.883-.62H5.468a8.77 8.77 0 0 1 4.907-2.77l1.097 1.152a.65.65 0 0 0 .919.02l1.227-1.173a8.78 8.78 0 0 1 6.004 4.276l-.84 1.898a.65.65 0 0 0 .33.859l1.618.718q.042.43.042.872zm-9.3-9.6a.713.713 0 1 1 .983 1.032.714.714 0 0 1-.984-1.031m8.338 6.71a.71.71 0 0 1 .94-.362.714.714 0 1 1-.94.364z"/></g><defs><clipPath id="a"><path fill="#fff" d="M0 0h24v24H0z"/></clipPath></defs></svg>