<svg xmlns="http://www.w3.org/2000/svg" fill="none" viewBox="0 0 24 24"><path fill="#73758C" fill-rule="evenodd" d="m21.761 5.533.03-.139v-.119l-.003-.025-.004-.027-.018-.106c-.076-.406-.304-.699-.664-.896l-.97-.53-.004-.002Q18.89 3.01 17.65 2.337c-.096-.053-.126-.108-.125-.216.005-.518.008-1.038-.003-1.556A.565.565 0 0 0 16.94 0a3.2 3.2 0 0 0-.648.072 2.76 2.76 0 0 0-1.627 1.054 2.83 2.83 0 0 0-.58 1.767v7.951q0 .075-.003.149-.048.689-.596 1.108c-.28.212-.6.296-.947.295h-3.93q-.076-.002-.153 0c-.447.014-.724.4-.58.807.084.241.314.39.607.39l.875.001q1.606.003 3.208-.004c.23-.001.466-.03.69-.085a2.64 2.64 0 0 0 2.018-2.524c.012-.703.01-1.407.007-2.111l-.002-.875V2.89c0-.56.213-1.02.659-1.363.079-.06.166-.11.258-.162q.067-.037.136-.079l.001.398c.001.297.002.582-.002.867-.004.291.12.493.376.632q1.894 1.032 3.786 2.07a.3.3 0 0 1 .063.058l.028.03-.037.01a.3.3 0 0 1-.08.016l-1.133.001H18.28a1 1 0 0 0-.219.022c-.289.074-.454.301-.454.617v5.207q-.001.065.007.127a.593.593 0 0 0 .879.436c.222-.124.309-.324.308-.574V6.566h.602q.56.004 1.12-.002c.535-.006.929-.251 1.154-.738.042-.091.063-.192.084-.293m-3.48 12.532.133.18-.005.002a.3.3 0 0 0-.044.035q-.305.31-.47.711a2.4 2.4 0 0 0-.166.922v.46q.004.57-.004 1.14a1.34 1.34 0 0 1-.86 1.2c-.142.054-.289.07-.436.085l-.139.016a.586.586 0 0 0-.504.616.59.59 0 0 0 .563.563q.18.005.356-.019a2.5 2.5 0 0 0 1.708-.995c.357-.468.514-1.002.515-1.586l-.002-.48c-.001-.382-.003-.764.008-1.145.014-.426.242-.726.637-.88a1.4 1.4 0 0 1 .356-.072l.083-.01a.597.597 0 0 0 .455-.848c-.124-.246-.336-.334-.598-.346a.98.98 0 0 1-.934-.938c-.006-.29-.005-.58-.005-.87q.002-.378-.003-.755a3 3 0 0 0-.06-.599c-.162-.747-.584-1.31-1.246-1.69a2.4 2.4 0 0 0-1.253-.322.56.56 0 0 0-.531.36.57.57 0 0 0 .093.62c.121.147.284.206.472.213.77.032 1.323.603 1.329 1.375q.002.51 0 1.023v.525c0 .398.075.78.283 1.123.08.132.172.257.269.386m-13.967.146.096.115q.105.121.198.25c.272.384.394.816.393 1.286a209 209 0 0 0 0 1.566c.002.605.352 1.107.914 1.3.137.046.287.063.433.073.333.023.562.232.596.562.033.308-.222.616-.534.63a2.37 2.37 0 0 1-1.302-.321 2.52 2.52 0 0 1-1.17-1.415 2.6 2.6 0 0 1-.132-.844v-.271q.002-.652 0-1.303a1 1 0 0 0-.862-1.012q-.06-.009-.121-.013c-.065-.006-.129-.011-.19-.028a.585.585 0 0 1-.422-.63.585.585 0 0 1 .535-.527c.22-.017.433-.05.619-.182a1 1 0 0 0 .44-.855q.004-.774 0-1.548c-.002-.518.121-1 .407-1.434a2.5 2.5 0 0 1 1.738-1.137q.189-.03.38-.033a.594.594 0 1 1 .038 1.19c-.515.018-.914.235-1.183.678-.133.219-.185.46-.185.715v.478q-.003.514.001 1.028c.007.648-.206 1.204-.67 1.66l-.014.018zm3.915 3.792.002.311-.002.35c-.003.266-.005.533.005.799.012.354.387.61.73.518.287-.077.456-.304.457-.618l-.002-.647c-.002-.453-.004-.907.009-1.36a1.82 1.82 0 0 1 .719-1.417c.676-.54 1.548-.587 2.274-.118.54.349.845.857.88 1.503.016.29.014.581.013.873v.668q-.002.3.007.602c.01.268.257.507.524.528.38.03.663-.236.663-.627q.004-.95 0-1.897a3.1 3.1 0 0 0-.255-1.257 3.1 3.1 0 0 0-1.308-1.476 3.07 3.07 0 0 0-2.23-.36 3 3 0 0 0-1.48.77c-.626.589-.967 1.312-1.002 2.171-.01.228-.007.456-.004.684" clip-rule="evenodd"/></svg>