<svg xmlns="http://www.w3.org/2000/svg" fill="none" viewBox="0 0 24 24"><g fill-rule="evenodd" clip-path="url(#a)" clip-rule="evenodd"><path fill="url(#b)" d="M9.443 0c-1.884 0-3.41 1.478-3.41 3.302v2.285h5.901v.635H3.41C1.527 6.222 0 7.7 0 9.524v4.952c0 1.824 1.527 3.302 3.41 3.302h1.967v-2.794c0-1.823 1.527-3.302 3.41-3.302h6.295c1.594 0 2.885-1.25 2.885-2.793V3.302c0-1.824-1.526-3.302-3.41-3.302zm-.787 4.063c.652 0 1.18-.511 1.18-1.142 0-.632-.528-1.143-1.18-1.143s-1.18.511-1.18 1.143c0 .63.528 1.142 1.18 1.142"/><path fill="url(#c)" d="M14.557 24c1.884 0 3.41-1.478 3.41-3.302v-2.285h-5.901v-.635h8.524c1.883 0 3.41-1.478 3.41-3.302V9.524c0-1.824-1.527-3.302-3.41-3.302h-1.967v2.794c0 1.823-1.527 3.302-3.41 3.302H8.918c-1.594 0-2.885 1.25-2.885 2.793v5.587c0 1.824 1.526 3.302 3.41 3.302zm.787-4.064c-.652 0-1.18.512-1.18 1.143 0 .632.528 1.143 1.18 1.143s1.18-.511 1.18-1.143c0-.63-.528-1.143-1.18-1.143"/></g><defs><linearGradient id="b" x1="8.984" x2="8.984" y1="0" y2="17.778" gradientUnits="userSpaceOnUse"><stop stop-color="#327EBD"/><stop offset="1" stop-color="#1565A7"/></linearGradient><linearGradient id="c" x1="15.016" x2="15.016" y1="6.222" y2="24" gradientUnits="userSpaceOnUse"><stop stop-color="#FFDA4B"/><stop offset="1" stop-color="#F9C600"/></linearGradient><clipPath id="a"><path fill="#fff" d="M0 0h24v24H0z"/></clipPath></defs></svg>