<svg xmlns="http://www.w3.org/2000/svg" fill="none" viewBox="0 0 24 24"><g clip-path="url(#a)"><path fill="#62757e" d="M20.4 0A3.6 3.6 0 0 1 24 3.6v16.8a3.6 3.6 0 0 1-3.6 3.6H3.6A3.6 3.6 0 0 1 0 20.4V3.6A3.6 3.6 0 0 1 3.6 0zm-3.103 9.469c-2.016 0-3.281 1.312-3.281 3 0 1.828 1.078 2.672 2.718 3.375l.563.234c1.031.469 1.64.75 1.64 1.5 0 .656-.609 1.125-1.546 1.125-1.078 0-1.735-.562-2.203-1.36l-1.876 1.079c.657 1.312 2.016 2.297 4.126 2.297 2.156 0 3.75-1.125 3.75-3.14 0-1.923-1.079-2.72-3-3.563l-.563-.235c-.984-.422-1.406-.703-1.406-1.36 0-.562.422-.983 1.078-.983s1.078.28 1.453.984l1.734-1.125c-.703-1.313-1.734-1.828-3.187-1.828m-7.406.047v7.78c0 1.126-.47 1.407-1.22 1.407-.796 0-1.077-.562-1.452-1.172l-1.828.985c.515 1.125 1.547 2.062 3.375 2.062 2.015 0 3.375-1.031 3.375-3.375V9.516z"/></g><defs><clipPath id="a"><path fill="#fff" d="M0 0h24v24H0z"/></clipPath></defs></svg>