<svg xmlns="http://www.w3.org/2000/svg" fill="none" viewBox="0 0 24 24"><path fill="#39594D" fill-rule="evenodd" d="M7.776 14.304c.64 0 1.92-.032 3.712-.768 2.08-.864 6.176-2.4 9.152-4 2.08-1.12 2.976-2.592 2.976-4.576 0-2.72-2.208-4.96-4.96-4.96H7.136A7.143 7.143 0 0 0 0 7.136c0 3.936 3.008 7.168 7.776 7.168" clip-rule="evenodd"/><path fill="#D18EE2" fill-rule="evenodd" d="M9.728 19.2c0-1.92 1.152-3.68 2.944-4.416l3.616-1.504C19.968 11.776 24 14.464 24 18.432A5.57 5.57 0 0 1 18.432 24h-3.936c-2.624 0-4.768-2.144-4.768-4.8" clip-rule="evenodd"/><path fill="#FF7759" d="M4.128 15.232A4.14 4.14 0 0 0 0 19.36v.544C0 22.144 1.856 24 4.128 24a4.14 4.14 0 0 0 4.128-4.128v-.544c-.032-2.24-1.856-4.096-4.128-4.096"/></svg>