<svg xmlns="http://www.w3.org/2000/svg" fill="none" viewBox="0 0 24 24"><path fill="#697284" fill-rule="evenodd" d="M17 21.333c-.203 0-.4-.024-.598-.047-.076.023-.152.047-.235.047H4.5a.833.833 0 0 1-.833-.833v-3.333c0-.46.372-.834.833-.834h.833v-1.666h-2.5A.833.833 0 0 1 2 13.833V10.5c0-.46.373-.833.833-.833v-2.5c0-.46.373-.834.834-.834H4.5v-2.5c0-.46.372-.833.833-.833h10c.461 0 .834.373.834.833v3.334c0 .46-.373.833-.834.833H14.5v2.5c0 .46-.373.833-.833.833v1.295a5.043 5.043 0 0 1 1.329-.881A5.056 5.056 0 0 1 17 11.333c2.758 0 5 2.244 5 5 0 2.757-2.242 5-5 5Zm-4.693-6.666H7v1.666h5c0-.571.117-1.127.307-1.666Zm-6.974 5h7.954a5.041 5.041 0 0 1-.874-1.33c-.049-.119-.084-.227-.122-.337H5.333v1.667Zm-1.666-8.334V13H12v-1.667H3.667ZM4.5 8v1.667h8.333V8H4.5Zm10-1.667V4.667H6.167v1.666H14.5ZM17 13c-.462 0-.913.092-1.34.275a3.44 3.44 0 0 0-1.723 1.73 3.389 3.389 0 0 0 .01 2.68 3.4 3.4 0 0 0 1.055 1.317 3.337 3.337 0 0 0 5.332-2.668A3.337 3.337 0 0 0 17 13Z" clip-rule="evenodd"/></svg>