<svg xmlns="http://www.w3.org/2000/svg" fill="none" viewBox="0 0 24 24"><path fill="#8DC63F" d="M21.998 11.956A10 10 0 1 1 2 12.044a10 10 0 0 1 19.998-.088"/><path fill="#F9E988" d="M21.249 11.96a9.247 9.247 0 1 1-18.494.084 9.247 9.247 0 0 1 18.494-.085"/><path fill="#fff" d="M12.17 3.353a5.1 5.1 0 0 1 1.777 0 5.4 5.4 0 0 1 1.698.57c.528.289.983.682 1.437 1.051.453.369.905.747 1.334 1.16.44.406.822.869 1.139 1.376.326.503.593 1.042.797 1.606.386 1.135.52 2.357.327 3.523h-.057c-.194-1.155-.456-2.257-.87-3.304a13 13 0 0 0-.683-1.54q-.41-.747-.9-1.444c-.333-.47-.74-.88-1.206-1.217-.47-.335-1.01-.552-1.532-.758s-1.04-.418-1.585-.575a20 20 0 0 0-1.677-.387z"/><path fill="#8BC53F" d="M16.69 8.695c-.67-.194-1.366-.47-2.07-.747-.041-.177-.198-.397-.514-.666-.46-.4-1.325-.39-2.072-.212-.824-.195-1.639-.263-2.42-.073-6.395 1.761-2.769 6.059-5.116 10.378.334.71 3.934 4.843 9.143 3.734 0 0-1.781-4.281 2.24-6.336 3.26-1.673 5.617-4.768.81-6.078"/><path fill="#fff" d="M17.48 11.507a.386.386 0 0 1-.66.278.387.387 0 0 1 .27-.663.39.39 0 0 1 .39.385"/><path fill="#009345" d="M12.034 7.067c.466.033 2.15.58 2.585.878-.362-1.05-1.581-1.19-2.585-.878"/><path fill="#fff" d="M12.478 9.723a1.787 1.787 0 1 1-3.575.002 1.787 1.787 0 0 1 3.575-.002"/><path fill="#58595B" d="M11.947 9.74a1.258 1.258 0 1 1-2.515 0 1.258 1.258 0 0 1 2.515 0"/><path fill="#8BC53F" d="M18.928 12.296c-1.449 1.02-3.097 1.795-5.434 1.795-1.094 0-1.316-1.16-2.039-.593-.373.295-1.689.953-2.733.902s-2.736-.662-3.208-2.89c-.187 2.228-.283 3.87-1.12 5.752 1.667 2.668 5.64 4.727 9.247 3.84-.387-2.706 1.977-5.357 3.31-6.713.507-.514 1.47-1.352 1.977-2.095z"/><path fill="#58595B" d="M18.872 12.362c-.45.41-.985.714-1.53.982a9.7 9.7 0 0 1-1.717.625c-.591.153-1.208.268-1.833.212-.624-.057-1.263-.269-1.676-.737l.02-.022c.507.329 1.092.444 1.674.461.59.018 1.181-.03 1.761-.145a9.6 9.6 0 0 0 1.71-.529c.554-.228 1.1-.492 1.572-.87z"/></svg>