<svg xmlns="http://www.w3.org/2000/svg" fill="none" viewBox="0 0 24 24"><g clip-path="url(#a)"><path fill="url(#b)" d="M2 6.267C1.948 4.713 3.153 3.41 4.694 3.356A2.78 2.78 0 0 1 6.962 4.4c-.654.268-2.575 1.282-3.507 4.242A2.82 2.82 0 0 1 2 6.267m1.984 2.284h5.26a5.3 5.3 0 0 0-2.395-3.64 8.65 8.65 0 0 0-2.863 3.64zm10.824 0h5.103a8.65 8.65 0 0 0-2.743-3.55 5.3 5.3 0 0 0-2.36 3.55m-6.645 4.21a5.4 5.4 0 0 0 1.145-3.592H3.755a8.7 8.7 0 0 0-.282 4.282c2.038-.03 2.842-1.365 2.842-1.365l.542.629c-.898 1.15-2.262 1.444-3.207 1.496q.097.353.228.692c2.116-.074 3.456-1.081 4.286-2.142zm1.881-2.375c-.24 1.37-.75 2.388-1.383 3.149.355.445 1.365 1.406 3.477 1.37 0 0 1.658.15 3.237-1.298-.63-.759-1.138-1.776-1.382-3.147 0 0-.676-4.057 2.362-6.008a8.6 8.6 0 0 0-3.814-1.19v3.266h-.985V3.25a8.6 8.6 0 0 0-3.878 1.121c3.046 1.95 2.366 6.015 2.366 6.015M19.645 3.4a2.82 2.82 0 0 0-2.616.95c2.478 1.36 3.195 3.422 3.457 4.282a2.78 2.78 0 0 0 1.476-2.014c.255-1.52-.782-2.961-2.317-3.218m-2.415 9.158.585-.623s.726 1.242 2.64 1.329a8.7 8.7 0 0 0-.315-4.096h-5.403a5.4 5.4 0 0 0 1.141 3.666c.807 1.032 2.097 2.014 4.114 2.133q.18-.465.304-.948c-.935-.067-2.207-.378-3.066-1.461m-5.702 4.074v-.615c-1.116-.108-2.34-.603-3.57-1.777-1.341 1.126-2.935 1.408-3.722 1.477a8.65 8.65 0 0 0 4.95 4.312 4.2 4.2 0 0 0 1.458-1.046 3.5 3.5 0 0 0 .884-2.35m-.967 3.738a8.7 8.7 0 0 0 2.955-.031 7.8 7.8 0 0 1-1.482-2.295 7.8 7.8 0 0 1-1.473 2.326m1.986-4.355v.634a3.38 3.38 0 0 0 .848 2.258c.411.459.918.822 1.485 1.064a8.65 8.65 0 0 0 4.752-4.196c-.81-.091-2.222-.394-3.45-1.378-.51.43-1.877 1.441-3.635 1.618"/></g><defs><linearGradient id="b" x1="6.234" x2="21.642" y1="5.064" y2="17.815" gradientUnits="userSpaceOnUse"><stop stop-color="#EA3570"/><stop offset=".88" stop-color="#138FC9"/></linearGradient><clipPath id="a"><path fill="#fff" d="M2 3.25h20v17.232H2z"/></clipPath></defs></svg>