<svg xmlns="http://www.w3.org/2000/svg" fill="none" viewBox="0 0 24 24"><g clip-path="url(#a)"><path fill="url(#b)" d="M2 6.267C1.948 4.713 3.153 3.41 4.694 3.356A2.779 2.779 0 0 1 6.962 4.4c-.655.268-2.575 1.282-3.507 4.242A2.818 2.818 0 0 1 2 6.267Zm1.984 2.284h5.26a5.294 5.294 0 0 0-2.395-3.64 8.647 8.647 0 0 0-2.863 3.64h-.002Zm10.823 0h5.103a8.653 8.653 0 0 0-2.742-3.55 5.292 5.292 0 0 0-2.36 3.55Zm-6.645 4.21a5.412 5.412 0 0 0 1.146-3.592H3.755a8.67 8.67 0 0 0-.282 4.282c2.038-.03 2.842-1.365 2.842-1.365l.542.629c-.898 1.15-2.262 1.444-3.207 1.496.065.235.141.466.228.692 2.115-.074 3.456-1.081 4.285-2.142Zm1.882-2.375c-.24 1.37-.75 2.388-1.383 3.149.355.445 1.365 1.406 3.477 1.37 0 0 1.657.15 3.237-1.298-.63-.759-1.138-1.776-1.382-3.147 0 0-.676-4.057 2.362-6.008a8.569 8.569 0 0 0-3.814-1.19v3.266h-.985V3.25a8.566 8.566 0 0 0-3.878 1.121c3.046 1.95 2.366 6.014 2.366 6.014ZM19.645 3.4a2.82 2.82 0 0 0-2.616.95c2.478 1.36 3.195 3.422 3.457 4.282a2.78 2.78 0 0 0 1.476-2.014c.255-1.52-.782-2.961-2.317-3.218Zm-2.415 9.158.585-.623s.726 1.242 2.64 1.329a8.7 8.7 0 0 0-.315-4.096h-5.403a5.412 5.412 0 0 0 1.141 3.666c.806 1.032 2.096 2.014 4.114 2.133a8.5 8.5 0 0 0 .304-.948c-.935-.067-2.207-.378-3.066-1.461Zm-5.702 4.074v-.615c-1.116-.108-2.34-.603-3.57-1.777-1.342 1.126-2.935 1.408-3.722 1.477a8.646 8.646 0 0 0 4.95 4.312 4.222 4.222 0 0 0 1.457-1.046 3.51 3.51 0 0 0 .885-2.35Zm-.967 3.738a8.7 8.7 0 0 0 2.955-.031 7.824 7.824 0 0 1-1.482-2.295 7.837 7.837 0 0 1-1.473 2.326Zm1.986-4.355v.634a3.375 3.375 0 0 0 .848 2.258c.411.459.918.822 1.485 1.064a8.65 8.65 0 0 0 4.752-4.196c-.81-.091-2.223-.394-3.45-1.378-.51.43-1.878 1.441-3.635 1.618Z"/></g><defs><linearGradient id="b" x1="6.234" x2="21.642" y1="5.064" y2="17.815" gradientUnits="userSpaceOnUse"><stop stop-color="#EA3570"/><stop offset=".88" stop-color="#138FC9"/></linearGradient><clipPath id="a"><path fill="#fff" d="M2 3.25h20v17.232H2z"/></clipPath></defs></svg>