<svg xmlns="http://www.w3.org/2000/svg" fill="none" viewBox="0 0 24 24"><path fill="#FDFF7F" fill-rule="evenodd" d="M12 2c5.505 0 10 4.463 10 10 0 5.505-4.462 10-10 10-5.537 0-10-4.495-10-10C2 6.463 6.463 2 12 2" clip-rule="evenodd"/><path fill="#1F1F1F" d="M12 4.15A7.854 7.854 0 0 1 19.85 12a7.854 7.854 0 0 1-13.42 5.538 7.83 7.83 0 0 1-2.313-5.57c0-2.183.88-4.137 2.313-5.57A8.05 8.05 0 0 1 12 4.15m2.932 5.537c.455 0 .846.359.846.847a.84.84 0 0 1-.847.847.84.84 0 0 1-.846-.847c0-.456.39-.847.846-.847M7.44 10.893l1.335-1.14.26-.229.261.229 1.336 1.14-.554.651-1.075-.88-1.075.88zm7.915 2.899c0 .912-.39 1.759-.977 2.377a3.3 3.3 0 0 1-2.378.978c-.912 0-1.759-.391-2.378-.978a3.3 3.3 0 0 1-.977-2.377h.847c0 .684.293 1.303.716 1.759a2.46 2.46 0 0 0 1.76.716c.683 0 1.302-.293 1.758-.716a2.46 2.46 0 0 0 .717-1.76zM19.134 12A7.13 7.13 0 0 0 12 4.867c-1.987 0-3.746.814-5.049 2.084a7.12 7.12 0 0 0-2.085 5.05c0 1.954.815 3.745 2.085 5.048A7.12 7.12 0 0 0 12 19.134 7.13 7.13 0 0 0 19.134 12"/></svg>