<svg xmlns="http://www.w3.org/2000/svg" fill="none" viewBox="0 0 24 24"><path fill="#8DC63F" d="M21.999 11.956A10 10 0 1 1 2 12.044a10 10 0 0 1 20-.088Z"/><path fill="#F9E988" d="M21.249 11.96a9.248 9.248 0 1 1-18.497.083 9.248 9.248 0 0 1 18.497-.084Z"/><path fill="#fff" d="M12.17 3.353a5.085 5.085 0 0 1 1.777 0 5.41 5.41 0 0 1 1.698.57c.528.289.983.682 1.437 1.051.453.369.905.747 1.334 1.16.44.406.822.869 1.139 1.376.326.503.593 1.042.797 1.606.386 1.135.52 2.357.327 3.523h-.057c-.194-1.155-.456-2.257-.87-3.304a12.883 12.883 0 0 0-.683-1.54c-.273-.498-.573-.98-.9-1.444-.333-.47-.74-.88-1.206-1.217-.47-.335-1.01-.552-1.532-.758-.522-.205-1.04-.418-1.585-.575a20.08 20.08 0 0 0-1.677-.387l.001-.06Z"/><path fill="#8BC53F" d="M16.69 8.695c-.67-.194-1.366-.47-2.07-.747-.04-.177-.197-.397-.514-.666-.46-.4-1.324-.39-2.071-.212-.825-.195-1.64-.263-2.421-.073-6.394 1.761-2.769 6.059-5.116 10.378.334.71 3.934 4.843 9.144 3.734 0 0-1.782-4.281 2.239-6.336 3.26-1.673 5.617-4.768.81-6.078Z"/><path fill="#fff" d="M17.48 11.507a.386.386 0 0 1-.66.278.387.387 0 0 1 .27-.663.389.389 0 0 1 .39.385Z"/><path fill="#009345" d="M12.035 7.067c.466.033 2.15.58 2.585.878-.362-1.05-1.582-1.19-2.585-.878Z"/><path fill="#fff" d="M12.478 9.723a1.788 1.788 0 1 1-3.576.002 1.788 1.788 0 0 1 3.576-.002Z"/><path fill="#58595B" d="M11.948 9.74a1.258 1.258 0 1 1-2.516 0 1.258 1.258 0 0 1 2.516 0Z"/><path fill="#8BC53F" d="M18.929 12.296c-1.45 1.02-3.097 1.795-5.434 1.795-1.095 0-1.316-1.16-2.04-.593-.372.295-1.688.953-2.732.902-1.044-.05-2.737-.662-3.209-2.89-.186 2.228-.282 3.87-1.119 5.752 1.666 2.668 5.64 4.727 9.247 3.84-.388-2.706 1.977-5.357 3.31-6.713.507-.514 1.47-1.352 1.977-2.095v.002Z"/><path fill="#58595B" d="M18.872 12.362c-.45.41-.985.714-1.53.982a9.724 9.724 0 0 1-1.717.625c-.591.153-1.208.268-1.833.212-.624-.057-1.262-.269-1.676-.737l.02-.022c.507.329 1.092.444 1.675.461a7.82 7.82 0 0 0 1.76-.145 9.582 9.582 0 0 0 1.71-.529c.554-.228 1.1-.492 1.572-.87l.02.023Z"/></svg>