<svg xmlns="http://www.w3.org/2000/svg" fill="none" viewBox="0 0 24 24"><path fill="#F8BF1E" d="M11.998 12.892a.915.915 0 0 0 .917-.913.915.915 0 0 0-.917-.913.915.915 0 0 0-.916.913c0 .504.41.913.916.913m7.307 0a.915.915 0 0 0 .916-.913.915.915 0 0 0-.916-.913.915.915 0 0 0-.916.913c0 .504.41.913.916.913m0 7.293a.915.915 0 0 0 .916-.913.915.915 0 0 0-.916-.914.915.915 0 0 0-.916.913c0 .505.41.914.916.914"/><path fill="#F8BF1E" d="M21.994 4.518a2.72 2.72 0 0 0-2.508-2.51 2.75 2.75 0 0 0-2.17.816 2.18 2.18 0 0 1-1.556.673h-.217c-.603 0-1.17-.252-1.592-.685a2.7 2.7 0 0 0-1.94-.805c-.76 0-1.448.312-1.942.805a2.22 2.22 0 0 1-1.592.685h-.204a2.18 2.18 0 0 1-1.568-.649 5 5 0 0 0-.253-.24 2.74 2.74 0 0 0-3.52.072 2.723 2.723 0 0 0-.133 3.977l.036.036c.434.408.663.985.663 1.574v.204c0 .6-.253 1.165-.687 1.586a2.68 2.68 0 0 0-.808 1.934c0 .757.313 1.442.808 1.934.434.42.687.985.687 1.586v.276a2.16 2.16 0 0 1-.675 1.55 2.7 2.7 0 0 0-.82 2.055 2.736 2.736 0 0 0 2.628 2.607 2.74 2.74 0 0 0 2.074-.841c.41-.42.965-.685 1.555-.685h.23c.59 0 1.145.252 1.555.685a2.74 2.74 0 0 0 2.182.829 2.736 2.736 0 0 0 2.52-2.523 2.723 2.723 0 0 0-2.725-2.92c-.747 0-1.434.3-1.929.793-.422.42-.989.673-1.58.673H8.26a2.22 2.22 0 0 1-1.591-.66l-.024-.025a2.2 2.2 0 0 1-.687-1.586v-.24c0-.6.253-1.165.687-1.586a2.68 2.68 0 0 0 .808-1.934c0-.757-.314-1.442-.808-1.934a2.2 2.2 0 0 1-.687-1.586v-.217c0-.6.253-1.165.675-1.585l.024-.024.024-.024a2.26 2.26 0 0 1 1.592-.673h.217c.602 0 1.17.252 1.591.685a2.7 2.7 0 0 0 1.941.805c.76 0 1.447-.313 1.941-.805a2.22 2.22 0 0 1 1.592-.685h.193c.603 0 1.17.252 1.591.685a2.7 2.7 0 0 0 1.942.805 2.704 2.704 0 0 0 2.713-2.908"/></svg>