<svg xmlns="http://www.w3.org/2000/svg" fill="none" viewBox="0 0 24 24"><path fill="#62757E" fill-rule="evenodd" d="M17 18a.833.833 0 1 1 0-1.667c2.302 0 3.333-.418 3.333-.833v-1.268c-1.17.433-2.644.435-3.334.435A.833.833 0 1 1 17 13c2.303 0 3.334-.418 3.334-.833v-1.268c-1.17.434-2.644.434-3.334.434a.833.833 0 1 1 0-1.666c2.303 0 3.334-.419 3.334-.834V7.257c-1.825.708-4.552.743-5 .743-.448 0-3.175-.035-5-.743v.76a.832.832 0 1 1-1.667 0V5.5c0-2.43 5.985-2.5 6.666-2.5C16.015 3 22 3.07 22 5.5v10c0 2.5-3.764 2.5-5 2.5ZM15.331 4.667c-2.615 0-4.296.486-4.857.833.56.347 2.242.833 4.857.833 2.616 0 4.297-.486 4.859-.833-.561-.346-2.243-.833-4.858-.833Zm.002 7.5v6.666c0 2.43-5.985 2.5-6.667 2.5-.682 0-6.667-.07-6.667-2.5v-6.666c0-2.43 5.985-2.5 6.667-2.5.682 0 6.667.07 6.667 2.5Zm-11.667 6.56c.35.341 2.102.94 5 .94s4.65-.599 5-.941v-1.47c-1.825.709-4.552.744-5 .744-.448 0-3.175-.035-5-.743v1.47Zm0-3.335c.344.34 2.096.941 5 .941s4.655-.6 5-.941v-1.469c-1.825.709-4.552.744-5 .744-.448 0-3.175-.035-5-.744v1.469Zm5-2.392c2.615 0 4.296-.487 4.858-.833-.562-.347-2.243-.834-4.858-.834-2.615 0-4.297.487-4.858.834.561.346 2.243.833 4.858.833Z" clip-rule="evenodd"/></svg>