<svg xmlns="http://www.w3.org/2000/svg" fill="none" viewBox="0 0 24 24"><path fill="#17181B" fill-rule="evenodd" d="M19.134 13.951c-.35.22-.76.248-1.072.072-.397-.224-.615-.748-.615-1.478v-2.182c0-1.053-.416-1.803-1.113-2.005-1.18-.344-2.068 1.1-2.402 1.643l-2.082 3.375V9.25c-.023-.949-.332-1.517-.917-1.688-.387-.113-.967-.068-1.53.794l-4.664 7.49A8.229 8.229 0 0 1 3.791 12c0-4.512 3.615-8.182 8.06-8.182 4.443 0 8.058 3.67 8.058 8.182 0 .008.002.015.003.022 0 .008-.002.015-.001.022.042.874-.241 1.569-.777 1.907Zm2.566-1.95v-.046C21.675 6.46 17.265 2 11.85 2 6.419 2 2 6.486 2 12s4.419 10 9.85 10a9.737 9.737 0 0 0 6.697-2.667.918.918 0 0 0-.234-1.492.887.887 0 0 0-.984.159 7.967 7.967 0 0 1-5.479 2.182c-2.38 0-4.52-1.053-5.997-2.723l4.207-6.755v3.114c0 1.496.58 1.98 1.066 2.12.487.142 1.23.045 2.012-1.223l2.313-3.75c.074-.122.143-.226.205-.316v1.896c0 1.398.56 2.517 1.536 3.067.88.497 1.986.452 2.888-.117 1.093-.69 1.682-1.962 1.62-3.494Z" clip-rule="evenodd"/></svg>