<svg xmlns="http://www.w3.org/2000/svg" fill="none" viewBox="0 0 24 24"><path fill="#62757E" fill-rule="evenodd" d="M3.15 6c0-.47.38-.85.85-.85h5.5a.85.85 0 0 1 0 1.7H4A.85.85 0 0 1 3.15 6m0 4c0-.47.38-.85.85-.85h5.5a.85.85 0 0 1 0 1.7H4a.85.85 0 0 1-.85-.85m0 4c0-.47.38-.85.85-.85h5.5a.85.85 0 0 1 0 1.7H4a.85.85 0 0 1-.85-.85m0 4c0-.47.38-.85.85-.85h5.5a.85.85 0 0 1 0 1.7H4a.85.85 0 0 1-.85-.85m10.5-12c0-.47.38-.85.85-.85H20a.85.85 0 0 1 0 1.7h-5.5a.85.85 0 0 1-.85-.85m0 4c0-.47.38-.85.85-.85H20a.85.85 0 0 1 0 1.7h-5.5a.85.85 0 0 1-.85-.85m0 4c0-.47.38-.85.85-.85H20a.85.85 0 0 1 0 1.7h-5.5a.85.85 0 0 1-.85-.85m0 4c0-.47.38-.85.85-.85H20a.85.85 0 0 1 0 1.7h-5.5a.85.85 0 0 1-.85-.85" clip-rule="evenodd"/></svg>