<svg xmlns="http://www.w3.org/2000/svg" fill="none" viewBox="0 0 24 24"><g clip-path="url(#a)"><path fill="#77C3B0" d="M12 24c6.627 0 12-5.373 12-12S18.627 0 12 0 0 5.373 0 12s5.373 12 12 12"/><path fill="#fff" d="m17.683 10.143-.97-.97a1.56 1.56 0 0 0-1.114-.46h-.15v-.156c0-.272-.064-.53-.2-.764a1.4 1.4 0 0 0-.272-.362l-.97-.971A1.56 1.56 0 0 0 12.893 6H8.421a1.56 1.56 0 0 0-1.113.46l-.97.97a1.54 1.54 0 0 0-.46 1.107l-.027 4.195c-.006.42.162.828.46 1.126l.97.97a1.56 1.56 0 0 0 1.114.46h.175v.155c0 .273.065.531.2.764q.107.206.272.362l.971.972a1.56 1.56 0 0 0 1.113.459h4.48c.42 0 .815-.162 1.112-.46l.972-.97a1.56 1.56 0 0 0 .459-1.113V11.25a1.57 1.57 0 0 0-.466-1.107m-9.288 3.721a.16.16 0 0 1-.11-.045l-.485-.486-.486-.485a.2.2 0 0 1-.045-.084v-4.22c0-.046.02-.084.046-.11l.97-.97c.013-.014.026-.02.039-.027a.2.2 0 0 1 .077-.02h4.48c.025 0 .045.007.07.02q.028.012.046.033l.97.97a.1.1 0 0 1 .033.046q.009.01.007.02c0 .005.006.012.006.019s.007.026.007.038v.207a.153.153 0 0 1-.156.155h-.776a.16.16 0 0 1-.11-.044l-.44-.44H8.744l-.162.16-.22.222v3.643l.382.382h3.786l.44-.446.006-.007c.013-.006.027-.02.04-.026.019-.013.045-.013.064-.013h.776a.17.17 0 0 1 .13.065q.03.04.033.09v.22a.15.15 0 0 1-.046.11l-.485.486-.486.485c-.006.007-.02.014-.025.02 0 0-.007.006-.014.006q-.008.009-.02.007c-.005 0-.005 0-.012.006-.006 0-.013.007-.02.007H8.396zm8.337 1.58a.16.16 0 0 1-.046.11l-.97.97a.1.1 0 0 1-.04.026.2.2 0 0 1-.077.02h-4.48a.15.15 0 0 1-.07-.02.1.1 0 0 1-.045-.032l-.971-.971q-.021-.018-.033-.045-.009-.01-.007-.02c0-.006-.005-.013-.005-.019s-.007-.026-.007-.039v-.207c0-.09.071-.155.155-.155h.776c.046 0 .085.02.11.045l.441.44h3.786l.162-.162.22-.22v-3.643l-.382-.383h-3.78l-.44.447-.006.006c-.013.007-.026.02-.039.026-.02.013-.045.013-.065.013h-.776a.17.17 0 0 1-.13-.065.15.15 0 0 1-.032-.09v-.22a.16.16 0 0 1 .045-.11l.486-.485.485-.486c.007-.006.02-.013.026-.02 0 0 .007-.005.013-.005q.01-.009.02-.007c.005 0 .005 0 .012-.007.006 0 .013-.006.02-.006h4.511a.16.16 0 0 1 .11.045l.485.486.486.485q.01.008.019.026.017.027.026.058v.032c.007-.012.007 4.182.007 4.182"/></g><defs><clipPath id="a"><path fill="#fff" d="M0 0h24v24H0z"/></clipPath></defs></svg>