<svg xmlns="http://www.w3.org/2000/svg" fill="none" viewBox="0 0 24 24"><path fill="currentColor" fill-rule="evenodd" d="M5.435 5.706A45.112 45.112 0 0 1 12 5.227c2.23 0 4.423.164 6.565.479 1.103.162 1.918 1.14 1.918 2.309v5.705c0 1.169-.815 2.147-1.918 2.309-1.734.255-3.5.41-5.294.46a2.204 2.204 0 0 0-1.498.642l-2.57 2.57v-2.572a.758.758 0 0 0-.7-.757 44.844 44.844 0 0 1-3.068-.343c-1.103-.162-1.918-1.14-1.918-2.31V8.016c0-1.169.815-2.147 1.918-2.31ZM12 3.71c-2.305 0-4.57.169-6.786.494C3.314 4.485 2 6.148 2 8.015v5.705c0 1.866 1.314 3.53 3.214 3.81.818.12 1.642.218 2.473.295v3.706a.758.758 0 0 0 1.295.536l3.863-3.864a.688.688 0 0 1 .468-.198 46.528 46.528 0 0 0 5.473-.476c1.9-.279 3.214-1.943 3.214-3.81V8.016c0-1.867-1.314-3.53-3.214-3.81A46.63 46.63 0 0 0 12 3.711Zm-4.756 8.033a.832.832 0 0 0 0 1.178C7.322 13 9.187 14.832 12 14.832s4.677-1.832 4.756-1.91a.832.832 0 1 0-1.178-1.179c-.015.014-1.448 1.423-3.578 1.423-2.083 0-3.534-1.381-3.577-1.422a.832.832 0 0 0-1.179 0ZM13.667 9a.833.833 0 1 0 1.665.002A.833.833 0 0 0 13.667 9Zm-5 0a.833.833 0 1 0 1.665.002A.833.833 0 0 0 8.667 9Z" clip-rule="evenodd"/></svg>