<svg xmlns="http://www.w3.org/2000/svg" fill="none" viewBox="0 0 24 24"><g clip-path="url(#a)"><path fill="#00D395" d="M12 24c6.627 0 12-5.373 12-12S18.627 0 12 0 0 5.373 0 12s5.373 12 12 12"/><path fill="#fff" fill-rule="evenodd" d="M6.974 15.91a1.17 1.17 0 0 1-.574-1v-2.277c0-.27.225-.49.501-.488.088 0 .175.023.252.066l5.252 2.997a.98.98 0 0 1 .497.845v2.359a.59.59 0 0 1-.598.588.6.6 0 0 1-.315-.086zm7.829-4.322a.98.98 0 0 1 .497.844v4.789a.39.39 0 0 1-.204.34l-1.15.633a.2.2 0 0 1-.046.02v-2.66a.97.97 0 0 0-.487-.84l-4.612-2.7V9.013c0-.271.225-.49.502-.489a.5.5 0 0 1 .251.067zm2.3-3.537a.97.97 0 0 1 .497.846v6.993a.4.4 0 0 1-.21.345l-1.09.576v-4.87a.98.98 0 0 0-.486-.839L11.1 8.335V5.49c0-.087.025-.172.067-.247a.507.507 0 0 1 .684-.177z" clip-rule="evenodd"/></g><defs><clipPath id="a"><path fill="#fff" d="M0 0h24v24H0z"/></clipPath></defs></svg>