<svg xmlns="http://www.w3.org/2000/svg" fill="none" viewBox="0 0 24 24"><path fill="#070A0E" d="M12 22c5.523 0 10-4.477 10-10S17.523 2 12 2 2 6.477 2 12s4.477 10 10 10Z"/><path fill="#00D395" fill-rule="evenodd" d="M7.776 15.353a1.007 1.007 0 0 1-.482-.858V12.54a.42.42 0 0 1 .632-.362l4.41 2.571a.84.84 0 0 1 .416.725v2.024a.503.503 0 0 1-.767.43l-4.209-2.576Zm6.573-3.71a.84.84 0 0 1 .416.726v4.107a.335.335 0 0 1-.17.293l-.966.543a.188.188 0 0 1-.039.016v-2.28a.84.84 0 0 0-.408-.722L9.31 12.01V9.435a.42.42 0 0 1 .631-.362l4.408 2.57Zm1.93-3.033a.84.84 0 0 1 .418.726v6a.336.336 0 0 1-.177.295l-.915.494v-4.177a.84.84 0 0 0-.407-.72L11.24 8.854V6.412a.42.42 0 0 1 .63-.363l4.409 2.56Z" clip-rule="evenodd"/></svg>