<svg xmlns="http://www.w3.org/2000/svg" fill="none" viewBox="0 0 24 24"><path fill="currentColor" fill-rule="evenodd" d="M13.82 20.333H2.834a.834.834 0 0 1 0-1.666h10.988A2.494 2.494 0 0 1 16.167 17c1.085 0 2 .698 2.346 1.667h2.654a.834.834 0 0 1 0 1.666h-2.654A2.497 2.497 0 0 1 16.167 22c-1.085 0-2.001-.7-2.346-1.667ZM17 19.5a.834.834 0 1 0-1.668.002A.834.834 0 0 0 17 19.5ZM5.487 12.833H2.833a.834.834 0 0 1 0-1.666h2.654A2.497 2.497 0 0 1 7.833 9.5c1.085 0 2.001.7 2.347 1.667h10.987a.834.834 0 0 1 0 1.666H10.18A2.496 2.496 0 0 1 7.833 14.5c-1.085 0-2-.698-2.346-1.667ZM8.667 12a.834.834 0 1 0-1.669.002A.834.834 0 0 0 8.667 12Zm.986-6.667h-6.82a.834.834 0 0 1 0-1.666h6.82A2.495 2.495 0 0 1 12 2c1.085 0 2.002.698 2.347 1.667h6.82a.834.834 0 0 1 0 1.666h-6.82A2.497 2.497 0 0 1 12 7c-1.085 0-2.002-.7-2.347-1.667Zm3.18-.833A.835.835 0 0 0 12 3.667a.835.835 0 0 0-.833.833.834.834 0 0 0 1.666 0Z" clip-rule="evenodd"/></svg>