<svg xmlns="http://www.w3.org/2000/svg" fill="none" viewBox="0 0 24 24"><circle cx="12" cy="12" r="8" fill="#fff"/><path fill="url(#a)" d="M12 2a10 10 0 1 0 0 20 10 10 0 0 0 0-20m6.147 12.951A6.817 6.817 0 0 1 5.532 9.869 6.8 6.8 0 0 1 7 7.363c.049-.06.137.01.108.078a5.75 5.75 0 0 0-.726 2.843c0 2.804 1.902 5.079 4.236 5.079 1.47 0 2.774-.902 3.53-2.275a.066.066 0 0 1 .078-.03l3.882 1.815c.04 0 .059.039.04.078m-.03-5.853-3.95 1.843a.07.07 0 0 1-.089-.03 2.333 2.333 0 1 0-2.862 3.266c.02.01.01.02-.01.02h-.069c-2.078 0-3.774-2.02-3.774-4.52V9.52c.068-2.363 2-4.255 4.363-4.344.088 0 .176-.01.274-.01a6.83 6.83 0 0 1 6.137 3.844c.03.03.01.068-.02.088"/><defs><linearGradient id="a" x1="20.849" x2="1.731" y1="20.938" y2="1.627" gradientUnits="userSpaceOnUse"><stop stop-color="#3DEDD6"/><stop offset="1" stop-color="#2C55DD"/></linearGradient></defs></svg>