<svg xmlns="http://www.w3.org/2000/svg" fill="none" viewBox="0 0 24 24"><g fill="#000" clip-path="url(#a)"><path d="M11.138 21.8a.033.033 0 0 0-.03.03c0 .016.015.032.03.032.016 0 .031-.016.031-.031.016-.031 0-.031-.03-.031Zm-.923-.338c-.03 0-.061.03-.061.061 0 .03.03.062.061.062s.062-.031.062-.062c0-.03-.03-.061-.062-.061Zm-.907-.416a.105.105 0 0 0-.108.108c0 .061.046.108.108.108a.105.105 0 0 0 .107-.108.105.105 0 0 0-.107-.108Zm-.847-.508a.138.138 0 0 0-.138.139.138.138 0 1 0 .277 0c-.015-.077-.077-.139-.139-.139Zm-.8-.6a.17.17 0 0 0-.169.17.17.17 0 0 0 .17.169.17.17 0 0 0 .169-.17c0-.107-.077-.169-.17-.169Zm-.738-.692c-.108 0-.2.092-.2.2 0 .108.092.2.2.2.108 0 .2-.092.2-.2 0-.108-.092-.2-.2-.2Zm-.662-.754a.237.237 0 0 0-.23.231c0 .123.107.23.23.23a.236.236 0 0 0 .231-.23.237.237 0 0 0-.23-.23Zm-.584-.815a.276.276 0 0 0-.277.277c0 .154.123.277.277.277a.276.276 0 0 0 .277-.277.276.276 0 0 0-.277-.277Zm-.17-.585a.309.309 0 0 0-.307-.307.309.309 0 0 0-.308.307c0 .17.139.308.308.308.17-.015.308-.154.308-.308Zm-.322-.923a.342.342 0 0 0-.339-.338.342.342 0 0 0-.338.338c0 .185.154.339.338.339a.332.332 0 0 0 .339-.339Zm-.2-.938c0-.2-.17-.37-.37-.37-.2 0-.369.17-.369.37 0 .2.17.369.37.369.2 0 .369-.17.369-.37Zm-.077-.985c0-.23-.185-.4-.4-.4-.216 0-.4.185-.4.4 0 .215.184.4.4.4.215.015.4-.17.4-.4Zm-.4-.538c.246 0 .43-.2.43-.447a.43.43 0 0 0-.43-.43c-.247 0-.447.2-.447.43.016.247.216.447.447.447Zm-.323-1.4a.48.48 0 0 0 .477.477.48.48 0 0 0 .476-.477.48.48 0 0 0-.476-.477.48.48 0 0 0-.477.477Zm14.184 7.23a.033.033 0 0 0-.03.031c0 .016.015.031.03.031.016 0 .031-.015.031-.03-.015-.016-.015-.032-.03-.032Zm-.877.431c-.03 0-.061.031-.061.062 0 .03.03.061.061.061s.062-.03.062-.061c0-.046-.031-.062-.062-.062Zm-.907.323a.1.1 0 0 0-.093.093.1.1 0 0 0 .093.092.1.1 0 0 0 .092-.092.1.1 0 0 0-.092-.093Zm-.939.231a.121.121 0 0 0-.123.123.12.12 0 0 0 .123.123.132.132 0 0 0 .123-.123c-.015-.061-.061-.123-.123-.123Zm-.97.139a.154.154 0 0 0-.153.153.154.154 0 0 0 .308 0 .154.154 0 0 0-.154-.154Zm-.984.03a.187.187 0 0 0-.184.185c0 .092.077.184.184.184a.187.187 0 0 0 .185-.184.178.178 0 0 0-.185-.185Zm-.969-.077a.22.22 0 0 0-.215.216.22.22 0 0 0 .215.215.22.22 0 0 0 .215-.215c-.015-.123-.107-.216-.215-.216Zm-.97-.169a.227.227 0 0 0-.23.23c0 .14.108.247.23.247a.243.243 0 0 0 .247-.246c-.015-.123-.123-.23-.246-.23Zm-.938-.292a.26.26 0 0 0-.261.261.26.26 0 0 0 .261.262.26.26 0 0 0 .262-.262.26.26 0 0 0-.262-.261Zm-.907-.431a.292.292 0 1 0 .292.292c.015-.154-.123-.292-.292-.292Zm-.508-.2a.325.325 0 0 0-.323-.323.315.315 0 0 0-.323.323c0 .185.154.323.323.323.17 0 .323-.138.323-.323Zm-1.092-.97a.35.35 0 0 0-.354.355c0 .2.154.354.354.354.2 0 .354-.154.354-.354 0-.2-.154-.354-.354-.354Zm-.677-.738a.38.38 0 0 0-.385.385c0 .215.17.385.385.385a.38.38 0 0 0 .384-.385.38.38 0 0 0-.384-.385Zm-.585.016c.23 0 .415-.185.415-.416A.414.414 0 0 0 7.046 17a.414.414 0 0 0-.415.415c0 .231.184.416.415.416Zm-.03-1.262a.446.446 0 1 0-.893 0 .446.446 0 0 0 .892 0Zm14.86-3.723a.033.033 0 0 0-.03.03c0 .016.015.032.03.032.016 0 .032-.016.032-.031-.016-.03-.031-.03-.031-.03Zm-.291.908c-.031 0-.047.03-.047.046 0 .03.031.046.047.046.03 0 .046-.03.046-.046 0-.03-.031-.046-.046-.046Zm-.4.861c-.047 0-.077.031-.077.077s.03.077.077.077c.046 0 .077-.03.077-.077.015-.03-.031-.077-.077-.077Zm-.477.831a.105.105 0 0 0-.108.108c0 .061.046.107.108.107a.105.105 0 0 0 .107-.107.105.105 0 0 0-.107-.108Zm-.57.77a.138.138 0 0 0-.138.138c0 .077.061.138.138.138a.138.138 0 0 0 .139-.138.138.138 0 0 0-.139-.139Zm-.646.707a.154.154 0 1 0 .154.154c.015-.077-.061-.154-.154-.154Zm-.723.646a.178.178 0 0 0-.184.185c0 .107.076.184.184.184a.178.178 0 0 0 .185-.184.178.178 0 0 0-.185-.185Zm-.784.539a.21.21 0 0 0-.216.215.21.21 0 0 0 .216.215.21.21 0 0 0 .215-.215.22.22 0 0 0-.215-.215Zm-.862.461a.243.243 0 0 0-.246.246c0 .139.108.246.246.246a.243.243 0 0 0 .246-.246.243.243 0 0 0-.246-.246Zm-.908.323a.26.26 0 0 0-.261.262.26.26 0 0 0 .261.261.26.26 0 0 0 .262-.261.26.26 0 0 0-.262-.262Zm-.954.216a.292.292 0 1 0 0 .584.292.292 0 0 0 0-.584Zm-.969.077a.316.316 0 0 0-.323.323c0 .169.139.323.323.323a.315.315 0 0 0 .323-.323.325.325 0 0 0-.323-.323Zm-.63.307a.358.358 0 0 0-.354-.354.345.345 0 0 0-.339.354c0 .185.154.354.339.354.2 0 .354-.154.354-.354Zm-.939-.138c0-.2-.17-.37-.37-.37-.2 0-.368.17-.368.37 0 .2.169.369.369.369.2 0 .369-.17.369-.37Zm-.923-.277c0-.216-.185-.4-.4-.4-.215 0-.4.184-.4.4 0 .215.185.4.4.4.23 0 .4-.185.4-.4Zm-.862-.385a.43.43 0 1 0-.861 0 .43.43 0 0 0 .43.431c.231-.015.431-.2.431-.43Zm8.677-13.015c.016 0 .031-.015.031-.03a.033.033 0 0 0-.03-.032c-.016 0-.031.016-.031.031 0 .016.015.03.03.03Zm.447.892c.03 0 .046-.03.046-.046 0-.03-.031-.046-.047-.046-.03 0-.046.03-.046.046 0 .015.016.046.046.046Zm.369.939c.046 0 .077-.031.077-.077s-.031-.077-.077-.077-.077.03-.077.077c0 .03.03.077.077.077Zm.261.969a.105.105 0 0 0 .108-.108.105.105 0 0 0-.108-.107.105.105 0 0 0-.107.107c0 .062.046.108.107.108Zm.031.861c0 .077.062.139.139.139A.138.138 0 0 0 21 9.338a.138.138 0 0 0-.139-.138.138.138 0 0 0-.138.138Zm.185.816a.154.154 0 0 0 0 .307.154.154 0 0 0 .153-.153c.016-.093-.061-.154-.153-.154Zm-.031.954a.178.178 0 0 0-.185.184c0 .108.077.185.185.185a.178.178 0 0 0 .184-.185.187.187 0 0 0-.184-.184Zm-.154.938a.21.21 0 0 0-.215.216.21.21 0 0 0 .215.215.21.21 0 0 0 .215-.216.21.21 0 0 0-.215-.215Zm-.03 1.154a.243.243 0 0 0-.247-.246.243.243 0 0 0-.246.246c0 .138.108.246.246.246a.243.243 0 0 0 .246-.246Zm-.632.63a.26.26 0 0 0-.261.262.26.26 0 0 0 .261.262.26.26 0 0 0 .262-.262c.015-.138-.108-.261-.262-.261Zm-.492.816a.292.292 0 1 0 0 .584.292.292 0 0 0 0-.584Zm-.615.739a.325.325 0 0 0-.323.323c0 .184.138.323.323.323a.315.315 0 0 0 .323-.323.325.325 0 0 0-.323-.323Zm-.708.646a.358.358 0 0 0-.354.354c0 .184.154.353.354.353a.358.358 0 0 0 .354-.353c0-.2-.154-.354-.354-.354Zm-.784.554c-.2 0-.37.169-.37.369 0 .2.17.369.37.369.2 0 .369-.17.369-.37 0-.2-.17-.368-.37-.368Zm-.862.446c-.215 0-.4.184-.4.4 0 .215.185.4.4.4.215 0 .4-.185.4-.4 0-.216-.17-.4-.4-.4Zm-.908.338a.43.43 0 1 0 0 .862.43.43 0 0 0 .431-.431c0-.23-.2-.43-.43-.43Zm-2.784-15.2c.015 0 .03-.015.03-.03 0-.016-.015-.031-.03-.031a.033.033 0 0 0-.031.03c0 .016.015.031.03.031Zm.938.308c.03 0 .046-.03.046-.046 0-.031-.03-.046-.046-.046-.03 0-.061.03-.061.046 0 .03.03.046.061.046Zm.892.415c.047 0 .077-.03.077-.077 0-.046-.03-.077-.077-.077-.046 0-.076.031-.076.077 0 .047.03.077.076.077Zm.862.508a.105.105 0 0 0 .108-.108.105.105 0 0 0-.108-.107.105.105 0 0 0-.108.107c0 .062.046.108.108.108Zm.8.6a.138.138 0 0 0 .138-.138.138.138 0 0 0-.138-.139.138.138 0 0 0-.138.139c0 .076.061.138.138.138Zm.723.677a.154.154 0 0 0 0-.308.154.154 0 0 0-.154.154c0 .077.077.154.154.154Zm.662.738a.178.178 0 0 0 .184-.184.178.178 0 0 0-.184-.185.178.178 0 0 0-.185.185c0 .107.092.184.185.184Zm.584.816a.21.21 0 0 0 .216-.216.21.21 0 0 0-.216-.215.21.21 0 0 0-.215.215.21.21 0 0 0 .215.216Zm.477.892a.243.243 0 0 0 .246-.246.243.243 0 0 0-.246-.246.243.243 0 0 0-.246.246c0 .138.108.246.246.246Zm.092.662a.26.26 0 0 0 .262.261.26.26 0 0 0 .262-.261.26.26 0 0 0-.262-.262.27.27 0 0 0-.262.262Zm.216.953c0 .17.138.293.292.293a.303.303 0 0 0 .292-.293.292.292 0 1 0-.584 0Zm.077.97c0 .184.138.323.323.323a.315.315 0 0 0 .323-.323.316.316 0 0 0-.323-.323c-.17.015-.323.153-.323.323Zm.646.984a.358.358 0 0 0-.354-.354.358.358 0 0 0-.354.354c0 .185.154.354.354.354.2 0 .354-.154.354-.354Zm-.108.97c0-.2-.169-.37-.369-.37-.2 0-.37.17-.37.37 0 .2.17.369.37.369.2 0 .37-.17.37-.37Zm-.246.938c0-.215-.185-.4-.4-.4-.215 0-.4.185-.4.4 0 .215.185.4.4.4.215 0 .4-.17.4-.4Zm-.8.477a.43.43 0 1 0 0 .861.43.43 0 0 0 .43-.43.42.42 0 0 0-.43-.431ZM5.693 4.43c.015 0 .03-.016.03-.031a.033.033 0 0 0-.03-.03.033.033 0 0 0-.031.03c0 .015.015.03.03.03ZM6.552 4c.032 0 .062-.03.062-.046 0-.031-.03-.046-.061-.046s-.046.03-.046.046c0 .015.015.046.046.046Zm.909-.338c.046 0 .076-.031.076-.077 0-.047-.03-.077-.077-.077-.046 0-.076.03-.076.077 0 .046.03.077.077.077Zm.953-.231a.105.105 0 0 0 .108-.108.105.105 0 0 0-.108-.108.105.105 0 0 0-.107.108c0 .046.046.108.107.108Zm.954-.139a.138.138 0 0 0 .139-.138.138.138 0 0 0-.139-.139.138.138 0 0 0-.138.139c.015.077.077.138.138.138Zm.985-.046a.154.154 0 0 0 0-.308.154.154 0 0 0-.154.154c-.015.093.062.154.154.154Zm.984.077a.178.178 0 0 0 .185-.185.178.178 0 0 0-.185-.184.178.178 0 0 0-.184.184c-.016.108.077.185.184.185Zm.954.17a.21.21 0 0 0 .216-.216.21.21 0 0 0-.216-.215.21.21 0 0 0-.215.215c.015.123.108.215.215.215Zm.954.292a.243.243 0 0 0 .246-.247.243.243 0 0 0-.246-.246.243.243 0 0 0-.246.246c0 .139.108.247.246.247Zm.892.415a.26.26 0 0 0 .262-.262.26.26 0 0 0-.262-.261.26.26 0 0 0-.261.261.26.26 0 0 0 .261.262Zm.554.246a.292.292 0 1 0 .293-.292.283.283 0 0 0-.293.292Zm1.046.923c.17 0 .323-.138.323-.323a.325.325 0 0 0-.323-.323.316.316 0 0 0-.323.323c.016.185.154.323.323.323Zm.693.739a.358.358 0 0 0 .354-.354.358.358 0 0 0-.354-.354.358.358 0 0 0-.354.354c0 .2.154.354.354.354Zm.569.061c-.2 0-.37.17-.37.37 0 .2.17.369.37.369.2 0 .37-.17.37-.37.015-.2-.155-.369-.37-.369Zm.077 1.231c0 .215.184.4.4.4.215 0 .4-.185.4-.4 0-.215-.185-.4-.4-.4-.215 0-.4.185-.4.4Zm.338.908a.43.43 0 1 0 .862 0 .43.43 0 0 0-.43-.431c-.247.015-.432.2-.432.43Zm.662.507a.45.45 0 0 0-.446.462.446.446 0 0 0 .892 0 .45.45 0 0 0-.446-.462ZM2.185 11.046c-.031 0-.047.016-.047.046 0 .031.031.046.047.046.03 0 .046-.015.046-.046 0-.015-.016-.046-.046-.046Zm.292-.984a.105.105 0 0 0-.108.107c0 .062.046.108.108.108a.105.105 0 0 0 .108-.108c-.016-.061-.062-.107-.108-.107Zm.538-.8a.154.154 0 0 0-.307 0 .154.154 0 0 0 .307 0Zm.323-.647c.108 0 .2-.092.2-.2 0-.107-.092-.2-.2-.2-.107 0-.2.093-.2.2 0 .108.093.2.2.2Zm.57-.753a.243.243 0 0 0 .246-.247.243.243 0 0 0-.246-.246.243.243 0 0 0-.246.246c0 .139.107.247.246.247Zm.646-.677a.309.309 0 0 0 0-.615.309.309 0 0 0-.308.307c.015.17.139.308.308.308Zm.723-.616c.2 0 .354-.154.354-.354 0-.2-.154-.353-.354-.353-.2 0-.354.153-.354.353 0 .2.154.354.354.354Zm.784-.523c.231 0 .4-.184.4-.4 0-.215-.184-.4-.4-.4-.215 0-.4.185-.4.4 0 .216.185.4.4.4Zm.862-.446a.446.446 0 1 0-.446-.446c-.016.246.184.446.446.446Z"/><path d="M7.83 5.292a.497.497 0 0 0 .493-.43.54.54 0 0 0 .446.23c.216 0 .4-.123.493-.292a.636.636 0 0 0 .476.246.58.58 0 0 0 .447-.2c.123.17.307.277.538.277a.626.626 0 0 0 .37-.123c.03.046.046.077.076.108a.748.748 0 0 0-.43.2.7.7 0 0 0-1.046.108.603.603 0 0 0-.4-.139.663.663 0 0 0-.6.385.479.479 0 0 0-.34-.123.61.61 0 0 0-.6.476.555.555 0 0 0-.307-.092.584.584 0 0 0-.584.585.535.535 0 0 0-.815.462c0 .045.015.107.015.153a.519.519 0 0 0-.262-.077.512.512 0 0 0-.508.508c0 .277.231.508.508.508s.508-.231.508-.508c0-.046 0-.092-.016-.123a.532.532 0 0 0 .83-.43c.093.06.201.091.309.091h.03a.651.651 0 0 0-.215.447c-.046 0-.077-.016-.123-.016a.65.65 0 0 0-.646.646v.077H6.4a.6.6 0 0 0-.6.6.9.9 0 0 0 .03.2H5.8a.568.568 0 0 0-.57.57c0 .107.032.215.093.292h-.015a.545.545 0 0 0-.37.938h-.015a.512.512 0 0 0-.508.508c0 .277.231.508.508.508s.508-.231.508-.508A.5.5 0 0 0 5.277 11h.03a.559.559 0 0 0 .4-.17v.016c0 .139.047.262.124.37a.597.597 0 0 0-.4.553c0 .185.077.339.215.446a.558.558 0 0 0-.323.508c0 .215.123.4.308.508a.539.539 0 0 0-.293.477c0 .261.185.461.416.523a.48.48 0 0 0-.277.446c0 .277.23.508.508.508.03 0 .061 0 .092-.016a.476.476 0 0 0-.339.446.48.48 0 0 0 .477.477.48.48 0 0 0 .477-.477.48.48 0 0 0-.477-.476.2.2 0 0 0-.092.015.513.513 0 0 0 .354-.477v-.03a.479.479 0 0 0 .292.168.604.604 0 0 0-.138.37c0 .307.246.553.554.553H7.2a.573.573 0 0 0-.108.308c0 .293.246.539.539.539.061 0 .107-.016.154-.016a.512.512 0 0 0 .43.785.494.494 0 0 0 .308-.108.457.457 0 0 0-.123.308.48.48 0 0 0 .477.477.48.48 0 0 0 .477-.477.419.419 0 0 0-.139-.323c.062 0 .123-.016.185-.031 0 .23.123.43.323.523-.03 0-.061-.015-.092-.015-.246 0-.446.2-.446.446s.2.461.446.461.461-.2.461-.461a.444.444 0 0 0-.246-.4.425.425 0 0 0 .139.015.55.55 0 0 0 .307-.092.554.554 0 0 0 .554.508.533.533 0 0 0 .4-.17.529.529 0 0 0 .523.447c.2 0 .385-.108.477-.277.046.23.246.4.492.4.262 0 .477-.2.508-.447a.474.474 0 0 0 .477.447.476.476 0 0 0 .015-.954.554.554 0 0 0 .108-.154.61.61 0 0 0 .416.185c.061 0 .123-.016.184-.031a.433.433 0 0 0-.2.369c0 .246.2.462.462.462a.45.45 0 0 0 .446-.462c0-.246-.2-.446-.446-.446-.046 0-.093.015-.123.015a.54.54 0 0 0 .261-.369c.092.077.23.139.354.139.308 0 .57-.247.57-.554v-.016c.092.062.2.108.307.108a.545.545 0 0 0 .538-.538c0-.062 0-.108-.03-.154a.54.54 0 0 0 .277.092c.277 0 .507-.23.507-.508a.496.496 0 0 0-.107-.307.43.43 0 0 0 .307.123.48.48 0 0 0 .477-.477.48.48 0 0 0-.815-.339c0-.061-.016-.123-.031-.184.23 0 .43-.123.523-.323 0 .03-.015.061-.015.092 0 .246.2.446.461.446a.46.46 0 0 0 .462-.446.45.45 0 0 0-.462-.446.443.443 0 0 0-.4.246c.016-.046.016-.092.016-.139a.554.554 0 0 0-.093-.307.543.543 0 0 0 .508-.554.533.533 0 0 0-.17-.4.529.529 0 0 0 .447-.523c0-.2-.108-.385-.277-.477.23-.046.4-.246.4-.492 0-.262-.2-.477-.462-.508a.485.485 0 0 0 .447-.477.48.48 0 0 0-.477-.477.48.48 0 0 0-.477.477c0 .246.184.446.43.477a.507.507 0 0 0-.476.508.53.53 0 0 0 .261.446.543.543 0 0 0-.446.523.51.51 0 0 0 .154.369.564.564 0 0 0-.492.554c0 .108.03.2.076.277a.589.589 0 0 0-.553.584c0 .062.015.123.03.17h-.03a.617.617 0 0 0-.616.615v.046c-.03 0-.061-.015-.092-.015a.645.645 0 0 0-.63.554c-.062-.016-.108-.031-.17-.031a.663.663 0 0 0-.6.385.597.597 0 0 0-.477-.124.574.574 0 0 0-.43.339.56.56 0 0 0-.508-.185.541.541 0 0 0-.431.308.577.577 0 0 0-.462-.215.617.617 0 0 0-.43.184.557.557 0 0 0-.37-.323.582.582 0 0 0-.507.077.602.602 0 0 0-.323-.4.554.554 0 0 0-.493 0 .592.592 0 0 0-.215-.446.641.641 0 0 0-.462-.123c.046-.17 0-.339-.107-.492a.568.568 0 0 0-.462-.231.649.649 0 0 0-.015-.508.584.584 0 0 0-.37-.292.577.577 0 0 0 .108-.446.559.559 0 0 0-.292-.416.598.598 0 0 0 .23-.477.572.572 0 0 0-.2-.43.581.581 0 0 0 .215-.862.63.63 0 0 0 .386-.277.56.56 0 0 0 .046-.492.558.558 0 0 0 .461-.2.555.555 0 0 0 .139-.477.54.54 0 0 0 .477-.092.572.572 0 0 0 .246-.431.586.586 0 0 0 .508.015.581.581 0 0 0 .323-.338.59.59 0 0 0 .446.154.584.584 0 0 0 .446-.277c.092.138.261.23.43.246a.53.53 0 0 0 .447-.17.58.58 0 0 0 .369.339c.17.062.37.03.508-.062a.62.62 0 0 0 .292.416.571.571 0 0 0 .415.061c.016.016.031.046.047.062 0 .123.061.246.153.354l.016.015c.292.308 1 1.077.861 2.092-.03.262.108.385.293.185 1.107-1.185.938-2.662.907-2.83a.826.826 0 0 0-.077-.324c.016-.061.016-.123.016-.184a.97.97 0 0 0-.37-.754c.016-.062.016-.108.016-.17a.907.907 0 0 0-.57-.846.887.887 0 0 0-.738-.846.827.827 0 0 0-.815-.677h-.046a.796.796 0 0 0-.739-.538.9.9 0 0 0-.2.03.731.731 0 0 0-.677-.43c-.123 0-.23.03-.323.077a.698.698 0 0 0-.6-.339.7.7 0 0 0-.43.154.642.642 0 0 0-.524-.277.65.65 0 0 0-.507.246.598.598 0 0 0-.477-.23.594.594 0 0 0-.554.353.549.549 0 0 0-.43-.2.552.552 0 0 0-.555.493.488.488 0 0 0-.4-.2.512.512 0 0 0-.507.507c.138.247.369.477.646.477ZM4.447 18.277c-.015 0-.03.015-.03.046 0 .015.015.046.03.046.016 0 .046-.015.046-.046-.015-.03-.03-.046-.046-.046Zm-.461-.908c-.047 0-.077.031-.077.077s.03.077.077.077c.046 0 .077-.03.077-.077 0-.03-.031-.077-.077-.077Zm-.354-.938a.121.121 0 0 0-.123.123c0 .061.046.123.123.123a.121.121 0 0 0 .123-.123c-.016-.077-.062-.123-.123-.123Zm-.277-.985a.154.154 0 0 0-.154.154c0 .092.062.154.154.154s.154-.062.154-.154c.015-.092-.062-.154-.154-.154Zm.03-.815c0-.108-.092-.2-.2-.2-.107 0-.2.092-.2.2 0 .107.093.2.2.2.124 0 .2-.092.2-.2Zm-.015-.97a.237.237 0 0 0-.23-.23.237.237 0 0 0-.231.23c0 .124.107.231.23.231a.236.236 0 0 0 .231-.23Zm-.461-.984c0 .154.123.277.277.277a.276.276 0 0 0 .277-.277.276.276 0 0 0-.277-.277.276.276 0 0 0-.277.277Zm.415-.662c.17 0 .308-.138.308-.307a.309.309 0 0 0-.308-.308.309.309 0 0 0-.308.308c0 .169.139.307.308.307Zm.277-1.6c-.2 0-.354.154-.354.354 0 .2.154.354.354.354.2 0 .354-.154.354-.354-.016-.2-.17-.354-.354-.354Zm.385-.153a.38.38 0 0 0 .384-.385.38.38 0 0 0-.384-.385.38.38 0 0 0-.385.385c0 .2.17.385.385.385Z"/><path d="M4.492 9.462a.43.43 0 1 0 0-.862.43.43 0 1 0 0 .862Zm1.077-1.2a.463.463 0 0 0-.461-.462.463.463 0 0 0-.462.462c0 .261.216.461.462.461.246.016.461-.2.461-.461Z"/></g><defs><clipPath id="a"><path fill="#fff" d="M2 2h20v20H2z"/></clipPath></defs></svg>