<svg xmlns="http://www.w3.org/2000/svg" fill="none" viewBox="0 0 24 24"><g fill="#000" clip-path="url(#a)"><path d="M11.139 21.8a.033.033 0 0 0-.031.03c0 .016.015.032.03.032.016 0 .031-.016.031-.031.016-.031 0-.031-.03-.031m-.923-.338c-.031 0-.062.03-.062.061 0 .03.03.062.062.062.03 0 .061-.031.061-.062 0-.03-.03-.061-.061-.061m-.908-.416a.105.105 0 0 0-.108.108c0 .061.046.108.108.108a.105.105 0 0 0 .108-.108.105.105 0 0 0-.108-.108m-.846-.508a.14.14 0 0 0-.139.139c0 .077.062.138.139.138a.14.14 0 0 0 .138-.138c-.015-.077-.077-.139-.138-.139m-.8-.6a.17.17 0 0 0-.17.17.17.17 0 0 0 .17.169.17.17 0 0 0 .169-.17c0-.107-.077-.168-.17-.168m-.739-.692c-.107 0-.2.093-.2.2s.093.2.2.2.2-.092.2-.2-.092-.2-.2-.2m-.661-.754a.237.237 0 0 0-.231.231c0 .123.108.23.23.23a.236.236 0 0 0 .232-.23.237.237 0 0 0-.231-.23m-.585-.815a.276.276 0 0 0-.277.277c0 .154.123.277.277.277a.276.276 0 0 0 .277-.277.276.276 0 0 0-.277-.277m-.17-.585a.31.31 0 0 0-.307-.307.31.31 0 0 0-.307.307c0 .17.138.308.307.308.17-.015.308-.154.308-.308m-.322-.923a.34.34 0 0 0-.339-.338.34.34 0 0 0-.338.338c0 .185.154.339.338.339a.33.33 0 0 0 .339-.339m-.2-.938c0-.2-.17-.37-.37-.37s-.369.17-.369.37.17.369.37.369.369-.17.369-.37m-.077-.985c0-.23-.185-.4-.4-.4s-.4.185-.4.4.185.4.4.4c.215.015.4-.17.4-.4m-.4-.538c.246 0 .43-.2.43-.447a.43.43 0 0 0-.43-.43c-.246 0-.446.2-.446.43.015.247.215.447.446.447m-.323-1.4a.48.48 0 0 0 .477.477.48.48 0 0 0 .477-.477.48.48 0 0 0-.477-.477.48.48 0 0 0-.477.477m14.184 7.23c-.015 0-.03.016-.03.031 0 .016.015.031.03.031.016 0 .031-.015.031-.03-.015-.016-.015-.032-.03-.032m-.876.431a.07.07 0 0 0-.062.062c0 .03.03.061.061.061s.062-.03.062-.061c0-.046-.03-.062-.061-.062m-.908.323a.1.1 0 0 0-.093.093.1.1 0 0 0 .093.092.1.1 0 0 0 .092-.092.1.1 0 0 0-.092-.093m-.939.231a.12.12 0 0 0-.123.123.12.12 0 0 0 .123.123.13.13 0 0 0 .123-.123c-.015-.061-.061-.123-.123-.123m-.969.139a.154.154 0 0 0 0 .307.154.154 0 0 0 0-.308m-.984.03a.187.187 0 0 0-.185.185c0 .092.077.184.185.184a.187.187 0 0 0 .184-.184.18.18 0 0 0-.184-.185m-.97-.077a.22.22 0 0 0-.215.216.22.22 0 0 0 .215.215.22.22 0 0 0 .216-.215c-.016-.123-.108-.216-.216-.216m-.969-.169a.227.227 0 0 0-.23.23c0 .14.107.247.23.247a.243.243 0 0 0 .246-.246c-.015-.123-.123-.23-.246-.23m-.938-.292a.26.26 0 0 0-.262.261.26.26 0 0 0 .262.262.26.26 0 0 0 .261-.262.26.26 0 0 0-.261-.261m-.908-.43a.292.292 0 1 0 .292.291c.016-.154-.123-.292-.292-.292m-.508-.2a.325.325 0 0 0-.323-.324.316.316 0 0 0-.323.323c0 .185.154.323.323.323.17 0 .323-.138.323-.323m-1.092-.97c-.2 0-.354.154-.354.354s.154.354.354.354.354-.154.354-.354-.154-.354-.354-.354m-.677-.739a.38.38 0 0 0-.385.385c0 .215.17.385.385.385a.38.38 0 0 0 .385-.385.38.38 0 0 0-.385-.385m-.585.016a.414.414 0 0 0 .416-.416.414.414 0 0 0-.417-.414.414.414 0 0 0-.415.415c0 .231.185.416.415.416m-.03-1.262a.446.446 0 1 0-.893 0 .446.446 0 0 0 .893 0m14.861-3.723a.033.033 0 0 0-.03.03c0 .016.015.032.03.032s.03-.016.03-.031c-.015-.03-.03-.03-.03-.03m-.292.908c-.03 0-.046.03-.046.046 0 .03.03.046.046.046.03 0 .046-.03.046-.046 0-.03-.03-.046-.046-.046m-.4.861c-.046 0-.077.031-.077.077s.03.077.077.077c.046 0 .077-.03.077-.077.015-.03-.031-.077-.077-.077m-.477.831a.105.105 0 0 0-.108.108c0 .061.046.107.108.107a.105.105 0 0 0 .108-.107.105.105 0 0 0-.108-.108m-.57.77a.14.14 0 0 0-.138.138c0 .077.062.138.139.138a.14.14 0 0 0 .138-.138.14.14 0 0 0-.138-.139m-.646.707a.154.154 0 0 0 0 .308.154.154 0 0 0 .154-.154c.016-.077-.061-.154-.154-.154m-.723.646a.18.18 0 0 0-.184.185c0 .107.077.184.184.184a.18.18 0 0 0 .185-.184.18.18 0 0 0-.185-.185m-.784.539a.21.21 0 0 0-.216.215.21.21 0 0 0 .216.215.21.21 0 0 0 .215-.215.22.22 0 0 0-.215-.215m-.862.461a.243.243 0 0 0-.246.246c0 .139.108.246.246.246a.243.243 0 0 0 .246-.246.243.243 0 0 0-.246-.246m-.907.323a.26.26 0 0 0-.262.262.26.26 0 0 0 .262.261.26.26 0 0 0 .261-.261.26.26 0 0 0-.261-.262m-.954.216a.292.292 0 1 0 0 .584.292.292 0 0 0 0-.584m-.97.077a.316.316 0 0 0-.323.323c0 .169.139.323.324.323a.316.316 0 0 0 .323-.323.325.325 0 0 0-.323-.323m-.63.307a.36.36 0 0 0-.354-.354.345.345 0 0 0-.339.354c0 .185.154.354.339.354.2 0 .354-.154.354-.354m-.939-.138c0-.2-.169-.37-.369-.37s-.37.17-.37.37.17.37.37.37.37-.17.37-.37m-.923-.277c0-.216-.184-.4-.4-.4-.215 0-.4.184-.4.4 0 .215.185.4.4.4.231 0 .4-.185.4-.4m-.861-.385a.43.43 0 1 0-.862 0 .43.43 0 0 0 .43.431c.232-.015.432-.2.432-.43m8.677-13.015c.015 0 .03-.015.03-.03a.033.033 0 0 0-.03-.032.033.033 0 0 0-.031.031c0 .016.015.03.03.03m.446.892c.03 0 .046-.03.046-.046 0-.03-.03-.046-.046-.046-.031 0-.046.03-.046.046 0 .015.015.046.046.046m.369.939c.046 0 .077-.031.077-.077s-.03-.077-.077-.077c-.046 0-.077.03-.077.077 0 .03.03.077.077.077m.261.969a.105.105 0 0 0 .108-.108.105.105 0 0 0-.108-.107.105.105 0 0 0-.107.107c0 .062.046.108.107.108m.031.861c0 .077.062.139.139.139A.14.14 0 0 0 21 9.338a.14.14 0 0 0-.138-.138.14.14 0 0 0-.139.138m.185.816a.154.154 0 1 0 .154.154c.015-.093-.062-.154-.154-.154m-.03.954a.18.18 0 0 0-.186.184c0 .108.077.185.185.185a.18.18 0 0 0 .185-.185.187.187 0 0 0-.185-.184m-.155.938a.21.21 0 0 0-.215.216.21.21 0 0 0 .215.215.21.21 0 0 0 .216-.216.21.21 0 0 0-.216-.215m-.03 1.154a.243.243 0 0 0-.247-.246.243.243 0 0 0-.246.246c0 .139.108.246.246.246a.243.243 0 0 0 .246-.246m-.631.63a.26.26 0 0 0-.262.262.26.26 0 0 0 .262.262.26.26 0 0 0 .261-.262c.016-.138-.107-.261-.261-.261m-.493.816a.292.292 0 1 0 0 .584.292.292 0 0 0 0-.584m-.615.739a.325.325 0 0 0-.323.323c0 .184.138.323.323.323a.315.315 0 0 0 .323-.323.325.325 0 0 0-.323-.323m-.708.646a.36.36 0 0 0-.354.354c0 .184.154.353.354.353a.36.36 0 0 0 .354-.353c0-.2-.154-.354-.354-.354m-.784.554c-.2 0-.37.169-.37.369s.17.37.37.37.369-.17.369-.37-.17-.37-.37-.37m-.862.446c-.215 0-.4.184-.4.4 0 .215.185.4.4.4s.4-.185.4-.4-.169-.4-.4-.4m-.908.338a.43.43 0 1 0 0 .862.43.43 0 0 0 .431-.431c0-.23-.2-.43-.43-.43m-2.784-15.2c.015 0 .03-.015.03-.03a.033.033 0 0 0-.03-.031.033.033 0 0 0-.03.03c0 .016.014.031.03.031m.938.308c.031 0 .046-.03.046-.046 0-.031-.03-.046-.046-.046-.03 0-.061.03-.061.046 0 .03.03.046.061.046m.893.415c.046 0 .077-.03.077-.077 0-.046-.031-.077-.077-.077s-.077.031-.077.077c0 .047.03.077.077.077m.861.508a.105.105 0 0 0 .108-.108.105.105 0 0 0-.108-.107.105.105 0 0 0-.107.107c0 .062.046.108.107.108m.8.6a.14.14 0 0 0 .139-.138.14.14 0 0 0-.139-.139.14.14 0 0 0-.138.139c0 .076.061.138.138.138m.723.677a.154.154 0 0 0 0-.308.154.154 0 0 0-.154.154c0 .077.077.154.154.154m.662.738a.18.18 0 0 0 .184-.184.18.18 0 0 0-.184-.185.18.18 0 0 0-.185.185c0 .107.092.184.185.184m.584.816a.21.21 0 0 0 .216-.216.21.21 0 0 0-.216-.215.21.21 0 0 0-.215.215.21.21 0 0 0 .215.216m.477.892a.243.243 0 0 0 .247-.246.243.243 0 0 0-.247-.246.243.243 0 0 0-.246.246c0 .138.108.246.246.246m.093.662a.26.26 0 0 0 .261.261.26.26 0 0 0 .262-.261.26.26 0 0 0-.262-.262.27.27 0 0 0-.261.262m.215.953c0 .17.139.293.292.293a.303.303 0 0 0 .293-.293.292.292 0 1 0-.585 0m.077.97c0 .184.138.323.323.323a.315.315 0 0 0 .323-.323.315.315 0 0 0-.323-.323c-.17.015-.323.153-.323.323m.646.984a.36.36 0 0 0-.354-.354.36.36 0 0 0-.354.354c0 .185.154.354.354.354s.354-.154.354-.354m-.108.97c0-.2-.169-.37-.369-.37s-.369.17-.369.37.17.369.37.369.368-.17.368-.37m-.246.938c0-.215-.184-.4-.4-.4-.215 0-.4.185-.4.4s.185.4.4.4.4-.17.4-.4m-.8.477a.43.43 0 1 0 0 .861.43.43 0 0 0 .431-.43.42.42 0 0 0-.43-.431M5.693 4.43c.015 0 .03-.016.03-.031a.033.033 0 0 0-.03-.03.033.033 0 0 0-.031.03c0 .015.015.03.03.03M6.554 4c.03 0 .062-.03.062-.046 0-.03-.031-.046-.062-.046-.03 0-.046.03-.046.046 0 .015.015.046.046.046m.908-.338a.073.073 0 0 0 .077-.077c0-.047-.031-.077-.077-.077s-.077.03-.077.077c0 .046.03.077.077.077m.954-.231a.105.105 0 0 0 .107-.108.105.105 0 0 0-.107-.108.105.105 0 0 0-.108.108c0 .046.046.108.108.108m.953-.139a.14.14 0 0 0 .139-.138.14.14 0 0 0-.139-.139.14.14 0 0 0-.138.139c.015.077.077.138.138.138m.985-.046a.154.154 0 0 0 0-.308.154.154 0 0 0-.154.154c-.015.093.062.154.154.154m.985.077a.18.18 0 0 0 .184-.185.18.18 0 0 0-.184-.184.18.18 0 0 0-.185.184c-.015.108.077.185.185.185m.954.17a.21.21 0 0 0 .215-.216.21.21 0 0 0-.215-.215.21.21 0 0 0-.216.215c.015.123.108.215.216.215m.953.292a.243.243 0 0 0 .246-.247.243.243 0 0 0-.246-.246.243.243 0 0 0-.246.246c0 .139.108.247.246.247m.893.415a.26.26 0 0 0 .261-.262.26.26 0 0 0-.261-.261.26.26 0 0 0-.262.261.26.26 0 0 0 .262.262m.554.246a.292.292 0 1 0 .292-.292.283.283 0 0 0-.292.292m1.046.923a.325.325 0 0 0 .323-.323.325.325 0 0 0-.323-.323.316.316 0 0 0-.323.323c.015.185.153.323.323.323m.692.739a.36.36 0 0 0 .354-.354.36.36 0 0 0-.354-.354.36.36 0 0 0-.354.354c0 .2.154.354.354.354m.57.061c-.2 0-.37.17-.37.37s.17.369.37.369.368-.17.368-.37c.016-.2-.153-.369-.369-.369m.076 1.231c0 .215.185.4.4.4s.4-.185.4-.4-.184-.4-.4-.4c-.215 0-.4.185-.4.4m.339.908a.43.43 0 1 0 .861 0 .43.43 0 0 0-.43-.431c-.247.015-.431.2-.431.43m.661.507a.45.45 0 0 0-.446.462.446.446 0 0 0 .892 0 .45.45 0 0 0-.446-.462M2.185 11.046q-.046 0-.046.046c0 .031.03.046.046.046q.046 0 .046-.046c0-.015-.015-.046-.046-.046m.292-.984a.105.105 0 0 0-.108.107c0 .062.047.108.108.108a.105.105 0 0 0 .108-.108c-.016-.061-.062-.107-.108-.107m.539-.8a.154.154 0 0 0-.308 0 .154.154 0 0 0 .308 0m.323-.647c.107 0 .2-.092.2-.2 0-.107-.093-.2-.2-.2s-.2.093-.2.2.092.2.2.2m.569-.753a.243.243 0 0 0 .246-.247.243.243 0 0 0-.246-.246.243.243 0 0 0-.246.246c0 .139.107.247.246.247m.646-.677a.309.309 0 0 0 0-.615.31.31 0 0 0-.308.307c.016.17.139.308.308.308m.723-.616c.2 0 .354-.154.354-.354s-.154-.353-.354-.353-.354.153-.354.353.154.354.354.354m.785-.523c.23 0 .4-.184.4-.4 0-.215-.185-.4-.4-.4s-.4.185-.4.4.184.4.4.4m.861-.446a.446.446 0 1 0-.446-.446c-.015.246.185.446.446.446"/><path d="M7.83 5.292a.5.5 0 0 0 .493-.43.54.54 0 0 0 .446.23c.216 0 .4-.123.493-.292a.64.64 0 0 0 .476.246.58.58 0 0 0 .447-.2c.123.17.307.277.538.277a.63.63 0 0 0 .37-.123c.03.046.046.077.076.108a.75.75 0 0 0-.43.2.7.7 0 0 0-1.046.108.6.6 0 0 0-.4-.14.66.66 0 0 0-.6.386.48.48 0 0 0-.34-.124.61.61 0 0 0-.6.477.56.56 0 0 0-.307-.092.584.584 0 0 0-.584.585.535.535 0 0 0-.815.462c0 .045.015.107.015.153a.5.5 0 0 0-.262-.077.51.51 0 0 0-.508.508c0 .277.231.508.508.508s.508-.231.508-.508c0-.046 0-.092-.016-.123a.532.532 0 0 0 .83-.43c.093.06.201.091.309.091h.03a.65.65 0 0 0-.215.446c-.046 0-.077-.015-.123-.015a.65.65 0 0 0-.646.646v.077H6.4a.6.6 0 0 0-.6.6 1 1 0 0 0 .03.2H5.8a.57.57 0 0 0-.57.57c0 .107.032.215.093.292h-.015a.545.545 0 0 0-.37.938h-.015a.51.51 0 0 0-.508.508c0 .277.231.508.508.508s.508-.231.508-.508A.5.5 0 0 0 5.277 11h.03a.56.56 0 0 0 .4-.17v.016c0 .139.047.262.124.37a.6.6 0 0 0-.4.553c0 .185.077.339.215.446a.56.56 0 0 0-.323.508c0 .215.123.4.308.508a.54.54 0 0 0-.293.477c0 .261.185.461.416.523a.48.48 0 0 0-.277.446c0 .277.23.508.508.508.03 0 .061 0 .092-.016a.48.48 0 0 0-.339.446.48.48 0 0 0 .477.477.48.48 0 0 0 .477-.477.48.48 0 0 0-.477-.476.2.2 0 0 0-.092.015.51.51 0 0 0 .354-.477v-.03a.48.48 0 0 0 .292.168.6.6 0 0 0-.138.37c0 .307.246.553.554.553H7.2a.57.57 0 0 0-.108.308c0 .293.246.539.539.539.061 0 .107-.016.154-.016a.512.512 0 0 0 .43.785.5.5 0 0 0 .308-.108.46.46 0 0 0-.123.308.48.48 0 0 0 .477.477.48.48 0 0 0 .477-.477.42.42 0 0 0-.139-.323c.062 0 .123-.016.185-.031 0 .23.123.43.323.523-.03 0-.061-.015-.092-.015-.246 0-.446.2-.446.446s.2.461.446.461.461-.2.461-.461a.44.44 0 0 0-.246-.4c.046.015.092.015.139.015a.55.55 0 0 0 .307-.092.554.554 0 0 0 .554.508.53.53 0 0 0 .4-.17.53.53 0 0 0 .523.447c.2 0 .385-.108.477-.277.046.23.246.4.492.4.262 0 .477-.2.508-.447a.474.474 0 0 0 .477.447.476.476 0 0 0 .015-.954.6.6 0 0 0 .108-.154.6.6 0 0 0 .416.184.8.8 0 0 0 .184-.03.43.43 0 0 0-.2.369c0 .246.2.462.462.462a.45.45 0 0 0 .446-.462c0-.246-.2-.446-.446-.446-.046 0-.093.015-.123.015a.54.54 0 0 0 .261-.369c.092.077.23.139.354.139.308 0 .57-.247.57-.554v-.016c.092.062.2.108.307.108a.545.545 0 0 0 .538-.538c0-.062 0-.108-.03-.154a.54.54 0 0 0 .277.092c.277 0 .507-.23.507-.508a.5.5 0 0 0-.107-.308.43.43 0 0 0 .307.124.48.48 0 0 0 .477-.477.48.48 0 0 0-.815-.339c0-.061-.016-.123-.031-.184.23 0 .43-.124.523-.324 0 .031-.015.062-.015.093 0 .246.2.446.461.446a.46.46 0 0 0 .462-.446.45.45 0 0 0-.462-.446.44.44 0 0 0-.4.246c.016-.046.016-.092.016-.139a.55.55 0 0 0-.093-.307.543.543 0 0 0 .508-.554.53.53 0 0 0-.17-.4.53.53 0 0 0 .447-.523c0-.2-.108-.385-.277-.477.23-.046.4-.246.4-.492 0-.262-.2-.477-.462-.508a.485.485 0 0 0 .447-.477.48.48 0 0 0-.477-.477.48.48 0 0 0-.477.477c0 .246.184.446.43.477a.507.507 0 0 0-.476.508.53.53 0 0 0 .261.446.54.54 0 0 0-.446.523.5.5 0 0 0 .154.369.56.56 0 0 0-.492.554c0 .107.03.2.076.277a.59.59 0 0 0-.553.584c0 .062.015.123.03.17h-.03a.617.617 0 0 0-.616.615v.046c-.03 0-.061-.015-.092-.015a.645.645 0 0 0-.63.554c-.062-.016-.108-.031-.17-.031a.66.66 0 0 0-.6.385.6.6 0 0 0-.477-.124.57.57 0 0 0-.43.339.56.56 0 0 0-.508-.185.54.54 0 0 0-.431.308.58.58 0 0 0-.462-.216.62.62 0 0 0-.43.185.56.56 0 0 0-.37-.323.58.58 0 0 0-.507.077.6.6 0 0 0-.323-.4.55.55 0 0 0-.493 0 .6.6 0 0 0-.215-.446.64.64 0 0 0-.462-.123c.046-.17 0-.339-.107-.492a.57.57 0 0 0-.462-.231.65.65 0 0 0-.015-.508.58.58 0 0 0-.37-.292.58.58 0 0 0 .108-.447.56.56 0 0 0-.292-.415.6.6 0 0 0 .23-.477.57.57 0 0 0-.2-.43.58.58 0 0 0 .215-.862.63.63 0 0 0 .386-.277.56.56 0 0 0 .046-.492.56.56 0 0 0 .461-.2.56.56 0 0 0 .139-.477.54.54 0 0 0 .477-.093.57.57 0 0 0 .246-.43.59.59 0 0 0 .508.015.58.58 0 0 0 .323-.338.6.6 0 0 0 .446.153.58.58 0 0 0 .446-.276c.092.138.261.23.43.246a.53.53 0 0 0 .447-.17.58.58 0 0 0 .369.339c.17.061.37.03.508-.062a.62.62 0 0 0 .292.416.57.57 0 0 0 .415.061c.016.016.031.046.047.062 0 .123.061.246.153.354l.016.015c.292.308 1 1.077.861 2.092-.03.262.108.385.293.185 1.107-1.185.938-2.662.907-2.83a.8.8 0 0 0-.077-.324c.016-.061.016-.123.016-.184a.97.97 0 0 0-.37-.754c.016-.062.016-.108.016-.17a.91.91 0 0 0-.57-.846.89.89 0 0 0-.738-.846.83.83 0 0 0-.815-.677h-.046a.8.8 0 0 0-.739-.538 1 1 0 0 0-.2.03.73.73 0 0 0-.677-.43c-.123 0-.23.03-.323.077a.7.7 0 0 0-.6-.339.7.7 0 0 0-.43.154.64.64 0 0 0-.524-.277.65.65 0 0 0-.507.246.6.6 0 0 0-.477-.23.59.59 0 0 0-.554.353.55.55 0 0 0-.43-.2.55.55 0 0 0-.555.493.49.49 0 0 0-.4-.2.51.51 0 0 0-.507.507c.138.247.369.477.646.477M4.447 18.277c-.015 0-.03.015-.03.046 0 .015.015.046.03.046.016 0 .046-.015.046-.046q-.022-.046-.046-.046m-.461-.908c-.047 0-.077.031-.077.077s.03.077.077.077c.046 0 .077-.03.077-.077 0-.03-.031-.077-.077-.077m-.354-.938a.12.12 0 0 0-.123.123c0 .061.046.123.123.123a.12.12 0 0 0 .123-.123c-.016-.077-.062-.123-.123-.123m-.277-.985a.154.154 0 0 0-.154.154c0 .092.062.154.154.154s.154-.062.154-.154c.015-.092-.062-.154-.154-.154m.03-.815c0-.108-.092-.2-.2-.2-.107 0-.2.092-.2.2 0 .107.093.2.2.2.124 0 .2-.092.2-.2m-.015-.97a.237.237 0 0 0-.23-.23.237.237 0 0 0-.231.23c0 .124.107.231.23.231s.231-.107.231-.23m-.461-.984c0 .154.123.277.277.277a.276.276 0 0 0 .277-.277.276.276 0 0 0-.277-.277.276.276 0 0 0-.277.277m.415-.662c.17 0 .308-.138.308-.307a.31.31 0 0 0-.308-.308.31.31 0 0 0-.308.308c0 .169.139.307.308.307m.277-1.6c-.2 0-.354.154-.354.354s.154.354.354.354.354-.154.354-.354c-.016-.2-.17-.354-.354-.354m.385-.153a.38.38 0 0 0 .384-.385.38.38 0 0 0-.384-.385.38.38 0 0 0-.385.385c0 .2.17.384.385.384"/><path d="M4.492 9.462a.43.43 0 1 0 0-.862.43.43 0 1 0 0 .862m1.077-1.2a.463.463 0 0 0-.461-.462.463.463 0 0 0-.462.462c0 .261.216.461.462.461.246.015.461-.2.461-.461"/></g><defs><clipPath id="a"><path fill="#fff" d="M2 2h20v20H2z"/></clipPath></defs></svg>