<svg xmlns="http://www.w3.org/2000/svg" fill="none" viewBox="0 0 24 24"><path fill="#62757E" fill-rule="evenodd" d="M21.167 16.5h-10a.834.834 0 0 1 0-1.667h10a.834.834 0 0 1 0 1.667Zm0-6.667h-10a.834.834 0 0 1 0-1.666h10a.834.834 0 0 1 0 1.666Zm0-3.333h-10a.834.834 0 0 1 0-1.667h10a.834.834 0 0 1 0 1.667ZM7.833 20.667h-5A.834.834 0 0 1 2 19.833v-5c0-.46.373-.833.833-.833h5c.46 0 .834.373.834.833v5c0 .46-.374.834-.834.834Zm-.833-5H3.667V19H7v-3.333Zm.833-5h-5A.834.834 0 0 1 2 9.833v-5c0-.46.373-.833.833-.833h5c.46 0 .834.373.834.833v5c0 .46-.374.834-.834.834Zm-.833-5H3.667V9H7V5.667Zm4.167 12.5h10a.834.834 0 0 1 0 1.666h-10a.834.834 0 0 1 0-1.666Z" clip-rule="evenodd"/></svg>