<svg xmlns="http://www.w3.org/2000/svg" fill="none" viewBox="0 0 24 24"><path fill="#62757E" fill-rule="evenodd" d="M21.167 13H14.5a.834.834 0 0 1 0-1.667h6.667a.834.834 0 0 1 0 1.667m0-4.167H14.5a.834.834 0 0 1 0-1.666h6.667a.834.834 0 0 1 0 1.666m0-4.166H14.5A.834.834 0 0 1 14.5 3h6.667a.834.834 0 0 1 0 1.667m-10 8.333H2.833A.834.834 0 0 1 2 12.167V3.833c0-.46.373-.833.833-.833h8.334c.46 0 .833.373.833.833v8.334c0 .46-.373.833-.833.833m-.834-8.333H3.667v6.666h6.666zM2.833 15.5h18.334a.834.834 0 0 1 0 1.667H2.833a.834.834 0 0 1 0-1.667m0 4.167h13.334a.834.834 0 0 1 0 1.666H2.833a.834.834 0 0 1 0-1.666" clip-rule="evenodd"/></svg>