<svg xmlns="http://www.w3.org/2000/svg" fill="none" viewBox="0 0 16 16"><path fill="#62757E" d="M12.55 10.099c.187 0 .35.127.395.31l.142.563a1.43 1.43 0 0 0 1.04 1.04l.563.14a.41.41 0 0 1 0 .793l-.563.14a1.43 1.43 0 0 0-1.04 1.041l-.142.564a.408.408 0 0 1-.792 0l-.141-.564a1.43 1.43 0 0 0-1.04-1.04l-.564-.14a.409.409 0 0 1 0-.794l.564-.14a1.43 1.43 0 0 0 1.04-1.04l.141-.564a.41.41 0 0 1 .397-.31M7.544 1c.718 0 1.343.488 1.518 1.185l.343 1.375a2.92 2.92 0 0 0 2.123 2.123l1.375.343a1.565 1.565 0 0 1 0 3.036l-1.375.343a2.92 2.92 0 0 0-2.123 2.123l-.343 1.375a1.564 1.564 0 0 1-3.036 0l-.343-1.375A2.92 2.92 0 0 0 3.56 9.405l-1.375-.343a1.564 1.564 0 0 1 0-3.036l1.375-.343A2.92 2.92 0 0 0 5.683 3.56l.343-1.375C6.201 1.488 6.826 1 7.544 1"/></svg>