<svg xmlns="http://www.w3.org/2000/svg" fill="none" viewBox="0 0 16 16"><path fill="#62757E" d="M13.74 2.26c-.54-.53-1.694-.222-2.588.672L9.287 4.798c-.254.254-.395.304-.717.29l-6.405-.25a.66.66 0 0 0-.513.187l-.585.585c-.118.118-.077.295.1.363l5.06 1.875-2.07 2.587-2.31-.649c-.176-.05-.322-.005-.471.145l-.205.205c-.122.122-.122.285 0 .408l4.285 4.285c.123.122.286.122.409 0l.204-.205c.15-.15.195-.295.145-.472l-.654-2.314 2.592-2.066 1.875 5.061c.068.177.245.218.363.1l.585-.585a.68.68 0 0 0 .186-.513l-.25-6.405c-.013-.322.037-.463.291-.717l1.866-1.865c.894-.894 1.198-2.052.671-2.587"/></svg>