<svg xmlns="http://www.w3.org/2000/svg" fill="none" viewBox="0 0 16 16"><path fill="#62757E" d="M7.702 1.368a.75.75 0 0 1 .597 0c2.098.91 4.105 1.99 6.004 3.223a.75.75 0 0 1-.194 1.348A34.3 34.3 0 0 0 8.341 8.25a.75.75 0 0 1-.682 0q-.938-.48-1.909-.901v-.542a37 37 0 0 1 2.568-1.33.75.75 0 0 0-.636-1.357 38 38 0 0 0-3.06 1.605.75.75 0 0 0-.372.648v.365q-1.16-.44-2.359-.8a.75.75 0 0 1-.194-1.347 41 41 0 0 1 6.005-3.223M4.25 8.348q-.795-.318-1.611-.596a41 41 0 0 0-.418 2.97.75.75 0 0 0 .474.776q.263.102.524.21a5.5 5.5 0 0 1-.58.681.75.75 0 1 0 1.06 1.06q.525-.525.915-1.124a29 29 0 0 0-1.395-.617A5.5 5.5 0 0 0 4.25 8.5z"/><path fill="#62757E" d="M7.603 13.96q-1.441-.902-2.989-1.635a7 7 0 0 0 1.12-3.341q.629.288 1.244.602a2.25 2.25 0 0 0 2.045 0 33 33 0 0 1 4.338-1.834q.263 1.468.419 2.97a.75.75 0 0 1-.474.776 29.4 29.4 0 0 0-4.909 2.461.75.75 0 0 1-.794 0"/></svg>