<svg xmlns="http://www.w3.org/2000/svg" fill="none" viewBox="0 0 24 24"><path fill="#62757E" fill-rule="evenodd" d="M5.455 21.8A3.255 3.255 0 0 1 2.2 18.546V16.09a3.255 3.255 0 0 1 3.255-3.255h2.454a3.255 3.255 0 0 1 3.255 3.255v2.454A3.255 3.255 0 0 1 7.909 21.8zM3.8 18.546c0 .913.74 1.654 1.655 1.654h2.454c.914 0 1.655-.74 1.655-1.654V16.09c0-.914-.741-1.655-1.655-1.655H5.455c-.914 0-1.655.741-1.655 1.655zM16.09 21.8a3.255 3.255 0 0 1-3.254-3.254V16.09a3.255 3.255 0 0 1 3.255-3.255h2.454A3.255 3.255 0 0 1 21.8 16.09v2.454a3.255 3.255 0 0 1-3.255 3.255zm-1.654-3.254c0 .913.741 1.654 1.655 1.654h2.454c.914 0 1.655-.74 1.655-1.654V16.09c0-.914-.74-1.655-1.655-1.655h-2.454c-.914 0-1.655.741-1.655 1.655zm-8.981-7.382A3.255 3.255 0 0 1 2.2 7.909V5.455A3.255 3.255 0 0 1 5.455 2.2h2.454a3.255 3.255 0 0 1 3.255 3.255v2.454a3.255 3.255 0 0 1-3.255 3.255zM3.8 7.909c0 .914.74 1.655 1.655 1.655h2.454c.914 0 1.655-.741 1.655-1.655V5.455c0-.914-.741-1.655-1.655-1.655H5.455C4.54 3.8 3.8 4.54 3.8 5.455z" clip-rule="evenodd"/><path fill="#62757E" d="M16.091 11.164a3.255 3.255 0 0 1-3.255-3.255V5.455A3.255 3.255 0 0 1 16.091 2.2h2.454A3.255 3.255 0 0 1 21.8 5.455v2.454a3.255 3.255 0 0 1-3.254 3.255z"/></svg>