<svg xmlns="http://www.w3.org/2000/svg" fill="none" viewBox="0 0 24 24"><path fill="#62757E" fill-rule="evenodd" d="M12.718 13.078a.667.667 0 0 1 .616-.411h5.333a.666.666 0 0 1 0 1.333l-3.729-.004 4.867 4.866a.666.666 0 1 1-.943.943l-4.945-4.945v3.819c0 .368-.215.655-.583.655a.667.667 0 0 1-.667-.668v-5.332c0-.087.017-.174.051-.256ZM4.667 4c.17 0 .341.066.47.195l4.877 4.877L10 5.334a.667.667 0 0 1 1.333 0v5.335a.668.668 0 0 1-.668.665H5.334a.666.666 0 0 1-.666-.667c0-.368.28-.622.649-.622h3.786L4.195 5.138A.666.666 0 0 1 4.667 4Z" clip-rule="evenodd"/></svg>