<svg xmlns="http://www.w3.org/2000/svg" fill="none" viewBox="0 0 16 16"><path fill="#62757e" d="M9.2 2c1.68 0 2.52 0 3.162.327a3 3 0 0 1 1.31 1.31C14 4.28 14 5.12 14 6.8v2.4c0 1.68 0 2.52-.327 3.162a3 3 0 0 1-1.31 1.31C11.72 14 10.88 14 9.2 14H6.8c-1.68 0-2.52 0-3.162-.327a3 3 0 0 1-1.31-1.31C2 11.72 2 10.88 2 9.2V6.8c0-1.68 0-2.52.327-3.162a3 3 0 0 1 1.31-1.31C4.28 2 5.12 2 6.8 2zM5.19 9.643c-.657 0-1.189.527-1.189 1.178S4.534 12 5.191 12s1.189-.528 1.189-1.179c0-.65-.533-1.178-1.19-1.178m5.62 0c-.657 0-1.189.527-1.189 1.178S10.153 12 10.811 12c.656 0 1.189-.528 1.189-1.179 0-.65-.533-1.178-1.19-1.178M8 6.82c-.657 0-1.19.528-1.19 1.179 0 .65.533 1.178 1.19 1.179.657 0 1.19-.528 1.19-1.179 0-.65-.533-1.178-1.19-1.179M5.19 4c-.656 0-1.189.528-1.189 1.179 0 .65.532 1.178 1.19 1.178.656 0 1.189-.528 1.189-1.178S5.847 4 5.19 4m5.62 0c-.657 0-1.189.528-1.189 1.179 0 .65.532 1.178 1.19 1.178.656 0 1.189-.528 1.189-1.178S11.467 4 10.81 4"/></svg>