<svg xmlns="http://www.w3.org/2000/svg" fill="none" viewBox="0 0 24 24"><path fill="#62757E" fill-rule="evenodd" d="M20.044 2.306a.85.85 0 0 1 1.202 1.202L3.07 21.683a.85.85 0 0 1-1.202-1.202l.612-.612a3.2 3.2 0 0 1-.28-1.323V16.09a3.255 3.255 0 0 1 3.255-3.254h2.454c.471 0 .92.1 1.323.28l3.885-3.884a3.2 3.2 0 0 1-.28-1.324V5.455A3.255 3.255 0 0 1 16.09 2.2h2.454c.472 0 .92.1 1.324.28zM7.913 14.436H5.455c-.914 0-1.655.741-1.655 1.655v2.458zM2.2 7.91a3.255 3.255 0 0 0 3.255 3.255h2.454a3.255 3.255 0 0 0 3.255-3.255V5.455A3.255 3.255 0 0 0 7.909 2.2H5.455A3.255 3.255 0 0 0 2.2 5.455zm3.255 1.655c-.914 0-1.655-.74-1.655-1.655V5.455c0-.914.74-1.655 1.655-1.655h2.454c.914 0 1.655.741 1.655 1.655v2.454c0 .914-.741 1.655-1.655 1.655zm0 12.236-.116-.002L6.937 20.2h.972c.914 0 1.655-.74 1.655-1.654v-.972l1.598-1.598.002.115v2.455A3.255 3.255 0 0 1 7.909 21.8zM16.09 11.164q-.058 0-.115-.002l5.822-5.822.002.115v2.454a3.255 3.255 0 0 1-3.254 3.255zm0 10.636a3.255 3.255 0 0 1-3.255-3.254V16.09a3.255 3.255 0 0 1 3.255-3.254h2.454A3.255 3.255 0 0 1 21.8 16.09v2.455a3.255 3.255 0 0 1-3.255 3.254zm-1.655-3.254c0 .913.741 1.654 1.655 1.654h2.454c.914 0 1.655-.74 1.655-1.654V16.09c0-.914-.74-1.654-1.655-1.654H16.09c-.914 0-1.655.74-1.655 1.654z" clip-rule="evenodd"/></svg>