<svg xmlns="http://www.w3.org/2000/svg" fill="none" viewBox="0 0 24 24"><path fill="currentColor" fill-rule="evenodd" d="M15.61 9.333H18c.368 0 .667.299.667.667 0 .368-.213.642-.581.642h-3.962c-.042.008-.082.024-.124.024a.664.664 0 0 1-.616-.92V5.958c0-.368.247-.625.616-.625.368 0 .666.299.666.666V8.39l4.195-4.195a.667.667 0 0 1 .943.942L15.61 9.333ZM10.665 18a.667.667 0 1 1-1.333 0v-2.39l-4.195 4.195a.664.664 0 0 1-.943 0 .665.665 0 0 1 0-.942l4.195-4.196H6a.666.666 0 0 1 0-1.334h4c.004 0 .008.002.011.003a.667.667 0 0 1 .655.665V18Zm-.195-7.53a.66.66 0 0 1-.47.196c-.043 0-.084-.016-.125-.024h-3.88c-.37 0-.663-.274-.663-.642s.298-.667.667-.667h2.39L4.196 5.137a.665.665 0 1 1 .943-.942L9.333 8.39V6a.667.667 0 0 1 1.333 0v4a.64.64 0 0 1-.191.466l-.004.005Zm3.515 2.866c.005 0 .01-.003.014-.003h4a.667.667 0 1 1 0 1.334h-2.39l4.194 4.196a.665.665 0 1 1-.943.942l-4.195-4.195V18a.667.667 0 0 1-.666.667c-.369 0-.616-.296-.616-.664v-3.75a.664.664 0 0 1 .602-.918Z" clip-rule="evenodd"/></svg>