<svg xmlns="http://www.w3.org/2000/svg" fill="none" viewBox="0 0 24 24"><g clip-path="url(#a)"><path fill="#1682FE" d="M14.538 6.51h-1.289v1.892h1.289zM10.84 3H9.553v1.893h1.289z"/><path fill="#60D8A4" d="M7.143 4.805H5.855v1.893h1.288z"/><path fill="#F4BB3B" d="M5.301 12H4v5.403h1.301z"/><path fill="#60D8A4" d="M5.301 6.598H4V12h1.301z"/><path fill="#1682FE" d="M16.38 8.315h-1.288v1.893h1.288z"/><path fill="#FF5A5A" d="M16.38 13.793h-1.288v1.892h1.288zm-1.842 1.805h-1.289v1.892h1.289zm-3.698 3.509H9.553V21h1.289z"/><path fill="#F4BB3B" d="M7.143 17.302H5.855v1.893h1.288z"/><path fill="#3A3A3A" d="M20 10.195V6.597h-1.855V4.805h-3.697V3H10.75v1.805H7.053V6.61H5.198v10.793h1.855v1.805h3.698v1.805h3.697v-1.806h3.697v-1.805H20v-3.61h-3.697v1.806h-1.855v1.804H10.75v-1.805H8.908V8.404h1.856V6.597h3.697v1.806h1.855v1.804H20z"/></g><defs><clipPath id="a"><path fill="#fff" d="M4 3h16v18H4z"/></clipPath></defs></svg>