<svg xmlns="http://www.w3.org/2000/svg" fill="none" viewBox="0 0 24 24"><g clip-path="url(#a)"><path fill="#1682FE" d="M14.538 6.51H13.25v1.893h1.288V6.51ZM10.84 3H9.553v1.893h1.289V3Z"/><path fill="#60D8A4" d="M7.143 4.805H5.855v1.893h1.288V4.805Z"/><path fill="#F4BB3B" d="M5.301 12H4v5.402h1.301V12Z"/><path fill="#60D8A4" d="M5.301 6.598H4V12h1.301V6.598Z"/><path fill="#1682FE" d="M16.38 8.315h-1.288v1.893h1.288V8.315Z"/><path fill="#FF5A5A" d="M16.38 13.793h-1.288v1.892h1.288v-1.893Zm-1.842 1.805H13.25v1.892h1.288v-1.892Zm-3.698 3.509H9.553V21h1.289v-1.893Z"/><path fill="#F4BB3B" d="M7.143 17.302H5.855v1.893h1.288v-1.893Z"/><path fill="#3A3A3A" d="M20 10.195V6.597h-1.855V4.805h-3.697V3H10.75v1.805H7.053V6.61H5.198v10.793h1.855v1.805h3.698v1.805h3.697v-1.806h3.697v-1.805H20v-3.61h-3.697v1.806h-1.855v1.804H10.75v-1.805H8.908V8.404h1.855V6.597h3.698v1.806h1.855v1.804H20v-.012Z"/></g><defs><clipPath id="a"><path fill="#fff" d="M4 3h16v18H4z"/></clipPath></defs></svg>