<svg xmlns="http://www.w3.org/2000/svg" fill="none" viewBox="0 0 24 24"><path fill="#62757E" fill-rule="evenodd" d="M19.182 2.17a.85.85 0 1 1 1.202 1.203l-16 16a.85.85 0 0 1-1.202-1.202l.546-.546A9.929 9.929 0 0 1 2 12.013C2 6.475 7.022.873 13.887 2.196A4.258 4.258 0 0 0 15.3 6.053l3.882-3.882ZM14.14 7.214a5.918 5.918 0 0 1-1.857-3.407l-.028-.165-.168-.005c-2.8-.084-4.918 1.15-6.331 2.833-1.41 1.678-2.123 3.808-2.123 5.544a8.3 8.3 0 0 0 1.276 4.431l2.325-2.325a1.326 1.326 0 0 1 1.77-1.77l5.136-5.136Zm3.222 1.565 1.689-1.688a3.041 3.041 0 0 0 .496 2.721c.581.778 1.498 1.293 2.418 1.367C22.448 17.026 17.831 22 12 22a9.96 9.96 0 0 1-5.92-1.94l1.171-1.17A8.326 8.326 0 0 0 12 20.37c4.245 0 8.053-3.279 8.356-7.783l.01-.141-.13-.059a4.947 4.947 0 0 1-2.863-3.552l-.01-.057Zm-6.893.993a1.326 1.326 0 1 0 .002-2.651 1.326 1.326 0 0 0-.002 2.65ZM16.5 15a1.5 1.5 0 1 1-3 0 1.5 1.5 0 0 1 3 0Z" clip-rule="evenodd"/></svg>