<svg xmlns="http://www.w3.org/2000/svg" fill="none" viewBox="0 0 24 24"><path fill="#62757E" d="M10.47 9.77a1.326 1.326 0 1 0 0-2.65 1.326 1.326 0 0 0 0 2.65m-2.042 5.096a1.326 1.326 0 1 0 .002-2.651 1.326 1.326 0 0 0-.002 2.651M15 16.5a1.5 1.5 0 1 0 0-3 1.5 1.5 0 0 0 0 3"/><path fill="#62757E" fill-rule="evenodd" d="M19.08 6.991a3.05 3.05 0 0 0 .467 2.82c.581.778 1.498 1.293 2.418 1.367C22.448 17.026 17.831 22 12 22c-5.52 0-10-4.474-10-9.987C2 6.475 7.022.873 13.887 2.196c-.45 2.958 2.232 5.5 5.194 4.795m-6.825-3.35.028.165c.414 2.503 2.407 4.492 4.92 4.866l.143.022.027.141a4.95 4.95 0 0 0 2.863 3.552l.13.059-.01.141c-.303 4.504-4.111 7.782-8.356 7.782-4.613 0-8.367-3.75-8.367-8.356 0-1.736.714-3.866 2.123-5.544 1.413-1.683 3.531-2.917 6.332-2.833z" clip-rule="evenodd"/></svg>