<svg xmlns="http://www.w3.org/2000/svg" fill="none" viewBox="0 0 24 24"><path fill="#62757E" fill-rule="evenodd" d="M20.333 12h-7.5a.833.833 0 1 1 0-1.667h7.5a.833.833 0 1 1 0 1.667Zm-4.166-3.333a.833.833 0 0 1-.834-.834V6.167h-1.68c.002.046.014.09.014.138V7c0 .46-.374.833-.834.833H6.167A.833.833 0 0 1 5.333 7v-.695c0-.047.012-.092.014-.138h-1.68v14.166h12.5a.833.833 0 1 1 0 1.667H2.833A.833.833 0 0 1 2 21.167V5.333c0-.46.373-.833.833-.833H5.96c.379-.49.9-.848 1.505-1.01C7.76 2.627 8.557 2 9.5 2c.943 0 1.74.626 2.036 1.49a2.82 2.82 0 0 1 1.505 1.01h3.126c.46 0 .833.372.833.833v2.5a.833.833 0 0 1-.833.834Zm-5.334-3.611A.833.833 0 0 1 10 4.223c0-.307-.224-.556-.5-.556s-.5.249-.5.556c0 .46-.372.833-.833.833-.6 0-1.095.487-1.16 1.11h4.986c-.065-.623-.56-1.11-1.16-1.11ZM12 17.833c0-.46.373-.833.833-.833h5a.833.833 0 1 1 0 1.667h-5a.834.834 0 0 1-.833-.834Zm0-3.333c0-.46.373-.833.833-.833h7.5a.833.833 0 1 1 0 1.666h-7.5A.833.833 0 0 1 12 14.5Z" clip-rule="evenodd"/></svg>