<svg xmlns="http://www.w3.org/2000/svg" fill="none" viewBox="0 0 24 24"><path fill="#62757E" fill-rule="evenodd" d="M5.701 2.5A3.202 3.202 0 0 0 2.5 5.702v8.66a3.202 3.202 0 0 0 3.2 3.202h1.523v.734a3.202 3.202 0 0 0 3.201 3.202h7.873a3.202 3.202 0 0 0 3.202-3.202v-7.873a3.202 3.202 0 0 0-3.202-3.201h-.735V5.702a3.202 3.202 0 0 0-3.2-3.202h-8.66Zm1.523 7.925v5.459H5.7c-.84 0-1.522-.681-1.522-1.522v-8.66c0-.841.682-1.522 1.522-1.522h8.66c.841 0 1.523.681 1.523 1.522v1.522h-5.459a3.202 3.202 0 0 0-3.201 3.201Zm1.68 0c0-.84.68-1.522 1.521-1.522h7.873c.84 0 1.522.682 1.522 1.522v7.873c0 .841-.681 1.522-1.522 1.522h-7.873c-.84 0-1.522-.681-1.522-1.522v-7.873ZM18.057 12a.85.85 0 1 0-1.434-.913l-2.992 4.701-1.76-1.408a.85.85 0 1 0-1.062 1.328l2.5 2a.85.85 0 0 0 1.248-.208l3.5-5.5Z" clip-rule="evenodd"/></svg>