<svg xmlns="http://www.w3.org/2000/svg" fill="none" viewBox="0 0 24 24"><path fill="#62757E" d="M20.5 15.731a2.304 2.304 0 0 1-2.3 2.306h-1.732v1.662a2.3 2.3 0 0 1-2.3 2.3H5.8a2.3 2.3 0 0 1-.584-.078l1.522-1.522h7.43a.7.7 0 0 0 .7-.7v-1.662H9.8a2.3 2.3 0 0 1-.614-.086l1.518-1.518H18.2a.7.7 0 0 0 .7-.702V8.238l1.601-1.6zm-2.3-13.73a2.28 2.28 0 0 1 1.545.601l.298-.296a.85.85 0 0 1 1.202 1.202L3.378 21.376a.85.85 0 0 1-1.202-1.202l1.323-1.325V8.311c0-1.27 1.031-2.3 2.3-2.3H7.5V4.307A2.3 2.3 0 0 1 9.8 2zM5.8 7.61a.7.7 0 0 0-.7.7v8.938l2.4-2.4V7.61zm4-4.007c-.386 0-.7.314-.7.702v8.943l9.509-9.51a.7.7 0 0 0-.41-.135z"/></svg>