<svg xmlns="http://www.w3.org/2000/svg" fill="none" viewBox="0 0 24 24"><path fill="#46464A" fill-rule="evenodd" d="M19.182 2.17a.85.85 0 1 1 1.202 1.203L3.378 20.379a.85.85 0 1 1-1.202-1.202l.365-.365a3.225 3.225 0 0 1-.041-.514v-7.873a3.202 3.202 0 0 1 3.202-3.201h.734V5.702A3.202 3.202 0 0 1 9.638 2.5h8.66c.175 0 .347.014.514.041l.37-.37Zm-2.009 2.01H9.638c-.84 0-1.522.681-1.522 1.522v1.522h5.459c.174 0 .346.014.513.04l3.085-3.084ZM12.45 8.903H5.702c-.841 0-1.523.682-1.523 1.522v6.748l8.27-8.27Zm9.05-3.201a3.2 3.2 0 0 0-.135-.925L19.82 6.32v8.042c0 .84-.681 1.522-1.522 1.522h-1.522v-5.459a3.18 3.18 0 0 0-.136-.925l-1.543 1.544v7.254c0 .841-.682 1.522-1.522 1.522H6.32l-1.543 1.544a3.2 3.2 0 0 0 .925.136h7.873a3.202 3.202 0 0 0 3.201-3.202v-.734h1.522a3.202 3.202 0 0 0 3.202-3.202v-8.66Z" clip-rule="evenodd"/></svg>