<svg xmlns="http://www.w3.org/2000/svg" fill="none" viewBox="0 0 24 24"><path fill="#62757E" fill-rule="evenodd" d="M20.333 18.667h-2.5a.834.834 0 0 1 0-1.667h.385l-.372-.836-.013.003H14.5l-.012-.003-.372.836h.384a.833.833 0 1 1 0 1.667H12A.834.834 0 0 1 12 17h.292l2.592-5.833H14.5a.833.833 0 1 1 0-1.667h1.667c.101 0 .197.024.29.058.026.01.051.024.077.036a.855.855 0 0 1 .178.12c.02.018.04.033.059.052a.835.835 0 0 1 .157.229l.005.013.002.002L20.042 17h.291a.833.833 0 1 1 0 1.667Zm-4.166-6.282-.94 2.115h1.88l-.94-2.115Zm0-4.552A.833.833 0 0 1 15.333 7v-.833h-1.68c.002.046.014.09.014.138V7c0 .46-.374.833-.834.833H6.167A.833.833 0 0 1 5.333 7v-.695c0-.047.012-.092.014-.138h-1.68v14.166h12.5a.833.833 0 1 1 0 1.667H2.833A.833.833 0 0 1 2 21.167V5.333c0-.46.373-.833.833-.833H5.96c.379-.49.9-.848 1.505-1.01C7.76 2.627 8.557 2 9.5 2c.943 0 1.74.626 2.036 1.49a2.82 2.82 0 0 1 1.505 1.01h3.126c.46 0 .833.372.833.833V7c0 .46-.373.833-.833.833Zm-5.334-2.777A.833.833 0 0 1 10 4.223c0-.307-.224-.556-.5-.556s-.5.249-.5.556c0 .46-.372.833-.833.833-.6 0-1.095.487-1.16 1.11h4.986c-.065-.623-.56-1.11-1.16-1.11Z" clip-rule="evenodd"/></svg>