<svg xmlns="http://www.w3.org/2000/svg" fill="none" viewBox="0 0 24 24"><path fill="#46464A" fill-rule="evenodd" d="M21.5 5.702A3.202 3.202 0 0 0 18.298 2.5h-8.66a3.202 3.202 0 0 0-3.202 3.202v1.522h-.735A3.202 3.202 0 0 0 2.5 10.425v7.873A3.202 3.202 0 0 0 5.7 21.5h7.873a3.202 3.202 0 0 0 3.202-3.202v-.734h1.522a3.202 3.202 0 0 0 3.202-3.202v-8.66Zm-4.724 10.182v-5.459a3.202 3.202 0 0 0-3.202-3.201H8.116V5.702c0-.841.681-1.522 1.522-1.522h8.66c.84 0 1.522.681 1.522 1.522v8.66c0 .84-.681 1.522-1.522 1.522h-1.522Zm-3.202-6.98c.841 0 1.522.68 1.522 1.521v7.873c0 .841-.681 1.522-1.522 1.522H5.701c-.84 0-1.522-.681-1.522-1.522v-7.873c0-.84.682-1.522 1.522-1.522h7.873Z" clip-rule="evenodd"/></svg>