<svg xmlns="http://www.w3.org/2000/svg" fill="none" viewBox="0 0 24 24"><path fill="#62757E" fill-rule="evenodd" d="M10.509 3.113a1.431 1.431 0 0 0-1.43 1.37h5.841a1.428 1.428 0 0 0-1.429-1.37H10.51Zm-2.718.058A3.043 3.043 0 0 1 10.51 1.5h2.982c1.188 0 2.216.68 2.717 1.671.484.042.966.09 1.446.146 1.52.177 2.609 1.483 2.609 2.973v13.166A3.044 3.044 0 0 1 17.22 22.5H6.78a3.044 3.044 0 0 1-3.043-3.044V6.29c0-1.49 1.088-2.796 2.61-2.973.479-.055.96-.104 1.444-.146ZM7.49 4.82c-.32.03-.639.064-.957.1-.667.078-1.182.659-1.182 1.371v13.166c0 .79.64 1.43 1.43 1.43h10.44c.79 0 1.43-.64 1.43-1.43V6.29c0-.712-.515-1.293-1.182-1.37-.318-.037-.637-.07-.957-.101a1.553 1.553 0 0 1-1.528 1.277H9.017A1.553 1.553 0 0 1 7.49 4.819Zm8.678 12.866h-2.5a.834.834 0 0 1 0-1.667h.384l-.372-.836-.012.003h-3.334l-.012-.003-.372.836h.384a.833.833 0 1 1 0 1.667h-2.5a.834.834 0 0 1 0-1.667h.292l2.592-5.833h-.384a.833.833 0 1 1 0-1.667H12c.102 0 .197.024.29.058.027.01.052.024.078.036a.852.852 0 0 1 .177.12c.02.018.04.033.06.052a.837.837 0 0 1 .157.229l.005.012.001.003 3.107 6.99h.292a.833.833 0 1 1 0 1.667ZM12 11.403l-.94 2.115h1.88L12 11.403Z" clip-rule="evenodd"/></svg>