<svg xmlns="http://www.w3.org/2000/svg" fill="none" viewBox="0 0 24 24"><path fill="#62757E" fill-rule="evenodd" d="M18.298 2.5A3.202 3.202 0 0 1 21.5 5.702v8.66a3.202 3.202 0 0 1-3.202 3.202h-1.522v.734a3.202 3.202 0 0 1-3.202 3.202H5.701A3.202 3.202 0 0 1 2.5 18.298v-7.873a3.202 3.202 0 0 1 3.2-3.201h.735V5.702A3.202 3.202 0 0 1 9.638 2.5h8.66Zm-1.522 7.925v5.459h1.522c.84 0 1.522-.681 1.522-1.522v-8.66c0-.841-.681-1.522-1.522-1.522h-8.66c-.84 0-1.522.681-1.522 1.522v1.522h5.458a3.202 3.202 0 0 1 3.202 3.201Zm-1.68 0c0-.84-.681-1.522-1.522-1.522H5.701c-.84 0-1.522.682-1.522 1.522v7.873c0 .841.682 1.522 1.522 1.522h7.873c.841 0 1.522-.681 1.522-1.522v-7.873ZM13.581 12a.85.85 0 1 0-1.435-.913l-2.991 4.701-1.76-1.408a.85.85 0 1 0-1.063 1.328l2.5 2a.85.85 0 0 0 1.248-.208l3.5-5.5Z" clip-rule="evenodd"/></svg>