<svg xmlns="http://www.w3.org/2000/svg" fill="none" viewBox="0 0 24 24"><path fill="#62757E" fill-rule="evenodd" d="M9.8 2C8.53 2 7.5 3.034 7.5 4.307v1.706H5.8a2.3 2.3 0 0 0-2.3 2.3V19.7A2.3 2.3 0 0 0 5.8 22h8.367a2.3 2.3 0 0 0 2.3-2.3v-1.662H18.2c1.27 0 2.3-1.032 2.3-2.305V4.306a2.303 2.303 0 0 0-2.3-2.305zm5.067 16.037H9.8c-1.27 0-2.3-1.032-2.3-2.305v-8.12H5.8a.7.7 0 0 0-.7.7v11.387a.7.7 0 0 0 .7.7h8.367a.7.7 0 0 0 .7-.7zM9.1 4.307a.7.7 0 0 1 .7-.703h8.4a.7.7 0 0 1 .7.702v11.426a.7.7 0 0 1-.7.701H9.8a.7.7 0 0 1-.7-.701z" clip-rule="evenodd"/></svg>