<svg xmlns="http://www.w3.org/2000/svg" fill="none" viewBox="0 0 24 24"><path fill="#62757E" fill-rule="evenodd" d="M7.5 4.306a2.303 2.303 0 0 1 2.3-2.305h8.4c1.27 0 2.3 1.032 2.3 2.305v11.426a2.303 2.303 0 0 1-2.3 2.305h-1.733v1.662a2.3 2.3 0 0 1-2.3 2.3H5.8a2.3 2.3 0 0 1-2.3-2.3V8.312a2.3 2.3 0 0 1 2.3-2.3h1.7zm2.3 13.73h5.067V19.7a.7.7 0 0 1-.7.7H5.8a.7.7 0 0 1-.7-.7V8.312a.7.7 0 0 1 .7-.7h1.7v8.12a2.303 2.303 0 0 0 2.3 2.305m0-14.432a.7.7 0 0 0-.7.702v11.426a.7.7 0 0 0 .7.701h8.4a.7.7 0 0 0 .7-.701V4.306a.7.7 0 0 0-.7-.702zm3.452 6.88-1.077-1.078a.832.832 0 1 0-1.179 1.178l1.667 1.667a.83.83 0 0 0 1.178 0l3.334-3.333a.832.832 0 1 0-1.179-1.179z" clip-rule="evenodd"/></svg>