<svg xmlns="http://www.w3.org/2000/svg" fill="none" viewBox="0 0 24 24"><path fill="#62757E" fill-rule="evenodd" d="M10.509 3.113a1.43 1.43 0 0 0-1.43 1.37h5.841a1.43 1.43 0 0 0-1.429-1.37zm-2.718.058A3.04 3.04 0 0 1 10.51 1.5h2.982c1.188 0 2.216.68 2.717 1.671q.726.063 1.446.146c1.52.177 2.609 1.483 2.609 2.973v13.166A3.044 3.044 0 0 1 17.22 22.5H6.78a3.044 3.044 0 0 1-3.043-3.044V6.29c0-1.49 1.088-2.796 2.61-2.973q.718-.083 1.444-.146M7.49 4.82q-.48.046-.957.1c-.667.078-1.182.659-1.182 1.371v13.166c0 .79.64 1.43 1.43 1.43h10.44c.79 0 1.43-.64 1.43-1.43V6.29c0-.712-.515-1.293-1.182-1.37q-.477-.055-.957-.101a1.55 1.55 0 0 1-1.528 1.277H9.017A1.55 1.55 0 0 1 7.49 4.819m8.261 5.924h-7.5a.833.833 0 1 1 0-1.667h7.5a.833.833 0 1 1 0 1.667m-8.333 5.833c0-.46.373-.833.833-.833h5a.833.833 0 1 1 0 1.666h-5a.834.834 0 0 1-.833-.833m0-3.333c0-.461.373-.834.833-.834h7.5a.833.833 0 1 1 0 1.667h-7.5a.833.833 0 0 1-.833-.833" clip-rule="evenodd"/></svg>