<svg xmlns="http://www.w3.org/2000/svg" fill="none" viewBox="0 0 24 24"><path fill="#62757E" fill-rule="evenodd" d="M9.8 2C8.53 2 7.5 3.034 7.5 4.307v1.706H5.8a2.3 2.3 0 0 0-2.3 2.3V18.85l-1.324 1.325a.85.85 0 0 0 1.202 1.202L21.246 3.508a.85.85 0 0 0-1.202-1.202l-.296.295a2.3 2.3 0 0 0-1.548-.6zm8.811 1.738a.7.7 0 0 0-.411-.134H9.8a.7.7 0 0 0-.7.702v8.944zM7.5 14.85V7.612H5.8a.7.7 0 0 0-.7.7v8.937zM5.8 22q-.304-.001-.586-.076l1.525-1.525h7.428a.7.7 0 0 0 .7-.7v-1.662H9.8q-.32-.002-.616-.084l1.52-1.52H18.2a.7.7 0 0 0 .7-.701V8.238l1.6-1.6v9.094a2.303 2.303 0 0 1-2.3 2.305h-1.733v1.662a2.3 2.3 0 0 1-2.3 2.3z" clip-rule="evenodd"/></svg>