<svg xmlns="http://www.w3.org/2000/svg" fill="none" viewBox="0 0 24 24"><path fill="#62757E" fill-rule="evenodd" d="M2.5 5.702A3.202 3.202 0 0 1 5.7 2.5h8.66a3.202 3.202 0 0 1 3.202 3.202v1.522h.735a3.202 3.202 0 0 1 3.202 3.201v7.873a3.202 3.202 0 0 1-3.202 3.202h-7.873a3.202 3.202 0 0 1-3.201-3.202v-.734H5.7a3.202 3.202 0 0 1-3.2-3.202v-8.66Zm4.724 10.182v-5.459a3.202 3.202 0 0 1 3.201-3.201h5.459V5.702c0-.841-.682-1.522-1.522-1.522h-8.66c-.841 0-1.523.681-1.523 1.522v8.66c0 .84.682 1.522 1.522 1.522h1.523Zm3.201-6.98c-.84 0-1.522.68-1.522 1.521v7.873c0 .841.682 1.522 1.522 1.522h7.873c.84 0 1.522-.681 1.522-1.522v-7.873c0-.84-.681-1.522-1.522-1.522h-7.873Z" clip-rule="evenodd"/></svg>