<svg xmlns="http://www.w3.org/2000/svg" fill="none" viewBox="0 0 24 24"><g clip-path="url(#a)"><path fill="#71C800" d="M12 24c6.627 0 12-5.373 12-12S18.627 0 12 0 0 5.373 0 12s5.373 12 12 12Z"/><path fill="#fff" fill-rule="evenodd" d="M17.802 11.24c-.465.023-.931.05-1.396.033-.418-.015-.833-.084-1.25-.133a.242.242 0 0 1-.116-.054c-.688-.565-1.364-1.142-1.958-1.81a2.221 2.221 0 0 1-.49-.828c-.13-.432-.684-.598-1.095-.348a.783.783 0 0 0-.141 1.223.53.53 0 0 0 .23.134c.313.076.556.263.784.474.41.379.778.798 1.135 1.227.102.122.05.264-.107.282a9.7 9.7 0 0 1-.73.064c-.46.019-.92.037-1.38.032a5.055 5.055 0 0 1-.77-.085 1 1 0 0 1-.339-.133c-.342-.205-.697-.066-.894.137a.784.784 0 0 0-.119.938c.165.281.488.445.78.384a.842.842 0 0 0 .24-.098 1.43 1.43 0 0 1 .625-.177c.351-.021.705-.041 1.056-.033.448.01.895.05 1.342.078.061.004.123.007.183.017.168.027.216.161.105.293-.133.158-.262.322-.406.47-.304.31-.612.616-.925.917a1.094 1.094 0 0 1-.51.276c-.388.092-.58.466-.525.845a.78.78 0 0 0 .77.658c.352 0 .623-.187.717-.524.096-.347.318-.608.55-.862.571-.627 1.214-1.179 1.869-1.714a.28.28 0 0 1 .133-.06c.331-.042.663-.096.996-.117.375-.024.75-.03 1.127-.015.391.016.781.067 1.183.105-.007.136-.009.251-.02.366a5.649 5.649 0 0 1-.612 2.12c-.865 1.634-2.199 2.657-4.004 3.056a5.625 5.625 0 0 1-1.231.12c-.44 0-.88.004-1.32 0-1.221-.013-2.337-.36-3.33-1.072-1.196-.857-1.968-2.007-2.3-3.443a5.25 5.25 0 0 1-.133-.976 25.904 25.904 0 0 1-.016-1.865 5.809 5.809 0 0 1 4.285-5.438c.48-.131.977-.198 1.476-.2.51-.002 1.02-.01 1.53.002a5.65 5.65 0 0 1 3.31 1.13 5.709 5.709 0 0 1 2.235 3.456c.076.343.102.697.154 1.062-.254.033-.475.076-.698.087Z" clip-rule="evenodd"/></g><defs><clipPath id="a"><path fill="#fff" d="M0 0h24v24H0z"/></clipPath></defs></svg>