<svg xmlns="http://www.w3.org/2000/svg" fill="none" viewBox="0 0 24 24"><g clip-path="url(#a)"><path fill="#71C800" d="M12 24c6.627 0 12-5.373 12-12S18.627 0 12 0 0 5.373 0 12s5.373 12 12 12Z"/><path fill="#fff" fill-rule="evenodd" d="M17.802 11.24c-.465.023-.931.05-1.397.033-.417-.015-.832-.084-1.248-.133a.242.242 0 0 1-.117-.054c-.688-.565-1.365-1.142-1.958-1.81a2.22 2.22 0 0 1-.49-.828c-.13-.432-.685-.598-1.095-.348a.783.783 0 0 0-.142 1.223c.065.063.144.11.23.134.314.076.556.263.785.474.41.379.778.798 1.135 1.227.102.122.05.264-.107.282a9.693 9.693 0 0 1-.73.064c-.46.019-.92.037-1.38.032a5.056 5.056 0 0 1-.77-.085 1.002 1.002 0 0 1-.34-.133c-.341-.205-.696-.066-.893.137a.784.784 0 0 0-.119.938c.164.281.488.445.779.384a.841.841 0 0 0 .241-.098 1.43 1.43 0 0 1 .625-.177c.351-.021.705-.041 1.056-.033.447.01.895.05 1.342.078.061.004.123.007.183.017.168.027.216.161.105.293-.134.158-.262.322-.407.47-.303.31-.611.616-.924.917a1.094 1.094 0 0 1-.51.276c-.388.092-.58.466-.525.845a.78.78 0 0 0 .77.658c.352 0 .623-.187.717-.524.096-.347.318-.608.55-.862.571-.627 1.214-1.179 1.869-1.714a.28.28 0 0 1 .133-.06c.331-.042.663-.096.996-.117.375-.024.75-.03 1.126-.015.392.016.782.067 1.184.105-.007.136-.009.251-.02.366a5.649 5.649 0 0 1-.612 2.12c-.865 1.634-2.2 2.657-4.004 3.056a5.625 5.625 0 0 1-1.231.12c-.44 0-.88.004-1.32 0-1.221-.013-2.337-.36-3.33-1.072-1.196-.857-1.968-2.007-2.3-3.443a5.25 5.25 0 0 1-.133-.976 25.898 25.898 0 0 1-.016-1.865 5.809 5.809 0 0 1 4.285-5.438 5.673 5.673 0 0 1 1.475-.2c.51-.002 1.02-.01 1.53.002a5.655 5.655 0 0 1 3.312 1.13 5.709 5.709 0 0 1 2.233 3.456c.077.343.103.697.155 1.062-.255.033-.475.076-.698.087Z" clip-rule="evenodd"/></g><defs><clipPath id="a"><path fill="#fff" d="M0 0h24v24H0z"/></clipPath></defs></svg>