<svg xmlns="http://www.w3.org/2000/svg" fill="none" viewBox="0 0 24 24"><path fill="#2E3148" d="M12 22c5.523 0 10-4.477 10-10S17.523 2 12 2 2 6.477 2 12s4.477 10 10 10"/><path fill="#1B1E36" d="M12 17.802a5.802 5.802 0 1 0 0-11.605 5.802 5.802 0 0 0 0 11.605"/><path fill="#6F7390" d="M12.02 3.276c-1.079 0-1.954 3.915-1.954 8.745s.875 8.744 1.955 8.744 1.954-3.915 1.954-8.744c0-4.83-.875-8.745-1.954-8.745m.136 16.996c-.124.165-.247.041-.247.041-.497-.576-.746-1.646-.746-1.646-.87-2.798-.662-8.807-.662-8.807.408-4.77 1.152-5.896 1.404-6.146a.155.155 0 0 1 .198-.016c.367.26.675 1.347.675 1.347.91 3.375.827 6.544.827 6.544.082 2.757-.456 5.843-.456 5.843-.414 2.346-.993 2.84-.993 2.84"/><path fill="#6F7390" d="M19.606 7.669c-.538-.937-4.369.252-8.56 2.656s-7.148 5.11-6.61 6.047c.536.936 4.368-.253 8.56-2.656 4.19-2.403 7.147-5.111 6.61-6.047M4.93 16.244c-.206-.026-.16-.195-.16-.195.253-.718 1.056-1.466 1.056-1.466 1.996-2.147 7.31-4.957 7.31-4.957 4.34-2.02 5.689-1.935 6.031-1.84a.154.154 0 0 1 .112.164c-.041.448-.833 1.256-.833 1.256-2.473 2.469-5.263 3.975-5.263 3.975-2.35 1.444-5.295 2.512-5.295 2.512-2.241.808-2.958.55-2.958.55"/><path fill="#6F7390" d="M19.587 16.403c.541-.934-2.408-3.654-6.584-6.075s-8.008-3.626-8.549-2.69 2.408 3.654 6.587 6.076 8.005 3.625 8.546 2.69M4.813 8c-.08-.19.089-.235.089-.235.748-.142 1.798.18 1.798.18 2.857.65 7.952 3.842 7.952 3.842 3.922 2.745 4.524 3.954 4.614 4.297a.154.154 0 0 1-.085.18c-.41.187-1.505-.092-1.505-.092-3.376-.905-6.077-2.564-6.077-2.564-2.426-1.309-4.825-3.322-4.825-3.322C4.95 8.75 4.814 8 4.814 8z"/><path fill="#B7B9C8" d="M12 13.029a1.029 1.029 0 1 0 0-2.058 1.029 1.029 0 0 0 0 2.058m4.218-4.362c.33 0 .597-.277.597-.618a.607.607 0 0 0-.597-.617.607.607 0 0 0-.596.617c0 .341.267.618.596.618m-9.794 2.099c.33 0 .597-.277.597-.618a.607.607 0 0 0-.597-.617.607.607 0 0 0-.597.617c0 .341.267.617.597.617m4.362 7.572c.33 0 .596-.276.596-.617a.607.607 0 0 0-.596-.617.607.607 0 0 0-.597.617c0 .341.267.617.597.617"/></svg>