<svg xmlns="http://www.w3.org/2000/svg" fill="none" viewBox="0 0 24 18"><g clip-path="url(#a)"><mask id="b" width="24" height="18" x="0" y="0" maskUnits="userSpaceOnUse" style="mask-type:luminance"><path fill="#fff" d="M0 0h24v18H0z"/></mask><g mask="url(#b)"><path fill="#F7FCFF" fill-rule="evenodd" d="M0 0h24v18H0V0Z" clip-rule="evenodd"/><path fill="#272727" fill-rule="evenodd" d="M0 0v6h24V0H0Z" clip-rule="evenodd"/><path fill="#4E8B1D" fill-rule="evenodd" d="M0 12v6h24v-6H0Z" clip-rule="evenodd"/><path fill="#E31D1C" stroke="#F7FCFF" stroke-width="2" d="M0 5h-1v8h26V5H0Z"/><path fill="#3D58DB" fill-rule="evenodd" d="m0 0 15 9-15 9V0Z" clip-rule="evenodd"/><path fill="#FECA00" fill-rule="evenodd" d="M4.986 10.806 3.47 12.383l-.158-2.24-1.932-1.19 2.015-.632.33-2.218L5.12 7.858l2.034-.545-1.051 2.082 1.022 2.008-2.14-.597Z" clip-rule="evenodd"/></g></g><path stroke="#000" stroke-opacity=".1" stroke-width=".5" d="M.25.25h23.5v17.5H.25z"/><defs><clipPath id="a"><path fill="#fff" d="M0 0h24v18H0z"/></clipPath></defs></svg>