<svg xmlns="http://www.w3.org/2000/svg" fill="none" viewBox="0 0 24 18"><g clip-path="url(#a)"><mask id="b" width="24" height="18" x="0" y="0" maskUnits="userSpaceOnUse" style="mask-type:luminance"><path fill="#fff" d="M0 0h24v18H0z"/></mask><g mask="url(#b)"><path fill="#2E42A5" fill-rule="evenodd" d="M0 0v18h24V0H0Z" clip-rule="evenodd"/><mask id="c" width="24" height="18" x="0" y="0" maskUnits="userSpaceOnUse" style="mask-type:luminance"><path fill="#fff" fill-rule="evenodd" d="M0 0v18h24V0H0Z" clip-rule="evenodd"/></mask><g mask="url(#c)"><path fill="#6DC2FF" stroke="#F7FCFF" stroke-width=".5" d="M19.447 16.223c-.963 0-1.63-.219-2.104-.598-.474-.38-.786-.945-.985-1.701-.2-.759-.283-1.688-.313-2.77a76.837 76.837 0 0 1-.014-2.473l.004-.907h6.91c.123 2.162.165 4.261-.273 5.836-.226.81-.573 1.46-1.082 1.906-.506.443-1.194.707-2.143.707Z"/><mask id="d" width="9" height="10" x="15" y="7" maskUnits="userSpaceOnUse" style="mask-type:luminance"><path fill="#fff" stroke="#fff" stroke-width=".5" d="M19.447 16.223c-.963 0-1.63-.219-2.104-.598-.474-.38-.786-.945-.985-1.701-.2-.759-.283-1.688-.313-2.77a76.837 76.837 0 0 1-.014-2.473l.004-.907h6.91c.123 2.162.165 4.261-.273 5.836-.226.81-.573 1.46-1.082 1.906-.506.443-1.194.707-2.143.707Z"/></mask><g mask="url(#d)"><path fill="#2EBED7" d="M15.699 7.5h7.553v5.984h-7.553z"/><path fill="#A95601" d="M15.6 13.435h7.95V16.5H15.6z"/><path stroke="#FFC6B5" d="M20.06 10.098s-1.4.317-1.266 0c.136-.318.498-1.463.498-1.463"/><path fill="#FFC6B5" fill-rule="evenodd" d="M20.48 10.324s-.255-.156-.255-.441c0-.286-.623-.392-.184-.838.44-.445.63-.249.63 0 0 .25.352.838.352.838l-.543.441Z" clip-rule="evenodd"/><path fill="#272727" fill-rule="evenodd" d="M19.774 7.743h-.696v.681h-1.391v.681h1.391v5.935h.696V9.105h1.391v-.68h-1.391v-.682Z" clip-rule="evenodd"/><path fill="#0C7C38" fill-rule="evenodd" d="M21.272 15.24s-.253-1.17-.253-1.972-.424-1.375-.303-1.799c.12-.424.413-.893.267-1.183-.146-.29.142-.431-.267-.29-.41.141-.52-.141-.915 0s-.445.808-.445.999c0 .19.175 1.473.175 1.873 0 .4-.145 2.86.27 2.86.414 0 .866-.64 1.024-.64.158 0 .447.153.447.153Z" clip-rule="evenodd"/><path stroke="#FF9A06" d="M18.772 12.106c-.252 0-.02.587-.663.844s-.769.62-.566.62c.202 0 1.803 1.798 1.803 1.798l.393-.606v-1.917s-.714-.739-.967-.739Z" clip-rule="evenodd"/><path stroke="#979797" d="M20.657 15.118s.3.644 0 .644"/><path stroke="#FFC6B5" d="M20.56 10.342s-.13.723-.382.874c-.25.151-1.282.444-1.282.694 0 .25-.102.339-.102.339"/><path fill="#FF9A06" fill-rule="evenodd" d="M20.06 8.852s.253.3.394.794c.142.494.55.662.55.43 0-.23.303-1.224 0-1.224h-.943Z" clip-rule="evenodd"/></g><path fill="#2B409A" d="M-4-3h18v14H-4z"/><mask id="e" width="18" height="14" x="-4" y="-3" maskUnits="userSpaceOnUse" style="mask-type:luminance"><path fill="#fff" d="M-4-3h18v14H-4z"/></mask><g mask="url(#e)"><path fill="#F7FCFF" d="m-6.004 10 3.96 1.737L14.09-1.11l2.09-2.582-4.236-.58-6.58 5.536-5.297 3.73L-6.004 10Z"/><path fill="#F50100" d="m-5.462 11.217 2.018 1.008L15.429-3.933h-2.833l-18.058 15.15Z"/><path fill="#F7FCFF" d="m16.004 10-3.96 1.737L-4.09-1.11l-2.09-2.582 4.236-.58 6.58 5.536 5.297 3.73L16.004 10Z"/><path fill="#F50100" d="m15.87 10.873-2.019 1.008-8.036-6.918-2.383-.773-9.812-7.874h2.833L6.26 4.004l2.605.926 7.004 5.943Z"/><mask id="f" width="22" height="18" x="-6" y="-5" fill="#000" maskUnits="userSpaceOnUse"><path fill="#fff" d="M-6-5h22v18H-6z"/><path fill-rule="evenodd" d="M5.985-3h-2v6H-4v2h7.985v6h2V5H14V3H5.985v-6Z" clip-rule="evenodd"/></mask><path fill="#F50100" fill-rule="evenodd" d="M5.985-3h-2v6H-4v2h7.985v6h2V5H14V3H5.985v-6Z" clip-rule="evenodd"/><path fill="#F7FCFF" d="M3.985-3v-1.5h-1.5V-3h1.5Zm2 0h1.5v-1.5h-1.5V-3Zm-2 6v1.5h1.5V3h-1.5ZM-4 3V1.5h-1.5V3H-4Zm0 2h-1.5v1.5H-4V5Zm7.985 0h1.5V3.5h-1.5V5Zm0 6h-1.5v1.5h1.5V11Zm2 0v1.5h1.5V11h-1.5Zm0-6V3.5h-1.5V5h1.5ZM14 5v1.5h1.5V5H14Zm0-2h1.5V1.5H14V3ZM5.985 3h-1.5v1.5h1.5V3Zm-2-4.5h2v-3h-2v3Zm1.5 4.5v-6h-3v6h3ZM-4 4.5h7.985v-3H-4v3Zm1.5.5V3h-3v2h3Zm6.485-1.5H-4v3h7.985v-3Zm1.5 7.5V5h-3v6h3Zm.5-1.5h-2v3h2v-3ZM4.485 5v6h3V5h-3ZM14 3.5H5.985v3H14v-3ZM12.5 3v2h3V3h-3ZM5.985 4.5H14v-3H5.985v3ZM4.485-3v6h3v-6h-3Z" mask="url(#f)"/></g></g></g></g><path stroke="#000" stroke-opacity=".1" stroke-width=".5" d="M.25.25h23.5v17.5H.25z"/><defs><clipPath id="a"><path fill="#fff" d="M0 0h24v18H0z"/></clipPath></defs></svg>