<svg xmlns="http://www.w3.org/2000/svg" fill="none" viewBox="0 0 24 18"><g clip-path="url(#a)"><mask id="b" width="24" height="18" x="0" y="0" maskUnits="userSpaceOnUse" style="mask-type:luminance"><path fill="#fff" d="M0 0h24v18H0z"/></mask><g mask="url(#b)"><path fill="#C51918" fill-rule="evenodd" d="M0 0h24v16a2 2 0 0 1-2 2H2a2 2 0 0 1-2-2z" clip-rule="evenodd"/><path fill="#C51918" fill-rule="evenodd" d="M0 0h24v18H0z" clip-rule="evenodd"/><path fill="#579D20" fill-rule="evenodd" d="M4.5 4.5h15v9h-15z" clip-rule="evenodd"/><path stroke="#B6EB9A" stroke-opacity=".238" stroke-width="2" d="M18.5 5.5v7h-13v-7z"/><mask id="c" width="16" height="10" x="4" y="4" maskUnits="userSpaceOnUse" style="mask-type:luminance"><path fill="#fff" fill-rule="evenodd" d="M4.5 4.5h15v9h-15z" clip-rule="evenodd"/><path stroke="#fff" stroke-width="2" d="M18.5 5.5v7h-13v-7z"/></mask><g mask="url(#c)"><path fill="#F9FAFA" fill-rule="evenodd" d="M12.025 9.347c-.013 2.3 1.797 3.525 1.797 3.525-2.065.243-3.44-1.63-3.44-3.503s1.874-3.42 3.44-4.118c0 0-1.785 1.797-1.797 4.096" clip-rule="evenodd"/></g></g></g><rect width="23" height="17" x=".5" y=".5" stroke="#000" stroke-opacity=".1" rx="1.5"/><defs><clipPath id="a"><rect width="24" height="18" fill="#fff" rx="2"/></clipPath></defs></svg>