<svg xmlns="http://www.w3.org/2000/svg" fill="none" viewBox="0 0 24 18"><g clip-path="url(#a)"><mask id="b" width="24" height="18" x="0" y="0" maskUnits="userSpaceOnUse" style="mask-type:luminance"><path fill="#fff" d="M0 0h24v18H0z"/></mask><g mask="url(#b)"><path fill="#C51918" fill-rule="evenodd" d="M0 0v18h24V0H0Z" clip-rule="evenodd"/><mask id="c" width="24" height="18" x="0" y="0" maskUnits="userSpaceOnUse" style="mask-type:luminance"><path fill="#fff" fill-rule="evenodd" d="M0 0v18h24V0H0Z" clip-rule="evenodd"/></mask><g mask="url(#c)"><path fill="#FFDC17" fill-rule="evenodd" d="M11.987 13.4c.08 0 .16-.002.24-.006l.462 1.476.107-1.542a4.58 4.58 0 0 0 .456-.107l.794 1.33-.255-1.526c.144-.062.283-.132.418-.208l1.082 1.113-.602-1.427c.124-.093.243-.193.357-.298l1.313.836-.918-1.25c.1-.12.192-.244.28-.372l1.47.513-1.183-1.006c.069-.138.131-.28.186-.426l1.55.163-1.386-.709c.035-.15.063-.302.082-.457l1.546-.196-1.513-.372c0-.157-.01-.312-.026-.464l1.458-.544-1.556-.017a4.365 4.365 0 0 0-.134-.446l1.29-.862-1.516.34a4.447 4.447 0 0 0-.236-.405L16.808 5.4l-1.396.677a4.49 4.49 0 0 0-.323-.34l.762-1.343-1.199.977a4.508 4.508 0 0 0-.394-.259l.429-1.478-.939 1.223a4.48 4.48 0 0 0-.445-.161l.074-1.534-.629 1.403a4.527 4.527 0 0 0-.47-.055L11.991 3l-.285 1.508a4.53 4.53 0 0 0-.472.054l-.627-1.401.073 1.53c-.153.046-.302.1-.448.162l-.935-1.22.427 1.473a4.53 4.53 0 0 0-.398.26l-1.194-.973.758 1.336a4.493 4.493 0 0 0-.326.343L7.176 5.4l1.049 1.126a4.437 4.437 0 0 0-.239.409L6.48 6.596l1.282.856a4.39 4.39 0 0 0-.136.453L6.08 7.92l1.447.54a4.463 4.463 0 0 0-.027.47L6 9.301l1.535.195a4.4 4.4 0 0 0 .082.463l-1.375.704 1.54-.162c.055.148.118.292.188.431l-1.176 1 1.462-.51a4.5 4.5 0 0 0 .284.375l-.914 1.244 1.307-.832c.115.106.235.206.361.3l-.6 1.421 1.078-1.11c.136.077.277.147.421.21l-.253 1.52.792-1.327c.149.043.302.08.457.107l.107 1.54.463-1.476c.076.004.152.006.229.006Zm3.375-4.463c0 1.863-1.523 3.374-3.402 3.374-1.88 0-3.402-1.51-3.402-3.374s1.523-3.375 3.402-3.375c1.879 0 3.402 1.511 3.402 3.375Zm-1.03 1.099a2.564 2.564 0 0 0 .01-2.067 4.017 4.017 0 0 0-1.488.394c.896.392 1.302 1.038 1.479 1.673Zm-.288.493a2.766 2.766 0 0 1-.24.278c-.048-.886-.427-1.56-1.106-2.29.84.404 1.315 1.367 1.346 2.012Zm-.644.608a2.523 2.523 0 0 1-.146.09c-.202-.995-.584-1.78-1.116-2.407l.129-.097.052-.039c.681.783 1.11 1.455 1.081 2.454Zm-1.418.427c.302 0 .591-.052.86-.148-.195-.947-.536-1.828-1.029-2.465-.589.702-.888 1.494-.9 2.381.326.149.688.232 1.069.232Zm-.495-2.917.058.048c-.627.713-.97 1.518-1.029 2.41a2.595 2.595 0 0 1-.221-.172c.236-.944.628-1.722 1.192-2.286Zm-1.873-.66a4.44 4.44 0 0 1 1.403.375c-.889.378-1.239.987-1.415 1.607a2.564 2.564 0 0 1-.192-.977c0-.357.072-.696.204-1.005Zm.322 2.564a2.528 2.528 0 0 1-.058-.079c.045-.652.46-1.576 1.298-1.958a4.488 4.488 0 0 0-1.24 2.037Zm.19-3.34a2.565 2.565 0 0 1 1.856-.791c.717 0 1.366.294 1.833.768-.734.085-1.357.269-1.862.555-.45-.258-1.06-.433-1.826-.533Z" clip-rule="evenodd"/></g></g></g><rect width="23" height="17" x=".5" y=".5" stroke="#000" stroke-opacity=".1" rx="1.5"/><defs><clipPath id="a"><rect width="24" height="18" fill="#fff" rx="2"/></clipPath></defs></svg>