<svg xmlns="http://www.w3.org/2000/svg" fill="none" viewBox="0 0 24 18"><g clip-path="url(#a)"><mask id="b" width="24" height="18" x="0" y="0" maskUnits="userSpaceOnUse" style="mask-type:luminance"><path fill="#fff" d="M0 0h24v18H0z"/></mask><g mask="url(#b)"><path fill="#29C470" fill-rule="evenodd" d="M0 0v18h24V0H0Z" clip-rule="evenodd"/><mask id="c" width="24" height="18" x="0" y="0" maskUnits="userSpaceOnUse" style="mask-type:luminance"><path fill="#fff" fill-rule="evenodd" d="M0 0v18h24V0H0Z" clip-rule="evenodd"/></mask><g mask="url(#c)"><path fill="#C51918" d="M1.5-.242H9V19.5H1.5z"/><mask id="d" width="8" height="21" x="1" y="-1" maskUnits="userSpaceOnUse" style="mask-type:luminance"><path fill="#fff" d="M1.5-.242H9V19.5H1.5z"/></mask><g mask="url(#d)"><path fill="#E8AA00" fill-rule="evenodd" d="m1.947.68-.41.526-.037-.037.397-.51V.555L1.9.546l.046-.142-.028-.05-.235.235.452-.704v.24l.087.079.207-.362-.208-.349-.15.116.061.122-.042.029-.338-.567.215.148.038-.055-.206-.21.091-.101-.302-.441.039-.034.329.48-.086.094.202.205-.093.135-.062-.042.118.197.2-.153.253.425-.254.445-.148-.134V.056l-.148.231.063.11-.053.164v.118Zm-.41 4.293.41-.527v-.118L2 4.164l-.063-.11.148-.23v.096l.148.133.254-.445-.254-.425-.199.153-.118-.197.062.042.093-.135-.202-.205.086-.094-.329-.48-.039.034.302.44-.091.101.206.211-.038.055-.215-.147.338.566.042-.03-.06-.121.15-.116.207.349-.207.362-.087-.078v-.24l-.452.703.235-.234.028.05-.046.142-.002.009v.103l-.397.51.037.037Zm.41 2.908-.41.526-.037-.036.397-.51v-.103l.002-.01.046-.142-.028-.05-.235.235.452-.704v.24l.087.079.207-.362-.208-.349-.15.115.061.123-.042.029-.338-.567.215.148.038-.055-.206-.21.091-.101-.302-.441.039-.034.329.48-.086.094.202.205-.093.135-.062-.043.118.198.2-.153.253.425-.254.445-.148-.134v-.096l-.148.231L2 7.6l-.053.164v.118Zm-.41 4.017.41-.527v-.118L2 11.089l-.063-.11.148-.23v.095l.148.134.254-.445-.254-.425-.199.153-.118-.197.062.042.093-.135-.202-.205.086-.094-.329-.48-.039.034.302.44-.091.101.206.21-.038.056-.215-.147.338.566.042-.03-.06-.121.15-.116.207.349-.207.362-.087-.078v-.24l-.452.703.235-.234.028.05-.046.142-.002.009v.103l-.397.51.037.037Zm0 3.102.41-.526v-.119L2 14.192l-.063-.11.148-.231v.096l.148.133.254-.444-.254-.425-.199.152-.118-.197.062.042.093-.134-.202-.206.086-.094-.329-.48-.039.034.302.441-.091.1.206.211-.038.055-.215-.147.338.566.042-.029-.06-.122.15-.115.207.348L2.22 14l-.087-.079v-.24l-.452.703.235-.234.028.05-.046.142-.002.01v.102l-.397.51.037.037Zm7.426 0-.41-.526v-.119l-.053-.163.063-.11-.148-.231v.096l-.148.133-.254-.444.254-.425.199.152.118-.197-.062.042-.093-.134.202-.206-.086-.094.329-.48.039.034-.302.441.091.1-.206.211.038.055.215-.147-.338.566-.042-.029.06-.122-.15-.115-.207.348.207.363.087-.079v-.24l.452.703-.235-.234-.028.05.046.142.002.01v.102l.397.51-.037.037Zm-.41-3.629.41.527L9 11.86l-.397-.51v-.103l-.002-.01-.046-.142.028-.05.235.235-.452-.704v.24l-.087.08-.207-.363.208-.349.15.116-.061.122.042.029.338-.566-.215.147-.038-.055.206-.21-.091-.101.302-.441-.039-.034-.329.48.086.094-.202.205.093.135.062-.042-.118.197-.2-.153-.253.425.254.445.148-.134v-.095l.148.23-.063.11.053.164v.118Zm.41-2.964-.41-.526v-.118L8.5 7.599l.063-.11-.148-.23v.095l-.148.134-.254-.445.254-.425.199.153.118-.198-.062.043-.093-.135.202-.205-.086-.094.329-.48.039.034-.302.44.091.101-.206.21.038.056.215-.148-.338.567-.042-.03.06-.122-.15-.115-.207.349.207.362.087-.078v-.24l.452.703-.235-.235-.028.05.046.142.002.01v.102L9 8.37l-.037.037Zm-.41-3.96.41.526L9 4.936l-.397-.51v-.103l-.002-.01-.046-.142.028-.05.235.235-.452-.704v.24l-.087.08-.207-.363.208-.349.15.116-.061.122.042.029.338-.566-.215.147-.038-.055.206-.21-.091-.101.302-.441-.039-.034-.329.48.086.094-.202.205.093.135.062-.042-.118.197-.2-.153-.253.425.254.445.148-.133v-.096l.148.23-.063.11.053.164v.118Zm.41-3.241-.41-.527V.561L8.5.397l.063-.11-.148-.23v.095l-.148.134-.254-.445.254-.425.199.153.118-.197-.062.042-.093-.135.202-.205-.086-.094.329-.48.039.034-.302.44.091.101-.206.21.038.056.215-.148-.338.567-.042-.03.06-.121-.15-.116-.207.349.207.362.087-.078v-.24l.452.703-.235-.234-.028.05.046.141.002.01v.102L9 1.17l-.037.037Z" clip-rule="evenodd"/><path fill="#389F5D" fill-rule="evenodd" d="M5.48 10.923h1.165v.274h.266v.219h.318v.71h-.318v.22h-.266v.218H5.511l-.314.279-.315-.28H3.831v-.218h-.266v-.219H3.3v-.71h.265v-.22h.266v-.273h1.082l.284-.25.283.25Z" clip-rule="evenodd"/><path fill="#E8AA00" d="M6.645 10.923h.25v-.25h-.25v.25Zm-1.165 0-.166.187.071.063h.095v-.25Zm1.165.274h-.25v.25h.25v-.25Zm.266 0h.25v-.25h-.25v.25Zm0 .219h-.25v.25h.25v-.25Zm.318 0h.25v-.25h-.25v.25Zm0 .71v.25h.25v-.25h-.25Zm-.318 0v-.25h-.25v.25h.25Zm0 .22v.25h.25v-.25h-.25Zm-.266 0v-.25h-.25v.25h.25Zm0 .218v.25h.25v-.25h-.25Zm-1.134 0v-.25h-.095l-.071.063.166.187Zm-.314.279-.165.187.166.147.165-.147-.166-.187Zm-.315-.28.166-.186-.071-.063h-.095v.25Zm-1.051 0h-.25v.25h.25v-.25Zm0-.218h.25v-.25h-.25v.25Zm-.266 0h-.25v.25h.25v-.25Zm0-.219h.25v-.25h-.25v.25Zm-.265 0h-.25v.25h.25v-.25Zm0-.71v-.25h-.25v.25h.25Zm.265 0v.25h.25v-.25h-.25Zm0-.22v-.25h-.25v.25h.25Zm.266 0v.25h.25v-.25h-.25Zm0-.273v-.25h-.25v.25h.25Zm1.082 0v.25h.095l.071-.062-.166-.188Zm.284-.25.166-.188-.165-.147-.166.147.165.187Zm1.448 0H5.48v.5h1.165v-.5Zm.25.524v-.274h-.5v.274h.5Zm.016-.25h-.266v.5h.266v-.5Zm.25.469v-.22h-.5v.22h.5Zm.068-.25h-.318v.5h.318v-.5Zm.25.96v-.71h-.5v.71h.5Zm-.568.25h.318v-.5h-.318v.5Zm.25-.03v-.22h-.5v.22h.5Zm-.516.25h.266v-.5h-.266v.5Zm.25-.032v-.219h-.5v.219h.5Zm-1.384.25h1.134v-.5H5.511v.5Zm-.148.216.314-.28-.332-.373-.314.279.332.374Zm-.647-.279.316.279.331-.374-.315-.28-.332.375Zm-.885.063h1.051v-.5H3.831v.5Zm-.25-.469v.219h.5v-.219h-.5Zm-.016.25h.266v-.5h-.266v.5Zm-.25-.469v.22h.5v-.22h-.5Zm-.015.25h.265v-.5H3.3v.5Zm-.25-.96v.71h.5v-.71h-.5Zm.515-.25H3.3v.5h.265v-.5Zm-.25.03v.22h.5v-.22h-.5Zm.516-.25h-.266v.5h.266v-.5Zm-.25-.023v.274h.5v-.274h-.5Zm1.332-.25H3.831v.5h1.082v-.5Zm.166.438.284-.252-.331-.374-.284.251.331.375Zm-.048-.252.283.251.332-.373-.283-.252-.332.374Z"/><path fill="#C51918" fill-rule="evenodd" d="M3.986 11.555v-.483h.563l-.563.483Zm2.369 0v-.483h-.563l.563.483Zm-2.369.875v-.483l.563.483h-.563Zm2.369-.483v.483h-.563l.563-.483Z" clip-rule="evenodd"/><path fill="#E8AA00" fill-rule="evenodd" d="m4.984 11.114.194-.255.192.255h-.386Zm0 .238.194.254.192-.254h-.386Zm.194.601-.194.255h.386l-.192-.255Zm-.194.492.194.255.192-.255h-.386Z" clip-rule="evenodd"/><path fill="#AF0100" fill-rule="evenodd" d="M4.988 11.084v.11h-.112v.15h.112v.109h.39v-.11h.11v-.15h-.11v-.11h-.39Zm.39 1.203v-.11h-.39v.11h-.112v.15h.112v.11h.39v-.11h.11v-.15h-.11Zm-1.138-.625.185-.256.183.256H4.24Zm0 .239.185.255.183-.255H4.24Zm1.725-.495-.185.256h.368l-.183-.256Zm-.185.495.185.255.183-.255H5.78Z" clip-rule="evenodd"/><path fill="#E8AA00" fill-rule="evenodd" d="M4.24 11.63v.112h-.107v.153h.106v.112h.37v-.112h.107v-.153H4.61v-.111h-.37Zm1.91.112v-.111h-.371v.111h-.106v.153h.106v.112h.37v-.112h.107v-.153H6.15Z" clip-rule="evenodd"/><mask id="e" width="5" height="4" x="3" y="12" maskUnits="userSpaceOnUse" style="mask-type:luminance"><path fill="#fff" fill-rule="evenodd" d="m4.663 12.938-1.329.75v1.241l1.329.78h1.439l1.36-.78v-1.242l-1.36-.749h-1.44Z" clip-rule="evenodd"/></mask><g mask="url(#e)"><path fill="#E8AA00" d="M3.353 14.322h2.07v1.367h-2.07v-1.367Z"/><path fill="#F9E8E7" d="M3.141 12.955h2.283v1.367H3.141z"/><path fill="#E8AA00" d="m3.672 13.752.687-.414v.414h-.687Zm4.035-.797H5.424v1.367h2.283z"/><path fill="#F9E8E7" d="m7.017 13.752-.688-.414v.414h.688Zm.477 1.938h-2.07v-1.368h2.07z"/><path fill="#E8AA00" d="m6.964 14.893-.688.413v-.413h.688Z"/><path fill="#FCFCFC" d="m3.672 14.806.687.414v-.414h-.687Z"/></g><path fill="#C51918" fill-rule="evenodd" d="M4.68 13.775h.346l.345-.11.345.11h.345v1.04h-.345l-.345.163-.345-.164H4.68v-1.039Z" clip-rule="evenodd"/><path fill="#C9343F" fill-rule="evenodd" d="M5.849 13.153h.187v.212h.077v.15h-.077v.08H5.85v-.442Zm-1.884.657h-.187v.442h.187v-.08h.077v-.15h-.077v-.212Zm.266 0h-.188v.442h.188v-.442Zm-.266.546h-.187v.443h.187v-.081h.077v-.15h-.077v-.212Zm.078 0h.188v.443h-.188v-.443Zm2.655-.546h.188v.211h.077v.15h-.077v.08h-.188v-.441Zm.453 0h-.187v.442h.187v-.442Zm-.265.546h-.188v.443h.188v-.081h.077v-.15h-.077v-.212Zm.078 0h.187v.443h-.187v-.443Zm-.662-1.203h-.188v.443h.188v-.443Zm-1.54 0h-.188v.443h.188v-.081h.077v-.15h-.077v-.212Zm.078 0h.187v.443H4.84v-.443Zm1.009 1.86h.187v.211h.077v.15h-.077v.081H5.85v-.442Zm.453 0h-.188v.442h.188v-.442Zm-1.54 0h-.188v.442h.188v-.08h.077v-.15h-.077v-.212Zm.078 0h.187v.442H4.84v-.442Z" clip-rule="evenodd"/><path fill="#fff" fill-rule="evenodd" d="M5.269 14h.053v-.149h-.265v.17h-.219v.244h.203v-.055h-.15v-.134h.18l.272.235-.272.235h-.18v-.135h.15v-.054h-.203v.243h.219v.17h.265v-.149h-.053v.095h-.16v-.132l.277-.24.276.24v.132h-.16v-.095H5.45v.15h.265v-.17h.218v-.245H5.73v.055h.15v.135H5.7l-.271-.235.271-.235h.18v.134h-.15v.055h.203v-.244h-.218v-.17H5.45V14h.053v-.094h.159v.131l-.276.24-.276-.24v-.131h.159V14Z" clip-rule="evenodd"/><path fill="#E8AA00" fill-rule="evenodd" d="M5.688 3.6h-.935v3h.935v-3Zm-2.104.635h.585V5.85h-.585V4.235Zm2.747 0h.585V5.85H6.33V4.235Z" clip-rule="evenodd"/><path fill="#389F5D" fill-rule="evenodd" d="M4.753 3.83H4.17v2.308h.584V3.831Zm-1.169.635H3v1.097h.584V4.465Zm3.332 0H7.5v1.097h-.584V4.465Zm-.643-.634h-.585v2.307h.585V3.831Z" clip-rule="evenodd"/><path fill="#E1E5E8" fill-rule="evenodd" d="M4.636 4.12a.174.174 0 0 1-.175.172.174.174 0 0 1-.175-.173c0-.095.078-.173.175-.173.097 0 .175.078.175.173Zm-1.168.576a.174.174 0 0 1-.176.173.174.174 0 0 1-.175-.173c0-.095.078-.173.175-.173.097 0 .176.078.176.173Zm0 .635a.174.174 0 0 1-.176.173.174.174 0 0 1-.175-.173c0-.096.078-.173.175-.173.097 0 .176.077.176.173Zm.993.692a.174.174 0 0 0 .175-.173.174.174 0 0 0-.175-.173.174.174 0 0 0-.175.173c0 .096.078.173.175.173ZM7.208 4.87a.174.174 0 0 0 .175-.173.174.174 0 0 0-.175-.173.174.174 0 0 0-.176.173c0 .096.079.173.176.173Zm.175.462a.174.174 0 0 1-.175.173.174.174 0 0 1-.176-.173c0-.096.079-.173.176-.173.097 0 .175.077.175.173Zm-1.402.692a.174.174 0 0 0 .175-.173.174.174 0 0 0-.175-.173.174.174 0 0 0-.176.173c0 .096.079.173.176.173Zm.175-1.904a.174.174 0 0 1-.175.173.174.174 0 0 1-.176-.173c0-.095.079-.173.176-.173.096 0 .175.078.175.173Z" clip-rule="evenodd"/><path fill="#C51918" fill-rule="evenodd" d="M5.396 3.889a.174.174 0 0 1-.175.173.174.174 0 0 1-.176-.173c0-.096.079-.173.176-.173.097 0 .175.077.175.173Zm-1.344.634a.174.174 0 0 1-.175.173.174.174 0 0 1-.176-.173c0-.095.079-.173.176-.173.096 0 .175.078.175.173Zm1.169 2.02a.174.174 0 0 0 .175-.174.174.174 0 0 0-.175-.173.174.174 0 0 0-.176.173c0 .096.079.174.176.174Zm1.578-2.02a.174.174 0 0 1-.176.173.174.174 0 0 1-.175-.173c0-.095.079-.173.175-.173.097 0 .176.078.176.173ZM3.877 5.735a.174.174 0 0 0 .175-.173.174.174 0 0 0-.175-.173.174.174 0 0 0-.176.173c0 .095.079.173.176.173Zm2.922-.173a.174.174 0 0 1-.176.173.174.174 0 0 1-.175-.173c0-.096.079-.173.175-.173.097 0 .176.077.176.173Z" clip-rule="evenodd"/><path fill="#C51918" fill-rule="evenodd" d="m4.205 4.794.569-.514h.924l.648.59h.862v.23h-.839v.012l-.671.683h-.924l-.57-.616V5.1h-.97v-.23h.97v-.076Z" clip-rule="evenodd"/><path fill="#E8AA00" fill-rule="evenodd" d="m5.258 4.707.277.28-.29.275-.29-.275.276-.28.014-.012.013.012Zm.05.676.033-.03-.033-.03.288-.274.3.305-.135.142h-.08l-.15.094-.222-.207Zm-.063.06-.277.256-.185-.116H4.69l-.218-.23.358-.364-.36-.341.236-.23.086.068.124-.126-.037-.037.062-.06.304.306.303-.307.062.06-.037.038.124.126.086-.068.237.23-.361.341.358.363-.218.23h-.093l-.185.117-.276-.256Zm.154-.717.004-.004-.083-.076-.01-.011.215-.2.165.167.087-.068.117.113-.296.28-.199-.201Zm-.185.627-.257.237-.149-.094h-.08l-.135-.142.3-.305.32.304Zm-.619-.706.296.28.289-.292-.216-.2-.165.167-.087-.068-.117.113ZM3.336 16.081c-.156-.199-.262-.333-.29-.331-.088.006-.17.933.968 1.638 0 0 .167.093.265 0 .098-.094 0-.231 0-.231-.367-.346-.71-.781-.943-1.076Zm3.828 0c.157-.199.262-.333.29-.331.088.006.17.933-.968 1.638 0 0-.167.093-.265 0-.098-.094 0-.231 0-.231.367-.346.71-.781.943-1.076Zm-.083 1.247c-.374.11-.807.133-.973.062a.967.967 0 0 0-.167-.054 1.51 1.51 0 0 0-.516-.017l-.07.008H5.35a.554.554 0 0 1-.03.004.165.165 0 0 0-.037.004.165.165 0 0 0-.037-.004.554.554 0 0 1-.035-.004l-.07-.008a1.51 1.51 0 0 0-.516.017.967.967 0 0 0-.168.054c-.165.071-.598.048-.972-.062 0 0 .68.273 1.084.152a.71.71 0 0 1 .124-.04c.115-.026.233-.029.375-.015-.06.027-.13.06-.21.092v.033a1.84 1.84 0 0 1 .425-.105c.08.01.266.04.425.105v-.033a4.372 4.372 0 0 1-.21-.092c.142-.014.26-.011.375.015a.71.71 0 0 1 .124.04c.403.12 1.084-.152 1.084-.152Z" clip-rule="evenodd"/><path fill="#389F5D" fill-rule="evenodd" d="m4.323 7.483-.939.827v.788l.82.825h1.677l.924-.88v-.67l-.924-.89H4.323Z" clip-rule="evenodd"/><path fill="#C51918" fill-rule="evenodd" d="M4.646 7.57h-.212v.165h.212V7.57Zm0 2.146h-.212v.164h.212v-.164Zm.319 0h.212v.164h-.212v-.164Zm.212-2.145h-.212v.164h.212V7.57Zm.319 2.145h.212v.164h-.212v-.164Zm.212-2.145h-.212v.164h.212V7.57Z" clip-rule="evenodd"/><path fill="#E8AA00" fill-rule="evenodd" d="M4.915 7.528H4.7v.164h.216v-.164Zm0 2.188H4.7v.164h.216v-.164Zm.325-2.188h.216v.164H5.24v-.164Zm.216 2.188H5.24v.164h.216v-.164Z" clip-rule="evenodd"/><path fill="#750100" fill-rule="evenodd" d="M3.685 7.381H6.52v.438h.406v1.812H6.52v.374H3.685V9.63h-.44V7.819h.44v-.438Zm.16.603h-.441v1.482h.44v.375h2.517v-.375h.406V7.984h-.406v-.439H3.845v.439Z" clip-rule="evenodd"/><path fill="#389F5D" fill-rule="evenodd" d="M4.805 7.2H4.54v.273h.265V7.2Zm.425 0h-.265v.273h.265V7.2Zm.16 0h.265v.273h-.266V7.2Zm-.585 2.734H4.54v.274h.265v-.274Zm.16 0h.265v.274h-.265v-.274Zm.69 0h-.266v.274h.266v-.274ZM2.996 9.33v-.266h.273v.266h-.273Zm0-.703v.265h.273v-.265h-.273Zm0-.172v-.266h.273v.266h-.273Zm3.823.61v.265h.273v-.266H6.82Zm0-.173v-.265h.273v.265H6.82Zm0-.703v.266h.273v-.266H6.82Z" clip-rule="evenodd"/><path fill="#C51918" fill-rule="evenodd" d="m4.334 7.713-.458.399V9.4l.38.27h1.647l.38-.27V8.112l-.428-.399H4.334Z" clip-rule="evenodd"/><path fill="#E1E5E8" fill-rule="evenodd" d="m5.102 8.248-.552.472h.552v-.472Z" clip-rule="evenodd"/><path fill="#E8AA00" d="m5.102 9.148-.552-.472h.552v.472Z"/><path fill="#E8AA00" fill-rule="evenodd" d="m5.054 8.248.553.472h-.553v-.472Z" clip-rule="evenodd"/><path fill="#29AE66" fill-rule="evenodd" d="M5.079 8.847a.167.167 0 1 0 0-.335.167.167 0 0 0 0 .335Z" clip-rule="evenodd"/><path fill="#E1E5E8" d="m5.054 9.148.553-.472h-.553v.472Z"/><path fill="#C51918" fill-rule="evenodd" d="M3.903 8.512h-.478v.153h.478v-.153Zm0 .28h-.478v.152h.478v-.153Zm2.389-.28h.478v.153h-.478v-.153Zm.478.28h-.478v.152h.478v-.153Z" clip-rule="evenodd"/><path fill="#E8AA00" fill-rule="evenodd" d="M3.85 8.348h-.425v.168h.425v-.168Zm0 .28h-.425v.167h.425v-.168Zm-.425.278h.425v.168h-.425v-.168Zm3.292-.558h-.425v.168h.425v-.168Zm-.425.28h.425v.167h-.425v-.168Zm.425.278h-.425v.168h.425v-.168Zm.772-7.713-.002.304h-2.22v1.38H4.57c-.121 0-.454-.234-.454-.234h-.565l-.26-.266v-.268l-.28-.332v-.304h2.22l.002-1.38h.695c.122 0 .455.233.455.233h.565l.26.266V.86l.28.333Z" clip-rule="evenodd"/><path fill="#E1E5E8" fill-rule="evenodd" d="m3.01 1.193.002.304H5.23l.002 1.38h.695c.122 0 .455-.234.455-.234h.565l.26-.266v-.268l.28-.332v-.304h-2.22L5.266.093H4.57c-.121 0-.454.233-.454.233h-.565l-.26.266V.86l-.28.333Z" clip-rule="evenodd"/><path fill="#C51918" fill-rule="evenodd" d="M4.502.514 4.477.397l.479-.11c.057-.028.157-.107.295-.236l.064.073.011-.013c.137.129.237.208.295.236l.478.11-.024.117-.266-.055.026.023a.33.33 0 0 0-.06.048L5.664.573l.01-.038-.027-.004c-.02.038-.044.094-.07.165L5.464.663 5.51.446 5.256.208 5.08.375c.022.02.044.043.066.069a1.053 1.053 0 0 1-.054.019l-.008.002.03.138L5 .636a1.684 1.684 0 0 0-.042-.108L4.95.53a.33.33 0 0 0-.06-.048l.032-.029A.279.279 0 0 0 4.906.43l-.404.084Zm.02.43.063-.1-.33-.222L4.29.57 4.197.5l-.04.056-.132-.088-.063.1.125.085-.026.036.095.071.03-.042.335.226Zm-.41.12.064-.1-.33-.222.036-.052-.094-.07-.04.056-.132-.088-.064.1.126.085-.026.036.095.071.03-.042.335.226Zm-.175.36.064-.1-.33-.222.036-.052-.094-.07-.04.056L3.44.948l-.064.1.126.085-.026.036.094.071.03-.042.336.226Zm.005.288-.064-.1-.336.225-.03-.042-.093.071.025.036-.125.085.064.1.13-.088.041.057.095-.071-.037-.052.33-.221Zm.112.26.064.1-.33.221.036.052-.094.07-.04-.056-.132.088-.064-.1.126-.085-.026-.036.094-.071.03.042.336-.226Zm.409.12.064.1-.33.221.036.052-.094.07-.04-.056-.132.088-.064-.1.126-.085-.026-.036.094-.071.03.042.336-.226Zm.624.573a1.055 1.055 0 0 0-.054-.02L5.01 2.64l.044-.208-.112-.033a.904.904 0 0 1-.094.206l-.405-.084-.024.117.461.106.067.045.009-.005c.058.04.137.107.236.2l.038-.043.038.043c.137-.129.237-.208.294-.236l.016-.003c.02.017.04.032.06.044l.067-.044-.007-.023.008-.007.335-.077-.024-.117-.405.084a.904.904 0 0 1-.094-.206l-.112.033.045.217-.221.208-.171-.161.028-.031Zm1.43-.953.064-.1.336.225.03-.042.094.071-.026.036.126.085-.064.1L6.946 2l-.04.057-.095-.071.037-.052-.33-.221Zm-.175.36.064-.1.336.225.03-.042.094.071-.026.036.126.085-.064.1-.131-.088-.04.057-.095-.071.037-.052-.331-.221Zm-.41.12.065-.1.336.225.03-.042.094.071-.026.036.126.085-.064.1-.131-.088-.041.057-.094-.071.037-.052-.331-.221Zm.644-.809.064.1.336-.225.03.042.094-.071-.026-.036.125-.085-.063-.1-.132.088-.04-.057-.094.071.036.052-.33.221Zm-.176-.36.064.1L6.8.899l.03.042.094-.071-.026-.036.126-.085-.064-.1-.13.088L6.788.68l-.094.071.037.052-.33.221Zm-.409-.12.064.1.336-.225.03.042.094-.071L6.49.713l.126-.085-.064-.1-.131.088-.04-.057-.095.071.037.052-.33.221Z" clip-rule="evenodd"/><path fill="#C51918" fill-rule="evenodd" d="m4.656.865.662-.351v.96h1.636l-.39.28v.368h-.617l-.662.35v-.96H3.649l.39-.28V.865h.617Z" clip-rule="evenodd"/><path fill="#29AE66" fill-rule="evenodd" d="M5.947.865 5.285.514v.96H3.649l.39.28v.368h.617l.662.35v-.96h1.636l-.39-.28V.865h-.617Z" clip-rule="evenodd"/><path fill="#29AE66" fill-rule="evenodd" d="m4.334 1.113.108-.212.275.147.076-.113.192.136-.06.088.814.435.05-.074.193.136-.034.05.088.047-.108.213-.114-.06-.092.136-.192-.136.075-.113-.813-.435-.067.1-.192-.137.05-.074-.249-.134Z" clip-rule="evenodd"/><path fill="#C51918" fill-rule="evenodd" d="M6.067 1.055 5.945.85l-.264.166L5.597.91l-.182.15.065.083-.78.49-.056-.07-.182.15.037.047-.085.053.123.205.109-.069.102.13.182-.149-.083-.107.78-.49.074.094.182-.15-.055-.07.24-.15Z" clip-rule="evenodd"/></g><path fill="#F7FCFF" fill-rule="evenodd" d="M14.305 1.5s1.748 4.141.195 5.9C12.947 9.159 9 8.82 9 8.82s5.067 2.288 7.275-.863c2.208-3.152-1.97-6.457-1.97-6.457Z" clip-rule="evenodd"/><path fill="#F7FCFF" fill-rule="evenodd" d="m11.133 3.936-.462.326.163-.546-.449-.344.563-.011.185-.539.185.539.563.011-.449.344.164.546-.463-.326Zm.09 1.504-.463.326.163-.546-.448-.344.563-.011.185-.539.185.539.563.011-.45.344.164.546-.462-.326Zm-1.868.442.462-.326.462.326-.163-.545.45-.345-.564-.011-.185-.539-.185.539-.563.011.449.345-.163.545Zm1.868 1.136-.463.325.163-.545-.448-.344.563-.012.185-.538.185.538.563.012-.45.344.164.545-.462-.325Zm1.065-1.712.463-.325.462.325-.163-.545.45-.345-.564-.011-.185-.538-.185.538-.563.011.449.345-.164.545Z" clip-rule="evenodd"/></g></g></g><path stroke="#000" stroke-opacity=".1" stroke-width=".5" d="M.25.25h23.5v17.5H.25z"/><defs><clipPath id="a"><path fill="#fff" d="M0 0h24v18H0z"/></clipPath></defs></svg>