<svg xmlns="http://www.w3.org/2000/svg" fill="none" viewBox="0 0 24 18"><g clip-path="url(#a)"><mask id="b" width="24" height="18" x="0" y="0" maskUnits="userSpaceOnUse" style="mask-type:luminance"><path fill="#fff" d="M0 0h24v18H0z"/></mask><g mask="url(#b)"><path fill="#4EC7EE" fill-rule="evenodd" d="M0 0v18h24V0H0Z" clip-rule="evenodd"/><mask id="c" width="24" height="18" x="0" y="0" maskUnits="userSpaceOnUse" style="mask-type:luminance"><path fill="#fff" fill-rule="evenodd" d="M0 0v18h24V0H0Z" clip-rule="evenodd"/></mask><g mask="url(#c)"><path fill="#FFE402" d="M3.068 17.428c-.048.352.178.603.557.765.509.217 1.023.014 1.495-.51l-.612-.553c-.21.233-.362.323-.479.321.23-.164.523-.366.88-.606l.173-.25c.138-.59-.291-.912-.945-.912-.386 0-.694.077-.89.24-.32.27-.265.7.072.923a.877.877 0 0 0 .082.048c-.19.16-.305.325-.333.534Z"/><path stroke="#FFE402" stroke-width="1.1" d="M3.424 16.872s.093-.208.047-.316"/><path fill="#FFE402" d="M6.427 17.428c.048.352-.178.603-.557.765-.509.217-1.022.014-1.495-.51l.612-.553c.21.233.362.323.48.321-.23-.164-.524-.366-.882-.606l-.172-.25c-.138-.59.291-.912.946-.912.385 0 .693.077.888.24.322.27.267.7-.071.923a.876.876 0 0 1-.082.048c.19.16.305.325.333.534Z"/><path fill="#FFE402" d="m6.447 16.702-.752.34c-.105-.235-.137-.447-.049-.65l.757.328c.025-.058.025-.06.044-.018ZM3.068.572c-.048-.352.178-.603.557-.765.509-.217 1.023-.014 1.495.51L4.508.87c-.21-.233-.362-.323-.479-.321.23.164.523.366.88.606l.173.25c.138.59-.291.911-.945.911-.386 0-.694-.076-.89-.24-.32-.269-.265-.699.072-.922a.873.873 0 0 1 .082-.048c-.19-.16-.305-.326-.333-.534Z"/><path fill="#FFE402" d="M6.427.572C6.475.22 6.25-.03 5.87-.193c-.509-.217-1.022-.014-1.495.51l.612.553c.21-.233.362-.323.48-.321-.23.164-.524.366-.882.606l-.172.25c-.138.59.291.911.946.911.385 0 .693-.076.888-.24.322-.269.267-.699-.071-.922a.872.872 0 0 0-.082-.048c.19-.16.305-.326.333-.534Z"/><path fill="#FFE402" fill-rule="evenodd" d="M3.82 15.047c-.473.014-.767.111-.767.568 0 .503.488.66 1.008.66.471 0 1.002-.292 1.002-.816 0-.318-.405-.961-1.425-2.354-.035-.033-.054-.05-.07-.05a.655.655 0 0 1 .314-.075c.05 0 .115.025.18.058v.546H5.14v-.412c0-.466-.689-1.017-1.259-1.017-.497 0-.897.237-1.099.577-.2.337-.047.66.24.917.427.589.76 1.077.967 1.397l-.17.001Zm.051.38a.684.684 0 0 1-.043-.01c.01.01.05.057.05.198 0 .076-.004.13-.009.168a.397.397 0 0 1-.076-.502l.002-.004-.015-.03.006-.004c.024-.012.044-.022.01.034l.075.15Zm-.043-.01-.014-.005.006.003.008.002Zm.41.042c0-.014-.005-.022-.013-.027l.005.006a.073.073 0 0 1 .008.021Z" clip-rule="evenodd"/><path fill="#FFE402" fill-rule="evenodd" d="M5.674 15.047c.474.014.768.111.768.568 0 .503-.489.66-1.009.66-.47 0-1.001-.292-1.001-.816 0-.318.405-.961 1.424-2.354.036-.033.055-.05.07-.05a.655.655 0 0 0-.314-.075.447.447 0 0 0-.179.058v.546h-1.08v-.412c0-.466.69-1.017 1.26-1.017.497 0 .896.237 1.098.577.2.337.048.66-.24.917a34.854 34.854 0 0 0-.967 1.397l.17.001Zm-.05.38a.684.684 0 0 0 .042-.01c-.01.01-.049.057-.049.198 0 .076.004.13.009.168a.397.397 0 0 0 .076-.502l-.003-.004.016-.03-.006-.004c-.024-.012-.044-.022-.01.034l-.075.15Zm.042-.01.015-.005a.024.024 0 0 0-.006.003l-.009.002Zm-.41.042c0-.014.005-.022.014-.027l-.005.006a.073.073 0 0 0-.008.021Z" clip-rule="evenodd"/><path fill="#FFE402" fill-rule="evenodd" d="M3.82 10.016c-.473-.014-.767-.111-.767-.567 0-.503.488-.66 1.008-.66.471 0 1.002.291 1.002.815 0 .319-.405.961-1.425 2.355-.035.032-.054.05-.07.05a.66.66 0 0 0 .314.074c.05 0 .115-.025.18-.058v-.546H5.14v.413c0 .466-.689 1.016-1.259 1.016-.497 0-.897-.237-1.099-.577-.2-.336-.047-.66.24-.916.427-.59.76-1.077.967-1.398l-.17-.001Zm.051-.38a.697.697 0 0 0-.043.01c.01-.01.05-.057.05-.197 0-.077-.004-.13-.009-.169a.397.397 0 0 0-.076.502l.002.004-.015.031a.886.886 0 0 1 .006.003c.024.013.044.023.01-.034l.075-.15Zm-.043.01-.014.005a.026.026 0 0 0 .006-.003l.008-.001Zm.41-.042c0 .014-.005.022-.013.027l.005-.005a.074.074 0 0 0 .008-.022Z" clip-rule="evenodd"/><path fill="#FFE402" fill-rule="evenodd" d="M5.674 10.016c.474-.014.768-.111.768-.567 0-.503-.489-.66-1.009-.66-.47 0-1.001.291-1.001.815 0 .319.405.961 1.424 2.355.036.032.055.05.07.05a.655.655 0 0 1-.314.074.448.448 0 0 1-.179-.058v-.546h-1.08v.413c0 .466.69 1.016 1.26 1.016.497 0 .896-.237 1.098-.577.2-.336.048-.66-.24-.916a34.377 34.377 0 0 1-.967-1.398l.17-.001Zm-.05-.38.042.01c-.01-.01-.049-.057-.049-.197 0-.077.004-.13.009-.169a.397.397 0 0 1 .076.502l-.003.004.016.031a.707.707 0 0 0-.006.003c-.024.013-.044.023-.01-.034l-.075-.15Zm.042.01.015.005a.026.026 0 0 1-.006-.003l-.009-.001Zm-.41-.042c0 .014.005.022.014.027l-.005-.005a.074.074 0 0 1-.008-.022Z" clip-rule="evenodd"/><path fill="#FFE402" fill-rule="evenodd" d="M3.82 7.984c-.473.014-.767.111-.767.567 0 .503.488.66 1.008.66.471 0 1.002-.291 1.002-.815 0-.319-.405-.961-1.425-2.355-.035-.032-.054-.05-.07-.05a.656.656 0 0 1 .314-.074c.05 0 .115.025.18.057v.547H5.14v-.413c0-.466-.689-1.016-1.259-1.016-.497 0-.897.237-1.099.577-.2.337-.047.66.24.916.427.59.76 1.078.967 1.398l-.17.001Zm.051.38a.697.697 0 0 1-.043-.01c.01.01.05.057.05.197 0 .077-.004.13-.009.169a.397.397 0 0 1-.076-.502l.002-.004-.015-.031a.886.886 0 0 0 .006-.003c.024-.013.044-.023.01.034l.075.15Zm-.043-.01-.014-.005.006.003.008.001Zm.41.042c0-.014-.005-.022-.013-.027l.005.005a.074.074 0 0 1 .008.022Z" clip-rule="evenodd"/><path fill="#FFE402" fill-rule="evenodd" d="M5.674 7.984c.474.014.768.111.768.567 0 .503-.489.66-1.009.66-.47 0-1.001-.291-1.001-.815 0-.319.405-.961 1.424-2.355.036-.032.055-.05.07-.05a.656.656 0 0 0-.314-.074.448.448 0 0 0-.179.057v.547h-1.08v-.413c0-.466.69-1.016 1.26-1.016.497 0 .896.237 1.098.577.2.337.048.66-.24.916a35.48 35.48 0 0 0-.967 1.398l.17.001Zm-.05.38a.697.697 0 0 0 .042-.01c-.01.01-.049.057-.049.197 0 .077.004.13.009.169a.397.397 0 0 0 .076-.502l-.003-.004.016-.031a.707.707 0 0 1-.006-.003c-.024-.013-.044-.023-.01.034l-.075.15Zm.042-.01.015-.005a.026.026 0 0 0-.006.003l-.009.001Zm-.41.042c0-.014.005-.022.014-.027l-.005.005a.074.074 0 0 0-.008.022Z" clip-rule="evenodd"/><path fill="#FFE402" fill-rule="evenodd" d="M3.82 2.953c-.473-.014-.767-.112-.767-.568 0-.503.488-.66 1.008-.66.471 0 1.002.292 1.002.816 0 .318-.405.96-1.425 2.354-.035.033-.054.05-.07.05.062.034.17.075.314.075.05 0 .115-.025.18-.058v-.546H5.14v.412c0 .466-.689 1.017-1.259 1.017-.497 0-.897-.237-1.099-.577-.2-.337-.047-.66.24-.917.427-.59.76-1.077.967-1.397l-.17-.001Zm.051-.38a.704.704 0 0 0-.043.01c.01-.01.05-.057.05-.198 0-.076-.004-.13-.009-.168a.397.397 0 0 0-.076.502l.002.004-.015.03a.886.886 0 0 1 .006.004c.024.012.044.022.01-.034l.075-.15Zm-.043.01-.014.005a.026.026 0 0 0 .006-.003l.008-.002Zm.41-.042c0 .014-.005.022-.013.027l.005-.006a.074.074 0 0 0 .008-.021Z" clip-rule="evenodd"/><path fill="#FFE402" fill-rule="evenodd" d="M5.674 2.953c.474-.014.768-.112.768-.568 0-.503-.489-.66-1.009-.66-.47 0-1.001.292-1.001.816 0 .318.405.96 1.424 2.354.036.033.055.05.07.05a.656.656 0 0 1-.314.075.448.448 0 0 1-.179-.058v-.546h-1.08v.412c0 .466.69 1.017 1.26 1.017.497 0 .896-.237 1.098-.577.2-.337.048-.66-.24-.917a34.43 34.43 0 0 1-.967-1.397l.17-.001Zm-.05-.38.042.01c-.01-.01-.049-.057-.049-.198 0-.076.004-.13.009-.168a.397.397 0 0 1 .076.502l-.003.004.016.03a.707.707 0 0 0-.006.004c-.024.012-.044.022-.01-.034l-.075-.15Zm.042.01.015.005a.026.026 0 0 1-.006-.003l-.009-.002Zm-.41-.042c0 .014.005.022.014.027l-.005-.006a.074.074 0 0 1-.008-.021Zm8.984-.452.307 1.145s.003.26-.29.26c-.295 0-.31-.26-.31-.26l.293-1.145Zm2.597 4.376c0 1.491-1.138 2.7-2.542 2.7s-2.543-1.209-2.543-2.7 1.139-2.7 2.543-2.7c1.404 0 2.542 1.209 2.542 2.7Zm-1.401-3 .041-1.185-.614 1.01s-.063.253.219.34c.281.085.354-.165.354-.165Zm1.17-.624-.387 1.122s-.143.218-.386.053c-.244-.164-.11-.388-.11-.388l.882-.787Zm.221 1.842.697-.96-1.074.494s-.193.175-.008.404c.185.228.385.062.385.062Zm1.331.175-.96.697s-.241.097-.347-.177c-.105-.275.133-.382.133-.382l1.174-.138Zm-.842 1.654 1.121-.387-1.163-.211s-.259.033-.238.326c.02.293.28.272.28.272Zm1.03.91-1.186.041s-.255-.055-.189-.341c.067-.287.323-.243.323-.243l1.051.543Zm-1.602.904 1.146.307-.846-.826s-.233-.118-.38.137a.263.263 0 0 0 .08.382Zm.368 1.325-1.006-.629s-.18-.188.035-.388.403-.02.403-.02l.568 1.037Zm-1.81-.16.778.895-.24-1.158s-.127-.228-.391-.099-.147.361-.147.361Zm-.416 1.281-.483-1.084s-.044-.256.247-.302a.285.285 0 0 1 .345.209l-.109 1.177Zm-1.387-1.177.124 1.18.468-1.087s.026-.259-.264-.305c-.29-.046-.328.212-.328.212Zm-1.072.797.227-1.164s.11-.236.375-.107c.264.129.164.37.164.37l-.765.901Zm-.477-1.779-.557 1.048.995-.639s.167-.2-.048-.4c-.215-.201-.39-.009-.39-.009Zm-1.338.033.839-.84s.223-.132.37.122a.285.285 0 0 1-.07.398l-1.14.32Zm.588-1.767-1.047.557 1.182.027s.25-.073.184-.36c-.066-.286-.32-.224-.32-.224Zm-1.144-.739 1.165-.226s.26.014.239.308c-.02.293-.281.29-.281.29l-1.123-.372Zm1.455-1.144-1.18-.124.965.684s.248.079.354-.196a.263.263 0 0 0-.14-.364Zm-.55-1.261 1.083.482s.205.16.02.39c-.185.228-.397.076-.397.076l-.707-.948Zm1.811-.107-.895-.778.398 1.113s.158.207.402.043c.244-.164.095-.378.095-.378Zm.231-1.344.629 1.006s.08.248-.202.334a.285.285 0 0 1-.371-.159l-.056-1.18Z" clip-rule="evenodd"/><path fill="#FFE402" fill-rule="evenodd" d="m9.166 8.004-.029-.115.053.105-.024.01Zm.072.247a4.832 4.832 0 0 1-.072-.247l-.322.128.048.12h-.035l-.013.006a1.448 1.448 0 0 1-.03-.279v-.74l.323.65a2.19 2.19 0 0 1-.06-.478v-.923l.372.935-.354.111.14.445h-.008l-.037.015.132.266.128.408c-.12-.22-.18-.365-.18-.417h-.032Zm.41 1.04a9.913 9.913 0 0 1-.41-1.04h-.346l.351.88-.13-.138a2.96 2.96 0 0 1-.27-.735l-.285.142-.057-.06v.088l-.013.007.013.026v.1a1.03 1.03 0 0 1-.056-.31V6.494l.37.745V5.834l.261.654V4.712l1.043 3.333-.073.024c-.097-.29-.145-.51-.145-.658H9.49l-.04.012.297.743-.071.024a.798.798 0 0 1-.035-.21h-.406l.088.28.46.928-.018.007a9.197 9.197 0 0 1-.314-.527l.18.578.134-.051.018.029-.134.067Zm.143-.053-.143.054-.173.086-.232-.247.11.277a.4.4 0 0 1-.025-.023 6.284 6.284 0 0 1-.215-.392L8.558 8.4l-.057.028v.033l.458.922h-.046l-.003.003c-.203-.337-.34-.606-.41-.824v.603L6.863 7.997l2.087 2.484a6.628 6.628 0 0 0 2.46 1.827l-1.889-.04 1.92.542-.993.73 1.716-.526.468.132c.63.177.98.356 1.003.41l.089.209.223.037c.49.082 1.396-.045 2.56-.304.397-.088.794-.185 1.102-.268.129-.035.23-.064.287-.083l.021-.007.032-.012c.019-.008.019-.008.063-.032.038-.005.066-.009.084-.024.051-.041.033-.17-.038-.652-.325-.087-.37-.1-.383-.084-.002.002-.003.005-.004.009-.112.023-.286.02-.517-.01 1.94-.953 3.213-1.909 3.824-2.892l1.116-1.798-.677.493.244-.783-.964.62a2.3 2.3 0 0 0 .288-.493l.726-1.755-1.146 1.07.622-2.05-1.475 1.976-6.037 4.443-.094-.022c-1.486-.344-2.53-1.394-3.151-3.2l-.31.1.004.014-.073.023-.004-.012-.3.097.005.013-.073.023-.003-.012-.03.01c.1.325.21.63.328.915l-.19.073.014.029-.015.007.009.014Zm.014-.006-.014.006.03.045-.296.149-.05-.054-.097.049a.743.743 0 0 1-.025-.02l.01.027.015-.007.065.046-.048.023a8.49 8.49 0 0 1-.067-.11l-.002-.003h-.367l.082.167-.053-.039a11.101 11.101 0 0 1-.078-.125l-.043.04-.366-.261v.218c0 .39.275.685.746.928l-.222.24 2.469 1.759-.084-.002c.08.035.162.069.245.102l.214.084-.428.316.722.204.576-.177 2.05.807-.661-.47.235-.004a.82.82 0 0 0-.123-.168 1.166 1.166 0 0 1-.158-.014l-.023.136-.69-.492c.264-.09.52-.187.77-.287 1.023-.01 1.636-.065 1.727-.133l.158-.117.19.049c.184.047.353.086.506.118l.131.22.302-.146a3.853 3.853 0 0 1-.076-.01l3.792-2.767-.317-.295c.401-.206.663-.477.771-.827l.093-.299-.408.298-.078-.121-.394-.123c-.037.117-.155.234-.366.342a3.85 3.85 0 0 0 .526-.56l-.595.383.783-.73-.489-.34c.043-.096.079-.191.107-.285l.062-.206-.276.258-.41-.208.19-.385-.357.262-.844 1.13-.287-.24c-.77 1.564-2.158 2.806-4.176 3.722l-.73-.169-.208.154.02-.186c-1.375 0-2.389-1.02-3.053-3.177l-.31.1.295.942-.295.112-.018-.046.295-.112a9.805 9.805 0 0 1-.35-.872l-.299.098.354.886-.025.01.019-.01c-.22-.358-.358-.65-.42-.863l-.03.01c.108.315.23.611.363.889l-.039.014.005.011-.18.09.007.016Zm.187-.071-.187.071.023.047-.008.004.029.044-.275.157-.05-.052-.081.04a.73.73 0 0 0 .073.045l-.288.165-.187-.132.093.186.094-.054.043.031-.113.065c-.06-.093-.118-.182-.17-.267l-.12-.085-.256.239.53.564.3-.282.042-.082 1.345.958.497.53A5.75 5.75 0 0 1 9.581 9.95l-.334.36.008.005 2.104 1.074-.033-.036c.202.107.412.203.632.29l-.364.669-.1-.002.073.052.027-.05.508.01-.233.172.87.343.03-.01c.204-.062.404-.127.6-.195l-.15-.107.243-.178c.242.001.468 0 .677-.002.304-.122.598-.25.88-.386h1.52l.181.303.102.02.095.16.16-.117a5.876 5.876 0 0 1-.255-.043l-.193-.323h.463l-.537-.125-.058-.098c1.596-.758 2.724-1.502 3.384-2.218.255-.07.479-.155.67-.254l-.137-.128.739-.474-.145-.226-1.245.909-.156-.364c.21-.15.398-.3.564-.447-.118.06-.265.117-.442.17l.372-.347-1.129.725c.704-.649 1.18-1.243 1.423-1.795l-.05-.034.093-.124-.15-.075-.949.885.539-1.093-.166-.083c-.1.332-.351.724-.754 1.167l-.09-.076-.51.681.127.115-3.752 2.761-.329-.076a14.53 14.53 0 0 1-.986.404l.048-.42-.632.465c-1.21-.433-2.143-1.31-2.788-2.614l.084-.042-.007-.017-.09.034-.018-.038.065-.032-.068.026.003.006-.037.02.014.034Zm.013.03-.177.088.045.09-.265.151-.034-.036-.058.033a.45.45 0 0 0 .049.028l-.294.168.213.152.146-.285a2.475 2.475 0 0 1-.065-.035l.043-.025 1.22 1.303 1.683 1.199-.409.3.574.013.217.43.326-.24-.26-.185.503.007.527-.388h1.03c.221-.107.435-.217.643-.332l.79.183.088.149h.09l-.075-.125-.104-.024-.02-.035 2.91-2.123.366-.089c.06-.014.118-.029.174-.045a4.37 4.37 0 0 0 .083-.093l.45-.289-.139-.128a3.25 3.25 0 0 1-.31.417l-.132.085-.07-.165-.422.307-1.494.363c.167-.166.325-.338.475-.515l.478-.307.163.214c.234-.143.448-.285.644-.426l-.05-.117.172-.16c-.067.02-.14.04-.216.058l.044.102-.528.493-.16-.209.1-.063.003-.003-.004.003-.195-.176.044-.063.203.183 1.326-1.776-.124-.086c-.134.324-.488.703-1.064 1.12a7.38 7.38 0 0 0 .162-.309l.02-.039-.176.163-.206-.172a9.12 9.12 0 0 1-.548.549l.138.125-.063.046.047.042-.066.062.216.285a7.63 7.63 0 0 1-.36.461l-1 .642.525-.127a9.8 9.8 0 0 1-2.185 1.612l-.93-.216-.743.548h-.502a3.5 3.5 0 0 1-.567-.046l.151-.05c.106.03.213.06.323.085l.024-.209c-.114.042-.23.083-.347.123a4.69 4.69 0 0 1-.237-.078l-.12.088c-1.161-.271-2.066-1.179-2.709-2.681Zm0 0 .04-.02-.011-.026-.042.016.013.03Zm2.528 2.846-.022-.015.203-.15c.068.016.137.03.206.041-.127.042-.256.084-.387.124Zm6.2-3.069.04-.059-.233-.21.067-.042.21.189a7.4 7.4 0 0 0 .341-.558 9.56 9.56 0 0 1-.55.37l-.02-.018.334-.312.273-.2-.03-.026-.243.226-.374.276.04.036-.056.052.008.007-.009.005.201.264Zm0 0 .136.18-.07.045-.117-.154.05-.07Zm-6.2 3.069.426.303a39.723 39.723 0 0 1-.207-.004l-.076-.001-.149-.296.006-.002Zm1.526 1.087-.008.05h.077l-.069-.05Zm2.298-.25-.12-.161-.179.038-.049.192.142.036a.794.794 0 0 0 .206-.104Z" clip-rule="evenodd"/></g></g></g><rect width="23" height="17" x=".5" y=".5" stroke="#000" stroke-opacity=".1" rx="1.5"/><defs><clipPath id="a"><rect width="24" height="18" fill="#fff" rx="2"/></clipPath></defs></svg>