<svg xmlns="http://www.w3.org/2000/svg" fill="none" viewBox="0 0 24 18"><g clip-path="url(#a)"><mask id="b" width="24" height="18" x="0" y="0" maskUnits="userSpaceOnUse" style="mask-type:luminance"><path fill="#fff" d="M0 0h24v18H0z"/></mask><g mask="url(#b)"><path fill="#1C9975" fill-rule="evenodd" d="M0 0v18h24V0H0Z" clip-rule="evenodd"/><mask id="c" width="24" height="18" x="0" y="0" maskUnits="userSpaceOnUse" style="mask-type:luminance"><path fill="#fff" fill-rule="evenodd" d="M0 0v18h24V0H0Z" clip-rule="evenodd"/></mask><g mask="url(#c)"><path fill="#FECA00" fill-rule="evenodd" d="m12.016 5.14-1.225.74.28-1.444-1.021-1.08 1.382-.058.584-1.348.585 1.348h1.379l-1.018 1.138.306 1.444-1.252-.74Zm-3.479.548-.758.458.173-.893-.63-.668.854-.036.361-.833.361.833h.853l-.63.704.19.893-.774-.458Zm6.899 0-.758.458.173-.893-.631-.668.854-.036.362-.833.361.833h.853l-.63.704.19.893-.774-.458Zm-8.861 1.52-.608.367.139-.716-.507-.536.686-.03.29-.668.29.669h.684l-.505.565.152.716-.621-.367Zm11.095 0-.607.367.138-.716-.506-.536.686-.03.29-.668.29.669h.684l-.505.565.152.716-.621-.367Z" clip-rule="evenodd"/><mask id="d" width="12" height="13" x="6" y="4" maskUnits="userSpaceOnUse" style="mask-type:luminance"><path fill="#fff" fill-rule="evenodd" d="M12 16.5a6 6 0 1 0 0-12 6 6 0 0 0 0 12Z" clip-rule="evenodd"/></mask><g fill="#F7FCFF" mask="url(#d)"><path fill-rule="evenodd" d="M9.51 15.798h4.98v.804H9.51v-.804Zm-2.042-1.203h9.575v.737H7.468v-.737Z" clip-rule="evenodd"/><path d="M9.465 14.265H6.537v-.75H9.46c1.035-.014 1.792-.31 2.297-.879l.252-.284.28.255c.675.612 1.348.908 2.03.908h3.228v.75h-3.228c-.783 0-1.539-.294-2.262-.87-.64.567-1.508.855-2.592.87Z"/></g><path fill="#F7FCFF" fill-rule="evenodd" d="M12.026 5.706s-1.281 1.266-1.281 3.003c0 .372.058.723.15 1.046-.412-.915-.441-1.908-.085-2.99l-.485-.16c-.362 1.101-.364 2.137-.004 3.096a6.159 6.159 0 0 0-2.48-.847l-.056.508a5.64 5.64 0 0 1 2.176.72 4.026 4.026 0 0 0-.51-.168c-1.623-.414-3.214.173-3.214.173s.918 2.06 2.696 2.363c.089.016.176.027.263.036h-.014c-.847 0-1.636-.347-2.374-1.05l-.352.369c.829.79 1.74 1.192 2.726 1.192.964 0 1.86-.384 2.678-1.14.13-.08.208-.136.22-.146l.032.028-.025.044s.08.05.226.118c.808.626 1.818 1.096 2.618 1.096.985 0 1.897-.401 2.727-1.192l-.353-.37c-.738.704-1.527 1.051-2.374 1.051-.31 0-.614-.05-.911-.15.417.023.876-.015 1.351-.16 1.752-.536 2.482-2.155 2.482-2.155s-.932-.503-2.116-.509a5.93 5.93 0 0 1 .83-.15l-.055-.508c-1.11.123-2.071.497-2.877 1.123.471-1.036.508-2.164.11-3.372l-.485.16c.325.987.33 1.898.016 2.745.054-.25.085-.518.085-.8 0-1.832-1.335-3.004-1.335-3.004Zm.564 5.36-.02.028.024-.028h-.004Zm-1.239-.12.05-.045c.046.076.091.147.136.214a5.778 5.778 0 0 0-.186-.168Z" clip-rule="evenodd"/></g></g></g><path stroke="#000" stroke-opacity=".1" stroke-width=".5" d="M.25.25h23.5v17.5H.25z"/><defs><clipPath id="a"><path fill="#fff" d="M0 0h24v18H0z"/></clipPath></defs></svg>