<svg xmlns="http://www.w3.org/2000/svg" fill="none" viewBox="0 0 24 18"><g clip-path="url(#a)"><path fill="#19BFBF" d="M0 0h24v18H0z"/><path fill="#fff" fill-rule="evenodd" d="M8.571 13.87a.36.36 0 0 1 .01-.081l.562-2.246.548-2.192a.333.333 0 0 0-.007-.186l-.497-1.491a.333.333 0 0 0-.168-.193l-.835-.418A.333.333 0 0 1 8 6.765v-2a.34.34 0 0 1 .035-.15l.536-1.072.48-.959a.333.333 0 0 1 .298-.184h2.89c.183 0 .332.15.332.333v.476c0 .185.15.334.334.334h.476c.184 0 .333.149.333.333v.604c0 .126.072.241.185.298l1.917.958a.333.333 0 0 1 .184.298v.859a.333.333 0 0 1-.035.149l-.497.993a.334.334 0 0 1-.113.128l-1.567 1.045a.334.334 0 0 0-.113.128l-1.064 2.128a.333.333 0 0 1-.113.128l-1.567 1.044a.334.334 0 0 0-.113.129l-1.012 2.022a.333.333 0 0 1-.298.184h-.603a.333.333 0 0 1-.334-.333v-.768Z" clip-rule="evenodd"/></g><path stroke="#000" stroke-opacity=".1" stroke-width=".5" d="M.25.25h23.5v17.5H.25z"/><defs><clipPath id="a"><path fill="#fff" d="M0 0h24v18H0z"/></clipPath></defs></svg>