<svg xmlns="http://www.w3.org/2000/svg" fill="none" viewBox="0 0 24 18"><g clip-path="url(#a)"><mask id="b" width="24" height="18" x="0" y="0" maskUnits="userSpaceOnUse" style="mask-type:luminance"><path fill="#fff" d="M0 0h24v18H0z"/></mask><g mask="url(#b)"><path fill="#F7FCFF" fill-rule="evenodd" d="M0 0v18h24V0H0Z" clip-rule="evenodd"/><mask id="c" width="24" height="18" x="0" y="0" maskUnits="userSpaceOnUse" style="mask-type:luminance"><path fill="#fff" fill-rule="evenodd" d="M0 0v18h24V0H0Z" clip-rule="evenodd"/></mask><g mask="url(#c)"><path fill="#E8AA00" fill-rule="evenodd" d="M13.202 6.161c.181.104.29.368.29.368h-3.066l.212-.368s-.212-.096-.105-.096c.106 0 .41-.426.41-.426h-.127s-.065-.106.127-.106.345-.686.345-.686.126-.32-.182-.402c-.308-.08-.68.269-.68.269s.09-.56.212-.68c.056-.056.161-.065.258-.074.11-.009.21-.017.21-.096 0-.147.36-.261.95-.261s.804.704.804.842c0 .139.202.874.202.874s-.202 0-.202.095.632.505.632.505-.472.139-.29.242ZM2.082 3.652c.236-.1 2.627.612 4.417 1.145 1.03.307 1.861.555 1.97.555.3 0 .862.724.58 1.028-.28.305-.376.483-.187.483.188 0 1.137-.246 1.137-.246v2.829s-.91.215-1.137 0c-.11-.105-.279-.111-.423-.117-.153-.005-.28-.01-.28-.131 0-.236-.524-.273-.524-.273s-.485-.16-.485-.31-.317-.576-.317-.576-1.21-.685-2.238-1.436a31.645 31.645 0 0 0-.61-.432c-.776-.54-1.417-.987-1.532-1.504-.537-.532-.74-.856-.37-1.015Zm7.55 5.972s-.406.28-.857 1.032c-.222.37-.24.695-.252.93-.014.244-.022.391-.244.391-.259 0-.446.056-.6.102-.104.03-.193.057-.276.057-.206 0-.6.776-.403.956.197.18 1.024.466 1.024 0s.222-.73.627-.73c.404 0 1.126-.268 1.126-.855 0-.588.788-.546.788-.546l-.932-1.337Zm8.039-4.827c1.79-.533 4.181-1.246 4.416-1.145.37.16.167.483-.37 1.015-.115.517-.755.963-1.532 1.504-.196.137-.402.28-.61.432-1.028.751-2.238 1.436-2.238 1.436s-.317.426-.317.576c0 .15-.485.31-.485.31s-.524.037-.524.273c0 .121-.126.126-.28.131-.144.006-.312.012-.422.117-.228.215-1.137 0-1.137 0v-2.83s.949.247 1.137.247c.188 0 .093-.178-.188-.483-.282-.304.28-1.028.58-1.028.109 0 .94-.248 1.97-.555Zm-3.134 4.827s.408.28.858 1.032c.222.37.24.695.253.93.013.244.021.391.243.391.259 0 .447.056.6.102.105.03.193.057.277.057.205 0 .6.776.403.956-.198.18-1.025.466-1.025 0s-.222-.73-.626-.73c-.405 0-1.127-.268-1.127-.855 0-.588-.788-.546-.788-.546l.932-1.337Zm-4.381 1.958c0-.259.457-.454.457-.454l1.376-.58.018.348.017-.349 1.376.581s.457.195.457.454c0 .13.195.359.389.587.193.228.386.455.386.583 0 .226-.522.734-.838 1.04l-.115.113c-.072.071-.15.16-.232.252-.231.263-.488.554-.703.554-.152 0-.274.105-.391.206-.108.093-.211.182-.329.182a.024.024 0 0 1-.017-.009c-.006.006-.012.009-.018.009-.118 0-.221-.09-.329-.182-.117-.101-.24-.206-.39-.206-.216 0-.473-.291-.704-.554-.082-.092-.16-.18-.232-.252l-.115-.113c-.316-.306-.838-.814-.838-1.04 0-.128.193-.355.386-.583.194-.228.389-.458.389-.587Z" clip-rule="evenodd"/><path fill="#46A000" fill-rule="evenodd" d="M5.258 8.005c.03.347.128.552.128.552s.174.273.272.276c.051.126.106.255.165.386.27.72.639 1.666 1.016 2.528a.6.6 0 0 0-.107-.061c-.316-.148-.542-.165-.542-.165s-.423.019-.38.138c.044.12.568.381.781.304.024-.01.048-.017.072-.025.098-.034.188-.066.213-.106l.15.335c-.314-.147-.54-.164-.54-.164s-.423.018-.379.139c.044.12.568.38.78.303l.072-.026c.06-.02.116-.04.156-.06.38.81.747 1.457 1.01 1.62h.528s-.457-.645-1.033-1.549c.174-.123.415-.395.415-.566l.001-.076c.004-.2.006-.369-.213-.15a1.74 1.74 0 0 0-.34.453l-.023.085a41.962 41.962 0 0 1-.14-.225c.173-.122.419-.396.419-.569v-.075c.004-.2.007-.37-.212-.151-.247.246-.34.453-.34.453s-.011.036-.024.087c-.067-.11-.134-.221-.2-.334.17-.09.48-.412.48-.606v-.076c.004-.2.007-.37-.213-.15-.246.245-.34.452-.34.452s-.027.088-.044.182a29.81 29.81 0 0 1-.26-.454l.008.001c.128 0 .552-.403.552-.63v-.076c.004-.2.007-.37-.212-.15a1.72 1.72 0 0 0-.34.453s-.063.198-.056.317a23.015 23.015 0 0 1-.342-.637h.003c.128 0 .552-.403.552-.63v-.076c.004-.2.007-.369-.212-.15-.247.246-.34.453-.34.453s-.057.178-.057.298a15.33 15.33 0 0 1-.319-.664l-.145-.39a.047.047 0 0 0 .018-.013c.082-.098.045-.682-.128-.828a.948.948 0 0 1-.058-.05c-.15-.13-.279-.241-.252.067Zm.586.888s.017-.227.165-.542c.13-.28.186-.12.251.069l.025.071c.078.213-.183.737-.303.781-.12.044-.138-.38-.138-.38Zm.591 2.166c-.315-.147-.542-.164-.542-.164s-.423.018-.379.138c.044.12.568.38.78.303l.072-.025c.189-.065.35-.12.07-.252Zm-.838-.839s.226.017.542.165c.28.13.12.186-.07.251a3.525 3.525 0 0 0-.07.025c-.213.078-.738-.183-.781-.303-.044-.12.379-.138.379-.138Zm.295-.51a1.7 1.7 0 0 0-.542-.164s-.423.018-.38.138c.044.12.568.38.781.303l.072-.025c.189-.066.35-.12.069-.252Zm-.66-.976s.206.093.452.34c.219.219.05.216-.15.212h-.076c-.227 0-.63-.425-.63-.552 0-.128.403 0 .403 0Z" clip-rule="evenodd"/><path fill="#0093E1" fill-rule="evenodd" d="M21.519 7.754h-1.603s.34 0 .377.328c0 0 .008 2.77 0 2.988-.008.218-.377.292-.377.292s1.944.006 1.603 0c-.342-.006-.417-.292-.417-.292V8.082c0-.253.417-.328.417-.328ZM3.424 11.14c-.181-.468-1.302-3.337-1.302-3.337h1.11c-.193 0-.265.246-.265.246l.777 2.215s.751-1.809.751-2.13c0-.32-.315-.33-.315-.33h1.446l-.35.116S4.12 10.572 4.12 11.14c-.055.126.533.21.533.21H3.1l.325-.21ZM16.7 10.093l.86-1.583.024 1.761-.266-.086-.188 1.176.95-1.822-.317-.12 1.177-1.272-.4 1.72-.229-.2-1.347 2.514 1.504-1.723-.29-.145 1.485-.973-.647 1.585-.36-.26-1.526 1.922-.633-.244.633-2.25h-.43Zm-.496 3.002h-.475v.362h-.374l-1.06 1.228h.585l.203.692.272-.244v.244l.53-.244.508.44.38-1.69-.256-.187.131-.115-.13-.486h-.314Z" clip-rule="evenodd"/><path fill="#F7FCFF" fill-rule="evenodd" d="M9.258 6.01s.698.482 1.396.482c.697 0 1.395-.482 1.395-.482s.698.482 1.396.482 1.396-.482 1.396-.482v2.175c0 2.25-2.792 3.993-2.792 3.993s-2.927-1.6-2.791-4.02V6.01Z" clip-rule="evenodd"/><mask id="d" width="6" height="7" x="9" y="6" maskUnits="userSpaceOnUse" style="mask-type:luminance"><path fill="#fff" fill-rule="evenodd" d="M9.258 6.01s.698.482 1.396.482c.697 0 1.395-.482 1.395-.482s.698.482 1.396.482 1.396-.482 1.396-.482v2.175c0 2.25-2.792 3.993-2.792 3.993s-2.927-1.6-2.791-4.02V6.01Z" clip-rule="evenodd"/></mask><g fill-rule="evenodd" clip-rule="evenodd" mask="url(#d)"><path fill="#2E42A5" d="M9.06 5.865h5.88V8.13H9.06V5.865Z"/><path fill="#AF0100" d="M10.197 8.13h-.495v4.578h.495V8.13Zm.84 0h-.495v4.578h.495V8.13Zm.345 0h.495v4.578h-.495V8.13Zm1.335 0h-.495v4.578h.495V8.13Zm.345 0h.495v4.578h-.495V8.13Zm1.335 0h-.495v4.578h.495V8.13Z"/></g></g></g></g><path stroke="#000" stroke-opacity=".1" stroke-width=".5" d="M.25.25h23.5v17.5H.25z"/><defs><clipPath id="a"><path fill="#fff" d="M0 0h24v18H0z"/></clipPath></defs></svg>