<svg xmlns="http://www.w3.org/2000/svg" fill="none" viewBox="0 0 24 18"><g clip-path="url(#a)"><mask id="b" width="24" height="18" x="0" y="0" maskUnits="userSpaceOnUse" style="mask-type:luminance"><path fill="#fff" d="M0 0h24v18H0z"/></mask><g mask="url(#b)"><path fill="#F7FCFF" fill-rule="evenodd" d="M0 0v18h24V0z" clip-rule="evenodd"/><mask id="c" width="24" height="18" x="0" y="0" maskUnits="userSpaceOnUse" style="mask-type:luminance"><path fill="#fff" fill-rule="evenodd" d="M0 0v18h24V0z" clip-rule="evenodd"/></mask><g fill="#58A5FF" fill-rule="evenodd" clip-rule="evenodd" mask="url(#c)"><path d="M0 0v5.25h24V0zm0 12.75V18h24v-5.25z"/></g></g><path fill="#FFC125" fill-rule="evenodd" d="M11.414 5.346a.1.1 0 0 0-.134.045c-.11.222-.028.418.039.578l.02.05a3 3 0 0 0 .081.187l.045.097a.37.37 0 0 1 .05.207l-.003.184c-.007.329-.016.791.103.984.029.047.172-.027.22-.055.046-.028.029-.18 0-.227-.12-.195-.12-.593-.12-.868V6.51c0-.138-.022-.185-.07-.29a4 4 0 0 1-.085-.192l-.035-.083-.03-.062c-.05-.103-.117-.24-.035-.405a.1.1 0 0 0-.046-.132m1.466.06a.1.1 0 0 0-.141-.012c-.189.162-.19.374-.19.548l-.001.053v.095l.001.109q0 .065.004.107a.4.4 0 0 1-.035.21l-.075.169c-.135.3-.324.721-.29.945.008.055.17.043.224.035s.097-.154.09-.208c-.036-.227.12-.593.228-.846l.007-.017a.56.56 0 0 0 .049-.294l-.002-.1-.002-.2-.002-.068c-.006-.115-.015-.268.125-.387a.1.1 0 0 0 .01-.14m1.186.538a.1.1 0 0 1 .127.062.1.1 0 0 1-.061.126c-.175.059-.224.203-.261.312l-.024.064-.033.084-.04.102-.036.094c-.04.108-.058.157-.155.254l-.013.013c-.195.195-.476.476-.529.698-.013.054-.108.174-.161.16s-.207-.062-.194-.116c.052-.22.386-.54.623-.768q.076-.07.132-.128a.37.37 0 0 0 .111-.182q.013-.04.037-.1l.04-.102.035-.088.02-.05c.066-.16.147-.356.382-.435m1.121 1.131a.1.1 0 0 0-.092-.107c-.248-.02-.399.13-.522.252l-.105.105-.076.078-.073.078a.37.37 0 0 1-.173.124l-.172.066c-.308.117-.74.281-.874.464-.032.044.09.15.133.183s.179-.04.211-.085c.135-.184.504-.333.76-.436l.017-.007c.127-.051.163-.09.242-.173a4 4 0 0 1 .146-.151l.064-.064q.022-.021.047-.05c.076-.085.178-.2.362-.185a.1.1 0 0 0 .105-.092m.455 1.212a.1.1 0 0 1 .045.133.1.1 0 0 1-.132.046c-.165-.082-.302-.014-.405.036l-.062.03-.083.034-.1.044-.093.042c-.104.048-.151.07-.289.07h-.018c-.276 0-.673 0-.868.12-.046.028-.199.046-.227-.001-.029-.048-.102-.191-.055-.22.192-.119.655-.11.984-.102l.184.002a.37.37 0 0 0 .207-.05l.097-.045.1-.043.137-.058c.16-.067.355-.149.578-.038m-.015 1.586a.1.1 0 0 0 .011-.141c-.161-.189-.374-.19-.547-.19l-.149-.001-.108.001q-.066 0-.107.004a.37.37 0 0 1-.21-.035q-.075-.032-.169-.075c-.3-.134-.722-.324-.946-.29-.054.009-.043.17-.035.224s.155.098.209.09c.226-.035.592.12.845.228l.017.007a.55.55 0 0 0 .294.049l.101-.002.268-.004c.115-.006.267-.015.387.125a.1.1 0 0 0 .14.01m-.543 1.175a.1.1 0 0 1-.063.126.1.1 0 0 1-.126-.061c-.058-.175-.203-.224-.312-.26l-.064-.024-.083-.034-.103-.04-.094-.036a.55.55 0 0 1-.254-.155l-.013-.013c-.194-.195-.476-.476-.698-.529-.053-.012-.174-.108-.16-.161s.063-.207.116-.194c.22.052.54.386.768.623q.071.076.129.132a.37.37 0 0 0 .181.111q.04.013.1.037l.19.075.05.02c.16.067.357.147.436.383m-1.141 1.111a.1.1 0 0 0 .107-.092c.019-.248-.13-.399-.252-.521l-.105-.106-.078-.076-.078-.073a.37.37 0 0 1-.124-.173l-.066-.172c-.117-.308-.282-.74-.464-.874-.044-.032-.15.09-.183.133s.04.179.085.211c.184.136.333.505.436.76l.007.017a.55.55 0 0 0 .173.242l.072.07.192.187c.086.076.2.178.186.362a.1.1 0 0 0 .092.105m-1.224.45a.1.1 0 0 1-.134.045.1.1 0 0 1-.046-.132c.082-.165.015-.302-.036-.405l-.029-.062a3 3 0 0 0-.079-.183l-.041-.092a.55.55 0 0 1-.07-.29v-.018c0-.275 0-.673-.12-.868-.028-.046-.046-.199 0-.227.048-.028.192-.102.22-.055.12.193.11.655.103.984l-.003.184a.37.37 0 0 0 .05.207q.02.037.045.097l.044.099.037.089.02.049c.067.16.15.355.039.578m-1.6-.014a.1.1 0 0 0 .142.01c.188-.161.19-.373.19-.546V11.8l-.004-.107a.37.37 0 0 1 .035-.21q.031-.074.074-.168c.135-.3.324-.722.29-.946-.008-.054-.169-.043-.223-.035-.055.007-.098.154-.09.208.035.227-.12.593-.228.846l-.008.017a.55.55 0 0 0-.048.294 5 5 0 0 1 .003.21V12l.002.068c.007.115.015.268-.125.387a.1.1 0 0 0-.01.14m-1.186-.539a.1.1 0 0 1-.127-.062.1.1 0 0 1 .061-.126c.175-.059.224-.203.261-.312l.024-.064.034-.084c0 .001.03-.08.04-.102l.035-.094a.55.55 0 0 1 .156-.254l.013-.013c.194-.195.476-.476.528-.699.013-.053.108-.173.161-.16.054.014.207.063.194.117-.052.22-.385.54-.623.768q-.075.07-.132.128a.37.37 0 0 0-.111.182q-.013.04-.037.1l-.04.102-.055.137c-.066.16-.147.357-.382.436m-1.11-1.113a.1.1 0 0 0 .093.105c.248.015.396-.137.517-.26l.037-.039a3 3 0 0 0 .141-.148l.072-.079c.053-.06.075-.086.171-.127l.17-.07c.306-.122.736-.293.867-.478.031-.045-.092-.148-.137-.18-.044-.033-.178.043-.21.087-.132.187-.498.342-.751.45l-.017.007a.56.56 0 0 0-.24.177q-.027.032-.068.074l-.137.145q-.022.022-.046.05c-.075.087-.175.203-.36.192a.1.1 0 0 0-.103.094m-.466-1.23a.1.1 0 0 1-.045-.133.1.1 0 0 1 .132-.046c.165.082.302.014.406-.036l.062-.03.082-.034.1-.044.093-.042c.105-.048.152-.07.29-.07h.018c.275 0 .673 0 .867-.12.047-.028.2-.046.227.001.029.047.102.191.056.22-.193.119-.656.11-.984.102l-.185-.002a.37.37 0 0 0-.207.05l-.097.045-.1.043-.136.058c-.16.067-.356.149-.579.038m.015-1.586a.1.1 0 0 0-.01.141c.16.189.373.19.546.19l.054.001a3 3 0 0 0 .204-.001q.065 0 .107-.004c.08-.004.114-.006.21.035l.168.075c.3.134.722.324.946.29.054-.009.043-.17.035-.224s-.155-.098-.209-.09c-.226.035-.592-.12-.845-.228l-.017-.007a.55.55 0 0 0-.294-.049 4 4 0 0 1-.21.003h-.09l-.069.003c-.114.006-.267.015-.387-.125a.1.1 0 0 0-.14-.01m.544-1.175a.1.1 0 0 1 .062-.126.1.1 0 0 1 .126.061c.059.174.203.224.312.26l.064.024a3 3 0 0 0 .186.074l.094.036c.108.04.157.058.254.155l.013.013c.195.195.476.476.698.529.054.012.174.108.16.161s-.062.207-.116.194c-.22-.052-.54-.386-.768-.623l-.128-.132a.37.37 0 0 0-.182-.111q-.04-.013-.1-.037l-.19-.076-.05-.02c-.16-.065-.356-.146-.435-.382m1.14-1.111a.1.1 0 0 0-.107.092c-.019.248.13.399.253.521l.037.038a3 3 0 0 0 .145.144l.078.073a.37.37 0 0 1 .124.173l.067.172c.117.308.28.74.463.874.045.032.15-.09.183-.133s-.04-.179-.084-.211c-.184-.136-.333-.504-.437-.76l-.006-.017a.55.55 0 0 0-.174-.242l-.072-.07-.192-.187c-.086-.076-.2-.178-.185-.362a.1.1 0 0 0-.092-.105" clip-rule="evenodd"/><path fill="#984111" d="m11.28 5.391-.067-.033zm.134-.045-.033.067zm-.095.623-.07.03zm.02.05.07-.029zm.037.087-.068.03.137-.06zm.044.1-.069.03zm.045.097.068-.033zm.047.391-.075-.001zm.103.984.064-.04zm.22-.055.038.064zm0-.227.064-.04zm-.12-.868h.075zm0-.018h.075zm-.07-.29-.068.032zm-.041-.092.069-.03zm-.044-.1-.069.03.138-.06zm-.035-.083.07-.028zm-.03-.062.068-.033zm-.035-.405.067.033zm1.279-.084-.049-.057zm.14.011.057-.05zm-.33.537h-.076zm0 0h.074zm-.001.053.075.001zm0 .095-.075.001zm0 0-.075.001zm.001.109h.075zm.004.107.074-.004zm-.035.21.069.03zm-.075.169-.068-.031zm-.29.945-.074.012zm.224.035.01.075zm.09-.208-.075.01zm.228-.846.069.03zm.007-.017.069.03zm.049-.294.075-.002v-.002zm0 0-.075.003v.001zm-.002-.1h-.075zm-.002-.11h-.075l.15-.001zm0-.09h-.075zm-.002-.068-.075.004zm.125-.387-.049-.057zm1.323.461.07-.024zm-.127-.062-.024-.071zm.066.188-.024-.071zm-.261.312.07.024zm-.024.064.07.03zm-.033.084-.07-.028.14.055zm-.04.102.07.028zm-.036.094.07.026zm0 0-.07-.026zm-.155.254.053.053zm-.013.013.053.053zm-.529.698-.073-.017zm-.161.16-.018.073zm-.194-.116.073.018zm.623-.768.052.054h.001zm0 0-.052-.054-.001.001zm.132-.128.053.053zm.111-.182.071.024zm.037-.1-.07-.028zm.04-.102-.07-.027.14.055zm.035-.088-.069-.03zm.02-.05-.068-.03v.002zm0 0 .07.03v-.001zm1.411.589.006-.075zm-.522.252-.052-.053zm0 0 .053.054zm0 0-.052-.053zm-.037.038-.053-.054zm-.068.067-.054-.052.107.105zm-.076.078.053.052zm-.073.078.055.05zm0 0-.055-.051-.004.005zm0 0 .056.05.003-.004zm-.173.124-.028-.07zm-.172.066-.027-.07zm-.874.464.06.044zm.133.183.045-.06zm.211-.085.06.045zm.76-.436.028.07zm.017-.007.028.07zm.242-.173.054.052zm.07-.073.053.053zm.076-.078-.053-.053.107.105zm.064-.064.052.054zm.047-.05-.056-.05zm.362-.185.006-.075zm.605 1.253-.068-.032zm-.045-.133.033-.068zm-.087.18.033-.068zm-.405.035-.033-.067zm-.062.03.028.069zm-.083.034-.03-.068.06.137zm-.1.044-.03-.068zm-.093.042-.03-.069zm-.289.07v.074zm-.018 0v.074zm-.868.12.04.063zm-.227-.001.064-.039zm-.055-.22-.04-.064zm.984-.102.001-.075zm.391-.048.033.068zm.097-.045.03.07zm.1-.043-.03-.069.06.137zm.087-.038.029.07zm.05-.02-.03-.07zm.574 1.407.057-.049zm-.547-.19v-.076zm0 0v.074zm-.053-.001-.002.075zm-.096 0v-.075zm0 0-.001-.075zm-.108.001v.075zm-.107.004.003.075zm-.21-.035-.03.069zm-.169-.075.03-.068zm0 0-.031.069h.002zm0 0 .031-.068zm-.946-.29-.011-.074zm-.035.224-.074.01zm.209.09-.011-.075zm.845.228-.029.069.006.002zm0 0 .03-.07-.006-.001zm.017.007-.029.069zm.294.049.002.075h.002zm0 0-.002-.075h-.002zm.101-.002v-.075zm.11-.002-.001-.075.002.15zm.09 0v-.074zm.068-.002-.004-.075zm.387.125.057-.048zm-.467 1.311-.025-.07zm.063-.127-.071.024zm-.189.066.071-.024zm-.312-.26-.024.07zm-.064-.024-.03.069zm-.083-.034.027-.07-.055.14zm-.103-.04-.027.07zm-.094-.036-.026.07zm-.254-.155-.053.053zm-.013-.013-.053.053zm-.698-.529-.017.073zm-.16-.161.072.018zm.116-.194-.017.073zm.768.623.054-.052zm.31.243-.024.071zm.1.037.029-.07zm.102.04.027-.07-.054.14zm.088.036.03-.07zm.05.02-.029.07zm-.598 1.401-.075-.006zm-.252-.521-.054.052zm-.038-.038-.054.052zm-.067-.068.052-.054-.105.107zm-.078-.076.053-.053zm-.078-.073-.053.053.003.003zm0 0 .053-.053-.003-.003zm-.124-.173.07-.028zm-.066-.172.07-.027-.002-.003zm0 0-.07.027v.002zm-.464-.874.044-.06zm-.183.133.06.045zm.085.211.044-.06zm.436.76-.07.028zm.007.017-.07.028zm.173.242.051-.055zm.072.07-.052.053zm.08.076.051-.053-.104.107zm.062.064-.053.052zm.05.047.051-.056zm0 0-.05.055zm.186.362-.075-.006zm-1.266.6.033-.067zm.134-.045.067.033zm-.18-.087.068.033zm-.036-.405.068-.033zm-.029-.062-.07.028zm-.035-.083.07-.03-.138.06zm-.044-.1.07-.03zm-.041-.092-.068.03zm-.07-.29h-.075zm0-.018h-.075zm-.12-.868-.064.04zm0-.227.04.064zm.22-.055-.063.04zm.103.984.075.002zm.047.391-.067.033zm.045.097-.069.03zm.044.099.068-.03zm0 0-.069.03zm0 0 .069-.03zm0 0-.069.031zm0 0 .069-.03zm.037.089.07-.028zm.02.049.07-.029zm0 0-.069.028zm-1.42.575-.048-.057zm-.14-.011.056-.05zm.331-.537h.075zm0-.053.075.002zm0-.095.075-.001-.15.002zm0-.109h.074zm-.004-.107.075-.004v-.003zm0 0h-.076l.001.008zm0 0h.075v-.004zm.035-.21-.07-.03zm.074-.168.069.03zm.29-.946.074-.012zm-.313.174-.074.01zm-.228.845-.07-.03zm-.008.017-.069-.03zm-.048.294-.075.002zm.002.1h.075zm.001.11h.075l-.15.001zm0 .09.075.001zm.002.068.075-.004zm-.125.387.049.057zm-1.323-.461.071-.025zm.127.062-.024-.07zm-.066-.188-.023-.071zm.261-.312-.07-.024zm.024-.064-.07-.03zm.034-.084.07.028-.14-.055zm.04-.102.069.028zm.035-.094.07.026zm.156-.254-.053-.053zm.013-.013-.053-.053zm.528-.699.073.018zm.355-.043-.072-.018zm-.623.768.047.059.005-.005zm0 0-.047-.059-.005.005zm-.132.128.053.053zm-.111.182-.07-.024zm-.037.1.07.028zm-.04.102.07.027zm0 0 .07.027zm-.035.088-.07-.03zm-.02.05-.07-.029zm0 0 .068.03.001-.003zm0 0-.069-.031v.002zm-1.4-.573.005-.075zm-.093-.105.075.003zm.611-.156.054.052zm0 0-.053-.053-.001.001zm0 0 .053.053zm.037-.038-.053-.053zm.067-.069.054.052-.109-.103zm.074-.079-.054-.051zm.072-.079.057.05zm.171-.127-.03-.069zm.17-.07-.027-.07v.001zm0 0 .028.07zm0 0-.026-.07h-.001zm0 0 .028.07zm0 0 .029.07zm.867-.478.06.043zm-.137-.18.044-.062zm-.21.087.062.044zm-.751.45-.03-.07-.005.004zm0 0 .03.07.005-.004zm-.017.007-.03-.069zm-.24.177-.055-.05zm-.068.074-.054-.052zm-.075.08.054.052-.109-.103zm-.062.065.053.053zm-.046.05.056.05zm0 0-.057-.049-.003.005zm0 0 .054.053.006-.008zm0 0-.055-.051-.002.002zm-.36.192.005-.075zm-.613-1.27.068.033zm.045.134-.033.067zm.087-.18-.033.068zm.406-.035.033.067zm.062-.03L8.884 9.4zm.082-.034.03.068-.06-.137zm.1-.044.03.068zm.093-.042-.031-.068zm.29-.07v-.074zm.018 0v-.074zm.867-.12-.04-.063zm.227.001-.064.039zm.056.22-.04-.064zm-.984.102-.002.075zm-.392.048-.033-.068zm-.097.045-.03-.07zm-.1.043-.03-.068zm0 0 .031.069zm0 0 .03.069h.001zm-.087.038.028.07zm-.05.02.03.07zm-.574-1.407.057-.049zm.01-.14.05.056zm.537.33v.076zm.054.001-.002.075zm.095 0v.075-.15zm.108-.001v.075zm.108-.004V8.38h-.004zm0 0v.075h.003zm.21.035-.03.07zm.168.075-.03.068zm.946.29.011.074zm-.174-.313.012.074zm-.845-.229.03-.069zm-.017-.007.03-.069zm-.294-.049-.002-.075zm-.1.002v.075zm-.11.001v.075l-.001-.15zm-.09 0-.001.075zm-.069.003.004.075zm-.387-.125.057-.05zm.467-1.311-.024-.07zm-.062.126.07-.023zm.188-.065.071-.024zm.312.26-.024.072zm0 0 .024-.07zm.064.024.03-.069zm.084.034-.028.07.055-.14zm.102.04.028-.07zm.094.036.026-.07zm.254.155.053-.053zm.013.013.053-.053zm.698.529.018-.073zm.16.161-.072-.018zm-.116.194.018-.073zm-.768-.623.054-.052zm0 0-.054.052zm-.128-.132-.053.053zm-.182-.111-.025.07zm0 0 .025-.071zm-.1-.037.027-.07zm-.102-.04-.027.07.055-.14zm-.088-.036-.03.07zm-.05-.02-.028.07zm0 0 .03-.07H9.38zm.598-1.401-.074-.006zm.108-.092-.005.075zm.145.613-.054.053zm.037.038-.054.053zm.067.068-.052.054.105-.108zm.078.076.053-.054zm.078.073.05-.056zm.124.173-.07.028zm.067.172.07-.027zm.463.874.045-.06zm.183-.133-.06-.045zm-.084-.211.044-.06zm-.437-.76.07-.028zm-.006-.017-.07.028zm-.174-.242.052-.054zm-.072-.07.053-.053zm-.079-.076-.052.053.105-.107zm-.063-.064-.054.052zm-.05-.047-.05.056zm-.185-.362-.075-.006zm1.199-.522a.025.025 0 0 1 .033-.01l.066-.136a.176.176 0 0 0-.234.08zm.04.516c-.068-.162-.134-.327-.04-.516l-.135-.066c-.127.256-.03.483.037.64zm.02.05-.02-.05-.139.058.02.048zm.037.086-.036-.086-.14.056.039.09zm.044.1-.026-.058-.013-.03-.004-.009v-.002h-.001v-.001s-.099-.038-.137.06l.137-.06c-.039.099-.137.06-.137.06v.001l.001.003.004.009.013.029.025.057zm.043.094-.043-.094-.138.06q.027.062.047.1zm.058.24a.5.5 0 0 0-.014-.136q-.017-.054-.043-.104l-.135.066.033.078a.4.4 0 0 1 .009.096zm-.003.186.003-.186h-.15l-.003.183zm.092.943a.5.5 0 0 1-.058-.165 2 2 0 0 1-.03-.242 7 7 0 0 1-.004-.536l-.15-.003c-.003.163-.007.364.005.549q.007.14.032.263a.7.7 0 0 0 .077.213zm.117-.08a1 1 0 0 1-.103.049.2.2 0 0 1-.041.01c-.01 0 .012-.003.027.02l-.128.08c.03.047.08.051.107.05q.046-.004.085-.019a1 1 0 0 0 .13-.062zm-.025-.124.001.002.003.006.006.021a.3.3 0 0 1 .007.056q.001.03-.003.045c-.003.013-.004.003.01-.006l.078.128a.14.14 0 0 0 .058-.088q.01-.043.007-.086l-.011-.083a.3.3 0 0 0-.028-.074zm-.131-.907c0 .137 0 .309.015.471.015.16.046.323.116.436l.128-.079a.9.9 0 0 1-.094-.37c-.015-.155-.015-.32-.015-.458zm0-.018v.018h.15V6.51zm-.063-.258c.025.053.04.085.049.12s.014.073.014.138h.15a.7.7 0 0 0-.02-.177 1 1 0 0 0-.057-.144zm-.042-.094.042.094.136-.063-.04-.09zm.094-.16c-.033.096-.134.067-.137.061v.002l.005.01.012.029.026.058.138-.06-.026-.059-.013-.03-.004-.008zl-.001-.001c-.003-.006-.104-.035-.137.06zm-.174-.025.036.085.138-.06-.035-.08zm-.026-.057q.017.034.026.057l.14-.056-.032-.067zm-.036-.471c-.1.2-.014.37.036.471l.134-.066c-.051-.105-.1-.21-.036-.339zm-.012-.032c.013.006.017.02.012.032l.134.066a.173.173 0 0 0-.08-.233zm1.406.038a.026.026 0 0 1 .036.004l.113-.1a.176.176 0 0 0-.246-.018zm-.164.49c.001-.175.005-.353.165-.49l-.098-.114c-.218.187-.216.434-.217.604zm0 0h-.15zm0 .055v-.054h-.15v.052zm0 .093v-.093l-.15-.002v.097zm0 0-.15.002zm.001.11-.001-.11-.15.003.001.107zm.003.103c-.001-.028-.003-.06-.003-.104l-.15.001q0 .07.004.11zm-.04.243a.5.5 0 0 0 .04-.13c.005-.039.002-.074 0-.113l-.15.008v.085a.4.4 0 0 1-.028.092zm-.075.17.075-.17-.138-.058-.074.167zm-.285.904a.5.5 0 0 1 .012-.174q.022-.107.066-.234a7 7 0 0 1 .207-.496l-.137-.061c-.067.15-.15.333-.211.507-.03.088-.057.174-.073.255a.7.7 0 0 0-.012.226zm.14-.028a1 1 0 0 1-.115.005.2.2 0 0 1-.042-.006c-.01-.004.013.001.017.03l-.148.022c.008.055.054.079.079.088.027.01.058.014.085.016a1 1 0 0 0 .144-.006zm.025-.123v.009l-.003.021a.3.3 0 0 1-.014.054.2.2 0 0 1-.02.04c-.008.011-.006.002.011 0l.021.148a.14.14 0 0 0 .088-.058.3.3 0 0 0 .04-.077l.022-.081a.3.3 0 0 0 .003-.079zm.234-.886a5 5 0 0 0-.17.44c-.049.152-.084.314-.064.446l.148-.023a.9.9 0 0 1 .059-.378c.046-.148.11-.3.165-.427zm.007-.017-.007.017.138.058.007-.017zm.043-.262a1 1 0 0 1-.003.13.5.5 0 0 1-.04.132l.138.058a.7.7 0 0 0 .05-.17c.008-.05.006-.099.005-.155zm0 .001.15-.008zm-.002-.104q0 .06.002.103l.15-.005-.002-.099zm.148-.111c-.066.074-.15.01-.15.002V6.09v.045l.002.064h.15l-.001-.066v-.046c-.001-.008-.084-.073-.15.002zm-.15-.09v.092l.15-.002V6zm-.002-.063.002.063.15.002-.002-.074zm.151-.448c-.17.146-.157.335-.15.448l.149-.009c-.007-.116-.01-.232.099-.325zm.002-.033c.01.01.008.025-.002.033l.098.114a.173.173 0 0 0 .017-.246zm1.44.527a.176.176 0 0 0-.22-.11l.047.143a.026.026 0 0 1 .032.016zm-.107.221c.092-.03.14-.13.108-.221l-.142.049a.023.023 0 0 1-.014.03zm-.214.265c.038-.11.078-.22.214-.265l-.048-.142c-.213.071-.272.252-.308.359zm-.026.07q.015-.034.026-.07L13.8 6.42l-.022.06zm-.032.08.032-.08-.138-.059-.034.085zm-.04.104.023-.061.012-.03.004-.01V6.62l.001-.001c.002-.007-.05-.099-.14-.055v.001l.14.055c-.09.045-.143-.047-.14-.053v-.001l-.001.003-.004.009-.012.03-.023.06zm-.036.092.036-.092-.14-.056-.036.096zm0 0-.14-.052zm-.172.281a.7.7 0 0 0 .11-.139 1 1 0 0 0 .062-.142l-.14-.052a1 1 0 0 1-.051.12.5.5 0 0 1-.087.107zm-.013.013.013-.013-.106-.106-.013.013zm-.509.663c.022-.094.095-.208.196-.33.098-.119.215-.235.313-.333l-.106-.106c-.097.097-.219.218-.323.344-.102.123-.195.26-.226.39zm-.252.215a.14.14 0 0 0 .103-.02.3.3 0 0 0 .066-.057l.05-.067a.3.3 0 0 0 .033-.071l-.146-.035v.002l-.003.006-.01.02a.3.3 0 0 1-.035.044.2.2 0 0 1-.034.03c-.01.007-.005-.001.012.003zm-.25-.206c-.012.054.021.094.04.111.022.02.05.036.074.047a1 1 0 0 0 .136.048l.036-.145a1 1 0 0 1-.108-.038.2.2 0 0 1-.036-.022c-.008-.007.011.006.005.034zm.645-.805a7 7 0 0 0-.386.391c-.06.07-.117.14-.162.21a.7.7 0 0 0-.096.204l.146.035a.5.5 0 0 1 .075-.157q.061-.092.15-.193c.117-.133.258-.268.377-.382zm-.001.001.106.106zm.132-.128-.13.127.103.108q.076-.071.133-.13zm.093-.154-.032.08a.4.4 0 0 1-.06.074l.105.106a.5.5 0 0 0 .086-.106c.02-.034.03-.068.043-.105zm.039-.103q-.026.064-.039.103l.142.05q.013-.04.036-.098zm.178-.046c-.097.042-.14-.055-.14-.055v.004q-.003.003-.004.009l-.034.088.139.055zs-.043-.098-.14-.055zm-.103-.146-.036.091.14.054.034-.086zm.02-.048-.02.048.138.06.021-.051zm0-.001.139.06zm.428-.477c-.272.09-.363.32-.428.478l.14.057c.066-.163.136-.326.335-.393zm1.046 1.17a.026.026 0 0 1 .023.027l.15.01a.176.176 0 0 0-.161-.187zm-.463.23c.125-.123.254-.246.463-.23l.012-.15c-.286-.022-.46.154-.58.274zm0 0-.106-.106zm0 0-.106-.106zm0 0-.105-.106zm-.038.038.038-.037-.105-.107-.038.037zm-.066.066.066-.066-.105-.107-.069.069zm-.077.078.045-.045.022-.023.007-.007.002-.002s0-.107-.107-.106l.107.106c-.105 0-.107-.105-.107-.105l-.002.002-.007.007-.066.068zm-.07.076q.026-.03.07-.076l-.106-.105q-.049.05-.076.08zm-.001 0-.11-.101zm.004-.004-.118-.092zm-.204.147a.5.5 0 0 0 .12-.064.5.5 0 0 0 .08-.079l-.11-.1-.061.06a.4.4 0 0 1-.085.044zM14 7.741q.097-.036.174-.067l-.056-.139-.17.066zm-.84.438a.5.5 0 0 1 .131-.115q.091-.06.213-.118c.16-.077.342-.146.496-.205l-.053-.14a7 7 0 0 0-.508.21 2 2 0 0 0-.23.129.7.7 0 0 0-.17.15zm.118.079a1 1 0 0 1-.084-.077.2.2 0 0 1-.025-.034c-.004-.01.008.01-.009.032l-.12-.088c-.034.045-.018.094-.007.118a.3.3 0 0 0 .049.071c.036.041.082.08.106.098zm.106-.069-.002.002-.005.004-.017.013a.3.3 0 0 1-.048.028.2.2 0 0 1-.043.015c-.013.002-.004-.003.01.007l-.091.12a.14.14 0 0 0 .103.021.3.3 0 0 0 .083-.026l.073-.042a.3.3 0 0 0 .058-.053zm.791-.461a5 5 0 0 0-.43.19c-.143.074-.283.164-.361.271l.12.089c.057-.077.17-.154.31-.227.137-.07.29-.133.418-.184zm.018-.007-.018.007.057.139.017-.007zm.215-.155a1 1 0 0 1-.093.09.5.5 0 0 1-.122.065l.056.139a.7.7 0 0 0 .156-.084 1 1 0 0 0 .112-.107zm.071-.074-.07.074.108.103.07-.072zm.184.026c-.1.005-.113-.1-.108-.105l-.002.002-.007.007-.022.023-.045.046.107.105.046-.046.022-.023.007-.007zc.005-.006-.008-.11-.107-.105h-.001zm-.042-.17-.065.065.107.105.062-.062zm.043-.046-.043.046.104.108q.026-.025.05-.054zm.424-.21c-.224-.017-.349.126-.424.21l.112.1c.077-.087.157-.171.3-.16zm.024-.022a.023.023 0 0 1-.024.022l-.012.15a.173.173 0 0 0 .186-.162zm.642 1.383a.176.176 0 0 0-.079-.234l-.067.135q.02.011.011.034zm-.233.08a.173.173 0 0 0 .233-.08l-.135-.065a.023.023 0 0 1-.03.011zm-.338.037c.105-.052.21-.1.338-.037l.067-.134c-.2-.1-.37-.014-.471.036zm-.067.03q.034-.013.067-.03l-.066-.135-.058.027zm-.08.035q.044-.02.08-.034l-.057-.14-.084.037zm-.102.044.09-.039.008-.004h.003v-.001h.001c.007-.004.034-.105-.06-.138h-.001l.06.138c-.096-.032-.068-.134-.061-.137l-.002.001q-.004 0-.01.004l-.029.013-.058.026zm-.09.04.09-.04-.06-.137-.093.041zm-.321.077a.7.7 0 0 0 .177-.02c.049-.012.093-.033.144-.056l-.063-.137a1 1 0 0 1-.12.05.5.5 0 0 1-.138.013zm-.018 0h.018v-.15h-.018zm-.829.11c.082-.051.215-.08.372-.095.154-.015.318-.015.457-.015v-.15c-.137 0-.31 0-.472.016-.159.015-.322.046-.435.116zm-.33-.027a.14.14 0 0 0 .087.059.3.3 0 0 0 .087.006l.083-.011a.3.3 0 0 0 .073-.028l-.078-.127h-.002l-.007.003-.02.006a.3.3 0 0 1-.056.008q-.03 0-.045-.003c-.013-.003-.003-.005.006.01zm-.03-.322c-.048.03-.052.081-.051.107 0 .03.01.06.018.085a1 1 0 0 0 .062.13l.129-.077a1 1 0 0 1-.05-.103.2.2 0 0 1-.01-.041c0-.01.004.012-.02.027zm1.024-.113a6 6 0 0 0-.55.004 2 2 0 0 0-.262.033.7.7 0 0 0-.213.076l.079.128a.5.5 0 0 1 .165-.058 2 2 0 0 1 .241-.03 7 7 0 0 1 .537-.003zm.183.002-.183-.002-.003.15.186.002zm.174-.042-.078.033a.4.4 0 0 1-.096.01v.15a.5.5 0 0 0 .135-.015c.038-.01.07-.026.105-.043zm.1-.047-.1.047.066.135q.037-.019.094-.044zm.16.094c-.1-.038-.06-.137-.06-.137h-.001l-.003.002-.038.016-.058.025.06.138.058-.025.03-.013.008-.004.003-.001c.001 0 .04-.1-.06-.138zm.03-.175-.09.038.06.137.085-.036zm.048-.02-.049.02.056.139.05-.02zm.64-.037c-.256-.127-.483-.029-.64.037l.058.138c.162-.068.327-.134.515-.04zm-.094 1.562a.026.026 0 0 1-.003.035l.099.113a.176.176 0 0 0 .018-.246zm-.49-.165c.176.001.353.005.49.165l.114-.098c-.186-.217-.433-.216-.604-.217zm0 0v-.15zm-.055 0h.055v-.15h-.052zm-.093 0h.093l.003-.15h-.098zm0 0-.002-.15zm-.109.001.11-.001-.003-.15-.108.001zm-.104.004.104-.004v-.15q-.07 0-.111.004zm-.243-.041a.5.5 0 0 0 .13.04q.058.006.113 0l-.007-.15h-.085a.4.4 0 0 1-.092-.028zm-.17-.075.17.075.059-.138-.167-.074zm.002 0 .059-.138zm-.002 0 .062-.137zm-.904-.285a.5.5 0 0 1 .175.012q.106.021.234.067c.167.058.345.138.495.206l.062-.137c-.15-.067-.333-.15-.508-.21a2 2 0 0 0-.254-.073.7.7 0 0 0-.226-.013zm.028.14a1 1 0 0 1-.005-.115.2.2 0 0 1 .007-.042c.004-.01-.002.013-.03.017l-.022-.148a.11.11 0 0 0-.088.079.3.3 0 0 0-.016.085 1 1 0 0 0 .006.144zm.124.025h-.009l-.021-.002a.3.3 0 0 1-.055-.015.2.2 0 0 1-.04-.02c-.01-.008-.001-.006.001.011l-.148.021a.14.14 0 0 0 .058.088q.035.025.077.04.04.016.08.022a.3.3 0 0 0 .08.003zm.886.234a5 5 0 0 0-.44-.17c-.153-.049-.315-.084-.446-.064l.022.148a.9.9 0 0 1 .379.059c.147.046.299.11.426.165zm-.006-.002-.047.142zm.023.009-.017-.007-.059.138.017.007zm.262.043a1 1 0 0 1-.13-.002.5.5 0 0 1-.132-.041l-.059.138a.7.7 0 0 0 .17.051c.05.007.1.005.155.004zm-.002 0 .008.15zm.104-.002-.102.002.004.15.1-.002zm.112.148h-.002c-.074-.066-.009-.149-.002-.15h.001-.013l-.032.001h-.064l.001.15zc.007-.001.072-.084-.002-.15h-.001zm.09-.15h-.092l.002.15h.087zm.063-.002-.063.003-.003.15.074-.003zm.448.152c-.146-.171-.335-.158-.448-.152l.008.15c.117-.006.233-.01.326.1zm.033.001a.023.023 0 0 1-.033-.001l-.114.097c.063.074.173.08.246.017zm-.532 1.429c.09-.031.14-.13.109-.221l-.142.047a.026.026 0 0 1-.017.032zm-.222-.108c.031.092.13.14.222.108l-.05-.142a.023.023 0 0 1-.03-.014zm-.265-.214c.11.038.22.078.265.214l.142-.048c-.071-.213-.252-.271-.359-.308zm-.07-.025.07.025.048-.142-.059-.022zm-.08-.033q.045.017.08.033l.06-.139-.086-.034zm-.103-.04.06.023.03.012.01.004h.002l.001.001c.007.002.099-.05.055-.14h-.001l-.055.14c-.044-.09.047-.143.054-.14l-.002-.001-.01-.004-.03-.011-.059-.024zm-.093-.035.093.035.055-.14-.096-.036zm-.28-.173a.7.7 0 0 0 .138.111c.044.025.09.042.142.062l.052-.141a1 1 0 0 1-.12-.051.5.5 0 0 1-.107-.087zm-.014-.013.013.013.106-.106-.013-.013zm-.662-.509c.093.022.207.096.329.196.119.099.236.215.333.313l.106-.106c-.097-.097-.218-.219-.344-.322-.123-.103-.26-.196-.39-.227zm-.216-.252a.14.14 0 0 0 .02.103.5.5 0 0 0 .123.117.3.3 0 0 0 .073.032l.034-.146h-.002l-.006-.003-.019-.01a.3.3 0 0 1-.075-.068c-.007-.012.002-.005-.003.011zm.206-.25c-.054-.012-.093.021-.111.04a.3.3 0 0 0-.047.074 1 1 0 0 0-.048.136l.145.036a1 1 0 0 1 .038-.107.2.2 0 0 1 .022-.037c.007-.007-.006.011-.033.005zm.805.645a7 7 0 0 0-.391-.385 2 2 0 0 0-.209-.163.7.7 0 0 0-.205-.096l-.034.146q.065.015.157.076.09.06.192.15c.133.117.268.257.382.376zm.128.131-.128-.13-.108.103q.071.075.13.133zm.153.094-.08-.032a.4.4 0 0 1-.073-.062l-.106.106c.039.04.07.066.106.086.034.02.067.03.104.043zm.104.038-.104-.038-.05.141q.04.013.098.036zm.046.179c.097-.043.054-.14.054-.14l-.003-.002-.01-.003-.087-.034-.056.139.06.023.03.012.008.003zs-.043-.096.054-.14zm.145-.104-.09-.036-.055.14.086.034zm.048.02-.048-.02-.059.138.05.021zm.479.428c-.091-.272-.321-.363-.479-.427l-.057.138c.163.067.327.137.394.336zm-1.18 1.037a.026.026 0 0 1-.027.023l-.01.15a.176.176 0 0 0 .187-.161zm-.23-.463c.123.125.246.253.23.463l.15.012c.022-.286-.154-.46-.274-.58zm-.039-.038.038.038.107-.105-.037-.038zm-.066-.066q.038.036.066.066l.108-.105-.069-.069zm-.078-.076.046.044.023.022.007.007.002.002s.106 0 .106-.106l-.106.106c0-.106.105-.107.105-.107l-.002-.002-.008-.007-.022-.022-.045-.044zm-.075-.071.075.07.106-.106-.08-.076zm-.003-.003.106-.106zm-.14-.198a.5.5 0 0 0 .064.12c.023.031.05.055.079.08l.1-.11-.06-.06a.4.4 0 0 1-.044-.086zm-.067-.174q.036.098.067.174l.139-.056-.066-.17zm0 .003.139-.059zm-.439-.843q.054.04.116.132.06.092.118.212c.077.16.146.342.205.496l.14-.053c-.059-.153-.13-.341-.21-.508a2 2 0 0 0-.129-.23.7.7 0 0 0-.15-.17zm-.078.118a1 1 0 0 1 .077-.084.2.2 0 0 1 .034-.025c.01-.004-.01.008-.033-.009l.09-.12c-.046-.034-.095-.018-.119-.007a.3.3 0 0 0-.071.049 1 1 0 0 0-.098.106zm.069.106-.002-.002-.004-.004a.2.2 0 0 1-.042-.066.2.2 0 0 1-.014-.043c-.002-.013.003-.004-.007.01l-.12-.091a.14.14 0 0 0-.021.103.3.3 0 0 0 .026.083l.042.073q.021.032.053.058zm.461.792c-.051-.127-.115-.287-.19-.431-.074-.143-.164-.283-.271-.361l-.089.12c.077.057.154.17.226.31.072.137.134.29.185.418zm.007.017-.007-.017-.139.056.007.017zm.155.215a1 1 0 0 1-.09-.093.5.5 0 0 1-.065-.122l-.139.056a.7.7 0 0 0 .084.156 1 1 0 0 0 .107.112zm.074.071-.074-.07-.103.108q.032.029.072.07zm-.026.184h-.001c-.005-.1.1-.113.104-.108h.001l-.002-.002-.007-.007-.023-.022-.046-.045-.105.107.046.046.023.022.007.007zc.006.005.11-.007.105-.107v-.001zm.17-.042-.066-.065-.104.107.062.062zm.046.043-.047-.043-.107.104q.025.026.054.05zm0 0-.101.111zm.21.424c.017-.224-.126-.349-.21-.424l-.1.112c.087.077.171.157.16.3zm.022.024a.023.023 0 0 1-.023-.024l-.149-.012a.173.173 0 0 0 .162.186zm-1.396.638a.176.176 0 0 0 .234-.08l-.134-.066a.026.026 0 0 1-.034.01zm-.08-.233a.173.173 0 0 0 .08.233l.066-.135a.023.023 0 0 1-.011-.032zm-.036-.339c.052.105.1.21.036.339l.135.066c.1-.2.013-.37-.036-.471zm-.031-.067q.014.034.031.067l.135-.066-.027-.057zm-.034-.08.034.08.139-.056-.036-.085zm-.045-.102.026.06.013.03.004.008.002.003v.002c.003.006.105.034.137-.061l-.137.06V12c.032-.094.133-.066.137-.06l-.001-.002-.004-.01-.013-.029-.026-.058zm-.04-.09.04.09.138-.059-.042-.094zm-.077-.32a.64.64 0 0 0 .077.32l.136-.063a1 1 0 0 1-.049-.12.5.5 0 0 1-.014-.138zm0-.02v.02h.15v-.02zm-.109-.827c.05.081.08.214.095.37.014.155.014.32.014.458h.15c0-.137 0-.309-.015-.471-.015-.16-.046-.323-.116-.436zm.026-.331a.14.14 0 0 0-.058.087.3.3 0 0 0-.007.087l.012.083a.3.3 0 0 0 .027.074l.128-.08v-.001l-.003-.006-.006-.021a.3.3 0 0 1-.005-.1c.003-.014.004-.004-.01.005zm.322-.03c-.03-.048-.08-.052-.107-.051a.3.3 0 0 0-.084.019 1 1 0 0 0-.13.062l.077.128a1 1 0 0 1 .103-.049.2.2 0 0 1 .04-.01c.011 0-.012.003-.026-.02zm.114 1.024c.003-.163.008-.364-.004-.549a2 2 0 0 0-.033-.263.7.7 0 0 0-.077-.212l-.127.078a.5.5 0 0 1 .057.165q.022.107.03.242c.011.177.007.371.004.536zm-.003.183.003-.183-.15-.003-.003.186zm.043.174-.034-.078a.4.4 0 0 1-.009-.096h-.15a.5.5 0 0 0 .015.136q.016.054.043.104zm.046.1-.046-.1-.135.066.043.094zm.043.099-.043-.098-.138.06.044.098zm0 0-.137.06zm0 0-.137.06zm0 0-.137.06v.001zm0 0-.137.061zm.039.09-.038-.09-.138.06.037.087zm.02.049-.02-.048-.14.056.021.05zm0 0-.139.057zm.036.64c.128-.256.03-.483-.036-.64l-.139.058c.068.162.134.327.04.516zm-1.574-.093a.026.026 0 0 1-.036-.003l-.113.098a.176.176 0 0 0 .246.019zm.164-.49c0 .175-.004.353-.164.49l.097.114c.218-.187.216-.434.217-.604zm0-.055v.054h.15v-.051zm0-.093v.093l.15.003v-.098zm0-.11v.109s.077.075.15-.001l-.15.002c.075-.076.15-.002.15-.002V11.8zm-.004-.103c.001.028.003.06.003.104l.15-.001q0-.07-.003-.11zm0 .004.15-.015zm0-.008h.15zm.04-.24a.5.5 0 0 0-.039.131q-.006.056-.001.113l.15-.008v-.085a.4.4 0 0 1 .029-.092zm.076-.17-.075.17.138.06q.03-.074.073-.168zm.284-.903a.5.5 0 0 1-.011.174q-.022.107-.067.234c-.059.168-.139.345-.206.496l.136.061c.068-.15.15-.333.211-.507.03-.088.057-.174.073-.255a.7.7 0 0 0 .012-.226zm-.139.028a1 1 0 0 1 .114-.005.2.2 0 0 1 .042.006c.01.004-.013-.001-.017-.03l.148-.022c-.008-.055-.054-.079-.078-.088a.3.3 0 0 0-.086-.016 1 1 0 0 0-.144.006zm-.026.123v-.009l.003-.021a.3.3 0 0 1 .035-.095c.008-.01.005 0-.012.002l-.02-.149a.14.14 0 0 0-.089.058.3.3 0 0 0-.04.077l-.022.081a.3.3 0 0 0-.003.079zm-.233.886c.053-.126.12-.284.17-.44.048-.152.083-.314.063-.446l-.148.023a.9.9 0 0 1-.058.378c-.047.148-.111.3-.165.427zm-.008.017.008-.017-.138-.058-.008.017zm-.043.262a1 1 0 0 1 .003-.13.5.5 0 0 1 .04-.132l-.138-.058a.7.7 0 0 0-.05.17c-.008.05-.006.098-.004.155zm.003.103q0-.06-.003-.103l-.15.005.003.099zm-.149.111c.068-.075.15-.009.15-.003v.001-.045l-.001-.064h-.15v.108zc0 .006.082.073.15-.002zm.15.09v-.092l-.15.002V12zm.002.063-.002-.063-.15-.002.002.074zm-.151.448c.17-.146.157-.335.151-.448l-.15.009c.007.116.01.232-.099.325zm-.002.034a.023.023 0 0 1 .002-.034l-.098-.114a.173.173 0 0 0-.017.246zm-1.44-.528c.03.09.13.14.22.11l-.047-.143a.026.026 0 0 1-.032-.016zm.108-.221a.173.173 0 0 0-.108.221l.141-.049a.023.023 0 0 1 .014-.03zm.213-.265c-.037.11-.077.22-.213.265l.047.142c.213-.072.272-.252.308-.359zm.026-.07q-.014.034-.026.07l.142.048.022-.06zm.033-.08-.033.08.138.059.034-.085zm.04-.104-.024.061-.012.03-.003.01-.001.002v.001c-.003.006.048.098.139.055v-.001l-.14-.055c.092-.045.143.048.14.054l.002-.003.003-.009.012-.03.023-.06zm.035-.092-.035.092.139.056.037-.096zm.173-.281a.7.7 0 0 0-.112.139 1 1 0 0 0-.061.142l.14.052a1 1 0 0 1 .052-.12.5.5 0 0 1 .087-.107zm.013-.013-.013.013.106.106.013-.013zm.508-.663c-.022.094-.095.208-.196.33-.098.119-.215.235-.312.333l.106.106c.096-.097.218-.218.322-.344.102-.123.196-.26.226-.39zm.253-.215a.14.14 0 0 0-.104.02.3.3 0 0 0-.066.057l-.05.067a.3.3 0 0 0-.033.071l.146.035v-.002l.003-.006.01-.02a.3.3 0 0 1 .069-.074c.011-.007.005.001-.012-.003zm.248.206c.013-.054-.02-.094-.04-.111a.3.3 0 0 0-.072-.047 1 1 0 0 0-.136-.048l-.037.145c.024.006.07.02.108.038a.2.2 0 0 1 .036.022c.008.007-.011-.006-.004-.034zm-.644.805c.118-.113.264-.253.386-.392.06-.069.117-.14.162-.208a.7.7 0 0 0 .097-.205l-.146-.035a.5.5 0 0 1-.076.157q-.06.092-.15.192a7 7 0 0 1-.377.383zm-.005.005-.094-.118zm-.126.122.131-.127-.104-.108q-.075.07-.133.13zm-.093.154c.013-.04.02-.06.032-.08a.4.4 0 0 1 .061-.074l-.106-.106a.5.5 0 0 0-.086.106c-.019.034-.03.068-.043.105zm-.038.103q.025-.064.038-.104l-.142-.048q-.013.038-.036.097zm-.04.1c.002-.002.031-.079.04-.1l-.14-.055c-.008.022-.038.1-.04.102zm0 .001-.14-.054zm-.036.09.037-.09-.14-.054-.035.086zm-.02.049.02-.048-.138-.06-.02.051zm0 0-.14-.056zm0 .002-.138-.061zm-.427.476c.271-.09.362-.32.427-.478l-.139-.057c-.066.163-.136.326-.336.393zM8.92 10.974a.026.026 0 0 1-.023-.027l-.15-.007a.176.176 0 0 0 .164.184zm.46-.238c-.123.126-.25.251-.46.238l-.009.15c.286.017.457-.162.576-.284zm-.001 0 .108.104zm.001-.001.106.106zm.037-.038-.038.039.108.104.036-.037zm.065-.067-.065.067.106.106q.032-.03.068-.07zm.075-.08-.066.07-.006.008-.002.002h-.001s.003.106.11.103l-.11-.103c.106-.003.11.103.11.103l.002-.003.007-.007.022-.023.042-.046zm.07-.076-.07.077.108.103.075-.082zm.198-.147a.5.5 0 0 0-.12.066c-.03.024-.053.052-.078.08l.113.1.059-.062a.4.4 0 0 1 .084-.046zm.172-.07-.172.07.058.138.17-.069zm0 0 .055.14zm0 0 .055.14zm0 0 .055.14zm0 0 .056.14zm.832-.453a.5.5 0 0 1-.129.118q-.09.062-.21.122c-.16.08-.34.152-.493.213l.056.14c.152-.062.338-.136.504-.22q.125-.06.229-.132a.7.7 0 0 0 .166-.154zm-.119-.076c.02.014.057.045.085.075a.2.2 0 0 1 .026.034c.005.01-.008-.01.008-.033l.123.087c.032-.045.016-.094.005-.118a.3.3 0 0 0-.05-.07 1 1 0 0 0-.109-.097zm-.104.07h.001l.005-.006.017-.013a.3.3 0 0 1 .048-.029.2.2 0 0 1 .043-.015c.013-.002.004.003-.01-.007l.088-.122a.14.14 0 0 0-.104-.019.3.3 0 0 0-.082.028l-.072.043a.3.3 0 0 0-.057.054zm-.784.476a5 5 0 0 0 .428-.198c.14-.077.279-.169.356-.277l-.123-.087c-.055.078-.166.157-.305.232-.136.074-.287.138-.414.192zm.006-.003-.07-.132zm-.023.01.017-.007-.058-.138-.017.007zm-.213.159a1 1 0 0 1 .092-.092.5.5 0 0 1 .121-.067l-.058-.138a.7.7 0 0 0-.155.087 1 1 0 0 0-.11.109zm-.07.075.07-.075-.11-.101-.068.072zm-.184-.023c.102-.008.114.097.11.102l.002-.002.007-.007.022-.024.043-.046-.108-.104-.045.048-.022.023-.006.007zc-.004.005.008.11.109.103zm.046.169q.03-.028.063-.066l-.109-.103-.06.063zm-.043.046.043-.046-.106-.106q-.026.026-.05.054zm0 0-.113-.098zm.004-.003-.12-.09zm-.006.006-.109-.103zm-.418.215c.224.013.347-.132.42-.217l-.113-.099c-.076.089-.154.175-.298.166zm-.024.022c0-.014.012-.023.024-.022l.01-.15a.173.173 0 0 0-.184.165zm-.652-1.4a.176.176 0 0 0 .08.234l.066-.134a.026.026 0 0 1-.011-.034zm.233-.08a.173.173 0 0 0-.233.08l.135.066a.023.023 0 0 1 .031-.011zm.338-.036c-.104.052-.21.1-.338.037L8.41 9.6c.201.1.37.014.472-.036zm.068-.03q-.034.013-.068.03l.067.135.057-.027zm.08-.035-.08.034.056.14.084-.037zm.101-.044-.06.026-.029.013-.009.004h-.002l-.001.001h-.001c-.006.003-.035.105.06.138h.001l-.06-.138h.001c.095.033.066.134.06.137l.012-.005.029-.013c.023-.01.048-.02.058-.026zm.09-.04-.09.04.06.137.093-.041zm.321-.077a.7.7 0 0 0-.176.02c-.05.012-.093.033-.144.056l.062.137a1 1 0 0 1 .12-.05.5.5 0 0 1 .138-.013zm.019 0h-.019v.15h.019zm.828-.11c-.082.051-.215.08-.371.095a5 5 0 0 1-.457.015v.15c.137 0 .308 0 .47-.016.16-.015.324-.046.437-.116zm.33.027a.14.14 0 0 0-.087-.059.3.3 0 0 0-.087-.006l-.083.01a.3.3 0 0 0-.073.029l.079.127h.002l.006-.003.02-.006a.3.3 0 0 1 .056-.008q.03 0 .045.003c.013.003.003.005-.006-.01zm.031.322a.12.12 0 0 0 .05-.107.3.3 0 0 0-.018-.085 1 1 0 0 0-.062-.13l-.129.077c.013.02.036.064.05.103q.01.03.01.041c0 .01-.004-.012.02-.027zm-1.025.113c.164.004.365.008.55-.004.092-.006.182-.016.262-.033a.7.7 0 0 0 .213-.076l-.079-.128a.5.5 0 0 1-.165.058 2 2 0 0 1-.241.03 7 7 0 0 1-.537.003zm-.183-.002.183.002.003-.15-.186-.002zm-.174.042.078-.033a.4.4 0 0 1 .096-.01v-.15a.5.5 0 0 0-.135.015c-.038.01-.07.026-.105.043zm-.1.047.1-.047-.066-.135q-.036.019-.094.044zm-.099.043c.005-.002.078-.035.099-.043l-.06-.138-.1.044zm0 0-.06-.137zm0 0-.06-.137zm-.09.038.09-.038-.06-.137-.086.036zm-.048.02.048-.02-.056-.139-.05.02zm-.64.036c.256.128.483.03.64-.036l-.058-.138c-.163.068-.328.134-.516.04zm.093-1.56a.026.026 0 0 1 .003-.036l-.098-.113a.176.176 0 0 0-.019.246zm.49.164c-.175-.001-.353-.005-.49-.165l-.114.098c.186.217.434.216.604.217zm.055 0h-.054l-.001.15h.052zm.093 0h-.093l-.003.15h.098zm.11-.001-.106.001h-.004s-.074.076.002.15l-.002-.15c.076.074.002.15.002.15h.045l.063-.001zm.103-.004-.104.004v.15q.07 0 .111-.004zm.004 0v.15zm0 0v.15zm.239.041a.5.5 0 0 0-.13-.04q-.057-.006-.113 0l.007.15h.086c.02.002.047.01.091.028zm.17.075-.17-.075-.059.138q.073.031.168.074zm.904.285a.5.5 0 0 1-.174-.012 2 2 0 0 1-.235-.067 7 7 0 0 1-.495-.206l-.062.137c.15.067.333.15.508.21q.132.048.254.073.122.026.226.013zm-.028-.14a1 1 0 0 1 .005.115.2.2 0 0 1-.007.042c-.003.01.002-.013.03-.017l.022.148c.056-.009.08-.054.089-.079a.3.3 0 0 0 .016-.085 1 1 0 0 0-.006-.144zm-.123-.025h.008l.022.002a.3.3 0 0 1 .054.015.2.2 0 0 1 .04.02c.011.008.001.006-.001-.011l.149-.021a.14.14 0 0 0-.059-.088.3.3 0 0 0-.077-.04l-.08-.022a.3.3 0 0 0-.08-.003zm-.887-.234c.127.054.285.121.44.17.153.049.315.084.447.064l-.023-.148a.9.9 0 0 1-.379-.059 5 5 0 0 1-.426-.165zm-.017-.007.017.007.06-.138-.018-.007zm-.262-.043a1 1 0 0 1 .13.002.5.5 0 0 1 .133.041l.058-.138a.7.7 0 0 0-.17-.051c-.05-.007-.099-.005-.155-.004zm-.102.002.102-.002-.004-.15-.1.002zm-.111-.149c.075.068.009.15.003.15h-.001.109l-.001-.15h-.112c-.006 0-.072.083.002.15h.001zm-.09.15h.091l-.001-.15h-.088zm-.064.003.064-.003.002-.15-.074.003zm-.448-.152c.146.171.336.158.448.152l-.008-.15c-.116.006-.232.01-.326-.1zm-.033-.001a.023.023 0 0 1 .033.001l.114-.097a.173.173 0 0 0-.245-.017zm.533-1.429a.176.176 0 0 0-.11.221l.143-.047a.026.026 0 0 1 .016-.032zm.221.108a.173.173 0 0 0-.221-.108l.049.142a.023.023 0 0 1 .03.014zm.265.214c-.11-.038-.22-.078-.265-.214l-.142.048c.071.213.252.271.359.308zm0 0-.048.142zm.07.025-.07-.025-.048.142.06.021zm.08.033-.08-.033-.059.138.085.035zm.104.04-.061-.023-.03-.012-.01-.004h-.002v-.001H9.59c-.006-.002-.098.049-.055.14h.001l.055-.14c.044.091-.048.142-.054.14l.003.001.009.004.09.035zm.092.035q-.04-.014-.092-.035l-.056.14.096.036zm.281.173a.7.7 0 0 0-.139-.111c-.044-.025-.09-.042-.142-.062l-.052.141a1 1 0 0 1 .12.051.5.5 0 0 1 .107.087zm.013.013-.013-.013-.106.106.013.013zm.663.509c-.094-.022-.208-.096-.33-.196a5 5 0 0 1-.333-.313l-.106.106c.097.097.218.219.344.323.123.102.26.195.39.226zm.215.252a.14.14 0 0 0-.02-.103.3.3 0 0 0-.057-.066l-.067-.05a.3.3 0 0 0-.071-.033l-.035.146h.002l.006.003.02.01a.3.3 0 0 1 .044.034.2.2 0 0 1 .03.034c.007.012-.001.005.003-.011zm-.206.25c.054.012.094-.021.111-.04a.3.3 0 0 0 .047-.074 1 1 0 0 0 .048-.136l-.145-.036a1 1 0 0 1-.038.107.2.2 0 0 1-.022.037c-.007.007.006-.011.034-.005zm-.805-.645c.113.118.253.263.391.385q.105.094.21.163c.067.044.137.08.204.096l.035-.146a.5.5 0 0 1-.158-.076 2 2 0 0 1-.191-.15 7 7 0 0 1-.383-.376zm0 0 .108-.104zm-.127-.131.127.13.108-.103-.13-.133zm-.154-.094c.04.014.06.021.08.032.018.011.04.027.074.062l.106-.106a.5.5 0 0 0-.106-.086c-.034-.02-.068-.03-.105-.043zm0 0 .05-.141zM9.563 7.5q.064.026.103.038l.05-.141-.098-.036zm-.046-.179c.042.097-.055.14-.055.14h.001l.003.002.097.037.055-.139-.06-.023-.029-.012-.01-.003zs-.098.042-.055.14zm-.146.104.09.036.055-.14-.086-.035zm-.048-.02.048.02.059-.139-.05-.02zm0 0 .057-.14zm-.479-.428c.092.272.322.363.48.428l.056-.14c-.163-.066-.326-.136-.393-.335zm1.18-1.037a.026.026 0 0 1 .028-.023l.01-.15a.176.176 0 0 0-.187.161zm.23.463c-.123-.125-.246-.254-.23-.463l-.15-.012c-.021.286.154.46.274.58zm.039.038-.038-.038-.107.105.037.038zm.066.066-.066-.066-.108.105.069.069zm.078.076-.046-.044-.023-.022-.007-.007-.002-.002s-.106 0-.105.107l.105-.108c.001.106-.105.108-.105.108l.003.002.007.007.023.022.044.044zm.075.071-.075-.07-.106.106.081.076zm.144.201a.5.5 0 0 0-.065-.12q-.035-.044-.079-.08l-.1.11.06.06a.4.4 0 0 1 .045.086zm.067.173-.067-.173-.14.056.067.17zm.438.84a.5.5 0 0 1-.115-.13c-.04-.06-.08-.134-.118-.213a7 7 0 0 1-.205-.497l-.14.054c.058.153.13.341.21.508.04.083.083.163.128.23a.7.7 0 0 0 .151.17zm.078-.117a1 1 0 0 1-.077.084.2.2 0 0 1-.034.025c-.01.004.01-.008.033.009l-.089.12c.045.034.094.018.118.007a.3.3 0 0 0 .072-.049 1 1 0 0 0 .097-.106zm-.069-.106.002.002.005.004.013.017q.015.023.028.05a.2.2 0 0 1 .014.042c.002.013-.003.004.007-.01l.12.091a.14.14 0 0 0 .021-.103.3.3 0 0 0-.026-.083l-.041-.073a.3.3 0 0 0-.054-.058zm-.461-.792c.051.127.116.287.19.432.074.142.164.282.271.36l.09-.12c-.078-.057-.155-.17-.227-.31a5 5 0 0 1-.185-.418zm-.007-.017.007.017.14-.056-.008-.017zm-.155-.215a1 1 0 0 1 .09.093.5.5 0 0 1 .065.122l.14-.056a.7.7 0 0 0-.085-.156 1 1 0 0 0-.107-.112zm-.074-.071.074.07.103-.108-.071-.07zm.027-.184c.005.101-.1.112-.104.108h-.001l.002.002.008.007.068.067.106-.107-.047-.046-.023-.022-.007-.007zl-.001-.001c-.005-.004-.11.007-.105.108zm-.17.042.065.065.105-.107-.062-.062zm-.046-.043q.028.024.046.043l.108-.104-.054-.05zm-.21-.424c-.018.224.126.349.21.424l.1-.112c-.087-.077-.172-.157-.16-.3zm-.022-.024c.014 0 .023.012.022.024l.15.012a.173.173 0 0 0-.162-.186z"/><path fill="#FFC125" fill-rule="evenodd" d="M12 5.25a.09.09 0 0 0-.09.083l-.16 2.285h.5l-.161-2.285a.09.09 0 0 0-.09-.083m3.734 3.7a.09.09 0 0 0-.083-.089l-2.285-.16v.5l2.285-.161a.09.09 0 0 0 .083-.09m-3.645 3.618a.09.09 0 0 1-.178 0l-.161-2.285h.5zM8.266 8.951a.09.09 0 0 0 .083.089l2.285.16v-.5l-2.285.161a.09.09 0 0 0-.083.09m6.298-2.577a.09.09 0 0 1 .124.128l-1.532 1.703-.347-.36zm.03 5.239a.09.09 0 0 0 .006-.122l-1.472-1.756-.36.348 1.704 1.532a.09.09 0 0 0 .122-.002m-5.159-.085a.09.09 0 0 1-.123-.129l1.532-1.703.347.36zm-.03-5.24a.09.09 0 0 0-.006.122l1.472 1.756.36-.347-1.703-1.533a.09.09 0 0 0-.122.003m1.144-.658a.09.09 0 0 1 .166-.067l1.005 2.059-.464.187zm4.913 1.934a.09.09 0 0 0-.11-.051l-2.18.707.188.463 2.059-1.005a.09.09 0 0 0 .043-.114m-2.012 4.707a.09.09 0 0 1-.165.067L12.28 10.28l.463-.188zm-4.912-1.934a.09.09 0 0 0 .11.052l2.18-.707-.188-.464-2.059 1.005a.09.09 0 0 0-.043.114m4.806-4.751a.09.09 0 0 1 .165.07l-.745 2.166-.46-.195zm2.093 4.81a.09.09 0 0 0-.041-.114l-2.041-1.04-.196.46 2.167.744a.09.09 0 0 0 .111-.05m-4.782 1.92a.09.09 0 0 1-.164-.07l.745-2.167.46.196zM8.562 7.505a.09.09 0 0 0 .042.114l2.04 1.041.196-.46-2.166-.745a.09.09 0 0 0-.112.05" clip-rule="evenodd"/><path fill="#984111" d="m11.91 5.333-.074-.005zm-.16 2.285-.075-.005-.006.08h.08zm.5 0v.075h.08l-.005-.08zm-.161-2.285.075-.005zm3.562 3.528.005-.074zm-2.285-.16.005-.075-.08-.006v.08zm0 .5h-.075v.08l.08-.006zm2.285-.161.005.075zm-3.562 3.528.075.005zm-.178 0-.075.005zm-.161-2.285v-.075h-.08l.005.08zm.5 0 .075.005.005-.08h-.08zM8.349 9.04l-.006.075zm2.285.16-.005.075.08.006v-.08zm0-.5h.075v-.08l-.08.006zm-2.285.161-.006-.074zm6.215-2.487-.048-.058zm.124.128.056.05zm-1.532 1.703-.054.052.056.058.054-.06zm-.347-.36-.048-.057-.062.052.056.057zm1.791 3.646.058-.048zm-1.472-1.756.058-.048-.052-.062-.058.056zm-.36.348-.051-.054-.058.056.06.053zm1.704 1.532-.05.056zm-5.158-.094.054-.052zm.121.007.049.057zm-.123-.129-.056-.05zm1.532-1.703.054-.052-.056-.058-.054.06zm.347.36.048.057.062-.051-.056-.058zM9.399 6.41l-.057.049zm.007-.121.052.054zm1.465 1.877-.057.048.052.062.057-.056zm.36-.347.052.054.058-.056-.06-.054zM9.528 6.286l.05-.055zM10.6 5.52l-.028-.07zm-.052.11.072-.022zm.166-.066-.068.033zm1.005 2.059.028.07.075-.03-.036-.073zm-.464.187-.07.023.024.077.074-.03zm4.096-.296.023.071zm-2.18.707-.023-.072-.076.025.03.075zm.188.463-.07.028.03.075.073-.035zm2.059-1.005-.033-.067zm-2.02 4.704.028.07zm.051-.11.072-.024zm-.165.066.067-.033zM12.28 10.28l-.028-.07-.075.03.035.072zm.463-.188.072-.023-.025-.076-.075.03zm-4.095.297.023.07zm-.11-.052-.07.028zm2.29-.655.022.07.077-.024-.03-.075zm-.188-.464.07-.028-.03-.075-.073.036zm-2.06 1.005.033.067zm4.878-4.679.03-.069zm-.115.042-.066-.034zm.165.07-.071-.025zm-.745 2.166-.03.069.074.031.027-.076zm-.46-.195-.067-.034-.037.071.074.032zm3.092 2.655.034-.067zm.041.115-.069-.03zM13.355 9.24l.034-.067-.072-.036-.031.074zm-.196.46-.069-.029-.031.074.076.026zm2.167.745.024-.07zm-4.785 1.911.03-.069zm.114-.041-.066-.035zm-.164-.07-.07-.025zm.745-2.167.03-.069-.075-.031-.026.076zm.46.196.067.034.037-.072-.074-.031zM8.604 7.619l-.034.067zm-.042-.114.07.029zm2.083 1.155-.034.067.071.037.032-.074zm.195-.46.07.03.03-.075-.075-.026zm-2.166-.745-.025.071zm3.312-2.117q.001-.012.014-.013v-.15a.164.164 0 0 0-.164.153zm-.161 2.286.16-2.286-.15-.01-.16 2.285zm.425-.08h-.5v.15h.5zm-.236-2.206.161 2.286.15-.01-.161-2.286zM12 5.325q.012.001.014.013l.15-.01A.164.164 0 0 0 12 5.175zm3.646 3.611q.012.002.013.015h.15a.164.164 0 0 0-.153-.164zm-2.286-.16 2.286.16.01-.15-2.285-.16zm.08.425v-.5h-.15v.5zm2.206-.236-2.286.16.01.15 2.286-.16zm.013-.014a.014.014 0 0 1-.013.014l.01.15a.164.164 0 0 0 .153-.164zm-3.66 3.775a.164.164 0 0 0 .165-.153l-.15-.01a.014.014 0 0 1-.014.013zm-.163-.153a.164.164 0 0 0 .164.153v-.15a.014.014 0 0 1-.014-.013zm-.161-2.285.16 2.285.15-.01-.16-2.285zm.575-.08h-.5v.15h.5zm-.086 2.365.16-2.285-.149-.01-.16 2.285zm-3.81-3.608a.014.014 0 0 1-.013-.014h-.15c0 .086.066.158.152.164zm2.285.16-2.285-.16-.01.15 2.285.16zm-.08-.424v.5h.15v-.5zm-2.205.235 2.285-.16-.01-.15-2.286.16zm-.013.015q0-.013.013-.015l-.01-.15a.164.164 0 0 0-.153.165zm6.399-2.623a.164.164 0 0 0-.224-.012l.096.115a.015.015 0 0 1 .02.001zm.004.224a.164.164 0 0 0-.004-.224l-.108.104a.014.014 0 0 1 0 .02zm-1.532 1.703 1.532-1.703-.112-.1L13.1 8.155zm-.457-.358.347.36.108-.104-.347-.36zm1.761-1.58-1.755 1.47.096.116 1.755-1.472zm.027 5.222a.014.014 0 0 1-.001.02l.104.108a.164.164 0 0 0 .012-.224zM13.07 9.784l1.472 1.755.115-.096-1.472-1.756zm-.25.353.36-.348-.105-.108-.36.348zm1.701 1.422-1.703-1.532-.1.111 1.703 1.533zm.02 0a.014.014 0 0 1-.02 0l-.1.112a.164.164 0 0 0 .224-.004zm-5.282.014c.06.063.157.068.224.012l-.097-.115a.014.014 0 0 1-.02 0zm-.004-.224a.164.164 0 0 0 .004.224l.108-.104a.014.014 0 0 1 0-.02zm1.532-1.703L9.256 11.35l.111.1L10.9 9.747zm.457.358-.347-.36-.108.104.347.36zm-1.761 1.581 1.755-1.472-.096-.115-1.756 1.472zm-.027-5.223a.014.014 0 0 1 0-.02l-.103-.107a.164.164 0 0 0-.012.224zm1.472 1.756L9.457 6.362l-.115.097 1.472 1.755zm.25-.353-.36.347.104.108.36-.347zm-1.7-1.423 1.703 1.532.1-.111L9.578 6.23zm-.02 0a.014.014 0 0 1 .02 0l.1-.111a.164.164 0 0 0-.224.004zm1.115-.892a.164.164 0 0 0-.095.203l.143-.046a.014.014 0 0 1 .008-.018zm.21.08a.164.164 0 0 0-.21-.08l.056.139a.014.014 0 0 1 .018.007zm1.004 2.059L10.782 5.53l-.135.066 1.006 2.059zm-.503.29.464-.188-.056-.139-.464.188zm-.806-2.226.707 2.18.143-.047-.707-2.18zm4.897 1.931a.014.014 0 0 1 .018.008l.139-.056a.164.164 0 0 0-.203-.095zm-2.18.707 2.18-.707-.046-.143-2.18.707zm.234.364-.187-.463-.139.056.187.463zm1.957-1.044-2.06 1.005.067.135 2.058-1.005zm.007-.019a.014.014 0 0 1-.007.019l.065.135a.164.164 0 0 0 .08-.21zm-1.966 4.86a.164.164 0 0 0 .095-.204l-.143.046a.014.014 0 0 1-.008.018zm-.21-.08c.038.077.13.112.21.08l-.056-.14a.014.014 0 0 1-.019-.007zm-1.005-2.06 1.005 2.06.135-.067-1.005-2.058zm.503-.29-.463.188.056.14.463-.188zm.807 2.226-.707-2.179-.143.046.707 2.18zm-4.897-1.93a.014.014 0 0 1-.018-.01l-.139.057c.032.08.121.121.203.095zm2.179-.708-2.18.707.047.143 2.18-.707zm-.234-.364.188.464.139-.057-.188-.463zM8.614 10.29l2.059-1.005-.066-.134-2.059 1.005zm-.007.019a.014.014 0 0 1 .007-.018l-.066-.135a.164.164 0 0 0-.08.209zm4.881-4.834a.164.164 0 0 0-.21.077l.133.068a.014.014 0 0 1 .019-.007zm.091.205a.164.164 0 0 0-.09-.205l-.06.138q.012.006.009.018zm-.745 2.166.745-2.166-.141-.049-.745 2.167zm-.56-.15.46.195.059-.138-.46-.195zm1.004-2.144-1.041 2.04.133.069 1.041-2.041zm2.083 4.797q.011.006.007.018l.138.059a.164.164 0 0 0-.076-.21zm-2.04-1.041 2.04 1.04.069-.133-2.041-1.04zm-.093.423.196-.46-.138-.06-.196.461zm2.122.644-2.166-.745-.049.142 2.166.745zm.018-.008a.014.014 0 0 1-.018.008l-.049.142a.164.164 0 0 0 .205-.091zm-4.857 2.06c.08.033.172 0 .211-.077l-.133-.069a.014.014 0 0 1-.019.007zm-.09-.206a.165.165 0 0 0 .09.205l.06-.138a.014.014 0 0 1-.009-.018zm.744-2.166-.745 2.166.142.05.745-2.167zm.56.15-.46-.195-.058.138.46.196zm-1.003 2.145 1.041-2.041-.133-.068-1.042 2.04zM8.638 7.552a.014.014 0 0 1-.006-.018l-.139-.059c-.033.08 0 .172.077.211zm2.041 1.041-2.04-1.04-.069.133 2.04 1.041zm.092-.422-.195.46.138.059.195-.46zM8.65 7.526l2.167.745.049-.142-2.167-.745zm-.017.008a.014.014 0 0 1 .017-.008l.05-.142a.164.164 0 0 0-.206.091z"/><path fill="#FFC125" fill-rule="evenodd" stroke="#984111" stroke-width=".15" d="M12 10.382c.8 0 1.45-.641 1.45-1.431S12.8 7.52 12 7.52c-.801 0-1.45.64-1.45 1.43s.649 1.432 1.45 1.432Z" clip-rule="evenodd"/><path fill="#984111" d="m11.86 8.577-.094-.06a.6.6 0 0 0-.14-.07.2.2 0 0 0-.06-.011q-.133 0-.37.167l-.06-.08q.26-.185.43-.186.045 0 .091.015c.05.016.101.042.163.081l.093.06.036.02c.12 0 .127.428.042.559a.4.4 0 0 1-.087.093l-.065.048c-.03.023-.039.036-.039.052 0 .003.036.012.116.008q.022 0 .055-.004l.083-.005v.1l-.075.004-.058.003c-.141.007-.221-.013-.221-.106 0-.054.026-.09.077-.13l.065-.047a.3.3 0 0 0 .065-.069.6.6 0 0 0 .04-.255.7.7 0 0 0-.02-.154.2.2 0 0 1-.067-.033"/><path fill="#984111" fill-rule="evenodd" d="M12.264 8.543c-.022.014-.045.03-.054.034a.2.2 0 0 1-.067.033l-.007.024a1 1 0 0 0-.013.13.6.6 0 0 0 .04.255.3.3 0 0 0 .066.069l.064.047c.051.04.077.076.077.13 0 .093-.08.113-.22.106l-.058-.003-.075-.005v-.099c.018 0 .026.001.082.005l.055.004c.08.004.116-.005.116-.008 0-.016-.009-.03-.038-.052l-.02-.014-.045-.034a.4.4 0 0 1-.088-.093c-.084-.131-.077-.558.042-.558h.001l.035-.02.05-.032.043-.029a.7.7 0 0 1 .163-.08.3.3 0 0 1 .091-.016q.17 0 .43.186l-.059.08q-.238-.168-.37-.167a.2.2 0 0 0-.062.01.6.6 0 0 0-.139.07zm-.118.06-.001.002z" clip-rule="evenodd"/><path fill="#984111" d="m11.74 9.525.034.067zm.526.002.039-.064zm.069.041.061.043.046-.066-.069-.041zm-.046.066-.062-.043zm-.572.007.057-.049zm-.062-.073-.034-.067-.086.043.063.073zm.26.053-.017-.073-.17.038.145.097zm.187 0 .047.058.12-.096-.15-.036zm-.366-.036L11.7 9.52l-.077.043.055.069zm.525 0 .064.04.039-.061-.06-.041zm-.628-.113.04.064zm.74.008-.047.059zm.034.026.046-.059zm.052.041.065.038.034-.057-.053-.04zm-.034.057.064.039zm-.022.037-.065-.038zm-.805.01-.06.046zm-.032-.042.06-.045zm-.048-.066-.04-.063-.07.043.05.065zm.07-.043.039.064zm.424-.114a.7.7 0 0 0-.305.072l.067.134a.5.5 0 0 1 .238-.056zm.293.077a.56.56 0 0 0-.293-.077v.15a.4.4 0 0 1 .215.055zm.068.04-.068-.04-.078.128.07.042zm-.022.174.045-.066-.123-.086-.046.066zm-.34.203c.147 0 .258-.086.34-.203l-.124-.086q-.098.141-.215.14zm-.351-.19c.094.11.211.19.352.19v-.15q-.118.002-.238-.138zm-.062-.073.062.073.114-.098-.063-.073zm.109-.159-.086.043.067.134.086-.043zm.305.122a.1.1 0 0 1-.055-.021l-.085.124a.25.25 0 0 0 .14.047zm.043-.018a.1.1 0 0 1-.026.015l-.017.003v.15a.22.22 0 0 0 .137-.051zm-.043.124q.04 0 .072.007l.035-.146a.5.5 0 0 0-.107-.011zm-.081.008a.4.4 0 0 1 .08-.008v-.15a.5.5 0 0 0-.113.012zm.08-.015c-.055 0-.128-.03-.216-.14l-.117.093q.155.196.334.197zm.187-.135c-.069.107-.132.135-.186.135v.15q.182-.002.313-.204zm-.186.043q.124 0 .207.06l.085-.124a.5.5 0 0 0-.292-.086zm-.24.064a.5.5 0 0 1 .24-.064v-.15a.63.63 0 0 0-.312.083zm.24-.364a.8.8 0 0 0-.419.121l.08.128a.64.64 0 0 1 .339-.1zm.406.133a.65.65 0 0 0-.406-.133v.15a.5.5 0 0 1 .314.102zm.035.027-.035-.027-.092.119.035.027zm.052.04-.053-.04-.091.119.052.04zm-.016.156.034-.058-.128-.076-.034.057zm-.022.037.022-.037-.128-.077-.023.037zm-.455.299c.201 0 .351-.126.455-.3l-.129-.076c-.088.148-.198.226-.326.226zm-.474-.282c.123.164.28.282.474.282v-.15q-.19-.002-.354-.222zm-.032-.043.032.043.12-.09-.031-.043zm-.049-.066.05.066.12-.09-.05-.065zm.09-.151-.069.043.079.127.07-.043zm.046-.029-.045.029.079.127.045-.028zm-.303-.835-.032-.068zm0 .305-.032.067zm.419 0 .033.067zm0-.305-.032.067zm-.38.152-.053-.054-.056.054.056.054zm.026.018.033-.068zm0-.035-.032-.068zm.29 0 .032-.068zm.026.017.052.054.056-.054-.056-.054zm-.027.018.033.067zm.647-.17.032.067zm0 .305.032-.068zm.418 0-.032-.068zm0-.305-.032.067zm-.38.152-.053-.054-.056.054.056.054zm.026.018-.032.067zm0-.035-.032-.068zm.29 0 .032-.068zm.026.017.052.054.056-.054-.056-.054zm-.027.018.033.067zm-1.321-.103a.4.4 0 0 1 .177-.035v-.15a.6.6 0 0 0-.242.05zm-.073.085c0-.032.027-.063.073-.085l-.065-.135c-.058.028-.158.096-.158.22zm.073.085c-.046-.022-.073-.052-.073-.085h-.15c0 .125.1.192.158.22zm.177.035a.4.4 0 0 1-.177-.035l-.065.135a.6.6 0 0 0 .242.05zm.177-.035a.4.4 0 0 1-.177.035v.15a.6.6 0 0 0 .242-.05zm.073-.085q-.002.05-.073.085l.065.135c.058-.028.158-.095.158-.22zm-.073-.085c.046.022.073.053.073.085h.15c0-.124-.1-.192-.159-.22zm-.177-.035a.4.4 0 0 1 .177.035l.065-.135a.6.6 0 0 0-.242-.05zm-.224.174q.018.016.047.031l.065-.135c-.01-.005-.01-.007-.008-.004zm.047-.139a.2.2 0 0 0-.047.031l.104.108q-.006.004.008-.003zm.177-.035a.4.4 0 0 0-.177.035l.065.136c.02-.01.06-.02.112-.02zm.177.035a.4.4 0 0 0-.177-.035v.15c.051 0 .09.01.112.02zm.046.031a.2.2 0 0 0-.046-.03l-.065.135q.013.007.007.003zm-.046.14q.03-.014.046-.032l-.104-.108-.007.004zm-.177.034a.4.4 0 0 0 .177-.035l-.065-.135a.3.3 0 0 1-.112.02zm-.177-.035a.4.4 0 0 0 .177.035v-.15a.3.3 0 0 1-.112-.02zm1-.17a.4.4 0 0 1 .177-.035v-.15a.6.6 0 0 0-.242.05zm-.073.085c0-.032.027-.063.073-.085l-.065-.135c-.058.028-.158.096-.158.22zm.073.085c-.046-.022-.073-.052-.073-.085h-.15c0 .125.1.192.158.22zm.177.035a.4.4 0 0 1-.177-.035l-.065.135a.6.6 0 0 0 .242.05zm.177-.035a.4.4 0 0 1-.177.035v.15a.6.6 0 0 0 .242-.05zm.073-.085q-.002.05-.073.085l.065.135c.058-.028.158-.095.158-.22zm-.073-.085c.046.022.073.053.073.085h.15c0-.124-.1-.192-.159-.22zm-.177-.035a.4.4 0 0 1 .177.035l.065-.135a.6.6 0 0 0-.242-.05zm-.224.174q.018.016.047.031l.065-.135c-.01-.005-.01-.007-.008-.004zm.047-.139a.2.2 0 0 0-.047.031l.104.108q-.006.004.008-.003zm.177-.035a.4.4 0 0 0-.177.035l.065.136c.02-.01.06-.02.112-.02zm.177.035a.4.4 0 0 0-.177-.035v.15c.051 0 .09.01.112.02zm.046.031a.2.2 0 0 0-.046-.03l-.065.135q.013.007.007.003zm-.046.14q.03-.014.046-.032l-.104-.108-.007.004zm-.177.034a.4.4 0 0 0 .177-.035l-.065-.135a.3.3 0 0 1-.112.02zm-.177-.035a.4.4 0 0 0 .177.035v-.15a.3.3 0 0 1-.112-.02z"/></g><rect width="23" height="17" x=".5" y=".5" stroke="#000" stroke-opacity=".1" rx="1.5"/><defs><clipPath id="a"><rect width="24" height="18" fill="#fff" rx="2"/></clipPath></defs></svg>