<svg xmlns="http://www.w3.org/2000/svg" fill="none" viewBox="0 0 24 18"><g clip-path="url(#a)"><mask id="b" width="24" height="18" x="0" y="0" maskUnits="userSpaceOnUse" style="mask-type:luminance"><path fill="#fff" d="M0 0h24v18H0z"/></mask><g mask="url(#b)"><path fill="#F7FCFF" fill-rule="evenodd" d="M0 0v18h24V0z" clip-rule="evenodd"/><mask id="c" width="24" height="18" x="0" y="0" maskUnits="userSpaceOnUse" style="mask-type:luminance"><path fill="#fff" fill-rule="evenodd" d="M0 0v18h24V0z" clip-rule="evenodd"/></mask><g mask="url(#c)"><path fill="#56C6F5" fill-rule="evenodd" d="M0 9v9h24V9z" clip-rule="evenodd"/><path fill="#006923" fill-rule="evenodd" d="M7.69 6.771a.4.4 0 0 0-.041-.16c-.193-.36-.13-.809-.13-.809s-.23.526-.365 1.022a1.7 1.7 0 0 1-.192-.462s-.092 1.453.189 1.797c.28.345.468.496.468.496s.021-.603-.06-1.075a3.5 3.5 0 0 0 .128-.599c.036-.027.134-.1.255-.199-.051.283-.054.436-.054.436s1.058-.768 1.085-1.175c.027-.406.318-.754.318-.754s-.24.164-.515.385a1.6 1.6 0 0 1 .297-.61s-1.201.822-1.3 1.255q-.063.284-.082.452m.052 2.498c-.115-.217-.616-1.13-.966-1.209-.398-.09-.696-.432-.696-.432s.624 1.316 1.037 1.48c.331.133.55.186.622.202-.012.177-.014.3-.014.3s.195-.141.493-.47c.299-.33.283-1.786.283-1.786s-.118.438-.436.693c-.213.172-.293.816-.323 1.222m-.938-.137c.454-.003 1.152 1.11 1.152 1.11s-.27.015-.743-.06-1.21-1.343-1.21-1.343.347.295.8.293m2.213 2.592s.269-1.418-.135-1.75c-.405-.33-.476-.824-.476-.824s-.36 1.573 0 1.98c.359.408.61.594.61.594m-1.633-.383c.265.313 1.106 0 1.106 0l-.482-.441c-.667-.61-2.025-.225-1.66-.225.366 0 .772.353 1.036.666m.624 1.666c.49.414 1.548-.572 1.548-.572s-.272-.33-.777-.573-2.367 0-2.367 0l.828.369s-.922.36-.677.34.956.02 1.445.436" clip-rule="evenodd"/><path fill="#093" fill-rule="evenodd" d="M14.41 12.147s-.42-.707 0-1.049c.421-.342.588-.115.588-.508s.043-.275.25-.47c.206-.196.06-.67.337-.433s.329-.217.329.727V9.028c0-.53-.33-.405-.33-.76 0-.356-.328-.887 0-.887.33 0 .523.395.523.395s.323.55.323 0-.575-.387-.845-.994c-.27-.608-.228.068-.587-.715-.36-.783-.788-1.032-.394-1.032h.643c.338 0 .86-.28.86 0v.592c0 .44.323.44.323.44s.175-.88.396-.44c.22.44.07 1.155.232 1.155.161 0 .028-.74.38-.173.353.565 0 .949 0 1.167s-.38.753-.38.753.074.262.38 0c.306-.261.597-.523.597-.261 0 .261.596.342 0 .76-.597.417-.216.835-.597.835-.38 0-.828.55-1.008.55s-.853.423-.516.423.68-.844.912-.422.229-.069.42.177c.192.245.384 1.575.192 1.041-.191-.534-.492-.534-1.008-.534s-1.52.038-1.183.286c.338.248.717-.248.86 0s.101.496.323.248c.221-.248.44 0 .628 0 .189 0-.189.277 0 .515s.61.555.189.555c-.42 0-.637-.336-.817 0-.18.337-.188.92-.516.46-.33-.46-.916-.226-.916-.46 0-.233.128-.27-.23-.27s-.358-.285-.358-.285" clip-rule="evenodd"/><path fill="#C51918" fill-rule="evenodd" d="M16.137 7.087a.185.185 0 0 1-.181.188.185.185 0 0 1-.182-.188c0-.103.082-.187.182-.187s.181.084.181.187M7.754 7.5c.1 0 .182-.084.182-.188a.185.185 0 0 0-.182-.187c-.1 0-.181.084-.181.187 0 .104.081.188.181.188m.182.787a.185.185 0 0 1-.182.188.185.185 0 0 1-.181-.188c0-.103.081-.187.181-.187s.182.084.182.187m.109 1.913c.1 0 .181-.084.181-.187a.185.185 0 0 0-.181-.188c-.1 0-.182.084-.182.188 0 .103.081.187.182.187m1.451 1.875c.1 0 .182-.084.182-.187a.185.185 0 0 0-.182-.188c-.1 0-.181.084-.181.188 0 .103.08.187.181.187m6.968-2.85c.1 0 .181-.084.181-.188a.185.185 0 0 0-.181-.187c-.1 0-.182.084-.182.187 0 .104.082.188.182.188m-.4 1.313a.185.185 0 0 1-.18.187.185.185 0 0 1-.182-.187c0-.104.081-.188.181-.188s.182.084.182.188m-1.705 1.837c.1 0 .181-.084.181-.187A.185.185 0 0 0 14.36 12c-.1 0-.181.084-.181.188 0 .103.08.187.181.187m-4.609.037a.185.185 0 0 1-.181.188.185.185 0 0 1-.182-.187c0-.104.082-.188.182-.188s.181.084.181.188" clip-rule="evenodd"/><path fill="#FECA00" fill-rule="evenodd" d="M13.528 14.865c0-.154-2.325-1.756-2.95-2.11-.623-.353-3.671-2.299-2.841-5.255H7.61s-.561 3.643 3.309 5.907c1.762 1.182 1.85 1.458 1.85 1.458s.758.153.758 0" clip-rule="evenodd"/><path fill="#FECA00" fill-rule="evenodd" d="M10.443 14.865c0-.154 2.326-1.756 2.95-2.11s3.672-2.299 2.842-5.255h.125s.562 3.643-3.308 5.907c-1.762 1.182-1.85 1.458-1.85 1.458s-.759.153-.759 0" clip-rule="evenodd"/><path fill="#56C6F5" fill-rule="evenodd" d="M12.036 12.664c1.624 0 2.94-2.101 2.94-4.152 0-2.05-1.316-3.112-2.94-3.112s-2.94 1.062-2.94 3.112 1.317 4.152 2.94 4.152" clip-rule="evenodd"/><path fill="#fff" fill-rule="evenodd" d="M10.735 7.154s.452-.4.226-.4q-.067-.002-.155-.017c-.24-.038-.551-.088-.551.417v.871h-.067a.075.075 0 0 0 0 .15h.058l-.045.845-.059.006a.107.107 0 0 0-.098.116l.001.01c.005.06.058.103.117.098l.027-.003c-.02.386-.037.723-.037.764 0 .102.689.062.689.062s-.022-.406-.045-.879l.02-.001a.11.11 0 0 0 .097-.117l-.001-.01a.11.11 0 0 0-.117-.098l-.01.001c-.014-.283-.028-.57-.037-.794h.088a.075.075 0 0 0 0-.15h-.095l-.006-.238z" clip-rule="evenodd"/><path fill="#000" fill-rule="evenodd" d="M10.403 8.25h.242v.323h-.242zm-.073 1.125h.404v.75h-.403z" clip-rule="evenodd"/><path fill="#fff" fill-rule="evenodd" d="M12.26 7.154s.452-.4.226-.4q-.069-.002-.155-.017c-.24-.038-.552-.088-.552.417v.871h-.067a.075.075 0 0 0 0 .15h.059l-.045.845-.06.006a.11.11 0 0 0-.097.116v.01c.006.06.058.103.117.098l.028-.003c-.02.386-.037.723-.037.764 0 .102.688.062.688.062l-.045-.879.02-.001a.11.11 0 0 0 .097-.117v-.01a.107.107 0 0 0-.117-.098l-.011.001-.037-.794h.088a.075.075 0 0 0 0-.15h-.094l-.007-.238z" clip-rule="evenodd"/><path fill="#000" fill-rule="evenodd" d="M11.927 8.25h.242v.323h-.242zm-.072 1.125h.403v.75h-.403z" clip-rule="evenodd"/><path fill="#fff" fill-rule="evenodd" d="M13.71 7.154s.454-.4.227-.4q-.067-.002-.155-.017c-.24-.038-.551-.088-.551.417v.871h-.067a.075.075 0 1 0 0 .15h.058l-.045.845-.059.006a.11.11 0 0 0-.098.116l.001.01c.005.06.058.103.117.098l.027-.003c-.02.386-.037.723-.037.764 0 .102.689.062.689.062s-.022-.406-.045-.879l.02-.001a.11.11 0 0 0 .097-.117v-.01a.11.11 0 0 0-.117-.098l-.011.001c-.014-.283-.028-.57-.037-.794h.088a.075.075 0 0 0 0-.15h-.094l-.007-.238z" clip-rule="evenodd"/><path fill="#000" fill-rule="evenodd" d="M13.379 8.25h.242v.323h-.242zm-.072 1.125h.403v.75h-.403z" clip-rule="evenodd"/><path fill="#E8AA00" fill-rule="evenodd" d="M13.887 4.8H10.04v.574l-.026.003S8.13 6.84 8.653 9.035s2.6 3.82 2.6 3.82l.105-.378s-1.98-2.692-1.98-3.767c0-1.076.374-2.086.77-2.242.237-.095.278-.076.343-.045.043.02.097.045.225.045.32 0 .642-.23.642-.23s.224.23.431.23c.208 0 .21-.23.21-.23v-.763h.024v.763s.003.23.21.23c.208 0 .432-.23.432-.23s.321.23.642.23a.46.46 0 0 0 .225-.045c.064-.03.105-.05.343.045.396.156.77 1.166.77 2.242 0 1.075-1.98 3.767-1.98 3.767l.104.379s2.078-1.627 2.601-3.821-1.362-3.658-1.362-3.658l-.121-.011z" clip-rule="evenodd"/><path fill="#FFD018" d="M10.04 4.8v-.5h-.5v.5zm3.847 0h.5v-.5h-.5zm-3.847.574.045.498.455-.04v-.458zm-.026.003-.044-.498-.146.013-.116.09zM8.653 9.035l.486-.116zm2.6 3.82-.308.394.59.463.2-.723zm.105-.378.482.133.065-.233-.144-.196zm-1.21-6.01-.185-.464zm.343-.044.212-.454zm.867-.185.359-.349-.3-.308-.35.25zm.642 0 .5.006v-.006zm0-.763v-.5h-.5v.5zm.023 0h.5v-.5h-.5zm0 .763h-.5v.006zm.642 0 .29-.407-.35-.25-.299.308zm.867.185.211.453zm.343.045.185-.465zm-1.21 6.01-.403-.297-.144.196.065.233zm.104.378-.482.133.2.723.59-.463zm2.601-3.821-.486-.116zm-1.362-3.658.307-.395-.116-.09-.146-.013zm-.121-.011h-.5v.457l.455.04zM10.04 5.3h3.847v-1H10.04zm.5.074V4.8h-1v.574zm-.481.5.026-.002-.09-.996-.025.003zm-.92 3.045c-.22-.925.061-1.701.42-2.268a4 4 0 0 1 .752-.872l.01-.008h.002-.001l-.308-.394-.307-.395-.003.003-.029.023-.07.06q-.092.078-.234.221c-.187.19-.43.47-.656.826-.452.714-.851 1.767-.549 3.036zm2.114 3.937.309-.394-.003-.002-.014-.011-.06-.05a9 9 0 0 1-.957-.957c-.56-.652-1.154-1.536-1.389-2.523l-.973.232c.288 1.207.995 2.233 1.604 2.943a10 10 0 0 0 1.07 1.07l.102.083.002.002zm-.377-.512-.104.379.963.266.105-.379zM8.878 8.71c0 .386.168.842.356 1.251.197.43.456.885.708 1.297a24 24 0 0 0 1.007 1.507l.005.006v.002h.001l.403-.296.403-.296-.001-.001q0-.002-.004-.005l-.015-.022-.061-.084a23 23 0 0 1-.885-1.334 12 12 0 0 1-.653-1.192c-.183-.398-.264-.682-.264-.833zm1.085-2.707c-.234.093-.401.28-.516.449-.122.18-.223.395-.304.626a5 5 0 0 0-.265 1.632h1c0-.485.085-.95.208-1.3.062-.176.128-.308.188-.396.067-.098.094-.096.058-.082zm.74-.034c-.05-.022-.172-.082-.352-.07a1.3 1.3 0 0 0-.388.104l.369.93q.074-.03.098-.036c.018-.005.01-.001-.012 0a.3.3 0 0 1-.107-.011l-.035-.012.004.002zm.013-.001-.028-.002q-.003 0 .005.002l.017.005h.002q-.001.001-.01-.004l-.422.907c.025.011.085.04.17.061q.121.03.266.03zm.642.27-.29-.407V5.83h.001l-.003.002a1 1 0 0 1-.124.07.6.6 0 0 1-.226.066v1c.268 0 .508-.093.657-.164a2 2 0 0 0 .248-.14l.018-.013.006-.004.002-.001.001-.001zm.431-.27c.038 0 .054.009.043.004a.6.6 0 0 1-.117-.085h-.001l.002.001-.358.35-.358.348.001.002.002.001.005.005.013.013a1.5 1.5 0 0 0 .187.155c.1.07.316.206.581.206zm.21.27-.5-.007v-.006l.001-.006.003-.026a.2.2 0 0 1 .016-.05.3.3 0 0 1 .095-.115.3.3 0 0 1 .175-.06v1c.15 0 .295-.044.416-.133a.7.7 0 0 0 .22-.272.8.8 0 0 0 .074-.301v-.017zm-.5-.763v.763h1v-.763zm.524-.5H12v1h.023zm-.5.5v.763h1v-.763zm.5.763-.5.006v.008l.002.034a.8.8 0 0 0 .072.277.7.7 0 0 0 .22.272.7.7 0 0 0 .416.133v-1c.047 0 .113.015.175.06a.3.3 0 0 1 .096.114.2.2 0 0 1 .019.083v.005zm.21.73c.266 0 .481-.136.581-.206a2 2 0 0 0 .188-.155l.013-.013.005-.005.002-.001v-.001h.001l-.358-.35-.359-.348.001-.001h.001v-.002.002a.5.5 0 0 1-.117.084c-.011.005.005-.004.042-.004zm.432-.73-.291.406.001.002.003.001.006.004a1 1 0 0 0 .075.049c.046.028.112.066.191.104.149.07.389.164.657.164v-1a.6.6 0 0 1-.226-.067 1 1 0 0 1-.128-.072l.001.001h.001zm.642.73q.144 0 .266-.03a1 1 0 0 0 .17-.062l-.423-.907-.01.005.003-.001.016-.005.006-.002-.028.002zm.436-.092.004-.002a.3.3 0 0 1-.093.022l-.049.001c-.023-.001-.03-.005-.013 0q.024.006.099.035l.369-.93a1.3 1.3 0 0 0-.388-.103c-.18-.012-.303.048-.352.07zm-.052.056c-.036-.014-.009-.016.058.082.06.088.126.22.187.396.123.35.208.815.208 1.3h1c0-.591-.102-1.169-.264-1.632a2.7 2.7 0 0 0-.304-.626c-.115-.17-.282-.356-.516-.45zm.453 1.778c0 .151-.08.435-.263.833-.174.379-.41.797-.653 1.193a23 23 0 0 1-.946 1.417l-.015.021-.004.006h-.001v.001l.403.296c.402.297.402.296.403.296l.001-.002.005-.007.018-.024q.023-.03.064-.09a24 24 0 0 0 .925-1.392c.252-.412.511-.868.708-1.297.188-.409.355-.865.355-1.251zm-1.961 3.9.104.38.964-.268-.104-.378zm.586.246.309.393.003-.002.006-.005.02-.017a6 6 0 0 0 .334-.29c.214-.197.504-.483.812-.841.609-.71 1.316-1.736 1.603-2.943l-.972-.232c-.236.987-.83 1.87-1.39 2.523a9 9 0 0 1-.957.957l-.06.05-.013.011-.003.002zm3.087-3.705c.303-1.269-.096-2.322-.548-3.036a5 5 0 0 0-.89-1.047l-.092-.078-.007-.005-.002-.002h-.001v-.001l-.308.395-.307.394.01.008.047.04q.066.057.18.171c.15.153.345.377.525.66.36.568.641 1.344.42 2.269zm-1.803-4.272-.122-.011-.089.996.122.01zm-.666-.079v.566h1V4.8z"/><path fill="#8FC753" fill-rule="evenodd" d="M9.828 10.339s.236-.634.648-.423.376.946.752.684c.375-.261.162-.684.718-.684s.474.684.808.684c.333 0 .362-.684.735-.684s.751.423.751.423l-2.206 3.002z" clip-rule="evenodd"/><path fill="#fff" fill-rule="evenodd" d="m5.947 13.843-.238-.32s.984 0 1.118.232a.7.7 0 0 1 .066.153c.032.096.039.116.306.116.371 0 0-.37-.155-.5-.155-.132-.06-.361.155-.361.083 0 .227-.02.405-.043.283-.037.65-.086.986-.086.548 0 .094.49.094.49s.709 0 .533-.204.59-.451.922-.451c.31 0 1.7.07 1.887.079.196-.01 1.65-.08 1.958-.08.331 0 1.098.248.922.452-.176.203.533.203.533.203s-.454-.489.094-.489c.337 0 .704.049.987.086.177.024.322.043.405.043.215 0 .31.229.154.36-.154.132-.526.5-.154.5.267 0 .273-.019.305-.115a.7.7 0 0 1 .067-.153c.128-.224 1.048-.231 1.113-.232a.2.2 0 0 1-.023-.092c0-.103.081-.187.181-.187s.182.084.182.187a.185.185 0 0 1-.181.188.18.18 0 0 1-.157-.093l-.235.317.245.303a.18.18 0 0 1 .146-.077c.1 0 .182.084.182.187a.185.185 0 0 1-.181.188.184.184 0 0 1-.182-.188q0-.032.01-.06c-.139-.068-.378-.172-.534-.172h-.433c.109 0 .709.395.527.567l-.03.029c-.179.17-.411.39-.63.27a1.4 1.4 0 0 1-.372-.3l-.182-.566s-1.072-.277-1.072-.086-.003.286-.383.286a3.5 3.5 0 0 1-.6-.068 2.4 2.4 0 0 0-.373-.048 3.3 3.3 0 0 0-.546.08c-.1.02-.179.036-.209.036-.081 0-.515-.02-.218-.2s.366-.37.366-.37-1.19.178-1.661.188v.001h-.042c-.468-.011-1.59-.188-1.59-.188s.069.188.366.369c.297.18-.137.2-.218.2-.03 0-.109-.016-.208-.036a3.3 3.3 0 0 0-.547-.08c-.104 0-.23.023-.373.048a3.5 3.5 0 0 1-.6.068c-.38 0-.383-.094-.383-.286s-1.072.086-1.072.086l-.181.567s-.14.171-.372.299c-.22.12-.452-.1-.63-.27l-.03-.03c-.182-.17.418-.566.526-.566H6.26c-.23 0-.643.227-.643.227zm-.516-.224c.1 0 .182-.084.182-.188a.185.185 0 0 0-.182-.187c-.1 0-.181.084-.181.187 0 .104.081.188.181.188m0 .825c.1 0 .182-.084.182-.188a.185.185 0 0 0-.182-.187c-.1 0-.181.084-.181.187 0 .104.081.188.181.188" clip-rule="evenodd"/><path fill="#FFD018" fill-rule="evenodd" d="M11.92 1.522h.15v.16h.185v.15h-.184v.274c.207.035.364.22.364.444 0 .249-.195.45-.435.45a.443.443 0 0 1-.435-.45c0-.22.153-.404.356-.443v-.274h-.17v-.15h.17z" clip-rule="evenodd"/><path fill="#E31D1C" fill-rule="evenodd" d="M10.31 3.92c-.21 0-.653.224-.653.224l.345.763 2.076-.078 2.077.078.344-.763s-.443-.225-.653-.225c-.092 0-.104-.054-.117-.115-.017-.077-.036-.166-.228-.166-.136 0-.232.023-.31.04-.118.029-.194.046-.303-.04l-.014-.01c-.177-.14-.361-.286-.66-.286-.059 0-.103.056-.136.146-.033-.09-.077-.146-.137-.146-.298 0-.482.145-.659.285l-.014.011c-.11.086-.185.069-.303.04-.078-.017-.174-.04-.31-.04-.192 0-.211.089-.228.166-.013.061-.025.115-.117.115" clip-rule="evenodd"/><path fill="#FFD018" fill-rule="evenodd" d="m11.706 2.676-.146.05q-.578.202-1 .135c-.58-.09-1.337.213-1.242.655.041.193.163.56.289.87.175.43.297.646.44.646.02 0 .214.011.279.015h.02c.211.011.397.017.575.016.517-.002.838-.053.952-.208l.034-.046-.016-.055q-.204-.7-.187-1.919zm-2.176.79c-.046-.216.546-.452.998-.382q.422.064.957-.097-.003 1.083.177 1.76c-.103.055-.375.09-.741.091-.175.001-.357-.005-.564-.015l-.287-.015-.009-.01a1 1 0 0 1-.071-.107 4 4 0 0 1-.183-.393 6 6 0 0 1-.277-.831m2.81-.791.147.05q.577.202 1 .135c.58-.09 1.337.213 1.242.655-.041.193-.163.56-.289.87-.175.43-.297.646-.44.646-.02 0-.214.011-.279.015h-.02a10 10 0 0 1-.576.016c-.517-.002-.837-.053-.951-.208l-.034-.046.016-.055q.204-.7.187-1.919zm2.177.79c.046-.216-.546-.452-.998-.382q-.421.064-.957-.097.003 1.083-.178 1.76c.104.055.375.09.742.091.175.001.357-.005.564-.015l.287-.015.009-.01a1 1 0 0 0 .07-.107c.055-.096.118-.232.183-.393.122-.299.24-.653.278-.831" clip-rule="evenodd"/><path fill="#5E5E5E" fill-rule="evenodd" d="M9.628 4.853c0-.041-.024-.117-.077-.256-.072-.192-.121-.25-.226-.315-.053-.032-.074-.06-.1-.157a1.4 1.4 0 0 0-.087-.25l-.023-.05a.3.3 0 0 1-.023-.136c0-.067.018-.121.064-.219.028-.058.031-.066.04-.09q.03-.073.031-.137v-.29c0-.168.007-.178.09-.167l.024.004.05.009q.029.003.053-.007c.03-.013.051-.04.103-.117.025-.037.051-.034.145.012l.03.014c.097.045.163.046.22-.024.087-.106.145-.1.25.004.053.05.08.07.113.075h.003c.035.005.037.005.137-.055q.009.02.045.025c.032.007.08.01.11.005.027-.004.046-.013.058-.038q.063-.002.15-.002v-.075q-.111 0-.185.003l-.014-.012c-.027-.024-.07-.061-.09-.056l-.02.018-.067.052c-.098.06-.102.062-.117.06-.013-.002-.031-.015-.072-.055-.133-.13-.238-.142-.356.003-.03.037-.065.036-.135.004l-.029-.014c-.125-.06-.181-.068-.235.013a.4.4 0 0 1-.073.092l-.003.001c-.003.001-.006 0-.039-.005l-.02-.004-.027-.004c-.137-.019-.172.034-.172.242v.289a.3.3 0 0 1-.024.108l-.04.086a.54.54 0 0 0-.07.252.4.4 0 0 0 .028.164l.025.057.023.05c.021.053.04.11.06.184.03.116.062.16.132.203.091.055.13.1.196.277a2 2 0 0 1 .07.217c-.01.008-.009.014-.005.03l.005.012.01.01.006.004-.004-.002.018.022c.071.093.16.093.246.003l-.052-.053c-.056.06-.094.06-.137.004zm4.708 0c0-.041.024-.117.077-.256.072-.192.121-.25.226-.315.053-.032.074-.06.1-.157.02-.078.04-.138.063-.194l.024-.056.023-.05a.3.3 0 0 0 .023-.136.5.5 0 0 0-.064-.219l-.04-.09a.4.4 0 0 1-.031-.137v-.29c0-.168-.007-.178-.09-.167l-.024.004-.05.009a.1.1 0 0 1-.053-.007c-.03-.013-.051-.04-.103-.117-.025-.037-.051-.034-.146.012l-.03.014c-.096.045-.162.046-.22-.024-.087-.106-.144-.1-.25.004-.052.05-.079.07-.112.075h-.003c-.035.005-.037.005-.137-.055q-.009.02-.045.025a.3.3 0 0 1-.11.005c-.027-.004-.046-.013-.058-.038l-.15-.002v-.075q.11 0 .185.003l.014-.012c.027-.024.07-.061.09-.056l.02.018c.018.015.041.036.064.05l.003.002c.098.06.102.062.117.06.013-.002.031-.015.072-.055.133-.13.238-.142.356.003.03.037.065.036.135.004l.029-.014c.125-.06.18-.068.235.013a.4.4 0 0 0 .073.092l.003.001c.003.001.006 0 .039-.005l.02-.004.027-.004c.137-.019.172.034.172.242v.289q0 .048.024.108l.04.086c.05.108.07.17.07.252a.4.4 0 0 1-.028.164l-.025.057-.023.05c-.021.053-.04.11-.06.184-.03.116-.062.16-.132.203-.091.055-.13.1-.196.277a2 2 0 0 0-.07.217c.01.008.009.014.005.03l-.004.01-.002.002-.004.005-.002.002-.003.003-.006.004.004-.002-.018.022c-.071.093-.16.093-.246.003l.052-.053c.056.06.094.06.137.004z" clip-rule="evenodd"/><path fill="#272727" d="m10.33 13.414.046-.372q1.209.148 1.615.148.615.028 1.462-.09l.05.372a8.5 8.5 0 0 1-1.52.093q-.422 0-1.652-.151"/></g></g></g><rect width="23" height="17" x=".5" y=".5" stroke="#000" stroke-opacity=".1" rx="1.5"/><defs><clipPath id="a"><rect width="24" height="18" fill="#fff" rx="2"/></clipPath></defs></svg>