<svg xmlns="http://www.w3.org/2000/svg" fill="none" viewBox="0 0 24 18"><g clip-path="url(#a)"><mask id="b" width="24" height="18" x="0" y="0" maskUnits="userSpaceOnUse" style="mask-type:luminance"><path fill="#fff" d="M0 0h24v18H0z"/></mask><g mask="url(#b)"><path fill="#4C67E8" fill-rule="evenodd" d="M7.5 0h9v18h-9z" clip-rule="evenodd"/><path fill="#C51918" fill-rule="evenodd" d="M16.5 0H24v18h-7.5zM0 0h9v18H0z" clip-rule="evenodd"/><path fill="#F8D000" fill-rule="evenodd" d="M4.51 5.163c-.76 0-.66-.74-.66-.74l.36-.779v.779c0 .1.137-.1.137-.341s.163-.602.163-.602.007-.12.011-.24a.7.7 0 0 0 .159.195l.044.045c.094.096.08.35.07.571-.01.2-.018.372.055.372.154 0 .143-.69.143-.69l.258.69s.02.74-.74.74m0-2.115c.02-.113.017.038.011.192a.33.33 0 0 1-.01-.192m1.144 3.465c0 .602-.504 1.09-1.125 1.09s-1.125-.488-1.125-1.09.504-1.09 1.125-1.09 1.125.488 1.125 1.09m-2.827 2.04H1.5v6.429h1.327zm4.673 0H6.173v6.429H7.5zm-4.327.056 1.294.801 1.458-.8zM4.467 15l-1.294-.8h2.752zM3.173 9.671h2.712v.503H3.173zm2.712 3.746H3.173v.503h2.712zm-1.327-.28c.764 0 1.384-.6 1.384-1.342 0-.74-.62-1.341-1.384-1.341-.765 0-1.385.6-1.385 1.341s.62 1.342 1.385 1.342M3.002 6.912s.047 1.4 1.427 1.4 1.604-1.4 1.604-1.4-.535.858-1.516.858c-.98 0-1.515-.858-1.515-.858" clip-rule="evenodd"/><path fill="#C51918" d="m4.769 10.48.062-.276c.309.338.45.528.383.838-.074.346-.463.732-.914 1.05-.273.192-.441.711-.305.876l-.13.236c-.302-.368-.06-1.063.357-1.356.383-.27.65-.553.697-.775.03-.145.087-.334-.15-.594"/><path fill="#C51918" fill-rule="evenodd" d="M4.875 12.75a.375.375 0 1 0 0-.75.375.375 0 0 0 0 .75m-.843-1.012a.375.375 0 1 0 0-.75.375.375 0 0 0 0 .75" clip-rule="evenodd"/></g></g><rect width="23" height="17" x=".5" y=".5" stroke="#000" stroke-opacity=".1" rx="1.5"/><defs><clipPath id="a"><rect width="24" height="18" fill="#fff" rx="2"/></clipPath></defs></svg>