<svg xmlns="http://www.w3.org/2000/svg" fill="none" viewBox="0 0 24 18"><g clip-path="url(#a)"><mask id="b" width="24" height="18" x="0" y="0" maskUnits="userSpaceOnUse" style="mask-type:luminance"><path fill="#fff" d="M0 0h24v18H0z"/></mask><g mask="url(#b)"><path fill="#E31D1C" fill-rule="evenodd" d="M0 0v18h24V0H0Z" clip-rule="evenodd"/><mask id="c" width="24" height="18" x="0" y="0" maskUnits="userSpaceOnUse" style="mask-type:luminance"><path fill="#fff" fill-rule="evenodd" d="M0 0v18h24V0H0Z" clip-rule="evenodd"/></mask><g mask="url(#c)"><path fill="#F7FCFF" fill-rule="evenodd" d="M12.02 12.085c-1.607-.395-2.865-1.74-2.85-3.71.013-1.845 1.13-3.404 2.896-3.826 1.765-.422 3.32.474 3.32.474-.488-1.152-2.183-1.961-3.573-1.959-2.587.005-5.345 2.102-5.369 5.31-.024 3.327 2.953 5.221 5.572 5.217 2.1-.003 3.095-1.44 3.302-2.05 0 0-1.693.94-3.299.544Zm3.658-4.34-1.6.588 1.805.637-.031 1.903 1.19-1.428 1.965.143-1.558-1.339 1.023-1.428-1.665.56-1.19-1.322.06 1.686Z" clip-rule="evenodd"/></g></g></g><path stroke="#000" stroke-opacity=".1" stroke-width=".5" d="M.25.25h23.5v17.5H.25z"/><defs><clipPath id="a"><path fill="#fff" d="M0 0h24v18H0z"/></clipPath></defs></svg>