<svg xmlns="http://www.w3.org/2000/svg" fill="none" viewBox="0 0 24 18"><g clip-path="url(#a)"><mask id="b" width="24" height="18" x="0" y="0" maskUnits="userSpaceOnUse" style="mask-type:luminance"><path fill="#fff" d="M0 0h24v18H0z"/></mask><g mask="url(#b)"><path fill="#F7FCFF" fill-rule="evenodd" d="M0 0v18h24V0H0Z" clip-rule="evenodd"/><mask id="c" width="24" height="18" x="0" y="0" maskUnits="userSpaceOnUse" style="mask-type:luminance"><path fill="#fff" fill-rule="evenodd" d="M0 0v18h24V0H0Z" clip-rule="evenodd"/></mask><g mask="url(#c)"><path fill="#BF2714" fill-rule="evenodd" d="M0 0v4.5h24V0H0Zm0 13.5V18h24v-4.5H0Z" clip-rule="evenodd"/><mask id="d" width="10" height="10" x="7" y="4" maskUnits="userSpaceOnUse" style="mask-type:luminance"><path fill="#fff" fill-rule="evenodd" d="M12 13.5a4.5 4.5 0 1 0 0-9 4.5 4.5 0 0 0 0 9Z" clip-rule="evenodd"/></mask><g mask="url(#d)"><path fill="#5277B9" fill-rule="evenodd" d="M7.95 10.445a.197.197 0 0 1 .286-.23l.148.086a.197.197 0 0 0 .182.008l.643-.301a.197.197 0 0 1 .198.019l.724.522 1.012-.545a.197.197 0 0 1 .172-.007l.735.32a.197.197 0 0 0 .164-.004l.658-.316a.197.197 0 0 1 .159-.006l.823.329c.052.02.11.018.16-.007l.627-.31a.197.197 0 0 1 .178.002l.568.298c.06.03.13.03.188-.003l.194-.11a.197.197 0 0 1 .287.221l-.037.138H7.984l-.033-.104Zm-.003.891a.197.197 0 0 1 .289-.227l.122.074a.196.196 0 0 0 .187.008l.607-.295a.197.197 0 0 1 .204.02l.693.518.971-.541a.196.196 0 0 1 .177-.008l.698.314a.197.197 0 0 0 .169-.003l.624-.312a.196.196 0 0 1 .164-.005l.783.324c.053.022.114.02.165-.007l.594-.304a.197.197 0 0 1 .184.002l.536.29c.06.034.133.032.193-.003l.167-.097a.197.197 0 0 1 .29.218l-.034.132H7.977l-.03-.098Zm.147.59a.197.197 0 0 1 .29-.226l.121.073a.196.196 0 0 0 .188.008l.607-.294a.197.197 0 0 1 .203.02l.693.518.972-.543a.197.197 0 0 1 .176-.007l.699.315a.197.197 0 0 0 .168-.004l.625-.312a.196.196 0 0 1 .163-.005l.784.324c.053.022.113.02.165-.007l.593-.304a.197.197 0 0 1 .184.002l.536.29c.06.034.134.032.194-.002l.166-.098a.196.196 0 0 1 .29.218l-.034.133H8.124l-.03-.099Zm.886.59a.197.197 0 0 1 .289-.226l.122.073a.197.197 0 0 0 .187.008l.607-.294a.196.196 0 0 1 .204.02l.693.518.97-.542a.196.196 0 0 1 .177-.008l.699.315a.197.197 0 0 0 .168-.004l.625-.311a.197.197 0 0 1 .163-.006l.784.324c.053.022.113.02.165-.006l.594-.305a.197.197 0 0 1 .183.002l.536.291c.06.033.134.032.194-.003l.166-.098a.197.197 0 0 1 .29.219l-.033.132H9.01l-.03-.099Zm-1.181.738a.197.197 0 0 1 .29-.227l.121.074a.197.197 0 0 0 .188.008l.607-.294a.197.197 0 0 1 .203.019l.693.518.971-.542a.197.197 0 0 1 .177-.007l.699.314a.196.196 0 0 0 .168-.003l.625-.312a.197.197 0 0 1 .163-.005l.783.324c.054.022.114.02.165-.007l.594-.304a.197.197 0 0 1 .184.002l.536.29c.06.034.134.032.194-.003l.166-.098a.197.197 0 0 1 .29.219l-.034.132H7.83l-.03-.098Z" clip-rule="evenodd"/><path fill="red" d="M10.817 10.603v.75c-.633 0-1.081-.389-1.3-1.079l-.017-.113V7.084h.75v3.017c.125.36.301.502.567.502Zm2.077 0v.75c.633 0 1.081-.389 1.299-1.079l.017-.113V7.084h-.75v3.017c-.125.36-.3.502-.566.502Z"/><path fill="red" fill-rule="evenodd" d="M12.543 5.181s-1.244-.325-1.244.5v2.597l1.45.43V6.586s-.724-.443-.724-.79c0-.346.518-.615.518-.615Z" clip-rule="evenodd"/><path fill="#FA8F21" fill-rule="evenodd" d="m10.09 5.321.898 1.754.111-1.754-.11-.345-.898.345Zm-.449 1.497-.647-.686.647-.77 1.36 2.172v.553l-.654-.553v-.716H9.64Zm-1.424.528 1.18.565.092-.873-.982-.84-.29 1.148Zm1.24 1.448-1.552-.159V7.541l1.551.597v.656ZM7.862 9.87l-.184-.93 1.749.087v.843H7.863Zm2.462-1.529v-.525l.655.525-.072.277-.583-.277Zm6.085.599-.184.93H14.66v-.843l1.75-.087Zm-1.777-.145 1.551-.159V7.541l-1.551.597v.656Zm1.239-1.448-1.18.565-.092-.873.982-.84.29 1.148Zm-1.424-.528.647-.686-.647-.77-1.36 2.172v.553l.654-.553v-.716h.706Zm-.45-1.497L13.1 7.076l-.11-1.754.11-.345.897.345Zm-.234 3.02v-.526l-.654.525.07.277.584-.277Z" clip-rule="evenodd"/></g></g></g></g><path stroke="#000" stroke-opacity=".1" stroke-width=".5" d="M.25.25h23.5v17.5H.25z"/><defs><clipPath id="a"><path fill="#fff" d="M0 0h24v18H0z"/></clipPath></defs></svg>