<svg xmlns="http://www.w3.org/2000/svg" fill="none" viewBox="0 0 24 18"><g clip-path="url(#a)"><mask id="b" width="24" height="18" x="0" y="0" maskUnits="userSpaceOnUse" style="mask-type:luminance"><path fill="#fff" d="M0 0h24v18H0z"/></mask><g mask="url(#b)"><path fill="#F7FCFF" fill-rule="evenodd" d="M0 0v18h24V0H0Z" clip-rule="evenodd"/><mask id="c" width="24" height="18" x="0" y="0" maskUnits="userSpaceOnUse" style="mask-type:luminance"><path fill="#fff" fill-rule="evenodd" d="M0 0v18h24V0H0Z" clip-rule="evenodd"/></mask><g mask="url(#c)"><path fill="#2E42A5" fill-rule="evenodd" d="M-1.13 2.469-.013 3.53c.921-.87 1.79-1.281 2.616-1.281.399 0 .569.096 1.029.531.73.69 1.221.969 2.145.969.923 0 1.414-.279 2.144-.969.46-.435.63-.531 1.03-.531.398 0 .568.096 1.028.531.73.69 1.221.969 2.145.969.923 0 1.414-.279 2.144-.969.46-.435.63-.531 1.03-.531.398 0 .568.096 1.029.531.73.69 1.22.969 2.144.969.923 0 1.415-.279 2.144-.969.46-.435.63-.531 1.03-.531.825 0 1.695.41 2.616 1.281l1.115-1.062C24.18 1.339 22.933.75 21.644.75c-.924 0-1.415.279-2.145.969-.46.435-.63.531-1.029.531-.4 0-.569-.096-1.03-.531-.73-.69-1.22-.969-2.144-.969-.923 0-1.414.279-2.144.969-.46.435-.63.531-1.03.531-.398 0-.568-.096-1.028-.531-.73-.69-1.222-.969-2.145-.969s-1.414.279-2.144.969c-.46.435-.63.531-1.03.531-.399 0-.568-.096-1.029-.531-.73-.69-1.22-.969-2.144-.969-1.29 0-2.537.59-3.731 1.719ZM-.013 6.53l-1.116-1.06C.065 4.339 1.312 3.75 2.6 3.75c.924 0 1.415.279 2.145.969.46.435.63.531 1.03.531.399 0 .568-.096 1.029-.531.73-.69 1.22-.969 2.144-.969.923 0 1.415.279 2.145.969.46.435.63.531 1.029.531.399 0 .569-.096 1.029-.531.73-.69 1.221-.969 2.144-.969.924 0 1.415.279 2.145.969.46.435.63.531 1.029.531.399 0 .569-.096 1.03-.531.729-.69 1.22-.969 2.144-.969 1.29 0 2.536.59 3.73 1.719L24.26 6.53c-.922-.87-1.79-1.281-2.616-1.281-.4 0-.57.096-1.03.531-.73.69-1.22.969-2.144.969-.923 0-1.415-.279-2.144-.969-.46-.435-.63-.531-1.03-.531-.399 0-.569.096-1.029.531-.73.69-1.221.969-2.144.969-.924 0-1.415-.279-2.145-.969-.46-.435-.63-.531-1.029-.531-.399 0-.569.096-1.029.531-.73.69-1.221.969-2.144.969-.924 0-1.415-.279-2.145-.969-.46-.435-.63-.531-1.03-.531-.825 0-1.694.41-2.615 1.281Zm0 3-1.116-1.06C.065 7.339 1.312 6.75 2.6 6.75c.924 0 1.415.279 2.145.969.46.435.63.531 1.03.531.399 0 .568-.096 1.029-.531.73-.69 1.22-.969 2.144-.969.923 0 1.415.279 2.145.969.46.435.63.531 1.029.531.399 0 .569-.096 1.029-.531.73-.69 1.221-.969 2.144-.969.924 0 1.415.279 2.145.969.46.435.63.531 1.029.531.399 0 .569-.096 1.03-.531.729-.69 1.22-.969 2.144-.969 1.29 0 2.536.59 3.73 1.719L24.26 9.53c-.922-.87-1.79-1.281-2.616-1.281-.4 0-.57.096-1.03.531-.73.69-1.22.969-2.144.969-.923 0-1.415-.279-2.144-.969-.46-.435-.63-.531-1.03-.531-.399 0-.569.096-1.029.531-.73.69-1.221.969-2.144.969-.924 0-1.415-.279-2.145-.969-.46-.435-.63-.531-1.029-.531-.399 0-.569.096-1.029.531-.73.69-1.221.969-2.144.969-.924 0-1.415-.279-2.145-.969-.46-.435-.63-.531-1.03-.531-.825 0-1.694.41-2.615 1.281Zm0 3-1.115-1.062C.065 10.339 1.312 9.75 2.6 9.75c.924 0 1.415.279 2.145.969.46.435.63.531 1.03.531.399 0 .568-.096 1.029-.531.73-.69 1.22-.969 2.144-.969.923 0 1.415.279 2.145.969.46.435.63.531 1.029.531.399 0 .569-.096 1.029-.531.73-.69 1.221-.969 2.144-.969.924 0 1.415.279 2.145.969.46.435.63.531 1.029.531.399 0 .569-.096 1.03-.531.729-.69 1.22-.969 2.144-.969 1.29 0 2.536.59 3.73 1.719L24.26 12.53c-.922-.87-1.79-1.281-2.616-1.281-.4 0-.57.096-1.03.531-.73.69-1.22.969-2.144.969-.923 0-1.415-.279-2.144-.969-.46-.435-.63-.531-1.03-.531-.399 0-.569.096-1.029.531-.73.69-1.221.969-2.144.969-.924 0-1.415-.279-2.145-.969-.46-.435-.63-.531-1.029-.531-.399 0-.569.096-1.029.531-.73.69-1.221.969-2.144.969-.924 0-1.415-.279-2.145-.969-.46-.435-.63-.531-1.03-.531-.825 0-1.694.41-2.615 1.281Zm0 3-1.115-1.062c1.194-1.13 2.441-1.719 3.73-1.719.924 0 1.415.279 2.145.969.46.435.63.531 1.03.531.399 0 .568-.096 1.029-.531.73-.69 1.22-.969 2.144-.969.923 0 1.415.279 2.145.969.46.435.63.531 1.029.531.399 0 .569-.096 1.029-.531.73-.69 1.221-.969 2.144-.969.924 0 1.415.279 2.145.969.46.435.63.531 1.029.531.399 0 .569-.096 1.03-.531.729-.69 1.22-.969 2.144-.969 1.29 0 2.536.59 3.73 1.719L24.26 15.53c-.922-.87-1.79-1.281-2.616-1.281-.4 0-.57.096-1.03.531-.73.69-1.22.969-2.144.969-.923 0-1.415-.279-2.144-.969-.46-.435-.63-.531-1.03-.531-.399 0-.569.096-1.029.531-.73.69-1.221.969-2.144.969-.924 0-1.415-.279-2.145-.969-.46-.435-.63-.531-1.029-.531-.399 0-.569.096-1.029.531-.73.69-1.221.969-2.144.969-.924 0-1.415-.279-2.145-.969-.46-.435-.63-.531-1.03-.531-.825 0-1.694.41-2.615 1.281Zm0 3-1.115-1.062c1.194-1.13 2.441-1.719 3.73-1.719.924 0 1.415.279 2.145.969.46.435.63.531 1.03.531.399 0 .568-.096 1.029-.531.73-.69 1.22-.969 2.144-.969.923 0 1.415.279 2.145.969.46.435.63.531 1.029.531.399 0 .569-.096 1.029-.531.73-.69 1.221-.969 2.144-.969.924 0 1.415.279 2.145.969.46.435.63.531 1.029.531.399 0 .569-.096 1.03-.531.729-.69 1.22-.969 2.144-.969 1.29 0 2.536.59 3.73 1.719L24.26 18.53c-.922-.87-1.79-1.281-2.616-1.281-.4 0-.57.096-1.03.531-.73.69-1.22.969-2.144.969-.923 0-1.415-.279-2.144-.969-.46-.435-.63-.531-1.03-.531-.399 0-.569.096-1.029.531-.73.69-1.221.969-2.144.969-.924 0-1.415-.279-2.145-.969-.46-.435-.63-.531-1.029-.531-.399 0-.569.096-1.029.531-.73.69-1.221.969-2.144.969-.924 0-1.415-.279-2.145-.969-.46-.435-.63-.531-1.03-.531-.825 0-1.694.41-2.615 1.281Z" clip-rule="evenodd"/><mask id="d" width="11" height="8" x="0" y="0" maskUnits="userSpaceOnUse" style="mask-type:luminance"><path fill="#fff" d="M0 0h10.5v7.5H0z"/></mask><g mask="url(#d)"><path fill="#2E42A5" d="M0 0h10.5v9H0z"/><path fill="#fff" d="m-1.618 8.5 2.742 1.158 11.17-8.566 1.446-1.72-2.933-.388-4.555 3.692-3.667 2.486L-1.618 8.5Z"/><path fill="#F50100" d="m-1.243 9.311 1.397.672L13.22-.788h-1.96l-12.502 10.1Z"/><path fill="#fff" d="m13.619 8.5-2.742 1.158-11.17-8.566-1.446-1.72 2.932-.388L5.75 2.676l3.667 2.486L13.619 8.5Z"/><path fill="#F50100" d="m13.525 9.082-1.397.672-5.564-4.612-1.65-.515-6.792-5.25H.083l6.79 5.125 1.803.618 4.849 3.962Z"/><mask id="e" width="13" height="10" x="-.988" y="-1" fill="#000" maskUnits="userSpaceOnUse"><path fill="#fff" d="M-.988-1h13V9h-13z"/><path fill-rule="evenodd" d="M6 0H4.5v3H.012v1.5H4.5v3H6v-3h4.512V3H6V0Z" clip-rule="evenodd"/></mask><path fill="#F50100" fill-rule="evenodd" d="M6 0H4.5v3H.012v1.5H4.5v3H6v-3h4.512V3H6V0Z" clip-rule="evenodd"/><path fill="#F7FCFF" d="M4.5 0v-1h-1v1h1ZM6 0h1v-1H6v1ZM4.5 3v1h1V3h-1ZM.012 3V2h-1v1h1Zm0 1.5h-1v1h1v-1Zm4.488 0h1v-1h-1v1Zm0 3h-1v1h1v-1Zm1.5 0v1h1v-1H6Zm0-3v-1H5v1h1Zm4.512 0v1h1v-1h-1Zm0-1.5h1V2h-1v1ZM6 3H5v1h1V3ZM4.5 1H6v-2H4.5v2Zm1 2V0h-2v3h2ZM.012 4H4.5V2H.012v2Zm1 .5V3h-2v1.5h2Zm3.488-1H.012v2H4.5v-2Zm1 4v-3h-2v3h2Zm.5-1H4.5v2H6v-2Zm-1-2v3h2v-3H5Zm5.512-1H6v2h4.512v-2Zm-1-.5v1.5h2V3h-2ZM6 4h4.512V2H6v2ZM5 0v3h2V0H5Z" mask="url(#e)"/></g><rect width=".75" height="9.466" x="15.3" y="7.034" fill="#D86D00" rx=".375"/><mask id="f" width="10" height="10" x="10.634" y="-.457" fill="#000" maskUnits="userSpaceOnUse"><path fill="#fff" d="M10.634-.457h10v10h-10z"/><path fill-rule="evenodd" d="M15.303 1.543c.62.851.875 1.857.898 2.88.7-.95 1.869-1.725 2.415-2.056-.502.35-.762.87-1.055 1.455-.144.287-.295.59-.487.895 1.194-.428 2.38-.539 2.38-.539-.796.226-1.53.687-2.243 1.135-.26.163-.517.325-.774.473 2.304.867 2.658 2.122 2.658 2.122-.282-.249-.892-.516-2.042-1.02-.22-.096-.461-.201-.723-.317.172.633.38 1.128.58 1.6l.059.141s-1.594-.43-1.897-1.666a8.375 8.375 0 0 1-2.314 1.289s1.08-1.172 1.872-1.95c-1.041-.117-2.996-.213-2.996-.213l.14-.033c.785-.187 2.001-.477 3.116-.462a7.124 7.124 0 0 1-2.156-1.88c.19.168.72.378 1.443.665.305.122.645.257 1.007.408.07-1.263.12-2.927.12-2.927ZM12.66 3.292a.22.22 0 0 0 .075.105c-.05-.067-.075-.105-.075-.105Zm6.256-1.1c-.11.053-.208.11-.3.175.186-.113.3-.174.3-.174Zm-3.398 3.07a.374.374 0 0 1 .235-.023l.024-.066-.248.017-.01.072Z" clip-rule="evenodd"/></mask><path fill="#449A01" fill-rule="evenodd" d="M15.303 1.543c.62.851.875 1.857.898 2.88.7-.95 1.869-1.725 2.415-2.056-.502.35-.762.87-1.055 1.455-.144.287-.295.59-.487.895 1.194-.428 2.38-.539 2.38-.539-.796.226-1.53.687-2.243 1.135-.26.163-.517.325-.774.473 2.304.867 2.658 2.122 2.658 2.122-.282-.249-.892-.516-2.042-1.02-.22-.096-.461-.201-.723-.317.172.633.38 1.128.58 1.6l.059.141s-1.594-.43-1.897-1.666a8.375 8.375 0 0 1-2.314 1.289s1.08-1.172 1.872-1.95c-1.041-.117-2.996-.213-2.996-.213l.14-.033c.785-.187 2.001-.477 3.116-.462a7.124 7.124 0 0 1-2.156-1.88c.19.168.72.378 1.443.665.305.122.645.257 1.007.408.07-1.263.12-2.927.12-2.927ZM12.66 3.292a.22.22 0 0 0 .075.105c-.05-.067-.075-.105-.075-.105Zm6.256-1.1c-.11.053-.208.11-.3.175.186-.113.3-.174.3-.174Zm-3.398 3.07a.374.374 0 0 1 .235-.023l.024-.066-.248.017-.01.072Z" clip-rule="evenodd"/><path fill="#fff" d="m16.2 4.423-.35.007.024 1.025.609-.825-.282-.207Zm-.897-2.88.283-.206-.602-.826-.03 1.022.35.01Zm2.258 2.279.291.194.012-.018.01-.02-.313-.156Zm0 0-.291-.195-.012.019-.01.019.313.157Zm-.487.895-.297-.185-.537.857.952-.342-.118-.33Zm2.38-.539.095.337-.128-.685.032.348ZM17.21 5.313l.177.302.01-.006-.187-.296Zm0 0-.176-.303-.01.006.186.297Zm-.774.473-.175-.304-.642.37.694.261.123-.327Zm2.658 2.122-.231.263.891.787-.323-1.145-.337.095Zm-2.042-1.02-.148.318.008.003.14-.32Zm0 0 .148-.317-.008-.003-.14.32Zm-.723-.317.142-.32-.672-.296.193.708.337-.092Zm.58 1.6.322-.135-.322.136Zm.059.141-.091.338.691.187-.278-.66-.322.135Zm-1.897-1.666.34-.083-.131-.534-.428.344.219.273Zm-2.314 1.289-.258-.237.376.567-.118-.33Zm1.872-1.95.245.25.525-.515-.73-.082-.04.348Zm-2.996-.213-.08-.34.063.69.017-.35Zm.14-.033.08.34-.08-.34Zm3.116-.462-.005.35.176-.655-.171.305Zm-.713-1.215-.13.326.13-.326Zm0 0 .13-.325-.13.325Zm1.007.408-.134.323.457.19.027-.494-.35-.02ZM12.66 3.292l.292-.193-.633.27.341-.077Zm6.256-1.1.166.309-.317-.624.15.316Zm-3.398 3.07-.346-.051-.094.63.582-.259-.142-.32Zm.235-.023-.077.342.304.068.103-.293-.33-.117Zm.024-.066.327.126.198-.513-.549.038.024.349Zm-.248.017-.024-.35-.28.02-.042.278.346.052Zm1.023-.775c-.024-1.075-.292-2.155-.965-3.078l-.566.412c.568.78.81 1.71.83 2.681l.7-.015Zm1.883-2.348c-.55.335-1.77 1.14-2.515 2.148l.564.415c.656-.89 1.773-1.636 2.314-1.964l-.363-.599Zm-.56 1.911c.3-.6.526-1.033.942-1.325l-.4-.573c-.587.41-.882 1.015-1.168 1.585l.626.313Zm-.022.038-.582-.389.582.389Zm-.482.887c.203-.322.361-.64.504-.925l-.626-.313c-.144.288-.289.577-.47.867l.593.371Zm2.083-.725-.032-.348h-.005a2.074 2.074 0 0 0-.054.006 11.417 11.417 0 0 0-.713.107 10.86 10.86 0 0 0-1.693.445l.236.659a10.16 10.16 0 0 1 1.582-.416 10.698 10.698 0 0 1 .71-.104h.002l-.033-.349ZM17.397 5.61c.722-.453 1.413-.884 2.152-1.094l-.191-.673c-.852.242-1.629.732-2.333 1.174l.372.593Zm-.01.006-.352-.605.352.605Zm-.775.474c.263-.152.526-.317.785-.48l-.372-.593c-.261.164-.513.323-.763.466l.35.607Zm2.483 1.82.337-.096V7.81l-.001-.003a1.236 1.236 0 0 0-.03-.084 1.918 1.918 0 0 0-.088-.189 3.028 3.028 0 0 0-.422-.596c-.417-.468-1.13-1.029-2.33-1.48l-.247.654c1.103.416 1.72.916 2.055 1.292.168.19.269.35.325.457a1.224 1.224 0 0 1 .066.146v-.001l-.001-.002v-.001l.336-.096Zm-2.182-.7c.577.253 1.01.443 1.334.6.33.16.514.271.617.362l.463-.525c-.18-.159-.442-.305-.775-.467-.339-.165-.786-.36-1.359-.611l-.28.641Zm-.008-.003.296-.635-.296.635Zm-.716-.315.724.318.28-.641-.721-.317-.283.64Zm1.043 1.145c-.199-.473-.399-.949-.564-1.556l-.675.183c.178.658.395 1.172.594 1.644l.645-.271Zm.06.14-.06-.14-.645.271.06.141.644-.271Zm-2.56-1.447c.184.75.751 1.231 1.222 1.514a4.171 4.171 0 0 0 .92.406l.002.001h.001l.092-.338.091-.337a1.028 1.028 0 0 1-.053-.017 3.47 3.47 0 0 1-.693-.316c-.403-.241-.783-.594-.902-1.08l-.68.167Zm-1.856 1.536a8.726 8.726 0 0 0 2.415-1.346l-.438-.546a8.03 8.03 0 0 1-2.213 1.232l.236.66Zm1.509-2.53a52.59 52.59 0 0 0-1.243 1.276 86.396 86.396 0 0 0-.593.634l-.036.04-.01.01a.065.065 0 0 0-.002.002l.257.238.257.237.003-.003.01-.01.034-.038.133-.143.456-.486c.368-.389.832-.873 1.224-1.257l-.49-.5Zm-2.75.037-.018.35h.001a.898.898 0 0 0 .02 0 37.865 37.865 0 0 1 .299.016l.783.046c.619.039 1.36.092 1.87.15l.08-.696a41.97 41.97 0 0 0-1.906-.152 98.712 98.712 0 0 0-1.107-.063h-.005l-.018.35Zm.057-.373-.139.033.162.68.14-.032-.163-.681Zm3.203-.472c-1.166-.016-2.424.286-3.203.472l.162.68c.793-.188 1.967-.466 3.03-.452l.01-.7Zm-2.442-1.322a7.471 7.471 0 0 0 2.266 1.978l.342-.611a6.773 6.773 0 0 1-2.046-1.784l-.562.417Zm1.853.132a25.21 25.21 0 0 1-.908-.372c-.252-.112-.383-.187-.432-.23l-.464.524c.141.125.37.238.612.346.254.113.574.24.934.383l.258-.65Zm0 0-.258.65.258-.65Zm1.013.41a58.613 58.613 0 0 0-1.013-.41l-.258.65c.305.122.642.256 1.002.406l.269-.646Zm-.016-2.604-.35-.01v.018l-.002.055a368.088 368.088 0 0 1-.031.914c-.021.573-.05 1.302-.085 1.93l.699.039a115.203 115.203 0 0 0 .117-2.861l.001-.055v-.019l.001-.001-.35-.01ZM12.318 3.37c.032.14.123.235.184.289l.464-.525c-.008-.006-.005-.005.002.005a.21.21 0 0 1 .033.075l-.683.156Zm.697-.182a3.072 3.072 0 0 1-.05-.07l-.011-.016-.003-.003-.292.193-.292.193.001.001.002.002a.202.202 0 0 0 .005.007l.016.025.062.085.562-.417Zm5.749-1.311c-.126.06-.242.128-.349.203l.401.573c.076-.052.158-.1.25-.144l-.302-.632Zm.033.789a9.2 9.2 0 0 1 .267-.156l.013-.007.003-.002h.001l-.166-.308-.167-.308-.002.001a.154.154 0 0 1-.005.003l-.017.01a5.879 5.879 0 0 0-.29.168l.363.599ZM15.67 4.88a.724.724 0 0 0-.294.062l.284.64a.024.024 0 0 1 .01-.002v-.7Zm.16.018a.726.726 0 0 0-.16-.018v.7h.006l.154-.682Zm.253.458.02-.057-.652-.252a.984.984 0 0 0-.028.076l.66.233Zm-.33-.532-.248.017.048.698.248-.017-.048-.698Zm-.57.314-.011.073.692.103.011-.072-.692-.104Z" mask="url(#f)"/><path fill="#F50100" fill-rule="evenodd" d="M18.214 11.864v-.135c-.395-.341-.809-.512-1.241-.512a2.11 2.11 0 0 0-1.258-.257v-.002c-.639-.075-1.282.26-1.282.26-.649 0-1.241.51-1.241.51v.136l.774.936s.219.902 1.745.69v.002s1.011-.033 1.083-.062a2.32 2.32 0 0 1 .087-.032c.198-.07.424-.149.558-.598l.775-.936Zm-2.502-.863c-.022.312-.148 2.191 0 2.482v-2.482Z" clip-rule="evenodd"/><path fill="#FECA00" fill-rule="evenodd" d="M14.45 10.813c.082-.304.226-.407.578-.407.218 0 .382.06.497.18v.813h.061v.096c-.048.036-.073.114-.057.197a.257.257 0 0 0 .028.076.253.253 0 0 0-.086-.014c-.106 0-.192.062-.192.139 0 .076.086.138.192.138.106 0 .192-.062.192-.138 0 .038.022.073.057.098h-.097c0 .209-.088.342-.22.342-.094 0-.159-.05-.206-.163l-.131-.312-.014.349c-.005.123-.05.172-.16.172-.108 0-.185-.08-.238-.26a.258.258 0 0 0 .05.005c.105 0 .191-.062.191-.139 0-.077-.086-.139-.192-.139a.26.26 0 0 0-.06.007.24.24 0 0 0 .006-.122c-.02-.104-.098-.177-.173-.162-.075.015-.12.11-.1.215a.257.257 0 0 0 .029.077.253.253 0 0 0-.086-.015c-.106 0-.192.062-.192.139 0 .077.086.139.192.139.086 0 .159-.041.183-.097l-.006.081c-.017.23-.069.338-.146.353-.105.02-.185.011-.24-.025l-.114-.074v.126a.545.545 0 0 1-.18-.026l-.014.073-.14-.16a.233.233 0 0 0 .14-.028c.093-.05.14-.145.104-.212-.036-.068-.141-.082-.235-.032a.259.259 0 0 0-.052.036.261.261 0 0 0-.01-.046c-.031-.101-.116-.165-.189-.143a.118.118 0 0 0-.072.07l-.057-.064-.053.067.097.11a.26.26 0 0 0 .009.041c.027.088.093.147.158.148l.281.318v.003h.004l.156.178a2.8 2.8 0 0 1 .06.14.816.816 0 0 0 .089.255.232.232 0 0 1 .005.045c0 .096.206.152.608.21.315.046.687.076.99.08v.001h.078c.304-.005.676-.035.99-.08.402-.059.608-.115.608-.21 0-.063.052-.214.155-.441l.704-.798-.052-.067-.176.198.003-.008c.031-.102-.003-.202-.076-.224-.073-.023-.158.041-.189.143a.26.26 0 0 0-.01.046.262.262 0 0 0-.052-.037c-.094-.05-.199-.035-.235.033-.036.067.011.162.105.212.093.05.198.035.234-.032a.092.092 0 0 0 .006-.012.104.104 0 0 0 .098.011l-.274.31-.024-.134a.545.545 0 0 1-.18.026v-.126l-.114.074c-.056.036-.136.046-.241.025-.077-.015-.13-.123-.146-.353l-.002-.018a.25.25 0 0 0 .093.032c.105.015.199-.035.21-.11.01-.077-.066-.15-.171-.165a.255.255 0 0 0-.07 0 .239.239 0 0 0 .027-.127c-.006-.106-.072-.188-.149-.184-.076.004-.134.093-.128.199a.256.256 0 0 0 .013.07.26.26 0 0 0-.073-.022c-.105-.015-.2.035-.21.11-.01.076.066.15.17.165a.225.225 0 0 0 .156-.03l-.016.06c-.053.202-.132.291-.246.291-.11 0-.155-.049-.16-.172l-.014-.35-.131.313c-.047.112-.113.163-.205.163-.127 0-.213-.12-.221-.313a.256.256 0 0 0 .075.011c.106 0 .192-.062.192-.138 0-.077-.086-.14-.192-.14a.26.26 0 0 0-.06.008.24.24 0 0 0 .006-.122.242.242 0 0 0-.05-.11h.143v-.928c.114-.12.279-.181.497-.181.351 0 .495.103.578.407.052.194.001.359-.164.513l.094.146c.185-.172.266-.378.238-.606.395-.016.69.035.884.149.169.099.2.35.072.788l.145.062c.15-.515.107-.865-.15-1.016-.226-.133-.556-.188-.991-.166v.013c-.11-.343-.315-.475-.706-.475a.843.843 0 0 0-.497.14v-.047h-.308v.081c-.14-.126-.328-.188-.558-.188-.383 0-.588.126-.7.454l.003-.07c-.436-.022-.765.032-.992.165-.257.151-.3.501-.15 1.016l.146-.061c-.128-.438-.097-.69.071-.789.195-.114.492-.165.89-.148-.06.259.018.492.223.684l.094-.146c-.165-.154-.216-.32-.163-.513Zm1.22 1.042a.106.106 0 0 1-.015-.003.104.104 0 0 1 .008.04c0-.012.003-.025.007-.037Zm-1.163.103a.116.116 0 0 0-.004-.014l.005.002v.012Zm3.05.7c-.125.027-.216.024-.264-.023a.505.505 0 0 1-.265.009c-.108-.021-.183-.108-.228-.25a.349.349 0 0 1-.223.163c.492.084.836.202.836.202s-.009.088-.03.19l.079-.18.007-.01.089-.101Zm-1.212-.136a.27.27 0 0 1-.101-.11.33.33 0 0 1-.125.085c.078.007.153.016.226.025Zm-.497-.043a.381.381 0 0 1-.147-.155.383.383 0 0 1-.145.154l.106-.002h.061c.042 0 .084.001.125.003Zm-1.854.273-.071-.081c.085.01.15 0 .187-.036a.504.504 0 0 0 .264.009c.108-.021.183-.108.229-.25a.35.35 0 0 0 .215.162 6.12 6.12 0 0 0-.824.196Zm1.286-.256a5.804 5.804 0 0 0-.218.023.27.27 0 0 0 .097-.107.334.334 0 0 0 .121.084Zm1.89.767c.053.03.096 0 .13-.058a.359.359 0 0 0-.005.043.65.65 0 0 1-.135.053 3.519 3.519 0 0 1-.406.078 8.092 8.092 0 0 1-1.02.08 8.09 8.09 0 0 1-1.02-.08 3.542 3.542 0 0 1-.406-.078.748.748 0 0 1-.1-.034.093.093 0 0 0 .008-.004c.167-.095 1.277-.183 1.477-.198.2.015 1.309.104 1.477.198Zm.223-.017-.002.002.001-.002Z" clip-rule="evenodd"/><path fill="#fff" d="m14.35 10.529-.002.092c-.68-.014-1.071.105-1.17.344-.103.246-.084.546.06.902l-.07.04c-.153-.38-.173-.709-.06-.983.119-.284.532-.41 1.242-.395Z"/><path fill="#fff" d="m14.482 11.348-.04.08c-.148-.107-.222-.289-.222-.54 0-.36.154-.57.495-.715.218-.092.515-.055.893.11l-.026.087c-.363-.158-.644-.194-.841-.11-.313.133-.444.312-.444.629 0 .22.061.37.185.46Zm2.548-.727.001.093c.681-.015 1.072.105 1.17.343.103.247.084.546-.06.902l.07.04c.153-.38.174-.708.06-.983-.118-.283-.532-.41-1.241-.395Z"/><path fill="#fff" d="m16.79 11.368.039.079c.148-.107.222-.288.222-.54 0-.36-.154-.57-.495-.715-.218-.092-.515-.055-.893.11l.026.087c.363-.158.644-.194.841-.11.313.133.444.312.444.629 0 .22-.061.37-.185.46Z"/></g></g></g><rect width="23" height="17" x=".5" y=".5" stroke="#000" stroke-opacity=".1" rx="1.5"/><defs><clipPath id="a"><rect width="24" height="18" fill="#fff" rx="2"/></clipPath></defs></svg>