<svg xmlns="http://www.w3.org/2000/svg" fill="none" viewBox="0 0 24 18"><g clip-path="url(#a)"><mask id="b" width="24" height="18" x="0" y="0" maskUnits="userSpaceOnUse" style="mask-type:luminance"><path fill="#fff" d="M0 0h24v18H0z"/></mask><g mask="url(#b)"><path fill="#F7FCFF" fill-rule="evenodd" d="M0 0v18h24V0z" clip-rule="evenodd"/><mask id="c" width="24" height="18" x="0" y="0" maskUnits="userSpaceOnUse" style="mask-type:luminance"><path fill="#fff" fill-rule="evenodd" d="M0 0v18h24V0z" clip-rule="evenodd"/></mask><g fill="#E31D1C" fill-rule="evenodd" clip-rule="evenodd" mask="url(#c)"><path d="M10.5 0h3v7.5H24v3H13.5V18h-3v-7.5H0v-3h10.5z"/><path d="m7.499 12.917 1.65-.167v1.5s-1.65-.103-1.65-.073.15 1.573.15 1.573h-1.5l.121-1.5H4.65v-1.5l1.62.166-.12-1.666h1.5zm0-9.001 1.65-.166v1.5S7.5 5.147 7.5 5.176c0 .03.15 1.574.15 1.574h-1.5l.121-1.5H4.65v-1.5l1.62.166-.12-1.666h1.5zm10.5 0 1.65-.166v1.5S18 5.147 18 5.176c0 .03.15 1.574.15 1.574h-1.5l.121-1.5h-1.62v-1.5l1.62.166-.12-1.666h1.5zm0 9.001 1.65-.167v1.5S18 14.147 18 14.177s.15 1.573.15 1.573h-1.5l.121-1.5h-1.62v-1.5l1.62.166-.12-1.666h1.5z"/></g></g></g><rect width="23" height="17" x=".5" y=".5" stroke="#000" stroke-opacity=".1" rx="1.5"/><defs><clipPath id="a"><rect width="24" height="18" fill="#fff" rx="2"/></clipPath></defs></svg>