<svg xmlns="http://www.w3.org/2000/svg" fill="none" viewBox="0 0 24 18"><g clip-path="url(#a)"><mask id="b" width="24" height="18" x="0" y="0" maskUnits="userSpaceOnUse" style="mask-type:luminance"><path fill="#fff" d="M0 0h24v18H0z"/></mask><g fill-rule="evenodd" clip-rule="evenodd" mask="url(#b)"><path fill="#55BA07" d="M0 13.5h24V18H0v-4.5Z"/><path fill="#1D1D1D" d="M0 4.5h24v9H0v-9Z"/><path fill="#E11C1B" d="M0 0h24v4.5H0V0Z"/><path fill="#fff" d="M11.848 11.3c-1.344-.278-1.693-.982-1.678-2.066 0-1.148.604-2.31 1.665-2.437 1.06-.127 1.928.268 2.383.82-.38-1.498-1.642-1.662-2.61-1.662-1.458-.013-2.953 1.095-2.953 3.18 0 1.815 1.318 3.18 2.995 3.213 2.097 0 2.425-1.448 2.486-1.94-.122.086-.235.19-.35.297-.422.388-.883.812-1.938.595Zm3.35-2.832-.994.313 1.112.435-.155 1.166.754-.802 1.094.225-.74-.864.655-.883-.913.193-.646-.73-.168.947Z"/></g></g><path stroke="#000" stroke-opacity=".1" stroke-width=".5" d="M.25.25h23.5v17.5H.25z"/><defs><clipPath id="a"><path fill="#fff" d="M0 0h24v18H0z"/></clipPath></defs></svg>