<svg xmlns="http://www.w3.org/2000/svg" fill="none" viewBox="0 0 24 18"><g clip-path="url(#a)"><mask id="b" width="24" height="18" x="0" y="0" maskUnits="userSpaceOnUse" style="mask-type:luminance"><path fill="#fff" d="M0 0h24v18H0z"/></mask><g fill-rule="evenodd" clip-rule="evenodd" mask="url(#b)"><path fill="#FBCD17" d="M0 0v18h24V0H0Z"/><path fill="#73BE4A" d="M0 0v6h24V0H0Zm0 12v6h24v-6H0Z"/><path fill="#C51918" d="M0 0v18l7.5-9L0 0Z"/><path fill="#272727" d="M13.002 10.87 11.132 12l.426-2.204L10 8.147l2.11-.09L13.001 6l.892 2.058H16l-1.554 1.738.468 2.204-1.912-1.13Zm8 0L19.132 12l.426-2.204L18 8.147l2.11-.09L21.001 6l.892 2.058H24l-1.554 1.738.468 2.204-1.912-1.13Z"/></g></g><path stroke="#000" stroke-opacity=".1" stroke-width=".5" d="M.25.25h23.5v17.5H.25z"/><defs><clipPath id="a"><path fill="#fff" d="M0 0h24v18H0z"/></clipPath></defs></svg>