<svg xmlns="http://www.w3.org/2000/svg" fill="none" viewBox="0 0 24 18"><g clip-path="url(#a)"><mask id="b" width="24" height="18" x="0" y="0" maskUnits="userSpaceOnUse" style="mask-type:luminance"><path fill="#fff" d="M0 0h24v18H0z"/></mask><g mask="url(#b)"><path fill="#F7FCFF" fill-rule="evenodd" d="M0 0h24v18H0z" clip-rule="evenodd"/><path fill="#3547A0" stroke="#E31D1C" stroke-width="2" d="m24-1 .352 1.937L2.849 9l21.503 8.064L24 19H-1V9.692L-2.848 9-1 8.307V-1z"/><path fill="#9C3900" fill-rule="evenodd" d="m21.766 3.833-2.052.554c-.074.02-.214.056-.204-.144a5.3 5.3 0 0 1-1.13.51c-.116.031-.085-.168-.134-.225-.1.147-.355.362-.427.383q-1.079.312-1.432.453s-.337.324-.337.58c0 .258-.036.477-.268.477-.231 0-.766.467-.57.73s.838.122.838 0c0-.123.458-.277.458-.139 0 .139-.121.389-.121.389h.506l-.385.199h.385l-.385.235h.72l-.46.205h.32l-.195.27h.498s.195.197.378.304c.182.107.588 1.02.385 1.374-.203.353.046.406.092.25.046-.155.14-.377.222-.377h.238l.11.29.262.28s.018-.243.068-.28c0 0 .204.02.303-.003 0 0-.044-.354-.04-.402 0 0 .317.108.453.106 0 0-.204-.32-.204-.428 0 0 .379.019.379.18l-.042-.402s.359-.153.371-.281l-.235-.03s.122-.154.11-.185l-.347-.044s.38-.132.409-.215c0 0-.086-.134-.164-.187l-.265-.172.692.004s.155-.055.036-.15c0 0-.117-.071-.1-.139 0 0 .079-.152.06-.179 0 0 .085.112.085-.165 0 0 .002-.279-.051-.292 0 0 .156-.115.095-.188-.062-.073-.719-.268-.876-.268l1.204-.764s.083-.315.206-.503c0 0 .32-.287.384-.512s.246-.78.246-.78v-.254z" clip-rule="evenodd"/><path fill="#212121" fill-rule="evenodd" d="m19.658 9.424.048.003q.3.024.328.15l.009.076a.3.3 0 0 0-.009-.075l-.04-.376q.36-.153.372-.281l-.18-.022-.017.022-.01-.026-.028-.003.017-.022-.011-.026.028.004q.086-.115.077-.142l-.243-.03-.088.031s-.01-.047-.006-.049l-.004-.043.092.012q.285-.108.31-.18a.6.6 0 0 0-.164-.187l-.19-.123h-.075s.01-.049.015-.049l.012-.04.062.04.603.004q.156-.056.036-.15-.117-.072-.1-.139a1 1 0 0 0 .053-.118.2.2 0 0 1-.032-.032l.04-.029.04-.026q.015.022.01.056.034-.021.034-.195a1 1 0 0 0-.022-.254l-.029-.038.012-.046q.015.003.029.014.106-.093.054-.156c-.054-.065-.569-.223-.8-.26l-.05.032s-.022-.04-.014-.048l-.012-.04.066.005 1.138-.72q.084-.316.206-.504.319-.287.384-.512.064-.225.246-.78v-.254l-.089-.065-2.052.554c-.074.02-.214.056-.204-.144a5.3 5.3 0 0 1-1.13.51c-.074.02-.088-.054-.102-.125-.007-.04-.014-.08-.032-.1-.1.147-.355.362-.427.383q-1.079.312-1.432.453-.336.324-.337.58c0 .258-.036.477-.268.477-.231 0-.766.467-.57.73s.838.122.838 0c0-.123.458-.277.458-.139q0 .138-.121.389h.401l.082-.043.012.048.01.042H16.8l-.292.152h.293l.066-.04.014.047.012.04h-.078l-.307.188h.603l.097-.043.01.047.01.044h-.107l-.353.157h.26l.02-.027.014.027h.025l-.014.02.014.028h-.034l-.16.223h.498q.195.196.378.303c.182.107.588 1.02.385 1.374-.203.353.046.406.092.25.046-.155.14-.377.222-.377h.238l.11.29.262.28s.018-.243.068-.28a1 1 0 0 0 .303-.003l-.006-.049a2 2 0 0 0-.05-.307l.016-.046s.048.011.048.016q.279.091.405.09-.165-.258-.199-.388a.2.2 0 0 1-.005-.04m.22-.807-.192.067.49.062a1 1 0 0 1-.083.117l-.052.066.257.031q-.063.085-.322.198l-.033.014.028.267a.8.8 0 0 0-.31-.063l-.052-.003v.05c0 .075.054.196.16.373a2.3 2.3 0 0 1-.344-.095l-.06-.02-.005.062c-.002.034.01.153.036.366q-.09.01-.245-.005l-.035.009c-.034.026-.052.08-.068.168l-.006.04-.184-.195-.119-.313h-.271c-.105 0-.2.182-.269.412-.013.044-.044.057-.06.044-.03-.028-.022-.119.057-.258.101-.175.074-.477-.044-.818-.101-.292-.253-.558-.359-.62a1.8 1.8 0 0 1-.367-.296l-.014-.014h-.425l.194-.27h-.188l.46-.206h-.775l.384-.235h-.357l.384-.199h-.626a.9.9 0 0 0 .094-.34c0-.064-.048-.097-.117-.102a.5.5 0 0 0-.176.027c-.146.047-.262.126-.262.213 0 .003-.025.024-.074.044a.8.8 0 0 1-.228.053c-.201.019-.373-.024-.45-.126-.07-.096-.022-.247.123-.403.131-.142.311-.25.41-.25.129 0 .217-.06.265-.17a.9.9 0 0 0 .05-.354q0-.232.316-.54.356-.141 1.418-.449c.078-.022.278-.19.4-.313.01.054.018.082.034.108.027.044.072.062.126.047a5.4 5.4 0 0 0 1.075-.473q.02.094.098.118c.048.015.09.01.161-.01l2.03-.548.05.036v.223q-.179.55-.244.775c-.04.14-.163.304-.378.5q-.123.189-.207.498l-1.327.841h.165c.15 0 .79.194.838.251.017.02-.001.057-.086.12l-.081.06.09.022a.2.2 0 0 1 .012.044q.012.068.01.204a.6.6 0 0 1-.011.147s-.067.035-.07.035l-.007.026a1 1 0 0 1-.056.125c-.016.07.028.132.12.188.044.036.044.042-.016.064l-.683-.003-.164-.001.402.26a.5.5 0 0 1 .132.147.4.4 0 0 1-.082.053q-.097.053-.285.117m.64-.976v.001z" clip-rule="evenodd"/><path fill="#fff" fill-rule="evenodd" d="M20.555 8.094s1.431.19 1.518.19.447-.091.324-.668c-.124-.576-.074-.925-.427-.925s-.721.153-.854.153h-.56c-.558 0-3.874-.019-4.113.247-.238.266-.91.641-1.221.774-.311.132-.391.04-.53.42-.14.38-.245.406-.245.406l.244.272h.725s.5-.626 1.535-.678c1.037-.053 3.604-.19 3.604-.19" clip-rule="evenodd"/><path fill="#4D4D4D" fill-rule="evenodd" d="M16.951 8.285q1.036-.053 3.604-.19 1.431.19 1.518.19c.087 0 .447-.092.324-.669a7 7 0 0 1-.065-.36c-.057-.358-.09-.565-.362-.565-.219 0-.444.059-.614.104-.105.027-.19.05-.24.05h-.668c-.783-.002-3.778-.006-4.005.246-.238.266-.91.641-1.221.774-.08.034-.144.053-.198.069-.158.047-.229.068-.333.35q-.14.381-.244.407l.244.272h.725q.5-.626 1.535-.678m-1.57.606h-.657l-.168-.187c.067-.07.132-.2.204-.395a1 1 0 0 1 .075-.17c.044-.072.078-.096.17-.125l.106-.032a2 2 0 0 0 .14-.051c.409-.175 1.031-.552 1.247-.792.04-.045.287-.096.676-.133.35-.033.812-.056 1.36-.07.61-.017 1.175-.021 1.885-.02h.697a.7.7 0 0 0 .157-.026l.205-.053a2.2 2.2 0 0 1 .492-.074c.17 0 .22.08.275.41l.013.082.02.129c.016.09.03.168.047.247.05.236.02.393-.066.488a.28.28 0 0 1-.186.094c-.052 0-.567-.065-1.522-.19q-2.567.138-3.603.19-1.045.052-1.567.678" clip-rule="evenodd"/><path fill="#FFC221" fill-rule="evenodd" d="M14.63 8.55s-.546.35-.346.585.22.265.26.265c0 0 .011-.252.076-.252s.577.245.762-.169c.186-.413-.752-.43-.752-.43M13.441 9.69l1.257-.232.482.522.14-.467.345.084v.236h.127v.324l.904.189.113-.31s.294.485.746.461.533.104.612-.255c.08-.359.301-.551.301-.551l.528.177s-.58.712-.302.936l2.065.477-.082.25h-.237l.064.216-2.257-.156s-.251.319-.251.238-.014-.082-.125-.082-.169-.156-.169-.156l-.147.057s.023.003-.162-.057-.293-.06-.293-.06l-.762-.056v.116s-.202.01-.132.057c.07.046 1.496.1 1.496.1l-.087.16s.705.002.854-.08c.148-.08.052.18.052.18h.7s-.173.165-.396.165c-.222 0 .64.274.64.274s-.482.149-.704.05c-.223-.099.094.191.235.264s-.495.067-.749-.215c0 0 .08.209 0 .268 0 0-.445-.524-.667-.524s.035.346.035.346-.127-.18-.268-.107a2 2 0 0 0-.247.156s-.093-.32-.584-.452c-.49-.133-.326-.181-.724-.224s-.418-.262-.473-.262-.476-.368-.476-.368-.094-.346.126-.346.568-.104.696 0c.127.103.181 0 .181 0h.224l.322.248h.638s.122-.188.317-.248c.194-.06 0-.23 0-.23s-.464.027-.651.099c-.188.072-.068-.348-.068-.348l-.836-.152-.127.152-.277.084v.166l-.292-.065.084-.497-.683.312z" clip-rule="evenodd"/><path fill="#4D4D4D" fill-rule="evenodd" d="m17.641 11.86.061-.113q-1.3-.048-1.474-.091l-.022-.008c-.07-.047.132-.057.132-.057v-.116l.048.004.714.053q.108 0 .293.06l.12.038q.001-.005.01-.016l.024-.013h.015s-.004.047-.007.047l.103-.04.044-.017a.3.3 0 0 0 .065.11l.01.01a.14.14 0 0 0 .094.036c.111 0 .125 0 .125.082q0 .081.251-.238l2.257.156-.064-.168.01-.013-.01-.034h.037l.01-.014.004.014h.186l.082-.25-2.065-.478q-.277-.224.302-.936l-.527-.177q-.222.192-.302.551c-.059.267-.118.265-.331.256a3 3 0 0 0-.28 0q-.452.023-.747-.462l-.113.31-.904-.19v-.323h-.127v-.236l-.346-.084-.123.413.02.022-.028.006-.008.026-.018-.02-.029.006.009-.028-.444-.48-1.257.233 1.056.863.63-.287.005-.033.025.019.023-.01-.004.024.024.019-.03.013-.074.44.292.065v-.166l.277-.084.127-.152s.79.14.793.145l.043.007-.012.047q-.097.368.08.3.188-.071.65-.097.195.169 0 .229a.57.57 0 0 0-.316.248h-.638l-.322-.248h-.224q-.054.104-.181 0c-.086-.07-.272-.046-.451-.023a2 2 0 0 1-.245.023q-.219 0-.126.346.422.368.476.368c.015 0 .028.017.047.043.048.065.139.188.426.219.216.023.266.048.345.087.067.033.155.076.38.137q.49.132.583.452s.105-.083.247-.156q.137-.072.26.096c-.041-.059-.225-.335-.027-.335q.223 0 .667.524.06-.045.03-.175a1 1 0 0 1-.066-.062s.037-.029.042-.025l.04-.023q.016.044.027.083c.284.216.805.216.676.15a1.3 1.3 0 0 1-.292-.239c-.03-.038-.03-.059.034-.035l.023.01q.222.098.704-.051a6 6 0 0 1-.649-.233q-.077-.04.01-.04l-.005-.012.02.011a.54.54 0 0 0 .286-.09h.039l.042-.054-.002-.006.016-.014h-.02l.004.014a1 1 0 0 1-.079.06h-.047a1 1 0 0 0 .069-.074h-.576l-.006.016-.011-.016h-.035l.012-.032.005-.016q.065-.205-.07-.133-.141.079-.798.08l-.012.022-.014-.023h-.029l.014-.025-.014-.022zm-3.136-1.362-.953-.78 1.128-.208.522.565.15-.505.264.065v.246h.128v.314l.983.206.094-.258q.296.424.737.402a3 3 0 0 1 .26 0c.17.007.207.005.263-.029.065-.039.1-.113.134-.264a.96.96 0 0 1 .265-.507l.435.147c-.366.464-.46.781-.243.956l2.025.468-.055.168h-.267l.063.21-2.213-.152-.016.02a3 3 0 0 1-.172.201c-.015-.053-.06-.064-.166-.064-.05 0-.091-.037-.123-.124l-.017-.046s-.183.063-.189.061l-.134-.044a1 1 0 0 0-.306-.062l-.813-.06v.123l-.032.005a.2.2 0 0 0-.08.023c-.047.028-.045.081.002.112.058.039.508.07 1.444.105l-.088.163h.08c.48.002.768-.025.877-.085l.018-.009-.004.03a1 1 0 0 1-.03.102l-.023.063h.627a.5.5 0 0 1-.255.07.2.2 0 0 0-.056.007c-.035.014-.05.052-.027.085.016.021.05.04.113.067q.132.056.443.158-.349.086-.517.01a.3.3 0 0 0-.074-.023c-.038-.005-.074.015-.072.058.002.032.026.063.072.11.051.051.122.11.184.154a1 1 0 0 1-.114-.013c-.204-.032-.39-.111-.494-.225l-.174-.194.093.242q.043.114.036.168c-.283-.324-.498-.487-.658-.487-.073 0-.122.032-.135.091a.23.23 0 0 0 .017.129.2.2 0 0 0-.138.023 2 2 0 0 0-.2.122q-.129-.297-.595-.421a2.3 2.3 0 0 1-.345-.122l-.009-.004-.05-.024a1 1 0 0 0-.328-.076.57.57 0 0 1-.317-.116 1 1 0 0 1-.075-.083l-.046-.05a.1.1 0 0 0-.039-.014l-.025-.014a1 1 0 0 1-.092-.067 8 8 0 0 1-.317-.265c-.05-.194-.02-.271.083-.271.064 0 .118-.006.256-.024l.028-.003c.222-.029.328-.027.38.016.097.077.185.085.24.01h.18l.322.25h.682l.014-.023a.53.53 0 0 1 .29-.229c.172-.053.172-.176.018-.31l-.035-.012q-.47.027-.666.101c-.036.014-.04.012-.045-.015q-.015-.074.042-.275l.014-.05-.916-.166-.136.162-.298.09v.141l-.187-.041.09-.542zm3.05 1.151q.012.001.006-.002zm-1.328.008" clip-rule="evenodd"/></g></g><rect width="23" height="17" x=".5" y=".5" stroke="#000" stroke-opacity=".1" rx="1.5"/><defs><clipPath id="a"><rect width="24" height="18" fill="#fff" rx="2"/></clipPath></defs></svg>