<svg xmlns="http://www.w3.org/2000/svg" fill="none" viewBox="0 0 24 18"><g clip-path="url(#a)"><path fill="#002488" d="M0 0v5.25h24V0H0Z"/><path fill="#DA121A" d="M0 5.25V18h24V5.25H0Z"/><path fill="#FCDD09" d="M3.771.592c-.287.473-.32.85-.125 1.504.094.305.198.76.241 1.006.058.348.052.381.06.457h.313c.011-.12.02-.26.046-.451.03-.223.119-.69.214-1.014.191-.648.18-1.044-.119-1.494-.108-.167-.253-.305-.318-.305-.066 0-.213.127-.312.297Zm.625 2.658c-.025.125-.03.169-.043.31h.208a2.34 2.34 0 0 1 .073-.28c.164-.518.646-.727.624-.24a.427.427 0 0 1-.126.28 1.97 1.97 0 0 0 .377-.172c.746-.45.452-1.552-.33-1.219-.406.175-.65.657-.783 1.32Zm-.876.492c.328.002.894.005 1.166.003 0-.08.001-.04.002-.104-.2-.002-.966 0-1.166 0l-.001.101Zm-.205.593s.163.019.315.007a.817.817 0 0 0 .326-.073c-.024.181-.025.356-.025.356.022.234.047.294.097.407.069.095.109.096.16-.004.054-.112.09-.228.101-.404a1.79 1.79 0 0 0-.042-.353.904.904 0 0 0 .328.071c.161.015.309.008.309.008s-.217-.11-.313-.243c-.094-.132-.074-.11-.143-.28-.083-.004-.505 0-.64 0-.073.155-.08.188-.17.286a1.301 1.301 0 0 1-.303.222ZM3.02 1.93c.406.173.65.655.784 1.32.024.124.03.168.043.309h-.208a2.338 2.338 0 0 0-.074-.278c-.164-.52-.646-.728-.624-.242.007.134.064.21.127.281a2.005 2.005 0 0 1-.378-.173c-.746-.45-.452-1.551.33-1.218ZM11.271.592c-.287.473-.32.85-.125 1.504.094.305.198.76.241 1.006.058.348.052.381.06.457h.313c.011-.12.02-.26.046-.451.03-.223.119-.69.214-1.014.191-.648.179-1.045-.118-1.495-.11-.166-.254-.304-.32-.304-.065 0-.212.127-.31.297Zm1.408 1.338c-.406.174-.65.656-.783 1.32-.025.125-.03.169-.043.31h.208a2.33 2.33 0 0 1 .073-.28c.164-.518.646-.727.624-.24a.426.426 0 0 1-.126.28 1.97 1.97 0 0 0 .377-.172c.746-.45.452-1.552-.33-1.219ZM11.02 3.742c.328.002.894.005 1.166.003 0-.08.001-.04.002-.104-.2-.002-.966 0-1.166 0l-.001.101Zm.097.371c-.118.127-.302.222-.302.222s.163.019.315.007a.817.817 0 0 0 .326-.073c-.024.181-.025.356-.025.356.022.234.047.294.097.407.069.095.109.096.16-.004.054-.112.09-.228.101-.404a1.785 1.785 0 0 0-.042-.353.904.904 0 0 0 .328.071c.161.015.309.008.309.008s-.217-.11-.313-.243c-.094-.132-.074-.11-.143-.28-.083-.004-.505 0-.64 0-.073.155-.08.188-.17.286ZM10.52 1.93c.406.173.65.655.784 1.32.024.124.03.168.043.309h-.208a2.33 2.33 0 0 0-.074-.278c-.164-.52-.646-.728-.624-.242.007.134.064.21.127.281a2.003 2.003 0 0 1-.377-.173c-.747-.45-.453-1.551.33-1.218ZM18.771.592c-.287.473-.32.85-.125 1.504.094.305.198.76.241 1.006.058.348.052.381.06.457h.313c.011-.12.02-.26.046-.451.03-.223.119-.69.214-1.014.191-.648.179-1.045-.119-1.495-.108-.166-.253-.304-.318-.304-.066 0-.213.127-.312.297Zm1.408 1.338c-.406.174-.65.656-.783 1.32-.025.125-.03.169-.043.31h.208a2.33 2.33 0 0 1 .073-.28c.164-.518.646-.727.625-.24a.426.426 0 0 1-.127.28 1.97 1.97 0 0 0 .377-.172c.746-.45.452-1.552-.33-1.219ZM18.52 3.742c.328.002.894.005 1.166.003 0-.08.001-.04.002-.104-.2-.002-.966 0-1.166 0l-.001.101Zm.097.371c-.118.127-.302.222-.302.222s.163.019.315.007a.817.817 0 0 0 .326-.073c-.024.181-.026.356-.026.356.023.234.048.294.098.407.069.095.109.096.16-.004.054-.112.09-.228.101-.404a1.785 1.785 0 0 0-.042-.353.904.904 0 0 0 .328.071c.161.015.309.008.309.008s-.217-.11-.313-.243c-.094-.132-.074-.11-.143-.28-.083-.004-.505 0-.64 0-.073.155-.08.188-.17.286ZM18.02 1.93c.406.173.65.655.784 1.32.024.124.03.168.043.309h-.208a2.33 2.33 0 0 0-.074-.278c-.164-.52-.646-.728-.624-.242.007.134.064.21.127.281a2.003 2.003 0 0 1-.378-.173c-.746-.45-.452-1.551.33-1.218Z"/><path fill="green" d="M8.474 9.846c.157.074.358.132.46.135.12.004.088-.025-.136-.112a2.35 2.35 0 0 1-.477-.255c-.166-.136-.166-.136-.149-.016.01.068.136.175.302.248Z"/><path fill="green" d="M7.496 8.43c.1.407.521 1.154.666 1.183.13.022.13.015.022-.108-.181-.21-.573-.98-.573-1.125 0-.08-.036-.138-.08-.138-.05 0-.064.073-.035.189ZM3.14 7.921c-.002.015.134.12.304.238.17.119.37.286.435.372.113.152.753.53.813.482.059-.041-.765-.71-1.114-.904-.415-.235-.429-.238-.438-.188Z"/><path fill="green" d="M3.374 8.48c0 .014.152.094.34.181.189.087.413.218.493.29.138.13.833.392.884.334.05-.05-.877-.566-1.254-.697-.449-.16-.463-.16-.463-.108Zm3.587.058c0 .08.283.63.45.863.094.13.203.203.326.203.18 0 .18 0-.095-.312a9.393 9.393 0 0 1-.478-.558c-.108-.138-.203-.225-.203-.196ZM5.795 10.77c-.478.19-.58.255-.58.356 0 .044.05.037.13-.029.066-.065.305-.152.522-.203.218-.05.479-.138.58-.188l.181-.095h-.217a3 3 0 0 0-.616.16Zm-.948-1.136c-.123.094-.116.102.152.058.16-.022.391-.065.507-.094.188-.051.174-.058-.152-.065-.217-.008-.42.036-.507.101Z"/><path fill="green" d="M3.047 8.871c1.195.218 3.594 1.023 3.449 1.161-.037.036-.71-.13-.805-.196-.036-.036-.39-.022-.782.03-.732.079-.855.144-.84.442.007.145.007.145.043 0 .065-.269.174-.327.587-.327.449 0 1.68.182 2.224.327.725.203.746.203.507.072-.311-.174-.782-.493-.87-.587-.159-.182-3.05-.98-3.47-.965-.195.014-.203.014-.043.043Z"/><path fill="green" d="M3.596 9.258a.628.628 0 0 0-.203.34c-.043.211-.043.211.073.073.304-.384.326-.399.703-.406.304-.007.348-.022.203-.065-.305-.094-.609-.073-.776.058Zm3.694.448c.058.101.623.384.666.34.022-.021-.043-.08-.13-.13a1.157 1.157 0 0 1-.268-.189c-.116-.108-.334-.13-.268-.021Zm.043.689c.058.101.623.384.667.34.021-.021-.044-.08-.13-.13a1.156 1.156 0 0 1-.269-.189c-.116-.108-.333-.13-.268-.021Z"/><path fill="green" d="M6.523 9.531c.01-.01.174.044.367.12.193.075.443.146.55.153.19.008.861.328.855.405-.002.071-1.016-.239-1.372-.42-.426-.212-.436-.223-.4-.258Z"/><path fill="green" d="M7.723 10.061c-.135.053-.27.147-.313.215-.05.08-.008.08.167-.007.136-.069.334-.125.442-.134.203-.01.203-.01.074-.09-.074-.047-.23-.042-.37.016ZM4.332 7.616c.225.428 1.138 1.415 1.645 1.792.138.102.384.203.536.225l.283.044-.21-.233c-.34-.37-.863-1.08-1.03-1.392-.18-.341-.202-.254-.05.181.058.174.29.522.515.769.224.254.369.464.333.464-.094 0-.703-.718-1.138-1.342-.47-.682-.492-.704-.362-.326.065.181.21.45.333.595.116.152.189.275.152.275-.072 0-.39-.362-.79-.885-.108-.152-.26-.348-.325-.435-.073-.094-.022.029.108.268Zm.425 2.808c-.312.072-.479.181-.479.312 0 .05.03.043.066-.015.058-.094.652-.268.71-.21.014.014-.008.123-.051.232-.043.109-.058.218-.036.24.022.028.058-.03.08-.11.086-.311.355-.406 1-.348.325.03.688.066.804.073.123.007.29.05.376.101.189.102.92.11.855.008-.021-.037-.159-.087-.311-.109a8.853 8.853 0 0 1-.674-.152c-.45-.117-1.884-.131-2.34-.022Zm2.646.837c-.547-.097-.806-.01-1.027.33l-.189.293.243-.23c.33-.32.568-.35 1.16-.178.277.081.512.135.52.123.045-.066-.422-.294-.707-.338Z"/><path fill="green" d="M7.551 11.414c-.507.225-.673.442-.666.848l.007.349.073-.327c.094-.45.275-.61.862-.798.275-.087.5-.174.5-.189 0-.08-.515-.007-.776.117Z"/><path fill="green" d="M7.455 12.036c-.087.116-.152.269-.152.348 0 .095.036.073.138-.094.08-.13.217-.283.304-.348.167-.116.167-.116.014-.116-.086 0-.217.087-.304.21Zm7.834 1.183c.235.102 1.456.41 2.32.663.863.253 1.873.545 2.097.576.32-.697-.262.607.07-.183-.432-.11-2.132-.51-2.814-.707-.589-.165-1.423-.422-1.637-.47-.214-.046-.216.042-.036.12Z"/><path fill="green" d="M15.438 13.037c.239.094 1.47.36 2.342.583.872.223 1.89.479 2.115.502.295-.708-.24.616.064-.186-.435-.094-2.148-.435-2.837-.608-.594-.144-1.437-.372-1.652-.411-.215-.04-.215.048-.032.12Zm-.338.313c.23.114 1.433.486 2.282.784.85.298 1.842.643 2.064.686.356-.68-.293.592.08-.18-.425-.132-2.102-.622-2.774-.853-.578-.196-1.398-.496-1.61-.555-.21-.058-.218.03-.042.118Z"/><path fill="green" d="M14.954 13.499c.223.126 1.405.56 2.237.902.833.343 1.807.738 2.026.793.39-.66-.324.576.088-.175-.417-.155-2.066-.731-2.724-.998-.568-.225-1.371-.568-1.579-.638-.207-.069-.22.019-.048.116Z"/><path fill="green" d="M14.816 13.686c.218.134 1.385.609 2.204.98.82.371 1.78.8 1.997.863.413-.646-.344.564.095-.172-.412-.169-2.04-.802-2.688-1.092-.56-.245-1.35-.616-1.556-.693-.205-.076-.22.01-.052.114Z"/><path fill="#FCDD09" d="M12.371 15.566c.337.235.522.561.503.898l-.012.277.11-.273c.121-.286.105-.72-.038-1.04l-.083-.188.264.116c.378.16.627.44.679.773l.045.274.051-.29c.06-.306-.047-.726-.253-1.01l-.12-.166.282.058c.402.077.704.3.824.615l.102.259-.01-.295c-.006-.31-.198-.7-.458-.935l-.153-.137.289-.002c.41-.008.75.146.934.43l.153.232-.072-.287c-.07-.302-.338-.643-.641-.818l-.178-.103.282-.062c.4-.094.765-.013 1.003.226l.197.195-.129-.265c-.131-.281-.464-.559-.798-.668l-.194-.063.262-.12c.371-.174.746-.171 1.028.013l.234.15-.181-.233c-.187-.248-.57-.45-.92-.486l-.203-.022.232-.171c.327-.248.694-.324 1.008-.202l.26.098-.226-.19c-.234-.204-.65-.322-1-.285l-.203.021.19-.216c.269-.31.612-.46.945-.407l.275.042-.26-.139c-.272-.15-.704-.179-1.038-.07l-.195.063.142-.251c.198-.36.503-.578.84-.595l.277-.017-.284-.08c-.297-.091-.725-.03-1.03.146l-.176.103.087-.276c.118-.392.371-.67.697-.756l.267-.074-.294-.02c-.309-.027-.715.122-.976.357l-.152.138.028-.288c.034-.409.224-.732.524-.885l.247-.128-.292.041c-.308.039-.674.27-.88.554l-.12.166-.033-.287c-.051-.408.067-.764.33-.975l.214-.177-.277.101c-.293.102-.604.404-.747.725l-.083.187-.091-.274c-.134-.388-.093-.76.12-1.022l.173-.217-.25.156c-.266.16-.507.52-.58.864l-.042.2-.146-.248c-.212-.351-.249-.725-.095-1.025l.124-.249-.212.205c-.227.213-.387.615-.387.966v.205l-.195-.213c-.28-.3-.394-.657-.306-.982l.07-.27-.165.245c-.178.255-.251.682-.178 1.026l.042.2-.234-.167c-.337-.235-.522-.561-.504-.898l.013-.278-.11.274c-.121.286-.105.72.038 1.04l.083.187-.264-.115c-.378-.16-.627-.44-.679-.773l-.045-.274-.051.29c-.06.305.047.726.253 1.01l.12.166-.282-.058c-.402-.078-.704-.3-.824-.615l-.102-.26.01.296c.007.31.198.7.459.934l.152.138-.289.002c-.41.008-.75-.147-.934-.43l-.153-.232.072.286c.07.303.338.644.642.82l.177.102-.282.062c-.399.093-.765.013-1.002-.226l-.198-.195.129.265c.131.281.464.559.798.667l.194.063-.262.12c-.371.175-.746.172-1.028-.012l-.234-.15.181.232c.187.248.57.45.92.487l.203.022-.232.171c-.327.248-.694.323-1.008.202l-.26-.098.226.19c.234.203.65.321 1 .285l.203-.022-.19.216c-.269.31-.612.46-.945.407l-.275-.041.26.139c.272.15.704.179 1.038.07l.195-.063-.142.25c-.198.36-.503.579-.84.596l-.277.016.284.082c.297.09.725.028 1.03-.147l.176-.103-.086.275c-.12.393-.372.67-.697.757l-.268.074.294.02c.309.027.715-.123.976-.358L8.93 14l-.028.287c-.034.41-.224.733-.524.885l-.247.129.292-.041c.308-.039.674-.27.88-.554l.12-.166.033.287c.051.407-.067.763-.33.975l-.214.177.277-.101c.293-.102.604-.404.747-.725l.083-.187.091.273c.135.388.093.76-.12 1.023l-.173.217.25-.156c.266-.16.507-.521.58-.865l.042-.2.146.249c.212.351.249.724.095 1.025l-.124.248.212-.205c.227-.212.387-.614.387-.966v-.205l.195.213c.28.3.394.657.306.983l-.07.27.165-.245c.178-.255.251-.682.178-1.026l-.042-.2.234.167Z"/></g><path stroke="#000" stroke-opacity=".1" stroke-width=".5" d="M.25.25h23.5v17.5H.25z"/><defs><clipPath id="a"><path fill="#fff" d="M0 0h24v18H0z"/></clipPath></defs></svg>