<svg xmlns="http://www.w3.org/2000/svg" fill="none" viewBox="0 0 24 18"><g clip-path="url(#a)"><mask id="b" width="24" height="18" x="0" y="0" maskUnits="userSpaceOnUse" style="mask-type:luminance"><path fill="#fff" d="M0 0h24v18H0z"/></mask><g mask="url(#b)"><path fill="#C51918" fill-rule="evenodd" d="M0 0v18h24V0z" clip-rule="evenodd"/><mask id="c" width="24" height="18" x="0" y="0" maskUnits="userSpaceOnUse" style="mask-type:luminance"><path fill="#fff" fill-rule="evenodd" d="M0 0v18h24V0z" clip-rule="evenodd"/></mask><g fill-rule="evenodd" clip-rule="evenodd" mask="url(#c)"><path fill="#2E42A5" d="M0 0v10.5h12V0z"/><path fill="#FEFFFF" d="m2.674 5.829-.795.48.182-.937-.663-.7.897-.038.38-.875.378.875h.895l-.66.738.199.937zm6 0-.795.48.182-.937-.663-.7.897-.038.38-.875.378.875h.895l-.66.738.199.937zM5.6 3.103l-.75.452.172-.881-.624-.66.844-.036.357-.823.357.823h.842l-.621.696.187.881zm.81 3.216-.468.282.107-.55-.39-.413.528-.022.223-.515.223.515h.526l-.388.434.117.551zm-.854 3.302-1.122.678.256-1.322-.935-.99 1.266-.054.535-1.234.536 1.234h1.263l-.932 1.044.28 1.322z"/></g></g></g><rect width="23" height="17" x=".5" y=".5" stroke="#000" stroke-opacity=".1" rx="1.5"/><defs><clipPath id="a"><rect width="24" height="18" fill="#fff" rx="2"/></clipPath></defs></svg>