<svg xmlns="http://www.w3.org/2000/svg" fill="none" viewBox="0 0 24 18"><g clip-path="url(#a)"><mask id="b" width="24" height="18" x="0" y="0" maskUnits="userSpaceOnUse" style="mask-type:luminance"><path fill="#fff" d="M0 0h24v18H0z"/></mask><g mask="url(#b)"><path fill="#2E42A5" fill-rule="evenodd" d="M0 0v18h24V0z" clip-rule="evenodd"/><mask id="c" width="24" height="18" x="0" y="0" maskUnits="userSpaceOnUse" style="mask-type:luminance"><path fill="#fff" fill-rule="evenodd" d="M0 0v18h24V0z" clip-rule="evenodd"/></mask><g mask="url(#c)"><path fill="#FECA00" fill-rule="evenodd" stroke="#F7FCFF" stroke-width=".5" d="M15.785 7.525s.665 8.948 3.662 8.948 3.734-8.948 3.734-8.948z" clip-rule="evenodd"/><path fill="#CF6900" fill-rule="evenodd" d="m19.434 7.966.11-.124.52.332q.115-.176.398-.163l-.19-.289.155-.082.36.434.035.01-.09-.563.18-.021.119.73h.008c.051 0 .109.025.168.064l.128-.794.181.021-.09.564.035-.011.36-.434.155.082-.19.29q.283-.014.397.162l.52-.332.11.124-.57.364a1 1 0 0 1 .011.135v.085l.788-.173.058.147-.846.3v.102l.803-.065.024.153-.827.12v.177l.829.137-.034.153-.795-.12v1.725h-.122V9.464l-.533-.08c-.06.422-.127.953-.118 1.145.01.19.151.27.25.328.078.044.13.074.074.128-.128.125-.447.245-.766.245s-.634-.12-.702-.245c-.012-.022-.01-.02 0-.008.05.058.3.344.32-.448a4.3 4.3 0 0 0-.127-1.127l-.415.062v1.742h-.122V9.482l-.795.119-.033-.153.828-.137v-.176l-.826-.12.024-.154.802.065v-.103l-.846-.3.058-.146.788.173v-.085q0-.073.012-.135zm1.043 1.239.007.025-.369.061v-.139zm.008-.57-.017.019-.353-.078v-.11q0-.034.003-.064zm.234-.231a2 2 0 0 0-.12.111l-.436-.278c.062-.106.182-.145.37-.117zm.802.192.563-.359q-.09-.159-.37-.117l-.26.398q.035.039.067.078m.19.073.419-.267q.002.03.002.063v.111zm.169.287.252-.09v.07zm-.195.261.447-.065v.14zm-1.57-.35v.069l.253.02z" clip-rule="evenodd"/><path fill="#00A727" fill-rule="evenodd" d="M18.659 11.882s-.986 1.65-.986 2.65c0 0 .672.533 1.827.533s1.748-.533 1.748-.533c-.325-1.185-.878-2.65-.878-2.65z" clip-rule="evenodd"/><path fill="#E31D1C" fill-rule="evenodd" d="M18.707 11.426a.823.823 0 1 1 1.645 0v.563h-1.646z" clip-rule="evenodd"/><path fill="#FF927F" fill-rule="evenodd" d="M16.14 9.625s1.3.268 1.3.69c0 .423.524.575.652.461.129-.114 1.035-.194 1.035-.745s.076-.7-.144-1.05-.68-1.531-.785-1.058c-.106.474-.265.824-.558.542s-.671-.88-.804-.542c-.132.338.42.677 0 .677s-.123.022-.123.308.05.556-.262.556c-.311 0-.311.161-.311.161" clip-rule="evenodd"/><path fill="#2B409A" d="M-4-3h18v14H-4z"/><mask id="d" width="18" height="14" x="-4" y="-3" maskUnits="userSpaceOnUse" style="mask-type:luminance"><path fill="#fff" d="M-4-3h18v14H-4z"/></mask><g mask="url(#d)"><path fill="#F7FCFF" d="m-6.004 10 3.96 1.737L14.09-1.111l2.09-2.582-4.237-.58-6.58 5.536-5.296 3.73z"/><path fill="#F50100" d="m-5.462 11.217 2.018 1.008L15.429-3.933h-2.833z"/><path fill="#F7FCFF" d="m16.004 10-3.961 1.737L-4.09-1.111l-2.09-2.582 4.236-.58 6.58 5.536 5.297 3.73z"/><path fill="#F50100" d="m15.869 10.873-2.018 1.009-8.037-6.918-2.382-.773-9.813-7.875h2.834L6.26 4.004l2.605.927z"/><mask id="e" width="22" height="18" x="-6" y="-5" fill="#000" maskUnits="userSpaceOnUse"><path fill="#fff" d="M-6-5h22v18H-6z"/><path fill-rule="evenodd" d="M5.985-3h-2v6H-4v2h7.985v6h2V5H14V3H5.985z" clip-rule="evenodd"/></mask><path fill="#F50100" fill-rule="evenodd" d="M5.985-3h-2v6H-4v2h7.985v6h2V5H14V3H5.985z" clip-rule="evenodd"/><path fill="#F7FCFF" d="M3.985-3v-1.5h-1.5V-3zm2 0h1.5v-1.5h-1.5zm-2 6v1.5h1.5V3zM-4 3V1.5h-1.5V3zm0 2h-1.5v1.5H-4zm7.985 0h1.5V3.5h-1.5zm0 6h-1.5v1.5h1.5zm2 0v1.5h1.5V11zm0-6V3.5h-1.5V5zM14 5v1.5h1.5V5zm0-2h1.5V1.5H14zM5.985 3h-1.5v1.5h1.5zm-2-4.5h2v-3h-2zm1.5 4.5v-6h-3v6zM-4 4.5h7.985v-3H-4zm1.5.5V3h-3v2zm6.485-1.5H-4v3h7.985zm1.5 7.5V5h-3v6zm.5-1.5h-2v3h2zM4.485 5v6h3V5zM14 3.5H5.985v3H14zM12.5 3v2h3V3zM5.985 4.5H14v-3H5.985zM4.485-3v6h3v-6z" mask="url(#e)"/></g></g></g></g><rect width="23" height="17" x=".5" y=".5" stroke="#000" stroke-opacity=".1" rx="1.5"/><defs><clipPath id="a"><rect width="24" height="18" fill="#fff" rx="2"/></clipPath></defs></svg>