<svg xmlns="http://www.w3.org/2000/svg" fill="none" viewBox="0 0 24 18"><g clip-path="url(#a)"><mask id="b" width="24" height="18" x="0" y="0" maskUnits="userSpaceOnUse" style="mask-type:luminance"><path fill="#fff" d="M0 0h24v18H0z"/></mask><g mask="url(#b)"><path fill="#E31D1C" fill-rule="evenodd" d="M0 0v18h24V0H0Z" clip-rule="evenodd"/><mask id="c" width="24" height="18" x="0" y="0" maskUnits="userSpaceOnUse" style="mask-type:luminance"><path fill="#fff" fill-rule="evenodd" d="M0 0v18h24V0H0Z" clip-rule="evenodd"/></mask><g mask="url(#c)"><path fill="#FFC84A" fill-rule="evenodd" d="m12.007 7.47.037.004c.043-.147.119-.388.216-.616.155-.361.6-.564.6-.564s-.22.248-.278.642a5.67 5.67 0 0 0-.052.64l.031.01c.078-.133.208-.344.354-.538.238-.314.72-.403.72-.403s-.274.188-.426.556a5.619 5.619 0 0 0-.199.585l.046.027a5.61 5.61 0 0 1 .45-.428c.303-.252.792-.23.792-.23s-.31.121-.54.446a5.566 5.566 0 0 0-.312.502l.048.046a5.84 5.84 0 0 1 .51-.3c.351-.177.823-.046.823-.046s-.329.049-.626.314a5.482 5.482 0 0 0-.396.394l.042.062c.143-.05.34-.112.538-.157.383-.088.81.154.81.154s-.331-.032-.684.152a5.375 5.375 0 0 0-.446.266c.013.03.025.062.036.094.146-.014.334-.028.52-.027.393 0 .754.332.754.332s-.315-.106-.7-.005a5.28 5.28 0 0 0-.46.145l.015.119c.14.018.308.046.473.084.383.09.66.493.66.493s-.283-.173-.68-.162a5.199 5.199 0 0 0-.447.034 2.458 2.458 0 0 1-.014.129c.125.05.27.113.409.184.35.18.52.639.52.639s-.232-.238-.62-.323a5.108 5.108 0 0 0-.406-.07 2.36 2.36 0 0 1-.052.144c.103.073.218.16.328.252.3.253.364.739.364.739s-.173-.284-.533-.454a5.028 5.028 0 0 0-.354-.15c-.03.047-.06.092-.093.137.08.09.165.192.245.298.236.315.188.802.188.802s-.105-.315-.417-.562c-.098-.078-.2-.15-.294-.214a3.407 3.407 0 0 1-.126.114c.053.102.108.217.157.333.153.362-.01.824-.01.824s-.027-.331-.27-.646a4.843 4.843 0 0 0-.221-.266 2.48 2.48 0 0 1-.161.086c.027.108.053.227.074.345.068.388-.196.8-.196.8s.05-.328-.117-.69a4.858 4.858 0 0 0-.152-.302 2.46 2.46 0 0 1-.18.046 5.8 5.8 0 0 1-.006.345c-.021.393-.371.736-.371.736s.122-.31.042-.7a4.929 4.929 0 0 0-.081-.328 2.575 2.575 0 0 1-.181.001 4.79 4.79 0 0 1-.09.337c-.115.376-.537.624-.537.624s.193-.27.21-.668a4.84 4.84 0 0 0 0-.34 2.483 2.483 0 0 1-.179-.043 4.78 4.78 0 0 1-.165.312c-.197.34-.664.487-.664.487s.249-.22.354-.603a4.67 4.67 0 0 0 .08-.344 2.448 2.448 0 0 1-.158-.082 4.824 4.824 0 0 1-.238.276c-.269.287-.757.325-.757.325s.292-.158.481-.509c.06-.112.116-.228.163-.334a2.472 2.472 0 0 1-.123-.108 4.977 4.977 0 0 1-.315.224c-.33.213-.813.132-.813.132s.321-.083.59-.377c.091-.1.178-.206.252-.301a2.467 2.467 0 0 1-.09-.13 5.03 5.03 0 0 1-.38.156c-.37.134-.822-.054-.822-.054s.332-.008.66-.234c.121-.084.238-.175.337-.256a2.428 2.428 0 0 1-.052-.135c-.128.027-.28.054-.43.073-.391.047-.79-.238-.79-.238s.325.066.696-.08c.15-.06.296-.129.417-.19-.006-.04-.01-.08-.014-.12a5.23 5.23 0 0 1-.474-.034c-.39-.05-.708-.422-.708-.422s.3.143.695.09a5.31 5.31 0 0 0 .484-.09c.003-.037.007-.074.012-.11a5.315 5.315 0 0 1-.486-.15c-.37-.135-.595-.57-.595-.57s.26.208.656.245a5.4 5.4 0 0 0 .532.02l.031-.087a5.41 5.41 0 0 1-.47-.27c-.33-.215-.452-.69-.452-.69s.206.26.584.386c.199.066.403.115.552.148l.036-.056a5.513 5.513 0 0 1-.42-.401c-.268-.288-.272-.778-.272-.778s.138.302.474.516c.188.119.387.222.526.29l.043-.043a5.579 5.579 0 0 1-.336-.509c-.196-.34-.09-.819-.09-.819s.066.326.346.609c.166.168.348.321.468.418l.042-.026a5.616 5.616 0 0 1-.222-.591c-.114-.376.097-.818.097-.818s-.01.332.2.67c.129.21.279.408.374.528a2.14 2.14 0 0 1 .028-.01 5.68 5.68 0 0 1-.076-.646c-.02-.393.293-.77.293-.77s-.09.32.031.699c.075.237.174.467.238.607l.036-.005a5.87 5.87 0 0 1 .073-.653c.069-.387.457-.685.457-.685s-.158.292-.126.689c.02.248.064.495.095.645Z" clip-rule="evenodd"/><path fill="#F7FCFF" fill-rule="evenodd" d="m-.594 10.44 1.812-.736a1.562 1.562 0 0 1 1.188.006l2.414 1.004c.41.171.875.159 1.276-.034l1.873-.899c.42-.201.908-.205 1.33-.01l1.972.911c.413.19.889.192 1.303.003l2.028-.925c.414-.188.89-.187 1.303.003l2.002.925c.406.187.874.191 1.284.01l2.236-.984a1.562 1.562 0 0 1 1.158-.04l2.13.766v7.51H-.661l.067-7.51Z" clip-rule="evenodd"/><mask id="d" width="26" height="9" x="-1" y="9" maskUnits="userSpaceOnUse" style="mask-type:luminance"><path fill="#fff" fill-rule="evenodd" d="m-.594 10.44 1.812-.736a1.562 1.562 0 0 1 1.188.006l2.414 1.004c.41.171.875.159 1.276-.034l1.873-.899c.42-.201.908-.205 1.33-.01l1.972.911c.413.19.889.192 1.303.003l2.028-.925c.414-.188.89-.187 1.303.003l2.002.925c.406.187.874.191 1.284.01l2.236-.984a1.562 1.562 0 0 1 1.158-.04l2.13.766v7.51H-.661l.067-7.51Z" clip-rule="evenodd"/></mask><g mask="url(#d)"><path stroke="#015989" stroke-width="2" d="m-.594 12.184 1.812-.735a1.562 1.562 0 0 1 1.188.005l2.414 1.004c.41.171.875.159 1.276-.034l1.873-.898c.42-.202.908-.206 1.33-.01l1.972.91c.413.191.889.192 1.303.004l2.028-.925c.414-.19.89-.188 1.303.003l2.002.924c.406.188.874.192 1.284.011l2.236-.984a1.562 1.562 0 0 1 1.158-.04l2.13.765M-.594 14.68l1.812-.735a1.562 1.562 0 0 1 1.188.006l2.414 1.004c.41.171.875.159 1.276-.034l1.873-.899c.42-.201.908-.205 1.33-.01l1.972.911c.413.19.889.192 1.303.003l2.028-.925c.414-.188.89-.187 1.303.003l2.002.924c.406.188.874.192 1.284.012l2.236-.985a1.562 1.562 0 0 1 1.158-.04l2.13.766"/><path fill="#015989" fill-rule="evenodd" d="m-.594 16.67.29-.117a5.562 5.562 0 0 1 4.228.019l.896.373c.41.17.875.158 1.276-.034l.175-.084a5.562 5.562 0 0 1 4.739-.035l.26.12c.414.191.89.193 1.304.004l.358-.164a5.562 5.562 0 0 1 4.64.011l.335.155c.406.188.874.192 1.284.011l.774-.34a5.562 5.562 0 0 1 4.123-.144l.627.225v2.487H-.456l-.138-2.487Z" clip-rule="evenodd"/></g><path fill="#FFC84A" fill-rule="evenodd" d="M7.335 2.564H8.73c.352 0 1.145-.538 1.603-.358.459.179 1.231.757 1.231.757s1.275-1.006 2.035-1.006c.76 0 2.131-.112 2.131-.112s-.321.835-1.226.977c-.905.141-1.988.834-1.988.834h1.471c.224 0 .517.338.517.338s-.604.41-.905.41h-.634s-.64.55-1.432.433c-.792-.117-1.427-.843-1.427-.843s-.692-.1-.692-.219c0 0-.082-.037-.12-.036-.218.006-.363.045-.435.036.398-.155.555-.293.555-.293s.274-.257.483-.257c.21 0 .908.43.908.43l.167-.173-.866-.66c-1.765.184-2.771-.258-2.771-.258Z" clip-rule="evenodd"/></g></g></g><path stroke="#000" stroke-opacity=".1" stroke-width=".5" d="M.25.25h23.5v17.5H.25z"/><defs><clipPath id="a"><path fill="#fff" d="M0 0h24v18H0z"/></clipPath></defs></svg>