<svg xmlns="http://www.w3.org/2000/svg" fill="none" viewBox="0 0 24 18"><g clip-path="url(#a)"><mask id="b" width="24" height="18" x="0" y="0" maskUnits="userSpaceOnUse" style="mask-type:luminance"><path fill="#fff" d="M0 0h24v18H0z"/></mask><g mask="url(#b)"><path fill="#F7FCFF" fill-rule="evenodd" d="M0 0v18h24V0z" clip-rule="evenodd"/><mask id="c" width="24" height="18" x="0" y="0" maskUnits="userSpaceOnUse" style="mask-type:luminance"><path fill="#fff" fill-rule="evenodd" d="M0 0v18h24V0z" clip-rule="evenodd"/></mask><g fill-rule="evenodd" clip-rule="evenodd" mask="url(#c)"><path fill="#FF8C1A" d="M0 0v6h24V0z"/><path fill="#5EAA22" d="M0 12v6h24v-6z"/><path fill="#3D58DB" d="M9 9a3 3 0 1 0 6 0 3 3 0 0 0-6 0m5.25 0a2.25 2.25 0 1 1-4.5 0 2.25 2.25 0 0 1 4.5 0"/><path fill="#3D58DB" d="m11.996 9.646-.428 2.34.248-2.366-1.07 2.125.905-2.2-1.625 1.737 1.488-1.856-2.049 1.209 1.951-1.362-2.307.583 2.256-.757-2.378-.09 2.378-.091-2.256-.757 2.307.583-1.951-1.362 2.05 1.209-1.49-1.856 1.626 1.737-.905-2.2 1.07 2.125-.248-2.366.428 2.34.428-2.34-.249 2.366 1.07-2.125-.905 2.2 1.626-1.737-1.489 1.856 2.05-1.21-1.952 1.363 2.307-.583-2.255.757 2.377.09-2.377.091 2.255.757-2.307-.583 1.951 1.362-2.049-1.21 1.489 1.857-1.626-1.738.905 2.2-1.07-2.124.249 2.366z"/></g></g></g><rect width="23" height="17" x=".5" y=".5" stroke="#000" stroke-opacity=".1" rx="1.5"/><defs><clipPath id="a"><rect width="24" height="18" fill="#fff" rx="2"/></clipPath></defs></svg>