<svg xmlns="http://www.w3.org/2000/svg" fill="none" viewBox="0 0 24 18"><g clip-path="url(#a)"><mask id="b" width="24" height="18" x="0" y="0" maskUnits="userSpaceOnUse" style="mask-type:luminance"><path fill="#fff" d="M0 0h24v18H0z"/></mask><g mask="url(#b)"><path fill="#C51918" fill-rule="evenodd" d="M0 0v18h24V0z" clip-rule="evenodd"/><mask id="c" width="24" height="18" x="0" y="0" maskUnits="userSpaceOnUse" style="mask-type:luminance"><path fill="#fff" fill-rule="evenodd" d="M0 0v18h24V0z" clip-rule="evenodd"/></mask><g mask="url(#c)"><path fill="#4257BF" d="M0 0h10.5v7.5H0zm13.5 10.5H24V18H13.5z"/><path fill="#F7FCFF" fill-rule="evenodd" d="M9.75 0h4.5v6.75H24v4.5h-9.75V18h-4.5v-6.75H0v-4.5h9.75z" clip-rule="evenodd"/><path fill="#5AB92D" fill-rule="evenodd" d="M10.4 7.894c-.029-.132-.061-.294-.061-.294a.8.8 0 0 0-.065.47l-.082.125a3 3 0 0 1-.172-.309q.005.09 0 .177c-.003.136-.006.263.054.343v.001l-.035.08c-.082-.089-.22-.248-.22-.248q.015.285.15.448-.024.084-.04.166l-.137-.152c.01.174.038.288.108.385l-.002.082-.148-.165a.63.63 0 0 0 .166.404q.013.088.036.172l.008.032c-.102-.053-.214-.114-.214-.114a.63.63 0 0 0 .273.31q.034.11.075.214c-.12-.037-.3-.097-.3-.097a.64.64 0 0 0 .374.276q.043.095.088.18c-.114-.035-.25-.08-.25-.08.106.16.23.23.363.272q.133.202.281.325c-.113.047-.258.104-.258.104a.62.62 0 0 0 .404-.005l.008.004q.071.036.16.07l-.182.073a.63.63 0 0 0 .397-.004l.006.002c.053.016.108.03.18.05l.163.043a1 1 0 0 1 .217.075l.002.001.087-.067a.1.1 0 0 0-.043-.038 1 1 0 0 0-.236-.083l-.167-.044-.175-.048-.04-.012a.63.63 0 0 0-.093-.387s-.03.22-.05.34a1.5 1.5 0 0 1-.224-.1.63.63 0 0 0-.16-.374l.01.254a1.5 1.5 0 0 1-.213-.267l.064.035c0-.15-.028-.3-.163-.457 0 0 .007.148.01.269a3 3 0 0 1-.114-.24.63.63 0 0 0-.021-.411s-.03.097-.063.195l-.028-.082a.64.64 0 0 0 .078-.46l-.138.26-.013-.045a2 2 0 0 1-.03-.148.63.63 0 0 0 .212-.39s-.136.125-.23.207q-.002-.063.001-.126a.63.63 0 0 0 .262-.338s-.135.086-.24.15q.01-.06.026-.123a.64.64 0 0 0 .312-.368s-.136.087-.242.15q.02-.052.045-.104.027-.063.08-.15a.63.63 0 0 0 .32-.25l-.196.06q.084-.12.196-.27l-.084-.073zm3.035 0c.028-.132.06-.294.06-.294q.107.26.065.47l.082.125c.076-.107.172-.309.172-.309a2 2 0 0 0 0 .177c.003.136.006.263-.054.343v.001q.019.04.035.08c.082-.089.22-.248.22-.248q-.016.285-.15.448.025.084.04.166c.07-.076.136-.152.136-.152-.01.174-.037.288-.107.385l.002.082.148-.165a.63.63 0 0 1-.166.404q-.013.088-.036.172l-.008.032c.102-.053.214-.114.214-.114a.63.63 0 0 1-.273.31 4 4 0 0 1-.074.214c.12-.037.3-.097.3-.097a.64.64 0 0 1-.375.276 3 3 0 0 1-.088.18c.114-.035.25-.08.25-.08a.64.64 0 0 1-.363.272 1.5 1.5 0 0 1-.281.325c.113.047.258.104.258.104a.63.63 0 0 1-.404-.005L13.03 11q-.071.036-.16.07l.182.073a.63.63 0 0 1-.397-.004l-.006.002-.18.05-.163.043a1 1 0 0 0-.217.075l-.002.001-.087-.067a.1.1 0 0 1 .043-.038c.042-.026.112-.049.236-.083l.167-.044c.07-.018.123-.033.175-.048l.04-.012a.63.63 0 0 1 .093-.387s.03.22.05.34a1.5 1.5 0 0 0 .224-.1.63.63 0 0 1 .16-.374l-.01.254q.111-.107.213-.267l-.064.035c0-.15.028-.3.163-.457 0 0-.007.148-.01.269a3 3 0 0 0 .114-.24.63.63 0 0 1 .021-.411s.03.097.063.195l.028-.082a.64.64 0 0 1-.078-.46l.138.26.013-.045q.019-.073.03-.148a.63.63 0 0 1-.212-.39s.136.125.23.207q.002-.063-.001-.126a.63.63 0 0 1-.262-.338s.135.086.24.15l-.026-.123a.64.64 0 0 1-.312-.368s.136.087.242.15l-.044-.104a2 2 0 0 0-.081-.15.63.63 0 0 1-.32-.25l.196.06a9 9 0 0 0-.196-.27l.084-.073z" clip-rule="evenodd"/><path fill="#003994" d="M9.939 6.987c.3-.21.85-.393 1.132-.393l.012-.004a4 4 0 0 0 .188-.111c.2-.114.41-.175.694-.175v.5a.9.9 0 0 0-.472.116c.023-.014-.177.11-.24.136a.5.5 0 0 1-.182.038c-.19 0-.65.152-.874.31-.08.057-.073.04-.07.074.008.122-.001.198-.077.294a.5.5 0 0 0-.027.201l-.468-.005c.002-.197.032-.353.103-.47-.01-.201.06-.356.28-.511"/><path fill="#EBCA5E" d="m10.19 7.174-.052-.083q.36-.256.673-.256a.7.7 0 0 0 .239-.054c.061-.023.124-.052.208-.095.306-.156.314-.16.395-.16h.276v.1h-.276c-.058 0-.077.01-.354.15a2 2 0 0 1-.217.1.8.8 0 0 1-.271.06q-.282-.001-.622.238"/><path fill="#003994" d="M13.874 6.987c-.3-.21-.85-.393-1.132-.393l-.012-.004a4 4 0 0 1-.188-.111 1.3 1.3 0 0 0-.694-.175v.5c.204 0 .338.039.472.116-.023-.014.177.11.24.136q.09.038.182.038c.19 0 .65.152.874.31.08.057.073.04.07.074-.008.122.001.198.077.294.01.012.025.08.027.201l.468-.005c-.002-.197-.032-.353-.103-.47.01-.201-.06-.356-.28-.511"/><path fill="#EBCA5E" d="m13.586 7.174.052-.083q-.36-.256-.674-.256a.7.7 0 0 1-.239-.054 2 2 0 0 1-.208-.095c-.305-.156-.314-.16-.395-.16h-.276v.1h.276c.059 0 .078.01.355.15.087.044.152.074.216.1q.15.058.271.06.282-.001.622.238"/><path fill="#003994" d="m10.367 7.515.245.265v1.105h.246v.07l.362.174s.054-.73-.115-.923c-.17-.193.115-.24.115-.24l.434.434v-.886z"/><path fill="#D62818" d="m13.303 7.515-.244.265v1.105h-.247v.07l-.361.174s-.055-.73.115-.923-.116-.24-.116-.24l-.433.434v-.886z"/><path fill="#FFC300" d="m11.158 7.947-.037.046.721.667.039-.002.596-.667-.04-.042-.578.647z"/><path fill="#FFC300" d="m11.056 8.227-.047.046.92.667.05-.002.761-.667-.052-.042-.738.647z"/><path fill="#D62818" d="M10.633 9.317h.317l.216.065s.069.496.416.496l.057.635-.269-.145s-.175.077-.204.077c-.03 0-.28.14-.28 0s-.253-.366-.253-.366z"/><path fill="#003994" d="M13.139 9.317h-.317l-.216.065s-.07.496-.417.496l-.056.635.269-.145s.174.077.204.077.279.14.279 0 .254-.366.254-.366z"/><path fill="#D62818" d="M12.46 9.376h.375c0 .281-.099.508-.294.662l-.223-.321c.096-.076.142-.182.142-.34m-.982-.772v.526h.436s-.04.394-.04.643.04.572.04.572.107-.053.107-.39v-.861l.344.036-.036-.474h-.146s.224.295 0 .295c-.223 0-.48.058-.528.058s-.177-.405-.177-.405"/><path fill="#003994" d="M11.857 9.24s-.245.145-.245.38c0 .234.123.502.123.502s-.058-.529.032-.67c.09-.14.09-.211.09-.211m-.398.173s-.014.17.087.17-.087-.17-.087-.17"/><path fill="#373737" d="m12.32 8.958.04.134-.642.21-.143-.597.127-.035.11.455z"/><path fill="#D62818" fill-rule="evenodd" d="m10.527 11.557-.056.047a1 1 0 0 1-.048-.076.6.6 0 0 1-.154-.076c-.06-.043-.124-.043-.203.004l-.09-.175c.137-.082.275-.082.396.004l.005.003a.36.36 0 0 1 .193-.25c.191-.109 1.027-.224 1.281-.224v.32c-.206 0-1.006.11-1.14.186l-.01.006q-.027.013-.03.023-.001.008.012.026.01 0 .014-.004l.133.14c-.055.06-.177.07-.303.046m-.896.005s.278.244.478.185c.2-.06.262-.126.262-.126s-.2-.027-.412-.059-.328 0-.328 0" clip-rule="evenodd"/><path fill="#EBCA5E" fill-rule="evenodd" d="m10.55 11.385.033-.048c-.099-.08-.073-.124.117-.166l.05-.011-.011-.06-.05.011c-.23.052-.289.154-.14.274" clip-rule="evenodd"/><path fill="#D62818" fill-rule="evenodd" d="m13.098 11.557.056.047a1 1 0 0 0 .049-.076.6.6 0 0 0 .154-.076c.06-.043.123-.043.203.004l.09-.175c-.138-.082-.275-.082-.397.004l-.004.003a.36.36 0 0 0-.193-.25c-.191-.109-1.028-.224-1.282-.224v.32c.206 0 1.007.11 1.14.186l.011.006q.026.013.03.023.001.008-.013.026-.01 0-.014-.004l-.133.14c.055.06.178.07.303.046m.896.005s-.277.244-.477.185c-.2-.06-.262-.126-.262-.126s.2-.027.412-.059a.9.9 0 0 1 .327 0" clip-rule="evenodd"/><path fill="#EBCA5E" fill-rule="evenodd" d="m13.076 11.385-.034-.048c.1-.08.074-.124-.116-.166l-.05-.011.01-.06.05.011c.23.052.29.154.14.274" clip-rule="evenodd"/><path fill="#D62818" d="m11.524 11.633-.146-.257a.9.9 0 0 1 .51-.126c.208 0 .377.04.505.128l-.152.253q-.115-.08-.352-.081-.239.001-.365.083"/></g></g></g><rect width="23" height="17" x=".5" y=".5" stroke="#000" stroke-opacity=".1" rx="1.5"/><defs><clipPath id="a"><rect width="24" height="18" fill="#fff" rx="2"/></clipPath></defs></svg>