<svg xmlns="http://www.w3.org/2000/svg" fill="none" viewBox="0 0 24 18"><g clip-path="url(#a)"><mask id="b" width="24" height="18" x="0" y="0" maskUnits="userSpaceOnUse" style="mask-type:luminance"><path fill="#fff" d="M0 0h24v18H0z"/></mask><g mask="url(#b)"><path fill="#FF6230" fill-rule="evenodd" d="M0 0h24v18H0V0Z" clip-rule="evenodd"/><path fill="#FECA00" fill-rule="evenodd" d="M0 0v18L24 0H0Z" clip-rule="evenodd"/><path fill="#fff" fill-rule="evenodd" d="m19.745 3.896.387.237-.357.205c.32 0 1.04-.029 1.22-.18l.033-.026c.134-.11 1.428-.506 1.428-.506h-.805c-.441 0-.654.07-.857.235l-.034.029c-.117.097-.188.124-.42.124l-.049.028.04-.076c.172.003.362-.105.576-.301.022-.021.149-.067.307-.124.317-.115.764-.276.764-.38h-.362l.006-.01.002-.001a.87.87 0 0 1-.218.025 2.866 2.866 0 0 0-.246.02c-.207.03-.37.091-.503.212a1.919 1.919 0 0 1-.08.07c.17-.34.3-.616.391-.826a1.86 1.86 0 0 1 .235-.394 8.29 8.29 0 0 0 .213-.297.818.818 0 0 0 .146-.454s-.868.868-.929 1.008c-.065.149-.18.307-.32.498-.17.232-.376.512-.568.884Zm-2.64-.858.152-.24a3.785 3.785 0 0 0-.644-.311 14.558 14.558 0 0 0-.442-.147c-.126-.043-.18-.076-.208-.12-.19-.302-.34-.402-.672-.402 0 0 .267.324.5.558-.383-.179-.497-.214-.624-.214 0 0 1.125.828 1.124.907l.29.004c.002-.132-.07-.253-.212-.37a3.491 3.491 0 0 1 .736.336ZM14.92 2.16c-.202-.13-.349-.174-.485-.082l.56.447a.725.725 0 0 0-.185-.023.554.554 0 0 1-.183-.02c-.003 0-.005-.002-.007-.003-.003-.002-.005-.005-.011-.014l-.004-.005c-.079-.113-.177-.157-.4-.157-.354 0-.55.043-.62.187 0 0 .673-.045 1.225.295.23 0 .326.145.303.518l.29.017c.014-.225-.016-.408-.089-.544.101.079.176.136.196.148.15.09.239.169.267.222l.001.003c.004.006.005.01.005.013 0 .004-.006.007-.018.016l-.006.005.174.226c.138-.1.18-.246.103-.392-.058-.11-.182-.217-.372-.333a4.188 4.188 0 0 1-.238-.157l-.112-.083c-.13-.096-.33-.242-.394-.284Zm-1.53 1.259c.214 0 .514.086.896.261l.124-.256c-.417-.191-.755-.288-1.02-.288-.463 0-.824.134-.824.416 0 .201.16.324.423.375 0 0-.132-.34-.132-.375 0-.013.03-.041.111-.072.105-.039.257-.061.422-.061Zm-.482.732-.043.28c-.409-.058-1.023-.05-1.151 0 0 0 .737-.345 1.194-.28Zm.377 1.52-.084-.272c-.567.166-.845.512-.94.656-.025.023-.039.044-.039.065 0 0 .012-.024.04-.065.106-.096.427-.207.839-.33-.404.425-.471.86-.48 1.032-.011.032-.012.058-.002.076 0 0-.002-.028.001-.076.052-.156.335-.47.694-.845l-.204-.19.175-.052Zm1.096 2.272.11-.261c-.542-.238-.977-.152-1.142-.102-.034 0-.058.009-.072.025 0 0 .025-.011.072-.025.165-.005.555.154 1.032.363Zm.1.404-.155.238c-.432-.288-.79-.513-.953-.536.172-.02.615-.03 1.107.298ZM13.3 8.06s.026-.007.074-.012c-.033-.005-.059-.002-.075.012Zm-1.4-.214.27-.083c-.165-.568-.511-.846-.656-.94-.022-.026-.044-.039-.065-.039 0 0 .025.012.065.039.11.123.24.524.385 1.023Zm-1.342-.233-.226.17c-.308-.419-.567-.752-.712-.83.168.04.588.183.938.66Zm-1.013-.674s.028.003.075.015c-.03-.017-.055-.022-.075-.015Zm8.544 1.117-.104.198.064-.033c.079.144.12.258.12.355 0 .16-.117.267-.28.267V8.49c-.033 0-.084.047-.084.087a.594.594 0 0 0-.077-.19l.108-.056c-.13-.053-.195-.047-.224-.01-.11.14-.215.25-.317.332 0 0-.065-.427.028-.546.167-.214.44-.214.766-.05Zm-3.31 2.856v-.354h-.57c-.032 0-.063.007-.092.013-.053.011-.1.021-.138-.013 0 0-.408-.06-.382-.009.015.031.17.16.33.255a.488.488 0 0 0-.036.041c-.093.12-.028.547-.028.547a2.004 2.004 0 0 0 .328-.348c.018-.028.023-.035.134.02a.153.153 0 0 0 0 .063c.02.136-.116.348-.116.348h.002c.165 0 .526 0 .526-.16 0-.058-.056-.13-.117-.208-.038-.05-.078-.102-.11-.156l.037-.039h.231Z" clip-rule="evenodd"/><path fill="#979797" d="m20.132 4.133.037.065.11-.063-.108-.066-.039.064Zm-.387-.237-.067-.035-.032.062.06.037.039-.064Zm.03.442-.038-.065-.245.14h.283v-.075Zm1.22-.18-.047-.057.048.058Zm.033-.026-.048-.058.048.058Zm1.428-.506.022.072-.022-.147v.075Zm-1.662.235-.047-.058.047.058Zm-.034.029-.048-.058.048.058Zm-.42.124V3.94h-.02l-.017.01.037.065Zm-.049.028-.066-.034-.116.225.22-.126-.038-.065Zm.04-.076v-.075h-.046l-.022.041.067.034Zm.576-.301.05.055-.05-.055Zm.307-.124.025.07-.025-.07Zm.764-.38h.075v-.074h-.075v.075Zm-.362 0v-.074h-.001v.075Zm0 0-.065-.037-.067.114.132-.001v-.075Zm0 0 .065.038v-.001l-.064-.038Zm.006-.01-.058-.046.058.047Zm.002-.001-.059-.047.059.047Zm-.002-.002-.026-.07.026.07Zm-.216.027.004.075-.004-.075Zm-.246.02.01.075-.01-.074Zm-.503.212.051.056-.05-.056Zm-.08.07-.067-.034.115.092-.047-.058Zm.391-.826-.069-.03.069.03Zm.191-.334.062.043-.062-.043Zm.044-.06.06.044-.06-.044Zm0 0-.059-.046-.001.001.06.045Zm0 0 .06.045v-.001l-.06-.045Zm0 0-.06-.045.06.044Zm.213-.297-.063-.04.063.04Zm.146-.454h.075v-.18l-.128.127.053.053Zm-.929 1.008-.069-.03.07.03Zm-.32.498.059.046.001-.002-.06-.044Zm0 0-.06-.046.06.046Zm0 0-.06-.046-.001.001.06.045Zm-3.055-.214.063.04.041-.065-.066-.04-.038.065Zm-.153.24-.039.065.063.037.04-.062-.064-.04Zm-.492-.551.027-.07-.027.07Zm-.442-.147-.024.07.049-.141-.025.07Zm-.208-.12.063-.04-.063.04Zm-.672-.402v-.075h-.16l.102.123.058-.048Zm.5.558-.032.068.085-.121-.053.053Zm-.624-.214v-.075h-.228l.184.135.044-.06Zm1.124.907-.076-.001v.075l.074.001.002-.075Zm.29.004-.001.075.075.002.001-.075-.075-.002Zm-.212-.37.024-.072-.072.13.048-.059Zm.14.048-.026.07.027-.07Zm-2.073-.674-.042-.062-.084.057.08.063.046-.058Zm.485.082-.04.063.04-.063Zm.076.365-.02.072.066-.13-.046.058Zm-.37-.043.03-.069-.03.07Zm0 0 .029-.07-.029.07Zm-.006-.003-.042.062.042-.062Zm-.011-.014-.062.043.062-.043Zm0 0-.062.042.061-.043Zm-.004-.005-.062.043.062-.043Zm-1.02.03-.068-.032-.055.116.128-.009-.005-.075Zm1.225.295-.04.064.018.011h.022v-.075Zm.303.518-.075-.005-.005.075.076.004.004-.074Zm.29.017-.004.075.074.004.005-.074-.075-.005Zm-.089-.544.046-.06-.112.095.066-.035Zm.196.148.04-.064-.04.064Zm.267.222-.067.035.067-.035Zm.001.003-.066.035.066-.035Zm.005.013.074.01-.074-.01Zm-.018.016-.043-.06.043.06Zm-.006.005-.044-.061-.063.045.047.061.06-.045Zm.174.226-.06.046.045.058.06-.043-.045-.06Zm.103-.392-.067.035.066-.035Zm-.372-.333-.039.064.04-.064Zm-.238-.157-.043.06.043-.06Zm-.112-.083-.045.06.045-.06Zm0 0 .044-.06-.044.06Zm0 0 .044-.06-.044.06Zm0 0-.045.06.045-.06Zm-1.027 1.236-.032.068.067.03.032-.065-.068-.033Zm.123-.256.068.033.033-.07-.07-.031-.03.068Zm-1.42.503L12.975 4l.134.025-.05-.126-.07.027Zm-.022-.447.027.07-.027-.07Zm-.103.951-.01.074.074.01.01-.073-.074-.011Zm.043-.28.074.011.011-.075-.075-.01-.01.074Zm-1.194.28-.032-.068.059.138-.027-.07Zm1.487.968.072-.022-.022-.07-.07.02.02.072Zm.084.271.02.072.074-.021-.023-.073-.071.022Zm-1.063.45h-.075l.143.033-.068-.033Zm.879-.395.054.051.194-.204-.27.08.022.073Zm-.482 1.108-.065.037.14-.042-.075.005Zm.695-.921.054.052.053-.055-.056-.052-.05.055Zm-.204-.19-.022-.072-.126.038.097.089.05-.055Zm1.38 1.96.07.029.029-.068-.068-.03-.03.069Zm-.11.26-.03.07.07.03.03-.07-.07-.03Zm-1.103-.337-.057-.048.088.116-.03-.068Zm1.05.98-.042.063.063.042.041-.064-.063-.04Zm.153-.238.063.04.04-.061-.061-.041-.042.062ZM13.3 8.06l-.049-.058.066.13-.018-.072Zm-1.13-.297.023.072.07-.022-.02-.071-.072.02Zm-.27.083-.073.021.022.074.072-.023-.022-.072Zm-.45-1.062v-.075l-.034.142.033-.067Zm-1.118 1-.06.044.044.061.061-.045-.045-.06Zm.226-.171.045.06.06-.045-.045-.06-.06.045Zm-1.013-.674-.025-.07.017.145.008-.075Zm8.44 1.315-.066-.035-.112.211.213-.11-.035-.066Zm.104-.198.067.035.036-.068-.069-.034-.034.067Zm-.04.165.066-.036-.036-.065-.065.034.035.067Zm-.16.622h-.076v.075h.075v-.075Zm0-.354h.074v-.075h-.075v.075Zm-.161-.102-.035-.067-.068.035.037.068.066-.036Zm.108-.057.035.067.144-.074-.15-.062-.028.07Zm-.224-.01.059.047-.06-.047Zm-.317.332-.075.011.02.129.101-.081-.046-.059Zm.028-.546-.059-.047.059.047Zm-2.545 2.452h.075v-.075h-.075v.075Zm0 .354v.075h.075v-.075h-.075Zm-.661-.34.016.072-.016-.073Zm-.138-.014.05-.055-.016-.016-.023-.003-.01.074Zm-.382-.009-.068.033.068-.033Zm.33.255.053.053.068-.069-.083-.049-.038.065Zm-.036.041.059.046-.06-.046Zm-.028.547-.075.01.02.13.101-.082-.046-.058Zm.317-.332-.06-.046.06.046Zm.01-.016.064.041-.063-.041Zm.135.02.072.02.018-.06-.057-.028-.033.067Zm0 .063.074-.01-.074.01Zm-.116.348-.063-.04-.075.115h.138v-.075Zm.002 0V11.4v.075Zm.41-.368-.06.046.06-.046Zm-.11-.156-.055-.051-.038.04.028.048.065-.037Zm.036-.039v-.075h-.032l-.022.024.054.051Zm5.624-6.843-.387-.237-.078.128.387.237.078-.128Zm-.36.334.358-.205-.074-.13-.358.205.075.13Zm1.137-.302a.52.52 0 0 1-.192.076c-.093.023-.207.04-.326.053a6.604 6.604 0 0 1-.655.033v.15c.162 0 .425-.008.67-.034.123-.013.244-.031.346-.056a.65.65 0 0 0 .253-.106l-.096-.116Zm.032-.026-.032.026.096.116.032-.027-.096-.115Zm1.476-.45-.022-.07h-.003l-.011.004-.042.012a35.223 35.223 0 0 0-.61.196c-.17.056-.345.116-.486.17a3.61 3.61 0 0 0-.184.073.564.564 0 0 0-.118.064l.095.116a.474.474 0 0 1 .083-.043c.047-.02.107-.044.176-.07.14-.052.312-.112.482-.168a32.52 32.52 0 0 1 .659-.21l.002-.001h.001l-.022-.072Zm-.805.076h.805v-.15h-.805v.15Zm-.81.218c.185-.15.378-.218.81-.218v-.15c-.451 0-.684.072-.904.252l.095.116Zm-.033.028.034-.028-.096-.115-.034.028.096.115Zm-.468.142a.935.935 0 0 0 .275-.029.545.545 0 0 0 .193-.113l-.096-.115a.398.398 0 0 1-.141.085.798.798 0 0 1-.23.022v.15Zm-.011.018.049-.028-.075-.13-.049.028.075.13Zm-.066-.175-.038.076.133.068.039-.075-.134-.069Zm.593-.323c-.212.194-.383.285-.525.282l-.002.15c.203.003.412-.122.628-.321l-.101-.11Zm.332-.139a9.474 9.474 0 0 0-.278.107.22.22 0 0 0-.054.033l.101.11c-.004.004-.002.001.017-.007a9.288 9.288 0 0 1 .266-.101l-.052-.142Zm.715-.308c0-.014.007-.018 0-.009a.223.223 0 0 1-.041.033 1.17 1.17 0 0 1-.177.092 7.866 7.866 0 0 1-.497.192l.051.142c.158-.058.352-.128.507-.197.077-.034.147-.07.2-.104a.364.364 0 0 0 .069-.058.139.139 0 0 0 .038-.091h-.15Zm-.287.075h.362v-.15h-.362v.15Zm0 0-.001-.15.001.15Zm-.064-.115v.002l.128.076.001-.001-.129-.077Zm.011-.017-.011.018.13.075-.119-.093Zm.002-.002-.002.002.118.093.002-.002-.118-.093Zm.083.115-.004.001s-.007.002-.016.002c-.002 0-.041.003-.065-.034a.074.074 0 0 1-.006-.069l.007-.013.001-.002.117.094.002-.002.003-.005a.075.075 0 0 0 .014-.037.075.075 0 0 0-.012-.047.072.072 0 0 0-.066-.034c-.01 0-.016.002-.018.002l-.01.003.053.141Zm-.238.031a.917.917 0 0 0 .238-.031l-.052-.14a.844.844 0 0 1-.195.022l.01.15Zm-.24.021a2.37 2.37 0 0 1 .24-.02l-.009-.15a2.932 2.932 0 0 0-.251.022l.02.148Zm-.462.193c.117-.108.265-.166.462-.193l-.02-.148c-.216.03-.396.095-.543.23l.101.11Zm-.083.072a2.35 2.35 0 0 0 .083-.072l-.101-.111a1.78 1.78 0 0 1-.077.067l.095.116Zm.274-.914c-.09.209-.22.482-.389.822l.135.067c.17-.34.3-.617.392-.829l-.138-.06Zm.199-.347a1.93 1.93 0 0 0-.199.347l.138.06c.048-.11.106-.21.184-.321l-.123-.086Zm.045-.062-.045.062.123.086.043-.059-.121-.089Zm0 0 .12.09V2.3l-.12-.089Zm.001-.001.119.091-.119-.091Zm-.001.001.12.089-.12-.089Zm.21-.292a8.382 8.382 0 0 1-.21.292l.12.089c.064-.086.18-.242.217-.301l-.127-.08Zm.134-.413a.745.745 0 0 1-.134.413l.127.08a.892.892 0 0 0 .157-.494h-.15Zm-.785 1.036a.445.445 0 0 1 .047-.066 3.14 3.14 0 0 1 .111-.13c.089-.1.202-.22.314-.337a31.797 31.797 0 0 1 .404-.413l.027-.028a.815.815 0 0 0 .01-.009l-.053-.054-.053-.053v.001l-.003.002-.007.007-.027.028-.1.1c-.082.084-.193.197-.306.315-.112.117-.227.24-.318.341a4.778 4.778 0 0 0-.116.136.521.521 0 0 0-.068.1l.138.06Zm-.329.513c.138-.188.26-.354.33-.513l-.139-.06c-.06.14-.17.291-.312.484l.121.09Zm-.002.002-.117-.092.117.092Zm0 0-.118-.092.119.092Zm-.56.872c.19-.366.392-.642.562-.874l-.121-.089c-.17.233-.38.517-.574.894l.133.07Zm-2.617-1.173-.153.241.127.08.153-.24-.127-.08Zm-.607-.2c.212.079.416.175.632.305l.077-.129a3.858 3.858 0 0 0-.656-.317l-.053.14Zm-.392-.288h.002l.005.002a.145.145 0 0 1 .044.075.139.139 0 0 1-.089.068l-.004-.001a.254.254 0 0 0-.003-.001h.001l.01.003.037.012a26.106 26.106 0 0 1 .39.13l.052-.14a8.6 8.6 0 0 0-.397-.133l-.037-.012-.01-.003h-.003l-.002-.001h-.002l-.004-.002a.139.139 0 0 0-.089.068c.009.04.04.073.044.074a.139.139 0 0 0 .006.002l.05-.141ZM15.9 2.26c.043.069.122.108.247.15l.049-.141c-.128-.044-.158-.07-.17-.089l-.126.08Zm-.61-.367c.16 0 .265.024.351.077.088.053.165.142.259.29l.126-.08c-.097-.154-.19-.266-.307-.338a.788.788 0 0 0-.428-.099v.15Zm.554.43a7.95 7.95 0 0 1-.484-.539l-.009-.01-.002-.003-.058.047-.058.048.003.004.009.01.034.04.118.138c.096.111.223.252.34.37l.107-.105Zm-.677-.086c.108 0 .206.027.592.207l.064-.136c-.381-.178-.51-.221-.656-.221v.15Zm1.199.833a.095.095 0 0 0-.013-.046.527.527 0 0 0-.058-.07 2.46 2.46 0 0 0-.131-.117 12.36 12.36 0 0 0-.389-.31 33.04 33.04 0 0 0-.387-.295l-.128-.095-.035-.026-.01-.007a.063.063 0 0 1-.002-.002h-.001l-.045.06-.044.06.003.002.01.007.035.027.127.094.386.293c.14.108.28.219.383.306a2.254 2.254 0 0 1 .152.141l.002.003a.062.062 0 0 1-.006-.027l.15.002Zm.216-.072-.29-.004-.003.15.291.004.002-.15Zm-.26-.238c.132.11.186.212.184.312l.15.003c.003-.165-.088-.306-.24-.43l-.095.115Zm.214-.08a5.073 5.073 0 0 0-.143-.049l-.048.143.139.047.052-.14Zm.607.294a3.567 3.567 0 0 0-.607-.293l-.053.14c.196.073.383.161.583.282l.077-.129Zm-2.665-.835a.2.2 0 0 1 .161-.03c.065.012.142.05.241.113l.082-.126a.884.884 0 0 0-.294-.135.348.348 0 0 0-.274.054l.084.124Zm.565.326a132.475 132.475 0 0 1-.511-.408l-.036-.028-.01-.008-.002-.002-.048.058-.047.058.001.001.002.002.01.008.036.028.128.103.384.306.093-.118Zm-.232.111a.65.65 0 0 1 .166.02l.039-.145a.8.8 0 0 0-.205-.025v.15Zm-.212-.025a.61.61 0 0 0 .212.025v-.15a.516.516 0 0 1-.155-.014l-.057.139Zm0 0 .057-.139-.057.139Zm-.02-.01.02.01.057-.14c-.002 0-.002 0 0 0l.007.005-.084.124Zm-.03-.034a.36.36 0 0 0 .009.013.097.097 0 0 0 .021.02l.084-.124a.055.055 0 0 1 .012.01l-.004-.005-.123.086Zm-.001 0 .123-.086-.123.085Zm-.004-.005.004.004.123-.086-.004-.004-.123.086Zm-.337-.125c.107 0 .176.011.225.03.047.02.08.048.112.095l.123-.086a.39.39 0 0 0-.178-.147.754.754 0 0 0-.282-.042v.15Zm-.554.145c.023-.047.067-.083.156-.108.092-.026.222-.037.398-.037v-.15c-.179 0-.325.01-.438.042-.114.032-.204.09-.25.188l.134.065Zm1.197.199a2.171 2.171 0 0 0-.849-.286 2.625 2.625 0 0 0-.417-.02h-.003l.005.074.005.075h.001a.399.399 0 0 1 .026-.001h.08c.07 0 .168.005.284.02.231.031.526.103.79.265l.078-.127Zm.339.585c.012-.19-.005-.338-.068-.442-.067-.111-.178-.155-.31-.155v.15c.097 0 .15.03.182.083.038.062.058.172.046.355l.15.01Zm.22-.062-.29-.017-.01.15.29.017.01-.15Zm-.16-.434c.064.12.094.288.08.504l.15.01c.015-.233-.016-.432-.098-.585l-.132.071Zm.301.049a4.437 4.437 0 0 1-.189-.143l-.092.118c.099.077.178.138.203.153l.078-.128Zm.294.251a.436.436 0 0 0-.106-.12 1.529 1.529 0 0 0-.188-.131l-.078.128c.072.044.129.084.17.118a.33.33 0 0 1 .07.075l.132-.07Zm.002.003-.002-.003-.132.07.001.003.133-.07Zm.012.059a.085.085 0 0 0-.005-.044l-.007-.015-.133.07a.065.065 0 0 1-.003-.033l.148.022Zm-.048.066.02-.015a.086.086 0 0 0 .028-.051l-.148-.022a.067.067 0 0 1 .01-.029l.01-.01-.008.005.088.122Zm-.006.004.006-.004-.088-.122-.006.005.088.121Zm.19.12-.175-.226-.119.091.175.227.119-.092Zm-.024-.31c.03.057.036.11.023.158a.256.256 0 0 1-.103.138l.088.12a.406.406 0 0 0 .16-.22.365.365 0 0 0-.035-.267l-.133.07Zm-.344-.305c.188.114.296.213.344.304l.133-.07c-.068-.129-.206-.245-.399-.362l-.078.128Zm-.242-.16c.085.06.164.113.242.16l.078-.128a4.104 4.104 0 0 1-.233-.155l-.087.123Zm-.114-.083.114.083.087-.123-.112-.081-.089.12Zm0 0 .09-.121-.09.12Zm0 0 .09-.121-.09.12Zm0 0 .089-.122-.089.122Zm-.39-.282c.062.04.258.185.39.281l.089-.12c-.129-.095-.331-.244-.397-.287l-.082.126Zm-.561 1.389c-.385-.176-.698-.268-.928-.268v.15c.197 0 .486.08.865.254l.063-.136Zm.025-.22-.124.255.135.066.124-.256-.135-.066Zm-.953-.181c.248 0 .575.091.989.281l.063-.136c-.421-.193-.771-.295-1.052-.295v.15Zm-.749.341c0-.1.062-.184.195-.246.135-.062.328-.095.554-.095v-.15c-.237 0-.455.034-.617.11-.163.075-.282.2-.282.381h.15Zm.363.301a.597.597 0 0 1-.276-.114.233.233 0 0 1-.087-.187h-.15c0 .123.05.225.14.301.086.074.205.12.344.148l.028-.148Zm-.222-.3c0 .01.002.02.003.025a.447.447 0 0 0 .022.071 4.821 4.821 0 0 0 .107.29l.004.011.001.003v.001l.07-.027.07-.027v-.001l-.001-.003a.637.637 0 0 0-.004-.01c-.004-.01-.01-.023-.015-.04a12.68 12.68 0 0 1-.09-.245 1.067 1.067 0 0 1-.014-.043l-.003-.012v.006h-.15Zm.16-.143a.455.455 0 0 0-.103.052.175.175 0 0 0-.034.03.095.095 0 0 0-.023.06h.15a.062.062 0 0 1-.006.026.042.042 0 0 1-.005.01l.005-.004a.313.313 0 0 1 .069-.033l-.053-.141Zm.448-.066c-.17 0-.332.023-.448.066l.053.14c.093-.034.235-.056.395-.056v-.15Zm-.45 1.098.042-.28-.149-.022-.042.28.149.022Zm-1.2.059a.714.714 0 0 1 .157-.025 4.916 4.916 0 0 1 .958.029l.021-.148a5.062 5.062 0 0 0-.992-.03.812.812 0 0 0-.197.034l.054.14Zm1.178-.424c-.247-.036-.56.04-.802.118a4.348 4.348 0 0 0-.4.153l-.025.01-.007.004h-.001l-.001.001.032.068.031.068.002-.001.006-.003a1.577 1.577 0 0 1 .112-.048 5.6 5.6 0 0 1 .297-.11c.24-.077.525-.142.735-.112l.021-.148Zm.211 1.344.084.271.143-.044-.083-.271-.143.044Zm-.805.675c.088-.134.353-.466.898-.625l-.042-.144c-.59.172-.88.533-.982.687l.126.082Zm-.113-.097c-.03.027-.064.068-.064.121h.15c0 .006-.002.01 0 .007a.08.08 0 0 1 .014-.016l-.1-.112Zm.011.121.068.033V6.15a.85.85 0 0 1 .033-.055l-.125-.082a.978.978 0 0 0-.04.067l-.002.004v.002l.066.033Zm.857-.467a8.307 8.307 0 0 0-.54.177c-.143.055-.262.11-.328.17l.1.111a1.04 1.04 0 0 1 .282-.14 7.87 7.87 0 0 1 .53-.175l-.044-.143Zm-.384 1.108c.01-.16.072-.576.46-.985l-.109-.103c-.42.442-.49.896-.5 1.08l.149.008Zm-.146-.028c-.013.039-.022.09.005.137l.13-.075.003.007c0-.003 0-.01.004-.022l-.142-.047Zm.07.1.075-.005V6.81l.001-.05-.15-.01a.95.95 0 0 0-.001.062v.023l.075-.004Zm.64-.973c-.179.188-.34.362-.465.508a2.683 2.683 0 0 0-.156.201.692.692 0 0 0-.09.164l.143.047a.554.554 0 0 1 .07-.126 2.53 2.53 0 0 1 .148-.189c.12-.143.28-.314.46-.501l-.11-.104Zm-.2-.083.204.19.102-.11-.204-.19-.102.11Zm.205-.179-.176.052.043.144.175-.052-.042-.144Zm1.158 2.054-.11.262.138.058.11-.261-.138-.059Zm-1.051 0c.153-.046.57-.13 1.09.098l.06-.137c-.562-.247-1.017-.158-1.194-.105l.044.144Zm-.024-.147c-.04.001-.093.01-.127.052l.115.096c-.004.005-.007.005-.005.005a.066.066 0 0 1 .021-.003l-.004-.15Zm-.07.1.03.068h.003a.787.787 0 0 1 .06-.02l-.043-.145a.972.972 0 0 0-.078.027l-.001.001.03.069Zm1.134.27a11.746 11.746 0 0 0-.637-.264 2.689 2.689 0 0 0-.242-.079.692.692 0 0 0-.185-.027l.004.15a.554.554 0 0 1 .143.023c.064.016.14.041.228.073.175.065.39.156.628.26l.06-.137Zm-.022.751.154-.238-.126-.082-.154.239.126.081Zm-1.027-.503c.03.004.076.02.137.047.06.028.131.066.212.113.162.093.357.22.574.365l.083-.125a11.745 11.745 0 0 0-.582-.37 2.698 2.698 0 0 0-.225-.12.692.692 0 0 0-.177-.058l-.021.148Zm1.16.162c-.511-.341-.974-.332-1.157-.31l.017.148c.16-.019.584-.029 1.057.287l.083-.125ZM13.3 8.06l.017.073h.003a.468.468 0 0 1 .063-.01l-.017-.15a.943.943 0 0 0-.077.012l-.005.001h-.002v.001l.018.073Zm.085-.086c-.04-.006-.093-.006-.134.028l.097.115c-.005.004-.009.004-.006.004h.021l.022-.147Zm-1.237-.283-.27.084.043.143.272-.083-.045-.144Zm-.675-.806c.134.089.466.353.625.899l.144-.042c-.172-.59-.532-.88-.686-.982l-.083.125Zm.097-.112c-.027-.03-.067-.064-.12-.064v.15c-.007 0-.01-.002-.007 0a.08.08 0 0 1 .016.014l.111-.1Zm-.12.011-.034.067.003.002a.816.816 0 0 1 .055.033l.082-.126a.95.95 0 0 0-.067-.04l-.004-.002h-.002v-.001l-.034.067Zm.521 1.041c-.073-.25-.142-.477-.207-.657a2.683 2.683 0 0 0-.096-.236.69.69 0 0 0-.098-.16l-.111.1c.02.023.045.064.074.125.028.06.058.134.09.222.063.176.132.399.204.648l.144-.042Zm-1.594.019.226-.172-.09-.12-.226.172.09.12Zm-.793-.824a.555.555 0 0 1 .112.09c.047.047.101.107.161.179.12.143.26.33.414.54l.121-.09c-.154-.21-.297-.4-.42-.546a2.689 2.689 0 0 0-.17-.19.692.692 0 0 0-.147-.115l-.07.132Zm1.034.548c-.363-.495-.801-.645-.98-.687l-.035.146c.156.036.558.172.895.63l.12-.089ZM9.545 6.94l-.008.075a.186.186 0 0 1 .015.002.807.807 0 0 1 .05.01l.035-.145a.95.95 0 0 0-.083-.016l-.009.074Zm.11-.051c-.035-.02-.085-.037-.135-.02l.051.142c-.006.002-.009 0-.007.001.003 0 .01.003.02.009l.071-.132Zm8.396 1.4.105-.197-.133-.07-.104.198.132.07Zm-.037-.134-.063.033.069.133.063-.033-.069-.133Zm.23.422c0-.117-.05-.244-.13-.391l-.131.072c.077.142.11.241.11.319h.15Zm-.356.342a.364.364 0 0 0 .253-.094.335.335 0 0 0 .103-.248h-.15a.185.185 0 0 1-.056.139.214.214 0 0 1-.15.053v.15Zm-.075-.429v.354h.15V8.49h-.15Zm.068.087c0 .005-.002.007 0 .004a.048.048 0 0 1 .017-.017.031.031 0 0 1-.01.001v-.15a.132.132 0 0 0-.062.017.192.192 0 0 0-.044.033.162.162 0 0 0-.052.112h.15Zm-.219-.153a1.089 1.089 0 0 1 .067.147c.002.01.002.01.002.006h.15a.176.176 0 0 0-.008-.047 1.24 1.24 0 0 0-.08-.179l-.131.073Zm.14-.16-.109.057.07.133.108-.056-.069-.133Zm-.131.104c-.004.004-.006 0 .014 0 .023 0 .062.008.123.033l.057-.139a.504.504 0 0 0-.178-.045.16.16 0 0 0-.134.058l.118.093Zm-.33.344c.11-.087.218-.202.33-.344l-.118-.093a1.93 1.93 0 0 1-.305.32l.093.117Zm-.077-.652a.355.355 0 0 0-.06.173 1.26 1.26 0 0 0-.005.194 2.327 2.327 0 0 0 .02.232l.001.004v.001l.075-.01.074-.012v-.004a1.11 1.11 0 0 1-.015-.386.221.221 0 0 1 .028-.099l-.118-.093Zm.859-.07a.993.993 0 0 0-.48-.125.495.495 0 0 0-.379.195l.118.093a.345.345 0 0 1 .268-.138.848.848 0 0 1 .406.109l.067-.134Zm-3.42 2.57v.353h.15v-.354h-.15Zm-.494.074h.57v-.15h-.57v.15Zm-.076.011a.37.37 0 0 1 .076-.01v-.15a.507.507 0 0 0-.108.014l.032.146Zm-.204-.03c.07.064.16.04.204.03l-.032-.146a.287.287 0 0 1-.058.009c-.009 0-.01-.002-.013-.004l-.101.11Zm-.265-.098a.067.067 0 0 1-.005.067c-.012.017-.027.022-.027.022l.017-.001c.03-.001.074 0 .123.005a3.624 3.624 0 0 1 .18.021l.012.002h.004l.011-.074.011-.074h-.005l-.013-.002a3.119 3.119 0 0 0-.33-.028.218.218 0 0 0-.062.01.093.093 0 0 0-.045.035.083.083 0 0 0-.006.083l.135-.066Zm.301.223a1.995 1.995 0 0 1-.282-.205.337.337 0 0 1-.019-.019c-.005-.006-.003-.005 0 .001l-.135.066a.154.154 0 0 0 .024.033 1.274 1.274 0 0 0 .108.096c.063.05.144.108.228.157l.076-.129Zm-.015.152a.404.404 0 0 1 .03-.034l-.106-.106a.566.566 0 0 0-.042.048l.118.093Zm-.087.5.074-.01v-.002l-.001-.003a1.98 1.98 0 0 0-.008-.061 2.185 2.185 0 0 1-.011-.155 1.098 1.098 0 0 1 .005-.17.223.223 0 0 1 .028-.098l-.118-.093a.355.355 0 0 0-.06.173 1.248 1.248 0 0 0-.005.194c.002.063.008.122.012.165l.007.052.002.015v.005l.075-.011Zm.258-.377a1.93 1.93 0 0 1-.305.32l.093.116c.109-.086.218-.202.33-.344l-.118-.092Zm.007-.011a.156.156 0 0 1-.007.01l.118.093.014-.02-.125-.083Zm.23-.007a1.155 1.155 0 0 0-.07-.032.211.211 0 0 0-.058-.016.1.1 0 0 0-.072.02c-.017.013-.027.031-.03.035l.126.082.002-.004h.001l-.002.001a.053.053 0 0 1-.024.014.044.044 0 0 1-.014.002l.015.005a.974.974 0 0 1 .06.028l.066-.135Zm.04.12c-.003-.025 0-.032 0-.031l-.144-.043a.227.227 0 0 0-.004.096l.149-.021Zm-.19.359.064.04.002-.003c0-.002.003-.004.005-.007a1.358 1.358 0 0 0 .063-.122.788.788 0 0 0 .046-.125.365.365 0 0 0 .01-.141l-.148.021a.22.22 0 0 1-.008.082.64.64 0 0 1-.036.101 1.03 1.03 0 0 1-.042.082l-.014.024-.004.006v.001l.063.041Zm.003-.075h-.002v.15h.002v-.15Zm.45-.085c0 .006 0 .015-.023.029a.351.351 0 0 1-.116.037 1.863 1.863 0 0 1-.311.019v.15c.081 0 .22 0 .338-.021a.492.492 0 0 0 .168-.058.182.182 0 0 0 .095-.156h-.15Zm-.1-.162c.031.04.058.074.076.105.02.032.025.05.025.057h.15a.268.268 0 0 0-.047-.135c-.024-.04-.056-.08-.085-.12l-.12.092Zm-.115-.165c.034.06.077.116.115.165l.119-.092a1.326 1.326 0 0 1-.104-.147l-.13.074Zm.047-.127-.037.039.11.102.036-.039-.11-.102Zm.285-.024h-.23v.15h.23v-.15Z"/><path fill="#fff" fill-rule="evenodd" d="m19.686 4.507.383-.001c.006.34-.035.622-.068.856-.028.192-.05.351-.04.483.012.122-.286 1.096-.286 1.096a.624.624 0 0 1-.073-.377 5.53 5.53 0 0 1 .04-.297l.008-.06a1.47 1.47 0 0 0 .008-.314 14.49 14.49 0 0 1-.04-.74l-.032.083a.788.788 0 0 1-.288.362c-.05.037-.083.06-.174.12a.792.792 0 0 0-.15.111c-.003.004-.003.003-.002 0v-.012l-.269.155c-.04-.071.227-.375.417-.59.094-.108.17-.194.178-.218.08-.228.178-.384.308-.456l-.002-.07-.025.041c-.172.1-.214.149-.262.267l-.014.034c-.084.201-.214.341-.542.53l-.598.346s.802-.83.858-.964l.013-.032c.075-.182.597-.51.836-.648l-.184.295Z" clip-rule="evenodd"/><path fill="#979797" d="m19.686 4.507-.064-.04-.072.116h.136v-.076Zm.383-.001.075-.001-.002-.074h-.074v.075ZM20 5.362l.074.01-.074-.01Zm-.04.483.075-.007-.074.007Zm-.286 1.096-.065.037.086.15.05-.165-.071-.022Zm-.073-.377.075.006-.075-.006Zm.04-.297.073.011-.074-.01Zm.008-.06-.075-.01.075.01Zm.008-.314.075-.007-.075.007Zm-.04-.74.075-.002-.144-.027.069.03Zm-.032.083.07.025-.07-.025Zm-.288.362-.046-.06.046.06Zm-.174.12-.042-.063.041.063Zm-.15.111.057.05-.057-.05Zm-.002 0 .073.013-.073-.014Zm0-.002.074.013-.074-.013Zm0-.009-.072-.02-.002.009v.009l.075.002Zm0 0 .073.02.002-.009v-.008l-.074-.003Zm0-.001.076.003.005-.137-.118.069.038.065Zm-.269.155-.064.038.037.064.065-.037-.038-.065Zm.417-.59-.054-.053-.003.003.057.05Zm0 0 .053.052.003-.003-.056-.05Zm.178-.218.07.025-.07-.025Zm.308-.456.036.065.04-.022-.001-.045-.075.002Zm-.002-.07h.075l-.005-.253-.134.214.064.04Zm-.025.041.037.065.017-.01.01-.015-.064-.04Zm-.262.267.07.028-.07-.028Zm-.014.034.07.029-.07-.03Zm-.542.53.038.065-.038-.065Zm-.598.346-.054-.053.091.118-.037-.065Zm.858-.964.07.029-.07-.029Zm.013-.032.07.028-.07-.028Zm.836-.648.063.04-.1-.104.037.064Zm-.184.37.383-.001v-.15l-.383.001v.15Zm.308-.075a4.97 4.97 0 0 1-.068.844l.149.021c.033-.233.075-.521.069-.867l-.15.002Zm-.068.844c-.027.19-.052.358-.039.5l.15-.013a2.2 2.2 0 0 1 .038-.466l-.149-.02Zm-.039.5-.001.018a2.564 2.564 0 0 1-.037.181 25.824 25.824 0 0 1-.233.827l-.01.03-.002.009v.002h-.001l.072.023.072.022V6.96l.003-.009.01-.03a20.479 20.479 0 0 0 .234-.836c.014-.055.025-.104.032-.144a.431.431 0 0 0 .01-.103l-.149.013Zm-.147 1.052a.55.55 0 0 1-.063-.333l-.15-.011a.7.7 0 0 0 .083.42l.13-.076Zm-.063-.333c.003-.05.025-.202.038-.292l-.148-.022a5.893 5.893 0 0 0-.04.303l.15.01Zm.038-.292.01-.063-.15-.018-.008.06.148.021Zm.01-.063a1.54 1.54 0 0 0 .008-.329l-.15.013c.009.096.006.189-.008.298l.15.018Zm.008-.329c-.016-.183-.03-.427-.04-.735l-.15.005c.01.309.024.557.04.743l.15-.013Zm-.076-.625.03-.079-.138-.058a1.568 1.568 0 0 0-.034.087l.142.05Zm-.314.396a.861.861 0 0 0 .314-.396l-.142-.05a.715.715 0 0 1-.263.327l.091.12Zm-.178.123c.091-.06.127-.084.178-.123l-.09-.12a2.578 2.578 0 0 1-.17.118l.082.125Zm-.134.098a.773.773 0 0 1 .134-.098l-.083-.125a.843.843 0 0 0-.165.125l.114.098Zm-.133-.063v.002l-.001.005a.075.075 0 0 0 .043.077.075.075 0 0 0 .084-.014l.007-.007-.114-.098.003-.003a.07.07 0 0 1 .033-.018.075.075 0 0 1 .093.064v.019l-.148-.027Zm0-.002v.002l.147.027V5.84l-.147-.027Zm0 .003v-.002l.148.025.002-.019-.15-.004Zm.002-.017.145.038L18.9 5.8Zm-.002.015.15.007V5.82l-.15-.006Zm-.157.223.27-.155-.076-.13-.269.155.075.13Zm.322-.705c-.094.107-.21.24-.298.353a1.244 1.244 0 0 0-.107.16.32.32 0 0 0-.03.072.124.124 0 0 0 .01.093l.13-.075c.01.016.005.027.007.018a.186.186 0 0 1 .016-.038 1.1 1.1 0 0 1 .093-.138c.084-.11.196-.237.292-.346l-.113-.099Zm.003-.003.108.105-.108-.105Zm.162-.19c.002-.006.002-.005-.008.01l-.036.044c-.031.038-.073.085-.12.139l.112.1.123-.142.041-.052a.204.204 0 0 0 .029-.049l-.142-.05Zm.341-.497c-.154.087-.26.266-.341.497l.14.05c.08-.224.17-.357.274-.416l-.073-.13Zm.112.064-.002-.069-.15.003.002.07.15-.004Zm-.038.013.025-.04-.128-.08-.025.04.128.08Zm-.257.255a.338.338 0 0 1 .07-.117.726.726 0 0 1 .16-.113l-.075-.13a.86.86 0 0 0-.193.14.483.483 0 0 0-.1.163l.138.057Zm-.014.034.014-.034-.138-.057-.014.034.138.057Zm-.573.567c.335-.193.48-.344.573-.566l-.138-.058c-.076.18-.19.31-.51.494l.075.13Zm-.599.346.599-.346-.075-.13-.599.346.075.13Zm.752-1.058a.436.436 0 0 1-.043.063 3.034 3.034 0 0 1-.102.124c-.083.096-.187.211-.291.323a29.425 29.425 0 0 1-.373.395l-.025.026-.007.007-.002.002.054.053.054.052.002-.003.007-.007.026-.026a20.554 20.554 0 0 0 .374-.397c.104-.112.21-.23.294-.327.042-.049.08-.093.108-.13a.503.503 0 0 0 .062-.097l-.138-.058Zm.013-.031-.013.032.138.057.014-.033-.14-.056Zm.867-.684a6.19 6.19 0 0 0-.485.31 2.502 2.502 0 0 0-.235.188.586.586 0 0 0-.147.186l.139.056a.458.458 0 0 1 .11-.131c.06-.056.137-.116.22-.176a6.06 6.06 0 0 1 .473-.304l-.075-.13Zm-.082.4.183-.296-.127-.08-.184.296.128.08Z"/><path fill="#fff" fill-rule="evenodd" d="M9.038 12.964v.354h-.231l-.037.039c.031.054.072.106.11.155.061.08.116.15.116.209 0 .16-.36.16-.525.16h-.003s.136-.212.116-.348a.152.152 0 0 1 .001-.064c-.112-.054-.116-.047-.135-.02l-.01.017c-.11.139-.215.25-.318.331 0 0-.065-.427.028-.546a.471.471 0 0 1 .037-.041c-.161-.096-.316-.224-.33-.255-.026-.051.382.009.382.009.038.034.084.024.137.013a.4.4 0 0 1 .092-.013h.57Zm12.943-6.976-.127-.068c.06-.107.018-.168-.173-.219-.223-.059-.607-.074-1.155-.043a3.339 3.339 0 0 0-.54.037c.008-.001-.169.026-.211.031a.747.747 0 0 1-.187.003c-.164-.021-.319-.115-.59-.353-.252-.22-.424-.334-.593-.394-.171-.06-.292-.067-.745-.06l-.29.003v-.142c.089 0 .165 0 .287-.003.473-.007.603.001.798.07.19.066.376.19.64.42.251.222.385.302.512.318a.6.6 0 0 1 .024.004l.015.002c.028.004.056 0 .246-.028l.073-.011c.174-.026.332-.039.523-.039.02-.076.056-.252-.01-.292-.086-.051-.15-.13-.15-.13s.434-.084.473.051c.04.136 0 .348 0 .348l-.075.014a8.47 8.47 0 0 1 .307-.006c.015-.083.037-.24-.01-.277a.559.559 0 0 1-.113-.13s.327-.084.356.051c.03.136 0 .348 0 .348l-.045.011c.208.008.373.028.498.06.272.072.375.225.262.424Z" clip-rule="evenodd"/><path fill="#979797" d="m21.854 5.92-.044-.025-.025.045.045.024.024-.044Zm.127.068-.024.044.043.023.025-.042-.044-.025Zm-.3-.287-.013.048.013-.048Zm-1.155-.043v.05h.003l-.003-.05Zm-.751.068.006.05-.006-.05Zm-.187.003.006-.05-.006.05Zm-.59-.353-.034.037.033-.037Zm-.593-.394-.016.048.016-.048Zm-.745-.06-.001-.05v.05Zm-.29.003h-.05v.05h.05v-.05Zm0-.142v-.05h-.05v.05h.05Zm.287-.003v-.05.05Zm.798.07.016-.048-.016.047Zm.64.42-.034.038.033-.037Zm.512.318-.007.05.007-.05Zm.024.004.009-.05-.009.05Zm.015.002-.005.05.005-.05Zm.246-.028-.008-.05.008.05Zm.073-.011-.007-.05.007.05Zm.523-.039v.05h.038l.01-.037-.048-.013Zm-.01-.292.025-.043-.025.043Zm-.15-.13-.009-.05-.08.015.05.065.04-.03Zm.473.051-.048.014.048-.014Zm0 .348.009.05.034-.007.006-.034-.049-.009Zm-.075.014-.009-.05.011.1-.002-.05Zm.307-.006v.05h.042l.007-.041-.049-.01Zm-.01-.277-.032.04.032-.04Zm-.113-.13-.012-.05-.065.017.034.058.043-.026Zm.356.051-.048.011.048-.01Zm0 .348.012.049.033-.008.005-.034-.05-.007Zm-.045.011-.012-.048.01.098.002-.05Zm.498.06.012-.048-.012.048Zm.111.4.127.068.048-.088-.127-.068-.048.088Zm-.162-.215a.597.597 0 0 1 .107.038c.026.012.04.024.047.033a.033.033 0 0 1 .007.024.128.128 0 0 1-.019.051l.087.05a.226.226 0 0 0 .032-.094.133.133 0 0 0-.028-.092.227.227 0 0 0-.082-.062.695.695 0 0 0-.125-.044l-.026.096Zm-1.14-.041c.548-.03.926-.015 1.14.041l.026-.096c-.231-.061-.623-.076-1.171-.045l.006.1Zm-.534.036c.175-.025.33-.038.531-.036l.001-.1a3.388 3.388 0 0 0-.546.037l.014.1Zm-.213.032a5.846 5.846 0 0 0 .213-.032h.005c.003-.001.038-.046.012-.093a.101.101 0 0 0-.028-.006h-.003l.014.1h-.003a.101.101 0 0 1-.028-.006c-.026-.048.01-.092.012-.093h.003-.004l-.019.003a29.686 29.686 0 0 1-.186.027l.012.1Zm-.2.002a.796.796 0 0 0 .2-.002l-.012-.1a.697.697 0 0 1-.175.003l-.013.1Zm-.617-.365c.273.24.437.342.617.365l.013-.099c-.147-.019-.292-.102-.564-.34l-.066.074Zm-.575-.383c.16.056.326.165.575.383l.066-.075c-.252-.221-.43-.34-.608-.403l-.033.095Zm-.729-.058c.454-.007.567 0 .729.058l.033-.095c-.181-.063-.311-.07-.763-.063l.002.1Zm-.29.003.29-.003-.001-.1-.29.003v.1Zm-.05-.192v.142h.1v-.142h-.1Zm.337-.053-.288.003v.1c.09 0 .167 0 .29-.003l-.002-.1Zm.814.072c-.204-.072-.343-.079-.814-.072l.001.1c.473-.007.595.001.78.066l.033-.094Zm.656.431c-.265-.232-.457-.361-.656-.43l-.033.093c.18.064.362.183.623.412l.066-.075Zm.486.306c-.11-.014-.233-.084-.486-.306l-.066.075c.252.22.396.312.54.33l.012-.1Zm.027.004a.673.673 0 0 0-.027-.004l-.013.1.023.002.017-.098Zm.012.002a.267.267 0 0 1-.012-.002l-.017.098.018.003.011-.1Zm.232-.029a9.054 9.054 0 0 1-.182.026.204.204 0 0 1-.05.003l-.011.1c.02.001.038 0 .073-.004l.185-.026-.015-.099Zm.074-.01-.074.01.015.1.073-.012-.014-.099Zm.53-.04c-.194 0-.354.014-.53.04l.014.098c.172-.025.327-.038.516-.038v-.1Zm-.036-.199s.006.004.01.02a.237.237 0 0 1 .003.067.834.834 0 0 1-.026.15l.097.025a.927.927 0 0 0 .03-.17.332.332 0 0 0-.007-.095.127.127 0 0 0-.056-.083l-.05.086Zm-.123-.174-.04.031.002.001.002.003a1.081 1.081 0 0 0 .043.047.619.619 0 0 0 .116.092l.051-.086a.52.52 0 0 1-.135-.119l-.04.031Zm.52.039c-.018-.062-.077-.088-.127-.1a.67.67 0 0 0-.174-.014 1.584 1.584 0 0 0-.227.026h-.001l.009.05.01.048h.004a1.023 1.023 0 0 1 .06-.01c.041-.006.095-.012.149-.014a.575.575 0 0 1 .147.01c.042.011.052.025.054.031l.096-.027Zm-.048.361.05.01v-.004a.53.53 0 0 0 .005-.034l.01-.091a.74.74 0 0 0-.017-.242l-.096.027a.644.644 0 0 1 .013.208 1.255 1.255 0 0 1-.013.109v.006l-.001.002.049.01Zm-.066.063.075-.014-.018-.098-.075.014.018.098Zm.298-.105c-.096 0-.199.002-.309.006l.004.1a8.32 8.32 0 0 1 .305-.006v-.1Zm.05.059a1.12 1.12 0 0 0 .018-.163c0-.03 0-.059-.006-.086a.129.129 0 0 0-.041-.076l-.063.078c-.002-.001.003.001.006.019a.297.297 0 0 1 .004.062c-.001.05-.01.107-.017.148l.098.018Zm-.03-.325a.428.428 0 0 1-.098-.115l-.002-.002-.043.025-.043.026v.001l.003.003a.351.351 0 0 0 .032.047.528.528 0 0 0 .09.093l.061-.078Zm-.143-.092.012.049h.001l.002-.001a.477.477 0 0 1 .046-.01.831.831 0 0 1 .108-.013.31.31 0 0 1 .104.01c.025.008.032.018.035.028l.097-.021c-.012-.058-.057-.088-.101-.103a.405.405 0 0 0-.14-.014.934.934 0 0 0-.172.026h-.004l.012.05Zm.308.063a.867.867 0 0 1 .01.211 1.602 1.602 0 0 1-.01.11v.007l-.001.002.05.007.049.007v-.003l.001-.007a1.343 1.343 0 0 0 .01-.117.96.96 0 0 0-.012-.238l-.097.021Zm.037.289-.046.01.024.098.045-.011-.023-.097Zm.477.071c-.13-.034-.3-.054-.51-.062l-.003.1c.206.008.368.027.487.059l.026-.097Zm.293.497c.062-.111.07-.22.012-.311-.056-.088-.165-.149-.305-.186l-.026.097c.131.034.21.086.246.142.033.052.036.12-.014.209l.087.049Z"/><path fill="#979797" fill-rule="evenodd" d="M20.525 3.818a.294.294 0 0 1-.042.142.839.839 0 0 1-.056.087l-.058.078-.008.01c-.108.148-.156.251-.156.386 0 .143-.08.227-.23.266-.11.03-.218.034-.479.03a8.007 8.007 0 0 0-.143-.002.952.952 0 0 1-.331-.057 8.78 8.78 0 0 1-.07-.024l-.045-.016a1.817 1.817 0 0 0-.642-.095c-.296 0-.368.125-.225.321.148.204.49.428.893.57.397.14.503.352.36.588-.107.18-.364.364-.582.438-.179.06-.305-.037-.382-.249a1.706 1.706 0 0 1-.082-.545c0-.144-.315-.201-.907-.203-.097 0-.184 0-.339.003l-.271.003c-.32 0-.413-.046-.487-.208l-.01-.021a4.814 4.814 0 0 0-.042-.097 1.095 1.095 0 0 0-.081-.143c-.087-.13-.238-.11-.405.029-.149.123-.269.312-.269.422 0 .03.006.06.018.091.035.09.12.182.28.31.068.054.146.113.266.2l.345.25c.066.05.173.134.268.209.09.07.169.133.193.15.116.076.231.115.47.154.108.018.244.036.444.06.492.06.774.04 1.087-.042l.09-.024.088-.022c.088-.02.163-.03.245-.03.202 0 .306-.08.39-.246a1.63 1.63 0 0 0 .047-.104.482.482 0 0 1 .058-.1c.029-.037.092-.027.203.018.041.017.09.039.156.07l.033.016.149.07c.07.034.129.06.185.083.347.145.56.157.646-.007.072-.137.136-.178.193-.123.039.036.064.102.108.253.055.191.082.26.118.299.067.07.034.17-.074.32a2.702 2.702 0 0 1-.054.072c-.137.177-.154.203-.154.24 0 .112-.075.158-.813.557a.391.391 0 0 1-.326.014c-.148-.052-.304-.168-.462-.33a2.937 2.937 0 0 1-.273-.325.437.437 0 0 0-.095.072l-.006.006a2.635 2.635 0 0 1-.292.232c-.346.237-.712.367-1.078.333a2.799 2.799 0 0 1-.718-.173l-.09-.034a7.461 7.461 0 0 0-.36-.135c-.093-.025-.114-.008-.09.082.038.148-.089.553-.41 1.405l-.025.069c-.363.961-.438 1.178-.438 1.313 0 .304.234.353 1.407.353.297 0 .442-.01.507-.032.046-.016.049-.027.037-.098-.023-.137.01-.237.179-.377a.78.78 0 0 1 .365-.168c.204-.037.42-.003.632.076.044.016.085.033.122.05l-.001.001a.635.635 0 0 0-.043.019 1.588 1.588 0 0 0-.09-.037 1.18 1.18 0 0 0-.613-.074.742.742 0 0 0-.349.16c-.158.131-.188.22-.166.344.014.087.008.113-.06.137-.072.025-.218.034-.52.034-.64 0-.897-.01-1.1-.052-.238-.05-.344-.15-.344-.335 0-.143.074-.352.44-1.327l.027-.068c.314-.837.443-1.247.407-1.384-.031-.119.017-.156.136-.125.047.013.249.091.368.137.042.017.074.03.085.033.25.092.476.15.709.171.356.033.713-.095 1.053-.327a2.607 2.607 0 0 0 .367-.305l.042-.045a1.688 1.688 0 0 0 .095.128c.064.083.134.165.21.242.154.158.306.271.447.32a.36.36 0 0 0 .296-.01c.697-.377.795-.438.795-.528 0-.049.012-.067.161-.26l.053-.07c.098-.138.127-.225.078-.277-.042-.044-.07-.115-.117-.28-.052-.177-.077-.241-.108-.271-.032-.031-.073-.004-.136.114-.098.188-.33.175-.693.024a4.571 4.571 0 0 1-.186-.083c-.45-.211-.47-.22-.497-.186a.448.448 0 0 0-.053.093l-.023.051-.025.054c-.089.178-.204.266-.422.266-.079 0-.15.01-.237.03a2.89 2.89 0 0 0-.086.022l-.09.024c-.319.082-.605.103-1.102.043-.2-.025-.336-.043-.445-.06-.244-.04-.364-.081-.484-.162a5.856 5.856 0 0 1-.198-.152c-.095-.075-.2-.158-.265-.206l-.345-.25a7.18 7.18 0 0 1-.267-.201c-.165-.132-.254-.229-.291-.325a.282.282 0 0 1-.02-.104c0-.122.125-.32.282-.45.181-.15.356-.173.458-.02.033.048.059.096.084.148.01.02.031.07.043.098l.009.02c.068.147.146.186.454.186.066 0 .111 0 .27-.003.156-.002.243-.003.34-.002.623.002.944.06.944.238 0 .182.026.385.08.534.07.195.18.28.335.226.21-.07.46-.25.563-.421.13-.216.036-.404-.341-.537-.41-.145-.758-.373-.91-.583-.16-.221-.071-.377.254-.377.284 0 .458.03.654.097l.046.016.069.023c.114.039.2.055.32.055l.142.002c.258.004.365 0 .47-.028.136-.035.203-.106.203-.232 0-.144.05-.253.163-.406l.008-.011c.016-.02.047-.063.057-.078a.796.796 0 0 0 .054-.083.26.26 0 0 0 .037-.125c0-.132-.027-.193-.076-.193-.28-.129-.63-.193-1.059-.193-.25 0-.337-.065-.43-.25l-.02-.041a.6.6 0 0 0-.003-.007c-.101-.196-.247-.279-.635-.279a1.427 1.427 0 0 1-.67-.143 7.996 7.996 0 0 0-.099-.045c-.28-.121-.534-.094-1.154.186-.853.386-1.357.475-1.516.256-.63-.207-.938-.207-.938-.015 0 .047.014.1.04.163.014.03.028.06.053.108.097.19.118.252.083.327-.046.097-.208.144-.528.144-.915 0-1.194.785-.593 1.685.096.144.189.298.277.46a8.77 8.77 0 0 1 .656 1.552c.013.035.017.04.022.045a2.3 2.3 0 0 1 .148.193c.046.067.085.132.113.194.053.116.067.214.034.288-.04.089-.147.135-.323.135-.318 0-.573-.138-.85-.403l-.145-.146a5.389 5.389 0 0 0-.127-.128c-.086-.082-.148-.12-.2-.12h-1.422a21.551 21.551 0 0 1-.672-.02c-.665-.03-.912-.03-1.166.022-.327.065-.49.217-.49.495 0 .242-.076.533-.221.897a8.97 8.97 0 0 1-.18.415c-.344.755-.39.857-.397.96v.07c0 .393-.028.667-.132.944-.154.41-.445.644-.907.644-.531 0-.77.133-1.1.5-.206.229-.304.317-.458.394-.614.308-1.2.734-1.2.905 0 .267.313.402.867.212a5.32 5.32 0 0 1 .623-.168c.24-.057.374-.096.519-.157.182-.077.35-.182.52-.332a9.664 9.664 0 0 1 1.127-.822c.204-.127.379-.224.504-.278a.544.544 0 0 1 .159-.048c.046-.003.075.015.075.054v.027c0 .04-.006.078-.045.362l-.018.142c-.021.171-.03.3-.025.395.006.109.03.164.07.164.12 0 .493.228.733.46.32.307.39.58.1.743-.27.15-.45.128-.567-.004a.61.61 0 0 1-.046-.062v.945h1.53c.194 0 .228-.11.228-.556 0-.153.043-.254.116-.31a.204.204 0 0 1 .12-.046c.02.017.024.028.03.043a6.453 6.453 0 0 0 .228.477c.066.12.122.2.16.224.03.018.048-.012.048-.135 0-.146.022-.282.07-.489.071-.302.08-.348.066-.434-.017-.109-.095-.16-.269-.16a.631.631 0 0 1-.483-.188 1.263 1.263 0 0 0-.08-.071c-.066-.05-.123-.047-.223.027-.158.117-.231.133-.304.058a3.21 3.21 0 0 1-.159-.248 6.956 6.956 0 0 0-.155-.247.845.845 0 0 1-.121-.267 1.182 1.182 0 0 1 .045-.677 1.46 1.46 0 0 1 .075-.18c.03-.005.04 0 .053.008a6.17 6.17 0 0 0 .428.232c.169.082.3.128.373.128h.687l.24-1.287-.533-.217c-.125-.05-.147-.06-.17-.068l-.015-.007a1.933 1.933 0 0 1-.193-.132.302.302 0 0 1-.09-.096c-.018-.041.012-.065.074-.065.096 0 .3-.165.38-.302.082-.14-.017-.17-.373-.02a1.16 1.16 0 0 0-.447.307c-.1.118-.12.168-.192.41-.043.144-.089.196-.206.196-.19 0-.505-.494-.587-.942-.105-.574.158-.948.845-.948.651 0 1.25.09 2.161.288 1.212.264 1.336.287 1.714.287.25 0 .392.071.45.21.045.103.044.203.015.45-.045.38-.013.533.184.622.778.352 1.786.658 2.366.658.046.032.08.083.115.161.023.05.087.22.138.357l.067.175c.187.457.39.692.695.692.163 0 .224-.057.215-.175-.007-.093-.034-.163-.155-.44a5.373 5.373 0 0 1-.055-.127c-.126-.31-.146-.504-.019-.637.248-.26.734-.263 1.456-.011.143-.418.007-.62-.415-.62-.138 0-.313-.02-.448-.053-.162-.04-.251-.09-.231-.156.024-.079.236-.253.481-.41.09-.056.171-.103.234-.131a.94.94 0 0 1 .032.014l-.026.015-.037.022a5.365 5.365 0 0 0-.183.11c-.236.15-.446.323-.466.39-.01.035.065.078.205.112.132.032.304.052.439.052.454 0 .604.232.443.683-.742-.242-1.22-.242-1.457.007-.114.12-.096.303.026.6l.054.127c.124.282.15.351.158.45.01.14-.068.213-.252.213-.324 0-.536-.245-.728-.714l-.067-.178c-.052-.136-.115-.303-.137-.352a.437.437 0 0 0-.09-.14c-.587-.003-1.594-.31-2.373-.662-.217-.098-.251-.263-.209-.628.032-.27.033-.367-.008-.463-.053-.123-.18-.187-.417-.187-.382 0-.506-.023-1.722-.288-.909-.199-1.505-.288-2.153-.288-.663 0-.91.353-.81.907.08.432.386.913.552.913.097 0 .132-.04.171-.171.074-.247.096-.3.199-.422a1.21 1.21 0 0 1 .46-.317c.381-.16.529-.117.42.07-.085.146-.3.32-.412.32-.033.034-.005.063.039.098a1.226 1.226 0 0 0 .146.102l.03.02.01.006.744.3-.252 1.345h-.717c-.081 0-.215-.047-.39-.13a4.48 4.48 0 0 1-.357-.191 6.213 6.213 0 0 1-.073-.043.585.585 0 0 0-.075.152c-.074.22-.099.446-.044.657a.811.811 0 0 0 .117.257c.04.058.102.161.161.258.068.11.13.213.149.232.055.057.11.045.255-.063.113-.083.187-.086.267-.026.015.01.054.047.085.075l.039.034a.595.595 0 0 0 .417.142c.19 0 .285.063.305.19.015.093.006.139-.066.448a2.02 2.02 0 0 0-.07.48c0 .147-.035.208-.104.165-.045-.028-.102-.11-.172-.236a6.497 6.497 0 0 1-.229-.48c-.05-.01-.073 0-.095.017-.063.049-.102.139-.102.282 0 .466-.038.591-.264.591H8.762v-.93c0-.057 0-.073.002-.086.032-.02.067.024.093.057l.015.018c.106.118.267.138.521-.004.262-.146.198-.394-.106-.687-.234-.226-.601-.45-.708-.45-.068 0-.1-.07-.106-.198a2.429 2.429 0 0 1 .025-.4c.005-.044.01-.089.018-.143l.003-.017c.036-.267.041-.304.042-.341v-.026c-.07-.016-.12 0-.184.027a4.045 4.045 0 0 0-.498.275 9.65 9.65 0 0 0-1.124.819 1.913 1.913 0 0 1-.529.338 3.051 3.051 0 0 1-.525.158 5.328 5.328 0 0 0-.62.168c-.574.197-.915.05-.915-.245 0-.193.59-.621 1.22-.937.15-.075.245-.16.419-.354.366-.406.613-.544 1.156-.544.446 0 .724-.225.873-.62.102-.273.129-.543.129-.933v-.075c.007-.104.053-.205.375-.913l.026-.056a9.44 9.44 0 0 0 .179-.414c.144-.36.22-.648.22-.884 0-.297.175-.461.517-.53.259-.052.507-.052 1.176-.022a21.519 21.519 0 0 0 .67.02h1.422c.065 0 .132.042.226.13.019.018.073.072.128.13l.144.144c.27.26.517.393.824.393.164 0 .256-.04.29-.114.028-.063.015-.152-.034-.26a1.29 1.29 0 0 0-.11-.189 2.12 2.12 0 0 0-.146-.189.246.246 0 0 1-.028-.057 8.915 8.915 0 0 0-.16-.458 8.593 8.593 0 0 0-.494-1.087 5.967 5.967 0 0 0-.275-.458c-.616-.922-.325-1.74.623-1.74.306 0 .457-.044.495-.124.028-.06.008-.118-.083-.296a1.708 1.708 0 0 1-.053-.11.453.453 0 0 1-.043-.177c0-.234.334-.234.99-.017.15.21.643.125 1.484-.256.63-.284.893-.312 1.185-.187a8.4 8.4 0 0 1 .1.046l.03.013c.196.087.363.127.624.127.402 0 .56.09.668.298l.003.007.02.041c.087.174.162.23.397.23.433 0 .787.065 1.063.194.074.003.109.082.109.228Zm-1.53 6.804.036-.022-.023-.011c.037-.014.064-.019.081-.01.026.011.024.038.003.073l-.01.016-.015-.01a.934.934 0 0 0-.052-.026l-.02-.01Zm.074-.002.003-.006c0-.002.001-.003.002-.003-.004-.002-.01-.002-.02 0l.015.009Zm.004-.01Z" clip-rule="evenodd"/><path fill="#fff" fill-rule="evenodd" d="m9.042 8.398-.29.011c0 .021.01.04.023.051H8.77a.921.921 0 0 0-.248-.026c-.092 0-.272-.01-.399-.018a4.817 4.817 0 0 0-.138-.007s-.31.167-.31.11c0-.038.288-.257.288-.257l.004-.001.018-.007.044-.017.062-.023c.122-.04.256-.063.432-.063.326 0 .51.055.518.247Zm-1.44 4.34-.269-.105-.572.965a1.06 1.06 0 0 1-.142.082 2.504 2.504 0 0 1-.163.073 5.32 5.32 0 0 0-.054.024l-.147.062c-.293.122-.777.323-.777.477l.878-.156c0-.036.035-.067.167-.126a3.999 3.999 0 0 1 .107-.046l.12-.055c.067-.033.126-.067.18-.104.214-.15.432-.51.673-1.09Zm-2.858.53c.18-.053.317-.078.407-.078l.066.007a.041.041 0 0 1-.012-.017l.273-.096c-.082-.222-.355-.222-.817-.088a2.03 2.03 0 0 0-.396.153l-.107.063a.946.946 0 0 1-.037.022c-.012.005-.028.006-.097-.01-.12-.027-.232.053-.345.133-.08.057-.159.114-.241.133 0 0 .724.038.806 0 .018-.008.06-.034.099-.056l.062-.037c.082-.044.188-.086.339-.13Zm.474-.07h-.001.001Zm-.721.635-.096-.252-.74.193c-.035 0-.068-.01-.15-.046l-.008-.004c-.24-.104-.402-.102-.61.089a11.146 11.146 0 0 0-.373.391.72.72 0 0 1-.103.095c-.02.013-.03.017-.034.017l-.335.287c.124 0 .555-.07.685-.206a11.759 11.759 0 0 1 .36-.379c.107-.098.147-.098.291-.035l.008.003c.119.052.18.071.269.071.166 0 .427-.065.796-.195l-.283.206c-.495 0-.587.03-.737.29a.646.646 0 0 1-.047.074.19.19 0 0 1-.102.07l-.111.04a10.27 10.27 0 0 0-.248.087c-.13.049-.236.11-.362.198l-.066.048-.082.059a.316.316 0 0 0-.109.138c-.024.052-.043.091-.117.091l-.633.181c.206 0 .843-.051 1.029-.18l.089-.065.06-.043c.107-.075.193-.124.296-.163a6.88 6.88 0 0 1 .224-.079c.066-.023.124-.043.14-.05.1-.04.164-.084.224-.161a.907.907 0 0 0 .07-.107.343.343 0 0 1 .073-.102c.054-.043.142-.043.407-.043h.002c.343 0 .574-.17.66-.487l-.28-.072-.057.041Zm1.073-.276.29.002c-.002.416-.765.773-1.116.873l.5-.352.326-.523Zm2.821-4.016.29-.01c-.007-.193-.191-.248-.518-.248a1.307 1.307 0 0 0-.538.103l-.018.007-.003.001s.416.172.56.172c.109 0 .188.008.234.022l.013.004h.003a.074.074 0 0 1-.023-.05Zm.145.485-.29.01c0 .022.01.04.023.052l-.004-.001-.012-.004a.923.923 0 0 0-.235-.022 1.013 1.013 0 0 0-.434.085.339.339 0 0 1-.126.027l-.338.1c-.002 0 .444-.358.464-.365.035-.011.07-.027.107-.043a.804.804 0 0 1 .327-.087c.326 0 .51.055.518.248Zm-.508.506.29-.011c-.008-.193-.192-.247-.518-.247-.176 0-.68.367-.68.367l.054.003a.69.69 0 0 0 .192-.003 4.524 4.524 0 0 0 .097-.037c.092-.03.194-.047.337-.047a.923.923 0 0 1 .247.025l.004.001a.074.074 0 0 1-.023-.051Zm.217.626-.29.01c0 .022.01.04.023.052h-.003a.923.923 0 0 0-.248-.026c-.143 0-.56-.172-.56-.172l.004-.002.018-.006.044-.018.063-.022c.122-.041.255-.064.431-.064.327 0 .51.055.518.248Zm-.653.506.29-.011c-.008-.192-.192-.247-.518-.247a1.308 1.308 0 0 0-.494.086l-.044.017c-.008.003.097.025.164.04.082.017.108.023-.186-.032a92.431 92.431 0 0 0 .807.197l.004.001a.074.074 0 0 1-.023-.051Zm.871-2.767c-.33 0-.367.016-.395.08v.002l-.015.031-.004.009a.443.443 0 0 1-.031.055s.012-.46.445-.46h.382v.283h-.382Z" clip-rule="evenodd"/><path fill="#979797" d="m8.752 8.41-.003-.076-.075.003.003.075.075-.003Zm.29-.012.003.075.075-.003-.003-.075-.075.003Zm-.267.062-.05.057.05-.057Zm-.004 0 .025-.071-.025.07Zm-.012-.004-.022.071.022-.071Zm-.635-.04.004-.075-.004.075Zm-.138-.007v-.075h-.019l-.016.01.035.065Zm-.022-.147.046.06.177-.135h-.223v.075Zm.004-.001-.024-.071.024.07Zm.018-.007-.026-.07.026.07Zm.044-.017-.027-.07.054.14-.027-.07Zm.062-.023.024.071-.024-.07Zm-.759 4.419.027-.07-.059-.024-.032.055.064.039Zm.27.106.069.028.03-.07-.072-.028-.027.07Zm-.842.86.043.06.013-.009.009-.014-.065-.038Zm-.142.08.033.068-.033-.067Zm-.108.05-.03-.069.03.07Zm-.055.024.03.069-.06-.138.03.069Zm-.054.024.03.068-.03-.068Zm-.147.062-.03-.07v.001l.03.07Zm0 0-.03-.069.03.07Zm0 0 .028.07.002-.001-.03-.069Zm0 0-.028-.07h-.001l.029.07Zm-.777.477h-.075v.09l.088-.016-.013-.074Zm.878-.156.013.074.062-.011v-.063h-.075Zm.167-.126-.03-.069.03.069Zm.051-.023.03.07-.06-.138.03.068Zm.056-.023-.03-.07.03.07Zm.12-.055-.033-.068.032.068Zm.18-.104-.043-.062.043.062Zm-1.78-.64.009-.074H5.15v.075Zm-.406.079.02.071-.02-.072Zm.473-.07-.008.074.262.028-.208-.162-.046.06Zm-.012-.018-.025-.07-.072.025.027.071.07-.026Zm.273-.096.025.07.072-.025-.027-.072-.07.027Zm-.817-.088.02.072-.02-.072Zm-.396.153.035.066-.035-.066Zm-.107.063-.038-.064.038.064Zm-.037.022-.031-.068.031.068Zm-.097-.01.017-.073-.017.073Zm-.345.133.044.061-.044-.06Zm-.241.133-.018-.073.014.148.003-.075Zm.806 0 .032.068-.032-.068Zm.099-.056.038.064-.038-.064Zm0 0 .038.064h.001l-.04-.064Zm0 0-.039-.065.039.065Zm.062-.037.035.066-.035-.066Zm.814-.199-.03.07.07-.133-.04.063Zm0 0-.045.06.007.006.008.003.03-.069Zm-.002 0 .04-.064-.085.124.045-.06Zm-.816.383.07-.027-.023-.063-.065.017.018.073Zm.096.252-.07.027.034.092.08-.058-.044-.06Zm-.836-.059v.075h.01l.009-.002-.019-.073Zm-.15-.046.03-.069-.03.069Zm-.008-.004.03-.068-.03.068Zm-.61.089.051.055-.05-.055Zm-.045.042.052.054-.052-.054Zm-.431.444.042.061-.042-.061Zm-.034.017v-.075h-.028l-.02.018.048.057Zm-.335.287L2 14.546l-.154.132h.203v-.075Zm1.005-.546.052.054-.052-.054Zm.04-.039-.05-.055.05.055Zm.291-.035.03-.069-.03.069Zm.008.003.03-.069-.03.07Zm1.065-.124.044.061-.07-.131.026.07Zm-.283.206v.075H4.2l.02-.015-.045-.06Zm-.737.29-.065-.037.066.037Zm-.047.074-.06-.046.06.046Zm-.102.07-.028-.069.028.07Zm-.111.04-.025-.071.025.07Zm0 0 .024.07-.024-.07Zm0 0-.025-.071.024.07Zm-.248.087.027.07-.027-.07Zm-.362.198-.044-.061.044.061Zm-.066.048.044.06-.044-.06Zm0 0-.044-.061.044.06Zm0 0-.045-.06.045.06Zm0 0 .043.06-.043-.06Zm0 0-.045-.06.044.06Zm-.082.059.043.06-.043-.06Zm-.109.138-.067-.032.067.032Zm-.117.091v-.075h-.01l-.011.003.02.072Zm-.633.181-.021-.072.02.147v-.075Zm1.029-.18.043.06-.043-.06Zm.089-.065.044.06-.044-.06Zm.06-.043-.044-.06.043.06Zm.296-.163-.027-.07.027.07Zm.224-.079.024.07-.024-.07Zm0 0-.024-.071h-.001l.025.071Zm0 0-.024-.071.024.07Zm0 0 .023.071h.001l-.024-.071Zm.14-.05.028.07-.028-.07Zm.224-.161.06.046-.06-.046Zm.07-.107-.066-.037.065.037Zm0 0 .065.037-.065-.037Zm.073-.102-.047-.059.047.059Zm.407-.043v.075-.075Zm.663-.487.072.02.02-.073-.073-.02-.02.073Zm-.281-.072.019-.073-.035-.009-.028.021.044.06Zm1.307-.233h.075v-.074l-.075-.001v.075Zm-.29-.002v-.075h-.042l-.022.035.063.04Zm-.827.875-.043-.061.063.133-.02-.072Zm.5-.352.043.061.013-.008.008-.013-.064-.04Zm3.437-4.55.003.075.075-.003-.003-.075-.075.003Zm-.29.011-.003-.075-.075.003.003.075.075-.003Zm-.66-.195-.023-.07.024.07Zm-.062.023-.027-.07.055.14-.028-.07Zm-.044.017.027.07-.027-.07Zm-.018.007.025.07-.025-.07Zm-.003.001.028-.069-.014-.006h-.014v.075Zm.794.194.022-.072-.022.072Zm.013.004.024-.071-.024.07Zm.003 0 .05-.056-.05.056Zm-.168.445-.003-.075-.075.002.003.076.075-.003Zm.29-.011.003.075.075-.003-.003-.075-.075.003Zm-.267.062.05-.057-.05.057Zm-.004-.001.025-.07-.025.07Zm-.012-.004.021-.072-.021.072Zm-.572.026.024.071-.024-.07Zm-.05.018-.026-.07.054.14-.027-.07Zm-.047.019.027.07-.027-.07Zm-.126.027v-.075h-.01l-.011.003.021.072Zm-.338.1v.076h.011l.01-.004-.021-.071Zm.464-.365.024.071-.024-.07Zm.107-.043.03.069-.03-.069Zm.627.656.003.075.075-.003-.003-.075-.075.003Zm-.29.01-.003-.074-.075.003.003.075.075-.003Zm-.908.11-.044-.06-.186.135h.23v-.075Zm.054.003-.005.075.005-.075Zm.192-.003.027.07-.027-.07Zm.048-.018-.027-.07.054.14-.027-.07Zm.05-.019-.025-.07.024.07Zm.57-.026-.02.072.02-.072Zm.013.004-.024.071.024-.07Zm.004.001.05-.056-.05.056Zm-.096.586-.003-.075-.075.003.003.075.075-.003Zm.29-.011.003.075.075-.003-.003-.075-.075.003Zm-.267.062.05-.057-.05.057Zm-.003 0-.025.07.025-.07Zm-.013-.005-.021.072.021-.072Zm-.794-.193.028-.07-.014-.005h-.014v.075Zm.003-.002.025.071h.002l-.027-.07Zm0 0-.023-.071h-.003l.026.071Zm0 0 .024.071h.003l-.027-.07Zm0 0-.024-.07h-.002l.026.07Zm.018-.006.027.07-.027-.07Zm.107-.04.024.07-.024-.07Zm.586.679.003.075.075-.003-.003-.075-.075.003Zm-.29.01-.003-.074-.075.003.003.075.075-.003Zm-.66-.194-.024-.071.024.071Zm-.062.023-.027-.07.054.14-.027-.07Zm-.044.017.026.07-.026-.07Zm.164.04.016-.073-.016.073Zm-.186-.032.014-.074-.031.147.017-.073Zm.795.193-.022.072.022-.072Zm.007.003.024-.072-.024.072Zm.005.001-.024.071.024-.07Zm.004.001.05-.056-.05.056Zm.453-2.738.069.03-.069-.03Zm0 .002-.07-.03.07.03Zm-.015.031.068.033v-.001l-.068-.032Zm-.004.009.068.032-.068-.032Zm-.031.055-.075-.002-.007.257.144-.213-.062-.042Zm.827-.46h.075V8.54h-.075v.075Zm0 .283v.075h.075v-.075h-.075Zm-.09-.413.29-.01-.006-.15-.29.01.005.15Zm.07-.08.002.003-.15.005c.001.041.02.08.048.105l.1-.113Zm-.078.126.003.002.007.002.016.002a.075.075 0 0 0 .07-.105.075.075 0 0 0-.019-.027l-.099.113-.008-.01a.074.074 0 0 1-.013-.071.075.075 0 0 1 .073-.05c.008 0 .014.002.015.002.004 0 .008.002.004 0l-.05.142Zm-.01-.003a.195.195 0 0 1 .01.003l.049-.141a.361.361 0 0 0-.016-.005l-.043.143Zm-.213-.018c.108 0 .179.008.213.018l.043-.143a.984.984 0 0 0-.256-.025v.15Zm-.404-.018c.126.007.308.018.404.018v-.15c-.09 0-.267-.01-.396-.018l-.008.15Zm-.134-.007.134.007.008-.15-.142-.007v.15Zm-.385.034c0 .023.009.048.03.066.019.015.039.02.05.02a.177.177 0 0 0 .063-.006.833.833 0 0 0 .118-.044 2.504 2.504 0 0 0 .146-.071l.01-.006.002-.001h.001l-.035-.067-.035-.066H7.95l-.003.002a1.472 1.472 0 0 1-.043.022 2.349 2.349 0 0 1-.103.05.699.699 0 0 1-.095.036c-.013.003-.014.002-.008.003.003 0 .016.002.03.013a.065.065 0 0 1 .023.05h-.15Zm.363-.256-.045-.06-.001.001-.003.002-.009.007a5.57 5.57 0 0 0-.133.107 2.014 2.014 0 0 0-.142.13.172.172 0 0 0-.016.023.093.093 0 0 0-.014.046h.15a.063.063 0 0 1-.007.029l.003-.003a1.87 1.87 0 0 1 .121-.11 4.914 4.914 0 0 1 .139-.11l.002-.002-.045-.06Zm-.02-.072-.007.002-.006.003a.075.075 0 0 0-.007.004.067.067 0 0 0-.017.014.075.075 0 0 0-.012.078c.013.033.043.042.046.043a.076.076 0 0 0 .023.003v-.15a.073.073 0 0 1 .023.004c.003 0 .033.01.046.043a.075.075 0 0 1-.036.095l-.005.003c-.001 0-.003 0 0 0l-.048-.142Zm.016-.006-.016.006.048.142a.65.65 0 0 0 .02-.008l-.052-.14Zm.097.123a.047.047 0 0 1-.003.001.149.149 0 0 1-.02.004c-.074-.05-.043-.139-.037-.142a.138.138 0 0 1 .005-.002H8a15.26 15.26 0 0 1-.04.016l.053.14.028-.01.014-.006.003-.001h.002a.071.071 0 0 0 .005-.003c.006-.003.037-.092-.037-.142a.15.15 0 0 0-.022.004h-.001v.001h-.001l.054.14Zm.011-.164a1.479 1.479 0 0 0-.065.024l.054.14.06-.022-.049-.142Zm.456-.067c-.183 0-.325.023-.456.067l.048.142c.113-.038.239-.06.408-.06v-.15Zm.593.32a.287.287 0 0 0-.053-.162.311.311 0 0 0-.132-.1 1.08 1.08 0 0 0-.408-.058v.15c.162 0 .276.014.349.045a.163.163 0 0 1 .07.052.138.138 0 0 1 .024.078l.15-.006Zm-1.811 4.306.27.106.054-.14-.27-.105-.054.14Zm-.48.934.572-.965-.13-.077-.572.966.13.076Zm-.174.111c.057-.028.107-.056.152-.087l-.086-.123a.992.992 0 0 1-.132.075l.066.135Zm-.11.05.11-.05-.066-.134a2.63 2.63 0 0 1-.105.047l.06.138Zm-.115-.113h-.001c-.001 0-.039.099.057.139l.002-.001h.002a.127.127 0 0 0 .005-.003l.016-.007.033-.014-.06-.138c-.006.003-.02.01-.032.014a2.747 2.747 0 0 0-.021.01h-.001l.002-.001c.096.04.059.138.058.138l-.06-.137Zm.005.161.054-.023-.06-.138-.055.024.061.137Zm-.148.063c.058-.024.11-.045.148-.063l-.061-.137a6.548 6.548 0 0 1-.145.062l.058.138Zm0 0-.06-.138.06.138Zm.001 0-.06-.137.06.137Zm-.002 0-.056-.139.056.14Zm-.73.408s0-.005.009-.018a.251.251 0 0 1 .045-.047c.044-.037.108-.078.185-.12a5.78 5.78 0 0 1 .491-.223l-.057-.138c-.146.06-.343.143-.505.23-.08.043-.155.089-.211.136a.392.392 0 0 0-.073.078.183.183 0 0 0-.034.102h.15Zm.79-.23-.878.156.026.148.878-.156-.026-.148Zm.15-.12a.76.76 0 0 0-.149.08c-.035.028-.063.064-.063.114h.15c0 .014-.01.017.005.005a.633.633 0 0 1 .118-.063l-.061-.137Zm.052-.023-.052.022.06.137.051-.022-.06-.137Zm.055-.024a5.122 5.122 0 0 1-.05.021l-.004.002h-.001c.013-.004.102.052.06.138h-.001l-.06-.137h-.001c-.042.086.047.142.06.138h.001l.001-.001a.147.147 0 0 0 .005-.002l.016-.007.034-.015-.06-.137Zm.117-.054a2.65 2.65 0 0 1-.117.054l.06.137A2.99 2.99 0 0 0 6.782 14l-.065-.135Zm.17-.098c-.05.035-.106.067-.17.098l.065.135c.07-.034.133-.07.19-.11l-.085-.123Zm.646-1.057a5.06 5.06 0 0 1-.34.696c-.11.178-.211.295-.306.361l.086.123c.119-.083.233-.22.347-.405a5.3 5.3 0 0 0 .352-.718l-.139-.057Zm-2.382.405c-.101 0-.247.028-.428.08l.042.144c.178-.051.307-.074.386-.074v-.15Zm.074.008-.066-.008-.017.15.067.007.016-.15Zm-.09.083c.008.022.022.04.036.05l.092-.118a.038.038 0 0 1 .008.008.033.033 0 0 1 .004.008l-.14.052Zm.318-.193-.273.096.05.142.273-.097-.05-.141Zm-.771.055c.23-.066.402-.096.524-.086.06.004.103.018.134.039.03.02.052.047.068.089l.14-.053a.323.323 0 0 0-.126-.162.432.432 0 0 0-.204-.063c-.15-.012-.346.025-.578.092l.042.144Zm-.382.147c.096-.05.215-.098.382-.147l-.042-.144a2.1 2.1 0 0 0-.41.16l.07.131Zm-.103.06.103-.06-.07-.132a3.16 3.16 0 0 0-.11.065l.077.128Zm-.045.027.02-.01.025-.016-.077-.128-.025.014a.326.326 0 0 1-.007.004v.001h-.001l.003-.001.062.136Zm-.144-.005c.034.008.06.013.08.015.022.002.043 0 .064-.01l-.062-.136a.04.04 0 0 1 .01-.004c.004 0 .004 0 0 0a.525.525 0 0 1-.059-.011l-.033.146Zm-.285.121a1.05 1.05 0 0 1 .157-.1.194.194 0 0 1 .128-.02l.033-.147a.342.342 0 0 0-.224.031c-.065.03-.127.075-.182.114l.088.122Zm-.268.145c.1-.023.192-.09.268-.145l-.088-.122a.68.68 0 0 1-.215.121l.035.146Zm.758-.141c.004-.002.003-.001-.005 0a1.502 1.502 0 0 1-.126.008 4.85 4.85 0 0 1-.27 0 14.726 14.726 0 0 1-.257-.01l-.083-.003a4.033 4.033 0 0 1-.029-.002h-.001l-.005.075-.003.075h.008l.023.002.084.003.26.01c.095.002.195.003.276 0a1.605 1.605 0 0 0 .15-.01.177.177 0 0 0 .04-.012l-.062-.136Zm.091-.053a1.68 1.68 0 0 1-.09.053l.062.136c.022-.01.07-.039.105-.06l-.077-.129Zm0 0 .077.129-.077-.129Zm0 0 .078.128-.079-.127Zm.065-.038-.065.038.077.129c.027-.016.049-.03.06-.034l-.072-.133Zm.354-.136a1.823 1.823 0 0 0-.354.136l.071.133a1.68 1.68 0 0 1 .325-.125l-.042-.144Zm.525-.066-.06.138h.001l.06-.138Zm-.072.131.002.001.081-.126-.002-.001-.08.126Zm.086-.122v-.001l-.09.12.002.002.088-.121Zm-.93.47.094.252.14-.053-.094-.253-.14.053Zm-.652.239.74-.194-.037-.145-.74.193.037.146Zm-.199-.05c.08.035.127.052.18.052v-.15c-.017 0-.037-.004-.12-.04l-.06.137Zm-.008-.004.008.004.06-.138-.008-.003-.06.137Zm-.529.075c.097-.09.175-.127.25-.136a.544.544 0 0 1 .28.061l.06-.137a.689.689 0 0 0-.357-.073.596.596 0 0 0-.334.174l.101.11Zm-.044.041.044-.041-.101-.11-.047.044.104.107Zm-.433.243.002-.002.004-.004a.11.11 0 0 1 .008-.005.137.137 0 0 1 .07-.005c.034.03.042.086.038.098a.127.127 0 0 1-.01.016c-.001.003-.003.005-.001.003l.005-.006.026-.029a16.538 16.538 0 0 1 .291-.309l-.104-.107a6.758 6.758 0 0 0-.298.315l-.026.03-.007.007-.001.001v.001l-.003.002-.004.006a.142.142 0 0 0-.006.011c-.004.012.005.068.039.098a.14.14 0 0 0 .07-.005.165.165 0 0 0 .008-.005l.004-.004.002-.002.001-.001-.108-.104Zm-.008.208a.794.794 0 0 0 .116-.104l-.108-.104a.652.652 0 0 1-.093.085l.085.123Zm-.076.031a.09.09 0 0 0 .028-.005.266.266 0 0 0 .048-.026l-.085-.123a.12.12 0 0 1-.013.008l.002-.001a.066.066 0 0 1 .02-.003v.15Zm-.286.269.335-.287-.098-.114-.335.287.098.114Zm.582-.315a.37.37 0 0 1-.12.073 1.668 1.668 0 0 1-.511.11v.15a1.795 1.795 0 0 0 .57-.122.511.511 0 0 0 .17-.107l-.109-.104Zm.322-.342a5.68 5.68 0 0 0-.197.206c-.035.038-.068.073-.09.099l-.028.03-.007.007-.002.003-.002.002v.001a.139.139 0 0 0-.014.029c.015.066.096.088.113.08a.15.15 0 0 0 .013-.011l-.108-.104.002-.002a.083.083 0 0 1 .011-.008c.017-.009.099.014.114.08a.145.145 0 0 1-.014.028v.002H2.79v.001l.007-.008a13.43 13.43 0 0 1 .308-.327L3 14.003Zm.041-.04a2.445 2.445 0 0 0-.041.04l.104.108.039-.037-.102-.11Zm.372-.05a.402.402 0 0 0-.198-.047c-.067.007-.12.048-.174.097l.102.11c.053-.048.074-.057.089-.058.018-.002.047.004.121.036l.06-.137Zm.008.004-.008-.003-.06.137.008.004.06-.138Zm.239.065a.531.531 0 0 1-.239-.065l-.06.138a.676.676 0 0 0 .299.077v-.15Zm.77-.19c-.368.13-.619.19-.77.19v.15c.18 0 .452-.07.82-.199l-.05-.141Zm-.213.336.283-.205-.088-.121-.283.205.088.121Zm-.715.268c.072-.127.121-.18.2-.21.088-.035.22-.043.471-.043v-.15c-.244 0-.406.006-.525.052-.128.05-.2.142-.277.276l.13.075Zm-.054.082a.715.715 0 0 0 .054-.082l-.13-.075a.583.583 0 0 1-.042.065l.118.092Zm-.133.094a.373.373 0 0 0 .076-.038.253.253 0 0 0 .057-.056l-.118-.092a.106.106 0 0 1-.024.024.234.234 0 0 1-.047.023l.056.14Zm-.115.04a5.12 5.12 0 0 0 .115-.04l-.056-.139-.108.038.049.142Zm0 0-.05-.141.05.142Zm0 0-.049-.141.049.142Zm-.245.087.245-.086-.049-.142c-.08.028-.187.064-.249.088l.053.14Zm-.346.19c.122-.087.223-.144.346-.19l-.053-.14c-.138.051-.25.115-.38.207l.087.123Zm-.065.046.065-.046-.087-.123a10.52 10.52 0 0 0-.066.048l.088.121Zm0 0-.088-.121.088.121Zm0 0-.088-.121.088.121Zm0 0-.089-.12.089.12Zm-.001.001-.087-.122.087.122Zm-.082.059c.014-.01.05-.035.082-.06l-.088-.12-.08.057.086.123Zm-.084.11a.243.243 0 0 1 .084-.11l-.086-.123a.386.386 0 0 0-.133.168l.135.065Zm-.185.133a.179.179 0 0 0 .129-.047c.029-.027.045-.064.056-.086l-.135-.065a.43.43 0 0 1-.025.043.011.011 0 0 1-.004.003.063.063 0 0 1-.021.002v.15Zm-.613.178.633-.18-.041-.145-.633.181.041.144Zm.966-.314a.622.622 0 0 1-.186.072 2.6 2.6 0 0 1-.288.054 4.291 4.291 0 0 1-.512.041v.15c.107 0 .321-.013.532-.042.106-.015.213-.034.305-.058a.758.758 0 0 0 .235-.094l-.086-.123Zm.088-.064-.088.064.086.123.09-.065-.088-.122Zm.06-.043-.06.043.088.122.058-.042-.086-.123Zm.313-.172c-.11.041-.202.094-.313.172l.086.123a1.18 1.18 0 0 1 .28-.155l-.053-.14Zm.226-.08c-.079.027-.173.06-.226.08l.053.14c.05-.019.142-.05.222-.078l-.049-.142Zm0 0 .05.142-.05-.142Zm0 0 .049.142-.048-.142Zm.001 0 .047.142-.047-.142Zm.136-.048a5.71 5.71 0 0 1-.137.048l.05.142.143-.05-.056-.14Zm.193-.138a.41.41 0 0 1-.193.138l.056.14a.558.558 0 0 0 .255-.186l-.118-.092Zm.063-.098a.834.834 0 0 1-.063.098l.118.092a.985.985 0 0 0 .075-.115l-.13-.075Zm0 0 .13.075.001-.001-.13-.075Zm.092-.124c-.04.032-.066.08-.091.123l.13.075a.29.29 0 0 1 .054-.08l-.093-.118Zm.454-.06c-.131 0-.223 0-.29.006a.29.29 0 0 0-.164.054l.093.117c.01-.007.027-.016.085-.021a3.8 3.8 0 0 1 .276-.005v-.15Zm.002 0h-.002v.15h.002v-.15Zm.588-.43a.57.57 0 0 1-.206.321.63.63 0 0 1-.382.11v.15a.779.779 0 0 0 .471-.14.72.72 0 0 0 .262-.402l-.145-.04Zm-.227.02.28.072.039-.145-.281-.073-.038.145Zm.006.029.057-.042-.088-.12-.058.04.089.122Zm1.32-.41-.29-.002-.001.15.29.002.001-.15Zm-1.097 1.02c.182-.051.468-.169.71-.327.121-.08.234-.17.318-.272a.554.554 0 0 0 .144-.345l-.15-.002a.4.4 0 0 1-.11.251c-.07.086-.17.168-.284.242-.228.15-.5.26-.669.309l.041.144Zm.437-.485-.5.352.086.122.5-.352-.086-.122Zm.306-.502-.327.523.128.08.326-.523-.127-.08Zm3.172-4.062-.29.011.005.15.29-.01-.005-.15Zm-.516-.097c.162 0 .277.014.35.045a.163.163 0 0 1 .07.052.138.138 0 0 1 .023.078l.15-.006a.287.287 0 0 0-.052-.16.311.311 0 0 0-.132-.101 1.08 1.08 0 0 0-.409-.058v.15Zm-.407.06c.113-.039.238-.06.407-.06v-.15c-.183 0-.325.023-.455.067l.048.143Zm-.06.021.06-.021-.048-.143a1.479 1.479 0 0 0-.066.024l.055.14Zm-.044.018.027-.011.014-.005.004-.002a.044.044 0 0 0 .003-.001l.004-.002c.005-.003.036-.092-.038-.142a.147.147 0 0 0-.02.004h-.002l-.001.001.054.14h-.002l-.002.001a.146.146 0 0 1-.02.004c-.074-.05-.043-.139-.037-.142A.149.149 0 0 1 7.64 9.3h.001s.001 0 0 0h-.003a15.26 15.26 0 0 1-.039.016l.053.14Zm-.02.007a.65.65 0 0 0 .02-.007l-.053-.14-.016.005.049.142Zm-.028-.145a.073.073 0 0 1 .023.004c.003 0 .032.01.046.043a.075.075 0 0 1-.013.077c-.007.009-.014.013-.016.015a.074.074 0 0 1-.012.006c-.002 0-.003 0 0 0l-.049-.142-.007.002a.075.075 0 0 0-.042.099c.014.033.043.042.046.043a.075.075 0 0 0 .024.003v-.15Zm.56.172a.576.576 0 0 1-.129-.024 5.065 5.065 0 0 1-.398-.14l-.004-.002-.03.07-.028.069h.001l.004.002.014.005a4.838 4.838 0 0 0 .402.14c.06.017.12.03.167.03v-.15Zm.256.025a.985.985 0 0 0-.257-.025v.15c.109 0 .179.008.214.019l.043-.144Zm.015.005-.015-.005-.043.144a.205.205 0 0 1 .009.003l.05-.142Zm-.07.128c-.001 0-.005-.004-.009-.01a.075.075 0 0 1 .035-.117.075.075 0 0 1 .025-.004c.008 0 .014.002.015.002.005 0 .009.002.004 0l-.049.143h.003l.008.003s.007.002.015.002a.075.075 0 0 0 .06-.122c-.003-.006-.007-.01-.008-.01l-.1.113Zm-.049-.105a.15.15 0 0 0 .049.105l.098-.113.003.003-.15.005Zm-.068.567.29-.01-.005-.15-.29.01.005.15Zm.07-.08.003.003-.15.006c.001.04.02.08.048.104l.1-.113Zm-.077.127h.003l.007.003a.076.076 0 0 0 .089-.048.075.075 0 0 0-.022-.082l-.099.113-.008-.009a.075.075 0 0 1 .075-.12l.004.001-.05.142Zm-.01-.003.01.003.049-.142-.016-.005-.043.144Zm-.213-.019c.108 0 .179.009.213.019l.043-.144a.983.983 0 0 0-.256-.025v.15Zm-.313.044a.939.939 0 0 1 .313-.044v-.15c-.15 0-.26.018-.36.052l.047.142Zm-.046.017.046-.017-.048-.142a1.194 1.194 0 0 0-.052.02l.054.14Zm-.048.02.031-.013.014-.006a.073.073 0 0 0 .004-.001l.002-.001.003-.001a.187.187 0 0 0 .014-.009c.026-.077-.048-.134-.063-.132a.168.168 0 0 0-.007.002h-.003v.001h-.001l.054.14c.001 0 0 0 0 0h-.002l-.001.001-.007.002c-.014.002-.09-.055-.062-.132a.132.132 0 0 1 .016-.01h.001-.003a1.86 1.86 0 0 1-.014.006l-.029.012.053.14Zm-.153.03a.43.43 0 0 0 .153-.03l-.053-.141a.267.267 0 0 1-.1.022v.15Zm-.317.098.339-.1-.043-.144-.338.1.042.144Zm.42-.508a.065.065 0 0 0-.019.009.204.204 0 0 0-.028.02 17.68 17.68 0 0 0-.437.346l-.005.003-.002.003-.004.004s-.005.004-.009.01a.136.136 0 0 0-.012.036c.005.033.048.075.075.08v-.15c.027.006.07.048.075.082a.136.136 0 0 1-.012.035c-.004.006-.009.01-.009.01l-.003.004H7.17l.003-.002.013-.01a13.996 13.996 0 0 1 .205-.165 18.34 18.34 0 0 1 .227-.177l.002-.001-.002.001s-.004.003-.01.004l-.048-.142Zm.1-.04a1.34 1.34 0 0 1-.1.04l.047.142c.038-.012.077-.03.113-.045l-.06-.138Zm.357-.094c-.144 0-.263.053-.357.093l.06.138a.733.733 0 0 1 .297-.08v-.15Zm.593.32a.287.287 0 0 0-.053-.161.311.311 0 0 0-.132-.101 1.08 1.08 0 0 0-.408-.058v.15c.162 0 .276.014.349.046a.163.163 0 0 1 .07.05.138.138 0 0 1 .024.08l.15-.006Zm-.296.423-.29.01.005.15.29-.01-.005-.15Zm-.515-.097c.162 0 .276.014.349.045a.163.163 0 0 1 .07.051.138.138 0 0 1 .024.079l.15-.006a.287.287 0 0 0-.053-.161.311.311 0 0 0-.132-.1 1.08 1.08 0 0 0-.408-.058v.15Zm-.68.292.044.06h.001l.005-.003.015-.012a4.859 4.859 0 0 1 .248-.165c.073-.045.15-.09.219-.122a.43.43 0 0 1 .148-.05v-.15a.549.549 0 0 0-.213.064 2.529 2.529 0 0 0-.233.13 5.05 5.05 0 0 0-.255.171l-.017.012-.005.003v.001h-.001l.044.061Zm.06-.072a1.03 1.03 0 0 0-.06-.003v.15l.05.003.01-.15Zm.16.002-.016.002a2.032 2.032 0 0 1-.145-.004l-.01.15a2.157 2.157 0 0 0 .168.003.217.217 0 0 0 .056-.01l-.053-.141Zm.101.122c.001 0 0 0 0 0h-.003l-.006.002c-.015.002-.09-.055-.063-.132a.13.13 0 0 1 .013-.008l.002-.001h.001l.001-.001-.003.001-.014.005-.029.012.053.14.031-.012.014-.005a.065.065 0 0 0 .004-.002h.002v-.001l.003-.001a.137.137 0 0 0 .013-.008c.027-.078-.048-.135-.062-.133a.084.084 0 0 0-.007.002H7.39l-.001.001h-.001l.054.14Zm-.002-.16a1.19 1.19 0 0 0-.052.02l.054.14.046-.018-.048-.142Zm.36-.051a1.09 1.09 0 0 0-.36.051l.048.143a.939.939 0 0 1 .313-.044v-.15Zm.257.024a.986.986 0 0 0-.256-.024v.15a.86.86 0 0 1 .213.018l.043-.144Zm.016.005a.273.273 0 0 0-.016-.005l-.043.144.01.003.049-.142Zm-.07.129-.01-.01a.075.075 0 0 1 .06-.122c.01 0 .015.002.016.002l.004.002-.05.141.004.001.007.002.016.002a.076.076 0 0 0 .073-.05.075.075 0 0 0-.013-.072l-.009-.01-.099.114Zm-.05-.105c.002.04.02.08.05.104l.098-.112.003.002-.15.006Zm.006.709.29-.011-.005-.15-.29.01.005.15Zm.07-.08.002.002-.15.006c.002.04.02.08.049.104l.099-.113Zm-.078.126h.003l.008.003s.007.002.015.002a.076.076 0 0 0 .073-.05.075.075 0 0 0-.012-.072l-.01-.01-.098.113-.009-.009a.075.075 0 0 1 .06-.122c.008 0 .014.002.015.002l.004.001-.049.142Zm-.01-.003a.186.186 0 0 1 .01.003l.05-.142a.274.274 0 0 0-.016-.005l-.043.144Zm-.213-.019a.86.86 0 0 1 .214.019l.043-.144a.986.986 0 0 0-.257-.025v.15Zm-.56-.246-.028.069h.001l.004.002a3.464 3.464 0 0 0 .225.085c.062.022.129.044.19.06.06.017.121.03.168.03v-.15a.577.577 0 0 1-.128-.024 5.04 5.04 0 0 1-.398-.14l-.004-.001-.03.069Zm-.02-.073-.007.003-.006.002-.007.004c-.002.002-.01.006-.017.015a.075.075 0 0 0-.012.078c.014.032.043.041.046.042a.08.08 0 0 0 .024.004v-.15h.006c.002 0 .009 0 .017.003.003.001.032.01.046.043a.075.075 0 0 1-.013.077.06.06 0 0 1-.016.015.07.07 0 0 1-.007.004l-.005.002c-.002 0-.003.001 0 0l-.049-.142Zm-.002 0 .053.141-.053-.14Zm.003 0 .047.142-.047-.142Zm-.003 0 .053.141-.053-.14Zm.018-.006-.016.006.049.142.02-.007-.053-.14Zm.098.123H7.26l-.001.001h-.002a.167.167 0 0 1-.02.004c-.074-.05-.042-.139-.037-.141l.004-.002h.001v-.001c.001 0 .001 0 0 0l-.003.001a.964.964 0 0 1-.039.015l.053.14c.005 0 .017-.006.028-.01l.013-.005.004-.002h.001l.002-.001.004-.002c.005-.003.036-.092-.038-.142a.141.141 0 0 0-.021.005h-.002l.054.14Zm.01-.163a1.467 1.467 0 0 0-.065.024l.055.14a1.5 1.5 0 0 1 .059-.022l-.048-.142Zm.456-.068a1.38 1.38 0 0 0-.455.068l.048.142c.113-.038.238-.06.407-.06v-.15Zm.593.32a.287.287 0 0 0-.052-.161.311.311 0 0 0-.132-.101 1.08 1.08 0 0 0-.409-.058v.15c.162 0 .277.014.35.046a.163.163 0 0 1 .07.051.138.138 0 0 1 .024.079l.15-.006Zm-.44.423-.291.011.005.15.29-.011-.005-.15Zm-.516-.097c.162 0 .276.014.349.045a.163.163 0 0 1 .07.051.138.138 0 0 1 .024.079l.15-.006a.287.287 0 0 0-.053-.161.311.311 0 0 0-.132-.1 1.08 1.08 0 0 0-.408-.058v.15Zm-.408.06c.113-.039.239-.06.408-.06v-.15c-.183 0-.325.023-.456.067l.048.142Zm-.059.02.06-.02-.049-.143a1.61 1.61 0 0 0-.065.024l.054.14Zm-.045.018.028-.01a1.09 1.09 0 0 0 .014-.006l.003-.001H6.9v-.001h.002l.003-.002c.006-.003.037-.092-.038-.142a.14.14 0 0 0-.02.004h-.003l.054.14v.001h-.001l-.002.001a.14.14 0 0 1-.02.004c-.074-.05-.043-.14-.037-.142l.003-.002h.002s.001-.001 0 0H6.84a.964.964 0 0 1-.013.006l-.026.01.052.14Zm.154-.104a6.028 6.028 0 0 1-.147-.033h-.002l.005.002a.07.07 0 0 1 .015.01c.002.003.031.029.022.071a.074.074 0 0 1-.047.054l-.052-.14a.072.072 0 0 0-.048.055.075.075 0 0 0 .048.086 7.223 7.223 0 0 0 .175.042l.031-.146Zm-.216.116.236.043.008.001.009.001h.007c.002 0 .012 0 .024-.006a.076.076 0 0 0 .04-.098.076.076 0 0 0-.049-.043l-.004-.001a.854.854 0 0 1-.007-.002l-.048-.01-.032.146a4.15 4.15 0 0 1 .05.011h-.001l-.003-.001-.004-.002-.01-.005a.074.074 0 0 1-.03-.035.075.075 0 0 1 .039-.098.082.082 0 0 1 .024-.006h.014-.003a18.737 18.737 0 0 1-.232-.043l-.028.148Zm.83.047a29.164 29.164 0 0 0-.418-.102l-.262-.064-.086-.02-.024-.006a.118.118 0 0 1-.006-.002h-.002l-.018.073-.017.073h.002a.17.17 0 0 1 .006.002l.024.006.085.02a161.053 161.053 0 0 1 .673.164l.043-.144Zm.01.003a.351.351 0 0 0-.01-.003l-.043.144.006.002.047-.143Zm.006.002c-.001 0-.004 0-.006-.002l-.047.143.004.001.049-.142Zm-.07.128c-.001 0-.005-.003-.01-.009a.075.075 0 0 1 .06-.122c.01 0 .015.002.016.002l.004.002-.05.141.004.001s.003.002.007.002l.016.002a.076.076 0 0 0 .073-.05.075.075 0 0 0-.013-.072l-.009-.01-.099.114Zm-.05-.104c.002.04.02.08.05.104l.098-.112.003.002-.15.006Zm.62-2.66a.067.067 0 0 1 .006-.01v-.002c.001 0 .006-.004.027-.008.044-.01.128-.015.294-.015v-.15a1.76 1.76 0 0 0-.327.018.205.205 0 0 0-.089.04.173.173 0 0 0-.048.067l.138.06Zm0 .002v-.002L8 8.947v.002l.137.06Zm-.015.033.015-.033-.138-.06-.012.029.135.064Zm-.004.01.004-.01-.135-.065-.004.009.135.065Zm-.037.064a.518.518 0 0 0 .037-.065l-.135-.065a.368.368 0 0 1-.027.046l.125.084Zm.383-.577a.506.506 0 0 0-.295.086.488.488 0 0 0-.157.186.678.678 0 0 0-.068.253v.007l.075.003.075.002a.192.192 0 0 1 0-.015.526.526 0 0 1 .052-.183.339.339 0 0 1 .109-.13.357.357 0 0 1 .21-.059v-.15Zm.296 0h-.296v.15h.296v-.15Zm0 .15h.086v-.15h-.086v.15Zm.086 0v-.15.15Zm-.075-.075v.283h.15v-.283h-.15Zm.075.208h-.086v.15h.086v-.15Zm-.382.15h.296v-.15h-.296v.15Z"/><path fill="#fff" fill-rule="evenodd" stroke="#979797" stroke-width=".15" d="M20.412 3.608s-.411-.194-1.059-.194c-.648 0-.155-.577-1.088-.577s-.655-.577-1.931 0-1.497.257-1.497.257-.967-.32-.967 0 .599.724-.334.724c-.932 0-1.216.802-.608 1.713.608.91.942 2.043.942 2.043s.726.797 0 .797-1.065-.797-1.322-.797h-1.422c-1.124 0-1.724-.496-2.547.666-.824 1.161-.598 1.781-.598 2.19 0 .408-.007 1.57-1.02 1.57-1.012 0-1.354.676-1.885.942-.532.266-.891.673-.891.876 0 .202.226.456.89.228.666-.228 1.114-.172 1.668-.66.555-.49 1.836-1.33 1.836-1.108 0 .223-.202 1.107 0 1.107s1.445.823.823 1.17c-.621.349-.621-.347-.621 0v.912h1.548c.246 0 .246-.235.246-.573 0-.338.218-.338.218-.338s.484 1.164.484.59c0-.573.4-1.1-.151-1.1s-.487-.457-.797-.228c-.31.228-.257.056-.592-.433-.335-.488 0-1.107 0-1.107s.62.379.838.379h.702l.246-1.316-.73-.296s-.436-.26-.218-.26.838-.71 0-.355c-.838.354-.503.91-.838.91-.335 0-1.27-1.855.258-1.855s2.933.576 3.875.576c.942 0 .065 1.02.641 1.28.576.26 1.69.66 2.373.66.221.178.338 1.384 1.015 1.384.678 0-.365-1 0-1.384.366-.384 1.454 0 1.454 0s.235-.66-.426-.66c-.267 0-.695-.079-.662-.186.05-.16.944-.737.811-.511 0 0-.692-.402-1.177 0-.484.401.286.51-.734.51s-1.04-.155-1.04-.51.575-2.31.488-2.643c-.088-.333.484.166 1.278.239.793.072 1.462-.666 1.462-.666s.617.904 1.059.666c.441-.239.804-.42.804-.543 0-.123.427-.472.287-.62-.14-.146-.163-.864-.39-.432-.227.433-1.268-.38-1.374-.248-.106.133-.119.458-.509.458s-.531.236-1.513.118c-.981-.118-.789-.14-1.383-.576-.595-.436-.916-.631-.916-.866s.498-.774.707-.46c.209.312.076.46.605.46.528 0 1.535-.061 1.535.215 0 .277.07.903.44.777.371-.126 1.082-.689.222-.992-.86-.303-1.323-.926-.662-.926.662 0 .702.192 1.088.192.386 0 .834.053.834-.276s.32-.493.32-.703c0-.21-.095-.21-.095-.21Z" clip-rule="evenodd"/><path fill="#000" fill-rule="evenodd" d="M19.084 3.422V3.41a.215.215 0 0 0-.217-.212.215.215 0 0 0-.218.212c0 .093.06.172.145.2a.215.215 0 0 1 .218-.2c.025 0 .05.005.072.012Zm-.816.624a.208.208 0 0 1-.055-.14.215.215 0 0 1 .235-.212.22.22 0 0 0-.163-.071.215.215 0 0 0-.218.212c0 .111.088.203.2.211Z" clip-rule="evenodd"/><path fill="#fff" fill-rule="evenodd" stroke="#979797" stroke-width=".15" d="M9.638 16.43c.442 0 .8-.333.8-.744 0-.41-.358-.743-.8-.743-.441 0-.8.333-.8.743s.359.743.8.743Zm1.599-3.822c.441 0 .8-.332.8-.742s-.359-.743-.8-.743c-.442 0-.8.332-.8.743 0 .41.358.742.8.742Zm7.448.779a.914.914 0 0 0 .909-.92.914.914 0 0 0-.909-.92.914.914 0 0 0-.908.92c0 .508.406.92.908.92Z" clip-rule="evenodd"/></g></g><rect width="23" height="17" x=".5" y=".5" stroke="#000" stroke-opacity=".1" rx="1.5"/><defs><clipPath id="a"><rect width="24" height="18" fill="#fff" rx="2"/></clipPath></defs></svg>