<svg xmlns="http://www.w3.org/2000/svg" fill="none" viewBox="0 0 24 18"><g clip-path="url(#a)"><path fill="#002488" d="M0 0v5.25h24V0z"/><path fill="#DA121A" d="M0 5.25V18h24V5.25z"/><path fill="#FCDD09" d="M3.77.592c-.286.473-.32.851-.124 1.504.094.305.197.76.24 1.006.059.348.053.382.06.457h.314c.011-.12.02-.26.046-.451.03-.223.118-.69.214-1.014.191-.647.178-1.045-.119-1.495-.108-.166-.253-.304-.319-.304-.065 0-.212.127-.311.297m.625 2.658a2 2 0 0 0-.043.31h.208c.018-.095.032-.145.073-.28.164-.518.646-.727.624-.24a.43.43 0 0 1-.126.28c.077-.019.243-.096.377-.172.746-.45.452-1.552-.33-1.218-.406.174-.65.656-.783 1.32m-.876.492c.328.002.894.005 1.166.003 0-.08.001-.04.002-.104-.2-.002-.967 0-1.166 0zm-.206.593s.164.019.316.007a.8.8 0 0 0 .326-.073c-.024.181-.026.356-.026.356.022.234.047.294.098.407.069.095.109.096.16-.004a1 1 0 0 0 .1-.404 2 2 0 0 0-.042-.353.9.9 0 0 0 .33.071c.16.015.308.008.308.008s-.217-.11-.313-.243c-.094-.132-.074-.11-.143-.28-.083-.004-.506 0-.64 0-.073.155-.08.188-.171.286a1.3 1.3 0 0 1-.303.222M3.02 1.93c.406.173.65.655.784 1.32.024.124.03.168.043.309h-.208a2 2 0 0 0-.074-.278c-.164-.52-.646-.728-.624-.242.007.134.064.21.127.281a2 2 0 0 1-.378-.172c-.746-.45-.452-1.552.33-1.219M11.27.592c-.286.473-.32.851-.124 1.504.094.305.197.76.24 1.006.059.348.053.382.06.457h.314c.011-.12.02-.26.046-.451.03-.223.119-.69.214-1.014.191-.647.178-1.045-.119-1.495-.108-.166-.253-.304-.319-.304-.065 0-.212.127-.311.297m1.408 1.338c-.406.174-.65.656-.784 1.32-.024.125-.03.169-.043.31h.208a2 2 0 0 1 .074-.28c.164-.518.646-.727.624-.24a.43.43 0 0 1-.126.28c.077-.019.243-.096.377-.172.746-.45.452-1.552-.33-1.218M11.02 3.742c.328.002.894.005 1.166.003 0-.08.001-.04.002-.104-.2-.002-.967 0-1.166 0 0 .043 0 .063-.002.101m.097.371c-.118.127-.303.222-.303.222s.164.019.316.007a.8.8 0 0 0 .326-.073 3 3 0 0 0-.026.356c.023.234.047.294.098.407.069.095.109.096.16-.004a1 1 0 0 0 .1-.404 2 2 0 0 0-.042-.353.9.9 0 0 0 .33.071c.16.015.308.008.308.008s-.218-.11-.313-.243c-.094-.132-.074-.11-.143-.28-.083-.004-.506 0-.64 0-.073.155-.08.188-.171.286M10.52 1.93c.406.173.65.655.784 1.32.024.124.03.168.043.309h-.208a2 2 0 0 0-.074-.278c-.164-.52-.646-.728-.624-.242.007.134.064.21.127.281a2 2 0 0 1-.378-.172c-.746-.45-.452-1.552.33-1.219M18.77.592c-.286.473-.32.851-.124 1.504.094.305.197.76.24 1.006.059.348.053.382.06.457h.314c.011-.12.02-.26.046-.451.03-.223.118-.69.214-1.014.191-.647.178-1.045-.119-1.495-.108-.166-.253-.304-.319-.304-.065 0-.212.127-.311.297m1.408 1.338c-.406.174-.65.656-.784 1.32-.024.125-.03.169-.043.31h.209a2 2 0 0 1 .073-.28c.164-.518.646-.727.624-.24a.43.43 0 0 1-.127.28c.078-.019.244-.096.378-.172.746-.45.452-1.552-.33-1.218M18.52 3.742c.328.002.894.005 1.166.003 0-.08.001-.04.002-.104-.2-.002-.967 0-1.166 0 0 .043 0 .063-.002.101m.097.371c-.118.127-.303.222-.303.222s.164.019.316.007a.8.8 0 0 0 .326-.073 3 3 0 0 0-.026.356c.023.234.047.294.098.407.069.095.109.096.16-.004a1 1 0 0 0 .1-.404 2 2 0 0 0-.042-.353.9.9 0 0 0 .33.071c.16.015.308.008.308.008s-.218-.11-.313-.243c-.094-.132-.074-.11-.143-.28-.083-.004-.506 0-.64 0-.073.155-.08.188-.171.286M18.02 1.93c.406.173.65.655.784 1.32.024.124.03.168.043.309h-.208a2 2 0 0 0-.074-.278c-.164-.52-.646-.728-.624-.242.007.134.064.21.127.281a2 2 0 0 1-.378-.172c-.746-.45-.452-1.552.33-1.219"/><path fill="green" d="M8.474 9.846c.157.074.358.132.46.135.12.004.087-.025-.136-.112a2.4 2.4 0 0 1-.477-.255c-.166-.136-.166-.136-.149-.016.01.068.135.175.302.248"/><path fill="green" d="M7.496 8.43c.101.407.521 1.154.666 1.183.13.022.13.015.022-.108-.181-.21-.572-.98-.572-1.125 0-.08-.037-.138-.08-.138-.05 0-.065.073-.036.189M3.14 7.922c-.002.014.134.119.304.237.17.119.37.286.435.372.113.152.753.53.813.482.058-.041-.766-.71-1.114-.904-.415-.235-.429-.237-.438-.187"/><path fill="green" d="M3.374 8.48c0 .014.152.094.34.181s.413.218.493.29c.137.13.833.392.884.334.05-.05-.877-.566-1.254-.697-.449-.16-.463-.16-.463-.108m3.587.058c0 .08.283.63.45.863.094.13.203.203.326.203.18 0 .18 0-.094-.312-.16-.167-.37-.42-.479-.558s-.203-.225-.203-.196m-1.166 2.233c-.478.189-.58.254-.58.355 0 .044.051.037.13-.029.066-.065.305-.152.522-.203.218-.05.479-.137.58-.188l.181-.095h-.217a3 3 0 0 0-.616.16m-.948-1.137c-.123.094-.116.102.152.058.16-.022.391-.065.507-.094.189-.05.174-.058-.152-.065-.217-.008-.42.036-.507.101"/><path fill="green" d="M3.047 8.871c1.195.218 3.594 1.023 3.449 1.161-.037.036-.71-.13-.805-.196-.036-.036-.39-.022-.782.03-.732.079-.855.144-.84.442.007.145.007.145.043 0 .065-.269.174-.327.587-.327.449 0 1.68.182 2.224.327.725.203.746.203.507.072-.311-.174-.782-.493-.87-.587-.159-.182-3.05-.98-3.47-.965-.196.014-.203.014-.043.043"/><path fill="green" d="M3.596 9.258a.63.63 0 0 0-.203.34c-.043.211-.043.211.073.073.304-.384.326-.399.703-.406.304-.007.348-.022.203-.065-.305-.094-.609-.073-.776.058m3.694.448c.057.101.622.384.666.34.022-.021-.044-.08-.13-.13a1.2 1.2 0 0 1-.269-.189c-.116-.108-.333-.13-.268-.021m.044.689c.058.101.623.384.667.34.022-.021-.044-.079-.13-.13a1.2 1.2 0 0 1-.269-.188c-.116-.11-.333-.131-.268-.022"/><path fill="green" d="M6.523 9.531c.01-.01.174.044.367.12.193.075.443.146.55.153.19.008.861.328.855.405-.002.071-1.016-.239-1.372-.42-.426-.212-.436-.223-.4-.258"/><path fill="green" d="M7.723 10.061c-.135.053-.271.147-.313.215-.05.08-.008.08.166-.007a1.5 1.5 0 0 1 .443-.134c.202-.01.202-.01.073-.09-.073-.047-.23-.042-.369.016M4.332 7.616c.225.428 1.138 1.415 1.645 1.792.138.102.384.203.536.225l.283.044-.21-.233c-.34-.37-.863-1.08-1.03-1.392-.18-.341-.202-.254-.05.181.058.174.29.522.515.769.224.254.369.464.333.464-.094 0-.703-.718-1.138-1.342-.47-.682-.492-.704-.362-.326.065.181.21.45.333.595.116.152.189.275.152.275-.072 0-.39-.362-.79-.885-.108-.152-.26-.348-.325-.435-.073-.094-.022.029.108.268m.425 2.808c-.312.072-.479.181-.479.312 0 .05.03.043.066-.015.058-.094.652-.268.71-.21.014.014-.008.123-.051.232-.044.109-.058.218-.036.24.021.028.058-.03.08-.11.086-.311.354-.406 1-.348.325.03.688.066.804.073.123.007.29.05.376.101.189.102.92.11.855.008-.021-.037-.16-.087-.311-.11a9 9 0 0 1-.674-.151c-.45-.117-1.884-.131-2.34-.022m2.646.837c-.546-.097-.806-.01-1.027.33l-.189.293.243-.23c.33-.32.569-.35 1.16-.178.277.081.512.135.52.123.045-.066-.422-.294-.707-.338"/><path fill="green" d="M7.552 11.414c-.508.224-.674.442-.667.848l.007.348.073-.326c.094-.45.275-.61.862-.798.275-.087.5-.174.5-.189 0-.08-.515-.007-.775.117"/><path fill="green" d="M7.455 12.036c-.087.116-.152.269-.152.349 0 .094.036.072.137-.095.08-.13.218-.283.305-.348.166-.116.166-.116.014-.116-.087 0-.217.087-.304.21m7.834 1.183c.235.102 1.456.41 2.32.663s1.873.545 2.096.576c.32-.697-.261.607.07-.183-.431-.11-2.131-.51-2.814-.707-.588-.165-1.422-.422-1.636-.47-.214-.046-.217.042-.036.12"/><path fill="green" d="M15.438 13.038c.239.093 1.47.359 2.342.582s1.891.479 2.115.502c.296-.708-.24.616.064-.186-.435-.094-2.148-.435-2.837-.608-.593-.144-1.437-.372-1.652-.411-.215-.04-.215.048-.032.12m-.338.313c.23.114 1.433.486 2.282.784.85.298 1.842.643 2.064.686.355-.68-.293.592.08-.18-.426-.132-2.103-.622-2.774-.853-.579-.196-1.398-.496-1.61-.555-.21-.058-.218.03-.042.118"/><path fill="green" d="M14.954 13.499c.223.126 1.405.56 2.237.902.833.343 1.807.738 2.026.793.39-.66-.324.576.088-.175-.417-.155-2.066-.731-2.724-.998-.568-.225-1.371-.568-1.579-.638-.207-.069-.22.019-.048.116"/><path fill="green" d="M14.816 13.686c.219.134 1.385.609 2.205.98s1.78.8 1.996.863c.414-.646-.343.564.095-.172-.412-.169-2.04-.803-2.688-1.092-.56-.245-1.35-.616-1.556-.693s-.22.01-.052.114"/><path fill="#FCDD09" d="M12.371 15.566c.337.235.522.561.503.898l-.012.278.11-.274c.121-.286.105-.72-.038-1.04l-.083-.188.264.116c.378.16.627.44.679.773l.045.274.051-.29c.06-.306-.047-.726-.253-1.01l-.12-.166.282.058c.402.077.704.3.824.615l.102.259-.01-.295c-.007-.31-.198-.7-.459-.935l-.152-.137.289-.002c.41-.008.75.146.934.43l.153.232-.072-.286c-.07-.303-.338-.644-.642-.82l-.177-.102.282-.062c.399-.093.765-.013 1.002.226l.198.195-.129-.265c-.131-.281-.464-.559-.798-.668l-.194-.063.262-.12c.371-.174.746-.171 1.028.013l.234.15-.181-.233c-.187-.248-.57-.45-.92-.486l-.203-.022.232-.171c.327-.248.694-.324 1.008-.202l.26.098-.226-.19c-.234-.203-.651-.322-1-.285l-.203.021.19-.216c.269-.31.612-.46.945-.407l.274.042-.26-.139c-.271-.15-.703-.179-1.037-.07l-.195.063.142-.251c.198-.36.503-.578.84-.595l.276-.017-.283-.08c-.297-.091-.725-.03-1.03.146l-.176.103.086-.276c.12-.392.372-.67.697-.756l.268-.074-.294-.02c-.309-.027-.715.122-.976.358l-.152.137.028-.288c.034-.409.224-.732.524-.885l.247-.128-.292.041c-.308.039-.674.27-.88.554l-.12.166-.033-.287c-.051-.407.067-.763.33-.975l.214-.177-.277.101c-.293.102-.604.404-.747.725l-.083.187-.091-.274c-.134-.387-.093-.76.12-1.022l.173-.217-.25.156c-.266.16-.507.52-.58.864l-.042.2-.146-.248c-.212-.351-.249-.725-.095-1.025l.124-.249-.212.205c-.227.213-.387.615-.387.966v.205l-.195-.213c-.28-.299-.394-.657-.306-.982l.07-.27-.165.245c-.178.255-.251.682-.178 1.026l.042.2-.234-.167c-.337-.235-.522-.561-.504-.898l.013-.278-.11.274c-.121.286-.105.72.038 1.04l.083.187-.264-.115c-.378-.16-.627-.44-.679-.773l-.045-.274-.051.29c-.06.305.047.726.253 1.01l.12.166-.282-.058c-.402-.077-.704-.3-.824-.615l-.102-.26.01.296c.007.31.198.7.459.935l.152.137-.289.002c-.41.008-.75-.147-.934-.43l-.153-.232.072.286c.07.303.338.644.642.82l.177.102-.282.062c-.399.093-.765.013-1.003-.226l-.198-.195.13.265c.131.281.464.559.798.667l.194.064-.262.12c-.371.174-.746.17-1.028-.013l-.234-.15.181.232c.187.248.57.45.92.487l.203.022-.232.171c-.327.248-.694.323-1.008.202l-.26-.098.226.19c.234.203.65.321 1 .285l.203-.022-.19.216c-.269.31-.612.461-.945.407l-.275-.04.26.138c.272.15.704.179 1.038.07l.195-.063-.142.251c-.198.36-.503.578-.84.595l-.277.016.284.082c.297.09.725.028 1.03-.147l.176-.103-.086.275c-.12.393-.372.67-.697.757l-.268.074.294.02c.309.027.715-.123.976-.358L8.93 14l-.028.287c-.034.41-.224.733-.524.885l-.247.129.292-.041c.308-.039.674-.27.88-.554l.12-.166.033.287c.051.407-.067.763-.33.975l-.214.177.277-.101c.293-.102.604-.404.746-.725l.084-.187.091.273c.134.388.093.761-.12 1.023l-.173.217.25-.156c.266-.16.506-.52.58-.865l.042-.2.146.249c.212.351.249.725.095 1.025l-.124.248.212-.204c.227-.213.387-.615.387-.967v-.205l.195.213c.28.3.394.657.306.983l-.07.27.165-.245c.177-.255.251-.682.178-1.026l-.042-.2z"/></g><rect width="23" height="17" x=".5" y=".5" stroke="#000" stroke-opacity=".1" rx="1.5"/><defs><clipPath id="a"><rect width="24" height="18" fill="#fff" rx="2"/></clipPath></defs></svg>