<svg xmlns="http://www.w3.org/2000/svg" fill="none" viewBox="0 0 24 18"><g clip-path="url(#a)"><mask id="b" width="24" height="18" x="0" y="0" maskUnits="userSpaceOnUse" style="mask-type:luminance"><path fill="#fff" d="M0 0h24v18H0z"/></mask><g mask="url(#b)"><path fill="#E31D1C" fill-rule="evenodd" d="M0 0v18h24V0H0Z" clip-rule="evenodd"/><mask id="c" width="24" height="18" x="0" y="0" maskUnits="userSpaceOnUse" style="mask-type:luminance"><path fill="#fff" fill-rule="evenodd" d="M0 0v18h24V0H0Z" clip-rule="evenodd"/></mask><g fill-rule="evenodd" clip-rule="evenodd" mask="url(#c)"><path fill="#F7FCFF" d="M12 15a6 6 0 1 0 0-12 6 6 0 0 0 0 12Z"/><path fill="#E31D1C" d="M13.052 13.238S9.89 12.375 9.89 8.98s3.162-4.332 3.162-4.332c-1.308-.506-5.134.27-5.134 4.332 0 4.062 3.933 4.793 5.134 4.258Zm-.174-4.997-1.569.574 1.686.589.057 1.579 1.026-1.227 1.692.12-1.219-.994.734-1.437-1.434.483-.993-1.242.02 1.555Z"/></g></g></g><path stroke="#000" stroke-opacity=".1" stroke-width=".5" d="M.25.25h23.5v17.5H.25z"/><defs><clipPath id="a"><path fill="#fff" d="M0 0h24v18H0z"/></clipPath></defs></svg>