<svg xmlns="http://www.w3.org/2000/svg" fill="none" viewBox="0 0 24 18"><g clip-path="url(#a)"><mask id="b" width="24" height="18" x="0" y="0" maskUnits="userSpaceOnUse" style="mask-type:luminance"><path fill="#fff" d="M0 0h24v18H0z"/></mask><g mask="url(#b)"><path fill="#67BFE5" fill-rule="evenodd" d="M0 0v18h24V0H0Z" clip-rule="evenodd"/><mask id="c" width="24" height="18" x="0" y="0" maskUnits="userSpaceOnUse" style="mask-type:luminance"><path fill="#fff" fill-rule="evenodd" d="M0 0v18h24V0H0Z" clip-rule="evenodd"/></mask><g mask="url(#c)"><path fill="#F7FCFF" fill-rule="evenodd" d="M15 7.5h7.241v6.25s-.607 2.75-3.62 2.75C15.607 16.5 15 13.75 15 13.75V7.5Z" clip-rule="evenodd"/><mask id="d" width="8" height="10" x="15" y="7" maskUnits="userSpaceOnUse" style="mask-type:luminance"><path fill="#fff" fill-rule="evenodd" d="M15 7.5h7.241v6.25s-.607 2.75-3.62 2.75C15.607 16.5 15 13.75 15 13.75V7.5Z" clip-rule="evenodd"/></mask><g mask="url(#d)"><path fill="#C3352C" d="M15 7.5h7.241v2.25H15z"/><path fill="#C3352C" d="M18.104 9.5h1.034v7h-1.034z"/><path fill="#C3352C" d="M15 12.25h7.241v1H15z"/><path fill="#979797" fill-rule="evenodd" d="M16.905 15.553c.436.615.79.855 1.041.493.177-.255.195-.51-.056-.56a4.164 4.164 0 0 1-.307-.43l.008-.008c.07-.069.073-.16.06-.194-.006-.047.029-.11.255-.283.205-.156.296-.304.162-.467-.07-.085-.134-.102-.335-.133l-.061-.01a1.063 1.063 0 0 1-.13-.027l-.139-.266a1.717 1.717 0 0 0-.766.147 65.867 65.867 0 0 0-.319.134l.004-.003c.005-.005.015-.012.001-.012a2.25 2.25 0 0 1-.267-.026l-.03-.004c-.453-.057-.566-.055-.64.155-.111.321.55.909.9.98.176.035.386.203.62.514Zm.493-.442a.404.404 0 0 0 .104-.01l.009-.018a.196.196 0 0 1-.113.028Zm-1.652-.885c-.01-.01-.012-.025-.006-.043-.001.004.003.012.012.023a.51.51 0 0 0 .038.044.091.091 0 0 1-.044-.024Zm.614.445c-.126-.026-.445-.292-.57-.421.033.01.077.014.125.019l.064.007.03.004c.177.022.239.029.314.029.043 0 .034.014.029.024-.002.002-.003.005-.002.006.002.004.036-.01.207-.083l.226-.096c.133-.056.254-.092.387-.108.015.062.051.12.11.165.08.062.17.088.326.114-.193.158-.29.291-.32.42-.174.055-.158.25-.054.446.073.137.21.33.414.585l.146.07a.124.124 0 0 1-.086-.035c-.023-.019-.037-.03-.068.015-.002.004-.139-.089-.43-.5-.286-.382-.564-.604-.848-.661Zm.915.224c.002-.002.002-.005.002-.008l-.002.008Zm.12-.159h-.012l.006.001a.04.04 0 0 1 .006 0Zm.003 0h-.003.003Z" clip-rule="evenodd"/><path stroke="#964C36" d="M16.241 12.083s-.357-.495-.357-.672"/><path stroke="#2A8E51" d="M16.02 11.657s-.458-.195-.458 0m.45-.205s-.322-.41-.564-.41c-.242 0-.236.205-.236.205m.616-.206s-.144-.67-.374-.67-.23.336-.23.336m.662.333s-.064-.574.232-.574"/><path stroke="#964C36" d="M16.696 11.986s-.167-.588-.107-.754"/><path stroke="#2A8E51" d="M16.633 11.51s-.363-.34-.43-.156m.493-.04s-.163-.494-.39-.577c-.227-.083-.292.111-.292.111m.649.018s.095-.678-.122-.757c-.216-.079-.33.236-.33.236m.508.54s.136-.561.414-.46"/><path stroke="#964C36" stroke-width=".7" d="M17.064 12.195s.237-.563.198-.735"/><path stroke="#2A8E51" stroke-width=".7" d="M17.185 11.73s.402-.293.446-.102m-.485-.099s.221-.472.457-.526c.236-.054.276.146.276.146m-.646-.061s-.011-.685.213-.737c.224-.051.3.275.3.275m-.57.474s-.067-.574-.356-.507m3.203 1.258s.182-.835.698-.835c.517 0 .748.883.748.883"/><path stroke="#2A8E51" stroke-width=".7" d="M19.597 11.281s.278-.493 1.196-.453c.918.04 1.085.453 1.085.453m-2.466-.627s.504-.624 1.21-.095l.24.095s.24-.708 1.4 0"/><path stroke="#964C36" d="M20.804 12.028s.037-.78.16-.994m.86 2.701s-.464-.218-.602 0c-.139.218-1.81 2.222-1.81 2.222"/><path fill="#FFF203" fill-rule="evenodd" d="m20.223 13.946 1.036.724s.476-.34.238-.532-.887-.53-.887-.53l-.387.338Z" clip-rule="evenodd"/><path fill="#00A651" fill-rule="evenodd" d="M20.187 13.983s-.24.252-.24.444c0 .191-.223.706-.223.706s.625.384.754.14c.13-.245.972-.099.823-.473-.148-.373-1.114-.817-1.114-.817Z" clip-rule="evenodd"/><path fill="#FFD100" fill-rule="evenodd" d="M15.792 8.387s.553-.284.827 0c.274.284.498-.024.498-.195s.435-.759.435-.282c0 .477-.136.746.246.746s2.103-.659 2.515-.464c.413.195.728.146.623-.133-.104-.28-.374-.454-.893-.301-.519.152-.396.301-.845.301-.448 0-.948-.149-.948-.149s.14-.25.653-.072c.512.178 1.218-.221 1.41-.221.192 0 .721-.012.773.14.053.153.372.293.129.435-.244.142-.645.231-.369.413.276.182.911.147.942.337.03.19.331.472.21.472-.12 0-.339.267-.542.186-.203-.082-.227-.153-.032-.219s.193-.342.032-.342c-.16 0-.082.097-.448 0s-.85-.205-.821 0c.029.204.267.519-.172.56-.44.043-.646.21-.731.075-.086-.135-.392-.316-.151-.373.24-.058.47.196.557.155.086-.042.283-.065.118-.241-.164-.176-.435-.28-.184-.412.251-.132.053-.134-.426.139s-.745.505-1.165.472c-.42-.033-.578.012-.713-.033-.136-.044-.794.49-.983.354-.19-.135-.801-.187-.691-.354.11-.166.258-.252.422-.166.165.086.329.171.44.086.11-.086.432-.38.351-.439-.08-.059-.003-.257-.46-.257-.456 0-.617.22-.725.082-.109-.139.118-.3.118-.3Z" clip-rule="evenodd"/></g><path fill="#2B409A" d="M-4-3h18v14H-4z"/><mask id="e" width="18" height="14" x="-4" y="-3" maskUnits="userSpaceOnUse" style="mask-type:luminance"><path fill="#fff" d="M-4-3h18v14H-4z"/></mask><g mask="url(#e)"><path fill="#F7FCFF" d="m-6.004 10 3.96 1.737L14.09-1.111l2.09-2.582-4.236-.58-6.58 5.536-5.297 3.73L-6.004 10Z"/><path fill="#F50100" d="m-5.462 11.217 2.018 1.008L15.429-3.933h-2.834l-18.057 15.15Z"/><path fill="#F7FCFF" d="m16.004 10-3.96 1.737L-4.09-1.111l-2.09-2.582 4.236-.58 6.58 5.536 5.297 3.73L16.004 10Z"/><path fill="#F50100" d="m15.87 10.873-2.019 1.009-8.036-6.918-2.383-.773-9.812-7.875h2.833L6.26 4.004l2.605.927 7.004 5.942Z"/><mask id="f" width="22" height="18" x="-6" y="-5" fill="#000" maskUnits="userSpaceOnUse"><path fill="#fff" d="M-6-5h22v18H-6z"/><path fill-rule="evenodd" d="M5.985-3h-2v6H-4v2h7.985v6h2V5H14V3H5.985v-6Z" clip-rule="evenodd"/></mask><path fill="#F50100" fill-rule="evenodd" d="M5.985-3h-2v6H-4v2h7.985v6h2V5H14V3H5.985v-6Z" clip-rule="evenodd"/><path fill="#F7FCFF" d="M3.985-3v-1.5h-1.5V-3h1.5Zm2 0h1.5v-1.5h-1.5V-3Zm-2 6v1.5h1.5V3h-1.5ZM-4 3V1.5h-1.5V3H-4Zm0 2h-1.5v1.5H-4V5Zm7.985 0h1.5V3.5h-1.5V5Zm0 6h-1.5v1.5h1.5V11Zm2 0v1.5h1.5V11h-1.5Zm0-6V3.5h-1.5V5h1.5ZM14 5v1.5h1.5V5H14Zm0-2h1.5V1.5H14V3ZM5.985 3h-1.5v1.5h1.5V3Zm-2-4.5h2v-3h-2v3Zm1.5 4.5v-6h-3v6h3ZM-4 4.5h7.985v-3H-4v3Zm1.5.5V3h-3v2h3Zm6.485-1.5H-4v3h7.985v-3Zm1.5 7.5V5h-3v6h3Zm.5-1.5h-2v3h2v-3ZM4.485 5v6h3V5h-3ZM14 3.5H5.985v3H14v-3ZM12.5 3v2h3V3h-3ZM5.985 4.5H14v-3H5.985v3ZM4.485-3v6h3v-6h-3Z" mask="url(#f)"/></g></g></g></g><path stroke="#000" stroke-opacity=".1" stroke-width=".5" d="M.25.25h23.5v17.5H.25z"/><defs><clipPath id="a"><path fill="#fff" d="M0 0h24v18H0z"/></clipPath></defs></svg>