<svg xmlns="http://www.w3.org/2000/svg" fill="none" viewBox="0 0 24 18"><g clip-path="url(#a)"><mask id="b" width="24" height="18" x="0" y="0" maskUnits="userSpaceOnUse" style="mask-type:luminance"><path fill="#fff" d="M0 0h24v18H0z"/></mask><g mask="url(#b)"><path fill="#C51918" fill-rule="evenodd" d="M0 0v18h24V0H0Z" clip-rule="evenodd"/><mask id="c" width="24" height="18" x="0" y="0" maskUnits="userSpaceOnUse" style="mask-type:luminance"><path fill="#fff" fill-rule="evenodd" d="M0 0v18h24V0H0Z" clip-rule="evenodd"/></mask><g fill-rule="evenodd" clip-rule="evenodd" mask="url(#c)"><path fill="#2E42A5" d="M0 0v10.5h12V0H0Z"/><path fill="#FEFFFF" d="m2.674 5.83-.795.479.182-.937-.663-.7.897-.038.38-.875.379.875h.894l-.66.738.199.937-.813-.48Zm6 0-.795.479.182-.937-.663-.7.897-.038.38-.875.379.875h.894l-.66.738.199.937-.813-.48ZM5.6 3.104l-.75.451.172-.881-.624-.66.844-.036.357-.823.357.823h.842l-.621.696.187.881-.765-.451Zm.81 3.215-.468.282.107-.55-.39-.413.528-.022.223-.515.223.515h.526l-.388.434.117.551-.478-.282Zm-.853 3.302-1.123.678.256-1.323-.935-.99 1.266-.053.536-1.234.535 1.234h1.263l-.932 1.043.28 1.323-1.146-.678Z"/></g></g></g><path stroke="#000" stroke-opacity=".1" stroke-width=".5" d="M.25.25h23.5v17.5H.25z"/><defs><clipPath id="a"><path fill="#fff" d="M0 0h24v18H0z"/></clipPath></defs></svg>