<svg xmlns="http://www.w3.org/2000/svg" fill="none" viewBox="0 0 24 18"><g clip-path="url(#a)"><mask id="b" width="24" height="18" x="0" y="0" maskUnits="userSpaceOnUse" style="mask-type:luminance"><path fill="#fff" d="M0 0h24v18H0z"/></mask><g mask="url(#b)"><path fill="#3D58DB" fill-rule="evenodd" d="M0 0h24v18H0V0Z" clip-rule="evenodd"/><path fill="#C51918" stroke="#FFD018" stroke-width="2" d="M0 3.5h-1v11h26v-11H0Z"/><path fill="#FFD018" d="M5.362 6.998c-.09 0-.163-.203-.163-.454 0-.25.073-.454.163-.454H18.42c.09 0 .163.203.163.454 0 .25-.073.454-.163.454H5.362Z"/><path fill="#F7FCFF" fill-rule="evenodd" d="m18.071 6.452.759-.968 1.341.968-1.341.992-.759-.992Z" clip-rule="evenodd"/><path fill="#FFD018" d="M5.362 9.998c-.09 0-.163-.203-.163-.454 0-.25.073-.454.163-.454H18.42c.09 0 .163.203.163.454 0 .25-.073.454-.163.454H5.362Z"/><path fill="#F7FCFF" fill-rule="evenodd" d="m18.071 9.452.759-.968 1.341.968-1.341.992-.759-.992Z" clip-rule="evenodd"/><path fill="#FFD018" d="M3.259 11.866c-.12 0-.218-.23-.218-.516 0-.284.097-.515.218-.515h17.508c.12 0 .218.23.218.515 0 .285-.097.516-.218.516H3.26Z"/><path fill="#F7FCFF" fill-rule="evenodd" d="M6.613 9.04s2.13-4.485 5.179-4.485c3.048 0 5.25 4.485 5.25 4.485s-2.69 4.426-5.214 4.426c-2.526 0-5.215-4.426-5.215-4.426Z" clip-rule="evenodd"/><mask id="c" width="12" height="10" x="6" y="4" maskUnits="userSpaceOnUse" style="mask-type:luminance"><path fill="#fff" fill-rule="evenodd" d="M6.613 9.04s2.13-4.485 5.179-4.485c3.048 0 5.25 4.485 5.25 4.485s-2.69 4.426-5.214 4.426c-2.526 0-5.215-4.426-5.215-4.426Z" clip-rule="evenodd"/></mask><g fill-rule="evenodd" clip-rule="evenodd" mask="url(#c)"><path fill="#272727" d="M11.943 4.26s-.695.845-.464 1.65c.232.806.772.72.772 1.43s-.25 1.433 0 1.433.336.49.108.821c-.228.332-.43.342-.416.882.014.54 1.194 1.07.622 1.07s-1.325.555-1.086.555c.24 0 1.495.433 1.495 1v1.022H6.428V4.26h5.515Z"/><path fill="#F7FCFF" d="M8.864 7.442h-.326V8.77h.326V7.442Zm.961 0h-.326V8.77h.326V7.442Zm-.806 0h.325V8.77H9.02V7.442Zm1.287 0H9.98V8.77h.325V7.442Zm.154 0h.326V8.77h-.326V7.442Zm.807 0h-.326V8.77h.326V7.442ZM8.538 9.346h.326v1.327h-.326V9.346Zm1.287 0h-.326v1.327h.326V9.346Zm-.806 0h.325v1.327H9.02V9.346Zm1.287 0H9.98v1.327h.325V9.346Zm.154 0h.326v1.327h-.326V9.346Zm.807 0h-.326v1.327h.326V9.346Z"/><path fill="#272727" d="M12.733 7.442h-.326V8.77h.326V7.442Zm.961 0h-.326V8.77h.326V7.442Zm-.806 0h.326V8.77h-.326V7.442Zm1.287 0h-.326V8.77h.326V7.442Zm.154 0h.326V8.77h-.326V7.442Zm.807 0h-.326V8.77h.326V7.442Zm-2.729 1.904h.326v1.327h-.326V9.346Zm1.287 0h-.326v1.327h.326V9.346Zm-.806 0h.326v1.327h-.326V9.346Zm1.287 0h-.326v1.327h.326V9.346Zm.154 0h.326v1.327h-.326V9.346Zm.807 0h-.326v1.327h.326V9.346Z"/><path fill="#3D58DB" d="M9.923 5.304c-.456.141-.665 1.338-.614 1.627.051.29.206-.036.206-.036s.316.686.348.87c.033.186.2-.278.2-.278s.547.377.621.798c.074.42.186-.482.186-.482l.124-.021-.079-.446.237.203-.073-.414s.178.233.133-.024l-.07-.4-.062-.35.234-.04s-.934-1.149-1.39-1.007Z"/></g><path fill="#3D58DB" fill-rule="evenodd" d="M19.566 10.272c-.474.06-.887 1.202-.887 1.496 0 .294.209 0 .209 0s.191.73.191.918c0 .188.245-.24.245-.24s.474.467.474.894.266-.442.266-.442h.126v-.452l.198.24v-.42s.135.26.135 0v-.761h.238s-.72-1.293-1.195-1.233Zm-15.371-.173c.474.06.887 1.202.887 1.496 0 .294-.209 0-.209 0s-.192.73-.192.918c0 .188-.244-.24-.244-.24s-.474.467-.474.894-.266-.442-.266-.442H3.57v-.452l-.198.24v-.42s-.135.26-.135 0v-.761H3s.72-1.293 1.195-1.233Z" clip-rule="evenodd"/></g></g><rect width="23" height="17" x=".5" y=".5" stroke="#000" stroke-opacity=".1" rx="1.5"/><defs><clipPath id="a"><rect width="24" height="18" fill="#fff" rx="2"/></clipPath></defs></svg>