<svg xmlns="http://www.w3.org/2000/svg" fill="none" viewBox="0 0 24 18"><g clip-path="url(#a)"><mask id="b" width="24" height="18" x="0" y="0" maskUnits="userSpaceOnUse" style="mask-type:luminance"><path fill="#fff" d="M0 0h24v18H0z"/></mask><g fill-rule="evenodd" clip-rule="evenodd" mask="url(#b)"><path fill="#FFDC17" d="M6 0h12v18H6V0Z"/><path fill="#5FBF2B" d="M18 0h6v18h-6V0Z"/><path fill="#2E42A5" d="M0 0h6v18H0V0Z"/><path fill="#5FBF2B" d="m14.795 4.2-2.28 3.347 2.28 3.229 2.28-3.229-2.28-3.347Zm-5.587.06L6.75 7.546l2.28 3.17 2.28-3.17L9.208 4.26Zm.424 6.982 2.458-3.288 2.103 3.288-2.103 3.384-2.458-3.384Z"/></g></g><path stroke="#000" stroke-opacity=".1" stroke-width=".5" d="M.25.25h23.5v17.5H.25z"/><defs><clipPath id="a"><path fill="#fff" d="M0 0h24v18H0z"/></clipPath></defs></svg>