<svg xmlns="http://www.w3.org/2000/svg" fill="none" viewBox="0 0 24 18"><g clip-path="url(#a)"><mask id="b" width="24" height="18" x="0" y="0" maskUnits="userSpaceOnUse" style="mask-type:luminance"><path fill="#fff" d="M0 0h24v18H0z"/></mask><g mask="url(#b)"><path fill="#2993EC" fill-rule="evenodd" d="M0 0h25.5v18H0z" clip-rule="evenodd"/><path fill="#F1F9FF" fill-rule="evenodd" d="M4.66 8.688c0 3.969 3.286 7.187 7.34 7.187s7.34-3.218 7.34-7.187S16.054 1.5 12 1.5 4.66 4.718 4.66 8.688m13.085 0c0 3.106-2.572 5.624-5.745 5.624s-5.745-2.518-5.745-5.624c0-3.107 2.572-5.626 5.745-5.626s5.745 2.519 5.745 5.626" clip-rule="evenodd"/><path fill="#E31D1C" fill-rule="evenodd" d="M5.298 8.688c0 3.624 3 6.562 6.702 6.562s6.702-2.938 6.702-6.562-3-6.563-6.702-6.563-6.702 2.938-6.702 6.563m13.085 0c0 3.451-2.858 6.25-6.383 6.25s-6.383-2.799-6.383-6.25S8.475 2.438 12 2.438s6.383 2.798 6.383 6.25" clip-rule="evenodd"/><path fill="#FDDA33" fill-rule="evenodd" d="M12 1.656q-.12.251-.121.712 0 .462-.358.924a7 7 0 0 1-.066-.924q0-.414.545-.712m1.677.254q-.174.217-.278.667t-.556.82q.049-.511.143-.916t.691-.57m1.153 1.216q.21-.41.431-.58-.62.018-.809.388-.187.369-.36.853.528-.25.738-.661m1.813.387q-.253.114-.55.467t-.868.478q.276-.432.543-.75t.875-.195m.478 1.584q.369-.278.642-.331-.566-.257-.897-.007-.33.25-.698.609.585.006.953-.27m1.439 1.155q-.278-.014-.703.167-.425.18-.99.032.443-.26.825-.422.38-.162.868.223m-.296 1.616q.454-.08.723-.004-.388-.485-.796-.413a7 7 0 0 0-.898.226q.516.271.971.191M4.563 7.33q.225.162.68.242.455.081.848.513a7 7 0 0 1-.922-.095q-.408-.072-.606-.66m1.153-1.19q-.425-.18-.608-.39.06.618.442.78t.877.3q-.287-.51-.711-.69m.304-1.81q.127.247.496.526.369.277.523.841a7 7 0 0 1-.778-.503q-.33-.249-.24-.864m1.574-.544q-.297-.353-.365-.623-.227.578.04.895t.645.665q-.024-.583-.32-.937M8.68 2.299q.006.279.216.69t.1.985a7 7 0 0 1-.478-.793q-.188-.369.162-.882m1.672.21q-.104-.45-.042-.721-.464.411-.371.816t.272.885q.245-.53.14-.98" clip-rule="evenodd"/><path fill="#A7A7A7" fill-rule="evenodd" d="M11.118 4.313a.574.574 0 0 0-.561.697l.227 1.038c.037.172.15.311.297.388a.57.57 0 0 0-.258.414l-1.016 8.52a.52.52 0 0 0 .26.528c.418.231 1.215.602 2.013.602s1.594-.371 2.013-.602a.52.52 0 0 0 .259-.527l-1.015-8.52a.57.57 0 0 0-.259-.415.57.57 0 0 0 .297-.388l.228-1.038a.575.575 0 0 0-.562-.697z" clip-rule="evenodd"/><path fill="#73BE4A" d="M4.89 9.01a.24.24 0 0 1 .299-.156.234.234 0 0 1 .158.293q-.102.322.007.944a2 2 0 0 0 .16.521l.06.127c.07.162.102.304.102.512 0 .13-.107.234-.24.234a.237.237 0 0 1-.238-.234.7.7 0 0 0-.064-.326l-.056-.118a2.4 2.4 0 0 1-.195-.635q-.13-.719.007-1.162"/><path fill="#F7FCFF" fill-rule="evenodd" d="m12.16 12.134-3.086 2.103 1.088-3.524L7.167 8.49l3.758-.075 1.235-3.477 1.234 3.477 3.759.075-2.996 2.223 1.088 3.524z" clip-rule="evenodd"/><path fill="#73BE4A" d="M19.17 9.322a.24.24 0 0 0-.3-.155.234.234 0 0 0-.158.292q.102.322-.007.945a2 2 0 0 1-.16.52c.01-.021-.046.097-.059.128a1.16 1.16 0 0 0-.103.511c0 .13.107.235.24.235a.237.237 0 0 0 .238-.235c0-.142.018-.22.064-.325l.056-.119a2.6 2.6 0 0 0 .196-.635q.13-.719-.008-1.162"/><path stroke="#73BE4A" stroke-linecap="round" stroke-linejoin="round" d="M12.045 2.36s.874.39.496 1.002m.143-1.002s.873.39.496 1.002"/><path fill="#73BE4A" d="M6.945 4.768a.205.205 0 0 1 .297-.074c.1.069.13.213.067.323q-.183.314-.184.869c0 .13-.097.234-.216.234s-.215-.105-.215-.234q-.001-.679.25-1.118"/><path fill="#73BE4A" d="M6.606 6.91c0 .129-.096.234-.215.234-.12 0-.216-.105-.216-.235v-.667q-.002-.71.23-1.116a.205.205 0 0 1 .298-.075c.1.069.131.214.068.323-.107.187-.165.476-.165.868zm11.007-.313c0 .13.096.234.215.234.12 0 .216-.105.216-.234v-.668q.002-.708-.23-1.116a.205.205 0 0 0-.297-.074.247.247 0 0 0-.069.323c.107.186.165.475.165.867z"/><path fill="#73BE4A" d="M18.251 7.69c0 .13.097.235.216.235s.215-.105.215-.234v-.668q.002-.708-.23-1.116a.205.205 0 0 0-.297-.074.247.247 0 0 0-.069.323q.163.279.165.867z"/></g></g><rect width="23" height="17" x=".5" y=".5" stroke="#000" stroke-opacity=".1" rx="1.5"/><defs><clipPath id="a"><rect width="24" height="18" fill="#fff" rx="2"/></clipPath></defs></svg>