<svg xmlns="http://www.w3.org/2000/svg" fill="none" viewBox="0 0 24 18"><g clip-path="url(#a)"><path fill="#fff" d="M0 0h24v18H0z"/><path fill="#C51918" stroke="#4857A1" d="m8.616 9.32 6.816 8.18H.5V.842L14.54 8.5H7.931l.684.82Z"/><mask id="b" width="17" height="18" x="0" y="0" maskUnits="userSpaceOnUse" style="mask-type:luminance"><path fill="#fff" stroke="#fff" d="m8.616 9.32 6.816 8.18H.5V.842L14.54 8.5H7.931l.684.82Z"/></mask><g fill-rule="evenodd" clip-rule="evenodd" mask="url(#b)"><path fill="#F7FCFF" d="M4.372 15.008 3.453 16.2l-.042-1.505-1.444.425.85-1.242-1.418-.506 1.418-.505-.85-1.243 1.444.425.042-1.505.92 1.193.918-1.193.043 1.505 1.444-.425-.85 1.243 1.418.505-1.418.506.85 1.242-1.444-.425L5.29 16.2l-.919-1.192ZM4.35 6.104l-.48.623-.022-.786-.754.222.444-.65-.74-.263.74-.264-.444-.649.754.222.022-.786.48.623.48-.623.022.786.754-.222-.444.65.74.263-.74.264.444.649-.754-.222-.022.786-.48-.623Z"/><path fill="#F9FAFA" d="M4.25 5.92c1.67.007 2.56-.94 2.56-.94.176 1.08-1.184 1.8-2.544 1.8s-2.184-.98-2.691-1.8c0 0 1.005.934 2.675.94Z"/></g></g><path stroke="#000" stroke-opacity=".1" stroke-width=".5" d="M.25.25h23.5v17.5H.25z"/><defs><clipPath id="a"><path fill="#fff" d="M0 0h24v18H0z"/></clipPath></defs></svg>