<svg xmlns="http://www.w3.org/2000/svg" fill="none" viewBox="0 0 24 18"><g clip-path="url(#a)"><mask id="b" width="24" height="18" x="0" y="0" maskUnits="userSpaceOnUse" style="mask-type:luminance"><path fill="#fff" d="M0 0h24v18H0z"/></mask><g mask="url(#b)"><path fill="#2E42A5" fill-rule="evenodd" d="M0 0v18h24V0z" clip-rule="evenodd"/><mask id="c" width="24" height="18" x="0" y="0" maskUnits="userSpaceOnUse" style="mask-type:luminance"><path fill="#fff" fill-rule="evenodd" d="M0 0v18h24V0z" clip-rule="evenodd"/></mask><g mask="url(#c)"><path fill="#2B409A" d="M-4-3h18v14H-4z"/><mask id="d" width="18" height="14" x="-4" y="-3" maskUnits="userSpaceOnUse" style="mask-type:luminance"><path fill="#fff" d="M-4-3h18v14H-4z"/></mask><g mask="url(#d)"><path fill="#F7FCFF" d="m-6.004 10 3.96 1.737L14.09-1.111l2.09-2.582-4.237-.58-6.58 5.536-5.296 3.73z"/><path fill="#F50100" d="m-5.462 11.217 2.018 1.008L15.429-3.933h-2.833z"/><path fill="#F7FCFF" d="m16.004 10-3.961 1.737L-4.09-1.111l-2.09-2.582 4.236-.58 6.58 5.536 5.297 3.73z"/><path fill="#F50100" d="m15.869 10.873-2.018 1.009-8.037-6.918-2.382-.773-9.813-7.875h2.834L6.26 4.004l2.605.927z"/><mask id="e" width="22" height="18" x="-6" y="-5" fill="#000" maskUnits="userSpaceOnUse"><path fill="#fff" d="M-6-5h22v18H-6z"/><path fill-rule="evenodd" d="M5.985-3h-2v6H-4v2h7.985v6h2V5H14V3H5.985z" clip-rule="evenodd"/></mask><path fill="#F50100" fill-rule="evenodd" d="M5.985-3h-2v6H-4v2h7.985v6h2V5H14V3H5.985z" clip-rule="evenodd"/><path fill="#F7FCFF" d="M3.985-3v-1.5h-1.5V-3zm2 0h1.5v-1.5h-1.5zm-2 6v1.5h1.5V3zM-4 3V1.5h-1.5V3zm0 2h-1.5v1.5H-4zm7.985 0h1.5V3.5h-1.5zm0 6h-1.5v1.5h1.5zm2 0v1.5h1.5V11zm0-6V3.5h-1.5V5zM14 5v1.5h1.5V5zm0-2h1.5V1.5H14zM5.985 3h-1.5v1.5h1.5zm-2-4.5h2v-3h-2zm1.5 4.5v-6h-3v6zM-4 4.5h7.985v-3H-4zm1.5.5V3h-3v2zm6.485-1.5H-4v3h7.985zm1.5 7.5V5h-3v6zm.5-1.5h-2v3h2zM4.485 5v6h3V5zM14 3.5H5.985v3H14zM12.5 3v2h3V3zM5.985 4.5H14v-3H5.985zM4.485-3v6h3v-6z" mask="url(#e)"/></g><path fill="#F50100" fill-rule="evenodd" d="m18.075 5.603-.195 1.135 1.02-.536 1.02.536-.195-1.135.825-.804-1.14-.166L18.9 3.6l-.51 1.033-1.14.166zm-3 4.2-.195 1.135 1.02-.536 1.02.537-.195-1.136.825-.804-1.14-.166L15.9 7.8l-.51 1.033L14.25 9zm2.242 6.267 1.323-.695 1.322.695-.252-1.472 1.07-1.043-1.479-.215L18.64 12l-.661 1.34-1.479.215 1.07 1.043zm3.831-5.67-1.018.535.194-1.134-.824-.804 1.139-.165.51-1.032.508 1.032 1.14.165-.825.804.195 1.134z" clip-rule="evenodd"/><path fill="#F7FCFF" d="m17.88 6.738-.197-.033-.068.4.358-.19zm.195-1.135.197.034.018-.104-.075-.073zm.825.6.093-.178-.093-.049-.093.05zm1.02.535-.093.177.358.19-.068-.4zm-.195-1.135-.14-.143-.075.073.018.104zm.825-.804.14.143.29-.283-.401-.058zm-1.14-.166-.18.089.047.094.104.015zM18.9 3.6l.18-.089-.18-.363-.18.363zm-.51 1.033.029.198.104-.015.047-.094zm-1.14.166-.029-.198-.4.058.29.283zm-2.37 6.14-.197-.034-.068.4.358-.19zm.195-1.136.197.034.018-.104-.075-.073zm.825.6.093-.178-.093-.049-.093.05zm1.02.535-.093.178.358.188-.068-.4zm-.195-1.135-.14-.143-.075.073.018.104zm.825-.804.14.143.29-.283-.401-.058zm-1.14-.166-.18.089.047.094.104.015zM15.9 7.8l.18-.089-.18-.363-.18.363zm-.51 1.033.029.198.104-.015.046-.094zM14.25 9l-.029-.198-.4.058.29.283zm4.39 6.376.093-.177-.093-.049-.093.049zm-1.323.695-.197-.034-.068.4.358-.189zm2.645 0-.093.177.359.189-.069-.4zm-.252-1.472-.14-.144-.075.074.018.103zm1.07-1.043.14.143.29-.283-.402-.058zm-1.48-.216-.18.088.047.095.104.015zM18.64 12l.18-.088-.18-.364-.18.364zm-.661 1.34.028.198.104-.015.047-.095zm-1.479.215-.029-.198-.4.058.29.283zm1.07 1.043.197.033.018-.103-.076-.074zm2.56-3.663-.198-.034-.068.4.359-.189zm1.018-.536.093-.177-.093-.048-.093.048zm-.824-.598.197.034.018-.104-.075-.073zm-.824-.804-.029-.197-.4.058.29.283zm1.139-.165.029.198.104-.015.046-.095zm.51-1.032.178-.089-.179-.363-.18.363zm.508 1.032-.179.088.047.095.104.015zm1.14.165.139.144.29-.283-.4-.058zm-.825.804-.14-.143-.075.073.018.104zm.195 1.134-.093.177.358.189-.068-.4zm-4.09-4.163.195-1.135-.394-.068-.195 1.136zm.73-.747-1.02.536.186.354 1.02-.536zm1.206.536-1.02-.536-.186.354 1.02.536zm-.485-.924.195 1.135.394-.067-.195-1.136zm.882-.981-.825.804.28.286.825-.804zm-1.029.175 1.14.166.058-.396-1.14-.166zm-.66-1.143.51 1.034.358-.177-.51-1.034zm-.151 1.034.51-1.034-.36-.177-.51 1.034zm-1.291.275 1.14-.166-.058-.396-1.14.166zm.936.463-.825-.804-.28.286.825.804zm-3.138 5.512.195-1.135-.394-.068-.195 1.136zm.73-.747-1.02.536.186.355 1.02-.537zm1.206.536-1.02-.536-.186.354 1.02.537zm-.485-.924.195 1.135.394-.067-.195-1.136zm.882-.981-.825.804.28.286.825-.804zm-1.029.175 1.14.166.058-.396-1.14-.166zm-.66-1.143.51 1.034.358-.177-.51-1.034zm-.152 1.034.51-1.034-.358-.177-.51 1.034zm-1.29.275 1.14-.166-.058-.396-1.14.166zm.936.463-.825-.804-.28.286.825.804zm3.332 5.538-1.323.695.186.354 1.323-.695zm1.508.695-1.322-.695-.186.354 1.322.695zm-.542-1.262.252 1.473.395-.067-.253-1.473zm1.127-1.22-1.07 1.043.28.287 1.07-1.043zm-1.368.127 1.479.215.057-.396-1.478-.215zm-.811-1.45.66 1.34.36-.177-.662-1.34zm-.303 1.34.661-1.34-.358-.176-.662 1.34zm-1.63.325 1.48-.215-.058-.396-1.479.215zm1.181.701-1.07-1.043-.279.287 1.07 1.043zm-.194 1.65.252-1.473-.394-.067-.253 1.473zm2.708-4.992 1.018-.536-.186-.354-1.018.536zm-.096-1.345-.195 1.134.395.068.194-1.134zm-.767-.626.825.803.279-.286-.824-.804zm1.25-.507-1.139.166.058.395 1.139-.165zm.359-.923-.51 1.032.36.177.509-1.032zm.868 1.032-.51-1.032-.358.177.51 1.032zm.988.057-1.139-.166-.057.396 1.139.165zm-.713 1.144.824-.803-.28-.287-.823.804zm.252.957-.195-1.134-.394.068.195 1.134zm-1.309-.325 1.019.536.186-.354-1.019-.536z"/></g></g></g><rect width="23" height="17" x=".5" y=".5" stroke="#000" stroke-opacity=".1" rx="1.5"/><defs><clipPath id="a"><rect width="24" height="18" fill="#fff" rx="2"/></clipPath></defs></svg>