<svg xmlns="http://www.w3.org/2000/svg" fill="none" viewBox="0 0 24 18"><g clip-path="url(#a)"><path fill="#19BFBF" d="M0 0h24v18H0z"/><path fill="#fff" fill-rule="evenodd" d="m11.429 12.686-.48-.959a.333.333 0 0 0-.298-.184h-.227a.333.333 0 0 1-.236-.098l-2.09-2.09A.333.333 0 0 1 8 9.119v-.867a.333.333 0 0 0-.098-.235l-.98-.98a.333.333 0 0 1-.087-.155L6.33 4.863a.333.333 0 0 0-.218-.235l-1.518-.506a.333.333 0 0 1-.044-.018l-.937-.47a.333.333 0 0 1-.184-.297v-.604c0-.184.149-.333.333-.333h.671a.33.33 0 0 1 .236.098l.376.376a.333.333 0 0 0 .236.097h.867a.333.333 0 0 0 .235-.097l.377-.376a.333.333 0 0 1 .235-.098h2.07c.05 0 .102.012.148.035l1.002.501a.334.334 0 0 0 .15.035h.985a.334.334 0 0 0 .149-.035l1.002-.5a.333.333 0 0 1 .15-.036h1.873c.184 0 .333.15.333.333v.476c0 .185-.15.334-.333.334h-.476a.333.333 0 0 0-.334.333v1.175c0 .126.072.242.185.298l.476.238a.333.333 0 0 0 .482-.298v-.841c0-.185.15-.334.334-.334h1.095c.157 0 .285.128.285.286 0 .158.128.286.286.286h1.095c.184 0 .334.149.334.333v.755a.331.331 0 0 1-.017.106l-.53 1.588a.334.334 0 0 1-.08.13l-1.62 1.62a.331.331 0 0 0-.063.087l-.512 1.024a.333.333 0 0 0-.035.15v.73c0 .184-.15.334-.334.334h-.032a.333.333 0 0 1-.298-.184l-.387-.775a.333.333 0 0 0-.298-.184h-1.303a.333.333 0 0 0-.298.184l-.404.81a.333.333 0 0 0 0 .298l.404.81a.333.333 0 0 0 .299.184h.798c.089 0 .173.035.236.097l.947.948a.334.334 0 0 1 .098.236v.671c0 .184-.15.333-.333.333h-.604a.333.333 0 0 1-.298-.184l-.387-.774a.333.333 0 0 0-.298-.184h-.731a.333.333 0 0 1-.298-.185l-.48-.958Z" clip-rule="evenodd"/></g><path stroke="#000" stroke-opacity=".1" stroke-width=".5" d="M.25.25h23.5v17.5H.25z"/><defs><clipPath id="a"><path fill="#fff" d="M0 0h24v18H0z"/></clipPath></defs></svg>