<svg xmlns="http://www.w3.org/2000/svg" fill="none" viewBox="0 0 24 18"><g clip-path="url(#a)"><mask id="b" width="24" height="18" x="0" y="0" maskUnits="userSpaceOnUse" style="mask-type:luminance"><path fill="#fff" d="M0 0h24v18H0z"/></mask><g mask="url(#b)"><path fill="#E31D1C" fill-rule="evenodd" d="M0 0v18h24V0H0Z" clip-rule="evenodd"/><mask id="c" width="24" height="18" x="0" y="0" maskUnits="userSpaceOnUse" style="mask-type:luminance"><path fill="#fff" fill-rule="evenodd" d="M0 0v18h24V0H0Z" clip-rule="evenodd"/></mask><g mask="url(#c)"><path fill="#F7FCFF" fill-rule="evenodd" d="M4.576 3.173c-.01-.092.101-.137.164-.07.366.396 1.203 1.238 1.696 1.238.645 0 3.175-2.132 3.923-1.785.748.348 2.262 3.979 2.262 3.979l-.987 1.237-1.275-.695-.241-2.736s-2.455 1.262-3.682.804l-.69.58s-.663-1.315-.925-1.717c-.157-.243-.22-.594-.245-.835Z" clip-rule="evenodd"/><path fill="#FECA00" fill-rule="evenodd" d="m6.196 6.093-.42.255.08-.539-.339-.382.47-.078.21-.49.21.49.469.078-.34.382.08.539-.42-.255ZM9.76 2.844a.272.272 0 1 1 .544 0V4.13a.272.272 0 0 1-.544 0V2.844Z" clip-rule="evenodd"/><path fill="#F7FCFF" fill-rule="evenodd" d="M18.855 3.797c.083.041.063.158-.028.176-.53.1-1.687.365-1.948.783-.342.546.126 3.822-.565 4.272-.691.45-4.573-.19-4.573-.19l-.527-1.493 1.266-.713 2.448 1.246s.23-2.751 1.269-3.548l-.126-.892s1.466.134 1.946.125c.29-.005.62.128.838.234Z" clip-rule="evenodd"/><path fill="#FECA00" fill-rule="evenodd" d="m15.52 3.624.007-.491.414.353.504-.086-.183.44.305.438-.527-.082-.315.357-.144-.49-.5-.218.439-.221Zm.916 4.78a.294.294 0 1 1-.319.494l-1.16-.776a.27.27 0 0 1 .292-.454l1.187.736Z" clip-rule="evenodd"/><path fill="#F7FCFF" fill-rule="evenodd" d="M11.203 15.7c-.077.053-.168-.024-.138-.111.178-.51.528-1.644.296-2.079-.302-.569-3.372-1.802-3.417-2.625-.044-.823 2.45-3.865 2.45-3.865l1.557.29-.016 1.453-2.302 1.497s2.267 1.575 2.438 2.873l.836.336s-.85 1.204-1.082 1.623c-.14.253-.42.474-.622.609Z" clip-rule="evenodd"/><path fill="#FECA00" fill-rule="evenodd" d="m13.021 12.9.422.25-.513.183-.178.479-.29-.378-.531.045.334-.415-.15-.452.496.12.438-.323-.028.49Zm-4.693-1.682a.305.305 0 0 1-.22-.569l1.251-.488a.31.31 0 1 1 .223.578l-1.254.479Z" clip-rule="evenodd"/><path fill="#FECA00" d="M10.247 7.324a.184.184 0 0 1-.111-.232c.031-.096.181-.256.274-.223l1.302.455a.182.182 0 0 1 .12.158l.117 1.428c.008.1-.139.182-.237.19a.18.18 0 0 1-.193-.167l-.107-1.228-1.165-.381Z"/><path fill="#FECA00" d="M12.51 6.576c.078-.062.217.01.278.09a.186.186 0 0 1-.031.256l-.902.924c-.078.062-.253-.059-.314-.138-.06-.08-.077-.297 0-.36l.97-.772Z"/></g></g></g><path stroke="#000" stroke-opacity=".1" stroke-width=".5" d="M.25.25h23.5v17.5H.25z"/><defs><clipPath id="a"><path fill="#fff" d="M0 0h24v18H0z"/></clipPath></defs></svg>