<svg xmlns="http://www.w3.org/2000/svg" fill="none" viewBox="0 0 24 18"><g clip-path="url(#a)"><mask id="b" width="24" height="18" x="0" y="0" maskUnits="userSpaceOnUse" style="mask-type:luminance"><path fill="#fff" d="M0 0h24v18H0z"/></mask><g mask="url(#b)"><path fill="#2E42A5" fill-rule="evenodd" d="M0 0v18h24V0H0Z" clip-rule="evenodd"/><mask id="c" width="24" height="18" x="0" y="0" maskUnits="userSpaceOnUse" style="mask-type:luminance"><path fill="#fff" fill-rule="evenodd" d="M0 0v18h24V0H0Z" clip-rule="evenodd"/></mask><g mask="url(#c)"><path fill="#2B409A" d="M-4-3h18v14H-4z"/><mask id="d" width="18" height="14" x="-4" y="-3" maskUnits="userSpaceOnUse" style="mask-type:luminance"><path fill="#fff" d="M-4-3h18v14H-4z"/></mask><g mask="url(#d)"><path fill="#F7FCFF" d="m-6.004 10 3.96 1.737L14.09-1.11l2.09-2.582-4.236-.58-6.58 5.536-5.297 3.73L-6.004 10Z"/><path fill="#F50100" d="m-5.462 11.217 2.018 1.008L15.429-3.933h-2.833l-18.058 15.15Z"/><path fill="#F7FCFF" d="m16.004 10-3.96 1.737L-4.09-1.11l-2.09-2.582 4.236-.58 6.58 5.536 5.297 3.73L16.004 10Z"/><path fill="#F50100" d="m15.87 10.873-2.019 1.008-8.036-6.918-2.383-.773-9.812-7.874h2.833L6.26 4.004l2.605.926 7.004 5.943Z"/><mask id="e" width="22" height="18" x="-6" y="-5" fill="#000" maskUnits="userSpaceOnUse"><path fill="#fff" d="M-6-5h22v18H-6z"/><path fill-rule="evenodd" d="M5.985-3h-2v6H-4v2h7.985v6h2V5H14V3H5.985v-6Z" clip-rule="evenodd"/></mask><path fill="#F50100" fill-rule="evenodd" d="M5.985-3h-2v6H-4v2h7.985v6h2V5H14V3H5.985v-6Z" clip-rule="evenodd"/><path fill="#F7FCFF" d="M3.985-3v-1.5h-1.5V-3h1.5Zm2 0h1.5v-1.5h-1.5V-3Zm-2 6v1.5h1.5V3h-1.5ZM-4 3V1.5h-1.5V3H-4Zm0 2h-1.5v1.5H-4V5Zm7.985 0h1.5V3.5h-1.5V5Zm0 6h-1.5v1.5h1.5V11Zm2 0v1.5h1.5V11h-1.5Zm0-6V3.5h-1.5V5h1.5ZM14 5v1.5h1.5V5H14Zm0-2h1.5V1.5H14V3ZM5.985 3h-1.5v1.5h1.5V3Zm-2-4.5h2v-3h-2v3Zm1.5 4.5v-6h-3v6h3ZM-4 4.5h7.985v-3H-4v3Zm1.5.5V3h-3v2h3Zm6.485-1.5H-4v3h7.985v-3Zm1.5 7.5V5h-3v6h3Zm.5-1.5h-2v3h2v-3ZM4.485 5v6h3V5h-3ZM14 3.5H5.985v3H14v-3ZM12.5 3v2h3V3h-3ZM5.985 4.5H14v-3H5.985v3ZM4.485-3v6h3v-6h-3Z" mask="url(#e)"/></g><path fill="#3B7E05" fill-rule="evenodd" stroke="#F7FCFF" stroke-width=".5" d="M16.247 7.033v6.529s-.097 5.402 4.882 5.402c4.978 0 4.978-5.402 4.978-5.402v-6.53h-9.86Z" clip-rule="evenodd"/><path fill="#FFD018" fill-rule="evenodd" d="m16.237 16.889.793-.796c1.24 1.53 2.544 2.276 3.93 2.276 1.386 0 2.689-.745 3.927-2.276l.45.452.02-.028c.276.234.458.452.545.706a.842.842 0 0 1-.343 1.018c-.082.052-.148.09-.207.117a.521.521 0 0 1-.405.045.581.581 0 0 1-.373-.346c-1.125.995-2.332 1.5-3.614 1.5-1.271 0-2.47-.497-3.587-1.475a.58.58 0 0 1-.378.337.52.52 0 0 1-.404-.052 1.921 1.921 0 0 1-.205-.12c-.33-.216-.474-.615-.325-1.025.04-.112.106-.215.19-.316l-.014-.017Z" clip-rule="evenodd"/><path fill="#fff" d="m17.03 16.093.194-.158-.175-.216-.196.197.177.177Zm-.793.796-.177-.177-.159.16.142.174.194-.157Zm8.65-.796.177-.177-.197-.197-.175.217.195.157Zm.45.452-.176.177.214.215.17-.252-.207-.14Zm.02-.028.162-.19-.213-.18-.156.23.207.14Zm.545.706.237-.082-.237.082Zm-.343 1.018-.133-.211.133.211Zm-.207.117-.105-.227.105.227Zm-.405.045-.067.24.067-.24Zm-.373-.346.231-.095-.133-.325-.263.232.165.188Zm-7.201.025.165-.188-.257-.225-.137.313.229.1Zm-.378.337-.063-.242.063.242Zm-.404-.052.11-.225-.11.225Zm-.205-.12-.136.209.136-.21Zm-.325-1.025.235.086-.235-.086Zm.19-.316.192.161.133-.158-.13-.16-.195.157Zm.602-.99-.793.796.354.353.793-.796-.354-.353Zm4.107 2.203c-1.284 0-2.524-.687-3.736-2.184l-.388.315c1.267 1.565 2.636 2.369 4.124 2.369v-.5Zm3.732-2.183c-1.21 1.496-2.448 2.183-3.732 2.183v.5c1.488 0 2.855-.804 4.12-2.369l-.388-.314Zm.823.433-.451-.453-.355.353.452.453.354-.353Zm-.365.008-.02.029.415.28.02-.03-.415-.279Zm.989.764c-.109-.315-.33-.569-.62-.815l-.323.382c.26.221.404.404.47.596l.473-.163Zm-.447 1.312c.433-.272.627-.79.447-1.312l-.473.163c.105.304-.005.578-.24.726l.266.423Zm-.234.131c.072-.033.148-.077.234-.131l-.266-.423a1.67 1.67 0 0 1-.18.101l.212.453Zm-.578.06a.753.753 0 0 0 .578-.06l-.211-.453a.443.443 0 0 1-.122.043.256.256 0 0 1-.11-.012l-.135.482Zm-.537-.492a.83.83 0 0 0 .537.491l.135-.48a.331.331 0 0 1-.21-.201l-.462.19Zm-3.383 1.656c1.354 0 2.618-.537 3.78-1.564l-.331-.375c-1.089.963-2.24 1.439-3.45 1.439v.5Zm-3.752-1.538c1.155 1.01 2.41 1.538 3.752 1.538v-.5c-1.2 0-2.341-.468-3.422-1.414l-.33.376Zm-.15.39a.83.83 0 0 0 .544-.478l-.458-.2a.331.331 0 0 1-.212.195l.127.483Zm-.576-.069a.753.753 0 0 0 .577.07l-.127-.484a.256.256 0 0 1-.11.01.443.443 0 0 1-.121-.045l-.22.45Zm-.232-.135c.085.056.16.1.232.135l.219-.45a1.702 1.702 0 0 1-.178-.104l-.273.419Zm-.424-1.32c-.189.519-.004 1.04.424 1.32l.273-.419c-.232-.151-.337-.428-.227-.73l-.47-.17Zm.234-.39c-.098.116-.18.244-.234.39l.47.172a.807.807 0 0 1 .147-.24l-.383-.322Zm-.017.3.014.018.388-.315-.014-.017-.388.314Z"/><path fill="#F50100" fill-rule="evenodd" d="m17.956 8.46.111.041c.091-.208.106-.366 0-.468l-.003-.005c-.025-.038-.068-.107.003-.253l-.05-.105c-.104.212-.151.365-.07.468l.004.006.005.004c.047.042.066.16 0 .312Zm0 1.514.111.04c.091-.207.106-.366 0-.467l-.003-.005c-.025-.039-.068-.107.003-.253l-.05-.105c-.104.212-.151.365-.07.468l.004.005.005.005c.047.042.066.16 0 .312Zm.111 1.392-.111-.04c.066-.153.047-.27 0-.313l-.005-.005-.004-.005c-.081-.103-.034-.256.07-.468l.05.105c-.071.146-.028.215-.003.253l.003.005c.106.102.091.26 0 .468Zm.666 1.58.11.042c.092-.208.107-.367 0-.468l-.002-.005c-.025-.039-.069-.107.003-.254l-.051-.104c-.104.212-.15.365-.07.468l.005.005.005.004c.046.043.066.16 0 .313Zm-.811 1.339-.112-.04c.067-.153.047-.271 0-.313l-.005-.005-.004-.005c-.08-.103-.034-.256.07-.468l.05.105c-.071.146-.027.215-.002.253l.003.005c.105.102.09.26 0 .468Zm-.112 1.473.112.04c.09-.207.105-.366 0-.467l-.003-.005c-.025-.039-.07-.107.003-.254l-.052-.104c-.103.212-.15.364-.069.468l.004.005.005.004c.047.043.067.16 0 .313Zm4.917.04-.111-.04c.067-.152.047-.27 0-.313l-.005-.004-.004-.005c-.081-.104-.034-.256.07-.468l.05.104c-.071.147-.027.215-.003.254l.003.005c.106.101.091.26 0 .468Zm-.111-1.5.111.041c.091-.208.106-.366 0-.468l-.003-.005c-.024-.038-.068-.107.003-.253l-.05-.105c-.104.212-.151.365-.07.468l.004.005.005.005c.047.042.067.16 0 .312Zm.111-1.418-.111-.041c.067-.152.047-.27 0-.313l-.005-.004-.004-.005c-.081-.103-.034-.256.07-.468l.05.104c-.071.147-.027.215-.003.254l.003.005c.106.101.091.26 0 .468Zm-.16-1.447.112.041c.09-.208.106-.366 0-.468l-.003-.005c-.025-.038-.069-.107.003-.253l-.051-.105c-.104.212-.15.365-.07.468l.005.006.005.004c.046.042.066.16 0 .312Zm.112-1.472-.111-.041c.066-.152.046-.27 0-.313l-.005-.004-.005-.005c-.08-.103-.034-.256.07-.468l.05.104c-.07.147-.027.215-.002.254l.003.005c.106.101.09.26 0 .468Zm-.111-1.447.11.041c.092-.208.107-.366 0-.468a.174.174 0 0 1-.002-.004c-.025-.039-.069-.108.003-.254l-.051-.105c-.104.212-.15.365-.07.468l.005.006.005.004c.046.042.066.16 0 .312Z" clip-rule="evenodd"/><path fill="#FFD018" fill-rule="evenodd" d="M18.76 7.815a.115.115 0 0 0 .013-.053c0-.06-.045-.108-.1-.108-.055 0-.1.049-.1.108 0 .026.008.05.022.068l-.378.586.04.032.377-.586a.093.093 0 0 0 .092-.008l.398.594.039-.032-.403-.601Zm-.013.507a.113.113 0 0 0 .026-.073c0-.06-.045-.108-.1-.108-.055 0-.1.048-.1.108a.11.11 0 0 0 .042.088l-.095.114h-.642s.07.161.29.204c.066.063.237.182.237.182l-.097.118H19v-.118c.169-.002.232-.135.255-.183.01-.02.012-.024.012 0 0 .086.123 0 .123 0s.204-.203.204-.397-.427.194-.427.194h-.29l-.13-.13Zm-.87 1.643h.643l.095-.114a.11.11 0 0 1-.042-.089c0-.06.045-.108.1-.108.055 0 .1.049.1.108 0 .029-.01.054-.026.073l.13.13h.29s.427-.388.427-.194-.204.397-.204.397-.123.085-.123 0c0-.025-.003-.02-.012 0-.023.048-.086.18-.255.182v.119h-.692l.097-.119s-.17-.118-.238-.182a.397.397 0 0 1-.29-.203Zm.883-.636a.115.115 0 0 0 .013-.053c0-.06-.045-.108-.1-.108-.055 0-.1.048-.1.108 0 .026.008.05.022.068l-.378.586.04.031.377-.585a.093.093 0 0 0 .092-.008l.398.594.039-.033-.403-.6Zm-.882 1.987h.642l.095-.114a.11.11 0 0 1-.042-.088c0-.06.045-.108.1-.108.055 0 .1.048.1.108 0 .028-.01.053-.026.073l.13.129h.29s.427-.388.427-.194-.204.398-.204.398-.123.085-.123 0c0-.025-.003-.02-.012 0-.023.047-.086.18-.255.181v.119h-.692l.097-.119s-.17-.118-.238-.181c-.219-.043-.29-.204-.29-.204Zm.882-.636a.115.115 0 0 0 .013-.053c0-.06-.045-.108-.1-.108-.055 0-.1.049-.1.108 0 .026.008.05.022.068l-.378.586.04.032.377-.586a.094.094 0 0 0 .092-.008l.398.594.039-.032-.403-.601Zm-.106 2.258h.643l.095-.114a.11.11 0 0 1-.043-.089c0-.06.045-.108.1-.108.056 0 .1.049.1.108 0 .029-.01.054-.026.073l.13.13h.29s.428-.388.428-.194-.204.397-.204.397-.124.085-.124 0c0-.025-.002-.02-.011 0-.023.047-.086.18-.255.182v.119h-.693l.098-.119s-.171-.118-.238-.182c-.22-.042-.29-.203-.29-.203Zm.883-.636a.115.115 0 0 0 .012-.053c0-.06-.044-.108-.1-.108-.055 0-.1.048-.1.108 0 .026.009.05.023.068l-.379.586.04.031.378-.585a.094.094 0 0 0 .091-.008l.399.594.038-.033-.402-.6Zm-1.805 1.933h.643l.094-.114a.11.11 0 0 1-.042-.088c0-.06.045-.108.1-.108.055 0 .1.048.1.108 0 .028-.01.053-.026.073l.13.129h.29s.428-.388.428-.194-.205.397-.205.397-.123.085-.123 0c0-.024-.002-.02-.012 0-.022.048-.086.181-.254.182v.119h-.693l.098-.119s-.172-.118-.238-.181c-.22-.043-.29-.204-.29-.204Zm.883-.636a.115.115 0 0 0 .012-.053c0-.06-.045-.108-.1-.108-.055 0-.1.048-.1.108 0 .026.009.05.022.068l-.378.586.04.032.378-.586a.094.094 0 0 0 .091-.008l.398.594.04-.032-.403-.601Zm-.883 2.15h.643l.094-.115a.11.11 0 0 1-.042-.088c0-.06.045-.108.1-.108.055 0 .1.048.1.108 0 .028-.01.054-.026.073l.13.13h.29s.428-.389.428-.195-.205.398-.205.398-.123.085-.123 0c0-.025-.002-.02-.012 0-.022.047-.086.18-.254.182v.118h-.693l.098-.118s-.172-.119-.238-.182c-.22-.043-.29-.204-.29-.204Zm.883-.637a.115.115 0 0 0 .012-.052c0-.06-.045-.108-.1-.108-.055 0-.1.048-.1.108 0 .025.009.05.022.068l-.378.586.04.031.378-.585a.094.094 0 0 0 .091-.009l.398.595.04-.033-.403-.6Zm3.923.636h.642l.095-.114a.11.11 0 0 1-.042-.088c0-.06.045-.108.1-.108.055 0 .1.048.1.108 0 .028-.01.054-.026.073l.13.13h.29s.427-.389.427-.195-.204.398-.204.398-.123.085-.123 0c0-.025-.003-.02-.012 0-.023.047-.086.18-.255.182v.118h-.692l.097-.118s-.17-.119-.238-.182c-.219-.043-.289-.204-.289-.204Zm.882-.636a.115.115 0 0 0 .013-.052c0-.06-.045-.108-.1-.108-.055 0-.1.048-.1.108 0 .025.008.05.022.068l-.378.586.04.031.377-.585a.094.094 0 0 0 .092-.009l.398.595.039-.033-.403-.6Zm-.882-.823h.642l.095-.114a.11.11 0 0 1-.042-.088c0-.06.045-.108.1-.108.055 0 .1.048.1.108 0 .028-.01.053-.026.073l.13.129h.29s.427-.388.427-.194-.204.397-.204.397-.123.085-.123 0c0-.024-.003-.02-.012 0-.023.048-.086.181-.255.182v.119h-.692l.097-.119s-.17-.118-.238-.181c-.219-.043-.289-.204-.289-.204Zm.882-.636a.115.115 0 0 0 .013-.053c0-.06-.045-.108-.1-.108-.055 0-.1.048-.1.108 0 .026.008.05.022.068l-.378.586.04.032.377-.586a.093.093 0 0 0 .092-.008l.398.594.039-.032-.403-.601Zm-.882-.824h.642l.095-.114a.11.11 0 0 1-.042-.088c0-.06.045-.108.1-.108.055 0 .1.049.1.108 0 .028-.01.054-.026.073l.13.13h.29s.427-.389.427-.194c0 .194-.204.397-.204.397s-.123.085-.123 0c0-.025-.003-.02-.012 0-.023.047-.086.18-.255.182v.119h-.692l.097-.12s-.17-.117-.238-.181c-.219-.042-.289-.204-.289-.204Zm.882-.636a.115.115 0 0 0 .013-.052c0-.06-.045-.108-.1-.108-.055 0-.1.048-.1.108 0 .025.008.05.022.068l-.378.586.04.031.377-.585a.094.094 0 0 0 .092-.008l.398.594.039-.033-.403-.6Zm-.93-.769h.642l.095-.114a.11.11 0 0 1-.043-.088c0-.06.045-.108.1-.108.056 0 .1.048.1.108 0 .028-.01.054-.026.073l.13.13h.29s.428-.389.428-.195-.204.398-.204.398-.124.085-.124 0c0-.025-.002-.02-.011 0-.023.047-.086.18-.255.181v.12h-.693l.098-.12s-.171-.118-.238-.181c-.22-.043-.29-.204-.29-.204Zm.882-.636a.115.115 0 0 0 .012-.053c0-.06-.044-.108-.1-.108-.055 0-.1.049-.1.108 0 .026.009.05.023.068l-.379.586.04.032.378-.586a.094.094 0 0 0 .091-.008l.398.594.04-.032-.403-.601Zm-.883-.877h.643l.095-.114a.11.11 0 0 1-.043-.089c0-.06.045-.108.1-.108.056 0 .1.049.1.108 0 .028-.01.054-.026.073l.13.13h.29s.428-.388.428-.194-.204.397-.204.397-.124.085-.124 0c0-.025-.002-.02-.011 0-.023.047-.086.18-.255.182v.119h-.693l.098-.119s-.171-.118-.238-.182c-.22-.042-.29-.203-.29-.203Zm.883-.636a.115.115 0 0 0 .012-.053c0-.06-.044-.108-.1-.108-.055 0-.1.048-.1.108 0 .026.009.05.023.068l-.379.586.04.031.378-.585a.094.094 0 0 0 .091-.008l.398.594.04-.033-.403-.6Z" clip-rule="evenodd"/><path fill="#FFC6B5" fill-rule="evenodd" d="m20.64 9.586-.337 1.093s-.563.73-.667 1.086c-.104.358-.16.595-.132.595a.371.371 0 0 0 .258-.348c0-.247.878-1.04.878-1.04l.262-1.386h-.262Z" clip-rule="evenodd"/><path fill="#FFD018" fill-rule="evenodd" d="M23.372 7.869a.114.114 0 0 0 .012-.053c0-.06-.044-.108-.1-.108-.055 0-.1.049-.1.108 0 .026.009.05.023.068l-.379.586.04.032.378-.586a.093.093 0 0 0 .091-.008l.398.594.04-.032-.403-.601Zm-.014.507a.113.113 0 0 0 .026-.073c0-.06-.044-.108-.1-.108-.055 0-.1.048-.1.108a.11.11 0 0 0 .043.088l-.095.114h-.643s.07.161.29.204c.067.063.238.182.238.182l-.098.118h.693v-.118c.169-.002.232-.135.255-.183.009-.02.011-.024.011 0 0 .086.123 0 .123 0s.205-.203.205-.397-.428.194-.428.194h-.29l-.13-.13Z" clip-rule="evenodd"/><path fill="#FFC6B5" fill-rule="evenodd" d="M21.46 9.148c.01.02.017.035.017.056 0 .063-.268.156-.46.156-.193 0-.118-.156 0-.242.117-.087-.01-.235-.118-.235-.102 0-.102-.145-.101-.26v-.472c0-.182.049-.16.143-.12.055.024.126.055.212.055.143 0 .151.033.173.122.013.054.03.13.087.231.09.161.072.198.043.257a.366.366 0 0 0-.043.186c0 .166.028.225.047.265Zm.238 1.16.057-.614s-.057-.225.076-.225.34 1.075.414 1.507c.048.275.004.326-.123.474-.071.084-.169.198-.29.4-.204.336-.191.533-.181.683.006.1.012.18-.05.266-.143.2-.201.01-.258-.174l-.013-.041c-.055-.173.194-.696.364-1.052l.06-.13c.161-.342.146-.461.077-.604-.069-.144-.133-.49-.133-.49Z" clip-rule="evenodd"/><path fill="#FFD018" fill-rule="evenodd" d="M22.02 16.37c0 .156-.12.283-.268.283-.147 0-.267-.127-.267-.283 0-.157.12-.283.267-.283.148 0 .267.126.267.283Zm-1.42.078c-.12.101-.266.124-.327.052-.06-.072-.012-.211.108-.312.12-.1.266-.124.326-.052.06.072.012.212-.108.313Z" clip-rule="evenodd"/><path fill="#A95601" fill-rule="evenodd" d="M20.951 7.785s-.278.056-.185.195c.093.14-.12.103.185.121.306.018.39.13.348.212-.042.082-.075.286 0 .41.074.122.098.336.23.23.132-.108.385-.255.308-.448-.078-.192.031-.416-.138-.525-.17-.108-.208-.042-.305-.195-.097-.154-.24-.196-.341-.098l-.102.098Z" clip-rule="evenodd"/><path fill="#F7FCFF" fill-rule="evenodd" d="M20.896 9.178s-.558.672-.467.908c.092.237.228.25.16.586-.068.337.042.857-.16 1.52-.2.661-.333 2.214-.267 2.214s.158.858.079 1.243c-.079.385-.63.707-.079.707.55 0 .616.076.836 0 .22-.076.533.22.533 0s.023-.264.191-.264h.308c.148 0 .343.138.343-.19s.036-1.033-.153-1.58c-.19-.547-.126-.198-.312-.93-.11-.433-.195-.605-.262-.757-.046-.104-.178.079-.21-.084-.01-.056.08-.38.081-.422.006-.26.205-.304.205-.75 0-.52-.124-1.09 0-1.374.124-.286.43-.114.308-.391-.122-.278-.161-.436-.39-.436h-.744Z" clip-rule="evenodd"/><path fill="#272727" d="m16.987 17.146.093-.125c1.336 1.245 2.571 1.865 3.705 1.865 1.135 0 2.517-.658 4.142-1.978l.086.13c-1.648 1.34-3.057 2.01-4.228 2.01-1.172 0-2.438-.635-3.798-1.902Z"/></g></g></g><path stroke="#000" stroke-opacity=".1" stroke-width=".5" d="M.25.25h23.5v17.5H.25z"/><defs><clipPath id="a"><path fill="#fff" d="M0 0h24v18H0z"/></clipPath></defs></svg>