<svg xmlns="http://www.w3.org/2000/svg" fill="none" viewBox="0 0 24 18"><g clip-path="url(#a)"><mask id="b" width="24" height="18" x="0" y="0" maskUnits="userSpaceOnUse" style="mask-type:luminance"><path fill="#fff" d="M0 0h24v18H0z"/></mask><g mask="url(#b)"><path fill="#F7FCFF" fill-rule="evenodd" d="M0 0h24v18H0z" clip-rule="evenodd"/><path fill="#E31D1C" d="M.021 3.75h24v2.175h-24zm0 3.9h24v2.175h-24zm.063 3.75h24v1.875h-24zm0 3.75h24v2.025h-24z"/><path fill="#E31D1C" fill-rule="evenodd" d="M0 0h24v1.875H0z" clip-rule="evenodd"/><path fill="#3D58DB" fill-rule="evenodd" d="M0 0h12v9H0z" clip-rule="evenodd"/><path fill="#FECA00" fill-rule="evenodd" d="M2.695 4.652c0 1.032.486 2.008 1.476 2.008 1.483 0 1.772-.316 2.465-.753.163.368-.389 1.941-2.486 1.941-1.677-.033-3.032-1.38-3.032-3.196 0-2.084 1.532-3.21 2.99-3.197 1.287 0 2.652.73 2.61 1.662-.606-.592-1.264-.592-2.36-.592-1.097 0-1.663 1.094-1.663 2.127" clip-rule="evenodd"/><path fill="#FECA00" fill-rule="evenodd" d="M8.25 5.475 7.555 6.49l.034-1.23-1.16.412.751-.974L6 4.35l1.18-.348-.75-.975 1.159.413-.034-1.23.695 1.015.695-1.015-.034 1.23 1.16-.413-.751.975 1.18.348-1.18.348.75.974-1.159-.412.034 1.23z" clip-rule="evenodd"/></g></g><rect width="23" height="17" x=".5" y=".5" stroke="#000" stroke-opacity=".1" rx="1.5"/><defs><clipPath id="a"><rect width="24" height="18" fill="#fff" rx="2"/></clipPath></defs></svg>