<svg xmlns="http://www.w3.org/2000/svg" fill="none" viewBox="0 0 24 18"><g clip-path="url(#a)"><mask id="b" width="24" height="18" x="0" y="0" maskUnits="userSpaceOnUse" style="mask-type:luminance"><path fill="#fff" d="M0 0h24v18H0z"/></mask><g mask="url(#b)"><path fill="#2E42A5" fill-rule="evenodd" d="M0 0v18h24V0H0Z" clip-rule="evenodd"/><mask id="c" width="24" height="18" x="0" y="0" maskUnits="userSpaceOnUse" style="mask-type:luminance"><path fill="#fff" fill-rule="evenodd" d="M0 0v18h24V0H0Z" clip-rule="evenodd"/></mask><g fill-rule="evenodd" clip-rule="evenodd" mask="url(#c)"><path fill="#F7FCFF" d="m2.47 7.548-.663.41.258-.69-.565-.522h.685L2.47 6l.218.746h.686l-.494.523.242.69-.652-.411Zm3-3-.663.41.258-.69-.565-.522h.685L5.47 3l.218.746h.686l-.494.523.242.69-.652-.411Zm3 3-.663.41.258-.69-.565-.522h.685L8.47 6l.218.746h.686l-.494.523.242.69-.652-.411Zm-3 2.999-.663.412.258-.69-.565-.523h.685L5.47 9l.218.746h.686l-.494.523.242.69-.652-.412Z"/><path fill="#FECA00" d="M18.631 4.097C15.57 5.61 5.506 12.41 5.506 12.41h16.763a20.472 20.472 0 0 0-.47-.098c-1.231-.245-1.839-.366-3.168-3.013-1.487-2.964 0-5.2 0-5.2Zm-13.67 9.377-.228.57.229.626 17.065.33.473-.87-.473-.626-17.065-.03Z"/></g></g></g><path stroke="#000" stroke-opacity=".1" stroke-width=".5" d="M.25.25h23.5v17.5H.25z"/><defs><clipPath id="a"><path fill="#fff" d="M0 0h24v18H0z"/></clipPath></defs></svg>