<svg xmlns="http://www.w3.org/2000/svg" fill="none" viewBox="0 0 24 18"><g clip-path="url(#a)"><mask id="b" width="24" height="18" x="0" y="0" maskUnits="userSpaceOnUse" style="mask-type:luminance"><path fill="#fff" d="M0 0h24v18H0z"/></mask><g mask="url(#b)"><path fill="#73BE4A" fill-rule="evenodd" d="M0 0h24v18H0V0Z" clip-rule="evenodd"/><path fill="#AF0100" fill-rule="evenodd" d="M0 0v12h24V0H0Z" clip-rule="evenodd"/><path fill="#F7FCFF" d="M0 0h4.5v18H0z"/><path fill="#B20000" fill-rule="evenodd" d="M.333 1.677 1.423.043l1.061 1.634-1.061 1.56-1.09-1.56Zm1.086.892.61-.897-.61-.94-.627.94.627.897Zm.081-1.02h-.188v.386H1.5v-.387ZM.853 3.14l-.52.742.52.71.506-.71-.506-.743Zm.243.755-.234.318-.237-.337.236-.349.235.368Zm.882-.755-.52.742.52.71.506-.71-.506-.743Zm.243.755-.234.318-.237-.337.236-.349.235.368Z" clip-rule="evenodd"/><path fill="#B20000" fill-rule="evenodd" d="m2.728 3.14-.52.742.52.71.506-.71-.506-.743Zm.243.755-.234.318-.237-.337.236-.349.235.368Zm.882-.755-.52.742.52.71.506-.71-.506-.743Zm.243.755-.234.318-.237-.337.236-.349.235.368ZM2.208 1.677 3.298.043l1.061 1.634-1.061 1.56-1.09-1.56Zm1.086.892.61-.897-.61-.94-.627.94.627.897Zm.081-1.02h-.188v.386h.188v-.387Z" clip-rule="evenodd"/><path fill="#B20000" d="M1.242 9.305.028 7.265l.32-.202.88 1.478 1.074-1.974 1.1 1.979.778-1.291.319.204-1.11 1.84-1.084-1.948-1.063 1.954Z"/><path fill="#B20000" fill-rule="evenodd" d="M.563.387h.201v.387H.562V.387ZM2.25 0h.202v.387H2.25V0Zm1.688.387h.201v.387h-.202V.387ZM.563 2.71H.75v.387H.562V2.71Zm1.687 0h.188v.387H2.25V2.71Zm1.875 0h-.188v.387h.188V2.71ZM.563 4.645H.75v.387H.562v-.387Zm1.687 0h.188v.387H2.25v-.387Zm1.875 0h-.188v.387h.188v-.387Z" clip-rule="evenodd"/><path fill="#B20000" fill-rule="evenodd" d="m1.656 6.716-.498.726-.786-1.415L1.407 4.41l.89 1.41.89-1.41 1.035 1.617-.786 1.415-.498-.726.393-.818-.144-.332-.84 1.363v.161l-.05-.08-.05.08v-.16l-.84-1.363-.144.332.393.818Zm.594 1.219h.188v.388H2.25v-.388Zm0 1.936h.188v.387H2.25v-.387Zm0-1.355h-.188v.387h.188v.194h-.188v.387h.188V9.29h.188v.194h.187v-.387h-.188v-.194h.188v-.387h-.188v.387H2.25v-.387Zm-.563.387h.188v.387h-.188v-.387Zm1.313 0h-.188v.387H3v-.387Zm-2.625 0h.188v.387H.374v-.387Zm3.938 0h-.188v.387h.188v-.387Zm-3.98 7.42 1.09 1.634 1.061-1.634-1.061-1.56-1.09 1.56Zm1.086-.892.61.897-.61.94-.627-.94.627-.897Zm.081 1.02h-.188v-.387H1.5v.388ZM.853 14.86l-.52-.742.52-.71.506.71-.506.743Zm.243-.755-.234-.318-.237.337.236.349.235-.368Zm.882.755-.52-.742.52-.71.506.71-.506.743Zm.243-.755-.234-.318-.237.337.236.349.235-.368Z" clip-rule="evenodd"/><path fill="#B20000" fill-rule="evenodd" d="m2.728 14.86-.52-.742.52-.71.506.71-.506.743Zm.243-.755-.234-.318-.237.337.236.349.235-.368Zm.882.755-.52-.742.52-.71.506.71-.506.743Zm.243-.755-.234-.318-.237.337.236.349.235-.368Zm-1.888 2.218 1.09 1.634 1.061-1.634-1.061-1.56-1.09 1.56Zm1.086-.892.61.897-.61.94-.627-.94.627-.897Zm.081 1.02h-.188v-.387h.188v.388Z" clip-rule="evenodd"/><path fill="#B20000" d="m1.242 8.695-1.214 2.04.32.203.88-1.479 1.074 1.974 1.1-1.979.778 1.291.319-.204-1.11-1.84-1.084 1.948-1.063-1.954Z"/><path fill="#B20000" fill-rule="evenodd" d="M.563 17.613h.201v-.387H.562v.387ZM2.25 18h.202v-.387H2.25V18Zm1.688-.387h.201v-.387h-.202v.387ZM.563 15.29H.75v-.387H.562v.387Zm1.687 0h.188v-.387H2.25v.387Zm1.875 0h-.188v-.387h.188v.387ZM.563 13.355H.75v-.387H.562v.387Zm1.687 0h.188v-.387H2.25v.387Zm1.875 0h-.188v-.387h.188v.387Z" clip-rule="evenodd"/><path fill="#B20000" fill-rule="evenodd" d="m1.656 11.395-.498-.727-.786 1.416L1.407 13.7l.89-1.409.89 1.41 1.035-1.617-.786-1.416-.498.727.393.817-.144.332-.84-1.362v-.162l-.05.081-.05-.08v.16l-.84 1.364-.144-.333.393-.817Z" clip-rule="evenodd"/></g></g><path stroke="#000" stroke-opacity=".1" stroke-width=".5" d="M.25.25h23.5v17.5H.25z"/><defs><clipPath id="a"><path fill="#fff" d="M0 0h24v18H0z"/></clipPath></defs></svg>