<svg xmlns="http://www.w3.org/2000/svg" fill="none" viewBox="0 0 24 18"><g clip-path="url(#a)"><mask id="b" width="24" height="18" x="0" y="0" maskUnits="userSpaceOnUse" style="mask-type:luminance"><path fill="#fff" d="M0 0h24v18H0z"/></mask><g mask="url(#b)"><path fill="#D9071E" fill-rule="evenodd" d="M16.5 0H24v18h-7.5z" clip-rule="evenodd"/><path fill="#006923" fill-rule="evenodd" d="M0 0h9v18H0z" clip-rule="evenodd"/><path fill="#fff" fill-rule="evenodd" d="M7.5 0h9v18h-9z" clip-rule="evenodd"/><path fill="#A8AC71" fill-rule="evenodd" d="M9.792 6.256c-.08.342-.028.422.357.422.02 0 .052.057.086.118.038.068.08.141.112.153-.014.018-.16.283-.16.75-.001.096.044.254.087.406.046.166.09.324.073.386-.028.102-.155-.01-.254-.095-.057-.05-.104-.09-.117-.078-.071.059-.107-.41-.13-.694-.01-.127-.016-.216-.022-.206a.7.7 0 0 1-.045-.187c-.021-.143-.042-.282-.211-.282h-.435v.32s.252 0 .252.596c.004.089.121.873.407.877-.168.003-.166.037-.166.056v.004c0 .48.401.531.775.396.226-.082.464-.24.643-.436.253-.276.284-.634-.048-.83-.118-.07-.246-.097-.425-.107.036-.105.002-.199-.024-.272-.022-.061-.039-.108-.006-.135.376-.304.41-.585.136-.837a1 1 0 0 1-.105-.122c-.066-.086-.136-.177-.225-.203q.062-.123.165-.296l-.643-.386c-.117.194-.097.346-.08.478.009.073.018.14.003.204m.699 2-.012.012.008-.007zm-.7.485H9.8zm.033 0H9.8h.025" clip-rule="evenodd"/><path fill="#FCCA3D" fill-rule="evenodd" d="M10.788 5.935s-.515.4-.419.825c.097.426 1.112 0 .989-.412-.123-.413-.57-.413-.57-.413" clip-rule="evenodd"/><path fill="#8F4620" fill-rule="evenodd" d="M14.45 9.302s.693-2.056-.41-3.12-2.376-.993-2.376-.993-.367.272 0 .48.213.408.213.408-.615-.624-1.023-.26c-.408.365.381.31.298.584s-.438 1.493.08 2.109c.516.615-.49.481-.285.481s.93.144.93 0c0-.143.252.557.468.557.215 0 .382-.246.382-.246s.302.246.487.246c.184 0 .827-.16.827-.16l-1.215-1.024s.073-.452-.099-.55c-.172-.097 1.381.867 1.503 1.177s.22.311.22.311" clip-rule="evenodd"/><path fill="#9FAB2F" d="M8.3 8.795s.112-.359.233-.384c.104-.021.324.172.324.172.39 2.168 1.334 3.014 2.9 3.014 1.583 0 2.543-.643 3.103-2.642 0 0 .298-.304.403-.27.114.036.258.439.258.439-.643 2.293-1.857 3.314-3.765 3.314-1.926 0-3.008-1.154-3.456-3.643"/><path fill="#2FC2DC" fill-rule="evenodd" d="M10 10.242s2.254.478 3.143.478c.89 0-.78.726-1.432.726q-.427 0-1.03-.518c-.072-.062-.002-.2-.222-.203-.306-.002-.686-.074-.65-.118.035-.041.48-.054.437-.1-.07-.074-.245-.265-.245-.265" clip-rule="evenodd"/><rect width="1.5" height=".804" x="11" y="10.575" fill="#F9AA51" rx=".167"/><path fill="#259485" d="M9.132 9.102s0-.281.19-.43c.219-.172.424 0 .424 0 .799 1.138 1.994 1.513 3.665 1.122 0 0 .5.163.525.27.032.136-.354.46-.354.46-1.954.457-3.464-.016-4.45-1.422"/><path fill="#FCCA3D" fill-rule="evenodd" d="M12.443 9.263s-.91.479-.606.479c.303 0 1.49.24 1.26 0-.232-.24-.654-.48-.654-.48m-1.076-.571s-.173-.5-.533-.5-.258.41-.431.41.161.289.31.289c.15 0 .654-.199.654-.199" clip-rule="evenodd"/></g></g><rect width="23" height="17" x=".5" y=".5" stroke="#000" stroke-opacity=".1" rx="1.5"/><defs><clipPath id="a"><rect width="24" height="18" fill="#fff" rx="2"/></clipPath></defs></svg>