<svg xmlns="http://www.w3.org/2000/svg" fill="none" viewBox="0 0 24 18"><g clip-path="url(#a)"><mask id="b" width="24" height="18" x="0" y="0" maskUnits="userSpaceOnUse" style="mask-type:luminance"><path fill="#fff" d="M0 0h24v18H0z"/></mask><g mask="url(#b)"><path fill="#F7FCFF" fill-rule="evenodd" d="M0 0h24v18H0V0Z" clip-rule="evenodd"/><path fill="#E31D1C" fill-rule="evenodd" d="M0 11v1.5h24V11H0Zm0 2.75v1.5h24v-1.5H0ZM0 5.5V7h24V5.5H0Zm0 11V18h24v-1.5H0Zm0-8.25v1.5h24v-1.5H0ZM0 0v1.5h24V0H0Zm0 2.75v1.5h24v-1.5H0Z" clip-rule="evenodd"/><path fill="#2E42A5" d="M0 0h15v9.75H0z"/><path fill="#F7FCFF" fill-rule="evenodd" d="m1.291 2.204-.544.382.184-.68-.484-.43h.632L1.29.922l.248.554h.538l-.423.43.164.68-.527-.382Zm3 0-.544.382.184-.68-.484-.43h.632L4.29.922l.248.554h.538l-.423.43.164.68-.527-.382Zm2.456.382.544-.382.527.382-.164-.68.423-.43H7.54L7.291.922l-.212.554h-.632l.484.43-.184.68Zm3.544-.382-.544.382.184-.68-.484-.43h.632l.212-.554.248.554h.538l-.423.43.164.68-.527-.382ZM.747 5.586l.544-.382.527.382-.164-.68.423-.43H1.54l-.248-.554-.212.554H.447l.484.43-.184.68Zm3.544-.382-.544.382.184-.68-.484-.43h.632l.212-.554.248.554h.538l-.423.43.164.68-.527-.382Zm2.456.382.544-.382.527.382-.164-.68.423-.43H7.54l-.248-.554-.212.554h-.632l.484.43-.184.68Zm3.544-.382-.544.382.184-.68-.484-.43h.632l.212-.554.248.554h.538l-.423.43.164.68-.527-.382ZM.747 8.586l.544-.382.527.382-.164-.68.423-.43H1.54l-.248-.554-.212.554H.447l.484.43-.184.68Zm3.544-.382-.544.382.184-.68-.484-.43h.632l.212-.554.248.554h.538l-.423.43.164.68-.527-.382Zm2.456.382.544-.382.527.382-.164-.68.423-.43H7.54l-.248-.554-.212.554h-.632l.484.43-.184.68Zm3.544-.382-.544.382.184-.68-.484-.43h.632l.212-.554.248.554h.538l-.423.43.164.68-.527-.382Zm2.456-5.618.544-.382.527.382-.164-.68.423-.43h-.538l-.248-.554-.212.554h-.632l.484.43-.184.68Zm.544 2.618-.544.382.184-.68-.484-.43h.632l.212-.554.248.554h.538l-.423.43.164.68-.527-.382Zm-.544 3.382.544-.382.527.382-.164-.68.423-.43h-.538l-.248-.554-.212.554h-.632l.484.43-.184.68ZM2.791 3.704l-.544.382.184-.68-.484-.43h.632l.212-.554.248.554h.538l-.423.43.164.68-.527-.382Zm2.456.382.544-.382.527.382-.164-.68.423-.43H6.04l-.248-.554-.212.554h-.632l.484.43-.184.68Zm3.544-.382-.544.382.184-.68-.484-.43h.632l.212-.554.248.554h.538l-.423.43.164.68-.527-.382ZM2.247 7.086l.544-.382.527.382-.164-.68.423-.43H3.04l-.248-.554-.212.554h-.632l.484.43-.184.68Zm3.544-.382-.544.382.184-.68-.484-.43h.632l.212-.554.248.554h.538l-.423.43.164.68-.527-.382Zm2.456.382.544-.382.527.382-.164-.68.423-.43H9.04l-.248-.554-.212.554h-.632l.484.43-.184.68Zm3.544-3.382-.544.382.184-.68-.484-.43h.632l.212-.554.248.554h.538l-.423.43.164.68-.527-.382Zm-.544 3.382.544-.382.527.382-.164-.68.423-.43h-.538l-.248-.554-.212.554h-.632l.484.43-.184.68Z" clip-rule="evenodd"/></g></g><rect width="23" height="17" x=".5" y=".5" stroke="#000" stroke-opacity=".1" rx="1.5"/><defs><clipPath id="a"><rect width="24" height="18" fill="#fff" rx="2"/></clipPath></defs></svg>