<svg xmlns="http://www.w3.org/2000/svg" fill="none" viewBox="0 0 24 18"><g clip-path="url(#a)"><mask id="b" width="24" height="18" x="0" y="0" maskUnits="userSpaceOnUse" style="mask-type:luminance"><path fill="#fff" d="M0 0h24v18H0z"/></mask><g mask="url(#b)"><path fill="#F7FCFF" fill-rule="evenodd" d="M0 0h24v18H0z" clip-rule="evenodd"/><path fill="#F7FCFF" stroke="#E31D1C" stroke-width="2.7" d="m-1.852.645 12.404 7.5 1.91 1.155-1.91 1.155-12.404 7.5-2.047 1.239V-.594z"/><path fill="#F7FCFF" stroke="#E31D1C" stroke-width="2.7" d="m30.921-1.767-17.218 10L11.692 9.4l2.01 1.167 17.22 10 2.027 1.178v-24.69z"/><path fill="#E31D1C" fill-rule="evenodd" d="M9.675 1.703S8.816 5.501 11.78 6.96c0 0 2.846-1.551 2.207-5.257 0 0-1.223-.409-2.194-.409-.973 0-2.12.409-2.12.409" clip-rule="evenodd"/><path fill="#FFD100" fill-rule="evenodd" d="M9.983 2.499s.317-.14.474 0 .285-.012.285-.097c0-.084.25-.375.25-.14 0 .237-.078.37.14.37.22 0 1.207-.326 1.443-.23.237.097.418.073.357-.066-.06-.138-.214-.224-.512-.149-.297.076-.227.15-.484.15-.258 0-.544-.074-.544-.074s.08-.124.374-.036.699-.11.809-.11.413-.005.443.07.213.145.074.215c-.14.07-.37.115-.211.205.158.09.522.072.54.166.017.094.19.234.12.234-.069 0-.194.132-.31.092-.117-.04-.13-.076-.019-.108.112-.033.11-.17.018-.17s-.047.048-.257 0-.487-.101-.47 0c.016.101.153.257-.1.278-.251.02-.37.103-.418.037-.05-.067-.225-.157-.087-.185.138-.029.27.097.32.076.05-.02.162-.032.068-.119-.095-.087-.25-.138-.106-.203.144-.066.03-.067-.244.068-.275.135-.428.25-.669.234-.24-.016-.331.005-.409-.016s-.454.242-.563.175-.46-.093-.396-.175c.063-.083.148-.125.242-.083.095.043.188.085.252.043s.247-.188.201-.217c-.046-.03-.001-.127-.263-.127s-.354.109-.416.04.068-.148.068-.148m.261 1.248s.279-.124.417 0c.138.123.25-.01.25-.085 0-.074.22-.33.22-.123s-.068.325.124.325c.193 0 1.06-.287 1.268-.202s.367.064.314-.058c-.053-.121-.188-.197-.45-.131s-.2.131-.426.131-.478-.065-.478-.065.071-.109.33-.031c.257.077.613-.096.71-.096s.364-.005.39.061.187.127.065.189c-.123.062-.325.1-.186.18s.46.064.475.146.167.205.106.205-.171.117-.274.081c-.102-.035-.114-.066-.016-.095s.097-.149.016-.149c-.08 0-.041.042-.226 0-.184-.042-.428-.089-.413 0 .014.09.134.226-.087.244-.222.018-.326.092-.369.033-.043-.06-.197-.138-.076-.163s.237.086.28.068c.044-.019.143-.029.06-.105-.082-.077-.219-.122-.092-.18.126-.057.026-.058-.215.061s-.376.22-.588.205c-.211-.014-.29.005-.359-.014-.068-.019-.4.213-.495.154-.096-.059-.404-.081-.349-.154.056-.072.13-.11.213-.072.083.037.166.074.222.037s.217-.165.177-.19c-.04-.026-.002-.112-.232-.112s-.311.096-.366.035c-.054-.06.06-.13.06-.13m.37 1.266s.212-.093.316 0c.105.094.19-.007.19-.064 0-.056.167-.25.167-.093s-.052.246.094.246.804-.217.961-.153c.158.064.279.049.239-.044-.04-.092-.143-.15-.342-.099-.198.05-.151.1-.323.1-.171 0-.362-.05-.362-.05s.053-.082.25-.024c.195.06.465-.072.538-.072s.276-.004.296.046.142.096.05.143c-.094.047-.247.077-.142.137s.349.048.36.11c.012.063.127.156.08.156-.045 0-.129.088-.207.062-.077-.027-.086-.05-.012-.072.075-.022.074-.113.012-.113-.061 0-.031.032-.17 0-.14-.032-.326-.068-.315 0 .011.067.102.17-.066.185-.168.013-.246.069-.28.024-.032-.045-.149-.104-.057-.123s.18.065.213.051.108-.021.045-.08c-.062-.057-.166-.092-.07-.135s.02-.045-.163.046c-.183.09-.285.166-.445.155-.161-.01-.221.004-.273-.01s-.303.16-.376.116c-.072-.044-.306-.062-.264-.117.042-.054.099-.083.162-.054.063.028.125.056.168.028.042-.028.165-.125.134-.145-.03-.02-.001-.084-.176-.084-.174 0-.236.072-.277.026-.042-.045.045-.099.045-.099" clip-rule="evenodd"/></g></g><rect width="23" height="17" x=".5" y=".5" stroke="#000" stroke-opacity=".1" rx="1.5"/><defs><clipPath id="a"><rect width="24" height="18" fill="#fff" rx="2"/></clipPath></defs></svg>