<svg xmlns="http://www.w3.org/2000/svg" fill="none" viewBox="0 0 24 18"><g clip-path="url(#a)"><mask id="b" width="24" height="18" x="0" y="0" maskUnits="userSpaceOnUse" style="mask-type:luminance"><path fill="#fff" d="M0 0h24v18H0z"/></mask><g mask="url(#b)"><path fill="#2993EC" fill-rule="evenodd" d="M0 0h25.5v18H0V0Z" clip-rule="evenodd"/><path fill="#F1F9FF" fill-rule="evenodd" d="M4.66 8.688c0 3.969 3.286 7.187 7.34 7.187s7.34-3.218 7.34-7.188C19.34 4.719 16.054 1.5 12 1.5S4.66 4.718 4.66 8.688Zm13.085 0c0 3.106-2.572 5.624-5.745 5.624s-5.745-2.518-5.745-5.624c0-3.107 2.572-5.626 5.745-5.626s5.745 2.519 5.745 5.626Z" clip-rule="evenodd"/><path fill="#E31D1C" fill-rule="evenodd" d="M5.298 8.688c0 3.624 3 6.562 6.702 6.562 3.701 0 6.702-2.938 6.702-6.563 0-3.624-3-6.562-6.702-6.562-3.701 0-6.702 2.938-6.702 6.563Zm13.085 0c0 3.451-2.858 6.25-6.383 6.25s-6.383-2.799-6.383-6.25c0-3.452 2.858-6.25 6.383-6.25s6.383 2.798 6.383 6.25Z" clip-rule="evenodd"/><path fill="#FDDA33" fill-rule="evenodd" d="M12 1.656c-.08.167-.121.405-.121.712 0 .308-.12.616-.358.924a7.193 7.193 0 0 1-.066-.924c0-.276.182-.514.545-.712Zm1.677.254c-.116.145-.209.367-.278.667-.07.3-.255.573-.556.82.033-.341.08-.646.143-.916.062-.27.292-.46.691-.57Zm1.153 1.216c.14-.274.283-.467.431-.58-.414.012-.683.141-.809.388-.125.246-.245.53-.36.853.352-.167.598-.387.738-.661Zm1.813.387c-.169.076-.352.232-.55.467-.198.236-.487.395-.868.478.184-.288.366-.538.543-.75.178-.212.47-.277.875-.195Zm.478 1.584c.246-.185.46-.296.642-.331-.377-.171-.676-.174-.897-.007-.22.166-.453.37-.698.609.39.004.707-.086.953-.27Zm1.439 1.155c-.185-.009-.42.046-.703.167-.283.12-.613.13-.99.032.295-.174.57-.314.825-.422.254-.108.544-.034.868.223Zm-.296 1.616c.303-.053.544-.055.723-.004-.259-.323-.524-.461-.796-.413a7.202 7.202 0 0 0-.898.226c.344.18.668.245.971.191Zm-13.701-.54c.15.108.377.189.68.242.303.054.586.225.848.513a7.2 7.2 0 0 1-.921-.095c-.273-.048-.475-.268-.607-.66ZM5.716 6.14c-.283-.12-.486-.25-.608-.39.04.412.188.672.442.78.255.108.547.208.877.3-.191-.34-.428-.57-.711-.69Zm.304-1.81c.085.165.25.34.496.526.246.185.42.465.523.841a7.205 7.205 0 0 1-.778-.503c-.22-.166-.301-.454-.24-.864Zm1.574-.544c-.198-.236-.32-.443-.365-.623-.15.385-.138.684.04.895.178.212.393.434.645.665-.016-.389-.122-.701-.32-.937Zm1.085-1.487c.004.186.076.416.216.69.14.274.173.602.1.985a7.202 7.202 0 0 1-.478-.793c-.126-.246-.071-.54.162-.882Zm1.672.21c-.07-.3-.083-.54-.042-.721-.31.274-.433.546-.371.816.062.27.153.564.272.885.163-.354.21-.68.14-.98Z" clip-rule="evenodd"/><path fill="#A7A7A7" fill-rule="evenodd" d="M11.118 4.313a.574.574 0 0 0-.561.697l.227 1.038c.038.172.15.311.297.388a.574.574 0 0 0-.258.414l-1.016 8.52a.524.524 0 0 0 .26.528c.418.231 1.216.602 2.013.602.797 0 1.594-.371 2.013-.602a.524.524 0 0 0 .26-.527l-1.016-8.52a.574.574 0 0 0-.259-.415.575.575 0 0 0 .298-.388l.227-1.038a.574.574 0 0 0-.561-.697h-1.924Z" clip-rule="evenodd"/><path fill="#73BE4A" d="M4.89 9.01a.24.24 0 0 1 .298-.156.234.234 0 0 1 .16.293c-.068.214-.068.53.006.944a2.104 2.104 0 0 0 .16.521l.059.127c.071.162.103.304.103.512 0 .13-.107.234-.24.234a.237.237 0 0 1-.239-.234.705.705 0 0 0-.063-.326 9.963 9.963 0 0 0-.056-.118 2.399 2.399 0 0 1-.195-.635c-.086-.48-.086-.866.006-1.162Z"/><path fill="#F7FCFF" fill-rule="evenodd" d="m12.16 12.134-3.086 2.103 1.088-3.524L7.167 8.49l3.758-.075 1.235-3.477 1.234 3.477 3.759.075-2.996 2.223 1.088 3.524-3.085-2.103Z" clip-rule="evenodd"/><path fill="#73BE4A" d="M19.17 9.322a.24.24 0 0 0-.3-.155.234.234 0 0 0-.158.292c.067.214.067.53-.007.945a2.095 2.095 0 0 1-.219.648 1.158 1.158 0 0 0-.103.511c0 .13.107.235.24.235a.237.237 0 0 0 .239-.235c0-.142.017-.22.064-.325a3.03 3.03 0 0 1 .055-.119 2.38 2.38 0 0 0 .195-.635c.086-.48.086-.866-.006-1.162Z"/><path stroke="#73BE4A" stroke-linecap="round" stroke-linejoin="round" d="M12.046 2.36s.873.39.496 1.002m.142-1.002s.873.39.496 1.002"/><path fill="#73BE4A" d="M6.945 4.768a.205.205 0 0 1 .297-.074c.1.069.131.213.068.323-.122.21-.185.499-.185.869 0 .13-.097.234-.215.234-.12 0-.216-.105-.216-.234 0-.452.082-.826.25-1.118Z"/><path fill="#73BE4A" d="M6.606 6.91c0 .129-.096.234-.215.234s-.215-.105-.215-.235v-.667c0-.473.074-.845.23-1.116a.205.205 0 0 1 .297-.075c.1.069.131.214.068.323-.107.187-.165.476-.165.868v.667Zm11.007-.313c0 .13.097.234.216.234s.215-.105.215-.234v-.668c0-.472-.074-.844-.23-1.116a.206.206 0 0 0-.297-.074.247.247 0 0 0-.069.323c.108.186.165.475.165.867v.668Z"/><path fill="#73BE4A" d="M18.252 7.69c0 .13.096.235.215.235s.215-.105.215-.234v-.668c0-.472-.074-.844-.23-1.116a.206.206 0 0 0-.297-.074.247.247 0 0 0-.068.323c.107.186.165.475.165.867v.668Z"/></g></g><path stroke="#000" stroke-opacity=".1" stroke-width=".5" d="M.25.25h23.5v17.5H.25z"/><defs><clipPath id="a"><path fill="#fff" d="M0 0h24v18H0z"/></clipPath></defs></svg>