<svg xmlns="http://www.w3.org/2000/svg" fill="none" viewBox="0 0 24 18"><g clip-path="url(#a)"><mask id="b" width="24" height="18" x="0" y="0" maskUnits="userSpaceOnUse" style="mask-type:luminance"><path fill="#fff" d="M0 0h24v18H0z"/></mask><g mask="url(#b)"><path fill="#F7FCFF" fill-rule="evenodd" d="M0 0v18h24V0H0Z" clip-rule="evenodd"/><mask id="c" width="24" height="18" x="0" y="0" maskUnits="userSpaceOnUse" style="mask-type:luminance"><path fill="#fff" fill-rule="evenodd" d="M0 0v18h24V0H0Z" clip-rule="evenodd"/></mask><g mask="url(#c)"><path fill="#FECA00" fill-rule="evenodd" d="M0 1.5v15h24v-15H0Z" clip-rule="evenodd"/><path fill="#272727" stroke="#E31D1C" stroke-width="3.5" d="M0 5.75h-1.75v6.5h27.5v-6.5H0Z"/><path fill="#5EAA22" fill-rule="evenodd" d="M0 3V0h24v3H0Zm0 15v-3h24v3H0Z" clip-rule="evenodd"/></g><path fill="#F7FCFF" stroke="#272727" stroke-width="2" d="M.597-.802-1-1.991V19.96l1.587-1.15 12.249-8.887 1.101-.799-1.092-.812L.597-.802Z"/><mask id="d" width="18" height="26" x="-2" y="-4" maskUnits="userSpaceOnUse" style="mask-type:luminance"><path fill="#fff" stroke="#fff" stroke-width="2" d="M.597-.802-1-1.991V19.96l1.587-1.15 12.249-8.887 1.101-.799-1.092-.812L.597-.802Z"/></mask><g mask="url(#d)"><path fill="#E31D1C" fill-rule="evenodd" d="m5.609 10.709-2.834 2.288 1.3-3.058L1.84 7.788h2.637l1.081-2.594 1.15 2.594H9.34L6.989 9.939l1.177 3.058-2.557-2.288Z" clip-rule="evenodd"/><path fill="#FECA00" fill-rule="evenodd" d="M3.763 6.316s-.04-.099.202-.187c.243-.087.317-.273.507-.136.19.136.31-.139.364.256.055.394.206 1.016.206 1.016l2.465 1.853h-.463s-.721 1.06-.602 1.99c0 0-.498-.076-1.173-.076-.674 0-1.116.162-1.116.162l-.39-1.443s.141-.242.202-.438c.06-.195.312-.231.312-.386 0-.156-.248-.286-.124-.688.124-.403.124-1.606.124-1.606s-.392-.172-.312-.172c.08 0 .261-.145.13-.145h-.332Z" clip-rule="evenodd"/><path stroke="#0A0A0A" stroke-width=".25" d="m5.042 7.265-.122.03.01.043.036.027 2.167 1.628h-.155l-.037.055.103.07-.103-.07H6.94l-.002.004-.007.01a2.57 2.57 0 0 0-.106.174 4.754 4.754 0 0 0-.241.478c-.151.347-.296.802-.28 1.25a9.528 9.528 0 0 0-1.035-.057 4.15 4.15 0 0 0-1.03.13l-.342-1.27.056-.105a2.16 2.16 0 0 0 .131-.312c.017-.053.059-.088.135-.145l.003-.002c.032-.025.075-.057.109-.096a.271.271 0 0 0 .07-.18.375.375 0 0 0-.05-.175 1.95 1.95 0 0 0-.028-.05.728.728 0 0 1-.04-.079c-.036-.077-.063-.179-.01-.348a2.52 2.52 0 0 0 .076-.444c.018-.173.03-.364.037-.54a16.88 16.88 0 0 0 .015-.605v-.052h-.124.125v-.082l-.075-.033h-.001l-.003-.002-.012-.005-.042-.02a5.813 5.813 0 0 1-.06-.027.256.256 0 0 0 .028-.034.167.167 0 0 0 .03-.093.143.143 0 0 0-.077-.126.18.18 0 0 0-.064-.02 1.157 1.157 0 0 0 .116-.07.598.598 0 0 1 .057-.036c.028-.016.04-.017.046-.017.005 0 .02.001.054.025.115.083.24.068.29.059a.655.655 0 0 1 .024.113c.028.202.08.46.124.665l.058.259.018.076.005.021.002.006v.001l.122-.029Z"/></g></g></g><path stroke="#000" stroke-opacity=".1" stroke-width=".5" d="M.25.25h23.5v17.5H.25z"/><defs><clipPath id="a"><path fill="#fff" d="M0 0h24v18H0z"/></clipPath></defs></svg>