<svg xmlns="http://www.w3.org/2000/svg" fill="none" viewBox="0 0 24 18"><g clip-path="url(#a)"><path fill="#fff" d="M0 0h24v18H0z"/><path fill="#DFDFDF" d="M8.318 15.922c-.5.15-1.22.46-1.507.634-.093.06-.085.128.06.385.1.166.202.309.22.309.025 0 .304-.113.617-.257.314-.135.714-.315.898-.347.14-.024.269-.047.348-.077.032.07.012.03.07.14.085.156.032.152.177.195.153.046.53-.137.53-.137.44-.136.686-.151 2.269-.151s1.828.015 2.268.159l.4.12c.045.013.07.023.117.013.044-.01.089-.069.11-.105 0 0 .097-.208.122-.282.084.037.238.084.386.125.177.053.575.212.888.347.314.144.593.257.618.257.017 0 .119-.143.22-.31.204-.354.22-.324-.516-.664-.982-.452-1.964-.656-2.057-.437-.017.041-.031.066-.054.12-.099-.02-.356-.075-.615-.113-.795-.128-2.98-.128-3.775 0-.258.038-.432.1-.578.137-.083-.147-.066-.089-.083-.13-.067-.151-.515-.127-1.133.069"/><path fill="#171796" d="M9.037 6.595c-.017.246.034.42.168.552.06.063.11.138.11.138s-.068.075-.124.132a.66.66 0 0 0-.188.482c0 .186.054.315.199.483 0 0 .122.062.12.138-.004.077-.131.153-.131.153-.262.306-.253.657.02.948l.116.129h5.352l.13-.147q.38-.43.004-.92s-.126-.09-.128-.166c-.002-.075.12-.15.12-.15.26-.33.255-.633-.015-.95-.122-.141-.125-.168-.028-.234.156-.111.253-.486.181-.714-.105-.342-.557-.57-.832-.42a2 2 0 0 0-.23.165.7.7 0 0 1-.162.117.8.8 0 0 1-.151-.12c-.276-.25-.608-.28-.884.003 0 0-.039.15-.097.156-.058.005-.14-.135-.14-.135-.28-.28-.633-.267-.92.027 0 0-.04.123-.105.108s-.118-.16-.118-.16c-.168-.161-.274-.158-.468-.161-.11-.002-.312.025-.434.116s-.1.2-.128.193c-.07-.019-.148-.132-.148-.132-.273-.246-.492-.288-.756-.141a.6.6 0 0 0-.333.51"/><path fill="#D42E12" d="M9.214 10.869s.109.053.105.121-.12.136-.12.136a1 1 0 0 0-.159.233.68.68 0 0 0 .157.706c.108.109.11.153.008.283-.045.056-.1.136-.12.177-.213.42.106.945.578.945.188 0 .33-.062.458-.204.102-.112.156-.115.247-.014.134.153.31.247.458.247.173 0 .281-.056.457-.23 0 0 .07-.136.134-.136.064.001.122.14.122.14.265.294.532.303.888.023 0 0 .078-.114.145-.112.066.001.125.118.125.118.156.141.273.197.426.197.154 0 .267-.062.447-.245 0 0 .092-.138.147-.147.056-.009.114.106.114.106.219.204.338.269.498.269.164 0 .281-.056.446-.21.154-.145.236-.313.216-.452-.02-.15-.15-.425-.247-.52 0 0-.097-.008-.083-.082.015-.074.128-.15.128-.15.279-.34.282-.603.006-.94 0 0-.115-.066-.114-.141s.12-.15.12-.15c.267-.328.264-.632-.006-.93l-.145-.157-2.661.003-2.662.003-.119.139c-.279.322-.276.65.006.974"/><path fill="#E9D315" fill-rule="evenodd" d="M13.365 10.216a.26.26 0 0 1 .259.204l.004.044v.461l.552-.293a.253.253 0 0 1 .34.102.246.246 0 0 1-.065.31l-.038.025-.462.246.462.245.038.025a.246.246 0 0 1 .064.311.25.25 0 0 1-.34.101l-.551-.292v.513a.256.256 0 0 1-.263.248.26.26 0 0 1-.258-.203l-.004-.045v-.45l-.434.23a.25.25 0 0 1-.34-.102.246.246 0 0 1 .065-.31l.038-.026.462-.245-.462-.245-.038-.025a.246.246 0 0 1-.065-.311.253.253 0 0 1 .34-.101l.434.23v-.399c0-.137.117-.248.262-.248m-2.549 0c.129 0 .236.088.258.204l.005.044v.461l.551-.293a.253.253 0 0 1 .34.102.246.246 0 0 1-.064.31l-.038.025-.463.246.463.245.038.025a.246.246 0 0 1 .064.311.25.25 0 0 1-.34.101l-.551-.292v.513a.256.256 0 0 1-.263.248.26.26 0 0 1-.258-.203l-.004-.045v-.45l-.434.23a.25.25 0 0 1-.34-.102.246.246 0 0 1 .064-.31l.038-.026.463-.245-.463-.245-.038-.025a.246.246 0 0 1-.064-.311.253.253 0 0 1 .34-.101l.434.23v-.399c0-.137.117-.248.262-.248" clip-rule="evenodd"/><path stroke="#000" stroke-width=".3" d="M8.102 9.643v.513l.002 1.2.004 2.413a.33.33 0 0 0 .085.248 1 1 0 0 0 .081.072l.079.06.063.04c.072.04.166.07.266.096.14.036.317.068.52.092.4.048.912.064 1.453.022v.001c.227.002.39.045.514.105a1 1 0 0 1 .294.224q.058.065.11.13.053.066.11.128c.077.08.181.163.33.163s.254-.083.329-.165c.037-.04.072-.086.105-.129q.05-.066.106-.13a.9.9 0 0 1 .275-.222c.116-.059.27-.102.487-.104a15 15 0 0 0 1.534-.043 4 4 0 0 0 .499-.073.8.8 0 0 0 .311-.13l.001.001h.001l.002-.002.005-.005.019-.015.056-.054c.039-.04.1-.109.127-.19l.026-.103a.6.6 0 0 0 .003-.144l-.001-.013v-8.53H8.102zm0 0s.064.061.15.064v-.064z"/><path fill="#fff" d="M11.151 7.4c-.2.374-.21.542-.042.843.13.23.283.377.493.47.547.248 1.248.066 1.523-.396.17-.283.15-.757-.037-.963l-.051-.056-.048.164c-.068.233-.136.35-.273.476-.255.233-.606.285-.97.141-.28-.113-.393-.269-.498-.704l-.026-.108z"/><path fill="#FF2500" fill-rule="evenodd" d="M13.859 2.625c0 .65-.468 1.125-1.125 1.125-.658 0-1.122-.476-1.122-1.125 0-.653.464-1.125 1.122-1.125.657 0 1.125.472 1.125 1.125m-8.967 1.09V2.199l.67 1.516h.293l.654-1.516v1.516h.396v-2.18h-.46l-.733 1.676-.74-1.676H4.5v2.18zm2.778 0 .25-.604h.93l.25.604h.42l-.935-2.18H8.19l-.935 2.18zm.713-1.729-.333.806h.666zm2.306 1.729v-.87l.884-1.31h-.436l-.642.976-.646-.976h-.448l.88 1.31v.87zm2.045-.295c-.428 0-.706-.334-.706-.795s.278-.795.706-.795.709.334.709.795-.281.795-.71.795m2.464-1.558v1.853h-.412V1.862h-.808v-.327h2.028v.327zm2.267 1.853V1.862h.808v-.327h-2.029v.327h.808v1.853zm2.785-.33v.33H18.66v-2.18h1.589v.327h-1.185v.575h1.074v.323h-1.074v.624z" clip-rule="evenodd"/><path fill="#DFDFDF" fill-rule="evenodd" stroke="#000" stroke-width=".3" d="M20.082 14.1s-.255-.502.39-.75.96.075 1.244.376c.285.3.253 1.206.253 1.206l-.702 1.123-2.153.445-.858-.445L17.25 14.1l.075-1.919s.102-.735.102-.887.467-1.332.467-1.332l.443-.438 1.252-.666.589-.295.732-.925-.081-.736-.834 1.062h-.707l-.735.309-.297.28-.362.01-.141-.29.395-.635.596-.6-.274-.508.406-.185-.078-.28.45.28.34-.28.065-.257-.777-.417s.76-.32 1.119-.286c.358.033.696.455.696.455l1.026-.169s-.275.674-.186.674h.645l-.207.837h.794l-.587.645.459.251-.698.475.698.469-.649.426.366.706.575-.35.323.438-.486 1.08-.795.563-.756.19-.74.193-.295.193-.183-.739-1.251.858-.65 1.345.191 1.223.459.625.845.303 1.102-.207.576-.702.138-.716s-.334-.486-.576-.445-.747.374-.747.374Z" clip-rule="evenodd"/><path fill="#000" d="m18.812 9.168-.028.3c.866.08 1.438.036 1.738-.15l.06-.042-.187-.235c-.182.145-.657.199-1.406.142zm-1.004.866-.028.299c.866.08 1.438.037 1.738-.15l.06-.042-.187-.234c-.182.144-.657.198-1.406.142zm-.242.807-.05.296c.51.086.83.046.939-.177l.022-.06-.288-.081c-.015.052-.177.084-.507.04z"/><path fill="#000" fill-rule="evenodd" d="M19.313 7.125a.187.187 0 1 1 0-.375.187.187 0 0 1 0 .375" clip-rule="evenodd"/><path fill="#DFDFDF" fill-rule="evenodd" stroke="#000" stroke-width=".3" d="M3.918 14.1s.255-.502-.39-.75-.96.075-1.244.376c-.285.3-.253 1.206-.253 1.206l.702 1.123 2.153.445.858-.445L6.75 14.1l-.075-1.919s-.102-.735-.102-.887-.467-1.332-.467-1.332l-.443-.438-1.252-.666-.589-.295-.732-.925.081-.736.834 1.062h.707l.735.309.297.28.362.01.141-.29-.394-.635-.597-.6.274-.508-.406-.185.078-.28-.45.28-.34-.28-.065-.257.777-.417s-.76-.32-1.119-.286c-.358.033-.696.455-.696.455l-1.025-.17s.274.674.185.674h-.645l.207.837h-.795l.588.645-.459.251.698.475-.698.469.649.426-.366.706-.575-.35-.323.438.486 1.08.795.563.756.19.74.193.295.193.183-.739 1.251.858.65 1.345-.191 1.223-.459.625-.845.303-1.102-.207-.576-.702-.138-.716s.334-.486.576-.445.747.374.747.374Z" clip-rule="evenodd"/><path fill="#000" d="m5.188 9.168.028.3c-.866.08-1.438.036-1.738-.15l-.06-.042.187-.235c.182.145.657.199 1.406.142zm1.004.866.028.299c-.866.08-1.438.037-1.738-.15l-.06-.042.187-.234c.182.144.657.198 1.406.142zm.242.807.05.296c-.51.086-.83.046-.939-.177l-.022-.06.288-.081c.015.052.177.084.507.04z"/><path fill="#000" fill-rule="evenodd" d="M4.688 7.125a.188.188 0 1 0 0-.375.188.188 0 0 0 0 .375" clip-rule="evenodd"/></g><rect width="23" height="17" x=".5" y=".5" stroke="#000" stroke-opacity=".1" rx="1.5"/><defs><clipPath id="a"><rect width="24" height="18" fill="#fff" rx="2"/></clipPath></defs></svg>