<svg xmlns="http://www.w3.org/2000/svg" fill="none" viewBox="0 0 24 18"><g clip-path="url(#a)"><mask id="b" width="24" height="18" x="0" y="0" maskUnits="userSpaceOnUse" style="mask-type:luminance"><path fill="#fff" d="M0 0h24v18H0z"/></mask><g mask="url(#b)"><path fill="#2E42A5" fill-rule="evenodd" d="M0 0v18h24V0H0Z" clip-rule="evenodd"/><mask id="c" width="24" height="18" x="0" y="0" maskUnits="userSpaceOnUse" style="mask-type:luminance"><path fill="#fff" fill-rule="evenodd" d="M0 0v18h24V0H0Z" clip-rule="evenodd"/></mask><g mask="url(#c)"><path fill="#FFD018" fill-rule="evenodd" d="M0 17.997 12.113-1.5h12.114L0 17.997Z" clip-rule="evenodd"/><path fill="#E31D1C" d="M0 17.997 25.847 8.25V-3.828L0 17.997Z"/><path fill="#F7FCFF" d="m0 17.997 25.847-3.748V8.172L0 17.997Z"/><path fill="#5EAA22" fill-rule="evenodd" d="M0 17.997h25.847v-5.325L0 17.997Z" clip-rule="evenodd"/></g></g></g><rect width="23" height="17" x=".5" y=".5" stroke="#000" stroke-opacity=".1" rx="1.5"/><defs><clipPath id="a"><rect width="24" height="18" fill="#fff" rx="2"/></clipPath></defs></svg>