<svg xmlns="http://www.w3.org/2000/svg" fill="none" viewBox="0 0 24 18"><g clip-path="url(#a)"><mask id="b" width="24" height="18" x="0" y="0" maskUnits="userSpaceOnUse" style="mask-type:luminance"><path fill="#fff" d="M0 0h24v18H0z"/></mask><g mask="url(#b)"><path fill="#F7FCFF" fill-rule="evenodd" d="M0 0v18h24V0H0Z" clip-rule="evenodd"/><mask id="c" width="24" height="18" x="0" y="0" maskUnits="userSpaceOnUse" style="mask-type:luminance"><path fill="#fff" fill-rule="evenodd" d="M0 0v18h24V0H0Z" clip-rule="evenodd"/></mask><g mask="url(#c)"><path fill="#3D58DB" fill-rule="evenodd" d="M0 0v6h24V0H0Zm0 12v6h24v-6H0Z" clip-rule="evenodd"/><path stroke="#E8AA00" d="M14.444 8.894a2.606 2.606 0 1 1-5.213 0 2.606 2.606 0 0 1 5.213 0Z"/><path fill="#1E601B" fill-rule="evenodd" d="M10.358 7.247s-.714 1.176-.714 1.983c0 .807.855 1.821 2.2 1.821 1.313 0 2.256-.784 2.284-1.821.029-1.038-.706-1.777-.706-1.777s.416 1.494.208 2.1c-.208.605-.88 1.338-1.786 1.244-.905-.093-1.764-1.207-1.764-1.567 0-.36.278-1.983.278-1.983Z" clip-rule="evenodd"/><path stroke="#188396" d="M10.62 9.246h2.406"/><path stroke="#E8AA00" d="M10.844 8.854h2.07m-.346.33h-1.402l.707-1.174.695 1.174Z"/></g></g></g><path stroke="#000" stroke-opacity=".1" stroke-width=".5" d="M.25.25h23.5v17.5H.25z"/><defs><clipPath id="a"><path fill="#fff" d="M0 0h24v18H0z"/></clipPath></defs></svg>