<svg xmlns="http://www.w3.org/2000/svg" fill="none" viewBox="0 0 24 18"><g clip-path="url(#a)"><mask id="b" width="24" height="18" x="0" y="0" maskUnits="userSpaceOnUse" style="mask-type:luminance"><path fill="#fff" d="M0 0h24v18H0z"/></mask><g mask="url(#b)"><path fill="#F7FCFF" fill-rule="evenodd" d="M0 0h24v18H0V0Z" clip-rule="evenodd"/><path fill="#FFDC17" fill-rule="evenodd" d="M0 0h10.5v18H0V0Z" clip-rule="evenodd"/><path fill="#AF0100" d="m17.086 9.563-.259.017c.062.89.253 1.577.577 2.061.523.782 1.213 1.387 1.675 1.387.105 0 .13.039.095.135-.05.136-.205.271-.405.323-.333.085-1.09.13-2.258.13v.251c1.191 0 1.962-.045 2.325-.139.281-.072.505-.265.583-.483.09-.25-.046-.468-.34-.468-.343 0-.98-.558-1.457-1.272-.297-.444-.477-1.091-.536-1.942Zm-1.226 0 .26.017c-.063.89-.254 1.577-.578 2.061-.523.782-1.213 1.387-1.675 1.387-.105 0-.129.039-.094.135.049.136.204.271.405.323.332.085 1.09.13 2.258.13v.251c-1.192 0-1.963-.045-2.325-.139-.282-.072-.505-.265-.583-.483-.09-.25.046-.468.34-.468.342 0 .978-.558 1.456-1.272.297-.444.477-1.091.536-1.942Z"/><path fill="#F4B300" fill-rule="evenodd" d="m21.05 5.099-6.856 5.344a2.507 2.507 0 0 0-.775-.12c-1.113 0-2.043.71-2.043 1.632 0 .922.93 1.632 2.043 1.632.127 0 .252-.01.374-.027a.718.718 0 0 1-.238-.315c-.051-.14-.03-.27.049-.358a1.86 1.86 0 0 1-.185.01c-.75 0-1.33-.443-1.33-.942 0-.5.58-.942 1.33-.942.75 0 1.33.442 1.33.942 0 .153-.055.3-.152.431l.055-.05c.238-.221-.296.692-.758.692-.105 0-.129.039-.094.135.046.128.185.254.367.312.752-.235 1.295-.816 1.295-1.52 0-.288-.09-.556-.25-.787l3.685-3.128.247.255.177-.16.616.455-.258.199.526.638 1.06-.817.017-.009-.003-.002.066-.05-.525-.64-.255.197-.688-.476.081-.073-.221-.23.333-.282.176.183.19-.172.597.472-.251.193.525.639.908-.7.104-.057-.015-.011.144-.111-.526-.639-.297.229-.653-.501.089-.08-.152-.157.678-.576-.537-.658Z" clip-rule="evenodd"/><path fill="#BFBFBF" fill-rule="evenodd" d="M11.764 11.044c.197 0 .357-.126.357-.282 0-.156-.16-.283-.357-.283-.197 0-.356.127-.356.283 0 .156.16.282.357.282Zm.13 2.575c.197 0 .357-.127.357-.283 0-.156-.16-.283-.357-.283-.197 0-.357.127-.357.283 0 .156.16.283.357.283Zm3.535-.283c0 .156-.16.283-.356.283-.197 0-.357-.127-.357-.283 0-.156.16-.283.357-.283.197 0 .356.127.356.283Zm2.109-1.381c0-.415.188-.786.496-1.07l-3.937-3.05-.045.035.115.105-.31.32-.164-.148-.603.464.23.178-.524.638-1.049-.808-.03-.018.004-.002-.066-.05.526-.64.254.197.688-.476-.081-.073.297-.308-.346-.268-.24.247-.182-.166-.589.477.236.182-.525.639-.88-.678-.132-.079.015-.011-.143-.111.525-.639.296.23.654-.502-.089-.08.18-.186-.707-.547.446-.54 6.811 5.275a2.49 2.49 0 0 1 .912-.17c1.113 0 2.044.71 2.044 1.633 0 .922-.931 1.632-2.044 1.632-.127 0-.253-.01-.374-.027a.718.718 0 0 0 .238-.315c.051-.14.03-.27-.049-.357.06.005.122.009.185.009.75 0 1.33-.443 1.33-.942 0-.5-.58-.942-1.33-.942-.75 0-1.33.442-1.33.942 0 .153.055.3.151.431a3.503 3.503 0 0 1-.054-.05c-.238-.221.296.692.758.692.105 0 .129.039.094.135-.046.128-.185.254-.367.312-.752-.235-1.295-.816-1.295-1.52Z" clip-rule="evenodd"/><path fill="#F4B300" fill-rule="evenodd" d="M21.235 11.044c-.197 0-.356-.126-.356-.282 0-.156.16-.283.356-.283.198 0 .357.127.357.283 0 .156-.16.282-.357.282Zm-.13 2.575c-.196 0-.356-.127-.356-.283 0-.156.16-.283.357-.283.197 0 .357.127.357.283 0 .156-.16.283-.357.283Zm-3.534-.283c0 .156.16.283.356.283.198 0 .357-.127.357-.283 0-.156-.16-.283-.357-.283-.197 0-.356.127-.356.283Z" clip-rule="evenodd"/><path fill="#AF0100" fill-rule="evenodd" d="M16.338 8.847a.13.13 0 0 0-.13.13v.372h-.36a.094.094 0 0 0 0 .188h.36v5.333c0 .072.058.13.13.13h.13a.13.13 0 0 0 .13-.13V9.537h.554a.094.094 0 0 0 0-.188h-.555v-.373a.13.13 0 0 0-.13-.13h-.13Z" clip-rule="evenodd"/><path fill="#979797" fill-rule="evenodd" d="m12.566 5.695.159.11c.37-.506.703-.607 1.041-.342.585.457.636 1.574.01 1.948-.745.446-1.123 1.316-.793 1.79.305.436 1.041.271 1.767-.278a4.36 4.36 0 0 0 .368-.31l-.154-.119a4.167 4.167 0 0 1-.333.28c-.648.49-1.27.63-1.486.321-.258-.369.071-1.127.734-1.523.749-.449.691-1.722.01-2.256-.44-.344-.895-.205-1.323.38Zm2.856 2.289.158.11c.276-.372.464-.775.526-1.171l-.192-.028c-.058.365-.234.74-.492 1.089Zm5.03-2.289-.159.11c-.37-.506-.703-.607-1.041-.342-.585.457-.636 1.574-.01 1.948.745.446 1.123 1.316.793 1.79-.305.436-1.041.271-1.767-.278a4.345 4.345 0 0 1-.368-.31l.154-.119c.105.099.217.193.334.28.647.49 1.27.63 1.486.321.257-.369-.072-1.127-.734-1.523-.75-.449-.692-1.722-.01-2.256.439-.344.894-.205 1.322.38Zm-2.856 2.289-.158.11c-.275-.372-.464-.775-.526-1.171l.192-.028c.058.365.234.74.492 1.089Z" clip-rule="evenodd"/><path fill="#AF0100" fill-rule="evenodd" d="M16.403 15.012c.215 0 .39-.087.39-.194 0-.108-.175-.195-.39-.195-.215 0-.39.087-.39.195 0 .107.175.194.39.194Zm-.065-8.097c.752 0 1.362-.102 1.362-.227 0-.126-.61-.227-1.362-.227-.753 0-1.362.101-1.362.227 0 .125.61.227 1.362.227Z" clip-rule="evenodd"/><path fill="#F4B300" fill-rule="evenodd" d="M16.414 1.529h-.194v.224h-.184v.189h.184v.55h.194v-.55h.225v-.189h-.225V1.53Zm-1.463 2.714-.087-.147c.048-.02.096-.039.146-.056l-.253-.555.178-.076.26.571c.056-.016.112-.03.17-.044a.265.265 0 0 1-.065-.176c0-.138.101-.25.227-.25.125 0 .227.112.227.25 0 .04-.008.077-.023.11.155-.02.316-.033.483-.038v-.213h-.243v-.152h.243v-.18h.258v.18h.297v.152h-.297v.211c.19.004.37.017.537.04a.274.274 0 0 1-.023-.11c0-.138.102-.25.227-.25.126 0 .227.112.227.25a.264.264 0 0 1-.07.181c.073.02.143.04.21.064l.186-.408.178.076-.185.405.044.02-.098.142-.016-.008-.03.066-.178-.076.03-.064a3.263 3.263 0 0 0-1.04-.164v.067h-.257v-.066c-.485.015-.905.098-1.263.248Zm-.087.167.046.077-.153.065.253.555c-.05.018-.098.037-.146.057l.087.146c.357-.15.778-.232 1.263-.247v.065h.258v-.067c.408.008.754.063 1.038.165l-.029.063.178.076.03-.065.016.007.098-.14a1.775 1.775 0 0 0-.044-.021l.185-.406-.178-.076-.186.409a2.526 2.526 0 0 0-.21-.064.264.264 0 0 0 .07-.181c0-.139-.101-.251-.227-.251-.125 0-.227.112-.227.25 0 .04.009.078.023.11a4.446 4.446 0 0 0-.537-.04v-.21h.297v-.152h-.297v-.18h-.258v.18h-.243v.151h.243V4.9a4.722 4.722 0 0 0-.483.038.271.271 0 0 0 .023-.11c0-.138-.102-.25-.227-.25s-.227.112-.227.25c0 .07.025.131.065.177a3.362 3.362 0 0 0-.17.043l-.227-.498c.393-.161.862-.242 1.407-.242.552 0 .995.083 1.33.247l.098-.141c-.368-.18-.844-.27-1.428-.27-.582 0-1.086.089-1.51.267Zm0 1.068.046.076-.153.065.253.556c-.05.017-.098.036-.146.056l.087.146c.357-.15.778-.232 1.263-.247v.066h.258v-.067c.408.007.754.062 1.038.164l-.029.064.178.076.03-.066.016.008.098-.141a1.812 1.812 0 0 0-.044-.021l.185-.405-.178-.076-.186.408a2.526 2.526 0 0 0-.21-.064.264.264 0 0 0 .07-.18c0-.14-.101-.252-.227-.252-.125 0-.227.113-.227.251 0 .04.009.077.023.11a4.446 4.446 0 0 0-.537-.04v-.211h.297v-.152h-.297v-.18h-.258v.18h-.243v.152h.243v.213a4.722 4.722 0 0 0-.483.038.271.271 0 0 0 .023-.11c0-.138-.102-.25-.227-.25s-.227.112-.227.25c0 .069.025.13.065.176a3.373 3.373 0 0 0-.17.044l-.227-.498c.393-.162.862-.243 1.407-.243.552 0 .995.083 1.33.247l.098-.14c-.368-.181-.844-.27-1.428-.27-.582 0-1.086.088-1.51.267Zm0 1.067.087.146c.396-.166.87-.25 1.424-.25.552 0 .995.084 1.33.248l.098-.141c-.368-.18-.844-.27-1.428-.27-.582 0-1.086.089-1.51.267Z" clip-rule="evenodd"/></g></g><rect width="23" height="17" x=".5" y=".5" stroke="#000" stroke-opacity=".1" rx="1.5"/><defs><clipPath id="a"><rect width="24" height="18" fill="#fff" rx="2"/></clipPath></defs></svg>