<svg xmlns="http://www.w3.org/2000/svg" fill="none" viewBox="0 0 24 18"><g clip-path="url(#a)"><mask id="b" width="24" height="18" x="0" y="0" maskUnits="userSpaceOnUse" style="mask-type:luminance"><path fill="#fff" d="M0 0h24v18H0z"/></mask><g fill-rule="evenodd" clip-rule="evenodd" mask="url(#b)"><path fill="#409100" d="M16.5 0H24v18h-7.5zM0 0h7.5v18H0z"/><path fill="#fff" d="M7.5 0h9v18h-9z"/><path fill="#409100" d="M9.522 14.078c-1.167.19-1.535-.38-1.535-.38l.147-.12c.099-.082.43-.054.754-.027.158.014.313.027.438.027.182 0 .392-.028.61-.057.237-.03.485-.063.72-.063.448 0-1.33-.588-1.71-.227-.38.36-1.446-.167-1.446-.468 0-.205.392-.13.75-.062.167.031.326.062.435.062.342 0-.342-.667-.698-.667s.356-.155.698-.155c.194 0 .375.05.531.093.118.033.221.062.306.062.195 0-.982-.506-1.18-.506h.984c.337 0 .42.047.497.093.07.04.136.079.383.079.52 0 .235-.285.235-.285s-1.756-.182-2.098-.434c-.231-.17.39-.11.975-.053.281.027.554.053.722.053.519 0-1.094-.37-1.355-.37h1.188c.26 0 .546.084.846.171.33.097.679.2 1.028.2.369 0-.351-.22-1.142-.462-.639-.196-1.324-.405-1.52-.524-.2-.123-.047-.075.232.011.324.101.819.255 1.124.255.568 0-.755-.557-1.115-.557s-.704-.162-.38-.311c.199-.092.717.046 1.169.167.283.075.54.144.676.144.163 0 .284.064.413.132.146.077.303.16.543.16.452 0-.956-.603-1.541-.603s-.684-.284-.333-.284-.787-.484-.787-.484-.165-.343.24-.343h.547c.188 0-.187-.594-.547-.594s-.046-.18.547-.18c.361 0 .572.125.826.275.164.096.345.203.596.294.64.233.158-.39 0-.39-.157 0-1.773-.506-1.773-.506s.164-.187 0-.44c-.124-.193.391-.095.706-.035.102.019.183.034.213.034.074 0 .288.053.55.118.177.044.377.094.57.136.48.106-1.632-.775-1.875-.775s.52-.145.97-.145c.22 0 .327.035.435.07.112.037.226.075.47.075.48 0-.906-.515-1.355-.515-.45 0-.184-.443 0-.443.071 0 .252.023.473.053.347.045.792.104 1.068.104.21 0 .018-.06-.26-.145-.322-.098-.76-.232-.832-.353-.08-.133.083-.109.367-.067l.165.024c.194.101.356.167.38.09a.1.1 0 0 1 .041-.05q.069.003.14.003c.267 0 .143-.04-.114-.09l-.024-.007c-.39-.12-1.237-.375-.92-.217q.094.047.204.11a5 5 0 0 0-.453-.049c-.214 0-.429-.165 0-.165h.854c-.265 0-.64 0-.64-.209 0-.142.297-.09.57-.043.128.022.251.043.336.043.266 0 .332 0 .186-.124-.138-.118-.615-.117-.91-.117h-.046c-.29 0 .615-.151.956-.151l.083-.001-.044-.006c-.149-.014-.643-.062-.995-.222-.316-.142-.04-.107.323-.06.216.028.464.06.633.06.452 0-.186-.304-.666-.304-.386 0-.202-.105.036-.241q.09-.051.178-.106c.174-.11.3.077.375.187.05.074.077.113.077-.003a.4.4 0 0 0-.053-.223l.053.04c.187.123 0-.327 0-.327s-.186-.124 0-.124c.187 0-.06-.214-.186-.214s.332-.204.332-.204l.1-.866s.25.943.25 1.07v.664c0 .158-.111.268-.186.342-.094.093-.13.128.186.128.568 0 .544.181.198.181-.345 0 .1.229.72.229s-.52.268-.918.268c-.397 0 .398.124.918.124.352 0-.009.122-.341.234-.16.054-.314.105-.379.14-.103.056.152.054.421.04-.142.041-.282.084-.389.116-.13.04-.173.053-.172.059q.001.003.03.004c.055.003.164.009.186.08.033.108.329-.058.608-.215l.132-.073.121-.01s.257.296.257.477c0 .106-.338.137-.699.17l-.036.004c.018-.024-.059-.012-.171.016-.188.02-.364.043-.486.083-.115.037-.096.053-.002.056l-.025.008c-.089.027-.12.036-.119.042q.002.004.023.007c.04.008.118.023.14.094.032.107.23-.028.417-.156l.017-.013.178-.011a10 10 0 0 1 .506-.027c.335 0-.335.161-.591.161-.109 0 .028.025.238.062.283.051.697.126.814.195.14.083-.27.052-.636.024a7 7 0 0 0-.416-.024c-.291 0-.346.238-.146.238h.737c.279 0 .57.427.46.427-.032 0-.102.022-.2.052-.226.07-.598.187-.997.187h.994c.257 0 .991 0 .991.254 0 .158-.139.193-.32.238-.111.028-.238.06-.359.125-.32.173.957.33.957.33s-.505.158-.751.158.114.232.75.232c.493 0 .349.268.258.436a.3.3 0 0 0-.048.112c0 .044-.093.083-.228.138-.174.07-.416.17-.618.346-.232.202.05.143.369.076.174-.037.359-.076.477-.076.334 0 .477.014.368.176s-1.082.42-1.328.42h1.328c.368 0-.103.29-.577.29a1 1 0 0 0-.613.199c-.058.038-.1.067-.138.067h.96c.049 0 .102-.078.152-.15.043-.063.083-.12.113-.116.434.068.24.615 0 .615-.275 0-1.11.184-.98.37.064.09.164.05.325-.017.172-.07.414-.169.758-.169.667 0 .064.186-.103.186s-.875.135-1.11.252c-.158.078.39.052.934.026.271-.013.542-.026.725-.026.548 0-1.301.467-1.98.467s.452.179.679.179c.087 0 .257.023.465.05.335.046.772.105 1.134.105.587 0-.587.387-1.112.387h-.12c-.469-.003-.821-.004-.594.28.126.158.546.115.984.07.415-.043.848-.087 1.061.037.384.223-1.313.204-2.045.196l-.246-.002c-.45 0 .45.167 1.225.167h.098c.692 0 .856-.001.856.227 0 .2-1.508.148-2.138.127l-.247-.008c-.12 0-.19.073-.263.149-.077.08-.157.164-.306.164-.122 0-.18-.078-.232-.15-.07-.095-.132-.18-.33-.042-.346.24.345 2.652.345 2.652h-1.866v-2.272s-.607-.19-1.773 0m2.143-11.066q-.006 0 .03.033-.024-.034-.03-.033m-.65 9.006c-.294-.111.453-.117.799-.117.111 0 .15 0 .153.01q.002.007-.024.026a.3.3 0 0 0-.13.25c0 .212-.28.075-.544-.054a3 3 0 0 0-.253-.115m.612-.869c-.346 0-1.093.006-.798.117.075.028.163.071.253.115.265.13.545.266.545.053 0-.142.086-.213.13-.25q.024-.018.023-.025c-.002-.01-.042-.01-.153-.01m-.623-.502c-.241-.059.369-.062.65-.062.094 0 .125 0 .126.006q0 .004-.02.013c-.035.019-.105.056-.105.131 0 .112-.229.04-.445-.028-.073-.023-.145-.046-.207-.06m.607-2.377c-.392-.12-1.238-.376-.921-.218.08.04.173.092.268.146.28.156.576.322.609.215.022-.072.13-.078.185-.08q.028-.002.03-.005c.002-.005-.042-.019-.171-.058m-.921-.97c-.317-.157.53.098.92.218.13.04.174.053.173.058 0 .003-.013.004-.031.005-.055.002-.163.008-.185.08-.033.107-.329-.059-.609-.215-.095-.053-.188-.106-.268-.146m.92-.722c-.39-.12-1.237-.375-.92-.217.08.04.173.092.268.145.28.156.576.322.609.215.022-.071.13-.077.185-.08q.028-.001.03-.005c.002-.005-.042-.018-.171-.058m.847 5.135c.345 0 1.092.006.798.117a3 3 0 0 0-.253.115c-.265.13-.545.266-.545.053 0-.142-.087-.214-.13-.25q-.024-.018-.024-.025c.003-.01.042-.01.154-.01m.798-.447c.294-.111-.453-.117-.798-.117-.112 0-.151 0-.154.01q0 .007.024.026c.043.035.13.107.13.25 0 .212.28.075.545-.054.09-.044.178-.087.253-.115m-.826-1.057c.235 0 1.134-.208 1.288-.243l-.008.002a5 5 0 0 0-.434.159c-.38.15-.846.332-.846.232 0-.075-.07-.112-.106-.13q-.019-.01-.02-.014c.001-.006.033-.006.126-.006m.965-2.533c.317-.158-.53.098-.92.218h-.001c-.13.04-.173.053-.172.058q.001.003.03.004c.055.003.164.01.186.08.033.108.329-.058.608-.214a6 6 0 0 1 .269-.146m-.92.97c.39-.12 1.237-.376.92-.218a7 7 0 0 0-.269.145c-.28.157-.575.323-.608.216-.022-.072-.13-.078-.185-.08q-.029-.002-.031-.005c-.001-.006.043-.019.172-.058m.92-1.722c.317-.157-.53.098-.92.218h-.001c-.13.04-.173.053-.172.058q.001.004.03.005c.055.003.164.008.186.08.033.107.329-.059.608-.215.095-.053.189-.106.269-.146m-1.178-.44c.27-.082.854-.257.64-.131a3 3 0 0 0-.18.118c-.186.128-.384.264-.416.157-.022-.072-.1-.087-.14-.094q-.02-.004-.023-.007c0-.006.03-.015.119-.042m.172 2.861c-.31 0 0-.245 0-.245h.16a.4.4 0 0 0 .167-.052c.123-.056.302-.139.685-.139.584 0-.702.436-1.012.436"/></g></g><rect width="23" height="17" x=".5" y=".5" stroke="#000" stroke-opacity=".1" rx="1.5"/><defs><clipPath id="a"><rect width="24" height="18" fill="#fff" rx="2"/></clipPath></defs></svg>