<svg xmlns="http://www.w3.org/2000/svg" fill="none" viewBox="0 0 24 18"><g clip-path="url(#a)"><mask id="b" width="24" height="18" x="0" y="0" maskUnits="userSpaceOnUse" style="mask-type:luminance"><path fill="#fff" d="M0 0h24v18H0z"/></mask><g mask="url(#b)"><path fill="#3D58DB" fill-rule="evenodd" d="M0 0v18h24V0z" clip-rule="evenodd"/><mask id="c" width="24" height="18" x="0" y="0" maskUnits="userSpaceOnUse" style="mask-type:luminance"><path fill="#fff" fill-rule="evenodd" d="M0 0v18h24V0z" clip-rule="evenodd"/></mask><g mask="url(#c)"><path fill="#579D20" fill-rule="evenodd" d="M0 18h24V0z" clip-rule="evenodd"/><path fill="#FECA00" d="m-.587 18.559-1.352-1.872L25.256-1.466 26.61.406z"/><path fill="#F7FCFF" fill-rule="evenodd" d="m2.74 4.91 1.023-.71 1.07.638-.375-1.143.75-.818H4.192l-.43-1.201-.43 1.2-1.017.043.75.776zm4.244 0 1.022-.71 1.071.638-.375-1.143.75-.818H8.435l-.43-1.201-.43 1.2-1.016.043.75.776z" clip-rule="evenodd"/><path fill="#F7FCFF" fill-rule="evenodd" d="m4.986 7.09 1.023-.708 1.07.637-.375-1.143.75-.818H6.439l-.43-1.201-.43 1.2-1.017.043.75.776zM3.763 8.7l-1.023.71.327-1.215-.751-.776 1.016-.042.43-1.201.43 1.2h1.015l-.749.819.376 1.143zm4.243 0-1.022.71.326-1.215-.75-.776 1.016-.042.43-1.201.43 1.2h1.015l-.749.819.375 1.143z" clip-rule="evenodd"/></g></g></g><rect width="23" height="17" x=".5" y=".5" stroke="#000" stroke-opacity=".1" rx="1.5"/><defs><clipPath id="a"><rect width="24" height="18" fill="#fff" rx="2"/></clipPath></defs></svg>