<svg xmlns="http://www.w3.org/2000/svg" fill="none" viewBox="0 0 24 18"><g clip-path="url(#a)"><mask id="b" width="24" height="18" x="0" y="0" maskUnits="userSpaceOnUse" style="mask-type:luminance"><path fill="#fff" d="M0 0h24v18H0z"/></mask><g mask="url(#b)"><path fill="#F7FCFF" fill-rule="evenodd" d="M0 0v18h24V0H0Z" clip-rule="evenodd"/><mask id="c" width="24" height="18" x="0" y="0" maskUnits="userSpaceOnUse" style="mask-type:luminance"><path fill="#fff" fill-rule="evenodd" d="M0 0v18h24V0H0Z" clip-rule="evenodd"/></mask><g mask="url(#c)"><path fill="#FECA00" fill-rule="evenodd" d="M0 1.5v15h24v-15H0Z" clip-rule="evenodd"/><path fill="#272727" stroke="#E31D1C" stroke-width="3.5" d="M0 5.75h-1.75v6.5h27.5v-6.5H0Z"/><path fill="#5EAA22" fill-rule="evenodd" d="M0 3V0h24v3H0Zm0 15v-3h24v3H0Z" clip-rule="evenodd"/></g><path fill="#F7FCFF" stroke="#272727" stroke-width="2" d="M.597-.802-1-1.991V19.96l1.587-1.15 12.249-8.887 1.101-.799-1.092-.812L.597-.802Z"/><mask id="d" width="18" height="26" x="-2" y="-4" maskUnits="userSpaceOnUse" style="mask-type:luminance"><path fill="#fff" stroke="#fff" stroke-width="2" d="M.597-.802-1-1.991V19.96l1.587-1.15 12.249-8.887 1.101-.799-1.092-.812L.597-.802Z"/></mask><g mask="url(#d)"><path fill="#E31D1C" fill-rule="evenodd" d="m5.609 10.709-2.834 2.287 1.3-3.057L1.84 7.788h2.637l1.081-2.594 1.15 2.594H9.34L6.989 9.939l1.177 3.057-2.557-2.287Z" clip-rule="evenodd"/><path fill="#FECA00" fill-rule="evenodd" d="M3.763 6.316s-.04-.1.202-.187c.243-.087.317-.273.507-.137.19.137.31-.138.364.257.055.394.206 1.016.206 1.016l2.465 1.853h-.463s-.721 1.06-.602 1.99c0 0-.498-.076-1.173-.076-.674 0-1.116.162-1.116.162l-.39-1.443s.141-.242.202-.438c.06-.195.312-.231.312-.386 0-.156-.248-.286-.124-.688.124-.403.124-1.606.124-1.606s-.392-.172-.312-.172c.08 0 .261-.145.13-.145h-.332Z" clip-rule="evenodd"/><path stroke="#0A0A0A" stroke-width=".25" d="m5.042 7.265-.122.03.01.043.037.027 2.166 1.628h-.155l-.037.055.103.07-.103-.07H6.94l-.002.004-.006.01a2.514 2.514 0 0 0-.107.174 4.754 4.754 0 0 0-.241.478c-.151.347-.296.802-.28 1.25a9.522 9.522 0 0 0-1.035-.057 4.142 4.142 0 0 0-1.03.13l-.342-1.27a2.16 2.16 0 0 0 .187-.417c.017-.053.059-.088.135-.145l.003-.002c.032-.025.075-.057.11-.096a.271.271 0 0 0 .07-.18.375.375 0 0 0-.051-.175c-.01-.02-.02-.036-.028-.05a.728.728 0 0 1-.04-.079c-.036-.077-.063-.179-.01-.348a2.52 2.52 0 0 0 .076-.444c.018-.173.03-.364.037-.54a16.88 16.88 0 0 0 .016-.605v-.052l-.125-.001h.125v-.082l-.075-.032-.004-.002-.012-.006-.042-.019a6.038 6.038 0 0 1-.06-.027.257.257 0 0 0 .028-.034.167.167 0 0 0 .03-.093.143.143 0 0 0-.077-.126.18.18 0 0 0-.064-.02 1.157 1.157 0 0 0 .116-.07.756.756 0 0 1 .057-.036c.028-.016.04-.017.046-.017.005 0 .021 0 .054.025.116.083.24.067.29.059a.655.655 0 0 1 .024.113c.028.202.08.46.124.665.023.103.043.194.059.259l.017.076.005.021.002.005v.002l.122-.029Z"/></g></g></g><rect width="23" height="17" x=".5" y=".5" stroke="#000" stroke-opacity=".1" rx="1.5"/><defs><clipPath id="a"><rect width="24" height="18" fill="#fff" rx="2"/></clipPath></defs></svg>