<svg xmlns="http://www.w3.org/2000/svg" fill="none" viewBox="0 0 24 18"><g clip-path="url(#a)"><mask id="b" width="24" height="18" x="0" y="0" maskUnits="userSpaceOnUse" style="mask-type:luminance"><path fill="#fff" d="M0 0h24v18H0z"/></mask><g mask="url(#b)"><path fill="#F7FCFF" fill-rule="evenodd" d="M0 0h24v18H0V0Z" clip-rule="evenodd"/><path fill="#E31D1C" d="M.02 3.75h24v2.175h-24zm0 3.9h24v2.175h-24zm.064 3.75h24v1.875h-24zm0 3.75h24v2.025h-24z"/><path fill="#E31D1C" fill-rule="evenodd" d="M0 0h24v1.875H0V0Z" clip-rule="evenodd"/><path fill="#3D58DB" fill-rule="evenodd" d="M0 0h12v9H0V0Z" clip-rule="evenodd"/><path fill="#FECA00" fill-rule="evenodd" d="M2.695 4.652c0 1.032.486 2.008 1.475 2.008 1.484 0 1.773-.316 2.465-.753.164.368-.388 1.941-2.485 1.941-1.677-.033-3.032-1.38-3.032-3.196 0-2.084 1.532-3.21 2.99-3.197 1.287 0 2.652.73 2.61 1.662-.606-.592-1.265-.592-2.36-.592-1.097 0-1.663 1.094-1.663 2.127Z" clip-rule="evenodd"/><path fill="#FECA00" fill-rule="evenodd" d="M8.25 5.475 7.555 6.49l.034-1.23-1.16.413.751-.975L6 4.35l1.18-.348-.75-.974 1.159.412-.034-1.23.695 1.015.695-1.015-.034 1.23 1.16-.412-.751.974 1.18.348-1.18.348.75.975-1.159-.413.034 1.23-.695-1.015Z" clip-rule="evenodd"/></g></g><path stroke="#000" stroke-opacity=".1" stroke-width=".5" d="M.25.25h23.5v17.5H.25z"/><defs><clipPath id="a"><path fill="#fff" d="M0 0h24v18H0z"/></clipPath></defs></svg>