<svg xmlns="http://www.w3.org/2000/svg" fill="none" viewBox="0 0 24 18"><g clip-path="url(#a)"><mask id="b" width="24" height="18" x="0" y="0" maskUnits="userSpaceOnUse" style="mask-type:luminance"><path fill="#fff" d="M0 0h24v18H0z"/></mask><g mask="url(#b)"><path fill="#2E42A5" fill-rule="evenodd" d="M0 0v18h24V0H0Z" clip-rule="evenodd"/><mask id="c" width="24" height="18" x="0" y="0" maskUnits="userSpaceOnUse" style="mask-type:luminance"><path fill="#fff" fill-rule="evenodd" d="M0 0v18h24V0H0Z" clip-rule="evenodd"/></mask><g mask="url(#c)"><path fill="#2B409A" d="M-4-3h18v14H-4z"/><mask id="d" width="18" height="14" x="-4" y="-3" maskUnits="userSpaceOnUse" style="mask-type:luminance"><path fill="#fff" d="M-4-3h18v14H-4z"/></mask><g mask="url(#d)"><path fill="#F7FCFF" d="m-6.004 10 3.96 1.737L14.09-1.111l2.09-2.582-4.236-.58-6.58 5.536-5.297 3.73L-6.004 10Z"/><path fill="#F50100" d="m-5.462 11.217 2.018 1.008L15.429-3.933h-2.834l-18.057 15.15Z"/><path fill="#F7FCFF" d="m16.004 10-3.96 1.737L-4.09-1.111l-2.09-2.582 4.236-.58 6.58 5.536 5.297 3.73L16.004 10Z"/><path fill="#F50100" d="m15.87 10.873-2.019 1.009-8.036-6.918-2.383-.773-9.812-7.875h2.833L6.26 4.004l2.605.927 7.004 5.942Z"/><mask id="e" width="22" height="18" x="-6" y="-5" fill="#000" maskUnits="userSpaceOnUse"><path fill="#fff" d="M-6-5h22v18H-6z"/><path fill-rule="evenodd" d="M5.985-3h-2v6H-4v2h7.985v6h2V5H14V3H5.985v-6Z" clip-rule="evenodd"/></mask><path fill="#F50100" fill-rule="evenodd" d="M5.985-3h-2v6H-4v2h7.985v6h2V5H14V3H5.985v-6Z" clip-rule="evenodd"/><path fill="#F7FCFF" d="M3.985-3v-1.5h-1.5V-3h1.5Zm2 0h1.5v-1.5h-1.5V-3Zm-2 6v1.5h1.5V3h-1.5ZM-4 3V1.5h-1.5V3H-4Zm0 2h-1.5v1.5H-4V5Zm7.985 0h1.5V3.5h-1.5V5Zm0 6h-1.5v1.5h1.5V11Zm2 0v1.5h1.5V11h-1.5Zm0-6V3.5h-1.5V5h1.5ZM14 5v1.5h1.5V5H14Zm0-2h1.5V1.5H14V3ZM5.985 3h-1.5v1.5h1.5V3Zm-2-4.5h2v-3h-2v3Zm1.5 4.5v-6h-3v6h3ZM-4 4.5h7.985v-3H-4v3Zm1.5.5V3h-3v2h3Zm6.485-1.5H-4v3h7.985v-3Zm1.5 7.5V5h-3v6h3Zm.5-1.5h-2v3h2v-3ZM4.485 5v6h3V5h-3ZM14 3.5H5.985v3H14v-3ZM12.5 3v2h3V3h-3ZM5.985 4.5H14v-3H5.985v3ZM4.485-3v6h3v-6h-3Z" mask="url(#e)"/></g></g><g fill="#F7FCFF" clip-path="url(#f)"><path d="m3.5 17-1.302 1.203.13-1.768-1.753-.267 1.463-1.002-.883-1.537 1.694.52L3.5 12.5l.65 1.649 1.695-.52-.883 1.537 1.463 1.002-1.752.267.129 1.768L3.5 17Zm13-7.5-.868.802.086-1.179-1.168-.178.975-.668-.589-1.024 1.13.346L16.5 6.5l.434 1.099 1.13-.346-.59 1.024.976.668-1.168.178.086 1.179L16.5 9.5Zm2-8-.868.802.086-1.179L16.55.945l.975-.668-.589-1.024 1.13.346L18.5-1.5l.434 1.099 1.13-.346-.59 1.024.976.668-1.168.178.086 1.179L18.5 1.5Zm5 4-.868.802.086-1.179-1.168-.178.975-.668-.589-1.024 1.13.346L23.5 2.5l.434 1.099 1.13-.346-.59 1.024.976.668-1.168.178.086 1.179L23.5 5.5Zm-4 13-.868.802.086-1.178-1.168-.179.975-.668-.589-1.024 1.13.346.434-1.099.434 1.099 1.13-.346-.59 1.024.976.668-1.168.178.086 1.179-.868-.802Zm3.5-7.75-.882.463.169-.981-.714-.696.986-.143L23 8.5l.44.893.987.143-.714.696.169.982L23 10.75Z"/></g></g></g><path stroke="#000" stroke-opacity=".1" stroke-width=".5" d="M.25.25h23.5v17.5H.25z"/><defs><clipPath id="a"><path fill="#fff" d="M0 0h24v18H0z"/></clipPath><clipPath id="f"><path fill="#fff" d="M4.5 1.5h18.75v15.75H4.5z"/></clipPath></defs></svg>