<svg xmlns="http://www.w3.org/2000/svg" fill="none" viewBox="0 0 24 18"><g clip-path="url(#a)"><mask id="b" width="24" height="18" x="0" y="0" maskUnits="userSpaceOnUse" style="mask-type:luminance"><path fill="#fff" d="M0 0h24v18H0z"/></mask><g mask="url(#b)"><path fill="#FECA00" fill-rule="evenodd" d="M0 0v18h24V0H0Z" clip-rule="evenodd"/><mask id="c" width="24" height="18" x="0" y="0" maskUnits="userSpaceOnUse" style="mask-type:luminance"><path fill="#fff" fill-rule="evenodd" d="M0 0v18h24V0H0Z" clip-rule="evenodd"/></mask><g fill-rule="evenodd" clip-rule="evenodd" mask="url(#c)"><path fill="#3CA5D9" d="M0 0v10.5h24V0H0Z"/><path fill="#5A962A" d="M0 13.5V18h24v-4.5H0Z"/><path fill="#FFDC17" d="M18.061 8.9a3.097 3.097 0 0 1-.139 0l-.453 1.48-.096-1.542a2.996 2.996 0 0 1-.136-.032l-.785 1.335.265-1.52a2.954 2.954 0 0 1-.126-.062l-1.074 1.118.612-1.417a2.984 2.984 0 0 1-.11-.09l-1.303.842.924-1.236a2.885 2.885 0 0 1-.086-.115l-1.463.521 1.186-.99a2.95 2.95 0 0 1-.059-.132l-1.54.173 1.382-.693a2.943 2.943 0 0 1-.026-.143l-1.538-.183L15 5.856c.002-.05.005-.098.009-.146l-1.453-.529 1.547-.005c.013-.047.027-.094.042-.14l-1.29-.846 1.507.349a2.81 2.81 0 0 1 .075-.127l-1.059-1.117 1.387.683c.033-.036.066-.072.101-.106l-.77-1.33 1.19.982a3 3 0 0 1 .123-.08l-.44-1.47.93 1.227.138-.05-.085-1.53.62 1.407a3.52 3.52 0 0 1 .144-.016l.275-1.512.275 1.513c.048.004.096.01.143.016l.62-1.409-.085 1.535c.046.016.091.032.136.05l.932-1.231-.441 1.476c.04.025.08.05.12.078l1.195-.986-.774 1.336.098.103 1.394-.686-1.066 1.124c.025.04.05.08.072.122l1.516-.35-1.298.85c.014.045.028.09.04.135l1.558.005-1.463.533.008.14 1.516.36-1.55.184a2.825 2.825 0 0 1-.024.137l1.392.698-1.55-.175a2.87 2.87 0 0 1-.057.128l1.193.996-1.47-.524a2.855 2.855 0 0 1-.084.11l.93 1.244-1.31-.846c-.035.03-.07.06-.106.088l.615 1.423-1.077-1.122a3.05 3.05 0 0 1-.124.062l.266 1.524-.786-1.337-.135.032-.096 1.544-.454-1.48Zm-.101-1.09c1.051 0 1.902-.84 1.902-1.874 0-1.035-.851-1.875-1.902-1.875-1.05 0-1.901.84-1.901 1.875 0 1.035.851 1.874 1.901 1.874Zm1.095-1.82a1.072 1.072 0 1 1-2.144 0 1.072 1.072 0 0 1 2.143 0Z"/></g></g></g><path stroke="#000" stroke-opacity=".1" stroke-width=".5" d="M.25.25h23.5v17.5H.25z"/><defs><clipPath id="a"><path fill="#fff" d="M0 0h24v18H0z"/></clipPath></defs></svg>