<svg xmlns="http://www.w3.org/2000/svg" fill="none" viewBox="0 0 24 18"><g clip-path="url(#a)"><path fill="#fff" d="M0 0h24v18H0z"/><path fill="#DFDFDF" d="M8.318 15.922c-.5.15-1.22.46-1.507.634-.093.06-.085.128.06.385.1.166.202.309.22.309.025 0 .304-.113.617-.257.314-.135.714-.315.898-.347.14-.024.269-.047.348-.077.032.07.012.03.07.14.085.156.032.152.177.195.153.046.53-.137.53-.137.44-.136.686-.151 2.269-.151 1.583 0 1.828.015 2.268.159l.4.12c.045.013.07.023.117.013.044-.01.089-.069.11-.105 0 0 .097-.208.122-.282.084.037.238.084.386.125.177.053.575.212.888.347.314.144.593.257.618.257.017 0 .119-.143.22-.31.204-.354.22-.324-.516-.664-.982-.452-1.964-.656-2.057-.437-.017.041-.031.066-.054.12-.099-.02-.356-.075-.615-.113-.795-.128-2.98-.128-3.775 0-.258.038-.432.1-.578.137-.083-.147-.066-.089-.083-.13-.067-.151-.515-.127-1.133.069Z"/><path fill="#171796" d="M9.037 6.595c-.017.246.034.42.168.552.06.063.11.138.11.138s-.068.075-.124.132a.657.657 0 0 0-.188.482c0 .186.054.315.199.483 0 0 .122.062.12.138-.004.077-.131.153-.131.153-.262.306-.253.657.02.948l.116.129h5.352l.13-.147c.254-.285.254-.594.004-.92 0 0-.126-.09-.128-.166-.002-.075.12-.15.12-.15.26-.33.255-.633-.015-.95-.122-.141-.125-.168-.028-.234.156-.111.253-.486.181-.714-.105-.342-.557-.57-.832-.42a1.836 1.836 0 0 0-.23.165.705.705 0 0 1-.162.117.76.76 0 0 1-.151-.12c-.276-.25-.608-.28-.884.003 0 0-.039.15-.097.156-.058.005-.14-.135-.14-.135-.28-.28-.633-.267-.92.027 0 0-.04.123-.105.108s-.118-.16-.118-.16c-.168-.161-.274-.158-.468-.161-.11-.002-.313.025-.434.116-.122.091-.1.2-.128.193-.07-.019-.148-.132-.148-.132-.273-.246-.492-.288-.756-.141a.599.599 0 0 0-.333.51Z"/><path fill="#D42E12" d="M9.214 10.869s.109.053.105.121c-.004.068-.12.136-.12.136a1.12 1.12 0 0 0-.159.233.684.684 0 0 0 .157.706c.108.109.11.153.008.283-.045.056-.1.136-.12.177-.213.42.106.945.578.945.188 0 .33-.062.458-.204.102-.112.156-.115.247-.014.134.153.31.247.458.247.173 0 .281-.056.457-.23 0 0 .07-.136.134-.136.064.001.122.14.122.14.265.294.532.303.888.023 0 0 .078-.114.145-.112.066.001.125.118.125.118.156.141.273.197.426.197.154 0 .267-.062.447-.245 0 0 .092-.138.147-.147.056-.009.114.106.114.106.219.204.338.269.498.269.164 0 .281-.056.446-.21.154-.145.236-.313.216-.452-.02-.15-.15-.425-.247-.52 0 0-.097-.008-.083-.082.015-.074.128-.15.128-.15.279-.34.282-.603.006-.94 0 0-.115-.066-.114-.141.002-.075.12-.15.12-.15.267-.328.264-.632-.006-.93l-.145-.157-2.661.003-2.662.003-.119.139c-.279.322-.276.65.006.974Z"/><path fill="#E9D315" fill-rule="evenodd" d="M13.365 10.216a.26.26 0 0 1 .259.204l.004.044v.461l.552-.292a.252.252 0 0 1 .34.1.246.246 0 0 1-.065.312l-.038.025-.462.245.462.246.038.024a.246.246 0 0 1 .064.311.252.252 0 0 1-.34.102l-.551-.293v.513a.256.256 0 0 1-.263.248.259.259 0 0 1-.258-.203l-.004-.045v-.45l-.434.23a.253.253 0 0 1-.34-.101.246.246 0 0 1 .065-.312l.038-.024.462-.246-.462-.245-.038-.025a.246.246 0 0 1-.065-.311.253.253 0 0 1 .34-.101l.434.23v-.399c0-.137.117-.248.262-.248Zm-2.549 0c.129 0 .236.088.258.204l.005.044v.461l.551-.292a.253.253 0 0 1 .34.1.246.246 0 0 1-.064.312l-.038.025-.463.245.463.246.038.024a.246.246 0 0 1 .064.311.253.253 0 0 1-.34.102l-.551-.293v.513a.256.256 0 0 1-.263.248.259.259 0 0 1-.258-.203l-.004-.045v-.45l-.434.23a.252.252 0 0 1-.34-.101.246.246 0 0 1 .064-.312l.038-.024.463-.246-.463-.245-.038-.025a.246.246 0 0 1-.064-.311.252.252 0 0 1 .34-.101l.434.23v-.399c0-.137.117-.248.262-.248Z" clip-rule="evenodd"/><path stroke="#000" stroke-width=".3" d="M8.102 9.642h.15v.067c-.085-.003-.148-.065-.15-.066v.513l.002 1.2c0 .911.002 1.94.005 2.408a.335.335 0 0 0 .085.253.597.597 0 0 0 .114.097c.014.01.027.02.044.035a.943.943 0 0 0 .33.136c.14.036.317.068.52.092a7.6 7.6 0 0 0 1.46.023c.223.003.385.046.507.105.124.06.216.14.294.224.04.043.075.087.11.13l.003.004c.034.041.07.086.108.125.077.08.18.162.33.162a.44.44 0 0 0 .328-.165c.037-.04.073-.086.106-.128l.002-.003c.033-.043.066-.086.103-.128a.905.905 0 0 1 .275-.222c.116-.059.27-.102.487-.104a14.65 14.65 0 0 0 1.534-.042c.197-.019.366-.043.498-.074a.77.77 0 0 0 .316-.131l.005-.004.019-.016a.909.909 0 0 0 .056-.053c.04-.04.1-.11.127-.191a.59.59 0 0 0 .03-.247l-.002-.01V5.1H8.102v4.542Z"/><path fill="#fff" d="M11.152 7.4c-.202.374-.21.542-.043.843.13.23.284.377.493.47.548.248 1.248.065 1.523-.396.17-.283.15-.757-.037-.963l-.05-.056-.05.164c-.067.233-.135.35-.271.475-.256.234-.607.286-.97.142-.28-.113-.394-.269-.499-.704l-.026-.108-.07.132Z"/><path fill="#FF2500" fill-rule="evenodd" d="M13.859 2.625c0 .65-.468 1.125-1.125 1.125-.658 0-1.122-.476-1.122-1.125 0-.653.464-1.125 1.122-1.125.657 0 1.125.472 1.125 1.125Zm-8.967 1.09V2.199l.67 1.516h.293l.654-1.516v1.516h.396v-2.18h-.46l-.733 1.676-.74-1.676H4.5v2.18h.392Zm2.778 0 .25-.604h.93l.25.604h.42l-.935-2.18H8.19l-.935 2.18h.416Zm.713-1.729-.333.806h.666l-.333-.806Zm2.306 1.729v-.87l.884-1.31h-.436l-.642.976-.646-.976h-.448l.88 1.31v.87h.408Zm2.045-.295c-.428 0-.706-.334-.706-.795s.278-.795.706-.795c.428 0 .709.334.709.795s-.281.795-.71.795Zm2.464-1.558v1.853h-.412V1.862h-.808v-.327h2.028v.327h-.808Zm2.267 1.853V1.862h.808v-.327h-2.029v.327h.808v1.853h.413Zm2.785-.33v.33h-1.589v-2.18h1.589v.327h-1.185v.575h1.074v.323h-1.074v.624h1.185Z" clip-rule="evenodd"/><path fill="#DFDFDF" fill-rule="evenodd" stroke="#000" stroke-width=".3" d="M20.082 14.1s-.255-.502.39-.75.96.075 1.244.376c.285.3.253 1.206.253 1.206l-.702 1.123-2.153.445-.858-.445L17.25 14.1l.075-1.919s.102-.735.102-.887c0-.152.467-1.332.467-1.332l.443-.438 1.252-.666.589-.295.732-.925-.081-.736-.834 1.062h-.707l-.735.308-.297.28-.362.011-.141-.29.395-.635.596-.6-.274-.508.406-.185-.078-.28.45.28.34-.28.065-.257-.777-.417s.76-.32 1.119-.286c.358.033.696.455.696.455l1.026-.17s-.275.675-.186.675h.645l-.207.837h.794l-.587.645.459.251-.698.474.698.47-.649.426.366.706.575-.35.323.438-.486 1.08-.795.563-.756.19-.74.193-.295.193-.183-.739-1.251.858-.65 1.345.191 1.222.459.626.845.303 1.102-.207.576-.702.138-.716s-.334-.486-.576-.445c-.242.04-.747.374-.747.374Z" clip-rule="evenodd"/><path fill="#000" d="m18.812 9.168-.028.3c.866.08 1.439.036 1.738-.15l.06-.042-.187-.235c-.182.145-.657.199-1.406.142l-.177-.015Zm-1.004.866-.028.299c.866.08 1.438.037 1.738-.15l.06-.042-.187-.234c-.182.144-.657.198-1.406.142l-.177-.015Zm-.241.807-.05.296c.51.086.83.046.938-.177l.022-.06-.288-.081c-.015.052-.177.084-.506.04l-.116-.018Z"/><path fill="#000" fill-rule="evenodd" d="M19.313 7.125a.187.187 0 1 1 0-.375.187.187 0 0 1 0 .375Z" clip-rule="evenodd"/><path fill="#DFDFDF" fill-rule="evenodd" stroke="#000" stroke-width=".3" d="M3.918 14.1s.255-.502-.39-.75-.96.075-1.244.376c-.285.3-.253 1.206-.253 1.206l.702 1.123 2.153.445.858-.445L6.75 14.1l-.075-1.919s-.102-.735-.102-.887c0-.152-.467-1.332-.467-1.332l-.443-.438-1.252-.666-.589-.295-.732-.925.081-.736.834 1.062h.707l.735.308.297.28.362.011.141-.29-.394-.635-.597-.6.274-.508-.406-.185.078-.28-.45.28-.34-.28-.065-.257.777-.417s-.76-.32-1.119-.286c-.358.033-.696.455-.696.455l-1.025-.17s.274.675.185.675h-.645l.207.837h-.795l.588.645-.459.251.698.474-.698.47.649.426-.366.706-.575-.35-.323.438.486 1.08.795.563.756.19.74.193.295.193.183-.739 1.251.858.65 1.345-.191 1.222-.459.626-.845.303-1.102-.207-.576-.702-.138-.716s.334-.486.576-.445c.242.04.747.374.747.374Z" clip-rule="evenodd"/><path fill="#000" d="m5.188 9.168.028.3c-.866.08-1.438.036-1.738-.15l-.06-.042.187-.235c.182.145.657.199 1.406.142l.177-.015Zm1.004.866.028.299c-.866.08-1.439.037-1.738-.15l-.06-.042.187-.234c.182.144.657.198 1.406.142l.177-.015Zm.241.807.05.296c-.51.086-.83.046-.938-.177l-.022-.06.288-.081c.015.052.177.084.506.04l.116-.018Z"/><path fill="#000" fill-rule="evenodd" d="M4.688 7.125a.188.188 0 1 0 0-.375.188.188 0 0 0 0 .375Z" clip-rule="evenodd"/></g><path stroke="#000" stroke-opacity=".1" stroke-width=".5" d="M.25.25h23.5v17.5H.25z"/><defs><clipPath id="a"><path fill="#fff" d="M0 0h24v18H0z"/></clipPath></defs></svg>