<svg xmlns="http://www.w3.org/2000/svg" fill="none" viewBox="0 0 24 18"><g clip-path="url(#a)"><mask id="b" width="24" height="18" x="0" y="0" maskUnits="userSpaceOnUse" style="mask-type:luminance"><path fill="#fff" d="M0 0h24v18H0z"/></mask><g mask="url(#b)"><path fill="#5196ED" fill-rule="evenodd" d="M0 0v18h24V0H0Z" clip-rule="evenodd"/><mask id="c" width="24" height="18" x="0" y="0" maskUnits="userSpaceOnUse" style="mask-type:luminance"><path fill="#fff" fill-rule="evenodd" d="M0 0v18h24V0H0Z" clip-rule="evenodd"/></mask><g mask="url(#c)"><path fill="#F5F8FB" fill-rule="evenodd" d="M6.538 5.92s1.548.85 1.764 1.085c.215.235.56 1.097 1.098.61.538-.488 1.076-.11 1.076-.886 0-.777.803-2.58 1.968-2.128 1.166.451 2.125.169 2.393.35.27.18.915 1.078 1.417 1.078s.753.524.79 1.283c.035.759-.162.831.304.922.466.09.646.433.413.885-.233.452-.216.253-.18.723.036.47-.466 3.241-2.008 3.512-1.543.271-3.005.127-2.61-.397s.94-1.128.134-1.254c-.807-.127-1.316-.234-2.123-.018-.807.217-1.65.56-2.153-.09-.502-.65-.394-1.12-.806-1.428-.413-.307-.915-.253-.502-.85.412-.595.753-.373.412-.843-.34-.47-1.627-.674-1.627-1.144 0-.47-.818-1.5.24-1.41Z" clip-rule="evenodd"/></g></g></g><rect width="23" height="17" x=".5" y=".5" stroke="#000" stroke-opacity=".1" rx="1.5"/><defs><clipPath id="a"><rect width="24" height="18" fill="#fff" rx="2"/></clipPath></defs></svg>