<svg xmlns="http://www.w3.org/2000/svg" fill="none" viewBox="0 0 24 18"><g clip-path="url(#a)"><mask id="b" width="24" height="18" x="0" y="0" maskUnits="userSpaceOnUse" style="mask-type:luminance"><path fill="#fff" d="M0 0h24v18H0z"/></mask><g mask="url(#b)"><path fill="#63B3E1" fill-rule="evenodd" d="M0 0v18h24V0H0Z" clip-rule="evenodd"/><mask id="c" width="24" height="18" x="0" y="0" maskUnits="userSpaceOnUse" style="mask-type:luminance"><path fill="#fff" fill-rule="evenodd" d="M0 0v18h24V0H0Z" clip-rule="evenodd"/></mask><g fill="#F7FCFF" fill-rule="evenodd" clip-rule="evenodd" mask="url(#c)"><path d="m12 5.475-1.322.695.252-1.472-1.07-1.043 1.479-.215L12 2.1l.661 1.34 1.479.215-1.07 1.043.252 1.472L12 5.475Zm0 9-1.322.695.252-1.472-1.07-1.043 1.479-.215L12 11.1l.661 1.34 1.479.215-1.07 1.043.252 1.472L12 14.475Zm-4.65-4.35-1.322.695.252-1.472-1.07-1.043 1.48-.215.661-1.34.661 1.34 1.479.215-1.07 1.043.253 1.472-1.323-.695Zm9.15 0-1.322.695.252-1.472-1.07-1.043 1.479-.215.661-1.34.661 1.34 1.479.215-1.07 1.043.253 1.472-1.323-.695Z"/></g></g></g><path stroke="#000" stroke-opacity=".1" stroke-width=".5" d="M.25.25h23.5v17.5H.25z"/><defs><clipPath id="a"><path fill="#fff" d="M0 0h24v18H0z"/></clipPath></defs></svg>