<svg xmlns="http://www.w3.org/2000/svg" fill="none" viewBox="0 0 24 18"><g clip-path="url(#a)"><mask id="b" width="24" height="18" x="0" y="0" maskUnits="userSpaceOnUse" style="mask-type:luminance"><path fill="#fff" d="M0 0h24v18H0z"/></mask><g fill-rule="evenodd" clip-rule="evenodd" mask="url(#b)"><path fill="#55BA07" d="M0 12h24v6H0z"/><path fill="#F7FCFF" d="M0 6h24v6H0z"/><path fill="#3D58DB" d="M0 0h24v6H0z"/><path fill="#1D1D1D" d="M11.438 6.18c-.393.105-.6.376-.6.856 0 .548.27 1.062.6 1.327zm.937 2.168c.32-.269.579-.773.579-1.31 0-.466-.204-.736-.579-.848zM12.343 5.8c.614.137 1.058.555 1.058 1.234 0 .494-.235 1.094-.599 1.506l1.825 1.79.45-.148.673 1.02s-1.7.799-3.8.799-3.7-.799-3.7-.799l.572-.871.463.151 1.693-1.91c-.38-.413-.627-1.032-.627-1.538 0-.703.476-1.127 1.124-1.247a.469.469 0 0 1 .868.013m-3.342 4.923-.19.265h.37zm.217.369-.327.066.327.114zm.167-.38.167.39.415-.114-.082-.157zm.903.777-.61-.12-.07-.117.46-.1zm.035-.558.19.34.416-.126-.116-.153zm.342.626-.075-.14.461-.124.266.325zm.86-.234.595-.157-.073-.135h-.771zm.214.3-.095-.145.571-.187.303.333zm.722-.581.182.223.495-.171-.062-.117zm1.072.464-.664.074-.098-.165.503-.165zm-.042-.572.186.229.447-.23-.124-.068zm.386.511-.08-.124.424-.255.216.255zm.422-.712.27.257.261-.257-.083-.104zm.427.346.22-.218.158.218-.378.121z"/></g></g><rect width="23" height="17" x=".5" y=".5" stroke="#000" stroke-opacity=".1" rx="1.5"/><defs><clipPath id="a"><rect width="24" height="18" fill="#fff" rx="2"/></clipPath></defs></svg>