<svg xmlns="http://www.w3.org/2000/svg" fill="none" viewBox="0 0 24 18"><g clip-path="url(#a)"><mask id="b" width="24" height="18" x="0" y="0" maskUnits="userSpaceOnUse" style="mask-type:luminance"><path fill="#fff" d="M0 0h24v18H0z"/></mask><g mask="url(#b)"><path fill="#E31D1C" fill-rule="evenodd" d="M0 0v18h24V0z" clip-rule="evenodd"/><mask id="c" width="24" height="18" x="0" y="0" maskUnits="userSpaceOnUse" style="mask-type:luminance"><path fill="#fff" fill-rule="evenodd" d="M0 0v18h24V0z" clip-rule="evenodd"/></mask><g mask="url(#c)"><path fill="#2E42A5" fill-rule="evenodd" d="M0 9v9h24V9z" clip-rule="evenodd"/></g><path fill="#F7FCFF" fill-rule="evenodd" d="M0-1.5v21L15 9z" clip-rule="evenodd"/><mask id="d" width="15" height="22" x="0" y="-2" maskUnits="userSpaceOnUse" style="mask-type:luminance"><path fill="#fff" fill-rule="evenodd" d="M0-1.5v21L15 9z" clip-rule="evenodd"/></mask><g mask="url(#d)"><path fill="#FBCD17" fill-rule="evenodd" d="M6.095 7.642c1.077 0 1.95-.704 1.95-1.571 0-.868-.873-1.571-1.95-1.571-1.078 0-1.951.703-1.951 1.57s.873 1.572 1.95 1.572" clip-rule="evenodd"/><path fill="#DA610A" fill-rule="evenodd" d="M6.265 4.789c-.159 0-.272.103-.272.257v.017a.3.3 0 0 0-.014.087.28.28 0 0 0 .092.213.2.2 0 0 1 .006.042c-.004-.013-.02-.025-.049-.046a1.6 1.6 0 0 1-.218-.188c-.152-.154-.267-.215-.41-.19a.7.7 0 0 0-.136.042.5.5 0 0 1-.293.01q-.575-.109-1.257.209l.158.34q.581-.269 1.029-.18a.87.87 0 0 0 .49-.026l.072-.026c-.005 0-.002.004.017.022l.063.062q.065.065.134.119c-.088.023-.084.04-.068.097q.012.034.02.094c.011.09-.007.136.009.158.017.024.077.02.266.01q.078-.003.2-.014c.155-.015.331-.037.44-.054.105-.018.133-.024.177-.056l.04-.049a18 18 0 0 1 1.228-.138c.009 0 .009 0 .055-.01l.031-.013q.003 0 0 0l.092-.218-.095-.114a.4.4 0 0 0-.071-.02l-.013-.001h-.092a1 1 0 0 1-.182-.018l-.066-.013c-.293-.053-.564-.053-1.139.033l-.032-.025c.093-.016.205-.027.325-.033l.112-.005h.018l-.003-.375zm-.31 1.086.036-.008.035-.007-.022.004z" clip-rule="evenodd"/><path fill="#56C6F5" stroke="#E31D1C" d="M6.085 6.559c.648-.107 1.085-.105 1.354-.046l.106.028c.298.1.617.093.944.01q-.141.706-.142 1.348c0 .561.109 1.015.205 1.402.098.395.175.701.175 1.053 0 .289-.093.417-.205.496-.142.1-.4.177-.818.177-.6 0-1.163.157-1.683.458l-.016-.011-.018.011a3.3 3.3 0 0 0-1.681-.458c-.418 0-.677-.076-.82-.177-.11-.079-.204-.207-.204-.496 0-.352.078-.658.176-1.053.096-.387.204-.84.204-1.402q-.002-.64-.143-1.347c.286.072.567.087.833.022l.112-.033c.222-.074.607-.098 1.195-.021l.265.039.08.013z"/><path fill="#F7FCFF" fill-rule="evenodd" d="m6.589 7.968-.579-.514-.578.514h.171v.297l-.9.56v1.372h-.171v.257h3v-.257h-.215V8.825l-.942-.587v-.27z" clip-rule="evenodd"/><path fill="#3B3B3B" d="m6.01 7.454.083-.094-.083-.073-.083.073zm.579.514v.125h.329l-.246-.218zm-1.157 0-.083-.093-.246.218h.329zm.171 0h.125v-.125h-.125zm0 .297.066.106.06-.037v-.07zm-.9.56-.066-.106-.059.037v.07zm0 1.372v.125h.125v-.125zm-.171 0v-.125h-.125v.125zm0 .257h-.125v.125h.125zm3 0v.125h.125v-.125zm0-.257h.125v-.125h-.125zm-.215 0h-.125v.125h.125zm0-1.372h.125v-.07l-.058-.036zm-.942-.587H6.25v.07l.059.036zm0-.27v-.125H6.25v.125zm-.448-.42.579.514.166-.187-.579-.515zm-.412.514.578-.515-.166-.187-.578.515zm.088-.219h-.171v.25h.171zm-.125.125v.297h.25v-.297zm.06.19-.9.561.131.212.9-.56zm-.96.667v1.372h.25V8.825zm.125 1.247h-.171v.25h.171zm-.296.125v.257h.25v-.257zm.125.382h.171v-.25h-.171zm.171 0h2.614v-.25H4.703zm2.614 0h.215v-.25h-.215zm.34-.125v-.257h-.25v.257zm-.125-.382h-.215v.25h.215zm-.09.125V8.825h-.25v1.372zm-.058-1.478-.943-.587-.132.212.942.587zM6.5 8.238v-.27h-.25v.27zm.089-.395h-.214v.25h.214z"/><path fill="#FBCD17" d="M5.964 12.765c.796 0 1.344-.087 1.626-.235a.38.38 0 0 1 .341-.191c.62.023 1.1-.239 1.478-.812.408-.62.49-1.501.224-2.658l.674-.155c.305 1.325.205 2.394-.32 3.193-.47.716-1.112 1.098-1.895 1.124-.4.296-1.101.427-2.128.427-.993 0-1.73-.193-2.202-.603-1.072-.253-1.753-.681-2.021-1.315-.286-.676-.286-1.614-.02-2.823l.676.15c-.238 1.08-.238 1.885-.019 2.403.153.362.598.658 1.35.863l.7.15-.033.176c.341.2.863.306 1.57.306"/><path fill="#73BE4A" fill-rule="evenodd" d="M3.575 6.882a.375.375 0 0 0 .208.488l.012.005-.018.038a.376.376 0 0 0 .359.538l-.009.042c-.077.379.36.568.6.375a.36.36 0 0 0 .352-.289l.043-.18.017.005c.354.107.593-.283.437-.547a.374.374 0 0 0-.439-.54l-.387.12a.4.4 0 0 0-.162-.009.4.4 0 0 0-.142-.1l-.383-.154a.375.375 0 0 0-.488.208M5.122 7.9l.091-.388-.473.273z" clip-rule="evenodd"/><path fill="#FBCD17" fill-rule="evenodd" d="M4.654 7.857a.375.375 0 1 0 0-.75.375.375 0 0 0 0 .75" clip-rule="evenodd"/><path fill="#F7FCFF" fill-rule="evenodd" d="M7.68 7.555c-.005-.252-.033-.828-.161-.828-.13 0-.149.583-.151.832-.222.073-.389.263-.389.263h1.104s-.174-.198-.402-.267" clip-rule="evenodd"/><path fill="#73BE4A" d="m1.913 9.426.185.033q-.224 1.29-.005 1.843c.168.428 1.16 1.002 1.44 1.002v.187c-.353 0-1.416-.615-1.615-1.12q-.239-.61-.005-1.945m8.123-.044-.185.03q.202 1.21-.087 1.887c-.232.544-1.127 1.237-1.362 1.237v.188c.316 0 1.275-.742 1.534-1.351q.312-.734.1-1.991m-5.241 3.686.035-.184q.898.172 1.22.172.32 0 1.153-.172l.038.184q-.848.175-1.191.175t-1.255-.175"/></g></g></g><rect width="23" height="17" x=".5" y=".5" stroke="#000" stroke-opacity=".1" rx="1.5"/><defs><clipPath id="a"><rect width="24" height="18" fill="#fff" rx="2"/></clipPath></defs></svg>