<svg xmlns="http://www.w3.org/2000/svg" fill="none" viewBox="0 0 24 18"><g clip-path="url(#a)"><mask id="b" width="24" height="18" x="0" y="0" maskUnits="userSpaceOnUse" style="mask-type:luminance"><path fill="#fff" d="M0 0h24v18H0z"/></mask><g fill-rule="evenodd" clip-rule="evenodd" mask="url(#b)"><path fill="#C51918" d="M0 0h24v16a2 2 0 0 1-2 2H2a2 2 0 0 1-2-2V0Z"/><path fill="#E31D1C" d="M0 0h24v18H0V0Z"/><path fill="#579D20" d="M16.861 14.72 12.124 2.025h-.205L7.346 14.72l4.749-2.854 4.766 2.854ZM11.6 6.166l.508-1.978.527 2.035 1.514 4.243.889 2.053-1.92-1.352-1.024-.613-1.008.606-1.875 1.36.867-2.097L11.6 6.166Z"/><path fill="#579D20" d="m9.497 10.105 2.622 1.743 2.447-1.743 4.646-3.928H4.79l4.708 3.928Zm.054-1.5-1.783-1.09h8.418l-1.531.969-2.547 1.932-2.557-1.81Z"/></g></g><path stroke="#000" stroke-opacity=".1" stroke-width=".5" d="M.25.25h23.5v17.5H.25z"/><defs><clipPath id="a"><path fill="#fff" d="M0 0h24v18H0z"/></clipPath></defs></svg>