<svg xmlns="http://www.w3.org/2000/svg" fill="none" viewBox="0 0 24 18"><g clip-path="url(#a)"><mask id="b" width="24" height="18" x="0" y="0" maskUnits="userSpaceOnUse" style="mask-type:luminance"><path fill="#fff" d="M0 0h24v18H0z"/></mask><g mask="url(#b)"><path fill="#F7FCFF" fill-rule="evenodd" d="M0 0v18h24V0z" clip-rule="evenodd"/><mask id="c" width="24" height="18" x="0" y="0" maskUnits="userSpaceOnUse" style="mask-type:luminance"><path fill="#fff" fill-rule="evenodd" d="M0 0v18h24V0z" clip-rule="evenodd"/></mask><g fill-rule="evenodd" clip-rule="evenodd" mask="url(#c)"><path fill="#272727" d="M0 0v6h24V0z"/><path fill="#093" d="M0 12v6h24v-6z"/></g><path fill="#E31D1C" fill-rule="evenodd" d="M0 0v18l15-9z" clip-rule="evenodd"/><mask id="d" width="15" height="18" x="0" y="0" maskUnits="userSpaceOnUse" style="mask-type:luminance"><path fill="#fff" fill-rule="evenodd" d="M0 0v18l15-9z" clip-rule="evenodd"/></mask><g mask="url(#d)"><path fill="#F7FCFF" fill-rule="evenodd" d="m6.751 10.403-1.403.847.32-1.653L4.5 8.36l1.582-.067.67-1.543.669 1.543H9L7.834 9.597l.351 1.653z" clip-rule="evenodd"/></g></g></g><rect width="23" height="17" x=".5" y=".5" stroke="#000" stroke-opacity=".1" rx="1.5"/><defs><clipPath id="a"><rect width="24" height="18" fill="#fff" rx="2"/></clipPath></defs></svg>