<svg xmlns="http://www.w3.org/2000/svg" fill="none" viewBox="0 0 24 18"><g clip-path="url(#a)"><mask id="b" width="24" height="18" x="0" y="0" maskUnits="userSpaceOnUse" style="mask-type:luminance"><path fill="#fff" d="M0 0h24v18H0z"/></mask><g mask="url(#b)"><path fill="#EF0000" fill-rule="evenodd" d="M6 0h18v18H6z" clip-rule="evenodd"/><path fill="#2F8D00" fill-rule="evenodd" d="M0 0h9v18H0z" clip-rule="evenodd"/><mask id="c" width="12" height="12" x="3" y="3" maskUnits="userSpaceOnUse" style="mask-type:luminance"><path fill="#fff" fill-rule="evenodd" d="M8.929 14.855c-3.196 0-5.786-2.621-5.786-5.855s2.59-5.855 5.786-5.855S14.714 5.766 14.714 9s-2.59 5.855-5.785 5.855" clip-rule="evenodd"/></mask><g fill="#FFE017" mask="url(#c)"><path fill-rule="evenodd" d="M8.572 3h.75v2.024h-.75zm0 10.12h.75V15h-.75z" clip-rule="evenodd"/><path d="m3.236 9.303-.21-.538q3.469-1.386 5.246-1.788 2.608-.59 5.73-.875l.052.576q-3.087.28-5.657.863-1.727.39-5.16 1.762"/><path d="m14.356 5.748-.17.552q-2.626-.827-4.269-.716l-.038-.577q1.762-.117 4.477.74m.605 3.088-.323.477c-.892-.62-1.99-.93-3.303-.93v-.578c1.423 0 2.635.342 3.626 1.03"/><path d="m14.477 9.008.147.559q-2.882.78-5.413.885-2.548.105-5.941-.887l.158-.556q3.312.967 5.76.865 2.464-.1 5.289-.866"/><path d="m14.259 11.727-.903.926Q10.779 10.08 8.83 8.975 6.853 7.85 3.675 6.695l.434-1.224q3.27 1.187 5.352 2.37c1.41.8 3.006 2.096 4.798 3.886m-10.165.525-.342-.464q.073-.056.25-.172c.194-.126.41-.252.64-.37.639-.323 1.278-.525 1.888-.543l.09-.002v.578l-.072.002c-.515.015-1.08.193-1.65.482a6.4 6.4 0 0 0-.804.489"/><path d="m4.36 12.452.143-.56q2.86.753 4.4.752c1.02 0 2.54-.295 4.55-.887l.159.556c-2.057.605-3.623.91-4.71.91q-1.623 0-4.543-.771M3.617 7.27l.905-.923 1.326 1.33-.905.924z"/><path d="m11.127 11.886.673-1.109 2.103 1.309-.673 1.108z"/></g><path fill="#F9E813" fill-rule="evenodd" d="M3.143 9c0 3.234 2.59 5.855 5.786 5.855S14.714 12.234 14.714 9s-2.59-5.855-5.785-5.855S3.143 5.766 3.143 9M14 9.072c0 2.795-2.238 5.06-5 5.06s-5-2.265-5-5.06 2.239-5.06 5-5.06 5 2.266 5 5.06" clip-rule="evenodd"/><path fill="#fff" d="M5.743 5.389v4.695q.463 2.788 3.124 2.788t3.124-2.788V5.39z"/><path fill="#C51918" d="M5.314 4.955h7.105v5.166l-.006.035c-.343 2.064-1.56 3.15-3.546 3.15-1.987 0-3.204-1.086-3.547-3.15l-.006-.035z"/><path fill="#F7FCFF" d="M6.939 6.533h3.855v3.33s-.286 1.72-1.928 1.72-1.927-1.72-1.927-1.72z"/><path fill="#F9E813" fill-rule="evenodd" d="M6 5.313h.542v.362H6z" clip-rule="evenodd"/><path fill="#060101" fill-rule="evenodd" d="M5.714 5.458h1v.18h-1z" clip-rule="evenodd"/><path fill="#F9E813" fill-rule="evenodd" d="M5.714 5.602h.543v.181h-.543zm.572 0h.542v.181h-.542zm-.572.434h.362v.542h-.362zm.715 0h.361v.542h-.36zm-.286 0h.18v.542h-.18z" clip-rule="evenodd"/><path fill="#060101" fill-rule="evenodd" d="M5.714 5.892h1v.18h-1zm0 .433h1v.181h-1z" clip-rule="evenodd"/><path fill="#F9E813" fill-rule="evenodd" d="M5.857 5.747h.181v.18h-.18zm.572 0h.18v.18h-.18zm-.286-.145h.18v.362h-.18zm2.571-.289h.543v.362h-.543z" clip-rule="evenodd"/><path fill="#060101" fill-rule="evenodd" d="M8.429 5.458h1v.18h-1z" clip-rule="evenodd"/><path fill="#F9E813" fill-rule="evenodd" d="M8.429 5.602h.542v.181h-.542zm.571 0h.542v.181H9zm-.571.434h.361v.542h-.36zm.714 0h.362v.542h-.362zm-.286 0h.181v.542h-.18z" clip-rule="evenodd"/><path fill="#060101" fill-rule="evenodd" d="M8.429 5.892h1v.18h-1zm0 .433h1v.181h-1z" clip-rule="evenodd"/><path fill="#F9E813" fill-rule="evenodd" d="M8.572 5.747h.18v.18h-.18zm.571 0h.18v.18h-.18zm-.286-.145h.181v.362h-.18zm2.429-.289h.542v.362h-.542z" clip-rule="evenodd"/><path fill="#060101" fill-rule="evenodd" d="M11 5.458h1v.18h-1z" clip-rule="evenodd"/><path fill="#F9E813" fill-rule="evenodd" d="M11 5.602h.542v.181H11zm.571 0h.543v.181h-.543zM11 6.036h.361v.542H11zm.714 0h.362v.542h-.362zm-.285 0h.18v.542h-.18z" clip-rule="evenodd"/><path fill="#060101" fill-rule="evenodd" d="M11 5.892h1v.18h-1zm0 .433h1v.181h-1z" clip-rule="evenodd"/><path fill="#F9E813" fill-rule="evenodd" d="M11.143 5.747h.18v.18h-.18zm.571 0h.181v.18h-.18zm-.285-.145h.18v.362h-.18zm-.143 2.314h.542v.361h-.542z" clip-rule="evenodd"/><path fill="#060101" fill-rule="evenodd" d="M11 8.06h1v.181h-1z" clip-rule="evenodd"/><path fill="#F9E813" fill-rule="evenodd" d="M11 8.205h.542v.18H11zm.571 0h.543v.18h-.543zM11 8.639h.361v.542H11zm.714 0h.362v.542h-.362zm-.285 0h.18v.542h-.18z" clip-rule="evenodd"/><path fill="#060101" fill-rule="evenodd" d="M11 8.494h1v.18h-1zm0 .434h1v.18h-1z" clip-rule="evenodd"/><path fill="#F9E813" fill-rule="evenodd" d="M11.143 8.35h.18v.18h-.18zm.571 0h.181v.18h-.18zm-.285-.145h.18v.361h-.18zM6 7.916h.542v.361H6z" clip-rule="evenodd"/><path fill="#060101" fill-rule="evenodd" d="M5.714 8.06h1v.181h-1z" clip-rule="evenodd"/><path fill="#F9E813" fill-rule="evenodd" d="M5.714 8.205h.543v.18h-.543zm.572 0h.542v.18h-.542zm-.572.434h.362v.542h-.362zm.715 0h.361v.542h-.36zm-.286 0h.18v.542h-.18z" clip-rule="evenodd"/><path fill="#060101" fill-rule="evenodd" d="M5.714 8.494h1v.18h-1zm0 .434h1v.18h-1z" clip-rule="evenodd"/><path fill="#F9E813" fill-rule="evenodd" d="M5.857 8.35h.181v.18h-.18zm.572 0h.18v.18h-.18zm-.286-.145h.18v.361h-.18zm.205 2.973.348-.415.277.232-.348.415z" clip-rule="evenodd"/><path fill="#060101" fill-rule="evenodd" d="m6.275 11.49.643-.766.138.116-.643.766z" clip-rule="evenodd"/><path fill="#F9E813" fill-rule="evenodd" d="m6.386 11.583.348-.416.139.117-.349.415zm.367-.438.348-.415.139.116-.349.415zm-.035.717.232-.277.415.348-.232.277zm.459-.548.232-.277.415.349-.232.277zm-.184.219.116-.138.416.348-.117.139z" clip-rule="evenodd"/><path fill="#060101" fill-rule="evenodd" d="m6.607 11.769.643-.767.138.117-.643.766zm.333.278.642-.766.139.116-.643.767z" clip-rule="evenodd"/><path fill="#F9E813" fill-rule="evenodd" d="m6.588 11.566.117-.138.138.116-.116.138zm.368-.438.116-.138.138.116-.116.139zm-.295.126.116-.138.277.232-.116.139zm4.573-.404.348.415-.277.232-.348-.415z" clip-rule="evenodd"/><path fill="#060101" fill-rule="evenodd" d="m10.94 10.724.642.766-.138.116-.643-.766z" clip-rule="evenodd"/><path fill="#F9E813" fill-rule="evenodd" d="m10.829 10.817.348.415-.138.116-.349-.415zm.367.437.349.416-.139.116-.348-.415zm-.699-.159.232.277-.415.349-.233-.277zm.459.548.232.276-.415.349-.233-.277zm-.184-.219.116.138-.415.349-.116-.139z" clip-rule="evenodd"/><path fill="#060101" fill-rule="evenodd" d="m10.607 11.002.643.766-.138.117-.643-.766zm-.332.279.643.766-.139.117-.643-.767z" clip-rule="evenodd"/><path fill="#F9E813" fill-rule="evenodd" d="m10.81 11.019.116.138-.138.117-.116-.139zm.367.438.116.138-.138.116-.116-.138zm-.072-.312.116.138-.277.233-.116-.139z" clip-rule="evenodd"/><path fill="#013399" fill-rule="evenodd" d="M9.419 6.904h-.99v.72s.073.373.495.373c.421 0 .495-.372.495-.372zm-.562.289c0 .08-.064.144-.143.144a.144.144 0 0 1-.142-.144c0-.08.064-.145.142-.145.08 0 .143.065.143.145m-.143.723a.144.144 0 0 0 .143-.145.144.144 0 0 0-.143-.144.144.144 0 0 0-.142.144c0 .08.064.145.142.145m.572-.145c0 .08-.064.145-.143.145A.144.144 0 0 1 9 7.77a.143.143 0 1 1 .286 0m-.357-.144a.144.144 0 0 0 .143-.145.144.144 0 0 0-.143-.145.144.144 0 0 0-.143.145c0 .08.064.145.143.145m.357-.434c0 .08-.064.144-.143.144A.144.144 0 0 1 9 7.193c0-.08.064-.145.143-.145s.143.065.143.145m.133 1.301h-.99v.721s.073.372.495.372c.421 0 .495-.372.495-.372zm-.562.29a.144.144 0 0 1-.143.144.144.144 0 0 1-.142-.145.143.143 0 1 1 .285 0m-.143.722a.144.144 0 0 0 .143-.145.144.144 0 0 0-.143-.144.144.144 0 0 0-.142.144c0 .08.064.145.142.145m.572-.145c0 .08-.064.145-.143.145A.144.144 0 0 1 9 9.361a.143.143 0 1 1 .286 0m-.357-.144a.144.144 0 0 0 .143-.145.144.144 0 0 0-.143-.144.144.144 0 0 0-.143.144c0 .08.064.145.143.145m.357-.434c0 .08-.064.145-.143.145A.144.144 0 0 1 9 8.783a.143.143 0 1 1 .286 0m1.419-.289h-.99v.721s.073.372.495.372c.421 0 .495-.372.495-.372zm-.562.29a.144.144 0 0 1-.143.144.144.144 0 0 1-.143-.145.143.143 0 1 1 .286 0M10 9.505a.144.144 0 0 0 .143-.145.144.144 0 0 0-.143-.144.144.144 0 0 0-.143.144c0 .08.064.145.143.145m.572-.145c0 .08-.064.145-.143.145a.144.144 0 0 1-.143-.145.143.143 0 1 1 .286 0m-.358-.144a.144.144 0 0 0 .143-.145.144.144 0 0 0-.143-.144.144.144 0 0 0-.143.144c0 .08.065.145.143.145m.357-.434c0 .08-.063.145-.142.145a.144.144 0 0 1-.143-.145.143.143 0 1 1 .286 0m-2.439-.288h-.99v.721s.074.372.495.372c.422 0 .495-.372.495-.372zm-.561.29a.144.144 0 0 1-.143.144.144.144 0 0 1-.143-.145.143.143 0 1 1 .286 0m-.143.722a.144.144 0 0 0 .143-.145.144.144 0 0 0-.143-.144.144.144 0 0 0-.143.144c0 .08.064.145.143.145M8 9.361c0 .08-.064.145-.143.145a.144.144 0 0 1-.143-.145.143.143 0 1 1 .286 0m-.357-.144a.144.144 0 0 0 .143-.145.144.144 0 0 0-.143-.144.144.144 0 0 0-.143.144c0 .08.064.145.143.145M8 8.783c0 .08-.064.145-.143.145a.144.144 0 0 1-.143-.145.143.143 0 1 1 .286 0m1.419 1.301h-.99v.722s.073.372.495.372c.421 0 .495-.373.495-.373zm-.562.29c0 .08-.064.144-.143.144a.144.144 0 0 1-.142-.145c0-.08.064-.144.142-.144.08 0 .143.065.143.145m-.143.722a.144.144 0 0 0 .143-.144.144.144 0 0 0-.143-.145.144.144 0 0 0-.142.145c0 .08.064.144.142.144m.572-.144c0 .08-.064.144-.143.144A.144.144 0 0 1 9 10.952c0-.08.064-.145.143-.145s.143.065.143.145m-.357-.145a.144.144 0 0 0 .143-.144.144.144 0 0 0-.143-.145.144.144 0 0 0-.143.145c0 .08.064.144.143.144m.357-.434c0 .08-.064.145-.143.145A.144.144 0 0 1 9 10.373c0-.08.064-.144.143-.144s.143.065.143.145" clip-rule="evenodd"/></g></g><rect width="23" height="17" x=".5" y=".5" stroke="#000" stroke-opacity=".1" rx="1.5"/><defs><clipPath id="a"><rect width="24" height="18" fill="#fff" rx="2"/></clipPath></defs></svg>