<svg xmlns="http://www.w3.org/2000/svg" fill="none" viewBox="0 0 24 18"><g clip-path="url(#a)"><mask id="b" width="24" height="18" x="0" y="0" maskUnits="userSpaceOnUse" style="mask-type:luminance"><path fill="#fff" d="M0 0h24v18H0z"/></mask><g mask="url(#b)"><path fill="#2E42A5" fill-rule="evenodd" d="M0 0v18h24V0z" clip-rule="evenodd"/><mask id="c" width="24" height="18" x="0" y="0" maskUnits="userSpaceOnUse" style="mask-type:luminance"><path fill="#fff" fill-rule="evenodd" d="M0 0v18h24V0z" clip-rule="evenodd"/></mask><g mask="url(#c)"><path fill="#FECA00" fill-rule="evenodd" d="M0 12v6h24v-6z" clip-rule="evenodd"/><mask id="d" width="24" height="12" x="0" y="0" maskUnits="userSpaceOnUse" style="mask-type:luminance"><path fill="#fff" d="M0 0h24v12H0z"/></mask><g mask="url(#d)"><path fill="#fff" d="m-1.697 11.347 4.757 1.1 10.141-5.603 1.073-.627 9.633-5.037 2.282-1.59-5.22-.482-8.416 4.747-6.082 2.99z"/><path fill="#F50100" d="m-1.279 12.014 2.561.84L25.237-.61H21.64z"/><path fill="#fff" d="m25.778 11.048.189 1.133-5.028.267L12.835 7.7l-.764.262L-3.06.308 3.187-.895l8.352 4.614 6.534 3.157z"/><path fill="#F50100" d="m25.795 11.728-2.56.84-10.2-5.765-3.025-.644L-2.444-.403h3.596L13.6 6.003l3.307.772z"/><path fill="#fff" d="M9.58-1.25V-2.5H8.33v1.25zm0 4.5V4.5h1.25V3.25zm-10.83 0V2H-2.5v1.25zm0 5.5H-2.5V10h1.25zm10.83 0h1.25V7.5H9.58zm0 6H8.33V16h1.25zm4.89 0V16h1.25v-1.25zm0-6V7.5h-1.25v1.25zm10.78 0V10h1.25V8.75zm0-5.5h1.25V2h-1.25zm-10.78 0h-1.25V4.5h1.25zm0-4.5h1.25V-2.5h-1.25zm-4.89 7h1.25V4.5H9.58zm-8.33 0V4.5H0v1.25zm0 .5H0V7.5h1.25zm8.33 0V7.5h1.25V6.25zm4.89-.5V4.5h-1.25v1.25zm0 .5h-1.25V7.5h1.25zm8.28-.5H24V4.5h-1.25zm0 .5V7.5H24V6.25zM9.58 0h1.25v-2.5H9.58zm1.25 0v-1.25h-2.5V0zm0 3.25V0h-2.5v3.25zM0 4.5h9.58V2H0zm-1.25 0H0V2h-1.25zM0 4.5V3.25h-2.5V4.5zm0 3v-3h-2.5v3zm0 1.25V7.5h-2.5v1.25zM0 7.5h-1.25V10H0zm9.58 0H0V10h9.58zm1.25 6V8.75h-2.5v4.75zm0 1.25V13.5h-2.5v1.25zm0-1.25H9.58V16h1.25zm2.39 0h-2.39V16h2.39zm1.25 0h-1.25V16h1.25zm-1.25 0v1.25h2.5V13.5zm0-4.75v4.75h2.5V8.75zM24 7.5h-9.53V10H24zm1.25 0H24V10h1.25zM24 7.5v1.25h2.5V7.5zm0-3v3h2.5v-3zm0-1.25V4.5h2.5V3.25zm0 1.25h1.25V2H24zm-9.53 0H24V2h-9.53zM13.22 0v3.25h2.5V0zm0-1.25V0h2.5v-1.25zm0 1.25h1.25v-2.5h-1.25zm-2.39 0h2.39v-2.5h-2.39zM9.58 4.5H1.25V7h8.33zM0 5.75v.5h2.5v-.5zM1.25 7.5h8.33V5H1.25zm9.58-1.25v-.5h-2.5v.5zm2.39-.5v.5h2.5v-.5zm9.53-1.25h-8.28V7h8.28zM24 6.25v-.5h-2.5v.5zM14.47 7.5h8.28V5h-8.28z"/><path fill="#F50100" fill-rule="evenodd" d="M13.27-1h-2.54v5.5H0v3h10.73v7h2.54v-7H25.5v-3H13.27z" clip-rule="evenodd"/></g><path fill="#2E42A5" fill-rule="evenodd" d="M12.05 7.6a2.75 2.75 0 1 0 0-5.5 2.75 2.75 0 0 0 0 5.5" clip-rule="evenodd"/><path fill="#FECA00" fill-rule="evenodd" d="m12.1 5.691-1.298.903.458-1.513L10 4.126l1.58-.033.52-1.493.52 1.493 1.58.033-1.26.955.458 1.513zm-6.775.741-.811.565.286-.946-.787-.597.988-.02.324-.934.325.933.988.02-.788.598.286.946zM21.1 5.576l-1.082.753.382-1.261-1.05-.797 1.317-.026L21.1 3l.433 1.245 1.317.026-1.05.797.382 1.26zm-9-4.8-1.082.753L11.4.268 10.35-.53l1.318-.026L12.1-1.8l.433 1.245 1.317.026-1.05.797.382 1.26zm0 10.6-1.082.753.382-1.261-1.05-.796 1.318-.027L12.1 8.8l.433 1.245 1.317.027-1.05.796.382 1.26z" clip-rule="evenodd"/></g></g></g><rect width="23" height="17" x=".5" y=".5" stroke="#000" stroke-opacity=".1" rx="1.5"/><defs><clipPath id="a"><rect width="24" height="18" fill="#fff" rx="2"/></clipPath></defs></svg>