<svg xmlns="http://www.w3.org/2000/svg" fill="none" viewBox="0 0 24 18"><g clip-path="url(#a)"><mask id="b" width="24" height="18" x="0" y="0" maskUnits="userSpaceOnUse" style="mask-type:luminance"><path fill="#fff" d="M0 0h24v18H0z"/></mask><g mask="url(#b)"><path fill="#E31D1C" fill-rule="evenodd" d="M0 0v18h24V0z" clip-rule="evenodd"/><mask id="c" width="24" height="18" x="0" y="0" maskUnits="userSpaceOnUse" style="mask-type:luminance"><path fill="#fff" fill-rule="evenodd" d="M0 0v18h24V0z" clip-rule="evenodd"/></mask><g mask="url(#c)"><path fill="#F7FCFF" fill-rule="evenodd" d="M4.576 3.173c-.01-.092.101-.137.164-.07.366.396 1.203 1.238 1.696 1.238.645 0 3.175-2.132 3.923-1.785s2.262 3.979 2.262 3.979l-.987 1.237-1.275-.695-.241-2.736s-2.455 1.262-3.682.804l-.689.58s-.664-1.315-.925-1.717c-.158-.243-.22-.594-.246-.835" clip-rule="evenodd"/><path fill="#FECA00" fill-rule="evenodd" d="m6.197 6.093-.42.255.08-.54-.34-.38.47-.08.21-.49.21.49.469.08-.34.38.08.54zM9.76 2.844a.272.272 0 1 1 .544 0v1.285a.272.272 0 1 1-.544 0z" clip-rule="evenodd"/><path fill="#F7FCFF" fill-rule="evenodd" d="M18.855 3.797c.083.041.063.158-.029.176-.529.1-1.686.365-1.947.783-.342.546.125 3.822-.565 4.272-.691.45-4.573-.19-4.573-.19l-.527-1.493 1.266-.713 2.448 1.246s.23-2.751 1.269-3.548l-.126-.892s1.467.133 1.946.125c.29-.005.62.128.838.234" clip-rule="evenodd"/><path fill="#FECA00" fill-rule="evenodd" d="m15.52 3.624.006-.491.415.353.503-.086-.182.44.305.438-.527-.082-.316.357-.143-.49-.5-.218zm.916 4.78a.294.294 0 1 1-.319.494l-1.161-.776a.27.27 0 0 1 .293-.455z" clip-rule="evenodd"/><path fill="#F7FCFF" fill-rule="evenodd" d="M11.203 15.7c-.077.052-.168-.024-.138-.112.177-.508.527-1.643.296-2.078-.303-.569-3.373-1.802-3.417-2.625-.045-.824 2.45-3.865 2.45-3.865l1.557.29-.016 1.452-2.302 1.498s2.267 1.574 2.438 2.873l.835.336s-.849 1.204-1.081 1.623c-.14.253-.42.473-.622.609" clip-rule="evenodd"/><path fill="#FECA00" fill-rule="evenodd" d="m13.021 12.9.422.25-.514.183-.177.479-.29-.378-.531.045.334-.416-.15-.45.495.12.439-.324zm-4.694-1.682a.305.305 0 0 1-.22-.569l1.252-.488a.31.31 0 1 1 .223.578z" clip-rule="evenodd"/><path fill="#FECA00" d="M10.247 7.324a.184.184 0 0 1-.111-.232c.031-.096.181-.256.274-.223l1.302.455a.18.18 0 0 1 .12.158l.117 1.427c.008.101-.139.183-.237.191a.18.18 0 0 1-.193-.167l-.107-1.228z"/><path fill="#FECA00" d="M12.51 6.576c.078-.062.217.01.278.09a.186.186 0 0 1-.031.256l-.902.924c-.078.062-.253-.059-.314-.138-.06-.08-.078-.297 0-.36z"/></g></g></g><rect width="23" height="17" x=".5" y=".5" stroke="#000" stroke-opacity=".1" rx="1.5"/><defs><clipPath id="a"><rect width="24" height="18" fill="#fff" rx="2"/></clipPath></defs></svg>