<svg xmlns="http://www.w3.org/2000/svg" fill="none" viewBox="0 0 24 18"><g clip-path="url(#a)"><mask id="b" width="24" height="18" x="0" y="0" maskUnits="userSpaceOnUse" style="mask-type:luminance"><path fill="#fff" d="M0 0h24v18H0z"/></mask><g mask="url(#b)"><path fill="#F7FCFF" fill-rule="evenodd" d="M0 0h24v18H0V0Z" clip-rule="evenodd"/><path fill="#E31D1C" fill-rule="evenodd" d="M0 0v6h24V0H0Z" clip-rule="evenodd"/><path fill="#3D58DB" fill-rule="evenodd" d="M0 12v6h24v-6H0Z" clip-rule="evenodd"/><mask id="c" width="28" height="31" x="-2" y="-6.5" fill="#000" maskUnits="userSpaceOnUse"><path fill="#fff" d="M-2-6.5h28v31H-2z"/><path fill-rule="evenodd" d="M11.571 7.5 0-1.5v21l11.571-9H24v-3H11.571Z" clip-rule="evenodd"/></mask><path fill="#5EAA22" fill-rule="evenodd" d="M11.571 7.5 0-1.5v21l11.571-9H24v-3H11.571Z" clip-rule="evenodd"/><path fill="#F7FCFF" d="m0-1.5 1.228-1.579L-2-5.589V-1.5h2Zm11.571 9-1.227 1.579.541.421h.686v-2ZM0 19.5h-2v4.09l3.228-2.511L0 19.5Zm11.571-9v-2h-.686l-.541.421L11.57 10.5ZM24 10.5v2h2v-2h-2Zm0-3h2v-2h-2v2ZM-1.228.079l11.572 9 2.455-3.158-11.571-9L-1.228.08ZM2 19.5v-21h-4v21h4Zm8.344-10.579-11.572 9 2.456 3.158 11.571-9-2.455-3.158ZM24 8.5H11.571v4H24v-4Zm-2-1v3h4v-3h-4Zm-10.429 2H24v-4H11.571v4Z" mask="url(#c)"/><path fill="#272727" stroke="#FECA00" stroke-width="2" d="M.6 3.7-1 2.5v13l1.6-1.2 6-4.5L7.667 9 6.6 8.2l-6-4.5Z"/></g></g><path stroke="#000" stroke-opacity=".1" stroke-width=".5" d="M.25.25h23.5v17.5H.25z"/><defs><clipPath id="a"><path fill="#fff" d="M0 0h24v18H0z"/></clipPath></defs></svg>