<svg xmlns="http://www.w3.org/2000/svg" fill="none" viewBox="0 0 24 18"><g clip-path="url(#a)"><mask id="b" width="24" height="18" x="0" y="0" maskUnits="userSpaceOnUse" style="mask-type:luminance"><path fill="#fff" d="M0 0h24v18H0z"/></mask><g mask="url(#b)"><path fill="#EF0000" fill-rule="evenodd" d="M6 0h18v18H6V0Z" clip-rule="evenodd"/><path fill="#2F8D00" fill-rule="evenodd" d="M0 0h9v18H0V0Z" clip-rule="evenodd"/><mask id="c" width="12" height="12" x="3" y="3" maskUnits="userSpaceOnUse" style="mask-type:luminance"><path fill="#fff" fill-rule="evenodd" d="M8.929 14.855c-3.196 0-5.786-2.621-5.786-5.855 0-3.234 2.59-5.855 5.786-5.855 3.195 0 5.785 2.621 5.785 5.855 0 3.234-2.59 5.855-5.785 5.855Z" clip-rule="evenodd"/></mask><g fill="#FFE017" mask="url(#c)"><path fill-rule="evenodd" d="M8.571 3h.75v2.024h-.75V3Zm0 10.12h.75V15h-.75v-1.88Z" clip-rule="evenodd"/><path d="m3.236 9.303-.21-.538c2.314-.924 4.06-1.52 5.245-1.788 1.739-.394 3.65-.686 5.731-.875l.052.576c-2.059.187-3.944.475-5.658.863-1.15.26-2.872.848-5.16 1.762Z"/><path d="m14.356 5.748-.17.552c-1.75-.552-3.174-.79-4.269-.716l-.038-.577c1.176-.079 2.666.17 4.477.74Zm.604 3.087-.323.477c-.891-.62-1.99-.93-3.302-.93v-.579c1.423 0 2.634.343 3.626 1.032Z"/><path d="m14.476 9.008.148.558c-1.922.521-3.726.816-5.413.886-1.699.07-3.679-.226-5.942-.887l.159-.556c2.208.645 4.128.932 5.76.865 1.643-.068 3.406-.356 5.288-.866Z"/><path d="m14.259 11.727-.904.926c-1.716-1.715-3.227-2.941-4.524-3.678-1.318-.75-3.038-1.51-5.156-2.28l.434-1.225c2.18.793 3.964 1.582 5.352 2.37 1.41.802 3.006 2.097 4.798 3.887Zm-10.165.525-.342-.464a6.95 6.95 0 0 1 .89-.541c.638-.324 1.278-.526 1.888-.544l.09-.002v.579h-.073c-.514.016-1.078.195-1.648.484a6.383 6.383 0 0 0-.805.488Z"/><path d="m4.36 12.452.143-.56c1.905.502 3.374.752 4.399.752 1.021 0 2.541-.295 4.55-.887l.16.555c-2.057.606-3.623.91-4.71.91-1.083 0-2.595-.257-4.543-.77ZM3.617 7.27l.905-.923 1.326 1.33-.906.924-1.325-1.33Z"/><path d="m11.127 11.886.673-1.109 2.103 1.309-.673 1.108-2.103-1.308Z"/></g><path fill="#F9E813" fill-rule="evenodd" d="M3.143 9c0 3.234 2.59 5.855 5.786 5.855 3.195 0 5.785-2.621 5.785-5.855 0-3.234-2.59-5.855-5.785-5.855-3.196 0-5.786 2.621-5.786 5.855ZM14 9.072c0 2.795-2.239 5.06-5 5.06s-5-2.265-5-5.06c0-2.794 2.239-5.06 5-5.06s5 2.266 5 5.06Z" clip-rule="evenodd"/><path fill="#fff" d="M5.743 5.389v4.695c.309 1.859 1.35 2.788 3.124 2.788 1.773 0 2.814-.929 3.124-2.788V5.39H5.743Z"/><path fill="#C51918" d="M5.314 4.955h7.105v5.166l-.006.035c-.343 2.064-1.56 3.15-3.546 3.15-1.987 0-3.204-1.086-3.547-3.15l-.006-.035V4.955Z"/><path fill="#F7FCFF" d="M6.94 6.533h3.854v3.33s-.286 1.72-1.927 1.72c-1.642 0-1.928-1.72-1.928-1.72v-3.33Z"/><path fill="#F9E813" fill-rule="evenodd" d="M6 5.313h.542v.362H6v-.362Z" clip-rule="evenodd"/><path fill="#060101" fill-rule="evenodd" d="M5.714 5.458h1v.18h-1v-.18Z" clip-rule="evenodd"/><path fill="#F9E813" fill-rule="evenodd" d="M5.714 5.602h.542v.181h-.542v-.18Zm.572 0h.542v.181h-.542v-.18Zm-.572.434h.362v.542h-.362v-.542Zm.715 0h.361v.542h-.361v-.542Zm-.286 0h.18v.542h-.18v-.542Z" clip-rule="evenodd"/><path fill="#060101" fill-rule="evenodd" d="M5.714 5.892h1v.18h-1v-.18Zm0 .433h1v.18h-1v-.18Z" clip-rule="evenodd"/><path fill="#F9E813" fill-rule="evenodd" d="M5.857 5.747h.18v.18h-.18v-.18Zm.572 0h.18v.18h-.18v-.18Zm-.286-.145h.18v.362h-.18v-.362Zm2.571-.289h.542v.362h-.542v-.362Z" clip-rule="evenodd"/><path fill="#060101" fill-rule="evenodd" d="M8.429 5.458h1v.18h-1v-.18Z" clip-rule="evenodd"/><path fill="#F9E813" fill-rule="evenodd" d="M8.429 5.602h.542v.181h-.542v-.18Zm.571 0h.542v.181H9v-.18Zm-.571.434h.361v.542h-.361v-.542Zm.714 0h.361v.542h-.361v-.542Zm-.286 0h.18v.542h-.18v-.542Z" clip-rule="evenodd"/><path fill="#060101" fill-rule="evenodd" d="M8.429 5.892h1v.18h-1v-.18Zm0 .433h1v.18h-1v-.18Z" clip-rule="evenodd"/><path fill="#F9E813" fill-rule="evenodd" d="M8.571 5.747h.181v.18h-.18v-.18Zm.572 0h.18v.18h-.18v-.18Zm-.286-.145h.18v.362h-.18v-.362Zm2.429-.289h.542v.362h-.542v-.362Z" clip-rule="evenodd"/><path fill="#060101" fill-rule="evenodd" d="M11 5.458h1v.18h-1v-.18Z" clip-rule="evenodd"/><path fill="#F9E813" fill-rule="evenodd" d="M11 5.602h.542v.181H11v-.18Zm.571 0h.543v.181h-.543v-.18ZM11 6.036h.361v.542H11v-.542Zm.714 0h.362v.542h-.362v-.542Zm-.285 0h.18v.542h-.18v-.542Z" clip-rule="evenodd"/><path fill="#060101" fill-rule="evenodd" d="M11 5.892h1v.18h-1v-.18Zm0 .433h1v.18h-1v-.18Z" clip-rule="evenodd"/><path fill="#F9E813" fill-rule="evenodd" d="M11.143 5.747h.18v.18h-.18v-.18Zm.571 0h.181v.18h-.18v-.18Zm-.285-.145h.18v.362h-.18v-.362Zm-.143 2.314h.542v.361h-.542v-.361Z" clip-rule="evenodd"/><path fill="#060101" fill-rule="evenodd" d="M11 8.06h1v.18h-1v-.18Z" clip-rule="evenodd"/><path fill="#F9E813" fill-rule="evenodd" d="M11 8.205h.542v.18H11v-.18Zm.571 0h.543v.18h-.543v-.18ZM11 8.638h.361v.543H11v-.543Zm.714 0h.362v.543h-.362v-.543Zm-.285 0h.18v.543h-.18v-.543Z" clip-rule="evenodd"/><path fill="#060101" fill-rule="evenodd" d="M11 8.494h1v.18h-1v-.18Zm0 .433h1v.181h-1v-.18Z" clip-rule="evenodd"/><path fill="#F9E813" fill-rule="evenodd" d="M11.143 8.35h.18v.18h-.18v-.18Zm.571 0h.181v.18h-.18v-.18Zm-.285-.145h.18v.361h-.18v-.361ZM6 7.916h.542v.361H6v-.361Z" clip-rule="evenodd"/><path fill="#060101" fill-rule="evenodd" d="M5.714 8.06h1v.18h-1v-.18Z" clip-rule="evenodd"/><path fill="#F9E813" fill-rule="evenodd" d="M5.714 8.205h.542v.18h-.542v-.18Zm.572 0h.542v.18h-.542v-.18Zm-.572.433h.362v.543h-.362v-.543Zm.715 0h.361v.543h-.361v-.543Zm-.286 0h.18v.543h-.18v-.543Z" clip-rule="evenodd"/><path fill="#060101" fill-rule="evenodd" d="M5.714 8.494h1v.18h-1v-.18Zm0 .433h1v.181h-1v-.18Z" clip-rule="evenodd"/><path fill="#F9E813" fill-rule="evenodd" d="M5.857 8.35h.18v.18h-.18v-.18Zm.572 0h.18v.18h-.18v-.18Zm-.286-.145h.18v.361h-.18v-.361Zm.205 2.973.348-.415.277.232-.348.415-.277-.232Z" clip-rule="evenodd"/><path fill="#060101" fill-rule="evenodd" d="m6.275 11.49.643-.766.138.116-.643.766-.138-.116Z" clip-rule="evenodd"/><path fill="#F9E813" fill-rule="evenodd" d="m6.386 11.582.348-.415.139.116-.349.416-.138-.117Zm.367-.437.348-.415.139.116-.349.415-.138-.116Zm-.035.716.232-.277.416.349-.233.277-.415-.349Zm.459-.547.232-.277.416.349-.233.277-.415-.349Zm-.184.219.117-.138.415.348-.116.139-.416-.349Z" clip-rule="evenodd"/><path fill="#060101" fill-rule="evenodd" d="m6.607 11.769.643-.767.138.117-.642.766-.139-.116Zm.333.278.642-.766.139.117-.643.766-.139-.117Z" clip-rule="evenodd"/><path fill="#F9E813" fill-rule="evenodd" d="m6.588 11.566.116-.138.139.116-.116.138-.139-.116Zm.368-.438.116-.138.138.116-.116.139-.138-.117Zm-.295.126.116-.138.277.232-.116.139-.277-.233Zm4.573-.404.348.415-.277.232-.348-.415.277-.232Z" clip-rule="evenodd"/><path fill="#060101" fill-rule="evenodd" d="m10.94 10.724.642.766-.138.116-.643-.766.138-.116Z" clip-rule="evenodd"/><path fill="#F9E813" fill-rule="evenodd" d="m10.829 10.817.348.415-.138.116-.349-.415.139-.116Zm.367.437.348.416-.138.116-.349-.415.139-.117Zm-.7-.159.233.277-.416.349-.232-.277.415-.349Zm.46.548.232.276-.415.349-.233-.277.416-.348Zm-.184-.219.116.138-.415.349-.116-.139.415-.348Z" clip-rule="evenodd"/><path fill="#060101" fill-rule="evenodd" d="m10.607 11.003.643.766-.139.116-.642-.766.138-.116Zm-.332.278.643.766-.139.117-.643-.766.139-.117Z" clip-rule="evenodd"/><path fill="#F9E813" fill-rule="evenodd" d="m10.81 11.019.116.139-.139.116-.116-.139.139-.116Zm.367.438.116.138-.138.116-.116-.138.138-.116Zm-.073-.312.116.139-.277.232-.116-.139.277-.232Z" clip-rule="evenodd"/><path fill="#013399" fill-rule="evenodd" d="M9.419 6.904h-.99v.72s.073.373.495.373c.421 0 .495-.372.495-.372v-.721Zm-.562.289c0 .08-.064.144-.143.144a.144.144 0 0 1-.143-.144c0-.08.064-.145.143-.145.08 0 .143.065.143.145Zm-.143.723a.144.144 0 0 0 .143-.145.144.144 0 0 0-.143-.145.144.144 0 0 0-.143.145c0 .08.064.145.143.145Zm.572-.145c0 .08-.064.145-.143.145A.144.144 0 0 1 9 7.77c0-.08.064-.145.143-.145.079 0 .143.065.143.145Zm-.357-.145a.144.144 0 0 0 .142-.144.144.144 0 0 0-.142-.145.144.144 0 0 0-.143.145c0 .08.064.144.143.144Zm.357-.433c0 .08-.064.144-.143.144A.144.144 0 0 1 9 7.193c0-.08.064-.145.143-.145.079 0 .143.065.143.145Zm.133 1.301h-.99v.721s.073.372.495.372c.421 0 .495-.372.495-.372v-.721Zm-.562.289c0 .08-.064.145-.143.145a.144.144 0 0 1-.143-.145c0-.08.064-.145.143-.145.08 0 .143.065.143.145Zm-.143.723a.144.144 0 0 0 .143-.145.144.144 0 0 0-.143-.144.144.144 0 0 0-.143.144c0 .08.064.145.143.145Zm.572-.145c0 .08-.064.145-.143.145A.144.144 0 0 1 9 9.36a.143.143 0 1 1 .286 0Zm-.357-.144a.144.144 0 0 0 .142-.145.144.144 0 0 0-.142-.144.144.144 0 0 0-.143.144c0 .08.064.145.143.145Zm.357-.434c0 .08-.064.145-.143.145A.144.144 0 0 1 9 8.783c0-.08.064-.145.143-.145.079 0 .143.065.143.145Zm1.418-.289h-.99v.721s.074.372.495.372a.485.485 0 0 0 .495-.372v-.721Zm-.561.289c0 .08-.064.145-.143.145a.144.144 0 0 1-.143-.145c0-.08.064-.145.143-.145.079 0 .143.065.143.145ZM10 9.506a.144.144 0 0 0 .143-.145.144.144 0 0 0-.143-.144.144.144 0 0 0-.143.144c0 .08.064.145.143.145Zm.571-.145c0 .08-.063.145-.142.145a.144.144 0 0 1-.143-.145c0-.08.064-.144.143-.144.079 0 .142.065.142.144Zm-.357-.144a.144.144 0 0 0 .143-.145.144.144 0 0 0-.143-.144.144.144 0 0 0-.143.144c0 .08.064.145.143.145Zm.357-.434c0 .08-.063.145-.142.145a.144.144 0 0 1-.143-.145c0-.08.064-.145.143-.145.079 0 .142.065.142.145Zm-2.438-.289h-.99v.721s.073.372.495.372a.485.485 0 0 0 .495-.372v-.721Zm-.562.289c0 .08-.064.145-.142.145a.144.144 0 0 1-.143-.145c0-.08.064-.145.143-.145.078 0 .142.065.142.145Zm-.142.723a.144.144 0 0 0 .142-.145.144.144 0 0 0-.142-.144.144.144 0 0 0-.143.144c0 .08.064.145.143.145ZM8 9.36c0 .08-.064.145-.143.145a.144.144 0 0 1-.143-.145.143.143 0 1 1 .286 0Zm-.357-.144a.144.144 0 0 0 .143-.145.144.144 0 0 0-.143-.144.144.144 0 0 0-.143.144c0 .08.064.145.143.145ZM8 8.783c0 .08-.064.145-.143.145a.144.144 0 0 1-.143-.145c0-.08.064-.145.143-.145.079 0 .143.065.143.145Zm1.419 1.301h-.99v.721s.073.373.495.373c.421 0 .495-.373.495-.373v-.72Zm-.562.29c0 .08-.064.144-.143.144a.144.144 0 0 1-.143-.145.143.143 0 1 1 .286 0Zm-.143.722a.144.144 0 0 0 .143-.144.144.144 0 0 0-.143-.145.144.144 0 0 0-.143.145c0 .08.064.144.143.144Zm.572-.144c0 .08-.064.144-.143.144A.144.144 0 0 1 9 10.952c0-.08.064-.145.143-.145.079 0 .143.065.143.145Zm-.357-.145a.144.144 0 0 0 .142-.145.144.144 0 0 0-.142-.144.144.144 0 0 0-.143.144c0 .08.064.145.143.145Zm.357-.434c0 .08-.064.145-.143.145A.144.144 0 0 1 9 10.373a.143.143 0 1 1 .286 0Z" clip-rule="evenodd"/></g></g><path stroke="#000" stroke-opacity=".1" stroke-width=".5" d="M.25.25h23.5v17.5H.25z"/><defs><clipPath id="a"><path fill="#fff" d="M0 0h24v18H0z"/></clipPath></defs></svg>