<svg xmlns="http://www.w3.org/2000/svg" fill="none" viewBox="0 0 24 18"><g clip-path="url(#a)"><mask id="b" width="24" height="18" x="0" y="0" maskUnits="userSpaceOnUse" style="mask-type:luminance"><path fill="#fff" d="M0 0h24v18H0z"/></mask><g fill-rule="evenodd" clip-rule="evenodd" mask="url(#b)"><path fill="#F7FCFF" d="M0 0h24v18H0z"/><path fill="#C51918" d="M0 0v6h24V0z"/><path fill="#409100" d="M0 12v6h24v-6z"/><path fill="#FB0" d="m12.02 5.63-.591.418.208-.7-.573-.442.72-.015.236-.691.237.69.72.016-.574.442.208.7zm-2.497.613-.591.417.208-.7-.574-.442.72-.014.237-.691.236.69.72.015-.573.442.208.7zM6.99 8.499l.59-.418.592.418-.209-.7.574-.442-.72-.015-.236-.69-.237.69-.72.015.574.442zm-.033 1.965-.592.418.209-.7L6 9.74l.72-.015.237-.69.236.69.72.015-.574.442.209.7zm9.466.418.591-.418.591.418-.208-.7.574-.442-.72-.015-.237-.69-.236.69-.72.015.574.442zm-.172-2.801-.59.418.208-.7-.574-.442.72-.015.236-.69.237.69.72.015-.574.442.209.7zm-2.504-1.42.591-.418.591.417-.208-.7.574-.442-.72-.014-.237-.691-.236.69-.72.015.574.442zm-5.08 7.094-.184-.657q1.53-.414 3.513-.413 1.984 0 3.514.413l-.184.657q-1.435-.39-3.33-.39t-3.329.39m1.264-1.053c-.407.07-.74-.324-.74-.324l.404-.167a.64.64 0 0 1 .156-.453c.136.062.322.406.322.406h.367s-.102.469-.51.538m4.81-.256s-.334.393-.74.324c-.408-.069-.51-.538-.51-.538h.366s.187-.344.323-.406c0 0 .17.173.156.453zm-2.796.131c-.412.012-.687-.424-.687-.424l.423-.109a.65.65 0 0 1 .218-.427c.126.081.263.447.263.447l.362.052s-.166.45-.579.461"/><path fill="#FB0" d="M11.959 10.699s-.47 1.073-1.208 1.156c-.739.083-1.114-.61-1.114-.61s-.048.72-.925.999c-.878.278-1.34-.833-1.34-.833s.457.409 1.166.23.988-.835.988-.835.524.686 1.225.343 1.09-.762 1.09-1.164V8.784s-.181-.312-.495-.312-.402.22-.402.22-.122-1.25 1.007-1.327v-.003l.03.001h.032v.002c1.129.078 1.006 1.328 1.006 1.328s-.087-.221-.401-.221-.495.312-.495.312v1.201c0 .402.388.821 1.09 1.164.7.343 1.225-.343 1.225-.343s.28.658.988.836 1.165-.231 1.165-.231-.462 1.11-1.34.833c-.876-.278-.925-1-.925-1s-.375.694-1.114.611c-.738-.083-1.207-1.156-1.207-1.156l-.023-1.417zm-.01-2.997a.62.62 0 0 0-.627.44c.459 0 .626.2.626.2s.34-.2.682-.2c0 0-.16-.44-.682-.44"/></g></g><rect width="23" height="17" x=".5" y=".5" stroke="#000" stroke-opacity=".1" rx="1.5"/><defs><clipPath id="a"><rect width="24" height="18" fill="#fff" rx="2"/></clipPath></defs></svg>