<svg xmlns="http://www.w3.org/2000/svg" fill="none" viewBox="0 0 24 18"><g clip-path="url(#a)"><mask id="b" width="24" height="18" x="0" y="0" maskUnits="userSpaceOnUse" style="mask-type:luminance"><path fill="#fff" d="M0 0h24v18H0z"/></mask><g mask="url(#b)"><path fill="#FFB400" fill-rule="evenodd" d="M0 0v18h24V0z" clip-rule="evenodd"/><mask id="c" width="24" height="18" x="0" y="0" maskUnits="userSpaceOnUse" style="mask-type:luminance"><path fill="#fff" fill-rule="evenodd" d="M0 0v18h24V0z" clip-rule="evenodd"/></mask><g mask="url(#c)"><path fill="#C51918" fill-rule="evenodd" d="M0 0v4.5h24V0zm0 13.5V18h24v-4.5z" clip-rule="evenodd"/><path fill="#F1F9FF" d="M3.756 7.704h.84v4.368h-.84z"/><path fill="#C88A02" fill-rule="evenodd" d="M4.932 6.948H3.42v.42h.252v.336H4.68v-.336h.252zm-.252 5.376h.252v.42H3.42v-.42h.252v-.336H4.68z" clip-rule="evenodd"/><path fill="#AD1619" fill-rule="evenodd" d="M4.176 7.032c.183 0 .201-.069.31-.172.083-.08.278-.179.278-.29 0-.255-.263-.462-.588-.462s-.588.207-.588.462c0 .124.134.207.236.29.107.088.185.172.352.172" clip-rule="evenodd"/><path fill="#005BBF" fill-rule="evenodd" d="M3.42 12.744h1.512v.672s-.19-.084-.378-.084c-.19 0-.378.084-.378.084s-.19-.084-.378-.084c-.19 0-.378.084-.378.084z" clip-rule="evenodd"/><mask id="d" width="2" height="2" x="3" y="12" maskUnits="userSpaceOnUse" style="mask-type:luminance"><path fill="#fff" fill-rule="evenodd" d="M3.42 12.744h1.512v.672s-.19-.084-.378-.084c-.19 0-.378.084-.378.084s-.19-.084-.378-.084c-.19 0-.378.084-.378.084z" clip-rule="evenodd"/></mask><g fill="#fff" mask="url(#d)"><path d="m3.406 13.284-.033-.08a1 1 0 0 1 .41-.092c.088 0 .134.013.213.048.069.03.105.04.18.04s.111-.01.18-.04a.45.45 0 0 1 .213-.048 1 1 0 0 1 .41.091l-.033.08a.9.9 0 0 0-.377-.083.4.4 0 0 0-.18.04.45.45 0 0 1-.213.047.45.45 0 0 1-.213-.047.4.4 0 0 0-.18-.04.9.9 0 0 0-.377.084m0-.252-.033-.08a1 1 0 0 1 .41-.092c.088 0 .134.013.213.048.069.03.105.04.18.04s.111-.01.18-.04a.44.44 0 0 1 .213-.048 1 1 0 0 1 .41.091l-.033.08a.9.9 0 0 0-.377-.083.4.4 0 0 0-.18.04.44.44 0 0 1-.213.047.44.44 0 0 1-.213-.047.4.4 0 0 0-.18-.04.9.9 0 0 0-.377.084"/></g><path fill="#F1F9FF" d="M11.988 7.704h.84v4.368h-.84z"/><path fill="#C88A02" fill-rule="evenodd" d="M13.164 6.948h-1.512v.42h.252v.336h1.008v-.336h.252zm-.252 5.376h.252v.42h-1.512v-.42h.252v-.336h1.008z" clip-rule="evenodd"/><path fill="#AD1619" fill-rule="evenodd" d="M12.408 7.032c.183 0 .202-.069.31-.172.083-.08.278-.179.278-.29 0-.255-.263-.462-.588-.462s-.588.207-.588.462c0 .124.135.207.236.29.107.088.186.172.352.172" clip-rule="evenodd"/><path fill="#005BBF" fill-rule="evenodd" d="M11.652 12.744h1.512v.672s-.19-.084-.378-.084c-.19 0-.378.084-.378.084s-.19-.084-.378-.084c-.19 0-.378.084-.378.084z" clip-rule="evenodd"/><mask id="e" width="3" height="2" x="11" y="12" maskUnits="userSpaceOnUse" style="mask-type:luminance"><path fill="#fff" fill-rule="evenodd" d="M11.652 12.744h1.512v.672s-.19-.084-.378-.084c-.19 0-.378.084-.378.084s-.19-.084-.378-.084c-.19 0-.378.084-.378.084z" clip-rule="evenodd"/></mask><g fill="#fff" mask="url(#e)"><path d="m11.638 13.284-.033-.08a1 1 0 0 1 .41-.092c.088 0 .134.013.213.048.069.03.104.04.18.04.075 0 .111-.01.18-.04a.45.45 0 0 1 .213-.048 1 1 0 0 1 .41.091l-.033.08a.9.9 0 0 0-.377-.083.4.4 0 0 0-.18.04.45.45 0 0 1-.213.047.45.45 0 0 1-.213-.047.4.4 0 0 0-.18-.04.9.9 0 0 0-.377.084m0-.252-.033-.08a1 1 0 0 1 .41-.092c.088 0 .134.013.213.048.069.03.104.04.18.04.075 0 .111-.01.18-.04a.45.45 0 0 1 .213-.048 1 1 0 0 1 .41.091l-.033.08a.9.9 0 0 0-.377-.083.4.4 0 0 0-.18.04.45.45 0 0 1-.213.047.44.44 0 0 1-.213-.047.4.4 0 0 0-.18-.04.9.9 0 0 0-.377.084"/></g><path fill="#AD1619" fill-rule="evenodd" d="M3.741 11.76c.152-.184.236-.35.236-.528a.47.47 0 0 0-.091-.287l.01-.005c-.001 0 .166-.072.224-.1.108-.052.203-.107.296-.175.06-.043.139-.09.26-.155l.114-.06.03-.016.144-.08a.9.9 0 0 0 .275-.215.402.402 0 0 0-.093-.599c-.104-.07-.245-.112-.451-.144l-.043-.006-.252-.04-.266-.043c.517-.086 1.254-.054 1.579.113l.308-.597c-.661-.341-2.167-.307-2.73.08-.412.285-.357.715.072.9.18.077.414.128.846.198q-.106.061-.188.121a1.2 1.2 0 0 1-.192.112l-.188.084-.024.01c-.35.16-.52.38-.468.776l.027.215.05.015zm-.432-.556-.001.003zm9.22.028c0 .177.085.344.237.528l.515-.425.05-.016.027-.215c.05-.397-.119-.617-.469-.776l-.024-.01-.187-.084a1.2 1.2 0 0 1-.192-.112 2 2 0 0 0-.189-.121c.433-.07.667-.121.846-.198.43-.185.485-.615.072-.9-.562-.387-2.068-.421-2.73-.08l.31.597c.323-.167 1.06-.2 1.577-.113l-.265.044-.252.039-.043.006c-.206.032-.347.073-.451.144a.4.4 0 0 0-.093.599.9.9 0 0 0 .275.215q.058.034.143.08l.031.016.114.06c.121.065.2.112.26.155.093.068.188.123.296.175.058.028.225.1.224.1l.01.005a.47.47 0 0 0-.091.287" clip-rule="evenodd"/><path fill="#F1F9FF" d="m4.442 9.3.248.051v.37c-.264.21-.934.566-.934.566V9.3zm7.794 0-.248.051v.37c.264.21.934.566.934.566V9.3z"/><path fill="#AD1619" fill-rule="evenodd" d="M11.082 5.404v-.123q-.648-.465-1.357-.465a2.7 2.7 0 0 0-1.38-.233v.037c-.024.284-.162 1.991 0 2.256V4.62m0 2.262v.002s1.106-.03 1.184-.056l.095-.03c.217-.062.464-.135.611-.543l.847-.85" clip-rule="evenodd"/><path fill="#C88A02" fill-rule="evenodd" d="M6.236 6.112V6.11l-.596-.561.058-.061.559.526.014-.066q.139.03.198.023v-.114l.124.067q.09.05.263.023c.084-.014.141-.112.16-.32l.038-.423.126.405c.057.183.144.263.268.263.121 0 .17-.044.175-.156l.016-.317.143.283c.052.102.123.149.225.149.145 0 .242-.121.242-.311h.171c0 .19.097.31.242.31.101 0 .172-.046.224-.148l.144-.284.015.318c.005.112.054.156.175.156.124 0 .211-.08.269-.263l.126-.405.037.422c.019.21.076.307.16.321q.173.028.264-.023l.124-.067v.114a.7.7 0 0 0 .197-.023l.027.122.619-.582.057.06-.77.726c-.112.207-.17.343-.17.4 0 .087-.224.138-.664.19-.344.042-.751.07-1.084.074h-.084a11 11 0 0 1-1.083-.073c-.44-.053-.665-.104-.665-.19a.2.2 0 0 0-.006-.042.7.7 0 0 1-.097-.232l-.066-.127-.171-.16zm4.129.014c-.138.024-.237.022-.29-.021a.7.7 0 0 1-.29.008q-.175-.031-.249-.228a.4.4 0 0 1-.244.15c.538.076.914.183.914.183s-.009.08-.031.173q.035-.073.084-.163l.008-.01zm-1.326-.123a.27.27 0 0 1-.111-.1.4.4 0 0 1-.137.077q.127.01.248.023m-.544-.04a.4.4 0 0 1-.16-.14.4.4 0 0 1-.16.14l.116-.003h.067q.07 0 .137.003m-2.028.248-.078-.073q.142.015.204-.033a.7.7 0 0 0 .29.008q.176-.031.25-.228.093.12.235.148c-.464.065-.81.154-.901.178m1.407-.233L7.635 6a.27.27 0 0 0 .106-.098q.059.052.133.076m2.066.698c.059.027.106 0 .143-.053l-.006.04-.022.01a1 1 0 0 1-.125.037 5 5 0 0 1-.444.072c-.356.042-.78.07-1.116.073-.336-.003-.76-.03-1.115-.074a5 5 0 0 1-.444-.07 1 1 0 0 1-.11-.031l.008-.004c.184-.086 1.397-.167 1.616-.18.218.013 1.432.094 1.615.18m.232-.016-.002.002.001-.001" clip-rule="evenodd"/><path fill="#005BBF" fill-rule="evenodd" d="M8.335 4.01a.252.252 0 1 0 0-.504.252.252 0 0 0 0 .504" clip-rule="evenodd"/><path fill="#C88A02" fill-rule="evenodd" d="M8.17 5.248a.3.3 0 0 0 .025.076.3.3 0 0 0-.113-.02c-.116 0-.21.057-.21.126 0 .07.094.126.21.126s.21-.056.21-.126c0 .07.094.126.21.126s.21-.056.21-.126-.094-.126-.21-.126a.3.3 0 0 0-.082.01.3.3 0 0 0-.002-.114c-.022-.114-.096-.196-.164-.183s-.106.117-.084.23m.122.182v-.004zm-1.357-.022a.3.3 0 0 1-.025-.076c-.022-.114.016-.217.084-.23s.142.068.164.182q.012.062.002.114a.3.3 0 0 1 .082-.01c.116 0 .21.057.21.126 0 .07-.094.126-.21.126s-.21-.056-.21-.126V5.51v.003c0 .07-.094.126-.21.126s-.21-.056-.21-.126.094-.126.21-.126q.063.001.113.02m2.63.077c-.01.069-.11.111-.225.095s-.2-.085-.19-.154.11-.111.225-.095a.3.3 0 0 1 .109.035.3.3 0 0 1-.014-.08c-.006-.115.046-.212.115-.215.07-.004.131.087.137.203a.3.3 0 0 1-.014.114.3.3 0 0 1 .083.001c.115.016.2.085.19.154-.01.07-.11.112-.225.096s-.2-.085-.19-.154m0 0 .001-.004zm.8.333c.103.054.212.049.245-.013l.002-.003q.015.015.035.022c.067.02.148-.053.182-.164.034-.11.008-.217-.059-.237-.066-.02-.148.053-.182.164a.3.3 0 0 0-.014.079.3.3 0 0 0-.09-.07c-.103-.055-.212-.05-.245.012s.024.155.126.21m-4.121.026c-.103.054-.212.048-.245-.013l-.002-.003a.1.1 0 0 1-.035.022c-.067.02-.148-.053-.182-.164-.034-.11-.008-.217.059-.237s.148.053.182.163a.3.3 0 0 1 .014.08.3.3 0 0 1 .09-.07c.103-.055.212-.05.245.012.033.061-.024.155-.126.21M8.24 3.057h.175v.111h.114v.175h-.114v.35h.114v.175h-.405v-.175h.116v-.35h-.116v-.175h.116z" clip-rule="evenodd"/><path fill="#C88A02" d="M8.208 4.008h.336V5.1h-.336z"/><path fill="#fff" d="m6.856 4.19-.002.085c-.745-.013-1.172.096-1.28.312q-.17.335.065.82l-.075.037q-.252-.519-.065-.894c.128-.258.58-.373 1.357-.36"/><path fill="#fff" d="m7 4.936-.043.072q-.243-.147-.244-.49c0-.327.169-.52.542-.65q.356-.126.977.1l-.03.079q-.594-.216-.92-.1c-.341.12-.485.283-.485.57q0 .299.203.419"/><path fill="#C88A02" d="m5.745 5.278-.158.056c-.165-.469-.118-.787.163-.924q.372-.18 1.085-.15l-.007.167q-.676-.026-1.004.134c-.185.09-.218.32-.079.717"/><path fill="#C88A02" d="M7.597 4.079c-.384 0-.542.094-.632.37-.057.176-.002.326.18.466l-.104.133c-.234-.182-.316-.404-.235-.651.114-.352.34-.486.791-.486q.446 0 .687.236l.025.025v.81h-.168v-.739q-.186-.163-.544-.164"/><path fill="#fff" d="m9.787 4.275.001.084c.745-.013 1.172.096 1.28.312q.17.335-.065.82l.076.037q.252-.519.065-.894c-.129-.258-.58-.373-1.357-.36"/><path fill="#fff" d="m9.524 4.953.043.072q.243-.147.244-.49c0-.327-.17-.519-.542-.65q-.357-.125-.977.1l.029.079q.596-.215.92-.1c.342.12.486.284.486.571q0 .299-.203.418"/><path fill="#C88A02" d="m10.95 5.362.158.056c.164-.469.117-.787-.164-.924q-.37-.18-1.084-.15l.007.167q.676-.026 1.004.134c.184.09.218.32.079.717"/><path fill="#C88A02" d="M9.088 4.092c.384 0 .542.094.632.37.058.176.002.326-.179.466l.104.133c.233-.182.316-.404.235-.651-.115-.352-.34-.486-.792-.486q-.445 0-.687.236l-.025.025v.81h.168v-.739q.188-.163.544-.164"/><path fill="#E1E5E8" fill-rule="evenodd" d="M5.604 6.948h5.46v4.906s-.406 1.646-2.73 1.646-2.73-1.69-2.73-1.69z" clip-rule="evenodd" opacity=".3"/><mask id="f" width="7" height="8" x="5" y="6" maskUnits="userSpaceOnUse" style="mask-type:luminance"><path fill="#fff" fill-rule="evenodd" d="M5.604 6.948h5.46v4.906s-.406 1.646-2.73 1.646-2.73-1.69-2.73-1.69z" clip-rule="evenodd"/></mask><g mask="url(#f)"><path fill="#FFC034" d="M5.604 9.972h2.772v3.276H5.604z"/><path fill="#AD1619" d="M5.94 10.14h.336v3.108H5.94zm1.176 0h.336v3.108h-.336zm-.588 0h.336v3.108h-.336zm1.176 0h.336v3.108h-.336zm-2.1-3.276h2.772v3.192H5.604z"/><path fill="#AD1619" d="M8.292 9.888h2.772v3.192H8.292z"/><path fill="#F1F9FF" d="M8.292 6.948h2.94v3.108h-2.94z"/><path fill="#C88A02" fill-rule="evenodd" d="M6.78 7.2h.252v.697H7.2v-.349h.252v.349h.252v.435h-.252v.784h.252v.436H6.192v-.436h.252v-.784h-.252v-.435h.168v-.349h.252v.349h.168z" clip-rule="evenodd"/><path fill="#C88A02" d="m9.734 7.346.172-.184.361.337-.172.185z"/><path fill="#FFC034" fill-rule="evenodd" d="M10.77 12.105v-1.839h-2.1v1.824l.003.014c.107.453.469.682 1.047.682s.94-.223 1.046-.666zm-1.05.429c-.464 0-.718-.156-.798-.474v-1.542h1.596v1.556c-.08.308-.334.46-.798.46" clip-rule="evenodd"/><path fill="#FFC034" fill-rule="evenodd" d="M9.807 10.42h-.175v.834l-.69-.75-.124.113.624.678h-.565v.252h.579l-.638.694.124.114.69-.75v.974h.175v-.887l.61.663.123-.114-.638-.694h.712v-.252h-.698l.624-.678-.124-.114-.61.663z" clip-rule="evenodd"/><path fill="#F1F9FF" fill-rule="evenodd" d="M10.112 13.082s-1.78.14-1.78-1.008c0 0-.016 1.008-1.874 1.008v.906h3.654z" clip-rule="evenodd"/><path fill="#005BBF" fill-rule="evenodd" stroke="#AD1619" stroke-width="1.167" d="M8.334 10.644c.348 0 .63-.3.63-.672 0-.371-.282-.672-.63-.672s-.63.3-.63.672c0 .371.282.672.63.672Z" clip-rule="evenodd"/></g></g></g></g><rect width="23" height="17" x=".5" y=".5" stroke="#000" stroke-opacity=".1" rx="1.5"/><defs><clipPath id="a"><rect width="24" height="18" fill="#fff" rx="2"/></clipPath></defs></svg>