<svg xmlns="http://www.w3.org/2000/svg" fill="none" viewBox="0 0 24 18"><g clip-path="url(#a)"><mask id="b" width="24" height="18" x="0" y="0" maskUnits="userSpaceOnUse" style="mask-type:luminance"><path fill="#fff" d="M0 0h24v18H0z"/></mask><g fill-rule="evenodd" clip-rule="evenodd" mask="url(#b)"><path fill="#F7FCFF" d="M0 0h24v18H0V0Z"/><path fill="#409100" d="m6.75 9.935-.934.565.213-1.102-.779-.825 1.055-.044L6.75 7.5l.446 1.029H8.25l-.777.87.234 1.101-.956-.565Zm10.5 0-.934.565.213-1.102-.779-.825 1.055-.044.446-1.029.446 1.029h1.053l-.777.87.234 1.101-.956-.565Z"/><path fill="#E31D1C" d="M0 0v6h24V0H0Z"/><path fill="#272727" d="M0 12v6h24v-6H0Z"/></g></g><path stroke="#000" stroke-opacity=".1" stroke-width=".5" d="M.25.25h23.5v17.5H.25z"/><defs><clipPath id="a"><path fill="#fff" d="M0 0h24v18H0z"/></clipPath></defs></svg>