<svg xmlns="http://www.w3.org/2000/svg" fill="none" viewBox="0 0 24 18"><g clip-path="url(#a)"><mask id="b" width="24" height="18" x="0" y="0" maskUnits="userSpaceOnUse" style="mask-type:luminance"><path fill="#fff" d="M0 0h24v18H0z"/></mask><g mask="url(#b)"><rect width="24" height="18" fill="#5EAA22" rx="2"/><mask id="c" width="40" height="24" x="-8" y="-3" fill="#000" maskUnits="userSpaceOnUse"><path fill="#fff" d="M-8-3h40v24H-8z"/><path fill-rule="evenodd" d="m12 9 12-9H0zm0 0L0 18h24z" clip-rule="evenodd"/></mask><path fill="#DD2C2B" fill-rule="evenodd" d="m12 9 12-9H0zm0 0L0 18h24z" clip-rule="evenodd"/><path fill="#fff" d="m24 0 1.5 2 6-4.5H24zM0 0v-2.5h-7.5l6 4.5zm0 18-1.5-2-6 4.5H0zm24 0v2.5h7.5l-6-4.5zM22.5-2l-12 9 3 4 12-9zM0 2.5h24v-5H0zM13.5 7l-12-9-3 4 12 9zm-3 0-12 9 3 4 12-9zM0 20.5h24v-5H0zM25.5 16l-12-9-3 4 12 9z" mask="url(#c)"/><path fill="#fff" fill-rule="evenodd" d="M12 13.5a4.5 4.5 0 1 0 0-9 4.5 4.5 0 0 0 0 9" clip-rule="evenodd"/><path fill="#DD2C2B" fill-rule="evenodd" stroke="#5EAA22" stroke-width=".25" d="m11.573 7.79-.872.01.444-.75-.444-.75.872.01.427-.76.428.76.871-.01-.444.75.444.75-.871-.01-.428.76zm-1.875 3.075-.872.01.444-.75-.444-.75.872.01.427-.76.428.76.871-.01-.444.75.444.75-.871-.01-.428.76zm3.75 0-.872.01.444-.75-.444-.75.872.01.427-.76.428.76.871-.01-.444.75.444.75-.871-.01-.428.76z" clip-rule="evenodd"/></g></g><rect width="23" height="17" x=".5" y=".5" stroke="#000" stroke-opacity=".1" rx="1.5"/><defs><clipPath id="a"><rect width="24" height="18" fill="#fff" rx="2"/></clipPath></defs></svg>