<svg xmlns="http://www.w3.org/2000/svg" fill="none" viewBox="0 0 24 18"><g clip-path="url(#a)"><mask id="b" width="24" height="18" x="0" y="0" maskUnits="userSpaceOnUse" style="mask-type:luminance"><path fill="#fff" d="M0 0h24v18H0z"/></mask><g mask="url(#b)"><path fill="#BF2714" fill-rule="evenodd" d="M0 0v18h24V0H0Z" clip-rule="evenodd"/><mask id="c" width="24" height="18" x="0" y="0" maskUnits="userSpaceOnUse" style="mask-type:luminance"><path fill="#fff" fill-rule="evenodd" d="M0 0v18h24V0H0Z" clip-rule="evenodd"/></mask><g mask="url(#c)"><path fill="#3D58DB" fill-rule="evenodd" d="M0-1.5V9h24V-1.5H0Z" clip-rule="evenodd"/></g><path fill="#F7FCFF" fill-rule="evenodd" d="M0 0v18l13.5-9L0 0Z" clip-rule="evenodd"/><mask id="d" width="14" height="18" x="0" y="0" maskUnits="userSpaceOnUse" style="mask-type:luminance"><path fill="#fff" fill-rule="evenodd" d="M0 0v18l13.5-9L0 0Z" clip-rule="evenodd"/></mask><g fill="#FECA00" fill-rule="evenodd" clip-rule="evenodd" mask="url(#d)"><path d="m10.204 8.19.957.37.569-.67.015.895.88.287-.926.314.06.824-.61-.631-.96.183.567-.727-.552-.845Zm-9 4.5.88.389.646-.69-.062.916.958.267-1.004.334.138.804-.7-.574-.87.126.489-.707-.475-.865Zm0-9 .973.359.553-.66.032.886.864.297-.91.304.044.834-.606-.605-.964.157.583-.737-.57-.835Zm4.887 7.21a1.875 1.875 0 1 0 0-3.75 1.875 1.875 0 0 0 0 3.75Z"/><path d="m5.87 6.18.1 1.204a.168.168 0 0 0 .332.006l.133-1.2a.287.287 0 0 0-.277-.333.285.285 0 0 0-.289.323Zm-.314.582.156.524a.101.101 0 0 0 .118.069.084.084 0 0 0 .062-.1l-.124-.527a.118.118 0 0 0-.147-.087.097.097 0 0 0-.065.12Zm.842.546c-.012.044.014.09.064.104a.1.1 0 0 0 .115-.066l.174-.518a.097.097 0 0 0-.073-.126.118.118 0 0 0-.137.085l-.143.52Zm1.558-.527-.838.926a.168.168 0 0 0 .23.239l1-.758a.286.286 0 1 0-.392-.407ZM7.7 8.746l1.252-.097a.286.286 0 1 1-.01.566l-1.248-.137a.168.168 0 0 1 .006-.332Zm.65 1.994-.973-.847a.168.168 0 0 0-.238.231l.804 1.009a.286.286 0 1 0 .407-.393Zm-2.012-.263.074 1.263a.286.286 0 1 1-.565-.01l.16-1.26a.168.168 0 0 1 .331.007Zm-1.973.682.826-1.005a.168.168 0 0 0-.23-.239l-.99.838a.287.287 0 1 0 .394.406Zm.242-2.044-1.259.104a.286.286 0 1 1 .01-.566l1.255.13a.168.168 0 0 1-.006.332Zm-.745-1.973 1.068.826a.168.168 0 0 0 .239-.231l-.9-.988a.287.287 0 1 0-.407.393Zm3.141.312.26-.48a.097.097 0 0 1 .143-.033.12.12 0 0 1 .031.159l-.284.46a.084.084 0 0 1-.115.027.101.101 0 0 1-.035-.133Zm1.32.878-.525.155a.101.101 0 0 0-.069.118c.01.045.056.073.101.063l.526-.125a.118.118 0 0 0 .087-.146.097.097 0 0 0-.12-.065ZM7.63 9.78l.48.26a.097.097 0 0 1 .033.143.119.119 0 0 1-.158.031l-.46-.284a.084.084 0 0 1-.027-.115.101.101 0 0 1 .132-.035Zm-.877 1.32-.155-.524a.101.101 0 0 0-.118-.069.084.084 0 0 0-.063.1l.125.527a.118.118 0 0 0 .146.087.097.097 0 0 0 .065-.121Zm-1.448-.692-.26.48a.097.097 0 0 1-.142.033.118.118 0 0 1-.032-.159l.284-.46a.084.084 0 0 1 .115-.027.101.101 0 0 1 .035.133ZM3.986 9.53l.524-.155a.101.101 0 0 0 .07-.118.084.084 0 0 0-.102-.063l-.526.125a.118.118 0 0 0-.086.146c.015.051.069.08.12.065Zm.692-1.448-.48-.26a.097.097 0 0 1-.033-.143.118.118 0 0 1 .159-.031l.46.284a.084.084 0 0 1 .027.115.101.101 0 0 1-.133.035Zm2.796-.126c-.04.023-.054.074-.028.119a.1.1 0 0 0 .128.035l.49-.244a.097.097 0 0 0 .037-.14.118.118 0 0 0-.157-.038l-.47.268Zm.2 1.282c.013-.05.059-.075.103-.063l.522.142a.118.118 0 0 1 .081.15.097.097 0 0 1-.122.06l-.519-.173a.1.1 0 0 1-.066-.116ZM7.13 10.25c-.023-.04-.074-.054-.119-.029a.1.1 0 0 0-.034.129l.243.49a.097.097 0 0 0 .14.037.118.118 0 0 0 .038-.158l-.268-.469Zm-1.282.2c.05.013.076.059.063.103l-.142.521a.118.118 0 0 1-.15.082.097.097 0 0 1-.06-.123l.173-.518a.1.1 0 0 1 .116-.066Zm-1.013-.544c.04-.023.054-.074.029-.119a.1.1 0 0 0-.129-.035l-.489.244a.097.097 0 0 0-.037.14.118.118 0 0 0 .157.038l.47-.268Zm-.199-1.282a.085.085 0 0 1-.104.063l-.521-.142a.118.118 0 0 1-.082-.15.097.097 0 0 1 .123-.06l.518.173a.1.1 0 0 1 .066.116Zm.543-1.013c.023.04.074.054.119.029a.1.1 0 0 0 .035-.129l-.244-.49a.097.097 0 0 0-.14-.037.118.118 0 0 0-.037.158l.267.469Z"/></g></g></g><path stroke="#000" stroke-opacity=".1" stroke-width=".5" d="M.25.25h23.5v17.5H.25z"/><defs><clipPath id="a"><path fill="#fff" d="M0 0h24v18H0z"/></clipPath></defs></svg>