<svg xmlns="http://www.w3.org/2000/svg" fill="none" viewBox="0 0 24 18"><g clip-path="url(#a)"><mask id="b" width="24" height="18" x="0" y="0" maskUnits="userSpaceOnUse" style="mask-type:luminance"><path fill="#fff" d="M0 0h24v18H0z"/></mask><g mask="url(#b)"><path fill="#F7FCFF" fill-rule="evenodd" d="M0 0v18h24V0H0Z" clip-rule="evenodd"/><mask id="c" width="24" height="18" x="0" y="0" maskUnits="userSpaceOnUse" style="mask-type:luminance"><path fill="#fff" fill-rule="evenodd" d="M0 0v18h24V0H0Z" clip-rule="evenodd"/></mask><g mask="url(#c)"><path fill="#56C6F5" fill-rule="evenodd" d="M0 9v9h24V9H0Z" clip-rule="evenodd"/><path fill="#006923" fill-rule="evenodd" d="M7.69 6.771a.42.42 0 0 0-.041-.16c-.193-.36-.13-.809-.13-.809s-.23.526-.365 1.022a1.648 1.648 0 0 1-.192-.462s-.092 1.453.189 1.797c.28.345.468.496.468.496s.021-.603-.06-1.075a3.49 3.49 0 0 0 .128-.599c.036-.027.134-.1.255-.199-.051.283-.054.436-.054.436s1.058-.768 1.085-1.175c.027-.406.318-.754.318-.754s-.24.164-.515.385a1.59 1.59 0 0 1 .297-.61s-1.201.822-1.3 1.255c-.043.189-.068.34-.082.452Zm.052 2.498c-.115-.217-.616-1.13-.966-1.209-.398-.09-.696-.432-.696-.432s.624 1.316 1.037 1.48c.331.133.55.186.622.202-.012.177-.014.3-.014.3s.195-.141.493-.47c.299-.33.283-1.786.283-1.786s-.118.438-.436.693c-.213.172-.293.816-.323 1.222Zm-.938-.137c.454-.003 1.152 1.11 1.152 1.11s-.27.015-.743-.06-1.21-1.343-1.21-1.343.347.295.8.293Zm2.213 2.592s.269-1.418-.135-1.75c-.405-.33-.476-.824-.476-.824s-.36 1.573 0 1.98c.359.408.61.594.61.594Zm-1.633-.383c.265.313 1.106 0 1.106 0l-.482-.441c-.667-.61-2.025-.225-1.66-.225.366 0 .772.353 1.036.666Zm.624 1.666c.49.414 1.548-.572 1.548-.572s-.272-.33-.777-.573c-.505-.243-2.367 0-2.367 0l.828.369s-.922.36-.677.34c.245-.02.956.02 1.445.436Z" clip-rule="evenodd"/><path fill="#093" fill-rule="evenodd" d="M14.41 12.147s-.42-.707 0-1.049c.421-.342.588-.115.588-.508s.043-.275.25-.47c.206-.196.06-.67.337-.433.277.237.329-.217.329.727V9.028c0-.53-.33-.405-.33-.76 0-.356-.328-.887 0-.887.33 0 .523.395.523.395s.323.55.323 0-.575-.387-.845-.994c-.27-.608-.228.068-.587-.715-.36-.783-.788-1.032-.394-1.032h.643c.338 0 .86-.28.86 0v.592c0 .44.323.44.323.44s.175-.88.396-.44c.22.44.07 1.155.232 1.155.161 0 .028-.74.38-.173.353.565 0 .949 0 1.167 0 .218-.38.753-.38.753s.074.262.38 0c.306-.261.597-.523.597-.261 0 .261.596.342 0 .76-.597.417-.216.835-.597.835-.38 0-.828.55-1.008.55-.18 0-.853.423-.516.423.336 0 .68-.844.912-.422.232.422.229-.069.42.177.192.245.384 1.575.192 1.041-.191-.534-.492-.534-1.008-.534s-1.52.038-1.183.286c.338.248.717-.248.86 0 .143.248.101.496.323.248.221-.248.44 0 .628 0 .189 0-.189.277 0 .515s.61.555.189.555c-.42 0-.637-.336-.817 0-.18.337-.188.92-.516.46-.33-.46-.916-.226-.916-.46 0-.233.128-.27-.23-.27s-.358-.285-.358-.285Z" clip-rule="evenodd"/><path fill="#C51918" fill-rule="evenodd" d="M16.137 7.087a.185.185 0 0 1-.181.188.185.185 0 0 1-.182-.188c0-.103.082-.187.182-.187.1 0 .181.084.181.187ZM7.754 7.5c.1 0 .182-.084.182-.188a.185.185 0 0 0-.182-.187c-.1 0-.181.084-.181.187 0 .104.081.188.181.188Zm.182.787a.185.185 0 0 1-.182.188.185.185 0 0 1-.181-.188c0-.103.081-.187.181-.187.1 0 .182.084.182.187Zm.109 1.913c.1 0 .181-.084.181-.188a.185.185 0 0 0-.181-.187c-.1 0-.182.084-.182.188 0 .103.081.187.182.187Zm1.451 1.875c.1 0 .182-.084.182-.188a.185.185 0 0 0-.182-.187c-.1 0-.181.084-.181.188 0 .103.08.187.181.187Zm6.968-2.85c.1 0 .181-.084.181-.188a.185.185 0 0 0-.181-.187c-.1 0-.182.084-.182.187 0 .104.082.188.182.188Zm-.4 1.313a.185.185 0 0 1-.18.187.185.185 0 0 1-.182-.188c0-.103.081-.187.181-.187.1 0 .182.084.182.188Zm-1.705 1.837c.1 0 .181-.084.181-.188a.185.185 0 0 0-.18-.187c-.1 0-.181.084-.181.188 0 .103.08.187.181.187Zm-4.609.037a.185.185 0 0 1-.181.188.185.185 0 0 1-.182-.188c0-.103.082-.187.182-.187.1 0 .181.084.181.188Z" clip-rule="evenodd"/><path fill="#FECA00" fill-rule="evenodd" d="M13.528 14.865c0-.154-2.325-1.756-2.95-2.11-.623-.353-3.671-2.299-2.841-5.255H7.61s-.561 3.643 3.309 5.907c1.762 1.182 1.85 1.458 1.85 1.458s.758.153.758 0Z" clip-rule="evenodd"/><path fill="#FECA00" fill-rule="evenodd" d="M10.443 14.865c0-.154 2.326-1.756 2.95-2.11.624-.353 3.672-2.299 2.842-5.255h.125s.562 3.643-3.308 5.907c-1.762 1.182-1.85 1.458-1.85 1.458s-.759.153-.759 0Z" clip-rule="evenodd"/><path fill="#56C6F5" fill-rule="evenodd" d="M12.036 12.664c1.624 0 2.94-2.101 2.94-4.152 0-2.05-1.316-3.112-2.94-3.112-1.623 0-2.94 1.062-2.94 3.112s1.317 4.152 2.94 4.152Z" clip-rule="evenodd"/><path fill="#fff" fill-rule="evenodd" d="M10.735 7.154s.452-.4.226-.4c-.044 0-.097-.008-.155-.017-.24-.038-.551-.088-.551.417v.871h-.067a.075.075 0 0 0 0 .15h.058l-.045.845-.059.006a.107.107 0 0 0-.098.116l.001.01c.005.06.058.103.117.098l.027-.003c-.02.386-.037.723-.037.764 0 .102.689.062.689.062s-.022-.406-.045-.879l.02-.001a.108.108 0 0 0 .097-.117l-.001-.01a.108.108 0 0 0-.117-.098l-.01.001c-.014-.283-.028-.57-.037-.794h.088a.075.075 0 0 0 0-.15h-.095a7.8 7.8 0 0 1-.006-.238v-.633Z" clip-rule="evenodd"/><path fill="#000" fill-rule="evenodd" d="M10.403 8.25h.242v.323h-.242V8.25Zm-.073 1.125h.404v.75h-.403v-.75Z" clip-rule="evenodd"/><path fill="#fff" fill-rule="evenodd" d="M12.26 7.154s.452-.4.226-.4c-.045 0-.098-.008-.155-.017-.24-.038-.552-.088-.552.417v.871h-.067a.075.075 0 0 0 0 .15h.059l-.045.845-.06.006a.108.108 0 0 0-.097.116v.01c.006.06.058.103.117.098l.028-.003c-.02.386-.037.723-.037.764 0 .102.688.062.688.062l-.045-.879.02-.001a.108.108 0 0 0 .097-.117v-.01a.107.107 0 0 0-.117-.098l-.011.001-.037-.794h.088a.075.075 0 0 0 0-.15h-.094a7.8 7.8 0 0 1-.007-.238v-.633Z" clip-rule="evenodd"/><path fill="#000" fill-rule="evenodd" d="M11.927 8.25h.242v.323h-.242V8.25Zm-.072 1.125h.403v.75h-.403v-.75Z" clip-rule="evenodd"/><path fill="#fff" fill-rule="evenodd" d="M13.71 7.154s.454-.4.227-.4c-.044 0-.097-.008-.155-.017-.24-.038-.551-.088-.551.417v.871h-.067a.075.075 0 1 0 0 .15h.058l-.045.845-.059.006a.108.108 0 0 0-.098.116l.001.01c.005.06.058.103.117.098l.027-.003c-.02.386-.037.723-.037.764 0 .102.689.062.689.062s-.022-.406-.045-.879l.02-.001a.108.108 0 0 0 .097-.117v-.01a.108.108 0 0 0-.117-.098l-.011.001c-.014-.283-.028-.57-.037-.794h.088a.075.075 0 0 0 0-.15h-.094a7.8 7.8 0 0 1-.007-.238v-.633Z" clip-rule="evenodd"/><path fill="#000" fill-rule="evenodd" d="M13.379 8.25h.242v.323h-.242V8.25Zm-.072 1.125h.403v.75h-.403v-.75Z" clip-rule="evenodd"/><path fill="#E8AA00" fill-rule="evenodd" d="M13.887 4.8H10.04v.574l-.026.003S8.13 6.84 8.653 9.035c.523 2.194 2.6 3.82 2.6 3.82l.105-.378s-1.98-2.692-1.98-3.767c0-1.076.374-2.086.77-2.242.237-.095.278-.076.343-.045.043.02.097.045.225.045.32 0 .642-.23.642-.23s.224.23.431.23c.208 0 .21-.23.21-.23v-.763h.024v.763s.003.23.21.23c.208 0 .432-.23.432-.23s.321.23.642.23a.459.459 0 0 0 .225-.045c.064-.03.105-.05.343.045.396.156.77 1.166.77 2.242 0 1.075-1.98 3.767-1.98 3.767l.104.379s2.078-1.627 2.601-3.821c.523-2.194-1.362-3.658-1.362-3.658l-.121-.011V4.8Z" clip-rule="evenodd"/><path fill="#FFD018" d="M10.04 4.8v-.5h-.5v.5h.5Zm3.847 0h.5v-.5h-.5v.5Zm-3.847.574.045.498.455-.04v-.458h-.5Zm-.026.003-.044-.498-.146.013-.116.09.306.395ZM8.653 9.035l.486-.116-.486.116Zm2.6 3.82-.308.394.59.463.2-.723-.482-.133Zm.105-.378.482.133.065-.233-.144-.196-.403.296Zm-1.21-6.01-.185-.464.184.465Zm.343-.044.212-.454-.212.454Zm.867-.185.359-.349-.3-.308-.35.25.291.407Zm.642 0 .5.006v-.006H12Zm0-.763v-.5h-.5v.5h.5Zm.023 0h.5v-.5h-.5v.5Zm0 .763h-.5v.006l.5-.006Zm.642 0 .29-.407-.35-.25-.299.308.359.349Zm.867.185.211.453-.211-.453Zm.343.045.185-.465-.185.465Zm-1.21 6.01-.403-.297-.144.196.065.233.482-.133Zm.104.378-.482.133.2.723.59-.463-.308-.393Zm2.601-3.821-.486-.116.486.116Zm-1.362-3.658.307-.395-.116-.09-.146-.013-.045.498Zm-.121-.011h-.5v.457l.455.04.045-.497ZM10.04 5.3h3.847v-1H10.04v1Zm.5.074V4.8h-1v.574h1Zm-.481.5.026-.002-.09-.996-.025.003.089.996Zm-.92 3.045c-.22-.925.061-1.701.42-2.268a4.044 4.044 0 0 1 .752-.872l.01-.008h.002-.001l-.308-.394-.307-.395a.09.09 0 0 1-.003.003 1.253 1.253 0 0 0-.029.023 4.366 4.366 0 0 0-.304.282 5.04 5.04 0 0 0-.656.825c-.452.714-.851 1.767-.549 3.036l.973-.232Zm2.114 3.937.309-.394s-.002 0-.003-.002l-.014-.011a6.979 6.979 0 0 1-.286-.25 9.089 9.089 0 0 1-.73-.757c-.56-.652-1.155-1.536-1.39-2.523l-.973.232c.288 1.207.995 2.233 1.604 2.943a10.085 10.085 0 0 0 1.07 1.07 5.25 5.25 0 0 0 .102.083l.002.002.31-.393Zm-.377-.512-.104.379.963.266.105-.379-.964-.266ZM8.878 8.71c0 .386.168.842.356 1.251.197.43.456.885.708 1.297a24.2 24.2 0 0 0 1.007 1.507l.005.006v.002h.001l.403-.296.403-.296-.001-.001c0-.002-.002-.003-.004-.005l-.015-.022a23.034 23.034 0 0 1-.946-1.418 11.886 11.886 0 0 1-.653-1.192c-.183-.398-.264-.682-.264-.833h-1Zm1.085-2.707c-.234.093-.401.28-.516.449-.122.18-.223.395-.304.626a5.053 5.053 0 0 0-.265 1.632h1c0-.485.085-.95.208-1.3.062-.176.128-.308.188-.396.067-.098.094-.096.058-.082l-.369-.93Zm.74-.034c-.05-.022-.172-.082-.352-.07a1.316 1.316 0 0 0-.388.104l.369.93c.05-.02.081-.031.098-.036.018-.005.01-.001-.012 0a.303.303 0 0 1-.107-.011.31.31 0 0 1-.035-.012l.004.002.423-.907Zm.013-.001a.26.26 0 0 1-.028-.002c-.003 0 0 0 .005.002a.123.123 0 0 1 .017.005h.002c-.002 0-.003 0-.01-.004l-.422.907c.025.011.085.04.17.061.081.021.169.03.266.03v-1Zm.642.27-.29-.407V5.83h.001s.001-.001 0 0l-.003.002a.902.902 0 0 1-.124.07.588.588 0 0 1-.226.066v1c.268 0 .508-.093.657-.164a2.102 2.102 0 0 0 .248-.14l.018-.013.006-.004.002-.001.001-.001-.29-.407Zm.431-.27c.038 0 .054.009.043.004a.62.62 0 0 1-.117-.085h-.001l.002.001-.358.35a95.616 95.616 0 0 0-.358.348l.001.002.002.001.005.005.013.013a1.523 1.523 0 0 0 .187.155c.1.07.316.206.581.206v-1Zm.21.27-.5-.007v-.006l.001-.006a.74.74 0 0 1 .003-.026.191.191 0 0 1 .016-.05.3.3 0 0 1 .095-.115.304.304 0 0 1 .175-.06v1c.15 0 .295-.044.416-.133a.7.7 0 0 0 .22-.272.808.808 0 0 0 .074-.301v-.017l-.5-.007Zm-.5-.763v.763h1v-.763h-1Zm.524-.5H12v1h.023v-1Zm-.5.5v.763h1v-.763h-1Zm.5.763-.5.006v.008a1.731 1.731 0 0 1 .002.034.828.828 0 0 0 .072.277.701.701 0 0 0 .22.272.697.697 0 0 0 .416.133v-1c.047 0 .113.015.175.06a.3.3 0 0 1 .096.114.193.193 0 0 1 .019.083v.005l-.5.008Zm.21.73c.266 0 .481-.136.581-.206a1.61 1.61 0 0 0 .188-.155l.013-.013.005-.005.002-.001v-.001h.001l-.358-.35a95.616 95.616 0 0 1-.359-.348l.001-.001h.001v-.002.002a.511.511 0 0 1-.117.084c-.011.005.005-.004.042-.004v1Zm.432-.73-.291.406.001.002.003.001.006.004a.932.932 0 0 0 .075.049c.046.028.112.066.191.104.149.07.389.164.657.164v-1a.589.589 0 0 1-.226-.067 1.09 1.09 0 0 1-.128-.072l.001.001h.001l-.29.408Zm.642.73a.951.951 0 0 0 .436-.092l-.423-.907-.01.005.003-.001a.128.128 0 0 1 .016-.005l.006-.002a.256.256 0 0 1-.028.002v1Zm.436-.092.004-.002a.296.296 0 0 1-.093.022.301.301 0 0 1-.049.001c-.023-.001-.03-.005-.013 0s.048.015.099.035l.369-.93a1.316 1.316 0 0 0-.388-.103c-.18-.012-.303.048-.352.07l.423.907Zm-.052.056c-.036-.014-.009-.016.058.082.06.088.126.22.187.396.123.35.208.815.208 1.3h1c0-.591-.102-1.169-.264-1.632a2.743 2.743 0 0 0-.304-.626c-.115-.17-.282-.356-.516-.45l-.37.93Zm.453 1.778c0 .151-.08.435-.263.833-.174.379-.41.797-.653 1.193a23.247 23.247 0 0 1-.946 1.417l-.015.021-.004.006h-.001v.001l.403.296.403.296.001-.002.005-.007.018-.024a23.624 23.624 0 0 0 .99-1.482c.251-.412.51-.868.707-1.297.188-.409.355-.865.355-1.251h-1Zm-1.961 3.9.104.38.964-.268-.104-.378-.964.267Zm.586.246.309.393.003-.002.006-.005.02-.017a5.776 5.776 0 0 0 .334-.29c.214-.197.504-.483.812-.841.609-.71 1.316-1.736 1.603-2.943l-.972-.232c-.236.987-.83 1.87-1.39 2.523a9.105 9.105 0 0 1-.957.957 4.243 4.243 0 0 1-.06.05l-.013.011-.003.002.308.394Zm3.087-3.705c.303-1.269-.096-2.322-.548-3.036a5.047 5.047 0 0 0-.89-1.047 2.818 2.818 0 0 0-.092-.078l-.007-.005-.002-.002h-.001v-.001l-.308.395-.307.394.01.008.047.04a4.05 4.05 0 0 1 .704.831c.36.568.642 1.344.422 2.269l.972.232Zm-1.803-4.272-.122-.011-.089.996.122.01.089-.995Zm-.666-.079v.566h1V4.8h-1Z"/><path fill="#8FC753" fill-rule="evenodd" d="M9.828 10.339s.236-.634.648-.423c.412.211.376.946.752.684.375-.261.162-.684.718-.684.556 0 .474.684.808.684.333 0 .362-.684.735-.684s.751.423.751.423l-2.206 3.002-2.206-3.002Z" clip-rule="evenodd"/><path fill="#fff" fill-rule="evenodd" d="m5.947 13.843-.238-.32s.984 0 1.118.232a.687.687 0 0 1 .066.153c.032.096.039.116.306.116.371 0 0-.37-.155-.5-.155-.132-.06-.361.155-.361.083 0 .227-.02.405-.043.283-.037.65-.086.986-.086.548 0 .094.49.094.49s.709 0 .533-.204c-.176-.204.59-.451.922-.451.31 0 1.7.07 1.887.079.196-.01 1.65-.08 1.958-.08.331 0 1.098.248.922.452-.176.203.533.203.533.203s-.454-.489.094-.489c.337 0 .704.049.987.086.177.024.322.043.405.043.215 0 .31.229.154.36-.154.132-.526.5-.154.5.267 0 .273-.019.305-.115a.7.7 0 0 1 .067-.153c.128-.224 1.048-.231 1.113-.232a.192.192 0 0 1-.023-.092c0-.103.081-.187.181-.187.1 0 .182.084.182.187a.185.185 0 0 1-.181.188.18.18 0 0 1-.157-.093l-.235.317.245.303a.18.18 0 0 1 .146-.077c.1 0 .182.084.182.187a.185.185 0 0 1-.181.188.184.184 0 0 1-.182-.188c0-.021.004-.042.01-.06-.139-.068-.378-.172-.534-.172h-.433c.109 0 .709.395.527.567l-.03.029c-.179.17-.411.39-.63.27a1.38 1.38 0 0 1-.372-.3l-.182-.566s-1.072-.277-1.072-.086c0 .192-.003.286-.383.286a3.45 3.45 0 0 1-.6-.068 2.355 2.355 0 0 0-.373-.048 3.34 3.34 0 0 0-.546.08c-.1.02-.179.036-.209.036-.081 0-.515-.02-.218-.2.298-.181.366-.37.366-.37s-1.19.178-1.661.188v.001h-.042c-.468-.011-1.59-.188-1.59-.188s.069.188.366.369c.297.18-.137.2-.218.2-.03 0-.109-.016-.208-.036a3.34 3.34 0 0 0-.547-.08c-.104 0-.23.023-.373.048a3.45 3.45 0 0 1-.6.068c-.38 0-.383-.094-.383-.286 0-.191-1.072.086-1.072.086l-.181.567s-.14.171-.372.299c-.22.12-.452-.1-.63-.27l-.03-.03c-.182-.17.418-.566.526-.566H6.26c-.23 0-.643.227-.643.227l.33-.408Zm-.516-.224c.1 0 .182-.084.182-.188a.185.185 0 0 0-.182-.187c-.1 0-.181.084-.181.187 0 .104.081.188.181.188Zm0 .825c.1 0 .182-.084.182-.188a.185.185 0 0 0-.182-.187c-.1 0-.181.084-.181.187 0 .104.081.188.181.188Z" clip-rule="evenodd"/><path fill="#FFD018" fill-rule="evenodd" d="M11.92 1.522h.15v.16h.185v.15h-.184v.274c.207.035.364.22.364.444 0 .249-.195.45-.435.45a.443.443 0 0 1-.435-.45c0-.22.153-.404.356-.443v-.274h-.17v-.15h.17v-.16Z" clip-rule="evenodd"/><path fill="#E31D1C" fill-rule="evenodd" d="M10.31 3.92c-.21 0-.653.224-.653.224l.345.763 2.076-.078 2.077.078.344-.763s-.443-.225-.653-.225c-.092 0-.104-.054-.117-.115-.017-.077-.036-.166-.228-.166-.136 0-.232.023-.31.04-.118.029-.194.046-.303-.04a1.64 1.64 0 0 0-.014-.01c-.177-.14-.361-.286-.66-.286-.059 0-.103.056-.136.146-.033-.09-.077-.146-.137-.146-.298 0-.482.145-.659.285l-.014.011c-.11.086-.185.069-.303.04-.078-.017-.174-.04-.31-.04-.192 0-.211.089-.228.166-.013.061-.025.115-.117.115Z" clip-rule="evenodd"/><path fill="#FFD018" fill-rule="evenodd" d="m11.706 2.676-.146.05c-.385.135-.719.179-1 .135-.58-.09-1.337.213-1.242.655.041.193.163.56.289.87.175.43.297.646.44.646.02 0 .214.011.279.015h.02c.211.011.397.017.575.016.517-.002.838-.053.952-.208l.034-.046-.016-.055c-.136-.466-.199-1.107-.187-1.919l.002-.159Zm-2.176.79c-.046-.216.546-.452.998-.382.281.043.6.01.957-.097-.002.722.057 1.308.177 1.76-.103.055-.375.09-.741.091-.175.001-.357-.005-.564-.015l-.287-.015a.72.72 0 0 1-.08-.117 3.619 3.619 0 0 1-.183-.393 6.167 6.167 0 0 1-.277-.831Zm2.81-.79.147.05c.385.135.718.179 1 .135.58-.09 1.337.213 1.242.655-.041.193-.163.56-.289.87-.175.43-.297.646-.44.646-.02 0-.214.011-.279.015h-.02a9.95 9.95 0 0 1-.576.016c-.517-.002-.837-.053-.951-.208l-.034-.046.016-.055c.136-.466.199-1.107.187-1.919l-.002-.159Zm2.177.79c.046-.216-.546-.452-.998-.382-.281.043-.6.01-.957-.097.002.722-.057 1.308-.178 1.76.104.055.375.09.742.091.175.001.357-.005.564-.015l.287-.015a.712.712 0 0 0 .08-.117 6.153 6.153 0 0 0 .46-1.224Z" clip-rule="evenodd"/><path fill="#5E5E5E" fill-rule="evenodd" d="M9.627 4.853a.945.945 0 0 0-.076-.256c-.072-.192-.121-.25-.226-.315-.053-.032-.074-.06-.1-.157a1.395 1.395 0 0 0-.087-.25 2.12 2.12 0 0 1-.023-.05.335.335 0 0 1-.023-.136c0-.067.018-.121.064-.219.028-.058.031-.066.04-.09a.364.364 0 0 0 .031-.137v-.29c0-.168.007-.178.09-.167a.58.58 0 0 1 .024.004l.05.009c.02.002.036 0 .053-.007.03-.013.051-.04.103-.117.025-.037.051-.034.145.012l.03.014c.097.045.163.046.22-.024.087-.106.145-.1.25.004.053.05.08.07.113.075h.003c.035.005.037.005.137-.055.006.014.021.02.045.025.032.007.08.01.11.005.027-.004.046-.013.058-.038.042-.002.092-.002.15-.002v-.075c-.074 0-.136 0-.185.003l-.014-.012c-.027-.024-.07-.061-.09-.056l-.02.018a.513.513 0 0 1-.067.052c-.098.06-.102.062-.117.06-.013-.002-.031-.015-.072-.055-.133-.13-.238-.142-.356.003-.03.037-.065.036-.135.004a1.29 1.29 0 0 1-.029-.014c-.125-.06-.181-.068-.235.013a.349.349 0 0 1-.073.092l-.003.001c-.003.001-.006 0-.039-.005l-.02-.004a.633.633 0 0 0-.027-.004c-.137-.019-.172.034-.172.242v.289a.29.29 0 0 1-.024.108l-.04.086a.543.543 0 0 0-.07.252.41.41 0 0 0 .028.164l.025.057.023.05c.021.053.04.11.06.184.03.116.062.16.132.203.091.055.13.1.196.277a2.094 2.094 0 0 1 .07.217c-.01.008-.009.014-.005.03a.04.04 0 0 0 .005.012l.01.01a.05.05 0 0 0 .006.004l-.004-.002.018.022c.071.093.16.093.246.003l-.052-.053c-.056.06-.094.06-.137.004l-.014-.018Zm.872-2.202h-.001.001Zm3.837 2.202c0-.041.024-.117.077-.256.072-.192.121-.25.226-.315.053-.032.074-.06.1-.157.02-.078.04-.138.063-.194l.024-.056.023-.05a.335.335 0 0 0 .023-.136.48.48 0 0 0-.064-.219 1.254 1.254 0 0 1-.04-.09.361.361 0 0 1-.031-.137v-.29c0-.168-.007-.178-.09-.167a.594.594 0 0 0-.024.004l-.05.009a.093.093 0 0 1-.053-.007c-.03-.013-.051-.04-.103-.117-.025-.037-.051-.034-.146.012l-.03.014c-.096.045-.162.046-.22-.024-.087-.106-.144-.1-.25.004-.052.05-.079.07-.112.075h-.003c-.035.005-.037.005-.137-.055-.006.014-.021.02-.045.025a.335.335 0 0 1-.11.005c-.027-.004-.046-.013-.058-.038a5.045 5.045 0 0 0-.15-.002v-.075c.074 0 .135 0 .185.003l.014-.012c.027-.024.07-.061.09-.056l.02.018c.018.015.041.036.064.05l.003.002c.098.06.102.062.117.06.013-.002.031-.015.072-.055.133-.13.238-.142.356.003.03.037.065.036.135.004l.029-.014c.125-.06.18-.068.235.013a.349.349 0 0 0 .073.092l.003.001c.003.001.006 0 .039-.005l.02-.004a.622.622 0 0 1 .027-.004c.137-.019.171.034.171.242v.289c0 .033.009.067.025.108l.04.086c.05.108.07.17.07.252a.411.411 0 0 1-.028.164l-.025.057-.023.05c-.021.053-.04.11-.06.184-.03.116-.062.16-.132.203-.091.055-.13.1-.196.277a2.082 2.082 0 0 0-.07.217c.01.008.009.014.005.03a.064.064 0 0 1-.004.01l-.002.002-.004.005-.002.002-.003.003a.044.044 0 0 1-.006.004l.004-.002a.504.504 0 0 0-.018.022c-.071.093-.16.093-.246.003l.052-.053c.056.06.094.06.137.004l.013-.018Z" clip-rule="evenodd"/><path fill="#272727" d="m10.33 13.414.046-.372c.806.098 1.344.148 1.615.148.41.018.897-.011 1.462-.09l.05.372a8.518 8.518 0 0 1-1.52.093c-.283 0-.831-.05-1.652-.151Z"/></g></g></g><rect width="23" height="17" x=".5" y=".5" stroke="#000" stroke-opacity=".1" rx="1.5"/><defs><clipPath id="a"><rect width="24" height="18" fill="#fff" rx="2"/></clipPath></defs></svg>