<svg xmlns="http://www.w3.org/2000/svg" fill="none" viewBox="0 0 24 18"><g clip-path="url(#a)"><mask id="b" width="24" height="18" x="0" y="0" maskUnits="userSpaceOnUse" style="mask-type:luminance"><path fill="#fff" d="M0 0h24v18H0z"/></mask><g mask="url(#b)"><path fill="#1C9975" fill-rule="evenodd" d="M0 0v18h24V0z" clip-rule="evenodd"/><mask id="c" width="24" height="18" x="0" y="0" maskUnits="userSpaceOnUse" style="mask-type:luminance"><path fill="#fff" fill-rule="evenodd" d="M0 0v18h24V0z" clip-rule="evenodd"/></mask><g mask="url(#c)"><path fill="#FECA00" fill-rule="evenodd" d="m12.016 5.14-1.225.74.28-1.443-1.021-1.08 1.381-.06.585-1.347.585 1.348h1.379l-1.018 1.139.306 1.443zm-3.479.548-.758.458.173-.893-.63-.668.854-.036.361-.833.361.833h.853l-.63.704.19.893zm6.899 0-.758.458.173-.893-.631-.668.854-.036.361-.833.362.833h.853l-.63.704.19.893zm-8.861 1.52-.608.367.138-.716-.506-.536.686-.03.29-.668.29.669h.684l-.505.565.152.716zm11.095 0-.608.367.14-.716-.507-.536.685-.03.29-.668.29.669h.685l-.505.565.152.716z" clip-rule="evenodd"/><mask id="d" width="12" height="13" x="6" y="4" maskUnits="userSpaceOnUse" style="mask-type:luminance"><path fill="#fff" fill-rule="evenodd" d="M12 16.5a6 6 0 1 0 0-12 6 6 0 0 0 0 12" clip-rule="evenodd"/></mask><g fill="#F7FCFF" mask="url(#d)"><path fill-rule="evenodd" d="M9.51 15.798h4.98v.804H9.51zm-2.042-1.203h9.575v.737H7.468z" clip-rule="evenodd"/><path d="M9.465 14.266H6.537v-.75H9.46c1.035-.015 1.792-.31 2.297-.88l.252-.283.28.254c.675.612 1.348.909 2.03.909h3.228v.75h-3.229c-.782 0-1.538-.295-2.26-.871-.64.567-1.51.855-2.593.87"/></g><path fill="#F7FCFF" fill-rule="evenodd" d="M12.026 5.706s-1.282 1.266-1.282 3.003c0 .372.06.723.151 1.046-.412-.915-.441-1.908-.085-2.99l-.485-.16c-.362 1.101-.364 2.137-.004 3.096a6.2 6.2 0 0 0-2.48-.847l-.056.508a5.6 5.6 0 0 1 2.176.72 4 4 0 0 0-.51-.168c-1.623-.414-3.214.173-3.214.173s.918 2.06 2.696 2.364q.133.022.263.035h-.014c-.847 0-1.636-.347-2.374-1.05l-.353.369c.83.79 1.742 1.192 2.727 1.192.964 0 1.86-.384 2.678-1.14.13-.08.208-.136.22-.146l.032.028-.025.044s.08.05.226.118c.807.626 1.818 1.096 2.618 1.096.985 0 1.897-.401 2.726-1.192l-.352-.37c-.738.704-1.527 1.051-2.374 1.051q-.465 0-.911-.15c.417.023.876-.015 1.351-.16 1.752-.536 2.482-2.155 2.482-2.155s-.932-.503-2.116-.509q.398-.103.83-.15l-.055-.508q-1.666.184-2.877 1.123c.471-1.036.508-2.164.11-3.372l-.485.16c.325.987.33 1.898.016 2.745.054-.25.085-.518.085-.8 0-1.832-1.335-3.004-1.335-3.004m.564 5.36-.02.028.024-.028zm-1.239-.119.05-.046q.069.114.136.214a6 6 0 0 0-.186-.168" clip-rule="evenodd"/></g></g></g><rect width="23" height="17" x=".5" y=".5" stroke="#000" stroke-opacity=".1" rx="1.5"/><defs><clipPath id="a"><rect width="24" height="18" fill="#fff" rx="2"/></clipPath></defs></svg>