<svg xmlns="http://www.w3.org/2000/svg" fill="none" viewBox="0 0 24 18"><g clip-path="url(#a)"><mask id="b" width="24" height="18" x="0" y="0" maskUnits="userSpaceOnUse" style="mask-type:luminance"><path fill="#fff" d="M0 0h24v18H0z"/></mask><g mask="url(#b)"><path fill="#2E42A5" fill-rule="evenodd" d="M0 0v18h24V0H0Z" clip-rule="evenodd"/><mask id="c" width="24" height="18" x="0" y="0" maskUnits="userSpaceOnUse" style="mask-type:luminance"><path fill="#fff" fill-rule="evenodd" d="M0 0v18h24V0H0Z" clip-rule="evenodd"/></mask><g mask="url(#c)"><path fill="#FECA00" fill-rule="evenodd" stroke="#F7FCFF" stroke-width=".5" d="M15.785 7.524s.665 8.949 3.662 8.949c2.996 0 3.733-8.949 3.733-8.949h-7.395Z" clip-rule="evenodd"/><path fill="#CF6900" fill-rule="evenodd" d="m19.433 7.966.11-.124.52.332c.076-.117.21-.172.398-.163l-.19-.289.155-.082.36.434.036.01-.091-.563.18-.021.119.73h.009c.05 0 .108.025.167.064l.129-.794.18.021-.09.564.035-.011.36-.434.155.082-.19.29c.188-.01.323.045.398.162l.52-.332.11.124-.57.364a.727.727 0 0 1 .01.135v.085l.789-.173.058.147-.846.3v.102l.802-.065.024.153-.826.12v.177l.828.137-.033.153-.795-.12v1.725h-.122V9.463l-.533-.08c-.06.422-.128.953-.118 1.145.01.19.15.27.25.328.078.044.13.074.073.128-.127.125-.446.245-.765.245-.32 0-.634-.12-.703-.245-.012-.022-.01-.02 0-.008.051.058.3.344.32-.448a4.34 4.34 0 0 0-.127-1.127l-.415.062v1.742h-.121V9.482l-.795.119-.034-.153.829-.137v-.176l-.827-.12.024-.154.803.065v-.103l-.846-.3.058-.146.788.173v-.085c0-.049.004-.094.011-.135l-.57-.364Zm1.043 1.239.008.025-.37.061v-.139l.362.053Zm.008-.57-.016.019-.354-.078v-.11a.64.64 0 0 1 .003-.064l.367.234Zm.235-.231a2.273 2.273 0 0 0-.12.111l-.436-.278c.061-.106.182-.145.37-.117l.186.284Zm.802.192.563-.359c-.062-.106-.182-.145-.37-.117l-.261.398c.024.026.046.052.068.078Zm.19.073.418-.267c.002.02.003.041.003.063v.111l-.421.093Zm.168.287.253-.09v.07l-.253.02Zm-.194.261.447-.065v.14l-.447-.075Zm-1.57-.35v.069l.252.02-.253-.09Z" clip-rule="evenodd"/><path fill="#00A727" fill-rule="evenodd" d="M18.659 11.882s-.986 1.65-.986 2.65c0 0 .672.533 1.826.533 1.155 0 1.75-.533 1.75-.533-.326-1.185-.88-2.65-.88-2.65h-1.71Z" clip-rule="evenodd"/><path fill="#E31D1C" fill-rule="evenodd" d="M18.706 11.426a.823.823 0 1 1 1.646 0v.563h-1.646v-.563Z" clip-rule="evenodd"/><path fill="#FF927F" fill-rule="evenodd" d="M16.14 9.625s1.3.268 1.3.69c0 .423.523.575.652.461.129-.114 1.035-.194 1.035-.745 0-.55.076-.7-.145-1.05-.22-.35-.679-1.531-.784-1.058-.106.474-.265.825-.559.542-.293-.282-.67-.88-.803-.542-.132.338.42.677 0 .677s-.124.022-.124.308.05.556-.261.556c-.312 0-.312.161-.312.161Z" clip-rule="evenodd"/><path fill="#2B409A" d="M-4-3h18v14H-4z"/><mask id="d" width="18" height="14" x="-4" y="-3" maskUnits="userSpaceOnUse" style="mask-type:luminance"><path fill="#fff" d="M-4-3h18v14H-4z"/></mask><g mask="url(#d)"><path fill="#F7FCFF" d="m-6.004 10 3.96 1.737L14.09-1.11l2.09-2.582-4.236-.58-6.58 5.536-5.297 3.73L-6.004 10Z"/><path fill="#F50100" d="m-5.462 11.217 2.018 1.008L15.429-3.933h-2.834l-18.057 15.15Z"/><path fill="#F7FCFF" d="m16.004 10-3.96 1.737L-4.09-1.11l-2.09-2.582 4.236-.58 6.58 5.536 5.297 3.73L16.004 10Z"/><path fill="#F50100" d="m15.87 10.873-2.019 1.008-8.036-6.918-2.383-.773-9.812-7.874h2.833L6.26 4.004l2.605.926 7.004 5.943Z"/><mask id="e" width="22" height="18" x="-6" y="-5" fill="#000" maskUnits="userSpaceOnUse"><path fill="#fff" d="M-6-5h22v18H-6z"/><path fill-rule="evenodd" d="M5.985-3h-2v6H-4v2h7.985v6h2V5H14V3H5.985v-6Z" clip-rule="evenodd"/></mask><path fill="#F50100" fill-rule="evenodd" d="M5.985-3h-2v6H-4v2h7.985v6h2V5H14V3H5.985v-6Z" clip-rule="evenodd"/><path fill="#F7FCFF" d="M3.985-3v-1.5h-1.5V-3h1.5Zm2 0h1.5v-1.5h-1.5V-3Zm-2 6v1.5h1.5V3h-1.5ZM-4 3V1.5h-1.5V3H-4Zm0 2h-1.5v1.5H-4V5Zm7.985 0h1.5V3.5h-1.5V5Zm0 6h-1.5v1.5h1.5V11Zm2 0v1.5h1.5V11h-1.5Zm0-6V3.5h-1.5V5h1.5ZM14 5v1.5h1.5V5H14Zm0-2h1.5V1.5H14V3ZM5.985 3h-1.5v1.5h1.5V3Zm-2-4.5h2v-3h-2v3Zm1.5 4.5v-6h-3v6h3ZM-4 4.5h7.985v-3H-4v3Zm1.5.5V3h-3v2h3Zm6.485-1.5H-4v3h7.985v-3Zm1.5 7.5V5h-3v6h3Zm.5-1.5h-2v3h2v-3ZM4.485 5v6h3V5h-3ZM14 3.5H5.985v3H14v-3ZM12.5 3v2h3V3h-3ZM5.985 4.5H14v-3H5.985v3ZM4.485-3v6h3v-6h-3Z" mask="url(#e)"/></g></g></g></g><path stroke="#000" stroke-opacity=".1" stroke-width=".5" d="M.25.25h23.5v17.5H.25z"/><defs><clipPath id="a"><path fill="#fff" d="M0 0h24v18H0z"/></clipPath></defs></svg>