<svg xmlns="http://www.w3.org/2000/svg" fill="none" viewBox="0 0 24 18"><g clip-path="url(#a)"><mask id="b" width="24" height="18" x="0" y="0" maskUnits="userSpaceOnUse" style="mask-type:luminance"><path fill="#fff" d="M0 0h24v18H0z"/></mask><g mask="url(#b)"><path fill="#279E19" fill-rule="evenodd" d="M0 0v18h24V0z" clip-rule="evenodd"/><mask id="c" width="24" height="18" x="0" y="0" maskUnits="userSpaceOnUse" style="mask-type:luminance"><path fill="#fff" fill-rule="evenodd" d="M0 0v18h24V0z" clip-rule="evenodd"/></mask><g mask="url(#c)"><path fill="#F7FCFF" fill-rule="evenodd" d="M12.75 0h1.5v9.75H24v1.5h-9.75V18h-1.5v-6.75H0v-1.5h12.75z" clip-rule="evenodd"/><path fill="#272727" fill-rule="evenodd" d="M11.25 0h1.5v8.25H24v1.5H12.75V18h-1.5V9.75H0v-1.5h11.25z" clip-rule="evenodd"/><path fill="#FECA00" fill-rule="evenodd" d="M9.75 0h1.5v6.75H24v1.5H11.25V18h-1.5V8.25H0v-1.5h9.75z" clip-rule="evenodd"/><path fill="#C51918" fill-rule="evenodd" d="M12 15a6 6 0 1 0 0-12 6 6 0 0 0 0 12" clip-rule="evenodd"/><path fill="#804BFF" fill-rule="evenodd" d="M11.044 6.31s.285-.925.947-.447c1.038.511 1.38 1.098 1.782 1.764.4.665-.983.178-1.241-.197-.258-.374-1.69-.496-1.488-.808s0-.312 0-.312" clip-rule="evenodd"/><path fill="#A95601" fill-rule="evenodd" d="M10.81 11.044s-.705.964 0 .964c.704 0 3.561-.207 3.219-.482-.342-.274-2.88 0-2.88 0z" clip-rule="evenodd"/><path fill="#804BFF" fill-rule="evenodd" d="M11.863 11.014c-.043-.049-.686-.471-.937-1.438-.173-.667-.067-1.917.177-2.164.597-.606.947-.25.947.658s.036 3.168-.187 2.944" clip-rule="evenodd"/><path fill="#279E19" fill-rule="evenodd" d="M11.788 10.54s-.074.71.29 1.536 1.1.81 1.1.134c0-.677.537-.042.743.41s-.328-4.01-1.085-5.009c-.758-.998-1.49-1.062-1.269-.417.22.645.22 3.347.22 3.347" clip-rule="evenodd"/><path fill="#FECA00" fill-rule="evenodd" d="M11.345 5.7s-.32.206-.32.772.759-.176.759-.176z" clip-rule="evenodd"/><mask id="d" fill="#fff"><path fill-rule="evenodd" d="m11.414 5.485.66-.471.662.471-.244-.774.653-.484-.812-.007-.258-.77-.258.77-.812.007.652.484zm2.192.283.812.007.258.77.258-.77.812-.007-.653-.483.244-.775-.661.471-.662-.471.244.775zm2.26 2-.653-.483.812-.007.258-.77.258.77.812.007-.653.483.244.775-.66-.472-.662.472zm-.244 1.69.244.774-.653.483.812.007.258.77.258-.77.812-.007-.653-.483.244-.775-.66.472zm-1.204 2.767.258-.77.258.77.812.007-.653.484.244.774-.661-.471-.662.471.244-.774-.652-.484zm-1.682.29-.661.471-.661-.471.244.774-.653.484.812.007.258.77.258-.77.812-.007-.653-.484zm-3.004-.29.812.007-.653.484.244.774-.661-.471-.661.471.244-.774-.653-.484.812-.007.258-.77zm-.796-1.51-.652-.483.244-.775-.662.472-.66-.472.243.775-.653.483.812.007.258.77.258-.77zm-.652-2.947.244.775-.662-.472-.66.472.243-.775-.653-.483.812-.007.258-.77.258.77.812.007zm1.19-1.223.258-.77.812-.007-.653-.483.244-.775-.661.471-.661-.471.244.775-.653.483.812.007z" clip-rule="evenodd"/></mask><path fill="#279E19" fill-rule="evenodd" d="m11.414 5.485.66-.471.662.471-.244-.774.653-.484-.812-.007-.258-.77-.258.77-.812.007.652.484zm2.192.283.812.007.258.77.258-.77.812-.007-.653-.483.244-.775-.661.471-.662-.471.244.775zm2.26 2-.653-.483.812-.007.258-.77.258.77.812.007-.653.483.244.775-.66-.472-.662.472zm-.244 1.69.244.774-.653.483.812.007.258.77.258-.77.812-.007-.653-.483.244-.775-.66.472zm-1.204 2.767.258-.77.258.77.812.007-.653.484.244.774-.661-.471-.662.471.244-.774-.652-.484zm-1.682.29-.661.471-.661-.471.244.774-.653.484.812.007.258.77.258-.77.812-.007-.653-.484zm-3.004-.29.812.007-.653.484.244.774-.661-.471-.661.471.244-.774-.653-.484.812-.007.258-.77zm-.796-1.51-.652-.483.244-.775-.662.472-.66-.472.243.775-.653.483.812.007.258.77.258-.77zm-.652-2.947.244.775-.662-.472-.66.472.243-.775-.653-.483.812-.007.258-.77.258.77.812.007zm1.19-1.223.258-.77.812-.007-.653-.483.244-.775-.661.471-.661-.471.244.775-.653.483.812.007z" clip-rule="evenodd"/><path fill="#FECA00" d="m12.075 5.014.058-.082-.058-.041-.058.041zm-.661.471-.096-.03-.09.285.244-.173zm1.322 0-.058.082.243.173-.09-.285zm-.244-.774-.06-.08-.057.042.022.068zm.653-.484.06.08.24-.177-.3-.003zm-.812-.007-.095.032.023.067.07.001zm-.258-.77.095-.032-.095-.283-.095.283zm-.258.77v.1h.072l.023-.068zm-.812.007-.001-.1-.299.003.24.178zm.652.484.096.03.021-.068-.057-.043zm2.76 1.064.096-.032-.023-.067h-.071zm-.811-.007-.06-.08-.24.177.299.003zm1.07.777-.095.032.095.283.095-.283zm.258-.77-.001-.1h-.072l-.022.068zm.812-.007v.1l.3-.003-.24-.178zm-.653-.483-.095-.03-.022.067.057.043zm.244-.775.095.03.09-.285-.243.174zm-.661.471-.058.082.058.041.058-.041zm-.662-.471.059-.081-.244-.174.09.285zm.244.775.06.08.057-.043-.021-.068zm.955 2v-.1l-.3.003.24.177zm.653.483.095.03.022-.068-.058-.042zm.16-.49v.1l.072-.001.022-.068zm.257-.77.095-.032-.095-.283-.095.283zm.258.77-.095.031.023.068h.071zm.812.007.06.08.24-.177-.299-.003zm-.653.483-.06-.08-.056.042.021.068zm.244.775-.058.081.244.174-.09-.285zm-.66-.472.057-.081-.058-.041-.058.04zm-.662.472-.095-.03-.09.285.243-.174zm.244 1.689.06.08.057-.042-.022-.068zm-.244-.775.058-.081-.243-.173.09.284zm-.409 1.258-.06-.08-.24.177.3.003zm.812.007.095-.031-.023-.068h-.07zm.258.77-.095.032.095.283.095-.283zm.258-.77v-.1l-.072.001-.023.068zm.812-.007.001.1.299-.003-.24-.177zm-.653-.483-.095-.03-.021.068.057.042zm.244-.775.096.03.09-.284-.244.173zm-.66.472-.059.081.058.042.058-.042zm-1.608 1.526.095-.032-.095-.283-.095.283zm-.258.77v.1h.072l.023-.068zm.516 0-.095.032.022.067h.072zm.812.007.06.08.24-.177-.3-.003zm-.653.484-.06-.08-.057.042.022.067zm.244.774-.058.082.243.173-.09-.285zm-.661-.471.058-.082-.058-.041-.058.041zm-.662.471-.095-.03-.09.285.243-.173zm.244-.774.096.03.021-.069-.057-.042zm-.652-.484-.001-.1-.299.003.24.178zm-1.531.754-.058.082.058.041.058-.041zm.661-.471.095.03.09-.285-.243.173zm-1.322 0 .058-.082-.244-.173.09.285zm.244.774.059.08.057-.042-.021-.068zm-.653.484-.06-.08-.24.177.299.003zm.812.007.095-.032-.023-.067-.071-.001zm.258.77-.095.032.095.283.095-.283zm.258-.77-.001-.1h-.072l-.022.068zm.812-.007v.1l.3-.003-.24-.178zm-.653-.484-.095-.03-.022.068.057.043zm-1.948-1.057.06.08.24-.177-.3-.003zm-.812-.007-.095.032.022.067h.072zm.16.49-.06-.08-.058.043.022.067zm.243.775-.058.082.243.173-.09-.285zm-.661-.471.058-.082-.058-.041-.058.041zm-.661.471-.096-.03-.09.285.244-.173zm.244-.774.095.03.021-.069-.057-.042zm-.653-.484-.001-.1-.299.003.24.178zm.812-.007v.1h.072l.023-.068zm.258-.77.095-.032-.095-.283-.095.283zm-1.19-1.223-.096-.03-.021.068.057.042zm.652.483.001.1.299-.003-.24-.177zm-.408-1.258.095.03.09-.284-.243.173zm-.662.472-.058.081.058.042.058-.042zm-.66-.472.057-.081-.243-.173.09.284zm.243.775.06.08.057-.042-.022-.068zm-.653.483-.06-.08-.24.177.3.003zm.812.007.095-.031-.022-.068h-.072zm.258.77-.095.032.095.283.095-.283zm.258-.77v-.1l-.072.001-.023.068zm.404-2.18-.058.082.243.174-.09-.285zm-.244-.774-.06-.08-.057.042.021.068zm-.418.303.058-.081-.058-.041-.058.04zm-.66.472-.096-.03-.09.285.243-.174zm.243-.775.095.03.022-.068-.057-.042zm-.653-.483v-.1l-.3.003.24.177zm.812-.007.001.1.072-.001.022-.068zm.258-.77.095-.032-.095-.283-.095.283zm.258.77-.095.031.023.068h.071zm.812.007.06.08.24-.177-.299-.003zm.796-1.51-.001-.1h-.072l-.022.068zm-.258.77-.095.032.095.283.095-.283zm1.07-.777v.1l.3-.003-.24-.178zm-.653-.483-.095-.03-.022.067.058.043zm.244-.775.095.03.09-.285-.243.174zm-.661.471-.058.082.058.041.058-.041zm-.661-.471.058-.081-.244-.174.09.285zm.244.775.059.08.057-.043-.021-.068zm-.653.483-.06-.08-.24.177.299.003zm.812.007.095-.032-.023-.067h-.071zm2.8-.843-.66.472.116.163.66-.472zm.778.472-.661-.472-.116.163.661.472zm-.397-.663.244.774.19-.06-.244-.774zm.688-.594-.653.483.12.161.652-.483zm-.753.173.812.007.002-.2-.812-.007zm-.352-.838.258.77.19-.064-.258-.77zm-.068.77.258-.77-.19-.064-.258.77zm-.906.075.812-.007-.002-.2-.812.007zm.711.303-.653-.483-.119.16.653.484zm-.208.885.244-.774-.19-.06-.245.774zm2.91.16-.812-.007-.002.2.812.007zm.351.838-.257-.77-.19.064.258.77zm.069-.77-.258.77.19.064.257-.77zm.906-.075-.812.007.002.2.811-.007zm-.711-.303.652.483.12-.16-.653-.484zm.208-.885-.244.774.19.06.244-.774zm-.508.583.661-.472-.116-.162-.661.47zm-.778-.472.662.472.116-.163-.662-.471zm.398.663-.244-.774-.19.06.243.775zm-.689.594.653-.483-.12-.16-.652.482zm1.489 1.517.652.484.12-.161-.653-.483zm.87-.187-.812.007.002.2.812-.007zm.164-.702-.257.77.19.063.257-.77zm.448.77-.258-.77-.19.063.258.77zm.718-.061-.812-.007-.002.2.812.007zm-.594.664.653-.484-.12-.16-.652.483zm.28.664-.244-.775-.19.06.243.775zm-.815-.36.661.471.117-.163-.662-.471zm-.545.471.661-.471-.116-.163-.661.471zm.09-.886-.243.775.19.06.244-.775zm.191 2.464-.244-.775-.19.06.244.775zm-.688.593.652-.483-.119-.16-.652.483zm.753-.173-.812-.007-.002.2.812.007zm.352.839-.258-.77-.19.063.258.77zm.068-.77-.258.77.19.063.258-.77zm.906-.076-.812.007.002.2.812-.007zm-.711-.303.653.483.119-.16-.653-.483zm.208-.885-.244.775.19.06.245-.775zm-.508.583.662-.471-.117-.163-.66.471zm-.777-.471.661.471.116-.163-.661-.471zm-.983 1.884-.258.77.19.064.258-.77zm.447.77-.258-.77-.19.064.259.77zm.718-.06-.812-.008-.001.2.812.007zm-.594.663.653-.483-.119-.161-.652.483zm.28.664-.244-.775-.19.06.244.775zm-.814-.36.66.472.117-.163-.661-.472zm-.546.472.662-.472-.116-.163-.662.472zm.091-.887-.244.775.19.06.245-.774zm-.617-.372.653.483.119-.16-.653-.484zm.87-.188-.811.007.002.2.812-.007zm-2.283.943.661-.472-.116-.163-.661.472zm-.778-.472.662.472.116-.163-.661-.472zm.398.663-.244-.774-.19.06.243.774zm-.689.594.653-.483-.119-.16-.653.482zm.754-.173-.812-.007-.002.2.812.007zm.352.838-.258-.77-.19.064.258.77zm.068-.77-.258.77.19.064.258-.77zm.906-.075-.812.007.002.2.812-.007zm-.712-.303.653.483.12-.16-.653-.484zm.209-.885-.244.774.19.06.244-.774zm-2.096-.353-.812-.007-.002.2.812.007zm-.594.664.652-.483-.119-.161-.652.483zm.28.664-.245-.775-.19.06.244.775zm-.815-.36.661.472.116-.163-.661-.472zm-.545.472.66-.472-.115-.163-.662.472zm.09-.887-.244.775.19.06.245-.774zm-.617-.372.653.483.119-.16-.653-.484zm.871-.188-.812.007.002.2.812-.007zm.164-.702-.258.77.19.064.258-.77zm.448.77-.258-.77-.19.064.258.77zm-1.603-1.88.653.482.119-.16-.653-.483zm.208-.886-.244.775.191.06.244-.775zm-.508.583.662-.471-.116-.163-.662.471zm-.777-.471.661.471.116-.163-.66-.471zm.397.663L7.3 9.427l-.19.06.244.775zm-.688.593.653-.483-.12-.16-.652.483zm.753-.173-.812-.007-.002.2.813.007zm.352.839-.258-.77-.19.063.258.77zm.068-.77-.258.77.19.063.258-.77zm.906-.076-.812.007.002.2.812-.007zm-.312-2.102-.244-.775-.19.06.243.775zm-.815-.36.662.471.116-.163-.662-.471zm-.545.471.661-.471-.116-.163-.661.471zm.09-.886-.243.775.19.06.244-.775zm-.616-.373.653.484.119-.161-.653-.483zm.87-.187-.812.007.002.2.812-.007zm.164-.702-.257.77.19.063.257-.77zm.448.77-.258-.77-.19.063.258.77zm.718-.061-.812-.007-.002.2.812.007zm-.594.664.653-.484-.12-.16-.652.483zm1.294-2.106-.258.77.19.064.258-.77zm.906-.075-.812.007.002.2.812-.007zm-.711-.303.652.483.12-.16-.653-.484zm.208-.885-.244.774.19.06.244-.774zm-.508.583.661-.472-.116-.162-.661.47zm-.778-.472.662.472.116-.163-.661-.471zm.398.663-.244-.774-.19.06.243.775zm-.689.594.653-.483-.119-.16-.653.482zm.754-.173-.812-.007-.002.2.812.007zm.352.838-.258-.77-.19.064.258.77z" mask="url(#d)"/></g></g></g><rect width="23" height="17" x=".5" y=".5" stroke="#000" stroke-opacity=".1" rx="1.5"/><defs><clipPath id="a"><rect width="24" height="18" fill="#fff" rx="2"/></clipPath></defs></svg>