<svg xmlns="http://www.w3.org/2000/svg" fill="none" viewBox="0 0 24 18"><g clip-path="url(#a)"><mask id="b" width="24" height="18" x="0" y="0" maskUnits="userSpaceOnUse" style="mask-type:luminance"><path fill="#fff" d="M0 0h24v18H0z"/></mask><g mask="url(#b)"><path fill="#5196ED" fill-rule="evenodd" d="M0 0v18h24V0z" clip-rule="evenodd"/><mask id="c" width="24" height="18" x="0" y="0" maskUnits="userSpaceOnUse" style="mask-type:luminance"><path fill="#fff" fill-rule="evenodd" d="M0 0v18h24V0z" clip-rule="evenodd"/></mask><g fill-rule="evenodd" clip-rule="evenodd" mask="url(#c)"><path fill="#AF0100" d="M0 9v4.5h24V9z"/><path fill="#F7FCFF" d="M0 4.5V9h24V4.5z"/><path fill="#FECA00" d="M0 0v4.5h24V0z"/><path fill="#5EAA22" d="m0 0 14.25 9L0 18z"/><path fill="#F7FCFF" d="M5.479 12.376s-2.688-.917-2.593-3.79c.095-2.87 2.832-3.433 2.832-3.433-.959-.692-4.388.119-4.498 3.434s3.237 4.052 4.259 3.789m.08-5.02.085-.49-.357-.348.493-.071L6 6l.22.447.494.071-.357.348.084.49-.44-.231zm.085 1.01-.085.49.441-.23.441.232-.084-.491.356-.348-.492-.071L6 7.5l-.221.447-.493.071zm-.085 1.99.085-.49-.357-.348.493-.071L6 9l.22.447.494.071-.357.348.084.49-.44-.231zm0 1.5.085-.49-.357-.348.493-.071L6 10.5l.22.447.494.071-.357.348.084.49-.44-.231z"/></g></g></g><rect width="23" height="17" x=".5" y=".5" stroke="#000" stroke-opacity=".1" rx="1.5"/><defs><clipPath id="a"><rect width="24" height="18" fill="#fff" rx="2"/></clipPath></defs></svg>