<svg xmlns="http://www.w3.org/2000/svg" fill="none" viewBox="0 0 24 18"><g clip-path="url(#a)"><mask id="b" width="24" height="18" x="0" y="0" maskUnits="userSpaceOnUse" style="mask-type:luminance"><path fill="#fff" d="M0 0h24v18H0z"/></mask><g mask="url(#b)"><path fill="#F7FCFF" fill-rule="evenodd" d="M0 0v18h24V0H0Z" clip-rule="evenodd"/><mask id="c" width="24" height="18" x="0" y="0" maskUnits="userSpaceOnUse" style="mask-type:luminance"><path fill="#fff" fill-rule="evenodd" d="M0 0v18h24V0H0Z" clip-rule="evenodd"/></mask><g mask="url(#c)"><path fill="#3D58DB" fill-rule="evenodd" d="M12 13.665c2.402 0 4.35-2.068 4.35-4.62 0-2.55-1.948-4.618-4.35-4.618-2.402 0-4.35 2.068-4.35 4.619 0 2.55 1.948 4.619 4.35 4.619Z" clip-rule="evenodd"/><mask id="d" width="10" height="10" x="7" y="4" maskUnits="userSpaceOnUse" style="mask-type:luminance"><path fill="#fff" fill-rule="evenodd" d="M12 13.665c2.402 0 4.35-2.068 4.35-4.62 0-2.55-1.948-4.618-4.35-4.618-2.402 0-4.35 2.068-4.35 4.619 0 2.55 1.948 4.619 4.35 4.619Z" clip-rule="evenodd"/></mask><g mask="url(#d)"><path fill="#E31D1C" fill-rule="evenodd" d="M16.501 9.4s-.244-2.178-2.052-2.297c-1.808-.118-2.295 1.598-2.4 2.052-.104.455-.368 1.667-2.272 1.667-1.903 0-2.075-3.083-2.075-3.083V4.104h8.8V9.4Z" clip-rule="evenodd"/></g><path fill="#272727" fill-rule="evenodd" d="m5.474 1.54.687.62-3.18 3.714-.687-.62 3.18-3.715Zm1.132 1.004.686.62-3.066 3.66-.686-.62 3.066-3.66ZM8.42 4.18l-.686-.62-3.075 3.687.686.62L8.42 4.182Zm10.603-2.901-.687.618 1.191 1.397.686-.618-1.19-1.397Zm2.116 2.57-.686.618 1.19 1.397.687-.618-1.191-1.397Zm-5.068.06.686-.618 1.19 1.397-.685.619L16.07 3.91Zm2.803 1.952-.687.619 1.19 1.397.687-.619-1.19-1.397Zm-1.627-2.988.686-.618 3.314 4.036-.686.618-3.314-4.036Zm2.294 7.809-.692-.62-1.2 1.402.692.621 1.2-1.403Zm-2.018 2.469-.692-.621-1.201 1.402.692.621 1.2-1.402Zm3.512-1.126.692.62-1.2 1.403-.693-.62 1.2-1.403Zm-1.228 3.146-.692-.62-1.2 1.402.692.62 1.2-1.402Zm-1.832-1.687.692.62-1.253 1.498-.692-.62 1.253-1.498Zm2.748-1.875-.692-.621-1.253 1.498.692.62 1.253-1.497Zm-15.918-.441.686-.62 3.064 3.51-.687.62-3.063-3.51Zm.715 3.07.686-.62L7.5 15.04l-.687.62-1.293-1.422Zm-2.288-1.72-.686.62 3.079 3.557.686-.62-3.079-3.557Zm.488-.404.687-.619 1.122 1.316-.687.619-1.122-1.316Z" clip-rule="evenodd"/></g></g></g><path stroke="#000" stroke-opacity=".1" stroke-width=".5" d="M.25.25h23.5v17.5H.25z"/><defs><clipPath id="a"><path fill="#fff" d="M0 0h24v18H0z"/></clipPath></defs></svg>