<svg xmlns="http://www.w3.org/2000/svg" fill="none" viewBox="0 0 24 18"><g clip-path="url(#a)"><mask id="b" width="24" height="18" x="0" y="0" maskUnits="userSpaceOnUse" style="mask-type:luminance"><path fill="#fff" d="M0 0h24v18H0z"/></mask><g mask="url(#b)"><path fill="#58A5FF" fill-rule="evenodd" d="M18-3h10v24H18zM0 0h9v18H0z" clip-rule="evenodd"/><path fill="#fff" fill-rule="evenodd" d="M6-3h12v24H6z" clip-rule="evenodd"/><path fill="#6C301F" fill-rule="evenodd" d="m7.769 12.718.521.684 2.37-3.212v-.57z" clip-rule="evenodd"/><path fill="#979797" d="m9.404 9.136.174-.239c2.243 1.687 3.833 2.982 4.722 4.062l-.555.457c-.845-1.026-2.139-2.625-4.34-4.28m3.615-1.41-.257-.25 1.415-1.46.31.301 1.468-1.367.245.263-1.719 1.6-.297-.288z"/><path fill="#5AB92D" fill-rule="evenodd" d="M8.506 5.445c-.076-.328-.16-.733-.16-.733q-.287.649-.174 1.176-.12.167-.219.312c-.203-.27-.458-.772-.458-.772.01.146.005.296.001.44-.009.342-.017.659.143.858l-.002.004a5 5 0 0 0-.09.197c-.222-.22-.588-.617-.588-.617q.042.715.4 1.118-.066.21-.108.416c-.185-.191-.363-.38-.363-.38.026.434.098.721.287.962a4 4 0 0 0-.006.205c-.195-.202-.394-.412-.394-.412.027.458.206.76.442 1.01q.035.22.095.431l.022.075-.557-.275c.173.4.427.621.715.776q.093.27.195.52a40 40 0 0 1-.778-.225c.276.419.615.585.98.681q.111.234.232.446a45 45 0 0 1-.643-.187c.268.406.596.575.948.672.233.33.482.602.742.805-.287.13-.647.286-.647.286.407.12.732.075 1.03-.04l.034.017q.191.092.434.176c-.235.104-.459.2-.459.2a1.5 1.5 0 0 0 1.009-.031l.032.008c.142.04.288.076.48.124l.436.108c.304.078.477.132.56.179l.017.01.005.002.232-.169a.34.34 0 0 0-.113-.094c-.114-.064-.299-.122-.63-.207l-.445-.11a20 20 0 0 1-.588-.154 1.5 1.5 0 0 0-.214-.976s-.09.552-.152.864a4 4 0 0 1-.48-.19 2 2 0 0 1-.138-.073 1.5 1.5 0 0 0-.381-.94s.004.351.003.655a3.8 3.8 0 0 1-.548-.64l.123.066c.013-.39-.047-.773-.384-1.166 0 0 .005.379.003.69a7 7 0 0 1-.314-.617 1.5 1.5 0 0 0-.033-1.023s-.088.25-.18.503l-.08-.219c.188-.316.31-.667.22-1.15 0 0-.215.382-.378.658l-.033-.113a4 4 0 0 1-.083-.368c.268-.227.486-.511.563-.974 0 0-.36.308-.61.513a4 4 0 0 1 .003-.311c.29-.176.539-.416.69-.842 0 0-.355.21-.632.367q.03-.157.073-.316v.01c.344-.183.646-.426.819-.914 0 0-.356.21-.633.367q.054-.129.117-.259.074-.155.213-.368c.307-.098.592-.266.835-.62l-.5.137q.221-.301.52-.675l-.225-.18z" clip-rule="evenodd"/><path fill="#5AB92D" fill-rule="evenodd" d="M15.634 5.445c.075-.328.16-.733.16-.733q.287.649.173 1.176.121.167.22.312c.203-.27.457-.772.457-.772a5 5 0 0 0 0 .44c.009.342.017.659-.143.858l.002.004q.048.098.09.197c.221-.22.588-.617.588-.617q-.042.715-.4 1.118.065.21.107.416c.185-.191.364-.38.364-.38-.026.434-.099.721-.288.962q.006.103.006.205c.196-.202.395-.412.395-.412-.028.458-.207.76-.442 1.01a4 4 0 0 1-.095.431l-.022.075c.266-.129.557-.275.557-.275-.174.4-.427.621-.716.776q-.091.27-.195.52c.313-.085.779-.225.779-.225-.277.419-.616.585-.98.681a7 7 0 0 1-.232.446c.296-.083.643-.187.643-.187-.268.406-.596.575-.949.672-.232.33-.481.602-.741.805.286.13.647.286.647.286a1.5 1.5 0 0 1-1.03-.04l-.034.017q-.192.092-.434.176c.235.104.458.2.458.2a1.5 1.5 0 0 1-1.008-.031l-.032.008c-.143.04-.288.076-.48.124l-.436.108c-.304.078-.477.132-.56.179l-.018.01-.004.002-.233-.169a.34.34 0 0 1 .113-.094c.114-.064.3-.122.631-.207l.445-.11a21 21 0 0 0 .588-.154 1.5 1.5 0 0 1 .214-.976s.09.552.152.864q.274-.092.48-.19.069-.032.138-.073a1.5 1.5 0 0 1 .38-.94s-.003.351-.002.655q.285-.26.548-.64l-.123.066c-.013-.39.047-.773.383-1.166 0 0-.004.379-.002.69q.165-.286.313-.617a1.5 1.5 0 0 1 .034-1.023s.088.25.18.503l.08-.219c-.189-.316-.31-.667-.22-1.15 0 0 .214.382.378.658l.033-.113q.051-.182.083-.368a1.53 1.53 0 0 1-.563-.974s.36.308.61.513a4 4 0 0 0-.004-.311 1.52 1.52 0 0 1-.689-.842s.355.21.631.367a4 4 0 0 0-.072-.316v.01c-.345-.183-.647-.426-.82-.914 0 0 .357.21.634.367a3.6 3.6 0 0 0-.33-.628 1.5 1.5 0 0 1-.835-.62s.245.07.5.138q-.222-.301-.52-.675l.225-.18z" clip-rule="evenodd"/><path fill="#EFE298" fill-rule="evenodd" d="m9.417 6.323 1.208 3.2h-.888s-.32 1.009.284 1.009h3.714s.404-.253.202-1.01c-.202-.756-1.223-2.845-1.223-2.845s.436-.346.436-.603-.437-.285-.437-.285H9.959c-.352.057-.54.534-.54.534" clip-rule="evenodd"/><path fill="#5AB92D" fill-rule="evenodd" d="M11.88 4.588s-.288.058-.288.24c0 .183-.078.339-.078.339s.088.832.746 1.025c.659.193 1.044.24 1.322.626.277.388 1.127 1.48.786 2.424-.341.943-.609 1.424-.609 1.424s1.244-1.171 1.244-1.727c0-.555-.184-1.093-.735-1.799-.55-.705-.807-1.117-1.218-1.435-.41-.317-.998-.61-.998-.61s.21-.224.104-.33a1 1 0 0 0-.276-.177" clip-rule="evenodd"/></g></g><rect width="23" height="17" x=".5" y=".5" stroke="#000" stroke-opacity=".1" rx="1.5"/><defs><clipPath id="a"><rect width="24" height="18" fill="#fff" rx="2"/></clipPath></defs></svg>