<svg xmlns="http://www.w3.org/2000/svg" fill="none" viewBox="0 0 24 18"><g clip-path="url(#a)"><mask id="b" width="24" height="18" x="0" y="0" maskUnits="userSpaceOnUse" style="mask-type:luminance"><path fill="#fff" d="M0 0h24v18H0z"/></mask><g mask="url(#b)"><path fill="#F7FCFF" d="M0 0h24v18H0z"/><path fill="#C51918" fill-rule="evenodd" d="M0 12h24v6H0z" clip-rule="evenodd"/><path fill="#DB000B" fill-rule="evenodd" d="M13.042 3.75h-2.834v3.462H9.5V5.135H6.667v2.077H5.25v.692h.708v3.461H5.25v.693H18v-.693h-.708V7.904H18v-.692h-1.417V5.135H13.75v2.077h-.708z" clip-rule="evenodd"/><path fill="#272727" d="M7.375 6.442a.615.615 0 1 1 1.23 0v.908h-1.23zm7.084 0a.615.615 0 1 1 1.23 0v.908h-1.23z"/><path fill="#272727" fill-rule="evenodd" d="M7.176 10.103a.815.815 0 0 1 1.629 0v1.4h-1.63z" clip-rule="evenodd"/><path fill="#272727" d="M14.259 10.103a.815.815 0 0 1 1.629 0v1.4h-1.63z"/><path fill="#272727" fill-rule="evenodd" d="M10.42 10.23a1.044 1.044 0 0 1 2.089 0v2.002H10.42z" clip-rule="evenodd"/><path fill="#272727" d="M10.917 5.75a.615.615 0 1 1 1.23 0v1.6h-1.23z"/><path fill="#DE1A23" d="M5.25 6.519h.708v.692H5.25z"/><path fill="#DE1A23" fill-rule="evenodd" d="M6.375 4.5h.75v.75h-.75zm2.864 0h.75v.75h-.75zm-.427 0H7.688v.75h1.125zm4.756 0h.75v.75h-.75zm2.795 0h.75v.75h-.75zm-.46 0h-1.125v.75h1.125zM10.35 3.017H9.6v.75h.75zm1.125 0h-.75v.75h.75zm.375 0h.75v.75h-.75zm1.875 0h-.75v.75h.75z" clip-rule="evenodd"/><path fill="#DE1A23" d="M17.25 6.581H18v.629h-.75z"/><path fill="#E8AA00" fill-rule="evenodd" d="m11.58 13.84 2.034-1.33-2.17-1.016-2.171 1.248zm-.795-1.209.666-.446.703.383-.632.414zm-.678 3.124h1.105v.83-.28h-.687v.28h-.418z" clip-rule="evenodd"/><path fill="#E8AA00" fill-rule="evenodd" d="M11.112 13.585h.938v3h-.938z" clip-rule="evenodd"/></g></g><rect width="23" height="17" x=".5" y=".5" stroke="#000" stroke-opacity=".1" rx="1.5"/><defs><clipPath id="a"><rect width="24" height="18" fill="#fff" rx="2"/></clipPath></defs></svg>