<svg xmlns="http://www.w3.org/2000/svg" fill="none" viewBox="0 0 24 18"><g clip-path="url(#a)"><mask id="b" width="24" height="18" x="0" y="0" maskUnits="userSpaceOnUse" style="mask-type:luminance"><path fill="#fff" d="M0 0h24v18H0z"/></mask><g mask="url(#b)"><path fill="#C51918" fill-rule="evenodd" d="M0 0v18h24V0z" clip-rule="evenodd"/><mask id="c" width="24" height="18" x="0" y="0" maskUnits="userSpaceOnUse" style="mask-type:luminance"><path fill="#fff" fill-rule="evenodd" d="M0 0v18h24V0z" clip-rule="evenodd"/></mask><g mask="url(#c)"><path fill="#FFDC17" fill-rule="evenodd" d="M11.987 13.4q.12 0 .24-.006l.462 1.476.107-1.542q.232-.042.456-.107l.794 1.33-.255-1.526q.216-.094.418-.208l1.082 1.113-.602-1.427q.186-.14.357-.298l1.313.836-.918-1.25q.149-.18.28-.372l1.47.513-1.183-1.006q.104-.207.186-.426l1.55.163-1.386-.709q.053-.225.082-.457l1.546-.196-1.513-.372q-.001-.236-.026-.464l1.458-.544-1.556-.017a4 4 0 0 0-.134-.446l1.29-.862-1.516.34a5 5 0 0 0-.236-.405L16.808 5.4l-1.396.677a5 5 0 0 0-.323-.34l.762-1.343-1.199.977a5 5 0 0 0-.394-.259l.429-1.478-.939 1.223a5 5 0 0 0-.445-.161l.074-1.534-.629 1.403a5 5 0 0 0-.47-.055L11.991 3l-.285 1.508a5 5 0 0 0-.472.054l-.627-1.401.073 1.53q-.23.069-.448.162l-.935-1.22.427 1.473q-.206.12-.398.26l-1.194-.973.758 1.336a5 5 0 0 0-.326.343L7.176 5.4l1.049 1.126a4 4 0 0 0-.239.409L6.48 6.596l1.282.856a4 4 0 0 0-.136.453L6.08 7.92l1.447.54a5 5 0 0 0-.027.47L6 9.301l1.535.195a4 4 0 0 0 .082.463l-1.375.704 1.54-.162q.083.222.188.431l-1.176 1 1.462-.51q.132.195.284.375l-.914 1.244 1.307-.832q.172.159.361.3l-.6 1.421 1.078-1.11q.204.116.421.21l-.253 1.52.792-1.327q.224.065.457.107l.107 1.54.463-1.476q.114.006.229.006m3.375-4.463c0 1.863-1.523 3.374-3.402 3.374s-3.402-1.51-3.402-3.374 1.523-3.375 3.402-3.375 3.402 1.511 3.402 3.375m-1.03 1.099a2.56 2.56 0 0 0 .01-2.067 4 4 0 0 0-1.488.394c.896.392 1.302 1.038 1.479 1.673m-.288.493q-.111.147-.24.278c-.048-.886-.427-1.56-1.106-2.29.84.404 1.315 1.367 1.346 2.012m-.644.608a3 3 0 0 1-.146.09c-.202-.995-.584-1.78-1.116-2.407l.129-.097.052-.039c.681.783 1.11 1.455 1.081 2.454m-1.418.427q.455-.002.86-.148c-.195-.947-.536-1.828-1.029-2.465q-.883 1.052-.9 2.381c.326.149.688.232 1.069.232m-.495-2.917.058.048q-.94 1.07-1.029 2.41a3 3 0 0 1-.221-.172c.236-.944.628-1.722 1.192-2.286m-1.873-.66a4.4 4.4 0 0 1 1.403.375c-.889.378-1.239.987-1.415 1.607a2.6 2.6 0 0 1-.192-.977c0-.357.072-.696.204-1.005m.322 2.564-.058-.079c.045-.652.46-1.576 1.298-1.958a4.5 4.5 0 0 0-1.24 2.037m.19-3.34a2.57 2.57 0 0 1 1.856-.791c.717 0 1.366.294 1.833.768q-1.103.127-1.862.555-.676-.385-1.826-.533" clip-rule="evenodd"/></g></g></g><rect width="23" height="17" x=".5" y=".5" stroke="#000" stroke-opacity=".1" rx="1.5"/><defs><clipPath id="a"><rect width="24" height="18" fill="#fff" rx="2"/></clipPath></defs></svg>