<svg xmlns="http://www.w3.org/2000/svg" fill="none" viewBox="0 0 24 18"><g clip-path="url(#a)"><mask id="b" width="24" height="18" x="0" y="0" maskUnits="userSpaceOnUse" style="mask-type:luminance"><path fill="#fff" d="M0 0h24v18H0z"/></mask><g fill-rule="evenodd" clip-rule="evenodd" mask="url(#b)"><path fill="#F7FCFF" d="M0 0h24v18H0V0Z"/><path fill="#272727" d="M0 0v6h24V0H0Z"/><path fill="#5EAA22" d="M0 12v6h24v-6H0Z"/><path fill="#E31D1C" d="m0 0 12 9-12 9V0Zm17.688 12.477s-2.275-1.375-2.275-3.646c0-2.272 2.275-3.467 2.275-3.467-1.018-.646-4.549.276-4.549 3.54 0 3.265 3.498 3.869 4.549 3.573Zm1.84-4.164-1.323-1.24.457 1.583-1.281.607 1.573.512.683 1.714.3-1.587 1.554.343-1.176-1.148.397-1.225-1.183.44Z"/></g></g><path stroke="#000" stroke-opacity=".1" stroke-width=".5" d="M.25.25h23.5v17.5H.25z"/><defs><clipPath id="a"><path fill="#fff" d="M0 0h24v18H0z"/></clipPath></defs></svg>