<svg xmlns="http://www.w3.org/2000/svg" fill="none" viewBox="0 0 24 18"><g clip-path="url(#a)"><mask id="b" width="24" height="18" x="0" y="0" maskUnits="userSpaceOnUse" style="mask-type:luminance"><path fill="#fff" d="M0 0h24v18H0z"/></mask><g fill-rule="evenodd" clip-rule="evenodd" mask="url(#b)"><path fill="#C51918" d="M0 0h24v16a2 2 0 0 1-2 2H2a2 2 0 0 1-2-2z"/><path fill="#E31D1C" d="M0 0h24v18H0z"/><path fill="#579D20" d="M16.862 14.72 12.125 2.025h-.206L7.347 14.72l4.748-2.854zM11.6 6.167l.508-1.98.527 2.036 1.514 4.243.889 2.054-1.92-1.352-1.024-.614-1.008.606-1.875 1.36.867-2.096z"/><path fill="#579D20" d="m9.497 10.105 2.622 1.743 2.447-1.743 4.646-3.928H4.79zm.054-1.5-1.783-1.09h8.418l-1.531.969-2.547 1.933z"/></g></g><rect width="23" height="17" x=".5" y=".5" stroke="#000" stroke-opacity=".1" rx="1.5"/><defs><clipPath id="a"><rect width="24" height="18" fill="#fff" rx="2"/></clipPath></defs></svg>