<svg xmlns="http://www.w3.org/2000/svg" fill="none" viewBox="0 0 24 18"><g clip-path="url(#a)"><mask id="b" width="24" height="18" x="0" y="0" maskUnits="userSpaceOnUse" style="mask-type:luminance"><path fill="#fff" d="M0 0h24v18H0z"/></mask><g fill-rule="evenodd" clip-rule="evenodd" mask="url(#b)"><path fill="#F50101" d="M24 0H0v4.5h24V0Zm0 13.5H0V18h24v-4.5Z"/><path fill="#F7FCFF" d="M0 4.5h24v9H0v-9Z"/><path fill="#52AB0B" d="M16.136 9.385c.056.65-2.345-.27-2.345-.01 0 .261 2.572.718 2.568 1.301-.005.583-3.05-.166-2.367.096.683.262 2.15.89 1.983 1.281-.356.835-2.72-.58-2.916-.3-.318.45 1.744 1.499 1.726 1.599-.033.192-1.408-.302-1.726.097-.259-.073-.378-.42-.458-.466l-.507-6.543s.455 6.16-.127 6.337c-.582.177-2.198.716-2.245.447-.018-.1 1.946-1.022 1.629-1.471-.234-.332-2.604.844-2.755.163-.674-.486 2.181-.906 2.181-1.402 0-.497-2.612.587-2.3-.104.313-.691 2.404-.939 2.443-1.034.072-.176-2.324.272-2.324 0 0-.516 1.434-.618 2.324-1.082.053-.53-2.16.522-2.324.097-.165-.425 2.828-1.525 2.755-1.61-.116-.136-2.528.475-2.13.154.772-.622 2.279-1.468 2.625-1.694 0 0 .042-.085.087-.056.044-.03.094-.06.094-.06s0 .532-.008.116c-.007-.416 3.533 1.403 3.573 1.864.046.539-2.187-.406-2.135.124.454.281 1.746.826 2.28 1.065.242.109-1.784-.23-1.741-.064.109.424 2.082.477 2.14 1.155Z"/></g></g><path stroke="#000" stroke-opacity=".1" stroke-width=".5" d="M.25.25h23.5v17.5H.25z"/><defs><clipPath id="a"><path fill="#fff" d="M0 0h24v18H0z"/></clipPath></defs></svg>