<svg xmlns="http://www.w3.org/2000/svg" fill="none" viewBox="0 0 24 18"><g clip-path="url(#a)"><mask id="b" width="24" height="18" x="0" y="0" maskUnits="userSpaceOnUse" style="mask-type:luminance"><path fill="#fff" d="M0 0h24v18H0z"/></mask><g mask="url(#b)"><path fill="#E31D1C" fill-rule="evenodd" d="M0 0v18h24V0H0Z" clip-rule="evenodd"/><mask id="c" width="24" height="18" x="0" y="0" maskUnits="userSpaceOnUse" style="mask-type:luminance"><path fill="#fff" fill-rule="evenodd" d="M0 0v18h24V0H0Z" clip-rule="evenodd"/></mask><g mask="url(#c)"><path fill="#2E42A5" fill-rule="evenodd" d="M0 0v9h24V0H0Z" clip-rule="evenodd"/><path fill="#000" fill-rule="evenodd" d="M3.599 8.29s.905.563 3.002.563c2.097 0 3.21-.563 3.21-.563s-1.645-.956-3.115-.956c-1.47 0-3.097.956-3.097.956Z" clip-rule="evenodd"/><path fill="#FFD83D" stroke="#000" stroke-width=".5" d="m3.653 5.057-.216.125.072.125h6.571l.055-.175-.238-.075.239.075V5.13l.002-.005.004-.015a3.613 3.613 0 0 0 .062-.251 3.87 3.87 0 0 0 .083-.644c.02-.492-.06-1.151-.553-1.58l-.164.188.164-.188c-.506-.44-1.145-.368-1.674-.235-.18.045-.366.102-.538.155l-.23.07c-.241.07-.434.115-.586.115-.15 0-.32-.041-.528-.106l-.196-.065a7.811 7.811 0 0 0-.481-.148c-.503-.133-1.092-.184-1.744.185a1.32 1.32 0 0 0-.635.766 1.79 1.79 0 0 0-.032.857 3.144 3.144 0 0 0 .334.93l.009.016.003.005v.002l.217-.125Z"/><path fill="#FFD83D" stroke="#000" stroke-width=".5" d="m3.002 5.345-.117-.22-.193.1.075.206.865 2.376.08.221.226-.067h.003l.011-.004.046-.013.177-.047c.153-.039.373-.09.637-.143a10.28 10.28 0 0 1 1.934-.208c.7 0 1.39.103 1.906.208a11.227 11.227 0 0 1 .789.19l.044.012.01.004h.003l.226.07.082-.22.889-2.377.077-.206-.195-.103-.116.221.116-.22v-.001l-.002-.001-.004-.002-.014-.007a3.57 3.57 0 0 0-.235-.102 6.394 6.394 0 0 0-.723-.23c-.64-.167-1.593-.331-2.868-.331-1.274 0-2.228.164-2.867.33a6.57 6.57 0 0 0-.723.23 3.591 3.591 0 0 0-.235.103l-.014.007-.004.002h-.002v.001l.116.221Zm3.654-2.084c.466 0 .754-.452.754-.884 0-.431-.288-.884-.754-.884-.467 0-.755.453-.755.884 0 .432.288.884.755.884Z"/><mask id="d" width="3" height="4" x="5.088" y="-1" fill="#000" maskUnits="userSpaceOnUse"><path fill="#fff" d="M5.088-1h3v4h-3z"/><path fill-rule="evenodd" d="M6.845 0h-.378l.048.692-.427-.058v.475l.434-.06-.055 1.09h.378l-.056-1.091.434.061V.634l-.426.061L6.845 0Z" clip-rule="evenodd"/></mask><path fill="#FFD83D" fill-rule="evenodd" d="M6.845 0h-.378l.048.692-.427-.058v.475l.434-.06-.055 1.09h.378l-.056-1.091.434.061V.634l-.426.061L6.845 0Z" clip-rule="evenodd"/><path fill="#000" d="M6.467 0v-.5H5.93l.038.535L6.467 0Zm.378 0 .498.035L7.38-.5h-.535V0Zm-.33.692-.067.495.61.083-.044-.613-.499.035ZM6.088.634l.068-.495L5.588.06v.573h.5Zm0 .475h-.5v.574l.569-.078-.069-.496Zm.434-.06.5.026.03-.603-.598.082.068.496Zm-.055 1.09-.5-.025-.026.526h.526v-.5Zm.378 0v.5h.526l-.027-.525-.5.026Zm-.056-1.091.07-.495-.6-.085.03.606.5-.026Zm.434.061-.07.495.57.081V1.11h-.5Zm0-.475h.5V.057L7.152.14l.07.495Zm-.426.061-.5-.034-.042.617.613-.088-.071-.495ZM6.467.5h.378v-1h-.378v1Zm.547.157-.049-.692-.997.07.048.692.998-.07Zm-.993.472.427.058.135-.99-.427-.058-.135.99Zm.567-.02V.634h-1v.475h1ZM6.454.554l-.434.06.137.99.433-.059-.136-.99Zm.512 1.61.055-1.089-.999-.05-.055 1.09.999.05Zm-.121-.524h-.378v1h.378v-1Zm-.556-.566.056 1.091.999-.051-.056-1.092-.999.052Zm1.004-.46L6.859.553l-.14.99.434.061.14-.99Zm-.57.02v.475h1V.634h-1Zm.145.556.426-.061-.142-.99L6.726.2l.142.99ZM6.346-.035l-.048.696.997.069.048-.695-.997-.07Z" mask="url(#d)"/></g></g></g><rect width="23" height="17" x=".5" y=".5" stroke="#000" stroke-opacity=".1" rx="1.5"/><defs><clipPath id="a"><rect width="24" height="18" fill="#fff" rx="2"/></clipPath></defs></svg>