<svg xmlns="http://www.w3.org/2000/svg" fill="none" viewBox="0 0 24 18"><g clip-path="url(#a)"><mask id="b" width="24" height="18" x="0" y="0" maskUnits="userSpaceOnUse" style="mask-type:luminance"><path fill="#fff" d="M0 0h24v18H0z"/></mask><g mask="url(#b)"><path fill="#032EA1" d="M0 0h24v18H0z"/><path fill="#E00025" d="M0 4.5h24v9H0z"/><path fill="#fff" stroke="#000" stroke-linejoin="bevel" stroke-width=".06" d="M9.465 8.482h5.12v1.972h-5.12z"/><path fill="#fff" fill-rule="evenodd" d="M14.586 8.887H9.465v.207h5.12zm-5.121.315h5.12v.225h-5.12zm4.86.365h.157v.742h-.157z" clip-rule="evenodd"/><path fill="#000" d="M9.465 8.887v-.03l-.03.03zm5.12 0h.03l-.03-.03zm-5.12.207h-.03l.03.03zm5.12 0v.03l.03-.03zm0 .108h.03l-.03-.03zm-5.12 0v-.03l-.03.03zm5.12.225v.03l.03-.03zm-5.12 0h-.03l.03.03zm5.017.14h.03l-.03-.03zm-.157 0v-.03l-.03.03zm.157.742v.03l.03-.03zm-.157 0h-.03l.03.03zm-4.86-1.392h5.12v-.06h-5.12zm.03.177v-.207h-.06v.207zm5.09-.03h-5.12v.06h5.12zm-.03-.177v.207h.06v-.207zm.03.285h-5.12v.06h5.12zm.03.255v-.225h-.06v.225zm-5.15.03h5.12v-.06h-5.12zm-.03-.255v.225h.06v-.225zm5.047.335h-.157v.06h.157zm.03.772v-.742h-.06v.742zm-.187.03h.157v-.06h-.157zm-.03-.772v.742h.06v-.742z"/><path fill="#fff" stroke="#000" stroke-linejoin="bevel" stroke-width=".06" d="M9.465 8.581h5.12v.194h-5.12z"/><path fill="#fff" fill-rule="evenodd" d="M9.667 9.567H9.51v.742h.157zm1.148 0h.162v.742h-.162zm2.205 0h.162v.742h-.162zm-3.195 0h.157v.742h-.157zm.495 0h-.158v.742h.158zm.18 0h.157v.742H10.5zm2.988 0h-.162v.742h.162zm.175 0h.162v.742h-.162zm.5 0H14v.742h.162z" clip-rule="evenodd"/><path fill="#000" d="M9.51 9.567v-.03l-.03.03zm.157 0h.03l-.03-.03zm-.157.742h-.03l.03.03zm.157 0v.03l.03-.03zm1.31-.742h.03l-.03-.03zm-.162 0v-.03l-.03.03zm.162.742v.03l.03-.03zm-.162 0h-.03l.03.03zm2.367-.742h.03l-.03-.03zm-.162 0v-.03l-.03.03zm.162.742v.03l.03-.03zm-.162 0h-.03l.03.03zm-3.038-.742h.03l-.03-.03zm-.157 0v-.03l-.03.03zm.157.742v.03l.03-.03zm-.157 0h-.03l.03.03zm.337-.742v-.03l-.03.03zm.158 0h.03l-.03-.03zm-.158.742h-.03l.03.03zm.158 0v.03l.03-.03zm.337-.742h.03l-.03-.03zm-.157 0v-.03l-.03.03zm.157.742v.03l.03-.03zm-.157 0h-.03l.03.03zm2.826-.742v-.03l-.03.03zm.162 0h.03l-.03-.03zm-.162.742h-.03l.03.03zm.162 0v.03l.03-.03zm.337-.742h.03l-.03-.03zm-.162 0v-.03l-.03.03zm.162.742v.03l.03-.03zm-.162 0h-.03l.03.03zm.338-.742v-.03l-.03.03zm.162 0h.03l-.03-.03zm-.162.742h-.03l.03.03zm.162 0v.03l.03-.03zM9.51 9.598h.157v-.06H9.51zm.03.713v-.743h-.06v.742zm.127-.03H9.51v.06h.157zm-.03-.713v.742h.06v-.742zm1.34-.03h-.162v.06h.162zm.03.772v-.742h-.06v.742zm-.192.03h.162v-.06h-.162zm-.03-.772v.742h.06v-.742zm2.397-.03h-.162v.06h.162zm.03.772v-.742h-.06v.742zm-.192.03h.162v-.06h-.162zm-.03-.772v.742h.06v-.742zm-3.008-.03h-.157v.06h.157zm.03.772v-.742h-.06v.742zm-.187.03h.157v-.06h-.157zm-.03-.772v.742h.06v-.742zm.367.03h.158v-.06h-.158zm.03.713v-.743h-.06v.742zm.128-.03h-.158v.06h.158zm-.03-.713v.742h.06v-.742zm.367-.03H10.5v.06h.157zm.03.772v-.742h-.06v.742zm-.187.03h.157v-.06H10.5zm-.03-.772v.742h.06v-.742zm2.856.03h.162v-.06h-.162zm.03.713v-.743h-.06v.742zm.132-.03h-.162v.06h.162zm-.03-.713v.742h.06v-.742zm.367-.03h-.162v.06h.162zm.03.772v-.742h-.06v.742zm-.192.03h.162v-.06h-.162zm-.03-.772v.742h.06v-.742zm.368.03h.162v-.06H14zm.03.713v-.743h-.06v.742zm.132-.03H14v.06h.162zm-.03-.713v.742h.06v-.742z"/><path fill="#fff" stroke="#000" stroke-width=".06" d="M7.462 10.553a.42.42 0 0 0 .198-.239h8.69a.42.42 0 0 0 .198.239z"/><path fill="#fff" fill-rule="evenodd" d="M11.999 5.292c-.108.004-.104.189-.104.189h.203s.004-.189-.1-.189m-.666 2.394v.247h1.332v-.247c.002-.068.038-.102.071-.133.029-.026.055-.05.055-.092 0 0 .018-.135-.023-.198-.045.18-.135.148-.135.072 0-.055.037-.11.115-.223l.038-.056c.036-.054.014-.212-.031-.27-.018.14-.04.202-.1.202-.035 0-.067-.022-.067-.09 0-.054.024-.092.048-.132a.4.4 0 0 0 .042-.084.23.23 0 0 0-.045-.238l-.01.064c-.013.088-.018.125-.066.125-.114-.034-.016-.192.02-.25l.007-.011c.022-.086-.045-.153-.045-.153-.036.117-.045.13-.09.117-.054-.014-.045-.09.018-.153.04-.04.036-.104-.01-.149-.044.09-.116.077-.107.023l.04-.194h-.054l.018-.139h-.715l.018.14h-.05l.036.197c-.004.054-.058.059-.103-.027-.045.045-.05.104-.01.149.064.063.073.14.019.153-.045.013-.054.004-.09-.117 0 0-.072.103-.045.153l.007.013c.037.058.132.21.02.248-.049 0-.054-.037-.067-.125l-.01-.064a.23.23 0 0 0-.05.238q.019.044.041.078c.026.042.05.081.05.138 0 .068-.027.09-.063.09-.059 0-.081-.067-.1-.202-.044.058-.067.216-.03.265l.022.035c.087.133.126.19.126.249 0 .076-.086.108-.135-.072-.036.063-.018.198-.018.198 0 .041.026.065.055.092.034.03.07.065.07.133m.36-2.079.009.112h.585l.013-.112zm.112-.005-.013-.117h.405l-.005.117zm1.26 4.726c0 .094.135.193.225.225h-2.542c.09-.032.18-.131.18-.226V9.235l-.113-.153h2.367l-.117.153z" clip-rule="evenodd"/><path fill="#000" d="M11.895 5.481h-.03v.03h.03zM12 5.292v-.03h-.002zm.099.189v.03h.029v-.03zm-.765 2.452h-.03v.03h.03zm1.332 0v.03h.03v-.03zm0-.247-.03-.001v.001zm.071-.133-.02-.021zm.055-.092-.03-.004v.004zm-.023-.198.025-.016-.037-.059-.017.068zm-.02-.151.025.017zm.038-.056.025.017zm-.031-.27.023-.018-.044-.058-.01.072zm-.12-.02-.025-.016zm.043-.084-.028-.01v.001zm-.045-.238.022-.02-.042-.045-.01.06zm-.01.064.03.004zm-.066.125-.01.03h.01zm.02-.25.025.016zm.007-.011.026.016.003-.008zm-.045-.153.02-.021-.034-.035-.015.047zm-.09.117.008-.029h-.001zm.009-.302.02-.02-.029-.03-.018.037zm-.108.023-.03-.006v.001zm.04-.194.03.007.007-.037h-.037zm-.054 0-.03-.003-.004.033h.034zm.018-.139.03.004.004-.034h-.034zm-.715 0v-.03h-.035l.005.034zm.018.14v.03h.034l-.005-.034zm-.05 0v-.03h-.036l.007.035zm.036.197.031.003-.001-.008zm-.103-.027.026-.013-.019-.037-.029.03zm-.01.149-.022.02.001.001zm.019.153-.008-.03-.001.001zm-.09-.117.028-.009-.017-.06-.036.052zm-.045.153-.027.014.001.002zm.007.013-.025.015zm.02.248v.032l.009-.004zm-.067-.125-.03.004zm0 0 .03-.005zm0 0-.03.004zm-.01-.064.03-.005-.01-.058-.041.042zm-.05.238-.027.011zm.041.078.026-.015zm-.112.026.03-.004-.01-.071-.044.057zm-.032.265.025-.016v-.001zm.023.035-.025.017zm-.01.177.03-.008-.02-.07-.036.063zm-.017.198h.03v-.004zm.055.092.02-.022zm.44-1.834-.03.003.002.027h.028zm-.01-.112v-.03h-.032l.003.032zm.595.112v.03h.026l.003-.026zm.013-.112.03.004.004-.034H12.3zm-.508-.122v-.03h-.034l.004.034zm.013.117-.03.004.003.026h.027zm.392-.117.03.002v-.032h-.03zm-.005.117v.03h.029l.001-.028zm1.098 4.95v.03l.01-.058zm-2.542 0-.01-.028.01.059zm.18-1.318h.03v-.01l-.006-.008zm-.113-.153v-.03h-.06l.036.048zm2.367 0 .024.018.037-.048h-.06zm-.117.153-.024-.018-.006.008v.01zm-1.17-3.753h.03v-.007a.4.4 0 0 1 .01-.078.14.14 0 0 1 .025-.054.05.05 0 0 1 .04-.02l-.003-.06a.11.11 0 0 0-.083.042.2.2 0 0 0-.037.076.4.4 0 0 0-.012.093v.008zm.203-.03h-.203v.06h.203zm-.1-.129q.023 0 .036.018.015.02.024.054a.4.4 0 0 1 .01.08v.006l.03.001h.03v-.009a.4.4 0 0 0-.012-.093.2.2 0 0 0-.035-.076.1.1 0 0 0-.082-.041zm-.635 2.611v-.247h-.06v.247zm1.302-.03h-1.332v.06h1.332zm-.03-.217v.247h.06v-.247zm.08-.154c-.033.03-.078.072-.08.153l.06.002c.002-.055.029-.081.062-.112zm.046-.071c0 .027-.015.043-.045.07l.04.044c.028-.025.065-.058.065-.114zm-.018-.182a.2.2 0 0 1 .021.107l-.003.066v.005l.03.004.03.004v-.007l.002-.017.002-.056a.3.3 0 0 0-.032-.138zm-.14.056q0 .038.022.066a.07.07 0 0 0 .064.024q.037-.009.064-.047a.3.3 0 0 0 .044-.108l-.058-.014a.3.3 0 0 1-.036.088c-.012.017-.021.021-.025.022q-.003.001-.007-.004a.04.04 0 0 1-.008-.027zm.12-.24q-.057.083-.088.136a.2.2 0 0 0-.032.104h.06c0-.02.007-.042.025-.075s.046-.074.085-.131zm.038-.056-.038.056.05.034.038-.056zm-.03-.235a.3.3 0 0 1 .04.122q.005.039.002.07a.1.1 0 0 1-.012.043l.05.034a.2.2 0 0 0 .021-.07.4.4 0 0 0-.002-.084.34.34 0 0 0-.052-.151zm-.075.214A.1.1 0 0 0 12.71 7a.1.1 0 0 0 .037-.048.6.6 0 0 0 .036-.162l-.06-.008a.6.6 0 0 1-.031.145.1.1 0 0 1-.018.026.03.03 0 0 1-.02.005zm-.098-.12q0 .059.028.09a.1.1 0 0 0 .07.03v-.06q-.018 0-.025-.009c-.006-.007-.013-.021-.013-.05zm.052-.148c-.024.04-.052.084-.052.148h.06c0-.045.019-.076.043-.117zm.04-.077a.4.4 0 0 1-.04.077l.051.031a.4.4 0 0 0 .046-.089zm-.039-.208a.2.2 0 0 1 .04.206l.055.023a.26.26 0 0 0-.051-.27zm.042.047.01-.063-.06-.01-.01.064zm-.096.151a.1.1 0 0 0 .045-.012.1.1 0 0 0 .028-.035q.016-.04.023-.104l-.06-.009a.4.4 0 0 1-.017.088q-.005.01-.007.01l-.012.002zm-.006-.296c-.017.028-.053.086-.069.142a.16.16 0 0 0-.004.088q.015.047.07.065l.017-.058c-.02-.006-.026-.015-.03-.025a.1.1 0 0 1 .005-.054.6.6 0 0 1 .062-.126zm.007-.01-.007.01.051.032.007-.011zm-.02-.138-.02.021.001.002.006.007.018.028c.012.024.02.054.012.087l.058.016a.18.18 0 0 0-.017-.13.2.2 0 0 0-.035-.05v-.002h-.001zm-.098.146a.1.1 0 0 0 .041.005.06.06 0 0 0 .04-.025.2.2 0 0 0 .023-.046q.01-.027.023-.071l-.057-.018-.022.068a.1.1 0 0 1-.015.03l-.002.003h.001l-.015-.004zm.005-.203a.2.2 0 0 0-.061.113.1.1 0 0 0 .01.055q.016.027.047.035l.015-.058q-.009-.003-.01-.007-.004-.004-.002-.018a.14.14 0 0 1 .044-.078zm-.009-.106c.036.036.036.08.01.106l.042.042c.055-.054.045-.137-.01-.19zm-.116-.004q-.005.031.013.056a.06.06 0 0 0 .052.022c.037-.002.074-.032.1-.082l-.054-.027c-.02.04-.042.048-.05.049h-.002v-.008zm.04-.195-.04.194.059.012.04-.193zm-.024.036h.054v-.06h-.054zm-.012-.173-.018.14.06.007.018-.14zm-.685.034h.715v-.06h-.715zm.047.106-.018-.14-.06.008.019.14zm-.079.033h.05v-.06h-.05zm.066.163-.036-.198-.06.01.037.199zm-.16-.008c.024.045.055.077.09.082a.06.06 0 0 0 .05-.017.1.1 0 0 0 .02-.049l-.06-.005q-.001.013-.003.012.002 0 0 0c-.004-.001-.023-.01-.044-.05zm.04.115a.07.07 0 0 1-.02-.052.1.1 0 0 1 .028-.055l-.043-.043a.15.15 0 0 0-.045.094.13.13 0 0 0 .035.096zm.003.202a.07.07 0 0 0 .047-.035.1.1 0 0 0 .01-.055.2.2 0 0 0-.061-.113l-.043.042a.14.14 0 0 1 .045.078q0 .014-.003.018 0 .004-.01.007zm-.126-.137.023.073a.2.2 0 0 0 .024.046q.015.02.04.023a.1.1 0 0 0 .04-.005l-.017-.058-.016.004h.001l-.001-.001a.1.1 0 0 1-.014-.03l-.023-.07zm.01.13q-.004-.005-.001-.026a.2.2 0 0 1 .014-.043l.028-.049.002-.003-.024-.018-.025-.017-.001.001-.003.004-.008.013-.023.044a.3.3 0 0 0-.02.058.1.1 0 0 0 .008.064zm.007.01-.008-.012-.051.032.008.012zm.003.293a.1.1 0 0 0 .069-.066.16.16 0 0 0-.004-.086.6.6 0 0 0-.068-.14l-.051.031c.018.03.049.08.062.125q.009.034.003.053c-.003.01-.01.02-.03.027zm-.106-.149q.007.065.023.104a.1.1 0 0 0 .028.035q.021.013.046.012v-.06l-.013-.002q-.002 0-.007-.01a.4.4 0 0 1-.017-.088zm0 0 .06-.009zm0 0 .06-.009zm-.01-.063.01.063.06-.009-.01-.064zm.009.223a.2.2 0 0 1 .043-.207l-.043-.042a.26.26 0 0 0-.056.27zm.038.073-.039-.073-.055.021q.02.049.043.083zm.054.153c0-.066-.029-.112-.054-.153l-.051.03c.025.043.045.075.045.123zm-.093.12c.024 0 .05-.008.068-.03a.14.14 0 0 0 .025-.09h-.06c0 .031-.007.046-.012.052q-.005.008-.021.008zm-.13-.228q.013.102.037.16.013.03.036.05.025.018.057.018v-.06a.03.03 0 0 1-.02-.006.1.1 0 0 1-.018-.026.6.6 0 0 1-.032-.144zm.023.244a.1.1 0 0 1-.01-.04.3.3 0 0 1 .001-.068.3.3 0 0 1 .04-.122l-.047-.036a.34.34 0 0 0-.052.15.4.4 0 0 0-.002.082q.002.039.022.07zm.024.036-.023-.035-.05.033.023.035zm.13.265a.23.23 0 0 0-.033-.11 2 2 0 0 0-.097-.155l-.05.033c.044.067.074.113.094.15s.027.06.027.082zm-.193-.064a.4.4 0 0 0 .046.107q.026.038.063.047a.07.07 0 0 0 .064-.025.1.1 0 0 0 .02-.065h-.06a.05.05 0 0 1-.007.027q-.004.005-.006.004-.005.002-.025-.022a.3.3 0 0 1-.037-.089zm.01.19.03-.004v-.005l-.002-.016a1 1 0 0 1 .002-.11.1.1 0 0 1 .015-.048l-.053-.03a.2.2 0 0 0-.021.068.5.5 0 0 0-.003.125l.002.017v.006zm.076.07c-.03-.028-.045-.044-.045-.07h-.06c0 .056.037.089.064.114zm.08.155c0-.082-.046-.124-.08-.155l-.04.044c.033.03.06.057.06.111zm.37-1.969-.01-.112-.06.004.01.113zm.555-.028h-.585v.06h.585zm-.017-.086-.013.113.06.007.013-.112zm-.577.034h.607v-.06h-.607zm.069-.148.013.117.06-.007-.014-.117zm.435-.034h-.405v.06h.405zm.025.149.005-.117-.06-.003-.005.117zm-.417.028h.387v-.06h-.387zm1.495 4.892a.4.4 0 0 1-.136-.083c-.044-.039-.069-.08-.069-.114h-.06c0 .061.042.117.089.159a.5.5 0 0 0 .156.095zm-2.552.059h2.542v-.06h-2.542zm.15-.255a.2.2 0 0 1-.05.116.3.3 0 0 1-.11.08l.02.057c.05-.018.1-.054.136-.098a.25.25 0 0 0 .064-.155zm0-1.094v1.094h.06V9.234zm-.107-.135.112.153.049-.036-.113-.153zm2.391-.048h-2.367v.06h2.367zm-.093.201.117-.153-.048-.036-.117.153zm.006 1.076V9.234h-.06v1.094z"/><path fill="#fff" fill-rule="evenodd" d="M11.391 9.567h-.162v.742h.162zm1.368 0h-.162v.742h.162z" clip-rule="evenodd"/><path fill="#000" d="M11.229 9.567v-.03l-.03.03zm.162 0h.03l-.03-.03zm-.162.742h-.03l.03.03zm.162 0v.03l.03-.03zm1.206-.742v-.03l-.03.03zm.162 0h.03l-.03-.03zm-.162.742h-.03l.03.03zm.162 0v.03l.03-.03zm-1.53-.712h.162v-.06h-.162zm.03.713v-.743h-.06v.742zm.132-.03h-.162v.06h.162zm-.03-.713v.742h.06v-.742zm1.236.03h.162v-.06h-.162zm.03.713v-.743h-.06v.742zm.132-.03h-.162v.06h.162zm-.03-.713v.742h.06v-.742z"/><path fill="#fff" stroke="#000" stroke-width=".06" d="M10.77 7.839v1.242h2.43V7.839a.19.19 0 0 0-.117.126v.531h-2.191v-.531s-.027-.09-.126-.126z"/><path fill="#fff" stroke="#000" stroke-width=".06" d="M12.867 10.553c-.081-.032-.252-.131-.252-.226V9.105c.018-.068.108-.108.166-.153h-1.606c.076.044.162.076.193.152v1.225c0 .094-.135.193-.216.225z"/><path fill="#fff" fill-rule="evenodd" d="M13.083 8.082v.882h-2.191v-.878h.225v-.09h1.746v.086zm-.751 2.246c0 .094.112.193.193.225h-1.053c.077-.032.194-.131.194-.226V9.28l-.068-.09h.797l-.063.094z" clip-rule="evenodd"/><path fill="#000" d="M13.083 8.964v.03h.03v-.03zm0-.882h.03v-.03h-.03zm-2.191.882h-.03v.03h.03zm0-.878v-.03h-.03v.03zm.225 0v.03h.03v-.03zm0-.09v-.03h-.03v.03zm1.746 0h.03v-.03h-.03zm0 .086h-.03v.03h.03zm-.338 2.47v.03l.011-.058zm-1.053 0-.011-.027.011.057zm.194-1.273h.03v-.01l-.006-.008zm-.068-.09v-.03h-.06l.036.048zm.797 0 .025.017.03-.047h-.055zm-.063.094-.025-.016-.005.007v.01zm.781-.319v-.882h-.06v.882zm-2.221.03h2.191v-.06h-2.191zm-.03-.908v.878h.06v-.878zm.255-.03h-.225v.06h.225zm-.03-.06v.09h.06v-.09zm1.776-.03h-1.746v.06h1.746zm.03.116v-.086h-.06v.086zm.19-.03h-.22v.06h.22zm-.547 2.473a.34.34 0 0 1-.116-.082c-.036-.038-.058-.08-.058-.115h-.06a.24.24 0 0 0 .074.156.4.4 0 0 0 .138.097zm-1.064.057h1.053v-.06h-1.053zm.164-.255c0 .036-.023.077-.06.116a.4.4 0 0 1-.115.082l.022.055a.4.4 0 0 0 .136-.096c.04-.042.077-.098.077-.156zm0-1.048v1.049h.06V9.279zm-.062-.072.068.09.048-.036-.068-.09zm.82-.048h-.796v.06h.797zm-.037.141.063-.094-.05-.034-.063.095zm.005 1.027V9.284h-.06v1.045z"/><path fill="#fff" stroke="#000" stroke-width=".06" d="M11.792 9.189h.405v1.364h-.405z"/><path fill="#fff" stroke="#000" stroke-linejoin="bevel" stroke-width=".06" d="M12.408 8.887c0-.09.261-.094.396-.17h-1.62c.135.076.392.08.392.17l.054.176.675.027z"/><path fill="#fff" fill-rule="evenodd" d="M13.02 7.564s-.22.027-.22.28v-.212c-.068 0-.077.081-.077.301L11.27 7.93c0-.212 0-.302-.082-.302v.698c.167.063.284.27.284.27h1.044s.117-.207.284-.27v.396h.161v-.639s-.067 0-.067-.113c0-.108.04-.184.126-.18z" clip-rule="evenodd"/><path fill="#000" d="M13.02 7.564h.03v-.033l-.034.004zm-.22.068h.03v-.03h-.03zm-.077.301v.03h.03v-.03zM11.27 7.93h-.03v.03h.03zm-.082-.302v-.03h-.03v.03zm0 .698h-.03v.02l.02.008zm.284.27-.026.015.008.015h.018zm1.044 0v.03h.018l.008-.015zm.284-.27h.03v-.043l-.041.015zm0 .396h-.03v.03h.03zm.161 0v.03h.03v-.03zm0-.639h.03v-.03h-.03zm.059-.293-.002.03.032.002V7.79zm-.19.054c0-.115.05-.176.097-.209a.3.3 0 0 1 .095-.04h.002l-.004-.03-.004-.03-.003.001-.036.009a.3.3 0 0 0-.084.04c-.063.044-.123.123-.123.26zm-.06-.211v.211h.06v-.211zm-.017.301c0-.11.002-.182.012-.226a.1.1 0 0 1 .016-.038q.004-.006.018-.007v-.06a.08.08 0 0 0-.062.026.14.14 0 0 0-.03.066q-.016.076-.014.24zm-1.484.026 1.454.004v-.06L11.27 7.9zm-.08-.302q.02 0 .025.009.008.007.016.039c.01.045.01.117.01.224h.06c0-.104 0-.183-.011-.236a.14.14 0 0 0-.032-.069.1.1 0 0 0-.069-.027zm.03.668v-.698h-.06v.698zm.253.27.026-.015-.002-.003-.004-.007a1 1 0 0 0-.076-.106.56.56 0 0 0-.217-.167l-.021.056a.5.5 0 0 1 .192.15 1 1 0 0 1 .071.099l.004.006v.001zm1.044-.03h-1.044v.06h1.044zm.273-.268a.56.56 0 0 0-.217.167 1 1 0 0 0-.076.106l-.005.007-.001.003.026.015.026.015.001-.002.004-.006a1 1 0 0 1 .071-.1.5.5 0 0 1 .192-.149zm.04.424v-.396h-.06v.396zm.132-.03H12.8v.06h.162zm-.03-.609v.639h.06v-.639zm-.067-.113c0 .063.019.1.044.122a.1.1 0 0 0 .053.021v-.06h.001-.003l-.012-.007c-.008-.007-.023-.025-.023-.076zm.158-.21a.13.13 0 0 0-.122.062.3.3 0 0 0-.036.148h.06q.001-.076.026-.115a.07.07 0 0 1 .068-.035zm-.032-.195v.225h.06v-.225z"/><path fill="#fff" stroke="#000" stroke-width=".06" d="M11.188 7.843c0-.252-.22-.279-.22-.279v.225c.085-.004.126.072.126.18 0 .113-.068.113-.068.113v.639h.162z"/><path fill="#000" d="M11.616 6.147h.774v-.06h-.774zm-.09.243h.945v-.06h-.945zm-.09.293h1.12v-.06h-1.12zm-.094.355h1.327v-.06h-1.327zm-.032.405h1.368v-.06H11.31zm.279 1.287V8.7h-.03v.03zm.81 0h.03V8.7h-.03zm0 .297v.03h.03v-.03zm-.81 0h-.03v.03h.03zm-.693-.252h2.187v-.06h-2.187zm2.187-.06h-2.187v.06h2.187zm-1.494.045h.81V8.7h-.81zm.78-.03v.297h.06V8.73zm.03.267h-.81v.06h.81zm-.78.03V8.73h-.06v.297z"/><path fill="#fff" fill-rule="evenodd" d="m11.818 6.16.108.059.153-.005.104-.054v-.157l-.017.005c-.037.01-.078.023-.078.085-.014-.08-.03-.093-.058-.114l-.027-.021-.03.024c-.026.02-.046.034-.056.111-.008-.065-.045-.075-.085-.086l-.014-.004zm-.21 2.45c0-.163.003-.4-.118-.546h1.017c-.122.146-.12.383-.118.547v.051h-.782z" clip-rule="evenodd"/><path fill="#000" d="m11.926 6.219-.014.026.007.004h.008zm-.108-.059h-.03v.018l.016.009zm.261.054.001.034.013-.007zm.104-.054.014.027.016-.008V6.16zm0-.157h.03v-.042l-.04.014zm-.017.005.008.029zm-.078.085-.03.005.06-.005zm-.058-.114-.018.024zm-.027-.021.02-.022-.021-.02-.02.02zm-.03.024.018.024zm-.056.111-.03.004h.06zm-.085-.086-.008.029zm-.014-.004.009-.029-.039-.011v.04zm-.328 2.061v-.03h-.064l.04.05zm.117.547h.03zm.9-.547.023.02.04-.05h-.063zm-.118.547h.03zm0 .051v.03h.03v-.03zm-.782 0h-.03v.03h.03zm.334-2.47-.109-.058-.028.053.108.058zm.137-.008-.153.005.002.06.153-.005zm.09-.05-.103.054.028.053.104-.054zm-.015-.131v.157h.06v-.157zm.021.034.018-.006-.019-.056-.015.004zm-.056.056c0-.024.007-.033.014-.039a.1.1 0 0 1 .042-.017l-.016-.058a.2.2 0 0 0-.064.029q-.035.028-.036.085zm-.106-.09a.1.1 0 0 1 .026.026c.007.011.014.03.02.07l.06-.011a.3.3 0 0 0-.028-.09q-.02-.03-.043-.043zm-.03-.023.03.023.035-.048-.024-.02zm.01.026.032-.027-.042-.042-.026.02zm-.045.09a.2.2 0 0 1 .018-.065.1.1 0 0 1 .026-.025l-.035-.048c-.013.01-.03.02-.042.042a.2.2 0 0 0-.027.09zm-.123-.06q.03.008.044.018c.008.006.016.016.02.043l.059-.008a.12.12 0 0 0-.042-.083.2.2 0 0 0-.065-.028zm-.014-.004.014.004.016-.058-.013-.004zm.038.128v-.157h-.06v.157zm-.381 1.923a.5.5 0 0 1 .098.252c.014.095.013.193.012.276h.06a2 2 0 0 0-.013-.285.56.56 0 0 0-.111-.281zm1.04-.049H11.49v.06h1.017zm-.088.577c0-.083-.001-.18.012-.276a.5.5 0 0 1 .099-.252l-.046-.038a.56.56 0 0 0-.112.281c-.015.1-.014.203-.013.285zm0 .051v-.051h-.06v.051zm-.812.03h.783v-.06h-.783zm-.03-.081v.051h.06v-.05z"/><path fill="#fff" stroke="#000" stroke-width=".06" d="m11.917 6.476-.18-.127V6.21c.068.013.135.022.144.099.018-.112.059-.167.122-.212.058.045.099.1.121.212.005-.077.077-.086.135-.099v.144l-.175.122z"/><path fill="#fff" fill-rule="evenodd" d="m11.904 6.876-.202-.18v-.212l.018.005c.067.016.135.032.144.135.022-.158.067-.243.135-.306.072.063.117.148.144.306.008-.103.076-.12.143-.135l.019-.005v.212l-.207.18zm.378.238-.18.257h-.211l-.185-.257zm-.549.77c-.009-.189-.045-.293-.135-.342h.792c-.09.05-.126.153-.135.342z" clip-rule="evenodd"/><path fill="#000" d="M11.702 6.696h-.03v.013l.01.01zm.202.18-.02.022.009.008h.011zm-.202-.392.007-.029-.037-.009v.038zm.018.005-.007.03zm.144.135-.03.002.06.002zm.135-.306.02-.023-.021-.017-.02.018zm.144.306-.03.005.06-.003zm.143-.135.007.03zm.019-.005h.03v-.038l-.037.01zm0 .212.02.023.01-.01v-.013zm-.207.18v.03h.01l.01-.007zm.004.495v.03h.016l.009-.013zm.18-.257.025.018.033-.048h-.058zm-.391.257-.025.018.01.012h.015zm-.185-.257v-.03h-.058l.034.048zm-.108.428v-.03l-.014.056zm.135.342-.03.001.002.029h.028zm.657-.342.015.026-.015-.056zm-.135.342v.03h.029l.001-.029zm-.573-1.166.202.18.04-.044-.202-.18zm-.01-.234v.212h.06v-.212zm.055-.024-.018-.005-.014.059.018.004zm.166.162c-.004-.06-.027-.098-.062-.123-.032-.023-.072-.032-.104-.04l-.014.06a.2.2 0 0 1 .083.03c.019.012.034.033.038.077zm.085-.326c-.074.07-.12.162-.144.324l.06.008c.021-.153.064-.231.125-.288zm.194.323c-.027-.162-.075-.254-.154-.324l-.04.046c.066.056.109.135.135.288zm.107-.16c-.032.008-.072.017-.104.04q-.054.036-.062.123l.06.004c.003-.044.019-.065.037-.078a.2.2 0 0 1 .083-.03zm.019-.004-.019.005.014.058.019-.004zm.037.241v-.212h-.06v.212zm-.218.203.207-.18-.039-.046-.207.18zm-.213.007h.194v-.06h-.194zm.223.482.18-.256-.05-.035-.18.257zm-.236.013h.211v-.06h-.211zm-.21-.269.185.257.049-.036-.184-.256zm.601-.048h-.576v.06h.576zm-.698.484c.074.041.11.129.12.317l.06-.002c-.01-.19-.046-.31-.151-.367zm.806-.056h-.792v.06h.792zm-.105.373c.01-.188.045-.276.12-.317l-.03-.052c-.105.058-.14.177-.15.367zm-.552.029h.522v-.06h-.522z"/><path fill="#fff" stroke="#000" stroke-linejoin="bevel" stroke-width=".06" d="M12.399 7.11v-.252a.23.23 0 0 0-.171.148c0-.09-.113-.283-.234-.382-.122.108-.239.288-.234.378-.023-.068-.081-.122-.171-.144v.256z"/><path fill="#fff" stroke="#000" stroke-linejoin="bevel" stroke-width=".06" d="M12.435 7.542V7.29q-.143.04-.185.149c0-.09-.121-.284-.256-.383-.135.112-.261.288-.257.383-.022-.068-.09-.122-.184-.149v.256z"/><path fill="#fff" stroke="#000" stroke-linejoin="bevel" stroke-width=".06" d="M12.543 8.069V7.77a.43.43 0 0 0-.23.172c0-.158-.18-.405-.32-.482-.143.081-.319.333-.319.481a.44.44 0 0 0-.234-.17v.297z"/><path fill="#fff" stroke="#000" stroke-linejoin="bevel" stroke-width=".06" d="M12.48 8.73v-.306c-.108.04-.135.14-.171.211.013-.31-.171-.639-.315-.724-.144.085-.333.423-.315.72-.036-.063-.068-.167-.171-.207v.301z"/><path fill="#fff" stroke="#000" stroke-width=".06" d="M12.408 9.189v-.306c-.112.027-.117.067-.153.135a.56.56 0 0 0-.26-.477.57.57 0 0 0-.262.477c-.036-.068-.04-.108-.153-.135v.306zm-4.743 1.125v-.918c-.031-.117-.135-.225-.207-.243v-.81l.167.09.193.85v1.036z"/><path fill="#fff" stroke="#000" stroke-width=".06" d="M7.665 10.319v-.923c-.031-.117-.135-.225-.207-.243v-.864c.113 0 .167.144.167.144l.193.85v1.031z"/><path fill="#fff" stroke="#000" stroke-width=".06" d="M7.543 10.553c.077-.032.19-.131.19-.226V9.176l-.055-.09h1.967l-.077.09v1.152a.27.27 0 0 0 .153.226z"/><path fill="#fff" stroke="#000" stroke-width=".06" d="M9.321 10.553c-.076-.032-.189-.131-.189-.226V9.235l.162-.153H7.962l.162.153v1.094c0 .094-.112.193-.189.225z"/><path fill="#fff" stroke="#000" stroke-width=".06" d="M9.137 10.553c-.077-.032-.194-.131-.194-.226v-.99l.108-.148h-.846l.108.149v.99c0 .094-.112.193-.193.225z"/><path fill="#fff" stroke="#000" stroke-width=".06" d="M8.43 9.189h.4v1.368h-.405z"/><path fill="#fff" fill-rule="evenodd" d="M7.737 8.172h.193v.144h-.193zm0 .144v.765h.198v-.765zm.14 1.251h.161v.742h-.162zm1.385 0h.158v.742h-.162zm.351-1.085H9.34v.586h.274z" clip-rule="evenodd"/><path fill="#000" d="M7.93 8.172h.03l-.03-.03zm-.193 0v-.03l-.03.03zm.193.144v.03l.03-.03zm-.193 0h-.03l.03.03zm0 .765h-.03l.03.03zm0-.765v-.03l-.03.03zm.198.765v.03l.03-.03zm0-.765h.03l-.03-.03zm.103 1.251h.03l-.03-.03zm-.162 0v-.03l-.03.03zm.162.742v.03l.03-.03zm-.162 0h-.03l.03.03zm1.544-.742h.03l-.03-.03zm-.158 0v-.03l-.03.03zm.158.742v.03l.03-.03zm-.162 0h-.03l.03.03zm.08-1.826v-.03l-.03.03zm.275 0h.03l-.03-.03zm-.274.585h-.03l.03.03zm.274 0v.03l.03-.03zM7.93 8.142h-.193v.06h.193zm.03.174v-.144H7.9v.144zm-.223.03h.193v-.06h-.193zm-.03-.174v.144h.06v-.144zm.06.909v-.765h-.06v.765zm.168-.03h-.198v.06h.198zm-.03-.735v.765h.06v-.765zm-.168.03h.198v-.06h-.198zm.301 1.191h-.162v.06h.162zm.03.772v-.742h-.06v.742zm-.192.03h.162v-.06h-.162zm-.03-.772v.742h.06v-.742zm1.574-.03h-.158v.06h.158zm.03.772v-.742h-.06v.742zm-.192.03h.162v-.06h-.162zm-.026-.772-.004.742h.06l.004-.742zm.107-1.055h.274v-.06H9.34zm.03.556v-.585h-.06v.585zm.244-.03H9.34v.06h.274zm-.03-.556v.586h.06v-.585z"/><path fill="#fff" fill-rule="evenodd" d="M7.93 7.767v1.305h1.418v-1.3c-.021 0-.036.03-.053.065-.026.054-.06.123-.136.123-.067 0-.058-.08-.022-.144.031-.058.072-.135.018-.283-.04.112-.14.148-.122.081q.017-.055.042-.094c.033-.058.061-.108.012-.235-.022.153-.121.149-.099.059l.023-.067c.025-.064.045-.117-.01-.226-.04.167-.09.158-.09.054v-.01c0-.145 0-.306-.188-.363 0 0-.014-.135-.081-.135-.072 0-.086.135-.086.135-.189.058-.189.22-.189.373 0 .104-.05.113-.09-.054-.054.11-.034.162-.01.226q.013.03.024.067c.022.09-.077.094-.1-.059-.049.127-.02.177.013.235.015.027.032.056.042.094.018.067-.081.031-.122-.081-.054.148-.013.225.018.283.04.063.045.144-.022.144-.077 0-.11-.07-.136-.126-.018-.037-.032-.067-.053-.067m-.31 1.314v-.995q.053-.033.113 0v.995z" clip-rule="evenodd"/><path fill="#000" d="M7.93 9.072H7.9v.03h.03zm0-1.305v-.03H7.9v.03zm1.418 1.305v.03h.03v-.03zm0-1.3h.03v-.03h-.03zm-.053.065-.027-.013zm-.158-.02.026.014zm.018-.284.028-.01-.029-.078-.028.078zm-.122.081.03.008zm.042-.094-.026-.015zm.012-.235.028-.01-.041-.106-.017.112zm-.099.059-.029-.008zm.023-.067-.028-.011zm-.01-.226.027-.013-.036-.073-.02.08zm-.09.045h.03zm-.188-.364-.03.003.002.02.019.006zm-.167 0 .009.029.019-.006.002-.02zm-.279.32.03-.008-.02-.08-.037.074zm-.01.225-.027.01zm.024.067.029-.007zm-.1-.059.03-.004-.016-.112-.041.106zm.013.235-.026.015zm.042.094-.03.008zm-.122-.081.028-.01-.028-.078-.028.078zm.018.283-.026.015v.002zm-.158.018.027-.013zm-.364.252-.016-.025-.014.009v.016zm0 .995h-.03v.03h.03zm.113-.995h.03V8.07l-.016-.009zm0 .995v.03h.03v-.03zm.228-.009V7.767H7.9v1.305zm1.387-.03H7.931v.06h1.417zm-.03-1.27v1.3h.06v-1.3zm.004.078.023-.042c.007-.01.008-.007.003-.007v-.06c-.026 0-.043.019-.052.032q-.015.024-.028.05zm-.163.14a.14.14 0 0 0 .11-.051c.024-.028.04-.063.053-.09l-.054-.025a.3.3 0 0 1-.045.075.08.08 0 0 1-.064.031zm-.048-.188a.2.2 0 0 0-.032.112.1.1 0 0 0 .021.053.08.08 0 0 0 .06.023v-.06q-.016 0-.016-.004-.003-.002-.005-.016a.16.16 0 0 1 .024-.079zm.015-.259c.026.07.028.122.022.16a.3.3 0 0 1-.038.1l.053.028c.016-.03.036-.067.044-.118a.4.4 0 0 0-.024-.19zm-.122.063c-.005.02-.007.05.02.065a.05.05 0 0 0 .033.006.1.1 0 0 0 .029-.01.23.23 0 0 0 .097-.124l-.057-.02a.17.17 0 0 1-.068.091l-.01.004.006.002c.011.006.004.016.008.002zm.045-.1a.4.4 0 0 0-.045.1l.058.016a.3.3 0 0 1 .039-.087zm.01-.21c.024.06.027.1.023.128a.2.2 0 0 1-.034.081l.053.03a.3.3 0 0 0 .04-.102.3.3 0 0 0-.026-.158zm-.1.04q-.011.042.006.074a.06.06 0 0 0 .064.025.1.1 0 0 0 .056-.047.3.3 0 0 0 .032-.098l-.06-.009a.2.2 0 0 1-.024.075c-.01.016-.018.02-.02.02l.001.001.003.002c-.001-.001-.004-.01 0-.028zm.024-.07q-.013.03-.024.07l.058.016.022-.064zm-.008-.201a.24.24 0 0 1 .031.115.3.3 0 0 1-.023.086l.056.022c.012-.032.025-.065.027-.106a.3.3 0 0 0-.038-.144zm-.093.04a.2.2 0 0 0 .01.07.1.1 0 0 0 .02.027q.016.012.039.006a.1.1 0 0 0 .027-.02l.02-.03a.5.5 0 0 0 .033-.1l-.059-.014a.4.4 0 0 1-.04.106q-.005.003 0 .001.008-.002.015.003.004.004 0-.001a.1.1 0 0 1-.005-.048zm0-.01v.01h.06v-.01zm-.168-.334c.085.026.125.073.146.13a.6.6 0 0 1 .022.205h.06c0-.072 0-.154-.026-.226a.26.26 0 0 0-.185-.167zm-.072-.134q.007-.001.018.01a.1.1 0 0 1 .02.037.3.3 0 0 1 .013.06v.001l.03-.003.03-.003v-.002l-.004-.022-.013-.05a.2.2 0 0 0-.03-.056.08.08 0 0 0-.064-.032zm-.086.105.03.003V6.73a.3.3 0 0 1 .014-.055.1.1 0 0 1 .02-.037q.01-.011.022-.011v-.06a.1.1 0 0 0-.066.031.2.2 0 0 0-.032.056.3.3 0 0 0-.018.073v.002zm-.159.373c0-.077 0-.15.022-.212.02-.058.06-.106.146-.132l-.018-.058a.26.26 0 0 0-.185.17c-.025.073-.025.157-.025.232zm-.149-.046q.016.063.033.099l.02.03a.1.1 0 0 0 .027.02.04.04 0 0 0 .04-.006.1.1 0 0 0 .018-.026.2.2 0 0 0 .011-.07h-.06q0 .036-.006.047-.003.005 0 0a.02.02 0 0 1 .016-.002q.004.003 0-.001l-.012-.019a.4.4 0 0 1-.029-.087zm.048.207a.3.3 0 0 1-.023-.086.24.24 0 0 1 .031-.115l-.054-.027a.3.3 0 0 0-.037.144c.001.04.015.074.027.106zm.024.07q-.011-.04-.024-.07l-.056.022.022.064zm-.158-.046a.3.3 0 0 0 .032.098.1.1 0 0 0 .056.047.06.06 0 0 0 .063-.025q.018-.032.007-.073l-.058.014c.004.019 0 .027 0 .028l.002-.002h.002q-.004.001-.02-.02a.2.2 0 0 1-.025-.076zm.068.215a.2.2 0 0 1-.033-.08.25.25 0 0 1 .023-.129l-.056-.021a.3.3 0 0 0-.027.158c.006.042.025.074.041.102zm.045.101c-.011-.042-.03-.074-.045-.1l-.052.03c.015.026.03.051.039.086zm-.18-.063a.23.23 0 0 0 .098.124.1.1 0 0 0 .029.01q.016.004.033-.006c.026-.015.025-.045.02-.065l-.058.016c.003.014-.004.004.008-.002l.005-.002-.01-.004a.17.17 0 0 1-.068-.091zm.074.26a.3.3 0 0 1-.038-.1.3.3 0 0 1 .021-.16l-.056-.02a.4.4 0 0 0-.025.19c.009.05.029.088.045.118zm-.05.187a.08.08 0 0 0 .06-.022.1.1 0 0 0 .022-.053.2.2 0 0 0-.034-.115l-.05.033a.14.14 0 0 1 .024.077q-.001.014-.005.016-.002.003-.016.004zm-.163-.143c.013.027.03.062.054.09a.14.14 0 0 0 .11.053v-.06a.08.08 0 0 1-.064-.031.4.4 0 0 1-.045-.078zm-.025-.05c-.005 0-.004-.004.003.007q.01.015.022.043l.055-.026c-.009-.017-.018-.037-.028-.051s-.026-.033-.052-.033zm-.34.29v.994h.06v-.995zm.156-.027a.13.13 0 0 0-.143 0l.032.052a.1.1 0 0 1 .039-.012.1.1 0 0 1 .043.013zm.016 1.021v-.995h-.06v.995zm-.143.03h.113v-.06H7.62z"/><path fill="#fff" fill-rule="evenodd" d="M9.573 9.081v-.648c.022-.018.063-.014.09 0v.648zm-1.63 0c-.035-.194-.175-.279-.314-.351v.351z" clip-rule="evenodd"/><path fill="#000" d="m9.573 8.433-.019-.023-.011.009v.014zm0 .648h-.03v.03h.03zm.09-.648h.03v-.019l-.017-.008zm0 .648v.03h.03v-.03zM7.629 8.73l.014-.027-.044-.022v.049zm.315.351v.03h.036l-.007-.036zm-.315 0h-.03v.03h.03zm1.914-.648v.648h.06v-.648zm.133-.027a.2.2 0 0 0-.059-.015.1.1 0 0 0-.063.019l.038.046q.004-.004.023-.005.02 0 .034.009zm.017.675v-.648h-.06v.648zm-.12.03h.09v-.06h-.09zm-1.958-.354c.14.071.266.151.3.33l.058-.011c-.038-.21-.19-.3-.33-.373zm.044.324V8.73h-.06v.351zm.285-.03h-.315v.06h.315z"/><path fill="#fff" fill-rule="evenodd" d="m8.817 7.146-.08.067h-.203l-.081-.072v-.09c.031.01.045.014.067.045a.23.23 0 0 1 .117-.13.23.23 0 0 1 .113.135c.022-.032.04-.045.067-.045zm.531 1.93c.036-.197.176-.279.315-.346v.346z" clip-rule="evenodd"/><path fill="#000" d="M8.736 7.214v.03h.011l.008-.007zm.081-.068.02.023.01-.009v-.014zm-.283.067-.02.023.008.008h.012zm-.081-.072h-.03v.014l.01.009zm0-.09.008-.028-.038-.011v.04zm.067.045-.024.018.034.047.019-.055zm.117-.13.014-.027-.013-.006-.014.006zm.113.135-.03.009.019.058.035-.05zm.067-.045h.03v-.03h-.03zm.846 1.674h.03v-.048l-.043.021zm-.315.346-.03-.005-.006.036h.036zm.315 0v.03h.03v-.03zm-.908-1.84.081-.067-.038-.046-.081.067zm-.221.008h.202v-.06h-.202zm-.101-.08.08.072.04-.045-.08-.072zm-.01-.112v.09h.06v-.09zm.122.027a.14.14 0 0 0-.04-.039q-.021-.012-.044-.017l-.017.057a.1.1 0 0 1 .03.011.1.1 0 0 1 .022.023zm.08-.14a.26.26 0 0 0-.133.148l.057.02a.2.2 0 0 1 .1-.114zm.153.153a.26.26 0 0 0-.127-.153l-.028.054a.2.2 0 0 1 .098.117zm.04-.066a.1.1 0 0 0-.053.016.2.2 0 0 0-.04.042l.05.034a.1.1 0 0 1 .024-.027.03.03 0 0 1 .018-.005zm.03.12v-.09h-.06v.09zm.802 1.557c-.14.068-.293.155-.331.368l.059.01c.033-.182.16-.257.298-.324zm.043.373V8.73h-.06v.346zm-.345.03h.315v-.06h-.315z"/><path fill="#fff" stroke="#000" stroke-width=".06" d="m8.781 7.434.036-.086v-.112c-.027 0-.045.014-.067.045a.23.23 0 0 0-.113-.135.23.23 0 0 0-.117.13c-.022-.031-.036-.035-.067-.04v.112l.036.086z"/><path fill="#fff" stroke="#000" stroke-width=".06" d="m8.79 7.731.117-.149v-.144c-.045 0-.068.023-.1.072-.03-.103-.09-.121-.17-.17-.086.044-.144.067-.171.166-.036-.05-.059-.063-.104-.068v.144l.122.149z"/><path fill="#fff" stroke="#000" stroke-width=".06" d="M8.821 8.024s.144-.122.149-.19v-.157c-.054.005-.104.018-.144.086-.036-.131-.09-.167-.19-.225-.103.058-.157.094-.188.225-.045-.068-.09-.081-.149-.09v.162a.7.7 0 0 0 .149.189z"/><path fill="#fff" stroke="#000" stroke-width=".06" d="M8.88 8.564s.198-.212.202-.297v-.243c-.072.009-.144.058-.198.162-.045-.203-.117-.342-.247-.441-.135.099-.207.238-.252.44-.054-.103-.122-.152-.194-.161v.243c.014.085.198.297.198.297z"/><path fill="#fff" stroke="#000" stroke-width=".06" d="M8.88 8.883s.166-.167.202-.239v-.243c-.072.01-.144.059-.198.158a.63.63 0 0 0-.247-.414c-.135.099-.207.211-.252.414-.054-.099-.122-.149-.194-.158v.243c.045.072.198.239.198.239z"/><path fill="#fff" stroke="#000" stroke-width=".06" d="M8.948 9.072c-.045-.211-.09-.369-.32-.526-.234.157-.274.315-.324.526z"/><path fill="#fff" stroke="#000" stroke-width=".06" d="M9.069 9.189v-.306c-.108.045-.203.103-.239.171-.036-.171-.112-.243-.207-.347a.7.7 0 0 0-.198.347c-.036-.068-.13-.13-.234-.171v.306zm7.268 1.125v-.918c.031-.117.134-.225.207-.243v-.81l-.167.09-.194.85v1.036z"/><path fill="#fff" stroke="#000" stroke-width=".06" d="M16.337 10.319v-.923c.031-.117.134-.225.207-.243v-.864c-.113 0-.167.144-.167.144l-.194.85v1.031z"/><path fill="#fff" stroke="#000" stroke-width=".06" d="M16.458 10.553c-.076-.032-.189-.131-.189-.226V9.176l.054-.09h-1.966l.076.09v1.152a.27.27 0 0 1-.153.226z"/><path fill="#fff" stroke="#000" stroke-width=".06" d="M14.68 10.553c.077-.032.19-.131.19-.226V9.235l-.163-.153h1.332l-.162.153v1.094c0 .094.113.193.19.225z"/><path fill="#fff" stroke="#000" stroke-width=".06" d="M14.865 10.553c.076-.032.193-.131.193-.226v-.99l-.108-.148h.846l-.108.149v.99c0 .094.113.193.194.225z"/><path fill="#fff" stroke="#000" stroke-width=".06" d="M15.572 9.189h-.4v1.368h.404z"/><path fill="#fff" fill-rule="evenodd" d="M16.265 8.172h-.194v.144h.194zm0 .144v.765h-.198v-.765zm-.14 1.251h-.162v.742h.162zm-1.386 0h-.157v.742h.162zm-.35-1.085h.274v.586h-.275z" clip-rule="evenodd"/><path fill="#000" d="M16.071 8.172h-.03l.03-.03zm.194 0v-.03l.03.03zm-.194.144v.03l-.03-.03zm.194 0h.03l-.03.03zm0 .765h.03l-.03.03zm0-.765v-.03l.03.03zm-.198.765v.03l-.03-.03zm0-.765h-.03l.03-.03zm-.104 1.251h-.03l.03-.03zm.162 0v-.03l.03.03zm-.162.742v.03l-.03-.03zm.162 0h.03l-.03.03zm-1.543-.742h-.03l.03-.03zm.157 0v-.03l.03.03zm-.157.742v.03l-.03-.03zm.162 0h.03l-.03.03zm-.081-1.826v-.03l.03.03zm-.275 0h-.03l.03-.03zm.275.585h.03l-.03.03zm-.275 0v.03l-.03-.03zm1.683-.926h.194v.06h-.194zm-.03.174v-.144h.06v.144zm.224.03h-.194v-.06h.194zm.03-.174v.144h-.06v-.144zm-.06.909v-.765h.06v.765zm-.168-.03h.198v.06h-.198zm.03-.735v.765h-.06v-.765zm.168.03h-.198v-.06h.198zm-.302 1.191h.162v.06h-.162zm-.03.772v-.742h.06v.742zm.192.03h-.162v-.06h.162zm.03-.772v.742h-.06v-.742zm-1.573-.03h.157v.06h-.157zm-.03.772v-.742h.06v.742zm.192.03h-.162v-.06h.162zm.025-.772.005.742h-.06l-.005-.742zm-.106-1.055h-.275v-.06h.275zm-.03.556v-.585h.06v.585zm-.245-.03h.275v.06h-.275zm.03-.556v.586h-.06v-.585z"/><path fill="#fff" fill-rule="evenodd" d="M16.07 7.767v1.305h-1.417v-1.3c.022 0 .036.03.053.065.027.054.06.123.136.123.068 0 .059-.08.023-.144-.032-.058-.072-.135-.018-.283.04.112.14.148.121.081a.4.4 0 0 0-.041-.094c-.033-.058-.062-.108-.013-.235.023.153.122.149.1.059l-.024-.067c-.024-.064-.045-.117.01-.226.04.167.09.158.09.054v-.01c0-.145 0-.306.189-.363 0 0 .013-.135.08-.135.073 0 .086.135.086.135.19.058.19.22.19.373 0 .104.049.113.09-.054.054.11.034.162.009.226l-.023.067c-.023.09.076.094.099-.059.05.127.02.177-.013.235a.4.4 0 0 0-.041.094c-.018.067.08.031.121-.081.054.148.014.225-.018.283-.04.063-.045.144.023.144.076 0 .11-.07.136-.126.017-.037.031-.067.053-.067m.311 1.314v-.995q-.053-.033-.112 0v.995z" clip-rule="evenodd"/><path fill="#000" d="M16.07 9.072h.03v.03h-.03zm0-1.305v-.03h.03v.03zm-1.417 1.305v.03h-.03v-.03zm0-1.3h-.03v-.03h.03zm.053.065.027-.013zm.159-.02-.026.014zm-.018-.284-.028-.01.028-.078.028.078zm.121.081-.029.008zm-.041-.094.026-.015zm-.013-.235-.028-.01.042-.106.016.112zm.1.059.028-.008zm-.024-.067.028-.011zM15 7.05l-.027-.013.037-.073.019.08zm.09.045h-.03zm.189-.364.03.003-.002.02-.02.006zm.166 0-.008.029-.02-.006-.002-.02zm.28.32-.03-.008.02-.08.036.074zm.009.225.028.01zm-.023.067-.03-.007zm.099-.059-.03-.004.017-.112.04.106zm-.013.235.026.015zm-.041.094.029.008zm.121-.081-.028-.01.028-.078.028.078zm-.018.283.027.015-.001.002zm.159.018-.027-.013zm.363.252.016-.025.014.009v.016zm0 .995h.03v.03h-.03zm-.112-.995h-.03V8.07l.015-.009zm0 .995v.03h-.03v-.03zm-.228-.009V7.767h.06v1.305zm-1.388-.03h1.418v.06h-1.418zm.03-1.27v1.3h-.06v-1.3zm-.004.078-.022-.042c-.007-.01-.008-.007-.004-.007v-.06c.026 0 .043.019.053.032q.016.024.027.05zm.163.14a.14.14 0 0 1-.109-.051c-.024-.028-.04-.063-.054-.09l.054-.025a.3.3 0 0 0 .045.075q.024.03.064.031zm.049-.188c.02.034.034.076.031.112a.1.1 0 0 1-.02.053.08.08 0 0 1-.06.023v-.06q.015 0 .016-.004.003-.002.005-.016a.16.16 0 0 0-.024-.079zm-.016-.259a.3.3 0 0 0-.022.16.3.3 0 0 0 .038.1l-.053.028c-.015-.03-.036-.067-.044-.118a.4.4 0 0 1 .025-.19zm.122.063c.006.02.007.05-.02.065a.05.05 0 0 1-.033.006.1.1 0 0 1-.029-.01.23.23 0 0 1-.096-.124l.056-.02a.17.17 0 0 0 .069.091l.009.004-.006.002c-.01.006-.004.016-.008.002zm-.044-.1a.4.4 0 0 1 .044.1l-.058.016a.3.3 0 0 0-.038-.087zm-.01-.21a.25.25 0 0 0-.024.128c.005.03.017.052.034.081l-.052.03a.3.3 0 0 1-.041-.102.3.3 0 0 1 .026-.158zm.1.04a.1.1 0 0 1-.007.074.06.06 0 0 1-.063.025.1.1 0 0 1-.056-.047.3.3 0 0 1-.032-.098l.059-.009q.009.053.024.075t.02.02q.002 0-.001.001l-.002.002c0-.001.004-.01 0-.028zm-.025-.07q.013.03.024.07l-.058.016q-.01-.035-.022-.064zm.009-.201a.24.24 0 0 0-.032.115.3.3 0 0 0 .023.086l-.056.022c-.012-.032-.025-.065-.027-.106a.3.3 0 0 1 .038-.144zm.093.04a.2.2 0 0 1-.01.07.1.1 0 0 1-.02.027.04.04 0 0 1-.04.006.1.1 0 0 1-.027-.02l-.019-.03a.5.5 0 0 1-.033-.1l.058-.014a.4.4 0 0 0 .04.106q.005.003 0 .001a.02.02 0 0 0-.015.003q-.003.004 0-.001a.1.1 0 0 0 .006-.048zm0-.01v.01h-.06v-.01zm.168-.334c-.086.026-.126.073-.146.13a.6.6 0 0 0-.022.205h-.06c0-.072 0-.154.025-.226a.26.26 0 0 1 .185-.167zm.072-.134q-.008-.001-.018.01a.1.1 0 0 0-.02.037.3.3 0 0 0-.013.056v.005l-.03-.003-.03-.003v-.007l.003-.017.014-.05a.2.2 0 0 1 .03-.056.08.08 0 0 1 .064-.032zm.085.105-.03.003V6.73l-.002-.014-.012-.041a.1.1 0 0 0-.02-.037q-.01-.011-.021-.011v-.06c.029 0 .05.014.066.031a.2.2 0 0 1 .032.056.3.3 0 0 1 .016.068l.001.005v.002zm.16.373a.7.7 0 0 0-.023-.212c-.02-.058-.06-.106-.146-.132l.018-.058a.26.26 0 0 1 .185.17c.026.073.025.157.025.232zm.149-.046a.5.5 0 0 1-.034.099l-.019.03a.1.1 0 0 1-.028.02.04.04 0 0 1-.039-.006.1.1 0 0 1-.019-.026.2.2 0 0 1-.01-.07h.06q0 .036.006.047.003.005-.001 0a.02.02 0 0 0-.015-.002q-.004.003 0-.001l.011-.019a.4.4 0 0 0 .03-.087zm-.048.207a.3.3 0 0 0 .023-.086.24.24 0 0 0-.031-.115l.053-.027c.029.058.04.103.038.144s-.015.074-.027.106zm-.024.07q.011-.04.024-.07l.056.022-.022.064zm.157-.046a.3.3 0 0 1-.032.098.1.1 0 0 1-.056.047.06.06 0 0 1-.063-.025.1.1 0 0 1-.006-.073l.058.014c-.005.019-.001.027 0 .028l-.003-.002h-.001q.004.001.02-.02a.2.2 0 0 0 .024-.076zm-.068.215a.2.2 0 0 0 .034-.08.25.25 0 0 0-.023-.129l.056-.021a.3.3 0 0 1 .026.158.3.3 0 0 1-.04.102zm-.044.101c.01-.042.029-.074.044-.1l.052.03a.3.3 0 0 0-.038.086zm.179-.063a.23.23 0 0 1-.097.124.1.1 0 0 1-.03.01.05.05 0 0 1-.033-.006c-.026-.015-.024-.045-.02-.065l.059.016c-.004.014.003.004-.008-.002l-.005-.002.009-.004a.17.17 0 0 0 .068-.091zm-.073.26a.3.3 0 0 0 .038-.1.3.3 0 0 0-.022-.16l.056-.02c.029.078.033.14.025.19s-.028.088-.044.118zm.049.187a.08.08 0 0 1-.06-.022.1.1 0 0 1-.022-.053.2.2 0 0 1 .034-.115l.05.033a.14.14 0 0 0-.024.077q.002.014.006.016 0 .003.016.004zm.163-.143a.4.4 0 0 1-.054.09.14.14 0 0 1-.11.053v-.06a.08.08 0 0 0 .065-.031.3.3 0 0 0 .045-.078zm.026-.05c.005 0 .004-.004-.004.007l-.022.043-.054-.026c.008-.017.017-.037.027-.051s.026-.033.053-.033zm.34.29v.994h-.06v-.995zm-.157-.027a.13.13 0 0 1 .143 0l-.032.052a.1.1 0 0 0-.038-.012.1.1 0 0 0-.044.013zm-.015 1.021v-.995h.06v.995zm.142.03h-.112v-.06h.112z"/><path fill="#fff" fill-rule="evenodd" d="M14.429 9.081v-.648c-.023-.018-.063-.014-.09 0v.648zm1.629 0c.036-.194.175-.279.315-.351v.351z" clip-rule="evenodd"/><path fill="#000" d="m14.429 8.433.018-.023.012.009v.014zm0 .648h.03v.03h-.03zm-.09-.648h-.03v-.019l.016-.008zm0 .648v.03h-.03v-.03zm2.034-.351-.014-.027.044-.022v.049zm-.315.351v.03h-.037l.007-.036zm.315 0h.03v.03h-.03zm-1.914-.648v.648h-.06v-.648zm-.134-.027a.2.2 0 0 1 .06-.015c.02 0 .043.003.062.019l-.037.046q-.005-.004-.024-.005a.1.1 0 0 0-.034.009zm-.016.675v-.648h.06v.648zm.12.03h-.09v-.06h.09zm1.957-.354c-.139.071-.266.151-.299.33l-.059-.011c.039-.21.19-.3.33-.373zm-.043.324V8.73h.06v.351zm-.285-.03h.315v.06h-.315z"/><path fill="#fff" fill-rule="evenodd" d="m15.184 7.146.081.067h.203l.08-.072v-.09c-.03.01-.044.014-.067.045a.23.23 0 0 0-.117-.13.23.23 0 0 0-.112.135c-.023-.032-.04-.045-.068-.045zm-.53 1.93c-.037-.197-.176-.279-.316-.346v.346z" clip-rule="evenodd"/><path fill="#000" d="M15.265 7.214v.03h-.01l-.009-.007zm-.08-.068-.02.023-.01-.009v-.014zm.283.067.02.023-.009.008h-.011zm.08-.072h.03v.014l-.01.009zm0-.09-.007-.028.038-.011v.04zm-.067.045.025.018-.034.047-.019-.055zm-.117-.13-.013-.027.013-.006.013.006zm-.112.135.028.009-.017.058-.036-.05zm-.068-.045h-.03v-.03h.03zm-.846 1.674h-.03v-.048l.043.021zm.315.346.03-.005.006.036h-.036zm-.315 0v.03h-.03v-.03zm.908-1.84-.08-.067.037-.046.082.067zm.222.008h-.203v-.06h.203zm.1-.08-.08.072-.04-.045.08-.072zm.01-.112v.09h-.06v-.09zm-.121.027a.14.14 0 0 1 .04-.039q.02-.012.044-.017l.016.057a.1.1 0 0 0-.03.011.1.1 0 0 0-.021.023zm-.08-.14c.063.03.11.083.133.148l-.057.02a.2.2 0 0 0-.101-.114zm-.154.153a.26.26 0 0 1 .128-.153l.027.054a.2.2 0 0 0-.098.117zm-.039-.066a.1.1 0 0 1 .053.016q.022.016.04.042l-.05.034a.1.1 0 0 0-.024-.027.03.03 0 0 0-.019-.005zm-.03.12v-.09h.06v.09zm-.803 1.557c.14.068.293.155.332.368l-.06.01c-.032-.182-.16-.257-.298-.324zm-.043.373V8.73h.06v.346zm.345.03h-.315v-.06h.315z"/><path fill="#fff" stroke="#000" stroke-width=".06" d="m15.22 7.434-.036-.086v-.112c.027 0 .045.014.068.045a.23.23 0 0 1 .112-.135.23.23 0 0 1 .117.13c.023-.031.036-.035.068-.04v.112l-.036.086z"/><path fill="#fff" stroke="#000" stroke-width=".06" d="m15.212 7.731-.117-.149v-.144c.045 0 .067.023.099.072.031-.103.09-.121.17-.17.086.044.145.067.172.166.036-.05.058-.063.103-.068v.144l-.121.149z"/><path fill="#fff" stroke="#000" stroke-width=".06" d="M15.18 8.024s-.144-.122-.148-.19v-.157c.054.005.103.018.144.086.036-.131.09-.167.189-.225.103.058.157.094.189.225.045-.068.09-.081.148-.09v.162a.7.7 0 0 1-.148.189z"/><path fill="#fff" stroke="#000" stroke-width=".06" d="M15.122 8.564s-.198-.212-.203-.297v-.243c.072.009.144.058.198.162.045-.203.117-.342.248-.441.135.099.207.238.252.44.054-.103.121-.152.193-.161v.243c-.013.085-.198.297-.198.297z"/><path fill="#fff" stroke="#000" stroke-width=".06" d="M15.122 8.883s-.167-.167-.203-.239v-.243c.072.01.144.059.198.158a.63.63 0 0 1 .248-.414c.135.099.207.211.252.414.054-.099.121-.149.193-.158v.243a3 3 0 0 1-.198.239z"/><path fill="#fff" stroke="#000" stroke-width=".06" d="M15.054 9.072c.045-.211.09-.369.32-.526.233.157.274.315.323.526z"/><path fill="#fff" stroke="#000" stroke-width=".06" d="M14.933 9.189v-.306c.108.045.202.103.238.171.036-.171.113-.243.207-.347.095.104.158.18.198.347.036-.068.13-.13.234-.171v.306z"/><path fill="#fff" fill-rule="evenodd" d="M16.935 10.823H7.062v.364h9.873zm-10.454.845H17.52v.563h.293v.563H6.188v-.563h.292z" clip-rule="evenodd"/><path fill="#000" d="M7.062 10.823v-.03h-.03v.03zm9.873 0h.03v-.03h-.03zm-9.873.364h-.03v.03h.03zm9.873 0v.03h.03v-.03zm.585.482h.03v-.03h-.03zm-11.039 0v-.03h-.03v.03zm11.039.562h-.03v.03h.03zm.293 0h.03v-.03h-.03zm0 .563v.03h.03v-.03zm-11.624 0h-.03v.03h.03zm0-.563v-.03h-.03v.03zm.292 0v.03h.03v-.03zm.581-1.379h9.873v-.06H7.062zm.03.335v-.364h-.06v.364zm9.843-.03H7.062v.06h9.873zm-.03-.335v.365h.06v-.364zm.615.817H6.481v.06H17.52zm.03.592v-.562h-.06v.562zm.262-.03h-.292v.06h.293zm.03.592v-.562h-.06v.563zm-11.653.03h11.624v-.06H6.188zm-.03-.592v.563h.06v-.563zm.322-.03H6.19v.06h.292zm-.03-.533v.563h.06v-.562z"/><path fill="#fff" fill-rule="evenodd" d="M16.773 10.544h-9.54v.278h9.54zm.459.643H6.774v.477h10.458z" clip-rule="evenodd"/><path fill="#000" d="M7.233 10.544v-.03h-.03v.03zm9.54 0h.03v-.03h-.03zm-9.54.278h-.03v.03h.03zm9.54 0v.03h.03v-.03zm-10 .365v-.03h-.03v.03zm10.459 0h.03v-.03h-.03zm-10.458.477h-.03v.03h.03zm10.458 0v.03h.03v-.03zm-10-1.09h9.54v-.06h-9.54zm.03.248v-.278h-.06v.278zm9.51-.03h-9.54v.06h9.54zm-.03-.248v.278h.06v-.278zm-9.968.673h10.458v-.06H6.774zm.03.447v-.477h-.06v.477zm10.428-.03H6.774v.06h10.458zm-.03-.447v.477h.06v-.477z"/><path fill="#fff" stroke="#000" stroke-width=".06" d="M8.268 10.544h.72v2.25h-.72z"/><path fill="#fff" fill-rule="evenodd" d="M8.83 10.544h-.4l-.005 2.25h.405zm3.515 0h-.72v2.25h.72z" clip-rule="evenodd"/><path fill="#000" d="M8.43 10.544v-.03H8.4v.03zm.4 0h.03v-.03h-.03zm-.405 2.25h-.03v.03h.03zm.405 0v.03h.03v-.03zm2.795-2.25v-.03h-.03v.03zm.72 0h.03v-.03h-.03zm-.72 2.25h-.03v.03h.03zm.72 0v.03h.03v-.03zm-3.915-2.22h.4v-.06h-.4zm.025 2.22.005-2.25H8.4l-.005 2.25zm.375-.03h-.405v.06h.405zm-.03-2.22v2.25h.06v-2.25zm2.825.03h.72v-.06h-.72zm.03 2.22v-2.25h-.06v2.25zm.69-.03h-.72v.06h.72zm-.03-2.22v2.25h.06v-2.25z"/><path fill="#fff" fill-rule="evenodd" d="M12.197 10.544h-.405v2.25h.405zm3.532 0h-.72v2.25h.72z" clip-rule="evenodd"/><path fill="#000" d="M11.792 10.544v-.03h-.03v.03zm.405 0h.03v-.03h-.03zm-.405 2.25h-.03v.03h.03zm.405 0v.03h.03v-.03zm2.812-2.25v-.03h-.03v.03zm.72 0h.03v-.03h-.03zm-.72 2.25h-.03v.03h.03zm.72 0v.03h.03v-.03zm-3.937-2.22h.405v-.06h-.405zm.03 2.22v-2.25h-.06v2.25zm.375-.03h-.405v.06h.405zm-.03-2.22v2.25h.06v-2.25zm2.842.03h.72v-.06h-.72zm.03 2.22v-2.25h-.06v2.25zm.69-.03h-.72v.06h.72zm-.03-2.22v2.25h.06v-2.25z"/><path fill="#fff" stroke="#000" stroke-width=".06" d="M15.167 10.544h.405v2.25h-.405z"/><path fill="#000" d="M7.665 10.359h8.685v-.06H7.665zm.756 2.196h.414v-.06h-.414zm0-.284h.414v-.06h-.414zm0-.279h.414v-.06h-.414zm0-.283h.414v-.06h-.414zm0-.279h.414v-.06h-.414zm0-.284h.414v-.06h-.414zm0-.279h.414v-.06h-.414zm3.375 1.688h.387v-.06h-.387zm0-.284h.387v-.06h-.387zm0-.279h.387v-.06h-.387zm0-.283h.387v-.06h-.387zm0-.279h.387v-.06h-.387zm0-.284h.387v-.06h-.387zm0-.279h.387v-.06h-.387zm3.366 1.688h.414v-.06h-.414zm0-.284h.414v-.06h-.414zm0-.279h.414v-.06h-.414zm0-.283h.414v-.06h-.414zm0-.279h.414v-.06h-.414zm0-.284h.414v-.06h-.414zm0-.279h.414v-.06h-.414z"/></g></g><rect width="23" height="17" x=".5" y=".5" stroke="#000" stroke-opacity=".1" rx="1.5"/><defs><clipPath id="a"><rect width="24" height="18" fill="#fff" rx="2"/></clipPath></defs></svg>