<svg xmlns="http://www.w3.org/2000/svg" fill="none" viewBox="0 0 24 18"><g clip-path="url(#a)"><mask id="b" width="24" height="18" x="0" y="0" maskUnits="userSpaceOnUse" style="mask-type:luminance"><path fill="#fff" d="M0 0h24v18H0z"/></mask><g mask="url(#b)"><path fill="#F7FCFF" fill-rule="evenodd" d="M0 0v18h24V0z" clip-rule="evenodd"/><mask id="c" width="24" height="18" x="0" y="0" maskUnits="userSpaceOnUse" style="mask-type:luminance"><path fill="#fff" fill-rule="evenodd" d="M0 0v18h24V0z" clip-rule="evenodd"/></mask><g mask="url(#c)"><path fill="#BF2714" fill-rule="evenodd" d="M0 0v6h24V0z" clip-rule="evenodd"/><path fill="#272727" fill-rule="evenodd" d="M0 12v6h24v-6z" clip-rule="evenodd"/><path fill="#C09302" d="m9.195 7.665.75.035-.188 4.102-.75-.034zm.783.255.749.042-.188 3.327-.749-.043z"/><path fill="#C09302" d="m10.761 8.169.748.061-.188 2.292-.748-.061zm4.044-.504-.75.035.189 4.102.75-.034zm-.783.255-.748.042.188 3.327.748-.043z"/><path fill="#C09302" d="m13.24 8.169-.748.061.188 2.292.747-.061zm-1.26 3.326-.731-.167.31-1.351.73.168z"/><path fill="#C09302" d="m12.54 11.495.731-.167-.31-1.351-.73.168z"/><path fill="#C09302" d="M12.354 11.483h-.75v-1.326h.75zm-1.378-3.298.75.018-.044 1.786-.75-.018zm1.304 0 .75.018-.043 1.786-.75-.018z"/><path fill="#C09302" d="m10.003 11.942.195-.724c.796.214 1.407.32 1.824.32.416 0 1.027-.106 1.823-.32l.195.724c-.854.23-1.523.346-2.018.346s-1.165-.116-2.019-.346m-.791-4.275c-.05-.495.24-.83.732-.788.161.014.343.062.584.144l.14.048c.332.119.422.149.44.153-.073-.017.144-.409.194-.475.006.042-.02.036-.08.024l-.676-.135.482-.494a.88.88 0 0 1 .648-.259c.027 0 .051 0 .133-.006.06-.004.06-.004.128-.006.467-.016.803.117.803.598 0 .172.022.45.058.66.012.07.035.136-.034.165.003-.025.167-.09.422-.196l.03-.013c.741-.31.828-.338 1.066-.193.16.097.31.27.48.53l-.627.41c-.11-.166-.197-.268-.238-.296.094.065-.223.17-.392.24l-.03.014c-.576.24-.652.27-.817.27-.449 0-.61-.46-.654-1.118-.138.455-.551 1.03-.892 1.03-.149 0-.077.024-.696-.196l-.129-.045a2 2 0 0 0-.407-.107l.03-.03z"/></g></g></g><rect width="23" height="17" x=".5" y=".5" stroke="#000" stroke-opacity=".1" rx="1.5"/><defs><clipPath id="a"><rect width="24" height="18" fill="#fff" rx="2"/></clipPath></defs></svg>