<svg xmlns="http://www.w3.org/2000/svg" fill="none" viewBox="0 0 24 18"><g clip-path="url(#a)"><mask id="b" width="24" height="18" x="0" y="0" maskUnits="userSpaceOnUse" style="mask-type:luminance"><path fill="#fff" d="M0 0h24v18H0z"/></mask><g mask="url(#b)"><path fill="#FFB400" fill-rule="evenodd" d="M0 0v18h24V0H0Z" clip-rule="evenodd"/><mask id="c" width="24" height="18" x="0" y="0" maskUnits="userSpaceOnUse" style="mask-type:luminance"><path fill="#fff" fill-rule="evenodd" d="M0 0v18h24V0H0Z" clip-rule="evenodd"/></mask><g mask="url(#c)"><path fill="#C51918" fill-rule="evenodd" d="M0 0v4.5h24V0H0Zm0 13.5V18h24v-4.5H0Z" clip-rule="evenodd"/><path fill="#F1F9FF" d="M3.756 7.704h.84v4.368h-.84z"/><path fill="#C88A02" fill-rule="evenodd" d="M4.932 6.948H3.42v.42h.252v.336H4.68v-.336h.252v-.42Zm-.252 5.376h.252v.42H3.42v-.42h.252v-.336H4.68v.336Z" clip-rule="evenodd"/><path fill="#AD1619" fill-rule="evenodd" d="M4.176 7.032c.183 0 .201-.069.31-.172.083-.08.278-.178.278-.29 0-.255-.263-.462-.588-.462-.325 0-.588.207-.588.462 0 .124.134.207.236.29.107.088.185.172.352.172Z" clip-rule="evenodd"/><path fill="#005BBF" fill-rule="evenodd" d="M3.42 12.744h1.512v.672s-.189-.084-.378-.084-.378.084-.378.084-.189-.084-.378-.084-.378.084-.378.084v-.672Z" clip-rule="evenodd"/><mask id="d" width="2" height="2" x="3" y="12" maskUnits="userSpaceOnUse" style="mask-type:luminance"><path fill="#fff" fill-rule="evenodd" d="M3.42 12.744h1.512v.672s-.189-.084-.378-.084-.378.084-.378.084-.189-.084-.378-.084-.378.084-.378.084v-.672Z" clip-rule="evenodd"/></mask><g fill="#fff" mask="url(#d)"><path d="m3.406 13.284-.033-.08a1 1 0 0 1 .41-.092c.089 0 .135.013.213.048.07.03.105.04.18.04.076 0 .111-.01.18-.04a.445.445 0 0 1 .214-.048 1 1 0 0 1 .41.091l-.034.08a.92.92 0 0 0-.376-.083.368.368 0 0 0-.18.04.445.445 0 0 1-.214.047.445.445 0 0 1-.213-.047.368.368 0 0 0-.18-.04.92.92 0 0 0-.377.084Zm0-.252-.033-.08a1 1 0 0 1 .41-.091.44.44 0 0 1 .213.047c.07.03.105.04.18.04.076 0 .111-.01.18-.04a.445.445 0 0 1 .214-.047 1 1 0 0 1 .41.09l-.034.081a.92.92 0 0 0-.376-.084.368.368 0 0 0-.18.04.445.445 0 0 1-.214.048.445.445 0 0 1-.213-.048.368.368 0 0 0-.18-.04.92.92 0 0 0-.377.084Z"/></g><path fill="#F1F9FF" d="M11.988 7.704h.84v4.368h-.84z"/><path fill="#C88A02" fill-rule="evenodd" d="M13.164 6.948h-1.512v.42h.252v.336h1.008v-.336h.252v-.42Zm-.252 5.376h.252v.42h-1.512v-.42h.252v-.336h1.008v.336Z" clip-rule="evenodd"/><path fill="#AD1619" fill-rule="evenodd" d="M12.408 7.032c.183 0 .201-.069.31-.172.083-.08.278-.178.278-.29 0-.255-.263-.462-.588-.462-.325 0-.588.207-.588.462 0 .124.134.207.236.29.107.088.185.172.352.172Z" clip-rule="evenodd"/><path fill="#005BBF" fill-rule="evenodd" d="M11.652 12.744h1.512v.672s-.189-.084-.378-.084-.378.084-.378.084-.189-.084-.378-.084-.378.084-.378.084v-.672Z" clip-rule="evenodd"/><mask id="e" width="3" height="2" x="11" y="12" maskUnits="userSpaceOnUse" style="mask-type:luminance"><path fill="#fff" fill-rule="evenodd" d="M11.652 12.744h1.512v.672s-.189-.084-.378-.084-.378.084-.378.084-.189-.084-.378-.084-.378.084-.378.084v-.672Z" clip-rule="evenodd"/></mask><g fill="#fff" mask="url(#e)"><path d="m11.638 13.284-.033-.08a.996.996 0 0 1 .41-.092c.088 0 .135.013.213.048.07.03.105.04.18.04.076 0 .112-.01.18-.04a.445.445 0 0 1 .214-.048c.136 0 .273.03.41.091l-.034.08a.92.92 0 0 0-.377-.083.368.368 0 0 0-.18.04.445.445 0 0 1-.213.047.445.445 0 0 1-.213-.047.368.368 0 0 0-.18-.04.92.92 0 0 0-.377.084Zm0-.252-.033-.08a.994.994 0 0 1 .41-.091c.088 0 .135.012.213.047.07.03.105.04.18.04.076 0 .112-.01.18-.04a.445.445 0 0 1 .214-.047c.136 0 .273.03.41.09l-.034.081a.92.92 0 0 0-.377-.084.368.368 0 0 0-.18.04.445.445 0 0 1-.213.048.445.445 0 0 1-.213-.048.368.368 0 0 0-.18-.04.92.92 0 0 0-.377.084Z"/></g><path fill="#AD1619" fill-rule="evenodd" d="M3.741 11.76c.151-.184.236-.35.236-.528a.474.474 0 0 0-.091-.287l.01-.005c-.002 0 .165-.072.224-.1.108-.052.203-.107.296-.174.06-.043.139-.09.26-.155l.114-.061.03-.016c.06-.032.103-.056.144-.08a.907.907 0 0 0 .274-.215.401.401 0 0 0-.092-.599c-.104-.07-.245-.112-.451-.144l-.043-.006-.252-.04-.266-.043c.517-.086 1.254-.054 1.579.113l.308-.597c-.661-.341-2.167-.306-2.73.081-.412.284-.357.714.072.899.18.077.414.128.846.198-.072.042-.132.08-.188.121a1.2 1.2 0 0 1-.192.112 8.54 8.54 0 0 1-.188.084l-.024.01c-.35.16-.52.38-.469.777l.028.214.05.016.515.425Zm-.432-.556-.001.004v-.003Zm9.22.028c0 .177.085.344.237.528l.515-.425.05-.016.027-.215c.05-.397-.119-.617-.469-.776l-.024-.01-.188-.084a1.201 1.201 0 0 1-.191-.112 2.137 2.137 0 0 0-.189-.121c.433-.07.667-.121.846-.198.43-.185.485-.615.072-.899-.562-.387-2.068-.422-2.73-.081l.309.597c.324-.167 1.062-.199 1.578-.113-.078.014-.166.028-.265.044l-.252.039-.043.006c-.206.032-.347.073-.451.144a.401.401 0 0 0-.093.599.907.907 0 0 0 .275.216l.143.079.031.016.114.06c.121.066.2.113.26.156.093.067.188.122.296.174.058.028.225.1.224.1l.01.005a.474.474 0 0 0-.091.287Z" clip-rule="evenodd"/><path fill="#F1F9FF" d="m4.443 9.3.247.051v.37c-.264.21-.934.566-.934.566V9.3h.687Zm7.793 0-.248.051v.37c.264.21.934.566.934.566V9.3h-.686Z"/><path fill="#AD1619" fill-rule="evenodd" d="M11.082 5.405v-.123c-.432-.31-.885-.466-1.357-.466a2.71 2.71 0 0 0-1.38-.233v.037c-.024.284-.162 1.991 0 2.256V4.62m0 2.262v.002s1.106-.03 1.183-.056l.096-.03c.216-.062.464-.135.61-.543l.848-.85" clip-rule="evenodd"/><path fill="#C88A02" fill-rule="evenodd" d="M6.235 6.112V6.11l-.595-.561.057-.061.56.526.014-.066c.091.02.158.027.197.023v-.114l.124.067c.061.033.149.042.264.023.084-.014.141-.112.16-.32l.037-.423.127.405c.057.183.144.263.268.263.121 0 .17-.044.175-.156l.015-.317.144.283c.052.102.123.149.225.149.145 0 .242-.121.242-.311h.17c0 .19.097.31.242.31.102 0 .173-.046.225-.148l.143-.283.016.317c.005.112.054.156.175.156.124 0 .211-.08.268-.263l.126-.405.038.422c.019.21.076.307.16.321.115.019.203.01.264-.023l.123-.067v.114a.712.712 0 0 0 .198-.023l.026.122.62-.582.057.06-.77.726c-.113.207-.17.343-.17.4 0 .087-.225.138-.664.191-.345.041-.751.07-1.084.073h-.084a10.83 10.83 0 0 1-1.084-.073c-.44-.053-.665-.104-.665-.19a.177.177 0 0 0-.006-.042.66.66 0 0 1-.096-.232 4.23 4.23 0 0 0-.067-.127l-.17-.16-.005-.002Zm4.13.014c-.138.024-.238.022-.29-.021a.66.66 0 0 1-.29.008c-.118-.02-.2-.098-.25-.228a.385.385 0 0 1-.243.15c.537.076.914.183.914.183s-.01.08-.032.173a3.88 3.88 0 0 1 .085-.163l.008-.01.097-.092Zm-1.327-.123a.27.27 0 0 1-.11-.1.374.374 0 0 1-.137.077c.084.006.167.014.247.023Zm-.544-.04a.385.385 0 0 1-.16-.14.385.385 0 0 1-.16.14 6.23 6.23 0 0 1 .117-.003h.067c.046 0 .091.002.136.003Zm-2.027.248-.079-.073c.094.01.164 0 .205-.033a.66.66 0 0 0 .29.008c.118-.02.2-.098.25-.228.062.08.14.13.234.148a7.971 7.971 0 0 0-.9.178Zm1.406-.233A7.461 7.461 0 0 0 7.635 6a.27.27 0 0 0 .106-.098c.039.035.083.06.132.076Zm2.067.698c.059.027.106 0 .143-.053a.273.273 0 0 0-.006.04.81.81 0 0 1-.147.048 4.583 4.583 0 0 1-.444.07c-.356.043-.78.071-1.116.074-.337-.003-.76-.03-1.116-.073a4.598 4.598 0 0 1-.444-.071.947.947 0 0 1-.11-.031.127.127 0 0 0 .009-.004c.183-.086 1.397-.167 1.615-.18.219.013 1.432.094 1.616.18Zm.231-.016-.001.002V6.66h.001Z" clip-rule="evenodd"/><path fill="#005BBF" fill-rule="evenodd" d="M8.334 4.01a.252.252 0 1 0 0-.504.252.252 0 0 0 0 .504Z" clip-rule="evenodd"/><path fill="#C88A02" fill-rule="evenodd" d="M8.17 5.248a.335.335 0 0 0 .025.076.318.318 0 0 0-.113-.02c-.116 0-.21.057-.21.126 0 .07.094.126.21.126.116 0 .21-.056.21-.126 0 .07.094.126.21.126.116 0 .21-.056.21-.126s-.094-.126-.21-.126a.333.333 0 0 0-.082.01.318.318 0 0 0-.002-.114c-.023-.114-.096-.196-.164-.183-.068.014-.106.117-.084.23Zm.122.182v-.004.004Zm-1.357-.022a.335.335 0 0 1-.025-.076c-.022-.114.016-.217.084-.23.068-.014.141.068.164.182.008.04.008.08.002.114a.333.333 0 0 1 .082-.01c.116 0 .21.057.21.126 0 .07-.094.126-.21.126-.116 0-.21-.056-.21-.126v-.003.003c0 .07-.094.126-.21.126-.116 0-.21-.056-.21-.126s.094-.126.21-.126c.041 0 .08.008.113.02Zm2.63.077c-.01.069-.11.111-.225.095s-.2-.085-.19-.154c.01-.069.11-.111.225-.095a.318.318 0 0 1 .109.035.334.334 0 0 1-.014-.08c-.006-.115.046-.212.115-.215.07-.004.13.087.137.203a.318.318 0 0 1-.014.114.334.334 0 0 1 .083.001c.115.016.2.085.19.154-.01.07-.11.112-.225.096s-.2-.085-.19-.154Zm0 0 .001-.004v.004Zm.8.333c.103.054.212.049.245-.013l.002-.003c.01.01.022.018.035.022.067.02.148-.053.182-.164.034-.11.008-.217-.059-.237-.066-.02-.148.053-.182.164a.336.336 0 0 0-.014.079.318.318 0 0 0-.09-.07c-.103-.055-.212-.05-.245.012s.024.155.126.21Zm-4.121.026c-.103.054-.212.048-.245-.013a.079.079 0 0 1-.002-.003.082.082 0 0 1-.035.022c-.067.02-.148-.053-.182-.164-.034-.11-.008-.217.059-.237.066-.02.148.053.182.163a.334.334 0 0 1 .014.08.318.318 0 0 1 .09-.07c.103-.055.212-.05.245.012.033.061-.024.155-.126.21ZM8.24 3.058h.175v.11h.114v.175h-.114v.35h.114v.175h-.405v-.175h.116v-.35h-.116v-.175h.116v-.11Z" clip-rule="evenodd"/><path fill="#C88A02" d="M8.208 4.008h.336V5.1h-.336z"/><path fill="#fff" d="m6.855 4.191-.001.084c-.745-.013-1.172.096-1.28.312-.113.224-.092.497.065.82l-.075.037c-.168-.345-.19-.644-.066-.894.13-.258.581-.373 1.357-.359Z"/><path fill="#fff" d="m7 4.936-.044.072c-.162-.097-.243-.262-.243-.49 0-.327.169-.52.542-.65.238-.084.563-.05.976.1l-.028.079c-.397-.144-.704-.177-.92-.1-.342.12-.486.283-.486.571 0 .2.068.337.203.418Z"/><path fill="#C88A02" d="m5.745 5.278-.158.056c-.165-.468-.118-.786.163-.924.248-.12.609-.17 1.085-.15l-.007.167c-.45-.018-.786.028-1.004.134-.185.09-.219.32-.079.717Z"/><path fill="#C88A02" d="M7.597 4.08c-.384 0-.542.093-.632.369-.057.176-.002.326.179.466l-.103.133c-.234-.181-.316-.404-.236-.651.115-.352.34-.486.792-.486.296 0 .526.078.687.236l.025.025v.81H8.14v-.738c-.125-.11-.305-.165-.544-.165Z"/><path fill="#fff" d="m9.787 4.275.001.084c.745-.013 1.172.096 1.28.312.113.224.092.497-.065.82l.075.037c.168-.345.191-.644.066-.894-.129-.258-.58-.373-1.357-.359Z"/><path fill="#fff" d="m9.524 4.953.043.072c.162-.096.243-.262.243-.49 0-.327-.168-.519-.541-.65-.239-.084-.564-.05-.977.1l.029.08c.396-.145.703-.177.92-.101.342.12.485.284.485.571 0 .2-.067.338-.202.418Z"/><path fill="#C88A02" d="m10.95 5.362.158.056c.164-.468.117-.787-.164-.924-.247-.12-.608-.17-1.084-.15l.007.167c.45-.018.786.028 1.004.134.184.09.218.32.078.717Z"/><path fill="#C88A02" d="M9.088 4.092c.384 0 .542.094.632.37.057.176.002.326-.179.466l.103.133c.234-.182.316-.404.236-.651-.115-.352-.34-.486-.792-.486-.296 0-.526.078-.687.236l-.025.025v.81h.168v-.738c.125-.11.305-.165.544-.165Z"/><path fill="#E1E5E8" fill-rule="evenodd" d="M5.604 6.948h5.46v4.906s-.406 1.646-2.73 1.646-2.73-1.69-2.73-1.69V6.948Z" clip-rule="evenodd" opacity=".3"/><mask id="f" width="7" height="8" x="5" y="6" maskUnits="userSpaceOnUse" style="mask-type:luminance"><path fill="#fff" fill-rule="evenodd" d="M5.604 6.948h5.46v4.906s-.406 1.646-2.73 1.646-2.73-1.69-2.73-1.69V6.948Z" clip-rule="evenodd"/></mask><g mask="url(#f)"><path fill="#FFC034" d="M5.604 9.972h2.772v3.276H5.604z"/><path fill="#AD1619" d="M5.94 10.14h.336v3.108H5.94zm1.176 0h.336v3.108h-.336zm-.588 0h.336v3.108h-.336zm1.176 0h.336v3.108h-.336zm-2.1-3.276h2.772v3.192H5.604z"/><path fill="#AD1619" d="M8.292 9.888h2.772v3.192H8.292z"/><path fill="#F1F9FF" d="M8.292 6.948h2.94v3.108h-2.94z"/><path fill="#C88A02" fill-rule="evenodd" d="M6.78 7.2h.252v.697H7.2v-.349h.252v.349h.252v.435h-.252v.784h.252v.436H6.192v-.436h.252v-.784h-.252v-.435h.168v-.349h.252v.349h.168V7.2Z" clip-rule="evenodd"/><path fill="#C88A02" d="m9.734 7.346.172-.184.361.337-.172.185-.36-.338Z"/><path fill="#FFC034" fill-rule="evenodd" d="M10.77 12.105v-1.839h-2.1v1.824l.003.014c.107.453.469.682 1.047.682s.94-.223 1.046-.666l.004-.015Zm-1.05.429c-.464 0-.717-.156-.798-.474v-1.542h1.596v1.556c-.08.308-.334.46-.798.46Z" clip-rule="evenodd"/><path fill="#FFC034" fill-rule="evenodd" d="M9.807 10.42h-.175v.833l-.69-.75-.124.114.624.678h-.565v.252h.579l-.638.694.124.114.69-.75v.974h.175v-.887l.609.663.124-.114-.638-.694h.712v-.252h-.698l.624-.678-.124-.114-.61.663v-.746Z" clip-rule="evenodd"/><path fill="#F1F9FF" fill-rule="evenodd" d="M10.112 13.082s-1.78.14-1.78-1.008c0 0-.016 1.008-1.874 1.008v.906h3.654v-.906Z" clip-rule="evenodd"/><path fill="#005BBF" fill-rule="evenodd" stroke="#AD1619" stroke-width="1.167" d="M8.334 10.644c.348 0 .63-.3.63-.672 0-.371-.282-.672-.63-.672-.348 0-.63.3-.63.672 0 .371.282.672.63.672Z" clip-rule="evenodd"/></g></g></g></g><path stroke="#000" stroke-opacity=".1" stroke-width=".5" d="M.25.25h23.5v17.5H.25z"/><defs><clipPath id="a"><path fill="#fff" d="M0 0h24v18H0z"/></clipPath></defs></svg>