<svg xmlns="http://www.w3.org/2000/svg" fill="none" viewBox="0 0 24 18"><g clip-path="url(#a)"><mask id="b" width="24" height="18" x="0" y="0" maskUnits="userSpaceOnUse" style="mask-type:luminance"><path fill="#fff" d="M0 0h24v18H0z"/></mask><g mask="url(#b)"><path fill="#FECA00" fill-rule="evenodd" d="M0 0v18h24V0z" clip-rule="evenodd"/><mask id="c" width="24" height="18" x="0" y="0" maskUnits="userSpaceOnUse" style="mask-type:luminance"><path fill="#fff" fill-rule="evenodd" d="M0 0v18h24V0z" clip-rule="evenodd"/></mask><g clip-rule="evenodd" mask="url(#c)"><path fill="#5EAA22" fill-rule="evenodd" d="M0 0v6h24V0z"/><path fill="#E31D1C" fill-rule="evenodd" d="M0 12v6h24v-6z"/><path fill="#2B77B8" fill-rule="evenodd" d="M12 13.5a4.5 4.5 0 1 0 0-9 4.5 4.5 0 0 0 0 9"/><path stroke="#FECA00" stroke-width="1.5" d="m12 10.5-2.071.695.644-1.731-1.405-1.678h1.95L12 6l.882 1.786h1.993l-1.448 1.678.514 1.73z"/></g></g></g><rect width="23" height="17" x=".5" y=".5" stroke="#000" stroke-opacity=".1" rx="1.5"/><defs><clipPath id="a"><rect width="24" height="18" fill="#fff" rx="2"/></clipPath></defs></svg>