<svg xmlns="http://www.w3.org/2000/svg" fill="none" viewBox="0 0 24 18"><g clip-path="url(#a)"><mask id="b" width="24" height="18" x="0" y="0" maskUnits="userSpaceOnUse" style="mask-type:luminance"><path fill="#fff" d="M0 0h24v18H0z"/></mask><g mask="url(#b)"><path fill="#C51918" fill-rule="evenodd" d="M0 0v18h24V0H0Z" clip-rule="evenodd"/><mask id="c" width="24" height="18" x="0" y="0" maskUnits="userSpaceOnUse" style="mask-type:luminance"><path fill="#fff" fill-rule="evenodd" d="M0 0v18h24V0H0Z" clip-rule="evenodd"/></mask><g mask="url(#c)"><path fill="#4257BF" d="M0 0h10.5v7.5H0zm13.5 10.5H24V18H13.5z"/><path fill="#F7FCFF" fill-rule="evenodd" d="M9.75 0h4.5v6.75H24v4.5h-9.75V18h-4.5v-6.75H0v-4.5h9.75V0Z" clip-rule="evenodd"/><path fill="#5AB92D" fill-rule="evenodd" d="M10.4 7.894c-.03-.132-.061-.294-.061-.294a.812.812 0 0 0-.065.47l-.082.125a2.653 2.653 0 0 1-.172-.309c.004.06.002.119 0 .177-.003.136-.006.263.054.343v.001a2.132 2.132 0 0 0-.035.08c-.083-.089-.22-.248-.22-.248.01.19.06.34.15.448-.016.056-.03.111-.04.166a10.73 10.73 0 0 1-.137-.152c.01.174.037.288.108.385a1.633 1.633 0 0 0-.002.082l-.148-.165a.63.63 0 0 0 .166.404c.008.058.02.116.035.173l.009.031c-.102-.053-.214-.114-.214-.114a.627.627 0 0 0 .272.311c.024.074.05.145.075.213-.12-.037-.3-.097-.3-.097a.637.637 0 0 0 .375.277c.028.063.058.123.088.18-.114-.036-.25-.082-.25-.082.106.16.23.231.363.274.088.133.183.242.28.324-.112.047-.257.104-.257.104a.62.62 0 0 0 .404-.005l.008.004c.047.024.1.047.16.07l-.182.073a.624.624 0 0 0 .397-.004l.006.002c.053.016.108.03.18.05l.163.043a1.015 1.015 0 0 1 .217.075l.001.001.088-.067a.129.129 0 0 0-.043-.038 1.024 1.024 0 0 0-.236-.083l-.167-.044a7.05 7.05 0 0 1-.175-.048l-.04-.012a.625.625 0 0 0-.093-.387s-.03.22-.05.341a1.523 1.523 0 0 1-.224-.101.626.626 0 0 0-.16-.374l.01.254a1.516 1.516 0 0 1-.213-.267l.064.036a.65.65 0 0 0-.163-.458l.01.27a2.926 2.926 0 0 1-.115-.24.627.627 0 0 0-.02-.412s-.03.097-.063.195a3.948 3.948 0 0 1-.028-.082.638.638 0 0 0 .078-.46s-.079.15-.139.26l-.012-.045a1.485 1.485 0 0 1-.031-.147.632.632 0 0 0 .213-.39s-.136.124-.23.206c-.002-.042-.001-.084 0-.126a.629.629 0 0 0 .263-.338s-.135.087-.24.15c.006-.04.015-.082.026-.123a.643.643 0 0 0 .312-.368s-.137.087-.242.15a1.483 1.483 0 0 1 .125-.254.626.626 0 0 0 .32-.25l-.196.06c.056-.08.12-.17.196-.27l-.085-.073c-.03.041-.06.08-.087.119Zm3.035 0c.028-.132.06-.294.06-.294.07.173.093.33.065.47l.082.125c.076-.107.171-.309.171-.309a2.164 2.164 0 0 0 0 .177c.003.136.007.263-.053.343v.001c.012.027.024.053.034.08.083-.089.22-.248.22-.248-.01.19-.06.34-.15.448.017.056.03.111.041.166.07-.076.136-.152.136-.152-.01.174-.037.288-.107.385l.002.082.148-.165a.63.63 0 0 1-.166.404c-.009.058-.02.116-.036.173l-.008.031c.102-.053.214-.114.214-.114a.626.626 0 0 1-.273.311 3.98 3.98 0 0 1-.075.213c.12-.037.3-.097.3-.097a.638.638 0 0 1-.374.277 2.995 2.995 0 0 1-.088.18c.114-.036.25-.082.25-.082a.635.635 0 0 1-.364.274 1.475 1.475 0 0 1-.28.324c.113.047.258.104.258.104a.626.626 0 0 1-.404-.005L13.03 11c-.048.024-.1.047-.16.07l.182.073a.625.625 0 0 1-.397-.004l-.006.002-.18.05-.163.043a1.012 1.012 0 0 0-.21.071l-.007.004-.002.001-.087-.067a.13.13 0 0 1 .042-.038c.043-.026.113-.049.237-.083l.167-.044c.07-.018.123-.033.175-.048l.04-.012a.625.625 0 0 1 .093-.387s.029.22.049.341a1.516 1.516 0 0 0 .225-.101.625.625 0 0 1 .16-.374l-.01.254c.074-.071.145-.161.213-.267l-.064.036c0-.151.027-.3.163-.458 0 0-.007.148-.01.27.04-.075.078-.155.114-.24a.626.626 0 0 1 .021-.412s.03.097.063.195l.028-.082a.639.639 0 0 1-.078-.46s.078.15.138.26l.012-.045c.013-.049.024-.098.032-.147a.632.632 0 0 1-.213-.39s.136.124.23.206a1.324 1.324 0 0 0-.001-.126.629.629 0 0 1-.262-.338s.135.087.24.15a1.661 1.661 0 0 0-.026-.123.644.644 0 0 1-.312-.368s.136.087.242.15a1.504 1.504 0 0 0-.125-.254.626.626 0 0 1-.32-.25l.196.06a8.385 8.385 0 0 0-.196-.27l.084-.073.088.119Z" clip-rule="evenodd"/><path fill="#003994" d="M9.939 6.987c.3-.21.849-.393 1.132-.393a.04.04 0 0 0 .012-.004c.024-.01.178-.105.188-.111.2-.114.409-.175.694-.175v.5a.875.875 0 0 0-.472.116c.023-.014-.177.11-.24.136a.468.468 0 0 1-.182.038c-.19 0-.65.153-.874.31-.081.057-.074.04-.071.074.009.123 0 .198-.076.294a.523.523 0 0 0-.027.202l-.469-.006c.003-.197.033-.353.103-.47-.01-.201.061-.356.282-.511Z"/><path fill="#EBCA5E" d="m10.19 7.174-.053-.083c.241-.17.465-.256.674-.256a.677.677 0 0 0 .239-.054 2.21 2.21 0 0 0 .208-.095c.306-.156.314-.16.395-.16h.276v.1h-.276c-.059 0-.077.009-.354.15a2.295 2.295 0 0 1-.217.1.76.76 0 0 1-.271.06c-.188 0-.395.078-.622.238Z"/><path fill="#003994" d="M13.874 6.987c-.3-.21-.85-.393-1.132-.393a.04.04 0 0 1-.013-.004c-.023-.01-.178-.105-.188-.111a1.316 1.316 0 0 0-.693-.175v.5c.204 0 .338.039.472.116-.024-.014.176.11.24.136.06.025.119.038.182.038.19 0 .65.153.874.31.08.057.073.04.07.074-.008.123 0 .198.076.294.01.012.026.08.027.202l.469-.006c-.002-.197-.032-.353-.103-.47.01-.201-.06-.356-.281-.511Z"/><path fill="#EBCA5E" d="m13.586 7.174.051-.083c-.24-.17-.465-.256-.673-.256a.677.677 0 0 1-.239-.054 2.223 2.223 0 0 1-.208-.095c-.306-.156-.314-.16-.395-.16h-.276v.1h.276c.059 0 .077.009.354.15.087.044.152.074.217.1.101.038.19.06.271.06.188 0 .395.078.622.238Z"/><path fill="#003994" d="m10.367 7.515.244.265v1.105h.247v.07l.361.174s.055-.73-.115-.923c-.17-.193.116-.24.116-.24l.433.434v-.885h-1.286Z"/><path fill="#D62818" d="m13.303 7.515-.244.265v1.105h-.247v.07l-.362.174s-.054-.73.116-.923c.17-.193-.116-.24-.116-.24l-.433.434v-.885h1.286Z"/><path fill="#FFC300" d="m11.158 7.948-.037.045.721.667.039-.002.596-.667-.04-.042-.578.647-.701-.648Z"/><path fill="#FFC300" d="m11.055 8.228-.047.045.921.667.05-.002.761-.667-.052-.042-.738.647-.895-.648Z"/><path fill="#D62818" d="M10.633 9.317h.316l.216.066s.07.495.417.495l.057.635-.27-.145s-.174.077-.204.077-.279.14-.279 0-.253-.366-.253-.366v-.762Z"/><path fill="#003994" d="M13.139 9.317h-.317l-.216.066s-.07.495-.417.495l-.056.635.269-.145s.174.077.204.077.279.14.279 0 .254-.366.254-.366v-.762Z"/><path fill="#D62818" d="M12.46 9.376h.375c0 .281-.099.508-.294.662l-.223-.321c.096-.076.142-.182.142-.34Zm-.982-.771v.526h.436s-.041.394-.041.643c0 .25.041.572.041.572s.107-.053.107-.39v-.861l.344.036-.036-.474h-.146s.224.295 0 .295c-.223 0-.48.058-.528.058-.049 0-.177-.405-.177-.405Z"/><path fill="#003994" d="M11.857 9.24s-.245.145-.245.38c0 .234.123.502.123.502s-.058-.529.032-.67c.09-.14.09-.211.09-.211Zm-.398.174s-.014.17.086.17c.101 0-.086-.17-.086-.17Z"/><path fill="#373737" d="m12.32 8.958.04.134-.642.21-.143-.597.127-.035.11.455.509-.167Z"/><path fill="#D62818" fill-rule="evenodd" d="m10.527 11.556-.056.048a.586.586 0 0 1-.049-.076.623.623 0 0 1-.153-.076c-.061-.043-.124-.043-.204.004l-.09-.175c.138-.081.275-.081.397.004a.12.12 0 0 1 .004.003.361.361 0 0 1 .194-.25c.19-.109 1.027-.223 1.281-.223v.32c-.206 0-1.007.11-1.14.185l-.011.006c-.018.01-.027.015-.029.023-.001.006.003.013.012.026.007 0 .012-.002.014-.004l.133.14c-.055.06-.178.07-.303.046Zm-.896.006s.277.244.477.185c.2-.06.262-.126.262-.126s-.2-.027-.411-.059c-.213-.032-.328 0-.328 0Z" clip-rule="evenodd"/><path fill="#EBCA5E" fill-rule="evenodd" d="m10.549 11.385.034-.049c-.1-.079-.074-.123.116-.165l.05-.011-.01-.06a6.264 6.264 0 0 0-.05.011c-.23.052-.29.154-.14.274Z" clip-rule="evenodd"/><path fill="#D62818" fill-rule="evenodd" d="m13.098 11.556.056.048a.586.586 0 0 0 .049-.076.623.623 0 0 0 .153-.076c.061-.043.124-.043.204.004l.09-.175c-.138-.081-.275-.081-.397.004a.12.12 0 0 0-.004.003.361.361 0 0 0-.194-.25c-.19-.109-1.027-.223-1.281-.223v.32c.206 0 1.007.11 1.14.185l.011.006c.018.01.027.015.029.023.001.006-.003.013-.012.026-.007 0-.012-.002-.014-.004l-.133.14c.055.06.178.07.303.046Zm.896.006s-.277.244-.477.185c-.2-.06-.262-.126-.262-.126s.2-.027.411-.059a.854.854 0 0 1 .328 0Z" clip-rule="evenodd"/><path fill="#EBCA5E" fill-rule="evenodd" d="m13.076 11.385-.034-.049c.1-.079.074-.123-.116-.165a6.313 6.313 0 0 0-.606-.103c.191.023.383.055.556.091l.01-.058a6.264 6.264 0 0 1 .05.011c.23.051.29.153.14.273Z" clip-rule="evenodd"/><path fill="#D62818" d="m11.524 11.633-.146-.257a.925.925 0 0 1 .51-.126c.208 0 .377.04.505.128l-.152.253c-.077-.053-.194-.081-.352-.081-.16 0-.28.029-.365.083Z"/></g></g></g><path stroke="#000" stroke-opacity=".1" stroke-width=".5" d="M.25.25h23.5v17.5H.25z"/><defs><clipPath id="a"><path fill="#fff" d="M0 0h24v18H0z"/></clipPath></defs></svg>