<svg xmlns="http://www.w3.org/2000/svg" fill="none" viewBox="0 0 24 18"><g clip-path="url(#a)"><path fill="#C00" d="M0 0h6v6H0z"/><path fill="#08672F" d="M6 .78V0h-.734L0 5.22V6h.734L6 .78Z"/><path fill="#08672F" d="M0 .78V0h.734L6 5.22V6h-.748L0 .78Z"/><path fill="#fff" d="m0 2.258 6-.008v1.492L0 3.75V2.258Z"/><path fill="#fff" d="M2.25 0h1.492l.008 6H2.258L2.25 0ZM0 6h6v6H0V6Z"/><path fill="#000" fill-rule="evenodd" d="M4.918 6.793c0-.024.004-.05.008-.06.01-.024.031-.022.04.001.003.012.01.056.013.101a.59.59 0 0 0 .064.235.82.82 0 0 0 .12.177l.038.045-.07-.002a.396.396 0 0 1-.082-.008c-.01-.006-.014 0-.017.035-.003.046-.024.083-.057.1-.018.012-.025.01-.042-.001a.163.163 0 0 1-.058-.103c-.006-.03-.007-.034-.022-.025a.356.356 0 0 1-.14.006.36.36 0 0 1 .043-.057.686.686 0 0 0 .162-.444ZM.803 8.964a.157.157 0 0 1 .024-.058c.022-.029.04-.035.03-.011a.121.121 0 0 0 .015.118c.03.046.036.108.016.152-.023.047-.071.049-.1.002-.024-.037-.026-.08-.005-.133a.447.447 0 0 0 .02-.07Zm2.75-.045a.157.157 0 0 1 .024-.058c.022-.03.04-.036.03-.012a.121.121 0 0 0 .015.119c.03.046.036.107.016.151-.022.048-.07.05-.1.003-.024-.037-.026-.081-.005-.133a.448.448 0 0 0 .02-.07Zm-1.39.028a.157.157 0 0 1 .025-.059c.022-.028.04-.035.03-.01a.121.121 0 0 0 .015.118c.03.045.036.107.016.151-.023.048-.071.05-.1.003-.024-.037-.026-.081-.005-.133a.45.45 0 0 0 .02-.07Zm2.626.194c-.037.028-.077.035-.107.019-.024-.013-.026-.005-.007.021.01.014.033.028.053.033a.81.81 0 0 1 .073.025c.05.021.095.02.128-.002.067-.046.023-.125-.068-.124a.11.11 0 0 0-.072.028Zm.2.094a.204.204 0 0 0-.007.06.686.686 0 0 1-.163.444.362.362 0 0 0-.042.057c0 .01.123.004.14-.006.014-.008.016-.005.021.026a.16.16 0 0 0 .058.102c.017.012.024.013.043.002.032-.017.053-.054.056-.1.004-.036.007-.042.018-.036a.395.395 0 0 0 .082.008l.07.003-.038-.046a.82.82 0 0 1-.12-.176.59.59 0 0 1-.065-.236.709.709 0 0 0-.013-.1c-.009-.024-.03-.026-.04-.002Zm-2.694-.066a.105.105 0 0 0-.038.03c-.045.065.06.135.136.09.08-.05.082-.05.121-.037.033.011.035.011.028-.003-.013-.027-.034-.039-.114-.067-.092-.031-.095-.031-.133-.013Zm-.42.046c.029.016.07.01.107-.019a.11.11 0 0 1 .071-.028c.092-.001.136.078.068.124-.033.023-.077.024-.127.002a.806.806 0 0 0-.074-.025.106.106 0 0 1-.052-.032c-.02-.027-.017-.035.006-.022Zm.306.075a.204.204 0 0 0-.007.06.686.686 0 0 1-.162.444.363.363 0 0 0-.043.057c0 .01.123.004.14-.006.014-.008.016-.005.022.026.007.042.03.083.057.102.018.012.024.013.043.002.033-.017.053-.054.057-.1.003-.036.006-.042.017-.036a.394.394 0 0 0 .082.008l.07.003-.037-.046a.82.82 0 0 1-.121-.176.589.589 0 0 1-.064-.235.712.712 0 0 0-.013-.101c-.009-.024-.03-.025-.04-.002Zm1.503-.149a.105.105 0 0 0-.038.03c-.045.066.06.135.136.09.08-.05.083-.05.122-.037.033.011.034.011.027-.003-.013-.027-.034-.039-.114-.067-.092-.031-.095-.031-.133-.013Zm-.42.046c.03.017.07.01.107-.019a.11.11 0 0 1 .072-.028c.09-.001.135.078.068.124-.034.023-.078.024-.128.002a.807.807 0 0 0-.073-.025.106.106 0 0 1-.053-.032c-.02-.027-.017-.035.006-.022Zm.307.075a.204.204 0 0 0-.008.06.686.686 0 0 1-.162.444.362.362 0 0 0-.043.057c0 .01.124.004.14-.006.015-.008.016-.005.022.026a.16.16 0 0 0 .057.102c.018.013.025.013.043.002.033-.017.054-.054.057-.1.003-.035.007-.042.017-.036a.394.394 0 0 0 .083.009l.069.002-.037-.046a.821.821 0 0 1-.12-.176.59.59 0 0 1-.065-.235.708.708 0 0 0-.013-.1c-.009-.025-.03-.026-.04-.003ZM.933 9.187a.106.106 0 0 0-.038.03c-.045.065.06.135.135.09.081-.05.083-.05.122-.037.033.01.035.01.028-.003-.013-.027-.034-.04-.114-.067-.092-.032-.095-.031-.133-.013Zm1.184-2.4a.204.204 0 0 0-.007.061.686.686 0 0 1-.163.444.362.362 0 0 0-.042.057c0 .009.123.004.14-.006.014-.008.016-.006.021.025.008.043.03.084.058.103.018.012.024.013.043.002.032-.018.053-.055.056-.101.004-.035.007-.041.018-.035a.394.394 0 0 0 .082.008l.07.002-.038-.045a.82.82 0 0 1-.12-.177.59.59 0 0 1-.064-.235.705.705 0 0 0-.014-.1c-.008-.024-.029-.026-.04-.002Zm1.382.034c0-.025.003-.051.007-.061.011-.024.032-.022.04.002a.7.7 0 0 1 .014.1.589.589 0 0 0 .064.236.82.82 0 0 0 .12.176l.038.046-.07-.003a.394.394 0 0 1-.082-.008c-.01-.006-.014 0-.017.035-.004.046-.024.083-.057.1-.019.012-.025.011-.043-.001a.163.163 0 0 1-.057-.103c-.006-.03-.008-.033-.022-.025a.357.357 0 0 1-.14.006c0-.004.02-.029.043-.057A.686.686 0 0 0 3.5 6.82ZM.772 6.804a.204.204 0 0 0-.007.06c0 .08-.02.172-.046.246l.002.275c.008.042.03.083.058.102.018.012.024.013.043.002.032-.017.053-.054.056-.1.004-.036.007-.042.018-.036a.395.395 0 0 0 .082.009l.07.002-.038-.046a.82.82 0 0 1-.12-.176.589.589 0 0 1-.064-.235.709.709 0 0 0-.014-.101c-.008-.024-.029-.025-.04-.002Zm3.522 3.392a.157.157 0 0 1 .024-.058c.022-.029.04-.035.03-.011a.121.121 0 0 0 .015.118c.03.046.036.108.016.152-.022.047-.07.049-.1.002-.024-.037-.026-.08-.005-.133a.447.447 0 0 0 .02-.07Zm.131.223a.105.105 0 0 0-.038.03c-.045.065.06.135.136.09.08-.05.083-.05.121-.037.034.01.035.01.028-.004-.013-.026-.034-.038-.114-.066-.092-.032-.095-.032-.133-.013Zm-.42.046c.03.016.07.01.107-.02a.11.11 0 0 1 .071-.027c.092-.002.136.078.068.123-.033.023-.077.024-.127.003a.815.815 0 0 0-.074-.026.106.106 0 0 1-.052-.032c-.02-.026-.017-.034.006-.021Zm.321.068a.2.2 0 0 0-.007.06.676.676 0 0 1-.162.44.355.355 0 0 0-.043.056.36.36 0 0 0 .14-.006c.014-.008.016-.005.021.026.008.042.03.082.058.101.018.012.024.013.043.002.032-.017.053-.054.056-.1.004-.034.007-.04.018-.035a.398.398 0 0 0 .082.008l.07.003-.038-.046a.81.81 0 0 1-.12-.174.579.579 0 0 1-.064-.233.697.697 0 0 0-.013-.1c-.01-.024-.03-.025-.04-.002Zm-2.84-.282a.157.157 0 0 1 .025-.058c.022-.029.04-.035.03-.011a.121.121 0 0 0 .014.118c.03.046.037.108.016.152-.022.047-.07.049-.1.002-.024-.037-.025-.08-.005-.133a.445.445 0 0 0 .02-.07Zm.132.223a.106.106 0 0 0-.038.03c-.045.065.06.135.135.09.08-.05.083-.05.122-.037.033.01.035.01.028-.003-.014-.027-.035-.04-.115-.067-.092-.031-.095-.031-.132-.013Zm-.421.046c.03.016.07.01.107-.02a.11.11 0 0 1 .072-.027c.091-.002.135.078.068.124-.033.022-.078.023-.127.002a.847.847 0 0 0-.074-.026.105.105 0 0 1-.052-.032c-.02-.026-.017-.034.006-.021Zm.322.068a.2.2 0 0 0-.007.06.676.676 0 0 1-.162.44.36.36 0 0 0-.043.056.36.36 0 0 0 .14-.006c.015-.008.016-.005.022.026a.16.16 0 0 0 .057.101c.018.012.024.013.043.002.033-.017.053-.054.057-.1.003-.034.006-.04.017-.035a.397.397 0 0 0 .083.009l.069.002-.037-.046a.81.81 0 0 1-.12-.174.579.579 0 0 1-.065-.233.696.696 0 0 0-.013-.1c-.009-.024-.03-.025-.04-.002Zm1.357-.364a.158.158 0 0 1 .024-.059c.022-.029.04-.035.03-.01a.121.121 0 0 0 .015.117c.03.046.036.108.015.152-.022.047-.07.05-.1.002-.023-.037-.025-.08-.005-.132a.455.455 0 0 0 .02-.07Zm.13.222a.106.106 0 0 0-.037.03c-.045.065.06.135.135.09.08-.05.083-.05.122-.037.033.01.035.01.028-.003-.014-.027-.034-.039-.115-.067-.091-.031-.095-.031-.132-.013Zm-.42.046c.03.016.07.01.107-.019a.111.111 0 0 1 .072-.028c.091-.002.136.078.068.124-.033.023-.078.023-.127.002a.785.785 0 0 0-.074-.025.106.106 0 0 1-.052-.033c-.02-.026-.017-.034.006-.021Zm.322.068a.2.2 0 0 0-.007.06.676.676 0 0 1-.162.44.36.36 0 0 0-.043.056.36.36 0 0 0 .14-.006c.014-.008.016-.005.022.026a.16.16 0 0 0 .057.101c.018.012.024.013.043.002.033-.017.053-.054.057-.1.003-.034.006-.04.017-.035a.397.397 0 0 0 .082.009l.07.002-.038-.045a.81.81 0 0 1-.12-.175.579.579 0 0 1-.064-.233.693.693 0 0 0-.013-.1c-.009-.023-.03-.025-.04-.002Zm1.337-2.899a.157.157 0 0 1 .025-.058c.021-.029.04-.036.03-.011a.121.121 0 0 0 .014.118c.03.046.037.107.016.151-.022.048-.07.05-.1.003-.024-.037-.025-.08-.005-.133a.447.447 0 0 0 .02-.07Zm.131.223a.105.105 0 0 0-.038.029c-.045.066.061.135.136.09.08-.05.083-.05.122-.037.033.012.034.011.028-.003-.014-.026-.035-.038-.115-.066-.092-.032-.095-.032-.133-.013Zm-.42.045c.03.017.07.01.107-.018a.11.11 0 0 1 .072-.028c.091-.002.135.078.068.123-.034.023-.078.024-.128.003a.805.805 0 0 0-.073-.026.106.106 0 0 1-.053-.032c-.019-.026-.017-.034.007-.022Zm.307.075a.204.204 0 0 0-.007.061.686.686 0 0 1-.163.444.362.362 0 0 0-.042.057c0 .009.123.004.14-.006.014-.009.015-.006.021.025.007.043.03.083.058.103.017.012.024.013.042.002.033-.018.054-.055.057-.101.004-.035.007-.041.018-.035a.396.396 0 0 0 .082.008l.069.002-.037-.045a.82.82 0 0 1-.12-.177.589.589 0 0 1-.065-.235.712.712 0 0 0-.013-.1c-.009-.025-.03-.026-.04-.003Zm-2.825-.288a.157.157 0 0 1 .024-.058c.022-.029.04-.036.03-.011a.121.121 0 0 0 .015.118c.03.046.036.107.016.152-.023.047-.071.049-.1.002-.024-.037-.026-.08-.006-.133a.447.447 0 0 0 .02-.07Zm.131.223a.106.106 0 0 0-.038.03c-.045.065.06.135.135.09.08-.05.083-.051.122-.037.033.01.035.01.028-.004-.013-.026-.034-.038-.114-.066-.092-.032-.096-.032-.133-.013Zm-.421.046c.03.016.07.009.107-.02a.11.11 0 0 1 .072-.027c.091-.002.136.078.068.123-.033.023-.078.024-.127.003a.807.807 0 0 0-.074-.026.106.106 0 0 1-.052-.032c-.02-.026-.017-.034.006-.021Zm.307.074a.204.204 0 0 0-.007.061.686.686 0 0 1-.162.444.361.361 0 0 0-.043.057c0 .009.123.004.14-.006.014-.009.016-.006.021.025.008.043.03.084.058.103.018.012.024.013.043.002.033-.018.053-.055.057-.101.003-.035.006-.041.017-.035a.395.395 0 0 0 .082.008l.07.002-.038-.045a.82.82 0 0 1-.12-.177.59.59 0 0 1-.064-.235.71.71 0 0 0-.014-.1c-.008-.024-.029-.026-.04-.003Zm1.372-.37a.157.157 0 0 1 .024-.059c.022-.029.04-.035.03-.011a.121.121 0 0 0 .015.118c.03.046.036.108.016.152-.022.047-.07.049-.1.002-.024-.037-.026-.08-.005-.133a.45.45 0 0 0 .02-.07Zm.131.222a.106.106 0 0 0-.038.03c-.045.065.06.135.136.09.08-.05.083-.05.121-.037.034.01.035.01.028-.003-.013-.027-.034-.04-.114-.067-.092-.032-.095-.031-.133-.013Zm-.42.046c.03.016.07.01.107-.02a.11.11 0 0 1 .071-.027c.092-.002.136.078.068.124-.033.022-.077.023-.127.002a.805.805 0 0 0-.074-.026.106.106 0 0 1-.052-.032c-.02-.026-.017-.034.006-.021Zm.306.075a.204.204 0 0 0-.007.06.686.686 0 0 1-.162.444.361.361 0 0 0-.043.057c0 .009.124.004.14-.006.015-.008.016-.006.022.025.007.043.03.084.057.103.018.012.024.013.043.002.033-.018.053-.055.057-.101.003-.035.006-.041.017-.035a.396.396 0 0 0 .083.008l.069.003-.037-.046a.82.82 0 0 1-.121-.177.59.59 0 0 1-.064-.235.709.709 0 0 0-.013-.1c-.009-.024-.03-.026-.04-.002ZM.811 9.374c0-.024.003-.05.007-.06.011-.024.032-.022.04.002a.7.7 0 0 1 .014.1.59.59 0 0 0 .064.235.82.82 0 0 0 .12.177l.037.045-.069-.002a.395.395 0 0 1-.082-.008c-.011-.006-.014 0-.018.035-.003.046-.024.083-.056.1-.019.012-.026.011-.043-.001a.163.163 0 0 1-.058-.103L.765 9.62a.739.739 0 0 0 .046-.246Z" clip-rule="evenodd"/><path fill="#C00" d="M0 18h6v-6H0v6Z"/><path fill="#0092C8" d="M6 0h18v18H6V0Z"/><path fill="#FFCF00" stroke="#650000" stroke-width=".1" d="M1.855 13.325c-.059-.073 0-.206.053-.15-.028-.054.018-.097.038-.07-.01-.043.034-.073.056-.032-.008-.05.057-.078.074-.024 0-.049.064-.087.078-.016.012-.055.083-.062.089.016.02-.045.073-.042.076.024.023-.031.082.015.072.07.037-.009.081.069.037.126.079-.044.098.1.05.165.024.016.027.002.048.014a.427.427 0 0 0 .098.04c.033 0 .154-.004.178-.008.025-.004.058-.017.099-.032.042-.014.103-.015.158-.029.044-.005 1.281.021 1.317.017.035-.004.087-.04.084-.084-.002-.043-.043-.075-.084-.08a2.352 2.352 0 0 0-.29.005.263.263 0 0 0-.12.056c-.014.008-.036.042-.054.064-.017.016-.066.018-.066-.002 0-.013-.004.003-.016.008-.016.01-.086.013-.083 0 .006-.015 0-.02-.018-.004a.234.234 0 0 1-.129.004c.011-.019.011-.018-.018-.002-.018.008-.095.015-.1-.001 0-.013-.01-.007-.02-.003-.087.024-.095-.004-.081-.016.013-.012.034-.08.012-.076l-.205.04a5.13 5.13 0 0 1-.43-.005c-.046-.004-.098-.05-.1-.115-.006-.105.076-.132.125-.148.05-.016.172-.04.222-.04.049 0 .19.018.228.003a1.22 1.22 0 0 1 .187-.064c.049-.005.188.012.254.096-.035.017-.05.026-.012.012l.224-.05c.123-.006.091.013.03.03-.02.067-.2.161-.258.173a.807.807 0 0 1-.206-.002c-.028-.002-.157-.009-.204-.041a.591.591 0 0 0-.279-.089c-.058.001-.222.02-.222.08 0 .106.154.112.22.108.065-.004.23-.012.276-.032a.665.665 0 0 1 .202-.025c.054 0 .134.013.159.009.025-.004.082-.005.11-.025a.279.279 0 0 1 .146-.041c.06 0 .507-.018.568-.014.087 0 .148.1.15.185 0 .04-.019.099-.035.108a1.6 1.6 0 0 1 .117.016c.042.008.11.057.118.101a.314.314 0 0 0-.13-.054c-.008 0-.984-.002-1.06-.001a.557.557 0 0 1 .407.292c.036.06.123.035.156.027a.261.261 0 0 0 .099-.071c.027-.028.07-.036.09-.028.042-.004.05.043.033.067-.017.024.003.015.046.015a.13.13 0 0 1 .109.053c-.025.024-.038.004-.002.008s.079.073.052.093c-.023.012-.03.007 0 .011.045.004.057.035.063.09-.038.007-.02-.006 0 .014s.047.108-.022.112c-.025-.012-.024-.015-.019.013.005.027-.008.094-.047.094-.053.011-.1-.02-.106-.056-.006-.035-.005.07-.08.087-.071.016-.11-.027-.115-.046-.005-.02-.002-.005-.03-.008-.027-.005-.062-.005-.076-.052 0-.028.005-.065.054-.07.022-.004.028-.034.011-.038-.016-.004-.002-.064.033-.048.036.016.118.02.137.04.02.02.025-.016-.005-.048-.03-.032-.214-.096-.263-.072a.66.66 0 0 1-.34.044c-.032-.008-.127.014-.172-.132a.318.318 0 0 0-.237-.23c-.31-.03-.293-.007-.092.003-.002.028-.009.085.024.093.054-.008.168-.033.196-.01.027.024.054.045.049.1-.005.056.003.04-.022.064-.025.024-.014.072.025.088.038.016.054.036.08.06.024.024-.012.072-.034.056-.022-.016-.022-.016-.024.016-.003.032-.03.092-.077.097-.01-.004-.007-.02-.005-.033.002-.028-.01.034-.024.052-.01.011-.087.034-.108.022.01-.025.004-.014-.016-.002-.018.007-.12.022-.074-.029.012-.018-.016.024-.031.03-.013.01-.073.014-.073-.01-.02.018-.064.018-.071.005-.014-.016-.015.011-.04.015-.024.004-.078-.004-.08-.036-.003-.031.005-.011-.025-.008-.074.052-.11-.02-.11-.043 0-.024-.002-.052.006-.068.008-.016-.051-.021-.033-.052.02-.039.042-.067.082-.06.02.004.016-.008.008-.024s.022-.024.058-.008c.035.016.06.056.07.092.012.036.097.008.132.012.036.004.038-.06.017-.08-.022-.02-.083-.092-.107-.116-.025-.024-.008-.107.014-.127.127-.091.057-.12.01-.112a.493.493 0 0 0-.204.102c-.038.044-.336.26-.363.283-.028.024-.067.03-.084.002-.016-.028-.027-.008-.024.032.021.15-.107.199-.13.197a.109.109 0 0 1-.054-.025c-.016.084-.086.092-.15.084-.001-.01.012-.028.005-.021-.022.029-.086.026-.142.021-.004-.018.02-.039.008-.027-.018.037-.05.03-.103.027 0-.008.025-.034.013-.019-.023.027-.07.018-.107.019-.004-.006.019-.047-.002-.02-.02.023-.064.027-.106.021-.007-.02.009-.02.013-.032.011-.02-.005 0-.019 0-.013 0-.033.004-.04-.016-.009-.02-.004.02-.012.03-.008.01-.017.032-.044.04-.028.008-.099.016-.11-.02-.015-.016-.022-.052-.01-.072.01-.02-.053.039-.08.044-.08.017-.09-.115-.055-.127.036-.012.03-.032.011-.048-.02-.016-.03-.08-.005-.1.024-.02.081-.031.117-.008.021.015.066.068.058.028-.006-.025.01-.056.027-.07.015-.014.061-.018.074.014.029.074.05.105.085.104.075-.022.178-.047.208-.047.039-.01.243-.03.243-.05-.123.044-.172-.014-.186-.01-.013.004-.047-.013-.047-.024 0-.024.03-.02-.013-.013-.026-.002-.05-.003-.072-.032-.003-.015.03-.066.041-.108-.028-.008-.09.045-.111.093-.014-.018-.02-.002-.072.011a.11.11 0 0 1-.085-.005c-.022-.012-.108-.08-.066-.089a.204.204 0 0 0-.032-.011c-.03-.014-.058-.04-.05-.047-.007-.012.01-.012-.003-.015-.016-.004-.057-.035-.046-.047-.01-.007-.035-.018-.046-.024-.019-.012-.038-.053-.04-.073-.019.002-.056-.034-.04-.044-.028-.023-.052-.06-.033-.072-.017-.013-.029-.039-.017-.03-.018-.022-.012-.046.002-.046.013 0 .008-.064-.017-.064-.024 0-.064.02-.093 0-.024-.019-.044-.103-.022-.14.022-.035.066-.075.088-.071.022.004.01.012.005-.024-.005-.036.031-.063.055-.072.029-.014.085-.004.101.012.017.016.022.016.022-.012 0-.02.021-.03.04-.035.031-.008.056.002.067.015.017.026.027.056.005.08s-.003.004.033-.004c.023-.008.064.002.071.028.01.028.017.076-.008.1-.025.024-.06.084-.041.104.02.02.08.107.093.12.014.011.03.04.052.035l.066-.012c.076-.016.11-.024.012-.021.022-.033.068-.042.088-.048-.017-.028.047-.087.047-.095Zm0 2.175c-.059-.073 0-.206.053-.15-.028-.053.018-.096.038-.07-.01-.043.034-.073.056-.032-.008-.05.057-.078.074-.024 0-.049.064-.087.078-.016.012-.055.083-.062.089.016.02-.045.073-.042.076.024.023-.031.082.015.072.07.037-.009.081.069.037.126.079-.044.098.1.05.165.024.016.027.002.048.014a.427.427 0 0 0 .098.04c.033 0 .154-.004.178-.008.025-.004.058-.017.099-.032.042-.014.103-.015.158-.029.044-.005 1.281.021 1.317.017.035-.004.087-.04.084-.084-.002-.044-.043-.075-.084-.08a2.372 2.372 0 0 0-.29.005.263.263 0 0 0-.12.056c-.014.008-.036.042-.054.064-.017.016-.066.018-.066-.002 0-.013-.004.003-.016.008-.016.01-.086.013-.083 0 .006-.015 0-.02-.018-.004a.234.234 0 0 1-.129.004c.011-.019.011-.018-.018-.002-.018.008-.095.015-.1-.001 0-.013-.01-.007-.02-.003-.087.024-.095-.004-.081-.016.013-.012.034-.08.012-.076l-.205.04a5.13 5.13 0 0 1-.43-.005c-.046-.004-.098-.05-.1-.115-.006-.106.076-.132.125-.148.05-.016.172-.04.222-.04.049 0 .19.018.228.002.038-.015.154-.06.187-.063.049-.005.188.012.254.096-.035.017-.05.026-.012.011.036-.007.189-.041.224-.05.123-.005.091.014.03.03-.02.068-.2.162-.258.174a.807.807 0 0 1-.206-.002c-.028-.002-.157-.009-.204-.041a.59.59 0 0 0-.279-.089c-.058.001-.222.02-.222.08 0 .106.154.112.22.108.065-.004.23-.012.276-.032a.665.665 0 0 1 .202-.025c.054 0 .134.013.159.009.025-.004.082-.005.11-.025a.279.279 0 0 1 .146-.041c.06 0 .507-.018.568-.014.087 0 .148.1.15.185 0 .04-.019.099-.035.108a1.6 1.6 0 0 1 .117.016c.042.008.11.057.118.101a.314.314 0 0 0-.13-.054c-.008 0-.984-.002-1.06-.001a.557.557 0 0 1 .407.291c.036.06.123.036.156.028a.261.261 0 0 0 .099-.071c.027-.028.07-.035.09-.028.042-.004.05.044.033.068-.017.023.003.014.046.014a.13.13 0 0 1 .109.053c-.025.024-.038.004-.002.008s.079.073.052.093c-.023.012-.03.007 0 .011.045.004.057.035.063.09-.038.007-.02-.006 0 .014s.047.108-.022.112c-.025-.012-.024-.015-.019.012.005.028-.008.095-.047.095-.053.011-.1-.02-.106-.055-.006-.036-.005.069-.08.085-.071.017-.11-.026-.115-.046-.005-.02-.002-.004-.03-.008-.027-.003-.062-.004-.076-.051 0-.028.005-.065.054-.07.022-.004.028-.034.011-.038-.016-.004-.002-.064.033-.048.036.016.118.02.137.04.02.02.025-.016-.005-.048-.03-.032-.214-.096-.263-.072a.66.66 0 0 1-.34.044c-.032-.008-.127.014-.172-.132a.318.318 0 0 0-.237-.23c-.31-.03-.293-.007-.092.003-.002.028-.009.085.024.093.054-.008.168-.033.196-.01.027.024.054.044.049.1-.005.056.003.04-.022.064-.025.024-.014.072.025.088.038.016.054.036.08.06.024.024-.012.072-.034.056-.022-.016-.022-.016-.024.016-.003.032-.03.092-.077.096-.01-.003-.007-.02-.005-.032.002-.028-.01.034-.024.052-.01.011-.087.034-.108.022.01-.025.004-.014-.016-.002-.018.007-.12.022-.074-.029.012-.018-.016.024-.031.03-.013.01-.073.014-.073-.01-.02.018-.064.018-.071.005-.014-.016-.015.011-.04.015-.024.004-.078-.004-.08-.035-.003-.032.005-.012-.025-.008-.074.05-.11-.02-.11-.044 0-.024-.002-.052.006-.068.008-.016-.051-.021-.033-.053.02-.038.042-.066.082-.059.02.004.016-.008.008-.024s.022-.024.058-.008c.035.016.06.056.07.092.012.036.097.008.132.012.036.004.038-.06.017-.08-.022-.02-.083-.092-.107-.116-.025-.024-.008-.107.014-.128.127-.09.057-.12.01-.111a.493.493 0 0 0-.204.102c-.038.044-.336.26-.363.283-.028.024-.067.03-.084.002-.016-.028-.027-.008-.024.032.021.15-.107.199-.13.197a.109.109 0 0 1-.054-.025c-.016.084-.086.092-.15.084-.001-.01.012-.029.005-.021-.022.029-.086.026-.142.021-.004-.018.02-.039.008-.027-.018.037-.05.03-.103.027 0-.008.025-.034.013-.019-.023.027-.07.018-.107.019-.004-.006.019-.047-.002-.02-.02.023-.064.027-.106.021-.007-.02.009-.02.013-.032.011-.02-.005 0-.019 0-.013 0-.033.004-.04-.016-.009-.02-.004.02-.012.03-.008.01-.017.032-.044.04-.028.008-.099.016-.11-.02-.015-.016-.022-.052-.01-.072.01-.02-.053.039-.08.044-.08.017-.09-.115-.055-.127.036-.012.03-.032.011-.048-.02-.016-.03-.08-.005-.1.024-.02.081-.031.117-.008.021.015.066.068.058.028-.006-.025.01-.056.027-.07.015-.014.061-.018.074.014.029.074.05.105.085.104.075-.022.178-.047.208-.047.039-.01.243-.03.243-.05-.123.044-.172-.014-.186-.01-.013.004-.047-.013-.047-.024 0-.024.03-.02-.013-.013-.026-.002-.05-.003-.072-.032-.003-.015.03-.066.041-.108-.028-.008-.09.045-.111.093-.014-.018-.02-.002-.072.011a.11.11 0 0 1-.085-.005c-.022-.012-.108-.08-.066-.089-.011-.006-.024-.009-.032-.011-.03-.014-.058-.04-.05-.047-.007-.012.01-.012-.003-.015-.016-.004-.057-.035-.046-.047-.01-.007-.035-.018-.046-.024-.019-.012-.038-.053-.04-.073-.019.002-.056-.034-.04-.044-.028-.022-.052-.06-.033-.071-.017-.014-.029-.04-.017-.03-.018-.023-.012-.047.002-.047.013 0 .008-.064-.017-.064-.024 0-.064.02-.093 0-.024-.019-.044-.103-.022-.14.022-.035.066-.075.088-.071.022.004.01.012.005-.024-.005-.036.031-.063.055-.072.029-.014.085-.004.101.012.017.016.022.016.022-.012 0-.02.021-.03.04-.035.031-.008.056.002.067.015.017.026.027.056.005.08s-.003.004.033-.004c.023-.008.064.002.071.028.01.028.017.076-.008.1-.025.024-.06.083-.041.104.02.02.08.107.093.12.014.011.03.04.052.035l.066-.012c.076-.016.11-.024.012-.021.022-.033.068-.042.088-.048-.017-.028.047-.086.047-.095Z"/><path fill="#FFCF00" fill-rule="evenodd" d="M14.618 1.687c.29-.073.759-.096 1.01-.053.05.01.141.019.233.028.148.014.297.028.274.048-.053.05-.23.526-.23.618 0 .033 1.18.853 1.23.853.065 0 .164.119.138.165-.014.02-.086.096-.162.165-.073.068-.19.422-.303.816.041-.058.118-.117.257-.211.171-.116 1.692-1.27 2.133-1.62.05-.036-.075-.059-.336-.056a2.87 2.87 0 0 0-.656.09c-.351.088-.613-.186-.726-.303a.436.436 0 0 0-.049-.048c-.099-.066-.24-.27-.24-.347 0-.016.095-.003.22.03.29.083.548.08.877-.006a2.57 2.57 0 0 1 .947-.053l.043.007c.06.009.1.015.122.016.021.142.164.606.19.628.054.046 1.218.505 1.306.515.132.017.185.07.185.182 0 .109-.135.211-.326.248-.224.043-.785.69-1.177 1.358-.264.45-.41.783-.41.945 0 .165.1.796.202 1.275.063.284.079.334.112.288.036-.047.135-.053.795-.053h.758l.257-.446c.142-.248.254-.456.247-.46-.006-.006-.392-.04-.854-.069-.461-.03-.844-.06-.85-.063-.004-.006.158-.307.36-.67l.365-.661.745.125.233.04c.313.052.565.094.605.102.072.013.099 0 .158-.102a.628.628 0 0 0 .042-.092v.016c-.01.214-.03.755-.263 1.203l-.57 1.087v.75h-.132a.698.698 0 0 0-.132.006l.026.155.024.133c.026.152.04.255.03.268-.01.017-.096.03-.189.03l-.171.003-.096.25c-.168.374-.6 1.071-.966 1.557l-.08.102.186.086c.26.12.53.404.708.747.139.271.146.29.146.578 0 .281-.076.641-.139.645l-.796.123h-.002l-.363.055c-.626.096-1.154.169-1.177.162-.069-.026-.234-.304-.29-.486l-.021-.067c-.022-.068-.04-.127-.048-.144-.007-.027-.135.02-.4.155a5.378 5.378 0 0 1-1.331.48 5.828 5.828 0 0 1-3.235-.199 9.466 9.466 0 0 1-1.312-.65c-.61-.378-.861-.599-1.88-1.666-.33-.344-.415-.413-.64-.526-.227-.112-.293-.129-.49-.129-.185 0-.235-.01-.275-.062-.082-.116-.049-.251.11-.423 0 0 .048-.111.032-.122L8.22 8.78c-.296-.15.78-1.942 1.225-2.41.217-.231.227-.244.227-.403 0-.317.201-.942.416-1.305.099-.165.109-.195.076-.271-.063-.139 0-.218.402-.506.798-.571 1.263-.922 1.276-.961.023-.073-.323-.046-.59.046-.534.188-1.016.231-1.247.112-.105-.052-.267-.237-.267-.307 0-.01.11-.01.244 0 .1.007.081-.157.065-.3-.006-.051-.012-.1-.012-.136 0-.046.003-.083.01-.083.003 0 .047.016.103.037l.035.013c.235.083.59.063 1.046-.063.224-.063.508-.122.626-.135 0 0 .673-.126.574-.02-.053.056-.109.198-.162.4a7.455 7.455 0 0 0-.079.317l.102.02c.133.028.382.08.663.135.501.103.795.149.867.136.126-.027.205.026.205.135 0 .093-.066.149-.33.271a2.806 2.806 0 0 0-.412.251c-.27.205-.758.714-.966 1.011-.172.245-.172.245-.172.5 0 .277.066.7.152.99l.053.182.092-.248a3.97 3.97 0 0 1 .508-.968c.148-.205.175-.26.132-.277-.07-.027 0-.294.06-.33.059-.037.454-.387.876-.784l.765-.72v-.192c0-.185.004-.191.103-.211.056-.01.158-.02.224-.02.095-.003.155-.036.316-.182.106-.099.185-.191.168-.205-.013-.013-.145-.033-.293-.036-.214-.01-.36.01-.702.09-.485.115-.723.125-.947.049-.155-.053.076-.146.221-.185 0 0-.343-.592-.29-.575.455.139.643.145 1.035.046Zm7.736 3.156c-.007-.017-.009.012-.011.073.011-.032.016-.06.011-.073Zm-2.945-3.054c-.011-.012-.014.003-.009.037.03 0 .032-.01.01-.037Zm-2.647 2.7c-.145.522-.27 1.054-.27 1.054l.115-.251c.062-.139.155-.704.155-.79V4.49Zm.294-1.19-.003-.001.003.002Zm-.003-.001c-.068-.044-1.205-.844-1.205-.844l-.04.132c-.037.123.93.567 1.187.685l.058.027Zm-4.281-.263c.692.142.705.146.577.182a199.585 199.585 0 0 0-.735.208l-.64.179.023-.09c.072-.304.158-.598.175-.598.013 0 .28.053.6.12Zm-1.154.668.066-.238c.04-.13.075-.255.082-.278.01-.02.01-.04.007-.04-.01 0-1.079.784-1.105.807-.006.01.086-.013.211-.046.126-.037.343-.1.482-.136l.257-.07Zm4.817 1.989-.082.27c-.1.338-.168.672-.221 1.081-.033.265-.06.34-.172.526a2.374 2.374 0 0 0-.161.31c-.088.203-.097.059-.112-.403-.023-.496.02-.998.122-1.47.069-.314.494-.585.54-.49l.086.176Zm-4.158 1.07c.027-.112.017-.181-.05-.376-.098-.294-.18-.674-.184-.866.007-.33-.027-.35-.152-.036-.21.472-.257.677-.257 1.166 0 .268.017.502.043.585.036.125.053.142.139.142h.098v.413c0 .344-.006.413-.049.413-.07 0-.063.036.036.271.159.38.99 1.266.907 1.104-.27-.559-.66-1.692-.597-2.323.02-.195.05-.42.066-.493Zm7.07.602c.043.168.043.198-.017.37a3.695 3.695 0 0 0-.02.062c-.04.118-.1.298-.17.377-.156.172-.16.175-.199.103-.158-.3-.217-1.064-.118-1.583.042-.228.21-.836.23-.836.007 0 .027.122.05.271.043.304.171.958.244 1.236ZM9.656 6.313l.214.73s-.293-.611-.3-.674l.086-.056Zm1.929 1.034c0 .017-.135.03-.3.03h-.3l-.821.012c.005-.02.235-.115.502-.225l.162-.067c.308.016.614.036.645.075a.84.84 0 0 1 .112.175Zm-.757-.25-.124-.006c-.269-.014-.511-.026-.54-.048l.963-.195.366-.074c-.013.047-.34.188-.665.323Zm-.612 1.106-.214-.337c0-.274-.013-.373-.072-.512-.04-.096-.092-.21-.105-.21-.006 0-.047.155-.107.385l-.148.558-.247.906.099.036c.056.02.25.122.432.231.184.11.36.199.389.199.105 0 .118-.136.053-.417a2.931 2.931 0 0 1-.073-.548l-.007-.29Zm5.972.274c.076.384.214.744.429 1.12.102.179.18.33.174.338-.033.03-.369.082-.399.066-.046-.03-.23-.43-.356-.774-.142-.386-.27-.921-.247-1.02a2.81 2.81 0 0 1 .158-.367l.135-.281.027.324c.013.178.046.446.079.594Zm2.628.047c.007-.057-.03-.09-.158-.156-.172-.086-.63.196-.63.196.105.218.392.597.468.597.02 0 .149-.099.29-.221.274-.238.304-.317.129-.334-.09-.01-.106-.023-.1-.082Zm-.412.72-.086.06c-.115.079-.874.452-.89.439a9.422 9.422 0 0 1 .178-.661l.16-.231c.034.063.128.086.225.11.085.02.172.042.221.091l.192.192Zm-1.51.591a7.81 7.81 0 0 0 .197-.568c.093-.297-.21-.07-.25.198-.023.175.01.413.052.37Zm-3.595-.591a4.177 4.177 0 0 1-.165.456c-.013.016-.082 0-.154-.036-.11-.057-.136-.09-.172-.235-.04-.162-.04-.175.043-.317.105-.179.26-.3.435-.344.178-.043.188-.043.172.003a7.935 7.935 0 0 0-.098.29l-.06.183Zm1.079.476a2.843 2.843 0 0 1-.234-.612c-.047-.224-.07-.274-.13-.29-.13-.037-.144-.02-.23.267l-.106.343-.062.2-.08.254.337.07c.182.035.409.078.505.088l.171.02-.171-.34Zm.366-.625.343.165-.152.172a1.23 1.23 0 0 0-.208.324.902.902 0 0 1-.076.175c-.059.066-.428-.793-.428-.994 0-.07.122-.03.52.158Zm1.061.991c.208-.016.396-.03.413-.03.066-.006-.42-.373-.782-.594a2.06 2.06 0 0 0-.237-.135 1.3 1.3 0 0 0-.145.145 1.07 1.07 0 0 0-.28.502l-.02.103.336.02c.184.01.508.003.715-.01Z" clip-rule="evenodd"/><path fill="#000" d="m15.627 1.634.05-.245-.007-.001-.043.246Zm-1.009.053-.06-.242.06.242Zm1.243-.025.023-.25-.023.25Zm.274.048-.168-.185-.003.003.171.182Zm1.138 1.636.208.138.005-.007.004-.007-.217-.124Zm-.162.165-.169-.184.17.184Zm-.303.816-.24-.07.443.216-.203-.146Zm.257-.211-.14-.208.14.208Zm2.133-1.62-.148-.201-.007.006.155.196Zm-.336-.056-.003-.25.003.25Zm-.656.09-.06-.243.06.243Zm-.726-.303.18-.173-.18.173Zm-.049-.048.139-.208-.139.208Zm-.02-.317.069-.24-.005-.002-.064.242Zm.877-.006-.062-.243.062.243Zm.947-.053.039-.247-.01-.002-.03.249Zm.043.007.04-.247-.04.247Zm.313.644.165-.189-.009-.006-.156.195Zm1.305.515.032-.248h-.004l-.027.248Zm-.141.43-.047-.246.047.246Zm-1.177 1.358-.216-.127.216.127Zm-.208 2.22-.245.052v.002l.245-.054Zm.112.288-.197-.155-.007.01.204.145Zm1.553-.053v.25h.145l.072-.125-.217-.125Zm.257-.446.217.125V6.89l-.217-.124Zm.247-.46-.176.177.028.029.036.018.113-.224Zm-.854-.069-.015.25.015-.25Zm-.85-.063-.224.112.037.074.075.038.112-.224Zm.36-.67-.22-.122.22.121Zm.365-.661.042-.247-.175-.03-.085.155.218.122Zm.745.125-.041.247.041-.247Zm.233.04-.042.246.042-.247Zm0 0-.041.246.04-.247Zm0 0 .041-.247-.041.246Zm0 0 .042-.247-.042.246Zm0 0-.042.246.042-.247Zm.605.102-.05.245.005.001.045-.246Zm.158-.102.217.125.002-.005-.219-.12Zm.041-.076-.25-.01.25.01Zm-.262 1.203.222.116V6.25l-.222-.115Zm-.57 1.087-.222-.116-.028.054v.062h.25Zm0 .75v.25h.25v-.25h-.25Zm-.238.161.247-.043-.247.043Zm0 0-.246.043v.001l.246-.044Zm0 0 .247-.042-.246.043Zm.024.133.246-.043-.247.043Zm.03.268-.2-.15-.009.01-.006.012.214.128Zm-.189.03v-.25h-.005l.005.25Zm-.171.003-.005-.25-.169.003-.06.158.234.09Zm-.096.25.228.103.003-.006.003-.007-.234-.09Zm-.966 1.557.198.153.002-.002-.2-.151Zm-.08.102-.197-.152-.191.247.284.132.105-.227Zm.186.086-.106.227h.002l.104-.227Zm.708.747.223-.114-.223.114Zm.007 1.223-.013-.25-.024.001-.024.006.061.243Zm-.796.123-.038-.248.038.248Zm-.002 0 .038.247-.038-.247Zm-.363.055-.037-.247.037.247Zm-1.177.162-.089.234.01.003.01.003.07-.24Zm-.29-.486.239-.073v-.003l-.239.076Zm-.021-.067.238-.076-.004-.011-.234.087Zm0 0-.239.076.005.012.234-.088Zm-.048-.144-.243.06.005.02.008.018.23-.098Zm-.4.155.113.224.002-.002-.114-.222Zm-1.331.48.055.243-.055-.244Zm-3.235-.199-.086.235h.001l.085-.235Zm-1.312-.65.131-.214-.131.213Zm-1.88-1.666.181-.173-.18.173Zm-.64-.526.112-.223-.112.223Zm-.765-.191-.203.145.003.004.2-.15Zm.11-.423.183.17.028-.031.017-.038-.229-.101Zm.032-.122.136-.21-.136.21ZM8.22 8.78l.137-.21-.011-.006-.012-.006-.114.222Zm1.225-2.41.181.172-.181-.172Zm.643-1.708-.215-.129v.002l.215.127Zm.076-.271.229-.1-.002-.003-.227.103Zm.402-.506.145.204-.145-.204Zm1.276-.961.237.079L12.08 3l-.238-.076Zm-.59.046-.082-.236h-.001l.083.236Zm-1.247.112.115-.222-.003-.001-.112.223Zm-.023-.307.019-.25-.019.25Zm.065-.3-.249.028.248-.029Zm.101-.182-.086.235.086-.235Zm.035.013-.085.235h.002l.083-.235Zm1.046-.063.066.241h.001l-.067-.24Zm.626-.135.028.248h.009l.009-.003-.046-.245Zm.574-.02.182.171-.182-.171Zm-.162.4.242.065V2.55l-.242-.063Zm-.079.317h-.25v.25h.25v-.25Zm.102.02.05-.244-.05.245Zm0 0-.051.245.05-.244Zm0 0 .05-.244-.05.245Zm0 0 .052-.244h-.001l-.051.245Zm0 0-.052.245h.002l.05-.244Zm0 0-.05.245.05-.244Zm0 0 .05-.244-.05.245Zm.663.135.05-.245h-.001l-.049.245Zm.867.136.045.246.007-.002-.052-.244Zm-.125.406-.105-.227-.002.001.107.226Zm-.412.251.15.2h.001l-.151-.2Zm-.966 1.011.204.144-.204-.144Zm-.02 1.49.24-.07-.24.07Zm.053.182-.24.07.21.726.264-.708-.234-.088Zm.092-.248.234.088.001-.002-.235-.086Zm.508-.968-.203-.146.203.146Zm.132-.277.09-.234h-.001l-.09.234Zm.06-.33-.131-.214.13.213Zm.876-.784.171.182-.17-.182Zm.765-.72.172.182.078-.074v-.108h-.25Zm.103-.403-.044-.247-.006.002.05.245Zm.224-.02v.25h.008l-.008-.25Zm.316-.182.168.186.003-.004-.17-.182Zm.168-.205-.177.177.01.01.011.008.156-.195Zm-.293-.036-.012.25h.006l.006-.25Zm-.702.09-.057-.244h-.002l.059.243Zm-.947.049-.08.236.08-.236Zm.221-.185.066.24.313-.085-.163-.28-.216.125Zm-.29-.575-.075.238h.002l.073-.238Zm8.771 3.202.234-.088-.003-.007-.231.095ZM19.409 1.79l.192-.16-.005-.006-.005-.006-.182.172Zm-2.918 3.754-.243-.057.47.162-.227-.105Zm.27-1.053.25.002-.49-.07.24.068Zm-.154.802.227.104v-.001l-.227-.103Zm.155-.79-.25-.002v.002h.25Zm.294-1.202.177-.177-.026-.026-.033-.018-.117.22Zm-1.208-.846.144-.205-.284-.2-.1.333.24.072Zm-.04.132.24.072-.24-.072Zm1.187.685-.104.227.104-.227Zm-3.646-.054-.068-.24-.007.001.075.239Zm-.577-.182-.05.245.05-.245Zm.245.276-.067-.24.068.24Zm0 0-.067-.24h-.001l.068.24Zm0 0 .068.24-.068-.24Zm-.403.114.067.24-.067-.24Zm-.64.179-.242-.063-.109.42.418-.117-.067-.24Zm.023-.09.242.063.001-.005-.243-.058Zm-.313-.05-.24-.073-.001.007.24.067Zm-.066.239.065.241.138-.037.038-.138-.241-.066Zm.148-.516-.224-.111-.01.02-.006.022.24.07Zm-1.098.767-.165-.188-.024.022-.019.027.208.139Zm.211-.046.064.241.006-.001-.07-.24Zm.482-.136.063.242h.002l-.065-.242Zm4.992 2.19-.24-.072v.002l.24.07Zm.082-.27.24.073.028-.095-.043-.088-.225.11Zm-.303 1.351-.248-.032v.001l.248.031Zm-.172.526-.214-.13-.002.004.216.126Zm-.161.31.23.1.005-.013.004-.012-.24-.075Zm-.112-.403.25-.008v-.003l-.25.011Zm.122-1.47-.244-.054.244.054Zm.54-.49-.225.11.226-.11Zm-4.121.87-.237.08.237-.08Zm.05.376-.244-.057v.002l.243.055Zm-.235-1.242-.25-.005v.01l.25-.005Zm-.152-.036.229.102.004-.01-.233-.092Zm-.214 1.75.24-.069-.002-.006-.238.076Zm.238.143h.25v-.25h-.25v.25ZM11.9 8.474l.231-.096v-.001l-.23.097Zm.907 1.104-.225.109.002.004.223-.113Zm-.597-2.323-.248-.025.248.025Zm7.12.479.235.083v-.002l-.236-.081Zm.016-.37.242-.062v-.001l-.242.063Zm-.038.432.236.082.002-.003-.238-.079Zm0 0-.236-.082-.001.003.237.08Zm-.17.377.186.168V8.34l-.186-.167Zm-.198.103-.221.116.002.003.22-.12Zm-.118-1.583.245.047-.245-.047Zm.28-.565.247-.035V6.09l-.247.038Zm-9.233.915-.225.108.465-.178-.24.07Zm-.214-.73.24-.07-.095-.324-.282.185.137.209Zm-.086.056-.137-.209-.127.084.015.151.25-.026Zm1.415 1.008v-.25h-.004l.004.25Zm-.821.012-.242-.064-.085.32.33-.006-.003-.25Zm.502-.225.095.231-.095-.23Zm.807.008.199-.15-.003-.005-.196.155Zm-.769-.081.013-.25-.013.25Zm-.54-.048-.05-.245-.546.11.446.335.15-.2Zm.963-.195.05.245-.05-.245Zm.366-.074.241.066.108-.392-.399.08.05.246Zm-1.49 1.092h-.25v.073L9.79 8l.211-.134Zm.213.337.25-.006-.001-.07-.038-.058-.21.134Zm-.286-.85-.232.096.002.003.23-.098Zm-.212.176-.242-.063v.003l.242.06Zm0 0 .242.064V7.59l-.242-.06Zm-.148.558.241.066-.24-.066Zm-.247.906-.241-.066-.06.221.215.08.086-.235Zm.099.036-.087.235h.003l.084-.235Zm.432.231-.13.215h.003l.127-.215Zm.442-.218.243-.057-.001-.004-.242.061Zm-.073-.548.25-.005-.25.005Zm6.394 1.103-.218.124.218-.124Zm-.43-1.12.246-.048-.001-.006-.244.054Zm.604 1.458.168.185.01-.01-.178-.175Zm-.399.066-.135.21.007.004.007.004.121-.218Zm-.356-.774.235-.085-.235.085Zm-.247-1.02.243.056.001-.004-.244-.053Zm.158-.367.225.11v-.002l-.225-.108Zm.135-.281.25-.02-.075-.919-.4.83.225.109Zm.027.324.25-.019-.001-.002-.25.02Zm2.549.485.114-.222-.002-.001-.112.223Zm.158.156-.248-.03v.002l.248.028Zm-.788.04-.131-.213-.193.118.099.204.225-.11Zm.758.376.163.19.001-.001-.164-.19Zm.129-.334-.028.249h.004l.024-.249Zm-.597.697.142.206-.142-.206Zm.086-.06.142.206.246-.17-.211-.212-.177.177Zm-.976.5-.177.176.01.01.01.009.157-.195Zm.178-.661-.206-.143-.023.034-.012.04.24.069Zm.16-.231.222-.117-.192-.364-.235.338.206.143Zm.225.11.06-.243-.06.243Zm.221.091-.177.177.177-.177Zm-1.12.215.237.077.001-.003-.239-.074Zm-.198.568.177.177.01-.01.008-.01-.195-.157Zm-.053-.37-.248-.036v.004l.248.032Zm-3.707.235-.176-.177-.01.01-.009.01.195.157Zm.165-.456-.237-.079v.002l.237.077Zm-.32.42-.114.222.003.001.112-.223Zm-.17-.235-.244.06.243-.06Zm.042-.317-.215-.127-.001.001.216.126Zm.435-.344-.058-.243h-.001l.06.243Zm.172.003.23.099.003-.007.002-.008-.235-.084Zm-.098.29.236.082.001-.003-.237-.078Zm0 0-.236-.08-.001.002.237.079Zm.784.047-.245.05v.007l.245-.057Zm.234.612.223-.113-.223.113Zm-.363-.902.067-.241-.067.24Zm-.23.267.238.073v-.001l-.239-.072Zm-.107.343.238.075-.238-.075Zm0 0-.239-.074.239.075Zm0 0-.239-.074.239.075Zm-.062.2.239.073-.239-.074Zm-.08.254-.238-.075-.082.264.27.056.05-.245Zm.337.07-.05.244h.001l.05-.245Zm.505.088.028-.248h-.003l-.025.248Zm.171.02-.029.248.461.054-.209-.414-.223.112Zm.538-.8.187.166.219-.248-.298-.143-.108.225Zm-.343-.165.108-.225h-.002l-.106.225Zm.19.337.187.167.001-.001-.187-.166Zm-.207.324.236.085-.236-.085Zm-.076.175-.177-.177-.009.01.186.167Zm1.567.126v.25h.012l.012-.002-.024-.248Zm-.413.03.016.249h.004l-.02-.25Zm-.369-.625-.132.212.002.001.13-.213Zm-.382.01.182.17.002-.001-.184-.17Zm-.28.502.245.048v-.002l-.246-.046Zm-.02.103-.246-.048-.054.28.285.017.015-.25Zm.336.02-.015.249h.002l.013-.25Zm.58-8.71c-.29-.049-.793-.022-1.112.058l.121.485c.261-.066.694-.086.906-.05l.085-.492Zm.214.026a2.852 2.852 0 0 1-.207-.024l-.099.49c.067.014.175.023.259.031l.047-.497Zm.42.482a.256.256 0 0 0 .014-.363c-.049-.053-.109-.07-.116-.073a.622.622 0 0 0-.104-.023 3.615 3.615 0 0 0-.214-.023l-.047.497c.077.008.143.014.188.02.026.005.028.006.018.003a.233.233 0 0 1-.09-.06.245.245 0 0 1 .014-.348l.336.37Zm-.15.433c0 .018-.003.024.002.004a3.124 3.124 0 0 1 .173-.464c.01-.02.003 0-.023.024l-.342-.364c-.039.036-.064.082-.073.098a3.318 3.318 0 0 0-.223.596.493.493 0 0 0-.014.106h.5Zm.98.603a.238.238 0 0 1 .09.017l.005.002a21.733 21.733 0 0 1-1.144-.793l.01.01a.222.222 0 0 1 .021.03.234.234 0 0 1 .038.131h-.5c0 .077.036.13.04.136a.275.275 0 0 0 .056.065 5.13 5.13 0 0 0 .192.148 21.726 21.726 0 0 0 .995.682 1.19 1.19 0 0 0 .092.05.262.262 0 0 0 .105.022v-.5Zm.356.539a.302.302 0 0 0 .016-.257.49.49 0 0 0-.181-.222.35.35 0 0 0-.19-.06v.5a.15.15 0 0 1-.085-.022c-.005-.004-.005-.005-.004-.003.003.003-.003-.002-.009-.018a.168.168 0 0 1-.01-.053.212.212 0 0 1 .029-.113l.434.248Zm-.21.225c.042-.038.082-.078.115-.111a.826.826 0 0 0 .086-.1l-.416-.277.007-.01-.006.006a2.263 2.263 0 0 1-.124.123l.338.37Zm-.232.7a8.73 8.73 0 0 1 .162-.514c.025-.07.047-.124.065-.163.023-.05.027-.043.006-.024l-.34-.366a.584.584 0 0 0-.118.177c-.028.059-.056.13-.084.207a9.217 9.217 0 0 0-.172.546l.481.138Zm-.123-.486c-.131.089-.248.171-.32.272l.406.292c.01-.016.047-.051.194-.15l-.28-.414ZM19.043 2.3a102.3 102.3 0 0 1-2.118 1.607l.28.415c.18-.122 1.707-1.28 2.149-1.63l-.31-.392Zm-.178.39a1.56 1.56 0 0 1 .24.009c.007.001.006.002 0 0 0 0-.028-.009-.06-.034a.239.239 0 0 1-.082-.23c.018-.091.08-.135.087-.14l.296.402a.262.262 0 0 0 .015-.42.314.314 0 0 0-.102-.054.514.514 0 0 0-.07-.017 1.966 1.966 0 0 0-.33-.017l.006.5Zm-.6.081c.225-.055.413-.079.601-.082l-.008-.5a3.108 3.108 0 0 0-.712.097l.12.485ZM17.3 2.4c.055.058.17.18.328.271a.841.841 0 0 0 .639.101l-.122-.485a.343.343 0 0 1-.265-.048 1.033 1.033 0 0 1-.22-.185l-.36.346Zm-.008-.013a.199.199 0 0 1-.018-.013c-.001-.002-.001-.002.001 0l.01.01.015.016.36-.346-.034-.035a.364.364 0 0 0-.056-.048l-.278.416Zm-.352-.555c0 .08.031.15.049.186.022.045.05.092.08.134a.933.933 0 0 0 .223.235l.278-.416-.01-.008a.704.704 0 0 1-.12-.162l-.005-.01.003.011a.17.17 0 0 1 .002.03h-.5Zm.535-.212a1.635 1.635 0 0 0-.188-.039.511.511 0 0 0-.093-.005.288.288 0 0 0-.093.02.255.255 0 0 0-.16.236h.5a.246.246 0 0 1-.153.227.2.2 0 0 1-.068.016 1.168 1.168 0 0 1 .127.029l.128-.484Zm.75-.006c-.293.076-.505.076-.745.008l-.137.48c.34.097.642.09 1.008-.005l-.126-.483Zm1.04-.06a2.819 2.819 0 0 0-1.039.06l.124.484a2.32 2.32 0 0 1 .855-.047l.06-.497Zm.052.009-.043-.007-.079.494.044.006.078-.493Zm.088.013c.003 0 .004 0 0 0a3.879 3.879 0 0 1-.087-.013l-.08.493c.049.008.112.019.158.02l.009-.5Zm.342.683a.234.234 0 0 1 .057.066l.001.002a3.089 3.089 0 0 1-.157-.537l-.495.072a3.4 3.4 0 0 0 .101.396 4.4 4.4 0 0 0 .092.268.464.464 0 0 0 .037.067.264.264 0 0 0 .051.056l.313-.39Zm1.177.462c.02.002.029.006.014.001a21.53 21.53 0 0 1-1.21-.477c-.017-.009.004 0 .028.02l-.33.377c.03.026.067.044.073.047a5.594 5.594 0 0 0 .209.094 21.504 21.504 0 0 0 1.09.42c.012.003.04.011.07.015l.056-.497Zm.407.43a.416.416 0 0 0-.117-.305.482.482 0 0 0-.286-.125l-.063.496.026.005a.092.092 0 0 1-.028-.02.12.12 0 0 1-.03-.046c-.003-.01-.002-.015-.002-.005h.5Zm-.53.493a.816.816 0 0 0 .34-.143.446.446 0 0 0 .19-.35h-.5c0-.054.032-.067.008-.048a.326.326 0 0 1-.13.05l.093.491Zm-1.008 1.24c.189-.322.418-.638.625-.877.104-.12.198-.216.276-.282a.781.781 0 0 1 .093-.07c.026-.016.03-.014.015-.01l-.094-.492a.555.555 0 0 0-.183.076 1.27 1.27 0 0 0-.156.116 3.252 3.252 0 0 0-.329.335 6.67 6.67 0 0 0-.678.95l.431.253Zm-.374.818c0-.026.016-.108.085-.266.063-.147.16-.333.29-.553l-.432-.253c-.135.23-.242.435-.317.608-.07.162-.126.327-.126.464h.5Zm.195 1.223c-.05-.234-.1-.508-.136-.742a4.618 4.618 0 0 1-.06-.481h-.5c0 .106.03.325.066.559.038.242.09.524.141.768l.49-.104Zm-.336.195c.002-.002.019-.027.052-.05a.239.239 0 0 1 .328.062c.01.016.014.027.013.024a2.565 2.565 0 0 1-.057-.233l-.488.108c.03.133.053.24.077.303a.372.372 0 0 0 .036.071.262.262 0 0 0 .371.079.299.299 0 0 0 .076-.074l-.408-.29Zm.999-.158c-.327 0-.526.001-.648.01a.82.82 0 0 0-.17.025.332.332 0 0 0-.174.113l.394.309a.17.17 0 0 1-.081.058.44.44 0 0 1 .064-.007c.102-.006.282-.008.615-.008v-.5Zm.758 0h-.758v.5h.758v-.5Zm.04-.321-.256.446.433.25.257-.446-.433-.25Zm.352-.111a.25.25 0 0 1-.137-.234.183.183 0 0 1 .009-.054.197.197 0 0 1 .005-.016c0-.003.002-.005.002-.005l-.007.013a14.593 14.593 0 0 1-.224.408l.434.248a14.97 14.97 0 0 0 .239-.434.767.767 0 0 0 .02-.043l.012-.036a.256.256 0 0 0 0-.142.25.25 0 0 0-.128-.152l-.225.447Zm-.758-.043a34.429 34.429 0 0 1 .818.064h.001l-.016-.004a.242.242 0 0 1-.027-.01.223.223 0 0 1-.082-.054l.353-.353c-.038-.039-.08-.054-.084-.056a.26.26 0 0 0-.08-.02 34.89 34.89 0 0 0-.851-.067l-.031.5Zm-.946-.09a.25.25 0 0 0 .107.028l.055.005c.045.004.108.01.186.015.155.012.367.027.598.042l.033-.5a58.705 58.705 0 0 1-.83-.06.143.143 0 0 1 .018.004.25.25 0 0 1 .057.02l-.224.447Zm.253-1.015a43.073 43.073 0 0 0-.337.622 1.474 1.474 0 0 0-.035.074l-.01.028a.25.25 0 0 0-.008.04c0 .003-.01.07.025.14l.447-.224a.24.24 0 0 1 .025.14.235.235 0 0 1-.007.038l-.007.022-.002.003a41.332 41.332 0 0 1 .346-.64l-.438-.243Zm.366-.66-.366.66.437.243.366-.661-.438-.243Zm1.005 0-.745-.126-.083.493.745.126.083-.493Zm.232.039-.232-.04-.083.494.232.039.083-.493Zm0 0-.083.493.083-.493Zm0 0-.082.493.082-.493Zm0 0-.082.493.082-.493Zm.001 0-.084.493.084-.493Zm.612.104c-.045-.009-.304-.052-.612-.104l-.083.493c.317.053.562.094.597.101l.098-.49Zm-.107.017a.343.343 0 0 1-.021.034c-.002.002.008-.012.03-.025a.172.172 0 0 1 .078-.026h.016l-.09.491a.35.35 0 0 0 .262-.042.5.5 0 0 0 .158-.18l-.433-.252Zm.022-.048a.387.387 0 0 1-.025.054l.438.24A.881.881 0 0 0 22.58 5l-.472-.165Zm.485.108v-.016l-.499-.02v.016l.499.02Zm-.29 1.308c.26-.503.282-1.098.29-1.308l-.5-.02c-.008.218-.03.706-.234 1.098l.444.23Zm-.57 1.088.57-1.087-.443-.233-.57 1.088.442.232Zm.028.634v-.75h-.5v.75h.5Zm-.382.25h.132v-.5h-.132v.5Zm.118-.244a.25.25 0 0 1-.146.227.21.21 0 0 1-.065.019h.013l.08-.002v-.5a2.138 2.138 0 0 0-.15.006.322.322 0 0 0-.035.006.252.252 0 0 0-.197.245h.5Zm.023.112-.02-.108-.004-.03v-.004.01l.001.02h-.5a.221.221 0 0 0 .002.03l.001.01.002.014.006.035.02.11.492-.087Zm0 0-.493.086.493-.085Zm0 0-.493.087.493-.087Zm.023.133-.023-.132-.493.086.023.132.493-.086Zm-.017.46c.045-.058.05-.12.051-.128a.866.866 0 0 0-.004-.132 3.726 3.726 0 0 0-.03-.2l-.493.086a3.256 3.256 0 0 1 .029.195v.009-.004c0-.003 0-.008.002-.014a.238.238 0 0 1 .045-.11l.4.299Zm-.388.13c.057 0 .115-.003.164-.01a.528.528 0 0 0 .082-.02.268.268 0 0 0 .157-.12l-.43-.257a.239.239 0 0 1 .086-.084.176.176 0 0 1 .03-.014c.008-.002.008-.001-.003 0a.598.598 0 0 1-.086.006v.5Zm-.166.004.171-.003-.01-.5-.171.003.01.5Zm.133.09.095-.25-.467-.179-.095.25.467.179Zm-1 1.617c.372-.494.816-1.208.994-1.604l-.456-.205c-.158.35-.578 1.032-.938 1.509l.4.3Zm-.081.105.079-.102-.396-.306-.079.103.396.305Zm.092-.293-.185-.086-.21.453.184.086.211-.453Zm.826.858c-.195-.376-.501-.71-.828-.86l-.207.456c.194.089.43.323.59.634l.445-.23Zm.173.693c0-.137 0-.246-.029-.356-.027-.108-.079-.208-.144-.336l-.445.228c.073.143.094.189.105.23.01.04.013.084.013.234h.5Zm-.376.894a.283.283 0 0 0 .21-.116.457.457 0 0 0 .056-.1 1.19 1.19 0 0 0 .058-.2c.03-.14.052-.318.052-.478h-.5c0 .122-.017.264-.04.374a.708.708 0 0 1-.032.113c-.004.01-.003.004.007-.01.002-.002.054-.076.163-.082l.026.5Zm-.772.12.564-.086.168-.026.048-.007.04-.008-.122-.485a6.088 6.088 0 0 1-.043.006l-.166.026-.564.086.075.495Zm0 0-.075-.494h-.002l.076.495Zm-.364.056.363-.055-.075-.494-.363.055.075.494Zm-1.284.155c.034.01.062.01.065.01a.352.352 0 0 0 .057-.002l.082-.009c.065-.007.155-.02.262-.034.214-.03.504-.072.818-.12l-.075-.494a57.224 57.224 0 0 1-1.064.152l-.066.007h-.009.01c.004 0 .01 0 .017.002.006 0 .022.002.041.008l-.138.48Zm-.46-.652a1.766 1.766 0 0 0 .267.507.628.628 0 0 0 .062.067c.02.018.057.051.111.072l.178-.468a.129.129 0 0 1 .04.022c.008.004.011.008.012.008 0 0-.004-.003-.012-.014a1.277 1.277 0 0 1-.18-.342l-.478.148Zm-.02-.065.02.067.477-.152-.021-.067-.477.152Zm.004.012.468-.175-.468.175Zm-.044-.134.001.004.01.029.028.089.477-.152a3.187 3.187 0 0 0-.056-.167l-.46.197Zm-.055.28c.13-.067.218-.107.271-.128.03-.01.035-.01.025-.01a.163.163 0 0 1-.072-.002.243.243 0 0 1-.182-.178l.485-.12a.26.26 0 0 0-.198-.191.305.305 0 0 0-.112-.002.658.658 0 0 0-.124.036c-.08.03-.187.08-.321.15l.228.444Zm-1.39.5a5.619 5.619 0 0 0 1.388-.5l-.224-.446c-.457.229-.8.35-1.276.459l.111.487Zm-3.376-.207a6.079 6.079 0 0 0 3.375.207l-.11-.488a5.58 5.58 0 0 1-3.095-.19l-.17.471Zm-1.359-.673a9.81 9.81 0 0 0 1.358.673l.172-.47a9.235 9.235 0 0 1-1.267-.629l-.263.426ZM9.69 10.467c1.022 1.07 1.29 1.311 1.93 1.706l.262-.426c-.581-.359-.814-.56-1.83-1.625l-.362.345Zm-.57-.474c.102.051.162.087.233.146.078.063.172.156.338.329l.36-.346a4.667 4.667 0 0 0-.38-.37 1.613 1.613 0 0 0-.328-.206l-.224.447Zm-.38-.103c.093 0 .133.005.172.015.042.01.095.033.209.088l.221-.448a1.618 1.618 0 0 0-.304-.124 1.125 1.125 0 0 0-.298-.03v.5Zm-.474-.163a.376.376 0 0 0 .228.146c.072.016.158.017.246.017v-.5a1.897 1.897 0 0 1-.134-.005h-.002s.013.003.03.014a.125.125 0 0 1 .033.029l-.4.3Zm.125-.742a.814.814 0 0 0-.203.34.469.469 0 0 0 .075.398l.407-.29.002.007c.002.008 0 .012 0 .009a.354.354 0 0 1 .087-.125l-.368-.339Zm.08.257a.244.244 0 0 1-.11-.185c-.001-.027.003-.045.003-.047.001-.007.002-.006-.002.005a.58.58 0 0 1-.014.036l-.001.003a136.032 136.032 0 0 1 .457.202.057.057 0 0 1 .001-.003l.002-.005a1.11 1.11 0 0 0 .048-.145.312.312 0 0 0 .006-.077.26.26 0 0 0-.117-.203l-.273.42Zm-.386-.251.386.251.273-.419-.386-.251-.273.419Zm1.18-2.794c-.245.258-.638.846-.929 1.377a5.022 5.022 0 0 0-.348.753 1.15 1.15 0 0 0-.067.319c-.003.087.013.269.186.358l.228-.445c.1.05.084.143.085.102a.728.728 0 0 1 .042-.175c.059-.176.171-.414.313-.672.284-.52.652-1.062.852-1.273l-.363-.344Zm.158-.23a.454.454 0 0 1-.002.057l.002-.004.001-.003a.376.376 0 0 1-.04.05 5.08 5.08 0 0 1-.12.13l.364.344c.098-.105.182-.192.23-.277.065-.114.065-.217.065-.298h-.5Zm.45-1.433c-.119.202-.23.468-.31.72-.08.25-.14.514-.14.712h.5c0-.12.041-.325.116-.56a3.23 3.23 0 0 1 .265-.618l-.43-.254Zm.062-.045c.005.012 0 .003-.002-.014a.14.14 0 0 1 .003-.052c.001-.005.001-.001-.01.02l-.052.09.43.256c.043-.073.09-.152.113-.228a.37.37 0 0 0-.023-.27l-.459.198Zm.487-.808c-.194.138-.342.25-.426.356a.442.442 0 0 0-.1.23c-.01.092.016.17.04.226l.457-.206c-.007-.014.003.002 0 .032-.003.031-.016.043-.006.03a.676.676 0 0 1 .096-.09c.056-.045.13-.1.23-.171l-.291-.407Zm1.184-.837c.01-.033.026-.054.03-.06a.172.172 0 0 1 .012-.016l-.001.001c-.01.01-.028.024-.055.047a8.369 8.369 0 0 1-.243.188c-.216.163-.53.392-.928.677l.291.407c.4-.287.718-.518.938-.684.11-.083.197-.15.259-.201a1.643 1.643 0 0 0 .113-.103.262.262 0 0 0 .058-.098l-.474-.158Zm-.271.361a1.476 1.476 0 0 1 .398-.074l.019.001a.194.194 0 0 1-.07-.035.228.228 0 0 1-.077-.25l.476.151a.27.27 0 0 0-.092-.295.334.334 0 0 0-.145-.062.82.82 0 0 0-.207-.006c-.137.01-.312.044-.466.098l.164.472Zm-1.443.099c.179.092.414.106.646.086.241-.022.515-.086.798-.185l-.166-.472a2.867 2.867 0 0 1-.677.159c-.2.018-.32-.006-.372-.033l-.23.445Zm-.403-.53a.39.39 0 0 0 .063.199.91.91 0 0 0 .093.125.897.897 0 0 0 .25.207l.223-.447-.01-.006a.633.633 0 0 1-.128-.137c-.003-.006-.003-.006 0-.001 0 .002.01.025.01.06h-.5Zm.513-.25a2.741 2.741 0 0 0-.191-.007c-.025 0-.053 0-.078.003a.263.263 0 0 0-.13.043.252.252 0 0 0-.114.211h.5a.248.248 0 0 1-.198.242l-.008.001h.028c.036 0 .09.002.154.006l.037-.498Zm-.203-.022.01.098c.002.03.002.048.001.056-.001.015-.002-.015.025-.052a.194.194 0 0 1 .167-.08l-.037.5a.307.307 0 0 0 .276-.127.391.391 0 0 0 .067-.193c.009-.09-.005-.197-.012-.26l-.497.058Zm-.013-.164c0 .055.008.119.013.164l.497-.058a1.14 1.14 0 0 1-.01-.106h-.5Zm.26-.333a.253.253 0 0 0-.244.185.352.352 0 0 0-.012.062.81.81 0 0 0-.004.086h.5a.64.64 0 0 1 0-.022v-.007l.001-.002v.005a.231.231 0 0 1-.034.083.247.247 0 0 1-.207.11v-.5Zm.189.052a15.585 15.585 0 0 0-.127-.044.26.26 0 0 0-.016-.003.195.195 0 0 0-.046-.005v.5a.245.245 0 0 1-.06-.007l-.01-.003h-.001a1.359 1.359 0 0 1 .088.032l.172-.47Zm.035.013-.035-.013-.172.47.036.013.171-.47Zm.893-.069c-.442.122-.736.125-.895.068l-.167.472c.309.109.727.071 1.195-.058l-.133-.482Zm.665-.143a5.352 5.352 0 0 0-.666.143l.135.482c.218-.061.487-.117.587-.128l-.055-.497Zm.784.4a.28.28 0 0 0 .076-.163.263.263 0 0 0-.104-.238.302.302 0 0 0-.115-.051.453.453 0 0 0-.071-.01 1.504 1.504 0 0 0-.247.013 5.183 5.183 0 0 0-.332.05l-.006.001h-.002l.045.247.046.245h.007a6.021 6.021 0 0 1 .3-.046.94.94 0 0 1 .157-.011c.005 0 .002 0-.007-.002a.178.178 0 0 1-.075-.036.237.237 0 0 1-.093-.213c.008-.077.05-.12.056-.128l.365.342Zm-.102.292a1.94 1.94 0 0 1 .071-.225c.025-.061.038-.074.031-.067l-.364-.342a.704.704 0 0 0-.13.223 2.32 2.32 0 0 0-.092.284l.484.127Zm-.07.254c0 .018-.003.033-.003.033l-.001.009-.001.005V2.85l.004-.017a8.381 8.381 0 0 1 .07-.282l-.482-.13a10.216 10.216 0 0 0-.08.322l-.003.01-.001.008a.336.336 0 0 0-.004.043h.5Zm-.099-.224-.074-.016a3.016 3.016 0 0 0-.022-.004l-.007-.001-.006-.001a.306.306 0 0 0-.016-.003l-.027-.001v.5a.252.252 0 0 1-.027-.002h-.008l-.006-.002h-.003.003l.018.004.074.015.101-.49Zm0 0-.101.49.102-.49Zm0 0-.1.49.1-.49Zm0 0-.101.49.102-.49Zm.002 0-.104.49.104-.49Zm-.002 0-.1.49.1-.49Zm0 0-.1.49.1-.49Zm.662.134-.662-.134-.1.49.665.134.097-.49Zm.774.135c.019-.004.018 0-.029-.005a2.588 2.588 0 0 1-.16-.02c-.14-.023-.335-.059-.584-.11l-.1.49c.252.052.455.09.606.113.075.012.14.02.194.025a.635.635 0 0 0 .162-.001l-.09-.492Zm.499.381a.383.383 0 0 0-.167-.327.442.442 0 0 0-.34-.053l.104.49c.025-.006 0 .007-.04-.02a.135.135 0 0 1-.048-.054.089.089 0 0 1-.01-.036h.5Zm-.475.498c.13-.06.24-.117.318-.18a.442.442 0 0 0 .115-.14.387.387 0 0 0 .042-.178h-.5c0-.009.002-.028.013-.05.01-.018.019-.024.012-.018a.435.435 0 0 1-.063.04c-.036.02-.083.043-.147.072l.21.454Zm-.366.223a2.66 2.66 0 0 1 .368-.224l-.214-.452a3.045 3.045 0 0 0-.456.278l.302.398Zm-.912.955c.193-.276.663-.766.912-.955l-.302-.398c-.292.221-.798.75-1.02 1.067l.41.286Zm-.127.356c0-.142.003-.158.008-.172.007-.02.023-.047.118-.183l-.409-.287c-.076.109-.146.204-.182.308-.038.11-.035.222-.035.334h.5Zm.142.92c-.08-.27-.142-.67-.142-.92h-.5c0 .305.07.752.162 1.062l.48-.141Zm.053.184-.053-.182-.48.14.053.181.48-.14Zm-.382-.266-.092.248.468.175.092-.248-.468-.175Zm.54-1.027a4.172 4.172 0 0 0-.54 1.029l.47.17a3.66 3.66 0 0 1 .475-.907l-.406-.292Zm.244.102a.226.226 0 0 1-.14-.183.197.197 0 0 1 .005-.074l.005-.015a3.36 3.36 0 0 1-.114.17l.404.293c.072-.098.13-.183.161-.249a.337.337 0 0 0 .035-.182.273.273 0 0 0-.176-.227l-.18.467Zm.019-.777a.329.329 0 0 0-.098.096.505.505 0 0 0-.044.078.796.796 0 0 0-.05.156.624.624 0 0 0-.015.176.4.4 0 0 0 .031.123c.023.05.07.115.158.148l.178-.467c.07.027.104.079.118.108a.144.144 0 0 1 .014.048l.005-.031a.297.297 0 0 1 .017-.056c.003-.006.003-.006 0 0a.191.191 0 0 1-.053.048l-.261-.427Zm.836-.752a30.313 30.313 0 0 1-.765.693c-.058.049-.077.062-.071.06l.26.426c.036-.022.088-.066.135-.105l.204-.178c.16-.144.367-.332.58-.532l-.343-.364Zm.765-.72-.765.72.343.364.765-.72-.343-.364Zm-.079-.01v.192h.5v-.192h-.5Zm.303-.456a.466.466 0 0 0-.11.032.307.307 0 0 0-.154.148.409.409 0 0 0-.036.15 1.907 1.907 0 0 0-.003.126h.5c0-.048 0-.074.002-.09v-.004a.194.194 0 0 1-.106.127l-.014.005a.472.472 0 0 1 .02-.004l-.099-.49Zm.274-.025c-.082 0-.199.011-.268.024l.087.492c.043-.008.13-.016.18-.016v-.5Zm.149-.118a.977.977 0 0 1-.14.113l-.008.004-.01.001.017.5a.515.515 0 0 0 .25-.07c.072-.042.145-.103.225-.176l-.334-.372Zm.179.176a.244.244 0 0 1-.087-.235c.007-.034.02-.056.02-.058l-.007.009a1.47 1.47 0 0 1-.109.112l.342.364a1.66 1.66 0 0 0 .151-.157.578.578 0 0 0 .06-.084.301.301 0 0 0 .033-.088.258.258 0 0 0-.09-.253l-.313.39Zm-.143.019a1.638 1.638 0 0 1 .213.02c.004 0 0 0-.007-.003a.237.237 0 0 1-.084-.054l.354-.353a.266.266 0 0 0-.104-.065.995.995 0 0 0-.136-.029 2.133 2.133 0 0 0-.225-.016l-.01.5Zm-.64.083c.335-.078.454-.092.634-.083l.024-.5c-.248-.011-.42.014-.77.096l.112.487Zm-1.083.043c.295.1.592.074 1.085-.044l-.117-.486c-.476.114-.654.108-.807.056l-.161.474Zm.235-.663c-.078.021-.2.061-.288.115a.431.431 0 0 0-.082.065.297.297 0 0 0-.084.169.277.277 0 0 0 .088.238.36.36 0 0 0 .13.075l.162-.473.003.001.008.004a.175.175 0 0 1 .038.027.223.223 0 0 1 .067.19.204.204 0 0 1-.055.118c-.01.012-.018.015-.013.012a.768.768 0 0 1 .158-.06l-.132-.481Zm-.15-.573a.254.254 0 0 0-.328.214c-.007.06.01.109.012.116.01.034.026.07.038.097a12.352 12.352 0 0 0 .262.486l.012.02.003.004v.002l.217-.125.216-.126v-.001l-.003-.005-.01-.018a12.486 12.486 0 0 1-.148-.263 3.785 3.785 0 0 1-.095-.185c-.012-.026-.014-.033-.013-.028 0 .002.003.009.004.019.002.007.006.031.002.064a.246.246 0 0 1-.318.206l.15-.477Zm.9.043a1.418 1.418 0 0 1-.422.058 1.944 1.944 0 0 1-.48-.101l-.145.478c.233.071.418.115.603.123.188.008.36-.021.567-.074l-.123-.484Zm8.028 3.303a.251.251 0 0 0-.487.07c-.003.027-.004.062-.005.088l.5.02.002-.045-.004.021a.244.244 0 0 1-.057.105.249.249 0 0 1-.412-.07l.463-.189ZM22.58 5a.509.509 0 0 0 .023-.087.308.308 0 0 0-.014-.157l-.468.175a.21.21 0 0 1-.012-.097c0-.007.002-.007-.001 0L22.58 5Zm-2.99-3.383a.255.255 0 0 0-.396.026.259.259 0 0 0-.04.095.3.3 0 0 0-.007.08l.005.044.495-.072v.001s.001.022-.005.051a.247.247 0 0 1-.415.119l.363-.344Zm-.195.459c.015 0 .053 0 .097-.013a.259.259 0 0 0 .148-.377.363.363 0 0 0-.04-.057l-.383.32c.002.003-.006-.005-.015-.022-.004-.007-.042-.072-.022-.163a.241.241 0 0 1 .206-.187.16.16 0 0 1 .018-.001l-.01.5ZM16.49 5.543l.244.058v-.006l.005-.018.016-.066a27.975 27.975 0 0 1 .247-.955l-.482-.133a30.397 30.397 0 0 0-.25.97l-.017.068-.005.018v.006h-.001l.243.058Zm-.111-.355-.116.25.454.21.116-.252-.454-.208Zm.132-.686-.003.026a6.22 6.22 0 0 1-.095.537 1.553 1.553 0 0 1-.031.114l-.003.008-.001.002.455.206c.027-.06.05-.142.067-.215a5.202 5.202 0 0 0 .093-.502c.009-.063.018-.133.018-.176h-.5Zm0-.014V4.5l.5.004v-.012l-.5-.004Zm.662-1.409-.003-.002-.235.441.003.002.235-.441Zm-.255.43.02.011a.237.237 0 0 0 .048.02.25.25 0 0 0 .246-.417l-.353.353s-.02-.018-.037-.046a.245.245 0 0 1-.035-.153.25.25 0 0 1 .224-.226.253.253 0 0 1 .154.035l.002.001-.27.421Zm-1.07-1.055-.145.204h.001l.003.002.01.007.035.026.13.09a893.905 893.905 0 0 0 1.036.725l.27-.42-.005-.004-.014-.01-.046-.03a51.207 51.207 0 0 1-.555-.39l-.398-.28-.13-.09-.036-.026-.01-.006a.06.06 0 0 1-.002-.002l-.145.204Zm.2.204.039-.133-.48-.143-.039.132.48.144Zm1.05.386a15.386 15.386 0 0 1-.691-.335 3.566 3.566 0 0 1-.325-.187.487.487 0 0 1-.065-.05c-.003-.003.007.006.018.028.01.02.035.08.012.158l-.479-.144a.285.285 0 0 0 .021.211.393.393 0 0 0 .069.095.926.926 0 0 0 .143.115c.101.07.237.145.374.217.275.145.587.287.715.346l.208-.454Zm.065.03a3.82 3.82 0 0 0-.065-.03l-.208.454.037.017.011.005.004.002.22-.448Zm-3.747.383a.84.84 0 0 0 .103-.037.272.272 0 0 0 .087-.072.255.255 0 0 0-.063-.375.392.392 0 0 0-.101-.046c-.09-.028-.285-.068-.62-.137l-.101.49c.356.073.514.106.572.124.017.006-.002.002-.028-.015-.01-.007-.06-.041-.088-.112a.244.244 0 0 1 .036-.239.205.205 0 0 1 .072-.06.184.184 0 0 1 .013-.006l.005-.002-.005.001a1.09 1.09 0 0 1-.018.005l.136.481Zm-.332.095c.168-.048.303-.085.339-.097l-.15-.477c-.026.009-.149.043-.324.092l.135.482Zm0 0-.135-.482.135.482Zm0 0-.136-.481.137.48Zm-.403.114.403-.114-.136-.481-.404.114.137.48Zm-.641.178.64-.178-.135-.482-.64.179.135.481Zm-.286-.392-.023.089.484.125.023-.09-.484-.124Zm.417-.786a.253.253 0 0 0-.21.11.325.325 0 0 0-.026.047 2.853 2.853 0 0 0-.07.208 9.32 9.32 0 0 0-.112.425l.486.116a8.872 8.872 0 0 1 .143-.521l.006-.015-.004.008a.236.236 0 0 1-.05.062.247.247 0 0 1-.163.06v-.5Zm.65.124a54.806 54.806 0 0 0-.62-.122l-.03-.002v.5a.238.238 0 0 1-.026-.001h-.005.005l.034.006.128.025.413.084.101-.49Zm-1.38.608-.065.238.482.133.066-.238-.482-.133Zm.084-.28c-.007.023-.042.147-.081.273l.478.147c.04-.13.077-.258.084-.282l-.481-.138Zm.247.28a.249.249 0 0 1-.246-.212.217.217 0 0 1-.001-.054.168.168 0 0 1 .016-.056l.448.223a.336.336 0 0 0 .032-.184.251.251 0 0 0-.25-.218v.5Zm-.94.744.039-.029a35.584 35.584 0 0 1 .502-.37 105.429 105.429 0 0 1 .526-.38l.004-.003-.01.005a.22.22 0 0 1-.042.02c-.006.002-.037.013-.08.013v-.5a.243.243 0 0 0-.139.042.745.745 0 0 0-.054.037l-.126.09a106.185 106.185 0 0 0-.88.645l-.07.054.33.376Zm-.018-.476c-.063.016-.113.03-.147.037l-.02.005.012-.002a.227.227 0 0 1 .09.013.248.248 0 0 1 .126.374l-.416-.278a.25.25 0 0 0 .181.39.275.275 0 0 0 .073-.002 5.7 5.7 0 0 0 .23-.054l-.129-.483Zm.482-.136c-.142.038-.363.101-.488.137l.14.48c.126-.036.34-.098.475-.133l-.127-.484Zm.256-.069-.258.07.13.482.258-.069-.13-.483Zm5.039 2.575.082-.271-.478-.146-.082.271.478.146Zm-.212 1.04c.051-.399.118-.72.213-1.043l-.48-.14a7.038 7.038 0 0 0-.23 1.118l.497.064Zm-.206.622a1.36 1.36 0 0 0 .14-.284c.032-.1.05-.205.066-.34l-.496-.062c-.016.13-.029.195-.046.246a.864.864 0 0 1-.091.181l.427.26Zm-.136.256.01-.022.033-.066c.027-.053.062-.114.096-.172l-.433-.251a5.474 5.474 0 0 0-.105.189c-.028.053-.063.12-.079.173l.478.149Zm-.601-.47c.004.115.007.214.012.293.004.074.01.148.023.204a.34.34 0 0 0 .058.133.263.263 0 0 0 .341.069c.068-.039.103-.1.113-.116a.78.78 0 0 0 .044-.088l-.459-.2a.577.577 0 0 1-.01.024l-.004.008.002-.004a.212.212 0 0 1 .064-.057.238.238 0 0 1 .307.06c.03.04.035.076.032.063a1.036 1.036 0 0 1-.012-.125 11.803 11.803 0 0 1-.011-.28l-.5.016Zm.127-1.531a5.996 5.996 0 0 0-.127 1.535l.5-.023a5.498 5.498 0 0 1 .116-1.406l-.489-.106Zm1.01-.545a.286.286 0 0 0-.24-.16.403.403 0 0 0-.162.025.877.877 0 0 0-.239.138c-.143.112-.316.304-.368.54l.488.109a.523.523 0 0 1 .19-.256.407.407 0 0 1 .096-.06c.009-.003-.008.005-.04.003a.214.214 0 0 1-.175-.122l.45-.217Zm.086.174-.086-.175-.45.22.087.175.449-.22Zm-4.669.884a.999.999 0 0 1 .048.172.16.16 0 0 1-.005.067l.487.115a.655.655 0 0 0 .014-.248 1.449 1.449 0 0 0-.07-.266l-.474.16Zm-.198-.942c.004.23.096.638.198.941l.474-.159c-.096-.284-.17-.636-.172-.79l-.5.008Zm.331.051c.03-.077.05-.122.063-.143.007-.013.004-.004-.01.01a.211.211 0 0 1-.064.046.237.237 0 0 1-.293-.077.196.196 0 0 1-.027-.052c-.005-.015-.004-.02-.002-.004.002.028.004.08.002.16l.5.01c.002-.084.001-.16-.005-.218a.487.487 0 0 0-.02-.104.298.298 0 0 0-.04-.08.266.266 0 0 0-.137-.101.27.27 0 0 0-.276.075.444.444 0 0 0-.065.092c-.03.052-.06.123-.091.203l.465.183Zm-.24 1.075c0-.237.012-.39.044-.535.032-.147.088-.298.192-.53l-.457-.203c-.107.24-.18.428-.223.625a2.884 2.884 0 0 0-.056.643h.5Zm.031.509-.002-.011a1.875 1.875 0 0 1-.018-.154 4.925 4.925 0 0 1-.01-.344h-.5c0 .138.004.27.011.38.008.1.02.208.043.281l.476-.152Zm-.1-.032c-.017 0-.009-.001.008.003a.17.17 0 0 1 .084.048c.022.023.028.042.026.036a.541.541 0 0 1-.016-.048l-.48.138c.01.033.02.069.034.102a.38.38 0 0 0 .078.122c.098.1.223.099.267.099v-.5Zm.1 0h-.1v.5h.1v-.5Zm.25.663v-.413h-.5v.413h.5Zm-.3.663a.277.277 0 0 0 .244-.144.414.414 0 0 0 .045-.155c.01-.078.01-.197.01-.364h-.5c0 .177-.002.264-.006.307l-.001.006a.218.218 0 0 1 .094-.118.223.223 0 0 1 .114-.032v.5Zm.267-.076a3.301 3.301 0 0 1-.053-.13c-.013-.035-.013-.04-.011-.031 0 .001.016.1-.07.18a.218.218 0 0 1-.099.053c-.02.004-.034.004-.034.004v-.5c-.018 0-.123-.003-.208.077a.29.29 0 0 0-.085.255.663.663 0 0 0 .038.134c.015.043.036.093.061.152l.46-.194Zm.453 1.314s-.007-.014-.013-.035a.24.24 0 0 1 .035-.202.246.246 0 0 1 .269-.098c.032.01.054.023.056.024.01.007.002.002-.035-.033a6.23 6.23 0 0 1-.574-.666 1.72 1.72 0 0 1-.19-.303l-.462.192c.052.125.149.272.25.408a6.71 6.71 0 0 0 .63.73.74.74 0 0 0 .116.096c.01.006.037.023.075.034.017.005.177.046.277-.1a.253.253 0 0 0 .035-.214.318.318 0 0 0-.023-.06l-.446.227Zm-.623-2.461c-.036.365.058.845.182 1.282.127.445.297.881.44 1.175l.45-.218a7.275 7.275 0 0 1-.409-1.094c-.121-.427-.191-.83-.165-1.096l-.498-.049Zm.071-.523c-.02.09-.05.33-.07.523l.497.05c.02-.197.048-.407.061-.462l-.488-.11Zm7.534 1.109a.896.896 0 0 0 .06-.258.874.874 0 0 0-.038-.256l-.484.123c.022.09.022.104.022.112a.489.489 0 0 1-.033.115l.473.163Zm-.02.059.019-.058-.471-.167a3.45 3.45 0 0 0-.023.067l.475.158Zm-.002.003-.472-.164.473.164Zm-.22.462a.88.88 0 0 0 .142-.246c.033-.079.06-.161.08-.219l-.475-.158c-.02.06-.042.126-.067.187a.774.774 0 0 1-.052.103l.372.333Zm-.603.055a.317.317 0 0 0 .081.108.272.272 0 0 0 .31.035.439.439 0 0 0 .114-.092c.027-.027.06-.064.098-.105l-.372-.335a3.81 3.81 0 0 1-.084.092l-.01.01-.003.002v.001l.005-.004a.22.22 0 0 1 .137-.036.228.228 0 0 1 .167.094c.002.002.001.001-.004-.009l-.44.24Zm-.145-1.749c-.055.286-.064.63-.04.94.022.3.079.609.183.806l.442-.233c-.054-.103-.106-.326-.127-.612a3.252 3.252 0 0 1 .033-.807l-.491-.094Zm.476-1.039a.251.251 0 0 0-.227.142 1.575 1.575 0 0 0-.05.13c-.02.066-.045.152-.07.244-.05.181-.106.399-.13.524l.492.092a7.442 7.442 0 0 1 .205-.766l-.003.006c-.001.002-.008.016-.022.033a.248.248 0 0 1-.195.095v-.5Zm.297.483a11.377 11.377 0 0 0-.046-.267.428.428 0 0 0-.03-.085.25.25 0 0 0-.22-.131v.5a.249.249 0 0 1-.218-.128.327.327 0 0 1-.017-.037l-.002-.008.009.046.03.186.494-.076Zm.239 1.21a15.25 15.25 0 0 1-.239-1.207l-.495.07c.044.312.175.976.25 1.264l.484-.126Zm-9.479-.327-.214-.73-.48.14.214.73.48-.14Zm-.789-.578c.004.032.012.058.015.068l.015.042a10.328 10.328 0 0 0 .247.549l.034.07.01.02.002.006v.001l.226-.108.226-.108-.001-.002a.142.142 0 0 0-.003-.005l-.009-.019c-.008-.016-.02-.04-.033-.07a25.257 25.257 0 0 1-.2-.437 2.05 2.05 0 0 1-.037-.09c-.002-.007.003.008.006.031l-.498.052Zm.198-.291-.086.056.274.418.086-.056-.274-.418Zm1.766 1.523c.088 0 .171-.003.236-.01a.774.774 0 0 0 .097-.015.336.336 0 0 0 .07-.024.254.254 0 0 0 .147-.231h-.5a.245.245 0 0 1 .16-.23.125.125 0 0 1 .01-.002l-.033.005c-.044.004-.11.007-.187.007v.5Zm-.3 0h.3v-.5h-.3v.5Zm-.818.012.821-.012-.007-.5-.821.012.007.5Zm.403-.706c-.132.055-.26.107-.354.148-.046.02-.09.04-.123.057A.595.595 0 0 0 10 7.2a.25.25 0 0 0-.077.125l.483.129a.243.243 0 0 1-.07.116l-.022.018.007-.004.097-.045c.088-.038.21-.088.344-.144l-.19-.462Zm.163-.067-.163.067.19.462.164-.067-.191-.462Zm.936.151c-.051-.064-.12-.088-.135-.094a.58.58 0 0 0-.082-.022c-.05-.01-.11-.018-.173-.024a9.938 9.938 0 0 0-.438-.03l-.026.5c.155.008.302.016.415.028.056.005.097.011.123.016l.01.002a.22.22 0 0 1-.087-.066l.393-.31Zm.166.33c0-.056-.02-.1-.021-.103a.856.856 0 0 0-.05-.093 2.006 2.006 0 0 0-.092-.13l-.399.302a1.495 1.495 0 0 1 .082.12l-.004-.009a.217.217 0 0 1-.016-.087h.5ZM10.69 7.34l.124.007.026-.5-.124-.006-.026.5Zm-.678-.097a.28.28 0 0 0 .111.05 2.232 2.232 0 0 0 .2.026c.103.008.234.015.367.021l.026-.499c-.136-.007-.26-.013-.354-.02a1.77 1.77 0 0 1-.105-.01l-.014-.003.015.005a.22.22 0 0 1 .055.03l-.3.4Zm1.064-.64-.963.195.1.49.962-.195-.1-.49Zm.366-.074-.366.074.1.49.366-.074-.1-.49Zm-.52.799c.164-.068.331-.138.46-.199.065-.03.125-.06.173-.088a.623.623 0 0 0 .075-.05.344.344 0 0 0 .045-.044.277.277 0 0 0 .058-.107l-.482-.133a.224.224 0 0 1 .066-.106c.003-.003 0 0-.015.009a1.737 1.737 0 0 1-.131.066 11.73 11.73 0 0 1-.44.19l.192.462ZM9.792 8l.214.337.422-.268-.214-.337L9.791 8ZM9.7 7.452c.039.091.052.149.052.414h.5c0-.283-.013-.424-.093-.61l-.46.196Zm.125-.058a.247.247 0 0 1-.185-.085.174.174 0 0 1-.01-.013l-.003-.003a.178.178 0 0 1 .005.008 2.506 2.506 0 0 1 .067.148l.462-.19a2.981 2.981 0 0 0-.106-.225.277.277 0 0 0-.075-.087.255.255 0 0 0-.155-.053v.5Zm.135.199a36.959 36.959 0 0 1 .093-.348c.002-.008.003-.008.001-.005 0 0-.003.01-.01.023-.003.005-.012.022-.028.041a.247.247 0 0 1-.191.09v-.5a.25.25 0 0 0-.238.168 3.043 3.043 0 0 0-.037.123l-.074.281.484.127Zm0-.003-.485-.121.485.12Zm-.149.563c.056-.205.107-.401.149-.56l-.484-.127c-.042.16-.092.353-.147.556l.482.13Zm-.247.906.247-.906-.482-.131-.247.905.482.132Zm-.056-.264-.099-.037-.172.47.098.036.173-.47Zm.475.251a6.286 6.286 0 0 0-.275-.155 1.826 1.826 0 0 0-.203-.098l-.167.472s.012.004.04.018l.095.049c.075.04.165.09.252.143l.258-.429Zm.26.163c.025 0 .044.004.049.005l.012.003-.01-.004a4.639 4.639 0 0 1-.313-.168l-.254.43a5.125 5.125 0 0 0 .37.198.639.639 0 0 0 .05.019.286.286 0 0 0 .096.017v-.5Zm-.19-.11a1.5 1.5 0 0 1 .029.157.335.335 0 0 1 .003.07c0 .01 0-.022.032-.058a.178.178 0 0 1 .126-.06v.5c.085 0 .18-.03.25-.11a.387.387 0 0 0 .089-.212 1.225 1.225 0 0 0-.043-.4l-.487.114Zm-.08-.6c.004.177.039.443.08.605l.485-.123a2.699 2.699 0 0 1-.065-.492l-.5.01Zm-.007-.29.007.29.5-.01-.007-.292-.5.012Zm6.868 1.265a3.413 3.413 0 0 1-.4-1.045l-.491.097c.081.413.23.798.456 1.195l.435-.247Zm.135.637a.251.251 0 0 0 .058-.265 1.765 1.765 0 0 0-.06-.13 6.984 6.984 0 0 0-.133-.243l-.434.249a6.529 6.529 0 0 1 .153.285c.003.007.002.005 0-.002 0-.002-.005-.015-.008-.034a.248.248 0 0 1 .07-.213l.354.353Zm-.698.108c.046.026.09.03.1.032a.732.732 0 0 0 .114 0 2.063 2.063 0 0 0 .362-.068.288.288 0 0 0 .112-.063l-.335-.371a.227.227 0 0 1 .051-.035l.01-.004a1.542 1.542 0 0 1-.265.044h-.002a.079.079 0 0 1 .015 0 .209.209 0 0 1 .081.028l-.243.437Zm-.47-.906c.066.179.146.37.216.523.035.076.069.146.099.2a1.01 1.01 0 0 0 .075.116c.01.01.032.037.066.059l.27-.42c.03.018.045.037.046.039l.003.003a2.916 2.916 0 0 1-.105-.206c-.065-.14-.14-.32-.2-.485l-.47.171Zm-.256-1.163c-.011.05-.01.1-.007.129.002.035.007.074.013.113.012.08.032.175.057.276.049.202.119.442.194.646l.469-.173a5.729 5.729 0 0 1-.177-.59 3.09 3.09 0 0 1-.057-.304c-.002-.021.001-.01-.005.016l-.487-.113Zm.178-.42c-.04.08-.078.164-.109.234-.026.06-.058.137-.07.19l.49.105.007-.018a5.41 5.41 0 0 1 .131-.292l-.45-.22Zm.134-.28-.135.281.45.217.136-.28-.45-.218Zm.5.412-.025-.324-.499.041.027.324.498-.04Zm.075.561a4.884 4.884 0 0 1-.074-.559l-.498.037c.013.184.047.465.084.63l.488-.108Zm2.111.168a.86.86 0 0 1 .063.034c.013.009.013.01.008.004a.17.17 0 0 1-.046-.135l.496.059a.33.33 0 0 0-.103-.283.797.797 0 0 0-.19-.124l-.228.445Zm-.515-.027.13.213.004-.002a.72.72 0 0 1 .06-.035c.042-.022.098-.051.157-.077a.887.887 0 0 1 .16-.056c.055-.012.043.003.007-.015l.224-.447a.512.512 0 0 0-.335-.027 1.37 1.37 0 0 0-.257.087 2.513 2.513 0 0 0-.279.144l-.001.001.13.214Zm.468.347a.21.21 0 0 1 .107.03l-.021-.02a2.204 2.204 0 0 1-.33-.466l-.45.218a2.688 2.688 0 0 0 .428.603c.024.024.053.05.084.073.019.013.088.062.182.062v-.5Zm.127-.16a4.241 4.241 0 0 1-.23.184c-.006.003-.005.003 0 0a.188.188 0 0 1 .022-.01c.007-.002.038-.014.081-.014v.5a.265.265 0 0 0 .128-.032 1.413 1.413 0 0 0 .124-.084c.057-.044.128-.102.201-.166l-.326-.378Zm.268.104.014.002a.147.147 0 0 1-.05-.027.21.21 0 0 1-.077-.123.191.191 0 0 1 .007-.106c.009-.023.014-.02-.021.018-.03.032-.076.075-.142.132l.328.378c.071-.062.132-.118.179-.168a.58.58 0 0 0 .123-.181.291.291 0 0 0-.093-.346.426.426 0 0 0-.22-.077l-.048.498Zm-.324-.359c-.003.034-.02.178.103.28.048.04.1.056.13.064a.647.647 0 0 0 .087.015l.055-.497-.02-.003c.003 0 .033.008.067.036.042.035.064.08.072.119.006.029.003.048.003.041l-.497-.055ZM18.46 9.51l.086-.06-.285-.41-.085.059.285.41Zm-1.189.429a.248.248 0 0 0 .15.055.263.263 0 0 0 .093-.013 2.616 2.616 0 0 0 .148-.061 11.38 11.38 0 0 0 .798-.41l-.284-.412v.001l-.004.002a.46.46 0 0 1-.047.027 13.608 13.608 0 0 1-.753.372l-.007.003.025-.006a.237.237 0 0 1 .047-.003c.012 0 .081.002.147.055l-.313.39Zm.094-.925a40.024 40.024 0 0 0-.17.615 1.192 1.192 0 0 0-.016.085.275.275 0 0 0 .006.089.25.25 0 0 0 .066.117l.354-.353a.25.25 0 0 1 .071.198l-.001.01.006-.028.036-.137c.032-.118.078-.28.13-.458l-.482-.138Zm.196-.305-.16.231.41.286.16-.232-.41-.285Zm.49.01a2.013 2.013 0 0 1-.1-.028c-.007-.003-.005-.003.002.002.008.006.023.02.035.042l-.443.233a.413.413 0 0 0 .214.184c.061.026.13.042.173.053l.118-.486Zm.339.158a.51.51 0 0 0-.189-.115c-.054-.02-.111-.033-.15-.043l-.12.486a.981.981 0 0 1 .098.027c.024.008.02.01.006-.002l.355-.353Zm.19.191-.19-.191-.355.353.192.192.354-.354Zm-1.726.123a21.431 21.431 0 0 1-.182.531c-.002.003-.001.002 0-.001l.006-.01a.207.207 0 0 1 .02-.03l.39.311c.02-.025.032-.05.034-.052a21.324 21.324 0 0 0 .208-.595l-.476-.154Zm.234.312a.267.267 0 0 1 .064-.133.187.187 0 0 1 .015-.015v-.001h.001-.002a.153.153 0 0 1-.042.017.218.218 0 0 1-.205-.06c-.063-.063-.06-.133-.06-.136 0-.011.002-.007-.006.019l.477.148a.58.58 0 0 0 .029-.156.307.307 0 0 0-.084-.226.283.283 0 0 0-.273-.073.386.386 0 0 0-.139.07.772.772 0 0 0-.27.473l.495.073Zm-.371.157a.24.24 0 0 1 .355.024.186.186 0 0 1 .019.033c.007.015.004.014-.001-.019a.817.817 0 0 1-.001-.199l-.496-.065c-.015.112-.012.238.002.334a.581.581 0 0 0 .042.158c.008.018.04.09.12.133a.26.26 0 0 0 .313-.046l-.353-.353Zm-3.405.217c.027-.027.042-.055.044-.058a.423.423 0 0 0 .03-.068 10.015 10.015 0 0 0 .15-.43l-.474-.153a9.459 9.459 0 0 1-.146.413l.004-.007.009-.015a.234.234 0 0 1 .029-.035l.354.353Zm-.444.011a.704.704 0 0 0 .154.058c.024.006.06.012.098.011.02 0 .132-.002.21-.1l-.39-.312a.235.235 0 0 1 .17-.088c.02 0 .03.003.027.002a.247.247 0 0 1-.046-.018l-.223.447Zm-.303-.398a.659.659 0 0 0 .1.24c.061.082.14.126.2.157l.23-.445c-.05-.025-.039-.025-.027-.01.004.007.004.009 0 0a.6.6 0 0 1-.017-.063l-.486.121Zm.07-.503c-.035.06-.086.144-.1.245-.012.097.014.191.03.257l.486-.118a1.156 1.156 0 0 1-.018-.08c-.002-.011 0-.006-.001.005-.002.012-.005.017-.001.008a.927.927 0 0 1 .036-.066l-.432-.25Zm.592-.46a.963.963 0 0 0-.591.459l.43.254a.465.465 0 0 1 .28-.228l-.12-.486Zm.466.33a.275.275 0 0 0 .013-.168.26.26 0 0 0-.133-.171.278.278 0 0 0-.123-.03.51.51 0 0 0-.11.012 3.79 3.79 0 0 0-.112.026l.117.486a3.44 3.44 0 0 1 .096-.022c.027-.006.02-.002 0-.003a.24.24 0 0 1-.22-.183.206.206 0 0 1-.003-.1l.004-.015.471.167Zm-.096.284a76.177 76.177 0 0 1 .086-.256l.005-.014-.46-.197c-.009.02-.025.068-.04.112l-.065.198.474.157Zm0 .003-.473-.163.472.163Zm-.06.18.06-.183-.474-.157-.06.182.474.158Zm.363-.158c.045.196.136.434.255.668l.446-.226a2.603 2.603 0 0 1-.214-.555l-.487.113Zm.048-.106a.162.162 0 0 1-.065-.038c-.021-.02-.028-.037-.027-.034a2.518 2.518 0 0 1 .043.172l.49-.1a1.412 1.412 0 0 0-.076-.276.385.385 0 0 0-.089-.127.338.338 0 0 0-.142-.08l-.134.483Zm.076.098a2.81 2.81 0 0 1 .06-.18c0-.002-.002.005-.012.016a.179.179 0 0 1-.126.06h-.021l.023.006.133-.482c-.029-.008-.09-.026-.157-.023a.319.319 0 0 0-.231.113.53.53 0 0 0-.09.163 3.57 3.57 0 0 0-.058.184l.479.143Zm-.107.346.106-.345-.478-.146-.106.342.477.149Zm0 0-.478-.15v.001l.477.15Zm0 0-.478-.149.477.15Zm-.062.198.061-.198-.477-.148-.062.198.478.148Zm-.08.255.08-.255-.478-.148-.079.254.477.149Zm.149-.25-.337-.07-.1.49.336.07.1-.49Zm.48.086a7.722 7.722 0 0 1-.482-.086l-.098.49c.177.036.418.082.528.093l.051-.497Zm.174.02-.172-.02-.057.497.171.02.058-.497Zm-.424.02.172.34.446-.224-.171-.34-.447.224Zm1.041-.797-.343-.165-.217.45.343.166.217-.45Zm-.073.563.152-.172-.375-.331-.151.172.374.33Zm-.16.243a1.02 1.02 0 0 1 .16-.242l-.373-.333c-.1.11-.213.283-.257.406l.47.169Zm-.134.267c.036-.036.056-.078.06-.084a2.42 2.42 0 0 0 .075-.183l-.471-.17a1.92 1.92 0 0 1-.05.125l.002-.004.008-.012a.223.223 0 0 1 .023-.025l.353.353Zm-.855-1.171c0 .055.011.114.022.161.013.052.03.109.049.167a4.676 4.676 0 0 0 .299.692c.023.04.053.088.087.126.014.015.049.053.103.078a.26.26 0 0 0 .304-.062l-.372-.335a.24.24 0 0 1 .275-.058.21.21 0 0 1 .062.043l-.026-.042a4.191 4.191 0 0 1-.257-.599 1.664 1.664 0 0 1-.037-.126c-.01-.038-.01-.05-.01-.045h-.5Zm.877-.068a3.913 3.913 0 0 0-.443-.189.44.44 0 0 0-.202-.02.28.28 0 0 0-.232.277h.5a.22.22 0 0 1-.217.218l-.013-.001.017.004c.06.019.174.068.377.163l.213-.452Zm1.368.938c-.03 0-.233.014-.432.03l.04.499.275-.021.117-.008v-.5Zm-.912-.132c.173.106.378.248.53.364.078.059.136.106.168.137.02.018.017.018.008.004a.237.237 0 0 1-.038-.128.245.245 0 0 1 .219-.244l.05.498a.257.257 0 0 0 .23-.256.265.265 0 0 0-.05-.154.562.562 0 0 0-.079-.087 2.943 2.943 0 0 0-.205-.168 7.388 7.388 0 0 0-.573-.392l-.26.426Zm-.107-.098a.244.244 0 0 1-.092-.019c-.003 0-.003 0 .002.001l.043.024.152.091.264-.424a5.082 5.082 0 0 0-.231-.135.56.56 0 0 0-.055-.025c-.002 0-.038-.013-.083-.013v.5Zm.04.064a3.271 3.271 0 0 1 .112-.117l-.006.004-.022.015a.24.24 0 0 1-.124.034v-.5a.252.252 0 0 0-.157.054.435.435 0 0 0-.068.062l-.105.11.37.338Zm-.22.38a.836.836 0 0 1 .217-.378l-.365-.342c-.17.183-.303.41-.343.627l.491.092Zm-.02.103.02-.102-.491-.095-.02.102.491.095Zm.106-.277-.337-.02-.03.5.337.019.03-.5Zm.684-.01a7.249 7.249 0 0 1-.686.01l-.027.5c.198.01.532.003.745-.011l-.031-.499Z"/><path fill="#0091C8" d="M23.715 12.09v4.026H6.331v-4.273c.017.069.283.152.471.22.343.12.369.12.703-.102.453-.298.736-.29 1.25.034.77.486.976.495 1.208.069.17-.333.556-.333 1.216.008.282.145.573.256.66.256.076 0 .265-.136.41-.298.326-.375.514-.35 1.353.136.677.4.908.426.977.094.094-.418.171-.486.565-.486.24.008.6.11.968.281.317.154.642.273.702.273.068 0 .145-.12.18-.264a.697.697 0 0 1 .231-.384c.231-.145.471-.085 1.225.299.753.375.968.34.968-.162 0-.154.162-.256.41-.256.078 0 .395.153.711.35.685.408.874.408.934-.01.06-.425.343-.434 1.079-.05.548.298 1.163.418 1.163.24Z"/><path stroke="#fff" stroke-linecap="round" stroke-linejoin="round" stroke-width=".5" d="M6.395 11.99c.017.067.196.17.384.238.342.12.368.12.7-.102.454-.299.735-.29 1.248.034.769.486.974.494 1.204.068.171-.333.556-.333 1.213.008.282.145.573.256.658.256.077 0 .265-.136.41-.298.325-.375.513-.35 1.35.136.675.4.905.427.974.094.094-.418.17-.486.563-.486.24.009.598.11.966.281.316.154.64.273.7.273.068 0 .145-.12.18-.264a.697.697 0 0 1 .23-.384c.23-.145.47-.085 1.222.299.751.375.965.34.965-.162 0-.154.162-.256.41-.256.077 0 .393.153.709.35.683.409.871.409.93-.01.06-.425.343-.434 1.077-.05.547.298 1.06.4 1.06.221"/><path fill="#fff" fill-rule="evenodd" d="M18.406 15.628c-.236.159-.52.288-.626.288-.098 0-.407-.1-.667-.223l-.488-.231-.309.159c-.17.086-.406.194-.528.238-.13.05-.228.115-.228.144 0 .108.26.058.618-.13.398-.21.626-.195 1.016.043.537.347.708.333 1.301-.086.374-.267.634-.274 1.268-.029.472.173.529.18.773.087l.268-.101-.284-.008c-.155-.007-.52-.108-.797-.224-.285-.122-.602-.216-.7-.216-.097 0-.382.13-.617.289Zm-7.683.072c.398.282.642.274 1.024-.036.374-.303.472-.303 1.033-.072.487.202.674.216.934.093.163-.072.171-.072.066.044-.244.26-.39.274-.895.08-.553-.203-.666-.188-1.236.18-.187.115-.365.216-.398.216-.032 0-.252-.115-.48-.252-.455-.282-.634-.304-.992-.138-.138.058-.308.094-.382.065-.105-.036-.048-.086.228-.216.488-.231.732-.224 1.098.036Z" clip-rule="evenodd"/></g><rect width="23" height="17" x=".5" y=".5" stroke="#000" stroke-opacity=".1" rx="1.5"/><defs><clipPath id="a"><rect width="24" height="18" fill="#fff" rx="2"/></clipPath></defs></svg>