<svg xmlns="http://www.w3.org/2000/svg" fill="none" viewBox="0 0 24 18"><g clip-path="url(#a)"><mask id="b" width="24" height="18" x="0" y="0" maskUnits="userSpaceOnUse" style="mask-type:luminance"><path fill="#fff" d="M0 0h24v18H0z"/></mask><g mask="url(#b)"><path fill="#BF2714" fill-rule="evenodd" d="M0 0v18h24V0z" clip-rule="evenodd"/><mask id="c" width="24" height="18" x="0" y="0" maskUnits="userSpaceOnUse" style="mask-type:luminance"><path fill="#fff" fill-rule="evenodd" d="M0 0v18h24V0z" clip-rule="evenodd"/></mask><g mask="url(#c)"><path fill="#3D58DB" fill-rule="evenodd" d="M0-1.5V9h24V-1.5z" clip-rule="evenodd"/></g><path fill="#F7FCFF" fill-rule="evenodd" d="M0 0v18l13.5-9z" clip-rule="evenodd"/><mask id="d" width="14" height="18" x="0" y="0" maskUnits="userSpaceOnUse" style="mask-type:luminance"><path fill="#fff" fill-rule="evenodd" d="M0 0v18l13.5-9z" clip-rule="evenodd"/></mask><g fill="#FECA00" fill-rule="evenodd" clip-rule="evenodd" mask="url(#d)"><path d="m10.204 8.19.957.37.569-.67.015.895.88.287-.926.314.06.824-.61-.631-.96.183.567-.727zm-9 4.5.88.389.646-.69-.062.916.958.267-1.005.334.139.804-.7-.574-.87.126.489-.707zm0-9 .973.359.553-.66.031.886.865.297-.91.304.044.834-.606-.605-.964.157.583-.737zm4.887 7.21a1.875 1.875 0 1 0 0-3.75 1.875 1.875 0 0 0 0 3.75"/><path d="m5.87 6.18.1 1.204a.168.168 0 0 0 .332.006l.133-1.2.004-.043a.286.286 0 1 0-.57.033m-.314.582.155.524a.1.1 0 0 0 .118.069.084.084 0 0 0 .063-.1l-.125-.527a.12.12 0 0 0-.146-.087.097.097 0 0 0-.065.12m.842.546c-.012.044.014.09.064.104a.1.1 0 0 0 .115-.066l.174-.518a.097.097 0 0 0-.073-.126.12.12 0 0 0-.138.085zm1.558-.527-.839.926a.168.168 0 0 0 .231.239l1-.758a.286.286 0 1 0-.392-.407M7.7 8.746l1.251-.097a.286.286 0 1 1-.01.566l-1.247-.137a.168.168 0 0 1 .006-.332m.65 1.994-.973-.847a.168.168 0 0 0-.239.231l.804 1.009.028.032a.286.286 0 1 0 .38-.425m-2.012-.263.074 1.263a.286.286 0 1 1-.565-.01l.16-1.26a.168.168 0 0 1 .33.007m-1.973.682.826-1.005a.168.168 0 0 0-.231-.239l-.988.838-.033.027a.286.286 0 1 0 .426.38m.242-2.044-1.26.104a.286.286 0 1 1 .01-.566l1.256.13a.168.168 0 0 1-.006.332m-.745-1.973 1.068.826a.168.168 0 0 0 .239-.231l-.9-.988a.286.286 0 1 0-.407.393m3.141.312.26-.48a.097.097 0 0 1 .143-.033.12.12 0 0 1 .031.159l-.284.46a.084.084 0 0 1-.115.027.1.1 0 0 1-.035-.133m1.32.878-.525.155a.1.1 0 0 0-.069.118c.01.045.056.073.1.063l.527-.125a.12.12 0 0 0 .087-.146.097.097 0 0 0-.12-.065M7.63 9.78l.48.26a.097.097 0 0 1 .033.143.12.12 0 0 1-.159.031l-.46-.284a.084.084 0 0 1-.027-.115.1.1 0 0 1 .133-.035m-.877 1.32-.155-.524a.1.1 0 0 0-.118-.069.084.084 0 0 0-.063.1l.125.527a.12.12 0 0 0 .146.087.097.097 0 0 0 .065-.121m-1.448-.692-.26.48a.097.097 0 0 1-.142.033.12.12 0 0 1-.032-.159l.284-.46a.084.084 0 0 1 .115-.027.1.1 0 0 1 .035.133M3.986 9.53l.524-.155a.1.1 0 0 0 .069-.118.084.084 0 0 0-.1-.063l-.527.125a.12.12 0 0 0-.087.146c.016.051.07.08.121.065m.692-1.448-.48-.26a.097.097 0 0 1-.033-.143.12.12 0 0 1 .159-.031l.46.284c.039.024.05.076.027.115a.1.1 0 0 1-.133.035m2.796-.126c-.04.023-.054.074-.029.119a.1.1 0 0 0 .129.035l.49-.244a.097.097 0 0 0 .037-.14.12.12 0 0 0-.158-.038zm.2 1.282c.013-.05.059-.075.103-.063l.521.142a.12.12 0 0 1 .082.15.097.097 0 0 1-.123.06l-.518-.173a.1.1 0 0 1-.066-.116M7.13 10.25c-.023-.04-.074-.054-.119-.029a.1.1 0 0 0-.035.129l.244.49a.097.097 0 0 0 .14.037.12.12 0 0 0 .038-.158zm-1.282.2c.05.013.075.059.063.103l-.142.521a.12.12 0 0 1-.15.082.097.097 0 0 1-.06-.123l.173-.518a.1.1 0 0 1 .116-.066m-1.013-.544c.04-.023.054-.074.029-.119a.1.1 0 0 0-.129-.035l-.49.244a.097.097 0 0 0-.037.14.12.12 0 0 0 .158.038zm-.2-1.282c-.013.049-.059.075-.103.063l-.521-.142a.12.12 0 0 1-.082-.15.097.097 0 0 1 .123-.06l.518.173a.1.1 0 0 1 .066.116M5.18 7.61c.023.04.074.054.119.029a.1.1 0 0 0 .035-.129l-.244-.49a.097.097 0 0 0-.14-.037.12.12 0 0 0-.038.158z"/></g></g></g><rect width="23" height="17" x=".5" y=".5" stroke="#000" stroke-opacity=".1" rx="1.5"/><defs><clipPath id="a"><rect width="24" height="18" fill="#fff" rx="2"/></clipPath></defs></svg>