<svg xmlns="http://www.w3.org/2000/svg" fill="none" viewBox="0 0 24 18"><g clip-path="url(#a)"><mask id="b" width="24" height="18" x="0" y="0" maskUnits="userSpaceOnUse" style="mask-type:luminance"><path fill="#fff" d="M0 0h24v18H0z"/></mask><g mask="url(#b)"><path fill="#5DAA22" fill-rule="evenodd" d="M0 0v18h24V0z" clip-rule="evenodd"/><mask id="c" width="24" height="18" x="0" y="0" maskUnits="userSpaceOnUse" style="mask-type:luminance"><path fill="#fff" fill-rule="evenodd" d="M0 0v18h24V0z" clip-rule="evenodd"/></mask><g mask="url(#c)"><path fill="#F7FCFF" fill-rule="evenodd" d="M0 0v9h24V0z" clip-rule="evenodd"/><mask id="d" width="22" height="16" x="1.25" y="1.25" fill="#000" maskUnits="userSpaceOnUse"><path fill="#fff" d="M1.25 1.25h22v16h-22z"/><path fill-rule="evenodd" d="M11.019 6.68c-.014-.427-.027-.838.5-1.329 1.375-1.221 2.774-2.18 4.336-3.101-.316.564-.543 1.612.288 1.679.266.004 3.187-1.306 3.187-1.306-1.015.79-2.184 1.893-.827 2.37-1.245.414-2.277 1.756-1.373 2.837-.646-.196-1.494.249-1.647.75.16-.002.44.023.784.053 1.245.11 3.313.292 3.418-.423-.67.349-1.833.207-1.868-.795.01-.86 1.22-1.343 2.25-.699q.08-.173.158-.347l.16-.352-.136.018c-.325.045-.63.088-.973.003.794-.803 1.54-1.593 2.216-2.484-.149 1.11 0 2.719.258 3.245a1.6 1.6 0 0 1-.835-.773l-.183.606-.184.608c.591 1.28-.041 3.178-.375 4.18-.104.311-.18.536-.18.628-.27.11-.47-.06-.668-.23-.1-.085-.198-.17-.307-.22.17.474.05 1.222-.056 1.877-.04.246-.078.478-.097.678a.94.94 0 0 0 .15.59l.027.05c.162.067.536.25.562.275 0 0 .34.017.434.524-.227-.293-.536-.2-.536-.2l-.057.041-.06.043-.273-.174c-.301-.214-.608-.203-.936-.051a.47.47 0 0 1-.5.017c-.167-.194-.511-.057-.58-.03l-.013.005c-.007 0-.429.3-.429.3s-.101-.025-.109-.025c-.017 0-.28-.003-.624.232.092-.509.437-.5.437-.5-.021-.07.004-.086.03-.101q.02-.01.032-.03c.075-.09.208-.11.34-.13.066-.009.132-.019.19-.037-.14-.05-.406-.122-.594-.104-.09.009-.136.038-.175.062-.058.037-.1.062-.244-.008l.007-.025.008-.025c-.222-.02-.396-.03-.523.191-.011-.325.213-.418.395-.492l.073-.032c.085-.14.457-.135.445-.124a2 2 0 0 0-.17-.209c-.032-.037-.056-.063-.056-.066 0-.008-.288-.194-.492.017.04-.442.693-.448.757-.383l.192.2.19.199.177.119.183.123c.197.093.708.018.966-.275.15-.172.154-.493.156-.656l.001-.068c.012-.225 0-.48-.011-.694-.012-.245-.021-.437.011-.47-.172-.066-.264-.223-.305-.292q-.018-.031-.023-.033c-.094.02-.84.182-1.576-.033-.582-.17-1.17-.512-1.525-.719-.18-.104-.3-.174-.332-.171-.1.175-.149.216-.243.295-.04.034-.09.075-.155.137-.222.247-.143.662.03.857l.82.333c.625.039.774.42.765.79a19 19 0 0 1-.762-.277l-.08-.03c-.504.866-1.22 1.473-2.24 1.754.113.057.338.108.521.15.134.031.245.057.275.075.303.068.517.17.515.475-.203-.242-.4-.236-.562-.117-.215.097-.37-.012-.525-.12a1 1 0 0 0-.24-.138c-.215-.166-.426-.096-.616.008-.177-.123-.374-.092-.576-.06l-.126.02c-.305.032-.652.114-.804.298-.077.065-.12.005-.138-.022q-.008-.013-.01-.01c-.351-.122-.507.207-.507.207-.083-.38.097-.462.288-.516l-.39-.24q-.003-.017-.008-.029c-.008-.024-.01-.032.047-.046-.153-.105-.307-.025-.476.14.015-.347.417-.563.586-.448a.4.4 0 0 1 .506.032c.184.149.464.169.648.109a.61.61 0 0 0-.476-.383c-.201-.052-.434-.127-.366-.258-.124-.188-.302-.13-.5.025.07-.429.78-.454.89-.316.115.033.164.101.213.169q.035.052.083.097c.192.21.49.318.734.358.449-.054.902-.431 1.19-.67.108-.09.193-.161.245-.187 0 0-.298-.028-.32-.233-.094 0-.19-.14-.313-.319-.182-.264-.422-.614-.802-.721-.669-.19-2.224.401-2.453.488l-.029.011c-.04.377-.321.724-.321.724a3 3 0 0 0-.16-.345c-.112-.216-.217-.419-.206-.656-.302.419-.52.642-.739.866a9 9 0 0 0-.345.368c-.293.32-.443.698-.546 1.115.219.133.827.25.827.25.267.005.463.162.46.457-.237-.262-.476-.1-.476-.1-.194.173-.442.095-.679 0-.205-.233-.504-.367-.756-.166-.146.127-.254.1-.378.068a.6.6 0 0 0-.535.073c-.336.326-.802.356-.93.158 0 0-.21-.008-.577.124.094-.606.46-.398.46-.398l-.007-.1-.008-.091-.133-.05c-.236-.112-.53-.084-.662.033.09-.398.437-.4.694-.358a.5.5 0 0 0 .077-.178l.024-.071-.018-.02c-.136-.145-.255-.274-.427-.122.074-.75.934-.193 1.191-.027l.043.027c.554.199 1.998-2.068 2.068-2.226-.41-.02-.872.026-1.194.146-.092.297-.254.454-.445.637l-.096.094c.005-.855-.375-1.287-.92-1.907l-.093-.105c-.68-.476-.982-1.434-1.037-1.747-.104.292-.181.38-.204.407l-.007.009c-.152.175-.616.547-.554.308-.209-.053-.026-.239.078-.308.027-.006.07-.085.12-.175.071-.127.153-.275.216-.266l.132-1.306c-.08-.035-.116-.162-.163-.33a3 3 0 0 0-.118-.355c-.146-.346-.416-.722-.53-.755.362-.067.5.08.598.18.04.043.073.078.112.086.083.053.152.245.227.454.062.172.128.356.21.487-.139-.477-.068-.799.07-1.215a.65.65 0 0 0-.296-.574c.388-.01.572.37.62.468l.011.023c.167.23.098.42.043.57-.037.101-.067.185-.02.254.03-.023.053-.056.077-.09.048-.066.097-.132.182-.119.107-.124.187-.26.18-.54.268.164.202.404.116.64.016.353-.03.45-.25.574-.219.14-.26.255-.234.425.266.303.32 1.24.32 1.24a.51.51 0 0 1 .35.532.52.52 0 0 1 .524.374c.15-.15.36-.01.507.15.052-.083.162-.123.281-.075 0-.147.077-.239.203-.358-.303-.25.015-2.087.235-2.137-.071-.498.73-2.091.928-2.122 0-.008-.133-.333-.133-.333s-.635.102-.749.724c-.078-.13-.156-.324-.156-.324s-.553.723-.56.706c-.22-.142-.121-.49-.121-.49-.106-.124-.129-.27-.151-.416a2 2 0 0 0-.044-.217c-.298-.014-.522-.027-.745-.041s-.446-.028-.743-.041c0 0 .202.399.202.39-.21.004-1.243-.937-1.443-1.739.522.437 1.078.558 1.668.686l.025.005-.476.25c1.645.15 3.348-.175 3.34-.183-.184-.41-.788-.408-.788-.408l-.026.25-.415.124s-.336.008-.34 0c-.076-.416-.444-.424-.444-.424-.289-.04-.535-.009-.781.021q-.183.025-.374.037c.479-.64 1.108-.687 1.74-.735q.173-.014.344-.03c.054-.336.33-.434.655-.482l1.529.082c.196-.275.804-.39.804-.39.213-.114.546-.132.866-.132-.05.378-.521.792-.698.914-.18.29-.164.32-.096.449l.022.041.18.333c.303.1.524.237.592.45-.328-.043-.567.022-.562.174.005.075.12.123.226.166.05.02.098.04.131.062a.8.8 0 0 1 .26.588.7.7 0 0 1-.258-.097c-.178-.091-.356-.183-.468.055-.08.175.009.411.219.49.385.113.42.675.413.675l-.012-.006c-.089-.04-.628-.293-.59.222-.002.04-.026.068-.054.101-.051.06-.116.137-.094.323.043.36.1.736.125.816l.725-.157.743-.16c.213-.208.31-.552.289-.923.005-.11.001-.22-.002-.327m8.609.86c-.224-.253-.454-.34-.645-.337-.28.004-.48.2-.46.348.062.49.997.32 1.105-.01" clip-rule="evenodd"/></mask><path fill="#D21034" fill-rule="evenodd" d="M11.019 6.68c-.014-.427-.027-.838.5-1.329 1.375-1.221 2.774-2.18 4.336-3.101-.316.564-.543 1.612.288 1.679.266.004 3.187-1.306 3.187-1.306-1.015.79-2.184 1.893-.827 2.37-1.245.414-2.277 1.756-1.373 2.837-.646-.196-1.494.249-1.647.75.16-.002.44.023.784.053 1.245.11 3.313.292 3.418-.423-.67.349-1.833.207-1.868-.795.01-.86 1.22-1.343 2.25-.699q.08-.173.158-.347l.16-.352-.136.018c-.325.045-.63.088-.973.003.794-.803 1.54-1.593 2.216-2.484-.149 1.11 0 2.719.258 3.245a1.6 1.6 0 0 1-.835-.773l-.183.606-.184.608c.591 1.28-.041 3.178-.375 4.18-.104.311-.18.536-.18.628-.27.11-.47-.06-.668-.23-.1-.085-.198-.17-.307-.22.17.474.05 1.222-.056 1.877-.04.246-.078.478-.097.678a.94.94 0 0 0 .15.59l.027.05c.162.067.536.25.562.275 0 0 .34.017.434.524-.227-.293-.536-.2-.536-.2l-.057.041-.06.043-.273-.174c-.301-.214-.608-.203-.936-.051a.47.47 0 0 1-.5.017c-.167-.194-.511-.057-.58-.03l-.013.005c-.007 0-.429.3-.429.3s-.101-.025-.109-.025c-.017 0-.28-.003-.624.232.092-.509.437-.5.437-.5-.021-.07.004-.086.03-.101q.02-.01.032-.03c.075-.09.208-.11.34-.13.066-.009.132-.019.19-.037-.14-.05-.406-.122-.594-.104-.09.009-.136.038-.175.062-.058.037-.1.062-.244-.008l.007-.025.008-.025c-.222-.02-.396-.03-.523.191-.011-.325.213-.418.395-.492l.073-.032c.085-.14.457-.135.445-.124a2 2 0 0 0-.17-.209c-.032-.037-.056-.063-.056-.066 0-.008-.288-.194-.492.017.04-.442.693-.448.757-.383l.192.2.19.199.177.119.183.123c.197.093.708.018.966-.275.15-.172.154-.493.156-.656l.001-.068c.012-.225 0-.48-.011-.694-.012-.245-.021-.437.011-.47-.172-.066-.264-.223-.305-.292q-.018-.031-.023-.033c-.094.02-.84.182-1.576-.033-.582-.17-1.17-.512-1.525-.719-.18-.104-.3-.174-.332-.171-.1.175-.149.216-.243.295-.04.034-.09.075-.155.137-.222.247-.143.662.03.857l.82.333c.625.039.774.42.765.79a19 19 0 0 1-.762-.277l-.08-.03c-.504.866-1.22 1.473-2.24 1.754.113.057.338.108.521.15.134.031.245.057.275.075.303.068.517.17.515.475-.203-.242-.4-.236-.562-.117-.215.097-.37-.012-.525-.12a1 1 0 0 0-.24-.138c-.215-.166-.426-.096-.616.008-.177-.123-.374-.092-.576-.06l-.126.02c-.305.032-.652.114-.804.298-.077.065-.12.005-.138-.022q-.008-.013-.01-.01c-.351-.122-.507.207-.507.207-.083-.38.097-.462.288-.516l-.39-.24q-.003-.017-.008-.029c-.008-.024-.01-.032.047-.046-.153-.105-.307-.025-.476.14.015-.347.417-.563.586-.448a.4.4 0 0 1 .506.032c.184.149.464.169.648.109a.61.61 0 0 0-.476-.383c-.201-.052-.434-.127-.366-.258-.124-.188-.302-.13-.5.025.07-.429.78-.454.89-.316.115.033.164.101.213.169q.035.052.083.097c.192.21.49.318.734.358.449-.054.902-.431 1.19-.67.108-.09.193-.161.245-.187 0 0-.298-.028-.32-.233-.094 0-.19-.14-.313-.319-.182-.264-.422-.614-.802-.721-.669-.19-2.224.401-2.453.488l-.029.011c-.04.377-.321.724-.321.724a3 3 0 0 0-.16-.345c-.112-.216-.217-.419-.206-.656-.302.419-.52.642-.739.866a9 9 0 0 0-.345.368c-.293.32-.443.698-.546 1.115.219.133.827.25.827.25.267.005.463.162.46.457-.237-.262-.476-.1-.476-.1-.194.173-.442.095-.679 0-.205-.233-.504-.367-.756-.166-.146.127-.254.1-.378.068a.6.6 0 0 0-.535.073c-.336.326-.802.356-.93.158 0 0-.21-.008-.577.124.094-.606.46-.398.46-.398l-.007-.1-.008-.091-.133-.05c-.236-.112-.53-.084-.662.033.09-.398.437-.4.694-.358a.5.5 0 0 0 .077-.178l.024-.071-.018-.02c-.136-.145-.255-.274-.427-.122.074-.75.934-.193 1.191-.027l.043.027c.554.199 1.998-2.068 2.068-2.226-.41-.02-.872.026-1.194.146-.092.297-.254.454-.445.637l-.096.094c.005-.855-.375-1.287-.92-1.907l-.093-.105c-.68-.476-.982-1.434-1.037-1.747-.104.292-.181.38-.204.407l-.007.009c-.152.175-.616.547-.554.308-.209-.053-.026-.239.078-.308.027-.006.07-.085.12-.175.071-.127.153-.275.216-.266l.132-1.306c-.08-.035-.116-.162-.163-.33a3 3 0 0 0-.118-.355c-.146-.346-.416-.722-.53-.755.362-.067.5.08.598.18.04.043.073.078.112.086.083.053.152.245.227.454.062.172.128.356.21.487-.139-.477-.068-.799.07-1.215a.65.65 0 0 0-.296-.574c.388-.01.572.37.62.468l.011.023c.167.23.098.42.043.57-.037.101-.067.185-.02.254.03-.023.053-.056.077-.09.048-.066.097-.132.182-.119.107-.124.187-.26.18-.54.268.164.202.404.116.64.016.353-.03.45-.25.574-.219.14-.26.255-.234.425.266.303.32 1.24.32 1.24a.51.51 0 0 1 .35.532.52.52 0 0 1 .524.374c.15-.15.36-.01.507.15.052-.083.162-.123.281-.075 0-.147.077-.239.203-.358-.303-.25.015-2.087.235-2.137-.071-.498.73-2.091.928-2.122 0-.008-.133-.333-.133-.333s-.635.102-.749.724c-.078-.13-.156-.324-.156-.324s-.553.723-.56.706c-.22-.142-.121-.49-.121-.49-.106-.124-.129-.27-.151-.416a2 2 0 0 0-.044-.217c-.298-.014-.522-.027-.745-.041s-.446-.028-.743-.041c0 0 .202.399.202.39-.21.004-1.243-.937-1.443-1.739.522.437 1.078.558 1.668.686l.025.005-.476.25c1.645.15 3.348-.175 3.34-.183-.184-.41-.788-.408-.788-.408l-.026.25-.415.124s-.336.008-.34 0c-.076-.416-.444-.424-.444-.424-.289-.04-.535-.009-.781.021q-.183.025-.374.037c.479-.64 1.108-.687 1.74-.735q.173-.014.344-.03c.054-.336.33-.434.655-.482l1.529.082c.196-.275.804-.39.804-.39.213-.114.546-.132.866-.132-.05.378-.521.792-.698.914-.18.29-.164.32-.096.449l.022.041.18.333c.303.1.524.237.592.45-.328-.043-.567.022-.562.174.005.075.12.123.226.166.05.02.098.04.131.062a.8.8 0 0 1 .26.588.7.7 0 0 1-.258-.097c-.178-.091-.356-.183-.468.055-.08.175.009.411.219.49.385.113.42.675.413.675l-.012-.006c-.089-.04-.628-.293-.59.222-.002.04-.026.068-.054.101-.051.06-.116.137-.094.323.043.36.1.736.125.816l.725-.157.743-.16c.213-.208.31-.552.289-.923.005-.11.001-.22-.002-.327m8.609.86c-.224-.253-.454-.34-.645-.337-.28.004-.48.2-.46.348.062.49.997.32 1.105-.01" clip-rule="evenodd"/><path fill="#000" d="m11.52 5.351-.166-.187-.005.004zm-.501 1.33.25-.008zm4.836-4.431.218.122.454-.808-.799.47zm.288 1.679-.02.25h.016zm3.187-1.306.154.197-.256-.425zm-.827 2.37.079.238.694-.23-.69-.244zM17.13 7.83l-.072.24.802.243-.538-.643zm-1.647.75-.239-.073-.099.325.34-.003zm.784.053.022-.249zm3.418-.423.247.036.07-.484-.433.226zm-1.868-.795-.25-.003v.011zm2.25-.699-.132.212.242.15.118-.258zm.158-.347.228.102zm.16-.352.227.104.188-.411-.448.059zm-.136.018-.034-.247zm-.973.003-.178-.176-.308.312.426.106zm2.216-2.484.248.034.126-.94-.573.755zM21.75 6.8l-.09.233.595.228-.28-.571zm-.835-.773.226-.106-.276-.594-.19.627zm-.183.606-.24-.073zm-.184.608-.24-.072-.027.09.04.087zm-.375 4.18.237.078zm-.18.628.094.232.157-.063v-.169zm-.668-.23.162-.19zm-.307-.22.105-.226-.543-.25.203.562zm-.056 1.877-.247-.04zm-.097.678.249.024zm.15.59-.216.127zm.027.05-.233.089.038.101.1.041zm.562.275-.173.18.067.066.094.004zm.434.524-.198.153.444-.198zm-.536-.2-.072-.24-.04.013-.033.024zm-.057.041-.146-.203zm-.06.043-.134.21.142.091.137-.097zm-.273-.174-.144.204.01.006zm-.936-.051-.105-.227-.016.007-.014.01zm-.5.017-.19.163.032.036.042.022zm-.58-.03-.093-.232zm-.442.305-.06.243.112.027.093-.067zm-.109-.025-.002.25h.002zm0 0-.003.25zm-.624.232-.246-.045-.107.589.494-.338zm.437-.5-.007.25.346.01-.1-.331zm.03-.101.13.213zm.032-.03-.191-.162-.021.025-.014.03zm.34-.13.036.248zm.19-.037.076.238.71-.223-.701-.25zm-.594-.104-.024-.249zm-.175.062.132.213zm-.244-.008-.239-.075-.064.206.193.094zm.015-.05.238.075.092-.295-.307-.029zm-.523.191-.25.01.03.877.437-.762zm.395-.492.095.23zm.073-.032.103.228.071-.032.04-.066zm.445-.124-.212.132.157.251.221-.196zm-.17-.209-.188.165zm-.548-.05-.248-.021-.064.706.493-.51zm.757-.382.181-.173-.004-.004zm.192.2.18-.174zm.19.199-.18.172.019.02.022.015zm.177.119.14-.207zm.183.123-.14.207.016.01.017.009zm.966-.275-.188-.165zm.156-.656-.25-.002zm.001-.068-.25-.013zm-.011-.694.25-.012zm.011-.47.18.173.264-.273-.356-.134zm-.305-.292-.216.126zm-.023-.033v-.25h-.027l-.026.005zm-1.576-.033.07-.24zm-1.525-.719-.126.216zm-.332-.171-.024-.249-.129.013-.064.112zm-.243.295-.16-.191zm-.155.137-.172-.18-.007.006-.007.007zm.03.857-.186.167.039.043.054.022zm.82.333-.093.232.037.015.041.003zm.765.79-.076.238.318.102.008-.334zm-.762-.277.089-.234zm-.08-.03.088-.234-.198-.075-.106.183zm-2.24 1.754-.067-.24-.626.172.58.292zm.521.15-.056.244zm.275.075-.134.212.037.023.042.01zm.515.475-.191.16.435.518.006-.676zm-.562-.117.102.228.025-.01.022-.017zm-.525-.12-.143.204zm-.24-.138-.152.198.033.026.04.013zm-.616.008-.143.205.127.089.136-.075zm-.576-.06-.04-.246zm-.126.02.026.248h.006zm-.804.298.161.191.018-.014.014-.018zm-.138-.022-.205.142zm-.01-.01-.082.236.153.052.11-.117zm-.507.207-.244.053.156.715.314-.661zm.288-.516.068.241.547-.154-.484-.3zm-.39-.24-.246.041.019.111.096.06zm-.008-.029-.236.082zm.047-.046.062.242.537-.136-.458-.313zm-.476.14-.25-.011-.029.632.453-.442zm.586-.448-.14.206.15.103.144-.113zm.506.032-.166.187.01.008zm.648.109.077.238.241-.078-.081-.24zm-.476-.383-.062.242.022.006.024.002zm-.366-.258.222.115.067-.13-.08-.122zm-.5.025-.247-.04-.104.631.505-.394zm.89-.316-.196.156.05.063.077.022zm.213.169-.202.147zm.083.097.184-.168-.008-.01-.01-.008zm.734.358-.041.247.035.006.036-.005zm1.19-.67-.16-.192zm.245-.187.111.224.787-.39-.874-.083zm-.32-.233.25-.025-.024-.224-.224-.001zm-.313-.319-.206.142zm-.802-.721.068-.24zm-2.453.488.088.234zm-.029.011v-.25H8.9l-.023.224zm-.321.724-.234.088.153.41.275-.34zm-.16-.345-.223.115zm-.206-.656.25.012.041-.843-.494.685zm-.739.866-.179-.175zm-.345.368.185.168.003-.004zm-.546 1.115-.242-.06-.044.177.156.096zm.827.25-.047.245.021.004h.021zm.46.457-.185.168.43.473.005-.639zm-.476-.1-.14-.206-.013.009-.012.01zm-.679 0-.188.165.04.045.055.023zm-.756-.166-.156-.196-.008.007zm-.378.068.06-.242zm-.535.073-.128-.214-.025.015-.021.02zm-.93.158.211-.135-.07-.11-.13-.005zm-.577.124-.247-.038-.064.417.396-.143zm.46-.398-.122.217.41.234-.038-.471zm-.007-.1.249-.021zm-.008-.091.25-.02-.014-.159-.148-.056zm-.133-.05-.106.226.009.004.01.004zm-.662.033-.244-.056-.172.757.581-.514zm.694-.358-.04.247.14.023.091-.109zm.077-.178.239.075zm.024-.071.234.087.054-.145-.105-.113zm-.018-.02.183-.17zm-.427-.122-.249-.024-.062.633.477-.421zm1.191-.027-.136.21zm.043.027-.133.212.023.015.026.009zm2.068-2.226.229.102.148-.334-.365-.018zm-1.194.146-.087-.235-.116.043-.036.118zm-.445.637-.173-.18zm-.096.094-.25-.001-.004.605.43-.426zm-.92-1.907.187-.165zm-.093-.105.188-.165-.02-.022-.024-.018zM3.28 9.145l.246-.044-.163-.932-.318.891zm-.204.407-.189-.164zm-.007.009.189.163.06-.07v-.093zm-.554.308.242.063.064-.244-.245-.062zm.078-.308-.05-.245-.048.01-.04.027zm.12-.175.22.121zm.216-.266-.034.247.256.035.026-.257zm.132-1.306.249.026.018-.18-.165-.074zm-.163-.33.24-.068zm-.118-.355.23-.097zm-.53-.755-.045-.245-.024.486zm.598.18-.181.173zm.112.086.135-.21-.039-.025-.045-.01zm.227.454.236-.084zm.21.487-.212.133.452-.203zm.07-1.215.237.08.013-.039v-.04zm-.296-.574-.007-.25-.832.022.706.44zm.62.468.224-.11zm.011.023.203-.146-.01-.013-.01-.012zm.043.57.235.086zm-.02.254-.204.143.153.22.209-.169zm.077-.09.203.148zm.182-.119-.039.248.138.02.09-.105zm.18-.54.13-.213L4 5.905l.013.46zm.116.64-.235-.086-.017.047.002.05zm-.25.574-.123-.218-.01.007zm-.234.425-.247.038.01.072.049.054zm.32 1.24-.25.014.01.17.164.053zm.35.532-.248-.018-.022.295.295-.028zm.524.374-.245.05.094.456.328-.33zm.507.15-.185.17.224.243.173-.281zm.281-.075-.092.232.343.136v-.369zm.203-.358.172.181.205-.194-.218-.18zm.235-2.137.055.243.225-.051-.033-.228zM7.244 5.6l.038.247.212-.032V5.6zm-.133-.333.231-.094-.075-.184-.195.031zm-.749.724-.213.13.341.563.118-.648zm-.156-.324.232-.093-.163-.409-.267.35zm-.56.706.226-.106-.03-.065-.06-.039zm-.121-.49.24.068.037-.129-.087-.102zm-.151-.416-.247.038zM5.33 5.25l.238-.073-.051-.168-.176-.008zm-.745-.041.015-.25zm-.743-.041.011-.25-.429-.02.195.383zm.202.39h.25v-.255l-.254.005zM2.601 3.82l.16-.191-.588-.493.186.745zm1.668.686.053-.245zm.025.005.116.221.61-.32-.673-.145zm-.236.124.116.221zm-.24.126-.116-.221-.75.393.844.077zm3.34-.183-.228.102.017.039.029.03zM6.37 4.17v-.25h-.226l-.023.225zm-.026.25.071.24.16-.047.018-.167zm-.415.124.006.25.033-.001.032-.01zm-.34 0-.245.045.005.032.014.029zm-.444-.424-.034.248.014.002h.014zm-.781.021-.03-.248zm-.374.037-.2-.15-.319.427.532-.027zm1.74-.735-.019-.25zm.344-.03.026.248.19-.02.03-.188zm.655-.482.013-.25-.025-.001-.025.003zm1.529.082v.25h.129l.075-.105zm.804-.39.046.245.038-.007.033-.018zm.866-.132.248.032.037-.282h-.285zm-.698.914-.142-.206-.043.03-.028.044zm-.096.449.222-.117zm.022.041-.223.113.003.006zm.18.333-.22.119.047.087.094.031zm.592.45-.032.247.39.05-.12-.374zm-.562.174-.25.008v.006zm.226.166-.095.231zm.131.062.177-.177-.018-.018-.022-.014zm.26.588-.014.25.275.015-.011-.275zm-.258-.097-.115.223zm-.468.055L9.03 5.52l-.001.002zm.219.49-.089.234.01.004.008.002zm.4.67.106-.227zm-.588.221.25.014v-.016l-.001-.017zm-.055.101.19.162zm-.094.323-.248.03zm.125.816-.237.077.07.215.22-.048zm.725-.157-.053-.244zm.743-.16.052.244.07-.015.052-.05zm.289-.923-.25-.011v.025zm7.962.196.003.25zm.645.337.237.078.044-.136-.094-.107zm-1.105.011-.248.032zm-7.174-2.383c-.292.272-.448.536-.523.804-.073.26-.064.508-.057.716l.5-.015c-.007-.219-.01-.39.038-.566.047-.167.148-.354.383-.573zm4.38-3.133c-1.573.927-2.985 1.894-4.375 3.13l.332.373c1.36-1.208 2.744-2.157 4.296-3.073zm.434 1.645c-.15-.012-.222-.064-.263-.116a.5.5 0 0 1-.081-.294c-.006-.282.11-.64.254-.898l-.436-.244c-.172.307-.327.754-.318 1.154a1 1 0 0 0 .187.59c.14.18.352.285.617.306zm3.167-1.057-.102-.228h-.002l-.006.003-.025.011-.426.19c-.278.122-.65.286-1.03.449a41 41 0 0 1-1.077.446c-.154.06-.286.11-.385.143l-.117.036c-.036.01-.034.006-.013.006l-.008.5c.054 0 .11-.013.147-.022q.067-.017.15-.046c.111-.037.252-.09.409-.152a41 41 0 0 0 1.09-.452 104 104 0 0 0 1.371-.6l.093-.041.025-.011.006-.003.002-.001zm-.744 2.134c-.308-.108-.405-.229-.434-.309-.029-.081-.018-.207.092-.398.221-.386.728-.832 1.24-1.23l-.307-.395c-.504.392-1.09.893-1.367 1.376-.14.243-.23.532-.128.816.102.286.368.482.738.612zM17.322 7.67c-.373-.446-.353-.935-.095-1.384.266-.463.783-.866 1.355-1.055l-.158-.475c-.673.223-1.295.698-1.63 1.28-.343.596-.387 1.319.144 1.955zm-1.6.982c.048-.157.229-.35.508-.483.273-.13.58-.175.828-.1l.145-.478c-.4-.121-.838-.041-1.19.127-.344.165-.664.445-.769.789zm.567-.268c-.337-.03-.633-.056-.808-.055l.004.5c.144 0 .41.022.76.053zm3.148-.21c-.006.039-.04.112-.24.184-.192.069-.47.109-.805.123-.666.03-1.476-.041-2.103-.097l-.044.498c.618.055 1.464.13 2.17.099.35-.016.687-.058.951-.152.257-.092.52-.265.566-.583zm-1.87-.75c.01.3.108.552.27.747.162.193.376.317.602.387.444.137.97.077 1.361-.126l-.231-.444a1.37 1.37 0 0 1-.982.092.76.76 0 0 1-.366-.23.7.7 0 0 1-.154-.444zm2.633-.92c-.577-.36-1.215-.412-1.722-.239-.504.172-.905.584-.91 1.147l.5.005c.002-.296.21-.555.572-.679.359-.122.841-.093 1.295.19zm-.203-.238-.157.346.455.208.158-.349zm.16-.353-.16.353.456.205.159-.35zm.127.37.133-.019-.065-.495-.137.019zm-1.068-.003c.396.099.747.047 1.068.003l-.07-.495c-.329.045-.588.08-.877.007zm2.077-2.877c-.666.877-1.403 1.658-2.195 2.459l.356.351c.795-.804 1.551-1.604 2.237-2.507zm.681 3.286a2.3 2.3 0 0 1-.149-.511 7 7 0 0 1-.108-.803 8.8 8.8 0 0 1 .023-1.787l-.496-.067a9.3 9.3 0 0 0-.025 1.896c.026.31.065.604.115.858.05.248.113.473.192.634zm-1.286-.558c.203.437.606.76.973.901l.178-.467c-.26-.1-.556-.34-.698-.645zm.283.573.183-.606-.479-.145-.183.606zm-.184.609.184-.61-.479-.144-.183.609zm-.377 4.185c.166-.499.414-1.241.544-2.023.129-.776.148-1.631-.179-2.34l-.454.21c.264.571.263 1.305.14 2.048-.123.738-.358 1.445-.525 1.947zm-.166.55.007-.039q.01-.044.033-.122.046-.152.126-.389l-.474-.158c-.052.155-.098.293-.131.405-.03.1-.061.214-.061.303zm-1.081-.04c.093.08.219.19.364.257a.7.7 0 0 0 .56.015l-.186-.464a.19.19 0 0 1-.164-.006 1.2 1.2 0 0 1-.25-.182zm-.25-.182a1.2 1.2 0 0 1 .25.182l.324-.38c-.093-.08-.219-.19-.364-.256zm.295 1.689c.053-.325.112-.687.135-1.03.023-.336.014-.684-.09-.971l-.47.17c.067.186.083.449.061.768-.021.314-.076.653-.13.983zm-.094.662c.018-.19.054-.414.094-.662l-.493-.08c-.04.243-.079.484-.099.694zm.116.439a.7.7 0 0 1-.116-.44l-.498-.047c-.036.373.121.635.183.74zm.046.089c-.014-.037-.039-.077-.046-.09l-.43.255.013.023.001.002-.005-.013zm.501.183a.3.3 0 0 0-.046-.036 1 1 0 0 0-.086-.049l-.161-.081a7 7 0 0 0-.346-.16l-.191.463a7 7 0 0 1 .507.244l.005.003-.006-.005-.022-.018zm.507.66c-.058-.312-.2-.504-.355-.613a.7.7 0 0 0-.297-.115h-.009l-.004-.001h-.002l-.013.25-.012.25h-.002v-.001h-.009l.01.001q.017.004.052.026c.037.026.113.097.149.293zm-.782-.156.072.24h-.002l-.003.001h.001l.016-.003a.27.27 0 0 1 .254.115l.396-.305a.77.77 0 0 0-.794-.29l-.007.001-.003.001h-.001zm.09.244.055-.04-.29-.408-.058.042zm-.062.044.061-.044-.292-.406-.058.042zm-.552-.168.273.175.269-.422-.273-.174zm-.697-.034a.8.8 0 0 1 .365-.09.6.6 0 0 1 .322.118l.289-.408a1.07 1.07 0 0 0-.595-.209 1.3 1.3 0 0 0-.591.135zm-.721.011c.231.121.5.133.751-.028l-.27-.42c-.082.052-.158.053-.249.005zm-.372-.018a.8.8 0 0 1 .19-.053c.088-.01.107.012.109.013l.378-.327c-.166-.192-.402-.199-.545-.182-.15.017-.28.07-.317.084zm-.105.022a.3.3 0 0 0 .063-.008l.017-.005.025-.01-.185-.464-.005.002H17l.006-.003.016-.004.018-.004q.012-.004.043-.004zm-.429.05.145.203h.002l.003-.003.013-.01.048-.033.337-.236.006-.005h.002-.002l-.005.003-.018.009-.024.01c-.006.001-.037.012-.078.012v-.5c-.04 0-.071.01-.078.012a.3.3 0 0 0-.06.03l-.074.05-.343.241-.014.01-.003.002h-.001v.001zm-.109.225-.04-.004h.002l.005.002.033.008.035.008.01.002.004.001.06-.242.06-.243h-.001l-.004-.001-.012-.003-.037-.009-.074-.016s-.019-.003-.04-.003zm-.002 0 .004-.5zm-.481.188c.147-.1.271-.146.356-.168a1 1 0 0 1 .119-.02h.004l.006-.5c-.053 0-.37.004-.767.275zm.296-.705.007-.25h-.017a.4.4 0 0 0-.096.011.7.7 0 0 0-.21.086c-.166.103-.31.293-.367.607l.492.09c.035-.195.11-.254.14-.274a.14.14 0 0 1 .053-.02h.002-.01zm-.102-.315c-.003.002-.084.045-.128.138a.35.35 0 0 0-.01.249l.48-.144c-.004-.012.015.038-.016.105-.03.064-.085.091-.063.077zm-.062.076a.2.2 0 0 1 .05-.066c.011-.01.021-.016.012-.01l.263.425a.3.3 0 0 0 .127-.137zm.53-.27c-.062.01-.149.022-.23.047a.56.56 0 0 0-.265.168l.382.323c-.004.005-.002-.003.032-.014a1 1 0 0 1 .153-.029zm.152-.029a1 1 0 0 1-.153.03l.073.494c.062-.009.148-.021.23-.047zm-.495.384a1 1 0 0 1 .24.022c.095.02.185.047.245.068l.169-.47a2.4 2.4 0 0 0-.314-.088 1.4 1.4 0 0 0-.39-.03zm-.068.026.032-.018a.1.1 0 0 1 .036-.008l-.05-.498a.6.6 0 0 0-.282.099zm-.486.004a.56.56 0 0 0 .28.069c.107-.007.182-.058.206-.073l-.264-.425-.014.009q-.004.001.001-.001a.1.1 0 0 1 .04-.01l.018.001-.016-.005-.032-.015zm-.123-.32-.006.02.477.15.009-.03zm.009-.03-.009.03.48.14.006-.02zm-.067.39a.2.2 0 0 1 .043-.054.1.1 0 0 1 .029-.014.7.7 0 0 1 .21.002l.047-.498c-.103-.01-.247-.024-.383.012a.6.6 0 0 0-.38.304zm.083-.848c-.083.035-.23.092-.347.202a.67.67 0 0 0-.203.531l.5-.017c-.003-.095.024-.129.047-.15a.6.6 0 0 1 .193-.103zm.066-.028-.066.028.19.463.081-.035zm.713.29a.25.25 0 0 0 0-.375c-.048-.041-.1-.053-.1-.054-.025-.007-.047-.009-.054-.01l-.066-.002a1 1 0 0 0-.168.013 1 1 0 0 0-.21.055.46.46 0 0 0-.226.182l.427.259c-.02.032-.038.032-.012.022a.4.4 0 0 1 .093-.023 1 1 0 0 1 .1-.008h.014-.008a.2.2 0 0 1-.055-.017.25.25 0 0 1-.15-.23c0-.1.058-.162.083-.185zm-.524-.23c.063.072.127.145.146.176l.424-.265c-.047-.075-.147-.187-.195-.241zm-.118-.231c0 .062.024.107.025.11a.3.3 0 0 0 .05.073l.043.048.375-.33-.037-.043-.004-.005.01.013a.2.2 0 0 1 .026.058.3.3 0 0 1 .012.076zm-.061.19a.1.1 0 0 1 .035-.022.1.1 0 0 1 .054.002.3.3 0 0 1 .06.022l.012.006-.003-.002-.008-.006a.2.2 0 0 1-.049-.055.25.25 0 0 1-.04-.135h.5c0-.077-.035-.129-.04-.137a.3.3 0 0 0-.055-.06l-.03-.022-.06-.035a.8.8 0 0 0-.182-.064.58.58 0 0 0-.555.161zm.753-.733a.3.3 0 0 0-.1-.066.4.4 0 0 0-.073-.022 1 1 0 0 0-.138-.014 1.1 1.1 0 0 0-.32.04c-.218.06-.518.225-.551.6l.498.044c.005-.067.051-.125.186-.163a.6.6 0 0 1 .22-.018l-.012-.004a.2.2 0 0 1-.063-.043zm.195.203-.19-.199-.362.346.191.2zm.191.2-.191-.2-.36.347.19.198zm.136.085-.177-.12-.279.415.176.119zm.182.122-.182-.122-.28.414.183.123zm.639-.232a.73.73 0 0 1-.375.204.8.8 0 0 1-.2.023.3.3 0 0 1-.097-.013l-.213.452c.094.044.201.06.3.061q.157.003.325-.037a1.2 1.2 0 0 0 .635-.36zm.094-.493a2 2 0 0 1-.019.286.43.43 0 0 1-.075.207l.375.33a.9.9 0 0 0 .194-.456c.023-.143.024-.282.025-.362zm.002-.079-.002.079.5.005v-.057zm-.012-.669c.011.217.023.46.012.669l.499.027c.013-.24 0-.509-.011-.72zm.081-.656a.3.3 0 0 0-.069.118l-.016.076q-.008.066-.007.135c0 .09.005.207.011.327l.5-.024a7 7 0 0 1-.011-.302q0-.056.003-.07 0-.007-.003.009c-.002.006-.013.042-.048.078zm-.34.008c.037.065.168.3.432.4l.176-.468c-.08-.03-.134-.111-.177-.184zm.192.09a.25.25 0 0 1-.18-.078c-.013-.013-.02-.024-.02-.024l.007.012.432-.252a1 1 0 0 0-.051-.074.26.26 0 0 0-.188-.083zm-1.646-.042c.801.234 1.6.059 1.7.037l-.107-.489c-.089.02-.78.168-1.452-.028zm-1.58-.743c.351.205.964.562 1.58.743l.14-.48c-.548-.16-1.11-.486-1.47-.695zm-.183-.138c-.041.004-.07-.005-.074-.006l-.006-.002.049.025q.077.041.213.121l.251-.432a8 8 0 0 0-.229-.13 1 1 0 0 0-.146-.064.3.3 0 0 0-.106-.01zm-.107.238c.046-.038.097-.08.148-.14.052-.059.098-.128.152-.223l-.434-.248a1 1 0 0 1-.095.144 1 1 0 0 1-.091.084zm-.143.127c.06-.057.104-.094.143-.127l-.32-.383c-.042.034-.096.08-.167.147zm.046.51a.5.5 0 0 1-.102-.266c-.01-.11.018-.2.07-.258l-.372-.335a.83.83 0 0 0-.196.636c.018.205.098.41.226.555zm.727.266-.82-.332-.188.463.82.333zm.92 1.028c.005-.215-.034-.47-.198-.679-.169-.217-.438-.344-.801-.366l-.03.499c.26.016.378.099.437.175q.098.126.092.36zm-1.101-.05c.195.075.563.215.775.282l.152-.476a19 19 0 0 1-.75-.273zm-.08-.03.08.03.178-.467-.08-.03zm-2.085 1.762c1.09-.3 1.857-.952 2.39-1.87l-.432-.251c-.474.815-1.139 1.377-2.09 1.64zm.511-.334a7 7 0 0 1-.278-.068 1 1 0 0 1-.187-.062l-.225.447c.081.04.187.073.282.098.099.027.206.051.296.072zm.353.107a.4.4 0 0 0-.092-.041l-.078-.023-.183-.043-.112.487.216.054.004.001-.023-.012zm.63.688a.63.63 0 0 0-.237-.524c-.138-.11-.316-.161-.472-.197l-.11.488c.147.033.228.066.272.101.026.02.049.046.048.128zm-.662.082c.042-.031.067-.032.08-.03.016.002.065.016.142.107l.382-.322c-.126-.15-.277-.255-.452-.28a.6.6 0 0 0-.45.123zm-.817-.117c.07.05.178.127.303.17.14.047.298.05.467-.026l-.204-.456c-.046.02-.074.018-.103.008a.8.8 0 0 1-.176-.105zm-.176-.105a.8.8 0 0 1 .176.105l.287-.41c-.07-.049-.178-.127-.303-.169zm-.417-.01a.6.6 0 0 1 .202-.075.2.2 0 0 1 .142.046l.305-.396a.7.7 0 0 0-.494-.148c-.155.014-.29.078-.395.135zm-.657-.032c.22-.035.313-.038.394.018l.286-.41c-.272-.19-.575-.13-.759-.101zm-.133.02.133-.02-.079-.493-.118.017zm-.643.21a.5.5 0 0 1 .23-.128 2 2 0 0 1 .407-.081l-.052-.497a2.5 2.5 0 0 0-.512.103c-.161.054-.339.14-.459.285zm-.536-.039a.37.37 0 0 0 .148.131.3.3 0 0 0 .194.022.4.4 0 0 0 .162-.082l-.322-.382a.14.14 0 0 1 .06-.026.2.2 0 0 1 .114.013c.03.014.046.03.052.037s.008.01.003.003zm.377.019a.25.25 0 0 1-.292.052c-.045-.023-.071-.054-.074-.056l-.011-.015.41-.284q0-.004-.006-.01l-.018-.023c-.004-.004-.032-.037-.079-.06a.25.25 0 0 0-.294.053zm-.689.035.226.108v.001l-.001.001-.001.002.001-.002.01-.016a.2.2 0 0 1 .044-.048c.027-.022.065-.044.146-.016l.163-.473a.63.63 0 0 0-.623.1.7.7 0 0 0-.19.234v.002zm.22-.755a.7.7 0 0 0-.376.221c-.123.158-.138.362-.088.588l.488-.107a.5.5 0 0 1-.013-.147l.005-.021.002-.004s.005-.006.024-.016q.029-.014.094-.033zm-.453.212.39.24.262-.424-.39-.241zm-.113-.16c.003.008 0 0-.002-.01l.493-.085c-.006-.033-.016-.06-.018-.068zm.222-.37-.067.021a.3.3 0 0 0-.115.084.26.26 0 0 0-.046.247l.006.019.473-.164c-.005-.014.004.01.007.037a.23.23 0 0 1-.05.175c-.037.046-.08.063-.084.065q-.016.005-.001 0zm-.24.562a.5.5 0 0 1 .151-.115q.014-.002.005-.002c-.005 0-.005-.002.004.004l.282-.413a.5.5 0 0 0-.456-.06.95.95 0 0 0-.336.228zm.551-.834a.47.47 0 0 0-.34-.068.7.7 0 0 0-.29.118.77.77 0 0 0-.346.594l.5.022a.27.27 0 0 1 .125-.2.2.2 0 0 1 .089-.04c.022-.003.008.006-.019-.013zm.533.053a.65.65 0 0 0-.828-.043l.31.393a.13.13 0 0 1 .077-.02q.054-.002.108.043zm.404.057a.49.49 0 0 1-.414-.065l-.314.389c.263.212.634.232.882.152zm-.415.105c.013 0 .068.015.133.06.06.044.104.098.122.153l.474-.16a.82.82 0 0 0-.306-.399.8.8 0 0 0-.39-.153zm-.572-.623a.34.34 0 0 0 .007.33.46.46 0 0 0 .176.162c.106.06.244.098.342.123l.126-.484a2 2 0 0 1-.135-.039 1 1 0 0 1-.09-.037c-.024-.012-.006-.009.012.022a.17.17 0 0 1 .006.153zm-.124.337a1 1 0 0 1 .106-.07.2.2 0 0 1 .048-.02s-.01 0-.022-.005c-.011-.006-.008-.008.005.01l.418-.274a.5.5 0 0 0-.2-.184.46.46 0 0 0-.262-.043.9.9 0 0 0-.4.192zm.931-.668a.4.4 0 0 0-.171-.121.7.7 0 0 0-.169-.04 1.1 1.1 0 0 0-.367.017c-.235.05-.564.206-.625.574l.494.082c.01-.06.07-.132.235-.167a.6.6 0 0 1 .201-.01.2.2 0 0 1 .05.01c.01.004-.014-.002-.04-.034zm.22.177c-.052-.072-.144-.204-.347-.262l-.137.48c.02.006.027.012.033.018.01.009.02.021.047.058zm.048.058a.4.4 0 0 1-.047-.058l-.405.294c.023.031.062.087.118.137zm.607.297c-.217-.035-.451-.128-.59-.28l-.368.338c.244.268.605.39.877.436zm.99-.615c-.145.12-.319.264-.51.385-.192.123-.38.208-.55.229l.06.496c.278-.033.541-.164.76-.303.22-.14.417-.304.56-.423zm.294-.219a1 1 0 0 0-.144.096q-.069.054-.15.123l.32.384a6 6 0 0 1 .182-.145l.014-.01zm-.457.017c.025.24.213.353.319.398a.8.8 0 0 0 .224.058h.001l.024-.249.024-.249h.001-.003l-.018-.003a.3.3 0 0 1-.059-.018c-.049-.02-.02-.024-.016.011zm-.271-.203c.058.084.123.179.187.25.053.06.166.176.331.177l.003-.5c.04 0 .062.015.064.016l-.025-.025a2 2 0 0 1-.148-.202zm-.665-.623c.28.08.472.342.665.623l.412-.284c-.17-.248-.458-.683-.94-.82zm-2.296.482c.114-.043.55-.209 1.039-.34.244-.066.496-.122.723-.15.234-.029.416-.025.534.008l.137-.48c-.216-.062-.479-.056-.732-.024-.26.032-.536.094-.793.163-.513.138-.97.312-1.085.356zm-.117.027c.027 0 .047-.005.05-.005l.016-.004.02-.006.01-.004.021-.008-.177-.467-.02.007h-.002l.006-.001.011-.003a.3.3 0 0 1 .065-.009zm-.321.474.194.158.001-.001.001-.002.004-.004.05-.067a3 3 0 0 0 .114-.182 1.6 1.6 0 0 0 .206-.6l-.497-.052c-.015.14-.077.286-.145.407a2 2 0 0 1-.121.185l-.002.001zm-.383-.23c.058.112.11.212.149.318l.468-.175c-.051-.139-.117-.265-.173-.372zm-.232-.783c-.016.315.126.578.232.783l.444-.23c-.117-.227-.185-.37-.177-.529zm-.311 1.053c.221-.227.45-.461.763-.895l-.406-.292c-.29.403-.5.617-.715.837zm-.336.357c.117-.134.224-.243.336-.357l-.358-.35c-.11.114-.227.232-.354.378zm-.491 1.01c.098-.396.234-.728.488-1.006l-.37-.337c-.332.364-.496.787-.603 1.224zm.584.19.047-.245-.005-.001-.019-.004a8 8 0 0 1-.292-.067 2 2 0 0 1-.427-.146l-.261.427c.146.09.39.16.564.204a7 7 0 0 0 .346.078zm.71.46a.7.7 0 0 0-.208-.522.74.74 0 0 0-.496-.187l-.01.5c.086.001.137.027.164.052.024.022.051.064.05.153zm-.726-.102.14.207v.001l-.002.001-.004.003h.001l.004-.003a.1.1 0 0 1 .032-.008c.013 0 .055-.005.12.067l.37-.336a.64.64 0 0 0-.534-.229.6.6 0 0 0-.256.083l-.006.005-.003.001-.001.001zm-.772.232c.119.048.27.105.427.118a.66.66 0 0 0 .511-.162l-.331-.375c-.036.031-.074.044-.138.039a1 1 0 0 1-.283-.084zm-.508-.202a.18.18 0 0 1 .172-.035c.072.02.16.078.241.17l.376-.33a1.04 1.04 0 0 0-.48-.321.67.67 0 0 0-.62.124zm-.594.115c.054.014.153.041.263.032a.6.6 0 0 0 .34-.154l-.328-.378a.2.2 0 0 1-.043.03l-.011.004-.028-.003-.071-.016zm-.346.045a.4.4 0 0 1 .193-.069.5.5 0 0 1 .153.024l.122-.485c-.066-.017-.172-.045-.3-.038a.9.9 0 0 0-.424.139zm-1.268.078c.143.223.422.258.63.23.229-.03.478-.144.684-.343l-.348-.359a.74.74 0 0 1-.402.207c-.14.019-.159-.03-.143-.005zm-.282.225c.168-.06.296-.088.378-.1a1 1 0 0 1 .09-.01h.018-.002l.009-.25.01-.25h-.022l-.04.001a1 1 0 0 0-.136.014 2.5 2.5 0 0 0-.475.124zm.376-.634.123-.218-.002-.001-.004-.002-.008-.004a1 1 0 0 0-.1-.039.5.5 0 0 0-.26-.008c-.247.057-.402.281-.457.632l.494.077c.04-.256.115-.23.075-.222l.013.003.006.001h-.001l-.002-.001zm-.258-.08.009.1.498-.04-.008-.101zm-.007-.091.007.092.499-.042-.008-.09zm.028.164.133.05.176-.469-.133-.05zm-.409-.014c.01-.009.056-.034.143-.04a.5.5 0 0 1 .248.046l.213-.452a1 1 0 0 0-.493-.093.74.74 0 0 0-.442.164zm.57-.792a1.1 1.1 0 0 0-.533.025c-.213.073-.382.243-.446.524l.487.111a.26.26 0 0 1 .054-.119.16.16 0 0 1 .069-.044.6.6 0 0 1 .288-.003zm-.202-.006a1 1 0 0 1-.036.099l.006-.008.382.323a.5.5 0 0 0 .085-.147c.016-.042.03-.086.04-.117zm.028-.083-.028.083.477.15.02-.06zm.033.237.018.02.366-.34-.018-.02zm-.078-.104c.02-.018.02-.011 0-.008a.1.1 0 0 1-.043-.003q0-.002.009.006l.026.022c.024.022.05.05.086.087l.366-.34c-.056-.06-.155-.173-.279-.23a.42.42 0 0 0-.257-.033.5.5 0 0 0-.24.124zm1.16-.425c-.12-.079-.434-.284-.737-.362-.15-.038-.348-.06-.525.035-.195.104-.29.303-.313.54l.498.049a.3.3 0 0 1 .032-.127q.013-.022.018-.02c.012-.008.059-.02.166.007.21.055.455.21.59.298zm.04.025-.04-.025-.27.42.045.03zm1.708-2.116-.017.03-.054.09a13 13 0 0 1-.75 1.075c-.217.277-.44.532-.636.703q-.15.128-.244.172c-.066.03-.075.016-.055.023l-.168.47a.57.57 0 0 0 .435-.04 1.6 1.6 0 0 0 .36-.248 6 6 0 0 0 .701-.772 14 14 0 0 0 .783-1.12 2 2 0 0 0 .102-.179zm-.88.482c.28-.104.704-.149 1.096-.13l.024-.5c-.43-.02-.928.026-1.293.161zm-.357.583c.19-.184.398-.379.51-.744l-.478-.147c-.07.23-.189.348-.379.531zm-.094.092.094-.092-.347-.36-.1.097zm-1.284-1.92c.546.621.862.989.858 1.74l.5.004c.005-.96-.44-1.456-.983-2.074zm-.093-.105.093.105.375-.33-.092-.105zm-1.095-1.87c.031.181.128.522.306.881.177.358.446.758.834 1.03l.287-.41c-.293-.205-.516-.523-.673-.841a3 3 0 0 1-.262-.746zm.23.529c.046-.053.138-.17.251-.487l-.47-.169a2 2 0 0 1-.115.264c-.025.044-.04.06-.043.064zm.055-.155a.25.25 0 0 1-.05.15l-.005.005-.377-.328-.015.017-.022.034a.25.25 0 0 0-.031.122zm-1.046.245a.33.33 0 0 0 .025.25c.078.137.22.146.283.139a.5.5 0 0 0 .153-.048q.06-.03.117-.069a2.3 2.3 0 0 0 .407-.354l-.378-.326a2 2 0 0 1-.307.264l-.06.036c-.018.01-.01.002.015 0a.22.22 0 0 1 .204.11c.045.078.02.143.025.124zm.182-.453a.76.76 0 0 0-.24.252.35.35 0 0 0-.021.299.37.37 0 0 0 .26.207l.122-.485c-.018-.004.047.007.08.087a.2.2 0 0 1 .012.092q-.008.03-.01.033-.002 0 .025-.029a.4.4 0 0 1 .048-.04zm.04-.088-.06.104q-.012.016-.004.008l.024-.022a.2.2 0 0 1 .088-.039l.1.49c.093-.02.147-.082.159-.095l.053-.07c.026-.04.054-.091.077-.134zm.467-.393a.32.32 0 0 0-.244.076.6.6 0 0 0-.097.109 2 2 0 0 0-.126.208l.437.242q.056-.102.095-.16c.014-.019.018-.02.012-.015A.2.2 0 0 1 3 9.354a.2.2 0 0 1-.106.013zm-.15-1.083L2.68 9.094l.497.05.133-1.304zm-.155-.237c.022.078.048.17.081.247a.45.45 0 0 0 .222.244l.203-.457a.1.1 0 0 1 .042.03L3.196 7.6a2 2 0 0 1-.058-.183zm-.108-.326c.047.11.078.219.108.326l.481-.136c-.03-.105-.068-.241-.128-.384zm-.368-.611c-.029-.009-.04-.02-.033-.014l.032.03q.049.05.119.147c.09.129.185.293.25.448l.461-.194a3 3 0 0 0-.303-.543 2 2 0 0 0-.167-.205 1 1 0 0 0-.09-.081.4.4 0 0 0-.131-.069zm.848-.233c-.048-.05-.137-.146-.28-.21a.9.9 0 0 0-.544-.043l.09.491c.142-.026.214-.007.252.01.042.019.07.046.12.097zm-.018.014q.029.006.041.014l.012.008-.01-.01-.025-.026-.362.345c.017.019.046.05.078.076a.4.4 0 0 0 .164.082zm.412.614c-.037-.102-.077-.213-.119-.306a1 1 0 0 0-.076-.14.5.5 0 0 0-.133-.134l-.27.421c-.02-.013-.022-.023-.012-.007l.036.069q.046.104.103.266zm.186.438a2.5 2.5 0 0 1-.186-.438l-.471.169c.059.163.134.376.233.535zm-.38-1.16c-.145.437-.231.816-.072 1.363l.48-.14c-.118-.407-.064-.671.067-1.066zm-.19-.284c.118.075.178.202.178.362h.5c0-.289-.116-.6-.414-.786zm.976.147c-.025-.052-.096-.202-.226-.338a.82.82 0 0 0-.625-.27l.013.5a.32.32 0 0 1 .25.115.8.8 0 0 1 .139.211zm-.03-.039a.3.3 0 0 1 .036.05l-.002-.004-.004-.007-.45.218.01.02.01.017c0 .002.013.024.035.047zm.095.827c.026-.071.072-.192.077-.332a.75.75 0 0 0-.152-.47l-.405.292c.05.071.058.122.057.16a.6.6 0 0 1-.047.18zm-.049.025q.015.022.019.046l.001.019L4.058 7l.022-.062-.47-.17a1 1 0 0 0-.054.187.4.4 0 0 0 .065.294zm-.33-.093-.028.036q-.01.01-.004.005l.314.39c.059-.049.102-.111.122-.137zm.421-.22a.38.38 0 0 0-.3.083c-.06.048-.103.11-.122.137l.405.294.027-.037q.01-.01.004-.005a.13.13 0 0 1-.09.023zm-.109-.285a.6.6 0 0 1-.03.231.5.5 0 0 1-.09.139l.38.325a1 1 0 0 0 .177-.284c.047-.122.068-.26.063-.426zm.602.718c.042-.115.1-.28.09-.447a.6.6 0 0 0-.312-.492l-.26.427c.04.024.055.043.061.053s.01.02.011.04a.7.7 0 0 1-.06.247zm-.36.705a.7.7 0 0 0 .317-.317c.063-.143.066-.309.058-.485l-.5.022c.008.177-.004.236-.015.26-.004.01-.013.032-.108.086zm-.112.17c-.009-.057-.001-.07 0-.072.006-.01.028-.045.121-.104l-.267-.422a.8.8 0 0 0-.298.298.6.6 0 0 0-.05.376zm.073 1.277.25-.014v-.004l-.003-.042a5 5 0 0 0-.06-.488 3 3 0 0 0-.107-.447 1.2 1.2 0 0 0-.212-.41l-.376.33a.7.7 0 0 1 .113.235c.037.115.066.247.089.377a5 5 0 0 1 .056.47v.007zm.6.552a.76.76 0 0 0-.523-.79l-.153.476c.13.042.186.16.178.277zm.52.305a.73.73 0 0 0-.274-.415.74.74 0 0 0-.519-.158l.048.498a.24.24 0 0 1 .165.056.24.24 0 0 1 .09.12zm.445.032a1 1 0 0 0-.342-.255.5.5 0 0 0-.258-.037.46.46 0 0 0-.268.133l.354.354s-.009.007-.024.009c-.01.001-.01-.002.008.005a.5.5 0 0 1 .161.128zm.19-.14a.47.47 0 0 0-.587.177l.425.263a.05.05 0 0 1-.026.021c-.01.003-.01 0 .003.004zm-.062-.306c-.128.121-.281.278-.28.54l.5-.002c0-.023.004-.037.016-.056a.7.7 0 0 1 .108-.12zm.35-2.2a.33.33 0 0 0-.173.108.6.6 0 0 0-.077.115c-.04.076-.074.17-.104.267-.061.2-.114.455-.15.713a4.3 4.3 0 0 0-.046.757c.005.113.018.225.045.324a.56.56 0 0 0 .168.29l.318-.386c.023.019.012.025-.003-.033a1 1 0 0 1-.028-.218 4 4 0 0 1 .041-.665 4 4 0 0 1 .133-.636q.04-.127.069-.18l.01-.018c-.001 0-.03.035-.09.05zm.947-2.125a.35.35 0 0 0-.163.076 1 1 0 0 0-.089.088c-.052.06-.106.139-.16.224-.11.173-.23.4-.342.64a6 6 0 0 0-.288.73c-.068.22-.122.46-.096.646l.495-.07c-.009-.064.01-.21.079-.428a6 6 0 0 1 .263-.668 6 6 0 0 1 .311-.583 1.5 1.5 0 0 1 .135-.184l.006-.006-.016.01a.2.2 0 0 1-.06.02zm-.095-.086-.231.095.005.014.015.036.104.26.002.004-.003-.007L7 5.656c0-.001-.006-.025-.006-.055h.5a.3.3 0 0 0-.022-.105 3 3 0 0 0-.063-.158l-.046-.113-.015-.037-.004-.01-.001-.003v-.001zm-.503.769a.6.6 0 0 1 .3-.426 1 1 0 0 1 .244-.096H7.15a29 29 0 0 1-.08-.494h-.002l-.003.001-.038.008-.093.025a1.4 1.4 0 0 0-.284.127c-.217.13-.462.364-.535.765zm-.402-.37-.232.094.001.003.014.033.038.087c.03.068.074.16.122.237l.427-.259a2 2 0 0 1-.135-.28l-.002-.006v-.001zm-.787.814a.25.25 0 0 0 .288.136c.046-.011.077-.033.083-.037a1 1 0 0 0 .07-.066l.07-.086a19 19 0 0 0 .388-.495l.063-.082.018-.023.004-.006.001-.002-.198-.152-.198-.152-.002.002-.004.006-.018.023-.442.567-.059.07-.005.006.028-.022a.25.25 0 0 1 .366.1zm.106-.597-.24-.068-.001.002v.002l-.018.08a1 1 0 0 0-.013.183c.004.136.044.363.257.501l.271-.42c-.006-.004-.026-.021-.028-.095a.5.5 0 0 1 .013-.118v.001zm-.398-.378c.02.137.049.355.208.54l.38-.325c-.053-.061-.07-.136-.094-.291zm-.036-.18c.015.049.024.104.036.18l.494-.076a2 2 0 0 0-.053-.252zm-.521.133c.223.014.448.028.748.042l.023-.5a45 45 0 0 1-.74-.04zm-.74-.04c.296.013.517.027.74.04l.03-.499c-.223-.013-.447-.027-.747-.041zm-.036.14a.25.25 0 0 1 .39-.207c.026.017.042.036.046.04l.026.035-.001-.002-.02-.04-.139-.268-.023-.045-.006-.012-.002-.004-.223.113-.223.113v.001l.002.003.007.013.023.045.177.341.016.024.014.017a.25.25 0 0 0 .436-.167zM2.36 3.881c.115.462.457.936.776 1.28.162.177.328.329.47.439q.107.083.204.138a.5.5 0 0 0 .24.071l-.01-.5c.046 0 .058.016.012-.01a1 1 0 0 1-.14-.095 3.5 3.5 0 0 1-.409-.382c-.3-.325-.573-.723-.658-1.062zm1.963.38c-.595-.129-1.091-.24-1.56-.632l-.321.383c.575.482 1.19.61 1.775.738zm.025.006-.025-.006-.106.489.025.005zm-.173.59.236-.125-.232-.442-.237.124zm-.24.125.24-.126-.233-.442-.239.126zm3.042-.233a.4.4 0 0 1-.066-.141.4.4 0 0 1 .025-.144.23.23 0 0 1 .079-.09c.025-.018.048-.027.05-.028l.022-.007h-.001l-.048.01-.206.035c-.18.029-.438.065-.748.096a12 12 0 0 1-2.242.032l-.045.498c.844.077 1.698.032 2.337-.032a14 14 0 0 0 .998-.138l.09-.02q.006 0 .029-.01c.003 0 .026-.01.052-.028.008-.006.05-.035.078-.09a.4.4 0 0 0 .026-.144.4.4 0 0 0-.066-.142zM6.37 4.17v.25h.015l.056.005a1 1 0 0 1 .184.036c.146.042.257.113.305.22l.456-.206c-.137-.303-.42-.436-.621-.494a1.6 1.6 0 0 0-.391-.06H6.37zm.223.276.026-.25-.498-.051-.026.25zM6 4.784l.415-.123-.142-.48-.415.123zm-.637-.134a.25.25 0 0 0 .195.143l.033.003.05.001a6 6 0 0 0 .28-.003h.014l-.006-.25-.006-.25h-.014l-.29.003h.01l.033.008a.25.25 0 0 1 .154.133zm-.218-.53-.006.25h-.005.002l.018.003q.029.004.067.024c.041.022.1.066.123.192l.491-.09a.74.74 0 0 0-.672-.628H5.15zm-.75.27c.247-.031.463-.057.716-.022l.068-.495c-.325-.045-.601-.01-.846.02zm-.392.038c.138-.007.27-.023.392-.038l-.062-.497c-.124.016-.238.03-.355.035zM5.71 3.193c-.624.048-1.367.095-1.921.835l.4.3c.404-.54.92-.588 1.559-.636zm.336-.029q-.164.016-.336.03l.038.498q.173-.013.351-.03zm.645-.48a1.4 1.4 0 0 0-.524.167.73.73 0 0 0-.341.522l.493.08c.016-.095.055-.141.112-.177a.9.9 0 0 1 .333-.098zm1.566.08-.754-.042-.524-.028-.172-.01-.049-.002h-.012l-.004-.001-.014.25-.014.25h.017l.049.003.172.01.524.028.78.041zm.804-.141-.047-.246h-.003l-.03.007a2.5 2.5 0 0 0-.642.236.9.9 0 0 0-.286.248l.408.29a.4.4 0 0 1 .13-.106c.067-.04.146-.074.225-.102a2 2 0 0 1 .287-.08l.004-.002zm.866-.382a4 4 0 0 0-.504.025c-.163.02-.334.058-.48.136l.235.441a.9.9 0 0 1 .307-.08c.134-.018.285-.022.442-.022zm-.556 1.37a2.7 2.7 0 0 0 .442-.402c.154-.174.327-.42.362-.686l-.496-.065c-.015.112-.102.263-.241.42-.132.15-.28.271-.351.321zm-.016.126-.02-.036-.003-.008a.1.1 0 0 1 .003.037c-.001.006 0-.004.017-.04a2 2 0 0 1 .09-.153l-.426-.264c-.084.136-.155.258-.174.375-.026.155.041.268.07.322zm.023.045-.023-.045-.443.233.02.038zm.176.327-.179-.332-.44.237.18.333zm.61.492c-.108-.337-.44-.508-.752-.61l-.156.474c.295.097.405.201.433.29zm-.549.242a.12.12 0 0 1-.034.089c-.012.012-.015.008.012 0a.8.8 0 0 1 .302-.007l.064-.496a1.3 1.3 0 0 0-.51.023c-.136.041-.342.158-.334.408zm.07-.056-.112-.052c-.01-.006-.004-.004.007.009a.16.16 0 0 1 .035.093l-.5.03c.01.168.14.259.192.292.065.04.142.07.189.09zm.174.084c-.057-.038-.132-.067-.174-.084l-.19.462.084.036.006.004zm.373.787a1.1 1.1 0 0 0-.083-.4 1.1 1.1 0 0 0-.25-.355l-.353.354a.6.6 0 0 1 .144.198.6.6 0 0 1 .042.223zm-.623.136c.073.037.214.115.359.123l.028-.499-.01-.002-.035-.012-.113-.055zm-.127-.062c.015-.032.022-.03.008-.02a.1.1 0 0 1-.04.013l.012.002.034.012c.032.013.066.03.113.055l.23-.445c-.073-.037-.214-.115-.36-.124a.43.43 0 0 0-.266.071.54.54 0 0 0-.183.224zm.08.15a.13.13 0 0 1-.075-.072.1.1 0 0 1-.004-.08l-.454-.208c-.143.311.017.7.357.828zm.326 1.159a.25.25 0 0 0 .235-.164c.009-.026.012-.047.013-.053a.3.3 0 0 0 .002-.073l-.01-.087a1.4 1.4 0 0 0-.064-.254c-.067-.182-.212-.444-.52-.534l-.14.48q.119.034.19.225a1 1 0 0 1 .044.201V6.78l.003-.025a.25.25 0 0 1 .247-.214zm-.118-.029.023.01.017.007a.3.3 0 0 0 .078.012v-.5a.3.3 0 0 1 .097.02h.002-.001l-.005-.002zm-.234-.024c-.007-.092.017-.089-.006-.065s-.04.014-.003.015q.053.001.133.029c.049.017.09.035.11.045l.211-.453a1.2 1.2 0 0 0-.44-.121.5.5 0 0 0-.371.138c-.116.12-.145.285-.133.45zm-.114.282c.017-.02.107-.111.114-.249l-.499-.028a.2.2 0 0 1 .019-.064q.004-.005 0 0l-.014.017zm-.036.131c-.007-.059.002-.081.004-.086a.2.2 0 0 1 .032-.045l-.38-.324c-.026.03-.08.091-.117.184a.7.7 0 0 0-.035.33zm.115.768-.005-.02-.011-.058-.03-.185a16 16 0 0 1-.069-.505l-.496.06c.021.182.047.369.07.52.021.141.045.279.066.343zm.434-.323-.724.156.105.49.725-.157zm.743-.16-.743.16.106.489.742-.16zm.092-.665c.019.329-.07.59-.214.73l.349.358c.284-.276.388-.704.364-1.116zm-.002-.333c.003.11.006.208.002.308l.5.023c.005-.123.001-.24-.002-.346zm8.217.765c.107-.001.27.044.454.253l.375-.331c-.264-.298-.56-.426-.836-.422zm-.215.066c.003.025-.005.037-.002.031a.1.1 0 0 1 .03-.034.3.3 0 0 1 .187-.063l-.007-.5a.8.8 0 0 0-.497.177c-.116.096-.232.259-.207.453zm.619-.056c.002-.008-.009.024-.088.066a.7.7 0 0 1-.266.075.44.44 0 0 1-.22-.026c-.033-.016-.042-.03-.045-.059l-.496.064a.56.56 0 0 0 .322.444.93.93 0 0 0 .483.075c.158-.014.32-.06.455-.13.128-.068.274-.181.33-.354z" mask="url(#d)"/><path fill="#D21034" stroke="#000" stroke-width=".25" d="M7.556 3.404a.2.2 0 0 1 .088.058c.063.08.024.167.002.204-.061.104-.167.142-.279.138a1 1 0 0 1-.356-.109l-.308-.15.332-.083c.19-.048.34-.075.44-.07a.3.3 0 0 1 .08.012Z"/></g></g></g><rect width="23" height="17" x=".5" y=".5" stroke="#000" stroke-opacity=".1" rx="1.5"/><defs><clipPath id="a"><rect width="24" height="18" fill="#fff" rx="2"/></clipPath></defs></svg>