<svg xmlns="http://www.w3.org/2000/svg" fill="none" viewBox="0 0 24 18"><g clip-path="url(#a)"><path fill="#F7FCFF" d="M0 0h24v18H0z"/><mask id="b" width="24" height="18" x="0" y="0" maskUnits="userSpaceOnUse" style="mask-type:luminance"><path fill="#fff" d="M0 0h24v18H0z"/></mask><g mask="url(#b)"><mask id="c" fill="#fff"><path fill-rule="evenodd" d="M7.5 3h-3v2.244A.75.75 0 0 0 3.924 6H1.5v3h2.498c.097.2.28.351.502.404V12h3V9.414A.75.75 0 0 0 8.05 9h2.45V6H8.123v-.026a.75.75 0 0 0-.623-.74z" clip-rule="evenodd"/></mask><path fill="#A0A0A0" fill-rule="evenodd" d="M7.5 3h-3v2.244A.75.75 0 0 0 3.924 6H1.5v3h2.498c.097.2.28.351.502.404V12h3V9.414A.75.75 0 0 0 8.05 9h2.45V6H8.123v-.026a.75.75 0 0 0-.623-.74z" clip-rule="evenodd"/><path fill="#FECA00" d="M4.5 3V2h-1v1zm3 0h1V2h-1zm-3 2.244.23.973.77-.182v-.79zM3.924 6v1H4.96l-.035-1.034zM1.5 6V5h-1v1zm0 3h-1v1h1zm2.498 0 .9-.435L4.626 8h-.628zm.502.404h1v-.79l-.77-.183zM4.5 12h-1v1h1zm3 0v1h1v-1zm0-2.586-.167-.986-.833.14v.846zM8.05 9V8h-.628l-.273.565zm2.45 0v1h1V9zm0-3h1V5h-1zM8.123 6l-1-.034L7.09 7h1.034zM7.5 5.235h-1v.845l.833.14zM4.5 4h3V2h-3zm1 1.244V3h-2v2.244zm-.576.73a.25.25 0 0 1-.193.243l-.462-1.946a1.75 1.75 0 0 0-1.345 1.703zm0-.008v.008h-2v.06zM1.5 7h2.424V5H1.5zm1 2V6h-2v3zm1.498-1H1.5v2h2.498zm.733.43a.25.25 0 0 1 .167.135l-1.8.87a1.75 1.75 0 0 0 1.171.942zM5.5 12V9.404h-2V12zm2-1h-3v2h3zm-1-1.586V12h2V9.414zm1.167.986a1.75 1.75 0 0 0 1.283-.965l-1.801-.87c.034-.07.1-.123.184-.137zM10.5 8H8.05v2h2.45zm-1-2v3h2V6zM8.123 7H10.5V5H8.123zm-1-1.026v-.008l2 .068v-.06zm.21.247a.25.25 0 0 1-.21-.247h2A1.75 1.75 0 0 0 7.668 4.25zM6.5 3v2.235h2V3z" mask="url(#c)"/><path fill="#E31D1C" fill-rule="evenodd" d="M12 0h12v18H12z" clip-rule="evenodd"/></g></g><rect width="23" height="17" x=".5" y=".5" stroke="#000" stroke-opacity=".1" rx="1.5"/><defs><clipPath id="a"><rect width="24" height="18" fill="#fff" rx="2"/></clipPath></defs></svg>