<svg xmlns="http://www.w3.org/2000/svg" fill="none" viewBox="0 0 24 18"><g clip-path="url(#a)"><mask id="b" width="24" height="18" x="0" y="0" maskUnits="userSpaceOnUse" style="mask-type:luminance"><path fill="#fff" d="M0 0h24v18H0z"/></mask><g fill-rule="evenodd" clip-rule="evenodd" mask="url(#b)"><path fill="#3D58DB" d="M0 0h24v4.5H0V0Z"/><path fill="#F7FCFF" d="M0 4.5h24V9H0V4.5Z"/><path fill="#73BE4A" d="M0 9h24v4.5H0V9Z"/><path fill="#FFD018" d="M0 13.5h24V18H0v-4.5Z"/><path fill="#FECA00" d="M3.397 4.062 1.58 5.323l.58-2.16-1.334-1.38 1.807-.075.765-2.136.765 2.136h1.804L4.634 3.163l.667 2.033-1.904-1.134Z"/><path fill="#E11C1B" d="M9 0h6v18H9V0Z"/></g></g><path stroke="#000" stroke-opacity=".1" stroke-width=".5" d="M.25.25h23.5v17.5H.25z"/><defs><clipPath id="a"><path fill="#fff" d="M0 0h24v18H0z"/></clipPath></defs></svg>