<svg xmlns="http://www.w3.org/2000/svg" fill="none" viewBox="0 0 24 18"><g clip-path="url(#a)"><mask id="b" width="24" height="18" x="0" y="0" maskUnits="userSpaceOnUse" style="mask-type:luminance"><path fill="#fff" d="M0 0h24v18H0z"/></mask><g mask="url(#b)"><path fill="#C51918" fill-rule="evenodd" d="M0 0v18h24V0H0Z" clip-rule="evenodd"/><mask id="c" width="24" height="18" x="0" y="0" maskUnits="userSpaceOnUse" style="mask-type:luminance"><path fill="#fff" fill-rule="evenodd" d="M0 0v18h24V0H0Z" clip-rule="evenodd"/></mask><g mask="url(#c)"><path fill="#4257BF" d="M0 0h10.5v7.5H0zm13.5 10.5H24V18H13.5z"/><path fill="#F7FCFF" fill-rule="evenodd" d="M9.75 0h4.5v6.75H24v4.5h-9.75V18h-4.5v-6.75H0v-4.5h9.75V0Z" clip-rule="evenodd"/><path fill="#5AB92D" fill-rule="evenodd" d="M10.4 7.894c-.029-.132-.061-.294-.061-.294a.813.813 0 0 0-.065.47l-.082.125a2.654 2.654 0 0 1-.172-.309c.004.059.002.119 0 .177-.003.136-.006.263.054.343v.001a2.136 2.136 0 0 0-.035.08c-.082-.089-.22-.248-.22-.248.01.19.06.34.15.448-.016.056-.03.111-.04.166a10.73 10.73 0 0 1-.137-.152c.01.174.038.288.108.385a1.62 1.62 0 0 0-.002.082l-.148-.165a.63.63 0 0 0 .166.404c.009.058.02.116.036.172l.008.032c-.102-.053-.214-.114-.214-.114a.627.627 0 0 0 .273.31c.023.074.048.145.075.214-.12-.037-.3-.097-.3-.097a.638.638 0 0 0 .374.276c.028.063.058.124.088.18-.114-.035-.25-.08-.25-.08.106.16.23.23.363.272.088.134.183.243.281.325-.113.047-.258.104-.258.104a.62.62 0 0 0 .404-.005l.008.004c.048.024.1.047.16.07l-.182.073a.626.626 0 0 0 .397-.004l.006.002c.053.016.108.03.18.05l.163.043a1.01 1.01 0 0 1 .217.075l.002.001.087-.067a.13.13 0 0 0-.043-.038 1.028 1.028 0 0 0-.236-.083 7.565 7.565 0 0 1-.342-.092l-.04-.012a.625.625 0 0 0-.093-.387s-.03.22-.05.34a1.507 1.507 0 0 1-.224-.1.627.627 0 0 0-.16-.374l.01.254a1.512 1.512 0 0 1-.213-.267l.064.035c0-.15-.028-.3-.163-.457 0 0 .007.148.01.269a2.91 2.91 0 0 1-.114-.24.627.627 0 0 0-.021-.411s-.03.097-.063.195a3.948 3.948 0 0 1-.028-.082.638.638 0 0 0 .078-.46l-.138.26-.013-.045a1.486 1.486 0 0 1-.03-.148.632.632 0 0 0 .212-.39s-.136.125-.23.207a1.324 1.324 0 0 1 .001-.126.628.628 0 0 0 .262-.338s-.135.086-.24.15c.007-.04.016-.082.026-.123a.643.643 0 0 0 .312-.368s-.136.087-.242.15c.014-.034.028-.07.045-.104.018-.042.045-.092.08-.15a.626.626 0 0 0 .32-.25l-.196.06c.056-.08.121-.171.196-.27l-.084-.073-.088.119Zm3.035 0c.028-.132.06-.294.06-.294.071.173.093.33.065.47l.082.125c.076-.107.172-.309.172-.309a2.164 2.164 0 0 0 0 .177c.003.136.006.263-.054.343v.001c.013.027.024.053.035.08.082-.089.22-.248.22-.248-.011.19-.06.34-.15.448.016.056.03.111.04.166.07-.076.136-.152.136-.152-.01.174-.037.288-.107.385l.002.082.148-.165a.63.63 0 0 1-.166.404c-.009.058-.02.116-.036.172l-.008.032c.102-.053.214-.114.214-.114a.627.627 0 0 1-.273.31 4.16 4.16 0 0 1-.074.214c.12-.037.3-.097.3-.097a.637.637 0 0 1-.375.276 2.908 2.908 0 0 1-.088.18c.114-.035.25-.08.25-.08a.635.635 0 0 1-.363.272 1.473 1.473 0 0 1-.281.325c.113.047.258.104.258.104a.626.626 0 0 1-.404-.005L13.03 11c-.048.024-.1.047-.16.07l.182.073a.625.625 0 0 1-.397-.004l-.006.002a7.51 7.51 0 0 1-.18.05l-.163.043a1.015 1.015 0 0 0-.217.075l-.002.001-.087-.067a.129.129 0 0 1 .043-.038c.042-.026.112-.049.236-.083l.167-.044c.07-.018.123-.033.175-.048l.04-.012a.626.626 0 0 1 .093-.387s.03.22.05.34a1.507 1.507 0 0 0 .224-.1.627.627 0 0 1 .16-.374l-.01.254c.074-.071.145-.161.213-.267l-.064.035c0-.15.028-.3.163-.457 0 0-.007.148-.01.269a2.91 2.91 0 0 0 .114-.24.627.627 0 0 1 .021-.411s.03.097.063.195l.028-.082a.638.638 0 0 1-.078-.46l.138.26.013-.045c.012-.049.023-.098.03-.148a.632.632 0 0 1-.212-.39s.136.125.23.207a1.324 1.324 0 0 0-.001-.126.628.628 0 0 1-.262-.338s.135.086.24.15a1.715 1.715 0 0 0-.026-.123.643.643 0 0 1-.312-.368s.136.087.242.15a1.483 1.483 0 0 0-.125-.254.626.626 0 0 1-.32-.25l.196.06a8.557 8.557 0 0 0-.196-.27l.084-.073.088.119Z" clip-rule="evenodd"/><path fill="#003994" d="M9.939 6.987c.3-.21.85-.393 1.132-.393a.04.04 0 0 0 .012-.004 3.79 3.79 0 0 0 .188-.111c.2-.114.41-.175.694-.175v.5a.875.875 0 0 0-.472.116c.023-.014-.177.11-.24.136a.469.469 0 0 1-.182.038c-.19 0-.65.152-.874.31-.08.057-.073.04-.07.074.008.122-.001.198-.077.294a.523.523 0 0 0-.027.201l-.468-.005c.002-.197.032-.353.103-.47-.01-.201.06-.356.28-.511Z"/><path fill="#EBCA5E" d="m10.19 7.174-.052-.083c.24-.17.465-.256.673-.256a.678.678 0 0 0 .239-.054c.061-.023.124-.052.208-.095.306-.156.314-.16.395-.16h.276v.1h-.276c-.058 0-.077.01-.354.15a2.306 2.306 0 0 1-.217.1.76.76 0 0 1-.271.06c-.188 0-.395.078-.622.238Z"/><path fill="#003994" d="M13.874 6.987c-.3-.21-.85-.393-1.132-.393-.001 0-.004 0-.012-.004a3.79 3.79 0 0 1-.188-.111 1.316 1.316 0 0 0-.694-.175v.5c.204 0 .338.039.472.116-.023-.014.177.11.24.136.06.025.12.038.182.038.19 0 .65.152.874.31.08.057.073.04.07.074-.008.122.001.198.077.294.01.012.025.08.027.201l.468-.005c-.002-.197-.032-.353-.103-.47.01-.201-.06-.356-.28-.511Z"/><path fill="#EBCA5E" d="m13.586 7.174.052-.083c-.24-.17-.465-.256-.674-.256a.678.678 0 0 1-.239-.054 2.222 2.222 0 0 1-.208-.095c-.305-.156-.314-.16-.395-.16h-.276v.1h.276c.059 0 .078.01.355.15.087.044.152.074.216.1.101.038.19.06.271.06.188 0 .396.078.622.238Z"/><path fill="#003994" d="m10.367 7.514.245.266v1.105h.246v.07l.362.174s.054-.73-.115-.923c-.17-.193.115-.24.115-.24l.434.434v-.886h-1.287Z"/><path fill="#D62818" d="m13.303 7.514-.244.266v1.105h-.247v.07l-.361.174s-.055-.73.115-.923c.17-.193-.116-.24-.116-.24l-.433.434v-.886h1.286Z"/><path fill="#FFC300" d="m11.158 7.947-.037.046.721.667.039-.002.596-.667-.04-.042-.578.647-.701-.649Z"/><path fill="#FFC300" d="m11.056 8.227-.047.046.92.667.05-.002.761-.667-.052-.042-.738.647-.894-.649Z"/><path fill="#D62818" d="M10.633 9.316h.317l.216.066s.069.496.416.496l.057.635-.269-.145s-.175.077-.204.077c-.03 0-.28.14-.28 0s-.253-.366-.253-.366v-.763Z"/><path fill="#003994" d="M13.139 9.316h-.317l-.216.066s-.07.496-.417.496l-.056.635.269-.145s.174.077.204.077.279.14.279 0 .254-.366.254-.366v-.763Z"/><path fill="#D62818" d="M12.46 9.376h.375c0 .281-.099.508-.294.662l-.223-.321c.096-.076.142-.182.142-.34Zm-.982-.771v.526h.436s-.04.394-.04.643.04.572.04.572.107-.053.107-.39v-.861l.344.036-.036-.474h-.146s.224.295 0 .295c-.223 0-.48.058-.528.058-.049 0-.177-.405-.177-.405Z"/><path fill="#003994" d="M11.857 9.24s-.245.145-.245.38c0 .234.123.502.123.502s-.058-.529.032-.67c.09-.14.09-.211.09-.211Zm-.398.174s-.014.17.087.17c.1 0-.087-.17-.087-.17Z"/><path fill="#373737" d="m12.32 8.958.04.134-.642.21-.143-.597.127-.035.11.455.509-.167Z"/><path fill="#D62818" fill-rule="evenodd" d="m10.527 11.556-.056.048a.593.593 0 0 1-.048-.076.629.629 0 0 1-.154-.076c-.06-.043-.124-.043-.203.004l-.09-.175c.137-.082.275-.082.396.004a.12.12 0 0 0 .005.003.362.362 0 0 1 .193-.25c.191-.109 1.027-.224 1.281-.224v.32c-.206 0-1.006.11-1.14.186l-.01.006c-.018.01-.028.015-.03.023-.001.006.003.013.012.026.007 0 .012-.002.014-.004l.133.14c-.055.06-.177.07-.303.046Zm-.896.006s.278.244.478.185c.2-.06.262-.126.262-.126s-.2-.027-.412-.059c-.212-.032-.328 0-.328 0Z" clip-rule="evenodd"/><path fill="#EBCA5E" fill-rule="evenodd" d="m10.55 11.385.033-.048c-.099-.08-.073-.124.117-.166l.05-.011-.011-.06a6.29 6.29 0 0 0-.05.011c-.23.052-.289.154-.14.274Z" clip-rule="evenodd"/><path fill="#D62818" fill-rule="evenodd" d="m13.098 11.556.056.048a.583.583 0 0 0 .049-.076.63.63 0 0 0 .154-.076c.06-.043.123-.043.203.004l.09-.175c-.138-.082-.275-.082-.397.004a.074.074 0 0 1-.004.003.362.362 0 0 0-.193-.25c-.191-.109-1.028-.224-1.282-.224v.32c.206 0 1.007.11 1.14.186a.27.27 0 0 0 .011.006c.018.01.027.015.03.023 0 .006-.003.013-.013.026-.007 0-.012-.002-.014-.004l-.133.14c.055.06.178.07.303.046Zm.896.006s-.277.244-.477.185c-.2-.06-.262-.126-.262-.126s.2-.027.412-.059a.855.855 0 0 1 .327 0Z" clip-rule="evenodd"/><path fill="#EBCA5E" fill-rule="evenodd" d="m13.076 11.385-.034-.048c.1-.08.074-.124-.116-.166a6.363 6.363 0 0 0-.606-.103c.191.023.383.055.556.092l.01-.06a6.295 6.295 0 0 1 .05.011c.23.052.29.154.14.274Z" clip-rule="evenodd"/><path fill="#D62818" d="m11.524 11.633-.146-.257a.924.924 0 0 1 .51-.126c.208 0 .377.04.505.128l-.152.253c-.077-.053-.194-.081-.352-.081-.16 0-.28.029-.365.083Z"/></g></g></g><rect width="23" height="17" x=".5" y=".5" stroke="#000" stroke-opacity=".1" rx="1.5"/><defs><clipPath id="a"><rect width="24" height="18" fill="#fff" rx="2"/></clipPath></defs></svg>