<svg xmlns="http://www.w3.org/2000/svg" fill="none" viewBox="0 0 24 18"><g clip-path="url(#a)"><mask id="b" width="24" height="18" x="0" y="0" maskUnits="userSpaceOnUse" style="mask-type:luminance"><path fill="#fff" d="M0 0h24v18H0z"/></mask><g mask="url(#b)"><path fill="#f7fcff" fill-rule="evenodd" d="M0 0h24v18H0z" clip-rule="evenodd"/><path fill="#272727" fill-rule="evenodd" d="M0 0v6h24V0z" clip-rule="evenodd"/><path fill="#4e8b1d" fill-rule="evenodd" d="M0 12v6h24v-6z" clip-rule="evenodd"/><path fill="#e31d1c" stroke="#f7fcff" stroke-width="2" d="M25 5v8H-1V5z"/><path fill="#3d58db" fill-rule="evenodd" d="m0 0 15 9-15 9z" clip-rule="evenodd"/><path fill="#feca00" fill-rule="evenodd" d="M4.986 10.807 3.47 12.381l-.158-2.24-1.932-1.19 2.015-.632.33-2.218L5.12 7.858l2.034-.545-1.051 2.082 1.022 2.008z" clip-rule="evenodd"/></g></g><rect width="23" height="17" x=".5" y=".5" stroke="#000" stroke-opacity=".1" rx="1.5"/><defs><clipPath id="a"><rect width="24" height="18" fill="#fff" rx="2"/></clipPath></defs></svg>