<svg xmlns="http://www.w3.org/2000/svg" fill="none" viewBox="0 0 24 18"><g clip-path="url(#a)"><mask id="b" width="24" height="18" x="0" y="0" maskUnits="userSpaceOnUse" style="mask-type:luminance"><path fill="#fff" d="M0 0h24v18H0z"/></mask><g mask="url(#b)"><path fill="#EF0000" fill-rule="evenodd" d="M0 0v18h24V0z" clip-rule="evenodd"/><mask id="c" width="24" height="18" x="0" y="0" maskUnits="userSpaceOnUse" style="mask-type:luminance"><path fill="#fff" fill-rule="evenodd" d="M0 0v18h24V0z" clip-rule="evenodd"/></mask><g fill-rule="evenodd" clip-rule="evenodd" mask="url(#c)"><path fill="#2E42A5" d="M0 0v10.5h13.5V0z"/><path fill="#FEFFFF" d="M6.547 8.108 5.436 9.494l-.27-1.756-1.655.645.645-1.655-1.756-.27 1.386-1.11L2.4 4.235l1.756-.27-.645-1.655 1.656.645.269-1.756 1.111 1.386L7.658 1.2l.27 1.756 1.655-.645-.645 1.656 1.756.269-1.386 1.111 1.386 1.111-1.756.27.645 1.655-1.655-.645-.27 1.756zm0-.614a2.147 2.147 0 1 0 0-4.294 2.147 2.147 0 0 0 0 4.294m1.718-2.147a1.717 1.717 0 1 1-3.435 0 1.717 1.717 0 0 1 3.435 0"/></g></g></g><rect width="23" height="17" x=".5" y=".5" stroke="#000" stroke-opacity=".1" rx="1.5"/><defs><clipPath id="a"><rect width="24" height="18" fill="#fff" rx="2"/></clipPath></defs></svg>