<svg xmlns="http://www.w3.org/2000/svg" fill="none" viewBox="0 0 24 18"><g clip-path="url(#a)"><mask id="b" width="24" height="18" x="0" y="0" maskUnits="userSpaceOnUse" style="mask-type:luminance"><path fill="#fff" d="M0 0h24v18H0z"/></mask><g mask="url(#b)"><path fill="#4141DB" fill-rule="evenodd" d="M0 0v18h24V0H0Z" clip-rule="evenodd"/><mask id="c" width="24" height="18" x="0" y="0" maskUnits="userSpaceOnUse" style="mask-type:luminance"><path fill="#fff" fill-rule="evenodd" d="M0 0v18h24V0H0Z" clip-rule="evenodd"/></mask><g mask="url(#c)"><path fill="#F90000" stroke="#F7FCFF" stroke-width="2" d="M0 9.5h-1V13h26V9.5H0Z"/><g filter="url(#d)"><path fill="#FFDE00" fill-rule="evenodd" d="m7.347 7.695.544-.382.527.382-.164-.68.423-.43H8.14l-.25-.555-.212.554h-.632l.484.43-.184.68Zm2.25 1.2.544-.382.527.382-.164-.68.423-.43h-.538l-.248-.554-.212.554h-.632l.484.43-.184.68Zm2.344 1.418-.544.382.184-.68-.484-.43h.632l.212-.554.248.554h.538l-.423.43.164.68-.527-.382Zm-.544 3.382.544-.382.527.382-.164-.68.423-.43h-.538l-.248-.554-.212.554h-.632l.484.43-.184.68Zm-1.256 1.418-.544.382.184-.68-.484-.43h.632l.211-.554.249.554h.538l-.423.43.164.68-.527-.382Zm-2.794 1.582.544-.382.527.382-.164-.68.423-.43H8.14l-.248-.554-.212.554h-.632l.484.43-.184.68ZM5.64 15.113l-.544.382.184-.68-.484-.43h.632l.212-.554.248.554h.538l-.423.43.164.68-.527-.382Zm-2.344-1.418.544-.382.527.382-.164-.68.423-.43H4.09l-.248-.554-.212.554h-.632l.484.43-.184.68Zm.544-3.382-.544.382.184-.68-.484-.43h.632l.212-.554.248.554h.538l-.423.43.164.68-.527-.382Zm1.256-1.418.544-.382.527.382-.164-.68.423-.43H5.89l-.25-.555-.212.554h-.632l.484.43-.184.68Z" clip-rule="evenodd"/></g></g></g></g><path stroke="#000" stroke-opacity=".1" stroke-width=".5" d="M.25.25h23.5v17.5H.25z"/><defs><clipPath id="a"><path fill="#fff" d="M0 0h24v18H0z"/></clipPath><filter id="d" width="17.73" height="18.664" x="-1.003" y="2.031" color-interpolation-filters="sRGB" filterUnits="userSpaceOnUse"><feFlood flood-opacity="0" result="BackgroundImageFix"/><feColorMatrix in="SourceAlpha" result="hardAlpha" values="0 0 0 0 0 0 0 0 0 0 0 0 0 0 0 0 0 0 127 0"/><feOffset/><feGaussianBlur stdDeviation="2"/><feColorMatrix values="0 0 0 0 0 0 0 0 0 0 0 0 0 0 0 0 0 0 0.24 0"/><feBlend in2="BackgroundImageFix" result="effect1_dropShadow_701_24185"/><feBlend in="SourceGraphic" in2="effect1_dropShadow_701_24185" result="shape"/></filter></defs></svg>