<svg xmlns="http://www.w3.org/2000/svg" fill="none" viewBox="0 0 24 18"><g clip-path="url(#a)"><mask id="b" width="24" height="18" x="0" y="0" maskUnits="userSpaceOnUse" style="mask-type:luminance"><path fill="#fff" d="M0 0h24v18H0z"/></mask><g mask="url(#b)"><path fill="#E31D1C" fill-rule="evenodd" d="M0 0v18h24V0H0Z" clip-rule="evenodd"/><mask id="c" width="24" height="18" x="0" y="0" maskUnits="userSpaceOnUse" style="mask-type:luminance"><path fill="#fff" fill-rule="evenodd" d="M0 0v18h24V0H0Z" clip-rule="evenodd"/></mask><g mask="url(#c)"><path fill="#2E42A5" fill-rule="evenodd" d="M0 9v9h24V9H0Z" clip-rule="evenodd"/></g><path fill="#F7FCFF" fill-rule="evenodd" d="M0-1.5v21L15 9 0-1.5Z" clip-rule="evenodd"/><mask id="d" width="15" height="22" x="0" y="-2" maskUnits="userSpaceOnUse" style="mask-type:luminance"><path fill="#fff" fill-rule="evenodd" d="M0-1.5v21L15 9 0-1.5Z" clip-rule="evenodd"/></mask><g mask="url(#d)"><path fill="#FBCD17" fill-rule="evenodd" d="M6.095 7.642c1.077 0 1.95-.704 1.95-1.571 0-.868-.873-1.571-1.95-1.571-1.078 0-1.951.703-1.951 1.57 0 .868.873 1.572 1.95 1.572Z" clip-rule="evenodd"/><path fill="#DA610A" fill-rule="evenodd" d="M6.265 4.789c-.159 0-.272.103-.272.257v.017a.298.298 0 0 0-.014.087.276.276 0 0 0 .092.213.176.176 0 0 1 .006.042c-.004-.013-.02-.025-.049-.046a1.642 1.642 0 0 1-.218-.188c-.152-.154-.267-.215-.41-.19a.667.667 0 0 0-.136.042.502.502 0 0 1-.293.01c-.383-.073-.802-.002-1.257.209l.158.34c.388-.18.73-.238 1.029-.18a.87.87 0 0 0 .49-.026.74.74 0 0 1 .072-.026c-.005 0-.002.004.017.022l.063.062c.043.043.088.083.134.119-.088.023-.084.04-.068.097a.47.47 0 0 1 .02.094c.011.09-.007.136.009.158.017.024.077.02.266.01a7.432 7.432 0 0 0 .64-.069c.105-.017.133-.023.177-.055l.04-.049a17.646 17.646 0 0 1 1.228-.138c.009 0 .009 0 .055-.01l.031-.013c.002 0 .002 0 0 0l.092-.218-.095-.114a.424.424 0 0 0-.071-.02l-.013-.001h-.092a.958.958 0 0 1-.182-.018l-.066-.013c-.293-.053-.564-.053-1.139.033a2.82 2.82 0 0 0-.032-.025c.093-.016.205-.027.325-.033l.112-.005h.018l-.003-.375h-.664Zm-.31 1.086.036-.008.035-.007a6.36 6.36 0 0 1-.022.004l-.05.01Z" clip-rule="evenodd"/><path fill="#56C6F5" stroke="#E31D1C" d="m5.924 6.559.08.013.081-.013c.74-.121 1.206-.103 1.46-.018.298.1.616.093.944.011-.094.471-.142.92-.142 1.347 0 .561.109 1.015.204 1.402l.006.024c.095.384.17.684.17 1.028 0 .29-.093.418-.204.497-.143.1-.401.178-.82.178-.6 0-1.164.155-1.684.457l-.014-.01-.015.01a3.307 3.307 0 0 0-1.685-.457c-.417 0-.676-.077-.819-.178-.11-.079-.204-.207-.204-.497 0-.344.075-.644.17-1.028l.006-.024c.096-.387.204-.84.204-1.402 0-.427-.048-.876-.141-1.347.327.082.645.09.943-.01.254-.086.72-.104 1.46.017Z"/><path fill="#F7FCFF" fill-rule="evenodd" d="m6.589 7.968-.579-.514-.578.514h.171v.297l-.9.56v1.372h-.171v.257h3v-.257h-.215V8.825l-.942-.587v-.27h.214Z" clip-rule="evenodd"/><path fill="#3B3B3B" d="m6.01 7.454.083-.094-.083-.073-.083.073.083.094Zm.579.514v.125h.329l-.246-.218-.083.093Zm-1.157 0-.083-.093-.246.218h.329v-.125Zm.171 0h.125v-.125h-.125v.125Zm0 .297.066.106.06-.037v-.07h-.126Zm-.9.56-.066-.106-.059.037v.07h.125Zm0 1.372v.125h.125v-.125h-.125Zm-.171 0v-.125h-.125v.125h.125Zm0 .257h-.125v.125h.125v-.125Zm3 0v.125h.125v-.125h-.125Zm0-.257h.125v-.125h-.125v.125Zm-.215 0h-.125v.125h.125v-.125Zm0-1.372h.125v-.07l-.058-.036-.067.106Zm-.942-.587H6.25v.07l.059.036.066-.106Zm0-.27v-.125H6.25v.125h.125Zm-.448-.42.579.514.166-.187-.579-.515-.166.187Zm-.412.514.578-.515-.166-.187-.578.515.166.187Zm.088-.219h-.171v.25h.171v-.25Zm-.125.125v.297h.25v-.297h-.25Zm.06.19-.9.561.131.212.9-.56-.132-.212Zm-.96.667v1.372h.25V8.825h-.25Zm.125 1.247h-.171v.25h.171v-.25Zm-.296.125v.257h.25v-.257h-.25Zm.125.382h.171v-.25h-.171v.25Zm.171 0h2.614v-.25H4.703v.25Zm2.614 0h.215v-.25h-.215v.25Zm.34-.125v-.257h-.25v.257h.25Zm-.125-.382h-.215v.25h.215v-.25Zm-.09.125V8.825h-.25v1.372h.25Zm-.058-1.478-.943-.587-.132.212.942.587.133-.212ZM6.5 8.238v-.27h-.25v.27h.25Zm.089-.395h-.214v.25h.214v-.25Z"/><path fill="#FBCD17" d="M5.964 12.765c.796 0 1.344-.087 1.626-.235a.379.379 0 0 1 .341-.191c.62.023 1.1-.239 1.478-.813.408-.62.49-1.5.224-2.657l.674-.155c.305 1.325.205 2.394-.32 3.193-.47.716-1.112 1.098-1.895 1.124-.4.296-1.101.427-2.128.427-.993 0-1.73-.193-2.202-.603-1.072-.253-1.753-.681-2.021-1.315-.286-.676-.286-1.614-.02-2.823l.676.15c-.238 1.08-.238 1.885-.019 2.403.153.362.598.658 1.35.863l.7.15-.033.176c.341.2.863.306 1.57.306Z"/><path fill="#73BE4A" fill-rule="evenodd" d="M3.575 6.882a.375.375 0 0 0 .208.488l.012.005-.018.038a.376.376 0 0 0 .359.538l-.009.042c-.077.379.36.568.6.375a.36.36 0 0 0 .352-.289l.043-.18.017.005c.354.107.593-.283.437-.547a.374.374 0 0 0-.439-.54l-.387.12a.365.365 0 0 0-.162-.009.373.373 0 0 0-.142-.1l-.383-.154a.375.375 0 0 0-.488.208ZM5.122 7.9l.091-.388-.473.273.382.115Z" clip-rule="evenodd"/><path fill="#FBCD17" fill-rule="evenodd" d="M4.654 7.857a.375.375 0 1 0 0-.75.375.375 0 0 0 0 .75Z" clip-rule="evenodd"/><path fill="#F7FCFF" fill-rule="evenodd" d="M7.68 7.555c-.005-.252-.033-.828-.161-.828-.13 0-.149.583-.151.832-.222.073-.389.263-.389.263h1.104s-.174-.198-.402-.267Z" clip-rule="evenodd"/><path fill="#73BE4A" d="m1.913 9.426.185.033c-.15.86-.15 1.475-.005 1.843.168.428 1.16 1.002 1.44 1.002v.187c-.353 0-1.416-.615-1.615-1.12-.16-.408-.16-1.054-.005-1.945Zm8.123-.044-.185.03c.135.807.105 1.436-.087 1.887-.232.544-1.127 1.237-1.362 1.237v.188c.316 0 1.275-.742 1.534-1.351.209-.49.24-1.153.1-1.991Zm-5.241 3.686.035-.184c.598.114 1.006.172 1.22.172.213 0 .599-.057 1.153-.172l.038.184c-.566.117-.962.175-1.191.175-.23 0-.646-.058-1.255-.175Z"/></g></g></g><rect width="23" height="17" x=".5" y=".5" stroke="#000" stroke-opacity=".1" rx="1.5"/><defs><clipPath id="a"><rect width="24" height="18" fill="#fff" rx="2"/></clipPath></defs></svg>