<svg xmlns="http://www.w3.org/2000/svg" fill="none" viewBox="0 0 24 18"><g clip-path="url(#a)"><mask id="b" width="24" height="18" x="0" y="0" maskUnits="userSpaceOnUse" style="mask-type:luminance"><path fill="#fff" d="M0 0h24v18H0z"/></mask><g mask="url(#b)"><path fill="#F7FCFF" fill-rule="evenodd" d="M0 0h24v18H0V0Z" clip-rule="evenodd"/><path fill="#4564F9" fill-rule="evenodd" d="M0 4.125h24v2.218H0V4.125Zm0 3.986h24v2.218H0V8.111Zm24 3.846H0v2.218h24v-2.218ZM0 0h24v2.25H0V0Z" clip-rule="evenodd"/><path fill="#4564F9" d="M0 15.75h24V18H0z"/><path fill="#4564F9" fill-rule="evenodd" d="M0 0h11.25v10.35H0V0Z" clip-rule="evenodd"/><path fill="#F7FCFF" fill-rule="evenodd" d="M4.5 0h2.25v4.128h4.5v2.201h-4.5v4.546H4.5V6.329H0V4.128h4.5V0Z" clip-rule="evenodd"/></g></g><path stroke="#000" stroke-opacity=".1" stroke-width=".5" d="M.25.25h23.5v17.5H.25z"/><defs><clipPath id="a"><path fill="#fff" d="M0 0h24v18H0z"/></clipPath></defs></svg>