<svg xmlns="http://www.w3.org/2000/svg" fill="none" viewBox="0 0 24 18"><g clip-path="url(#a)"><mask id="b" width="24" height="18" x="0" y="0" maskUnits="userSpaceOnUse" style="mask-type:luminance"><path fill="#fff" d="M0 0h24v18H0z"/></mask><g mask="url(#b)"><path fill="#1B1B1B" fill-rule="evenodd" d="M0 0h24v18H0V0Z" clip-rule="evenodd"/><path fill="#F9D313" fill-rule="evenodd" d="m12 10.5-1.502 2.85.038-3.147L7.79 12.19l1.57-2.82-3.443.732L8.71 8.168 5.25 7.5l3.46-.668-2.792-1.935 3.443.733-1.57-2.821 2.745 1.988-.038-3.147L12 4.5l1.502-2.85-.038 3.147L16.21 2.81l-1.57 2.82 3.442-.732-2.79 1.935 3.459.668-3.46.668 2.791 1.935-3.442-.733 1.57 2.821-2.745-1.988.038 3.147L12 10.5Z" clip-rule="evenodd"/><path fill="#F1F9FF" d="M4.5 10.5h15V18h-15z"/><path fill="#4A80E8" d="M1.5 7.5h21v3h-21z"/><path fill="#E31D1C" fill-rule="evenodd" d="M0 4.5 12 18 24 4.5V18H0V4.5Z" clip-rule="evenodd"/></g></g><path stroke="#000" stroke-opacity=".1" stroke-width=".5" d="M.25.25h23.5v17.5H.25z"/><defs><clipPath id="a"><path fill="#fff" d="M0 0h24v18H0z"/></clipPath></defs></svg>