<svg xmlns="http://www.w3.org/2000/svg" fill="none" viewBox="0 0 24 18"><g clip-path="url(#a)"><mask id="b" width="24" height="18" x="0" y="0" maskUnits="userSpaceOnUse" style="mask-type:luminance"><path fill="#fff" d="M0 0h24v18H0z"/></mask><g mask="url(#b)"><path fill="#093" fill-rule="evenodd" d="M0 0v18h24V0H0Z" clip-rule="evenodd"/><mask id="c" width="24" height="18" x="0" y="0" maskUnits="userSpaceOnUse" style="mask-type:luminance"><path fill="#fff" fill-rule="evenodd" d="M0 0v18h24V0H0Z" clip-rule="evenodd"/></mask><g mask="url(#c)"><path fill="#3195F9" fill-rule="evenodd" d="M0 0v18L24 0H0Z" clip-rule="evenodd"/><path fill="#E31D1C" stroke="#F7FCFF" stroke-width="2" d="m-.978 20.441.53.961.908-.617L26.584 3.003l.702-.478-.358-.77-1.756-3.78-.492-1.057-.97.646-26.516 17.668-.766.51.444.805 2.15 3.894Z"/><path fill="#FECA00" fill-rule="evenodd" d="m4.672 6.934-.97 1.21-.235-1.533-1.446.563.563-1.446-1.534-.235 1.21-.97-1.21-.971 1.534-.235-.563-1.446 1.446.563L3.702.9l.97 1.211.97-1.21.236 1.533 1.446-.563-.563 1.446 1.533.235-1.21.97 1.21.97-1.533.236.563 1.446-1.446-.563-.235 1.534-.97-1.211Zm0-.537a1.875 1.875 0 1 0 0-3.75 1.875 1.875 0 0 0 0 3.75Zm1.5-1.875a1.5 1.5 0 1 1-3 0 1.5 1.5 0 0 1 3 0Z" clip-rule="evenodd"/></g></g></g><path stroke="#000" stroke-opacity=".1" stroke-width=".5" d="M.25.25h23.5v17.5H.25z"/><defs><clipPath id="a"><path fill="#fff" d="M0 0h24v18H0z"/></clipPath></defs></svg>