<svg xmlns="http://www.w3.org/2000/svg" fill="none" viewBox="0 0 24 18"><g clip-path="url(#a)"><mask id="b" width="24" height="18" x="0" y="0" maskUnits="userSpaceOnUse" style="mask-type:luminance"><path fill="#fff" d="M0 0h24v18H0z"/></mask><g mask="url(#b)"><path fill="#2E42A5" fill-rule="evenodd" d="M0 0v18h24V0H0Z" clip-rule="evenodd"/><path fill="#F7FCFF" d="M24 0H0v18h24V0Z"/><path fill="#C00" d="M24 7.5H0v3h24v-3Z"/><path fill="#C00" d="M13.5 18V0h-3v18h3Z"/><path fill="#EBEAE3" fill-rule="evenodd" d="M13.087 6.114c.095-.149.038-.245-.106-.275 0 0-.459.148-.954.164-.496.016-1.085-.125-1.085-.125-.106.066-.08.224-.027.322 0 0 .519.172 1.11.155.374-.01.73-.106.93-.17.114-.036.132-.07.132-.071Z" clip-rule="evenodd"/><path fill="#000" fill-rule="evenodd" d="M12.98 5.831h.003c.073.016.126.048.148.098.022.05.01.113-.037.188v.001l-.001.002a.11.11 0 0 1-.024.023.421.421 0 0 1-.112.05c-.2.064-.556.16-.933.17a3.508 3.508 0 0 1-1.088-.148l-.018-.006a.528.528 0 0 1-.004-.001h-.002l.003-.008-.003.007h-.003l-.002-.003a.39.39 0 0 1-.046-.177c0-.062.02-.12.077-.156l.003-.002.003.001-.002.008.002-.008h.002l.005.002a2.701 2.701 0 0 0 .092.02c.063.013.152.03.257.047.209.033.48.064.726.056a3.728 3.728 0 0 0 .932-.157l.015-.005h.004l.001-.001h.003Zm.002.017h-.004a1.374 1.374 0 0 1-.074.022 4.121 4.121 0 0 1-.877.14 4.04 4.04 0 0 1-.73-.056 5.787 5.787 0 0 1-.35-.066l-.003-.001c-.048.031-.067.083-.067.14 0 .057.018.118.043.166l.003.001a1.605 1.605 0 0 0 .084.025 3.617 3.617 0 0 0 1.017.128c.374-.01.729-.106.928-.17a.406.406 0 0 0 .107-.047.097.097 0 0 0 .02-.018l.001-.002c.047-.074.055-.132.036-.175-.018-.042-.065-.072-.134-.087Z" clip-rule="evenodd"/><path fill="#F7FCFF" d="m12 12.626-.953-1.98-2.19.165 1.238-1.814-1.238-1.814 2.19.164L12 5.368l.953 1.98 2.19-.165-1.238 1.814 1.238 1.814-2.19-.164L12 12.626Z"/><path fill="#161111" fill-rule="evenodd" d="m12 5.311.967 2.01 2.225-.167-1.257 1.843 1.257 1.843-2.225-.167-.967 2.01-.967-2.01-2.225.167 1.257-1.843-1.257-1.843 2.225.167.967-2.01Zm0 .114-.938 1.948-2.155-.162 1.218 1.786-1.218 1.786 2.155-.162.938 1.948.938-1.948 2.155.162-1.218-1.786 1.218-1.786-2.155.162L12 5.425Z" clip-rule="evenodd"/><path fill="#C00" d="M12.592 9.936c.077-.076.2-.16.27-.342.063-.17.094-.482.153-.64.076-.272.23-.537.047-.518-.175.017-.231.186-.297.31a.855.855 0 0 0-.074.21c-.008.035-.01.074-.042.09.048-.412-.067-.72-.106-1.33-.017-.257-.058-.515-.192-.517-.1 0-.117.132-.132.231 0-.14.005-.436-.163-.436-.203 0-.141.413-.169.622-.005-.074-.007-.233-.029-.336a.157.157 0 0 0-.044-.086c-.013-.011-.03-.017-.056-.017-.184 0-.18.257-.174.514.003.027 0 .15.003.23 0-.14 0-.413-.145-.401-.122.01-.13.317-.136.48.008.164-.049.545-.069.653-.005.077-.035.177-.048.284-.028.23-.001.5.03.638.06.217.218.315.21.463-.008.148 0 .408 0 .525 0 .117.101.123.311.078.343-.074.53.074.814-.035-.036-.323.046-.554.038-.67Z"/><path fill="#161111" fill-rule="evenodd" d="M11.926 7.05a.143.143 0 0 1 .13-.08.14.14 0 0 1 .116.058c.026.034.042.08.052.127.007.03.011.063.014.096a.155.155 0 0 1 .036-.049.112.112 0 0 1 .078-.027.13.13 0 0 1 .102.054.373.373 0 0 1 .06.126c.03.1.045.23.053.359.016.244.044.439.068.612l.018.126c.02.15.034.288.031.432l.014-.044a.48.48 0 0 1 .046-.107 2.38 2.38 0 0 0 .026-.052c.024-.048.05-.1.083-.145a.284.284 0 0 1 .207-.125.129.129 0 0 1 .066.008c.02.009.033.024.04.043a.14.14 0 0 1 .007.06.42.42 0 0 1-.013.07c-.013.05-.033.108-.055.17l-.001.002a3.09 3.09 0 0 0-.065.196v.002c-.029.075-.05.187-.073.304l-.002.008a2.223 2.223 0 0 1-.08.33.759.759 0 0 1-.229.307 1.855 1.855 0 0 0-.037.035c0 .03-.004.064-.009.101l-.009.06a4.257 4.257 0 0 0-.013.09 1.633 1.633 0 0 0-.008.406l.002.019-.018.007a.776.776 0 0 1-.396.032l-.02-.002a1.141 1.141 0 0 0-.402.006.664.664 0 0 1-.244.022.118.118 0 0 1-.072-.041.131.131 0 0 1-.025-.083l-.001-.13a6.891 6.891 0 0 1 .001-.396c.004-.065-.029-.12-.075-.19l-.009-.014a.864.864 0 0 1-.126-.252V9.58a2.198 2.198 0 0 1-.03-.646c.007-.053.017-.104.027-.15v-.005c.01-.049.02-.091.022-.128v-.002a5.97 5.97 0 0 0 .045-.304c.015-.13.027-.264.023-.343v-.008c.003-.08.007-.197.025-.296a.458.458 0 0 1 .043-.134c.02-.036.049-.065.091-.069a.116.116 0 0 1 .106.048.172.172 0 0 1 .012.017c0-.083.003-.162.018-.228a.278.278 0 0 1 .058-.128.16.16 0 0 1 .124-.052c.03 0 .054.007.072.023a.172.172 0 0 1 .048.082l.003-.033a.47.47 0 0 1 .045-.174Zm-.365.775v.097h.05v-.136c0-.042 0-.08-.002-.097a1.61 1.61 0 0 1 .015-.346.23.23 0 0 1 .047-.106.11.11 0 0 1 .087-.036c.022 0 .033.006.04.011a.138.138 0 0 1 .036.073c.017.078.022.19.025.271l.004.061.049.002a1.79 1.79 0 0 0 .01-.188v-.003c0-.067.002-.136.008-.199a.424.424 0 0 1 .04-.155c.02-.036.046-.055.086-.055.033 0 .058.014.077.039a.27.27 0 0 1 .043.107c.018.083.018.183.018.253v.012l.049.004.002-.01a.634.634 0 0 1 .031-.138.123.123 0 0 1 .03-.046.063.063 0 0 1 .045-.016m-.79.6a.916.916 0 0 0-.016-.155.24.24 0 0 0-.038-.096.067.067 0 0 0-.063-.029c-.018.002-.036.015-.052.044a.412.412 0 0 0-.037.12 2.067 2.067 0 0 0-.024.29V8c.004.085-.009.222-.024.35a6.39 6.39 0 0 1-.045.306 1.05 1.05 0 0 1-.022.133v.004c-.01.047-.02.096-.027.147-.027.226 0 .493.03.629a.817.817 0 0 0 .119.238l.008.012c.045.07.088.137.084.22a6.677 6.677 0 0 0-.002.39l.002.134c0 .026.005.042.013.053.009.01.022.018.044.022.046.01.119.001.224-.021.166-.036.297-.021.416-.008l.021.003c.12.013.227.022.355-.023a1.7 1.7 0 0 1 .011-.399l.014-.093.008-.056a.539.539 0 0 0 .008-.104l-.001-.011.008-.008.05-.046a.7.7 0 0 0 .213-.286 2.2 2.2 0 0 0 .078-.321l.002-.012a3.174 3.174 0 0 1 .139-.506c.023-.063.043-.12.055-.167a.365.365 0 0 0 .011-.062.091.091 0 0 0-.003-.038.026.026 0 0 0-.014-.016.082.082 0 0 0-.041-.004.235.235 0 0 0-.172.105.932.932 0 0 0-.077.134l-.03.058v.002a.432.432 0 0 0-.041.096 1.5 1.5 0 0 0-.03.107l-.004.018-.001.008a.236.236 0 0 1-.007.028.086.086 0 0 1-.043.052l-.041.02.005-.045c.024-.203.007-.38-.02-.584l-.018-.125a7.552 7.552 0 0 1-.068-.617 1.656 1.656 0 0 0-.05-.348.327.327 0 0 0-.052-.109c-.02-.024-.041-.035-.065-.036" clip-rule="evenodd"/><path fill="#C00" d="M12.4 9.363c.072-.196.161-.273.248-.316l-.247.316Z"/><path fill="#161111" fill-rule="evenodd" d="M12.659 9.07c-.08.039-.166.11-.235.301l-.046-.017c.072-.201.166-.283.259-.33l.022.045Z" clip-rule="evenodd"/><path fill="#C00" d="M12.53 10.038c.006-.04.031-.072.066-.106l-.066.106Z"/><path fill="#161111" fill-rule="evenodd" d="M12.613 9.95c-.034.033-.054.06-.059.092l-.049-.008a.222.222 0 0 1 .074-.12l.034.036Z" clip-rule="evenodd"/><path fill="#C00" d="M11.586 7.871c.005.174.016.507.016.587l-.016-.587Z"/><path fill="#161111" fill-rule="evenodd" d="m11.566 8.007-.004-.135.05-.001.003.133c.005.175.012.391.012.454h-.05c0-.062-.006-.277-.011-.451Z" clip-rule="evenodd"/><path fill="#C00" d="M12.221 7.398c-.01.092.001.166 0 .26-.002.063.008.178.016.318-.002.05.016.302 0 .396"/><path fill="#161111" fill-rule="evenodd" d="M12.193 7.528a.945.945 0 0 1 .004-.133l.049.005a.883.883 0 0 0-.003.153 2.898 2.898 0 0 0 .011.296l.008.126v.002a9.966 9.966 0 0 1 .005.18c.002.08.003.17-.006.219l-.049-.009c.008-.043.008-.127.006-.209a8.26 8.26 0 0 0-.005-.182l-.008-.12a3.258 3.258 0 0 1-.01-.198 1.694 1.694 0 0 0-.002-.13Z" clip-rule="evenodd"/><path fill="#C00" d="M11.887 7.57c.003.035.002.076.004.122.008.222.003.553.01.714"/><path fill="#161111" fill-rule="evenodd" d="M11.865 7.642c0-.026 0-.048-.002-.07l.049-.004a.976.976 0 0 1 .003.076v.047c.005.112.005.25.006.38v.017c0 .124 0 .24.004.317l-.05.002a10.415 10.415 0 0 1-.003-.318v-.017a12.656 12.656 0 0 0-.007-.43Z" clip-rule="evenodd"/><path fill="#B02320" fill-rule="evenodd" d="M11.986 5.361c1.196.198 1.154.253 1.154.253l.312-.933s.033-.184-.053-.296c-.085-.112-.325-.05-.325-.05s-.033-.15-.138-.187c-.105-.036-.496.142-.618.181-.122.04-.184.079-.355.076-.171-.004-.477-.155-.533-.184a.448.448 0 0 0-.213-.056c-.076.003-.155.023-.194.075-.04.053-.04.119-.04.119s-.062-.04-.161-.04-.154.013-.2.066a.999.999 0 0 0-.106.2l.112.254.007.348.233.368 1.118-.194Z" clip-rule="evenodd"/><path fill="#000" fill-rule="evenodd" d="M12.883 4.124a.155.155 0 0 1 .06.005c.06.021.097.074.12.118a.412.412 0 0 1 .023.058l.002.007a.682.682 0 0 1 .116-.014.39.39 0 0 1 .114.013c.037.01.073.03.097.062.047.06.06.14.063.201a.595.595 0 0 1-.005.102v.006l-.001.002-.02-.003.02.003v.002l-.313.934v.002l-.002.003-.001.001-.016-.011.016.012-.035-.019-.001.005c0 .004 0 .008.002.01h.001l-.005-.003a.565.565 0 0 0-.112-.039 11.032 11.032 0 0 0-1.02-.2l-1.128.197-.243-.385-.007-.35-.114-.257.004-.008v-.002l.002-.005.008-.017.025-.058a.61.61 0 0 1 .073-.124c.052-.06.116-.073.216-.073a.374.374 0 0 1 .144.029.224.224 0 0 1 .04-.1.193.193 0 0 1 .093-.063.412.412 0 0 1 .34.038c.028.014.118.06.222.1a.99.99 0 0 0 .302.082.656.656 0 0 0 .278-.05l.07-.025c.03-.01.075-.027.129-.048l.004-.002a6.42 6.42 0 0 1 .182-.069c.064-.022.127-.042.181-.055a.507.507 0 0 1 .076-.012Zm-1.91.252h-.001l-.002-.001a.334.334 0 0 0-.148-.035c-.097 0-.145.013-.185.058a.578.578 0 0 0-.067.116l-.025.056-.007.015.11.25.007.346.223.352 1.108-.192h.003c.598.1.888.163 1.028.202.06.016.094.029.113.038l.302-.905.001-.006a.416.416 0 0 0 .005-.094.319.319 0 0 0-.055-.179.142.142 0 0 0-.076-.047.349.349 0 0 0-.102-.011.617.617 0 0 0-.124.016h-.002l-.02.006-.005-.021v-.001l-.001-.005a.331.331 0 0 0-.027-.07.188.188 0 0 0-.097-.097.117.117 0 0 0-.043-.003.467.467 0 0 0-.07.011 1.654 1.654 0 0 0-.176.054 6.444 6.444 0 0 0-.182.069l-.005.002c-.053.02-.099.039-.129.048l-.068.024c-.083.03-.154.056-.294.053a1.025 1.025 0 0 1-.316-.084 2.615 2.615 0 0 1-.225-.103.429.429 0 0 0-.204-.053.373.373 0 0 0-.104.018.153.153 0 0 0-.074.05.185.185 0 0 0-.036.104v.038l-.03-.02Z" clip-rule="evenodd"/><path fill="#EBEAE3" fill-rule="evenodd" d="M13.101 5.889s.06.072.058.097c-.002.026-.028.049-.028.049s.019.018.014.046c-.004.028-.041.03-.041.03s.007.026-.017.037a.966.966 0 0 1-.118.033s-.463-.132-.96-.132c-.495 0-1.08.16-1.08.16s-.06-.021-.062-.06a.21.21 0 0 1 .007-.068s-.033.004-.042-.025c-.012-.04.005-.072.005-.072s-.023.007.002-.047c.019-.039.047-.053.047-.053s.519-.185 1.11-.188a3.322 3.322 0 0 1 1.105.193Z" clip-rule="evenodd"/><path fill="#000" fill-rule="evenodd" d="M12.768 5.798a3.372 3.372 0 0 0-.772-.093 3.603 3.603 0 0 0-1.084.179l-.018.006-.004.001h-.001l-.003.003a.122.122 0 0 0-.039.047.13.13 0 0 0-.01.028l-.001.007.018-.006-.01.018-.002.004a.094.094 0 0 0-.002.061.026.026 0 0 0 .019.019.042.042 0 0 0 .014.001l.013-.001m-.004.012-.001.004-.003.013a.204.204 0 0 0-.003.047c.001.016.014.029.029.039a.145.145 0 0 0 .026.013h.005l.019-.006a4.45 4.45 0 0 1 .328-.073c.209-.04.48-.08.728-.08a3.743 3.743 0 0 1 .94.126l.016.005h.006a1.078 1.078 0 0 0 .112-.03.021.021 0 0 0 .012-.018.03.03 0 0 0 0-.01l-.003-.01h.011a.069.069 0 0 0 .016-.005c.008-.003.016-.01.017-.02a.047.047 0 0 0-.01-.036v-.002h-.001l-.006-.006.006-.006.004-.004a.126.126 0 0 0 .008-.01.064.064 0 0 0 .013-.03l-.001-.008a.29.29 0 0 0-.045-.072 1.471 1.471 0 0 0-.007-.008l-.002-.002-.004-.002a3.239 3.239 0 0 0-.324-.095m.374.237a.066.066 0 0 1 .011.048.041.041 0 0 1-.027.031.076.076 0 0 1-.013.004v.009a.037.037 0 0 1-.022.029 1.007 1.007 0 0 1-.105.03l-.01.002h-.005l-.002-.007-.002.008h-.001l-.004-.002a1.813 1.813 0 0 0-.075-.019 4.104 4.104 0 0 0-.877-.111c-.247 0-.517.04-.725.08a5.762 5.762 0 0 0-.327.073l-.02.005-.004.001h-.002l-.002-.007-.003.007h-.003a.142.142 0 0 1-.029-.016c-.016-.01-.034-.027-.036-.051a.223.223 0 0 1 .005-.06c-.003 0-.006 0-.01-.002a.042.042 0 0 1-.03-.029.112.112 0 0 1 .002-.068.014.014 0 0 1-.004-.005c-.003-.005-.003-.012-.001-.02a.151.151 0 0 1 .011-.03.14.14 0 0 1 .045-.055l.004-.002h.001l.004.006-.003-.007h.002a.413.413 0 0 1 .022-.008c.015-.005.038-.013.067-.021a3.773 3.773 0 0 1 1.022-.16 3.39 3.39 0 0 1 1.107.193h.002l.002.002v.001h.001l.002.003.007.009a.679.679 0 0 1 .041.06l.007.016c.002.005.003.01.002.015a.078.078 0 0 1-.016.038.156.156 0 0 1-.009.01Zm-2.256-.15-.003-.008.003.007Zm.044.324-.003.007.003.001h.002l-.002-.008Zm2.04-.028-.003.008h.004l-.002-.008Zm-2.214-1.617a.107.107 0 0 0-.07.041.131.131 0 0 0-.022.102l.001.007v.002l-.016.005-.017.005-.001-.004a.173.173 0 0 1 .028-.138.142.142 0 0 1 .091-.055.135.135 0 0 1 .077.006c.015.008.023.02.028.03l.002.002c.005.008.008.012.018.015.01.002.02 0 .027-.004a.055.055 0 0 0 .01-.007h.001l.013.012.012.012v.001l-.002.001a.089.089 0 0 1-.018.013.074.074 0 0 1-.052.006.062.062 0 0 1-.04-.03c0-.001 0-.003-.002-.004-.005-.008-.007-.012-.013-.015a.103.103 0 0 0-.055-.003Z" clip-rule="evenodd"/><path fill="#FC0" fill-opacity=".941" fill-rule="evenodd" d="m13.538 4.879-.18.372-.07.012s-.043-.026-.166-.017c-.088.006-.114.028-.114.028l.16-.37s.012.08.03.126c.024.06.113.115.113.115s.013-.07-.01-.157a1.717 1.717 0 0 0-.088-.224l.325.115Z" clip-rule="evenodd"/><path fill="#000" fill-rule="evenodd" d="m13.178 4.731.386.137-.193.4-.087.015-.006-.004-.006-.002a.463.463 0 0 0-.253.012l-.028-.022.185-.43.01.064v.003l.002.01a.869.869 0 0 0 .028.11.22.22 0 0 0 .06.072.442.442 0 0 0 .02.016v-.013a.402.402 0 0 0-.014-.106 1.283 1.283 0 0 0-.076-.2l-.007-.016-.002-.004v-.001l-.02-.04Zm.133.414-.01.016-.004-.003a.67.67 0 0 1-.045-.034.246.246 0 0 1-.07-.087.498.498 0 0 1-.021-.07l-.118.272a.499.499 0 0 1 .243.002l.004.003.056-.01.166-.345-.264-.093.016.037c.019.044.04.101.054.15a.44.44 0 0 1 .012.162v.003l-.019-.003Zm0 0-.01.016.024.015.005-.027-.019-.004Z" clip-rule="evenodd"/><path fill="#121116" d="M12.093 3.723h-.201v.855h.2v-.855Z"/><path fill="#121116" fill-rule="evenodd" d="M11.874 3.723c0-.01.008-.018.018-.018h.2c.01 0 .019.008.019.018v.855c0 .01-.008.018-.018.018h-.201a.018.018 0 0 1-.018-.018v-.855Zm.036.018v.819h.165v-.819h-.165Z" clip-rule="evenodd"/><path fill="#F6CA1F" fill-rule="evenodd" d="m10.659 5.3.13.276s.549-.214 1.198-.21c.973.006 1.25.201 1.25.201l.144-.342-.108.063-.111.069-.127.048-.153-.012-.135-.1-.069-.143-.114.105-.201.045-.199-.051-.174-.22s-.13.244-.295.259c-.237.02-.375-.114-.375-.114s-.088.198-.234.234c-.232.057-.424-.108-.427-.108Z" clip-rule="evenodd"/><path fill="#000" fill-rule="evenodd" d="m11.987 5.002.186.233.19.05.194-.044.126-.117.076.16.129.094.145.012.122-.047.11-.068.148-.087-.17.403-.015-.011-.003-.002a1.277 1.277 0 0 0-.252-.094c-.19-.05-.5-.1-.986-.103a3.526 3.526 0 0 0-1.187.207l-.005.002h-.001l-.014.006-.145-.311h.03l.002.002h.001l.003.002.002.002.005.004a.694.694 0 0 0 .115.066.44.44 0 0 0 .289.032.315.315 0 0 0 .163-.125.611.611 0 0 0 .057-.092l.003-.007v-.001h.001l.009-.02.016.015v.001c.002 0 .003.002.005.004l.018.014a.508.508 0 0 0 .34.09c.076-.006.146-.066.199-.129a.789.789 0 0 0 .078-.11l.004-.008.001-.002.011-.021Zm.005.055a.834.834 0 0 1-.076.106c-.053.063-.13.132-.22.14a.538.538 0 0 1-.371-.105l-.008.015a.66.66 0 0 1-.047.074.345.345 0 0 1-.18.136.478.478 0 0 1-.31-.034.65.65 0 0 1-.083-.044l.099.212.012-.004a3.616 3.616 0 0 1 .333-.098c.219-.053.52-.106.846-.104.488.003.802.053.994.103a1.311 1.311 0 0 1 .249.091l.12-.284-.07.04-.111.07-.131.05-.161-.013-.142-.104-.062-.13-.102.095-.209.047-.207-.054-.163-.205Z" clip-rule="evenodd"/><path fill="#EEE" d="M12.878 3.615a.105.105 0 0 1-.104.105.105.105 0 0 1-.104-.105.104.104 0 1 1 .208-.001"/><path fill="#1E1E1E" fill-rule="evenodd" d="M12.86 3.614a.087.087 0 0 0-.086-.087.087.087 0 0 0-.086.088c0 .048.04.087.086.087a.087.087 0 0 0 .086-.087h.036a.123.123 0 0 1-.122.123.123.123 0 0 1-.122-.123c0-.068.054-.123.122-.124.067 0 .122.055.122.123h-.036Z" clip-rule="evenodd"/><path fill="#A3AFB8" fill-rule="evenodd" d="M12.726 3.669s.084-.002.092-.036c.009-.034-.005-.078-.005-.078s.04.044.028.078c-.011.034-.022.043-.051.05a.09.09 0 0 1-.064-.014Z" clip-rule="evenodd"/><path fill="#EEE" d="M12.626 3.733a.105.105 0 0 1-.104.105.105.105 0 0 1-.104-.105c0-.058.046-.105.103-.106.057 0 .104.047.105.105"/><path fill="#1E1E1E" fill-rule="evenodd" d="M12.608 3.732a.087.087 0 0 0-.087-.087.087.087 0 0 0-.085.088c0 .048.039.087.086.087a.087.087 0 0 0 .086-.087h.036a.123.123 0 0 1-.122.123.123.123 0 0 1-.122-.123c0-.068.054-.123.121-.124.068 0 .122.055.123.123h-.036Z" clip-rule="evenodd"/><path fill="#A3AFB8" fill-rule="evenodd" d="M12.473 3.787s.084-.002.093-.036a.176.176 0 0 0-.006-.078s.04.044.029.078c-.012.034-.023.043-.052.05a.09.09 0 0 1-.064-.014Z" clip-rule="evenodd"/><path fill="#EEE" d="M13.171 3.546a.105.105 0 0 1-.103.105.105.105 0 0 1-.105-.105c0-.058.046-.105.104-.106.057 0 .104.047.104.105"/><path fill="#1E1E1E" fill-rule="evenodd" d="M13.153 3.545a.087.087 0 0 0-.086-.087.087.087 0 0 0-.085.088c0 .048.038.087.086.087a.087.087 0 0 0 .085-.087h.036a.123.123 0 0 1-.121.123.123.123 0 0 1-.123-.123c0-.068.054-.123.122-.124.067 0 .122.055.122.123h-.036Z" clip-rule="evenodd"/><path fill="#A3AFB8" fill-rule="evenodd" d="M13.019 3.6s.084-.002.092-.036c.009-.034-.005-.078-.005-.078s.04.044.028.078c-.011.034-.022.043-.051.05a.09.09 0 0 1-.064-.014Z" clip-rule="evenodd"/><path fill="#EEE" d="M13.501 3.612a.105.105 0 0 1-.103.105.105.105 0 0 1-.105-.105.104.104 0 1 1 .208-.001"/><path fill="#1E1E1E" fill-rule="evenodd" d="M13.483 3.611a.087.087 0 0 0-.086-.086.087.087 0 0 0-.085.087c0 .049.038.087.086.087a.087.087 0 0 0 .085-.087h.036a.123.123 0 0 1-.121.123.123.123 0 0 1-.123-.123.122.122 0 1 1 .244-.001h-.036Z" clip-rule="evenodd"/><path fill="#A3AFB8" fill-rule="evenodd" d="M13.349 3.666s.084-.001.092-.035a.17.17 0 0 0-.005-.079s.04.044.028.079c-.011.034-.022.043-.051.05a.09.09 0 0 1-.064-.015Z" clip-rule="evenodd"/><path fill="#EEE" d="M13.753 3.82a.105.105 0 0 1-.104.105.105.105 0 0 1-.104-.105c0-.058.046-.106.103-.106.058 0 .104.046.105.104"/><path fill="#1E1E1E" fill-rule="evenodd" d="M13.735 3.819a.087.087 0 0 0-.087-.087.087.087 0 0 0-.085.088c0 .048.039.087.086.087a.087.087 0 0 0 .086-.088h.036a.123.123 0 0 1-.122.124.123.123 0 0 1-.122-.123c0-.068.054-.124.121-.124.068 0 .122.055.123.122h-.036Z" clip-rule="evenodd"/><path fill="#A3AFB8" fill-rule="evenodd" d="M13.6 3.873s.085-.001.093-.035a.176.176 0 0 0-.006-.078s.04.044.029.078c-.012.034-.023.043-.051.05a.09.09 0 0 1-.064-.015Z" clip-rule="evenodd"/><path fill="#EEE" d="M13.861 4.16a.105.105 0 0 1-.103.105.105.105 0 0 1-.104-.105c0-.058.046-.106.103-.106.057 0 .104.046.104.105"/><path fill="#1E1E1E" fill-rule="evenodd" d="M13.843 4.159a.087.087 0 0 0-.086-.087.087.087 0 0 0-.085.088c0 .048.039.087.086.087a.087.087 0 0 0 .085-.088h.037a.123.123 0 0 1-.122.124.123.123 0 0 1-.122-.123c0-.068.053-.124.12-.124.068 0 .123.055.123.122h-.036Z" clip-rule="evenodd"/><path fill="#A3AFB8" fill-rule="evenodd" d="M13.71 4.213s.083-.001.092-.035a.176.176 0 0 0-.006-.078s.04.044.029.078c-.012.034-.023.043-.052.05a.09.09 0 0 1-.064-.015Z" clip-rule="evenodd"/><path fill="#EEE" d="M13.821 4.504a.105.105 0 0 1-.104.105.105.105 0 0 1-.104-.105c0-.058.046-.105.104-.106.057 0 .104.047.104.105"/><path fill="#1E1E1E" fill-rule="evenodd" d="M13.803 4.503a.087.087 0 0 0-.086-.087.087.087 0 0 0-.085.088c0 .048.038.087.085.087a.087.087 0 0 0 .086-.087h.036a.123.123 0 0 1-.121.123.123.123 0 0 1-.123-.123c0-.068.054-.123.122-.124.067 0 .122.055.122.123h-.036Z" clip-rule="evenodd"/><path fill="#A3AFB8" fill-rule="evenodd" d="M13.669 4.558s.084-.002.092-.036c.009-.034-.005-.078-.005-.078s.04.044.028.078c-.011.034-.022.043-.051.05a.09.09 0 0 1-.064-.014Z" clip-rule="evenodd"/><path fill="#EEE" d="M13.668 4.805a.105.105 0 0 1-.103.106.105.105 0 0 1-.104-.105c0-.058.046-.106.103-.106.057 0 .104.046.104.105"/><path fill="#1E1E1E" fill-rule="evenodd" d="M13.65 4.805a.087.087 0 0 0-.086-.087.087.087 0 0 0-.085.088c0 .048.038.087.086.087a.087.087 0 0 0 .085-.088h.036a.123.123 0 0 1-.121.124.123.123 0 0 1-.123-.123c0-.068.054-.124.122-.124.067 0 .122.055.122.122h-.036Z" clip-rule="evenodd"/><path fill="#A3AFB8" fill-rule="evenodd" d="M13.516 4.86s.084-.002.092-.036c.009-.034-.005-.078-.005-.078s.04.044.028.078c-.011.034-.022.043-.051.05a.09.09 0 0 1-.064-.015Z" clip-rule="evenodd"/><path fill="#EEE" d="M12.38 3.823a.105.105 0 0 1-.104.106.105.105 0 0 1-.104-.105c0-.058.046-.106.104-.106.057 0 .104.047.104.105"/><path fill="#1E1E1E" fill-rule="evenodd" d="M12.362 3.823a.087.087 0 0 0-.086-.087.087.087 0 0 0-.085.088c0 .048.038.087.085.087a.087.087 0 0 0 .086-.088h.036a.123.123 0 0 1-.121.124.123.123 0 0 1-.123-.123c0-.068.054-.124.122-.124.067 0 .122.055.122.122h-.036Z" clip-rule="evenodd"/><path fill="#A3AFB8" fill-rule="evenodd" d="M12.228 3.878s.084-.002.092-.036c.009-.034-.005-.078-.005-.078s.04.044.028.078c-.011.034-.022.043-.051.05a.09.09 0 0 1-.064-.014Z" clip-rule="evenodd"/><path fill="#EEE" d="M12.066 3.796a.087.087 0 0 1-.086.088.087.087 0 0 1-.087-.087c0-.049.038-.088.086-.089.048 0 .087.04.087.088"/><path fill="#1E1E1E" fill-rule="evenodd" d="M12.048 3.796a.07.07 0 0 0-.069-.07.07.07 0 0 0-.068.07c0 .04.03.07.069.07a.07.07 0 0 0 .068-.07h.036a.106.106 0 0 1-.104.106.106.106 0 0 1-.106-.105c0-.059.047-.106.105-.107.058 0 .105.047.105.105h-.036Z" clip-rule="evenodd"/><path fill="#A3AFB8" fill-rule="evenodd" d="M11.939 3.842s.07-.002.077-.03c.008-.029-.004-.066-.004-.066s.033.037.023.066c-.01.028-.018.036-.042.041a.076.076 0 0 1-.054-.011Z" clip-rule="evenodd"/><path fill="#EEE" d="M12.067 3.906a.087.087 0 0 1-.086.088.088.088 0 0 1-.087-.088c0-.048.038-.088.086-.088.048 0 .087.039.087.087"/><path fill="#1E1E1E" fill-rule="evenodd" d="M12.05 3.905a.07.07 0 0 0-.07-.07.07.07 0 0 0-.068.071c0 .039.03.07.069.07a.07.07 0 0 0 .068-.07h.036a.106.106 0 0 1-.104.106.105.105 0 0 1-.105-.106c0-.058.046-.106.104-.106.058 0 .105.047.105.105h-.036Z" clip-rule="evenodd"/><path fill="#A3AFB8" fill-rule="evenodd" d="M11.94 3.95s.07 0 .077-.029a.143.143 0 0 0-.004-.065s.033.037.023.065c-.01.029-.018.036-.042.042a.076.076 0 0 1-.054-.012Z" clip-rule="evenodd"/><path fill="#EEE" d="M12.073 4.067a.087.087 0 0 1-.086.088.087.087 0 0 1-.087-.088c0-.048.038-.088.086-.088.048 0 .087.039.087.087"/><path fill="#1E1E1E" fill-rule="evenodd" d="M12.055 4.066a.07.07 0 0 0-.069-.07.07.07 0 0 0-.068.071c0 .04.03.07.069.07a.07.07 0 0 0 .068-.07h.037a.106.106 0 0 1-.105.106.105.105 0 0 1-.105-.106c0-.058.046-.106.104-.106.058 0 .105.047.105.105h-.036Z" clip-rule="evenodd"/><path fill="#A3AFB8" fill-rule="evenodd" d="M11.946 4.112s.07-.001.077-.03a.142.142 0 0 0-.004-.065s.033.037.024.065c-.01.029-.02.036-.043.042a.075.075 0 0 1-.054-.012Z" clip-rule="evenodd"/><path fill="#EEE" d="M12.082 4.238a.095.095 0 0 1-.093.095.095.095 0 0 1-.095-.095.094.094 0 1 1 .188-.001"/><path fill="#1E1E1E" fill-rule="evenodd" d="M12.064 4.237a.076.076 0 0 0-.076-.076.077.077 0 0 0-.075.077c0 .043.034.077.076.077a.077.077 0 0 0 .075-.077h.037c0 .062-.05.113-.112.113a.113.113 0 0 1-.113-.113.113.113 0 1 1 .224-.001h-.036Z" clip-rule="evenodd"/><path fill="#A3AFB8" fill-rule="evenodd" d="M11.945 4.287s.076-.001.083-.032c.008-.031-.005-.071-.005-.071s.036.04.026.07c-.01.032-.02.04-.046.046a.082.082 0 0 1-.058-.013Z" clip-rule="evenodd"/><path fill="#EEE" d="M12.092 4.467a.105.105 0 0 1-.103.106.105.105 0 0 1-.104-.105c0-.058.046-.106.103-.106.057 0 .104.046.104.105"/><path fill="#1E1E1E" fill-rule="evenodd" d="M12.074 4.467a.087.087 0 0 0-.086-.087.087.087 0 0 0-.085.088c0 .048.039.087.086.087a.087.087 0 0 0 .085-.088h.037a.123.123 0 0 1-.122.124.123.123 0 0 1-.122-.123c0-.068.053-.124.12-.124.068 0 .123.055.123.122h-.036Z" clip-rule="evenodd"/><path fill="#A3AFB8" fill-rule="evenodd" d="M11.94 4.521s.084-.001.093-.035a.176.176 0 0 0-.006-.078s.04.044.028.078c-.011.034-.022.043-.05.05a.09.09 0 0 1-.065-.015Z" clip-rule="evenodd"/><path fill="#EEE" d="M12.082 4.938a.098.098 0 0 1-.097.1.098.098 0 0 1-.098-.1c0-.054.043-.098.097-.099.054 0 .098.044.098.098"/><path fill="#1E1E1E" fill-rule="evenodd" d="M12.064 4.938a.08.08 0 0 0-.08-.08.08.08 0 0 0-.079.08.08.08 0 0 0 .08.081.08.08 0 0 0 .079-.08h.036a.116.116 0 0 1-.115.116.116.116 0 0 1-.116-.116c0-.065.05-.117.115-.118.064 0 .116.052.116.116h-.036Z" clip-rule="evenodd"/><path fill="#A3AFB8" fill-rule="evenodd" d="M11.939 4.99s.079-.002.087-.034a.165.165 0 0 0-.005-.074s.037.042.026.074c-.01.032-.02.04-.048.046a.085.085 0 0 1-.06-.013Z" clip-rule="evenodd"/><path fill="#EEE" d="M11.8 3.82a.105.105 0 0 1-.103.106.105.105 0 0 1-.104-.105c0-.058.046-.105.103-.106.058 0 .104.047.105.105"/><path fill="#1E1E1E" fill-rule="evenodd" d="M11.783 3.82a.087.087 0 0 0-.086-.087.087.087 0 0 0-.086.088c0 .048.04.087.086.087a.087.087 0 0 0 .086-.087h.036a.123.123 0 0 1-.122.123.123.123 0 0 1-.122-.123c0-.068.054-.123.121-.124.068 0 .123.055.123.123h-.036Z" clip-rule="evenodd"/><path fill="#A3AFB8" fill-rule="evenodd" d="M11.649 3.875s.084-.002.092-.036c.009-.034-.005-.078-.005-.078s.04.044.028.078c-.011.034-.023.043-.051.05a.09.09 0 0 1-.064-.014Z" clip-rule="evenodd"/><path fill="#EEE" d="M11.543 3.719a.105.105 0 0 1-.103.105.105.105 0 0 1-.104-.105c0-.058.046-.105.103-.105.057 0 .104.046.104.104"/><path fill="#1E1E1E" fill-rule="evenodd" d="M11.525 3.718a.086.086 0 0 0-.086-.086.087.087 0 0 0-.085.087c0 .049.039.087.086.087a.087.087 0 0 0 .085-.087h.037a.123.123 0 0 1-.122.123.123.123 0 0 1-.122-.123.122.122 0 1 1 .243-.001h-.036Z" clip-rule="evenodd"/><path fill="#A3AFB8" fill-rule="evenodd" d="M11.391 3.773s.084-.001.093-.036a.176.176 0 0 0-.006-.078s.04.044.028.078c-.011.035-.022.043-.05.05a.09.09 0 0 1-.065-.014Z" clip-rule="evenodd"/><path fill="#EEE" d="M11.297 3.603a.105.105 0 0 1-.104.105.105.105 0 0 1-.104-.105.104.104 0 1 1 .208-.001"/><path fill="#1E1E1E" fill-rule="evenodd" d="M11.279 3.602a.087.087 0 0 0-.087-.086.087.087 0 0 0-.085.087c0 .049.039.087.086.087a.087.087 0 0 0 .086-.087h.036a.123.123 0 0 1-.122.123.123.123 0 0 1-.122-.123c0-.067.054-.123.121-.124.068 0 .122.055.123.123h-.036Z" clip-rule="evenodd"/><path fill="#A3AFB8" fill-rule="evenodd" d="M11.144 3.657s.084-.001.093-.036a.176.176 0 0 0-.006-.078s.04.044.029.078c-.012.035-.023.043-.051.05a.09.09 0 0 1-.065-.014Z" clip-rule="evenodd"/><path fill="#EEE" d="M11.014 3.541a.105.105 0 0 1-.104.106.105.105 0 0 1-.104-.105c0-.058.046-.106.103-.106.057 0 .104.046.105.104"/><path fill="#1E1E1E" fill-rule="evenodd" d="M10.996 3.54a.087.087 0 0 0-.087-.086.087.087 0 0 0-.085.088c0 .048.039.087.086.086a.087.087 0 0 0 .086-.087h.036a.123.123 0 0 1-.122.124.123.123 0 0 1-.122-.123c0-.068.054-.124.121-.124.068 0 .122.054.123.122h-.036Z" clip-rule="evenodd"/><path fill="#A3AFB8" fill-rule="evenodd" d="M10.861 3.595s.084-.001.093-.035c.008-.034-.006-.079-.006-.079s.04.045.029.079c-.012.034-.023.043-.052.05a.09.09 0 0 1-.064-.015Z" clip-rule="evenodd"/><path fill="#EEE" d="M10.68 3.62a.105.105 0 0 1-.104.106.105.105 0 0 1-.104-.105.104.104 0 1 1 .208-.001"/><path fill="#1E1E1E" fill-rule="evenodd" d="M10.662 3.62a.086.086 0 0 0-.086-.086.087.087 0 0 0-.086.087c0 .049.04.087.086.087a.087.087 0 0 0 .086-.087h.036a.123.123 0 0 1-.122.123.123.123 0 0 1-.122-.123.122.122 0 1 1 .244-.001h-.036Z" clip-rule="evenodd"/><path fill="#A3AFB8" fill-rule="evenodd" d="M10.528 3.675s.084-.001.092-.036c.009-.034-.005-.078-.005-.078s.04.044.028.078c-.011.035-.023.043-.051.05a.09.09 0 0 1-.064-.014Z" clip-rule="evenodd"/><path fill="#EEE" d="M10.444 3.857a.105.105 0 0 1-.104.105.105.105 0 0 1-.104-.105.104.104 0 1 1 .208-.001"/><path fill="#1E1E1E" fill-rule="evenodd" d="M10.426 3.856a.087.087 0 0 0-.086-.086.087.087 0 0 0-.085.087c0 .049.038.087.085.087a.087.087 0 0 0 .086-.087h.036a.123.123 0 0 1-.121.123.123.123 0 0 1-.123-.123.122.122 0 1 1 .244-.001h-.036Z" clip-rule="evenodd"/><path fill="#A3AFB8" fill-rule="evenodd" d="M10.292 3.911s.084-.001.092-.036c.009-.034-.005-.078-.005-.078s.04.044.028.078c-.011.035-.022.043-.051.05a.09.09 0 0 1-.064-.014Z" clip-rule="evenodd"/><path fill="#EEE" d="M10.346 4.187a.105.105 0 0 1-.103.105.105.105 0 0 1-.104-.105c0-.058.046-.105.103-.105.057 0 .104.046.104.104"/><path fill="#1E1E1E" fill-rule="evenodd" d="M10.328 4.186a.087.087 0 0 0-.086-.086.087.087 0 0 0-.086.087c0 .049.04.087.086.087a.087.087 0 0 0 .086-.087h.036a.123.123 0 0 1-.121.123.123.123 0 0 1-.123-.123.122.122 0 1 1 .244-.001h-.036Z" clip-rule="evenodd"/><path fill="#A3AFB8" fill-rule="evenodd" d="M10.194 4.241s.084-.001.092-.036c.009-.034-.005-.078-.005-.078s.04.044.028.078c-.011.035-.022.043-.051.05a.09.09 0 0 1-.064-.014Z" clip-rule="evenodd"/><path fill="#EEE" d="M10.39 4.532a.105.105 0 0 1-.104.105.105.105 0 0 1-.104-.105c0-.058.046-.105.103-.106.058 0 .104.047.105.105"/><path fill="#1E1E1E" fill-rule="evenodd" d="M10.372 4.53a.086.086 0 0 0-.087-.086.087.087 0 0 0-.085.088c0 .048.039.087.086.087a.087.087 0 0 0 .086-.087h.036a.123.123 0 0 1-.122.123.123.123 0 0 1-.122-.123c0-.068.054-.123.121-.124.068 0 .122.055.123.123h-.036Z" clip-rule="evenodd"/><path fill="#A3AFB8" fill-rule="evenodd" d="M10.238 4.586s.084-.002.092-.036a.16.16 0 0 0-.006-.078s.04.044.029.078c-.012.034-.023.043-.051.05a.09.09 0 0 1-.064-.014Z" clip-rule="evenodd"/><path fill="#EEE" d="M10.55 4.844a.105.105 0 0 1-.104.105.105.105 0 0 1-.104-.105c0-.058.046-.105.103-.106.057 0 .104.047.104.105"/><path fill="#1E1E1E" fill-rule="evenodd" d="M10.531 4.843a.086.086 0 0 0-.086-.087.087.087 0 0 0-.085.088c0 .048.039.087.086.087a.086.086 0 0 0 .085-.087h.037a.123.123 0 0 1-.122.123.123.123 0 0 1-.122-.123c0-.068.053-.123.12-.124.068 0 .123.055.123.123h-.036Z" clip-rule="evenodd"/><path fill="#A3AFB8" fill-rule="evenodd" d="M10.397 4.898s.084-.002.093-.036a.176.176 0 0 0-.006-.078s.04.044.028.078c-.011.034-.022.043-.05.05a.09.09 0 0 1-.065-.014Z" clip-rule="evenodd"/><path fill="#EEE" d="M10.73 5.237c.015.056-.001.109-.036.118-.035.01-.075-.028-.09-.084-.015-.056 0-.11.035-.12.035-.009.075.029.09.085"/><path fill="#1E1E1E" fill-rule="evenodd" d="M10.68 5.182c-.014-.012-.027-.015-.036-.013-.01.003-.018.012-.024.03a.127.127 0 0 0 .001.067c.007.025.02.046.033.058.014.013.026.016.036.014.009-.003.018-.012.023-.03a.126.126 0 0 0 0-.067l.034-.01a.162.162 0 0 1 0 .087c-.006.025-.022.048-.048.054-.026.007-.05-.004-.07-.021a.161.161 0 0 1-.042-.076.16.16 0 0 1-.001-.086c.007-.025.023-.048.048-.055.026-.007.05.004.07.022a.16.16 0 0 1 .043.075l-.035.01a.125.125 0 0 0-.033-.059Z" clip-rule="evenodd"/><path fill="#A3AFB8" fill-rule="evenodd" d="M10.652 5.314s.05-.015.046-.05a.25.25 0 0 0-.023-.074s.035.036.037.07c.002.035-.002.046-.018.057-.01.008-.03.005-.043-.003Z" clip-rule="evenodd"/><path fill="#EEE" d="M13.413 5.257c-.014.056-.054.095-.089.086-.034-.008-.052-.06-.038-.117.014-.057.053-.096.088-.087.035.008.053.06.039.117"/><path fill="#1E1E1E" fill-rule="evenodd" d="M13.395 5.185c-.006-.018-.016-.027-.025-.029-.009-.002-.021.002-.035.015a.126.126 0 0 0-.031.06.126.126 0 0 0 0 .066c.006.018.016.027.025.029.009.002.021-.001.035-.015a.126.126 0 0 0 .031-.059l.035.009a.163.163 0 0 1-.04.076c-.02.018-.044.03-.07.024-.026-.006-.042-.028-.05-.053a.161.161 0 0 1-.001-.086.161.161 0 0 1 .04-.077c.02-.018.044-.03.07-.024.025.006.042.028.05.053a.162.162 0 0 1 .002.086l-.035-.008a.125.125 0 0 0-.001-.067Z" clip-rule="evenodd"/><path fill="#A3AFB8" fill-rule="evenodd" d="M13.307 5.286s.052.012.065-.02c.013-.032.015-.077.015-.077s.014.049-.001.08c-.015.032-.024.038-.043.04-.013.002-.029-.01-.036-.023Z" clip-rule="evenodd"/><path fill="#B3A192" fill-rule="evenodd" d="m11.899 3.25.007.175s-.208.019-.217.038c-.04.09.049.213.049.213s.07-.052.247-.052a.64.64 0 0 1 .254.041s.045-.071.045-.124c0-.052-.018-.104-.018-.104s-.086-.012-.113-.012h-.075l-.007-.18-.172.004Z" clip-rule="evenodd"/><path fill="#000" fill-rule="evenodd" d="m12.088 3.227.008.18h.057a.805.805 0 0 1 .111.011h.004l-.002.019.017-.007v.003l.003.007a.405.405 0 0 1 .016.101.23.23 0 0 1-.024.09.457.457 0 0 1-.021.04l-.002.003-.016-.01.016.01-.009.014-.014-.007h-.001l-.003-.001a.796.796 0 0 0-.428-.013.268.268 0 0 0-.05.022l-.001.001-.015.011-.01-.014.014-.01-.015.01v-.002l-.004-.004a.356.356 0 0 1-.037-.07c-.018-.044-.033-.103-.01-.156a.027.027 0 0 1 .012-.011.23.23 0 0 1 .04-.012 1.031 1.031 0 0 1 .148-.022l.015-.001-.007-.177.208-.005Zm-.18.216h-.002l-.007.001a2.84 2.84 0 0 0-.168.022.19.19 0 0 0-.027.008c-.015.037-.005.083.011.123.008.02.018.037.025.05l.003.005a.307.307 0 0 1 .046-.02.831.831 0 0 1 .44.009l.003.001a.396.396 0 0 0 .014-.027.194.194 0 0 0 .02-.074.298.298 0 0 0-.009-.068l-.005-.02h-.002a3.153 3.153 0 0 0-.097-.01h-.092l-.007-.179-.136.003.007.175-.017.001Zm.358-.006.017-.007-.004-.01-.011-.001-.002.018Z" clip-rule="evenodd"/><path fill="#F0DDCB" d="M12.196 3.522c0 .02-.016.036-.037.036a.037.037 0 0 1-.037-.036c0-.02.016-.035.037-.035.02 0 .037.015.037.035"/><path fill="#121116" fill-rule="evenodd" d="M12.187 3.522a.027.027 0 0 0-.028-.026v-.01.01a.027.027 0 0 0-.028.026c0 .015.012.027.028.027a.027.027 0 0 0 .028-.027h.019a.046.046 0 0 1-.047.045.046.046 0 0 1-.047-.044c0-.026.021-.045.047-.046.025 0 .046.02.046.045h-.018Z" clip-rule="evenodd"/><path fill="#F0DDCB" d="M12.282 3.541a.038.038 0 0 1-.039.038.038.038 0 0 1-.039-.037.04.04 0 0 1 .04-.038c.02 0 .038.017.038.037"/><path fill="#121116" fill-rule="evenodd" d="M12.273 3.541a.03.03 0 0 0-.03-.028v-.009.01a.029.029 0 0 0-.03.028c0 .015.014.028.03.028.017 0 .03-.013.03-.028h.018a.047.047 0 0 1-.048.046v-.01.01a.047.047 0 0 1-.048-.046h.01-.01c0-.026.022-.047.048-.047.026 0 .048.02.048.046h-.018Z" clip-rule="evenodd"/><path fill="#F0DDCB" d="M12.11 3.521c0 .02-.016.036-.037.036a.037.037 0 0 1-.037-.036c0-.02.016-.036.037-.036.02 0 .037.016.037.036"/><path fill="#121116" fill-rule="evenodd" d="M12.101 3.52a.027.027 0 0 0-.028-.026.027.027 0 0 0-.028.027m.056 0h.018-.018Zm.018 0a.046.046 0 0 0-.046-.045l.046.045Zm-.046-.045a.046.046 0 0 0-.047.045l.047-.045Zm0 .072a.027.027 0 0 0 .028-.027h.018a.046.046 0 0 1-.046.045.046.046 0 0 1-.047-.045m.047.027a.027.027 0 0 1-.028-.027l.028.027Z" clip-rule="evenodd"/><path fill="#F0DDCB" d="M11.938 3.523c0 .02-.018.037-.04.037a.038.038 0 0 1-.038-.037c0-.02.017-.037.039-.037.021 0 .039.016.039.037"/><path fill="#121116" fill-rule="evenodd" d="M11.928 3.523a.029.029 0 0 0-.03-.028.029.029 0 0 0-.029.028c0 .015.013.028.03.028s.03-.013.03-.028h.018a.047.047 0 0 1-.048.046V3.56v.01a.047.047 0 0 1-.048-.047c0-.026.021-.046.047-.047.027 0 .049.02.049.046h-.018Z" clip-rule="evenodd"/><path fill="#F0DDCB" d="M11.842 3.53c0 .02-.017.037-.039.037a.038.038 0 0 1-.039-.037c0-.021.017-.038.039-.038.021 0 .039.017.039.037"/><path fill="#121116" fill-rule="evenodd" d="M11.833 3.53a.029.029 0 0 0-.03-.029.029.029 0 0 0-.03.028c0 .016.013.028.03.028s.03-.013.03-.028h.018a.047.047 0 0 1-.048.047.047.047 0 0 1-.048-.046c0-.026.022-.047.048-.047.026 0 .048.02.048.046h-.018Z" clip-rule="evenodd"/><path fill="#F0DDCB" d="M12.018 3.422a.032.032 0 0 1-.033.031.032.032 0 0 1-.033-.031c0-.018.015-.032.033-.032.018 0 .033.014.033.031"/><path fill="#121116" fill-rule="evenodd" d="M12.008 3.422a.023.023 0 0 0-.023-.022v-.01.01a.023.023 0 0 0-.024.022m.047 0h.019-.018Zm.019 0a.04.04 0 0 0-.042-.04l.042.04Zm-.084 0c0-.023.019-.04.042-.04m0 .062c.013 0 .024-.01.024-.022h.018c0 .022-.02.04-.042.04a.041.041 0 0 1-.042-.04m.042.022a.023.023 0 0 1-.024-.022l.024.022Z" clip-rule="evenodd"/><path fill="#F0DDCB" d="M12.018 3.276a.032.032 0 0 1-.033.031.032.032 0 0 1-.033-.031c0-.018.015-.032.033-.032.018 0 .033.014.033.031"/><path fill="#121116" fill-rule="evenodd" d="M12.008 3.275a.023.023 0 0 0-.023-.022.023.023 0 0 0-.024.023c0 .012.01.022.024.022.013 0 .024-.01.024-.022h.018c0 .022-.02.04-.042.04a.041.041 0 0 1-.042-.04c0-.023.019-.04.042-.041.022 0 .042.018.042.04h-.018Z" clip-rule="evenodd"/><path fill="#F0DDCB" d="M12.018 3.354a.032.032 0 0 1-.033.032.032.032 0 0 1-.033-.032c0-.017.015-.031.033-.031.018 0 .033.014.033.031"/><path fill="#121116" fill-rule="evenodd" d="M12.008 3.354a.023.023 0 0 0-.023-.022.023.023 0 0 0-.024.022m.047 0h.019-.018Zm.019 0c0-.023-.02-.04-.042-.04l.042.04Zm-.084 0c0-.022.019-.04.042-.04m0 .063c.013 0 .024-.01.024-.023h.018c0 .023-.02.04-.042.04a.041.041 0 0 1-.042-.04m.042.023a.023.023 0 0 1-.024-.023l.024.023Z" clip-rule="evenodd"/><path fill="#F0DDCB" d="M11.745 3.555c0 .02-.017.036-.038.036a.037.037 0 0 1-.037-.036c0-.02.016-.035.037-.036.02 0 .038.016.038.036"/><path fill="#121116" fill-rule="evenodd" d="M11.736 3.555a.028.028 0 0 0-.029-.026.028.028 0 0 0-.028.026c0 .015.012.027.028.027a.028.028 0 0 0 .029-.027h.018a.046.046 0 0 1-.047.046v-.01.01a.046.046 0 0 1-.046-.045c0-.026.02-.046.046-.046.025 0 .047.02.047.045h-.018Z" clip-rule="evenodd"/><path fill="#916C68" d="M12.026 3.513a.04.04 0 0 1-.041.04.04.04 0 0 1-.041-.04.04.04 0 0 1 .04-.039.04.04 0 0 1 .042.039"/><path fill="#4D3126" fill-rule="evenodd" d="M12.017 3.513a.031.031 0 0 0-.032-.03.031.031 0 0 0-.032.03c0 .017.014.03.032.03a.031.031 0 0 0 .032-.03h.018a.05.05 0 0 1-.05.049.05.05 0 0 1-.05-.048.05.05 0 0 1 .05-.05.05.05 0 0 1 .05.049h-.018Z" clip-rule="evenodd"/><path fill="#EEE" d="M12.064 2.991a.077.077 0 0 1-.077.078.077.077 0 0 1-.077-.077c0-.043.034-.078.076-.079.043 0 .077.035.078.078"/><path fill="#1E1E1E" fill-rule="evenodd" d="M12.046 2.99a.06.06 0 0 0-.06-.059.06.06 0 0 0-.058.06c0 .034.027.06.059.06a.06.06 0 0 0 .059-.06h.036a.095.095 0 0 1-.095.096.096.096 0 0 1-.095-.095c0-.053.042-.096.094-.097.053 0 .095.043.096.095h-.036Z" clip-rule="evenodd"/><path fill="#A3AFB8" fill-rule="evenodd" d="M11.951 3.031s.062 0 .068-.026c.007-.025-.004-.058-.004-.058s.03.033.021.058c-.008.025-.016.032-.038.037a.067.067 0 0 1-.047-.01Z" clip-rule="evenodd"/><path fill="#FC0" fill-rule="evenodd" d="M10.764 5.606s.069.064.087.12c.018.058.046.211.046.211s.718-.199 1.07-.183c.352.016 1.164.195 1.164.195l.03-.179c.016-.091.082-.192.082-.192s-.775-.242-1.265-.22c-.489.023-.734.076-.843.11a7.48 7.48 0 0 0-.37.138Z" clip-rule="evenodd"/><path fill="#000" fill-rule="evenodd" d="m13.245 5.57-.002.008.002-.008.01.004-.005.009h-.001l-.002.004-.008.012a.483.483 0 0 0-.07.172 10.9 10.9 0 0 0-.021.124l-.007.04-.002.01v.005l-.008-.001-.002.007-.01-.002a5.598 5.598 0 0 0-.122-.026 15.24 15.24 0 0 0-.318-.063 6.144 6.144 0 0 0-.712-.103c-.175-.008-.442.038-.665.085a8.005 8.005 0 0 0-.395.096l-.006.001h-.002l-.002-.007-.008.001v-.001l-.001-.005-.004-.018a3.393 3.393 0 0 0-.04-.185.26.26 0 0 0-.05-.08.537.537 0 0 0-.035-.037V5.61c-.002-.004-.002-.01 0-.01v-.002h.002v-.001h.002a.353.353 0 0 1 .008-.004l.03-.012a13.74 13.74 0 0 1 .331-.121c.11-.035.356-.088.846-.11.246-.012.563.043.818.1a6.853 6.853 0 0 1 .415.109l.025.008.007.002h.002Zm-2.476.03Zm.01.008.028-.01a13.104 13.104 0 0 1 .33-.122c.109-.034.353-.087.842-.11.243-.01.559.044.813.102a6.844 6.844 0 0 1 .438.115.392.392 0 0 0-.03.053.5.5 0 0 0-.047.133l-.021.123-.007.04v.007h-.002A5.11 5.11 0 0 0 13 5.913a17.74 17.74 0 0 0-.318-.064 6.16 6.16 0 0 0-.715-.103c-.177-.008-.445.038-.669.086a8.012 8.012 0 0 0-.372.089l-.023.006a3.44 3.44 0 0 0-.044-.203.274.274 0 0 0-.052-.084.472.472 0 0 0-.026-.03s-.002 0-.002-.002Zm.118.33h-.008l.001.01.009-.003-.002-.008Zm2.234.01-.002.008.008.002.002-.008-.008-.001Z" clip-rule="evenodd"/><path fill="#FC0" fill-rule="evenodd" d="M11.835 2.701h.309s-.076.053-.092.103c-.013.043-.01.114-.01.114s.085 0 .123-.032c.037-.032.116-.088.116-.088v.393s-.076-.073-.122-.097c-.055-.029-.11-.04-.11-.04s0 .064.026.102l.13.18-.44.016s.104-.11.147-.19c.028-.053.017-.107.017-.107s-.075 0-.113.026c-.037.026-.103.105-.103.105v-.378s.029.073.09.1c.062.029.12.014.12.014s.012-.075-.013-.122c-.026-.048-.08-.1-.075-.099Z" clip-rule="evenodd"/><path fill="#000" fill-rule="evenodd" d="M11.875 2.72c.016.02.037.046.05.072a.192.192 0 0 1 .02.086.347.347 0 0 1-.004.043v.003l-.018-.002.005.017h-.001l-.003.001a.212.212 0 0 1-.128-.015.178.178 0 0 1-.064-.052v.265l.006-.007a.503.503 0 0 1 .068-.065.188.188 0 0 1 .078-.026.376.376 0 0 1 .041-.003h.003v.018l.018-.004v.001l.001.002.001.008a.19.19 0 0 1-.02.108.85.85 0 0 1-.122.163l.365-.014-.035-.049a9.905 9.905 0 0 1-.076-.104.179.179 0 0 1-.026-.072.302.302 0 0 1-.003-.028v-.011h.018l.003-.018h.003a.29.29 0 0 1 .033.01c.022.006.05.016.08.031a.501.501 0 0 1 .08.06l.015.012v-.316a1.312 1.312 0 0 0-.087.066.176.176 0 0 1-.084.032.378.378 0 0 1-.048.004h-.001v-.018l-.018.001v-.043c0-.023.003-.053.01-.077a.2.2 0 0 1 .057-.079l.001-.001h-.22l.002.001Zm-.025-.028Zm.304.024-.003.002a.287.287 0 0 0-.035.029.168.168 0 0 0-.046.062.283.283 0 0 0-.01.09.335.335 0 0 0 .027-.003.142.142 0 0 0 .066-.024 1.565 1.565 0 0 1 .114-.086l.002-.002h.001l.029-.02v.47l-.03-.03h-.001l-.003-.003-.01-.008a.477.477 0 0 0-.105-.083.418.418 0 0 0-.082-.032l.002.01c.003.02.009.042.02.057a9.422 9.422 0 0 0 .114.157l.016.023.02.027-.52.02.031-.032.001-.001.003-.004a1.502 1.502 0 0 0 .053-.06.81.81 0 0 0 .088-.122.15.15 0 0 0 .017-.08.345.345 0 0 0-.024.003.154.154 0 0 0-.062.02.471.471 0 0 0-.089.089l-.008.009-.002.002v.001l-.033.039v-.428l.035-.007.001.003.004.007a.221.221 0 0 0 .015.027c.014.02.034.042.06.054a.178.178 0 0 0 .097.014v-.028a.157.157 0 0 0-.013-.07.415.415 0 0 0-.061-.08l-.006-.007a.128.128 0 0 1-.006-.008l-.003-.006-.001-.007a.018.018 0 0 1 .019-.017h.366m-.16.235-.017.001v.017h.018v-.018Zm.007.137.003-.018-.021-.004v.022h.018Zm-.12 0 .017-.004-.002-.014h-.015v.018Zm-.006-.133.005.017.011-.003.002-.011-.018-.003Zm-.193-.12Z" clip-rule="evenodd"/><path fill="#FC0" fill-rule="evenodd" d="M11.811 3.948s-.22-.002-.408-.114c-.188-.11-.377-.227-.656-.161-.057.014-.267.106-.36.405-.065.21.01.463.077.577.066.114.173.23.173.23l.113-.078s-.289-.245-.255-.562c.035-.318.194-.392.194-.392s.196-.154.458-.008.518.212.518.212.241.058.262.055c.022-.002-.121-.166-.116-.164Z" clip-rule="evenodd"/><path fill="#121116" fill-rule="evenodd" d="m11.401 3.812.012.007a.832.832 0 0 0 .362.11.706.706 0 0 0 .034.001h.002l.008.002-.008.034c.002 0 .006 0 .01-.003a.018.018 0 0 0 .007-.01c.002-.005 0-.01 0-.01a.014.014 0 0 0-.002-.004l.003.004.015.018.003.003.042.053a.892.892 0 0 1 .056.08.031.031 0 0 1 .003.015.021.021 0 0 1-.006.012.02.02 0 0 1-.012.006 3.816 3.816 0 0 1-.258-.053l-.01-.003h-.001l.004-.016-.004.016h-.003l-.009-.003a1.742 1.742 0 0 1-.15-.049 2.465 2.465 0 0 1-.361-.161.423.423 0 0 0-.406-.014.296.296 0 0 0-.03.019H10.7v.001l-.002.001-.002.001a.147.147 0 0 0-.022.015.301.301 0 0 0-.055.057.606.606 0 0 0 .006.694.9.9 0 0 0 .134.156l.002.002m-.124.091-.014.012v-.001c-.002 0-.003-.002-.005-.004a1.45 1.45 0 0 1-.17-.227.847.847 0 0 1-.09-.258.71.71 0 0 1 .012-.333c.095-.307.31-.403.373-.418.28-.066.474.048.658.157M10.64 4.86l.081-.055a.88.88 0 0 1-.126-.15.641.641 0 0 1-.004-.736.335.335 0 0 1 .088-.081l.001-.001a.28.28 0 0 1 .035-.022.459.459 0 0 1 .44.014 2.43 2.43 0 0 0 .512.21h.002l.011.003a8.09 8.09 0 0 0 .22.049.959.959 0 0 0-.039-.052l-.042-.052-.003-.003-.014-.018H11.8a.743.743 0 0 1-.126-.015.868.868 0 0 1-.289-.106c-.185-.11-.367-.218-.634-.154-.052.012-.256.1-.347.392a.676.676 0 0 0-.01.316.811.811 0 0 0 .195.402l.043.051.008.008Zm1.17-.894.001-.018v.018Z" clip-rule="evenodd"/><path fill="#FC0" fill-rule="evenodd" d="m10.596 5.14-.117-.23.35-.137s-.084.113-.104.193c-.025.099-.016.182-.016.182s.032-.025.072-.089c.03-.049.08-.225.08-.225l.157.503c.002.001-.08-.081-.138-.09-.065-.012-.143.01-.143.01l-.093.027-.048-.145Z" clip-rule="evenodd"/><path fill="#000" fill-rule="evenodd" d="m10.844 4.784.04-.052-.43.168.125.247.053.16.11-.033h.003a.445.445 0 0 1 .042-.008.311.311 0 0 1 .09-.001.13.13 0 0 1 .04.016.37.37 0 0 1 .076.057l.01.01a.061.061 0 0 1 .002.001v.001h.001v.001l.002.001a.032.032 0 0 0 .02 0 .034.034 0 0 0 .007-.02h.001l-.175-.563-.017.06v.002l-.002.005-.007.02a2.726 2.726 0 0 1-.046.14.34.34 0 0 1-.063.108v-.01a.59.59 0 0 1 .017-.123.484.484 0 0 1 .057-.122 1.032 1.032 0 0 1 .04-.06l.003-.003.001-.001Zm-.135.364-.019.002v-.005a.355.355 0 0 1-.001-.052.623.623 0 0 1 .018-.131.52.52 0 0 1 .073-.15l-.275.108.108.212.043.13.076-.024.005.018-.005-.018h.004a.332.332 0 0 1 .046-.01.347.347 0 0 1 .101 0 .164.164 0 0 1 .053.02c.016.01.032.021.045.032l-.119-.383-.012.037a1.64 1.64 0 0 1-.026.076.373.373 0 0 1-.102.15l-.002.002-.011-.014Zm0 0 .01.014-.025.02-.004-.032.019-.002Z" clip-rule="evenodd"/><path fill="#FC0" fill-rule="evenodd" d="M12.207 3.944s.22-.003.407-.114c.188-.11.378-.227.657-.161.057.013.267.106.36.405.065.21-.01.463-.077.577-.066.114-.111.18-.111.18l-.136-.048s.25-.225.215-.542c-.034-.318-.193-.392-.193-.392s-.196-.154-.458-.008c-.262.145-.519.212-.519.212s-.24.058-.261.055c-.022-.002.121-.167.116-.164Z" clip-rule="evenodd"/><path fill="#121116" fill-rule="evenodd" d="m12.633 3.84-.01.006a.869.869 0 0 1-.377.114.74.74 0 0 1-.028.002h-.002l-.014.018a.16.16 0 0 0-.003.003l-.042.052a1.017 1.017 0 0 0-.038.051l.018-.003a3.656 3.656 0 0 0 .2-.045l.011-.003h.003a1.022 1.022 0 0 0 .04-.012 2.374 2.374 0 0 0 .472-.198.459.459 0 0 1 .44-.014.358.358 0 0 1 .034.021l.002.001a.335.335 0 0 1 .088.08.641.641 0 0 1 .113.326.64.64 0 0 1-.097.401.814.814 0 0 1-.103.135l.096.035a2.605 2.605 0 0 0 .103-.168.809.809 0 0 0 .075-.563c-.09-.292-.295-.38-.347-.393-.267-.063-.45.045-.634.155Zm.825 1.002V4.84l.002-.003.006-.009a2.754 2.754 0 0 0 .104-.17.847.847 0 0 0 .09-.257.71.71 0 0 0-.012-.334c-.095-.306-.31-.402-.373-.417-.281-.066-.474.048-.658.157l-.012.007a.834.834 0 0 1-.39.11.36.36 0 0 1-.006.001h-.002l-.008.002.008.034a.018.018 0 0 1-.017-.013c-.002-.005 0-.01 0-.01a.017.017 0 0 1 .002-.004l-.004.004-.014.018a.162.162 0 0 0-.003.003l-.042.053a.892.892 0 0 0-.056.08.031.031 0 0 0-.003.014.02.02 0 0 0 .018.02 3.71 3.71 0 0 0 .258-.053l.01-.004h.001l-.005-.017.005.017h.003a.682.682 0 0 0 .042-.013 2.42 2.42 0 0 0 .478-.2.423.423 0 0 1 .406-.014.296.296 0 0 1 .03.019h.002v.001l.002.001.002.001.005.003.017.012a.29.29 0 0 1 .055.056c.041.056.089.15.106.306a.604.604 0 0 1-.093.38.78.78 0 0 1-.107.138l-.008.007-.002.002-.023.02.178.064.008-.011Zm-1.25-.88-.001-.018v.018Z" clip-rule="evenodd"/><path fill="#FC0" d="M12.185 3.727h-.092v.855h.092v-.855Z"/><path fill="#121116" fill-rule="evenodd" d="M12.075 3.727c0-.01.009-.018.019-.018h.091c.01 0 .018.008.018.018v.855c0 .01-.008.018-.018.018h-.091a.018.018 0 0 1-.019-.018v-.855Zm.037.018v.819h.055v-.82h-.056Z" clip-rule="evenodd"/><path fill="#FC0" d="M11.893 3.723h-.108v.855h.108v-.855Z"/><path fill="#121116" fill-rule="evenodd" d="M11.767 3.723c0-.01.008-.018.018-.018h.108c.01 0 .018.008.018.018v.855c0 .01-.008.018-.018.018h-.108a.018.018 0 0 1-.018-.018v-.855Zm.036.018v.82h.072v-.82h-.072Z" clip-rule="evenodd"/><path fill="#FC0" d="M12.284 3.525c0 .151-.133.274-.299.275-.165 0-.299-.123-.3-.274 0-.152.133-.276.298-.276.165-.001.3.12.301.272"/><path fill="#121116" fill-rule="evenodd" d="M12.266 3.522c0-.14-.126-.255-.283-.255-.156.001-.28.118-.28.259.001.14.126.256.283.256.156 0 .28-.117.28-.258h.036c0 .164-.143.293-.316.294-.174 0-.318-.13-.319-.292 0-.163.142-.294.316-.295.174 0 .318.128.32.291h-.037Z" clip-rule="evenodd"/><path fill="#FC0" fill-rule="evenodd" d="m11.72 4.575.514-.004s-.06.036-.112.128c-.052.092-.045.15-.045.15s.079 0 .134-.041a.812.812 0 0 0 .117-.115l-.003.474s-.037-.06-.098-.096c-.062-.036-.149-.036-.149-.036h-.175s-.08.005-.117.028a.894.894 0 0 0-.114.099l-.009-.448s.026.078.108.11c.083.032.13.027.13.027s0-.1-.043-.152c-.042-.052-.139-.122-.139-.124Z" clip-rule="evenodd"/><path fill="#000" fill-rule="evenodd" d="m12.19 4.586-.428.004.02.016c.03.025.066.056.088.083a.22.22 0 0 1 .04.103.442.442 0 0 1 .006.054v.005H11.9l.002.016h-.01a.44.44 0 0 1-.126-.029.2.2 0 0 1-.086-.064l.006.352.013-.012a.684.684 0 0 1 .079-.063.218.218 0 0 1 .077-.026.518.518 0 0 1 .043-.005h.003l.002.015-.001-.016h.177v.016-.016a.19.19 0 0 1 .015.001c.01 0 .023.002.038.004.03.005.07.014.103.034a.312.312 0 0 1 .075.064l.002-.388-.01.012a.632.632 0 0 1-.082.074.24.24 0 0 1-.094.039.323.323 0 0 1-.047.006h-.001v-.016l-.016.002v-.013a.365.365 0 0 1 .047-.147.438.438 0 0 1 .081-.105Zm-.113.263-.015.002.002.014h.014v-.016Zm.016-.016c0-.006 0-.013.002-.022a.405.405 0 0 1 .145-.226l.002-.001.048-.03-.586.006v.015l.002.006v.003c.002 0 .002.001.002.002l.002.001.004.003a.658.658 0 0 1 .132.118.198.198 0 0 1 .034.09.395.395 0 0 1 .005.038c-.005 0-.01 0-.016-.002a.41.41 0 0 1-.092-.024.17.17 0 0 1-.098-.098l-.001-.003-.03.005.009.485.026-.026v-.001l.002-.002.008-.008a1.238 1.238 0 0 1 .101-.086.19.19 0 0 1 .066-.02.473.473 0 0 1 .04-.006h.182a.284.284 0 0 1 .045.004.267.267 0 0 1 .092.03.281.281 0 0 1 .092.089l.001.002.028.046.003-.572-.027.034h-.001l-.002.003-.008.009a.595.595 0 0 1-.104.1.21.21 0 0 1-.08.034.288.288 0 0 1-.028.004Zm-.193.018.002.016.014-.002v-.014H11.9Z" clip-rule="evenodd"/><path fill="#F6CA1F" fill-rule="evenodd" d="M12.006 4.948s.076.175.163.253c.051.045.204.08.274.061.156-.04.263-.164.263-.164s-.006.137.092.212c.097.075.175.095.256.072.08-.022.31-.192.31-.192l.047.042s-.131.127-.27.195c-.07.034-.285.015-.355-.04a.469.469 0 0 1-.111-.191s-.043.086-.135.117a.592.592 0 0 1-.335-.005.479.479 0 0 1-.202-.168c-.02-.036-.014-.056-.014-.056s-.057.166-.178.211a.576.576 0 0 1-.354.012c-.11-.032-.12-.095-.12-.095s-.008.176-.25.226c-.243.05-.435-.128-.435-.128l.033-.05s.137.153.346.139c.209-.014.279-.281.279-.281s.091.139.337.142c.245.002.315-.318.315-.318l.044.006Z" clip-rule="evenodd"/><path fill="#000" fill-rule="evenodd" d="m11.95 4.926.066.008.004.008v.002l.003.005a.938.938 0 0 0 .045.09.61.61 0 0 0 .11.151c.012.01.03.02.051.029a.46.46 0 0 0 .21.03.513.513 0 0 0 .251-.155l.004-.004v-.001l.028-.032-.002.042v.005a.281.281 0 0 0 .01.068.22.22 0 0 0 .076.126c.096.074.17.09.244.07a.394.394 0 0 0 .08-.038 1.895 1.895 0 0 0 .188-.125l.027-.02.007-.005.002-.001.01-.008.068.06-.011.011-.01-.01.01.01-.002.002a1.064 1.064 0 0 1-.27.196.23.23 0 0 1-.082.017.617.617 0 0 1-.21-.022.238.238 0 0 1-.08-.037.35.35 0 0 1-.086-.122.673.673 0 0 1-.02-.047.25.25 0 0 1-.127.098.606.606 0 0 1-.344-.005.367.367 0 0 1-.128-.082.453.453 0 0 1-.088-.107.525.525 0 0 1-.026.047.306.306 0 0 1-.142.129.59.59 0 0 1-.363.011.211.211 0 0 1-.108-.063l-.002-.002a.25.25 0 0 1-.028.06c-.034.053-.1.111-.226.137a.494.494 0 0 1-.317-.046.634.634 0 0 1-.12-.078l-.007-.005a.02.02 0 0 0-.002-.002l.009-.011-.01.01-.009-.008.05-.076.013.014.002.001.004.005.018.016a.482.482 0 0 0 .067.05c.059.036.142.07.243.062.098-.006.164-.072.206-.139a.526.526 0 0 0 .056-.12l.003-.008v-.003l.009-.032.018.027v.002l.003.004a.317.317 0 0 0 .069.06.462.462 0 0 0 .253.07c.115.001.19-.073.237-.15a.575.575 0 0 0 .06-.143l.003-.01V4.94l.003-.013Zm.023.032v.001a.548.548 0 0 1-.065.15c-.049.082-.131.167-.261.165a.49.49 0 0 1-.269-.074.351.351 0 0 1-.06-.05l-.003-.003a.555.555 0 0 1-.055.113c-.044.071-.117.146-.228.153a.443.443 0 0 1-.26-.066.504.504 0 0 1-.085-.065l-.016.025.023.018a.605.605 0 0 0 .09.055.465.465 0 0 0 .3.044c.117-.025.177-.079.207-.126a.216.216 0 0 0 .032-.085v-.001l.029-.002v.001l.002.006a.082.082 0 0 0 .013.021.18.18 0 0 0 .094.055c.108.03.234.03.345-.011a.277.277 0 0 0 .127-.117.506.506 0 0 0 .032-.06l.008-.019.002-.005V5.08l.028.008v.009a.1.1 0 0 0 .013.036c.009.016.038.05.075.085a.341.341 0 0 0 .118.076.578.578 0 0 0 .327.005.221.221 0 0 0 .095-.066.274.274 0 0 0 .03-.04V5.19h.001l.016-.034m-1.326.054Zm.62-.252.024.003.01.021.036.07c.03.054.072.12.117.16a.211.211 0 0 0 .06.033.493.493 0 0 0 .227.031.541.541 0 0 0 .247-.144.33.33 0 0 0 .008.047.253.253 0 0 0 .088.142c.1.077.182.1.269.075a.42.42 0 0 0 .086-.04 1.938 1.938 0 0 0 .19-.127l.028-.02.027.023a1.035 1.035 0 0 1-.254.181.204.204 0 0 1-.07.015.588.588 0 0 1-.2-.02.21.21 0 0 1-.07-.033.322.322 0 0 1-.078-.111.68.68 0 0 1-.02-.052l-.006-.015-.002-.004v-.001" clip-rule="evenodd"/><path fill="#FC0" fill-rule="evenodd" d="M11.402 5.05s.002-.086.02-.111c.026-.037.062-.038.08-.033.022.006.045.026.041.086-.003.059-.02.088-.002.11.017.023.02.039.054.034.034-.006.05-.017.042-.048-.008-.032-.018.002-.024-.024-.007-.027.033-.141.026-.212-.006-.07-.033-.125-.086-.139-.05-.013-.092-.013-.138.021a.563.563 0 0 0-.102.14l-.002.23.094-.005-.003-.05Z" clip-rule="evenodd"/><path fill="#000" fill-rule="evenodd" d="M11.48 4.689a.206.206 0 0 1 .078.007c.064.017.092.083.099.154a.487.487 0 0 1-.017.146l-.008.036a.22.22 0 0 0-.002.02v.004c.003 0 .007.001.011.004.008.006.01.016.013.024.004.018.003.036-.01.05-.011.012-.029.017-.046.02-.02.002-.035 0-.048-.01a.081.081 0 0 1-.013-.015c0-.002-.002-.004-.003-.005a.258.258 0 0 0-.007-.01c-.014-.018-.013-.037-.01-.055l.002-.02a.388.388 0 0 0 .007-.048c.001-.028-.003-.044-.009-.053a.033.033 0 0 0-.02-.015.057.057 0 0 0-.06.026.07.07 0 0 0-.008.022.323.323 0 0 0-.009.066v.012l.003.067-.13.007.002-.253.002-.004v-.001l.002-.004a.98.98 0 0 1 .033-.054.355.355 0 0 1 .072-.087.16.16 0 0 1 .077-.031Zm-.15.19-.001.206.057-.003-.002-.032v-.014a.645.645 0 0 1 .01-.073.092.092 0 0 1 .112-.074.07.07 0 0 1 .041.03.124.124 0 0 1 .014.074c-.001.022-.005.04-.007.055l-.002.015c-.003.017-.001.024.003.029l.009.012.002.004a.042.042 0 0 0 .007.008c.002.002.005.004.02.002.016-.002.023-.006.026-.009 0 0 .003-.004 0-.017-.002 0-.006 0-.01-.002a.024.024 0 0 1-.01-.01.05.05 0 0 1-.004-.012.066.066 0 0 1 0-.02l.003-.022.007-.038.004-.017a.458.458 0 0 0 .012-.118c-.006-.067-.03-.112-.072-.123a.17.17 0 0 0-.064-.006.125.125 0 0 0-.06.025.328.328 0 0 0-.063.077 1.02 1.02 0 0 0-.032.053Z" clip-rule="evenodd"/><path fill="#FC0" fill-rule="evenodd" d="M11.228 5.112s-.035-.078-.063-.094a.074.074 0 0 0-.085.001c-.018.015-.032.043-.005.096.028.052.054.073.047.1-.007.028-.003.043-.037.052-.033.01-.051.005-.057-.027-.005-.032.017-.005.012-.032-.004-.027-.086-.116-.108-.184-.022-.066-.02-.127.023-.161.04-.032.08-.048.136-.036.054.013.15.088.15.088l.092.21-.088.033-.017-.046Z" clip-rule="evenodd"/><path fill="#000" fill-rule="evenodd" d="M11.022 4.846a.17.17 0 0 0-.056.03c-.034.027-.039.078-.017.143a.451.451 0 0 0 .068.117 1.484 1.484 0 0 1 .034.051.051.051 0 0 1 .008.03c0 .005-.002.01-.005.014a.021.021 0 0 1-.008.006c.002.013.006.015.007.015.004.002.011.002.028-.002.014-.004.016-.007.017-.01a.05.05 0 0 0 .003-.01.224.224 0 0 1 .004-.02c.002-.005 0-.012-.008-.026a.608.608 0 0 0-.009-.014.53.53 0 0 1-.028-.047.123.123 0 0 1-.017-.073m.025-.044a.092.092 0 0 1 .133.023.321.321 0 0 1 .037.062l.005.01v.002h.001v.001l.012.03.053-.019-.083-.189a.62.62 0 0 0-.139-.081.125.125 0 0 0-.065 0m.23.056.003.003.102.231-.122.045-.023-.062-.001-.002-.005-.009a.527.527 0 0 0-.034-.057.069.069 0 0 0-.016-.017c-.03-.018-.056-.008-.065 0a.033.033 0 0 0-.013.022c-.001.01 0 .027.013.052l.026.042.01.016c.01.016.018.034.012.055l-.002.012-.002.006a.078.078 0 0 1-.006.018c-.007.015-.02.023-.039.028-.017.005-.035.008-.05.001-.018-.007-.026-.023-.03-.042 0-.008-.002-.018.003-.026a.022.022 0 0 1 .009-.01l-.002-.003a.238.238 0 0 0-.01-.017l-.021-.03-.01-.015a.486.486 0 0 1-.064-.112c-.022-.068-.023-.14.03-.18a.205.205 0 0 1 .067-.038.16.16 0 0 1 .083-.002c.03.007.07.03.1.051l.04.028.012.009a.12.12 0 0 1 .003.002h.001v.001Z" clip-rule="evenodd"/><path fill="#FC0" fill-rule="evenodd" d="M11.21 4.432s-.09.152-.07.27c.02.117.14.37.14.37l.002.033.066-.007-.015-.034s.032-.302.012-.398a1.017 1.017 0 0 0-.135-.234Z" clip-rule="evenodd"/><path fill="#000" fill-rule="evenodd" d="m11.207 4.403.016.016v.001h.001v.001l.002.002a.334.334 0 0 1 .004.006l.014.02a1.948 1.948 0 0 1 .09.143c.013.025.024.05.029.07a.556.556 0 0 1 .006.107 2.25 2.25 0 0 1-.014.248 3.103 3.103 0 0 1-.003.035l-.001.009.022.052-.108.012-.002-.05-.003-.007a3.61 3.61 0 0 1-.058-.13 1.282 1.282 0 0 1-.08-.233.377.377 0 0 1 .029-.189.695.695 0 0 1 .043-.091v-.002h.001l.015.009-.015-.01.012-.019Zm.005.062.003.004a1.803 1.803 0 0 1 .087.14.271.271 0 0 1 .026.061.521.521 0 0 1 .006.099 2.288 2.288 0 0 1-.014.244l-.004.036v.012l-.002.005.008.017-.023.003v-.02l-.002-.002v-.001l-.001-.002-.004-.008-.014-.03a3.674 3.674 0 0 1-.044-.1 1.255 1.255 0 0 1-.077-.224.344.344 0 0 1 .027-.17.667.667 0 0 1 .028-.064Z" clip-rule="evenodd"/><path fill="#FC0" fill-rule="evenodd" d="M11.355 5.13s.046.055.1.081c.06.03.084.03.107.012.018-.013.011-.069-.009-.084-.02-.015-.043-.007-.046.008-.006.025-.015.024-.033.014l-.09-.053-.029.022Z" clip-rule="evenodd"/><path fill="#000" fill-rule="evenodd" d="m11.394 5.093.002.001.008.005.024.015a1.391 1.391 0 0 0 .06.034l.002-.005a.039.039 0 0 1 .03-.028c.014-.004.03 0 .044.01a.06.06 0 0 1 .018.025.108.108 0 0 1 .006.06.044.044 0 0 1-.015.027.072.072 0 0 1-.053.015.221.221 0 0 1-.073-.025.32.32 0 0 1-.103-.082l-.002-.002v-.001l.013-.011-.013.01-.012-.013.053-.042.01.007Zm-.013.04a.385.385 0 0 0 .082.062.19.19 0 0 0 .06.022.037.037 0 0 0 .028-.008m-.17-.076.005-.004c.006.004.014.01.024.015a1.363 1.363 0 0 0 .07.04.033.033 0 0 0 .02 0 .03.03 0 0 0 .017-.014.071.071 0 0 0 .007-.019l.004-.002c.003 0 .008 0 .015.005a.026.026 0 0 1 .006.01.074.074 0 0 1 .005.039l-.003.006m-.059-.06Z" clip-rule="evenodd"/><path fill="#FC0" fill-rule="evenodd" d="M11.285 5.143s-.019.068-.058.114c-.042.051-.064.061-.093.055-.02-.005-.038-.058-.026-.08s.036-.024.046-.012c.016.02.023.016.035 0 .02-.025.06-.086.06-.086l.036.009Z" clip-rule="evenodd"/><path fill="#000" fill-rule="evenodd" d="m11.242 5.114.065.016-.005.018-.017-.005.017.005v.003c-.002.002-.002.005-.004.009a.44.44 0 0 1-.057.109.22.22 0 0 1-.057.052.072.072 0 0 1-.054.008.044.044 0 0 1-.025-.018.108.108 0 0 1-.019-.057c0-.01.001-.021.007-.03a.054.054 0 0 1 .035-.028c.014-.003.03 0 .04.013a.06.06 0 0 0 .003.004.1.1 0 0 0 .004-.005m-.007.009Zm.094-.062h-.005a1.94 1.94 0 0 1-.064.087.033.033 0 0 1-.018.009.03.03 0 0 1-.021-.006.073.073 0 0 1-.014-.014h-.004c-.004 0-.009.003-.012.01m.125-.107-.014-.01.007-.01m.02.041a.286.286 0 0 1-.049.09.19.19 0 0 1-.046.045.037.037 0 0 1-.029.004l-.004-.004a.076.076 0 0 1-.012-.037c0-.007 0-.01.002-.012m.11-.117.015.01-.014-.01Zm0 0Zm0 0Zm0 0Zm0 0-.001.003.001-.002Zm-.001.003-.005.007.005-.007Zm-.005.007-.016.023.016-.023Zm-.016.023a1.43 1.43 0 0 1-.037.051l.037-.05Z" clip-rule="evenodd"/><path fill="#FC0" d="M11.458 5.088c.003.02-.057.047-.134.06-.078.013-.143.007-.147-.013-.004-.02.056-.046.134-.06.077-.012.143-.007.147.013"/><path fill="#000" fill-rule="evenodd" d="M11.41 5.087a.411.411 0 0 0-.096.006.406.406 0 0 0-.093.026.11.11 0 0 0-.022.013.11.11 0 0 0 .025.004c.025.002.06 0 .097-.006a.408.408 0 0 0 .093-.026.107.107 0 0 0 .022-.012.11.11 0 0 0-.025-.005Zm.039.003.026-.006c-.002-.014-.015-.021-.024-.025a.137.137 0 0 0-.038-.007.446.446 0 0 0-.105.006.44.44 0 0 0-.102.029.13.13 0 0 0-.032.02.031.031 0 0 0-.014.032c.002.014.015.021.024.025.01.004.023.006.037.007.029.003.066 0 .106-.006a.442.442 0 0 0 .101-.028.136.136 0 0 0 .033-.02c.007-.006.017-.017.014-.032l-.026.005Zm-.007.004Zm-.001-.007Zm-.248.042Zm.001.007Z" clip-rule="evenodd"/><path fill="#FC0" fill-rule="evenodd" d="M12.791 5.084s.032-.08.058-.097c.037-.025.071-.014.086-.003.019.014.033.041.009.095-.024.055-.05.076-.041.103.008.028.005.043.039.05.034.007.052.002.056-.03.004-.032-.018-.004-.014-.031.003-.027.08-.12.099-.19.018-.066.013-.128-.032-.16-.042-.029-.082-.043-.137-.028-.054.015-.145.096-.145.096l-.082.214.09.028.014-.047Z" clip-rule="evenodd"/><path fill="#000" fill-rule="evenodd" d="M12.992 4.773a.205.205 0 0 1 .07.034c.054.039.057.11.038.18a.491.491 0 0 1-.067.13l-.02.032a.197.197 0 0 0-.01.02.022.022 0 0 1 .009.009c.005.008.004.018.003.026-.002.019-.01.035-.026.044-.015.007-.034.005-.05.001-.02-.004-.034-.011-.041-.026a.079.079 0 0 1-.007-.018l-.002-.005a.214.214 0 0 0-.003-.012c-.007-.021 0-.04.01-.056a.466.466 0 0 0 .032-.06c.011-.025.012-.042.01-.052a.033.033 0 0 0-.013-.021c-.01-.008-.036-.017-.066.003a.068.068 0 0 0-.015.018.296.296 0 0 0-.031.058l-.004.01v.002l-.021.063-.124-.039.09-.236.003-.003h.001l.004-.004.01-.009a.973.973 0 0 1 .039-.03.355.355 0 0 1 .098-.056.16.16 0 0 1 .083-.003Zm-.208.126-.073.193.054.017.01-.031v-.002l.001-.002a1.628 1.628 0 0 0 .019-.04.326.326 0 0 1 .02-.034.092.092 0 0 1 .131-.03.069.069 0 0 1 .027.043c.004.02 0 .044-.013.073a.53.53 0 0 1-.033.063c-.008.015-.01.022-.007.028l.004.015v.004a.048.048 0 0 0 .004.01c.002.002.004.006.018.009.016.003.024.002.027 0 .002 0 .005-.002.007-.015a.022.022 0 0 1-.008-.006.025.025 0 0 1-.006-.013.051.051 0 0 1 .006-.03.246.246 0 0 1 .01-.02l.021-.034.01-.014a.455.455 0 0 0 .053-.106c.018-.066.01-.116-.025-.14a.17.17 0 0 0-.058-.03.125.125 0 0 0-.065.003.327.327 0 0 0-.086.05.924.924 0 0 0-.037.03l-.01.008h-.001Z" clip-rule="evenodd"/><path fill="#FC0" fill-rule="evenodd" d="M12.607 5.081s-.006-.085-.026-.11c-.028-.035-.063-.034-.081-.028-.022.007-.044.028-.037.087.007.06.025.088.008.111-.016.024-.018.039-.052.036-.035-.004-.05-.014-.044-.046.005-.032.017.002.022-.025.005-.027-.04-.14-.037-.21.003-.07.026-.127.078-.143.05-.016.092-.018.14.014.046.03.11.134.11.134l.012.23h-.093v-.05Z" clip-rule="evenodd"/><path fill="#000" fill-rule="evenodd" d="M12.507 4.76a.17.17 0 0 0-.063.01c-.041.012-.064.058-.067.126a.46.46 0 0 0 .02.117l.004.017a1.47 1.47 0 0 1 .014.06v.019a.051.051 0 0 1-.004.012.025.025 0 0 1-.01.01.022.022 0 0 1-.01.004c-.001.012.001.015.003.017.002.002.01.005.026.007.015.001.018-.001.02-.003a.3.3 0 0 1 .009-.012c.002-.004.004-.009.008-.013.003-.006.004-.012.001-.029a.123.123 0 0 1-.003-.144.068.068 0 0 1 .04-.032.092.092 0 0 1 .115.068.35.35 0 0 1 .014.082v.037h.058l-.012-.206v-.001a.323.323 0 0 0-.101-.125.125.125 0 0 0-.062-.021Zm.195.132.003.004.014.252h-.13v-.069a.907.907 0 0 0-.005-.04.286.286 0 0 0-.008-.035.068.068 0 0 0-.009-.022c-.022-.028-.05-.027-.061-.023a.033.033 0 0 0-.02.016.093.093 0 0 0-.006.053.38.38 0 0 0 .01.049.521.521 0 0 1 .003.019c.003.018.005.037-.007.055a.174.174 0 0 0-.007.01l-.003.006a.077.077 0 0 1-.012.015c-.012.01-.027.014-.047.012-.018-.002-.035-.005-.048-.017-.013-.013-.015-.03-.012-.05.002-.008.004-.017.011-.023a.022.022 0 0 1 .012-.006v-.004a.236.236 0 0 0-.004-.019l-.01-.036c0-.006-.002-.011-.004-.017a.482.482 0 0 1-.02-.127c.003-.072.027-.14.091-.16a.205.205 0 0 1 .077-.01.16.16 0 0 1 .078.027.357.357 0 0 1 .076.083l.028.04.008.012.002.004v.001Z" clip-rule="evenodd"/><path fill="#FC0" fill-rule="evenodd" d="M12.829 4.438s-.139.111-.161.228c-.022.117.003.396.003.396l-.011.032.063.016-.002-.037s.137-.272.152-.368c.01-.071-.044-.265-.044-.267Z" clip-rule="evenodd"/><path fill="#000" fill-rule="evenodd" d="m12.835 4.41.01.02v.003l.001.003.002.007.006.023a2.023 2.023 0 0 1 .034.165.301.301 0 0 1 .002.077.558.558 0 0 1-.03.102 2.36 2.36 0 0 1-.117.259.326.326 0 0 0-.004.008l.003.057-.105-.027.015-.047v-.01l-.003-.033a3.553 3.553 0 0 1-.006-.11 1.273 1.273 0 0 1 .007-.245.377.377 0 0 1 .093-.166.718.718 0 0 1 .068-.067l.005-.004.001-.001.012.013-.011-.014.017-.014Zm-.016.06.001.005a2.063 2.063 0 0 1 .033.16.268.268 0 0 1 .002.068.526.526 0 0 1-.029.094 2.321 2.321 0 0 1-.099.224l-.015.032-.005.009v.002h-.001l-.002.005v.018l-.022-.005.006-.018v-.016c-.002-.008-.002-.019-.003-.033a3.536 3.536 0 0 1-.007-.108 1.25 1.25 0 0 1 .007-.237.344.344 0 0 1 .085-.15.673.673 0 0 1 .049-.05Z" clip-rule="evenodd"/><path fill="#FC0" fill-rule="evenodd" d="M12.72 5.143s.023.067.064.11c.046.049.068.057.097.05.02-.007.034-.06.02-.082-.013-.021-.037-.022-.046-.01-.014.022-.021.018-.035.002l-.066-.08-.035.01Z" clip-rule="evenodd"/><path fill="#000" fill-rule="evenodd" d="m12.768 5.121.002.003.006.007.017.022a1.536 1.536 0 0 0 .045.053l.003-.004a.039.039 0 0 1 .038-.016c.014.002.028.01.038.025a.06.06 0 0 1 .008.03.109.109 0 0 1-.015.058.044.044 0 0 1-.024.02.072.072 0 0 1-.055-.004.221.221 0 0 1-.06-.05.324.324 0 0 1-.064-.104l-.003-.009-.001-.002.016-.007-.016.006-.006-.017.064-.02.008.01Zm-.025.033a.287.287 0 0 0 .054.087.19.19 0 0 0 .05.042c.01.005.018.005.029.002m-.133-.13.005-.002a1.817 1.817 0 0 0 .07.083.03.03 0 0 0 .018.008.03.03 0 0 0 .02-.007.069.069 0 0 0 .014-.015l.004-.001c.003 0 .009.003.013.01a.025.025 0 0 1 .002.011.075.075 0 0 1-.01.038l-.003.005m-.035-.076Z" clip-rule="evenodd"/><path fill="#FC0" fill-rule="evenodd" d="M12.65 5.13s-.043.057-.095.087c-.057.033-.082.035-.106.019-.018-.012-.016-.068.003-.084.02-.017.043-.01.047.004.008.025.016.023.034.012.026-.016.086-.058.086-.058l.03.02Z" clip-rule="evenodd"/><path fill="#000" fill-rule="evenodd" d="m12.619 5.088.055.038-.01.015-.015-.01.015.01h-.001l-.002.002-.005.008a.436.436 0 0 1-.092.081.221.221 0 0 1-.072.03.072.072 0 0 1-.053-.012.044.044 0 0 1-.017-.026.107.107 0 0 1 .002-.06.058.058 0 0 1 .017-.026.054.054 0 0 1 .043-.013.04.04 0 0 1 .032.026l.002.005a.12.12 0 0 0 .006-.003m-.01.005Zm.11-.024-.005-.003-.023.016a1.398 1.398 0 0 1-.068.044.033.033 0 0 1-.02.002.03.03 0 0 1-.017-.013.072.072 0 0 1-.009-.018s0-.002-.003-.002c-.004 0-.01 0-.015.005a.026.026 0 0 0-.006.01.074.074 0 0 0-.002.04l.003.006m0 0a.035.035 0 0 0 .028.006.19.19 0 0 0 .06-.025.285.285 0 0 0 .076-.068m-.004-.025-.01-.014.01-.007m-.01.007.01.014-.01-.014Zm0 0Zm0 0Zm0 0h-.001Zm-.001 0-.002.002.002-.002Zm-.002.002-.007.005.007-.005Zm-.007.005-.024.016.024-.016Zm-.024.016-.051.035.052-.035Z" clip-rule="evenodd"/><path fill="#FC0" d="M12.83 5.14c-.003.02-.069.023-.146.008-.077-.015-.137-.043-.133-.063.003-.02.069-.024.146-.009.077.015.137.043.134.063"/><path fill="#000" fill-rule="evenodd" d="M12.786 5.122a.411.411 0 0 0-.093-.028.406.406 0 0 0-.096-.009.11.11 0 0 0-.025.004.11.11 0 0 0 .023.014.486.486 0 0 0 .189.036c.01 0 .02-.002.025-.004a.111.111 0 0 0-.023-.013Zm.035.016.027.004c.002-.014-.007-.026-.014-.032a.136.136 0 0 0-.033-.02.445.445 0 0 0-.1-.031.44.44 0 0 0-.106-.009.132.132 0 0 0-.037.007c-.01.003-.022.01-.025.025-.002.015.007.026.014.033a.16.16 0 0 0 .032.02.444.444 0 0 0 .101.03.44.44 0 0 0 .106.01.133.133 0 0 0 .037-.007c.009-.003.022-.01.025-.025l-.027-.005Zm-.008.002Zm.002-.007Zm-.247-.048Zm-.001.007Z" clip-rule="evenodd"/><path fill="#CCA715" fill-rule="evenodd" d="M10.737 5.597s.015.063.051.03.532-.228 1.232-.228 1.16.192 1.187.204c.027.012.039.027.063 0s-.024-.069-.024-.069-.487-.207-1.247-.204c-.76.003-1.253.22-1.253.22s-.033.023-.009.047Z" clip-rule="evenodd"/><path fill="#000" fill-rule="evenodd" d="m13.249 5.527-.003.007.005-.006.002.002a.124.124 0 0 1 .02.024c.005.008.01.017.011.026.002.01 0 .02-.008.029a.059.059 0 0 1-.019.015.03.03 0 0 1-.02.002.147.147 0 0 1-.021-.009l-.012-.006c-.027-.012-.485-.204-1.184-.204-.35 0-.648.049-.863.102a2.458 2.458 0 0 0-.33.106.308.308 0 0 0-.033.018c-.01.01-.02.014-.03.012a.035.035 0 0 1-.021-.016.088.088 0 0 1-.013-.028.034.034 0 0 1-.01-.02.03.03 0 0 1 .006-.02.064.064 0 0 1 .015-.018l.005.006-.003-.007h.001l.005-.003.017-.006.066-.025c.059-.02.144-.048.253-.075A3.86 3.86 0 0 1 12 5.322c.38-.002.693.05.91.101a2.857 2.857 0 0 1 .334.101l.005.002h.001Zm-2.503.022-.003-.007h-.002l.005.007Zm.004.007c.002 0 .003 0 .005-.002a1.29 1.29 0 0 1 .083-.03c.058-.021.143-.048.251-.075a3.995 3.995 0 0 1 1.817-.011 2.846 2.846 0 0 1 .331.101l.004.002.001.001a.109.109 0 0 1 .018.021.05.05 0 0 1 .008.02c.001.005 0 .01-.004.015a.042.042 0 0 1-.014.011.015.015 0 0 1-.009.001.054.054 0 0 1-.013-.005l-.004-.002a.256.256 0 0 0-.014-.007c-.028-.012-.489-.205-1.19-.205-.35 0-.65.049-.867.102a2.47 2.47 0 0 0-.334.108.318.318 0 0 0-.036.02c-.008.008-.013.008-.016.008-.004 0-.008-.004-.011-.009a.066.066 0 0 1-.008-.016l-.002-.006v-.002h-.001v-.003l-.002-.001c-.005-.005-.006-.01-.007-.013a.02.02 0 0 1 .003-.01.047.047 0 0 1 .01-.012h.001Zm2.496-.022.005-.006-.002-.001-.003.007Zm-1.621.354s.022-.062.061-.074c.031-.01.08.022.08.022s-.059-.006-.077.005c-.017.01-.022.037-.022.037s.013-.022.058-.02l.05.002s-.077.006-.094.028c-.018.022.072.032.072.032s-.138.001-.156-.007c-.018-.009-.03-.037-.06-.028a.198.198 0 0 0-.063.036s.035-.059.057-.06c.022 0 .035 0 .055.008l.039.02ZM11.108 6s.01-.065.046-.084c.03-.015.083.006.083.006s-.06.006-.075.02c-.015.012-.015.04-.015.04s.008-.024.053-.03l.05-.007s-.074.02-.087.045c-.014.025.077.018.077.018s-.136.026-.155.022c-.02-.005-.036-.031-.065-.017-.029.015-.055.047-.055.047s.024-.064.046-.069c.021-.004.034-.008.055-.002a.634.634 0 0 1 .042.011Zm.952-.134s.027-.061.066-.07c.032-.008.08.025.08.025s-.06-.009-.079 0c-.017.01-.024.037-.024.037s.014-.022.06-.017l.05.005s-.077.002-.096.023c-.02.02.07.036.07.036s-.138-.007-.155-.017c-.018-.009-.028-.038-.06-.031a.197.197 0 0 0-.064.033s.039-.057.061-.057c.022.001.035.001.055.011.019.01.037.022.037.022Zm.438.049s.032-.057.073-.062c.032-.004.075.034.075.034s-.057-.015-.077-.008c-.018.006-.028.033-.028.033s.016-.02.06-.01l.05.011s-.077-.007-.098.011c-.022.019.065.045.065.045s-.136-.024-.152-.035c-.017-.011-.023-.041-.055-.038a.197.197 0 0 0-.068.025s.045-.052.067-.049c.022.004.035.005.053.017l.035.026Zm.433.077s.03-.043.064-.044c.026-.001.058.033.058.033s-.046-.017-.062-.012c-.015.004-.025.024-.025.024s.015-.014.05-.003l.038.012s-.06-.011-.08.002c-.018.013.05.04.05.04s-.107-.028-.12-.039c-.012-.01-.015-.034-.041-.034-.026 0-.056.015-.056.015s.04-.039.057-.034c.017.004.027.006.041.017l.026.023Z" clip-rule="evenodd"/><path fill="#0F6545" d="M11.538 5.593c.01.051-.05.107-.136.124-.086.018-.163-.01-.174-.062-.01-.052.05-.108.136-.125.086-.017.163.011.174.063Z"/><path fill="#000" fill-rule="evenodd" d="M11.475 5.546a.208.208 0 0 0-.109-.006.208.208 0 0 0-.098.047c-.024.021-.033.045-.03.065.005.021.023.039.053.05.029.01.067.013.109.005a.208.208 0 0 0 .098-.047c.024-.021.033-.044.03-.065-.005-.021-.023-.039-.053-.05Zm.073.045c-.006-.031-.032-.054-.065-.066a.23.23 0 0 0-.12-.006.23.23 0 0 0-.11.052c-.026.024-.042.055-.035.086.006.03.032.053.065.065a.23.23 0 0 0 .12.006.23.23 0 0 0 .11-.052c.026-.024.041-.054.035-.085Z" clip-rule="evenodd"/><path fill="#CECFC1" d="M11.344 5.584c.003.013-.01.026-.03.03-.018.004-.036-.004-.038-.016-.002-.013.01-.026.03-.03.018-.003.036.004.038.016Z"/><path fill="#0F6545" d="M12.745 5.655c-.016.05-.096.07-.179.044-.083-.026-.138-.088-.122-.138.016-.05.096-.07.18-.044.082.026.137.088.121.138Z"/><path fill="#000" fill-rule="evenodd" d="M12.511 5.52c-.03.008-.05.024-.056.044-.007.02 0 .045.021.068.02.023.053.044.093.057.04.013.08.014.11.007.03-.008.05-.024.056-.044.006-.02-.001-.044-.022-.068a.208.208 0 0 0-.093-.057l.003-.01-.003.01a.208.208 0 0 0-.109-.006Zm-.005-.02a.23.23 0 0 1 .12.007.23.23 0 0 1 .104.063c.023.027.035.058.025.089m-.249-.16c-.034.01-.063.028-.072.059l.072-.058Z" clip-rule="evenodd"/><path fill="#CECFC1" d="M12.58 5.555c-.004.012-.022.017-.04.011-.019-.005-.03-.02-.027-.032.004-.012.022-.018.04-.012.019.006.03.02.027.033Z"/><path fill="#1F2D86" d="M12.146 5.476h-.313v.158h.313v-.158Z"/><path fill="#000" fill-rule="evenodd" d="M11.818 5.476c0-.008.007-.015.015-.015h.313c.009 0 .016.007.016.015v.158a.015.015 0 0 1-.016.015h-.313a.015.015 0 0 1-.015-.015v-.158Zm.03.015v.128h.283V5.49h-.282Z" clip-rule="evenodd"/><path fill="#707C8B" d="M11.965 5.51c0 .007-.013.013-.03.013-.016 0-.03-.006-.03-.013 0-.007.014-.013.03-.013.017 0 .03.006.03.013Z"/><path fill="#9F1209" fill-rule="evenodd" d="m10.949 5.634.051.153-.095.051s-.044.031-.088.008-.07-.093-.047-.122c.046-.056.179-.093.179-.09Z" clip-rule="evenodd"/><path fill="#000" fill-rule="evenodd" d="M10.776 5.73a.277.277 0 0 1 .104-.066l-.104.066Zm.104-.066a.568.568 0 0 1 .05-.017l-.05.017Zm.05-.017a.295.295 0 0 1 .013-.004l-.013.004Zm.01-.011.001.001v-.001Zm.003.007.048.14-.09.048H10.9l-.002.002-.005.003a.102.102 0 0 1-.018.007.071.071 0 0 1-.055-.004.104.104 0 0 1-.044-.055.087.087 0 0 1-.006-.032c0-.01.002-.017.006-.022m.133.115-.002.001a.113.113 0 0 1-.027.012.087.087 0 0 1-.067-.005.12.12 0 0 1-.06-.1c0-.013.004-.025.011-.034a.29.29 0 0 1 .11-.07.587.587 0 0 1 .074-.023h.003s.005.002.005.006l.054.158-.101.055Z" clip-rule="evenodd"/><path fill="#8F322F" d="M10.868 5.743c0 .025-.02.046-.043.046a.045.045 0 0 1-.044-.046c0-.026.02-.047.044-.047.024 0 .043.02.043.047Z"/><path fill="#E2A494" d="M10.827 5.724a.026.026 0 0 1-.005.022.013.013 0 0 1-.017.002.026.026 0 0 1-.011-.018.026.026 0 0 1 .005-.022.013.013 0 0 1 .016-.002c.006.003.01.01.012.018Z"/><path fill="#9F1209" fill-rule="evenodd" d="m13.046 5.654-.051.136.121.064s.054.024.088-.006c.03-.026.036-.085.013-.115a.713.713 0 0 0-.171-.08Z" clip-rule="evenodd"/><path fill="#000" fill-rule="evenodd" d="M13.207 5.715a.068.068 0 0 1 .016.013.09.09 0 0 1 .015.065.095.095 0 0 1-.028.06.078.078 0 0 1-.064.017.135.135 0 0 1-.032-.009l.002-.008-.003.008-.129-.068.054-.142V5.65a.014.014 0 0 1 .008-.004h.004l.005.002.017.006a1.572 1.572 0 0 1 .112.048.249.249 0 0 1 .023.013Zm-.087.131h.002a.101.101 0 0 0 .027.008c.016.002.035 0 .05-.012a.08.08 0 0 0 .023-.05.075.075 0 0 0-.012-.054.053.053 0 0 0-.012-.01.742.742 0 0 0-.148-.065l-.045.123.115.06Z" clip-rule="evenodd"/><path fill="#AA675D" d="M13.192 5.763c0 .016-.018.03-.04.03-.02 0-.038-.014-.038-.03 0-.017.017-.03.039-.03.021 0 .039.013.039.03Z"/><path fill="#E2A494" d="M13.155 5.758a.024.024 0 0 1-.01.02.015.015 0 0 1-.018 0 .024.024 0 0 1-.009-.02c0-.008.003-.015.01-.02a.015.015 0 0 1 .017 0c.006.005.01.012.01.02Z"/><path fill="#F5D8BC" d="M12.264 5.49c0 .011-.01.02-.022.02a.022.022 0 0 1-.022-.02c0-.012.01-.021.022-.021.012 0 .022.009.022.02Zm.133.007c0 .012-.01.021-.022.021a.021.021 0 0 1-.022-.02c0-.012.01-.022.022-.022.012 0 .022.01.022.021Zm-.067.052a.027.027 0 0 1-.028.026.027.027 0 0 1-.028-.026c0-.015.013-.027.028-.027.015 0 .028.012.028.027Zm.064.087c0 .012-.01.021-.022.021a.021.021 0 0 1-.022-.021c0-.012.01-.021.022-.021.012 0 .022.01.022.02Zm-.129-.016c0 .011-.01.02-.022.02a.022.022 0 0 1-.022-.02c0-.012.01-.022.022-.022.012 0 .022.01.022.021Zm-.644-.108a.022.022 0 0 1-.017.026.022.022 0 0 1-.026-.016.022.022 0 0 1 .017-.025.022.022 0 0 1 .026.015Zm.132-.022a.022.022 0 0 1-.017.025.022.022 0 0 1-.026-.015.022.022 0 0 1 .016-.026.022.022 0 0 1 .027.016Zm-.054.065a.027.027 0 0 1-.021.032.027.027 0 0 1-.033-.02.027.027 0 0 1 .02-.031.027.027 0 0 1 .034.02Zm.081.07a.022.022 0 0 1-.016.026.022.022 0 0 1-.026-.016.021.021 0 0 1 .017-.025.022.022 0 0 1 .026.015Zm-.128.013a.022.022 0 0 1-.017.026.022.022 0 0 1-.026-.016.021.021 0 0 1 .017-.025.022.022 0 0 1 .026.015Zm-.592-.004a.021.021 0 0 1-.013.027.021.021 0 0 1-.028-.011.021.021 0 0 1 .013-.028.022.022 0 0 1 .028.012Zm.127-.041a.022.022 0 0 1-.013.027.022.022 0 0 1-.028-.012.022.022 0 0 1 .012-.027.022.022 0 0 1 .029.012Zm-.044.072a.027.027 0 0 1-.017.035.027.027 0 0 1-.035-.015.027.027 0 0 1 .016-.034.027.027 0 0 1 .036.014Zm.091.058a.022.022 0 0 1-.013.027.022.022 0 0 1-.028-.011.022.022 0 0 1 .013-.028.022.022 0 0 1 .028.012Zm-.126.031a.022.022 0 0 1-.013.028.022.022 0 0 1-.028-.012.022.022 0 0 1 .013-.028.022.022 0 0 1 .028.012Zm1.734-.182a.023.023 0 0 1-.028.017.023.023 0 0 1-.018-.028.023.023 0 0 1 .029-.016c.012.003.02.015.017.027Zm.138.043a.023.023 0 0 1-.029.016.023.023 0 0 1-.018-.028.023.023 0 0 1 .029-.016c.013.003.02.015.018.028Zm-.084.036a.03.03 0 0 1-.036.02.03.03 0 0 1-.022-.034.03.03 0 0 1 .036-.02.03.03 0 0 1 .022.034Zm.044.108a.023.023 0 0 1-.028.016.023.023 0 0 1-.017-.027.023.023 0 0 1 .028-.017c.013.003.02.016.018.028Zm-.13-.051a.023.023 0 0 1-.028.017.023.023 0 0 1-.018-.028.023.023 0 0 1 .029-.016c.013.003.02.015.018.027Z"/><path fill="#000" fill-rule="evenodd" d="M12.84 4.33Zm0 0Zm0 0Zm0 0Zm0 0v-.002.002Zm0-.002c-.001-.003 0-.008.002-.014l-.003.014Zm.002-.014a.106.106 0 0 1 .007-.015l-.007.015Zm.007-.015a.192.192 0 0 1 .003-.005l-.003.005Zm.003-.005v-.001Zm0-.001Zm0 0-.015-.01.016.01Zm-.015-.01-.015-.011.015.01Zm-.015-.011Zm0 0Zm0 0Zm0 0-.002.002.002-.001Zm-.002.002-.003.007.003-.007Zm-.003.007a.15.15 0 0 0-.01.02l.01-.02Zm-.01.02a.076.076 0 0 0-.005.029l.005-.028Zm-.005.029c0 .01.005.023.017.03l-.017-.03Zm.296-.01.012.014.013.013v.001l-.003.002a.29.29 0 0 1-.04.03.215.215 0 0 1-.108.031.25.25 0 0 1-.15-.048l-.003-.002m.279-.04Zm0 0Zm0 0-.003.001.002-.002Zm-.003.001a.156.156 0 0 1-.007.006l.008-.006Zm-.007.006a.264.264 0 0 1-.028.02l.028-.02Zm-.028.02a.18.18 0 0 1-.088.026l.088-.027Zm-.088.026c-.066 0-.105-.026-.129-.042l.129.042Zm-.129-.042-.003-.002.003.002Zm-1.25.048a.069.069 0 0 0 .03.02.965.965 0 0 0 .156.035h.005l-.006.034h-.002l-.003-.001-.014-.002a3.017 3.017 0 0 1-.146-.033.104.104 0 0 1-.045-.03l-.004-.003a.032.032 0 0 0-.011-.008.059.059 0 0 0-.024-.002.11.11 0 0 0-.065.026.053.053 0 0 0-.019.052c.005.024.015.035.026.04.01.005.026.005.044 0 .008-.003.013-.012.01-.024-.002-.01-.011-.02-.028-.019a.037.037 0 0 0-.009.002.05.05 0 0 0 .007.011l.004.005-.011.013-.012.012v-.001l-.003-.002a.104.104 0 0 1-.016-.025c-.003-.008-.006-.02.002-.032.007-.011.021-.015.035-.017a.059.059 0 0 1 .064.045c.006.024-.003.054-.034.064a.097.097 0 0 1-.067-.002c-.023-.01-.038-.03-.045-.062a.087.087 0 0 1 .03-.085.144.144 0 0 1 .084-.035.091.091 0 0 1 .038.004.09.09 0 0 1 .024.015.127.127 0 0 1 .005.005Zm-.398-.143a.07.07 0 0 1 .023.014l-.011.011.011-.011a.082.082 0 0 1 .02.042.119.119 0 0 1 0 .044" clip-rule="evenodd"/></g></g><path stroke="#000" stroke-opacity=".1" stroke-width=".5" d="M.25.25h23.5v17.5H.25z"/><defs><clipPath id="a"><path fill="#fff" d="M0 0h24v18H0z"/></clipPath></defs></svg>