<svg xmlns="http://www.w3.org/2000/svg" fill="none" viewBox="0 0 24 18"><g clip-path="url(#a)"><mask id="b" width="24" height="18" x="0" y="0" maskUnits="userSpaceOnUse" style="mask-type:luminance"><path fill="#fff" d="M0 0h24v18H0z"/></mask><g fill-rule="evenodd" clip-rule="evenodd" mask="url(#b)"><path fill="#E31D1C" d="M0 0h24v18H0V0Z"/><path fill="#FECA00" d="m11.262 3.411-.758.458.173-.893-.63-.668.853-.036.362-.833.361.833h.853l-.63.704.19.893-.774-.458ZM5.263 7.205 3.103 8.37l.492-2.27-1.799-1.7 2.436-.09 1.031-2.12 1.03 2.12h2.433L6.931 6.1l.54 2.27-2.208-1.164Zm7.499-.794-.758.458.173-.893-.63-.668.853-.036.362-.833.361.833h.853l-.63.704.19.893-.774-.458Zm-.75 3-.758.458.173-.893-.63-.668.853-.036.362-.833.361.833h.853l-.63.704.19.893-.774-.458Zm-2.25 2.25-.758.458.173-.893-.631-.668.854-.036.362-.833.361.833h.853l-.63.704.19.893-.774-.458Z"/></g></g><path stroke="#000" stroke-opacity=".1" stroke-width=".5" d="M.25.25h23.5v17.5H.25z"/><defs><clipPath id="a"><path fill="#fff" d="M0 0h24v18H0z"/></clipPath></defs></svg>