<svg xmlns="http://www.w3.org/2000/svg" fill="none" viewBox="0 0 24 18"><g clip-path="url(#a)"><mask id="b" width="24" height="18" x="0" y="0" maskUnits="userSpaceOnUse" style="mask-type:luminance"><path fill="#fff" d="M0 0h24v18H0z"/></mask><g mask="url(#b)"><path fill="#2E42A5" fill-rule="evenodd" d="M0 0v18h24V0H0Z" clip-rule="evenodd"/><mask id="c" width="24" height="18" x="0" y="0" maskUnits="userSpaceOnUse" style="mask-type:luminance"><path fill="#fff" fill-rule="evenodd" d="M0 0v18h24V0H0Z" clip-rule="evenodd"/></mask><g mask="url(#c)"><path fill="#2B409A" d="M-4-3h18v14H-4z"/><mask id="d" width="18" height="14" x="-4" y="-3" maskUnits="userSpaceOnUse" style="mask-type:luminance"><path fill="#fff" d="M-4-3h18v14H-4z"/></mask><g mask="url(#d)"><path fill="#F7FCFF" d="m-6.004 10 3.96 1.737L14.09-1.111l2.09-2.582-4.237-.58-6.58 5.536-5.296 3.73L-6.004 10Z"/><path fill="#F50100" d="m-5.462 11.217 2.018 1.008L15.429-3.933h-2.833l-18.058 15.15Z"/><path fill="#F7FCFF" d="m16.004 10-3.961 1.737L-4.09-1.111l-2.09-2.582 4.236-.58 6.58 5.536 5.297 3.73L16.003 10Z"/><path fill="#F50100" d="m15.869 10.873-2.018 1.009-8.037-6.918-2.382-.773-9.813-7.875h2.834L6.26 4.004l2.605.927 7.004 5.942Z"/><mask id="e" width="22" height="18" x="-6" y="-5" fill="#000" maskUnits="userSpaceOnUse"><path fill="#fff" d="M-6-5h22v18H-6z"/><path fill-rule="evenodd" d="M5.985-3h-2v6H-4v2h7.985v6h2V5H14V3H5.985v-6Z" clip-rule="evenodd"/></mask><path fill="#F50100" fill-rule="evenodd" d="M5.985-3h-2v6H-4v2h7.985v6h2V5H14V3H5.985v-6Z" clip-rule="evenodd"/><path fill="#F7FCFF" d="M3.985-3v-1.5h-1.5V-3h1.5Zm2 0h1.5v-1.5h-1.5V-3Zm-2 6v1.5h1.5V3h-1.5ZM-4 3V1.5h-1.5V3H-4Zm0 2h-1.5v1.5H-4V5Zm7.985 0h1.5V3.5h-1.5V5Zm0 6h-1.5v1.5h1.5V11Zm2 0v1.5h1.5V11h-1.5Zm0-6V3.5h-1.5V5h1.5ZM14 5v1.5h1.5V5H14Zm0-2h1.5V1.5H14V3ZM5.985 3h-1.5v1.5h1.5V3Zm-2-4.5h2v-3h-2v3Zm1.5 4.5v-6h-3v6h3ZM-4 4.5h7.985v-3H-4v3Zm1.5.5V3h-3v2h3Zm6.485-1.5H-4v3h7.985v-3Zm1.5 7.5V5h-3v6h3Zm.5-1.5h-2v3h2v-3ZM4.485 5v6h3V5h-3ZM14 3.5H5.985v3H14v-3ZM12.5 3v2h3V3h-3ZM5.985 4.5H14v-3H5.985v3ZM4.485-3v6h3v-6h-3Z" mask="url(#e)"/></g><path fill="#5EAA22" fill-rule="evenodd" d="M15.462 8.068s.074.82-.088 1.286c-.163.465-.245.735-.245.438 0-.298-.114-.533-.206-.533-.091 0-.02.295-.111.295-.092 0-.41.05-.41-.122 0-.173-.042.463.164.52.206.057-.1.233-.236.179 0 0 .562.182.782.338 0 0 .66.825 1.279.725 0 0-.842-.291-.693-.846.148-.555.693-.635.693-.635s.256.085.248.31c-.008.223.187-.071.187-.071s.031-.283-.003-.352c-.035-.07.585-.203.625-.494 0 0-.634.029-.678-.046-.043-.075.197-.193.122-.339-.075-.146-1.194.833-1.194.833s.386-.666.386-1.024c0-.357-.098-.602-.386-.602-.289 0-.236.14-.236.14Zm5.828.192c-.002.002 0 .003.002.002.047-.046.3-.272.511-.088.235.204-.118.402-.118.402s.165.16.354.16c.188 0 .235-.16.235-.16s.014.357.63.492c0 0 .22-.316 0-.488 0 0 .26-.054.241-.265 0 0-.213.073-.366-.094-.152-.167-.448-.244-.664-.206-.54-.194-.787.18-.826.245Z" clip-rule="evenodd"/><path fill="#96877D" fill-rule="evenodd" d="M17.553 10.061s.637 1.198.239 1.447c-.399.248 1.892.071 2.108 0 .216-.072-.043-.45-.283-.555-.24-.105-1.223-.454-1.485-.717-.262-.263-.102-.356.109-.616.21-.26.991-.363.991-.606s.495-1.244.842-1.32c.346-.075.159-.194.08-.194-.08 0-.559.493-.74.404-.182-.09-.204-.083 0-.298.203-.215.356-.463.087-.284-.269.178-.712.46-.925.46-.214 0-.973-.097-.879.122.095.218.134.597.544.854.41.256.231.443-.11.69-.34.247-.578.613-.578.613Z" clip-rule="evenodd"/><path fill="#FFD018" d="m21.779 8.477-1.214 2.434s-.035.688.833.23c.867-.459.833-.784 1.083-.784s.33-.139.33-.139l-.167-.13s-.019-.24.087-.293c0 0-.208-.114-.237-.02-.03.096-.176-.198-.093-.198 0 0-.183.295-.221.41 0 0-.264-.107-.252-.604a2.546 2.546 0 0 0-.149-.906Zm-5.777-.385s-.618.143-.55.293c.066.15.164-.004-.139.177 0 0-.531.41-.647.366-.116-.045.082.104.082-.366s-.309-.088 0-.402c.309-.313.417-.068.565-.249.149-.18.015-.084.418-.084.403 0 .271.265.271.265Zm1.886 2.418s-1.73 1.36-2.076 1.462c-.346.101.711-.028.97-.208.258-.18 1.106-1.253 1.106-1.253Z"/><path fill="#5EAA22" fill-rule="evenodd" d="M21.319 12.896s.166 1.071-.268.966c-.433-.106-.613-.16-.613-.16s.159.499.386.499c0 0 .387.754.238.993 0 0 .667-.541.56-.972-.109-.43.172.071.172.071s.245.119.422-.014c.178-.132-.002-.073-.18-.325-.177-.252-.133-.96-.673-1.327-.54-.366-.665-.355-.665-.355s-.397-.65-.159-.606c0 0 1.706.585 1.75.734.045.15.497.123.271-.306-.226-.428-1.446-.687-1.59-.808-.146-.12-.011-.579-.272-.679-.26-.1-.973-.809-.972-1.15 0-.342-.335-.502-.626-.502-.292 0-.84-.085-1.072-.085-.232 0-.448.388-.224.388s.033.726-.342.885c-.375.159-.665.386-1.093.386-.428 0 .606.37.77.224.166-.146.111-.363.665-.61s1.082-.394 1.015-.197c-.067.197.104.526.365.407.26-.12.344-.42.344-.21s.4 1.288.706 1.709c.305.42 1.085 1.044 1.085 1.044Z" clip-rule="evenodd"/><path fill="#FFD018" d="M17.679 8.96s-.203.322 0 .322.529 0 .33-.161c-.199-.162-.33-.162-.33-.162Zm.677-.009s.001.215.142.215c.14 0 .266.215.266 0s.195-.143-.106-.215c-.302-.07-.302 0-.302 0Zm.866.049s-.135.103-.068.285c.068.182.221.542 0 .542-.22 0-.403.13-.23.13.173 0 .48.13.48 0s.125.214.125 0v-.442c0-.126.125-.162 0-.338C19.404 9 19.222 9 19.222 9Zm.314 1.254s.282.889.436 1.004c.153.114.222 1.08.29 1.185.067.105.986.635.986.919 0 .284.282-.219.141-.5-.141-.282-.587-.881-.907-1.012-.32-.13-.28-.447-.347-.67-.067-.222.399.18 0-.325-.398-.504-.388-.234-.275-.234.112 0 .224-.06.112-.138-.112-.078-.436-.23-.436-.23Zm-2.996 1.833s-.917 1.62-1.08 1.704c-.164.084-.286.101-.37 0-.084-.1-.092.27 0 .373.092.101.37.101.523-.08 0 0 .025.457.264.8.24.344.34.249.34.443 0 .195.056.452.13.452.073 0 .13.612 0 .612s.3.05.488-.103.268-.27.228-.27c-.04 0-.522-.253-.522-.433s-.324-.32-.324-.586c0-.267-.169-.583-.169-.71 0-.125.144.05.299-.07.154-.12.194-.428.194-.428s-.243.163-.324.082c-.081-.082-.337-.242-.169-.518.169-.276.493-1.268.493-1.268Z"/><path fill="#5EAA22" fill-rule="evenodd" d="M18.13 6.977s-.328.146-.218.363c.11.217.149.313.219.265.07-.048.562-.139.452-.384-.11-.244-.341-.244-.341-.244h-.111Z" clip-rule="evenodd"/><path fill="#FFD018" d="M19.27 6.86s-.434-.193-.289 0c.145.191.33.293.463.293s.41-.04.271-.118a3.445 3.445 0 0 0-.445-.176Z"/><path fill="#5EAA22" fill-rule="evenodd" d="M14.984 11.863c.002-.015-.017-.026-.028-.015-.098.096-.348.372-.237.614.138.298.275.402.275.402s.083.456.256.58c0 0 .232-.011.244-.367 0 0 .394-.115.51.13 0 0-.077.028-.077.238 0 .209.178.435.178.435s.082-.72.449-1.186c.367-.465.472-.556.472-.556v-.524s-.76.619-.92 1.133c0 0-.383.013-.538-.053-.156-.066.194-.174 0-.408-.194-.234-.105.33-.318.176-.322-.09-.29-.462-.266-.599Z" clip-rule="evenodd"/><path fill="#5EAA22" fill-rule="evenodd" d="M16.64 11.396h3.889v2.376s-.317 1.941-2.01 2.897c0 0-1.641-.97-1.879-2.897v-2.376Z" clip-rule="evenodd"/><mask id="f" width="5" height="6" x="16" y="11" maskUnits="userSpaceOnUse" style="mask-type:luminance"><path fill="#fff" fill-rule="evenodd" d="M16.64 11.396h3.889v2.376s-.317 1.941-2.01 2.897c0 0-1.641-.97-1.879-2.897v-2.376Z" clip-rule="evenodd"/></mask><g mask="url(#f)"><path fill="#58A5FF" fill-rule="evenodd" d="m18.489 11.268-1.699 3.525 2.304-2.092 1.586 2.628v-4.061l-1.586 1.3-.605-1.3Z" clip-rule="evenodd"/><path fill="#FFD018" d="M18.436 13.81a.127.127 0 0 1 .253 0v2.264a.127.127 0 0 1-.253 0V13.81Z"/><path fill="#FFD018" d="M17.995 14.368a.125.125 0 1 1 0-.249h1.145a.125.125 0 0 1 0 .25h-1.145Zm.617 1.748-.098.08c-.145-.175-.277-.26-.393-.26-.172 0-.311-.143-.425-.415l.117-.048c.096.23.2.337.308.337.162 0 .325.104.49.306Z"/><path fill="#FFD018" fill-rule="evenodd" d="m17.583 15.09-.002.001v.61c0 .002 0 .003.002.002l.459-.189v-.003l-.459-.421Z" clip-rule="evenodd"/><path fill="#FFD018" d="m18.508 16.116.098.08c.145-.175.277-.26.393-.26.172 0 .312-.143.425-.415l-.117-.048c-.096.23-.2.337-.308.337-.162 0-.324.104-.49.306Z"/><path fill="#FFD018" fill-rule="evenodd" d="m19.537 15.09.003.001v.61a.002.002 0 0 1-.003.002l-.459-.189v-.003l.459-.421Z" clip-rule="evenodd"/><path fill="#fff" d="M18.307 12.794h.507v.755h-.507z"/></g></g></g></g><rect width="23" height="17" x=".5" y=".5" stroke="#000" stroke-opacity=".1" rx="1.5"/><defs><clipPath id="a"><rect width="24" height="18" fill="#fff" rx="2"/></clipPath></defs></svg>