<svg xmlns="http://www.w3.org/2000/svg" fill="none" viewBox="0 0 24 18"><g clip-path="url(#a)"><mask id="b" width="24" height="18" x="0" y="0" maskUnits="userSpaceOnUse" style="mask-type:luminance"><path fill="#fff" d="M0 0h24v18H0z"/></mask><g mask="url(#b)"><path fill="#2E42A5" fill-rule="evenodd" d="M0 0v18h24V0H0Z" clip-rule="evenodd"/><mask id="c" width="24" height="18" x="0" y="0" maskUnits="userSpaceOnUse" style="mask-type:luminance"><path fill="#fff" fill-rule="evenodd" d="M0 0v18h24V0H0Z" clip-rule="evenodd"/></mask><g mask="url(#c)"><mask id="d" width="24" height="18" x="0" y="0" maskUnits="userSpaceOnUse" style="mask-type:luminance"><path fill="#fff" d="M0 0h24v18H0z"/></mask><g mask="url(#d)"><path fill="#fff" d="m-2.672 16.714 5.28 2.234L24.12 2.428 26.906-.89l-5.648-.746-8.774 7.118-7.062 4.797-8.094 6.436Z"/><path fill="#F50100" d="m-1.95 18.279 2.691 1.296L25.905-1.199h-3.778L-1.949 18.279Z"/><path fill="#fff" d="m26.672 16.714-5.28 2.234L-.12 2.428-2.906-.89l5.648-.746 8.774 7.118 7.062 4.797 8.094 6.436Z"/><path fill="#F50100" d="m26.492 17.837-2.69 1.296-10.716-8.894-3.176-.994L-3.174-.879H.604L13.68 9.005l3.474 1.191 9.338 7.641Z"/><mask id="e" fill="#fff"><path fill-rule="evenodd" d="M14.833-1.5H9.167V6H-1.48v6H9.167v7.5h5.666V12h10.688V6H14.833v-7.5Z" clip-rule="evenodd"/></mask><path fill="#F50100" fill-rule="evenodd" d="M14.833-1.5H9.167V6H-1.48v6H9.167v7.5h5.666V12h10.688V6H14.833v-7.5Z" clip-rule="evenodd"/><path fill="#fff" d="M9.167-1.5v-2h-2v2h2Zm5.666 0h2v-2h-2v2ZM9.167 6v2h2V6h-2ZM-1.48 6V4h-2v2h2Zm0 6h-2v2h2v-2Zm10.646 0h2v-2h-2v2Zm0 7.5h-2v2h2v-2Zm5.666 0v2h2v-2h-2Zm0-7.5v-2h-2v2h2Zm10.688 0v2h2v-2h-2Zm0-6h2V4h-2v2ZM14.833 6h-2v2h2V6ZM9.167.5h5.666v-4H9.167v4Zm2 5.5v-7.5h-4V6h4ZM-1.48 8H9.167V4H-1.48v4Zm2 4V6h-4v6h4Zm8.646-2H-1.48v4H9.167v-4Zm2 9.5V12h-4v7.5h4Zm3.666-2H9.167v4h5.666v-4Zm-2-5.5v7.5h4V12h-4Zm12.688-2H14.833v4h10.688v-4Zm-2-4v6h4V6h-4Zm-8.688 2H25.52V4H14.833v4Zm-2-9.5V6h4v-7.5h-4Z" mask="url(#e)"/></g></g></g></g><path stroke="#000" stroke-opacity=".1" stroke-width=".5" d="M.25.25h23.5v17.5H.25z"/><defs><clipPath id="a"><path fill="#fff" d="M0 0h24v18H0z"/></clipPath></defs></svg>