<svg xmlns="http://www.w3.org/2000/svg" fill="none" viewBox="0 0 24 18"><g clip-path="url(#a)"><path fill="#F7FCFF" d="M0 0h24v18H0z"/><mask id="b" width="24" height="18" x="0" y="0" maskUnits="userSpaceOnUse" style="mask-type:luminance"><path fill="#fff" d="M0 0h24v18H0z"/></mask><g mask="url(#b)"><mask id="c" fill="#fff"><path fill-rule="evenodd" d="M7.5 3h-3v2.244A.75.75 0 0 0 3.924 6H1.5v3h2.498c.097.2.28.351.502.404V12h3V9.414A.751.751 0 0 0 8.05 9h2.45V6H8.123v-.026a.75.75 0 0 0-.623-.74V3Z" clip-rule="evenodd"/></mask><path fill="#A0A0A0" fill-rule="evenodd" d="M7.5 3h-3v2.244A.75.75 0 0 0 3.924 6H1.5v3h2.498c.097.2.28.351.502.404V12h3V9.414A.751.751 0 0 0 8.05 9h2.45V6H8.123v-.026a.75.75 0 0 0-.623-.74V3Z" clip-rule="evenodd"/><path fill="#FECA00" d="M4.5 3V2h-1v1h1Zm3 0h1V2h-1v1Zm-3 2.244.23.973.77-.182v-.79h-1ZM3.924 6v1H4.96l-.035-1.034-1 .034ZM1.5 6V5h-1v1h1Zm0 3h-1v1h1V9Zm2.498 0 .9-.435L4.626 8h-.628v1Zm.502.404h1v-.79l-.77-.183-.23.973ZM4.5 12h-1v1h1v-1Zm3 0v1h1v-1h-1Zm0-2.586-.167-.986-.833.14v.846h1ZM8.05 9V8h-.628l-.273.565.9.435Zm2.45 0v1h1V9h-1Zm0-3h1V5h-1v1ZM8.123 6l-1-.034L7.09 7h1.034V6ZM7.5 5.235h-1v.845l.833.14.167-.985ZM4.5 4h3V2h-3v2Zm1 1.244V3h-2v2.244h2Zm-.576.73a.25.25 0 0 1-.193.243l-.462-1.946a1.75 1.75 0 0 0-1.345 1.703h2Zm0-.008v.008h-2v.06l2-.068ZM1.5 7h2.424V5H1.5v2Zm1 2V6h-2v3h2Zm1.498-1H1.5v2h2.498V8Zm.733.43a.248.248 0 0 1 .167.135l-1.8.87a1.75 1.75 0 0 0 1.171.942l.462-1.946ZM5.5 12V9.404h-2V12h2Zm2-1h-3v2h3v-2Zm-1-1.586V12h2V9.414h-2Zm1.167.986a1.75 1.75 0 0 0 1.283-.965l-1.801-.87c.034-.07.1-.123.184-.137l.334 1.971ZM10.5 8H8.05v2h2.45V8Zm-1-2v3h2V6h-2ZM8.123 7H10.5V5H8.123v2Zm-1-1.026v-.008l2 .068v-.06h-2Zm.21.247a.25.25 0 0 1-.21-.247h2A1.75 1.75 0 0 0 7.668 4.25l-.335 1.97ZM6.5 3v2.235h2V3h-2Z" mask="url(#c)"/><path fill="#E31D1C" fill-rule="evenodd" d="M12 0h12v18H12V0Z" clip-rule="evenodd"/></g></g><path stroke="#000" stroke-opacity=".1" stroke-width=".5" d="M.25.25h23.5v17.5H.25z"/><defs><clipPath id="a"><path fill="#fff" d="M0 0h24v18H0z"/></clipPath></defs></svg>