<svg xmlns="http://www.w3.org/2000/svg" fill="none" viewBox="0 0 24 18"><g clip-path="url(#a)"><mask id="b" width="24" height="18" x="0" y="0" maskUnits="userSpaceOnUse" style="mask-type:luminance"><path fill="#fff" d="M0 0h24v18H0z"/></mask><g mask="url(#b)"><path fill="#F7FCFF" fill-rule="evenodd" d="M0 0v18h24V0H0Z" clip-rule="evenodd"/><mask id="c" width="24" height="18" x="0" y="0" maskUnits="userSpaceOnUse" style="mask-type:luminance"><path fill="#fff" fill-rule="evenodd" d="M0 0v18h24V0H0Z" clip-rule="evenodd"/></mask><g mask="url(#c)"><path fill="#0080EC" fill-rule="evenodd" d="M0 0v6h24V0H0Zm0 12v6h24v-6H0Z" clip-rule="evenodd"/><path fill="#D0AB00" fill-rule="evenodd" d="M12 6c.141 0 .28.01.416.029l-.148.957a2.05 2.05 0 0 0-.654.019l-.07-.97C11.693 6.011 11.845 6 12 6Zm.864.126-.26.933a2.033 2.033 0 0 1 1.427 2.008l.965.082a3.001 3.001 0 0 0-2.132-3.023Zm1.771 4.31a3 3 0 0 1-2.413 1.556v-.972a2.03 2.03 0 0 0 1.373-.761l1.04.176Zm-5.202.117a3 3 0 0 0 2.395 1.442v-.97a2.03 2.03 0 0 1-1.45-.802l-.945.33Zm-.43-1.424a3.001 3.001 0 0 1 1.911-2.926l.25.944a2.032 2.032 0 0 0-1.196 1.839l-.965.143Z" clip-rule="evenodd"/><path fill="#7CDFFF" fill-rule="evenodd" d="m11.981 6.712-2.053 3.549h4.138l-2.085-3.549Z" clip-rule="evenodd"/><mask id="d" width="6" height="5" x="9" y="6" maskUnits="userSpaceOnUse" style="mask-type:luminance"><path fill="#fff" fill-rule="evenodd" d="m11.981 6.712-2.053 3.549h4.138l-2.085-3.549Z" clip-rule="evenodd"/></mask><g mask="url(#d)"><path stroke="#E31D1C" d="M12 11.464a1.918 1.918 0 1 0 0-3.837 1.918 1.918 0 0 0 0 3.837Z"/><path stroke="#FFD018" d="M12 11.464a1.918 1.918 0 1 0 0-3.837 1.918 1.918 0 0 0 0 3.837Z"/><path stroke="#4EDD00" d="M12 11.464a1.918 1.918 0 1 0 0-3.837 1.918 1.918 0 0 0 0 3.837Z"/><path stroke="#3D58DB" d="M12 11.464a1.918 1.918 0 1 0 0-3.837 1.918 1.918 0 0 0 0 3.837Z"/><path fill="#3D58DB" d="M9.764 9.164h4.691v1.364H9.764z"/><path fill="#97C923" fill-rule="evenodd" d="m10.078 9.743.935-.93.287.465.2-.567.223.425.233-.323.303.323.277-.425.238.425.272-.323.635.676.115.254-3.718.189v-.189Z" clip-rule="evenodd"/></g></g></g></g><path stroke="#000" stroke-opacity=".1" stroke-width=".5" d="M.25.25h23.5v17.5H.25z"/><defs><clipPath id="a"><path fill="#fff" d="M0 0h24v18H0z"/></clipPath></defs></svg>