<svg xmlns="http://www.w3.org/2000/svg" fill="none" viewBox="0 0 24 18"><g clip-path="url(#a)"><path fill="#19BFBF" d="M0 0h24v18H0z"/><path fill="#fff" fill-rule="evenodd" d="M6.885 4.855a.333.333 0 0 1 .093-.29l2.067-2.067a.333.333 0 0 1 .236-.098h1.37c.126 0 .242.071.298.184l.387.775a.333.333 0 0 0 .298.184h1.874c.126 0 .242.071.298.184l1.53 3.06a.333.333 0 0 0 .298.184h.842c.275 0 .431.314.267.534l-1.297 1.728a.338.338 0 0 0-.031.051l-.523 1.046a.334.334 0 0 0-.035.149v.985a.333.333 0 0 1-.035.15l-.536 1.072-.572 1.143-.48.958a.333.333 0 0 1-.297.184h-.731a.333.333 0 0 1-.298-.184l-.444-.888a.333.333 0 0 1-.036-.15v-3.211a.333.333 0 0 0-.097-.236l-.418-.418a.334.334 0 0 1-.081-.13l-.47-1.412a.333.333 0 0 0-.317-.228H7.711a.333.333 0 0 1-.33-.278l-.496-2.981ZM16 11.762c0-.184.15-.333.333-.333h.477c.184 0 .333.149.333.333v.73a.334.334 0 0 1-.035.15l-.444.888a.333.333 0 0 1-.299.184h-.032a.333.333 0 0 1-.333-.333v-1.619Z" clip-rule="evenodd"/></g><rect width="23" height="17" x=".5" y=".5" stroke="#000" stroke-opacity=".1" rx="1.5"/><defs><clipPath id="a"><rect width="24" height="18" fill="#fff" rx="2"/></clipPath></defs></svg>