<svg xmlns="http://www.w3.org/2000/svg" fill="none" viewBox="0 0 24 18"><g clip-path="url(#a)"><mask id="b" width="24" height="18" x="0" y="0" maskUnits="userSpaceOnUse" style="mask-type:luminance"><path fill="#fff" d="M0 0h24v18H0z"/></mask><g mask="url(#b)"><path fill="#093" fill-rule="evenodd" d="M0 0v18h24V0z" clip-rule="evenodd"/><mask id="c" width="24" height="18" x="0" y="0" maskUnits="userSpaceOnUse" style="mask-type:luminance"><path fill="#fff" fill-rule="evenodd" d="M0 0v18h24V0z" clip-rule="evenodd"/></mask><g mask="url(#c)"><path fill="#3195F9" fill-rule="evenodd" d="M0 0v18L24 0z" clip-rule="evenodd"/><path fill="#E31D1C" stroke="#F7FCFF" stroke-width="2" d="m25.172-2.026 1.756 3.78.358.77-.702.479L.46 20.784l-.907.618-.532-.96-2.149-3.895-.444-.805.765-.51L23.71-2.437l.97-.646z"/><path fill="#FECA00" fill-rule="evenodd" d="m4.673 6.934-.971 1.21-.235-1.533-1.446.563.563-1.446-1.534-.235 1.211-.97-1.21-.971 1.533-.235-.563-1.446 1.446.563L3.702.9l.97 1.21L5.644.9l.235 1.534 1.446-.563-.563 1.446 1.534.235-1.211.97 1.21.97-1.533.236.563 1.446-1.446-.563-.235 1.533zm0-.537a1.875 1.875 0 1 0 0-3.75 1.875 1.875 0 0 0 0 3.75m1.5-1.875a1.5 1.5 0 1 1-3 0 1.5 1.5 0 0 1 3 0" clip-rule="evenodd"/></g></g></g><rect width="23" height="17" x=".5" y=".5" stroke="#000" stroke-opacity=".1" rx="1.5"/><defs><clipPath id="a"><rect width="24" height="18" fill="#fff" rx="2"/></clipPath></defs></svg>