<svg xmlns="http://www.w3.org/2000/svg" fill="none" viewBox="0 0 24 18"><g clip-path="url(#a)"><mask id="b" width="24" height="18" x="0" y="0" maskUnits="userSpaceOnUse" style="mask-type:luminance"><path fill="#fff" d="M0 0h24v18H0z"/></mask><g mask="url(#b)"><path fill="#C51918" fill-rule="evenodd" d="M0 0v18h24V0H0Z" clip-rule="evenodd"/><mask id="c" width="24" height="18" x="0" y="0" maskUnits="userSpaceOnUse" style="mask-type:luminance"><path fill="#fff" fill-rule="evenodd" d="M0 0v18h24V0H0Z" clip-rule="evenodd"/></mask><g mask="url(#c)"><path fill="#FFDC17" fill-rule="evenodd" d="M11.986 13.4c.08 0 .16-.002.24-.006l.463 1.476.107-1.542a4.58 4.58 0 0 0 .456-.107l.793 1.33-.254-1.526c.143-.062.283-.132.418-.208l1.082 1.113-.603-1.427a4.45 4.45 0 0 0 .358-.298l1.313.836-.919-1.25c.1-.12.193-.244.28-.372l1.471.513-1.183-1.006c.069-.138.13-.28.186-.426l1.55.163-1.386-.709c.035-.15.062-.302.081-.457l1.546-.196-1.512-.372c0-.157-.01-.312-.026-.464l1.457-.544-1.555-.017a4.415 4.415 0 0 0-.134-.446l1.29-.862-1.517.34a4.423 4.423 0 0 0-.235-.405L16.808 5.4l-1.396.677a4.49 4.49 0 0 0-.323-.34l.762-1.343-1.2.977a4.491 4.491 0 0 0-.393-.259l.428-1.478-.938 1.223a4.481 4.481 0 0 0-.445-.161l.073-1.534-.628 1.403a4.527 4.527 0 0 0-.471-.055L11.992 3l-.285 1.508a4.53 4.53 0 0 0-.472.054l-.628-1.401.074 1.53c-.153.046-.302.1-.448.162l-.936-1.22.428 1.473c-.138.08-.27.166-.398.26l-1.194-.973.758 1.336a4.493 4.493 0 0 0-.327.343L7.176 5.4l1.048 1.126a4.437 4.437 0 0 0-.238.409l-1.507-.338 1.282.856a4.39 4.39 0 0 0-.136.453l-1.546.016 1.448.54a4.46 4.46 0 0 0-.027.47l-1.502.37 1.535.195c.02.157.047.312.083.463l-1.376.704 1.54-.162c.055.148.118.292.189.431l-1.176 1 1.462-.51c.088.13.183.255.283.375l-.913 1.244 1.306-.832c.115.106.236.206.362.3l-.6 1.421 1.078-1.11c.136.077.277.147.421.21l-.253 1.52.791-1.327c.15.043.302.08.458.107l.107 1.54.463-1.476c.075.004.152.006.229.006Zm3.375-4.463c0 1.863-1.523 3.374-3.402 3.374-1.878 0-3.402-1.51-3.402-3.374s1.524-3.375 3.402-3.375c1.88 0 3.402 1.511 3.402 3.375Zm-1.028 1.099a2.577 2.577 0 0 0 .01-2.067 4.016 4.016 0 0 0-1.49.394c.897.392 1.302 1.038 1.48 1.673Zm-.29.493a2.531 2.531 0 0 1-.24.278c-.047-.886-.426-1.56-1.105-2.29.84.404 1.315 1.367 1.345 2.012Zm-.643.608a2.558 2.558 0 0 1-.146.09c-.202-.995-.584-1.78-1.116-2.407l.129-.097.052-.039c.68.783 1.11 1.455 1.08 2.454Zm-1.418.427c.301 0 .591-.052.86-.148-.195-.947-.536-1.828-1.029-2.465-.589.702-.889 1.494-.9 2.381.326.149.688.232 1.069.232Zm-.495-2.917.058.048c-.627.713-.97 1.518-1.029 2.41a2.595 2.595 0 0 1-.222-.172c.237-.944.629-1.722 1.192-2.286Zm-1.874-.66a4.44 4.44 0 0 1 1.404.375c-.889.378-1.239.987-1.415 1.607a2.564 2.564 0 0 1-.192-.977c0-.357.072-.696.203-1.005Zm.323 2.564a2.528 2.528 0 0 1-.058-.079c.045-.652.46-1.576 1.298-1.958a4.489 4.489 0 0 0-1.24 2.037Zm.19-3.34a2.564 2.564 0 0 1 1.856-.791c.717 0 1.366.294 1.833.768-.734.085-1.357.269-1.862.555-.451-.258-1.06-.433-1.827-.533Z" clip-rule="evenodd"/></g></g></g><path stroke="#000" stroke-opacity=".1" stroke-width=".5" d="M.25.25h23.5v17.5H.25z"/><defs><clipPath id="a"><path fill="#fff" d="M0 0h24v18H0z"/></clipPath></defs></svg>