<svg xmlns="http://www.w3.org/2000/svg" fill="none" viewBox="0 0 24 18"><g clip-path="url(#a)"><mask id="b" width="24" height="18" x="0" y="0" maskUnits="userSpaceOnUse" style="mask-type:luminance"><path fill="#fff" d="M0 0h24v18H0z"/></mask><g mask="url(#b)"><path fill="#F7FCFF" fill-rule="evenodd" d="M0 0v18h24V0z" clip-rule="evenodd"/><mask id="c" width="24" height="18" x="0" y="0" maskUnits="userSpaceOnUse" style="mask-type:luminance"><path fill="#fff" fill-rule="evenodd" d="M0 0v18h24V0z" clip-rule="evenodd"/></mask><g fill-rule="evenodd" clip-rule="evenodd" mask="url(#c)"><path fill="#5EAA22" d="M0 0v6h24V0z"/><path fill="#E31D1C" d="M0 12v6h24v-6z"/><path fill="#F7FCFF" d="M3.45 12.294v.475H1.703v-.475zM.425 13.488H.27v-.19h.34v.665h.435v.006h.42v-1.382h-.268v.906h-.042v-.978H.886v.973H.88v-.973H.61v.308H0v1.14h.425zm1.126.267h.269v-.472h.3v.686h.844v-1.16H2.53v.475h.164v.21h-.306v-.686H1.55zm1.719-.267h.155v.476H3v-1.141h.61v-.308h.269v.973h.007v-.973h.269v.978h.042v-.906h.269v1.382h-.421v-.005H3.61v-.666h-.341zm3.181-1.194v.475H4.702v-.475zm-1.9 1.46h.269v-.47h.3v.684h.844v-1.16H5.53v.476h.164v.21h-.306v-.686H4.55zm1.772-.266h.155v.476h-.424v-1.141h.61v-.308h.27v.973h.006v-.973h.27v.978h.04v-.906h.27v1.382h-.421v-.005h-.435v-.666h-.34zm3.182-1.194v.475H7.756v-.475zm-1.9 1.46h.268v-.47h.3v.684h.844v-1.16h-.433v.476h.164v.21h-.306v-.686h-.838zm1.718-.266h.155v.476h-.424v-1.141h.61v-.308h.27v.973h.006v-.973h.27v.978h.04v-.906h.27v1.382h-.421v-.005h-.435v-.666h-.34zm3.182-1.194v.475h-1.748v-.475zm-1.901 1.46h.269v-.47h.3v.684h.844v-1.16h-.433v.476h.164v.21h-.306v-.686h-.838zm1.719-.266h.155v.476h-.424v-1.141h.61v-.308h.269v.973h.007v-.973h.269v.978h.042v-.906h.269v1.382h-.421v-.005h-.435v-.666h-.341zm3.181-1.194v.475h-1.748v-.475zm-1.9 1.46h.269v-.47h.3v.684h.844v-1.16h-.433v.476h.164v.21h-.306v-.686h-.838zm1.772-.266h.155v.476h-.424v-1.141h.61v-.308h.27v.973h.006v-.973h.27v.978h.041v-.906h.269v1.382h-.421v-.005h-.435v-.666h-.34zm3.182-1.194v.475H16.81v-.475zm-1.9 1.46h.268v-.47h.3v.684h.844v-1.16h-.433v.476h.164v.21h-.306v-.686h-.838zm1.772-.266h.155v.476h-.424v-1.141h.61v-.308h.269v.973h.007v-.973h.269v.978h.041v-.906h.27v1.382h-.422v-.005h-.434v-.666h-.341zm3.181-1.194v.475h-1.748v-.475zm-1.9 1.46h.269v-.47h.3v.684h.844v-1.16h-.433v.476h.164v.21h-.306v-.686h-.838zm1.772-.266h.155v.476h-.424v-1.141h.61v-.308h.27v.973h.006v-.973h.27v.978h.04v-.906h.27v1.382h-.421v-.005h-.435v-.666h-.34zm3.182-1.194v.475h-1.748v-.475zm-1.901 1.46h.269v-.47h.3v.684h.844v-1.16h-.433v.476h.164v.21h-.306v-.686h-.838zm1.719-.266h.155v.476h-.424v-1.141h.61v-.308h.269v.973h.007v-.973h.269v.978h.042v-.906h.269v1.382h-.421v-.005h-.435v-.666h-.341zm3.181-1.194v.475h-1.748v-.475zm-1.9 1.46h.269v-.47h.3v.684h.844v-1.16h-.433v.476h.164v.21H26.6v-.686h-.838zm1.88-.266h.155v.476h-.425v-1.141h.61v-.308h.27v.973h.006v-.973h.27v.978h.041v-.906h.27v1.382h-.422v-.005h-.435v-.666h-.34zm3.18-1.194v.475h-1.747v-.475zm-1.9 1.46h.27v-.47h.3v.684h.843v-1.16h-.432v.476h.163v.21h-.306v-.686h-.838zM.364 4.044v.475h-1.748v-.475zm-3.027 1.194h-.155v-.19h.341v.666h.435v.005h.42V4.337h-.268v.906h-.042v-.978H-2.2v.973h-.007v-.973h-.269v.308h-.61v1.14h.425zm1.126.267h.269v-.472h.3v.686h.844v-1.16h-.433v.475h.164v.21h-.306v-.686h-.838zm1.719-.267h.155v.476h-.424V4.573h.61v-.308h.269v.973h.007v-.973h.27v.978h.04v-.906h.27V5.72H.958v-.005H.523v-.666H.182zm3.181-1.194v.475H1.615v-.475zm-1.9 1.46h.269v-.47h.3v.685h.844v-1.16h-.433v.475h.164v.21H2.3v-.686h-.838zm1.772-.266h.156v.476h-.425V4.573h.61v-.308h.27v.973h.006v-.973h.27v.978h.041v-.906h.27V5.72H4.01v-.005h-.435v-.666h-.34zm3.182-1.194v.475H4.669v-.475zm-1.9 1.46h.268v-.47h.3v.685h.844v-1.16h-.433v.475h.164v.21h-.306v-.686h-.838zm1.718-.266h.155v.476h-.424V4.573h.61v-.308h.27v.973h.006v-.973h.27v.978h.04v-.906h.27V5.72H7.01v-.005h-.435v-.666h-.34zm3.182-1.194v.475H7.669v-.475zm-1.901 1.46h.27v-.47h.3v.685h.843v-1.16h-.433v.475h.164v.21h-.306v-.686h-.838zm1.719-.266h.155v.476h-.424V4.573h.61v-.308h.269v.973h.007v-.973h.27v.978h.04v-.906h.27V5.72h-.421v-.005h-.435v-.666h-.341zm3.181-1.194v.475h-1.748v-.475zm-1.9 1.46h.269v-.47h.3v.685h.844v-1.16h-.433v.475h.164v.21h-.306v-.686h-.838zm1.772-.266h.156v.476h-.425V4.573h.61v-.308h.27v.973h.007v-.973h.268v.978h.042v-.906h.27V5.72h-.422v-.005h-.435v-.666h-.34zm3.182-1.194v.475h-1.748v-.475zm-1.9 1.46h.268v-.47h.3v.685h.844v-1.16h-.432v.475h.163v.21h-.306v-.686h-.838zm1.772-.266h.155v.476h-.424V4.573h.61v-.308h.269v.973h.007v-.973h.269v.978h.041v-.906h.27V5.72h-.422v-.005h-.434v-.666h-.341zm3.181-1.194v.475h-1.748v-.475zm-1.9 1.46h.269v-.47h.3v.685h.844v-1.16h-.433v.475h.164v.21h-.306v-.686h-.838zm1.772-.266h.155v.476h-.424V4.573h.61v-.308h.27v.973h.006v-.973h.27v.978h.04v-.906h.27V5.72h-.421v-.005h-.435v-.666h-.34zm3.182-1.194v.475h-1.749v-.475zm-1.901 1.46h.269v-.47h.3v.685h.844v-1.16h-.433v.475h.164v.21h-.306v-.686h-.838zm1.719-.266h.155v.476h-.424V4.573h.61v-.308h.269v.973h.007v-.973h.27v.978h.04v-.906h.27V5.72h-.421v-.005h-.435v-.666h-.341zm3.181-1.194v.475h-1.748v-.475zm-1.9 1.46h.269v-.47h.3v.685h.844v-1.16h-.433v.475h.164v.21h-.306v-.686h-.838zm1.88-.266h.155v.476h-.425V4.573h.61v-.308h.27v.973h.007v-.973h.269v.978h.041v-.906h.27V5.72h-.422v-.005h-.434v-.666h-.341zm3.181-1.194v.475h-1.748v-.475zm-1.9 1.46h.268v-.47h.3v.685h.844v-1.16h-.432v.475h.163v.21h-.306v-.686h-.838z"/><path fill="#E31D1C" d="M10.955 6.188s.32.168.648.168.658-.168.658-.168v.224s-.36.17-.68.17c-.318 0-.626-.17-.626-.17zM8.592 8.843c0-1.334 1.832-2.205 1.832-2.205s-1.059.567-1.059 2.15.55 2.267.55 2.267-1.323-.878-1.323-2.212m6.179-.074c0-1.333-1.83-2.131-1.83-2.131s1.058.567 1.058 2.15-.55 2.267-.55 2.267 1.322-.952 1.322-2.286m-4.928.364c-.07-1.331 1.038-2.525 1.038-2.525s-.404.548-.32 2.129c.028.542.241 1.35.51 1.825V6.694h1.126v3.902c.27-.445.477-1.203.506-1.753.083-1.58-.301-2.235-.301-2.235s1.108 1.194 1.038 2.525c-.042.793-.652 1.632-1.139 2.18.237.053.554.118.99.204.009.048-.088.046-.281.041a6 6 0 0 0-.976.043c-.199.204-.337.324-.337.324s-.022-.03-.056-.07c-.034.04-.056.07-.056.07s-.138-.12-.337-.324a6 6 0 0 0-.975-.043c-.193.005-.29.007-.281-.041.436-.086.753-.15.99-.203-.487-.549-1.098-1.388-1.14-2.18"/></g></g></g><rect width="23" height="17" x=".5" y=".5" stroke="#000" stroke-opacity=".1" rx="1.5"/><defs><clipPath id="a"><rect width="24" height="18" fill="#fff" rx="2"/></clipPath></defs></svg>