<svg xmlns="http://www.w3.org/2000/svg" fill="none" viewBox="0 0 24 18"><g clip-path="url(#a)"><mask id="b" width="24" height="18" x="0" y="0" maskUnits="userSpaceOnUse" style="mask-type:luminance"><path fill="#fff" d="M0 0h24v18H0z"/></mask><g fill-rule="evenodd" clip-rule="evenodd" mask="url(#b)"><path fill="#F50100" d="M0 0h24v18H0V0Z"/><path fill="#1A1A1A" d="M12.375 4.668c.051-.01.178-.08.452-.44.167-.22.16-.485.153-.714-.009-.301-.016-.542.375-.542.32 0 .557-.092.756-.169.228-.088.406-.157.6-.044.313.184.682.209.681.212l-.03.001c-.15 0-.691.308-.273.308.204 0 .423-.147.592-.262.178-.12.302-.203.302-.046 0 0 .119.348-.168.374 0 0-1.297.127-1.043.184 0 0 .23.095.388.1 0 0 .069.24-.352.307 0 0-1.187.22-1.241.602a3.372 3.372 0 0 1-.084.357c-.108.402-.238.884.084.884.43 0 .708-.294.708-.624s.058-.889.436-.916c0 0 .93-.314 1.044-.292.044.008.041.037.039.069-.005.053-.01.117.189.117.319 0 1.243-.766 1.389-1.07.145-.305.364 0 .364 0s.14.852-.592 1.163c-.732.312-1.161.312-1.161.312s-.457.336-.168.336c.064 0 .144.006.234.012.318.023.764.056 1.095-.12l.24-.132c.25-.139.352-.196.352-.096v.002c0 .133 0 .837-.488.837h-1.265c-.168 0-.567.24.095.402.662.162.875.095 1.17 0 .295-.094.488-.148.488 0s-.405.702-.752.702c-.203 0-.42-.105-.6-.193-.126-.062-.234-.114-.306-.114-.173 0-.353.307-.263.307.029 0 .08.047.149.11.144.133.365.337.63.337.215 0 .383-.044.533-.084.123-.032.234-.061.35-.061.15 0 .213-.018.24.005.019.017.019.056.019.14 0 .198-.516.417-.752.417-.107 0-.37-.118-.627-.231-.306-.137-.602-.269-.602-.186 0 .15.623.962 1.006.962h.716c.259 0 .156.329.156.329s-.25.222-.561.222c-.233 0-.463-.176-.643-.315a2.146 2.146 0 0 0-.162-.117c-.189-.119-.452-.21-.452 0s.594 1.049 1.075 1.049c.193 0 .366-.031.505-.056.21-.037.34-.06.34.056 0 .194-.223.625-.487.53l-.006-.003c-.27-.097-1.092-.394-1.26-.709-.167-.317-.475-.182-.35 0 .123.182.777 1.122 1.258 1.21.128.023.255.038.37.052.32.04.551.068.476.22-.103.208-.529.499-.752.408-.223-.092-.986-.793-1.17-1.086-.183-.292-.654-.852-.654-.622 0 .049-.009.116-.018.192-.037.28-.09.682.22.75.393.086.6.464.393.464-.207 0-.947-.177-.947-.646 0-.47-.334-.733-.334-.601l-.001.054c-.004.166-.012.503.151.729.184.255-.077.462-.15.359-.074-.104-.389-.585-.389-.679 0-.093-.111-.311-.242-.311-.13 0-.157.228.088.717.244.489.848.88 1.039.88.19 0 0 .438 0 .438l1.297.336s.494-.255.494-.336c0-.081.258-.28.487-.28.229 0 .247.28.124.28-.061 0-.148.052-.235.105-.09.054-.18.11-.247.11-.13 0-.526.277-.526.277h.884s-.142-.156.229-.156c.37 0 .523.156.523.156s-.418.245-.523.245a.668.668 0 0 0-.102.012c-.061.01-.14.023-.242.025-.028-.02-.045-.016-.055 0a1.605 1.605 0 0 1-.317-.037c-.397-.086.31.178.31.178s-.015-.102.007-.14h.055c.027.02.064.062.115.14.229.347.264.455 0 .455s-.487-.08-.487-.268-.494-.365-.494-.365l-.636.365s.119.204-.075.268c-.194.064-.467-.03-.467-.094 0-.065.064-.361.229-.361.164 0 .665-.273.665-.273l-1.211-.362s-.34.362-.451.362c-.057 0-.17-.23-.292-.483-.117-.24-.243-.5-.34-.597a1.598 1.598 0 0 1-.167-.221c-.118-.178-.227-.343-.386-.228-.23.165-.321.673 0 1.101.32.428.876.767 1.03.767.155 0 .458.014.458.121s-.135.544-.458.359l-.192-.112c-.256-.15-.486-.286-.525-.247-.05.049.152.6.435.73a.664.664 0 0 0 .33.05c.114-.003.188-.006.188.123 0 .231-.2.489-.559.245a2.343 2.343 0 0 1-.393-.361c-.13-.14-.213-.232-.25-.141-.064.162-.037.794.249.794.065 0 .126-.002.181-.004.184-.006.3-.01.3.075 0 .112-.065.587-.363.397-.298-.19-.516-.426-.57-.593-.052-.167-.37 0-.27.235.1.235.344.71.409.71S12.38 16.2 12.38 16.2l-.005-1.765-.005 1.765s-.82-1.433-.756-1.433c.065 0 .309-.475.41-.71.1-.236-.219-.402-.272-.235-.053.167-.271.404-.569.594-.298.19-.364-.286-.364-.398 0-.086.117-.081.3-.075.056.002.117.004.182.004.286 0 .313-.632.248-.794-.036-.09-.12 0-.25.14a2.343 2.343 0 0 1-.392.362c-.36.244-.56-.014-.56-.245 0-.13.075-.126.19-.122.09.003.205.007.33-.05.281-.132.483-.682.434-.731-.039-.039-.269.096-.525.247l-.192.112c-.323.185-.458-.252-.458-.359 0-.107.303-.121.458-.121.155 0 .71-.339 1.03-.767.321-.428.23-.936 0-1.101-.159-.115-.268.05-.386.228-.052.078-.106.16-.167.22-.097.098-.223.358-.34.598-.122.252-.235.483-.292.483-.111 0-.45-.362-.45-.362l-1.212.362s.5.272.665.272c.165 0 .23.297.23.362 0 .064-.274.158-.468.094s-.075-.268-.075-.268l-.636-.365s-.494.178-.494.365c0 .188-.223.268-.487.268s-.229-.108 0-.456a.586.586 0 0 1 .115-.14h.055c.022.039.006.14.006.14s.708-.263.311-.177a1.605 1.605 0 0 1-.317.038c-.01-.017-.027-.022-.055 0-.101-.003-.18-.016-.242-.026a.668.668 0 0 0-.102-.012c-.105 0-.523-.245-.523-.245s.153-.156.523-.156.229.156.229.156h.884s-.397-.278-.526-.278c-.066 0-.157-.055-.247-.109-.087-.053-.174-.105-.235-.105-.123 0-.105-.28.124-.28.229 0 .487.199.487.28 0 .081.494.336.494.336l1.298-.336s-.191-.438 0-.438c.19 0 .794-.391 1.038-.88.245-.49.219-.717.088-.717-.13 0-.242.218-.242.311 0 .094-.315.575-.389.679-.073.103-.334-.104-.15-.36.163-.225.155-.562.151-.728v-.054c0-.132-.335.131-.335.6 0 .47-.74.647-.947.647-.207 0 0-.378.393-.464.31-.068.257-.47.22-.75a1.649 1.649 0 0 1-.018-.192c0-.23-.471.33-.655.622-.183.293-.946.994-1.17 1.086-.222.091-.648-.2-.75-.407-.076-.153.156-.182.475-.22a6.41 6.41 0 0 0 .37-.053c.48-.088 1.135-1.028 1.259-1.21.124-.182-.184-.317-.352 0-.167.315-.99.612-1.26.71l-.005.001c-.264.096-.488-.335-.488-.53 0-.115.132-.092.34-.055.14.025.313.056.506.056.48 0 1.075-.84 1.075-1.05 0-.21-.263-.118-.452 0-.047.03-.101.072-.162.118-.18.139-.41.315-.643.315-.31 0-.561-.222-.561-.222s-.103-.329.156-.329h.716c.383 0 1.006-.811 1.006-.962 0-.083-.296.049-.602.186-.256.113-.52.23-.627.23-.236 0-.752-.218-.752-.416 0-.084 0-.123.02-.14.026-.023.09-.005.239-.005.116 0 .227.03.35.061.15.04.318.084.534.084.263 0 .485-.204.63-.336.068-.064.12-.11.148-.11.09 0-.09-.308-.263-.308-.072 0-.18.052-.307.114-.179.088-.396.193-.6.193-.346 0-.75-.554-.75-.702 0-.148.192-.094.487 0 .295.095.508.162 1.17 0 .662-.162.263-.402.095-.402H7.502c-.488 0-.488-.704-.488-.837V4.54c0-.1.103-.043.353.096l.239.131c.331.177.777.144 1.095.121.09-.006.17-.012.234-.012.289 0-.168-.336-.168-.336s-.429 0-1.16-.312c-.733-.311-.593-1.163-.593-1.163s.219-.305.364 0c.146.304 1.07 1.07 1.39 1.07.198 0 .193-.064.188-.117-.002-.032-.005-.06.039-.069.115-.022 1.044.292 1.044.292.378.027.436.585.436.916 0 .33.279.624.708.624.322 0 .192-.482.084-.884a3.372 3.372 0 0 1-.084-.357c-.054-.381-1.241-.602-1.241-.602-.42-.066-.352-.306-.352-.306.158-.006.388-.101.388-.101.254-.057-1.043-.184-1.043-.184-.287-.026-.168-.374-.168-.374 0-.157.124-.074.301.046.17.115.389.262.593.262.418 0-.122-.308-.273-.308h-.03c0-.004.368-.03.68-.213.195-.113.373-.044.601.044.199.077.436.169.756.169.39 0 .384.24.375.542-.007.23-.014.494.153.713.274.36.401.43.452.44Z"/></g></g><path stroke="#000" stroke-opacity=".1" stroke-width=".5" d="M.25.25h23.5v17.5H.25z"/><defs><clipPath id="a"><path fill="#fff" d="M0 0h24v18H0z"/></clipPath></defs></svg>