<svg xmlns="http://www.w3.org/2000/svg" fill="none" viewBox="0 0 24 18"><g clip-path="url(#a)"><mask id="b" width="24" height="18" x="0" y="0" maskUnits="userSpaceOnUse" style="mask-type:luminance"><path fill="#fff" d="M0 0h24v18H0z"/></mask><g mask="url(#b)"><path fill="#67BD38" fill-rule="evenodd" d="M16.5 0H24v18h-7.5V0Z" clip-rule="evenodd"/><path fill="#D51700" fill-rule="evenodd" d="M7.5 0h9v18h-9V0Z" clip-rule="evenodd"/><path fill="#272727" fill-rule="evenodd" d="M0 0h7.5v18H0V0Z" clip-rule="evenodd"/><path fill="#F7FCFF" fill-rule="evenodd" d="m9.366 5.983.26.163c-.433.727-.724 1.394-.874 2a.7.7 0 0 1 .144.181c.118.203.216.4.296.592l-.345.147a4.582 4.582 0 0 0-.191-.4 3.13 3.13 0 0 0 .007.839c.063.006.116.02.177.042.22.08.423.168.607.263l-.17.334a4.758 4.758 0 0 0-.517-.227l.004.011c.16.484.405.93.736 1.337a.71.71 0 0 1 .157-.015c.234 0 .454.013.66.04l-.045.372a4.537 4.537 0 0 0-.445-.034c.298.297.647.572 1.048.823l-.158.267a6.04 6.04 0 0 1-1.27-1.043c-.045.018-.1.041-.171.072l-.027.012c.305.319.665.613 1.08.88l-.16.266a6.111 6.111 0 0 1-1.234-1.033.814.814 0 0 1-.462-.006l.1-.36a.496.496 0 0 0 .072.015 4.66 4.66 0 0 1-.717-1.381 2.992 2.992 0 0 1-.073-.269.8.8 0 0 1-.338-.15l.218-.305a.51.51 0 0 0 .057.037c-.039-.46.015-.955.16-1.488a.8.8 0 0 1-.181-.355l.319-.082c.171-.486.414-1 .728-1.544l.261.16a8.674 8.674 0 0 0-.76 1.659c.046.042.103.087.172.138.166-.604.458-1.257.875-1.958Zm-.967 2.356a6.072 6.072 0 0 0-.192-.144c-.115.477-.15.918-.103 1.322.056 0 .12-.002.192-.006l.06-.004a3.642 3.642 0 0 1 .043-1.168Zm-.087 1.545.118-.007a4.492 4.492 0 0 0 .765 1.498l-.062.027a3.114 3.114 0 0 1-.145.06 4.365 4.365 0 0 1-.815-1.572 3.92 3.92 0 0 0 .14-.006Zm6.312-3.901-.26.163c.433.727.724 1.394.874 2a.71.71 0 0 0-.144.181c-.117.203-.216.4-.296.592l.345.147c.054-.13.118-.263.191-.4a3.13 3.13 0 0 1-.007.839.704.704 0 0 0-.177.042c-.22.08-.423.168-.607.263l.17.334c.157-.081.33-.157.517-.227l-.004.011c-.16.484-.405.93-.736 1.337a.712.712 0 0 0-.156-.015 5.18 5.18 0 0 0-.661.04l.045.372c.14-.018.288-.03.445-.034a5.904 5.904 0 0 1-1.048.823l.158.267c.498-.312.921-.66 1.27-1.043.045.018.1.041.171.072l.027.012a5.908 5.908 0 0 1-1.08.88l.16.266a6.11 6.11 0 0 0 1.235-1.033c.163.042.3.041.461-.006l-.1-.36a.495.495 0 0 1-.072.015c.318-.422.557-.883.717-1.381.028-.088.053-.178.073-.269a.8.8 0 0 0 .338-.15l-.218-.305a.511.511 0 0 1-.057.037 4.27 4.27 0 0 0-.16-1.488.801.801 0 0 0 .181-.355l-.319-.082c-.171-.486-.414-1-.728-1.544l-.26.16c.34.592.594 1.145.76 1.659a2.285 2.285 0 0 1-.173.138c-.166-.604-.458-1.257-.875-1.958Zm.967 2.356a6.174 6.174 0 0 1 .192-.144c.116.477.15.918.103 1.322-.056 0-.12-.002-.192-.006l-.06-.004a3.63 3.63 0 0 0-.043-1.168Zm.087 1.545a7.369 7.369 0 0 0-.118-.007 4.494 4.494 0 0 1-.765 1.498l.062.027c.053.023.101.043.145.06a4.366 4.366 0 0 0 .815-1.572 3.924 3.924 0 0 1-.14-.006Z" clip-rule="evenodd"/><path fill="#F7FCFF" fill-rule="evenodd" d="m10.69 12.198-.837.829s.722.442 2.082.442c1.361 0 2.153-.442 2.153-.442l-.636-.829s-.867.336-1.482.336c-.614 0-1.28-.336-1.28-.336Z" clip-rule="evenodd"/><path stroke="#C00001" stroke-width=".5" d="M10.707 12.727s.71.167 1.252.167c.544 0 1.253-.167 1.253-.167"/><path fill="#F7FCFF" fill-rule="evenodd" d="M12.669 7.094c0 .328-.3.593-.669.593-.37 0-.669-.265-.669-.593 0-.328.3-.594.669-.594.37 0 .669.266.669.594ZM12 7.687h-.72l-.198.153h-.04V6.65h-.364v1.19h-.32v.202h.32v2.143c-.043.343-.143.536-.284.604l-.744.357h4.483l-.322-.322c-.283-.283-.419-.5-.419-.627V8.042h.128V7.84h-.128V6.65h-.365v1.19h-.117l-.236-.152H12Zm-.957.355h1.984v2.155c0 .174.083.363.243.574h-2.378c.074-.148.123-.332.15-.562V8.042ZM12.06 9h-.79v1.563h1.58L12.061 9Zm.817-4.383.002.002-.002-.002Zm1.156.406v.007-.007Zm.225.028v-.003.003Zm-.91.46h.005-.004Z" clip-rule="evenodd"/><path fill="#F7FCFF" fill-rule="evenodd" d="m9.745 8.001-.15.108.154.226c-.132.047-.344.167-.344.449 0 .41-.144.744-.144.744l.43.276s.044-.477.161-.749a.438.438 0 0 1 .226-.237l.667.979.15-.108-1.15-1.688Zm4.558 0 .15.108-.154.226c.132.047.344.167.344.449 0 .41.144.744.144.744l-.43.276s-.044-.477-.161-.749a.438.438 0 0 0-.226-.237l-.667.979-.15-.108 1.15-1.688Z" clip-rule="evenodd"/></g></g><path stroke="#000" stroke-opacity=".1" stroke-width=".5" d="M.25.25h23.5v17.5H.25z"/><defs><clipPath id="a"><path fill="#fff" d="M0 0h24v18H0z"/></clipPath></defs></svg>