<svg xmlns="http://www.w3.org/2000/svg" fill="none" viewBox="0 0 24 18"><g clip-path="url(#a)"><mask id="b" width="24" height="18" x="0" y="0" maskUnits="userSpaceOnUse" style="mask-type:luminance"><path fill="#fff" d="M0 0h24v18H0z"/></mask><g mask="url(#b)"><path fill="#F50101" fill-rule="evenodd" d="M0 0v18h24V0z" clip-rule="evenodd"/><mask id="c" width="24" height="18" x="0" y="0" maskUnits="userSpaceOnUse" style="mask-type:luminance"><path fill="#fff" fill-rule="evenodd" d="M0 0v18h24V0z" clip-rule="evenodd"/></mask><g mask="url(#c)"><path fill="#F7FCFF" fill-rule="evenodd" d="M0 0v6h24V0z" clip-rule="evenodd"/><path fill="#5EAA22" fill-rule="evenodd" d="M0 12v6h24v-6z" clip-rule="evenodd"/><path fill="#F50101" d="M0 0h9v18H0z"/><path fill="#F7FCFF" fill-rule="evenodd" d="M4.269 5.947c-.343-.034-2.61-.227-2.61.598 0 .492.552.752 1.243.887-.656.594-1.277 1.154-1.6 1.445a.079.079 0 0 0 .075.137c.588-.152 1.937-.568 3.225-1.446h.042c.38 0 .643-.165.826-.388 1.298 1.06 2.757 1.58 3.48 1.788.093.027.145-.092.066-.148a20.5 20.5 0 0 1-2.943-2.55l.033-.039q.385-.457.676-.928a.45.45 0 0 0 .185-.208h.2v.5c0 .049.038.088.086.088H8.79a.087.087 0 0 0 .087-.087v-.951a.087.087 0 0 0-.087-.087H7.252a.087.087 0 0 0-.087.087v.002H7.15a9.3 9.3 0 0 0 .918-3.031c.01-.091-.105-.127-.152-.048a29 29 0 0 1-2.03 2.922V3.8c-.108-.116-.45-.43-.45-.43v-.686l.619-.56-.849-.625-.894.625.676.56v.687c0 .33-.41.43-.41.43l-.075.606a29 29 0 0 1-1.92-2.798c-.047-.081-.166-.042-.15.05a10.1 10.1 0 0 0 1.004 2.987h-.185v-.002a.087.087 0 0 0-.087-.087H1.627a.087.087 0 0 0-.087.087v.95c0 .049.039.088.087.088h1.538a.087.087 0 0 0 .087-.087v-.5h.2a.45.45 0 0 0 .403.268q.19.294.414.583M4.23 4.921c0 .2-.164.363-.367.363a.365.365 0 0 1-.366-.363c0-.2.164-.363.366-.363.203 0 .367.162.367.363m1.957 0c0 .2.164.363.367.363a.365.365 0 0 0 .367-.363c0-.2-.165-.363-.367-.363a.365.365 0 0 0-.367.363" clip-rule="evenodd"/></g></g></g><rect width="23" height="17" x=".5" y=".5" stroke="#000" stroke-opacity=".1" rx="1.5"/><defs><clipPath id="a"><rect width="24" height="18" fill="#fff" rx="2"/></clipPath></defs></svg>