<svg xmlns="http://www.w3.org/2000/svg" fill="none" viewBox="0 0 24 18"><g clip-path="url(#a)"><mask id="b" width="24" height="18" x="0" y="0" maskUnits="userSpaceOnUse" style="mask-type:luminance"><path fill="#fff" d="M0 0h24v18H0z"/></mask><g mask="url(#b)"><path fill="#F7FCFF" fill-rule="evenodd" d="M0 0h24v18H0z" clip-rule="evenodd"/><path fill="#E31D1C" fill-rule="evenodd" d="M0 11v1.5h24V11zm0 2.75v1.5h24v-1.5zM0 5.5V7h24V5.5zm0 11V18h24v-1.5zm0-8.25v1.5h24v-1.5zM0 0v1.5h24V0zm0 2.75v1.5h24v-1.5z" clip-rule="evenodd"/><path fill="#2E42A5" d="M0 0h15v9.75H0z"/><path fill="#F7FCFF" fill-rule="evenodd" d="m1.291 2.204-.544.382.184-.68-.484-.43h.632L1.29.922l.248.554h.538l-.423.43.164.68zm3 0-.544.382.184-.68-.484-.43h.632L4.29.922l.248.554h.538l-.423.43.164.68zm2.456.382.544-.382.527.382-.164-.68.423-.43H7.54L7.291.922l-.212.554h-.632l.484.43zm3.544-.382-.544.382.184-.68-.484-.43h.632l.212-.554.248.554h.538l-.423.43.164.68zM.747 5.586l.544-.382.527.382-.164-.68.423-.43H1.54l-.248-.554-.212.554H.447l.484.43zm3.544-.382-.544.382.184-.68-.484-.43h.632l.212-.554.248.554h.538l-.423.43.164.68zm2.456.382.544-.382.527.382-.164-.68.423-.43H7.54l-.248-.554-.212.554h-.632l.484.43zm3.544-.382-.544.382.184-.68-.484-.43h.632l.212-.554.248.554h.538l-.423.43.164.68zM.747 8.586l.544-.382.527.382-.164-.68.423-.43H1.54l-.248-.554-.212.554H.447l.484.43zm3.544-.382-.544.382.184-.68-.484-.43h.632l.212-.554.248.554h.538l-.423.43.164.68zm2.456.382.544-.382.527.382-.164-.68.423-.43H7.54l-.248-.554-.212.554h-.632l.484.43zm3.544-.382-.544.382.184-.68-.484-.43h.632l.212-.554.248.554h.538l-.423.43.164.68zm2.456-5.618.544-.382.527.382-.164-.68.423-.43h-.538l-.248-.554-.212.554h-.632l.484.43zm.544 2.618-.544.382.184-.68-.484-.43h.632l.212-.554.248.554h.538l-.423.43.164.68zm-.544 3.382.544-.382.527.382-.164-.68.423-.43h-.538l-.248-.554-.212.554h-.632l.484.43zM2.791 3.704l-.544.382.184-.68-.484-.43h.632l.212-.554.248.554h.538l-.423.43.164.68zm2.456.382.544-.382.527.382-.164-.68.423-.43H6.04l-.248-.554-.212.554h-.632l.484.43zm3.544-.382-.544.382.184-.68-.484-.43h.632l.212-.554.248.554h.538l-.423.43.164.68zM2.247 7.086l.544-.382.527.382-.164-.68.423-.43H3.04l-.248-.554-.212.554h-.632l.484.43zm3.544-.382-.544.382.184-.68-.484-.43h.632l.212-.554.248.554h.538l-.423.43.164.68zm2.456.382.544-.382.527.382-.164-.68.423-.43H9.04l-.248-.554-.212.554h-.632l.484.43zm3.544-3.382-.544.382.184-.68-.484-.43h.632l.212-.554.248.554h.538l-.423.43.164.68zm-.544 3.382.544-.382.527.382-.164-.68.423-.43h-.538l-.248-.554-.212.554h-.632l.484.43z" clip-rule="evenodd"/></g></g><rect width="23" height="17" x=".5" y=".5" stroke="#000" stroke-opacity=".1" rx="1.5"/><defs><clipPath id="a"><rect width="24" height="18" fill="#fff" rx="2"/></clipPath></defs></svg>