<svg xmlns="http://www.w3.org/2000/svg" fill="none" viewBox="0 0 24 18"><g clip-path="url(#a)"><mask id="b" width="24" height="18" x="0" y="0" maskUnits="userSpaceOnUse" style="mask-type:luminance"><path fill="#fff" d="M0 0h24v18H0z"/></mask><g fill-rule="evenodd" clip-rule="evenodd" mask="url(#b)"><path fill="#F7FCFF" d="M6 0h12v18H6z"/><path fill="#E31D1C" d="m11.982 5.25.018 9h-.45l.276-2.227q-3.026.544-2.776.27.25-.275.394-.779L6.75 9.716q.425-.005.77-.21.346-.207-.345-1.426l1.36.198.515-.56 1.026 1.075h.462l-.462-2.46.827.461zm0 0 1.115 1.544.827-.461-.462 2.46h.462l1.026-1.074.515.56 1.36-.199q-.691 1.22-.346 1.426.346.205.771.21l-2.694 1.798q.144.504.394.779.25.274-2.776-.27l.276 2.227H12zM18 0h6v18h-6zM0 0h6v18H0z"/></g></g><rect width="23" height="17" x=".5" y=".5" stroke="#000" stroke-opacity=".1" rx="1.5"/><defs><clipPath id="a"><rect width="24" height="18" fill="#fff" rx="2"/></clipPath></defs></svg>