<svg xmlns="http://www.w3.org/2000/svg" fill="none" viewBox="0 0 24 18"><g clip-path="url(#a)"><mask id="b" width="24" height="18" x="0" y="0" maskUnits="userSpaceOnUse" style="mask-type:luminance"><path fill="#fff" d="M0 0h24v18H0z"/></mask><g mask="url(#b)"><path fill="#67BD38" fill-rule="evenodd" d="M16.5 0H24v18h-7.5z" clip-rule="evenodd"/><path fill="#D51700" fill-rule="evenodd" d="M7.5 0h9v18h-9z" clip-rule="evenodd"/><path fill="#272727" fill-rule="evenodd" d="M0 0h7.5v18H0z" clip-rule="evenodd"/><path fill="#F7FCFF" fill-rule="evenodd" d="m9.366 5.983.26.163q-.649 1.09-.874 2a.7.7 0 0 1 .144.181q.177.304.296.592l-.344.147a5 5 0 0 0-.192-.4 3 3 0 0 0 .007.839c.063.006.116.02.177.042q.331.12.608.263l-.17.334a5 5 0 0 0-.518-.227l.004.011q.24.726.737 1.337a.7.7 0 0 1 .156-.015 5 5 0 0 1 .66.04l-.045.372a5 5 0 0 0-.444-.034q.445.446 1.048.823l-.159.267a6 6 0 0 1-1.27-1.043l-.17.072-.027.012q.456.479 1.08.88l-.162.266a6 6 0 0 1-1.233-1.033.8.8 0 0 1-.462-.006l.1-.36.072.015a4.7 4.7 0 0 1-.717-1.381 3 3 0 0 1-.072-.269.8.8 0 0 1-.338-.15l.217-.305.057.037q-.058-.69.16-1.488a.8.8 0 0 1-.18-.355l.318-.082q.257-.728.728-1.544l.261.16a8.7 8.7 0 0 0-.76 1.659q.069.062.172.138.25-.906.875-1.958m-.967 2.356a6 6 0 0 0-.191-.144q-.174.716-.104 1.322.084 0 .193-.006l.059-.004a3.6 3.6 0 0 1 .043-1.168m-.086 1.545.117-.007q.021.077.046.152.24.73.72 1.346l-.063.027a3 3 0 0 1-.145.06 4.4 4.4 0 0 1-.815-1.572zm6.312-3.901-.26.163q.649 1.09.873 2a.7.7 0 0 0-.144.181q-.176.304-.296.592l.345.147q.081-.195.192-.4.052.443-.007.839a.7.7 0 0 0-.178.042 5 5 0 0 0-.607.263l.17.334q.236-.122.518-.227l-.004.011q-.24.726-.737 1.337a.7.7 0 0 0-.156-.015 5 5 0 0 0-.66.04l.045.372q.21-.027.444-.034a6 6 0 0 1-1.048.823l.158.267q.747-.468 1.27-1.043.067.026.172.072l.026.012q-.457.479-1.08.88l.161.266q.72-.465 1.234-1.033c.163.042.3.041.462-.006l-.1-.36-.072.015q.476-.633.716-1.381.043-.132.073-.269a.8.8 0 0 0 .338-.15l-.217-.305-.058.037a4.3 4.3 0 0 0-.16-1.488.8.8 0 0 0 .181-.355l-.318-.082q-.258-.728-.728-1.544l-.261.16q.512.888.76 1.659a2 2 0 0 1-.173.138q-.25-.906-.874-1.958m.967 2.356a6 6 0 0 1 .191-.144q.174.716.103 1.322-.082 0-.192-.006l-.06-.004q.075-.547-.042-1.168m.086 1.545-.118-.007a4.5 4.5 0 0 1-.765 1.498l.062.027.145.06a4.4 4.4 0 0 0 .816-1.572z" clip-rule="evenodd"/><path fill="#F7FCFF" fill-rule="evenodd" d="m10.69 12.198-.837.829s.722.442 2.083.442c1.36 0 2.153-.442 2.153-.442l-.637-.829s-.867.336-1.481.336-1.28-.336-1.28-.336" clip-rule="evenodd"/><path stroke="#C00001" stroke-width=".5" d="M10.708 12.727s.708.167 1.252.167c.543 0 1.252-.167 1.252-.167"/><path fill="#F7FCFF" fill-rule="evenodd" d="M12.67 7.094c0 .328-.3.593-.67.593s-.669-.265-.669-.593.3-.594.67-.594c.369 0 .668.266.668.594m-.67.593h-.72l-.198.153h-.039V6.65h-.365v1.19h-.32v.202h.32v2.143c-.043.343-.143.536-.283.604l-.745.357h4.483l-.322-.322c-.283-.283-.418-.5-.418-.627V8.042h.127V7.84h-.127V6.65h-.365v1.19h-.118l-.235-.152zm-.957.355h1.985v2.155q.001.26.242.574h-2.377c.073-.148.122-.332.15-.562zM12.061 9h-.79v1.563h1.58zm.816-4.383.002.002zm1.156.406.001.007v-.007m.225.028.001-.003v.001zm-.909.46h.004z" clip-rule="evenodd"/><path fill="#F7FCFF" fill-rule="evenodd" d="m9.745 8.001-.15.108.155.226c-.132.047-.345.167-.345.449 0 .41-.143.744-.143.744l.429.276s.045-.477.161-.749a.44.44 0 0 1 .227-.237l.667.979.15-.108zm4.559 0 .15.108-.155.226c.132.047.344.167.344.449 0 .41.144.744.144.744l-.43.276s-.044-.477-.16-.749a.44.44 0 0 0-.227-.237l-.667.979-.15-.108z" clip-rule="evenodd"/></g></g><rect width="23" height="17" x=".5" y=".5" stroke="#000" stroke-opacity=".1" rx="1.5"/><defs><clipPath id="a"><rect width="24" height="18" fill="#fff" rx="2"/></clipPath></defs></svg>