<svg xmlns="http://www.w3.org/2000/svg" fill="none" viewBox="0 0 24 18"><g clip-path="url(#a)"><mask id="b" width="24" height="18" x="0" y="0" maskUnits="userSpaceOnUse" style="mask-type:luminance"><path fill="#fff" d="M0 0h24v18H0z"/></mask><g mask="url(#b)"><path fill="#F7FCFF" fill-rule="evenodd" d="M0 0v18h24V0z" clip-rule="evenodd"/><mask id="c" width="24" height="18" x="0" y="0" maskUnits="userSpaceOnUse" style="mask-type:luminance"><path fill="#fff" fill-rule="evenodd" d="M0 0v18h24V0z" clip-rule="evenodd"/></mask><g fill="#4564F9" fill-rule="evenodd" clip-rule="evenodd" mask="url(#c)"><path d="M0 0v6h24V0zm0 12v6h24v-6zm12.302-2.497-.65.336.124-.71-.526-.556h.727l.325-.698.325.698h.726l-.526.555.124.71zM7.739 7.877l-.65.335.124-.71-.526-.555h.727l.325-.698.325.698h.726l-.526.555.125.71zm0 3.15-.65.336.124-.711-.526-.555h.727l.325-.698.325.698h.726l-.526.555.125.71zm9-3.15-.65.335.124-.71-.526-.555h.727l.325-.698.325.698h.726l-.526.555.125.71zm0 3.15-.65.336.124-.711-.526-.555h.727l.325-.698.325.698h.726l-.526.555.125.71z"/></g></g></g><rect width="23" height="17" x=".5" y=".5" stroke="#000" stroke-opacity=".1" rx="1.5"/><defs><clipPath id="a"><rect width="24" height="18" fill="#fff" rx="2"/></clipPath></defs></svg>