<svg xmlns="http://www.w3.org/2000/svg" fill="none" viewBox="0 0 24 18"><g clip-path="url(#a)"><path fill="#19BFBF" d="M0 0h24v18H0z"/><path fill="#fff" fill-rule="evenodd" d="M8.571 13.87q0-.042.01-.081l.562-2.246.548-2.192a.33.33 0 0 0-.007-.186l-.497-1.491a.33.33 0 0 0-.168-.193l-.835-.417A.33.33 0 0 1 8 6.765v-2q0-.079.035-.15l.536-1.072.48-.959a.33.33 0 0 1 .298-.184h2.89c.183 0 .332.15.332.333v.476c0 .185.15.334.334.334h.476c.184 0 .333.15.333.333v.604c0 .126.072.241.184.298l1.918.958a.33.33 0 0 1 .184.299v.858a.3.3 0 0 1-.035.149l-.497.993a.33.33 0 0 1-.113.128l-1.567 1.045a.33.33 0 0 0-.113.128l-1.064 2.128a.33.33 0 0 1-.113.128l-1.567 1.045a.33.33 0 0 0-.113.128l-1.012 2.022a.33.33 0 0 1-.298.184h-.603a.333.333 0 0 1-.334-.333z" clip-rule="evenodd"/></g><rect width="23" height="17" x=".5" y=".5" stroke="#000" stroke-opacity=".1" rx="1.5"/><defs><clipPath id="a"><rect width="24" height="18" fill="#fff" rx="2"/></clipPath></defs></svg>