<svg xmlns="http://www.w3.org/2000/svg" fill="none" viewBox="0 0 24 18"><g clip-path="url(#a)"><mask id="b" width="24" height="18" x="0" y="0" maskUnits="userSpaceOnUse" style="mask-type:luminance"><path fill="#fff" d="M0 0h24v18H0z"/></mask><g mask="url(#b)"><path fill="#F7FCFF" fill-rule="evenodd" d="M0 0v18h24V0H0Z" clip-rule="evenodd"/><mask id="c" width="24" height="18" x="0" y="0" maskUnits="userSpaceOnUse" style="mask-type:luminance"><path fill="#fff" fill-rule="evenodd" d="M0 0v18h24V0H0Z" clip-rule="evenodd"/></mask><g fill="#58A5FF" fill-rule="evenodd" clip-rule="evenodd" mask="url(#c)"><path d="M0 0v5.25h24V0H0Zm0 12.75V18h24v-5.25H0Z"/></g></g><path fill="#FFC125" fill-rule="evenodd" d="M11.414 5.346a.1.1 0 0 0-.134.045c-.11.222-.028.418.039.578l.02.05a3.143 3.143 0 0 0 .081.187l.045.097a.37.37 0 0 1 .05.207l-.003.184c-.007.329-.016.791.103.984.029.047.172-.027.22-.055.046-.028.029-.18 0-.227-.12-.195-.12-.593-.12-.868V6.51c0-.138-.022-.185-.07-.29a4.096 4.096 0 0 1-.085-.192 3.39 3.39 0 0 1-.035-.083.972.972 0 0 0-.03-.062c-.05-.103-.117-.24-.035-.405a.098.098 0 0 0-.046-.132Zm1.466.06a.1.1 0 0 0-.141-.012c-.189.162-.19.374-.19.548l-.001.053v.095l.001.109c0 .044.002.079.004.107a.376.376 0 0 1-.035.21l-.075.169c-.135.3-.324.721-.29.945.008.055.17.043.224.035.054-.007.097-.154.09-.208-.036-.227.12-.593.228-.846l.007-.017a.561.561 0 0 0 .049-.294l-.002-.1a17.41 17.41 0 0 0-.002-.2c0-.02 0-.044-.002-.068-.006-.115-.015-.268.125-.387a.098.098 0 0 0 .01-.14Zm1.186.538a.1.1 0 0 1 .127.062.098.098 0 0 1-.061.126c-.175.059-.224.203-.261.312a.983.983 0 0 1-.024.064l-.033.084-.04.102-.036.094c-.04.108-.058.157-.155.254l-.013.013c-.195.195-.476.476-.529.698-.013.054-.108.174-.161.16-.054-.013-.207-.062-.194-.116.052-.22.386-.54.623-.768.05-.047.095-.09.132-.128a.369.369 0 0 0 .111-.182c.01-.027.02-.06.037-.1l.04-.102.035-.088.02-.05c.066-.16.147-.356.382-.435Zm1.121 1.131a.1.1 0 0 0-.092-.107c-.248-.02-.399.13-.522.252a5.27 5.27 0 0 1-.105.105l-.076.078a2.156 2.156 0 0 0-.073.078.37.37 0 0 1-.173.124l-.172.066c-.308.117-.74.281-.874.464-.032.044.09.15.133.183.044.033.179-.04.211-.085.135-.184.504-.333.76-.436l.017-.007c.127-.051.163-.09.242-.173a3.827 3.827 0 0 1 .146-.151l.064-.064c.015-.014.03-.031.047-.05.076-.085.178-.2.362-.185a.098.098 0 0 0 .105-.092Zm.455 1.212a.1.1 0 0 1 .045.133.098.098 0 0 1-.132.046c-.165-.082-.302-.014-.405.036a.957.957 0 0 1-.063.03l-.082.034-.1.044-.093.042c-.104.048-.151.07-.289.07h-.018c-.276 0-.673 0-.868.12-.046.028-.199.046-.227-.001-.029-.048-.102-.191-.055-.22.192-.119.655-.11.984-.102l.184.002a.369.369 0 0 0 .207-.05l.097-.045.1-.043a3.191 3.191 0 0 1 .137-.058c.16-.067.355-.149.578-.038Zm-.015 1.586a.1.1 0 0 0 .011-.141c-.161-.189-.374-.19-.547-.19a4.126 4.126 0 0 1-.149-.001l-.108.001c-.045 0-.079.002-.107.004a.369.369 0 0 1-.21-.035c-.05-.02-.106-.047-.169-.075-.3-.134-.722-.324-.946-.29-.054.009-.043.17-.035.224.008.054.155.098.209.09.226-.035.592.12.845.228l.017.007a.552.552 0 0 0 .294.049l.101-.002a21.13 21.13 0 0 0 .268-.004c.115-.006.267-.015.387.125a.098.098 0 0 0 .14.01Zm-.543 1.175a.1.1 0 0 1-.063.126.098.098 0 0 1-.126-.061c-.058-.175-.203-.224-.312-.26l-.064-.024-.083-.034-.103-.04a4.023 4.023 0 0 0-.094-.036.552.552 0 0 1-.254-.155l-.013-.013c-.194-.195-.476-.476-.698-.529-.053-.012-.174-.108-.16-.161.013-.053.063-.207.116-.194.22.052.54.386.768.623.048.05.09.095.129.132a.369.369 0 0 0 .181.111c.027.01.06.02.1.037a19.318 19.318 0 0 0 .19.075l.05.02c.16.067.357.147.436.383Zm-1.141 1.111a.1.1 0 0 0 .107-.092c.019-.248-.13-.399-.252-.521a4.282 4.282 0 0 1-.105-.106l-.078-.076-.078-.073a.37.37 0 0 1-.124-.173l-.066-.172c-.117-.308-.282-.74-.464-.874-.044-.032-.15.09-.183.133-.033.044.04.179.085.211.184.136.333.505.436.76l.007.017a.548.548 0 0 0 .173.242c.02.02.045.042.072.07a14.31 14.31 0 0 0 .192.187c.086.076.2.178.186.362a.098.098 0 0 0 .092.105Zm-1.224.45a.1.1 0 0 1-.134.045.098.098 0 0 1-.046-.132c.082-.165.015-.302-.036-.405a1.003 1.003 0 0 1-.029-.062 3.02 3.02 0 0 0-.079-.183l-.041-.092a.551.551 0 0 1-.07-.29v-.018c0-.275 0-.673-.12-.868-.028-.046-.046-.199 0-.227.048-.028.192-.102.22-.055.12.193.11.655.103.984l-.003.184a.37.37 0 0 0 .05.207c.013.026.028.056.045.097l.044.099.037.089.02.049c.067.16.15.355.039.578Zm-1.6-.014a.1.1 0 0 0 .142.01c.188-.161.19-.373.19-.546a4.502 4.502 0 0 1 0-.15v-.108l-.004-.107a.37.37 0 0 1 .035-.21c.02-.049.046-.106.074-.168.135-.3.324-.722.29-.946-.008-.054-.169-.043-.223-.035-.055.007-.098.154-.09.208.035.227-.12.593-.228.846l-.008.017a.552.552 0 0 0-.048.294 4.811 4.811 0 0 1 .003.21V12c0 .02 0 .043.002.068.007.115.015.268-.125.387a.098.098 0 0 0-.01.14Zm-1.186-.539a.1.1 0 0 1-.127-.062.098.098 0 0 1 .061-.126c.175-.059.224-.203.261-.312l.024-.064.034-.084c0 .001.03-.08.04-.102l.035-.094a.552.552 0 0 1 .156-.254l.013-.013c.194-.195.476-.476.528-.699.013-.053.108-.173.161-.16.054.014.207.063.194.117-.052.22-.385.54-.623.768-.05.047-.094.09-.132.128a.369.369 0 0 0-.111.182c-.01.027-.02.06-.037.1l-.04.102a3.151 3.151 0 0 1-.055.137c-.066.16-.147.357-.382.436Zm-1.11-1.113a.1.1 0 0 0 .093.105c.248.015.396-.137.517-.26a2.2 2.2 0 0 0 .25-.265c.053-.061.075-.087.171-.128l.17-.07c.306-.122.736-.293.867-.478.031-.045-.092-.148-.137-.18-.044-.033-.178.043-.21.087-.132.187-.498.342-.751.45l-.017.007a.557.557 0 0 0-.24.177 23.027 23.027 0 0 0-.206.218.846.846 0 0 0-.045.052c-.075.086-.175.202-.36.191a.098.098 0 0 0-.103.094Zm-.466-1.23a.1.1 0 0 1-.045-.133.098.098 0 0 1 .132-.046c.165.082.302.014.406-.036a.985.985 0 0 1 .062-.03l.082-.034.1-.044.093-.042c.105-.048.152-.07.29-.07h.018c.275 0 .673 0 .867-.12.047-.028.2-.046.227.001.029.047.102.191.056.22-.193.119-.656.11-.984.102l-.185-.002a.37.37 0 0 0-.207.05 2.182 2.182 0 0 1-.097.045l-.1.043a3.181 3.181 0 0 1-.136.058c-.16.067-.356.149-.579.038Zm.015-1.586a.1.1 0 0 0-.01.141c.16.189.373.19.546.19l.054.001a3.171 3.171 0 0 0 .204-.001c.044 0 .078-.002.107-.004.08-.004.114-.006.21.035.049.02.106.047.168.075.3.134.722.324.946.29.054-.009.043-.17.035-.224-.008-.054-.155-.098-.209-.09-.226.035-.592-.12-.845-.228l-.017-.007a.552.552 0 0 0-.294-.049 4.162 4.162 0 0 1-.21.003h-.09l-.069.003c-.114.006-.267.015-.387-.125a.098.098 0 0 0-.14-.01Zm.544-1.175a.1.1 0 0 1 .062-.126.098.098 0 0 1 .126.061c.059.174.203.224.312.26l.064.024a2.983 2.983 0 0 0 .186.074l.094.036c.108.04.157.058.254.155l.013.013c.195.195.476.476.698.529.054.012.174.108.16.161-.013.053-.062.207-.116.194-.22-.052-.54-.386-.768-.623a9.266 9.266 0 0 0-.128-.132.369.369 0 0 0-.182-.111c-.027-.01-.06-.02-.1-.037a21.931 21.931 0 0 0-.19-.076 4.093 4.093 0 0 0-.05-.02c-.16-.065-.356-.146-.435-.382Zm1.14-1.111a.1.1 0 0 0-.107.092c-.019.248.13.399.253.521l.037.038a2.893 2.893 0 0 0 .145.144l.078.073a.37.37 0 0 1 .124.173l.067.172c.117.308.28.74.463.874.045.032.15-.09.183-.133.033-.044-.04-.179-.084-.211-.184-.136-.333-.504-.437-.76a.551.551 0 0 0-.18-.26l-.072-.069a17.488 17.488 0 0 0-.192-.187c-.086-.076-.2-.178-.185-.362a.098.098 0 0 0-.092-.105Z" clip-rule="evenodd"/><path fill="#984111" d="m11.28 5.391-.067-.033.067.033Zm.134-.045-.033.067.033-.067Zm-.095.623-.07.03.07-.03Zm.02.05.07-.029-.07.028Zm.037.087-.068.03.137-.06-.069.03Zm.044.1-.069.03.069-.03Zm.045.097.068-.033-.068.033Zm.047.391-.075-.001.075.001Zm.103.984.064-.04-.064.04Zm.22-.055.038.064-.039-.064Zm0-.227.064-.04-.064.04Zm-.12-.868h.075-.075Zm0-.018h.075-.075Zm-.07-.29-.068.032.068-.032Zm-.041-.092.069-.03-.069.03Zm-.044-.1-.069.03.138-.06-.07.03Zm-.035-.083.07-.028-.07.028Zm-.03-.062.068-.033-.067.033Zm-.035-.405.067.033-.067-.033Zm1.279-.084-.049-.057.049.057Zm.14.011.057-.05-.056.05Zm-.33.537h-.076.075Zm0 0h.074-.075Zm-.001.053.075.001-.075-.001Zm0 .095-.075.001h.075Zm0 0-.075.001h.075Zm.001.109h.075-.075Zm.004.107.074-.004-.075.004Zm-.035.21.069.03-.07-.03Zm-.075.169-.068-.031.068.03Zm-.29.945-.074.012.074-.012Zm.224.035.01.075-.01-.075Zm.09-.208-.075.01.074-.01Zm.228-.846.069.03-.07-.03Zm.007-.017.069.03-.07-.03Zm.049-.294.075-.002v-.002l-.075.004Zm0 0-.075.003v.001l.075-.004Zm-.002-.1h-.075.075Zm-.002-.11h-.075l.15-.001h-.075Zm0-.09h-.075l.075.001Zm-.002-.068-.075.004.075-.004Zm.125-.387-.049-.057.05.057Zm1.323.461.07-.024-.07.024Zm-.127-.062-.024-.071.024.07Zm.066.188-.024-.071.024.071Zm-.261.312.07.024-.07-.024Zm-.024.064.07.03-.07-.03Zm-.033.084-.07-.028.14.055-.07-.027Zm-.04.102.07.028-.07-.028Zm-.036.094.07.026-.07-.026Zm0 0-.07-.026.07.026Zm-.155.254.053.053-.053-.053Zm-.013.013.053.053-.053-.053Zm-.529.698-.073-.017.073.017Zm-.161.16-.018.073.018-.072Zm-.194-.116.073.018-.073-.018Zm.623-.768.052.054h.001l-.053-.054Zm0 0-.052-.054-.001.001.053.053Zm.132-.128.053.053-.053-.053Zm.111-.182.071.024-.07-.024Zm.037-.1-.07-.028.07.027Zm.04-.102-.07-.027.14.055-.07-.028Zm.035-.088-.069-.03.07.03Zm.02-.05-.068-.03v.002l.069.029Zm0 0 .07.03v-.001l-.07-.028Zm1.411.589.006-.075-.006.075Zm-.522.252-.052-.053.052.053Zm0 0 .053.054-.053-.054Zm0 0-.052-.053.052.053Zm-.037.038-.053-.054.053.054Zm-.068.067-.054-.052.107.105-.053-.053Zm-.076.078.053.052-.053-.052Zm-.073.078.055.05-.055-.05Zm0 0-.055-.051-.004.005.059.046Zm0 0 .056.05.003-.004-.06-.046Zm-.173.124-.028-.07.028.07Zm-.172.066-.027-.07.027.07Zm-.874.464.06.044-.06-.044Zm.133.183.045-.06-.045.06Zm.211-.085.06.045-.06-.045Zm.76-.436.028.07-.028-.07Zm.017-.007.028.07-.028-.07Zm.242-.173.054.052-.054-.052Zm.07-.073.053.053-.053-.053Zm.076-.078-.053-.053.107.105-.054-.052Zm.064-.064.052.054-.052-.054Zm.047-.05-.056-.05.056.05Zm.362-.185.006-.075-.006.075Zm.605 1.253-.068-.032.068.032Zm-.045-.133.033-.068-.033.068Zm-.087.18.033-.068-.033.067Zm-.405.035-.033-.067.033.067Zm-.063.03.029.069-.028-.07Zm-.082.034-.03-.068.06.137-.03-.069Zm-.1.044-.03-.068.03.068Zm-.093.042-.03-.069.03.069Zm-.289.07v.074-.075Zm-.018 0v.074-.075Zm-.868.12.04.063-.04-.064Zm-.227-.001.064-.039-.064.039Zm-.055-.22-.04-.064.04.064Zm.984-.102.001-.075-.001.075Zm.391-.048.033.068-.033-.068Zm.097-.045.03.07-.03-.07Zm.1-.043-.03-.069.06.137-.03-.068Zm.087-.038.029.07-.029-.07Zm.05-.02-.03-.07.03.07Zm.574 1.407.057-.049-.057.049Zm-.547-.19v-.076.075Zm0 0v.074-.075Zm-.053-.001-.002.075.002-.075Zm-.096 0v-.075.075Zm0 0-.001-.075.001.075Zm-.108.001v.075-.075Zm-.107.004.003.075-.003-.075Zm-.21-.035-.03.069.03-.07Zm-.169-.075.03-.068-.03.068Zm0 0-.031.069h.002l.03-.069Zm0 0 .031-.068-.031.068Zm-.946-.29-.011-.074.011.074Zm-.035.224-.074.01.074-.01Zm.209.09-.011-.075.011.074Zm.845.228-.029.069.006.002.024-.071Zm0 0 .03-.07-.006-.001-.024.07Zm.017.007-.029.069.03-.069Zm.294.049.002.075h.002l-.004-.075Zm0 0-.002-.075h-.002l.004.075Zm.101-.002v-.075.075Zm.11-.002-.001-.075.002.15-.001-.074Zm.09 0v-.074.075Zm.068-.002-.004-.075.004.075Zm.387.125.057-.048-.057.048Zm-.467 1.311-.025-.07.025.07Zm.063-.127-.071.024.07-.024Zm-.189.066.071-.024-.07.024Zm-.312-.26-.024.07.024-.07Zm-.064-.024-.03.069.03-.07Zm-.083-.034.027-.07-.055.14.028-.07Zm-.103-.04-.027.07.027-.07Zm-.094-.036-.026.07.026-.07Zm-.254-.155-.053.053.053-.053Zm-.013-.013-.053.053.053-.053Zm-.698-.529-.017.073.017-.073Zm-.16-.161.072.018-.072-.018Zm.116-.194-.017.073.017-.073Zm.768.623.054-.052-.054.052Zm.31.243-.024.071.024-.07Zm.1.037.029-.07-.028.07Zm.102.04.027-.07-.054.14.027-.07Zm.088.036.03-.07-.03.07Zm.05.02-.029.07.029-.07Zm-.598 1.401-.075-.006.075.006Zm-.252-.521-.054.052.054-.053Zm-.038-.038-.054.052.054-.053Zm-.067-.068.052-.054-.105.107.053-.053Zm-.078-.076.053-.053-.053.053Zm-.078-.073-.053.053.003.003.05-.056Zm0 0 .053-.053-.003-.003-.05.056Zm-.124-.173.07-.028-.07.028Zm-.066-.172.07-.027-.002-.003-.068.03Zm0 0-.07.027v.002l.07-.03Zm-.464-.874.044-.06-.044.06Zm-.183.133.06.045-.06-.045Zm.085.211.044-.06-.045.06Zm.436.76-.07.028.07-.028Zm.007.017-.07.028.07-.028Zm.173.242.051-.055-.051.055Zm.072.07-.052.053.052-.053Zm.08.076.051-.053-.104.107.052-.054Zm.062.064-.053.052.053-.052Zm.05.047.051-.056-.05.056Zm0 0-.05.055.05-.055Zm.186.362-.075-.006.075.006Zm-1.266.6.033-.067-.033.067Zm.134-.045.067.033-.067-.033Zm-.18-.087.068.033-.068-.033Zm-.036-.405.068-.033-.068.033Zm-.029-.062-.07.028.07-.028Zm-.035-.083.07-.03-.138.06.068-.03Zm-.044-.1.07-.03-.07.03Zm-.041-.092-.068.03.068-.03Zm-.07-.29h-.075.075Zm0-.018h-.075.075Zm-.12-.868-.064.04.064-.04Zm0-.227.04.064-.04-.064Zm.22-.055-.063.04.063-.04Zm.103.984.075.002-.075-.002Zm.047.391-.067.033.067-.033Zm.045.097-.069.03.07-.03Zm.044.099.068-.03-.068.03Zm0 0-.069.03.069-.03Zm0 0 .069-.03-.07.03Zm0 0-.069.031.069-.03Zm0 0 .069-.03-.069.03Zm.037.089.07-.028-.07.028Zm.02.049.07-.029-.07.029Zm0 0-.069.028.07-.028Zm-1.42.575-.048-.057.049.057Zm-.14-.011.056-.05-.056.05Zm.331-.537h.075-.075Zm0-.053.075.002-.075-.002Zm0-.095.075-.001-.15.002.076-.001Zm0-.109h.074-.075Zm-.004-.107.075-.004v-.003l-.075.007Zm0 0h-.076l.001.008.075-.008Zm0 0h.075v-.004l-.075.004Zm.035-.21-.07-.03.07.03Zm.074-.168.069.03-.069-.03Zm.29-.946.074-.012-.074.012Zm-.313.174-.074.01.074-.01Zm-.228.845-.07-.03.07.03Zm-.008.017-.069-.03.07.03Zm-.048.294-.075.002.075-.002Zm.002.1h.075-.075Zm.001.11h.075l-.15.001h.075Zm0 .09.075.001-.075-.001Zm.002.068.075-.004-.075.004Zm-.125.387.049.057-.049-.057Zm-1.323-.461.071-.025-.07.025Zm.127.062-.024-.07.024.07Zm-.066-.188-.023-.071.023.07Zm.261-.312-.07-.024.07.024Zm.024-.064-.07-.03.07.03Zm.034-.084.07.028-.14-.055.07.027Zm.04-.102.069.028-.07-.028Zm.035-.094.07.026-.07-.026Zm.156-.254-.053-.053.053.053Zm.013-.013-.053-.053.053.053Zm.528-.699.073.018-.073-.018Zm.355-.043-.072-.018.072.018Zm-.623.768.047.059.005-.005-.052-.054Zm0 0-.047-.059-.005.005.052.054Zm-.132.128.053.053-.053-.053Zm-.111.182-.07-.024.07.024Zm-.037.1.07.028-.07-.027Zm-.04.102.07.027-.07-.027Zm0 0 .07.027-.07-.027Zm-.035.088-.07-.03.07.03Zm-.02.05-.07-.029.07.028Zm0 0 .068.03.001-.003-.07-.028Zm0 0-.069-.031v.002l.069.028Zm-1.4-.573.005-.075-.004.075Zm-.093-.105.075.003-.075-.003Zm.611-.156.054.052-.054-.052Zm0 0-.053-.053-.001.001.054.052Zm0 0 .053.053-.053-.053Zm.037-.038-.053-.053.053.053Zm.067-.069.054.052-.109-.103.055.052Zm.074-.079-.054-.051.054.051Zm.072-.079.057.05-.057-.05Zm.171-.127-.03-.069.03.07Zm.17-.07-.027-.07v.001l.027.07Zm0 0 .028.07-.027-.07Zm0 0-.026-.07h-.001l.028.07Zm0 0 .028.07-.027-.07Zm0 0 .029.07-.028-.07Zm.867-.478.06.043-.06-.043Zm-.137-.18.044-.062-.044.061Zm-.21.087.062.044-.061-.044Zm-.751.45-.03-.07-.005.004.035.066Zm0 0 .03.07.005-.004-.035-.066Zm-.017.007-.03-.069.03.069Zm-.24.177-.055-.05.056.05Zm-.068.074-.054-.052.054.052Zm-.075.08.054.052-.109-.103.055.051Zm-.062.065.053.053-.053-.053Zm-.046.05.056.05-.056-.05Zm0 0-.057-.049-.003.005.06.045Zm0 0 .054.053.006-.008-.06-.044Zm0 0-.055-.051-.002.002.057.05Zm-.36.192.005-.075-.004.075Zm-.613-1.27.068.033-.068-.032Zm.045.134-.033.067.033-.067Zm.087-.18-.033.068.033-.067Zm.406-.035.033.067-.033-.067Zm.062-.03L8.884 9.4l.028.07Zm.082-.034.03.068-.06-.137.03.069Zm.1-.044.03.068-.03-.068Zm.093-.042-.031-.068.03.068Zm.29-.07v-.074.075Zm.018 0v-.074.075Zm.867-.12-.04-.063.04.064Zm.227.001-.064.039.064-.039Zm.056.22-.04-.064.04.064Zm-.984.102-.002.075.002-.075Zm-.392.048-.033-.068.033.068Zm-.097.045-.03-.07.03.07Zm-.1.043-.03-.068.03.068Zm0 0 .031.069-.03-.069Zm0 0 .03.069h.001l-.03-.069Zm-.087.038.028.07-.028-.07Zm-.05.02.03.07-.03-.07Zm-.574-1.407.057-.049-.057.049Zm.01-.14.05.056-.05-.057Zm.537.33v.076-.075Zm.054.001-.002.075.002-.075Zm.095 0v.075-.15.075Zm.108-.001v.075-.075Zm.108-.004V8.38h-.004l.004.075Zm0 0v.075h.003l-.003-.075Zm.21.035-.03.07.03-.07Zm.168.075-.03.068.03-.068Zm.946.29.011.074-.01-.074Zm-.174-.313.012.074-.012-.074Zm-.845-.229.03-.069-.03.07Zm-.017-.007.03-.069-.03.069Zm-.294-.049-.002-.075.002.075Zm-.1.002v.075-.075Zm-.11.001v.075l-.001-.15v.075Zm-.09 0-.001.075V8.26Zm-.069.003.004.075-.004-.075Zm-.387-.125.057-.05-.057.05Zm.467-1.311-.024-.07.024.07Zm-.062.126.07-.023-.07.023Zm.188-.065.071-.024-.071.024Zm.312.26-.024.072.024-.071Zm0 0 .024-.07-.024.07Zm.064.024.03-.069-.03.07Zm.084.034-.028.07.055-.14-.027.07Zm.102.04.028-.07-.028.07Zm.094.036.026-.07-.026.07Zm.254.155.053-.053-.053.053Zm.013.013.053-.053-.053.053Zm.698.529.018-.073-.018.073Zm.16.161-.072-.018.073.018Zm-.116.194.018-.073-.018.073Zm-.768-.623.054-.052-.054.052Zm0 0-.054.052.054-.052Zm-.128-.132-.053.053.053-.053Zm-.182-.111-.025.07.025-.07Zm0 0 .025-.071-.025.07Zm-.1-.037.027-.07-.028.07Zm-.102-.04-.027.07.055-.14-.028.07Zm-.088-.036-.03.07.03-.07Zm-.05-.02-.028.07.029-.07Zm0 0 .03-.07H9.38l-.028.07Zm.598-1.401-.074-.006.074.006Zm.108-.092-.005.075.005-.075Zm.145.613-.054.053.054-.053Zm.037.038-.054.053.054-.053Zm.067.068-.052.054.105-.108-.053.054Zm.078.076.053-.054-.053.054Zm.078.073.05-.056-.05.056Zm.124.173-.07.028.07-.028Zm.067.172.07-.027-.07.027Zm.463.874.045-.06-.044.06Zm.183-.133-.06-.045.06.045Zm-.084-.211.044-.06-.044.06Zm-.437-.76.07-.028-.07.028Zm-.006-.017-.07.028.07-.028Zm-.174-.242.052-.054-.052.054Zm-.072-.07.053-.053-.053.053Zm-.079-.076-.052.053.105-.107-.053.054Zm-.063-.064-.054.052.054-.052Zm-.05-.047-.05.056.05-.056Zm-.185-.362-.075-.006.075.006Zm1.199-.522a.025.025 0 0 1 .033-.01l.066-.136a.176.176 0 0 0-.234.08l.135.066Zm.04.516c-.068-.162-.134-.327-.04-.516l-.135-.066c-.127.256-.03.483.037.64l.138-.058Zm.02.05a3.443 3.443 0 0 0-.02-.05l-.139.058a3.2 3.2 0 0 1 .02.048l.14-.056Zm.037.086a3.035 3.035 0 0 1-.036-.086l-.14.056.039.09.137-.06Zm.044.1-.026-.058-.013-.03-.004-.009v-.002h-.001v-.001s-.099-.038-.137.06l.137-.06c-.039.099-.137.06-.137.06v.001l.001.003.004.009.013.029.025.057.138-.06Zm.043.094a1.997 1.997 0 0 1-.043-.094l-.138.06c.018.042.034.074.047.1l.135-.066Zm.058.24a.504.504 0 0 0-.014-.136c-.01-.037-.027-.07-.043-.104l-.135.066a.462.462 0 0 1 .033.078.36.36 0 0 1 .009.096h.15Zm-.003.186.003-.186h-.15l-.003.183.15.003Zm.092.943a.526.526 0 0 1-.058-.165 1.765 1.765 0 0 1-.03-.242 6.528 6.528 0 0 1-.004-.536l-.15-.003c-.003.163-.007.364.005.549.005.092.015.182.032.263a.67.67 0 0 0 .077.213l.128-.08Zm.117-.08a.638.638 0 0 1-.103.049.162.162 0 0 1-.041.01c-.01 0 .012-.003.027.02l-.128.08c.03.047.08.051.107.05.03-.001.06-.01.085-.019a.791.791 0 0 0 .13-.062l-.077-.128Zm-.025-.124.001.002.003.006a.32.32 0 0 1 .014.076.18.18 0 0 1-.004.046c-.003.013-.004.003.01-.006l.078.128a.136.136 0 0 0 .058-.088.313.313 0 0 0 .007-.086.46.46 0 0 0-.011-.083.254.254 0 0 0-.028-.074l-.128.08Zm-.131-.907c0 .137 0 .309.015.471.015.16.046.323.116.436l.128-.079a.906.906 0 0 1-.094-.37c-.015-.155-.015-.32-.015-.458h-.15Zm0-.018v.018h.15V6.51h-.15Zm-.063-.258c.025.053.04.085.049.12a.52.52 0 0 1 .014.138h.15a.65.65 0 0 0-.02-.177.843.843 0 0 0-.057-.144l-.136.063Zm-.042-.094.042.094.136-.063-.04-.09-.138.059Zm.094-.16c-.033.096-.134.067-.137.061v.002l.005.01.012.029.026.058.138-.06-.026-.059-.013-.03a.24.24 0 0 0-.004-.008l-.001-.003-.001-.001c-.003-.006-.104-.035-.137.06l.138-.06Zm-.174-.025.036.085.138-.06a2.896 2.896 0 0 1-.035-.08l-.139.055Zm-.026-.057c.011.023.02.041.026.057l.14-.056-.032-.067-.134.066Zm-.036-.471c-.1.2-.014.37.036.471l.134-.066c-.051-.105-.1-.21-.036-.339l-.134-.066Zm-.012-.032c.013.006.017.02.012.032l.134.066a.173.173 0 0 0-.08-.233l-.066.135Zm1.406.038a.026.026 0 0 1 .036.004l.113-.1a.176.176 0 0 0-.246-.018l.098.114Zm-.164.49c.001-.175.005-.353.165-.49l-.098-.114c-.218.187-.216.434-.217.604h.15Zm0 0h-.15.15Zm0 .055v-.054h-.15v.052l.15.002Zm0 .093v-.093l-.15-.002v.097l.15-.002Zm0 0-.15.002.15-.002Zm.001.11-.001-.11-.15.003.001.107h.15Zm.003.103c-.001-.028-.003-.06-.003-.104l-.15.001c0 .047.002.082.004.11l.15-.007Zm-.04.243a.501.501 0 0 0 .04-.13c.005-.039.002-.074 0-.113l-.15.008a.452.452 0 0 1 0 .085.355.355 0 0 1-.028.092l.138.058Zm-.075.17.075-.17-.138-.058c-.02.048-.046.104-.074.167l.137.061Zm-.285.904a.529.529 0 0 1 .012-.174c.014-.071.037-.15.066-.234a6.5 6.5 0 0 1 .207-.496l-.137-.061c-.067.15-.15.333-.211.507-.03.088-.057.174-.073.255a.67.67 0 0 0-.012.226l.148-.023Zm.14-.028a.64.64 0 0 1-.115.005.162.162 0 0 1-.042-.006c-.01-.004.013.001.017.03l-.148.022c.008.055.054.079.079.088.027.01.058.014.085.016a.788.788 0 0 0 .144-.006l-.02-.149Zm.025-.123v.009a.317.317 0 0 1-.017.076.177.177 0 0 1-.02.04c-.008.01-.006 0 .011-.002l.021.149a.136.136 0 0 0 .088-.058.322.322 0 0 0 .04-.077.46.46 0 0 0 .022-.081.252.252 0 0 0 .003-.079l-.148.023Zm.234-.886a4.787 4.787 0 0 0-.17.44c-.049.152-.084.314-.064.446l.148-.023a.904.904 0 0 1 .059-.378c.046-.148.11-.3.165-.427l-.138-.058Zm.007-.017-.007.017.138.058.007-.017-.138-.058Zm.043-.262a.792.792 0 0 1-.003.13.505.505 0 0 1-.04.132l.138.058a.65.65 0 0 0 .05-.17c.008-.05.006-.099.005-.155l-.15.005Zm0 .001.15-.008-.15.008Zm-.002-.104c0 .04 0 .074.002.103l.15-.005-.002-.099-.15.001Zm.148-.111v.001c-.066.074-.15.01-.15.002V6.09v.045l.002.064h.15l-.001-.066v-.045c-.001-.008-.084-.073-.15.002l.15-.001Zm-.15-.09v.092l.15-.002V6h-.15Zm-.002-.063a.872.872 0 0 1 .002.063l.15.002c0-.023 0-.05-.002-.074l-.15.009Zm.151-.448c-.17.146-.157.335-.15.448l.149-.009c-.007-.116-.01-.232.099-.325l-.098-.114Zm.002-.033c.01.01.008.025-.002.033l.098.114a.173.173 0 0 0 .017-.246l-.113.099Zm1.44.527a.176.176 0 0 0-.22-.11l.047.143a.026.026 0 0 1 .032.016l.142-.05Zm-.107.221c.092-.03.14-.13.108-.221l-.142.049a.023.023 0 0 1-.014.03l.048.142Zm-.214.265c.038-.11.078-.22.214-.265l-.048-.142c-.213.071-.272.252-.308.359l.142.048Zm-.026.07c.01-.022.018-.047.026-.07L13.8 6.42a.852.852 0 0 1-.022.06l.138.058Zm-.032.08a3.03 3.03 0 0 1 .032-.08l-.138-.059-.034.085.14.055Zm-.04.104.023-.061.012-.03.004-.01a.213.213 0 0 0 0-.002l.001-.001c.002-.007-.05-.099-.14-.055v.001l.14.055c-.09.045-.143-.047-.14-.053v-.001l-.001.003-.004.009-.012.03-.023.06.14.055Zm-.036.092.036-.092-.14-.056-.036.096.14.052Zm0 0-.14-.052.14.052Zm-.172.281a.65.65 0 0 0 .11-.139.8.8 0 0 0 .062-.142l-.14-.052a.798.798 0 0 1-.051.12.508.508 0 0 1-.087.107l.106.106Zm-.013.013.013-.013-.106-.106-.013.013.106.106Zm-.509.663c.022-.094.095-.208.196-.33.098-.119.215-.235.313-.333l-.106-.106c-.097.097-.219.218-.323.344-.102.123-.195.26-.226.39l.146.035Zm-.252.215a.136.136 0 0 0 .103-.02.322.322 0 0 0 .066-.057.46.46 0 0 0 .05-.067.253.253 0 0 0 .033-.071l-.146-.035v.002l-.003.006a.308.308 0 0 1-.044.064.173.173 0 0 1-.035.03c-.01.007-.005-.001.012.003l-.036.145Zm-.25-.206c-.012.054.021.094.04.111.022.02.05.036.074.047a.73.73 0 0 0 .136.048l.036-.145a.641.641 0 0 1-.108-.038.164.164 0 0 1-.036-.022c-.008-.007.011.006.005.034l-.146-.035Zm.645-.805a7.181 7.181 0 0 0-.386.391c-.06.07-.117.14-.162.21a.67.67 0 0 0-.096.204l.146.035a.527.527 0 0 1 .075-.157c.04-.061.092-.126.15-.193.117-.133.258-.268.377-.382l-.104-.108Zm-.001.001.106.106-.106-.106Zm.132-.128-.13.127.103.108a4.31 4.31 0 0 0 .133-.13l-.106-.105Zm.093-.154a.458.458 0 0 1-.032.08.355.355 0 0 1-.06.074l.105.106a.5.5 0 0 0 .086-.106c.02-.034.03-.068.043-.105l-.142-.049Zm.039-.103c-.018.043-.03.077-.039.103l.142.05c.01-.027.02-.058.036-.098l-.14-.055Zm.178-.046c-.097.042-.14-.055-.14-.055v.004a9.732 9.732 0 0 1-.038.097l.139.055a25.697 25.697 0 0 0 .04-.1v-.001s-.043-.098-.14-.055l.14.055Zm-.103-.146a2.93 2.93 0 0 0-.036.091l.14.054.034-.086-.138-.059Zm.02-.048a3.824 3.824 0 0 1-.02.048l.138.06a4.06 4.06 0 0 0 .021-.051l-.139-.057Zm0-.001.139.06-.138-.06Zm.428-.477c-.272.09-.363.32-.428.478l.14.057c.066-.163.136-.326.335-.393l-.047-.142Zm1.046 1.17a.026.026 0 0 1 .023.027l.15.01a.176.176 0 0 0-.161-.187l-.012.15Zm-.463.23c.125-.123.254-.246.463-.23l.012-.15c-.286-.022-.46.154-.58.274l.105.106Zm0 0-.106-.106.107.106Zm0 0-.106-.106.107.106Zm0 0-.105-.106.105.107Zm-.038.038.038-.037-.105-.107a4.019 4.019 0 0 1-.038.037l.105.107Zm-.066.066.066-.066-.105-.107a3.324 3.324 0 0 0-.069.069l.108.104Zm-.077.078.045-.045.022-.023.007-.007.002-.002s0-.107-.107-.106l.107.106c-.105 0-.107-.105-.107-.105l-.002.002-.007.007a3.81 3.81 0 0 0-.066.068l.106.105Zm-.07.076c.018-.02.04-.045.07-.076l-.106-.105c-.033.033-.057.06-.076.08l.112.101Zm-.001 0-.11-.101.11.102Zm.004-.004-.118-.092.118.092Zm-.204.147a.5.5 0 0 0 .12-.064.543.543 0 0 0 .08-.079l-.11-.1a.449.449 0 0 1-.061.06.355.355 0 0 1-.085.044l.056.14ZM14 7.741c.064-.024.123-.046.174-.067l-.056-.139-.17.066.052.14Zm-.84.438a.526.526 0 0 1 .131-.115c.06-.04.133-.08.213-.118.16-.077.342-.146.496-.205l-.053-.14a6.72 6.72 0 0 0-.508.21 1.92 1.92 0 0 0-.23.129.67.67 0 0 0-.17.15l.121.09Zm.118.079a.641.641 0 0 1-.084-.077.165.165 0 0 1-.025-.034c-.004-.01.008.01-.009.032l-.12-.088c-.034.045-.018.094-.007.118a.302.302 0 0 0 .049.071c.036.041.082.08.106.098l.09-.12Zm.106-.069-.002.002a.315.315 0 0 1-.07.046.174.174 0 0 1-.043.014c-.013.002-.004-.003.01.007l-.091.12a.136.136 0 0 0 .103.021.32.32 0 0 0 .083-.026.461.461 0 0 0 .073-.042.255.255 0 0 0 .058-.053l-.121-.089Zm.791-.461a4.6 4.6 0 0 0-.43.19c-.143.074-.283.164-.361.271l.12.089c.057-.077.17-.154.31-.227.137-.07.29-.133.418-.184l-.056-.14Zm.018-.007-.018.007.057.139.017-.007-.056-.14Zm.215-.155a.784.784 0 0 1-.093.09.505.505 0 0 1-.122.065l.056.139a.653.653 0 0 0 .156-.084.93.93 0 0 0 .112-.107l-.109-.103Zm.071-.074c-.028.028-.05.053-.07.074l.108.103a3.88 3.88 0 0 1 .07-.072l-.108-.105Zm.184.026v.001c-.1.005-.113-.1-.108-.105l-.002.002-.007.007-.022.023a7.75 7.75 0 0 1-.045.046l.107.105.046-.046a6.51 6.51 0 0 0 .022-.023l.007-.007.002-.002v-.001h.001c.005-.006-.008-.11-.107-.105h-.001l.107.105Zm-.042-.17-.065.065.107.105.062-.062-.104-.108Zm.043-.046a.888.888 0 0 1-.043.046l.104.108c.017-.016.034-.036.05-.054l-.111-.1Zm.424-.21c-.224-.017-.349.126-.424.21l.112.1c.077-.087.157-.171.3-.16l.012-.15Zm.024-.022a.023.023 0 0 1-.024.022l-.012.15a.173.173 0 0 0 .186-.162l-.15-.01Zm.642 1.383a.176.176 0 0 0-.079-.234l-.067.135c.012.006.018.02.011.034l.135.065Zm-.233.08a.173.173 0 0 0 .233-.08l-.135-.065a.023.023 0 0 1-.03.011l-.068.134Zm-.338.037c.105-.052.21-.1.338-.037l.067-.134c-.2-.1-.37-.014-.471.036l.066.135Zm-.067.03c.022-.008.045-.02.067-.03l-.066-.135a.9.9 0 0 1-.058.027l.057.139Zm-.08.035c.03-.014.055-.024.08-.034l-.057-.14-.084.037.06.137Zm-.102.044a12.11 12.11 0 0 0 .09-.039l.008-.004h.003v-.001h.001c.007-.004.034-.105-.06-.138h-.001l.06.138c-.096-.032-.068-.134-.061-.137l-.002.001c-.003 0-.006.002-.01.004l-.029.013-.058.026.06.137Zm-.09.04.09-.04-.06-.137-.093.041.063.137Zm-.321.077a.652.652 0 0 0 .177-.02c.049-.012.093-.033.144-.056l-.063-.137a.786.786 0 0 1-.12.05.506.506 0 0 1-.138.013v.15Zm-.018 0h.018v-.15h-.018v.15Zm-.829.11c.082-.051.215-.08.372-.095.154-.015.318-.015.457-.015v-.15c-.137 0-.31 0-.472.016-.159.015-.322.046-.435.116l.078.127Zm-.33-.027a.136.136 0 0 0 .087.059.32.32 0 0 0 .087.006.465.465 0 0 0 .083-.011.253.253 0 0 0 .073-.028l-.078-.127h-.002a.315.315 0 0 1-.083.016.192.192 0 0 1-.045-.002c-.013-.003-.003-.005.006.01l-.129.077Zm-.03-.322c-.048.03-.052.081-.051.107 0 .03.01.06.018.085a.783.783 0 0 0 .062.13l.129-.077a.635.635 0 0 1-.05-.103.162.162 0 0 1-.01-.041c0-.01.004.012-.02.027l-.079-.128Zm1.024-.113a6.361 6.361 0 0 0-.55.004 1.915 1.915 0 0 0-.262.033.672.672 0 0 0-.213.076l.079.128a.527.527 0 0 1 .165-.058 1.77 1.77 0 0 1 .241-.03 6.9 6.9 0 0 1 .537-.003l.003-.15Zm.183.002c-.052 0-.114 0-.183-.002l-.003.15.186.002v-.15Zm.174-.042a.455.455 0 0 1-.078.033.356.356 0 0 1-.096.01v.15a.501.501 0 0 0 .135-.015c.038-.01.07-.026.105-.043l-.066-.135Zm.1-.047a2.21 2.21 0 0 0-.1.047l.066.135c.025-.013.055-.027.094-.044l-.06-.138Zm.16.094c-.1-.038-.06-.137-.06-.137h-.001l-.003.002a1.528 1.528 0 0 0-.038.016 7.79 7.79 0 0 1-.058.025l.06.138.058-.025.03-.013.008-.004.003-.001c.001 0 .04-.1-.06-.138l.06.137Zm.03-.175a3.27 3.27 0 0 0-.09.038l.06.137.085-.036-.056-.14Zm.048-.02a3.796 3.796 0 0 1-.049.02l.056.139.05-.02-.057-.14Zm.64-.037c-.256-.127-.483-.029-.64.037l.058.138c.162-.068.327-.134.515-.04l.067-.135Zm-.094 1.562a.026.026 0 0 1-.003.035l.099.113a.176.176 0 0 0 .018-.246l-.114.098Zm-.49-.165c.176.001.353.005.49.165l.114-.098c-.186-.217-.433-.216-.604-.217v.15Zm0 0v-.15.15Zm-.055 0h.055v-.15h-.052l-.003.15Zm-.093 0h.093l.003-.15h-.098l.002.15Zm0 0-.002-.15.002.15Zm-.109.001.11-.001-.003-.15-.108.001.001.15Zm-.104.004.104-.004v-.15c-.047 0-.083.002-.111.004l.007.15Zm-.243-.041a.5.5 0 0 0 .13.04c.04.005.075.003.113 0l-.007-.15a.456.456 0 0 1-.085 0 .356.356 0 0 1-.092-.028l-.059.138Zm-.17-.075.17.075.059-.138a9.381 9.381 0 0 1-.167-.074l-.062.137Zm.002 0 .059-.138-.06.138Zm-.002 0 .062-.137-.062.137Zm-.904-.285a.527.527 0 0 1 .175.012c.07.014.15.037.234.067.167.058.345.138.495.206l.062-.137c-.15-.067-.333-.15-.508-.21a1.915 1.915 0 0 0-.254-.073.67.67 0 0 0-.226-.013l.022.148Zm.028.14a.636.636 0 0 1-.005-.115.163.163 0 0 1 .007-.042c.004-.01-.002.013-.03.017l-.022-.148a.114.114 0 0 0-.088.079.3.3 0 0 0-.016.085.784.784 0 0 0 .006.144l.148-.02Zm.124.025h-.002a.315.315 0 0 1-.082-.017.176.176 0 0 1-.041-.02c-.01-.008-.001-.006.001.011l-.148.021a.136.136 0 0 0 .058.088.417.417 0 0 0 .157.062.254.254 0 0 0 .08.003l-.023-.148Zm.886.234a4.787 4.787 0 0 0-.44-.17c-.153-.049-.315-.084-.446-.064l.022.148a.924.924 0 0 1 .379.059c.147.046.299.11.426.165l.059-.138Zm-.006-.002-.047.142.047-.142Zm.023.009-.017-.007-.059.138.017.007.059-.138Zm.262.043a.79.79 0 0 1-.13-.002.507.507 0 0 1-.132-.041l-.059.138a.654.654 0 0 0 .17.051c.05.007.1.005.155.004l-.004-.15Zm-.002 0 .008.15-.008-.15Zm.104-.002-.102.002.004.15.1-.002-.002-.15Zm.112.148h-.002c-.074-.066-.009-.149-.002-.15h.001-.013l-.032.001h-.064l.001.15a11.33 11.33 0 0 0 .107 0h.005c.007-.001.072-.084-.002-.15h-.001l.002.15Zm.09-.15h-.092l.002.15h.087l.003-.15Zm.063-.002a.92.92 0 0 1-.063.003l-.003.15.074-.003-.008-.15Zm.448.152c-.146-.171-.335-.158-.448-.152l.008.15c.117-.006.233-.01.326.1l.114-.098Zm.033.001a.023.023 0 0 1-.033-.001l-.114.097c.063.074.173.08.246.017l-.099-.113Zm-.532 1.429c.09-.031.14-.13.109-.221l-.142.047a.026.026 0 0 1-.017.032l.05.142Zm-.222-.108c.031.092.13.14.222.108l-.05-.142a.023.023 0 0 1-.03-.014l-.142.048Zm-.265-.214c.11.038.22.078.265.214l.142-.048c-.071-.213-.252-.271-.359-.308l-.048.142Zm-.07-.025c.022.009.047.017.07.025l.048-.142-.059-.022-.059.139Zm-.08-.033c.031.012.056.022.08.033l.06-.139a3.052 3.052 0 0 0-.086-.034l-.055.14Zm-.103-.04.06.023.03.012a.254.254 0 0 0 .01.004h.002l.001.001c.007.002.099-.05.055-.14h-.001l-.055.14c-.044-.09.047-.143.054-.14l-.002-.001-.01-.004-.03-.011a13.086 13.086 0 0 1-.059-.024l-.055.14Zm-.093-.035c.027.01.057.02.093.035l.055-.14a3.903 3.903 0 0 0-.096-.036l-.052.14Zm-.28-.173a.654.654 0 0 0 .138.111c.044.025.09.042.142.062l.052-.141a.786.786 0 0 1-.12-.051.506.506 0 0 1-.107-.087l-.106.106Zm-.014-.013.013.013.106-.106-.013-.013-.106.106Zm-.662-.509c.093.022.207.096.329.196.119.099.236.215.333.313l.106-.106c-.097-.097-.218-.219-.344-.322-.123-.103-.26-.196-.39-.227l-.034.146Zm-.216-.252a.136.136 0 0 0 .02.103.459.459 0 0 0 .123.117.252.252 0 0 0 .073.032l.034-.146h-.002a.308.308 0 0 1-.1-.08c-.007-.013.002-.006-.003.01l-.145-.036Zm.206-.25c-.054-.012-.093.021-.111.04a.3.3 0 0 0-.047.074.79.79 0 0 0-.048.136l.145.036a.638.638 0 0 1 .038-.107.16.16 0 0 1 .022-.037c.007-.007-.006.011-.033.005l.034-.146Zm.805.645a6.518 6.518 0 0 0-.391-.385 1.913 1.913 0 0 0-.209-.163.67.67 0 0 0-.205-.096l-.034.146c.043.01.096.035.157.076.06.04.125.09.192.15.133.117.268.257.382.376l.108-.104Zm.128.131-.128-.13-.108.103c.047.05.091.095.13.133l.106-.106Zm.153.094a.451.451 0 0 1-.08-.032.357.357 0 0 1-.073-.062l-.106.106c.039.04.07.066.106.086.034.02.067.03.104.043l.049-.141Zm.104.038a2.308 2.308 0 0 0-.104-.038l-.05.141c.027.01.058.02.098.036l.056-.14Zm.046.179c.097-.043.054-.14.054-.14l-.003-.002-.01-.003a4.121 4.121 0 0 0-.087-.034l-.056.139.06.023.03.012.008.003.003.001h.001s-.043-.096.054-.14l-.054.14Zm.145-.104a3.179 3.179 0 0 0-.09-.036l-.055.14.086.034.059-.138Zm.048.02-.048-.02-.059.138.05.021.057-.138Zm.479.428c-.091-.272-.321-.363-.479-.427l-.057.138c.163.067.327.137.394.336l.142-.047Zm-1.18 1.037a.026.026 0 0 1-.027.023l-.01.15a.176.176 0 0 0 .187-.161l-.15-.012Zm-.23-.463c.123.125.246.253.23.463l.15.012c.022-.286-.154-.46-.274-.58l-.107.105Zm-.039-.038.038.038.107-.105a4.049 4.049 0 0 1-.037-.038l-.108.105Zm-.066-.066c.026.025.047.045.066.066l.108-.105a3.408 3.408 0 0 0-.069-.069l-.104.108Zm-.078-.076.046.044.023.022a.831.831 0 0 0 .007.007l.002.002s.106 0 .106-.106l-.106.106c0-.106.105-.107.105-.107l-.002-.002a.831.831 0 0 1-.008-.007l-.022-.022a6.18 6.18 0 0 1-.045-.044l-.106.107Zm-.075-.071c.02.019.045.04.075.07l.106-.106a2.244 2.244 0 0 0-.08-.076l-.101.112Zm-.003-.003.106-.106-.106.106Zm-.14-.198a.5.5 0 0 0 .064.12c.023.031.05.055.079.08l.1-.11a.454.454 0 0 1-.06-.06.357.357 0 0 1-.044-.086l-.14.056Zm-.067-.174c.024.064.046.124.067.174l.139-.056-.066-.17-.14.053Zm0 .003.139-.059-.138.06Zm-.439-.843c.036.027.075.07.116.132.04.06.08.133.118.212.077.16.146.342.205.496l.14-.053c-.059-.153-.13-.341-.21-.508a1.914 1.914 0 0 0-.129-.23.674.674 0 0 0-.15-.17l-.09.121Zm-.078.118a.641.641 0 0 1 .077-.084.155.155 0 0 1 .034-.025c.01-.004-.01.008-.033-.009l.09-.12c-.046-.034-.095-.018-.119-.007a.3.3 0 0 0-.071.049.794.794 0 0 0-.098.106l.12.09Zm.069.106-.002-.002a.23.23 0 0 1-.046-.07.173.173 0 0 1-.014-.043c-.002-.013.003-.004-.007.01l-.12-.091a.136.136 0 0 0-.021.103.318.318 0 0 0 .026.083.462.462 0 0 0 .042.073c.014.02.032.042.053.058l.089-.121Zm.461.792c-.051-.127-.115-.287-.19-.431-.074-.143-.164-.283-.271-.361l-.089.12c.077.057.154.17.226.31.072.137.134.29.185.418l.14-.056Zm.007.017-.007-.017-.139.056.007.017.14-.056Zm.155.215a.795.795 0 0 1-.09-.093.508.508 0 0 1-.065-.122l-.139.056a.65.65 0 0 0 .084.156.93.93 0 0 0 .107.112l.103-.109Zm.074.071a4.05 4.05 0 0 0-.074-.07l-.103.108c.021.02.045.042.072.07l.105-.107Zm-.026.184h-.001c-.005-.1.1-.113.104-.108h.001l-.002-.002-.007-.007-.023-.022-.046-.045-.105.107.046.046.023.022.007.007.002.002h.001v.001c.006.005.11-.007.105-.107v-.001l-.105.107Zm.17-.042-.066-.065-.104.107.062.062.107-.104Zm.046.043a.933.933 0 0 1-.047-.043l-.107.104a.64.64 0 0 0 .054.05l.1-.111Zm0 0-.101.111.101-.11Zm.21.424c.017-.224-.126-.349-.21-.424l-.1.112c.087.077.171.157.16.3l.15.012Zm.022.024a.023.023 0 0 1-.023-.024l-.149-.012a.173.173 0 0 0 .162.186l.01-.15Zm-1.396.638a.176.176 0 0 0 .234-.08l-.134-.066a.026.026 0 0 1-.034.01l-.066.136Zm-.08-.233a.173.173 0 0 0 .08.233l.066-.135a.023.023 0 0 1-.011-.032l-.135-.066Zm-.036-.339c.052.105.1.21.036.339l.135.066c.1-.2.013-.37-.036-.471l-.135.066Zm-.031-.067c.009.022.02.045.031.067l.135-.066-.027-.057-.14.056Zm-.034-.08.034.08.139-.056a2.828 2.828 0 0 0-.036-.085l-.137.06Zm-.045-.102.026.06.013.03.004.008.002.003v.002c.003.006.105.034.137-.061l-.137.06V12c.032-.094.133-.066.137-.06l-.001-.002-.004-.01-.013-.029-.026-.058-.138.06Zm-.04-.09.04.09.138-.059a4.19 4.19 0 0 0-.042-.094l-.136.063Zm-.077-.32a.641.641 0 0 0 .077.32l.136-.063a.795.795 0 0 1-.049-.12.508.508 0 0 1-.014-.138h-.15Zm0-.02v.02h.15v-.02h-.15Zm-.109-.827c.05.081.08.214.095.37.014.155.014.32.014.458h.15c0-.137 0-.309-.015-.471-.015-.16-.046-.323-.116-.436l-.128.079Zm.026-.331a.136.136 0 0 0-.058.087.322.322 0 0 0-.007.087.459.459 0 0 0 .012.083.255.255 0 0 0 .027.074l.128-.08v-.001a.308.308 0 0 1-.013-.128c.002-.013.003-.003-.011.006l-.078-.128Zm.322-.03c-.03-.048-.08-.052-.107-.051a.3.3 0 0 0-.084.019.79.79 0 0 0-.13.062l.077.128a.636.636 0 0 1 .103-.049.162.162 0 0 1 .04-.01c.011 0-.012.003-.026-.02l.127-.08Zm.114 1.024c.003-.163.008-.364-.004-.549a1.914 1.914 0 0 0-.033-.263.67.67 0 0 0-.077-.212l-.127.078a.527.527 0 0 1 .057.165c.015.07.024.153.03.242.011.177.007.371.004.536l.15.003Zm-.003.183a8.8 8.8 0 0 1 .003-.183l-.15-.003a9.578 9.578 0 0 0-.003.186h.15Zm.043.174a.457.457 0 0 1-.034-.078.356.356 0 0 1-.009-.096h-.15a.5.5 0 0 0 .015.136c.01.037.026.07.043.104l.135-.066Zm.046.1a2.305 2.305 0 0 0-.046-.1l-.135.066.043.094.138-.06Zm.043.099a17.929 17.929 0 0 1-.043-.098l-.138.06.044.098.137-.06Zm0 0-.137.06.137-.06Zm0 0-.137.06.137-.06Zm0 0-.137.06v.001l.137-.06Zm0 0-.137.061.137-.06Zm.039.09a3.015 3.015 0 0 0-.038-.09l-.138.06.037.087.139-.056Zm.02.049a4.484 4.484 0 0 1-.02-.048l-.14.056.021.05.139-.058Zm0 0-.139.057.139-.056Zm.036.64c.128-.256.03-.483-.036-.64l-.139.058c.068.162.134.327.04.516l.135.066Zm-1.574-.093a.026.026 0 0 1-.036-.003l-.113.098a.176.176 0 0 0 .246.019l-.097-.114Zm.164-.49c0 .175-.004.353-.164.49l.097.114c.218-.187.216-.434.217-.604h-.15Zm0-.055v.054h.15v-.051l-.15-.003Zm0-.093v.093l.15.003v-.098l-.15.002Zm0-.11v.109s.077.075.15-.001l-.15.002c.075-.076.15-.002.15-.002V11.8h-.15Zm-.004-.103c.001.028.003.06.003.104l.15-.001c0-.047-.002-.082-.003-.11l-.15.007Zm0 .004.15-.015-.15.015Zm0-.008h.15-.15Zm.04-.24a.502.502 0 0 0-.039.131c-.005.039-.003.074-.001.113l.15-.008a.45.45 0 0 1 0-.085.354.354 0 0 1 .029-.092l-.139-.058Zm.076-.17-.075.17.138.06c.02-.049.045-.105.073-.168l-.136-.061Zm.284-.903a.526.526 0 0 1-.011.174c-.014.071-.038.15-.067.234-.059.168-.139.345-.206.496l.136.061c.068-.15.15-.333.211-.507.03-.088.057-.174.073-.255a.673.673 0 0 0 .012-.226l-.148.023Zm-.139.028a.645.645 0 0 1 .114-.005.162.162 0 0 1 .042.006c.01.004-.013-.001-.017-.03l.148-.022c-.008-.055-.054-.079-.078-.088a.305.305 0 0 0-.086-.016.792.792 0 0 0-.144.006l.021.149Zm-.026.123v-.009a.309.309 0 0 1 .038-.116c.008-.01.005 0-.012.002l-.02-.149a.137.137 0 0 0-.089.058.321.321 0 0 0-.04.077.463.463 0 0 0-.022.081.255.255 0 0 0-.003.079l.148-.023Zm-.233.886c.053-.126.12-.284.17-.44.048-.152.083-.314.063-.446l-.148.023a.917.917 0 0 1-.058.378c-.047.148-.111.3-.165.427l.138.058Zm-.008.017.008-.017-.138-.058-.008.017.139.058Zm-.043.262a.792.792 0 0 1 .003-.13.509.509 0 0 1 .04-.132l-.138-.058a.658.658 0 0 0-.05.17c-.008.05-.006.098-.004.155l.15-.005Zm.003.103c0-.04-.002-.074-.003-.103l-.15.005.003.099.15-.001Zm-.149.111c.068-.075.15-.009.15-.003v.001-.045l-.001-.064h-.15v.108l.001.003v.001c0 .006.082.073.15-.002l-.15.001Zm.15.09v-.092l-.15.002V12l.15.002Zm.002.063-.002-.063-.15-.002.002.074.15-.009Zm-.151.448c.17-.146.157-.335.151-.448l-.15.009c.007.116.01.232-.099.325l.098.114Zm-.002.034a.023.023 0 0 1 .002-.034l-.098-.114a.173.173 0 0 0-.017.246l.113-.098Zm-1.44-.528c.03.09.13.14.22.11l-.047-.143a.026.026 0 0 1-.032-.016l-.142.05Zm.108-.221a.173.173 0 0 0-.108.221l.141-.049a.023.023 0 0 1 .014-.03l-.047-.142Zm.213-.265c-.037.11-.077.22-.213.265l.047.142c.213-.072.272-.252.308-.359l-.142-.048Zm.026-.07c-.01.022-.018.047-.026.07l.142.048.022-.06-.138-.058Zm.033-.08a2.644 2.644 0 0 1-.033.08l.138.059.034-.085-.14-.055Zm.04-.104a6.665 6.665 0 0 0-.024.061l-.012.03-.003.01-.001.002v.001c-.003.006.048.098.139.055v-.001l-.14-.055c.092-.045.143.048.14.054l.002-.003.003-.009.012-.03.023-.06-.14-.055Zm.035-.092-.035.092.139.056.037-.096-.141-.052Zm.173-.281a.654.654 0 0 0-.112.139.88.88 0 0 0-.061.142l.14.052a.788.788 0 0 1 .052-.12.508.508 0 0 1 .087-.107l-.106-.106Zm.013-.013-.013.013.106.106.013-.013-.106-.106Zm.508-.663c-.022.094-.095.208-.196.33-.098.119-.215.235-.312.333l.106.106c.096-.097.218-.218.322-.344.102-.123.196-.26.226-.39l-.146-.035Zm.253-.215a.136.136 0 0 0-.104.02.315.315 0 0 0-.066.057.459.459 0 0 0-.05.067.252.252 0 0 0-.033.071l.146.035v-.002l.003-.006a.31.31 0 0 1 .078-.093c.012-.008.006 0-.01-.004l.036-.146Zm.248.206c.013-.054-.02-.094-.04-.111a.3.3 0 0 0-.072-.047.793.793 0 0 0-.136-.048l-.037.145c.024.006.07.02.108.038a.16.16 0 0 1 .036.022c.008.007-.011-.006-.004-.034l.146.035Zm-.644.805c.118-.113.264-.253.386-.392.06-.069.117-.14.162-.208a.67.67 0 0 0 .097-.205l-.146-.035a.529.529 0 0 1-.076.157c-.04.061-.091.126-.15.192a6.57 6.57 0 0 1-.377.383l.104.108Zm-.005.005-.094-.118.094.117Zm-.126.122.131-.127-.104-.108c-.049.047-.095.09-.133.13l.106.105Zm-.093.154c.013-.04.02-.06.032-.08a.357.357 0 0 1 .061-.074l-.106-.106a.497.497 0 0 0-.086.106c-.019.034-.03.068-.043.105l.142.049Zm-.038.103c.017-.043.029-.077.038-.104l-.142-.048c-.01.026-.02.057-.036.097l.14.055Zm-.04.1c.002-.002.031-.079.04-.1l-.14-.055c-.008.022-.038.1-.04.102l.14.054Zm0 .001-.14-.054.14.054Zm-.036.09.037-.09-.14-.054a3.02 3.02 0 0 1-.035.086l.138.059Zm-.02.049.02-.048-.138-.06-.02.051.138.057Zm0 0-.14-.056.14.055Zm0 .002-.138-.061.137.06Zm-.427.476c.271-.09.362-.32.427-.478l-.139-.057c-.066.163-.136.326-.336.393l.048.143ZM8.92 10.973a.026.026 0 0 1-.023-.027l-.15-.007a.176.176 0 0 0 .164.184l.01-.15Zm.46-.238c-.123.126-.25.251-.46.238l-.009.15c.286.017.457-.162.576-.284l-.108-.104Zm-.001 0 .108.104-.108-.104Zm.001-.001.106.106-.106-.106Zm.037-.038a4.13 4.13 0 0 0-.038.039l.108.104.036-.037-.106-.106Zm.065-.067a2.883 2.883 0 0 1-.065.067l.106.106c.022-.021.043-.043.068-.07l-.109-.103Zm.075-.08a10.74 10.74 0 0 0-.066.07l-.006.008-.002.002h-.001s.003.106.11.103l-.11-.103c.106-.003.11.103.11.103l.002-.003a.6.6 0 0 0 .007-.007l.022-.023.042-.046-.108-.103Zm.07-.076c-.019.021-.04.046-.07.077l.108.103c.032-.033.056-.06.075-.082l-.113-.098Zm.198-.147a.503.503 0 0 0-.12.066c-.03.024-.053.052-.078.08l.113.1a.453.453 0 0 1 .059-.062.36.36 0 0 1 .084-.046l-.058-.138Zm.172-.07-.172.07.058.138a9 9 0 0 1 .17-.069l-.056-.139Zm0 0 .055.14-.055-.14Zm0 0 .055.14-.055-.14Zm0 0 .055.14-.054-.14Zm0 0 .056.14-.056-.14Zm.832-.453a.527.527 0 0 1-.129.118c-.06.041-.131.082-.21.122-.16.08-.34.152-.493.213l.056.14c.152-.062.338-.136.504-.22.082-.04.161-.085.229-.132a.668.668 0 0 0 .166-.154l-.123-.087Zm-.119-.076c.02.014.057.045.085.075a.16.16 0 0 1 .026.034c.005.01-.008-.01.008-.033l.123.087c.032-.045.016-.094.005-.118a.301.301 0 0 0-.05-.07.789.789 0 0 0-.109-.097l-.088.122Zm-.104.07h.001a.316.316 0 0 1 .07-.047.175.175 0 0 1 .043-.016c.013-.002.004.003-.01-.007l.088-.122a.136.136 0 0 0-.104-.019.32.32 0 0 0-.082.028.465.465 0 0 0-.072.043.257.257 0 0 0-.057.054l.123.087Zm-.784.476a5.1 5.1 0 0 0 .428-.198c.14-.077.279-.169.356-.277l-.123-.087c-.055.078-.166.157-.305.232-.136.074-.287.138-.414.192l.058.138Zm.006-.003-.07-.132.07.132Zm-.023.01.017-.007-.058-.138-.017.007.058.138Zm-.213.159a.792.792 0 0 1 .092-.092.508.508 0 0 1 .121-.067l-.058-.138a.65.65 0 0 0-.155.087.807.807 0 0 0-.11.109l.11.1Zm-.07.075.07-.075-.11-.101-.068.072.108.104Zm-.184-.023c.102-.008.114.097.11.102l.002-.002.007-.007.022-.024.043-.046-.108-.104-.045.048-.022.023-.006.007-.002.002v.001h-.001c-.004.005.008.11.109.103l-.109-.103Zm.046.169c.02-.02.04-.04.063-.066l-.109-.103a2.89 2.89 0 0 1-.06.063l.106.106Zm-.043.046a.904.904 0 0 1 .043-.046l-.106-.106c-.017.016-.034.036-.05.054l.113.098Zm0 0-.113-.098.113.099Zm.004-.003-.12-.09.12.09Zm-.006.006-.109-.103.109.103Zm-.418.215c.224.013.347-.132.42-.217l-.113-.099c-.076.089-.154.175-.298.166l-.009.15Zm-.024.022c0-.014.012-.023.024-.022l.01-.15a.173.173 0 0 0-.184.165l.15.007Zm-.652-1.4a.176.176 0 0 0 .08.234l.066-.134a.026.026 0 0 1-.011-.034l-.135-.065Zm.233-.08a.173.173 0 0 0-.233.08l.135.066a.023.023 0 0 1 .031-.011l.067-.134Zm.338-.036c-.104.052-.21.1-.338.037L8.41 9.6c.201.1.37.014.472-.036l-.067-.135Zm.068-.03c-.022.008-.046.02-.068.03l.067.135a.918.918 0 0 1 .057-.027L8.884 9.4Zm.08-.035a2.909 2.909 0 0 1-.08.034l.056.14.084-.037-.06-.137Zm.101-.044-.06.026-.029.013-.009.004h-.002a.048.048 0 0 1-.001.001h-.001c-.006.003-.035.105.06.138h.001l-.06-.138h.001c.095.033.066.134.06.137a.187.187 0 0 1 .012-.005l.029-.013c.023-.01.048-.02.058-.026l-.059-.137Zm.09-.04-.09.04.06.137.093-.041-.062-.137Zm.321-.077a.653.653 0 0 0-.176.02c-.05.012-.093.033-.144.056l.062.137a.788.788 0 0 1 .12-.05.506.506 0 0 1 .138-.013v-.15Zm.019 0h-.019v.15h.019v-.15Zm.828-.11c-.082.051-.215.08-.371.095a4.934 4.934 0 0 1-.457.015v.15c.137 0 .308 0 .47-.016.16-.015.324-.046.437-.116l-.08-.127Zm.33.027a.136.136 0 0 0-.087-.059.32.32 0 0 0-.087-.006.462.462 0 0 0-.083.01.254.254 0 0 0-.073.029l.079.127h.002a.314.314 0 0 1 .082-.016c.02-.001.035 0 .045.002.013.003.003.005-.006-.01l.129-.077Zm.031.322a.115.115 0 0 0 .05-.107.305.305 0 0 0-.018-.085.79.79 0 0 0-.062-.13l-.129.077c.013.02.036.064.05.103a.15.15 0 0 1 .01.041c0 .01-.004-.012.02-.027l.079.128Zm-1.025.113c.164.004.365.008.55-.004.092-.006.182-.016.262-.033a.67.67 0 0 0 .213-.076l-.079-.128a.528.528 0 0 1-.165.058 1.77 1.77 0 0 1-.241.03 6.518 6.518 0 0 1-.537.003l-.003.15Zm-.183-.002c.053 0 .114 0 .183.002l.003-.15a9.458 9.458 0 0 0-.186-.002v.15Zm-.174.042a.456.456 0 0 1 .078-.033.357.357 0 0 1 .096-.01v-.15a.5.5 0 0 0-.135.015c-.038.01-.07.026-.105.043l.066.135Zm-.1.047.1-.047-.066-.135a1.297 1.297 0 0 1-.094.044l.06.138Zm-.099.043c.005-.002.078-.035.099-.043l-.06-.138-.1.044.061.137Zm0 0-.06-.137.06.137Zm0 0-.06-.137.06.137Zm-.09.038.09-.038-.06-.137-.086.036.056.14Zm-.048.02.048-.02-.056-.139-.05.02.058.14Zm-.64.036c.256.128.483.03.64-.036l-.058-.138c-.163.068-.328.134-.516.04l-.067.134Zm.093-1.56a.026.026 0 0 1 .003-.036l-.098-.113a.176.176 0 0 0-.019.246l.114-.098Zm.49.164c-.175-.001-.353-.005-.49-.165l-.114.098c.186.217.434.216.604.217v-.15Zm.055 0h-.054l-.001.15h.052l.003-.15Zm.093 0h-.093l-.003.15h.098l-.002-.15Zm.11-.001a11.126 11.126 0 0 0-.106.001h-.004s-.074.076.002.15l-.002-.15c.076.074.002.15.002.15h.045l.063-.001v-.15Zm.103-.004-.104.004v.15c.047 0 .083-.002.111-.004l-.007-.15Zm.004 0v.15-.15Zm0 0v.15-.15Zm.239.041a.501.501 0 0 0-.13-.04.534.534 0 0 0-.113 0l.007.15a.455.455 0 0 1 .086 0c.02.002.047.01.091.028l.059-.138Zm.17.075-.17-.075-.059.138c.049.02.105.046.168.074l.061-.137Zm.904.285a.527.527 0 0 1-.174-.012 1.772 1.772 0 0 1-.235-.067 6.525 6.525 0 0 1-.495-.206l-.062.137c.15.067.333.15.508.21.087.031.174.057.254.073a.68.68 0 0 0 .226.013l-.022-.148Zm-.028-.14a.644.644 0 0 1 .005.115.162.162 0 0 1-.007.042c-.003.01.002-.013.03-.017l.022.148c.056-.009.08-.054.089-.079a.304.304 0 0 0 .016-.085.793.793 0 0 0-.006-.144l-.15.02Zm-.123-.025h.008a.315.315 0 0 1 .075.017.174.174 0 0 1 .041.02c.011.008.001.006-.001-.011l.149-.021a.137.137 0 0 0-.059-.088.32.32 0 0 0-.077-.04.464.464 0 0 0-.08-.022.254.254 0 0 0-.08-.003l.024.148Zm-.887-.234c.127.054.285.121.44.17.153.049.315.084.447.064l-.023-.148a.924.924 0 0 1-.379-.059 4.932 4.932 0 0 1-.426-.165l-.059.138Zm-.017-.007.017.007.06-.138-.018-.007-.059.138Zm-.262-.043a.789.789 0 0 1 .13.002.507.507 0 0 1 .133.041l.058-.138a.653.653 0 0 0-.17-.051c-.05-.007-.099-.005-.155-.004l.004.15Zm-.102.002.102-.002-.004-.15-.1.002.002.15Zm-.111-.149c.075.068.009.15.003.15h-.001.003a3.977 3.977 0 0 1 .106 0l-.001-.15a10.537 10.537 0 0 0-.097 0h-.015c-.006 0-.072.083.002.15h.001l-.001-.15Zm-.09.15h.091l-.001-.15h-.088l-.002.15Zm-.064.003a.92.92 0 0 1 .064-.003l.002-.15-.074.003.008.15Zm-.448-.152c.146.171.336.158.448.152l-.008-.15c-.116.006-.232.01-.326-.1l-.114.098Zm-.033-.001a.023.023 0 0 1 .033.001l.114-.097a.173.173 0 0 0-.245-.017l.098.113Zm.533-1.429a.176.176 0 0 0-.11.221l.143-.047a.026.026 0 0 1 .016-.032l-.05-.142Zm.221.108a.173.173 0 0 0-.221-.108l.049.142a.023.023 0 0 1 .03.014l.142-.048Zm.265.214c-.11-.038-.22-.078-.265-.214l-.142.048c.071.213.252.271.359.308l.048-.142Zm0 0-.048.142.048-.142Zm.07.025c-.022-.009-.047-.017-.07-.025l-.048.142a.916.916 0 0 1 .06.021l.058-.138Zm.08.033a2.902 2.902 0 0 1-.08-.033l-.059.138.085.035.055-.14Zm.104.04a11.544 11.544 0 0 0-.061-.023l-.03-.012-.01-.004h-.002v-.001H9.59c-.006-.002-.098.049-.055.14h.001l.055-.14c.044.091-.048.142-.054.14l.003.001.009.004a27.704 27.704 0 0 1 .09.035l.055-.14Zm.092.035c-.027-.01-.057-.02-.092-.035l-.056.14.096.036.052-.14Zm.281.173a.654.654 0 0 0-.139-.111c-.044-.025-.09-.042-.142-.062l-.052.141a.79.79 0 0 1 .12.051.5.5 0 0 1 .107.087l.106-.106Zm.013.013-.013-.013-.106.106.013.013.106-.106Zm.663.509c-.094-.022-.208-.096-.33-.196a4.96 4.96 0 0 1-.333-.313l-.106.106c.097.097.218.219.344.323.123.102.26.195.39.226l.035-.146Zm.215.252a.136.136 0 0 0-.02-.103.323.323 0 0 0-.057-.066.46.46 0 0 0-.067-.05.254.254 0 0 0-.071-.033l-.035.146h.002a.32.32 0 0 1 .07.047.174.174 0 0 1 .03.034c.007.012-.001.005.003-.011l.145.036Zm-.206.25c.054.012.094-.021.111-.04a.302.302 0 0 0 .047-.074.788.788 0 0 0 .048-.136l-.145-.036a.64.64 0 0 1-.038.107.164.164 0 0 1-.022.037c-.007.007.006-.011.034-.005l-.035.146Zm-.805-.645c.113.118.253.263.391.385.07.061.14.118.21.163.067.044.137.08.204.096l.035-.146a.526.526 0 0 1-.158-.076 1.763 1.763 0 0 1-.191-.15 6.506 6.506 0 0 1-.383-.376l-.108.104Zm0 0 .108-.104-.108.104Zm-.127-.131.127.13.108-.103a9.486 9.486 0 0 0-.13-.133l-.105.106Zm-.154-.094c.04.014.06.021.08.032.018.011.04.027.074.062l.106-.106a.5.5 0 0 0-.106-.086c-.034-.02-.068-.03-.105-.043l-.049.141Zm0 0 .05-.141-.05.141ZM9.563 7.5c.043.018.076.03.103.038l.05-.141a2.105 2.105 0 0 1-.098-.036l-.055.14Zm-.046-.179c.042.097-.055.14-.055.14h.001l.003.002a2.616 2.616 0 0 1 .097.037l.055-.139a11.424 11.424 0 0 0-.06-.023l-.029-.012-.01-.003-.002-.001s-.098.042-.055.14l.055-.14Zm-.146.104.09.036.055-.14a3.086 3.086 0 0 1-.086-.035l-.059.139Zm-.048-.02a.533.533 0 0 1 .048.02l.059-.139a4.39 4.39 0 0 0-.05-.02l-.057.139Zm0 0 .057-.14-.057.14Zm-.479-.428c.092.272.322.363.48.428l.056-.14c-.163-.066-.326-.136-.393-.335l-.143.047Zm1.18-1.037a.026.026 0 0 1 .028-.023l.01-.15a.176.176 0 0 0-.187.161l.15.012Zm.23.463c-.123-.125-.246-.254-.23-.463l-.15-.012c-.021.286.154.46.274.58l.107-.105Zm.039.038a4.275 4.275 0 0 0-.038-.038l-.107.105.037.038.108-.105Zm.066.066a3.156 3.156 0 0 1-.066-.066l-.108.105.069.069.105-.108Zm.078.076-.046-.044-.023-.022-.007-.007-.002-.002s-.106 0-.105.107l.105-.108c.001.106-.105.108-.105.108l.003.002.007.007.023.022.044.044.106-.107Zm.075.071c-.02-.019-.045-.04-.075-.07l-.106.106c.033.033.06.057.081.076l.1-.112Zm.144.201a.5.5 0 0 0-.065-.12.498.498 0 0 0-.079-.08l-.1.11a.46.46 0 0 1 .06.06.419.419 0 0 1 .045.086l.139-.056Zm.067.173a9.285 9.285 0 0 0-.067-.173l-.14.056.067.17.14-.053Zm.438.84a.528.528 0 0 1-.115-.13c-.04-.06-.08-.134-.118-.213a6.494 6.494 0 0 1-.205-.497l-.14.054c.058.153.13.341.21.508.04.083.083.163.128.23a.67.67 0 0 0 .151.17l.089-.121Zm.078-.117a.641.641 0 0 1-.077.084.162.162 0 0 1-.034.025c-.01.004.01-.008.033.009l-.089.12c.045.034.094.018.118.007a.303.303 0 0 0 .072-.049.788.788 0 0 0 .097-.106l-.12-.09Zm-.069-.106.002.002a.319.319 0 0 1 .046.07.177.177 0 0 1 .014.043c.002.013-.003.004.007-.01l.12.091a.136.136 0 0 0 .021-.103.318.318 0 0 0-.026-.083.468.468 0 0 0-.041-.073.256.256 0 0 0-.054-.058l-.089.121Zm-.461-.792c.051.127.116.287.19.432.074.142.164.282.271.36l.09-.12c-.078-.057-.155-.17-.227-.31a4.943 4.943 0 0 1-.185-.418l-.139.056Zm-.007-.017a.85.85 0 0 0 .007.017l.14-.056-.008-.017-.139.056Zm-.155-.215a.79.79 0 0 1 .09.093.54.54 0 0 1 .065.122l.14-.056a.649.649 0 0 0-.085-.156.858.858 0 0 0-.107-.112l-.103.109Zm-.074-.071c.028.028.053.05.074.07l.103-.108-.071-.07-.106.108Zm.027-.184c.005.101-.1.112-.104.108h-.001l.002.002.008.007a5.058 5.058 0 0 1 .068.067l.106-.107a9.673 9.673 0 0 0-.047-.046l-.023-.022-.007-.007-.002-.002-.001-.001c-.005-.004-.11.007-.105.108l.106-.107Zm-.17.042.065.065.105-.107a2.925 2.925 0 0 1-.062-.062l-.108.104Zm-.046-.043c.019.017.034.03.046.043l.108-.104-.054-.05-.1.111Zm-.21-.424c-.018.224.126.349.21.424l.1-.112c-.087-.077-.172-.157-.16-.3l-.15-.012Zm-.022-.024c.014 0 .023.012.022.024l.15.012a.173.173 0 0 0-.162-.186l-.01.15Z"/><path fill="#FFC125" fill-rule="evenodd" d="M12 5.25a.09.09 0 0 0-.09.083l-.16 2.285h.5l-.161-2.285a.09.09 0 0 0-.09-.083Zm3.734 3.7a.09.09 0 0 0-.083-.089l-2.285-.16v.5l2.285-.161a.09.09 0 0 0 .083-.09Zm-3.645 3.618a.09.09 0 0 1-.178 0l-.161-2.285h.5l-.161 2.285ZM8.266 8.951a.09.09 0 0 0 .083.089l2.285.16v-.5l-2.285.161a.09.09 0 0 0-.083.09Zm6.298-2.577a.09.09 0 0 1 .124.128l-1.532 1.703-.347-.36 1.755-1.471Zm.03 5.239a.09.09 0 0 0 .006-.122l-1.472-1.756-.36.348 1.704 1.532a.09.09 0 0 0 .122-.002Zm-5.159-.085a.09.09 0 0 1-.123-.129l1.532-1.703.347.36-1.756 1.472Zm-.03-5.24a.09.09 0 0 0-.006.122l1.472 1.756.36-.347-1.703-1.533a.09.09 0 0 0-.122.003Zm1.144-.658a.09.09 0 0 1 .166-.067l1.005 2.059-.464.187-.707-2.179Zm4.913 1.934a.09.09 0 0 0-.11-.051l-2.18.707.188.463 2.059-1.005a.09.09 0 0 0 .043-.114Zm-2.012 4.707a.09.09 0 0 1-.165.067L12.28 10.28l.463-.188.707 2.18Zm-4.912-1.934a.09.09 0 0 0 .11.052l2.18-.707-.188-.464-2.059 1.005a.09.09 0 0 0-.043.114Zm4.806-4.751a.09.09 0 0 1 .165.07l-.745 2.166-.46-.195 1.04-2.041Zm2.093 4.81a.09.09 0 0 0-.041-.114l-2.041-1.04-.196.46 2.167.744a.09.09 0 0 0 .111-.05Zm-4.782 1.92a.09.09 0 0 1-.164-.07l.745-2.167.46.196-1.04 2.04ZM8.562 7.505a.09.09 0 0 0 .042.114l2.04 1.041.196-.46-2.166-.745a.09.09 0 0 0-.112.05Z" clip-rule="evenodd"/><path fill="#984111" d="m11.91 5.333-.074-.005.075.005Zm-.16 2.285-.075-.005-.006.08h.08v-.075Zm.5 0v.075h.08l-.005-.08-.075.005Zm-.161-2.285.075-.005-.075.005Zm3.562 3.528.005-.074-.005.074Zm-2.285-.16.005-.075-.08-.006v.08h.075Zm0 .5h-.075v.08l.08-.006-.005-.074Zm2.285-.161.005.075-.005-.075Zm-3.562 3.528.075.005-.075-.005Zm-.178 0-.075.005.075-.005Zm-.161-2.285v-.075h-.08l.005.08.075-.005Zm.5 0 .075.005.005-.08h-.08v.075ZM8.349 9.04l-.006.075.006-.075Zm2.285.16-.005.075.08.006v-.08h-.075Zm0-.5h.075v-.08l-.08.006.005.075Zm-2.285.161-.006-.074.006.074Zm6.215-2.487-.048-.058.048.058Zm.124.128.056.05-.056-.05Zm-1.532 1.703-.054.052.056.058.054-.06-.056-.05Zm-.347-.36-.048-.057-.062.052.056.057.054-.052Zm1.791 3.646.058-.048-.058.048Zm-1.472-1.756.058-.048-.052-.062-.058.056.052.054Zm-.36.348-.051-.054-.058.056.06.053.05-.055Zm1.704 1.532-.05.056.05-.056Zm-5.158-.094.054-.052-.054.052Zm.121.007.049.057-.049-.057Zm-.123-.129-.056-.05.056.05Zm1.532-1.703.054-.052-.056-.058-.054.06.056.05Zm.347.36.048.057.062-.051-.056-.058-.054.052ZM9.399 6.41l-.057.049.057-.049Zm.007-.121.052.054-.052-.054Zm1.465 1.877-.057.048.052.062.057-.056-.052-.054Zm.36-.347.052.054.058-.056-.06-.054-.05.056ZM9.528 6.286l.05-.055-.05.055ZM10.6 5.52l-.028-.07.028.07Zm-.052.11.072-.022-.072.023Zm.166-.066-.068.033.068-.033Zm1.005 2.059.028.07.075-.03-.036-.073-.067.033Zm-.464.187-.07.023.024.077.074-.03-.028-.07Zm4.096-.296.023.071-.023-.071Zm-2.18.707-.023-.072-.076.025.03.075.07-.028Zm.188.463-.07.028.03.075.073-.035-.033-.068Zm2.059-1.005-.033-.067.033.067Zm-2.02 4.704.028.07-.028-.07Zm.051-.11.072-.024-.072.023Zm-.165.066.067-.033-.067.033ZM12.28 10.28l-.028-.07-.075.03.035.072.068-.032Zm.463-.188.072-.023-.025-.076-.075.03.028.07Zm-4.095.296.023.072-.023-.072Zm-.11-.051-.07.028.07-.028Zm2.29-.655.022.07.077-.024-.03-.075-.07.029Zm-.188-.464.07-.028-.03-.075-.073.036.033.067Zm-2.06 1.005.033.067-.033-.067Zm4.878-4.679.03-.069-.03.07Zm-.115.042-.066-.034.066.034Zm.165.07-.071-.025.07.025Zm-.745 2.166-.03.069.074.031.027-.076-.071-.024Zm-.46-.195-.067-.034-.037.071.074.032.03-.07Zm3.091 2.655.035-.067-.034.067Zm.042.115-.069-.03.07.03ZM13.355 9.24l.034-.067-.072-.036-.031.074.069.03Zm-.196.46-.069-.029-.031.074.076.026.024-.07Zm2.167.745.024-.07-.024.07Zm-4.785 1.911.03-.069-.03.07Zm.114-.041-.066-.035.066.034Zm-.164-.07-.07-.025.07.025Zm.745-2.167.03-.069-.075-.031-.026.076.071.024Zm.46.196.067.034.037-.072-.074-.031-.03.069ZM8.604 7.619l-.034.067.034-.067Zm-.042-.114.07.029-.07-.03Zm2.083 1.155-.034.067.071.037.032-.074-.07-.03Zm.195-.46.07.03.03-.075-.075-.026-.025.071Zm-2.166-.745-.025.071.025-.07Zm3.312-2.117c0-.007.006-.013.014-.013v-.15a.164.164 0 0 0-.164.153l.15.01Zm-.161 2.286.16-2.286-.15-.01-.16 2.285.15.01Zm.425-.08h-.5v.15h.5v-.15Zm-.236-2.206.161 2.286.15-.01-.161-2.286-.15.01ZM12 5.325c.007 0 .014.006.014.013l.15-.01A.164.164 0 0 0 12 5.175v.15Zm3.646 3.611c.007 0 .013.007.013.015h.15a.164.164 0 0 0-.153-.164l-.01.15Zm-2.286-.16 2.286.16.01-.15-2.285-.16-.01.15Zm.08.425v-.5h-.15v.5h.15Zm2.206-.236-2.286.16.01.15 2.286-.16-.01-.15Zm.013-.014a.014.014 0 0 1-.013.014l.01.15a.164.164 0 0 0 .153-.164h-.15Zm-3.66 3.775a.164.164 0 0 0 .165-.153l-.15-.01a.014.014 0 0 1-.014.013v.15Zm-.163-.153a.164.164 0 0 0 .164.153v-.15a.014.014 0 0 1-.014-.013l-.15.01Zm-.161-2.285.16 2.285.15-.01-.16-2.285-.15.01Zm.575-.08h-.5v.15h.5v-.15Zm-.086 2.365.16-2.285-.149-.01-.16 2.285.149.01Zm-3.81-3.608a.014.014 0 0 1-.013-.014h-.15c0 .086.066.158.152.164l.011-.15Zm2.285.16-2.285-.16-.01.15 2.285.16.01-.15Zm-.08-.424v.5h.15v-.5h-.15Zm-2.205.235 2.285-.16-.01-.15-2.286.16.011.15Zm-.013.015c0-.008.005-.014.013-.015l-.01-.15a.164.164 0 0 0-.153.165h.15Zm6.399-2.623a.164.164 0 0 0-.224-.012l.096.115a.015.015 0 0 1 .02.001l.108-.104Zm.004.224a.164.164 0 0 0-.004-.224l-.108.104a.014.014 0 0 1 0 .02l.112.1Zm-1.532 1.703 1.532-1.703-.112-.1L13.1 8.155l.112.1Zm-.457-.358.347.36.108-.104-.347-.36-.108.104Zm1.761-1.58-1.755 1.47.096.116 1.755-1.472-.096-.115Zm.027 5.222a.014.014 0 0 1-.001.02l.104.108a.164.164 0 0 0 .012-.224l-.115.096ZM13.07 9.784l1.472 1.755.115-.096-1.472-1.756-.115.097Zm-.25.353.36-.348-.105-.108-.36.348.105.108Zm1.701 1.422-1.703-1.532-.1.111 1.703 1.533.1-.112Zm.02 0a.014.014 0 0 1-.02 0l-.1.112a.164.164 0 0 0 .224-.004l-.104-.108Zm-5.282.014c.06.063.157.068.224.012l-.097-.115a.014.014 0 0 1-.02 0l-.107.103Zm-.004-.224a.164.164 0 0 0 .004.224l.108-.104a.014.014 0 0 1 0-.02l-.112-.1Zm1.532-1.703L9.256 11.35l.111.1L10.9 9.747l-.111-.1Zm.457.358-.347-.36-.108.104.347.36.108-.104Zm-1.761 1.581 1.755-1.472-.096-.115-1.756 1.472.097.115Zm-.027-5.223a.014.014 0 0 1 0-.02l-.103-.107a.164.164 0 0 0-.012.224l.115-.097Zm1.472 1.756L9.457 6.362l-.115.097 1.472 1.755.115-.096Zm.25-.353-.36.347.104.108.36-.347-.104-.108Zm-1.7-1.423 1.703 1.532.1-.111L9.578 6.23l-.1.111Zm-.02 0a.014.014 0 0 1 .02 0l.1-.111a.164.164 0 0 0-.224.004l.104.108Zm1.115-.892a.164.164 0 0 0-.095.203l.143-.046a.014.014 0 0 1 .008-.018l-.056-.14Zm.21.08a.164.164 0 0 0-.21-.08l.056.139a.014.014 0 0 1 .018.007l.135-.066Zm1.004 2.059L10.782 5.53l-.135.066 1.006 2.059.134-.066Zm-.503.29.464-.188-.056-.139-.464.188.056.139Zm-.806-2.226.707 2.18.143-.047-.707-2.18-.143.047Zm4.897 1.931a.014.014 0 0 1 .018.008l.139-.056a.164.164 0 0 0-.204-.095l.047.143Zm-2.18.707 2.18-.707-.046-.143-2.18.707.047.143Zm.234.364-.187-.463-.139.056.187.463.14-.056Zm1.957-1.044-2.06 1.005.067.135 2.058-1.005-.065-.135Zm.007-.019a.014.014 0 0 1-.007.019l.065.135a.164.164 0 0 0 .08-.21l-.138.056Zm-1.966 4.86a.164.164 0 0 0 .095-.204l-.143.046a.014.014 0 0 1-.008.018l.056.14Zm-.21-.08c.038.077.13.112.21.08l-.056-.14a.014.014 0 0 1-.019-.007l-.135.066Zm-1.005-2.06 1.005 2.06.135-.067-1.005-2.058-.135.065Zm.503-.29-.463.188.056.14.463-.188-.056-.14Zm.807 2.226-.707-2.179-.143.046.707 2.18.143-.047Zm-4.897-1.93a.014.014 0 0 1-.018-.01l-.139.057c.032.08.121.121.203.095l-.046-.143Zm2.179-.708-2.18.707.047.143 2.18-.707-.047-.143Zm-.234-.364.188.464.139-.057-.188-.463-.139.056ZM8.614 10.29l2.059-1.005-.066-.134-2.059 1.005.066.134Zm-.007.019a.014.014 0 0 1 .007-.018l-.066-.135a.164.164 0 0 0-.08.209l.14-.056Zm4.881-4.834a.164.164 0 0 0-.21.077l.133.068a.014.014 0 0 1 .019-.007l.058-.138Zm.091.205a.164.164 0 0 0-.09-.205l-.06.138a.015.015 0 0 1 .009.018l.141.049Zm-.745 2.166.745-2.166-.141-.049-.745 2.167.142.048Zm-.56-.15.46.195.059-.138-.46-.195-.059.138Zm1.004-2.144-1.041 2.04.133.069 1.041-2.041-.133-.068Zm2.083 4.797c.007.003.01.011.007.018l.138.059a.164.164 0 0 0-.076-.21l-.069.133Zm-2.04-1.041 2.04 1.04.069-.133-2.041-1.04-.068.133Zm-.093.423.196-.46-.138-.06-.196.461.138.059Zm2.122.644-2.166-.745-.049.142 2.166.745.05-.142Zm.018-.008a.014.014 0 0 1-.018.008l-.049.142a.164.164 0 0 0 .205-.091l-.138-.059Zm-4.857 2.06c.08.033.172 0 .211-.077l-.133-.069a.014.014 0 0 1-.019.007l-.059.138Zm-.09-.206a.165.165 0 0 0 .09.205l.06-.138a.014.014 0 0 1-.009-.018l-.142-.049Zm.744-2.166-.745 2.166.142.05.745-2.167-.142-.05Zm.56.15-.46-.195-.058.138.46.196.059-.138Zm-1.003 2.145 1.041-2.041-.133-.068-1.042 2.04.134.069ZM8.638 7.552a.014.014 0 0 1-.006-.018l-.139-.059c-.033.08 0 .172.077.211l.068-.134Zm2.041 1.041-2.04-1.04-.069.133 2.04 1.041.069-.134Zm.092-.422-.195.46.138.059.195-.46-.138-.06ZM8.65 7.526l2.167.745.049-.142-2.167-.745-.049.142Zm-.017.008a.014.014 0 0 1 .017-.008l.05-.142a.164.164 0 0 0-.206.091l.139.059Z"/><path fill="#FFC125" fill-rule="evenodd" stroke="#984111" stroke-width=".15" d="M12 10.382c.8 0 1.45-.641 1.45-1.431S12.8 7.52 12 7.52c-.801 0-1.45.64-1.45 1.43 0 .79.649 1.432 1.45 1.432Z" clip-rule="evenodd"/><path fill="#984111" d="m11.86 8.577-.094-.06a.604.604 0 0 0-.14-.07.207.207 0 0 0-.06-.011c-.088 0-.213.055-.37.167l-.06-.08c.174-.123.316-.186.43-.186.03 0 .06.005.091.015.05.016.101.042.163.081l.093.06c.022.014.036.02.036.02.12 0 .127.428.042.559a.375.375 0 0 1-.087.093l-.065.048c-.03.023-.039.036-.039.052 0 .003.036.012.116.008.016 0 .032-.002.055-.004a.966.966 0 0 1 .083-.005v.1a.94.94 0 0 0-.075.004l-.058.003c-.141.007-.221-.013-.221-.106 0-.054.026-.09.077-.13l.065-.047a.278.278 0 0 0 .065-.069.567.567 0 0 0 .04-.255.687.687 0 0 0-.02-.154.243.243 0 0 1-.067-.033Z"/><path fill="#984111" fill-rule="evenodd" d="M12.264 8.543c-.022.014-.045.03-.054.034a.242.242 0 0 1-.067.033.695.695 0 0 0-.02.154.567.567 0 0 0 .04.255.278.278 0 0 0 .066.069 2.607 2.607 0 0 0 .064.047c.051.04.077.076.077.13 0 .093-.08.113-.22.106a1.97 1.97 0 0 1-.058-.003.94.94 0 0 0-.075-.005v-.099c.018 0 .026.001.082.005l.055.004c.08.004.116-.005.116-.008 0-.016-.009-.03-.038-.052l-.02-.014a2.363 2.363 0 0 1-.045-.034.373.373 0 0 1-.088-.093c-.084-.131-.077-.558.042-.558h.001l.035-.02.05-.032.043-.029a.694.694 0 0 1 .163-.08.306.306 0 0 1 .091-.016c.114 0 .256.063.43.186l-.059.08c-.158-.112-.282-.167-.37-.167a.207.207 0 0 0-.062.01.604.604 0 0 0-.139.07 4.867 4.867 0 0 0-.04.027Zm-.118.06-.001.002v-.001l.001-.001Z" clip-rule="evenodd"/><path fill="#984111" d="m11.74 9.525.034.067-.034-.067Zm.526.002.039-.064-.039.064Zm.069.041.061.043.046-.066-.069-.041-.038.064Zm-.046.066-.062-.043.062.043Zm-.572.007.057-.049-.057.05Zm-.063-.073-.033-.067-.086.043.063.073.056-.049Zm.26.053-.016-.073-.17.038.145.097.042-.062Zm.188 0 .047.058.12-.096-.15-.036-.017.073Zm-.366-.036L11.7 9.52l-.077.043.055.069.058-.047Zm.525 0 .064.04.039-.061-.06-.041-.043.062Zm-.628-.113.04.064-.04-.064Zm.74.008-.047.059.046-.06Zm.034.026.046-.059-.046.06Zm.052.041.065.038.034-.057-.053-.04-.046.059Zm-.034.057.064.039-.064-.039Zm-.022.037-.065-.038.065.038Zm-.805.01-.06.046.06-.045Zm-.032-.042.06-.045-.06.045Zm-.048-.066-.04-.063-.07.043.05.065.06-.045Zm.07-.043.039.064-.04-.064Zm.424-.114a.676.676 0 0 0-.305.072l.067.134a.526.526 0 0 1 .238-.056v-.15Zm.293.077a.56.56 0 0 0-.293-.077v.15a.41.41 0 0 1 .215.055l.078-.128Zm.068.04-.068-.04-.078.128.07.042.076-.13Zm-.022.174.045-.066-.123-.086-.046.066.124.086Zm-.34.203c.147 0 .258-.086.34-.203l-.124-.086c-.065.095-.137.14-.215.14v.15Zm-.351-.19c.094.11.211.19.352.19v-.15c-.079 0-.158-.044-.238-.138l-.114.098Zm-.063-.073.063.073.114-.098-.063-.073-.114.098Zm.11-.159-.086.043.067.134.086-.043-.067-.134Zm.305.122a.099.099 0 0 1-.055-.021l-.085.124a.248.248 0 0 0 .14.047v-.15Zm.043-.018a.09.09 0 0 1-.026.015.049.049 0 0 1-.017.003v.15a.215.215 0 0 0 .137-.051l-.094-.117Zm-.043.124c.027 0 .051.002.072.007l.035-.146a.465.465 0 0 0-.107-.011v.15Zm-.081.008a.372.372 0 0 1 .08-.008v-.15a.522.522 0 0 0-.113.012l.033.146Zm.08-.015c-.055 0-.128-.03-.216-.14l-.117.093c.103.13.215.197.334.197v-.15Zm.187-.135c-.069.107-.132.135-.186.135v.15c.121 0 .226-.07.313-.204l-.127-.081Zm-.186.043a.35.35 0 0 1 .207.06l.085-.124a.504.504 0 0 0-.292-.086v.15Zm-.24.064a.481.481 0 0 1 .24-.064v-.15a.63.63 0 0 0-.312.083l.073.13Zm.24-.364a.786.786 0 0 0-.419.121l.08.128a.636.636 0 0 1 .339-.1v-.15Zm.406.133a.649.649 0 0 0-.406-.133v.15a.5.5 0 0 1 .314.102l.092-.119Zm.035.027-.035-.027-.092.119.035.027.091-.119Zm.052.04-.053-.04-.091.119.052.04.092-.118Zm-.016.156.034-.058-.128-.076-.034.057.128.077Zm-.022.037.022-.037-.128-.077-.023.037.13.077Zm-.455.299c.201 0 .351-.126.455-.3l-.129-.076c-.088.148-.198.226-.326.226v.15Zm-.474-.282c.123.164.28.282.474.282v-.15c-.127 0-.245-.076-.354-.222l-.12.09Zm-.032-.043.032.043.12-.09-.031-.043-.12.09Zm-.049-.066.05.066.12-.09-.05-.065-.12.09Zm.09-.151-.069.043.079.127.07-.043-.08-.127Zm.046-.029-.045.029.079.127.045-.028-.079-.128Zm-.303-.835-.032-.068.033.068Zm0 .305-.032.067.033-.067Zm.419 0 .033.067-.033-.067Zm0-.305-.032.067.032-.067Zm-.38.152-.053-.054-.056.054.056.054.052-.054Zm.026.018.033-.068-.033.067Zm0-.035-.032-.068.032.068Zm.29 0 .032-.068-.033.068Zm.026.017.052.054.056-.054-.056-.054-.052.054Zm-.027.018.033.067-.033-.068Zm.647-.17.032.067-.032-.067Zm0 .305.032-.068-.032.068Zm.418 0-.032-.068.032.068Zm0-.305-.032.067.032-.067Zm-.38.152-.053-.054-.056.054.056.054.052-.054Zm.026.018-.032.067.032-.068Zm0-.035-.032-.068.032.068Zm.29 0 .032-.068-.033.068Zm.026.017.052.054.056-.054-.056-.054-.052.054Zm-.027.018.033.067-.033-.068Zm-1.321-.103a.42.42 0 0 1 .177-.035v-.15a.568.568 0 0 0-.242.05l.065.135Zm-.073.085c0-.032.027-.063.073-.085l-.065-.135c-.058.028-.158.096-.158.22h.15Zm.073.085c-.046-.022-.073-.052-.073-.085h-.15c0 .125.1.192.158.22l.065-.135Zm.177.035a.42.42 0 0 1-.177-.035l-.065.135a.56.56 0 0 0 .242.05v-.15Zm.177-.035a.42.42 0 0 1-.177.035v.15a.568.568 0 0 0 .242-.05l-.065-.135Zm.073-.085c0 .033-.027.063-.073.085l.065.135c.058-.028.158-.095.158-.22h-.15Zm-.073-.085c.046.022.073.053.073.085h.15c0-.124-.1-.192-.159-.22l-.064.135Zm-.177-.035a.42.42 0 0 1 .177.035l.065-.135a.568.568 0 0 0-.242-.05v.15Zm-.224.174a.201.201 0 0 0 .047.031l.065-.135c-.01-.005-.01-.007-.008-.004l-.104.108Zm.047-.139a.177.177 0 0 0-.047.031l.104.108c-.003.003-.002.001.008-.003l-.065-.136Zm.177-.035a.42.42 0 0 0-.177.035l.065.136c.02-.01.06-.02.112-.02v-.15Zm.177.035a.42.42 0 0 0-.177-.035v.15c.051 0 .09.01.112.02l.065-.135Zm.046.031a.177.177 0 0 0-.046-.03l-.065.135c.01.004.01.006.007.003l.104-.108Zm-.046.14c.02-.01.035-.02.046-.032l-.104-.108c.003-.003.002 0-.007.004l.065.135Zm-.177.034a.42.42 0 0 0 .177-.035l-.065-.135a.275.275 0 0 1-.112.02v.15Zm-.177-.035a.42.42 0 0 0 .177.035v-.15a.274.274 0 0 1-.112-.02l-.065.135Zm1-.17a.42.42 0 0 1 .177-.035v-.15a.568.568 0 0 0-.242.05l.065.135Zm-.073.085c0-.032.027-.063.073-.085l-.065-.135c-.058.028-.158.096-.158.22h.15Zm.073.085c-.046-.022-.073-.052-.073-.085h-.15c0 .125.1.192.158.22l.065-.135Zm.177.035a.42.42 0 0 1-.177-.035l-.065.135a.56.56 0 0 0 .242.05v-.15Zm.177-.035a.42.42 0 0 1-.177.035v.15a.568.568 0 0 0 .242-.05l-.065-.135Zm.073-.085c0 .033-.027.063-.073.085l.065.135c.058-.028.158-.095.158-.22h-.15Zm-.073-.085c.046.022.073.053.073.085h.15c0-.124-.1-.192-.159-.22l-.064.135Zm-.177-.035a.42.42 0 0 1 .177.035l.065-.135a.568.568 0 0 0-.242-.05v.15Zm-.224.174a.201.201 0 0 0 .047.031l.065-.135c-.01-.005-.01-.007-.008-.004l-.104.108Zm.047-.139a.177.177 0 0 0-.047.031l.104.108c-.003.003-.002.001.008-.003l-.065-.136Zm.177-.035a.42.42 0 0 0-.177.035l.065.136c.02-.01.06-.02.112-.02v-.15Zm.177.035a.42.42 0 0 0-.177-.035v.15c.051 0 .09.01.112.02l.065-.135Zm.046.031a.177.177 0 0 0-.046-.03l-.065.135c.01.004.01.006.007.003l.104-.108Zm-.046.14c.02-.01.035-.02.046-.032l-.104-.108c.003-.003.002 0-.007.004l.065.135Zm-.177.034a.42.42 0 0 0 .177-.035l-.065-.135a.275.275 0 0 1-.112.02v.15Zm-.177-.035a.42.42 0 0 0 .177.035v-.15a.274.274 0 0 1-.112-.02l-.065.135Z"/></g><rect width="23" height="17" x=".5" y=".5" stroke="#000" stroke-opacity=".1" rx="1.5"/><defs><clipPath id="a"><rect width="24" height="18" fill="#fff" rx="2"/></clipPath></defs></svg>