<svg xmlns="http://www.w3.org/2000/svg" fill="none" viewBox="0 0 24 18"><g clip-path="url(#a)"><mask id="b" width="24" height="18" x="0" y="0" maskUnits="userSpaceOnUse" style="mask-type:luminance"><path fill="#fff" d="M0 0h24v18H0z"/></mask><g mask="url(#b)"><path fill="#E31D1C" fill-rule="evenodd" d="M0 0v18h24V0z" clip-rule="evenodd"/><mask id="c" width="24" height="18" x="0" y="0" maskUnits="userSpaceOnUse" style="mask-type:luminance"><path fill="#fff" fill-rule="evenodd" d="M0 0v18h24V0z" clip-rule="evenodd"/></mask><g mask="url(#c)"><path fill="#2E42A5" fill-rule="evenodd" d="M0 0v9h24V0z" clip-rule="evenodd"/><path fill="#000" fill-rule="evenodd" d="M3.599 8.29s.905.563 3.002.563 3.21-.563 3.21-.563-1.645-.956-3.115-.956-3.097.956-3.097.956" clip-rule="evenodd"/><path fill="#FFD83D" stroke="#000" stroke-width=".5" d="M8.06 2.4c.53-.132 1.167-.205 1.673.235l.088.083c.416.428.485 1.035.466 1.496a4 4 0 0 1-.13.84l-.014.056-.005.015-.002.005v.002l-.056.175H3.51l-.072-.124.215-.126-.216.125-.001-.002-.003-.005-.01-.016-.03-.057a3.3 3.3 0 0 1-.303-.873 1.8 1.8 0 0 1 .032-.857c.094-.3.293-.572.636-.766l.12-.065c.604-.298 1.151-.244 1.623-.12.24.063.483.152.678.213.207.065.376.105.527.105l.121-.007a3 3 0 0 0 .465-.108c.227-.066.503-.158.769-.224Z"/><path fill="#FFD83D" stroke="#000" stroke-width=".5" d="M6.731 4.45c1.275 0 2.228.164 2.868.33a6.4 6.4 0 0 1 .909.31l.049.024.013.007.005.002h.002v.002l.194.102-.077.206-.888 2.376-.082.22-.226-.069h-.003l-.01-.003-.045-.013-.17-.047a11 11 0 0 0-.619-.144 10 10 0 0 0-1.906-.208c-.7 0-1.402.105-1.932.21a12 12 0 0 0-.815.189q-.03.008-.046.014l-.01.002-.004.001-.226.068-.08-.222-.865-2.376-.075-.205.194-.101v-.001l.002-.001.017-.01.05-.023q.064-.03.186-.078c.162-.064.404-.148.723-.231.64-.167 1.593-.33 2.867-.33Zm-.076-2.957c.467 0 .755.452.755.884s-.288.884-.755.884c-.466 0-.754-.452-.754-.884 0-.431.288-.883.754-.884Z"/><mask id="d" width="3" height="4" x="5.088" y="-1" fill="#000" maskUnits="userSpaceOnUse"><path fill="#fff" d="M5.088-1h3v4h-3z"/><path fill-rule="evenodd" d="M6.845 0h-.378l.048.692-.427-.058v.475l.434-.06-.055 1.09h.378l-.056-1.091.434.061V.634l-.426.061z" clip-rule="evenodd"/></mask><path fill="#FFD83D" fill-rule="evenodd" d="M6.845 0h-.378l.048.692-.427-.058v.475l.434-.06-.055 1.09h.378l-.056-1.091.434.061V.634l-.426.061z" clip-rule="evenodd"/><path fill="#000" d="M6.467 0v-.5H5.93l.038.535zm.378 0 .498.035L7.38-.5h-.535zm-.33.692-.067.495.61.083-.044-.613zM6.088.634l.068-.495L5.588.06v.573zm0 .475h-.5v.574l.569-.078zm.434-.06.5.026.03-.603-.598.082zm-.055 1.09-.5-.025-.026.526h.526zm.378 0v.5h.526l-.027-.525zm-.056-1.091.07-.495-.6-.085.03.606zm.434.061-.07.495.57.081V1.11zm0-.475h.5V.057L7.152.14zm-.426.061-.5-.034-.042.617.613-.088zM6.467.5h.378v-1h-.378zm.547.157-.049-.692-.997.07.048.692zm-.993.472.427.058.135-.99-.427-.058zm.567-.02V.634h-1v.475zM6.454.554l-.434.06.137.99.433-.059zm.512 1.61.055-1.089-.999-.05-.055 1.09zm-.121-.524h-.378v1h.378zm-.556-.566.056 1.091.999-.051-.056-1.092zm1.004-.46L6.859.553l-.14.99.434.061zm-.57.02v.475h1V.634zm.145.556.426-.061-.142-.99L6.726.2zM6.346-.035l-.048.696.997.069.048-.695z" mask="url(#d)"/></g></g></g><rect width="23" height="17" x=".5" y=".5" stroke="#000" stroke-opacity=".1" rx="1.5"/><defs><clipPath id="a"><rect width="24" height="18" fill="#fff" rx="2"/></clipPath></defs></svg>