<svg xmlns="http://www.w3.org/2000/svg" fill="none" viewBox="0 0 24 18"><g clip-path="url(#a)"><mask id="b" width="24" height="18" x="0" y="0" maskUnits="userSpaceOnUse" style="mask-type:luminance"><path fill="#fff" d="M0 0h24v18H0z"/></mask><g mask="url(#b)"><path fill="#2E42A5" fill-rule="evenodd" d="M0 0v18h24V0z" clip-rule="evenodd"/><path fill="#F7FCFF" d="M24 0H0v18h24z"/><path fill="#C00" d="M24 7.5H0v3h24z"/><path fill="#C00" d="M13.5 18V0h-3v18z"/><path fill="#EBEAE3" fill-rule="evenodd" d="M13.087 6.114c.095-.149.038-.245-.106-.274 0 0-.459.147-.954.163-.496.016-1.085-.125-1.085-.125-.106.066-.08.224-.027.322 0 0 .519.172 1.11.155.374-.01.73-.106.93-.17.114-.036.132-.07.132-.07" clip-rule="evenodd"/><path fill="#000" fill-rule="evenodd" d="M12.98 5.831h.003c.073.016.126.048.148.098q.033.076-.037.189l-.002.002-.004.006-.02.017a.4.4 0 0 1-.111.05c-.2.064-.557.16-.933.17a3.5 3.5 0 0 1-1.11-.155h-.002l.002-.008-.002.008-.003-.002-.002-.002a.4.4 0 0 1-.046-.177c0-.062.02-.12.077-.156l.002-.001h.004l-.002.008.002-.008h.001l.005.002.093.02c.063.013.152.03.257.047.208.033.48.064.726.056a3.7 3.7 0 0 0 .947-.161l.004-.002h.003m.001.017h-.003l-.074.023a4 4 0 0 1-.877.14 4 4 0 0 1-.73-.057 6 6 0 0 1-.35-.066l-.004-.001c-.047.031-.066.083-.066.14s.018.118.043.166l.003.001.084.025a3.6 3.6 0 0 0 1.017.128c.374-.01.729-.106.928-.17a.4.4 0 0 0 .107-.047l.02-.018V6.11c.048-.074.056-.132.037-.175q-.03-.064-.135-.087" clip-rule="evenodd"/><path fill="#F7FCFF" d="m12 12.626-.953-1.98-2.19.165 1.238-1.814-1.238-1.814 2.19.164L12 5.368l.953 1.98 2.19-.165-1.238 1.814 1.238 1.814-2.19-.164z"/><path fill="#161111" fill-rule="evenodd" d="m12 5.311.968 2.01 2.224-.167-1.257 1.843 1.257 1.843-2.224-.167-.968 2.01-.967-2.01-2.225.167 1.257-1.843-1.257-1.843 2.225.167zm0 .114-.937 1.948-2.156-.162 1.218 1.786-1.218 1.786 2.156-.162L12 12.57l.938-1.948 2.155.162-1.218-1.786 1.218-1.786-2.155.162z" clip-rule="evenodd"/><path fill="#C00" d="M12.593 9.936c.077-.076.2-.16.269-.342.064-.17.095-.482.153-.64.077-.272.231-.536.048-.518-.175.017-.232.186-.298.31a1 1 0 0 0-.074.21c-.008.035-.009.074-.042.09.048-.412-.067-.72-.106-1.33-.016-.257-.058-.515-.191-.516-.1-.002-.117.13-.133.23 0-.14.005-.436-.162-.436-.204 0-.142.413-.17.622-.004-.074-.007-.233-.028-.336a.16.16 0 0 0-.045-.086q-.018-.017-.056-.017c-.183 0-.18.257-.173.514.002.027 0 .15.002.23 0-.14.001-.413-.144-.401-.122.01-.131.317-.137.48.008.164-.048.545-.068.653-.005.077-.036.177-.049.284-.027.23-.001.5.03.638.06.217.218.315.21.463s0 .408 0 .525.102.123.312.078c.343-.074.53.074.813-.035-.036-.323.047-.554.039-.67"/><path fill="#161111" fill-rule="evenodd" d="M11.926 7.05a.14.14 0 0 1 .13-.08.14.14 0 0 1 .116.058c.026.034.042.08.053.127q.009.046.013.096a.2.2 0 0 1 .037-.049.1.1 0 0 1 .077-.027.13.13 0 0 1 .102.054.4.4 0 0 1 .06.126c.03.1.045.23.054.359.015.244.043.439.068.612l.017.126c.02.15.035.288.032.432l.013-.044a.5.5 0 0 1 .046-.107l.026-.052c.024-.048.05-.1.083-.145a.28.28 0 0 1 .207-.125.13.13 0 0 1 .066.008q.03.014.04.043a.14.14 0 0 1 .007.06.4.4 0 0 1-.013.07q-.02.076-.055.17l-.001.002a3 3 0 0 0-.065.196v.002a2 2 0 0 0-.073.304l-.001.008a2 2 0 0 1-.08.33.76.76 0 0 1-.23.307l-.037.035q0 .045-.009.101l-.008.06-.014.09a1.6 1.6 0 0 0-.008.406l.002.019-.018.007a.8.8 0 0 1-.417.03 1.1 1.1 0 0 0-.4.006.7.7 0 0 1-.245.022.12.12 0 0 1-.072-.041.13.13 0 0 1-.025-.083l-.001-.13a6 6 0 0 1 .002-.396c.003-.065-.03-.12-.076-.19l-.009-.014a.9.9 0 0 1-.126-.252V9.58a2.2 2.2 0 0 1-.03-.646q.012-.08.027-.15l.001-.005q.016-.073.021-.128v-.002c.01-.054.03-.176.045-.304.015-.13.027-.264.023-.343v-.008c.003-.08.007-.197.025-.296a.5.5 0 0 1 .043-.134c.02-.036.05-.065.091-.069a.12.12 0 0 1 .106.048l.012.017c0-.083.004-.162.018-.228a.3.3 0 0 1 .058-.128.16.16 0 0 1 .124-.052q.045 0 .072.023a.17.17 0 0 1 .048.082l.003-.033a.5.5 0 0 1 .045-.174m-.365.775.001.097h.05v-.005l-.002-.093v-.135a1.6 1.6 0 0 1 .014-.346.23.23 0 0 1 .047-.106.11.11 0 0 1 .087-.036q.031.002.04.011c.014.013.03.038.037.073.016.078.02.19.025.271q0 .035.003.061l.049.002a2 2 0 0 0 .01-.188v-.003c0-.067.002-.136.008-.199a.4.4 0 0 1 .04-.155c.02-.036.046-.055.086-.055q.05 0 .077.039a.3.3 0 0 1 .043.107c.018.083.018.183.018.253v.012l.05.004v-.01c.008-.048.016-.098.032-.138a.1.1 0 0 1 .03-.046.06.06 0 0 1 .045-.016m-.79.6a1 1 0 0 0-.016-.155.24.24 0 0 0-.038-.096.07.07 0 0 0-.062-.029q-.03.002-.053.044a.4.4 0 0 0-.037.12c-.018.094-.021.208-.024.29V8c.004.085-.009.222-.024.35a6 6 0 0 1-.045.306q-.006.061-.022.133v.004q-.016.07-.026.147c-.027.226-.002.493.028.629a.8.8 0 0 0 .12.238l.008.012c.046.07.088.137.084.22a7 7 0 0 0-.002.39l.002.134q0 .038.014.053.011.015.043.022.068.013.224-.021c.166-.036.297-.021.416-.008l.021.003a.75.75 0 0 0 .356-.023 1.7 1.7 0 0 1 .01-.399l.014-.093.008-.056a.5.5 0 0 0 .008-.104v-.011l.007-.008.05-.046a.7.7 0 0 0 .213-.286 2 2 0 0 0 .078-.321l.002-.012c.023-.114.045-.228.074-.307q.031-.104.065-.199.036-.095.055-.167a.4.4 0 0 0 .012-.062.1.1 0 0 0-.004-.038.03.03 0 0 0-.014-.016.1.1 0 0 0-.041-.004.24.24 0 0 0-.172.105 1 1 0 0 0-.077.134q-.014.03-.03.058v.002a.4.4 0 0 0-.04.096 1 1 0 0 0-.03.107l-.004.018-.002.008-.007.028a.1.1 0 0 1-.043.052l-.04.02.004-.045c.024-.203.008-.38-.02-.584l-.017-.125a8 8 0 0 1-.069-.617 1.7 1.7 0 0 0-.05-.348.3.3 0 0 0-.052-.109q-.029-.035-.065-.036" clip-rule="evenodd"/><path fill="#C00" d="M12.4 9.363c.072-.196.162-.273.248-.316z"/><path fill="#161111" fill-rule="evenodd" d="M12.66 9.07c-.081.039-.167.11-.236.301l-.046-.017c.073-.2.166-.283.26-.329z" clip-rule="evenodd"/><path fill="#C00" d="M12.53 10.038c.006-.04.031-.072.066-.106z"/><path fill="#161111" fill-rule="evenodd" d="M12.613 9.95c-.034.033-.054.06-.059.092l-.049-.008a.22.22 0 0 1 .074-.12z" clip-rule="evenodd"/><path fill="#C00" d="M11.587 7.871c.005.174.015.507.015.587z"/><path fill="#161111" fill-rule="evenodd" d="m11.566 8.007-.004-.135.05-.001.003.133c.005.175.012.391.012.454h-.05c0-.062-.006-.277-.011-.451" clip-rule="evenodd"/><path fill="#C00" d="M12.221 7.398c-.01.092.002.166 0 .26-.002.063.008.178.017.318-.002.05.015.302-.001.396"/><path fill="#161111" fill-rule="evenodd" d="M12.193 7.528a1 1 0 0 1 .004-.133l.049.005a1 1 0 0 0-.003.154q.003.049.002.105 0 .064.009.19l.008.126v.002l.002.09.003.09c.002.08.003.17-.006.219l-.048-.009a1.4 1.4 0 0 0 .005-.209l-.005-.182-.008-.12a3 3 0 0 1-.01-.198q.002-.053 0-.102z" clip-rule="evenodd"/><path fill="#C00" d="M11.887 7.57q.003.053.004.122c.008.222.003.553.01.714"/><path fill="#161111" fill-rule="evenodd" d="M11.866 7.642q0-.038-.003-.07l.049-.004q.003.035.003.076l.001.047c.004.112.005.25.005.38v.017c0 .124.001.24.004.317l-.049.002a10 10 0 0 1-.004-.318v-.017a13 13 0 0 0-.006-.43" clip-rule="evenodd"/><path fill="#B02320" fill-rule="evenodd" d="M11.986 5.361c1.196.198 1.153.254 1.153.254l.313-.934s.033-.184-.053-.296-.325-.05-.325-.05-.033-.15-.138-.187c-.105-.036-.497.142-.618.181-.122.04-.184.079-.355.076s-.477-.155-.533-.184a.45.45 0 0 0-.214-.056c-.075.003-.154.023-.194.075-.04.053-.04.119-.04.119s-.061-.04-.16-.04-.155.013-.2.066a1 1 0 0 0-.106.2l.112.254.006.348.234.368z" clip-rule="evenodd"/><path fill="#000" fill-rule="evenodd" d="M12.883 4.124a.2.2 0 0 1 .06.005c.06.021.097.074.12.118a.4.4 0 0 1 .023.058l.002.007a1 1 0 0 1 .116-.014.4.4 0 0 1 .114.013c.037.01.073.03.098.062.046.06.06.14.062.201a1 1 0 0 1-.006.108v.002l-.02-.003.02.003v.002l-.313.934v.002l-.002.003v.001h-.001l-.016-.011.016.012-.035-.019-.001.005.002.01h.001l-.005-.003a.6.6 0 0 0-.112-.039 11 11 0 0 0-1.02-.2l-1.128.197-.243-.385-.007-.35-.113-.257.003-.008v-.002l.003-.004.033-.075a.6.6 0 0 1 .072-.125c.053-.06.116-.073.216-.073a.4.4 0 0 1 .144.029l.003-.013a.2.2 0 0 1 .038-.087.2.2 0 0 1 .093-.063.41.41 0 0 1 .34.038c.027.014.117.06.221.101a1 1 0 0 0 .302.08.7.7 0 0 0 .278-.05l.07-.024.13-.048.003-.002.182-.069q.098-.034.182-.055zm-1.91.252-.003-.001-.037-.017a.3.3 0 0 0-.11-.019c-.098 0-.146.014-.186.06a.6.6 0 0 0-.067.115l-.025.056-.007.015.11.25.007.346.223.352 1.108-.192h.003c.599.1.888.163 1.028.202.06.016.094.029.113.038l.303-.905V4.67a.4.4 0 0 0 .005-.094.3.3 0 0 0-.054-.179.14.14 0 0 0-.077-.047.4.4 0 0 0-.102-.011.6.6 0 0 0-.116.014l-.008.002h-.001l-.021.006-.005-.02v-.002l-.001-.005-.005-.016a.4.4 0 0 0-.021-.053c-.021-.041-.052-.082-.097-.098a.1.1 0 0 0-.044-.003l-.07.011a2 2 0 0 0-.176.054l-.182.069-.004.002a3 3 0 0 1-.198.072c-.083.03-.154.056-.293.053a1 1 0 0 1-.317-.084 3 3 0 0 1-.225-.102.4.4 0 0 0-.203-.054.4.4 0 0 0-.105.018.15.15 0 0 0-.074.05.2.2 0 0 0-.035.096v.046z" clip-rule="evenodd"/><path fill="#EBEAE3" fill-rule="evenodd" d="M13.101 5.889s.06.072.058.097-.028.049-.028.049.019.018.014.046-.041.03-.041.03.007.026-.017.037c-.023.012-.118.033-.118.033s-.463-.132-.96-.132c-.495 0-1.08.16-1.08.16s-.06-.021-.062-.06a.2.2 0 0 1 .007-.068s-.033.004-.041-.025a.1.1 0 0 1 .004-.072s-.023.007.002-.046c.02-.04.047-.054.047-.054s.519-.185 1.11-.188a3.3 3.3 0 0 1 1.105.193" clip-rule="evenodd"/><path fill="#000" fill-rule="evenodd" d="M12.769 5.798a3.4 3.4 0 0 0-.773-.093 3.6 3.6 0 0 0-1.101.185l-.005.001h-.001l-.003.003-.01.008a.1.1 0 0 0-.029.039l-.01.028-.001.007.018-.006-.01.018q0 .003-.002.004l-.004.014a.1.1 0 0 0 .003.047.03.03 0 0 0 .018.019l.014.001.013-.001m-.004.012-.001.004-.003.013a.2.2 0 0 0-.002.047c0 .016.013.029.028.039l.027.013h.004l.02-.006a4 4 0 0 1 .328-.073c.208-.04.478-.08.727-.08a3.8 3.8 0 0 1 .956.13l.004.002h.002l.01-.003.102-.029a.02.02 0 0 0 .012-.017v-.01l-.002-.01h.01l.004-.001.012-.004q.014-.005.018-.02a.05.05 0 0 0-.005-.028l-.007-.01-.006-.006.006-.006h.001q0-.002.003-.004l.008-.01a.1.1 0 0 0 .013-.03l-.001-.008-.006-.013a.3.3 0 0 0-.04-.058l-.006-.009-.002-.002-.02-.008-.067-.023a3 3 0 0 0-.24-.066m.373.237a.07.07 0 0 1 .011.048.04.04 0 0 1-.027.031l-.013.004v.009a.04.04 0 0 1-.022.029l-.03.01-.086.022h-.003l-.003-.007-.002.008h-.001l-.004-.002-.075-.019a4 4 0 0 0-.877-.111c-.247 0-.517.04-.724.08a6 6 0 0 0-.328.073l-.02.005-.004.001h-.001l-.003-.007-.002.007h-.001l-.01-.004-.022-.012c-.015-.01-.034-.027-.035-.051a.2.2 0 0 1 .002-.05l.002-.01-.01-.002a.04.04 0 0 1-.029-.029.1.1 0 0 1 .001-.068l-.004-.005q-.004-.008-.001-.02l.011-.03a.14.14 0 0 1 .05-.058l.004.007-.003-.007h.002l.004-.002.085-.027a3.8 3.8 0 0 1 1.022-.16 3.4 3.4 0 0 1 1.112.196l.002.003.028.036a.3.3 0 0 1 .027.05q.003.007.003.014a.1.1 0 0 1-.017.038zm-2.256-.15-.003-.008zm.044.324-.002.007.002.001h.002zm2.04-.028-.003.008h.004zm-2.214-1.617a.1.1 0 0 0-.07.041.13.13 0 0 0-.022.102l.001.007v.002l-.016.005-.017.005-.001-.004-.002-.01-.002-.032c0-.027.007-.062.031-.096a.14.14 0 0 1 .092-.055.14.14 0 0 1 .077.006q.022.013.028.03l.002.002c.005.008.008.012.018.015q.016.002.027-.004l.01-.007h.001l.013.012.012.012v.001l-.002.001-.018.013a.1.1 0 0 1-.052.006.06.06 0 0 1-.04-.03l-.002-.004q-.006-.011-.013-.015a.1.1 0 0 0-.055-.003" clip-rule="evenodd"/><path fill="#FC0" fill-opacity=".941" fill-rule="evenodd" d="m13.538 4.879-.18.372-.07.012s-.043-.026-.166-.017c-.088.006-.114.028-.114.028l.16-.37s.012.08.03.126c.024.06.114.116.114.116s.012-.072-.012-.158a2 2 0 0 0-.086-.224z" clip-rule="evenodd"/><path fill="#000" fill-rule="evenodd" d="m13.178 4.731.386.137-.193.4-.087.015-.006-.004a.1.1 0 0 0-.03-.01.46.46 0 0 0-.226.018l-.003.002-.028-.022.185-.43.01.064v.003l.002.01a1 1 0 0 0 .028.11.2.2 0 0 0 .06.072l.02.016v-.013a.4.4 0 0 0-.014-.106 1.3 1.3 0 0 0-.075-.2l-.008-.016-.002-.004v-.001zm.133.414-.01.016-.004-.003-.045-.034a.25.25 0 0 1-.07-.087l-.021-.07-.118.273a.5.5 0 0 1 .243.002l.005.002.055-.01.167-.345-.265-.093.016.037c.019.044.04.101.054.15a.4.4 0 0 1 .012.162v.003zm0 0-.01.016.024.015.005-.027z" clip-rule="evenodd"/><path fill="#121116" d="M12.093 3.723h-.201v.855h.2z"/><path fill="#121116" fill-rule="evenodd" d="M11.874 3.723q.001-.016.018-.018h.2q.017.002.019.018v.855q-.001.016-.018.018h-.201a.02.02 0 0 1-.018-.018zm.036.018v.82h.165v-.82z" clip-rule="evenodd"/><path fill="#F6CA1F" fill-rule="evenodd" d="m10.66 5.3.128.276s.55-.214 1.2-.21c.973.006 1.249.201 1.249.201l.144-.342-.108.063-.111.069-.126.048-.153-.012-.136-.1-.069-.143-.114.105-.201.045-.199-.051-.174-.22s-.13.244-.294.259c-.238.02-.376-.114-.376-.114s-.088.198-.234.234c-.232.057-.424-.108-.427-.108" clip-rule="evenodd"/><path fill="#000" fill-rule="evenodd" d="m11.988 5.002.185.233.19.05.194-.044.126-.117.077.16.128.094.146.012.121-.047.11-.068.148-.086-.17.402-.015-.011-.002-.002-.01-.006-.043-.021a1.3 1.3 0 0 0-.2-.067c-.189-.05-.5-.1-.986-.103a3.5 3.5 0 0 0-1.187.207l-.005.002h-.001l-.013.006-.146-.311h.03l.002.002h.002l.002.002.003.002.004.004a1 1 0 0 0 .115.066c.076.034.178.06.29.032a.3.3 0 0 0 .163-.125.6.6 0 0 0 .06-.098v-.002l.01-.02.015.015.001.001.005.004.018.014a.5.5 0 0 0 .34.09c.075-.006.146-.066.198-.129a1 1 0 0 0 .078-.11l.004-.008.002-.002zm.004.055-.012.02a1 1 0 0 1-.064.086c-.053.063-.13.132-.219.14a.54.54 0 0 1-.372-.105l-.007.015-.048.074a.35.35 0 0 1-.18.136.48.48 0 0 1-.31-.034 1 1 0 0 1-.083-.044l.1.212.011-.004q.025-.01.072-.025.095-.032.26-.073c.22-.053.521-.106.847-.104.488.003.802.053.994.103a1.3 1.3 0 0 1 .249.091l.12-.284-.069.04-.112.07-.13.05-.162-.013-.142-.104-.061-.129-.102.094-.21.047-.206-.054z" clip-rule="evenodd"/><path fill="#EEE" d="M12.878 3.615a.105.105 0 0 1-.104.105.105.105 0 0 1-.104-.105.104.104 0 1 1 .208-.001"/><path fill="#1E1E1E" fill-rule="evenodd" d="M12.86 3.614a.087.087 0 0 0-.086-.086.087.087 0 0 0-.085.087c0 .048.038.087.085.087a.087.087 0 0 0 .086-.087h.036a.123.123 0 0 1-.122.123.123.123 0 0 1-.122-.123c0-.068.054-.123.122-.124.067 0 .122.055.122.123z" clip-rule="evenodd"/><path fill="#A3AFB8" fill-rule="evenodd" d="M12.726 3.669s.084-.001.093-.036a.2.2 0 0 0-.006-.078s.04.044.028.078c-.011.035-.022.043-.05.05a.1.1 0 0 1-.065-.014" clip-rule="evenodd"/><path fill="#EEE" d="M12.626 3.733a.105.105 0 0 1-.104.105.105.105 0 0 1-.104-.105.104.104 0 1 1 .208-.001"/><path fill="#1E1E1E" fill-rule="evenodd" d="M12.608 3.732a.087.087 0 0 0-.087-.086.087.087 0 0 0-.085.087c0 .048.039.087.086.087a.087.087 0 0 0 .086-.087h.036a.123.123 0 0 1-.122.123.123.123 0 0 1-.122-.123c0-.068.054-.123.121-.124.068 0 .122.055.123.123z" clip-rule="evenodd"/><path fill="#A3AFB8" fill-rule="evenodd" d="M12.474 3.787s.084-.001.092-.036a.2.2 0 0 0-.006-.078s.04.044.029.078c-.011.035-.023.043-.051.05a.1.1 0 0 1-.064-.014" clip-rule="evenodd"/><path fill="#EEE" d="M13.171 3.546a.104.104 0 0 1-.103.105.105.105 0 0 1-.105-.105c0-.058.046-.105.104-.106.057 0 .104.047.104.105"/><path fill="#1E1E1E" fill-rule="evenodd" d="M13.153 3.545a.087.087 0 0 0-.086-.087.087.087 0 0 0-.086.088c0 .048.04.087.086.087a.087.087 0 0 0 .086-.087h.036a.123.123 0 0 1-.121.123.123.123 0 0 1-.123-.123c0-.068.054-.123.121-.124.068 0 .123.055.123.123z" clip-rule="evenodd"/><path fill="#A3AFB8" fill-rule="evenodd" d="M13.019 3.6s.084-.002.092-.036c.01-.034-.005-.078-.005-.078s.04.044.028.078c-.011.034-.022.043-.05.05a.1.1 0 0 1-.065-.014" clip-rule="evenodd"/><path fill="#EEE" d="M13.501 3.612a.105.105 0 0 1-.103.105.105.105 0 0 1-.104-.104.104.104 0 1 1 .207-.002"/><path fill="#1E1E1E" fill-rule="evenodd" d="M13.483 3.611a.087.087 0 0 0-.086-.086.087.087 0 0 0-.085.087c0 .049.038.087.086.087a.087.087 0 0 0 .085-.087h.036a.123.123 0 0 1-.121.123.123.123 0 0 1-.123-.122.122.122 0 1 1 .244-.002z" clip-rule="evenodd"/><path fill="#A3AFB8" fill-rule="evenodd" d="M13.35 3.666s.083-.001.092-.035c.008-.035-.006-.079-.006-.079s.04.044.028.079c-.011.034-.022.043-.05.05a.1.1 0 0 1-.065-.015" clip-rule="evenodd"/><path fill="#EEE" d="M13.753 3.82a.105.105 0 0 1-.104.105.105.105 0 0 1-.104-.105c0-.058.046-.106.104-.106s.104.046.104.105"/><path fill="#1E1E1E" fill-rule="evenodd" d="M13.735 3.819a.087.087 0 0 0-.086-.087.087.087 0 0 0-.085.088c0 .048.038.087.085.087a.087.087 0 0 0 .086-.088h.036a.123.123 0 0 1-.122.124.123.123 0 0 1-.122-.123c0-.068.054-.124.122-.124.067 0 .122.055.122.122z" clip-rule="evenodd"/><path fill="#A3AFB8" fill-rule="evenodd" d="M13.601 3.873s.084-.001.093-.035-.006-.078-.006-.078.04.044.028.078c-.011.034-.022.043-.05.05a.1.1 0 0 1-.065-.015" clip-rule="evenodd"/><path fill="#EEE" d="M13.862 4.16a.105.105 0 0 1-.104.105.105.105 0 0 1-.104-.105c0-.058.046-.106.103-.106s.104.046.105.105"/><path fill="#1E1E1E" fill-rule="evenodd" d="M13.844 4.159a.087.087 0 0 0-.087-.087.087.087 0 0 0-.085.088c0 .048.039.087.086.087a.087.087 0 0 0 .086-.088h.036a.123.123 0 0 1-.122.124.123.123 0 0 1-.122-.123c0-.068.054-.124.121-.124s.122.055.123.122z" clip-rule="evenodd"/><path fill="#A3AFB8" fill-rule="evenodd" d="M13.71 4.213s.083-.001.092-.035-.006-.078-.006-.078.04.044.029.078c-.012.034-.023.043-.051.05a.1.1 0 0 1-.064-.015" clip-rule="evenodd"/><path fill="#EEE" d="M13.822 4.504a.105.105 0 0 1-.104.105.105.105 0 0 1-.104-.105c0-.058.046-.105.103-.106.057 0 .104.047.104.105"/><path fill="#1E1E1E" fill-rule="evenodd" d="M13.804 4.503a.087.087 0 0 0-.087-.087.087.087 0 0 0-.085.088c0 .048.039.087.086.087a.087.087 0 0 0 .085-.087h.037a.123.123 0 0 1-.122.123.123.123 0 0 1-.122-.123c0-.068.053-.123.12-.124.068 0 .123.055.124.123z" clip-rule="evenodd"/><path fill="#A3AFB8" fill-rule="evenodd" d="M13.67 4.558s.083-.002.092-.036-.006-.078-.006-.078.04.044.029.078c-.012.034-.023.043-.052.05a.1.1 0 0 1-.064-.014" clip-rule="evenodd"/><path fill="#EEE" d="M13.668 4.805a.105.105 0 0 1-.103.106.104.104 0 0 1-.104-.105c0-.058.045-.105.103-.106.057 0 .104.047.104.105"/><path fill="#1E1E1E" fill-rule="evenodd" d="M13.65 4.805a.087.087 0 0 0-.086-.087.087.087 0 0 0-.085.088c0 .048.038.087.086.087a.087.087 0 0 0 .085-.088h.036a.123.123 0 0 1-.121.124.123.123 0 0 1-.123-.123c0-.068.054-.124.122-.124.067 0 .122.055.122.122z" clip-rule="evenodd"/><path fill="#A3AFB8" fill-rule="evenodd" d="M13.516 4.86s.084-.002.093-.036-.006-.078-.006-.078.04.044.028.078c-.011.034-.022.043-.05.05a.1.1 0 0 1-.065-.014" clip-rule="evenodd"/><path fill="#EEE" d="M12.38 3.823a.105.105 0 0 1-.103.106.105.105 0 0 1-.104-.105c0-.058.046-.105.103-.106.057 0 .104.047.105.105"/><path fill="#1E1E1E" fill-rule="evenodd" d="M12.363 3.823a.087.087 0 0 0-.087-.087.087.087 0 0 0-.085.088c0 .048.039.087.086.087a.087.087 0 0 0 .086-.088h.036a.123.123 0 0 1-.122.124.123.123 0 0 1-.122-.123c0-.068.054-.124.121-.124.068 0 .122.055.123.122z" clip-rule="evenodd"/><path fill="#A3AFB8" fill-rule="evenodd" d="M12.229 3.878s.084-.002.092-.036a.2.2 0 0 0-.006-.078s.04.044.029.078c-.012.034-.023.043-.051.05a.1.1 0 0 1-.064-.014" clip-rule="evenodd"/><path fill="#EEE" d="M12.066 3.796a.087.087 0 0 1-.086.088.087.087 0 0 1-.087-.087c0-.049.038-.088.086-.089.048 0 .087.04.087.088"/><path fill="#1E1E1E" fill-rule="evenodd" d="M12.048 3.796a.07.07 0 0 0-.069-.07.07.07 0 0 0-.068.07c0 .04.03.07.069.07a.07.07 0 0 0 .068-.07h.036a.106.106 0 0 1-.104.106.106.106 0 0 1-.106-.105c0-.059.047-.106.105-.107.058 0 .105.047.105.106z" clip-rule="evenodd"/><path fill="#A3AFB8" fill-rule="evenodd" d="M11.939 3.842s.07-.002.077-.03c.008-.029-.004-.066-.004-.066s.033.037.023.066c-.01.028-.018.036-.043.041a.1.1 0 0 1-.053-.011" clip-rule="evenodd"/><path fill="#EEE" d="M12.068 3.906a.087.087 0 0 1-.087.088.09.09 0 0 1-.087-.088c0-.048.038-.088.086-.088s.087.039.088.087"/><path fill="#1E1E1E" fill-rule="evenodd" d="M12.05 3.905a.07.07 0 0 0-.07-.07.07.07 0 0 0-.068.071c0 .039.031.07.069.07a.07.07 0 0 0 .069-.07h.036a.106.106 0 0 1-.105.106.105.105 0 0 1-.105-.106c0-.058.046-.106.104-.106s.105.047.106.105z" clip-rule="evenodd"/><path fill="#A3AFB8" fill-rule="evenodd" d="M11.94 3.95s.07 0 .078-.029c.007-.028-.005-.065-.005-.065s.033.037.024.065-.019.036-.043.042a.08.08 0 0 1-.054-.012" clip-rule="evenodd"/><path fill="#EEE" d="M12.074 4.067a.087.087 0 0 1-.087.088.087.087 0 0 1-.087-.088c0-.048.038-.088.086-.088s.087.039.088.087"/><path fill="#1E1E1E" fill-rule="evenodd" d="M12.056 4.066a.07.07 0 0 0-.07-.07.07.07 0 0 0-.068.071c0 .04.031.07.069.07a.07.07 0 0 0 .069-.07h.036a.106.106 0 0 1-.105.106.106.106 0 0 1-.105-.106c0-.058.046-.106.104-.106s.105.047.106.105z" clip-rule="evenodd"/><path fill="#A3AFB8" fill-rule="evenodd" d="M11.946 4.112s.07-.001.078-.03a.14.14 0 0 0-.005-.065s.033.037.024.065-.02.036-.043.042a.08.08 0 0 1-.054-.012" clip-rule="evenodd"/><path fill="#EEE" d="M12.082 4.238a.095.095 0 0 1-.093.095.095.095 0 0 1-.095-.095.094.094 0 1 1 .188-.001"/><path fill="#1E1E1E" fill-rule="evenodd" d="M12.064 4.237a.077.077 0 0 0-.076-.076.077.077 0 0 0-.075.077c0 .043.034.077.076.077a.077.077 0 0 0 .075-.077h.037c0 .062-.05.113-.112.113a.113.113 0 0 1-.113-.113c0-.062.05-.113.112-.113s.112.05.113.112z" clip-rule="evenodd"/><path fill="#A3AFB8" fill-rule="evenodd" d="M11.945 4.287s.076-.001.083-.032-.005-.071-.005-.071.036.04.026.07c-.01.032-.02.04-.046.046a.08.08 0 0 1-.058-.013" clip-rule="evenodd"/><path fill="#EEE" d="M12.093 4.467a.105.105 0 0 1-.104.106.105.105 0 0 1-.104-.105c0-.058.046-.106.103-.106s.104.046.104.104"/><path fill="#1E1E1E" fill-rule="evenodd" d="M12.075 4.467a.087.087 0 0 0-.087-.087.087.087 0 0 0-.085.088c0 .048.039.087.086.087a.087.087 0 0 0 .085-.088h.037a.123.123 0 0 1-.122.124.123.123 0 0 1-.122-.123c0-.068.053-.124.12-.124.068 0 .123.055.124.122z" clip-rule="evenodd"/><path fill="#A3AFB8" fill-rule="evenodd" d="M11.94 4.521s.084-.001.093-.035-.006-.079-.006-.079.04.045.029.079c-.012.034-.023.043-.051.05a.1.1 0 0 1-.065-.015" clip-rule="evenodd"/><path fill="#EEE" d="M12.082 4.938a.1.1 0 0 1-.097.1.1.1 0 0 1-.098-.1c0-.054.043-.098.097-.099.054 0 .098.044.098.099"/><path fill="#1E1E1E" fill-rule="evenodd" d="M12.064 4.938a.08.08 0 0 0-.08-.08.08.08 0 0 0-.079.08.08.08 0 0 0 .08.081.08.08 0 0 0 .08-.08h.035a.116.116 0 0 1-.115.116.116.116 0 0 1-.116-.116.115.115 0 1 1 .231-.002z" clip-rule="evenodd"/><path fill="#A3AFB8" fill-rule="evenodd" d="M11.94 4.99s.078-.002.086-.034-.005-.074-.005-.074.037.042.027.074c-.011.032-.021.04-.048.047a.1.1 0 0 1-.06-.014" clip-rule="evenodd"/><path fill="#EEE" d="M11.801 3.82a.105.105 0 0 1-.104.106.105.105 0 0 1-.104-.105c0-.058.046-.105.104-.106.057 0 .104.047.104.105"/><path fill="#1E1E1E" fill-rule="evenodd" d="M11.783 3.82a.087.087 0 0 0-.086-.087.087.087 0 0 0-.086.088c0 .048.04.087.086.087a.087.087 0 0 0 .086-.087h.036a.123.123 0 0 1-.122.123.123.123 0 0 1-.122-.123c0-.068.054-.123.121-.124.068 0 .123.055.123.123z" clip-rule="evenodd"/><path fill="#A3AFB8" fill-rule="evenodd" d="M11.649 3.875s.084-.002.092-.036c.009-.034-.005-.078-.005-.078s.04.044.028.078c-.011.034-.022.043-.051.05a.1.1 0 0 1-.064-.014" clip-rule="evenodd"/><path fill="#EEE" d="M11.544 3.719a.105.105 0 0 1-.104.105.105.105 0 0 1-.104-.105.104.104 0 1 1 .208-.001"/><path fill="#1E1E1E" fill-rule="evenodd" d="M11.526 3.718a.086.086 0 0 0-.087-.086.087.087 0 0 0-.085.087c0 .049.039.087.086.087a.087.087 0 0 0 .086-.087h.036a.123.123 0 0 1-.122.123.123.123 0 0 1-.122-.123c0-.067.054-.123.121-.123.068 0 .122.054.123.122z" clip-rule="evenodd"/><path fill="#A3AFB8" fill-rule="evenodd" d="M11.392 3.773s.084-.001.092-.036a.2.2 0 0 0-.006-.078s.04.044.029.078c-.011.035-.023.043-.051.05a.1.1 0 0 1-.064-.014" clip-rule="evenodd"/><path fill="#EEE" d="M11.297 3.603a.105.105 0 0 1-.104.105.105.105 0 0 1-.104-.105.104.104 0 1 1 .208-.001"/><path fill="#1E1E1E" fill-rule="evenodd" d="M11.28 3.602a.087.087 0 0 0-.087-.086.087.087 0 0 0-.086.087c0 .049.04.087.086.087a.087.087 0 0 0 .086-.087h.036a.123.123 0 0 1-.121.123.123.123 0 0 1-.123-.123.122.122 0 1 1 .244-.001z" clip-rule="evenodd"/><path fill="#A3AFB8" fill-rule="evenodd" d="M11.145 3.657s.084-.001.093-.036-.006-.078-.006-.078.04.044.028.078c-.011.035-.022.043-.05.05a.1.1 0 0 1-.065-.014" clip-rule="evenodd"/><path fill="#EEE" d="M11.014 3.541a.105.105 0 0 1-.104.106.104.104 0 0 1-.104-.105c0-.058.046-.106.103-.106.058 0 .104.046.105.104"/><path fill="#1E1E1E" fill-rule="evenodd" d="M10.996 3.54a.087.087 0 0 0-.087-.086.087.087 0 0 0-.085.088c0 .048.04.087.086.086a.087.087 0 0 0 .086-.087h.036a.123.123 0 0 1-.122.124.123.123 0 0 1-.122-.123c0-.068.054-.124.121-.124.068 0 .122.054.123.122z" clip-rule="evenodd"/><path fill="#A3AFB8" fill-rule="evenodd" d="M10.862 3.595s.084-.001.092-.035c.009-.034-.005-.079-.005-.079s.04.045.028.079c-.011.034-.023.043-.051.05a.1.1 0 0 1-.064-.015" clip-rule="evenodd"/><path fill="#EEE" d="M10.68 3.621a.105.105 0 0 1-.104.105.105.105 0 0 1-.104-.105.104.104 0 1 1 .208-.001"/><path fill="#1E1E1E" fill-rule="evenodd" d="M10.662 3.62a.087.087 0 0 0-.087-.086.087.087 0 0 0-.085.087c0 .049.04.087.086.087a.087.087 0 0 0 .086-.087h.036a.123.123 0 0 1-.122.123.123.123 0 0 1-.122-.123.122.122 0 1 1 .244-.001z" clip-rule="evenodd"/><path fill="#A3AFB8" fill-rule="evenodd" d="M10.528 3.675s.084-.001.092-.036c.009-.034-.005-.078-.005-.078s.04.044.028.078c-.011.035-.023.043-.051.05a.1.1 0 0 1-.064-.014" clip-rule="evenodd"/><path fill="#EEE" d="M10.445 3.857a.105.105 0 0 1-.104.105.105.105 0 0 1-.104-.105.104.104 0 1 1 .208-.001"/><path fill="#1E1E1E" fill-rule="evenodd" d="M10.427 3.856a.087.087 0 0 0-.087-.086.087.087 0 0 0-.085.087c0 .049.039.087.086.087a.087.087 0 0 0 .086-.087h.036a.123.123 0 0 1-.122.123.123.123 0 0 1-.122-.123c0-.067.054-.123.121-.124.068 0 .122.055.123.123z" clip-rule="evenodd"/><path fill="#A3AFB8" fill-rule="evenodd" d="M10.293 3.91s.083 0 .092-.035a.2.2 0 0 0-.006-.078s.04.044.029.078c-.012.034-.023.043-.051.05a.1.1 0 0 1-.064-.014" clip-rule="evenodd"/><path fill="#EEE" d="M10.346 4.187a.105.105 0 0 1-.103.105.105.105 0 0 1-.104-.105c0-.058.046-.105.103-.105s.104.046.104.104"/><path fill="#1E1E1E" fill-rule="evenodd" d="M10.328 4.186a.087.087 0 0 0-.086-.086.087.087 0 0 0-.085.087c0 .049.039.087.086.087a.087.087 0 0 0 .085-.087h.037a.123.123 0 0 1-.122.123.123.123 0 0 1-.122-.123.122.122 0 1 1 .243-.001z" clip-rule="evenodd"/><path fill="#A3AFB8" fill-rule="evenodd" d="M10.194 4.241s.084-.001.093-.036-.006-.078-.006-.078.04.044.029.078c-.012.035-.023.043-.052.05a.1.1 0 0 1-.064-.014" clip-rule="evenodd"/><path fill="#EEE" d="M10.39 4.532a.105.105 0 0 1-.104.105.105.105 0 0 1-.104-.105c0-.058.046-.105.103-.106.058 0 .104.047.105.105"/><path fill="#1E1E1E" fill-rule="evenodd" d="M10.372 4.53a.086.086 0 0 0-.086-.086.087.087 0 0 0-.086.088c0 .048.04.087.086.087a.087.087 0 0 0 .086-.087h.036a.123.123 0 0 1-.122.123.123.123 0 0 1-.122-.123c0-.068.054-.123.121-.124.068 0 .122.055.123.123z" clip-rule="evenodd"/><path fill="#A3AFB8" fill-rule="evenodd" d="M10.238 4.586s.084-.002.092-.036c.009-.034-.005-.078-.005-.078s.04.044.028.078c-.011.034-.022.043-.051.05a.1.1 0 0 1-.064-.014" clip-rule="evenodd"/><path fill="#EEE" d="M10.55 4.844a.105.105 0 0 1-.104.105.105.105 0 0 1-.104-.105c0-.058.046-.105.103-.106.057 0 .104.047.105.105"/><path fill="#1E1E1E" fill-rule="evenodd" d="M10.532 4.843a.087.087 0 0 0-.087-.087.087.087 0 0 0-.085.088c0 .048.039.087.086.087a.087.087 0 0 0 .085-.087h.037a.123.123 0 0 1-.122.123.123.123 0 0 1-.122-.123c0-.068.053-.123.121-.124.067 0 .122.055.123.123z" clip-rule="evenodd"/><path fill="#A3AFB8" fill-rule="evenodd" d="M10.398 4.898s.083-.002.092-.036-.006-.078-.006-.078.04.044.029.078c-.012.034-.023.043-.052.05a.1.1 0 0 1-.063-.014" clip-rule="evenodd"/><path fill="#EEE" d="M10.73 5.237c.015.056-.001.109-.036.118-.034.01-.075-.028-.09-.084s0-.11.035-.12.075.029.09.085"/><path fill="#1E1E1E" fill-rule="evenodd" d="M10.68 5.182q-.022-.017-.036-.013t-.024.03a.13.13 0 0 0 .002.067q.01.039.032.058.022.018.036.014t.024-.03a.13.13 0 0 0-.002-.067l.035-.01a.16.16 0 0 1 .001.088c-.007.024-.023.047-.049.054-.025.007-.05-.005-.07-.022a.16.16 0 0 1-.042-.076.16.16 0 0 1-.001-.086c.007-.025.023-.047.048-.055.026-.007.051.004.07.022a.16.16 0 0 1 .043.075l-.035.01a.13.13 0 0 0-.032-.059" clip-rule="evenodd"/><path fill="#A3AFB8" fill-rule="evenodd" d="M10.652 5.314s.05-.015.046-.05a.3.3 0 0 0-.023-.074s.035.036.037.07-.002.046-.018.057c-.01.008-.03.005-.043-.003" clip-rule="evenodd"/><path fill="#EEE" d="M13.413 5.257c-.014.056-.054.095-.089.086-.034-.008-.052-.06-.038-.117.014-.056.053-.095.088-.087s.053.06.039.117"/><path fill="#1E1E1E" fill-rule="evenodd" d="M13.395 5.185q-.01-.026-.025-.029-.014-.004-.035.015a.13.13 0 0 0-.031.06.13.13 0 0 0 0 .066q.01.027.025.029.014.004.035-.014a.13.13 0 0 0 .031-.06l.035.01a.16.16 0 0 1-.04.075c-.02.018-.044.03-.07.024s-.042-.028-.05-.053a.16.16 0 0 1-.001-.086.16.16 0 0 1 .04-.077c.02-.018.044-.03.07-.024.025.006.042.028.05.053a.16.16 0 0 1 .002.086l-.035-.008a.13.13 0 0 0-.001-.067" clip-rule="evenodd"/><path fill="#A3AFB8" fill-rule="evenodd" d="M13.307 5.286s.052.012.065-.02.015-.077.015-.077.014.049-.001.08c-.015.032-.024.039-.043.04-.013.002-.029-.01-.036-.023" clip-rule="evenodd"/><path fill="#B3A192" fill-rule="evenodd" d="m11.899 3.25.007.175s-.208.019-.217.038c-.04.09.049.213.049.213s.07-.052.247-.052a.6.6 0 0 1 .255.041s.044-.071.044-.124c0-.052-.018-.104-.018-.104s-.086-.012-.113-.012h-.074l-.008-.18z" clip-rule="evenodd"/><path fill="#000" fill-rule="evenodd" d="m12.088 3.227.008.18h.057a1 1 0 0 1 .101.01l.01.001h.004l-.002.019.017-.007v.003l.003.007a.4.4 0 0 1 .017.101.2.2 0 0 1-.025.09l-.016.03-.005.01-.002.003-.016-.01.016.01-.009.014-.014-.007-.003-.001-.012-.005-.046-.013a.8.8 0 0 0-.37.005.3.3 0 0 0-.05.022l-.002.001-.015.011-.01-.014.014-.01-.015.01v-.002l-.004-.004-.037-.07c-.018-.044-.033-.103-.01-.156a.03.03 0 0 1 .012-.011l.011-.005.028-.008a1 1 0 0 1 .149-.02l.016-.002-.008-.177zm-.18.216h-.002l-.007.001a3 3 0 0 0-.168.022l-.024.007h-.003c-.015.038-.005.084.011.124q.013.03.025.05l.003.005a.3.3 0 0 1 .046-.02.83.83 0 0 1 .44.009l.003.001.014-.027a.2.2 0 0 0 .02-.074.3.3 0 0 0-.014-.088h-.002l-.097-.01h-.092l-.007-.179-.136.003.007.175zm.358-.006.017-.007-.004-.01-.011-.001z" clip-rule="evenodd"/><path fill="#F0DDCB" d="M12.196 3.522c0 .02-.016.036-.037.036a.037.037 0 0 1-.037-.035c0-.02.016-.036.037-.036s.037.015.037.035"/><path fill="#121116" fill-rule="evenodd" d="M12.187 3.522a.03.03 0 0 0-.028-.026v-.01.01a.027.027 0 0 0-.028.026c0 .015.012.027.028.027a.027.027 0 0 0 .028-.027h.018a.046.046 0 0 1-.046.045.046.046 0 0 1-.047-.044c0-.026.021-.045.047-.046.025 0 .046.02.046.045z" clip-rule="evenodd"/><path fill="#F0DDCB" d="M12.283 3.542c0 .02-.018.037-.04.037a.04.04 0 0 1-.038-.037c0-.02.017-.038.038-.038.022 0 .04.017.04.037"/><path fill="#121116" fill-rule="evenodd" d="M12.273 3.541a.03.03 0 0 0-.03-.028v-.009.01a.03.03 0 0 0-.03.028c0 .015.014.028.03.028.017 0 .03-.013.03-.028h.019a.047.047 0 0 1-.048.046v-.01.01a.047.047 0 0 1-.049-.046h.01-.01c0-.026.022-.047.048-.047s.048.02.049.046z" clip-rule="evenodd"/><path fill="#F0DDCB" d="M12.11 3.521c0 .02-.016.036-.037.036a.037.037 0 0 1-.037-.036c0-.02.016-.036.037-.036s.037.016.037.036"/><path fill="#121116" fill-rule="evenodd" d="M12.101 3.52a.027.027 0 0 0-.028-.026.027.027 0 0 0-.028.027m.056 0h.018zm.018 0a.046.046 0 0 0-.046-.045zm-.046-.045a.046.046 0 0 0-.047.045zm0 .072a.027.027 0 0 0 .028-.027h.018a.046.046 0 0 1-.046.045.046.046 0 0 1-.047-.045m.047.027a.027.027 0 0 1-.028-.027z" clip-rule="evenodd"/><path fill="#F0DDCB" d="M11.938 3.523c0 .02-.018.037-.04.037a.04.04 0 0 1-.038-.037c0-.02.017-.037.039-.037a.04.04 0 0 1 .039.037"/><path fill="#121116" fill-rule="evenodd" d="M11.928 3.523a.03.03 0 0 0-.03-.028.03.03 0 0 0-.029.028c0 .015.013.028.03.028.016 0 .03-.013.03-.028h.018a.047.047 0 0 1-.048.046V3.56v.01a.047.047 0 0 1-.048-.047c0-.026.021-.046.047-.046.027 0 .049.02.049.046z" clip-rule="evenodd"/><path fill="#F0DDCB" d="M11.842 3.53c0 .02-.018.037-.039.037a.04.04 0 0 1-.039-.037c0-.021.017-.038.039-.038s.039.017.039.037"/><path fill="#121116" fill-rule="evenodd" d="M11.833 3.53a.03.03 0 0 0-.03-.029.03.03 0 0 0-.03.029c0 .015.013.027.03.027s.03-.013.03-.028h.018a.047.047 0 0 1-.048.047.047.047 0 0 1-.048-.046c0-.026.021-.047.048-.047.026 0 .048.02.048.046z" clip-rule="evenodd"/><path fill="#F0DDCB" d="M12.018 3.422a.03.03 0 0 1-.033.031.03.03 0 0 1-.033-.031c0-.018.015-.032.033-.032s.033.014.033.031"/><path fill="#121116" fill-rule="evenodd" d="M12.008 3.422a.023.023 0 0 0-.023-.023V3.39v.01a.023.023 0 0 0-.024.022m.047 0h.019zm.019 0a.04.04 0 0 0-.042-.04zm-.084 0c0-.023.019-.04.042-.04m0 .062c.013 0 .023-.01.023-.022h.019c0 .022-.02.04-.042.04a.04.04 0 0 1-.042-.04m.042.022a.023.023 0 0 1-.024-.022z" clip-rule="evenodd"/><path fill="#F0DDCB" d="M12.018 3.276a.03.03 0 0 1-.033.031.03.03 0 0 1-.033-.031c0-.018.015-.032.033-.032s.033.014.033.031"/><path fill="#121116" fill-rule="evenodd" d="M12.008 3.275a.023.023 0 0 0-.023-.022.023.023 0 0 0-.024.023q.001.02.024.022.021-.002.023-.022h.019c0 .022-.02.04-.042.04a.04.04 0 0 1-.042-.04c0-.023.019-.04.042-.041.022 0 .042.018.042.04z" clip-rule="evenodd"/><path fill="#F0DDCB" d="M12.018 3.354a.03.03 0 0 1-.033.032.03.03 0 0 1-.033-.032c0-.017.015-.031.033-.031s.033.014.033.031"/><path fill="#121116" fill-rule="evenodd" d="M12.008 3.354a.023.023 0 0 0-.023-.022.023.023 0 0 0-.024.022m.047 0h.019zm.019 0c0-.023-.02-.04-.042-.04zm-.084 0c0-.022.019-.04.042-.04m0 .063q.021-.002.023-.023h.019c0 .023-.02.04-.042.04a.04.04 0 0 1-.042-.04m.042.023a.023.023 0 0 1-.024-.023z" clip-rule="evenodd"/><path fill="#F0DDCB" d="M11.745 3.555c0 .02-.017.036-.037.036a.037.037 0 0 1-.038-.035c0-.02.017-.036.037-.037.02 0 .038.016.038.036"/><path fill="#121116" fill-rule="evenodd" d="M11.736 3.555a.03.03 0 0 0-.029-.026.03.03 0 0 0-.028.026c0 .015.012.027.028.027a.03.03 0 0 0 .029-.027h.018a.046.046 0 0 1-.047.046v-.01.01a.046.046 0 0 1-.046-.045c0-.026.02-.046.046-.046s.047.02.047.045z" clip-rule="evenodd"/><path fill="#916C68" d="M12.026 3.513a.04.04 0 0 1-.04.04.04.04 0 0 1-.042-.04.04.04 0 0 1 .04-.039.04.04 0 0 1 .042.04"/><path fill="#4D3126" fill-rule="evenodd" d="M12.017 3.513a.03.03 0 0 0-.032-.03.03.03 0 0 0-.032.03c0 .017.014.03.032.03a.03.03 0 0 0 .032-.03h.018a.05.05 0 0 1-.05.049.05.05 0 0 1-.05-.048.05.05 0 0 1 .05-.05.05.05 0 0 1 .05.049z" clip-rule="evenodd"/><path fill="#EEE" d="M12.064 2.991a.077.077 0 0 1-.077.078.077.077 0 0 1-.077-.077c0-.043.034-.078.077-.079.042 0 .077.035.077.078"/><path fill="#1E1E1E" fill-rule="evenodd" d="M12.046 2.99a.06.06 0 0 0-.06-.059.06.06 0 0 0-.058.06.06.06 0 1 0 .118 0h.036a.096.096 0 0 1-.095.096.095.095 0 0 1-.095-.095c0-.053.042-.096.095-.097.052 0 .095.043.095.095z" clip-rule="evenodd"/><path fill="#A3AFB8" fill-rule="evenodd" d="M11.951 3.031s.062 0 .069-.026c.006-.025-.005-.058-.005-.058s.03.033.021.058-.016.032-.037.037a.07.07 0 0 1-.048-.01" clip-rule="evenodd"/><path fill="#FC0" fill-rule="evenodd" d="M10.764 5.606s.069.064.087.12c.018.058.046.211.046.211s.718-.199 1.07-.183 1.164.194 1.164.194l.03-.178c.016-.091.082-.192.082-.192s-.775-.242-1.264-.22c-.49.023-.734.076-.844.11a8 8 0 0 0-.37.138" clip-rule="evenodd"/><path fill="#000" fill-rule="evenodd" d="m13.245 5.57-.002.008zl.01.004-.006.009-.002.004-.032.057a.5.5 0 0 0-.047.128l-.02.123-.007.04-.002.01v.005l-.008-.001-.002.007-.01-.002-.122-.026-.318-.063a6 6 0 0 0-.713-.103c-.174-.008-.441.038-.664.086a8 8 0 0 0-.372.088l-.023.007-.006.001h-.002l-.002-.007-.008.002v-.002l-.001-.005-.004-.018-.011-.059a2 2 0 0 0-.03-.126.3.3 0 0 0-.048-.08l-.036-.037V5.61q-.003-.007 0-.01v-.002h.002l.002-.002.038-.015a12 12 0 0 1 .331-.121c.11-.035.356-.088.846-.11.246-.012.563.043.818.101a7 7 0 0 1 .44.116l.007.002zm-2.466.038a8 8 0 0 1 .358-.132c.109-.034.353-.086.842-.11.243-.01.558.044.813.102a7 7 0 0 1 .414.107l.024.008-.005.008-.024.045a.5.5 0 0 0-.048.133l-.021.123-.007.04v.007h-.002l-.026-.006a17 17 0 0 0-.415-.084 6 6 0 0 0-.715-.103c-.177-.008-.446.038-.669.086a8 8 0 0 0-.372.089l-.023.006-.003-.016-.011-.06a2 2 0 0 0-.03-.127.3.3 0 0 0-.052-.084zm.118.33h-.008l.001.01.009-.003zm2.234.01-.002.008.008.002.002-.008z" clip-rule="evenodd"/><path fill="#FC0" fill-rule="evenodd" d="M11.835 2.701h.309s-.076.053-.092.103c-.013.043-.01.114-.01.114s.085 0 .122-.032c.038-.031.117-.088.117-.088v.393s-.076-.073-.122-.097a.5.5 0 0 0-.11-.04s0 .064.026.102l.13.18-.441.016s.105-.11.148-.19c.028-.053.017-.107.017-.107s-.075 0-.113.026a1 1 0 0 0-.103.105v-.378s.029.073.09.1c.062.029.12.014.12.014s.012-.075-.013-.122c-.026-.048-.08-.1-.075-.099" clip-rule="evenodd"/><path fill="#000" fill-rule="evenodd" d="M11.874 2.72c.017.02.038.046.052.072a.2.2 0 0 1 .018.086l-.003.043v.003l-.018-.002.005.017h-.002l-.002.001-.008.002a.2.2 0 0 1-.12-.017.2.2 0 0 1-.065-.052v.265l.007-.007a.5.5 0 0 1 .068-.065.2.2 0 0 1 .078-.026l.043-.003h.001v.018l.018-.004v.003l.002.008v.027a.2.2 0 0 1-.02.08 1 1 0 0 1-.122.164l.365-.014-.111-.153a.2.2 0 0 1-.026-.072l-.003-.028v-.011h.017l.004-.018h.003l.007.002a.43.43 0 0 1 .2.111v-.316l-.015.01c-.024.019-.053.04-.07.056a.2.2 0 0 1-.085.032l-.048.004h-.001v-.018l-.018.001v-.003a.5.5 0 0 1 .01-.117.2.2 0 0 1 .056-.079l.002-.001zm.28-.004-.003.002-.035.029a.2.2 0 0 0-.047.062.3.3 0 0 0-.009.069v.021l.027-.003a.14.14 0 0 0 .066-.023 2 2 0 0 1 .104-.08l.01-.007.002-.002.03-.02v.47l-.031-.03-.003-.003-.04-.036a.5.5 0 0 0-.075-.055.4.4 0 0 0-.082-.032l.002.01c.003.02.009.042.02.057l.113.157.017.023.02.027-.52.02.03-.032h.001v-.001l.004-.004.053-.06a1 1 0 0 0 .088-.122.15.15 0 0 0 .016-.08l-.023.003a.2.2 0 0 0-.062.02.5.5 0 0 0-.09.089l-.007.009-.002.002v.001l-.033.039v-.428l.035-.007.001.003.004.008.015.026c.014.02.034.042.06.054a.2.2 0 0 0 .097.014V2.88a.2.2 0 0 0-.013-.07.4.4 0 0 0-.047-.065l-.014-.017-.006-.006-.006-.008-.003-.006-.001-.007q-.001-.006.007-.013a.02.02 0 0 1 .012-.004h.366m-.16.235-.017.001v.017h.018zm.006.137.004-.018-.022-.004v.022zm-.12 0 .018-.004-.003-.014h-.014zm-.005-.133.005.017.011-.003.002-.011zm-.193-.12" clip-rule="evenodd"/><path fill="#FC0" fill-rule="evenodd" d="M11.811 3.948s-.22-.002-.408-.114c-.187-.11-.377-.227-.656-.161-.057.014-.267.106-.36.405-.065.21.01.463.077.577.066.114.173.23.173.23l.113-.078s-.289-.245-.254-.562.193-.392.193-.392.196-.154.458-.008.519.212.519.212.24.058.262.055c.02-.002-.122-.166-.117-.164" clip-rule="evenodd"/><path fill="#121116" fill-rule="evenodd" d="m11.402 3.812.01.007a.8.8 0 0 0 .39.11l.007.001h.002l.008.002-.008.034a.02.02 0 0 0 .017-.013v-.01l-.002-.004.004.004.014.018.003.003.086.111q.008.012.012.023l.003.014a.02.02 0 0 1-.018.018h-.01l-.012-.001-.034-.006a4 4 0 0 1-.202-.046l-.01-.003.003-.016-.004.016h-.003l-.042-.013a2.4 2.4 0 0 1-.478-.2.42.42 0 0 0-.406-.014l-.032.02-.002.001-.001.001h-.002l-.004.003-.016.012a.3.3 0 0 0-.055.057.605.605 0 0 0 .005.694 1 1 0 0 0 .134.156l.002.002m-.124.091-.014.012v-.001q-.003 0-.004-.004a1.5 1.5 0 0 1-.17-.227.84.84 0 0 1-.08-.591c.096-.306.312-.403.374-.418.281-.066.474.048.659.157M10.64 4.86l.081-.055-.028-.028a1 1 0 0 1-.098-.122.64.64 0 0 1-.004-.736.3.3 0 0 1 .088-.081l.002-.001.034-.022a.46.46 0 0 1 .44.014 2.4 2.4 0 0 0 .512.21h.003l.01.003.22.049-.039-.051-.042-.053-.003-.003-.016-.018a1 1 0 0 1-.126-.015.9.9 0 0 1-.28-.101l-.009-.005c-.185-.11-.367-.218-.634-.154-.052.012-.256.1-.347.392a.81.81 0 0 0 .185.718zm1.17-.894.001-.018z" clip-rule="evenodd"/><path fill="#FC0" fill-rule="evenodd" d="m10.596 5.14-.117-.23.35-.137s-.084.113-.104.193c-.025.099-.017.182-.017.182s.033-.025.073-.089c.03-.049.08-.225.08-.225l.157.503c.002.001-.08-.08-.138-.09-.065-.012-.143.01-.143.01l-.093.027z" clip-rule="evenodd"/><path fill="#000" fill-rule="evenodd" d="m10.844 4.784.04-.052-.43.168.125.247.053.16.11-.033h.003l.042-.008a.3.3 0 0 1 .09-.001.1.1 0 0 1 .04.016.4.4 0 0 1 .076.057l.01.01.002.001v.001h.001l.001.001.002.001c0 .001.011.003.02 0a.03.03 0 0 0 .006-.02h.001l-.175-.563-.017.06v.002l-.002.005-.027.086a2 2 0 0 1-.05.127l-.039.055v-.01a.6.6 0 0 1 .017-.123.5.5 0 0 1 .057-.122l.04-.06.004-.003zm-.135.364-.019.002v-.057a.6.6 0 0 1 .017-.131.5.5 0 0 1 .073-.15l-.275.108.108.212.043.13.076-.024.005.018-.005-.018h.004l.01-.003.036-.006a.4.4 0 0 1 .101 0 .2.2 0 0 1 .053.02l.046.031-.12-.383-.011.037-.027.076a.4.4 0 0 1-.102.15l-.001.002h-.001zm0 0 .01.014-.025.02-.004-.032z" clip-rule="evenodd"/><path fill="#FC0" fill-rule="evenodd" d="M12.207 3.944s.22-.003.408-.114c.188-.11.377-.227.656-.161.057.013.267.106.36.405.065.21-.01.463-.077.577-.066.114-.111.18-.111.18l-.136-.048s.25-.225.216-.542c-.035-.318-.194-.392-.194-.392s-.196-.154-.458-.008c-.262.145-.518.212-.518.212s-.241.058-.262.055c-.022-.002.121-.167.116-.164" clip-rule="evenodd"/><path fill="#121116" fill-rule="evenodd" d="m12.633 3.84-.01.006a.9.9 0 0 1-.405.116h-.002l-.017.02-.042.053-.038.051a1 1 0 0 0 .107-.022l.112-.027.01-.002h.003l.008-.003a2 2 0 0 0 .149-.048c.096-.034.225-.087.355-.159a.46.46 0 0 1 .44-.014l.036.022.027.018a.3.3 0 0 1 .061.064.64.64 0 0 1 .113.324.64.64 0 0 1-.097.401 1 1 0 0 1-.103.135l.096.035a3 3 0 0 0 .103-.168.8.8 0 0 0 .075-.563c-.09-.292-.295-.38-.347-.393-.267-.063-.449.045-.634.154m.825 1.002V4.84l.002-.003.006-.009a3 3 0 0 0 .104-.17.84.84 0 0 0 .078-.59c-.095-.307-.31-.403-.373-.418-.28-.066-.474.048-.658.157l-.012.007a.8.8 0 0 1-.389.11h-.007l-.001.001h-.001l-.008.002.008.034a.02.02 0 0 1-.017-.013v-.013l.002-.001-.004.004-.014.018-.003.003-.086.111-.012.023-.003.013a.02.02 0 0 0 .018.02l.01-.001.013-.002.033-.006a4 4 0 0 0 .175-.039l.027-.006.01-.003h.001l-.005-.017.005.017h.003l.042-.013a2.4 2.4 0 0 0 .478-.2.42.42 0 0 1 .406-.014l.032.02.002.001.002.001.005.003.017.012q.022.015.055.056c.041.056.089.15.106.306a.6.6 0 0 1-.093.38 1 1 0 0 1-.107.137l-.008.008-.002.002-.023.02.178.064zm-1.25-.88-.001-.018z" clip-rule="evenodd"/><path fill="#FC0" d="M12.186 3.727h-.092v.855h.091z"/><path fill="#121116" fill-rule="evenodd" d="M12.076 3.727q.002-.016.018-.018h.091q.016.002.018.018v.855q-.001.016-.018.018h-.091a.02.02 0 0 1-.018-.018zm.036.018v.819h.055v-.82z" clip-rule="evenodd"/><path fill="#FC0" d="M11.893 3.723h-.108v.855h.108z"/><path fill="#121116" fill-rule="evenodd" d="M11.767 3.723q.002-.016.018-.018h.108q.017.002.018.018v.855q-.001.016-.018.018h-.108a.02.02 0 0 1-.018-.018zm.036.018v.82h.072v-.82z" clip-rule="evenodd"/><path fill="#FC0" d="M12.285 3.525c0 .151-.134.274-.3.275-.165 0-.299-.123-.3-.274 0-.152.133-.276.298-.277.165 0 .3.122.301.273"/><path fill="#121116" fill-rule="evenodd" d="M12.266 3.523c0-.14-.126-.256-.283-.255-.156 0-.28.117-.28.258.001.14.126.256.283.256s.28-.117.28-.257h.037c0 .163-.144.292-.317.293-.174 0-.318-.13-.319-.292 0-.163.143-.294.316-.295.174 0 .318.128.32.291z" clip-rule="evenodd"/><path fill="#FC0" fill-rule="evenodd" d="m11.72 4.575.514-.004s-.06.036-.112.128-.045.15-.045.15.079 0 .134-.041a1 1 0 0 0 .116-.115l-.002.474s-.037-.06-.098-.096-.149-.036-.149-.036h-.175s-.08.005-.117.028a1 1 0 0 0-.114.099l-.009-.448s.025.078.108.11.13.027.13.027 0-.1-.043-.152-.139-.122-.139-.124" clip-rule="evenodd"/><path fill="#000" fill-rule="evenodd" d="m12.19 4.586-.428.004.02.016c.03.025.066.056.088.083a.2.2 0 0 1 .04.103l.006.055v.004H11.9l.001.016h-.01l-.027-.002a.4.4 0 0 1-.1-.027.2.2 0 0 1-.085-.064l.006.352.014-.012a1 1 0 0 1 .078-.063.2.2 0 0 1 .077-.026l.043-.005h.003l.002.015-.001-.016h.177v.016-.016l.015.001q.015 0 .038.004c.03.005.07.014.103.034a.3.3 0 0 1 .075.064l.002-.388-.01.012a1 1 0 0 1-.082.074.24.24 0 0 1-.093.039l-.048.006h-.001v-.016l-.016.002v-.013l.003-.032a.44.44 0 0 1 .125-.22m-.112.263-.016.002.002.014h.014zm.015-.016.002-.022a.4.4 0 0 1 .138-.221l.007-.005.002-.001.049-.03-.587.006v.015l.002.006.001.003.002.002.001.001.004.003.012.01.037.03c.03.024.063.054.083.078a.2.2 0 0 1 .034.09l.005.038-.016-.002a.4.4 0 0 1-.092-.024.17.17 0 0 1-.099-.1v-.001l-.03.005.01.485.025-.026v-.001l.002-.002.008-.008a1 1 0 0 1 .102-.086.2.2 0 0 1 .066-.02l.04-.006h.181l.045.004a.3.3 0 0 1 .092.03.3.3 0 0 1 .092.089l.001.002.029.046.002-.572-.027.034-.003.003-.007.009-.027.03a1 1 0 0 1-.077.07.2.2 0 0 1-.081.034zm-.192.018.001.016.014-.002v-.014z" clip-rule="evenodd"/><path fill="#F6CA1F" fill-rule="evenodd" d="M12.006 4.948s.075.175.163.253c.051.045.204.08.274.062.155-.04.263-.165.263-.165s-.006.137.091.212c.098.075.176.095.257.072.08-.022.31-.192.31-.192l.047.042s-.131.127-.27.195c-.07.034-.285.015-.355-.04a.5.5 0 0 1-.111-.191s-.043.086-.135.117a.6.6 0 0 1-.336-.005.5.5 0 0 1-.2-.168c-.02-.036-.015-.056-.015-.056s-.057.166-.178.211a.6.6 0 0 1-.354.012c-.111-.032-.12-.095-.12-.095s-.008.176-.25.226c-.243.05-.435-.128-.435-.128l.033-.05s.137.153.346.14c.209-.015.278-.282.278-.282s.093.139.338.142.315-.318.315-.318z" clip-rule="evenodd"/><path fill="#000" fill-rule="evenodd" d="m11.95 4.926.067.008.003.008v.002l.003.005a1 1 0 0 0 .045.09.6.6 0 0 0 .111.151q.017.015.05.029a.46.46 0 0 0 .21.03.5.5 0 0 0 .251-.155l.004-.004v-.001l.028-.032-.002.042v.005a.3.3 0 0 0 .01.068c.01.042.031.091.077.126.095.074.168.091.243.07a.4.4 0 0 0 .08-.038 2 2 0 0 0 .188-.125l.027-.02.007-.005.002-.001.01-.008.068.06-.011.011-.01-.01.01.01-.002.002-.004.004-.017.015-.06.052c-.051.04-.12.09-.19.125a.2.2 0 0 1-.08.017.6.6 0 0 1-.21-.022.2.2 0 0 1-.08-.037.35.35 0 0 1-.087-.122l-.02-.047-.018.023a.25.25 0 0 1-.108.075.6.6 0 0 1-.344-.005.4.4 0 0 1-.129-.082.5.5 0 0 1-.088-.107l-.026.047a.3.3 0 0 1-.142.129.6.6 0 0 1-.362.011.2.2 0 0 1-.11-.063v-.002a.3.3 0 0 1-.029.06c-.034.053-.1.111-.225.137a.5.5 0 0 1-.318-.046.6.6 0 0 1-.12-.078l-.007-.005-.002-.002.01-.011-.01.01-.01-.008.051-.076.013.014v.001l.005.005.018.016.068.05c.058.036.142.07.242.063.098-.007.164-.073.207-.14a.5.5 0 0 0 .056-.12l.002-.008v-.003l.009-.032.018.027v.002l.004.004.012.014q.018.02.056.046a.46.46 0 0 0 .253.07c.115.001.19-.073.237-.15a.6.6 0 0 0 .06-.143l.003-.01V4.94zm.023.032v.002a.6.6 0 0 1-.064.15c-.05.081-.132.166-.262.164a.5.5 0 0 1-.268-.074.4.4 0 0 1-.063-.053l-.007.018a1 1 0 0 1-.048.096c-.044.07-.118.145-.229.152a.44.44 0 0 1-.26-.066.5.5 0 0 1-.084-.065l-.017.025.024.018a1 1 0 0 0 .09.055.47.47 0 0 0 .299.044c.117-.025.177-.079.207-.126a.2.2 0 0 0 .032-.085v-.001l.029-.002v.001l.002.006.013.021a.2.2 0 0 0 .095.055.57.57 0 0 0 .344-.011.3.3 0 0 0 .128-.117l.032-.06.008-.019.002-.005V5.08l.027.008v.009a.1.1 0 0 0 .014.036c.008.016.037.05.075.085a.3.3 0 0 0 .117.076.6.6 0 0 0 .327.005.2.2 0 0 0 .095-.066.3.3 0 0 0 .03-.04V5.19h.001l.016-.034m-.706-.198.025.003.01.021q.012.028.035.07a.6.6 0 0 0 .118.16.2.2 0 0 0 .059.033.5.5 0 0 0 .228.031.54.54 0 0 0 .246-.144l.008.047a.25.25 0 0 0 .088.142c.1.077.183.1.27.075a.4.4 0 0 0 .085-.04 2 2 0 0 0 .191-.127l.027-.02.027.023-.01.01-.06.05a1 1 0 0 1-.183.122.2.2 0 0 1-.07.014.6.6 0 0 1-.2-.02.2.2 0 0 1-.07-.033.3.3 0 0 1-.078-.111l-.022-.051-.005-.016-.001-.004v-.001" clip-rule="evenodd"/><path fill="#FC0" fill-rule="evenodd" d="M11.402 5.05s.002-.086.02-.111c.026-.037.061-.038.08-.033.022.006.045.026.041.086-.004.059-.02.088-.002.11.017.023.02.039.054.034.034-.006.049-.017.041-.048-.007-.032-.017.002-.023-.024-.007-.027.032-.141.026-.212-.006-.07-.033-.125-.086-.139-.05-.013-.092-.013-.139.021a.6.6 0 0 0-.102.14l-.001.23.093-.005z" clip-rule="evenodd"/><path fill="#000" fill-rule="evenodd" d="M11.48 4.689a.2.2 0 0 1 .078.007c.064.017.092.083.099.154a.5.5 0 0 1-.017.146l-.01.055v.005q.005 0 .012.004.01.01.012.024.008.028-.01.05c-.011.012-.029.017-.046.02q-.03.004-.048-.01l-.012-.015-.004-.005-.007-.01c-.014-.018-.013-.037-.01-.055q0-.01.003-.02l.006-.048q0-.04-.009-.053a.03.03 0 0 0-.02-.015.06.06 0 0 0-.06.026l-.008.022a.3.3 0 0 0-.009.066v.012l.003.067-.13.007.002-.253.002-.004v-.001l.003-.004.007-.013.025-.04a.4.4 0 0 1 .072-.088.16.16 0 0 1 .077-.031m-.15.19v.206l.056-.003-.002-.032v-.005l.001-.01.01-.072a.1.1 0 0 1 .013-.034.09.09 0 0 1 .099-.04q.023.005.04.03.017.027.014.074l-.007.055-.002.015q-.004.024.003.029l.009.012.002.004.007.008c.002.002.005.004.02.002q.023-.004.026-.009s.004-.004 0-.017l-.01-.002-.01-.01-.004-.012v-.02a.3.3 0 0 1 .01-.06l.004-.017a.5.5 0 0 0 .013-.118c-.007-.067-.032-.112-.073-.123a.2.2 0 0 0-.064-.006.13.13 0 0 0-.06.025.3.3 0 0 0-.063.077z" clip-rule="evenodd"/><path fill="#FC0" fill-rule="evenodd" d="M11.228 5.112s-.036-.078-.063-.094a.08.08 0 0 0-.086.001c-.018.015-.03.043-.004.096.027.052.054.073.047.1s-.004.043-.037.052-.052.005-.057-.027.017-.005.012-.032c-.004-.027-.086-.116-.108-.184-.022-.066-.02-.127.023-.161.04-.032.08-.048.136-.036.054.013.15.088.15.088l.092.21-.088.033z" clip-rule="evenodd"/><path fill="#000" fill-rule="evenodd" d="M11.022 4.846a.2.2 0 0 0-.056.031c-.034.026-.039.077-.018.142a.5.5 0 0 0 .07.117l.021.032.012.02.007.017v.012q.001.008-.005.014l-.007.006c.002.013.006.015.007.016q.004.002.028-.003c.014-.004.016-.007.017-.01l.003-.01v-.004l.004-.015q.004-.008-.009-.027l-.008-.014-.028-.047a.12.12 0 0 1-.017-.073m.025-.044a.09.09 0 0 1 .133.023.3.3 0 0 1 .037.062l.005.01v.002h.001v.001l.012.031.053-.02-.083-.189a.6.6 0 0 0-.139-.081.13.13 0 0 0-.065 0m.23.056.003.003.102.231-.122.045-.023-.062-.002-.002-.004-.009-.034-.057-.016-.017c-.03-.018-.056-.008-.065 0a.03.03 0 0 0-.013.022c-.001.01 0 .027.013.052l.025.042.01.016c.01.016.019.034.013.055l-.004.018-.006.018q-.01.021-.04.028c-.016.005-.034.008-.05.001q-.025-.012-.028-.042-.004-.013.002-.026a.02.02 0 0 1 .009-.01l-.002-.003-.01-.016-.021-.031-.01-.015a.5.5 0 0 1-.064-.112c-.022-.068-.023-.14.03-.18a.2.2 0 0 1 .067-.038.16.16 0 0 1 .083-.002c.03.007.07.03.1.051l.04.028.012.009.003.002z" clip-rule="evenodd"/><path fill="#FC0" fill-rule="evenodd" d="M11.21 4.432s-.09.152-.07.27c.02.117.14.37.14.37l.002.033.066-.007-.015-.034s.032-.302.012-.398c-.015-.07-.134-.233-.135-.234" clip-rule="evenodd"/><path fill="#000" fill-rule="evenodd" d="m11.207 4.403.016.016v.001h.001v.001h.001l.001.002.018.026a2 2 0 0 1 .09.143q.02.039.029.07a1 1 0 0 1 .007.107 2 2 0 0 1-.015.248l-.004.044.022.052-.108.012-.002-.05-.003-.007-.058-.13a1.3 1.3 0 0 1-.08-.233.4.4 0 0 1 .029-.189 1 1 0 0 1 .043-.091v-.002h.001l.015.009-.015-.01zm.005.062.003.004a2 2 0 0 1 .088.14.3.3 0 0 1 .025.061.5.5 0 0 1 .006.099 2 2 0 0 1-.014.244l-.004.036v.012l-.001.005.007.017-.023.003v-.02l-.002-.002v-.001l-.001-.002-.004-.008-.014-.03-.044-.1a1.3 1.3 0 0 1-.077-.224.34.34 0 0 1 .027-.17z" clip-rule="evenodd"/><path fill="#FC0" fill-rule="evenodd" d="M11.356 5.13s.045.055.1.081c.058.03.083.03.106.012.018-.013.012-.068-.008-.084-.02-.015-.044-.007-.047.008-.006.025-.014.024-.033.014l-.09-.053z" clip-rule="evenodd"/><path fill="#000" fill-rule="evenodd" d="m11.394 5.093.002.001.008.005.084.05.002-.006a.04.04 0 0 1 .03-.028q.022-.005.044.01a.1.1 0 0 1 .018.025.1.1 0 0 1 .006.06.04.04 0 0 1-.015.027.07.07 0 0 1-.053.015.2.2 0 0 1-.073-.025.3.3 0 0 1-.097-.075l-.006-.007-.002-.002v-.001l.013-.011-.013.01-.012-.013.053-.042zm-.013.04a.4.4 0 0 0 .082.062.2.2 0 0 0 .06.022.04.04 0 0 0 .028-.008m-.17-.076.005-.004.08.047.014.007a.03.03 0 0 0 .02.001.03.03 0 0 0 .017-.014l.007-.019.004-.002q.005-.001.015.005l.006.01a.1.1 0 0 1 .005.039l-.003.006m-.059-.06" clip-rule="evenodd"/><path fill="#FC0" fill-rule="evenodd" d="M11.285 5.143s-.02.068-.058.114c-.042.051-.064.061-.093.055-.02-.005-.038-.058-.026-.08s.036-.024.046-.012c.016.02.023.016.035 0 .019-.025.06-.086.06-.086z" clip-rule="evenodd"/><path fill="#000" fill-rule="evenodd" d="m11.242 5.114.065.016-.005.018-.017-.005.017.005v.003l-.004.009-.01.03a.3.3 0 0 1-.047.079.2.2 0 0 1-.056.052.07.07 0 0 1-.055.008.04.04 0 0 1-.025-.018.1.1 0 0 1-.019-.057q0-.016.007-.03a.05.05 0 0 1 .035-.028.04.04 0 0 1 .04.013l.003.004.005-.005m.086-.053h-.005l-.016.023-.048.064a.03.03 0 0 1-.018.009.03.03 0 0 1-.02-.006l-.015-.014h-.004q-.006 0-.012.01m.125-.107-.014-.01.007-.01m.02.041-.008.02a.3.3 0 0 1-.04.071.2.2 0 0 1-.047.044.04.04 0 0 1-.029.004l-.004-.004-.008-.017-.004-.02q0-.01.002-.012m.11-.117.015.01zm0 0-.001.003zm-.001.003-.005.007zm-.005.007-.016.023zm-.016.023-.037.051z" clip-rule="evenodd"/><path fill="#FC0" d="M11.458 5.088c.003.02-.057.047-.134.06s-.143.007-.147-.013.056-.046.134-.06c.077-.012.143-.007.147.013"/><path fill="#000" fill-rule="evenodd" d="M11.41 5.087a.4.4 0 0 0-.097.006.4.4 0 0 0-.093.026l-.022.013.026.004q.039.003.097-.006a.4.4 0 0 0 .093-.026l.022-.012zm.039.003.026-.006c-.003-.014-.015-.021-.024-.025a.1.1 0 0 0-.038-.007.5.5 0 0 0-.105.006.4.4 0 0 0-.102.029.1.1 0 0 0-.032.02c-.008.006-.017.017-.015.032s.016.021.025.025q.015.006.037.008.044.003.106-.007a.4.4 0 0 0 .101-.028.1.1 0 0 0 .033-.02c.007-.006.017-.017.014-.032zm-.255.046" clip-rule="evenodd"/><path fill="#FC0" fill-rule="evenodd" d="M12.791 5.084s.032-.08.058-.097a.07.07 0 0 1 .086-.003c.019.014.033.041.009.095-.024.055-.05.076-.041.103.008.028.005.043.039.05s.052.002.056-.03-.018-.004-.014-.031.08-.12.099-.19c.018-.066.013-.128-.032-.16-.042-.029-.082-.043-.137-.028-.054.015-.145.096-.145.096l-.082.214.09.028z" clip-rule="evenodd"/><path fill="#000" fill-rule="evenodd" d="M12.991 4.773a.2.2 0 0 1 .07.034c.055.039.057.11.039.18a.5.5 0 0 1-.067.13l-.02.032-.01.016v.004l.009.009q.005.013.003.026-.002.03-.027.044-.023.009-.05.001-.03-.005-.04-.025l-.008-.019-.001-.005-.003-.012c-.007-.021 0-.04.01-.055l.008-.017.024-.044q.014-.037.01-.052a.03.03 0 0 0-.014-.021c-.01-.008-.035-.017-.065.003l-.015.018a.3.3 0 0 0-.031.059l-.004.008-.001.003-.02.063-.124-.039.09-.236.003-.003h.001l.003-.003.012-.01.037-.03a.4.4 0 0 1 .099-.056.16.16 0 0 1 .082-.003m-.207.126-.074.193.055.017.01-.03v-.002l.001-.003.004-.01.034-.064a.09.09 0 0 1 .131-.03.07.07 0 0 1 .028.043q.006.03-.013.074-.014.03-.026.049l-.008.013q-.011.02-.007.028l.004.015.002.004.003.01c.001.002.003.006.017.009q.024.004.028 0c.002 0 .005-.002.007-.015l-.008-.006a.02.02 0 0 1-.006-.013V5.17q0-.01.006-.019l.01-.02.021-.033.01-.014a.5.5 0 0 0 .053-.106c.017-.065.01-.116-.025-.14a.2.2 0 0 0-.058-.03.13.13 0 0 0-.065.003.3.3 0 0 0-.086.05z" clip-rule="evenodd"/><path fill="#FC0" fill-rule="evenodd" d="M12.607 5.081s-.007-.085-.026-.11c-.028-.035-.063-.034-.081-.028-.022.007-.044.028-.037.087.006.06.024.088.008.111-.017.024-.018.039-.053.036-.034-.004-.05-.014-.044-.046s.018.002.023-.025-.04-.14-.037-.21c.002-.07.026-.127.078-.143.05-.016.091-.018.14.014.046.03.109.134.109.134l.013.23h-.093z" clip-rule="evenodd"/><path fill="#000" fill-rule="evenodd" d="M12.507 4.76a.2.2 0 0 0-.063.01c-.041.012-.064.058-.067.126a.5.5 0 0 0 .02.117q0 .009.004.017l.013.06q.002.01 0 .019l-.003.012-.01.01-.01.004c-.002.012.001.015.002.017q.003.003.027.007.019 0 .02-.003l.006-.009.002-.003.008-.013c.004-.006.005-.012.002-.029l-.003-.015-.01-.055a.12.12 0 0 1 .01-.073.07.07 0 0 1 .04-.033.09.09 0 0 1 .115.068.3.3 0 0 1 .013.071l.001.01v.038h.057l-.011-.206-.008-.013-.027-.038a.3.3 0 0 0-.067-.074.13.13 0 0 0-.06-.022m.195.132.003.004.014.252h-.13v-.069l-.005-.04-.008-.035-.009-.022c-.022-.028-.05-.027-.062-.023a.03.03 0 0 0-.019.017q-.009.013-.006.052l.009.05.004.018c.003.018.005.037-.008.055l-.006.01-.003.006-.013.015q-.016.015-.046.012-.029 0-.048-.017c-.014-.013-.015-.03-.012-.05q.002-.013.011-.023l.012-.005v-.005l-.004-.018-.01-.037-.004-.017a.5.5 0 0 1-.02-.127c.003-.071.027-.14.09-.16a.2.2 0 0 1 .077-.01.16.16 0 0 1 .079.027.4.4 0 0 1 .076.083l.027.04.008.012.002.004z" clip-rule="evenodd"/><path fill="#FC0" fill-rule="evenodd" d="M12.829 4.438s-.139.111-.161.228.003.396.003.396l-.011.032.063.016-.001-.037s.136-.271.15-.368c.012-.071-.043-.265-.043-.267" clip-rule="evenodd"/><path fill="#000" fill-rule="evenodd" d="m12.835 4.41.01.02v.003l.001.003.002.007.006.023a2 2 0 0 1 .034.165.3.3 0 0 1 .002.077 1 1 0 0 1-.03.102 2 2 0 0 1-.117.259l-.004.008.003.057-.105-.027.015-.047v-.01a2 2 0 0 1-.01-.142 1.3 1.3 0 0 1 .008-.246.4.4 0 0 1 .093-.166 1 1 0 0 1 .068-.067l.005-.004v-.001h.001l.011.013-.01-.014zm-.016.06v.005a2 2 0 0 1 .034.16.3.3 0 0 1 .002.068.5.5 0 0 1-.029.094 2 2 0 0 1-.1.224q-.008.021-.015.032l-.004.009-.001.002-.003.005.001.018-.022-.005.006-.018v-.007l-.001-.009-.003-.033-.006-.108a1.3 1.3 0 0 1 .007-.237.34.34 0 0 1 .085-.15z" clip-rule="evenodd"/><path fill="#FC0" fill-rule="evenodd" d="M12.72 5.143s.022.067.064.11c.045.049.068.057.096.05.021-.007.035-.06.021-.082-.013-.021-.037-.022-.046-.01-.014.022-.022.018-.036.002l-.065-.08z" clip-rule="evenodd"/><path fill="#000" fill-rule="evenodd" d="m12.768 5.121.002.003.006.007.061.075.003-.004a.04.04 0 0 1 .039-.016.054.054 0 0 1 .046.055.1.1 0 0 1-.016.058.05.05 0 0 1-.024.02.07.07 0 0 1-.054-.004.2.2 0 0 1-.06-.049.3.3 0 0 1-.067-.113l-.001-.003.016-.007-.017.006-.006-.017.065-.02zm-.025.033a.4.4 0 0 0 .054.088.2.2 0 0 0 .05.041q.014.007.028.002m-.132-.13.005-.002.017.022.053.061q.006.007.018.008a.03.03 0 0 0 .02-.007l.014-.015h.004q.005 0 .013.009l.002.011a.1.1 0 0 1-.01.038l-.004.005m-.034-.076" clip-rule="evenodd"/><path fill="#FC0" fill-rule="evenodd" d="M12.65 5.13s-.042.057-.095.087c-.057.033-.082.035-.106.019-.018-.012-.016-.068.003-.084.02-.016.043-.01.047.004.008.025.016.023.034.012.026-.016.086-.058.086-.058z" clip-rule="evenodd"/><path fill="#000" fill-rule="evenodd" d="m12.619 5.088.055.038-.01.015-.015-.01.014.01-.002.003-.005.007a.4.4 0 0 1-.092.082.2.2 0 0 1-.072.03.07.07 0 0 1-.053-.013.05.05 0 0 1-.017-.025.1.1 0 0 1 .002-.06.1.1 0 0 1 .016-.027.05.05 0 0 1 .044-.013q.023.002.032.026l.002.005.005-.003m.1-.019-.004-.003-.024.016-.067.044a.03.03 0 0 1-.02.002.03.03 0 0 1-.017-.013l-.009-.018q.001-.001-.004-.002t-.014.005l-.006.01a.1.1 0 0 0-.002.04l.003.006m0 0q.011.009.028.006a.2.2 0 0 0 .06-.025.3.3 0 0 0 .076-.068m-.004-.025-.01-.014.01-.007m-.01.007.01.014zm-.001 0-.002.002zm-.002.002-.007.005zm-.007.005-.024.016zm-.024.016-.052.035z" clip-rule="evenodd"/><path fill="#FC0" d="M12.83 5.14c-.003.02-.069.023-.146.008s-.137-.043-.133-.063c.003-.02.069-.024.146-.009s.137.043.134.063"/><path fill="#000" fill-rule="evenodd" d="M12.786 5.122a.4.4 0 0 0-.093-.028.4.4 0 0 0-.096-.009l-.025.004.022.014q.036.015.093.028.058.01.096.008.018 0 .026-.004zm.035.016.027.004c.002-.014-.007-.026-.015-.032a.1.1 0 0 0-.032-.02.4.4 0 0 0-.101-.031.4.4 0 0 0-.105-.009.1.1 0 0 0-.037.007c-.01.003-.022.01-.025.025s.007.026.014.033q.013.01.032.02a.4.4 0 0 0 .101.03.4.4 0 0 0 .106.01.1.1 0 0 0 .037-.007c.009-.003.022-.01.025-.025zm-.255-.046" clip-rule="evenodd"/><path fill="#CCA715" fill-rule="evenodd" d="M10.737 5.597s.015.063.051.03.532-.228 1.232-.228 1.16.192 1.187.204.039.027.063 0-.024-.069-.024-.069-.487-.207-1.247-.204-1.253.22-1.253.22-.033.023-.009.047" clip-rule="evenodd"/><path fill="#000" fill-rule="evenodd" d="m13.249 5.527-.003.007.005-.006.002.002.006.006q.007.006.015.018.007.012.01.026.004.015-.008.029l-.02.015a.03.03 0 0 1-.018.002l-.017-.007-.005-.002-.012-.006c-.027-.012-.485-.204-1.184-.204-.35 0-.648.049-.863.102a2.5 2.5 0 0 0-.33.106l-.034.018q-.015.015-.03.012a.04.04 0 0 1-.02-.016.1.1 0 0 1-.013-.027.03.03 0 0 1-.01-.022q0-.011.006-.02l.015-.017.005.006-.003-.007h.001l.005-.003.083-.031a3 3 0 0 1 .253-.075c.22-.055.533-.11.914-.111.38-.002.693.05.91.101a3 3 0 0 1 .334.102l.005.001m-2.503.022-.003-.007h-.001zm.004.007q.003 0 .005-.002l.083-.03q.087-.033.251-.075c.218-.055.53-.11.91-.11.38-.002.69.049.906.1a3 3 0 0 1 .336.102l.001.001.005.005.013.016.008.02q.002.007-.004.015l-.014.011-.009.001-.013-.005-.004-.002-.014-.007c-.028-.012-.489-.205-1.19-.205-.35 0-.65.049-.867.102a2.5 2.5 0 0 0-.334.108l-.036.02q-.012.01-.016.008-.006 0-.011-.009l-.01-.022-.001-.002v-.003l-.002-.001q-.007-.008-.007-.013l.003-.01.008-.01zm2.496-.022.005-.006-.002-.001zm-1.62.356s.022-.062.061-.074c.031-.01.08.02.08.02s-.059-.005-.077.006c-.017.01-.022.037-.022.037s.013-.022.058-.02l.05.002s-.076.006-.094.028.073.033.073.033-.139 0-.157-.008-.03-.037-.06-.028c-.031.009-.063.036-.063.036s.035-.059.057-.06a.1.1 0 0 1 .056.008zM11.108 6s.01-.065.046-.084c.03-.015.083.006.083.006s-.06.006-.075.02c-.015.012-.015.04-.015.04s.008-.024.053-.03l.05-.007s-.074.02-.088.045.078.018.078.018-.136.026-.155.022c-.02-.005-.036-.03-.065-.017a.2.2 0 0 0-.055.048s.024-.065.046-.07c.021-.004.034-.007.055-.002zm.952-.134s.027-.061.066-.07c.032-.008.08.025.08.025s-.06-.009-.079 0c-.017.01-.024.037-.024.037s.014-.022.06-.017l.05.005s-.077.001-.096.023c-.02.02.07.036.07.036s-.138-.007-.155-.017c-.018-.01-.028-.038-.06-.031-.03.007-.064.033-.064.033s.039-.057.06-.057c.023.001.036.001.056.011.019.01.037.022.037.022m.437.049s.032-.057.073-.062c.032-.004.075.034.075.034s-.057-.015-.077-.008c-.018.006-.028.033-.028.033s.016-.02.06-.01l.05.011s-.077-.007-.098.011c-.022.02.066.045.066.045s-.137-.024-.153-.035-.023-.041-.055-.038-.068.025-.068.025.045-.052.067-.049c.022.004.035.005.053.017zm.433.077s.03-.043.064-.044c.026-.001.058.033.058.033s-.045-.017-.062-.012c-.015.004-.025.024-.025.024s.015-.014.05-.003l.038.012s-.06-.011-.08.002c-.018.013.05.04.05.04s-.107-.028-.12-.039-.015-.034-.041-.034-.056.015-.056.015.04-.039.057-.034.028.006.041.017z" clip-rule="evenodd"/><path fill="#0F6545" d="M11.538 5.593c.01.052-.05.107-.136.125-.086.017-.163-.011-.174-.063s.05-.108.136-.125c.085-.017.163.011.173.063"/><path fill="#000" fill-rule="evenodd" d="M11.475 5.546a.2.2 0 0 0-.109-.005.2.2 0 0 0-.098.046q-.035.033-.03.066.008.031.052.049.046.016.11.005a.2.2 0 0 0 .098-.047q.035-.033.029-.065t-.052-.05m.073.045c-.006-.031-.032-.054-.065-.066a.23.23 0 0 0-.121-.006.23.23 0 0 0-.109.052c-.026.024-.042.055-.035.086s.032.053.065.065a.23.23 0 0 0 .12.006.23.23 0 0 0 .11-.052c.026-.024.041-.054.035-.085" clip-rule="evenodd"/><path fill="#CECFC1" d="M11.344 5.584c.003.013-.01.026-.03.03-.018.004-.035-.003-.038-.016s.01-.026.03-.03c.019-.003.036.004.038.016"/><path fill="#0F6545" d="M12.745 5.655c-.016.05-.096.07-.179.044s-.138-.088-.122-.138.096-.07.18-.044c.082.026.137.088.121.138"/><path fill="#000" fill-rule="evenodd" d="M12.511 5.52q-.046.013-.056.044-.01.032.021.068t.093.057c.04.013.08.014.11.007q.046-.013.056-.044t-.022-.068a.2.2 0 0 0-.093-.057l.003-.01-.003.01a.2.2 0 0 0-.109-.006m-.005-.02a.23.23 0 0 1 .12.007.23.23 0 0 1 .104.063c.023.027.035.058.026.089m-.25-.16c-.034.01-.062.029-.072.059z" clip-rule="evenodd"/><path fill="#CECFC1" d="M12.58 5.555c-.004.012-.022.017-.04.011-.019-.005-.03-.02-.027-.032.004-.012.022-.017.04-.012s.03.02.027.033"/><path fill="#1F2D86" d="M12.147 5.476h-.313v.158h.313z"/><path fill="#000" fill-rule="evenodd" d="M11.818 5.476q.001-.013.016-.015h.313q.014.002.015.015v.158a.015.015 0 0 1-.015.015h-.313a.015.015 0 0 1-.016-.015zm.031.015v.128h.282V5.49z" clip-rule="evenodd"/><path fill="#707C8B" d="M11.965 5.51c0 .007-.013.013-.03.013-.016 0-.03-.006-.03-.013s.014-.013.03-.013c.017 0 .03.006.03.013"/><path fill="#9F1209" fill-rule="evenodd" d="m10.949 5.634.052.153-.096.051s-.044.031-.088.008-.07-.093-.046-.122c.046-.056.178-.093.178-.09" clip-rule="evenodd"/><path fill="#000" fill-rule="evenodd" d="M10.777 5.73a.3.3 0 0 1 .103-.066zm.103-.066.05-.017zm.05-.017.013-.004zm.01-.011.001.001zm.003.007.048.14-.09.048-.001.001h-.002l-.005.004-.018.007a.07.07 0 0 1-.054-.004.1.1 0 0 1-.051-.087q0-.015.007-.022m.132.115-.002.001-.006.004-.021.009a.1.1 0 0 1-.067-.006.12.12 0 0 1-.06-.1q0-.02.011-.034a.3.3 0 0 1 .11-.07l.077-.023s.005.002.006.006l.053.158z" clip-rule="evenodd"/><path fill="#8F322F" d="M10.869 5.743c0 .025-.02.046-.044.046a.045.045 0 0 1-.044-.046c0-.026.02-.047.044-.047s.044.02.044.047"/><path fill="#E2A494" d="M10.827 5.724a.03.03 0 0 1-.005.022.013.013 0 0 1-.017.002.03.03 0 0 1-.011-.018.03.03 0 0 1 .005-.022.013.013 0 0 1 .017-.002q.009.005.011.018"/><path fill="#9F1209" fill-rule="evenodd" d="m13.046 5.654-.051.136.122.064s.053.024.087-.006c.03-.026.036-.085.013-.115a.7.7 0 0 0-.171-.08" clip-rule="evenodd"/><path fill="#000" fill-rule="evenodd" d="m13.207 5.715.016.013a.1.1 0 0 1 .015.065.1.1 0 0 1-.029.06.08.08 0 0 1-.063.017l-.03-.008h-.002V5.86h-.001l.003-.007-.003.007-.129-.067.054-.143.008-.004h.003l.005.002a1 1 0 0 1 .153.067m-.087.131.002.001.027.007q.026.005.05-.012a.08.08 0 0 0 .023-.05.08.08 0 0 0-.012-.054l-.012-.01-.021-.012a1 1 0 0 0-.126-.052l-.046.122z" clip-rule="evenodd"/><path fill="#AA675D" d="M13.192 5.763c0 .016-.018.03-.04.03-.02 0-.038-.014-.038-.03 0-.017.017-.03.039-.03s.039.013.039.03"/><path fill="#E2A494" d="M13.155 5.758a.02.02 0 0 1-.01.02.02.02 0 0 1-.018 0 .02.02 0 0 1-.009-.02q0-.012.01-.02a.02.02 0 0 1 .018 0q.008.008.009.02"/><path fill="#F5D8BC" d="M12.264 5.49q-.002.018-.022.02a.02.02 0 0 1-.022-.02q.002-.02.022-.021.02.002.022.02m.133.008q-.002.02-.022.021a.02.02 0 0 1-.022-.02q.002-.02.022-.022c.02-.002.022.01.022.021m-.067.052a.027.027 0 0 1-.028.026.027.027 0 0 1-.028-.026q.002-.024.028-.026c.015 0 .027.011.027.026m.065.087q-.002.02-.022.021a.02.02 0 0 1-.022-.021q.002-.02.022-.021c.02-.001.022.01.022.021m-.129-.016q-.002.018-.022.02a.02.02 0 0 1-.022-.02q.002-.02.022-.022c.012 0 .022.01.022.021m-.644-.107a.02.02 0 0 1-.016.026.022.022 0 0 1-.027-.016.02.02 0 0 1 .017-.025.02.02 0 0 1 .026.015m.132-.022a.02.02 0 0 1-.017.025.02.02 0 0 1-.026-.015.02.02 0 0 1 .016-.026.022.022 0 0 1 .027.016m-.054.065a.027.027 0 0 1-.021.032.027.027 0 0 1-.033-.02.03.03 0 0 1 .02-.031.027.027 0 0 1 .034.02m.082.069a.02.02 0 0 1-.017.026.02.02 0 0 1-.026-.016.02.02 0 0 1 .017-.025.02.02 0 0 1 .026.015m-.129.013a.02.02 0 0 1-.017.026.02.02 0 0 1-.026-.016.02.02 0 0 1 .017-.025.02.02 0 0 1 .026.015m-.592-.004a.02.02 0 0 1-.013.027.02.02 0 0 1-.028-.012.02.02 0 0 1 .013-.027.02.02 0 0 1 .028.012m.127-.042a.02.02 0 0 1-.013.028.02.02 0 0 1-.028-.012.02.02 0 0 1 .013-.027.02.02 0 0 1 .028.011m-.044.073a.027.027 0 0 1-.017.035.027.027 0 0 1-.035-.015.03.03 0 0 1 .016-.034.027.027 0 0 1 .036.014m.091.058a.02.02 0 0 1-.013.027.02.02 0 0 1-.028-.011.02.02 0 0 1 .013-.028.02.02 0 0 1 .028.012m-.126.031a.02.02 0 0 1-.013.028.02.02 0 0 1-.028-.012.02.02 0 0 1 .013-.028.02.02 0 0 1 .028.012m1.735-.182a.023.023 0 0 1-.029.017.023.023 0 0 1-.018-.028.023.023 0 0 1 .029-.016c.013.003.02.015.018.027m.137.043a.023.023 0 0 1-.029.016.023.023 0 0 1-.017-.028.023.023 0 0 1 .028-.016c.013.003.02.016.018.028m-.084.036a.03.03 0 0 1-.036.021.03.03 0 0 1-.022-.035.03.03 0 0 1 .036-.02.03.03 0 0 1 .022.034m.045.108a.023.023 0 0 1-.028.016.023.023 0 0 1-.018-.027.023.023 0 0 1 .028-.017.024.024 0 0 1 .018.028m-.131-.05a.023.023 0 0 1-.028.016.023.023 0 0 1-.017-.028.023.023 0 0 1 .028-.016q.02.006.018.028"/><path fill="#000" fill-rule="evenodd" d="M12.84 4.33v-.002zm0-.002.002-.014zm.002-.014.007-.015zm.007-.015.003-.005zm.003-.006-.014-.01zm-.014-.01-.016-.011zm-.016-.011-.002.003zm-.002.003-.003.006zm-.003.006-.01.02zm-.01.02a.1.1 0 0 0-.005.029zm-.005.029c0 .01.005.023.017.03zm.296-.01.025.027v.001l-.003.002a.3.3 0 0 1-.041.03.2.2 0 0 1-.107.032c-.077 0-.124-.032-.15-.049l-.003-.002m.279-.04-.002.001zm-.002.001-.008.006zm-.008.006-.028.02zm-.028.02a.2.2 0 0 1-.088.026zm-.088.026a.2.2 0 0 1-.129-.042zm-.129-.042-.003-.002zm-1.25.048a.1.1 0 0 0 .031.02 1 1 0 0 0 .141.032l.014.003h.004l-.005.034h-.001l-.004-.001a3 3 0 0 1-.16-.035.1.1 0 0 1-.044-.03q-.002 0-.005-.003l-.011-.008-.024-.002a.1.1 0 0 0-.065.026q-.024.021-.019.053.009.033.026.039.017.007.044 0 .014-.005.01-.024c-.002-.01-.011-.02-.028-.019l-.009.002.007.011.004.005h.001l-.012.013-.012.012v-.001l-.002-.002a.1.1 0 0 1-.017-.025c-.003-.008-.006-.02.002-.032q.013-.015.036-.017a.06.06 0 0 1 .063.045c.006.024-.003.054-.033.064a.1.1 0 0 1-.068-.002q-.034-.014-.045-.062a.09.09 0 0 1 .03-.085.14.14 0 0 1 .084-.035.1.1 0 0 1 .038.004q.015.007.024.015zm-.398-.143.023.014-.011.011.011-.011a.1.1 0 0 1 .02.042.1.1 0 0 1 0 .044" clip-rule="evenodd"/></g></g><rect width="23" height="17" x=".5" y=".5" stroke="#000" stroke-opacity=".1" rx="1.5"/><defs><clipPath id="a"><rect width="24" height="18" fill="#fff" rx="2"/></clipPath></defs></svg>