<svg xmlns="http://www.w3.org/2000/svg" fill="none" viewBox="0 0 24 18"><g clip-path="url(#a)"><mask id="b" width="24" height="18" x="0" y="0" maskUnits="userSpaceOnUse" style="mask-type:luminance"><path fill="#fff" d="M0 0h24v18H0z"/></mask><g mask="url(#b)"><path fill="#279E19" fill-rule="evenodd" d="M0 0v18h24V0H0Z" clip-rule="evenodd"/><mask id="c" width="24" height="18" x="0" y="0" maskUnits="userSpaceOnUse" style="mask-type:luminance"><path fill="#fff" fill-rule="evenodd" d="M0 0v18h24V0H0Z" clip-rule="evenodd"/></mask><g mask="url(#c)"><path fill="#F7FCFF" fill-rule="evenodd" d="M12.75 0h1.5v9.75H24v1.5h-9.75V18h-1.5v-6.75H0v-1.5h12.75V0Z" clip-rule="evenodd"/><path fill="#272727" fill-rule="evenodd" d="M11.25 0h1.5v8.25H24v1.5H12.75V18h-1.5V9.75H0v-1.5h11.25V0Z" clip-rule="evenodd"/><path fill="#FECA00" fill-rule="evenodd" d="M9.75 0h1.5v6.75H24v1.5H11.25V18h-1.5V8.25H0v-1.5h9.75V0Z" clip-rule="evenodd"/><path fill="#C51918" fill-rule="evenodd" d="M12 15a6 6 0 1 0 0-12 6 6 0 0 0 0 12Z" clip-rule="evenodd"/><path fill="#804BFF" fill-rule="evenodd" d="M11.044 6.31s.285-.925.947-.447c1.038.51 1.38 1.098 1.782 1.764.4.665-.983.178-1.241-.197-.258-.374-1.69-.496-1.488-.808.202-.312 0-.312 0-.312Z" clip-rule="evenodd"/><path fill="#A95601" fill-rule="evenodd" d="M10.81 11.044s-.705.964 0 .964 3.562-.207 3.22-.482c-.343-.274-2.881 0-2.881 0l-.34-.482Z" clip-rule="evenodd"/><path fill="#804BFF" fill-rule="evenodd" d="M11.864 11.014c-.044-.05-.687-.471-.938-1.438-.173-.667-.067-1.917.177-2.164.597-.606.947-.25.947.658s.036 3.168-.187 2.944Z" clip-rule="evenodd"/><path fill="#279E19" fill-rule="evenodd" d="M11.788 10.54s-.074.71.29 1.536c.364.827 1.1.81 1.1.134 0-.677.537-.042.743.41.206.452-.327-4.01-1.085-5.009-.758-.998-1.489-1.062-1.268-.417.22.645.22 3.347.22 3.347Z" clip-rule="evenodd"/><path fill="#FECA00" fill-rule="evenodd" d="M11.345 5.7s-.32.205-.32.772c0 .566.759-.176.759-.176l-.439-.596Z" clip-rule="evenodd"/><mask id="d" fill="#fff"><path fill-rule="evenodd" d="m11.414 5.485.661-.471.661.471-.244-.774.653-.484-.812-.007-.258-.77-.258.77-.812.007.653.484-.244.774Zm2.192.283.812.007.258.77.258-.77.812-.007-.653-.484.244-.774-.661.471-.661-.471.244.774-.653.484Zm2.26 2-.652-.483.812-.007.257-.77.258.77.812.007-.652.483.244.775-.662-.472-.66.472.243-.775Zm-.244 1.69.244.774-.652.483.812.007.257.77.258-.77.812-.007-.652-.483.244-.775-.662.472-.66-.472Zm-1.204 2.767.258-.77.258.77.812.007-.653.483.244.775-.661-.471-.661.471.244-.775-.653-.483.812-.007Zm-1.682.29-.661.471-.661-.471.244.774-.653.484.812.007.258.77.258-.77.812-.007-.653-.484.244-.774Zm-3.004-.29.812.007-.653.483.244.775-.661-.471-.661.471.244-.775-.653-.483.812-.007.258-.77.258.77Zm-.795-1.51-.653-.483.244-.775-.661.472-.662-.472.244.775-.652.483.812.007.258.77.257-.77.813-.007Zm-.653-2.947.244.775-.661-.472-.662.472.244-.775-.652-.483.812-.007.258-.77.257.77.813.007-.653.483Zm1.19-1.223.258-.77.812-.007-.653-.484.244-.774-.661.471-.661-.471.244.774-.653.484.812.007.258.77Z" clip-rule="evenodd"/></mask><path fill="#279E19" fill-rule="evenodd" d="m11.414 5.485.661-.471.661.471-.244-.774.653-.484-.812-.007-.258-.77-.258.77-.812.007.653.484-.244.774Zm2.192.283.812.007.258.77.258-.77.812-.007-.653-.484.244-.774-.661.471-.661-.471.244.774-.653.484Zm2.26 2-.652-.483.812-.007.257-.77.258.77.812.007-.652.483.244.775-.662-.472-.66.472.243-.775Zm-.244 1.69.244.774-.652.483.812.007.257.77.258-.77.812-.007-.652-.483.244-.775-.662.472-.66-.472Zm-1.204 2.767.258-.77.258.77.812.007-.653.483.244.775-.661-.471-.661.471.244-.775-.653-.483.812-.007Zm-1.682.29-.661.471-.661-.471.244.774-.653.484.812.007.258.77.258-.77.812-.007-.653-.484.244-.774Zm-3.004-.29.812.007-.653.483.244.775-.661-.471-.661.471.244-.775-.653-.483.812-.007.258-.77.258.77Zm-.795-1.51-.653-.483.244-.775-.661.472-.662-.472.244.775-.652.483.812.007.258.77.257-.77.813-.007Zm-.653-2.947.244.775-.661-.472-.662.472.244-.775-.652-.483.812-.007.258-.77.257.77.813.007-.653.483Zm1.19-1.223.258-.77.812-.007-.653-.484.244-.774-.661.471-.661-.471.244.774-.653.484.812.007.258.77Z" clip-rule="evenodd"/><path fill="#FECA00" d="m12.075 5.014.058-.082-.058-.041-.058.041.058.082Zm-.661.471-.096-.03-.09.285.244-.173-.058-.082Zm1.322 0-.058.082.243.173-.09-.285-.095.03Zm-.244-.774-.06-.08-.056.042.02.068.096-.03Zm.653-.484.06.08.24-.177-.3-.003v.1Zm-.812-.007-.095.032.023.067.071.001v-.1Zm-.258-.77.095-.032-.095-.283-.095.283.095.032Zm-.258.77.001.1h.071l.023-.068-.095-.032Zm-.812.007v-.1l-.3.003.24.178.06-.08Zm.653.484.095.03.021-.068-.057-.043-.06.08Zm2.76 1.064.095-.032-.023-.067-.071-.001-.001.1Zm-.812-.007-.06-.08-.24.177.3.003v-.1Zm1.07.777-.095.032.095.283.095-.283-.095-.032Zm.258-.77-.001-.1h-.071l-.023.068.095.032Zm.812-.007v.1l.3-.003-.24-.178-.06.08Zm-.653-.484-.095-.03-.022.068.058.043.06-.08Zm.244-.774.096.03.09-.285-.244.173.058.082Zm-.661.471-.058.082.058.041.058-.041-.058-.082Zm-.661-.471.058-.082-.243-.173.09.285.095-.03Zm.244.774.06.08.056-.042-.021-.068-.095.03Zm.954 2v-.1l-.299.004.24.177.06-.08Zm.653.484.095.03.022-.068-.057-.042-.06.08Zm.16-.49v.1l.072-.001.022-.068-.095-.031Zm.257-.77.095-.032-.095-.283-.094.283.094.032Zm.258.77-.095.031.023.068h.071l.001-.1Zm.812.007.06.08.24-.177-.299-.003v.1Zm-.652.483-.06-.08-.057.042.021.068.096-.03Zm.244.775-.058.081.243.173-.09-.284-.095.03Zm-.662-.472.058-.081-.058-.042-.058.042.058.081Zm-.66.472-.096-.03-.09.284.243-.173-.058-.081Zm.243 1.689.06.08.057-.042-.022-.068-.095.03Zm-.244-.775.058-.081-.243-.174.09.285.095-.03Zm-.409 1.258-.059-.08-.24.177.299.003v-.1Zm.813.007.094-.031-.022-.068h-.072v.1Zm.257.77-.094.032.094.283.095-.283-.095-.032Zm.258-.77v-.1h-.072l-.023.069.095.031Zm.812-.007.001.1.299-.003-.24-.177-.06.08Zm-.652-.483-.096-.03-.021.068.057.042.06-.08Zm.244-.775.095.03.09-.285-.243.174.058.081Zm-.662.472-.058.081.058.041.058-.041-.058-.081Zm-1.607 1.526.095-.032-.095-.283-.095.283.095.032Zm-.258.77v.1h.072l.023-.068-.095-.032Zm.516 0-.095.032.023.067h.07l.002-.1Zm.812.007.06.08.24-.177-.3-.003v.1Zm-.653.483-.06-.08-.057.043.022.067.095-.03Zm.244.775-.058.081.243.174-.09-.285-.095.03Zm-.661-.471.058-.082-.058-.041-.058.041.058.082Zm-.661.471-.096-.03-.09.285.244-.174-.058-.081Zm.244-.775.095.03.022-.067-.058-.043-.06.08Zm-.653-.483v-.1l-.3.003.24.178.06-.08Zm-1.531.754-.058.082.058.041.058-.041-.058-.082Zm.661-.471.096.03.09-.285-.244.173.058.082Zm-1.322 0 .058-.082-.243-.173.09.285.095-.03Zm.244.774.06.08.056-.042-.02-.068-.096.03Zm-.653.484-.06-.08-.24.177.3.003v-.1Zm.812.007.095-.032-.023-.067-.071-.001v.1Zm.258.77-.095.032.095.283.095-.283-.095-.032Zm.258-.77-.001-.1h-.071l-.023.068.095.032Zm.812-.007v.1l.3-.003-.24-.178-.06.08Zm-.653-.484-.095-.03-.021.068.057.043.06-.08Zm-1.948-1.057.06.08.24-.177-.3-.003v.1Zm-.812-.007-.095.032.023.067h.071v-.1Zm.16.49-.06-.08-.057.043.02.067.096-.03Zm.243.775-.058.081.243.174-.09-.285-.095.03Zm-.661-.471.058-.082-.058-.041-.058.041.058.082Zm-.661.471-.096-.03-.09.285.244-.174-.058-.081Zm.244-.775.095.03.022-.067-.058-.043-.06.08Zm-.653-.483v-.1l-.3.003.24.178.06-.08Zm.812-.007.001.1h.071l.023-.068-.095-.032Zm.258-.77.095-.032-.095-.283-.095.283.095.032Zm-1.19-1.223-.096-.03-.021.068.057.042.06-.08Zm.652.483.001.1.299-.003-.24-.177-.06.08Zm-.408-1.258.095.03.09-.285-.243.174.058.081Zm-.661.472-.058.081.058.041.058-.041-.058-.081Zm-.662-.472.058-.081-.243-.174.09.285.095-.03Zm.244.775.06.08.057-.042-.021-.068-.096.03Zm-.652.483-.06-.08-.24.177.299.003v-.1Zm.812.007.094-.031-.022-.068H7.61l-.001.1Zm.258.77-.095.032.095.283.094-.283-.094-.032Zm.257-.77v-.1h-.072l-.022.069.094.031Zm.404-2.18-.058.082.243.173-.09-.284-.095.03Zm-.244-.774-.06-.08-.057.042.021.068.096-.03Zm-.417.303.058-.081-.058-.042-.058.042.058.081Zm-.662.472-.095-.03-.09.284.243-.173-.058-.081Zm.244-.775.096.03.021-.068-.057-.042-.06.08Zm-.652-.483-.001-.1-.299.003.24.177.06-.08Zm.812-.007v.1l.072-.001.022-.068-.094-.031Zm.258-.77.094-.032-.094-.283-.095.283.095.032Zm.257.77-.094.031.022.068h.072v-.1Zm.813.007.059.08.24-.177-.299-.003v.1Zm.795-1.51-.001-.1H9.66l-.023.068.095.032Zm-.258.77-.095.032.095.283.095-.283-.095-.032Zm1.07-.777v.1l.3-.003-.24-.178-.06.08Zm-.653-.484-.095-.03-.021.068.057.043.06-.08Zm.244-.774.096.03.09-.285-.244.173.058.082Zm-.661.471-.058.082.058.041.058-.041-.058-.082Zm-.661-.471.058-.082-.243-.173.09.285.095-.03Zm.244.774.06.08.057-.042-.022-.068-.095.03Zm-.653.484-.06-.08-.24.177.3.003v-.1Zm.812.007.095-.032-.023-.067-.07-.001-.002.1Zm2.8-.843-.66.472.116.163.661-.472-.116-.163Zm.778.472-.661-.472-.116.163.661.472.116-.163Zm-.397-.663.244.774.19-.06-.243-.775-.191.06Zm.688-.594-.652.483.119.16.652-.482-.119-.161Zm-.753.173.812.007.002-.2-.812-.007-.002.2Zm-.352-.838.258.77.19-.064-.258-.77-.19.064Zm-.068.77.258-.77-.19-.064-.258.77.19.064Zm-.906.075.812-.007-.002-.2-.812.007.002.2Zm.711.303-.652-.483-.12.16.653.484.12-.16Zm-.208.885.244-.774-.19-.06-.245.774.191.06Zm2.91.16-.812-.007-.002.2.812.007.002-.2Zm.352.838-.258-.77-.19.064.258.77.19-.064Zm.068-.77-.258.77.19.064.258-.77-.19-.064Zm.906-.075-.812.007.002.2.812-.007-.002-.2Zm-.711-.303.652.483.12-.16-.653-.484-.12.16Zm.208-.885-.244.774.19.06.245-.774-.191-.06Zm-.508.583.661-.472-.116-.163-.661.472.116.163Zm-.777-.472.66.472.117-.163-.661-.472-.116.163Zm.397.663-.244-.774-.19.06.243.775.191-.06Zm-.688.594.652-.483-.119-.16-.652.482.118.161Zm1.488 1.517.653.483.119-.16-.653-.483-.119.16Zm.87-.187-.811.007.001.2.812-.007-.001-.2Zm.165-.702-.258.77.19.063.257-.77-.19-.063Zm.447.77-.258-.77-.19.063.259.77.19-.063Zm.718-.061-.812-.007-.002.2.812.007.002-.2Zm-.594.663.653-.483-.12-.16-.652.483.12.16Zm.28.665-.244-.775-.19.06.243.775.191-.06Zm-.815-.36.662.471.116-.163-.662-.471-.116.163Zm-.545.471.662-.471-.117-.163-.66.471.115.163Zm.09-.886-.243.775.19.06.244-.775-.19-.06Zm.191 2.464-.244-.775-.19.06.244.775.19-.06Zm-.688.593.653-.483-.12-.16-.652.483.119.16Zm.753-.173-.812-.007-.001.2.812.007.001-.2Zm.352.839-.258-.77-.19.063.259.77.19-.063Zm.069-.77-.258.77.19.063.257-.77-.19-.063Zm.905-.076-.812.007.002.2.812-.007-.002-.2Zm-.71-.303.652.483.119-.16-.653-.484-.119.161Zm.207-.885-.244.775.191.06.244-.775-.19-.06Zm-.508.583.662-.471-.116-.163-.662.471.116.163Zm-.777-.471.661.471.116-.163-.66-.471-.117.163Zm-.983 1.884-.258.77.19.064.258-.77-.19-.064Zm.448.77-.258-.77-.19.064.258.77.19-.064Zm.718-.06-.812-.008-.002.2.812.007.002-.2Zm-.594.663.652-.483-.119-.161-.652.483.119.16Zm.28.664-.244-.775-.191.06.244.775.19-.06Zm-.815-.36.661.471.116-.162-.661-.472-.116.163Zm-.545.471.661-.471-.116-.163-.661.472.116.162Zm.09-.886-.244.775.191.06.244-.774-.19-.06Zm-.617-.372.653.483.12-.16-.654-.484-.118.16Zm.871-.188-.812.007.002.2.812-.007-.002-.2Zm-2.284.943.661-.472-.116-.163-.661.472.116.163Zm-.777-.472.66.472.117-.163-.661-.472-.116.163Zm.397.663-.244-.774-.19.06.243.774.191-.06Zm-.688.594.652-.483-.119-.161-.653.483.12.161Zm.753-.173-.812-.007-.002.2.812.007.002-.2Zm.352.838-.258-.77-.19.064.258.77.19-.064Zm.068-.77-.258.77.19.064.258-.77-.19-.064Zm.906-.075-.812.007.002.2.812-.007-.002-.2Zm-.711-.303.652.483.12-.16-.653-.484-.12.16Zm.208-.885-.244.774.19.06.245-.774-.191-.06Zm-2.096-.353-.812-.007-.002.2.812.007.002-.2Zm-.594.664.652-.483-.118-.161-.653.483.119.16Zm.28.664-.244-.775-.191.06.244.775.19-.06Zm-.815-.36.661.471.116-.162-.66-.472-.117.163Zm-.545.471.661-.471-.116-.163-.661.472.116.162Zm.09-.886-.244.775.191.06.244-.774-.19-.06Zm-.616-.372.652.483.12-.16-.653-.484-.12.16Zm.87-.188-.812.007.002.2.812-.007-.002-.2Zm.164-.702-.258.77.19.064.258-.77-.19-.064Zm.448.77-.258-.77-.19.064.258.77.19-.064Zm-1.603-1.88.653.482.119-.16-.653-.484-.119.161Zm.208-.886-.244.775.191.06.244-.775-.19-.06Zm-.507.583.66-.471-.115-.163-.661.471.116.163Zm-.778-.471.662.471.116-.163-.662-.471-.116.163Zm.398.663L7.3 9.427l-.191.06.244.775.19-.06Zm-.689.593.653-.483-.12-.16-.652.483.12.16Zm.754-.173-.812-.007-.002.2.812.007.002-.2Zm.351.839-.258-.77-.19.063.259.77.19-.063Zm.069-.77-.258.77.19.063.257-.77-.19-.063Zm.906-.076-.812.007.001.2.812-.007-.001-.2Zm-.313-2.102-.244-.775-.19.06.243.775.191-.06Zm-.814-.36.66.471.117-.163-.661-.471-.116.163Zm-.546.471.662-.471-.116-.163-.662.471.116.163Zm.09-.886-.243.775.19.06.245-.775-.191-.06Zm-.616-.373.653.483.119-.16-.653-.483-.119.16Zm.87-.187-.811.007.002.2.812-.007-.002-.2Zm.165-.702-.258.77.19.063.257-.77-.19-.063Zm.447.77-.258-.77-.19.063.259.77.19-.063Zm.718-.061-.812-.007-.001.2.812.007.001-.2Zm-.594.663.653-.483-.119-.16-.653.483.12.16Zm1.294-2.105-.258.77.19.064.258-.77-.19-.064Zm.906-.075-.812.007.002.2.812-.007-.002-.2Zm-.711-.303.652.483.12-.16-.653-.484-.12.16Zm.208-.885-.244.774.19.06.245-.774-.191-.06Zm-.508.583.661-.472-.116-.163-.661.472.116.163Zm-.777-.472.661.472.116-.163-.661-.472-.116.163Zm.397.663-.244-.774-.19.06.243.775.191-.06Zm-.688.594.652-.483-.119-.16-.652.482.119.161Zm.753-.173-.812-.007-.002.2.812.007.002-.2Zm.352.838-.258-.77-.19.064.258.77.19-.064Z" mask="url(#d)"/></g></g></g><path stroke="#000" stroke-opacity=".1" stroke-width=".5" d="M.25.25h23.5v17.5H.25z"/><defs><clipPath id="a"><path fill="#fff" d="M0 0h24v18H0z"/></clipPath></defs></svg>