<svg xmlns="http://www.w3.org/2000/svg" fill="none" viewBox="0 0 24 18"><g clip-path="url(#a)"><mask id="b" width="24" height="18" x="0" y="0" maskUnits="userSpaceOnUse" style="mask-type:luminance"><path fill="#fff" d="M0 0h24v18H0z"/></mask><g mask="url(#b)"><path fill="#1D1D1D" fill-rule="evenodd" d="M0 0v18h24V0z" clip-rule="evenodd"/><mask id="c" width="24" height="18" x="0" y="0" maskUnits="userSpaceOnUse" style="mask-type:luminance"><path fill="#fff" fill-rule="evenodd" d="M0 0v18h24V0z" clip-rule="evenodd"/></mask><g mask="url(#c)"><path fill="#F50100" fill-rule="evenodd" d="M0 0v9h24V0z" clip-rule="evenodd"/><path fill="#FFEA42" d="m7.45 4.422.32-1.053c2.4.732 3.847 2.017 4.254 3.849.27 1.215.147 2.301-.29 3.269-.31.689-.706 1.204-1.274 1.783-.947.966-2.506 1.582-3.913 1.32a7.9 7.9 0 0 1-2.707-1.03l.574-.94q1.06.651 2.333.888c1.016.188 2.22-.288 2.93-1.01.485-.495.81-.917 1.056-1.465.34-.754.436-1.597.218-2.576-.31-1.398-1.448-2.408-3.501-3.035"/><g fill-rule="evenodd" clip-rule="evenodd" filter="url(#d)"><path fill="#FCFF01" d="m7.385 7.098-.712.493.251-.826-.691-.521.867-.018.285-.815.285.815.867.018-.691.521.251.826z"/><path fill="#FFEA42" d="m7.385 7.098-.712.493.251-.826-.691-.521.867-.018.285-.815.285.815.867.018-.691.521.251.826z"/></g><g fill-rule="evenodd" clip-rule="evenodd" filter="url(#e)"><path fill="#FCFF01" d="M5.71 7.395s-1.262 1.851-.268 2.528 6.253 3.53 6.253 3.53 1.086-.006 1.241.225.476.503.612.503c.135 0 .485-.245.485-.245s.273-.223 0-.483c-.272-.26-1.715-1.149-1.715-1.149s-5.631-3.593-6.11-3.95c-.479-.355-.498-.96-.498-.96"/><path fill="#FFEA42" d="M5.71 7.395s-1.262 1.851-.268 2.528 6.253 3.53 6.253 3.53 1.086-.006 1.241.225.476.503.612.503c.135 0 .485-.245.485-.245s.273-.223 0-.483c-.272-.26-1.715-1.149-1.715-1.149s-5.631-3.593-6.11-3.95c-.479-.355-.498-.96-.498-.96"/></g><path fill="#FFEA42" fill-rule="evenodd" d="m8.784 3.056-.292.662.958.415.272-.662zm1.96 1.057-.528.495.72.757.509-.503zm.72 1.99.675-.262.37.957-.66.276zm1.315 1.874-.723-.023-.026 1.044.716.004zm-.894 1.919.662.292-.414.938-.663-.272zm-.392 2.255-.495-.527-.757.72.503.509zm-1.986.724.262.675-.957.37-.276-.66zm-1.87 1.316.023-.723-1.044-.026-.004.716zm-1.913-.895-.293.662-.938-.415.272-.662z" clip-rule="evenodd"/></g></g></g><rect width="23" height="17" x=".5" y=".5" stroke="#000" stroke-opacity=".1" rx="1.5"/><defs><filter id="d" width="2.305" height="2.181" x="6.232" y="5.411" color-interpolation-filters="sRGB" filterUnits="userSpaceOnUse"><feFlood flood-opacity="0" result="BackgroundImageFix"/><feColorMatrix in="SourceAlpha" result="hardAlpha" values="0 0 0 0 0 0 0 0 0 0 0 0 0 0 0 0 0 0 127 0"/><feOffset/><feColorMatrix values="0 0 0 0 0 0 0 0 0 0 0 0 0 0 0 0 0 0 0.2 0"/><feBlend in2="BackgroundImageFix" result="effect1_dropShadow_701_25140"/><feBlend in="SourceGraphic" in2="effect1_dropShadow_701_25140" result="shape"/></filter><filter id="e" width="9.095" height="6.786" x="5.06" y="7.395" color-interpolation-filters="sRGB" filterUnits="userSpaceOnUse"><feFlood flood-opacity="0" result="BackgroundImageFix"/><feColorMatrix in="SourceAlpha" result="hardAlpha" values="0 0 0 0 0 0 0 0 0 0 0 0 0 0 0 0 0 0 127 0"/><feOffset/><feColorMatrix values="0 0 0 0 0 0 0 0 0 0 0 0 0 0 0 0 0 0 0.2 0"/><feBlend in2="BackgroundImageFix" result="effect1_dropShadow_701_25140"/><feBlend in="SourceGraphic" in2="effect1_dropShadow_701_25140" result="shape"/></filter><clipPath id="a"><rect width="24" height="18" fill="#fff" rx="2"/></clipPath></defs></svg>