<svg xmlns="http://www.w3.org/2000/svg" fill="none" viewBox="0 0 24 18"><g clip-path="url(#a)"><mask id="b" width="24" height="18" x="0" y="0" maskUnits="userSpaceOnUse" style="mask-type:luminance"><path fill="#fff" d="M0 0h24v18H0z"/></mask><g mask="url(#b)"><path fill="#F7FCFF" fill-rule="evenodd" d="M0 0h24v18H0V0Z" clip-rule="evenodd"/><path fill="#E31D1C" d="M.02 4.125h24v2.25h-24z"/><path fill="#E31D1C" fill-rule="evenodd" d="M0 0h24v2.25H0V0Z" clip-rule="evenodd"/><path fill="#E31D1C" d="M-.044 8.25h24v2.25h-24zm.128 4.05h24v2.25h-24zm-.008 3.825h24v2.25h-24z"/><path fill="#3D58DB" fill-rule="evenodd" d="M0 0h12v10.5H0V0Z" clip-rule="evenodd"/><path fill="#F7FCFF" fill-rule="evenodd" d="M6.1 6.91 3.907 8.43l.7-2.603L3 4.164l2.178-.09.921-2.574.922 2.574h2.174L7.59 5.827l.804 2.449L6.099 6.91Z" clip-rule="evenodd"/></g></g><path stroke="#000" stroke-opacity=".1" stroke-width=".5" d="M.25.25h23.5v17.5H.25z"/><defs><clipPath id="a"><path fill="#fff" d="M0 0h24v18H0z"/></clipPath></defs></svg>