<svg xmlns="http://www.w3.org/2000/svg" fill="none" viewBox="0 0 24 18"><g clip-path="url(#a)"><path fill="#fff" d="M0 0h24v18H0z"/><path fill="#C51918" stroke="#4857A1" d="M14.54 8.5H7.933l7.5 9H.5V.84z"/><mask id="b" width="17" height="18" x="0" y="0" maskUnits="userSpaceOnUse" style="mask-type:luminance"><path fill="#fff" stroke="#fff" d="M14.54 8.5H7.933l7.5 9H.5V.84z"/></mask><g fill-rule="evenodd" clip-rule="evenodd" mask="url(#b)"><path fill="#F7FCFF" d="M4.372 15.008 3.453 16.2l-.042-1.505-1.444.425.85-1.242-1.418-.506 1.418-.505-.85-1.243 1.444.425.042-1.505.92 1.193.918-1.193.043 1.505 1.444-.425-.85 1.243 1.418.505-1.418.506.85 1.242-1.444-.425L5.29 16.2zM4.35 6.104l-.48.623-.022-.786-.754.222.444-.65-.74-.263.74-.264-.444-.649.754.222.022-.786.48.623.48-.623.022.786.754-.222-.444.65.741.263-.74.264.443.649-.754-.222-.022.786z"/><path fill="#F9FAFA" d="M4.25 5.92c1.67.007 2.56-.94 2.56-.94.176 1.08-1.184 1.8-2.544 1.8s-2.183-.98-2.69-1.8c0 0 1.004.934 2.674.94"/></g></g><rect width="23" height="17" x=".5" y=".5" stroke="#000" stroke-opacity=".1" rx="1.5"/><defs><clipPath id="a"><rect width="24" height="18" fill="#fff" rx="2"/></clipPath></defs></svg>