<svg xmlns="http://www.w3.org/2000/svg" fill="none" viewBox="0 0 24 18"><g clip-path="url(#a)"><path fill="#19BFBF" d="M0 0h24v18H0z"/><path fill="#fff" fill-rule="evenodd" d="M4.72 7.245a.333.333 0 0 0 .15.447l1.689.845a.333.333 0 0 1 .15.447l-.274.546a.333.333 0 0 1-.447.15l-.775-.388a.333.333 0 0 0-.149-.035H3.762a.333.333 0 0 0-.333.333v.57c0 .143.091.27.228.316l.974.325a.333.333 0 0 1 .13.552l-.092.092a.333.333 0 0 0-.098.236v.38c0 .035.006.07.018.104l.51 1.533a.333.333 0 0 0 .167.192l.805.402a.333.333 0 0 0 .385-.062l.973-.973.244-.244a.333.333 0 0 0-.087-.534l-.562-.282a.301.301 0 0 1 .207-.56l1.66.414c.148.037.252.17.252.323v.782c0 .066.02.13.056.185l.988 1.482a.333.333 0 0 0 .277.148h.168a.333.333 0 0 0 .309-.21l.783-1.958a.333.333 0 0 1 .608-.025l.215.43a.333.333 0 0 0 .063.087l1.066 1.067a.332.332 0 0 0 .087.062l.612.306c.221.11.482-.05.482-.298v-.466a.334.334 0 0 0-.098-.235l-.238-.238a.333.333 0 0 1 0-.472l.238-.238a.333.333 0 0 1 .236-.097h.926a.333.333 0 0 0 .15-.036l.888-.444a.333.333 0 0 0 .184-.298v-.799a.333.333 0 0 0-.098-.235l-.238-.238a.333.333 0 0 1 0-.472l.58-.58a.333.333 0 0 1 .534.087l.294.588a.256.256 0 0 0 .457-.229l-.237-.475a.333.333 0 0 1 .149-.447l.546-.273a.333.333 0 0 0 .15-.448l-.361-.72a.333.333 0 0 0-.193-.168l-1.072-.357a.333.333 0 0 1-.13-.552l.664-.664a.333.333 0 0 1 .236-.098h1.37a.333.333 0 0 0 .298-.184l.261-.522a.333.333 0 0 0-.268-.48l-5.125-.467a.317.317 0 0 1-.196-.54.314.314 0 0 0 .093-.224v-.678a.333.333 0 0 0-.333-.333h-2.386a.333.333 0 0 0-.236.098l-1.551 1.55a.333.333 0 0 1-.155.089L8 4.686l-2.166.541a.333.333 0 0 1-.23-.025l-.313-.156a.333.333 0 0 0-.465.403l.273.82a.333.333 0 0 1-.018.254l-.36.722Zm7.852 7.155a.571.571 0 1 1-1.143 0 .571.571 0 0 1 1.143 0Zm-4-5.143a.571.571 0 1 0 0-1.143.571.571 0 0 0 0 1.143Zm10.857 1.714v.572l-.574.574a.333.333 0 0 0 .235.569h.133a.333.333 0 0 0 .298-.185l.479-.958-.571-.572Zm0 0 .316-.158c.206-.103.132-.413-.098-.413a.218.218 0 0 0-.218.218v.353Z" clip-rule="evenodd"/></g><path stroke="#000" stroke-opacity=".1" stroke-width=".5" d="M.25.25h23.5v17.5H.25z"/><defs><clipPath id="a"><path fill="#fff" d="M0 0h24v18H0z"/></clipPath></defs></svg>