<svg xmlns="http://www.w3.org/2000/svg" fill="none" viewBox="0 0 24 18"><g clip-path="url(#a)"><mask id="b" width="24" height="18" x="0" y="0" maskUnits="userSpaceOnUse" style="mask-type:luminance"><path fill="#fff" d="M0 0h24v18H0z"/></mask><g mask="url(#b)"><path fill="#5196ED" fill-rule="evenodd" d="M0 0v18h24V0H0Z" clip-rule="evenodd"/><mask id="c" width="24" height="18" x="0" y="0" maskUnits="userSpaceOnUse" style="mask-type:luminance"><path fill="#fff" fill-rule="evenodd" d="M0 0v18h24V0H0Z" clip-rule="evenodd"/></mask><g fill-rule="evenodd" clip-rule="evenodd" mask="url(#c)"><path fill="#AF0100" d="M0 9v4.5h24V9H0Z"/><path fill="#F7FCFF" d="M0 4.5V9h24V4.5H0Z"/><path fill="#FECA00" d="M0 0v4.5h24V0H0Z"/><path fill="#5EAA22" d="m0 0 14.25 9L0 18V0Z"/><path fill="#F7FCFF" d="M5.478 12.376s-2.687-.917-2.592-3.789c.095-2.872 2.832-3.434 2.832-3.434-.959-.692-4.388.119-4.498 3.434-.11 3.315 3.237 4.052 4.258 3.789Zm.081-5.02.084-.49-.356-.348.493-.071L6 6l.22.447.493.071-.356.348.084.49L6 7.127l-.44.23Zm.084 1.01-.084.49.441-.23.44.23-.083-.49.356-.348-.493-.071L6 7.5l-.22.447-.493.071.356.348Zm-.084 1.99.084-.49-.356-.348.493-.071L6 9l.22.447.493.071-.356.348.084.49-.441-.23-.44.23Zm0 1.5.084-.49-.356-.348.493-.071L6 10.5l.22.447.493.071-.356.348.084.49-.441-.23-.44.23Z"/></g></g></g><path stroke="#000" stroke-opacity=".1" stroke-width=".5" d="M.25.25h23.5v17.5H.25z"/><defs><clipPath id="a"><path fill="#fff" d="M0 0h24v18H0z"/></clipPath></defs></svg>