<svg xmlns="http://www.w3.org/2000/svg" fill="none" viewBox="0 0 24 18"><g clip-path="url(#a)"><mask id="b" width="24" height="18" x="0" y="0" maskUnits="userSpaceOnUse" style="mask-type:luminance"><path fill="#fff" d="M0 0h24v18H0z"/></mask><g mask="url(#b)"><path fill="#2B409A" fill-rule="evenodd" d="M0 .075h24v18H0z" clip-rule="evenodd"/></g><path fill="#2B409A" d="M0 0h13.5v10.5H0z"/><mask id="c" width="14" height="11" x="0" y="0" maskUnits="userSpaceOnUse" style="mask-type:luminance"><path fill="#fff" d="M0 0h13.5v10.5H0z"/></mask><g mask="url(#c)"><path fill="#F7FCFF" d="m-1.503 9.75 2.97 1.303 12.1-9.636L15.134-.52l-3.177-.435-4.935 4.152L3.05 5.995z"/><path fill="#F50100" d="m-1.097 10.663 1.514.756L14.572-.7h-2.125z"/><path fill="#F7FCFF" d="m15.003 9.75-2.97 1.303-12.1-9.636L-1.634-.52l3.177-.435 4.935 4.152 3.972 2.798z"/><path fill="#F50100" d="m14.902 10.405-1.514.756-6.027-5.188-1.787-.58-7.36-5.906H.34l7.355 5.766 1.954.695z"/><mask id="d" width="17" height="14" x="-2" y="-2" fill="#000" maskUnits="userSpaceOnUse"><path fill="#fff" d="M-2-2h17v14H-2z"/><path fill-rule="evenodd" d="M7.488 0h-1.5v4.5H0V6h5.988v4.5h1.5V6H13.5V4.5H7.488z" clip-rule="evenodd"/></mask><path fill="#F50100" fill-rule="evenodd" d="M7.488 0h-1.5v4.5H0V6h5.988v4.5h1.5V6H13.5V4.5H7.488z" clip-rule="evenodd"/><path fill="#F7FCFF" d="M5.988 0v-1.5h-1.5V0zm1.5 0h1.5v-1.5h-1.5zm-1.5 4.5V6h1.5V4.5zM0 4.5V3h-1.5v1.5zM0 6h-1.5v1.5H0zm5.988 0h1.5V4.5h-1.5zm0 4.5h-1.5V12h1.5zm1.5 0V12h1.5v-1.5zm0-4.5V4.5h-1.5V6zM13.5 6v1.5H15V6zm0-1.5H15V3h-1.5zm-6.012 0h-1.5V6h1.5zm-1.5-3h1.5v-3h-1.5zm1.5 3V0h-3v4.5zM0 6h5.988V3H0zm1.5 0V4.5h-3V6zm4.488-1.5H0v3h5.988zm1.5 6V6h-3v4.5zm0-1.5h-1.5v3h1.5zm-1.5-3v4.5h3V6zM13.5 4.5H7.488v3H13.5zm-1.5 0V6h3V4.5zM7.488 6H13.5V3H7.488zm-1.5-6v4.5h3V0z" mask="url(#d)"/></g><path fill="#6A4C2D" d="M18.239 13.914c-.046 0-.214-.09-.214-.09s-.12.191-.184.202-.392-.118-.392-.118-.231.18-.283.169l-.582-.124-.289-.18s-.161.259-.167.253a18 18 0 0 0-.484-.095s.144-.198.144-.203-.07-.028-.07-.028l-.103.084-.427.04.104-.294.167-.247 2.047-1.945 1.01 1.82-.15.547s-.081.209-.127.209"/><path stroke="#FB0" stroke-linecap="round" stroke-linejoin="round" stroke-width=".5" d="M16.283 13.546c.071.086 1.01 1.046 1.163 1.5.152.455-1.236-.126-1.236-.126s1.748-1.134 2.62-1.134 2.589 1.134 2.589 1.134-1.152.811-1.14.3.54-1.518 1.171-1.674"/><path fill="#F7FCFF" d="m22.156 13.62-.287-.107-.254-.336-1.052-.078-.96-.261-.404.27.218.284.532.196z"/><path fill="#656263" d="M17.954 7.4c.01.024.224-.02.27.11.231-.342.502-.017.502-.017l.228-.27.258.244.236-.018.247.58-1.948-.037s.198-.617.207-.592m2.02 2.465c-.016-.183-.179-.204-.27-.198a.33.33 0 0 0-.172.082l-.3-.186s.15-.927.31-.985c.151-.107.178-.153.178-.177 0-.025-.056-.124-.056-.124l-.98-.113-.926.107s-.072.145-.063.188c.01.042.013.088.178.214.184.138.31.93.31.93s-.26.125-.275.11c-.016-.016-.094-.031-.135-.025a.245.245 0 0 0-.175.248c0 .174.135.275.135.275s.886.65 1.017.888c.128-.288.97-.937 1.07-.986.041-.024.17-.064.154-.248"/><path fill="#000" d="M20.858 9.001c.073-.048.563-.072.681 0s.162.427.162.427.073.124.078.215.015.153.015.153.392.499.397.949c.044.306.034 1.125-.088 1.437-.005.388-.172.642-.172.642s.04.067.034.139-.044.138-.044.138l-.367.158-.407-.066-.461-1.347.108-2.275.03-.115-.05-.306s.01-.101.084-.149"/><path fill="#F7FCFF" d="M18.197 10.196s.495 0 .549.157c.094-.21.523-.197.523-.197l.777-.026.014 1.834c-.152.711-.68 1.214-1.26 1.428-.693-.219-1.13-.79-1.274-1.441l-.08-1.742z"/><path fill="#006B00" d="m17.713 10.202 1.094 2.847.988-2.909c-.307.02-.964-.047-1.046.226-.126-.244-.818-.146-1.036-.164"/><path fill="#FFD100" fill-rule="evenodd" d="M18.98 10.649s.1.259 0 .387c-.099.129.009.234.069.234s.266.204.099.204-.262-.063-.262.116.231.986.163 1.18-.051.341.047.292c.097-.05.159-.175.105-.419-.053-.244-.105-.186-.105-.397 0-.21.052-.444.052-.444s.087.066.025.306.077.572.077.662.005.338-.049.362c-.053.025-.102.175-.152.06s-.081-.302-.145-.172-.051.427-.118.441c-.066.015-.165.156-.165.1 0-.057-.094-.16-.065-.255s.053-.107.076-.015c.023.091.12.09.12.015s-.034-.039 0-.21c.034-.172.072-.4 0-.386s-.182.126-.196-.08-.074-.303-.027-.343c.048-.04.111-.184.131-.071s-.069.22-.054.261c.015.04.023.133.084.056s.098-.205.145-.087.047.025-.049-.2c-.096-.224-.177-.35-.165-.546.011-.198-.004-.271.011-.335.016-.063-.171-.372-.124-.46.048-.09.066-.377.124-.325s.088.12.058.198c-.03.077-.06.154-.03.206s.134.203.154.165.09-.001.09-.215c0-.215-.077-.29-.029-.341.05-.05.106.056.106.056" clip-rule="evenodd"/><path fill="#1E5AA6" d="m19.8 10.14.148-.003-.263.326.316.36-.622.765.587.69c-.065.154-.14.295-.24.422l-.336-.364.61-.744-.501-.556zm-2.264.07.295.311-.312.38.65.69-.538.704c.064.154.157.326.256.453l.32-.395-.657-.713.481-.597-.337-.837z"/><path fill="#1E5AA6" d="m18.425 12.058-.232.302.828.937a2 2 0 0 0 .387-.254l-.432-.487.175-.505.253.285-.79.985a1.7 1.7 0 0 1-.41-.247l.417-.518z"/><path fill="url(#e)" d="M21.289 9.638c0 .048.052 2.874.11 2.848.141-.068.174.079.174.079s.05.465-.073.527a2 2 0 0 1-.317.14l-.213-.154s-.215-.302-.264-.436-.108-.733-.089-.863c.02-.129.034-.886.025-.924s-.05-.67-.025-.766.177-.518.172-.518c0 0 .5.02.5.067"/><path fill="#FF7000" d="M20.799 9.154c.103 0 .181.087.206.163.005.034-.01.058-.005.12s-.745.014-.75.01c0 0 .348-.33.549-.293"/><path fill="#fff" stroke="#000" stroke-linejoin="round" stroke-width=".5" d="M21.622 13.25s.235-.053.3-.134c.038-.029.244.302-.3.134Z"/><path fill="#000" d="M21.232 9.345a.038.038 0 1 1-.075 0 .038.038 0 0 1 .075 0"/><path fill="#F7FCFF" d="M19.366 8.932s.39.413.643.408c.046.121-.115.234-.18.288-.128-.04-.244.007-.543-.352.019-.229.084-.335.08-.344m1.552-2.078c.036.264-.002.326-.02.437-.017.111.679.152.858-.068-.019.1-.227.501-1.174.497.359.332-.114.597-.317.516.372-.278-.105-.444-.371-.265.05-.152.422-.92 1.024-1.117"/><path fill="#00F" fill-rule="evenodd" d="M20.288 8.713c-.071-.292-.106-.627.051-.755-.207-.14-.432.004-.432.004q-.002.006-.011.018c-.049.066-.21.288.011.687-.587-.152-.341.381-.298.422.023-.086.335-.166.413.269.027.088-.132.215-.183.256l-.014.013s.497.101.562-.556c.085-.05.497-.326.485-.893-.38.007-.547.425-.584.535" clip-rule="evenodd"/><path fill="#F7FCFF" d="M18.066 9.048s-.381.323-.597.22c-.161.094-.35-.072-.35-.072s.221.795 1.011.22a2 2 0 0 0-.064-.368"/><path fill="#00F" d="M17.464 9.255c.032-.166.165-.247.271-.09.142.027.285-.543-.22-.449.142-.745-.285-1.023-.285-1.023s-.152.826-.083.978c.07.153-.1-.282-.647-.404-.01.624.61.916.61.916s.175.157.354.072"/><path fill="#F7FCFF" d="M16.948 8.354c-.161.05-.552-.186-.304-.492-.813-.018-1.256-.704-.985-.573.271.13.465-.148.667 0-.248-.225.086-.404.086-.404s.694.202.818.803c-.041.117-.06.323-.069.314 0-.004-.43-.007-.213.352"/><path fill="#CDAD56" d="M18.245 5.573c.004-.02.524-.199.559-.494s-.007-.096-.007-.096.144-.133.091-.206-.035.093-.12.09-.038-.179-.038-.179-.007-.02-.032-.03c-.035.003-.116-.073-.116-.073s-.052-.068-.098.148c.025.23.176.185.176.336s-.134.268-.172.271c-.039.004-.025-.127-.025-.127s-.02-.062-.035-.062c-.014 0 .077-.013.063-.185-.031-.206-.056.048-.112.038s-.014-.189.007-.21c.02-.02-.025-.106-.148.114-.01.106-.024-.028-.049-.02-.042.085-.035.147.025.226.088.079.144.158.14.199-.003.04-.049.134-.112.134s.003-.114 0-.151c-.004-.038-.109-.175-.109-.175s-.074-.117-.067-.12c.007-.004-.168.168-.063.257-.08-.01-.087.02-.087.02 0 .042.108.059.122.13.014.073-.112.114-.112.114s.053.072.2-.069c.004.09-.056.151-.056.151.049.022.088.02.095.076 0 0 .077-.086.08-.107m-.562.107s-.066-.095-.069-.114-.323.024-.474-.358c-.099-.18 0-.075 0-.075l.006-.087s-.105-.125-.06-.19c.045-.066.026.084.084.084.071-.003.032-.162.032-.162s.006-.02.027-.028c.03.003.042.097.07.103.026.006.081-.11.099-.135.024-.003.023-.096.062.1-.02.21-.198.169-.198.306s.113.244.146.247.021-.116.021-.116.018-.056.03-.056-.104.022-.092-.134c.026-.146.086.01.134 0 .047-.01-.006-.155.008-.177.003-.022.073-.117.1.093.01.097.063-.083.084-.077.036.078-.016.182-.066.254-.075.072-.109.15-.105.188.003.037.02.084.074.084s.018-.066.02-.1c.004-.034.093-.145.093-.145.018-.028.003-.079.022-.103.029 0 .041-.039.07.07s.066-.072.066-.072.042.135-.047.216c.068-.01.074.019.074.019 0 .037-.032.053-.044.118a.11.11 0 0 0 .035.103s-.044.066-.17-.062a.2.2 0 0 0 .048.137c-.042.02-.074.018-.08.069"/><path fill="#923F00" d="M18.506 5.606c-.076.224-.353.14-.353.14 0-.001.009.111-.018.165a.95.95 0 0 0 .358.175c.247.047.753-.08.923.108.17.189.16.34.16.34s-.22.026-.159.104c.04.05.15.088.16.14.03.167-.104.466-.056.578-.076.007-.082.085-.082.085-.005.09-.225.037-.225.037s.138-.346.147-.427c.009-.08-.097-.224-.18-.224s-.142.256-.142.256-.041.192-.027.21-.056-.062-.056-.062-.021.078-.057.125c-.04.054-.094.076-.094.076s-.041-.116-.028-.161.226-.22.207-.346c-.008-.055-.015-.152-.085-.184-.088-.04-.249-.011-.347-.031-.053.091-.078.592-.041.624.037.031-.092.098-.092.098l-.151.005c-.003-.068.089-.254.089-.41 0-.158.012-.326.012-.326s-.102.026-.157.126a.6.6 0 0 0-.04.264c.008.05.054.189.04.23-.013.04-.252.094-.252.094l-.01-.13s.102-.063.102-.22.009-.382.004-.395c-.002-.008-.082-.352-.188-.584-.07-.154-.178-.225-.183-.238-.014-.031-.014-.067-.014-.067s-.152.108-.331-.121c.164-.137.34-.036.34-.036s.046-.126.257-.117c.211.01.252.126.243.112 0 0 .157-.134.326-.013"/><path fill="#00F" d="M19.336 7.94c.003 0 .39.012.394.214.003.202-.119.15-.123.15l-.283-.034z"/><path fill="#F7FCFF" d="M18.96 7.885s.483-.004.456.202c-.027.205-.15.164-.15.164l-.232-.019z"/><path fill="#00F" d="m18.69 7.862.279.023s.168.022.16.18c-.007.156-.172.16-.172.16l-.271-.015z"/><path fill="#F7FCFF" d="M18.036 7.94c-.004 0-.39.012-.394.214s.118.15.122.15l.283-.034z"/><path fill="#00F" d="M18.41 7.885s-.482-.004-.455.202c.027.205.15.164.15.164l.233-.019z"/><path fill="#F7FCFF" d="m18.682 7.862-.28.023s-.168.022-.16.18c.008.156.172.16.172.16l.271-.015z"/><path fill="#5E0043" d="M19.715 9.873c.074.025.018.248-.018.27l-.267-.011s.2-.29.285-.259m-1.661.31c-.064-.086-.155-.323-.24-.258-.074.024-.017.248.018.269z"/><path fill="#B4B6B9" d="m17.72 8.523.967.618.87-.572s.182-.098.166-.168-.078-.043-.11-.031c-.03.012-.91.62-.91.62l-.936-.577s-.069-.022-.081.021c-.013.043.025.067.035.089"/><path fill="#FF7000" d="M20.96 13.07s-.422.128-.305.132c.088.002.507 0 .507 0zm.171.14-.375.01s-.094.085-.1.104c-.006.02.062.026.062.026s.387.099.68.035c.147-.05.173-.111.07-.148-.104-.037-.334-.026-.337-.027"/><path fill="#8A9396" d="M16.793 9.742s-.049.15 0 .225.356.682.356.682.21-.252.286-.26c.077-.006.042.656.042.656s-.126.115-.203.108c-.076-.006.189.26.182.485s-.35 1.343-.475 1.363-.234-.21-.234-.41.13-.517.123-.606-.624.95-.662 1.113a.5.5 0 0 0 .034.142s-.242.02-.189.327c-.711-.246-1.06-.668-1.053-1.098.003-.164-.154-.551 0-.98.248-.687.854-1.473.858-1.549.007-.123.056-.177.063-.245s-.021-.416.049-.478c.07-.06.432-.21.523-.204.09.007.167.068.167.068s.342 0 .363.13-.07.177-.07.177.05.184-.16.354"/><path fill="#2B2B2B" d="M16.997 13.61c.115.079.381.126.381.126s-.654.176-1.318-.166c-.061-.266.142-.325.192-.328.118-.03.63.287.745.367"/><path fill="#00713D" d="M17.797 13.58c.716.38.792.124 1.285-.235.034-.025.197.577.888.236.978-.483-.838-1.289-1.095-1.271-.256.018-1.793.893-1.078 1.27"/></g><rect width="23" height="17" x=".5" y=".5" stroke="#000" stroke-opacity=".1" rx="1.5"/><defs><linearGradient id="e" x1="21.206" x2="21.763" y1="11.705" y2="11.699" gradientUnits="userSpaceOnUse"><stop stop-color="#D5DFFF"/><stop offset="1" stop-color="#fff"/></linearGradient><clipPath id="a"><rect width="24" height="18" fill="#fff" rx="2"/></clipPath></defs></svg>