<svg xmlns="http://www.w3.org/2000/svg" fill="none" viewBox="0 0 24 18"><g clip-path="url(#a)"><mask id="b" width="24" height="18" x="0" y="0" maskUnits="userSpaceOnUse" style="mask-type:luminance"><path fill="#fff" d="M0 0h24v18H0z"/></mask><g mask="url(#b)"><path fill="#F7FCFF" fill-rule="evenodd" d="M0 0h24v18H0V0Z" clip-rule="evenodd"/><path fill="#3547A0" stroke="#E31D1C" stroke-width="2" d="M0-1h-1v9.307L-2.848 9-1 9.693V19h25l.351-1.936L2.848 9 24.351.936 24-1H0Z"/><path fill="#9C3900" fill-rule="evenodd" d="m21.767 3.833-2.053.554c-.074.02-.214.056-.204-.144a5.297 5.297 0 0 1-1.13.509c-.115.032-.085-.167-.134-.224-.1.147-.354.362-.427.383-.719.208-1.196.359-1.432.453 0 0-.336.324-.336.58 0 .258-.036.477-.268.477s-.767.467-.57.73c.195.262.838.122.838 0 0-.123.458-.277.458-.139 0 .139-.122.389-.122.389h.506l-.384.199h.384l-.384.235h.72l-.46.205h.319l-.195.27h.499s.194.197.377.304c.183.107.588 1.02.386 1.374-.203.353.046.406.091.25.046-.155.14-.377.222-.377h.238l.11.29.262.28s.019-.243.068-.28c0 0 .205.02.304-.003 0 0-.044-.354-.04-.402 0 0 .316.108.452.106 0 0-.204-.32-.204-.428 0 0 .38.019.38.18l-.043-.402s.359-.153.371-.281l-.235-.03s.122-.154.111-.185l-.347-.044s.38-.132.408-.215c0 0-.085-.134-.163-.187l-.265-.172.692.004s.155-.056.035-.15c0 0-.116-.071-.1-.139 0 0 .079-.152.06-.179 0 0 .086.112.086-.165 0 0 .002-.279-.052-.292 0 0 .156-.115.095-.188s-.718-.269-.876-.269l1.204-.763s.084-.315.206-.503c0 0 .32-.287.384-.512.065-.225.246-.78.246-.78v-.255l-.088-.064Z" clip-rule="evenodd"/><path fill="#212121" fill-rule="evenodd" d="m19.658 9.424.049.003c.2.016.31.066.327.15l.01.076a.319.319 0 0 0-.01-.075l-.039-.376c.24-.102.363-.196.371-.281l-.179-.022-.017.022-.011-.026-.028-.003.017-.022-.01-.026.027.004c.058-.077.084-.124.077-.142L20 8.676l-.088.031s-.009-.047-.005-.049l-.005-.043.092.011c.19-.072.294-.131.31-.18a.633.633 0 0 0-.163-.186l-.19-.123h-.076s.01-.049.015-.049l.012-.04.063.04.603.004c.103-.037.115-.087.035-.15-.077-.048-.111-.094-.1-.139a.985.985 0 0 0 .054-.118.17.17 0 0 1-.032-.032l.039-.029.04-.026c.01.015.014.033.011.056.022-.014.034-.079.034-.195a.878.878 0 0 0-.023-.254l-.029-.038.012-.046c.011.002.02.007.029.014.071-.063.089-.114.054-.156-.054-.065-.568-.223-.799-.26l-.05.032s-.022-.04-.015-.048l-.012-.04a.5.5 0 0 1 .067.005l1.137-.72c.056-.21.124-.379.206-.504.213-.192.341-.362.384-.512.043-.15.125-.41.246-.78v-.255l-.088-.064c-1.005.27-1.69.456-2.053.554-.074.02-.214.056-.204-.144a5.297 5.297 0 0 1-1.13.509c-.074.02-.088-.053-.101-.124-.008-.04-.015-.08-.033-.1-.1.147-.354.362-.427.383-.719.208-1.196.359-1.432.453-.224.216-.336.41-.336.58 0 .258-.036.477-.268.477s-.767.467-.57.73c.195.262.838.122.838 0 0-.123.458-.277.458-.139 0 .092-.04.222-.122.389h.402l.081-.043.012.048.011.042h-.092l-.292.152h.292l.067-.04.013.047.012.04h-.078l-.306.188h.602l.098-.043.01.047.01.044h-.107l-.354.157h.26l.02-.027.015.027h.025l-.015.02.015.028h-.035l-.16.223h.499c.13.13.255.232.377.303.183.107.588 1.02.386 1.374-.203.353.046.406.091.25.046-.155.14-.377.222-.377h.238l.11.29.262.28s.019-.243.068-.28a.98.98 0 0 0 .304-.003 12.538 12.538 0 0 1-.006-.049c-.018-.143-.03-.244-.05-.308l.015-.045s.048.011.049.016c.186.061.32.091.404.09-.11-.173-.176-.3-.199-.388a.184.184 0 0 1-.005-.04Zm.22-.807-.191.067.49.062a1.24 1.24 0 0 1-.084.117l-.052.066.257.031c-.042.056-.149.124-.322.198l-.033.014.028.267a.815.815 0 0 0-.31-.063l-.051-.003v.05c0 .075.053.196.16.373a2.304 2.304 0 0 1-.345-.095l-.06-.02-.004.062c-.003.034.009.153.035.366a1.19 1.19 0 0 1-.245-.005l-.034.009c-.035.026-.053.08-.068.168a1.189 1.189 0 0 0-.007.04l-.184-.195-.119-.313h-.27c-.105 0-.201.182-.27.412-.012.044-.044.057-.06.043-.03-.027-.022-.118.058-.257.1-.175.073-.477-.045-.818-.101-.292-.252-.558-.358-.62a1.832 1.832 0 0 1-.367-.296l-.015-.014h-.425l.194-.27h-.188l.46-.206h-.775l.385-.235h-.358l.385-.199h-.627a.893.893 0 0 0 .094-.34c0-.064-.048-.098-.116-.102a.494.494 0 0 0-.176.027c-.147.047-.263.126-.263.213 0 .003-.025.024-.074.044a.823.823 0 0 1-.228.053c-.201.019-.373-.024-.449-.126-.071-.096-.022-.247.122-.403.132-.142.312-.25.41-.25.129 0 .217-.06.265-.17a.891.891 0 0 0 .051-.354c0-.154.104-.335.316-.54.236-.094.71-.244 1.418-.449.078-.022.277-.19.4-.313.01.054.017.082.034.108.026.044.071.062.126.047a5.43 5.43 0 0 0 1.074-.473c.013.062.047.101.099.118.047.015.09.01.16-.01l2.03-.548.05.036v.223c-.12.367-.2.625-.243.775-.04.14-.164.304-.379.5-.082.126-.15.292-.207.498l-1.327.841h.165c.15 0 .79.194.839.251.017.02-.002.057-.087.12l-.081.06.09.022a.176.176 0 0 1 .012.044c.008.045.012.113.011.204a.642.642 0 0 1-.012.147s-.067.035-.07.035a.145.145 0 0 1-.006.026c-.01.027-.027.066-.057.125-.016.07.029.132.12.188.045.036.044.042-.016.064l-.683-.003-.164-.001.402.26a.54.54 0 0 1 .132.147.391.391 0 0 1-.081.053 2.125 2.125 0 0 1-.285.117Zm.64-.976v.001-.001Z" clip-rule="evenodd"/><path fill="#fff" fill-rule="evenodd" d="M20.555 8.094s1.431.19 1.518.19c.087 0 .447-.091.323-.668-.123-.576-.073-.925-.426-.925s-.721.153-.854.153h-.56c-.558 0-3.874-.019-4.113.247-.239.266-.91.641-1.221.774-.311.132-.391.04-.53.42-.14.38-.245.406-.245.406l.244.272h.725s.5-.626 1.535-.678c1.037-.053 3.604-.19 3.604-.19Z" clip-rule="evenodd"/><path fill="#4D4D4D" fill-rule="evenodd" d="M16.951 8.285c.691-.035 1.892-.099 3.604-.19.954.126 1.46.19 1.518.19.087 0 .447-.092.323-.669a6.664 6.664 0 0 1-.064-.36c-.057-.358-.09-.565-.362-.565-.219 0-.444.06-.615.104-.104.027-.189.05-.239.05h-.668c-.783-.002-3.778-.006-4.005.246-.239.266-.91.641-1.221.774-.08.034-.144.053-.198.069-.158.047-.229.068-.333.35-.093.254-.174.39-.244.407l.244.272h.725c.333-.417.845-.644 1.535-.678Zm-1.57.606h-.657l-.168-.187c.067-.07.132-.2.204-.395a1.04 1.04 0 0 1 .075-.17c.044-.072.078-.096.17-.125l.02-.005.086-.027c.048-.015.092-.031.14-.051.409-.175 1.031-.552 1.247-.792.04-.045.287-.096.676-.133.35-.033.812-.056 1.36-.07a64.424 64.424 0 0 1 1.96-.02h.622a.697.697 0 0 0 .157-.026l.117-.03.088-.023a2.195 2.195 0 0 1 .492-.074c.17 0 .22.08.275.41l.013.082.02.129c.016.09.03.168.047.247.05.236.02.393-.066.488a.28.28 0 0 1-.186.094c-.052 0-.567-.065-1.522-.19-1.712.092-2.913.155-3.603.19-.696.035-1.22.26-1.567.678Z" clip-rule="evenodd"/><path fill="#FFC221" fill-rule="evenodd" d="M14.63 8.55s-.546.35-.345.585c.2.235.22.265.26.265 0 0 .01-.252.075-.252s.577.245.763-.169c.185-.413-.753-.43-.753-.43Zm-1.188 1.14 1.256-.232.482.522.14-.467.345.084v.236h.127v.324l.904.189.113-.31s.294.485.746.461c.453-.024.533.104.613-.255.08-.359.3-.551.3-.551l.528.177s-.58.712-.302.936l2.065.477-.082.25h-.237l.064.216-2.257-.156s-.251.319-.251.238c0-.082-.014-.082-.125-.082s-.169-.156-.169-.156l-.147.057s.023.003-.162-.057c-.184-.06-.293-.06-.293-.06l-.762-.056v.116s-.202.01-.132.057c.07.046 1.496.1 1.496.1l-.087.16s.706.002.854-.08c.148-.08.053.18.053.18h.7s-.174.165-.396.165c-.223 0 .639.274.639.274s-.481.149-.704.05c-.223-.099.094.191.235.264.14.073-.495.067-.749-.215 0 0 .08.209 0 .268 0 0-.444-.524-.666-.524-.223 0 .034.346.034.346s-.126-.18-.268-.107c-.142.073-.247.156-.247.156s-.093-.32-.583-.452c-.491-.133-.326-.181-.725-.224-.398-.043-.418-.262-.473-.262-.054 0-.476-.368-.476-.368s-.093-.346.126-.346c.22 0 .568-.104.696 0 .127.103.181 0 .181 0h.225l.321.248h.638s.123-.188.317-.248 0-.23 0-.23-.463.027-.651.099c-.188.072-.068-.348-.068-.348l-.836-.152-.127.152-.277.084v.166l-.292-.065.084-.497-.683.312-1.055-.863Z" clip-rule="evenodd"/><path fill="#4D4D4D" fill-rule="evenodd" d="m17.641 11.86.061-.113c-.867-.032-1.358-.063-1.474-.091a.078.078 0 0 1-.022-.008c-.07-.047.132-.057.132-.057v-.116l.049.004.713.053c.072 0 .17.02.293.06l.12.038a.053.053 0 0 1 .01-.016.12.12 0 0 1 .024-.013h.015s-.003.047-.007.047l.103-.04.044-.017a.31.31 0 0 0 .065.11l.01.01a.14.14 0 0 0 .094.036c.111 0 .125 0 .125.082 0 .054.084-.025.251-.238l2.257.156-.064-.168.01-.013-.01-.034h.037l.01-.014.004.014h.186l.082-.25-2.065-.478c-.185-.15-.084-.461.302-.936l-.527-.177c-.148.128-.248.312-.301.551-.06.267-.12.265-.332.256a2.754 2.754 0 0 0-.28 0c-.302.015-.55-.138-.747-.462l-.113.31-.904-.19v-.323h-.127v-.236l-.346-.084-.123.413.02.022-.028.006-.008.026-.018-.02-.028.006.008-.028-.444-.48-1.256.233 1.055.863.63-.287.005-.033.025.019.023-.01-.004.024.025.019-.03.013-.075.44.292.065v-.166l.277-.084.127-.152s.79.14.793.145l.043.007a4.016 4.016 0 0 0-.012.047c-.065.245-.038.346.08.3.125-.047.342-.08.65-.097.13.112.13.189 0 .229a.572.572 0 0 0-.316.248h-.638l-.321-.248h-.225c-.036.069-.096.069-.181 0-.086-.07-.272-.046-.45-.023a1.942 1.942 0 0 1-.246.023c-.146 0-.188.115-.126.346.281.245.44.368.476.368.015 0 .028.017.047.043.049.065.139.188.426.219.216.023.267.048.346.087.067.033.154.076.379.137.327.088.521.239.583.452 0 0 .105-.083.247-.156.091-.048.178-.016.26.096-.041-.059-.225-.335-.026-.335.148 0 .37.175.666.524.04-.03.05-.088.03-.175a.564.564 0 0 1-.066-.062s.037-.029.042-.025l.04-.023c.011.03.02.057.027.083.284.216.805.216.676.15a1.258 1.258 0 0 1-.292-.239c-.03-.038-.03-.059.034-.035a.672.672 0 0 1 .023.01c.148.065.383.048.704-.051a5.588 5.588 0 0 1-.649-.233c-.051-.027-.048-.04.01-.04a.052.052 0 0 0-.005-.012.166.166 0 0 0 .02.011.542.542 0 0 0 .286-.09h.039a.913.913 0 0 0 .042-.054l-.002-.006.016-.014h-.02l.004.014a.654.654 0 0 1-.079.06h-.047a.646.646 0 0 0 .069-.074h-.576l-.006.016-.011-.016h-.034l.01-.032.006-.016c.043-.137.02-.181-.07-.133-.094.053-.36.079-.798.08l-.012.022-.013-.023h-.03l.014-.025-.013-.022h.025Zm-3.136-1.362-.953-.78 1.129-.208.521.565.15-.505.264.065v.246h.128v.314l.983.206.095-.258c.196.282.443.417.736.402.088-.005.158-.004.26 0 .17.007.208.005.263-.029.065-.039.1-.113.134-.264a.957.957 0 0 1 .265-.507l.436.147c-.367.464-.46.781-.244.956l2.025.468-.055.168h-.266l.062.21-2.213-.152-.016.02a2.57 2.57 0 0 1-.171.201c-.016-.053-.06-.064-.167-.064-.05 0-.09-.037-.123-.124l-.017-.046s-.183.063-.189.061a6.928 6.928 0 0 0-.134-.044 1.067 1.067 0 0 0-.306-.062l-.813-.06v.123a.645.645 0 0 0-.032.005.23.23 0 0 0-.08.023c-.047.028-.045.081.002.112.058.039.509.07 1.444.105l-.088.163h.08c.48.002.768-.025.877-.085a.191.191 0 0 1 .018-.009.704.704 0 0 1-.034.131l-.023.064h.627a.493.493 0 0 1-.254.07.156.156 0 0 0-.057.007c-.035.014-.05.052-.027.085.016.021.05.04.113.067.088.038.236.09.444.158-.233.058-.406.06-.518.01a.266.266 0 0 0-.074-.023c-.038-.005-.073.015-.072.058.002.032.026.063.073.11.05.051.12.11.183.154a1.062 1.062 0 0 1-.113-.013c-.205-.032-.392-.111-.494-.225l-.174-.194.092.242a.4.4 0 0 1 .036.168c-.282-.324-.498-.487-.657-.487-.074 0-.123.032-.136.091a.228.228 0 0 0 .017.129.212.212 0 0 0-.138.023 1.744 1.744 0 0 0-.2.122c-.085-.198-.285-.338-.595-.421a2.29 2.29 0 0 1-.345-.122l-.009-.004-.05-.024a.936.936 0 0 0-.327-.076.568.568 0 0 1-.318-.116.652.652 0 0 1-.075-.083.45.45 0 0 0-.046-.05.09.09 0 0 0-.039-.014 1.244 1.244 0 0 1-.117-.08 7.502 7.502 0 0 1-.316-.266c-.05-.194-.02-.271.082-.271.064 0 .118-.006.256-.024l.028-.003c.222-.029.328-.027.38.016.097.077.185.085.24.01h.18l.322.25h.682l.014-.023a.525.525 0 0 1 .29-.229c.172-.053.172-.176.018-.31l-.035-.012c-.314.018-.535.051-.666.101-.035.014-.04.012-.045-.015-.01-.049.004-.142.042-.275l.015-.05-.917-.166-.136.162-.298.09v.141l-.187-.041.091-.542-.738.337Zm3.05 1.151c.008.001.01 0 .006-.002l-.006.002Zm-1.328.008Z" clip-rule="evenodd"/></g></g><path stroke="#000" stroke-opacity=".1" stroke-width=".5" d="M.25.25h23.5v17.5H.25z"/><defs><clipPath id="a"><path fill="#fff" d="M0 0h24v18H0z"/></clipPath></defs></svg>