<svg xmlns="http://www.w3.org/2000/svg" fill="none" viewBox="0 0 24 18"><g clip-path="url(#a)"><path fill="#19BFBF" d="M0 0h24v18H0z"/><path fill="#fff" fill-rule="evenodd" d="m11.429 12.686-.48-.959a.33.33 0 0 0-.298-.184h-.227a.33.33 0 0 1-.236-.098l-2.09-2.09A.33.33 0 0 1 8 9.119v-.867a.33.33 0 0 0-.097-.235l-.98-.98a.33.33 0 0 1-.088-.155L6.33 4.863a.33.33 0 0 0-.218-.235l-1.518-.506-.044-.018-.937-.47a.33.33 0 0 1-.184-.297v-.604c0-.184.149-.333.333-.333h.672a.33.33 0 0 1 .235.098l.376.376a.33.33 0 0 0 .236.097h.867a.33.33 0 0 0 .235-.097l.377-.376a.33.33 0 0 1 .235-.098h2.07q.078 0 .148.035l1.003.501a.3.3 0 0 0 .149.035h.985a.3.3 0 0 0 .15-.035l1.001-.5a.3.3 0 0 1 .15-.036h1.873c.184 0 .333.15.333.333v.476a.333.333 0 0 1-.333.334h-.476a.333.333 0 0 0-.334.333v1.175c0 .126.072.242.185.298l.476.238a.333.333 0 0 0 .482-.298v-.841c0-.185.15-.334.334-.334h1.095c.158 0 .286.128.286.286s.128.286.285.286h1.096c.184 0 .333.149.333.333v.755a.3.3 0 0 1-.017.106l-.53 1.588a.3.3 0 0 1-.08.13l-1.62 1.62a.3.3 0 0 0-.063.087l-.512 1.025a.3.3 0 0 0-.035.149v.73c0 .185-.15.334-.334.334h-.032a.33.33 0 0 1-.298-.184l-.387-.775a.33.33 0 0 0-.298-.184h-1.302a.33.33 0 0 0-.299.184l-.404.81a.33.33 0 0 0 0 .298l.404.81a.33.33 0 0 0 .299.184h.798c.089 0 .173.035.236.097l.948.948a.33.33 0 0 1 .097.236v.671a.333.333 0 0 1-.333.333h-.604a.33.33 0 0 1-.298-.184l-.387-.774a.33.33 0 0 0-.298-.184h-.73a.33.33 0 0 1-.299-.185z" clip-rule="evenodd"/></g><rect width="23" height="17" x=".5" y=".5" stroke="#000" stroke-opacity=".1" rx="1.5"/><defs><clipPath id="a"><rect width="24" height="18" fill="#fff" rx="2"/></clipPath></defs></svg>