<svg xmlns="http://www.w3.org/2000/svg" fill="none" viewBox="0 0 24 18"><g clip-path="url(#a)"><mask id="b" width="24" height="18" x="0" y="0" maskUnits="userSpaceOnUse" style="mask-type:luminance"><path fill="#fff" d="M0 0h24v18H0z"/></mask><g mask="url(#b)"><path fill="#2B409A" fill-rule="evenodd" d="M0 .075h24v18H0v-18Z" clip-rule="evenodd"/></g><path fill="#2B409A" d="M0 0h13.5v10.5H0z"/><mask id="c" width="14" height="11" x="0" y="0" maskUnits="userSpaceOnUse" style="mask-type:luminance"><path fill="#fff" d="M0 0h13.5v10.5H0z"/></mask><g mask="url(#c)"><path fill="#F7FCFF" d="m-1.503 9.75 2.97 1.303 12.1-9.636L15.134-.52l-3.176-.435-4.936 4.152L3.05 5.995-1.503 9.75Z"/><path fill="#F50100" d="m-1.096 10.663 1.513.756L14.572-.7h-2.125L-1.096 10.663Z"/><path fill="#F7FCFF" d="m15.003 9.75-2.97 1.303-12.1-9.636L-1.634-.52l3.176-.435 4.936 4.152 3.972 2.798 4.553 3.755Z"/><path fill="#F50100" d="m14.902 10.405-1.514.756-6.027-5.188-1.787-.58-7.36-5.906H.34l7.355 5.766 1.954.695 5.253 4.457Z"/><mask id="d" width="17" height="14" x="-2" y="-2" fill="#000" maskUnits="userSpaceOnUse"><path fill="#fff" d="M-2-2h17v14H-2z"/><path fill-rule="evenodd" d="M7.488 0h-1.5v4.5H0V6h5.988v4.5h1.5V6H13.5V4.5H7.488V0Z" clip-rule="evenodd"/></mask><path fill="#F50100" fill-rule="evenodd" d="M7.488 0h-1.5v4.5H0V6h5.988v4.5h1.5V6H13.5V4.5H7.488V0Z" clip-rule="evenodd"/><path fill="#F7FCFF" d="M5.988 0v-1.5h-1.5V0h1.5Zm1.5 0h1.5v-1.5h-1.5V0Zm-1.5 4.5V6h1.5V4.5h-1.5ZM0 4.5V3h-1.5v1.5H0ZM0 6h-1.5v1.5H0V6Zm5.988 0h1.5V4.5h-1.5V6Zm0 4.5h-1.5V12h1.5v-1.5Zm1.5 0V12h1.5v-1.5h-1.5Zm0-4.5V4.5h-1.5V6h1.5ZM13.5 6v1.5H15V6h-1.5Zm0-1.5H15V3h-1.5v1.5Zm-6.012 0h-1.5V6h1.5V4.5Zm-1.5-3h1.5v-3h-1.5v3Zm1.5 3V0h-3v4.5h3ZM0 6h5.988V3H0v3Zm1.5 0V4.5h-3V6h3Zm4.488-1.5H0v3h5.988v-3Zm1.5 6V6h-3v4.5h3Zm0-1.5h-1.5v3h1.5V9Zm-1.5-3v4.5h3V6h-3ZM13.5 4.5H7.488v3H13.5v-3Zm-1.5 0V6h3V4.5h-3ZM7.488 6H13.5V3H7.488v3Zm-1.5-6v4.5h3V0h-3Z" mask="url(#d)"/></g><path fill="#6A4C2D" d="M18.238 13.914c-.046 0-.213-.09-.213-.09s-.121.191-.184.202c-.064.012-.393-.118-.393-.118s-.23.18-.282.169l-.583-.124-.288-.18s-.161.259-.167.253a18.195 18.195 0 0 0-.485-.095s.145-.198.145-.203c0-.006-.07-.029-.07-.029l-.103.085-.427.04.104-.294.167-.247 2.047-1.945 1.01 1.82-.15.547s-.081.209-.128.209Z"/><path stroke="#FB0" stroke-linecap="round" stroke-linejoin="round" stroke-width=".5" d="M16.283 13.546c.071.086 1.01 1.046 1.163 1.5.152.455-1.236-.126-1.236-.126s1.748-1.134 2.62-1.134c.873 0 2.589 1.134 2.589 1.134s-1.152.811-1.14.3c.012-.511.54-1.518 1.171-1.674"/><path fill="#F7FCFF" d="m22.156 13.62-.287-.107-.254-.336-1.052-.078-.96-.261-.404.27.218.284.532.196 2.207.032Z"/><path fill="#656263" d="M17.954 7.4c.01.024.224-.02.27.11.23-.342.502-.017.502-.017l.228-.27.258.244.236-.018.247.58-1.949-.037s.198-.617.208-.592Zm2.02 2.465c-.016-.183-.179-.205-.27-.198a.328.328 0 0 0-.172.082l-.3-.186s.15-.927.31-.985c.151-.107.178-.153.178-.178 0-.024-.056-.123-.056-.123l-.98-.114-.927.108s-.071.145-.062.187c.01.043.013.09.178.215.184.138.31.93.31.93s-.26.125-.275.11c-.016-.016-.094-.031-.135-.025a.245.245 0 0 0-.175.248c0 .174.135.275.135.275s.885.65 1.017.888c.128-.288.97-.937 1.07-.986.04-.024.17-.064.154-.248Z"/><path fill="#000" d="M20.858 9.001c.073-.048.563-.072.681 0 .118.072.162.426.162.426s.073.125.078.216c.005.091.015.153.015.153s.392.498.397.949c.044.306.034 1.125-.088 1.437-.005.388-.172.641-.172.641s.04.067.034.14a.367.367 0 0 1-.044.138l-.367.158-.407-.067-.461-1.346.108-2.275.03-.115-.05-.306s.01-.101.084-.149Z"/><path fill="#F7FCFF" d="M18.197 10.196s.495 0 .549.157c.094-.21.523-.197.523-.197l.777-.026.014 1.834c-.152.711-.68 1.214-1.26 1.428-.693-.219-1.13-.79-1.274-1.441l-.08-1.742.75-.013Z"/><path fill="#006B00" d="m17.713 10.202 1.094 2.847.987-2.91c-.306.02-.963-.046-1.045.227-.127-.245-.818-.146-1.036-.164Z"/><path fill="#FFD100" fill-rule="evenodd" d="M18.98 10.649s.1.259 0 .387c-.099.129.009.234.069.234.06 0 .266.204.099.204s-.262-.064-.262.116c0 .179.231.986.163 1.18-.068.193-.052.341.046.292.098-.05.16-.176.106-.42-.053-.243-.106-.185-.106-.396 0-.21.053-.444.053-.444s.087.066.025.306c-.063.24.077.572.077.662 0 .09.005.338-.049.362-.053.025-.102.175-.152.06-.05-.114-.081-.302-.145-.172-.064.13-.052.427-.118.441-.066.015-.165.156-.165.1 0-.057-.094-.16-.066-.255.029-.095.054-.107.077-.015.023.091.12.09.12.015s-.034-.039 0-.21c.034-.172.072-.4 0-.386-.072.014-.182.126-.197-.08-.014-.207-.073-.303-.026-.343.048-.04.111-.184.131-.071.02.113-.069.22-.054.261.015.04.023.133.084.056.062-.077.098-.205.145-.087.046.118.047.025-.049-.2-.096-.224-.177-.35-.165-.546.011-.198-.005-.271.011-.335.016-.063-.171-.372-.124-.461.047-.089.066-.376.124-.324.058.052.088.12.058.198-.03.077-.06.154-.03.206.03.052.133.203.154.165.02-.038.09-.001.09-.216 0-.214-.077-.29-.029-.34.05-.051.106.056.106.056Z" clip-rule="evenodd"/><path fill="#1E5AA6" d="m19.8 10.14.148-.003-.263.326.316.36-.622.765.587.69c-.065.154-.14.295-.24.422l-.336-.364.61-.744-.501-.556.302-.896Zm-2.264.069.295.312-.312.38.649.69-.537.704c.064.154.157.326.256.453l.32-.395-.657-.713.481-.597-.337-.838-.158.004Z"/><path fill="#1E5AA6" d="m18.424 12.058-.231.302.828.937c.146-.072.261-.155.386-.254l-.431-.487.175-.505.253.285-.79.985a1.744 1.744 0 0 1-.41-.247l.417-.518-.197-.498Z"/><path fill="url(#e)" d="M21.289 9.638c0 .048.052 2.874.11 2.847.142-.067.174.08.174.08s.05.465-.073.527c-.22.115-.317.14-.317.14l-.212-.154s-.216-.302-.265-.436c-.05-.134-.108-.733-.089-.863.02-.129.035-.886.025-.924-.01-.039-.049-.67-.025-.767.025-.095.177-.517.172-.517 0 0 .5.02.5.067Z"/><path fill="#FF7000" d="M20.799 9.154c.103 0 .181.087.206.163.005.034-.01.058-.005.12.005.062-.745.014-.75.01 0 0 .348-.33.549-.293Z"/><path fill="#fff" stroke="#000" stroke-linejoin="round" stroke-width=".5" d="M21.622 13.25s.236-.053.3-.134c.039-.029.244.302-.3.134Z"/><path fill="#000" d="M21.232 9.345a.038.038 0 1 1-.075 0 .038.038 0 0 1 .075 0Z"/><path fill="#F7FCFF" d="M19.366 8.932s.39.412.643.408c.045.121-.115.234-.18.288-.128-.04-.244.007-.543-.352.019-.229.084-.336.08-.344Zm1.552-2.078c.037.264-.002.326-.02.437-.017.111.679.152.858-.068-.019.1-.227.501-1.174.497.359.332-.114.597-.316.516.372-.278-.106-.444-.372-.265.05-.152.422-.92 1.024-1.117Z"/><path fill="#00F" fill-rule="evenodd" d="M20.288 8.712c-.071-.291-.106-.626.051-.754-.207-.14-.431.004-.431.004l-.012.018c-.048.066-.209.288.011.687-.587-.152-.341.381-.298.422.023-.086.335-.166.413.269.027.088-.132.215-.182.256-.012.01-.018.014-.015.013 0 0 .497.101.562-.556.085-.05.497-.326.485-.893-.38.007-.547.425-.584.534Z" clip-rule="evenodd"/><path fill="#F7FCFF" d="M18.066 9.048s-.381.323-.597.22c-.161.094-.35-.072-.35-.072s.221.795 1.011.22a1.79 1.79 0 0 0-.064-.368Z"/><path fill="#00F" d="M17.464 9.255c.032-.166.165-.247.271-.09.143.027.285-.543-.22-.449.142-.745-.285-1.023-.285-1.023s-.152.826-.083.978c.07.153-.1-.283-.647-.404-.01.624.61.916.61.916s.175.157.354.072Z"/><path fill="#F7FCFF" d="M16.947 8.354c-.16.05-.551-.186-.303-.492-.813-.018-1.256-.704-.985-.573.271.13.465-.148.667 0-.248-.225.086-.404.086-.404s.694.202.818.803c-.041.117-.06.323-.069.314 0-.004-.43-.007-.214.352Z"/><path fill="#CDAD56" d="M18.245 5.573c.004-.02.523-.199.558-.494.035-.295-.007-.096-.007-.096s.145-.134.092-.206c-.053-.072-.035.093-.12.09-.084-.004-.038-.179-.038-.179s-.007-.02-.032-.03c-.035.003-.116-.073-.116-.073s-.052-.068-.098.148c.024.23.176.185.176.336 0 .151-.134.268-.172.271-.04.004-.025-.127-.025-.127s-.021-.062-.035-.062c-.014 0 .077-.013.063-.185-.031-.206-.056.048-.112.038-.056-.01-.014-.189.007-.21.02-.02-.025-.106-.148.114-.01.106-.024-.028-.049-.02-.042.085-.035.147.025.226.088.079.144.157.14.199-.003.04-.05.133-.112.133-.063 0 .003-.113 0-.15-.004-.038-.109-.175-.109-.175s-.074-.117-.067-.12c.007-.004-.168.168-.063.257-.08-.01-.088.02-.088.02 0 .042.11.059.123.13.014.073-.112.114-.112.114s.053.072.2-.069a.223.223 0 0 1-.056.151c.049.022.087.02.094.076 0 0 .078-.086.081-.107Zm-.562.107s-.066-.095-.069-.114c-.003-.019-.323.024-.474-.358-.098-.18 0-.075 0-.075l.006-.087s-.105-.125-.06-.19c.045-.066.026.084.084.084.071-.003.033-.162.033-.162s.006-.02.027-.029c.03.004.041.098.068.104.027.006.083-.11.1-.135.025-.003.024-.097.063.1-.021.21-.199.169-.199.306 0 .137.113.244.146.247.033.003.021-.116.021-.116s.018-.056.03-.056-.104.022-.092-.134c.027-.146.086.01.134 0 .048-.01-.006-.155.008-.177.003-.022.073-.117.1.093.01.097.064-.084.084-.077.036.078-.015.182-.066.254-.075.072-.108.15-.105.188.003.037.02.084.074.084.054 0 .018-.066.021-.1.003-.034.092-.145.092-.145.018-.028.003-.08.022-.103.03 0 .041-.04.071.07.03.11.066-.072.066-.072s.041.135-.048.216c.068-.01.074.019.074.019 0 .037-.032.053-.044.118a.11.11 0 0 0 .035.103s-.044.066-.17-.062a.209.209 0 0 0 .048.137c-.042.02-.074.018-.08.069Z"/><path fill="#923F00" d="M18.507 5.606c-.077.224-.354.139-.354.139s.01.112-.018.166a.95.95 0 0 0 .358.175c.247.047.753-.081.923.108.17.188.16.34.16.34s-.22.026-.159.104c.04.05.15.088.16.14.03.167-.104.466-.055.578-.077.007-.083.085-.083.085-.004.09-.225.036-.225.036s.138-.345.147-.426c.01-.08-.097-.224-.18-.224-.082 0-.142.255-.142.255s-.04.193-.027.211a1.51 1.51 0 0 1-.055-.063s-.022.079-.058.126c-.04.053-.094.076-.094.076s-.041-.116-.027-.161c.013-.045.225-.22.206-.346-.008-.055-.015-.152-.085-.184-.088-.04-.249-.011-.346-.031-.054.091-.079.592-.042.624.037.031-.091.098-.091.098l-.152.005c-.003-.068.09-.254.09-.41 0-.158.01-.326.01-.326s-.101.026-.155.126a.59.59 0 0 0-.042.264c.01.05.055.189.042.23-.014.04-.253.093-.253.093l-.01-.13s.102-.062.102-.22c0-.157.01-.381.005-.395-.003-.008-.083-.351-.188-.583-.07-.154-.179-.225-.184-.238-.014-.031-.014-.067-.014-.067s-.152.108-.33-.121c.163-.137.34-.036.34-.036s.045-.126.256-.117c.211.009.253.126.244.112 0 0 .156-.134.326-.013Z"/><path fill="#00F" d="M19.336 7.94c.004 0 .39.012.394.214.004.202-.119.15-.122.15l-.284-.034.012-.33Z"/><path fill="#F7FCFF" d="M18.961 7.885s.482-.004.455.202c-.027.205-.149.164-.149.164l-.233-.019-.073-.347Z"/><path fill="#00F" d="m18.69 7.862.279.023s.168.022.16.18c-.007.156-.172.16-.172.16l-.271-.015.003-.348Z"/><path fill="#F7FCFF" d="M18.035 7.94c-.003 0-.39.012-.393.214-.004.202.118.15.122.15l.283-.034-.012-.33Z"/><path fill="#00F" d="M18.41 7.885s-.482-.004-.455.202c.027.205.15.164.15.164l.233-.019.072-.347Z"/><path fill="#F7FCFF" d="m18.682 7.862-.28.023s-.168.022-.16.18c.008.156.172.16.172.16l.272-.015-.004-.348Z"/><path fill="#5E0043" d="M19.715 9.873c.074.025.018.248-.017.269l-.268-.01s.2-.29.285-.259Zm-1.662.31c-.063-.086-.155-.323-.239-.258-.074.024-.018.248.018.269l.221-.01Z"/><path fill="#B4B6B9" d="m17.72 8.523.967.618.87-.572s.182-.098.166-.168c-.015-.071-.078-.043-.11-.031-.03.012-.91.62-.91.62l-.936-.577s-.069-.022-.081.021c-.013.043.026.067.035.089Z"/><path fill="#FF7000" d="M20.96 13.07s-.422.128-.305.132c.088.002.507 0 .507 0l-.202-.132Zm.171.14-.375.01s-.094.084-.1.104c-.006.02.062.026.062.026s.387.099.68.035c.147-.05.173-.111.07-.148-.104-.037-.334-.026-.337-.027Z"/><path fill="#8A9396" d="M16.793 9.742s-.049.15 0 .225c.049.075.356.682.356.682s.21-.252.286-.26c.077-.006.042.655.042.655s-.126.116-.203.11c-.076-.007.189.259.182.484-.007.225-.35 1.343-.475 1.363-.125.02-.234-.21-.234-.41 0-.2.13-.517.123-.606-.007-.088-.624.95-.662 1.113a.5.5 0 0 0 .034.142s-.242.02-.189.327c-.711-.246-1.06-.668-1.053-1.098.003-.164-.154-.551 0-.98.248-.688.854-1.473.858-1.549.007-.123.056-.177.063-.245.007-.068-.021-.416.049-.478.07-.06.432-.21.523-.204.09.007.167.068.167.068s.342 0 .363.13c.021.13-.07.177-.07.177s.05.184-.16.354Z"/><path fill="#2B2B2B" d="M16.997 13.61c.115.079.38.126.38.126s-.653.176-1.317-.166c-.061-.266.142-.325.192-.328.118-.03.63.287.745.367Z"/><path fill="#00713D" d="M17.797 13.58c.715.38.792.124 1.285-.235.034-.025.197.577.888.236.978-.483-.838-1.289-1.095-1.271-.256.018-1.794.893-1.078 1.27Z"/></g><path stroke="#000" stroke-opacity=".1" stroke-width=".5" d="M.25.25h23.5v17.5H.25z"/><defs><linearGradient id="e" x1="21.206" x2="21.763" y1="11.705" y2="11.699" gradientUnits="userSpaceOnUse"><stop stop-color="#D5DFFF"/><stop offset="1" stop-color="#fff"/></linearGradient><clipPath id="a"><path fill="#fff" d="M0 0h24v18H0z"/></clipPath></defs></svg>