<svg xmlns="http://www.w3.org/2000/svg" fill="none" viewBox="0 0 24 18"><g clip-path="url(#a)"><path fill="#19BFBF" d="M0 0h24v18H0z"/><path fill="#fff" fill-rule="evenodd" d="M6.885 4.855a.333.333 0 0 1 .093-.29l2.067-2.067a.333.333 0 0 1 .236-.098h1.37c.126 0 .242.071.298.184l.387.774a.333.333 0 0 0 .299.185h1.873c.127 0 .242.071.299.184l1.53 3.06a.333.333 0 0 0 .298.184h.841c.275 0 .432.314.267.534l-1.296 1.728a.33.33 0 0 0-.032.05l-.523 1.046a.333.333 0 0 0-.035.15v.985a.333.333 0 0 1-.035.15l-.536 1.072-.572 1.143-.479.958a.333.333 0 0 1-.298.184h-.731a.333.333 0 0 1-.298-.184l-.444-.888a.334.334 0 0 1-.035-.15v-3.211a.333.333 0 0 0-.098-.236l-.418-.418a.334.334 0 0 1-.08-.13l-.471-1.412a.333.333 0 0 0-.316-.228H7.71a.333.333 0 0 1-.329-.278l-.497-2.981ZM16 11.762c0-.184.15-.333.333-.333h.477c.184 0 .333.149.333.333v.73a.333.333 0 0 1-.035.15l-.445.888a.333.333 0 0 1-.298.184h-.032a.333.333 0 0 1-.333-.333v-1.619Z" clip-rule="evenodd"/></g><path stroke="#000" stroke-opacity=".1" stroke-width=".5" d="M.25.25h23.5v17.5H.25z"/><defs><clipPath id="a"><path fill="#fff" d="M0 0h24v18H0z"/></clipPath></defs></svg>