<svg xmlns="http://www.w3.org/2000/svg" fill="none" viewBox="0 0 24 18"><g clip-path="url(#a)"><mask id="b" width="24" height="18" x="0" y="0" maskUnits="userSpaceOnUse" style="mask-type:luminance"><path fill="#fff" d="M0 0h24v18H0z"/></mask><g mask="url(#b)"><path fill="#FFD018" fill-rule="evenodd" d="M6 0h12v18H6z" clip-rule="evenodd"/><path fill="#2E42A5" fill-rule="evenodd" d="M0 0h6v18H0z" clip-rule="evenodd"/><path fill="#E31D1C" fill-rule="evenodd" d="M18 0h6v18h-6z" clip-rule="evenodd"/><path fill="#BF9937" fill-rule="evenodd" d="M12.224 14.568c.166-.047.308-.335.308-.335s.109.085.28.17c.172.087.35-.17.35-.17s.244 0 .351-.288c.107-.287-.213-.41-.213-.41s.374-.394 1.006-.394 1.124 0 1.536-.175c.413-.175.813-.476.963-1.1.15-.626-.324-1.02-.324-1.02s.105.034.324-.146-.134-.757-.324-.757-.213.107-.213.107-.118-.102-.279-.449c-.16-.347.161-.651.161-.651s.177.1.33-.066c.155-.167-.08-.422-.08-.422s.742-.253.635-1.2c-.108-.949-1.085-.895-1.085-.895s.03-.157-.108-.247-.24.09-.24.09c-.107-.25.21-.593.463-.866.078-.085.15-.163.203-.23.219-.283.081-.633-.72-1.014-.801-.382-1.239.13-1.303.313-.064.181.184.294.184.294a.88.88 0 0 1-.862.123c-.267-.123-.149-.497-.094-.6l.024-.04c.075-.126.233-.392.07-.65-.183-.29-.501-.29-.755-.126-.217.141-.525.216-.61.235-.084-.019-.393-.094-.61-.235-.254-.164-.572-.164-.755.126-.163.258-.005.524.07.65l.024.04c.055.103.173.477-.094.6a.88.88 0 0 1-.862-.123s.248-.113.184-.294c-.064-.182-.502-.695-1.303-.313s-.939.73-.72 1.014c.052.067.125.145.203.23.254.273.57.616.463.866 0 0-.102-.18-.24-.09s-.108.247-.108.247-.977-.054-1.085.894.634 1.2.634 1.2-.234.256-.08.423.33.066.33.066.323.304.162.651-.279.449-.279.449-.022-.107-.213-.107c-.19 0-.544.578-.324.757s.324.147.324.147-.474.393-.324 1.018.55.926.963 1.101.904.175 1.536.175 1.006.393 1.006.393-.32.124-.213.411c.107.288.35.288.35.288s.18.257.35.17c.172-.085.28-.17.28-.17s.143.288.309.335v.006l.022-.002.022.002z" clip-rule="evenodd"/><path fill="#805440" d="m9.083 11.998.078-.19q1.359.582 3.093.582 1.735 0 3.01-.581l.083.189q-1.319.6-3.093.6t-3.171-.6"/><path fill="#BF9937" fill-rule="evenodd" d="M9.358 5.425h5.656v5.272s-.001.465-.493.669c-.492.203-1.071.13-1.071.13s-.554-.119-.846 0c-.18.073-.309.11-.383.126v.014l-.035-.006-.035.006v-.014a2.6 2.6 0 0 1-.383-.126c-.292-.119-.846 0-.846 0s-.579.073-1.07-.13a.77.77 0 0 1-.494-.67z" clip-rule="evenodd"/><mask id="c" width="7" height="7" x="9" y="5" maskUnits="userSpaceOnUse" style="mask-type:luminance"><path fill="#fff" fill-rule="evenodd" d="M9.358 5.425h5.656v5.272s-.001.465-.493.669c-.492.203-1.071.13-1.071.13s-.554-.119-.846 0c-.18.073-.309.11-.383.126v.014l-.035-.006-.035.006v-.014a2.6 2.6 0 0 1-.383-.126c-.292-.119-.846 0-.846 0s-.579.073-1.07-.13a.77.77 0 0 1-.494-.67z" clip-rule="evenodd"/></mask><g mask="url(#c)"><path fill="#D00F3A" d="M9.279 5.358h2.742v2.925H9.279z"/><path fill="#FEDF00" fill-rule="evenodd" d="M12.326 5.358h2.844v2.925h-2.844zm0 3.25h2.742v3.034h-2.742z" clip-rule="evenodd"/><path fill="#FEDF00" d="M9.279 8.608h2.742v3.033H9.279z"/><path fill="#D00F3A" fill-rule="evenodd" d="M14.357 9.974s.128-.13.128-.435.107-.507-.128-.507h-.778c-.224 0-.11.136-.335 0s-.408-.092-.408 0c0 .093.228.052.228.24s.086.024.086.363.048.282.071.282.023-.061.023-.15c0-.09-.011-.448.051-.338.063.11.094.058.125.184.03.125.114.247.057.304s-.172.106-.086.106.211-.145.148-.388c-.062-.243.078-.022.078-.022s.332.073.353-.028.052.097.142.097-.087.203-.161.235 0 .057 0 .057.069.057.115 0 .21-.243.21-.339.105-.038.105.047-.098.39-.06.34zm0 1.192s.128-.13.128-.435.107-.507-.128-.507h-.778c-.224 0-.11.136-.335 0s-.408-.093-.408 0c0 .092.228.052.228.24s.086.024.086.363.048.282.071.282.023-.062.023-.15c0-.09-.011-.449.051-.338.063.11.094.058.125.183.03.126.114.248.057.305s-.172.105-.086.105.211-.144.148-.387c-.062-.243.078-.023.078-.023s.332.074.353-.027.052.097.142.097-.087.203-.161.235 0 .057 0 .057.069.056.115 0c.046-.057.21-.243.21-.34 0-.095.105-.037.105.047 0 .086-.098.39-.06.341z" clip-rule="evenodd"/><path fill="#fff" fill-rule="evenodd" d="M10.657 7.723c0 .124-.063.219-.206.363l-.058.058-.05.054c-.123.138-.338.019-.392-.116a4 4 0 0 0-.122-.22l-.004-.006-.041-.071-.038-.065-.05-.085c-.004-.01-.032.001-.082.065-.02.024.02.107.144.24l-.07.077c-.173-.168-.256-.277-.256-.352 0-.126.1-.194.29-.194.118 0 .182.084.277.294l.024.054c.047.104.077.16.113.207.044.055.07.052.115-.005a1.3 1.3 0 0 0 .146-.298l.016-.042q.021-.047.016-.05-.004-.003-.031.013l-.023.012-.048.025-.43-1.035.814-.989v2.06l-.052-.047zm.058-.002-.004.003v-.007zm.004-.004v.007l-.004-.003zm0-2.06.815.99-.43 1.034-.048-.025c-.033-.017-.05-.029-.054-.025-.005.004.007.03.032.092.061.156.102.243.146.298.045.057.07.06.114.005a1 1 0 0 0 .114-.207l.024-.054c.095-.21.158-.294.277-.294.189 0 .29.068.29.194 0 .075-.084.184-.256.352l-.07-.078c.124-.132.163-.215.144-.24-.05-.063-.079-.074-.083-.064l-.05.085-.037.065-.041.07-.004.008c-.07.12-.113.198-.122.22-.055.134-.27.253-.392.115l-.05-.054-.058-.058c-.144-.144-.207-.239-.207-.363q0-.031-.002-.053l-.052.047zm0 0-.004-.004.004-.005zm-.004-.004-.004.004v-.01zm-.05 1.985.001-.003v.001z" clip-rule="evenodd"/><path fill="#FEDF00" fill-rule="evenodd" d="M10.709 7.537v-1.67l.706.799-.363.871c-.134-.046-.18.052-.111.228.04.105.073.18.104.238-.12-.122-.17-.198-.17-.28a.3.3 0 0 0-.022-.142c-.008-.014-.071-.027-.112-.036zm-.33 0-.363-.871.689-.793v1.67l-.03.007c-.037.007-.09.018-.097.031a.3.3 0 0 0-.022.142c0 .082-.05.158-.17.28.03-.058.063-.133.104-.238.07-.176.022-.274-.111-.228" clip-rule="evenodd"/><path fill="#D00F3A" fill-rule="evenodd" d="M9.889 8.608h-.305v3.034h.305zm.609 0h-.305v3.034h.305zm.305 0h.304v3.034h-.304zm.914 0h-.305v3.034h.305zm1.32-3.25h-.305v3.034h.305zm.61 0h-.305v3.034h.304zm.304 0h.305v3.034h-.305zm.914 0h-.305v3.034h.305z" clip-rule="evenodd"/></g></g></g><rect width="23" height="17" x=".5" y=".5" stroke="#000" stroke-opacity=".1" rx="1.5"/><defs><clipPath id="a"><rect width="24" height="18" fill="#fff" rx="2"/></clipPath></defs></svg>