<svg xmlns="http://www.w3.org/2000/svg" fill="none" viewBox="0 0 24 18"><g clip-path="url(#a)"><mask id="b" width="24" height="18" x="0" y="0" maskUnits="userSpaceOnUse" style="mask-type:luminance"><path fill="#fff" d="M0 0h24v18H0z"/></mask><g mask="url(#b)"><path fill="#67BD23" d="M0 0h24v18H0z"/><path fill="#fff" fill-rule="evenodd" d="M10.83 3.055c-.098.148-.177.36-.177.46v.03c-.002.113-.005.322.128.177.146-.158.287-.344.256-.487s-.11-.329-.208-.18m-1.361.34c0-.205.251-.361.32-.361.068 0 0 .182-.125.26-.092.056-.02.085.067.118q.048.018.092.04c.105.057-.034.205-.194.253s-.16-.105-.16-.31m-.25.249c-.09.213-.26.629-.103.96l.054.114c.13.282.236.512.473.48.252-.035.369-.486.407-.636l.007-.025c.03-.115.156-.308.189-.185.017.061.008.18 0 .295s-.017.227 0 .28c.033.107.188.58.535.47.182-.059.3-.189.393-.291.083-.093.146-.163.219-.138.058.02.117.095.181.177.104.13.222.28.375.252.198-.037.341-.25.433-.385q.034-.054.06-.085c.06-.075.09-.03.13.031q.02.031.043.062c.069.081.203.136.294 0s.227-.55.051-.483l-.011.004c-.175.067-.421.161-.508-.012-.088-.177-.33-.726-.21-.726.122 0 .322 0 .28-.196-.04-.196.374.44.45.572l.082.15v.001c.164.3.493.903.56.953.07.054.13 1.107.146 1.582a1.4 1.4 0 0 0-.215-.01c-.28 0-.505.03-.687.056-.2.028-.348.048-.462.012a2 2 0 0 0-.206-.044c-.16-.027-.264-.045-.018-.131q.107-.036.233-.066c.331-.084.712-.18.682-.609-.038-.537-.109-.773-.512-.702s-.53.392-.53.702c0 .26-.035.263-.143.274l-.072.008-.062.01c-.207.027-.645.087-.923.49-.264.38-.232-.18-.216-.454l.005-.112c0-.157-.055-.295-.176-.572l-.01-.021c-.12-.273-.258-.59-.453-.288-.2.309.036.745.121.813s.525 1.028.093 1.503-1.045.942-1.21.792c-.164-.15-.262-.243-.076-.364q.048-.029.142-.073c.313-.15.927-.444.812-1.072-.071-.39-.143-.616-.183-.744-.038-.118-.048-.152-.007-.152l.033.002c.08.005.162.01.07-.232-.103-.276-.252-.59-.527-.283s-.164.499 0 .691c.165.192.445.534.124.84a8 8 0 0 0-.265.268c-.175.183-.285.298-.285.191 0-.154-.046-.36-.13-.18q-.023.053-.048.118c-.07.18-.157.408-.388.506-.287.12-.929.597-.929.597s-.422.376-.228.344.695-.175.831-.292.466-.199.466-.199.385.724.786.607c.402-.116 1.295-1.095 1.295-1.095s.552.758 1.172.808.773-.154.6-.286a2 2 0 0 0-.183-.114c-.192-.11-.413-.237-.328-.37.116-.182.356-.242.766-.308l.18-.026c.342-.046.647-.088.732-.394.044-.162.191-.27.286-.338l.045-.033.001.11c0 .285-.01 1.235-.049 1.34-.037.107.195.039.262-.075l.004-.008a.94.94 0 0 0 .162-.514l.002-.16c.004-.363.012-1.07-.057-1.23-.081-.19-.055-.376 0-.328.025.022.194.346.378.698.216.414.452.867.503.92.057.062.084-.089.11-.24a1 1 0 0 1 .056-.232c.063-.116.113-.206.113 0v.065c.006.239.017.711-.39.982q-.215.144-.37.252c-.22.153-.36.25-.447.272-.13.032-.11.278.047.278h.043c.213.007.827.027 1.199-.68.355-.674.134-2.804.079-3.336l-.012-.12a1 1 0 0 0-.036-.145c-.048-.159-.119-.397-.068-.518.042-.097.066-.084.094-.07.021.012.045.024.08-.015.08-.088.173-.216 0-.437a1.3 1.3 0 0 1-.149-.277c-.074-.17-.131-.3-.233-.161-.157.216-.231.845-.155 1.15s.411 2.737.206 2.534c-.122-.12-.234-.348-.355-.597a6 6 0 0 0-.276-.52c-.247-.4-.73-1.21-.597-1.45.039-.071.072-.118.097-.155.063-.09.081-.116.036-.26a.8.8 0 0 0-.167-.27 1 1 0 0 1-.159-.227c-.1-.205-.313-.336-.313-.142s-.108.395-.176.197c-.067-.197-.424-.62-.599-.474-.11.092-.085.145-.063.193.012.028.024.054.007.084l-.026.049c-.039.078-.08.16-.131.037l-.031-.088c-.056-.171-.133-.408-.374-.182-.289.27-.32.548-.16.707.16.16.4.54.28.714s-.346.303-.455.118a.9.9 0 0 1-.124-.655c.048-.264.122-1.07-.194-.977s-.282.56-.207.768c.075.209.117.553.058.67l-.006.014c-.064.129-.23.466-.408.351-.184-.119-.32-.456-.235-.773s.029-.82-.23-.667c-.26.154-.55.647-.55.899s-.102.555-.208.37l-.018-.03c-.105-.184-.25-.436-.172-.686.084-.264-.059-.575-.149-.362m-4.973-.465c-.015.02-.004.033.02.06.03.034.079.09.126.207.038.094.049.23.057.338.011.137.018.225.072.115.095-.196.144-.623 0-.72-.145-.096-.243-.043-.275 0m1.873.41c-.285 0-.246-.418-.246-.418s0-.04.126-.04c.085 0 .094.046.102.087q.003.028.018.048c.015.016.017-.001.019-.025.003-.03.007-.07.04-.07.058 0 .07.061.07.159 0 .097.08.02.08-.064s.075-.095.142-.095-.067.417-.351.417M4.566 8.162c-.036-.399.057-.782.228-.782s.172.381.172.381.096.784.887.819c.792.034 1.32-1.34 1.32-1.34.045-.23.032-.52.032-.52-.052-.109-.08 0-.14.221-.05.188-.123.457-.249.74-.264.593-.814.58-1.16.572h-.04c-.343-.008-.62-.578-.65-.873s.069-.527.069-.527.273-.285.263.213c-.01.499.237.58.68.616.442.035.769-.644.838-.902.07-.257-.351.143-.351.143-.115.108-.364.007-.487-.26-.124-.268.123-.584.327-.802s.435-.04.435-.04a.62.62 0 0 1 .42.256c.148.111-.013-.505-.013-.505-.103-.26-.228-1.09-.228-1.09a2 2 0 0 1-.06-.307.6.6 0 0 0-.043.186s.197.856-.084 1.123c-.138.13-.208.196-.281.2-.077.003-.158-.064-.322-.2-.322-.267-.339 0-.339.32v1.288c0 .199-.125.196-.237.194-.058 0-.112-.002-.144.025.02-.21.042-.586.042-.586.01-.177-.226-.887-.226-.887-.207-.176-.452-.62-.452-.62-.056-.33-.176-.156-.176-.156 0 .231-.073.724-.45.579-.376-.145-.165-1.493-.165-1.493s.152.015.165.358.197.598.197.598c.095.249.128-.548.128-.548.001-.327.403-.618.403-.618.222-.12.217.39.217.39a.9.9 0 0 1-.008.59c-.015.333.227.164.227.164.17-.008-.127-.968-.127-.968-.144-.34-.064-.641-.064-.641.014-.182.24-.23.24-.23.154.016.155.7.155.7 0 .43.119.816.223.895s-.018-.241-.104-.332c-.056-.057-.04-.188-.022-.343.01-.087.022-.181.022-.275 0-.257.154-.136.324-.002l.004.002c.135.106.125.279.114.464q-.004.077-.005.154c0 .24.12.402.318.556.169.13.161-.073.155-.23l-.002-.073c0-.116-.092-.291-.182-.463l-.077-.148c-.085-.173-.044-.236.04-.362q.03-.044.066-.103c.122-.205.343.015.427.205l.014.032a5 5 0 0 1-.015-.226c-.051-.154.39-.494.39-.494.275-.062.325.835.325.835.098.32-.23.194-.23.194-.16-.015.174 1.301.174 1.301.024.45.243.212.243.212.168-.067.18.366.18.366.113.172.328-.414.328-.414.15-.214.386.275.386.275.113.152.346-.281.346-.281.131-.085.097.047.054.215a1.3 1.3 0 0 0-.054.295c0 .23-.038.247-.283.36l-.01.004c-.253.116-.331-.078-.331-.078-.061-.073-.486.179-.486.179-.16.06-.259-.072-.259-.072-.069-.09-.067.284-.065.76v.25c0 .585-.888 1.319-1.711 1.461s-1.211-.502-1.246-.9m.815-.76c.005.096.016.03.028-.091q-.031.024-.028.091m-.886-1.105c.36-.317.614-.257.614-.257s.079 0 .182.11-.253.332-.488.401a3.6 3.6 0 0 0-.538.237q-.135.069-.257.126c-.25.115.126-.3.487-.617m-.443 1.327s-.351.575-.294.946c.058.371.302.449.463.41s.236-.41.236-.41-.111-.255-.236-.117c0 0-.204.086-.165-.151.038-.238-.004-.678-.004-.678m2.395-1.399s-.237.075-.118.185c.118.11.299.123.299 0 0-.124-.181-.185-.181-.185m4.738-.562s-.024.418.26.408.403-.43.337-.428c-.067.002-.141.015-.138.099.003.083-.075.164-.078.066-.004-.097-.018-.157-.076-.155-.033 0-.036.041-.037.07-.002.025-.003.042-.019.026q-.014-.018-.02-.047c-.008-.04-.019-.086-.104-.083-.126.005-.125.044-.125.044m3.323-.598c-.284.01-.26-.408-.26-.408s-.002-.04.124-.044c.086-.003.096.042.105.082q.006.03.02.048c.016.015.017-.002.018-.025.002-.03.005-.07.037-.071.059-.002.073.058.076.155.004.098.081.017.078-.066-.002-.084.072-.097.138-.1.067-.002-.051.42-.336.43M7.975 7.194c-.13-.07-.116-.12 0-.226s.257.049.398.226c.119.148.045.268-.023.378l-.037.061c-.07.128-.26.105-.189 0 .071-.104-.02-.37-.149-.44m9.524-.607c-.116.106-.13.157 0 .226s.07.36 0 .464.127.22.197.092l.012-.022c.068-.123.148-.267.093-.482-.058-.229-.186-.383-.302-.278m1.648-2.435c-.13-.07-.116-.12 0-.226s.244.049.302.278c.055.215-.024.359-.092.481l-.012.022c-.07.128-.269.013-.198-.092.071-.104.13-.394 0-.463m-4.922-.84c-.116.105-.13.156 0 .225.13.07.28.507.21.611-.072.105.118.128.188 0 .07-.127.141-.434 0-.61-.14-.178-.282-.332-.398-.226M12.54 5.876c-.16.072-.252.114-.168.172.084.059.284.072.284 0l.002-.042c.007-.08.016-.19-.118-.13M10.992 7.31c.17 0 .305-.03.305-.03s.232.03.416.03c.185 0 .151.162-.067.265-.2.095-.213.157-.239.282l-.007.036c-.033.15-.058.254-.222.202-.155-.048-.306-.425-.385-.624l-.012-.03c-.06-.149 0-.144.112-.136q.045.005.1.005M8.964 3.636c.064 0 .142-.395 0-.451s-.554.013-.504.18c.016.054.056.109.096.165.082.116.168.235.062.36a6 6 0 0 1-.718.642l-.032.019c-.098.058-.288.17-.154.17q.072.001.166.008c.13.01.273.019.352-.008.059-.02.151-.127.252-.246.096-.112.2-.234.292-.3.188-.132.228-.396.188-.433-.01-.01-.038-.021-.07-.035-.088-.037-.214-.09-.173-.178.055-.121.1-.043.1 0s.08.107.143.107m-.107 1.316-.148.054s-.086 0-.115-.103c-.013-.045.006-.1.024-.148.023-.063.041-.114-.024-.114-.116 0-.202.194-.242.311s.142.26.242.322c.099.062.223-.062.33-.174.109-.112-.067-.148-.067-.148m6.877 3.522c-.146-.196-.083-.634.05-.909.104-.212.1-.095.094.12q-.003.096-.004.207c0 .26.077.35.184.475q.042.047.089.107c.151.196.279 0 .279-.12s.269-.671.463-.882c.195-.21.356-.084.356 0s.19.357.408.42c.219.063.297-.504.297-.504v-1.71c0-.497-.123-.592-.228-.673-.025-.02-.048-.037-.07-.06-.035-.039-.1-.1-.176-.172-.156-.148-.358-.338-.44-.46-.105-.15-.1-.436-.097-.722l.001-.16c0-.335.464.15.573.335.07.12.05.2.027.291-.013.05-.027.103-.027.168 0 .184.14.14.14 0q0-.04-.006-.113c-.015-.22-.043-.617.115-.68.15-.061.18.019.267.243q.037.098.093.231c.11.252.08.369.044.514-.02.084-.044.177-.044.312 0 .272.2.512.339.678.047.057.088.105.11.143.088.15-.088-.967-.24-1.187-.154-.221-.07-.736.152-1.012.167-.21.276.056.382.317.034.084.068.168.104.235.122.229-.003.394-.096.517q-.03.038-.05.07c-.039.06-.01.135.031.245.049.128.115.304.115.559 0 .472.189.945.467 1.325.264.361.322.781.38 1.202l.01.068c.063.444.067-.696 0-1.27-.067-.573-.285-2.591-.197-3.113.058-.341.122-.189.216.038.05.12.108.26.178.36l.043.06c.164.227.176.244.077.399-.056.088-.106.075-.141.066-.032-.008-.051-.013-.051.062 0 .046.026.262.062.566.088.732.237 1.977.237 2.623 0 .914-.486 1.27-.907 1.427-.42.156-.649 0-.649-.157 0-.082-.059-.034-.137.03-.07.057-.155.127-.227.127-.153 0-.1-.18 0-.358.061-.108.048-.118.028-.131-.012-.009-.028-.02-.028-.06 0-.102 0-.207.153-.207.152 0 .287 0 .14.207-.09.127-.083.127-.023.135a.4.4 0 0 1 .17.056c.1.062.11.064.119.065s.018.003.08.039c.139.08.473-.2.795-.502.23-.214.114-.263-.007-.315a.3.3 0 0 1-.128-.075 4 4 0 0 1-.201-.314c-.106-.176-.22-.364-.27-.402-.042-.032-.026.075-.005.211.023.16.053.362.005.433-.09.132-.295.301-.388.301s0-1.69 0-1.69-.523-.727-.44-.454-.083 2.029-.32 2.305-.73-.077-.852-.276c-.12-.199-.267-.006-.322.199-.055.204-.175.65-.47.833-.219.137-.383-.179-.513-.428a2 2 0 0 0-.12-.208m1.615-2.448s-.49.33-.573.434-.111.18 0 .238.559-.156.724-.336.29-.353.227-.463-.378.127-.378.127m-.808-.749c-.198-.233.104-.332.104-.332s.162 0 .335.143c.095.078.085.005.07-.107-.011-.092-.027-.209.009-.29.08-.18.35.03.42.254.048.156-.005.162-.087.172a.4.4 0 0 0-.116.025c-.088.039-.059.211-.03.388.015.09.03.181.03.256 0 .223-.536-.275-.735-.509" clip-rule="evenodd"/><path fill="#fff" d="m10.653 3.515.25.003v-.003zm.176-.46.21.137zm-.177.49.25.003v-.001zm.13.177-.184-.17zm.255-.487.245-.053zm-1.373.058-.132-.212zm.067.12-.09.232zm.092.04.12-.22zm-.707 1.15-.225.108zm.054.115-.227.105zm.473.48.034.247zm.407-.636-.242-.063zm.007-.025-.242-.065v.002zm.189-.185-.241.065zm0 .295-.25-.018v.018zm0 0 .25.018v-.018zm0 .28.239-.074zm.535.47.076.238zm.393-.291.185.167zm.219-.138-.082.236zm.181.177-.196.155zm.375.252-.045-.246zm.433-.385.207.139.005-.007.005-.008zm0 0-.207-.141-.006.008-.005.009zm0 0 .206.14.001-.001zm.06-.085.193.158zm.13.031.21-.136zm.043.062.192-.16zm.294 0 .208.14zm.051-.483-.089-.234zm-.011.004-.09-.233zm-.508-.012.224-.112zm.07-.922-.244.052zm.45.572.217-.123zm.082.15-.22.12zm0 .001.223-.113-.003-.007zm0 0-.222.114.003.006zm.56.953-.151.2zm.146 1.582-.046.245.305.057-.01-.31zm-.902.046.034.247zm-.462.012.076-.238zm-.206-.044-.042.246zm-.018-.131-.083-.236zm.233-.066-.061-.243zm.682-.609.249-.017zm-.512-.702.043.246zm-.673.976-.024-.25zm-.072.008-.042-.246zm-.062.01.033.247zm-.923.49-.206-.143zm-.216-.454-.25-.014zm-.171-.684-.23.1zm-.01-.021-.229.1zm-.453-.288.21.136zm.121.813.156-.195zm.093 1.503-.185-.168zm-1.286.428-.135-.21zm.142-.073.108.226zm.812-1.072-.246.045zm-.183-.744.238-.076zm.026-.15.017-.25zm.07-.232.235-.088zm-.527-.283-.186-.167zm0 .691-.19.163zm.124.84.173.18zm-.265.268-.181-.172zm-.415.011-.227-.105zm-.048.118.233.09zm-.388.506-.097-.23zm-.929.597-.149-.201-.009.006-.008.008zm-.228.344.04.246zM8.4 8.482l.22-.117-.09-.173-.19.047zm.786.607.07.24zm1.295-1.095.202-.147-.18-.247-.207.226zm1.172.808-.02.249zm.6-.286.153-.198zm-.183-.114.125-.217zm-.328-.37.21.134zm.766-.308.04.247zm.18-.026-.03-.248h-.004zm0 0 .031.248h.003zm.732-.394-.241-.067zm.286-.338-.147-.202zm.045-.033.25-.007-.013-.497-.392.307zm-.047 1.45.235.085zm.261-.075-.215-.128zm.004-.008-.215-.127zm.164-.674.25.003zm-.057-1.23.23-.098zm0-.328.164-.189zm.378.698-.221.116.002.005zm0 0 .222-.115-.003-.005zm.503.92-.183.172zm.11-.24.246.042.004-.021v-.022zm0 0-.246-.044-.004.022v.021zm.056-.232-.22-.118zm.114.065-.25.006zm-.391.982.138.208zm-.37.252-.142-.205zm-.447.272.06.242zm.09.279-.008.25zm1.199-.68.22.116zm.079-3.337.248-.026zm-.048-.265-.24.068v.004zm0 0 .24-.068-.003-.012-.004-.01zm0 0-.24.072.003.01.004.009zm-.068-.518.23.097zm.094-.07.117-.22zm.08-.015.186.167zm0-.437.197-.154zm-.149-.277.23-.1zm-.233-.161.202.147zm-.155 1.15.243-.06zm.206 2.534-.176.178zm-.355-.597-.228.104.003.005zm0 0 .227-.105-.003-.005zm-.276-.52L14.28 6zm-.597-1.45.219.12zm.097-.155.206.143zm.036-.26.238-.075zm-.167-.27.192-.16zm-.159-.227.225-.11zm-.489.055.237-.08zm-.599-.474-.16-.192zm-.063.193.227-.103zm.007.084.216.125zm-.026.049.224.11zm-.131.037-.23.098zm-.031-.088-.238.077zm-.374-.182.17.183zm-.16.707-.177.177zm.28.714.206.142zm-.455.118-.215.127zm-.318-1.632-.07-.24zm-.207.768.235-.085zm.058.67-.224-.11zm-.006.014-.224-.111zm-.408.351.136-.21zm-.235-.773.241.065zm-.988.602.217-.124zm-.018-.03.217-.125zm-.172-.686-.238-.075zM4.267 3.24l.188-.165zm-.021-.06-.2-.15zm.146.266-.232.093zm.057.338.25-.019zm0 0h.25v-.019zm0 0H4.2v.01l.001.01zm.072.115.225.109zm0-.72.138-.208zm1.352-.008.249.023v-.023zm.228.047.245-.048zm.018.048.181-.172zm.019-.025.249.024zM4.566 8.163l-.25.022zm.4-.4h-.25v.014l.002.016zm.887.818-.01.25zm1.32-1.34.233.09.008-.02.004-.021zm.032-.52.25-.01-.002-.05-.022-.046zm-.14.221.242.065zm-.249.74.229.102zm-1.16.572.005-.25zm-.04 0 .005-.25zm-.581-1.4-.18-.172-.032.032-.018.042zm.263.213-.25-.004zm.68.616-.02.249zm.838-.902.242.065zm-.351.143.171.182h.001zm.275-1.102-.153.198.049.038.061.01zm.42.256-.215.127.025.043.04.03zm-.013-.505.242-.063-.004-.015-.005-.014zm-.228-1.09.247-.037-.002-.015-.005-.016zm-.06-.307.247-.034-.1-.73-.365.64zm-.043.186-.25-.019-.002.038.009.037zm-.084 1.123.171.181zm-.281.2-.012-.25zm-.322-.2.16-.193-.01-.008-.012-.007zm0 0-.16.192.01.009.01.007zm-.576 1.802-.005.25zm-.102-.561L5.2 6.71zm-.226-.887.237-.079-.022-.066-.053-.045zm-.452-.62-.246.041.007.042.02.037zm-.176-.156-.206-.142-.044.064v.078zm-.45.579-.09.233zm-.165-1.493.026-.25-.236-.023-.037.234zm.362.956.233-.09-.011-.03-.02-.026zm.128-.548.25.01v-.01zm.403-.618-.119-.22-.015.008-.013.01zm.217.39-.25-.003v.04l.011.038zm-.008.59-.228-.103-.02.044-.002.048zm.227.164-.013-.25-.071.004-.059.041zm-.127-.968.239-.074-.004-.012-.005-.012zm-.064-.641.241.064.006-.022.002-.022zm.24-.23.024-.248-.039-.004L5.308 3zm.155.7h.25zm.223.895.152-.198zm-.104-.332-.18.174zm-.022-.343.248.03.002-.015v-.015zm0 0-.248-.035-.002.017v.018zm0 0 .248.035v-.005zm.346-.277.155-.197zm.004.002-.154.197zm.114.464-.25-.014v.014zm0 0 .25.027v-.027zm0 0-.248-.026-.001.012zm.313.71-.153.197zm.155-.23h-.25v.01zm0 0h.25v-.018zm0 0-.25.01v.009zm-.184-.536-.222.116zm-.077-.148.224-.111zm.04-.362.208.138zm.066-.103.214.128zm.427.205-.228.102v.001zm.014.032-.227.103.476-.125zm-.015-.226.25-.01-.001-.036-.012-.034zm.39-.494-.055-.243-.054.012-.043.033zm.325.835-.25.014.002.03.01.03zm-.23.194.09-.234-.032-.012-.035-.003zm.174 1.301.25-.013-.002-.025-.006-.023zm.243.212-.092-.233-.054.021-.039.043zm.18.366-.25.007.002.07.039.06zm.328-.414-.205-.143-.019.027-.011.03zm.386.275-.225.109.01.02.014.02zm.346-.281-.135-.21-.055.034-.03.057zm.054.215.242.062zm-.337.655L8.57 6.33zm-.01.004-.103-.227zm-.331-.078.231-.094-.015-.036-.025-.03zm-.486.179.087.234.021-.008.02-.011zm-.259-.072.2-.15-.002-.003zm-.065.76h.25V7.35zm0 0h-.25zM5.812 9.063l-.043-.246zm-.431-1.66-.25.015zm-.272-1.362-.058.244.028.006h.03zm.182.11-.183.171zm-.488.401.07.24zm-.538.237-.113-.223zm-.257.126.104.227zm-.25 1.656-.247.039zm.294-.946.249-.024-.071-.745-.391.639zm.17 1.356-.059-.243zm.235-.41.245.05.016-.078-.032-.072zm-.236-.117.097.23.052-.021.037-.042zm-.165-.151.247.04zM6.329 6.41l-.17.183zm.118-.185.08-.237-.078-.026-.077.025zm4.738-.562.25.015v-.023zm.597-.02-.01-.25zm-.138.099-.25.008zm-.078.066-.25.01zm-.076-.155.008.25zm-.037.07.25.017zm-.019.026.176-.178zm-.02-.047-.243.055zm-.104-.083.008.25zm2.938-.962.25.015v-.024zm.124-.044-.009-.25zm.105.082-.244.056zm.02.048.175-.178zm.018-.025.25.015zm.037-.071-.009-.25zm.154.089.25-.01zm.138-.1-.008-.25zM7.975 6.968l.169.185zm0 .226.118-.22zm.398 0 .195-.156zm-.023.378.212.132zm0 0-.212-.133-.001.001zm-.037.061-.22-.12zm-.189 0 .207.14zm9.375-.82-.118.22zm0-.226-.169-.184zm0 .69.207.14zm.197.092-.219-.121zm.012-.022-.218-.122zm.093-.482-.242.062zm1.346-2.713-.117.22zm.302.052-.242.062zm-.092.481-.219-.121zm-.012.022-.22-.12zm-.198-.092.207.14zm-4.713-.467-.206-.14zm.19 0-.22-.12zm0-.61.195-.157zm-2.253 2.51-.142.206zm.168-.172.104.227zm.118.13.25.021zm-1.36 1.274.032-.248-.044-.006-.043.01zm.35.295.106.226zm-.24.282.245.052zm-.007.036.244.053v-.002zm-.222.202-.075.239zm-.385-.624.232-.093zm-.012-.03.232-.093zm.112-.136.028-.248h-.009zm0 0-.027.25h.009zM8.46 3.365l-.24.071zm.096.165.203-.145zm.062.36.19.162zm-.718.642.13.213zm-.032.019-.128-.215zm.012.178.017-.249zm.352-.008-.08-.237zm.252-.246L8.307 4.3l-.007.007-.006.007zm0 0 .177.177.007-.007.006-.007zm.292-.3-.144-.203zm.188-.433.17-.182zm-.07-.035.097-.23zm-.173-.178.227.104zm-.012 1.477v.25h.044l.04-.015zm.148-.054.05-.245-.069-.014-.066.024zm-.263-.05-.24.07zm.024-.147-.235-.085zm-.266.197-.237-.079zm.242.322.132-.212zm.33-.174-.18-.174zm6.86 2.465-.224-.11zm-.05.909.2-.15zm.144-.789.25.014v-.006zm0 0-.25-.013v.006zm.18.682-.189.163zm.089.107-.199.152zm1.506-.582.07-.24zm.297-.504.248.035.002-.017v-.018zm-.228-2.383-.153.198zm-.07-.06-.183.17zm-.176-.172.172-.182-.004-.003zm0 0-.169.184.001.001zm0 0-.172.182.003.002zm-.44-.46.206-.14zm-.097-.722.25.003v-.003zm0 0-.25-.003v.003zm.574.175-.215.127zm.027.291-.242-.062zm.107.055-.25.017zm.115-.68-.093-.233zm.267.243.233-.09zm.093.231-.23.1zm.044.514.243.06zm.295.99.192-.16zm.11.143-.215.128zm-.24-1.187.205-.143zm.152-1.012.195.156zm.382.317-.231.095zm.104.235.22-.117zm-.096.517.2.15zm-.05.07-.212-.134zm.031.245.234-.089zm.582 1.884-.202.148zm.38 1.202-.247.034zm.01.068-.247.035zM19.63 3.51l.247.042zm.216.038.23-.096zm.178.36-.203.145zm.043.06-.203.145zm.077.399.21.134zm-.141.066.062-.243zm.011.628-.248.03v.001zm0 0 .249-.028V5.03zm0 0-.248.029v.001zm-.67 4.05-.087-.234zm-.786-.127.158.194zm-.227-.231-.218-.123zm.028-.131-.14.206zm.265-.06-.204-.144zm-.023.135.03-.248zm.17.056-.132.212zm.119.065.039-.247zm.08.039.124-.217zm.795-.502.17.183zm-.007-.315.098-.23zm-.128-.075.19-.163zm-.201-.314-.224.112.005.009.005.008zm0 0 .223-.112-.011-.024-.017-.02zm0 0-.232.093.013.034.024.03zm0 0 .232-.093-.008-.019-.01-.017zm0 0-.214.129zm-.27-.402.151-.2zm-.005.211.247-.037zm.005.433.206.141zm-.388-1.389.25.014.005-.088-.052-.072zm-1.612 1.575-.213.13zm-.791 1.032-.132-.212zm-.514-.428.222-.115zm.923-2.222.197.155zm.573-.434.14.208.01-.008zm-.573.672.115-.222zm.724-.336-.184-.169zm.227-.463-.217.124zm-1.082-.954v-.25h-.04l-.037.012zm-.104.332-.19.162zm.439-.19.159-.192zm.07-.106.248-.033zm.009-.29-.229-.1zm.42.254-.24.074zm-.087.172-.028-.249zm-.116.025-.1-.229zm-.03.388.247-.04zm-6.343-2.015.006-.033a1 1 0 0 1 .13-.29l-.418-.275a1.6 1.6 0 0 0-.15.297.9.9 0 0 0-.068.301zm0 .032v-.03l-.5-.004v.03zm-.306.006q-.012.01.008-.005a.2.2 0 0 1 .114-.026c.069.003.12.038.15.072a.2.2 0 0 1 .035.058c.003.01 0 .005-.001-.024v-.08l-.5-.007c-.001.027-.002.07 0 .111a.6.6 0 0 0 .026.156c.012.037.074.202.262.213a.3.3 0 0 0 .179-.048.5.5 0 0 0 .095-.082zm.196-.266c-.005-.023.008-.01-.033.059a1.3 1.3 0 0 1-.162.207l.367.338a2 2 0 0 0 .226-.291c.058-.1.127-.252.09-.418zm.245-.095c.011-.017-.025.052-.124.058a.2.2 0 0 1-.115-.028.1.1 0 0 1-.037-.032q-.006-.01.01.024l.02.073.49-.105a.8.8 0 0 0-.127-.301.32.32 0 0 0-.271-.13.34.34 0 0 0-.264.166zm-1.25-.408a.4.4 0 0 0-.115.02.8.8 0 0 0-.238.147.6.6 0 0 0-.216.444h.5V3.39l.008-.016a.3.3 0 0 1 .102-.094l.009-.004-.012.003-.037.004zm.008.722a.6.6 0 0 0 .232-.271.4.4 0 0 0 .037-.189.274.274 0 0 0-.276-.262v.5a.226.226 0 0 1-.223-.203c-.002-.04.01-.06.004-.047a.1.1 0 0 1-.038.047zm.026-.327-.044-.018c-.013-.006.009.002.034.029a.23.23 0 0 1 .041.24.2.2 0 0 1-.044.065q-.015.013-.013.01l-.264-.424a.34.34 0 0 0-.138.152.27.27 0 0 0 .055.3c.043.046.094.07.116.08l.075.032zm.12.054c-.044-.025-.093-.043-.12-.054l-.181.466c.034.014.051.02.063.027zm-.241.712c.12-.036.24-.11.317-.203a.38.38 0 0 0 .091-.225.31.31 0 0 0-.167-.284l-.238.439a.2.2 0 0 1-.065-.063.2.2 0 0 1-.03-.108.2.2 0 0 1 .022-.075l.002-.004-.007.007-.018.013a.2.2 0 0 1-.051.024zm-.482-.55c0 .05 0 .105.003.156a.7.7 0 0 0 .03.176.35.35 0 0 0 .176.204.37.37 0 0 0 .273.014l-.144-.48c-.01.004.031-.012.088.015.06.03.078.077.08.083.002.004-.002-.005-.004-.041l-.002-.127zm.123 1.101a.6.6 0 0 1-.022-.367 2 2 0 0 1 .13-.388l-.46-.194c-.046.106-.12.284-.16.484a1.08 1.08 0 0 0 .06.68zm.055.118-.055-.118-.451.215.052.112zm.212.336h-.015a.1.1 0 0 1-.034-.032 1.6 1.6 0 0 1-.163-.304l-.454.21c.06.13.133.292.23.41.052.063.12.126.208.168a.5.5 0 0 0 .296.043zm.2-.45c-.02.076-.054.203-.107.314a.5.5 0 0 1-.076.119c-.021.022-.027.018-.017.017l.068.495a.53.53 0 0 0 .312-.168 1 1 0 0 0 .163-.246c.078-.16.121-.333.14-.407zm.006-.026-.007.025.484.126.007-.025zm.672-.188a.3.3 0 0 0-.087-.15.28.28 0 0 0-.232-.07.3.3 0 0 0-.141.062.4.4 0 0 0-.069.067.8.8 0 0 0-.143.277l.483.13a.3.3 0 0 1 .045-.087l-.01.01a.2.2 0 0 1-.087.035.22.22 0 0 1-.187-.057.2.2 0 0 1-.054-.086zm.008.38c.004-.057.009-.122.01-.182a.7.7 0 0 0-.018-.198l-.482.13q-.002-.01 0 .008v.05q0 .066-.009.155zm0-.019h-.5zm0 0h-.5zm0 0h-.5zm-.01.206q.005.021.002.006v-.044q.001-.06.008-.15l-.499-.036c-.004.056-.008.12-.01.176a.6.6 0 0 0 .021.196zm.22.306c-.027.008-.036.004-.042 0a.2.2 0 0 1-.066-.063.9.9 0 0 1-.112-.243l-.478.148c.017.056.074.236.187.39.057.079.14.166.254.22a.55.55 0 0 0 .409.024zm.283-.221c-.096.106-.173.185-.283.22l.152.477c.255-.081.413-.263.502-.362zm.486-.206a.36.36 0 0 0-.335.06c-.06.044-.115.107-.15.146l.37.335.077-.079c.002-.001-.01.008-.034.014a.16.16 0 0 1-.091-.004zm.296.258a2 2 0 0 0-.108-.13.5.5 0 0 0-.188-.128l-.163.472-.024-.01-.001-.002.001.001.003.003.01.01q.029.03.078.094zm.134.161c.024-.004.03.012-.003-.014a1 1 0 0 1-.13-.147l-.393.31c.048.06.12.154.207.224a.5.5 0 0 0 .41.119zm.27-.279a1.4 1.4 0 0 1-.149.196c-.055.058-.096.078-.121.083l.09.492a.74.74 0 0 0 .392-.228c.09-.093.16-.198.203-.264zm-.01.016.435.248zm.011-.017.413.282zm.072-.102c-.025.032-.052.073-.073.103l.415.279.046-.066zm.534.053c-.008-.012-.024-.038-.043-.06a.34.34 0 0 0-.116-.096.3.3 0 0 0-.243-.002.4.4 0 0 0-.132.105l.388.316c.005-.006-.01.017-.05.035a.21.21 0 0 1-.238-.047l.003.004.012.018zm.026.037-.01-.012-.016-.025-.42.273c.013.018.035.052.063.086zm-.106.022c-.002.004.005-.007.025-.017a.1.1 0 0 1 .06-.01l.022.006h-.001l-.383.321a.48.48 0 0 0 .298.169c.155.02.301-.05.395-.19zm.349-.11a.18.18 0 0 1-.13-.006.2.2 0 0 1-.118-.12c-.008-.026-.006-.04-.006-.031l-.006.037a.8.8 0 0 1-.088.23l.415.279c.066-.1.134-.269.163-.407a.53.53 0 0 0-.004-.267.3.3 0 0 0-.405-.183zm-.012.004.012-.005-.179-.467-.011.005zm-.82-.134c.05.1.13.17.225.206a.5.5 0 0 0 .246.027c.133-.015.27-.069.35-.1l-.18-.466-.127.045a.5.5 0 0 1-.097.023c-.025.003-.026-.001-.013.004.02.007.036.024.043.037zm.014-1.088a.28.28 0 0 0-.268.2.4.4 0 0 0-.01.171c.01.082.04.177.068.26.061.17.148.362.196.457l.447-.224a4 4 0 0 1-.171-.4 1 1 0 0 1-.045-.158c-.002-.018.004.005-.008.043a.22.22 0 0 1-.21.152zm.035.106c.002.01-.006-.018.015-.057a.12.12 0 0 1 .056-.055l-.028.004-.078.002v.5c.047 0 .18.004.295-.043a.38.38 0 0 0 .195-.171.4.4 0 0 0 .034-.283zm.911.397a6 6 0 0 0-.282-.432 2 2 0 0 0-.166-.206.4.4 0 0 0-.059-.05.26.26 0 0 0-.192-.046.26.26 0 0 0-.218.225.3.3 0 0 0 .006.112l.49-.103v.012q.004.011 0 .044a.243.243 0 0 1-.323.192.2.2 0 0 1-.043-.021l-.014-.01q.028.027.112.142c.104.146.222.33.254.388zm.084.154-.084-.154-.435.247.08.147zm0 0-.438.24zm.004.007-.445.227zm.488.867c.026.02.034.037.016.01l-.048-.071a8 8 0 0 1-.145-.247c-.11-.192-.232-.415-.314-.565l-.439.24c.082.149.206.377.319.573.056.099.11.191.155.264q.035.055.065.098c.013.017.046.064.089.097zm.244 1.773c-.007-.24-.026-.626-.052-.96a8 8 0 0 0-.045-.445 2 2 0 0 0-.03-.163l-.023-.077c-.006-.014-.03-.08-.094-.128l-.302.399a.2.2 0 0 1-.056-.061l-.012-.024.002.008q.008.033.02.115a7 7 0 0 1 .041.415c.026.325.044.703.052.937zm-.463.248a3 3 0 0 1 .165.005h.003l.091-.491a1.6 1.6 0 0 0-.26-.014zm-.654.053c.181-.025.391-.053.653-.053v-.5c-.299 0-.539.033-.721.058zm-.57.004a.8.8 0 0 0 .286.028 3 3 0 0 0 .284-.032l-.068-.495a3 3 0 0 1-.242.028.3.3 0 0 1-.11-.006zm-.174-.037q.106.016.173.037l.15-.477c-.083-.027-.177-.042-.24-.053zm-.06-.613a1 1 0 0 0-.174.078.3.3 0 0 0-.107.112.26.26 0 0 0 .03.292c.044.055.1.078.119.086q.04.015.071.022c.039.01.084.017.121.023l.084-.493-.088-.016q-.013-.003 0 0l.025.013a.236.236 0 0 1 .036.365l-.021.017c-.005.003.01-.006.07-.028zm.256-.073c-.08.02-.173.044-.255.073l.166.471q.084-.028.211-.059zm.493-.348a.24.24 0 0 1-.02.131.2.2 0 0 1-.074.077c-.09.06-.222.096-.4.14l.123.485c.155-.039.378-.093.554-.209a.7.7 0 0 0 .241-.263.74.74 0 0 0 .075-.396zm-.219-.474a.3.3 0 0 1 .125-.004c.002.001.004 0 .013.013.012.021.03.064.046.147q.022.122.035.318l.499-.035a3 3 0 0 0-.043-.375.9.9 0 0 0-.113-.319.52.52 0 0 0-.284-.225.76.76 0 0 0-.365-.012zm-.323.456a.57.57 0 0 1 .074-.305c.043-.067.114-.127.25-.15l-.088-.493a.84.84 0 0 0-.583.372c-.116.181-.153.39-.153.576zm-.37.522a.5.5 0 0 0 .12-.02.33.33 0 0 0 .18-.137.44.44 0 0 0 .06-.181 1.4 1.4 0 0 0 .01-.184h-.5a1 1 0 0 1-.005.118l-.001.008a.18.18 0 0 1 .106-.101l.009-.003-.026.003zm-.054.007.055-.007-.048-.497-.09.01zm-.07.01.07-.01-.083-.493-.054.008zm-.75.385c.21-.305.542-.357.75-.385l-.067-.495c-.205.027-.749.095-1.095.595zm-.672-.61c-.007.124-.023.368.007.531.007.042.021.1.052.155a.3.3 0 0 0 .235.159.33.33 0 0 0 .247-.085.8.8 0 0 0 .13-.15l-.411-.285-.031.041-.01.012q0-.002.028-.017a.2.2 0 0 1 .095-.014c.098.01.143.077.153.094s.008.022.004 0a1 1 0 0 1-.01-.184c.002-.079.006-.16.01-.229zm.005-.098-.005.098.5.028c.002-.044.005-.093.005-.126zm-.155-.472c.126.288.155.377.155.472h.5c0-.218-.08-.405-.198-.673zm-.01-.02.01.02.457-.2-.009-.022zm-.015-.253c.039-.059.035-.023-.024-.011-.078.015-.12-.032-.109-.021s.031.039.061.096q.043.083.087.188l.458-.2c-.029-.067-.063-.146-.1-.218a1 1 0 0 0-.149-.217.38.38 0 0 0-.346-.119c-.144.029-.238.138-.297.23zm.068.482c.018.014.006.01-.021-.04a.7.7 0 0 1-.062-.15c-.036-.123-.029-.224.015-.292l-.42-.272c-.155.24-.13.512-.076.702.028.098.067.186.107.257a.7.7 0 0 0 .145.186zm.122 1.866c.302-.332.277-.8.207-1.125a2.5 2.5 0 0 0-.144-.449 2 2 0 0 0-.118-.22.4.4 0 0 0-.067-.072l-.312.39c-.022-.017-.032-.033-.027-.026l.012.02q.022.036.053.107c.04.094.085.22.114.356.063.29.042.54-.088.683zm-1.563.809c.153.14.351.091.448.058.118-.041.245-.115.367-.199.247-.17.522-.42.748-.668l-.37-.336a4.2 4.2 0 0 1-.662.593q-.16.109-.246.137c-.079.027-.019-.02.052.045zm-.043-.758a.5.5 0 0 0-.177.182.35.35 0 0 0-.015.288.5.5 0 0 0 .113.17c.038.04.083.082.122.118l.337-.37a2 2 0 0 1-.11-.108l.005.011q.009.017.009.055a.15.15 0 0 1-.027.082l-.005.005.005-.004.014-.01zm.169-.089c-.054.026-.122.058-.17.089l.272.42a1 1 0 0 1 .114-.058zm.674-.802c.039.21-.037.36-.172.49-.145.14-.34.235-.502.312l.216.45c.152-.072.42-.198.632-.4.221-.213.395-.524.318-.942zm-.176-.714c.039.123.107.338.176.714l.492-.09a6 6 0 0 0-.19-.775zm.232-.477a.28.28 0 0 0-.213.097.28.28 0 0 0-.062.208c.003.036.013.07.019.092q.01.037.024.08l.477-.15-.02-.067c-.006-.018-.003-.015-.002-.002 0 .004.01.084-.053.16a.23.23 0 0 1-.17.082zm.05.002-.05-.002v.5h.004l.013.001zm-.18.106c.02.052.023.076.024.08 0 .008-.008-.042.031-.1a.2.2 0 0 1 .13-.084c.013-.002.021 0-.005-.002l-.033.5c.013 0 .06.004.11-.003a.3.3 0 0 0 .212-.13.35.35 0 0 0 .052-.238 1 1 0 0 0-.053-.199zm-.108-.204c.052-.058.066-.05.041-.045a.1.1 0 0 1-.048-.004l-.016-.008a.3.3 0 0 1 .055.084q.038.076.076.177l.468-.176a2 2 0 0 0-.1-.23.8.8 0 0 0-.168-.23.42.42 0 0 0-.353-.106.6.6 0 0 0-.327.204zm.004.362c-.08-.095-.103-.141-.107-.171-.001-.013-.007-.068.103-.191l-.372-.334c-.165.185-.253.379-.227.587.024.19.14.336.223.434zM9.55 7.31a.7.7 0 0 0 .21-.363.7.7 0 0 0-.026-.361c-.069-.2-.212-.367-.29-.46l-.38.326c.085.1.164.2.196.295a.2.2 0 0 1 .011.098c-.004.021-.018.056-.066.103zm-.258.26c.078-.081.164-.171.258-.26l-.345-.362c-.104.098-.197.196-.274.277zm-.715.018c0 .028.002.084.031.142a.27.27 0 0 0 .213.148.3.3 0 0 0 .161-.031l.075-.048c.068-.053.155-.145.235-.229l-.361-.345c-.094.098-.15.155-.18.179l.008-.005c.006-.003.05-.025.114-.018a.23.23 0 0 1 .183.126c.022.044.02.08.02.081zm.347-.075c.006-.013.006-.008-.004.003a.2.2 0 0 1-.113.066.23.23 0 0 1-.198-.05c-.03-.027-.042-.054-.043-.056-.004-.007 0 0 .005.03l.006.082h.5a.8.8 0 0 0-.056-.319.3.3 0 0 0-.08-.111.27.27 0 0 0-.243-.063.3.3 0 0 0-.165.105.5.5 0 0 0-.063.103zm-.042.103q.025-.066.042-.103l-.454-.21c-.02.044-.039.092-.054.134zm-.524.646c.343-.144.462-.483.524-.646l-.466-.18c-.076.197-.134.315-.252.365zM7.33 8.63l.15.2.006-.005.095-.069c.064-.046.15-.108.247-.173.2-.137.411-.271.528-.32l-.194-.46c-.171.071-.424.236-.616.367a13 13 0 0 0-.357.253l-.006.004-.001.001zm-.269.097c.001 0 .018-.003.044 0a.23.23 0 0 1 .196.228c0 .038-.01.064-.013.071-.006.015-.01.017.001.002l.04-.047a2 2 0 0 1 .164-.162l.003-.002-.166-.187-.166-.187-.002.001-.004.004-.063.059c-.039.036-.09.087-.137.139a1 1 0 0 0-.07.083.5.5 0 0 0-.064.111c-.009.022-.07.176.053.302a.28.28 0 0 0 .163.08.4.4 0 0 0 .102-.002zm.71-.235-.027.016-.072.035a3.2 3.2 0 0 1-.611.184l.081.493A3.7 3.7 0 0 0 7.874 9a1 1 0 0 0 .223-.13zm.628-.009-.06-.243-.006.002-.057.015a2 2 0 0 0-.142.046 1.2 1.2 0 0 0-.364.189l.326.38a.8.8 0 0 1 .204-.098 2 2 0 0 1 .157-.048h.002zm.717.367c-.017.005-.046.007-.101-.024a.8.8 0 0 1-.186-.16 1.7 1.7 0 0 1-.209-.3l-.22.117-.222.117.001.002.006.01a2 2 0 0 0 .07.117c.047.073.115.17.199.267.082.094.19.196.318.267.13.073.299.121.483.067zm1.364-.855-.184-.168-.003.002-.007.008-.028.03a11 11 0 0 1-.447.45 6 6 0 0 1-.406.355 1.1 1.1 0 0 1-.29.178l.14.48c.15-.043.313-.153.455-.262.15-.115.306-.255.445-.387a11 11 0 0 0 .469-.473l.03-.032.008-.009.002-.002v-.001zm1.192.559c-.224-.019-.465-.172-.67-.359a3 3 0 0 1-.32-.347l-.202.147-.202.148.001.001.002.002.006.008.021.028.078.095c.066.078.162.182.28.288.225.205.57.455.966.487zm.428.162c.01.007-.031-.02-.032-.09 0-.078.05-.11.045-.107a.3.3 0 0 1-.117.031 1.5 1.5 0 0 1-.324.004l-.04.498c.322.026.586-.006.753-.114a.38.38 0 0 0 .184-.314.39.39 0 0 0-.164-.305zm-.155-.096c.076.044.126.073.155.096l.305-.397c-.063-.048-.146-.095-.211-.133zm-.415-.722a.36.36 0 0 0-.036.319.5.5 0 0 0 .14.195c.093.084.223.157.311.208l.249-.434-.135-.08a1 1 0 0 1-.09-.065c-.022-.02-.013-.019-.005.004a.14.14 0 0 1-.012.122zm.937-.42a3 3 0 0 0-.539.123.76.76 0 0 0-.398.297l.422.27c.018-.03.052-.063.147-.098.101-.036.242-.065.448-.098zm.186-.027-.186.027.08.494q.085-.014.174-.025zm.003 0 .062.496zm0 0 .062.496zm0 0 .062.496zm0 0 .062.496zm0 0 .062.496zm0 0 .062.496zm0 0 .062.496zm0 0 .062.496zm.522-.213c-.018.065-.051.1-.126.131-.092.039-.218.058-.399.082l.068.496c.161-.022.36-.047.525-.117a.68.68 0 0 0 .414-.459zm.38-.473c-.082.06-.308.214-.38.473l.482.133a.23.23 0 0 1 .062-.096c.038-.038.082-.07.13-.106zm.037-.028-.037.028.294.404.052-.039zm.406.307-.002-.117-.5.013q.003.068.002.104zm-.063 1.425a.6.6 0 0 0 .026-.134q.007-.064.012-.15a32 32 0 0 0 .026-1.141h-.5c0 .14-.003.447-.01.73a13 13 0 0 1-.025.508c-.005.041-.007.038 0 .019zm-.19-.287c.009-.014.013-.013.001-.005l-.025.012.011-.001a.2.2 0 0 1 .073.012.22.22 0 0 1 .128.133c.023.067.008.12.002.136l-.47-.168a.3.3 0 0 0-.004.199.28.28 0 0 0 .164.167.37.37 0 0 0 .236.002.56.56 0 0 0 .315-.233zm.005-.008-.004.007.43.255.005-.007zm.127-.387a.7.7 0 0 1-.127.387l.43.255c.07-.119.197-.329.197-.642zm.002-.162-.002.162h.5l.002-.157zm-.037-1.13s.01.036.02.134c.008.087.013.195.016.313.006.237.003.5 0 .683l.5.005c.003-.18.006-.453 0-.7a5 5 0 0 0-.019-.347 1 1 0 0 0-.057-.284zm.394-.615a.27.27 0 0 0-.22-.066.27.27 0 0 0-.188.122.4.4 0 0 0-.057.195.85.85 0 0 0 .071.364l.46-.196a.4.4 0 0 1-.031-.143c0-.021.004.01-.024.054a.23.23 0 0 1-.157.099.23.23 0 0 1-.182-.051zm.436.772c-.092-.176-.18-.347-.25-.476a7 7 0 0 0-.123-.22l-.019-.027a.3.3 0 0 0-.044-.049l-.328.378-.024-.025-.008-.01.001.002.022.037.082.15c.068.126.155.294.248.471zm-.003-.005-.437.241zm.466.87c.012.012.014.017.001-.002l-.036-.06-.116-.21c-.092-.17-.204-.386-.312-.593l-.443.231c.107.206.221.425.314.598a10 10 0 0 0 .172.303 1 1 0 0 0 .055.075zm-.318-.114a1 1 0 0 1-.033.162l.005-.01a.2.2 0 0 1 .056-.06.23.23 0 0 1 .185-.037.2.2 0 0 1 .105.059l-.365.342a.3.3 0 0 0 .146.086.27.27 0 0 0 .22-.044.3.3 0 0 0 .088-.1l.032-.072c.025-.073.042-.173.053-.24zm-.004.043h.5zm.086-.349a.7.7 0 0 0-.054.16c-.011.048-.02.101-.028.146l.492.086a3 3 0 0 1 .033-.158q.004-.013-.002.002zm.583.118a.6.6 0 0 0-.02-.176.28.28 0 0 0-.108-.151.26.26 0 0 0-.276-.013.3.3 0 0 0-.09.077l-.037.053-.052.092.441.236.035-.064q.006-.008.001-.001s-.019.024-.056.045a.24.24 0 0 1-.248-.013.2.2 0 0 1-.088-.116c-.006-.02-.002-.02-.002.031zm0 .06v-.06h-.5v.07zm-.502 1.195c.535-.355.508-.973.503-1.196l-.5.012c.006.255 0 .582-.28.768zm-.365.25q.155-.108.365-.25l-.277-.416q-.218.146-.373.255zm-.53.308a.9.9 0 0 0 .247-.117q.119-.077.283-.191l-.285-.411a8 8 0 0 1-.264.178 1 1 0 0 1-.078.045l-.024.011zm-.013-.214a.13.13 0 0 1 .092.04c.02.022.024.042.026.051a.1.1 0 0 1-.01.05.14.14 0 0 1-.094.073l-.122-.485c-.24.06-.287.298-.27.426.018.143.132.345.378.345zm.05 0h-.05v.5h.035zm.97-.546c-.155.296-.352.427-.523.49a1.2 1.2 0 0 1-.446.057l-.016.5c.11.003.358.012.633-.088.283-.103.579-.315.795-.726zm.052-3.194c.028.266.096.923.113 1.595.01.337.005.672-.022.961-.028.297-.078.515-.143.638l.443.233c.113-.214.169-.515.198-.824a9 9 0 0 0 .024-1.02 22 22 0 0 0-.115-1.635zm-.013-.146.013.146.498-.052-.009-.08-.002-.022v-.003.011zm-.026-.073.024.081.004.017v-.004l-.002-.02h.5c0-.05-.013-.1-.018-.12l-.029-.098zm0-.004.48-.136zm.007.023.466-.182zm-.065-.707c-.057.135-.036.292-.019.388.02.11.054.222.077.3l.48-.144a2 2 0 0 1-.065-.246 1 1 0 0 1-.01-.092c0-.024.003-.024-.002-.01zm.441-.192s-.034-.02-.075-.03a.28.28 0 0 0-.191.017.3.3 0 0 0-.121.105.5.5 0 0 0-.054.1l.46.195c.007-.016.009-.015.003-.008a.2.2 0 0 1-.073.06.22.22 0 0 1-.15.014c-.026-.007-.046-.019-.033-.012zm-.224.039a.2.2 0 0 1 .211-.045l.013.006-.234.441s.069.043.158.04a.3.3 0 0 0 .225-.11zm-.01-.117c.03.038.04.062.043.072q.002.011.002.001c0-.004.002-.004-.003.004a.3.3 0 0 1-.032.04l.373.333a.6.6 0 0 0 .155-.295c.027-.16-.03-.316-.144-.463zm-.18-.33c.037.085.095.222.18.33l.394-.308a1 1 0 0 1-.117-.224zm.197-.115-.007.006a.2.2 0 0 1-.07.033.2.2 0 0 1-.118-.009.2.2 0 0 1-.057-.036c-.01-.01-.008-.011.007.018q.02.037.048.102l.457-.2a2 2 0 0 0-.06-.13.6.6 0 0 0-.098-.143.31.31 0 0 0-.29-.09.38.38 0 0 0-.216.155zm-.114.942a1.6 1.6 0 0 1-.005-.516c.013-.1.032-.195.055-.274a.6.6 0 0 1 .064-.152l-.404-.294a1 1 0 0 0-.139.304 2.3 2.3 0 0 0-.072.352c-.03.236-.034.505.015.701zm-.213 2.773a.3.3 0 0 0 .133.076c.081.02.164.001.227-.047a.3.3 0 0 0 .088-.114.4.4 0 0 0 .025-.078 1.4 1.4 0 0 0 .018-.287c-.004-.216-.03-.52-.064-.832-.068-.618-.172-1.32-.214-1.49l-.486.12c.034.134.135.802.203 1.425.034.309.057.594.06.786.003.102-.002.156-.005.172q-.002.002.007-.02a.2.2 0 0 1 .064-.08.23.23 0 0 1 .198-.04.2.2 0 0 1 .097.053zm-.404-.666c.06.123.122.25.185.36.061.11.133.221.219.306l.351-.356a1 1 0 0 1-.135-.195q-.08-.144-.17-.334zm-.002-.005.454-.21zm-.261-.493c.093.152.177.323.263.498l.45-.22a7 7 0 0 0-.288-.54zM13.677 4.3a.5.5 0 0 0-.053.24 1 1 0 0 0 .033.216c.036.138.1.29.17.438.141.295.33.608.454.808l.425-.263a9 9 0 0 1-.428-.761 2 2 0 0 1-.138-.35.5.5 0 0 1-.017-.098c0-.021.004-.011-.008.011zm.111-.177a2 2 0 0 0-.11.177l.437.241c.032-.058.06-.097.084-.132zm.003-.042.013.051.002-.022c.003-.017.009-.027.008-.025l-.007.011-.019.027.41.286c.023-.032.08-.107.1-.206a.55.55 0 0 0-.03-.272zm-.121-.184c.07.084.102.126.12.184l.477-.15c-.052-.165-.148-.277-.213-.355zm-.19-.278c.06.123.136.213.19.278l.384-.32a1 1 0 0 1-.126-.178zm.16-.252c0-.019.006.076-.096.13a.2.2 0 0 1-.113.024c-.023-.003-.036-.01-.037-.01-.002-.001.011.006.032.029q.03.034.053.08l.449-.221a.76.76 0 0 0-.304-.333.34.34 0 0 0-.32-.007c-.144.08-.164.23-.164.308zm-.662.278a.5.5 0 0 0 .06.122.32.32 0 0 0 .16.117c.188.056.305-.087.333-.127a.7.7 0 0 0 .109-.39h-.5a.3.3 0 0 1-.01.078c-.007.026-.013.032-.007.023.003-.004.019-.026.051-.045a.2.2 0 0 1 .168-.018.2.2 0 0 1 .102.07c.01.013.011.02.007.009zm-.202-.363c-.051.042-.102.023-.09.027a.4.4 0 0 1 .098.072 1 1 0 0 1 .128.15.5.5 0 0 1 .066.114l.473-.161a1.3 1.3 0 0 0-.325-.468.8.8 0 0 0-.265-.175.4.4 0 0 0-.406.057zm.003-.102c-.006-.015-.003-.01 0 0a.2.2 0 0 1 .002.063c-.009.055-.04.067-.005.039l-.321-.384a.44.44 0 0 0-.168.265c-.018.115.03.206.037.223zm-.004.312c.09-.155.01-.3.004-.312l-.455.206.003.006-.007-.026a.2.2 0 0 1 .022-.124zm-.018.035.018-.035-.433-.25-.033.063zm-.585.024a.37.37 0 0 0 .122.163.28.28 0 0 0 .321.001.4.4 0 0 0 .103-.114c.016-.027.03-.057.04-.074l-.449-.222-.02.038c-.008.013.005-.013.04-.038a.22.22 0 0 1 .255.002c.028.02.042.04.046.046l.002.003zm-.039-.109c.01.03.023.072.039.109l.46-.195-.024-.069zm.035-.076a.2.2 0 0 1 .038-.031l-.016.004a.13.13 0 0 1-.107-.03q-.008-.01-.003-.003l.014.027q.018.043.039.11l.476-.156c-.014-.04-.033-.1-.057-.155a.6.6 0 0 0-.129-.19.37.37 0 0 0-.315-.097.56.56 0 0 0-.282.156zm-.155.347c-.016-.016-.029-.038-.02-.087.012-.056.056-.149.175-.26L11.826 3c-.17.159-.286.34-.323.53a.58.58 0 0 0 .157.536zm.31 1.033a.48.48 0 0 0 .071-.337 1 1 0 0 0-.086-.275 1.6 1.6 0 0 0-.295-.421l-.353.354c.06.06.144.171.196.282a.4.4 0 0 1 .042.124c.004.029-.005.015.013-.011zm-.876.103a.42.42 0 0 0 .245.197c.104.03.202.015.279-.013a.77.77 0 0 0 .352-.287l-.412-.284a.4.4 0 0 1-.062.07.2.2 0 0 1-.05.03c-.008.004.007-.004.034.004.031.01.045.03.045.03zm-.155-.827c-.06.335.023.602.155.827l.431-.254a.66.66 0 0 1-.094-.483zm.123-.692a.12.12 0 0 1-.08-.01c-.032-.016-.042-.037-.04-.033.01.017.026.071.033.175.013.195-.014.44-.036.56l.492.09c.027-.145.06-.434.043-.684a.9.9 0 0 0-.094-.382.385.385 0 0 0-.46-.195zm-.043.443a.7.7 0 0 1-.03-.307c.015-.11.051-.13.073-.136l-.142-.48c-.294.087-.399.347-.427.546s.006.409.056.547zm.047.867a.6.6 0 0 0 .052-.221 1.9 1.9 0 0 0-.099-.646l-.47.17a1.4 1.4 0 0 1 .07.446c-.003.041-.009.045 0 .029zm-.006.013.006-.013-.448-.222-.006.013zm-.768.45c.12.078.251.08.362.033a.6.6 0 0 0 .212-.167c.094-.112.164-.256.194-.316l-.448-.222c-.034.069-.08.158-.13.218-.025.03-.034.03-.022.026a.1.1 0 0 1 .051-.008q.037.005.053.017zm-.34-1.048c-.057.211-.04.425.02.605a.84.84 0 0 0 .32.443l.272-.42a.36.36 0 0 1-.117-.181.56.56 0 0 1-.013-.317zm.138-.387c.006-.003-.007.007-.036.007a.14.14 0 0 1-.085-.027c-.03-.023-.019-.034-.005.022a.9.9 0 0 1-.012.385l.482.13c.052-.193.063-.441.016-.634a.53.53 0 0 0-.18-.302.36.36 0 0 0-.223-.074.4.4 0 0 0-.212.063zm-.427.684c0-.056.043-.193.142-.357.096-.16.208-.28.285-.327l-.255-.43c-.181.108-.345.31-.458.498-.111.184-.214.42-.214.616zm-.675.494a.4.4 0 0 0 .114.13c.064.043.15.068.243.044a.32.32 0 0 0 .163-.106.5.5 0 0 0 .068-.109c.058-.126.087-.304.087-.453h-.5a.7.7 0 0 1-.042.244q-.006.012.005-.005a.2.2 0 0 1 .093-.055.2.2 0 0 1 .167.028c.03.02.04.04.036.034zm-.018-.03.018.03.433-.248-.017-.03zm-.193-.885a.83.83 0 0 0 .018.523c.05.144.125.274.176.362l.433-.249a1.6 1.6 0 0 1-.135-.273.34.34 0 0 1-.015-.213zm.32-.19c.004-.01-.001.008-.025.03a.205.205 0 0 1-.282-.008c-.013-.014-.016-.023-.014-.018a.3.3 0 0 1 .001.186l.477.15a.8.8 0 0 0-.019-.534.4.4 0 0 0-.075-.12.295.295 0 0 0-.428-.024.4.4 0 0 0-.096.144zm-4.995-.666-.007-.008s.012.015.023.039a.23.23 0 0 1-.025.223l-.4-.299a.27.27 0 0 0-.033.277.4.4 0 0 0 .066.097zm.169.277a.9.9 0 0 0-.169-.277l-.376.33a.4.4 0 0 1 .08.134zm.074.412c-.007-.094-.02-.275-.074-.412l-.464.187c.02.05.03.145.04.265zm0 .001-.498.038zm.001.02h-.5zm-.404.005q-.005.012 0 .001c.001 0 .021-.032.064-.058a.24.24 0 0 1 .26.008.22.22 0 0 1 .083.103c.008.02.007.03.004.002l-.008-.082-.498.04.01.1a.5.5 0 0 0 .026.12.3.3 0 0 0 .1.129.26.26 0 0 0 .282.008.3.3 0 0 0 .092-.09l.036-.063zm.087-.403c-.04-.026-.038-.053-.03-.021q.011.038.009.125a.9.9 0 0 1-.066.3l.45.217a1.4 1.4 0 0 0 .115-.496 1 1 0 0 0-.023-.268.45.45 0 0 0-.178-.273zm.064-.058a.1.1 0 0 1-.036.033.1.1 0 0 1-.034.013h-.018s.007.001.024.012l.277-.416a.5.5 0 0 0-.353-.091.4.4 0 0 0-.26.15zm1.427-.158-.249-.023v.004a1 1 0 0 0-.003.09c.001.05.007.122.025.198a.6.6 0 0 0 .131.253c.084.09.201.145.342.145v-.5c-.002 0 .013.003.024.015.004.003-.004-.003-.011-.034a.4.4 0 0 1-.01-.125v-.001.001zm.126-.29a.45.45 0 0 0-.244.06.3.3 0 0 0-.126.174.3.3 0 0 0-.006.053v.002l.25.001.25.001v.002l-.001.023a.2.2 0 0 1-.026.085.2.2 0 0 1-.074.08c-.043.028-.068.02-.023.02zm.347.29a.36.36 0 0 0-.076-.173.35.35 0 0 0-.271-.116v.5l-.01-.001-.028-.008a.18.18 0 0 1-.105-.108c-.002-.008-.003-.013 0 0zM6.3 3.093a.2.2 0 0 1 .047.08v.003-.007l-.492.095.014.056a.3.3 0 0 0 .068.117zm-.41.123q-.002.01 0 .002l.003-.018a.24.24 0 0 1 .267-.177.24.24 0 0 1 .14.07l-.363.344c.007.007.063.07.159.082a.25.25 0 0 0 .26-.14.3.3 0 0 0 .027-.085l.004-.03zm.287-.296a.28.28 0 0 0-.263.182c-.02.053-.024.108-.025.114l.498.048v-.007q.001.002-.008.029a.22.22 0 0 1-.202.135zm.32.409a.6.6 0 0 0-.028-.204.31.31 0 0 0-.291-.204v.5A.19.19 0 0 1 6 3.301q-.007-.023-.005-.012l.002.04zm-.419-.064q.001-.027.008-.04a.14.14 0 0 1 .037-.048.2.2 0 0 1 .085-.045.235.235 0 0 1 .282.15q.01.04.008.047h-.5c0 .027.002.063.015.103a.265.265 0 0 0 .326.183.3.3 0 0 0 .114-.063.4.4 0 0 0 .125-.287zm.392-.345a.5.5 0 0 0-.205.041.33.33 0 0 0-.187.304h.5a.17.17 0 0 1-.116.155h-.007.015zm-.351.917c.275 0 .445-.198.523-.333a.7.7 0 0 0 .086-.221.4.4 0 0 0 .003-.141.3.3 0 0 0-.061-.13.26.26 0 0 0-.2-.092v.5a.24.24 0 0 1-.18-.083.2.2 0 0 1-.05-.102c-.007-.034-.001-.055-.003-.047a.3.3 0 0 1-.027.065c-.043.074-.082.084-.091.084zM4.794 7.131a.4.4 0 0 0-.312.164.8.8 0 0 0-.12.26 1.8 1.8 0 0 0-.045.63l.498-.044a1.4 1.4 0 0 1 .028-.452.3.3 0 0 1 .037-.09c.004-.006-.024.032-.086.032zm.172.631h.25v-.003l-.004-.075a1 1 0 0 0-.024-.167.6.6 0 0 0-.087-.217.37.37 0 0 0-.307-.17v.5a.15.15 0 0 1-.077-.022.1.1 0 0 1-.03-.028c-.002-.002.005.01.013.046a.7.7 0 0 1 .016.137zm.898.569a.62.62 0 0 1-.538-.304.9.9 0 0 1-.112-.295V7.73v.001l-.248.031-.248.03V7.8l.008.045q.008.042.027.11c.026.09.07.211.147.335.157.256.447.52.942.541zm1.309-1.09-.233-.09-.001.003-.02.048a3.5 3.5 0 0 1-.316.581c-.107.158-.23.303-.362.405q-.196.151-.377.143l-.022.5c.276.011.513-.1.704-.247a2.2 2.2 0 0 0 .47-.52 4 4 0 0 0 .39-.732zm.032-.52-.25.012v.009a2 2 0 0 1 .001.147 2 2 0 0 1-.029.304l.491.097a2.4 2.4 0 0 0 .038-.524l-.001-.051v-.004zm.102.286.037-.136.016-.049-.008.014a.23.23 0 0 1-.358.015c-.013-.017-.017-.028-.015-.023l.452-.213a.4.4 0 0 0-.052-.084.27.27 0 0 0-.396-.028.3.3 0 0 0-.067.09 1 1 0 0 0-.05.134q-.021.067-.042.15zm-.263.777c.136-.303.212-.59.263-.777l-.483-.13c-.05.189-.119.44-.236.704zm-1.395.72c.169.004.435.012.695-.073.275-.09.537-.28.7-.647l-.456-.203a.63.63 0 0 1-.399.375c-.167.054-.35.052-.528.048zm-.04 0h.04l.012-.5h-.04zm-.892-1.098c.02.194.113.447.246.654.068.105.153.21.255.291a.65.65 0 0 0 .392.152l.01-.5c-.014 0-.045-.007-.091-.044a.7.7 0 0 1-.145-.17 1.1 1.1 0 0 1-.17-.434zm.318-.552-.23-.098-.001.002-.002.005-.02.052q-.016.051-.037.138a1.4 1.4 0 0 0-.028.453l.497-.05a.9.9 0 0 1 .05-.401l.001-.003v.001zm.513.218a.74.74 0 0 0-.069-.37.33.33 0 0 0-.343-.176.46.46 0 0 0-.208.091 1 1 0 0 0-.073.064l.18.173.18.173v.001l-.001.001.013-.01.006-.005-.007.003-.022.005a.17.17 0 0 1-.161-.076c-.007-.012-.004-.012 0 .01q.006.03.005.107zm.45.361c-.228-.018-.329-.046-.38-.084-.024-.018-.074-.066-.07-.277l-.5-.01c-.005.288.063.53.27.686.181.137.425.167.64.184zm.577-.716c-.027.1-.113.305-.24.476-.135.185-.254.247-.338.24l-.04.499c.36.028.626-.23.781-.442.165-.224.277-.486.32-.644zm-.11.207.172.181.003-.003.054-.048a2 2 0 0 1 .155-.118l-.003.001a.2.2 0 0 1-.045.008.22.22 0 0 1-.216-.147.2.2 0 0 1-.01-.073v-.008l.483.13a.36.36 0 0 0-.002-.217.28.28 0 0 0-.277-.185.4.4 0 0 0-.157.046 1 1 0 0 0-.1.06 2 2 0 0 0-.223.186l-.005.004v.002h-.001zM5.75 6.77a.8.8 0 0 0 .364.39c.141.07.358.101.521-.053l-.343-.364a.1.1 0 0 1 .055-.025c.009 0 .004.002-.013-.007a.3.3 0 0 1-.13-.151zm.371-1.078a2 2 0 0 0-.326.439c-.087.17-.154.403-.045.639l.454-.21c-.015-.033-.02-.09.036-.2a1.6 1.6 0 0 1 .247-.327zm.618.131.152-.198-.001-.001-.002-.002-.021-.015a.6.6 0 0 0-.218-.09.55.55 0 0 0-.528.175l.366.341c.022-.023.035-.027.038-.028h.022a.1.1 0 0 1 .043.02v-.001l-.002-.001V6.02h-.001c-.001-.001-.001-.001.152-.199m.42.256.214-.128v-.002l-.002-.002-.003-.005-.038-.053a.92.92 0 0 0-.549-.313l-.085.493a.42.42 0 0 1 .244.134l.007.008-.002-.002v-.001l-.001-.001zm-.013-.505-.242.063v.001l.002.005.02.081a3 3 0 0 1 .045.262v.027q0-.005.012-.038a.23.23 0 0 1 .256-.127c.04.009.064.026.07.03l-.3.4c.034.026.173.118.325.022a.3.3 0 0 0 .108-.128.4.4 0 0 0 .025-.091 1 1 0 0 0-.012-.251 3 3 0 0 0-.066-.317V5.51zm-.228-1.09-.247.038v.003l.001.007.005.027a16 16 0 0 0 .07.418c.044.233.105.532.167.689l.465-.184a4 4 0 0 1-.14-.595 16 16 0 0 1-.072-.431l-.002-.007v-.001zm-.308-.273a3 3 0 0 0 .067.342l.481-.137a2 2 0 0 1-.053-.273zm.205.152.25.019.013-.084q.006-.014-.003.004l-.435-.247a.6.6 0 0 0-.063.198l-.01.09-.001.002v.001zm.087 1.304a.76.76 0 0 0 .207-.425c.026-.144.027-.298.019-.432a3 3 0 0 0-.068-.499v-.003l-.244.055-.244.056v.001l.007.03a3 3 0 0 1 .05.389c.007.113.005.224-.012.315-.017.096-.044.137-.057.15zm-.44.268a.46.46 0 0 0 .255-.103c.058-.043.121-.104.185-.165l-.343-.363a2 2 0 0 1-.144.13c-.03.022-.016.004.023.002zm-.494-.257c.078.065.151.126.216.169a.46.46 0 0 0 .277.088l-.023-.5c.042-.001.058.019.022-.005a2 2 0 0 1-.173-.137zm.02.016.278-.416zm.051.111q0-.12.007-.197l.008-.054q.006-.016-.002.001a.15.15 0 0 1-.062.055.15.15 0 0 1-.09.015c-.016-.002-.017-.006-.002.003l.07.05.32-.385a.7.7 0 0 0-.31-.162.35.35 0 0 0-.21.03.35.35 0 0 0-.144.135.6.6 0 0 0-.076.262c-.008.08-.009.167-.009.247zm0 1.289V5.804h-.5v1.289zm-.492.444c.037.001.169.01.283-.05.155-.083.21-.24.21-.394h-.5c0 .025-.005.022.003.005a.13.13 0 0 1 .052-.053c.018-.01.028-.01.018-.008h-.056zm.022-.034a.2.2 0 0 1-.065.034H5.5h.047l.01-.5c-.025 0-.071-.001-.116.004a.36.36 0 0 0-.194.08zm-.12-.777L5.2 6.71v.005l-.004.057a31 31 0 0 1-.037.515l.498.048a15 15 0 0 0 .041-.579l.001-.012V6.74zm-.225-.887-.237.079v.002l.002.005.034.103c.021.068.05.16.078.257.028.098.055.198.074.283q.015.063.02.106l.005.037.5.03a1 1 0 0 0-.037-.284 6 6 0 0 0-.082-.31 11 11 0 0 0-.117-.378l-.002-.007V5.76zm-.452-.62-.219.12.001.002.012.02a4 4 0 0 0 .145.238c.088.134.217.317.351.43l.324-.38a1.7 1.7 0 0 1-.256-.323A4 4 0 0 1 5 5.114l-.007-.013-.001-.003zm-.176-.156.206.142-.001.001-.001.002-.015.017a.1.1 0 0 1-.027.02.2.2 0 0 1-.195-.006.2.2 0 0 1-.053-.05c-.007-.011.004 0 .016.071l.493-.084a.7.7 0 0 0-.087-.256.31.31 0 0 0-.285-.153.33.33 0 0 0-.239.13l-.015.02-.002.002v.001zm-.54.812a.53.53 0 0 0 .43-.006.56.56 0 0 0 .25-.266c.091-.184.11-.41.11-.54h-.5a.8.8 0 0 1-.058.32c-.02.04-.031.042-.023.038.016-.008.016.005-.029-.012zM3.982 4.15l-.247-.04v.006l-.009.058a6 6 0 0 0-.052.664c-.003.184.005.39.045.565a.9.9 0 0 0 .098.262c.05.083.126.167.24.211l.18-.466c.02.007.021.018.01 0a.4.4 0 0 1-.04-.117 2 2 0 0 1-.033-.447 5 5 0 0 1 .055-.655v-.002zm.415.348c-.008-.205-.06-.356-.147-.46a.4.4 0 0 0-.198-.129l-.04-.008h-.004l-.026.249-.026.248h-.003a.2.2 0 0 1-.054-.015.1.1 0 0 1-.03-.021c-.009-.01.023.018.028.156zm-.053.608.203-.145-.002-.004-.015-.024a1 1 0 0 1-.133-.435l-.5.02a1.43 1.43 0 0 0 .241.73l.001.002.001.001zm.128-.548-.25-.01v.007l-.006.107a5 5 0 0 1-.035.333l-.008.034s.01-.024.035-.052a.24.24 0 0 1 .218-.068c.09.018.134.08.14.089l.011.019-.467.178c.01.024.024.057.046.089a.265.265 0 0 0 .418.034.3.3 0 0 0 .06-.097 1 1 0 0 0 .058-.266 5 5 0 0 0 .03-.386zm.403-.618-.147-.202h-.001l-.002.002-.005.004-.071.057a2 2 0 0 0-.163.16c-.11.125-.263.338-.264.596l.5.001c0-.068.048-.163.139-.266a1 1 0 0 1 .16-.149q.002 0 0 0zm.217.39.25.002v-.009l-.003-.087a1.3 1.3 0 0 0-.029-.203.54.54 0 0 0-.13-.259.34.34 0 0 0-.203-.1.37.37 0 0 0-.22.046l.236.44a.13.13 0 0 1-.074.011.16.16 0 0 1-.093-.044c-.014-.014-.017-.023-.014-.015l.011.035a.8.8 0 0 1 .019.178v.002zm-.008.59.227.103.001-.001.001-.002.009-.021.016-.049q.02-.06.037-.162c.02-.136.022-.322-.045-.534l-.477.151a.7.7 0 0 1 .002.414v.002-.003zm.227.164-.143-.205h.001l.001-.002h.002l-.005.002h-.001l.023-.002a.16.16 0 0 1 .132.07l.014.029a.2.2 0 0 1-.002-.045l-.5-.021a.52.52 0 0 0 .072.315.34.34 0 0 0 .29.152.45.45 0 0 0 .25-.082l.005-.003.002-.002h.001zm-.127-.968-.239.074v.002l.012.036a7 7 0 0 1 .11.422c.026.118.043.221.046.29.002.038-.002.042.002.028a.2.2 0 0 1 .183-.134l.025.5c.18-.01.25-.155.27-.222a.6.6 0 0 0 .02-.194 2.3 2.3 0 0 0-.058-.375 7 7 0 0 0-.131-.498v-.002h-.001V4.04zm-.064-.641-.242-.064v.001l-.001.002-.015.075a1.36 1.36 0 0 0 .091.725l.461-.196a.86.86 0 0 1-.052-.482v.002zm.24-.23L5.306 3h-.003l-.005.002-.056.016a.7.7 0 0 0-.126.058.48.48 0 0 0-.247.378l.499.04c-.002.024-.02.026.004.012a.2.2 0 0 1 .041-.018q.002 0 0 0h-.002v.001zm.155.7h.25v-.009l-.003-.107a4 4 0 0 0-.018-.256 1.5 1.5 0 0 0-.058-.29.5.5 0 0 0-.074-.151.32.32 0 0 0-.228-.135l-.05.497a.18.18 0 0 1-.125-.066c-.008-.01-.005-.01.002.012a1 1 0 0 1 .036.19 3 3 0 0 1 .018.31v.006zm.375.697c.022.017.016.022-.005-.022a1 1 0 0 1-.056-.16 2 2 0 0 1-.064-.514h-.5c0 .236.033.461.08.643q.037.136.088.246c.03.064.078.147.153.204zm-.437.04q-.001-.006.027.045a1 1 0 0 1 .05.12c.001.009-.004-.007-.001-.035a.2.2 0 0 1 .03-.092.24.24 0 0 1 .292-.1q.034.017.039.022l-.304.397c.016.012.04.03.073.043a.27.27 0 0 0 .158.016c.183-.038.207-.211.21-.24a.4.4 0 0 0-.01-.116 1.2 1.2 0 0 0-.096-.249.7.7 0 0 0-.107-.158zm-.09-.546c-.008.072-.019.161-.018.24.001.07.01.203.108.306l.36-.347c.024.025.031.048.033.053l-.001-.018q0-.025.004-.071l.011-.104zm-.001.03h.5zm0 0h.5zm0 0h.5zm0 0h.5zm.003-.036.494.07zm.019-.24c0 .076-.01.156-.02.246l.496.059c.01-.085.024-.194.024-.305zm.729-.2c-.041-.031-.09-.07-.137-.101a.6.6 0 0 0-.184-.09.33.33 0 0 0-.163 0 .3.3 0 0 0-.168.113.46.46 0 0 0-.077.278h.5v-.026s-.004.022-.024.049a.2.2 0 0 1-.106.07.2.2 0 0 1-.082.002l-.007-.002.03.02q.044.03.11.081zm.003.004-.003-.003-.309.393.004.003zm.21.674c.005-.085.013-.204-.006-.316a.55.55 0 0 0-.204-.358l-.308.393c.004.004.013.01.019.046.008.047.005.108 0 .207zm0-.014h-.5zm0 0h-.5zm0 0h-.5zm0 0h-.5zm0 0h-.5zm0 0h-.5zm0 .027-.498-.053zm-.005.127q0-.063.005-.14l-.5-.028c-.002.05-.005.109-.005.168zm.22.358c-.166-.129-.22-.226-.22-.358h-.5c0 .348.185.575.415.753zm-.247-.022q.003.06.002.104c0 .033-.004.038 0 .028a.2.2 0 0 1 .034-.056.2.2 0 0 1 .121-.062.2.2 0 0 1 .09.01c.01.004.011.006 0-.002l-.305.395c.05.04.154.11.283.092a.31.31 0 0 0 .25-.216.6.6 0 0 0 .027-.175c.001-.05 0-.1-.002-.137zm0-.01h.5zm0 0h.5zm0 0h.5zm0 0h.5zm0 .019.5-.036zm-.002-.092.002.083.5-.019-.002-.064zm-.154-.347q.071.133.117.235l.03.083q.009.032.007.029h.5a.8.8 0 0 0-.078-.31c-.039-.09-.09-.186-.133-.27zm-.08-.154.08.154.443-.233-.074-.142zm.057-.61c-.034.05-.1.141-.12.254-.026.13.01.247.064.356l.448-.221a.3.3 0 0 1-.021-.053v.013c-.002.007-.004.007.003-.006.008-.015.02-.033.042-.067zm.059-.093q-.03.049-.059.092l.416.277q.03-.045.072-.113zm.87.232a.86.86 0 0 0-.29-.359.43.43 0 0 0-.292-.074.4.4 0 0 0-.288.201l.43.256-.017.016a.13.13 0 0 1-.059.023c-.043.006-.062-.012-.048-.003a.3.3 0 0 1 .054.054.4.4 0 0 1 .054.089zm.014.03-.014-.032-.456.206.015.032zm-.243-.123-.25.01v.005l.004.063.012.17.498-.044-.014-.21v-.004zm.39-.494-.153-.198-.002.002-.004.004-.07.057a3 3 0 0 0-.162.148 1.3 1.3 0 0 0-.17.204.6.6 0 0 0-.066.14.36.36 0 0 0 0 .216l.474-.16a.14.14 0 0 1 .005.087l.008-.014a1 1 0 0 1 .103-.12 2 2 0 0 1 .187-.165l.002-.002zm.325.835.25-.014V4.01l-.013-.14a3 3 0 0 0-.052-.327 1.3 1.3 0 0 0-.126-.361c-.058-.1-.2-.277-.44-.223l.111.487c-.1.023-.134-.066-.105-.015.024.041.05.117.072.218a3 3 0 0 1 .053.394v.008zm-.23.194-.089.233h.002l.002.001.079.024c.04.01.111.022.189.013a.35.35 0 0 0 .276-.186.47.47 0 0 0 .01-.352l-.478.146.008.03c0-.003 0-.024.014-.052a.16.16 0 0 1 .064-.067.1.1 0 0 1 .045-.016h.002a.1.1 0 0 1-.036-.009h.001l.001.001zm.174 1.301.242-.061V5.47l-.001-.003-.003-.01-.045-.187a12 12 0 0 1-.095-.441 4 4 0 0 1-.062-.419l-.003-.062.001-.021-.004.016a.2.2 0 0 1-.025.046.22.22 0 0 1-.2.09l.044-.497a.28.28 0 0 0-.25.115.35.35 0 0 0-.057.141 1 1 0 0 0-.005.208c.01.137.039.312.07.477a13 13 0 0 0 .15.666v.004zm.243.212-.184-.17.002-.002V5.57h.001l-.002.001.008-.004a.1.1 0 0 1 .048-.01.2.2 0 0 1 .095.022c.032.018.047.04.053.049s-.01-.011-.015-.11l-.5.026a.75.75 0 0 0 .083.336.36.36 0 0 0 .131.133.33.33 0 0 0 .182.042.4.4 0 0 0 .211-.08 1 1 0 0 0 .068-.06l.001-.002H7.9v-.001zm.18.366.25-.007v-.008l-.006-.076a1 1 0 0 0-.028-.176.6.6 0 0 0-.101-.226.33.33 0 0 0-.387-.106l.184.465a.17.17 0 0 1-.189-.048q-.01-.016-.004-.004l.01.036a1 1 0 0 1 .021.155v.002zm.328-.414L7.99 5.61v.001l-.008.02a2 2 0 0 1-.098.217l-.039.063c-.012.018-.016.02-.011.016 0 0 .042-.038.117-.036.092.003.141.06.155.082l-.418.274a.31.31 0 0 0 .248.144.33.33 0 0 0 .222-.083.8.8 0 0 0 .165-.221 2 2 0 0 0 .133-.296l.002-.006.001-.002zm.386.275.225-.109v-.003q-.003-.001-.004-.006a1.4 1.4 0 0 0-.164-.258.57.57 0 0 0-.234-.181.34.34 0 0 0-.23-.004.37.37 0 0 0-.184.143l.41.287a.16.16 0 0 1-.166.044c-.017-.006-.021-.012-.014-.005l.03.032a1 1 0 0 1 .107.169zm.346-.281-.22-.119-.002.003-.03.05a1 1 0 0 1-.106.142c-.01.01-.01.007 0 .002a.16.16 0 0 1 .098-.013.18.18 0 0 1 .115.067l-.402.298a.32.32 0 0 0 .417.094.6.6 0 0 0 .193-.17 1.6 1.6 0 0 0 .153-.229l.002-.004.001-.002zm.296.277c.01-.04.022-.086.03-.127a.6.6 0 0 0 .016-.152.3.3 0 0 0-.038-.134.27.27 0 0 0-.182-.134.3.3 0 0 0-.165.012.5.5 0 0 0-.092.047l.27.421c.007-.005.003-.001-.01.003a.2.2 0 0 1-.107.006.23.23 0 0 1-.15-.11.2.2 0 0 1-.025-.082c-.001-.014.001-.012-.005.02l-.026.105zm-.046.233c0-.047.018-.123.046-.233l-.484-.125c-.023.088-.062.233-.062.358zm-.429.587c.058-.027.117-.053.165-.08a.5.5 0 0 0 .155-.121c.106-.124.109-.275.109-.386h-.5l-.005.087c0 .004.002-.01.015-.025.008-.01.01-.007-.016.008a2 2 0 0 1-.131.062zm-.009.004.01-.004-.209-.455-.01.005zm-.436-.305L8.1 6.58l.001.002.004.01a.4.4 0 0 0 .037.064.5.5 0 0 0 .123.12c.134.089.31.103.503.014l-.208-.454c-.035.016-.048.014-.044.014a.05.05 0 0 1 .045.037l.001.002v.001l.001.001zm-.486.179.128.215.015-.01a3 3 0 0 1 .184-.096 1 1 0 0 1 .123-.05c.015-.004.011 0-.004 0a.2.2 0 0 1-.152-.077l.383-.32a.3.3 0 0 0-.228-.104c-.05 0-.098.01-.131.02-.07.019-.144.05-.205.08a3 3 0 0 0-.238.125l-.001.001H7.72zm-.259-.072-.2.15.001.001.002.002a.4.4 0 0 0 .04.046.47.47 0 0 0 .502.107L7.76 6.43h.01q.01.002.011.004v-.001.002l.005.005.001.001.001.001zm.185.759c-.001-.242-.002-.445.005-.577.005-.074.01-.097.009-.092a.2.2 0 0 1-.019.039.24.24 0 0 1-.312.079.2.2 0 0 1-.066-.056l.396-.305a.3.3 0 0 0-.09-.078.26.26 0 0 0-.351.093.3.3 0 0 0-.035.076 1 1 0 0 0-.03.215c-.01.152-.008.373-.007.608zm0 0h-.5zm0 .25v-.25l-.5.002v.249zM5.855 9.31c.462-.08.93-.321 1.282-.62.342-.288.636-.681.636-1.087h-.5c0 .179-.15.445-.458.705a2.3 2.3 0 0 1-1.046.51zM4.317 8.185c.022.257.154.576.405.813.26.246.642.396 1.133.311l-.086-.492c-.332.057-.556-.043-.704-.183a.83.83 0 0 1-.25-.493zm.814-.767.004.044c0 .008.004.039.017.072a.26.26 0 0 0 .106.129.25.25 0 0 0 .32-.05c.031-.037.044-.073.047-.08l.01-.033c.01-.042.018-.11.023-.164l-.498-.048a1 1 0 0 1-.01.09l.007-.02a.2.2 0 0 1 .043-.074.248.248 0 0 1 .42.075q.01.027.01.034l.001.008v-.013zm.117-.297a.35.35 0 0 0-.117.297l.5-.03q.002-.001-.007.037a.2.2 0 0 1-.054.078zm-.14-1.08.059-.243h-.003l-.003-.001-.03-.005-.061-.005a.8.8 0 0 0-.188.02 1.3 1.3 0 0 0-.552.303l.33.375a.8.8 0 0 1 .332-.19.3.3 0 0 1 .065-.008h.007l-.012-.002H5.05zm.365-.061a.6.6 0 0 0-.215-.155.4.4 0 0 0-.143-.034H5.11l-.001.25v.25h-.003l-.03-.002-.011-.003c-.002-.001.015.005.043.036zm-.6.812c.146-.043.32-.13.449-.224a.7.7 0 0 0 .183-.188.36.36 0 0 0 .054-.178.3.3 0 0 0-.086-.222l-.365.342a.2.2 0 0 1-.049-.13c0-.043.016-.068.018-.071.003-.005-.008.012-.052.045a1 1 0 0 1-.293.146zm-.496.22c.193-.096.364-.181.497-.22l-.142-.48c-.185.055-.4.164-.58.254zm-.265.13q.131-.061.265-.13l-.225-.446q-.135.069-.248.121zM4.33 6.11c-.186.163-.38.355-.5.498q-.045.054-.082.107a.4.4 0 0 0-.065.146.265.265 0 0 0 .24.322.3.3 0 0 0 .115-.013l.074-.028-.208-.455-.006.003c.001 0 .026-.008.063-.005a.235.235 0 0 1 .211.276c-.007.038-.022.053-.007.031l.049-.064c.096-.115.27-.289.446-.443zm-.325 2.423c-.017-.11.03-.29.109-.476a3 3 0 0 1 .151-.3v-.002l-.213-.13-.213-.13-.002.003-.004.006-.055.098a3 3 0 0 0-.125.26c-.081.192-.182.486-.142.748zm.158.205a.1.1 0 0 1-.07-.014c-.02-.013-.067-.057-.088-.191l-.494.077c.037.237.14.417.298.526a.6.6 0 0 0 .47.088zm.294-.167-.245-.05v.002l-.01.042a1 1 0 0 1-.034.104.4.4 0 0 1-.043.083c-.014.02-.005-.004.038-.014l.116.486a.44.44 0 0 0 .248-.175 1 1 0 0 0 .105-.195 1.5 1.5 0 0 0 .069-.226v-.005l.001-.002zm-.05.05a.1.1 0 0 1-.044.03.2.2 0 0 1-.092.01.2.2 0 0 1-.057-.021l-.01-.009a.2.2 0 0 1 .025.042v-.001l.457-.201v-.003l-.01-.018a.8.8 0 0 0-.107-.16.4.4 0 0 0-.219-.123.35.35 0 0 0-.314.12zm-.598-.358a.44.44 0 0 0 .037.282.33.33 0 0 0 .234.169.4.4 0 0 0 .237-.029h.001l-.097-.231-.097-.23h.002v-.001l.003-.001.004-.002h.007q.006-.001.028.001a.17.17 0 0 1 .117.086c.024.044.012.07.018.035zm.243-.638-.249.024v.004l.002.013a4 4 0 0 1 .013.219c.006.139.006.286-.01.378l.495.08a2.6 2.6 0 0 0 .015-.478 6 6 0 0 0-.016-.257v-.005H4.3v-.001zM6.5 6.228a.14.14 0 0 1 .034.053.19.19 0 0 1-.027.183l-.015.015.005-.003.026-.011h.002-.002l-.15-.477H6.37a.4.4 0 0 0-.056.022.6.6 0 0 0-.117.065.36.36 0 0 0-.142.2.33.33 0 0 0 .104.319zm-.121.183q-.002-.025.015-.065a.2.2 0 0 1 .053-.067.14.14 0 0 1 .084-.03c.01 0-.01-.001-.031-.021l-.34.366c.096.09.227.15.357.154a.37.37 0 0 0 .234-.071.33.33 0 0 0 .128-.266zm.069-.185-.08.237h-.003l.033.016q.012.01.001-.001a.1.1 0 0 1-.02-.067h.5c0-.193-.139-.304-.2-.346a.7.7 0 0 0-.145-.073L6.53 5.99h-.002zm4.99-.403c-.002 0 .014.002.025.013.004.004-.004-.003-.013-.033a.4.4 0 0 1-.014-.118v-.007l-.25-.014-.25-.014v.03a1 1 0 0 0 .033.26c.021.074.06.17.14.25a.46.46 0 0 0 .346.132zm.353.07a.24.24 0 0 1-.183-.076.2.2 0 0 1-.053-.1c-.008-.035-.003-.055-.004-.048a.3.3 0 0 1-.025.067c-.04.075-.079.086-.088.087l.017.5c.275-.01.438-.215.512-.352a.7.7 0 0 0 .078-.224.4.4 0 0 0-.002-.141.3.3 0 0 0-.066-.127.26.26 0 0 0-.203-.085zm.104-.159a.17.17 0 0 1-.11.159l-.009.001h.015l-.017-.5a.5.5 0 0 0-.203.048.33.33 0 0 0-.176.31zm-.578.084q-.002.043.018.103c.02.06.044.1.113.143a.27.27 0 0 0 .22.028.3.3 0 0 0 .112-.066.4.4 0 0 0 .115-.292l-.5.017a.1.1 0 0 1 .006-.04.14.14 0 0 1 .035-.049.2.2 0 0 1 .084-.048.235.235 0 0 1 .287.141q.012.04.01.046zm.182.086a.19.19 0 0 1-.18-.113l-.005-.013.003.04.5-.017a.6.6 0 0 0-.037-.203.31.31 0 0 0-.298-.194zm.204-.163v-.008q.002.001-.007.03a.22.22 0 0 1-.197.141l-.017-.5a.28.28 0 0 0-.257.191.4.4 0 0 0-.02.114zm-.443.187q.015.016.047.038a.254.254 0 0 0 .37-.109c.019-.041.023-.08.024-.086l.002-.03-.499-.032v.002l.003-.017a.24.24 0 0 1 .09-.137.246.246 0 0 1 .314.015zm-.088-.17c.001.006.007.031.016.057s.03.072.072.113l.35-.356c.031.03.044.061.048.072l.002.007.001.003v-.002l-.002-.005zm.147.112h-.01l-.027-.007a.18.18 0 0 1-.11-.105c-.002-.007-.003-.012 0 0l.487-.111a.35.35 0 0 0-.082-.17.35.35 0 0 0-.275-.107zm-.133-.206.25-.008v.025a.2.2 0 0 1-.023.086.2.2 0 0 1-.07.083c-.043.03-.068.022-.024.02l-.017-.5a.45.45 0 0 0-.242.068.3.3 0 0 0-.12.178l-.004.044v.012zm3.063-1.006-.25-.014v.03a1 1 0 0 0 .033.26c.02.074.06.17.14.25a.46.46 0 0 0 .346.132l-.018-.5c-.001 0 .014.003.025.014.004.004-.004-.003-.012-.033a.4.4 0 0 1-.015-.119v-.006zm.115-.294a.45.45 0 0 0-.241.067.3.3 0 0 0-.12.179l-.004.044v.012l.25-.008.25-.008v.012l-.004.041a.23.23 0 0 1-.09.141c-.042.03-.068.021-.023.02zm.358.277c-.002-.008-.017-.097-.082-.17a.35.35 0 0 0-.276-.107l.018.5h-.01l-.028-.007a.18.18 0 0 1-.109-.105c-.002-.007-.003-.012 0 0zm-.049-.075a.2.2 0 0 1 .05.079v.002-.001l-.001-.005-.488.111c.002.006.007.031.016.056.01.027.03.073.072.114zm-.406.137v.002l.003-.018a.23.23 0 0 1 .089-.137.25.25 0 0 1 .278-.013q.027.019.036.029l-.35.356q.014.016.046.038a.254.254 0 0 0 .37-.109c.02-.041.023-.08.024-.087l.003-.03zm.277-.305a.28.28 0 0 0-.256.19c-.02.054-.02.11-.021.115l.499.031v-.007q.001.002-.007.029a.22.22 0 0 1-.197.141zm.335.397a.6.6 0 0 0-.036-.203.31.31 0 0 0-.298-.194l.017.5a.19.19 0 0 1-.18-.114c-.007-.013-.007-.02-.005-.012l.002.04zm-.421-.05a.1.1 0 0 1 .006-.04.14.14 0 0 1 .035-.049.2.2 0 0 1 .084-.048.235.235 0 0 1 .286.141c.01.025.01.043.01.046l-.5.017a.4.4 0 0 0 .019.103.265.265 0 0 0 .332.171.3.3 0 0 0 .112-.066.4.4 0 0 0 .115-.292zm.378-.357a.5.5 0 0 0-.203.048.33.33 0 0 0-.175.31l.5-.018a.17.17 0 0 1-.11.159l-.01.001h.016zm-.318.928c.274-.01.438-.214.511-.351a.7.7 0 0 0 .079-.224.4.4 0 0 0-.003-.141.3.3 0 0 0-.065-.127.26.26 0 0 0-.203-.085l.017.5a.24.24 0 0 1-.183-.078.2.2 0 0 1-.053-.1c-.008-.034-.003-.054-.004-.047a.3.3 0 0 1-.026.066c-.04.076-.078.087-.088.087zm-6.71 1.467a1 1 0 0 0-.099.105.35.35 0 0 0-.075.194.32.32 0 0 0 .089.233.5.5 0 0 0 .136.1l.235-.442c-.024-.013-.02-.013-.007 0q.014.012.032.05a.2.2 0 0 1 0 .147l-.01.018.009-.01.027-.025zm.761.255a1.4 1.4 0 0 0-.26-.267.45.45 0 0 0-.223-.086.37.37 0 0 0-.278.098l.337.37a.1.1 0 0 1-.039.022.14.14 0 0 1-.057.008c-.032-.002-.043-.014-.028-.004q.02.014.064.06.043.046.094.11zm-.006.665c.029-.046.092-.143.115-.258a.49.49 0 0 0-.109-.407l-.39.312c.01.014.01.018.009.012l-.001-.008v-.005l-.01.026-.039.065zm0 .001-.424-.265zm-.03.05q.01-.02.03-.05l-.425-.264-.043.073zm-.615-.261a.3.3 0 0 0-.018.33.31.31 0 0 0 .252.147.41.41 0 0 0 .381-.216l-.438-.241c.014-.026.043-.045.087-.042a.19.19 0 0 1 .147.096.2.2 0 0 1 .003.207zm-.06-.079c-.013-.007-.01-.01.002.007a.24.24 0 0 1 .04.112q0 .007.001-.003a.1.1 0 0 1 .017-.037l.414.28a.43.43 0 0 0 .068-.246.7.7 0 0 0-.037-.207.62.62 0 0 0-.27-.347zm9.76-.822c-.024-.012-.02-.013-.007 0q.013.013.031.05a.2.2 0 0 1 0 .147l-.006.014-.003.005.008-.01.027-.026-.337-.37a1 1 0 0 0-.098.105.35.35 0 0 0-.075.195.32.32 0 0 0 .089.233.5.5 0 0 0 .135.099zm.089.825a.8.8 0 0 0 .117-.366.6.6 0 0 0-.02-.223.4.4 0 0 0-.187-.236l-.235.442a.12.12 0 0 1-.057-.062.4.4 0 0 1-.016.123q-.015.044-.016.041zm-.229-.168a.15.15 0 0 1 .1-.071.13.13 0 0 1 .083.01.13.13 0 0 1 .06.07.17.17 0 0 1-.014.16l-.414-.282a.33.33 0 0 0-.033.313.374.374 0 0 0 .416.22.35.35 0 0 0 .24-.18zm.013-.023-.013.022.438.242.012-.022zm.069-.3a.3.3 0 0 1 0 .148.7.7 0 0 1-.07.151l.438.243c.07-.127.197-.347.116-.665zm.108-.154a.14.14 0 0 1-.108.03c-.047-.005-.068-.028-.065-.025a.2.2 0 0 1 .027.043.6.6 0 0 1 .038.107l.484-.124a.84.84 0 0 0-.194-.378.36.36 0 0 0-.518-.022zm1.312-3.03a1 1 0 0 0-.099.104.35.35 0 0 0-.075.194.32.32 0 0 0 .089.233.5.5 0 0 0 .136.1l.235-.442c-.024-.013-.02-.014-.007 0q.014.012.032.049a.2.2 0 0 1 0 .148l-.01.018.009-.01.027-.025zm.713.4a.84.84 0 0 0-.195-.379.36.36 0 0 0-.518-.022l.337.37a.14.14 0 0 1-.108.03c-.047-.005-.069-.028-.066-.025a.2.2 0 0 1 .027.043.6.6 0 0 1 .038.107zm-.117.664c.07-.126.198-.347.117-.664l-.485.124a.3.3 0 0 1 .001.147.7.7 0 0 1-.07.151zm-.012.022.013-.022-.438-.242-.012.022zm-.623-.353a.33.33 0 0 0-.033.312.375.375 0 0 0 .416.22c.1-.02.188-.083.24-.18l-.438-.24a.15.15 0 0 1 .1-.07.13.13 0 0 1 .084.01.13.13 0 0 1 .06.07.17.17 0 0 1-.015.159zm.09-.103a.12.12 0 0 1-.058-.061q.002-.003.001.04a.4.4 0 0 1-.016.083q-.016.043-.017.04l.414.282a.8.8 0 0 0 .118-.367.6.6 0 0 0-.02-.223.4.4 0 0 0-.187-.235zm-4.687-1.055c-.024-.013-.02-.014-.006 0q.014.012.03.049a.2.2 0 0 1 .001.147l-.01.019.009-.01.027-.026-.337-.369a1 1 0 0 0-.099.105.35.35 0 0 0-.074.194.32.32 0 0 0 .088.233.5.5 0 0 0 .136.099zm.298.972a.4.4 0 0 0 .059-.167.6.6 0 0 0-.002-.13 1.3 1.3 0 0 0-.161-.472.54.54 0 0 0-.194-.203l-.235.44c-.02-.01-.027-.02-.022-.014l.022.032a.8.8 0 0 1 .093.27l.002.022.003-.016a.2.2 0 0 1 .022-.043zm-.237-.261c.014-.026.044-.045.087-.042a.19.19 0 0 1 .147.095.2.2 0 0 1 .003.208l-.413-.281a.3.3 0 0 0-.018.33.31.31 0 0 0 .25.147.41.41 0 0 0 .382-.216zm.024-.335c.014.018.032.064.025.149a.5.5 0 0 1-.049.186l.438.24c.054-.097.098-.24.11-.387a.7.7 0 0 0-.133-.5zm-.034-.197a.1.1 0 0 1-.038.023.14.14 0 0 1-.058.008c-.032-.003-.042-.015-.027-.004q.02.013.063.06.043.045.094.11l.39-.312a1.4 1.4 0 0 0-.259-.267.45.45 0 0 0-.224-.086.37.37 0 0 0-.278.099zm-1.88 2.347a.2.2 0 0 1 .075.151.2.2 0 0 1-.031.126.2.2 0 0 1-.035.04c-.006.006-.003.002.024-.012l.096-.045-.207-.455c-.038.018-.08.036-.115.054a.6.6 0 0 0-.116.073.3.3 0 0 0-.115.245c.007.136.104.21.14.234zm-.11.205c0-.054.021-.104.054-.141a.2.2 0 0 1 .072-.052c.025-.01.036-.007.022-.008l-.035-.005q-.02-.007-.003 0l-.285.412c.095.066.219.09.308.093a.5.5 0 0 0 .177-.028.29.29 0 0 0 .19-.27zm.004-.062-.003.063h.5v-.004l.001-.018zm.235.117c.016-.007-.016.012-.071.002a.2.2 0 0 1-.15-.114c-.014-.033-.012-.054-.012-.044l-.002.039.498.041.004-.087a.4.4 0 0 0-.031-.154.3.3 0 0 0-.22-.173.4.4 0 0 0-.223.035zM11.297 7.28l-.055-.244-.015.003a1.2 1.2 0 0 1-.235.021v.5a2 2 0 0 0 .35-.034l.006-.002h.004zm.416-.22a3 3 0 0 1-.375-.027h-.007l-.001-.001-.033.248-.032.248h.003l.009.001.136.015c.084.008.197.016.3.016zm.04.741a.7.7 0 0 0 .195-.13.43.43 0 0 0 .126-.21.31.31 0 0 0-.099-.313.4.4 0 0 0-.262-.088v.5c.018 0-.02.005-.066-.034a.19.19 0 0 1-.06-.18c.009-.036.025-.046.014-.036a.3.3 0 0 1-.062.04zm-.101.107.013-.058c.002-.006.002-.002-.002.003-.006.008.001-.01.09-.052l-.214-.451a.7.7 0 0 0-.28.207c-.068.094-.086.197-.097.25zm-.008.036.008-.035-.49-.104-.007.036zm-.54.39c.062.02.139.033.22.018a.35.35 0 0 0 .209-.126.5.5 0 0 0 .08-.156 1 1 0 0 0 .03-.124l-.488-.107-.02.08c-.005.019-.005.01.008-.006a.15.15 0 0 1 .088-.052c.03-.006.041.002.022-.004zm-.543-.77c.039.098.101.254.176.394.037.07.082.143.133.206a.5.5 0 0 0 .233.17l.15-.477c.031.01.03.022.004-.01a1 1 0 0 1-.08-.125 4 4 0 0 1-.152-.344zm-.012-.03.012.03.464-.186-.012-.03zm.363-.478a1 1 0 0 0-.1-.004.33.33 0 0 0-.19.063.3.3 0 0 0-.114.253.5.5 0 0 0 .04.166l.465-.186c-.012-.03-.007-.026-.006-.004a.2.2 0 0 1-.013.075.21.21 0 0 1-.142.13l-.017.003h-.006.012l.034.003zm.009.001-.055.497zm.071.003q-.036 0-.08-.004l-.037.499c.028.002.07.005.117.005zm-2.12-3.643a.16.16 0 0 1-.07-.053q-.014-.025-.011-.022l.002.022v.044a.3.3 0 0 1-.016.078q-.002.004 0 .001 0-.002.01-.016a.2.2 0 0 1 .043-.043.23.23 0 0 1 .134-.042v.5c.136 0 .21-.098.226-.12a.4.4 0 0 0 .055-.106.83.83 0 0 0 .03-.444.38.38 0 0 0-.22-.264zM8.7 3.292c.01.03.01.068-.004.104a.13.13 0 0 1-.035.052c-.007.006.004-.004.045-.015a.5.5 0 0 1 .163-.015q.017.002.004 0l.184-.466a.6.6 0 0 0-.243-.036c-.077.002-.16.013-.238.034a.6.6 0 0 0-.24.118.35.35 0 0 0-.115.368zm.06.093-.047-.07-.013-.023-.479.144c.031.102.1.194.132.24zm.05.667a.44.44 0 0 0 .088-.419c-.033-.106-.103-.2-.138-.248l-.407.29q.032.043.05.073l.016.032s-.003-.01 0-.028c.004-.018.011-.026.009-.023zm-.779.693c.037-.023.095-.069.15-.114.061-.05.136-.112.213-.18.149-.13.323-.29.415-.399l-.381-.323a4 4 0 0 1-.363.346 8 8 0 0 1-.27.225l-.025.018zm-.035.02.035-.02-.26-.427-.03.018zm-.281-.294h.003l.01.002a.23.23 0 0 1 .144.09.24.24 0 0 1 .046.152.2.2 0 0 1-.047.127q-.013.015-.007.009c.025-.02.077-.053.132-.085l-.255-.43a2 2 0 0 0-.195.129.4.4 0 0 0-.06.058.3.3 0 0 0-.067.168.26.26 0 0 0 .16.255.3.3 0 0 0 .136.025zm.183.009c-.058-.004-.125-.009-.183-.009v.5q.055.001.15.008zm.255.004a.3.3 0 0 1-.076.005q-.078 0-.179-.009l-.034.499c.064.004.14.01.212.01a.8.8 0 0 0 .237-.03zm.142-.171q-.078.091-.13.148l-.038.035c-.01.008 0-.003.026-.012l.16.474a.4.4 0 0 0 .126-.071 1 1 0 0 0 .083-.077c.05-.052.104-.115.153-.172zm.013-.014.354.353zm0 0 .354.353zm.325-.327c-.123.087-.25.238-.338.341l.38.325c.105-.123.186-.216.246-.258zm.161-.047a.2.2 0 0 1-.062-.107q-.005-.023-.003-.02a.25.25 0 0 1-.096.173l.288.409a.75.75 0 0 0 .308-.565.4.4 0 0 0-.008-.1.3.3 0 0 0-.085-.155zm.003.012.02.009.013.005-.004-.002a.2.2 0 0 1-.032-.024l.342-.365c-.037-.034-.078-.054-.09-.06l-.054-.023zm-.302-.513a.32.32 0 0 0-.006.26c.03.075.083.123.118.15.068.053.155.088.19.103l.195-.46-.056-.025-.022-.013.011.012a.18.18 0 0 1 .024.182zm.577.105a.34.34 0 0 0-.03-.137.3.3 0 0 0-.13-.145.28.28 0 0 0-.301.024.4.4 0 0 0-.116.153l.454.209c.008-.017 0 .01-.038.039a.23.23 0 0 1-.237.015.2.2 0 0 1-.088-.092.2.2 0 0 1-.014-.066zm-.107-.143a.1.1 0 0 1 .045.007l.012.007.018.02a.2.2 0 0 1 .032.109h-.5c0 .083.036.146.059.178a.42.42 0 0 0 .334.179zm-.17 1.855.148-.054-.17-.47-.148.054zm-.44-.269a.39.39 0 0 0 .294.278l.056.006h.004v-.25l.001-.25h.002l.03.003a.13.13 0 0 1 .074.042.1.1 0 0 1 .019.032zm.029-.302a1 1 0 0 0-.033.107.4.4 0 0 0 .003.195l.48-.139a.1.1 0 0 1 .006.041v.01l.004-.015.01-.03zm.21.22a.22.22 0 0 1-.205-.208c0-.029.006-.047.004-.04l-.01.028.471.17.02-.06a.4.4 0 0 0 .016-.115.28.28 0 0 0-.103-.21.3.3 0 0 0-.192-.064zm-.004.142a.7.7 0 0 1 .065-.143c.013-.02.019-.024.015-.021a.12.12 0 0 1-.075.023v-.5a.38.38 0 0 0-.238.087.6.6 0 0 0-.121.139 1.2 1.2 0 0 0-.12.256zm.137.03a.6.6 0 0 1-.12-.096c-.016-.018-.018-.025-.016-.02a.13.13 0 0 1 0 .086l-.475-.159a.38.38 0 0 0 .014.267.6.6 0 0 0 .107.162c.074.081.164.146.225.184zm.019-.136L8.67 5a.4.4 0 0 1-.052.043c-.013.009-.009.003.01 0a.14.14 0 0 1 .096.02l-.264.423c.179.112.352.028.432-.025.085-.055.162-.136.212-.188zm.112.026-.05.245h-.003l-.002-.001-.004-.001-.017-.011a.2.2 0 0 1-.07-.138.2.2 0 0 1 .028-.113l.006-.007.36.347a.34.34 0 0 0 .104-.26.31.31 0 0 0-.127-.229.4.4 0 0 0-.172-.076h-.003zm6.703 2.504a1.7 1.7 0 0 0-.155.572c-.015.185 0 .422.128.595l.401-.299c-.016-.022-.043-.103-.03-.254a1.2 1.2 0 0 1 .106-.395zm.568.237.003-.15-.003-.07a.4.4 0 0 0-.021-.096.26.26 0 0 0-.231-.174.26.26 0 0 0-.217.093.7.7 0 0 0-.099.16l.45.219c.027-.056.032-.057.02-.043a.24.24 0 0 1-.182.07.24.24 0 0 1-.21-.15c-.008-.024-.009-.04-.008-.032v.028q.001.047-.002.13zm0 .006-.5-.027zm-.004.193q0-.103.004-.198l-.5-.016-.004.214zm.124.312a.6.6 0 0 1-.096-.129.4.4 0 0 1-.028-.183h-.5a.9.9 0 0 0 .075.394c.05.107.12.186.17.244zm.097.117-.097-.117-.379.326c.028.033.053.062.08.096zm-.17.033q.002-.014 0-.005c-.003.006-.001-.002.014-.014a.1.1 0 0 1 .047-.023.15.15 0 0 1 .072-.001c.046.01.055.034.037.01l-.397.305c.058.075.14.148.252.173a.35.35 0 0 0 .296-.07.5.5 0 0 0 .18-.376zm.53-1.052a2.6 2.6 0 0 0-.343.532 3 3 0 0 0-.124.27q-.024.06-.04.118a.5.5 0 0 0-.023.132h.5c0 .022-.004.028.003.006l.025-.073c.025-.062.06-.142.104-.226.09-.175.193-.34.266-.419zm.79.17c0-.183-.146-.316-.296-.353-.18-.044-.356.035-.493.183l.367.34c.029-.031.045-.037.044-.037a.1.1 0 0 1-.036 0 .1.1 0 0 1-.05-.031.15.15 0 0 1-.036-.102zm.227.18a.4.4 0 0 1-.166-.125.5.5 0 0 1-.065-.095l-.002-.004.003.01.003.034h-.5c0 .052.014.096.023.124a1 1 0 0 0 .041.089q.046.084.118.168a.9.9 0 0 0 .407.28zm.228-.264-.247-.034v.003l-.003.014a2 2 0 0 1-.052.21.4.4 0 0 1-.046.096c-.002.003.007-.01.032-.02a.14.14 0 0 1 .088-.005l-.138.48a.38.38 0 0 0 .397-.129.8.8 0 0 0 .138-.256 2 2 0 0 0 .078-.321v-.003zm-.25-1.71v1.71h.5v-1.71zm-.131-.475c.046.035.062.049.08.087.022.049.051.156.051.387h.5c0-.264-.032-.453-.097-.596-.07-.154-.17-.229-.228-.274zm-.1-.088c.038.04.078.07.1.088l.306-.396-.038-.032zm-.165-.16q.122.113.165.16l.368-.34c-.043-.046-.117-.115-.19-.184zm.004.003.336-.37zm-.001 0 .338-.37zm-.478-.503c.055.08.14.173.221.254.084.085.177.172.254.246l.344-.364a10 10 0 0 1-.242-.233 2 2 0 0 1-.164-.185zm-.14-.867a4 4 0 0 0 .009.438.9.9 0 0 0 .13.429l.414-.282a.45.45 0 0 1-.046-.193 4 4 0 0 1-.007-.386zm0 .003h.5zm0 0h.5zm.001-.16-.001.157.5.006.001-.163zm1.039.209a1.9 1.9 0 0 0-.388-.433 1 1 0 0 0-.132-.087.4.4 0 0 0-.188-.054.31.31 0 0 0-.266.133.4.4 0 0 0-.065.232h.5c0-.021.005.01-.024.054a.19.19 0 0 1-.158.08c-.033 0-.046-.01-.032-.003q.017.009.055.037c.107.086.229.23.267.294zm.053.48c.01-.04.031-.116.03-.201a.56.56 0 0 0-.083-.28l-.431.254.013.028v.006l-.001.018-.012.05zm-.019.105a.4.4 0 0 1 .019-.105l-.484-.125c-.013.049-.035.13-.035.23zm-.36 0c0-.005.001-.023.016-.047a.18.18 0 0 1 .126-.078.2.2 0 0 1 .198.083c.025.038.02.063.02.042h-.5c0 .072.013.16.064.237a.3.3 0 0 0 .294.132.32.32 0 0 0 .222-.15.4.4 0 0 0 .06-.219zm-.006-.096.006.096h.5c0-.036-.004-.087-.007-.13zm.272-.93a.42.42 0 0 0-.227.244 1 1 0 0 0-.052.25c-.012.157 0 .33.007.436l.5-.035a3 3 0 0 1-.008-.36.4.4 0 0 1 .02-.11c.007-.019-.002.018-.053.039zm.593.386a2 2 0 0 0-.063-.155.6.6 0 0 0-.096-.153.35.35 0 0 0-.224-.113.45.45 0 0 0-.21.035l.186.464c.022-.009.008.001-.025-.002a.16.16 0 0 1-.095-.045l-.004-.005.013.027c.014.03.029.068.052.127zm.09.222q-.054-.125-.09-.222l-.466.18q.037.098.097.24zm.057.673c.017-.07.042-.166.04-.283a1 1 0 0 0-.097-.39l-.46.199a.6.6 0 0 1 .057.203c0 .04-.007.076-.025.15zm-.037.252c0-.103.017-.171.037-.252l-.485-.12c-.022.087-.052.205-.052.372zm.28.518a2 2 0 0 1-.197-.266.5.5 0 0 1-.083-.252h-.5c0 .197.072.37.152.505s.177.252.245.333zm.134.176c-.035-.06-.092-.126-.133-.176l-.384.32c.053.064.077.094.087.11zm-.662-.918.01.017.02.049q.023.063.05.157a5 5 0 0 1 .139.75c.003.047 0 .046.004.024.002-.006.007-.035.027-.07a.245.245 0 0 1 .381-.048.2.2 0 0 1 .031.039l-.43.255a.3.3 0 0 0 .046.06.255.255 0 0 0 .402-.049.3.3 0 0 0 .034-.089.6.6 0 0 0 .003-.16 5.5 5.5 0 0 0-.156-.844 1.4 1.4 0 0 0-.15-.376zm.164-1.31c-.145.18-.235.421-.27.644-.032.213-.025.476.107.666l.41-.285c-.02-.03-.048-.135-.022-.304a.9.9 0 0 1 .165-.41zm.809.379a4 4 0 0 0-.087-.202 1 1 0 0 0-.122-.2.38.38 0 0 0-.293-.147.4.4 0 0 0-.307.17l.39.312c.024-.03 0 .017-.077.018-.076.001-.109-.047-.095-.031q.015.015.052.092.035.076.076.177zm.093.212a3 3 0 0 1-.093-.212l-.463.189c.032.08.072.177.115.258zm-.117.785c.042-.057.124-.161.167-.293a.62.62 0 0 0-.05-.492l-.441.235q.021.045.02.062a.1.1 0 0 1-.005.041.5.5 0 0 1-.09.145zm-.04.054.04-.054-.4-.302c-.017.023-.041.055-.062.087zm.055.021-.034-.099q.002-.004 0 .02a.14.14 0 0 1-.021.058l-.422-.269a.38.38 0 0 0-.048.284c.012.066.04.135.057.183zm.131.648c0-.302-.08-.514-.13-.648l-.469.177c.047.123.1.264.1.47zm.419 1.178c-.254-.348-.419-.77-.419-1.178h-.5c0 .536.213 1.06.515 1.473zm.426 1.314c-.057-.41-.12-.895-.426-1.314l-.404.295c.221.302.275.658.335 1.088zm.01.069-.01-.069-.495.07.01.068zm-.496-1.207c.032.274.047.691.047.987 0 .154-.005.254-.01.286-.003.017 0-.015.02-.053a.247.247 0 0 1 .427-.009c.02.034.024.061.02.042l-.008-.046-.495.07q.006.045.014.083c.003.013.013.06.038.104a.253.253 0 0 0 .444-.008.3.3 0 0 0 .034-.108 3 3 0 0 0 .016-.36c0-.306-.015-.745-.05-1.046zm-.195-3.184a4 4 0 0 0-.02.676c.01.277.031.6.057.923.053.646.124 1.297.158 1.585l.497-.058a45 45 0 0 1-.156-1.567 20 20 0 0 1-.056-.9 3.5 3.5 0 0 1 .013-.575zm.693-.016c-.023-.054-.048-.114-.072-.164a1 1 0 0 0-.045-.08.4.4 0 0 0-.094-.098.27.27 0 0 0-.27-.025.3.3 0 0 0-.143.14 1 1 0 0 0-.07.243l.494.084.017-.083c.005-.02.007-.022.003-.014 0 0-.025.053-.094.085a.23.23 0 0 1-.22-.018.2.2 0 0 1-.04-.037l.001.002.012.022q.023.047.059.135zm.15.31a1.7 1.7 0 0 1-.15-.31l-.462.192c.046.112.115.282.206.409zm.043.06-.043-.06-.406.29.043.06zm.085.68c.041-.066.13-.194.094-.36a.5.5 0 0 0-.075-.171q-.044-.067-.104-.15l-.406.292c.043.06.069.096.087.124.018.029.012.027.009.01a.13.13 0 0 1 .003-.065l-.005.01-.024.04zm-.414.173c.013.003.096.028.191.002a.4.4 0 0 0 .223-.176l-.421-.27c-.008.013.01-.02.065-.036.047-.013.087 0 .066-.005zm.261-.18q.002-.014-.003.013a.23.23 0 0 1-.235.17c-.02-.002-.038-.007-.023-.003l.124-.485c-.001 0-.033-.009-.067-.011a.27.27 0 0 0-.286.217.4.4 0 0 0-.01.099zm.06.536-.056-.494-.004-.042h-.5c0 .04.009.124.019.214l.045.382zm0 0-.496.061zm0 .003-.496.056zm.24 2.65c0-.665-.153-1.928-.24-2.652l-.496.06c.089.739.235 1.965.235 2.592zm-1.07 1.661c.238-.088.51-.239.72-.51.214-.273.35-.647.35-1.151H20c0 .41-.109.671-.244.844a1.1 1.1 0 0 1-.5.349zm-.987-.39c0 .211.152.366.333.43.182.065.407.052.653-.04l-.174-.468c-.174.065-.273.051-.311.038-.039-.014 0-.016 0 .04zm.271.223.045-.036c.014-.01.007-.003-.013.005a.23.23 0 0 1-.23-.046.2.2 0 0 1-.067-.106c-.006-.022-.006-.038-.006-.04h.5c0-.027 0-.141-.093-.225a.28.28 0 0 0-.288-.048.5.5 0 0 0-.1.058l-.064.05zm-.385.183c.11 0 .199-.05.248-.08.054-.035.105-.077.137-.103L18.4 8.79a1 1 0 0 1-.088.066l-.015.009a.1.1 0 0 1 .034-.005zm-.218-.731a.9.9 0 0 0-.126.345.36.36 0 0 0 .067.257.34.34 0 0 0 .277.129v-.5c.01 0 .072.005.12.067.02.027.029.053.032.07q.003.024.002.025l.003-.012.011-.035a1 1 0 0 1 .05-.1zm.105.198c.013.01-.024-.013-.052-.053a.22.22 0 0 1-.039-.15c.003-.028.011-.043.008-.036l-.022.04.436.247a1 1 0 0 0 .045-.088.4.4 0 0 0 .03-.11.28.28 0 0 0-.099-.244l-.024-.018zm-.137-.266c0 .052.01.115.047.174.036.058.084.088.09.092l.283-.412c-.008-.005.026.015.052.056a.2.2 0 0 1 .028.09zm.403-.457a.43.43 0 0 0-.206.047.35.35 0 0 0-.152.158c-.05.102-.045.22-.045.252h.5l.001-.05c.001-.01.002 0-.007.018a.14.14 0 0 1-.062.064c-.026.013-.04.011-.03.011zm.344.602a.6.6 0 0 0 .103-.217.3.3 0 0 0-.01-.164.3.3 0 0 0-.105-.145.4.4 0 0 0-.2-.071c-.047-.005-.098-.005-.132-.005v.5c.041 0 .065 0 .081.002q.011 0 0 0a.2.2 0 0 1-.049-.026.2.2 0 0 1-.068-.095.2.2 0 0 1-.008-.09l.004-.015-.024.037zm-.197-.258-.009-.001.01.002.028.008c.021.01.07.033.107.089a.23.23 0 0 1 .021.217q-.005.01-.001.003l.041-.06-.408-.29-.059.087c-.008.014-.044.07-.053.139a.264.264 0 0 0 .166.28.4.4 0 0 0 .066.018l.031.004zm.272.091a.6.6 0 0 0-.272-.091l-.06.496.036.006a.1.1 0 0 1 .032.014zm.026.031.011.002.024.007-.006-.006-.055-.034-.264.425q.074.047.11.065.02.011.05.022a.3.3 0 0 0 .052.013zm.165.069a.5.5 0 0 0-.165-.069l-.078.494-.007-.001-.017-.004-.02-.007.008.004.031.017zm.5-.467c-.16.15-.313.284-.437.37a.6.6 0 0 1-.133.076c-.033.011.01-.014.07.02l-.248.435a.41.41 0 0 0 .345.016c.086-.03.172-.082.25-.136.158-.109.333-.265.495-.416zm.065.097.047.02.003.003-.005-.004-.012-.011a.17.17 0 0 1-.043-.142.1.1 0 0 1 .01-.033l-.015.018-.05.052.342.365a.8.8 0 0 0 .16-.195.35.35 0 0 0 .034-.286.36.36 0 0 0-.155-.188c-.044-.027-.094-.048-.119-.059zm-.219-.143a.5.5 0 0 0 .127.1c.034.018.07.034.092.043l.197-.46-.05-.023q-.006-.003-.002 0l.016.015zm-.225-.347c.04.067.081.136.118.194.034.053.073.113.107.153l.38-.325a1 1 0 0 1-.064-.095l-.113-.185zm-.01-.017.447-.224zm.029.044.39-.312zm-.037-.063.464-.186zm.018.036.428-.258zm-.207-.332c-.018-.013-.02-.02 0 .006q.022.029.055.08c.046.07.098.157.152.246l.428-.258a10 10 0 0 0-.16-.26 2 2 0 0 0-.076-.11.5.5 0 0 0-.097-.102zm.393-.025a2 2 0 0 1-.018-.14v.009c-.001.004-.004.035-.024.074a.24.24 0 0 1-.201.127.23.23 0 0 1-.15-.045l.302-.398a.26.26 0 0 0-.394.084.3.3 0 0 0-.031.106.4.4 0 0 0-.002.06c.002.057.014.136.023.197zm-.035.611a.4.4 0 0 0 .064-.187 1 1 0 0 0 .003-.15 3 3 0 0 0-.032-.274l-.495.074q.02.126.028.227a.4.4 0 0 1 0 .065c-.002.017-.003-.004.018-.036zm-.595.41a.45.45 0 0 0 .205-.058q.076-.042.145-.097c.089-.07.182-.163.244-.255l-.413-.281a.8.8 0 0 1-.21.192l-.01.004c.001 0 .015-.005.04-.005zm0-1.94-.25-.014v.02l-.003.054a39 39 0 0 0-.032.778c-.006.212-.009.43-.004.595.002.081.006.158.015.219.004.027.01.066.023.104.007.017.02.051.048.086a.26.26 0 0 0 .203.098v-.5a.24.24 0 0 1 .187.089.2.2 0 0 1 .033.058c.005.012.004.015 0-.004a2 2 0 0 1-.01-.164c-.004-.151 0-.357.005-.567.006-.21.014-.419.022-.576l.009-.19.003-.054v-.018zm-.2-.527c-.004-.01 0-.003 0 .014q.003.015-.003.057a.238.238 0 0 1-.35.159l-.01-.005.012.01.029.03q.034.038.077.091a7 7 0 0 1 .237.31l.004.005.001.002.203-.146.203-.146-.002-.002-.004-.007-.077-.104a7 7 0 0 0-.178-.228 1.5 1.5 0 0 0-.192-.206.4.4 0 0 0-.088-.053.262.262 0 0 0-.36.272.4.4 0 0 0 .019.093zm-.37 2.541a.8.8 0 0 0 .13-.245q.048-.133.085-.3a9 9 0 0 0 .183-1.477q.006-.164.002-.29a1 1 0 0 0-.03-.229l-.479.146.003.024q.005.03.006.08.004.099-.001.25a9 9 0 0 1-.171 1.384q-.035.148-.068.242c-.025.069-.041.09-.04.09zm-1.255-.309c.09.149.286.317.49.413.193.09.53.17.765-.104l-.38-.326c-.002.003-.03.044-.173-.023a.75.75 0 0 1-.275-.22zm.132.134a.5.5 0 0 1 .036-.093c.015-.028.024-.035.02-.031a.15.15 0 0 1-.12.023c-.064-.014-.081-.054-.068-.033l.427-.26a.4.4 0 0 0-.256-.196.36.36 0 0 0-.304.082.76.76 0 0 0-.217.378zm-.578.98c.208-.13.337-.339.419-.516.084-.181.132-.363.16-.464l-.483-.13a2.4 2.4 0 0 1-.131.385c-.066.142-.143.247-.23.3zm-.867-.524c.06.115.148.29.26.411.057.063.14.134.25.167a.43.43 0 0 0 .357-.054l-.264-.424s.021-.01.048-.002c.014.004.006.007-.022-.024a1.6 1.6 0 0 1-.186-.305zm-.099-.175c.022.029.051.083.099.175l.443-.231c-.04-.076-.09-.174-.14-.243zm1.44-2.008a1 1 0 0 1 .082-.07 11 11 0 0 1 .413-.297l.015-.01.004-.003h.001v-.001l-.139-.208-.14-.207-.001.001-.004.003-.017.011-.058.04a11 11 0 0 0-.384.279c-.054.042-.123.1-.165.152zm-.082-.139c-.006-.003.013.005.033.034a.17.17 0 0 1 .029.11c-.003.028-.012.04-.008.034l.027-.039-.392-.31a.53.53 0 0 0-.125.269.33.33 0 0 0 .057.22c.043.061.1.1.15.126zm.425-.283a1.1 1.1 0 0 1-.304.2 1 1 0 0 1-.159.06l-.028.005.017.001q.015.002.05.017l-.23.444a.36.36 0 0 0 .178.038.6.6 0 0 0 .132-.02c.082-.02.17-.053.252-.092.16-.075.346-.19.46-.315zm.194-.17a.1.1 0 0 1-.016-.07c.001-.004 0 .005-.014.03a1.2 1.2 0 0 1-.164.21l.368.338c.085-.092.174-.198.234-.305.051-.094.127-.273.027-.45zm-.16.003.149.2h.002l.007-.006a1 1 0 0 1 .164-.096l.013-.005s-.024.005-.059-.005a.2.2 0 0 1-.116-.091l.435-.247c-.098-.172-.28-.161-.346-.15a.7.7 0 0 0-.2.074 1.5 1.5 0 0 0-.194.122l-.004.003H17.2v.001zm-.705-1.081-.077-.238h-.001l-.001.001-.009.003-.07.03a.6.6 0 0 0-.15.11.4.4 0 0 0-.113.273.48.48 0 0 0 .127.315l.38-.324c-.024-.03-.007-.023-.007.014 0 .04-.02.062-.023.066l.014-.008.01-.005h.002-.004zm.494-.05a.9.9 0 0 0-.435-.196l-.057-.004h-.001v.5h-.008.004q.011.001.037.008c.034.01.085.031.142.078zm-.336.118.007.06q0 .007 0 0a.23.23 0 0 1 .104-.166.23.23 0 0 1 .167-.033c.034.007.055.02.058.022q.009.005 0-.001l-.318.386c.025.02.084.068.164.084a.27.27 0 0 0 .308-.179c.022-.064.017-.127.016-.148l-.01-.09zm.027-.423a.6.6 0 0 0-.043.246c.001.068.01.134.016.177l.495-.065a1 1 0 0 1-.011-.12c0-.037.004-.044 0-.036zm.887.28a.8.8 0 0 0-.305-.41.46.46 0 0 0-.278-.086.35.35 0 0 0-.304.216l.458.202a.13.13 0 0 1-.043.05.16.16 0 0 1-.083.03c-.04.003-.052-.013-.03.002a.3.3 0 0 1 .063.062q.033.047.044.083zm-.297.495c.014-.002.054-.006.092-.016a.3.3 0 0 0 .168-.108.32.32 0 0 0 .067-.21.6.6 0 0 0-.03-.16l-.477.148c.009.03.007.034.007.024a.18.18 0 0 1 .04-.112.2.2 0 0 1 .094-.064c.006-.002.009-.002-.017.001zm-.044.007.008-.002.036-.005-.056-.497c-.032.004-.109.01-.188.045zm.117.117-.019-.12-.007-.084c0-.022.003-.018-.003-.002a.17.17 0 0 1-.088.089l-.2-.459a.34.34 0 0 0-.18.193.5.5 0 0 0-.029.178c0 .095.02.206.033.287zm.033.297c0-.1-.02-.213-.033-.297L17 5.571q.024.142.026.215zm-1.175-.347c.109.128.304.323.477.46.08.063.182.136.277.17a.33.33 0 0 0 .256-.006.3.3 0 0 0 .165-.277h-.5c0-.014.007-.12.119-.174a.2.2 0 0 1 .12-.016l.008.002-.01-.005-.032-.019a1 1 0 0 1-.093-.067 3.4 3.4 0 0 1-.406-.392z"/><path fill="#fff" fill-rule="evenodd" d="M10.45 11.892c-.61.074-3.691.06-4.612-.161-.206-.044-.089.897.045 1.113.133.216 1.181.433 1.547.483.313.043 1.52-.025 2.776-.095l.623-.034c1.1-.06 2.705.044 3.545.099.271.018.463.03.531.03.257 0 .238.087.2.261l-.011.047c-.044.206.187.649.288.69.102.042.859 0 1.27-.159.235-.09.263-.078.324-.05.046.02.112.05.3.05.283 0 .298-.405.308-.691.006-.156.01-.277.056-.277.052 0 .121.153.186.296.099.219.187.415.187.01 0-.67-.787-1.547-1.045-1.477-.18.05-.478-.005-.68-.042-.086-.015-.154-.028-.19-.028-.05 0-.035-.012-.001-.04.043-.034.118-.095.118-.186 0-.161-.153-.184-.28-.184a.19.19 0 0 0-.196.184c0 .08.096.16.096.16-.02 0-.12 0-.281-.003-1.037-.013-4.575-.06-5.104.004m5.207 1.418s.08-.048.269-.28c.208-.256.282-.174.358-.088.04.044.08.089.14.089.177 0 .41 0 .562.128.152.13-.2.306-.302.306-.05 0-.088-.031-.126-.063-.038-.033-.077-.066-.13-.066-.063 0-.116.046-.159.083-.03.025-.054.046-.074.046a.4.4 0 0 1-.106-.05c-.092-.053-.222-.127-.328-.127-.067 0-.104.022-.104.022" clip-rule="evenodd"/><path fill="#fff" d="m5.838 11.73.058-.242-.007-.002zm4.612.162.03.248zm-4.567.952.213-.131zm1.547.483-.034.248zm2.776-.095.014.25zm.623-.034-.013-.25zm3.545.099-.017.25zm.73.291.244.055zm-.01.047-.245-.052zm.288.69.095-.23zm1.27-.159.09.234zm.324-.05-.103.228zm.608-.641.25.009zm.242.02-.228.102zm-.858-1.468.066.241zm-.68-.042.045-.246zm-.191-.067.157.194zm-.262-.026v.25h.682l-.52-.441zm-.281-.004.003-.25zm.372 1.143-.194-.158zm-.27.279.217-.125zm.628-.369-.186.167zm.702.218-.161.191zm-.428.243-.161.19zm-.289.017.163.19zm-.18-.004-.124.217zm-.328-.127v-.25zm-9.982-1.314c.491.118 1.52.177 2.476.198.96.022 1.9.007 2.225-.032l-.06-.496c-.284.034-1.19.05-2.154.028-.968-.022-1.94-.08-2.37-.184zm.317.739-.002-.003-.006-.013-.016-.043a1 1 0 0 1-.037-.135 3 3 0 0 1-.052-.348 1.2 1.2 0 0 1 .003-.268c.005-.03.009-.02-.009.004a.2.2 0 0 1-.19.07l.103-.49a.31.31 0 0 0-.315.123.5.5 0 0 0-.08.201 1.6 1.6 0 0 0-.01.4c.01.14.033.288.063.418.027.12.066.255.123.348zm1.367.366a8 8 0 0 1-.829-.173 3 3 0 0 1-.408-.133 1 1 0 0 1-.12-.06c-.03-.019-.023-.021-.01 0l-.426.263a.5.5 0 0 0 .169.16q.089.056.194.098c.137.058.304.11.471.155.335.09.698.16.892.186zm2.73-.096c-.63.035-1.243.069-1.739.09-.507.02-.861.024-.99.006l-.068.496c.184.025.59.017 1.079-.003.5-.02 1.118-.055 1.745-.09zm.623-.035-.624.035.028.499.623-.035zm3.574.1c-.835-.055-2.457-.16-3.574-.1l.027.5c1.081-.06 2.67.043 3.515.098zm.515.029c-.058 0-.237-.012-.515-.03l-.033.5c.265.016.469.03.548.03zm.443.566c.009-.04.021-.094.026-.144a.4.4 0 0 0-.036-.222.35.35 0 0 0-.211-.172.7.7 0 0 0-.222-.028v.5l.056.002.012.002a.1.1 0 0 1-.033-.018.17.17 0 0 1-.062-.107l-.001-.007-.005.03-.012.055zm-.01.044.01-.044-.488-.11-.01.05zm.139.407c.035.015.05.033.041.024l-.025-.032a1 1 0 0 1-.144-.32c-.014-.057-.01-.08-.01-.079l-.49-.104a.7.7 0 0 0 .014.3 1.5 1.5 0 0 0 .22.49 1 1 0 0 0 .076.093.4.4 0 0 0 .129.09zm1.086-.16c-.175.067-.44.114-.687.138-.12.012-.23.018-.312.019q-.062 0-.095-.003c-.03-.003-.019-.005.008.006l-.19.463c.053.021.11.027.142.03q.062.004.138.004c.101-.001.226-.008.359-.021a3.4 3.4 0 0 0 .817-.17zm.516-.046c-.012-.005-.046-.021-.087-.031a.4.4 0 0 0-.14-.009q-.118.015-.29.085l.18.467a2 2 0 0 1 .164-.055q-.006.001-.033-.003c-.011-.002-.019-.007 0 .002zm.197.028a.7.7 0 0 1-.15-.011c-.02-.005-.029-.009-.047-.017l-.206.456a.7.7 0 0 0 .146.05c.068.014.15.022.257.022zm.058-.45c-.005.151-.011.29-.041.391a.2.2 0 0 1-.03.067l.003-.002.007-.004q.01-.003.003-.002v.5a.47.47 0 0 0 .346-.143.65.65 0 0 0 .15-.274c.051-.174.057-.38.062-.515zm.306-.518a.28.28 0 0 0-.25.158.5.5 0 0 0-.04.134c-.01.067-.013.154-.016.226l.5.018a2 2 0 0 1 .01-.169c.003-.018.004-.006-.008.017a.2.2 0 0 1-.055.067.23.23 0 0 1-.14.049zm.414.443c-.031-.068-.07-.154-.108-.222a1 1 0 0 0-.077-.111.3.3 0 0 0-.229-.11v.5a.2.2 0 0 1-.115-.033q-.027-.02-.03-.025l.016.025q.037.068.087.182zm-.29.113a1 1 0 0 1-.007.133q.001-.006.014-.033a.2.2 0 0 1 .074-.078.24.24 0 0 1 .261.006c.027.02.037.038.03.03l-.017-.032q-.028-.054-.065-.139l-.456.206c.024.053.051.113.077.163a1 1 0 0 0 .046.079.4.4 0 0 0 .086.094.265.265 0 0 0 .308.014.3.3 0 0 0 .124-.176c.02-.071.024-.166.024-.267zm-.73-1.236c-.044.012-.064-.003-.04.007a.5.5 0 0 1 .096.059 1.7 1.7 0 0 1 .3.308c.216.277.373.61.373.862h.5c0-.417-.236-.859-.478-1.17-.125-.16-.263-.3-.395-.4a1 1 0 0 0-.21-.123.44.44 0 0 0-.278-.025zm-.79-.037c.099.018.234.043.368.056.128.013.285.018.422-.019l-.132-.482a.8.8 0 0 1-.241.004 4 4 0 0 1-.328-.05zm-.145-.024h.004l.032.005.108.02.09-.493-.12-.02a1 1 0 0 0-.114-.012zm-.16-.484-.033.029-.032.034a.254.254 0 0 0 .125.408.4.4 0 0 0 .1.013v-.5c-.012 0 .012-.002.046.008a.245.245 0 0 1 .12.383q-.016.019-.02.02c-.002.003-.002.003.009-.006zm.026.008q0-.02.006-.031l.005-.009-.011.011-.025.021.314.39c.02-.017.071-.057.115-.114a.43.43 0 0 0 .096-.268zm-.03.066q.037 0 .062.004l.018.003a.1.1 0 0 1-.034-.032.1.1 0 0 1-.013-.029l-.003-.012h.5a.41.41 0 0 0-.235-.378.7.7 0 0 0-.295-.056zm.054-.066a.1.1 0 0 1-.005.03l-.01.017-.02.014-.02.005v-.5a.44.44 0 0 0-.445.434zm-.154.16.162-.19.001.001H16l-.003-.002-.013-.014-.003-.005c0 .003.01.02.01.05h-.5c0 .129.07.227.101.265a1 1 0 0 0 .072.077l.006.006.004.003zm-.284.247.284.004v-.5l-.278-.004zm-5.07.002c.115-.014.419-.023.847-.028.42-.004.943-.004 1.482-.001 1.08.005 2.222.02 2.74.027l.007-.5c-.518-.006-1.663-.022-2.744-.027-.54-.003-1.067-.003-1.49.001a12 12 0 0 0-.903.032zm5.25.733c-.088.11-.147.17-.18.201l-.03.026h-.001l.002-.001h-.001l-.014.01-.021.018-.034.039a.44.44 0 0 0-.012.269l.433-.25a.44.44 0 0 1-.012.268l-.055.057-.01.007-.003.002-.002.001h.002l.008-.006.023-.017.067-.057c.054-.05.13-.129.229-.252zm.74-.098c-.016-.018-.052-.059-.096-.092a.36.36 0 0 0-.225-.075.4.4 0 0 0-.238.086 1 1 0 0 0-.18.18l.388.314a.5.5 0 0 1 .085-.09c.013-.008-.005.009-.047.01a.2.2 0 0 1-.055-.01.1.1 0 0 1-.028-.015l.002.002.021.023zm-.047.006a.13.13 0 0 1 .072.02q.003.005-.004-.003l-.022-.024-.372.335c.021.023.136.172.326.172zm.724.188a.8.8 0 0 0-.393-.17c-.123-.019-.245-.018-.33-.018v.5c.09 0 .173 0 .25.012a.3.3 0 0 1 .15.057zm-.464.746a.6.6 0 0 0 .207-.048 1 1 0 0 0 .188-.105.5.5 0 0 0 .172-.211.33.33 0 0 0-.103-.382l-.323.381a.17.17 0 0 1-.04-.177c.007-.02.015-.03.014-.027l-.017.014a.4.4 0 0 1-.114.056c-.009.003-.002 0 .016 0zm-.287-.122c.023.02.13.122.287.122v-.5a.13.13 0 0 1 .058.014l-.002-.002-.02-.016zm.03-.007a.1.1 0 0 1-.054-.013q-.004 0 .003.003l.02.017.323-.382c-.025-.022-.132-.125-.292-.125zm.005.022.038-.03-.008.003a.1.1 0 0 1-.035.005v-.5a.4.4 0 0 0-.216.064 1 1 0 0 0-.105.08zm-.237.107a.3.3 0 0 0 .175-.057c.026-.018.05-.04.062-.05l-.326-.379-.017.015-.002.002.026-.014a.2.2 0 0 1 .082-.017zm-.23-.083c.023.013.052.03.077.042q.02.011.05.022a.3.3 0 0 0 .103.02v-.5a.2.2 0 0 1 .07.01l.003.002h.002-.004l-.02-.012-.033-.018zm-.204-.094.018.004q.02.006.051.019.064.03.135.07l.248-.434a2 2 0 0 0-.182-.094.7.7 0 0 0-.27-.065zm-.321-.104c.05.062.156.118.197.125l.067-.004.038-.01.02-.008.007-.004.002-.001h-.001l-.006.003-.008.003h.005v-.5a.5.5 0 0 0-.214.047l-.005.002h.002l.008-.004a.2.2 0 0 1 .056-.019.4.4 0 0 1 .067-.004.44.44 0 0 1 .198.125z"/></g></g><rect width="23" height="17" x=".5" y=".5" stroke="#000" stroke-opacity=".1" rx="1.5"/><defs><clipPath id="a"><rect width="24" height="18" fill="#fff" rx="2"/></clipPath></defs></svg>