<svg xmlns="http://www.w3.org/2000/svg" fill="none" viewBox="0 0 24 18"><g clip-path="url(#a)"><path fill="#19BFBF" d="M0 0h24v18H0z"/><path fill="#fff" fill-rule="evenodd" d="M12 14.971A6.286 6.286 0 1 0 12 2.4a6.286 6.286 0 0 0 0 12.571Zm5.111-5.714a5.148 5.148 0 0 1-3.21 4.209c.557-1.135.882-2.614.945-4.209h2.265ZM12 13.829c.111 0 .221-.004.33-.01.785-.93 1.289-2.634 1.372-4.562h-3.404c.084 1.928.587 3.632 1.372 4.561.109.007.22.01.33.01Zm-1.9-.363a5.148 5.148 0 0 1-3.211-4.209h2.265c.063 1.595.388 3.074.946 4.209Zm.198-5.352h3.404c-.083-1.928-.587-3.631-1.371-4.56a5.218 5.218 0 0 0-.662 0c-.784.929-1.287 2.632-1.37 4.56ZM10.1 3.905c-.557 1.135-.882 2.614-.945 4.21H6.89a5.148 5.148 0 0 1 3.21-4.21Zm7.012 4.21h-2.265c-.063-1.596-.388-3.075-.945-4.21a5.148 5.148 0 0 1 3.21 4.21Z" clip-rule="evenodd"/></g><path stroke="#000" stroke-opacity=".1" stroke-width=".5" d="M.25.25h23.5v17.5H.25z"/><defs><clipPath id="a"><path fill="#fff" d="M0 0h24v18H0z"/></clipPath></defs></svg>