<svg xmlns="http://www.w3.org/2000/svg" xmlns:xlink="http://www.w3.org/1999/xlink" fill="none" viewBox="0 0 24 18"><g clip-path="url(#a)"><mask id="b" width="24" height="18" x="0" y="0" maskUnits="userSpaceOnUse" style="mask-type:luminance"><path fill="#fff" d="M0 0h24v18H0z"/></mask><g mask="url(#b)"><path fill="#f7fcff" fill-rule="evenodd" d="M0 0v18h24V0z" clip-rule="evenodd"/><mask id="c" width="24" height="18" x="0" y="0" maskUnits="userSpaceOnUse" style="mask-type:luminance"><path fill="#fff" fill-rule="evenodd" d="M0 0v18h24V0z" clip-rule="evenodd"/></mask><g mask="url(#c)"><path fill="#2e42a5" fill-rule="evenodd" d="M-1.13 2.469-.013 3.53c.921-.87 1.79-1.281 2.616-1.281.399 0 .569.096 1.029.531.73.69 1.221.969 2.145.969s1.414-.279 2.144-.969c.46-.435.63-.531 1.03-.531.398 0 .568.096 1.028.531.73.69 1.221.969 2.145.969s1.414-.279 2.144-.969c.46-.435.63-.531 1.03-.531.398 0 .568.096 1.029.531.73.69 1.22.969 2.144.969.923 0 1.415-.279 2.144-.969.46-.435.63-.531 1.03-.531.825 0 1.695.41 2.616 1.281l1.115-1.062C24.18 1.339 22.933.75 21.644.75c-.924 0-1.415.279-2.145.969-.46.435-.63.531-1.029.531-.4 0-.569-.096-1.03-.531-.73-.69-1.22-.969-2.144-.969-.923 0-1.414.279-2.144.969-.46.435-.63.531-1.03.531-.398 0-.568-.096-1.028-.531-.73-.69-1.222-.969-2.145-.969s-1.414.279-2.144.969c-.46.435-.63.531-1.03.531-.399 0-.568-.096-1.029-.531-.73-.69-1.22-.969-2.144-.969-1.29 0-2.537.59-3.731 1.719M-.013 6.53l-1.116-1.06C.065 4.339 1.312 3.75 2.6 3.75c.924 0 1.415.279 2.145.969.46.435.63.531 1.03.531.399 0 .568-.096 1.029-.531.73-.69 1.22-.969 2.144-.969.923 0 1.415.279 2.145.969.46.435.63.531 1.029.531s.569-.096 1.029-.531c.73-.69 1.221-.969 2.144-.969.924 0 1.415.279 2.145.969.46.435.63.531 1.029.531s.569-.096 1.03-.531c.729-.69 1.22-.969 2.144-.969 1.29 0 2.536.59 3.73 1.719L24.26 6.53c-.922-.87-1.79-1.281-2.616-1.281-.4 0-.57.096-1.03.531-.73.69-1.22.969-2.144.969-.923 0-1.415-.279-2.144-.969-.46-.435-.63-.531-1.03-.531-.399 0-.569.096-1.029.531-.73.69-1.221.969-2.144.969-.924 0-1.415-.279-2.145-.969-.46-.435-.63-.531-1.029-.531s-.569.096-1.029.531c-.73.69-1.221.969-2.144.969-.924 0-1.415-.279-2.145-.969-.46-.435-.63-.531-1.03-.531-.825 0-1.694.41-2.615 1.281m0 3-1.115-1.06C.065 7.339 1.312 6.75 2.6 6.75c.924 0 1.415.279 2.145.969.46.435.63.531 1.03.531.399 0 .568-.096 1.029-.531.73-.69 1.22-.969 2.144-.969.923 0 1.415.279 2.145.969.46.435.63.531 1.029.531s.569-.096 1.029-.531c.73-.69 1.221-.969 2.144-.969.924 0 1.415.279 2.145.969.46.435.63.531 1.029.531s.569-.096 1.03-.531c.729-.69 1.22-.969 2.144-.969 1.29 0 2.536.59 3.73 1.719L24.26 9.53c-.922-.87-1.79-1.281-2.616-1.281-.4 0-.57.096-1.03.531-.73.69-1.22.969-2.144.969-.923 0-1.415-.279-2.144-.969-.46-.435-.63-.531-1.03-.531-.399 0-.569.096-1.029.531-.73.69-1.221.969-2.144.969-.924 0-1.415-.279-2.145-.969-.46-.435-.63-.531-1.029-.531s-.569.096-1.029.531c-.73.69-1.221.969-2.144.969-.924 0-1.415-.279-2.145-.969-.46-.435-.63-.531-1.03-.531-.825 0-1.694.41-2.615 1.281m0 3-1.115-1.062C.065 10.339 1.312 9.75 2.6 9.75c.924 0 1.415.279 2.145.969.46.435.63.531 1.03.531.399 0 .568-.096 1.029-.531.73-.69 1.22-.969 2.144-.969.923 0 1.415.279 2.145.969.46.435.63.531 1.029.531s.569-.096 1.029-.531c.73-.69 1.221-.969 2.144-.969.924 0 1.415.279 2.145.969.46.435.63.531 1.029.531s.569-.096 1.03-.531c.729-.69 1.22-.969 2.144-.969 1.29 0 2.536.59 3.73 1.719L24.26 12.53c-.922-.87-1.79-1.281-2.616-1.281-.4 0-.57.096-1.03.531-.73.69-1.22.969-2.144.969-.923 0-1.415-.279-2.144-.969-.46-.435-.63-.531-1.03-.531-.399 0-.569.096-1.029.531-.73.69-1.221.969-2.144.969-.924 0-1.415-.279-2.145-.969-.46-.435-.63-.531-1.029-.531s-.569.096-1.029.531c-.73.69-1.221.969-2.144.969-.924 0-1.415-.279-2.145-.969-.46-.435-.63-.531-1.03-.531-.825 0-1.694.41-2.615 1.281m0 3-1.115-1.062c1.194-1.13 2.441-1.719 3.73-1.719.924 0 1.415.279 2.145.969.46.435.63.531 1.03.531.399 0 .568-.096 1.029-.531.73-.69 1.22-.969 2.144-.969.923 0 1.415.279 2.145.969.46.435.63.531 1.029.531s.569-.096 1.029-.531c.73-.69 1.221-.969 2.144-.969.924 0 1.415.279 2.145.969.46.435.63.531 1.029.531s.569-.096 1.03-.531c.729-.69 1.22-.969 2.144-.969 1.29 0 2.536.59 3.73 1.719L24.26 15.53c-.922-.87-1.79-1.281-2.616-1.281-.4 0-.57.096-1.03.531-.73.69-1.22.969-2.144.969-.923 0-1.415-.279-2.144-.969-.46-.435-.63-.531-1.03-.531-.399 0-.569.096-1.029.531-.73.69-1.221.969-2.144.969-.924 0-1.415-.279-2.145-.969-.46-.435-.63-.531-1.029-.531s-.569.096-1.029.531c-.73.69-1.221.969-2.144.969-.924 0-1.415-.279-2.145-.969-.46-.435-.63-.531-1.03-.531-.825 0-1.694.41-2.615 1.281m0 3-1.115-1.062c1.194-1.13 2.441-1.719 3.73-1.719.924 0 1.415.279 2.145.969.46.435.63.531 1.03.531.399 0 .568-.096 1.029-.531.73-.69 1.22-.969 2.144-.969.923 0 1.415.279 2.145.969.46.435.63.531 1.029.531s.569-.096 1.029-.531c.73-.69 1.221-.969 2.144-.969.924 0 1.415.279 2.145.969.46.435.63.531 1.029.531s.569-.096 1.03-.531c.729-.69 1.22-.969 2.144-.969 1.29 0 2.536.59 3.73 1.719L24.26 18.53c-.922-.87-1.79-1.281-2.616-1.281-.4 0-.57.096-1.03.531-.73.69-1.22.969-2.144.969-.923 0-1.415-.279-2.144-.969-.46-.435-.63-.531-1.03-.531-.399 0-.569.096-1.029.531-.73.69-1.221.969-2.144.969-.924 0-1.415-.279-2.145-.969-.46-.435-.63-.531-1.029-.531s-.569.096-1.029.531c-.73.69-1.221.969-2.144.969-.924 0-1.415-.279-2.145-.969-.46-.435-.63-.531-1.03-.531-.825 0-1.694.41-2.615 1.281" clip-rule="evenodd"/><mask id="d" width="11" height="8" x="0" y="0" maskUnits="userSpaceOnUse" style="mask-type:luminance"><path fill="#fff" d="M0 0h10.5v7.5H0z"/></mask><g mask="url(#d)"><path fill="#2e42a5" d="M0 0h10.5v9H0z"/><path fill="#fff" d="m-1.618 8.5 2.742 1.158 11.17-8.565L13.74-.63l-2.933-.387-4.555 3.692-3.667 2.486z"/><path fill="#f50100" d="m-1.243 9.311 1.397.672L13.22-.788h-1.96z"/><path fill="#fff" d="m13.619 8.5-2.742 1.158-11.17-8.565L-1.739-.63l2.932-.387L5.75 2.676l3.667 2.486z"/><path fill="#f50100" d="m13.525 9.082-1.397.672-5.564-4.612-1.65-.515-6.792-5.25H.083l6.79 5.125 1.803.618z"/><path fill="#f50100" fill-rule="evenodd" d="M6 0H4.5v3H.012v1.5H4.5v3H6v-3h4.512V3H6z" clip-rule="evenodd"/><mask id="e" width="13" height="10" x="-.988" y="-1" fill="#000" maskUnits="userSpaceOnUse"><path fill="#fff" d="M-.988-1h13V9h-13z"/><path fill-rule="evenodd" d="M6 0H4.5v3H.012v1.5H4.5v3H6v-3h4.512V3H6z" clip-rule="evenodd"/></mask><path stroke="#f7fcff" stroke-width="2" d="M4.5 0H6v3h4.512v1.5H6v3H4.5v-3H.012V3H4.5z" mask="url(#e)"/></g><rect width=".75" height="9.466" x="15.3" y="7.034" fill="#d86d00" rx=".375"/><use xlink:href="#f" fill="#449a01"/><mask id="g" width="10" height="10" x="10.634" y="-.457" fill="#000" maskUnits="userSpaceOnUse"><path fill="#fff" d="M10.634-.457h10v10h-10z"/><use xlink:href="#f"/></mask><path stroke="#fff" stroke-width=".7" d="M18.616 2.367c-.546.331-1.715 1.106-2.415 2.056-.023-1.023-.277-2.029-.898-2.88 0 0-.05 1.664-.119 2.927a64 64 0 0 0-1.007-.408c-.723-.287-1.253-.497-1.443-.665m5.882-1.03c-.502.35-.762.87-1.055 1.455-.144.287-.295.59-.487.895 1.194-.428 2.38-.539 2.38-.539-.796.226-1.53.687-2.243 1.135-.26.163-.517.325-.774.473 2.304.867 2.658 2.122 2.658 2.122-.282-.249-.892-.516-2.042-1.02l-.723-.317c.172.633.38 1.128.58 1.6l.059.141s-1.594-.43-1.897-1.666a8.4 8.4 0 0 1-2.314 1.289s1.08-1.172 1.872-1.95c-1.041-.117-2.996-.213-2.996-.213l.14-.033c.785-.187 2.001-.477 3.116-.462a7.1 7.1 0 0 1-2.156-1.88m5.882-1.03q.135-.096.299-.174s-.114.061-.3.174Zm-5.882 1.03q-.063-.055-.075-.105s.025.038.075.105Zm2.935 1.833a.4.4 0 0 0-.152.032l.01-.072.25-.017-.025.066a.4.4 0 0 0-.083-.009Z" mask="url(#g)"/><path fill="#f50100" fill-rule="evenodd" d="M18.214 11.864v-.135q-.593-.512-1.241-.512a2.1 2.1 0 0 0-1.258-.257v-.002c-.639-.075-1.282.26-1.282.26-.649 0-1.241.51-1.241.51v.136l.774.936s.219.902 1.745.69v.002s1.011-.033 1.083-.062l.087-.032c.198-.07.424-.149.558-.598zm-2.502-.863c-.022.312-.148 2.191 0 2.483z" clip-rule="evenodd"/><path fill="#feca00" fill-rule="evenodd" d="M14.45 10.813c.082-.304.226-.407.578-.407q.326 0 .497.18v.813h.061v.096c-.048.036-.073.114-.057.197a.3.3 0 0 0 .028.076.3.3 0 0 0-.086-.014c-.106 0-.192.062-.192.139 0 .076.086.138.192.138s.192-.062.192-.138c0 .038.022.073.057.098h-.097c0 .209-.088.342-.22.342-.094 0-.159-.05-.206-.163l-.131-.312-.014.349c-.005.123-.05.172-.16.172-.108 0-.185-.08-.238-.26a.3.3 0 0 0 .05.005c.105 0 .191-.062.191-.139s-.086-.139-.192-.139a.3.3 0 0 0-.06.007.24.24 0 0 0 .006-.122c-.02-.104-.098-.177-.173-.162s-.12.11-.1.215a.3.3 0 0 0 .029.077.3.3 0 0 0-.086-.015c-.106 0-.192.062-.192.139s.086.139.192.139c.086 0 .159-.041.183-.097l-.006.081c-.017.23-.069.338-.146.353q-.158.03-.24-.025l-.114-.074v.126a.6.6 0 0 1-.18-.026l-.014.073-.14-.16a.23.23 0 0 0 .14-.028c.093-.05.14-.145.104-.212-.036-.068-.141-.082-.235-.032a.3.3 0 0 0-.052.036l-.01-.046c-.031-.101-.116-.165-.189-.143a.12.12 0 0 0-.072.07l-.057-.064-.053.067.097.11.009.041c.027.088.093.147.158.148l.281.318v.003h.004l.156.178q.034.075.06.14a.8.8 0 0 0 .089.255.2.2 0 0 1 .005.045c0 .096.206.152.608.21.315.046.687.076.99.08v.001h.078c.304-.005.676-.035.99-.08.402-.059.608-.115.608-.21 0-.063.052-.214.155-.441l.704-.798-.052-.067-.176.198.003-.008c.031-.102-.003-.202-.076-.224-.073-.023-.158.041-.189.143l-.01.046a.3.3 0 0 0-.052-.037c-.094-.05-.199-.035-.235.033-.036.067.011.162.105.212.093.05.198.035.234-.032l.006-.012a.1.1 0 0 0 .098.011l-.274.31-.024-.134a.6.6 0 0 1-.18.026v-.126l-.114.074q-.084.055-.241.025c-.077-.015-.13-.123-.146-.353l-.002-.018a.3.3 0 0 0 .093.032c.105.015.199-.035.21-.11.01-.077-.066-.15-.171-.165a.3.3 0 0 0-.07 0 .24.24 0 0 0 .027-.127c-.006-.106-.072-.188-.149-.184-.076.004-.134.093-.128.199a.3.3 0 0 0 .013.07.3.3 0 0 0-.073-.022c-.105-.015-.2.035-.21.11-.01.076.066.15.17.165a.23.23 0 0 0 .156-.03l-.016.06c-.053.202-.132.291-.246.291-.11 0-.155-.049-.16-.172l-.014-.35-.131.313c-.047.112-.113.163-.205.163-.127 0-.213-.12-.221-.313a.3.3 0 0 0 .075.011c.106 0 .192-.062.192-.138s-.086-.14-.192-.14a.3.3 0 0 0-.06.008.24.24 0 0 0 .006-.122.24.24 0 0 0-.05-.11h.143v-.928q.17-.18.497-.181c.351 0 .495.103.578.407.052.194.001.359-.164.513l.094.146c.185-.172.266-.378.238-.606q.593-.023.884.149c.169.099.2.35.072.788l.145.062c.15-.515.107-.865-.15-1.016q-.339-.198-.991-.166v.013c-.11-.343-.315-.475-.706-.475a.84.84 0 0 0-.497.14v-.047h-.308v.081q-.212-.188-.558-.188c-.383 0-.588.126-.7.454l.003-.07q-.653-.034-.992.165c-.257.151-.3.501-.15 1.016l.146-.061c-.128-.438-.097-.69.071-.789q.293-.172.89-.148c-.06.259.018.492.223.684l.094-.146c-.165-.154-.216-.32-.163-.513m1.22 1.042-.015-.003a.1.1 0 0 1 .008.04q0-.019.007-.037m-1.163.103-.004-.014.005.002zm3.05.7c-.125.027-.216.024-.264-.023a.5.5 0 0 1-.265.009c-.108-.021-.183-.108-.228-.25a.35.35 0 0 1-.223.163c.492.084.836.202.836.202s-.009.088-.03.19l.079-.18.007-.01zm-1.212-.136a.27.27 0 0 1-.101-.11.3.3 0 0 1-.125.085q.117.011.226.025m-.497-.043a.4.4 0 0 1-.147-.155.4.4 0 0 1-.145.154l.106-.002h.061q.063 0 .125.003m-1.854.273-.071-.081q.13.016.187-.036a.5.5 0 0 0 .264.009c.108-.021.183-.108.229-.25a.35.35 0 0 0 .215.162 6 6 0 0 0-.824.196m1.286-.256a6 6 0 0 0-.218.023.27.27 0 0 0 .097-.107.3.3 0 0 0 .121.084m1.89.767c.053.03.096 0 .13-.058l-.005.043-.02.013a1 1 0 0 1-.115.04 4 4 0 0 1-.406.078 8 8 0 0 1-1.02.08 8 8 0 0 1-1.02-.08 4 4 0 0 1-.406-.078 1 1 0 0 1-.1-.034l.008-.004c.167-.095 1.277-.183 1.477-.198.2.015 1.309.104 1.477.198m.223-.017-.002.002z" clip-rule="evenodd"/><path fill="#fff" d="m14.35 10.529-.002.092c-.68-.014-1.071.105-1.17.344q-.155.368.06.902l-.07.04q-.23-.571-.06-.983c.119-.284.532-.41 1.242-.395"/><path fill="#fff" d="m14.482 11.348-.04.08q-.222-.162-.222-.54c0-.36.154-.57.495-.715q.326-.138.893.11l-.026.087q-.545-.237-.841-.11c-.313.133-.444.312-.444.629 0 .22.061.37.185.46m2.548-.728.001.093c.681-.015 1.072.105 1.17.343q.155.37-.06.902l.07.04q.23-.57.06-.983c-.118-.283-.532-.41-1.241-.395"/><path fill="#fff" d="m16.79 11.368.039.079q.222-.161.222-.54c0-.36-.154-.57-.495-.715q-.326-.138-.893.11l.026.087q.545-.237.841-.11c.313.133.444.312.444.629 0 .22-.061.37-.185.46"/></g></g></g><rect width="23" height="17" x=".5" y=".5" stroke="#000" stroke-opacity=".1" rx="1.5"/><defs><clipPath id="a"><rect width="24" height="18" fill="#fff" rx="2"/></clipPath><path id="f" fill-rule="evenodd" d="M15.303 1.543c.62.851.875 1.857.898 2.88.7-.95 1.869-1.725 2.415-2.056-.502.35-.762.87-1.055 1.455-.144.287-.295.59-.487.895 1.194-.428 2.38-.539 2.38-.539-.796.226-1.53.687-2.243 1.135-.26.163-.517.325-.774.473 2.304.867 2.658 2.122 2.658 2.122-.282-.249-.892-.516-2.042-1.02l-.723-.317c.172.633.38 1.128.58 1.6l.059.141s-1.594-.43-1.897-1.666a8.4 8.4 0 0 1-2.314 1.289s1.08-1.172 1.872-1.95c-1.041-.117-2.996-.213-2.996-.213l.14-.033c.785-.187 2.001-.477 3.116-.462a7.1 7.1 0 0 1-2.156-1.88c.19.168.72.378 1.443.665.305.122.645.257 1.007.408.07-1.263.12-2.927.12-2.927M12.66 3.292q.012.05.075.105c-.05-.067-.075-.105-.075-.105m6.256-1.1q-.163.079-.3.175c.186-.113.3-.174.3-.174m-3.398 3.07a.37.37 0 0 1 .235-.023l.024-.066-.248.017z" clip-rule="evenodd"/></defs></svg>