<svg xmlns="http://www.w3.org/2000/svg" fill="none" viewBox="0 0 24 18"><g clip-path="url(#a)"><mask id="b" width="24" height="18" x="0" y="0" maskUnits="userSpaceOnUse" style="mask-type:luminance"><path fill="#fff" d="M0 0h24v18H0z"/></mask><g mask="url(#b)"><path fill="#2E42A5" fill-rule="evenodd" d="M0 0v18h24V0H0Z" clip-rule="evenodd"/><mask id="c" width="24" height="18" x="0" y="0" maskUnits="userSpaceOnUse" style="mask-type:luminance"><path fill="#fff" fill-rule="evenodd" d="M0 0v18h24V0H0Z" clip-rule="evenodd"/></mask><g mask="url(#c)"><path fill="#FECA00" fill-rule="evenodd" d="M0 12v6h24v-6H0Z" clip-rule="evenodd"/><mask id="d" width="24" height="12" x="0" y="0" maskUnits="userSpaceOnUse" style="mask-type:luminance"><path fill="#fff" d="M0 0h24v12H0z"/></mask><g mask="url(#d)"><path fill="#fff" d="m-1.697 11.347 4.757 1.1 10.141-5.603 1.073-.627 9.633-5.037 2.282-1.59-5.22-.482-8.416 4.747-6.082 2.99-8.168 4.502Z"/><path fill="#F50100" d="m-1.279 12.014 2.562.84L25.237-.61H21.64L-1.28 12.014Z"/><path fill="#fff" d="m25.778 11.048.189 1.133-5.027.267L12.835 7.7l-.764.262L-3.06.308 3.187-.895 11.54 3.72l6.534 3.157 7.705 4.172Z"/><path fill="#F50100" d="m25.795 11.728-2.56.84-10.2-5.765-3.025-.644L-2.444-.403h3.596L13.6 6.003l3.307.772 8.89 4.953Z"/><path fill="#fff" d="M9.58-1.25V-2.5H8.33v1.25h1.25Zm0 4.5V4.5h1.25V3.25H9.58Zm-10.83 0V2H-2.5v1.25h1.25Zm0 5.5H-2.5V10h1.25V8.75Zm10.83 0h1.25V7.5H9.58v1.25Zm0 6H8.33V16h1.25v-1.25Zm4.89 0V16h1.25v-1.25h-1.25Zm0-6V7.5h-1.25v1.25h1.25Zm10.78 0V10h1.25V8.75h-1.25Zm0-5.5h1.25V2h-1.25v1.25Zm-10.78 0h-1.25V4.5h1.25V3.25Zm0-4.5h1.25V-2.5h-1.25v1.25Zm-4.89 7h1.25V4.5H9.58v1.25Zm-8.33 0V4.5H0v1.25h1.25Zm0 .5H0V7.5h1.25V6.25Zm8.33 0V7.5h1.25V6.25H9.58Zm4.89-.5V4.5h-1.25v1.25h1.25Zm0 .5h-1.25V7.5h1.25V6.25Zm8.28-.5H24V4.5h-1.25v1.25Zm0 .5V7.5H24V6.25h-1.25ZM9.58 0h1.25v-2.5H9.58V0Zm1.25 0v-1.25h-2.5V0h2.5Zm0 3.25V0h-2.5v3.25h2.5ZM0 4.5h9.58V2H0v2.5Zm-1.25 0H0V2h-1.25v2.5ZM0 4.5V3.25h-2.5V4.5H0Zm0 3v-3h-2.5v3H0Zm0 1.25V7.5h-2.5v1.25H0ZM0 7.5h-1.25V10H0V7.5Zm9.58 0H0V10h9.58V7.5Zm1.25 6V8.75h-2.5v4.75h2.5Zm0 1.25V13.5h-2.5v1.25h2.5Zm0-1.25H9.58V16h1.25v-2.5Zm2.39 0h-2.39V16h2.39v-2.5Zm1.25 0h-1.25V16h1.25v-2.5Zm-1.25 0v1.25h2.5V13.5h-2.5Zm0-4.75v4.75h2.5V8.75h-2.5ZM24 7.5h-9.53V10H24V7.5Zm1.25 0H24V10h1.25V7.5ZM24 7.5v1.25h2.5V7.5H24Zm0-3v3h2.5v-3H24Zm0-1.25V4.5h2.5V3.25H24Zm0 1.25h1.25V2H24v2.5Zm-9.53 0H24V2h-9.53v2.5ZM13.22 0v3.25h2.5V0h-2.5Zm0-1.25V0h2.5v-1.25h-2.5Zm0 1.25h1.25v-2.5h-1.25V0Zm-2.39 0h2.39v-2.5h-2.39V0ZM9.58 4.5H1.25V7h8.33V4.5ZM0 5.75v.5h2.5v-.5H0ZM1.25 7.5h8.33V5H1.25v2.5Zm9.58-1.25v-.5h-2.5v.5h2.5Zm2.39-.5v.5h2.5v-.5h-2.5Zm9.53-1.25h-8.28V7h8.28V4.5ZM24 6.25v-.5h-2.5v.5H24ZM14.47 7.5h8.28V5h-8.28v2.5Z"/><path fill="#F50100" fill-rule="evenodd" d="M13.27-1h-2.54v5.5H0v3h10.73v7h2.54v-7H25.5v-3H13.27V-1Z" clip-rule="evenodd"/></g><path fill="#2E42A5" fill-rule="evenodd" d="M12.05 7.6a2.75 2.75 0 1 0 0-5.5 2.75 2.75 0 0 0 0 5.5Z" clip-rule="evenodd"/><path fill="#FECA00" fill-rule="evenodd" d="m12.1 5.691-1.298.903.458-1.513L10 4.126l1.58-.033.52-1.493.52 1.493 1.58.033-1.26.955.458 1.513-1.298-.903Zm-6.775.741-.811.565.286-.946-.787-.597.988-.02.324-.934.324.933.989.02-.788.598.286.946-.811-.565ZM21.1 5.576l-1.082.753.382-1.261-1.05-.797 1.317-.026L21.1 3l.433 1.245 1.317.026-1.05.796.382 1.262-1.082-.753Zm-9-4.8-1.082.753L11.4.267l-1.05-.796 1.317-.026L12.1-1.8l.433 1.245 1.317.026-1.05.796.382 1.262L12.1.776Zm0 10.6-1.082.753.382-1.261-1.05-.796 1.317-.027L12.1 8.8l.433 1.245 1.317.027-1.05.796.382 1.26-1.082-.752Z" clip-rule="evenodd"/></g></g></g><path stroke="#000" stroke-opacity=".1" stroke-width=".5" d="M.25.25h23.5v17.5H.25z"/><defs><clipPath id="a"><path fill="#fff" d="M0 0h24v18H0z"/></clipPath></defs></svg>