<svg xmlns="http://www.w3.org/2000/svg" fill="none" viewBox="0 0 24 18"><g clip-path="url(#a)"><mask id="b" width="24" height="18" x="0" y="0" maskUnits="userSpaceOnUse" style="mask-type:luminance"><path fill="#fff" d="M0 0h24v18H0z"/></mask><g mask="url(#b)"><path fill="#3D58DB" fill-rule="evenodd" d="M0 0v18h24V0z" clip-rule="evenodd"/><mask id="c" width="24" height="18" x="0" y="0" maskUnits="userSpaceOnUse" style="mask-type:luminance"><path fill="#fff" fill-rule="evenodd" d="M0 0v18h24V0z" clip-rule="evenodd"/></mask><g mask="url(#c)"><path fill="#F7FCFF" fill-rule="evenodd" d="m6 8.25-.613 2.208.006-2.291-1.186 1.96.624-2.205-1.67 1.569 1.195-1.955-2.032 1.06 1.678-1.56-2.242.471 2.037-1.05-2.287-.15 2.245-.46-2.16-.763 2.285.163L2.005 3.93l2.157.772-1.45-1.773L4.58 4.255l-.918-2.1 1.442 1.781-.318-2.27.908 2.105L6 1.5l.306 2.271.908-2.104-.318 2.27 1.442-1.782-.918 2.1 1.869-1.326-1.45 1.773 2.156-.772L8.12 5.247l2.286-.163-2.161.762 2.245.461-2.287.15 2.037 1.05-2.242-.472 1.678 1.56-2.032-1.06L8.84 9.492l-1.67-1.57.623 2.206-1.186-1.961.006 2.291z" clip-rule="evenodd"/><path fill="#fff" d="M-.586 18.559 24.944.911v5.753z"/><path fill="#E2AE57" d="m-.586 18.559 25.53-22.148v5.753z"/></g></g></g><rect width="23" height="17" x=".5" y=".5" stroke="#000" stroke-opacity=".1" rx="1.5"/><defs><clipPath id="a"><rect width="24" height="18" fill="#fff" rx="2"/></clipPath></defs></svg>