<svg xmlns="http://www.w3.org/2000/svg" fill="none" viewBox="0 0 24 18"><g clip-path="url(#a)"><mask id="b" width="24" height="18" x="0" y="0" maskUnits="userSpaceOnUse" style="mask-type:luminance"><path fill="#fff" d="M0 0h24v18H0z"/></mask><g mask="url(#b)"><path fill="#3D58DB" fill-rule="evenodd" d="M0 0v18h24V0z" clip-rule="evenodd"/><mask id="c" width="24" height="18" x="0" y="0" maskUnits="userSpaceOnUse" style="mask-type:luminance"><path fill="#fff" fill-rule="evenodd" d="M0 0v18h24V0z" clip-rule="evenodd"/></mask><g mask="url(#c)"><path fill="#F7FCFF" fill-rule="evenodd" d="M0 0v6h24V0z" clip-rule="evenodd"/><path fill="#E31D1C" fill-rule="evenodd" d="M0 12v6h24v-6z" clip-rule="evenodd"/><path fill="#E31D1C" stroke="#fff" d="m12.152 4.023.048.447v.003l.001.009.004.032.013.125.043.455c.035.382.08.906.118 1.478.075 1.122.13 2.488.021 3.277-.216 1.558-1.154 4.088-3.963 5.344l-.2.09-.202-.087c-2.777-1.2-3.62-3.755-3.85-5.098l-.04-.251c-.085-.645-.052-2.01-.003-3.16a98 98 0 0 1 .106-2.019l.009-.132.002-.035V4.49l.032-.467z"/><mask id="d" width="10" height="13" x="3" y="3" maskUnits="userSpaceOnUse" style="mask-type:luminance"><path fill="#fff" stroke="#fff" d="m12.152 4.023.048.447v.003l.001.009.004.032.013.125.043.455c.035.382.08.906.118 1.478.075 1.122.13 2.488.021 3.277-.216 1.558-1.154 4.088-3.963 5.344l-.2.09-.202-.087c-2.777-1.2-3.62-3.755-3.85-5.098l-.04-.251c-.085-.645-.052-2.01-.003-3.16a98 98 0 0 1 .106-2.019l.009-.132.002-.035V4.49l.032-.467z"/></mask><g fill-rule="evenodd" clip-rule="evenodd" mask="url(#d)"><path fill="#F7FCFF" d="M7.693 4.942s.155.236.224.597c.07.36.081.993.081.993l-1.469-.18v1.113l1.502-.191-.024 1.057s-.45.047-.818 0c-.369-.046-1.095-.242-1.095-.242v1.276s.738-.236 1.095-.29c.357-.055.818 0 .818 0v1.566h.61V9.075s.666-.058 1.064.004c.397.063.775.286.775.286V8.089s-.383.19-.743.238-1.097.004-1.097.004l.025-1.057s.499-.052.779-.014.63.205.63.205V6.351s-.342.186-.61.22c-.269.033-.832-.039-.832-.039s.01-.652.068-.97.221-.62.221-.62z"/><path fill="#2E42A5" d="M5.173 12.184s.33-.707.866-.842 1.099.421 1.099.421.343-1.122 1.18-1.122 1.13 1.122 1.13 1.122.358-.421.872-.421c.513 0 .99.842.99.842s-1.535 2.785-3.069 2.785-3.068-2.785-3.068-2.785"/></g></g></g></g><rect width="23" height="17" x=".5" y=".5" stroke="#000" stroke-opacity=".1" rx="1.5"/><defs><clipPath id="a"><rect width="24" height="18" fill="#fff" rx="2"/></clipPath></defs></svg>