<svg xmlns="http://www.w3.org/2000/svg" fill="none" viewBox="0 0 24 18"><g clip-path="url(#a)"><mask id="b" width="24" height="18" x="0" y="0" maskUnits="userSpaceOnUse" style="mask-type:luminance"><path fill="#fff" d="M0 0h24v18H0z"/></mask><g mask="url(#b)"><path fill="#E11C1B" fill-rule="evenodd" d="M0 0v18h24V0H0Z" clip-rule="evenodd"/><mask id="c" width="24" height="18" x="0" y="0" maskUnits="userSpaceOnUse" style="mask-type:luminance"><path fill="#fff" fill-rule="evenodd" d="M0 0v18h24V0H0Z" clip-rule="evenodd"/></mask><g fill-rule="evenodd" clip-rule="evenodd" mask="url(#c)"><path fill="#272727" d="M0 0v7.5h24V0H0Z"/><path fill="#5EAA22" d="M0 12v6h24v-6H0Z"/><path fill="#E11C1B" d="M3.001 8.96v-.002h-.007l.007.001Zm.472-2.865h.077l-.119-.018.042.018Zm2.195 0c.04-.075.08-.15.123-.224L4.074 4.734l2.025.66a5.99 5.99 0 0 1 .364-.461L4.975 3.516l1.897.99c.139-.133.284-.26.437-.382L6.105 2.46l1.7 1.3c.158-.105.321-.204.49-.298l-.867-1.86 1.436 1.576c.17-.077.346-.147.525-.212L8.901.97l1.112 1.803c.179-.048.36-.09.546-.125L10.477.58l.74 1.967a7.72 7.72 0 0 1 .554-.04L12.106.45l.335 2.058c.186.008.37.022.553.042l.74-1.97-.081 2.07c.184.036.365.078.543.126L15.31.969l-.489 2.003c.178.065.352.135.522.212l1.44-1.581-.87 1.867c.168.093.33.192.487.296l1.707-1.305-1.21 1.67c.151.121.296.248.433.38l1.907-.995-1.497 1.425c.128.147.248.3.36.456l2.037-.663-1.727 1.144c.04.072.08.144.118.217h-1.473c-1.016-1.408-2.872-2.35-4.994-2.35-2.121 0-3.977.942-4.993 2.35h-1.4Zm2.252 0c.962-.992 2.473-1.632 4.171-1.632 1.7 0 3.21.64 4.172 1.632H7.92Zm12.742 0h.077l.04-.018-.117.018Zm.55 2.863h.005l-.006.001v-.001Z"/></g></g></g><path stroke="#000" stroke-opacity=".1" stroke-width=".5" d="M.25.25h23.5v17.5H.25z"/><defs><clipPath id="a"><path fill="#fff" d="M0 0h24v18H0z"/></clipPath></defs></svg>