<svg xmlns="http://www.w3.org/2000/svg" fill="none" viewBox="0 0 24 18"><g clip-path="url(#a)"><mask id="b" width="24" height="18" x="0" y="0" maskUnits="userSpaceOnUse" style="mask-type:luminance"><path fill="#fff" d="M0 0h24v18H0z"/></mask><g mask="url(#b)"><path fill="#2E42A5" fill-rule="evenodd" d="M0 0v18h24V0H0Z" clip-rule="evenodd"/><path fill="#F7FCFF" d="M24 0H0v18h24V0Z"/><path fill="#C00" d="M24 7.5H0v3h24v-3Z"/><path fill="#C00" d="M13.5 18V0h-3v18h3Z"/><path fill="#EBEAE3" fill-rule="evenodd" d="M13.087 6.114c.095-.149.038-.245-.106-.274 0 0-.459.147-.954.163-.496.016-1.085-.125-1.085-.125-.106.066-.08.224-.027.322 0 0 .519.172 1.11.155.374-.01.73-.106.93-.17.114-.036.132-.07.132-.07Z" clip-rule="evenodd"/><path fill="#000" fill-rule="evenodd" d="M12.98 5.831h.003c.073.016.126.048.148.098.022.05.01.114-.037.189l-.002.002a.112.112 0 0 1-.024.023.42.42 0 0 1-.111.05c-.2.064-.557.16-.933.17a3.508 3.508 0 0 1-1.11-.155h-.002l.002-.008-.002.008-.003-.002-.002-.002a.39.39 0 0 1-.046-.177c0-.062.02-.12.077-.156l.002-.001h.004l-.002.008.002-.008h.001l.005.002a3.217 3.217 0 0 0 .093.02c.063.013.152.03.257.047.208.033.48.064.726.056a3.728 3.728 0 0 0 .947-.161l.004-.002h.003Zm.001.017h-.003a1.374 1.374 0 0 1-.074.023 4.13 4.13 0 0 1-.877.14 4.042 4.042 0 0 1-.73-.057 5.817 5.817 0 0 1-.35-.066l-.004-.001c-.047.031-.066.083-.066.14 0 .057.018.118.043.166l.003.001a1.605 1.605 0 0 0 .084.025 3.632 3.632 0 0 0 1.017.128c.374-.01.729-.106.928-.17a.405.405 0 0 0 .107-.047.098.098 0 0 0 .02-.018V6.11c.048-.074.056-.132.037-.175-.019-.042-.065-.072-.135-.087Z" clip-rule="evenodd"/><path fill="#F7FCFF" d="m12 12.626-.953-1.98-2.19.165 1.238-1.814-1.238-1.814 2.19.164L12 5.368l.953 1.98 2.19-.165-1.238 1.814 1.238 1.814-2.19-.164L12 12.626Z"/><path fill="#161111" fill-rule="evenodd" d="m12 5.311.968 2.01 2.224-.167-1.257 1.843 1.257 1.843-2.224-.167-.968 2.01-.967-2.01-2.225.167 1.257-1.843-1.257-1.843 2.225.167.967-2.01Zm0 .114-.938 1.948-2.155-.162 1.218 1.786-1.218 1.786 2.155-.162L12 12.57l.938-1.948 2.155.162-1.218-1.786 1.218-1.786-2.155.162L12 5.425Z" clip-rule="evenodd"/><path fill="#C00" d="M12.593 9.936c.077-.076.2-.16.269-.342.064-.17.095-.482.153-.64.077-.272.231-.536.048-.518-.175.017-.232.186-.298.31a.859.859 0 0 0-.074.21c-.008.035-.009.074-.042.09.048-.412-.067-.72-.106-1.33-.016-.257-.058-.515-.191-.516-.1-.002-.117.13-.133.23 0-.14.005-.436-.162-.436-.204 0-.142.413-.17.622-.004-.074-.007-.233-.028-.336a.156.156 0 0 0-.045-.086c-.012-.011-.03-.017-.056-.017-.183 0-.18.257-.173.514.002.027 0 .15.002.23 0-.14.001-.413-.144-.401-.122.01-.131.317-.137.48.008.164-.048.545-.068.653-.005.077-.036.177-.049.284-.027.23-.001.5.03.638.06.217.218.315.21.463-.008.148 0 .408 0 .525 0 .117.102.123.312.078.343-.074.53.074.813-.035-.036-.323.047-.554.039-.67Z"/><path fill="#161111" fill-rule="evenodd" d="M11.926 7.05a.143.143 0 0 1 .13-.08.14.14 0 0 1 .116.058c.026.034.042.08.053.127.006.03.01.063.013.096a.155.155 0 0 1 .037-.049.112.112 0 0 1 .077-.027.13.13 0 0 1 .102.054.373.373 0 0 1 .06.126c.03.1.045.23.054.359.015.244.043.439.068.612l.017.126c.02.15.035.288.032.432a1.33 1.33 0 0 1 .013-.044.48.48 0 0 1 .046-.107l.026-.052c.024-.048.05-.1.083-.145a.284.284 0 0 1 .207-.125.129.129 0 0 1 .066.008c.02.009.033.024.04.043a.14.14 0 0 1 .007.06.41.41 0 0 1-.013.07c-.012.05-.033.108-.055.17l-.001.002a3.09 3.09 0 0 0-.065.196v.002a2.21 2.21 0 0 0-.073.304l-.001.008a2.235 2.235 0 0 1-.08.33.759.759 0 0 1-.23.307 1.855 1.855 0 0 0-.037.035.64.64 0 0 1-.009.101l-.008.06a4.257 4.257 0 0 0-.014.09 1.63 1.63 0 0 0-.008.406l.002.019-.018.007a.776.776 0 0 1-.417.03 1.141 1.141 0 0 0-.4.006.664.664 0 0 1-.245.022.118.118 0 0 1-.072-.041.131.131 0 0 1-.025-.083l-.001-.13a6.44 6.44 0 0 1 .002-.396c.003-.065-.03-.12-.076-.19l-.009-.014a.864.864 0 0 1-.126-.252V9.58a2.198 2.198 0 0 1-.03-.646c.007-.053.018-.104.027-.15l.001-.005c.01-.049.018-.091.021-.128v-.002c.01-.054.03-.176.045-.304.015-.13.027-.264.023-.343v-.008c.003-.08.007-.197.025-.296a.46.46 0 0 1 .043-.134c.02-.036.05-.065.091-.069a.116.116 0 0 1 .106.048.157.157 0 0 1 .012.017c0-.083.004-.162.018-.228a.278.278 0 0 1 .058-.128.16.16 0 0 1 .124-.052c.03 0 .054.007.072.023a.171.171 0 0 1 .048.082l.003-.033a.47.47 0 0 1 .045-.174Zm-.365.775.001.097h.05v-.005c0-.027 0-.06-.002-.093v-.135a1.61 1.61 0 0 1 .014-.346.23.23 0 0 1 .047-.106.11.11 0 0 1 .087-.036c.022 0 .033.006.04.011.014.013.03.038.037.073.016.078.02.19.025.271 0 .023.002.044.003.061l.049.002a1.79 1.79 0 0 0 .01-.188v-.003c0-.067.002-.136.008-.199a.424.424 0 0 1 .04-.155c.02-.036.046-.055.086-.055a.09.09 0 0 1 .077.039.27.27 0 0 1 .043.107c.018.083.018.183.018.253v.012l.05.004v-.01c.008-.048.016-.098.032-.138a.124.124 0 0 1 .03-.046.063.063 0 0 1 .045-.016m-.79.6a.916.916 0 0 0-.016-.155.24.24 0 0 0-.038-.096.067.067 0 0 0-.063-.029c-.018.002-.036.015-.052.044a.41.41 0 0 0-.037.12c-.018.094-.021.208-.024.29V8c.004.085-.009.222-.024.35a6.02 6.02 0 0 1-.045.306 1.05 1.05 0 0 1-.022.133v.004c-.01.047-.02.096-.026.147-.027.226-.002.493.028.629a.817.817 0 0 0 .12.238l.008.012c.046.07.088.137.084.22a6.677 6.677 0 0 0-.002.39l.002.134c0 .026.005.042.014.053.008.01.021.018.043.022.046.01.119.001.224-.021.166-.036.297-.021.416-.008l.021.003a.75.75 0 0 0 .356-.023 1.695 1.695 0 0 1 .01-.399 5.3 5.3 0 0 1 .014-.093l.008-.056a.539.539 0 0 0 .008-.104v-.011l.007-.008.05-.046a.701.701 0 0 0 .213-.286 2.2 2.2 0 0 0 .078-.321l.002-.012c.023-.114.045-.228.074-.307a3.88 3.88 0 0 1 .065-.199c.023-.063.043-.12.055-.167a.355.355 0 0 0 .012-.062.091.091 0 0 0-.004-.038.026.026 0 0 0-.014-.016.082.082 0 0 0-.041-.004.235.235 0 0 0-.172.105.894.894 0 0 0-.077.134c-.01.02-.019.039-.03.058v.002a.432.432 0 0 0-.04.096.973.973 0 0 0-.03.107l-.004.018-.002.008a.236.236 0 0 1-.007.028.085.085 0 0 1-.043.052l-.04.02.004-.045c.024-.203.008-.38-.02-.584l-.017-.125a7.552 7.552 0 0 1-.069-.617 1.656 1.656 0 0 0-.05-.348.327.327 0 0 0-.052-.109c-.02-.024-.04-.035-.065-.036" clip-rule="evenodd"/><path fill="#C00" d="M12.4 9.363c.072-.196.162-.273.248-.316l-.247.316Z"/><path fill="#161111" fill-rule="evenodd" d="M12.66 9.07c-.081.039-.167.11-.236.301l-.046-.017c.073-.2.166-.283.26-.329l.021.044Z" clip-rule="evenodd"/><path fill="#C00" d="M12.53 10.038c.006-.04.031-.072.066-.106l-.066.106Z"/><path fill="#161111" fill-rule="evenodd" d="M12.613 9.95c-.034.033-.054.06-.059.092l-.049-.008a.222.222 0 0 1 .074-.12l.034.036Z" clip-rule="evenodd"/><path fill="#C00" d="M11.587 7.871c.005.174.015.507.015.587l-.015-.587Z"/><path fill="#161111" fill-rule="evenodd" d="m11.566 8.007-.004-.135.05-.001.003.133c.005.175.012.391.012.454h-.05c0-.062-.006-.277-.011-.451Z" clip-rule="evenodd"/><path fill="#C00" d="M12.221 7.398c-.01.092.002.166 0 .26-.002.063.008.178.017.318-.002.05.015.302-.001.396"/><path fill="#161111" fill-rule="evenodd" d="M12.193 7.528a.93.93 0 0 1 .004-.133l.049.005a.883.883 0 0 0-.003.154c.002.033.003.067.002.105 0 .042.004.107.009.19l.008.126v.002a9.966 9.966 0 0 1 .005.18c.002.08.003.17-.006.219l-.048-.009a1.44 1.44 0 0 0 .005-.209 8.26 8.26 0 0 0-.005-.182l-.008-.12a3.258 3.258 0 0 1-.01-.198c.002-.036 0-.069 0-.102l-.002-.028Z" clip-rule="evenodd"/><path fill="#C00" d="M11.887 7.57c.003.035.002.076.004.122.008.222.003.553.01.714"/><path fill="#161111" fill-rule="evenodd" d="M11.866 7.642a.753.753 0 0 0-.003-.07l.049-.004a.893.893 0 0 1 .003.076l.001.047c.004.112.005.25.005.38v.017c0 .124.001.24.004.317l-.049.002a10.055 10.055 0 0 1-.004-.318v-.017a12.656 12.656 0 0 0-.006-.43Z" clip-rule="evenodd"/><path fill="#B02320" fill-rule="evenodd" d="M11.986 5.361c1.196.198 1.153.254 1.153.254l.313-.934s.033-.184-.053-.296c-.085-.112-.325-.05-.325-.05s-.033-.15-.138-.187c-.105-.036-.497.142-.618.181-.122.04-.184.079-.355.076-.171-.004-.477-.155-.533-.184a.448.448 0 0 0-.214-.056c-.075.003-.154.023-.194.075-.04.053-.04.119-.04.119s-.061-.04-.16-.04-.155.013-.2.066a.999.999 0 0 0-.106.2l.112.254.006.348.234.368 1.118-.194Z" clip-rule="evenodd"/><path fill="#000" fill-rule="evenodd" d="M12.883 4.124a.155.155 0 0 1 .06.005c.06.021.097.074.12.118a.424.424 0 0 1 .023.058l.002.007a.682.682 0 0 1 .116-.014.39.39 0 0 1 .114.013c.037.01.073.03.098.062.046.06.06.14.062.201a.595.595 0 0 1-.006.108v.002l-.02-.003.02.003v.002l-.313.934v.002l-.002.003v.001h-.001l-.016-.011.016.012-.035-.019-.001.005.002.01h.001l-.005-.003a.564.564 0 0 0-.112-.039 11.019 11.019 0 0 0-1.02-.2l-1.128.197-.243-.385-.007-.35-.113-.257.003-.008v-.002l.003-.004a.822.822 0 0 1 .033-.075.61.61 0 0 1 .072-.125c.053-.06.116-.073.216-.073a.374.374 0 0 1 .144.029l.003-.013a.224.224 0 0 1 .038-.087.192.192 0 0 1 .093-.063.412.412 0 0 1 .34.038c.027.014.117.06.221.101a.99.99 0 0 0 .302.08.656.656 0 0 0 .278-.05l.07-.024c.03-.01.075-.027.13-.048l.003-.002.182-.069c.064-.022.127-.042.182-.055a.506.506 0 0 1 .075-.012Zm-1.91.252-.003-.001a.22.22 0 0 0-.037-.017.334.334 0 0 0-.11-.019c-.098 0-.146.014-.186.06a.578.578 0 0 0-.067.115l-.025.056-.007.015.11.25.007.346.223.352 1.108-.192h.003c.599.1.888.163 1.028.202.06.016.094.029.113.038l.303-.905V4.67a.416.416 0 0 0 .005-.094.319.319 0 0 0-.054-.179.143.143 0 0 0-.077-.047.349.349 0 0 0-.102-.011.621.621 0 0 0-.116.014l-.008.002h-.001l-.021.006-.005-.02v-.002l-.001-.005a.358.358 0 0 0-.027-.07c-.02-.04-.051-.081-.096-.097a.117.117 0 0 0-.044-.003.467.467 0 0 0-.07.011 1.651 1.651 0 0 0-.176.054 6.3 6.3 0 0 0-.182.069l-.004.002a2.855 2.855 0 0 1-.198.072c-.083.03-.154.056-.293.053a1.026 1.026 0 0 1-.317-.084 2.615 2.615 0 0 1-.225-.102.429.429 0 0 0-.203-.054.372.372 0 0 0-.105.018.153.153 0 0 0-.074.05.183.183 0 0 0-.035.096v.046l-.031-.02Z" clip-rule="evenodd"/><path fill="#EBEAE3" fill-rule="evenodd" d="M13.101 5.889s.06.072.058.097c-.002.026-.028.049-.028.049s.019.018.014.046c-.004.028-.041.03-.041.03s.007.026-.017.037c-.023.012-.118.033-.118.033s-.463-.132-.96-.132c-.495 0-1.08.16-1.08.16s-.06-.021-.062-.06a.196.196 0 0 1 .007-.068s-.033.004-.041-.025a.101.101 0 0 1 .004-.072s-.023.007.002-.046c.02-.04.047-.054.047-.054s.519-.185 1.11-.188a3.322 3.322 0 0 1 1.105.193Z" clip-rule="evenodd"/><path fill="#000" fill-rule="evenodd" d="M12.769 5.798a3.373 3.373 0 0 0-.773-.093 3.605 3.605 0 0 0-1.101.185l-.005.001h-.001l-.003.003a.123.123 0 0 0-.039.047.13.13 0 0 0-.01.028l-.001.007.018-.006-.01.018c0 .002 0 .003-.002.004a.096.096 0 0 0-.002.061.026.026 0 0 0 .02.019.044.044 0 0 0 .014.001l.012-.001m-.004.012-.001.004a.21.21 0 0 0-.005.06c0 .016.013.029.028.039a.151.151 0 0 0 .027.013h.004l.02-.006a4.388 4.388 0 0 1 .328-.073c.208-.04.478-.08.727-.08a3.745 3.745 0 0 1 .956.13l.004.002h.002l.01-.003a1.914 1.914 0 0 0 .102-.029.021.021 0 0 0 .012-.017v-.01l-.002-.01h.01l.004-.001a.06.06 0 0 0 .012-.004.026.026 0 0 0 .018-.02.046.046 0 0 0-.005-.028.048.048 0 0 0-.007-.01l-.006-.006.006-.006h.001c0-.002.002-.002.003-.004a.106.106 0 0 0 .008-.01.062.062 0 0 0 .013-.03l-.001-.008a.29.29 0 0 0-.045-.072 1.471 1.471 0 0 0-.007-.008l-.002-.002a.146.146 0 0 0-.02-.008 3.22 3.22 0 0 0-.307-.089m.373.237a.066.066 0 0 1 .011.048.041.041 0 0 1-.027.031.074.074 0 0 1-.013.004v.009a.038.038 0 0 1-.022.029 1.001 1.001 0 0 1-.116.032h-.003l-.003-.007-.002.008h-.001l-.004-.002a1.813 1.813 0 0 0-.075-.019 4.088 4.088 0 0 0-.877-.111c-.247 0-.517.04-.724.08a5.824 5.824 0 0 0-.328.073l-.02.005-.004.001h-.001l-.003-.007-.002.007h-.001a.09.09 0 0 1-.01-.004.157.157 0 0 1-.022-.012c-.015-.01-.034-.027-.035-.051a.223.223 0 0 1 .002-.05l.002-.01a.06.06 0 0 1-.01-.002.042.042 0 0 1-.029-.029.111.111 0 0 1 .001-.068.015.015 0 0 1-.004-.005c-.003-.005-.003-.012-.001-.02a.147.147 0 0 1 .011-.03.136.136 0 0 1 .05-.058l.004.007-.003-.007h.002l.004-.002a1.833 1.833 0 0 1 .085-.027 3.809 3.809 0 0 1 1.022-.16 3.39 3.39 0 0 1 1.112.196l.002.003a.32.32 0 0 1 .028.036.292.292 0 0 1 .027.05c.002.004.003.01.003.014a.079.079 0 0 1-.017.038.112.112 0 0 1-.009.01Zm-2.256-.15-.003-.008.003.007Zm.044.324-.002.007.002.001h.002l-.002-.008Zm2.04-.028-.003.008h.004l-.002-.008Zm-2.214-1.617a.107.107 0 0 0-.07.041.131.131 0 0 0-.022.102l.001.007v.002l-.016.005-.017.005-.001-.004a.181.181 0 0 1-.004-.042c0-.027.007-.062.031-.096a.142.142 0 0 1 .092-.055.135.135 0 0 1 .077.006c.015.008.023.02.028.03a.04.04 0 0 0 .002.002c.005.008.008.012.018.015.01.002.02 0 .027-.004a.058.058 0 0 0 .01-.007h.001l.013.012.012.012v.001l-.002.001a.096.096 0 0 1-.018.013.075.075 0 0 1-.052.006.062.062 0 0 1-.04-.03c0-.001 0-.003-.002-.004-.005-.008-.007-.012-.013-.015a.103.103 0 0 0-.055-.003Z" clip-rule="evenodd"/><path fill="#FC0" fill-opacity=".941" fill-rule="evenodd" d="m13.538 4.879-.18.372-.07.012s-.043-.026-.166-.017c-.088.006-.114.028-.114.028l.16-.37s.012.08.03.126c.024.06.114.116.114.116s.012-.072-.012-.158a1.78 1.78 0 0 0-.086-.224l.324.115Z" clip-rule="evenodd"/><path fill="#000" fill-rule="evenodd" d="m13.178 4.731.386.137-.193.4-.087.015-.006-.004a.109.109 0 0 0-.03-.01.463.463 0 0 0-.226.018.037.037 0 0 0-.003.002l-.028-.022.185-.43.01.064v.003l.002.01a.869.869 0 0 0 .028.11.22.22 0 0 0 .06.072.507.507 0 0 0 .02.016v-.013a.397.397 0 0 0-.014-.106 1.283 1.283 0 0 0-.075-.2l-.008-.016-.002-.004v-.001l-.02-.04Zm.133.414-.01.016-.004-.003a.758.758 0 0 1-.045-.034.246.246 0 0 1-.07-.087.499.499 0 0 1-.021-.07l-.118.273a.499.499 0 0 1 .243.002l.005.002.055-.01.167-.345-.265-.093.016.037c.019.044.04.101.054.15a.44.44 0 0 1 .012.162v.003l-.019-.003Zm0 0-.01.016.024.015.005-.027-.019-.004Z" clip-rule="evenodd"/><path fill="#121116" d="M12.093 3.723h-.201v.855h.2v-.855Z"/><path fill="#121116" fill-rule="evenodd" d="M11.873 3.723c0-.01.009-.018.019-.018h.2c.01 0 .019.008.019.018v.855c0 .01-.008.018-.018.018h-.201a.018.018 0 0 1-.018-.018v-.855Zm.037.018v.82h.165v-.82h-.165Z" clip-rule="evenodd"/><path fill="#F6CA1F" fill-rule="evenodd" d="m10.66 5.3.128.276s.55-.214 1.2-.21c.973.006 1.249.201 1.249.201l.144-.342-.108.063-.111.069-.126.048-.153-.012-.136-.1-.069-.143-.114.105-.201.045-.199-.051-.174-.22s-.13.244-.294.259c-.238.02-.376-.114-.376-.114s-.088.198-.234.234c-.232.057-.424-.108-.427-.108Z" clip-rule="evenodd"/><path fill="#000" fill-rule="evenodd" d="m11.988 5.002.185.233.19.05.194-.044.126-.117.077.16.128.094.146.012.121-.047.11-.068.148-.086-.17.402-.015-.011-.002-.002a1.278 1.278 0 0 0-.252-.094c-.19-.05-.501-.1-.987-.103a3.526 3.526 0 0 0-1.187.207l-.005.002h-.001l-.013.006-.146-.311h.03l.002.002h.002l.002.002.003.002.004.004a.694.694 0 0 0 .115.066c.076.034.178.06.29.032a.315.315 0 0 0 .163-.125.61.61 0 0 0 .06-.098v-.002l.01-.02.015.015.001.001.005.004.018.014a.508.508 0 0 0 .34.09c.075-.006.146-.066.198-.129a.789.789 0 0 0 .078-.11l.004-.008.002-.002.01-.021Zm.004.055a.818.818 0 0 1-.076.106c-.053.063-.13.132-.219.14a.538.538 0 0 1-.372-.105l-.007.015a.661.661 0 0 1-.048.074.345.345 0 0 1-.18.136.478.478 0 0 1-.31-.034.642.642 0 0 1-.083-.044l.1.212.011-.004c.017-.006.04-.015.072-.025a3.557 3.557 0 0 1 1.108-.178c.487.004.8.054.993.104a1.307 1.307 0 0 1 .249.091l.12-.284-.069.04-.112.07-.13.05-.162-.013-.142-.104-.061-.129-.102.094-.21.047-.206-.054-.164-.205Z" clip-rule="evenodd"/><path fill="#EEE" d="M12.878 3.615a.105.105 0 0 1-.104.105.105.105 0 0 1-.104-.105.104.104 0 1 1 .208-.001"/><path fill="#1E1E1E" fill-rule="evenodd" d="M12.86 3.614a.087.087 0 0 0-.086-.086.087.087 0 0 0-.085.087c0 .048.038.087.085.087a.087.087 0 0 0 .086-.087h.036a.123.123 0 0 1-.122.123.123.123 0 0 1-.122-.123c0-.068.054-.123.122-.124.067 0 .122.055.122.123h-.036Z" clip-rule="evenodd"/><path fill="#A3AFB8" fill-rule="evenodd" d="M12.726 3.669s.084-.001.093-.036a.17.17 0 0 0-.006-.078s.04.044.028.078c-.011.035-.022.043-.05.05a.09.09 0 0 1-.065-.014Z" clip-rule="evenodd"/><path fill="#EEE" d="M12.626 3.733a.105.105 0 0 1-.104.105.105.105 0 0 1-.104-.105.104.104 0 1 1 .208-.001"/><path fill="#1E1E1E" fill-rule="evenodd" d="M12.608 3.732a.087.087 0 0 0-.087-.086.087.087 0 0 0-.085.087c0 .048.039.087.086.087a.087.087 0 0 0 .086-.087h.036a.123.123 0 0 1-.122.123.123.123 0 0 1-.122-.123c0-.068.054-.123.121-.124.068 0 .122.055.123.123h-.036Z" clip-rule="evenodd"/><path fill="#A3AFB8" fill-rule="evenodd" d="M12.474 3.787s.084-.001.092-.036a.16.16 0 0 0-.006-.078s.04.044.029.078c-.011.035-.023.043-.051.05a.09.09 0 0 1-.064-.014Z" clip-rule="evenodd"/><path fill="#EEE" d="M13.171 3.546a.104.104 0 0 1-.103.105.105.105 0 0 1-.105-.105c0-.058.046-.105.104-.106.057 0 .104.047.104.105"/><path fill="#1E1E1E" fill-rule="evenodd" d="M13.153 3.545a.087.087 0 0 0-.086-.087.087.087 0 0 0-.086.088c0 .048.04.087.086.087a.087.087 0 0 0 .086-.087h.036a.123.123 0 0 1-.121.123.123.123 0 0 1-.123-.123c0-.068.054-.123.121-.124.068 0 .123.055.123.123h-.036Z" clip-rule="evenodd"/><path fill="#A3AFB8" fill-rule="evenodd" d="M13.019 3.6s.084-.002.092-.036c.01-.034-.005-.078-.005-.078s.04.044.028.078c-.011.034-.022.043-.05.05a.09.09 0 0 1-.065-.014Z" clip-rule="evenodd"/><path fill="#EEE" d="M13.501 3.612a.105.105 0 0 1-.103.105.105.105 0 0 1-.104-.104.104.104 0 1 1 .207-.002"/><path fill="#1E1E1E" fill-rule="evenodd" d="M13.483 3.611a.087.087 0 0 0-.086-.086.087.087 0 0 0-.085.087c0 .049.038.087.086.087a.087.087 0 0 0 .085-.087h.036a.123.123 0 0 1-.121.123.123.123 0 0 1-.123-.122.122.122 0 1 1 .244-.002h-.036Z" clip-rule="evenodd"/><path fill="#A3AFB8" fill-rule="evenodd" d="M13.35 3.666s.083-.001.092-.035c.008-.035-.006-.079-.006-.079s.04.044.028.079c-.011.034-.022.043-.05.05a.09.09 0 0 1-.065-.015Z" clip-rule="evenodd"/><path fill="#EEE" d="M13.753 3.82a.105.105 0 0 1-.104.105.105.105 0 0 1-.104-.105c0-.058.046-.106.104-.106.057 0 .104.046.104.105"/><path fill="#1E1E1E" fill-rule="evenodd" d="M13.735 3.819a.087.087 0 0 0-.086-.087.087.087 0 0 0-.085.088c0 .048.038.087.085.087a.087.087 0 0 0 .086-.088h.036a.123.123 0 0 1-.122.124.123.123 0 0 1-.122-.123c0-.068.054-.124.122-.124.067 0 .122.055.122.122h-.036Z" clip-rule="evenodd"/><path fill="#A3AFB8" fill-rule="evenodd" d="M13.601 3.873s.084-.001.093-.035a.176.176 0 0 0-.006-.078s.04.044.028.078c-.011.034-.022.043-.05.05a.09.09 0 0 1-.065-.015Z" clip-rule="evenodd"/><path fill="#EEE" d="M13.862 4.16a.105.105 0 0 1-.104.105.105.105 0 0 1-.104-.105c0-.058.046-.106.103-.106.057 0 .104.046.105.105"/><path fill="#1E1E1E" fill-rule="evenodd" d="M13.844 4.159a.087.087 0 0 0-.087-.087.087.087 0 0 0-.085.088c0 .048.039.087.086.087a.087.087 0 0 0 .086-.088h.036a.123.123 0 0 1-.122.124.123.123 0 0 1-.122-.123c0-.068.054-.124.121-.124s.122.055.123.122h-.037Z" clip-rule="evenodd"/><path fill="#A3AFB8" fill-rule="evenodd" d="M13.71 4.213s.083-.001.092-.035a.176.176 0 0 0-.006-.078s.04.044.029.078c-.012.034-.023.043-.051.05a.09.09 0 0 1-.064-.015Z" clip-rule="evenodd"/><path fill="#EEE" d="M13.822 4.504a.105.105 0 0 1-.104.105.105.105 0 0 1-.104-.105c0-.058.046-.105.103-.106.057 0 .104.047.104.105"/><path fill="#1E1E1E" fill-rule="evenodd" d="M13.803 4.503a.087.087 0 0 0-.086-.087.087.087 0 0 0-.085.088c0 .048.039.087.086.087a.087.087 0 0 0 .085-.087h.037a.123.123 0 0 1-.122.123.123.123 0 0 1-.122-.123c0-.068.053-.123.12-.124.068 0 .123.055.124.123h-.037Z" clip-rule="evenodd"/><path fill="#A3AFB8" fill-rule="evenodd" d="M13.67 4.558s.083-.002.092-.036a.176.176 0 0 0-.006-.078s.04.044.029.078c-.012.034-.023.043-.052.05a.09.09 0 0 1-.064-.014Z" clip-rule="evenodd"/><path fill="#EEE" d="M13.668 4.805a.105.105 0 0 1-.103.106.104.104 0 0 1-.104-.105c0-.058.045-.105.103-.106.057 0 .104.047.104.105"/><path fill="#1E1E1E" fill-rule="evenodd" d="M13.65 4.805a.087.087 0 0 0-.086-.087.087.087 0 0 0-.085.088c0 .048.038.087.086.087a.087.087 0 0 0 .085-.088h.036a.123.123 0 0 1-.121.124.123.123 0 0 1-.123-.123c0-.068.054-.124.122-.124.067 0 .122.055.122.122h-.036Z" clip-rule="evenodd"/><path fill="#A3AFB8" fill-rule="evenodd" d="M13.516 4.86s.084-.002.093-.036a.176.176 0 0 0-.006-.078s.04.044.028.078c-.011.034-.022.043-.05.05a.09.09 0 0 1-.065-.014Z" clip-rule="evenodd"/><path fill="#EEE" d="M12.38 3.823a.105.105 0 0 1-.103.106.105.105 0 0 1-.104-.105c0-.058.046-.105.103-.106.057 0 .104.047.105.105"/><path fill="#1E1E1E" fill-rule="evenodd" d="M12.363 3.823a.087.087 0 0 0-.087-.087.087.087 0 0 0-.085.088c0 .048.039.087.086.087a.087.087 0 0 0 .086-.088h.036a.123.123 0 0 1-.122.124.123.123 0 0 1-.122-.123c0-.068.054-.124.121-.124.068 0 .122.055.123.122h-.036Z" clip-rule="evenodd"/><path fill="#A3AFB8" fill-rule="evenodd" d="M12.229 3.878s.084-.002.092-.036a.16.16 0 0 0-.006-.078s.04.044.029.078c-.012.034-.023.043-.051.05a.09.09 0 0 1-.064-.014Z" clip-rule="evenodd"/><path fill="#EEE" d="M12.066 3.796a.087.087 0 0 1-.086.088.087.087 0 0 1-.087-.087c0-.049.038-.088.086-.089.048 0 .087.04.087.088"/><path fill="#1E1E1E" fill-rule="evenodd" d="M12.048 3.796a.07.07 0 0 0-.069-.07.07.07 0 0 0-.068.07c0 .04.03.07.069.07a.07.07 0 0 0 .068-.07h.036a.106.106 0 0 1-.104.106.106.106 0 0 1-.106-.105c0-.059.047-.106.105-.107.058 0 .105.047.105.106h-.036Z" clip-rule="evenodd"/><path fill="#A3AFB8" fill-rule="evenodd" d="M11.939 3.842s.07-.002.077-.03c.008-.029-.004-.066-.004-.066s.033.037.023.066c-.01.028-.018.036-.043.041a.075.075 0 0 1-.053-.011Z" clip-rule="evenodd"/><path fill="#EEE" d="M12.068 3.906a.087.087 0 0 1-.087.088.088.088 0 0 1-.087-.088c0-.048.038-.088.086-.088.048 0 .087.039.088.087"/><path fill="#1E1E1E" fill-rule="evenodd" d="M12.05 3.905a.07.07 0 0 0-.07-.07.07.07 0 0 0-.068.071c0 .039.031.07.069.07a.07.07 0 0 0 .069-.07h.036a.106.106 0 0 1-.105.106.105.105 0 0 1-.105-.106c0-.058.046-.106.104-.106.058 0 .105.047.106.105h-.036Z" clip-rule="evenodd"/><path fill="#A3AFB8" fill-rule="evenodd" d="M11.94 3.95s.07 0 .078-.029c.007-.028-.005-.065-.005-.065s.033.037.024.065c-.01.029-.019.036-.043.042a.076.076 0 0 1-.054-.012Z" clip-rule="evenodd"/><path fill="#EEE" d="M12.074 4.067a.087.087 0 0 1-.087.088.087.087 0 0 1-.087-.088c0-.048.038-.088.086-.088.048 0 .087.039.088.087"/><path fill="#1E1E1E" fill-rule="evenodd" d="M12.056 4.066a.07.07 0 0 0-.07-.07.07.07 0 0 0-.068.071c0 .04.031.07.069.07a.07.07 0 0 0 .069-.07h.036a.106.106 0 0 1-.105.106.106.106 0 0 1-.105-.106c0-.058.046-.106.104-.106.058 0 .105.047.106.105h-.036Z" clip-rule="evenodd"/><path fill="#A3AFB8" fill-rule="evenodd" d="M11.946 4.112s.07-.001.078-.03a.142.142 0 0 0-.005-.065s.033.037.024.065c-.01.029-.02.036-.043.042a.075.075 0 0 1-.054-.012Z" clip-rule="evenodd"/><path fill="#EEE" d="M12.082 4.238a.095.095 0 0 1-.093.095.095.095 0 0 1-.095-.095.094.094 0 1 1 .188-.001"/><path fill="#1E1E1E" fill-rule="evenodd" d="M12.064 4.237a.077.077 0 0 0-.076-.076.077.077 0 0 0-.075.077c0 .043.034.077.076.077a.077.077 0 0 0 .075-.077h.037c0 .062-.05.113-.112.113a.113.113 0 0 1-.113-.113c0-.062.05-.113.112-.113s.112.05.113.112h-.037Z" clip-rule="evenodd"/><path fill="#A3AFB8" fill-rule="evenodd" d="M11.945 4.287s.076-.001.083-.032c.008-.031-.005-.071-.005-.071s.036.04.026.07c-.01.032-.02.04-.046.046a.082.082 0 0 1-.058-.013Z" clip-rule="evenodd"/><path fill="#EEE" d="M12.092 4.467a.105.105 0 0 1-.103.106.105.105 0 0 1-.104-.105c0-.058.046-.106.103-.106.057 0 .104.046.104.104"/><path fill="#1E1E1E" fill-rule="evenodd" d="M12.075 4.467a.087.087 0 0 0-.087-.087.087.087 0 0 0-.085.088c0 .048.039.087.086.087a.087.087 0 0 0 .085-.088h.037a.123.123 0 0 1-.122.124.123.123 0 0 1-.122-.123c0-.068.053-.124.12-.124.068 0 .123.055.124.122h-.037Z" clip-rule="evenodd"/><path fill="#A3AFB8" fill-rule="evenodd" d="M11.94 4.521s.084-.001.093-.035c.008-.034-.006-.079-.006-.079s.04.045.029.079c-.012.034-.023.043-.051.05a.09.09 0 0 1-.065-.015Z" clip-rule="evenodd"/><path fill="#EEE" d="M12.082 4.938a.098.098 0 0 1-.097.1.098.098 0 0 1-.098-.1c0-.054.043-.098.097-.099.054 0 .098.044.098.099"/><path fill="#1E1E1E" fill-rule="evenodd" d="M12.064 4.938a.08.08 0 0 0-.08-.08.08.08 0 0 0-.079.08.08.08 0 0 0 .08.081.08.08 0 0 0 .08-.08h.035a.116.116 0 0 1-.115.116.116.116 0 0 1-.116-.116c0-.065.051-.117.115-.118.064 0 .116.052.116.116h-.036Z" clip-rule="evenodd"/><path fill="#A3AFB8" fill-rule="evenodd" d="M11.94 4.99s.078-.002.086-.034a.165.165 0 0 0-.005-.074s.037.042.027.074c-.011.032-.021.04-.048.047a.085.085 0 0 1-.06-.014Z" clip-rule="evenodd"/><path fill="#EEE" d="M11.801 3.82a.105.105 0 0 1-.104.106.105.105 0 0 1-.104-.105c0-.058.046-.105.104-.106.057 0 .104.047.104.105"/><path fill="#1E1E1E" fill-rule="evenodd" d="M11.783 3.82a.087.087 0 0 0-.086-.087.087.087 0 0 0-.086.088c0 .048.04.087.086.087a.087.087 0 0 0 .086-.087h.036a.123.123 0 0 1-.122.123.123.123 0 0 1-.122-.123c0-.068.054-.123.121-.124.068 0 .123.055.123.123h-.036Z" clip-rule="evenodd"/><path fill="#A3AFB8" fill-rule="evenodd" d="M11.649 3.875s.084-.002.092-.036c.009-.034-.005-.078-.005-.078s.04.044.028.078c-.011.034-.022.043-.051.05a.09.09 0 0 1-.064-.014Z" clip-rule="evenodd"/><path fill="#EEE" d="M11.544 3.719a.105.105 0 0 1-.104.105.105.105 0 0 1-.104-.105.104.104 0 1 1 .208-.001"/><path fill="#1E1E1E" fill-rule="evenodd" d="M11.526 3.718a.086.086 0 0 0-.087-.086.087.087 0 0 0-.085.087c0 .049.039.087.086.087a.087.087 0 0 0 .086-.087h.036a.123.123 0 0 1-.122.123.123.123 0 0 1-.122-.123c0-.067.054-.123.121-.123.068 0 .122.054.123.122h-.036Z" clip-rule="evenodd"/><path fill="#A3AFB8" fill-rule="evenodd" d="M11.392 3.773s.084-.001.092-.036a.16.16 0 0 0-.006-.078s.04.044.029.078c-.011.035-.023.043-.051.05a.09.09 0 0 1-.064-.014Z" clip-rule="evenodd"/><path fill="#EEE" d="M11.297 3.603a.105.105 0 0 1-.104.105.105.105 0 0 1-.104-.105.104.104 0 1 1 .208-.001"/><path fill="#1E1E1E" fill-rule="evenodd" d="M11.28 3.602a.087.087 0 0 0-.087-.086.087.087 0 0 0-.086.087c0 .049.04.087.086.087a.087.087 0 0 0 .086-.087h.036a.123.123 0 0 1-.121.123.123.123 0 0 1-.123-.123.122.122 0 1 1 .244-.001h-.036Z" clip-rule="evenodd"/><path fill="#A3AFB8" fill-rule="evenodd" d="M11.145 3.657s.084-.001.093-.036a.176.176 0 0 0-.006-.078s.04.044.028.078c-.011.035-.022.043-.05.05a.09.09 0 0 1-.065-.014Z" clip-rule="evenodd"/><path fill="#EEE" d="M11.014 3.541a.105.105 0 0 1-.104.106.104.104 0 0 1-.104-.105c0-.058.046-.106.103-.106.058 0 .104.046.105.104"/><path fill="#1E1E1E" fill-rule="evenodd" d="M10.996 3.54a.087.087 0 0 0-.087-.086.087.087 0 0 0-.085.088c0 .048.04.087.086.086a.087.087 0 0 0 .086-.087h.036a.123.123 0 0 1-.122.124.123.123 0 0 1-.122-.123c0-.068.054-.124.121-.124.068 0 .122.054.123.122h-.036Z" clip-rule="evenodd"/><path fill="#A3AFB8" fill-rule="evenodd" d="M10.862 3.595s.084-.001.092-.035c.009-.034-.005-.079-.005-.079s.04.045.028.079c-.011.034-.023.043-.051.05a.09.09 0 0 1-.064-.015Z" clip-rule="evenodd"/><path fill="#EEE" d="M10.68 3.621a.105.105 0 0 1-.104.105.105.105 0 0 1-.104-.105.104.104 0 1 1 .208-.001"/><path fill="#1E1E1E" fill-rule="evenodd" d="M10.662 3.62a.087.087 0 0 0-.087-.086.087.087 0 0 0-.085.087c0 .049.04.087.086.087a.087.087 0 0 0 .086-.087h.036a.123.123 0 0 1-.122.123.123.123 0 0 1-.122-.123.122.122 0 1 1 .244-.001h-.036Z" clip-rule="evenodd"/><path fill="#A3AFB8" fill-rule="evenodd" d="M10.528 3.675s.084-.001.092-.036c.009-.034-.005-.078-.005-.078s.04.044.028.078c-.011.035-.023.043-.051.05a.09.09 0 0 1-.064-.014Z" clip-rule="evenodd"/><path fill="#EEE" d="M10.445 3.857a.105.105 0 0 1-.104.105.105.105 0 0 1-.104-.105.104.104 0 1 1 .208-.001"/><path fill="#1E1E1E" fill-rule="evenodd" d="M10.427 3.856a.087.087 0 0 0-.087-.086.087.087 0 0 0-.085.087c0 .049.039.087.086.087a.087.087 0 0 0 .086-.087h.036a.123.123 0 0 1-.122.123.123.123 0 0 1-.122-.123c0-.067.054-.123.121-.124.068 0 .122.055.123.123h-.036Z" clip-rule="evenodd"/><path fill="#A3AFB8" fill-rule="evenodd" d="M10.293 3.91s.083 0 .092-.035a.176.176 0 0 0-.006-.078s.04.044.029.078c-.012.034-.023.043-.051.05a.09.09 0 0 1-.064-.014Z" clip-rule="evenodd"/><path fill="#EEE" d="M10.346 4.187a.105.105 0 0 1-.103.105.105.105 0 0 1-.104-.105c0-.058.046-.105.103-.105.057 0 .104.046.104.104"/><path fill="#1E1E1E" fill-rule="evenodd" d="M10.328 4.186a.087.087 0 0 0-.086-.086.087.087 0 0 0-.085.087c0 .049.039.087.086.087a.087.087 0 0 0 .085-.087h.037a.123.123 0 0 1-.122.123.123.123 0 0 1-.122-.123.122.122 0 1 1 .243-.001h-.036Z" clip-rule="evenodd"/><path fill="#A3AFB8" fill-rule="evenodd" d="M10.194 4.241s.084-.001.093-.036a.176.176 0 0 0-.006-.078s.04.044.029.078c-.012.035-.023.043-.052.05a.09.09 0 0 1-.064-.014Z" clip-rule="evenodd"/><path fill="#EEE" d="M10.39 4.532a.105.105 0 0 1-.104.105.105.105 0 0 1-.104-.105c0-.058.046-.105.103-.106.058 0 .104.047.105.105"/><path fill="#1E1E1E" fill-rule="evenodd" d="M10.372 4.53a.086.086 0 0 0-.086-.086.087.087 0 0 0-.086.088c0 .048.04.087.086.087a.087.087 0 0 0 .086-.087h.036a.123.123 0 0 1-.122.123.123.123 0 0 1-.122-.123c0-.068.054-.123.121-.124.068 0 .122.055.123.123h-.036Z" clip-rule="evenodd"/><path fill="#A3AFB8" fill-rule="evenodd" d="M10.238 4.586s.084-.002.092-.036c.009-.034-.005-.078-.005-.078s.04.044.028.078c-.011.034-.022.043-.051.05a.09.09 0 0 1-.064-.014Z" clip-rule="evenodd"/><path fill="#EEE" d="M10.55 4.844a.105.105 0 0 1-.104.105.105.105 0 0 1-.104-.105c0-.058.046-.105.103-.106.057 0 .104.047.105.105"/><path fill="#1E1E1E" fill-rule="evenodd" d="M10.531 4.843a.087.087 0 0 0-.086-.087.087.087 0 0 0-.085.088c0 .048.039.087.086.087a.087.087 0 0 0 .085-.087h.037a.123.123 0 0 1-.122.123.123.123 0 0 1-.122-.123c0-.068.053-.123.121-.124.067 0 .122.055.123.123h-.037Z" clip-rule="evenodd"/><path fill="#A3AFB8" fill-rule="evenodd" d="M10.398 4.898s.083-.002.092-.036a.176.176 0 0 0-.006-.078s.04.044.029.078c-.012.034-.023.043-.052.05a.09.09 0 0 1-.063-.014Z" clip-rule="evenodd"/><path fill="#EEE" d="M10.73 5.237c.015.056-.001.109-.036.118-.034.01-.075-.028-.09-.084-.015-.056 0-.11.035-.12.035-.009.075.029.09.085"/><path fill="#1E1E1E" fill-rule="evenodd" d="M10.68 5.182c-.014-.012-.027-.015-.036-.013-.009.003-.018.012-.024.03a.125.125 0 0 0 .002.067.12.12 0 0 0 .032.058c.014.013.027.016.036.014.009-.003.018-.012.024-.03a.126.126 0 0 0-.002-.067l.035-.01a.162.162 0 0 1 .001.088c-.007.024-.023.047-.049.054-.025.007-.05-.005-.07-.022a.162.162 0 0 1-.042-.076.162.162 0 0 1-.001-.086c.007-.025.023-.047.048-.055.026-.007.051.004.07.022a.16.16 0 0 1 .043.075l-.035.01a.125.125 0 0 0-.032-.059Z" clip-rule="evenodd"/><path fill="#A3AFB8" fill-rule="evenodd" d="M10.652 5.314s.05-.015.046-.05a.25.25 0 0 0-.023-.074s.035.036.037.07c.002.035-.002.046-.018.057-.01.008-.03.005-.043-.003Z" clip-rule="evenodd"/><path fill="#EEE" d="M13.413 5.257c-.014.056-.054.095-.089.086-.034-.008-.052-.06-.038-.117.014-.056.053-.095.088-.087.035.008.053.06.039.117"/><path fill="#1E1E1E" fill-rule="evenodd" d="M13.395 5.185c-.006-.018-.016-.026-.025-.029-.009-.002-.021.002-.035.015a.126.126 0 0 0-.031.06.126.126 0 0 0 0 .066c.006.018.016.027.025.029.009.002.021-.001.035-.014a.126.126 0 0 0 .031-.06l.035.01a.163.163 0 0 1-.04.075c-.02.018-.044.03-.07.024-.026-.006-.042-.028-.05-.053a.16.16 0 0 1-.001-.086.161.161 0 0 1 .04-.077c.02-.018.044-.03.07-.024.025.006.042.028.05.053a.162.162 0 0 1 .002.086l-.035-.008a.125.125 0 0 0-.001-.067Z" clip-rule="evenodd"/><path fill="#A3AFB8" fill-rule="evenodd" d="M13.307 5.286s.052.012.065-.02c.013-.032.015-.077.015-.077s.014.049-.001.08c-.015.032-.024.039-.043.04-.013.002-.029-.01-.036-.023Z" clip-rule="evenodd"/><path fill="#B3A192" fill-rule="evenodd" d="m11.899 3.25.007.175s-.208.019-.217.038c-.04.09.049.213.049.213s.07-.052.247-.052a.64.64 0 0 1 .255.041s.044-.071.044-.124c0-.052-.018-.104-.018-.104s-.086-.012-.113-.012h-.074l-.008-.18-.172.004Z" clip-rule="evenodd"/><path fill="#000" fill-rule="evenodd" d="m12.088 3.227.008.18h.057a.798.798 0 0 1 .101.01l.01.001h.004l-.002.019.017-.007v.003l.003.007a.417.417 0 0 1 .017.101.23.23 0 0 1-.025.09.457.457 0 0 1-.016.03l-.005.01a.034.034 0 0 1-.002.003l-.016-.01.016.01-.009.014-.014-.007-.003-.001a.796.796 0 0 0-.428-.013.264.264 0 0 0-.05.022l-.002.001-.015.011-.01-.014.014-.01-.015.01v-.002a.455.455 0 0 1-.04-.075c-.019-.043-.034-.102-.01-.155a.026.026 0 0 1 .01-.011.227.227 0 0 1 .04-.012 1.035 1.035 0 0 1 .149-.022l.016-.001-.008-.177.208-.005Zm-.18.216h-.002l-.007.001a2.84 2.84 0 0 0-.168.022.195.195 0 0 0-.024.007h-.003c-.015.038-.005.084.011.124.008.02.018.037.025.05l.003.005a.305.305 0 0 1 .046-.02.832.832 0 0 1 .44.009l.003.001a.448.448 0 0 0 .014-.027.196.196 0 0 0 .02-.074.303.303 0 0 0-.014-.088h-.002a2.799 2.799 0 0 0-.097-.01h-.092l-.007-.179-.136.003.007.175-.017.001Zm.358-.006.017-.007-.004-.01-.011-.001-.002.018Z" clip-rule="evenodd"/><path fill="#F0DDCB" d="M12.196 3.522c0 .02-.016.036-.037.036a.037.037 0 0 1-.037-.035c0-.02.016-.036.037-.036.02 0 .037.015.037.035"/><path fill="#121116" fill-rule="evenodd" d="M12.187 3.522a.028.028 0 0 0-.028-.026v-.01.01a.027.027 0 0 0-.028.026c0 .015.012.027.028.027a.027.027 0 0 0 .028-.027h.018a.046.046 0 0 1-.046.045.046.046 0 0 1-.047-.044c0-.026.021-.045.047-.046.025 0 .046.02.046.045h-.018Z" clip-rule="evenodd"/><path fill="#F0DDCB" d="M12.283 3.542c0 .02-.018.037-.04.037a.038.038 0 0 1-.038-.037c0-.02.017-.038.038-.038.022 0 .04.017.04.037"/><path fill="#121116" fill-rule="evenodd" d="M12.273 3.541a.029.029 0 0 0-.03-.028v-.009.01a.029.029 0 0 0-.03.028c0 .015.014.028.03.028.017 0 .03-.013.03-.028h.019a.047.047 0 0 1-.048.046v-.01.01a.047.047 0 0 1-.049-.046h.01-.01c0-.026.022-.047.048-.047.026 0 .048.02.049.046h-.019Z" clip-rule="evenodd"/><path fill="#F0DDCB" d="M12.11 3.521c0 .02-.016.036-.037.036a.037.037 0 0 1-.037-.036c0-.02.016-.036.037-.036.02 0 .037.016.037.036"/><path fill="#121116" fill-rule="evenodd" d="M12.101 3.52a.027.027 0 0 0-.028-.026.027.027 0 0 0-.028.027m.056 0h.018-.018Zm.018 0a.046.046 0 0 0-.046-.045l.046.045Zm-.046-.045a.046.046 0 0 0-.047.045l.047-.045Zm0 .072a.027.027 0 0 0 .028-.027h.018a.046.046 0 0 1-.046.045.046.046 0 0 1-.047-.045m.047.027a.027.027 0 0 1-.028-.027l.028.027Z" clip-rule="evenodd"/><path fill="#F0DDCB" d="M11.938 3.523c0 .02-.018.037-.04.037a.038.038 0 0 1-.038-.037c0-.02.017-.037.039-.037a.04.04 0 0 1 .039.037"/><path fill="#121116" fill-rule="evenodd" d="M11.928 3.523a.029.029 0 0 0-.03-.028.029.029 0 0 0-.029.028c0 .015.013.028.03.028.016 0 .03-.013.03-.028h.018a.047.047 0 0 1-.048.046V3.56v.01a.047.047 0 0 1-.048-.047c0-.026.021-.046.047-.046.027 0 .049.02.049.046h-.019Z" clip-rule="evenodd"/><path fill="#F0DDCB" d="M11.842 3.53c0 .02-.018.037-.039.037a.038.038 0 0 1-.039-.037c0-.021.017-.038.039-.038.021 0 .039.017.039.037"/><path fill="#121116" fill-rule="evenodd" d="M11.833 3.53a.029.029 0 0 0-.03-.029.029.029 0 0 0-.03.029c0 .015.013.027.03.027s.03-.013.03-.028h.018a.047.047 0 0 1-.048.047.047.047 0 0 1-.048-.046c0-.026.021-.047.048-.047.026 0 .048.02.048.046h-.018Z" clip-rule="evenodd"/><path fill="#F0DDCB" d="M12.018 3.422a.032.032 0 0 1-.033.031.032.032 0 0 1-.033-.031c0-.018.015-.032.033-.032.018 0 .033.014.033.031"/><path fill="#121116" fill-rule="evenodd" d="M12.008 3.422a.023.023 0 0 0-.023-.023V3.39v.01a.023.023 0 0 0-.024.022m.047 0h.019-.019Zm.019 0a.04.04 0 0 0-.042-.04l.042.04Zm-.084 0c0-.023.019-.04.042-.04m0 .062c.013 0 .023-.01.023-.022h.019c0 .022-.02.04-.042.04a.041.041 0 0 1-.042-.04m.042.022a.023.023 0 0 1-.024-.022l.024.022Z" clip-rule="evenodd"/><path fill="#F0DDCB" d="M12.018 3.276a.032.032 0 0 1-.033.031.032.032 0 0 1-.033-.031c0-.018.015-.032.033-.032.018 0 .033.014.033.031"/><path fill="#121116" fill-rule="evenodd" d="M12.008 3.275a.023.023 0 0 0-.023-.022.023.023 0 0 0-.024.023c0 .012.01.022.024.022.013 0 .023-.01.023-.022h.019c0 .022-.02.04-.042.04a.041.041 0 0 1-.042-.04c0-.023.019-.04.042-.041.022 0 .042.018.042.04h-.019Z" clip-rule="evenodd"/><path fill="#F0DDCB" d="M12.018 3.354a.032.032 0 0 1-.033.032.032.032 0 0 1-.033-.032c0-.017.015-.031.033-.031.018 0 .033.014.033.031"/><path fill="#121116" fill-rule="evenodd" d="M12.008 3.354a.023.023 0 0 0-.023-.022.023.023 0 0 0-.024.022m.047 0h.019-.019Zm.019 0c0-.023-.02-.04-.042-.04l.042.04Zm-.084 0c0-.022.019-.04.042-.04m0 .063c.013 0 .023-.01.023-.023h.019c0 .023-.02.04-.042.04a.041.041 0 0 1-.042-.04m.042.023a.023.023 0 0 1-.024-.023l.024.023Z" clip-rule="evenodd"/><path fill="#F0DDCB" d="M11.745 3.555c0 .02-.017.036-.037.036a.037.037 0 0 1-.038-.035c0-.02.017-.036.037-.037.02 0 .038.016.038.036"/><path fill="#121116" fill-rule="evenodd" d="M11.736 3.555a.028.028 0 0 0-.029-.026.028.028 0 0 0-.028.026c0 .015.012.027.028.027a.028.028 0 0 0 .029-.027h.018a.046.046 0 0 1-.047.046v-.01.01a.046.046 0 0 1-.046-.045c0-.026.02-.046.046-.046.025 0 .047.02.047.045h-.018Z" clip-rule="evenodd"/><path fill="#916C68" d="M12.026 3.513a.04.04 0 0 1-.04.04.04.04 0 0 1-.042-.04.04.04 0 0 1 .04-.039.04.04 0 0 1 .042.04"/><path fill="#4D3126" fill-rule="evenodd" d="M12.017 3.513a.031.031 0 0 0-.032-.03.031.031 0 0 0-.032.03c0 .017.014.03.032.03a.031.031 0 0 0 .032-.03h.018a.05.05 0 0 1-.05.049.05.05 0 0 1-.05-.048.05.05 0 0 1 .05-.05.05.05 0 0 1 .05.049h-.018Z" clip-rule="evenodd"/><path fill="#EEE" d="M12.064 2.991a.077.077 0 0 1-.077.078.077.077 0 0 1-.077-.077c0-.043.034-.078.077-.079.042 0 .077.035.077.078"/><path fill="#1E1E1E" fill-rule="evenodd" d="M12.046 2.99a.06.06 0 0 0-.06-.059.06.06 0 0 0-.058.06.06.06 0 1 0 .118 0h.036a.096.096 0 0 1-.095.096.095.095 0 0 1-.095-.095c0-.053.042-.096.095-.097.052 0 .095.043.095.095h-.036Z" clip-rule="evenodd"/><path fill="#A3AFB8" fill-rule="evenodd" d="M11.951 3.031s.062 0 .069-.026c.006-.025-.005-.058-.005-.058s.03.033.021.058c-.008.025-.016.032-.037.037a.067.067 0 0 1-.048-.01Z" clip-rule="evenodd"/><path fill="#FC0" fill-rule="evenodd" d="M10.764 5.606s.069.064.087.12c.018.058.046.211.046.211s.718-.199 1.07-.183c.352.016 1.164.194 1.164.194l.03-.178c.016-.091.082-.192.082-.192s-.775-.242-1.264-.22c-.49.023-.734.076-.844.11a7.48 7.48 0 0 0-.37.138Z" clip-rule="evenodd"/><path fill="#000" fill-rule="evenodd" d="m13.245 5.57-.002.008.002-.008.01.004-.006.009-.002.004a.7.7 0 0 0-.032.057.487.487 0 0 0-.047.128l-.02.123-.007.04-.002.01v.005l-.008-.001-.002.007-.01-.002a9.187 9.187 0 0 0-.122-.026 15.24 15.24 0 0 0-.318-.063 6.147 6.147 0 0 0-.713-.103c-.174-.008-.441.038-.664.086a8.017 8.017 0 0 0-.372.088l-.023.007-.006.001h-.002l-.002-.007-.008.002v-.002l-.001-.005-.004-.018a1.453 1.453 0 0 0-.04-.185.261.261 0 0 0-.05-.08.537.537 0 0 0-.035-.037V5.61c-.002-.004-.002-.009 0-.01v-.002h.002l.002-.002a1.964 1.964 0 0 0 .038-.015 12.209 12.209 0 0 1 .331-.121c.11-.035.356-.088.846-.11.246-.012.563.043.818.101a6.842 6.842 0 0 1 .44.116l.007.002h.002Zm-2.476.03Zm.01.008a7.701 7.701 0 0 1 .358-.132c.109-.034.353-.086.842-.11.243-.01.558.044.813.102a6.844 6.844 0 0 1 .414.107l.024.008a.5.5 0 0 0-.078.186 9.28 9.28 0 0 0-.02.123l-.007.04v.007h-.002l-.026-.006a16.53 16.53 0 0 0-.415-.084 6.16 6.16 0 0 0-.715-.103c-.177-.008-.446.038-.669.086a8.012 8.012 0 0 0-.372.089l-.023.006-.003-.016a1.482 1.482 0 0 0-.041-.187.274.274 0 0 0-.052-.084.55.55 0 0 0-.029-.032Zm.118.33h-.008l.001.01.009-.003-.002-.008Zm2.234.01-.002.008.008.002.002-.008-.008-.001Z" clip-rule="evenodd"/><path fill="#FC0" fill-rule="evenodd" d="M11.835 2.701h.309s-.076.053-.092.103c-.013.043-.01.114-.01.114s.085 0 .122-.032c.038-.031.117-.088.117-.088v.393s-.076-.073-.122-.097a.446.446 0 0 0-.11-.04s0 .064.026.102l.13.18-.441.016s.105-.11.148-.19c.028-.053.017-.107.017-.107s-.075 0-.113.026a.82.82 0 0 0-.103.105v-.378s.029.073.09.1c.062.029.12.014.12.014s.012-.075-.013-.122c-.026-.048-.08-.1-.075-.099Z" clip-rule="evenodd"/><path fill="#000" fill-rule="evenodd" d="M11.874 2.72c.017.02.038.046.052.072a.19.19 0 0 1 .018.086.316.316 0 0 1-.003.043v.003l-.018-.002.005.017h-.002l-.002.001a.212.212 0 0 1-.128-.015.179.179 0 0 1-.065-.052v.265l.007-.007a.503.503 0 0 1 .068-.065.187.187 0 0 1 .078-.026.374.374 0 0 1 .043-.003h.001v.018l.018-.004v.003l.002.008v.027a.186.186 0 0 1-.02.08.845.845 0 0 1-.122.164l.365-.014a7.826 7.826 0 0 1-.111-.153.177.177 0 0 1-.026-.072.297.297 0 0 1-.003-.028v-.011h.017l.004-.018h.003l.007.002a.433.433 0 0 1 .2.111v-.316a.175.175 0 0 1-.17.098.376.376 0 0 1-.048.004h-.001v-.018l-.018.001v-.003a.476.476 0 0 1 .01-.117.2.2 0 0 1 .056-.079l.002-.001h-.22l.001.001Zm-.024-.028Zm.304.024-.003.002a.287.287 0 0 0-.035.029.167.167 0 0 0-.047.062.283.283 0 0 0-.009.069v.021a.335.335 0 0 0 .027-.003.142.142 0 0 0 .066-.023 1.627 1.627 0 0 1 .104-.08l.01-.007.002-.002.03-.02v.47l-.031-.03-.003-.003a.643.643 0 0 0-.04-.036.468.468 0 0 0-.075-.055.415.415 0 0 0-.082-.032c0 .003 0 .007.002.01.003.02.009.042.02.057a8.239 8.239 0 0 0 .113.157l.017.023.02.027-.52.02.03-.032h.001v-.001l.004-.004a.776.776 0 0 0 .053-.06.81.81 0 0 0 .088-.122.15.15 0 0 0 .016-.08.337.337 0 0 0-.023.003.153.153 0 0 0-.062.02.477.477 0 0 0-.09.089l-.007.009-.002.002v.001l-.033.039v-.428l.035-.007.001.003.004.008a.224.224 0 0 0 .015.026c.014.02.034.042.06.054a.178.178 0 0 0 .097.014V2.88a.155.155 0 0 0-.013-.07.414.414 0 0 0-.047-.065l-.014-.017a.224.224 0 0 1-.006-.006l-.006-.008-.003-.006a.018.018 0 0 1 .006-.02.018.018 0 0 1 .012-.004h.366m-.16.235-.017.001v.017h.018v-.018Zm.006.137.004-.018-.022-.004v.022h.018Zm-.12 0 .018-.004-.003-.014h-.014v.018Zm-.005-.133.005.017.011-.003.002-.011-.018-.003Zm-.193-.12Z" clip-rule="evenodd"/><path fill="#FC0" fill-rule="evenodd" d="M11.811 3.948s-.22-.002-.408-.114c-.187-.11-.377-.227-.656-.161-.057.014-.267.106-.36.405-.065.21.01.463.077.577.066.114.173.23.173.23l.113-.078s-.289-.245-.254-.562c.034-.318.193-.392.193-.392s.196-.154.458-.008.519.212.519.212.24.058.262.055c.02-.002-.122-.166-.117-.164Z" clip-rule="evenodd"/><path fill="#121116" fill-rule="evenodd" d="m11.402 3.812.01.007a.833.833 0 0 0 .39.11l.007.001h.002c.005 0 .008.002.008.002l-.008.034a.018.018 0 0 0 .017-.013.017.017 0 0 0 0-.01.018.018 0 0 0-.002-.004l.004.004.014.018.003.003a4.27 4.27 0 0 1 .086.111c.005.008.01.016.012.023a.031.031 0 0 1 .003.014.02.02 0 0 1-.018.018 3.608 3.608 0 0 1-.258-.053l-.01-.003.003-.016-.004.016h-.003a.682.682 0 0 1-.042-.013 2.44 2.44 0 0 1-.478-.2.423.423 0 0 0-.406-.014.32.32 0 0 0-.032.02l-.002.001-.001.001h-.002l-.004.003a.299.299 0 0 0-.072.068.605.605 0 0 0 .006.695.908.908 0 0 0 .134.156l.002.002m-.124.091-.014.012v-.001a1.45 1.45 0 0 1-.174-.231.844.844 0 0 1-.08-.591c.096-.306.312-.403.374-.418.281-.066.474.048.659.157M10.64 4.86l.081-.055a.94.94 0 0 1-.126-.15.64.64 0 0 1-.004-.736.335.335 0 0 1 .088-.081l.002-.001a.324.324 0 0 1 .034-.022.46.46 0 0 1 .44.014 2.434 2.434 0 0 0 .512.21h.003l.01.003a12.5 12.5 0 0 0 .22.049 1.009 1.009 0 0 0-.039-.051l-.042-.053-.003-.003a2.047 2.047 0 0 1-.016-.018.72.72 0 0 1-.126-.015.87.87 0 0 1-.28-.101l-.009-.005c-.185-.11-.367-.218-.634-.154-.052.012-.256.1-.347.392a.809.809 0 0 0 .185.718 1.646 1.646 0 0 0 .05.06Zm1.17-.894.001-.018v.018Z" clip-rule="evenodd"/><path fill="#FC0" fill-rule="evenodd" d="m10.596 5.14-.117-.23.35-.137s-.084.113-.104.193c-.025.099-.017.182-.017.182s.033-.025.073-.089c.03-.049.08-.225.08-.225l.157.503c.002.001-.08-.08-.138-.09-.065-.012-.143.01-.143.01l-.093.027-.048-.144Z" clip-rule="evenodd"/><path fill="#000" fill-rule="evenodd" d="m10.844 4.784.04-.052-.43.168.125.247.053.16.11-.033h.003a.445.445 0 0 1 .042-.008.311.311 0 0 1 .09-.001.13.13 0 0 1 .04.016.37.37 0 0 1 .076.057.348.348 0 0 1 .01.01l.002.001v.001h.001l.001.001.002.001c0 .001.011.003.02 0a.034.034 0 0 0 .006-.02h.001l-.175-.563-.017.06v.002l-.002.005a1.603 1.603 0 0 1-.027.086 1.472 1.472 0 0 1-.05.127.482.482 0 0 1-.039.055v-.01a.59.59 0 0 1 .017-.123.484.484 0 0 1 .057-.122 1.032 1.032 0 0 1 .04-.06l.004-.003v-.001Zm-.135.364-.019.002v-.005a.354.354 0 0 1 0-.052.63.63 0 0 1 .017-.131.523.523 0 0 1 .073-.15l-.275.108.108.212.043.13.076-.024.005.018-.005-.018h.004l.01-.003a.347.347 0 0 1 .137-.007.163.163 0 0 1 .053.02c.016.01.032.021.046.032l-.12-.383-.011.037a1.53 1.53 0 0 1-.027.076.383.383 0 0 1-.102.15l-.001.002h-.001l-.011-.014Zm0 0 .01.014-.025.02-.004-.032.019-.002Z" clip-rule="evenodd"/><path fill="#FC0" fill-rule="evenodd" d="M12.207 3.944s.22-.003.408-.114c.188-.11.377-.227.656-.161.057.013.267.106.36.405.065.21-.01.463-.077.577-.066.114-.111.18-.111.18l-.136-.048s.25-.225.216-.542c-.035-.318-.194-.392-.194-.392s-.196-.154-.458-.008c-.262.145-.518.212-.518.212s-.241.058-.262.055c-.022-.002.121-.167.116-.164Z" clip-rule="evenodd"/><path fill="#121116" fill-rule="evenodd" d="m12.633 3.84-.01.006a.87.87 0 0 1-.405.116h-.002a1.885 1.885 0 0 1-.017.02l-.042.053a.955.955 0 0 0-.038.051 1.306 1.306 0 0 0 .107-.022 10.014 10.014 0 0 0 .112-.027l.01-.002h.003l.008-.003a1.547 1.547 0 0 0 .149-.048c.096-.034.225-.087.355-.159a.459.459 0 0 1 .44-.014.339.339 0 0 1 .036.022.174.174 0 0 1 .027.018.335.335 0 0 1 .061.064.64.64 0 0 1 .113.324.64.64 0 0 1-.097.401.813.813 0 0 1-.103.135l.096.035a2.823 2.823 0 0 0 .103-.168.809.809 0 0 0 .075-.563c-.09-.292-.295-.38-.347-.393-.267-.063-.449.045-.634.154Zm.825 1.002V4.84l.002-.003.006-.009a2.553 2.553 0 0 0 .104-.17.842.842 0 0 0 .078-.59c-.095-.307-.31-.403-.373-.418-.28-.066-.474.048-.658.157l-.012.007a.833.833 0 0 1-.389.11h-.007l-.001.001h-.001l-.008.002.008.034a.018.018 0 0 1-.017-.013c-.002-.005 0-.01 0-.01v-.003l.002-.001-.004.004-.014.018-.003.003a4.197 4.197 0 0 0-.086.111.138.138 0 0 0-.012.023.03.03 0 0 0-.003.013.02.02 0 0 0 .018.02 3.71 3.71 0 0 0 .23-.047l.028-.007.01-.003h.001l-.005-.017.005.017h.003a.773.773 0 0 0 .042-.013 2.42 2.42 0 0 0 .478-.2.423.423 0 0 1 .406-.014.32.32 0 0 1 .032.02l.002.001.002.001.005.003.017.012a.29.29 0 0 1 .055.056c.041.056.089.15.106.306a.604.604 0 0 1-.093.38.78.78 0 0 1-.107.137l-.008.008-.002.002-.023.02.178.064.008-.011Zm-1.25-.88-.001-.018v.018Z" clip-rule="evenodd"/><path fill="#FC0" d="M12.185 3.727h-.091v.855h.091v-.855Z"/><path fill="#121116" fill-rule="evenodd" d="M12.076 3.727c0-.01.008-.018.018-.018h.091c.01 0 .018.008.018.018v.855c0 .01-.008.018-.018.018h-.091a.018.018 0 0 1-.018-.018v-.855Zm.036.018v.819h.055v-.82h-.055Z" clip-rule="evenodd"/><path fill="#FC0" d="M11.893 3.723h-.108v.855h.108v-.855Z"/><path fill="#121116" fill-rule="evenodd" d="M11.767 3.723c0-.01.008-.018.018-.018h.108c.01 0 .018.008.018.018v.855c0 .01-.008.018-.018.018h-.108a.018.018 0 0 1-.018-.018v-.855Zm.036.018v.82h.072v-.82h-.072Z" clip-rule="evenodd"/><path fill="#FC0" d="M12.284 3.525c0 .151-.133.274-.298.275-.166 0-.3-.123-.3-.274-.001-.152.132-.276.297-.277.165 0 .3.122.301.273"/><path fill="#121116" fill-rule="evenodd" d="M12.266 3.523c0-.14-.126-.256-.283-.255-.156 0-.28.117-.28.258.001.14.126.256.283.256.156 0 .28-.117.28-.257h.037c0 .163-.144.292-.317.293-.174 0-.318-.13-.319-.292 0-.163.143-.294.316-.295.174 0 .318.128.32.291h-.037Z" clip-rule="evenodd"/><path fill="#FC0" fill-rule="evenodd" d="m11.72 4.575.514-.004s-.06.036-.112.128c-.052.092-.045.15-.045.15s.079 0 .134-.041a.782.782 0 0 0 .116-.115l-.002.474s-.037-.06-.098-.096c-.062-.036-.149-.036-.149-.036h-.175s-.08.005-.117.028a.89.89 0 0 0-.114.099l-.009-.448s.025.078.108.11c.083.032.13.027.13.027s0-.1-.043-.152c-.042-.052-.139-.122-.139-.124Z" clip-rule="evenodd"/><path fill="#000" fill-rule="evenodd" d="m12.19 4.586-.428.004.02.016c.03.025.066.056.088.083a.22.22 0 0 1 .04.103.442.442 0 0 1 .006.055v.004H11.9l.001.016h-.01a.441.441 0 0 1-.126-.029.2.2 0 0 1-.086-.064l.006.352.014-.012a.684.684 0 0 1 .078-.063.217.217 0 0 1 .077-.026.518.518 0 0 1 .043-.005h.003l.002.015-.001-.016h.177v.016-.016a.19.19 0 0 1 .015.001c.01 0 .023.002.038.004.03.005.07.014.103.034a.312.312 0 0 1 .075.064l.002-.388-.01.012a.632.632 0 0 1-.082.074.24.24 0 0 1-.093.039.323.323 0 0 1-.048.006h-.001v-.016l-.016.002v-.004a.365.365 0 0 1 .047-.156.438.438 0 0 1 .081-.105Zm-.112.263-.016.002.002.014h.014v-.016Zm.015-.016c0-.006 0-.013.002-.022a.405.405 0 0 1 .138-.221l.007-.005.002-.001.049-.03-.587.006v.015l.002.006.001.003.002.002.001.001.004.003a.658.658 0 0 1 .132.118.198.198 0 0 1 .034.09.428.428 0 0 1 .005.038c-.005 0-.01 0-.016-.002a.408.408 0 0 1-.092-.024.17.17 0 0 1-.099-.1v-.001l-.03.005.01.485.025-.026v-.001l.002-.002.008-.008a1.238 1.238 0 0 1 .102-.086.19.19 0 0 1 .066-.02.467.467 0 0 1 .04-.006h.181a.289.289 0 0 1 .045.004.267.267 0 0 1 .092.03.281.281 0 0 1 .092.089l.001.002.029.046.002-.572-.027.034-.003.003-.007.009a.595.595 0 0 1-.104.1.21.21 0 0 1-.081.034.288.288 0 0 1-.028.004Zm-.192.018.001.016.014-.002v-.014H11.9Z" clip-rule="evenodd"/><path fill="#F6CA1F" fill-rule="evenodd" d="M12.006 4.948s.075.175.163.253c.051.045.204.08.274.062.155-.04.263-.165.263-.165s-.006.137.091.212c.098.075.176.095.257.072.08-.022.31-.192.31-.192l.047.042s-.131.127-.27.195c-.07.034-.285.015-.355-.04a.471.471 0 0 1-.111-.191s-.043.086-.135.117a.592.592 0 0 1-.336-.005.478.478 0 0 1-.2-.168c-.02-.036-.015-.056-.015-.056s-.057.166-.178.211a.576.576 0 0 1-.354.012c-.111-.032-.12-.095-.12-.095s-.008.176-.25.226c-.243.05-.435-.128-.435-.128l.033-.05s.137.153.346.14c.209-.015.278-.282.278-.282s.093.139.338.142c.245.003.315-.318.315-.318l.044.006Z" clip-rule="evenodd"/><path fill="#000" fill-rule="evenodd" d="m11.95 4.926.067.008.003.008v.002l.003.005a.938.938 0 0 0 .045.09.61.61 0 0 0 .111.151c.011.01.028.02.05.029a.46.46 0 0 0 .21.03.513.513 0 0 0 .251-.155.281.281 0 0 1 .004-.004v-.001l.028-.032-.002.042v.005a.281.281 0 0 0 .01.068c.01.042.031.091.077.126.095.074.168.091.243.07a.395.395 0 0 0 .08-.038 1.902 1.902 0 0 0 .188-.125l.027-.02.007-.005.002-.001.01-.008.068.06-.011.011-.01-.01.01.01-.002.002-.004.004-.017.015a1.06 1.06 0 0 1-.25.176.23.23 0 0 1-.08.018.618.618 0 0 1-.21-.022.238.238 0 0 1-.08-.037.35.35 0 0 1-.087-.122.725.725 0 0 1-.02-.047.25.25 0 0 1-.127.098.606.606 0 0 1-.343-.005.368.368 0 0 1-.129-.082.453.453 0 0 1-.088-.107.527.527 0 0 1-.026.047.306.306 0 0 1-.142.129.59.59 0 0 1-.362.011.211.211 0 0 1-.11-.063v-.002a.25.25 0 0 1-.029.06c-.034.053-.1.111-.225.137a.494.494 0 0 1-.318-.046.634.634 0 0 1-.12-.078l-.007-.005a.02.02 0 0 0-.002-.002l.01-.011-.01.01-.01-.008.051-.076.013.014v.001l.005.005.018.016a.482.482 0 0 0 .068.05c.058.036.142.07.242.063.098-.007.164-.073.207-.14a.526.526 0 0 0 .056-.12l.002-.008v-.003l.009-.032.018.027v.002l.004.004a.317.317 0 0 0 .069.06.462.462 0 0 0 .252.07c.115.001.19-.073.237-.15a.568.568 0 0 0 .06-.143l.003-.01V4.94l.004-.013Zm.023.032v.002a.55.55 0 0 1-.064.15c-.05.081-.132.166-.262.164a.49.49 0 0 1-.268-.074.351.351 0 0 1-.063-.053.555.555 0 0 1-.054.113c-.045.071-.119.146-.23.153a.443.443 0 0 1-.26-.066.505.505 0 0 1-.084-.065l-.017.025.024.018a.605.605 0 0 0 .09.055.465.465 0 0 0 .299.044c.117-.025.177-.079.207-.126a.216.216 0 0 0 .032-.085v-.001l.029-.002v.001l.002.006a.082.082 0 0 0 .013.021.18.18 0 0 0 .095.055.57.57 0 0 0 .344-.011.277.277 0 0 0 .128-.117.506.506 0 0 0 .032-.06l.008-.019.002-.005V5.08l.027.008v.009a.1.1 0 0 0 .014.036c.008.016.037.05.075.085a.341.341 0 0 0 .117.076.578.578 0 0 0 .327.005.221.221 0 0 0 .095-.066.262.262 0 0 0 .03-.04V5.19h.001l.016-.034m-1.326.054Zm.62-.252.025.003.01.021c.008.018.02.043.035.07a.64.64 0 0 0 .118.16.211.211 0 0 0 .059.033.493.493 0 0 0 .228.031.541.541 0 0 0 .246-.144.33.33 0 0 0 .008.047.253.253 0 0 0 .088.142c.1.077.183.1.27.075a.42.42 0 0 0 .085-.04 1.938 1.938 0 0 0 .191-.127 15.8 15.8 0 0 0 .027-.02l.027.023a1.035 1.035 0 0 1-.254.181.203.203 0 0 1-.07.015.588.588 0 0 1-.2-.02.21.21 0 0 1-.07-.033.322.322 0 0 1-.077-.111.68.68 0 0 1-.022-.051l-.005-.016-.001-.004v-.001" clip-rule="evenodd"/><path fill="#FC0" fill-rule="evenodd" d="M11.402 5.05s.002-.086.02-.111c.026-.037.061-.038.08-.033.022.006.045.026.041.086-.004.059-.02.088-.002.11.017.023.02.039.054.034.034-.006.049-.017.041-.048-.007-.032-.017.002-.023-.024-.007-.027.032-.141.026-.212-.006-.07-.033-.125-.086-.139-.05-.013-.092-.013-.139.021a.564.564 0 0 0-.102.14l-.001.23.093-.005-.002-.05Z" clip-rule="evenodd"/><path fill="#000" fill-rule="evenodd" d="M11.48 4.689a.205.205 0 0 1 .078.007c.064.017.092.083.099.154a.487.487 0 0 1-.017.146 1.122 1.122 0 0 0-.01.055v.005c.003 0 .007.001.012.004.007.006.01.015.012.024.004.018.003.036-.01.05-.011.012-.029.017-.046.02-.02.002-.035 0-.048-.01a.103.103 0 0 1-.016-.02l-.007-.01c-.014-.018-.013-.037-.01-.055a.07.07 0 0 1 .003-.02l.006-.048c.001-.028-.003-.044-.009-.053a.033.033 0 0 0-.02-.015.057.057 0 0 0-.06.026.07.07 0 0 0-.008.022.3.3 0 0 0-.009.066v.012l.003.067-.13.007.002-.253.002-.004v-.001l.003-.004.007-.013.025-.04a.355.355 0 0 1 .072-.088.16.16 0 0 1 .077-.031Zm-.15.19v.206l.056-.003-.002-.032v-.005l.001-.01a.55.55 0 0 1 .01-.072.102.102 0 0 1 .013-.034.092.092 0 0 1 .099-.04c.014.004.03.013.04.03a.124.124 0 0 1 .014.074.513.513 0 0 1-.007.055l-.002.015c-.003.017-.001.024.003.029a.31.31 0 0 1 .009.012l.002.004a.051.051 0 0 0 .007.008c.002.002.005.004.02.002.016-.002.023-.006.026-.009 0 0 .004-.004 0-.017-.002 0-.006 0-.01-.002a.025.025 0 0 1-.01-.01.046.046 0 0 1-.004-.012.066.066 0 0 1 0-.02.328.328 0 0 1 .01-.06l.004-.017a.458.458 0 0 0 .013-.118c-.007-.067-.032-.112-.073-.123a.17.17 0 0 0-.064-.006.125.125 0 0 0-.06.025.328.328 0 0 0-.063.077.82.82 0 0 0-.031.052v.001Z" clip-rule="evenodd"/><path fill="#FC0" fill-rule="evenodd" d="M11.228 5.112s-.036-.078-.063-.094a.076.076 0 0 0-.086.001c-.018.015-.03.043-.004.096.027.052.054.073.047.1-.007.028-.004.043-.037.052-.033.01-.052.005-.057-.027-.006-.032.017-.005.012-.032-.004-.027-.086-.116-.108-.184-.022-.066-.02-.127.023-.161.04-.032.08-.048.136-.036.054.013.15.088.15.088l.092.21-.088.033-.017-.046Z" clip-rule="evenodd"/><path fill="#000" fill-rule="evenodd" d="M11.022 4.846a.17.17 0 0 0-.056.031c-.034.026-.039.077-.018.142a.459.459 0 0 0 .07.117l.021.032a.263.263 0 0 1 .012.02.051.051 0 0 1 .008.03.024.024 0 0 1-.005.013.022.022 0 0 1-.008.006c.002.013.006.015.007.016.004.001.011.001.028-.003.014-.004.016-.007.017-.01a.044.044 0 0 0 .003-.01.224.224 0 0 1 .004-.02c.002-.005 0-.012-.009-.026a.124.124 0 0 1-.053-.133m.025-.045a.092.092 0 0 1 .133.023.321.321 0 0 1 .037.062l.005.01v.002h.001v.001l.012.031.053-.02-.083-.189a.62.62 0 0 0-.139-.081.125.125 0 0 0-.065 0m.23.056.003.003.102.231-.122.045-.023-.062-.002-.002-.004-.009a.527.527 0 0 0-.034-.057.069.069 0 0 0-.016-.017c-.03-.018-.056-.008-.065 0a.033.033 0 0 0-.013.022c-.001.01 0 .027.013.052l.025.042a.81.81 0 0 1 .01.016c.01.016.019.034.013.055a.291.291 0 0 0-.004.018.078.078 0 0 1-.006.018c-.007.015-.02.023-.04.028-.016.005-.034.008-.05.001-.017-.007-.025-.023-.028-.042-.002-.008-.003-.018.002-.026a.022.022 0 0 1 .009-.01.235.235 0 0 0-.012-.02l-.021-.03-.01-.015a.486.486 0 0 1-.064-.112c-.022-.068-.023-.14.03-.18a.205.205 0 0 1 .067-.038.16.16 0 0 1 .083-.002c.03.007.07.03.1.051l.04.028.012.009.003.002.001.001Z" clip-rule="evenodd"/><path fill="#FC0" fill-rule="evenodd" d="M11.21 4.432s-.09.152-.07.27c.02.117.14.37.14.37l.002.033.066-.007-.015-.034s.032-.302.012-.398c-.015-.07-.134-.233-.135-.234Z" clip-rule="evenodd"/><path fill="#000" fill-rule="evenodd" d="m11.207 4.403.016.016v.001h.001v.001h.001l.001.002a.334.334 0 0 1 .018.026 1.789 1.789 0 0 1 .09.143c.013.025.024.05.029.07a.555.555 0 0 1 .007.107 2.25 2.25 0 0 1-.015.248 3.15 3.15 0 0 1-.004.044l.022.052-.108.012-.002-.05-.003-.007a3.61 3.61 0 0 1-.058-.13 1.282 1.282 0 0 1-.08-.233.377.377 0 0 1 .029-.189.695.695 0 0 1 .043-.091v-.002h.001l.015.009-.015-.01.012-.019Zm.005.062.003.004a1.685 1.685 0 0 1 .088.14.27.27 0 0 1 .025.061.521.521 0 0 1 .006.099 2.288 2.288 0 0 1-.014.244l-.004.036v.012l-.001.005.007.017-.023.003v-.02l-.002-.002v-.001l-.001-.002-.004-.008-.014-.03a3.674 3.674 0 0 1-.044-.1 1.255 1.255 0 0 1-.077-.224.344.344 0 0 1 .027-.17.667.667 0 0 1 .029-.064Z" clip-rule="evenodd"/><path fill="#FC0" fill-rule="evenodd" d="M11.355 5.13s.046.055.1.081c.06.03.084.03.107.012.018-.013.012-.068-.008-.084-.02-.015-.044-.007-.047.008-.006.025-.014.024-.033.014a2.431 2.431 0 0 1-.09-.053l-.029.023Z" clip-rule="evenodd"/><path fill="#000" fill-rule="evenodd" d="m11.394 5.093.002.001.008.005a2.087 2.087 0 0 0 .084.05l.002-.006a.04.04 0 0 1 .03-.028c.014-.004.03 0 .044.01a.06.06 0 0 1 .018.025.112.112 0 0 1 .006.06.044.044 0 0 1-.015.027.072.072 0 0 1-.053.015.22.22 0 0 1-.073-.025.32.32 0 0 1-.097-.075l-.006-.007-.002-.002v-.001l.013-.011-.013.01-.012-.013.053-.042.01.007Zm-.013.04a.376.376 0 0 0 .082.062.19.19 0 0 0 .06.022.036.036 0 0 0 .028-.008m-.17-.076.005-.004a5.899 5.899 0 0 0 .08.047l.014.007a.032.032 0 0 0 .02.001.03.03 0 0 0 .017-.014.068.068 0 0 0 .007-.019l.004-.002c.003 0 .008 0 .015.005a.026.026 0 0 1 .006.01.074.074 0 0 1 .005.039l-.003.006m-.059-.06Z" clip-rule="evenodd"/><path fill="#FC0" fill-rule="evenodd" d="M11.285 5.143s-.02.068-.058.114c-.042.051-.064.061-.093.055-.02-.005-.038-.058-.026-.08s.036-.024.046-.012c.016.02.023.016.035 0 .019-.025.06-.086.06-.086l.036.009Z" clip-rule="evenodd"/><path fill="#000" fill-rule="evenodd" d="m11.242 5.114.065.016-.005.018-.017-.005.017.005v.003c-.002.002-.002.005-.004.009a.321.321 0 0 1-.057.109.223.223 0 0 1-.056.052.072.072 0 0 1-.055.008.044.044 0 0 1-.025-.018.108.108 0 0 1-.019-.057c0-.01.002-.021.007-.03a.054.054 0 0 1 .035-.028.04.04 0 0 1 .04.013.062.062 0 0 0 .003.004l.005-.005m-.008.009Zm.094-.062h-.005l-.016.023a1.42 1.42 0 0 1-.048.064.033.033 0 0 1-.018.009.03.03 0 0 1-.02-.006.07.07 0 0 1-.015-.014h-.004c-.004 0-.008.003-.012.01m.125-.107-.014-.01.007-.01m.02.041a.286.286 0 0 1-.049.09.19.19 0 0 1-.046.045.037.037 0 0 1-.029.004l-.004-.004a.07.07 0 0 1-.012-.037c0-.007 0-.01.002-.012m.11-.117.015.01-.014-.01Zm0 0Zm0 0Zm0 0Zm0 0-.001.003.001-.002Zm-.001.003-.005.007.005-.007Zm-.005.007-.016.023.016-.023Zm-.016.023a1.43 1.43 0 0 1-.037.051l.037-.05Z" clip-rule="evenodd"/><path fill="#FC0" d="M11.458 5.088c.003.02-.057.047-.134.06-.078.013-.143.007-.147-.013-.004-.02.056-.046.134-.06.077-.012.143-.007.147.013"/><path fill="#000" fill-rule="evenodd" d="M11.41 5.087a.41.41 0 0 0-.097.006.404.404 0 0 0-.093.026.107.107 0 0 0-.022.013.11.11 0 0 0 .026.004c.025.002.059 0 .097-.006a.408.408 0 0 0 .093-.026.11.11 0 0 0 .022-.012.11.11 0 0 0-.026-.005Zm.039.003.026-.006c-.003-.014-.015-.021-.024-.025a.136.136 0 0 0-.038-.007.445.445 0 0 0-.105.006.442.442 0 0 0-.102.029.132.132 0 0 0-.032.02c-.008.006-.017.017-.015.032.003.014.016.021.025.025a.17.17 0 0 0 .037.008c.028.002.066 0 .106-.007a.442.442 0 0 0 .101-.028.135.135 0 0 0 .033-.02c.007-.006.017-.017.014-.032l-.026.005Zm-.007.004Zm-.001-.007Zm-.248.042Zm.001.007Z" clip-rule="evenodd"/><path fill="#FC0" fill-rule="evenodd" d="M12.791 5.084s.032-.08.058-.097a.074.074 0 0 1 .086-.003c.019.014.033.041.009.095-.024.055-.05.076-.041.103.008.028.005.043.039.05.034.007.052.002.056-.03.004-.032-.018-.004-.014-.031.003-.027.08-.12.099-.19.018-.066.013-.128-.032-.16-.042-.029-.082-.043-.137-.028-.054.015-.145.096-.145.096l-.082.214.09.028.014-.047Z" clip-rule="evenodd"/><path fill="#000" fill-rule="evenodd" d="M12.991 4.773a.205.205 0 0 1 .07.034c.055.039.057.11.039.18a.484.484 0 0 1-.067.13l-.02.032a.237.237 0 0 0-.01.016v.004a.023.023 0 0 1 .009.009.047.047 0 0 1 .003.026c-.002.019-.01.036-.027.044-.015.007-.033.005-.05.001-.02-.004-.033-.011-.04-.025a.08.08 0 0 1-.008-.019V5.2a.212.212 0 0 0-.003-.012c-.007-.021 0-.04.01-.055l.008-.017a.445.445 0 0 0 .024-.044c.01-.025.012-.041.01-.052a.033.033 0 0 0-.014-.021c-.01-.008-.035-.017-.065.003a.07.07 0 0 0-.015.018.316.316 0 0 0-.031.059l-.004.008-.001.003-.02.063-.124-.039.09-.236.003-.003h.001l.003-.003.012-.01a.973.973 0 0 1 .037-.03.353.353 0 0 1 .099-.056.16.16 0 0 1 .082-.003Zm-.207.126-.074.193.055.017.01-.03v-.002l.001-.003.004-.01A.537.537 0 0 1 12.814 5a.092.092 0 0 1 .131-.03.068.068 0 0 1 .028.043c.004.02 0 .044-.013.074-.009.02-.019.036-.026.049l-.008.013c-.008.015-.009.022-.007.028l.004.015.002.004a.046.046 0 0 0 .003.01c.001.002.003.006.017.009.017.003.025.002.028 0 .002 0 .005-.002.007-.015a.023.023 0 0 1-.008-.006.024.024 0 0 1-.006-.013V5.17c0-.006.003-.013.006-.019a1.176 1.176 0 0 1 .031-.053l.01-.014a.46.46 0 0 0 .053-.106c.017-.065.01-.116-.025-.14a.171.171 0 0 0-.058-.03.125.125 0 0 0-.065.003.327.327 0 0 0-.086.05.934.934 0 0 0-.048.039Z" clip-rule="evenodd"/><path fill="#FC0" fill-rule="evenodd" d="M12.607 5.081s-.007-.085-.026-.11c-.028-.035-.063-.034-.081-.028-.022.007-.044.028-.037.087.006.06.024.088.008.111-.017.024-.018.039-.053.036-.034-.004-.05-.014-.044-.046.006-.032.018.002.023-.025.005-.027-.04-.14-.037-.21.002-.07.026-.127.078-.143.05-.016.091-.018.14.014.046.03.109.134.109.134l.013.23h-.093v-.05Z" clip-rule="evenodd"/><path fill="#000" fill-rule="evenodd" d="M12.507 4.76a.17.17 0 0 0-.063.01c-.041.012-.064.058-.067.126a.46.46 0 0 0 .02.117c0 .006.002.011.004.017a1.125 1.125 0 0 1 .013.06.04.04 0 0 1 0 .019.047.047 0 0 1-.003.012.025.025 0 0 1-.01.01.022.022 0 0 1-.01.004c-.002.012.001.015.002.017.003.002.01.005.027.007.014.001.018-.001.02-.003a.05.05 0 0 0 .006-.009l.002-.003.008-.013c.004-.006.005-.012.002-.029a.123.123 0 0 1-.003-.144.068.068 0 0 1 .04-.032.092.092 0 0 1 .115.068.328.328 0 0 1 .013.071l.001.01v.038h.057l-.011-.206-.008-.013a.862.862 0 0 0-.027-.038.325.325 0 0 0-.067-.074.125.125 0 0 0-.06-.022Zm.195.132.003.004.014.252h-.13v-.069a.907.907 0 0 0-.005-.04.286.286 0 0 0-.008-.035.068.068 0 0 0-.009-.022c-.022-.028-.05-.027-.062-.023a.033.033 0 0 0-.019.017c-.005.009-.009.025-.006.052l.009.05.004.018c.003.018.005.037-.008.055a.174.174 0 0 0-.006.01l-.003.006a.078.078 0 0 1-.013.015c-.011.01-.026.014-.046.012-.018-.001-.036-.005-.048-.017-.014-.013-.015-.03-.012-.05.002-.008.004-.017.011-.023a.023.023 0 0 1 .012-.005v-.005a.235.235 0 0 0-.004-.018l-.01-.037a.486.486 0 0 1-.025-.144c.004-.071.028-.14.092-.16a.206.206 0 0 1 .076-.01.16.16 0 0 1 .079.027.357.357 0 0 1 .076.083l.027.04.008.012.002.004h.001v.001Z" clip-rule="evenodd"/><path fill="#FC0" fill-rule="evenodd" d="M12.829 4.438s-.139.111-.161.228c-.022.117.003.396.003.396l-.011.032.063.016-.001-.037s.136-.271.15-.368c.012-.071-.043-.265-.043-.267Z" clip-rule="evenodd"/><path fill="#000" fill-rule="evenodd" d="m12.835 4.41.01.02v.003l.001.003.002.007.006.023a2.023 2.023 0 0 1 .034.165.301.301 0 0 1 .002.077.558.558 0 0 1-.03.102 2.357 2.357 0 0 1-.117.259.326.326 0 0 0-.004.008l.003.057-.105-.027.015-.047v-.01a2.054 2.054 0 0 1-.01-.142 1.273 1.273 0 0 1 .008-.246.377.377 0 0 1 .093-.166.698.698 0 0 1 .068-.067l.005-.004v-.001h.001l.011.013-.01-.014.017-.014Zm-.016.06v.005a1.848 1.848 0 0 1 .034.16.268.268 0 0 1 .002.068.534.534 0 0 1-.029.094 2.321 2.321 0 0 1-.1.224c-.006.014-.01.025-.015.032l-.004.009-.001.002-.003.005.001.018-.022-.005.006-.018v-.007l-.001-.009-.003-.033a3.539 3.539 0 0 1-.006-.108 1.25 1.25 0 0 1 .007-.237.344.344 0 0 1 .085-.15.672.672 0 0 1 .048-.05Z" clip-rule="evenodd"/><path fill="#FC0" fill-rule="evenodd" d="M12.72 5.143s.022.067.064.11c.045.049.068.057.096.05.021-.007.035-.06.021-.082-.013-.021-.037-.022-.046-.01-.014.022-.022.018-.036.002a3.306 3.306 0 0 1-.065-.08l-.035.01Z" clip-rule="evenodd"/><path fill="#000" fill-rule="evenodd" d="m12.768 5.121.002.003.006.007a2.35 2.35 0 0 0 .061.075l.003-.004a.04.04 0 0 1 .039-.016.054.054 0 0 1 .046.055.105.105 0 0 1-.016.058.045.045 0 0 1-.024.02.072.072 0 0 1-.054-.004.22.22 0 0 1-.06-.049.32.32 0 0 1-.067-.113l-.001-.003.016-.007-.017.006-.006-.017.065-.02.007.01Zm-.025.033a.351.351 0 0 0 .054.088.19.19 0 0 0 .05.041c.01.005.018.005.028.002m-.132-.13.005-.002.017.022a1.446 1.446 0 0 0 .053.061c.004.004.01.008.018.008a.03.03 0 0 0 .02-.007.07.07 0 0 0 .014-.015h.004c.003 0 .008.002.013.009a.026.026 0 0 1 .002.011.07.07 0 0 1-.01.038l-.004.005m-.034-.076Z" clip-rule="evenodd"/><path fill="#FC0" fill-rule="evenodd" d="M12.65 5.13s-.042.057-.095.087c-.057.033-.082.035-.106.019-.018-.012-.016-.068.003-.084.02-.016.043-.01.047.004.008.025.016.023.034.012.026-.016.086-.058.086-.058l.03.02Z" clip-rule="evenodd"/><path fill="#000" fill-rule="evenodd" d="m12.618 5.088.056.038-.01.015-.015-.01.014.01-.002.003a.44.44 0 0 1-.098.09.22.22 0 0 1-.07.028.072.072 0 0 1-.054-.012.045.045 0 0 1-.017-.025.11.11 0 0 1 .002-.06.06.06 0 0 1 .016-.027.054.054 0 0 1 .044-.013c.014.002.027.01.032.026a.26.26 0 0 0 .002.005.086.086 0 0 0 .005-.003m-.01.005Zm.11-.024-.004-.003-.024.016a1.326 1.326 0 0 1-.067.044.033.033 0 0 1-.02.002.03.03 0 0 1-.017-.013.069.069 0 0 1-.009-.018s0-.002-.004-.002c-.003 0-.008 0-.014.005a.025.025 0 0 0-.006.01.07.07 0 0 0-.002.04l.003.006m0 0c.008.006.016.008.028.006a.19.19 0 0 0 .06-.025.288.288 0 0 0 .076-.068m-.004-.025-.01-.014.01-.007m-.01.007.01.014-.01-.014Zm0 0Zm0 0Zm0 0h-.001Zm-.001 0-.002.002.002-.002Zm-.002.002-.007.005.007-.005Zm-.007.005-.024.016.024-.016Zm-.024.016-.052.035.052-.035Z" clip-rule="evenodd"/><path fill="#FC0" d="M12.83 5.14c-.003.02-.069.023-.146.008-.077-.015-.137-.043-.133-.063.003-.02.069-.024.146-.009.077.015.137.043.134.063"/><path fill="#000" fill-rule="evenodd" d="M12.786 5.122a.412.412 0 0 0-.093-.028.406.406 0 0 0-.096-.009.11.11 0 0 0-.025.004.108.108 0 0 0 .022.014.524.524 0 0 0 .189.036c.012 0 .02-.002.026-.004a.113.113 0 0 0-.023-.013Zm.035.016.027.004c.002-.014-.007-.026-.015-.032a.134.134 0 0 0-.032-.02.444.444 0 0 0-.101-.031.44.44 0 0 0-.105-.009.132.132 0 0 0-.037.007c-.01.003-.022.01-.025.025-.003.015.007.026.014.033a.16.16 0 0 0 .032.02.444.444 0 0 0 .101.03.44.44 0 0 0 .106.01.133.133 0 0 0 .037-.007c.009-.003.022-.01.025-.025l-.027-.005Zm-.008.002Zm.001-.007Zm-.246-.048Zm-.002.007Z" clip-rule="evenodd"/><path fill="#CCA715" fill-rule="evenodd" d="M10.737 5.597s.015.063.051.03.532-.228 1.232-.228 1.16.192 1.187.204c.027.012.039.027.063 0s-.024-.069-.024-.069-.487-.207-1.247-.204c-.76.003-1.253.22-1.253.22s-.033.023-.009.047Z" clip-rule="evenodd"/><path fill="#000" fill-rule="evenodd" d="m13.249 5.527-.003.007.005-.006.002.002.006.006c.004.004.01.01.015.018.004.008.009.017.01.026.002.01 0 .02-.008.029a.058.058 0 0 1-.02.015.03.03 0 0 1-.018.002.068.068 0 0 1-.017-.007l-.005-.002a.226.226 0 0 0-.012-.006c-.027-.012-.485-.204-1.184-.204-.35 0-.648.049-.863.102a2.458 2.458 0 0 0-.33.106.337.337 0 0 0-.034.018c-.01.01-.02.014-.03.012a.035.035 0 0 1-.02-.016.088.088 0 0 1-.013-.027.033.033 0 0 1-.01-.022c0-.008.002-.014.006-.02a.057.057 0 0 1 .015-.017l.005.006-.003-.007h.001l.005-.003a.936.936 0 0 1 .083-.031 2.89 2.89 0 0 1 .253-.075c.22-.055.533-.11.914-.111.38-.002.693.05.91.101a2.85 2.85 0 0 1 .334.102l.005.001Zm-2.503.022-.003-.007h-.001l.004.007Zm.004.007c.002 0 .003 0 .005-.002a.674.674 0 0 1 .083-.03c.057-.021.143-.048.251-.075.218-.055.53-.11.91-.11.38-.002.69.049.906.1a2.85 2.85 0 0 1 .336.102l.001.001.005.005.013.016a.049.049 0 0 1 .008.02c.001.005 0 .01-.004.015a.042.042 0 0 1-.014.011.014.014 0 0 1-.009.001.168.168 0 0 1-.017-.007l-.014-.007c-.028-.012-.489-.205-1.19-.205-.35 0-.65.049-.867.102a2.473 2.473 0 0 0-.334.108.366.366 0 0 0-.036.02c-.008.008-.013.008-.016.008-.004 0-.008-.004-.011-.009a.074.074 0 0 1-.01-.022l-.001-.002v-.003l-.002-.001c-.005-.005-.007-.01-.007-.013a.02.02 0 0 1 .003-.01.043.043 0 0 1 .008-.01l.003-.002Zm2.496-.022.005-.006-.002-.001-.003.007Zm-1.621.355s.022-.063.061-.074c.031-.01.08.02.08.02s-.059-.005-.077.006c-.017.01-.022.037-.022.037s.013-.022.058-.02a2.1 2.1 0 0 0 .05.002s-.076.006-.094.028c-.018.022.073.033.073.033s-.139 0-.157-.008c-.018-.008-.03-.037-.06-.028-.031.009-.063.036-.063.036s.035-.059.057-.06a.13.13 0 0 1 .056.008l.038.02ZM11.108 6s.01-.065.046-.084c.03-.015.083.006.083.006s-.06.006-.075.02c-.015.012-.015.04-.015.04s.008-.024.053-.03l.05-.007s-.074.02-.088.045c-.013.025.078.018.078.018s-.136.026-.155.022c-.02-.005-.036-.03-.065-.017a.198.198 0 0 0-.055.048s.024-.065.046-.07c.021-.004.034-.007.055-.002a.649.649 0 0 1 .042.012Zm.952-.134s.027-.061.066-.07c.032-.008.08.025.08.025s-.06-.009-.079 0c-.017.01-.024.037-.024.037s.014-.022.06-.017l.05.005s-.077.001-.096.023c-.02.02.07.036.07.036s-.138-.007-.155-.017c-.018-.01-.028-.038-.06-.031-.03.007-.064.033-.064.033s.039-.057.06-.057c.023.001.036.001.056.011.019.01.037.022.037.022Zm.438.049s.032-.057.073-.062c.032-.004.075.034.075.034s-.057-.015-.077-.008c-.018.006-.028.033-.028.033s.016-.02.06-.01l.05.011s-.077-.007-.098.011c-.022.02.066.045.066.045s-.137-.024-.153-.035c-.016-.011-.023-.041-.055-.038-.032.003-.068.025-.068.025s.045-.052.067-.049c.022.004.035.005.053.017l.035.026Zm.433.077s.03-.043.064-.044c.026-.001.058.033.058.033s-.045-.017-.062-.012c-.015.004-.025.024-.025.024s.015-.014.05-.003l.038.012s-.06-.011-.08.002c-.018.013.05.04.05.04s-.107-.028-.12-.039c-.012-.01-.015-.034-.041-.034-.026 0-.056.015-.056.015s.04-.039.057-.034c.017.004.028.006.041.017l.026.023Z" clip-rule="evenodd"/><path fill="#0F6545" d="M11.537 5.593c.01.052-.05.107-.135.125-.086.017-.163-.011-.174-.063-.01-.052.05-.108.136-.125.085-.017.163.011.173.063Z"/><path fill="#000" fill-rule="evenodd" d="M11.475 5.546a.208.208 0 0 0-.109-.005.208.208 0 0 0-.098.046c-.024.021-.033.045-.03.066.005.02.023.038.052.049a.22.22 0 0 0 .11.005.208.208 0 0 0 .098-.047c.023-.021.033-.044.029-.065-.004-.02-.022-.039-.052-.05Zm.073.045c-.006-.031-.032-.054-.065-.066a.23.23 0 0 0-.121-.006.229.229 0 0 0-.109.052c-.026.024-.042.055-.035.086.006.03.032.053.065.065a.23.23 0 0 0 .12.006.23.23 0 0 0 .11-.052c.026-.024.041-.054.035-.085Z" clip-rule="evenodd"/><path fill="#CECFC1" d="M11.344 5.584c.003.013-.01.026-.03.03-.018.004-.035-.003-.038-.016-.002-.013.01-.026.03-.03.019-.003.036.004.038.016Z"/><path fill="#0F6545" d="M12.745 5.655c-.016.05-.096.07-.179.044-.083-.026-.138-.088-.122-.138.016-.05.096-.07.18-.044.082.026.137.088.121.138Z"/><path fill="#000" fill-rule="evenodd" d="M12.511 5.52c-.03.008-.05.024-.056.044-.007.02 0 .045.021.068.02.023.053.044.093.057.04.013.08.014.11.007.03-.008.05-.024.056-.044.006-.02 0-.044-.022-.068a.208.208 0 0 0-.093-.057l.003-.01-.003.01a.208.208 0 0 0-.109-.006Zm-.005-.02a.23.23 0 0 1 .12.007.23.23 0 0 1 .104.063c.023.027.035.058.026.089m-.25-.16c-.034.01-.063.029-.072.059l.072-.058Z" clip-rule="evenodd"/><path fill="#CECFC1" d="M12.58 5.555c-.004.012-.022.017-.04.011-.019-.005-.03-.02-.027-.032.004-.012.022-.017.04-.012.019.006.03.02.027.033Z"/><path fill="#1F2D86" d="M12.146 5.476h-.313v.158h.313v-.158Z"/><path fill="#000" fill-rule="evenodd" d="M11.818 5.476c0-.008.007-.015.016-.015h.313c.008 0 .015.007.015.015v.158a.015.015 0 0 1-.015.015h-.313a.015.015 0 0 1-.016-.015v-.158Zm.031.015v.128h.282V5.49h-.282Z" clip-rule="evenodd"/><path fill="#707C8B" d="M11.965 5.51c0 .007-.013.013-.03.013-.016 0-.03-.006-.03-.013 0-.007.014-.013.03-.013.017 0 .03.006.03.013Z"/><path fill="#9F1209" fill-rule="evenodd" d="m10.949 5.634.052.153-.096.051s-.044.031-.088.008-.07-.093-.046-.122c.046-.056.178-.093.178-.09Z" clip-rule="evenodd"/><path fill="#000" fill-rule="evenodd" d="M10.777 5.73a.275.275 0 0 1 .103-.066l-.104.066Zm.103-.066a.568.568 0 0 1 .05-.017l-.05.017Zm.05-.017a.297.297 0 0 1 .013-.004l-.013.004Zm.01-.011.001.001v-.001Zm.003.007.048.14-.09.048-.001.001h-.002a.1.1 0 0 1-.024.01.071.071 0 0 1-.053-.003.104.104 0 0 1-.051-.087c0-.01.002-.017.007-.022m.132.115-.002.001a.117.117 0 0 1-.027.012.087.087 0 0 1-.067-.005.12.12 0 0 1-.06-.1c0-.013.004-.025.011-.034a.291.291 0 0 1 .11-.07.587.587 0 0 1 .077-.023s.005.002.006.006l.053.158-.101.055Z" clip-rule="evenodd"/><path fill="#8F322F" d="M10.869 5.743c0 .025-.02.046-.044.046a.045.045 0 0 1-.044-.046c0-.026.02-.047.044-.047.024 0 .044.02.044.047Z"/><path fill="#E2A494" d="M10.827 5.724a.026.026 0 0 1-.005.022.013.013 0 0 1-.017.002.026.026 0 0 1-.011-.018.026.026 0 0 1 .005-.022.013.013 0 0 1 .017-.002c.005.003.01.01.011.018Z"/><path fill="#9F1209" fill-rule="evenodd" d="m13.046 5.654-.051.136.122.064s.053.024.087-.006c.03-.026.036-.085.013-.115a.712.712 0 0 0-.171-.08Z" clip-rule="evenodd"/><path fill="#000" fill-rule="evenodd" d="M13.207 5.715a.068.068 0 0 1 .016.013.09.09 0 0 1 .015.065.095.095 0 0 1-.029.06.078.078 0 0 1-.063.017.136.136 0 0 1-.03-.008h-.002V5.86h-.001l.003-.007-.003.007-.129-.067.054-.143a.015.015 0 0 1 .008-.004h.003l.005.002a1.14 1.14 0 0 1 .153.067Zm-.087.131.002.001a.118.118 0 0 0 .027.007c.016.002.035 0 .05-.012a.08.08 0 0 0 .023-.05.075.075 0 0 0-.012-.054.052.052 0 0 0-.012-.01.778.778 0 0 0-.148-.065l-.045.123.115.06Z" clip-rule="evenodd"/><path fill="#AA675D" d="M13.192 5.763c0 .016-.018.03-.04.03-.02 0-.038-.014-.038-.03 0-.017.017-.03.039-.03.021 0 .039.013.039.03Z"/><path fill="#E2A494" d="M13.155 5.758a.024.024 0 0 1-.01.02.015.015 0 0 1-.018 0 .024.024 0 0 1-.009-.02c0-.008.004-.015.01-.02a.015.015 0 0 1 .018 0 .029.029 0 0 1 .009.02Z"/><path fill="#F5D8BC" d="M12.264 5.49c0 .011-.01.02-.022.02a.022.022 0 0 1-.022-.02c0-.012.01-.021.022-.021.012 0 .022.009.022.02Zm.133.007c0 .012-.01.021-.022.021a.022.022 0 0 1-.022-.02c0-.012.01-.022.022-.022.012 0 .022.01.022.021Zm-.067.052a.027.027 0 0 1-.028.026.027.027 0 0 1-.028-.026c0-.015.012-.026.028-.026.015 0 .027.011.027.026Zm.064.087c0 .012-.01.021-.022.021a.022.022 0 0 1-.022-.021c0-.012.01-.021.022-.021.012 0 .022.01.022.021Zm-.129-.016c0 .011-.01.02-.022.02a.022.022 0 0 1-.022-.02c0-.012.01-.022.022-.022.012 0 .022.01.022.021Zm-.644-.108a.022.022 0 0 1-.016.026.022.022 0 0 1-.027-.016.021.021 0 0 1 .017-.025.022.022 0 0 1 .026.015Zm.132-.022a.021.021 0 0 1-.017.025.022.022 0 0 1-.026-.015.022.022 0 0 1 .016-.026.022.022 0 0 1 .027.016Zm-.054.065a.027.027 0 0 1-.021.032.027.027 0 0 1-.033-.02.027.027 0 0 1 .02-.031.027.027 0 0 1 .034.02Zm.082.07a.022.022 0 0 1-.017.026.022.022 0 0 1-.026-.016.022.022 0 0 1 .017-.025.022.022 0 0 1 .026.015Zm-.129.013a.022.022 0 0 1-.017.026.022.022 0 0 1-.026-.016.022.022 0 0 1 .017-.025.022.022 0 0 1 .026.015Zm-.592-.004a.022.022 0 0 1-.013.027.022.022 0 0 1-.028-.012.022.022 0 0 1 .013-.027.021.021 0 0 1 .028.012Zm.127-.042a.022.022 0 0 1-.013.028.022.022 0 0 1-.028-.012.022.022 0 0 1 .013-.027.022.022 0 0 1 .028.011Zm-.044.073a.027.027 0 0 1-.017.035.027.027 0 0 1-.035-.015.027.027 0 0 1 .016-.034.027.027 0 0 1 .036.014Zm.091.058a.022.022 0 0 1-.013.027.022.022 0 0 1-.028-.011.021.021 0 0 1 .013-.028.022.022 0 0 1 .028.012Zm-.126.031a.022.022 0 0 1-.013.028.022.022 0 0 1-.028-.012.022.022 0 0 1 .013-.028.022.022 0 0 1 .028.012Zm1.734-.182a.023.023 0 0 1-.028.017.023.023 0 0 1-.018-.028.023.023 0 0 1 .029-.016c.013.003.02.015.018.027Zm.138.043a.023.023 0 0 1-.029.016.023.023 0 0 1-.017-.028.023.023 0 0 1 .028-.016c.013.003.02.016.018.028Zm-.084.036a.03.03 0 0 1-.036.021.03.03 0 0 1-.022-.035.03.03 0 0 1 .036-.02.03.03 0 0 1 .022.034Zm.045.108a.023.023 0 0 1-.028.016.023.023 0 0 1-.018-.027.023.023 0 0 1 .028-.017.024.024 0 0 1 .018.028Zm-.131-.05a.023.023 0 0 1-.028.016.023.023 0 0 1-.017-.028.023.023 0 0 1 .028-.016c.013.003.02.015.018.028Z"/><path fill="#000" fill-rule="evenodd" d="M12.84 4.33Zm0 0Zm0 0Zm0 0Zm0 0v-.002.002Zm0-.002c0-.003 0-.008.002-.014l-.003.014Zm.002-.014a.106.106 0 0 1 .007-.015l-.007.015Zm.007-.015a.192.192 0 0 1 .003-.005l-.003.005Zm.003-.005v-.001.001Zm0-.001Zm0 0-.014-.01.015.01Zm-.014-.01-.016-.011.016.01Zm-.016-.011Zm0 0Zm0 0Zm0 0-.002.003.002-.002Zm-.002.003-.003.006.003-.006Zm-.003.006a.14.14 0 0 0-.01.02l.01-.02Zm-.01.02a.076.076 0 0 0-.005.029l.005-.028Zm-.005.029c0 .01.005.023.017.03l-.017-.03Zm.296-.01a7.328 7.328 0 0 0 .025.027v.001l-.003.002a.25.25 0 0 1-.041.03.215.215 0 0 1-.107.032c-.077 0-.124-.032-.15-.049l-.003-.002m.279-.04Zm0 0Zm0 0-.002.001.002-.001Zm-.002.001-.008.006.008-.006Zm-.008.006a.257.257 0 0 1-.028.02l.028-.02Zm-.028.02a.179.179 0 0 1-.088.026l.088-.027Zm-.088.026a.214.214 0 0 1-.129-.042l.13.042Zm-.129-.042a.075.075 0 0 1-.003-.002l.003.002Zm-1.25.048a.069.069 0 0 0 .031.02.972.972 0 0 0 .141.032l.014.003h.004l-.005.034h-.001l-.004-.001a2.899 2.899 0 0 1-.16-.035.104.104 0 0 1-.044-.03c-.002 0-.003-.002-.005-.003a.032.032 0 0 0-.011-.008.06.06 0 0 0-.024-.002.111.111 0 0 0-.065.026.054.054 0 0 0-.019.053c.005.023.015.034.026.039.011.005.026.005.044 0 .009-.003.013-.012.01-.024-.002-.01-.011-.02-.028-.019a.038.038 0 0 0-.009.002.046.046 0 0 0 .007.011.102.102 0 0 0 .004.005h.001l-.012.013-.012.012v-.001l-.002-.002a.1.1 0 0 1-.017-.025c-.003-.008-.006-.02.002-.032.008-.011.021-.015.036-.017a.059.059 0 0 1 .063.045c.006.024-.003.054-.033.064a.097.097 0 0 1-.068-.002c-.023-.01-.038-.03-.045-.062a.087.087 0 0 1 .03-.085.145.145 0 0 1 .084-.035.092.092 0 0 1 .038.004.09.09 0 0 1 .024.015l.005.005Zm-.398-.143a.069.069 0 0 1 .023.014l-.011.011.011-.011a.082.082 0 0 1 .02.042.121.121 0 0 1 0 .044" clip-rule="evenodd"/></g></g><rect width="23" height="17" x=".5" y=".5" stroke="#000" stroke-opacity=".1" rx="1.5"/><defs><clipPath id="a"><rect width="24" height="18" fill="#fff" rx="2"/></clipPath></defs></svg>