<svg xmlns="http://www.w3.org/2000/svg" fill="none" viewBox="0 0 24 18"><g clip-path="url(#a)"><mask id="b" width="24" height="18" x="0" y="0" maskUnits="userSpaceOnUse" style="mask-type:luminance"><path fill="#fff" d="M0 0h24v18H0z"/></mask><g mask="url(#b)"><path fill="#F7FCFF" fill-rule="evenodd" d="M0 0h24v18H0V0Z" clip-rule="evenodd"/><path fill="#F7FCFF" stroke="#E31D1C" stroke-width="2.7" d="M-1.851.645-3.9-.594v19.788l2.049-1.239 12.403-7.5 1.91-1.155-1.91-1.155-12.403-7.5Z"/><path fill="#F7FCFF" stroke="#E31D1C" stroke-width="2.7" d="m30.92-1.767 2.029-1.178v24.69l-2.028-1.178-17.219-10-2.01-1.167 2.01-1.167 17.219-10Z"/><path fill="#E31D1C" fill-rule="evenodd" d="M9.675 1.703S8.816 5.501 11.78 6.96c0 0 2.846-1.551 2.207-5.257 0 0-1.223-.409-2.195-.409-.971 0-2.118.41-2.118.41Z" clip-rule="evenodd"/><path fill="#FFD100" fill-rule="evenodd" d="M9.982 2.499s.318-.14.475 0c.156.14.285-.012.285-.097 0-.084.25-.375.25-.14 0 .237-.078.37.14.37.22 0 1.206-.326 1.443-.23.236.097.417.073.357-.066-.06-.138-.214-.224-.512-.149-.297.076-.227.15-.485.15-.257 0-.543-.074-.543-.074s.08-.124.374-.036.699-.11.809-.11c.11 0 .413-.005.443.07.03.076.213.145.074.215-.14.07-.37.115-.212.205.159.09.523.072.54.166.018.094.19.234.121.234s-.194.132-.31.092c-.117-.04-.13-.076-.02-.108.112-.033.111-.17.02-.17-.093 0-.048.048-.258 0-.21-.048-.487-.101-.47 0 .016.101.153.257-.1.278-.251.02-.37.104-.418.037-.05-.067-.225-.157-.087-.185.138-.029.27.097.32.076.049-.02.162-.032.067-.119-.094-.087-.25-.138-.105-.203.144-.066.03-.067-.245.068-.274.135-.427.25-.668.234-.24-.016-.331.005-.409-.016-.077-.022-.455.242-.563.175-.109-.067-.46-.093-.396-.175.063-.083.147-.125.242-.083.094.043.188.085.252.043.063-.043.247-.188.201-.217-.046-.03-.001-.127-.263-.127s-.354.109-.416.04c-.063-.069.067-.148.067-.148Zm.262 1.248s.279-.124.417 0c.138.123.25-.01.25-.085 0-.074.22-.33.22-.123 0 .208-.068.325.124.325.193 0 1.06-.287 1.268-.202.208.085.367.064.315-.058-.053-.121-.19-.197-.45-.13-.262.065-.2.13-.427.13-.226 0-.478-.065-.478-.065s.071-.109.33-.031c.257.077.613-.096.71-.096.097 0 .364-.005.39.061.027.066.187.127.065.19-.123.06-.325.1-.186.179.14.079.46.064.475.146.015.083.167.206.106.206-.061 0-.171.116-.273.08-.103-.035-.115-.066-.017-.095.098-.028.098-.149.017-.149-.082 0-.042.042-.226 0-.185-.042-.43-.089-.414 0 .014.09.134.226-.087.244-.222.018-.326.092-.369.033-.043-.06-.197-.138-.076-.163.121-.025.237.086.281.068.044-.018.143-.028.06-.105-.083-.077-.22-.122-.093-.18.127-.056.027-.058-.215.061-.241.119-.376.22-.587.206-.212-.015-.292.005-.36-.015-.068-.019-.4.213-.495.154-.096-.059-.404-.081-.349-.154.056-.072.13-.11.213-.072.083.037.166.074.222.037.056-.037.218-.165.177-.19-.04-.026-.001-.112-.232-.112-.23 0-.31.096-.366.035-.054-.06.06-.13.06-.13Zm.37 1.267s.212-.094.316 0c.105.093.19-.008.19-.065 0-.056.167-.25.167-.093 0 .158-.052.246.094.246s.804-.217.961-.153c.158.065.279.049.239-.044-.04-.092-.143-.15-.342-.099-.198.05-.151.1-.323.1-.171 0-.362-.05-.362-.05s.054-.082.25-.024c.195.06.465-.072.538-.072.074 0 .276-.004.296.046.02.05.142.096.05.143-.094.047-.247.077-.142.137.106.06.349.048.36.11.012.063.127.156.08.156-.045 0-.129.088-.207.062-.077-.027-.086-.05-.012-.072.075-.022.074-.113.013-.113-.062 0-.032.032-.172 0-.14-.032-.325-.068-.314 0 .011.067.102.17-.066.185-.168.013-.246.069-.279.024-.033-.044-.15-.104-.058-.123.092-.02.18.065.213.051.033-.014.108-.021.046-.08-.063-.057-.167-.092-.07-.135.095-.044.02-.044-.164.046-.183.09-.285.166-.445.155-.161-.01-.221.004-.273-.01-.052-.015-.303.16-.376.116-.072-.044-.306-.062-.264-.116.042-.055.099-.084.162-.055.063.028.125.056.168.028.042-.028.165-.125.134-.145-.03-.02-.001-.084-.176-.084-.174 0-.236.072-.277.027-.042-.046.045-.1.045-.1Z" clip-rule="evenodd"/></g></g><path stroke="#000" stroke-opacity=".1" stroke-width=".5" d="M.25.25h23.5v17.5H.25z"/><defs><clipPath id="a"><path fill="#fff" d="M0 0h24v18H0z"/></clipPath></defs></svg>