<svg xmlns="http://www.w3.org/2000/svg" fill="none" viewBox="0 0 24 18"><g clip-path="url(#a)"><mask id="b" width="24" height="18" x="0" y="0" maskUnits="userSpaceOnUse" style="mask-type:luminance"><path fill="#fff" d="M0 0h24v18H0z"/></mask><g mask="url(#b)"><path fill="#C51918" fill-rule="evenodd" d="M0 0h24v18H0z" clip-rule="evenodd"/><path fill="#4564F9" fill-rule="evenodd" d="M3 3h18v12H3z" clip-rule="evenodd"/><path stroke="#CBDAFF" stroke-opacity=".1" stroke-width="2" d="M20 4v10H4V4z"/><mask id="c" width="18" height="12" x="3" y="3" maskUnits="userSpaceOnUse" style="mask-type:luminance"><path fill="#fff" fill-rule="evenodd" d="M3 3h18v12H3z" clip-rule="evenodd"/><path stroke="#fff" stroke-width="2" d="M20 4v10H4V4z"/></mask><g mask="url(#c)"><path stroke="#C1C9F1" stroke-opacity=".118" stroke-width="2.9" d="m12.375 14.25-.72 1.259.706.404.713-.393zm0 0 .7 1.27h.001l.002-.001.02-.012.047-.027q.06-.033.158-.093a13.3 13.3 0 0 0 2.125-1.608c1.111-1.039 2.522-2.76 2.522-4.965 0-2.232-1.44-3.867-2.577-4.827a12 12 0 0 0-2.366-1.543l-.016-.006-.008-.004c-.003.003-.033.068-.608 1.316l.606-1.317-.62-.286-.616.297.425.881-.426-.88h-.003l-.005.003-.015.008-.048.024-.16.084A12.4 12.4 0 0 0 9.37 4.028C8.25 4.985 6.8 6.62 6.8 8.813c0 2.165 1.42 3.888 2.517 4.925a14 14 0 0 0 2.113 1.633q.099.062.157.096l.046.027.02.012h.002c.003-.003.045-.075.721-1.257Z"/><path fill="#CCE0E5" d="m12.3 13.439-.805 1.206.79.526.798-.513zm0 0 .784 1.219h.001l.002-.002.005-.003.012-.008.039-.026.123-.085a10.5 10.5 0 0 0 1.603-1.415c.845-.921 1.881-2.414 1.881-4.294 0-1.902-1.059-3.327-1.933-4.188a9 9 0 0 0-1.641-1.277l-.167-.097-.014-.008q-.002 0-.005-.003h-.002c-.003.002-.038.066-.688 1.276m0 8.91-.806 1.206v-.001l-.003-.001-.004-.003-.012-.008-.037-.026-.122-.086a11 11 0 0 1-1.59-1.434c-.834-.919-1.876-2.413-1.876-4.26 0-1.87 1.065-3.296 1.925-4.154A9.6 9.6 0 0 1 11.527 3.3q.024-.015.04-.022l.013-.008.005-.003.002-.001v-.001c.001 0 .011.017.713 1.264m0 0 .686-1.278-.702-.378-.695.392z"/><path stroke="#C1C9F1" stroke-opacity=".748" stroke-width="2.9" d="m12.3 13.439-.805 1.206.79.526.798-.513zm0 0 .784 1.219h.001l.002-.002.005-.003.012-.008.039-.026.123-.085a10.5 10.5 0 0 0 1.603-1.415c.845-.921 1.881-2.414 1.881-4.294 0-1.902-1.059-3.327-1.933-4.188a9 9 0 0 0-1.641-1.277l-.167-.097-.014-.008q-.002 0-.005-.003h-.002c-.003.002-.038.066-.688 1.276m0 8.91-.806 1.206v-.001l-.003-.001-.004-.003-.012-.008-.037-.026-.122-.086a11 11 0 0 1-1.59-1.434c-.834-.919-1.876-2.413-1.876-4.26 0-1.87 1.065-3.296 1.925-4.154A9.6 9.6 0 0 1 11.527 3.3q.024-.015.04-.022l.013-.008.005-.003.002-.001v-.001c.001 0 .011.017.713 1.264m0 0 .686-1.278-.702-.378-.695.392z"/><path stroke="#C51918" stroke-width="2.9" d="m12.3 13.439-.805 1.206.79.526.798-.513zm0 0 .784 1.219h.001l.002-.002.005-.003.012-.008.039-.026.123-.085a10.5 10.5 0 0 0 1.603-1.415c.845-.921 1.881-2.414 1.881-4.294 0-1.902-1.059-3.327-1.933-4.188a9 9 0 0 0-1.641-1.277l-.167-.097-.014-.008q-.002 0-.005-.003h-.002c-.003.002-.038.066-.688 1.276m0 8.91-.806 1.206v-.001l-.003-.001-.004-.003-.012-.008-.037-.026-.122-.086a11 11 0 0 1-1.59-1.434c-.834-.919-1.876-2.413-1.876-4.26 0-1.87 1.065-3.296 1.925-4.154A9.6 9.6 0 0 1 11.527 3.3q.024-.015.04-.022l.013-.008.005-.003.002-.001v-.001c.001 0 .011.017.713 1.264m0 0 .686-1.278-.702-.378-.695.392z"/><mask id="d" width="7" height="10" x="9" y="4" maskUnits="userSpaceOnUse" style="mask-type:luminance"><path fill="#fff" d="m13.108 12.235-.004-.002h.002zm-.796-5.949c.15.12.31.26.47.416.626.617 1.068 1.341 1.068 2.123 0 .807-.464 1.62-1.119 2.333a7 7 0 0 1-.421.42 8 8 0 0 1-.436-.441c-.667-.735-1.124-1.548-1.124-2.312 0-.738.434-1.462 1.074-2.1a6 6 0 0 1 .488-.439m.702-.497-.002.002h-.001l.005-.003z"/><path stroke="#fff" stroke-width="2.9" d="m13.108 12.235-.004-.002h.002zm-.796-5.949c.15.12.31.26.47.416.626.617 1.068 1.341 1.068 2.123 0 .807-.464 1.62-1.119 2.333a7 7 0 0 1-.421.42 8 8 0 0 1-.436-.441c-.667-.735-1.124-1.548-1.124-2.312 0-.738.434-1.462 1.074-2.1a6 6 0 0 1 .488-.439Zm.702-.497-.002.002h-.001l.005-.003z"/></mask><g mask="url(#d)"><path fill="#91CBCB" d="M9.7 10.5h5.6v1.125H9.7z"/><path fill="#FDF9A1" fill-rule="evenodd" d="M10.201 11.399s3.97 0 4.336-.136c.365-.137-.686 2.63-2.027 2.63s-2.31-2.495-2.31-2.495" clip-rule="evenodd"/><path fill="#A68861" d="m13.945 11.066-.713.55c-1.124-1.462-1.596-2.973-1.394-4.515l.892.116c-.168 1.292.23 2.569 1.215 3.85"/><path fill="#239E46" fill-rule="evenodd" d="m12.295 7.228-.647.758c-.034.04-.099.007-.087-.044l.223-.944h-1.005c-.054 0-.07-.074-.02-.096l.855-.375-.62-.816c-.03-.04.012-.095.059-.077l.974.38.22-.883c.012-.051.084-.051.097 0l.218.883.962-.374c.048-.019.09.038.057.078l-.667.81.904.374c.05.02.035.096-.02.096h-.884l.138.974a.05.05 0 0 1-.088.04zM11.7 9.75h3.6v.787h-3.6z" clip-rule="evenodd"/><path fill="#C51918" fill-rule="evenodd" d="M11.154 9.294h-.003a.17.17 0 0 1-.077.097.3.3 0 0 1-.156.038.4.4 0 0 1-.141-.028.3.3 0 0 1-.11-.081.4.4 0 0 1-.071-.134.6.6 0 0 1-.026-.183q0-.104.025-.183a.4.4 0 0 1 .072-.133.3.3 0 0 1 .113-.082.4.4 0 0 1 .146-.029q.112 0 .189.05.075.05.116.131l-.083.05a.23.23 0 0 0-.086-.104.24.24 0 0 0-.136-.038.3.3 0 0 0-.1.02.23.23 0 0 0-.13.14.3.3 0 0 0-.018.11v.134q0 .06.018.111a.22.22 0 0 0 .132.14q.048.02.108.02a.3.3 0 0 0 .082-.01.2.2 0 0 0 .068-.034.16.16 0 0 0 .063-.136v-.082h-.184v-.087h.283v.424h-.094zm.627-.704v.51q0 .12.044.18.045.06.156.06t.156-.06.044-.18v-.51h.101v.487q0 .09-.016.156a.3.3 0 0 1-.052.11.2.2 0 0 1-.094.065.4.4 0 0 1-.143.021.4.4 0 0 1-.14-.021.2.2 0 0 1-.092-.065.3.3 0 0 1-.05-.11.7.7 0 0 1-.015-.156V8.59zm1.467.825-.084-.243h-.338l-.084.243h-.102l.293-.825h.128l.293.825zm-.25-.732h-.007l-.141.401h.289zm1.388.037h-.006l-.071.139-.2.359-.2-.36-.072-.138h-.006v.695h-.098V8.59h.134l.24.445h.006l.242-.445h.13v.825h-.1z" clip-rule="evenodd"/></g></g></g></g><rect width="23" height="17" x=".5" y=".5" stroke="#000" stroke-opacity=".1" rx="1.5"/><defs><clipPath id="a"><rect width="24" height="18" fill="#fff" rx="2"/></clipPath></defs></svg>