<svg xmlns="http://www.w3.org/2000/svg" fill="none" viewBox="0 0 24 18"><g clip-path="url(#a)"><mask id="b" width="24" height="18" x="0" y="0" maskUnits="userSpaceOnUse" style="mask-type:luminance"><path fill="#fff" d="M0 0h24v18H0z"/></mask><g mask="url(#b)"><path fill="#FFD221" fill-rule="evenodd" d="M0 0v18h24V0H0Z" clip-rule="evenodd"/><mask id="c" width="24" height="18" x="0" y="0" maskUnits="userSpaceOnUse" style="mask-type:luminance"><path fill="#fff" fill-rule="evenodd" d="M0 0v18h24V0H0Z" clip-rule="evenodd"/></mask><g mask="url(#c)"><path fill="#313131" d="m-2.3 7.961 1.506-3.434 26.12 11.454-1.506 3.434L-2.3 7.961Z"/><path fill="#FAF9F9" d="M-2.263 4.177-.758.743l27.42 12.017-1.506 3.435L-2.263 4.177Z"/><path fill="#CF1225" fill-rule="evenodd" d="M5.498 9.298c-1.064-1.306-.886-2.189-.886-2.189s1.089.04 1.077.742c0 .297.39.578.727.82.254.183.478.344.478.472 0 .299.225 3.307.225 3.307s-.157.274-.909.274-.712-.433-.712-.433c.456-.558 0-2.993 0-2.993Zm13.004 0c1.064-1.306.886-2.189.886-2.189s-1.089.04-1.076.742c0 .297-.39.578-.727.82-.255.183-.479.344-.479.472 0 .299-.224 3.307-.224 3.307s.157.274.908.274c.752 0 .712-.433.712-.433-.455-.558 0-2.993 0-2.993ZM12.06-.125l1.127.804-.739.197.739.639-.92-.233v.644h.92l.307 1.512-.356-.252-.355.252-.356-.252-.356.252-.367-.252-.366.252-.366-.252-.367.252.462-1.512h.85V-.125h.143Zm5.025 5.076s-.343.304-1.08 0c-.246-.101-.516-.278-.797-.463-.561-.37-1.168-.768-1.727-.658-.84.167-1.212.567-1.212.567v-.922h-.361v.922s-.373-.4-1.212-.567c-.559-.11-1.166.289-1.727.658-.282.185-.552.362-.798.463-.736.304-1.08 0-1.08 0s0 .257.548.653c.238.172.51.16.74.09-.17.13-.254.282.02.404.565.252 1.496-.412 1.598-.487-.114.085-1.238.93-.723.93.543 0 1.422-.71 1.422-.71s-1.067 1.023-.493 1.182c.365.102.801-.43 1.006-.746.007.067.068.108.136.153.085.057.18.12.18.252 0 .169.042.198.08.223.028.02.053.038.053.118v.233l-.133.196s0 .305.133.547c.101.184.05.338-.04.603-.028.084-.06.18-.093.292-.132.461.133 1.249.133 1.249h-.133s.133.097.133.485c0 .316-.088.496-.254.835l-.126.26c-.248.525.247 1.193.247 1.193s-.83-.365-.663 0c.128.28.829.551 1.147.662v.053l.08-.026.078.026v-.053c.319-.11 1.02-.383 1.147-.662.167-.365-.663 0-.663 0s.495-.668.248-1.193a17.998 17.998 0 0 0-.126-.26c-.167-.34-.255-.519-.255-.835 0-.388.133-.485.133-.485h-.133s.266-.788.133-1.249c-.032-.112-.065-.208-.093-.292-.089-.265-.14-.42-.04-.603.133-.242.133-.547.133-.547l-.133-.196v-.233c0-.08.026-.098.054-.118.037-.025.079-.054.079-.223 0-.132.095-.195.18-.252.068-.045.13-.086.136-.153.205.315.641.848 1.006.746.574-.16-.492-1.183-.492-1.183s.879.711 1.421.711c.516 0-.609-.845-.723-.93.102.075 1.033.739 1.6.487.272-.122.19-.274.018-.403.231.069.503.081.74-.09.548-.397.548-.654.548-.654Zm-1.824.467s.234.186.536.277a2.518 2.518 0 0 0-.536-.277Zm-2.362.68c-.09-.12-.049-.011.068.17.004-.044-.014-.098-.069-.17Zm-1.621 0c.09-.12.048-.011-.069.17-.004-.044.015-.098.069-.17Zm-1.272-.494-.009.007.01-.007Zm-1.09-.186s-.234.186-.536.277c.204-.155.535-.277.535-.277Z" clip-rule="evenodd"/><path fill="#CF1225" fill-rule="evenodd" d="M7.23 6.578S6.035 8.202 6.167 9.936c.133 1.735 1.549 5.771 5.748 5.771h.107c4.45 0 5.713-4.45 5.713-6.051 0-1.614-1.007-3.078-1.007-3.078s.118 2.166 0 3.078c-.355 2.75-2.087 4.02-4.735 4.02-2.665 0-4.313-1.318-4.765-4.02-.146-.874 0-3.078 0-3.078Z" clip-rule="evenodd"/><path fill="#CF1225" fill-rule="evenodd" d="M6.8 14.813s.162-.465.361-.465c.2 0-.382-.404 0-.518.383-.114.97.455.97-.114 0-.57-.497-.88-.131-.88.365 0 .747-.11.747-.11s1.554 1.622 3.111 1.622c1.557 0 3.429-1.513 3.429-1.513s.69-.175.69.099c0 .273-.152.686-.152.686s.484-.095.73 0c.245.096 0 .552 0 .552v.176s.64-.14.64.111c0 .252-.31.109-.935.18-.626.072-.864.562-1.257.562-.393 0-.478-.388-.478-.388s-1.219.661-2.667.661c-1.448 0-2.323-.66-2.323-.66s.137.678-.326.532c-.462-.145-.936-1.067-1.492-.887-.556.18-.918.354-.918.354Z" clip-rule="evenodd"/><path fill="#F6E017" fill-rule="evenodd" d="M8.062 13.165c.036-.034.073-.072.121-.124.136-.148.173-.187.201-.205.006.025.01.066.01.123 0 .377.013.661.05.859.026.14.062.232.126.275.094.064.188.008.275-.123.2-.301.578-.338.578-.224 0 .03-.012.062-.085.242l-.032.08c-.051.136-.074.233-.063.319.016.127.11.198.262.198.168 0 .28-.109.402-.324l.057-.104.007-.011a.92.92 0 0 1 .054-.089c.044-.062.054-.057.153.177a46.265 46.265 0 0 1 .205.495c.065.153.11.243.159.306.11.145.242.144.399.01.03-.027.066-.053.106-.081l.118-.077.103-.067c.091-.064.136-.114.136-.188-.002-.093-.08-.152-.235-.21a1.035 1.035 0 0 1-.072-.03.234.234 0 0 0-.028-.012c.004 0 .01-.003.018-.008l.008-.004c.098-.048.295-.084.47-.084h.002c.008 0 .013 0 .016.003.004.003.004.012.003.035v.003a1.187 1.187 0 0 1-.056.267l-.015.057c-.049.191-.063.307-.029.407.05.146.191.197.41.153.296-.058.44-.176.478-.356a.663.663 0 0 0 .012-.15c0-.117 0-.118.1-.118.14 0 .197.05.256.19l.021.05c.07.167.134.239.278.239.097 0 .164-.04.152-.134a.229.229 0 0 0-.026-.074l-.011-.023-.021-.04c-.09-.184-.054-.324.254-.521.088-.057.225-.152.342-.235l.202-.14c.003.026.006.06.008.11l.005.132.002.065c.013.334.083.64.185.765.172.21.338.016.45-.447.109-.444.263-.862.414-1.116.073-.125.142-.203.195-.226.035-.016.06-.005.095.06.136.247.345.476.522.544.262.101.418-.111.418-.585 0-.396.064-.713.171-.957a1.18 1.18 0 0 1 .114-.207.482.482 0 0 1 .046-.058l-.113-.122a1.05 1.05 0 0 0-.197.318c-.116.266-.185.606-.185 1.026 0 .374-.073.475-.196.428-.134-.052-.318-.254-.437-.47-.074-.134-.185-.185-.304-.131-.09.04-.18.14-.27.292-.16.27-.32.704-.431 1.163-.049.2-.1.326-.167.38-.071-.088-.134-.364-.146-.664l-.002-.063-.005-.134a1.348 1.348 0 0 0-.011-.138c-.017-.108-.071-.172-.17-.146-.038.01-.223.139-.39.254a7.353 7.353 0 0 1-.232.159c-.38.244-.44.479-.314.739l.01.02c-.03-.014-.051-.05-.084-.129a8.253 8.253 0 0 0-.022-.052c-.083-.194-.19-.29-.406-.29-.209 0-.264.088-.264.285a.53.53 0 0 1-.008.115c-.022.107-.112.18-.35.227-.147.03-.205.009-.223-.044-.019-.056-.008-.15.033-.308l.014-.056c.049-.18.06-.234.062-.308.003-.126-.059-.212-.184-.212-.199 0-.42.04-.542.1-.202.101-.162.27.089.364.05.018.082.034.102.044.014.006.021.01.024.01a.072.072 0 0 0-.014.01l-.05.037-.09.06h-.001a7.36 7.36 0 0 0-.129.083 1.43 1.43 0 0 0-.12.091c-.09.079-.117.079-.164.017a1.357 1.357 0 0 1-.137-.27l-.078-.188c-.047-.113-.101-.245-.128-.307-.14-.333-.293-.408-.435-.21-.02.028-.04.06-.065.105l-.007.014-.056.1c-.095.167-.17.241-.26.241-.075 0-.095-.015-.1-.053a.561.561 0 0 1 .054-.235c.008-.023.018-.046.03-.076.091-.224.098-.241.098-.307 0-.34-.604-.281-.877.129a.306.306 0 0 1-.057.069.52.52 0 0 1-.049-.158c-.034-.184-.047-.46-.047-.827 0-.232-.07-.354-.22-.288-.067.03-.07.033-.273.254a2.1 2.1 0 0 1-.112.115.547.547 0 0 1-.111.085c-.047.024-.065.009-.09-.1-.026-.112-.034-.27-.034-.535v-.225c0-.187-.05-.292-.172-.292a.303.303 0 0 0-.137.041c-.019.01-.039.02-.065.036l-.01.005-.056.033c-.112.064-.187.093-.258.093-.013 0-.02.003-.024.003h-.002l.001-.001a.152.152 0 0 0 .02-.031c.047-.092.172-.24.373-.438l-.113-.121c-.214.21-.348.368-.405.48-.08.156-.018.277.15.277.107 0 .202-.038.338-.115.157-.09.165-.094.188-.094 0 0 .009.018.009.124v.114l-.001.111c0 .278.009.445.039.575.046.2.16.296.324.21a.696.696 0 0 0 .146-.11Zm.34-.34h.002H8.4Zm2.662 1.547a.023.023 0 0 1-.004-.003c.001.007.003.011.005.013l-.001-.01Zm2.901-.493h-.002.002ZM9.833 16.75c-.073.197-.188.262-.317.163a.748.748 0 0 1-.131-.14l-.012-.016-.126-.163c-.111-.139-.207-.226-.312-.27l-.01-.004c-.127-.055-.154-.066-.181-.079l-.03-.014a.675.675 0 0 1-.324-.297c-.066-.114-.13-.267-.238-.564l.154-.06c.104.288.166.436.225.538.066.114.129.17.254.23l.026.014.178.077.009.003c.135.058.249.16.376.32l.13.168.009.012a.629.629 0 0 0 .112.122c.012-.007.032-.039.054-.1.05-.135.007-.24-.116-.35l-.033-.027a1.088 1.088 0 0 1-.14-.122c-.047-.07-.007-.14.065-.159a.66.66 0 0 1 .157-.012c.265 0 .337.156.387.554v.006c.04.314.078.4.212.4.15 0 .243-.06.403-.232l.035-.037c.205-.218.348-.291.589-.224.192.053.274.147.293.294a.95.95 0 0 1 .005.056c.01.123.032.143.27.143.182 0 .35.01.57.029l.027.002.195.018c.071.006.122.008.162.008a.37.37 0 0 0 .066-.004c.006-.048.035-.082.15-.212l.033-.038a.358.358 0 0 0 .076-.113.519.519 0 0 0-.178-.018c-.12 0-.18-.015-.19-.1-.009-.07.032-.103.122-.151a3.52 3.52 0 0 1 .516-.198 6.67 6.67 0 0 1 .621-.168c.094-.02.171-.032.227-.035.107-.006.17.009.17.105 0 .04.112.177.225.24.134.074.229.046.294-.13.096-.255.296-.53.49-.688.105-.085.201-.13.284-.123.113.01.171.107.171.252h-.163c0-.068-.01-.083-.022-.084-.03-.003-.093.026-.168.087-.171.14-.353.39-.439.617-.103.276-.309.337-.525.216a.703.703 0 0 1-.299-.325 1.476 1.476 0 0 0-.212.033 6.658 6.658 0 0 0-.967.292c.117.017.185.06.203.142.017.082-.022.153-.113.26l-.035.04a1.64 1.64 0 0 0-.108.13c0 .111-.085.142-.229.142-.045 0-.1-.003-.175-.01l-.197-.017-.025-.003a6.054 6.054 0 0 0-.556-.028c-.323 0-.418-.085-.434-.298a.726.726 0 0 0-.004-.047c-.01-.079-.045-.118-.174-.154-.168-.047-.26 0-.428.178l-.034.038c-.19.202-.314.283-.522.283-.235 0-.313-.126-.361-.452a.57.57 0 0 1-.017.054Zm.013-.149v-.006a1.442 1.442 0 0 0-.053-.242.35.35 0 0 1 .069.343 3.063 3.063 0 0 1-.016-.095Zm3-.122.003.001h-.004Zm-.004.55-.004.002h.003l.001-.002Z" clip-rule="evenodd"/></g></g></g><path stroke="#000" stroke-opacity=".1" stroke-width=".5" d="M.25.25h23.5v17.5H.25z"/><defs><clipPath id="a"><path fill="#fff" d="M0 0h24v18H0z"/></clipPath></defs></svg>