<svg xmlns="http://www.w3.org/2000/svg" fill="none" viewBox="0 0 24 18"><g clip-path="url(#a)"><mask id="b" width="24" height="18" x="0" y="0" maskUnits="userSpaceOnUse" style="mask-type:luminance"><path fill="#fff" d="M0 0h24v18H0z"/></mask><g mask="url(#b)"><path fill="#FFD221" fill-rule="evenodd" d="M0 0v18h24V0z" clip-rule="evenodd"/><mask id="c" width="24" height="18" x="0" y="0" maskUnits="userSpaceOnUse" style="mask-type:luminance"><path fill="#fff" fill-rule="evenodd" d="M0 0v18h24V0z" clip-rule="evenodd"/></mask><g mask="url(#c)"><path fill="#313131" d="m-2.3 7.961 1.506-3.434 26.12 11.454-1.506 3.434z"/><path fill="#FAF9F9" d="M-2.263 4.177-.757.743 26.662 12.76l-1.506 3.435z"/><path fill="#CF1225" fill-rule="evenodd" d="M5.498 9.298c-1.064-1.306-.886-2.189-.886-2.189s1.09.04 1.077.742c0 .297.39.578.727.82.255.183.478.344.478.472 0 .299.225 3.307.225 3.307s-.157.274-.909.274-.712-.433-.712-.433c.456-.559 0-2.993 0-2.993m13.004 0c1.064-1.306.887-2.189.887-2.189s-1.09.04-1.077.742c0 .297-.39.578-.727.82-.255.183-.478.344-.478.472 0 .299-.225 3.307-.225 3.307s.157.274.909.274c.751 0 .711-.433.711-.433-.455-.559 0-2.993 0-2.993M12.06-.125l1.127.804-.738.197.738.639-.92-.233v.645h.92l.307 1.51-.355-.251-.356.252-.356-.252-.356.252-.366-.252-.367.252-.366-.252-.367.252.462-1.511h.85V-.125zm5.025 5.076s-.343.304-1.08 0c-.246-.101-.515-.278-.797-.463-.56-.37-1.168-.768-1.727-.658-.839.167-1.212.567-1.212.567v-.922h-.361v.922s-.373-.4-1.212-.567c-.559-.11-1.166.289-1.727.658-.281.185-.551.362-.797.463-.737.304-1.08 0-1.08 0s0 .257.547.653c.238.172.51.16.741.09-.171.13-.254.282.019.404.566.252 1.496-.412 1.598-.487-.113.085-1.238.93-.722.93.542 0 1.421-.71 1.421-.71s-1.066 1.023-.493 1.182c.366.102.802-.43 1.007-.746.006.067.068.108.135.153.086.057.18.12.18.252 0 .169.043.198.08.223.028.02.054.038.054.118v.233l-.133.196s0 .305.133.547c.1.184.049.338-.04.603q-.043.125-.093.292c-.133.461.133 1.249.133 1.249h-.133s.133.097.133.485c0 .316-.088.496-.255.835l-.126.26c-.247.525.248 1.193.248 1.193s-.83-.365-.663 0c.127.28.828.551 1.147.662v.053l.079-.026.078.026v-.053c.319-.11 1.02-.383 1.148-.662.166-.365-.664 0-.664 0s.495-.668.248-1.193l-.126-.26c-.166-.34-.255-.519-.255-.835 0-.388.133-.485.133-.485h-.133s.266-.788.133-1.249q-.049-.167-.092-.292c-.09-.265-.141-.42-.04-.603.132-.242.132-.547.132-.547l-.133-.196v-.233c0-.08.026-.098.055-.118.036-.025.078-.054.078-.223 0-.132.095-.195.181-.252.067-.045.129-.086.136-.153.204.315.64.848 1.006.746.574-.16-.493-1.183-.493-1.183s.88.711 1.422.711c.515 0-.61-.845-.723-.93.102.075 1.032.739 1.598.487.274-.122.19-.274.02-.403.23.069.502.081.74-.09.547-.397.547-.654.547-.654m-1.823.467s.233.186.535.277a2.5 2.5 0 0 0-.535-.277m-2.363.68c-.09-.12-.048-.011.069.17.004-.044-.015-.098-.07-.17m-1.62 0c.09-.12.048-.011-.07.17-.004-.044.015-.098.07-.17m-1.272-.494-.01.007zm-1.091-.186s-.234.186-.536.277c.205-.155.536-.277.536-.277" clip-rule="evenodd"/><path fill="#CF1225" fill-rule="evenodd" d="M7.23 6.578S6.035 8.202 6.168 9.936c.132 1.735 1.548 5.771 5.747 5.771h.107c4.45 0 5.713-4.45 5.713-6.051 0-1.614-1.007-3.078-1.007-3.078s.118 2.166 0 3.078c-.355 2.75-2.087 4.02-4.735 4.02-2.665 0-4.313-1.318-4.765-4.02-.146-.874 0-3.078 0-3.078" clip-rule="evenodd"/><path fill="#CF1225" fill-rule="evenodd" d="M6.8 14.813s.162-.465.362-.465-.383-.404 0-.518c.382-.114.97.455.97-.114s-.497-.88-.132-.88.747-.11.747-.11 1.555 1.622 3.111 1.622 3.429-1.513 3.429-1.513.69-.175.69.099c0 .273-.152.686-.152.686s.484-.095.73 0c.246.096 0 .552 0 .552v.176s.64-.14.64.111c0 .252-.31.109-.935.18-.626.072-.864.562-1.257.562s-.478-.388-.478-.388-1.219.661-2.667.661-2.323-.66-2.323-.66.137.678-.326.532c-.462-.145-.936-1.067-1.492-.887s-.918.354-.918.354" clip-rule="evenodd"/><path fill="#F6E017" fill-rule="evenodd" d="M8.062 13.165c.036-.034.073-.072.121-.124.136-.148.173-.187.201-.205q.01.038.01.123c0 .377.013.661.05.859.026.14.062.232.126.275.094.064.188.008.275-.123.2-.301.578-.338.578-.224 0 .03-.012.063-.085.242l-.032.08c-.052.136-.074.233-.063.319.016.127.11.198.262.198.168 0 .28-.109.402-.324l.057-.104.007-.011a1 1 0 0 1 .054-.089c.044-.062.054-.057.153.177l.126.304.08.191c.064.153.11.243.158.306.11.145.242.144.399.01q.045-.04.106-.08c.02-.015.07-.047.118-.078l.103-.067c.091-.064.136-.114.136-.188-.002-.093-.08-.152-.235-.21l-.072-.03-.028-.012q.006 0 .018-.008l.008-.004c.098-.048.295-.084.47-.084h.002q.012 0 .016.003.005.003.003.035v.003a1.2 1.2 0 0 1-.056.267l-.015.057c-.049.191-.062.307-.029.407.05.146.19.197.41.153.296-.058.44-.176.478-.356a.7.7 0 0 0 .012-.15c0-.117 0-.118.1-.118.14 0 .197.05.256.19l.021.05c.07.167.133.24.278.24.096 0 .164-.041.152-.135a.2.2 0 0 0-.026-.074l-.011-.023-.021-.04c-.09-.184-.054-.324.254-.521.088-.057.225-.152.342-.235l.202-.14c.003.026.006.06.008.11l.005.132.002.065c.013.334.083.64.185.765.172.21.338.016.45-.447.109-.444.263-.862.414-1.116.073-.125.142-.203.195-.226.035-.016.06-.005.095.06.136.247.345.476.522.544.262.101.418-.111.418-.585 0-.396.064-.713.171-.957q.056-.126.114-.207l.046-.058-.113-.122a1 1 0 0 0-.197.318c-.116.266-.185.606-.185 1.026 0 .375-.073.475-.196.428-.134-.052-.318-.254-.437-.469-.074-.135-.185-.186-.304-.132-.091.04-.18.14-.27.292-.16.27-.32.704-.431 1.163-.049.2-.1.326-.167.38-.071-.088-.134-.364-.146-.664l-.002-.063-.005-.134a1 1 0 0 0-.011-.138c-.017-.108-.071-.172-.17-.146-.038.01-.223.139-.39.254a7 7 0 0 1-.232.159c-.38.244-.44.479-.314.739l.01.02c-.03-.014-.051-.05-.084-.129l-.022-.052c-.083-.194-.19-.29-.406-.29-.209 0-.264.088-.264.285a.5.5 0 0 1-.008.115c-.022.107-.112.18-.35.227-.147.03-.205.009-.223-.044-.019-.056-.008-.15.033-.308l.014-.056c.048-.18.06-.234.062-.308.003-.126-.059-.212-.184-.212-.199 0-.42.04-.542.1-.202.101-.162.27.089.364q.073.028.102.044.02.01.024.01l-.014.01-.05.037-.09.06h-.001l-.129.083a1 1 0 0 0-.12.091c-.091.079-.117.079-.164.017a1.4 1.4 0 0 1-.137-.27l-.078-.188c-.047-.113-.101-.245-.128-.307-.14-.333-.293-.408-.435-.21-.02.028-.04.06-.065.105l-.007.014-.056.1c-.095.167-.17.241-.26.241-.075 0-.095-.015-.1-.053a.6.6 0 0 1 .054-.235l.03-.076c.091-.224.098-.241.098-.307 0-.34-.604-.281-.877.129a.3.3 0 0 1-.058.069.5.5 0 0 1-.048-.158q-.049-.276-.047-.827c0-.232-.07-.354-.22-.287-.067.03-.07.032-.273.253a2 2 0 0 1-.112.115.6.6 0 0 1-.111.085c-.047.024-.065.009-.09-.1-.026-.112-.034-.27-.034-.535v-.225c0-.187-.05-.292-.172-.292a.3.3 0 0 0-.137.041l-.065.036-.01.005-.056.033c-.112.064-.187.093-.258.093l-.024.004h-.002l.001-.002.02-.031q.071-.14.373-.437l-.113-.122q-.32.314-.405.48c-.08.156-.018.277.15.277.107 0 .202-.038.338-.115.157-.09.165-.094.188-.094 0 0 .009.018.009.124v.114l-.001.111c0 .278.009.445.039.575.046.2.16.296.324.21a.7.7 0 0 0 .146-.11m.34-.34h.002zm2.662 1.547-.005-.003q.003.01.006.013zm2.901-.493h-.002zM9.833 16.75c-.073.197-.188.261-.317.163a.8.8 0 0 1-.131-.14l-.012-.016-.125-.163c-.112-.139-.208-.226-.313-.27l-.01-.004-.18-.079-.03-.014a.68.68 0 0 1-.325-.297c-.066-.114-.13-.267-.238-.564l.154-.06c.105.288.166.436.225.537.067.115.13.17.254.232l.026.013.178.077.01.003c.134.058.248.16.375.32.029.035.104.134.13.168l.009.012a.6.6 0 0 0 .112.122q.02-.01.054-.1c.05-.135.007-.24-.116-.35l-.033-.027a1 1 0 0 1-.14-.122c-.046-.07-.007-.14.065-.159a.7.7 0 0 1 .157-.012c.265 0 .338.156.387.554v.006c.04.314.078.4.212.4.151 0 .243-.06.403-.232l.035-.037c.205-.218.348-.291.589-.225.192.054.274.148.293.295l.006.056c.009.123.03.143.27.143.181 0 .35.01.57.029l.027.002.194.018c.071.006.122.008.163.008q.042 0 .065-.004c.006-.048.035-.082.15-.212l.033-.038a.4.4 0 0 0 .076-.113.5.5 0 0 0-.178-.018c-.12 0-.179-.015-.19-.1-.009-.07.032-.103.122-.151.103-.055.291-.126.516-.198.218-.07.447-.132.621-.168q.142-.03.227-.035c.107-.006.17.009.17.105 0 .04.113.177.225.24.134.074.229.046.294-.13.096-.255.296-.53.49-.688.105-.085.202-.13.285-.123.112.01.17.107.17.252h-.163c0-.068-.01-.083-.022-.085-.03-.002-.093.027-.167.088a1.6 1.6 0 0 0-.44.617c-.103.276-.309.337-.525.216a.7.7 0 0 1-.299-.325 2 2 0 0 0-.212.033 6.6 6.6 0 0 0-.967.292c.117.017.185.06.203.142s-.022.153-.112.26l-.036.04c-.08.09-.108.128-.108.13 0 .11-.085.142-.228.142-.046 0-.1-.003-.176-.01l-.197-.017-.025-.003a6 6 0 0 0-.556-.028c-.323 0-.418-.085-.434-.298l-.004-.047c-.01-.079-.045-.119-.174-.154-.168-.047-.26 0-.428.178l-.034.038c-.19.202-.314.283-.522.283-.235 0-.312-.126-.361-.452zm.013-.149v-.006a1.5 1.5 0 0 0-.053-.242c.081.102.11.215.07.343zm3-.122.003.001h-.004m-.004.55-.004.002h.003z" clip-rule="evenodd"/></g></g></g><rect width="23" height="17" x=".5" y=".5" stroke="#000" stroke-opacity=".1" rx="1.5"/><defs><clipPath id="a"><rect width="24" height="18" fill="#fff" rx="2"/></clipPath></defs></svg>