<svg xmlns="http://www.w3.org/2000/svg" fill="none" viewBox="0 0 24 18"><g clip-path="url(#a)"><mask id="b" width="24" height="18" x="0" y="0" maskUnits="userSpaceOnUse" style="mask-type:luminance"><path fill="#fff" d="M0 0h24v18H0z"/></mask><g mask="url(#b)"><path fill="#F7FCFF" fill-rule="evenodd" d="M0 0v18h24V0z" clip-rule="evenodd"/><mask id="c" width="24" height="18" x="0" y="0" maskUnits="userSpaceOnUse" style="mask-type:luminance"><path fill="#fff" fill-rule="evenodd" d="M0 0v18h24V0z" clip-rule="evenodd"/></mask><g fill-rule="evenodd" clip-rule="evenodd" mask="url(#c)"><path fill="#E31D1C" d="M0 0v9h24V0z"/><path fill="#F1F9FF" d="M6.651 7.942S4.532 7.09 4.532 4.78s2.12-3.134 2.12-3.134c-1.03-.26-3.764-.027-3.764 3.134S5.58 8.538 6.651 7.942m.543-.382.608-.367.622.367-.152-.716.505-.565h-.685l-.29-.669-.29.67-.685.028.506.536zm2.818-.408-.608.367.139-.716-.507-.536.686-.029.29-.669.29.67h.684l-.505.564.152.716zM8.465 4.327l.608-.367.622.367-.152-.716.505-.565h-.685l-.29-.669-.29.67-.685.028.506.536zm-1.438 1.09-.608.367.139-.716-.506-.536.685-.03.29-.668.29.669h.685l-.505.565.152.716zm3.411.334.608-.367.622.367-.153-.716.505-.565h-.684l-.29-.669-.29.669-.686.029.507.536z"/></g></g></g><rect width="23" height="17" x=".5" y=".5" stroke="#000" stroke-opacity=".1" rx="1.5"/><defs><clipPath id="a"><rect width="24" height="18" fill="#fff" rx="2"/></clipPath></defs></svg>