<svg xmlns="http://www.w3.org/2000/svg" fill="none" viewBox="0 0 24 18"><g clip-path="url(#a)"><mask id="b" width="24" height="18" x="0" y="0" maskUnits="userSpaceOnUse" style="mask-type:luminance"><path fill="#fff" d="M0 0h24v18H0z"/></mask><g fill-rule="evenodd" clip-rule="evenodd" mask="url(#b)"><path fill="#5EAA22" d="M0 0h24v18H0V0Z"/><path fill="#4141DB" d="m0 0 24 18H0V0Z"/><path fill="#fff" d="m4.5 6.75-.75.549.1-.924L3 6l.85-.375-.1-.924.75.549.75-.549-.1.924L6 6l-.85.375.1.924-.75-.549ZM3 11.25l-.75.549.1-.924-.85-.375.85-.375-.1-.924.75.549.75-.549-.1.924.85.375-.85.375.1.924L3 11.25Zm3 4.5-.75.549.1-.924L4.5 15l.85-.375-.1-.924.75.549.75-.549-.1.924.85.375-.85.375.1.924L6 15.75Zm.75-7.125-.375.275.05-.463L6 8.25l.425-.188-.05-.462.375.275.375-.275-.05.463.425.187-.425.188.05.462-.375-.275Z"/><path fill="#FECA00" d="M16.17 9.168c-.28-.292 2.243-.98 2.505-1.866.347-.771.115-1.397-1.195-1.946-1.31-.549-2.633-1.61-1.11-1.61 1.521 0 1.521.217 1.93.857.409.64 1.293.777 1.311 0 0-1.324.125-1.503-.944-2.654s2.681.473 2.371 2.447c-.31 1.974-.683 1.337-.446 1.668.237.331 1.662-.697 1.484.673-.498.788-1.487 1.96-5.905 2.431Z"/><path fill="#FECA00" d="M12 12.75a3.75 3.75 0 1 0 0-7.5 3.75 3.75 0 0 0 0 7.5Z"/><path fill="#548650" d="M9.715 7.622c.425-.095 1.007 1.044 2.056.616 1.05-.427 1.27-1.242 1.768-.944.5.299.565 1.017.232 1.379-.332.36-.896.446-.896.903 0 .456-.11 2.085-.326 1.613-.646-.524-.252-1.36-1.048-1.613-.796-.254-1.28-.245-1.866-.138-.587.107.394-.294.602-.675.424-.407-.717-1.006-.522-1.141Z"/></g></g><path stroke="#000" stroke-opacity=".1" stroke-width=".5" d="M.25.25h23.5v17.5H.25z"/><defs><clipPath id="a"><path fill="#fff" d="M0 0h24v18H0z"/></clipPath></defs></svg>