<svg xmlns="http://www.w3.org/2000/svg" fill="none" viewBox="0 0 24 18"><g clip-path="url(#a)"><mask id="b" width="24" height="18" x="0" y="0" maskUnits="userSpaceOnUse" style="mask-type:luminance"><path fill="#fff" d="M0 0h24v18H0z"/></mask><g fill-rule="evenodd" clip-rule="evenodd" mask="url(#b)"><path fill="#2F8D00" d="M6 0h18v18H6z"/><path fill="#F7FCFF" d="M0 0h6v18H0z"/><path fill="#F1F9FF" d="M16.822 11.48s-3.35.873-6.008-.908-1.322-5.886-1.322-5.886c-1.386.202-3.564 5.261-.054 7.799 3.51 2.537 6.873.098 7.384-1.005m-3.716-4.83-1.78.87 1.877.334.254 1.834 1.062-1.562 2.092.14-1.638-1.22.872-1.633-1.631.747-1.212-1.14z"/></g></g><rect width="23" height="17" x=".5" y=".5" stroke="#000" stroke-opacity=".1" rx="1.5"/><defs><clipPath id="a"><rect width="24" height="18" fill="#fff" rx="2"/></clipPath></defs></svg>