<svg xmlns="http://www.w3.org/2000/svg" fill="none" viewBox="0 0 24 18"><g clip-path="url(#a)"><mask id="b" width="24" height="18" x="0" y="0" maskUnits="userSpaceOnUse" style="mask-type:luminance"><path fill="#fff" d="M0 0h24v18H0z"/></mask><g mask="url(#b)"><rect width="24" height="18" fill="#5EAA22" rx="2"/><mask id="c" width="40" height="24" x="-8" y="-3" fill="#000" maskUnits="userSpaceOnUse"><path fill="#fff" d="M-8-3h40v24H-8z"/><path fill-rule="evenodd" d="m12 9 12-9H0l12 9Zm0 0L0 18h24L12 9Z" clip-rule="evenodd"/></mask><path fill="#DD2C2B" fill-rule="evenodd" d="m12 9 12-9H0l12 9Zm0 0L0 18h24L12 9Z" clip-rule="evenodd"/><path fill="#fff" d="m24 0 1.5 2 6-4.5H24V0ZM0 0v-2.5h-7.5l6 4.5L0 0Zm0 18-1.5-2-6 4.5H0V18Zm24 0v2.5h7.5l-6-4.5-1.5 2ZM22.5-2l-12 9 3 4 12-9-3-4ZM0 2.5h24v-5H0v5ZM13.5 7l-12-9-3 4 12 9 3-4Zm-3 0-12 9 3 4 12-9-3-4ZM0 20.5h24v-5H0v5ZM25.5 16l-12-9-3 4 12 9 3-4Z" mask="url(#c)"/><path fill="#fff" fill-rule="evenodd" d="M12 13.5a4.5 4.5 0 1 0 0-9 4.5 4.5 0 0 0 0 9Z" clip-rule="evenodd"/><path fill="#DD2C2B" fill-rule="evenodd" stroke="#5EAA22" stroke-width=".25" d="m11.572 7.79-.871.01.444-.75-.444-.75.871.01.428-.76.428.76.871-.01-.444.75.444.75-.871-.01-.428.76-.428-.76Zm-1.875 3.075-.871.01.444-.75-.444-.75.871.01.428-.76.428.76.871-.01-.444.75.444.75-.871-.01-.428.76-.428-.76Zm3.75 0-.871.01.444-.75-.444-.75.871.01.428-.76.428.76.871-.01-.444.75.444.75-.871-.01-.428.76-.428-.76Z" clip-rule="evenodd"/></g></g><path stroke="#000" stroke-opacity=".1" stroke-width=".5" d="M.25.25h23.5v17.5H.25z"/><defs><clipPath id="a"><path fill="#fff" d="M0 0h24v18H0z"/></clipPath></defs></svg>