<svg xmlns="http://www.w3.org/2000/svg" fill="none" viewBox="0 0 24 18"><g clip-path="url(#a)"><mask id="b" width="24" height="18" x="0" y="0" maskUnits="userSpaceOnUse" style="mask-type:luminance"><path fill="#fff" d="M0 0h24v18H0z"/></mask><g mask="url(#b)"><path fill="#F7FCFF" fill-rule="evenodd" d="M0 0v18h24V0H0Z" clip-rule="evenodd"/><mask id="c" width="24" height="18" x="0" y="0" maskUnits="userSpaceOnUse" style="mask-type:luminance"><path fill="#fff" fill-rule="evenodd" d="M0 0v18h24V0H0Z" clip-rule="evenodd"/></mask><g fill-rule="evenodd" clip-rule="evenodd" mask="url(#c)"><path fill="#E31D1C" d="M0 0v9h24V0H0Z"/><path fill="#F1F9FF" d="M6.651 7.942S4.532 7.09 4.532 4.781c0-2.31 2.12-3.135 2.12-3.135-1.03-.26-3.764-.027-3.764 3.135 0 3.161 2.692 3.758 3.763 3.161Zm.543-.381.608-.367.622.367-.152-.717.505-.565h-.685l-.29-.668-.29.668-.685.03.506.535-.139.717Zm2.818-.408-.608.367.139-.717-.507-.536.686-.029.29-.668.29.668h.684l-.505.565.152.717-.621-.367ZM8.465 4.328l.608-.368.622.368-.152-.717.505-.565h-.685l-.29-.668-.29.668-.685.03.506.535-.139.717Zm-1.438 1.09-.608.366.139-.716-.506-.536.685-.03.29-.668.29.669h.685l-.505.565.152.716-.622-.367Zm3.411.333.608-.367.622.367-.153-.716.506-.565h-.685l-.29-.669-.29.669-.685.029.506.536-.139.716Z"/></g></g></g><path stroke="#000" stroke-opacity=".1" stroke-width=".5" d="M.25.25h23.5v17.5H.25z"/><defs><clipPath id="a"><path fill="#fff" d="M0 0h24v18H0z"/></clipPath></defs></svg>