<svg xmlns="http://www.w3.org/2000/svg" fill="none" viewBox="0 0 24 18"><g clip-path="url(#a)"><mask id="b" width="24" height="18" x="0" y="0" maskUnits="userSpaceOnUse" style="mask-type:luminance"><path fill="#fff" d="M0 0h24v18H0z"/></mask><g mask="url(#b)"><path fill="#2E42A5" fill-rule="evenodd" d="M0 0v18h24V0z" clip-rule="evenodd"/><mask id="c" width="24" height="18" x="0" y="0" maskUnits="userSpaceOnUse" style="mask-type:luminance"><path fill="#fff" fill-rule="evenodd" d="M0 0v18h24V0z" clip-rule="evenodd"/></mask><g mask="url(#c)"><path fill="#6DC2FF" stroke="#F7FCFF" stroke-width=".5" d="M22.217 7.775c.097 1.785.128 3.51-.218 4.805-.18.671-.455 1.204-.855 1.568-.394.359-.933.575-1.682.575-.761 0-1.282-.18-1.65-.486-.37-.307-.616-.768-.775-1.394-.16-.628-.226-1.398-.25-2.299-.023-.833-.011-1.758-.01-2.77z"/><mask id="d" width="7" height="8" x="16" y="7" maskUnits="userSpaceOnUse" style="mask-type:luminance"><path fill="#fff" stroke="#fff" stroke-width=".5" d="M22.217 7.775c.097 1.785.128 3.51-.218 4.805-.18.671-.455 1.204-.855 1.568-.394.359-.933.575-1.682.575-.761 0-1.282-.18-1.65-.486-.37-.307-.616-.768-.775-1.394-.16-.628-.226-1.398-.25-2.299-.023-.833-.011-1.758-.01-2.77z"/></mask><g mask="url(#d)"><path fill="#E1E5E8" fill-rule="evenodd" d="M18.392 10.19s-.296-.219-.423-.573c-.127-.355-.379-1.3-.379-1.381 0-.082-.334 0-.334 0s.005-.4.131-.4.131-.37.437-.277c.306.094.547.436.858.436.312 0 1.616.099 1.825.099.21 0 .762.442.762.773s-.15.825-.269.825-.268.287-.493.192-.763-.29-1.244-.192c-.482.097-.58.036-.58.192s-.291.306-.291.306" clip-rule="evenodd"/><path fill="#49801E" fill-rule="evenodd" d="M17.7 9.959h3.867l-.666.86h-2.732z" clip-rule="evenodd"/><path stroke="#fff" stroke-width="1.067" d="M17.65 13.722s.668.239.948.21c.309-.033.583-.385.79-.385.206 0 .603.353.911.385.28.029.826-.21.826-.21m-4.209-1.02c.231-.195.734-.21.734-.21s.668.24.948.21c.309-.032.583-.385.79-.385.206 0 .603.353.911.385.28.03.826-.21.826-.21s.305-.343.687.02"/><path fill="#fff" d="m16.846 11.647-.506-.62c.198-.161.531-.32 1.017-.497l.236-.011c.504.129.841.185.964.173.041-.004.11-.037.233-.12.353-.234.388-.253.597-.253.192 0 .231.018.631.235.075.04.103.054.143.073a.7.7 0 0 0 .178.065c.096.01.29-.036.56-.145.353-.32.799-.286 1.183.063q.384.35.616.566l-.544.586-.611-.56c-.101-.093-.08-.092-.124-.043l-.139.097c-.42.177-.752.259-1.02.232a1.3 1.3 0 0 1-.445-.14 4 4 0 0 1-.177-.09c-.193-.105-.266-.139-.25-.139.033 0-.014.026-.155.12-.228.15-.386.228-.596.249-.231.023-.593-.033-1.121-.164-.343.13-.571.242-.67.323"/></g><path stroke="#B85F3C" d="M17.223 13.795s.738.707.292 1.186-.854.2-.854.2m5.126-1.386s-.738.707-.292 1.186c.445.479.854.2.854.2"/><path stroke="#CB8B73" d="M16.74 14.365s1.272 1.215 2.835 1.215 2.82-.928 2.82-.928"/><path fill="#2B409A" d="M-4-3h18v14H-4z"/><mask id="e" width="18" height="14" x="-4" y="-3" maskUnits="userSpaceOnUse" style="mask-type:luminance"><path fill="#fff" d="M-4-3h18v14H-4z"/></mask><g mask="url(#e)"><path fill="#F7FCFF" d="m-6.004 10 3.96 1.737L14.09-1.111l2.09-2.582-4.237-.58-6.58 5.536-5.296 3.73z"/><path fill="#F50100" d="m-5.462 11.217 2.018 1.008L15.429-3.933h-2.833z"/><path fill="#F7FCFF" d="m16.004 10-3.961 1.737L-4.09-1.111l-2.09-2.582 4.236-.58 6.58 5.536 5.297 3.73z"/><path fill="#F50100" d="m15.869 10.873-2.018 1.009-8.037-6.918-2.382-.773-9.813-7.875h2.834L6.26 4.004l2.605.927z"/><mask id="f" width="22" height="18" x="-6" y="-5" fill="#000" maskUnits="userSpaceOnUse"><path fill="#fff" d="M-6-5h22v18H-6z"/><path fill-rule="evenodd" d="M5.985-3h-2v6H-4v2h7.985v6h2V5H14V3H5.985z" clip-rule="evenodd"/></mask><path fill="#F50100" fill-rule="evenodd" d="M5.985-3h-2v6H-4v2h7.985v6h2V5H14V3H5.985z" clip-rule="evenodd"/><path fill="#F7FCFF" d="M3.985-3v-1.5h-1.5V-3zm2 0h1.5v-1.5h-1.5zm-2 6v1.5h1.5V3zM-4 3V1.5h-1.5V3zm0 2h-1.5v1.5H-4zm7.985 0h1.5V3.5h-1.5zm0 6h-1.5v1.5h1.5zm2 0v1.5h1.5V11zm0-6V3.5h-1.5V5zM14 5v1.5h1.5V5zm0-2h1.5V1.5H14zM5.985 3h-1.5v1.5h1.5zm-2-4.5h2v-3h-2zm1.5 4.5v-6h-3v6zM-4 4.5h7.985v-3H-4zm1.5.5V3h-3v2zm6.485-1.5H-4v3h7.985zm1.5 7.5V5h-3v6zm.5-1.5h-2v3h2zM4.485 5v6h3V5zM14 3.5H5.985v3H14zM12.5 3v2h3V3zM5.985 4.5H14v-3H5.985zM4.485-3v6h3v-6z" mask="url(#f)"/></g></g></g></g><rect width="23" height="17" x=".5" y=".5" stroke="#000" stroke-opacity=".1" rx="1.5"/><defs><clipPath id="a"><rect width="24" height="18" fill="#fff" rx="2"/></clipPath></defs></svg>