<svg xmlns="http://www.w3.org/2000/svg" fill="none" viewBox="0 0 24 18"><g clip-path="url(#a)"><mask id="b" width="24" height="18" x="0" y="0" maskUnits="userSpaceOnUse" style="mask-type:luminance"><path fill="#fff" d="M0 0h24v18H0z"/></mask><g mask="url(#b)"><path fill="#F7FCFF" fill-rule="evenodd" d="M0 0h24v18H0V0Z" clip-rule="evenodd"/><path fill="#FFDC17" fill-rule="evenodd" d="M0 0h10.5v18H0V0Z" clip-rule="evenodd"/><path fill="#AF0100" d="m17.086 9.563-.259.017c.062.89.253 1.577.577 2.061.523.782 1.213 1.387 1.675 1.387.105 0 .13.039.095.135-.05.137-.205.271-.405.323-.333.085-1.09.13-2.258.13v.251c1.192 0 1.962-.045 2.325-.139.281-.072.505-.265.583-.482.09-.252-.046-.47-.34-.47-.343 0-.979-.557-1.457-1.271-.297-.444-.477-1.091-.536-1.942Zm-1.226 0 .26.017c-.063.89-.254 1.577-.578 2.061-.523.782-1.213 1.387-1.675 1.387-.105 0-.129.039-.094.135.049.137.204.271.405.323.332.085 1.09.13 2.258.13v.251c-1.192 0-1.963-.045-2.325-.139-.282-.072-.505-.265-.583-.482-.09-.252.046-.47.34-.47.342 0 .978-.557 1.456-1.271.297-.444.477-1.091.536-1.942Z"/><path fill="#F4B300" fill-rule="evenodd" d="m21.05 5.099-6.856 5.344a2.507 2.507 0 0 0-.775-.12c-1.112 0-2.043.71-2.043 1.632 0 .922.93 1.632 2.043 1.632.127 0 .253-.01.374-.027a.719.719 0 0 1-.238-.315c-.05-.14-.03-.27.049-.358a1.86 1.86 0 0 1-.185.01c-.75 0-1.33-.443-1.33-.942 0-.5.58-.942 1.33-.942.75 0 1.33.442 1.33.942 0 .153-.055.3-.151.431l.054-.05c.238-.221-.296.692-.757.692-.105 0-.13.039-.095.135.046.128.185.254.367.312.752-.235 1.295-.816 1.295-1.52 0-.288-.09-.556-.25-.787l3.685-3.128.247.255.177-.16.616.455-.258.199.526.638 1.06-.817.017-.009-.003-.002.066-.05-.525-.64-.254.197-.688-.476.08-.073-.221-.23.333-.282.177.183.19-.172.596.472-.25.193.524.639.908-.7.104-.057-.015-.011.144-.111-.526-.639-.296.229-.654-.501.089-.08-.152-.157.679-.576-.538-.658Z" clip-rule="evenodd"/><path fill="#BFBFBF" fill-rule="evenodd" d="M11.765 11.044c.197 0 .357-.126.357-.282 0-.157-.16-.283-.357-.283-.197 0-.357.127-.357.283 0 .156.16.282.357.282Zm.13 2.574c.197 0 .356-.126.356-.282 0-.156-.16-.283-.356-.283-.197 0-.357.127-.357.283 0 .156.16.282.357.282Zm3.535-.282c0 .156-.16.282-.357.282-.197 0-.357-.126-.357-.282 0-.156.16-.283.357-.283.197 0 .357.127.357.283Zm2.108-1.381c0-.415.188-.787.496-1.07l-3.937-3.05-.045.035.115.104-.31.321-.164-.148-.603.464.23.178-.525.638-1.048-.808-.03-.018.004-.002-.066-.05.525-.64.254.197.689-.476-.081-.073.297-.308-.346-.268-.24.247-.182-.166-.59.477.237.182-.525.639-.88-.678-.132-.079.015-.011-.144-.111.526-.639.296.229.654-.501-.089-.08.18-.186-.707-.547.446-.54 6.811 5.275c.276-.109.586-.17.912-.17 1.112 0 2.043.71 2.043 1.633 0 .922-.93 1.632-2.043 1.632-.128 0-.253-.01-.374-.027a.718.718 0 0 0 .238-.315c.05-.14.03-.27-.049-.358.06.006.122.01.185.01.75 0 1.33-.443 1.33-.942 0-.5-.58-.942-1.33-.942-.75 0-1.33.442-1.33.942 0 .152.055.3.151.431a3.493 3.493 0 0 1-.055-.05c-.237-.221.297.692.759.692.104 0 .129.039.094.135-.046.128-.185.254-.367.312-.752-.235-1.295-.816-1.295-1.52Z" clip-rule="evenodd"/><path fill="#F4B300" fill-rule="evenodd" d="M21.235 11.044c-.197 0-.357-.126-.357-.282 0-.157.16-.283.357-.283.197 0 .357.127.357.283 0 .156-.16.282-.357.282Zm-.13 2.574c-.197 0-.356-.126-.356-.282 0-.156.16-.283.356-.283.197 0 .357.127.357.283 0 .156-.16.282-.357.282Zm-3.535-.282c0 .156.16.282.357.282.197 0 .357-.126.357-.282 0-.156-.16-.283-.357-.283-.197 0-.357.127-.357.283Z" clip-rule="evenodd"/><path fill="#AF0100" fill-rule="evenodd" d="M16.338 8.846a.13.13 0 0 0-.13.13v.373h-.36a.094.094 0 0 0 0 .188h.36v5.333c0 .072.058.13.13.13h.13a.13.13 0 0 0 .13-.13V9.537h.554a.094.094 0 0 0 0-.188h-.555v-.373a.13.13 0 0 0-.13-.13h-.13Z" clip-rule="evenodd"/><path fill="#979797" fill-rule="evenodd" d="m12.566 5.695.159.11c.37-.506.703-.607 1.041-.342.585.458.636 1.574.01 1.948-.745.446-1.123 1.316-.793 1.79.305.436 1.041.271 1.767-.278.13-.097.252-.201.368-.31l-.154-.119a4.165 4.165 0 0 1-.333.28c-.648.49-1.27.63-1.486.321-.258-.369.071-1.127.734-1.523.749-.448.691-1.722.01-2.256-.44-.344-.895-.205-1.323.38Zm2.856 2.289.158.11c.276-.372.464-.775.526-1.171l-.192-.028c-.058.365-.234.74-.492 1.089Zm5.03-2.289-.159.11c-.37-.506-.703-.607-1.041-.342-.585.458-.636 1.574-.01 1.948.745.446 1.123 1.316.793 1.79-.305.436-1.041.271-1.767-.278a4.345 4.345 0 0 1-.368-.31l.154-.119c.105.099.217.193.334.28.647.49 1.27.63 1.486.321.257-.369-.072-1.127-.735-1.523-.749-.448-.691-1.722-.01-2.256.44-.344.895-.205 1.323.38Zm-2.856 2.289-.158.11c-.276-.372-.464-.775-.526-1.171l.192-.028c.058.365.234.74.492 1.089Z" clip-rule="evenodd"/><path fill="#AF0100" fill-rule="evenodd" d="M16.403 15.012c.215 0 .389-.087.389-.194 0-.108-.174-.195-.39-.195-.214 0-.389.087-.389.195 0 .107.175.194.39.194Zm-.065-8.097c.752 0 1.362-.102 1.362-.228 0-.125-.61-.227-1.362-.227-.753 0-1.362.102-1.362.227 0 .126.61.228 1.362.228Z" clip-rule="evenodd"/><path fill="#F4B300" fill-rule="evenodd" d="M16.415 1.529h-.195v.224h-.184v.189h.184v.55h.195v-.55h.224v-.189h-.224V1.53ZM14.95 4.243l-.087-.147a2.58 2.58 0 0 1 .146-.056l-.253-.555.178-.076.26.571a3.39 3.39 0 0 1 .17-.044.265.265 0 0 1-.065-.176c0-.138.102-.25.227-.25s.227.112.227.25a.28.28 0 0 1-.022.11c.154-.02.315-.033.483-.038v-.213h-.244v-.152h.244v-.18h.257v.18h.297v.152h-.297v.211c.191.004.37.017.537.04a.272.272 0 0 1-.023-.11c0-.138.102-.25.227-.25.126 0 .228.112.228.25a.264.264 0 0 1-.07.181c.073.02.142.04.21.064l.185-.408.178.076-.184.405.043.02-.098.142-.016-.008-.03.066-.178-.076.03-.064c-.284-.102-.63-.157-1.04-.164v.067h-.256v-.066c-.486.015-.906.098-1.264.248Zm-.087.167.046.077-.153.065.253.555c-.05.018-.098.037-.146.057l.087.146c.358-.15.778-.232 1.264-.247v.065h.257v-.067c.409.008.755.063 1.038.165l-.029.063.178.076.03-.065.016.007.098-.14a1.961 1.961 0 0 0-.043-.021l.184-.406-.178-.076-.186.409a2.538 2.538 0 0 0-.209-.064.264.264 0 0 0 .07-.181c0-.139-.102-.251-.227-.251-.126 0-.227.112-.227.25 0 .04.008.078.022.11a4.45 4.45 0 0 0-.537-.04v-.21h.297v-.152h-.297v-.18h-.258v.18h-.243v.151h.244V4.9a4.727 4.727 0 0 0-.483.038.271.271 0 0 0 .022-.11c0-.138-.102-.25-.227-.25s-.227.112-.227.25c0 .07.025.131.065.177a3.39 3.39 0 0 0-.17.043l-.226-.498c.392-.161.86-.242 1.406-.242.552 0 .995.083 1.33.247l.098-.141c-.368-.18-.844-.27-1.428-.27-.582 0-1.086.089-1.51.267Zm0 1.068.046.076-.153.065.253.556c-.05.017-.098.036-.146.056l.087.146c.358-.15.778-.232 1.264-.247v.066h.257v-.067c.409.007.755.062 1.038.164l-.029.064.178.076.03-.066.016.008.098-.141a2.008 2.008 0 0 0-.043-.021l.184-.405-.178-.076-.186.408a2.538 2.538 0 0 0-.209-.064.264.264 0 0 0 .07-.18c0-.14-.102-.252-.227-.252-.126 0-.227.113-.227.251 0 .04.008.077.022.11a4.45 4.45 0 0 0-.537-.04v-.211h.297v-.152h-.297v-.18h-.258v.18h-.243v.152h.244v.213a4.727 4.727 0 0 0-.483.038.271.271 0 0 0 .022-.11c0-.138-.102-.25-.227-.25s-.227.112-.227.25c0 .069.025.13.065.176a3.4 3.4 0 0 0-.17.044l-.226-.498c.392-.162.86-.243 1.406-.243.552 0 .995.083 1.33.247l.098-.14c-.368-.181-.844-.27-1.428-.27-.582 0-1.086.088-1.51.267Zm0 1.067.087.146c.396-.166.87-.25 1.424-.25.552 0 .995.084 1.33.248l.098-.141c-.368-.18-.844-.27-1.428-.27-.582 0-1.086.089-1.51.267Z" clip-rule="evenodd"/></g></g><path stroke="#000" stroke-opacity=".1" stroke-width=".5" d="M.25.25h23.5v17.5H.25z"/><defs><clipPath id="a"><path fill="#fff" d="M0 0h24v18H0z"/></clipPath></defs></svg>