<svg xmlns="http://www.w3.org/2000/svg" fill="none" viewBox="0 0 24 18"><g clip-path="url(#a)"><path fill="#19BFBF" d="M0 0h24v18H0z"/><path fill="#fff" fill-rule="evenodd" d="m14.621 15.307-.851-.851a.333.333 0 0 1-.08-.13l-.482-1.445a.286.286 0 0 0-.548.16l.437 1.747a.333.333 0 0 1-.088.317l-.202.202a.333.333 0 0 1-.471 0l-.238-.238a.333.333 0 0 1-.098-.236v-.926a.333.333 0 0 0-.035-.149l-.444-.888a.333.333 0 0 0-.298-.184h-1.43a.334.334 0 0 0-.15.035l-.948.474a.333.333 0 0 0-.167.193l-.484 1.452a.334.334 0 0 1-.167.193l-.87.435a.333.333 0 0 1-.299 0l-.81-.405a.333.333 0 0 1-.184-.298V13.02c0-.184.15-.333.334-.333h1.047c.184 0 .334-.15.334-.334v-.755c0-.036.005-.072.017-.106l.478-1.435a.333.333 0 0 1 .316-.228h.824a.333.333 0 0 0 .15-.035l1.001-.5a.333.333 0 0 1 .15-.036h.73c.184 0 .334-.15.334-.333v-.1c0-.089.035-.174.097-.236l.147-.147a.333.333 0 0 1 .534.087l.272.545a.333.333 0 0 0 .299.184h1.268c.143 0 .27-.092.316-.228l.42-1.258a.333.333 0 0 1 .315-.228h.617a.286.286 0 1 0 0-.572h-.524a.333.333 0 0 1-.333-.333v-.73c0-.053.012-.104.035-.15l.43-.857a.333.333 0 0 0-.063-.385l-.166-.166a.333.333 0 0 0-.472 0l-.809.81a.333.333 0 0 0-.098.235v.95a.334.334 0 0 1-.017.106l-.478 1.435a.333.333 0 0 1-.316.228h-.194a.333.333 0 0 1-.235-.097l-.392-.392a.281.281 0 0 1-.082-.2.281.281 0 0 0-.407-.251l-.52.26a.333.333 0 0 1-.386-.062l-.304-.304a.333.333 0 0 1-.097-.236v-.866c0-.089.035-.174.097-.236l1.046-1.045 1.658-1.659a.333.333 0 0 1 .13-.08l1.589-.53a.333.333 0 0 1 .105-.017h.883c.126 0 .242.071.298.184l.444.888a.334.334 0 0 1 .035.15v1.497c0 .088.036.173.098.236l.328.328c.09.09.12.221.08.34l-.425 1.278c-.048.143.006.3.131.383l1.503 1.002.805.402c.18.09.24.316.128.483l-.877 1.316a.333.333 0 0 0-.056.185v1.373a.335.335 0 0 1-.228.317l-1.355.451a.334.334 0 0 0-.193.168l-.486.97a.334.334 0 0 1-.062.087l-.87.87a.333.333 0 0 1-.47 0Zm-4.907-.336a.571.571 0 1 0 0-1.142.571.571 0 0 0 0 1.142ZM8 7.543a.571.571 0 1 1-1.143 0 .571.571 0 0 1 1.143 0Z" clip-rule="evenodd"/><path fill="#fff" fill-rule="evenodd" d="M8.536 7.499a.333.333 0 0 0 .035-.149v-.414a.333.333 0 0 0-.035-.15l-.295-.59a.333.333 0 0 1 .298-.482h.27c.185 0 .334.15.334.334V7.35c0 .052.012.103.035.149l.295.59a.333.333 0 0 1-.298.482h-.636a.333.333 0 0 1-.298-.482l.295-.59Z" clip-rule="evenodd"/></g><path stroke="#000" stroke-opacity=".1" stroke-width=".5" d="M.25.25h23.5v17.5H.25z"/><defs><clipPath id="a"><path fill="#fff" d="M0 0h24v18H0z"/></clipPath></defs></svg>