<svg xmlns="http://www.w3.org/2000/svg" fill="none" viewBox="0 0 24 18"><g clip-path="url(#a)"><mask id="b" width="24" height="18" x="0" y="0" maskUnits="userSpaceOnUse" style="mask-type:luminance"><path fill="#fff" d="M0 0h24v18H0z"/></mask><g mask="url(#b)"><path fill="#4141DB" fill-rule="evenodd" d="M0 0v18h24V0z" clip-rule="evenodd"/><mask id="c" width="24" height="18" x="0" y="0" maskUnits="userSpaceOnUse" style="mask-type:luminance"><path fill="#fff" fill-rule="evenodd" d="M0 0v18h24V0z" clip-rule="evenodd"/></mask><g mask="url(#c)"><path fill="#F90000" stroke="#F7FCFF" stroke-width="2" d="M25 9.5V13H-1V9.5z"/><g filter="url(#d)"><path fill="#FFDE00" fill-rule="evenodd" d="m7.347 7.695.544-.382.527.382-.164-.68.423-.43H8.14l-.25-.555-.211.554h-.632l.484.43zm2.25 1.2.544-.382.527.382-.164-.68.423-.43h-.538l-.248-.554-.212.554h-.632l.484.43zm2.344 1.418-.544.382.184-.68-.484-.43h.632l.212-.554.248.554h.538l-.423.43.164.68zm-.544 3.382.544-.382.527.382-.164-.68.423-.43h-.538l-.248-.554-.212.554h-.632l.484.43zm-1.256 1.418-.544.382.184-.68-.484-.43h.632l.211-.554.249.554h.538l-.423.43.164.68zm-2.794 1.582.544-.382.527.382-.164-.68.423-.43H8.14l-.249-.554-.211.554h-.632l.484.43zM5.64 15.113l-.544.382.184-.68-.484-.43h.632l.211-.554.249.554h.538l-.423.43.164.68zm-2.344-1.418.544-.382.527.382-.164-.68.423-.43H4.09l-.249-.554-.211.554h-.632l.484.43zm.544-3.382-.544.382.184-.68-.484-.43h.632l.211-.554.249.554h.538l-.423.43.164.68zm1.256-1.418.544-.382.527.382-.164-.68.423-.43H5.89l-.25-.555-.211.554h-.632l.484.43z" clip-rule="evenodd"/></g></g></g></g><rect width="23" height="17" x=".5" y=".5" stroke="#000" stroke-opacity=".1" rx="1.5"/><defs><clipPath id="a"><rect width="24" height="18" fill="#fff" rx="2"/></clipPath><filter id="d" width="17.73" height="18.664" x="-1.003" y="2.031" color-interpolation-filters="sRGB" filterUnits="userSpaceOnUse"><feFlood flood-opacity="0" result="BackgroundImageFix"/><feColorMatrix in="SourceAlpha" result="hardAlpha" values="0 0 0 0 0 0 0 0 0 0 0 0 0 0 0 0 0 0 127 0"/><feOffset/><feGaussianBlur stdDeviation="2"/><feColorMatrix values="0 0 0 0 0 0 0 0 0 0 0 0 0 0 0 0 0 0 0.24 0"/><feBlend in2="BackgroundImageFix" result="effect1_dropShadow_701_24185"/><feBlend in="SourceGraphic" in2="effect1_dropShadow_701_24185" result="shape"/></filter></defs></svg>