<svg xmlns="http://www.w3.org/2000/svg" fill="none" viewBox="0 0 24 18"><g clip-path="url(#a)"><mask id="b" width="24" height="18" x="0" y="0" maskUnits="userSpaceOnUse" style="mask-type:luminance"><path fill="#fff" d="M0 0h24v18H0z"/></mask><g mask="url(#b)"><path fill="#FFD018" fill-rule="evenodd" d="M6 0h12v18H6V0Z" clip-rule="evenodd"/><path fill="#2E42A5" fill-rule="evenodd" d="M0 0h6v18H0V0Z" clip-rule="evenodd"/><path fill="#E31D1C" fill-rule="evenodd" d="M18 0h6v18h-6V0Z" clip-rule="evenodd"/><path fill="#BF9937" fill-rule="evenodd" d="M12.224 14.568c.166-.047.309-.335.309-.335s.108.085.28.17c.171.087.35-.17.35-.17s.243 0 .35-.288c.107-.287-.213-.41-.213-.41s.374-.394 1.006-.394 1.124 0 1.536-.175c.413-.175.813-.476.963-1.1.15-.626-.324-1.02-.324-1.02s.105.034.324-.146c.22-.18-.134-.757-.324-.757s-.213.107-.213.107-.118-.102-.279-.449c-.16-.347.161-.651.161-.651s.177.1.33-.066c.155-.167-.08-.422-.08-.422s.742-.253.635-1.2c-.107-.949-1.085-.895-1.085-.895s.03-.157-.108-.247c-.137-.09-.24.09-.24.09-.107-.25.21-.592.463-.866.078-.085.151-.163.203-.23.22-.283.081-.633-.72-1.014-.801-.382-1.239.13-1.303.313-.064.181.185.294.185.294a.881.881 0 0 1-.863.123c-.267-.123-.149-.497-.093-.6l.023-.04c.076-.126.234-.392.07-.65-.183-.29-.5-.29-.755-.126-.217.141-.525.216-.61.235-.084-.019-.393-.094-.61-.235-.254-.164-.571-.164-.755.126-.163.258-.005.524.07.65l.024.04c.055.103.174.477-.094.6a.881.881 0 0 1-.862-.123s.248-.113.184-.294c-.064-.182-.501-.695-1.303-.313-.801.381-.939.73-.72 1.014.052.067.125.145.203.23.254.274.57.616.463.866 0 0-.102-.18-.24-.09s-.108.247-.108.247-.977-.054-1.084.894c-.107.948.634 1.2.634 1.2s-.234.256-.08.423c.154.167.33.066.33.066s.322.304.161.651c-.16.347-.278.449-.278.449s-.023-.107-.213-.107-.544.578-.325.757c.22.18.325.147.325.147s-.475.393-.325 1.018c.15.625.55.926.963 1.101.412.175.904.175 1.536.175s1.006.393 1.006.393-.32.124-.213.411c.107.288.35.288.35.288s.18.257.35.17c.173-.085.28-.17.28-.17s.143.288.31.335v.006c.007 0 .014 0 .021-.002a.163.163 0 0 0 .022.002v-.006Z" clip-rule="evenodd"/><path fill="#805440" d="m9.083 11.998.078-.19c.906.388 1.937.582 3.093.582s2.16-.194 3.01-.581l.083.189c-.878.4-1.91.6-3.093.6-1.182 0-2.24-.2-3.171-.6Z"/><path fill="#BF9937" fill-rule="evenodd" d="M9.359 5.425h5.655v5.272s-.001.465-.493.669c-.492.203-1.07.13-1.07.13s-.554-.119-.847 0c-.179.073-.309.11-.382.127v.013l-.036-.006c-.023.005-.035.006-.035.006v-.013a2.583 2.583 0 0 1-.383-.127c-.292-.119-.846 0-.846 0s-.578.073-1.07-.13a.765.765 0 0 1-.493-.67v-5.27Z" clip-rule="evenodd"/><mask id="c" width="7" height="7" x="9" y="5" maskUnits="userSpaceOnUse" style="mask-type:luminance"><path fill="#fff" fill-rule="evenodd" d="M9.359 5.425h5.655v5.272s-.001.465-.493.669c-.492.203-1.07.13-1.07.13s-.554-.119-.847 0c-.179.073-.309.11-.382.127v.013l-.036-.006c-.023.005-.035.006-.035.006v-.013a2.583 2.583 0 0 1-.383-.127c-.292-.119-.846 0-.846 0s-.578.073-1.07-.13a.765.765 0 0 1-.493-.67v-5.27Z" clip-rule="evenodd"/></mask><g mask="url(#c)"><path fill="#D00F3A" d="M9.28 5.358h2.742v2.925H9.28z"/><path fill="#FEDF00" fill-rule="evenodd" d="M12.327 5.358h2.843v2.925h-2.843V5.358Zm0 3.25h2.742v3.034h-2.742V8.608Z" clip-rule="evenodd"/><path fill="#FEDF00" d="M9.28 8.608h2.742v3.033H9.28z"/><path fill="#D00F3A" fill-rule="evenodd" d="M14.358 9.974s.127-.13.127-.435.108-.507-.127-.507h-.779c-.224 0-.109.136-.335 0-.225-.135-.407-.092-.407 0 0 .093.228.052.228.24s.086.025.086.363c0 .339.047.282.07.282.024 0 .024-.061.024-.15 0-.09-.012-.448.05-.338.063.11.094.058.125.184.031.125.114.247.057.304-.057.057-.172.106-.086.106s.211-.145.149-.388c-.063-.243.078-.022.078-.022s.331.073.352-.028c.022-.1.052.097.142.097s-.087.203-.16.235c-.075.032 0 .057 0 .057s.068.057.114 0 .21-.243.21-.339c0-.096.105-.038.105.047 0 .085-.097.39-.06.34l.037-.048Zm0 1.192s.127-.13.127-.435.108-.507-.127-.507h-.779c-.224 0-.109.136-.335 0-.225-.136-.407-.093-.407 0 0 .092.228.052.228.24s.086.024.086.363c0 .339.047.282.07.282.024 0 .024-.061.024-.15 0-.09-.012-.449.05-.338.063.11.094.058.125.183.031.126.114.248.057.305-.057.057-.172.105-.086.105s.211-.144.149-.387c-.063-.243.078-.023.078-.023s.331.074.352-.027c.022-.101.052.097.142.097s-.087.203-.16.235c-.075.032 0 .057 0 .057s.068.056.114 0c.046-.057.21-.243.21-.34 0-.095.105-.037.105.048 0 .085-.097.39-.06.34l.037-.048Z" clip-rule="evenodd"/><path fill="#fff" fill-rule="evenodd" d="M10.658 7.723c0 .124-.063.219-.207.363l-.057.058-.051.054c-.123.138-.337.019-.392-.116a3.5 3.5 0 0 0-.122-.22l-.004-.006-.041-.071-.038-.065a4.481 4.481 0 0 1-.049-.085c-.005-.01-.033.001-.083.065-.019.024.02.107.144.24l-.07.077c-.173-.168-.256-.277-.256-.352 0-.126.101-.194.29-.194.119 0 .182.084.277.294l.024.054c.047.104.077.16.114.207.043.055.07.052.114-.005.044-.055.085-.142.146-.298l.017-.042c.013-.032.019-.047.015-.05-.003-.003-.013.003-.031.013l-.023.012-.047.025-.43-1.035.814-.989v2.06l-.053-.047a.637.637 0 0 0-.002.053Zm.058-.002-.004.003v-.007l.004.004Zm.004-.004v.007l-.004-.003.004-.004Zm0-2.06.814.99-.43 1.034-.048-.025c-.033-.017-.05-.029-.054-.025-.005.004.008.03.032.092.061.156.102.243.146.298.045.057.071.06.114.005a.96.96 0 0 0 .114-.207l.024-.054c.095-.21.159-.294.277-.294.189 0 .29.068.29.194 0 .075-.083.184-.256.352l-.07-.078c.124-.132.163-.215.144-.24-.05-.063-.078-.074-.083-.064a3.986 3.986 0 0 1-.05.085l-.037.065-.041.07-.004.008c-.07.12-.113.198-.122.22-.055.134-.269.253-.392.115a1.306 1.306 0 0 0-.05-.054l-.058-.058c-.143-.144-.206-.239-.206-.363l-.002-.053-.053.047v-2.06Zm0 0-.004-.004.004-.005v.01Zm-.004-.004-.004.004v-.01l.004.006Zm-.05 1.985v-.003.003Z" clip-rule="evenodd"/><path fill="#FEDF00" fill-rule="evenodd" d="M10.709 7.537v-1.67l.706.799-.363.871c-.133-.046-.18.052-.111.228.04.105.073.18.105.238-.12-.122-.17-.198-.17-.28a.313.313 0 0 0-.023-.142c-.007-.014-.07-.027-.112-.036l-.032-.008Zm-.33 0-.363-.871.69-.793v1.67l-.032.007c-.035.007-.088.018-.096.031a.314.314 0 0 0-.022.142c0 .082-.05.158-.17.28.031-.058.064-.133.105-.238.069-.176.022-.274-.112-.228Z" clip-rule="evenodd"/><path fill="#D00F3A" fill-rule="evenodd" d="M9.89 8.608h-.306v3.034h.305V8.608Zm.608 0h-.304v3.034h.304V8.608Zm.305 0h.305v3.034h-.305V8.608Zm.914 0h-.305v3.034h.305V8.608Zm1.32-3.25h-.304v3.034h.304V5.358Zm.61 0h-.305v3.034h.305V5.358Zm.305 0h.304v3.034h-.304V5.358Zm.914 0h-.305v3.034h.305V5.358Z" clip-rule="evenodd"/></g></g></g><path stroke="#000" stroke-opacity=".1" stroke-width=".5" d="M.25.25h23.5v17.5H.25z"/><defs><clipPath id="a"><path fill="#fff" d="M0 0h24v18H0z"/></clipPath></defs></svg>