<svg xmlns="http://www.w3.org/2000/svg" fill="none" viewBox="0 0 24 18"><g clip-path="url(#a)"><mask id="b" width="24" height="18" x="0" y="0" maskUnits="userSpaceOnUse" style="mask-type:luminance"><path fill="#fff" d="M0 0h24v18H0z"/></mask><g fill-rule="evenodd" clip-rule="evenodd" mask="url(#b)"><path fill="#5EAA22" d="M0 0h24v18H0z"/><path fill="#4141DB" d="m0 0 24 18H0z"/><path fill="#fff" d="m4.5 6.75-.75.549.1-.924L3 6l.85-.375-.1-.924.75.549.75-.549-.1.924L6 6l-.85.375.1.924zM3 11.25l-.75.549.1-.924-.85-.375.85-.375-.1-.924.75.549.75-.549-.1.924.85.375-.85.375.1.924zm3 4.5-.75.549.1-.924L4.5 15l.85-.375-.1-.924.75.549.75-.549-.1.924.85.375-.85.375.1.924zm.75-7.125-.375.275.05-.463L6 8.25l.425-.187-.05-.463.375.275.375-.275-.05.463.425.187-.425.188.05.462z"/><path fill="#FECA00" d="M16.17 9.168c-.28-.293 2.243-.98 2.505-1.866.346-.771.115-1.397-1.195-1.946s-2.633-1.61-1.11-1.61c1.521 0 1.521.217 1.93.857s1.293.777 1.311 0c0-1.324.125-1.503-.944-2.654s2.681.473 2.371 2.447-.683 1.337-.446 1.668 1.662-.697 1.484.673c-.499.788-1.488 1.96-5.905 2.43"/><path fill="#FECA00" d="M12 12.75a3.75 3.75 0 1 0 0-7.5 3.75 3.75 0 0 0 0 7.5"/><path fill="#548650" d="M9.715 7.622c.425-.095 1.007 1.044 2.057.617s1.269-1.243 1.768-.945c.498.299.564 1.017.232 1.379-.333.36-.897.446-.897.903s-.11 2.085-.326 1.613c-.646-.524-.252-1.36-1.047-1.613-.796-.254-1.28-.245-1.867-.138s.394-.294.603-.675c.423-.407-.718-1.006-.523-1.141"/></g></g><rect width="23" height="17" x=".5" y=".5" stroke="#000" stroke-opacity=".1" rx="1.5"/><defs><clipPath id="a"><rect width="24" height="18" fill="#fff" rx="2"/></clipPath></defs></svg>