<svg xmlns="http://www.w3.org/2000/svg" fill="none" viewBox="0 0 24 18"><g clip-path="url(#a)"><path fill="#043CAE" d="M0 0h24v18H0z"/><path fill="#FFD429" fill-rule="evenodd" d="M11.192 4.016 12 3.78l.808.236-.237-.808.237-.808-.808.237-.808-.237.236.808zm0 11.429.808-.237.808.237-.237-.808.237-.808-.808.236-.808-.236.236.808zm6.522-5.951-.808.237.237-.809-.237-.808.808.237.808-.237-.236.808.236.809zM5.478 9.73l.808-.237.808.237-.237-.809.237-.808-.808.237-.808-.237.236.808zm11.47-3.094-.807.236.236-.808-.236-.808.808.237.808-.237-.237.808.237.808zm-10.705 5.95.808-.236.808.237-.236-.808.236-.808-.808.236-.808-.236.237.808zm8.614-8.042-.808.237.237-.808-.237-.808.808.236.808-.236-.236.808.236.808zM8.335 14.68l.808-.236.808.236-.237-.808.237-.808-.808.237-.808-.237.236.808zm8.614-2.328-.808.237.236-.808-.236-.808.808.236.808-.236-.237.808.237.808zM6.243 6.873l.808-.236.808.236-.236-.808.236-.808-.808.237-.808-.237.237.808zm8.614 7.57-.808.236.237-.808-.237-.808.808.237.808-.237-.236.808.236.808zM8.335 4.782l.808-.237.808.237-.237-.808.237-.808-.808.236-.808-.236.236.808z" clip-rule="evenodd"/></g><rect width="23" height="17" x=".5" y=".5" stroke="#000" stroke-opacity=".1" rx="1.5"/><defs><clipPath id="a"><rect width="24" height="18" fill="#fff" rx="2"/></clipPath></defs></svg>