<svg xmlns="http://www.w3.org/2000/svg" fill="none" viewBox="0 0 24 18"><g clip-path="url(#a)"><mask id="b" width="24" height="18" x="0" y="0" maskUnits="userSpaceOnUse" style="mask-type:luminance"><path fill="#fff" d="M0 0h24v18H0z"/></mask><g mask="url(#b)"><path fill="#5DAA22" fill-rule="evenodd" d="M0 0v18h24V0H0Z" clip-rule="evenodd"/><mask id="c" width="24" height="18" x="0" y="0" maskUnits="userSpaceOnUse" style="mask-type:luminance"><path fill="#fff" fill-rule="evenodd" d="M0 0v18h24V0H0Z" clip-rule="evenodd"/></mask><g mask="url(#c)"><path fill="#F7FCFF" fill-rule="evenodd" d="M0 0v9h24V0H0Z" clip-rule="evenodd"/><mask id="d" width="22" height="16" x="1.25" y="1.25" fill="#000" maskUnits="userSpaceOnUse"><path fill="#fff" d="M1.25 1.25h22v16h-22z"/><path fill-rule="evenodd" d="M11.019 6.68c-.014-.427-.027-.838.5-1.329 1.375-1.221 2.774-2.18 4.336-3.101-.316.564-.543 1.612.288 1.679.266.004 3.187-1.306 3.187-1.306-1.015.79-2.184 1.893-.827 2.37-1.245.414-2.277 1.756-1.373 2.837-.646-.196-1.494.249-1.647.75.16-.002.44.023.784.053 1.245.11 3.313.292 3.418-.423-.67.349-1.833.207-1.868-.795.01-.86 1.22-1.343 2.25-.699.054-.116.106-.231.158-.347l.16-.352-.136.018c-.325.045-.63.088-.973.003.794-.803 1.54-1.593 2.216-2.484-.149 1.11 0 2.719.258 3.245a1.594 1.594 0 0 1-.835-.773l-.183.606-.184.608c.591 1.28-.041 3.178-.375 4.18-.104.311-.18.536-.18.628-.27.11-.47-.06-.668-.23-.1-.085-.198-.17-.307-.22.17.474.05 1.222-.056 1.877-.04.246-.078.478-.097.678a.937.937 0 0 0 .15.59.42.42 0 0 1 .027.05c.162.067.536.25.562.275 0 0 .34.017.434.524-.227-.293-.536-.2-.536-.2a7.4 7.4 0 0 0-.057.041l-.06.043-.273-.174c-.301-.214-.608-.203-.936-.051a.472.472 0 0 1-.5.017c-.167-.194-.511-.057-.58-.03l-.013.005c-.007 0-.429.3-.429.3s-.101-.025-.109-.025c-.017 0-.28-.003-.624.232.092-.509.437-.5.437-.5-.021-.07.004-.086.03-.101.012-.008.025-.016.032-.03.075-.09.208-.11.34-.13.066-.009.132-.019.19-.037-.14-.05-.406-.122-.594-.104-.09.009-.136.038-.175.062-.058.037-.1.062-.244-.008l.007-.025.008-.025c-.222-.02-.396-.03-.523.191-.011-.325.213-.418.395-.492a2.5 2.5 0 0 0 .073-.032c.085-.14.457-.135.445-.124a2.167 2.167 0 0 0-.17-.209c-.032-.037-.056-.063-.056-.066 0-.008-.288-.194-.492.017.04-.442.693-.448.757-.383l.192.2.19.199.177.119.183.123c.197.093.708.018.966-.275.15-.172.154-.493.156-.656l.001-.068c.012-.225 0-.48-.011-.694-.012-.245-.021-.437.011-.47-.172-.066-.264-.223-.305-.292-.012-.02-.02-.033-.023-.033-.094.02-.84.182-1.576-.033-.582-.17-1.17-.512-1.525-.719-.18-.104-.3-.174-.332-.171-.1.175-.149.216-.243.295-.04.034-.09.075-.155.137-.222.247-.143.662.03.857l.82.333c.625.039.774.42.765.79a18.91 18.91 0 0 1-.762-.277l-.08-.03c-.504.866-1.22 1.473-2.24 1.754.113.057.338.108.521.15.134.031.245.057.275.075.303.068.517.17.515.475-.203-.242-.4-.236-.562-.117-.215.097-.37-.012-.525-.12a.921.921 0 0 0-.24-.138c-.215-.166-.426-.096-.616.008-.177-.123-.374-.092-.576-.06l-.126.02c-.305.032-.652.114-.804.298-.077.065-.12.005-.138-.022-.005-.008-.009-.013-.01-.01-.351-.122-.507.207-.507.207-.083-.38.097-.462.288-.516l-.39-.24a.148.148 0 0 0-.008-.029c-.008-.024-.01-.032.047-.046-.153-.105-.307-.025-.476.14.015-.347.417-.563.586-.448a.402.402 0 0 1 .506.032c.184.149.464.169.648.109a.612.612 0 0 0-.476-.383c-.201-.052-.434-.127-.366-.258-.124-.188-.302-.13-.5.025.07-.429.78-.454.89-.316.115.033.164.101.213.169.025.034.05.068.083.097.192.21.49.318.734.358.449-.054.902-.431 1.19-.67.108-.09.193-.161.245-.187 0 0-.298-.028-.32-.233-.094 0-.19-.14-.313-.319-.182-.264-.422-.614-.802-.721-.669-.19-2.224.401-2.453.488l-.029.011c-.04.377-.321.724-.321.724a3.143 3.143 0 0 0-.16-.345c-.112-.216-.217-.419-.206-.656-.302.419-.52.642-.739.866a8.701 8.701 0 0 0-.345.368c-.293.32-.443.698-.546 1.115.219.133.827.25.827.25.267.005.463.162.46.457-.237-.262-.476-.1-.476-.1-.194.173-.442.095-.679 0-.205-.233-.504-.367-.756-.166-.146.127-.254.1-.378.068a.606.606 0 0 0-.535.073c-.336.326-.802.356-.93.158 0 0-.21-.008-.577.124.094-.606.46-.398.46-.398l-.007-.1-.008-.091-.133-.05c-.236-.112-.53-.084-.662.033.09-.398.437-.4.694-.358a.543.543 0 0 0 .077-.178l.024-.071-.018-.02c-.136-.145-.255-.274-.427-.122.074-.75.934-.193 1.191-.027l.043.027c.554.199 1.998-2.068 2.068-2.226-.41-.02-.872.026-1.194.146-.092.297-.254.454-.445.637l-.096.094c.005-.855-.375-1.287-.92-1.907l-.093-.105c-.68-.476-.982-1.434-1.037-1.747-.104.292-.181.38-.204.407l-.007.009c-.152.175-.616.547-.554.308-.209-.053-.026-.239.078-.308.027-.006.07-.085.12-.175.071-.127.153-.275.216-.266l.132-1.306c-.08-.035-.116-.162-.163-.33a3.062 3.062 0 0 0-.118-.355c-.146-.346-.416-.722-.53-.755.362-.067.5.08.598.18.04.043.073.078.112.086.083.053.152.245.227.454.062.172.128.356.21.487-.139-.477-.068-.799.07-1.215a.654.654 0 0 0-.296-.574c.388-.01.572.37.62.468l.011.023c.167.23.098.42.043.57-.037.101-.067.185-.02.254.03-.023.053-.056.077-.09.048-.066.097-.132.182-.119.107-.124.187-.26.18-.54.268.164.202.404.116.64.016.353-.03.45-.25.574-.219.14-.26.255-.234.425.266.303.32 1.24.32 1.24a.508.508 0 0 1 .35.532.517.517 0 0 1 .524.374c.15-.15.36-.01.507.15.052-.083.162-.123.281-.075 0-.147.077-.239.203-.358-.303-.25.015-2.087.235-2.137-.071-.498.73-2.091.928-2.122 0-.008-.133-.333-.133-.333s-.635.102-.749.724c-.078-.13-.156-.324-.156-.324s-.553.723-.56.706c-.22-.142-.121-.49-.121-.49-.106-.124-.129-.27-.151-.416a1.51 1.51 0 0 0-.044-.217 44.773 44.773 0 0 1-.745-.041 36.164 36.164 0 0 0-.743-.041s.202.399.202.39c-.21.004-1.243-.937-1.443-1.739.522.437 1.078.558 1.668.686l.025.005a161.317 161.317 0 0 0-.476.25c1.645.15 3.348-.175 3.34-.183-.184-.41-.788-.408-.788-.408l-.026.25-.415.124s-.336.008-.34 0c-.076-.416-.444-.424-.444-.424-.289-.04-.535-.009-.781.021-.123.016-.246.03-.374.037.479-.64 1.108-.688 1.74-.735.115-.01.23-.018.344-.03.054-.336.33-.434.655-.482l1.529.082c.196-.275.804-.39.804-.39.213-.114.546-.132.866-.132-.05.378-.521.792-.698.914-.18.29-.164.32-.096.449l.022.041.18.333c.303.1.524.237.592.45-.328-.043-.567.022-.562.174.005.075.12.123.226.166.05.02.098.04.131.062a.787.787 0 0 1 .26.588.698.698 0 0 1-.258-.097c-.178-.091-.356-.183-.468.055-.08.175.009.411.219.49.385.113.42.675.413.675a.12.12 0 0 1-.012-.006c-.089-.04-.628-.293-.59.222-.002.04-.026.068-.054.101-.051.06-.116.137-.094.323.043.36.1.736.125.816l.725-.157.743-.16c.213-.208.31-.552.289-.923.005-.11.001-.22-.002-.327Zm8.609.86c-.224-.253-.454-.34-.645-.337-.28.004-.48.2-.46.348.062.49.997.32 1.105-.01Z" clip-rule="evenodd"/></mask><path fill="#D21034" fill-rule="evenodd" d="M11.019 6.68c-.014-.427-.027-.838.5-1.329 1.375-1.221 2.774-2.18 4.336-3.101-.316.564-.543 1.612.288 1.679.266.004 3.187-1.306 3.187-1.306-1.015.79-2.184 1.893-.827 2.37-1.245.414-2.277 1.756-1.373 2.837-.646-.196-1.494.249-1.647.75.16-.002.44.023.784.053 1.245.11 3.313.292 3.418-.423-.67.349-1.833.207-1.868-.795.01-.86 1.22-1.343 2.25-.699.054-.116.106-.231.158-.347l.16-.352-.136.018c-.325.045-.63.088-.973.003.794-.803 1.54-1.593 2.216-2.484-.149 1.11 0 2.719.258 3.245a1.594 1.594 0 0 1-.835-.773l-.183.606-.184.608c.591 1.28-.041 3.178-.375 4.18-.104.311-.18.536-.18.628-.27.11-.47-.06-.668-.23-.1-.085-.198-.17-.307-.22.17.474.05 1.222-.056 1.877-.04.246-.078.478-.097.678a.937.937 0 0 0 .15.59.42.42 0 0 1 .027.05c.162.067.536.25.562.275 0 0 .34.017.434.524-.227-.293-.536-.2-.536-.2a7.4 7.4 0 0 0-.057.041l-.06.043-.273-.174c-.301-.214-.608-.203-.936-.051a.472.472 0 0 1-.5.017c-.167-.194-.511-.057-.58-.03l-.013.005c-.007 0-.429.3-.429.3s-.101-.025-.109-.025c-.017 0-.28-.003-.624.232.092-.509.437-.5.437-.5-.021-.07.004-.086.03-.101.012-.008.025-.016.032-.03.075-.09.208-.11.34-.13.066-.009.132-.019.19-.037-.14-.05-.406-.122-.594-.104-.09.009-.136.038-.175.062-.058.037-.1.062-.244-.008l.007-.025.008-.025c-.222-.02-.396-.03-.523.191-.011-.325.213-.418.395-.492a2.5 2.5 0 0 0 .073-.032c.085-.14.457-.135.445-.124a2.167 2.167 0 0 0-.17-.209c-.032-.037-.056-.063-.056-.066 0-.008-.288-.194-.492.017.04-.442.693-.448.757-.383l.192.2.19.199.177.119.183.123c.197.093.708.018.966-.275.15-.172.154-.493.156-.656l.001-.068c.012-.225 0-.48-.011-.694-.012-.245-.021-.437.011-.47-.172-.066-.264-.223-.305-.292-.012-.02-.02-.033-.023-.033-.094.02-.84.182-1.576-.033-.582-.17-1.17-.512-1.525-.719-.18-.104-.3-.174-.332-.171-.1.175-.149.216-.243.295-.04.034-.09.075-.155.137-.222.247-.143.662.03.857l.82.333c.625.039.774.42.765.79a18.91 18.91 0 0 1-.762-.277l-.08-.03c-.504.866-1.22 1.473-2.24 1.754.113.057.338.108.521.15.134.031.245.057.275.075.303.068.517.17.515.475-.203-.242-.4-.236-.562-.117-.215.097-.37-.012-.525-.12a.921.921 0 0 0-.24-.138c-.215-.166-.426-.096-.616.008-.177-.123-.374-.092-.576-.06l-.126.02c-.305.032-.652.114-.804.298-.077.065-.12.005-.138-.022-.005-.008-.009-.013-.01-.01-.351-.122-.507.207-.507.207-.083-.38.097-.462.288-.516l-.39-.24a.148.148 0 0 0-.008-.029c-.008-.024-.01-.032.047-.046-.153-.105-.307-.025-.476.14.015-.347.417-.563.586-.448a.402.402 0 0 1 .506.032c.184.149.464.169.648.109a.612.612 0 0 0-.476-.383c-.201-.052-.434-.127-.366-.258-.124-.188-.302-.13-.5.025.07-.429.78-.454.89-.316.115.033.164.101.213.169.025.034.05.068.083.097.192.21.49.318.734.358.449-.054.902-.431 1.19-.67.108-.09.193-.161.245-.187 0 0-.298-.028-.32-.233-.094 0-.19-.14-.313-.319-.182-.264-.422-.614-.802-.721-.669-.19-2.224.401-2.453.488l-.029.011c-.04.377-.321.724-.321.724a3.143 3.143 0 0 0-.16-.345c-.112-.216-.217-.419-.206-.656-.302.419-.52.642-.739.866a8.701 8.701 0 0 0-.345.368c-.293.32-.443.698-.546 1.115.219.133.827.25.827.25.267.005.463.162.46.457-.237-.262-.476-.1-.476-.1-.194.173-.442.095-.679 0-.205-.233-.504-.367-.756-.166-.146.127-.254.1-.378.068a.606.606 0 0 0-.535.073c-.336.326-.802.356-.93.158 0 0-.21-.008-.577.124.094-.606.46-.398.46-.398l-.007-.1-.008-.091-.133-.05c-.236-.112-.53-.084-.662.033.09-.398.437-.4.694-.358a.543.543 0 0 0 .077-.178l.024-.071-.018-.02c-.136-.145-.255-.274-.427-.122.074-.75.934-.193 1.191-.027l.043.027c.554.199 1.998-2.068 2.068-2.226-.41-.02-.872.026-1.194.146-.092.297-.254.454-.445.637l-.096.094c.005-.855-.375-1.287-.92-1.907l-.093-.105c-.68-.476-.982-1.434-1.037-1.747-.104.292-.181.38-.204.407l-.007.009c-.152.175-.616.547-.554.308-.209-.053-.026-.239.078-.308.027-.006.07-.085.12-.175.071-.127.153-.275.216-.266l.132-1.306c-.08-.035-.116-.162-.163-.33a3.062 3.062 0 0 0-.118-.355c-.146-.346-.416-.722-.53-.755.362-.067.5.08.598.18.04.043.073.078.112.086.083.053.152.245.227.454.062.172.128.356.21.487-.139-.477-.068-.799.07-1.215a.654.654 0 0 0-.296-.574c.388-.01.572.37.62.468l.011.023c.167.23.098.42.043.57-.037.101-.067.185-.02.254.03-.023.053-.056.077-.09.048-.066.097-.132.182-.119.107-.124.187-.26.18-.54.268.164.202.404.116.64.016.353-.03.45-.25.574-.219.14-.26.255-.234.425.266.303.32 1.24.32 1.24a.508.508 0 0 1 .35.532.517.517 0 0 1 .524.374c.15-.15.36-.01.507.15.052-.083.162-.123.281-.075 0-.147.077-.239.203-.358-.303-.25.015-2.087.235-2.137-.071-.498.73-2.091.928-2.122 0-.008-.133-.333-.133-.333s-.635.102-.749.724c-.078-.13-.156-.324-.156-.324s-.553.723-.56.706c-.22-.142-.121-.49-.121-.49-.106-.124-.129-.27-.151-.416a1.51 1.51 0 0 0-.044-.217 44.773 44.773 0 0 1-.745-.041 36.164 36.164 0 0 0-.743-.041s.202.399.202.39c-.21.004-1.243-.937-1.443-1.739.522.437 1.078.558 1.668.686l.025.005a161.317 161.317 0 0 0-.476.25c1.645.15 3.348-.175 3.34-.183-.184-.41-.788-.408-.788-.408l-.026.25-.415.124s-.336.008-.34 0c-.076-.416-.444-.424-.444-.424-.289-.04-.535-.009-.781.021-.123.016-.246.03-.374.037.479-.64 1.108-.688 1.74-.735.115-.01.23-.018.344-.03.054-.336.33-.434.655-.482l1.529.082c.196-.275.804-.39.804-.39.213-.114.546-.132.866-.132-.05.378-.521.792-.698.914-.18.29-.164.32-.096.449l.022.041.18.333c.303.1.524.237.592.45-.328-.043-.567.022-.562.174.005.075.12.123.226.166.05.02.098.04.131.062a.787.787 0 0 1 .26.588.698.698 0 0 1-.258-.097c-.178-.091-.356-.183-.468.055-.08.175.009.411.219.49.385.113.42.675.413.675a.12.12 0 0 1-.012-.006c-.089-.04-.628-.293-.59.222-.002.04-.026.068-.054.101-.051.06-.116.137-.094.323.043.36.1.736.125.816l.725-.157.743-.16c.213-.208.31-.552.289-.923.005-.11.001-.22-.002-.327Zm8.609.86c-.224-.253-.454-.34-.645-.337-.28.004-.48.2-.46.348.062.49.997.32 1.105-.01Z" clip-rule="evenodd"/><path fill="#000" d="m11.52 5.351-.166-.187-.005.004.17.183Zm-.501 1.33.25-.008-.25.007Zm4.836-4.431.218.122.454-.808-.799.47.127.216Zm.288 1.679-.02.25h.016l.004-.25Zm3.187-1.306.154.197-.256-.425.102.228Zm-.827 2.37.079.238.694-.23-.69-.244-.083.236ZM17.13 7.83l-.072.24.802.243-.538-.643-.192.16Zm-1.647.75-.239-.073-.099.325.34-.003-.002-.25Zm.784.053.022-.249-.022.25Zm3.418-.423.247.036.07-.484-.433.226.116.222Zm-1.868-.795-.25-.003v.011l.25-.008Zm2.25-.699-.132.212.242.15.118-.258-.227-.104Zm.158-.347.228.102-.228-.102Zm.16-.352.227.104.188-.411-.448.059.032.248Zm-.136.018-.034-.247.034.247Zm-.973.003-.178-.176-.308.312.426.106.06-.242Zm2.216-2.484.248.034.126-.94-.573.755.199.151ZM21.75 6.8l-.09.233.595.228-.28-.571-.225.11Zm-.835-.773.226-.106-.276-.594-.19.627.24.073Zm-.183.606-.24-.073.24.073Zm-.184.608-.24-.072-.027.09.04.087.227-.105Zm-.375 4.18.237.078-.237-.079Zm-.18.628.094.232.157-.063v-.169h-.25Zm-.668-.23.162-.19-.162.19Zm-.307-.22.105-.226-.543-.25.203.562.235-.085Zm-.056 1.877-.247-.04.247.04Zm-.097.678.249.024-.249-.024Zm.15.59-.216.127.216-.127Zm.027.05-.233.089.038.101.1.041.095-.23Zm.562.275-.173.18.067.066.094.004.012-.25Zm.434.524-.198.153.444-.198-.246.045Zm-.536-.2-.072-.24-.04.013-.033.024.145.203Zm-.057.041-.146-.203.146.203Zm-.06.043-.134.21.142.091.137-.097-.145-.204Zm-.273-.174-.144.204.01.006.134-.21Zm-.936-.051-.105-.227-.016.007-.014.01.135.21Zm-.5.017-.19.163.032.036.042.022.116-.221Zm-.58-.03-.093-.232.093.232Zm-.442.305-.06.243.112.027.093-.067-.145-.203Zm-.109-.025-.002.25h.002v-.25Zm0 0-.003.25.002-.25Zm-.624.232-.246-.045-.107.589.494-.338-.141-.206Zm.437-.5-.007.25.346.01-.1-.331-.239.072Zm.03-.101.13.213-.13-.213Zm.032-.03-.191-.162-.021.025-.014.03.226.106Zm.34-.13.036.248-.036-.247Zm.19-.037.076.238.71-.223-.701-.25-.084.235Zm-.594-.104-.024-.249.024.25Zm-.175.062.132.213-.132-.213Zm-.244-.008-.239-.075-.064.206.193.094.11-.225Zm.015-.05.238.075.092-.295-.307-.029-.023.25Zm-.523.191-.25.01.03.877.437-.762-.217-.124Zm.395-.492.095.23-.095-.23Zm.073-.032.103.228.071-.032.04-.066-.214-.13Zm.445-.124-.212.132.157.251.221-.196-.166-.187Zm-.17-.209-.188.165.188-.165Zm-.548-.05-.248-.021-.064.706.493-.51-.18-.174Zm.757-.382.181-.173-.004-.004-.177.177Zm.192.2.18-.174-.18.173Zm.19.199-.18.172.019.02.022.015.14-.207Zm.177.119.14-.207-.14.207Zm.183.123-.14.207.016.01.017.009.107-.226Zm.966-.275-.188-.165.188.165Zm.156-.656-.25-.002.25.002Zm.001-.068-.25-.013.25.013Zm-.011-.694.25-.012-.25.012Zm.011-.47.18.173.264-.273-.356-.134-.088.234Zm-.305-.292-.216.126.216-.126Zm-.023-.033v-.25h-.027l-.026.005.053.245Zm-1.576-.033.07-.24-.07.24Zm-1.525-.719-.126.216.126-.216Zm-.332-.171-.024-.249-.129.013-.064.112.217.124Zm-.243.295-.16-.191.16.191Zm-.155.137-.172-.18-.007.006-.007.007.186.167Zm.03.857-.186.167.039.043.054.022.094-.232Zm.82.333-.093.232.037.015.041.003.015-.25Zm.765.79-.076.238.318.102.008-.334-.25-.006Zm-.762-.277.089-.234-.09.234Zm-.08-.03.088-.234-.198-.075-.106.183.216.126Zm-2.24 1.754-.067-.24-.626.172.58.292.113-.224Zm.521.15-.056.244.056-.244Zm.275.075-.134.212.037.023.042.01.055-.245Zm.515.475-.191.16.435.518.006-.676-.25-.002Zm-.562-.117.102.228.025-.01.022-.017-.149-.2Zm-.525-.12-.143.204.143-.205Zm-.24-.138-.152.198.033.026.04.013.08-.237Zm-.616.008-.143.205.127.089.136-.075-.12-.219Zm-.576-.06-.04-.246.04.247Zm-.126.02.026.248h.006l-.032-.249Zm-.804.298.161.191.018-.014.014-.018-.193-.159Zm-.138-.022-.205.142.205-.142Zm-.01-.01-.082.236.153.052.11-.117-.181-.172Zm-.507.207-.244.053.156.715.314-.661-.226-.107Zm.288-.516.068.241.547-.154-.484-.3-.131.213Zm-.39-.24-.246.041.019.111.096.06.131-.213Zm-.008-.029-.236.082.236-.082Zm.047-.046.062.242.537-.136-.458-.313-.14.207Zm-.476.14-.25-.011-.029.632.453-.442-.174-.18Zm.586-.448-.14.206.15.103.144-.113-.154-.196Zm.506.032-.166.187.01.008.156-.195Zm.648.109.077.238.241-.078-.081-.24-.237.08Zm-.476-.383-.063.242.023.006.024.002.016-.25Zm-.366-.258.222.115.067-.13-.08-.122-.21.137Zm-.5.025-.247-.04-.104.631.505-.394-.154-.197Zm.89-.316-.196.156.05.063.077.022.069-.24Zm.213.169-.202.147.203-.147Zm.083.097.184-.168-.008-.01-.01-.008-.166.186Zm.734.358-.041.247.035.006.036-.005-.03-.248Zm1.19-.67-.16-.192.16.192Zm.245-.187.111.224.787-.39-.874-.083-.024.25Zm-.32-.233.25-.025-.024-.224-.224-.001-.002.25Zm-.313-.319-.206.142.206-.142Zm-.802-.721.068-.24-.068.24Zm-2.453.488.088.234-.088-.234Zm-.029.011v-.25H8.9l-.023.224.248.026Zm-.321.724-.234.088.153.41.275-.34-.194-.158Zm-.16-.345-.223.115.222-.115Zm-.206-.656.25.012.041-.843-.494.685.203.146Zm-.739.866-.179-.175.18.175Zm-.345.368.185.168.003-.004-.188-.164Zm-.546 1.115-.242-.06-.044.177.156.096.13-.213Zm.827.25-.047.245.021.004h.021l.005-.25Zm.46.457-.185.168.43.473.005-.639-.25-.002Zm-.476-.1-.14-.206-.013.009-.012.01.165.187Zm-.679 0-.188.165.04.045.055.023.093-.233Zm-.756-.166-.156-.196-.008.007.164.189Zm-.378.068.06-.242-.06.242Zm-.535.073-.128-.214-.025.015-.021.02.174.18Zm-.93.158.211-.135-.07-.11-.13-.005-.01.25Zm-.577.124-.247-.038-.064.417.396-.143-.085-.236Zm.46-.398-.122.217.41.234-.038-.471-.25.02Zm-.007-.1.249-.021-.25.02Zm-.008-.091.25-.02-.014-.159-.148-.056-.088.235Zm-.133-.05-.106.226.009.004.01.004.087-.234Zm-.662.033-.244-.056-.172.757.581-.514-.165-.187Zm.694-.358-.04.247.14.023.091-.109-.19-.161Zm.077-.178.239.075-.239-.075Zm.024-.071.234.087.054-.145-.105-.113-.183.17Zm-.018-.02.183-.17-.183.17Zm-.427-.122-.249-.024-.062.633.477-.421-.166-.188Zm1.191-.027-.136.21.136-.21Zm.043.027-.133.212.023.015.026.009.084-.236Zm2.068-2.226.229.102.148-.334-.365-.018-.012.25Zm-1.194.146-.087-.235-.116.043-.036.118.239.074Zm-.445.637-.173-.18.173.18Zm-.096.094-.25-.001-.004.605.43-.426-.176-.178Zm-.92-1.907.187-.165-.187.165Zm-.093-.105.188-.165-.02-.022-.024-.018-.144.205ZM3.28 9.145l.246-.044-.163-.932-.318.891.235.085Zm-.204.407-.189-.164.189.164Zm-.007.009.189.163.06-.07v-.093h-.25Zm-.554.308.242.063.064-.244-.245-.062-.06.243Zm.078-.308-.05-.245-.048.01-.04.027.138.208Zm.12-.175.22.121-.22-.12Zm.216-.266-.034.247.256.035.026-.257-.248-.025Zm.132-1.306.249.026.018-.18-.165-.074-.102.228Zm-.163-.33.24-.068-.24.068Zm-.118-.355.23-.097-.23.097Zm-.53-.755-.045-.245-.024.486.069-.24Zm.598.18-.181.173.18-.172Zm.112.086.135-.21-.039-.025-.045-.01-.05.245Zm.227.454.236-.084-.236.084Zm.21.487-.212.133.452-.203-.24.07Zm.07-1.215.237.08.013-.039v-.04h-.25Zm-.296-.574-.007-.25-.832.022.706.44.133-.212Zm.62.468.224-.11-.225.11Zm.011.023.203-.146-.01-.013-.01-.012-.183.17Zm.043.57.235.086-.235-.085Zm-.02.254-.204.143.153.22.209-.169-.157-.194Zm.077-.09.203.148-.203-.147Zm.182-.119-.039.248.138.02.09-.105-.19-.163Zm.18-.54.13-.213L4 5.905l.013.46.25-.007Zm.116.64-.235-.086-.017.047.002.05.25-.01Zm-.25.574-.123-.218-.01.007.133.211Zm-.234.425-.247.038.01.072.049.054.188-.164Zm.32 1.24-.25.014.01.17.164.053.076-.238Zm.35.532-.248-.018-.022.295.295-.028-.024-.249Zm.524.374-.245.05.094.456.328-.33-.177-.176Zm.507.15-.185.17.224.243.173-.281-.212-.132Zm.281-.075-.092.232.343.136v-.369h-.25Zm.203-.358.172.181.205-.194-.218-.18-.159.193Zm.235-2.137.055.243.225-.051-.033-.228-.247.036ZM7.244 5.6l.038.247.212-.032V5.6h-.25Zm-.133-.333.231-.094-.075-.184-.195.031.039.247Zm-.749.724-.213.13.341.563.118-.648-.246-.045Zm-.156-.324.232-.093-.163-.409-.267.35.198.152Zm-.56.706.226-.106-.03-.065-.06-.039-.137.21Zm-.121-.49.24.068.037-.129-.087-.102-.19.163Zm-.151-.416-.247.038.247-.038ZM5.33 5.25l.238-.073-.051-.168-.176-.008-.011.25Zm-.745-.041.015-.25-.015.25Zm-.743-.041.011-.25-.429-.02.195.383.223-.113Zm.202.39h.25v-.255l-.254.005.004.25ZM2.601 3.82l.16-.191-.588-.493.186.745.242-.06Zm1.668.686.053-.245-.053.245Zm.025.005.116.221.61-.32-.673-.145-.053.244Zm-.236.124.116.221-.116-.22Zm-.24.126-.116-.221-.75.393.844.077.022-.249Zm3.34-.183-.228.102.017.039.029.03.182-.171ZM6.37 4.17v-.25h-.226l-.023.225.249.025Zm-.026.25.071.24.16-.047.018-.167-.249-.025Zm-.415.124.006.25.033-.001.032-.01-.071-.24Zm-.34 0-.245.045.005.032.014.029.226-.106Zm-.444-.424-.034.248.014.002h.014l.006-.25Zm-.781.021-.03-.248.03.248Zm-.374.037-.2-.15-.319.427.532-.027-.013-.25Zm1.74-.735-.019-.25.02.25Zm.344-.03.026.248.19-.02.03-.188-.246-.04Zm.655-.482.013-.25-.025-.001-.025.003.037.248Zm1.529.082v.25h.129l.075-.105-.204-.145Zm.804-.39.046.245.038-.007.033-.018-.117-.22Zm.866-.132.248.032.037-.282h-.285v.25Zm-.698.914-.142-.206-.043.03-.028.044.213.132Zm-.096.449.222-.117-.222.117Zm.022.041-.223.113.003.006.22-.119Zm.18.333-.22.119.047.087.094.031.078-.237Zm.592.45-.032.247.39.05-.12-.374-.238.076Zm-.562.174-.25.008v.006l.25-.014Zm.226.166-.095.231.095-.231Zm.131.062.177-.177-.018-.018-.022-.014-.137.209Zm.26.588-.014.25.275.015-.011-.275-.25.01Zm-.258-.097-.115.223.115-.223Zm-.468.055L9.03 5.52l-.001.002.227.104Zm.219.49-.089.234.01.004.008.002.07-.24Zm.4.67.106-.227-.105.226Zm-.588.221.25.014v-.016l-.001-.017-.25.02Zm-.055.101.19.162-.19-.162Zm-.094.323-.248.03.248-.03Zm.125.816-.237.077.07.215.22-.048-.053-.244Zm.725-.157-.053-.244.053.244Zm.743-.16.052.244.07-.015.052-.05-.174-.18Zm.289-.923-.25-.011v.025l.25-.014Zm7.962.196.003.25-.003-.25Zm.645.337.237.078.044-.136-.094-.107-.188.165Zm-1.105.011-.248.032.248-.032Zm-7.174-2.383c-.292.272-.448.536-.523.804-.073.26-.064.508-.057.716l.5-.015c-.007-.219-.01-.39.038-.566.047-.167.148-.354.383-.573l-.34-.366Zm4.38-3.133c-1.573.927-2.986 1.894-4.375 3.13l.332.373c1.36-1.208 2.744-2.157 4.296-3.073l-.254-.43Zm.434 1.645c-.15-.012-.222-.064-.263-.116a.494.494 0 0 1-.081-.294c-.006-.282.11-.64.254-.898l-.436-.244c-.172.307-.327.754-.318 1.154a.984.984 0 0 0 .187.59c.14.18.352.285.617.306l.04-.498Zm3.167-1.057-.102-.228h-.002a.607.607 0 0 0-.006.003l-.025.011a37.907 37.907 0 0 1-.426.19c-.278.122-.65.286-1.03.449a40.93 40.93 0 0 1-1.077.446c-.154.06-.286.11-.385.143a1.82 1.82 0 0 1-.117.036c-.036.01-.034.006-.013.006l-.008.5c.054 0 .11-.013.147-.022.044-.011.095-.027.15-.046.111-.037.252-.09.409-.152a41.44 41.44 0 0 0 1.09-.452 103.754 103.754 0 0 0 1.371-.6l.093-.041.025-.011a.587.587 0 0 0 .006-.003l.002-.001-.102-.228Zm-.744 2.134c-.308-.108-.405-.229-.434-.309-.029-.081-.018-.207.092-.398.221-.386.728-.832 1.24-1.23l-.307-.395c-.504.392-1.09.893-1.367 1.376-.14.243-.23.532-.128.816.102.286.368.482.738.612l.166-.472ZM17.322 7.67c-.373-.446-.353-.935-.095-1.384.266-.463.783-.866 1.355-1.055l-.158-.475c-.673.223-1.295.698-1.63 1.28-.343.596-.387 1.319.144 1.955l.384-.321Zm-1.6.982c.048-.157.229-.35.508-.483.273-.13.58-.175.828-.1l.145-.478c-.4-.121-.838-.041-1.19.127-.344.165-.664.445-.769.789l.479.145Zm.567-.268c-.337-.03-.633-.056-.808-.055l.004.5c.144 0 .41.022.76.053l.044-.498Zm3.148-.21c-.006.039-.04.112-.24.184-.192.069-.47.109-.805.123-.666.03-1.476-.041-2.103-.097l-.044.498c.618.055 1.464.13 2.17.099.35-.016.687-.058.951-.152.257-.092.52-.265.566-.583l-.495-.072Zm-1.87-.75c.01.3.108.552.27.747.162.193.376.317.602.387.444.137.97.077 1.361-.126l-.231-.444a1.37 1.37 0 0 1-.982.092.758.758 0 0 1-.366-.23.708.708 0 0 1-.154-.444l-.5.017Zm2.633-.92c-.577-.36-1.215-.412-1.722-.239-.504.172-.905.584-.91 1.147l.5.005c.002-.296.21-.555.572-.679.359-.122.841-.093 1.295.19l.265-.424Zm-.203-.238-.157.346.455.208.158-.349-.456-.205Zm.16-.353-.16.353.456.205c.053-.117.105-.234.159-.35l-.455-.208Zm.127.37.133-.019-.065-.495-.137.019.069.495Zm-1.068-.003c.396.099.747.047 1.068.003l-.07-.495c-.329.045-.588.08-.877.007l-.121.485Zm2.077-2.877c-.666.877-1.403 1.658-2.195 2.459l.356.351c.795-.804 1.551-1.604 2.237-2.507l-.398-.303Zm.681 3.286a2.25 2.25 0 0 1-.149-.511 7.426 7.426 0 0 1-.108-.803 8.763 8.763 0 0 1 .023-1.787l-.496-.067a9.247 9.247 0 0 0-.025 1.896c.026.31.065.604.115.858.05.248.113.473.192.634l.448-.22Zm-1.286-.558c.203.437.606.76.973.901l.178-.467c-.26-.1-.556-.34-.698-.645l-.453.211Zm.283.573.183-.606-.479-.145-.183.606.479.145Zm-.184.609.184-.61-.479-.144-.183.609.478.145Zm-.377 4.185c.166-.499.414-1.241.544-2.023.129-.776.148-1.631-.179-2.34l-.454.21c.264.571.263 1.305.14 2.048-.123.738-.358 1.445-.525 1.947l.474.158Zm-.166.55.007-.039c.007-.03.018-.07.033-.122.03-.102.074-.231.126-.389l-.474-.158c-.052.155-.098.293-.131.405-.03.1-.061.214-.061.303h.5Zm-1.081-.04c.093.08.219.19.364.257a.685.685 0 0 0 .56.015l-.186-.464a.186.186 0 0 1-.164-.006 1.2 1.2 0 0 1-.25-.182l-.324.38Zm-.25-.182a1.2 1.2 0 0 1 .25.182l.324-.38c-.093-.08-.219-.19-.364-.256l-.21.454Zm.295 1.689c.053-.325.112-.688.135-1.03.023-.336.014-.684-.09-.971l-.47.17c.067.186.083.449.061.768-.021.314-.076.653-.13.983l.494.08Zm-.094.662c.018-.19.054-.414.094-.662l-.493-.08c-.04.243-.079.484-.099.694l.498.048Zm.116.439a.692.692 0 0 1-.116-.44l-.498-.047c-.036.373.121.635.183.74l.431-.253Zm.046.089c-.014-.037-.039-.077-.046-.09l-.43.255a.948.948 0 0 1 .013.023l.001.002-.005-.013.467-.177Zm.501.183a.253.253 0 0 0-.046-.036.64.64 0 0 0-.086-.049 6.931 6.931 0 0 0-.507-.24l-.191.462a6.448 6.448 0 0 1 .507.244l.005.003-.006-.005-.022-.018.346-.361Zm.507.66c-.058-.313-.2-.504-.355-.613a.679.679 0 0 0-.297-.115h-.009l-.004-.001h-.002l-.013.25-.012.25h-.002v-.001h-.003a.08.08 0 0 1-.006 0l.01.001c.01.004.03.01.052.026.037.026.113.097.149.293l.492-.09Zm-.782-.156.072.24h-.002l-.003.001h.001a.277.277 0 0 1 .083-.002.27.27 0 0 1 .187.114l.396-.305a.77.77 0 0 0-.794-.29l-.007.001-.003.001h-.001l.071.24Zm.09.244.055-.04-.29-.408-.058.042.292.406Zm-.062.044.061-.044-.292-.406-.058.042.29.408Zm-.552-.168.273.175.269-.422-.273-.174-.27.421Zm-.697-.034a.81.81 0 0 1 .365-.09.576.576 0 0 1 .322.118l.289-.408a1.074 1.074 0 0 0-.595-.209 1.304 1.304 0 0 0-.591.135l.21.454Zm-.721.011c.231.121.5.133.751-.028l-.27-.42c-.082.052-.158.053-.249.005l-.232.443Zm-.372-.018a.78.78 0 0 1 .19-.053c.088-.01.107.012.109.013l.378-.327c-.166-.192-.402-.199-.545-.182-.15.017-.28.07-.317.084l.185.465Zm-.105.022a.25.25 0 0 0 .063-.008l.017-.005a.261.261 0 0 0 .025-.01l-.185-.464-.005.002H17a.104.104 0 0 1 .006-.003l.016-.004a.264.264 0 0 1 .018-.004.186.186 0 0 1 .043-.004v.5Zm-.429.05.145.203h.002l.003-.003.013-.01.048-.033a115.634 115.634 0 0 1 .337-.236l.006-.005h.002-.002l-.005.003a.253.253 0 0 1-.018.009l-.024.01c-.006.001-.037.012-.078.012v-.5c-.04 0-.071.01-.078.012a.246.246 0 0 0-.06.03.943.943 0 0 0-.074.05 23.963 23.963 0 0 0-.343.241l-.014.01-.003.002h-.001v.001l.144.204Zm-.109.225a.253.253 0 0 1-.04-.004h.002l.005.002.033.008.035.008a.38.38 0 0 0 .01.002l.004.001.06-.242.06-.243h-.001l-.004-.001-.012-.003-.037-.009a2.44 2.44 0 0 0-.074-.016s-.019-.003-.04-.003v.5Zm-.002 0 .004-.5-.004.5Zm-.481.188c.147-.1.271-.146.356-.168a.67.67 0 0 1 .119-.02h.004l.006-.5c-.053 0-.37.004-.767.275l.282.414Zm.296-.705.007-.25h-.017a.44.44 0 0 0-.096.011.648.648 0 0 0-.21.086c-.166.103-.31.293-.367.607l.492.09c.035-.195.11-.254.14-.274a.144.144 0 0 1 .053-.02h.002-.01l.006-.25Zm-.102-.315c-.003.002-.084.045-.128.138a.346.346 0 0 0-.01.249l.48-.144c-.004-.012.015.038-.016.105-.03.064-.085.091-.063.077l-.263-.425Zm-.063.076a.198.198 0 0 1 .05-.066l.013-.01.263.425a.316.316 0 0 0 .127-.137l-.453-.212Zm.53-.27c-.061.01-.148.022-.23.047a.557.557 0 0 0-.264.168l.382.323c-.004.005-.002-.003.032-.014a1.06 1.06 0 0 1 .153-.029l-.073-.495Zm.153-.029a1.056 1.056 0 0 1-.153.03l.073.494c.062-.009.148-.021.23-.047l-.15-.477Zm-.495.384a.887.887 0 0 1 .24.022c.095.02.185.047.245.068l.169-.47a2.372 2.372 0 0 0-.314-.088 1.364 1.364 0 0 0-.39-.03l.05.498Zm-.068.026a.217.217 0 0 1 .032-.018.125.125 0 0 1 .036-.008l-.05-.498a.607.607 0 0 0-.282.099l.264.425Zm-.486.004a.562.562 0 0 0 .28.069c.107-.007.182-.058.206-.073l-.264-.425-.014.009a.105.105 0 0 1 .041-.01h.018a.488.488 0 0 1-.048-.02l-.219.45Zm-.123-.32-.006.02.477.15.009-.03-.48-.14Zm.009-.03-.009.03.48.14.006-.02-.477-.15Zm-.067.39a.187.187 0 0 1 .043-.054.074.074 0 0 1 .029-.014.684.684 0 0 1 .21.002l.047-.498c-.103-.01-.247-.024-.383.012a.606.606 0 0 0-.38.304l.434.249Zm.083-.848c-.083.035-.23.092-.347.202a.667.667 0 0 0-.203.531l.5-.017c-.003-.095.024-.129.047-.15a.637.637 0 0 1 .193-.103l-.19-.463Zm.066-.028-.066.028.19.463a2.61 2.61 0 0 0 .081-.035l-.205-.456Zm.713.29a.25.25 0 0 0 0-.375c-.048-.041-.1-.053-.1-.054-.025-.007-.047-.009-.054-.01a1.252 1.252 0 0 0-.234.01.914.914 0 0 0-.21.056.463.463 0 0 0-.226.182l.427.259c-.02.032-.038.032-.012.022a.426.426 0 0 1 .093-.023.767.767 0 0 1 .1-.008h.014-.008a.22.22 0 0 1-.055-.017.246.246 0 0 1-.15-.23c0-.1.058-.162.083-.185l.332.374Zm-.524-.23c.063.072.127.145.146.176l.424-.265c-.047-.075-.147-.187-.195-.241l-.375.33Zm-.118-.231c0 .062.024.107.025.11a.266.266 0 0 0 .05.073l.043.048.375-.33a8.147 8.147 0 0 1-.037-.043l-.004-.005.01.013a.225.225 0 0 1 .026.058.25.25 0 0 1 .012.076h-.5Zm-.061.19a.068.068 0 0 1 .035-.022.13.13 0 0 1 .054.002.264.264 0 0 1 .06.022l.012.006s-.002 0-.003-.002a.227.227 0 0 1-.056-.06.252.252 0 0 1-.04-.136h.5c0-.077-.036-.129-.041-.137a.252.252 0 0 0-.055-.06.607.607 0 0 0-.09-.057.77.77 0 0 0-.182-.064.58.58 0 0 0-.555.161l.36.347Zm.753-.733a.305.305 0 0 0-.1-.066.425.425 0 0 0-.073-.022.743.743 0 0 0-.138-.014 1.132 1.132 0 0 0-.32.04c-.218.06-.518.225-.551.6l.498.044c.005-.067.051-.125.186-.163a.634.634 0 0 1 .22-.018l-.012-.004a.194.194 0 0 1-.063-.043l.353-.354Zm.195.203-.19-.199-.362.346.191.2.361-.347Zm.191.2a192.14 192.14 0 0 0-.191-.2l-.36.347.19.198.361-.345Zm.136.085-.177-.12-.279.415.176.119.28-.414Zm.182.122-.182-.122-.28.414.183.123.28-.415Zm.639-.232a.731.731 0 0 1-.375.204.82.82 0 0 1-.2.023.282.282 0 0 1-.097-.013l-.213.452c.094.044.201.06.3.061.103.002.214-.01.325-.037a1.22 1.22 0 0 0 .635-.36l-.375-.33Zm.094-.493a1.995 1.995 0 0 1-.019.286.432.432 0 0 1-.075.207l.375.33a.909.909 0 0 0 .194-.456c.023-.143.024-.282.025-.362l-.5-.005Zm.002-.079a1.81 1.81 0 0 0-.002.079l.5.005v-.057l-.498-.027Zm-.012-.669c.011.217.023.46.012.669l.499.027c.013-.24 0-.509-.011-.72l-.5.024Zm.081-.656a.298.298 0 0 0-.069.118.448.448 0 0 0-.016.076 1 1 0 0 0-.007.135c0 .09.005.207.011.327l.5-.024a6.507 6.507 0 0 1-.011-.302c0-.038.001-.06.003-.07 0-.006 0-.001-.003.009-.002.006-.013.042-.048.078l-.36-.347Zm-.34.008c.037.065.168.3.432.4l.176-.468c-.08-.03-.134-.111-.177-.184l-.432.252Zm.192.09a.248.248 0 0 1-.18-.078c-.013-.013-.02-.024-.02-.024l.007.012.432-.252a.699.699 0 0 0-.051-.074.258.258 0 0 0-.188-.083v.5Zm-1.646-.042c.801.234 1.6.059 1.7.037l-.107-.489c-.089.02-.78.168-1.452-.028l-.141.48Zm-1.58-.743c.351.205.964.562 1.58.743l.14-.48c-.548-.16-1.11-.486-1.47-.695l-.25.432Zm-.183-.138c-.041.004-.07-.005-.074-.006l-.006-.002.049.025c.052.027.122.068.213.121l.251-.432a7.937 7.937 0 0 0-.229-.13 1.084 1.084 0 0 0-.146-.064.293.293 0 0 0-.106-.01l.048.498Zm-.107.238c.046-.038.097-.08.148-.14.052-.059.098-.128.152-.223l-.434-.248a.893.893 0 0 1-.095.144.748.748 0 0 1-.091.084l.32.383Zm-.143.127c.06-.057.104-.094.143-.127l-.32-.383c-.042.034-.096.08-.167.147l.344.363Zm.046.51a.483.483 0 0 1-.102-.266c-.01-.11.018-.2.07-.258l-.372-.335a.834.834 0 0 0-.196.636c.018.205.098.41.226.555l.374-.333Zm.727.266-.82-.332-.188.463.82.333.188-.463Zm.92 1.028c.005-.215-.034-.47-.198-.679-.169-.217-.438-.344-.801-.366l-.03.499c.26.016.378.099.437.175.065.083.096.205.092.36l.5.011Zm-1.101-.05c.195.075.563.215.775.282l.152-.476a19.014 19.014 0 0 1-.75-.273l-.177.467Zm-.08-.03.08.03.178-.467-.08-.03-.178.467Zm-2.085 1.762c1.09-.3 1.857-.952 2.39-1.87l-.432-.251c-.474.815-1.139 1.377-2.09 1.64l.132.481Zm.511-.334a7.4 7.4 0 0 1-.278-.068 1.151 1.151 0 0 1-.187-.062l-.225.447c.081.04.187.073.282.098.099.027.206.051.296.072l.112-.487Zm.353.107a.42.42 0 0 0-.092-.041 1.288 1.288 0 0 0-.078-.023l-.183-.043-.112.487a6.738 6.738 0 0 1 .216.054l.004.001s-.01-.004-.023-.012l.268-.423Zm.63.688a.63.63 0 0 0-.237-.524c-.138-.11-.316-.161-.472-.197l-.11.488c.147.033.228.066.272.101.026.02.049.046.048.128l.5.004Zm-.662.082c.042-.031.067-.032.08-.03.016.002.065.016.142.107l.382-.322c-.126-.15-.277-.255-.452-.28a.604.604 0 0 0-.45.123l.298.402Zm-.817-.117c.07.05.178.127.303.17.14.047.298.05.467-.026l-.204-.456c-.046.02-.074.018-.103.008a.766.766 0 0 1-.176-.105l-.287.409Zm-.176-.105a.766.766 0 0 1 .176.105l.287-.41c-.07-.049-.178-.127-.303-.169l-.16.474Zm-.417-.01a.55.55 0 0 1 .202-.075.186.186 0 0 1 .142.046l.305-.396a.687.687 0 0 0-.494-.148c-.155.014-.29.078-.395.135l.24.438Zm-.657-.032c.22-.035.313-.038.394.018l.286-.41c-.272-.19-.575-.13-.759-.101l.08.493Zm-.133.02.133-.02-.079-.493-.118.017.064.496Zm-.643.21a.515.515 0 0 1 .23-.128 2.01 2.01 0 0 1 .407-.081l-.052-.497a2.497 2.497 0 0 0-.512.103c-.161.054-.339.14-.459.285l.386.318Zm-.536-.039a.365.365 0 0 0 .148.131.312.312 0 0 0 .194.022.367.367 0 0 0 .162-.082l-.322-.382a.135.135 0 0 1 .06-.026.188.188 0 0 1 .114.013c.03.014.046.03.052.037.005.006.008.01.003.003l-.411.284Zm.377.019a.249.249 0 0 1-.292.052c-.045-.023-.071-.054-.074-.056l-.011-.015.41-.284c0-.002-.003-.006-.006-.01l-.018-.023c-.004-.004-.032-.037-.079-.06a.252.252 0 0 0-.294.053l.364.343Zm-.689.035.226.108v.001l-.001.001-.001.002.001-.002a.234.234 0 0 1 .054-.064c.027-.022.065-.044.146-.016l.163-.473a.63.63 0 0 0-.623.1.733.733 0 0 0-.19.234v.002l.225.107Zm.22-.755a.694.694 0 0 0-.376.221c-.123.158-.138.362-.088.588l.488-.107a.448.448 0 0 1-.013-.147.086.086 0 0 1 .005-.021c0-.003.002-.004.002-.004s.005-.006.024-.016c.02-.01.05-.02.094-.033l-.136-.481Zm-.453.212.39.24.262-.424-.39-.241-.262.425Zm-.113-.16c.003.008 0 0-.002-.01l.493-.085c-.006-.033-.016-.06-.018-.068l-.473.164Zm.222-.37a.488.488 0 0 0-.067.021.286.286 0 0 0-.115.084.264.264 0 0 0-.046.247l.006.019.473-.164c-.005-.014.004.01.007.037a.233.233 0 0 1-.05.175c-.037.046-.08.063-.084.065-.01.003-.012.004-.001 0l-.123-.484Zm-.24.562a.494.494 0 0 1 .151-.115c.01-.003.01-.001.005-.002-.005 0-.005-.002.004.004l.282-.413a.495.495 0 0 0-.456-.06.952.952 0 0 0-.336.228l.35.358Zm.551-.834a.47.47 0 0 0-.34-.068.73.73 0 0 0-.29.118.765.765 0 0 0-.346.594l.5.022a.266.266 0 0 1 .125-.2.234.234 0 0 1 .089-.04c.022-.003.008.006-.019-.013l.281-.413Zm.533.053a.652.652 0 0 0-.828-.043l.31.393a.128.128 0 0 1 .077-.02c.035 0 .073.012.108.043l.333-.373Zm.404.057a.49.49 0 0 1-.414-.065l-.314.389c.263.212.634.232.882.152l-.154-.476Zm-.415.105c.013 0 .068.015.133.06.06.044.104.098.122.153l.474-.16a.822.822 0 0 0-.306-.399.798.798 0 0 0-.39-.153l-.033.499Zm-.572-.623a.336.336 0 0 0 .007.33.457.457 0 0 0 .176.162c.106.06.244.098.342.123l.126-.484a2.113 2.113 0 0 1-.135-.039.576.576 0 0 1-.09-.037c-.024-.012-.006-.009.012.022a.165.165 0 0 1 .006.153l-.444-.23Zm-.124.337a.73.73 0 0 1 .106-.07.165.165 0 0 1 .048-.02s-.01 0-.022-.005c-.011-.006-.008-.008.005.01l.418-.274a.518.518 0 0 0-.2-.184.455.455 0 0 0-.262-.043.865.865 0 0 0-.4.192l.307.394Zm.931-.668a.403.403 0 0 0-.171-.121.708.708 0 0 0-.169-.04 1.13 1.13 0 0 0-.367.017c-.235.05-.564.206-.625.574l.494.082c.01-.06.07-.132.235-.167a.629.629 0 0 1 .201-.01.22.22 0 0 1 .05.01c.01.004-.014-.002-.04-.034l.393-.311Zm.22.177c-.052-.072-.144-.204-.347-.262l-.137.48c.02.006.027.012.033.018.01.009.02.021.047.058l.405-.294Zm.048.058a.375.375 0 0 1-.047-.058l-.405.294c.023.031.062.087.118.137l.334-.373Zm.607.297c-.217-.035-.451-.128-.59-.28l-.368.338c.244.268.605.39.877.436l.081-.494Zm.99-.615c-.145.12-.319.264-.51.385-.192.123-.38.208-.55.229l.06.496c.278-.033.541-.164.76-.303.22-.14.417-.304.56-.423l-.32-.384Zm.294-.219a.91.91 0 0 0-.144.096 4.705 4.705 0 0 0-.15.123l.32.384a5.924 5.924 0 0 1 .182-.145c.012-.009.016-.01.014-.01l-.222-.448Zm-.457.017c.025.24.213.353.319.398a.818.818 0 0 0 .224.058h.001l.024-.249.024-.249h.001-.003l-.018-.003a.32.32 0 0 1-.059-.018c-.049-.02-.02-.024-.016.011l-.497.052Zm-.271-.203c.058.084.123.179.187.25.053.06.166.176.331.177l.003-.5c.04 0 .062.015.064.016.001.001-.007-.005-.025-.025a2.23 2.23 0 0 1-.148-.202l-.412.284Zm-.665-.623c.28.08.472.342.665.623l.412-.284c-.17-.248-.458-.683-.94-.82l-.136.481Zm-2.296.482c.114-.043.55-.209 1.039-.34.244-.066.496-.122.723-.15.234-.029.416-.025.534.008l.137-.48c-.216-.062-.479-.056-.732-.024-.26.032-.536.094-.793.163-.513.138-.97.312-1.085.356l.177.467Zm-.117.027c.027 0 .047-.005.05-.005l.016-.004a.251.251 0 0 0 .02-.006l.01-.004.021-.008-.177-.467-.02.007h-.002l.006-.001.011-.003a.256.256 0 0 1 .065-.009v.5Zm-.321.474.194.158.001-.001.001-.002.004-.004a.655.655 0 0 0 .05-.067 2.54 2.54 0 0 0 .114-.182 1.62 1.62 0 0 0 .206-.6l-.497-.052c-.015.14-.077.286-.145.407a1.675 1.675 0 0 1-.121.185l-.002.001.195.157Zm-.383-.23c.058.112.11.212.149.318l.468-.175c-.051-.139-.117-.265-.173-.372l-.444.23Zm-.232-.783c-.016.315.126.578.232.783l.444-.23c-.117-.227-.185-.37-.177-.529l-.5-.024Zm-.311 1.053c.221-.227.45-.461.763-.895l-.406-.292c-.29.403-.5.617-.715.837l.358.35Zm-.336.357c.117-.134.224-.243.336-.357l-.358-.35c-.11.114-.227.232-.354.378l.376.33Zm-.491 1.01c.098-.396.234-.728.488-1.006l-.37-.337c-.332.364-.496.787-.603 1.224l.485.12Zm.584.19.047-.245a.5.5 0 0 0-.005-.001l-.019-.004a8.335 8.335 0 0 1-.292-.067 1.966 1.966 0 0 1-.427-.146l-.261.427c.146.09.39.16.564.204a6.732 6.732 0 0 0 .346.078l.047-.245Zm.71.46a.688.688 0 0 0-.208-.522.739.739 0 0 0-.496-.187l-.01.5c.086.001.137.027.164.052.024.022.051.064.05.153l.5.004Zm-.726-.102.14.207v.001l-.002.001a.224.224 0 0 0-.004.003h.001a.105.105 0 0 1 .036-.01c.013-.002.055-.006.12.066l.37-.336a.636.636 0 0 0-.534-.229.607.607 0 0 0-.256.083l-.006.005-.003.001-.001.001.14.207Zm-.772.232c.119.048.27.105.427.118a.662.662 0 0 0 .511-.162l-.331-.375c-.036.031-.074.044-.138.039a1.057 1.057 0 0 1-.283-.084l-.186.465Zm-.508-.202a.175.175 0 0 1 .172-.035c.072.02.16.078.241.17l.376-.33a1.037 1.037 0 0 0-.48-.321.673.673 0 0 0-.62.124l.311.392Zm-.594.115c.054.014.153.041.263.032a.587.587 0 0 0 .34-.154l-.328-.378a.189.189 0 0 1-.043.03.035.035 0 0 1-.011.004c-.004 0-.012 0-.028-.003a.948.948 0 0 1-.071-.016l-.122.485Zm-.346.045a.415.415 0 0 1 .193-.069.505.505 0 0 1 .153.024l.122-.485c-.066-.017-.172-.045-.3-.038a.908.908 0 0 0-.424.139l.256.43Zm-1.268.078c.143.223.422.258.63.23.229-.03.478-.144.684-.343l-.348-.359a.74.74 0 0 1-.402.207c-.14.019-.159-.03-.143-.005l-.42.27Zm-.282.225c.168-.06.296-.088.378-.1a.946.946 0 0 1 .09-.01h.017-.002l.009-.25.01-.25h-.022a1.431 1.431 0 0 0-.176.015 2.482 2.482 0 0 0-.475.124l.17.47Zm.376-.634.123-.218-.002-.001a.063.063 0 0 1-.004-.002l-.008-.004a.62.62 0 0 0-.1-.039.528.528 0 0 0-.26-.008c-.247.057-.402.281-.457.632l.494.077c.04-.256.115-.23.075-.222l.013.003a.07.07 0 0 1 .006.001h-.001a.03.03 0 0 0-.002-.001l.123-.218Zm-.258-.08.009.1.498-.04a33.788 33.788 0 0 0-.008-.101l-.499.042Zm-.007-.091.007.092.499-.042-.008-.09-.498.04Zm.028.164.133.05.176-.469-.133-.05-.176.469Zm-.409-.014c.01-.009.056-.034.143-.04a.52.52 0 0 1 .248.046l.213-.452a1.02 1.02 0 0 0-.493-.093.741.741 0 0 0-.442.164l.331.375Zm.57-.792a1.105 1.105 0 0 0-.533.025c-.213.073-.382.243-.446.524l.487.111a.262.262 0 0 1 .054-.119.156.156 0 0 1 .069-.044.626.626 0 0 1 .288-.003l.08-.494Zm-.202-.006a1.212 1.212 0 0 1-.036.099l.006-.008.382.323a.539.539 0 0 0 .085-.147c.016-.042.03-.086.04-.117l-.477-.15Zm.028-.083-.028.083.477.15.02-.06-.47-.173Zm.033.237.018.02.366-.34a3.188 3.188 0 0 1-.018-.02l-.366.34Zm-.078-.104c.02-.018.02-.011 0-.008a.08.08 0 0 1-.043-.003s.002 0 .009.006a1.582 1.582 0 0 1 .112.11l.366-.341c-.056-.06-.155-.173-.279-.23a.423.423 0 0 0-.257-.033.504.504 0 0 0-.24.124l.332.375Zm1.16-.425c-.12-.079-.434-.284-.737-.362-.15-.038-.348-.06-.525.035-.195.104-.29.303-.313.54l.498.049a.335.335 0 0 1 .032-.127c.009-.016.015-.02.018-.02.012-.008.059-.02.166.007.21.055.455.21.59.298l.272-.42Zm.04.025a3.694 3.694 0 0 1-.04-.025l-.27.42.045.03.265-.425Zm1.708-2.116-.017.03a10.297 10.297 0 0 1-.238.376 13.01 13.01 0 0 1-.567.789 5.304 5.304 0 0 1-.635.703 1.19 1.19 0 0 1-.244.172c-.066.03-.075.016-.055.023l-.168.47a.57.57 0 0 0 .435-.04 1.61 1.61 0 0 0 .36-.248 5.81 5.81 0 0 0 .701-.772 13.526 13.526 0 0 0 .783-1.12 1.97 1.97 0 0 0 .102-.179l-.457-.204Zm-.88.482c.28-.104.704-.149 1.096-.13l.024-.5c-.43-.02-.928.026-1.293.161l.174.47Zm-.357.583c.19-.184.398-.379.51-.744l-.478-.147c-.07.23-.189.348-.379.531l.347.36Zm-.094.092.094-.092-.347-.36-.1.097.353.355Zm-1.284-1.92c.546.621.862.989.858 1.74l.5.004c.005-.96-.44-1.456-.983-2.074l-.375.33Zm-.093-.105.093.105.375-.33c-.03-.034-.06-.07-.092-.105l-.376.33Zm-1.095-1.87c.031.181.128.522.306.881.177.358.446.758.834 1.03l.287-.41c-.293-.205-.516-.523-.673-.841a3.073 3.073 0 0 1-.262-.746l-.492.087Zm.23.529c.046-.053.138-.17.251-.487l-.47-.169a1.706 1.706 0 0 1-.115.264c-.025.044-.04.06-.043.064l.377.328Zm.055-.155a.248.248 0 0 1-.05.15l-.005.005-.377-.328-.015.017a.253.253 0 0 0-.054.156h.5Zm-1.046.245a.332.332 0 0 0 .025.25c.078.137.22.146.283.139a.463.463 0 0 0 .153-.048c.04-.02.08-.044.117-.069a2.32 2.32 0 0 0 .407-.354l-.378-.326a1.84 1.84 0 0 1-.307.264.56.56 0 0 1-.06.036c-.018.01-.01.002.015 0a.215.215 0 0 1 .204.11c.045.078.02.143.025.124l-.484-.126Zm.182-.453a.755.755 0 0 0-.24.252.351.351 0 0 0-.021.299.366.366 0 0 0 .26.207l.122-.485c-.018-.004.047.007.08.087a.181.181 0 0 1 .012.092c-.004.02-.01.031-.01.033 0 0 .006-.01.025-.029a.352.352 0 0 1 .048-.04l-.276-.416Zm.04-.088a5.29 5.29 0 0 1-.06.104c-.008.012-.009.012-.004.008a.212.212 0 0 1 .112-.06l.1.489c.093-.02.147-.082.159-.095a.56.56 0 0 0 .053-.07c.026-.04.054-.091.077-.134l-.437-.242Zm.467-.393a.315.315 0 0 0-.244.076.585.585 0 0 0-.097.109 2.222 2.222 0 0 0-.126.208l.437.242c.038-.067.068-.122.095-.16.014-.019.018-.02.012-.015A.15.15 0 0 1 3 9.354a.204.204 0 0 1-.106.013l.067-.495Zm-.15-1.083L2.68 9.094l.497.05.133-1.304-.497-.051Zm-.155-.237c.022.078.048.17.081.247a.45.45 0 0 0 .222.244l.203-.457a.113.113 0 0 1 .042.03L3.196 7.6a1.619 1.619 0 0 1-.058-.183l-.48.136Zm-.108-.326c.047.11.078.219.108.326l.481-.136c-.03-.105-.068-.241-.128-.384l-.46.194Zm-.368-.611c-.029-.009-.04-.02-.033-.014a1.311 1.311 0 0 1 .15.177c.092.129.186.293.251.448l.461-.194a2.984 2.984 0 0 0-.303-.543 1.802 1.802 0 0 0-.167-.205.793.793 0 0 0-.09-.081.406.406 0 0 0-.131-.069l-.138.48Zm.848-.233c-.048-.05-.137-.146-.28-.21a.909.909 0 0 0-.544-.043l.09.491c.142-.026.214-.007.252.01.042.019.07.046.12.097l.362-.345Zm-.018.014c.019.003.033.01.041.014l.012.008-.01-.01a1.466 1.466 0 0 1-.025-.026l-.362.345c.017.019.046.05.078.076a.38.38 0 0 0 .164.082l.102-.49Zm.412.614c-.037-.102-.077-.213-.119-.306a.993.993 0 0 0-.076-.14.466.466 0 0 0-.133-.134l-.27.421c-.02-.013-.022-.023-.012-.007a.511.511 0 0 1 .036.069c.032.069.064.158.103.266l.47-.169Zm.186.438a2.49 2.49 0 0 1-.186-.438l-.471.169c.058.163.134.376.233.535l.424-.266Zm-.38-1.16c-.145.437-.231.816-.072 1.363l.48-.14c-.118-.407-.064-.671.067-1.066l-.474-.158Zm-.19-.284c.118.075.178.202.178.362h.5c0-.289-.116-.6-.414-.786l-.265.424Zm.976.147c-.025-.052-.096-.202-.226-.338a.822.822 0 0 0-.625-.27l.013.5a.323.323 0 0 1 .25.115.828.828 0 0 1 .139.211l.45-.218Zm-.03-.039a.247.247 0 0 1 .036.05l-.002-.004a.998.998 0 0 1-.004-.007l-.45.218.01.02.01.017c0 .002.013.024.035.047l.365-.341Zm.095.827c.026-.071.072-.192.077-.332a.745.745 0 0 0-.152-.47l-.405.292c.05.071.058.122.057.16a.596.596 0 0 1-.047.18l.47.17Zm-.049.025c.01.014.016.03.019.046.002.013 0 .021.001.019L4.058 7l.022-.062-.47-.17a.933.933 0 0 0-.054.187.401.401 0 0 0 .065.294l.41-.286Zm-.33-.093a.796.796 0 0 1-.028.036c-.007.008-.008.008-.004.005l.314.39c.059-.049.102-.111.122-.137L3.7 6.87Zm.421-.22a.377.377 0 0 0-.3.083c-.06.048-.103.11-.122.137l.405.294a.798.798 0 0 1 .027-.037c.007-.008.008-.008.004-.005a.125.125 0 0 1-.09.023l.076-.495Zm-.109-.285a.586.586 0 0 1-.03.231.466.466 0 0 1-.09.139l.38.325a.96.96 0 0 0 .177-.284c.047-.122.068-.26.063-.426l-.5.015Zm.602.718c.042-.115.1-.28.09-.447a.602.602 0 0 0-.312-.492l-.26.427c.04.024.055.043.061.053.006.01.01.02.011.04a.691.691 0 0 1-.06.247l.47.172Zm-.36.705a.69.69 0 0 0 .317-.317c.063-.143.066-.309.058-.485l-.5.022c.008.177-.004.236-.015.26-.004.01-.013.032-.108.086l.247.434Zm-.112.17c-.009-.057-.001-.07 0-.072.006-.01.028-.045.121-.104l-.267-.422a.795.795 0 0 0-.298.298.6.6 0 0 0-.05.376l.494-.076Zm.073 1.277.25-.014v-.004a1.339 1.339 0 0 0-.003-.042 5.026 5.026 0 0 0-.06-.488 3.253 3.253 0 0 0-.107-.447 1.182 1.182 0 0 0-.212-.41l-.376.33a.717.717 0 0 1 .113.235c.037.115.066.247.089.377a4.888 4.888 0 0 1 .056.47v.007l.25-.014Zm.6.552a.758.758 0 0 0-.523-.79l-.153.476c.13.042.186.16.178.277l.498.037Zm.52.305a.727.727 0 0 0-.274-.415.74.74 0 0 0-.519-.158l.048.498a.24.24 0 0 1 .165.056.238.238 0 0 1 .09.12l.49-.101Zm.445.032a1 1 0 0 0-.342-.255.515.515 0 0 0-.258-.037.455.455 0 0 0-.268.133l.354.354s-.009.007-.024.009c-.01.001-.01-.002.008.005a.52.52 0 0 1 .161.128l.37-.337Zm.19-.14a.472.472 0 0 0-.587.177l.425.263a.05.05 0 0 1-.026.021c-.01.003-.01 0 .003.004l.184-.465Zm-.062-.306c-.128.121-.281.278-.28.54l.5-.002c0-.023.004-.037.016-.056a.684.684 0 0 1 .108-.12L5.91 9.68Zm.35-2.2a.333.333 0 0 0-.173.108.589.589 0 0 0-.077.115c-.04.076-.074.17-.104.267-.061.2-.114.455-.15.713a4.336 4.336 0 0 0-.046.757c.005.113.018.225.045.324a.56.56 0 0 0 .168.29l.318-.386c.023.019.012.025-.003-.033a1.067 1.067 0 0 1-.028-.218 3.85 3.85 0 0 1 .041-.665 4.33 4.33 0 0 1 .133-.636c.026-.084.05-.145.069-.18l.01-.018c-.001 0-.03.035-.09.05l-.112-.488Zm.947-2.125a.346.346 0 0 0-.163.076.69.69 0 0 0-.089.088c-.052.06-.106.139-.16.224-.11.173-.23.4-.342.64a5.964 5.964 0 0 0-.288.73c-.068.22-.122.46-.096.646l.495-.07c-.009-.064.01-.21.079-.428a5.54 5.54 0 0 1 .263-.668 5.48 5.48 0 0 1 .311-.583 1.484 1.484 0 0 1 .135-.184l.006-.006s-.006.005-.016.01a.187.187 0 0 1-.06.02l-.075-.495Zm-.095-.086-.231.095a.606.606 0 0 1 .005.014l.015.036a43.606 43.606 0 0 1 .104.26l.002.004-.003-.007A.234.234 0 0 1 7 5.656c0-.001-.006-.025-.006-.055h.5a.272.272 0 0 0-.022-.105 2.843 2.843 0 0 0-.063-.158 42.382 42.382 0 0 0-.046-.113l-.015-.037a13.559 13.559 0 0 1-.004-.01l-.001-.003v-.001l-.232.094Zm-.503.769a.602.602 0 0 1 .3-.426.845.845 0 0 1 .244-.096H7.15a28.876 28.876 0 0 1-.08-.494h-.002l-.003.001a.577.577 0 0 0-.038.008 1.345 1.345 0 0 0-.377.152c-.217.13-.462.364-.535.765l.492.09Zm-.402-.37-.232.094.001.003a1 1 0 0 0 .014.033l.038.087c.03.068.074.16.122.237l.427-.259a1.852 1.852 0 0 1-.135-.28l-.002-.006v-.001l-.233.093Zm-.787.814a.25.25 0 0 0 .288.136c.046-.011.077-.033.083-.037a.62.62 0 0 0 .07-.066l.07-.086a18.813 18.813 0 0 0 .388-.495l.063-.082.018-.023.004-.006.001-.002-.198-.152-.198-.152-.002.002-.004.006-.018.023a64.467 64.467 0 0 1-.442.567 2.714 2.714 0 0 1-.059.07l-.005.006a.172.172 0 0 1 .028-.022.25.25 0 0 1 .366.1l-.453.213Zm.106-.597-.24-.068-.001.002v.002a.54.54 0 0 0-.018.08.97.97 0 0 0-.013.183c.004.136.044.363.257.501l.271-.42c-.006-.004-.026-.021-.028-.095a.47.47 0 0 1 .013-.118v.001l-.241-.068Zm-.398-.378c.02.137.049.355.208.54l.38-.325c-.053-.061-.07-.136-.094-.291l-.494.076Zm-.036-.18c.015.049.024.104.036.18l.494-.076a1.633 1.633 0 0 0-.053-.252l-.477.147Zm-.521.133c.223.014.448.028.748.042l.023-.5a45.356 45.356 0 0 1-.74-.04l-.031.498Zm-.74-.04c.296.013.517.027.74.04l.03-.499c-.223-.013-.447-.027-.747-.041l-.023.5Zm-.036.14a.25.25 0 0 1 .39-.207c.026.017.042.036.046.04a.247.247 0 0 1 .026.035l-.001-.002a18.644 18.644 0 0 1-.159-.307l-.023-.046-.006-.012a.436.436 0 0 0-.002-.004l-.223.113-.223.113v.001l.002.003.007.013.023.045a54.45 54.45 0 0 0 .177.341l.016.024.014.017a.25.25 0 0 0 .436-.167h-.5ZM2.36 3.881c.115.462.457.936.776 1.28.162.177.328.329.47.439.07.055.14.102.204.138a.496.496 0 0 0 .24.071l-.01-.5c.046 0 .058.016.012-.01a1.155 1.155 0 0 1-.14-.095 3.486 3.486 0 0 1-.409-.382c-.3-.325-.573-.723-.658-1.062l-.485.12Zm1.963.38c-.595-.129-1.091-.24-1.56-.632l-.321.383c.575.482 1.19.61 1.775.738l.106-.489Zm.025.006a19.788 19.788 0 0 0-.025-.006l-.106.489.025.005.106-.488Zm-.173.59.236-.125-.232-.442-.237.124.233.442Zm-.24.125.24-.126-.233-.442-.239.126.232.442Zm3.042-.233a.438.438 0 0 1-.066-.141.44.44 0 0 1 .025-.144.234.234 0 0 1 .079-.09c.025-.018.048-.027.05-.028a.218.218 0 0 1 .022-.007h-.001a13.411 13.411 0 0 1-1.002.141 12.08 12.08 0 0 1-2.242.032l-.045.498c.844.077 1.698.032 2.337-.032a13.9 13.9 0 0 0 .998-.138 2.143 2.143 0 0 0 .09-.02.137.137 0 0 0 .029-.01c.003 0 .026-.01.052-.028.008-.006.05-.035.078-.09a.44.44 0 0 0 .026-.144.438.438 0 0 0-.066-.142l-.364.343ZM6.37 4.17v.25a.237.237 0 0 1 .015 0l.056.005a.982.982 0 0 1 .184.036c.146.042.257.113.305.22l.456-.206c-.137-.303-.42-.436-.621-.494a1.565 1.565 0 0 0-.391-.06H6.37v.25Zm.223.276.026-.25-.498-.051-.026.25.498.051ZM6 4.784l.415-.123-.142-.48-.415.123.142.48Zm-.637-.134a.25.25 0 0 0 .195.143 1.14 1.14 0 0 0 .083.005 5.567 5.567 0 0 0 .28-.004h.013l-.006-.25-.006-.25h-.014a16.92 16.92 0 0 1-.29.003h.01l.033.008a.246.246 0 0 1 .154.133l-.453.212Zm-.218-.53-.006.25h-.005.002a.252.252 0 0 1 .085.027c.041.022.1.066.123.192l.491-.09a.74.74 0 0 0-.672-.628H5.15l-.005.25Zm-.75.27c.247-.031.463-.057.716-.022l.068-.495c-.325-.045-.601-.01-.846.02l.062.497Zm-.392.038c.138-.007.27-.023.392-.038l-.062-.497c-.124.016-.238.03-.355.035l.025.5ZM5.71 3.193c-.624.048-1.367.095-1.921.835l.4.3c.404-.54.92-.588 1.559-.636l-.038-.499Zm.336-.029c-.11.012-.22.02-.336.03l.038.498c.114-.009.233-.018.351-.03l-.053-.498Zm.645-.48a1.36 1.36 0 0 0-.524.167.726.726 0 0 0-.341.522l.493.08c.016-.095.055-.141.112-.177a.9.9 0 0 1 .333-.098l-.073-.495Zm1.566.08-.754-.042-.524-.028-.172-.01-.049-.002h-.012l-.004-.001-.014.25-.014.25h.017l.049.003.172.01.524.028.78.041v-.5Zm.804-.141-.047-.246a.029.029 0 0 1-.003 0 .805.805 0 0 0-.03.007 2.52 2.52 0 0 0-.642.236.91.91 0 0 0-.286.248l.408.29a.426.426 0 0 1 .13-.106c.067-.04.146-.074.225-.102a2.254 2.254 0 0 1 .287-.08l.004-.002-.046-.245Zm.866-.382a4.14 4.14 0 0 0-.504.025c-.163.02-.334.058-.48.136l.235.441a.917.917 0 0 1 .307-.08c.134-.018.285-.022.442-.022v-.5Zm-.556 1.37a2.68 2.68 0 0 0 .442-.402c.154-.174.327-.42.362-.686l-.496-.065c-.015.112-.102.263-.241.42-.132.15-.28.271-.351.321l.284.412Zm-.016.126a1.156 1.156 0 0 1-.02-.036l-.003-.008a.09.09 0 0 1 .003.037c-.001.006 0-.004.017-.04a2.06 2.06 0 0 1 .09-.153l-.426-.264c-.084.136-.155.258-.174.375-.026.155.041.268.07.322l.443-.233Zm.023.045-.023-.045-.443.233.02.038.446-.226Zm.176.327-.179-.332-.44.237.18.333.44-.238Zm.61.492c-.108-.337-.44-.508-.752-.61l-.156.474c.295.097.405.201.433.29l.476-.154Zm-.549.242a.124.124 0 0 1-.034.089c-.012.012-.015.008.012 0a.8.8 0 0 1 .302-.007l.064-.496a1.272 1.272 0 0 0-.51.023c-.136.041-.342.158-.334.408l.5-.017Zm.07-.056a2.084 2.084 0 0 1-.112-.052c-.01-.006-.004-.004.007.009a.163.163 0 0 1 .035.093l-.5.03c.01.168.14.259.192.292.065.04.142.07.189.09l.19-.462Zm.174.084c-.057-.038-.132-.067-.174-.084l-.19.462a1.92 1.92 0 0 1 .084.036l.006.004.274-.418Zm.373.787a1.102 1.102 0 0 0-.083-.4 1.128 1.128 0 0 0-.25-.355l-.353.354a.64.64 0 0 1 .144.198.61.61 0 0 1 .042.223l.5-.02Zm-.623.136c.073.037.214.115.359.123l.028-.499-.01-.002a1.496 1.496 0 0 1-.147-.067l-.23.445Zm-.127-.062c.015-.032.022-.03.008-.02a.072.072 0 0 1-.04.013l.012.002.034.012c.032.013.066.03.113.055l.23-.445c-.073-.037-.214-.115-.36-.124a.43.43 0 0 0-.266.071.535.535 0 0 0-.183.224l.452.212Zm.08.15a.132.132 0 0 1-.075-.072.101.101 0 0 1-.004-.08l-.454-.208c-.143.311.017.7.357.828l.177-.468Zm.326 1.159a.25.25 0 0 0 .235-.164c.009-.026.012-.047.013-.053a.302.302 0 0 0 .002-.073 1.348 1.348 0 0 0-.074-.34c-.067-.183-.212-.445-.52-.535l-.14.48c.079.023.143.098.19.225a.847.847 0 0 1 .044.201V6.78c0-.001 0-.011.003-.025a.249.249 0 0 1 .247-.214v.5Zm-.118-.029a.859.859 0 0 0 .023.01l.017.007a.248.248 0 0 0 .078.012v-.5a.25.25 0 0 1 .097.02h.002-.001l-.005-.002-.211.453Zm-.234-.024c-.007-.092.017-.089-.006-.065-.023.023-.04.014-.003.015.034 0 .081.011.133.029.049.017.09.035.11.045l.211-.453a1.177 1.177 0 0 0-.44-.121.485.485 0 0 0-.371.138c-.116.12-.145.285-.133.45l.499-.038Zm-.114.282c.017-.02.107-.111.114-.249l-.499-.028a.149.149 0 0 1 .019-.064c.002-.003.003-.004 0 0a.689.689 0 0 1-.014.017l.38.324Zm-.036.131c-.007-.059.002-.081.004-.086a.168.168 0 0 1 .032-.045l-.38-.324c-.026.03-.08.091-.117.184a.666.666 0 0 0-.035.33l.496-.059Zm.115.768-.005-.02a6.26 6.26 0 0 1-.042-.243 16.037 16.037 0 0 1-.068-.505l-.496.06c.021.182.047.369.07.52.021.141.045.279.066.343l.475-.155Zm.434-.323-.724.156.105.49.725-.157-.106-.49Zm.743-.16-.743.16.106.489.742-.16-.105-.49Zm.092-.665c.019.329-.07.59-.214.73l.349.358c.284-.276.388-.704.364-1.116l-.5.028Zm-.002-.333c.003.11.006.208.002.308l.5.023c.005-.123.001-.24-.002-.346l-.5.015Zm8.217.765c.107-.001.27.044.454.253l.375-.331c-.264-.298-.56-.426-.836-.422l.007.5Zm-.215.066c.003.025-.005.037-.002.031a.124.124 0 0 1 .03-.034.303.303 0 0 1 .187-.063l-.007-.5a.801.801 0 0 0-.497.177c-.116.096-.232.259-.207.453l.496-.064Zm.619-.056c.002-.008-.009.024-.088.066a.727.727 0 0 1-.266.075.44.44 0 0 1-.22-.026c-.033-.016-.042-.03-.045-.059l-.496.064a.562.562 0 0 0 .322.444.929.929 0 0 0 .483.075c.158-.014.32-.06.455-.13.128-.068.274-.181.33-.354l-.475-.155Z" mask="url(#d)"/><path fill="#D21034" stroke="#000" stroke-width=".25" d="m7.036 3.461-.333.084.308.15a.958.958 0 0 0 .356.11c.112.004.218-.034.28-.139.022-.037.06-.125-.004-.204a.18.18 0 0 0-.087-.058.315.315 0 0 0-.081-.013c-.1-.004-.25.023-.44.07Z"/></g></g></g><path stroke="#000" stroke-opacity=".1" stroke-width=".5" d="M.25.25h23.5v17.5H.25z"/><defs><clipPath id="a"><path fill="#fff" d="M0 0h24v18H0z"/></clipPath></defs></svg>