<svg xmlns="http://www.w3.org/2000/svg" fill="none" viewBox="0 0 24 18"><g clip-path="url(#a)"><path fill="#C00" d="M0 0h6v6H0z"/><path fill="#08672F" d="M6 .78V0h-.734L0 5.22V6h.734z"/><path fill="#08672F" d="M0 .78V0h.734L6 5.22V6h-.748z"/><path fill="#fff" d="m0 2.258 6-.008v1.492L0 3.75z"/><path fill="#fff" d="M2.25 0h1.492l.008 6H2.258zM0 6h6v6H0z"/><path fill="#000" fill-rule="evenodd" d="M4.918 6.793c0-.024.004-.05.008-.06.01-.024.031-.022.04.001.003.012.01.056.013.101a.6.6 0 0 0 .064.235.8.8 0 0 0 .12.177l.038.045-.07-.002a.4.4 0 0 1-.082-.008c-.01-.006-.014 0-.017.035-.003.046-.024.083-.057.1-.018.012-.025.01-.042-.001a.16.16 0 0 1-.058-.103c-.006-.03-.007-.034-.022-.025a.4.4 0 0 1-.14.006.4.4 0 0 1 .043-.057.7.7 0 0 0 .162-.444M.803 8.964a.2.2 0 0 1 .024-.058c.022-.029.04-.035.03-.011a.12.12 0 0 0 .015.118c.03.046.036.108.016.152-.023.047-.071.049-.1.002q-.036-.054-.005-.133zm2.75-.045a.2.2 0 0 1 .024-.058c.022-.03.04-.036.03-.012a.12.12 0 0 0 .015.119c.03.046.036.107.016.151-.022.048-.07.05-.1.003q-.036-.055-.005-.133zm-1.39.028a.2.2 0 0 1 .025-.059c.022-.028.04-.035.03-.01a.12.12 0 0 0 .015.118c.03.045.036.107.016.151-.023.048-.071.05-.1.003q-.036-.055-.005-.133l.02-.07m2.626.194c-.037.028-.077.035-.107.019q-.036-.019-.007.021c.01.014.033.028.053.033l.073.025q.077.031.128-.002c.067-.046.023-.125-.068-.124a.1.1 0 0 0-.072.028m.2.094a.2.2 0 0 0-.007.06.7.7 0 0 1-.163.444.4.4 0 0 0-.042.057c0 .01.123.004.14-.006.014-.008.016-.005.021.026a.16.16 0 0 0 .058.102c.017.012.024.013.043.002.032-.017.053-.054.056-.1.004-.036.007-.042.018-.036a.4.4 0 0 0 .082.008l.07.003-.038-.046a.8.8 0 0 1-.12-.176.6.6 0 0 1-.065-.236 1 1 0 0 0-.013-.1c-.009-.024-.03-.026-.04-.002m-2.694-.066a.1.1 0 0 0-.038.03c-.045.065.06.135.136.09.08-.05.082-.05.121-.037.033.011.035.011.028-.003-.013-.027-.034-.039-.114-.067-.092-.031-.095-.031-.133-.013m-.42.046c.029.016.07.01.107-.019a.1.1 0 0 1 .071-.028c.092-.001.136.078.068.124q-.05.035-.127.002L1.92 9.27a.1.1 0 0 1-.052-.032q-.03-.041.006-.022m.306.075a.2.2 0 0 0-.007.06.7.7 0 0 1-.162.444.4.4 0 0 0-.043.057c0 .01.123.004.14-.006.014-.008.016-.005.022.026.007.042.03.083.057.102.018.012.024.013.043.002.033-.017.053-.054.057-.1.003-.036.006-.042.017-.036a.4.4 0 0 0 .082.008l.07.003-.037-.046a.8.8 0 0 1-.121-.176.6.6 0 0 1-.064-.235 1 1 0 0 0-.013-.101c-.009-.024-.03-.025-.04-.002m1.503-.149a.1.1 0 0 0-.038.03c-.045.066.06.135.136.09.08-.05.083-.05.122-.037.033.011.034.011.027-.003-.013-.027-.034-.039-.114-.067-.092-.031-.095-.031-.133-.013m-.42.046c.03.017.07.01.107-.019a.1.1 0 0 1 .072-.028c.09-.001.135.078.068.124q-.052.035-.128.002l-.073-.025a.1.1 0 0 1-.053-.032q-.03-.041.006-.022m.307.075a.2.2 0 0 0-.008.06.7.7 0 0 1-.162.444.4.4 0 0 0-.043.057c0 .01.124.004.14-.006.015-.008.016-.005.022.026a.16.16 0 0 0 .057.102c.018.013.025.013.043.002.033-.017.054-.054.057-.1.003-.035.007-.042.017-.036a.4.4 0 0 0 .083.009l.069.002-.037-.046a.8.8 0 0 1-.12-.176.6.6 0 0 1-.065-.235 1 1 0 0 0-.013-.1c-.009-.025-.03-.026-.04-.003M.934 9.187a.1.1 0 0 0-.038.03c-.045.065.06.135.135.09.081-.05.083-.05.122-.037.033.01.035.01.028-.003-.013-.027-.034-.04-.114-.067-.092-.032-.095-.031-.133-.013m1.184-2.4a.2.2 0 0 0-.007.061.7.7 0 0 1-.163.444.4.4 0 0 0-.042.057c0 .009.123.004.14-.006.014-.008.016-.006.021.025.008.043.03.084.058.103.018.012.024.013.043.002.032-.018.053-.055.056-.101.004-.035.007-.041.018-.035a.4.4 0 0 0 .082.008l.07.002-.038-.045a.8.8 0 0 1-.12-.177.6.6 0 0 1-.064-.235 1 1 0 0 0-.014-.1c-.008-.024-.029-.026-.04-.002m1.382.034c0-.025.003-.051.007-.061.011-.024.032-.022.04.002a1 1 0 0 1 .014.1.6.6 0 0 0 .064.236.8.8 0 0 0 .12.176l.038.046-.07-.003a.4.4 0 0 1-.082-.008c-.01-.006-.014 0-.017.035-.004.046-.024.083-.057.1-.019.012-.025.011-.043-.001a.16.16 0 0 1-.057-.103c-.006-.03-.008-.033-.022-.025a.4.4 0 0 1-.14.006c0-.004.02-.029.043-.057A.7.7 0 0 0 3.5 6.82M.772 6.805a.2.2 0 0 0-.007.06c0 .08-.02.172-.046.246l.002.275c.008.042.03.083.058.102.018.012.024.013.043.002.032-.017.053-.054.056-.1.004-.036.007-.042.018-.036a.4.4 0 0 0 .082.009l.07.002-.038-.046a.8.8 0 0 1-.12-.176.6.6 0 0 1-.064-.235 1 1 0 0 0-.014-.101c-.008-.024-.029-.025-.04-.002m3.522 3.392a.2.2 0 0 1 .024-.058c.022-.029.04-.035.03-.011a.12.12 0 0 0 .015.118c.03.046.036.108.016.152-.022.047-.07.049-.1.002q-.036-.054-.005-.133zm.131.223a.1.1 0 0 0-.038.03c-.045.065.06.135.136.09.08-.05.083-.05.121-.037.034.01.035.01.028-.004-.013-.026-.034-.038-.114-.066-.092-.032-.095-.032-.133-.013m-.42.046c.03.016.07.01.107-.02a.1.1 0 0 1 .071-.027c.092-.002.136.078.068.123q-.05.034-.127.003l-.074-.026a.1.1 0 0 1-.052-.032q-.03-.04.006-.021m.321.068a.2.2 0 0 0-.007.06.68.68 0 0 1-.162.44.4.4 0 0 0-.043.056.4.4 0 0 0 .14-.006c.014-.008.016-.005.021.026.008.042.03.082.058.101.018.012.024.013.043.002.032-.017.053-.054.056-.1.004-.034.007-.04.018-.035a.4.4 0 0 0 .082.008l.07.003-.038-.046a.8.8 0 0 1-.12-.174.6.6 0 0 1-.064-.233 1 1 0 0 0-.013-.1c-.01-.024-.03-.025-.04-.002m-2.84-.282a.2.2 0 0 1 .025-.058c.022-.029.04-.035.03-.011a.12.12 0 0 0 .014.118c.03.046.037.108.016.152-.022.047-.07.049-.1.002q-.035-.054-.005-.133zm.132.223a.1.1 0 0 0-.038.03c-.045.065.06.135.135.09.08-.05.083-.05.122-.037.033.01.035.01.028-.003-.014-.027-.035-.04-.115-.067-.092-.031-.095-.031-.132-.013m-.421.046c.03.016.07.01.107-.02a.1.1 0 0 1 .072-.027c.091-.002.135.078.068.124-.033.022-.078.023-.127.002l-.074-.026a.1.1 0 0 1-.052-.032q-.03-.04.006-.021m.322.068a.2.2 0 0 0-.007.06.68.68 0 0 1-.162.44.4.4 0 0 0-.043.056.4.4 0 0 0 .14-.006c.015-.008.016-.005.022.026a.16.16 0 0 0 .057.101c.018.012.024.013.043.002.033-.017.053-.054.057-.1.003-.034.006-.04.017-.035a.4.4 0 0 0 .083.009l.069.002-.037-.046a.8.8 0 0 1-.12-.174.6.6 0 0 1-.065-.233 1 1 0 0 0-.013-.1c-.009-.024-.03-.025-.04-.002m1.357-.364a.2.2 0 0 1 .024-.059c.022-.029.04-.035.03-.01a.12.12 0 0 0 .015.117c.03.046.036.108.015.152-.022.047-.07.05-.1.002q-.035-.055-.005-.132l.02-.07m.13.222a.1.1 0 0 0-.037.03c-.045.065.06.135.135.09.08-.05.083-.05.122-.037.033.01.035.01.028-.003-.014-.027-.034-.039-.115-.067-.091-.031-.095-.031-.132-.013m-.42.046c.03.016.07.01.107-.019a.1.1 0 0 1 .072-.028c.091-.002.136.078.068.124-.033.023-.078.023-.127.002l-.074-.025a.1.1 0 0 1-.052-.033q-.03-.04.006-.021m.322.068a.2.2 0 0 0-.007.06.68.68 0 0 1-.162.44.4.4 0 0 0-.043.056.4.4 0 0 0 .14-.006c.014-.008.016-.005.022.026a.16.16 0 0 0 .057.101c.018.012.024.013.043.002.033-.017.053-.054.057-.1.003-.034.006-.04.017-.035a.4.4 0 0 0 .082.009l.07.002-.038-.045a.8.8 0 0 1-.12-.175.6.6 0 0 1-.064-.233 1 1 0 0 0-.013-.1c-.009-.023-.03-.025-.04-.002m1.337-2.899a.2.2 0 0 1 .025-.058c.021-.029.04-.036.03-.011a.12.12 0 0 0 .014.118c.03.046.037.107.016.151-.022.048-.07.05-.1.003q-.035-.054-.005-.133zm.131.223a.1.1 0 0 0-.038.029c-.045.066.061.135.136.09.08-.05.083-.05.122-.037.033.012.034.011.028-.003-.014-.026-.035-.038-.115-.066-.092-.032-.095-.032-.133-.013m-.42.045c.03.017.07.01.107-.018a.1.1 0 0 1 .072-.028c.091-.002.135.078.068.123q-.052.034-.128.003l-.073-.026a.1.1 0 0 1-.053-.032q-.029-.04.007-.022m.307.075a.2.2 0 0 0-.007.061.7.7 0 0 1-.163.444.4.4 0 0 0-.042.057c0 .009.123.004.14-.006.014-.009.015-.006.021.025.007.043.03.083.058.103.017.012.024.013.042.002.033-.018.054-.055.057-.101.004-.035.007-.041.018-.035a.4.4 0 0 0 .082.008l.069.002-.037-.045a.8.8 0 0 1-.12-.177.6.6 0 0 1-.065-.235 1 1 0 0 0-.013-.1c-.009-.025-.03-.026-.04-.003M1.44 7.717a.2.2 0 0 1 .024-.058c.022-.029.04-.036.03-.011a.12.12 0 0 0 .015.118c.03.046.036.107.016.152-.023.047-.071.049-.1.002q-.036-.054-.006-.133l.02-.07m.131.223a.1.1 0 0 0-.038.03c-.045.065.06.135.135.09.08-.05.083-.051.122-.037.033.01.035.01.028-.004-.013-.026-.034-.038-.114-.066-.092-.032-.096-.032-.133-.013m-.421.046c.03.016.07.009.107-.02a.1.1 0 0 1 .072-.027c.091-.002.136.078.068.123-.033.023-.078.024-.127.003l-.074-.026a.1.1 0 0 1-.052-.032q-.03-.04.006-.021m.307.074a.2.2 0 0 0-.007.061.7.7 0 0 1-.162.444.4.4 0 0 0-.043.057c0 .009.123.004.14-.006.014-.009.016-.006.021.025.008.043.03.084.058.103.018.012.024.013.043.002.033-.018.053-.055.057-.101.003-.035.006-.041.017-.035a.4.4 0 0 0 .082.008l.07.002-.038-.045a.8.8 0 0 1-.12-.177.6.6 0 0 1-.064-.235 1 1 0 0 0-.014-.1c-.008-.024-.029-.026-.04-.003m1.372-.37a.2.2 0 0 1 .024-.059c.022-.029.04-.035.03-.011a.12.12 0 0 0 .015.118c.03.046.036.108.016.152-.022.047-.07.049-.1.002q-.036-.054-.005-.133zm.131.222a.1.1 0 0 0-.038.03c-.045.065.06.135.136.09.08-.05.083-.05.121-.037.034.01.035.01.028-.003-.013-.027-.034-.04-.114-.067-.092-.032-.095-.031-.133-.013m-.42.046c.03.016.07.01.107-.02a.1.1 0 0 1 .071-.027c.092-.002.136.078.068.124q-.05.033-.127.002l-.074-.026a.1.1 0 0 1-.052-.032q-.03-.04.006-.021m.306.075a.2.2 0 0 0-.007.06.7.7 0 0 1-.162.444.4.4 0 0 0-.043.057c0 .009.124.004.14-.006.015-.008.016-.006.022.025.007.043.03.084.057.103.018.012.024.013.043.002.033-.018.053-.055.057-.101.003-.035.006-.041.017-.035a.4.4 0 0 0 .083.008l.069.003-.037-.046a.8.8 0 0 1-.121-.177.6.6 0 0 1-.064-.235 1 1 0 0 0-.013-.1c-.009-.024-.03-.026-.04-.002M.811 9.374c0-.024.003-.05.007-.06.011-.024.032-.022.04.002a1 1 0 0 1 .014.1.6.6 0 0 0 .064.235.8.8 0 0 0 .12.177l.037.045-.069-.002a.4.4 0 0 1-.082-.008c-.011-.006-.014 0-.018.035-.003.046-.024.083-.056.1-.019.012-.026.011-.043-.001a.16.16 0 0 1-.058-.103L.765 9.62a.7.7 0 0 0 .046-.246" clip-rule="evenodd"/><path fill="#C00" d="M0 18h6v-6H0z"/><path fill="#0092C8" d="M6 0h18v18H6z"/><path fill="#FFCF00" stroke="#650000" stroke-width=".1" d="M1.855 13.325c-.059-.073 0-.206.053-.15-.028-.054.018-.097.038-.07-.01-.043.034-.073.056-.032-.008-.05.057-.078.074-.024 0-.049.064-.087.078-.016.012-.055.083-.062.089.016.02-.045.073-.042.076.024.023-.031.082.015.072.07.037-.009.081.069.037.126.079-.044.098.1.05.165.024.016.027.002.048.014a.4.4 0 0 0 .098.04c.033 0 .154-.004.178-.008q.038-.008.099-.032c.042-.014.103-.015.158-.029.044-.005 1.281.021 1.317.017.035-.004.087-.04.084-.084-.002-.043-.043-.075-.084-.08a2 2 0 0 0-.29.005.26.26 0 0 0-.12.056c-.014.008-.036.042-.054.064-.017.016-.066.018-.066-.002 0-.013-.004.003-.016.008-.016.01-.086.013-.083 0 .006-.015 0-.02-.018-.004a.23.23 0 0 1-.129.004c.011-.019.011-.018-.018-.002-.018.008-.095.015-.1-.001 0-.013-.01-.007-.02-.003-.087.024-.095-.004-.081-.016s.034-.08.012-.076l-.205.04a5 5 0 0 1-.43-.005c-.046-.004-.098-.05-.1-.115-.006-.105.076-.132.125-.148.05-.016.172-.04.222-.04.049 0 .19.018.228.003a1 1 0 0 1 .187-.064c.049-.005.188.012.254.096-.035.017-.05.026-.012.012l.224-.05c.123-.006.091.013.03.03-.02.067-.2.161-.258.173a.8.8 0 0 1-.206-.002c-.028-.002-.157-.009-.204-.041a.6.6 0 0 0-.279-.089c-.058.001-.222.02-.222.08 0 .106.154.112.22.108.065-.004.23-.012.276-.032a.7.7 0 0 1 .202-.025c.054 0 .134.013.159.009s.082-.005.11-.025a.3.3 0 0 1 .146-.041c.06 0 .507-.018.568-.014.087 0 .148.1.15.185 0 .04-.019.099-.035.108l.117.016c.042.008.11.057.118.101a.3.3 0 0 0-.13-.054c-.008 0-.984-.002-1.06-.001a.56.56 0 0 1 .407.292c.036.06.123.035.156.027s.071-.043.099-.071c.027-.028.07-.036.09-.028.042-.004.05.043.033.067s.003.015.046.015q.068 0 .109.053c-.025.024-.038.004-.002.008s.079.073.052.093c-.023.012-.03.007 0 .011.045.004.057.035.063.09-.038.007-.02-.006 0 .014s.047.108-.022.112c-.025-.012-.024-.015-.019.013s-.008.094-.047.094c-.053.011-.1-.02-.106-.056-.006-.035-.005.07-.08.087-.071.016-.11-.027-.115-.046-.005-.02-.002-.005-.03-.008-.027-.005-.062-.005-.076-.052 0-.028.005-.065.054-.07.022-.004.028-.034.011-.038-.016-.004-.002-.064.033-.048s.118.02.137.04.025-.016-.005-.048-.214-.096-.263-.072a.66.66 0 0 1-.34.044c-.032-.008-.127.014-.172-.132a.32.32 0 0 0-.237-.23c-.31-.03-.293-.007-.092.003-.002.028-.009.085.024.093.054-.008.168-.033.196-.01.027.024.054.045.049.1s.003.04-.022.064-.014.072.025.088c.038.016.054.036.08.06.024.024-.012.072-.034.056s-.022-.016-.024.016-.03.092-.077.097c-.01-.004-.007-.02-.005-.033.002-.028-.01.034-.024.052-.01.011-.087.034-.108.022.01-.025.004-.014-.016-.002-.018.007-.12.022-.074-.029.012-.018-.016.024-.031.03-.013.01-.073.014-.073-.01-.02.018-.064.018-.071.005-.014-.016-.015.011-.04.015-.024.004-.078-.004-.08-.036-.003-.031.005-.011-.025-.008-.074.052-.11-.02-.11-.043 0-.024-.002-.052.006-.068s-.051-.021-.033-.052c.02-.039.042-.067.082-.06.02.004.016-.008.008-.024s.022-.024.058-.008c.035.016.06.056.07.092.012.036.097.008.132.012s.038-.06.017-.08c-.022-.02-.083-.092-.107-.116-.025-.024-.008-.107.014-.127.127-.091.057-.12.01-.112a.5.5 0 0 0-.204.102c-.038.044-.336.26-.363.283-.028.024-.067.03-.084.002-.016-.028-.027-.008-.024.032.021.15-.107.199-.13.197a.1.1 0 0 1-.054-.025c-.016.084-.086.092-.15.084-.001-.01.012-.028.005-.021-.022.029-.086.026-.142.021-.004-.018.02-.039.008-.027-.018.037-.05.03-.103.027 0-.008.025-.034.013-.019-.023.027-.07.018-.107.019-.004-.006.019-.047-.002-.02-.02.023-.064.027-.106.021-.007-.02.009-.02.013-.032.011-.02-.005 0-.019 0s-.033.004-.04-.016c-.009-.02-.004.02-.012.03s-.017.032-.044.04c-.028.008-.099.016-.11-.02-.015-.016-.022-.052-.01-.072.01-.02-.053.039-.08.044-.08.017-.09-.115-.055-.127.036-.012.03-.032.011-.048-.02-.016-.03-.08-.005-.1s.081-.031.117-.008c.021.015.066.068.058.028-.006-.025.01-.056.027-.07.015-.014.061-.018.074.014.029.074.05.105.085.104.075-.022.178-.047.208-.047.039-.01.243-.03.243-.05-.123.044-.172-.014-.186-.01-.013.004-.047-.013-.047-.024 0-.024.03-.02-.013-.013-.026-.002-.05-.003-.072-.032-.003-.015.03-.066.041-.108-.028-.008-.09.045-.111.093-.014-.018-.02-.002-.072.011a.1.1 0 0 1-.085-.005c-.022-.012-.108-.08-.066-.089q-.018-.008-.032-.011c-.03-.014-.058-.04-.05-.047-.007-.012.01-.012-.003-.015-.016-.004-.057-.035-.046-.047-.01-.007-.035-.018-.046-.024-.019-.012-.038-.053-.04-.073-.019.002-.056-.034-.04-.044-.028-.023-.052-.06-.033-.072-.017-.013-.029-.039-.017-.03-.018-.022-.012-.046.002-.046.013 0 .008-.064-.017-.064-.024 0-.064.02-.093 0-.024-.019-.044-.103-.022-.14.022-.035.066-.075.088-.071s.01.012.005-.024.031-.063.055-.072c.029-.014.085-.004.101.012.017.016.022.016.022-.012 0-.02.021-.03.04-.035.031-.008.056.002.067.015.017.026.027.056.005.08s-.003.004.033-.004c.023-.008.064.002.071.028.01.028.017.076-.008.1s-.06.084-.041.104c.02.02.08.107.093.12.014.011.03.04.052.035l.066-.012c.076-.016.11-.024.012-.021.022-.033.068-.042.088-.048-.017-.028.047-.087.047-.095Zm0 2.175c-.059-.073 0-.206.053-.15-.028-.053.018-.096.038-.07-.01-.043.034-.073.056-.032-.008-.05.057-.078.074-.024 0-.049.064-.087.078-.016.012-.055.083-.062.089.016.02-.045.073-.042.076.024.023-.031.082.015.072.07.037-.009.081.069.037.126.079-.044.098.1.05.165.024.016.027.002.048.014a.4.4 0 0 0 .098.04c.033 0 .154-.004.178-.008q.038-.008.099-.032c.042-.014.103-.015.158-.029.044-.005 1.281.021 1.317.017.035-.004.087-.04.084-.084s-.043-.075-.084-.08a2 2 0 0 0-.29.005.26.26 0 0 0-.12.056c-.014.008-.036.042-.054.064-.017.016-.066.018-.066-.002 0-.013-.004.003-.016.008-.016.01-.086.013-.083 0 .006-.015 0-.02-.018-.004a.23.23 0 0 1-.129.004c.011-.019.011-.018-.018-.002-.018.008-.095.015-.1-.001 0-.013-.01-.007-.02-.003-.087.024-.095-.004-.081-.016s.034-.08.012-.076l-.205.04a5 5 0 0 1-.43-.005c-.046-.004-.098-.05-.1-.115-.006-.106.076-.132.125-.148.05-.016.172-.04.222-.04.049 0 .19.018.228.002.038-.015.154-.06.187-.063.049-.005.188.012.254.096-.035.017-.05.026-.012.011.036-.007.189-.041.224-.05.123-.005.091.014.03.03-.02.068-.2.162-.258.174a.8.8 0 0 1-.206-.002c-.028-.002-.157-.009-.204-.041a.6.6 0 0 0-.279-.089c-.058.001-.222.02-.222.08 0 .106.154.112.22.108.065-.004.23-.012.276-.032a.7.7 0 0 1 .202-.025c.054 0 .134.013.159.009s.082-.005.11-.025a.3.3 0 0 1 .146-.041c.06 0 .507-.018.568-.014.087 0 .148.1.15.185 0 .04-.019.099-.035.108l.117.016c.042.008.11.057.118.101a.3.3 0 0 0-.13-.054c-.008 0-.984-.002-1.06-.001a.56.56 0 0 1 .407.291c.036.06.123.036.156.028s.071-.043.099-.071c.027-.028.07-.035.09-.028.042-.004.05.044.033.068-.017.023.003.014.046.014q.068 0 .109.053c-.025.024-.038.004-.002.008s.079.073.052.093c-.023.012-.03.007 0 .011.045.004.057.035.063.09-.038.007-.02-.006 0 .014s.047.108-.022.112c-.025-.012-.024-.015-.019.012.005.028-.008.095-.047.095-.053.011-.1-.02-.106-.055s-.005.069-.08.085c-.071.017-.11-.026-.115-.046s-.002-.004-.03-.008c-.027-.003-.062-.004-.076-.051 0-.028.005-.065.054-.07.022-.004.028-.034.011-.038-.016-.004-.002-.064.033-.048s.118.02.137.04.025-.016-.005-.048-.214-.096-.263-.072a.66.66 0 0 1-.34.044c-.032-.008-.127.014-.172-.132a.32.32 0 0 0-.237-.23c-.31-.03-.293-.007-.092.003-.002.028-.009.085.024.093.054-.008.168-.033.196-.01.027.024.054.044.049.1s.003.04-.022.064-.014.072.025.088c.038.016.054.036.08.06.024.024-.012.072-.034.056s-.022-.016-.024.016-.03.092-.077.096c-.01-.003-.007-.02-.005-.032.002-.028-.01.034-.024.052-.01.011-.087.034-.108.022.01-.025.004-.014-.016-.002-.018.007-.12.022-.074-.029.012-.018-.016.024-.031.03-.013.01-.073.014-.073-.01-.02.018-.064.018-.071.005-.014-.016-.015.011-.04.015-.024.004-.078-.004-.08-.035s.005-.012-.025-.008c-.074.05-.11-.02-.11-.044s-.002-.052.006-.068-.051-.021-.033-.053c.02-.038.042-.066.082-.059.02.004.016-.008.008-.024s.022-.024.058-.008c.035.016.06.056.07.092.012.036.097.008.132.012s.038-.06.017-.08c-.022-.02-.083-.092-.107-.116-.025-.024-.008-.107.014-.128.127-.09.057-.12.01-.111a.5.5 0 0 0-.204.102c-.038.044-.336.26-.363.283-.028.024-.067.03-.084.002-.016-.028-.027-.008-.024.032.021.15-.107.199-.13.197a.1.1 0 0 1-.054-.025c-.016.084-.086.092-.15.084-.001-.01.012-.029.005-.021-.022.029-.086.026-.142.021-.004-.018.02-.039.008-.027-.018.037-.05.03-.103.027 0-.008.025-.034.013-.019-.023.027-.07.018-.107.019-.004-.006.019-.047-.002-.02-.02.023-.064.027-.106.021-.007-.02.009-.02.013-.032.011-.02-.005 0-.019 0s-.033.004-.04-.016c-.009-.02-.004.02-.012.03s-.017.032-.044.04c-.028.008-.099.016-.11-.02-.015-.016-.022-.052-.01-.072.01-.02-.053.039-.08.044-.08.017-.09-.115-.055-.127.036-.012.03-.032.011-.048-.02-.016-.03-.08-.005-.1s.081-.031.117-.008c.021.015.066.068.058.028-.006-.025.01-.056.027-.07.015-.014.061-.018.074.014.029.074.05.105.085.104.075-.022.178-.047.208-.047.039-.01.243-.03.243-.05-.123.044-.172-.014-.186-.01-.013.004-.047-.013-.047-.024 0-.024.03-.02-.013-.013-.026-.002-.05-.003-.072-.032-.003-.015.03-.066.041-.108-.028-.008-.09.045-.111.093-.014-.018-.02-.002-.072.011a.1.1 0 0 1-.085-.005c-.022-.012-.108-.08-.066-.089q-.018-.009-.032-.011c-.03-.014-.058-.04-.05-.047-.007-.012.01-.012-.003-.015-.016-.004-.057-.035-.046-.047-.01-.007-.035-.018-.046-.024-.019-.012-.038-.053-.04-.073-.019.002-.056-.034-.04-.044-.028-.022-.052-.06-.033-.071-.017-.014-.029-.04-.017-.03-.018-.023-.012-.047.002-.047.013 0 .008-.064-.017-.064-.024 0-.064.02-.093 0-.024-.019-.044-.103-.022-.14.022-.035.066-.075.088-.071s.01.012.005-.024.031-.063.055-.072c.029-.014.085-.004.101.012.017.016.022.016.022-.012 0-.02.021-.03.04-.035.031-.008.056.002.067.015.017.026.027.056.005.08s-.003.004.033-.004c.023-.008.064.002.071.028.01.028.017.076-.008.1s-.06.083-.041.104c.02.02.08.107.093.12.014.011.03.04.052.035l.066-.012c.076-.016.11-.024.012-.021.022-.033.068-.042.088-.048-.017-.028.047-.086.047-.095Z"/><path fill="#FFCF00" fill-rule="evenodd" d="M14.618 1.687c.29-.073.759-.096 1.01-.053.05.01.141.019.233.028.148.014.297.028.274.048-.053.05-.23.526-.23.618 0 .033 1.18.853 1.23.853.065 0 .164.119.138.165-.014.02-.086.096-.162.165-.073.068-.19.422-.303.816.041-.058.118-.117.257-.211.171-.116 1.692-1.27 2.133-1.62.05-.036-.075-.059-.336-.056a3 3 0 0 0-.656.09c-.351.088-.613-.186-.726-.303a.4.4 0 0 0-.049-.048c-.099-.066-.24-.27-.24-.347 0-.016.095-.003.22.03.29.083.548.08.877-.006a2.6 2.6 0 0 1 .947-.053l.043.007q.09.014.122.016c.021.142.164.606.19.628.054.046 1.218.505 1.306.515.132.017.185.07.185.182 0 .109-.135.211-.326.248-.224.043-.785.69-1.177 1.358-.264.45-.41.783-.41.945 0 .165.1.796.202 1.275.063.284.079.334.112.288.036-.047.135-.053.795-.053h.758l.257-.446c.142-.248.254-.456.247-.46-.006-.006-.392-.04-.854-.069s-.844-.06-.85-.063c-.004-.006.158-.307.36-.67l.365-.661.745.125.233.04c.313.052.565.094.605.102.072.013.099 0 .158-.102a1 1 0 0 0 .042-.092v.016c-.01.214-.03.755-.263 1.203l-.57 1.087v.75h-.132a1 1 0 0 0-.132.006l.026.155.024.133c.026.152.04.255.03.268-.01.017-.096.03-.189.03l-.171.003-.096.25c-.168.374-.6 1.071-.966 1.557l-.08.102.186.086c.26.12.53.404.708.747.139.271.146.29.146.578 0 .281-.076.641-.139.645l-.796.123h-.002l-.363.055c-.626.096-1.154.169-1.177.162-.069-.026-.234-.304-.29-.486l-.021-.067c-.022-.068-.04-.127-.048-.144-.007-.027-.135.02-.4.155a5.4 5.4 0 0 1-1.331.48 5.83 5.83 0 0 1-3.235-.199 9.5 9.5 0 0 1-1.312-.65c-.61-.378-.861-.599-1.88-1.666-.33-.344-.415-.413-.64-.526-.227-.112-.293-.129-.49-.129-.185 0-.235-.01-.275-.062-.082-.116-.049-.251.11-.423 0 0 .048-.111.032-.122L8.22 8.78c-.296-.15.78-1.942 1.225-2.41.217-.231.227-.244.227-.403 0-.317.201-.942.416-1.305.099-.165.109-.195.076-.271-.063-.139 0-.218.402-.506.798-.571 1.263-.922 1.276-.961.023-.073-.323-.046-.59.046-.534.188-1.016.231-1.247.112-.105-.052-.267-.237-.267-.307 0-.01.11-.01.244 0 .1.007.081-.157.065-.3-.006-.051-.012-.1-.012-.136 0-.046.003-.083.01-.083.003 0 .047.016.103.037l.035.013c.235.083.59.063 1.046-.063.224-.063.508-.122.626-.135 0 0 .673-.126.574-.02-.053.056-.109.198-.162.4a8 8 0 0 0-.079.317l.102.02c.133.028.382.08.663.135.501.103.795.149.867.136.126-.027.205.026.205.135 0 .093-.066.149-.33.271a3 3 0 0 0-.412.251c-.27.205-.758.714-.966 1.011-.172.245-.172.245-.172.5 0 .277.066.7.152.99l.053.182.092-.248a4 4 0 0 1 .508-.968c.148-.205.175-.26.132-.277-.07-.027 0-.294.06-.33.059-.037.454-.387.876-.784l.765-.72v-.192c0-.185.004-.191.103-.211.056-.01.158-.02.224-.02.095-.003.155-.036.316-.182.106-.099.185-.191.168-.205-.013-.013-.145-.033-.293-.036-.214-.01-.36.01-.702.09-.485.115-.723.125-.947.049-.155-.053.076-.146.221-.185 0 0-.343-.592-.29-.575.455.139.643.145 1.035.046m7.736 3.156c-.007-.017-.009.012-.011.073.011-.032.016-.06.011-.073M19.409 1.79c-.011-.012-.014.003-.009.037q.044.002.01-.037m-2.647 2.7c-.145.522-.27 1.054-.27 1.054l.115-.251c.062-.139.155-.704.155-.79zm.294-1.19-.003-.001zm-.003-.001c-.068-.044-1.205-.844-1.205-.844l-.04.132c-.037.123.93.567 1.187.685zm-4.281-.263c.692.142.705.146.577.182l-.735.208-.64.179.023-.09c.072-.304.158-.598.175-.598.013 0 .28.053.6.12m-1.154.668.066-.238c.04-.13.075-.255.082-.278.01-.02.01-.04.007-.04-.01 0-1.078.784-1.105.807-.006.01.086-.013.211-.046.126-.037.343-.1.482-.136zm4.817 1.989-.082.27c-.1.338-.168.672-.221 1.081-.033.265-.06.34-.172.526a2.4 2.4 0 0 0-.161.31c-.088.203-.097.059-.112-.403-.023-.496.02-.998.122-1.47.069-.314.494-.585.54-.49zm-4.158 1.07c.027-.112.017-.181-.05-.376-.098-.294-.18-.674-.184-.866.007-.33-.027-.35-.152-.036-.21.472-.257.677-.257 1.166 0 .268.017.502.043.585.036.125.053.142.139.142h.098v.413c0 .344-.006.413-.049.413-.07 0-.063.036.036.271.159.38.99 1.266.907 1.104-.27-.559-.66-1.692-.597-2.323.02-.195.05-.42.066-.493m7.07.602c.043.168.043.198-.017.37l-.02.062c-.04.118-.1.298-.17.377-.156.172-.16.175-.199.103-.158-.3-.217-1.064-.118-1.583.042-.228.21-.836.23-.836.007 0 .027.122.05.271.043.304.171.958.244 1.236M9.656 6.313l.214.73s-.293-.611-.3-.674zm1.929 1.034c0 .017-.135.03-.3.03h-.3l-.821.012c.005-.02.235-.115.502-.225l.162-.067c.308.016.614.036.645.075a.8.8 0 0 1 .112.175m-.757-.25-.124-.006c-.269-.014-.511-.026-.54-.048l.963-.195.366-.074c-.013.047-.34.188-.665.323m-.612 1.106-.214-.337c0-.274-.013-.373-.072-.512-.04-.096-.092-.21-.105-.21-.006 0-.047.155-.107.385l-.148.558-.247.906.099.036c.056.02.25.122.432.231.184.11.36.199.389.199.105 0 .118-.136.053-.417a3 3 0 0 1-.073-.548zm5.972.274c.076.384.214.744.429 1.12.102.179.18.33.174.338-.033.03-.369.082-.399.066-.046-.03-.23-.43-.356-.774-.142-.386-.27-.921-.247-1.02a3 3 0 0 1 .158-.367l.135-.281.027.324c.013.178.046.446.079.594m2.628.047c.007-.057-.03-.09-.158-.156-.172-.086-.63.196-.63.196.105.218.392.597.468.597.02 0 .149-.099.29-.221.274-.238.304-.317.129-.334-.09-.01-.106-.023-.1-.082m-.412.72-.086.06c-.115.079-.874.452-.89.439a9 9 0 0 1 .178-.661l.16-.231c.034.063.128.086.225.11.085.02.172.042.221.091zm-1.51.591a8 8 0 0 0 .197-.568c.093-.297-.21-.07-.25.198-.023.175.01.413.052.37m-3.595-.591a4 4 0 0 1-.165.456c-.013.016-.082 0-.154-.036-.11-.057-.136-.09-.172-.235-.04-.162-.04-.175.043-.317.105-.179.26-.3.435-.344.178-.043.188-.043.172.003a8 8 0 0 0-.098.29zm1.079.476a3 3 0 0 1-.234-.612c-.047-.224-.07-.274-.13-.29-.13-.037-.144-.02-.23.267l-.106.343-.062.2-.08.254.337.07c.182.035.409.078.505.088l.171.02zm.366-.625.343.165-.152.172a1.2 1.2 0 0 0-.208.324 1 1 0 0 1-.076.175c-.059.066-.428-.793-.428-.994 0-.07.122-.03.52.158m1.061.991c.208-.016.396-.03.413-.03.066-.006-.42-.373-.782-.594a2 2 0 0 0-.237-.135 1.3 1.3 0 0 0-.145.145 1.07 1.07 0 0 0-.28.502l-.02.103.336.02c.184.01.508.003.715-.01" clip-rule="evenodd"/><path fill="#0091C8" d="M23.715 12.09v4.026H6.331v-4.273c.017.069.283.152.471.22.343.12.369.12.703-.102.453-.298.736-.29 1.25.034.77.486.976.495 1.208.069.17-.333.556-.333 1.216.008.282.145.573.256.66.256.076 0 .265-.136.41-.298.326-.375.514-.35 1.353.136.677.4.908.426.977.094.094-.418.171-.486.565-.486.24.008.6.11.968.281.317.154.642.273.702.273.068 0 .145-.12.18-.264a.7.7 0 0 1 .231-.384c.231-.145.471-.085 1.225.299.753.375.968.34.968-.162 0-.154.162-.256.41-.256.078 0 .395.153.711.35.685.408.874.408.934-.01.06-.425.343-.434 1.079-.05.548.298 1.163.418 1.163.24"/><path stroke="#fff" stroke-linecap="round" stroke-linejoin="round" stroke-width=".5" d="M6.395 11.99c.017.067.196.17.384.238.342.12.368.12.7-.102.454-.299.735-.29 1.248.034.769.486.974.494 1.204.068.171-.333.556-.333 1.213.008.282.145.573.256.658.256.077 0 .265-.136.41-.298.325-.375.513-.35 1.35.136.675.4.905.427.974.094.094-.418.17-.486.563-.486.24.009.598.11.966.281.316.154.64.273.7.273.068 0 .145-.12.18-.264a.7.7 0 0 1 .23-.384c.23-.145.47-.085 1.222.299.751.375.965.34.965-.162 0-.154.162-.256.41-.256.077 0 .393.153.709.35.683.409.871.409.93-.01.06-.425.343-.434 1.077-.05.547.298 1.06.4 1.06.221"/><path fill="#fff" fill-rule="evenodd" d="M18.406 15.628c-.236.159-.52.288-.626.288-.098 0-.407-.1-.667-.223l-.488-.231-.309.159c-.17.086-.406.194-.528.238-.13.05-.228.115-.228.144 0 .108.26.058.618-.13.398-.21.626-.195 1.016.043.537.347.708.333 1.301-.086.374-.267.634-.274 1.268-.029.472.173.529.18.773.087l.268-.101-.284-.008c-.155-.007-.52-.108-.797-.224-.285-.122-.602-.216-.7-.216s-.382.13-.617.289m-7.683.072c.398.282.642.274 1.024-.036.374-.303.472-.303 1.033-.072.487.202.674.216.934.093.163-.072.171-.072.066.044-.244.26-.39.274-.895.08-.553-.203-.666-.188-1.235.18-.188.115-.366.216-.399.216-.032 0-.252-.115-.48-.252-.455-.282-.634-.304-.992-.138-.138.058-.308.094-.382.065-.105-.036-.048-.086.228-.216.488-.231.732-.224 1.098.036" clip-rule="evenodd"/></g><rect width="23" height="17" x=".5" y=".5" stroke="#000" stroke-opacity=".1" rx="1.5"/><defs><clipPath id="a"><rect width="24" height="18" fill="#fff" rx="2"/></clipPath></defs></svg>