<svg xmlns="http://www.w3.org/2000/svg" fill="none" viewBox="0 0 24 18"><g clip-path="url(#a)"><mask id="b" width="24" height="18" x="0" y="0" maskUnits="userSpaceOnUse" style="mask-type:luminance"><path fill="#fff" d="M0 0h24v18H0z"/></mask><g fill-rule="evenodd" clip-rule="evenodd" mask="url(#b)"><path fill="#55BA07" d="M0 13.5h24V18H0z"/><path fill="#1D1D1D" d="M0 4.5h24v9H0z"/><path fill="#E11C1B" d="M0 0h24v4.5H0z"/><path fill="#fff" d="M11.848 11.3c-1.344-.278-1.693-.982-1.678-2.066 0-1.148.604-2.31 1.664-2.437s1.929.268 2.384.82c-.38-1.498-1.642-1.662-2.61-1.662-1.458-.013-2.953 1.095-2.953 3.179 0 1.816 1.318 3.18 2.995 3.214 2.097 0 2.425-1.448 2.485-1.94-.121.086-.234.19-.35.297-.421.388-.883.812-1.937.594m3.35-2.832-.994.313 1.112.435-.155 1.165.754-.802 1.093.226-.739-.864.655-.883-.914.193-.645-.73z"/></g></g><rect width="23" height="17" x=".5" y=".5" stroke="#000" stroke-opacity=".1" rx="1.5"/><defs><clipPath id="a"><rect width="24" height="18" fill="#fff" rx="2"/></clipPath></defs></svg>