<svg xmlns="http://www.w3.org/2000/svg" fill="none" viewBox="0 0 24 18"><g clip-path="url(#a)"><mask id="b" width="24" height="18" x="0" y="0" maskUnits="userSpaceOnUse" style="mask-type:luminance"><path fill="#fff" d="M0 0h24v18H0z"/></mask><g mask="url(#b)"><path fill="#F7FCFF" fill-rule="evenodd" d="M0 0v18h24V0H0Z" clip-rule="evenodd"/><mask id="c" width="24" height="18" x="0" y="0" maskUnits="userSpaceOnUse" style="mask-type:luminance"><path fill="#fff" fill-rule="evenodd" d="M0 0v18h24V0H0Z" clip-rule="evenodd"/></mask><g fill-rule="evenodd" clip-rule="evenodd" mask="url(#c)"><path fill="#006B49" d="M5.7 10.74c-.321-.223-.177-.712-.177-.712s.477.27.644.396c.167.126.287.645.287.645s-.433-.105-.754-.328Zm.858.7c-.016-.14.023-.267.023-.267s.403.215.544.315c.14.1.242.511.242.511s-.366-.083-.637-.26a.38.38 0 0 1-.164-.249 1.367 1.367 0 0 1-.5.059c-.274-.027-.471-.41-.471-.41s.373-.002.52.018c.115.016.346.202.443.284Zm1.269.733s.029.403.32.485c.292.082.633.047.633.047s-.228-.355-.382-.405c-.155-.05-.571-.127-.571-.127Zm1.729 1.079c-.302-.03-.4-.423-.4-.423s.424.004.584.026c.161.023.447.333.447.333s-.33.094-.631.064Zm.536-.726s-.041.47.262.628c.303.158.68.19.68.19s-.184-.458-.343-.549c-.16-.09-.6-.269-.6-.269Zm.211 1.2c-.334.069-.598-.322-.598-.322s.454-.139.635-.168c.18-.03.612.21.612.21s-.314.213-.649.28Zm-2.42-.843s.16.371.462.354c.302-.017.613-.161.613-.161s-.33-.262-.493-.26c-.162.004-.581.067-.581.067Zm.88-.426c-.271-.136-.223-.538-.223-.538s.394.156.536.234c.142.079.298.47.298.47s-.341-.03-.612-.166ZM7.236 10.99s0 .495.205.689c.203.194.448.261.448.261s-.145-.502-.252-.612c-.108-.11-.4-.338-.4-.338Zm-.747 1.095s.305.396.618.375c.313-.02.588-.176.588-.176s-.446-.278-.616-.274c-.17.005-.59.075-.59.075Zm.074-.09c-.167.015-.323-.193-.323-.193s.224-.043.314-.048c.09-.005.323.138.323.138s-.148.087-.314.103Zm.138-1.604s-.177.19-.133.351a.859.859 0 0 0 .156.292s.1-.254.08-.342a3.574 3.574 0 0 0-.103-.301Zm1.47 1.672c-.104-.04-.08-.164-.08-.164s.151.043.205.066c.054.022.11.141.11.141s-.132-.005-.236-.043Zm-.536.48s-.024.125.079.164c.103.038.235.043.235.043s-.055-.119-.11-.141a2.642 2.642 0 0 0-.204-.066Zm1.981.164c-.103-.04-.08-.164-.08-.164s.152.043.206.066c.054.022.11.141.11.141s-.133-.005-.236-.043Zm-.46.623s-.023.125.08.164c.103.039.235.044.235.044s-.056-.12-.11-.142a2.774 2.774 0 0 0-.205-.066Zm2.041.854-.334-.278c.208-.12.422-.216.606-.288a.604.604 0 0 0-.133-.074v-.091s.125.032.312.098c.187-.066.312-.098.312-.098v.091a.602.602 0 0 0-.133.074c.183.072.398.167.606.288l-.334.278s-.23-.24-.451-.427c-.221.188-.451.427-.451.427Zm6.577-4.156s.144.49-.177.713c-.321.223-.755.328-.755.328s.12-.519.288-.645a9.42 9.42 0 0 1 .644-.396ZM16.74 11.44a.725.725 0 0 0-.024-.268s-.402.215-.543.315c-.141.1-.243.511-.243.511s.366-.083.637-.26a.38.38 0 0 0 .165-.249c.08.025.287.079.5.059.273-.027.47-.41.47-.41s-.372-.002-.52.018c-.115.016-.346.202-.442.284Zm-1.269.732s-.029.403-.32.485c-.292.082-.633.047-.633.047s.227-.355.382-.405c.154-.05.571-.127.571-.127Zm-1.73 1.079c.302-.03.4-.423.4-.423s-.423.004-.584.026c-.16.023-.446.333-.446.333s.329.094.63.064Zm-.535-.726s.041.47-.262.628c-.303.158-.68.19-.68.19s.184-.458.343-.549c.16-.09.6-.269.6-.269Zm-.212 1.2c.335.069.599-.322.599-.322s-.454-.139-.635-.168c-.181-.03-.612.21-.612.21s.313.213.648.28Zm2.42-.843s-.159.371-.461.354c-.303-.017-.613-.161-.613-.161s.33-.262.493-.26c.162.004.581.067.581.067Zm-.879-.426c.271-.136.223-.538.223-.538s-.395.156-.537.234c-.142.079-.297.47-.297.47s.34-.03.611-.166Zm1.525-1.467s0 .495-.204.689c-.204.194-.448.261-.448.261s.144-.502.252-.612c.107-.11.4-.338.4-.338Zm.747 1.095s-.304.396-.617.375a1.549 1.549 0 0 1-.589-.176s.446-.278.617-.274c.17.005.59.075.59.075Zm-.073-.09c.167.015.323-.193.323-.193s-.224-.043-.314-.048c-.09-.005-.324.138-.324.138s.148.087.315.103Zm-.139-1.604s.178.19.134.351c-.044.162-.156.292-.156.292s-.1-.254-.08-.342a3.57 3.57 0 0 1 .102-.301Zm-1.469 1.672c.103-.04.08-.164.08-.164s-.151.043-.205.066c-.054.022-.11.141-.11.141s.132-.005.235-.043Zm.536.48s.024.125-.08.164c-.103.038-.234.043-.234.043s.055-.119.11-.141c.053-.023.204-.066.204-.066Zm-1.982.164c.104-.04.08-.164.08-.164s-.151.043-.205.066c-.054.022-.11.141-.11.141s.132-.005.236-.043Zm.46.623s.024.125-.079.164a.88.88 0 0 1-.235.044s.055-.12.11-.142c.053-.023.204-.066.204-.066Z"/><path fill="#F57A01" d="M20.855 2.263s.26.333 0 .333-.92.361-.92.361-.314.47-.695.575c-.38.106-.508.5-1.065.664-.557.164-.614.21-.614.375 0 .166.095.448-.285.448s-.649-.533-.855 0c-.205.532-.414.688-.129 1.014.285.325.663.637.823.825.161.188 1.233.739.446.739-.786 0-.39-.499-.996-.317-.605.182-.258.45-.72.316-.463-.134-.77-.256-.914-.195-.144.061-.374-.34-.374.196 0 .535.431.318-.494.91-.926.591-.742.428-1.167.428-.425 0-.574.268-.857.268h-.568c-.319 0 .023-.34-.521 0-.544.339-.739.406-.739.536v.476s-.498.285-.498 0c0-.286-.154-.359-.36-.476-.207-.117-.62-.033-1.061 0-.441.033-.94-.445-1.323-.445-.382 0-.454-.36-.558-.36-.105 0 .109-.306-.337-.582-.446-.276-.602-.31-.602-.756 0-.445-.204-.567-.204-.838 0-.27.218.1.68.1.463 0 .493-.286 1.021-.556.529-.27.708-.417 1.149-.27.44.148.874.698 1.234.17.36-.527.36-1.13.36-1.435 0-.305-.212-.392.363-.196s.91.196 1.865.196c.956 0 2.1.312 2.451 0 .352-.313.729-.57 1.643-.57s1.212-.45 1.827-.665c.614-.215-.292.24 1.086-.348 1.379-.588 1.908-.921 1.908-.921Z"/></g></g></g><path stroke="#000" stroke-opacity=".1" stroke-width=".5" d="M.25.25h23.5v17.5H.25z"/><defs><clipPath id="a"><path fill="#fff" d="M0 0h24v18H0z"/></clipPath></defs></svg>