<svg xmlns="http://www.w3.org/2000/svg" fill="none" viewBox="0 0 24 18"><g clip-path="url(#a)"><mask id="b" width="26" height="18" x="0" y="0" maskUnits="userSpaceOnUse" style="mask-type:luminance"><path fill="#fff" d="M0 0h25.5v18H0z"/></mask><g fill-rule="evenodd" clip-rule="evenodd" mask="url(#b)"><path fill="#43B764" d="M0 0v9h24V0H0Z"/><path fill="#B4D7F4" d="M0 9v9h24V9H0Z"/><path fill="#BE0027" d="m0 0 24.75 9L0 18V0Z"/><path fill="#F3E294" d="M6.076 13.887a.937.937 0 0 1 .364-.232c.01-.477.003-.998-.026-1.494-.04-.059-.108-.108-.228-.108-.3 0-.959-.257-.959-.626 0 0 .491.222.629.111.058-.047-.094-.194-.278-.37-.249-.24-.554-.534-.48-.715 0 0 .482.426.584.426.047 0 .015-.138-.017-.277-.038-.165-.077-.332.017-.268.174.119.654.934.654 1.204 0 .147.039.378.074.558v-.005a8.97 8.97 0 0 0-.087-.829c-.216-1.35-.224-2.733.077-3.47-.15-.093-.26-.211-.26-.346 0 0 .492.2.629.1.058-.043-.094-.175-.278-.334-.248-.215-.554-.48-.48-.643 0 0 .482.384.585.384.047 0 .015-.125-.017-.25-.039-.148-.077-.298.017-.24.173.106.654.84.654 1.083v.005c.186-.23.403-.446.517-.5.123-.058.073.092.023.24-.042.126-.084.25-.023.25.134 0 .76-.384.76-.384.097.164-.3.429-.623.643-.24.16-.438.291-.362.334.179.1.817-.1.817-.1 0 .332-.856.563-1.246.563-.145 0-.233.038-.286.086-.026.23-.037.49-.036.77.195-.251.438-.498.562-.556.122-.058.072.092.022.24-.042.126-.084.25-.022.25.133 0 .76-.384.76-.384.096.164-.301.429-.624.643-.24.16-.438.291-.362.334.179.1.818-.1.818-.1 0 .295-.677.51-1.102.554.024.243.056.489.095.732.041.26.072.557.093.886.009.14.016.284.021.427.02-.12.033-.237.033-.325 0-.27.48-1.086.654-1.204.094-.065.055.102.017.267-.032.14-.064.277-.017.277.103 0 .584-.426.584-.426.075.182-.231.476-.48.715-.183.177-.336.323-.277.37.137.111.628-.11.628-.11 0 .369-.658.625-.958.625a.281.281 0 0 0-.176.052c.008.317.008.632.003.932a.94.94 0 0 1 .39.25c.192-.014.381-.043.568-.088.36-.199 1.157-.837 1.36-1.088.152-.19.21-.564.266-.918.031-.202.062-.397.108-.548.128-.413.355.503.355.645 0 .143.186-.529.186-1 0-.236-.047-.387-.093-.539-.047-.15-.093-.3-.093-.534 0-.276.16-.227.31-.084a1.957 1.957 0 0 1-.124-.657c0-.306-.038-.398-.055-.42.015.006.055.01.14-.036.143-.078.21.018.267.099.049.07.09.128.167.048.083-.088-.098-.188-.367-.336-.258-.142-.597-.33-.86-.593-.538-.54.167-.725.288-.537.12.188.837.4.42-.226-.253-.38-.565-.376-.85-.372-.183.003-.354.006-.49-.095-.236-.175.092-.355.27-.454.086-.046.137-.075.077-.075-.076 0-.173-.027-.288-.059a2.149 2.149 0 0 0-.588-.101c-.38 0-1.134-.34-.873-.34.092 0 .23-.034.38-.07a2.98 2.98 0 0 1 .505-.091 8.702 8.702 0 0 0-1.57-.535l.1-.398c.583.143 1.108.32 1.573.529a8.328 8.328 0 0 1-.24-.383c-.248-.435.53.24.838.687v.002c.502.29.915.63 1.24 1.017v-.88c.291.1.457 1.04.544 1.748.063.142.118.29.164.441.113-.302.327-.622.52-.345.228.33-.176 2.206-.325 2.854a6.924 6.924 0 0 1-.023.203c.355-.226.539-.748.633-1.015.081-.23.096-.272.096.229 0 .648-.504 1.289-.917 1.705a5.6 5.6 0 0 1-.21.6c.284-.09.528-.248.717-.37.33-.215.493-.32.41.24-.09.612-.977.837-1.535.92-.04.064-.082.128-.126.192l-.023.028a5.54 5.54 0 0 1-.262.25c.057-.023.11-.048.163-.072.218-.099.416-.189.667-.189.151 0-.056.08-.348.191-.347.132-.813.31-.95.458-.057.062-.094.112-.125.152-.09.12-.116.155-.396.163-.433.23-.884.374-1.352.434.03.07.042.117.042.117H5.77s.015-.057.052-.14a3.93 3.93 0 0 1-1.19-.41h-.03c-.429 0-.449-.026-.552-.164-.03-.04-.068-.09-.125-.152-.137-.147-.603-.326-.95-.458-.292-.112-.5-.19-.348-.19.25 0 .449.09.666.188.07.031.14.064.216.094.07.029.166.064.27.1a6.046 6.046 0 0 1-.4-.371l-.024-.03a5.678 5.678 0 0 1-.11-.168c-.517-.056-1.622-.256-1.723-.942-.084-.56.079-.456.41-.242.199.13.46.298.764.384l.148.04a5.532 5.532 0 0 1-.16-.419c-.42-.377-1.162-1.153-1.162-1.939 0-.5.014-.46.095-.229.097.275.289.817.663 1.032 0 0-.654-2.673-.377-3.074.278-.4.6.445.6.683 0 .042.005-.003.014-.106.044-.488.205-2.281.613-2.42v.968c0 .045.02.063.056.059a4.305 4.305 0 0 1 1.028-.959c.061-.076.115-.147.157-.208.308-.447 1.086-1.122.837-.687-.075.13-.165.268-.247.395l-.069.106A8.815 8.815 0 0 1 6.714 4.5l.1.398a8.646 8.646 0 0 0-1.602.55c.12.018.246.048.364.076.151.036.288.07.38.07.261 0-.492.34-.873.34-.224 0-.424.056-.588.101a1.211 1.211 0 0 1-.288.06c-.06 0-.008.028.077.074.179.099.507.28.271.454-.136.1-.308.098-.491.095-.203-.003-.42-.006-.62.131a3.26 3.26 0 0 0-.337.614c.09.119.446-.02.528-.147.12-.188.826-.003.288.537-.264.264-.603.45-.861.593-.084.047-.16.088-.221.126a8.589 8.589 0 0 0-.023.22.488.488 0 0 0 .045-.058c.056-.081.123-.177.267-.099.085.046.124.042.14.035-.017.023-.056.115-.056.42 0 .24-.055.471-.124.658.15-.143.31-.192.31.084 0 .233-.046.384-.092.534a1.64 1.64 0 0 0-.094.54c0 .47.187 1.142.187 1 0-.143.226-1.06.354-.646.047.15.077.346.109.549.055.353.113.727.266.917.175.218.799.727 1.196.988.244.086.494.144.75.173ZM3.277 8.664s-.003 0-.007.006c.005-.002.007-.005.007-.006Zm6.964.006c-.004-.006-.007-.007-.008-.006 0 0 .002.004.008.006Zm.134 3.295.05-.106c-.042.04-.074.084-.05.106ZM6.912 8.212c-.01.101-.038.225-.067.338a2.86 2.86 0 0 1 .067-.338Z"/></g></g><path stroke="#000" stroke-opacity=".1" stroke-width=".5" d="M.25.25h23.5v17.5H.25z"/><defs><clipPath id="a"><path fill="#fff" d="M0 0h24v18H0z"/></clipPath></defs></svg>