<svg xmlns="http://www.w3.org/2000/svg" fill="none" viewBox="0 0 24 18"><g clip-path="url(#a)"><mask id="b" width="24" height="18" x="0" y="0" maskUnits="userSpaceOnUse" style="mask-type:luminance"><path fill="#fff" d="M0 0h24v18H0z"/></mask><g mask="url(#b)"><path fill="#F50100" fill-rule="evenodd" d="M0 0v18h24V0z" clip-rule="evenodd"/><mask id="c" width="24" height="18" x="0" y="0" maskUnits="userSpaceOnUse" style="mask-type:luminance"><path fill="#fff" fill-rule="evenodd" d="M0 0v18h24V0z" clip-rule="evenodd"/></mask><g fill="#FFD018" mask="url(#c)"><path fill-rule="evenodd" d="M0-.031V3.03l10.5 4.464L2.441-.031zM12 9l2.25-9h-4.5zm0 0-2.25 9h4.5zM0 14.963v3.063h2.441L10.5 10.5zM24 3.05V-.013h-2.441L13.5 7.513zm0 14.995v-3.063l-10.5-4.464 8.059 7.527zM24 6.75 15 9l9 2.25zM9 9 0 6.75v4.5z" clip-rule="evenodd"/><path stroke="#F50100" stroke-width="2" d="M12 5a4 4 0 1 1 0 8 4 4 0 0 1 0-8Z"/></g></g></g><rect width="23" height="17" x=".5" y=".5" stroke="#000" stroke-opacity=".1" rx="1.5"/><defs><clipPath id="a"><rect width="24" height="18" fill="#fff" rx="2"/></clipPath></defs></svg>