<svg xmlns="http://www.w3.org/2000/svg" fill="none" viewBox="0 0 24 18"><g clip-path="url(#a)"><mask id="b" width="24" height="18" x="0" y="0" maskUnits="userSpaceOnUse" style="mask-type:luminance"><path fill="#fff" d="M0 0h24v18H0z"/></mask><g mask="url(#b)"><path fill="#F7FCFF" fill-rule="evenodd" d="M0 0v18h24V0H0Z" clip-rule="evenodd"/><mask id="c" width="24" height="18" x="0" y="0" maskUnits="userSpaceOnUse" style="mask-type:luminance"><path fill="#fff" fill-rule="evenodd" d="M0 0v18h24V0H0Z" clip-rule="evenodd"/></mask><g mask="url(#c)"><path fill="#56C6F5" fill-rule="evenodd" d="M0 9v9h24V9H0Z" clip-rule="evenodd"/><path fill="#006923" fill-rule="evenodd" d="M7.69 6.772a.42.42 0 0 0-.041-.161c-.193-.36-.13-.809-.13-.809s-.23.526-.366 1.022c-.141-.23-.191-.462-.191-.462S6.87 7.815 7.15 8.16c.28.344.468.495.468.495s.021-.603-.06-1.075a3.49 3.49 0 0 0 .127-.598c.037-.028.134-.1.256-.2a3.015 3.015 0 0 0-.054.436s1.058-.768 1.085-1.174c.027-.407.318-.755.318-.755s-.24.165-.515.385c.072-.341.297-.61.297-.61s-1.202.822-1.3 1.255c-.043.189-.068.34-.082.453Zm.052 2.497c-.115-.217-.617-1.13-.966-1.209-.398-.09-.696-.431-.696-.431s.624 1.315 1.037 1.48c.331.133.55.186.622.201-.012.178-.014.3-.014.3s.195-.141.493-.47c.299-.33.283-1.785.283-1.785s-.118.437-.436.693c-.213.17-.293.816-.323 1.221Zm-.938-.137c.454-.003 1.152 1.11 1.152 1.11s-.27.015-.743-.06c-.473-.074-1.21-1.343-1.21-1.343s.347.295.8.293Zm2.213 2.592s.269-1.418-.136-1.749c-.404-.33-.476-.825-.476-.825s-.359 1.573 0 1.98c.36.408.612.594.612.594Zm-1.633-.383c.264.314 1.106 0 1.106 0l-.482-.441c-.667-.61-2.026-.225-1.66-.225.365 0 .772.353 1.036.666Zm.624 1.666c.49.414 1.548-.572 1.548-.572s-.273-.33-.777-.573c-.505-.243-2.367 0-2.367 0l.828.37s-.922.36-.677.34c.245-.02.955.02 1.445.435Z" clip-rule="evenodd"/><path fill="#093" fill-rule="evenodd" d="M14.41 12.147s-.42-.707 0-1.049c.421-.342.588-.114.588-.507s.042-.276.25-.471c.206-.196.06-.67.337-.433.277.237.328-.217.328.727V9.028c0-.53-.328-.405-.328-.76 0-.356-.33-.887 0-.887.328 0 .522.395.522.395s.323.55.323 0-.575-.387-.845-.994c-.27-.608-.228.068-.587-.715-.36-.783-.788-1.032-.394-1.032h.643c.338 0 .86-.28.86 0v.592c0 .44.323.44.323.44s.175-.88.396-.44c.22.44.07 1.155.232 1.155.161 0 .028-.74.38-.173.353.565 0 .949 0 1.167 0 .218-.38.753-.38.753s.074.262.38 0c.306-.261.597-.523.597-.261 0 .261.596.342 0 .76-.597.417-.216.835-.597.835-.38 0-.828.55-1.008.55-.18 0-.853.423-.517.423.337 0 .681-.844.913-.422.232.422.229-.069.42.177.192.245.384 1.575.192 1.041-.191-.534-.492-.534-1.008-.534-.517 0-1.52.039-1.183.286.338.248.716-.247.86 0 .143.248.101.496.323.248.221-.248.44 0 .628 0 .189 0-.189.277 0 .515s.61.556.189.556-.637-.337-.817 0c-.18.336-.188.92-.517.46-.328-.46-.915-.227-.915-.46 0-.234.128-.272-.23-.272s-.358-.284-.358-.284Z" clip-rule="evenodd"/><path fill="#C51918" fill-rule="evenodd" d="M16.137 7.088a.185.185 0 0 1-.181.187.185.185 0 0 1-.182-.187c0-.104.081-.188.182-.188.1 0 .181.084.181.188ZM7.754 7.5c.1 0 .181-.084.181-.187a.185.185 0 0 0-.181-.188c-.1 0-.181.084-.181.188 0 .103.08.187.181.187Zm.181.788a.185.185 0 0 1-.181.187.185.185 0 0 1-.181-.187c0-.104.08-.188.181-.188.1 0 .181.084.181.188Zm.11 1.912c.1 0 .18-.084.18-.187a.185.185 0 0 0-.18-.188c-.1 0-.182.084-.182.188 0 .103.081.187.181.187Zm1.451 1.875c.1 0 .181-.084.181-.187a.185.185 0 0 0-.181-.188c-.1 0-.181.084-.181.188 0 .103.08.187.181.187Zm6.968-2.85c.1 0 .181-.084.181-.187a.185.185 0 0 0-.181-.188c-.1 0-.182.084-.182.188 0 .103.081.187.182.187Zm-.4 1.313a.184.184 0 0 1-.18.187.185.185 0 0 1-.182-.187c0-.104.08-.188.181-.188.1 0 .181.084.181.188Zm-1.705 1.837c.1 0 .181-.084.181-.187a.185.185 0 0 0-.18-.188c-.1 0-.182.084-.182.188 0 .103.082.187.182.187Zm-4.609.038a.185.185 0 0 1-.181.187.185.185 0 0 1-.182-.187c0-.104.081-.188.182-.188.1 0 .181.084.181.188Z" clip-rule="evenodd"/><path fill="#FECA00" fill-rule="evenodd" d="M13.528 14.865c0-.154-2.325-1.756-2.95-2.11-.623-.353-3.671-2.299-2.841-5.255H7.61s-.561 3.643 3.308 5.907c1.763 1.182 1.85 1.458 1.85 1.458s.76.154.76 0Z" clip-rule="evenodd"/><path fill="#FECA00" fill-rule="evenodd" d="M10.443 14.865c0-.154 2.326-1.756 2.95-2.11.624-.353 3.672-2.299 2.842-5.255h.125s.562 3.643-3.308 5.907c-1.762 1.182-1.85 1.458-1.85 1.458s-.759.154-.759 0Z" clip-rule="evenodd"/><path fill="#56C6F5" fill-rule="evenodd" d="M12.036 12.664c1.624 0 2.94-2.101 2.94-4.151S13.66 5.4 12.036 5.4c-1.623 0-2.94 1.062-2.94 3.113 0 2.05 1.317 4.151 2.94 4.151Z" clip-rule="evenodd"/><path fill="#fff" fill-rule="evenodd" d="M10.735 7.154s.453-.399.226-.399c-.044 0-.097-.009-.155-.018-.24-.038-.551-.088-.551.417v.871h-.067a.075.075 0 0 0 0 .15h.059l-.046.846-.059.005a.108.108 0 0 0-.097.116v.01c.006.06.058.103.117.098l.027-.003c-.02.386-.037.723-.037.764 0 .102.689.063.689.063l-.045-.88.02-.001a.108.108 0 0 0 .097-.117v-.01a.107.107 0 0 0-.117-.097h-.011c-.014-.283-.028-.57-.037-.794h.088a.075.075 0 0 0 0-.15h-.094a7.8 7.8 0 0 1-.007-.238v-.633Z" clip-rule="evenodd"/><path fill="#000" fill-rule="evenodd" d="M10.403 8.25h.242v.323h-.242V8.25Zm-.073 1.125h.404v.75h-.403v-.75Z" clip-rule="evenodd"/><path fill="#fff" fill-rule="evenodd" d="M12.26 7.154s.452-.399.225-.399c-.043 0-.097-.009-.154-.018-.24-.038-.552-.088-.552.417v.871h-.067a.075.075 0 0 0 0 .15h.059l-.046.846-.059.005a.107.107 0 0 0-.097.116v.01c.006.06.058.103.117.098l.028-.003c-.02.386-.037.723-.037.764 0 .102.688.063.688.063l-.045-.88.02-.001a.108.108 0 0 0 .097-.117v-.01a.108.108 0 0 0-.117-.097h-.011l-.037-.794h.088a.075.075 0 0 0 0-.15h-.094a7.8 7.8 0 0 1-.007-.238v-.633Z" clip-rule="evenodd"/><path fill="#000" fill-rule="evenodd" d="M11.927 8.25h.242v.323h-.242V8.25Zm-.072 1.125h.403v.75h-.403v-.75Z" clip-rule="evenodd"/><path fill="#fff" fill-rule="evenodd" d="M13.71 7.154s.453-.399.227-.399c-.044 0-.097-.009-.155-.018-.24-.038-.551-.088-.551.417v.871h-.067a.075.075 0 0 0 0 .15h.058l-.045.846-.059.005a.108.108 0 0 0-.098.116l.001.01c.005.06.058.103.117.098l.027-.003c-.02.386-.037.723-.037.764 0 .102.689.063.689.063s-.022-.407-.045-.88l.02-.001a.108.108 0 0 0 .097-.117l-.001-.01a.107.107 0 0 0-.117-.097h-.01c-.014-.283-.028-.57-.037-.794h.088a.075.075 0 0 0 0-.15h-.095a7.8 7.8 0 0 1-.006-.238v-.633Z" clip-rule="evenodd"/><path fill="#000" fill-rule="evenodd" d="M13.379 8.25h.242v.323h-.242V8.25Zm-.073 1.125h.404v.75h-.404v-.75Z" clip-rule="evenodd"/><path fill="#E8AA00" fill-rule="evenodd" d="M13.887 4.8H10.04v.574l-.025.003S8.13 6.84 8.652 9.035c.523 2.194 2.6 3.82 2.6 3.82l.105-.378s-1.98-2.692-1.98-3.767c0-1.076.374-2.085.77-2.242.237-.095.279-.076.343-.045.043.02.097.045.225.045.32 0 .642-.23.642-.23s.224.23.431.23c.208 0 .21-.23.21-.23v-.763h.024v.763s.003.23.21.23c.208 0 .432-.23.432-.23s.321.23.642.23a.454.454 0 0 0 .225-.045c.065-.03.106-.05.343.045.396.157.77 1.166.77 2.242 0 1.075-1.98 3.767-1.98 3.767l.105.379s2.077-1.627 2.6-3.821c.523-2.194-1.361-3.658-1.361-3.658l-.122-.011V4.8Z" clip-rule="evenodd"/><path fill="#FFD018" d="M10.04 4.8v-.5h-.5v.5h.5Zm3.847 0h.5v-.5h-.5v.5Zm-3.847.574.045.498.455-.04v-.458h-.5Zm-.025.003-.045-.498-.146.013-.116.09.306.395ZM8.652 9.035l.486-.116-.486.116Zm2.6 3.82-.308.395.59.462.2-.723-.481-.133Zm.105-.378.482.134.065-.234-.144-.196-.403.296Zm-1.21-6.01-.185-.464.185.465Zm.343-.044.212-.453-.212.453Zm.867-.185.359-.349-.3-.308-.35.25.291.407Zm.642 0 .5.006v-.006H12Zm0-.763v-.5h-.5v.5h.5Zm.023 0h.5v-.5h-.5v.5Zm0 .763h-.5v.006l.5-.006Zm.642 0 .29-.407-.35-.25-.299.308.359.349Zm.867.185.211.453-.211-.453Zm.343.045.185-.465-.185.465Zm-1.21 6.01-.403-.297-.144.196.065.234.482-.134Zm.105.378-.482.133.2.723.59-.462-.308-.394Zm2.6-3.821-.486-.116.486.116ZM14.01 5.377l.306-.395-.116-.09-.146-.013-.045.498Zm-.122-.011h-.5v.457l.456.04.044-.497ZM10.04 5.3h3.847v-1H10.04v1Zm.5.074V4.8h-1v.574h1Zm-.481.5.026-.002-.09-.996-.025.003.089.996Zm-.92 3.045c-.22-.925.062-1.701.42-2.268a4.047 4.047 0 0 1 .752-.871l.01-.009h.002-.001l-.307-.394a53.292 53.292 0 0 0-.308-.395l-.001.001-.002.002-.007.005a1.871 1.871 0 0 0-.092.078 5.044 5.044 0 0 0-.89 1.047c-.452.714-.85 1.767-.548 3.036l.972-.232Zm2.115 3.937a86.524 86.524 0 0 1 .308-.393l-.003-.003a1.171 1.171 0 0 1-.073-.06 9.073 9.073 0 0 1-.957-.957c-.56-.653-1.154-1.537-1.39-2.524l-.972.232c.287 1.207.994 2.234 1.603 2.943a10.099 10.099 0 0 0 1.07 1.07l.075.061.021.017.006.005.002.002h.001l.309-.393Zm-.378-.512-.104.379.963.266.105-.378-.964-.267ZM8.88 8.71c0 .386.167.842.355 1.251.197.43.456.885.708 1.297a24.175 24.175 0 0 0 .925 1.392c.027.04.05.07.064.09a13.122 13.122 0 0 1 .023.031v.002h.001l.403-.296.403-.296v-.001l-.005-.005-.015-.022-.061-.084-.22-.313a23.085 23.085 0 0 1-.665-1.02 11.887 11.887 0 0 1-.653-1.193c-.183-.398-.263-.682-.263-.833h-1Zm1.084-2.707c-.234.093-.401.28-.516.45a2.71 2.71 0 0 0-.304.625A5.053 5.053 0 0 0 8.88 8.71h1c0-.485.084-.95.207-1.3a1.8 1.8 0 0 1 .188-.396c.067-.098.094-.096.058-.082l-.369-.93Zm.74-.033c-.05-.023-.172-.083-.352-.07a1.316 1.316 0 0 0-.388.103l.369.93c.05-.02.082-.031.099-.036.017-.005.01-.001-.013 0a.303.303 0 0 1-.107-.011.307.307 0 0 1-.035-.012l.004.002.423-.906Zm.013-.002a.12.12 0 0 1-.028-.002l.006.002a.141.141 0 0 1 .016.005h.002a.806.806 0 0 1-.01-.003l-.422.906c.025.011.086.04.17.061.082.021.169.03.266.03v-1Zm.642.27a102.816 102.816 0 0 1-.29-.407l.002-.002-.004.003a.589.589 0 0 1-.35.136v1c.268 0 .508-.093.657-.164a2.089 2.089 0 0 0 .266-.153l.006-.004.003-.001v-.001h.001l-.29-.407Zm.431-.27c.038 0 .054.01.043.004a.63.63 0 0 1-.118-.086v.001l.002.001v.001l-.358.349-.358.348.001.002.002.001.005.005a3.677 3.677 0 0 0 .056.053c.034.03.084.072.145.115.1.07.315.206.58.206v-1Zm.21.27-.5-.007.001-.001v-.011a.236.236 0 0 1 .003-.026.195.195 0 0 1 .016-.05.301.301 0 0 1 .096-.115.304.304 0 0 1 .174-.06v1a.695.695 0 0 0 .416-.133.701.701 0 0 0 .221-.272.808.808 0 0 0 .073-.301v-.017l-.5-.007Zm-.5-.763v.763h1v-.763h-1Zm.524-.5H12v1h.023v-1Zm-.5.5v.763h1v-.763h-1Zm.5.763-.5.006v.019a.725.725 0 0 0 .01.092c.009.05.026.127.064.21a.7.7 0 0 0 .221.271c.12.089.265.133.416.133v-1c.046 0 .112.015.174.06a.3.3 0 0 1 .096.114.191.191 0 0 1 .019.077v.01l-.5.008Zm.21.73c.266 0 .481-.136.582-.206a1.625 1.625 0 0 0 .2-.168l.005-.005.002-.001v-.001a.01.01 0 0 1 .001 0l-.358-.35-.359-.348.001-.001h.001l.001-.002-.002.002-.013.012a.6.6 0 0 1-.103.072c-.011.005.005-.004.043-.004v1Zm.432-.73a102.816 102.816 0 0 0-.29.407l.003.002a.982.982 0 0 1 .024.016 1.776 1.776 0 0 0 .248.14c.15.072.389.165.657.165v-1a.588.588 0 0 1-.226-.067 1.103 1.103 0 0 1-.128-.072l.001.001h.001l-.29.408Zm.642.73a.92.92 0 0 0 .436-.092l-.423-.906-.009.004h.002a.135.135 0 0 1 .016-.006l.006-.002a.26.26 0 0 1-.028.002v1Zm.436-.092.004-.002a.31.31 0 0 1-.142.023c-.023-.001-.03-.005-.013 0s.048.015.099.035l.369-.93a1.316 1.316 0 0 0-.388-.103c-.18-.012-.303.048-.352.07l.423.907Zm-.052.056c-.036-.014-.009-.016.058.082.06.088.126.22.188.396.123.35.207.815.207 1.3h1c0-.591-.101-1.169-.264-1.632a2.748 2.748 0 0 0-.304-.626c-.115-.169-.282-.356-.516-.45l-.369.93Zm.453 1.778c0 .151-.08.435-.263.833-.174.379-.41.797-.653 1.193a23.085 23.085 0 0 1-.885 1.333l-.06.084-.016.021-.004.006-.001.001.403.296.403.296.001-.002.005-.007.018-.023.064-.09a24.224 24.224 0 0 0 .924-1.392c.253-.413.512-.869.71-1.298.187-.409.354-.865.354-1.251h-1Zm-1.961 3.9.105.38.963-.267-.104-.379-.964.267Zm.587.246.308.393c.002 0 .002-.001.003-.002l.006-.005.021-.017a8.138 8.138 0 0 0 .333-.29c.214-.197.504-.483.812-.841.61-.71 1.316-1.736 1.604-2.943l-.973-.232c-.236.987-.83 1.87-1.39 2.523a9.057 9.057 0 0 1-.957.957 4.2 4.2 0 0 1-.076.063l.309.394Zm3.087-3.705c.302-1.269-.097-2.322-.55-3.036a5.04 5.04 0 0 0-.889-1.047 2.98 2.98 0 0 0-.092-.078l-.007-.005a.155.155 0 0 0-.003-.003l-.308.395-.307.394c.002.002.006.004.01.009.01.008.027.021.048.04a4.044 4.044 0 0 1 .704.831c.36.567.641 1.343.42 2.268l.974.232Zm-1.804-4.272-.121-.011-.09.996.122.01.089-.995Zm-.666-.079v.566h1V4.8h-1Z"/><path fill="#8FC753" fill-rule="evenodd" d="M9.828 10.339s.236-.634.648-.422c.412.21.376.946.752.684.375-.262.162-.684.718-.684.556 0 .474.684.808.684.333 0 .362-.684.735-.684s.75.422.75.422l-2.205 3.002-2.206-3.002Z" clip-rule="evenodd"/><path fill="#fff" fill-rule="evenodd" d="m5.947 13.843-.238-.32s.984 0 1.118.232a.687.687 0 0 1 .066.153c.032.096.039.116.306.116.371 0 0-.37-.155-.5-.155-.132-.06-.361.155-.361.083 0 .227-.02.405-.043.283-.037.65-.085.986-.085.548 0 .094.488.094.488s.709 0 .533-.203c-.176-.204.59-.451.922-.451.31 0 1.7.07 1.887.079.196-.01 1.65-.08 1.958-.08.331 0 1.098.248.922.452-.176.203.533.203.533.203s-.454-.489.094-.489c.337 0 .704.049.987.086.177.024.322.043.405.043.215 0 .31.229.154.36-.154.132-.526.5-.154.5.267 0 .273-.019.305-.115a.7.7 0 0 1 .067-.153c.128-.224 1.048-.231 1.113-.232a.192.192 0 0 1-.023-.092c0-.103.081-.187.181-.187.1 0 .182.084.182.187a.185.185 0 0 1-.181.188.18.18 0 0 1-.157-.093l-.235.317.245.303a.18.18 0 0 1 .146-.077c.1 0 .182.084.182.187a.185.185 0 0 1-.181.188.185.185 0 0 1-.182-.188c0-.021.004-.042.01-.06-.139-.068-.378-.172-.534-.172h-.433c.109 0 .709.395.527.567l-.03.029c-.179.17-.411.39-.63.27a1.38 1.38 0 0 1-.372-.3l-.182-.566s-1.072-.277-1.072-.085c0 .191-.003.285-.383.285a3.45 3.45 0 0 1-.6-.068 2.355 2.355 0 0 0-.373-.047c-.148 0-.377.045-.546.08-.1.019-.179.035-.209.035-.081 0-.515-.02-.218-.2.298-.18.366-.37.366-.37s-1.19.178-1.661.189h-.042c-.468-.011-1.59-.188-1.59-.188s.069.188.366.369c.297.18-.137.2-.218.2-.03 0-.109-.016-.208-.036-.17-.034-.399-.08-.547-.08-.104 0-.23.023-.373.048a3.45 3.45 0 0 1-.6.068c-.38 0-.383-.094-.383-.286 0-.191-1.072.086-1.072.086l-.181.567s-.14.171-.372.299c-.22.12-.452-.1-.63-.27l-.03-.03c-.182-.17.418-.566.526-.566H6.26c-.23 0-.643.227-.643.227l.33-.408Zm-.516-.224c.1 0 .182-.084.182-.188a.185.185 0 0 0-.182-.187c-.1 0-.181.084-.181.187 0 .104.081.188.181.188Zm0 .825c.1 0 .182-.084.182-.188a.185.185 0 0 0-.182-.187c-.1 0-.181.084-.181.187 0 .104.081.188.181.188Z" clip-rule="evenodd"/><path fill="#FFD018" fill-rule="evenodd" d="M11.92 1.522h.15v.161h.185v.15h-.184v.273c.207.035.364.22.364.444 0 .249-.194.45-.435.45a.443.443 0 0 1-.435-.45c0-.22.153-.404.356-.442v-.275h-.17v-.15h.17v-.16Z" clip-rule="evenodd"/><path fill="#E31D1C" fill-rule="evenodd" d="M10.31 3.92c-.21 0-.653.224-.653.224l.345.763 2.076-.078 2.077.078.344-.763s-.443-.225-.653-.225c-.092 0-.104-.054-.117-.115-.017-.077-.036-.166-.228-.166-.136 0-.232.023-.31.04-.118.029-.194.046-.303-.04a1.64 1.64 0 0 1-.014-.01c-.177-.14-.361-.286-.66-.286-.059 0-.103.056-.136.146-.033-.09-.077-.146-.137-.146-.298 0-.482.145-.659.285l-.014.011c-.109.086-.185.069-.303.04-.078-.017-.174-.04-.31-.04-.192 0-.211.089-.228.166-.013.061-.025.115-.117.115Z" clip-rule="evenodd"/><path fill="#FFD018" fill-rule="evenodd" d="m11.706 2.677-.146.05c-.385.134-.718.178-1 .134-.58-.089-1.337.213-1.242.655.041.193.163.56.289.87.175.43.297.647.44.647.02 0 .214.01.279.014h.02c.211.012.397.017.576.016.516-.002.837-.053.951-.208l.034-.046-.016-.054c-.136-.467-.199-1.107-.187-1.92l.002-.158Zm-2.176.79c-.046-.217.546-.453.998-.383.281.043.6.01.957-.097-.002.722.057 1.309.177 1.76-.103.055-.375.09-.741.091a9.505 9.505 0 0 1-.564-.015l-.287-.015a.709.709 0 0 1-.08-.117 3.619 3.619 0 0 1-.183-.393 6.166 6.166 0 0 1-.277-.831Zm2.811-.79.146.05c.385.134.719.178 1 .134.58-.089 1.337.213 1.242.655-.041.193-.162.56-.289.87-.175.43-.297.647-.44.647-.02 0-.214.01-.278.014H13.7a9.117 9.117 0 0 1-.575.016c-.517-.002-.838-.053-.952-.208l-.034-.046.016-.054c.136-.467.199-1.107.187-1.92l-.002-.158Zm2.176.79c.046-.217-.546-.453-.998-.383-.281.043-.6.01-.957-.097.002.722-.057 1.309-.177 1.76.103.055.375.09.742.091.174.001.356-.004.563-.015l.287-.015a.705.705 0 0 0 .08-.117c.054-.095.117-.232.183-.393.121-.299.239-.652.277-.831Z" clip-rule="evenodd"/><path fill="#5E5E5E" fill-rule="evenodd" d="M9.627 4.853a.955.955 0 0 0-.076-.256c-.072-.192-.121-.25-.226-.315-.053-.032-.074-.06-.1-.157a1.397 1.397 0 0 0-.087-.25 2.186 2.186 0 0 1-.023-.05.335.335 0 0 1-.023-.136c0-.067.018-.12.064-.218.027-.059.031-.067.04-.091a.364.364 0 0 0 .031-.137v-.289c0-.169.007-.179.09-.168a.563.563 0 0 1 .074.013c.02.003.036.001.053-.006.03-.014.051-.04.103-.118.025-.037.051-.033.145.012l.03.015c.097.044.163.045.22-.024.087-.107.145-.1.25.003.053.05.08.07.113.075h.003c.035.005.037.006.137-.055.006.014.021.02.045.025.032.007.08.01.11.005.027-.004.046-.012.058-.038l.15-.002v-.075c-.074 0-.136.001-.185.003l-.014-.012c-.027-.024-.07-.061-.09-.055-.002 0-.01.008-.021.017a.504.504 0 0 1-.066.052c-.098.06-.102.063-.117.06-.013-.001-.031-.015-.072-.055-.133-.13-.238-.141-.356.003-.03.037-.065.036-.135.004a1.294 1.294 0 0 1-.029-.014c-.125-.06-.181-.068-.235.013-.043.065-.062.087-.073.092l-.003.001c-.003.001-.006 0-.039-.005l-.02-.004a.63.63 0 0 0-.027-.004c-.137-.019-.172.034-.172.242v.289a.29.29 0 0 1-.024.108l-.04.087a.543.543 0 0 0-.07.25.41.41 0 0 0 .028.165c.003.01.014.033.025.057l.023.051c.021.052.04.11.06.183.03.116.062.16.132.203.091.056.13.1.196.277a2.094 2.094 0 0 1 .07.217c-.01.008-.009.014-.006.031a.04.04 0 0 0 .006.011l.01.01a.05.05 0 0 0 .006.004l-.004-.002.018.022c.071.093.16.093.246.003l-.052-.052c-.056.059-.094.059-.137.003l-.014-.018Zm.872-2.202h-.001.001Zm3.837 2.202c0-.041.024-.116.077-.256.072-.192.121-.25.226-.315.053-.032.074-.06.1-.157.02-.078.04-.138.063-.194l.024-.055.023-.051a.335.335 0 0 0 .023-.136.478.478 0 0 0-.064-.218 1.356 1.356 0 0 1-.041-.091.363.363 0 0 1-.03-.137v-.289c0-.169-.007-.179-.09-.168a.554.554 0 0 0-.074.013.093.093 0 0 1-.053-.006c-.03-.014-.051-.04-.103-.118-.025-.037-.051-.033-.146.012l-.03.015c-.096.044-.162.045-.22-.024-.087-.107-.144-.1-.25.003-.052.05-.079.07-.112.075h-.003c-.035.005-.037.006-.137-.055-.007.014-.021.02-.045.025a.335.335 0 0 1-.11.005c-.027-.004-.046-.012-.058-.038a5.008 5.008 0 0 0-.15-.002v-.075c.074 0 .135.001.185.003l.014-.012c.027-.024.07-.061.09-.055.002 0 .01.007.02.017.018.015.041.036.064.05l.003.002c.098.06.102.063.117.06.013-.001.031-.015.072-.055.133-.13.238-.141.356.003.03.037.065.036.135.004l.029-.014c.125-.06.18-.068.235.013.043.065.062.087.073.092l.003.001c.003.001.006 0 .039-.005l.02-.004a.65.65 0 0 1 .027-.004c.137-.019.171.034.171.242v.289a.29.29 0 0 0 .025.108l.04.087c.05.107.07.169.07.25a.411.411 0 0 1-.028.165l-.025.057-.023.051c-.021.052-.04.11-.06.183-.03.116-.062.16-.132.203-.091.056-.13.1-.196.277a2.083 2.083 0 0 0-.07.217c.01.008.009.014.005.031a.064.064 0 0 1-.004.01l-.002.001-.004.005-.002.002-.003.003a.05.05 0 0 1-.006.004l.004-.002a.602.602 0 0 0-.018.022c-.071.093-.16.093-.246.003l.052-.052c.056.059.094.059.137.003l.013-.018Z" clip-rule="evenodd"/><path fill="#272727" d="m10.33 13.414.046-.372c.806.098 1.344.148 1.615.148a8.16 8.16 0 0 0 1.462-.09l.05.372a8.529 8.529 0 0 1-1.52.093c-.283 0-.832-.05-1.652-.151Z"/></g></g></g><path stroke="#000" stroke-opacity=".1" stroke-width=".5" d="M.25.25h23.5v17.5H.25z"/><defs><clipPath id="a"><path fill="#fff" d="M0 0h24v18H0z"/></clipPath></defs></svg>