<svg xmlns="http://www.w3.org/2000/svg" fill="none" viewBox="0 0 24 18"><g clip-path="url(#a)"><mask id="b" width="24" height="18" x="0" y="0" maskUnits="userSpaceOnUse" style="mask-type:luminance"><path fill="#fff" d="M0 0h24v18H0z"/></mask><g mask="url(#b)"><path fill="#2E42A5" fill-rule="evenodd" d="M0 0v18h24V0H0Z" clip-rule="evenodd"/><mask id="c" width="24" height="18" x="0" y="0" maskUnits="userSpaceOnUse" style="mask-type:luminance"><path fill="#fff" fill-rule="evenodd" d="M0 0v18h24V0H0Z" clip-rule="evenodd"/></mask><g mask="url(#c)"><path fill="#FBE625" fill-rule="evenodd" d="m15.707 8.892.003.263c.02 2.213.101 3.66.247 4.353.12.576.559 1.53 1.074 2.297.648.962 1.34 1.548 2.002 1.548.664 0 1.356-.545 2.002-1.452.53-.745.983-1.69 1.164-2.386.223-.861.327-2.313.315-4.362l-.002-.261-.238.123a3.33 3.33 0 0 1-1.555.373c-.55 0-1.08-.164-1.596-.496l-.088-.057-.09.055c-.543.333-1.054.498-1.532.498-.485 0-.973-.124-1.465-.373l-.24-.123Zm.41 4.585c-.143-.68-.224-2.121-.244-4.323a3.379 3.379 0 0 0 1.54.391c.512 0 1.052-.174 1.62-.522.54.348 1.103.522 1.686.522a3.5 3.5 0 0 0 1.632-.391c.012 2.036-.091 3.478-.31 4.323-.33 1.269-1.71 3.718-3.008 3.718-1.299 0-2.703-2.698-2.917-3.718Z" clip-rule="evenodd"/><path fill="#F5FBFF" fill-rule="evenodd" d="M15.873 9.154s.03 3.303.243 4.323c.214 1.02 1.618 3.718 2.917 3.718 1.298 0 2.678-2.45 3.008-3.718.329-1.268.31-4.323.31-4.323s-.757.391-1.632.391c-.875 0-1.686-.522-1.686-.522s-.852.522-1.62.522c-.768 0-1.54-.391-1.54-.391Z" clip-rule="evenodd"/><mask id="d" width="8" height="9" x="15" y="9" maskUnits="userSpaceOnUse" style="mask-type:luminance"><path fill="#fff" fill-rule="evenodd" d="M15.873 9.154s.03 3.303.243 4.323c.214 1.02 1.618 3.718 2.917 3.718 1.298 0 2.678-2.45 3.008-3.718.329-1.268.31-4.323.31-4.323s-.757.391-1.632.391c-.875 0-1.686-.522-1.686-.522s-.852.522-1.62.522c-.768 0-1.54-.391-1.54-.391Z" clip-rule="evenodd"/></mask><g fill-rule="evenodd" clip-rule="evenodd" mask="url(#d)"><path fill="#FF9800" d="M18.48 11.616c0 .216-.308.844-.487 1.005-.132.119-.091-.158-.061-.362.01-.071.02-.134.02-.168v-.014c0-.043 0-.066-.005-.088a.53.53 0 0 0-.04-.108l-.034-.078c-.286-.61-.084-.903.006-1.032a.313.313 0 0 0 .031-.05.32.32 0 0 1 .068-.079c.072-.069.162-.156.128-.352-.048-.274.242-.626.242-.626s-.07.682.262.515c.217-.109.609.047.957.185.188.075.363.144.492.165.26.042.401-.067.49-.134.036-.028.063-.05.085-.05.076 0 .166.016.166.072 0 .055-.341.218-.513.27-.13.038.004.143.115.232.036.028.07.056.092.078.089.09.17.584-.035.274-.205-.311-.642-.519-1.013-.55-.371-.03-.84.252-.896.55-.056.297.44.242.44.242s-.037.047-.196.103c-.16.056-.314 0-.314 0Zm-.373-.023a.08.08 0 0 1-.082.078.08.08 0 0 1-.081-.078.08.08 0 0 1 .081-.079.08.08 0 0 1 .082.079Zm1.83 1.458c-.228-.079-.926-.044-1.115.06 0 0-.026-.161-.152-.274-.127-.112-.185-.121-.185-.121s.288.407 0 .502c-.287.095-.76-.178-.914-.517-.153-.34-.183-.822-.01-1.152.171-.33-.221-.02-.257.101-.01.03-.016.073-.024.12-.024.14-.052.307-.148.212-.127-.125-.436-.345-.484-.318-.049.027-.019.113.018.18.011.02.043.033.085.051a.577.577 0 0 1 .355.363c.044.122.068.31.094.51.048.372.102.79.301.926.308.21-.322.48-.322.48s.447.083.664-.092c.155-.125.275-.088.37-.059a.323.323 0 0 0 .103.02l.058.004c.157.016.51.051.906-.495l.051-.067a.536.536 0 0 1 .075-.088.444.444 0 0 1 .075-.046l.013-.008c.03-.016.088-.038.156-.063.193-.073.455-.171.287-.23Zm-.94.36a.08.08 0 0 1 .108.033.08.08 0 0 1-.03.11.08.08 0 0 1-.108-.034.08.08 0 0 1 .03-.109Zm.384-2.255c.058.233.468.8.659.901 0 0-.122.11-.148.277-.025.168 0 .221 0 .221s.184-.463.42-.273c.236.189.265.735.064 1.048-.201.313-.59.601-.96.637-.37.035.103.195.225.16.03-.01.07-.027.112-.045.13-.057.286-.125.26.007-.036.176-.053.554-.004.58.05.026.105-.046.141-.113.01-.02.005-.054-.003-.099a.577.577 0 0 1 .111-.495 2.77 2.77 0 0 1 .376-.357c.286-.243.608-.516.613-.758.01-.372.578.01.578.01s-.174-.42-.438-.507c-.19-.062-.224-.183-.252-.279a.321.321 0 0 0-.038-.097.454.454 0 0 1-.029-.05c-.072-.14-.235-.457-.908-.49a9.897 9.897 0 0 0-.085-.007.542.542 0 0 1-.114-.015.48.48 0 0 1-.08-.038 5.795 5.795 0 0 0-.013-.006c-.03-.016-.08-.054-.139-.097-.166-.122-.39-.288-.348-.115Zm.84.621a.08.08 0 0 1-.03-.108.08.08 0 0 1 .107-.035.08.08 0 0 1 .031.108.08.08 0 0 1-.108.035Z"/><path fill="#36C6FF" d="M16.07 14.814h5.459v2.593h-5.46v-2.593Z"/></g><path fill="#2B409A" d="M-4-3h18v14H-4z"/><mask id="e" width="18" height="14" x="-4" y="-3" maskUnits="userSpaceOnUse" style="mask-type:luminance"><path fill="#fff" d="M-4-3h18v14H-4z"/></mask><g mask="url(#e)"><path fill="#F7FCFF" d="m-6.004 10 3.96 1.737L14.09-1.111l2.09-2.582-4.236-.58-6.58 5.536-5.297 3.73L-6.004 10Z"/><path fill="#F50100" d="m-5.462 11.217 2.018 1.008L15.429-3.933h-2.834l-18.057 15.15Z"/><path fill="#F7FCFF" d="m16.004 10-3.96 1.737L-4.09-1.111l-2.09-2.582 4.236-.58 6.58 5.536 5.297 3.73L16.004 10Z"/><path fill="#F50100" d="m15.87 10.873-2.019 1.009-8.036-6.918-2.383-.773-9.812-7.875h2.833L6.26 4.004l2.605.927 7.004 5.942Z"/><mask id="f" width="22" height="18" x="-6" y="-5" fill="#000" maskUnits="userSpaceOnUse"><path fill="#fff" d="M-6-5h22v18H-6z"/><path fill-rule="evenodd" d="M5.985-3h-2v6H-4v2h7.985v6h2V5H14V3H5.985v-6Z" clip-rule="evenodd"/></mask><path fill="#F50100" fill-rule="evenodd" d="M5.985-3h-2v6H-4v2h7.985v6h2V5H14V3H5.985v-6Z" clip-rule="evenodd"/><path fill="#F7FCFF" d="M3.985-3v-1.5h-1.5V-3h1.5Zm2 0h1.5v-1.5h-1.5V-3Zm-2 6v1.5h1.5V3h-1.5ZM-4 3V1.5h-1.5V3H-4Zm0 2h-1.5v1.5H-4V5Zm7.985 0h1.5V3.5h-1.5V5Zm0 6h-1.5v1.5h1.5V11Zm2 0v1.5h1.5V11h-1.5Zm0-6V3.5h-1.5V5h1.5ZM14 5v1.5h1.5V5H14Zm0-2h1.5V1.5H14V3ZM5.985 3h-1.5v1.5h1.5V3Zm-2-4.5h2v-3h-2v3Zm1.5 4.5v-6h-3v6h3ZM-4 4.5h7.985v-3H-4v3Zm1.5.5V3h-3v2h3Zm6.485-1.5H-4v3h7.985v-3Zm1.5 7.5V5h-3v6h3Zm.5-1.5h-2v3h2v-3ZM4.485 5v6h3V5h-3ZM14 3.5H5.985v3H14v-3ZM12.5 3v2h3V3h-3ZM5.985 4.5H14v-3H5.985v3ZM4.485-3v6h3v-6h-3Z" mask="url(#f)"/></g></g></g></g><path stroke="#000" stroke-opacity=".1" stroke-width=".5" d="M.25.25h23.5v17.5H.25z"/><defs><clipPath id="a"><path fill="#fff" d="M0 0h24v18H0z"/></clipPath></defs></svg>