<svg xmlns="http://www.w3.org/2000/svg" fill="none" viewBox="0 0 24 18"><g clip-path="url(#a)"><mask id="b" width="24" height="18" x="0" y="0" maskUnits="userSpaceOnUse" style="mask-type:luminance"><path fill="#fff" d="M0 0h24v18H0z"/></mask><g mask="url(#b)"><path fill="#14DC5A" fill-rule="evenodd" d="M0 12h24v6H0z" clip-rule="evenodd"/><path fill="#0099B5" fill-rule="evenodd" d="M0 0h24v7.5H0z" clip-rule="evenodd"/><path fill="#F7FCFF" stroke="#C51918" d="M26 7v5.5H-2V7z"/><path fill="#F7FCFF" fill-rule="evenodd" d="m10.906 2.255-.505.28.144-.57-.483-.419h.631l.212-.54.249.54h.538l-.423.42.203.57zM8.2 3.973l.505-.28.566.28-.203-.57.423-.419h-.539l-.248-.54-.212.54H7.86l.484.419zM6.32 5.22l-.504.28.144-.57-.483-.419h.631l.212-.54.248.54h.539l-.423.42.203.57zm2.385 0L8.2 5.5l.144-.57-.484-.419h.632l.212-.54.248.54h.539l-.423.42.203.57zm2.235 0-.505.28.144-.57-.484-.419h.632l.212-.54.248.54h.539l-.423.42.203.57zm-.505-1.248.505-.28.566.28-.203-.57.423-.419h-.539l-.248-.54-.212.54h-.632l.484.419zm2.25 1.528.504-.28.566.28-.203-.57.423-.419h-.538l-.249-.54-.212.54h-.631l.483.42zm.504-1.809-.505.28.145-.57-.484-.418h.631l.212-.54.249.54h.538l-.423.419.204.57zm-.538-1.157.505-.28.566.28-.204-.57.423-.419h-.538l-.248-.54-.212.54h-.632l.484.42zm2.81 2.686-.504.28.144-.57-.483-.419h.631l.212-.54.248.54h.539l-.423.42.203.57zm-.504-1.248.505-.28.566.28-.203-.57.423-.419h-.539l-.248-.54-.212.54h-.631l.483.419zm.471-1.718-.505.28.145-.57-.484-.419h.632l.211-.54.249.54h.538l-.423.42.204.57zM4.414 6.18s-1.812-.49-1.778-2.309C2.67 2.054 4.5 1.581 4.5 1.581c-.748-.282-2.959.098-3 2.272S3.718 6.456 4.415 6.18" clip-rule="evenodd"/></g></g><rect width="23" height="17" x=".5" y=".5" stroke="#000" stroke-opacity=".1" rx="1.5"/><defs><clipPath id="a"><rect width="24" height="18" fill="#fff" rx="2"/></clipPath></defs></svg>