<svg xmlns="http://www.w3.org/2000/svg" fill="none" viewBox="0 0 24 18"><g clip-path="url(#a)"><mask id="b" width="24" height="18" x="0" y="0" maskUnits="userSpaceOnUse" style="mask-type:luminance"><path fill="#fff" d="M0 0h24v18H0z"/></mask><g mask="url(#b)"><path fill="#3195F9" fill-rule="evenodd" d="M0 0v18h24V0H0Z" clip-rule="evenodd"/><mask id="c" width="24" height="18" x="0" y="0" maskUnits="userSpaceOnUse" style="mask-type:luminance"><path fill="#fff" fill-rule="evenodd" d="M0 0v18h24V0H0Z" clip-rule="evenodd"/></mask><g mask="url(#c)"><path fill="#73BE4A" fill-rule="evenodd" d="M0 0v18L24 0H0Z" clip-rule="evenodd"/><path fill="#272727" stroke="#FFD018" stroke-width="2.5" d="m-1.626 19.253.694 1.04 1.04-.694L27.302 1.446l1.04-.694-.694-1.04-1.666-2.495-.694-1.04-1.04.694-27.195 18.153-1.04.694.694 1.04 1.666 2.495Z"/></g></g></g><path stroke="#000" stroke-opacity=".1" stroke-width=".5" d="M.25.25h23.5v17.5H.25z"/><defs><clipPath id="a"><path fill="#fff" d="M0 0h24v18H0z"/></clipPath></defs></svg>