<svg xmlns="http://www.w3.org/2000/svg" fill="none" viewBox="0 0 24 18"><g clip-path="url(#a)"><mask id="b" width="24" height="18" x="0" y="0" maskUnits="userSpaceOnUse" style="mask-type:luminance"><path fill="#fff" d="M0 0h24v18H0z"/></mask><g mask="url(#b)"><path fill="#FECA00" fill-rule="evenodd" d="M0 0h24v18H0z" clip-rule="evenodd"/><path fill="#1F8A6E" d="M1.5 1.5H6v15H1.5z"/><path fill="#F56800" d="M6 1.5h4.5v15H6z"/><path fill="#B01D00" d="M10.5 1.5h12v15h-12z"/><path fill="#E8AA00" d="M9 1.5h1.5v15H9z"/><path fill="#FECA00" fill-rule="evenodd" d="M12.825 4.63s-.955-.003-.955 1.66v2.44s-.455.08-.455.363.096.53.276.53c.179 0 .358.829.179.829-.18 0-.359.355-.18.355q.064-.001.1-.01c.08-.014.08-.014.08.232 0 .323-.18.453-.18.453s-.168-.047-.168.143.169.238.169.238.096.042-.09.132-.186.134-.186.134h.455l.228.416.217-.416h.449s-.226-.145-.253-.175-.058-.075 0-.126a.3.3 0 0 1 .07-.038c.064-.03.14-.064.14-.165 0-.143-.286-.143-.286-.143s-.175-.316-.12-.453q.022-.058.031-.103c.02-.075.03-.119.125-.119.13 0 .205-.164.04-.355 0 0 .19.203.134.466-.056.264.057.384.119.384s.159-.091.159-.091.51.456.733.456c.224 0 .545-.365.545-.365l.461.258s.338.473.288.798-.242.506-.468.456-.595.053-.623.193q-.006.032-.018.075c-.038.16-.096.398.081.339.21-.07.25-.122.25-.122s-.027.122.141.122.217-.122.217-.122.175.122.297.122c.123 0 .26-.094.26-.094s.09.14.29.094.351-.567.206-.684c0 0 .482-.07.606-.49 0 0-.466-.006-.418-.293s.294-.472.294-.472.71-.343 1.015-.453.812-.222.938-.222c.05 0 .087.12.137.282.072.235.172.561.385.74.358.3.114.985.114.985s-.799.08-.799.297.013.31.163.31.146-.122.146-.122.089.122.232.122.258-.122.258-.122.038.122.226.122c.187 0 .186-.122.186-.122s.034.122.2.122c.165 0 .504-.122.504-.122s.053.122.225.122.176-.122.176-.122.092.122.24.122c.15 0 .237-.122.237-.122s.214.122.361.122c.148 0 .095-.22 0-.414q-.037-.072-.077-.129c-.074-.112-.128-.193-.002-.333q.055-.06.119-.12c.153-.149.307-.299.194-.43a.6.6 0 0 0-.112-.094c-.13-.09-.261-.181-.2-.69a5 5 0 0 1 .168-.783c.076-.271.144-.518.144-.805 0-.53-.312-1.135-.312-1.135s.42-.294.42-.892-.94-.663-.94-.663-.933.24-1.345.12a6 6 0 0 0-.236-.063c-.222-.056-.29-.073-.29-.227 0-.199-.3.17-.3.17s-.236-.095-.076-.29.232-.272.232-.272-.14-.16-.378-.08-.28.213-.28.213-.271-.277-.102-.479c.168-.201.382 0 .382 0s.242.127.262-.04c.02-.166 0-.298 0-.298s.609.174.437.446-.063.371-.063.371.418.026.494-.263a.6.6 0 0 0 .003-.298c.12.057.257.124.219.236-.07.205-.222.464-.222.464s.418-.025.543-.352c.124-.328.08.08.08.08s.16-.006.4.133 0-.213 0-.213.5.619.972.545.446-.465.446-.465-.112-.192-.346-.192-.1.192-.1.192.228.13-.134 0c-.104-.038-.26-.16-.454-.31-.476-.37-1.178-.915-1.901-.831-1.018.117-1.374.572-1.374.572v-.379s-.17.264-.33.264-.603-.264-.603-.264l-.282.264s-.107-.264-.294-.264c-.188 0-.188.264-.188.264s-.236-.116-.496-.116c-.106 0-.197-.04-.267-.07-.1-.042-.158-.067-.158.07l.002.08c.004.184.007.3-.262.335-.307.04-.543.04-.543.04s-.183-.224-.326-.224c-.142 0-.307.173-.307.331s.184.607.307.703c.033.026.027.023 0 .01-.074-.033-.307-.14-.307.087 0 .156.039.196.067.224s.046.046.008.151a3 3 0 0 1-.059.148c-.086.205-.187.444-.017.444.092 0 .18-.02.241-.035.083-.02.12-.028.067.035q-.034.039-.079.085c-.098.103-.199.209-.024.129.092-.043.17-.104.234-.155.093-.074.158-.125.195-.06.024.042.005.097-.012.144-.027.079-.046.136.15.07.07-.022.11-.04.133-.053 0 .013.011.03.042.054.066.048.054.094.044.13-.011.039-.018.065.097.065.11 0 .266-.086.358-.136.09-.05.12-.066-.009.06-.08.079-.198.131-.327.19-.29.13-.642.289-.802.831-.216.732-.119.882-.105.9l-.664-.728s.159-.124.159-.333c0-.208-.412-.363-.412-.363s.015-2.594.134-3.16c.119-.565.18-.94.18-.94m1.325 3.406a.023.023 0 0 0-.02.024c.028-.016.028-.024.02-.024m5-2.093-.008-.004c-.097-.046-.181-.086-.149-.137.045-.072.123.004.158.14m.44 5.611s-.314.31-.114.377c.06.02.134.032.203.043.157.024.287.044.168.161-.171.168-.316.394-.316.6s.005.38.06.293c.03-.048.154-.098.288-.152.11-.044.227-.09.303-.141.144-.095.142-.198.138-.383l-.001-.104c0-.252-.728-.694-.728-.694m-2.443-4.137c.073-.058.078-.778.078-.778s.258.085.258.198c0 .07-.02.11-.05.17-.017.037-.039.081-.062.144-.056.155.098.252.24.342l.033.02c.097.062.125-.072.146-.176.011-.057.02-.105.04-.105.052 0 .442.089.736.238.256.13.508.066 1.084-.08l.274-.07c.777-.192.879.097.959.325s-.524.544-.959.6a2.7 2.7 0 0 1-.51.01c-.194-.009-.366-.017-.543.046-.277.098-1.144.088-1.482.085l-.107-.001c-.155 0-.185-.05-.244-.148l-.053-.084c-.105-.155.022-.256.105-.256s.057-.182 0-.252c-.056-.07-.016-.17.057-.228m-6.521-5.824v.27c0 .034-.014.08-.03.13-.051.162-.12.379.197.44.416.08.723.262.817.434.06.11.043-.073.023-.29a4 4 0 0 1-.023-.347c0-.266-.298-.783-.509-.637-.21.146-.475 0-.475 0m0 14.539v.27s.265-.145.475 0c.211.146.509-.371.509-.637 0-.095.012-.226.023-.348.02-.216.036-.4-.023-.29-.094.173-.4.355-.817.435-.317.061-.248.278-.197.44.016.05.03.096.03.13m11.749 0v.27s-.265-.145-.476 0c-.21.146-.508-.371-.508-.637 0-.095-.012-.226-.023-.348-.02-.216-.037-.4.023-.29.093.173.4.355.817.435.317.061.248.278.197.44a.5.5 0 0 0-.03.13m0-14.268v-.271s-.265.146-.476 0-.508.371-.508.637c0 .095-.012.226-.023.348-.02.216-.037.4.023.29.093-.173.4-.355.817-.435.317-.061.248-.278.197-.44a.5.5 0 0 1-.03-.13" clip-rule="evenodd"/></g></g><rect width="23" height="17" x=".5" y=".5" stroke="#000" stroke-opacity=".1" rx="1.5"/><defs><clipPath id="a"><rect width="24" height="18" fill="#fff" rx="2"/></clipPath></defs></svg>