<svg xmlns="http://www.w3.org/2000/svg" fill="none" viewBox="0 0 24 18"><g clip-path="url(#a)"><mask id="b" width="24" height="18" x="0" y="0" maskUnits="userSpaceOnUse" style="mask-type:luminance"><path fill="#fff" d="M0 0h24v18H0z"/></mask><g mask="url(#b)"><path fill="#1C7B4D" fill-rule="evenodd" d="M0 0v18h24V0z" clip-rule="evenodd"/><mask id="c" width="24" height="18" x="0" y="0" maskUnits="userSpaceOnUse" style="mask-type:luminance"><path fill="#fff" fill-rule="evenodd" d="M0 0v18h24V0z" clip-rule="evenodd"/></mask><g fill-rule="evenodd" clip-rule="evenodd" mask="url(#c)"><path fill="#E31D1C" d="M0 0v4.5h24V0zm0 13.5V18h24v-4.5z"/><path fill="#FECA00" d="M12.182 10.784c3.888.021 4.984-3.235 4.984-3.235-.22 2.786-1.761 4.675-4.985 4.675-3.222 0-4.406-2.447-4.984-4.888 0 0 1.096 3.426 4.985 3.448"/><path fill="#FECA00" d="m13.228 7.36.252 1.473-1.322-.695-1.323.695.253-1.473-1.07-1.15h1.479l.66-1.447.662 1.447h1.479z"/></g></g></g><rect width="23" height="17" x=".5" y=".5" stroke="#000" stroke-opacity=".1" rx="1.5"/><defs><clipPath id="a"><rect width="24" height="18" fill="#fff" rx="2"/></clipPath></defs></svg>