<svg xmlns="http://www.w3.org/2000/svg" fill="none" viewBox="0 0 24 18"><g clip-path="url(#a)"><mask id="b" width="24" height="18" x="0" y="0" maskUnits="userSpaceOnUse" style="mask-type:luminance"><path fill="#fff" d="M0 0h24v18H0z"/></mask><g fill-rule="evenodd" clip-rule="evenodd" mask="url(#b)"><path fill="#2F8D00" d="M6 0h18v18H6V0Z"/><path fill="#F7FCFF" d="M0 0h6v18H0V0Z"/><path fill="#F1F9FF" d="M16.822 11.48s-3.35.873-6.008-.908C8.156 8.79 9.492 4.686 9.492 4.686c-1.387.202-3.564 5.261-.054 7.799 3.51 2.537 6.873.098 7.384-1.005Zm-3.717-4.83-1.778.87 1.876.334.253 1.834 1.063-1.562 2.092.14-1.639-1.22.873-1.633-1.631.747-1.212-1.14.103 1.63Z"/></g></g><path stroke="#000" stroke-opacity=".1" stroke-width=".5" d="M.25.25h23.5v17.5H.25z"/><defs><clipPath id="a"><path fill="#fff" d="M0 0h24v18H0z"/></clipPath></defs></svg>