<svg xmlns="http://www.w3.org/2000/svg" fill="none" viewBox="0 0 24 18"><g clip-path="url(#a)"><mask id="b" width="24" height="18" x="0" y="0" maskUnits="userSpaceOnUse" style="mask-type:luminance"><path fill="#fff" d="M0 0h24v18H0z"/></mask><g mask="url(#b)"><path fill="#F7FCFF" fill-rule="evenodd" d="M0 0v18h24V0z" clip-rule="evenodd"/><mask id="c" width="24" height="18" x="0" y="0" maskUnits="userSpaceOnUse" style="mask-type:luminance"><path fill="#fff" fill-rule="evenodd" d="M0 0v18h24V0z" clip-rule="evenodd"/></mask><g fill-rule="evenodd" clip-rule="evenodd" mask="url(#c)"><path fill="#009D00" d="M0 0v6h24V0z"/><path fill="#fff" d="M0 6v6h24V6z"/><path fill="#F80000" d="M0 12v6h24v-6z"/></g><path fill="#0075D5" fill-rule="evenodd" d="M0 0v18l6-8.886z" clip-rule="evenodd"/><path fill="#FFD500" stroke="#000" stroke-width=".05" d="m10.923 6.984.009-.01.013.001.196.023-.1-.17-.007-.011.005-.013.082-.179-.192.044-.013.002-.01-.008-.146-.135-.017.197-.002.014-.011.006-.173.097.182.078.012.005.003.013.038.195zm.75 0 .009-.01.013.001.196.023-.1-.17-.007-.011.005-.013.082-.179-.192.044-.013.002-.01-.008-.146-.135-.017.197-.002.014-.011.006-.173.097.182.078.012.005.003.013.038.195zm.75 0 .009-.01.013.001.196.023-.1-.17-.007-.011.005-.013.082-.179-.192.044-.013.002-.01-.008-.146-.135-.017.197-.002.014-.011.006-.173.097.182.078.012.005.003.013.038.195zm.75 0 .009-.01.013.001.196.023-.1-.17-.007-.011.005-.013.082-.179-.192.044-.013.002-.01-.008-.146-.135-.017.197-.002.014-.011.006-.173.097.182.078.012.005.003.013.038.195zm.75 0 .009-.01.013.001.196.023-.1-.17-.007-.011.005-.013.082-.179-.192.044-.013.002-.01-.008-.146-.135-.017.197-.002.014-.011.006-.173.097.182.078.012.005.003.013.038.195zm.75 0 .009-.01.013.001.196.023-.1-.17-.007-.011.005-.013.082-.179-.192.044-.013.002-.01-.008-.146-.135-.017.197-.002.014-.011.006-.173.097.182.078.012.005.003.013.038.195z"/><path stroke="#373737" stroke-width=".1" d="M14.2 7.55v2.2a1.45 1.45 0 0 1-2.9 0v-2.2z"/><path fill="#6F3E1D" fill-rule="evenodd" d="M12.545 8.97s-.151 1.774-.302 1.881c-.151.108.723.161.807.08.083-.08-.382-1.525-.222-1.961s.418-.471.418-.471-.325-.069-.418.062c-.092.13-.37-.062-.37-.062z" clip-rule="evenodd"/><path fill="#009D29" fill-rule="evenodd" d="M12.512 8.87h-.117s-.078.308-.259.154c-.18-.154-.436-.1-.436-.1s.023-.184.3-.258c.278-.073.396-.668.396-.668s.392-.146.631.153c.24.3.576.172.576.172s.246.14.123.343-.333.352-.516.204c-.183-.15-.698 0-.698 0" clip-rule="evenodd"/></g></g><rect width="23" height="17" x=".5" y=".5" stroke="#000" stroke-opacity=".1" rx="1.5"/><defs><clipPath id="a"><rect width="24" height="18" fill="#fff" rx="2"/></clipPath></defs></svg>