<svg xmlns="http://www.w3.org/2000/svg" fill="none" viewBox="0 0 24 18"><g clip-path="url(#a)"><mask id="b" width="24" height="18" x="0" y="0" maskUnits="userSpaceOnUse" style="mask-type:luminance"><path fill="#fff" d="M0 0h24v18H0z"/></mask><g mask="url(#b)"><path fill="#67BFE5" fill-rule="evenodd" d="M0 0v18h24V0z" clip-rule="evenodd"/><mask id="c" width="24" height="18" x="0" y="0" maskUnits="userSpaceOnUse" style="mask-type:luminance"><path fill="#fff" fill-rule="evenodd" d="M0 0v18h24V0z" clip-rule="evenodd"/></mask><g mask="url(#c)"><path fill="#F7FCFF" fill-rule="evenodd" d="M15 7.5h7.241v6.25s-.607 2.75-3.62 2.75S15 13.75 15 13.75z" clip-rule="evenodd"/><mask id="d" width="8" height="10" x="15" y="7" maskUnits="userSpaceOnUse" style="mask-type:luminance"><path fill="#fff" fill-rule="evenodd" d="M15 7.5h7.241v6.25s-.607 2.75-3.62 2.75S15 13.75 15 13.75z" clip-rule="evenodd"/></mask><g mask="url(#d)"><path fill="#C3352C" d="M15 7.5h7.241v2.25H15z"/><path fill="#C3352C" d="M18.104 9.5h1.034v7h-1.034z"/><path fill="#C3352C" d="M15 12.25h7.241v1H15z"/><path fill="#979797" fill-rule="evenodd" d="M16.905 15.553c.436.615.79.855 1.041.493.177-.255.195-.51-.056-.56a4 4 0 0 1-.308-.43l.009-.008c.07-.069.073-.16.06-.194-.006-.046.029-.11.255-.283.205-.156.296-.304.162-.466-.071-.086-.134-.103-.335-.134l-.061-.01a1 1 0 0 1-.13-.027l-.139-.266a1.7 1.7 0 0 0-.766.147l-.227.096a1 1 0 0 1-.092.038l.003-.003c.006-.005.016-.012.002-.012-.053 0-.11-.006-.267-.026l-.03-.004c-.453-.057-.567-.055-.64.155-.111.321.55.909.9.98.176.035.386.203.62.514m.493-.442a.4.4 0 0 0 .104-.01l.009-.018a.2.2 0 0 1-.113.028m-1.652-.885q-.015-.015-.006-.043-.002.006.012.023l.038.044a.1.1 0 0 1-.044-.024m.614.445c-.126-.026-.445-.292-.57-.42q.051.011.125.018l.064.007.03.004c.177.022.239.029.314.029.043 0 .034.015.029.024q-.003.004-.002.006c.002.004.036-.01.207-.083l.226-.096a1.4 1.4 0 0 1 .387-.108q.022.096.11.165c.08.062.17.088.326.114-.193.158-.29.291-.32.42-.174.055-.158.25-.054.446q.109.204.414.585l.146.07c-.043 0-.067-.02-.086-.034-.023-.02-.037-.031-.068.014-.002.004-.139-.089-.43-.5-.286-.382-.564-.604-.848-.661m.915.224q.002-.003.002-.008zm.12-.159h-.012l.005.001zm.003 0h-.004z" clip-rule="evenodd"/><path stroke="#964C36" d="M16.241 12.083s-.358-.495-.358-.672"/><path stroke="#2A8E51" d="M16.019 11.657s-.457-.195-.457 0m.449-.205s-.321-.41-.563-.41-.236.205-.236.205m.616-.205s-.144-.67-.374-.67-.23.335-.23.335m.662.333s-.064-.574.232-.574"/><path stroke="#964C36" d="M16.696 11.986s-.167-.588-.107-.754"/><path stroke="#2A8E51" d="M16.633 11.51s-.363-.34-.43-.156m.493-.04s-.163-.494-.39-.577-.292.111-.292.111m.65.018s.094-.678-.122-.757-.33.236-.33.236m.507.54s.136-.561.414-.46"/><path stroke="#964C36" stroke-width=".7" d="M17.064 12.195s.237-.563.198-.735"/><path stroke="#2A8E51" stroke-width=".7" d="M17.185 11.73s.402-.293.446-.102m-.485-.099s.221-.472.457-.526.276.146.276.146m-.646-.061s-.011-.685.213-.737.3.275.3.275m-.57.474s-.067-.574-.356-.508m3.203 1.259s.182-.835.698-.835c.517 0 .748.883.748.883"/><path stroke="#2A8E51" stroke-width=".7" d="M19.597 11.281s.278-.493 1.196-.453 1.085.453 1.085.453m-2.466-.627s.504-.624 1.21-.095l.24.095s.24-.708 1.4 0"/><path stroke="#964C36" d="M20.804 12.028s.037-.78.16-.994m.86 2.701s-.464-.218-.602 0c-.139.219-1.81 2.222-1.81 2.222"/><path fill="#FFF203" fill-rule="evenodd" d="m20.223 13.946 1.036.724s.476-.34.238-.532-.888-.53-.888-.53z" clip-rule="evenodd"/><path fill="#00A651" fill-rule="evenodd" d="M20.187 13.983s-.24.252-.24.444c0 .191-.223.706-.223.706s.624.384.754.14c.13-.245.972-.099.823-.473-.148-.373-1.114-.817-1.114-.817" clip-rule="evenodd"/><path fill="#FFD100" fill-rule="evenodd" d="M15.792 8.387s.553-.284.827 0c.274.283.498-.024.498-.195s.435-.759.435-.282-.136.746.246.746 2.103-.659 2.515-.464c.413.195.729.146.624-.133-.105-.28-.375-.454-.894-.301-.519.152-.396.301-.845.301s-.948-.149-.948-.149.14-.25.653-.072c.512.178 1.218-.221 1.41-.221s.721-.012.774.14c.052.153.371.293.128.435-.244.142-.645.231-.369.413s.911.147.942.337.331.472.21.472c-.12 0-.338.267-.542.186-.203-.082-.227-.153-.032-.219s.193-.342.032-.342c-.16 0-.082.097-.448 0s-.85-.205-.821 0c.029.204.267.519-.172.56-.44.043-.646.21-.731.075-.086-.135-.392-.316-.151-.373.24-.058.47.196.557.155.086-.042.283-.065.118-.241s-.435-.28-.184-.412.053-.134-.426.139-.745.505-1.165.472-.578.012-.713-.033c-.135-.044-.793.49-.983.354-.19-.135-.801-.187-.691-.354s.258-.252.423-.166.328.171.439.086.432-.38.351-.439c-.08-.059-.003-.257-.46-.257-.456 0-.617.22-.725.082-.108-.14.118-.3.118-.3" clip-rule="evenodd"/></g><path fill="#2B409A" d="M-4-3h18v14H-4z"/><mask id="e" width="18" height="14" x="-4" y="-3" maskUnits="userSpaceOnUse" style="mask-type:luminance"><path fill="#fff" d="M-4-3h18v14H-4z"/></mask><g mask="url(#e)"><path fill="#F7FCFF" d="m-6.004 10 3.96 1.737L14.09-1.111l2.09-2.582-4.237-.58-6.58 5.536-5.296 3.73z"/><path fill="#F50100" d="m-5.462 11.217 2.018 1.008L15.429-3.933h-2.833z"/><path fill="#F7FCFF" d="m16.004 10-3.961 1.737L-4.09-1.111l-2.09-2.582 4.236-.58 6.58 5.536 5.297 3.73z"/><path fill="#F50100" d="m15.869 10.873-2.018 1.009-8.037-6.918-2.382-.773-9.813-7.875h2.834L6.26 4.004l2.605.927z"/><mask id="f" width="22" height="18" x="-6" y="-5" fill="#000" maskUnits="userSpaceOnUse"><path fill="#fff" d="M-6-5h22v18H-6z"/><path fill-rule="evenodd" d="M5.985-3h-2v6H-4v2h7.985v6h2V5H14V3H5.985z" clip-rule="evenodd"/></mask><path fill="#F50100" fill-rule="evenodd" d="M5.985-3h-2v6H-4v2h7.985v6h2V5H14V3H5.985z" clip-rule="evenodd"/><path fill="#F7FCFF" d="M3.985-3v-1.5h-1.5V-3zm2 0h1.5v-1.5h-1.5zm-2 6v1.5h1.5V3zM-4 3V1.5h-1.5V3zm0 2h-1.5v1.5H-4zm7.985 0h1.5V3.5h-1.5zm0 6h-1.5v1.5h1.5zm2 0v1.5h1.5V11zm0-6V3.5h-1.5V5zM14 5v1.5h1.5V5zm0-2h1.5V1.5H14zM5.985 3h-1.5v1.5h1.5zm-2-4.5h2v-3h-2zm1.5 4.5v-6h-3v6zM-4 4.5h7.985v-3H-4zm1.5.5V3h-3v2zm6.485-1.5H-4v3h7.985zm1.5 7.5V5h-3v6zm.5-1.5h-2v3h2zM4.485 5v6h3V5zM14 3.5H5.985v3H14zM12.5 3v2h3V3zM5.985 4.5H14v-3H5.985zM4.485-3v6h3v-6z" mask="url(#f)"/></g></g></g></g><rect width="23" height="17" x=".5" y=".5" stroke="#000" stroke-opacity=".1" rx="1.5"/><defs><clipPath id="a"><rect width="24" height="18" fill="#fff" rx="2"/></clipPath></defs></svg>