<svg xmlns="http://www.w3.org/2000/svg" fill="none" viewBox="0 0 24 18"><g clip-path="url(#a)"><mask id="b" width="24" height="18" x="0" y="0" maskUnits="userSpaceOnUse" style="mask-type:luminance"><path fill="#fff" d="M0 0h24v18H0z"/></mask><g fill-rule="evenodd" clip-rule="evenodd" mask="url(#b)"><path fill="#E31D1C" d="M0 0h24v18H0z"/><path fill="#FECA00" d="m11.262 3.411-.758.458.173-.893-.631-.668.854-.036.362-.833.361.833h.853l-.63.704.19.893zM5.263 7.205 3.103 8.37l.492-2.27-1.8-1.7 2.437-.09 1.031-2.12 1.03 2.12h2.433L6.93 6.098l.54 2.27zm7.499-.794-.758.458.173-.893-.631-.668.854-.036.362-.833.361.833h.853l-.63.704.19.893zm-.75 3-.758.458.173-.893-.631-.668.854-.036.362-.833.361.833h.853l-.63.704.19.893zm-2.25 2.25-.758.458.173-.893-.631-.668.854-.036.362-.833.361.833h.853l-.63.704.19.893z"/></g></g><rect width="23" height="17" x=".5" y=".5" stroke="#000" stroke-opacity=".1" rx="1.5"/><defs><clipPath id="a"><rect width="24" height="18" fill="#fff" rx="2"/></clipPath></defs></svg>