<svg xmlns="http://www.w3.org/2000/svg" fill="none" viewBox="0 0 24 18"><g clip-path="url(#a)"><mask id="b" width="24" height="18" x="0" y="0" maskUnits="userSpaceOnUse" style="mask-type:luminance"><path fill="#fff" d="M0 0h24v18H0z"/></mask><g mask="url(#b)"><path fill="#F50101" fill-rule="evenodd" d="M0 0v18h24V0H0Z" clip-rule="evenodd"/><mask id="c" width="24" height="18" x="0" y="0" maskUnits="userSpaceOnUse" style="mask-type:luminance"><path fill="#fff" fill-rule="evenodd" d="M0 0v18h24V0H0Z" clip-rule="evenodd"/></mask><g mask="url(#c)"><path fill="#F7FCFF" fill-rule="evenodd" d="M0 0v6h24V0H0Z" clip-rule="evenodd"/><path fill="#5EAA22" fill-rule="evenodd" d="M0 12v6h24v-6H0Z" clip-rule="evenodd"/><path fill="#F50101" d="M0 0h9v18H0z"/><path fill="#F7FCFF" fill-rule="evenodd" d="M4.268 5.947c-.342-.034-2.608-.227-2.608.598 0 .492.55.752 1.242.887-.656.594-1.277 1.154-1.6 1.445a.079.079 0 0 0 .075.137c.588-.152 1.937-.568 3.225-1.446h.042c.379 0 .643-.165.826-.388 1.298 1.06 2.757 1.58 3.48 1.788.093.027.144-.092.065-.148a20.478 20.478 0 0 1-2.942-2.55l.033-.039c.257-.303.481-.615.676-.928a.447.447 0 0 0 .185-.208h.199v.5c0 .049.039.088.087.088H8.79a.087.087 0 0 0 .087-.087v-.951a.087.087 0 0 0-.087-.087H7.252a.087.087 0 0 0-.087.087v.002H7.15a9.31 9.31 0 0 0 .918-3.031c.01-.091-.105-.127-.152-.048-.3.5-.967 1.56-2.03 2.922V3.8c-.108-.116-.45-.43-.45-.43v-.686l.618-.56-.848-.625-.894.625.676.56v.687c0 .33-.41.43-.41.43l-.075.606a28.494 28.494 0 0 1-1.92-2.798c-.047-.081-.166-.042-.15.05a10.1 10.1 0 0 0 1.003 2.987h-.184v-.002a.087.087 0 0 0-.087-.087H1.627a.087.087 0 0 0-.087.087v.95c0 .049.039.088.087.088h1.538a.087.087 0 0 0 .087-.087v-.5h.199a.449.449 0 0 0 .404.268c.127.196.264.39.413.583ZM4.23 4.921c0 .2-.164.363-.367.363a.365.365 0 0 1-.367-.363c0-.2.165-.363.367-.363.203 0 .367.162.367.363Zm1.957 0c0 .2.164.363.366.363a.365.365 0 0 0 .367-.363c0-.2-.164-.363-.367-.363a.365.365 0 0 0-.366.363Z" clip-rule="evenodd"/></g></g></g><path stroke="#000" stroke-opacity=".1" stroke-width=".5" d="M.25.25h23.5v17.5H.25z"/><defs><clipPath id="a"><path fill="#fff" d="M0 0h24v18H0z"/></clipPath></defs></svg>