<svg xmlns="http://www.w3.org/2000/svg" fill="none" viewBox="0 0 24 18"><g clip-path="url(#a)"><mask id="b" width="24" height="18" x="0" y="0" maskUnits="userSpaceOnUse" style="mask-type:luminance"><path fill="#fff" d="M0 0h24v18H0z"/></mask><g mask="url(#b)"><path fill="#FF6230" fill-rule="evenodd" d="M0 0h24v18H0z" clip-rule="evenodd"/><path fill="#FECA00" fill-rule="evenodd" d="M0 0v18L24 0z" clip-rule="evenodd"/><path fill="#fff" fill-rule="evenodd" d="m19.745 3.896.387.237-.357.205c.32 0 1.04-.029 1.22-.18l.033-.026c.134-.11 1.428-.506 1.428-.506h-.805c-.441 0-.654.07-.857.235l-.034.029c-.117.097-.188.124-.42.124l-.049.028.04-.076c.172.003.362-.105.576-.301.022-.021.149-.067.307-.124.317-.115.764-.276.764-.38h-.362l.006-.01.002-.001q.005-.006-.002-.002a1 1 0 0 1-.216.027 3 3 0 0 0-.246.02c-.207.03-.37.091-.503.212l-.08.07q.255-.51.391-.826a2 2 0 0 1 .235-.394 8 8 0 0 0 .213-.297.8.8 0 0 0 .146-.453s-.868.867-.929 1.007c-.065.149-.18.307-.32.498-.17.232-.376.512-.568.884m-2.64-.858.152-.24a4 4 0 0 0-.644-.311 15 15 0 0 0-.442-.147c-.126-.043-.18-.076-.208-.12-.19-.302-.34-.402-.672-.402 0 0 .267.324.5.558-.383-.179-.497-.214-.624-.214 0 0 1.125.828 1.124.907l.29.004q.002-.196-.212-.37a3.5 3.5 0 0 1 .736.336M14.92 2.16c-.202-.13-.349-.174-.485-.082l.56.447a.7.7 0 0 0-.185-.023.6.6 0 0 1-.183-.02q-.004 0-.007-.003-.003-.002-.011-.014l-.004-.005c-.079-.113-.177-.157-.4-.157-.354 0-.55.043-.62.187 0 0 .673-.045 1.225.295.23 0 .326.145.303.518l.29.017q.02-.339-.089-.544c.101.079.176.136.196.148.15.09.239.169.267.222l.001.003q.005.009.005.013t-.018.016l-.006.005.174.226c.138-.1.18-.246.103-.392-.058-.11-.182-.217-.372-.333a4 4 0 0 1-.238-.157l-.112-.083c-.13-.096-.33-.242-.394-.284m-1.53 1.259q.322 0 .896.261l.124-.256q-.624-.287-1.02-.288c-.463 0-.824.134-.824.416 0 .201.16.324.423.375 0 0-.132-.34-.132-.375 0-.013.03-.041.111-.072.105-.039.257-.061.422-.061m-.482.732-.043.28c-.409-.058-1.023-.05-1.151 0 0 0 .737-.345 1.194-.28m.377 1.52-.084-.272c-.567.166-.845.512-.94.656q-.038.034-.039.065-.001-.002.04-.065c.106-.096.427-.207.839-.33-.404.425-.471.86-.48 1.032q-.017.049-.002.076-.002-.002.001-.076c.052-.156.335-.47.694-.845l-.204-.19zm1.096 2.272.11-.261c-.542-.238-.977-.152-1.142-.102q-.051 0-.072.025 0-.002.072-.025c.165-.005.555.154 1.032.363m.1.404-.155.238c-.432-.288-.79-.513-.953-.536.172-.02.615-.03 1.107.298M13.3 8.06s.026-.007.074-.012q-.05-.008-.075.012m-1.4-.214.27-.083c-.165-.568-.511-.846-.656-.94q-.033-.039-.065-.039s.025.012.065.039c.11.123.24.524.385 1.023m-1.342-.233-.226.17c-.308-.419-.567-.752-.712-.83.168.04.588.183.938.66m-1.013-.674s.028.003.075.015q-.045-.026-.075-.015m8.544 1.117-.104.198.064-.033c.079.144.12.258.12.355 0 .16-.117.267-.28.267V8.49c-.033 0-.084.047-.084.087a.6.6 0 0 0-.077-.19l.108-.056c-.13-.053-.195-.047-.224-.01q-.165.21-.317.332s-.065-.427.028-.546c.167-.214.44-.214.766-.05m-3.31 2.856v-.354h-.57q-.048.002-.092.013c-.053.011-.1.021-.138-.013 0 0-.408-.06-.382-.009.015.031.17.16.33.255l-.036.041c-.093.12-.028.547-.028.547a2 2 0 0 0 .328-.348c.018-.028.023-.035.134.02a.2.2 0 0 0 0 .063c.02.136-.116.348-.116.348h.002c.165 0 .526 0 .526-.16 0-.058-.056-.13-.117-.208-.038-.05-.078-.102-.11-.156l.037-.039z" clip-rule="evenodd"/><path fill="#979797" d="m20.132 4.133.037.065.11-.063-.108-.066zm-.387-.237-.067-.035-.032.062.06.037zm.03.442-.038-.065-.245.14h.283zm1.22-.18-.047-.057zm.033-.026-.048-.058zm1.428-.506.022.072-.022-.147zm-1.662.235-.047-.058zm-.034.029-.048-.058zm-.42.124V3.94h-.02l-.017.01zm-.049.028-.066-.034-.116.225.22-.126zm.04-.076v-.075h-.046l-.022.041zm.576-.301.05.055zm.307-.124.025.07zm.764-.38h.075v-.074h-.075zm-.362 0v-.074h-.001zm0 0-.065-.037-.067.114.132-.001zm0 0 .065.038v-.001zm.006-.01-.058-.046zm.002-.001-.059-.047zm-.002-.002-.026-.07zm-.216.027.004.075zm-.246.02.01.075zm-.503.212.051.056zm-.08.07-.067-.034.115.092zm.391-.826-.069-.03zm.191-.334.062.043zm.044-.06.06.044zm0 0-.059-.046-.001.001zm0 0 .06.045v-.001zm0 0-.06-.045zm.213-.297-.063-.04zm.146-.453h.075v-.181l-.128.127zm-.929 1.007-.069-.03zm-.32.498.059.046.001-.002zm0 0-.06-.046zm0 0-.06-.046-.001.001zm-3.055-.214.063.04.041-.065-.066-.04zm-.153.24-.039.065.063.037.04-.062zm-.492-.551.027-.07zm-.442-.147-.024.07.049-.141zm-.208-.12.063-.04zm-.672-.402v-.075h-.16l.102.123zm.5.558-.032.068.085-.121zm-.624-.214v-.075h-.228l.184.135zm1.124.907-.076-.001v.075l.074.001zm.29.004-.001.075.075.002.001-.075zm-.212-.37.024-.072-.072.13zm.14.048-.026.07zm-2.073-.674-.042-.062-.084.057.08.063zm.485.082-.04.063zm.076.365-.02.072.066-.13zm-.37-.043.03-.069zm0 0 .029-.07zm-.006-.003-.042.062zm-.011-.014-.062.043zm0 0-.062.042zm-.004-.005-.062.043zm-1.02.03-.068-.032-.055.116.128-.009zm1.225.295-.04.064.018.011h.022zm.303.518-.075-.005-.005.075.076.004zm.29.017-.004.075.074.004.005-.074zm-.089-.544.046-.06-.112.095zm.196.148.04-.064zm.267.222-.067.035zm.001.003-.066.035zm.005.013.074.01zm-.018.016-.043-.06zm-.006.005-.044-.061-.062.045.046.061zm.174.226-.06.046.045.058.06-.043zm.103-.392-.067.035zm-.372-.333-.039.064zm-.238-.157-.043.06zm-.112-.083-.045.06zm0 0 .044-.06zm0 0 .044-.06zm0 0-.045.06zm-1.027 1.236-.032.068.067.03.032-.065zm.123-.256.068.033.033-.07-.07-.031zm-1.42.503L12.975 4l.134.025-.05-.126zm-.022-.447.027.07zm-.103.951-.01.074.074.01.01-.073zm.043-.28.074.011.011-.075-.075-.01zm-1.194.28-.032-.068.059.138zm1.487.968.072-.022-.022-.07-.07.02zm.084.271.02.072.074-.021-.023-.073zm-1.063.45h-.075l.143.033zm.879-.395.054.051.194-.204-.27.08zm-.482 1.108-.065.037.14-.042zm.695-.921.054.052.053-.055-.056-.052zm-.204-.19-.022-.072-.126.038.097.089zm1.38 1.96.07.029.029-.068-.068-.03zm-.11.26-.03.07.07.03.03-.07zm-1.103-.337-.057-.048.088.116zm1.05.98-.042.063.063.042.041-.064zm.153-.238.063.04.04-.061-.061-.041zM13.3 8.06l-.049-.058.066.13zm-1.13-.297.023.072.07-.022-.02-.071zm-.27.083-.073.021.022.074.072-.023zm-.45-1.062v-.075l-.034.142zm-1.118 1-.06.044.044.061.061-.045zm.226-.171.045.06.06-.045-.045-.06zm-1.013-.674-.025-.07.017.145zm8.44 1.315-.066-.035-.112.211.213-.11zm.104-.198.067.035.036-.068-.069-.034zm-.04.165.066-.036-.036-.065-.065.034zm-.16.622h-.076v.075h.075zm0-.354h.074v-.075h-.075zm-.161-.102-.035-.067-.068.035.037.068zm.108-.057.035.067.144-.074-.15-.062zm-.224-.01.059.047zm-.317.332-.075.011.02.129.101-.081zm.028-.546-.059-.047zm-2.545 2.452h.075v-.075h-.075zm0 .354v.075h.075v-.075zm-.661-.34.016.072zm-.138-.014.05-.055-.016-.016-.023-.003zm-.382-.009-.068.033zm.33.255.053.053.068-.069-.083-.049zm-.036.041.059.046zm-.028.547-.075.01.02.13.101-.082zm.317-.332-.06-.046zm.01-.016.064.041zm.135.02.072.02.018-.06-.057-.028zm0 .063.074-.01zm-.116.348-.063-.04-.075.115h.138zm.002 0V11.4zm.41-.368-.06.046zm-.11-.156-.055-.051-.038.04.028.048zm.036-.039v-.075h-.032l-.022.024zm5.624-6.843-.387-.237-.078.128.387.237zm-.36.334.358-.205-.074-.13-.358.205zm1.137-.302a.5.5 0 0 1-.192.076c-.093.023-.207.04-.326.053a7 7 0 0 1-.655.033v.15c.162 0 .425-.008.67-.034.123-.013.244-.031.346-.056a.65.65 0 0 0 .253-.106zm.032-.026-.032.026.096.116.032-.027zm1.476-.45-.022-.07h-.003l-.011.004-.042.012a35 35 0 0 0-.61.196c-.17.056-.345.116-.486.17a4 4 0 0 0-.184.073.6.6 0 0 0-.118.064l.095.116a.5.5 0 0 1 .083-.043q.072-.03.176-.07c.14-.052.312-.112.482-.168a33 33 0 0 1 .659-.21l.002-.001h.001zm-.805.076h.805v-.15h-.805zm-.81.218c.185-.15.378-.218.81-.218v-.15c-.451 0-.684.072-.904.252zm-.033.028.034-.028-.096-.115-.034.028zm-.468.142a1 1 0 0 0 .275-.029.6.6 0 0 0 .193-.113l-.096-.115a.4.4 0 0 1-.141.085.8.8 0 0 1-.23.022zm-.011.018.049-.028-.075-.13-.049.028zm-.066-.175-.038.076.133.068.039-.075zm.593-.323c-.212.194-.383.285-.525.282l-.002.15c.203.003.412-.122.628-.321zm.332-.139a10 10 0 0 0-.278.107.2.2 0 0 0-.054.033l.101.11c-.004.004-.002.001.017-.007l.063-.027.202-.074zm.715-.308c0-.014.007-.018 0-.009a.2.2 0 0 1-.041.033q-.065.043-.177.092a8 8 0 0 1-.497.192l.051.142c.158-.058.352-.128.507-.197.077-.034.147-.07.2-.104a.4.4 0 0 0 .069-.058.14.14 0 0 0 .038-.091zm-.287.075h.362v-.15h-.362zm0 0-.001-.15zm-.064-.115v.002l.128.076.001-.001zm.011-.017-.011.018.13.075zm.002-.002-.002.002.118.093.002-.002zm.083.115-.004.001-.016.002c-.002 0-.041.003-.065-.034a.07.07 0 0 1-.006-.069l.007-.013.001-.002.117.094.002-.002.003-.005a.1.1 0 0 0 .014-.037.1.1 0 0 0-.012-.047.07.07 0 0 0-.066-.034l-.018.002-.01.003zm-.238.031a1 1 0 0 0 .238-.031l-.052-.14a1 1 0 0 1-.195.022zm-.24.021a2 2 0 0 1 .24-.02l-.009-.15a3 3 0 0 0-.251.022zm-.462.193c.117-.108.265-.166.462-.193l-.02-.148c-.216.03-.396.095-.543.23zm-.083.072q.04-.033.083-.072l-.101-.111-.077.067zm.274-.914q-.135.313-.389.822l.135.067q.255-.51.392-.829zm.199-.347a2 2 0 0 0-.199.347l.138.06c.048-.11.106-.21.184-.321zm.045-.062-.045.062.123.086.043-.059zm0 0 .12.09V2.3zm.001-.001.119.091zm-.001.001.12.089zm.21-.292a8 8 0 0 1-.21.292l.12.089c.064-.086.18-.242.217-.301zm.134-.413a.75.75 0 0 1-.134.413l.127.08a.9.9 0 0 0 .157-.494zm-.785 1.036.047-.066q.043-.054.111-.13c.089-.1.202-.22.314-.337a32 32 0 0 1 .404-.413l.027-.028.01-.009-.053-.054-.053-.053v.001l-.003.002-.007.007-.027.028-.1.1c-.082.084-.193.197-.306.315s-.227.24-.318.341q-.069.078-.116.136a.5.5 0 0 0-.068.1zm-.329.513c.138-.188.26-.354.33-.513l-.139-.06c-.06.14-.17.291-.312.484zm-.002.002-.117-.092zm0 0-.118-.092zm-.56.872c.19-.366.392-.642.562-.874l-.121-.089c-.17.233-.38.517-.574.894zm-2.617-1.173-.153.241.127.08.153-.24zm-.607-.2c.212.079.416.175.632.305l.077-.129a4 4 0 0 0-.656-.317zm-.392-.288h.002l.005.002a.14.14 0 0 1 .044.075.14.14 0 0 1-.089.068l-.004-.001-.003-.001h.001l.01.003.037.012.39.13.052-.14a9 9 0 0 0-.397-.133l-.037-.012-.01-.003h-.003l-.002-.001h-.002l-.004-.002a.14.14 0 0 0-.089.068c.009.04.04.073.044.074l.006.002zM15.9 2.26c.043.069.122.108.247.15l.049-.141c-.128-.044-.158-.07-.17-.089zm-.61-.367c.16 0 .265.024.351.077.088.053.165.142.259.29l.126-.08c-.097-.154-.19-.266-.307-.338a.8.8 0 0 0-.428-.099zm.554.43a8 8 0 0 1-.484-.539l-.009-.01-.002-.003-.058.047-.058.048.003.004.009.01.034.04.118.138c.096.111.223.252.34.37zm-.677-.086c.108 0 .206.027.592.207l.064-.136c-.381-.178-.51-.221-.656-.221zm1.199.833a.1.1 0 0 0-.013-.046L16.337 3l-.042-.046a3 3 0 0 0-.131-.117 12 12 0 0 0-.389-.31l-.387-.295-.128-.095-.035-.026-.01-.007-.002-.002h-.001l-.045.06-.044.06.003.002.01.007.035.027.127.094.386.293c.14.108.28.219.383.306a2 2 0 0 1 .152.141l.002.003-.003-.007-.003-.02zm.216-.072-.29-.004-.003.15.291.004zm-.26-.238c.132.11.186.212.184.312l.15.003c.003-.165-.088-.306-.24-.43zm.214-.08-.143-.049-.048.143.139.047zm.607.294a3.6 3.6 0 0 0-.607-.293l-.053.14c.196.073.383.161.583.282zm-2.665-.835a.2.2 0 0 1 .161-.03c.065.012.142.05.241.113l.082-.126a.9.9 0 0 0-.294-.135.35.35 0 0 0-.274.054zm.565.326-.511-.408-.036-.028-.01-.008-.002-.002-.048.058-.047.058.001.001.002.002.01.008.036.028.128.103.384.306zm-.232.111a.7.7 0 0 1 .166.02l.039-.145a.8.8 0 0 0-.205-.025zm-.212-.025a.6.6 0 0 0 .212.025v-.15a.5.5 0 0 1-.155-.014zm0 0 .057-.139zm-.02-.01.02.01.057-.14q-.003 0 0 0l.007.005zm-.03-.034.009.013a.1.1 0 0 0 .021.02l.084-.124.012.01-.004-.005zm-.001 0 .123-.086zm-.004-.005.004.004.123-.086-.004-.004zm-.337-.125c.107 0 .176.011.225.03.047.02.08.048.112.095l.123-.086a.4.4 0 0 0-.178-.147.8.8 0 0 0-.282-.042zm-.554.145c.023-.047.067-.083.156-.108.092-.026.222-.037.398-.037v-.15c-.179 0-.325.01-.438.042-.114.032-.203.09-.25.188zm1.197.199a2.2 2.2 0 0 0-.849-.286 2.6 2.6 0 0 0-.417-.02h-.003l.005.074.005.075h.001l.026-.001h.08c.07 0 .168.005.284.02.231.031.526.103.79.265zm.339.585c.012-.19-.005-.338-.068-.442-.067-.111-.178-.155-.31-.155v.15c.097 0 .15.03.182.083.038.062.058.172.046.355zm.22-.062-.29-.017-.01.15.29.017zm-.16-.434c.064.12.094.288.08.504l.15.01c.015-.233-.016-.432-.098-.585zm.301.049a4 4 0 0 1-.189-.143l-.092.118c.099.077.178.138.203.153zm.294.251a.4.4 0 0 0-.106-.12 1.5 1.5 0 0 0-.188-.131l-.078.128q.108.067.17.118a.3.3 0 0 1 .07.075zm.002.003-.002-.003-.132.07.001.003zm.012.059a.1.1 0 0 0-.005-.044l-.007-.015-.133.07a.1.1 0 0 1-.003-.033zm-.048.066.02-.015a.1.1 0 0 0 .028-.051l-.148-.022a.1.1 0 0 1 .01-.029l.01-.01-.008.005zm-.006.004.006-.004-.088-.122-.006.005zm.19.12-.175-.226-.119.091.175.227zm-.024-.31q.044.086.023.158a.26.26 0 0 1-.103.138l.088.12a.4.4 0 0 0 .16-.22.37.37 0 0 0-.035-.267zm-.344-.305c.188.114.296.213.344.304l.133-.07c-.068-.129-.206-.245-.399-.362zm-.242-.16q.126.09.242.16l.078-.128a4 4 0 0 1-.233-.155zm-.114-.083.114.083.087-.123-.112-.081zm0 0 .09-.121zm0 0 .09-.121zm0 0 .089-.122zm-.39-.282c.062.04.258.185.39.281l.089-.12c-.129-.095-.331-.244-.397-.287zm-.561 1.389c-.385-.176-.698-.268-.928-.268v.15c.197 0 .486.08.865.254zm.025-.22-.124.255.135.066.124-.256zm-.953-.181c.248 0 .575.091.989.281l.063-.136c-.421-.193-.771-.295-1.052-.295zm-.749.341c0-.1.062-.184.195-.246.135-.062.328-.095.554-.095v-.15c-.237 0-.455.034-.617.11-.163.075-.282.2-.282.381zm.363.301a.6.6 0 0 1-.276-.114.23.23 0 0 1-.087-.187h-.15c0 .123.05.225.14.301.086.074.205.12.344.148zm-.222-.3q0 .016.003.025l.022.071a5 5 0 0 0 .107.29l.004.011.001.003v.001l.07-.027.07-.027v-.001l-.001-.003-.004-.01q-.007-.015-.015-.04l-.09-.245-.014-.043-.003-.012v.006zm.16-.143a.5.5 0 0 0-.103.052.2.2 0 0 0-.034.03.1.1 0 0 0-.023.06h.15l-.006.026-.005.01.005-.004a.3.3 0 0 1 .069-.033zm.448-.066c-.17 0-.332.023-.448.066l.053.14c.093-.034.235-.056.395-.056zm-.45 1.098.042-.28-.149-.022-.042.28zm-1.2.059a.7.7 0 0 1 .157-.025 5 5 0 0 1 .958.029l.021-.148a5 5 0 0 0-.992-.03.8.8 0 0 0-.197.034zm1.178-.424c-.247-.036-.56.04-.802.118a4 4 0 0 0-.4.153l-.025.01-.007.004h-.001l-.001.001.032.068.031.068.002-.001.006-.003.112-.048a6 6 0 0 1 .297-.11c.24-.077.525-.142.735-.112zm.211 1.344.084.271.143-.044-.083-.271zm-.805.675c.088-.134.353-.466.898-.625l-.042-.144c-.59.172-.88.533-.982.687zm-.113-.097c-.03.027-.064.068-.064.121h.15q-.002.01 0 .007l.014-.016zm.011.121.068.033V6.15l.007-.011.027-.044-.126-.082-.04.067-.002.004v.002zm.857-.467a8 8 0 0 0-.54.177c-.143.055-.262.11-.328.17l.1.111q.063-.056.282-.14a8 8 0 0 1 .53-.175zm-.384 1.108c.01-.16.072-.576.46-.985l-.109-.103c-.42.442-.49.896-.5 1.08zm-.146-.028c-.013.039-.022.09.005.137l.13-.075.003.007q-.001-.004.004-.022zm.07.1.075-.005V6.81l.001-.05-.15-.01-.001.062v.023zm.64-.973c-.179.188-.34.362-.465.508q-.094.111-.156.201a.7.7 0 0 0-.09.164l.143.047a.6.6 0 0 1 .07-.126 3 3 0 0 1 .148-.189c.12-.143.28-.314.46-.501zm-.2-.083.204.19.102-.11-.204-.19zm.205-.179-.176.052.043.144.175-.052zm1.158 2.054-.11.262.138.058.11-.261zm-1.051 0c.153-.046.57-.13 1.09.098l.06-.137c-.562-.247-1.017-.158-1.194-.105zm-.024-.147c-.04.001-.093.01-.127.052l.115.096-.005.005q.005-.002.021-.003zm-.07.1.03.068h.003l.012-.005.049-.016-.043-.144-.079.027-.001.001zm1.134.27a12 12 0 0 0-.637-.264 3 3 0 0 0-.242-.079.7.7 0 0 0-.185-.027l.004.15q.045-.002.143.023.096.024.228.073c.175.065.39.156.628.26zm-.022.751.154-.238-.126-.082-.154.239zm-1.027-.503q.045.006.137.047.09.042.212.113c.162.093.357.22.574.365l.083-.125a12 12 0 0 0-.582-.37 3 3 0 0 0-.225-.12.7.7 0 0 0-.177-.058zm1.16.162c-.511-.341-.974-.332-1.157-.31l.017.148c.16-.019.584-.029 1.057.287zM13.3 8.06l.017.073h.003l.063-.01-.017-.15-.077.012-.005.001h-.002v.001zm.085-.086c-.04-.006-.093-.006-.134.028l.097.115-.006.004h.021zm-1.237-.283-.27.084.043.143.272-.083zm-.675-.806c.134.089.466.353.625.899l.144-.042c-.172-.59-.532-.88-.686-.982zm.097-.112c-.027-.03-.067-.064-.12-.064v.15h-.007l.016.014zm-.12.011-.034.067.003.002.01.006.044.026.083-.125-.067-.04-.004-.002h-.002v-.001zm.521 1.041c-.073-.25-.142-.477-.207-.657a3 3 0 0 0-.096-.236.7.7 0 0 0-.098-.16l-.111.1q.03.034.074.125.042.09.09.222c.063.176.132.399.204.648zm-1.594.019.226-.172-.09-.12-.226.172zm-.793-.824a.6.6 0 0 1 .112.09q.07.07.161.179c.12.143.26.33.414.54l.121-.09c-.154-.21-.297-.4-.42-.546a3 3 0 0 0-.17-.19.7.7 0 0 0-.147-.115zm1.034.548c-.363-.495-.801-.645-.98-.687l-.035.146c.156.036.558.172.895.63zM9.545 6.94l-.008.075.015.002.05.01.035-.145-.083-.016zm.11-.051c-.035-.02-.085-.037-.135-.02l.051.142-.007.001q.005 0 .02.009zm8.396 1.4.105-.197-.133-.07-.104.198zm-.037-.134-.063.033.069.133.063-.033zm.23.422c0-.117-.05-.244-.13-.391l-.131.072c.077.142.11.241.11.319zm-.356.342a.36.36 0 0 0 .253-.094.34.34 0 0 0 .103-.248h-.15a.2.2 0 0 1-.056.139.2.2 0 0 1-.15.053zm-.075-.429v.354h.15V8.49zm.068.087v.004l.007-.01.01-.007-.01.001v-.15a.13.13 0 0 0-.062.017.2.2 0 0 0-.044.033.16.16 0 0 0-.052.112zm-.219-.153a1 1 0 0 1 .067.147q.002.014.002.006h.15a.2.2 0 0 0-.008-.047l-.017-.048a1 1 0 0 0-.062-.13zm.14-.16-.109.057.07.133.108-.056zm-.131.104c-.004.004-.006 0 .014 0 .023 0 .062.008.123.033l.057-.139a.5.5 0 0 0-.178-.045.16.16 0 0 0-.134.058zm-.33.344q.163-.13.33-.344l-.118-.093a2 2 0 0 1-.305.32zm-.077-.652a.36.36 0 0 0-.06.173 1 1 0 0 0-.005.194 2 2 0 0 0 .02.232l.001.004v.001l.075-.01.074-.012v-.004l-.003-.013-.006-.049a2 2 0 0 1-.011-.154 1 1 0 0 1 .005-.17.2.2 0 0 1 .028-.099zm.859-.07a1 1 0 0 0-.48-.125.5.5 0 0 0-.379.195l.118.093a.35.35 0 0 1 .268-.138.85.85 0 0 1 .406.109zm-3.42 2.57v.353h.15v-.354zm-.494.074h.57v-.15h-.57zm-.076.011a.4.4 0 0 1 .076-.01v-.15a.5.5 0 0 0-.108.014zm-.204-.03c.07.064.16.04.204.03l-.032-.146a.3.3 0 0 1-.058.009c-.009 0-.01-.002-.013-.004zm-.265-.098a.07.07 0 0 1-.005.067c-.012.017-.027.022-.027.022l.017-.001c.03-.001.074 0 .123.005a4 4 0 0 1 .18.021l.012.002h.004l.011-.074.011-.074h-.005l-.013-.002a3 3 0 0 0-.33-.028.2.2 0 0 0-.062.01.1.1 0 0 0-.045.035.08.08 0 0 0-.006.083zm.301.223a2 2 0 0 1-.282-.205l-.019-.019q-.006-.009 0 .001l-.135.066a.2.2 0 0 0 .024.033l.028.028q.031.031.08.068c.063.05.144.108.228.157zm-.015.152.03-.034-.106-.106-.042.048zm-.087.5.074-.01v-.002l-.001-.003-.008-.061a2 2 0 0 1-.011-.155 1 1 0 0 1 .005-.17.2.2 0 0 1 .028-.098l-.118-.093a.36.36 0 0 0-.06.173 1 1 0 0 0-.005.194c.002.063.008.122.012.165l.007.052.002.015v.005zm.258-.377a2 2 0 0 1-.305.32l.093.116q.163-.13.33-.344zm.007-.011-.007.01.118.093.014-.02zm.23-.007-.07-.032a.2.2 0 0 0-.058-.016.1.1 0 0 0-.072.02c-.017.013-.027.031-.03.035l.126.082.002-.004h.001l-.002.001-.005.005-.019.01h-.014l.015.006.06.028zm.04.12c-.003-.025 0-.032 0-.031l-.144-.043a.2.2 0 0 0-.004.096zm-.19.359.064.04.002-.003.005-.007a1 1 0 0 0 .063-.122 1 1 0 0 0 .046-.125.4.4 0 0 0 .01-.141l-.148.021a.2.2 0 0 1-.008.082 1 1 0 0 1-.036.101 1 1 0 0 1-.042.082l-.014.024-.004.006v.001zm.003-.075h-.002v.15h.002zm.45-.085c0 .006 0 .015-.023.029a.4.4 0 0 1-.116.037 2 2 0 0 1-.311.019v.15c.081 0 .22 0 .338-.021a.5.5 0 0 0 .168-.058.18.18 0 0 0 .095-.156zm-.1-.162q.048.06.076.105c.02.032.025.05.025.057h.15a.3.3 0 0 0-.047-.135c-.024-.04-.056-.08-.085-.12zm-.115-.165c.034.06.077.116.115.165l.119-.092a1 1 0 0 1-.104-.147zm.047-.127-.037.039.11.102.036-.039zm.285-.024h-.23v.15h.23z"/><path fill="#fff" fill-rule="evenodd" d="m19.686 4.507.383-.001c.006.34-.035.622-.068.856-.028.192-.05.351-.04.483.012.122-.286 1.096-.286 1.096a.62.62 0 0 1-.073-.377 6 6 0 0 1 .04-.297l.008-.06a1.5 1.5 0 0 0 .008-.314 15 15 0 0 1-.04-.74l-.032.083a.8.8 0 0 1-.288.362c-.05.037-.083.06-.174.12a.8.8 0 0 0-.15.111q-.004.005-.002 0v-.012l-.269.155c-.04-.071.227-.375.417-.59.094-.108.17-.194.178-.218.08-.228.178-.384.308-.456l-.002-.07-.025.041c-.172.1-.214.149-.262.267l-.014.034c-.084.201-.214.341-.542.53l-.598.346s.802-.83.858-.964l.013-.032c.075-.182.597-.51.836-.648z" clip-rule="evenodd"/><path fill="#979797" d="m19.686 4.507-.064-.04-.072.116h.136zm.383-.001.075-.001-.002-.074h-.074zM20 5.362l.074.01zm-.04.483.075-.007zm-.286 1.096-.065.037.086.15.05-.165zm-.073-.377.075.006zm.04-.297.073.011zm.008-.06-.075-.01zm.008-.314.075-.007zm-.04-.74.075-.002-.144-.027zm-.032.083.07.025zm-.288.362-.046-.06zm-.174.12-.042-.063zm-.15.111.057.05zm-.002 0 .073.013zm0-.002.074.013zm0-.009-.072-.02-.002.009v.009zm0 0 .073.02.002-.009v-.008zm0-.001.076.003.005-.137-.118.069zm-.269.155-.064.038.037.064.065-.037zm.417-.59-.054-.053-.003.003zm0 0 .053.052.003-.003zm.178-.218.07.025zm.308-.456.036.065.04-.022-.001-.045zm-.002-.07h.075l-.005-.253-.134.214zm-.025.041.037.065.017-.01.01-.015zm-.262.267.07.028zm-.014.034.07.029zm-.542.53.038.065zm-.598.346-.054-.053.091.118zm.858-.964.07.029zm.013-.032.07.028zm.836-.648.063.04-.1-.104zm-.184.37.383-.001v-.15l-.383.001zm.308-.075a5 5 0 0 1-.068.844l.149.021c.033-.233.075-.521.069-.867zm-.068.844c-.027.19-.052.358-.039.5l.15-.013a2.2 2.2 0 0 1 .038-.466zm-.039.5-.001.018-.007.044-.03.137a26 26 0 0 1-.233.827l-.01.03-.002.009v.002h-.001l.072.023.072.022V6.96l.003-.009.01-.03a21 21 0 0 0 .234-.836q.021-.083.032-.144a.4.4 0 0 0 .01-.103zm-.147 1.052a.55.55 0 0 1-.063-.333l-.15-.011a.7.7 0 0 0 .083.42zm-.063-.333c.003-.05.025-.202.038-.292l-.148-.022a6 6 0 0 0-.04.303zm.038-.292.01-.063-.15-.018-.008.06zm.01-.063a1.5 1.5 0 0 0 .008-.329l-.15.013c.009.096.006.189-.008.298zm.008-.329q-.024-.274-.04-.735l-.15.005q.016.464.04.743zm-.076-.625.03-.079-.138-.058-.034.087zm-.314.396a.86.86 0 0 0 .314-.396l-.142-.05a.7.7 0 0 1-.263.327zm-.178.123c.091-.06.127-.084.178-.123l-.09-.12a3 3 0 0 1-.17.118zm-.134.098a1 1 0 0 1 .134-.098l-.083-.125a.8.8 0 0 0-.165.125zm-.133-.063v.002l-.001.005a.075.075 0 0 0 .043.077.08.08 0 0 0 .084-.014l.007-.007-.114-.098.003-.003a.1.1 0 0 1 .033-.018.075.075 0 0 1 .093.064v.019zm0-.002v.002l.147.027V5.84zm0 .003v-.002l.148.025.002-.019zm.002-.017.145.038zm-.002.015.15.007V5.82zm-.157.223.27-.155-.076-.13-.269.155zm.322-.705c-.094.107-.21.24-.298.353a1 1 0 0 0-.107.16.3.3 0 0 0-.03.072.12.12 0 0 0 .01.093l.13-.075c.01.016.005.027.007.018a.2.2 0 0 1 .016-.038 1 1 0 0 1 .093-.138c.084-.11.196-.237.292-.346zm.003-.003.108.105zm.162-.19q.005-.01-.008.01l-.036.044q-.048.058-.12.139l.112.1.123-.142.041-.052a.2.2 0 0 0 .029-.049zm.341-.497c-.154.087-.26.266-.341.497l.14.05c.08-.224.17-.357.274-.416zm.112.064-.002-.069-.15.003.002.07zm-.038.013.025-.04-.128-.08-.025.04zm-.257.255a.3.3 0 0 1 .07-.117.7.7 0 0 1 .16-.113l-.075-.13a1 1 0 0 0-.193.14.5.5 0 0 0-.1.163zm-.014.034.014-.034-.138-.057-.014.034zm-.573.567c.335-.193.48-.344.573-.566l-.138-.058c-.076.18-.19.31-.51.494zm-.599.346.599-.346-.075-.13-.599.346zm.752-1.058a.4.4 0 0 1-.043.063 3 3 0 0 1-.102.124c-.083.096-.187.211-.291.323a29 29 0 0 1-.373.395l-.025.026-.007.007-.002.002.054.053.054.052.002-.003.007-.007.026-.026a21 21 0 0 0 .374-.397c.104-.112.21-.23.294-.327q.065-.074.108-.13a.5.5 0 0 0 .062-.097zm.013-.031-.013.032.138.057.014-.033zm.867-.684a6 6 0 0 0-.485.31 3 3 0 0 0-.235.188.6.6 0 0 0-.147.186l.139.056a.5.5 0 0 1 .11-.131c.06-.056.137-.116.22-.176a6 6 0 0 1 .473-.304zm-.082.4.183-.296-.127-.08-.184.296z"/><path fill="#fff" fill-rule="evenodd" d="M9.038 12.964v.354h-.231l-.037.039c.031.054.072.106.11.155.061.08.116.15.116.209 0 .16-.36.16-.525.16h-.003s.136-.212.116-.348a.2.2 0 0 1 .001-.064c-.112-.054-.116-.047-.135-.02l-.01.017q-.164.209-.318.331s-.065-.427.028-.546l.037-.041c-.161-.096-.316-.224-.33-.255-.026-.051.382.009.382.009.038.034.084.024.137.013q.044-.012.092-.013zm12.943-6.976-.127-.068c.06-.107.018-.168-.173-.219q-.334-.089-1.155-.043a3.3 3.3 0 0 0-.54.037c.008-.001-.169.026-.211.031a.8.8 0 0 1-.187.003c-.164-.021-.319-.115-.59-.353-.252-.22-.424-.334-.593-.394-.171-.06-.292-.067-.745-.06l-.29.003v-.142c.089 0 .165 0 .287-.003.473-.007.603.001.798.07.19.066.376.19.64.42.251.222.385.302.512.318l.024.004.015.002c.028.004.056 0 .246-.028l.073-.011c.174-.026.332-.039.523-.039.02-.076.056-.252-.01-.292-.086-.051-.15-.13-.15-.13s.434-.084.473.051c.04.136 0 .348 0 .348l-.075.014q.165-.006.307-.006c.015-.083.037-.24-.01-.277a.6.6 0 0 1-.113-.13s.327-.084.356.051c.03.136 0 .348 0 .348l-.045.011q.311.012.498.06c.272.072.375.225.262.424" clip-rule="evenodd"/><path fill="#979797" d="m21.854 5.92-.044-.025-.025.045.045.024zm.127.068-.024.044.043.023.025-.042zm-.3-.287-.013.048zm-1.155-.043v.05h.003zm-.751.068.006.05zm-.187.003.006-.05zm-.59-.353-.034.037zm-.593-.394-.016.048zm-.745-.06-.001-.05zm-.29.003h-.05v.05h.05zm0-.142v-.05h-.05v.05zm.287-.003v-.05zm.798.07.016-.048zm.64.42-.034.038zm.512.318-.007.05zm.024.004.009-.05zm.015.002-.005.05zm.246-.028-.008-.05zm.073-.011-.007-.05zm.523-.039v.05h.038l.01-.037zm-.01-.292.025-.043zm-.15-.13-.009-.05-.08.015.05.065zm.473.051-.048.014zm0 .348.009.05.034-.007.006-.034zm-.075.014-.009-.05.011.1zm.307-.006v.05h.042l.007-.041zm-.01-.277-.032.04zm-.113-.13-.012-.05-.065.017.034.058zm.356.051-.048.011zm0 .348.012.049.033-.008.005-.034zm-.045.011-.012-.048.01.098zm.498.06.012-.048zm.111.4.127.068.048-.088-.127-.068zm-.162-.215a.6.6 0 0 1 .107.038q.038.019.047.033a.03.03 0 0 1 .007.024.1.1 0 0 1-.019.051l.087.05a.2.2 0 0 0 .032-.094.13.13 0 0 0-.028-.092.2.2 0 0 0-.082-.062 1 1 0 0 0-.125-.044zm-1.14-.041q.82-.044 1.14.041l.026-.096q-.348-.091-1.171-.045zm-.534.036c.175-.025.33-.038.531-.036l.001-.1a3.4 3.4 0 0 0-.546.037zm-.213.032.213-.032h.005c.003-.001.038-.046.012-.093a.1.1 0 0 0-.028-.006h-.003l.014.1h-.003a.1.1 0 0 1-.028-.006c-.026-.048.01-.092.012-.093h.003-.004l-.019.003-.186.027zm-.2.002a.8.8 0 0 0 .2-.002l-.012-.1a.7.7 0 0 1-.175.003zm-.617-.365c.273.24.437.342.617.365l.013-.099c-.147-.019-.292-.102-.564-.34zm-.575-.383c.16.056.326.165.575.383l.066-.075c-.252-.221-.43-.34-.608-.403zm-.729-.058c.454-.007.567 0 .729.058l.033-.095c-.181-.063-.311-.07-.763-.063zm-.29.003.29-.003-.001-.1-.29.003zm-.05-.192v.142h.1v-.142zm.337-.053-.288.003v.1c.09 0 .167 0 .29-.003zm.814.072c-.204-.072-.343-.079-.814-.072l.001.1c.473-.007.595.001.78.066zm.656.431c-.265-.232-.457-.361-.656-.43l-.033.093c.18.064.362.183.623.412zm.486.306c-.11-.014-.233-.084-.486-.306l-.066.075c.252.22.396.312.54.33zm.027.004-.027-.004-.013.1.023.002zm.012.002-.012-.002-.017.098.018.003zm.232-.029-.182.026a.2.2 0 0 1-.05.003l-.011.1c.02.001.038 0 .073-.004l.185-.026zm.074-.01-.074.01.015.1.073-.012zm.53-.04c-.194 0-.354.014-.53.04l.014.098c.172-.025.327-.038.516-.038zm-.036-.199s.006.004.01.02a.2.2 0 0 1 .003.067 1 1 0 0 1-.026.15l.097.025a1 1 0 0 0 .03-.17.3.3 0 0 0-.007-.095.13.13 0 0 0-.056-.083zm-.123-.174-.04.031.002.001.002.003.043.047a.6.6 0 0 0 .116.092l.051-.086a.5.5 0 0 1-.135-.119zm.52.039c-.018-.062-.077-.088-.127-.1a.7.7 0 0 0-.174-.014 2 2 0 0 0-.227.026h-.001l.009.05.01.048h.004l.06-.01c.041-.006.095-.012.149-.014a.6.6 0 0 1 .147.01c.042.011.052.025.054.031zm-.048.361.05.01v-.004l.005-.034.01-.091a.7.7 0 0 0-.017-.242l-.096.027a.6.6 0 0 1 .013.208 1 1 0 0 1-.013.109v.006l-.001.002zm-.066.063.075-.014-.018-.098-.075.014zm.298-.105q-.144 0-.309.006l.004.1q.163-.006.305-.006zm.05.059a1 1 0 0 0 .018-.163q.002-.045-.006-.086a.13.13 0 0 0-.041-.076l-.062.078c-.003-.001.002.001.005.019a.3.3 0 0 1 .004.062c-.001.05-.01.107-.017.148zm-.03-.325a.4.4 0 0 1-.098-.115l-.002-.002-.043.025-.043.026v.001l.003.003a.4.4 0 0 0 .032.047.5.5 0 0 0 .09.093zm-.143-.092.012.049h.001l.002-.001.046-.01a1 1 0 0 1 .108-.013.3.3 0 0 1 .104.01c.025.008.032.018.035.028l.097-.021c-.012-.058-.057-.088-.101-.103a.4.4 0 0 0-.14-.014 1 1 0 0 0-.172.026h-.004zm.308.063a1 1 0 0 1 .01.211l-.01.11v.007l-.001.002.05.007.049.007v-.003l.001-.007a1 1 0 0 0 .01-.117 1 1 0 0 0-.012-.238zm.037.289-.046.01.024.098.045-.011zm.477.071q-.195-.05-.51-.062l-.003.1q.309.012.487.059zm.293.497c.062-.111.07-.22.012-.311-.056-.088-.165-.149-.305-.186l-.026.097c.131.034.21.086.246.142.033.052.036.12-.014.209z"/><path fill="#979797" fill-rule="evenodd" d="M20.525 3.818a.3.3 0 0 1-.042.142 1 1 0 0 1-.056.087l-.058.078-.008.01c-.108.148-.156.251-.156.386 0 .143-.08.227-.23.266-.11.03-.218.034-.479.03l-.143-.002a1 1 0 0 1-.331-.057l-.07-.024-.045-.016a1.8 1.8 0 0 0-.642-.095c-.296 0-.368.125-.225.321.148.204.49.428.893.57.397.14.503.352.36.588-.107.18-.364.364-.582.438-.179.06-.305-.037-.382-.249a1.7 1.7 0 0 1-.082-.545c0-.144-.315-.201-.907-.203-.097 0-.184 0-.339.003l-.271.003c-.32 0-.413-.046-.487-.208l-.01-.021-.042-.097a1 1 0 0 0-.081-.143c-.087-.13-.238-.11-.405.029-.149.123-.269.312-.269.422q0 .045.018.091c.035.09.12.182.28.31.068.054.146.113.266.2l.345.25c.066.05.173.134.268.209.09.07.169.133.193.15.116.076.231.115.47.154.108.018.244.036.444.06.492.06.774.04 1.087-.042l.09-.024.088-.022c.088-.02.163-.03.245-.03.202 0 .306-.08.39-.246l.047-.104a.5.5 0 0 1 .058-.1c.029-.037.092-.027.203.018.041.017.09.039.156.07l.033.016.149.07q.103.05.185.083c.347.145.56.157.646-.007q.108-.205.193-.123c.039.036.064.102.108.253.055.191.082.26.118.299.067.07.034.17-.074.32l-.054.072c-.137.177-.154.203-.154.24 0 .112-.075.158-.813.557a.4.4 0 0 1-.326.014c-.148-.052-.304-.168-.462-.33a3 3 0 0 1-.273-.325.4.4 0 0 0-.095.072l-.006.006q-.13.12-.292.232c-.346.237-.712.367-1.078.333a2.8 2.8 0 0 1-.718-.173l-.09-.034a8 8 0 0 0-.36-.135c-.093-.025-.114-.008-.09.082.038.148-.089.553-.41 1.405l-.025.069c-.363.961-.438 1.178-.438 1.313 0 .304.234.353 1.407.353.297 0 .442-.01.507-.032.046-.016.049-.027.037-.098-.023-.137.01-.237.179-.377a.8.8 0 0 1 .365-.168c.204-.037.42-.003.632.076q.066.024.122.05l-.001.001-.043.019-.09-.037a1.2 1.2 0 0 0-.613-.074.74.74 0 0 0-.349.16c-.158.131-.188.22-.166.344.014.087.008.113-.06.137-.072.025-.218.034-.52.034-.64 0-.897-.01-1.1-.052-.238-.05-.344-.15-.344-.335 0-.143.074-.352.44-1.327l.027-.068c.314-.837.443-1.247.407-1.384-.031-.119.017-.156.136-.125.047.013.249.091.368.137.042.017.074.03.085.033.25.092.476.15.709.171.356.033.713-.095 1.053-.327a2.6 2.6 0 0 0 .367-.305l.042-.045a2 2 0 0 0 .095.128q.096.126.21.242c.154.158.306.271.447.32q.165.058.296-.01c.697-.377.795-.438.795-.528 0-.049.012-.067.161-.26l.053-.07c.098-.138.127-.225.078-.277-.042-.044-.07-.115-.117-.28-.052-.177-.077-.241-.108-.271-.032-.031-.073-.004-.136.114-.098.188-.33.175-.693.024a5 5 0 0 1-.186-.083c-.45-.211-.47-.22-.497-.186a.5.5 0 0 0-.053.093l-.023.051-.025.054c-.089.178-.204.266-.422.266-.079 0-.15.01-.237.03l-.086.022-.09.024c-.319.082-.605.103-1.102.043-.2-.025-.336-.043-.445-.06-.244-.04-.364-.081-.484-.162a6 6 0 0 1-.198-.152c-.095-.075-.2-.158-.265-.206l-.345-.25a7 7 0 0 1-.267-.201c-.165-.132-.254-.229-.291-.325a.3.3 0 0 1-.02-.104c0-.122.125-.32.282-.45.181-.15.356-.173.458-.02q.048.071.084.148c.01.02.031.07.043.098l.009.02c.068.147.146.186.454.186.066 0 .111 0 .27-.003.156-.002.243-.003.34-.002.623.002.944.06.944.238 0 .182.026.385.08.534.07.195.18.28.335.226.21-.07.46-.25.563-.421.13-.216.036-.404-.341-.537-.41-.145-.758-.373-.91-.583-.16-.221-.071-.377.254-.377.284 0 .458.03.654.097l.046.016.069.023c.114.039.2.055.32.055l.142.002c.258.004.365 0 .47-.028.136-.035.203-.106.203-.232 0-.144.05-.253.163-.406l.008-.011c.016-.02.047-.063.057-.078a1 1 0 0 0 .054-.083.26.26 0 0 0 .037-.125c0-.132-.027-.193-.076-.193-.28-.129-.63-.193-1.059-.193-.25 0-.337-.065-.43-.25l-.02-.041-.003-.007c-.101-.196-.247-.279-.635-.279a1.4 1.4 0 0 1-.67-.143l-.099-.045c-.28-.121-.534-.094-1.154.186-.853.386-1.357.475-1.516.256-.63-.207-.938-.207-.938-.015q0 .07.04.163c.014.03.028.06.053.108.097.19.118.252.083.327-.046.097-.208.144-.528.144-.915 0-1.194.785-.593 1.685q.145.216.277.46a9 9 0 0 1 .656 1.552c.013.035.017.04.022.045a2 2 0 0 1 .148.193q.07.1.113.194.081.175.034.288-.06.134-.323.135c-.318 0-.573-.138-.85-.403l-.145-.146-.127-.128c-.086-.082-.148-.12-.2-.12h-1.422l-.25-.003c-.12-.003-.224-.007-.422-.016-.665-.03-.912-.03-1.166.02-.327.066-.49.218-.49.496 0 .242-.076.533-.221.897a9 9 0 0 1-.18.415c-.344.755-.39.857-.397.96v.07c0 .393-.028.667-.132.944-.154.41-.445.644-.907.644-.531 0-.77.133-1.1.5-.206.229-.304.317-.458.394-.614.308-1.2.734-1.2.906 0 .266.313.401.867.211a5 5 0 0 1 .623-.168c.24-.057.374-.096.519-.157.182-.077.35-.182.52-.332a10 10 0 0 1 1.127-.822c.204-.127.379-.224.504-.278a.5.5 0 0 1 .159-.048c.046-.003.075.015.075.054v.027c0 .04-.006.078-.045.362l-.018.142q-.032.255-.025.395.01.164.07.164c.12 0 .493.228.733.46.32.307.39.58.1.743-.27.15-.45.128-.567-.004l-.046-.062v.945h1.53c.194 0 .228-.11.228-.556 0-.153.043-.254.116-.31a.2.2 0 0 1 .12-.046c.02.017.024.028.03.043a7 7 0 0 0 .228.477c.066.12.122.2.16.224.03.018.048-.012.048-.135 0-.146.022-.282.07-.489.071-.302.08-.348.066-.434-.017-.109-.095-.16-.269-.16a.63.63 0 0 1-.483-.188 1 1 0 0 0-.08-.071c-.066-.05-.123-.047-.223.027-.158.117-.231.133-.304.058a3 3 0 0 1-.159-.248 7 7 0 0 0-.155-.247.9.9 0 0 1-.121-.267 1.2 1.2 0 0 1 .045-.677 2 2 0 0 1 .075-.18c.03-.005.04 0 .053.008a6 6 0 0 0 .428.232c.169.082.3.128.373.128h.687l.24-1.287-.533-.217c-.125-.05-.147-.06-.17-.068l-.015-.007a2 2 0 0 1-.193-.132.3.3 0 0 1-.09-.096c-.018-.041.012-.065.074-.065.096 0 .3-.165.38-.302.082-.14-.017-.17-.373-.02a1.16 1.16 0 0 0-.447.307c-.1.118-.12.168-.192.41-.043.144-.089.196-.206.196-.19 0-.505-.494-.587-.942-.105-.574.158-.948.845-.948.651 0 1.25.09 2.161.288 1.212.264 1.336.287 1.714.287.25 0 .392.071.45.21.045.103.044.203.015.45-.045.38-.013.533.184.622.778.352 1.786.658 2.366.658.046.032.08.083.115.161.023.05.087.22.138.357l.067.175c.187.457.39.692.695.692.163 0 .224-.057.215-.175-.007-.093-.034-.163-.155-.44l-.055-.127c-.126-.31-.146-.504-.019-.637q.372-.39 1.456-.011c.143-.418.007-.62-.415-.62-.138 0-.313-.02-.448-.053-.162-.04-.251-.09-.231-.156.024-.079.236-.253.481-.41.09-.056.171-.103.234-.131l.032.014-.026.015-.037.022a5 5 0 0 0-.183.11c-.236.15-.446.323-.466.39-.01.035.065.078.205.112.132.032.304.052.439.052.454 0 .604.232.443.683-.742-.242-1.22-.242-1.457.007-.114.12-.096.303.026.6l.054.127c.124.282.15.351.158.45.01.14-.068.213-.252.213-.324 0-.536-.245-.728-.714l-.067-.178c-.052-.136-.115-.303-.137-.352a.4.4 0 0 0-.09-.14c-.587-.003-1.594-.31-2.373-.662-.217-.098-.251-.263-.209-.628.032-.27.033-.367-.008-.463-.053-.123-.18-.187-.417-.187-.382 0-.506-.023-1.722-.288-.909-.199-1.505-.288-2.153-.288-.663 0-.91.353-.81.907.08.432.386.913.552.913.097 0 .132-.04.171-.171.074-.247.096-.3.199-.422a1.2 1.2 0 0 1 .46-.317c.381-.16.529-.117.42.07-.085.146-.3.32-.412.32-.033.034-.005.063.039.098a1 1 0 0 0 .146.102l.03.02.01.006.744.3-.252 1.345h-.717c-.081 0-.215-.047-.39-.13a5 5 0 0 1-.357-.191l-.073-.043a.6.6 0 0 0-.075.152c-.074.22-.099.446-.044.657a.8.8 0 0 0 .117.257c.04.058.102.161.161.258.068.11.13.213.149.232.055.057.11.045.255-.063.113-.083.187-.086.267-.026.015.01.054.047.085.075l.039.034a.6.6 0 0 0 .417.142c.19 0 .285.063.305.19.015.093.006.139-.066.448a2 2 0 0 0-.07.48c0 .147-.035.208-.104.165-.045-.028-.102-.11-.172-.236l-.071-.137a7 7 0 0 1-.158-.343c-.05-.01-.073 0-.095.017-.063.049-.102.139-.102.282 0 .466-.038.591-.264.591H8.762v-.93c0-.057 0-.073.002-.086.032-.02.067.024.093.057l.015.018c.106.118.267.138.521-.004.262-.146.198-.394-.106-.687-.234-.226-.601-.45-.708-.45-.068 0-.1-.07-.106-.198a2.4 2.4 0 0 1 .025-.4q.007-.064.018-.143l.003-.017c.036-.267.041-.304.042-.341v-.026c-.07-.016-.12 0-.184.027a4 4 0 0 0-.498.275 10 10 0 0 0-1.124.819 1.9 1.9 0 0 1-.529.338 3 3 0 0 1-.525.158 5 5 0 0 0-.62.168c-.574.197-.915.05-.915-.245 0-.193.59-.621 1.22-.937.15-.075.245-.16.419-.354.366-.406.613-.544 1.156-.544.446 0 .724-.225.873-.62.102-.273.129-.543.129-.933v-.075c.007-.104.053-.205.375-.913l.026-.056a9 9 0 0 0 .179-.414c.144-.36.22-.648.22-.884 0-.297.175-.461.517-.53.259-.052.507-.052 1.176-.022a22 22 0 0 0 .67.02h1.422c.065 0 .132.042.226.13.019.018.073.072.128.13l.144.144c.27.26.517.393.824.393.164 0 .256-.04.29-.114q.04-.096-.034-.26a1.3 1.3 0 0 0-.11-.189 2 2 0 0 0-.146-.189.3.3 0 0 1-.028-.057l-.033-.1a8.7 8.7 0 0 0-.62-1.445 6 6 0 0 0-.276-.458c-.616-.922-.325-1.74.623-1.74.306 0 .457-.044.495-.124.028-.06.008-.118-.083-.296l-.053-.11a.5.5 0 0 1-.043-.177c0-.234.334-.234.99-.017q.224.315 1.484-.256c.63-.284.893-.312 1.185-.187l.1.046.03.013c.196.087.363.127.624.127.402 0 .56.09.668.298l.003.007.02.041c.087.174.162.23.397.23q.65 0 1.063.194c.074.003.109.082.109.228m-1.53 6.804.036-.022-.023-.011q.056-.022.081-.01c.026.011.024.038.003.073l-.01.016-.015-.01-.052-.026zm.074-.002.003-.006q0-.003.002-.003-.006-.003-.02 0zm.004-.01" clip-rule="evenodd"/><path fill="#fff" fill-rule="evenodd" d="m9.042 8.398-.29.011q.002.033.023.051H8.77l-.012-.004a1 1 0 0 0-.235-.022c-.093 0-.273-.01-.4-.018l-.138-.007s-.31.167-.31.11c0-.038.288-.257.288-.257l.004-.001.018-.007.044-.017.062-.023c.122-.04.256-.063.432-.063.326 0 .51.055.518.247m-1.44 4.34-.269-.105-.572.965a1 1 0 0 1-.142.082 3 3 0 0 1-.163.073l-.054.024-.147.062c-.293.122-.777.323-.777.477l.878-.156c0-.036.035-.067.167-.126l.107-.046.12-.055q.1-.049.18-.104c.214-.15.432-.51.673-1.09m-2.858.53q.271-.079.407-.078l.066.007a.04.04 0 0 1-.012-.017l.273-.096c-.082-.222-.355-.222-.817-.088a2 2 0 0 0-.396.153l-.107.063-.037.022c-.012.005-.028.006-.097-.01-.12-.027-.232.053-.345.133-.08.057-.159.114-.241.133 0 0 .724.038.806 0 .018-.008.06-.034.099-.056l.062-.037c.082-.044.188-.086.339-.13m-.247.565-.096-.252-.74.193c-.035 0-.068-.01-.15-.046l-.008-.004c-.24-.104-.402-.102-.61.089l-.045.042c-.092.09-.34.362-.327.349a1 1 0 0 1-.104.095q-.029.018-.034.017l-.335.287c.124 0 .555-.07.685-.206a12 12 0 0 1 .36-.379c.107-.098.147-.098.291-.035l.008.003c.119.052.18.071.269.071.166 0 .427-.065.796-.195l-.283.206c-.495 0-.587.03-.737.29l-.047.074a.2.2 0 0 1-.102.07l-.111.04-.248.087c-.13.049-.236.11-.362.198l-.066.048-.082.059a.3.3 0 0 0-.109.138c-.024.052-.043.091-.117.091l-.633.181c.206 0 .843-.051 1.029-.18l.089-.065.06-.043c.107-.075.193-.124.296-.163a7 7 0 0 1 .224-.079c.066-.023.124-.043.14-.05.1-.04.164-.084.224-.161a1 1 0 0 0 .07-.107.3.3 0 0 1 .073-.102c.054-.043.142-.043.407-.043h.002c.343 0 .574-.17.66-.487l-.28-.072zm1.073-.276.29.002c-.002.416-.765.773-1.116.873l.5-.352zm2.821-4.016.29-.01c-.007-.193-.191-.248-.518-.248a1.3 1.3 0 0 0-.538.103l-.018.007-.003.001s.416.172.56.172q.164 0 .234.022l.013.004h.003a.07.07 0 0 1-.023-.05m.145.485-.29.01q.002.034.023.052l-.004-.001-.012-.004a1 1 0 0 0-.235-.022 1 1 0 0 0-.434.085.3.3 0 0 1-.126.027l-.338.1c-.002 0 .444-.358.464-.365q.052-.018.107-.043a.8.8 0 0 1 .327-.087c.326 0 .51.055.518.248m-.508.506.29-.011c-.008-.193-.192-.247-.518-.247-.176 0-.68.367-.68.367l.054.003a.7.7 0 0 0 .192-.003l.097-.037c.092-.03.194-.047.337-.047a1 1 0 0 1 .247.025l.004.001a.07.07 0 0 1-.023-.051m.217.626-.29.01q.002.034.023.052h-.003l-.013-.005a1 1 0 0 0-.235-.022c-.143 0-.56-.171-.56-.171l.004-.002.018-.006.044-.018.063-.022c.122-.041.255-.064.431-.064.327 0 .51.055.518.248m-.653.506.29-.011c-.008-.192-.192-.247-.518-.247a1.3 1.3 0 0 0-.494.086l-.044.017c-.008.003.097.025.164.04.082.017.108.023-.186-.032l.807.197.004.001a.07.07 0 0 1-.023-.051m.871-2.767c-.33 0-.367.016-.395.08v.002l-.015.031-.004.009a.4.4 0 0 1-.031.055s.012-.46.445-.46h.382v.283z" clip-rule="evenodd"/><path fill="#979797" d="m8.752 8.41-.003-.076-.075.003.003.075zm.29-.012.003.075.075-.003-.003-.075zm-.267.062-.05.057zm-.004 0 .025-.071zm-.012-.004-.022.071zm-.635-.04.004-.075zm-.138-.007v-.075h-.019l-.016.01zm-.022-.147.046.06.177-.135h-.223zm.004-.001-.024-.071zm.018-.007-.026-.07zm.044-.017-.027-.07.054.14zm.062-.023.024.071zm-.759 4.419.027-.07-.059-.024-.032.055zm.27.106.069.028.03-.07-.072-.028zm-.842.86.043.06.013-.009.009-.014zm-.142.08.033.068zm-.108.05-.03-.069zm-.055.024.03.069-.06-.138zm-.054.024.03.068zm-.147.062-.03-.07v.001zm0 0-.03-.069zm0 0 .028.07.002-.001zm0 0-.028-.07h-.001zm-.777.477h-.075v.09l.088-.016zm.878-.156.013.074.062-.011v-.063zm.167-.126-.03-.069zm.051-.023.03.07-.06-.138zm.056-.023-.03-.07zm.12-.055-.033-.068zm.18-.104-.043-.062zm-1.78-.64.009-.074H5.15zm-.406.079.02.071zm.473-.07-.008.074.262.028-.208-.162zm-.012-.018-.025-.07-.072.025.027.071zm.273-.096.025.07.072-.025-.027-.072zm-.817-.088.02.072zm-.396.153.035.066zm-.107.063-.038-.064zm-.037.022-.031-.068zm-.097-.01.017-.073zm-.345.133.044.061zm-.241.133-.018-.073.014.148zm.806 0 .032.068zm.099-.056.038.064zm0 0 .038.064h.001zm0 0-.039-.065zm.062-.037.035.066zm.814-.199-.03.07.07-.133zm0 0-.045.06.007.006.008.003zm-.002 0 .04-.064-.085.124zm-.816.383.07-.027-.023-.063-.065.017zm.096.252-.07.027.034.092.08-.058zm-.836-.059v.075h.01l.009-.002zm-.15-.046.03-.069zm-.008-.004.03-.068zm-.61.089.051.055zm-.045.042.052.054zm-.431.444.042.061zm-.034.017v-.075h-.028l-.02.018zm-.335.287L2 14.546l-.154.132h.203zm1.005-.546.052.054zm.04-.039-.05-.055zm.291-.035.03-.069zm.008.003.03-.069zm1.065-.124.044.061-.07-.131zm-.283.206v.075H4.2l.02-.015zm-.737.29-.065-.037zm-.047.074-.06-.046zm-.102.07-.028-.069zm-.111.04-.025-.071zm0 0 .024.07zm0 0-.025-.071zm-.248.087.027.07zm-.362.198-.044-.061zm-.066.048.044.06zm0 0-.044-.061zm0 0-.045-.06zm0 0 .043.06zm0 0-.045-.06zm-.082.059.043.06zm-.109.138-.067-.032zm-.117.091v-.075h-.01l-.011.003zm-.633.181-.021-.072.02.147zm1.029-.18.043.06zm.089-.065.044.06zm.06-.043-.044-.06zm.296-.163-.027-.07zm.224-.079.024.07zm0 0-.024-.071h-.001zm0 0-.024-.071zm0 0 .023.071h.001zm.14-.05.028.07zm.224-.161.06.046zm.07-.107-.066-.037zm0 0 .065.037zm.073-.102-.047-.059zm.407-.043v.075zm.663-.487.072.02.02-.073-.073-.02zm-.281-.072.019-.073-.035-.009-.028.021zm1.307-.233h.075v-.074l-.075-.001zm-.29-.002v-.075h-.042l-.022.035zm-.827.875-.043-.061.063.133zm.5-.352.043.061.013-.008.008-.013zm3.437-4.55.003.075.075-.003-.003-.075zm-.29.011-.003-.075-.075.003.003.075zm-.66-.195-.023-.07zm-.062.023-.027-.07.055.14zm-.044.017.027.07zm-.018.007.025.07zm-.003.001.028-.069-.014-.006h-.014zm.794.194.022-.072zm.013.004.024-.071zm.003 0 .05-.056zm-.168.445-.003-.075-.075.002.003.076zm.29-.011.003.075.075-.003-.003-.075zm-.267.062.05-.057zm-.004-.001.025-.07zm-.012-.004.021-.072zm-.572.026.024.071zm-.05.018-.026-.07.054.14zm-.047.019.027.07zm-.126.027v-.075h-.01l-.011.003zm-.338.1v.076h.011l.01-.004zm.464-.365.024.071zm.107-.043.03.069zm.627.656.003.075.075-.003-.003-.075zm-.29.01-.003-.074-.075.003.003.075zm-.908.11-.044-.06-.186.135h.23zm.054.003-.005.075zm.192-.003.027.07zm.048-.018-.027-.07.054.14zm.05-.019-.025-.07zm.57-.026-.02.072zm.013.004-.024.071zm.004.001.05-.056zm-.096.586-.003-.075-.075.003.003.075zm.29-.011.003.075.075-.003-.003-.075zm-.267.062.05-.057zm-.003 0-.025.07zm-.013-.005-.021.072zm-.794-.193.028-.07-.014-.005h-.014zm.003-.002.025.071h.002zm0 0-.023-.071h-.003zm0 0 .024.071h.003zm0 0-.024-.07h-.002zm.018-.006.027.07zm.107-.04.024.07zm.586.679.003.075.075-.003-.003-.075zm-.29.01-.003-.074-.075.003.003.075zm-.66-.194-.024-.071zm-.062.023-.027-.07.054.14zm-.044.017.026.07zm.164.04.016-.073zm-.186-.032.014-.074-.031.147zm.795.193-.022.072zm.007.003.024-.072zm.005.001-.024.071zm.004.001.05-.056zm.453-2.738.069.03zm0 .002-.07-.03zm-.015.031.068.033v-.001zm-.004.009.068.032zm-.031.055-.075-.002-.007.257.144-.213zm.827-.46h.075V8.54h-.075zm0 .283v.075h.075v-.075zm-.09-.413.29-.01-.006-.15-.29.01zm.07-.08.002.003-.15.005c.001.041.02.08.048.105zm-.078.126.003.002.007.002.016.002a.075.075 0 0 0 .07-.105.1.1 0 0 0-.019-.027l-.099.113-.008-.01a.07.07 0 0 1-.013-.071.075.075 0 0 1 .073-.05l.015.002q.008.002.004 0zm-.01-.003.01.003.049-.141-.016-.005zm-.213-.018q.162.001.213.018l.043-.143a1 1 0 0 0-.256-.025zm-.404-.018c.126.007.308.018.404.018v-.15c-.09 0-.267-.01-.396-.018zm-.134-.007.134.007.008-.15-.142-.007zm-.385.034c0 .023.009.048.03.066.019.015.039.02.05.02a.2.2 0 0 0 .063-.006 1 1 0 0 0 .118-.044 3 3 0 0 0 .146-.071l.01-.006.002-.001h.001l-.035-.067-.035-.066H7.95l-.003.002-.043.022-.103.05a1 1 0 0 1-.095.036q-.018.003-.008.003c.003 0 .016.002.03.013a.07.07 0 0 1 .023.05zm.363-.256-.045-.06-.001.001-.003.002-.009.007-.133.107a2 2 0 0 0-.142.13l-.016.023a.1.1 0 0 0-.014.046h.15a.1.1 0 0 1-.007.029l.003-.003.026-.027a5 5 0 0 1 .234-.193l.002-.002zm-.02-.072-.007.002-.006.003-.007.004q-.005.002-.017.014a.08.08 0 0 0-.012.078c.013.033.043.042.046.043l.023.003v-.15l.023.004c.003 0 .033.01.046.043a.075.075 0 0 1-.036.095l-.005.003q-.003 0 0 0zm.016-.006-.016.006.048.142.02-.008zm.097.123-.003.001-.02.004c-.074-.05-.043-.139-.037-.142l.005-.002H8l-.04.016.053.14.028-.01.014-.006zh.002l.005-.003c.006-.003.037-.092-.037-.142l-.022.004h-.001v.001h-.001zm.011-.164-.065.024.054.14.06-.022zm.456-.067c-.183 0-.325.023-.456.067l.048.142c.113-.038.239-.06.408-.06zm.593.32a.3.3 0 0 0-.053-.162.3.3 0 0 0-.132-.1 1.1 1.1 0 0 0-.408-.058v.15q.241 0 .349.045a.16.16 0 0 1 .07.052.14.14 0 0 1 .024.078zm-1.811 4.307.27.105.054-.14-.27-.105zm-.48.934.572-.966-.13-.077-.572.966zm-.174.11q.085-.041.152-.087l-.086-.123a1 1 0 0 1-.132.075zm-.11.05.11-.05-.066-.134-.105.047zm-.115-.113h-.001c-.001 0-.039.099.057.139l.002-.001h.002l.005-.003.016-.007.033-.014-.06-.138c-.006.003-.02.01-.032.014zl.002-.001c.096.04.059.138.058.138zm.005.161.054-.023-.06-.138-.055.024zm-.148.063q.089-.036.148-.063l-.061-.137-.145.062zm0 0-.06-.138zm.001 0-.06-.137zm-.002 0-.056-.139zm-.73.408s0-.005.009-.018a.3.3 0 0 1 .045-.047q.068-.056.185-.12a6 6 0 0 1 .491-.223l-.057-.138c-.146.06-.343.143-.505.23-.08.043-.155.089-.211.136a.4.4 0 0 0-.073.078.2.2 0 0 0-.034.102zm.79-.23-.878.156.026.148.878-.156zm.15-.12a1 1 0 0 0-.149.08c-.035.028-.063.064-.063.114h.15c0 .014-.01.017.005.005a.6.6 0 0 1 .118-.063zm.052-.023-.052.022.06.137.051-.022zm.055-.024-.05.021-.004.002h-.001c.013-.004.102.052.06.138h-.001l-.06-.137h-.001c-.042.086.047.142.06.138h.001l.001-.001.005-.002.016-.007.034-.015zm.117-.054-.117.054.06.137.122-.056zm.17-.098q-.074.052-.17.098l.065.135q.105-.05.19-.11zm.646-1.057a5 5 0 0 1-.34.696c-.11.178-.211.295-.306.361l.086.123q.177-.126.347-.405t.352-.718zm-2.382.405c-.101 0-.247.028-.428.08l.042.144q.267-.075.386-.074zm.074.008-.066-.008-.017.15.067.007zm-.09.083q.014.034.036.05l.092-.118.008.008.004.008zm.318-.193-.273.096.05.142.273-.097zm-.771.055q.343-.1.524-.086.089.007.134.039.044.028.068.089l.14-.053a.32.32 0 0 0-.126-.162.43.43 0 0 0-.204-.063c-.15-.012-.346.025-.578.092zm-.382.147c.096-.05.215-.098.382-.147l-.042-.144a2 2 0 0 0-.41.16zm-.103.06.103-.06-.07-.132-.11.065zm-.045.027.02-.01.025-.016-.077-.128-.025.014-.007.004v.001h-.001l.003-.001zm-.144-.005q.05.012.08.015.033.004.064-.01l-.062-.136.01-.004q.006 0 0 0l-.059-.011zm-.285.121a1 1 0 0 1 .157-.1.2.2 0 0 1 .128-.02l.033-.147a.34.34 0 0 0-.224.031c-.065.03-.127.075-.182.114zm-.268.145c.1-.023.192-.09.268-.145l-.088-.122a.7.7 0 0 1-.215.121zm.758-.141q.006-.002-.005 0l-.029.004-.097.005a15 15 0 0 1-.527-.01l-.083-.004-.029-.002h-.001l-.005.075-.003.075h.008l.023.002.084.003.26.01c.095.002.195.003.276 0a2 2 0 0 0 .15-.01.2.2 0 0 0 .04-.012zm.091-.053-.09.053.062.136c.022-.01.07-.039.105-.06zm0 0 .077.129zm0 0 .078.128zm.065-.038-.065.038.077.129q.042-.026.06-.034zm.354-.136a2 2 0 0 0-.354.136l.071.133a1.7 1.7 0 0 1 .325-.125zm.525-.066-.06.138h.001zm-.072.131.002.001.081-.126-.002-.001zm.086-.122v-.001l-.09.12.002.002zm-.93.47.094.252.14-.053-.094-.253zm-.652.239.74-.194-.037-.145-.74.193zm-.199-.05c.08.035.127.052.18.052v-.15c-.017 0-.037-.004-.12-.04zm-.008-.004.008.004.06-.138-.008-.003zm-.529.075c.097-.09.175-.127.25-.136a.54.54 0 0 1 .28.061l.06-.137a.7.7 0 0 0-.357-.073.6.6 0 0 0-.334.174zm-.044.041.044-.041-.101-.11-.047.044zm-.433.243.002-.002.004-.004.008-.005a.14.14 0 0 1 .07-.005c.034.03.042.086.038.098l-.01.016q-.003.005-.001.003l.005-.006.026-.029a17 17 0 0 1 .291-.309l-.104-.107a7 7 0 0 0-.298.315l-.026.03-.007.007-.001.001v.001l-.003.002-.004.006-.006.011c-.004.012.005.068.039.098a.14.14 0 0 0 .07-.005l.008-.005.004-.004.002-.002.001-.001zm-.008.208a1 1 0 0 0 .116-.104l-.108-.104a1 1 0 0 1-.093.085zm-.076.031a.1.1 0 0 0 .028-.005l.016-.006.032-.02-.085-.123-.013.008.002-.001.006-.002.014-.001zm-.286.269.335-.287-.098-.114-.335.287zm.582-.315a.4.4 0 0 1-.12.073 1.7 1.7 0 0 1-.511.11v.15a1.8 1.8 0 0 0 .57-.122.5.5 0 0 0 .17-.107zm.322-.342a6 6 0 0 0-.197.206c-.035.038-.068.073-.09.099l-.028.03-.007.007-.002.003-.002.002v.001q-.002 0-.003.004l-.012.025c.016.066.097.088.114.08l.013-.011-.108-.104.002-.002.011-.008c.017-.009.099.014.114.08l-.014.028v.002H2.79v.001l.007-.008a13 13 0 0 1 .308-.327zm.041-.04-.041.04.104.108.039-.037zm.372-.05a.4.4 0 0 0-.198-.047c-.067.007-.12.048-.174.097l.102.11c.053-.048.074-.057.089-.058.018-.002.047.004.121.036zm.008.004-.008-.003-.06.137.008.004zm.239.065a.5.5 0 0 1-.239-.065l-.06.138a.7.7 0 0 0 .299.077zm.77-.19c-.368.13-.619.19-.77.19v.15c.18 0 .452-.07.82-.199zm-.213.336.283-.205-.088-.121-.283.205zm-.715.268c.072-.127.121-.18.2-.21.088-.035.22-.043.471-.043v-.15c-.244 0-.406.006-.525.052-.128.05-.2.142-.277.276zm-.054.082a1 1 0 0 0 .054-.082l-.13-.075-.042.065zm-.133.094a.4.4 0 0 0 .076-.038.3.3 0 0 0 .057-.056l-.118-.092a.1.1 0 0 1-.024.024.2.2 0 0 1-.047.023zm-.115.04.115-.04-.056-.139-.108.038zm0 0-.05-.141zm0 0-.049-.141zm-.245.087.245-.086-.049-.142c-.08.028-.187.064-.249.088zm-.346.19c.122-.087.223-.144.346-.19l-.053-.14c-.138.051-.25.115-.38.207zm-.065.046.065-.046-.087-.123-.066.048zm0 0-.088-.121zm0 0-.088-.121zm0 0-.089-.12zm-.001.001-.087-.122zm-.082.059c.014-.01.05-.035.082-.06l-.088-.12-.08.057zm-.084.11a.24.24 0 0 1 .084-.11l-.086-.123a.4.4 0 0 0-.133.168zm-.185.133a.18.18 0 0 0 .129-.047c.029-.027.045-.064.056-.086l-.135-.065-.025.043-.004.003-.021.002zm-.613.178.633-.18-.041-.145-.633.181zm.966-.314a.6.6 0 0 1-.186.072 3 3 0 0 1-.288.054 4 4 0 0 1-.512.041v.15c.107 0 .321-.013.532-.042.106-.015.213-.034.305-.058a.8.8 0 0 0 .235-.094zm.088-.064-.088.064.086.123.09-.065zm.06-.043-.06.043.088.122.058-.042zm.313-.172c-.11.041-.202.094-.313.172l.086.123a1.2 1.2 0 0 1 .28-.155zm.226-.08c-.079.027-.173.06-.226.08l.053.14c.05-.019.142-.05.222-.078zm0 0 .05.142zm0 0 .049.142zm.001 0 .047.142zm.136-.048-.137.048.05.142.143-.05zm.193-.138a.4.4 0 0 1-.193.138l.056.14a.56.56 0 0 0 .255-.186zm.063-.098a1 1 0 0 1-.063.098l.118.092a1 1 0 0 0 .075-.115zm0 0 .13.075.001-.001zm.092-.124c-.04.032-.066.08-.091.123l.13.075a.3.3 0 0 1 .054-.08zm.454-.06c-.131 0-.223 0-.29.006a.3.3 0 0 0-.164.054l.093.117c.01-.007.027-.016.085-.021a4 4 0 0 1 .276-.005zm.002 0h-.002v.15h.002zm.588-.43a.57.57 0 0 1-.206.321.63.63 0 0 1-.382.11v.15a.78.78 0 0 0 .471-.14.72.72 0 0 0 .262-.402zm-.227.02.28.072.039-.145-.281-.073zm.006.029.057-.042-.088-.12-.058.04zm1.32-.41-.29-.002-.001.15.29.002zm-1.097 1.02c.182-.051.468-.169.71-.327.121-.08.234-.17.318-.272a.55.55 0 0 0 .144-.345l-.15-.002q-.001.122-.11.251c-.07.086-.17.168-.284.242-.228.15-.5.26-.669.309zm.437-.485-.5.352.086.122.5-.352zm.306-.502-.327.523.128.08.326-.523zm3.172-4.062-.29.011.005.15.29-.01zm-.516-.097q.242 0 .35.045a.16.16 0 0 1 .07.052.14.14 0 0 1 .023.078l.15-.006a.3.3 0 0 0-.052-.16.3.3 0 0 0-.132-.101 1.1 1.1 0 0 0-.409-.058zm-.407.06c.113-.039.238-.06.407-.06v-.15c-.183 0-.325.023-.455.067zm-.06.021.06-.021-.048-.143-.066.024zm-.044.018.027-.011.014-.005.004-.002.003-.001.004-.002c.005-.003.036-.092-.038-.142l-.02.004h-.002l-.001.001.054.14h-.002l-.002.001-.02.004c-.074-.05-.043-.139-.037-.142L7.64 9.3h.001-.003l-.039.016zm-.02.007.02-.007-.053-.14-.016.005zm-.028-.145.023.004c.003 0 .032.01.046.043a.08.08 0 0 1-.013.077q-.012.013-.016.015l-.012.006q-.004 0 0 0l-.049-.142-.007.002a.075.075 0 0 0-.042.099c.014.033.043.042.046.043l.024.003zm.56.172a.6.6 0 0 1-.129-.024 5 5 0 0 1-.398-.14l-.004-.002-.03.07-.028.069h.001l.004.002.014.005a5 5 0 0 0 .402.14c.06.017.12.03.167.03zm.256.025a1 1 0 0 0-.257-.025v.15q.163.001.214.019zm.015.005-.015-.005-.043.144.009.003zm-.07.128q-.002 0-.009-.01a.075.075 0 0 1 .035-.117l.025-.004.015.002q.01.002.004 0l-.049.143h.003l.008.003.015.002a.075.075 0 0 0 .06-.122q-.005-.01-.008-.01zm-.049-.105a.15.15 0 0 0 .049.105l.098-.113.003.003zm-.068.567.29-.01-.005-.15-.29.01zm.07-.08.003.003-.15.006c.001.04.02.08.048.104zm-.077.127h.003l.007.003a.076.076 0 0 0 .089-.048.08.08 0 0 0-.022-.082l-.099.113-.008-.009-.01-.017a.075.075 0 0 1 .085-.103l.004.001zm-.01-.003.01.003.049-.142-.016-.005zm-.213-.019q.162.002.213.019l.043-.144a1 1 0 0 0-.256-.025zm-.313.044a1 1 0 0 1 .313-.044v-.15c-.15 0-.26.018-.36.052zm-.046.017.046-.017-.048-.142-.052.02zm-.048.02.031-.013.014-.006.004-.001.002-.001.003-.001.014-.009c.026-.077-.048-.134-.063-.132l-.007.002h-.003v.001h-.001l.054.14h-.002l-.001.001-.007.002c-.014.002-.09-.055-.062-.132l.016-.01h.001-.003l-.014.006-.029.012zm-.153.03a.4.4 0 0 0 .153-.03l-.053-.141a.3.3 0 0 1-.1.022zm-.317.098.339-.1-.043-.144-.338.1zm.42-.508q-.016.006-.019.009l-.028.02-.057.043a18 18 0 0 0-.38.303l-.005.004-.002.002-.004.004q-.002 0-.009.01a.1.1 0 0 0-.012.036c.005.033.048.075.075.08v-.15c.027.006.07.048.075.082a.1.1 0 0 1-.012.035q-.007.01-.009.01l-.003.004H7.17l.003-.002.013-.01.205-.165.227-.177.002-.001-.002.001-.01.004zm.1-.04a1 1 0 0 1-.1.04l.047.142c.038-.012.077-.03.113-.045zm.357-.094c-.144 0-.263.053-.357.093l.06.138a.7.7 0 0 1 .297-.08zm.593.32a.3.3 0 0 0-.053-.161.3.3 0 0 0-.132-.101 1.1 1.1 0 0 0-.408-.058v.15q.241-.001.349.046a.16.16 0 0 1 .07.05.14.14 0 0 1 .024.08zm-.296.423-.29.01.005.15.29-.01zm-.515-.097q.241 0 .349.045a.16.16 0 0 1 .07.051.14.14 0 0 1 .024.079l.15-.006a.3.3 0 0 0-.053-.161.3.3 0 0 0-.132-.1 1.1 1.1 0 0 0-.408-.058zm-.68.292.044.06h.001l.005-.003.015-.012.06-.04a3 3 0 0 1 .407-.247.4.4 0 0 1 .148-.05v-.15a.6.6 0 0 0-.213.064 3 3 0 0 0-.233.13 5 5 0 0 0-.255.171l-.017.012-.005.003v.001h-.001zm.06-.072-.06-.003v.15l.05.003zm.16.002-.016.002-.042.001q-.052-.001-.103-.005l-.01.15a2 2 0 0 0 .168.003.2.2 0 0 0 .056-.01zm.101.122h-.003l-.006.002c-.015.002-.09-.055-.063-.132l.013-.008.002-.001h.001l.001-.001-.003.001-.014.005-.029.012.053.14.031-.012.014-.005zh.002v-.001l.003-.001.013-.008c.027-.078-.048-.135-.062-.133l-.007.002-.001.001h-.001zm-.002-.16-.052.02.054.14.046-.018zm.36-.051a1.1 1.1 0 0 0-.36.051l.048.143a1 1 0 0 1 .313-.044zm.257.024a1 1 0 0 0-.256-.024v.15a1 1 0 0 1 .213.018zm.016.005-.016-.005-.043.144.01.003zm-.07.129-.01-.01-.01-.017a.075.075 0 0 1 .071-.104l.015.001.004.002-.05.141.004.001.007.002.016.002a.08.08 0 0 0 .073-.05.08.08 0 0 0-.013-.072l-.009-.01zm-.05-.105c.002.04.02.08.05.104l.098-.112.003.002zm.006.709.29-.011-.005-.15-.29.01zm.07-.08.002.002-.15.006c.002.04.02.08.049.104zm-.078.126h.003l.008.003.015.002a.08.08 0 0 0 .073-.05.08.08 0 0 0-.012-.072l-.01-.01-.098.113-.009-.009-.01-.017a.075.075 0 0 1 .07-.105l.015.002.004.001zm-.01-.003.01.003.05-.142-.016-.005zm-.213-.019a1 1 0 0 1 .214.019l.043-.144a1 1 0 0 0-.257-.025zm-.56-.246-.028.069h.001l.004.002a4 4 0 0 0 .225.085c.062.022.129.044.19.06.06.017.121.03.168.03v-.15a.6.6 0 0 1-.128-.024 5 5 0 0 1-.398-.14l-.004-.001zm-.02-.073-.007.003-.006.002-.007.004q-.005.002-.017.015a.08.08 0 0 0-.012.078c.014.032.043.041.046.042l.024.004v-.15h.006l.017.003c.003.001.032.01.046.043a.08.08 0 0 1-.013.077q-.012.013-.016.015l-.007.004-.005.002q-.004 0 0 0zm-.002 0 .053.141zm.003 0 .047.142zm-.003 0 .053.141zm.018-.006-.016.006.049.142.02-.007zm.098.123H7.26l-.001.001h-.002l-.02.004c-.074-.05-.042-.139-.037-.141l.004-.002h.001v-.001q.002 0 0 0l-.003.001-.039.015.053.14c.005 0 .017-.006.028-.01l.013-.005zh.001l.002-.001.004-.002c.005-.003.036-.092-.038-.142l-.021.005h-.002zm.01-.163-.065.024.055.14.059-.022zm.456-.068a1.4 1.4 0 0 0-.455.068l.048.142c.113-.038.238-.06.407-.06zm.593.32a.3.3 0 0 0-.052-.161.3.3 0 0 0-.132-.101 1.1 1.1 0 0 0-.409-.058v.15q.242-.001.35.046a.16.16 0 0 1 .07.051.14.14 0 0 1 .024.079zm-.44.423-.291.011.005.15.29-.011zm-.516-.097q.241 0 .349.045a.16.16 0 0 1 .07.051.14.14 0 0 1 .024.079l.15-.006a.3.3 0 0 0-.053-.161.3.3 0 0 0-.132-.1 1.1 1.1 0 0 0-.408-.058zm-.408.06c.113-.039.239-.06.408-.06v-.15c-.183 0-.325.023-.456.067zm-.059.02.06-.02-.049-.143-.065.024zm-.045.018.028-.01.014-.006.003-.001H6.9v-.001h.002l.003-.002c.006-.003.037-.092-.038-.142l-.02.004h-.003l.054.14v.001h-.001l-.002.001-.02.004c-.074-.05-.043-.14-.037-.142l.003-.002h.002-.003l-.013.006-.026.01zm.154-.104-.147-.033h-.002l.005.002.015.01c.002.003.031.029.022.071s-.044.053-.047.054l-.052-.14a.07.07 0 0 0-.048.055.075.075 0 0 0 .048.086l.019.007.044.01c.034.009.078.018.111.025zm-.216.116.236.043.008.001.009.001h.007q.005.002.024-.006a.076.076 0 0 0 .04-.098.08.08 0 0 0-.049-.043l-.004-.001-.007-.002-.048-.01-.032.146.05.011h-.001l-.003-.001-.004-.002-.01-.005a.1.1 0 0 1-.03-.035.075.075 0 0 1 .039-.098l.024-.006h.014-.003l-.232-.043zm.83.047-.418-.102-.262-.064-.086-.02-.024-.006-.006-.002h-.002l-.018.073-.017.073h.002l.006.002.024.006.085.02.673.164zm.01.003-.01-.003-.043.144.006.002zm.006.002-.006-.002-.047.143.004.001zm-.07.128q-.002 0-.01-.009l-.01-.016a.075.075 0 0 1 .071-.105q.013 0 .015.002c.004 0 .008.002.004 0l-.05.142.004.001.007.002.016.002a.08.08 0 0 0 .073-.05.08.08 0 0 0-.013-.072l-.009-.01zm-.05-.104c.002.04.02.08.05.104l.098-.112.003.002zm.62-2.66.006-.01v-.002c.001 0 .006-.004.027-.008.044-.01.128-.015.294-.015v-.15a2 2 0 0 0-.327.018.2.2 0 0 0-.089.04.2.2 0 0 0-.048.067zm0 .002v-.002L8 8.947v.002zm-.015.033.015-.033-.138-.06-.012.029zm-.004.01.004-.01-.135-.065-.004.009zm-.037.064.037-.065-.135-.065-.027.046zm.383-.577a.5.5 0 0 0-.295.086.5.5 0 0 0-.157.186.7.7 0 0 0-.068.253v.007l.075.003.075.002V9.06a.5.5 0 0 1 .052-.183.34.34 0 0 1 .109-.13.36.36 0 0 1 .21-.059zm.296 0h-.296v.15h.296zm0 .15h.086v-.15h-.086zm.086 0v-.15zm-.075-.075v.283h.15v-.283zm.075.208h-.086v.15h.086zm-.382.15h.296v-.15h-.296z"/><path fill="#fff" fill-rule="evenodd" stroke="#979797" stroke-width=".15" d="M20.412 3.608s-.411-.194-1.059-.194-.155-.577-1.088-.577-.655-.577-1.931 0-1.497.257-1.497.257-.967-.32-.967 0 .599.724-.334.724c-.932 0-1.216.802-.608 1.713.608.91.942 2.043.942 2.043s.726.797 0 .797-1.065-.797-1.322-.797h-1.422c-1.124 0-1.724-.496-2.547.666s-.598 1.781-.598 2.19c0 .408-.007 1.57-1.02 1.57-1.012 0-1.354.676-1.885.942-.532.266-.891.673-.891.876s.226.456.89.228c.666-.228 1.114-.172 1.668-.66.555-.49 1.836-1.33 1.836-1.108 0 .223-.202 1.107 0 1.107s1.445.823.823 1.17c-.621.349-.621-.347-.621 0v.912h1.548c.246 0 .246-.235.246-.573s.218-.338.218-.338.484 1.164.484.59c0-.573.4-1.1-.151-1.1s-.487-.457-.797-.228c-.31.228-.257.056-.592-.433-.335-.488 0-1.107 0-1.107s.62.379.838.379h.702l.246-1.316-.73-.296s-.436-.26-.218-.26.838-.71 0-.355c-.838.354-.503.91-.838.91s-1.27-1.855.258-1.855 2.933.576 3.875.576.065 1.02.641 1.28 1.69.66 2.374.66c.22.178.337 1.384 1.014 1.384.678 0-.365-1 0-1.384.366-.384 1.454 0 1.454 0s.235-.66-.426-.66c-.267 0-.695-.079-.662-.186.05-.16.944-.737.811-.511 0 0-.692-.402-1.177 0-.484.401.286.51-.734.51s-1.04-.155-1.04-.51.575-2.31.488-2.643c-.088-.333.484.166 1.278.239.793.072 1.462-.666 1.462-.666s.617.904 1.059.666c.441-.239.804-.42.804-.543s.427-.472.287-.62c-.14-.146-.163-.864-.39-.432-.227.433-1.268-.38-1.374-.248-.106.133-.119.458-.509.458s-.531.236-1.513.118-.789-.14-1.383-.576-.916-.631-.916-.866.498-.774.707-.46c.209.312.076.46.605.46.528 0 1.535-.061 1.535.215 0 .277.07.903.44.777.371-.126 1.082-.689.222-.992s-1.323-.926-.662-.926c.662 0 .702.192 1.088.192s.834.053.834-.276.32-.493.32-.703-.095-.21-.095-.21Z" clip-rule="evenodd"/><path fill="#000" fill-rule="evenodd" d="M19.084 3.422V3.41a.215.215 0 0 0-.217-.212.215.215 0 0 0-.218.212c0 .093.06.172.145.2a.215.215 0 0 1 .218-.2q.038 0 .072.012m-.816.624a.2.2 0 0 1-.055-.14.215.215 0 0 1 .235-.212.22.22 0 0 0-.163-.071.215.215 0 0 0-.218.212c0 .111.088.203.2.211" clip-rule="evenodd"/><path fill="#fff" fill-rule="evenodd" stroke="#979797" stroke-width=".15" d="M9.638 16.43c.442 0 .8-.333.8-.744 0-.41-.358-.743-.8-.743-.441 0-.8.333-.8.743s.359.743.8.743Zm1.599-3.821c.441 0 .8-.333.8-.743s-.359-.743-.8-.743-.8.332-.8.743c0 .41.358.742.8.742Zm7.448.778a.914.914 0 0 0 .909-.92.914.914 0 0 0-.909-.92.914.914 0 0 0-.908.92c0 .508.406.92.908.92Z" clip-rule="evenodd"/></g></g><rect width="23" height="17" x=".5" y=".5" stroke="#000" stroke-opacity=".1" rx="1.5"/><defs><clipPath id="a"><rect width="24" height="18" fill="#fff" rx="2"/></clipPath></defs></svg>