<svg xmlns="http://www.w3.org/2000/svg" fill="none" viewBox="0 0 24 18"><g fill-rule="evenodd" clip-path="url(#a)" clip-rule="evenodd"><path fill="#F7FCFF" d="M12 0h12v18H12V0Z"/><path fill="#36A400" d="M0 0h12v18H0V0Z"/><path fill="red" d="M13.343 5.096a4.52 4.52 0 0 1 2.983 1.117 5.515 5.515 0 1 0 0 6.842 4.538 4.538 0 1 1-2.982-7.96Zm2.115 2.062-1.277 1.447-1.833-.506 1.016 1.59-1.017 1.694 1.924-.693 1.052 1.642v-1.906l1.718-.736-1.718-.616.135-1.916Z"/></g><path stroke="#000" stroke-opacity=".1" stroke-width=".5" d="M.25.25h23.5v17.5H.25z"/><defs><clipPath id="a"><path fill="#fff" d="M0 0h24v18H0z"/></clipPath></defs></svg>