<svg xmlns="http://www.w3.org/2000/svg" fill="none" viewBox="0 0 24 18"><g clip-path="url(#a)"><path fill="#19BFBF" d="M0 0h24v18H0z"/><path fill="#fff" fill-rule="evenodd" d="m14.622 15.307-.852-.851a.3.3 0 0 1-.08-.13l-.482-1.445a.286.286 0 0 0-.548.16l.437 1.747a.33.33 0 0 1-.088.317l-.202.202a.333.333 0 0 1-.471 0l-.238-.238a.33.33 0 0 1-.098-.236v-.926a.3.3 0 0 0-.035-.149l-.444-.888a.33.33 0 0 0-.298-.184h-1.43a.3.3 0 0 0-.149.035l-.949.474a.33.33 0 0 0-.167.193l-.484 1.452a.33.33 0 0 1-.167.193l-.87.435a.33.33 0 0 1-.299 0l-.81-.405a.33.33 0 0 1-.184-.298V13.02c0-.184.15-.333.334-.333h1.047c.184 0 .334-.15.334-.334v-.755q0-.055.017-.105l.478-1.436a.33.33 0 0 1 .316-.227h.824a.3.3 0 0 0 .15-.036l1.001-.5a.3.3 0 0 1 .15-.036h.73c.184 0 .334-.15.334-.333v-.1c0-.089.035-.173.097-.236l.147-.147a.333.333 0 0 1 .534.087l.272.545a.33.33 0 0 0 .299.184h1.268c.143 0 .27-.092.316-.228l.42-1.258a.33.33 0 0 1 .316-.228h.616a.286.286 0 1 0 0-.572h-.524a.333.333 0 0 1-.333-.333v-.73q0-.08.035-.15l.43-.857a.33.33 0 0 0-.063-.385l-.166-.166a.333.333 0 0 0-.472 0l-.809.81a.33.33 0 0 0-.098.235v.95a.3.3 0 0 1-.017.106l-.478 1.435a.33.33 0 0 1-.316.228h-.193a.33.33 0 0 1-.236-.097l-.392-.392a.28.28 0 0 1-.082-.2.28.28 0 0 0-.407-.251l-.52.26a.33.33 0 0 1-.386-.062l-.304-.304a.33.33 0 0 1-.097-.236v-.866c0-.089.035-.174.097-.236l1.046-1.045 1.658-1.659a.3.3 0 0 1 .13-.08l1.589-.53a.3.3 0 0 1 .105-.017h.883c.126 0 .242.071.298.184l.444.888a.3.3 0 0 1 .035.15v1.497c0 .088.036.173.098.236l.328.328c.09.09.12.221.08.341l-.425 1.277c-.047.143.006.3.131.383l1.503 1.002.805.402c.18.09.24.316.128.483l-.877 1.316a.33.33 0 0 0-.056.185v1.373a.335.335 0 0 1-.228.317l-1.355.451a.33.33 0 0 0-.193.168l-.486.97a.3.3 0 0 1-.062.087l-.87.87a.333.333 0 0 1-.47 0m-4.908-.335a.571.571 0 1 0 0-1.143.571.571 0 0 0 0 1.143M8 7.542a.571.571 0 1 1-1.143 0 .571.571 0 0 1 1.143 0" clip-rule="evenodd"/><path fill="#fff" fill-rule="evenodd" d="M8.536 7.499a.3.3 0 0 0 .035-.15v-.413a.3.3 0 0 0-.035-.15l-.295-.59a.333.333 0 0 1 .298-.482h.27c.185 0 .334.15.334.334V7.35q0 .079.035.149l.295.59a.333.333 0 0 1-.298.482h-.636a.333.333 0 0 1-.298-.482z" clip-rule="evenodd"/></g><rect width="23" height="17" x=".5" y=".5" stroke="#000" stroke-opacity=".1" rx="1.5"/><defs><clipPath id="a"><rect width="24" height="18" fill="#fff" rx="2"/></clipPath></defs></svg>