<svg xmlns="http://www.w3.org/2000/svg" fill="none" viewBox="0 0 24 18"><g clip-path="url(#a)"><mask id="b" width="24" height="18" x="0" y="0" maskUnits="userSpaceOnUse" style="mask-type:luminance"><path fill="#fff" d="M0 0h24v18H0z"/></mask><g mask="url(#b)"><path fill="#2E42A5" fill-rule="evenodd" d="M0 0v18h24V0z" clip-rule="evenodd"/><mask id="c" width="24" height="18" x="0" y="0" maskUnits="userSpaceOnUse" style="mask-type:luminance"><path fill="#fff" fill-rule="evenodd" d="M0 0v18h24V0z" clip-rule="evenodd"/></mask><g mask="url(#c)"><path fill="#FECA00" fill-rule="evenodd" d="M0 0v9h24V0z" clip-rule="evenodd"/><path fill="#E31D1C" fill-rule="evenodd" d="M0 13.5V18h24v-4.5z" clip-rule="evenodd"/><path fill="#7B2900" fill-rule="evenodd" d="M7.288 4.286s3.117-1.409 3.4-1.249c.284.16.352.616.597.616s.737-.144.942-.144c.206 0 .41.144.41.144h.877v-.488l3.981 1.12s-2.322.304-2.497.304 0 .25 0 .25-.33-.25-.835-.25-1.527.521-1.527.521l.372.8-.372.235-.409-.235s.027-.658-.15-.658c-.175 0-.304.422-.304.658 0 .235-.488.235-.488.235l.218-.44s.217-.73-.218-.73-2.419-.386-2.419-.386l-.507.25.181-.553z" clip-rule="evenodd"/><path fill="#E31D1C" fill-rule="evenodd" d="M8.626 11.83c-.487-1.093 0-3.515 0-3.515l.945.496c-.112.565-.13 1.633.224 2.507s1.692 1.562 1.692 1.562.675.15-.35.259c-1.026.108-2.025-.215-2.511-1.308m2.424 4.307c-.305 0 .61-2.031.61-2.031l.281-.565s.035 2.392-.159 2.596c-.123.132-.264.095-.43.051-.093-.024-.193-.05-.302-.05" clip-rule="evenodd"/><path fill="#2E42A5" fill-rule="evenodd" d="M7.745 11.474c-.407-1.633.229-3.85.229-3.85l.64.457c-.094.844-.094 3.027.447 3.973s2.915 1.344 2.915 1.344-.468.346-1.327.508-2.496-.8-2.904-2.432m2.722 4.439.377-1.344.53-.65h.382s-.537 2.31-.912 2.31c-.244 0-.171-.133-.09-.282.043-.08.09-.164.09-.234 0-.2-.377.2-.377.2" clip-rule="evenodd"/><path fill="#FECA00" fill-rule="evenodd" d="M7.124 11.753c-.203-1.405.202-4.763.202-4.763l.64.457c-.29.814-.2 3.148 0 4.306.2 1.159 2.089 1.858 2.089 1.858s-.468.346-1.327.508c-.86.162-1.402-.96-1.604-2.366m3.141 2.809c-.364 0 .159-.523.159-.523h.872s-.298.738-.667.738c-.184 0-.184-.054-.183-.108 0-.054 0-.107-.181-.107" clip-rule="evenodd"/><path fill="#E31D1C" fill-rule="evenodd" d="M15.275 11.83c.486-1.093 0-3.515 0-3.515l-.946.496c.112.565.13 1.633-.224 2.507s-1.691 1.562-1.691 1.562-.675.15.35.259c1.025.108 2.024-.215 2.51-1.308m-2.424 4.307c.304 0-.61-2.031-.61-2.031l-.282-.565s-.034 2.392.159 2.596c.124.132.265.095.43.051.093-.024.193-.05.303-.05" clip-rule="evenodd"/><path fill="#2E42A5" fill-rule="evenodd" d="M16.155 11.474c.408-1.633-.228-3.85-.228-3.85l-.64.457c.094.844.094 3.027-.448 3.973-.54.946-2.915 1.344-2.915 1.344s.469.346 1.327.508c.86.162 2.497-.8 2.904-2.432m-2.722 4.439-.376-1.344-.53-.65h-.382s.537 2.31.912 2.31c.243 0 .17-.133.09-.282-.044-.08-.09-.164-.09-.234 0-.2.376.2.376.2" clip-rule="evenodd"/><path fill="#FECA00" fill-rule="evenodd" d="M16.777 11.753c.202-1.405-.202-4.763-.202-4.763l-.64.457c.289.814.2 3.148 0 4.306-.2 1.159-2.09 1.858-2.09 1.858s.469.346 1.328.508 1.402-.96 1.604-2.366m-3.142 2.809c.365 0-.159-.523-.159-.523h-.872s.299.738.667.738c.185 0 .184-.054.184-.108s-.001-.107.18-.107" clip-rule="evenodd"/><path fill="#6FAE21" d="m7.652 7.835.069-.415 1.2.078-.91-.943.307-.292L9.55 7.539l-1.054-1.98.365-.217.958 1.41-.457-1.465.393-.157 1.474 2.94-.565-.036.055.177.482.128-.11.407-.223-.059.208.669-.362-.533.63 1.185-1.549-1.605zm8.793 0-.069-.415-1.2.078.91-.943-.307-.292-1.231 1.276 1.053-1.98-.364-.217-.96 1.41.458-1.465-.393-.157-1.474 2.94.565-.036-.055.177-.482.128.11.407.223-.059-.208.669.362-.533-.63 1.185 1.55-1.605z"/><path fill="#171401" d="m8.3 15.983-.31-.289 9.144-9.626.309.29z"/><path fill="#CECECC" fill-rule="evenodd" d="m16.901 6.142.47.442.263-.73zm-8.369 9.839-.538-.354-.175.726z" clip-rule="evenodd"/><path fill="#171401" d="m7.62 14.549-.31-.29 9.143-9.625.31.289z"/><path fill="#CECECC" fill-rule="evenodd" d="m16.221 4.708.469.442.264-.731zm-8.369 9.839-.538-.354-.175.726z" clip-rule="evenodd"/><path fill="#171401" d="m15.94 15.983.31-.289-9.143-9.626-.31.29z"/><path fill="#CECECC" fill-rule="evenodd" d="m7.339 6.142-.469.442-.264-.73zm8.369 9.839.539-.354.174.726z" clip-rule="evenodd"/><path fill="#171401" d="m16.79 14.887.31-.29-9.143-9.626-.31.29z"/><path fill="#CECECC" fill-rule="evenodd" d="m8.189 5.045-.469.442-.264-.73zm8.369 9.84.539-.354.174.725z" clip-rule="evenodd"/><path fill="#B74E01" d="M10.25 12.281h3.4v1.688h-3.4z"/><path fill="#7DB8FF" stroke="#FECA00" stroke-width=".5" d="M11.96 5.778c.704 0 1.303.452 1.715 1.105.413.657.66 1.548.66 2.52 0 .971-.247 1.863-.66 2.52-.412.652-1.01 1.105-1.714 1.105-.703 0-1.303-.453-1.714-1.106-.413-.656-.661-1.548-.661-2.52 0-.971.248-1.862.661-2.519.411-.653 1.01-1.105 1.714-1.105Z"/><mask id="d" width="6" height="9" x="9" y="5" maskUnits="userSpaceOnUse" style="mask-type:luminance"><path fill="#fff" stroke="#fff" stroke-width=".5" d="M11.96 5.778c.704 0 1.303.452 1.715 1.105.413.657.66 1.548.66 2.52 0 .971-.247 1.863-.66 2.52-.412.652-1.01 1.105-1.714 1.105-.703 0-1.303-.453-1.714-1.106-.413-.656-.661-1.548-.661-2.52 0-.971.248-1.862.661-2.519.411-.653 1.01-1.105 1.714-1.105Z"/></mask><g fill-rule="evenodd" clip-rule="evenodd" mask="url(#d)"><path fill="#6FAE21" d="M9.66 9.457h1.209s.831.185.416.33c-.416.144-.416.192-.416.399v1.124c0 .162.296.508-.328.508-.623 0-1.16-2.562-1.16-2.562zm4.724.14s-1.123.221-1.892.148a11 11 0 0 1-1.108-.148s.537.279.727.512c.19.234.581.638.979.638s1.008.378 1.008.378z"/><path fill="#F7FCFF" d="M9.99 7.602s.925.179 1.148.447-.294.536 1.055.268 2.42-.736 2.42 0c0 .735-.118 1.412-.698 1.412h-2.583c-1.771 0-2.736.542-2.612-.33.124-.87 1.27-1.797 1.27-1.797"/></g></g></g></g><rect width="23" height="17" x=".5" y=".5" stroke="#000" stroke-opacity=".1" rx="1.5"/><defs><clipPath id="a"><rect width="24" height="18" fill="#fff" rx="2"/></clipPath></defs></svg>