<svg xmlns="http://www.w3.org/2000/svg" fill="none" viewBox="0 0 24 18"><g clip-path="url(#a)"><mask id="b" width="24" height="18" x="0" y="0" maskUnits="userSpaceOnUse" style="mask-type:luminance"><path fill="#fff" d="M0 0h24v18H0z"/></mask><g fill-rule="evenodd" clip-rule="evenodd" mask="url(#b)"><path fill="#F7FCFF" d="M6 0h12v18H6V0Z"/><path fill="#E31D1C" d="m11.982 5.25.018 9h-.45l.276-2.227c-2.017.363-2.943.453-2.776.27.167-.183.298-.443.394-.779L6.75 9.716a1.51 1.51 0 0 0 .77-.21c.231-.138.116-.613-.345-1.426l1.36.198.515-.56 1.026 1.075h.462l-.462-2.46.827.461 1.08-1.544Zm0 0 1.115 1.544.827-.461-.462 2.46h.462l1.026-1.074.515.56 1.36-.199c-.461.813-.576 1.288-.346 1.426.23.137.488.207.771.21l-2.694 1.798c.096.336.227.596.394.779.167.183-.759.093-2.776-.27l.276 2.227H12l-.018-9ZM18 0h6v18h-6V0ZM0 0h6v18H0V0Z"/></g></g><path stroke="#000" stroke-opacity=".1" stroke-width=".5" d="M.25.25h23.5v17.5H.25z"/><defs><clipPath id="a"><path fill="#fff" d="M0 0h24v18H0z"/></clipPath></defs></svg>