<svg xmlns="http://www.w3.org/2000/svg" fill="none" viewBox="0 0 24 18"><g clip-path="url(#a)"><mask id="b" width="24" height="18" x="0" y="0" maskUnits="userSpaceOnUse" style="mask-type:luminance"><path fill="#fff" d="M0 0h24v18H0z"/></mask><g mask="url(#b)"><path fill="#5EAA22" stroke="#F7FCFF" stroke-width="2" d="M0-1h-1v20h26V-1H0Z"/><path fill="#FECA00" fill-rule="evenodd" d="M0 4.5v3h24v-3H0Zm0 6v3h24v-3H0Z" clip-rule="evenodd"/><path fill="#F50101" d="M0 0h12v10.5H0z"/><path fill="#F7FCFF" fill-rule="evenodd" d="m6.188 7.608-2.79 1.726 1.083-2.897L2.25 4.484h2.736l1.202-2.887.917 2.887h2.702L7.91 6.437l.934 2.755-2.655-1.584Z" clip-rule="evenodd"/></g></g><path stroke="#000" stroke-opacity=".1" stroke-width=".5" d="M.25.25h23.5v17.5H.25z"/><defs><clipPath id="a"><path fill="#fff" d="M0 0h24v18H0z"/></clipPath></defs></svg>