<svg xmlns="http://www.w3.org/2000/svg" fill="none" viewBox="0 0 24 18"><g clip-path="url(#a)"><mask id="b" width="24" height="18" x="0" y="0" maskUnits="userSpaceOnUse" style="mask-type:luminance"><path fill="#fff" d="M0 0h24v18H0z"/></mask><g mask="url(#b)"><path fill="#3D58DB" fill-rule="evenodd" d="M0 0v18h24V0H0Z" clip-rule="evenodd"/><mask id="c" width="24" height="18" x="0" y="0" maskUnits="userSpaceOnUse" style="mask-type:luminance"><path fill="#fff" fill-rule="evenodd" d="M0 0v18h24V0H0Z" clip-rule="evenodd"/></mask><g mask="url(#c)"><path fill="#579D20" fill-rule="evenodd" d="M0 18h24V0L0 18Z" clip-rule="evenodd"/><path fill="#FECA00" d="m-.586 18.559-1.353-1.872L25.256-1.466 26.61.406-.586 18.56Z"/><path fill="#F7FCFF" fill-rule="evenodd" d="m2.74 4.91 1.023-.71 1.07.638-.374-1.143.749-.818H4.193l-.43-1.201-.43 1.2-1.017.043.75.776L2.74 4.91Zm4.244 0 1.022-.71 1.071.638-.375-1.143.75-.818H8.435l-.43-1.201-.43 1.2-1.016.043.75.776-.326 1.215Z" clip-rule="evenodd"/><path fill="#F7FCFF" fill-rule="evenodd" d="m4.986 7.09 1.023-.708 1.07.637-.374-1.143.749-.818H6.439l-.43-1.202-.43 1.202-1.017.042.75.776-.326 1.215ZM3.763 8.7l-1.023.71.327-1.215-.751-.776 1.017-.042.43-1.202.43 1.202h1.015l-.75.818.376 1.143-1.071-.637Zm4.243 0-1.022.71.326-1.215-.75-.776 1.016-.042.43-1.202.43 1.202h1.015l-.749.818.375 1.143-1.07-.637Z" clip-rule="evenodd"/></g></g></g><path stroke="#000" stroke-opacity=".1" stroke-width=".5" d="M.25.25h23.5v17.5H.25z"/><defs><clipPath id="a"><path fill="#fff" d="M0 0h24v18H0z"/></clipPath></defs></svg>