<svg xmlns="http://www.w3.org/2000/svg" fill="none" viewBox="0 0 24 18"><g clip-path="url(#a)"><mask id="b" width="24" height="18" x="0" y="0" maskUnits="userSpaceOnUse" style="mask-type:luminance"><path fill="#fff" d="M0 0h24v18H0z"/></mask><g mask="url(#b)"><path fill="#F7FCFF" fill-rule="evenodd" d="M0 0v18h24V0z" clip-rule="evenodd"/><mask id="c" width="24" height="18" x="0" y="0" maskUnits="userSpaceOnUse" style="mask-type:luminance"><path fill="#fff" fill-rule="evenodd" d="M0 0v18h24V0z" clip-rule="evenodd"/></mask><g mask="url(#c)"><path fill="#E31D1C" fill-rule="evenodd" d="M0 0v6h24V0z" clip-rule="evenodd"/><path fill="#3D58DB" fill-rule="evenodd" d="M0 12v6h24v-6z" clip-rule="evenodd"/><path fill="#E31D1C" d="M7.558 4.798h8.55v3h-8.55z"/><path fill="#F7FCFF" stroke="#E31D1C" stroke-width="1.125" d="M15.447 6.86c.01.587.015 1.512.015 2.41 0 .626-.001 1.229-.003 1.675 0 .222-.002.406-.003.534v.158l-.016.078a4 4 0 0 1-.59 1.375c-.497.726-1.402 1.48-3.113 1.48-1.708 0-2.565-.752-3.02-1.468a3.7 3.7 0 0 1-.52-1.368q-.01-.06-.012-.087l-.001-.01v-.02l-.002-.148-.006-.531-.02-1.666c-.01-.881-.018-1.807-.023-2.411z"/><mask id="d" width="10" height="10" x="7" y="6" maskUnits="userSpaceOnUse" style="mask-type:luminance"><path fill="#fff" stroke="#fff" stroke-width="1.125" d="M15.447 6.86c.01.587.015 1.512.015 2.41 0 .626-.001 1.229-.003 1.675 0 .222-.002.406-.003.534v.158l-.016.078a4 4 0 0 1-.59 1.375c-.497.726-1.402 1.48-3.113 1.48-1.708 0-2.565-.752-3.02-1.468a3.7 3.7 0 0 1-.52-1.368q-.01-.06-.012-.087l-.001-.01v-.02l-.002-.148-.006-.531-.02-1.666c-.01-.881-.018-1.807-.023-2.411z"/></mask><g mask="url(#d)"><path fill="#F50100" fill-rule="evenodd" d="M7.874 6.78h1.582v1.606H7.874zm3.164 1.606H9.456v1.607H7.874v1.606h1.582v1.607H7.874v1.606h1.582v-1.606h1.582v1.606h1.582v-1.606h1.582v1.606h1.582v-1.606h-1.582v-1.607h1.582V9.993h-1.582V8.386h1.582V6.78h-1.582v1.606H12.62V6.78h-1.582zm0 1.607V8.386h1.582v1.607zm0 1.606V9.993H9.456v1.606zm1.582 0v1.607h-1.582v-1.607zm0 0V9.993h1.582v1.606z" clip-rule="evenodd"/></g><path fill="#56C6F5" fill-rule="evenodd" stroke="#fff" stroke-width=".5" d="M7.84 6.122s.49-.261.907-.396a9 9 0 0 1 .747-.208l-.621-2.29-1.244-.464-.704 1.16z" clip-rule="evenodd"/><path fill="#fff" d="M7.636 4.868 7.78 4.8c.148.316.342.413.609.314.272-.102.383-.294.344-.599l.157-.02c.049.378-.104.642-.446.77-.349.13-.626-.01-.807-.396"/><path fill="#FECA00" fill-rule="evenodd" d="m7.974 4.156-.11.067a.054.054 0 0 1-.081-.057l.025-.126-.113-.062a.054.054 0 0 1 .008-.1l.123-.04-.003-.13a.054.054 0 0 1 .09-.042l.097.085.11-.067c.04-.024.09.011.081.057l-.025.127.113.062a.054.054 0 0 1-.008.099l-.122.041.002.13a.054.054 0 0 1-.09.041z" clip-rule="evenodd"/><path fill="#56C6F5" fill-rule="evenodd" stroke="#fff" stroke-width=".5" d="M10.906 5.307s.417-.037.856-.029c.438.009.81.012.81.012l.214-2.257-.94-.849-1.044.869z" clip-rule="evenodd"/><path fill="#FECA00" fill-rule="evenodd" d="M11.813 4.939c.362 0 .397-.391.397-.657-.093-.148-.074-.254-.37-.254-.297 0-.331.09-.418.254 0 .266.03.657.391.657m.407-1.104c.362 0 .396-.391.396-.657-.092-.148-.073-.253-.37-.253-.296 0-.33.09-.417.253 0 .266.03.657.39.657m-.79 0c.362 0 .396-.391.396-.657-.092-.148-.073-.253-.37-.253s-.33.09-.417.253c0 .266.03.657.39.657" clip-rule="evenodd"/><path fill="#2E42A5" stroke="#fff" stroke-width=".5" d="m9.883 2.092 1.022.727.095.066.01.116.19 2.193.022.26-.262.011h-.004l-.014.001-.05.002a13 13 0 0 0-.4.029l-.223.024a4 4 0 0 0-.464.106l-.194.055-.056.018-.015.004-.004.002-.244.077-.072-.245-.65-2.208-.042-.14.102-.104.929-.963.149-.155z"/><mask id="e" width="4" height="6" x="8" y="1" maskUnits="userSpaceOnUse" style="mask-type:luminance"><path fill="#fff" stroke="#fff" stroke-width=".5" d="m9.883 2.092 1.022.727.095.066.01.116.19 2.193.022.26-.262.011h-.004l-.014.001-.05.002a13 13 0 0 0-.4.029l-.223.024a4 4 0 0 0-.464.106l-.194.055-.056.018-.015.004-.004.002-.244.077-.072-.245-.65-2.208-.042-.14.102-.104.929-.963.149-.155z"/></mask><g fill="#C51918" mask="url(#e)"><path d="m9.328 4.978-.188-.442c.403-.177 1.085-.285 1.802-.328l.028.482c-.667.039-1.298.138-1.642.288m-.318-1.07-.187-.443c.403-.176 1.27-.32 1.988-.362l.027.481c-.666.04-1.483.173-1.827.324"/></g><path fill="#2E42A5" stroke="#fff" stroke-width=".5" d="m13.673 2.092-1.023.727-.093.066-.01.116-.19 2.193-.022.26.26.011h.006l.012.001.051.002a13 13 0 0 1 .4.029l.222.024c.129.018.31.062.466.106.076.02.144.04.192.055l.057.018.016.004.004.002.248.079.069-.252.597-2.212.036-.133-.093-.1-.876-.96-.149-.164z"/><mask id="f" width="4" height="6" x="12" y="1" maskUnits="userSpaceOnUse" style="mask-type:luminance"><path fill="#fff" stroke="#fff" stroke-width=".5" d="m13.673 2.092-1.023.727-.093.066-.01.116-.19 2.193-.022.26.26.011h.006l.012.001.051.002a13 13 0 0 1 .4.029l.222.024c.129.018.31.062.466.106.076.02.144.04.192.055l.057.018.016.004.004.002.248.079.069-.252.597-2.212.036-.133-.093-.1-.876-.96-.149-.164z"/></mask><g fill-rule="evenodd" clip-rule="evenodd" mask="url(#f)"><path fill="#FECA00" d="M13.798 4.85s.22-.123.253-.33c.031-.207.373-.461.202-.431s-.073.054-.32 0-.566-.09-.566-.242.158-.272.028-.272-.406-.144-.35-.034c.055.11-.129-.014-.037.214s-.02.457.036.518c.056.06-.036.357-.036.357s.034.11.093-.055.188-.28.123-.14c-.064.14-.146.473-.073.415a.52.52 0 0 0 .146-.275c0-.055.186-.27.186-.107 0 .162-.175.29-.088.29.088 0 .137.034.191-.128.055-.162.188-.27.243-.162.054.107.042.101-.03.242-.074.14 0 .14 0 .14"/><path fill="#C51918" d="m13.28 3.65-.082-.137q.223-.138.402-.065c.054.023.095.05.2.124l.014.01c.11.077.17.109.205.109v.16c-.082 0-.153-.038-.294-.137l-.014-.01a1 1 0 0 0-.172-.108c-.066-.028-.15-.013-.258.054m-.26 1.048a.084.084 0 0 0 .085-.084.084.084 0 0 0-.084-.083.084.084 0 0 0-.085.083c0 .046.038.084.085.084m.244.077a.084.084 0 0 1-.085.083.084.084 0 0 1-.084-.083c0-.046.037-.083.084-.083s.085.037.085.083m.2.077a.084.084 0 0 0 .084-.083.084.084 0 0 0-.085-.084.084.084 0 0 0-.084.084c0 .046.038.083.084.083m.348.05a.084.084 0 0 1-.084.083.084.084 0 0 1-.085-.083c0-.046.038-.083.085-.083.046 0 .084.037.084.083"/></g><path fill="#56C6F5" stroke="#fff" stroke-width=".5" d="m15.979 2.53-1.244.464-.118.044-.035.122-.634 2.232-.072.255.258.057.003.001.01.002a9 9 0 0 1 .712.2c.194.062.41.156.58.237a8 8 0 0 1 .266.13l.015.008.003.002.001.001.24.128.108-.249.928-2.14.052-.119-.067-.11-.704-1.161-.108-.177z"/><mask id="g" width="5" height="5" x="13" y="2" maskUnits="userSpaceOnUse" style="mask-type:luminance"><path fill="#fff" stroke="#fff" stroke-width=".5" d="m15.979 2.53-1.244.464-.118.044-.035.122-.634 2.232-.072.255.258.057.003.001.01.002a9 9 0 0 1 .712.2c.194.062.41.156.58.237a8 8 0 0 1 .266.13l.015.008.003.002.001.001.24.128.108-.249.928-2.14.052-.119-.067-.11-.704-1.161-.108-.177z"/></mask><g mask="url(#g)"><path fill="#FECA00" fill-rule="evenodd" d="m15.846 3.817-.086.096a.054.054 0 0 1-.095-.03l-.013-.129-.126-.026a.054.054 0 0 1-.02-.097l.104-.076-.04-.122a.054.054 0 0 1 .073-.067l.118.053.086-.096a.054.054 0 0 1 .094.03l.013.129.127.026c.046.01.059.07.02.097l-.104.076.04.122a.054.054 0 0 1-.074.067z" clip-rule="evenodd"/><path fill="#E31D1C" d="m14.247 4.866.159-.622c.705.186 1.441.425 1.98.656l-.245.592a15 15 0 0 0-1.894-.626"/><path fill="#fff" d="m14.462 4.291.038-.156c.676.168 1.395.436 1.918.686l-.067.145a10.6 10.6 0 0 0-1.889-.675m-.2.641.037-.156a9.7 9.7 0 0 1 1.824.645l-.067.146a9.6 9.6 0 0 0-1.794-.635"/><path fill="#272727" d="m14.567 4.631.145-.065c.061.143.136.174.262.113.298-.145 1.035.057 1.035.33 0 .106-.061.17-.155.166a.5.5 0 0 1-.193-.064l-.033-.016a1 1 0 0 0-.123-.06l.052-.153a1 1 0 0 1 .173.083.4.4 0 0 0 .13.048c.002 0-.009.011-.009-.004 0-.12-.6-.285-.809-.183-.208.101-.379.03-.475-.195"/></g></g></g></g><rect width="23" height="17" x=".5" y=".5" stroke="#000" stroke-opacity=".1" rx="1.5"/><defs><clipPath id="a"><rect width="24" height="18" fill="#fff" rx="2"/></clipPath></defs></svg>