<svg xmlns="http://www.w3.org/2000/svg" fill="none" viewBox="0 0 24 18"><g clip-path="url(#a)"><mask id="b" width="24" height="18" x="0" y="0" maskUnits="userSpaceOnUse" style="mask-type:luminance"><path fill="#fff" d="M0 0h24v18H0z"/></mask><g mask="url(#b)"><path fill="#F7FCFF" fill-rule="evenodd" d="M0 0v18h24V0z" clip-rule="evenodd"/><mask id="c" width="24" height="18" x="0" y="0" maskUnits="userSpaceOnUse" style="mask-type:luminance"><path fill="#fff" fill-rule="evenodd" d="M0 0v18h24V0z" clip-rule="evenodd"/></mask><g mask="url(#c)"><path fill="#BF2714" fill-rule="evenodd" d="M0 0v4.5h24V0zm0 13.5V18h24v-4.5z" clip-rule="evenodd"/><mask id="d" width="10" height="10" x="7" y="4" maskUnits="userSpaceOnUse" style="mask-type:luminance"><path fill="#fff" fill-rule="evenodd" d="M12 13.5a4.5 4.5 0 1 0 0-9 4.5 4.5 0 0 0 0 9" clip-rule="evenodd"/></mask><g mask="url(#d)"><path fill="#5277B9" fill-rule="evenodd" d="M7.95 10.445a.197.197 0 0 1 .286-.23l.148.086a.2.2 0 0 0 .182.008l.642-.3a.2.2 0 0 1 .199.018l.724.522 1.012-.545a.2.2 0 0 1 .172-.007l.735.32a.2.2 0 0 0 .164-.004l.658-.316a.2.2 0 0 1 .158-.006l.824.329c.051.02.11.018.16-.006l.627-.31a.2.2 0 0 1 .178.002l.568.297c.059.03.13.03.188-.003l.194-.11a.197.197 0 0 1 .287.222l-.037.137H7.983zm-.004.891a.197.197 0 0 1 .29-.227l.122.074a.2.2 0 0 0 .187.008l.607-.294a.2.2 0 0 1 .204.02l.693.518.97-.543a.2.2 0 0 1 .178-.007l.698.314a.2.2 0 0 0 .168-.003l.625-.312a.2.2 0 0 1 .163-.005l.784.324c.053.022.114.02.165-.007l.594-.304a.2.2 0 0 1 .183.002l.536.29a.2.2 0 0 0 .194-.002l.167-.098a.197.197 0 0 1 .29.218l-.034.133H7.977zm.148.59a.197.197 0 0 1 .29-.226l.121.073a.2.2 0 0 0 .187.008l.607-.294a.2.2 0 0 1 .204.02l.693.518.971-.542a.2.2 0 0 1 .177-.008l.698.315a.2.2 0 0 0 .169-.004l.625-.311a.2.2 0 0 1 .163-.006l.783.324c.054.022.114.02.165-.007l.594-.304a.2.2 0 0 1 .184.002l.536.29c.06.034.134.033.193-.002l.167-.098a.196.196 0 0 1 .29.218l-.034.133H8.124zm.886.59a.197.197 0 0 1 .288-.226l.122.073a.2.2 0 0 0 .188.008l.607-.294a.2.2 0 0 1 .203.02l.693.518.972-.542a.2.2 0 0 1 .176-.008l.699.315a.2.2 0 0 0 .168-.004l.625-.311a.2.2 0 0 1 .163-.006l.784.324c.053.022.113.02.165-.006l.594-.305a.2.2 0 0 1 .183.002l.536.291c.06.033.134.032.194-.003l.166-.098a.197.197 0 0 1 .29.218l-.034.133H9.01zm-1.181.738a.197.197 0 0 1 .29-.226l.121.073a.2.2 0 0 0 .188.008l.607-.294a.2.2 0 0 1 .203.02l.693.517.971-.542a.2.2 0 0 1 .177-.007l.699.314a.2.2 0 0 0 .168-.003l.625-.312a.2.2 0 0 1 .163-.005l.783.324c.054.022.114.02.165-.007l.594-.304a.2.2 0 0 1 .184.002l.536.29c.06.034.134.032.193-.002l.167-.098a.196.196 0 0 1 .29.218l-.034.132H7.83z" clip-rule="evenodd"/><path fill="red" d="M10.817 10.604v.75c-.633 0-1.081-.39-1.3-1.08l-.017-.113V7.084h.75v3.017c.125.36.301.502.567.502m2.077.001v.75c.633 0 1.081-.39 1.3-1.08l.016-.113V7.084h-.75v3.017c-.125.36-.3.502-.566.502"/><path fill="red" fill-rule="evenodd" d="M12.544 5.181s-1.245-.325-1.245.5v2.597l1.45.43V6.586s-.724-.443-.724-.79c0-.346.518-.615.518-.615" clip-rule="evenodd"/><path fill="#FA8F21" fill-rule="evenodd" d="m10.09 5.321.899 1.754.11-1.754-.11-.345zm-.449 1.497-.646-.686.646-.77 1.36 2.172v.553l-.654-.553v-.716zm-1.424.528 1.18.565.092-.873-.982-.839zm1.24 1.448-1.552-.159V7.541l1.552.597zM7.863 9.87l-.184-.93 1.749.087v.843zm2.462-1.529v-.525l.655.525-.071.278zm6.086.599-.185.93h-1.564v-.843zm-1.778-.145 1.551-.159V7.541l-1.551.597zm1.239-1.448-1.18.565-.092-.873.982-.839zm-1.424-.528.647-.686-.647-.77-1.36 2.172v.553l.654-.553v-.716zm-.45-1.497-.897 1.754-.11-1.754.11-.345zm-.234 3.02v-.526l-.654.525.07.278z" clip-rule="evenodd"/></g></g></g></g><rect width="23" height="17" x=".5" y=".5" stroke="#000" stroke-opacity=".1" rx="1.5"/><defs><clipPath id="a"><rect width="24" height="18" fill="#fff" rx="2"/></clipPath></defs></svg>