<svg xmlns="http://www.w3.org/2000/svg" fill="none" viewBox="0 0 24 18"><g clip-path="url(#a)"><mask id="b" width="24" height="18" x="0" y="0" maskUnits="userSpaceOnUse" style="mask-type:luminance"><path fill="#fff" d="M0 0h24v18H0z"/></mask><g mask="url(#b)"><path fill="#5EAA22" fill-rule="evenodd" d="M0 0h24v18H0V0Z" clip-rule="evenodd"/><path fill="#FECA00" fill-rule="evenodd" d="m18 5.25-.75.549.1-.924-.85-.375.85-.375-.1-.924.75.549.75-.549-.1.924.85.375-.85.375.1.924L18 5.25Zm-.778 5.009-.75.549.1-.924-.85-.375.85-.375-.1-.924.75.549.75-.549-.1.924.85.375-.85.375.1.924-.75-.549ZM19.5 14.25l-.75.549.1-.924L18 13.5l.85-.375-.1-.924.75.549.75-.549-.1.924.85.375-.85.375.1.924-.75-.549Zm.75-7.125-.375.275.05-.463-.425-.187.425-.188-.05-.462.375.275.375-.275-.05.463.425.187-.425.188.05.462-.375-.275Zm-15 3.375a3.75 3.75 0 1 0 0-7.5 3.75 3.75 0 0 0 0 7.5Zm9.673.709c-.493.847-1.278 1.231-2.328 1.231a2.845 2.845 0 0 1 0-5.69c1.2 0 2.156.42 2.595 1.562-.348-.345-.886-.58-1.69-.55-1.243 0-2.051.967-2.051 1.796 0 .828.808 1.954 2.051 1.954.625-.01 1.087-.123 1.423-.303Z" clip-rule="evenodd"/><path fill="#915E2B" d="M5.687 6.52S4.954 9.206 4.65 9.46c-.134.06 1.214 0 1.214 0s-.506-.221-.328-.515c.178-.295.411-2.188.328-2.833-.083-.645-.178.408-.178.408Z"/><path fill="#5EAA22" fill-rule="evenodd" d="M5.843 6.62s.786.236.786.638.654.966.654.432c0-.535-.122-1.07-.388-1.07s.13-.36.357-.06c.228.298 1.025-.029.863-.239-.162-.21-.737-.47-.832-.47-.095 0 .654-.51 0-.51s-.279.435-.722-.028c-.443-.462.189.226.189-.55 0-.778-.18-1.096-.772-.66-.592.437-.478.16-.69-.004-.21-.165-.395.602-.163.758.232.157.49.545.257.545-.232 0-.395-.224-.395-.384s-.631-.444-1.23-.444c-.6 0-.212.444 0 .444.211 0 1.158.322.684.322-.473 0 .037-.238-.56-.238-.596 0-1.29-.272-1.29.238s.596.737.782.51c.187-.225.402-.607.402-.226 0 .38-.475.225-1.184.461-.71.236-.506.859.34.707.847-.152.755-.144 1.095-.38.34-.236.76-.17.415.208-.345.378-.69 1.07-.345 1.07s.568.094.568-.272c0-.365.2-1.077.2-.626 0 .45.261.79.493.626.232-.164-.054-.677.21-.677.266 0 .276-.121.276-.121Z" clip-rule="evenodd"/></g></g><rect width="23" height="17" x=".5" y=".5" stroke="#000" stroke-opacity=".1" rx="1.5"/><defs><clipPath id="a"><rect width="24" height="18" fill="#fff" rx="2"/></clipPath></defs></svg>