<svg xmlns="http://www.w3.org/2000/svg" fill="none" viewBox="0 0 24 18"><g clip-path="url(#a)"><mask id="b" width="24" height="18" x="0" y="0" maskUnits="userSpaceOnUse" style="mask-type:luminance"><path fill="#fff" d="M0 0h24v18H0z"/></mask><g mask="url(#b)"><path fill="#E11C1B" fill-rule="evenodd" d="M0 0v18h24V0z" clip-rule="evenodd"/><mask id="c" width="24" height="18" x="0" y="0" maskUnits="userSpaceOnUse" style="mask-type:luminance"><path fill="#fff" fill-rule="evenodd" d="M0 0v18h24V0z" clip-rule="evenodd"/></mask><g fill-rule="evenodd" clip-rule="evenodd" mask="url(#c)"><path fill="#272727" d="M0 0v7.5h24V0z"/><path fill="#5EAA22" d="M0 12v6h24v-6z"/><path fill="#E11C1B" d="M3.001 8.96v-.002h-.007zm.472-2.865h.077l-.119-.018zm2.195 0q.06-.113.123-.224L4.074 4.735l2.025.658q.17-.238.364-.46L4.975 3.516l1.896.99q.21-.2.437-.382L6.105 2.46l1.7 1.3q.237-.157.49-.298l-.867-1.86 1.436 1.576q.256-.115.525-.212L8.901.97l1.112 1.803q.268-.072.546-.125L10.477.581l.74 1.967q.273-.03.554-.04L12.106.45l.335 2.058q.279.012.553.042l.74-1.97-.082 2.07q.277.054.544.126L15.31.969l-.489 2.003q.267.097.522.212l1.44-1.581-.87 1.867q.252.14.487.297l1.706-1.306-1.209 1.67q.226.182.433.38l1.906-.995-1.496 1.425q.192.221.36.456l2.037-.662-1.728 1.143q.062.108.12.217h-1.474c-1.016-1.408-2.872-2.35-4.994-2.35s-3.977.942-4.993 2.35zm2.252 0c.962-.992 2.473-1.632 4.171-1.632 1.7 0 3.21.64 4.172 1.632zm12.742 0h.077l.04-.018zm.55 2.863h.005l-.006.001z"/></g></g></g><rect width="23" height="17" x=".5" y=".5" stroke="#000" stroke-opacity=".1" rx="1.5"/><defs><clipPath id="a"><rect width="24" height="18" fill="#fff" rx="2"/></clipPath></defs></svg>