<svg xmlns="http://www.w3.org/2000/svg" fill="none" viewBox="0 0 24 18"><g clip-path="url(#a)"><mask id="b" width="24" height="18" x="0" y="0" maskUnits="userSpaceOnUse" style="mask-type:luminance"><path fill="#fff" d="M0 0h24v18H0z"/></mask><g mask="url(#b)"><path fill="#2E42A5" fill-rule="evenodd" d="M0 0v18h24V0z" clip-rule="evenodd"/><mask id="c" width="24" height="18" x="0" y="0" maskUnits="userSpaceOnUse" style="mask-type:luminance"><path fill="#fff" fill-rule="evenodd" d="M0 0v18h24V0z" clip-rule="evenodd"/></mask><g fill-rule="evenodd" clip-rule="evenodd" mask="url(#c)"><path fill="#FECA00" d="M0 0v6h24V0z"/><path fill="#E31D1C" d="M0 12v6h24v-6z"/><path fill="#F7FCFF" d="m9.553 8.895.737-.419.827.419-.297-.85.617-.625h-.786l-.362-.804-.31.804h-.922l.694.614h-.778l-.363-.805-.309.805h-.922l.706.624-.135.545h-.588l-.363-.804-.31.804h-.922l.706.624-.13.527h-.258l-.362-.804-.31.804h-.922l.706.625-.21.85.737-.418.827.418-.297-.85.617-.625h-.04L7 10.26l.827.418-.297-.85.354-.358-.01.039.737-.418.827.418-.297-.85.614-.62.008.007zm4.864-.033-.737-.418-.827.418.297-.85-.617-.624h.786l.362-.805.31.805h.922L14.219 8h.782l.362-.804.31.804h.922l-.706.624.135.545h.588l.363-.804.309.804h.922l-.706.624.13.528h.258l.363-.805.31.805h.921l-.706.624.21.85-.736-.418-.827.418.297-.85-.618-.624h.04l-.168-.096-.827.418.297-.85-.354-.357.01.038-.738-.418-.827.418.297-.85-.615-.622-.01.009z"/><path fill="#F7FCFF" d="m11.875 7.901-.737.418.21-.85-.706-.624h.922l.31-.804.362.804h.786l-.617.624.297.85z"/></g></g></g><rect width="23" height="17" x=".5" y=".5" stroke="#000" stroke-opacity=".1" rx="1.5"/><defs><clipPath id="a"><rect width="24" height="18" fill="#fff" rx="2"/></clipPath></defs></svg>