<svg xmlns="http://www.w3.org/2000/svg" fill="none" viewBox="0 0 24 18"><g clip-path="url(#a)"><mask id="b" width="24" height="18" x="0" y="0" maskUnits="userSpaceOnUse" style="mask-type:luminance"><path fill="#fff" d="M0 0h24v18H0z"/></mask><g mask="url(#b)"><path fill="#2E42A5" fill-rule="evenodd" d="M0 0v18h24V0H0Z" clip-rule="evenodd"/><mask id="c" width="24" height="18" x="0" y="0" maskUnits="userSpaceOnUse" style="mask-type:luminance"><path fill="#fff" fill-rule="evenodd" d="M0 0v18h24V0H0Z" clip-rule="evenodd"/></mask><g mask="url(#c)"><path fill="#F7FCFF" fill-rule="evenodd" d="M0 0v6h24V0H0Z" clip-rule="evenodd"/><path fill="#C51918" fill-rule="evenodd" d="M0 12v6h24v-6H0Z" clip-rule="evenodd"/><path fill="#2E42A5" fill-rule="evenodd" d="M10.305 3.777s-1.578-.745-3.542-.745c-1.963 0-3.542.745-3.542.745s.176 2.996.454 4.583c.118.678.688 1.666 1.204 2.134.588.534 1.884 1.165 1.884 1.165.375-.258 1.077-.375 1.973-1.165.897-.79 1.12-2.134 1.12-2.134l.45-4.583Z" clip-rule="evenodd"/><path fill="#C51918" d="m10.097 3.68.657.327-.451 4.517c-.159.956-.554 1.71-1.186 2.268a5.136 5.136 0 0 1-1.037.716l-1.043.539c-.085.04-.15.077-.202.113l-.082.056-.089-.043c-.878-.428-1.697-1.004-2.104-1.373-.556-.504-1.142-1.535-1.267-2.25-.187-1.067-.354-2.538-.472-4.543l.591-.308c.117 1.99.258 3.576.44 4.624.11.62.65 1.571 1.143 2.018.364.33.95.697 1.758 1.095a2.16 2.16 0 0 1 .162-.085c.002 0 .551-.245.742-.345.334-.174.645-.384.966-.666.561-.495.911-1.162 1.053-2.008l.42-4.653Z"/><path fill="#fff" fill-rule="evenodd" d="M4.157 8.268s.143.438.407.93c.389.102.626.096.701.012.218-.243.991-.347 1.135-.139.09.128.402.217.744.1l-.038.006c.06-.021.199-.076.285-.11l.07-.028c.128-.049.223-.074.32-.081a.693.693 0 0 1 .359.072c.27.128.603.188.83.15.277-.484.475-.912.475-.912L8.128 7.005l-.523.567-.87-1.239-.727 1.24-.558-.568-1.293 1.263Zm.76 1.493a4.094 4.094 0 0 1-.172-.252c.337.061.566.029.693-.114.06-.067.239-.132.442-.16.095-.012.185-.015.255-.009a.343.343 0 0 1 .075.014c.006.002.005.002 0-.006l-.002-.002c.156.222.577.341.975.197l-.039.006c.108-.033.302-.109.371-.136l.024-.01a.924.924 0 0 1 .258-.067.47.47 0 0 1 .246.05c.24.114.517.182.762.184a7.555 7.555 0 0 1-.161.25c-.19.044-.485-.014-.722-.144a.564.564 0 0 0-.328-.075.902.902 0 0 0-.287.083l-.062.028c-.075.034-.195.09-.247.11l.044-.008c-.298.115-.558.03-.632-.093-.133-.219-.828-.111-1.023.14-.053.066-.21.079-.47.014Zm.26.307.044.044a5.06 5.06 0 0 0 1.515.984s.997-.302 1.563-.937c.048-.054.097-.113.145-.175a1.515 1.515 0 0 1-.63-.185.341.341 0 0 0-.201-.048.704.704 0 0 0-.217.066l-.018.008a4.806 4.806 0 0 1-.336.14l.043-.009c-.35.146-.723.03-.868-.188a.243.243 0 0 0-.059-.012.868.868 0 0 0-.215.009c-.172.026-.323.09-.372.153-.084.107-.215.155-.395.15Z" clip-rule="evenodd"/><path fill="#FECA00" fill-rule="evenodd" d="M5.36 4.415h-.527l.409-.383-.41-.405h.528l.223-.393.223.393h.527l-.389.38.345.408h-.483l-.223.414-.223-.414Zm2.485 0h-.527l.41-.383-.41-.405h.527l.223-.393.224.393h.526l-.388.38.345.408h-.483l-.224.414-.223-.414ZM6.45 5.676h-.527l.409-.383-.41-.405h.528l.223-.393.223.393h.527l-.389.38.345.408h-.483l-.223.414-.223-.414Z" clip-rule="evenodd"/></g></g></g><path stroke="#000" stroke-opacity=".1" stroke-width=".5" d="M.25.25h23.5v17.5H.25z"/><defs><clipPath id="a"><path fill="#fff" d="M0 0h24v18H0z"/></clipPath></defs></svg>