<svg xmlns="http://www.w3.org/2000/svg" fill="none" viewBox="0 0 24 18"><g clip-path="url(#a)"><mask id="b" width="24" height="18" x="0" y="0" maskUnits="userSpaceOnUse" style="mask-type:luminance"><path fill="#fff" d="M0 0h24v18H0z"/></mask><g mask="url(#b)"><path fill="#FECA00" fill-rule="evenodd" d="M0 0v18h24V0z" clip-rule="evenodd"/><mask id="c" width="24" height="18" x="0" y="0" maskUnits="userSpaceOnUse" style="mask-type:luminance"><path fill="#fff" fill-rule="evenodd" d="M0 0v18h24V0z" clip-rule="evenodd"/></mask><g mask="url(#c)"><path fill="#272727" d="M0 0h24v3H0z"/><path fill="#D74800" d="M0 6h24v3H0z"/><path fill="#272727" d="M0 9h24v3H0z"/><path fill="#D74800" d="M0 15h24v3H0z"/><path fill="#F7FCFF" fill-rule="evenodd" d="M12 13.5a4.5 4.5 0 1 0 0-9 4.5 4.5 0 0 0 0 9" clip-rule="evenodd"/><path fill="#272727" fill-rule="evenodd" d="m10.26 6.246-.794.26.794.069s.128.314 0 .558c-.033.063-.117.142-.224.244-.315.299-.831.788-.831 1.583 0 1.065 2.055 1.548 2.055 1.548v.506s.239.148-1.122.148c-1.18 0-1.107.448-1.066.693q.01.057.011.096c0 .194.568-.193.833-.579.14-.203.725-.192 1.326-.137.048.005.486.933.105 1.412-.16.202-.711.228-1.056.244-.176.009-.298.014-.286.04.008.018.112.012.263.003.189-.011.451-.027.692-.003.037.003-.105.126-.249.251-.148.129-.297.258-.255.26.047.003.324-.15.576-.29.209-.116.4-.221.429-.221.19 0 .361.023.512.044.251.034.444.06.565-.044.037-.033-.179-.085-.4-.137-.227-.055-.46-.11-.423-.147.21-.207.122-.642.053-.985-.03-.153-.058-.288-.053-.376.018-.311.347-.148.606-.02.113.056.213.106.267.106.49 0-.118-.62-.452-.96l-.08-.082c-.17-.175-.051-.152.218-.098.205.04.498.098.817.098.735 0 1.272-.239 1.086-.886-.123-.427-.797-.572-1.501-.724-.363-.078-.735-.158-1.042-.28-.757-.298-.719-.733-.686-1.101q.01-.107.012-.206c0-.399.674-.887.674-.887s-.308-.514-.817-.514c-.51 0-.557.514-.557.514m1.386 4.686v-.376s.314-.01.425.254c.11.265-.425.122-.425.122" clip-rule="evenodd"/><path fill="#D74800" fill-rule="evenodd" d="m9.808 5.033.76.902.393-.093-.188-.91z" clip-rule="evenodd"/><path fill="#FFD018" fill-rule="evenodd" d="m10.795 4.815.049 1.356.649-.16.276-.888z" clip-rule="evenodd"/><path fill="#D74800" fill-rule="evenodd" d="M10.183 7.08c.143 0 .26-.114.26-.254a.256.256 0 0 0-.26-.253.256.256 0 0 0-.26.253c0 .14.116.253.26.253m1.65-2.009-.756.905.16.371.863-.344zm1.757 6.85s1.329-.594 1.329-1.424c0-.831-2.159-1.736-2.159-1.736s-1.27.291-.697.68c.572.389 1.339.538 1.339 1.056 0 .517.21 1.01-.216 1.01s.403.414.403.414" clip-rule="evenodd"/><path fill="#FFFDFF" fill-rule="evenodd" d="M11.671 8.609s-.47.082-.448.159c.062.21.705.486.985.676.572.389 1.115.345 1.518.092.404-.253-2.055-.927-2.055-.927" clip-rule="evenodd"/></g></g></g><rect width="23" height="17" x=".5" y=".5" stroke="#000" stroke-opacity=".1" rx="1.5"/><defs><clipPath id="a"><rect width="24" height="18" fill="#fff" rx="2"/></clipPath></defs></svg>