<svg xmlns="http://www.w3.org/2000/svg" fill="none" viewBox="0 0 24 18"><g clip-path="url(#a)"><mask id="b" width="24" height="18" x="0" y="0" maskUnits="userSpaceOnUse" style="mask-type:luminance"><path fill="#fff" d="M0 0h24v18H0z"/></mask><g mask="url(#b)"><path fill="#3D58DB" fill-rule="evenodd" d="M0 0h24v18H0V0Z" clip-rule="evenodd"/><path fill="#C51918" stroke="#FFD018" stroke-width="2" d="M0 3.5h-1v11h26v-11H0Z"/><path fill="#FFD018" d="M5.362 6.998c-.09 0-.163-.203-.163-.454s.073-.455.163-.455H18.42c.09 0 .163.204.163.455 0 .25-.073.454-.163.454H5.362Z"/><path fill="#F7FCFF" fill-rule="evenodd" d="m18.071 6.451.759-.967 1.341.967-1.341.993-.759-.993Z" clip-rule="evenodd"/><path fill="#FFD018" d="M5.362 9.998c-.09 0-.163-.203-.163-.454s.073-.455.163-.455H18.42c.09 0 .163.204.163.455 0 .25-.073.454-.163.454H5.362Z"/><path fill="#F7FCFF" fill-rule="evenodd" d="m18.071 9.451.759-.967 1.341.967-1.341.993-.759-.993Z" clip-rule="evenodd"/><path fill="#FFD018" d="M3.26 11.866c-.121 0-.22-.23-.22-.516 0-.285.099-.515.22-.515h17.507c.12 0 .219.23.219.515 0 .285-.098.516-.219.516H3.26Z"/><path fill="#F7FCFF" fill-rule="evenodd" d="M6.613 9.04s2.131-4.486 5.179-4.486c3.048 0 5.25 4.485 5.25 4.485s-2.69 4.427-5.214 4.427c-2.525 0-5.215-4.427-5.215-4.427Z" clip-rule="evenodd"/><mask id="c" width="12" height="10" x="6" y="4" maskUnits="userSpaceOnUse" style="mask-type:luminance"><path fill="#fff" fill-rule="evenodd" d="M6.613 9.04s2.131-4.486 5.179-4.486c3.048 0 5.25 4.485 5.25 4.485s-2.69 4.427-5.214 4.427c-2.525 0-5.215-4.427-5.215-4.427Z" clip-rule="evenodd"/></mask><g fill-rule="evenodd" clip-rule="evenodd" mask="url(#c)"><path fill="#272727" d="M11.943 4.26s-.695.845-.463 1.65c.231.806.771.72.771 1.43s-.249 1.433 0 1.433c.25 0 .337.489.108.82-.228.333-.43.343-.416.883.014.54 1.194 1.07.622 1.07s-1.325.555-1.085.555 1.494.433 1.494 1v1.022H6.428V4.26h5.515Z"/><path fill="#F7FCFF" d="M8.864 7.442h-.326V8.77h.326V7.442Zm.961 0H9.5V8.77h.325V7.442Zm-.806 0h.326V8.77h-.326V7.442Zm1.287 0H9.98V8.77h.326V7.442Zm.155 0h.325V8.77h-.325V7.442Zm.806 0h-.326V8.77h.326V7.442ZM8.538 9.346h.326v1.327h-.326V9.346Zm1.287 0H9.5v1.327h.325V9.346Zm-.806 0h.326v1.327h-.326V9.346Zm1.287 0H9.98v1.327h.326V9.346Zm.155 0h.325v1.327h-.325V9.346Zm.806 0h-.326v1.327h.326V9.346Z"/><path fill="#272727" d="M12.733 7.442h-.326V8.77h.326V7.442Zm.961 0h-.326V8.77h.326V7.442Zm-.806 0h.326V8.77h-.326V7.442Zm1.287 0h-.326V8.77h.326V7.442Zm.154 0h.326V8.77h-.326V7.442Zm.807 0h-.326V8.77h.326V7.442Zm-2.729 1.904h.326v1.327h-.326V9.346Zm1.287 0h-.326v1.327h.326V9.346Zm-.806 0h.326v1.327h-.326V9.346Zm1.287 0h-.326v1.327h.326V9.346Zm.154 0h.326v1.327h-.326V9.346Zm.807 0h-.326v1.327h.326V9.346Z"/><path fill="#3D58DB" d="M9.924 5.304c-.457.141-.665 1.338-.614 1.627.05.29.205-.036.205-.036s.316.686.349.87c.032.185.199-.278.199-.278s.547.377.621.797c.075.421.186-.48.186-.48l.124-.023-.078-.445.236.203-.073-.414s.178.232.133-.024l-.07-.4-.062-.35.234-.041s-.934-1.148-1.39-1.006Z"/></g><path fill="#3D58DB" fill-rule="evenodd" d="M19.566 10.272c-.474.06-.887 1.202-.887 1.496 0 .294.209 0 .209 0s.192.73.192.918c0 .188.244-.24.244-.24s.474.466.474.893.266-.441.266-.441h.126v-.452l.198.24v-.42s.135.26.135 0v-.762h.238s-.72-1.292-1.195-1.232Zm-15.371-.173c.474.06.887 1.202.887 1.496 0 .293-.209 0-.209 0s-.192.73-.192.918c0 .188-.244-.24-.244-.24s-.474.466-.474.893-.266-.441-.266-.441H3.57v-.452l-.198.24v-.42s-.135.26-.135 0v-.762H3s.72-1.292 1.195-1.232Z" clip-rule="evenodd"/></g></g><path stroke="#000" stroke-opacity=".1" stroke-width=".5" d="M.25.25h23.5v17.5H.25z"/><defs><clipPath id="a"><path fill="#fff" d="M0 0h24v18H0z"/></clipPath></defs></svg>