<svg xmlns="http://www.w3.org/2000/svg" fill="none" viewBox="0 0 24 18"><g clip-path="url(#a)"><mask id="b" width="24" height="18" x="0" y="0" maskUnits="userSpaceOnUse" style="mask-type:luminance"><path fill="#fff" d="M0 0h24v18H0z"/></mask><g fill-rule="evenodd" clip-rule="evenodd" mask="url(#b)"><path fill="#F7FCFF" d="M0 0h24v18H0V0Z"/><path fill="#C51918" d="M0 0v6h24V0H0Z"/><path fill="#409100" d="M0 12v6h24v-6H0Z"/><path fill="#FB0" d="m12.02 5.63-.591.417.208-.7-.573-.441.72-.015.236-.691.237.69.72.016-.574.441.208.7-.59-.417Zm-2.497.612-.591.418.208-.7-.574-.442.72-.014.237-.691.236.69.72.015-.573.442.208.7-.591-.418ZM6.99 8.5l.59-.418.592.418-.209-.7.574-.442-.72-.015-.236-.691-.237.69-.72.016.574.442-.208.7Zm-.033 1.965-.592.418.209-.7L6 9.74l.72-.015.237-.691.236.69.72.016-.574.441.209.7-.591-.417Zm9.466.418.591-.418.591.418-.208-.7.574-.442-.72-.015-.237-.691-.236.69-.72.016.574.441-.209.7Zm-.172-2.801-.59.418.208-.7-.574-.442.72-.015.236-.691.237.69.72.016-.574.442.209.7-.592-.418Zm-2.504-1.42.591-.418.591.417-.208-.7.574-.442-.72-.014-.237-.691-.236.69-.72.015.574.442-.209.7Zm-5.08 7.094-.184-.657c1.02-.276 2.191-.413 3.513-.413 1.323 0 2.494.137 3.514.413l-.184.656c-.957-.258-2.066-.388-3.33-.388-1.263 0-2.373.13-3.329.389Zm1.264-1.053c-.407.07-.74-.324-.74-.324l.404-.167c-.013-.28.156-.454.156-.454.136.063.322.407.322.407h.367s-.102.469-.51.538Zm4.81-.256s-.334.393-.74.324c-.408-.07-.51-.538-.51-.538h.366s.187-.344.323-.406c0 0 .17.173.156.453l.404.167Zm-2.796.131c-.412.012-.687-.424-.687-.424l.423-.109a.646.646 0 0 1 .218-.427c.126.081.263.447.263.447l.362.051s-.166.45-.579.462Z"/><path fill="#FB0" d="M11.959 10.698s-.47 1.074-1.208 1.157c-.739.083-1.114-.61-1.114-.61s-.048.72-.926.998c-.877.278-1.339-.832-1.339-.832s.457.408 1.165.23c.709-.178.988-.835.988-.835s.524.685 1.226.343c.701-.343 1.09-.762 1.09-1.164V8.783s-.182-.311-.495-.311c-.315 0-.402.22-.402.22s-.123-1.25 1.006-1.327v-.003l.032.001h.03v.002c1.13.077 1.007 1.328 1.007 1.328s-.087-.221-.401-.221c-.314 0-.495.311-.495.311v1.202c0 .402.388.82 1.09 1.164.7.342 1.225-.343 1.225-.343s.28.657.988.835c.708.178 1.165-.23 1.165-.23s-.462 1.11-1.34.832c-.877-.277-.925-.999-.925-.999s-.375.694-1.114.61c-.738-.082-1.207-1.155-1.207-1.155l-.023-1.417-.023 1.416Zm-.01-2.996c-.522 0-.627.44-.627.44.458 0 .626.2.626.2s.34-.2.681-.2c0 0-.16-.44-.68-.44Z"/></g></g><path stroke="#000" stroke-opacity=".1" stroke-width=".5" d="M.25.25h23.5v17.5H.25z"/><defs><clipPath id="a"><path fill="#fff" d="M0 0h24v18H0z"/></clipPath></defs></svg>