<svg xmlns="http://www.w3.org/2000/svg" fill="none" viewBox="0 0 24 18"><g clip-path="url(#a)"><path fill="#19BFBF" d="M0 0h24v18H0z"/><path fill="#fff" fill-rule="evenodd" d="M11.54 2.971a.333.333 0 0 0-.2.067L9.197 4.645a.333.333 0 0 1-.12.057l-2.184.546a.333.333 0 0 0-.069.025L4.671 6.35a.333.333 0 0 0-.15.15L3.516 8.512a.333.333 0 0 0 .02.334l.98 1.469a.33.33 0 0 1 .056.185v1.475c0 .088.036.173.098.236l.875.875a.333.333 0 0 0 .385.063l3.143-1.572a.333.333 0 0 1 .15-.035h2.086c.078 0 .153.027.213.077l3.243 2.703c.06.05.136.077.214.077h1.986a.333.333 0 0 0 .278-.149l2.13-3.196a.333.333 0 0 0 .056-.185V8.787a.337.337 0 0 0-.055-.185l-2.23-3.345-1.617-2.695a.333.333 0 0 0-.286-.162h-.332a.258.258 0 0 0-.182.44.258.258 0 0 1 .048.298l-.396.792a.333.333 0 0 1-.298.184h-1.303a.333.333 0 0 1-.298-.184l-.387-.774a.333.333 0 0 0-.298-.185h-.254Zm5.032 12h-1.143l.335.336c.13.13.341.13.472 0l.335-.336Z" clip-rule="evenodd"/></g><path stroke="#000" stroke-opacity=".1" stroke-width=".5" d="M.25.25h23.5v17.5H.25z"/><defs><clipPath id="a"><path fill="#fff" d="M0 0h24v18H0z"/></clipPath></defs></svg>