<svg xmlns="http://www.w3.org/2000/svg" fill="none" viewBox="0 0 24 18"><g clip-path="url(#a)"><mask id="b" width="24" height="18" x="0" y="0" maskUnits="userSpaceOnUse" style="mask-type:luminance"><path fill="#fff" d="M0 0h24v18H0z"/></mask><g mask="url(#b)"><path fill="#14DC5A" fill-rule="evenodd" d="M0 12h24v6H0v-6Z" clip-rule="evenodd"/><path fill="#0099B5" fill-rule="evenodd" d="M0 0h24v7.5H0V0Z" clip-rule="evenodd"/><path fill="#F7FCFF" stroke="#C51918" d="M-1.5 7H-2v5.5h28V7H-1.5Z"/><path fill="#F7FCFF" fill-rule="evenodd" d="m10.906 2.255-.505.28.144-.57-.483-.419h.631l.212-.54.249.54h.538l-.423.42.203.57-.566-.281ZM8.2 3.973l.505-.28.566.28-.203-.57.423-.42h-.539l-.248-.538-.212.539H7.86l.484.419-.144.57ZM6.32 5.22l-.504.28.144-.57-.483-.419h.631l.212-.54.248.54h.539l-.423.42.203.57-.566-.281Zm2.385 0L8.2 5.5l.144-.57-.484-.419h.632l.212-.54.248.54h.539l-.423.42.203.57-.566-.281Zm2.235 0-.505.28.144-.57-.484-.419h.632l.212-.54.248.54h.539l-.423.42.203.57-.566-.281Zm-.505-1.248.505-.28.566.28-.203-.57.423-.42h-.539l-.248-.538-.212.539h-.632l.484.419-.144.57Zm2.25 1.528.504-.28.566.28-.203-.57.423-.419h-.538l-.249-.54-.212.54h-.631l.483.42-.144.57Zm.504-1.809-.505.28.145-.57-.484-.418h.631l.212-.54.249.54h.538l-.423.419.204.57-.567-.28Zm-.538-1.157.505-.28.566.28-.204-.57.423-.419h-.538l-.248-.54-.212.54h-.632l.484.42-.144.57Zm2.81 2.686-.504.28.144-.57-.483-.419h.631l.212-.54.248.54h.539l-.423.42.203.57-.566-.281Zm-.504-1.248.505-.28.566.28-.203-.57.423-.42h-.539l-.248-.538-.212.539h-.631l.483.419-.144.57Zm.471-1.718-.505.28.145-.57-.484-.419h.632l.211-.54.249.54h.538l-.423.42.204.57-.567-.281ZM4.414 6.18s-1.812-.49-1.778-2.309C2.67 2.054 4.5 1.581 4.5 1.581c-.748-.282-2.959.098-3 2.272-.04 2.174 2.217 2.603 2.914 2.327Z" clip-rule="evenodd"/></g></g><path stroke="#000" stroke-opacity=".1" stroke-width=".5" d="M.25.25h23.5v17.5H.25z"/><defs><clipPath id="a"><path fill="#fff" d="M0 0h24v18H0z"/></clipPath></defs></svg>