<svg xmlns="http://www.w3.org/2000/svg" fill="none" viewBox="0 0 24 18"><g clip-path="url(#a)"><mask id="b" width="24" height="18" x="0" y="0" maskUnits="userSpaceOnUse" style="mask-type:luminance"><path fill="#fff" d="M0 0h24v18H0z"/></mask><g mask="url(#b)"><path fill="#4857A1" fill-rule="evenodd" d="M0 0v18h24V0z" clip-rule="evenodd"/><mask id="c" width="24" height="18" x="0" y="0" maskUnits="userSpaceOnUse" style="mask-type:luminance"><path fill="#fff" fill-rule="evenodd" d="M0 0v18h24V0z" clip-rule="evenodd"/></mask><g fill-rule="evenodd" clip-rule="evenodd" mask="url(#c)"><path fill="#C51918" d="M0 0v6h24V0z"/><path fill="#F7FCFF" d="M0 12v6h24v-6z"/><path fill="#F6C540" d="m8.592 2.852-.085-.34.233.069v-.005c.99.09 2.52.603 2.805 1.147.11.21 0 .39-.143.625l-.066.11a17 17 0 0 0-.199.349c-.223.398-.396.708-.66.867l.005.9-4.421-.037-.006-.91c-.226-.17-.388-.459-.59-.82a17 17 0 0 0-.265-.46c-.143-.234-.253-.414-.143-.624.214-.41 1.185-.807 2.074-1.018.175-.062.358-.12.539-.176l.08.059q.107-.015.205-.024l.102.228h.36s.217.645.217 1.003c0 .359-.217.655-.217.655v.248l.118.011q0-.032.007-.067c.02-.118.085-.206.144-.195.06.01.09.114.07.233l-.014.055c.233.031.495.076.742.121.095-.183.21-.363.32-.536.283-.445.532-.836.3-1.07a.7.7 0 0 0-.227-.123 7 7 0 0 0-1.07-.183l-.01-.06zm1.68 2.16.202.043v.13c.438-.338.748-1.087.776-1.332.017-.147-.217-.318-.585-.472.174.33-.058.657-.35 1.068-.11.154-.229.32-.337.502l.107.022a.4.4 0 0 1 .014-.11c.031-.117.104-.198.162-.183s.08.122.048.238a.4.4 0 0 1-.037.094m-2.26-.313v-.275s-.188-.21-.217-.649c-.021-.313.044-.681.082-.866-.28.036-.577.091-.863.159-.19.054-.342.114-.41.182-.232.234.017.625.3 1.07.107.167.217.341.31.517.16-.034.32-.066.47-.092a.4.4 0 0 1-.013-.075c-.01-.12.03-.22.09-.226.059-.005.116.088.126.207a.4.4 0 0 1 .001.063zm-1.283.25a7 7 0 0 0-.335-.5c-.3-.42-.536-.753-.34-1.09-.43.166-.719.347-.702.494.026.232.304.913.704 1.272.028-.008.183-.051.401-.107a.4.4 0 0 1-.042-.092c-.037-.114-.021-.222.036-.24.057-.019.133.059.17.173q.02.06.02.112z"/><path fill="#2E42A5" d="M8.739 2.63a.483.483 0 0 1-.49.477.483.483 0 0 1-.488-.478c0-.263.219-.477.489-.477s.489.214.489.477m-.49 3.544c.21 0 .381-.097.381-.217s-.17-.218-.38-.218-.38.097-.38.218c0 .12.17.217.38.217M6.349 6.12a.163.163 0 1 1-.327 0 .163.163 0 0 1 .327 0m4.347 0a.163.163 0 1 1-.326 0 .163.163 0 0 1 .326 0"/><path fill="#C5363C" d="M7.435 6.01c0 .09-.122.164-.272.164S6.89 6.1 6.89 6.01s.122-.163.272-.163.272.073.272.163m2.282 0c0 .09-.121.164-.272.164-.15 0-.271-.073-.271-.163s.121-.163.271-.163.272.073.272.163"/><path fill="#F7FCFF" d="M9.173 4.652c0 .12-.048.218-.108.218s-.11-.098-.11-.218.05-.217.11-.217.108.097.108.217M7.538 4.62c.037.114.02.221-.037.24s-.133-.06-.17-.173c-.037-.114-.021-.222.036-.24.057-.02.133.058.17.173m-1.28.589c.058-.019.074-.126.037-.24-.037-.115-.113-.192-.17-.174s-.074.127-.037.24c.037.115.114.192.17.174m4.302-.148c-.064.102-.157.159-.208.127s-.04-.14.023-.242c.064-.102.157-.158.208-.127.05.032.04.14-.023.242"/><path fill="#fff" d="M7.326 2.844q.047.034.108.035a.184.184 0 1 0-.164-.265.183.183 0 0 0-.262.049.184.184 0 0 0-.3.159.183.183 0 0 0-.325.086.183.183 0 0 0-.324.075.184.184 0 0 0-.282.092.183.183 0 0 0-.263.132.185.185 0 0 0-.22.178.185.185 0 0 0-.213.218.184.184 0 0 0-.107.35.184.184 0 0 0 .109.217.184.184 0 0 0 .17.23.183.183 0 1 0 .123-.04.183.183 0 0 0-.047-.313.184.184 0 0 0-.108-.217.2.2 0 0 0 .002-.085.184.184 0 0 0 .221-.177.185.185 0 0 0 .215-.149.184.184 0 0 0 .21-.122.18.18 0 0 0 .19-.016.2.2 0 0 0 .032.067.184.184 0 0 0 .14.292.183.183 0 0 0 .048.313.184.184 0 0 0 .108.217.184.184 0 1 0 .247-.123.184.184 0 0 0-.109-.217.184.184 0 0 0-.17-.23.183.183 0 0 0 .032-.252.18.18 0 0 0 0-.218.2.2 0 0 0 .033-.08.183.183 0 0 0 .328-.13.183.183 0 0 0 .297-.016.183.183 0 0 0 .281-.06m-1.194.327a.183.183 0 0 0 .255-.04.183.183 0 0 0-.256-.04.18.18 0 0 0-.072-.108.2.2 0 0 0 .032.147.18.18 0 0 0-.031.15.18.18 0 0 0 .072-.11m0 0a.2.2 0 0 1-.041-.04.2.2 0 0 1 .04-.04.2.2 0 0 1 0 .08m.502.876a.183.183 0 0 0-.247.123.183.183 0 0 0 .247-.123m-.109-.217a.183.183 0 0 0-.247.123.183.183 0 0 0 .247-.123m-.17-.23-.008-.001a.2.2 0 0 0-.115.041h.007a.2.2 0 0 0 .116-.04m.032-.252a.183.183 0 0 0-.296 0 .183.183 0 0 0 .296 0M5.377 4.36h-.008a.2.2 0 0 0-.116.04l.007.001a.2.2 0 0 0 .116-.041m-.048-.313a.184.184 0 0 1-.246.123.184.184 0 0 1 .246-.123M5.22 3.83a.184.184 0 0 1-.247.123.184.184 0 0 1 .247-.123m-.14-.227a.18.18 0 0 0 .142.142.18.18 0 0 0-.142-.142m.363-.035a.184.184 0 0 1-.15-.18v-.003c.086.015.15.09.15.18zm.215-.149a.184.184 0 0 1-.145-.212.184.184 0 0 1 .145.212m.21-.122a.184.184 0 0 1-.092-.222.184.184 0 0 1 .093.222m.551-.247a.18.18 0 0 1-.037-.142.18.18 0 0 1 .037.142m.288-.229q.006.057.04.098a.2.2 0 0 0-.04-.098m.337.083a.183.183 0 0 1-.037-.241.183.183 0 0 1 .037.241m.281-.06a.18.18 0 0 1-.056-.23.18.18 0 0 1 .056.23m-1.848.577a.034.034 0 1 0 0-.067.034.034 0 0 0 0 .067M5.26 3.6a.034.034 0 1 0 0-.067.034.034 0 0 0 0 .067m-.217.217a.034.034 0 1 0 0-.067.034.034 0 0 0 0 .067m.109.218a.034.034 0 1 0 0-.068.034.034 0 0 0 0 .068m.108.217a.034.034 0 1 0 0-.067.034.034 0 0 0 0 .067m.143.292a.034.034 0 1 1-.068 0 .034.034 0 0 1 .068 0m.292-1.27a.034.034 0 1 0 0-.068.034.034 0 0 0 0 .068m.257-.107a.034.034 0 1 0 0-.068.034.034 0 0 0 0 .068m.287-.11a.034.034 0 1 0 0-.068.034.034 0 0 0 0 .067m.326-.086a.034.034 0 1 0 0-.067.034.034 0 0 0 0 .067m.326-.132a.034.034 0 1 0 0-.067.034.034 0 0 0 0 .067m.271-.042a.034.034 0 1 0 0-.068.034.034 0 0 0 0 .068m.272-.067a.034.034 0 1 0 0-.067.034.034 0 0 0 0 .067m-1.195.544a.034.034 0 1 0 0-.068.034.034 0 0 0 0 .068m0 .217a.034.034 0 1 0 0-.067.034.034 0 0 0 0 .067m.108.326a.034.034 0 1 0 0-.067.034.034 0 0 0 0 .067m.11.218a.034.034 0 1 0 0-.068.034.034 0 0 0 0 .068m.108.217a.034.034 0 1 0 0-.067.034.034 0 0 0 0 .067m4.782.326a.034.034 0 1 0 0-.067.034.034 0 0 0 0 .067m-.183-.034a.184.184 0 1 0 .3-.142.184.184 0 0 0 .17-.23.184.184 0 0 0 .108-.218.184.184 0 0 0-.106-.35l.004-.038a.184.184 0 0 0-.218-.18.184.184 0 0 0-.22-.178.184.184 0 0 0-.263-.132.184.184 0 0 0-.281-.092.184.184 0 0 0-.325-.075.184.184 0 0 0-.324-.087v-.017a.184.184 0 0 0-.3-.141.184.184 0 0 0-.262-.05.184.184 0 1 0-.057.231.184.184 0 0 0 .281.06.184.184 0 0 0 .298.015v.017a.184.184 0 0 0 .327.114q.008.045.034.08a.18.18 0 0 0 0 .218.183.183 0 0 0 .032.251.184.184 0 0 0-.17.23.184.184 0 0 0-.11.218.184.184 0 1 0 .247.123.184.184 0 0 0 .11-.217.184.184 0 0 0 .046-.313.184.184 0 0 0 .141-.292.2.2 0 0 0 .03-.067.18.18 0 0 0 .19.016.184.184 0 0 0 .212.122.184.184 0 0 0 .214.15.184.184 0 0 0 .222.176.2.2 0 0 0 .002.085.184.184 0 0 0-.109.217.184.184 0 0 0-.047.313.184.184 0 0 0-.176.183m-.579-1.372a.18.18 0 0 1-.255-.04.183.183 0 0 1 .256-.04.2.2 0 0 0-.001.08m.041-.04a.18.18 0 0 1 .03.15.18.18 0 0 1-.071-.11.2.2 0 0 0 .041-.04m0 0a.2.2 0 0 0-.04-.04.18.18 0 0 1 .072-.108.18.18 0 0 1-.032.147m-.297 1.04a.184.184 0 0 0-.246-.124.184.184 0 0 0 .246.123m.11-.218a.184.184 0 0 0-.248-.123.184.184 0 0 0 .247.123m.046-.313a.2.2 0 0 0-.116-.041h-.007a.2.2 0 0 0 .116.041zm.141-.292a.184.184 0 0 0-.296 0 .183.183 0 0 0 .296 0M9.39 2.844a.18.18 0 0 0 .057-.23.18.18 0 0 0-.057.23m.281.06a.183.183 0 0 0 .038-.241.183.183 0 0 0-.038.241m.338-.083a.2.2 0 0 1-.04.098.2.2 0 0 1 .04-.098m.287.229a.18.18 0 0 0 .037-.142.18.18 0 0 0-.037.142m.55.247a.184.184 0 0 0 .093-.222.184.184 0 0 0-.092.222m.212.122a.184.184 0 0 0 .144-.212.184.184 0 0 0-.144.212m.436.326a.18.18 0 0 0 .142-.142.18.18 0 0 0-.142.142m-.072-.36v.003c0 .09-.064.164-.15.18v-.003c0-.09.065-.165.15-.18m.074.445a.183.183 0 0 1 .246.123.183.183 0 0 1-.246-.123m-.109.217a.183.183 0 0 1 .247.123.183.183 0 0 1-.247-.123m.07.354a.2.2 0 0 1-.117-.041h.007q.068.001.116.04zm0-.15a.034.034 0 1 0 0-.067.034.034 0 0 0 0 .067m.108-.217a.034.034 0 1 0 0-.068.034.034 0 0 0 0 .068m.109-.218a.034.034 0 1 0 0-.067.034.034 0 0 0 0 .067m-.218-.217a.034.034 0 1 0 0-.067.034.034 0 0 0 0 .067m-.217-.178a.034.034 0 1 0 0-.067.034.034 0 0 0 0 .067m-.218-.148a.034.034 0 1 0 0-.068.034.034 0 0 0 0 .068m-.256-.107a.034.034 0 1 0 0-.067.034.034 0 0 0 0 .067m-.287-.11a.034.034 0 1 0 0-.068.034.034 0 0 0 0 .067m-.326-.086a.034.034 0 1 0 0-.067.034.034 0 0 0 0 .067m-.326-.132a.034.034 0 1 0 0-.067.034.034 0 0 0 0 .067m-.271-.042a.034.034 0 1 0 0-.068.034.034 0 0 0 0 .068m-.273-.067a.034.034 0 1 0 0-.067.034.034 0 0 0 0 .067m1.196.544a.034.034 0 0 0 0-.068.034.034 0 1 0 0 .068m0 .217a.034.034 0 0 0 0-.067.034.034 0 1 0 0 .067m-.109.326a.034.034 0 1 0 0-.067.034.034 0 0 0 0 .067m-.108.218a.034.034 0 1 0 0-.068.034.034 0 0 0 0 .068m-.11.217a.034.034 0 1 0 0-.067.034.034 0 0 0 0 .067"/><path fill="#F6C540" d="m8.326 1.616-.161.002v.265h-.297l.003.16h.294v.303l.162-.003v-.3l.292.001-.004-.16h-.289z"/><path fill="#C51918" d="M4.338 6.55h7.8v6.626s-.236 3.3-3.9 3.3-3.9-3.3-3.9-3.3z"/><path fill="#E8AA00" d="M6.693 6.78c-.072 0-.182.051-.328.11-.146.058-.299.183-.15.309.15.126.364.402.364.299s.256-.204.256-.154-.079.154.129.154.315.061.093.061-.246.101-.39.101-.451-.102-.451-.162.178.298.363.298c.186 0 .292.174.385.087s.082-.087.232-.087.096-.353.096-.353-.528-.663-.6-.663m3.011 0c.071 0 .181.051.327.11.146.058.3.183.15.309s-.364.402-.364.299-.256-.204-.256-.154.08.154-.128.154-.315.061-.093.061c.221 0 .245.101.39.101.144 0 .45-.102.45-.162s-.177.298-.363.298-.291.174-.384.087-.082-.087-.233-.087c-.15 0-.095-.353-.095-.353s.527-.663.599-.663"/><path fill="#F7FCFF" d="M5.625 7.5c-.15.349.997 1.644.997 1.644h.128c.054 0 .154-.133.275-.293.083-.11.176-.232.27-.334.178-.192.084-.352-.004-.502q-.042-.069-.07-.136a.7.7 0 0 1-.05-.18c-.007-.042-.013-.09-.051-.199-.055-.161-.248-.369-.381-.513-.052-.056-.095-.102-.117-.132-.072-.096-.018-.095.132-.094h.066c.199 0 .579.094.692.203.113.108.232.132.407.132s.067.117-.092.197c.171.032.25.318.284.572.065-.254.175-.54.346-.572-.16-.08-.267-.197-.092-.197s.294-.024.407-.132c.114-.11.493-.202.692-.202h.066c.15-.002.204-.003.132.093-.022.03-.065.076-.117.132-.133.144-.326.352-.38.513a1 1 0 0 0-.051.2.7.7 0 0 1-.05.179q-.029.067-.071.136c-.088.15-.182.31-.004.502.094.102.187.224.27.334.12.16.221.293.275.293h.128s1.146-1.295.997-1.644a2 2 0 0 0-.228-.367c-.123-.167-.205-.278-.04-.278.268 0 1.336.677 1.336 2.205s-.098 2.397-.327 3.006c-.157.415-.014.819.093 1.12.05.14.092.257.092.344 0 .271-.421.033-.421-.137 0-.08-.058.04-.118.166-.067.14-.137.286-.137.177 0-.115-.067-.238-.126-.345-.046-.085-.088-.16-.088-.217s-.06-.055-.125-.052c-.084.003-.18.006-.18-.11 0-.078-.03-.093-.067-.113-.062-.032-.145-.074-.145-.424 0-.26-.052-.168-.111-.062-.055.097-.117.205-.15.062a2 2 0 0 0-.08-.149 3 3 0 0 1-.166-.316c.078.306.265.624.384.776.123.157.336.498.336.498s-.199.111-.336 0c-.077-.061-.082-.003-.088.06-.004.05-.01.104-.05.104a.4.4 0 0 0-.07.007l-.044.006c-.024-.063-.05-.106-.05-.068 0 .056.019.069.05.068.046.117.088.304-.05.18-.1-.09-.169-.126-.214-.15-.054-.028-.075-.04-.075-.098s-.022-.038-.056-.008c-.029.027-.067.063-.11.063-.053 0-.064-.075-.08-.184-.011-.073-.024-.16-.054-.252l-.02-.06c-.06-.188-.087-.275-.155-.039a.8.8 0 0 1-.137.257c-.067.092-.12.166-.08.277l.056.146c.072.18.16.401.16.576 0 .103.095.245.184.377.104.156.2.3.127.358-.135.107.028.469.165.654.136.186.114.412-.093.412-.113 0-.175.042-.23.079-.046.03-.088.059-.152.059-.142 0-.217-.07-.217-.07s-.087.132-.232.132-.175-.132-.175-.132l-.33.132v-.578l-.008.578-.108-.132s-.03.132-.175.132-.232-.132-.232-.132-.075.07-.217.07c-.064 0-.106-.029-.152-.06-.055-.036-.117-.077-.23-.077-.207 0-.23-.227-.093-.413s.3-.547.165-.654c-.073-.058.024-.202.127-.358.09-.132.183-.274.183-.377 0-.175.089-.396.16-.576q.033-.08.057-.146c.04-.11-.013-.184-.08-.277a.8.8 0 0 1-.137-.257c-.068-.236-.096-.149-.155.038l-.02.061c-.03.091-.043.18-.054.252-.016.109-.027.184-.08.184-.042 0-.081-.036-.11-.062-.034-.031-.056-.051-.056.007s-.021.07-.074.098c-.046.024-.116.06-.214.15-.138.124-.097-.063-.051-.18.031 0 .05-.012.05-.068 0-.038-.025.005-.05.068l-.043-.006a.4.4 0 0 0-.071-.008c-.04 0-.046-.053-.05-.103-.006-.063-.01-.121-.088-.06-.137.111-.336 0-.336 0s.213-.341.336-.498a2.4 2.4 0 0 0 .385-.776 3 3 0 0 1-.167.316 2 2 0 0 0-.08.149c-.033.143-.095.035-.15-.062-.06-.106-.111-.198-.111.062 0 .35-.082.392-.145.424-.037.02-.068.035-.068.113 0 .116-.095.113-.179.11-.066-.003-.125-.005-.125.052s-.041.132-.088.217c-.059.107-.126.23-.126.345 0 .109-.07-.038-.137-.177-.06-.126-.118-.247-.118-.166 0 .17-.42.408-.42.137 0-.087.041-.204.09-.344.108-.301.25-.704.094-1.12-.229-.609-.327-1.478-.327-3.006s1.068-2.205 1.336-2.205c.165 0 .083.111-.04.278a2 2 0 0 0-.228.367"/><path fill="#E8AA00" d="M6.141 14.401c0-.105.27-.35.27-.35v.021c.038.03.279.23.279.327 0 .06-.032.147-.058.222-.02.056-.038.105-.038.13 0 .017.007.005.02-.018.034-.058.106-.182.208-.099.134.11.133.274.132.377v.018c0 .033 0 .032-.004.017-.01-.033-.038-.136-.128-.136-.132 0-.228.12-.228.12v.203s.017.169.096.085c.078-.085.095.104 0 .104-.05 0-.1.051-.148.102-.047.048-.093.096-.136.096v-.017c-.04-.003-.074-.045-.108-.088-.038-.046-.075-.094-.124-.094-.096 0-.079-.188 0-.103.078.084.095-.085.095-.085v-.204s-.095-.12-.227-.12c-.09 0-.12.104-.128.137-.005.015-.005.016-.005-.017v-.018c0-.103-.001-.266.133-.377.101-.083.173.041.207.099.013.023.02.035.02.018a.4.4 0 0 0-.05-.129c-.036-.074-.078-.16-.078-.22m3.588-.001c0-.105.27-.35.27-.35v.021c.037.03.278.23.278.327 0 .06-.031.147-.058.222a.6.6 0 0 0-.037.13c0 .017.007.005.02-.018.033-.058.106-.182.207-.099.134.11.133.274.133.377v.018c0 .033 0 .032-.005.017-.009-.033-.038-.136-.128-.136-.132 0-.227.12-.227.12v.203s.016.169.095.085c.079-.085.095.104 0 .104-.049 0-.099.051-.148.102-.047.048-.093.096-.136.096v-.017c-.04-.003-.074-.045-.108-.088-.037-.046-.075-.094-.124-.094-.095 0-.078-.188 0-.103.079.084.096-.085.096-.085v-.204s-.096-.12-.228-.12c-.09 0-.119.104-.128.137-.004.015-.004.016-.004-.017v-.018c0-.103-.002-.266.132-.377.101-.083.174.041.207.099.014.023.02.035.02.018a.4.4 0 0 0-.05-.129.6.6 0 0 1-.077-.22"/><path fill="#E8AA00" d="M5.873 13.77c.24 0 .289-.458.289-.458s.201-.209.201-.055c0 .083-.057.186-.1.265-.039.069-.066.119-.036.119h.333c.274 0-.048.129-.197.186-.067.026-.115.04-.16.052a1.3 1.3 0 0 0-.188.066c-.147.064-.21.483-.142.618.068.134-.069.077-.125 0-.031-.044-.054.016-.086.099a.8.8 0 0 1-.103.204c-.089.108-.088.012-.086-.193l.001-.11c0-.182.037-.184.09-.187.03 0 .063-.002.099-.031.077-.062.087-.094.11-.175q.01-.04.032-.1c.056-.164-.246.094-.33.216-.053.075-.089.083-.143.095a.5.5 0 0 0-.135.047c-.095.048-.069-.047-.038-.162a1 1 0 0 0 .038-.197c0-.097.059-.072.135-.04.044.019.095.04.142.04.122 0 .184-.05.262-.114l.012-.01c.062-.05-.073-.036-.234-.017l-.168.017c-.124.01-.132.002-.163-.025a.5.5 0 0 0-.153-.093c-.232-.101.15-.057.316 0 .093.032.171.01.264-.015a1 1 0 0 1 .263-.042m4.66 0c-.24 0-.288-.458-.288-.458s-.202-.209-.202-.055c0 .083.058.186.101.265.038.069.066.119.036.119h-.333c-.275 0 .048.129.196.186.068.026.115.04.161.052.055.016.108.031.188.066.147.064.21.483.142.618-.068.134.068.077.124 0 .032-.044.055.016.086.099a.8.8 0 0 0 .103.204c.09.108.088.012.086-.193v-.11c0-.182-.037-.184-.091-.187a.14.14 0 0 1-.098-.031c-.078-.062-.087-.094-.11-.175l-.032-.1c-.056-.164.245.094.33.216.052.075.088.083.142.095a.5.5 0 0 1 .135.047c.095.048.07-.047.038-.162a1 1 0 0 1-.038-.197c0-.097-.059-.072-.134-.04a.4.4 0 0 1-.143.04c-.121 0-.184-.05-.261-.114l-.013-.01c-.062-.05.074-.036.235-.017l.167.017c.124.01.132.002.163-.025a.5.5 0 0 1 .154-.093c.232-.101-.15-.057-.317 0-.093.032-.17.01-.263-.015a1 1 0 0 0-.263-.042"/><path fill="#C51918" d="M6.785 9.256H9.69v2.65s-.312 1.321-1.453 1.321-1.453-1.32-1.453-1.32z"/><path fill="#F7FCFF" d="M8.63 9.217h-.76v1.522H6.781v.544H7.87v1.956h.761v-1.956h1.087v-.544H8.63z"/><path fill="#F7FCFF" d="M7.275 9.982c.073 0 .108-.062.07-.116a.07.07 0 0 0-.103-.013L7.2 9.84a.1.1 0 0 0-.045 0c-.018.006-.028-.012-.02-.124.009-.031.052-.05.152-.05.183 0 .258.019.258.036v.269l-.088.08c-.043.039-.013.105.048.105h.04v.206q-.083.064-.15.063c-.163 0-.255-.06-.257-.133l.002-.047.014.005a.1.1 0 0 0 .047 0l.006-.002q.01-.003.011-.002.004.002.002.023v.02c-.002.034.028.062.066.063.037 0 .068-.026.07-.06.002-.119-.065-.187-.175-.164-.065-.02-.111-.017-.147.023-.026.03-.03.054-.032.141.005.15.164.256.394.256q.134-.001.264-.115a.06.06 0 0 0 .021-.044v-.295a.06.06 0 0 0-.026-.048l.006-.007a.06.06 0 0 0 .02-.043v-.294c0-.126-.13-.16-.394-.16-.156 0-.258.047-.285.155-.015.186.04.297.176.265a.4.4 0 0 0 .097.019m1.91-.116c-.04.054-.005.116.068.116a.4.4 0 0 0 .098-.019c.136.032.19-.079.175-.265-.027-.108-.129-.154-.285-.154-.264 0-.394.033-.394.159v.294q.001.025.02.043l.007.007a.06.06 0 0 0-.027.048v.295q0 .025.021.044a.4.4 0 0 0 .265.115c.23 0 .389-.105.394-.256-.003-.087-.007-.111-.033-.141-.035-.04-.081-.043-.146-.023-.11-.023-.177.045-.175.164.001.034.032.06.07.06.037-.001.067-.029.066-.063v-.02q-.002-.021.001-.023l.012.002.006.002a.1.1 0 0 0 .046 0l.014-.005.003.047c-.003.072-.095.133-.258.133q-.066 0-.15-.063v-.206h.041c.06 0 .09-.066.048-.105l-.089-.08v-.27c0-.016.075-.036.258-.036.1 0 .143.02.152.05.008.113-.002.131-.02.126a.1.1 0 0 0-.045-.001l-.042.012-.008-.005a.07.07 0 0 0-.094.018m.228.375H9.41zm-.16 1.697c-.073 0-.107-.061-.069-.116a.07.07 0 0 1 .102-.013l.042-.011a.1.1 0 0 1 .045 0c.018.006.028-.012.02-.125-.009-.031-.052-.05-.152-.05-.183 0-.258.02-.258.036v.27l.089.08c.043.038.012.104-.048.104h-.04v.206q.083.064.149.064c.163 0 .255-.061.258-.133l-.002-.047-.015.004a.1.1 0 0 1-.046 0l-.006-.001q-.009-.003-.012-.002-.003.002-.001.022v.02c.001.034-.029.063-.066.063-.038.001-.069-.026-.07-.06-.002-.118.064-.187.175-.164.065-.019.11-.017.146.023.026.03.03.054.033.142-.005.15-.164.255-.394.255a.4.4 0 0 1-.265-.115.06.06 0 0 1-.02-.044v-.294q.001-.031.026-.049l-.007-.006a.06.06 0 0 1-.02-.043v-.295c0-.125.13-.159.394-.159.156 0 .258.046.286.155.015.186-.04.297-.176.265a.4.4 0 0 1-.098.018m-1.978 0c.073 0 .108-.061.07-.116a.07.07 0 0 0-.103-.013l-.042-.011a.1.1 0 0 0-.045 0c-.018.006-.028-.012-.02-.125.009-.031.052-.05.152-.05.183 0 .258.02.258.036v.27l-.088.08c-.043.038-.013.104.048.104h.04v.206q-.083.064-.15.064c-.163 0-.255-.061-.257-.133l.002-.047.014.004a.07.07 0 0 0 .053-.001q.01-.003.011-.002.004.002.002.022v.02c-.002.034.028.063.066.063.037.001.068-.026.07-.06.002-.118-.065-.187-.175-.164-.065-.019-.111-.017-.147.023-.026.03-.03.054-.032.142.005.15.164.255.394.255q.134-.001.264-.115a.06.06 0 0 0 .021-.044v-.294a.06.06 0 0 0-.026-.049l.006-.006a.06.06 0 0 0 .02-.043v-.295c0-.125-.13-.159-.394-.159-.156 0-.258.046-.285.155-.015.186.04.297.176.265a.4.4 0 0 0 .097.018"/></g></g></g><rect width="23" height="17" x=".5" y=".5" stroke="#000" stroke-opacity=".1" rx="1.5"/><defs><clipPath id="a"><rect width="24" height="18" fill="#fff" rx="2"/></clipPath></defs></svg>