<svg xmlns="http://www.w3.org/2000/svg" fill="none" viewBox="0 0 24 18"><g clip-path="url(#a)"><mask id="b" width="24" height="18" x="0" y="0" maskUnits="userSpaceOnUse" style="mask-type:luminance"><path fill="#fff" d="M0 0h24v18H0z"/></mask><g mask="url(#b)"><path fill="#2E42A5" fill-rule="evenodd" d="M0 0v18h24V0z" clip-rule="evenodd"/><mask id="c" width="24" height="18" x="0" y="0" maskUnits="userSpaceOnUse" style="mask-type:luminance"><path fill="#fff" fill-rule="evenodd" d="M0 0v18h24V0z" clip-rule="evenodd"/></mask><g fill-rule="evenodd" clip-rule="evenodd" mask="url(#c)"><path fill="#F7FCFF" d="m2.47 7.548-.663.41.258-.69-.565-.522h.685L2.47 6l.218.746h.686l-.494.523.242.69zm3-3-.663.41.258-.69-.565-.522h.685L5.47 3l.218.746h.686l-.494.523.242.69zm3 3-.663.41.258-.69-.565-.522h.685L8.47 6l.218.746h.686l-.494.523.242.69zm-3 3-.663.41.258-.69-.565-.522h.685L5.47 9l.218.746h.686l-.494.523.242.69z"/><path fill="#FECA00" d="M18.631 4.097C15.57 5.61 5.506 12.41 5.506 12.41h16.763q-.25-.056-.47-.098c-1.231-.245-1.839-.366-3.168-3.013-1.488-2.964 0-5.2 0-5.2m-13.67 9.377-.229.57.23.626 17.065.33.473-.87-.473-.626z"/></g></g></g><rect width="23" height="17" x=".5" y=".5" stroke="#000" stroke-opacity=".1" rx="1.5"/><defs><clipPath id="a"><rect width="24" height="18" fill="#fff" rx="2"/></clipPath></defs></svg>