<svg xmlns="http://www.w3.org/2000/svg" fill="none" viewBox="0 0 24 18"><g clip-path="url(#a)"><mask id="b" width="24" height="18" x="0" y="0" maskUnits="userSpaceOnUse" style="mask-type:luminance"><path fill="#fff" d="M0 0h24v18H0z"/></mask><g mask="url(#b)"><path fill="#3D58DB" fill-rule="evenodd" d="M0 0v18h24V0H0Z" clip-rule="evenodd"/><mask id="c" width="24" height="18" x="0" y="0" maskUnits="userSpaceOnUse" style="mask-type:luminance"><path fill="#fff" fill-rule="evenodd" d="M0 0v18h24V0H0Z" clip-rule="evenodd"/></mask><g mask="url(#c)"><path fill="#F7FCFF" fill-rule="evenodd" d="M0 0v6h24V0H0Z" clip-rule="evenodd"/><path fill="#E31D1C" fill-rule="evenodd" d="M0 12v6h24v-6H0Z" clip-rule="evenodd"/><path fill="#E31D1C" stroke="#fff" d="m11.703 4.523.497-.053-.047-.447H4.29l-.031.466.499.034-.5-.034v.014l-.002.034-.009.132a94.915 94.915 0 0 0-.107 2.019c-.048 1.15-.081 2.515.005 3.16.166 1.248.928 4.069 3.89 5.348l.201.087.2-.09c2.81-1.255 3.747-3.785 3.963-5.343.11-.788.054-2.155-.021-3.277a61.2 61.2 0 0 0-.162-1.933l-.012-.125-.004-.033V4.47l-.498.053Z"/><mask id="d" width="10" height="13" x="3" y="3" maskUnits="userSpaceOnUse" style="mask-type:luminance"><path fill="#fff" stroke="#fff" d="m11.703 4.523.497-.053-.047-.447H4.29l-.031.466.499.034-.5-.034v.014l-.002.034-.009.132a94.915 94.915 0 0 0-.107 2.019c-.048 1.15-.081 2.515.005 3.16.166 1.248.928 4.069 3.89 5.348l.201.087.2-.09c2.81-1.255 3.747-3.785 3.963-5.343.11-.788.054-2.155-.021-3.277a61.2 61.2 0 0 0-.162-1.933l-.012-.125-.004-.033V4.47l-.498.053Z"/></mask><g fill-rule="evenodd" clip-rule="evenodd" mask="url(#d)"><path fill="#F7FCFF" d="M7.693 4.942s.155.236.224.597c.07.361.081.993.081.993l-1.469-.18v1.113l1.502-.191-.024 1.057s-.45.047-.818 0c-.369-.046-1.095-.241-1.095-.241v1.275s.738-.236 1.095-.29a3.7 3.7 0 0 1 .818 0v1.566h.61V9.075s.666-.058 1.064.004c.397.063.775.286.775.286V8.09s-.383.19-.743.237c-.36.048-1.097.004-1.097.004l.025-1.057s.499-.052.779-.014.63.205.63.205V6.351s-.341.186-.61.22c-.269.033-.832-.039-.832-.039s.01-.652.068-.97c.058-.318.221-.62.221-.62H7.693Z"/><path fill="#2E42A5" d="M5.173 12.184s.33-.707.866-.842 1.099.42 1.099.42.343-1.121 1.18-1.121 1.131 1.122 1.131 1.122.357-.421.87-.421c.514 0 .99.842.99.842s-1.534 2.785-3.068 2.785-3.068-2.785-3.068-2.785Z"/></g></g></g></g><path stroke="#000" stroke-opacity=".1" stroke-width=".5" d="M.25.25h23.5v17.5H.25z"/><defs><clipPath id="a"><path fill="#fff" d="M0 0h24v18H0z"/></clipPath></defs></svg>