<svg xmlns="http://www.w3.org/2000/svg" fill="none" viewBox="0 0 24 18"><g clip-path="url(#a)"><mask id="b" width="24" height="18" x="0" y="0" maskUnits="userSpaceOnUse" style="mask-type:luminance"><path fill="#fff" d="M0 0h24v18H0z"/></mask><g mask="url(#b)"><path fill="#C51918" fill-rule="evenodd" d="M0 0h24v18H0V0Z" clip-rule="evenodd"/><path fill="#4564F9" fill-rule="evenodd" d="M3 3h18v12H3V3Z" clip-rule="evenodd"/><path stroke="#CBDAFF" stroke-opacity=".1" stroke-width="2" d="M4 4h16v10H4V4Z"/><mask id="c" width="18" height="12" x="3" y="3" maskUnits="userSpaceOnUse" style="mask-type:luminance"><path fill="#fff" fill-rule="evenodd" d="M3 3h18v12H3V3Z" clip-rule="evenodd"/><path stroke="#fff" stroke-width="2" d="M4 4h16v10H4V4Z"/></mask><g mask="url(#c)"><path stroke="#C1C9F1" stroke-opacity=".118" stroke-width="2.9" d="m12.375 3.75.607-1.317-.621-.286-.616.297.63 1.306Zm0 0 .607-1.317h.002l.002.002.005.002.016.008a5.902 5.902 0 0 1 .21.104 11.87 11.87 0 0 1 2.156 1.439c1.136.959 2.577 2.594 2.577 4.827 0 2.204-1.411 3.925-2.523 4.964a13.312 13.312 0 0 1-2.329 1.728l-.015.008-.005.003-.002.001h-.001l-.7-1.269m0-10.5-.63-1.306h-.002l-.002.002-.005.002-.015.008a6.908 6.908 0 0 0-.208.107A12.4 12.4 0 0 0 9.37 4.027C8.25 4.985 6.8 6.621 6.8 8.815c0 2.164 1.419 3.887 2.517 4.925a13.903 13.903 0 0 0 2.268 1.728l.047.027.014.009.005.003h.002l.001.001.721-1.258m0 0 .7 1.27-.714.393-.706-.404.72-1.259Z"/><path fill="#CCE0E5" d="m12.3 4.528.686-1.278-.702-.377-.695.39.71 1.265Zm0 0c.686-1.278.687-1.277.687-1.277h.001l.002.002.005.002.014.008a3.63 3.63 0 0 1 .167.097 9.135 9.135 0 0 1 1.641 1.277c.874.86 1.933 2.286 1.933 4.189 0 1.879-1.036 3.372-1.882 4.293a10.436 10.436 0 0 1-1.726 1.5l-.038.026-.012.008-.005.003-.002.001c-.001.001-.002.001-.785-1.219m0-8.91a218.395 218.395 0 0 0-.712-1.264h-.001l-.002.002-.005.003-.013.007-.04.023a8.653 8.653 0 0 0-.534.35c-.329.232-.77.577-1.217 1.022-.86.858-1.926 2.283-1.926 4.155 0 1.846 1.042 3.34 1.876 4.259a10.931 10.931 0 0 0 1.711 1.52l.038.026.012.008.004.003.002.001h.001l.806-1.205m0 0 .784 1.22-.8.514-.79-.528.806-1.206Z"/><path stroke="#C1C9F1" stroke-opacity=".748" stroke-width="2.9" d="m12.3 4.528.686-1.278-.702-.377-.695.39.71 1.265Zm0 0c.686-1.278.687-1.277.687-1.277h.001l.002.002.005.002.014.008a3.63 3.63 0 0 1 .167.097 9.135 9.135 0 0 1 1.641 1.277c.874.86 1.933 2.286 1.933 4.189 0 1.879-1.036 3.372-1.882 4.293a10.436 10.436 0 0 1-1.726 1.5l-.038.026-.012.008-.005.003-.002.001c-.001.001-.002.001-.785-1.219m0-8.91a218.395 218.395 0 0 0-.712-1.264h-.001l-.002.002-.005.003-.013.007-.04.023a8.653 8.653 0 0 0-.534.35c-.329.232-.77.577-1.217 1.022-.86.858-1.926 2.283-1.926 4.155 0 1.846 1.042 3.34 1.876 4.259a10.931 10.931 0 0 0 1.711 1.52l.038.026.012.008.004.003.002.001h.001l.806-1.205m0 0 .784 1.22-.8.514-.79-.528.806-1.206Z"/><path stroke="#C51918" stroke-width="2.9" d="m12.3 4.528.686-1.278-.702-.377-.695.39.71 1.265Zm0 0c.686-1.278.687-1.277.687-1.277h.001l.002.002.005.002.014.008a3.63 3.63 0 0 1 .167.097 9.135 9.135 0 0 1 1.641 1.277c.874.86 1.933 2.286 1.933 4.189 0 1.879-1.036 3.372-1.882 4.293a10.436 10.436 0 0 1-1.726 1.5l-.038.026-.012.008-.005.003-.002.001c-.001.001-.002.001-.785-1.219m0-8.91a218.395 218.395 0 0 0-.712-1.264h-.001l-.002.002-.005.003-.013.007-.04.023a8.653 8.653 0 0 0-.534.35c-.329.232-.77.577-1.217 1.022-.86.858-1.926 2.283-1.926 4.155 0 1.846 1.042 3.34 1.876 4.259a10.931 10.931 0 0 0 1.711 1.52l.038.026.012.008.004.003.002.001h.001l.806-1.205m0 0 .784 1.22-.8.514-.79-.528.806-1.206Z"/><mask id="d" width="7" height="10" x="9" y="4" maskUnits="userSpaceOnUse" style="mask-type:luminance"><path fill="#fff" d="M12.731 11.159a7.2 7.2 0 0 1-.42.42 7.66 7.66 0 0 1-.437-.442c-.667-.735-1.124-1.548-1.124-2.311 0-.74.434-1.463 1.074-2.102.165-.165.332-.311.488-.438.15.12.31.26.47.417.626.616 1.068 1.34 1.068 2.123 0 .806-.464 1.62-1.119 2.333Z"/><path stroke="#fff" stroke-width="2.9" d="M12.731 11.159a7.2 7.2 0 0 1-.42.42 7.66 7.66 0 0 1-.437-.442c-.667-.735-1.124-1.548-1.124-2.311 0-.74.434-1.463 1.074-2.102.165-.165.332-.311.488-.438.15.12.31.26.47.417.626.616 1.068 1.34 1.068 2.123 0 .806-.464 1.62-1.119 2.333Z"/></mask><g mask="url(#d)"><path fill="#91CBCB" d="M9.7 10.5h5.6v1.125H9.7z"/><path fill="#FDF9A1" fill-rule="evenodd" d="M10.201 11.399s3.97 0 4.336-.136c.365-.137-.686 2.63-2.027 2.63-1.342 0-2.309-2.495-2.309-2.495Z" clip-rule="evenodd"/><path fill="#A68861" d="m13.945 11.066-.713.55c-1.124-1.462-1.596-2.973-1.394-4.515l.892.116c-.168 1.292.23 2.569 1.215 3.85Z"/><path fill="#239E46" fill-rule="evenodd" d="m12.295 7.228-.647.758c-.034.04-.099.007-.087-.044l.223-.944h-1.005c-.054 0-.07-.074-.02-.096l.855-.375-.62-.816c-.03-.04.012-.095.059-.077l.974.38.22-.883c.012-.051.084-.051.097 0l.218.883.962-.374c.048-.019.09.038.057.078l-.667.81.904.374c.05.02.035.096-.02.096h-.884l.138.974a.05.05 0 0 1-.088.04l-.669-.784ZM11.7 9.75h3.6v.787h-3.6V9.75Z" clip-rule="evenodd"/><path fill="#C51918" fill-rule="evenodd" d="M11.154 9.294h-.003a.165.165 0 0 1-.077.097.288.288 0 0 1-.156.038.352.352 0 0 1-.141-.028.297.297 0 0 1-.11-.081.388.388 0 0 1-.071-.134.597.597 0 0 1-.026-.183.6.6 0 0 1 .025-.183.37.37 0 0 1 .072-.133.31.31 0 0 1 .113-.082.367.367 0 0 1 .146-.029c.075 0 .138.017.189.05.05.033.089.077.116.131l-.083.05a.233.233 0 0 0-.086-.104.24.24 0 0 0-.136-.038.254.254 0 0 0-.1.02.229.229 0 0 0-.13.14.324.324 0 0 0-.018.11v.134c0 .04.006.078.018.111a.224.224 0 0 0 .132.14.296.296 0 0 0 .19.008.205.205 0 0 0 .068-.032.159.159 0 0 0 .063-.136v-.082h-.184v-.087h.283v.424h-.094v-.12Zm.627-.704v.51c0 .08.014.14.044.18.03.04.082.06.156.06s.126-.02.156-.06c.03-.04.044-.1.044-.18v-.51h.101v.487c0 .06-.005.112-.016.156a.272.272 0 0 1-.052.11.214.214 0 0 1-.094.065.417.417 0 0 1-.143.021.406.406 0 0 1-.14-.021.207.207 0 0 1-.092-.065.27.27 0 0 1-.05-.11.712.712 0 0 1-.015-.156V8.59h.1Zm1.467.825-.084-.243h-.338l-.084.243h-.102l.293-.825h.128l.293.825h-.106Zm-.25-.732h-.007l-.141.401h.289l-.142-.401Zm1.388.037h-.006l-.071.139-.2.359-.2-.36-.072-.138h-.006v.695h-.098V8.59h.134l.24.445h.006l.242-.445h.13v.825h-.1V8.72Z" clip-rule="evenodd"/></g></g></g></g><rect width="23" height="17" x=".5" y=".5" stroke="#000" stroke-opacity=".1" rx="1.5"/><defs><clipPath id="a"><rect width="24" height="18" fill="#fff" rx="2"/></clipPath></defs></svg>