<svg xmlns="http://www.w3.org/2000/svg" fill="none" viewBox="0 0 24 18"><g clip-path="url(#a)"><path fill="#C00" d="M0 0h6v6H0z"/><path fill="#08672F" d="M6 .78V0h-.734L0 5.22V6h.734L6 .78Z"/><path fill="#08672F" d="M0 .78V0h.734L6 5.22V6h-.748L0 .78Z"/><path fill="#fff" d="m0 2.258 6-.008v1.492L0 3.75V2.258Z"/><path fill="#fff" d="M2.25 0h1.492l.008 6H2.258L2.25 0ZM0 6h6v6H0V6Z"/><path fill="#000" fill-rule="evenodd" d="M4.919 6.793c0-.024.003-.05.007-.06.01-.024.031-.023.04.001.003.012.01.056.013.101a.59.59 0 0 0 .064.235.82.82 0 0 0 .121.177l.037.045-.07-.002a.395.395 0 0 1-.081-.008c-.011-.006-.014 0-.018.035-.003.046-.024.083-.057.1-.018.012-.025.01-.042-.001a.163.163 0 0 1-.058-.103c-.005-.031-.007-.034-.022-.025a.356.356 0 0 1-.14.006c0-.004.02-.03.043-.057a.686.686 0 0 0 .163-.444ZM.803 8.964a.157.157 0 0 1 .024-.058c.022-.029.04-.035.03-.011a.121.121 0 0 0 .015.118c.03.046.036.108.016.152-.022.047-.07.049-.1.002-.024-.037-.026-.08-.005-.133a.447.447 0 0 0 .02-.07Zm2.75-.045a.157.157 0 0 1 .025-.059c.021-.028.04-.035.03-.01a.121.121 0 0 0 .014.118c.03.046.037.107.016.151-.022.048-.07.05-.1.003-.024-.037-.025-.081-.005-.133a.45.45 0 0 0 .02-.07Zm-1.39.028a.157.157 0 0 1 .025-.059c.022-.029.04-.035.03-.01a.121.121 0 0 0 .015.118c.03.045.036.107.016.15-.022.049-.07.05-.1.004-.024-.038-.026-.081-.005-.133a.449.449 0 0 0 .02-.07Zm2.626.194c-.037.028-.077.035-.107.019-.023-.013-.026-.005-.006.021a.1.1 0 0 0 .052.033.81.81 0 0 1 .074.025c.05.021.094.02.127-.002.067-.046.023-.126-.068-.124a.11.11 0 0 0-.072.028Zm.2.094a.204.204 0 0 0-.007.06.686.686 0 0 1-.163.444.36.36 0 0 0-.042.057c0 .009.123.004.14-.006.014-.008.016-.006.021.026.008.042.03.083.058.102.017.012.024.013.043.002.032-.018.053-.054.056-.1.004-.036.007-.042.018-.036a.396.396 0 0 0 .082.008l.07.003-.038-.046a.82.82 0 0 1-.12-.176.59.59 0 0 1-.065-.236.709.709 0 0 0-.013-.1c-.008-.024-.029-.026-.04-.002Zm-2.694-.066a.105.105 0 0 0-.038.03c-.045.065.06.135.136.09.08-.05.083-.05.121-.037.034.011.035.011.028-.003-.013-.027-.034-.039-.114-.067-.092-.031-.095-.031-.133-.013Zm-.42.046c.03.016.07.01.107-.019a.11.11 0 0 1 .072-.028c.09-.001.135.078.067.124-.033.023-.077.024-.127.002a.809.809 0 0 0-.074-.025.106.106 0 0 1-.052-.033c-.02-.026-.017-.034.006-.021Zm.306.075a.204.204 0 0 0-.007.06.686.686 0 0 1-.162.444.363.363 0 0 0-.043.057c0 .01.124.004.14-.006.015-.008.016-.005.022.026.007.042.03.083.057.102.018.012.024.013.043.002.033-.017.053-.054.057-.1.003-.036.006-.042.017-.036a.395.395 0 0 0 .083.008l.069.003-.037-.046a.82.82 0 0 1-.12-.176.589.589 0 0 1-.065-.236.712.712 0 0 0-.013-.1c-.009-.024-.03-.025-.04-.002Zm1.503-.149a.105.105 0 0 0-.038.03c-.045.066.061.135.136.09.08-.05.083-.05.122-.037.033.011.034.011.028-.003-.014-.027-.035-.039-.115-.067-.092-.031-.095-.031-.133-.013Zm-.42.046c.03.017.07.01.107-.019a.11.11 0 0 1 .072-.028c.09-.001.135.078.068.124-.034.023-.078.024-.128.002a.807.807 0 0 0-.073-.025.106.106 0 0 1-.053-.032c-.02-.027-.017-.035.007-.022Zm.307.075a.204.204 0 0 0-.008.06.686.686 0 0 1-.162.444.362.362 0 0 0-.043.057c0 .01.124.004.14-.006.015-.008.016-.005.022.026.007.043.03.083.058.102.017.012.024.013.042.002.033-.017.054-.054.057-.1.003-.036.007-.042.017-.036a.394.394 0 0 0 .083.009l.069.002-.037-.046a.82.82 0 0 1-.12-.176.59.59 0 0 1-.065-.235.709.709 0 0 0-.013-.101c-.009-.024-.03-.025-.04-.002ZM.934 9.187a.106.106 0 0 0-.038.03c-.045.065.06.135.136.09.08-.05.083-.05.121-.037.034.01.035.01.028-.003-.013-.027-.034-.04-.114-.067-.092-.032-.095-.032-.133-.013Zm1.184-2.4a.204.204 0 0 0-.007.061.686.686 0 0 1-.162.444.362.362 0 0 0-.043.057c0 .009.123.004.14-.006.014-.009.016-.006.021.025.008.043.03.084.058.103.018.012.024.013.043.002.033-.018.053-.055.057-.101.003-.035.006-.041.017-.035a.394.394 0 0 0 .082.008l.07.002-.037-.045a.82.82 0 0 1-.121-.177.59.59 0 0 1-.064-.235.707.707 0 0 0-.014-.1c-.008-.024-.029-.026-.04-.003ZM3.5 6.82c0-.024.003-.05.007-.06.011-.024.032-.022.04.002a.7.7 0 0 1 .014.1.589.589 0 0 0 .064.235.82.82 0 0 0 .12.177l.038.046-.07-.003a.395.395 0 0 1-.082-.008c-.01-.006-.014 0-.017.035-.004.046-.024.083-.057.1-.019.012-.025.011-.043-.001a.163.163 0 0 1-.057-.103c-.006-.03-.007-.033-.022-.025a.357.357 0 0 1-.14.006c0-.004.02-.029.043-.057A.686.686 0 0 0 3.5 6.82ZM.772 6.805a.204.204 0 0 0-.007.06.76.76 0 0 1-.046.246l.002.275c.008.042.03.083.058.102.018.012.024.013.043.002.033-.017.053-.054.057-.1.003-.036.006-.042.017-.036a.395.395 0 0 0 .082.008l.07.003-.038-.046a.82.82 0 0 1-.12-.176.589.589 0 0 1-.064-.236.709.709 0 0 0-.014-.1c-.008-.024-.029-.025-.04-.002Zm3.522 3.392a.158.158 0 0 1 .024-.058c.022-.029.04-.035.03-.011a.121.121 0 0 0 .015.118c.03.046.036.107.016.152-.022.047-.07.049-.1.002-.024-.037-.026-.08-.005-.133a.449.449 0 0 0 .02-.07Zm.131.223a.106.106 0 0 0-.038.03c-.045.065.06.135.136.09.08-.05.083-.051.122-.037.033.01.034.01.027-.004-.013-.026-.034-.038-.114-.066-.092-.032-.095-.032-.133-.013Zm-.42.046c.03.016.07.01.107-.02a.111.111 0 0 1 .072-.027c.09-.002.135.078.068.123-.034.023-.078.024-.128.003a.786.786 0 0 0-.073-.026.106.106 0 0 1-.053-.032c-.02-.026-.017-.034.006-.021Zm.321.068a.2.2 0 0 0-.007.06.676.676 0 0 1-.162.44.361.361 0 0 0-.043.056.36.36 0 0 0 .14-.006c.014-.008.016-.005.022.026a.16.16 0 0 0 .057.101c.018.012.024.013.043.002.033-.018.053-.054.057-.1.003-.035.006-.04.017-.035a.4.4 0 0 0 .082.008l.07.003-.037-.046a.808.808 0 0 1-.121-.174.58.58 0 0 1-.064-.233.7.7 0 0 0-.013-.1c-.009-.024-.03-.025-.04-.002Zm-2.84-.282a.157.157 0 0 1 .025-.058c.022-.029.04-.035.03-.011a.121.121 0 0 0 .015.118c.03.046.036.108.015.152-.022.047-.07.049-.1.002-.024-.037-.025-.08-.005-.133a.45.45 0 0 0 .02-.07Zm.132.223a.107.107 0 0 0-.038.03c-.045.065.06.135.135.09.08-.05.083-.05.122-.037.033.01.035.01.028-.003-.014-.027-.034-.04-.115-.067-.091-.032-.095-.031-.132-.013Zm-.421.046c.03.016.07.01.107-.02a.11.11 0 0 1 .072-.027c.091-.002.135.078.068.123-.033.023-.078.024-.127.003a.812.812 0 0 0-.074-.026.106.106 0 0 1-.052-.032c-.02-.026-.017-.034.006-.021Zm.323.068a.2.2 0 0 0-.008.06.676.676 0 0 1-.162.44.36.36 0 0 0-.043.056.36.36 0 0 0 .14-.006c.015-.008.016-.005.022.026a.16.16 0 0 0 .057.101c.018.012.025.013.043.002.033-.018.054-.054.057-.1.003-.035.007-.04.017-.035a.4.4 0 0 0 .083.008l.069.003-.037-.046a.81.81 0 0 1-.12-.174.58.58 0 0 1-.065-.233.701.701 0 0 0-.013-.1c-.009-.024-.03-.025-.04-.002Zm1.356-.364a.156.156 0 0 1 .024-.059c.022-.029.04-.035.03-.011a.121.121 0 0 0 .015.118c.03.046.036.108.016.152-.023.047-.071.05-.1.002-.024-.037-.026-.08-.005-.133a.449.449 0 0 0 .02-.07Zm.131.222a.106.106 0 0 0-.038.03c-.045.065.06.135.135.09.081-.05.083-.05.122-.037.033.01.035.01.028-.003-.013-.027-.034-.039-.114-.067-.092-.032-.096-.031-.133-.013Zm-.42.046c.029.016.07.01.106-.019a.11.11 0 0 1 .072-.028c.092-.002.136.078.068.124-.033.023-.077.023-.127.002a.847.847 0 0 0-.074-.026.106.106 0 0 1-.052-.032c-.02-.026-.017-.034.006-.021Zm.321.068a.2.2 0 0 0-.007.06.676.676 0 0 1-.162.44.36.36 0 0 0-.043.056.36.36 0 0 0 .14-.006c.014-.008.016-.005.022.026a.16.16 0 0 0 .057.101c.018.012.024.013.043.002.033-.017.053-.054.057-.1.003-.034.006-.04.017-.035a.4.4 0 0 0 .082.009l.07.002-.037-.045a.816.816 0 0 1-.121-.175.58.58 0 0 1-.064-.233.695.695 0 0 0-.013-.1c-.009-.024-.03-.025-.04-.002Zm1.337-2.899a.157.157 0 0 1 .025-.058c.021-.03.04-.036.03-.011a.121.121 0 0 0 .014.118c.03.046.037.107.016.151-.022.048-.07.05-.1.003-.024-.037-.025-.08-.005-.133a.447.447 0 0 0 .02-.07Zm.132.223a.106.106 0 0 0-.039.029c-.044.066.061.135.136.09.08-.05.083-.05.122-.037.033.011.035.011.028-.003-.014-.026-.035-.038-.115-.066-.092-.032-.095-.032-.132-.013Zm-.421.045c.03.017.07.01.107-.018a.11.11 0 0 1 .072-.028c.091-.002.135.078.068.123-.033.023-.078.024-.128.003a.8.8 0 0 0-.073-.026.106.106 0 0 1-.053-.032c-.019-.026-.017-.035.007-.022Zm.307.075a.204.204 0 0 0-.007.061.686.686 0 0 1-.163.444.362.362 0 0 0-.042.057c0 .009.123.004.14-.006.014-.009.016-.006.021.025.007.043.03.083.058.103.017.012.024.013.043.002.032-.018.053-.055.056-.101.004-.035.007-.042.018-.035a.396.396 0 0 0 .082.008l.07.002L4.5 8.52a.82.82 0 0 1-.12-.177.589.589 0 0 1-.065-.235.713.713 0 0 0-.013-.1c-.009-.025-.03-.026-.04-.003Zm-2.825-.288a.157.157 0 0 1 .024-.058c.022-.029.04-.036.03-.011a.121.121 0 0 0 .015.118c.03.046.036.107.016.151-.023.048-.071.05-.1.003-.024-.037-.026-.08-.005-.133a.447.447 0 0 0 .02-.07Zm.131.223a.106.106 0 0 0-.038.029c-.045.066.06.135.136.09.08-.05.082-.05.121-.036.033.01.035.01.028-.004-.013-.026-.034-.038-.114-.066-.092-.032-.095-.032-.133-.013Zm-.42.046c.029.016.07.009.107-.02a.11.11 0 0 1 .071-.027c.092-.002.136.078.068.123-.033.023-.077.024-.127.003a.807.807 0 0 0-.074-.026.106.106 0 0 1-.052-.032c-.02-.026-.017-.034.006-.021Zm.306.074a.204.204 0 0 0-.007.061.686.686 0 0 1-.162.444.36.36 0 0 0-.043.057c0 .009.123.004.14-.006.014-.009.016-.006.022.025.007.043.03.084.057.103.018.012.024.013.043.002.033-.018.053-.055.057-.101.003-.035.006-.041.017-.035a.395.395 0 0 0 .082.008l.07.002-.037-.045a.82.82 0 0 1-.121-.177.59.59 0 0 1-.064-.235.71.71 0 0 0-.013-.1c-.01-.025-.03-.026-.04-.003Zm1.372-.37a.157.157 0 0 1 .024-.059c.022-.029.04-.035.03-.011a.121.121 0 0 0 .015.118c.03.046.036.108.016.152-.022.047-.07.049-.1.002-.024-.037-.026-.08-.005-.133a.45.45 0 0 0 .02-.07Zm.131.222a.105.105 0 0 0-.038.03c-.045.065.06.135.136.09.08-.05.083-.05.122-.037.033.01.034.01.027-.004-.013-.026-.034-.038-.114-.066-.092-.032-.095-.032-.133-.013Zm-.42.046c.03.016.07.01.107-.02a.11.11 0 0 1 .072-.027c.09-.002.135.078.067.124-.033.022-.077.023-.127.002a.808.808 0 0 0-.073-.026.106.106 0 0 1-.053-.032c-.02-.026-.017-.034.006-.021Zm.306.075a.204.204 0 0 0-.007.06.686.686 0 0 1-.162.444.361.361 0 0 0-.043.057c0 .009.124.004.14-.006.015-.008.016-.006.022.025.007.043.03.084.057.103.018.012.025.013.043.002.033-.018.054-.055.057-.101.003-.035.007-.041.017-.035a.395.395 0 0 0 .083.008l.069.002-.037-.045a.82.82 0 0 1-.12-.177.59.59 0 0 1-.065-.235.709.709 0 0 0-.013-.1c-.009-.024-.03-.026-.04-.002ZM.811 9.374c0-.024.003-.05.007-.06.011-.024.032-.022.04.001.004.012.01.056.014.101a.59.59 0 0 0 .064.235.82.82 0 0 0 .12.177l.037.045-.069-.002a.396.396 0 0 1-.082-.008c-.01-.006-.014 0-.018.035-.003.046-.024.083-.056.1-.019.012-.025.01-.043-.001a.163.163 0 0 1-.058-.103L.765 9.62a.739.739 0 0 0 .046-.246Z" clip-rule="evenodd"/><path fill="#C00" d="M0 18h6v-6H0v6Z"/><path fill="#0092C8" d="M6 0h18v18H6V0Z"/><path fill="#FFCF00" stroke="#650000" stroke-width=".1" d="M1.856 13.325c-.06-.073-.001-.206.052-.15-.028-.053.018-.096.038-.07-.01-.043.035-.073.056-.032-.008-.05.057-.078.074-.024.001-.049.064-.087.078-.016.013-.054.083-.062.089.016.02-.045.073-.042.077.024.022-.031.082.015.071.07.037-.009.082.07.037.127.079-.045.098.099.05.164.025.016.027.002.049.014a.427.427 0 0 0 .098.04 2.4 2.4 0 0 0 .177-.008c.025-.004.059-.017.099-.032.042-.014.103-.014.159-.029.044-.005 1.28.021 1.316.017.035-.004.087-.04.084-.084-.002-.043-.043-.075-.084-.08a2.332 2.332 0 0 0-.29.005.261.261 0 0 0-.12.056c-.014.009-.036.042-.054.065-.017.015-.066.017-.066-.003 0-.013-.004.003-.016.008-.016.01-.086.013-.082 0 .005-.015 0-.02-.02-.004a.234.234 0 0 1-.127.004c.01-.019.01-.017-.019-.002-.018.009-.094.015-.1-.001 0-.013-.01-.007-.02-.003-.086.024-.095-.004-.081-.016.014-.012.034-.08.012-.076-.021.004-.158.032-.205.04a5.13 5.13 0 0 1-.43-.004c-.046-.004-.098-.05-.1-.116-.006-.105.076-.132.125-.148.05-.016.173-.04.222-.04.05 0 .19.019.228.003.038-.016.155-.06.187-.064.049-.005.188.012.254.096-.034.017-.05.027-.012.012l.224-.05c.123-.006.091.014.031.03-.02.067-.201.161-.259.173a.808.808 0 0 1-.206-.002c-.028-.002-.157-.009-.204-.04a.593.593 0 0 0-.279-.09c-.057.001-.222.02-.221.08-.001.106.153.112.219.108.065-.004.23-.012.276-.032a.665.665 0 0 1 .202-.025c.054 0 .134.013.16.009.024-.004.081-.005.109-.025a.278.278 0 0 1 .147-.04c.06 0 .507-.019.567-.015.087 0 .148.1.15.185 0 .04-.019.099-.034.108a1.6 1.6 0 0 1 .117.016c.042.008.11.057.117.101a.312.312 0 0 0-.13-.054c-.008 0-.983-.002-1.06-.001a.557.557 0 0 1 .407.292c.036.06.124.036.156.027.033-.007.071-.043.099-.071.027-.028.07-.035.09-.028.042-.004.05.044.033.068-.016.024.003.014.046.014a.13.13 0 0 1 .109.053c-.025.024-.037.005-.002.008.036.004.079.073.052.093-.023.012-.03.007 0 .011.045.004.057.035.063.09-.038.007-.019-.006 0 .014.02.02.047.108-.022.112-.024-.012-.024-.014-.019.013.005.028-.008.095-.046.095-.054.01-.102-.02-.107-.056-.006-.036-.005.069-.08.086-.071.016-.109-.026-.114-.046-.006-.02-.003-.004-.03-.008-.028-.004-.062-.005-.077-.052 0-.028.005-.065.054-.07.022-.004.028-.034.012-.038-.017-.004-.003-.064.032-.048.036.016.118.02.137.04.02.02.025-.016-.005-.048-.03-.032-.214-.096-.263-.072a.66.66 0 0 1-.34.044c-.032-.008-.127.014-.172-.132a.318.318 0 0 0-.237-.23c-.31-.03-.293-.007-.092.003-.001.028-.009.085.024.093.055-.008.169-.033.196-.01.027.025.055.045.05.1-.006.056.002.04-.023.064-.024.024-.013.072.025.088s.055.036.08.06c.024.024-.012.072-.034.056-.021-.016-.021-.016-.024.016-.003.032-.03.092-.076.097-.01-.004-.007-.02-.006-.033.002-.028-.01.034-.024.052-.009.011-.086.035-.108.023.01-.025.004-.015-.015-.003-.019.008-.12.022-.075-.028.012-.019-.016.023-.031.03-.013.008-.073.014-.073-.01-.019.017-.064.017-.071.004-.014-.016-.015.012-.04.016-.024.004-.078-.004-.08-.036-.003-.032.005-.012-.025-.008-.073.05-.11-.02-.11-.044 0-.024-.002-.052.006-.068.008-.016-.051-.02-.033-.052.02-.039.042-.067.082-.06.02.004.017-.008.008-.024-.008-.016.022-.024.058-.008.035.016.06.056.071.092.011.036.096.008.131.012.036.004.039-.06.017-.08-.022-.02-.082-.092-.107-.116-.025-.024-.008-.107.014-.127.127-.091.057-.12.01-.112a.493.493 0 0 0-.204.102c-.038.044-.336.26-.363.283-.027.024-.067.03-.084.002-.016-.028-.027-.008-.024.032.022.15-.107.199-.13.197a.109.109 0 0 1-.054-.025c-.016.084-.086.092-.15.084-.001-.01.012-.028.005-.021-.021.029-.086.026-.142.021-.003-.017.02-.039.008-.027-.018.037-.05.03-.102.027-.001-.008.024-.034.012-.019-.023.027-.07.018-.107.02-.004-.007.02-.048-.002-.02-.02.023-.064.026-.105.02-.008-.02.008-.02.013-.032.01-.02-.006 0-.02 0-.013 0-.032.004-.04-.016-.009-.02-.004.02-.012.03-.008.01-.017.032-.044.04-.028.008-.099.016-.11-.02-.014-.016-.022-.051-.01-.071.01-.02-.053.038-.08.043-.08.017-.09-.115-.055-.127.036-.012.03-.032.011-.048s-.03-.08-.005-.1c.024-.02.081-.03.117-.008.021.015.067.068.058.028-.006-.024.01-.056.027-.069.015-.015.062-.018.074.013.029.074.05.105.085.104a1.3 1.3 0 0 1 .208-.047c.039-.01.243-.03.243-.05-.122.044-.172-.013-.186-.01-.013.005-.047-.012-.047-.024 0-.024.03-.02-.013-.013-.026-.002-.05-.003-.072-.032-.003-.015.03-.066.041-.108-.028-.008-.09.046-.11.093-.015-.018-.021-.002-.072.011a.11.11 0 0 1-.086-.004c-.022-.012-.107-.081-.066-.09a.152.152 0 0 0-.032-.011c-.03-.014-.058-.04-.05-.047-.007-.012.01-.012-.003-.014-.016-.005-.057-.036-.046-.048-.01-.007-.035-.018-.046-.024-.019-.011-.038-.053-.04-.073-.018.002-.056-.033-.039-.044-.029-.022-.053-.06-.034-.071-.017-.014-.029-.04-.017-.03-.017-.023-.012-.047.002-.047.013 0 .008-.063-.017-.063-.024 0-.064.02-.093 0-.023-.02-.043-.104-.022-.14.022-.036.066-.076.088-.072.022.004.01.012.005-.024-.005-.036.031-.063.055-.072.029-.014.085-.004.101.012.017.016.022.016.022-.012 0-.02.021-.03.04-.035.032-.008.056.002.067.015.017.026.027.056.005.08-.021.024-.002.004.033-.004.023-.008.064.002.071.028.01.028.017.076-.008.1-.024.024-.06.084-.04.104.018.02.079.107.092.12.014.011.03.04.052.035l.066-.012c.076-.016.11-.024.013-.02.021-.034.067-.043.087-.049-.017-.028.048-.086.048-.094Zm0 2.175c-.06-.073-.001-.206.052-.15-.028-.053.018-.096.038-.07-.01-.043.035-.073.056-.032-.008-.05.057-.078.074-.024.001-.049.064-.087.078-.016.013-.054.083-.062.089.016.02-.045.073-.042.077.024.022-.031.082.015.071.07.037-.009.082.07.037.127.079-.045.098.099.05.164.025.016.027.002.049.014a.431.431 0 0 0 .098.04 2.4 2.4 0 0 0 .177-.008c.025-.004.059-.017.099-.032.042-.014.103-.014.159-.029.044-.005 1.28.022 1.316.018.035-.005.087-.04.084-.085-.002-.043-.043-.075-.084-.08a2.332 2.332 0 0 0-.29.005.263.263 0 0 0-.12.056c-.014.009-.036.042-.054.065-.017.015-.066.017-.066-.003 0-.013-.004.003-.016.008-.016.01-.086.013-.082 0 .005-.015 0-.02-.02-.004a.233.233 0 0 1-.127.004c.01-.018.01-.017-.019-.002-.018.009-.094.015-.1-.001 0-.013-.01-.007-.02-.003-.086.024-.095-.004-.081-.016.014-.012.034-.08.012-.076-.021.004-.158.032-.205.04-.046.008-.383 0-.43-.004-.046-.004-.098-.05-.1-.116-.006-.105.076-.132.125-.148.05-.016.173-.04.222-.04.05 0 .19.019.228.003.038-.016.155-.06.187-.064.049-.005.188.012.254.096-.034.017-.05.027-.012.012l.224-.05c.123-.006.091.014.031.03-.02.067-.201.161-.259.173a.808.808 0 0 1-.206-.002c-.028-.002-.157-.009-.204-.04a.591.591 0 0 0-.279-.09c-.057.001-.222.02-.221.08-.001.106.153.112.219.108.065-.004.23-.012.276-.032a.668.668 0 0 1 .202-.025c.054 0 .134.013.16.009.024-.004.081-.005.109-.025a.278.278 0 0 1 .147-.04c.06 0 .507-.019.567-.015.087 0 .148.1.15.185 0 .04-.019.099-.034.108.027.003.094.01.117.016.042.009.11.057.117.102a.314.314 0 0 0-.13-.055c-.008 0-.983-.002-1.06-.001a.556.556 0 0 1 .407.292c.036.06.124.036.156.028.033-.008.071-.044.099-.072.027-.028.07-.035.09-.028.042-.004.05.044.033.068-.016.024.003.014.046.014a.13.13 0 0 1 .109.053c-.025.024-.037.005-.002.008.036.005.079.073.052.093-.023.012-.03.007 0 .011.045.004.057.035.063.09-.038.007-.019-.006 0 .014.02.02.047.108-.022.112-.024-.012-.024-.015-.019.013.005.028-.008.095-.046.095-.054.01-.102-.02-.107-.056-.006-.036-.005.069-.08.086-.071.016-.109-.026-.114-.046-.006-.02-.003-.004-.03-.008-.028-.004-.062-.005-.077-.052 0-.028.005-.065.054-.07.022-.004.028-.034.012-.038-.017-.004-.003-.064.032-.048.036.016.118.02.137.04.02.02.025-.016-.005-.048-.03-.032-.214-.096-.263-.072a.662.662 0 0 1-.34.044c-.032-.008-.127.014-.172-.132a.319.319 0 0 0-.237-.23c-.31-.03-.293-.007-.092.003-.001.028-.009.085.024.093.055-.008.169-.033.196-.01.027.025.055.045.05.1-.006.056.002.04-.023.064-.024.024-.013.072.025.088s.055.036.08.06c.024.024-.012.072-.034.056-.021-.016-.021-.016-.024.016-.003.032-.03.092-.076.097-.01-.004-.007-.02-.006-.033.002-.028-.01.034-.024.052-.009.012-.086.035-.108.023.01-.025.004-.015-.015-.003-.019.008-.12.022-.075-.028.012-.019-.016.023-.031.03-.013.008-.073.014-.073-.01-.019.017-.064.017-.071.004-.014-.016-.015.012-.04.016-.024.004-.078-.004-.08-.036-.003-.032.005-.012-.025-.008-.073.05-.11-.02-.11-.044 0-.024-.002-.052.006-.068.008-.016-.051-.02-.033-.052.02-.039.042-.067.082-.06.02.004.017-.008.008-.024-.008-.016.022-.024.058-.008.035.016.06.056.071.092.011.036.096.008.131.012.036.004.039-.06.017-.08-.022-.02-.082-.092-.107-.116-.025-.024-.008-.107.014-.127.127-.091.057-.12.01-.112a.492.492 0 0 0-.204.102c-.038.044-.336.26-.363.283-.027.024-.067.03-.084.002-.016-.028-.027-.008-.024.032.022.15-.107.199-.13.197a.11.11 0 0 1-.054-.025c-.016.084-.086.092-.15.084-.001-.01.012-.028.005-.021-.021.029-.086.026-.142.021-.003-.017.02-.039.008-.027-.018.037-.05.03-.102.027-.001-.008.024-.034.012-.018-.023.026-.07.017-.107.018-.004-.006.02-.047-.002-.02-.02.024-.064.027-.105.021-.008-.02.008-.02.013-.032.01-.02-.006 0-.02 0-.013 0-.032.004-.04-.016-.009-.02-.004.02-.012.03-.008.01-.017.032-.044.04-.028.008-.099.016-.11-.02-.014-.016-.022-.051-.01-.071.01-.02-.053.038-.08.044-.08.016-.09-.116-.055-.128.036-.012.03-.032.011-.048s-.03-.08-.005-.1c.024-.02.081-.03.117-.008.021.015.067.068.058.028-.006-.024.01-.056.027-.069.015-.015.062-.018.074.013.029.074.05.105.085.104a1.3 1.3 0 0 1 .208-.047c.039-.01.243-.03.243-.05-.122.044-.172-.014-.186-.01-.013.005-.047-.012-.047-.024 0-.024.03-.02-.013-.013-.026-.002-.05-.003-.072-.032-.003-.015.03-.065.041-.108-.028-.008-.09.046-.11.093-.015-.018-.021-.002-.072.011a.11.11 0 0 1-.086-.004c-.022-.012-.107-.08-.066-.09a.152.152 0 0 0-.032-.011c-.03-.014-.058-.04-.05-.047-.007-.012.01-.012-.003-.014-.016-.004-.057-.035-.046-.047-.01-.008-.035-.019-.046-.024-.019-.012-.038-.054-.04-.074-.018.002-.056-.033-.039-.044-.029-.022-.053-.06-.034-.071-.017-.014-.029-.04-.017-.03-.017-.023-.012-.046.002-.046.013 0 .008-.064-.017-.064-.024 0-.064.02-.093 0-.023-.02-.043-.104-.022-.14.022-.036.066-.076.088-.072.022.004.01.012.005-.024-.005-.036.031-.063.055-.072.029-.014.085-.004.101.012.017.016.022.016.022-.012 0-.02.021-.03.04-.035.032-.007.056.002.067.015.017.026.027.056.005.08-.021.024-.002.004.033-.004.023-.008.064.002.071.028.01.028.017.076-.008.1-.024.024-.06.084-.04.104.018.02.079.107.092.12.014.011.03.04.052.035l.066-.012c.076-.016.11-.024.013-.02.021-.034.067-.043.087-.049-.017-.028.048-.086.048-.094Z"/><path fill="#FFCF00" fill-rule="evenodd" d="M14.618 1.687c.29-.073.759-.096 1.01-.053.05.01.14.019.232.028.149.014.297.028.275.048-.053.05-.23.525-.23.618 0 .033 1.18.852 1.229.852.066 0 .165.12.139.166-.014.02-.086.096-.162.165-.073.068-.19.422-.303.816.041-.058.118-.117.257-.211.171-.116 1.691-1.27 2.133-1.62.05-.036-.076-.059-.336-.056-.208.004-.416.03-.656.09-.351.088-.614-.186-.726-.303a.43.43 0 0 0-.05-.048c-.098-.066-.24-.27-.24-.347 0-.016.096-.003.221.03.29.083.547.08.877-.007a2.57 2.57 0 0 1 .947-.052l.043.007c.06.009.1.015.122.016.02.142.164.606.19.628.053.046 1.217.505 1.306.515.132.017.185.07.185.182 0 .109-.135.211-.326.248-.225.043-.785.69-1.178 1.358-.263.449-.409.783-.409.945 0 .165.1.796.202 1.275.062.284.079.334.112.288.036-.047.135-.053.794-.053h.759l.257-.446c.142-.248.254-.456.247-.46-.006-.006-.392-.04-.854-.069-.461-.03-.844-.06-.85-.063-.004-.006.158-.307.359-.67l.366-.661.745.125.233.04c.313.052.565.094.605.102.072.013.099 0 .158-.102a.628.628 0 0 0 .042-.092l-.001.016c-.008.214-.03.755-.262 1.203l-.57 1.087v.75h-.132a.7.7 0 0 0-.132.006c0 .005.01.067.026.155l.023.133c.027.152.04.255.03.268-.01.017-.096.03-.188.03l-.171.003-.096.25c-.168.374-.6 1.071-.966 1.557l-.08.102.185.086c.26.12.531.403.71.747.138.271.144.29.144.578 0 .281-.075.641-.138.645l-.797.122-.364.056c-.626.096-1.154.169-1.177.162-.07-.026-.234-.304-.29-.486l-.021-.067c-.022-.068-.04-.127-.048-.144-.007-.027-.136.02-.4.155a5.375 5.375 0 0 1-1.331.48 5.828 5.828 0 0 1-3.235-.2 9.45 9.45 0 0 1-1.313-.65c-.61-.377-.86-.598-1.88-1.665-.329-.344-.415-.413-.639-.526-.227-.112-.293-.129-.491-.129-.185 0-.234-.01-.274-.062-.082-.116-.05-.252.11-.423 0 0 .048-.111.032-.122L8.22 8.78c-.297-.15.78-1.942 1.225-2.41.217-.231.227-.244.227-.403 0-.317.201-.942.416-1.305.099-.165.108-.195.075-.271-.062-.139 0-.218.403-.506.798-.571 1.263-.922 1.276-.961.023-.073-.323-.046-.59.046-.535.188-1.016.231-1.247.112-.105-.052-.267-.238-.267-.307 0-.01.109-.01.244 0 .1.007.081-.157.064-.3a1.292 1.292 0 0 1-.011-.136c0-.046.003-.083.01-.083l.103.037.035.013c.234.082.59.063 1.045-.063.225-.063.508-.122.627-.135 0 0 .673-.126.574-.02-.053.056-.11.198-.162.4a7.046 7.046 0 0 0-.079.317l.102.02c.133.028.382.08.663.135.501.103.795.149.867.136.125-.027.205.026.205.135 0 .093-.066.149-.33.271a2.806 2.806 0 0 0-.412.251c-.27.205-.759.714-.966 1.011-.172.245-.172.245-.172.5 0 .277.066.7.152.99l.053.182.092-.248c.128-.353.293-.67.508-.968.148-.205.174-.26.132-.277-.07-.027 0-.294.059-.33.06-.037.455-.387.877-.784l.765-.72v-.192c0-.185.003-.191.102-.211.056-.01.159-.02.225-.02.095-.003.154-.037.316-.182.105-.099.185-.192.168-.205-.013-.013-.145-.033-.293-.036-.215-.01-.36.01-.703.09-.484.115-.722.125-.946.049-.155-.053.076-.146.22-.185 0 0-.342-.592-.29-.575.456.138.644.145 1.036.046Zm7.736 3.156c-.007-.017-.009.011-.011.073.011-.032.016-.06.01-.073Zm-2.945-3.054c-.012-.012-.014.003-.009.037.03 0 .032-.01.01-.037Zm-2.647 2.7c-.145.522-.27 1.054-.27 1.054l.114-.251c.063-.139.155-.704.155-.79V4.49Zm.294-1.19-.003-.001.003.001Zm-.003-.001c-.068-.044-1.205-.844-1.205-.844l-.04.132c-.037.123.93.567 1.187.685l.058.027Zm-4.281-.263c.692.142.705.145.577.182a199.585 199.585 0 0 0-.735.208l-.64.178.023-.089c.072-.304.158-.598.175-.598.013 0 .28.053.6.12Zm-1.154.668.066-.238c.04-.13.075-.255.082-.278.01-.02.01-.04.007-.04-.01 0-1.079.784-1.105.807-.007.01.086-.014.21-.047.126-.036.344-.099.482-.135l.258-.07Zm4.817 1.989-.082.27c-.1.338-.169.671-.221 1.081-.033.265-.06.34-.172.526-.07.119-.145.257-.161.31-.088.203-.097.059-.112-.403a5.71 5.71 0 0 1 .122-1.47c.069-.314.494-.585.54-.49l.086.176Zm-4.158 1.07c.026-.112.017-.181-.05-.376-.098-.294-.18-.674-.184-.866.006-.33-.028-.35-.152-.036-.21.472-.257.677-.257 1.166 0 .268.016.502.043.585.036.125.053.142.138.142h.1v.413c0 .344-.007.413-.05.413-.07 0-.063.036.036.271.158.38.99 1.265.907 1.104-.27-.559-.66-1.692-.597-2.323.02-.195.05-.42.066-.493Zm7.07.602c.042.168.042.198-.017.37a3.695 3.695 0 0 0-.021.062c-.039.118-.099.298-.17.377-.155.172-.158.175-.198.103-.158-.301-.218-1.064-.119-1.583.043-.228.211-.836.231-.836.007 0 .026.122.05.27.042.305.171.96.244 1.237ZM9.656 6.313l.214.73s-.294-.611-.3-.674l.086-.056Zm1.929 1.034c0 .017-.136.03-.3.03h-.3l-.822.012c.006-.02.235-.115.502-.225l.163-.067c.308.016.613.036.645.075a.84.84 0 0 1 .112.175Zm-.757-.25-.124-.006c-.269-.014-.512-.026-.54-.048l.962-.195.367-.074c-.013.047-.34.188-.665.323Zm-.612 1.106-.214-.337c0-.274-.013-.373-.073-.512-.04-.096-.091-.21-.105-.21-.006 0-.046.155-.106.385l-.148.558-.247.906.099.036c.056.02.25.122.431.231.185.11.36.199.39.199.105 0 .118-.136.052-.417a2.923 2.923 0 0 1-.072-.548l-.007-.291Zm5.972.274c.076.384.214.744.428 1.12.103.179.182.33.175.337-.033.03-.37.083-.399.067-.046-.03-.23-.43-.356-.774-.142-.386-.27-.922-.247-1.02a2.81 2.81 0 0 1 .158-.367l.135-.281.027.324c.013.178.046.446.079.594Zm2.628.047c.006-.057-.03-.09-.159-.156-.171-.086-.63.196-.63.196.106.218.393.597.469.597.02 0 .148-.099.29-.221.274-.238.303-.317.129-.334-.09-.01-.106-.023-.1-.082Zm-.412.72-.086.06c-.116.079-.874.452-.89.439a9.422 9.422 0 0 1 .178-.661l.16-.231c.034.063.128.086.225.11.085.02.172.042.221.091l.192.192Zm-1.51.591a7.81 7.81 0 0 0 .197-.568c.092-.297-.21-.07-.25.198-.024.175.01.413.052.37Zm-3.595-.591a4.177 4.177 0 0 1-.165.456c-.013.016-.082 0-.155-.036-.108-.057-.135-.09-.171-.235-.04-.162-.04-.175.043-.317a.71.71 0 0 1 .435-.344c.178-.043.188-.043.171.003-.007.017-.046.135-.097.29l-.06.183Zm1.078.476a2.848 2.848 0 0 1-.234-.612c-.046-.224-.069-.274-.128-.29-.132-.037-.145-.02-.231.267l-.106.343a86.85 86.85 0 0 0-.062.2l-.08.254.337.069c.181.036.409.08.504.09l.172.019-.172-.34Zm.366-.625.343.165-.151.172a1.23 1.23 0 0 0-.208.324.903.903 0 0 1-.076.175c-.06.066-.428-.793-.428-.994 0-.07.121-.03.52.158Zm1.062.991c.208-.016.396-.03.412-.03.066-.006-.418-.373-.781-.594a2.06 2.06 0 0 0-.238-.136 1.29 1.29 0 0 0-.145.146c-.148.158-.25.343-.28.502l-.02.102.337.02a7.2 7.2 0 0 0 .715-.01Z" clip-rule="evenodd"/><path fill="#000" d="m15.627 1.634.05-.245-.008-.001-.042.246Zm-1.009.053-.06-.243h-.001l.061.243Zm1.242-.025.024-.25-.024.25Zm.275.048-.168-.185-.003.003.17.182Zm1.137 1.636.209.138.004-.007.005-.007-.217-.124Zm-.161.165-.169-.185-.001.002.17.183Zm-.303.816-.24-.07.442.216-.203-.146Zm.257-.211-.14-.208.14.208Zm2.133-1.62-.148-.201-.007.006.155.196Zm-.336-.056-.003-.25h-.001l.004.25Zm-.656.09-.06-.243h-.001l.06.243Zm-.726-.303.18-.173-.18.173Zm-.05-.048.14-.208-.14.208Zm-.019-.317.069-.24-.005-.002-.064.242Zm.877-.007-.062-.242.062.242Zm.947-.052.039-.247-.01-.002-.03.249Zm.043.007.04-.247-.04.247Zm.313.644.165-.189-.009-.006-.156.195Zm1.305.515.031-.248h-.003l-.028.248Zm-.141.43-.047-.246.047.246Zm-1.178 1.358-.215-.127.215.127Zm-.207 2.22-.245.052v.002l.245-.054Zm.112.288-.197-.155-.007.01.204.145Zm1.553-.053v.25h.144l.072-.125-.216-.125Zm.257-.446.217.125V6.89l-.217-.124Zm.247-.46-.176.177.028.029.036.018.112-.224Zm-.854-.069-.016.25.016-.25Zm-.85-.063-.224.112.037.074.075.038.112-.224Zm.359-.67-.219-.122.219.121Zm.366-.661.042-.247-.175-.03-.086.155.219.122Zm.745.125-.041.247.041-.247Zm.233.04-.042.246.042-.247Zm0 0-.042.246h.001l.04-.247Zm0 0 .04-.247-.04.246Zm0 0 .042-.247h-.001l-.041.246Zm0 0-.042.246.042-.247Zm.605.102-.05.245.005.001.045-.246Zm.158-.102.216.125.003-.005-.219-.12Zm.041-.076-.25-.01.25.01Zm-.262 1.203.222.116V6.25l-.222-.115Zm-.57 1.087-.222-.117-.028.055v.062h.25Zm0 .75v.25h.25v-.25h-.25Zm-.238.16.247-.042-.247.043Zm0 .001-.246.043.246-.043Zm0 0 .247-.042-.247.043Zm.023.133.247-.043-.247.043Zm.03.268-.2-.15-.008.01-.007.012.215.128Zm-.188.03v-.25h-.005l.005.25Zm-.171.003-.005-.25-.169.003-.06.158.234.09Zm-.096.25.228.103.003-.006.003-.007-.234-.09Zm-.966 1.557.198.153.002-.003-.2-.15Zm-.08.102-.197-.153-.191.248.283.132.106-.227Zm.185.086-.105.227h.002l.103-.227Zm.71.747.222-.114v-.001l-.223.115Zm.006 1.223-.013-.25-.025.001-.023.006.06.243Zm-.797.122-.037-.247.037.247Zm0 0 .037.248-.038-.247Zm-.364.056-.038-.247.038.247Zm-1.177.162-.089.234.01.003.01.003.069-.24Zm-.29-.486.239-.073v-.003l-.24.076Zm-.021-.067.238-.076-.004-.012-.234.088Zm0 0-.24.076.005.012.235-.088Zm-.048-.144-.243.06.005.02.008.018.23-.098Zm-.4.155.113.224.002-.002-.114-.222Zm-1.331.48.054.243-.054-.244Zm-3.235-.2-.086.236h.001l.085-.235Zm-1.313-.65.132-.213-.132.213Zm-1.88-1.665.182-.173-.181.173Zm-.639-.526.112-.223h-.001l-.11.223Zm-.765-.191-.203.145.003.004.2-.15Zm.11-.423.183.169.028-.03.017-.038-.229-.101Zm.032-.122.136-.21-.136.21ZM8.22 8.78l.137-.21-.011-.006-.012-.006-.114.222Zm1.225-2.41.18.172h.002l-.182-.172Zm.643-1.708-.215-.129v.002l.215.127Zm.075-.271.23-.1-.002-.003-.228.103Zm.403-.506.145.204-.145-.204Zm1.276-.961.237.079.001-.004-.238-.075Zm-.59.046-.082-.236h-.002l.084.236Zm-1.247.112.115-.222-.003-.001-.112.223Zm-.023-.307.018-.25-.018.25Zm.064-.3-.248.028.248-.029Zm.102-.182-.086.235.086-.235Zm.035.013-.085.235h.002l.083-.235Zm1.045-.063.067.241-.067-.24Zm.627-.135.028.248.009-.001.009-.002-.046-.245Zm.574-.02.182.171-.182-.171Zm-.162.4.242.064V2.55l-.242-.063Zm-.079.317h-.25v.25h.25v-.25Zm.102.02.05-.244-.05.244Zm0 0-.051.245.05-.244Zm0 0 .05-.244-.05.245Zm0 0 .051-.244-.051.245Zm0 0-.052.245h.001l.05-.244Zm0 0-.05.245.05-.244Zm0 0 .05-.244-.05.245Zm.663.135.05-.245h-.001l-.049.245Zm.867.136.045.246.007-.002-.052-.244Zm-.125.406-.105-.227-.002.001.107.226Zm-.412.251.15.2-.15-.2Zm-.966 1.011.204.144-.204-.144Zm-.02 1.49.24-.07-.24.07Zm.053.182-.24.07.21.725.264-.707-.234-.088Zm.092-.248.234.088v-.002l-.234-.086Zm.508-.968-.203-.146.203.146Zm.132-.277.09-.234h-.001l-.09.234Zm.059-.33-.13-.214.13.213Zm.877-.784.171.182-.171-.182Zm.765-.72.171.182.079-.074v-.108h-.25Zm.102-.403-.043-.247-.006.002.05.245Zm.225-.02v.25h.008l-.008-.25Zm.316-.182.167.186.004-.004-.171-.182Zm.168-.205-.177.177.01.01.01.008.157-.195Zm-.293-.036-.012.25h.006l.006-.25Zm-.703.09-.056-.244h-.002l.058.243Zm-.946.049-.08.236.08-.236Zm.22-.185.067.24.313-.085-.163-.28-.216.125Zm-.29-.575-.074.238h.002l.073-.238Zm8.772 3.202.234-.088-.003-.007-.231.095ZM19.409 1.79l.192-.16-.005-.006-.005-.006-.182.172Zm-2.918 3.754-.243-.058.47.162-.227-.104Zm.27-1.053.25.001-.49-.068.24.067Zm-.154.802.227.104v-.001l-.227-.103Zm.154-.79-.25-.002v.002h.25Zm.295-1.203.177-.176-.026-.027-.033-.017-.118.22Zm-1.208-.845.144-.205-.284-.2-.1.333.24.072Zm-.04.132.24.072-.24-.072Zm1.187.685-.105.227.105-.227Zm-3.646-.054-.068-.24-.007.001.075.239Zm-.577-.182-.051.245.05-.245Zm.245.276-.067-.24.067.24Zm0 0-.068-.24.068.24Zm0 0 .068.24-.068-.24Zm-.404.114.068.24-.068-.24Zm-.64.178-.241-.062-.109.42.418-.117-.067-.24Zm.024-.089.242.063v-.005l-.242-.058Zm-.313-.05-.24-.073-.001.007.24.067Zm-.066.239.065.241.137-.037.038-.138-.24-.066Zm.148-.516-.224-.111-.01.02-.006.022.24.07Zm-1.098.767-.165-.188-.025.022-.018.027.208.139Zm.21-.047.065.242.006-.001-.07-.24Zm.482-.135.064.242h.002l-.066-.242Zm4.993 2.19-.24-.072v.002l.24.07Zm.082-.27.24.073.028-.095-.043-.088-.225.11Zm-.303 1.351-.248-.032v.001l.248.031Zm-.172.526-.214-.13-.002.004.216.126Zm-.161.31.229.1.005-.013.004-.012-.238-.075Zm-.112-.403.25-.008v-.004l-.25.012Zm.122-1.47-.245-.054.245.054Zm.54-.49-.225.11.225-.11Zm-4.121.87-.237.08.237-.08Zm.049.376-.243-.057v.002l.243.055Zm-.234-1.242-.25-.005v.01l.25-.005Zm-.152-.036.229.102.004-.01-.233-.092Zm-.214 1.75.24-.069-.002-.006-.238.076Zm.237.143h.25v-.25h-.25v.25Zm-.013 1.097.23-.096v-.001l-.23.097Zm.907 1.104-.225.109.002.004.223-.113Zm-.597-2.323-.249-.026v.001l.25.025Zm7.12.479.235.083v-.002l-.236-.081Zm.016-.37.242-.062v-.001l-.242.063Zm-.038.432.236.082.001-.003-.237-.079Zm0 0-.236-.082-.001.003.237.08Zm-.17.377.186.168V8.34l-.186-.167Zm-.198.103-.221.116.001.003.22-.12Zm-.119-1.583.246.047-.246-.047Zm.28-.565.248-.035V6.09l-.247.038Zm-9.232.915-.225.108.465-.178-.24.07Zm-.214-.73.24-.07-.095-.324-.282.185.137.209Zm-.086.056-.137-.209-.128.084.016.151.249-.026Zm1.414 1.008v-.25h-.003l.003.25Zm-.82.012-.242-.064-.085.32.33-.006-.004-.25Zm.501-.225.096.231-.096-.23Zm.808.008.199-.151-.003-.004-.197.155Zm-.77-.081.014-.25-.013.25Zm-.54-.048-.05-.245-.545.11.445.335.15-.2Zm.963-.195.05.245-.05-.245Zm.367-.074.24.066.109-.393-.399.082.05.245Zm-1.491 1.092h-.25v.073L9.79 8l.21-.134Zm.214.337.25-.006-.002-.07-.037-.058-.21.134Zm-.287-.85-.23.096v.003l.23-.098Zm-.211.176-.242-.063v.003l.242.06Zm0 0 .242.063V7.59l-.242-.06Zm-.148.558.241.066-.241-.066Zm-.247.906-.242-.066-.06.221.215.08.087-.235Zm.099.036-.087.235h.003l.084-.235Zm.431.231-.128.215h.001l.127-.215Zm.442-.218.244-.057-.002-.005-.242.062Zm-.072-.548.25-.005-.25.005Zm6.393 1.103-.217.124.217-.124Zm-.428-1.12.245-.048-.001-.006-.244.054Zm.603 1.457.168.186.01-.01-.178-.176Zm-.399.067-.135.21.006.004.007.004.122-.218Zm-.356-.774.235-.085-.235.085Zm-.247-1.02.243.056.001-.004-.244-.053Zm.158-.367.225.11v-.002l-.225-.108Zm.135-.281.25-.02-.075-.919-.4.83.225.109Zm.027.324.249-.019v-.002l-.25.02Zm2.548.485.115-.222-.003-.001-.112.223Zm.159.156-.249-.03v.002l.249.028Zm-.788.04-.131-.213-.193.118.099.204.225-.11Zm.758.376.163.19.001-.001-.164-.19Zm.129-.334-.028.249h.004l.024-.249Zm-.597.697.141.206h.001l-.142-.206Zm.085-.06.143.206.246-.17-.212-.212-.176.177Zm-.976.5-.177.176.01.01.011.009.156-.195Zm.179-.661L17.4 8.94l-.023.034-.012.04.24.069Zm.16-.231.222-.117-.192-.364-.235.338.205.143Zm.225.11.06-.243-.06.243Zm.221.091-.177.177.177-.177Zm-1.12.215.237.077.001-.003-.239-.074Zm-.199.568.177.177.01-.01.009-.01-.196-.157Zm-.052-.37-.248-.036v.004l.248.032Zm-3.707.235-.177-.177-.01.01-.008.01.195.157Zm.165-.456-.237-.079v.002l.237.077Zm-.32.42-.114.222.002.001.112-.223Zm-.171-.235-.243.06.243-.06Zm.043-.317-.215-.128-.002.002.217.126Zm.435-.344-.059-.243.059.243Zm.171.003.23.099.003-.007.003-.008-.236-.084Zm-.097.29.236.082.001-.003-.237-.078Zm0 0-.237-.08v.002l.237.079Zm.783.047-.245.05.002.006.243-.056Zm.234.612.224-.113-.224.113Zm-.362-.902.067-.241-.067.24Zm-.231.267.239.073v-.001l-.24-.072Zm-.106.343.238.075-.238-.075Zm0 0-.24-.074.24.075Zm0 0-.24-.074.24.075Zm-.062.2.239.073-.24-.074Zm-.08.254-.238-.075-.082.264.27.055.05-.244Zm.337.069-.05.245.05-.245Zm.504.09.03-.25h-.004l-.026.25Zm.172.019-.029.248.46.054-.208-.414-.223.112Zm.537-.8.188.166.218-.248-.297-.143-.109.225Zm-.343-.165.109-.225h-.002l-.107.225Zm.192.337.186.167.001-.001-.187-.166Zm-.208.324.235.085-.235-.085Zm-.076.175-.177-.177-.009.01.186.167Zm1.566.126v.25h.013l.012-.002-.025-.248Zm-.412.03.016.249h.004l-.02-.25Zm-.37-.625-.131.212.002.001.13-.213Zm-.382.01.183.17.002-.001-.185-.17Zm-.28.502.246.047-.246-.047Zm-.02.102-.245-.047-.054.28.285.017.014-.25Zm.337.02-.015.25h.001l.014-.25Zm.58-8.708c-.29-.05-.793-.024-1.113.056l.122.485c.261-.065.694-.085.906-.048l.084-.493Zm.214.025a2.85 2.85 0 0 1-.208-.024l-.098.49c.067.014.175.023.259.031l.047-.497Zm.42.482a.256.256 0 0 0 .014-.363c-.049-.053-.109-.07-.116-.073a.62.62 0 0 0-.104-.023 3.71 3.71 0 0 0-.214-.023l-.047.497c.077.008.143.014.188.02.026.005.028.006.018.003a.232.232 0 0 1-.09-.06.245.245 0 0 1 .014-.348l.336.37Zm-.15.433c0 .018-.003.024.002.004a3.052 3.052 0 0 1 .173-.464c.01-.02.002 0-.023.024l-.342-.364c-.039.036-.064.082-.073.098a3.385 3.385 0 0 0-.223.596.5.5 0 0 0-.014.106h.5Zm.98.602a.239.239 0 0 1 .09.018l.005.002a21.733 21.733 0 0 1-1.144-.793l.01.01a.215.215 0 0 1 .021.03.234.234 0 0 1 .038.131h-.5c0 .077.036.13.04.136a.275.275 0 0 0 .056.065 4.982 4.982 0 0 0 .192.148 22.012 22.012 0 0 0 .995.682 1.19 1.19 0 0 0 .092.05.298.298 0 0 0 .105.021v-.5Zm.356.54a.302.302 0 0 0 .016-.257.49.49 0 0 0-.181-.222.35.35 0 0 0-.191-.06v.5a.153.153 0 0 1-.084-.022l-.004-.003c.002.003-.003-.002-.009-.018a.168.168 0 0 1-.01-.053.212.212 0 0 1 .028-.113l.435.248Zm-.21.225a4.34 4.34 0 0 0 .115-.111.835.835 0 0 0 .086-.1l-.417-.277.008-.01-.006.006a2.256 2.256 0 0 1-.124.123l.338.37Zm-.232.7c.056-.195.112-.375.162-.514.024-.07.046-.124.065-.163.023-.05.027-.043.006-.024l-.34-.366a.584.584 0 0 0-.118.177c-.028.059-.056.13-.084.207a9.217 9.217 0 0 0-.172.546l.48.137Zm-.123-.486c-.132.088-.248.171-.32.272l.405.292c.011-.016.048-.051.195-.15l-.28-.414Zm2.118-1.61a102.46 102.46 0 0 1-2.118 1.607l.28.415c.18-.122 1.707-1.28 2.149-1.63l-.311-.392Zm-.178.39c.127-.002.205.003.239.009.008.001.007.002.001 0 0 0-.029-.009-.06-.034a.238.238 0 0 1-.082-.23c.018-.091.08-.135.087-.14l.296.402a.262.262 0 0 0 .015-.42.314.314 0 0 0-.102-.054.514.514 0 0 0-.07-.017 1.966 1.966 0 0 0-.33-.017l.006.5Zm-.6.081a2.63 2.63 0 0 1 .6-.082l-.007-.5a3.108 3.108 0 0 0-.712.097l.12.485ZM17.3 2.4c.055.058.17.18.327.271a.84.84 0 0 0 .64.101l-.122-.485a.343.343 0 0 1-.266-.048 1.033 1.033 0 0 1-.219-.185l-.36.346Zm-.008-.013a.196.196 0 0 1-.018-.014c-.002 0-.001 0 .001.002a.737.737 0 0 1 .025.025l.36-.346-.034-.035c-.008-.008-.03-.03-.056-.048l-.278.416Zm-.352-.555c0 .08.031.15.048.185.022.046.05.093.08.135a.933.933 0 0 0 .224.235l.278-.416-.01-.008a.703.703 0 0 1-.12-.162l-.005-.01.003.011a.17.17 0 0 1 .002.03h-.5Zm.535-.212a1.635 1.635 0 0 0-.188-.04.51.51 0 0 0-.093-.004.29.29 0 0 0-.093.02.255.255 0 0 0-.16.236h.5a.246.246 0 0 1-.153.227.2.2 0 0 1-.068.016 1.165 1.165 0 0 1 .127.029l.128-.484Zm.75-.006c-.293.076-.505.076-.745.008l-.137.48c.34.097.642.09 1.008-.005l-.126-.483Zm1.039-.06a2.819 2.819 0 0 0-1.038.06l.124.484a2.32 2.32 0 0 1 .855-.047l.059-.497Zm.053.009-.043-.007-.079.494.044.006.078-.493Zm.088.013c.003 0 .004 0 0 0a.489.489 0 0 1-.018-.003l-.07-.01-.079.493c.049.008.112.019.158.02l.009-.5Zm.342.683a.234.234 0 0 1 .057.066l.001.002a3.124 3.124 0 0 1-.157-.537l-.495.072c.013.092.06.261.101.396a4.405 4.405 0 0 0 .092.268.46.46 0 0 0 .037.067.265.265 0 0 0 .051.056l.313-.39Zm1.177.462c.019.002.029.005.014.001a21.52 21.52 0 0 1-1.21-.477c-.017-.009.004 0 .027.02l-.33.377c.031.026.067.044.073.047l.056.027.153.067a21.265 21.265 0 0 0 1.09.42c.012.003.042.011.072.014l.055-.496Zm.407.43a.416.416 0 0 0-.117-.305.482.482 0 0 0-.287-.125l-.062.496.026.005a.091.091 0 0 1-.029-.02.12.12 0 0 1-.028-.046c-.004-.01-.003-.015-.003-.005h.5Zm-.53.493a.816.816 0 0 0 .34-.143.446.446 0 0 0 .19-.35h-.5c0-.054.032-.067.007-.048a.326.326 0 0 1-.13.05l.093.491Zm-1.008 1.24c.189-.322.418-.638.625-.877.104-.12.198-.216.276-.282a.783.783 0 0 1 .093-.07c.026-.016.03-.014.015-.01l-.095-.492a.555.555 0 0 0-.182.076 1.27 1.27 0 0 0-.156.116 3.252 3.252 0 0 0-.329.335 6.67 6.67 0 0 0-.678.95l.43.253Zm-.374.818a.88.88 0 0 1 .084-.266c.064-.147.161-.333.29-.553l-.431-.253c-.135.23-.243.435-.317.608-.07.162-.127.327-.127.464h.5Zm.195 1.223c-.05-.235-.1-.508-.136-.742a4.618 4.618 0 0 1-.06-.481h-.5c0 .106.03.325.066.559.038.242.089.524.141.768l.49-.104Zm-.336.195c.002-.002.019-.027.052-.05a.238.238 0 0 1 .328.062c.01.016.014.027.012.024a2.565 2.565 0 0 1-.056-.233l-.489.108c.03.133.054.24.078.303a.372.372 0 0 0 .036.071.261.261 0 0 0 .371.079.298.298 0 0 0 .075-.074l-.407-.29Zm.998-.158c-.326 0-.525.001-.647.01a.82.82 0 0 0-.17.025.332.332 0 0 0-.174.113l.393.309a.17.17 0 0 1-.08.058.44.44 0 0 1 .064-.007c.102-.006.282-.008.614-.008v-.5Zm.759 0h-.759v.5h.759v-.5Zm.04-.321-.257.446.433.25.258-.446-.434-.25Zm.352-.111a.25.25 0 0 1-.137-.234c.001-.029.007-.05.008-.054l.006-.016.002-.006-.007.014a14.593 14.593 0 0 1-.224.408l.434.248a15.377 15.377 0 0 0 .238-.434.767.767 0 0 0 .02-.043l.013-.036a.25.25 0 0 0-.129-.294l-.224.447Zm-.758-.044a34.464 34.464 0 0 1 .818.065h.001l-.017-.004a.25.25 0 0 1-.026-.01.223.223 0 0 1-.082-.054l.353-.354c-.038-.038-.08-.053-.084-.055a.26.26 0 0 0-.08-.02 34.795 34.795 0 0 0-.851-.067l-.032.5Zm-.947-.088a.25.25 0 0 0 .107.027l.055.005c.045.004.11.01.187.015.155.012.367.027.598.041l.032-.499a58.5 58.5 0 0 1-.822-.06h-.008.006a.227.227 0 0 1 .07.024l-.224.447Zm.253-1.016a44.603 44.603 0 0 0-.336.622 1.465 1.465 0 0 0-.036.074l-.01.028a.24.24 0 0 0-.007.04c0 .003-.01.069.025.14l.447-.224c.036.071.025.136.025.14a.248.248 0 0 1-.007.038l-.008.022c-.002.004-.003.006 0 .003a44.914 44.914 0 0 1 .346-.64l-.439-.243Zm.366-.66-.366.66.438.243.366-.661-.438-.243Zm1.006 0-.745-.126-.084.493.746.126.083-.493Zm.232.039-.232-.04-.083.494.232.039.083-.493Zm0 0-.083.493.083-.493Zm0 0-.082.493.081-.493Zm0 0-.082.493.082-.493Zm.001 0-.084.493.084-.493Zm.612.104c-.045-.009-.304-.052-.612-.104l-.083.493c.316.053.562.094.597.101l.098-.49Zm-.107.017a.37.37 0 0 1-.021.034c-.002.002.008-.012.03-.026a.172.172 0 0 1 .078-.025h.015l-.089.491a.35.35 0 0 0 .262-.042.498.498 0 0 0 .157-.18l-.432-.252Zm.022-.048a.387.387 0 0 1-.025.053l.438.241A.882.882 0 0 0 22.578 5l-.471-.165Zm.485.108v-.016l-.5-.02v.016l.5.02Zm-.29 1.308c.26-.503.281-1.098.29-1.308l-.5-.02c-.008.218-.031.706-.234 1.097l.444.23Zm-.571 1.088.57-1.087-.442-.233-.57 1.087.442.233Zm.029.634v-.75h-.5v.75h.5Zm-.382.25h.132v-.5h-.132v.5Zm.118-.244a.25.25 0 0 1-.146.227.21.21 0 0 1-.065.019h.012c.02-.002.048-.002.08-.002v-.5a2.136 2.136 0 0 0-.15.006.322.322 0 0 0-.035.005c-.005.002-.025.006-.049.017a.252.252 0 0 0-.147.228h.5Zm.022.112-.018-.108-.005-.03-.001-.003v-.001.003l.001.007v.02h-.5l.002.022v.008l.002.01.002.014.006.035.019.109.492-.086Zm0 0-.492.086.492-.085Zm0 0-.492.087.492-.087Zm.024.133-.024-.132-.492.086.023.132.493-.086Zm-.017.46a.25.25 0 0 0 .05-.128.866.866 0 0 0-.004-.132 3.724 3.724 0 0 0-.03-.2l-.492.086a3.254 3.254 0 0 1 .029.194v.01-.004a.196.196 0 0 1 .009-.048.238.238 0 0 1 .038-.077l.4.3Zm-.388.13c.057 0 .114-.003.164-.011a.527.527 0 0 0 .081-.019.268.268 0 0 0 .157-.12l-.429-.257a.24.24 0 0 1 .086-.084.177.177 0 0 1 .03-.014c.008-.002.008-.002-.003 0a.599.599 0 0 1-.086.006v.5Zm-.167.004.172-.003-.01-.5-.171.003.01.5Zm.134.09.095-.25-.467-.18-.096.251.468.179Zm-1 1.617c.372-.494.816-1.208.994-1.604l-.456-.205c-.158.35-.578 1.031-.938 1.508l.4.301Zm-.081.105.079-.102-.396-.306-.08.102.396.306Zm.092-.293-.185-.086-.21.453.184.086.21-.453Zm.825.858c-.195-.376-.5-.71-.827-.86l-.207.456c.194.089.43.323.59.634l.444-.23Zm.173.693c0-.137 0-.246-.028-.357-.027-.107-.079-.207-.144-.335l-.445.228c.073.143.094.189.104.23.01.04.013.084.013.234h.5Zm-.375.894a.284.284 0 0 0 .21-.116.46.46 0 0 0 .056-.1c.024-.06.043-.13.058-.2.03-.14.051-.318.051-.478h-.5c0 .122-.016.264-.04.374a.723.723 0 0 1-.031.113c-.005.01-.003.004.007-.01.002-.002.054-.076.163-.082l.026.5Zm-.772.12.564-.086.168-.026.048-.007.04-.008-.122-.485c.012-.003.022-.004.002-.001a6.3 6.3 0 0 1-.045.007l-.167.026-.563.086.075.495Zm0 0-.076-.494.075.495Zm-.364.056.363-.055-.076-.495-.363.056.076.494Zm-1.284.155c.033.01.062.01.065.01a.35.35 0 0 0 .057-.002l.082-.009c.065-.007.154-.02.261-.034.215-.03.505-.072.819-.12l-.076-.494a57.41 57.41 0 0 1-1.063.152l-.066.007h-.009.01a.232.232 0 0 1 .058.01l-.138.48Zm-.46-.652a1.759 1.759 0 0 0 .267.507.628.628 0 0 0 .062.067.345.345 0 0 0 .111.072l.178-.468c.02.008.035.017.04.022l.011.008-.011-.014a1.281 1.281 0 0 1-.18-.342l-.478.148Zm-.02-.065.02.067.477-.152-.021-.067-.477.152Zm.003.012.469-.176-.469.176Zm-.043-.134.001.004a2.81 2.81 0 0 1 .038.118l.477-.152c-.019-.057-.043-.135-.056-.167l-.46.197Zm-.055.28c.13-.067.218-.108.27-.128.03-.01.035-.01.026-.01a.164.164 0 0 1-.072-.002.243.243 0 0 1-.182-.177l.485-.122a.259.259 0 0 0-.198-.19.303.303 0 0 0-.112-.002.643.643 0 0 0-.125.036c-.079.03-.186.08-.32.15l.228.444Zm-1.391.5a5.625 5.625 0 0 0 1.389-.5l-.224-.446c-.457.229-.801.35-1.276.458l.11.488Zm-3.375-.207a6.078 6.078 0 0 0 3.374.207l-.11-.488a5.578 5.578 0 0 1-3.095-.19l-.169.471Zm-1.359-.673a9.81 9.81 0 0 0 1.358.673l.172-.47a9.224 9.224 0 0 1-1.267-.629l-.263.426Zm-1.929-1.706c1.022 1.07 1.29 1.311 1.93 1.706l.262-.426c-.582-.359-.814-.56-1.83-1.625l-.362.345Zm-.57-.474c.102.051.162.087.233.146.078.063.172.156.338.329l.36-.347a4.672 4.672 0 0 0-.381-.37 1.613 1.613 0 0 0-.327-.205l-.224.447Zm-.38-.103c.093 0 .133.005.171.015.043.01.096.032.21.088l.22-.448a1.617 1.617 0 0 0-.303-.124 1.125 1.125 0 0 0-.298-.03v.5Zm-.474-.163a.376.376 0 0 0 .228.146c.072.016.158.017.246.017v-.5a1.885 1.885 0 0 1-.134-.005h-.002s.013.003.03.014a.125.125 0 0 1 .032.029l-.4.3Zm.125-.742a.814.814 0 0 0-.203.34.469.469 0 0 0 .075.398l.407-.29.002.007v.009a.355.355 0 0 1 .087-.125l-.368-.339Zm.08.257a.244.244 0 0 1-.11-.185c-.001-.027.003-.045.003-.047.001-.007.002-.006-.002.005a.58.58 0 0 1-.015.036v.002l.228.102.229.1v-.002a.605.605 0 0 0 .03-.072.55.55 0 0 0 .021-.078.312.312 0 0 0 .005-.077.258.258 0 0 0-.116-.203l-.273.42Zm-.386-.251.386.251.273-.419-.386-.251-.273.419Zm1.18-2.794c-.246.258-.638.846-.93 1.377a5.021 5.021 0 0 0-.347.752 1.15 1.15 0 0 0-.068.32c-.002.087.014.269.187.358l.228-.445c.1.05.084.143.085.101a.685.685 0 0 1 .042-.174c.059-.176.171-.414.312-.672.285-.52.653-1.062.853-1.273l-.363-.344Zm.158-.231a.456.456 0 0 1-.002.058l.002-.004v-.004a.376.376 0 0 1-.039.05 5.055 5.055 0 0 1-.12.132l.364.342c.098-.104.182-.191.23-.276.065-.114.065-.217.065-.298h-.5Zm.45-1.432c-.12.202-.23.468-.31.72-.08.25-.14.514-.14.712h.5c0-.12.04-.325.116-.56a3.23 3.23 0 0 1 .265-.618l-.43-.254Zm.062-.045c.005.012 0 .003-.002-.015a.139.139 0 0 1 .003-.05c.001-.006 0-.002-.01.019l-.052.09.43.256c.043-.073.09-.153.112-.229a.37.37 0 0 0-.022-.27l-.459.2Zm.486-.808c-.193.138-.341.25-.425.356a.442.442 0 0 0-.1.23c-.01.092.015.17.04.226l.456-.206c-.006-.014.004.002 0 .032-.002.031-.016.043-.005.03a.676.676 0 0 1 .096-.09 4.8 4.8 0 0 1 .229-.171l-.29-.407Zm1.184-.837c.011-.033.026-.054.03-.06a.172.172 0 0 1 .013-.016 1.282 1.282 0 0 1-.056.048 8.53 8.53 0 0 1-.243.188c-.216.163-.53.392-.928.677l.291.407c.4-.287.717-.519.938-.684.11-.083.197-.15.258-.201a1.694 1.694 0 0 0 .114-.103.273.273 0 0 0 .058-.098l-.475-.158Zm-.27.361a1.476 1.476 0 0 1 .398-.074l.019.001a.194.194 0 0 1-.07-.035.231.231 0 0 1-.077-.25l.476.151a.268.268 0 0 0-.092-.295.335.335 0 0 0-.145-.062.82.82 0 0 0-.207-.006c-.137.01-.312.044-.466.098l.163.472Zm-1.443.099c.178.092.414.106.646.085.24-.021.515-.085.798-.184l-.167-.472a2.867 2.867 0 0 1-.676.158c-.2.018-.32-.005-.372-.032l-.23.445Zm-.403-.53a.39.39 0 0 0 .063.199.91.91 0 0 0 .092.125.897.897 0 0 0 .25.207l.224-.447-.01-.006a.633.633 0 0 1-.128-.137c-.003-.006-.003-.006-.001-.001 0 .002.01.025.01.06h-.5Zm.512-.25a2.742 2.742 0 0 0-.19-.007c-.025 0-.053 0-.078.003a.263.263 0 0 0-.13.043.252.252 0 0 0-.114.211h.5a.248.248 0 0 1-.199.242l-.007.001h.027c.037 0 .091.002.155.006L10 2.525Zm-.202-.022.01.098c.002.03.002.048.001.056-.001.014-.002-.015.025-.052a.194.194 0 0 1 .166-.08l-.036.5a.307.307 0 0 0 .275-.127.391.391 0 0 0 .068-.193c.008-.09-.005-.197-.012-.26l-.497.058Zm-.013-.164c0 .055.008.119.013.164l.497-.058a1.14 1.14 0 0 1-.01-.106h-.5Zm.26-.333a.253.253 0 0 0-.244.185.35.35 0 0 0-.012.062.81.81 0 0 0-.004.086h.5a.64.64 0 0 1 0-.022v-.009a.176.176 0 0 1-.005.026.247.247 0 0 1-.235.172v-.5Zm.189.052a12.123 12.123 0 0 0-.114-.04l-.013-.004-.016-.003a.204.204 0 0 0-.046-.005v.5a.249.249 0 0 1-.06-.007l-.01-.003h-.001a1.293 1.293 0 0 1 .088.032l.172-.47Zm.035.013-.035-.013-.172.47.036.013.17-.47Zm.893-.069c-.442.122-.736.124-.896.068l-.166.472c.309.109.727.071 1.195-.058l-.133-.482Zm.665-.143a5.348 5.348 0 0 0-.666.143l.135.482c.218-.061.487-.117.587-.128l-.056-.497Zm.784.4a.28.28 0 0 0 .076-.163.263.263 0 0 0-.105-.238.3.3 0 0 0-.114-.051.452.452 0 0 0-.072-.01 1.505 1.505 0 0 0-.246.013 5.175 5.175 0 0 0-.332.05l-.006.001h-.002l.045.247.046.245h.006l.02-.004a6.021 6.021 0 0 1 .28-.043c.079-.009.134-.012.158-.01.005 0 .001 0-.008-.002a.182.182 0 0 1-.074-.036.237.237 0 0 1-.093-.213c.008-.077.05-.12.056-.128l.365.342Zm-.102.292a2.26 2.26 0 0 1 .07-.225c.026-.061.039-.074.032-.067l-.365-.342c-.06.063-.1.15-.13.223-.032.08-.063.177-.09.284l.483.127Zm-.071.254c0 .018-.002.033-.002.033l-.002.008v.006-.001l.003-.017a8.381 8.381 0 0 1 .072-.282l-.483-.13a10.231 10.231 0 0 0-.08.322l-.003.01-.001.008-.002.01s-.002.014-.002.033h.5Zm-.098-.224-.075-.016a2.53 2.53 0 0 0-.029-.006h-.005a.272.272 0 0 0-.016-.003l-.027-.001v.5a.246.246 0 0 1-.027-.002h-.008l-.007-.002h-.002a.289.289 0 0 0 .021.004l.074.015.101-.49Zm0 0-.101.49.102-.49Zm0 0-.1.49.1-.49Zm0 0-.101.49.102-.49Zm.001 0-.103.49.103-.49Zm0 0h-.001l-.1.49.1-.49Zm0 0h-.001l-.1.49.1-.49Zm.66.134-.66-.134-.101.49.664.134.098-.49Zm.774.135c.02-.004.019 0-.028-.005a2.596 2.596 0 0 1-.161-.02 15.74 15.74 0 0 1-.583-.11l-.1.49c.252.052.455.09.606.113.075.012.14.02.193.025a.635.635 0 0 0 .163-.001l-.09-.492Zm.5.381a.383.383 0 0 0-.167-.327.442.442 0 0 0-.34-.053l.104.49c.024-.006 0 .007-.04-.02a.135.135 0 0 1-.048-.054.089.089 0 0 1-.01-.036h.5Zm-.475.498c.13-.06.24-.117.318-.18a.443.443 0 0 0 .115-.14.387.387 0 0 0 .042-.178h-.5c0-.009.002-.028.012-.05.01-.018.02-.024.012-.018a.435.435 0 0 1-.062.04c-.036.02-.084.043-.147.072l.21.454Zm-.366.223c.095-.072.265-.175.368-.224l-.214-.452a3.052 3.052 0 0 0-.456.278l.302.398Zm-.912.955c.193-.276.663-.766.912-.955l-.302-.398c-.292.221-.798.75-1.02 1.067l.41.286Zm-.127.356c0-.142.003-.158.008-.172.007-.02.023-.048.118-.183l-.41-.287c-.075.109-.145.204-.18.308-.039.11-.036.222-.036.334h.5Zm.142.92c-.08-.27-.142-.67-.142-.92h-.5c0 .305.07.752.162 1.062l.48-.141Zm.053.184-.053-.182-.48.14.053.18.48-.138Zm-.382-.266-.093.248.469.175.092-.248-.468-.175Zm.539-1.027a4.172 4.172 0 0 0-.54 1.029l.47.17c.121-.333.276-.63.476-.907l-.406-.292Zm.245.102a.227.227 0 0 1-.14-.183.199.199 0 0 1 .004-.074c.003-.012.007-.017.005-.015a3.49 3.49 0 0 1-.114.17l.405.293c.071-.098.13-.183.161-.249a.337.337 0 0 0 .035-.182.273.273 0 0 0-.177-.227l-.18.467Zm.018-.777a.329.329 0 0 0-.098.095.515.515 0 0 0-.043.079.796.796 0 0 0-.05.156.624.624 0 0 0-.015.176c.002.03.01.076.031.123.023.05.07.115.157.148l.179-.467c.07.027.104.078.118.108a.144.144 0 0 1 .014.048l.004-.031a.303.303 0 0 1 .018-.056c.003-.006.003-.006 0 0a.194.194 0 0 1-.053.048l-.262-.427Zm.837-.752a30.313 30.313 0 0 1-.765.693c-.058.049-.077.062-.072.059l.261.426c.036-.021.088-.065.134-.104a30.582 30.582 0 0 0 .784-.71l-.342-.364Zm.765-.72-.765.72.342.364.765-.72-.342-.364Zm-.079-.01v.192h.5v-.192h-.5Zm.303-.456a.49.49 0 0 0-.11.031.307.307 0 0 0-.154.149.409.409 0 0 0-.036.15 1.907 1.907 0 0 0-.003.126h.5c0-.048 0-.074.002-.091v-.003a.195.195 0 0 1-.106.127l-.015.005a.5.5 0 0 1 .02-.004l-.098-.49Zm.274-.025c-.082 0-.199.011-.268.023l.087.493c.043-.008.13-.016.18-.016v-.5Zm.149-.118a.977.977 0 0 1-.14.113l-.008.004-.01.001.017.5a.515.515 0 0 0 .249-.07c.073-.042.145-.103.226-.176l-.334-.372Zm.179.176a.244.244 0 0 1-.087-.235c.007-.034.02-.056.02-.058l-.007.009c-.022.026-.06.066-.11.112l.343.364c.057-.053.111-.109.151-.157a.578.578 0 0 0 .06-.084.301.301 0 0 0 .033-.088.258.258 0 0 0-.09-.253l-.313.39Zm-.143.019a1.635 1.635 0 0 1 .213.02c.004 0 0 0-.007-.003a.237.237 0 0 1-.084-.054l.354-.353a.266.266 0 0 0-.104-.065.991.991 0 0 0-.136-.029 2.133 2.133 0 0 0-.225-.016l-.01.5Zm-.64.083c.334-.078.454-.092.634-.083l.023-.5c-.248-.011-.419.014-.77.096l.113.487Zm-1.083.042c.295.1.592.075 1.084-.043l-.116-.486c-.476.114-.654.108-.808.056l-.16.473Zm.235-.663a1.24 1.24 0 0 0-.288.116.428.428 0 0 0-.082.065.297.297 0 0 0-.084.169.277.277 0 0 0 .088.238.361.361 0 0 0 .13.075l.162-.473.003.001.008.004a.175.175 0 0 1 .037.027.223.223 0 0 1 .068.19.204.204 0 0 1-.055.118c-.011.012-.018.015-.013.012a.769.769 0 0 1 .158-.06l-.132-.482Zm-.15-.572a.254.254 0 0 0-.328.214c-.007.06.01.109.011.116.01.033.026.07.04.097.027.06.068.139.108.212l.115.206.039.068.01.019.004.005v.002l.217-.125.216-.126v-.001l-.003-.005-.01-.018a12.017 12.017 0 0 1-.244-.448l-.012-.028.004.019a.245.245 0 0 1-.316.27l.15-.477Zm.9.043a1.417 1.417 0 0 1-.422.058 1.944 1.944 0 0 1-.48-.101l-.145.478c.233.07.418.115.603.123.188.008.36-.022.566-.074l-.122-.484Zm8.028 3.303a.251.251 0 0 0-.487.07c-.003.027-.004.062-.005.088l.5.02c0-.035.002-.045.002-.045l-.005.021a.247.247 0 0 1-.252.185.249.249 0 0 1-.216-.15l.463-.189ZM22.578 5a.51.51 0 0 0 .023-.087.31.31 0 0 0-.013-.157l-.468.175a.21.21 0 0 1-.012-.097c0-.007.002-.007-.001 0l.471.166Zm-2.987-3.382a.255.255 0 0 0-.442.2.29.29 0 0 0 .004.045l.495-.072v.001s.001.022-.005.051a.247.247 0 0 1-.415.119l.363-.344Zm-.195.459c.014 0 .053 0 .097-.013a.259.259 0 0 0 .148-.377.363.363 0 0 0-.04-.057l-.384.32-.014-.022c-.004-.007-.042-.072-.023-.163a.241.241 0 0 1 .207-.187.16.16 0 0 1 .018-.001l-.01.5ZM16.49 5.543l.243.058v-.002l.002-.004.004-.018.016-.066a31.568 31.568 0 0 1 .246-.955l-.481-.133a30.397 30.397 0 0 0-.251.97l-.016.068-.005.018v.005l-.001.001.243.058Zm-.112-.355-.115.25.454.21.116-.252-.455-.208Zm.132-.686-.002.026a6.224 6.224 0 0 1-.095.537 1.75 1.75 0 0 1-.031.114l-.003.008-.001.002.455.206c.027-.06.05-.142.066-.215a5.202 5.202 0 0 0 .094-.502c.009-.063.017-.133.017-.176h-.5Zm0-.014V4.5l.5.004v-.013l-.5-.003Zm.663-1.41h-.003l-.235.44.003.002.235-.441Zm-.255.43.019.012a.237.237 0 0 0 .049.02.25.25 0 0 0 .246-.417l-.354.353s-.02-.019-.036-.046a.253.253 0 0 1-.035-.153.25.25 0 0 1 .224-.226c.05-.005.088.007.094.008a.256.256 0 0 1 .06.027l.002.001-.27.421Zm-1.07-1.054-.145.204h.001l.002.002a.691.691 0 0 1 .01.007l.036.025.13.092a893.905 893.905 0 0 0 1.036.724l.269-.42-.005-.004-.013-.01-.046-.03a51.207 51.207 0 0 1-.555-.39c-.147-.102-.29-.203-.398-.28l-.13-.09-.036-.026a.879.879 0 0 1-.01-.007l-.002-.001h-.001l-.144.204Zm.199.203.04-.132-.48-.143-.039.132.479.143Zm1.051.387a15.386 15.386 0 0 1-.691-.335 3.566 3.566 0 0 1-.325-.187.487.487 0 0 1-.065-.05c-.003-.003.007.006.018.028.01.02.035.08.012.158l-.479-.144a.285.285 0 0 0 .02.211.39.39 0 0 0 .07.095.921.921 0 0 0 .143.115c.101.07.237.145.373.217.276.144.588.287.715.346l.209-.454Zm.064.03a.725.725 0 0 0-.064-.03l-.209.454.038.017.011.005a.193.193 0 0 0 .004.002l.22-.449Zm-3.746.383a.858.858 0 0 0 .103-.037.272.272 0 0 0 .086-.072.256.256 0 0 0-.062-.375.395.395 0 0 0-.101-.046c-.09-.028-.285-.068-.621-.137l-.1.49c.356.073.513.106.571.124.018.006 0 .002-.027-.015-.01-.007-.06-.041-.088-.112a.244.244 0 0 1 .036-.239.216.216 0 0 1 .071-.06.168.168 0 0 1 .019-.009l-.005.002-.018.005.136.481Zm-.332.095c.168-.048.303-.085.338-.097l-.149-.477c-.026.009-.15.043-.324.092l.135.482Zm0 0-.136-.482.136.482Zm0 0-.136-.481.136.48Zm-.403.114.403-.114-.136-.482-.404.114.137.482Zm-.641.178.64-.178-.135-.482-.64.179.135.481Zm-.286-.392-.023.089.484.125.023-.09-.484-.124Zm.416-.786a.252.252 0 0 0-.209.11.325.325 0 0 0-.026.047 2.76 2.76 0 0 0-.07.208c-.035.116-.075.27-.112.425l.486.116a8.872 8.872 0 0 1 .143-.521l.005-.015a.236.236 0 0 1-.054.07.247.247 0 0 1-.162.06v-.5Zm.651.124a55.365 55.365 0 0 0-.62-.122l-.03-.002v.5a.233.233 0 0 1-.027-.001h-.004.005l.034.006.128.025.413.084.101-.49Zm-1.38.608-.065.238.481.133.066-.238-.481-.133Zm.084-.28-.082.273.478.147c.04-.13.077-.258.084-.282l-.48-.138Zm.247.28a.249.249 0 0 1-.246-.212.217.217 0 0 1-.001-.054.168.168 0 0 1 .016-.056l.448.223a.334.334 0 0 0 .032-.184.251.251 0 0 0-.25-.218v.5Zm-.94.744.039-.029a36.663 36.663 0 0 1 .502-.37 106.599 106.599 0 0 1 .526-.38c.004-.003.005-.003.003-.003l-.008.005-.018.01a.247.247 0 0 1-.025.01.26.26 0 0 1-.08.012v-.5a.223.223 0 0 0-.08.014.244.244 0 0 0-.044.02l-.014.008a.745.745 0 0 0-.056.038l-.125.09a106.185 106.185 0 0 0-.88.645c-.024.018-.057.042-.07.054l.33.376Zm-.018-.476c-.063.016-.114.03-.147.037l-.02.005.011-.002a.225.225 0 0 1 .09.013.248.248 0 0 1 .127.373l-.416-.277a.25.25 0 0 0 .18.39.322.322 0 0 0 .073-.002 5.7 5.7 0 0 0 .23-.054l-.128-.483Zm.482-.136c-.142.037-.363.101-.488.137l.14.48c.126-.036.34-.098.475-.133l-.127-.484Zm.255-.069-.257.07.13.482.258-.069-.13-.483Zm5.04 2.574.082-.27-.478-.146-.083.27.479.146Zm-.212 1.04c.05-.398.118-.719.212-1.042l-.48-.14a7.027 7.027 0 0 0-.228 1.118l.496.064Zm-.206.623c.059-.097.105-.182.14-.284.032-.1.049-.206.066-.34l-.496-.062a1.32 1.32 0 0 1-.046.246.864.864 0 0 1-.092.181l.428.26Zm-.137.256.01-.022c.008-.018.02-.04.034-.067a4.98 4.98 0 0 1 .095-.17l-.432-.252a5.329 5.329 0 0 0-.105.189c-.028.053-.063.12-.079.173l.477.149Zm-.6-.47c.003.115.007.214.011.293.005.074.01.147.023.204a.34.34 0 0 0 .059.133.263.263 0 0 0 .341.069c.068-.039.103-.1.113-.116a.78.78 0 0 0 .044-.088l-.459-.2a.583.583 0 0 1-.01.024l-.004.008.002-.004a.212.212 0 0 1 .064-.057.238.238 0 0 1 .306.06c.03.04.035.076.032.062a1.036 1.036 0 0 1-.011-.124 11.803 11.803 0 0 1-.012-.28l-.5.016Zm.127-1.531a6 6 0 0 0-.127 1.535l.5-.024a5.498 5.498 0 0 1 .116-1.405l-.489-.106Zm1.01-.545a.287.287 0 0 0-.24-.16.403.403 0 0 0-.162.025.877.877 0 0 0-.239.138c-.143.112-.316.304-.369.54l.489.109a.523.523 0 0 1 .19-.256.405.405 0 0 1 .096-.06c.009-.003-.008.005-.041.003a.214.214 0 0 1-.174-.122l.45-.217Zm.085.174-.085-.175-.45.22.087.175.449-.22Zm-4.668.884a.975.975 0 0 1 .048.172.16.16 0 0 1-.005.067l.486.114a.655.655 0 0 0 .015-.247 1.449 1.449 0 0 0-.07-.266l-.474.16Zm-.198-.942c.004.23.095.638.198.941l.473-.159c-.095-.284-.168-.636-.171-.79l-.5.008Zm.33.051c.031-.077.052-.122.064-.143.007-.013.004-.004-.01.01a.211.211 0 0 1-.064.046.237.237 0 0 1-.293-.077.196.196 0 0 1-.027-.053c-.005-.014-.004-.018-.002-.003.002.028.004.08.002.16l.5.01c.002-.084 0-.16-.005-.218a.487.487 0 0 0-.02-.104.298.298 0 0 0-.04-.08.266.266 0 0 0-.137-.101.27.27 0 0 0-.276.075.444.444 0 0 0-.065.092c-.03.052-.06.123-.091.203l.465.183Zm-.239 1.075c0-.237.011-.39.044-.535a2.74 2.74 0 0 1 .191-.53l-.456-.203c-.108.24-.18.428-.224.625a2.884 2.884 0 0 0-.055.643h.5Zm.031.509-.002-.011a1.875 1.875 0 0 1-.018-.154 4.919 4.919 0 0 1-.011-.344h-.5c0 .138.004.27.012.38.007.1.02.208.043.28l.476-.151Zm-.1-.032c-.017 0-.009-.001.008.003a.17.17 0 0 1 .083.048c.022.023.029.042.027.036a.542.542 0 0 1-.016-.049l-.48.14c.01.032.02.068.034.101a.38.38 0 0 0 .078.122c.098.1.223.099.266.099v-.5Zm.1 0h-.1v.5h.1v-.5Zm.25.663v-.413h-.5v.413h.5Zm-.3.663a.277.277 0 0 0 .244-.144.414.414 0 0 0 .045-.155c.009-.078.01-.197.01-.364h-.5c0 .177-.002.264-.007.307v.006a.16.16 0 0 1 .015-.038.223.223 0 0 1 .192-.112v.5Zm.267-.076a3.301 3.301 0 0 1-.053-.131c-.013-.034-.013-.04-.011-.03 0 .001.016.1-.07.18a.218.218 0 0 1-.099.053c-.02.004-.034.004-.034.004v-.5c-.018 0-.123-.003-.208.077a.29.29 0 0 0-.085.255.663.663 0 0 0 .038.134c.015.042.036.093.06.152l.462-.194Zm.453 1.314s-.007-.014-.013-.035a.24.24 0 0 1 .035-.202.246.246 0 0 1 .268-.098c.033.01.055.023.057.024.01.007.001.002-.035-.033a6.193 6.193 0 0 1-.574-.666 1.72 1.72 0 0 1-.191-.303l-.462.192c.052.125.15.272.25.408a6.71 6.71 0 0 0 .63.729c.032.03.076.072.117.097.01.006.037.023.074.034.018.004.177.046.278-.1a.254.254 0 0 0 .035-.214.318.318 0 0 0-.023-.06l-.446.227Zm-.623-2.461c-.036.365.058.845.182 1.282a7.8 7.8 0 0 0 .439 1.175l.45-.218a7.275 7.275 0 0 1-.408-1.094c-.122-.427-.191-.83-.165-1.096l-.498-.049Zm.071-.523c-.02.09-.051.33-.07.522l.497.05a6.16 6.16 0 0 1 .06-.461l-.487-.11Zm7.533 1.108a.896.896 0 0 0 .06-.257.877.877 0 0 0-.037-.256l-.485.123a.47.47 0 0 1 .023.112.496.496 0 0 1-.033.115l.472.163Zm-.02.06.02-.058-.472-.167a3.45 3.45 0 0 0-.022.067l.474.158Zm0 .003-.473-.164.472.164Zm-.22.462a.88.88 0 0 0 .141-.246c.033-.079.06-.161.08-.219l-.475-.158a2.77 2.77 0 0 1-.067.186.8.8 0 0 1-.052.104l.372.333Zm-.605.055.023.039a.319.319 0 0 0 .058.069.272.272 0 0 0 .311.034.472.472 0 0 0 .114-.09l.098-.106-.372-.335a3.81 3.81 0 0 1-.097.104v.001a.087.087 0 0 1 .004-.004.22.22 0 0 1 .137-.036.228.228 0 0 1 .168.094l-.004-.009-.44.24Zm-.144-1.749c-.055.286-.065.63-.041.939.023.3.08.61.184.807l.442-.233c-.054-.103-.106-.326-.127-.612a3.242 3.242 0 0 1 .033-.807l-.491-.094Zm.476-1.039a.251.251 0 0 0-.227.142 1.662 1.662 0 0 0-.05.13c-.02.066-.045.152-.07.244-.05.181-.106.399-.13.524l.492.092a7.442 7.442 0 0 1 .205-.766l-.003.006a.242.242 0 0 1-.065.077.248.248 0 0 1-.152.051v-.5Zm.297.483a11.377 11.377 0 0 0-.046-.267.428.428 0 0 0-.03-.085.25.25 0 0 0-.22-.131v.5a.25.25 0 0 1-.219-.128c-.01-.02-.015-.035-.016-.037l-.002-.008a10.065 10.065 0 0 1 .039.232l.494-.076Zm.238 1.21c-.07-.267-.196-.911-.238-1.207l-.495.07c.044.312.174.976.25 1.264l.483-.126Zm-9.478-.327-.215-.73-.48.14.215.73.48-.14Zm-.789-.578a.434.434 0 0 0 .015.068l.015.042c.01.028.024.06.039.095a10.308 10.308 0 0 0 .208.454l.034.07.01.02.002.006v.001l.226-.108.225-.108v-.002a.153.153 0 0 0-.003-.005l-.01-.019-.032-.07a24.922 24.922 0 0 1-.2-.437 2.071 2.071 0 0 1-.037-.09c-.002-.007.003.008.006.031l-.498.052Zm.198-.291-.086.056.274.418.086-.056-.274-.418Zm1.765 1.523c.088 0 .172-.004.237-.01a.77.77 0 0 0 .097-.015.334.334 0 0 0 .07-.024.254.254 0 0 0 .147-.231h-.5a.246.246 0 0 1 .135-.219.195.195 0 0 1 .034-.013l-.032.004a1.8 1.8 0 0 1-.188.008v.5Zm-.3 0h.3v-.5h-.3v.5Zm-.817.012.821-.012-.007-.5-.821.012.007.5Zm.403-.706c-.132.054-.26.107-.354.148-.046.02-.09.04-.123.057a.596.596 0 0 0-.094.061c-.006.006-.057.05-.077.126l.483.129a.243.243 0 0 1-.07.116l-.023.018.008-.004.096-.045.345-.144-.191-.462Zm.162-.067-.162.067.19.462.163-.067-.19-.462Zm.937.151c-.051-.064-.12-.088-.135-.094a.58.58 0 0 0-.083-.022c-.05-.01-.11-.018-.172-.024a9.952 9.952 0 0 0-.438-.03l-.026.5c.154.008.302.016.414.028.057.005.098.01.123.016.014.003.016.004.011.002a.22.22 0 0 1-.087-.066l.393-.31Zm.166.33c0-.056-.02-.1-.021-.103a.856.856 0 0 0-.05-.093 2.006 2.006 0 0 0-.092-.13l-.399.302a1.495 1.495 0 0 1 .082.12l-.004-.009a.237.237 0 0 1-.016-.087h.5ZM10.69 7.34l.124.007.026-.5-.124-.006-.026.5Zm-.678-.097c.049.037.102.048.111.05a2.214 2.214 0 0 0 .2.026c.103.008.234.015.367.021l.025-.499c-.135-.007-.26-.013-.353-.02a1.77 1.77 0 0 1-.106-.01l-.014-.003.016.005a.22.22 0 0 1 .055.03l-.3.4Zm1.064-.64-.963.195.099.49.963-.195-.1-.49Zm.366-.074-.367.074.1.49.367-.074-.1-.49Zm-.52.799c.163-.068.331-.138.46-.2a2.13 2.13 0 0 0 .173-.087.623.623 0 0 0 .074-.05.344.344 0 0 0 .046-.044.276.276 0 0 0 .058-.107l-.482-.133a.224.224 0 0 1 .046-.087c.01-.012.018-.018.02-.02l-.015.01a1.733 1.733 0 0 1-.131.066 11.73 11.73 0 0 1-.44.19l.192.462ZM9.792 8l.214.337.422-.268-.214-.337L9.79 8ZM9.7 7.452c.04.091.053.149.053.414h.5c0-.283-.013-.424-.093-.61l-.46.196Zm.125-.058a.247.247 0 0 1-.195-.098l-.002-.003a.178.178 0 0 1 .005.008 2.515 2.515 0 0 1 .067.148l.461-.19a3.069 3.069 0 0 0-.068-.155.885.885 0 0 0-.037-.07.357.357 0 0 0-.075-.087.255.255 0 0 0-.156-.053v.5Zm.136.198.073-.276c.009-.033.015-.057.02-.07l.001-.006-.01.023c-.003.005-.012.022-.028.041a.247.247 0 0 1-.192.09v-.5a.25.25 0 0 0-.237.168 32.714 32.714 0 0 0-.111.404l.484.126Zm0-.002-.485-.121.485.12Zm-.149.563c.056-.206.107-.401.149-.56l-.484-.127c-.042.16-.092.353-.147.556l.482.13Zm-.247.906.247-.906-.482-.132-.248.906.483.132Zm-.056-.265-.1-.036-.172.47.1.036.172-.47Zm.474.252a6.275 6.275 0 0 0-.274-.155 1.826 1.826 0 0 0-.203-.098l-.167.472.04.018.095.049c.075.04.165.09.252.143l.257-.429Zm.26.163c.026 0 .044.004.05.005l.012.003-.01-.004a4.643 4.643 0 0 1-.313-.168l-.255.43a5.117 5.117 0 0 0 .37.198.658.658 0 0 0 .05.019.295.295 0 0 0 .097.017v-.5Zm-.19-.11c.015.065.025.117.03.157a.335.335 0 0 1 .003.07c-.001.01 0-.022.032-.058a.18.18 0 0 1 .066-.047.16.16 0 0 1 .06-.012v.5a.33.33 0 0 0 .25-.11.387.387 0 0 0 .088-.214 1.225 1.225 0 0 0-.042-.4l-.487.114Zm-.08-.6c.004.176.04.443.081.605l.484-.124a2.699 2.699 0 0 1-.064-.491l-.5.01Zm-.006-.29.007.29.5-.01-.007-.292-.5.012Zm6.868 1.265a3.415 3.415 0 0 1-.401-1.045l-.49.097c.081.413.23.798.456 1.195l.435-.247Zm.134.637a.252.252 0 0 0 .059-.266 1.765 1.765 0 0 0-.06-.13 7.157 7.157 0 0 0-.134-.242l-.434.249a6.529 6.529 0 0 1 .154.285c.003.007.002.005 0-.002a.247.247 0 0 1 .061-.247l.354.353Zm-.698.108c.047.026.09.03.1.032a.806.806 0 0 0 .114 0 2.123 2.123 0 0 0 .363-.068.287.287 0 0 0 .112-.063l-.335-.371a.222.222 0 0 1 .051-.035l.01-.004a1.527 1.527 0 0 1-.265.044h-.002.003a.154.154 0 0 1 .037.006c.01.002.031.008.056.022l-.244.437Zm-.469-.906a6.896 6.896 0 0 0 .314.723 1.023 1.023 0 0 0 .076.116c.009.01.031.037.066.059l.27-.42c.03.018.045.037.046.039l.003.003a2.916 2.916 0 0 1-.105-.206c-.065-.14-.14-.32-.2-.485l-.47.171Zm-.256-1.163c-.011.05-.01.1-.008.129a3.474 3.474 0 0 0 .07.389c.05.202.12.442.194.645l.47-.172a5.728 5.728 0 0 1-.177-.59 3.09 3.09 0 0 1-.058-.304c0-.021.002-.01-.004.016l-.487-.113Zm.177-.42c-.039.08-.078.164-.108.234-.026.06-.059.137-.07.19l.49.105.006-.018.033-.078a5.11 5.11 0 0 1 .099-.214l-.45-.22Zm.135-.28-.135.281.45.217.135-.28-.45-.218Zm.5.412-.026-.324-.498.041.026.324.499-.04Zm.075.561a4.862 4.862 0 0 1-.074-.559l-.499.037c.014.184.048.465.085.63l.488-.108Zm2.111.168a.86.86 0 0 1 .063.034c.013.008.013.01.007.004a.17.17 0 0 1-.046-.135l.497.059a.332.332 0 0 0-.103-.283.797.797 0 0 0-.19-.124l-.228.445Zm-.515-.027.13.213.003-.002a.72.72 0 0 1 .061-.035c.042-.022.097-.051.157-.077a.887.887 0 0 1 .16-.056c.055-.012.043.003.006-.015l.224-.447a.512.512 0 0 0-.334-.027 1.37 1.37 0 0 0-.257.087 2.513 2.513 0 0 0-.274.141l-.005.003-.001.001h-.001l.13.214Zm.468.347a.21.21 0 0 1 .106.03l-.02-.02a2.204 2.204 0 0 1-.33-.466l-.45.218a2.681 2.681 0 0 0 .427.603c.025.024.054.05.085.073.019.013.088.062.182.062v-.5Zm.127-.16a4.173 4.173 0 0 1-.23.184c-.006.003-.005.003 0 0a.188.188 0 0 1 .022-.01c.007-.002.038-.014.08-.014v.5a.263.263 0 0 0 .128-.032 1.413 1.413 0 0 0 .124-.084c.057-.044.129-.103.202-.166l-.326-.378Zm.268.104c.014.001.017.002.013.002a.17.17 0 0 1-.05-.027.21.21 0 0 1-.076-.123.192.192 0 0 1 .007-.106c.009-.023.014-.02-.021.018-.03.032-.076.075-.142.132l.328.378a3.17 3.17 0 0 0 .179-.168.58.58 0 0 0 .123-.182.291.291 0 0 0-.093-.346.426.426 0 0 0-.22-.076l-.048.498Zm-.324-.359a.308.308 0 0 0 .103.28.33.33 0 0 0 .129.064.651.651 0 0 0 .088.015l.055-.497-.02-.003c.002 0 .033.008.067.036.042.035.064.08.072.119.006.029.002.048.003.041l-.497-.055Zm-.107 1.013.086-.06-.285-.41-.086.059.285.41Zm-1.189.429a.248.248 0 0 0 .15.055.263.263 0 0 0 .093-.013 2.612 2.612 0 0 0 .148-.061 11.55 11.55 0 0 0 .797-.41l-.283-.412v.001l-.004.002a.46.46 0 0 1-.047.027 13.608 13.608 0 0 1-.753.372l-.008.003.026-.006a.237.237 0 0 1 .047-.003c.012 0 .081.002.147.055l-.313.39Zm.094-.925a38.12 38.12 0 0 0-.17.615 1.188 1.188 0 0 0-.016.085.275.275 0 0 0 .005.089.25.25 0 0 0 .066.117l.355-.353a.25.25 0 0 1 .072.164l-.001.034-.001.01.006-.028.036-.137c.032-.118.078-.28.129-.458l-.48-.138Zm.196-.305-.16.231.41.286.16-.232-.41-.285Zm.49.01-.064-.016a.337.337 0 0 1-.036-.012c-.007-.003-.005-.003.002.002.008.006.023.02.035.042l-.443.233a.413.413 0 0 0 .213.184c.062.026.13.042.174.053l.118-.486Zm.338.158a.509.509 0 0 0-.188-.115c-.054-.02-.111-.033-.15-.043l-.12.486a.982.982 0 0 1 .098.027c.024.008.019.01.006-.002l.354-.353Zm.192.191-.192-.191-.354.353.192.191.354-.353Zm-1.728.123a21.52 21.52 0 0 1-.182.531c0 .003 0 .002.001-.001l.005-.01.021-.03.39.311c.02-.025.032-.05.033-.052a21.324 21.324 0 0 0 .208-.595l-.476-.154Zm.235.312a.29.29 0 0 1 .08-.15l-.002.002a.153.153 0 0 1-.042.017.218.218 0 0 1-.205-.06c-.063-.064-.06-.134-.06-.137 0-.011.001-.007-.007.019l.478.148a.58.58 0 0 0 .029-.157.307.307 0 0 0-.085-.225.283.283 0 0 0-.273-.073.386.386 0 0 0-.138.07.772.772 0 0 0-.27.473l.495.073Zm-.372.157a.24.24 0 0 1 .355.024.186.186 0 0 1 .02.033c.007.015.003.014-.001-.019a.817.817 0 0 1-.002-.2l-.495-.064c-.015.112-.012.238.002.334a.581.581 0 0 0 .042.158c.008.018.04.089.12.133a.261.261 0 0 0 .313-.046l-.354-.353Zm-3.405.217a.25.25 0 0 0 .044-.058.42.42 0 0 0 .032-.068l.041-.11c.032-.086.07-.2.11-.32l-.477-.153a9.24 9.24 0 0 1-.145.413l.004-.007.009-.015a.234.234 0 0 1 .028-.035l.354.353Zm-.444.011c.05.025.103.046.155.058.024.006.06.012.098.011.02 0 .132-.002.21-.1l-.391-.312a.235.235 0 0 1 .17-.088c.02 0 .031.003.027.002a.247.247 0 0 1-.045-.018l-.224.447Zm-.302-.398a.658.658 0 0 0 .1.24c.061.082.14.126.2.157l.229-.445c-.048-.025-.038-.025-.026-.01.004.006.004.009 0 0a.572.572 0 0 1-.018-.063l-.485.121Zm.07-.503a.653.653 0 0 0-.1.245c-.012.097.014.191.03.257l.486-.118a1.158 1.158 0 0 1-.018-.08c-.002-.011 0-.007-.002.005-.001.012-.004.017 0 .008a.927.927 0 0 1 .036-.066l-.433-.25Zm.591-.46a.963.963 0 0 0-.59.458l.43.255a.465.465 0 0 1 .28-.228l-.12-.486Zm.467.33a.275.275 0 0 0 .013-.168.26.26 0 0 0-.134-.171.278.278 0 0 0-.123-.03.509.509 0 0 0-.11.012 3.79 3.79 0 0 0-.112.026l.118.486.096-.022c.027-.006.02-.002 0-.003a.24.24 0 0 1-.22-.183.206.206 0 0 1-.003-.1l.004-.016.471.168Zm-.096.284a76.177 76.177 0 0 1 .086-.256c.006-.02.007-.02.004-.014l-.46-.197-.039.112-.066.198.475.157Zm-.001.003-.473-.163.473.163Zm-.06.18.06-.183-.474-.157-.06.182.475.158Zm.364-.159c.045.197.136.435.254.669l.447-.226a2.598 2.598 0 0 1-.214-.555l-.487.112Zm.048-.106a.162.162 0 0 1-.065-.037c-.021-.02-.029-.037-.027-.034a2.515 2.515 0 0 1 .043.172l.49-.1a1.412 1.412 0 0 0-.077-.276.385.385 0 0 0-.088-.127.339.339 0 0 0-.142-.08l-.134.482Zm.075.099a2.81 2.81 0 0 1 .06-.18c.002-.003-.002.005-.011.016a.179.179 0 0 1-.126.06h-.022l.024.006.133-.482c-.029-.008-.09-.026-.157-.023a.32.32 0 0 0-.232.113.532.532 0 0 0-.089.163 3.21 3.21 0 0 0-.059.184l.48.143Zm-.107.346.107-.345-.478-.146-.106.342.477.149Zm0 0-.477-.15v.001l.477.15Zm0 0-.477-.149.477.15Zm-.061.198.061-.198-.477-.149-.062.2.478.147Zm-.08.255.08-.255-.478-.148-.08.254.478.149Zm.149-.25-.337-.07-.1.49.335.07.102-.49Zm.48.086a7.722 7.722 0 0 1-.482-.086l-.098.49c.177.036.418.082.528.093l.051-.497Zm.174.02-.172-.02-.057.497.171.02.058-.497Zm-.424.02.172.34.446-.224-.171-.34-.447.224Zm1.04-.797-.342-.165-.217.45.343.166.217-.45Zm-.072.563.152-.172-.375-.331-.152.172.375.33Zm-.16.243a1.02 1.02 0 0 1 .159-.242l-.373-.333c-.1.11-.212.283-.256.406l.47.169Zm-.134.267c.035-.036.056-.079.059-.084a2.339 2.339 0 0 0 .075-.183l-.47-.17a1.916 1.916 0 0 1-.05.125l.002-.004.008-.012a.223.223 0 0 1 .022-.026l.354.354Zm-.855-1.171c0 .055.011.114.022.161.013.052.03.109.049.167a4.677 4.677 0 0 0 .299.692.77.77 0 0 0 .087.126.317.317 0 0 0 .103.078.26.26 0 0 0 .304-.063l-.372-.334a.24.24 0 0 1 .275-.059.206.206 0 0 1 .062.044c.002.002-.007-.008-.026-.042a4.151 4.151 0 0 1-.257-.599 1.62 1.62 0 0 1-.037-.126c-.01-.038-.01-.05-.01-.045h-.5Zm.877-.068a3.92 3.92 0 0 0-.443-.189.44.44 0 0 0-.202-.02.28.28 0 0 0-.232.277h.5c0 .025-.006.08-.049.134a.22.22 0 0 1-.168.084l-.013-.001.017.004c.06.019.174.067.377.163l.213-.452Zm1.367.938c-.03 0-.232.014-.432.03l.04.499.276-.021.116-.008v-.5Zm-.911-.132c.173.106.378.248.53.364.077.059.135.106.168.136.02.02.017.019.008.005a.235.235 0 0 1-.038-.128.245.245 0 0 1 .218-.244l.05.498a.254.254 0 0 0 .208-.362.297.297 0 0 0-.027-.048.557.557 0 0 0-.079-.087 2.915 2.915 0 0 0-.205-.168 7.385 7.385 0 0 0-.573-.392l-.26.426Zm-.107-.099a.246.246 0 0 1-.092-.018c-.003 0-.003-.001.002.001l.043.024c.04.022.093.055.152.091l.264-.424a5.082 5.082 0 0 0-.231-.136.53.53 0 0 0-.056-.024c-.001 0-.037-.014-.083-.014v.5Zm.039.065a3.127 3.127 0 0 1 .113-.117l-.006.004c-.003.002-.01.008-.023.015a.24.24 0 0 1-.123.033v-.5a.252.252 0 0 0-.157.055.435.435 0 0 0-.068.062 3.73 3.73 0 0 0-.105.11l.369.338Zm-.22.38a.834.834 0 0 1 .218-.378l-.365-.342c-.171.183-.303.41-.344.627l.492.092Zm-.02.103.02-.103-.49-.094-.02.102.49.095Zm.106-.277-.336-.02-.03.5.337.019.03-.5Zm.685-.01a7.252 7.252 0 0 1-.686.01l-.027.499c.198.01.532.004.745-.01l-.032-.499Z"/><path fill="#0091C8" d="M23.715 12.09v4.025H6.331v-4.272c.017.068.283.152.471.22.343.12.369.12.703-.102.453-.298.736-.29 1.25.034.77.486.976.495 1.208.069.17-.333.556-.333 1.216.008.282.145.573.256.66.256.076 0 .265-.136.41-.298.326-.375.514-.35 1.353.136.677.4.908.426.977.094.094-.418.171-.486.565-.486.24.008.6.11.968.281.317.154.642.273.702.273.068 0 .145-.12.18-.264a.697.697 0 0 1 .231-.384c.231-.145.471-.085 1.225.298.753.375.968.341.968-.162 0-.153.162-.255.41-.255.078 0 .395.153.711.35.685.408.874.408.934-.01.06-.425.343-.434 1.079-.05.548.298 1.163.418 1.163.24Z"/><path stroke="#fff" stroke-linecap="round" stroke-linejoin="round" stroke-width=".5" d="M6.395 11.99c.017.067.196.17.384.238.342.12.368.12.7-.102.453-.299.735-.29 1.248.034.769.486.974.494 1.204.068.171-.333.556-.333 1.213.008.282.145.572.256.658.256.077 0 .265-.136.41-.298.325-.375.513-.35 1.35.136.674.4.905.426.973.094.094-.418.171-.486.564-.486.24.008.598.11.965.281.317.154.641.273.7.273.07 0 .146-.12.18-.264a.697.697 0 0 1 .23-.384c.232-.145.47-.085 1.222.299.752.375.966.34.966-.162 0-.154.162-.256.41-.256.077 0 .393.153.709.35.683.409.871.409.93-.01.06-.425.342-.434 1.077-.05.547.298 1.06.4 1.06.221"/><path fill="#fff" fill-rule="evenodd" d="M18.406 15.627c-.236.16-.52.29-.626.29-.098 0-.407-.102-.667-.224l-.488-.232-.309.16c-.17.086-.406.194-.528.238-.13.05-.228.115-.228.144 0 .108.26.058.618-.13.398-.21.626-.195 1.016.043.537.347.708.333 1.301-.086.374-.268.634-.275 1.268-.03.472.174.529.181.773.087l.268-.1-.284-.008c-.155-.007-.52-.108-.797-.224-.285-.123-.602-.216-.7-.216-.097 0-.381.13-.617.288Zm-7.683.073c.398.281.642.274 1.024-.036.374-.304.472-.304 1.033-.073.487.203.674.217.935.094.162-.072.17-.072.065.044-.244.26-.39.274-.895.079-.553-.202-.666-.188-1.236.18-.186.116-.365.217-.398.217-.032 0-.252-.115-.48-.252-.455-.282-.634-.304-.991-.138-.139.058-.31.094-.383.065-.105-.036-.048-.086.228-.216.488-.232.732-.224 1.098.036Z" clip-rule="evenodd"/></g><path stroke="#000" stroke-opacity=".1" stroke-width=".5" d="M.25.25h23.5v17.5H.25z"/><defs><clipPath id="a"><path fill="#fff" d="M0 0h24v18H0z"/></clipPath></defs></svg>