<svg xmlns="http://www.w3.org/2000/svg" fill="none" viewBox="0 0 24 18"><g clip-path="url(#a)"><mask id="b" width="24" height="18" x="0" y="0" maskUnits="userSpaceOnUse" style="mask-type:luminance"><path fill="#fff" d="M0 0h24v18H0z"/></mask><g mask="url(#b)"><rect width="24" height="18" fill="#E11C1B" rx="2"/><path fill="#1D1D1D" fill-rule="evenodd" d="m0 0 24 18H0z" clip-rule="evenodd"/><path fill="#EEEEF6" fill-rule="evenodd" d="M5.313 13.701h.998l.475-1.12.559 1.113 1.023.056-.874.952.449 1.146-1.112-.638-1.027.644.388-1.113zm-3-3h.998l.475-1.12.559 1.113 1.023.056-.874.952.449 1.146-1.112-.638-1.027.644.388-1.113zm3-1.5h.998l.475-1.12.559 1.113 1.023.056-.874.952.449 1.146-1.112-.638-1.027.644.388-1.113z" clip-rule="evenodd"/><path fill="#EEEEF6" fill-rule="evenodd" d="m7.283 12.423.687-.023.248-.708.278.705.632.06-.57.403.46.712-.796-.298-.69.308.364-.703zm1.5-1.5.687-.023.248-.708.278.705.632.06-.57.403.46.712-.796-.298-.69.308.364-.703z" clip-rule="evenodd"/><path fill="#FBCD17" fill-rule="evenodd" d="M15.813 1.5s-2.317.462-1.667 3.682h-.33s.027-.168-.29-.266c-.319-.099-.255-.062-.419 0-.164.061-1.161 0-1.161 0v.123l.706.305s-.018.254.277.395c.295.14.51.208.51.208s.043.28-.233.28c-.277 0-1.389-.36-1.785.525a7.7 7.7 0 0 1-.921 1.536h.593l-.159.198h.668l-.18.103s.826-.01.89-.103 0 .253 0 .253.8-.366.845-.45l.373.256.107-.434.4.177.11-.413s1.134 1.897 1.994 1.788v-.315l.785.315.1-.14s.948.386 1.24.422l-.209-.422h.208l-.208-.784h.208l-.416-.628.117-.17-.078-.224s1.527.487 1.458 1.26c-.069.774-.749 1.086-.749 1.086s-.652.2-1.24.157c0 0 .467.552 1.456.365.99-.187 1.317-1.146 1.317-1.146s.454.942.08 1.437c-.373.495-2.036.843-2.036.843s.602.353 1.172.263 1.457-.587 1.63-1.397c.171-.81-.594-2.304-.94-2.474l-.137-.519.311.125-.64-1.563.31.068-.904-1.125.25-.077-1.25-.898.374-.099s-.924-.468-1.977.099l.01-.196-.277.047.016-.216.275-.417-.413-.159s.334-.501.284-.495c0 0-.372.107-.351.062 0 0 .188-.483.138-.47 0 0-.431.147-.367.073l.165-.295z" clip-rule="evenodd"/></g></g><rect width="23" height="17" x=".5" y=".5" stroke="#000" stroke-opacity=".1" rx="1.5"/><defs><clipPath id="a"><rect width="24" height="18" fill="#fff" rx="2"/></clipPath></defs></svg>