<svg xmlns="http://www.w3.org/2000/svg" fill="none" viewBox="0 0 24 18"><g clip-path="url(#a)"><mask id="b" width="24" height="18" x="0" y="0" maskUnits="userSpaceOnUse" style="mask-type:luminance"><path fill="#fff" d="M0 0h24v18H0z"/></mask><g mask="url(#b)"><path fill="#032EA1" d="M0 0h24v18H0V0Z"/><path fill="#E00025" d="M0 4.5h24v9H0v-9Z"/><path fill="#fff" stroke="#000" stroke-linejoin="bevel" stroke-width=".06" d="M9.465 8.483h5.121v1.97H9.465v-1.97Z"/><path fill="#fff" fill-rule="evenodd" d="M14.586 8.887H9.465v.207h5.121v-.207Zm-5.121.315h5.121v.225H9.465v-.225Zm4.86.365h.158v.742h-.158v-.742Z" clip-rule="evenodd"/><path fill="#000" d="M9.465 8.887v-.03l-.03.03h.03Zm5.121 0h.03l-.03-.03v.03Zm-5.121.207h-.03l.03.03v-.03Zm5.121 0v.03l.03-.03h-.03Zm0 .108h.03l-.03-.03v.03Zm-5.121 0v-.03l-.03.03h.03Zm5.121.225v.03l.03-.03h-.03Zm-5.121 0h-.03l.03.03v-.03Zm5.018.14h.03l-.03-.03v.03Zm-.158 0v-.03l-.03.03h.03Zm.158.742v.03l.03-.03h-.03Zm-.158 0h-.03l.03.03v-.03Zm-4.86-1.392h5.121v-.06H9.465v.06Zm.03.177v-.207h-.06v.207h.06Zm5.091-.03H9.465v.06h5.121v-.06Zm-.03-.177v.207h.06v-.207h-.06Zm.03.285H9.465v.06h5.121v-.06Zm.03.255v-.225h-.06v.225h.06Zm-5.151.03h5.121v-.06H9.465v.06Zm-.03-.255v.225h.06v-.225h-.06Zm5.047.335h-.157v.06h.158v-.06Zm.03.772v-.742h-.06v.742h.06Zm-.187.03h.158v-.06h-.158v.06Zm-.03-.772v.742h.06v-.742h-.06Z"/><path fill="#fff" stroke="#000" stroke-linejoin="bevel" stroke-width=".06" d="M9.465 8.582h5.121v.193H9.465v-.193Z"/><path fill="#fff" fill-rule="evenodd" d="M9.667 9.567H9.51v.742h.157v-.742Zm1.148 0h.162v.742h-.162v-.742Zm2.205 0h.162v.742h-.162v-.742Zm-3.195 0h.157v.742h-.157v-.742Zm.495 0h-.158v.742h.158v-.742Zm.18 0h.158v.742H10.5v-.742Zm2.988 0h-.162v.742h.162v-.742Zm.176 0h.162v.742h-.162v-.742Zm.499 0h-.162v.742h.162v-.742Z" clip-rule="evenodd"/><path fill="#000" d="M9.51 9.567v-.03l-.03.03h.03Zm.157 0h.03l-.03-.03v.03Zm-.157.742h-.03l.03.03v-.03Zm.157 0v.03l.03-.03h-.03Zm1.31-.742h.03l-.03-.03v.03Zm-.162 0v-.03l-.03.03h.03Zm.162.742v.03l.03-.03h-.03Zm-.162 0h-.03l.03.03v-.03Zm2.367-.742h.03l-.03-.03v.03Zm-.162 0v-.03l-.03.03h.03Zm.162.742v.03l.03-.03h-.03Zm-.162 0h-.03l.03.03v-.03Zm-3.038-.742h.03l-.03-.03v.03Zm-.157 0v-.03l-.03.03h.03Zm.157.742v.03l.03-.03h-.03Zm-.157 0h-.03l.03.03v-.03Zm.338-.742v-.03l-.03.03h.03Zm.157 0h.03l-.03-.03v.03Zm-.158.742h-.03l.03.03v-.03Zm.158 0v.03l.03-.03h-.03Zm.338-.742h.03l-.03-.03v.03Zm-.158 0v-.03l-.03.03h.03Zm.158.742v.03l.03-.03h-.03Zm-.158 0h-.03l.03.03v-.03Zm2.826-.742v-.03l-.03.03h.03Zm.162 0h.03l-.03-.03v.03Zm-.162.742h-.03l.03.03v-.03Zm.162 0v.03l.03-.03h-.03Zm.338-.742h.03l-.03-.03v.03Zm-.162 0v-.03l-.03.03h.03Zm.162.742v.03l.03-.03h-.03Zm-.162 0h-.03l.03.03v-.03ZM14 9.567v-.03l-.03.03H14Zm.162 0h.03l-.03-.03v.03Zm-.162.742h-.03l.03.03v-.03Zm.162 0v.03l.03-.03h-.03ZM9.51 9.598h.157v-.06H9.51v.06Zm.03.713v-.743h-.06v.742h.06Zm.127-.03H9.51v.06h.157v-.06Zm-.03-.713v.742h.06v-.742h-.06Zm1.34-.03h-.162v.06h.162v-.06Zm.03.772v-.742h-.06v.742h.06Zm-.192.03h.162v-.06h-.162v.06Zm-.03-.772v.742h.06v-.742h-.06Zm2.397-.03h-.162v.06h.162v-.06Zm.03.772v-.742h-.06v.742h.06Zm-.192.03h.162v-.06h-.162v.06Zm-.03-.772v.742h.06v-.742h-.06Zm-3.008-.03h-.157v.06h.157v-.06Zm.03.772v-.742h-.06v.742h.06Zm-.187.03h.157v-.06h-.157v.06Zm-.03-.772v.742h.06v-.742h-.06Zm.367.03h.158v-.06h-.158v.06Zm.03.713v-.743h-.06v.742h.06Zm.128-.03h-.158v.06h.158v-.06Zm-.03-.713v.742h.06v-.742h-.06Zm.368-.03H10.5v.06h.158v-.06Zm.03.772v-.742h-.06v.742h.06Zm-.188.03h.158v-.06H10.5v.06Zm-.03-.772v.742h.06v-.742h-.06Zm2.856.03h.162v-.06h-.162v.06Zm.03.713v-.743h-.06v.742h.06Zm.132-.03h-.162v.06h.162v-.06Zm-.03-.713v.742h.06v-.742h-.06Zm.367-.03h-.161v.06h.162v-.06Zm.03.772v-.742h-.06v.742h.06Zm-.191.03h.162v-.06h-.162v.06Zm-.03-.772v.742h.06v-.742h-.06Zm.367.03h.162v-.06h-.162v.06Zm.03.713v-.743h-.06v.742h.06Zm.132-.03h-.162v.06h.162v-.06Zm-.03-.713v.742h.06v-.742h-.06Z"/><path fill="#fff" stroke="#000" stroke-width=".06" d="M7.462 10.553a.419.419 0 0 0 .198-.239h8.69a.419.419 0 0 0 .198.239H7.462Z"/><path fill="#fff" fill-rule="evenodd" d="M11.998 5.292c-.107.004-.103.189-.103.189h.203s.004-.189-.1-.189Zm-.665 2.394v.247h1.332v-.247c.002-.068.038-.102.071-.133.028-.026.054-.05.054-.092 0 0 .019-.135-.022-.198-.045.18-.135.148-.135.072 0-.055.037-.11.115-.223l.038-.056c.036-.054.014-.212-.031-.27-.019.14-.041.202-.1.202-.035 0-.067-.022-.067-.09 0-.054.023-.092.048-.132.015-.026.032-.052.042-.084a.225.225 0 0 0-.045-.238 3.066 3.066 0 0 0-.01.064c-.013.088-.018.125-.066.125-.114-.034-.016-.192.02-.25l.007-.011c.022-.086-.045-.153-.045-.153-.037.117-.046.13-.09.117-.054-.014-.046-.09.018-.153.04-.04.035-.104-.01-.149-.045.09-.117.077-.107.023l.04-.194h-.054l.018-.139h-.715l.018.14h-.05l.036.197c-.005.054-.059.059-.104-.027-.044.045-.049.104-.008.149.063.063.071.14.018.153-.045.013-.054.004-.09-.117 0 0-.072.103-.045.153l.007.013c.037.058.132.21.02.248-.049 0-.054-.037-.067-.125a3.056 3.056 0 0 0-.01-.064.225.225 0 0 0-.05.238c.012.03.027.055.041.078.026.042.05.081.05.138 0 .068-.027.09-.063.09-.059 0-.082-.067-.1-.202-.045.058-.067.216-.031.265l.023.035c.087.133.126.19.126.249 0 .076-.086.108-.135-.072-.037.063-.018.198-.018.198 0 .041.026.065.055.092.034.03.07.065.07.133Zm.36-2.079.008.112h.585l.014-.112h-.607Zm.112-.005-.014-.117h.405l-.004.117h-.387Zm1.26 4.726c0 .094.135.193.225.225h-2.542c.09-.032.18-.131.18-.226V9.235l-.113-.153h2.367l-.117.153v1.094Z" clip-rule="evenodd"/><path fill="#000" d="M11.895 5.481h-.03v.03h.03v-.03Zm.104-.189v-.03h-.002l.002.03Zm.098.189v.03h.03v-.03h-.03Zm-.764 2.452h-.03v.03h.03v-.03Zm1.332 0v.03h.03v-.03h-.03Zm0-.247-.03-.001v.001h.03Zm.071-.133-.02-.021.02.021Zm.054-.092-.03-.004v.004h.03Zm-.022-.198.025-.016-.037-.059-.017.068.029.007Zm-.02-.151.025.017-.025-.017Zm.038-.056.025.017-.025-.017Zm-.031-.27.023-.018-.044-.058-.01.072.03.004Zm-.12-.02-.025-.016.026.016Zm.043-.084-.028-.01v.001l.028.01Zm-.045-.238.022-.02-.042-.045-.01.06.03.005Zm-.01.064.03.004-.03-.004Zm-.066.125-.01.03h.01v-.03Zm.02-.25.025.016-.025-.016Zm.007-.011.026.016.003-.008-.03-.008Zm-.045-.153.02-.021-.034-.035-.015.047.029.009Zm-.09.117.008-.029h-.001l-.008.029Zm.008-.302.022-.02-.03-.03-.018.037.027.013Zm-.107.023-.03-.006v.001l.03.005Zm.04-.194.03.007.007-.037h-.037v.03Zm-.054 0-.03-.003-.004.033h.034v-.03Zm.018-.139.03.004.004-.034h-.034v.03Zm-.715 0v-.03h-.035l.005.034.03-.004Zm.018.14v.03h.034l-.005-.034-.03.003Zm-.05 0v-.03h-.036l.007.035.029-.006Zm.036.197.031.003-.002-.008-.029.005Zm-.104-.027.027-.013-.019-.037-.029.03.021.02Zm-.008.149-.023.02.001.001.021-.021Zm.018.153-.008-.03-.001.001.009.029Zm-.09-.117.028-.009-.018-.06-.035.052.025.017Zm-.045.153-.027.014.001.002.026-.016Zm.007.013-.025.015.025-.015Zm.02.248v.032l.009-.004-.01-.028Zm-.067-.125-.03.004.03-.004Zm0 0 .03-.005-.03.005Zm0 0-.03.004.03-.004Zm-.01-.064.03-.005-.01-.058-.041.042.021.021Zm-.05.238-.027.011.027-.01Zm.041.078.026-.015-.026.015Zm-.113.026.03-.004-.01-.071-.043.057.024.018Zm-.031.265.025-.016v-.001l-.025.017Zm.023.035-.025.017.025-.017Zm-.01.177.03-.008-.02-.07-.036.063.027.015Zm-.018.198h.03v-.004l-.03.004Zm.056.092.02-.022-.02.022Zm.44-1.834-.03.003.002.027h.027v-.03Zm-.01-.112v-.03h-.032l.003.032.03-.002Zm.595.112v.03h.026l.003-.026-.03-.004Zm.013-.112.03.004.004-.034H12.3v.03Zm-.509-.122v-.03h-.033l.004.034.03-.004Zm.014.117-.03.004.003.026h.027v-.03Zm.392-.117.03.002v-.032h-.03v.03Zm-.005.117v.03h.029l.001-.028-.03-.002Zm1.098 4.95v.03l.01-.058-.01.029Zm-2.542 0-.01-.028.01.059v-.03Zm.18-1.318h.03v-.01l-.006-.008-.024.018Zm-.113-.153v-.03h-.06l.036.048.024-.018Zm2.367 0 .024.018.037-.048h-.061v.03Zm-.117.153-.024-.018-.006.008v.01h.03Zm-1.17-3.753h.03v-.007a.362.362 0 0 1 .01-.078.144.144 0 0 1 .025-.054.052.052 0 0 1 .04-.02l-.003-.06a.112.112 0 0 0-.083.042.202.202 0 0 0-.037.076.383.383 0 0 0-.012.093v.008h.03Zm.203-.03h-.203v.06h.203v-.06Zm-.1-.129c.016 0 .027.006.036.018a.16.16 0 0 1 .024.054.36.36 0 0 1 .01.08v.006l.03.001h.03v-.009a.402.402 0 0 0-.012-.093.203.203 0 0 0-.035-.076.103.103 0 0 0-.082-.041v.06Zm-.635 2.611v-.247h-.06v.247h.06Zm1.302-.03h-1.332v.06h1.332v-.06Zm-.03-.217v.247h.06v-.247h-.06Zm.08-.154c-.033.03-.078.072-.08.153l.06.002c.001-.055.029-.081.062-.112l-.041-.043Zm.046-.071c0 .027-.015.043-.045.07l.04.044c.028-.025.064-.058.064-.114h-.06Zm-.018-.182a.222.222 0 0 1 .021.107.56.56 0 0 1-.003.066v.005l.03.004.03.004v-.007a.515.515 0 0 0 .003-.073.27.27 0 0 0-.03-.138l-.051.032Zm-.14.056c0 .025.007.048.022.066a.067.067 0 0 0 .064.024.103.103 0 0 0 .063-.047.327.327 0 0 0 .045-.108l-.058-.014a.271.271 0 0 1-.036.088c-.012.017-.021.021-.025.022-.002 0-.004 0-.007-.004a.043.043 0 0 1-.008-.027h-.06Zm.12-.24c-.038.056-.068.1-.088.136a.215.215 0 0 0-.032.104h.06c0-.02.007-.042.025-.075.018-.033.046-.074.085-.131l-.05-.034Zm.038-.056-.038.056.05.034.038-.056-.05-.034Zm-.03-.235a.28.28 0 0 1 .04.122c.003.025.004.05.002.07a.098.098 0 0 1-.012.043l.05.034a.157.157 0 0 0 .021-.07.384.384 0 0 0-.002-.084.336.336 0 0 0-.052-.151l-.047.036Zm-.075.214A.09.09 0 0 0 12.71 7a.125.125 0 0 0 .037-.048.602.602 0 0 0 .036-.162l-.06-.008a.55.55 0 0 1-.031.145.065.065 0 0 1-.018.026.03.03 0 0 1-.02.005v.06Zm-.098-.12c0 .038.009.07.028.09a.09.09 0 0 0 .07.03v-.06c-.012 0-.02-.003-.025-.009-.006-.007-.013-.021-.013-.05h-.06Zm.052-.148c-.024.04-.052.084-.052.148h.06c0-.045.019-.076.043-.117l-.05-.03Zm.04-.077a.37.37 0 0 1-.04.077l.051.031a.411.411 0 0 0 .046-.089l-.058-.019Zm-.039-.208a.195.195 0 0 1 .04.206l.055.023a.255.255 0 0 0-.051-.27l-.044.04Zm.042.047.01-.063-.06-.01-.01.064.06.01Zm-.097.151a.082.082 0 0 0 .046-.012.078.078 0 0 0 .028-.035c.012-.025.017-.062.023-.104l-.06-.009a.405.405 0 0 1-.017.088c-.003.007-.006.009-.007.01-.001 0-.004.002-.013.002v.06Zm-.005-.296c-.017.028-.053.086-.069.142a.157.157 0 0 0-.004.088.1.1 0 0 0 .07.065l.017-.058c-.02-.006-.026-.015-.03-.025a.1.1 0 0 1 .005-.054.567.567 0 0 1 .062-.126l-.05-.032Zm.007-.01-.007.01.051.032.007-.011-.051-.032Zm-.02-.138-.02.021a.118.118 0 0 1 .007.01.176.176 0 0 1 .018.027c.012.024.02.054.012.087l.058.016a.182.182 0 0 0-.017-.13.24.24 0 0 0-.035-.05v-.002h-.001l-.021.021Zm-.098.146a.094.094 0 0 0 .041.005.06.06 0 0 0 .04-.025.183.183 0 0 0 .023-.046c.007-.018.014-.042.023-.071l-.057-.018-.022.068a.133.133 0 0 1-.015.03l-.002.003-.014-.004-.017.058Zm.005-.203a.202.202 0 0 0-.061.113.09.09 0 0 0 .01.055c.01.018.027.03.047.035l.015-.058c-.006-.002-.009-.004-.01-.007a.028.028 0 0 1-.003-.018.143.143 0 0 1 .045-.078l-.043-.042Zm-.009-.106c.036.036.036.08.01.106l.042.042c.054-.054.045-.137-.01-.19l-.042.042Zm-.116-.004a.07.07 0 0 0 .013.056.062.062 0 0 0 .052.022c.037-.002.074-.032.1-.082l-.054-.027c-.02.04-.042.048-.05.049h-.002v-.008l-.06-.01Zm.04-.195-.04.194.059.012.04-.193-.058-.013Zm-.024.036h.054v-.06h-.054v.06Zm-.012-.173-.018.14.06.007.018-.14-.06-.007Zm-.685.034h.715v-.06h-.715v.06Zm.047.106-.018-.14-.06.008.019.14.06-.008Zm-.079.033h.05v-.06h-.05v.06Zm.066.163-.037-.198-.058.01.036.199.058-.01Zm-.16-.008c.024.045.055.077.09.082a.058.058 0 0 0 .05-.017.079.079 0 0 0 .02-.049l-.06-.005c0 .009-.003.012-.003.012.001 0 .001 0 0 0-.004-.001-.023-.01-.044-.05l-.053.027Zm.04.115a.07.07 0 0 1-.02-.052.087.087 0 0 1 .028-.055l-.043-.043a.147.147 0 0 0-.045.094.13.13 0 0 0 .035.096l.045-.04Zm.003.202a.074.074 0 0 0 .047-.035.09.09 0 0 0 .01-.055.202.202 0 0 0-.061-.113l-.043.042a.143.143 0 0 1 .045.078c0 .01-.001.015-.003.018-.001.003-.004.005-.01.007l.015.058Zm-.126-.137.023.073a.171.171 0 0 0 .024.046c.01.013.023.021.04.023a.102.102 0 0 0 .04-.005l-.017-.058a.053.053 0 0 1-.016.004h.001l-.001-.001a.119.119 0 0 1-.014-.03 1.156 1.156 0 0 1-.023-.07l-.057.018Zm.01.13c-.002-.004-.004-.012-.001-.026a.185.185 0 0 1 .014-.043.393.393 0 0 1 .028-.049l.002-.003-.024-.018-.025-.017-.001.001-.003.004a.453.453 0 0 0-.031.057.245.245 0 0 0-.02.058.098.098 0 0 0 .008.064l.053-.028Zm.007.01-.008-.012-.051.032.008.012.05-.031Zm.003.293a.1.1 0 0 0 .069-.066.155.155 0 0 0-.004-.086.553.553 0 0 0-.068-.14l-.051.031c.018.03.049.08.062.125a.1.1 0 0 1 .003.053c-.003.01-.01.02-.03.027l.019.056Zm-.106-.149c.006.042.011.079.023.104a.08.08 0 0 0 .028.035c.014.009.03.012.046.012v-.06c-.009 0-.012-.002-.013-.002-.001-.001-.004-.003-.007-.01a.405.405 0 0 1-.018-.088l-.059.01Zm0 0 .06-.009-.06.009Zm0 0 .06-.009-.06.01Zm-.01-.063.01.063.06-.009-.01-.064-.06.01Zm.008.223a.195.195 0 0 1 .043-.207l-.042-.042a.255.255 0 0 0-.056.27l.055-.021Zm.039.073a.455.455 0 0 1-.039-.073l-.056.021c.013.033.03.06.044.083l.051-.031Zm.053.153a.28.28 0 0 0-.053-.153l-.051.03c.025.043.044.075.044.123h.06Zm-.092.12c.024 0 .05-.008.068-.03a.14.14 0 0 0 .024-.09h-.06c0 .031-.006.046-.01.052-.005.005-.011.008-.023.008v.06Zm-.13-.228a.61.61 0 0 0 .037.16c.01.02.02.037.036.05a.094.094 0 0 0 .056.018v-.06a.029.029 0 0 1-.018-.006.07.07 0 0 1-.019-.026.562.562 0 0 1-.032-.144l-.06.008Zm.023.244a.085.085 0 0 1-.01-.04.315.315 0 0 1 .001-.068.28.28 0 0 1 .04-.122l-.047-.036a.336.336 0 0 0-.052.15.367.367 0 0 0-.002.082c.002.025.008.05.022.07l.048-.036Zm.024.036-.023-.035-.05.033.023.035.05-.033Zm.13.265a.232.232 0 0 0-.033-.11 2.207 2.207 0 0 0-.097-.155l-.05.033c.044.067.074.113.094.15.02.036.026.06.026.082h.06Zm-.193-.064a.343.343 0 0 0 .046.107.105.105 0 0 0 .063.047.065.065 0 0 0 .064-.025.103.103 0 0 0 .02-.065h-.06a.045.045 0 0 1-.007.027c-.003.004-.005.004-.006.004-.003 0-.013-.005-.025-.022a.288.288 0 0 1-.038-.089l-.057.016Zm.01.19.03-.004v-.005a.885.885 0 0 1-.004-.066c0-.02.001-.041.004-.06a.143.143 0 0 1 .014-.048l-.052-.03a.2.2 0 0 0-.021.068.458.458 0 0 0-.001.142v.006l.03-.003Zm.076.07c-.03-.028-.046-.044-.046-.07h-.06c0 .056.038.089.065.114l.04-.044Zm.08.155c0-.082-.046-.124-.08-.155l-.04.044c.033.03.06.057.06.111h.06Zm.37-1.969-.01-.112-.06.004.01.113.06-.005Zm.555-.028H11.7v.06h.585v-.06Zm-.017-.086-.013.113.06.007.013-.112-.06-.008Zm-.577.034h.607v-.06h-.607v.06Zm.069-.148.013.117.06-.007-.014-.117-.06.007Zm.434-.034h-.405v.06h.405v-.06Zm.026.149.005-.117-.06-.003-.005.117.06.003Zm-.417.028h.387v-.06h-.387v.06Zm1.495 4.892a.435.435 0 0 1-.136-.083c-.044-.039-.069-.08-.069-.114h-.06c0 .061.042.117.089.159a.493.493 0 0 0 .156.095l.02-.057Zm-2.553.059h2.543v-.06h-2.542v.06Zm.15-.255a.19.19 0 0 1-.049.116.265.265 0 0 1-.11.08l.02.057c.05-.018.1-.054.136-.098a.25.25 0 0 0 .063-.155h-.06Zm0-1.094v1.094h.06V9.234h-.06Zm-.106-.135.112.153.049-.036-.113-.153-.048.036Zm2.391-.048h-2.367v.06h2.367v-.06Zm-.093.201.117-.153-.048-.036-.117.153.048.036Zm.006 1.075V9.235h-.06v1.094h.06Z"/><path fill="#fff" fill-rule="evenodd" d="M11.391 9.567h-.162v.742h.162v-.742Zm1.368 0h-.162v.742h.162v-.742Z" clip-rule="evenodd"/><path fill="#000" d="M11.229 9.567v-.03l-.03.03h.03Zm.162 0h.03l-.03-.03v.03Zm-.162.742h-.03l.03.03v-.03Zm.162 0v.03l.03-.03h-.03Zm1.206-.742v-.03l-.03.03h.03Zm.162 0h.03l-.03-.03v.03Zm-.162.742h-.03l.03.03v-.03Zm.162 0v.03l.03-.03h-.03Zm-1.53-.712h.162v-.06h-.162v.06Zm.03.713v-.743h-.06v.742h.06Zm.132-.03h-.162v.06h.162v-.06Zm-.03-.713v.742h.06v-.742h-.06Zm1.236.03h.162v-.06h-.162v.06Zm.03.713v-.743h-.06v.742h.06Zm.132-.03h-.162v.06h.162v-.06Zm-.03-.713v.742h.06v-.742h-.06Z"/><path fill="#fff" stroke="#000" stroke-width=".06" d="M10.77 7.839v1.242h2.43V7.839a.189.189 0 0 0-.117.126v.531h-2.191v-.531s-.027-.09-.127-.126h.005Z"/><path fill="#fff" stroke="#000" stroke-width=".06" d="M12.867 10.552c-.081-.031-.252-.13-.252-.225V9.103c.018-.067.108-.108.166-.153h-1.606c.076.045.162.077.193.153v1.224c0 .095-.135.194-.216.225h1.715Z"/><path fill="#fff" fill-rule="evenodd" d="M13.083 8.082v.882h-2.191v-.878h.225v-.09h1.745v.086h.221Zm-.752 2.245c0 .095.113.194.194.226h-1.053c.077-.032.194-.131.194-.226V9.28l-.068-.09h.796l-.063.094v1.045Z" clip-rule="evenodd"/><path fill="#000" d="M13.083 8.964v.03h.03v-.03h-.03Zm0-.882h.03v-.03h-.03v.03Zm-2.191.882h-.03v.03h.03v-.03Zm0-.878v-.03h-.03v.03h.03Zm.225 0v.03h.03v-.03h-.03Zm0-.09v-.03h-.03v.03h.03Zm1.745 0h.03v-.03h-.03v.03Zm0 .086h-.03v.03h.03v-.03Zm-.337 2.47v.03l.01-.058-.01.029Zm-1.053 0-.011-.027.011.057v-.03Zm.194-1.273h.03v-.01l-.006-.008-.024.018Zm-.068-.09v-.03h-.06l.036.048.024-.018Zm.796 0 .025.017.032-.047h-.056v.03Zm-.063.094-.024-.016-.005.007v.01h.03Zm.782-.319v-.882h-.06v.882h.06Zm-2.221.03h2.191v-.06h-2.191v.06Zm-.03-.908v.878h.06v-.878h-.06Zm.255-.03h-.226v.06h.226v-.06Zm-.03-.06v.09h.06v-.09h-.06Zm1.776-.03h-1.746v.06h1.745v-.06Zm.03.116v-.086h-.06v.086h.06Zm.19-.03h-.22v.06h.22v-.06Zm-.547 2.473a.344.344 0 0 1-.116-.082c-.036-.038-.059-.08-.059-.115h-.06c0 .058.035.113.075.156a.402.402 0 0 0 .138.096l.022-.056Zm-1.064.057h1.053v-.06h-1.053v.06Zm.164-.255c0 .036-.023.077-.06.116a.369.369 0 0 1-.115.082l.022.055a.428.428 0 0 0 .136-.096c.04-.042.076-.098.076-.156h-.06Zm0-1.048v1.049h.06V9.279h-.06Zm-.062-.072.068.09.048-.036-.068-.09-.048.036Zm.82-.048h-.796v.06h.796v-.06Zm-.037.141.063-.094-.05-.034-.063.095.05.033Zm.005 1.027V9.284h-.06v1.045h.06Z"/><path fill="#fff" stroke="#000" stroke-width=".06" d="M11.791 9.189h.405v1.364h-.405V9.188Z"/><path fill="#fff" stroke="#000" stroke-linejoin="bevel" stroke-width=".06" d="M12.408 8.888c0-.09.261-.095.396-.171h-1.62c.135.076.392.08.392.17l.053.176.676.027.103-.202Z"/><path fill="#fff" fill-rule="evenodd" d="M13.02 7.564s-.22.027-.22.28v-.212c-.068 0-.077.081-.077.301l-1.454-.004c0-.212 0-.302-.08-.302v.698c.166.063.283.27.283.27h1.044s.117-.207.284-.27v.396h.161v-.639s-.067 0-.067-.113c0-.108.04-.184.126-.18v-.225Z" clip-rule="evenodd"/><path fill="#000" d="M13.02 7.564h.03v-.033l-.034.004.004.03Zm-.22.068h.03v-.03h-.03v.03Zm-.077.301v.03h.03v-.03h-.03Zm-1.454-.004h-.03v.03h.03v-.03Zm-.08-.302v-.03h-.03v.03h.03Zm0 .698h-.03v.02l.019.008.01-.028Zm.283.27-.026.015.008.015h.018v-.03Zm1.044 0v.03h.018l.008-.015-.026-.015Zm.284-.27h.03v-.043l-.041.015.01.028Zm0 .396h-.03v.03h.03v-.03Zm.161 0v.03h.03v-.03h-.03Zm0-.639h.03v-.03h-.03v.03Zm.059-.293-.002.03.032.002V7.79h-.03Zm-.19.054c0-.115.05-.176.097-.209a.252.252 0 0 1 .095-.04h.002l-.004-.03-.004-.03a.039.039 0 0 1-.003.001.22.22 0 0 0-.036.009.312.312 0 0 0-.084.04c-.063.044-.123.123-.123.26h.06Zm-.06-.211v.211h.06v-.211h-.06Zm-.017.301c0-.11.002-.183.012-.226.005-.022.011-.033.016-.038.004-.004.008-.007.018-.007v-.06a.082.082 0 0 0-.062.026.139.139 0 0 0-.03.065 1.224 1.224 0 0 0-.014.24h.06Zm-1.484.026 1.454.004v-.06L11.27 7.9v.06Zm-.08-.302c.014 0 .02.004.025.009.005.005.011.017.016.039.01.045.01.117.01.224h.06c0-.104 0-.183-.011-.236a.136.136 0 0 0-.032-.07.091.091 0 0 0-.069-.026v.06Zm.03.668v-.698h-.06v.698h.06Zm.253.27.026-.015-.002-.003-.004-.007-.016-.025a.93.93 0 0 0-.06-.08.561.561 0 0 0-.217-.168l-.021.056a.502.502 0 0 1 .192.15.847.847 0 0 1 .071.099l.004.006v.001l.027-.014Zm1.044-.03h-1.044v.06h1.044v-.06Zm.273-.268a.56.56 0 0 0-.217.167.91.91 0 0 0-.076.106l-.005.007a.076.076 0 0 1-.001.003l.026.015.026.015.001-.002a.264.264 0 0 1 .019-.03.871.871 0 0 1 .056-.075.502.502 0 0 1 .192-.15l-.021-.056Zm.04.424v-.396h-.06v.396h.06Zm.132-.03H12.8v.06h.162v-.06Zm-.03-.609v.639h.06v-.639h-.06Zm-.067-.113c0 .063.019.1.044.122a.093.093 0 0 0 .053.02v-.059h.001-.003a.033.033 0 0 1-.012-.007c-.008-.007-.023-.025-.023-.076h-.06Zm.158-.21a.13.13 0 0 0-.122.062.274.274 0 0 0-.036.148h.06c0-.05.01-.09.026-.115a.07.07 0 0 1 .068-.035l.004-.06Zm-.032-.195v.225h.06v-.225h-.06Z"/><path fill="#fff" stroke="#000" stroke-width=".06" d="M11.188 7.843c0-.252-.22-.279-.22-.279v.225c.085-.004.126.072.126.18 0 .113-.067.113-.067.113v.639h.162v-.878Z"/><path fill="#000" d="M11.616 6.147h.774v-.06h-.774v.06Zm-.09.243h.945v-.06h-.945v.06Zm-.09.292h1.12v-.06h-1.12v.06Zm-.095.356h1.328v-.06h-1.328v.06Zm-.031.405h1.368v-.06H11.31v.06Zm.279 1.287V8.7h-.03v.03h.03Zm.81 0h.03V8.7h-.03v.03Zm0 .297v.03h.03v-.03h-.03Zm-.81 0h-.03v.03h.03v-.03Zm-.693-.252h2.187v-.06h-2.187v.06Zm2.187-.06h-2.187v.06h2.187v-.06Zm-1.494.045h.81V8.7h-.81v.06Zm.78-.03v.297h.06V8.73h-.06Zm.03.267h-.81v.06h.81v-.06Zm-.78.03V8.73h-.06v.297h.06Z"/><path fill="#fff" fill-rule="evenodd" d="m11.819 6.16.107.059.153-.004.104-.054v-.158a.47.47 0 0 1-.017.005c-.037.01-.078.023-.078.085-.013-.08-.03-.093-.058-.114l-.027-.021c-.01.01-.02.017-.03.024-.025.02-.045.034-.056.111-.008-.065-.044-.075-.085-.086a.668.668 0 0 1-.014-.004v.158Zm-.212 2.45c.002-.163.005-.4-.117-.546h1.017c-.121.146-.12.383-.117.547v.052h-.783V8.61Z" clip-rule="evenodd"/><path fill="#000" d="m11.927 6.219-.015.026.007.004h.008v-.03Zm-.108-.058h-.03v.017l.015.009.014-.026Zm.26.054.002.033.012-.007-.014-.026Zm.104-.054.014.026.016-.008V6.16h-.03Zm0-.158h.03v-.042l-.04.014.01.028Zm-.017.005.008.029-.008-.029Zm-.078.085-.03.005.06-.005h-.03Zm-.058-.114-.018.024.018-.024Zm-.027-.021.02-.022-.021-.02-.02.02.021.022Zm-.03.024.019.024-.018-.024Zm-.056.111-.03.004h.06l-.03-.004Zm-.085-.086-.008.029.008-.029Zm-.014-.004.01-.029-.04-.011v.04h.03Zm-.328 2.061v-.03h-.064l.04.05.024-.02Zm.117.547h.03-.03Zm.9-.547.023.02.041-.05h-.064v.03Zm-.117.547h.03-.03Zm0 .052v.03h.03v-.03h-.03Zm-.783 0h-.03v.03h.03v-.03Zm.334-2.47-.108-.059-.029.053.108.058.029-.052Zm.138-.008-.153.004.001.06.153-.005-.001-.06Zm.09-.051-.103.054.027.053.104-.054-.028-.053Zm-.016-.131v.158h.06v-.158h-.06Zm.021.034.019-.006-.02-.056a.444.444 0 0 1-.015.004l.017.058Zm-.056.056c0-.024.008-.033.014-.039a.119.119 0 0 1 .043-.017l-.017-.058a.17.17 0 0 0-.064.029.105.105 0 0 0-.035.085h.06Zm-.106-.09c.014.011.02.016.027.026.006.011.013.03.02.07l.059-.011a.261.261 0 0 0-.028-.09c-.013-.021-.029-.033-.042-.043l-.036.048Zm-.03-.023.03.023.036-.048a.284.284 0 0 1-.025-.02l-.04.045Zm.01.026a.218.218 0 0 0 .032-.027l-.042-.042a.201.201 0 0 1-.026.02l.036.05Zm-.045.09a.17.17 0 0 1 .018-.065.086.086 0 0 1 .027-.025l-.036-.048c-.013.01-.029.02-.042.042a.225.225 0 0 0-.026.09l.06.007Zm-.123-.06c.022.006.035.01.044.018.008.006.016.016.02.043l.06-.008a.118.118 0 0 0-.043-.083c-.02-.016-.046-.023-.064-.028l-.017.058Zm-.014-.004.014.004.017-.058a.798.798 0 0 1-.014-.004l-.017.058Zm.038.129v-.158h-.06v.158h.06Zm-.381 1.922a.502.502 0 0 1 .098.252c.014.095.013.193.012.276h.06a1.91 1.91 0 0 0-.012-.285.562.562 0 0 0-.112-.281l-.046.038Zm1.04-.049H11.49v.06h1.017v-.06Zm-.087.577a1.764 1.764 0 0 1 .012-.276.503.503 0 0 1 .098-.252l-.046-.038a.561.561 0 0 0-.112.281c-.014.1-.013.203-.012.285h.06Zm0 .052V8.61h-.06v.052h.06Zm-.813.03h.783v-.06h-.783v.06Zm-.03-.082v.052h.06V8.61h-.06Z"/><path fill="#fff" stroke="#000" stroke-width=".06" d="m11.918 6.476-.18-.126v-.14c.067.014.135.023.144.099.018-.112.058-.166.121-.211.059.045.099.099.121.211.005-.076.077-.085.135-.099v.144l-.175.122h-.166Z"/><path fill="#fff" fill-rule="evenodd" d="m11.904 6.876-.203-.18v-.212l.019.005c.067.016.135.032.143.135.023-.158.068-.243.136-.306.071.063.117.148.143.306.009-.103.077-.12.144-.135l.019-.005v.212l-.207.18h-.194Zm.378.238-.18.257h-.212l-.184-.257h.576Zm-.549.77c-.009-.189-.045-.293-.135-.342h.792c-.09.05-.126.153-.135.342h-.522Z" clip-rule="evenodd"/><path fill="#000" d="M11.701 6.696h-.03v.013l.01.01.02-.023Zm.203.18-.02.022.009.008h.011v-.03Zm-.203-.392.008-.029-.037-.009v.038h.03Zm.019.005-.007.03.007-.03Zm.143.135-.03.002.06.002-.03-.004ZM12 6.318l.02-.023-.021-.017-.02.018.02.022Zm.143.306-.03.005.06-.003-.03-.002Zm.144-.135.007.03-.007-.03Zm.019-.005h.03v-.038l-.038.01.008.028Zm0 .212.02.023.01-.01v-.013h-.03Zm-.207.18v.03h.01l.01-.007-.02-.023Zm.004.495v.03h.016l.008-.013-.024-.017Zm.18-.257.024.018.034-.048h-.058v.03Zm-.392.257-.024.018.01.012h.014v-.03Zm-.184-.257v-.03h-.058l.034.048.024-.018Zm-.108.428v-.03l-.014.056.014-.026Zm.135.342-.03.001.001.029h.029v-.03Zm.657-.342.014.026-.014-.056v.03Zm-.135.342v.03h.029l.001-.029-.03-.001Zm-.573-1.166.202.18.04-.044-.203-.18-.04.044Zm-.01-.234v.212h.06v-.212h-.06Zm.055-.024-.018-.005-.014.059.018.004.014-.058Zm.166.162c-.004-.06-.027-.098-.062-.123-.032-.023-.072-.032-.104-.04l-.014.06a.238.238 0 0 1 .083.03c.019.012.034.033.038.077l.06-.004Zm.085-.326c-.074.07-.121.162-.144.324l.06.008c.021-.153.064-.231.125-.288l-.041-.044Zm.194.323c-.028-.162-.075-.254-.154-.324l-.04.046c.066.056.109.135.135.288l.06-.01Zm.107-.16c-.032.008-.072.017-.104.04-.035.025-.058.064-.062.123l.06.004c.003-.044.018-.065.037-.078a.238.238 0 0 1 .083-.03l-.014-.058Zm.018-.004-.018.005.014.058.019-.004-.014-.059Zm.037.241v-.212h-.06v.212h.06Zm-.217.203.207-.18-.04-.046-.206.18.04.046Zm-.213.007h.194v-.06h-.194v.06Zm.223.482.18-.256-.05-.035-.18.257.05.034Zm-.237.013h.212v-.06h-.212v.06Zm-.208-.269.184.257.049-.036-.185-.256-.048.035Zm.6-.048h-.576v.06h.576v-.06Zm-.698.484c.074.041.11.129.119.317l.06-.002c-.01-.19-.045-.31-.15-.367l-.03.052Zm.806-.056h-.792v.06h.792v-.06Zm-.105.373c.009-.188.045-.276.12-.317l-.03-.052c-.105.058-.141.177-.15.367l.06.002Zm-.552.029h.522v-.06h-.522v.06Z"/><path fill="#fff" stroke="#000" stroke-linejoin="bevel" stroke-width=".06" d="M12.399 7.11v-.252a.234.234 0 0 0-.171.149c0-.09-.112-.284-.234-.383-.121.108-.239.288-.234.378-.022-.067-.081-.121-.171-.144v.257l.81-.005Z"/><path fill="#fff" stroke="#000" stroke-linejoin="bevel" stroke-width=".06" d="M12.435 7.542V7.29c-.095.027-.158.077-.184.149 0-.09-.122-.284-.257-.383-.135.113-.261.288-.256.383-.023-.068-.09-.122-.185-.149v.257l.882-.005Z"/><path fill="#fff" stroke="#000" stroke-linejoin="bevel" stroke-width=".06" d="M12.543 8.068v-.297a.432.432 0 0 0-.23.171c0-.157-.18-.405-.319-.481-.144.08-.32.333-.32.481a.437.437 0 0 0-.233-.17v.296h1.102Z"/><path fill="#fff" stroke="#000" stroke-linejoin="bevel" stroke-width=".06" d="M12.48 8.73v-.306c-.108.04-.135.14-.171.212.014-.311-.171-.64-.315-.725-.144.086-.333.423-.315.72-.036-.063-.068-.166-.171-.207v.302l.972.004Z"/><path fill="#fff" stroke="#000" stroke-width=".06" d="M12.408 9.189v-.306c-.112.027-.117.068-.153.135a.56.56 0 0 0-.261-.477.57.57 0 0 0-.261.477c-.036-.067-.04-.108-.153-.135v.306h.828Zm-4.743 1.125v-.918c-.032-.117-.135-.225-.207-.243v-.81l.166.09.194.85v1.036l-.153-.005Z"/><path fill="#fff" stroke="#000" stroke-width=".06" d="M7.665 10.318v-.922c-.032-.117-.135-.225-.207-.243v-.864c.112 0 .166.144.166.144l.194.85v1.03l-.153.005Z"/><path fill="#fff" stroke="#000" stroke-width=".06" d="M7.543 10.552c.077-.031.19-.13.19-.225V9.175l-.054-.09h1.966l-.076.09v1.152a.27.27 0 0 0 .152.225H7.544Z"/><path fill="#fff" stroke="#000" stroke-width=".06" d="M9.321 10.552c-.076-.031-.189-.13-.189-.225V9.234l.162-.153H7.962l.162.153v1.093c0 .095-.113.194-.189.225h1.386Z"/><path fill="#fff" stroke="#000" stroke-width=".06" d="M9.136 10.553c-.076-.032-.193-.131-.193-.226v-.99l.108-.148h-.846l.108.148v.99c0 .095-.113.194-.194.226h1.017Z"/><path fill="#fff" stroke="#000" stroke-width=".06" d="M8.43 9.189h.4v1.368h-.405l.005-1.368Z"/><path fill="#fff" fill-rule="evenodd" d="M7.737 8.172h.194v.144h-.194v-.144Zm0 .144v.765h.198v-.765h-.198Zm.14 1.251h.162v.742h-.162v-.742Zm1.385 0h.158v.742h-.162l.005-.742Zm.351-1.085H9.34v.586h.274v-.585Z" clip-rule="evenodd"/><path fill="#000" d="M7.93 8.172h.03l-.03-.03v.03Zm-.193 0v-.03l-.03.03h.03Zm.194.144v.03l.03-.03h-.03Zm-.194 0h-.03l.03.03v-.03Zm0 .765h-.03l.03.03v-.03Zm0-.765v-.03l-.03.03h.03Zm.198.765v.03l.03-.03h-.03Zm0-.765h.03l-.03-.03v.03Zm.104 1.251h.03l-.03-.03v.03Zm-.162 0v-.03l-.03.03h.03Zm.162.742v.03l.03-.03h-.03Zm-.162 0h-.03l.03.03v-.03Zm1.543-.742h.03l-.03-.03v.03Zm-.158 0v-.03l-.03.03h.03Zm.158.742v.03l.03-.03h-.03Zm-.162 0h-.03l.03.03v-.03Zm.081-1.826v-.03l-.03.03h.03Zm.274 0h.03l-.03-.03v.03Zm-.274.585h-.03l.03.03v-.03Zm.274 0v.03l.03-.03h-.03Zm-1.682-.926h-.194v.06h.194v-.06Zm.03.174v-.144H7.9v.144h.06Zm-.224.03h.194v-.06h-.194v.06Zm-.03-.174v.144h.06v-.144h-.06Zm.06.909v-.765h-.06v.765h.06Zm.168-.03h-.198v.06h.198v-.06Zm-.03-.735v.765h.06v-.765h-.06Zm-.168.03h.198v-.06h-.198v.06Zm.302 1.191h-.162v.06h.162v-.06Zm.03.772v-.742h-.06v.742h.06Zm-.193.03h.163v-.06h-.162v.06Zm-.03-.772v.742h.06v-.742h-.06Zm1.574-.03h-.158v.06h.158v-.06Zm.03.772v-.742h-.06v.742h.06Zm-.192.03h.162v-.06h-.162v.06Zm-.025-.772-.005.742h.06l.005-.742h-.06Zm.106-1.055h.274v-.06H9.34v.06Zm.03.556v-.585h-.06v.585h.06Zm.245-.03h-.275v.06h.274v-.06Zm-.03-.556v.586h.06v-.585h-.06Z"/><path fill="#fff" fill-rule="evenodd" d="M7.93 7.767v1.305h1.418v-1.3c-.021 0-.036.03-.053.065-.026.055-.06.124-.136.124-.068 0-.059-.081-.023-.144.032-.059.073-.135.019-.284-.041.113-.14.149-.122.081a.39.39 0 0 1 .041-.094c.034-.058.062-.108.013-.234-.022.153-.121.148-.099.058a.594.594 0 0 1 .023-.067c.025-.064.045-.116-.01-.225-.04.166-.09.157-.09.054v-.01c0-.146 0-.307-.188-.364 0 0-.014-.135-.082-.135-.072 0-.085.135-.085.135-.189.059-.189.22-.189.374 0 .103-.05.112-.09-.054-.055.109-.034.16-.01.225.009.02.017.042.024.067.022.09-.077.095-.1-.058-.049.126-.02.176.013.234.015.027.032.056.041.094.019.068-.08.032-.121-.08-.054.148-.014.224.018.283.04.063.045.144-.022.144-.077 0-.11-.071-.137-.127-.017-.037-.031-.067-.052-.067Zm-.31 1.314v-.994c.036-.023.072-.023.112 0v.994H7.62Z" clip-rule="evenodd"/><path fill="#000" d="M7.93 9.072H7.9v.03h.03v-.03Zm0-1.305v-.03H7.9v.03h.03Zm1.418 1.305v.03h.03v-.03h-.03Zm0-1.3h.03v-.03h-.03v.03Zm-.053.065-.027-.013.027.013Zm-.159-.02.027.014-.027-.014Zm.019-.284.028-.01-.029-.078-.028.078.029.01Zm-.122.081.029.008-.029-.008Zm.041-.094-.026-.014.026.014Zm.013-.234.028-.011-.041-.106-.017.112.03.005Zm-.099.058-.029-.008.029.008Zm.023-.067-.028-.011.028.01ZM9 7.052l.027-.014-.036-.073-.02.08.03.007Zm-.09.044h.03-.03Zm-.188-.364-.03.003.002.02.019.006.008-.029Zm-.167 0 .009.029.019-.006.002-.02-.03-.003Zm-.279.32.03-.008-.02-.08-.037.074.027.014Zm-.01.225-.027.01.028-.01Zm.024.067.029-.007-.03.007Zm-.1-.058.03-.005-.016-.112-.041.106.027.01Zm.013.234-.026.015.026-.015Zm.041.094-.029.008.03-.008Zm-.121-.08.028-.011-.028-.078-.028.078.028.01Zm.018.283-.026.014v.002l.026-.016Zm-.159.017.028-.013-.028.013Zm-.363.253-.016-.026-.014.009v.017h.03Zm0 .994h-.03v.03h.03v-.03Zm.112-.994h.03v-.018l-.015-.009-.014.027Zm0 .994v.03h.03v-.03h-.03Zm.228-.009V7.767H7.9v1.305h.06Zm1.388-.03H7.93v.06h1.418v-.06Zm-.03-1.27v1.3h.06v-1.3h-.06Zm.004.078a.321.321 0 0 1 .022-.042c.008-.01.009-.006.004-.006v-.06c-.026 0-.043.018-.052.031a.49.49 0 0 0-.028.05l.054.027Zm-.163.14a.141.141 0 0 0 .11-.051c.024-.028.04-.062.053-.089l-.054-.026a.337.337 0 0 1-.045.075.081.081 0 0 1-.064.032v.06Zm-.049-.188a.215.215 0 0 0-.031.112.084.084 0 0 0 .021.053.078.078 0 0 0 .059.024v-.06c-.01 0-.014-.003-.015-.005-.002-.001-.005-.006-.005-.016a.158.158 0 0 1 .024-.079l-.053-.03Zm.016-.259c.026.07.028.122.022.16a.302.302 0 0 1-.038.1l.053.028c.016-.03.036-.067.044-.118a.374.374 0 0 0-.024-.19l-.057.02Zm-.122.063c-.005.02-.007.05.02.066a.051.051 0 0 0 .033.005.089.089 0 0 0 .029-.01.229.229 0 0 0 .097-.124l-.057-.02a.17.17 0 0 1-.068.092.03.03 0 0 1-.01.003l.006.002c.011.007.004.016.008.002l-.058-.016Zm.044-.1a.393.393 0 0 0-.044.1l.058.016a.339.339 0 0 1 .039-.087l-.053-.03Zm.011-.21c.024.06.027.1.023.128a.226.226 0 0 1-.034.082l.053.03c.016-.03.034-.061.04-.103a.31.31 0 0 0-.026-.158l-.056.021Zm-.1.04a.098.098 0 0 0 .006.074.056.056 0 0 0 .064.025.1.1 0 0 0 .055-.047.259.259 0 0 0 .033-.098l-.06-.009a.2.2 0 0 1-.024.075c-.01.016-.018.02-.02.021h.001l.002.002c0-.001-.003-.01.001-.028l-.058-.014Zm.024-.07a.566.566 0 0 0-.024.07l.058.016a.572.572 0 0 1 .022-.064l-.056-.022Zm-.008-.201a.235.235 0 0 1 .031.115.26.26 0 0 1-.023.086l.056.022c.012-.032.025-.065.027-.106a.293.293 0 0 0-.038-.144l-.053.027Zm-.093.04a.19.19 0 0 0 .01.07.06.06 0 0 0 .02.027c.01.008.025.01.039.006a.062.062 0 0 0 .027-.02.15.15 0 0 0 .02-.03.497.497 0 0 0 .033-.1l-.059-.014a.44.44 0 0 1-.04.106c-.003.003-.003.002 0 .001a.02.02 0 0 1 .015.003c.003.002.002.003 0-.001a.137.137 0 0 1-.005-.047h-.06Zm0-.01v.01h.06v-.01h-.06Zm-.168-.334c.085.026.125.073.146.13a.62.62 0 0 1 .022.205h.06c0-.072 0-.154-.026-.226a.262.262 0 0 0-.185-.167l-.017.058Zm-.072-.134c.005 0 .01.002.018.01a.12.12 0 0 1 .019.037.285.285 0 0 1 .013.056v.005a10.97 10.97 0 0 1 .06-.006v-.002a.2.2 0 0 0-.003-.021.346.346 0 0 0-.013-.051.177.177 0 0 0-.03-.056.083.083 0 0 0-.064-.032v.06Zm-.086.105.03.003v-.001a.186.186 0 0 1 .003-.017.269.269 0 0 1 .01-.042.115.115 0 0 1 .021-.037c.007-.008.014-.011.022-.011v-.06a.088.088 0 0 0-.067.031.174.174 0 0 0-.031.056.329.329 0 0 0-.018.073v.002l.03.003Zm-.159.374c0-.078 0-.151.022-.213.02-.058.06-.106.146-.132l-.018-.058a.264.264 0 0 0-.185.17c-.025.073-.025.157-.025.233h.06Zm-.15-.047a.672.672 0 0 0 .034.1.15.15 0 0 0 .02.03.062.062 0 0 0 .027.02.043.043 0 0 0 .039-.007.061.061 0 0 0 .02-.026.191.191 0 0 0 .01-.07h-.06c0 .024-.003.04-.006.047-.002.004-.002.003 0 0a.017.017 0 0 1 .015-.002c.004.001.003.002 0-.001a.44.44 0 0 1-.04-.105l-.058.014Zm.049.207a.26.26 0 0 1-.023-.086.235.235 0 0 1 .03-.115l-.053-.027a.293.293 0 0 0-.037.144c.001.04.014.074.027.106l.056-.022Zm.024.07c-.008-.027-.017-.05-.024-.07l-.056.022a.48.48 0 0 1 .021.064l.059-.016Zm-.158-.046a.259.259 0 0 0 .032.098.1.1 0 0 0 .056.047.056.056 0 0 0 .063-.025c.013-.02.013-.047.007-.073l-.059.014c.005.019.002.027.001.028l.002-.002h.002c-.003 0-.011-.005-.02-.02a.2.2 0 0 1-.025-.076l-.06.009Zm.068.216a.226.226 0 0 1-.033-.082.252.252 0 0 1 .022-.128l-.055-.021a.31.31 0 0 0-.027.158c.006.042.025.074.041.102l.052-.03Zm.045.1a.43.43 0 0 0-.045-.1l-.052.03c.015.026.03.051.038.086l.059-.015Zm-.18-.063a.229.229 0 0 0 .098.125.089.089 0 0 0 .028.01c.01 0 .023 0 .034-.006.026-.016.025-.046.02-.066l-.058.016c.003.014-.004.005.008-.002.004-.003.006-.002.005-.002a.03.03 0 0 1-.01-.003.17.17 0 0 1-.068-.092l-.056.02Zm.073.26a.302.302 0 0 1-.037-.1.315.315 0 0 1 .021-.16l-.056-.02a.374.374 0 0 0-.025.19c.009.05.029.088.045.118l.052-.029Zm-.048.188a.08.08 0 0 0 .059-.023.084.084 0 0 0 .022-.053.195.195 0 0 0-.034-.115l-.05.033a.137.137 0 0 1 .024.077c0 .01-.003.014-.005.016s-.006.005-.016.005v.06Zm-.164-.144c.013.027.03.063.054.09a.14.14 0 0 0 .11.054v-.06a.08.08 0 0 1-.064-.032.347.347 0 0 1-.045-.078l-.055.026Zm-.026-.05c-.005 0-.003-.004.004.007.007.01.013.024.022.043l.055-.026c-.009-.017-.018-.037-.028-.051-.01-.014-.026-.033-.052-.033v.06Zm-.34.29v.994h.06v-.994h-.06Zm.157-.027a.131.131 0 0 0-.143 0l.032.052a.072.072 0 0 1 .039-.012.09.09 0 0 1 .043.013l.03-.053Zm.016 1.021v-.994h-.06v.994h.06Zm-.143.03h.112v-.06H7.62v.06Z"/><path fill="#fff" fill-rule="evenodd" d="M9.573 9.081v-.648c.022-.018.063-.013.09 0v.648h-.09Zm-1.629 0c-.036-.193-.175-.279-.315-.351v.351h.315Z" clip-rule="evenodd"/><path fill="#000" d="m9.573 8.433-.019-.023-.011.009v.014h.03Zm0 .648h-.03v.03h.03v-.03Zm.09-.648h.03v-.019l-.017-.008-.013.027Zm0 .648v.03h.03v-.03h-.03ZM7.629 8.73l.014-.027-.044-.022v.049h.03Zm.315.351v.03h.036l-.007-.035-.029.005Zm-.315 0h-.03v.03h.03v-.03Zm1.914-.648v.648h.06v-.648h-.06Zm.133-.027a.147.147 0 0 0-.059-.015.095.095 0 0 0-.063.019l.038.046a.042.042 0 0 1 .023-.005c.012 0 .025.004.035.009l.026-.054Zm.017.675v-.648h-.06v.648h.06Zm-.12.03h.09v-.06h-.09v.06Zm-1.958-.354c.14.071.266.151.3.33l.058-.011c-.038-.21-.19-.3-.33-.373l-.028.054Zm.044.324V8.73h-.06v.351h.06Zm.285-.03h-.315v.06h.315v-.06Z"/><path fill="#fff" fill-rule="evenodd" d="m8.817 7.146-.081.067h-.203l-.08-.072v-.09c.031.01.045.014.067.045a.225.225 0 0 1 .117-.13.225.225 0 0 1 .112.135c.023-.032.041-.045.068-.045v.09Zm.531 1.93c.036-.198.175-.279.315-.346v.346h-.315Z" clip-rule="evenodd"/><path fill="#000" d="M8.736 7.213v.03h.01l.01-.007-.02-.023Zm.081-.067.02.023.01-.009v-.014h-.03Zm-.284.067-.02.023.01.007h.01v-.03Zm-.08-.072h-.03v.014l.01.009.02-.023Zm0-.09.008-.028-.039-.011v.04h.03Zm.067.045-.024.018.033.047.02-.055-.029-.01Zm.117-.13.014-.027-.013-.006-.014.006.013.027Zm.112.135-.028.009.017.058.036-.05-.024-.017Zm.068-.045h.03v-.03h-.03v.03Zm.846 1.674h.03v-.048l-.043.02.013.028Zm-.315.346-.03-.005-.006.035h.036v-.03Zm.315 0v.03h.03v-.03h-.03Zm-.908-1.84.081-.067-.038-.046-.081.067.038.046Zm-.222.007h.203v-.06h-.203v.06Zm-.1-.08.08.073.04-.045-.08-.072-.04.045Zm-.01-.112v.09h.06v-.09h-.06Zm.121.028a.135.135 0 0 0-.039-.04c-.014-.008-.03-.012-.044-.016l-.017.057a.12.12 0 0 1 .03.011.077.077 0 0 1 .022.023l.048-.035Zm.08-.14a.255.255 0 0 0-.132.148l.056.02a.195.195 0 0 1 .102-.114l-.026-.054Zm.154.153a.255.255 0 0 0-.127-.153l-.028.054a.195.195 0 0 1 .098.117l.057-.018Zm.039-.066a.09.09 0 0 0-.052.016.166.166 0 0 0-.04.042l.049.034a.11.11 0 0 1 .025-.027.03.03 0 0 1 .018-.005v-.06Zm.03.12v-.09h-.06v.09h.06Zm.803 1.557c-.14.068-.293.155-.332.368l.06.01c.033-.182.16-.257.298-.324l-.026-.054Zm.043.373V8.73h-.06v.346h.06Zm-.345.03h.315v-.06h-.315v.06Z"/><path fill="#fff" stroke="#000" stroke-width=".06" d="m8.781 7.434.036-.086v-.112c-.027 0-.045.014-.068.045a.225.225 0 0 0-.112-.135.225.225 0 0 0-.117.13c-.022-.031-.036-.035-.067-.04v.112l.036.086h.292Z"/><path fill="#fff" stroke="#000" stroke-width=".06" d="m8.79 7.731.117-.149v-.144c-.045 0-.068.023-.099.072-.032-.103-.09-.121-.171-.17-.086.044-.144.067-.171.166-.036-.05-.059-.063-.104-.068v.144l.122.149h.306Z"/><path fill="#fff" stroke="#000" stroke-width=".06" d="M8.822 8.023s.144-.121.148-.189v-.157c-.054.004-.104.018-.144.085-.036-.13-.09-.166-.189-.225-.104.059-.158.095-.189.225-.045-.067-.09-.08-.149-.09v.162a.675.675 0 0 0 .149.19h.373Z"/><path fill="#fff" stroke="#000" stroke-width=".06" d="M8.88 8.564s.198-.212.202-.297v-.243c-.072.009-.144.058-.198.162-.045-.203-.117-.342-.247-.441-.135.099-.207.238-.252.44-.054-.103-.121-.152-.194-.161v.243c.014.085.198.297.198.297h.491Z"/><path fill="#fff" stroke="#000" stroke-width=".06" d="M8.88 8.883s.166-.166.202-.238v-.243c-.072.009-.144.058-.198.157a.63.63 0 0 0-.247-.414c-.135.099-.207.212-.252.414-.054-.099-.121-.148-.194-.157v.243c.045.072.198.238.198.238h.491Z"/><path fill="#fff" stroke="#000" stroke-width=".06" d="M8.947 9.072c-.044-.211-.09-.369-.319-.526-.234.157-.274.315-.324.526h.643Z"/><path fill="#fff" stroke="#000" stroke-width=".06" d="M9.069 9.189v-.306c-.108.045-.203.104-.239.171-.036-.171-.112-.243-.207-.346a.692.692 0 0 0-.197.346c-.037-.067-.131-.13-.235-.171v.306h.878Zm7.268 1.125v-.918c.031-.117.134-.225.207-.243v-.81l-.167.09-.194.85v1.036l.154-.005Z"/><path fill="#fff" stroke="#000" stroke-width=".06" d="M16.337 10.318v-.922c.031-.117.134-.225.207-.243v-.864c-.113 0-.167.144-.167.144l-.194.85v1.03l.154.005Z"/><path fill="#fff" stroke="#000" stroke-width=".06" d="M16.458 10.552c-.076-.031-.189-.13-.189-.225V9.175l.054-.09h-1.966l.076.09v1.152a.27.27 0 0 1-.153.225h2.178Z"/><path fill="#fff" stroke="#000" stroke-width=".06" d="M14.68 10.552c.077-.031.19-.13.19-.225V9.234l-.162-.153h1.332l-.162.153v1.093c0 .095.112.194.189.225H14.68Z"/><path fill="#fff" stroke="#000" stroke-width=".06" d="M14.865 10.553c.076-.032.194-.131.194-.226v-.99l-.108-.148h.845l-.107.148v.99c0 .095.112.194.193.226h-1.017Z"/><path fill="#fff" stroke="#000" stroke-width=".06" d="M15.572 9.189h-.401v1.368h.405l-.005-1.368Z"/><path fill="#fff" fill-rule="evenodd" d="M16.265 8.172h-.194v.144h.194v-.144Zm0 .144v.765h-.198v-.765h.198Zm-.14 1.251h-.162v.742h.162v-.742Zm-1.386 0h-.158v.742h.162l-.004-.742Zm-.351-1.085h.274v.586h-.274v-.585Z" clip-rule="evenodd"/><path fill="#000" d="M16.071 8.172h-.03l.03-.03v.03Zm.194 0v-.03l.03.03h-.03Zm-.194.144v.03l-.03-.03h.03Zm.194 0h.03l-.03.03v-.03Zm0 .765h.03l-.03.03v-.03Zm0-.765v-.03l.03.03h-.03Zm-.198.765v.03l-.03-.03h.03Zm0-.765h-.03l.03-.03v.03Zm-.104 1.251h-.03l.03-.03v.03Zm.162 0v-.03l.03.03h-.03Zm-.162.742v.03l-.03-.03h.03Zm.162 0h.03l-.03.03v-.03Zm-1.543-.742h-.03l.03-.03v.03Zm.157 0v-.03l.03.03h-.03Zm-.158.742v.03l-.03-.03h.03Zm.162 0h.03l-.03.03v-.03Zm-.08-1.826v-.03l.03.03h-.03Zm-.275 0h-.03l.03-.03v.03Zm.274.585h.03l-.03.03v-.03Zm-.274 0v.03l-.03-.03h.03Zm1.683-.926h.194v.06h-.194v-.06Zm-.03.174v-.144h.06v.144h-.06Zm.224.03h-.194v-.06h.194v.06Zm.03-.174v.144h-.06v-.144h.06Zm-.06.909v-.765h.06v.765h-.06Zm-.168-.03h.198v.06h-.198v-.06Zm.03-.735v.765h-.06v-.765h.06Zm.168.03h-.198v-.06h.198v.06Zm-.302 1.191h.162v.06h-.162v-.06Zm-.03.772v-.742h.06v.742h-.06Zm.192.03h-.162v-.06h.162v.06Zm.03-.772v.742h-.06v-.742h.06Zm-1.574-.03h.158v.06h-.158v-.06Zm-.03.772v-.742h.06v.742h-.06Zm.192.03h-.162v-.06h.162v.06Zm.026-.772.005.742h-.06l-.005-.742h.06Zm-.107-1.055h-.274v-.06h.274v.06Zm-.03.556v-.585h.06v.585h-.06Zm-.244-.03h.274v.06h-.274v-.06Zm.03-.556v.586h-.06v-.585h.06Z"/><path fill="#fff" fill-rule="evenodd" d="M16.071 7.767v1.305h-1.418v-1.3c.022 0 .036.03.053.065.027.055.06.124.136.124.068 0 .059-.081.023-.144-.031-.059-.072-.135-.018-.284.04.113.14.149.122.081-.01-.038-.027-.067-.042-.094-.033-.058-.062-.108-.012-.234.022.153.121.148.099.058a.65.65 0 0 0-.023-.067c-.025-.064-.046-.116.009-.225.04.166.09.157.09.054v-.01c0-.146 0-.307.189-.364 0 0 .014-.135.081-.135.072 0 .085.135.085.135.19.059.19.22.19.374 0 .103.049.112.09-.054.054.109.034.16.009.225a.65.65 0 0 0-.023.067c-.023.09.076.095.099-.058.05.126.02.176-.013.234a.39.39 0 0 0-.041.094c-.018.068.081.032.121-.08.054.148.014.224-.018.283-.04.063-.044.144.023.144.076 0 .11-.071.136-.127.017-.037.032-.067.053-.067Zm.31 1.314v-.994c-.035-.023-.072-.023-.112 0v.994h.113Z" clip-rule="evenodd"/><path fill="#000" d="M16.071 9.072h.03v.03h-.03v-.03Zm0-1.305v-.03h.03v.03h-.03Zm-1.418 1.305v.03h-.03v-.03h.03Zm0-1.3h-.03v-.03h.03v.03Zm.053.065.027-.013-.027.013Zm.159-.02-.026.014.026-.014Zm-.018-.284-.028-.01.028-.078.028.078-.028.01Zm.122.081-.03.008.03-.008Zm-.042-.094.026-.014-.026.014Zm-.012-.234-.028-.011.04-.106.017.112-.03.005Zm.099.058.029-.008-.03.008Zm-.023-.067.027-.011-.027.01ZM15 7.052l-.027-.014.037-.073.02.08-.03.007Zm.09.044h-.03.03Zm.189-.364.03.003-.002.02-.02.006-.008-.029Zm.166 0-.008.029-.02-.006-.001-.02.03-.003Zm.28.32-.03-.008.02-.08.036.074-.026.014Zm.009.225.028.01-.028-.01Zm-.023.067-.03-.007h.001l.029.007Zm.099-.058-.03-.005.017-.112.04.106-.027.01Zm-.013.234.026.015-.026-.015Zm-.041.094.029.008-.029-.008Zm.121-.08-.028-.011.028-.078.029.078-.029.01Zm-.018.283.027.014-.001.002-.025-.016Zm.159.017-.027-.013.027.013Zm.363.253.016-.026.015.009v.017h-.03Zm0 .994h.03v.03h-.03v-.03Zm-.112-.994h-.03v-.018l.015-.009.015.027Zm0 .994v.03h-.03v-.03h.03Zm-.228-.009V7.767h.06v1.305h-.06Zm-1.388-.03h1.418v.06h-1.418v-.06Zm.03-1.27v1.3h-.06v-1.3h.06Zm-.003.078a.31.31 0 0 0-.023-.042c-.007-.01-.008-.006-.004-.006v-.06c.027 0 .043.018.053.031.01.015.02.034.027.05l-.053.027Zm.162.14a.141.141 0 0 1-.109-.051c-.024-.028-.04-.062-.053-.089l.053-.026a.338.338 0 0 0 .045.075.08.08 0 0 0 .064.032v.06Zm.049-.188c.02.034.034.076.031.112a.084.084 0 0 1-.02.053.078.078 0 0 1-.06.024v-.06c.011 0 .015-.003.016-.005.001-.001.004-.006.005-.016a.157.157 0 0 0-.024-.079l.052-.03Zm-.016-.259a.316.316 0 0 0-.021.16c.006.04.022.07.037.1l-.052.028a.36.36 0 0 1-.045-.118.375.375 0 0 1 .025-.19l.056.02Zm.123.063c.005.02.006.05-.02.066a.052.052 0 0 1-.034.005.088.088 0 0 1-.028-.01.229.229 0 0 1-.097-.124l.056-.02c.018.05.049.081.069.092a.031.031 0 0 0 .009.003l-.005.002c-.012.007-.005.016-.008.002l.058-.016Zm-.045-.1c.015.026.034.058.045.1l-.058.016a.34.34 0 0 0-.039-.087l.052-.03Zm-.01-.21a.252.252 0 0 0-.023.128c.004.03.016.052.033.082l-.052.03c-.016-.03-.035-.061-.04-.103a.31.31 0 0 1 .026-.158l.055.021Zm.1.04a.096.096 0 0 1-.007.074.056.056 0 0 1-.027.023.057.057 0 0 1-.036.002.1.1 0 0 1-.056-.047.26.26 0 0 1-.032-.098l.06-.009a.2.2 0 0 0 .023.075c.01.016.018.02.02.021.002 0 0 0 0 0l-.003.002c0-.001.004-.01 0-.028l.058-.014Zm-.024-.07c.007.02.017.043.024.07l-.058.016a.576.576 0 0 0-.022-.064l.056-.022Zm.008-.201a.235.235 0 0 0-.031.115c0 .029.01.053.022.086l-.055.022a.29.29 0 0 1-.027-.106.294.294 0 0 1 .037-.144l.054.027Zm.093.04a.192.192 0 0 1-.01.07.061.061 0 0 1-.02.027.043.043 0 0 1-.039.006.062.062 0 0 1-.028-.02.156.156 0 0 1-.019-.03.507.507 0 0 1-.033-.1l.058-.014a.437.437 0 0 0 .04.106c.003.003.004.002 0 .001a.017.017 0 0 0-.015.003c-.002.002-.002.003 0-.001a.136.136 0 0 0 .006-.047h.06Zm0-.01v.01h-.06v-.01h.06Zm.168-.334c-.086.026-.126.073-.146.13a.618.618 0 0 0-.022.205h-.06c0-.072 0-.154.025-.226a.262.262 0 0 1 .185-.167l.018.058Zm.072-.134c-.005 0-.011.002-.018.01a.12.12 0 0 0-.02.037.282.282 0 0 0-.01.042l-.003.014v.005a4.298 4.298 0 0 0-.06-.006v-.002l.001-.005a.333.333 0 0 1 .016-.068.175.175 0 0 1 .03-.055.083.083 0 0 1 .064-.032v.06Zm.085.105-.03.003V6.73l-.002-.013a.272.272 0 0 0-.011-.042.116.116 0 0 0-.02-.037c-.008-.008-.015-.011-.022-.011v-.06c.029 0 .05.014.066.031a.173.173 0 0 1 .032.056.314.314 0 0 1 .017.073v.002l-.03.003Zm.16.374c0-.078 0-.151-.022-.213a.205.205 0 0 0-.146-.132l.017-.058a.264.264 0 0 1 .185.17.705.705 0 0 1 .026.233h-.06Zm.149-.047a.507.507 0 0 1-.034.1.156.156 0 0 1-.019.03.062.062 0 0 1-.027.02.043.043 0 0 1-.04-.007.061.061 0 0 1-.019-.026.192.192 0 0 1-.01-.07h.06c0 .024.003.04.006.047.001.004.002.003 0 0a.017.017 0 0 0-.016-.002c-.003.001-.003.002 0-.001a.437.437 0 0 0 .04-.105l.059.014Zm-.048.207a.263.263 0 0 0 .023-.086.235.235 0 0 0-.031-.115l.053-.027c.03.058.04.103.038.144-.002.04-.015.074-.027.106l-.056-.022Zm-.024.07a.566.566 0 0 1 .024-.07l.056.022a.576.576 0 0 0-.022.064l-.058-.016Zm.158-.046a.26.26 0 0 1-.033.098.1.1 0 0 1-.056.047.057.057 0 0 1-.035-.002.056.056 0 0 1-.028-.023.096.096 0 0 1-.006-.073l.058.014c-.005.019-.001.027 0 .028l-.003-.002h-.001c.002 0 .01-.005.02-.02a.2.2 0 0 0 .024-.076l.06.009Zm-.069.216a.225.225 0 0 0 .034-.082.252.252 0 0 0-.023-.128l.056-.021a.31.31 0 0 1 .026.158.279.279 0 0 1-.04.102l-.053-.03Zm-.044.1c.011-.042.03-.074.044-.1l.052.03a.34.34 0 0 0-.038.086l-.058-.015Zm.179-.063a.229.229 0 0 1-.097.125.088.088 0 0 1-.029.01.052.052 0 0 1-.034-.006c-.026-.016-.024-.046-.019-.066l.058.016c-.004.014.003.005-.008-.002-.004-.003-.007-.002-.005-.002a.031.031 0 0 0 .009-.003c.02-.01.05-.041.068-.092l.057.02Zm-.073.26a.304.304 0 0 0 .038-.1.316.316 0 0 0-.022-.16l.057-.02a.38.38 0 0 1 .024.19.36.36 0 0 1-.044.118l-.053-.029Zm.049.188a.08.08 0 0 1-.06-.023.084.084 0 0 1-.022-.053.195.195 0 0 1 .034-.115l.05.033a.136.136 0 0 0-.024.077c0 .01.004.014.006.016.001.002.005.005.016.005v.06Zm.163-.144c-.013.027-.03.063-.054.09a.14.14 0 0 1-.109.054v-.06a.08.08 0 0 0 .064-.032.348.348 0 0 0 .045-.078l.054.026Zm.026-.05c.005 0 .004-.004-.003.007a.314.314 0 0 0-.023.043l-.054-.026c.008-.017.017-.037.027-.051.01-.014.027-.033.053-.033v.06Zm.34.29v.994h-.06v-.994h.06Zm-.157-.027a.131.131 0 0 1 .143 0l-.031.052a.072.072 0 0 0-.04-.012.09.09 0 0 0-.042.013l-.03-.053Zm-.015 1.021v-.994h.06v.994h-.06Zm.142.03h-.112v-.06h.113v.06Z"/><path fill="#fff" fill-rule="evenodd" d="M14.428 9.081v-.648c-.022-.018-.063-.013-.09 0v.648h.09Zm1.63 0c.035-.193.175-.279.314-.351v.351h-.314Z" clip-rule="evenodd"/><path fill="#000" d="m14.428 8.433.02-.023.01.009v.014h-.03Zm0 .648h.03v.03h-.03v-.03Zm-.09-.648h-.03v-.019l.017-.008.014.027Zm0 .648v.03h-.03v-.03h.03Zm2.034-.351-.013-.027.043-.022v.049h-.03Zm-.314.351v.03h-.037l.007-.035.03.005Zm.314 0h.03v.03h-.03v-.03Zm-1.913-.648v.648h-.06v-.648h.06Zm-.134-.027a.147.147 0 0 1 .06-.015c.02 0 .043.003.062.019l-.037.046a.05.05 0 0 0-.024-.005.087.087 0 0 0-.034.009l-.027-.054Zm-.016.675v-.648h.06v.648h-.06Zm.12.03h-.09v-.06h.09v.06Zm1.957-.354c-.139.071-.266.151-.299.33l-.059-.011c.039-.21.19-.3.33-.373l.028.054Zm-.043.324V8.73h.06v.351h-.06Zm-.285-.03h.314v.06h-.314v-.06Z"/><path fill="#fff" fill-rule="evenodd" d="m15.184 7.146.082.067h.202l.081-.072v-.09c-.031.01-.045.014-.067.045a.225.225 0 0 0-.117-.13.225.225 0 0 0-.113.135c-.023-.032-.04-.045-.068-.045v.09Zm-.53 1.93c-.037-.198-.176-.279-.316-.346v.346h.316Z" clip-rule="evenodd"/><path fill="#000" d="M15.265 7.213v.03h-.01l-.009-.007.02-.023Zm-.08-.067-.02.023-.01-.009v-.014h.03Zm.283.067.02.023-.009.007h-.011v-.03Zm.081-.072h.03v.014l-.01.009-.02-.023Zm0-.09-.008-.028.038-.011v.04h-.03Zm-.067.045.024.018-.034.047-.019-.055.029-.01Zm-.117-.13-.014-.027.013-.006.013.006-.013.027Zm-.113.135.029.009-.018.058-.035-.05.024-.017Zm-.068-.045h-.03v-.03h.03v.03ZM14.34 8.73h-.03v-.048l.043.02-.014.028Zm.314.346.03-.005.006.035h-.036v-.03Zm-.315 0v.03h-.03v-.03h.03Zm.908-1.84-.08-.067.038-.046.08.067-.038.046Zm.222.007h-.203v-.06h.203v.06Zm.1-.08-.08.073-.04-.045.081-.072.04.045Zm.011-.112v.09h-.06v-.09h.06Zm-.122.028a.135.135 0 0 1 .04-.04c.013-.008.029-.012.044-.016l.016.057a.121.121 0 0 0-.03.011.077.077 0 0 0-.021.023l-.049-.035Zm-.08-.14c.063.03.11.082.133.148l-.057.02a.195.195 0 0 0-.101-.114l.025-.054Zm-.154.153a.255.255 0 0 1 .128-.153l.027.054a.195.195 0 0 0-.097.117l-.058-.018Zm-.039-.066a.09.09 0 0 1 .053.016.18.18 0 0 1 .04.042l-.05.034a.109.109 0 0 0-.024-.027.03.03 0 0 0-.018-.005v-.06Zm-.03.12v-.09h.06v.09h-.06Zm-.802 1.557c.14.068.292.155.331.368l-.059.01c-.033-.182-.16-.257-.299-.324l.027-.054Zm-.043.373V8.73h.06v.346h-.06Zm.345.03h-.316v-.06h.316v.06Z"/><path fill="#fff" stroke="#000" stroke-width=".06" d="m15.22 7.434-.036-.086v-.112c.027 0 .046.014.068.045a.225.225 0 0 1 .112-.135.225.225 0 0 1 .117.13c.023-.031.037-.035.068-.04v.112l-.036.086h-.293Z"/><path fill="#fff" stroke="#000" stroke-width=".06" d="m15.211 7.731-.117-.149v-.144c.046 0 .068.023.1.072.031-.103.09-.121.17-.17.086.044.144.067.171.166.037-.05.059-.063.104-.068v.144l-.121.149h-.307Z"/><path fill="#fff" stroke="#000" stroke-width=".06" d="M15.18 8.023s-.144-.121-.149-.189v-.157c.054.004.104.018.144.085.036-.13.09-.166.19-.225.103.059.157.095.188.225.045-.067.09-.08.149-.09v.162a.675.675 0 0 1-.149.19h-.373Z"/><path fill="#fff" stroke="#000" stroke-width=".06" d="M15.121 8.564s-.197-.212-.202-.297v-.243c.072.009.144.058.198.162.045-.203.117-.342.247-.441.135.099.207.238.252.44.055-.103.122-.152.194-.161v.243c-.014.085-.198.297-.198.297h-.49Z"/><path fill="#fff" stroke="#000" stroke-width=".06" d="M15.121 8.883s-.166-.166-.202-.238v-.243c.072.009.144.058.198.157a.63.63 0 0 1 .247-.414c.135.099.207.212.252.414.055-.099.122-.148.194-.157v.243a2.676 2.676 0 0 1-.198.238h-.49Z"/><path fill="#fff" stroke="#000" stroke-width=".06" d="M15.054 9.072c.045-.211.09-.369.32-.526.233.157.274.315.323.526h-.643Z"/><path fill="#fff" stroke="#000" stroke-width=".06" d="M14.932 9.189v-.306c.108.045.203.104.239.171.036-.171.113-.243.207-.346.095.103.158.18.198.346.036-.067.13-.13.234-.171v.306h-.878Z"/><path fill="#fff" fill-rule="evenodd" d="M16.935 10.822H7.062v.365h9.873v-.364Zm-10.453.847H17.52v.562h.293v.563H6.188v-.563h.292v-.563Z" clip-rule="evenodd"/><path fill="#000" d="M7.062 10.822v-.03h-.03v.03h.03Zm9.873 0h.03v-.03h-.03v.03Zm-9.873.365h-.03v.03h.03v-.03Zm9.873 0v.03h.03v-.03h-.03Zm.585.482h.03v-.03h-.03v.03Zm-11.038 0v-.03h-.03v.03h.03Zm11.038.562h-.03v.03h.03v-.03Zm.293 0h.03v-.03h-.03v.03Zm0 .563v.03h.03v-.03h-.03Zm-11.624 0h-.03v.03h.03v-.03Zm0-.563v-.03h-.03v.03h.03Zm.292 0v.03h.03v-.03h-.03Zm.581-1.379h9.873v-.06H7.062v.06Zm.03.335v-.364h-.06v.364h.06Zm9.843-.03H7.062v.06h9.873v-.06Zm-.03-.335v.365h.06v-.364h-.06Zm.615.817H6.482v.06H17.52v-.06Zm.03.592v-.563h-.06v.563h.06Zm.262-.03h-.292v.06h.293v-.06Zm.03.592v-.562h-.06v.563h.06Zm-11.653.03h11.623v-.06H6.19v.06Zm-.03-.592v.563h.06v-.563h-.06Zm.322-.03H6.19v.06h.292v-.06Zm-.03-.533v.563h.06v-.563h-.06Z"/><path fill="#fff" fill-rule="evenodd" d="M16.773 10.543h-9.54v.28h9.54v-.28Zm.459.644H6.774v.477h10.458v-.477Z" clip-rule="evenodd"/><path fill="#000" d="M7.233 10.543v-.03h-.03v.03h.03Zm9.54 0h.03v-.03h-.03v.03Zm-9.54.28h-.03v.03h.03v-.03Zm9.54 0v.03h.03v-.03h-.03Zm-9.999.364v-.03h-.03v.03h.03Zm10.458 0h.03v-.03h-.03v.03Zm-10.458.477h-.03v.03h.03v-.03Zm10.458 0v.03h.03v-.03h-.03Zm-9.999-1.09h9.54v-.06h-9.54v.06Zm.03.248v-.278h-.06v.278h.06Zm9.51-.03h-9.54v.06h9.54v-.06Zm-.03-.248v.278h.06v-.278h-.06Zm-9.969.673h10.458v-.06H6.774v.06Zm.03.447v-.477h-.06v.477h.06Zm10.428-.03H6.774v.06h10.458v-.06Zm-.03-.447v.477h.06v-.477h-.06Z"/><path fill="#fff" stroke="#000" stroke-width=".06" d="M8.268 10.543h.72v2.25h-.72v-2.25Z"/><path fill="#fff" fill-rule="evenodd" d="M8.83 10.543h-.4l-.005 2.25h.405v-2.25Zm3.515 0h-.72v2.25h.72v-2.25Z" clip-rule="evenodd"/><path fill="#000" d="M8.43 10.543v-.03H8.4v.03h.03Zm.4 0h.03v-.03h-.03v.03Zm-.405 2.25h-.03v.03h.03v-.03Zm.405 0v.03h.03v-.03h-.03Zm2.795-2.25v-.03h-.03v.03h.03Zm.72 0h.03v-.03h-.03v.03Zm-.72 2.25h-.03v.03h.03v-.03Zm.72 0v.03h.03v-.03h-.03Zm-3.915-2.22h.4v-.06h-.4v.06Zm.025 2.22.005-2.25H8.4l-.005 2.25h.06Zm.375-.03h-.405v.06h.405v-.06Zm-.03-2.22v2.25h.06v-2.25H8.8Zm2.825.03h.72v-.06h-.72v.06Zm.03 2.22v-2.25h-.06v2.25h.06Zm.69-.03h-.72v.06h.72v-.06Zm-.03-2.22v2.25h.06v-2.25h-.06Z"/><path fill="#fff" fill-rule="evenodd" d="M12.197 10.543h-.405v2.25h.405v-2.25Zm3.532 0h-.72v2.25h.72v-2.25Z" clip-rule="evenodd"/><path fill="#000" d="M11.791 10.543v-.03h-.03v.03h.03Zm.405 0h.03v-.03h-.03v.03Zm-.405 2.25h-.03v.03h.03v-.03Zm.405 0v.03h.03v-.03h-.03Zm2.813-2.25v-.03h-.03v.03h.03Zm.72 0h.03v-.03h-.03v.03Zm-.72 2.25h-.03v.03h.03v-.03Zm.72 0v.03h.03v-.03h-.03Zm-3.938-2.22h.405v-.06h-.405v.06Zm.03 2.22v-2.25h-.06v2.25h.06Zm.376-.03h-.405v.06h.405v-.06Zm-.03-2.22v2.25h.06v-2.25h-.06Zm2.842.03h.72v-.06h-.72v.06Zm.03 2.22v-2.25h-.06v2.25h.06Zm.69-.03h-.72v.06h.72v-.06Zm-.03-2.22v2.25h.06v-2.25h-.06Z"/><path fill="#fff" stroke="#000" stroke-width=".06" d="M15.166 10.543h.405v2.25h-.405v-2.25Z"/><path fill="#000" d="M7.665 10.359h8.685v-.06H7.665v.06Zm.756 2.196h.414v-.06h-.414v.06Zm0-.284h.414v-.06h-.414v.06Zm0-.279h.414v-.06h-.414v.06Zm0-.283h.414v-.06h-.414v.06Zm0-.279h.414v-.06h-.414v.06Zm0-.284h.414v-.06h-.414v.06Zm0-.279h.414v-.06h-.414v.06Zm3.375 1.688h.387v-.06h-.387v.06Zm0-.284h.387v-.06h-.387v.06Zm0-.279h.387v-.06h-.387v.06Zm0-.283h.387v-.06h-.387v.06Zm0-.279h.387v-.06h-.387v.06Zm0-.284h.387v-.06h-.387v.06Zm0-.279h.387v-.06h-.387v.06Zm3.366 1.688h.414v-.06h-.414v.06Zm0-.284h.414v-.06h-.414v.06Zm0-.279h.414v-.06h-.414v.06Zm0-.283h.414v-.06h-.414v.06Zm0-.279h.414v-.06h-.414v.06Zm0-.284h.414v-.06h-.414v.06Zm0-.279h.414v-.06h-.414v.06Z"/></g></g><path stroke="#000" stroke-opacity=".1" stroke-width=".5" d="M.25.25h23.5v17.5H.25z"/><defs><clipPath id="a"><path fill="#fff" d="M0 0h24v18H0z"/></clipPath></defs></svg>