<svg xmlns="http://www.w3.org/2000/svg" fill="none" viewBox="0 0 24 18"><g clip-path="url(#a)"><mask id="b" width="24" height="18" x="0" y="0" maskUnits="userSpaceOnUse" style="mask-type:luminance"><path fill="#fff" d="M0 0h24v18H0z"/></mask><g mask="url(#b)"><path fill="#EF0000" fill-rule="evenodd" d="M6 0h18v18H6V0Z" clip-rule="evenodd"/><path fill="#2F8D00" fill-rule="evenodd" d="M0 0h9v18H0V0Z" clip-rule="evenodd"/><mask id="c" width="12" height="12" x="3" y="3" maskUnits="userSpaceOnUse" style="mask-type:luminance"><path fill="#fff" fill-rule="evenodd" d="M8.929 14.855c-3.196 0-5.786-2.621-5.786-5.855 0-3.234 2.59-5.855 5.786-5.855 3.195 0 5.785 2.621 5.785 5.855 0 3.234-2.59 5.855-5.785 5.855Z" clip-rule="evenodd"/></mask><g fill="#FFE017" mask="url(#c)"><path fill-rule="evenodd" d="M8.572 3h.75v2.024h-.75V3Zm0 10.12h.75V15h-.75v-1.88Z" clip-rule="evenodd"/><path d="m3.236 9.303-.21-.538c2.314-.924 4.06-1.52 5.246-1.788 1.738-.394 3.649-.685 5.73-.875l.052.576c-2.058.187-3.944.475-5.657.863-1.15.26-2.872.848-5.16 1.762Z"/><path d="m14.356 5.748-.17.552c-1.75-.552-3.174-.79-4.269-.716l-.038-.577c1.176-.079 2.666.17 4.477.74Zm.605 3.087-.323.477c-.892-.62-1.99-.93-3.303-.93v-.578c1.423 0 2.635.342 3.626 1.03Z"/><path d="m14.477 9.008.147.559c-1.921.52-3.726.816-5.413.885-1.699.07-3.679-.226-5.941-.887l.158-.556c2.208.645 4.128.933 5.76.865 1.643-.067 3.406-.356 5.289-.866Z"/><path d="m14.259 11.727-.903.926c-1.717-1.715-3.228-2.941-4.525-3.678-1.318-.75-3.038-1.51-5.156-2.28l.434-1.224c2.18.792 3.964 1.58 5.352 2.37 1.41.8 3.006 2.096 4.798 3.886Zm-10.165.525-.342-.464a6.974 6.974 0 0 1 .89-.542c.639-.323 1.278-.525 1.888-.543l.09-.002v.578c-.024 0-.048 0-.072.002-.515.015-1.08.193-1.65.482a6.43 6.43 0 0 0-.804.489Z"/><path d="m4.36 12.452.143-.56c1.905.502 3.374.752 4.4.752 1.02 0 2.54-.295 4.55-.887l.159.556c-2.057.605-3.623.91-4.71.91-1.083 0-2.595-.258-4.543-.771ZM3.617 7.27l.905-.923 1.326 1.33-.905.924-1.326-1.33Z"/><path d="m11.127 11.886.673-1.109 2.103 1.309-.673 1.108-2.103-1.308Z"/></g><path fill="#F9E813" fill-rule="evenodd" d="M3.143 9c0 3.234 2.59 5.855 5.786 5.855 3.195 0 5.785-2.621 5.785-5.855 0-3.234-2.59-5.855-5.785-5.855-3.196 0-5.786 2.621-5.786 5.855ZM14 9.072c0 2.795-2.238 5.06-5 5.06-2.761 0-5-2.265-5-5.06 0-2.794 2.239-5.06 5-5.06 2.762 0 5 2.266 5 5.06Z" clip-rule="evenodd"/><path fill="#fff" d="M5.743 5.389v4.695c.309 1.859 1.35 2.788 3.124 2.788 1.773 0 2.815-.929 3.124-2.788V5.39H5.743Z"/><path fill="#C51918" d="M5.314 4.955h7.105v5.166l-.006.035c-.343 2.064-1.56 3.15-3.546 3.15-1.987 0-3.204-1.086-3.547-3.15l-.006-.035V4.955Z"/><path fill="#F7FCFF" d="M6.939 6.533h3.855v3.33s-.286 1.72-1.928 1.72c-1.641 0-1.927-1.72-1.927-1.72v-3.33Z"/><path fill="#F9E813" fill-rule="evenodd" d="M6 5.313h.542v.362H6v-.362Z" clip-rule="evenodd"/><path fill="#060101" fill-rule="evenodd" d="M5.714 5.458h1v.18h-1v-.18Z" clip-rule="evenodd"/><path fill="#F9E813" fill-rule="evenodd" d="M5.714 5.602h.543v.181h-.543v-.18Zm.572 0h.542v.181h-.542v-.18Zm-.572.434h.362v.542h-.362v-.542Zm.715 0h.361v.542h-.36v-.542Zm-.286 0h.18v.542h-.18v-.542Z" clip-rule="evenodd"/><path fill="#060101" fill-rule="evenodd" d="M5.714 5.892h1v.18h-1v-.18Zm0 .433h1v.181h-1v-.18Z" clip-rule="evenodd"/><path fill="#F9E813" fill-rule="evenodd" d="M5.857 5.747h.181v.18h-.18v-.18Zm.572 0h.18v.18h-.18v-.18Zm-.286-.145h.18v.362h-.18v-.362Zm2.571-.289h.543v.362h-.543v-.362Z" clip-rule="evenodd"/><path fill="#060101" fill-rule="evenodd" d="M8.429 5.458h1v.18h-1v-.18Z" clip-rule="evenodd"/><path fill="#F9E813" fill-rule="evenodd" d="M8.429 5.602h.542v.181h-.542v-.18Zm.571 0h.542v.181H9v-.18Zm-.571.434h.361v.542h-.36v-.542Zm.714 0h.362v.542h-.362v-.542Zm-.286 0h.181v.542h-.18v-.542Z" clip-rule="evenodd"/><path fill="#060101" fill-rule="evenodd" d="M8.429 5.892h1v.18h-1v-.18Zm0 .433h1v.181h-1v-.18Z" clip-rule="evenodd"/><path fill="#F9E813" fill-rule="evenodd" d="M8.572 5.747h.18v.18h-.18v-.18Zm.571 0h.18v.18h-.18v-.18Zm-.286-.145h.181v.362h-.18v-.362Zm2.429-.289h.542v.362h-.542v-.362Z" clip-rule="evenodd"/><path fill="#060101" fill-rule="evenodd" d="M11 5.458h1v.18h-1v-.18Z" clip-rule="evenodd"/><path fill="#F9E813" fill-rule="evenodd" d="M11 5.602h.542v.181H11v-.18Zm.571 0h.543v.181h-.543v-.18ZM11 6.036h.361v.542H11v-.542Zm.714 0h.362v.542h-.362v-.542Zm-.285 0h.18v.542h-.18v-.542Z" clip-rule="evenodd"/><path fill="#060101" fill-rule="evenodd" d="M11 5.892h1v.18h-1v-.18Zm0 .433h1v.181h-1v-.18Z" clip-rule="evenodd"/><path fill="#F9E813" fill-rule="evenodd" d="M11.143 5.747h.18v.18h-.18v-.18Zm.571 0h.181v.18h-.18v-.18Zm-.285-.145h.18v.362h-.18v-.362Zm-.143 2.314h.542v.361h-.542v-.361Z" clip-rule="evenodd"/><path fill="#060101" fill-rule="evenodd" d="M11 8.06h1v.181h-1v-.18Z" clip-rule="evenodd"/><path fill="#F9E813" fill-rule="evenodd" d="M11 8.205h.542v.18H11v-.18Zm.571 0h.543v.18h-.543v-.18ZM11 8.639h.361v.542H11v-.542Zm.714 0h.362v.542h-.362v-.542Zm-.285 0h.18v.542h-.18v-.542Z" clip-rule="evenodd"/><path fill="#060101" fill-rule="evenodd" d="M11 8.494h1v.18h-1v-.18Zm0 .434h1v.18h-1v-.18Z" clip-rule="evenodd"/><path fill="#F9E813" fill-rule="evenodd" d="M11.143 8.35h.18v.18h-.18v-.18Zm.571 0h.181v.18h-.18v-.18Zm-.285-.145h.18v.361h-.18v-.361ZM6 7.916h.542v.361H6v-.361Z" clip-rule="evenodd"/><path fill="#060101" fill-rule="evenodd" d="M5.714 8.06h1v.181h-1v-.18Z" clip-rule="evenodd"/><path fill="#F9E813" fill-rule="evenodd" d="M5.714 8.205h.543v.18h-.543v-.18Zm.572 0h.542v.18h-.542v-.18Zm-.572.434h.362v.542h-.362v-.542Zm.715 0h.361v.542h-.36v-.542Zm-.286 0h.18v.542h-.18v-.542Z" clip-rule="evenodd"/><path fill="#060101" fill-rule="evenodd" d="M5.714 8.494h1v.18h-1v-.18Zm0 .434h1v.18h-1v-.18Z" clip-rule="evenodd"/><path fill="#F9E813" fill-rule="evenodd" d="M5.857 8.35h.181v.18h-.18v-.18Zm.572 0h.18v.18h-.18v-.18Zm-.286-.145h.18v.361h-.18v-.361Zm.205 2.973.348-.415.277.232-.348.415-.277-.232Z" clip-rule="evenodd"/><path fill="#060101" fill-rule="evenodd" d="m6.275 11.49.643-.766.138.116-.643.766-.138-.116Z" clip-rule="evenodd"/><path fill="#F9E813" fill-rule="evenodd" d="m6.386 11.583.348-.416.139.117-.349.415-.138-.116Zm.367-.438.348-.415.139.116-.349.415-.138-.116Zm-.035.716.232-.276.415.348-.232.277-.415-.349Zm.459-.547.232-.277.415.349-.232.277-.415-.349Zm-.184.219.116-.138.416.348-.117.139-.415-.349Z" clip-rule="evenodd"/><path fill="#060101" fill-rule="evenodd" d="m6.607 11.768.643-.766.138.117-.643.766-.138-.117Zm.333.279.642-.766.139.116-.643.767-.139-.117Z" clip-rule="evenodd"/><path fill="#F9E813" fill-rule="evenodd" d="m6.588 11.566.117-.138.138.116-.116.138-.139-.116Zm.368-.438.116-.138.138.116-.116.139-.138-.117Zm-.295.126.116-.138.277.232-.116.139-.277-.233Zm4.573-.404.348.415-.277.232-.348-.415.277-.232Z" clip-rule="evenodd"/><path fill="#060101" fill-rule="evenodd" d="m10.94 10.724.642.766-.138.116-.643-.766.139-.116Z" clip-rule="evenodd"/><path fill="#F9E813" fill-rule="evenodd" d="m10.829 10.817.348.415-.138.116-.349-.415.139-.116Zm.367.437.349.416-.139.116-.348-.415.138-.117Zm-.699-.159.232.277-.415.349-.233-.277.416-.349Zm.459.548.232.276-.415.349-.233-.277.416-.348Zm-.184-.219.116.138-.415.349-.116-.139.415-.348Z" clip-rule="evenodd"/><path fill="#060101" fill-rule="evenodd" d="m10.607 11.002.643.766-.138.117-.643-.766.138-.117Zm-.332.279.643.766-.139.117-.643-.767.139-.116Z" clip-rule="evenodd"/><path fill="#F9E813" fill-rule="evenodd" d="m10.81 11.019.116.138-.138.117-.116-.139.138-.116Zm.367.438.116.138-.138.116-.116-.138.138-.116Zm-.073-.312.117.138-.277.233-.116-.139.277-.232Z" clip-rule="evenodd"/><path fill="#013399" fill-rule="evenodd" d="M9.419 6.904h-.99v.72s.073.373.495.373c.421 0 .495-.372.495-.372v-.721Zm-.562.289c0 .08-.064.144-.143.144a.144.144 0 0 1-.142-.144c0-.08.064-.145.142-.145.08 0 .143.065.143.145Zm-.143.723a.144.144 0 0 0 .143-.145.144.144 0 0 0-.143-.144.144.144 0 0 0-.142.144c0 .08.064.145.142.145Zm.572-.145c0 .08-.064.145-.143.145A.144.144 0 0 1 9 7.77a.143.143 0 1 1 .286 0Zm-.357-.144a.144.144 0 0 0 .143-.145.144.144 0 0 0-.143-.145.144.144 0 0 0-.143.145c0 .08.064.145.143.145Zm.357-.434c0 .08-.064.144-.143.144A.144.144 0 0 1 9 7.193c0-.08.064-.145.143-.145.079 0 .143.065.143.145Zm.133 1.301h-.99v.721s.073.372.495.372c.421 0 .495-.372.495-.372v-.721Zm-.562.29a.144.144 0 0 1-.143.144.144.144 0 0 1-.142-.145.143.143 0 1 1 .285 0Zm-.143.722a.144.144 0 0 0 .143-.145.144.144 0 0 0-.143-.144.144.144 0 0 0-.142.144c0 .08.064.145.142.145Zm.572-.145c0 .08-.064.145-.143.145A.144.144 0 0 1 9 9.361a.143.143 0 1 1 .286 0Zm-.357-.144a.144.144 0 0 0 .143-.145.144.144 0 0 0-.143-.144.144.144 0 0 0-.143.144c0 .08.064.145.143.145Zm.357-.434c0 .08-.064.145-.143.145A.144.144 0 0 1 9 8.783a.143.143 0 1 1 .286 0Zm1.419-.289h-.99v.721s.073.372.495.372c.421 0 .495-.372.495-.372v-.721Zm-.562.29a.144.144 0 0 1-.143.144.144.144 0 0 1-.143-.145.143.143 0 1 1 .286 0ZM10 9.505a.144.144 0 0 0 .143-.145.144.144 0 0 0-.143-.144.144.144 0 0 0-.143.144c0 .08.064.145.143.145Zm.572-.145c0 .08-.064.145-.143.145a.144.144 0 0 1-.143-.145.143.143 0 1 1 .286 0Zm-.358-.144a.144.144 0 0 0 .143-.145.144.144 0 0 0-.143-.144.144.144 0 0 0-.143.144c0 .08.065.145.143.145Zm.357-.434c0 .08-.063.145-.142.145a.144.144 0 0 1-.143-.145.143.143 0 1 1 .286 0Zm-2.438-.288h-.99v.721s.074.372.495.372c.422 0 .495-.372.495-.372v-.721Zm-.561.29a.144.144 0 0 1-.143.144.144.144 0 0 1-.143-.145.143.143 0 1 1 .286 0Zm-.143.722a.144.144 0 0 0 .143-.145.144.144 0 0 0-.143-.144.144.144 0 0 0-.143.144c0 .08.064.145.143.145ZM8 9.361c0 .08-.064.145-.143.145a.144.144 0 0 1-.143-.145.143.143 0 1 1 .286 0Zm-.357-.144a.144.144 0 0 0 .143-.145.144.144 0 0 0-.143-.144.144.144 0 0 0-.143.144c0 .08.064.145.143.145ZM8 8.783c0 .08-.064.145-.143.145a.144.144 0 0 1-.143-.145.143.143 0 1 1 .286 0Zm1.419 1.301h-.99v.722s.073.372.495.372c.421 0 .495-.373.495-.373v-.72Zm-.562.29c0 .08-.064.144-.143.144a.144.144 0 0 1-.142-.145c0-.08.064-.144.142-.144.08 0 .143.065.143.145Zm-.143.722a.144.144 0 0 0 .143-.144.144.144 0 0 0-.143-.145.144.144 0 0 0-.142.145c0 .08.064.144.142.144Zm.572-.144c0 .08-.064.144-.143.144A.144.144 0 0 1 9 10.952c0-.08.064-.145.143-.145.079 0 .143.065.143.145Zm-.357-.145a.144.144 0 0 0 .143-.144.144.144 0 0 0-.143-.145.144.144 0 0 0-.143.145c0 .08.064.144.143.144Zm.357-.434c0 .08-.064.145-.143.145A.144.144 0 0 1 9 10.373c0-.08.064-.144.143-.144.079 0 .143.065.143.145Z" clip-rule="evenodd"/></g></g><rect width="23" height="17" x=".5" y=".5" stroke="#000" stroke-opacity=".1" rx="1.5"/><defs><clipPath id="a"><rect width="24" height="18" fill="#fff" rx="2"/></clipPath></defs></svg>