<svg xmlns="http://www.w3.org/2000/svg" fill="none" viewBox="0 0 24 18"><g clip-path="url(#a)"><mask id="b" width="24" height="18" x="0" y="0" maskUnits="userSpaceOnUse" style="mask-type:luminance"><path fill="#fff" d="M0 0h24v18H0z"/></mask><g mask="url(#b)"><path fill="#F7FCFF" fill-rule="evenodd" d="M0 0v18h24V0z" clip-rule="evenodd"/><mask id="c" width="24" height="18" x="0" y="0" maskUnits="userSpaceOnUse" style="mask-type:luminance"><path fill="#fff" fill-rule="evenodd" d="M0 0v18h24V0z" clip-rule="evenodd"/></mask><g fill-rule="evenodd" clip-rule="evenodd" mask="url(#c)"><path fill="#BF2714" d="M0 0v6h24V0z"/><path fill="#272727" d="M0 12v6h24v-6z"/><path fill="#009C4E" d="M4.002 9.608c.683.98-.252 1.642-.252 1.642s.817 0 1.13-.656h6.688V9.15s-.14-.694-.735-.694c-.596 0-.73.694-.73.694H7.75l2.276-2.01-.443-.39-2.528 2.232v.473h3.589v-.279s.02-.16.188-.16c.167 0 .127.16.127.16v.595H6.437v-.813l-.49.218v.595s-.6-.163-.979-.163-.4-.432-.4-.432zm9.083.056.367.913h-1.46V6.911l.616.197v2.556zm6.798 0 .367.913h-1.46V6.911l.616.197v2.556zm-1.807-2.715-.38.257v2.455h-.388V7.692l-.638.368v1.601h-.428V8.55l-.485.312v.302s-.933.064-.933 1.383h3.248zM5.62 11.224c.117 0 .212-.084.212-.187 0-.104-.095-.188-.212-.188s-.213.084-.213.188c0 .103.096.187.213.187m10.817-3.993c-.165.218-.666 0-.666 0l1.42-.164c-.147.286-.754.164-.754.164"/></g></g></g><rect width="23" height="17" x=".5" y=".5" stroke="#000" stroke-opacity=".1" rx="1.5"/><defs><clipPath id="a"><rect width="24" height="18" fill="#fff" rx="2"/></clipPath></defs></svg>