<svg xmlns="http://www.w3.org/2000/svg" fill="none" viewBox="0 0 24 18"><g clip-path="url(#a)"><path fill="#19BFBF" d="M0 0h24v18H0z"/><path fill="#fff" fill-rule="evenodd" d="m11.429 12.686-.48-.959a.333.333 0 0 0-.298-.184h-.227a.333.333 0 0 1-.236-.098l-2.09-2.09A.333.333 0 0 1 8 9.119v-.867a.333.333 0 0 0-.097-.235l-.98-.98a.333.333 0 0 1-.088-.155L6.33 4.863a.333.333 0 0 0-.218-.235l-1.518-.506a.333.333 0 0 1-.044-.018l-.937-.47a.333.333 0 0 1-.184-.297v-.604c0-.184.149-.333.333-.333h.672a.33.33 0 0 1 .235.098l.376.376a.333.333 0 0 0 .236.097h.867a.333.333 0 0 0 .235-.097l.377-.376a.333.333 0 0 1 .235-.098h2.07c.051 0 .102.012.148.035l1.003.501a.333.333 0 0 0 .149.035h.985a.333.333 0 0 0 .15-.035l1.001-.5a.333.333 0 0 1 .15-.036h1.873c.184 0 .333.15.333.333v.476a.333.333 0 0 1-.333.334h-.476a.333.333 0 0 0-.334.333v1.175c0 .126.072.242.185.298l.476.238a.333.333 0 0 0 .482-.298v-.841c0-.185.15-.334.334-.334h1.095c.158 0 .286.128.286.286 0 .158.128.286.285.286h1.096c.184 0 .333.149.333.333v.755a.331.331 0 0 1-.017.106l-.53 1.588a.334.334 0 0 1-.08.13l-1.62 1.62a.336.336 0 0 0-.063.087l-.512 1.025a.334.334 0 0 0-.035.149v.73c0 .185-.15.334-.334.334h-.032a.333.333 0 0 1-.298-.184l-.387-.775a.333.333 0 0 0-.298-.184h-1.302a.333.333 0 0 0-.299.184l-.404.81a.334.334 0 0 0 0 .298l.404.81a.333.333 0 0 0 .299.184h.798c.089 0 .173.035.236.097l.948.948a.333.333 0 0 1 .097.236v.671a.333.333 0 0 1-.333.333h-.604a.333.333 0 0 1-.298-.184l-.387-.774a.333.333 0 0 0-.298-.184h-.73a.333.333 0 0 1-.299-.185l-.48-.958Z" clip-rule="evenodd"/></g><rect width="23" height="17" x=".5" y=".5" stroke="#000" stroke-opacity=".1" rx="1.5"/><defs><clipPath id="a"><rect width="24" height="18" fill="#fff" rx="2"/></clipPath></defs></svg>