<svg xmlns="http://www.w3.org/2000/svg" fill="none" viewBox="0 0 24 18"><g clip-path="url(#a)"><mask id="b" width="24" height="18" x="0" y="0" maskUnits="userSpaceOnUse" style="mask-type:luminance"><path fill="#fff" d="M0 0h24v18H0z"/></mask><g mask="url(#b)"><path fill="#EA1A1A" fill-rule="evenodd" d="M0 0v18h24V0z" clip-rule="evenodd"/><mask id="c" width="24" height="18" x="0" y="0" maskUnits="userSpaceOnUse" style="mask-type:luminance"><path fill="#fff" fill-rule="evenodd" d="M0 0v18h24V0z" clip-rule="evenodd"/></mask><g mask="url(#c)"><path fill="#fff" fill-rule="evenodd" d="M11.902 8.681s-4.342-3.872.84-6.129c0 0 1.506 1.663.376 3.53-.371.611-.684 1.048-.919 1.377-.482.673-.637.89-.297 1.222m-6.409-2.78C5.195 11.544 10.6 9.39 10.6 9.39c-.448.156-.573-.08-.96-.811a20 20 0 0 0-.822-1.438C7.654 5.296 5.493 5.9 5.493 5.9m8.185 2.97s5.574 1.668 1.836 5.907c0 0-2.07-.868-1.836-3.037.077-.712.175-1.24.249-1.637.151-.814.2-1.077-.249-1.234m-1.465 1.3s1 5.732-4.463 4.284c0 0-.149-2.24 1.896-3 .67-.25 1.188-.399 1.576-.51.795-.229 1.052-.302.991-.774m6.896-2.465c-3.417-4.501-6.154.633-6.154.633.243-.409.49-.31 1.258 0 .374.15.873.351 1.556.567 2.08.658 3.34-1.2 3.34-1.2" clip-rule="evenodd"/><path fill="#EA1A1A" d="m7.463 7.757.316-.201c.695 1.093 1.597 1.63 2.722 1.63v.376c-1.259 0-2.277-.608-3.038-1.805"/><path fill="#EA1A1A" fill-rule="evenodd" d="M16.313 8.063a.562.562 0 1 0 0-1.125.562.562 0 0 0 0 1.125m-1.344 3.733a.562.562 0 1 0 0-1.125.562.562 0 0 0 0 1.125m-4.5 1.5a.562.562 0 1 0 0-1.125.562.562 0 0 0 0 1.125m-3-5.25a.563.563 0 1 0 0-1.125.563.563 0 0 0 0 1.125m4.5-2.25a.562.562 0 1 0 0-1.125.562.562 0 0 0 0 1.125" clip-rule="evenodd"/><path fill="#EA1A1A" d="m11.726 5.29.33.178c-.625 1.152-.67 2.215-.14 3.21l-.331.175c-.59-1.11-.541-2.305.14-3.563m4.786 1.974-.056.371c-1.467-.222-2.565.087-3.317.922l-.278-.25c.843-.937 2.068-1.283 3.651-1.043"/><path fill="#EA1A1A" d="m15.263 11.524-.367.074c-.293-1.455-.96-2.38-2.001-2.802l.14-.347c1.17.472 1.912 1.505 2.228 3.075m-4.833 1.339-.195-.32c1.266-.773 1.908-1.716 1.948-2.839l.374.013c-.044 1.26-.76 2.312-2.127 3.146"/></g></g></g><rect width="23" height="17" x=".5" y=".5" stroke="#000" stroke-opacity=".1" rx="1.5"/><defs><clipPath id="a"><rect width="24" height="18" fill="#fff" rx="2"/></clipPath></defs></svg>