<svg xmlns="http://www.w3.org/2000/svg" fill="none" viewBox="0 0 24 18"><g clip-path="url(#a)"><mask id="b" width="24" height="18" x="0" y="0" maskUnits="userSpaceOnUse" style="mask-type:luminance"><path fill="#fff" d="M0 0h24v18H0z"/></mask><g mask="url(#b)"><path fill="#2E42A5" fill-rule="evenodd" d="M0 0v18h24V0z" clip-rule="evenodd"/><mask id="c" width="24" height="18" x="0" y="0" maskUnits="userSpaceOnUse" style="mask-type:luminance"><path fill="#fff" fill-rule="evenodd" d="M0 0v18h24V0z" clip-rule="evenodd"/></mask><g mask="url(#c)"><path fill="#2B409A" d="M-4-3h18v14H-4z"/><mask id="d" width="18" height="14" x="-4" y="-3" maskUnits="userSpaceOnUse" style="mask-type:luminance"><path fill="#fff" d="M-4-3h18v14H-4z"/></mask><g mask="url(#d)"><path fill="#F7FCFF" d="m-6.004 10 3.96 1.737L14.09-1.111l2.09-2.582-4.237-.58-6.58 5.536-5.296 3.73z"/><path fill="#F50100" d="m-5.462 11.217 2.018 1.008L15.429-3.933h-2.833z"/><path fill="#F7FCFF" d="m16.004 10-3.961 1.737L-4.09-1.111l-2.09-2.582 4.236-.58 6.58 5.536 5.297 3.73z"/><path fill="#F50100" d="m15.869 10.873-2.018 1.009-8.037-6.918-2.382-.773-9.813-7.875h2.834L6.26 4.004l2.605.927z"/><mask id="e" width="22" height="18" x="-6" y="-5" fill="#000" maskUnits="userSpaceOnUse"><path fill="#fff" d="M-6-5h22v18H-6z"/><path fill-rule="evenodd" d="M5.985-3h-2v6H-4v2h7.985v6h2V5H14V3H5.985z" clip-rule="evenodd"/></mask><path fill="#F50100" fill-rule="evenodd" d="M5.985-3h-2v6H-4v2h7.985v6h2V5H14V3H5.985z" clip-rule="evenodd"/><path fill="#F7FCFF" d="M3.985-3v-1.5h-1.5V-3zm2 0h1.5v-1.5h-1.5zm-2 6v1.5h1.5V3zM-4 3V1.5h-1.5V3zm0 2h-1.5v1.5H-4zm7.985 0h1.5V3.5h-1.5zm0 6h-1.5v1.5h1.5zm2 0v1.5h1.5V11zm0-6V3.5h-1.5V5zM14 5v1.5h1.5V5zm0-2h1.5V1.5H14zM5.985 3h-1.5v1.5h1.5zm-2-4.5h2v-3h-2zm1.5 4.5v-6h-3v6zM-4 4.5h7.985v-3H-4zm1.5.5V3h-3v2zm6.485-1.5H-4v3h7.985zm1.5 7.5V5h-3v6zm.5-1.5h-2v3h2zM4.485 5v6h3V5zM14 3.5H5.985v3H14zM12.5 3v2h3V3zM5.985 4.5H14v-3H5.985zM4.485-3v6h3v-6z" mask="url(#e)"/></g><path fill="#B7E1FF" stroke="#F7FCFF" stroke-width=".5" d="m26.176 6.783.014.235.048.93c.102 2.168.105 4.308-.343 5.977-.256.958-.667 1.784-1.311 2.37-.65.592-1.514.92-2.634.92-1.108 0-1.95-.264-2.574-.783-.622-.517-.997-1.262-1.227-2.165-.229-.9-.318-1.98-.351-3.192s-.01-2.577-.01-4.042v-.25z"/><mask id="f" width="10" height="12" x="17" y="6" maskUnits="userSpaceOnUse" style="mask-type:luminance"><path fill="#fff" stroke="#fff" stroke-width=".5" d="m26.176 6.783.014.235.048.93c.102 2.168.105 4.308-.343 5.977-.256.958-.667 1.784-1.311 2.37-.65.592-1.514.92-2.634.92-1.108 0-1.95-.264-2.574-.783-.622-.517-.997-1.262-1.227-2.165-.229-.9-.318-1.98-.351-3.192s-.01-2.577-.01-4.042v-.25z"/></mask><g mask="url(#f)"><path fill="#2E42A5" d="M20 15h6v2h-6z"/><g filter="url(#g)"><path fill="#FDFF00" d="M16 5h12v6H16z"/></g><path fill="#F7FCFF" stroke="#272727" d="M21.13 7.605c.038.066.07.137.108.22.03.064.082.179.142.266.017.025.04.068.096.16.047.08.11.182.182.284.047.067.111.15.192.235l-.25.3a2 2 0 0 0-.123-.112c-.04-.033-.068-.055-.098-.082-.101-.09-.15-.159-.157-.287-.017-.286-.025-.542-.042-.712a1.4 1.4 0 0 0-.055-.28z"/><path fill="#FDFF00" d="M20.826 11.044h.2V15h-.2z"/><path fill="#F7FCFF" fill-rule="evenodd" d="M20.1 13.813h1.783s.017.514-.253.419c-.271-.095.027.095-.385 0s-.775.299-.867.102-.45.056-.364-.233z" clip-rule="evenodd"/><path fill="#212123" d="M20.133 13.764h1.733v.2h-1.733z"/><path fill="#F7FCFF" fill-rule="evenodd" d="M20.347 13.065h1.426s.014.412-.203.336c-.216-.076.022.076-.307 0-.33-.076-.62.239-.694.081s-.36.045-.291-.186z" clip-rule="evenodd"/><path fill="#212123" d="M20.373 13.027h1.387v.2h-1.387z"/><path fill="#F7FCFF" fill-rule="evenodd" d="M20.087 12.245h1.545s.015.412-.22.335.024.076-.333 0-.671.24-.751.082-.39.044-.316-.186z" clip-rule="evenodd"/><path fill="#212123" d="M20.116 12.206h1.502v.2h-1.502z"/><path fill="#F7FCFF" fill-rule="evenodd" d="M20.214 11.556h1.426s.014.515-.203.42c-.216-.096.022.095-.308 0-.33-.096-.62.298-.693.101-.074-.197-.36.056-.291-.232z" clip-rule="evenodd"/><path fill="#212123" d="M20.24 11.508h1.387v.2H20.24z"/><path fill="#FDFF00" d="M22.742 11.544h.2V15.5h-.2z"/><path fill="#F7FCFF" fill-rule="evenodd" d="M22.1 13.976h1.783s.017.411-.253.335c-.271-.076.027.076-.385 0s-.775.24-.867.082-.45.044-.364-.187z" clip-rule="evenodd"/><path fill="#212123" d="M22.133 13.937h1.733v.2h-1.733z"/><path fill="#F7FCFF" fill-rule="evenodd" d="M22.365 13.23h1.4s.014.309-.199.252.021.057-.302 0c-.324-.057-.609.18-.681.061-.073-.118-.354.034-.286-.14z" clip-rule="evenodd"/><path fill="#212123" d="M22.391 13.201h1.362v.2h-1.362z"/><path fill="#F7FCFF" fill-rule="evenodd" d="M22.086 12.41h1.528s.015.309-.217.251.023.058-.33 0c-.353-.057-.664.18-.743.062-.08-.119-.386.033-.312-.14z" clip-rule="evenodd"/><path fill="#212123" d="M22.114 12.38H23.6v.2h-1.486z"/><path fill="#F7FCFF" fill-rule="evenodd" d="M22.221 11.72h1.401s.014.41-.199.335c-.213-.076.021.076-.302 0-.324-.076-.609.239-.681.081s-.354.045-.287-.186z" clip-rule="evenodd"/><path fill="#212123" d="M22.248 11.68h1.362v.2h-1.362z"/><path fill="#272727" fill-rule="evenodd" d="M20.185 14.687s.926.503 2.337.416c1.411-.086 1.31.186 1.676-.202.366-.387.398-.3.855-.504s.522-.396.757-.396c.236 0 2.742-.1 2.742-.1s-.229.206-.229.496.153.32 0 .583-.326.614-.548.716-3.218.167-3.981.167c-.765 0-2.334.085-2.514 0s-1.095-1.176-1.095-1.176" clip-rule="evenodd"/><path fill="#CE6201" fill-rule="evenodd" d="m18.118 12.686.893-.822s.039 0 .205.411.174.974.346.833c.173-.14.439-.01.55-.422.113-.411.106-.944.248-.677s.058-.123.285.488.317-.263.442.611c.124.875.23 1.176.23 1.38s1.137.809.701 1.226-.313.22-.701.483c-.388.262-.786.11-.23.316.555.206.476.58.476.855 0 .276-.035.4-.476.337-.442-.061-.98.159-1.087.159s-1.403-.264-1.403-.808c0-.543-.48-4.37-.48-4.37" clip-rule="evenodd"/></g></g></g></g><rect width="23" height="17" x=".5" y=".5" stroke="#000" stroke-opacity=".1" rx="1.5"/><defs><clipPath id="a"><rect width="24" height="18" fill="#fff" rx="2"/></clipPath><filter id="g" width="12" height="7" x="16" y="5" color-interpolation-filters="sRGB" filterUnits="userSpaceOnUse"><feFlood flood-opacity="0" result="BackgroundImageFix"/><feColorMatrix in="SourceAlpha" result="hardAlpha" values="0 0 0 0 0 0 0 0 0 0 0 0 0 0 0 0 0 0 127 0"/><feOffset dy="1"/><feColorMatrix values="0 0 0 0 0 0 0 0 0 0 0 0 0 0 0 0 0 0 0.5 0"/><feBlend in2="BackgroundImageFix" result="effect1_dropShadow_701_20450"/><feBlend in="SourceGraphic" in2="effect1_dropShadow_701_20450" result="shape"/></filter></defs></svg>