<svg xmlns="http://www.w3.org/2000/svg" fill="none" viewBox="0 0 24 18"><g clip-path="url(#a)"><mask id="b" width="24" height="18" x="0" y="0" maskUnits="userSpaceOnUse" style="mask-type:luminance"><path fill="#fff" d="M0 0h24v18H0z"/></mask><g mask="url(#b)"><path fill="#E31D1C" fill-rule="evenodd" d="M0 0v18h24V0z" clip-rule="evenodd"/><mask id="c" width="24" height="18" x="0" y="0" maskUnits="userSpaceOnUse" style="mask-type:luminance"><path fill="#fff" fill-rule="evenodd" d="M0 0v18h24V0z" clip-rule="evenodd"/></mask><g mask="url(#c)"><path fill="#F7FCFF" fill-rule="evenodd" d="M12.019 12.085c-1.606-.396-2.864-1.74-2.85-3.71.014-1.845 1.131-3.404 2.897-3.826s3.32.474 3.32.474c-.488-1.152-2.184-1.961-3.573-1.959-2.587.004-5.345 2.102-5.369 5.31-.024 3.327 2.953 5.221 5.572 5.217 2.1-.004 3.095-1.44 3.302-2.051 0 0-1.693.94-3.299.545m3.658-4.34-1.6.588 1.806.637-.031 1.903 1.19-1.428 1.965.143-1.558-1.339 1.023-1.428-1.665.56-1.19-1.322z" clip-rule="evenodd"/></g></g></g><rect width="23" height="17" x=".5" y=".5" stroke="#000" stroke-opacity=".1" rx="1.5"/><defs><clipPath id="a"><rect width="24" height="18" fill="#fff" rx="2"/></clipPath></defs></svg>