<svg xmlns="http://www.w3.org/2000/svg" fill="none" viewBox="0 0 24 18"><g clip-path="url(#a)"><mask id="b" width="24" height="18" x="0" y="0" maskUnits="userSpaceOnUse" style="mask-type:luminance"><path fill="#fff" d="M0 0h24v18H0z"/></mask><g fill-rule="evenodd" clip-rule="evenodd" mask="url(#b)"><path fill="#409100" d="M16.5 0H24v18h-7.5V0ZM0 0h7.5v18H0V0Z"/><path fill="#fff" d="M7.5 0h9v18h-9V0Z"/><path fill="#409100" d="M9.522 14.078c-1.167.19-1.535-.38-1.535-.38l.147-.12c.099-.081.43-.054.754-.027.158.014.313.027.438.027.182 0 .392-.028.61-.056a5.5 5.5 0 0 1 .72-.064c.448 0-1.33-.588-1.71-.227-.38.36-1.446-.167-1.446-.468 0-.205.392-.13.75-.062.167.032.326.062.435.062.342 0-.342-.667-.698-.667-.356 0 .356-.155.698-.155.194 0 .375.05.531.094.118.032.221.061.306.061.195 0-.982-.506-1.18-.506h.984c.337 0 .42.048.497.093.07.04.136.079.383.079.52 0 .235-.285.235-.285s-1.756-.182-2.098-.434c-.231-.17.39-.11.975-.053.281.027.554.053.722.053.519 0-1.094-.37-1.355-.37h1.188c.26 0 .546.084.846.171.33.097.679.2 1.028.2.369 0-.351-.22-1.142-.462-.639-.196-1.324-.405-1.52-.524-.2-.123-.047-.075.232.012.324.1.819.254 1.124.254.568 0-.755-.557-1.115-.557s-.704-.162-.38-.311c.199-.092.717.046 1.169.167.283.076.54.144.676.144.163 0 .284.064.413.132.146.077.303.16.543.16.452 0-.956-.603-1.541-.603s-.684-.284-.333-.284c.352 0-.787-.484-.787-.484s-.165-.342.24-.342h.547c.188 0-.187-.595-.547-.595-.36 0-.046-.18.547-.18.361 0 .572.125.826.275.164.096.345.203.596.294.64.233.158-.39 0-.39-.157 0-1.773-.506-1.773-.506s.164-.186 0-.44c-.124-.192.391-.095.706-.035.102.019.183.034.213.034.074 0 .288.053.55.119.177.044.377.093.57.136.48.105-1.632-.776-1.875-.776-.244 0 .52-.145.97-.145.22 0 .327.035.435.07.112.038.226.075.47.075.48 0-.906-.515-1.355-.515-.45 0-.184-.443 0-.443.071 0 .252.024.473.053.347.045.792.104 1.068.104.21 0 .018-.06-.26-.145-.322-.098-.76-.232-.832-.353-.08-.133.083-.109.367-.067l.165.024c.194.102.356.167.38.09a.087.087 0 0 1 .041-.05 3.2 3.2 0 0 0 .14.003c.267 0 .143-.04-.114-.09l-.024-.006c-.39-.12-1.237-.376-.92-.218.062.031.131.07.204.11a5.393 5.393 0 0 0-.453-.049c-.214 0-.429-.165 0-.165h.854c-.265 0-.64 0-.64-.209 0-.142.297-.09.57-.043.128.022.251.043.336.043.266 0 .332 0 .186-.124-.138-.118-.615-.117-.91-.117h-.046c-.29 0 .615-.151.956-.151l.083-.001a.235.235 0 0 0-.044-.005c-.149-.015-.643-.063-.995-.223-.316-.142-.04-.106.323-.06.216.028.464.06.633.06.452 0-.186-.303-.666-.303-.386 0-.202-.106.036-.242.059-.034.12-.07.178-.106.174-.109.3.077.375.187.05.074.077.113.077-.003a.418.418 0 0 0-.053-.223c.013.01.03.024.053.04.187.123 0-.327 0-.327s-.186-.124 0-.124c.187 0-.06-.214-.186-.214s.332-.204.332-.204l.1-.866s.25.943.25 1.07v.664c0 .158-.111.269-.186.342-.094.093-.13.128.186.128.568 0 .544.181.198.181-.345 0 .1.229.72.229s-.52.268-.918.268c-.397 0 .398.124.918.124.352 0-.009.122-.341.234-.16.054-.314.105-.379.14-.103.056.152.054.421.04a22.63 22.63 0 0 0-.389.117c-.13.04-.173.052-.172.058 0 .003.012.003.03.004.055.003.164.01.186.08.033.108.329-.058.608-.214l.132-.074.121-.01s.257.296.257.477c0 .106-.338.137-.699.17l-.036.004c.018-.024-.059-.012-.171.016-.188.02-.364.043-.486.083-.115.037-.096.053-.002.056l-.025.008c-.089.027-.12.037-.119.042 0 .003.01.004.023.007.04.008.118.023.14.094.032.107.23-.028.417-.156l.017-.012.178-.012a9.46 9.46 0 0 1 .506-.027c.335 0-.335.161-.591.161-.109 0 .028.025.238.063.283.05.697.125.814.194.14.083-.27.052-.636.024-.167-.012-.325-.024-.416-.024-.291 0-.346.238-.146.238h.737c.279 0 .57.427.46.427-.032 0-.102.022-.2.052-.226.071-.598.187-.997.187h.994c.257 0 .991.001.991.255 0 .157-.139.192-.32.237-.111.028-.238.06-.359.125-.32.173.957.33.957.33s-.505.158-.751.158.114.232.75.232c.493 0 .349.268.258.436a.344.344 0 0 0-.048.112c0 .045-.093.083-.228.138-.174.07-.416.17-.618.346-.232.203.05.143.369.076.174-.037.359-.076.477-.076.334 0 .477.014.368.176-.109.162-1.082.42-1.328.42h1.328c.368 0-.103.29-.577.29a.999.999 0 0 0-.613.199c-.058.038-.1.067-.138.067h.96c.049 0 .102-.078.152-.15.043-.063.083-.12.113-.116.434.068.24.615 0 .615-.275 0-1.11.184-.98.37.064.09.164.05.325-.016.172-.07.414-.17.758-.17.667 0 .064.186-.103.186-.167 0-.875.135-1.11.252-.158.078.39.052.934.026.271-.013.542-.026.725-.026.548 0-1.301.467-1.98.467s.452.18.679.18c.087 0 .257.022.465.05.335.045.772.104 1.134.104.587 0-.587.387-1.112.387h-.12c-.469-.002-.821-.004-.594.28.126.158.546.115.984.07.415-.043.848-.087 1.061.037.384.224-1.313.204-2.045.196l-.246-.002c-.45 0 .45.167 1.225.167h.098c.692 0 .856 0 .856.227 0 .2-1.508.148-2.138.127a10.57 10.57 0 0 0-.247-.007c-.12 0-.19.072-.263.148-.077.08-.157.164-.306.164-.122 0-.18-.078-.232-.15-.07-.095-.132-.179-.33-.042-.346.24.345 2.652.345 2.652h-1.866v-2.272s-.607-.19-1.773 0Zm2.143-11.066c-.003.001.005.012.03.033-.015-.023-.027-.033-.03-.033Zm-.65 9.006c-.294-.111.453-.117.799-.117.111 0 .15 0 .153.01.002.005-.008.013-.024.026a.306.306 0 0 0-.13.25c0 .212-.28.075-.544-.054a3.072 3.072 0 0 0-.253-.115Zm.612-.869c-.346 0-1.093.006-.798.117.075.028.163.071.253.115.265.13.545.266.545.053 0-.142.086-.213.13-.249.015-.013.024-.02.023-.026-.002-.01-.042-.01-.153-.01Zm-.623-.502c-.241-.059.369-.062.65-.062.094 0 .125 0 .126.006 0 .003-.007.007-.02.013-.035.019-.105.056-.105.131 0 .112-.229.04-.445-.028-.073-.023-.145-.046-.207-.06Zm.607-2.377c-.392-.12-1.238-.376-.921-.218.08.04.173.092.268.146.28.156.576.322.609.215.022-.072.13-.078.185-.08.018-.002.03-.002.03-.005.002-.005-.042-.019-.171-.058Zm-.921-.97c-.317-.157.53.098.92.218.13.04.174.053.173.058 0 .003-.013.004-.031.005-.055.003-.163.009-.185.08-.033.107-.329-.059-.609-.215-.095-.053-.188-.106-.268-.146Zm.92-.722c-.39-.12-1.237-.375-.92-.217.08.04.173.092.268.145.28.157.576.322.609.215.022-.071.13-.077.185-.08.018-.001.03-.002.03-.005.002-.005-.042-.018-.171-.058Zm.847 5.135c.345 0 1.092.006.798.117a3.072 3.072 0 0 0-.253.115c-.265.13-.545.266-.545.053 0-.142-.087-.213-.13-.25-.015-.012-.025-.02-.024-.025.003-.01.042-.01.154-.01Zm.798-.447c.294-.111-.453-.117-.798-.117-.112 0-.151 0-.154.01 0 .005.009.013.024.026.043.036.13.107.13.25 0 .212.28.075.545-.054.09-.044.178-.087.253-.115Zm-.826-1.056c.235 0 1.134-.209 1.288-.244a.296.296 0 0 1-.008.002c-.08.02-.246.085-.434.159-.38.15-.846.333-.846.232 0-.075-.07-.112-.106-.13-.012-.007-.02-.011-.02-.014.001-.005.033-.005.126-.005Zm.965-2.534c.317-.157-.53.098-.92.218h-.001c-.13.04-.173.053-.172.058 0 .003.012.004.03.005.055.003.164.008.186.08.033.107.329-.059.608-.215.095-.053.189-.106.269-.146Zm-.92.97c.39-.12 1.237-.376.92-.218a6.05 6.05 0 0 0-.269.146c-.28.156-.575.322-.608.215-.022-.072-.13-.078-.185-.08-.019-.002-.03-.002-.031-.005-.001-.005.043-.019.172-.058Zm.92-1.721c.317-.158-.53.097-.92.217h-.001c-.13.04-.173.053-.172.058 0 .003.012.004.03.005.055.003.164.009.186.08.033.107.329-.059.608-.215a7.18 7.18 0 0 1 .269-.145Zm-1.178-.44c.27-.083.854-.258.64-.132a3.43 3.43 0 0 0-.18.118c-.186.129-.384.264-.416.157-.022-.071-.1-.087-.14-.094-.013-.003-.022-.005-.023-.007 0-.006.03-.015.119-.042Zm.172 2.86c-.31 0 0-.244 0-.244h.16a.407.407 0 0 0 .167-.053c.123-.056.302-.139.685-.139.584 0-.702.436-1.012.436Z"/></g></g><path stroke="#000" stroke-opacity=".1" stroke-width=".5" d="M.25.25h23.5v17.5H.25z"/><defs><clipPath id="a"><path fill="#fff" d="M0 0h24v18H0z"/></clipPath></defs></svg>