<svg xmlns="http://www.w3.org/2000/svg" fill="none" viewBox="0 0 24 18"><g clip-path="url(#a)"><mask id="b" width="24" height="18" x="0" y="0" maskUnits="userSpaceOnUse" style="mask-type:luminance"><path fill="#fff" d="M0 0h24v18H0z"/></mask><g mask="url(#b)"><path fill="#2E42A5" fill-rule="evenodd" d="M0 0v18h24V0H0Z" clip-rule="evenodd"/><mask id="c" width="24" height="18" x="0" y="0" maskUnits="userSpaceOnUse" style="mask-type:luminance"><path fill="#fff" fill-rule="evenodd" d="M0 0v18h24V0H0Z" clip-rule="evenodd"/></mask><g mask="url(#c)"><path fill="#6DC2FF" stroke="#F7FCFF" stroke-width=".5" d="M19.463 14.723c-.762 0-1.283-.18-1.651-.485-.37-.308-.617-.77-.776-1.395-.16-.628-.225-1.398-.25-2.299a65.431 65.431 0 0 1-.01-2.056l.002-.713h5.44c.097 1.785.128 3.511-.22 4.806-.179.671-.455 1.203-.854 1.567-.395.36-.932.575-1.681.575Z"/><mask id="d" width="7" height="8" x="16" y="7" maskUnits="userSpaceOnUse" style="mask-type:luminance"><path fill="#fff" stroke="#fff" stroke-width=".5" d="M19.463 14.723c-.762 0-1.283-.18-1.651-.485-.37-.308-.617-.77-.776-1.395-.16-.628-.225-1.398-.25-2.299a65.431 65.431 0 0 1-.01-2.056l.002-.713h5.44c.097 1.785.128 3.511-.22 4.806-.179.671-.455 1.203-.854 1.567-.395.36-.932.575-1.681.575Z"/></mask><g mask="url(#d)"><path fill="#E1E5E8" fill-rule="evenodd" d="M18.391 10.19s-.296-.219-.422-.573c-.127-.355-.379-1.3-.379-1.381 0-.082-.334 0-.334 0s.005-.4.131-.4.13-.37.437-.277c.306.094.546.436.858.436.312 0 1.616.1 1.825.1.21 0 .762.441.762.772s-.15.825-.27.825c-.118 0-.267.287-.492.192-.225-.095-.763-.29-1.244-.192-.482.097-.58.036-.58.192s-.292.306-.292.306Z" clip-rule="evenodd"/><path fill="#49801E" fill-rule="evenodd" d="M17.7 9.959h3.867l-.666.86h-2.732l-.469-.86Z" clip-rule="evenodd"/><path stroke="#fff" stroke-width="1.067" d="M17.65 13.722s.668.239.947.21c.31-.032.583-.385.79-.385.206 0 .604.353.912.385.28.029.826-.21.826-.21m-4.209-1.02c.23-.195.734-.21.734-.21s.668.24.947.21c.31-.032.583-.385.79-.385.206 0 .604.353.912.385.28.03.826-.21.826-.21s.304-.343.687.02"/><path fill="#fff" d="m16.846 11.647-.506-.62c.198-.161.531-.32 1.017-.497l.236-.011c.504.13.841.185.964.173.041-.004.11-.037.233-.12.353-.234.388-.253.597-.253.192 0 .231.018.631.235.075.04.103.054.143.073.084.04.145.061.178.065.096.01.29-.035.56-.144.353-.32.799-.287 1.183.062.256.234.461.422.616.566l-.544.586a99.399 99.399 0 0 0-.611-.56c-.101-.092-.08-.092-.125-.043l-.138.097c-.42.177-.752.259-1.02.232a1.325 1.325 0 0 1-.445-.14 3.952 3.952 0 0 1-.177-.09c-.193-.105-.266-.139-.25-.139.033 0-.014.026-.155.12-.228.15-.386.228-.596.249-.232.023-.593-.033-1.121-.164-.343.13-.571.242-.67.323Z"/></g><path stroke="#B85F3C" d="M17.222 13.795s.738.707.293 1.186c-.446.479-.854.2-.854.2m5.126-1.386s-.738.707-.292 1.186.854.2.854.2"/><path stroke="#CB8B73" d="M16.74 14.365s1.272 1.215 2.835 1.215 2.82-.928 2.82-.928"/><path fill="#2B409A" d="M-4-3h18v14H-4z"/><mask id="e" width="18" height="14" x="-4" y="-3" maskUnits="userSpaceOnUse" style="mask-type:luminance"><path fill="#fff" d="M-4-3h18v14H-4z"/></mask><g mask="url(#e)"><path fill="#F7FCFF" d="m-6.004 10 3.96 1.737L14.09-1.111l2.09-2.582-4.236-.58-6.58 5.536-5.297 3.73L-6.004 10Z"/><path fill="#F50100" d="m-5.462 11.217 2.018 1.008L15.429-3.933h-2.834l-18.057 15.15Z"/><path fill="#F7FCFF" d="m16.004 10-3.96 1.737L-4.09-1.111l-2.09-2.582 4.236-.58 6.58 5.536 5.297 3.73L16.004 10Z"/><path fill="#F50100" d="m15.87 10.873-2.019 1.009-8.036-6.918-2.383-.773-9.812-7.875h2.833L6.26 4.004l2.605.927 7.004 5.942Z"/><mask id="f" width="22" height="18" x="-6" y="-5" fill="#000" maskUnits="userSpaceOnUse"><path fill="#fff" d="M-6-5h22v18H-6z"/><path fill-rule="evenodd" d="M5.985-3h-2v6H-4v2h7.985v6h2V5H14V3H5.985v-6Z" clip-rule="evenodd"/></mask><path fill="#F50100" fill-rule="evenodd" d="M5.985-3h-2v6H-4v2h7.985v6h2V5H14V3H5.985v-6Z" clip-rule="evenodd"/><path fill="#F7FCFF" d="M3.985-3v-1.5h-1.5V-3h1.5Zm2 0h1.5v-1.5h-1.5V-3Zm-2 6v1.5h1.5V3h-1.5ZM-4 3V1.5h-1.5V3H-4Zm0 2h-1.5v1.5H-4V5Zm7.985 0h1.5V3.5h-1.5V5Zm0 6h-1.5v1.5h1.5V11Zm2 0v1.5h1.5V11h-1.5Zm0-6V3.5h-1.5V5h1.5ZM14 5v1.5h1.5V5H14Zm0-2h1.5V1.5H14V3ZM5.985 3h-1.5v1.5h1.5V3Zm-2-4.5h2v-3h-2v3Zm1.5 4.5v-6h-3v6h3ZM-4 4.5h7.985v-3H-4v3Zm1.5.5V3h-3v2h3Zm6.485-1.5H-4v3h7.985v-3Zm1.5 7.5V5h-3v6h3Zm.5-1.5h-2v3h2v-3ZM4.485 5v6h3V5h-3ZM14 3.5H5.985v3H14v-3ZM12.5 3v2h3V3h-3ZM5.985 4.5H14v-3H5.985v3ZM4.485-3v6h3v-6h-3Z" mask="url(#f)"/></g></g></g></g><path stroke="#000" stroke-opacity=".1" stroke-width=".5" d="M.25.25h23.5v17.5H.25z"/><defs><clipPath id="a"><path fill="#fff" d="M0 0h24v18H0z"/></clipPath></defs></svg>