<svg xmlns="http://www.w3.org/2000/svg" fill="none" viewBox="0 0 24 18"><g clip-path="url(#a)"><mask id="b" width="24" height="18" x="0" y="0" maskUnits="userSpaceOnUse" style="mask-type:luminance"><path fill="#fff" d="M0 0h24v18H0z"/></mask><g mask="url(#b)"><path fill="#F7FCFF" fill-rule="evenodd" d="M0 0v18h24V0H0Z" clip-rule="evenodd"/><mask id="c" width="24" height="18" x="0" y="0" maskUnits="userSpaceOnUse" style="mask-type:luminance"><path fill="#fff" fill-rule="evenodd" d="M0 0v18h24V0H0Z" clip-rule="evenodd"/></mask><g mask="url(#c)"><path fill="#BF2714" fill-rule="evenodd" d="M0 0v6h24V0H0Z" clip-rule="evenodd"/><path fill="#272727" fill-rule="evenodd" d="M0 12v6h24v-6H0Z" clip-rule="evenodd"/><path fill="#C09302" d="m9.195 7.665.75.035-.189 4.102-.749-.034.188-4.103Zm.783.255.749.042-.188 3.327-.749-.043.188-3.326Z"/><path fill="#C09302" d="m10.761 8.169.748.061-.188 2.292-.748-.061.188-2.292Zm4.044-.504-.75.035.189 4.102.749-.034-.188-4.103Zm-.783.255-.749.042.188 3.327.749-.043-.188-3.326Z"/><path fill="#C09302" d="m13.239 8.169-.748.061.188 2.292.748-.061-.188-2.292Zm-1.259 3.326-.731-.167.31-1.351.73.167-.309 1.351Z"/><path fill="#C09302" d="m12.54 11.495.73-.167-.309-1.351-.73.167.309 1.351Z"/><path fill="#C09302" d="M12.354 11.483h-.75v-1.326h.75v1.326Zm-1.378-3.298.75.018-.044 1.786-.75-.018.044-1.786Zm1.304 0 .75.018-.044 1.786-.75-.018.044-1.786Z"/><path fill="#C09302" d="m10.004 11.942.194-.724c.796.214 1.407.32 1.824.32.416 0 1.027-.106 1.823-.32l.195.724c-.854.23-1.523.346-2.018.346-.495 0-1.165-.116-2.018-.346Zm-.792-4.275c-.05-.495.24-.83.731-.788.162.014.343.062.585.144l.14.048c.332.119.422.149.44.153-.073-.017.144-.409.194-.475.005.042-.02.036-.08.024l-.676-.135.482-.494a.878.878 0 0 1 .648-.259c.026 0 .051 0 .132-.006.06-.004.06-.004.128-.006.468-.016.804.117.804.598 0 .172.021.449.057.66.012.07.036.136-.033.165.003-.025.167-.09.421-.196l.031-.013c.74-.31.827-.338 1.066-.193.159.097.31.27.48.53l-.627.41c-.11-.167-.197-.268-.238-.296.094.065-.224.17-.392.24l-.03.014c-.577.24-.653.27-.818.27-.448 0-.61-.46-.653-1.118-.139.455-.552 1.03-.892 1.03-.15 0-.078.024-.696-.196l-.129-.045a2.018 2.018 0 0 0-.408-.107.341.341 0 0 1 .03-.03l-.697.071Z"/></g></g></g><path stroke="#000" stroke-opacity=".1" stroke-width=".5" d="M.25.25h23.5v17.5H.25z"/><defs><clipPath id="a"><path fill="#fff" d="M0 0h24v18H0z"/></clipPath></defs></svg>