<svg xmlns="http://www.w3.org/2000/svg" fill="none" viewBox="0 0 24 18"><g clip-path="url(#a)"><mask id="b" width="24" height="18" x="0" y="0" maskUnits="userSpaceOnUse" style="mask-type:luminance"><path fill="#fff" d="M0 0h24v18H0z"/></mask><g fill-rule="evenodd" clip-rule="evenodd" mask="url(#b)"><path fill="#2E42A5" d="M18-3h10v24H18z"/><path fill="#FECA00" d="M6-3h12v24H6z"/><path fill="#2E42A5" d="M0 0h7.5v18H0z"/><path fill="#000" d="M14.612 12.668c.188-1.29 1.52-4.093 1.52-4.093l.619-1.644-2.45.795.58.301-1.135 3.199-.857-.205V4.853l.678-.05-1.672-2.431-1.632 2.48h.787v6.17l-.965.16-.688-3.234.397-.333-2.665-.492.796 1.469s1.07 2.516 1.472 4.076l1.653-.128v2.398h1.84V12.54z"/></g></g><rect width="23" height="17" x=".5" y=".5" stroke="#000" stroke-opacity=".1" rx="1.5"/><defs><clipPath id="a"><rect width="24" height="18" fill="#fff" rx="2"/></clipPath></defs></svg>