<svg xmlns="http://www.w3.org/2000/svg" fill="none" viewBox="0 0 24 18"><g clip-path="url(#a)"><mask id="b" width="24" height="18" x="0" y="0" maskUnits="userSpaceOnUse" style="mask-type:luminance"><path fill="#fff" d="M0 0h24v18H0z"/></mask><g fill-rule="evenodd" clip-rule="evenodd" mask="url(#b)"><path fill="#F50101" d="M24 0H0v4.5h24zm0 13.5H0V18h24z"/><path fill="#F7FCFF" d="M0 4.5h24v9H0z"/><path fill="#52AB0B" d="M16.136 9.385c.056.65-2.344-.27-2.344-.01s2.571.718 2.567 1.301-3.05-.166-2.366.096c.682.262 2.149.89 1.982 1.281-.356.835-2.72-.58-2.916-.3-.318.45 1.744 1.499 1.727 1.599-.034.192-1.408-.302-1.727.097-.258-.073-.378-.42-.458-.466l-.507-6.543s.455 6.16-.127 6.337-2.198.716-2.245.447c-.018-.1 1.946-1.022 1.63-1.471-.235-.332-2.605.844-2.756.163-.674-.486 2.182-.906 2.182-1.402 0-.497-2.612.587-2.3-.104s2.404-.939 2.443-1.035c.071-.175-2.325.273-2.325 0 0-.515 1.434-.617 2.325-1.08.052-.53-2.16.52-2.325.096-.164-.425 2.828-1.525 2.755-1.61-.116-.136-2.528.475-2.13.154.772-.622 2.279-1.468 2.626-1.694 0 0 .041-.085.086-.056.045-.03.094-.06.094-.06s0 .532-.007.116c-.008-.416 3.532 1.403 3.572 1.864.047.539-2.187-.406-2.135.124.454.281 1.746.826 2.28 1.065.242.109-1.784-.23-1.74-.064.108.424 2.081.476 2.14 1.155"/></g></g><rect width="23" height="17" x=".5" y=".5" stroke="#000" stroke-opacity=".1" rx="1.5"/><defs><clipPath id="a"><rect width="24" height="18" fill="#fff" rx="2"/></clipPath></defs></svg>