<svg xmlns="http://www.w3.org/2000/svg" fill="none" viewBox="0 0 24 18"><g clip-path="url(#a)"><mask id="b" width="24" height="18" x="0" y="0" maskUnits="userSpaceOnUse" style="mask-type:luminance"><path fill="#fff" d="M0 0h24v18H0z"/></mask><g mask="url(#b)"><path fill="#F7FCFF" fill-rule="evenodd" d="M0 0v18h24V0H0Z" clip-rule="evenodd"/><mask id="c" width="24" height="18" x="0" y="0" maskUnits="userSpaceOnUse" style="mask-type:luminance"><path fill="#fff" fill-rule="evenodd" d="M0 0v18h24V0H0Z" clip-rule="evenodd"/></mask><g mask="url(#c)"><path stroke="#272727" stroke-width=".35" d="M14.825 9a2.825 2.825 0 1 1-5.65 0 2.825 2.825 0 0 1 5.65 0Z"/><path fill="#272727" fill-rule="evenodd" d="M9.75 9a2.25 2.25 0 1 0 4.5 0 2.25 2.25 0 0 0-4.5 0Zm4.238 0a1.987 1.987 0 1 1-3.975 0 1.987 1.987 0 0 1 3.975 0Z" clip-rule="evenodd"/><path fill="#F05234" fill-rule="evenodd" d="M0 0v6h24V0H0Z" clip-rule="evenodd"/><path fill="#3D58DB" fill-rule="evenodd" d="M0 12v6h24v-6H0Z" clip-rule="evenodd"/><path fill="#73BE4A" d="m10.963 7.502.213.308c-.495.343-.719.745-.536 1.427.181.676.606 1.012 1.313 1.037l-.013.374c-.871-.03-1.46-.387-1.684-1.223-.222-.83.075-1.486.707-1.923Z"/><path fill="#FBCD17" fill-rule="evenodd" d="m12 9.236-.661.449.222-.768-.63-.49.798-.025L12 7.65l.271.752.799.025-.631.49.222.768L12 9.236Z" clip-rule="evenodd"/><path stroke="#73BE4A" stroke-width=".5" d="M12.876 7.632s.844.585.54 1.719c-.303 1.133-1.487 1.175-1.487 1.175"/></g></g></g><path stroke="#000" stroke-opacity=".1" stroke-width=".5" d="M.25.25h23.5v17.5H.25z"/><defs><clipPath id="a"><path fill="#fff" d="M0 0h24v18H0z"/></clipPath></defs></svg>