<svg xmlns="http://www.w3.org/2000/svg" fill="none" viewBox="0 0 24 18"><g clip-path="url(#a)"><mask id="b" width="24" height="18" x="0" y="0" maskUnits="userSpaceOnUse" style="mask-type:luminance"><path fill="#fff" d="M0 0h24v18H0z"/></mask><g mask="url(#b)"><path fill="#F7FCFF" fill-rule="evenodd" d="M0 0v18h24V0z" clip-rule="evenodd"/><mask id="c" width="24" height="18" x="0" y="0" maskUnits="userSpaceOnUse" style="mask-type:luminance"><path fill="#fff" fill-rule="evenodd" d="M0 0v18h24V0z" clip-rule="evenodd"/></mask><g fill-rule="evenodd" clip-rule="evenodd" mask="url(#c)"><path fill="#006B49" d="M5.7 10.74c-.321-.223-.177-.712-.177-.712s.477.27.644.396.287.645.287.645-.433-.105-.754-.328m.858.7c-.016-.14.023-.267.023-.267s.403.215.544.315c.14.1.243.511.243.511s-.367-.083-.638-.26a.38.38 0 0 1-.164-.249 1.4 1.4 0 0 1-.5.058c-.274-.026-.471-.41-.471-.41s.373-.001.52.019c.115.016.346.202.443.284m1.269.733s.029.403.32.485c.292.082.633.047.633.047s-.228-.355-.382-.405c-.155-.05-.571-.127-.571-.127m1.729 1.079c-.302-.03-.4-.423-.4-.423s.424.004.584.026c.161.023.447.333.447.333s-.33.094-.631.063m.536-.726s-.041.47.262.628c.303.157.68.19.68.19s-.184-.458-.343-.549c-.16-.09-.6-.269-.6-.269m.211 1.2c-.334.069-.598-.322-.598-.322s.454-.139.635-.168c.18-.03.612.21.612.21s-.314.212-.649.28m-2.42-.843s.16.371.462.354.613-.161.613-.161-.33-.262-.493-.26a7 7 0 0 0-.581.067m.88-.426c-.271-.137-.223-.538-.223-.538s.394.156.536.234.298.47.298.47-.341-.03-.612-.166M7.236 10.99s0 .495.205.689c.203.194.448.261.448.261s-.145-.502-.252-.612-.4-.338-.4-.338m-.747 1.095s.305.396.618.375c.313-.02.588-.176.588-.176s-.445-.278-.616-.274-.59.075-.59.075m.074-.09c-.167.015-.323-.193-.323-.193s.224-.043.314-.048.323.138.323.138-.148.087-.314.103m.138-1.604s-.177.19-.133.351a.9.9 0 0 0 .156.292s.1-.254.08-.342a4 4 0 0 0-.103-.301m1.47 1.672c-.104-.04-.08-.164-.08-.164s.151.043.205.066c.054.022.11.141.11.141s-.132-.005-.236-.043m-.536.48s-.024.125.079.164a1 1 0 0 0 .235.043s-.055-.119-.11-.141a3 3 0 0 0-.204-.066m1.981.164c-.103-.04-.08-.164-.08-.164s.152.043.206.066c.054.022.11.141.11.141s-.133-.005-.236-.043m-.46.623s-.023.125.08.164.235.043.235.043-.056-.119-.11-.141a3 3 0 0 0-.205-.066m2.041.854-.334-.278c.208-.12.422-.216.606-.289a.6.6 0 0 0-.133-.073v-.091s.125.032.312.098c.187-.066.312-.098.312-.098v.091a.6.6 0 0 0-.133.073c.183.072.398.168.606.289l-.334.278s-.23-.24-.451-.427c-.221.188-.451.427-.451.427m6.577-4.156s.144.49-.177.713-.755.328-.755.328.12-.519.288-.645c.167-.125.644-.396.644-.396M16.74 11.44c.016-.142-.024-.268-.024-.268s-.402.215-.543.315-.243.511-.243.511.366-.083.637-.26a.38.38 0 0 0 .165-.249c.08.025.287.079.5.058.273-.026.47-.41.47-.41s-.372-.001-.52.019c-.115.016-.346.202-.442.284m-1.269.732s-.029.403-.32.485c-.292.082-.633.047-.633.047s.228-.355.382-.405.571-.127.571-.127m-1.73 1.079c.302-.03.4-.423.4-.423s-.423.004-.584.026c-.16.023-.446.333-.446.333s.33.094.63.063m-.535-.726s.041.47-.262.628a2.1 2.1 0 0 1-.68.19s.184-.458.343-.549c.16-.09.6-.269.6-.269m-.212 1.2c.335.069.599-.322.599-.322s-.454-.139-.635-.168c-.181-.03-.612.21-.612.21s.314.212.648.28m2.42-.843s-.159.371-.461.354-.613-.161-.613-.161.33-.262.493-.26c.162.004.581.067.581.067m-.878-.426c.27-.137.222-.538.222-.538s-.395.156-.537.234-.297.47-.297.47.34-.03.612-.166m1.524-1.467s0 .495-.204.689-.448.261-.448.261.144-.502.252-.612c.107-.11.4-.338.4-.338m.748 1.095s-.305.396-.618.375a1.6 1.6 0 0 1-.589-.176s.446-.278.617-.274.59.075.59.075m-.074-.09c.167.015.323-.193.323-.193s-.224-.043-.314-.048-.324.138-.324.138.148.087.315.103m-.139-1.604s.178.19.134.351c-.044.162-.156.292-.156.292s-.1-.254-.08-.342a4 4 0 0 1 .102-.301m-1.469 1.672c.103-.04.08-.164.08-.164s-.151.043-.205.066c-.054.022-.11.141-.11.141s.132-.005.235-.043m.536.48s.024.125-.08.164c-.102.038-.234.043-.234.043s.055-.119.11-.141c.053-.023.204-.066.204-.066m-1.981.164c.103-.04.079-.164.079-.164s-.151.043-.205.066c-.054.022-.11.141-.11.141s.132-.005.236-.043m.46.623s.023.125-.08.164-.235.043-.235.043.055-.119.11-.141c.053-.023.204-.066.204-.066"/><path fill="#F57A01" d="M20.855 2.263s.26.333 0 .333-.92.361-.92.361-.314.47-.695.575c-.38.106-.508.5-1.065.664s-.614.209-.614.375.095.448-.285.448-.649-.533-.855 0c-.205.532-.414.688-.129 1.014.285.325.663.637.823.825.161.188 1.232.738.446.738s-.39-.498-.996-.316c-.605.182-.258.45-.72.316-.463-.134-.77-.256-.914-.195s-.374-.34-.374.195c0 .536.431.319-.494.91-.926.592-.742.429-1.167.429s-.574.268-.857.268h-.568c-.319 0 .023-.34-.521 0-.544.339-.739.406-.739.536v.476s-.498.285-.498 0c0-.286-.154-.359-.36-.476-.207-.117-.62-.033-1.061 0s-.94-.445-1.323-.445c-.382 0-.454-.36-.558-.36s.109-.306-.337-.582-.602-.31-.602-.756c0-.445-.204-.567-.204-.838 0-.27.218.1.68.1s.493-.286 1.021-.556c.529-.27.708-.417 1.149-.27.44.148.874.698 1.234.17s.36-1.13.36-1.435-.212-.392.363-.196.91.196 1.865.196c.956 0 2.099.312 2.451 0 .352-.313.729-.57 1.643-.57s1.212-.45 1.827-.665c.614-.215-.292.24 1.086-.348s1.908-.921 1.908-.921"/></g></g></g><rect width="23" height="17" x=".5" y=".5" stroke="#000" stroke-opacity=".1" rx="1.5"/><defs><clipPath id="a"><rect width="24" height="18" fill="#fff" rx="2"/></clipPath></defs></svg>