<svg xmlns="http://www.w3.org/2000/svg" fill="none" viewBox="0 0 24 18"><g clip-path="url(#a)"><mask id="b" width="24" height="18" x="0" y="0" maskUnits="userSpaceOnUse" style="mask-type:luminance"><path fill="#fff" d="M0 0h24v18H0z"/></mask><g mask="url(#b)"><path fill="#4C67E8" fill-rule="evenodd" d="M7.5 0h9v18h-9V0Z" clip-rule="evenodd"/><path fill="#C51918" fill-rule="evenodd" d="M16.5 0H24v18h-7.5V0ZM0 0h9v18H0V0Z" clip-rule="evenodd"/><path fill="#F8D000" fill-rule="evenodd" d="M4.51 5.163c-.76 0-.66-.74-.66-.74l.36-.779v.779c0 .1.137-.1.137-.341 0-.241.163-.602.163-.602s.007-.12.011-.24a.706.706 0 0 0 .159.195l.044.045c.094.096.08.35.07.571-.01.2-.018.372.055.372.154 0 .143-.69.143-.69l.258.69s.02.74-.74.74Zm0-2.115c.02-.113.017.038.011.192a.327.327 0 0 1-.01-.192Zm1.144 3.465c0 .602-.504 1.09-1.125 1.09s-1.125-.488-1.125-1.09c0-.602.504-1.09 1.125-1.09s1.125.488 1.125 1.09Zm-2.827 2.04H1.5v6.429h1.327V8.553Zm4.673 0H6.173v6.429H7.5V8.553Zm-4.327.056 1.294.801 1.458-.8H3.173ZM4.467 15l-1.294-.8h2.752l-1.458.8ZM3.173 9.671h2.712v.503H3.173v-.503Zm2.712 3.745H3.173v.504h2.712v-.504Zm-1.327-.279c.764 0 1.384-.6 1.384-1.342 0-.74-.62-1.341-1.384-1.341-.765 0-1.385.6-1.385 1.341s.62 1.342 1.385 1.342ZM3.002 6.912s.047 1.4 1.427 1.4c1.38 0 1.604-1.4 1.604-1.4s-.535.858-1.516.858c-.98 0-1.515-.858-1.515-.858Z" clip-rule="evenodd"/><path fill="#C51918" d="m4.769 10.48.062-.276c.31.338.45.528.383.838-.074.346-.462.732-.914 1.05-.273.192-.44.711-.305.876l-.13.236c-.302-.368-.06-1.063.357-1.356.383-.27.65-.553.698-.775.03-.145.087-.334-.151-.594Z"/><path fill="#C51918" fill-rule="evenodd" d="M4.875 12.75a.375.375 0 1 0 0-.75.375.375 0 0 0 0 .75Zm-.843-1.012a.375.375 0 1 0 0-.75.375.375 0 0 0 0 .75Z" clip-rule="evenodd"/></g></g><path stroke="#000" stroke-opacity=".1" stroke-width=".5" d="M.25.25h23.5v17.5H.25z"/><defs><clipPath id="a"><path fill="#fff" d="M0 0h24v18H0z"/></clipPath></defs></svg>