<svg xmlns="http://www.w3.org/2000/svg" fill="none" viewBox="0 0 24 18"><g clip-path="url(#a)"><path fill="#19BFBF" d="M0 0h24v18H0z"/><path fill="#fff" fill-rule="evenodd" d="M12 14.971A6.286 6.286 0 1 0 12 2.4a6.286 6.286 0 0 0 0 12.571m5.111-5.714a5.15 5.15 0 0 1-3.21 4.209c.557-1.135.882-2.613.945-4.209zm-5.11 4.572q.165 0 .33-.01c.784-.93 1.288-2.634 1.371-4.562h-3.404c.084 1.928.587 3.632 1.372 4.561q.164.01.33.01m-1.901-.363a5.15 5.15 0 0 1-3.211-4.209h2.265c.063 1.596.388 3.074.946 4.209m.198-5.352h3.404c-.083-1.927-.587-3.631-1.371-4.56a5 5 0 0 0-.661 0c-.785.929-1.288 2.633-1.372 4.56M10.1 3.905c-.558 1.135-.883 2.614-.946 4.21H6.89a5.15 5.15 0 0 1 3.21-4.21m7.012 4.21h-2.266c-.063-1.596-.388-3.075-.945-4.21a5.15 5.15 0 0 1 3.21 4.21" clip-rule="evenodd"/></g><rect width="23" height="17" x=".5" y=".5" stroke="#000" stroke-opacity=".1" rx="1.5"/><defs><clipPath id="a"><rect width="24" height="18" fill="#fff" rx="2"/></clipPath></defs></svg>