<svg xmlns="http://www.w3.org/2000/svg" fill="none" viewBox="0 0 24 18"><g clip-path="url(#a)"><mask id="b" width="24" height="18" x="0" y="0" maskUnits="userSpaceOnUse" style="mask-type:luminance"><path fill="#fff" d="M0 0h24v18H0z"/></mask><g mask="url(#b)"><path fill="#F7FCFF" fill-rule="evenodd" d="M0 0v18h24V0z" clip-rule="evenodd"/><mask id="c" width="24" height="18" x="0" y="0" maskUnits="userSpaceOnUse" style="mask-type:luminance"><path fill="#fff" fill-rule="evenodd" d="M0 0v18h24V0z" clip-rule="evenodd"/></mask><g mask="url(#c)"><path fill="#FECA00" fill-rule="evenodd" d="M0 0v6h24V0z" clip-rule="evenodd"/><path fill="#093" fill-rule="evenodd" d="M0 12v6h24v-6z" clip-rule="evenodd"/><path fill="#272727" stroke="#fff" stroke-width="2" d="M25 5v8H-1V5z"/></g><path fill="#F50100" fill-rule="evenodd" d="M0 0v18l13.5-9z" clip-rule="evenodd"/><mask id="d" width="14" height="18" x="0" y="0" maskUnits="userSpaceOnUse" style="mask-type:luminance"><path fill="#fff" fill-rule="evenodd" d="M0 0v18l13.5-9z" clip-rule="evenodd"/></mask><g mask="url(#d)"><path fill="#FECA00" fill-rule="evenodd" d="m6.052 10.765-2.835 2.288 1.3-3.058-2.233-2.15H4.92L6.002 5.25l1.15 2.594h2.632L7.432 9.995l1.177 3.058z" clip-rule="evenodd"/><path fill="#F7FCFF" fill-rule="evenodd" d="m4.617 8.988-.48 1.606s1.622-.017 1.817.147c.587-.366 1.796-.147 1.796-.147l-.643-1.719s-.815-.369-1.153-.166c-.828-.188-1.337.28-1.337.28" clip-rule="evenodd"/><path fill="#000" d="M8.673 11.412a.375.375 0 1 1-.6.451L4.94 7.7a.375.375 0 0 1 .599-.451z"/><path fill="#000" fill-rule="evenodd" d="m4.204 7.022-.907 1.451.454.785 1.036-1.54.187-.477-.187-.22zM3.03 11.331l.436.617 3.372-3.99.14.157.777-.732 1.242-1.35-1.242 1.014-.402-.111-.375.59H6.6l-2.754 3.066z" clip-rule="evenodd"/></g></g></g><rect width="23" height="17" x=".5" y=".5" stroke="#000" stroke-opacity=".1" rx="1.5"/><defs><clipPath id="a"><rect width="24" height="18" fill="#fff" rx="2"/></clipPath></defs></svg>