<svg xmlns="http://www.w3.org/2000/svg" fill="none" viewBox="0 0 24 18"><g clip-path="url(#a)"><path fill="#19BFBF" d="M0 0h24v18H0z"/><path fill="#fff" fill-rule="evenodd" d="M11.54 2.971a.33.33 0 0 0-.2.067L9.197 4.645a.3.3 0 0 1-.12.057l-2.184.546a.3.3 0 0 0-.068.025L4.67 6.35a.33.33 0 0 0-.15.15L3.516 8.512a.33.33 0 0 0 .021.334l.98 1.469a.34.34 0 0 1 .056.185v1.475c0 .089.035.173.097.236l.875.875a.33.33 0 0 0 .385.063l3.144-1.572a.3.3 0 0 1 .149-.035h2.086c.078 0 .153.027.213.077l3.243 2.703c.06.05.136.077.214.077h1.987a.33.33 0 0 0 .277-.149l2.13-3.196a.33.33 0 0 0 .057-.184V8.787q-.001-.1-.056-.185l-2.23-3.345-1.617-2.695a.33.33 0 0 0-.286-.162h-.332a.258.258 0 0 0-.182.44.26.26 0 0 1 .048.298l-.396.792a.33.33 0 0 1-.298.184h-1.303a.33.33 0 0 1-.298-.184l-.387-.774a.33.33 0 0 0-.298-.185zm5.032 12h-1.143l.335.336c.13.13.342.13.472 0z" clip-rule="evenodd"/></g><rect width="23" height="17" x=".5" y=".5" stroke="#000" stroke-opacity=".1" rx="1.5"/><defs><clipPath id="a"><rect width="24" height="18" fill="#fff" rx="2"/></clipPath></defs></svg>