<svg xmlns="http://www.w3.org/2000/svg" fill="none" viewBox="0 0 24 18"><g clip-path="url(#a)"><mask id="b" width="24" height="18" x="0" y="0" maskUnits="userSpaceOnUse" style="mask-type:luminance"><path fill="#fff" d="M0 0h24v18H0z"/></mask><g fill-rule="evenodd" clip-rule="evenodd" mask="url(#b)"><path fill="#55BA07" d="M0 12h24v6H0v-6Z"/><path fill="#F7FCFF" d="M0 6h24v6H0V6Z"/><path fill="#3D58DB" d="M0 0h24v6H0V0Z"/><path fill="#1D1D1D" d="M11.438 6.18c-.393.105-.6.376-.6.856 0 .548.27 1.062.6 1.327V6.18Zm.937 2.168c.32-.269.579-.773.579-1.31 0-.466-.204-.736-.579-.848v2.158ZM12.343 5.8c.614.137 1.058.555 1.058 1.234 0 .494-.235 1.094-.599 1.506l1.825 1.79.45-.148.673 1.02s-1.7.799-3.8.799c-2.1 0-3.7-.799-3.7-.799l.572-.871.463.151 1.693-1.91c-.38-.413-.627-1.032-.627-1.538 0-.703.476-1.127 1.123-1.247a.469.469 0 0 1 .87.013Zm-3.342 4.923-.19.265h.37l-.18-.265Zm.217.369-.327.066.327.114v-.18Zm.167-.38.167.39.415-.114-.082-.157-.5-.12Zm.903.777-.61-.12-.07-.117.46-.1.22.337Zm.035-.558.19.34.416-.126-.116-.153-.49-.061Zm.342.626-.075-.14.461-.124.266.325-.652-.06Zm.86-.234.595-.157-.073-.135h-.771l.25.292Zm.214.3-.095-.145.571-.187.303.333h-.78Zm.722-.581.182.223.495-.171-.062-.117-.615.065Zm1.072.464-.664.074-.098-.165.503-.165.26.256Zm-.042-.572.186.229.447-.23-.124-.068-.509.069Zm.386.511-.08-.124.424-.255.216.255-.56.124Zm.422-.712.27.257.261-.257-.083-.104-.448.104Zm.427.346.22-.218.158.218-.378.121v-.121Z"/></g></g><path stroke="#000" stroke-opacity=".1" stroke-width=".5" d="M.25.25h23.5v17.5H.25z"/><defs><clipPath id="a"><path fill="#fff" d="M0 0h24v18H0z"/></clipPath></defs></svg>