<svg xmlns="http://www.w3.org/2000/svg" fill="none" viewBox="0 0 24 18"><g clip-path="url(#a)"><mask id="b" width="24" height="18" x="0" y="0" maskUnits="userSpaceOnUse" style="mask-type:luminance"><path fill="#fff" d="M0 0h24v18H0z"/></mask><g mask="url(#b)"><path fill="#2E42A5" fill-rule="evenodd" d="M0 0v18h24V0z" clip-rule="evenodd"/><mask id="c" width="24" height="18" x="0" y="0" maskUnits="userSpaceOnUse" style="mask-type:luminance"><path fill="#fff" fill-rule="evenodd" d="M0 0v18h24V0z" clip-rule="evenodd"/></mask><g mask="url(#c)"><path fill="#E31D1C" fill-rule="evenodd" d="M0 9v9h24V9z" clip-rule="evenodd"/><path fill="#fff" d="M7.5 6h9v6h-9z"/><mask id="d" width="10" height="6" x="7" y="6" maskUnits="userSpaceOnUse" style="mask-type:luminance"><path fill="#fff" d="M7.5 6h9v6h-9z"/></mask><g mask="url(#d)"><path fill="#279E19" fill-rule="evenodd" d="M7.5 10.933s2.16-.568 4.5-.533 4.5.667 4.5.667V12h-9z" clip-rule="evenodd"/><path stroke="#026A16" stroke-width=".5" d="M12.055 6.676s-.698-.315-1.185-.315-.759.48-.759.48"/><path stroke="#026A16" stroke-width=".5" d="M12.21 6.991s-.642-.23-1.09-.23-.698.351-.698.351"/><path stroke="#026A16" stroke-width=".5" d="M12.21 7.258s-.475-.23-.807-.23-.516.35-.516.35"/><path stroke="#026A16" stroke-width=".5" d="M12.015 7.524s-.293-.23-.498-.23-.32.351-.32.351"/><path stroke="#026A16" stroke-width=".5" d="M11.99 7.706s-.117-.145-.2-.145c-.081 0-.127.222-.127.222m.282-1.107s.698-.315 1.185-.315.759.48.759.48"/><path stroke="#026A16" stroke-width=".5" d="M11.79 6.991s.642-.23 1.09-.23.698.351.698.351"/><path stroke="#026A16" stroke-width=".5" d="M11.79 7.258s.475-.23.807-.23.516.35.516.35"/><path stroke="#026A16" stroke-width=".5" d="M11.985 7.524s.293-.23.498-.23.32.351.32.351"/><path stroke="#026A16" stroke-width=".5" d="M12.01 7.706s.117-.145.2-.145c.081 0 .127.222.127.222"/><path fill="#FECA00" fill-rule="evenodd" d="M11.916 7.799s-.086 1.003-.086 1.41c0 .41.086 1.29.086 1.29h.22v-1.29c0-.34-.13-1.41-.13-1.41z" clip-rule="evenodd"/><path fill="#C51918" fill-rule="evenodd" d="M11.049 8.939s-.543.29-.543 1.151l.543 1.04h.98V9.417z" clip-rule="evenodd"/><path fill="#0A328C" fill-rule="evenodd" d="M10.244 8.12s-1.268.375-1.268 1.761l1.643.14s-.09-.805.416-1.177z" clip-rule="evenodd"/><path stroke="#FFD018" stroke-width=".5" d="m9.72 7.59 2.176 1.994M8.965 8.042 12 10.012M8.443 8.805l3.42 1.564"/><path fill="#FECA00" fill-rule="evenodd" d="m8.985 9.87 2.27.254-.129.317h-.36l.246.178.552.13v-.308h.484v.654h-1.036l-.398-.476s-.334.33-.66.33c-.325 0-.647-.107-.647-.466v-.25l-.322-.11z" clip-rule="evenodd"/><path fill="#C51918" fill-rule="evenodd" d="M12.64 8.939s.544.29.544 1.151l-.543 1.04h-.98V9.417z" clip-rule="evenodd"/><path fill="#0A328C" fill-rule="evenodd" d="M13.445 8.12s1.268.375 1.268 1.761l-1.643.14s.09-.805-.415-1.177z" clip-rule="evenodd"/><path fill="#FECA00" fill-rule="evenodd" d="m14.705 9.87-2.27.254.128.317h.36l-.245.178-.553.13v-.308h-.484v.654h1.037l.397-.476s.334.33.66.33.647-.107.647-.466v-.25l.323-.11z" clip-rule="evenodd"/></g></g></g></g><rect width="23" height="17" x=".5" y=".5" stroke="#000" stroke-opacity=".1" rx="1.5"/><defs><clipPath id="a"><rect width="24" height="18" fill="#fff" rx="2"/></clipPath></defs></svg>