<svg xmlns="http://www.w3.org/2000/svg" fill="none" viewBox="0 0 24 18"><g clip-path="url(#a)"><mask id="b" width="24" height="18" x="0" y="0" maskUnits="userSpaceOnUse" style="mask-type:luminance"><path fill="#fff" d="M0 0h24v18H0z"/></mask><g mask="url(#b)"><path fill="#2E42A5" fill-rule="evenodd" d="M0 0v18h24V0z" clip-rule="evenodd"/><mask id="c" width="24" height="18" x="0" y="0" maskUnits="userSpaceOnUse" style="mask-type:luminance"><path fill="#fff" fill-rule="evenodd" d="M0 0v18h24V0z" clip-rule="evenodd"/></mask><g mask="url(#c)"><path fill="#F7FCFF" fill-rule="evenodd" d="M14.092 4.65h6.036l-.588 1.128h-1.831v.606h1.404l-.572 1.05h-.832v2.098l1.37-2.16 1.773 3.072h-.724l-.253-.337H18.27l-1.13 2.086.001.115-.031-.058-.032.058v-.115l-1.128-2.086h-1.605l-.253.337h-.725l1.774-3.071 1.37 2.16V5.777H14.68zm5.022 3.982-.394.606h.746zm-4.009 0 .394.606h-.745zm-2.87-.672.624-.46.623.46-.22-.77.605-.486-.76-.016-.248-.76-.25.76-.759.016.605.486zm9.107-.46-.624.46.22-.77-.605-.486.76-.016.249-.76.249.76.76.016-.606.486.22.77zm-2.532 5.852.623-.459.623.46-.22-.77.605-.486-.759-.017-.25-.76-.248.76-.76.017.605.486zm-4.043-.459-.623.46.22-.77-.605-.486.759-.017.25-.76.249.76.759.017-.605.486.22.77zm1.71 2.257.623-.46.623.46-.22-.77.606-.486-.76-.016-.249-.76-.25.76-.758.016.605.486z" clip-rule="evenodd"/><path fill="#2E42A5" stroke="#fff" d="M-.5-.5h10V8h-10z"/><mask id="d" width="11" height="10" x="-1" y="-1" maskUnits="userSpaceOnUse" style="mask-type:luminance"><path fill="#fff" stroke="#fff" d="M-.5-.5h10V8h-10z"/></mask><g fill-rule="evenodd" clip-rule="evenodd" mask="url(#d)"><path fill="#F50100" d="M6 0h3v7.5H6z"/><path fill="#2E42A5" d="M0 0h3v7.5H0z"/><path fill="#F7FCFF" d="M3 0h3v7.5H3z"/></g></g></g></g><rect width="23" height="17" x=".5" y=".5" stroke="#000" stroke-opacity=".1" rx="1.5"/><defs><clipPath id="a"><rect width="24" height="18" fill="#fff" rx="2"/></clipPath></defs></svg>