<svg xmlns="http://www.w3.org/2000/svg" fill="none" viewBox="0 0 24 18"><g clip-path="url(#a)"><mask id="b" width="24" height="18" x="0" y="0" maskUnits="userSpaceOnUse" style="mask-type:luminance"><path fill="#fff" d="M0 0h24v18H0z"/></mask><g mask="url(#b)"><path fill="#73BE4A" fill-rule="evenodd" d="M0 0h24v18H0z" clip-rule="evenodd"/><path fill="#AF0100" fill-rule="evenodd" d="M0 0v12h24V0z" clip-rule="evenodd"/><path fill="#F7FCFF" d="M0 0h4.5v18H0z"/><path fill="#B20000" fill-rule="evenodd" d="M.333 1.677 1.423.043l1.06 1.634-1.06 1.56zm1.085.892.611-.897-.61-.94-.627.94zm.082-1.02h-.188v.386H1.5zM.853 3.14l-.52.742.52.71.506-.71zm.243.755-.234.318-.237-.337.236-.349zm.882-.755-.52.742.52.71.506-.71zm.243.755-.234.318-.237-.337.236-.349z" clip-rule="evenodd"/><path fill="#B20000" fill-rule="evenodd" d="m2.728 3.14-.52.742.52.71.506-.71zm.243.755-.234.318-.237-.337.236-.349zm.882-.755-.52.742.52.71.506-.71zm.243.755-.234.318-.237-.337.236-.349zM2.208 1.677 3.298.043l1.06 1.634-1.06 1.56zm1.085.892.611-.897-.61-.94-.627.94zm.082-1.02h-.188v.386h.188z" clip-rule="evenodd"/><path fill="#B20000" d="M1.242 9.305.028 7.265l.32-.202.88 1.478 1.074-1.974 1.1 1.979.778-1.291.319.204-1.11 1.84-1.084-1.948z"/><path fill="#B20000" fill-rule="evenodd" d="M.563.387h.201v.387H.563zM2.25 0h.202v.387H2.25zm1.688.387h.201v.387h-.202zM.563 2.71H.75v.387H.563zm1.687 0h.188v.387H2.25zm1.875 0h-.187v.387h.187zM.563 4.645H.75v.387H.563zm1.687 0h.188v.387H2.25zm1.875 0h-.187v.387h.187z" clip-rule="evenodd"/><path fill="#B20000" fill-rule="evenodd" d="m1.656 6.716-.498.726-.785-1.415L1.407 4.41l.89 1.41.89-1.41 1.035 1.617-.786 1.415-.498-.726.393-.818-.144-.332-.84 1.363v.161l-.05-.08-.05.08v-.16l-.84-1.363-.144.332zm.594 1.219h.188v.388H2.25zm0 1.936h.188v.387H2.25zm0-1.355h-.187v.387h.187v.194h-.187v.387h.187V9.29h.188v.194h.187v-.387h-.187v-.194h.187v-.387h-.187v.387H2.25zm-.562.387h.187v.387h-.187zm1.312 0h-.187v.387H3zm-2.625 0h.188v.387H.375zm3.938 0h-.188v.387h.188zm-3.98 7.42 1.09 1.634 1.06-1.634-1.06-1.56zm1.085-.892.611.897-.61.94-.627-.94zm.082 1.02h-.188v-.387H1.5zM.853 14.86l-.52-.742.52-.71.506.71zm.243-.755-.234-.318-.237.337.236.349zm.882.755-.52-.742.52-.71.506.71zm.243-.755-.234-.318-.237.337.236.349z" clip-rule="evenodd"/><path fill="#B20000" fill-rule="evenodd" d="m2.728 14.86-.52-.742.52-.71.506.71zm.243-.755-.234-.318-.237.337.236.349zm.882.755-.52-.742.52-.71.506.71zm.243-.755-.234-.318-.237.337.236.349zm-1.888 2.218 1.09 1.634 1.06-1.634-1.06-1.56zm1.085-.892.611.897-.61.94-.627-.94zm.082 1.02h-.188v-.387h.188z" clip-rule="evenodd"/><path fill="#B20000" d="m1.242 8.695-1.214 2.04.32.202.88-1.478 1.074 1.974 1.1-1.979.778 1.291.319-.204-1.11-1.84-1.084 1.948z"/><path fill="#B20000" fill-rule="evenodd" d="M.563 17.613h.201v-.387H.563zM2.25 18h.202v-.387H2.25zm1.688-.387h.201v-.387h-.202zM.563 15.29H.75v-.387H.563zm1.687 0h.188v-.387H2.25zm1.875 0h-.187v-.387h.187zM.563 13.355H.75v-.387H.563zm1.687 0h.188v-.387H2.25zm1.875 0h-.187v-.387h.187z" clip-rule="evenodd"/><path fill="#B20000" fill-rule="evenodd" d="m1.656 11.395-.498-.726-.785 1.415L1.407 13.7l.89-1.41.89 1.41 1.035-1.617-.786-1.415-.498.726.393.817-.144.333-.84-1.363v-.162l-.05.081-.05-.08v.16l-.84 1.364-.144-.333z" clip-rule="evenodd"/></g></g><rect width="23" height="17" x=".5" y=".5" stroke="#000" stroke-opacity=".1" rx="1.5"/><defs><clipPath id="a"><rect width="24" height="18" fill="#fff" rx="2"/></clipPath></defs></svg>