<svg xmlns="http://www.w3.org/2000/svg" fill="none" viewBox="0 0 24 18"><g clip-path="url(#a)"><mask id="b" width="24" height="18" x="0" y="0" maskUnits="userSpaceOnUse" style="mask-type:luminance"><path fill="#fff" d="M0 0h24v18H0z"/></mask><g mask="url(#b)"><path fill="#2E42A5" fill-rule="evenodd" d="M0 0v18h24V0H0Z" clip-rule="evenodd"/><mask id="c" width="24" height="18" x="0" y="0" maskUnits="userSpaceOnUse" style="mask-type:luminance"><path fill="#fff" fill-rule="evenodd" d="M0 0v18h24V0H0Z" clip-rule="evenodd"/></mask><g mask="url(#c)"><path fill="#FECA00" fill-rule="evenodd" stroke="#F7FCFF" stroke-width=".5" d="M15.785 7.525s.665 8.948 3.662 8.948 3.734-8.948 3.734-8.948h-7.396Z" clip-rule="evenodd"/><path fill="#CF6900" fill-rule="evenodd" d="m19.434 7.966.11-.124.52.332c.076-.117.21-.172.398-.163l-.19-.289.155-.082.36.434.035.01-.09-.563.18-.021.119.73h.008c.051 0 .109.025.168.064l.128-.794.181.021-.09.564.035-.011.36-.434.155.082-.19.29c.188-.01.322.045.397.162l.52-.332.11.124-.57.364a.727.727 0 0 1 .011.135v.085l.788-.173.058.147-.846.3v.102l.803-.065.024.153-.827.12v.177l.829.137-.034.153-.795-.12v1.725h-.122V9.463l-.533-.08c-.06.422-.127.953-.118 1.145.01.19.151.27.25.328.078.044.13.074.074.128-.128.125-.447.245-.766.245s-.634-.12-.702-.245c-.012-.022-.01-.02 0-.008.05.058.3.344.32-.448a4.34 4.34 0 0 0-.127-1.127l-.415.062v1.742h-.122V9.482l-.795.119-.033-.153.828-.137v-.176l-.826-.12.024-.154.802.065v-.103l-.846-.3.058-.146.788.173v-.085c0-.049.004-.094.012-.135l-.571-.364Zm1.043 1.239.007.025-.369.061v-.139l.362.053Zm.008-.57a1.812 1.812 0 0 0-.017.019l-.353-.078v-.11c0-.023 0-.044.003-.064l.367.234Zm.234-.231a2.273 2.273 0 0 0-.12.111l-.436-.278c.062-.106.182-.145.37-.117l.186.284Zm.802.192.563-.359c-.061-.106-.182-.145-.37-.117l-.26.398c.023.026.046.052.067.078Zm.19.073.419-.267c.002.02.002.041.002.063v.111l-.42.093Zm.169.287.252-.09v.07l-.252.02Zm-.195.261.447-.065v.14l-.447-.075Zm-1.57-.35v.069l.253.02-.253-.09Z" clip-rule="evenodd"/><path fill="#00A727" fill-rule="evenodd" d="M18.659 11.882s-.986 1.65-.986 2.65c0 0 .672.533 1.827.533 1.154 0 1.748-.533 1.748-.533-.325-1.185-.878-2.65-.878-2.65h-1.711Z" clip-rule="evenodd"/><path fill="#E31D1C" fill-rule="evenodd" d="M18.706 11.426a.823.823 0 1 1 1.646 0v.563h-1.646v-.563Z" clip-rule="evenodd"/><path fill="#FF927F" fill-rule="evenodd" d="M16.14 9.625s1.3.268 1.3.69c0 .423.524.575.652.461.129-.114 1.035-.194 1.035-.745 0-.55.076-.7-.144-1.05-.22-.35-.68-1.531-.785-1.058-.106.474-.265.824-.558.542-.294-.282-.671-.88-.804-.542-.132.338.42.677 0 .677s-.123.022-.123.308.05.556-.262.556c-.311 0-.311.161-.311.161Z" clip-rule="evenodd"/><path fill="#2B409A" d="M-4-3h18v14H-4z"/><mask id="d" width="18" height="14" x="-4" y="-3" maskUnits="userSpaceOnUse" style="mask-type:luminance"><path fill="#fff" d="M-4-3h18v14H-4z"/></mask><g mask="url(#d)"><path fill="#F7FCFF" d="m-6.004 10 3.96 1.737L14.09-1.111l2.09-2.582-4.237-.58-6.58 5.536-5.296 3.73L-6.004 10Z"/><path fill="#F50100" d="m-5.462 11.217 2.018 1.008L15.429-3.933h-2.833l-18.058 15.15Z"/><path fill="#F7FCFF" d="m16.004 10-3.961 1.737L-4.09-1.111l-2.09-2.582 4.236-.58 6.58 5.536 5.297 3.73L16.003 10Z"/><path fill="#F50100" d="m15.869 10.873-2.018 1.009-8.037-6.918-2.382-.773-9.813-7.875h2.834L6.26 4.004l2.605.927 7.004 5.942Z"/><mask id="e" width="22" height="18" x="-6" y="-5" fill="#000" maskUnits="userSpaceOnUse"><path fill="#fff" d="M-6-5h22v18H-6z"/><path fill-rule="evenodd" d="M5.985-3h-2v6H-4v2h7.985v6h2V5H14V3H5.985v-6Z" clip-rule="evenodd"/></mask><path fill="#F50100" fill-rule="evenodd" d="M5.985-3h-2v6H-4v2h7.985v6h2V5H14V3H5.985v-6Z" clip-rule="evenodd"/><path fill="#F7FCFF" d="M3.985-3v-1.5h-1.5V-3h1.5Zm2 0h1.5v-1.5h-1.5V-3Zm-2 6v1.5h1.5V3h-1.5ZM-4 3V1.5h-1.5V3H-4Zm0 2h-1.5v1.5H-4V5Zm7.985 0h1.5V3.5h-1.5V5Zm0 6h-1.5v1.5h1.5V11Zm2 0v1.5h1.5V11h-1.5Zm0-6V3.5h-1.5V5h1.5ZM14 5v1.5h1.5V5H14Zm0-2h1.5V1.5H14V3ZM5.985 3h-1.5v1.5h1.5V3Zm-2-4.5h2v-3h-2v3Zm1.5 4.5v-6h-3v6h3ZM-4 4.5h7.985v-3H-4v3Zm1.5.5V3h-3v2h3Zm6.485-1.5H-4v3h7.985v-3Zm1.5 7.5V5h-3v6h3Zm.5-1.5h-2v3h2v-3ZM4.485 5v6h3V5h-3ZM14 3.5H5.985v3H14v-3ZM12.5 3v2h3V3h-3ZM5.985 4.5H14v-3H5.985v3ZM4.485-3v6h3v-6h-3Z" mask="url(#e)"/></g></g></g></g><rect width="23" height="17" x=".5" y=".5" stroke="#000" stroke-opacity=".1" rx="1.5"/><defs><clipPath id="a"><rect width="24" height="18" fill="#fff" rx="2"/></clipPath></defs></svg>