<svg xmlns="http://www.w3.org/2000/svg" fill="none" viewBox="0 0 24 18"><g clip-path="url(#a)"><mask id="b" width="24" height="18" x="0" y="0" maskUnits="userSpaceOnUse" style="mask-type:luminance"><path fill="#fff" d="M0 0h24v18H0z"/></mask><g mask="url(#b)"><path fill="#FECA00" fill-rule="evenodd" d="M0 0h24v18H0V0Z" clip-rule="evenodd"/><path fill="#1F8A6E" d="M1.5 1.5H6v15H1.5z"/><path fill="#F56800" d="M6 1.5h4.5v15H6z"/><path fill="#B01D00" d="M10.5 1.5h12v15h-12z"/><path fill="#E8AA00" d="M9 1.5h1.5v15H9z"/><path fill="#FECA00" fill-rule="evenodd" d="M12.825 4.63s-.955-.003-.955 1.66v2.44s-.455.08-.455.363.097.53.276.53c.18 0 .358.829.18.829-.18 0-.36.355-.18.355a.539.539 0 0 0 .1-.01c.08-.014.08-.014.08.232 0 .323-.18.453-.18.453s-.169-.047-.169.143.169.238.169.238.096.042-.09.132-.186.134-.186.134h.455l.228.416.217-.416h.449s-.226-.145-.252-.175c-.027-.03-.06-.075 0-.126a.289.289 0 0 1 .068-.038c.066-.03.142-.064.142-.165 0-.143-.287-.143-.287-.143s-.175-.316-.12-.453a.785.785 0 0 0 .032-.103c.019-.075.03-.119.124-.119.13 0 .205-.164.04-.355 0 0 .19.203.134.467-.056.263.058.383.119.383.061 0 .159-.091.159-.091s.51.456.733.456c.224 0 .545-.365.545-.365l.461.258s.338.473.288.798c-.05.325-.242.506-.468.456-.226-.05-.595.053-.623.193l-.017.075c-.039.16-.097.398.08.339.21-.07.25-.122.25-.122s-.027.122.141.122c.169 0 .217-.122.217-.122s.175.122.298.122c.122 0 .26-.094.26-.094s.09.14.29.094c.2-.046.35-.567.205-.684 0 0 .483-.07.606-.49 0 0-.466-.006-.418-.293.048-.287.294-.472.294-.472s.71-.343 1.015-.453c.305-.11.812-.222.938-.222.051 0 .088.12.137.282.072.235.172.561.385.74.359.3.114.985.114.985s-.798.08-.798.297c0 .216.012.31.162.31s.146-.122.146-.122.09.122.233.122c.143 0 .257-.122.257-.122s.038.122.226.122.186-.122.186-.122.034.122.2.122c.165 0 .505-.122.505-.122s.053.122.224.122c.172 0 .176-.122.176-.122s.092.122.241.122.236-.122.236-.122.214.122.362.122c.147 0 .094-.22 0-.414-.024-.049-.052-.09-.077-.129-.075-.112-.129-.193-.002-.333.036-.04.077-.08.118-.12.153-.149.308-.299.195-.43-.034-.039-.073-.066-.113-.094-.129-.09-.26-.18-.2-.69a4.94 4.94 0 0 1 .169-.783c.075-.271.143-.518.143-.805 0-.53-.312-1.135-.312-1.135s.42-.294.42-.892c0-.598-.939-.663-.939-.663s-.934.24-1.346.12a5.798 5.798 0 0 0-.235-.063c-.223-.056-.291-.073-.291-.227 0-.199-.3.17-.3.17s-.235-.095-.075-.29c.16-.195.232-.272.232-.272s-.141-.16-.379-.08c-.238.08-.28.213-.28.213s-.271-.277-.102-.479c.169-.201.382 0 .382 0s.243.127.262-.04c.02-.166 0-.298 0-.298s.61.174.437.446c-.172.272-.063.371-.063.371s.419.026.494-.263a.61.61 0 0 0 .003-.298c.12.057.257.124.22.236-.07.205-.223.464-.223.464s.418-.025.543-.352c.125-.328.08.08.08.08s.16-.006.4.133c.241.139 0-.213 0-.213s.5.619.972.545c.473-.073.446-.465.446-.465s-.112-.192-.345-.192c-.234 0-.1.192-.1.192s.227.13-.134 0c-.105-.038-.261-.159-.455-.31-.476-.37-1.178-.915-1.901-.831-1.018.117-1.373.572-1.373.572v-.378s-.171.263-.331.263-.602-.263-.602-.263l-.283.263s-.106-.263-.294-.263-.188.263-.188.263-.236-.116-.495-.116a.666.666 0 0 1-.267-.07c-.1-.042-.159-.067-.159.07l.002.08c.004.184.007.3-.262.335-.306.04-.543.04-.543.04s-.183-.224-.325-.224c-.143 0-.308.173-.308.331 0 .158.184.607.307.704.033.025.027.022 0 .01-.073-.034-.307-.142-.307.086 0 .156.039.196.067.224.028.028.046.046.009.151a2.961 2.961 0 0 1-.06.148c-.086.205-.186.444-.016.444.092 0 .179-.02.24-.035.083-.02.12-.028.068.035-.022.025-.05.055-.08.085-.098.103-.199.21-.024.129.092-.043.17-.104.234-.155.093-.074.158-.125.195-.06.024.042.005.097-.011.144-.027.079-.047.136.15.07a.783.783 0 0 0 .132-.053c0 .013.011.03.042.054.067.048.054.094.044.13-.01.039-.018.065.097.065.11 0 .266-.086.359-.136.089-.05.119-.066-.01.06-.08.079-.197.131-.327.19-.289.13-.642.29-.802.831-.215.732-.119.882-.104.9l-.665-.728s.159-.124.159-.333c0-.208-.412-.363-.412-.363s.015-2.593.134-3.16c.119-.565.18-.94.18-.94Zm1.326 3.406a.023.023 0 0 0-.021.024c.029-.016.028-.024.02-.024Zm5-2.093-.009-.004c-.097-.046-.18-.085-.148-.137.045-.072.123.004.157.14Zm.44 5.611s-.315.31-.115.377c.06.02.134.032.203.043.158.024.288.045.168.161-.171.168-.316.394-.316.6 0 .206.005.38.06.293.03-.048.155-.098.288-.152.11-.044.227-.09.303-.141.144-.095.142-.198.139-.383l-.002-.104c0-.252-.728-.694-.728-.694Zm-2.444-4.137c.074-.058.078-.778.078-.778s.258.085.258.198c0 .07-.02.11-.049.17-.018.037-.04.081-.062.144-.057.155.097.252.24.342l.033.02c.096.062.124-.072.145-.176.011-.057.021-.105.04-.105.052 0 .442.089.736.238.257.13.508.066 1.084-.08l.274-.07c.777-.192.88.097.959.325.08.228-.524.544-.959.6a2.718 2.718 0 0 1-.509.01c-.194-.009-.367-.017-.544.046-.277.098-1.144.088-1.482.085l-.107-.001c-.155 0-.185-.05-.244-.148a1.75 1.75 0 0 0-.053-.084c-.105-.155.023-.256.106-.256.082 0 .056-.182 0-.252-.057-.07-.017-.17.056-.228Zm-6.519-5.825v.27c0 .034-.014.08-.03.13-.051.162-.12.379.197.44.416.08.723.262.817.434.06.11.043-.073.023-.29a4.306 4.306 0 0 1-.023-.347c0-.266-.298-.783-.508-.637-.211.145-.476 0-.476 0Zm0 14.538v.271s.265-.146.476 0c.21.146.508-.371.508-.637 0-.095.012-.227.023-.348.02-.216.037-.4-.023-.29-.094.173-.4.355-.817.435-.317.061-.248.278-.197.44.016.05.03.096.03.13Zm11.749 0v.271s-.265-.146-.476 0c-.21.146-.508-.371-.508-.637 0-.095-.012-.227-.023-.348-.02-.216-.037-.4.023-.29.094.173.4.355.817.435.317.061.248.278.197.44a.502.502 0 0 0-.03.13Zm0-14.268v-.27s-.265.145-.476 0c-.21-.146-.508.371-.508.637 0 .095-.012.226-.023.348-.02.216-.037.4.023.289.094-.172.4-.354.817-.434.317-.061.248-.278.197-.44a.501.501 0 0 1-.03-.13Z" clip-rule="evenodd"/></g></g><path stroke="#000" stroke-opacity=".1" stroke-width=".5" d="M.25.25h23.5v17.5H.25z"/><defs><clipPath id="a"><path fill="#fff" d="M0 0h24v18H0z"/></clipPath></defs></svg>