<svg xmlns="http://www.w3.org/2000/svg" fill="none" viewBox="0 0 24 24"><path fill="#010427" d="M22.322 12c0-5.523-4.477-10-10-10s-10 4.477-10 10 4.477 10 10 10 10-4.477 10-10"/><path fill="#fff" d="M12.686 8.767V6.182c-3.316 0-6 2.714-6 5.909S9.37 18 12.686 18v-2.585c-1.77 0-3.375-1.108-3.375-3.324s1.605-3.324 3.374-3.324"/><path fill="#00DCD7" d="M16.324 9.008a1.48 1.48 0 0 1-1.039-.426 1.45 1.45 0 0 1-.43-1.028 1.44 1.44 0 0 1 .43-1.029 1.47 1.47 0 0 1 1.04-.426c.39 0 .763.153 1.039.426a1.447 1.447 0 0 1 0 2.057c-.276.273-.65.426-1.04.426"/><path fill="#FF318B" d="M16.324 18.083a1.48 1.48 0 0 1-1.039-.426 1.447 1.447 0 0 1 0-2.057 1.48 1.48 0 0 1 2.079 0 1.447 1.447 0 0 1 0 2.057c-.276.272-.65.426-1.04.426"/><path fill="#fff" d="M12.806 15.314V8.868c1.8 0 3.297 1.432 3.256 3.223.041 1.79-1.456 3.223-3.256 3.223"/></svg>