<svg xmlns="http://www.w3.org/2000/svg" fill="none" viewBox="0 0 24 24"><path fill="#010427" d="M22.322 12c0-5.523-4.477-10-10-10s-10 4.477-10 10 4.477 10 10 10 10-4.477 10-10Z"/><path fill="#fff" d="M12.685 8.767V6.182c-3.315 0-6 2.714-6 5.909 0 3.194 2.685 5.909 6 5.909v-2.585c-1.77 0-3.375-1.108-3.375-3.324 0-2.216 1.606-3.324 3.375-3.324Z"/><path fill="#00DCD7" d="M16.324 9.008a1.483 1.483 0 0 1-1.039-.426 1.452 1.452 0 0 1-.43-1.028 1.44 1.44 0 0 1 .43-1.029 1.47 1.47 0 0 1 1.04-.426c.39 0 .763.153 1.039.426a1.447 1.447 0 0 1 0 2.057c-.276.273-.65.426-1.04.426Z"/><path fill="#FF318B" d="M16.324 18.082a1.48 1.48 0 0 1-1.039-.425 1.447 1.447 0 0 1 0-2.057 1.478 1.478 0 0 1 2.079 0 1.447 1.447 0 0 1 0 2.057c-.276.272-.65.425-1.04.425Z"/><path fill="#fff" d="M12.806 15.314V8.868c1.8 0 3.297 1.432 3.256 3.223.04 1.79-1.456 3.223-3.256 3.223Z"/></svg>