<svg xmlns="http://www.w3.org/2000/svg" fill="none" viewBox="0 0 24 24"><path fill="#62757E" fill-rule="evenodd" d="M8.25 2.2a.8.8 0 0 1 .8.8v.7h2.15V3a.8.8 0 1 1 1.6 0v.7h2.15V3a.8.8 0 1 1 1.6 0v.7h.7a3.05 3.05 0 0 1 3.05 3.05v.7h.7a.8.8 0 0 1 0 1.6h-.7v2.15h.7a.8.8 0 1 1 0 1.6h-.7v2.15h.7a.8.8 0 1 1 0 1.6h-.7v.7a3.05 3.05 0 0 1-3.05 3.05h-.7v.7a.8.8 0 0 1-1.6 0v-.7H12.8v.7a.8.8 0 0 1-1.6 0v-.7H9.05v.7a.8.8 0 0 1-1.6 0v-.7h-.7a3.05 3.05 0 0 1-3.05-3.05v-.7H3a.8.8 0 0 1 0-1.6h.7V12.8H3a.8.8 0 0 1 0-1.6h.7V9.05H3a.8.8 0 1 1 0-1.6h.7v-.7A3.05 3.05 0 0 1 6.75 3.7h.7V3a.8.8 0 0 1 .8-.8m-1.5 3.1c-.8 0-1.45.65-1.45 1.45v10.5c0 .8.65 1.45 1.45 1.45h10.5c.8 0 1.45-.65 1.45-1.45V6.75c0-.8-.65-1.45-1.45-1.45zM6.7 7.5a.8.8 0 0 1 .8-.8h9a.8.8 0 0 1 .8.8v9a.8.8 0 0 1-.8.8h-9a.8.8 0 0 1-.8-.8zm1.6.8v7.4h7.4V8.3z" clip-rule="evenodd"/></svg>