<svg xmlns="http://www.w3.org/2000/svg" fill="none" viewBox="0 0 24 24"><circle cx="12" cy="12" r="7" fill="#fff"/><path fill="#69E2DC" fill-rule="evenodd" d="M12 2.008c-5.53 0-10 4.503-10 10.042 0 5.54 4.47 10.042 10 10.042 5.529 0 10-4.49 10-10.042 0-5.54-4.483-10.042-10-10.042Zm.804 10.516 3.506 3.52a.655.655 0 0 1 .194.518.67.67 0 0 1-.263.486 6.278 6.278 0 0 1-3.908 1.362c-3.735 0-6.724-3.255-6.287-7.087.322-2.943 2.701-5.31 5.643-5.598a6.334 6.334 0 0 1 4.587 1.339.64.64 0 0 1 .242.48.667.667 0 0 1-.196.501l-3.518 3.532a.65.65 0 0 0-.198.473.667.667 0 0 0 .198.474Z" clip-rule="evenodd"/></svg>