<svg xmlns="http://www.w3.org/2000/svg" fill="none" viewBox="0 0 24 24"><circle cx="12" cy="12" r="7" fill="#fff"/><path fill="#69E2DC" fill-rule="evenodd" d="M12 2.008C6.47 2.008 2 6.51 2 12.05s4.47 10.042 10 10.042c5.529 0 10-4.49 10-10.042 0-5.54-4.483-10.042-10-10.042m.804 10.516 3.506 3.52a.66.66 0 0 1 .194.518.67.67 0 0 1-.263.486 6.28 6.28 0 0 1-3.908 1.362c-3.735 0-6.724-3.255-6.287-7.087.322-2.943 2.701-5.31 5.643-5.598a6.33 6.33 0 0 1 4.587 1.339.64.64 0 0 1 .242.48.67.67 0 0 1-.196.501l-3.518 3.532a.65.65 0 0 0-.198.473.67.67 0 0 0 .198.474" clip-rule="evenodd"/></svg>