<svg xmlns="http://www.w3.org/2000/svg" fill="none" viewBox="0 0 72 48"><path fill="#fff" stroke="#E3E3E8" d="M4 .5h64A3.5 3.5 0 0 1 71.5 4v40a3.5 3.5 0 0 1-3.5 3.5H4A3.5 3.5 0 0 1 .5 44V4A3.5 3.5 0 0 1 4 .5Z"/><path fill="#000" fill-rule="evenodd" d="M61.801 19.126c2.21 0 3.425.987 3.425 2.85a2.664 2.664 0 0 1-2.21 2.85L66 28.88h-2.32l-2.542-3.946h-.22v3.946h-1.88v-9.755zm-.884 4.494h.553c1.215 0 1.768-.548 1.768-1.535 0-.876-.553-1.424-1.768-1.424h-.553zm-8.398 5.26h5.304v-1.643h-3.425v-2.63h3.315v-1.645h-3.315V20.77h3.425v-1.644H52.52zm-5.525-3.178-2.541-6.576h-1.989l4.088 9.974h.995l4.088-9.974h-1.989zm-22.43-1.644c0 2.74 2.21 5.042 4.972 5.042.884 0 1.657-.22 2.43-.548V26.36c-.552.658-1.325 1.096-2.21 1.096-1.767 0-3.204-1.315-3.204-3.069v-.22c-.11-1.753 1.326-3.287 3.094-3.397.884 0 1.768.439 2.32 1.096v-2.192c-.662-.438-1.546-.548-2.32-.548-2.873-.219-5.082 2.083-5.082 4.932m-3.426-1.205c-1.105-.439-1.436-.658-1.436-1.206.11-.658.663-1.206 1.326-1.096.552 0 1.105.329 1.547.767l.994-1.315c-.773-.658-1.768-1.096-2.762-1.096-1.547-.11-2.873 1.096-2.984 2.63v.11c0 1.315.553 2.083 2.32 2.63.443.11.885.33 1.327.549.331.219.552.547.552.986 0 .767-.663 1.425-1.326 1.425h-.11a2.18 2.18 0 0 1-1.99-1.315l-1.215 1.205c.663 1.206 1.99 1.863 3.315 1.863 1.768.11 3.205-1.205 3.315-2.959v-.329c-.11-1.315-.663-1.973-2.873-2.85M14.73 28.88h1.879v-9.755H14.73zM6 19.126h3.315c2.652.11 4.751 2.302 4.64 4.932 0 1.425-.662 2.74-1.767 3.727-.995.767-2.21 1.205-3.426 1.096H6zm2.431 8.11c.884.11 1.878-.218 2.541-.766.663-.658.995-1.535.995-2.521 0-.877-.332-1.754-.995-2.412-.663-.548-1.657-.876-2.541-.767h-.553v6.467z" clip-rule="evenodd"/><path fill="url(#a)" fill-rule="evenodd" d="M37.704 18.9c-2.763 0-5.083 2.192-5.083 5.042 0 2.74 2.21 5.041 5.083 5.151s5.083-2.192 5.193-5.042c-.11-2.85-2.32-5.151-5.193-5.151" clip-rule="evenodd"/><path fill="url(#b)" fill-rule="evenodd" d="M37.704 18.9c-2.763 0-5.083 2.192-5.083 5.042 0 2.74 2.21 5.041 5.083 5.151s5.083-2.192 5.193-5.042c-.11-2.85-2.32-5.151-5.193-5.151" clip-rule="evenodd"/><defs><radialGradient id="b" cx="0" cy="0" r="1" gradientTransform="matrix(-3.99997 -5.50003 5.6945 -4.1414 38.5 25.5)" gradientUnits="userSpaceOnUse"><stop stop-color="#FFCD83" stop-opacity="0"/><stop offset=".726" stop-color="#E45816" stop-opacity=".7"/><stop offset="1" stop-color="#912301"/></radialGradient><linearGradient id="a" x1="34.607" x2="41.279" y1="19.863" y2="27.634" gradientUnits="userSpaceOnUse"><stop stop-color="#E15315"/><stop offset="1" stop-color="#FFB320"/></linearGradient></defs></svg>