<svg xmlns="http://www.w3.org/2000/svg" fill="none" viewBox="0 0 72 48"><path fill="#1F72CD" stroke="#E3E3E8" d="M4 .5h64A3.5 3.5 0 0 1 71.5 4v40a3.5 3.5 0 0 1-3.5 3.5H4A3.5 3.5 0 0 1 .5 44V4A3.5 3.5 0 0 1 4 .5Z"/><path fill="#fff" fill-rule="evenodd" d="M13.546 16.7 7 31.281h7.836l.972-2.325h2.22L19 31.281h8.625v-1.774l.769 1.774h4.462l.768-1.812v1.812h17.939l2.18-2.264 2.043 2.264L65 31.3l-6.566-7.269L65 16.7h-9.07l-2.124 2.223-1.978-2.223H32.313l-1.676 3.764-1.715-3.764h-7.82v1.714l-.87-1.714zm26.787 2.07h10.302l3.15 3.426 3.252-3.426h3.151l-4.787 5.26 4.787 5.197h-3.294l-3.15-3.465-3.269 3.465H40.333zm2.544 4.077v-1.912h6.428l2.804 3.055-2.928 3.07h-6.304v-2.084h5.62v-2.13zM15.062 18.77h3.82l4.342 9.888V18.77h4.184l3.354 7.09 3.09-7.09h4.164v10.464h-2.534l-.02-8.2-3.694 8.2h-2.266l-3.714-8.2v8.2h-5.212l-.988-2.346H14.25l-.986 2.343h-2.792zm.1 5.95 1.758-4.18 1.757 4.18z" clip-rule="evenodd"/></svg>