<svg xmlns="http://www.w3.org/2000/svg" fill="none" viewBox="0 0 24 24"><g clip-path="url(#a)"><path fill="#434FCF" d="M12 24c6.627 0 12-5.373 12-12S18.627 0 12 0 0 5.373 0 12s5.373 12 12 12"/><path fill="#fff" d="M16.375 7.333c.804 0 1.458.785 1.458 1.75v5.834c0 .965-.654 1.75-1.458 1.75h-8.75c-.804 0-1.458-.785-1.458-1.75V9.083c0-.965.654-1.75 1.458-1.75zm-9.236 7.636c0 .373.218.677.486.677h8.75c.268 0 .486-.304.486-.677v-4.063H7.14zm8.361-1.103a.467.467 0 0 1 0 .934h-2.917a.467.467 0 0 1 0-.934zM7.625 8.354a.5.5 0 0 0-.486.51v.511h9.722v-.51a.5.5 0 0 0-.486-.51z"/></g><defs><clipPath id="a"><path fill="#fff" d="M0 0h24v24H0z"/></clipPath></defs></svg>