<svg xmlns="http://www.w3.org/2000/svg" fill="none" viewBox="0 0 24 24"><path fill="#62757E" fill-rule="evenodd" d="M20.384 2.17a.85.85 0 0 0-1.202 0L17.352 4H4.5C3.122 4 2 5.346 2 7v10c0 1.38.782 2.547 1.842 2.895L19.824 3.912a.855.855 0 0 1 .12-.1l.44-.44a.85.85 0 0 0 0-1.201Zm.834 2.652a.848.848 0 0 1-.192.292l-.915.916a.896.896 0 0 1 .222.595V7.5h-1.692l-2.625 2.625h4.317v6.964c0 .641-.373 1.161-.833 1.161H7.89L6.14 20H19.5c1.378 0 2.5-1.346 2.5-3V7c0-.857-.3-1.63-.782-2.178ZM4.5 5.75h11.103l-1.75 1.75H3.667v-.875c0-.483.373-.875.833-.875Zm-.833 4.375h7.56l-7.475 7.476a1.54 1.54 0 0 1-.085-.512v-6.964ZM14 16.8h5v-1.6h-5v1.6Z" clip-rule="evenodd"/></svg>