<svg xmlns="http://www.w3.org/2000/svg" fill="none" viewBox="0 0 72 48"><path fill="#fff" d="M0 4a4 4 0 0 1 4-4h64a4 4 0 0 1 4 4v40a4 4 0 0 1-4 4H4a4 4 0 0 1-4-4V4Z"/><path stroke="#A1B2BA" stroke-opacity=".4" d="M.5 4A3.5 3.5 0 0 1 4 .5h64A3.5 3.5 0 0 1 71.5 4v40a3.5 3.5 0 0 1-3.5 3.5H4A3.5 3.5 0 0 1 .5 44V4Z"/><path fill="#E21836" d="M22.617 10.201h10.982c1.533 0 2.487 1.253 2.13 2.796l-5.114 22.012c-.36 1.537-1.896 2.791-3.43 2.791H16.204c-1.531 0-2.487-1.254-2.129-2.791l5.115-22.012c.358-1.543 1.892-2.796 3.427-2.796Z"/><path fill="#00447C" d="M32.685 10.2h12.63c1.532 0 .841 1.253.48 2.795l-5.112 22.012c-.358 1.537-.247 2.791-1.783 2.791H26.271c-1.536 0-2.486-1.254-2.126-2.79l5.112-22.013c.363-1.542 1.894-2.795 3.428-2.795Z"/><path fill="#007B84" d="M44.813 10.2h10.983c1.535 0 2.488 1.253 2.128 2.795l-5.112 22.012c-.361 1.537-1.897 2.791-3.432 2.791H38.403c-1.536 0-2.49-1.254-2.13-2.79l5.114-22.013c.357-1.542 1.89-2.795 3.426-2.795Z"/><path fill="#FEFEFE" d="M25.485 17.254c-1.13.012-1.463 0-1.57-.025-.04.195-.803 3.72-.805 3.723-.164.713-.283 1.222-.689 1.55a1.23 1.23 0 0 1-.81.283c-.501 0-.793-.25-.842-.723l-.01-.162.153-.96s.8-3.213.943-3.638a.303.303 0 0 0 .012-.048c-1.557.014-1.833 0-1.852-.025a7.64 7.64 0 0 0-.05.234l-.816 3.62-.07.307-.136 1.005c0 .298.059.54.175.747.372.652 1.433.75 2.034.75.773 0 1.5-.166 1.99-.466.85-.505 1.073-1.293 1.272-1.994l.092-.36s.824-3.336.964-3.77a.15.15 0 0 1 .015-.048Zm2.803 2.692c-.198 0-.561.048-.887.208-.119.061-.23.131-.349.201l.107-.385-.059-.065c-.691.14-.846.159-1.484.25l-.054.035c-.074.616-.14 1.08-.415 2.292-.104.447-.213.897-.322 1.343l.03.057c.654-.035.852-.035 1.421-.026l.046-.05c.073-.371.082-.458.242-1.21.075-.356.232-1.14.31-1.418.142-.066.282-.131.416-.131.319 0 .28.279.267.39-.013.186-.13.796-.249 1.319l-.08.337c-.055.25-.115.492-.17.74l.023.049c.646-.035.842-.035 1.393-.026l.065-.05c.1-.58.129-.735.305-1.579l.09-.388c.172-.759.259-1.144.128-1.457-.138-.352-.47-.436-.774-.436Zm3.132.794c-.343.066-.562.11-.78.139a33.71 33.71 0 0 1-.756.112l-.026.024-.024.019c-.035.248-.06.461-.105.713-.039.26-.098.555-.195.98a3.842 3.842 0 0 1-.157.553c-.042.114-.088.225-.173.545l.02.03.017.027c.31-.015.512-.026.72-.027.208-.008.424 0 .757.001l.03-.024.03-.026c.049-.288.056-.366.086-.506.029-.151.08-.36.203-.918.058-.262.123-.523.183-.79.063-.266.13-.529.192-.79l-.01-.032-.012-.03Zm.007-1.071c-.311-.185-.858-.126-1.226.129-.367.25-.41.604-.099.79.307.18.856.126 1.22-.13.367-.256.413-.607.105-.79Zm1.885 4.27c.63 0 1.276-.174 1.763-.69.374-.42.545-1.044.605-1.3.193-.852.043-1.25-.147-1.492-.287-.369-.795-.487-1.322-.487-.317 0-1.072.031-1.662.576-.423.394-.619.927-.737 1.439-.12.521-.256 1.46.604 1.809.266.114.649.145.896.145Zm-.05-1.915c.146-.645.317-1.186.755-1.186.343 0 .368.402.216 1.05-.028.143-.153.677-.322.904-.119.168-.259.27-.413.27-.046 0-.32 0-.325-.408a2.783 2.783 0 0 1 .09-.63Zm3.994 1.832.049-.05c.07-.37.081-.458.236-1.21.077-.356.237-1.14.313-1.418.142-.067.28-.132.418-.132.317 0 .278.28.266.39-.012.187-.128.796-.25 1.32l-.075.337c-.057.25-.12.492-.175.74l.024.049a15.21 15.21 0 0 1 1.39-.026l.067-.05c.098-.58.124-.735.306-1.579l.087-.388c.173-.759.26-1.144.132-1.457-.142-.352-.475-.436-.775-.436a2.16 2.16 0 0 0-.888.208 5.942 5.942 0 0 0-.346.201l.099-.385-.053-.065c-.692.14-.85.159-1.487.25l-.05.035c-.077.616-.14 1.08-.414 2.292-.105.447-.214.898-.323 1.343l.03.057c.655-.035.85-.035 1.419-.026Zm4.755.026c.04-.2.283-1.38.285-1.38 0 0 .206-.866.218-.898 0 0 .065-.09.13-.126h.095c.9 0 1.915 0 2.71-.587.542-.402.912-.997 1.077-1.72.043-.177.075-.387.075-.598 0-.277-.056-.55-.216-.764-.406-.57-1.214-.58-2.147-.584l-.46.004c-1.194.015-1.673.01-1.87-.014l-.047.243-.428 1.99-1.072 4.426c1.043-.012 1.47-.012 1.65.008Zm.793-3.532s.455-1.984.452-1.976l.015-.102.007-.077.181.018.96.083c.37.144.523.514.417.997-.098.442-.383.813-.75.992-.303.152-.673.165-1.054.165h-.247l.019-.1Zm2.831 1.71c-.12.514-.258 1.453.599 1.787.273.116.517.151.766.138.263-.014.506-.146.731-.336l-.06.235.038.05a22.15 22.15 0 0 1 1.474-.02l.06-.047c.098-.575.19-1.132.443-2.231.124-.526.247-1.048.373-1.572l-.02-.058a27.68 27.68 0 0 1-1.535.25l-.05.041-.02.156a.947.947 0 0 0-.484-.398c-.294-.117-.986.033-1.582.576-.418.388-.619.92-.733 1.43Zm1.448.032c.147-.633.317-1.17.756-1.17.277 0 .423.258.394.696l-.08.354c-.044.189-.091.375-.137.562a1.364 1.364 0 0 1-.163.329c-.113.16-.382.26-.536.26-.044 0-.315 0-.324-.4-.003-.2.038-.406.09-.631Zm7.556-2.09-.053-.062c-.682.139-.805.16-1.431.245l-.046.047c-.003.007-.005.019-.008.03l-.002-.011c-.466 1.078-.452.846-.832 1.695l-.004-.104-.095-1.84-.06-.062c-.714.139-.731.16-1.39.245l-.052.047c-.007.022-.007.046-.012.072l.005.01c.082.422.062.328.145.995.039.327.09.656.129.979.065.54.101.807.18 1.633-.445.737-.55 1.015-.98 1.662l.004.007-.302.479c-.035.05-.066.085-.11.1a.454.454 0 0 1-.198.028h-.167l-.249.83.853.014c.501-.002.816-.237.985-.553l.537-.921h-.009l.057-.066c.36-.778 3.105-5.5 3.105-5.5Zm-9.004 10.892h-.361l1.339-4.442h.444l.142-.458.013.509c-.017.314.23.593.879.547h.75l.258-.855h-.283c-.162 0-.237-.041-.228-.13l-.013-.517h-1.389v.003c-.449.009-1.79.043-2.06.115-.33.085-.675.335-.675.335l.136-.459h-1.3l-.27.91-1.357 4.51h-.264l-.258.85h2.587l-.087.282h1.275l.085-.283h.357l.28-.917Zm-1.06-3.54a5.792 5.792 0 0 0-.596.233l.344-1.135h1.032l-.249.827s-.319.019-.532.075Zm.019 1.622s-.324.041-.538.09c-.21.063-.604.265-.604.265l.356-1.182h1.037l-.251.827Zm-.578 1.929H42.98l.3-.998h1.032l-.297.998Zm2.492-2.756h1.493l-.215.696h-1.512l-.227.762h1.323l-1.002 1.414a.413.413 0 0 1-.202.17.593.593 0 0 1-.27.077h-.366l-.252.834h.96c.499 0 .793-.228 1.01-.526l.688-.943.147.957a.45.45 0 0 0 .247.325c.096.049.196.131.336.144.15.006.259.011.331.011h.472l.283-.933h-.186c-.107 0-.29-.018-.322-.051-.031-.041-.031-.104-.048-.2l-.15-.959h-.613l.27-.32h1.508l.232-.762h-1.397l.218-.696h1.393l.258-.859h-4.152l-.255.859Zm-12.602 2.95.349-1.162h1.431l.261-.864h-1.432l.218-.715h1.4l.26-.837H32.89l-.254.837h.796l-.213.715h-.797l-.265.878h.796l-.465 1.537c-.062.204.03.282.088.376.06.092.12.153.256.188.14.031.237.05.367.05h1.614l.287-.957-.715.098c-.138 0-.52-.016-.479-.144Zm.165-5.562-.363.658c-.078.143-.148.232-.21.273-.056.035-.166.05-.325.05h-.189l-.253.84h.629c.302 0 .534-.11.645-.166.119-.064.15-.028.242-.117l.212-.184h1.963l.26-.876h-1.436l.25-.478h-1.425Zm2.897 5.578c-.033-.048-.01-.133.042-.31l.536-1.78h1.909c.278-.005.479-.008.61-.017.14-.015.292-.065.458-.155a.86.86 0 0 0 .334-.309c.083-.114.215-.364.33-.748l.674-2.253-1.98.011s-.61.09-.879.19c-.27.11-.658.421-.658.421l.179-.617h-1.224l-1.712 5.695c-.06.221-.102.382-.111.478-.003.104.13.207.217.284.103.078.254.065.4.078.153.011.37.019.67.019h.94l.289-.977-.842.08a.221.221 0 0 1-.182-.09Zm.924-3.293h2.005l-.128.4c-.017.01-.06-.02-.264.005h-1.736l.123-.405Zm.402-1.343h2.021l-.145.482s-.953-.01-1.105.019c-.672.116-1.064.476-1.064.476l.293-.977Zm1.52 3.084a.214.214 0 0 1-.08.124c-.04.026-.106.036-.204.036h-.286l.017-.488h-1.188l-.048 2.384c-.002.173.015.272.14.352.126.1.513.112 1.033.112h.745l.269-.892-.649.035-.215.013c-.03-.013-.058-.024-.089-.056-.027-.027-.073-.01-.066-.182l.005-.611.68-.029c.367 0 .524-.12.658-.233.127-.11.17-.235.217-.405l.114-.541h-.934l-.119.381Z"/></svg>