<svg xmlns="http://www.w3.org/2000/svg" fill="none" viewBox="0 0 72 48"><path fill="#fff" stroke="#E3E3E8" d="M4 .5h64A3.5 3.5 0 0 1 71.5 4v40a3.5 3.5 0 0 1-3.5 3.5H4A3.5 3.5 0 0 1 .5 44V4A3.5 3.5 0 0 1 4 .5Z"/><path fill="#172B85" fill-rule="evenodd" d="M21.5 32.466h-4.673l-3.504-13.344c-.167-.613-.52-1.156-1.04-1.412-1.296-.642-2.724-1.154-4.283-1.412v-.514h7.528a1.96 1.96 0 0 1 1.949 1.668l1.818 9.625 4.67-11.293h4.544zm9.607 0h-4.414l3.635-16.682h4.413zm9.344-12.06c.13-.898.91-1.412 1.818-1.412 1.429-.13 2.985.129 4.284.77l.78-3.592a11.2 11.2 0 0 0-4.025-.772c-4.283 0-7.4 2.31-7.4 5.518 0 2.44 2.207 3.72 3.766 4.492 1.686.77 2.336 1.283 2.206 2.052 0 1.154-1.299 1.668-2.596 1.668-1.558 0-3.117-.384-4.543-1.027l-.78 3.594c1.56.64 3.245.898 4.804.898 4.803.127 7.788-2.182 7.788-5.646 0-4.364-6.102-4.62-6.102-6.543m21.55 12.06-3.505-16.682h-3.764c-.78 0-1.559.514-1.819 1.284l-6.489 15.398h4.544l.906-2.438h5.583l.52 2.438zm-6.62-12.19 1.297 6.288h-3.635z" clip-rule="evenodd"/></svg>