<svg xmlns="http://www.w3.org/2000/svg" fill="none" viewBox="0 0 72 48"><path fill="url(#a)" stroke="#E3E3E8" d="M4 .5h64A3.5 3.5 0 0 1 71.5 4v40a3.5 3.5 0 0 1-3.5 3.5H4A3.5 3.5 0 0 1 .5 44V4A3.5 3.5 0 0 1 4 .5Z"/><path fill="#fff" d="M36.99 22.875 37 23v-.125zM25.5 13c6.703 0 10.94 3.945 11.49 9.875H25.374V25H37c-.5 6.125-4.75 10-11.5 10C18.625 35 14 30.875 14 24c0-6.625 4.375-11 11.5-11M58 18.375q0-.937-.375-1.875a4.5 4.5 0 0 0-1-1.5c-.5-.5-1-.875-1.625-1-.625-.25-1.375-.25-2.375-.25h-13.75V23H52.5c1 0 1.875-.125 2.375-.25.625-.25 1.125-.5 1.625-1s.75-1 1-1.5c.375-.625.5-1.25.5-1.875m0 11.375q0-.937-.375-1.875a4.5 4.5 0 0 0-1-1.5c-.5-.5-1-.875-1.625-1-.625-.25-1.375-.25-2.375-.25h-13.75v9.25H52.5c1 0 1.875-.125 2.375-.25.625-.25 1.125-.5 1.625-1s.75-1 1-1.5c.375-.625.5-1.25.5-1.875"/><defs><linearGradient id="a" x1="72" x2="0" y1="0" y2="48" gradientUnits="userSpaceOnUse"><stop stop-color="#0C2655"/><stop offset=".526" stop-color="#1C8CC2"/><stop offset="1" stop-color="#249947"/></linearGradient></defs></svg>