<svg xmlns="http://www.w3.org/2000/svg" fill="none" viewBox="0 0 72 48"><path fill="#fff" stroke="#E3E3E8" d="M4 .5h64A3.5 3.5 0 0 1 71.5 4v40a3.5 3.5 0 0 1-3.5 3.5H4A3.5 3.5 0 0 1 .5 44V4A3.5 3.5 0 0 1 4 .5Z"/><path fill="#000" fill-rule="evenodd" d="M49.094 15.988v11.72l2.103.843-.995 2.312-2.08-.837a2.34 2.34 0 0 1-1.024-.832c-.231-.345-.402-.817-.402-1.454V15.988zm-15.95 8.71c.052-3.35 2.906-6.026 6.369-5.975 2.94.045 5.375 2.036 6.015 4.684l-11.37 4.698a5.9 5.9 0 0 1-1.015-3.406m2.6.47a3 3 0 0 1-.022-.43c.033-1.974 1.713-3.55 3.754-3.517a3.73 3.73 0 0 1 2.763 1.267zM42 27.346a3.76 3.76 0 0 1-4.55.468l-1.373 2.117c.94.574 2.05.915 3.246.933a6.37 6.37 0 0 0 4.48-1.728zm15.847-6.124c-.41 0-.803.064-1.171.183l-.819-2.371a6.5 6.5 0 0 1 1.99-.311c3.038 0 5.572 2.086 6.153 4.858l-2.534.5c-.34-1.632-1.832-2.86-3.619-2.86m-4.16 8.118 1.713-1.871a3.51 3.51 0 0 1-1.246-2.676 3.51 3.51 0 0 1 1.245-2.674l-1.713-1.872c-1.299 1.112-2.117 2.737-2.117 4.546s.819 3.435 2.119 4.547m4.16-.975c1.785 0 3.276-1.226 3.62-2.855l2.532.502c-.584 2.768-3.117 4.852-6.152 4.852a6.5 6.5 0 0 1-1.993-.312l.82-2.371c.369.12.763.184 1.173.184" clip-rule="evenodd"/><path fill="#EC412A" d="M24.307 25.142c-.578 2.786-3.087 4.881-6.095 4.881a6.3 6.3 0 0 1-1.974-.314l-1.381 4.053a10.7 10.7 0 0 0 3.355.534c5.112 0 9.377-3.562 10.36-8.296z"/><path fill="#1BA7DE" d="m11.16 32.007 2.554-3.297c-1.14-1.154-1.86-2.837-1.86-4.713s.72-3.56 1.86-4.711l-2.556-3.298C9.22 17.948 8 20.81 8 23.997s1.223 6.051 3.16 8.01"/><path fill="#FECA2F" d="M16.236 18.283a6.3 6.3 0 0 1 1.973-.313c3.01 0 5.52 2.097 6.097 4.884L28.57 22c-.979-4.735-5.246-8.3-10.362-8.3-1.172 0-2.3.187-3.352.532z"/></svg>