<svg xmlns="http://www.w3.org/2000/svg" fill="none" viewBox="0 0 72 48"><path fill="#fff" stroke="#E3E3E8" d="M4 .5h64A3.5 3.5 0 0 1 71.5 4v40a3.5 3.5 0 0 1-3.5 3.5H4A3.5 3.5 0 0 1 .5 44V4A3.5 3.5 0 0 1 4 .5Z"/><path fill="#ED0006" d="M40.902 24c0 7.787-6.246 14.1-13.951 14.1S13 31.787 13 24 19.246 9.9 26.95 9.9c7.706 0 13.952 6.313 13.952 14.1"/><path fill="#0099DF" d="M59 24c0 7.787-6.246 14.1-13.951 14.1s-13.95-6.313-13.95-14.1 6.245-14.1 13.95-14.1 13.95 6.313 13.95 14.1"/><path fill="#6C6BBD" fill-rule="evenodd" d="M36 34.732A14.13 14.13 0 0 0 40.902 24 14.13 14.13 0 0 0 36 13.268 14.13 14.13 0 0 0 31.1 24 14.13 14.13 0 0 0 36 34.73" clip-rule="evenodd"/></svg>