<svg xmlns="http://www.w3.org/2000/svg" fill="none" viewBox="0 0 24 24"><g clip-path="url(#a)"><path fill="#434FCF" d="M12 24c6.627 0 12-5.373 12-12S18.627 0 12 0 0 5.373 0 12s5.373 12 12 12"/><path fill="#fff" fill-rule="evenodd" d="M7.625 16.667h8.75c.804 0 1.458-.786 1.458-1.75V9.083c0-.964-.654-1.75-1.458-1.75h-8.75c-.804 0-1.458.786-1.458 1.75v5.834c0 .965.654 1.75 1.458 1.75m8.75-1.021h-8.75c-.269 0-.486-.304-.486-.677v-4.063h9.722v4.063c0 .373-.218.677-.486.677m0-7.292a.5.5 0 0 1 .486.51v.511H7.139v-.51c0-.282.217-.51.486-.51zm-3.792 5.513a.467.467 0 0 0 0 .933H15.5a.467.467 0 0 0 0-.933z" clip-rule="evenodd"/></g><defs><clipPath id="a"><path fill="#fff" d="M0 0h24v24H0z"/></clipPath></defs></svg>