<svg xmlns="http://www.w3.org/2000/svg" fill="none" viewBox="0 0 24 24"><path fill="currentColor" fill-rule="evenodd" d="M21.874 4.88c.033.05.052.106.073.162.018.047.039.09.047.139.01.05.005.1.004.153 0 .058.001.114-.01.17-.004.015 0 .028-.004.043L19.51 14.61v4.056c0 .36-.23.678-.57.791-.108.036-2.68.876-6.94.876-4.256 0-6.88-.838-6.99-.874a.833.833 0 0 1-.575-.793v-4.169c0-.017.01-.03.011-.047l-2.43-8.903c-.004-.015 0-.028-.003-.042-.012-.057-.01-.114-.012-.171 0-.052-.005-.103.005-.153.008-.049.03-.093.047-.14a.8.8 0 0 1 .072-.161c.008-.012.009-.026.017-.037.022-.031.055-.048.08-.075.04-.042.079-.084.128-.119.047-.032.098-.053.15-.075.036-.015.064-.04.102-.051.014-.004.028 0 .043-.003.056-.012.113-.01.172-.012.05 0 .1-.004.147.005.053.009.102.031.153.05.051.02.101.038.147.067.014.008.029.01.042.018L8.353 8.25l2.9-5.796c.016-.03.042-.048.06-.075a.763.763 0 0 1 .104-.134.761.761 0 0 1 .134-.105c.027-.017.046-.044.075-.058.019-.01.037-.008.056-.016a.812.812 0 0 1 .166-.045c.051-.01.1-.02.152-.02.051 0 .1.01.152.02a.867.867 0 0 1 .166.045c.017.008.038.006.055.016.03.015.05.04.076.058a.788.788 0 0 1 .133.104.811.811 0 0 1 .106.135c.018.027.044.046.058.075l2.901 5.796 5.047-3.6c.013-.01.029-.01.041-.02.047-.028.098-.046.15-.065.05-.02.098-.042.15-.051.05-.01.098-.005.148-.005.06 0 .116 0 .175.012.013.003.026 0 .04.003.037.01.064.034.098.05a.754.754 0 0 1 .156.077c.048.034.086.075.125.117.026.027.059.044.08.076.009.01.01.025.017.037ZM6.104 18.029c.953.23 3.039.637 5.897.637 2.848 0 4.9-.404 5.84-.635v-2.454c-1.15.255-3.163.588-5.84.588-2.694 0-4.735-.336-5.898-.592v2.456ZM12 4.69 9.408 9.868c-.008.016-.024.022-.034.037-.013.024-.017.052-.033.075-.046.064-.112.1-.17.146-.037.03-.065.068-.106.09a.83.83 0 0 1-.404.113.832.832 0 0 1-.329-.078c-.014-.006-.03-.003-.043-.01-.016-.007-.025-.022-.041-.032-.023-.012-.048-.019-.07-.035L4.241 7.366l1.767 6.47c.903.225 3.032.661 5.992.661 3.026 0 5.145-.454 5.993-.674l1.763-6.457-3.935 2.808c-.021.016-.048.023-.07.035-.016.01-.025.025-.04.032-.015.007-.03.004-.045.01a.832.832 0 0 1-.329.078.832.832 0 0 1-.403-.112c-.042-.023-.069-.061-.106-.09-.059-.048-.125-.083-.17-.147-.017-.023-.02-.05-.034-.075-.008-.015-.026-.021-.034-.037L12 4.69Z" clip-rule="evenodd"/></svg>