<svg xmlns="http://www.w3.org/2000/svg" fill="none" viewBox="0 0 24 24"><path fill="#62757E" fill-rule="evenodd" d="M12.68 3.364a.818.818 0 0 0-1.36 0L7.707 8.781 4.31 6.231a.818.818 0 0 0-1.305.737l1.023 10.227a.82.82 0 0 0 .814.737H19.16c.42 0 .772-.319.814-.737l1.023-10.227a.818.818 0 0 0-1.305-.736l-3.4 2.55zm-4.09 7.044L12 5.293l3.41 5.115a.82.82 0 0 0 1.172.201l2.6-1.95-.763 7.637H5.58l-.763-7.637 2.6 1.95a.82.82 0 0 0 1.172-.2m-3.75 8.956a.818.818 0 1 0 0 1.636h14.32a.818.818 0 1 0 0-1.636z" clip-rule="evenodd"/></svg>