<svg xmlns="http://www.w3.org/2000/svg" fill="none" viewBox="0 0 24 24"><g clip-path="url(#a)"><path fill="#00BDCD" d="M12 24c6.627 0 12-5.373 12-12S18.627 0 12 0 0 5.373 0 12s5.373 12 12 12"/><path fill="#fff" d="M15.076 8.019a4.94 4.94 0 0 0-3.22-1.175c-2.669 0-4.867 2.11-5.05 4.809h-.524c.184-3.02 2.618-5.344 5.575-5.344 1.309 0 2.564.481 3.585 1.336zm-.184 1.763a3.73 3.73 0 0 0-3.035-1.576c-2.068 0-3.743 1.71-3.743 3.794 0 2.11 1.675 3.82 3.742 3.82 1.2 0 2.329-.585 3.036-1.576l.367.374a4.24 4.24 0 0 1-3.402 1.737C9.5 16.355 7.59 14.405 7.59 12c0-2.377 1.91-4.329 4.266-4.329A4.24 4.24 0 0 1 15.26 9.41zm.602-1.362.367-.374c.13.133.236.267.34.4l-.366.374a5 5 0 0 0-.34-.4m-3.663 9.297c-2.957 0-5.392-2.324-5.575-5.343h.523c.184 2.698 2.382 4.81 5.052 4.81a4.95 4.95 0 0 0 3.219-1.176l.366.373a5.53 5.53 0 0 1-3.585 1.337m3.663-2.11c.131-.134.236-.267.34-.401l.367.373c-.105.134-.21.268-.34.401zM5.524 12c0 3.553 2.852 6.465 6.333 6.465a6.16 6.16 0 0 0 4.868-2.35l.366.373C15.782 18.092 13.898 19 11.857 19 8.062 19 5 15.847 5 12c0-3.874 3.088-7 6.857-7 2.014 0 3.926.908 5.234 2.512l-.367.374a6.24 6.24 0 0 0-4.868-2.351c-3.48 0-6.332 2.912-6.332 6.465"/></g><defs><clipPath id="a"><path fill="#fff" d="M0 0h24v24H0z"/></clipPath></defs></svg>