<svg xmlns="http://www.w3.org/2000/svg" fill="none" viewBox="0 0 24 24"><g clip-path="url(#a)"><path fill="#00BDCD" d="M12 24c6.627 0 12-5.373 12-12S18.627 0 12 0 0 5.373 0 12s5.373 12 12 12Z"/><path fill="#fff" d="M15.075 8.019a4.94 4.94 0 0 0-3.218-1.175c-2.67 0-4.868 2.11-5.052 4.808h-.523C6.466 8.634 8.9 6.31 11.857 6.31c1.309 0 2.564.481 3.585 1.336l-.367.374Zm-.183 1.763a3.73 3.73 0 0 0-3.035-1.576c-2.068 0-3.743 1.71-3.743 3.794 0 2.11 1.675 3.82 3.742 3.82 1.2 0 2.329-.585 3.036-1.576l.367.374a4.238 4.238 0 0 1-3.402 1.737C9.5 16.355 7.59 14.405 7.59 12c0-2.377 1.91-4.329 4.266-4.329a4.235 4.235 0 0 1 3.402 1.738l-.367.373Zm.602-1.362.367-.374c.13.133.236.267.34.4l-.366.374a4.686 4.686 0 0 0-.34-.4Zm-3.663 9.297c-2.957 0-5.392-2.324-5.575-5.343h.523c.184 2.698 2.382 4.81 5.052 4.81a4.947 4.947 0 0 0 3.219-1.176l.366.373a5.529 5.529 0 0 1-3.585 1.337Zm3.663-2.11c.131-.134.236-.267.34-.401l.367.373c-.105.134-.21.268-.34.401l-.367-.373ZM5.524 12c0 3.553 2.852 6.465 6.333 6.465a6.157 6.157 0 0 0 4.868-2.35l.366.373C15.782 18.092 13.898 19 11.857 19 8.062 19 5 15.847 5 12c0-3.874 3.088-7 6.857-7 2.014 0 3.926.908 5.234 2.512l-.367.374a6.237 6.237 0 0 0-4.868-2.351c-3.48 0-6.332 2.912-6.332 6.465Z"/></g><defs><clipPath id="a"><path fill="#fff" d="M0 0h24v24H0z"/></clipPath></defs></svg>