<svg xmlns="http://www.w3.org/2000/svg" fill="none" viewBox="0 0 24 24"><g clip-path="url(#a)"><path fill="#0F1529" d="M12 24c6.627 0 12-5.373 12-12S18.627 0 12 0 0 5.373 0 12s5.373 12 12 12"/><path fill="#fff" fill-rule="evenodd" d="M17.621 11.72c-.128.029-.216.045-.302.068-.537.14-1.079.252-1.639.231-.748-.028-1.391-.33-1.958-.814-.23-.197-.442-.414-.66-.623-.107-.1-.132-.215-.051-.346l.206-.335.28.306c.402.447.833.854 1.402 1.07.558.214 1.126.182 1.697.086.807-.135 1.552-.457 2.282-.82.025-.011.051-.02.122-.047-.048.09-.075.145-.106.196l-3.2 5.379c-.132.22-.18.237-.409.125-1.505-.74-3.082-.88-4.71-.6-.254.044-.3.022-.421-.238-.133-.286-.132-.278.17-.336a8.4 8.4 0 0 1 2.546-.104c.795.09 1.587.207 2.316.58.105.055.16.01.212-.077q.694-1.159 1.39-2.316l.753-1.235c.022-.035.04-.073.08-.15m-11.234.077.322.54 2.14 3.55c.102.17.102.175-.074.256-.38.175-.333.22-.565-.169l-2.46-4.135-.665-1.117c-.032-.053-.057-.11-.085-.165l.025-.033q.14.06.28.123c.562.263 1.13.508 1.732.656.773.192 1.536.215 2.272-.152.458-.229.835-.566 1.175-.95.544-.615.986-1.306 1.386-2.027L11.968 8c.052.079.086.139.129.19.235.289.18.544-.019.842-.441.665-.886 1.322-1.474 1.862-.526.482-1.115.847-1.807 1.013-.544.13-1.09.104-1.635.003q-.374-.072-.747-.149z" clip-rule="evenodd"/></g><defs><clipPath id="a"><path fill="#fff" d="M0 0h24v24H0z"/></clipPath></defs></svg>