<svg xmlns="http://www.w3.org/2000/svg" fill="none" viewBox="0 0 24 24"><path fill="#62757E" fill-rule="evenodd" d="M16.016 9.508a5.908 5.908 0 1 1-11.816 0 5.908 5.908 0 0 1 11.816 0m-5.009 7.455a7.5 7.5 0 0 1-4.303-.76 3.416 3.416 0 0 0 6.376 1.967l-1.92-1.11a2 2 0 0 1-.153-.097m2.155-.594 2.718 1.57a.4.4 0 0 0 .4 0l3.92-2.264a.4.4 0 0 0 .2-.347v-4.526a.4.4 0 0 0-.2-.346l-2.604-1.504q.02.275.02.556a7.51 7.51 0 0 1-4.454 6.861m3.964-9.536A7.51 7.51 0 0 0 2.6 9.508a7.5 7.5 0 0 0 2.65 5.725 5.016 5.016 0 0 0 9.216 3.736l.614.355a2 2 0 0 0 2 0L21 17.06a2 2 0 0 0 1-1.732v-4.527a2 2 0 0 0-1-1.732zm-8.518 3.755 1.5-2.598 1.5 2.598zM9.37 6.07a.854.854 0 0 1 1.478 0l2.793 4.838a.854.854 0 0 1-.739 1.28H7.315a.854.854 0 0 1-.739-1.28z" clip-rule="evenodd"/></svg>