<svg xmlns="http://www.w3.org/2000/svg" fill="none" viewBox="0 0 24 24"><path fill="url(#a)" d="M11.962 2 3.3 7v10l8.662 5 8.663-5V7l-8.663-5Z"/><path fill="url(#b)" d="M11.962 2 3.3 7v10l8.662 5V2Z"/><path fill="#fff" d="M15.34 6.32h-6.8l-.79 3.465h8.422l-.834-3.465Zm-5.593 8.224V12.24L7.73 10.97l-2.28 1.689 3.113 5.417h1.25l1.47-1.382v-.68l-1.536-1.47Z"/><path fill="#fff" d="M14.155 10.311H9.77l.724 1.93-.22 2.171h3.378l-.22-2.17.724-1.93Z"/><path fill="#fff" d="m16.173 10.947-1.996 1.294v2.303l-1.513 1.47v.679l1.47 1.36h1.227l3.093-5.395-2.281-1.71Z"/><defs><linearGradient id="a" x1="11.955" x2="11.955" y1="2" y2="21.988" gradientUnits="userSpaceOnUse"><stop stop-color="#25376C"/><stop offset="1" stop-color="#1F1F49"/></linearGradient><linearGradient id="b" x1="7.628" x2="7.628" y1="21.988" y2="2" gradientUnits="userSpaceOnUse"><stop stop-color="#25376C"/><stop offset="1" stop-color="#1F1F49"/></linearGradient></defs></svg>