<svg xmlns="http://www.w3.org/2000/svg" fill="none" viewBox="0 0 24 24"><path fill="#697284" fill-rule="evenodd" d="M10.1 4a5.5 5.5 0 1 0 0 11 5.5 5.5 0 0 0 0-11ZM2.6 9.5a7.5 7.5 0 0 1 14.602-2.417l3.245 1.623a1 1 0 0 1 .523.651l1 4a1 1 0 0 1-.17.843l-3 4a1 1 0 0 1-.8.4h-3.26a5 5 0 0 1-9.394-3.3A7.486 7.486 0 0 1 2.6 9.5Zm4.601 6.919v.081a3 3 0 0 0 5.277 1.953.984.984 0 0 1-.278-.253l-.964-1.286A7.55 7.55 0 0 1 7.2 16.42Zm6.072-.122.227.303h4l2.415-3.22-.773-3.091-1.542-.771a7.5 7.5 0 0 1-4.327 6.78ZM10 5.8a1 1 0 0 1 .874.514l2.5 4.5A1 1 0 0 1 12.5 12.3h-5a1 1 0 0 1-.874-1.486l2.5-4.5A1 1 0 0 1 10 5.8Zm-.8 4.5h1.6L10 8.86l-.8 1.44Z" clip-rule="evenodd"/></svg>