<svg xmlns="http://www.w3.org/2000/svg" fill="none" viewBox="0 0 24 24"><path fill="url(#a)" d="M11.962 2 3.3 7v10l8.662 5 8.662-5V7z"/><path fill="url(#b)" d="M11.962 2 3.3 7v10l8.662 5z"/><path fill="#fff" d="M15.339 6.32H8.541l-.79 3.465h8.421zm-5.592 8.224V12.24l-2.018-1.27-2.28 1.689 3.114 5.417h1.25l1.469-1.382v-.68z"/><path fill="#fff" d="M14.155 10.311H9.769l.724 1.93-.22 2.171h3.378l-.22-2.17z"/><path fill="#fff" d="m16.173 10.947-1.996 1.294v2.303l-1.513 1.47v.679l1.47 1.36h1.227l3.093-5.395z"/><defs><linearGradient id="a" x1="11.954" x2="11.954" y1="2" y2="21.988" gradientUnits="userSpaceOnUse"><stop stop-color="#25376C"/><stop offset="1" stop-color="#1F1F49"/></linearGradient><linearGradient id="b" x1="7.628" x2="7.628" y1="21.988" y2="2" gradientUnits="userSpaceOnUse"><stop stop-color="#25376C"/><stop offset="1" stop-color="#1F1F49"/></linearGradient></defs></svg>