<svg xmlns="http://www.w3.org/2000/svg" fill="none" viewBox="0 0 24 24"><g clip-path="url(#a)"><path fill="#262626" d="M12 24c6.627 0 12-5.373 12-12S18.627 0 12 0 0 5.373 0 12s5.373 12 12 12Z"/><path fill="#fff" fill-rule="evenodd" d="M12.752 7.943c1.56.115 2.318 1.047 2.318 1.216 0 .119-.029.378-.029.537 0 .107.038.277.115.51-.02.159-.124.239-.316.239-.286 0-.206-.322-.631-.958-.458-.685-.921-.83-1.46-.86.011 1.462.051 5.484.054 6.867 1.435-.208 2.232-1.28 2.439-1.28.114 0 .258.089.258.299 0 .442-1.134 1.443-2.718 1.64-.119 1.292-.73 2.847-2.245 2.847-.718 0-1.32-.554-1.32-1.196 0-.42.315-.598.602-.598s.574.209.574.598c0 .259-.086.439-.258.538.172.12.344.18.516.18.574 0 1.005-1.04 1.08-2.374-1.673-.269-3.231-1.862-3.231-4.178 0-2.605 1.622-3.73 3.214-3.982.032-1.171.643-2.96 2.208-2.988.946 0 1.348.778 1.348 1.196 0 .42-.301.599-.602.599a.602.602 0 0 1-.603-.599c0-.239.096-.408.287-.508a.743.743 0 0 0-.516-.18c-.796 0-1.046 1.68-1.085 2.435Zm-1.01 7.502c-.003-1.55-.023-5.119-.028-6.759-1.468.361-1.951 2.109-1.951 3.284 0 1.863.88 3.143 1.979 3.475Z" clip-rule="evenodd"/></g><defs><clipPath id="a"><path fill="#fff" d="M0 0h24v24H0z"/></clipPath></defs></svg>