<svg xmlns="http://www.w3.org/2000/svg" fill="none" viewBox="0 0 24 24"><g clip-path="url(#a)"><path fill="#262626" d="M12 24c6.627 0 12-5.373 12-12S18.627 0 12 0 0 5.373 0 12s5.373 12 12 12"/><path fill="#fff" fill-rule="evenodd" d="M12.752 7.943c1.561.115 2.318 1.047 2.318 1.216 0 .119-.028.378-.028.537q0 .16.114.51-.028.239-.315.239c-.287 0-.207-.322-.631-.958-.459-.685-.922-.83-1.46-.86.01 1.462.05 5.484.054 6.867 1.435-.208 2.232-1.28 2.438-1.28.115 0 .259.089.259.299 0 .442-1.134 1.443-2.719 1.64-.118 1.292-.73 2.847-2.245 2.847-.717 0-1.32-.554-1.32-1.196 0-.42.316-.598.603-.598.286 0 .573.209.573.598q0 .389-.258.538.258.18.517.18c.574 0 1.005-1.04 1.079-2.374-1.672-.269-3.231-1.862-3.231-4.178 0-2.605 1.623-3.73 3.214-3.982.032-1.171.644-2.96 2.208-2.988.947 0 1.348.778 1.348 1.196 0 .42-.3.599-.602.599a.6.6 0 0 1-.602-.599q0-.358.286-.508a.74.74 0 0 0-.516-.18c-.796 0-1.046 1.68-1.085 2.435zm-1.01 7.502c-.002-1.55-.022-5.119-.027-6.759-1.469.361-1.952 2.109-1.952 3.284 0 1.863.88 3.143 1.98 3.475" clip-rule="evenodd"/></g><defs><clipPath id="a"><path fill="#fff" d="M0 0h24v24H0z"/></clipPath></defs></svg>