<svg xmlns="http://www.w3.org/2000/svg" fill="none" viewBox="0 0 24 24"><g clip-path="url(#a)"><path fill="#FDDE6C" d="M12 24c6.627 0 12-5.373 12-12S18.627 0 12 0 0 5.373 0 12s5.373 12 12 12"/><path fill="#000" fill-rule="evenodd" d="M12 19a7 7 0 1 1 0-14 7 7 0 0 1 0 14m0-.984a6.017 6.017 0 1 0 0-12.033 6.017 6.017 0 0 0 0 12.033m.046-1.853c-2.29 0-4.133-1.75-4.133-4.14V12c0-2.333 1.798-4.162 4.224-4.162 1.637 0 2.69.686 3.4 1.67l-1.671 1.291c-.458-.571-.985-.937-1.751-.937-1.122 0-1.912.949-1.912 2.115V12c0 1.2.79 2.138 1.912 2.138.835 0 1.328-.388 1.808-.972l1.672 1.19c-.756 1.04-1.775 1.807-3.55 1.807" clip-rule="evenodd"/></g><defs><clipPath id="a"><path fill="#fff" d="M0 0h24v24H0z"/></clipPath></defs></svg>