<svg xmlns="http://www.w3.org/2000/svg" fill="none" viewBox="0 0 24 24"><g clip-path="url(#a)"><path fill="#000" d="M12 24c6.627 0 12-5.373 12-12S18.627 0 12 0 0 5.373 0 12s5.373 12 12 12Z"/><path fill="#fff" d="M11.934 5.253c-.092-.21.244-.359.337-.159l6.552 11.294c-.117 0-.229-.038-.34-.056l-5.83-1.162c-.19-.01-.233-.318-.046-.364l2.287-.63a.19.19 0 0 0 .126-.266l-3.085-8.662v.005Z"/><path fill="#fff" d="M11.6 5.272a.68.68 0 0 1 .055.098c.69 1.96 1.4 3.92 2.086 5.88.06.163-.168.299-.28.177-.588-.616-1.149-1.25-1.727-1.866-.094-.084-.23-.028-.29.06l-6.01 7.062c-.07.074-.13.186-.248.2-.084 0-.14-.066-.186-.13v-.109c2.202-3.789 4.402-7.579 6.6-11.372Z"/><path fill="#fff" d="M9.76 11.997c.112-.033.26.046.224.182-.234.812-.48 1.62-.724 2.426-.037.103.056.196.154.201 3.146.63 6.291 1.283 9.436 1.913.061.01.103.056.15.094v.13l-.09.094H5.56c1.4-1.68 2.795-3.37 4.2-5.04Z"/></g><defs><clipPath id="a"><path fill="#fff" d="M0 0h24v24H0z"/></clipPath></defs></svg>