<svg xmlns="http://www.w3.org/2000/svg" fill="none" viewBox="0 0 24 24"><g clip-path="url(#a)"><path fill="#000" d="M12 24c6.627 0 12-5.373 12-12S18.627 0 12 0 0 5.373 0 12s5.373 12 12 12"/><path fill="#fff" d="M11.935 5.253c-.093-.21.243-.359.335-.159q3.277 5.643 6.553 11.294c-.117 0-.229-.038-.34-.056l-5.83-1.162c-.19-.01-.233-.318-.046-.364l2.287-.63a.19.19 0 0 0 .126-.266l-3.085-8.662z"/><path fill="#fff" d="M11.6 5.272a1 1 0 0 1 .055.098c.69 1.96 1.4 3.92 2.086 5.88.06.163-.168.299-.28.177-.588-.616-1.149-1.25-1.727-1.866-.094-.084-.23-.028-.29.06l-6.01 7.061c-.07.075-.13.187-.248.2-.084 0-.14-.065-.186-.13v-.108a8399 8399 0 0 0 6.6-11.372"/><path fill="#fff" d="M9.76 11.997c.112-.033.261.046.224.182-.233.812-.48 1.62-.723 2.426-.037.104.056.196.154.201 3.145.63 6.29 1.283 9.436 1.913.06.01.103.056.15.094v.13l-.09.094H5.561c1.4-1.68 2.795-3.37 4.2-5.04"/></g><defs><clipPath id="a"><path fill="#fff" d="M0 0h24v24H0z"/></clipPath></defs></svg>