<svg xmlns="http://www.w3.org/2000/svg" fill="none" viewBox="0 0 24 24"><path fill="#62757E" fill-rule="evenodd" d="M21.54 17.246a.84.84 0 0 1-1.12-.373l-.697-1.396c-1.236 3.103-4.209 5.19-7.723 5.19-3.817 0-7.23-2.465-8.297-5.993a.833.833 0 0 1 1.594-.482C6.155 17.022 8.911 19 12 19c2.898 0 5.251-1.692 6.205-4.254l-1.666.832a.833.833 0 1 1-.745-1.49l3.333-1.667a.835.835 0 0 1 1.119.373l1.666 3.334a.834.834 0 0 1-.372 1.118M12 13.166c-1.402 0-2.5-.914-2.5-2.083 0-.93.7-1.69 1.69-1.966-.005-.04-.023-.075-.023-.117v-.833a.833.833 0 1 1 1.667 0V9h.833a.833.833 0 1 1 0 1.667H12c-.517 0-.833.27-.833.416 0 .147.316.417.833.417 1.402 0 2.5.915 2.5 2.083 0 .93-.7 1.69-1.69 1.966.006.04.024.076.024.118v.833a.833.833 0 0 1-1.667 0v-.833h-.834a.833.833 0 1 1 0-1.667H12c.517 0 .834-.27.834-.417s-.317-.416-.834-.416m7.742-2.134a.834.834 0 0 1-1.04-.557C17.846 7.645 15.09 5.667 12 5.667c-2.9 0-5.254 1.692-6.206 4.255l1.667-.835a.834.834 0 0 1 .746 1.492l-3.334 1.666a.833.833 0 0 1-1.118-.372L2.088 8.54a.833.833 0 0 1 1.491-.746l.698 1.394C5.51 6.087 8.484 4 12 4c3.816 0 7.229 2.464 8.297 5.992a.834.834 0 0 1-.555 1.04" clip-rule="evenodd"/></svg>