<svg xmlns="http://www.w3.org/2000/svg" fill="none" viewBox="0 0 24 24"><g clip-path="url(#a)"><path fill="#fff" d="M12 24c6.627 0 12-5.373 12-12S18.627 0 12 0 0 5.373 0 12s5.373 12 12 12"/><path fill="#EDF0F2" d="M12.001 24c6.624 0 11.995-5.37 11.995-11.994C23.996 5.38 18.626.01 12 .01S.007 5.381.007 12.006 5.377 24 12 24"/><path fill="url(#b)" d="M19.616 21.262a11.87 11.87 0 0 1-6.433 2.663c-3.16.31-6.32-.647-8.787-2.663a12.02 12.02 0 0 1-4.333-8.094 11.975 11.975 0 0 1 6.274-11.75 11.98 11.98 0 0 1 13.26 1.304l-2.419 2.954a8.1 8.1 0 0 0-4.389-1.81 8.17 8.17 0 0 0-4.651.928A8.2 8.2 0 0 0 4.78 8.151a8.2 8.2 0 0 0-.919 4.652 8.16 8.16 0 0 0 2.954 5.514 8.175 8.175 0 0 0 10.372-.01z"/><path fill="#fff" d="M12.039 21.824c5.41 0 9.79-4.389 9.79-9.79 0-5.411-4.38-9.8-9.79-9.8-5.411 0-9.8 4.389-9.8 9.8 0 5.41 4.389 9.79 9.8 9.79"/><path fill="#283947" fill-rule="evenodd" d="M12.92 12.296c-.056 0-.319.02-.919.02-.478 0-.816-.02-.937-.02-1.848-.084-3.217-.393-3.217-.778s1.378-.694 3.216-.778v1.247c.122.01.47.028.948.028.572 0 .863-.028.91-.028v-1.238c1.837.084 3.216.394 3.216.778 0 .376-1.37.694-3.217.77m0-1.678V9.51h2.57V7.823H8.503v1.688h2.57v1.107c-2.091.093-3.657.506-3.657.994s1.566.9 3.657.994v3.554h1.857v-3.554c2.082-.094 3.648-.506 3.648-.994s-1.566-.9-3.658-.994" clip-rule="evenodd"/></g><defs><linearGradient id="b" x1="8.625" x2="12.385" y1="1.328" y2="22.175" gradientUnits="userSpaceOnUse"><stop stop-color="#27D3A2"/><stop offset="1" stop-color="#9388FD"/></linearGradient><clipPath id="a"><path fill="#fff" d="M0 0h24v24H0z"/></clipPath></defs></svg>