<svg xmlns="http://www.w3.org/2000/svg" fill="none" viewBox="0 0 24 24"><path fill="#62757E" fill-rule="evenodd" d="M6.35 4.845a2.2 2.2 0 1 0-2.2 3.81 2.2 2.2 0 0 0 2.2-3.81m-4.39.005a3.8 3.8 0 0 1 6.908 3.065l2.448 1.413a5.1 5.1 0 0 1 1.98-1.136l5.324-1.628a5.3 5.3 0 0 1 2.922-.052l.802.215a.8.8 0 0 1 .193 1.466L15.943 12l6.594 3.807a.8.8 0 0 1-.193 1.466l-.802.215a5.3 5.3 0 0 1-2.922-.051l-5.325-1.629a5.1 5.1 0 0 1-1.98-1.136l-2.447 1.413a3.801 3.801 0 1 1-.8-1.386l.916-.529c.416-.24.675-.68.683-1.159q.009-.518.117-1.01a5 5 0 0 1-.117-1.012 1.37 1.37 0 0 0-.683-1.159l-.916-.53a3.801 3.801 0 0 1-6.109-4.45m10.84 8.965c.29.199.614.356.963.463l5.325 1.629q.325.1.66.137l-5.405-3.12zm-1.525-.967a3.5 3.5 0 0 1 .802-2.002c.43-.52 1.01-.917 1.686-1.124l5.325-1.628a3.7 3.7 0 0 1 .66-.138zm-4.12 3.302a2.2 2.2 0 1 0-3.81 2.2 2.2 2.2 0 0 0 3.81-2.2" clip-rule="evenodd"/></svg>