<svg xmlns="http://www.w3.org/2000/svg" fill="none" viewBox="0 0 24 24"><g clip-path="url(#a)"><path fill="#3AB03E" d="M12 24c6.627 0 12-5.373 12-12S18.627 0 12 0 0 5.373 0 12s5.373 12 12 12"/><path fill="#fff" d="M12.756 12.506a1.52 1.52 0 0 0 .864-1.37c0-.84-.69-1.522-1.54-1.522-.852 0-1.543.682-1.543 1.523a1.52 1.52 0 0 0 .866 1.369v1.88h1.353zm-.676 4.369c-2.721 0-4.934-2.187-4.934-4.875S9.36 7.125 12.08 7.125a4.935 4.935 0 0 1 4.719 3.453h1.7c-.656-2.906-3.281-5.078-6.42-5.078-3.633 0-6.578 2.91-6.578 6.5s2.945 6.5 6.578 6.5c3.139 0 5.764-2.172 6.42-5.078h-1.701a4.935 4.935 0 0 1-4.719 3.453"/></g><defs><clipPath id="a"><path fill="#fff" d="M0 0h24v24H0z"/></clipPath></defs></svg>