<svg xmlns="http://www.w3.org/2000/svg" fill="none" viewBox="0 0 24 24"><g clip-path="url(#a)"><path fill="#B8B8B8" d="M12 24c6.627 0 12-5.373 12-12S18.627 0 12 0 0 5.373 0 12s5.373 12 12 12Z"/><path fill="#fff" d="M4.459 16.359c-.04.05-.01.133.031.217.062.107.139.2.186.277.093.016.216-.154.309-.154a.18.18 0 0 1 .078.14c-.078.045-.17.139-.28.185-.092.061-.17.108-.231.046l-.047-.046a.215.215 0 0 1-.046-.062 1.315 1.315 0 0 1-.093-.155c-.031-.046-.062-.108-.093-.155l-.093-.139c-.061-.062-.077-.154-.061-.185.031-.078.14-.124.262-.17.124-.046.248-.093.295-.17.046-.062.015-.154-.032-.232-.015-.046-.046-.077-.077-.123-.015-.047-.046-.093-.062-.124-.092 0-.232.139-.325.108-.015-.031-.061-.108-.046-.14.109-.061.356-.23.464-.2.047.016.093.077.124.155.031.077.062.154.093.216.03.03.047.078.077.123 0 .016.015.031.031.063a.118.118 0 0 0 .032.061c.03.03.045.093.03.124-.015.046-.046.062-.108.108-.155.078-.279.155-.387.216h-.016a.086.086 0 0 0-.015.016ZM16.377 4.433a.069.069 0 0 1-.007.009c0-.007.003-.01.007-.015-.008-.057-.072-.106-.146-.156-.093-.061-.217-.108-.294-.154-.093.03-.124.247-.201.294-.016.015-.047 0-.078-.016-.031-.015-.061-.03-.046-.03.046-.078.077-.202.124-.295.046-.092.108-.17.186-.154.092.03.185.093.293.154.032.016.047.032.077.047.032.015.047.03.078.046.062.032.108.062.155.078-.016 0-.016.015-.016.015.016 0 .016-.015.016-.015.062.015.139.092.139.123.015.078-.062.17-.14.279-.077.092-.17.2-.17.293-.015.062.062.124.14.17a.65.65 0 0 0 .139.078c.047.015.093.045.124.062.077-.047.139-.233.232-.263.03.015.108.062.108.092-.078.093-.201.37-.31.402-.046.016-.107-.016-.17-.062-.03-.03-.062-.046-.092-.077-.031-.015-.062-.046-.093-.062-.062-.046-.17-.092-.248-.154-.031-.016-.077-.062-.077-.093 0-.046 0-.093.047-.155.077-.154.154-.278.216-.386v-.016a.091.091 0 0 0 .007-.039Zm-2.729-.718c-.046.015-.14 0-.124.015.032-.092.032-.216.047-.324.015-.093.061-.186.139-.186.046 0 .093 0 .154.016.047.016.124.03.17.046.047.016.11.031.17.047.016 0 .047.015.078.015s.047.016.077.016c.078-.016.155.046.17.077.032.077-.015.185-.06.309-.047.109-.094.232-.079.325.016.077.093.108.186.139.093.03.201.03.279.061a.573.573 0 0 0 .077-.17c.016-.077.031-.123.077-.154.032 0 .108.031.124.062-.031.108-.077.402-.185.463-.016.016-.047.016-.078.016a.287.287 0 0 1-.108-.03c-.078-.016-.155-.063-.217-.079a.448.448 0 0 1-.14-.03l-.138-.046c-.046-.016-.093-.047-.109-.078-.03-.03-.015-.077 0-.155.032-.17.078-.308.109-.432v-.016c0-.03-.016-.061-.046-.093a.304.304 0 0 0-.14-.061 4.69 4.69 0 0 0-.325-.077c-.077.045-.046.247-.108.324Zm-1.238-.154c0-.078-.015-.201-.046-.294 0-.062.015-.108.031-.154.016-.047.046-.079.093-.079.124-.03.278.017.433.032.124.015.356.015.402.078.031.015.031.06.031.123a.764.764 0 0 1-.03.186c-.017.123-.063.262-.032.34.031.062.124.092.216.108a.508.508 0 0 0 .155.015c.047 0 .093.015.124.015.062-.062.046-.277.124-.324.031 0 .093.015.123.031.016.108-.03.464-.138.51a.48.48 0 0 1-.202-.016c-.03 0-.046-.015-.062-.015-.015 0-.03-.015-.046-.015-.031 0-.062-.016-.093-.016-.046-.016-.123-.016-.2-.03-.032 0-.047-.016-.063-.016-.015 0-.03-.016-.046-.016a.119.119 0 0 1-.078-.03c-.061-.063-.03-.202 0-.34.032-.14.078-.279.032-.34-.032-.062-.124-.079-.233-.079-.108 0-.216.017-.278 0-.062.063-.015.264-.062.341-.015.016-.046.016-.077.016-.016-.016-.031-.016-.046-.016-.016 0-.016-.015-.032-.015Zm4.053.726c0-.016 0 0 0 0 0-.016 0 0 0 0Zm-1.748-.293c-.046.015-.108-.016-.139-.047.015-.078.032-.201.062-.309.031-.109.077-.202.17-.185.062.015.124.03.201.061.032.015.077.031.077.015.032.016.078.032.11.047.122.046.34.093.37.17.031.078-.03.185-.092.31-.063.123-.124.247-.124.324.015.062.092.124.185.154.032.016.047.016.077.031.032.016.047.016.078.03.031.017.077.032.108.048.078-.047.108-.263.201-.279.031 0 .093.031.109.062-.016.124-.155.449-.264.464-.092.015-.262-.124-.355-.17-.062-.031-.31-.108-.34-.186-.032-.062.03-.2.092-.324s.14-.248.109-.325c-.032-.062-.124-.092-.217-.123-.093-.032-.201-.047-.263-.078-.078.046-.078.247-.155.31Zm2.847 1.653c-.047-.015-.108-.078-.108-.139.061-.078.139-.185.2-.262.078-.078.14-.124.217-.093.047.015.077.061.124.093l.062.061c.015.016.046.03.062.062.077.093.154.185.247.247.077.031.108.124.108.155 0 .077-.092.155-.2.232-.093.078-.202.154-.233.247-.015.03 0 .078.016.108 0 .016.015.032.03.046l.032.032.03.03c.063.078.155.14.201.202.093-.016.201-.186.294-.186.032.031.078.093.078.123-.093.078-.279.31-.402.31-.032 0-.047-.016-.078-.031-.031-.016-.046-.046-.077-.078-.046-.061-.093-.139-.14-.185l-.045-.046c-.032-.016-.047-.031-.063-.047-.046-.03-.077-.077-.108-.108-.031-.046-.062-.093-.062-.123 0-.047.016-.078.077-.14l.31-.309.124-.123-.124.123c.047-.046 0-.139-.077-.216a.472.472 0 0 0-.124-.124c-.015-.015-.046-.03-.062-.046l-.047-.046c-.092.015-.17.2-.262.231Zm-.867-.68a.124.124 0 0 1-.08-.03.133.133 0 0 1-.044-.078c.032-.062.078-.186.14-.278.062-.093.124-.17.217-.14.123.031.232.155.355.248.031.016.062.046.093.062.031.03.062.046.093.077.05.037.092.085.124.14.015.061-.078.169-.17.262-.093.093-.186.2-.201.278 0 .046 0 .078.03.108.023.039.055.07.093.093.077.062.17.108.217.154.093-.03.185-.216.278-.216.032 0 .078.047.093.078-.062.108-.278.386-.387.37a.261.261 0 0 1-.077-.03c-.015 0-.032-.016-.047-.031l-.015-.016-.015-.016-.14-.14a.213.213 0 0 0-.062-.045c-.031-.031-.061-.047-.093-.078-.061-.046-.108-.092-.123-.139-.015-.077.078-.185.17-.293.093-.109.186-.217.186-.294 0-.03-.016-.062-.047-.093a1.105 1.105 0 0 1-.123-.078.995.995 0 0 1-.233-.138c-.092.03-.154.216-.232.263Zm2.244 2.195c.092-.046.17-.14.278-.185.093-.062.17-.109.233-.047l.045.047c.016.015.032.03.047.062.03.046.061.092.093.154.03.046.061.108.092.154l.093.14c.062.061.078.154.062.185-.03.078-.139.124-.263.17-.124.047-.247.093-.294.17-.046.062-.015.155.032.232.015.046.045.078.076.124.016.046.047.092.062.123.093 0 .233-.139.325-.108.016.031.062.108.047.14-.109.061-.356.231-.465.2-.046-.015-.092-.077-.123-.154a3.007 3.007 0 0 0-.093-.217c-.031-.03-.046-.077-.077-.123 0-.016-.016-.032-.032-.062a.117.117 0 0 0-.03-.062c-.032-.031-.047-.093-.032-.123.016-.047.047-.062.109-.11.155-.076.278-.153.387-.215h.015c.062-.047.032-.14-.015-.232-.062-.108-.14-.201-.186-.279-.093-.015-.216.155-.31.155a.18.18 0 0 1-.076-.139Zm-.68-.85c.06-.047.138-.155.23-.263.078-.078.155-.139.233-.078.046.047.093.093.139.155l.14.186c.03.046.092.108.139.17.046.062.077.108.077.155-.016.077-.124.139-.232.216-.109.077-.232.139-.263.216-.032.062.015.155.077.232a.214.214 0 0 0 .047.062.214.214 0 0 0 .046.062.404.404 0 0 1 .077.093c.108 0 .233-.17.325-.14.032.031.062.078.062.109a.94.94 0 0 1-.216.185.626.626 0 0 1-.14.078c-.046.015-.077.03-.108.015a.339.339 0 0 1-.14-.155c-.03-.062-.061-.139-.092-.17-.031-.03-.077-.093-.124-.154a.325.325 0 0 1-.062-.093.263.263 0 0 1-.03-.077c.015-.093.123-.17.247-.247.124-.078.248-.155.263-.232 0-.062-.046-.14-.124-.217-.03-.046-.077-.077-.108-.108a.406.406 0 0 1-.078-.093c-.092 0-.2.185-.294.202a.217.217 0 0 1-.092-.109Zm1.7 2.813c.093-.03.201-.093.28-.093.092-.046.185-.061.231.016.047.077.077.185.108.309.032.124.047.247.093.34-.016 0-.031.016-.046.016.015 0 .031-.016.046-.016.047.062.032.155.015.185-.046.078-.17.093-.293.108-.124.016-.248.032-.325.093-.047.046-.047.14-.016.232l.047.14c.015.046.015.092.031.123.093.03.278-.061.355-.015.016.03.032.108.016.139-.062 0-.17.046-.263.062-.108.015-.2.03-.247 0-.047-.032-.063-.093-.078-.17 0-.046-.015-.077-.015-.124v-.124a1.454 1.454 0 0 1-.078-.278V9.99c0-.03 0-.045.016-.061a.236.236 0 0 1 .139-.077c.17-.031.31-.078.433-.109a.22.22 0 0 1 .093-.03c-.032 0-.047.015-.077.015.061-.03.061-.124.031-.232-.016-.015-.016-.046-.031-.077-.016-.016-.016-.046-.032-.078l-.046-.139c-.077-.03-.247.093-.34.078-.047-.031-.062-.108-.047-.155Zm-.448-1.004a.867.867 0 0 0 .247-.186c.093-.062.186-.093.248-.015.031.015.046.045.062.076l.046.093c.015.078.046.14.078.217.015.016.03.062.046.092.015.032.015.047.031.062.015.031.03.047.03.063.032.061.047.138.032.169-.031.078-.155.108-.279.155-.124.046-.262.077-.309.14-.031.03-.031.061-.031.107 0 .016.015.03.015.062.016.031.016.046.032.077.03.093.092.186.108.248.092.015.262-.108.34-.062a.362.362 0 0 1 .031.123c-.093.078-.418.217-.51.14a.338.338 0 0 1-.047-.078.288.288 0 0 0-.031-.108 2.037 2.037 0 0 0-.046-.201.257.257 0 0 0-.031-.077c-.016-.03-.032-.078-.047-.108-.03-.062-.061-.14-.046-.186.031-.077.155-.124.294-.17.14-.046.278-.077.309-.155.016-.015.016-.03.016-.046 0-.015-.016-.046-.016-.062-.015-.03-.03-.077-.062-.123-.031-.031-.046-.078-.077-.124-.016-.031-.031-.047-.031-.062s-.015-.03-.015-.046c-.078-.03-.233.108-.325.108-.032-.015-.062-.078-.062-.123Zm1.238 3.121c.108-.015.2 0 .216.078.015.046.031.093.031.154v.186a1.366 1.366 0 0 0 0 .355c.015.078-.016.17-.046.186-.063.047-.186.031-.31.015-.123-.015-.263-.03-.34.016-.062.03-.078.124-.078.217-.015.092 0 .2 0 .277.078.062.279.016.341.078v.077c0 .031-.016.046-.031.062-.124-.016-.418.016-.495-.062-.031-.03-.031-.108-.031-.185 0-.078.031-.17.031-.232v-.294a.17.17 0 0 1 .046-.123.332.332 0 0 1 .155-.032h.464c.062-.015.093-.107.093-.216 0-.108-.016-.247-.016-.325-.077-.061-.262.016-.355-.03-.032-.031-.032-.124 0-.155.093 0 .216-.031.325-.046Zm-.186-1.127c.108-.032.201-.032.232.03.015.031.015.062.03.093 0 .03.017.078.017.108.015.078.015.155.03.232.015.015.015.03.015.046.011.019.017.04.016.062 0 .046.016.093.016.124 0 .077 0 .155-.016.185-.046.062-.17.078-.31.078-.139 0-.277 0-.34.046-.015.015-.015.03-.031.046 0 .016-.015.047-.015.062-.015.046 0 .093 0 .14.015.061.015.107.031.154 0 .015.015.046.015.062v.062c.093.03.294-.047.356.03a.17.17 0 0 1 0 .124c-.124.047-.48.093-.541 0-.032-.046-.032-.124-.032-.201v-.201c0-.046-.015-.123-.015-.2 0-.078-.015-.17.016-.202.046-.077.186-.092.324-.092.14 0 .294 0 .341-.062.02-.033.03-.07.031-.109v-.077c0-.03-.015-.045-.015-.077a1.036 1.036 0 0 1-.063-.262c-.092-.032-.262.061-.355.03a.148.148 0 0 1-.032-.14c.078-.015.186-.06.295-.091Zm.092 3.415c.11.016.186.047.14.17 0 .047 0 .093-.016.155a2.69 2.69 0 0 0-.046.17 3.13 3.13 0 0 0-.047.17c0 .015-.015.047-.015.078 0 .03-.016.045-.016.077.016.077-.046.154-.077.17-.077.03-.185-.016-.309-.063-.109-.045-.232-.092-.325-.076-.077.015-.108.092-.14.185-.03.092-.03.201-.061.278a.57.57 0 0 0 .17.077c.078.016.124.031.155.078 0 .03-.032.108-.062.124-.108-.031-.402-.078-.464-.186-.016-.016-.016-.046-.016-.078a.288.288 0 0 1 .032-.108c.015-.077.061-.154.077-.216a.448.448 0 0 1 .03-.14l.047-.138c.015-.046.046-.093.078-.108.03-.032.077-.016.154 0 .17.03.31.077.434.108h.015c.03 0 .061-.015.092-.046.032-.031.047-.078.062-.14.032-.108.062-.247.078-.324-.047-.078-.248-.046-.325-.108-.032-.047 0-.124.031-.155.093.031.216.031.324.046Zm-.092.758c-.016 0 0 0 0 0-.016 0 0 0 0 0Zm.34-1.87c.047.015.077.046.062.061.031.124-.015.279-.031.433-.015.124-.015.355-.078.402-.015.03-.061.03-.123.03s-.124-.015-.186-.03c-.123-.015-.263-.062-.34-.031-.062.031-.093.123-.108.216-.016.047-.016.108-.016.155 0 .046-.015.093-.015.123.061.063.278.047.325.124a.365.365 0 0 1-.032.123c-.108.017-.463-.03-.51-.138-.015-.046 0-.124.016-.201 0-.031.015-.046.015-.062 0-.015.016-.031.016-.046 0-.031.015-.062.015-.093.015-.046.015-.124.031-.201 0-.031.015-.046.015-.062 0-.015.016-.031.016-.046a.12.12 0 0 1 .031-.078c.062-.061.201-.03.34 0 .14.031.279.078.34.031.063-.03.078-.123.078-.231 0-.109-.015-.217 0-.279-.062-.061-.263-.015-.34-.061-.016-.016-.016-.047-.016-.078.016-.015.016-.03.016-.046s.015-.016.015-.031c.078 0 .201-.016.31-.016a.456.456 0 0 1 .154.031Zm-.944 3.292c.109.045.17.108.124.2-.03.093-.092.186-.155.294-.015.031-.03.046-.046.078-.015.03-.03.046-.046.077-.031.062-.062.108-.078.154-.03-.015-.046-.03-.077-.045.031.015.046.03.077.045-.015.063-.092.14-.123.14-.078.015-.17-.063-.28-.14-.091-.077-.2-.17-.293-.17-.062-.015-.123.062-.17.14a.593.593 0 0 0-.077.139c-.016.046-.047.092-.062.123.046.078.232.14.263.232-.016.031-.062.108-.093.108-.093-.077-.37-.201-.402-.309-.016-.046.015-.108.062-.17.03-.03.046-.062.077-.093.015-.03.047-.062.062-.092.046-.062.093-.17.154-.247.016-.032.063-.078.093-.078.047 0 .093 0 .155.046.155.078.278.155.387.217h.015c.078.03.14-.046.201-.14.063-.092.109-.216.155-.293-.03-.092-.247-.124-.294-.201-.015-.015 0-.046.015-.077.016-.031.047-.046.063-.062.077.047.2.078.293.123v.001Zm.402-1.067c.11.031.201.077.217.139a1.513 1.513 0 0 1-.061.202c-.016.03-.032.076-.047.107-.016.031-.031.078-.046.109-.047.123-.093.34-.17.37-.078.031-.186-.03-.31-.092s-.247-.124-.325-.124c-.062.016-.124.093-.154.186-.016.03-.016.046-.032.077-.015.03-.015.046-.03.077-.016.03-.031.078-.047.108.046.078.263.109.279.202 0 .03-.032.092-.062.108-.124-.016-.449-.155-.464-.263-.016-.093.123-.263.17-.356.031-.061.108-.31.186-.34.061-.03.2.03.325.093.123.062.247.139.324.108.062-.031.093-.123.124-.216s.046-.201.078-.263c-.047-.077-.248-.077-.31-.155-.015-.045.015-.108.046-.138.078.015.201.03.31.061Zm-1.623 2.998c.077.079.123.14.123.217-.015.047-.062.078-.093.124l-.061.062c-.016.015-.032.046-.063.062a1.23 1.23 0 0 0-.247.247c-.031.077-.124.108-.155.108-.077 0-.154-.092-.232-.201-.077-.092-.154-.201-.247-.232-.032-.015-.077 0-.108.016-.016 0-.032.015-.047.03l-.031.032-.03.03c-.078.062-.14.155-.202.202.016.092.186.2.186.293-.031.03-.093.078-.124.078-.077-.093-.31-.279-.31-.402 0-.031.016-.047.032-.078.015-.03.046-.046.077-.077.062-.046.139-.093.186-.14l.046-.045a.214.214 0 0 1 .047-.062c.03-.047.077-.078.108-.109.046-.03.093-.061.123-.061.047 0 .078.015.14.077l.309.309.124.123-.124-.123c.047.047.139 0 .217-.077a.471.471 0 0 0 .123-.123c.016-.016.031-.047.047-.063l.046-.046c-.015-.093-.201-.17-.232-.263 0-.046.062-.108.108-.108.078.062.186.139.264.201Zm.65-.927c.107.063.169.124.169.217-.03.123-.155.232-.247.355-.016.03-.046.062-.062.093-.032.03-.047.062-.078.093a.465.465 0 0 1-.139.123c-.062.016-.17-.077-.263-.17-.093-.092-.2-.185-.278-.201-.047 0-.077 0-.108.031a.262.262 0 0 0-.093.093c-.062.078-.108.17-.155.217.031.092.216.185.216.278 0 .03-.046.077-.077.092-.108-.061-.386-.278-.37-.386 0-.015.015-.046.03-.077 0-.016.015-.03.031-.046l.016-.016.015-.016.14-.139a.214.214 0 0 0 .046-.062c.03-.03.046-.061.077-.092.046-.062.092-.109.139-.123.077-.016.186.076.294.17.108.092.217.185.294.185.03 0 .062-.016.093-.047.015-.03.046-.077.077-.123a1.02 1.02 0 0 1 .14-.232c-.032-.093-.218-.155-.264-.232 0-.047.031-.109.078-.123.061.03.185.076.278.138ZM16.85 18.94c.046.078.124.17.186.278.061.093.108.17.046.232l-.046.047a.214.214 0 0 1-.062.046c-.05.035-.102.066-.155.093-.046.03-.108.062-.155.092l-.139.093c-.062.062-.155.078-.185.062-.078-.031-.124-.139-.17-.263-.047-.123-.093-.247-.17-.294-.063-.046-.156-.015-.233.032-.046.015-.077.046-.124.077-.046.015-.092.046-.124.062 0 .092.14.231.11.324-.032.016-.11.062-.14.046-.062-.107-.232-.355-.202-.463.016-.046.078-.093.155-.124.077-.03.155-.062.217-.093.031-.03.077-.046.124-.077.015 0 .031-.015.061-.03a.118.118 0 0 0 .063-.032c.031-.03.092-.045.123-.03.047.015.062.046.108.107.078.155.155.279.217.387v.015c.047.062.14.032.232-.015.108-.062.201-.139.279-.186.015-.092-.155-.216-.155-.308a.19.19 0 0 1 .14-.078Zm-.448.68c0-.015 0 0 0 0 0-.015 0 0 0 0Zm1.284-1.36c.061.047.154.123.262.232.078.078.14.154.078.232-.048.05-.1.097-.155.139l-.185.139c-.047.031-.11.093-.17.14-.062.045-.109.076-.155.076-.078-.015-.14-.123-.217-.232-.077-.108-.139-.231-.216-.262-.063-.031-.155.015-.233.078a.213.213 0 0 0-.061.045.212.212 0 0 0-.063.047c-.03.03-.061.062-.092.077 0 .108.17.232.139.325-.03.03-.077.062-.108.062a.928.928 0 0 1-.186-.217.62.62 0 0 1-.078-.14c-.015-.045-.03-.076-.015-.107a.339.339 0 0 1 .155-.14c.062-.03.14-.061.17-.092a1.88 1.88 0 0 1 .155-.124.333.333 0 0 1 .093-.061.254.254 0 0 1 .077-.032c.093.016.17.124.248.247.077.124.154.248.232.264.061 0 .139-.046.216-.124.046-.031.078-.078.109-.108a.408.408 0 0 1 .093-.078c0-.092-.186-.2-.201-.293a.217.217 0 0 1 .108-.093Zm-2.8 1.7c.03.093.077.201.108.279.046.092.062.185-.016.231a1.19 1.19 0 0 1-.309.108c-.124.032-.247.047-.34.093 0-.015-.016-.03-.016-.046 0 .016.016.03.016.046-.062.047-.155.032-.186.016-.078-.046-.093-.17-.109-.294-.015-.124-.03-.247-.092-.325-.046-.046-.14-.046-.232-.015l-.14.047c-.046.015-.092.015-.123.03-.031.093.062.279.015.356-.03.016-.108.03-.139.016 0-.062-.046-.17-.062-.263-.015-.109-.03-.202 0-.247.031-.047.093-.063.17-.078.047 0 .078-.015.124-.015h.124c.077-.032.185-.062.278-.078h.077c.032 0 .047 0 .063.016.04.035.068.084.077.139.03.17.077.309.108.433v.015c.031.062.124.062.233.03.015-.014.045-.014.076-.03.016-.015.047-.015.078-.031l.14-.046c.03-.078-.094-.247-.078-.34.031-.047.108-.062.154-.047Zm.99-.448c.03.062.108.17.185.247.062.093.093.186.016.248-.016.03-.047.046-.078.061l-.093.047c-.077.015-.139.047-.216.078-.015.015-.062.03-.093.045-.031.016-.046.016-.062.031-.031.016-.046.032-.061.032-.063.03-.14.045-.17.03-.078-.03-.109-.155-.155-.278-.047-.124-.078-.263-.14-.309-.031-.031-.061-.031-.108-.031-.016 0-.031.015-.062.015-.03.016-.047.016-.077.032-.093.03-.186.092-.248.107-.015.093.109.263.062.34a.363.363 0 0 1-.124.032c-.077-.093-.216-.418-.14-.51.017-.016.047-.031.078-.047a.284.284 0 0 0 .109-.031 1.83 1.83 0 0 0 .201-.046.26.26 0 0 0 .077-.03c.032-.016.078-.032.108-.048.063-.03.14-.061.186-.046.078.03.124.155.17.294.046.139.077.278.155.31.015.015.031.015.046.015.016 0 .047-.016.062-.016.032-.015.078-.031.124-.062.03-.03.077-.046.124-.078.03-.015.046-.015.061-.03.016 0 .032-.015.047-.015.031-.078-.108-.232-.108-.325.015-.031.077-.062.124-.062Zm-3.156.912c0 .093.031.217.046.325.015.108 0 .185-.077.216a.47.47 0 0 1-.155.03h-.186a1.375 1.375 0 0 0-.355 0c-.078.017-.17-.015-.186-.045-.046-.062-.031-.186-.015-.31.015-.123.031-.263-.016-.34-.03-.061-.124-.077-.216-.077-.093-.015-.201 0-.28 0-.06.078-.014.279-.076.34h-.078c-.03 0-.046-.015-.061-.03.015-.124-.016-.418.061-.495.032-.031.109-.031.186-.031.078 0 .17.03.232.03h.294a.18.18 0 0 1 .124.046c.015.032.03.079.03.156v.463c.016.062.109.093.217.093.109 0 .248-.016.325-.016.062-.076-.015-.262.031-.355.031-.031.124-.031.155 0Zm1.083-.17a.987.987 0 0 0 .108.278c.031.109.031.202-.047.247-.03.016-.061.016-.092.032-.032 0-.078.015-.109.015-.077.015-.155.015-.232.03-.015.016-.03.016-.046.016-.031.016-.046.016-.062.016-.046 0-.093.015-.124.015-.077 0-.154 0-.185-.015-.062-.047-.078-.17-.078-.31 0-.138 0-.277-.046-.34-.016-.015-.031-.015-.046-.03-.016 0-.047-.016-.063-.016-.046-.016-.092 0-.138 0-.063.016-.11.016-.155.031-.016 0-.046.016-.062.016h-.062c-.031.092.047.293-.031.355a.17.17 0 0 1-.124 0c-.046-.124-.092-.48 0-.541.046-.03.124-.03.201-.03h.201c.047 0 .124-.016.201-.016.078 0 .17-.016.201.015.078.047.093.186.093.325s0 .294.063.34c.032.02.07.03.108.03h.077c.031 0 .046-.014.077-.014a1.04 1.04 0 0 1 .264-.062c.03-.093-.063-.264-.032-.356a.151.151 0 0 1 .14-.031Zm-3.435.031c.047-.016.124 0 .124-.016-.031.093-.031.217-.046.326-.015.092-.062.184-.14.184-.046 0-.092 0-.154-.015a2.557 2.557 0 0 0-.17-.046 2.519 2.519 0 0 0-.17-.047c-.016 0-.047-.015-.078-.015s-.046-.015-.077-.015c-.077.015-.155-.047-.17-.078-.032-.077.015-.2.061-.31.047-.107.093-.23.078-.324-.016-.077-.093-.108-.186-.139-.093-.03-.2-.03-.278-.062a.572.572 0 0 0-.078.17c-.015.078-.03.124-.077.155-.031 0-.108-.03-.124-.062.032-.108.078-.402.186-.464.015-.015.046-.015.077-.015s.077.015.109.031c.077.016.154.062.216.077a.45.45 0 0 1 .14.031l.138.047c.047.015.093.046.109.077.03.03.015.077 0 .154-.031.17-.077.31-.109.433-.015.015-.015.031-.015.047.015-.016.015-.016.015-.032 0 .032.016.063.047.093.031.032.077.047.14.062.107.031.247.062.324.078.078-.047.047-.248.108-.326v.001Zm1.238.155c-.015.077.015.2.046.293a.46.46 0 0 1-.03.155c-.016.046-.047.077-.094.077-.123.03-.278-.015-.433-.03-.123-.016-.355-.016-.402-.078-.031-.016-.031-.062-.031-.124s.015-.123.031-.185c.016-.124.062-.263.032-.34-.032-.062-.125-.093-.217-.108-.047-.016-.109-.016-.155-.016s-.093-.015-.124-.015c-.062.061-.046.278-.123.325a.363.363 0 0 1-.124-.032c-.016-.108.03-.463.139-.51a.482.482 0 0 1 .2.015c.032 0 .047.016.063.016.015 0 .03.016.046.016.031 0 .062.015.093.015.046.015.124.015.201.03.031 0 .046.017.062.017.015 0 .031.015.047.015.03 0 .061.015.077.03.062.063.03.202 0 .34-.031.14-.077.28-.031.34.031.063.123.078.232.078.108 0 .216-.015.278 0 .062-.061.016-.262.062-.34.016-.015.047-.015.077-.015.016.015.032.015.047.015.016 0 .016.016.031.016Zm-3.249-.835c.015.012.03.023.047.031-.047.077-.077.201-.124.293-.046.093-.108.17-.186.155-.092-.031-.185-.093-.293-.155-.032-.015-.047-.03-.078-.046-.031-.015-.046-.031-.077-.046-.062-.031-.109-.062-.155-.078.016 0 .016-.015.016-.015-.016 0-.016.016-.016.016-.062-.016-.14-.093-.14-.124-.015-.078.063-.17.14-.278.077-.093.17-.202.17-.294.016-.062-.061-.124-.139-.17a.658.658 0 0 0-.14-.078c-.046-.015-.092-.046-.123-.061-.077.046-.139.231-.233.263-.03-.016-.107-.062-.107-.093.077-.093.201-.371.31-.402.046-.015.107.015.169.061.031.032.063.047.093.079.031.014.062.045.093.06.062.047.17.094.247.155.032.016.078.062.078.093 0 .046 0 .093-.047.154-.077.155-.154.279-.216.387v.015c-.031.078.046.14.139.202.093.061.217.108.294.154.093-.031.124-.247.201-.294.015-.015.047 0 .077.016Zm.929.402c.046-.016.108.015.17.077-.016.078-.032.201-.062.309-.031.109-.078.202-.17.185a1.434 1.434 0 0 1-.201-.061c-.032-.015-.078-.031-.109-.046-.031-.016-.077-.031-.108-.047-.124-.047-.34-.093-.371-.17-.032-.078.031-.186.093-.31.061-.123.123-.246.123-.324-.015-.061-.092-.124-.186-.154-.03-.016-.046-.016-.077-.03-.031-.017-.046-.017-.077-.032-.032-.016-.077-.03-.108-.046-.077.046-.109.262-.201.278-.032 0-.093-.031-.109-.062.016-.123.155-.449.263-.464.093-.015.263.123.356.17.062.03.31.108.34.186.031.061-.03.201-.092.325-.063.123-.14.247-.108.324.03.061.123.093.216.123.093.031.2.047.263.078.077-.047.077-.247.155-.31Zm-2.847-1.654a.242.242 0 0 1 .124.123c-.062.078-.14.186-.201.263-.078.078-.14.124-.217.093-.046-.015-.077-.062-.123-.093l-.063-.062c-.015-.015-.046-.03-.061-.061a1.235 1.235 0 0 0-.248-.247c-.077-.032-.108-.124-.108-.155 0-.078.092-.155.201-.232.093-.077.201-.154.232-.247.016-.031 0-.078-.016-.108 0-.016-.015-.032-.03-.047l-.032-.03-.03-.032c-.062-.077-.155-.14-.201-.201-.093.016-.201.186-.294.186-.032-.031-.077-.093-.077-.124.093-.078.278-.31.402-.31.031 0 .046.016.077.032.031.015.046.046.077.077.047.062.093.139.14.186l.046.046c.031.016.046.031.062.046.046.031.077.078.108.109.031.046.062.092.062.123 0 .047-.016.078-.077.14l-.31.308-.015.016c-.046.046 0 .14.077.216a.487.487 0 0 0 .124.124c.015.016.047.03.062.046l.046.046c.093-.014.17-.2.263-.231Zm.866.68c.047 0 .109.03.124.108-.031.062-.077.186-.14.279-.06.092-.123.17-.215.139-.124-.032-.233-.155-.356-.248-.032-.015-.062-.046-.093-.062-.032-.03-.062-.046-.093-.077a.463.463 0 0 1-.124-.139c-.015-.062.077-.17.17-.263.093-.093.186-.201.201-.278 0-.047 0-.078-.031-.108a.262.262 0 0 0-.092-.093c-.078-.062-.17-.108-.217-.155-.093.032-.186.217-.279.217-.03 0-.077-.046-.092-.078.062-.107.278-.386.387-.37a.25.25 0 0 1 .077.03c.016 0 .031.016.046.032l.016.015.015.015.14.14a.213.213 0 0 0 .061.046c.032.03.062.046.093.078a.33.33 0 0 1 .124.138c.016.078-.077.185-.17.294-.093.108-.186.217-.186.293 0 .032.015.062.047.093.03.016.077.046.123.078a.996.996 0 0 1 .233.139c.092-.031.154-.217.231-.263Zm-1.562-1.345c-.062.047-.14.155-.232.263-.078.077-.155.14-.232.077-.05-.047-.097-.1-.14-.154L5 17.688c-.031-.046-.093-.108-.138-.17-.047-.062-.078-.108-.078-.154.015-.078.123-.14.232-.217.108-.077.232-.139.263-.216.031-.062-.015-.155-.077-.232a.213.213 0 0 0-.047-.062.213.213 0 0 0-.046-.061.438.438 0 0 1-.078-.093c-.108 0-.232.17-.325.139-.03-.032-.061-.078-.061-.109a.965.965 0 0 1 .217-.185c.045-.03.092-.062.138-.078.047-.015.078-.03.109-.015.06.035.11.09.139.155.031.061.062.139.093.17.03.03.077.092.124.154.03.031.046.063.061.093.016.031.032.062.032.078-.016.092-.125.17-.248.247-.124.077-.247.154-.263.232 0 .062.046.139.124.216.031.047.077.078.108.108.03.027.056.058.077.093.093 0 .201-.186.294-.201a.219.219 0 0 1 .093.108Zm-1.702-2.813c-.093.031-.201.093-.294.123-.093.047-.186.062-.233-.015a1.198 1.198 0 0 1-.107-.309c-.032-.123-.047-.247-.093-.34.015 0 .031-.016.061-.03-.015 0-.03.014-.046.014-.046-.061-.031-.154-.015-.185.046-.077.17-.092.294-.108.124-.016.247-.031.325-.093.046-.046.046-.14.015-.232l-.045-.139c-.015-.046-.015-.093-.031-.123-.093-.032-.279.061-.356.015-.016-.03-.031-.108-.016-.139.063 0 .17-.047.264-.062.108-.015.2-.03.247 0 .046.031.062.093.078.17 0 .046.015.077.015.124v.123c.031.078.062.186.077.279v.077c0 .03 0 .046-.015.062-.032.03-.062.062-.14.077-.17.03-.309.078-.433.108h-.015c-.062.031-.062.124-.031.232.016.015.016.046.031.078.015.015.015.045.031.076l.046.14c.078.03.248-.093.34-.078.047.031.062.109.047.155h-.001Zm.449 1.005a.865.865 0 0 0-.248.185c-.093.062-.186.093-.248.016-.031-.016-.046-.046-.061-.078l-.047-.092c-.015-.078-.046-.14-.077-.217-.016-.015-.031-.061-.047-.093-.015-.03-.015-.046-.031-.061-.015-.031-.03-.047-.03-.062-.032-.062-.047-.14-.032-.17.032-.078.155-.108.279-.155.124-.046.263-.077.31-.139.03-.031.03-.062.03-.108 0-.015-.015-.031-.015-.062-.015-.03-.015-.046-.032-.078-.03-.092-.092-.184-.107-.247-.093-.015-.263.109-.34.063a.364.364 0 0 1-.032-.124c.093-.078.418-.216.51-.14a.32.32 0 0 1 .047.078.287.287 0 0 0 .032.108c.015.078.03.154.046.201a.27.27 0 0 0 .03.077c.016.031.032.078.047.109.031.061.062.139.046.185-.031.077-.154.123-.294.17-.139.046-.278.077-.309.154-.016.016-.016.032-.016.047s.016.046.016.062c.016.03.031.077.062.124.031.03.046.077.077.123.016.03.016.046.031.062 0 .016.015.03.015.046.078.031.233-.108.325-.108.032.016.063.078.063.124Zm-1.238-3.123c-.109.016-.202 0-.217-.077a.451.451 0 0 1-.031-.155v-.185a1.366 1.366 0 0 0 0-.355c-.015-.078.016-.17.046-.186.063-.046.186-.03.31-.015s.263.03.34-.016c.062-.03.078-.123.078-.216.015-.093 0-.201 0-.278-.078-.062-.279-.016-.34-.078v-.077c0-.03.015-.046.031-.062.123.015.417-.015.495.062.03.03.03.108.03.186 0 .077-.031.17-.031.231v.294a.178.178 0 0 1-.046.124.332.332 0 0 1-.155.03h-.464c-.062.016-.092.109-.092.217s.015.247.015.325c.077.061.263-.016.355.03.032.031.032.124 0 .155-.092 0-.216.03-.324.046Zm.186 1.129c-.109.03-.202.03-.248-.046-.016-.032-.016-.062-.016-.078 0-.031-.015-.077-.015-.108-.016-.077-.016-.155-.031-.232-.015-.016-.015-.031-.015-.046-.016-.031-.016-.047-.016-.062 0-.047-.015-.093-.015-.123 0-.078 0-.155.015-.186.046-.062.17-.078.31-.078.139 0 .278 0 .34-.046.015-.015.015-.03.031-.046 0-.016.015-.047.015-.062.016-.047 0-.093 0-.14-.015-.06-.015-.108-.031-.154 0-.015-.015-.046-.015-.062v-.061c-.093-.032-.294.046-.356-.032a.17.17 0 0 1 0-.123c.124-.046.48-.093.542 0 .03.047.03.123.03.201v.2c0 .048.016.124.016.202 0 .077.015.17-.015.2-.047.078-.186.094-.325.094-.14 0-.294 0-.34.061a.224.224 0 0 0-.032.108v.078c0 .031.016.046.016.077.03.093.062.201.062.263.093.031.263-.062.355-.031.032.03.047.093.032.139-.078.015-.186.062-.294.093Zm-.093-3.416c-.109-.016-.186-.046-.14-.17 0-.046 0-.093.016-.155.015-.046.031-.108.046-.17a2.28 2.28 0 0 0 .047-.17c0-.016.015-.046.015-.077 0-.03.016-.046.016-.077-.016-.078.046-.155.077-.17.077-.031.186.015.31.061.108.046.232.093.324.078.078-.016.109-.093.14-.186.03-.093.03-.201.062-.278a.572.572 0 0 0-.17-.077c-.078-.016-.124-.031-.155-.078 0-.03.03-.108.061-.123.108.03.403.077.465.185.015.016.015.047.015.078a.287.287 0 0 1-.032.108c-.015.077-.061.154-.076.216a.451.451 0 0 1-.032.14l-.046.138c-.015.046-.046.093-.077.109-.031.03-.077.015-.155 0-.17-.031-.31-.078-.433-.109-.015-.015-.03-.015-.047-.015.016.015.016.015.032.015-.032 0-.062.016-.093.046-.032.032-.047.078-.062.14a4.885 4.885 0 0 0-.078.325c.047.077.248.045.325.108.032.046 0 .123-.03.155-.094-.032-.217-.032-.325-.047Zm-.248 1.128c-.047-.03-.077-.046-.062-.062-.031-.123.015-.278.031-.432.016-.124.016-.356.077-.402.016-.031.063-.031.124-.031.062 0 .124.015.186.03.123.016.263.063.34.031.062-.03.093-.123.108-.215.016-.047.016-.11.016-.155 0-.046.016-.093.016-.124-.062-.062-.28-.047-.325-.123a.355.355 0 0 1 .03-.124c.109-.016.464.03.51.139.017.046 0 .123-.014.201 0 .03-.016.046-.016.061 0 .016-.016.032-.016.047 0 .03-.015.062-.015.092-.015.047-.015.124-.031.202 0 .03-.015.046-.015.061 0 .016-.016.031-.016.047a.118.118 0 0 1-.03.077c-.062.062-.202.031-.341 0-.14-.03-.279-.078-.34-.03-.062.03-.078.123-.078.231 0 .108.016.216 0 .278.062.062.263.016.34.062.016.015.016.047.016.078-.016.015-.016.03-.016.045 0 .016-.015.016-.015.032-.077 0-.2.015-.31.015a.443.443 0 0 1-.154-.031Zm.944-3.308c-.093-.046-.17-.093-.124-.2.031-.094.093-.186.155-.294.015-.031.031-.046.046-.077.016-.031.032-.047.047-.078.03-.061.061-.108.077-.154 0 .015.016.015.016.015 0-.015-.016-.015-.016-.015.016-.062.093-.14.124-.14.077-.015.17.062.278.14.093.077.201.17.294.17.062.015.124-.062.17-.14a.626.626 0 0 0 .078-.138c.015-.047.046-.093.061-.124-.046-.078-.232-.14-.263-.232.016-.031.062-.108.093-.108.093.077.371.2.402.309.016.046-.015.108-.061.17-.032.03-.047.062-.078.093-.015.03-.046.061-.062.093-.046.061-.092.17-.154.247-.016.03-.062.077-.093.077-.047 0-.093 0-.155-.047-.155-.076-.278-.154-.386-.216h-.016c-.077-.03-.138.047-.2.14-.062.092-.109.215-.155.293.031.093.247.123.294.201.015.015 0 .046-.016.077s-.046.046-.061.062c-.078-.046-.202-.077-.295-.124Zm-.402 1.067c-.108-.031-.201-.077-.201-.14a1.49 1.49 0 0 1 .061-.2c.016-.03.032-.078.047-.108.015-.031.031-.078.046-.109.047-.123.093-.34.17-.37.078-.032.186.03.31.093.123.061.247.123.325.123.062-.015.123-.093.154-.186.016-.03.016-.062.016-.077.015-.03.015-.046.031-.078.015-.03.03-.076.046-.108-.046-.076-.263-.108-.278-.2 0-.031.031-.093.061-.108.124.015.449.154.465.262.015.093-.124.263-.17.356-.032.062-.109.309-.186.34-.062.03-.201-.031-.325-.093s-.247-.14-.325-.108c-.062.03-.093.124-.124.216-.031.093-.046.202-.077.263.047.078.248.078.31.155.015.046-.016.108-.047.139-.077-.016-.201-.03-.31-.062Zm1.64-2.999c-.093-.077-.14-.139-.109-.2.016-.047.062-.078.093-.124l.062-.062c.015-.016.031-.046.062-.062.092-.078.185-.155.247-.247.031-.078.124-.109.155-.109.077 0 .155.093.232.202.077.092.155.2.248.232.03.015.077 0 .108-.016.015 0 .031-.016.046-.031l.032-.03.03-.032c.077-.062.14-.154.2-.2-.014-.093-.185-.202-.185-.294.032-.031.093-.078.124-.078.078.093.31.279.31.402 0 .03-.016.046-.031.078-.016.03-.047.045-.078.076-.062.047-.14.093-.186.14l-.046.046c-.015.031-.031.046-.046.062-.031.046-.077.078-.109.108-.046.031-.092.062-.123.062-.046 0-.078-.016-.14-.077l-.309-.31-.077-.077-.046-.046.046.046.062.062c-.047-.046-.14 0-.217.077a.47.47 0 0 0-.124.124c-.015.016-.03.046-.046.062l-.046.047c.015.092.2.17.232.262 0 .046-.062.108-.109.108-.077-.062-.186-.139-.263-.2Zm-.666.928c-.108-.047-.17-.124-.17-.217.031-.123.155-.231.248-.355.015-.031.046-.062.061-.093.032-.03.047-.062.077-.093a.465.465 0 0 1 .14-.124c.062-.014.17.079.263.17.093.093.2.186.278.202.047 0 .078 0 .109-.031a.263.263 0 0 0 .092-.093c.062-.078.109-.17.155-.216-.031-.093-.216-.186-.216-.279 0-.03.046-.077.077-.093.108.062.387.279.37.387a.26.26 0 0 1-.03.077c0 .016-.015.031-.03.047l-.016.015-.016.015-.139.14a.214.214 0 0 0-.046.061c-.032.032-.047.062-.077.093-.047.062-.093.108-.14.124-.077.016-.185-.077-.294-.17-.108-.093-.216-.186-.293-.186-.032 0-.063.016-.093.047-.024.042-.05.084-.078.124a.978.978 0 0 1-.14.231c.032.093.218.155.264.232 0 .046-.031.108-.077.124-.063-.031-.186-.078-.279-.14ZM7.165 5.06c-.061-.078-.139-.17-.185-.278-.062-.093-.108-.17-.047-.232l.047-.046a.213.213 0 0 1 .062-.047c.046-.03.093-.062.155-.093.046-.03.108-.061.154-.093l.14-.092c.061-.062.154-.078.185-.062.077.03.124.14.17.263.046.124.093.247.17.293.062.047.155.016.233-.03.046-.016.077-.047.123-.078.046-.015.093-.046.124-.061 0-.093-.14-.233-.108-.326.031-.015.108-.06.14-.045.06.108.231.355.2.463-.016.047-.077.093-.154.123-.074.029-.146.06-.217.093-.032.032-.078.047-.124.079-.016 0-.031.014-.062.03a.118.118 0 0 0-.062.03c-.031.032-.093.047-.124.032-.046-.016-.061-.047-.108-.109-.077-.154-.154-.278-.217-.386v-.016c-.046-.061-.138-.03-.232.016-.107.062-.201.14-.278.185-.015.093.155.217.155.31a.188.188 0 0 1-.14.077Zm-.85.696c-.062-.062-.155-.14-.263-.232-.077-.078-.14-.155-.077-.232.047-.046.093-.093.155-.14l.186-.139c.046-.03.108-.092.17-.139.062-.046.108-.077.154-.077.078.015.14.123.217.232.077.108.14.232.217.263.061.031.154-.016.231-.078a.2.2 0 0 0 .062-.046.213.213 0 0 0 .062-.046c.032-.031.062-.062.093-.078 0-.108-.17-.232-.14-.324.032-.031.078-.062.109-.062a.94.94 0 0 1 .186.216c.03.047.061.093.077.14.015.046.032.077.015.108a.339.339 0 0 1-.154.139c-.062.03-.14.062-.17.093a1.73 1.73 0 0 1-.155.123.324.324 0 0 1-.093.062c-.031.015-.062.031-.077.031-.093-.016-.17-.123-.248-.247-.077-.124-.154-.247-.232-.263-.062 0-.139.046-.216.124-.047.03-.078.077-.108.108a.422.422 0 0 1-.093.077c0 .093.185.201.2.293a.217.217 0 0 1-.107.093v.001Zm2.8-1.717c-.015-.076-.077-.2-.108-.292-.046-.093-.062-.186.015-.233.078-.046.186-.078.31-.108s.248-.046.34-.093c.062-.046.155-.03.186 0 .077.047.092.17.108.294.016.123.032.247.093.325.047.045.139.045.232.015l.14-.046c.045-.016.092-.016.123-.031.031-.093-.062-.278-.015-.356.031-.015.108-.03.139-.015 0 .062.046.17.062.263.015.107.031.2 0 .247-.032.046-.093.061-.17.078-.047 0-.078.015-.124.015h-.124c-.09.035-.184.06-.279.077h-.076c-.032 0-.047 0-.062-.016a.236.236 0 0 1-.077-.139c-.032-.17-.078-.309-.109-.432 0-.031-.015-.063-.015-.078 0 .015.015.047.015.062-.03-.062-.124-.062-.232-.031-.015.016-.046.016-.077.031-.016.016-.047.016-.077.03l-.14.048c-.03.076.093.247.077.34-.03.045-.108.061-.154.045Zm-.99.449a1.139 1.139 0 0 0-.185-.247c-.062-.093-.093-.186-.016-.247.016-.032.047-.047.078-.063l.092-.045c.078-.017.14-.047.217-.078.016-.015.062-.03.093-.046.03-.016.046-.016.061-.032.032-.015.047-.03.063-.03.061-.031.139-.046.17-.031.077.03.108.154.155.278.046.123.077.263.138.31.032.03.063.03.11.03.014 0 .03-.016.06-.016.032-.015.047-.015.078-.03.093-.031.185-.093.248-.109.015-.092-.108-.262-.063-.34a.364.364 0 0 1 .124-.03c.078.093.217.417.14.51a.338.338 0 0 1-.078.046.287.287 0 0 0-.108.03 2.018 2.018 0 0 0-.2.047.262.262 0 0 0-.079.031c-.03.016-.077.031-.108.046-.061.032-.139.062-.185.047-.077-.031-.124-.155-.17-.294-.047-.139-.078-.278-.155-.309-.016-.015-.031-.015-.046-.015-.016 0-.047.015-.063.015-.03.015-.077.03-.123.062-.031.03-.078.046-.124.077-.031.015-.046.015-.062.031-.015 0-.031.016-.046.016-.031.077.108.231.108.324-.015.031-.077.062-.123.062Zm3.156-.912c0-.093-.031-.216-.046-.325-.016-.108 0-.185.077-.216.05-.02.102-.03.155-.031h.185c.124.016.248.016.356 0 .078-.015.17.016.186.047.046.062.031.185.015.309-.015.123-.03.262.016.34.031.062.123.077.216.077.093.016.202 0 .279 0 .061-.078.015-.278.077-.34h.077c.032 0 .047.016.062.03-.015.124.016.418-.062.495-.031.032-.108.032-.185.032s-.17-.032-.232-.032h-.294a.175.175 0 0 1-.124-.046.332.332 0 0 1-.031-.154v-.464c-.015-.062-.108-.093-.216-.093s-.248.015-.325.015c-.062.078.015.263-.032.356-.03.03-.123.03-.154 0Zm-1.083.17a1.872 1.872 0 0 0-.108-.309c-.031-.108-.031-.202.046-.247.032-.016.062-.016.093-.031.031 0 .078-.016.109-.016.077-.015.154-.015.232-.03.015-.016.03-.016.046-.016.031-.016.046-.016.062-.016.046 0 .092-.015.123-.015.078 0 .155 0 .186.015.062.047.078.17.078.31 0 .138 0 .278.046.37.015.016.03.016.047.032.015 0 .046.015.061.015.047.015.093 0 .14 0 .061-.015.108-.015.154-.03.015 0 .047-.016.062-.016h.062c.03-.093-.046-.294.03-.356a.17.17 0 0 1 .125 0c.046.123.093.48 0 .54-.047.032-.124.032-.201.032h-.201c-.047 0-.124.016-.202.016-.077 0-.17.015-.2-.016-.078-.047-.094-.185-.094-.325 0-.139 0-.293-.061-.34a.223.223 0 0 0-.109-.03h-.077c-.031 0-.047.015-.078.015a1.04 1.04 0 0 1-.262.062c-.032.093.061.262.03.355a.15.15 0 0 1-.139.03Zm2.413 1.684h-.03c-.047-.015-.062-.03-.062-.03 0-.015 0-.03.015-.062.062-.108.124-.216.186-.309.061-.077.124-.17.185-.263l.032-.03c.015-.031.046-.046.061-.063a.283.283 0 0 1 .124-.03h.015c.047.015.062.015.093.046.016.016-.015.062-.03.077-.016.016-.032.046-.047.062-.016.016-.032.046-.047.062-.015.015-.015.031-.03.046-.016.031-.047.062-.062.093-.062.093-.14.185-.201.294l-.016.015c-.031.031-.046.047-.062.047 0 0-.015 0-.015.015-.016 0-.032.015-.047.015-.031.016-.046.016-.061.016Zm-.402-.03h-.015c-.047 0-.062-.03-.062-.03s0-.032.015-.047a5.17 5.17 0 0 1 .17-.31l.094-.154c.015-.03.03-.047.046-.078.015-.03.031-.045.046-.076a.121.121 0 0 1 .062-.062c.031-.016.078-.047.124-.047s.062.016.108.047c.016.015-.016.062-.031.092l-.186.278c-.077.124-.139.217-.185.31-.031.045-.046.045-.062.062h-.015s-.063.015-.11.015Zm1.238.154c-.016 0-.047 0-.062-.015a.107.107 0 0 1-.062-.046c0-.016 0-.032.031-.046.062-.093.139-.17.232-.279.062-.077.14-.155.217-.247l.031-.031c.015-.016.046-.046.077-.046.015 0 .062-.016.108-.016h.031a.199.199 0 0 1 .093.062c0 .015-.016.062-.046.077-.093.093-.17.17-.233.247-.046.047-.077.093-.123.14-.046.046-.078.093-.124.139-.046.03-.062.03-.077.046h-.016c0 .015-.031.015-.077.015Zm-.402-.077h-.047c-.046-.016-.062-.03-.062-.046s0-.031.016-.046c.031-.031.046-.078.077-.109l.031-.046c.031-.031.046-.062.077-.093.016-.015.031-.03.031-.046l.232-.279a.345.345 0 0 1 .078-.061c.015-.016.062-.03.108-.03h.031c.046.014.062.014.093.06a.261.261 0 0 1-.031.078c-.078.093-.155.17-.217.247l-.232.279c-.03.045-.046.045-.062.062h-.015a.223.223 0 0 1-.108.03Zm1.206.31c-.031 0-.046 0-.077-.016-.046-.016-.046-.046-.046-.046s.015-.031.03-.047a4.09 4.09 0 0 1 .264-.247c.077-.062.154-.14.247-.217L14.7 5.2a.349.349 0 0 0 .077-.046c.015 0 .047-.016.078-.016.015 0 .046 0 .061.016.047.015.062.03.093.077 0 .016-.031.062-.046.077l-.14.108c-.046.032-.092.078-.139.109a11.4 11.4 0 0 1-.278.231c-.047.032-.047.032-.062.032h-.093Zm-.387-.124c-.03 0-.046 0-.061-.016a.107.107 0 0 1-.062-.046s0-.03.03-.046c.08-.091.162-.18.248-.263.046-.046.093-.093.124-.14.031-.03.062-.061.093-.077l.046-.046a.338.338 0 0 1 .077-.046c.016 0 .047-.016.093-.016h.047c.03.016.046.016.061.03.016.016.016.016.032.048 0 .015-.016.046-.047.077-.077.062-.155.139-.247.216-.093.093-.186.17-.264.247-.046.031-.046.031-.077.047h-.015a.118.118 0 0 1-.078.03v.001Zm1.176.448c-.03 0-.077 0-.108-.031l-.047-.046v-.016c0-.016.016-.031.032-.047.108-.077.2-.154.293-.216l.279-.186.031-.015a.118.118 0 0 1 .077-.03h.031c.047 0 .077 0 .092.014.047.031.063.047.078.078 0 .015-.031.046-.062.061-.108.062-.2.124-.294.17l-.03.016-.279.186c-.046.03-.062.03-.077.03h-.016c.016.032.016.032 0 .032Zm-.37-.17c-.017 0-.063 0-.094-.03-.046-.016-.046-.048-.046-.063s.015-.03.031-.046c.03-.015.046-.046.077-.062.031-.015.046-.046.077-.062.047-.03.077-.062.124-.108l.016-.016c.108-.077.2-.154.294-.216a.25.25 0 0 1 .077-.03h.061c.032 0 .063 0 .078.015.046.015.062.03.077.077 0 .015-.03.047-.046.061l-.279.186-.015.015a.894.894 0 0 0-.124.093c-.062.047-.108.078-.14.108-.046.032-.06.032-.076.032h-.016c-.046.046-.062.046-.077.046Zm1.082.587c-.016 0-.032 0-.047-.015-.031-.016-.046-.016-.077-.031a.236.236 0 0 1-.046-.062c0-.016.015-.03.046-.046.108-.062.216-.124.325-.17.092-.047.185-.093.294-.14l.03-.015c.032-.015.063-.015.078-.015h.108s.016 0 .032.015c.046.031.046.046.061.093 0 .015-.046.047-.062.062l-.061.03c-.078.031-.17.078-.248.109a3.39 3.39 0 0 0-.325.17h-.016c-.046.015-.046.015-.077.015h-.015c.015 0 .015 0 0 0Zm-.34-.216a.46.46 0 0 1-.125-.031c-.046-.03-.046-.062-.046-.062 0-.015.016-.03.046-.046.11-.078.217-.14.31-.202.015-.015.046-.03.062-.045a.323.323 0 0 0 .093-.063c.046-.03.108-.061.154-.092.016-.016.047-.016.078-.031h.015c.046 0 .093 0 .124.031.046.03.046.046.078.092 0 .016-.032.047-.063.063-.046.015-.093.045-.154.077-.032.015-.047.03-.078.046-.03.015-.046.031-.077.046a2.335 2.335 0 0 0-.31.186c-.045.031-.061.031-.077.031h-.03c.015 0 0 0 0 0Zm1.021.727h-.031c-.031 0-.093-.016-.123-.062-.032-.031-.032-.062-.032-.078 0-.015.016-.015.047-.03.108-.047.216-.093.34-.14.108-.03.201-.077.31-.108l.03-.016c.016 0 .032-.015.062-.015h.032c.046 0 .107.015.123.046a.2.2 0 0 1 .062.093c0 .016-.031.031-.078.047-.092.03-.185.062-.324.092-.109.031-.217.078-.34.124-.047.047-.063.047-.078.047Zm-.325-.263h-.015a.206.206 0 0 1-.124-.047c-.031-.03-.031-.062-.031-.062 0-.015.016-.015.046-.03.109-.047.202-.109.325-.155.108-.046.217-.092.34-.14.032-.015.047-.015.078-.015h.015a.203.203 0 0 1 .186.14c0 .015-.046.046-.062.061-.108.047-.217.078-.31.124-.046.015-.108.046-.17.062a.572.572 0 0 0-.169.077c-.063-.015-.078-.015-.109-.015.016 0 .016 0 0 0Zm.635.556h-.047a.235.235 0 0 1-.124-.062c-.03-.03-.03-.062-.03-.077 0 0 .015-.015.046-.03.108-.047.232-.078.34-.109l.093-.031.077-.016c.062-.015.124-.03.17-.046h.078c.046.016.108.03.123.062.032.031.047.046.047.108 0 .015-.047.047-.077.047-.047.015-.093.015-.14.03l-.046-.015-.093.03c-.108.032-.232.063-.355.094-.016 0-.047.015-.063.015Zm.293.294h-.046s-.031-.016-.047-.016a.208.208 0 0 1-.061-.046c-.032-.031-.032-.062-.016-.077 0 0 .016-.016.047-.03.108-.032.232-.063.355-.094.108-.031.217-.046.325-.077h.124a.118.118 0 0 1 .062.03c.031.016.046.031.062.046.031.047.046.063.046.109 0 .016-.046.031-.077.047-.11.013-.218.034-.325.062l-.093.015-.093.015c-.057.014-.113.03-.17.047h-.015c-.047-.031-.062-.031-.078-.031Zm.279.309h-.062a.201.201 0 0 1-.108-.078c-.016-.015-.016-.045-.016-.061V7.78s.015-.016.046-.016c.124-.031.233-.046.357-.062.046-.015.092-.015.139-.015l.232-.047h.015c.016 0 .047 0 .062.016a.337.337 0 0 1 .123.077c.032.047.032.062.032.108 0 .015-.032.03-.077.03a2.539 2.539 0 0 1-.325.032c-.124.016-.248.03-.357.062-.03-.031-.046-.031-.061-.031Zm.262.34c-.045 0-.061 0-.077-.016h-.015c-.016 0-.077-.045-.109-.092-.015-.046-.015-.062-.015-.078 0 0 .015-.015.047-.015l.355-.046c.109-.016.217-.016.325-.032h.047c.03 0 .046 0 .077.016s.093.046.108.077c.016.016.016.047.032.047v.061a.132.132 0 0 1-.093.032c-.093 0-.217 0-.34.015-.094 0-.218.015-.341.03Zm.233.356c-.062 0-.077 0-.093-.016h-.016c-.015 0-.03-.016-.046-.03-.015-.016-.046-.032-.046-.062-.016-.047-.016-.078-.016-.078s.016-.015.047-.015c.108-.016.232-.016.355-.032.14 0 .248-.015.371-.015.032 0 .063 0 .094.015.015 0 .03.016.061.032.016 0 .016.015.032.03 0 0 .015.016.015.031.016.047.031.062.016.108 0 .016-.047.032-.078.032h-.34c-.093-.016-.217 0-.356 0Zm.912.401c-.015 0-.015 0 0 0h-.015c-.108-.015-.216-.015-.325-.03-.062 0-.123 0-.186-.016h-.2c-.047 0-.062-.015-.078-.015 0 0-.016 0-.016-.016-.015-.016-.061-.046-.092-.093-.016-.045-.016-.077 0-.077.015 0 .03-.015.062-.015h.371c.108 0 .217 0 .325.015l.031.015a.22.22 0 0 1 .093.031c.031.016.077.047.093.093.015.047.03.062.015.108-.015-.015-.047 0-.078 0Zm.186.418h-.031l-.325-.047c-.139-.015-.262-.03-.355-.03-.062-.016-.062-.016-.093-.032h-.016c-.015-.015-.077-.061-.093-.108-.015-.046 0-.077 0-.077s.016-.016.063-.016c.123 0 .232.016.355.016.124.016.248.016.371.031.032 0 .063.015.078.03a.26.26 0 0 1 .092.094.262.262 0 0 1 .016.108c-.016.03-.031.03-.061.03Zm.155.417h-.062c-.047-.015-.093-.015-.139-.03l-.17-.032c-.124-.016-.233-.046-.356-.062-.046-.015-.046-.015-.062-.03 0 0-.015 0-.015-.016-.016-.016-.063-.062-.078-.109a.105.105 0 0 1 0-.076h.062c.108.015.217.015.34.03h.016c.031 0 .062.016.077.016.031 0 .062 0 .077.016.032 0 .047.014.078.014s.062.016.078.016h.03c.031 0 .062.016.078.031.031.03.077.062.093.108 0 .016.015.016.015.031v.031c0 .016 0 .031-.015.047-.016.015-.047.015-.047.015Zm.124.448h-.047l-.062-.015c-.092-.031-.17-.046-.262-.078a2.423 2.423 0 0 0-.356-.077c-.047-.015-.062-.03-.078-.03 0 0-.015 0-.015-.016 0 0-.016-.016-.032-.046 0-.016-.015-.016-.015-.031 0-.016-.015-.016-.015-.032-.015-.045 0-.061.015-.076h.063c.03 0 .061.015.092.015s.062.015.077.015h.016c.046.016.108.016.154.031.078.015.155.031.217.047.047.015.093.015.14.03.03 0 .061.016.076.031.032.016.078.062.078.108.015.047.015.078 0 .109-.015.015-.031.015-.046.015Zm.108.449c-.016 0-.032 0-.062-.016-.108-.03-.216-.077-.31-.108l-.138-.047-.032-.015c-.061-.015-.108-.031-.17-.047h-.015a.148.148 0 0 1-.062-.03l-.015-.016c-.016-.015-.063-.061-.063-.123-.015-.046 0-.078.016-.078h.062c.062.016.123.031.17.046.062.016.124.032.17.047.124.03.217.062.31.093l.046.015c.031.016.046.032.077.046a.648.648 0 0 1 .078.109c.015.046 0 .062-.016.108-.031.016-.046.016-.046.016Zm.061.463c-.03 0-.045-.015-.061-.015a4.326 4.326 0 0 0-.31-.124l-.046-.015c-.093-.031-.2-.078-.294-.108a.165.165 0 0 1-.077-.047l-.016-.015c-.015-.016-.061-.078-.061-.124 0-.047.015-.062.015-.078h.046c.124.031.233.078.34.109.116.034.23.075.34.123.032.016.047.032.079.047.03.046.061.092.061.124 0 .046 0 .077-.015.108.03 0 .015.015 0 .015Zm.032.433c-.032 0-.047-.015-.062-.015-.093-.047-.17-.093-.263-.124l-.046-.015c-.124-.047-.233-.109-.341-.14h-.015c-.047-.015-.047-.03-.062-.046l-.015-.015a.23.23 0 0 1-.047-.124c0-.047.015-.062.03-.078h.017c.015 0 .03 0 .045.016.11.046.233.077.341.124.047.015.093.03.155.062.046.015.093.046.154.062l.032.015c.03.015.046.03.061.046.016.03.062.078.062.124v.062c0 .015-.015.03-.031.046h-.015Zm.015.463c-.015 0-.046-.014-.062-.014h-.015l-.17-.094c-.031-.015-.078-.046-.124-.061-.108-.062-.216-.108-.325-.17-.046-.031-.062-.047-.062-.063 0 0 0-.014-.016-.014 0 0-.015-.016-.03-.047-.015-.03-.015-.046-.015-.077a.12.12 0 0 1 .03-.078h.015c.016 0 .016 0 .047.016.124.046.233.093.34.139.124.062.233.123.325.17.028.012.05.034.062.062.016.03.062.077.062.123 0 .047-.015.062-.031.108h-.031Zm-.015.45a.254.254 0 0 1-.077-.032 2.174 2.174 0 0 1-.28-.185 1.395 1.395 0 0 1-.154-.093l-.155-.093h-.015c-.046-.031-.046-.047-.062-.062v-.015a.168.168 0 0 1-.031-.14c0-.045.031-.061.031-.061h.016c.015 0 .03 0 .046.016l.046.03.279.14c.093.045.186.107.279.17l.03.015c.015.015.047.03.062.061.016.016.016.032.031.062a.138.138 0 0 1 .015.078c-.015.046-.015.077-.061.108.015 0 0 0 0 0Zm-.047.463a.118.118 0 0 1-.077-.031c-.077-.062-.17-.124-.278-.201-.109-.078-.217-.14-.31-.201-.047-.03-.047-.046-.062-.062 0 0 0-.016-.015-.016-.015-.015-.031-.076-.031-.139a.168.168 0 0 1 .031-.062c.015 0 .03 0 .046.016.047.031.108.062.155.093.046.03.077.046.123.077l.032.015c.108.062.216.14.31.202.03.015.046.046.06.061.016.031.047.093.032.14.03.061.03.077-.016.108.015 0 0 0 0 0Zm-.077.448c-.031 0-.062-.016-.062-.031-.092-.077-.17-.139-.263-.216a3.332 3.332 0 0 0-.278-.217l-.016-.015c-.046-.03-.046-.046-.046-.062v-.016c-.015-.015-.031-.076-.015-.139.015-.045.03-.062.045-.062.016 0 .032 0 .047.016.109.062.201.14.294.201.093.062.17.124.263.2l.031.016c.03.016.047.047.062.062a.353.353 0 0 1 .031.14.372.372 0 0 1-.093.123c.015 0 .015-.016 0 0Zm-.093.449a.205.205 0 0 1-.077-.047c-.047-.046-.078-.078-.124-.108-.046-.031-.077-.078-.124-.109-.093-.077-.185-.17-.278-.231-.047-.047-.047-.047-.047-.062v-.016a.204.204 0 0 1-.015-.139c.015-.046.031-.062.046-.062 0 0 .032 0 .047.031.093.062.186.14.278.216l.278.233c.016.015.047.046.047.077a.36.36 0 0 1 .031.139c0 .015-.015.046-.015.061-.016-.015-.032 0-.047.016Zm-.14.417s-.03 0-.077-.047c-.077-.078-.154-.17-.232-.247l-.262-.263c-.032-.03-.032-.046-.047-.062v-.015c-.015-.015-.015-.093 0-.14a.098.098 0 0 1 .047-.06c.015 0 .03 0 .046.03.093.077.186.155.279.247.077.062.154.139.232.232l.031.03c.015.016.03.047.046.079.016.03.031.092.016.138-.016.031-.032.062-.078.078Zm-.154.448c-.015 0-.046-.031-.077-.047l-.216-.262c-.047-.046-.078-.093-.124-.14-.047-.046-.078-.092-.124-.139-.031-.046-.046-.061-.046-.077v-.016c-.016-.03-.016-.092 0-.138.015-.031.015-.047.03-.047l.016-.016c.015 0 .03 0 .047.032.092.093.185.185.246.262.078.078.156.17.248.279a.313.313 0 0 1 .047.077.209.209 0 0 1 0 .14c0 .045 0 .061-.047.092Zm-.185.402c-.016 0-.063-.031-.063-.047-.061-.093-.123-.17-.2-.278l-.232-.278c-.032-.046-.032-.062-.032-.078v-.015c0-.015-.015-.093.016-.139.015-.047.046-.047.062-.047 0 0 .031.016.047.032.093.093.17.185.232.278l.015.015.185.232.032.031c.015.015.03.046.03.077a.22.22 0 0 1 0 .14c-.03.046-.046.06-.092.077Zm-.217.417c-.015 0-.047-.031-.062-.062l-.186-.278c-.061-.093-.139-.201-.2-.294-.032-.046-.032-.062-.032-.077v-.015c0-.016 0-.093.016-.14.015-.03.047-.046.062-.046s.031.015.046.03c.078.11.155.202.217.295.062.092.124.17.185.263l.016.03c.015.031.03.047.03.078 0 .03.017.092-.015.139-.015.03-.03.046-.077.077Zm-.232.386s-.031 0-.062-.062c-.046-.093-.093-.17-.155-.293a.323.323 0 0 0-.061-.093c-.016-.015-.032-.046-.047-.062a1.357 1.357 0 0 0-.093-.154c-.03-.046-.03-.062-.03-.078v-.077c0-.015 0-.03.015-.03 0-.016.015-.032.015-.032.032-.03.047-.045.062-.045s.032.014.047.03l.03.046c.032.03.047.062.078.108.016.016.016.032.031.047.015.03.046.062.062.092.046.078.108.17.17.279l.015.031c.015.024.025.05.032.077v.061c0 .032-.016.047-.016.063-.031.062-.046.077-.093.092.016 0 0 0 0 0Zm-.248.387c-.015 0-.046-.031-.061-.062a5.21 5.21 0 0 0-.14-.293c-.031-.062-.061-.11-.077-.17l-.046-.078-.047-.077c-.015-.047-.03-.062-.03-.078v-.015c0-.016 0-.093.046-.124a.304.304 0 0 1 .061-.046c.016 0 .032.015.047.046.031.062.062.108.093.155.031.046.061.108.093.154.061.109.124.217.17.326 0 .014.015.03.015.045v.047a.37.37 0 0 1-.031.139c-.03 0-.046.016-.093.03Zm-.294.34c-.015 0-.046-.047-.061-.062l-.032-.078-.03-.077c-.016-.03-.016-.045-.031-.077-.015-.03-.015-.046-.031-.078-.047-.123-.108-.231-.155-.34-.015-.045-.015-.06-.015-.077v-.015a.206.206 0 0 1 .046-.124c.032-.03.062-.03.062-.03s.015.015.031.045c.062.109.108.218.17.325.031.047.046.093.078.155l.03.078.032.076.015.032c.011.024.016.05.015.077 0 .062-.015.108-.046.14-.015.014-.031.03-.078.03Zm-.309.355c-.016 0-.031-.03-.046-.077a5.774 5.774 0 0 1-.108-.309 2.995 2.995 0 0 0-.124-.34c-.016-.062-.016-.077-.016-.093v-.016c0-.015 0-.03.016-.061a.214.214 0 0 1 .046-.062c.032-.03.062-.03.062-.03s.015.015.031.045c.046.108.093.217.14.34.046.108.092.232.123.34a.2.2 0 0 1 .016.093c0 .016 0 .031-.016.063 0 .03-.016.045-.031.061-.016.03-.046.046-.093.046Zm-.31.31c-.015 0-.046-.047-.046-.078-.031-.108-.062-.232-.093-.325-.015-.061-.03-.108-.046-.17-.015-.03-.046-.139-.062-.17-.015-.045-.015-.062 0-.076v-.016a.22.22 0 0 1 .062-.124c.031-.03.062-.03.062-.03s.015.015.032.045c.015.032.015.062.03.078.015.031.015.061.031.093.03.061.046.108.062.17.031.092.061.201.108.309l.015.03c0 .032.016.062 0 .094a.163.163 0 0 1-.062.123c-.03.03-.046.046-.092.046Zm-.34.325c-.015 0-.046-.047-.046-.078-.015-.108-.047-.216-.062-.325-.031-.108-.046-.232-.093-.355-.015-.062 0-.078 0-.093v-.016c0-.03.032-.077.062-.108l.062-.03h.016s.015.015.03.046c.032.108.078.231.109.34.031.14.062.247.093.355v.093a.24.24 0 0 1-.062.124c-.046.03-.062.03-.109.046Zm-.355.262c-.016 0-.032-.046-.032-.077 0-.062-.015-.109-.015-.17-.015-.062-.015-.108-.031-.17-.015-.124-.046-.247-.062-.356v-.093c0-.03.032-.077.078-.108.03-.016.046-.016.062-.016h.015s.015.032.031.047c.032.108.062.232.077.355.016.062.032.109.032.155v.03c.015.047.015.094.03.14v.123c-.015.032-.03.093-.062.124-.015.016-.031.016-.046.031-.047-.015-.062-.015-.077-.015Zm-.743.51h-.03a.166.166 0 0 1-.032-.093v-.34c0-.14-.015-.247-.015-.37v-.016c0-.046 0-.062.015-.078v-.015c.016-.015.047-.077.093-.093.031-.015.046-.015.062-.015h.016s.015.015.015.046c.015.123.031.232.031.356.015.108.015.216.015.325v.03c0 .03 0 .062-.015.093-.016.03-.046.093-.078.108-.03.047-.046.062-.077.062Zm.356-.247c-.015 0-.031-.047-.031-.078 0-.108-.015-.232-.031-.34v-.015c0-.046-.015-.108-.015-.17 0-.062-.016-.108-.032-.186v-.108s0-.015.032-.046l.03-.031.032-.03c.015-.016.046-.016.061-.016h.016c0 .015.015.03.015.046.015.062.015.108.031.185.016.062.016.124.032.186a14 14 0 0 0 .046.355c0 .031 0 .062-.016.093 0 .016-.015.03-.031.062-.015.016-.031.046-.046.046-.031.046-.047.046-.093.046 0 0 .015 0 0 0v.001Zm-1.16.633h-.047c-.015-.015-.015-.046-.015-.093 0-.061.015-.108.015-.17l.016-.077v-.093c.015-.138.015-.262.031-.37v-.016c0-.046.015-.062.015-.077 0 0 0-.015.016-.015 0 0 .015-.016.03-.047.031-.03.047-.03.062-.046.016 0 .032-.016.047-.016h.031c.015.016.015.031.015.062v.37l-.015.17c0 .063 0 .11-.016.171v.046a.118.118 0 0 1-.03.078.566.566 0 0 1-.093.108c-.032.015-.047.015-.063.015Zm.402-.185h-.031a.162.162 0 0 1-.031-.078c0-.061 0-.124.016-.17v-.54c0-.047.015-.062.015-.078 0 0 0-.015.016-.015.015-.016.046-.078.092-.093.016 0 .031-.015.046-.015h.032s.015.015.015.045c0 .125.016.248.016.357v.37c0 .032-.016.062-.016.078-.032.046-.062.092-.093.108-.046.031-.062.031-.077.031Zm-1.269.494c-.015 0-.03 0-.062-.015-.015-.015-.015-.062 0-.093.032-.108.047-.216.078-.325a.76.76 0 0 0 .031-.184c.015-.062.015-.11.03-.17v-.016c.016-.046.016-.062.032-.062 0 0 0-.015.015-.015a.326.326 0 0 1 .108-.078h.032a.07.07 0 0 1 .046.015s.015.032 0 .063c0 .062-.015.108-.032.185v.016a.546.546 0 0 1-.03.154c-.016.093-.031.201-.046.294v.03l-.016.032a.118.118 0 0 1-.03.077.218.218 0 0 1-.109.092c-.016-.015-.031 0-.046 0Zm.434-.139c-.016 0-.031 0-.047-.015-.015-.015-.015-.062-.015-.093.015-.108.046-.216.061-.325.016-.107.032-.216.047-.355.016-.062.016-.062.031-.078 0 0 0-.014.015-.014.016-.016.047-.062.109-.078h.046c.016 0 .031 0 .047.016a.062.062 0 0 0 .015.045v.017c-.015.108-.015.231-.031.355l-.047.37c0 .03-.011.057-.03.078a.217.217 0 0 1-.109.093c-.062-.016-.077-.016-.093-.016h.001Zm-1.3.325c-.03 0-.047 0-.077-.015-.015-.016 0-.062 0-.093l.015-.03c.031-.094.078-.187.108-.28.047-.123.078-.246.108-.34.016-.045.032-.061.047-.061l.016-.016s0-.015.046-.03c.031-.016.047-.031.078-.031h.015c.046 0 .062.015.062.015v.062c-.032.123-.062.247-.093.356-.015.045-.031.076-.031.123l-.016.03c-.015.032-.015.063-.03.094 0 .015-.016.03-.016.061l-.015.031a.341.341 0 0 1-.047.078c-.046.046-.093.077-.123.077-.032-.03-.047-.03-.047-.03Zm.418-.078c-.016 0-.032 0-.062-.015-.015-.015-.015-.062 0-.093l.046-.154a.478.478 0 0 0 .032-.123l.015-.032c.035-.117.066-.236.093-.355.015-.046.031-.062.031-.078 0 0 0-.015.015-.015.015-.015.062-.061.108-.061h.032a.063.063 0 0 1 .045.015s.016.015 0 .061c-.015.124-.046.232-.077.356a1.501 1.501 0 0 0-.046.185 2.624 2.624 0 0 1-.047.17c0 .031-.015.047-.046.078-.015.03-.078.077-.108.077 0-.015-.015-.015-.032-.015Zm-1.3.155c-.046 0-.061 0-.108-.03-.016-.016 0-.062.015-.094.047-.092.093-.185.155-.293.046-.093.109-.201.155-.325v-.015c.03-.047.03-.047.047-.062l.015-.015a.23.23 0 0 1 .123-.046h.032c.015 0 .015 0 .03.014.016 0 .016.016.016.016 0 .016 0 .031-.015.062l-.063.17c-.015.015-.015.046-.031.062a.826.826 0 0 0-.046.108c-.046.093-.093.201-.139.294l-.015.03a.12.12 0 0 1-.063.062c0 .016-.061.062-.108.062Zm.418-.03c-.031 0-.046 0-.077-.032-.016-.015 0-.062.015-.092l.031-.062c.031-.093.078-.17.108-.247l.032-.078.03-.092c.016-.062.047-.108.062-.17.031-.063.031-.063.047-.077l.015-.016a.23.23 0 0 1 .124-.046h.015c.047 0 .062.015.062.015v.061c-.037.12-.078.24-.124.356-.046.108-.092.232-.139.34-.015.03-.031.062-.046.078-.016.015-.032.03-.047.03-.031.016-.046.031-.061.031h-.047Zm-1.33 0c-.032 0-.047 0-.062-.016-.015 0-.031-.016-.047-.03-.015-.016.016-.063.031-.094.062-.093.14-.201.186-.278.062-.092.124-.185.185-.309.032-.047.047-.047.063-.062 0 0 .015 0 .015-.015.015-.016.062-.032.108-.032h.015c.047 0 .063.032.063.032s0 .03-.016.046a6.877 6.877 0 0 1-.17.31.628.628 0 0 0-.078.138l-.077.17-.015.03a.12.12 0 0 1-.062.063.37.37 0 0 1-.14.046Zm.448.03a.225.225 0 0 1-.108-.03c-.015-.016 0-.047.015-.094.047-.092.109-.185.17-.293.078-.123.125-.232.17-.325a.418.418 0 0 1 .063-.077l.015-.015a.186.186 0 0 1 .124-.046h.015c.047 0 .063.03.078.03 0 0 0 .031-.016.046-.046.124-.108.217-.155.325l-.03.062c-.016.03-.032.077-.062.108-.031.062-.062.108-.093.155a.121.121 0 0 1-.062.062c-.031.061-.078.092-.123.092Zm-1.33-.17H10.4c-.047-.015-.062-.015-.093-.062a.1.1 0 0 1 .031-.077c.078-.093.155-.17.217-.247.062-.078.139-.17.201-.247l.03-.031c.032-.032.047-.046.062-.046 0 0 .016 0 .016-.016.015 0 .047-.016.093-.016h.046c.046.016.062.032.062.046 0 .016 0 .032-.015.047-.031.03-.047.078-.078.108l-.031.046c-.03.047-.077.093-.108.155-.07.086-.136.173-.2.263l-.032.031a.35.35 0 0 1-.078.062c-.014 0-.03.015-.061.015 0-.03-.016-.03-.031-.03Zm.433.078h-.016c-.046-.016-.061-.016-.108-.047-.015-.015.016-.062.032-.077l.046-.062c.046-.062.108-.139.154-.201.078-.093.14-.2.217-.294.03-.046.046-.046.062-.061 0 0 .015 0 .015-.016 0 0 .032-.016.047-.016h.077a.167.167 0 0 1 .062.032c0 .015 0 .03-.015.061-.062.107-.13.21-.201.31-.078.108-.14.2-.217.293-.016.03-.047.046-.062.062-.016 0-.062.016-.093.016Zm-1.3-.326h-.046a.197.197 0 0 1-.093-.06c0-.016.016-.047.047-.079l.062-.06.061-.063c.047-.046.093-.078.124-.108a4.2 4.2 0 0 1 .263-.247c.016-.016.031-.031.047-.031h.015s.016 0 .016-.015c.015 0 .03-.016.061-.016.032 0 .047 0 .063.015a.107.107 0 0 1 .061.046s0 .031-.031.047c-.093.109-.17.185-.247.263l-.124.123-.124.124-.03.03a.335.335 0 0 1-.078.047c.032-.015 0-.015-.046-.015Zm.418.14h-.03a.198.198 0 0 1-.093-.062c0-.015.015-.062.046-.077l.232-.232c.047-.046.077-.092.124-.14.046-.045.077-.091.124-.138.046-.046.061-.046.077-.046h.015c.016 0 .046-.016.078-.016.015 0 .046 0 .062.016.031 0 .046.015.046.03l.015.016c0 .015 0 .03-.03.047-.047.061-.109.123-.155.185-.032.03-.047.062-.078.092-.077.093-.17.186-.247.278a.087.087 0 0 1-.032.035.082.082 0 0 1-.045.012c-.032-.015-.078 0-.109 0Zm-1.237-.495c-.031 0-.062 0-.078-.015-.046-.016-.061-.03-.077-.078 0-.014.031-.045.046-.061l.279-.186c.108-.077.217-.154.294-.216h.015c.046-.03.046-.03.078-.03h.046c.031 0 .077.015.108.03.047.015.047.047.047.062s-.016.03-.031.046c-.093.093-.186.155-.279.232-.077.062-.17.139-.262.202l-.032.014a.254.254 0 0 1-.077.032c-.031-.032-.046-.032-.077-.032Zm.387.186c-.016 0-.047 0-.063-.016-.046-.015-.061-.03-.092-.077 0-.015.03-.061.046-.078.078-.06.17-.123.263-.2.108-.093.201-.17.279-.232.046-.03.062-.03.077-.046h.077c.032 0 .062 0 .077.015.047.015.047.047.047.047s-.015.03-.031.046a3.57 3.57 0 0 1-.263.247c-.092.093-.201.17-.279.232-.03.016-.061.031-.077.046.016.016-.015.016-.061.016Zm-1.115-.634c-.03 0-.092 0-.138-.03-.047-.031-.047-.047-.063-.093 0-.016.032-.047.063-.062.03-.016.046-.031.077-.031.031-.016.046-.031.077-.031.032-.015.047-.031.077-.046.032-.016.047-.031.078-.047.093-.046.186-.108.309-.185h.016c.046-.016.062-.016.077-.016h.031c.031 0 .077.016.124.03.046.032.046.063.046.063 0 .015-.015.03-.046.047a3.49 3.49 0 0 1-.31.2l-.14.093a.32.32 0 0 1-.076.047c-.031.015-.046.03-.078.045l-.03.016h-.094Zm.341.232c-.046 0-.077 0-.093-.016-.046-.03-.062-.045-.077-.076 0-.016.031-.047.062-.062.092-.063.185-.109.293-.17.124-.078.217-.14.31-.202.047-.03.062-.03.078-.03h.03c.032 0 .078 0 .108.03l.047.047v.015s-.015.016-.032.047c-.076.062-.17.124-.262.185l-.031.03c-.108.079-.201.14-.31.203a.119.119 0 0 1-.076.03c-.016-.031-.032-.031-.047-.031Zm-1.068-.757c-.015 0 0 0 0 0a.221.221 0 0 1-.14-.047.198.198 0 0 1-.061-.092c0-.016.046-.047.062-.062a1.96 1.96 0 0 0 .309-.124c.047-.015.108-.046.17-.062.047-.015.108-.046.17-.077h.016c.046-.015.046-.015.062-.015h.03c.032 0 .094.015.125.046a.096.096 0 0 1 .03.062c0 .015-.015.015-.046.03a.574.574 0 0 1-.17.078l-.17.077c-.077.031-.14.062-.217.093l-.093.031-.03.015c0 .031-.032.047-.047.047Zm.34.263a.309.309 0 0 1-.14-.032c-.045-.03-.045-.046-.06-.092 0-.015.046-.047.06-.062a5.44 5.44 0 0 0 .31-.139c.093-.047.202-.108.326-.155.061-.015.061-.015.092-.015h.016a.2.2 0 0 1 .123.046.26.26 0 0 1 .047.062c0 .015-.016.03-.047.047-.101.069-.21.126-.324.17-.124.061-.233.123-.325.17H7.63Zm-.974-.897h-.031c-.047-.016-.108-.03-.124-.062-.031-.03-.046-.046-.046-.108 0-.015.046-.047.077-.047.11-.02.218-.045.325-.077.108-.03.232-.062.355-.093h.124a.23.23 0 0 1 .124.062.098.098 0 0 1 .031.078s-.015.015-.046.03c-.109.047-.233.078-.34.109-.124.046-.217.062-.31.092l-.031.016h-.108Zm.309.309h-.03c-.047 0-.109-.015-.125-.046l-.046-.047c0-.015-.015-.03-.015-.046 0-.015.03-.031.077-.047.108-.03.201-.061.325-.092.115-.034.229-.075.34-.123.031-.016.046-.016.062-.016h.031c.03 0 .093.015.124.062a.097.097 0 0 1 .031.077s-.016.015-.047.03a6.904 6.904 0 0 1-.34.14c-.062.015-.108.046-.17.062l-.078.03-.093.031c-.015-.015-.03-.015-.046-.015Zm-.619-.65H6.3c-.016 0-.031-.015-.062-.015a.215.215 0 0 1-.062-.045c-.031-.047-.046-.063-.046-.109 0-.016.046-.031.077-.047.109-.015.217-.03.325-.062.124-.03.247-.045.356-.076h.093c.015 0 .031.015.062.03.03.016.046.031.061.046.032.032.032.062.016.078 0 0-.016.015-.046.031-.11.03-.233.062-.356.092a2.496 2.496 0 0 1-.356.078h-.015Zm-.263-.354c-.015 0-.03 0-.061-.016a.338.338 0 0 1-.124-.077c-.032-.047-.032-.062-.032-.108 0-.016.032-.032.078-.032.108-.015.232-.03.325-.03l.186-.031a.453.453 0 0 0 .14-.032h.154c.043.013.081.04.108.079.031.06.031.092.031.107 0 0-.016.015-.047.015-.046.016-.077.016-.123.032-.016 0-.047.015-.062.015-.047.016-.108.016-.155.03H6.47l-.325.048h-.062Zm-.247-.371c-.031 0-.046 0-.078-.016-.03-.015-.092-.046-.108-.077-.031-.047-.031-.063-.031-.109.015-.015.047-.03.093-.03h.34c.124-.016.248-.016.371-.031h.016c.046 0 .046 0 .062.015h.016c.015 0 .077.046.108.092.01.025.015.052.015.079 0 0-.015.014-.046.014-.109.016-.232.032-.356.047l-.186.015c-.077-.015-.14 0-.216 0 0 0 .015 0 0 0Zm-.217-.387c-.031 0-.062 0-.093-.016-.015 0-.031-.015-.061-.03-.016-.016-.047-.031-.047-.047-.015-.046-.031-.062-.015-.108 0-.016.046-.031.077-.031h.34c.109 0 .232 0 .371-.015h.016c.046 0 .062.015.077.015H6.3c.016 0 .031.015.046.031.016.016.047.046.047.062a.2.2 0 0 1 .015.077s-.015.016-.046.016c-.14.015-.247.03-.356.03-.108 0-.216.016-.325.016h-.062Zm.155-.386c-.124 0-.248 0-.37-.016a.219.219 0 0 1-.094-.031c-.031-.015-.078-.046-.093-.092-.015-.047-.031-.062-.015-.11 0-.014.03-.014.077-.014h.016c.108.015.216.015.324.03h.371c.062 0 .078.016.093.016H6.1c.016.016.077.046.093.093.015.046.015.077 0 .077-.016 0-.032.016-.062.016h-.356v.03Zm.17-.371c-.108 0-.216 0-.355-.016-.11 0-.201-.015-.31-.03h-.047a.118.118 0 0 1-.077-.032.266.266 0 0 1-.092-.092c-.032-.046-.047-.062-.032-.108 0-.016.032-.016.062-.016h.031l.325.046c.14.016.263.031.356.031h.016c.046 0 .061.015.077.015 0 0 .015 0 .015.016.016.016.078.062.093.108.016.047 0 .078 0 .078h-.062Zm-.139-.387c-.015 0-.015 0 0 0-.124-.016-.232-.03-.356-.03h-.016c-.108-.016-.231-.032-.355-.062A.118.118 0 0 1 5 14.35c-.031-.032-.077-.062-.093-.108-.03-.016-.03-.032-.03-.047s0-.03.015-.046.031-.016.047-.016H5c.047.016.093.016.14.031l.17.03c.123.016.232.048.356.063.046.015.061.015.077.03 0 0 .015 0 .015.016.033.03.06.067.078.108.015.046 0 .078 0 .078 0-.016-.016-.016-.031-.016Zm-.14-.37h-.03a4.601 4.601 0 0 1-.356-.062c-.108-.016-.216-.047-.325-.062l-.03-.016a.118.118 0 0 1-.078-.031.577.577 0 0 1-.093-.108c-.015-.046-.015-.077 0-.108.016-.015.031-.015.046-.015h.047l.325.092c.108.031.217.047.355.078h.016c.047.015.062.015.077.03l.015.015c.033.03.06.068.078.109.015.046 0 .077-.015.077h-.032Zm-.108-.402h-.03c-.124-.032-.233-.047-.356-.079-.14-.03-.248-.076-.356-.107-.031-.016-.046-.031-.077-.047a.653.653 0 0 1-.078-.108c-.015-.046 0-.061.016-.108 0 0 .015-.015.03-.015.016 0 .032 0 .063.015.108.031.216.078.309.108l.14.046.03.016c.047.016.108.03.17.046.063.016.063.031.078.047l.015.015c.015.016.062.062.062.124v.062c0 .015-.016.015-.016.015.016-.03.016-.03 0-.03Zm-.092-.387h-.032a4.24 4.24 0 0 1-.34-.108c-.093-.031-.2-.062-.31-.108l-.03-.016a.219.219 0 0 1-.062-.046c-.046-.047-.062-.093-.077-.124 0-.046 0-.078.015-.108h.031c.031 0 .046.015.062.015l.093.031c.077.031.155.062.216.093.109.046.217.077.34.123a.17.17 0 0 1 .078.047l.016.015c.015.016.061.078.061.124a.194.194 0 0 1-.015.078c-.031-.031-.031-.016-.046-.016Zm-.062-.417c-.015 0-.032 0-.047-.016a3.017 3.017 0 0 0-.34-.123l-.17-.078a1.505 1.505 0 0 1-.17-.077.213.213 0 0 1-.063-.046c-.015-.032-.046-.078-.046-.124v-.062c0-.015.016-.031.032-.047h.015c.03 0 .046.016.062.016.108.062.216.109.294.155.108.062.232.108.325.155.046.03.061.03.077.045 0 0 0 .016.016.016a.23.23 0 0 1 .045.124c.016.03-.015.062-.03.062.015 0 .015 0 0 0Zm-.032-.402c-.015 0-.015 0-.046-.016-.123-.046-.232-.093-.34-.139a5.354 5.354 0 0 0-.294-.14l-.031-.015a.12.12 0 0 1-.062-.062c-.015-.03-.061-.076-.061-.123 0-.046.015-.062.03-.108h.016c.03 0 .062.016.062.016l.139.077.078.045.077.047c.124.062.232.124.325.17h.015c.031.031.046.031.062.046 0 0 0 .016.015.016 0 0 .016.015.032.046a.139.139 0 0 1 .015.078c0 .046-.015.062-.032.062Zm-.015-.418c-.015 0-.03 0-.046-.015a.573.573 0 0 0-.17-.077l-.047-.031c-.031-.016-.077-.032-.108-.062-.093-.062-.201-.108-.325-.185a.12.12 0 0 1-.062-.062c-.015-.016-.015-.031-.031-.047v-.062c0-.046.016-.062.047-.108h.015c.016 0 .047.016.077.03.109.063.201.124.279.187l.078.045.077.047.155.093c.046.03.046.046.061.062 0 0 0 .016.016.016.016.014.031.077.031.123-.015.03-.031.046-.047.046Zm.016-.402c-.016 0-.032 0-.047-.015l-.077-.046-.077-.047c-.032-.015-.047-.03-.078-.046-.031-.015-.046-.031-.077-.046-.109-.062-.186-.124-.278-.186l-.032-.015c-.03-.016-.046-.047-.061-.062-.016-.03-.047-.093-.032-.14 0-.046.016-.061.047-.107h.016a.12.12 0 0 1 .077.03c.077.062.17.124.278.202.093.06.186.123.294.2h.016c.047.031.047.047.062.062 0 0 0 .015.015.015.015.016.031.078.031.124 0 .016 0 .016-.016.031-.045.03-.045.03-.061.046Zm.031-.417c-.015 0-.031 0-.047-.015a3.104 3.104 0 0 1-.293-.202l-.047-.03c-.031-.03-.062-.046-.109-.078-.045-.03-.092-.077-.138-.108l-.063-.061c-.03-.078-.03-.124-.03-.14.015-.046.015-.061.046-.093h.016c.015 0 .046.016.077.032.077.077.17.139.263.216.108.077.2.154.294.216.046.031.046.047.061.062v.015c.016.016.032.078.016.14-.016.03-.046.046-.046.046Zm.062-.386c-.016 0-.032 0-.047-.031a3.394 3.394 0 0 1-.278-.217.77.77 0 0 1-.124-.107c-.046-.032-.077-.079-.124-.11l-.031-.03c-.015-.015-.046-.046-.046-.062a.204.204 0 0 1-.016-.139v-.03c0-.017 0-.017.016-.017.015-.014.015-.03.047-.045.028.01.055.025.077.046a.71.71 0 0 0 .124.108l.061.062c.016.015.047.03.062.062.109.092.202.17.279.231.03.031.046.047.046.062v.016a.204.204 0 0 1 .015.139.187.187 0 0 1-.061.062Zm.077-.418c-.016 0-.031 0-.046-.03-.047-.032-.093-.078-.14-.124l-.046-.046a.41.41 0 0 0-.093-.078c-.077-.077-.17-.17-.263-.247a.337.337 0 0 1-.047-.077c-.015-.063-.03-.109-.015-.14a.197.197 0 0 1 .062-.092s.031 0 .077.046c.078.078.155.17.233.247l.262.263c.032.046.047.062.047.078v.015s0 .015.016.062v.078c-.016.03-.047.045-.047.045Zm.108-.386c-.016 0-.031 0-.046-.03-.047-.048-.093-.079-.124-.124l-.062-.062-.062-.063a1.6 1.6 0 0 1-.216-.247l-.031-.03a.338.338 0 0 1-.046-.078c-.016-.03-.016-.093 0-.139a.195.195 0 0 1 .061-.093c.016 0 .047.016.078.047.077.092.139.17.216.263.015.03.047.045.062.062l.062.061c.047.046.077.093.124.14.03.03.03.046.03.061v.016c.016.015.016.092 0 .138-.015.063-.046.078-.046.078Zm.124-.387s-.031-.015-.047-.03a1.843 1.843 0 0 1-.232-.278c-.046-.047-.077-.093-.123-.14l-.047-.046c-.031-.031-.046-.062-.077-.093a.118.118 0 0 1-.031-.077.218.218 0 0 1 0-.14c.015-.046.031-.061.078-.077.015 0 .061.031.061.047.062.077.124.17.201.278a1.8 1.8 0 0 0 .233.278c.03.047.03.062.046.078v.015c0 .03.015.092-.016.14-.015.03-.03.045-.046.045Zm.155-.37c-.016 0-.032-.016-.047-.031A3.396 3.396 0 0 1 5.666 9a2.102 2.102 0 0 1-.186-.263l-.015-.03a.118.118 0 0 1-.032-.078c0-.03-.015-.092.016-.139.016-.046.032-.061.077-.077.016 0 .047.031.063.062l.092.139.093.14c.062.092.139.2.201.293v.015c.032.047.032.062.032.078v.015c0 .016 0 .093-.016.14-.032 0-.047.015-.062.015Zm.186-.37c-.016 0-.032-.017-.047-.032-.031-.047-.077-.109-.109-.155l-.046-.077-.046-.078c-.062-.108-.124-.2-.186-.309a.25.25 0 0 1-.03-.077v-.062c0-.03.015-.046.015-.062.03-.046.046-.061.077-.077 0 0 .031 0 .062.062.046.093.093.17.154.294l.047.077.046.078c.032.061.063.108.093.154.031.046.031.061.031.093v.077c0 .015 0 .03-.016.03 0 .016-.015.032-.015.032 0 .015-.015.03-.031.03v.001Zm.2-.357c-.015 0-.03-.015-.046-.046l-.046-.078-.047-.077c-.031-.046-.061-.108-.093-.154a1.762 1.762 0 0 1-.154-.294l-.016-.03c-.015-.032-.015-.063-.015-.079a.355.355 0 0 1 .031-.138c.03-.047.046-.047.093-.062.015 0 .046.031.061.062.047.108.093.2.14.294.046.092.108.2.17.324v.016c.01.024.015.05.015.076v.016c0 .031 0 .093-.046.124l-.016.015c-.015 0-.015.016-.03.016v.015Zm.217-.355c-.015 0-.032-.016-.047-.047l-.03-.046-.14-.279a6.048 6.048 0 0 1-.155-.34c-.015-.03-.015-.061-.015-.077 0-.061.015-.108.047-.139l.046-.046c.015 0 .031-.016.046-.016.016 0 .047.047.062.062.031.093.078.186.124.31.047.108.093.216.155.324.01.025.015.05.015.077v.016a.206.206 0 0 1-.046.123c-.016.078-.046.078-.062.078Zm.247-.326c-.015 0-.031-.014-.046-.045-.047-.109-.108-.232-.139-.325-.046-.108-.077-.201-.124-.31l-.015-.03c-.016-.03-.016-.062-.016-.093a.338.338 0 0 1 .046-.123.197.197 0 0 1 .093-.062c.016 0 .032.03.047.077.046.123.077.216.108.31.046.107.077.23.14.34v.015a.208.208 0 0 1 .015.077v.015c0 .016 0 .032-.016.062-.015.031-.031.046-.046.062-.016.031-.047.031-.047.031Zm.264-.308c-.016 0-.032-.015-.032-.046a.754.754 0 0 1-.06-.171c-.016-.031-.016-.062-.032-.093-.015-.03-.015-.062-.03-.077l-.109-.355c0-.032-.016-.062 0-.093 0-.032.016-.093.062-.124.031-.031.046-.046.093-.046.015 0 .046.045.046.077.032.108.062.232.093.325l.015.03.047.14c.015.03.015.061.031.092.015.031.015.062.031.093.015.046.015.062.015.077v.016a.22.22 0 0 1-.062.123c-.077.03-.108.03-.108.03v.002ZM7.32 7.3l-.046-.046c-.032-.109-.078-.232-.11-.34-.03-.109-.06-.202-.076-.325l-.015-.03v-.094a.237.237 0 0 1 .061-.123.143.143 0 0 1 .109-.046c.015 0 .046.046.046.077.015.108.046.216.062.324.031.108.046.232.093.356v.015c.015.047 0 .062 0 .078v.015c0 .03-.031.077-.062.108-.016.016-.032.031-.062.031.015 0 .015 0 0 0Zm.31-.278c-.016 0 0 0 0 0l-.047-.046a2.4 2.4 0 0 1-.077-.356 2.85 2.85 0 0 1-.062-.356v-.091c.015-.032.03-.093.062-.124.031-.031.061-.031.108-.031.015 0 .031.046.031.077 0 .046.015.108.015.17 0 .031.016.078.016.109 0 .015 0 .03.015.046.016.123.046.247.062.355v.108c0 .032-.031.078-.077.108-.016.016-.032.032-.047.032v-.001Zm.309-.263h-.016c0-.015-.015-.031-.015-.046l-.016-.062c-.015-.093-.03-.201-.046-.294L7.8 6.032v-.045c0-.032 0-.062.015-.078 0-.015.015-.031.031-.062.015-.015.03-.046.046-.046.031-.03.062-.03.093-.03h.016c.015-.001.03.045.03.076 0 .108.016.216.032.34.015.124.03.248.046.356v.108c0 .03-.047.077-.077.108H7.94Zm.696-.449h-.032s-.015-.014-.015-.045c-.015-.14-.015-.247-.015-.356v-.387c0-.03.015-.062.015-.078.032-.045.063-.092.093-.108.032-.015.047-.015.078-.015h.031a.164.164 0 0 1 .03.077c0 .109-.015.217-.015.34v.386c0 .047-.016.063-.016.079v.014c-.015.016-.046.078-.093.093-.03-.015-.045 0-.061 0Zm-.356.202h-.016s-.015-.016-.015-.047l-.015-.185v-.062c0-.03 0-.077-.016-.123-.015-.124-.015-.248-.015-.371 0-.031 0-.063.015-.093.016-.031.046-.093.077-.108.032-.016.062-.031.078-.031h.03a.165.165 0 0 1 .032.077v.34c0 .14.015.247.015.37 0 .063 0 .078-.015.094v.016a.29.29 0 0 1-.093.107c-.015 0-.015.016-.031.016h-.032.001Zm1.083-.572c-.016 0-.032 0-.032-.015 0 0-.015-.016-.015-.063 0-.138.016-.262.032-.355v-.03c.015-.093.015-.202.03-.294v-.031c0-.031.016-.062.031-.078 0 0 .015-.03.047-.046.015-.016.046-.031.061-.046.032-.016.047-.016.063-.016.015 0 .03 0 .046.016.015.015.015.062.015.092-.015.109-.046.217-.061.325l-.016.093-.016.093c-.015.061-.015.123-.015.185-.016.046-.016.062-.031.077 0 0 0 .015-.015.015 0 0-.016.016-.032.047a.338.338 0 0 1-.076.046c.015-.03 0-.015-.016-.015Zm-.356.17c-.016 0-.031 0-.031-.015-.015-.016-.015-.032-.015-.062v-.37c0-.11.015-.217.015-.357a.12.12 0 0 1 .031-.078.29.29 0 0 1 .093-.107c.031-.016.046-.016.062-.016h.046c.015.016.015.047.015.093 0 .062-.015.108-.015.17 0 .062-.015.108-.015.17-.016.14-.016.263-.031.37 0 .063-.016.063-.016.079 0 0 0 .015-.015.015 0 0-.016.015-.031.046-.031.031-.046.031-.062.046 0 0-.016.016-.031.016Zm1.145-.449c-.031 0-.046-.015-.046-.015 0-.015-.016-.03 0-.061.015-.124.046-.232.077-.356a.544.544 0 0 0 .03-.155l.047-.154.015-.031c0-.03.016-.046.047-.078.016-.03.077-.077.109-.077h.045c.016 0 .032 0 .063.016.015.015.015.061 0 .093-.016.046-.032.077-.032.123l-.015.046-.046.14-.015.03a5.271 5.271 0 0 0-.093.356v.031c-.016.016-.016.03-.016.046 0 0 0 .016-.015.016l-.016.015c-.016.015-.062.062-.108.062-.016-.047-.031-.047-.031-.047Zm-.387.124H9.72c0-.015-.016-.03 0-.061l.046-.325v-.03c.016-.124.047-.248.062-.357 0-.03.015-.046.031-.077a.217.217 0 0 1 .108-.092c.032 0 .047-.016.062-.016.022 0 .043.005.062.016.016.015.016.061.016.092-.032.109-.047.217-.078.325a.76.76 0 0 0-.031.186l-.015.061c0 .046-.016.078-.016.124-.016.062-.016.062-.031.077 0 0 0 .016-.015.016a.325.325 0 0 1-.108.077c-.032-.015-.032-.015-.047-.015v-.001Zm1.191-.309c-.046 0-.062-.016-.062-.016V5.4c.032-.093.078-.216.108-.34a4.37 4.37 0 0 1 .124-.31l.016-.03a.337.337 0 0 1 .046-.078l.047-.045c.03-.016.046-.016.062-.032h.03c.032 0 .047 0 .078.03.015.017 0 .063-.015.094a5.732 5.732 0 0 0-.14.309c-.03.062-.046.123-.062.17l-.062.17v.016c-.015.046-.03.046-.046.061l-.015.016s-.016.016-.047.03c0 .016-.031.016-.062.016.016 0 0 0 0 0Zm-.387.078c-.046 0-.061-.016-.061-.016v-.061c.03-.124.061-.232.092-.355.032-.115.068-.229.109-.34a.341.341 0 0 1 .046-.078c.046-.046.093-.077.124-.077h.031c.03 0 .046 0 .077.015.015.016 0 .062 0 .093-.015.03-.015.047-.031.078-.015.03-.015.045-.03.077l-.032.077-.031.093c-.046.123-.077.247-.108.34-.015.046-.031.061-.046.077 0 0 0 .015-.016.015 0 0-.015.016-.046.032a.118.118 0 0 1-.078.03Zm1.223-.155c-.063 0-.078-.03-.078-.03s0-.032.015-.047c.047-.109.11-.217.156-.325a5.12 5.12 0 0 1 .154-.293l.015-.032a.12.12 0 0 1 .063-.061c.03-.016.077-.047.123-.047.047 0 .078.016.108.03 0 .017 0 .048-.015.094-.062.093-.108.185-.17.294-.063.104-.12.213-.17.324v.016c-.032.045-.032.045-.047.062 0 0-.015 0-.015.015-.046-.015-.093 0-.14 0Zm-.418.03c-.047 0-.062-.015-.078-.03 0-.015 0-.03.016-.046.015-.062.047-.108.062-.17l.015-.031a.548.548 0 0 1 .062-.14c.047-.123.109-.231.155-.324a.212.212 0 0 1 .046-.062c.016-.015.078-.062.124-.062s.062 0 .109.03c.015.017 0 .063-.016.094-.046.093-.108.202-.155.294-.058.105-.11.213-.154.324-.032.047-.032.062-.047.078 0 0-.015 0-.015.015-.015 0-.062.03-.124.03ZM8.126 16.066v-.217h.31c.34 0 .587-.107.726-.324.093-.124.124-.432.124-.88V9.387c0-.51-.062-.82-.17-.958-.155-.17-.387-.263-.696-.263h-.31V7.95h3.31c1.207 0 2.136.14 2.77.418.634.278 1.145.726 1.531 1.375.387.65.573 1.392.573 2.226 0 1.129-.34 2.072-1.037 2.83-.773.849-1.949 1.266-3.527 1.266H8.126Zm2.32-.587c.511.108.928.17 1.269.17.928 0 1.702-.325 2.305-.974.618-.665.912-1.546.912-2.659 0-1.112-.309-2.009-.912-2.658-.603-.65-1.393-.974-2.351-.974a5.4 5.4 0 0 0-1.223.17v6.925Z"/></g><defs><clipPath id="a"><path fill="#fff" d="M0 0h24v24H0z"/></clipPath></defs></svg>