<svg xmlns="http://www.w3.org/2000/svg" fill="none" viewBox="0 0 24 24"><g clip-path="url(#a)"><path fill="#F1A600" d="M12 24c6.627 0 12-5.373 12-12S18.627 0 12 0 0 5.373 0 12s5.373 12 12 12"/><path fill="#fff" fill-rule="evenodd" d="M7.558 6.526h4.483c2.726 0 4.793 1.448 5.563 3.554H19v1.274h-1.102q.031.301.032.614v.031q0 .352-.041.691H19v1.273h-1.423c-.79 2.077-2.84 3.51-5.535 3.51H7.558v-3.51H6V12.69h1.558v-1.336H6V10.08h1.558zm1.253 7.437v2.369h3.23c1.993 0 3.474-.95 4.163-2.369zm7.776-1.273H8.811v-1.336h7.78q.041.315.042.645v.031q0 .337-.046.66m-4.545-5.024c2.002 0 3.487.974 4.172 2.413H8.81V7.666h3.23" clip-rule="evenodd"/></g><defs><clipPath id="a"><path fill="#fff" d="M0 0h24v24H0z"/></clipPath></defs></svg>