<svg xmlns="http://www.w3.org/2000/svg" fill="none" viewBox="0 0 24 24"><path fill="#62757E" fill-rule="evenodd" d="M7.565 2.293A1 1 0 0 1 8.272 2h7.456a1 1 0 0 1 .707.293l5.272 5.272a1 1 0 0 1 .293.707v7.456a1 1 0 0 1-.293.707l-5.272 5.272a1 1 0 0 1-.707.293H8.272a1 1 0 0 1-.707-.293l-5.272-5.272A1 1 0 0 1 2 15.728V8.272a1 1 0 0 1 .293-.707l5.272-5.272ZM9.73 8.578a.922.922 0 1 0-1.306 1.306L10.541 12l-2.117 2.117a.923.923 0 1 0 1.306 1.305l2.116-2.117 2.117 2.117a.92.92 0 0 0 1.305 0 .921.921 0 0 0 0-1.305L13.15 12l2.117-2.117a.921.921 0 0 0 0-1.305.921.921 0 0 0-1.305 0l-2.117 2.117L9.73 8.578Z" clip-rule="evenodd"/></svg>