<svg xmlns="http://www.w3.org/2000/svg" fill="none" viewBox="0 0 24 24"><g clip-path="url(#a)"><path fill="#008CE7" d="M12 24c6.627 0 12-5.373 12-12S18.627 0 12 0 0 5.373 0 12s5.373 12 12 12Z"/><path fill="#fff" d="M14.016 6.724H9.28l-.392 2.191 4.271.007c2.104 0 2.728.763 2.708 2.03-.01.65-.292 1.75-.412 2.104-.324.95-.99 2.032-3.489 2.029l-4.152-.003-.392 2.195h4.724c1.666 0 2.376-.195 3.125-.54 1.663-.768 2.653-2.41 3.05-4.554.59-3.19-.145-5.46-4.306-5.46h.001Z"/><path fill="#fff" d="M11.882 11.797c.154-.64.203-.898.203-.898H7.237c-1.239 0-1.416.807-1.534 1.295-.154.639-.203.9-.203.9h4.848c1.239 0 1.416-.808 1.534-1.297Z"/></g><defs><clipPath id="a"><path fill="#fff" d="M0 0h24v24H0z"/></clipPath></defs></svg>