<svg xmlns="http://www.w3.org/2000/svg" fill="none" viewBox="0 0 24 24"><g clip-path="url(#a)"><path fill="#2D9CDB" d="M12 24c6.627 0 12-5.373 12-12S18.627 0 12 0 0 5.373 0 12s5.373 12 12 12"/><path fill="#fff" d="M14.917 5q.41 0 .66.25t.25.66v8.133q0 1.39-.66 2.532a4.8 4.8 0 0 1-1.766 1.783q-1.105.642-2.48.642a5.05 5.05 0 0 1-2.514-.642 4.8 4.8 0 0 1-1.765-1.783Q6 15.435 6 14.043q0-1.391.589-2.515.606-1.141 1.64-1.784a4.4 4.4 0 0 1 2.336-.642 4.4 4.4 0 0 1 3.442 1.623V5.91q0-.41.25-.66a.93.93 0 0 1 .66-.25m-3.995 12.395q.893 0 1.605-.428a3.1 3.1 0 0 0 1.142-1.212 3.6 3.6 0 0 0 .41-1.712q0-.946-.411-1.694a3 3 0 0 0-1.141-1.196 2.97 2.97 0 0 0-1.605-.446q-.892.001-1.623.446c-.48.29-.874.703-1.142 1.195q-.41.75-.41 1.695t.41 1.711c.27.496.664.913 1.142 1.213a3.15 3.15 0 0 0 1.623.428"/></g><defs><clipPath id="a"><path fill="#fff" d="M0 0h24v24H0z"/></clipPath></defs></svg>