<svg xmlns="http://www.w3.org/2000/svg" fill="none" viewBox="0 0 24 24"><g clip-path="url(#a)"><path fill="#2D9CDB" d="M12 24c6.627 0 12-5.373 12-12S18.627 0 12 0 0 5.373 0 12s5.373 12 12 12Z"/><path fill="#fff" d="M14.917 5c.273 0 .493.084.66.25.166.167.25.386.25.66v8.133a4.97 4.97 0 0 1-.66 2.532 4.795 4.795 0 0 1-1.766 1.783c-.737.428-1.563.642-2.48.642a5.047 5.047 0 0 1-2.514-.642 4.795 4.795 0 0 1-1.765-1.783C6.214 15.815 6 14.97 6 14.043s.196-1.766.589-2.515c.404-.76.95-1.356 1.64-1.784a4.4 4.4 0 0 1 2.336-.642 4.393 4.393 0 0 1 3.442 1.623V5.91c0-.274.084-.493.25-.66a.927.927 0 0 1 .66-.25Zm-3.995 12.395a3.05 3.05 0 0 0 1.605-.428 3.113 3.113 0 0 0 1.142-1.212 3.58 3.58 0 0 0 .41-1.712c0-.63-.137-1.196-.411-1.694a2.987 2.987 0 0 0-1.141-1.196 2.967 2.967 0 0 0-1.605-.446c-.595 0-1.136.15-1.623.446-.48.29-.874.703-1.142 1.195-.273.5-.41 1.064-.41 1.695 0 .63.137 1.2.41 1.711.27.496.664.913 1.142 1.213a3.15 3.15 0 0 0 1.623.428Z"/></g><defs><clipPath id="a"><path fill="#fff" d="M0 0h24v24H0z"/></clipPath></defs></svg>