<svg xmlns="http://www.w3.org/2000/svg" fill="none" viewBox="0 0 24 24"><path fill="#62757E" fill-rule="evenodd" d="M12 21q-3.855 0-6.427-1.088Q3 18.823 3 17.192V6.706q0-1.533 2.635-2.62Q8.269 3 12 3q3.73 0 6.365 1.086T21 6.706v8.56a.795.795 0 1 1-1.588-.077v-1.126a10 10 0 0 1-1.497.682q-.828.301-1.778.505t-1.993.31-2.144.105q-1.121 0-2.186-.11a19 19 0 0 1-2.009-.316 13.5 13.5 0 0 1-1.76-.5 8.6 8.6 0 0 1-1.457-.676v3.231q.204.438.895.814.69.375 1.71.67 1.017.294 2.268.464t2.539.17a19 19 0 0 0 3.018-.243l.01-.002.067-.01v.005a.812.812 0 0 1 .142 1.614l-.015.002Q13.742 21 12 21m0-12.221a17.3 17.3 0 0 0 4.662-.655q2.346-.654 2.72-1.412-.364-.777-2.692-1.45a16.8 16.8 0 0 0-9.364-.02q-2.316.655-2.728 1.43.402.793 2.707 1.45A17 17 0 0 0 12 8.78m0 5.298q1.103 0 2.144-.106 1.043-.105 1.993-.31a13 13 0 0 0 1.778-.505 10 10 0 0 0 1.497-.682V8.718a10 10 0 0 1-1.497.682q-.828.3-1.778.505-.95.204-1.993.31-1.043.105-2.144.105-1.121 0-2.186-.111a19 19 0 0 1-2.009-.314 13.5 13.5 0 0 1-1.76-.5 8.6 8.6 0 0 1-1.457-.677v3.756q.642.381 1.457.678.816.296 1.76.5.945.203 2.01.314 1.063.11 2.185.11m9.801 7.745a.74.74 0 0 1-1.049 0l-1.326-1.326-1.327 1.326a.742.742 0 1 1-1.049-1.049l1.327-1.326-1.327-1.327a.742.742 0 0 1 1.05-1.049l1.326 1.327 1.327-1.327a.742.742 0 1 1 1.049 1.05l-1.327 1.326 1.326 1.326c.29.29.29.76 0 1.05" clip-rule="evenodd"/></svg>