<svg xmlns="http://www.w3.org/2000/svg" fill="none" viewBox="0 0 24 24"><g clip-path="url(#a)"><path fill="#E9570F" d="M12 24c6.627 0 12-5.373 12-12S18.627 0 12 0 0 5.373 0 12s5.373 12 12 12"/><path fill="#fff" d="m17.297 8.045 1.045-1.036c.247-.245.196-.692-.113-.998-.31-.307-.761-.357-1.008-.112L15.26 7.843l-.067.067-1.71 1.694a2.966 2.966 0 0 0-3.814.293 2.9 2.9 0 0 0-.296 3.783L8.07 14.974a5.1 5.1 0 0 1-.773-1.491c-.438-1.326-.32-2.777.39-3.974a4.995 4.995 0 0 1 4.967-2.44.696.696 0 0 0 .79-.641.85.85 0 0 0-.763-.893 6.53 6.53 0 0 0-5.277 1.85c-2.387 2.366-2.527 6.12-.43 8.674l-1.196 1.187c-.236.234-.177.673.132.98s.751.365.987.13l1.289-1.277.931-.923.002-.003 1.51-1.497a2.96 2.96 0 0 0 3.2-.634 2.9 2.9 0 0 0 .64-3.173l1.713-1.698c1.256 1.891 1.007 4.51-.722 6.222a5.13 5.13 0 0 1-3.986 1.482.636.636 0 0 0-.67.578l-.018.208a.675.675 0 0 0 .645.735 6.7 6.7 0 0 0 5.093-1.949c2.339-2.32 2.61-5.892.774-8.382m-4.553 4.9a1.42 1.42 0 0 1-1.99 0 1.387 1.387 0 0 1 0-1.972 1.417 1.417 0 0 1 1.99 0 1.39 1.39 0 0 1 0 1.972"/></g><defs><clipPath id="a"><path fill="#fff" d="M0 0h24v24H0z"/></clipPath></defs></svg>