<svg xmlns="http://www.w3.org/2000/svg" fill="none" viewBox="0 0 24 24"><g clip-path="url(#a)"><rect width="24" height="24" fill="#fff" rx="2"/><path fill="#000" d="M22 0H2a2 2 0 0 0-2 2v20a2 2 0 0 0 2 2h20a2 2 0 0 0 2-2V2a2 2 0 0 0-2-2"/><path fill="#fff" d="M4.802 11.971V5.067c0-.762.306-1.066 1.071-1.066h6.489c3.086 0 5.904 1.842 7.057 4.713 1.191 2.963.887 5.793-1.066 8.355-1.298 1.703-3.052 2.67-5.2 2.892q-.388.039-.776.039l-6.566-.001c-.69 0-1.01-.323-1.01-1.02q-.002-3.505-.001-7.008zm4.57 3.09c0 .34.026.366.372.366h2.803c.73-.001 1.352-.276 1.873-.77 1.15-1.09 1.49-2.791.802-4.222-.573-1.192-1.498-1.895-2.885-1.871-.864.014-1.73.002-2.595.003-.345 0-.372.027-.372.368z"/></g><defs><clipPath id="a"><rect width="24" height="24" fill="#fff" rx="2"/></clipPath></defs></svg>