<svg xmlns="http://www.w3.org/2000/svg" fill="none" viewBox="0 0 24 24"><g clip-path="url(#a)"><rect width="24" height="24" fill="#fff" rx="2"/><path fill="url(#b)" d="M.736 11.957V1.6c0-1.143.46-1.6 1.607-1.6h9.733c4.63 0 8.856 2.763 10.586 7.07 1.787 4.445 1.33 8.69-1.6 12.533-1.946 2.553-4.578 4.004-7.8 4.337q-.581.06-1.164.059l-9.849-.002c-1.034 0-1.514-.483-1.515-1.53q-.002-5.256 0-10.511zm6.851.04h.002q-.001 2.297.001 4.593c.001.512.04.55.559.55h4.205c1.094-.001 2.028-.414 2.809-1.155 1.726-1.635 2.235-4.186 1.203-6.332-.859-1.789-2.246-2.843-4.327-2.807-1.297.022-2.595.003-3.892.004-.519.001-.558.041-.56.552z"/></g><defs><radialGradient id="b" cx="0" cy="0" r="1" gradientTransform="rotate(-141.299 8.22 3.854)scale(12.5255)" gradientUnits="userSpaceOnUse"><stop stop-color="#739FFA"/><stop offset=".175" stop-color="#C2C86C"/><stop offset=".34" stop-color="#FDD203"/><stop offset=".515" stop-color="#FE931F"/><stop offset=".705" stop-color="#FF8483"/><stop offset=".845" stop-color="#A597C5"/><stop offset="1" stop-color="#739FFA"/></radialGradient><clipPath id="a"><rect width="24" height="24" fill="#fff" rx="2"/></clipPath></defs></svg>