<svg xmlns="http://www.w3.org/2000/svg" fill="none" viewBox="0 0 24 24"><g clip-path="url(#a)"><path fill="#5BC1D4" d="M12 24c6.627 0 12-5.373 12-12S18.627 0 12 0 0 5.373 0 12s5.373 12 12 12"/><path fill="#fff" fill-rule="evenodd" d="m10.45 12.65-1.155 1.207c-.208.216-.412.436-.62.651-.036.037-.085.058-.128.087-.091-.015-.161-.071-.173-.154q-.03-.189-.052-.378c-.02-.167-.072-.213-.24-.234q-.523-.063-1.044-.133l-.793-.103c-.159-.02-.216-.134-.133-.27l.573-.916 1.169-1.868c.046-.075.098-.127.197-.124a.7.7 0 0 0 .191-.03c.075-.019.133.004.184.053q.139.128.276.258l1.056 1.002.685.645c.117.11.117.19.007.307m7.762 1.623c.066.055.138.106.152.2.017.118-.03.205-.131.27L16.448 15.9l-1.15.746a1 1 0 0 0-.104.076.24.24 0 0 0-.087.198c.005.143.014.287.016.43.002.164-.12.267-.284.248a.23.23 0 0 1-.151-.086l-.414-.48-.52-.6a.33.33 0 0 1-.094-.277l.024-.836c.003-.098.061-.161.14-.212l.95-.607q.8-.509 1.596-1.02c.112-.073.216-.095.34-.032a.4.4 0 0 0 .292.024c.148-.047.261-.005.375.095.273.241.557.47.836.706m-5.108.694a.33.33 0 0 1 .089.154c.026.131-.026.22-.15.28-.409.197-.818.397-1.23.588-.075.033-.168.037-.253.042-.342.015-.684.024-1.027.038-.202.008-.403.02-.59.03h-.137a.23.23 0 0 1-.168-.066l-.13-.12c-.241-.228-.478-.461-.724-.685-.137-.125-.14-.292-.008-.426q.44-.456.878-.917.474-.495.947-.994a.27.27 0 0 1 .393-.02l1.26 1.253c.283.281.569.56.85.843m1.735-5.634c-.136-.209.017-.497.242-.534.6-.1 1.199-.215 1.799-.32.132-.022.237.039.31.148q.189.283.374.568.396.599.788 1.199c.035.053.052.119.078.178l-.015.007a.47.47 0 0 1-.108.279c-.367.492-.738.983-1.104 1.477a.343.343 0 0 1-.565-.039q-.805-1.332-1.615-2.662c-.061-.1-.12-.203-.184-.3m-1.054 2.473-.105.934-.09.776-.104.91c-.007.063-.008.128-.02.19-.008.03-.03.069-.055.078-.026.01-.07-.004-.093-.023q-.148-.13-.289-.267l-1.027-.974q-.447-.423-.897-.842c-.099-.092-.1-.122-.004-.222l1.37-1.435.937-.983.459-.483c.013-.014.024-.033.04-.038.033-.012.074-.028.103-.019.024.008.035.051.042.063l-.07.616-.09.792zm2.664.714c.045.072.052.14.003.215a.43.43 0 0 0-.064.283c.008.088-.028.142-.103.189q-.879.559-1.753 1.12l-.551.35c-.073.047-.148.043-.188-.015-.022-.033-.025-.078-.031-.1l.077-.566.171-1.247.19-1.365.184-1.335.07-.497c0-.013.002-.029.009-.038.018-.023.038-.058.061-.062.025-.004.065.015.08.037.043.058.078.121.116.183l1.368 2.251zm-2.837-3.433c.022.014.064.028.086.058.034.047.004.09-.031.127l-.476.5-1.388 1.453-.868.914c-.105.109-.189.109-.298.005l-1.015-.962q-.494-.466-.99-.931c-.044-.042-.079-.088-.074-.152q.01-.13.158-.154l.55-.097 1.76-.308 2.079-.364zm-4.717.442.98-.667 3.156-2.15c.105-.072.172-.057.224.056l.651 1.4.083.182c.023.05.008.09-.021.133a1 1 0 0 0-.097.173c-.023.058-.058.09-.121.101l-1.393.25-1.648.297-1.799.323c-.025.004-.05 0-.077 0l-.015-.029c.026-.023.049-.05.077-.069m-3.283 1.068c-.206-.004-.328-.204-.23-.388.083-.156.176-.305.266-.457l.772-1.32a.46.46 0 0 1 .175-.171L8.643 7.08a.5.5 0 0 1 .141-.056.24.24 0 0 1 .248.1.25.25 0 0 1 .024.273q-.156.329-.315.656-.294.6-.586 1.201a.3.3 0 0 1-.21.18.48.48 0 0 0-.359.356.25.25 0 0 1-.174.181l-1.683.599c-.037.014-.077.018-.117.028M8.519 9.32a.2.2 0 0 1 .024-.084l.733-1.608q.231-.5.458-1.004c.035-.077.086-.115.173-.119.229-.007.458-.019.687-.028l1.35-.05.477-.026c.113-.005.19.064.192.175.004.068-.039.112-.095.15l-.433.295L9.5 8.78l-.826.562a.4.4 0 0 1-.062.038c-.049.021-.096-.008-.093-.06m-.954 1.155-.345.55q-.643 1.03-1.288 2.058a.3.3 0 0 1-.07.086c-.074.054-.173.017-.208-.077q-.083-.225-.163-.451l-.468-1.318c-.011-.032-.019-.066-.023-.082 0-.089.03-.127.113-.154l.748-.239 1.41-.448.186-.057c.044-.014.088-.033.125.016.032.044.005.08-.017.116M18.847 12.3l.142.81.011.086q-.01.055-.026.118l-.185.67c-.054.192-.206.237-.36.107l-.95-.797c-.072-.06-.102-.13-.085-.224a.44.44 0 0 0-.033-.282c-.043-.086-.03-.162.028-.238l.774-1.043.157-.213c.053-.072.122-.107.21-.087.093.021.14.084.156.174zm-5.294-5.56-.014-.03c-.02-.042-.027-.09.016-.115a.17.17 0 0 1 .119-.007c.061.02.117.054.175.083l2.353 1.175.418.21c.047.023.084.05.074.11-.01.058-.054.07-.105.08q-.848.15-1.695.304l-.056.011c-.016-.01-.046-.022-.066-.045a.56.56 0 0 0-.418-.212c-.063-.003-.095-.04-.119-.092l-.3-.645z" clip-rule="evenodd"/></g><defs><clipPath id="a"><path fill="#fff" d="M0 0h24v24H0z"/></clipPath></defs></svg>