<svg xmlns="http://www.w3.org/2000/svg" fill="none" viewBox="0 0 24 24"><g clip-path="url(#a)"><path fill="#5BC1D4" d="M12 24c6.627 0 12-5.373 12-12S18.627 0 12 0 0 5.373 0 12s5.373 12 12 12Z"/><path fill="#fff" fill-rule="evenodd" d="m10.45 12.65-1.155 1.207c-.208.216-.412.436-.62.651-.036.037-.085.058-.128.087-.091-.015-.161-.071-.173-.154a9.798 9.798 0 0 1-.052-.378c-.02-.167-.072-.213-.24-.234a90.177 90.177 0 0 1-1.044-.133l-.793-.103c-.159-.02-.216-.134-.133-.27.19-.306.382-.611.573-.916l1.169-1.868c.046-.075.098-.127.197-.124a.72.72 0 0 0 .191-.03c.075-.019.133.004.184.053.092.086.185.171.276.258l1.056 1.002.685.645c.117.11.117.19.007.307Zm7.762 1.623c.066.055.138.106.152.2.017.118-.03.205-.131.27L16.448 15.9l-1.15.746a.92.92 0 0 0-.104.076.24.24 0 0 0-.087.198c.005.143.014.287.016.43.002.164-.12.267-.284.248a.228.228 0 0 1-.151-.086l-.414-.48c-.173-.2-.345-.401-.52-.6a.33.33 0 0 1-.094-.277l.024-.836c.003-.098.061-.161.14-.212l.95-.607c.532-.34 1.066-.678 1.596-1.02.112-.073.216-.095.34-.032a.386.386 0 0 0 .292.024c.148-.047.261-.005.375.095.273.241.557.47.836.706Zm-5.108.694a.33.33 0 0 1 .089.154c.026.131-.026.22-.15.28-.409.197-.818.397-1.23.588-.075.033-.168.037-.253.042-.342.015-.684.024-1.027.038-.202.008-.403.02-.59.03h-.137a.23.23 0 0 1-.168-.066c-.043-.04-.088-.079-.13-.12-.241-.228-.478-.461-.724-.685-.137-.125-.14-.292-.008-.426a426.467 426.467 0 0 0 1.825-1.911.27.27 0 0 1 .393-.02l1.26 1.253c.283.281.569.56.85.843Zm1.735-5.634c-.136-.208.017-.497.242-.534.6-.1 1.199-.215 1.799-.32.132-.022.237.039.31.148.126.189.25.379.374.568.264.4.527.798.788 1.199.035.053.052.119.078.178l-.015.007a.465.465 0 0 1-.108.279c-.367.492-.738.983-1.104 1.477a.344.344 0 0 1-.565-.039c-.535-.889-1.076-1.775-1.615-2.662-.061-.1-.12-.203-.184-.3Zm-1.054 2.473-.105.934-.09.776-.104.91c-.007.063-.008.128-.02.19-.008.03-.03.069-.055.078-.026.01-.07-.004-.093-.023-.1-.086-.194-.177-.289-.267l-1.027-.974c-.298-.282-.597-.562-.897-.842-.099-.092-.1-.122-.004-.222l1.37-1.435.937-.983.459-.483c.013-.014.024-.032.04-.038.033-.012.074-.028.103-.019.024.008.035.051.042.063l-.07.616-.09.792-.107.927Zm2.664.714c.045.072.052.14.003.215a.432.432 0 0 0-.064.283c.008.088-.028.142-.103.189-.586.372-1.17.746-1.753 1.12-.184.117-.367.235-.551.35-.073.047-.148.043-.188-.015-.022-.033-.025-.078-.031-.1l.077-.566.171-1.247.19-1.365.184-1.335.07-.497a.07.07 0 0 1 .009-.038c.018-.023.038-.058.061-.062.025-.004.065.016.08.037.043.058.078.121.116.183l1.368 2.251.361.596Zm-2.837-3.433c.022.014.064.028.086.059.034.046.004.09-.031.126l-.476.5-1.388 1.453-.868.914c-.105.109-.189.109-.298.005l-1.015-.962c-.329-.311-.66-.621-.99-.931-.044-.042-.079-.088-.074-.152.007-.088.058-.137.158-.154l.55-.097 1.76-.308 2.079-.364.507-.09Zm-4.717.442c.326-.223.652-.445.98-.667l3.156-2.15c.105-.072.172-.057.224.056l.651 1.4.083.182c.023.05.008.09-.021.133a.937.937 0 0 0-.097.173c-.023.058-.058.09-.121.101-.465.083-.929.168-1.393.25l-1.648.297-1.799.323c-.025.004-.05 0-.077 0l-.015-.029c.026-.023.049-.05.077-.069Zm-3.283 1.068c-.206-.004-.329-.204-.23-.388.083-.156.176-.305.266-.457.257-.44.516-.88.772-1.32a.461.461 0 0 1 .175-.171c.684-.393 1.365-.788 2.048-1.181a.447.447 0 0 1 .141-.056.244.244 0 0 1 .248.1.251.251 0 0 1 .024.273c-.103.22-.21.437-.315.656-.196.4-.392.8-.586 1.201a.304.304 0 0 1-.21.18.484.484 0 0 0-.359.356.252.252 0 0 1-.174.182c-.561.197-1.122.399-1.683.598-.037.014-.077.018-.117.028ZM8.519 9.32a.242.242 0 0 1 .024-.084l.733-1.608c.153-.334.308-.668.458-1.004.035-.077.086-.115.173-.119.229-.007.458-.018.687-.028l1.35-.05.477-.026c.113-.005.19.064.192.175.004.068-.039.112-.095.15l-.433.295L9.5 8.78l-.826.562a.373.373 0 0 1-.062.038c-.049.021-.096-.008-.093-.06Zm-.954 1.155c-.114.184-.23.367-.345.55-.429.686-.858 1.373-1.288 2.058a.296.296 0 0 1-.07.086c-.074.054-.173.017-.208-.077-.056-.15-.109-.3-.163-.451l-.468-1.318c-.011-.032-.019-.066-.023-.082 0-.089.03-.127.113-.154l.748-.239 1.41-.448.186-.057c.044-.014.088-.033.125.016.032.044.005.08-.017.116ZM18.847 12.3l.142.81.011.086c-.007.035-.015.077-.026.118l-.185.67c-.054.192-.206.237-.36.107l-.95-.797c-.072-.06-.102-.13-.085-.224a.44.44 0 0 0-.033-.282c-.043-.086-.03-.162.028-.238.259-.347.515-.696.774-1.043l.157-.213c.053-.072.122-.107.21-.087.093.021.14.084.156.174l.16.92h.001Zm-5.294-5.56-.014-.03c-.02-.042-.027-.09.016-.115a.168.168 0 0 1 .119-.007c.061.02.117.054.175.083l2.353 1.175.418.21c.047.023.084.05.074.11-.01.058-.054.07-.105.08-.565.1-1.13.202-1.695.304l-.056.011c-.016-.01-.046-.022-.066-.045a.563.563 0 0 0-.418-.212c-.063-.003-.095-.04-.119-.092l-.3-.645-.382-.827Z" clip-rule="evenodd"/></g><defs><clipPath id="a"><path fill="#fff" d="M0 0h24v24H0z"/></clipPath></defs></svg>