<svg xmlns="http://www.w3.org/2000/svg" fill="none" viewBox="0 0 24 24"><g clip-path="url(#a)"><path fill="#136485" d="M12 24c6.627 0 12-5.373 12-12S18.627 0 12 0 0 5.373 0 12s5.373 12 12 12"/><path fill="#fff" fill-rule="evenodd" d="M9.512 18.897A7.2 7.2 0 0 1 7 17.307l.066-.116c1.07-1.69 2.032-3.441 2.755-5.31.768-1.984 1.383-4.02 1.968-6.064.052-.182.115-.361.172-.542a.5.5 0 0 1 .103.204c.368 1.311.723 2.626 1.104 3.933a28 28 0 0 0 2.966 6.757q.227.37.77 1.238A7.2 7.2 0 0 1 14.2 19q-1.114-3.402-2.242-6.799h-.069zm2.527-13.875h-.056L12.005 5z" clip-rule="evenodd"/></g><defs><clipPath id="a"><path fill="#fff" d="M0 0h24v24H0z"/></clipPath></defs></svg>