<svg xmlns="http://www.w3.org/2000/svg" fill="none" viewBox="0 0 24 24"><g clip-path="url(#a)"><path fill="#136485" d="M12 24c6.627 0 12-5.373 12-12S18.627 0 12 0 0 5.373 0 12s5.373 12 12 12Z"/><path fill="#fff" fill-rule="evenodd" d="M9.512 18.896A7.175 7.175 0 0 1 7 17.306l.066-.115c1.07-1.69 2.032-3.441 2.755-5.31.768-1.984 1.383-4.02 1.968-6.064.052-.182.115-.361.172-.542a.48.48 0 0 1 .103.204c.368 1.311.723 2.626 1.104 3.933a27.846 27.846 0 0 0 2.966 6.757c.151.247.408.66.77 1.238A7.164 7.164 0 0 1 14.2 19c-.743-2.268-1.49-4.534-2.242-6.799h-.069a8160.1 8160.1 0 0 0-2.377 6.695Zm2.527-13.874h-.056L12.005 5l.034.022Z" clip-rule="evenodd"/></g><defs><clipPath id="a"><path fill="#fff" d="M0 0h24v24H0z"/></clipPath></defs></svg>