<svg xmlns="http://www.w3.org/2000/svg" fill="none" viewBox="0 0 24 24"><g clip-path="url(#a)"><path fill="#2ED6A1" d="M12 24c6.627 0 12-5.373 12-12S18.627 0 12 0 0 5.373 0 12s5.373 12 12 12"/><path fill="#fff" d="M11.155 13.753h3.463a2.34 2.34 0 0 0 2.333-2.347 2.34 2.34 0 0 0-2.334-2.346h-1.101L11.155 7h3.463a4.39 4.39 0 0 1 4.299 3.56 4.41 4.41 0 0 1-2.647 4.928L19 17.872h-3.127zm1.69-2.632H9.382a2.34 2.34 0 0 0-2.333 2.345 2.34 2.34 0 0 0 2.333 2.347h1.102l2.36 2.06H9.382a4.39 4.39 0 0 1-4.3-3.56A4.41 4.41 0 0 1 7.73 9.385L5.002 7h3.126z"/></g><defs><clipPath id="a"><path fill="#fff" d="M0 0h24v24H0z"/></clipPath></defs></svg>