<svg xmlns="http://www.w3.org/2000/svg" fill="none" viewBox="0 0 24 24"><path fill="url(#a)" d="M12 22c5.523 0 10-4.477 10-10S17.523 2 12 2 2 6.477 2 12s4.477 10 10 10"/><path fill="url(#b)" fill-rule="evenodd" d="M9.085 8.5V16h6.25z" clip-rule="evenodd"/><path fill="#fff" fill-rule="evenodd" d="M2.835 16h6.25V8.5z" clip-rule="evenodd"/><path fill="#FC9965" fill-rule="evenodd" d="M4 18c.57.755 1.245 1.43 2 2h12c.755-.57 1.43-1.245 2-2z" clip-rule="evenodd"/><path fill="#FF2D55" fill-rule="evenodd" d="M6 20c1.67 1.255 3.75 2 6 2s4.33-.745 6-2z" clip-rule="evenodd"/><path fill="url(#c)" fill-rule="evenodd" d="M15.415 12.5V18H20z" clip-rule="evenodd"/><path fill="#FFBC5B" fill-rule="evenodd" d="M15.416 16H2.835c.31.715.704 1.385 1.164 2h11.42v-2z" clip-rule="evenodd"/><path fill="#fff" fill-rule="evenodd" d="M10.835 18h4.58v-5.5z" clip-rule="evenodd"/><path fill="#FFC95B" d="M15.415 11a2.5 2.5 0 1 0 0-5 2.5 2.5 0 0 0 0 5m-6.33-4a1.25 1.25 0 1 0 0-2.5 1.25 1.25 0 0 0 0 2.5"/><defs><linearGradient id="a" x1="19.071" x2="4.929" y1="4.929" y2="19.071" gradientUnits="userSpaceOnUse"><stop stop-color="#FF2D55"/><stop offset="1" stop-color="#FFBC5B"/></linearGradient><linearGradient id="b" x1="12.208" x2="12.208" y1="8.5" y2="16" gradientUnits="userSpaceOnUse"><stop stop-color="#A524B3"/><stop offset="1" stop-color="#FF2D55"/></linearGradient><linearGradient id="c" x1="17.706" x2="17.706" y1="12.5" y2="18" gradientUnits="userSpaceOnUse"><stop stop-color="#A524B3"/><stop offset="1" stop-color="#FF2D55"/></linearGradient></defs></svg>