<svg xmlns="http://www.w3.org/2000/svg" fill="none" viewBox="0 0 24 24"><g clip-path="url(#a)"><path fill="url(#b)" d="M10.791 13.571h4.932a3.33 3.33 0 0 0 3.333-3.333 3.3 3.3 0 0 0-3.314-3.314h-1.579L10.791 4h4.932a6.22 6.22 0 0 1 6.257 6.218 6.22 6.22 0 0 1-3.918 5.81l3.899 3.372h-4.445z"/><path fill="#4971FA" d="M13.208 9.848H8.277a3.33 3.33 0 0 0-3.334 3.333 3.32 3.32 0 0 0 3.334 3.334h1.578l3.353 2.924H8.277c-3.45 0-6.258-2.788-6.277-6.219a6.23 6.23 0 0 1 3.918-5.828L2.019 4h4.464z"/><path fill="url(#c)" d="M13.208 9.848H8.277a3.33 3.33 0 0 0-3.334 3.333 3.32 3.32 0 0 0 3.334 3.334h1.578l3.353 2.924H8.277c-3.45 0-6.258-2.788-6.277-6.219a6.23 6.23 0 0 1 3.918-5.828L2.019 4h4.464z"/></g><defs><linearGradient id="b" x1="10.8" x2="21.976" y1="11.701" y2="11.701" gradientUnits="userSpaceOnUse"><stop stop-color="#62D0C9"/><stop offset="1" stop-color="#7DE2AC"/></linearGradient><linearGradient id="c" x1="2.035" x2="13.21" y1="11.71" y2="11.71" gradientUnits="userSpaceOnUse"><stop stop-color="#3268FB"/><stop offset="1" stop-color="#4795FA"/></linearGradient><clipPath id="a"><path fill="#fff" d="M2 4h20v15.419H2z"/></clipPath></defs></svg>