<svg xmlns="http://www.w3.org/2000/svg" fill="none" viewBox="0 0 24 24"><path fill="#4D6BFE" d="M23.749 4.642c-.255-.124-.364.113-.513.233-.05.04-.094.09-.137.136-.372.399-.806.66-1.372.628-.83-.046-1.538.215-2.163.85-.134-.783-.576-1.25-1.248-1.55-.352-.157-.708-.313-.954-.652-.173-.241-.22-.51-.306-.774-.054-.16-.11-.324-.293-.351-.2-.032-.278.136-.356.276-.313.572-.434 1.204-.423 1.844.028 1.436.635 2.581 1.839 3.396.137.093.172.188.129.324-.082.28-.18.553-.266.833-.055.18-.137.219-.328.14a5.5 5.5 0 0 1-1.737-1.18c-.857-.83-1.631-1.745-2.597-2.461a11 11 0 0 0-.688-.472c-.986-.96.13-1.747.387-1.84.27-.096.093-.432-.78-.428-.87.004-1.669.296-2.685.685q-.225.088-.466.136a9.7 9.7 0 0 0-2.883-.1c-1.885.21-3.39 1.103-4.498 2.626-1.33 1.83-1.642 3.91-1.26 6.082.404 2.285 1.57 4.18 3.361 5.66C5.37 20.217 7.51 20.97 9.95 20.825c1.482-.085 3.133-.284 4.994-1.862.47.233.962.326 1.78.397.63.06 1.236-.031 1.706-.128.735-.156.684-.837.418-.963-2.155-1.005-1.683-.596-2.113-.926 1.096-1.299 2.747-2.647 3.392-7.013.05-.347.007-.564 0-.846-.004-.17.035-.237.23-.257a4.1 4.1 0 0 0 1.545-.476c1.397-.763 1.96-2.017 2.092-3.52.02-.23-.003-.469-.245-.589M11.58 18.176c-2.09-1.644-3.102-2.185-3.52-2.161-.391.021-.321.47-.235.762.09.288.207.487.372.74.113.168.191.418-.114.604-.673.418-1.842-.14-1.897-.168-1.361-.801-2.5-1.861-3.301-3.31-.774-1.396-1.224-2.892-1.298-4.488-.02-.387.094-.523.476-.592a4.7 4.7 0 0 1 1.53-.04C5.725 9.835 7.54 10.79 9.06 12.3c.869.863 1.526 1.891 2.203 2.896.72 1.067 1.494 2.084 2.48 2.917.347.292.626.515.891.679-.801.088-2.14.108-3.054-.616m1-6.448a.307.307 0 1 1 .615 0 .307.307 0 0 1-.309.308.304.304 0 0 1-.306-.308m3.11 1.598c-.2.081-.399.152-.59.16a1.26 1.26 0 0 1-.798-.254c-.274-.23-.47-.358-.552-.76a1.8 1.8 0 0 1 .016-.588c.07-.328-.008-.537-.238-.729-.189-.155-.427-.197-.689-.197a.56.56 0 0 1-.255-.079.255.255 0 0 1-.113-.36 1.2 1.2 0 0 1 .192-.208c.356-.204.766-.136 1.146.015.352.144.618.409 1 .782.393.452.463.578.686.916.175.266.336.539.446.85.066.194-.02.354-.25.452"/></svg>