<svg xmlns="http://www.w3.org/2000/svg" fill="none" viewBox="0 0 24 24"><g clip-path="url(#a)"><path fill="#939393" d="M12 24c6.627 0 12-5.373 12-12S18.627 0 12 0 0 5.373 0 12s5.373 12 12 12Z"/><path fill="#fff" fill-rule="evenodd" d="M10.747 14.299c.25-.163 1.928-1.191 3.563-2.193 1.179-.72 1.179-.72 1.159-.791-.021-.086-7.321-4.522-7.396-4.566a14.7 14.7 0 0 1-.412-.253c.134-.093.395-.27.707-.483l.76-.513.52.312c.644.384 7.705 4.715 8.694 5.332-.404.243-1.833 1.089-3.756 2.221l-3.82 2.251a31.91 31.91 0 0 1-.018-1.317h-.001ZM9.127 9.99c.126.075.345.207.615.375l.704.436.015 1.32c.044 3.816.044 3.816.1 3.855l.037.026.04-.015c.021-.006.029-.01 7.439-4.38l.396-.234-.13 1.835-.048.028c-3.051 1.752-6.105 3.5-9.16 5.243-.003-.478-.007-2.11-.008-4.239V9.99Zm-1.6 7.687.017-10.924.265.157a481 481 0 0 1 3.28 1.997c1.164.714 2.33 1.425 3.498 2.133l.49.294-1.618.99-.323-.188A200.24 200.24 0 0 1 11.2 10.95c-.627-.388-1.257-.773-1.888-1.154l-.446-.26-.004 4.63c-.001 2.09-.003 3.827-.005 4.333a73.43 73.43 0 0 1-.62-.383l-.71-.439Z" clip-rule="evenodd"/></g><defs><clipPath id="a"><path fill="#fff" d="M0 0h24v24H0z"/></clipPath></defs></svg>