<svg xmlns="http://www.w3.org/2000/svg" fill="none" viewBox="0 0 32 32"><rect width="32" height="32" fill="#65C7E5" rx="16"/><path fill="currentColor" d="M14.007 18.537h-3.058L10.443 20H8.826l2.76-7.689h1.794L16.14 20h-1.627l-.506-1.463Zm-.418-1.232-1.111-3.212-1.111 3.212h2.222ZM21.133 20l-1.694-2.992h-.726V20h-1.54v-7.678h2.882c.594 0 1.1.106 1.518.319.418.205.73.488.935.847.212.352.319.748.319 1.188 0 .506-.147.964-.44 1.375-.294.403-.73.682-1.31.836L22.916 20h-1.782Zm-2.42-4.147H20c.418 0 .73-.099.935-.297.205-.205.308-.488.308-.847 0-.352-.103-.623-.308-.814-.206-.198-.517-.297-.935-.297h-1.287v2.255Z"/></svg>