<svg xmlns="http://www.w3.org/2000/svg" fill="none" viewBox="0 0 32 32"><rect width="32" height="32" fill="#65C7E5" rx="16"/><path fill="#fff" d="M10.26 20H8.711l2.817-8h1.789l2.82 8H14.59l-2.136-6.36h-.063L10.26 20Zm.05-3.137h4.219v1.164H10.31v-1.164ZM17.192 20v-8h3c.614 0 1.13.107 1.547.32.419.214.735.513.949.899.216.383.324.83.324 1.34 0 .513-.11.958-.328 1.336a2.166 2.166 0 0 1-.957.87c-.422.204-.94.305-1.555.305h-2.136v-1.203h1.941c.36 0 .654-.05.883-.148a1.05 1.05 0 0 0 .508-.442c.112-.195.168-.435.168-.718a1.47 1.47 0 0 0-.168-.727 1.069 1.069 0 0 0-.512-.46c-.23-.108-.525-.161-.887-.161h-1.328V20h-1.45Zm4.133-3.625L23.305 20h-1.617l-1.945-3.625h1.582Z"/></svg>