<svg xmlns="http://www.w3.org/2000/svg" fill="none" viewBox="0 0 24 24"><path fill="#62757E" fill-rule="evenodd" d="m21.326 17.63-8.116 4.214a1.02 1.02 0 0 1-.496.156h-.003a.814.814 0 0 1-.325-.067L2.5 17.656a.833.833 0 0 1-.5-.766V7.11c0-.024.015-.044.017-.067a.848.848 0 0 1 .067-.272.826.826 0 0 1 .23-.295c.022-.018.032-.045.056-.061.012-.009.028-.007.04-.014.017-.01.027-.026.045-.036l8.459-4.277a.816.816 0 0 1 .698-.018l9.667 4.277c.021.01.035.028.055.038.014.009.03.006.045.015.245.15.621.29.621.581v10.014c0 .313-.4.493-.674.636ZM3.647 16.34l8.36 3.617v-7.964l-8.36-3.619v7.966Zm1.135-9.287 7.896 3.417 2.18-1.132-7.782-3.446-2.294 1.161Zm6.524-3.3-2.312 1.17 7.756 3.433 2.28-1.184-7.724-3.418Zm9.028 4.898-6.661 3.2v7.862l6.661-3.552V8.65Z" clip-rule="evenodd"/></svg>