<svg xmlns="http://www.w3.org/2000/svg" fill="none" viewBox="0 0 24 24"><g clip-path="url(#a)"><path fill="#666" d="M12 24c6.627 0 12-5.373 12-12S18.627 0 12 0 0 5.373 0 12s5.373 12 12 12Z"/><path fill="#fff" fill-rule="evenodd" d="M18.142 15.277a.976.976 0 0 1-1.319.347l-3.04-1.725v-1.094l.965-.547 3.04 1.724c.463.261.62.841.354 1.295Zm-4.814 2.329a.957.957 0 0 1-.965.948.957.957 0 0 1-.966-.948v-3.449l.966-.547.965.547v3.449Zm-5.426-1.982a.976.976 0 0 1-1.319-.347.939.939 0 0 1 .353-1.295l3.04-1.725.967.548V13.9l-3.041 1.724Zm-.966-5.606a.94.94 0 0 1-.353-1.295.976.976 0 0 1 1.319-.347l3.04 1.725v1.094l-.965.547-3.04-1.724Zm4.461-3.624c0-.523.433-.948.966-.948.533 0 .965.425.965.948v3.448l-.965.548-.966-.547V6.394Zm2.385 5.316.512.29-.512.29v-.58Zm-.965-1.062.511-.29v.58l-.511-.29Zm-1.42.29v-.58l.511.29-.51.29Zm-.454 1.351L10.43 12l.512-.29v.58Zm.965 1.063-.51.29v-.58l.51.29Zm1.42-.29v.58l-.511-.29.511-.29Zm-.965.033-.966-.548v-1.094l.966-.547.965.547v1.094l-.965.547Zm4.46-4.72a.976.976 0 0 1 1.32.348.938.938 0 0 1-.354 1.295l-3.04 1.725-.967-.548V10.1l3.041-1.724Zm1.193 5.22L15.203 12l2.813-1.595a1.379 1.379 0 0 0 .52-1.905 1.434 1.434 0 0 0-1.94-.51l-2.814 1.595V6.394c0-.77-.635-1.394-1.42-1.394-.783 0-1.42.624-1.42 1.394v3.191L8.13 7.99a1.433 1.433 0 0 0-1.94.51 1.38 1.38 0 0 0 .52 1.905L9.524 12 6.71 13.595a1.379 1.379 0 0 0-.52 1.905c.391.667 1.26.895 1.939.51l2.814-1.595v3.19c0 .77.636 1.395 1.42 1.395.784 0 1.42-.624 1.42-1.394v-3.191l2.813 1.595a1.434 1.434 0 0 0 1.94-.51 1.38 1.38 0 0 0-.52-1.905Z" clip-rule="evenodd"/></g><defs><clipPath id="a"><path fill="#fff" d="M0 0h24v24H0z"/></clipPath></defs></svg>