<svg xmlns="http://www.w3.org/2000/svg" fill="none" viewBox="0 0 24 24"><g clip-path="url(#a)"><path fill="#FEC907" d="M12 24c6.627 0 12-5.373 12-12S18.627 0 12 0 0 5.373 0 12s5.373 12 12 12"/><path fill="#fff" d="M9.144 16.923a.8.8 0 0 1 .809.788.8.8 0 0 1-.809.789h-1.05a.88.88 0 0 1-.616-.25.84.84 0 0 1-.256-.6V6.33c0-.22.09-.431.25-.587a.86.86 0 0 1 .601-.243h1.124a.8.8 0 0 1 .81.789.78.78 0 0 1-.238.557.82.82 0 0 1-.572.231h-.249v9.846zm8.79-8.271q.843 1.449.844 3.243-.001 1.793-.854 3.245c-.568.967-1.2 1.708-2.238 2.378-.953.617-1.949.981-3.183.981h-.41a.8.8 0 0 1-.808-.788c0-.436.362-.788.809-.788h.498c.874 0 1.509-.362 2.221-.773.713-.41 1.169-1.083 1.582-1.808q.621-1.087.621-2.428 0-1.36-.63-2.447a4.6 4.6 0 0 0-1.716-1.713 4.76 4.76 0 0 0-2.417-.625h-.214a.8.8 0 0 1-.81-.788c0-.21.087-.41.238-.558a.82.82 0 0 1 .572-.231h.252q1.833 0 3.315.825a6.04 6.04 0 0 1 2.327 2.275"/></g><defs><clipPath id="a"><path fill="#fff" d="M0 0h24v24H0z"/></clipPath></defs></svg>