<svg xmlns="http://www.w3.org/2000/svg" fill="none" viewBox="0 0 24 24"><g clip-path="url(#a)"><path fill="#006AD2" d="M12 24c6.627 0 12-5.373 12-12S18.627 0 12 0 0 5.373 0 12s5.373 12 12 12"/><path fill="#fff" fill-rule="evenodd" d="m9.016 18.5.346-.926-.614.06-.221.586c-.017.044-.032.09-.054.132-.049.09-.123.147-.226.147H6.883c-.01 0-.022-.007-.045-.014l.29-.784c-.53-.014-1.044-.023-1.557-.081.008-.096 2.933-7.472 3.05-7.694q.045-.005.097-.007h2.362q.037 0 .07.002c.24.018.373.22.29.45-.11.303-.228.605-.341.907L9.612 15.23c-.015.04-.028.082-.047.137q.061.006.107.005c2.236-.097 3.877-1.164 4.937-3.17.232-.438.396-.91.484-1.398.053-.285.07-.57-.002-.856a1.27 1.27 0 0 0-.504-.744 1.9 1.9 0 0 0-1.128-.35H5.5c.017-.043.025-.072.039-.098L6.541 6.95a.55.55 0 0 1 .51-.302h4.237l.434-1.148h1.287c.032 0 .063-.003.094.002.092.014.144.086.13.18a.5.5 0 0 1-.034.114l-.269.717-.043.13h.581q.023-.047.042-.095l.358-.952c.037-.096.038-.096.134-.096q.61-.002 1.223 0c.172 0 .233.091.172.257q-.148.4-.298.796c-.014.037-.026.075-.043.125.04.008.072.015.105.02a5.6 5.6 0 0 1 1.642.433c.398.18.76.415 1.057.744.403.444.603.975.635 1.574a4.3 4.3 0 0 1-.269 1.683c-.456 1.282-1.105 2.447-2.043 3.429a8.6 8.6 0 0 1-2.213 1.648c-.885.47-1.819.798-2.787 1.03-.086.022-.132.06-.162.145q-.16.443-.33.885c-.068.18-.137.23-.326.23z" clip-rule="evenodd"/></g><defs><clipPath id="a"><path fill="#fff" d="M0 0h24v24H0z"/></clipPath></defs></svg>