<svg xmlns="http://www.w3.org/2000/svg" fill="none" viewBox="0 0 24 24"><path fill="url(#a)" d="M4.33 21.604c2.36-1.03 5.015-1.847 7.67-1.812 2.655-.035 5.31.783 7.67 1.812.762.332 1.68.175 2.145-.515 1.51-2.244 2.332-4.832 2.163-7.608-.365-5.96-5.172-10.813-11.128-11.223a12 12 0 0 0-1.7 0C5.194 2.668.387 7.52.022 13.481c-.169 2.776.654 5.364 2.163 7.608.464.69 1.383.847 2.145.515"/><defs><linearGradient id="a" x1="12" x2="12" y1="2.229" y2="21.771" gradientUnits="userSpaceOnUse"><stop stop-color="#4469b2"/><stop offset=".202" stop-color="#78a7e4"/><stop offset=".409" stop-color="#cddddd"/><stop offset=".611" stop-color="#f7da83"/><stop offset=".779" stop-color="#f79e4e"/><stop offset="1" stop-color="#ea5e69"/></linearGradient></defs></svg>