<svg xmlns="http://www.w3.org/2000/svg" fill="none" viewBox="0 0 24 24"><path fill="#62757E" fill-rule="evenodd" d="M6.095 4.169a1.2 1.2 0 0 1 1.021-.57h1.89L7.503 7.983h-3.76zm3.1 3.814L10.697 3.6h2.833l1.503 4.384zm7.53 0h3.532L17.905 4.17a1.2 1.2 0 0 0-1.021-.57h-1.662zM3.87 9.583l6.32 8.601-2.949-8.6zm9.942 8.6 6.32-8.6H16.76zm1.258-8.6H8.932L12 18.533zM7.116 2a2.8 2.8 0 0 0-2.383 1.33L2.327 7.231a2.8 2.8 0 0 0 .127 3.128l8.095 11.018a1.8 1.8 0 0 0 2.901 0l8.096-11.018a2.8 2.8 0 0 0 .127-3.128L19.267 3.33A2.8 2.8 0 0 0 16.884 2z" clip-rule="evenodd"/></svg>