<svg xmlns="http://www.w3.org/2000/svg" fill="none" viewBox="0 0 24 24"><path fill="#62757E" fill-rule="evenodd" d="m3.907 9.013 3.395-4.039H8.89l-1.637 4.04zm5.157 0 1.637-4.039h2.838l1.637 4.04zm7.922 0h3.107l-3.395-4.039H15.35zm-12.994 1.68 5.98 6.211-2.816-6.21zm10.036 6.21 5.98-6.21h-3.164zm.98-6.21H8.993L12 17.325zM6.027 3.88a1.64 1.64 0 0 1 1.257-.586h9.432c.485 0 .945.215 1.257.586l4.142 4.928c.54.644.509 1.591-.074 2.197l-8.858 9.198a1.643 1.643 0 0 1-2.366 0l-8.858-9.198a1.643 1.643 0 0 1-.074-2.197z" clip-rule="evenodd"/></svg>