<svg xmlns="http://www.w3.org/2000/svg" fill="none" viewBox="0 0 24 24"><path fill="#06C" d="M12 22c5.523 0 10-4.477 10-10S17.523 2 12 2 2 6.477 2 12s4.477 10 10 10Z"/><path fill="#fff" d="M6.396 9.403h7.062s2.437-.023.751 3.12c0 0-1.23 2.461-4.282 2.415l1.645-4.2a.334.334 0 0 0-.301-.456l-2.164-.036-2.734 6.651s.911.092 1.413.046l-.274.683h1.29a.173.173 0 0 0 .164-.114l.232-.615.547-.045-.32.774h1.258a.229.229 0 0 0 .214-.145l.351-.903s3.827-.637 5.558-3.735c0 0 2.324-3.6-.41-4.875a5.285 5.285 0 0 0-1.685-.456l.319-.788a.154.154 0 0 0-.014-.144.156.156 0 0 0-.128-.07h-1.18l-.364.957h-.501l.282-.743a.16.16 0 0 0-.146-.214h-1.184l-.365.957H7.75a.547.547 0 0 0-.484.287l-.87 1.649Z"/></svg>