<svg xmlns="http://www.w3.org/2000/svg" fill="none" viewBox="0 0 24 24"><path fill="#303136" fill-rule="evenodd" d="M21 10.187a13 13 0 0 1-.228 2.232q-1.48 7.697-8.835 7.697h-3.11l.01-.037.749-3.538h2.142q3.986 0 4.827-4.532.06-.29.098-.586l4.262-2.46q.084.61.085 1.224m-1.56-4.452-3.823 2.207a3.9 3.9 0 0 0-2.179-.533H7.271l.019-.09.729-3.417h6.4a9 9 0 0 1 2.424.306c.909.244 1.743.71 2.427 1.355q.087.085.17.172" clip-rule="evenodd"/><path fill="#00D0C4" fill-rule="evenodd" d="m13.345 10.452-.567 3.534h-2.647L8.836 20.08l-.009.037H3l2.188-2.953 1.435-6.712z" clip-rule="evenodd"/></svg>