<svg xmlns="http://www.w3.org/2000/svg" fill="none" viewBox="0 0 24 24"><path fill="#06C" d="M12 22c5.523 0 10-4.477 10-10S17.523 2 12 2 2 6.477 2 12s4.477 10 10 10"/><path fill="#fff" d="M6.396 9.403h7.061s2.438-.023.752 3.12c0 0-1.23 2.46-4.282 2.415l1.644-4.2a.33.33 0 0 0-.3-.456l-2.164-.036-2.734 6.651s.911.091 1.412.046l-.273.683h1.29a.17.17 0 0 0 .163-.114l.233-.615.546-.045-.319.774h1.258a.23.23 0 0 0 .214-.146l.35-.902s3.828-.637 5.559-3.735c0 0 2.323-3.6-.41-4.875a5.3 5.3 0 0 0-1.686-.456l.32-.788a.155.155 0 0 0-.142-.214h-1.18l-.364.957h-.502l.283-.743a.16.16 0 0 0-.018-.144.16.16 0 0 0-.128-.07h-1.184l-.365.957H7.75a.55.55 0 0 0-.483.287z"/></svg>