<svg xmlns="http://www.w3.org/2000/svg" fill="none" viewBox="0 0 24 24"><path fill="#303136" fill-rule="evenodd" d="M21 10.187a12.887 12.887 0 0 1-.228 2.232c-.987 5.131-3.932 7.697-8.835 7.697h-3.11l.009-.037.75-3.538h2.141c2.657 0 4.267-1.51 4.828-4.532.04-.193.073-.388.098-.586l4.262-2.46c.056.406.085.815.085 1.224Zm-1.56-4.452-3.823 2.207a3.89 3.89 0 0 0-2.179-.533H7.271l.019-.09.729-3.417h6.4a8.88 8.88 0 0 1 2.424.306c.909.244 1.743.71 2.427 1.355.058.057.114.114.17.172Z" clip-rule="evenodd"/><path fill="#00D0C4" fill-rule="evenodd" d="m13.345 10.452-.567 3.534h-2.647L8.836 20.08l-.009.037H3l2.188-2.953 1.435-6.712h6.721Z" clip-rule="evenodd"/></svg>