<svg xmlns="http://www.w3.org/2000/svg" fill="none" viewBox="0 0 24 24"><path fill="#62757E" fill-rule="evenodd" d="M21.167 17h-.834a.833.833 0 1 1 0-1.666V3.667H3.667v11.728h6.666c.461 0 .834.312.834.771 0 .46-.373.834-.834.834h-7.5A.833.833 0 0 1 2 16.166V2.834c0-.46.373-.834.833-.834h18.334c.46 0 .833.373.833.834v13.333c0 .46-.372.832-.833.832M7.833 11.167A.833.833 0 0 1 7 10.333c0-.46.372-.786.833-.786h3.334c.46 0 .833.326.833.786s-.373.834-.833.834zm7.5-.834a3.337 3.337 0 0 1 3.334 3.334c0 .838-.321 1.595-.834 2.181V19.5a.835.835 0 0 1-1.326.672l-1.174-.86-1.173.86a.835.835 0 0 1-1.327-.672v-3.652A3.3 3.3 0 0 1 12 13.667a3.337 3.337 0 0 1 3.333-3.334m0 1.667c-.919 0-1.666.748-1.666 1.667s.747 1.667 1.666 1.667S17 14.586 17 13.667A1.67 1.67 0 0 0 15.333 12m-.493 5.606a.83.83 0 0 1 .987 0l.34.249v-.973c-.268.069-.545.117-.834.117s-.565-.048-.833-.117v.973zM5.333 7.833A.833.833 0 0 1 4.5 7c0-.46.372-.795.833-.795h13.334c.46 0 .833.335.833.795s-.372.833-.833.833z" clip-rule="evenodd"/></svg>