<svg xmlns="http://www.w3.org/2000/svg" fill="none" viewBox="0 0 24 24"><path fill="#62757E" fill-rule="evenodd" d="M3.839 11.2H5a.8.8 0 0 1 0 1.6H3.84a8.2 8.2 0 0 0 7.361 7.361V19a.8.8 0 0 1 1.6 0v1.162a8.2 8.2 0 0 0 7.362-7.362H19a.8.8 0 0 1 0-1.6h1.162A8.2 8.2 0 0 0 12.8 3.839V5a.8.8 0 1 1-1.6 0V3.839A8.2 8.2 0 0 0 3.84 11.2M2.2 12c0-5.412 4.388-9.8 9.8-9.8s9.8 4.388 9.8 9.8-4.387 9.8-9.8 9.8c-5.412 0-9.8-4.388-9.8-9.8m14.366-4.566a.8.8 0 0 1 .193.819l-2 6a.8.8 0 0 1-.506.506l-6 2a.8.8 0 0 1-1.012-1.012l2-6a.8.8 0 0 1 .506-.506l6-2a.8.8 0 0 1 .819.193m-5.933 3.198-1.368 4.103 4.103-1.367 1.367-4.103z" clip-rule="evenodd"/></svg>