<svg xmlns="http://www.w3.org/2000/svg" fill="none" viewBox="0 0 24 24"><path fill="#62757E" fill-rule="evenodd" d="m20.845 12 1.063 2.076c.195.38.07.847-.29 1.08l-1.958 1.266-.117 2.33a.835.835 0 0 1-.791.79l-2.33.117-1.267 1.96a.832.832 0 0 1-1.08.289L12 20.844l-2.077 1.064a.831.831 0 0 1-1.08-.29L7.579 19.66l-2.33-.116a.833.833 0 0 1-.791-.79l-.116-2.33-1.96-1.268a.833.833 0 0 1-.29-1.079L3.155 12 2.092 9.924a.834.834 0 0 1 .288-1.08l1.96-1.266.117-2.33a.833.833 0 0 1 .79-.79l2.33-.118 1.267-1.96a.832.832 0 0 1 1.08-.288L12 3.156l2.076-1.064a.832.832 0 0 1 1.08.289l1.266 1.96 2.33.116a.835.835 0 0 1 .79.791l.117 2.33 1.96 1.266c.36.233.484.699.29 1.08L20.844 12Zm-1.678-.38.915-1.785-1.686-1.09a.834.834 0 0 1-.38-.658l-.1-2.003-2.004-.1a.833.833 0 0 1-.657-.381l-1.09-1.684-1.785.914a.836.836 0 0 1-.76 0L9.833 3.92 8.746 5.603a.834.834 0 0 1-.66.38l-2.001.101-.1 2.003a.835.835 0 0 1-.38.658l-1.687 1.09.915 1.785a.83.83 0 0 1 0 .76l-.915 1.784 1.686 1.09c.226.145.366.39.38.659l.1 2.003 2.003.1a.837.837 0 0 1 .659.38l1.088 1.685 1.785-.914a.833.833 0 0 1 .76 0l1.786.914 1.09-1.685a.835.835 0 0 1 .657-.38l2.004-.1.1-2.003a.835.835 0 0 1 .38-.66l1.686-1.089-.916-1.784a.84.84 0 0 1 0-.76Zm-4.249 4.547c-1.169 0-2.083-1.1-2.083-2.5 0-1.402.914-2.5 2.083-2.5s2.083 1.098 2.083 2.5c0 1.4-.915 2.5-2.083 2.5Zm0-3.334c-.147 0-.416.317-.416.833 0 .518.269.833.416.833.147 0 .416-.315.416-.833 0-.516-.269-.833-.416-.833Zm-3.81 3.642a.833.833 0 1 1-1.547-.618l3.333-8.333a.835.835 0 0 1 1.548.619l-3.333 8.332Zm-2.023-3.642c-1.169 0-2.083-1.098-2.083-2.5s.914-2.5 2.083-2.5c1.168 0 2.083 1.098 2.083 2.5s-.915 2.5-2.083 2.5Zm0-3.333c-.148 0-.417.316-.417.833 0 .517.27.834.417.834.147 0 .416-.317.416-.834 0-.517-.27-.833-.416-.833Z" clip-rule="evenodd"/></svg>