<svg xmlns="http://www.w3.org/2000/svg" fill="none" viewBox="0 0 24 24"><path fill="#62757E" fill-rule="evenodd" d="m20.508 15-.436.331.075.544a3.78 3.78 0 0 1-.89 2.999 3.74 3.74 0 0 1-3.362 1.263l-.543-.073-.331.438A3.75 3.75 0 0 1 12.007 22 3.74 3.74 0 0 1 9 20.51l-.332-.438-.543.076a3.75 3.75 0 0 1-3.367-1.26 3.78 3.78 0 0 1-.896-2.993l.074-.543-.437-.33A3.75 3.75 0 0 1 2 12.011 3.75 3.75 0 0 1 3.491 9l.437-.332-.075-.543a3.78 3.78 0 0 1 .892-2.999 3.75 3.75 0 0 1 3.36-1.263l.544.074.33-.438A3.75 3.75 0 0 1 11.993 2 3.75 3.75 0 0 1 15 3.49l.332.438.542-.075a3.75 3.75 0 0 1 3.367 1.26c.717.82 1.044 1.91.897 2.992l-.074.544.438.33A3.75 3.75 0 0 1 22 11.988c0 1.193-.543 2.29-1.492 3.013m-1.012-4.69-.826-.626a.83.83 0 0 1-.324-.778l.14-1.026a2.08 2.08 0 0 0-.5-1.671 2.1 2.1 0 0 0-1.882-.705l-1.026.142a.84.84 0 0 1-.779-.322l-.627-.824a2.1 2.1 0 0 0-1.68-.833 2.09 2.09 0 0 0-1.683.837l-.626.827a.83.83 0 0 1-.776.322l-1.027-.14A2.1 2.1 0 0 0 6 6.221a2.08 2.08 0 0 0-.497 1.675l.141 1.026a.83.83 0 0 1-.32.777l-.825.628a2.1 2.1 0 0 0-.833 1.684c0 .666.306 1.279.837 1.68l.826.625a.83.83 0 0 1 .324.778l-.14 1.026a2.08 2.08 0 0 0 .499 1.671 2.1 2.1 0 0 0 1.882.706l1.027-.143a.83.83 0 0 1 .778.322l.627.824c.402.53 1.015.834 1.68.834.668 0 1.281-.306 1.684-.838l.625-.827a.84.84 0 0 1 .777-.323l1.026.14A2.11 2.11 0 0 0 18 17.78c.406-.466.582-1.06.498-1.675l-.142-1.025a.83.83 0 0 1 .32-.778l.824-.627c.53-.403.835-1.017.834-1.684 0-.666-.307-1.279-.837-1.68M9.294 8.6a.7.7 0 1 0 .002 1.4.7.7 0 0 0-.002-1.4M7 9.3C7 8.03 8.027 7 9.294 7a2.297 2.297 0 0 1 2.294 2.3c0 1.27-1.027 2.3-2.294 2.3A2.297 2.297 0 0 1 7 9.3m7.706 4.7a.7.7 0 1 0 .002 1.398.7.7 0 0 0-.002-1.399m-2.294.7c0-1.27 1.027-2.3 2.294-2.3A2.297 2.297 0 0 1 17 14.7c0 1.27-1.027 2.3-2.294 2.3a2.297 2.297 0 0 1-2.294-2.3m3.381-5.35a.8.8 0 0 0 0-1.132.796.796 0 0 0-1.128 0l-6.435 6.45a.8.8 0 0 0 0 1.132.797.797 0 0 0 1.129 0z" clip-rule="evenodd"/></svg>