<svg xmlns="http://www.w3.org/2000/svg" fill="none" viewBox="0 0 24 24"><g clip-path="url(#a)"><path fill="#F4AE95" d="M12 24c6.627 0 12-5.373 12-12S18.627 0 12 0 0 5.373 0 12s5.373 12 12 12Z"/><path fill="#fff" d="m11.852 6.38-4.66 9.946h7.737a.56.56 0 0 1 .514.348l.009.02a.491.491 0 0 1-.024.428.734.734 0 0 1-.639.378H6.567a.632.632 0 0 1-.356-.11l-.043-.03a.669.669 0 0 1-.222-.834l5.499-11.584a.947.947 0 0 1 .239-.314.529.529 0 0 1 .682-.007.38.38 0 0 1 .103.131l5.577 11.664c.077.158.092.34.045.509a.436.436 0 0 1-.42.323h-.064a.67.67 0 0 1-.607-.394L12.19 6.38a.186.186 0 0 0-.269-.081.186.186 0 0 0-.069.08Z"/></g><defs><clipPath id="a"><path fill="#fff" d="M0 0h24v24H0z"/></clipPath></defs></svg>