<svg xmlns="http://www.w3.org/2000/svg" fill="none" viewBox="0 0 24 24"><g clip-path="url(#a)"><path fill="#0983CB" d="M12 24c6.627 0 12-5.373 12-12S18.627 0 12 0 0 5.373 0 12s5.373 12 12 12"/><path fill="#fff" d="M9.259 17.856c-.024 0-.054 0-.077-.006a.406.406 0 0 1-.325-.479 11.5 11.5 0 0 1 1.253-3.486c.549-.98 1.104-1.613 1.636-2.222.55-.626 1.064-1.211 1.56-2.157a9.6 9.6 0 0 0 .981-2.996.41.41 0 0 1 .467-.342.41.41 0 0 1 .343.467 10.5 10.5 0 0 1-1.064 3.25c-.543 1.028-1.117 1.684-1.672 2.316-.532.603-1.034 1.176-1.542 2.08a10.9 10.9 0 0 0-1.165 3.238.404.404 0 0 1-.395.337"/><path fill="#fff" fill-opacity=".3" d="M10.919 11.12a.42.42 0 0 1-.337-.172 9.5 9.5 0 0 1-.644-1.052 10.3 10.3 0 0 1-1.064-3.25.41.41 0 0 1 .343-.466.41.41 0 0 1 .467.342 9.5 9.5 0 0 0 .98 2.996 9 9 0 0 0 .586.963.403.403 0 0 1-.331.639"/><path fill="#fff" fill-opacity=".5" d="M10.977 11.136a.41.41 0 0 1-.32-.154 9 9 0 0 1-.39-.514.403.403 0 0 1 .101-.567.403.403 0 0 1 .567.1c.113.16.23.313.36.473a.406.406 0 0 1-.318.662"/><path fill="#fff" fill-opacity=".3" d="M14.718 17.856a.41.41 0 0 1-.402-.331 10.7 10.7 0 0 0-1.164-3.238 9 9 0 0 0-.49-.78.408.408 0 0 1 .667-.467c.19.272.367.55.532.85a11.5 11.5 0 0 1 1.253 3.487.406.406 0 0 1-.325.479z"/><path fill="#fff" fill-opacity=".5" d="M13.287 14.08a.4.4 0 0 1-.336-.178 7 7 0 0 0-.278-.378.41.41 0 0 1 .07-.574.407.407 0 0 1 .574.077q.15.194.301.414a.41.41 0 0 1-.1.567.4.4 0 0 1-.23.071"/><path fill="#fff" d="M13.649 16.686H10.35a.206.206 0 0 1-.207-.207c0-.112.09-.207.207-.207h3.298c.112 0 .206.089.206.207a.205.205 0 0 1-.206.207m-.289-.869H10.61a.206.206 0 0 1-.207-.207c0-.118.089-.206.207-.206h2.748c.112 0 .207.088.207.207a.206.206 0 0 1-.207.206m-.412-.868h-1.95a.205.205 0 0 1-.207-.207c0-.118.089-.207.207-.207h1.95c.112 0 .207.089.207.207a.205.205 0 0 1-.207.207m-.544-.869h-.851a.205.205 0 0 1-.207-.207c0-.118.088-.207.207-.207h.85c.113 0 .207.089.207.207a.205.205 0 0 1-.207.207m1.248-6.654H10.35a.206.206 0 0 1-.207-.206c0-.119.09-.207.207-.207h3.298c.112 0 .206.088.206.207a.205.205 0 0 1-.206.206m-.289.869H10.61a.205.205 0 0 1-.207-.207c0-.118.089-.207.207-.207h2.748c.112 0 .207.089.207.207a.206.206 0 0 1-.207.207m-.412.869h-1.95a.206.206 0 0 1-.207-.207c0-.118.089-.207.207-.207h1.95c.112 0 .207.089.207.207a.206.206 0 0 1-.207.207m-.544.868h-.851a.205.205 0 0 1-.207-.207c0-.118.088-.206.207-.206h.85c.113 0 .207.088.207.207a.205.205 0 0 1-.207.206"/><path fill="#fff" d="M12 18.5A6.504 6.504 0 0 1 5.5 12c0-3.587 2.913-6.5 6.5-6.5s6.5 2.913 6.5 6.5-2.913 6.5-6.5 6.5m0-12.185A5.694 5.694 0 0 0 6.315 12 5.69 5.69 0 0 0 12 17.685 5.687 5.687 0 0 0 17.685 12 5.694 5.694 0 0 0 12 6.315"/></g><defs><clipPath id="a"><path fill="#fff" d="M0 0h24v24H0z"/></clipPath></defs></svg>