<svg xmlns="http://www.w3.org/2000/svg" fill="none" viewBox="0 0 24 24"><g clip-path="url(#a)"><path fill="#0983CB" d="M12 24c6.627 0 12-5.373 12-12S18.627 0 12 0 0 5.373 0 12s5.373 12 12 12Z"/><path fill="#fff" d="M9.259 17.856c-.024 0-.054 0-.077-.006a.406.406 0 0 1-.325-.479 11.507 11.507 0 0 1 1.253-3.486c.549-.98 1.104-1.613 1.636-2.222.55-.626 1.064-1.211 1.56-2.157a9.597 9.597 0 0 0 .981-2.996.412.412 0 0 1 .467-.342.412.412 0 0 1 .343.467 10.455 10.455 0 0 1-1.064 3.25c-.543 1.028-1.117 1.684-1.672 2.316-.532.603-1.034 1.176-1.542 2.08a10.89 10.89 0 0 0-1.165 3.238.404.404 0 0 1-.395.337Z"/><path fill="#fff" fill-opacity=".3" d="M10.919 11.12a.415.415 0 0 1-.337-.172 9.446 9.446 0 0 1-.644-1.052 10.302 10.302 0 0 1-1.064-3.25.408.408 0 0 1 .343-.466.408.408 0 0 1 .467.342 9.5 9.5 0 0 0 .98 2.996 8.7 8.7 0 0 0 .586.963.403.403 0 0 1-.331.639Z"/><path fill="#fff" fill-opacity=".5" d="M10.977 11.136a.414.414 0 0 1-.32-.154 9.107 9.107 0 0 1-.39-.514.403.403 0 0 1 .101-.567.403.403 0 0 1 .567.1c.113.16.23.313.36.473a.406.406 0 0 1-.318.662Z"/><path fill="#fff" fill-opacity=".3" d="M14.718 17.856a.41.41 0 0 1-.402-.331 10.723 10.723 0 0 0-1.164-3.238 8.673 8.673 0 0 0-.49-.78.408.408 0 0 1 .667-.467c.19.272.367.55.532.851a11.449 11.449 0 0 1 1.253 3.486.406.406 0 0 1-.325.479h-.071Z"/><path fill="#fff" fill-opacity=".5" d="M13.287 14.08a.405.405 0 0 1-.336-.178 6.96 6.96 0 0 0-.278-.378.411.411 0 0 1 .07-.573.407.407 0 0 1 .574.076c.1.13.2.266.301.414a.408.408 0 0 1-.1.567.421.421 0 0 1-.23.071Z"/><path fill="#fff" d="M13.649 16.686H10.35a.206.206 0 0 1-.207-.207c0-.112.09-.207.207-.207h3.298c.112 0 .206.089.206.207a.206.206 0 0 1-.206.207Zm-.29-.869H10.61a.205.205 0 0 1-.207-.207c0-.118.089-.206.207-.206h2.748c.112 0 .207.088.207.207a.206.206 0 0 1-.207.206Zm-.413-.868h-1.95a.205.205 0 0 1-.207-.207c0-.118.089-.207.207-.207h1.95c.112 0 .207.089.207.207a.205.205 0 0 1-.207.207Zm-.544-.869h-.851a.205.205 0 0 1-.207-.207c0-.118.088-.207.207-.207h.85c.113 0 .207.089.207.207a.205.205 0 0 1-.207.207Zm1.247-6.654H10.35a.206.206 0 0 1-.207-.206c0-.119.09-.207.207-.207h3.298c.112 0 .206.088.206.207a.205.205 0 0 1-.206.206Zm-.29.869H10.61a.205.205 0 0 1-.207-.207c0-.118.089-.207.207-.207h2.748c.112 0 .207.089.207.207a.206.206 0 0 1-.207.207Zm-.413.869h-1.95a.206.206 0 0 1-.207-.207c0-.118.089-.207.207-.207h1.95c.112 0 .207.089.207.207a.206.206 0 0 1-.207.207Zm-.544.868h-.851a.205.205 0 0 1-.207-.207c0-.118.088-.206.207-.206h.85c.113 0 .207.088.207.207a.205.205 0 0 1-.207.206Z"/><path fill="#fff" d="M12 18.5A6.504 6.504 0 0 1 5.5 12c0-3.587 2.913-6.5 6.5-6.5s6.5 2.913 6.5 6.5-2.913 6.5-6.5 6.5Zm0-12.185A5.694 5.694 0 0 0 6.315 12 5.69 5.69 0 0 0 12 17.684 5.687 5.687 0 0 0 17.684 12 5.694 5.694 0 0 0 12 6.315Z"/></g><defs><clipPath id="a"><path fill="#fff" d="M0 0h24v24H0z"/></clipPath></defs></svg>