<svg xmlns="http://www.w3.org/2000/svg" fill="none" viewBox="0 0 24 24"><g clip-path="url(#a)"><path fill="#0983CB" d="M12 24c6.627 0 12-5.373 12-12S18.627 0 12 0 0 5.373 0 12s5.373 12 12 12Z"/><path fill="#fff" d="M9.258 17.856c-.024 0-.053 0-.077-.006a.406.406 0 0 1-.325-.479 11.507 11.507 0 0 1 1.253-3.486c.55-.98 1.105-1.613 1.637-2.222.55-.626 1.063-1.211 1.56-2.157a9.597 9.597 0 0 0 .98-2.995.412.412 0 0 1 .468-.343.412.412 0 0 1 .342.467 10.452 10.452 0 0 1-1.063 3.25c-.544 1.028-1.117 1.684-1.673 2.316-.531.603-1.034 1.176-1.542 2.08a10.9 10.9 0 0 0-1.164 3.238.404.404 0 0 1-.396.337Z"/><path fill="#fff" fill-opacity=".3" d="M10.919 11.12a.415.415 0 0 1-.337-.172 9.449 9.449 0 0 1-.644-1.052 10.302 10.302 0 0 1-1.064-3.25.408.408 0 0 1 .343-.466.408.408 0 0 1 .467.342 9.5 9.5 0 0 0 .98 2.996c.178.343.373.656.586.963a.403.403 0 0 1-.331.639Z"/><path fill="#fff" fill-opacity=".5" d="M10.976 11.136a.414.414 0 0 1-.319-.154 9.108 9.108 0 0 1-.39-.514.403.403 0 0 1 .1-.567.403.403 0 0 1 .568.1c.112.16.23.313.36.473a.406.406 0 0 1-.319.662Z"/><path fill="#fff" fill-opacity=".3" d="M14.718 17.856a.41.41 0 0 1-.402-.331 10.729 10.729 0 0 0-1.164-3.238 8.702 8.702 0 0 0-.49-.78.408.408 0 0 1 .667-.467c.19.272.367.55.532.85a11.451 11.451 0 0 1 1.253 3.487.406.406 0 0 1-.325.479h-.07Z"/><path fill="#fff" fill-opacity=".5" d="M13.288 14.079a.405.405 0 0 1-.337-.177 7.004 7.004 0 0 0-.278-.378.411.411 0 0 1 .071-.574.407.407 0 0 1 .573.077c.1.13.201.266.302.414a.408.408 0 0 1-.1.567.421.421 0 0 1-.231.071Z"/><path fill="#fff" d="M13.649 16.686H10.35a.206.206 0 0 1-.207-.207c0-.112.09-.207.207-.207h3.298c.112 0 .206.089.206.207a.206.206 0 0 1-.206.207Zm-.289-.869h-2.75a.206.206 0 0 1-.207-.207c0-.118.09-.206.207-.206h2.748c.112 0 .207.088.207.207a.205.205 0 0 1-.207.206Zm-.415-.868h-1.95a.205.205 0 0 1-.206-.207c0-.118.088-.207.206-.207h1.95c.113 0 .207.089.207.207a.205.205 0 0 1-.207.207Zm-.543-.869h-.851a.206.206 0 0 1-.207-.207c0-.118.089-.207.207-.207h.85c.113 0 .208.089.208.207a.206.206 0 0 1-.207.207Zm1.247-6.654H10.35a.206.206 0 0 1-.207-.206c0-.119.09-.207.207-.207h3.298c.112 0 .206.088.206.207a.205.205 0 0 1-.206.206Zm-.289.869h-2.75a.206.206 0 0 1-.207-.207c0-.118.09-.207.207-.207h2.748c.112 0 .207.089.207.207a.205.205 0 0 1-.207.207Zm-.415.869h-1.95a.206.206 0 0 1-.206-.207c0-.118.088-.207.206-.207h1.95c.113 0 .207.089.207.207a.206.206 0 0 1-.207.207Zm-.543.868h-.851a.206.206 0 0 1-.207-.206c0-.119.089-.207.207-.207h.85c.113 0 .208.088.208.207a.206.206 0 0 1-.207.206Z"/><path fill="#fff" d="M12 18.5A6.504 6.504 0 0 1 5.5 12c0-3.587 2.913-6.5 6.5-6.5s6.5 2.913 6.5 6.5-2.913 6.5-6.5 6.5Zm0-12.185A5.694 5.694 0 0 0 6.315 12 5.69 5.69 0 0 0 12 17.684 5.687 5.687 0 0 0 17.684 12 5.694 5.694 0 0 0 12 6.315Z"/></g><defs><clipPath id="a"><path fill="#fff" d="M0 0h24v24H0z"/></clipPath></defs></svg>