<svg xmlns="http://www.w3.org/2000/svg" fill="none" viewBox="0 0 24 24"><g clip-path="url(#a)"><path fill="#2C398F" d="M12 24c6.627 0 12-5.373 12-12S18.627 0 12 0 0 5.373 0 12s5.373 12 12 12Z"/><path fill="#fff" d="M17.363 13.832c.31-.016.608-.136.842-.341-.326 1.664-1.236 3.302-2.798 4.201-1.194.697-2.688.928-4.14.75-.218-.627-.789-1.295-1.78-1.8-1.561-.804-2.295-2.196-2.96-1.514a.727.727 0 0 0-.15.204 2.57 2.57 0 0 1-.081-.19c-1.276-3.165 0-6.345 2.553-8.623 1.52-1.35 3.3-1.2 4.888-.464a.806.806 0 0 0-.299.642v3.192a3.212 3.212 0 0 0-4.103.743 3.249 3.249 0 0 0 .061 4.189 3.212 3.212 0 0 0 4.124.62.827.827 0 0 0 1.575-.354V6.86c1.222.86 2.2 1.95 2.648 2.701.218.377.374.787.462 1.215a1.482 1.482 0 0 0-.652-.273c-.502-.027-.883.655-.625 1.637.218.887-.054 1.665.435 1.692Zm-6.124.054c-1.711-.982-.272-3.506 1.44-2.523.515.286.57 1.2.474 1.786-.176 1.01-1.126 1.188-1.914.737Zm.801-6.521c-.38.013-.651.477-.638.682.013.205.299.328.692.191.353-.123.68-.041.665-.246-.013-.204-.352-.64-.719-.627Z"/></g><defs><clipPath id="a"><path fill="#fff" d="M0 0h24v24H0z"/></clipPath></defs></svg>