<svg xmlns="http://www.w3.org/2000/svg" fill="none" viewBox="0 0 24 24"><g clip-path="url(#a)"><path fill="#2C398F" d="M12 24c6.627 0 12-5.373 12-12S18.627 0 12 0 0 5.373 0 12s5.373 12 12 12"/><path fill="#fff" d="M17.363 13.832c.311-.016.608-.136.842-.341-.326 1.664-1.236 3.302-2.797 4.201-1.195.697-2.69.928-4.142.75-.217-.627-.787-1.295-1.778-1.8-1.562-.804-2.295-2.196-2.96-1.514a.7.7 0 0 0-.15.204 3 3 0 0 1-.082-.19c-1.276-3.165 0-6.345 2.553-8.623 1.521-1.35 3.3-1.2 4.889-.464a.8.8 0 0 0-.3.642v3.192a3.21 3.21 0 0 0-4.103.743 3.25 3.25 0 0 0 .062 4.189 3.21 3.21 0 0 0 4.123.62.826.826 0 0 0 1.576-.354V6.86c1.222.86 2.199 1.95 2.647 2.701.219.377.375.787.462 1.215a1.5 1.5 0 0 0-.652-.273c-.502-.027-.883.655-.624 1.637.217.887-.055 1.665.434 1.692m-6.124.054c-1.711-.982-.272-3.506 1.44-2.523.516.286.57 1.2.475 1.786-.177 1.01-1.127 1.188-1.915.737m.801-6.521c-.38.013-.651.477-.638.682s.299.328.692.191c.354-.123.68-.041.666-.246-.014-.204-.353-.64-.72-.627"/></g><defs><clipPath id="a"><path fill="#fff" d="M0 0h24v24H0z"/></clipPath></defs></svg>