<svg xmlns="http://www.w3.org/2000/svg" fill="none" viewBox="0 0 24 24"><g clip-path="url(#a)"><path fill="#786DBC" d="M12 24c6.627 0 12-5.373 12-12S18.627 0 12 0 0 5.373 0 12s5.373 12 12 12"/><path fill="#fff" d="m11.757 7.721-1.05-1.052a.738.738 0 1 1 1.02-1.067l.024.025 2.345 2.344a.737.737 0 0 1 0 1.043l-2.347 2.344a.738.738 0 0 1-1.042-1.042l1.1-1.1a3.672 3.672 0 1 0 3.034 3.63v-8.11a.737.737 0 1 1 1.474.001v8.207a5.158 5.158 0 1 1-4.558-5.225z"/></g><defs><clipPath id="a"><path fill="#fff" d="M0 0h24v24H0z"/></clipPath></defs></svg>