<svg xmlns="http://www.w3.org/2000/svg" fill="none" viewBox="0 0 24 24"><path fill="#62757E" fill-rule="evenodd" d="M17.454 22H6.546A2.053 2.053 0 0 1 4.5 19.944V4.056C4.5 2.922 5.418 2 6.546 2h10.908c1.128 0 2.046.922 2.046 2.056v15.888A2.053 2.053 0 0 1 17.454 22m-.763-1.667-.802-.833H8.113l-.801.833zM6.167 5.286v13.833l.991-1.03a.83.83 0 0 1 .6-.256h3.409V7h-3.41a.83.83 0 0 1-.693-.37zm.922-1.62 1.114 1.667h7.595l1.113-1.666zm10.744 1.62-.897 1.343a.83.83 0 0 1-.693.371h-3.41v10.833h3.411c.227 0 .444.093.6.256l.99 1.028z" clip-rule="evenodd"/></svg>