<svg xmlns="http://www.w3.org/2000/svg" fill="none" viewBox="0 0 24 24"><path fill="#62757E" fill-rule="evenodd" d="M17.954 22H7.046A2.053 2.053 0 0 1 5 19.944V4.056C5 2.922 5.918 2 7.046 2h10.908C19.082 2 20 2.922 20 4.056v15.888A2.053 2.053 0 0 1 17.954 22Zm-.763-1.667-.802-.833H8.613l-.801.833h9.379ZM6.667 5.286v13.833l.991-1.03a.831.831 0 0 1 .6-.256h3.409V7h-3.41a.832.832 0 0 1-.693-.37l-.897-1.344Zm.922-1.62 1.114 1.667h7.595l1.113-1.666H7.589Zm10.744 1.62-.897 1.343a.832.832 0 0 1-.693.371h-3.41v10.833h3.411c.227 0 .444.093.6.256l.99 1.028V5.286Z" clip-rule="evenodd"/></svg>