<svg xmlns="http://www.w3.org/2000/svg" fill="none" viewBox="0 0 24 24"><path fill="#62757E" fill-rule="evenodd" d="M17.454 22H6.546A2.053 2.053 0 0 1 4.5 19.944V4.056C4.5 2.922 5.418 2 6.546 2h10.908c1.128 0 2.046.922 2.046 2.056v15.888A2.053 2.053 0 0 1 17.454 22M6.942 3.667l1.287 2.5h1.424A2.5 2.5 0 0 1 12 4.5c1.085 0 2 .698 2.347 1.667h1.423l1.288-2.5zM11.167 7a.834.834 0 0 0 1.666 0A.835.835 0 0 0 12 6.167a.835.835 0 0 0-.833.833m6.666-1.2-.814 1.582a.83.83 0 0 1-.74.451h-1.932A2.5 2.5 0 0 1 12 9.5a2.495 2.495 0 0 1-2.347-1.667H7.722a.8.8 0 0 1-.385-.106c-.032-.017-.057-.038-.087-.059a.8.8 0 0 1-.228-.243c-.01-.018-.031-.024-.041-.043L6.167 5.8v14.143c0 .211.173.39.379.39h10.908a.39.39 0 0 0 .38-.39z" clip-rule="evenodd"/></svg>