<svg xmlns="http://www.w3.org/2000/svg" fill="none" viewBox="0 0 24 24"><g clip-path="url(#a)"><path fill="#C3A634" d="M12 24c6.627 0 12-5.373 12-12S18.627 0 12 0 0 5.373 0 12s5.373 12 12 12Z"/><path fill="#fff" fill-rule="evenodd" d="M9.786 10.957h3.236v1.715H9.785v3.613h2.04c.808 0 1.47-.108 1.984-.327.514-.219.918-.52 1.211-.908a3.3 3.3 0 0 0 .597-1.361A8.556 8.556 0 0 0 15.775 12a8.556 8.556 0 0 0-.157-1.689 3.297 3.297 0 0 0-.597-1.361c-.293-.387-.698-.69-1.211-.908-.515-.219-1.176-.327-1.983-.327H9.786v3.242Zm-2.075 1.715H6.6v-1.714h1.111V6h4.912c.908 0 1.693.157 2.357.47a4.392 4.392 0 0 1 1.626 1.287 5.52 5.52 0 0 1 .937 1.907c.205.728.307 1.507.307 2.336a8.604 8.604 0 0 1-.308 2.336 5.506 5.506 0 0 1-.937 1.908c-.42.543-.962.971-1.625 1.286-.664.313-1.45.47-2.357.47H7.711v-5.328Z" clip-rule="evenodd"/></g><defs><clipPath id="a"><path fill="#fff" d="M0 0h24v24H0z"/></clipPath></defs></svg>