<svg xmlns="http://www.w3.org/2000/svg" fill="none" viewBox="0 0 24 24"><g clip-path="url(#a)"><path fill="#C3A634" d="M12 24c6.627 0 12-5.373 12-12S18.627 0 12 0 0 5.373 0 12s5.373 12 12 12"/><path fill="#fff" fill-rule="evenodd" d="M9.786 10.958h3.236v1.714H9.786v3.613h2.04q1.213 0 1.984-.327t1.211-.908a3.3 3.3 0 0 0 .597-1.361A8.6 8.6 0 0 0 15.776 12a8.6 8.6 0 0 0-.158-1.689 3.3 3.3 0 0 0-.597-1.361q-.44-.58-1.211-.908t-1.983-.327h-2.04zm-2.074 1.714H6.6v-1.714h1.112V6h4.911q1.361 0 2.357.47a4.4 4.4 0 0 1 1.626 1.287q.63.814.937 1.907T17.85 12a8.6 8.6 0 0 1-.307 2.336 5.5 5.5 0 0 1-.938 1.908q-.63.814-1.625 1.286-.996.47-2.357.47H7.712z" clip-rule="evenodd"/></g><defs><clipPath id="a"><path fill="#fff" d="M0 0h24v24H0z"/></clipPath></defs></svg>