<svg xmlns="http://www.w3.org/2000/svg" fill="none" viewBox="0 0 24 24"><g clip-path="url(#a)"><path fill="#fff" d="M15.018.426 7.95 7.493l-.458.458-7.067 7.067a1.46 1.46 0 0 0 0 2.063l6.494 6.493a1.46 1.46 0 0 0 2.063 0l7.066-7.066.458-.458 7.066-7.066a1.46 1.46 0 0 0 0-2.063L17.082.426a1.46 1.46 0 0 0-2.063 0"/><path fill="red" d="M15.476.885 8.41 7.952l7.64 7.64 7.066-7.067a.81.81 0 0 0 0-1.146L16.622.885a.81.81 0 0 0-1.146 0m2.463 7.066c0 .521-.212.994-.555 1.334a1.88 1.88 0 0 1-2.67 0 1.883 1.883 0 0 1-.002-2.669 1.883 1.883 0 0 1 2.672 0c.343.343.555.813.555 1.335"/><path fill="#0090E2" d="M.885 15.476a.81.81 0 0 0 0 1.146l6.494 6.494a.81.81 0 0 0 1.146 0l7.066-7.067-7.64-7.64zm6.28.572c0 .522-.212.994-.555 1.335a1.88 1.88 0 0 1-2.669 0 1.886 1.886 0 0 1 1.335-3.224c.521 0 .991.212 1.334.555.34.34.555.813.555 1.335m5.35-.003c0 .521-.212.994-.555 1.334a1.88 1.88 0 0 1-2.669 0 1.883 1.883 0 0 1-.002-2.669 1.883 1.883 0 0 1 2.671 0c.34.34.555.813.555 1.335"/><path fill="#fff" d="M10.652 22.579a.463.463 0 0 0-.468.465c0 .268.215.468.468.468a.46.46 0 0 0 .466-.468.46.46 0 0 0-.466-.465m0 .858a.377.377 0 0 1-.379-.393c0-.227.165-.39.38-.39.213 0 .375.168.375.39a.38.38 0 0 1-.376.393m.213-.507c0-.106-.062-.154-.189-.154h-.204v.539h.082v-.234h.092l.14.234h.09l-.151-.236c.08-.01.139-.052.139-.149m-.31.082v-.168h.11c.092 0 .118.029.118.08 0 .06-.033.088-.132.088z"/></g><defs><clipPath id="a"><path fill="#fff" d="M0 0h24v24H0z"/></clipPath></defs></svg>