<svg xmlns="http://www.w3.org/2000/svg" fill="none" viewBox="0 0 24 24"><path fill="#62757E" fill-rule="evenodd" d="M21.199 11.167h-5.007c-.33 0-.89-.133-1.023-.434a3.39 3.39 0 0 0-3.093-2.026 3.37 3.37 0 0 0-3.367 3.369 3.39 3.39 0 0 0 2.024 3.094c.301.133.452.667.452.997v5c0 .247-.066.482-.257.64a.83.83 0 0 1-.683.179A10.07 10.07 0 0 1 2 12.076C2 6.52 6.52 2 12.076 2a10.07 10.07 0 0 1 9.91 8.245.84.84 0 0 1-.179.684c-.158.19-.36.238-.608.238m-9.123-7.5c-4.637 0-8.41 3.772-8.41 8.409a8.41 8.41 0 0 0 5.896 8.028v-3.663a5.06 5.06 0 0 1-2.52-4.365 5.04 5.04 0 0 1 5.034-5.035c1.807 0 3.466.973 4.365 2.52h3.664a8.41 8.41 0 0 0-8.03-5.894m1.343 11.503a3.43 3.43 0 0 0 1.75-1.752c.134-.3.693-.585 1.023-.585h5.007c.248 0 .45.2.608.39s.224.44.18.684c-.75 4.082-3.997 7.33-8.08 8.079a.83.83 0 0 1-.684-.18.83.83 0 0 1-.3-.64v-5.234c0-.33.194-.629.496-.762m1.17 4.933c2.616-.82 4.955-2.987 5.775-5.603h-4.172c-.446.77-.833 1.495-1.603 1.94z" clip-rule="evenodd"/></svg>