<svg xmlns="http://www.w3.org/2000/svg" fill="none" viewBox="0 0 24 24"><path fill="#62757E" fill-rule="evenodd" d="M19.083 19.05q-.006.012-.013.02-.008.007-.02.013A9.97 9.97 0 0 1 12 22C6.486 22 2 17.514 2 12S6.486 2 12 2s10 4.486 10 10a9.97 9.97 0 0 1-2.917 7.05m-.639-1.785a8.3 8.3 0 0 0 1.847-4.432h-4.207a4.1 4.1 0 0 1-.616 1.456zM11.167 3.708c-4.205.42-7.5 3.979-7.5 8.292 0 4.595 3.738 8.333 8.333 8.333a8.3 8.3 0 0 0 5.266-1.89l-2.978-2.978a4.1 4.1 0 0 1-2.288.702A4.17 4.17 0 0 1 7.833 12a4.174 4.174 0 0 1 3.334-4.082zM9.5 12c0 1.378 1.122 2.5 2.5 2.5a2.504 2.504 0 0 0 2.502-2.5A2.502 2.502 0 0 0 9.5 12m3.333-8.292v4.21a4.18 4.18 0 0 1 3.244 3.249h4.214a8.35 8.35 0 0 0-7.458-7.459" clip-rule="evenodd"/></svg>