<svg xmlns="http://www.w3.org/2000/svg" fill="none" viewBox="0 0 24 24"><g clip-path="url(#a)"><path fill="#E6007A" d="M12 24c6.627 0 12-5.373 12-12S18.627 0 12 0 0 5.373 0 12s5.373 12 12 12Z"/><path fill="#fff" d="M12 5.5a4.94 4.94 0 0 0-4.937 4.936c0 .549.091 1.085.261 1.606a.696.696 0 0 0 .875.432.696.696 0 0 0 .431-.875 3.477 3.477 0 0 1-.195-1.268c.052-1.84 1.54-3.356 3.382-3.447a3.561 3.561 0 0 1 3.748 3.552 3.563 3.563 0 0 1-3.356 3.553s-.692.038-1.032.091c-.17.026-.3.052-.392.066-.04.013-.078-.027-.066-.067l.118-.573.64-2.952a.684.684 0 0 0-.522-.81.684.684 0 0 0-.81.523s-1.54 7.183-1.554 7.261a.684.684 0 0 0 .523.81.685.685 0 0 0 .81-.523c.012-.078.222-1.032.222-1.032a1.735 1.735 0 0 1 1.462-1.358c.256-.028.513-.05.77-.065a4.942 4.942 0 0 0 4.558-4.924A4.941 4.941 0 0 0 12 5.5Zm.352 11.362a.823.823 0 0 0-.979.64.823.823 0 0 0 .64.98.823.823 0 0 0 .98-.641.816.816 0 0 0-.641-.98Z"/></g><defs><clipPath id="a"><path fill="#fff" d="M0 0h24v24H0z"/></clipPath></defs></svg>