<svg xmlns="http://www.w3.org/2000/svg" fill="none" viewBox="0 0 24 24"><path fill="#62757E" fill-rule="evenodd" d="M20.044 2.44a.85.85 0 0 1 1.202 1.202L3.378 21.51a.85.85 0 1 1-1.202-1.202l.573-.574a2.95 2.95 0 0 1-.249-1.19v-2.182a.776.776 0 0 1 1.551 0v2.07l4.461-4.46-1.423-1.424a.776.776 0 0 1 1.097-1.096l1.423 1.422 1.616-1.615V3.276a.776.776 0 1 1 1.55 0v6.432zm-9.138 13.925 4.968-4.968a.776.776 0 0 1 1.037 1.151l-4.363 4.363a.775.775 0 0 1-1.096 0zM7.322 19.95l-1.55 1.55h12.771a2.957 2.957 0 0 0 2.957-2.957v-2.18a.775.775 0 1 0-1.551 0v2.18c0 .777-.63 1.406-1.406 1.406z" clip-rule="evenodd"/></svg>