<svg xmlns="http://www.w3.org/2000/svg" fill="none" viewBox="0 0 24 24"><path fill="#62757E" fill-rule="evenodd" d="M18.84 2.174a.85.85 0 1 1 1.203 1.202l-16 16a.856.856 0 0 1-.12.1l-.698.698a.851.851 0 0 0-.124.156 2.944 2.944 0 0 1-.601-1.787v-2.18a.776.776 0 0 1 1.551 0v.6l3.727-3.726-.689-.689a.775.775 0 1 1 1.097-1.096l.688.688 2.35-2.35V3.276a.776.776 0 1 1 1.551 0v4.963l6.066-6.065ZM10.173 15.63l2.603-2.604v1.463l3.039-3.038a.775.775 0 1 1 1.097 1.096l-4.363 4.363a.776.776 0 0 1-1.096 0l-1.28-1.28Zm-4.318 4.318L4.47 21.332c.308.109.64.168.986.168h13.086a2.957 2.957 0 0 0 2.957-2.957v-2.18a.775.775 0 1 0-1.551 0v2.18c0 .777-.63 1.406-1.406 1.406H5.853Z" clip-rule="evenodd"/></svg>