<svg xmlns="http://www.w3.org/2000/svg" fill="none" viewBox="0 0 24 24"><path fill="currentColor" fill-rule="evenodd" d="m20.78 12.526-2.246 2.247a.748.748 0 1 1-1.06-1.059l.969-.97h-5.707v5.711l.982-.982a.75.75 0 0 1 1.059 1.06L12.53 20.78a.745.745 0 0 1-1.06 0l-2.247-2.247a.75.75 0 0 1 1.06-1.06l1.015 1.016v-5.744H5.556l.969.97a.748.748 0 1 1-1.059 1.058l-2.247-2.247c-.002-.003-.002-.005-.004-.006a.745.745 0 0 1 0-1.049l.004-.005 2.247-2.248a.746.746 0 0 1 1.059 0 .748.748 0 0 1 0 1.06l-.97.968h5.743V5.503L10.284 6.52a.75.75 0 0 1-1.06-1.059l2.246-2.25c.005-.004.013-.006.018-.01a.624.624 0 0 1 .224-.146.775.775 0 0 1 .819.156l2.246 2.25a.749.749 0 1 1-1.06 1.06l-.98-.983v5.71h5.706l-.969-.97a.749.749 0 0 1 1.06-1.059l2.247 2.248a.75.75 0 0 1 0 1.06Z" clip-rule="evenodd"/></svg>