<svg xmlns="http://www.w3.org/2000/svg" fill="none" viewBox="0 0 24 24"><g clip-path="url(#a)"><path fill="#242D3D" d="M12 24c6.627 0 12-5.373 12-12S18.627 0 12 0 0 5.373 0 12s5.373 12 12 12Z"/><path fill="#fff" d="M16.11 13.042c-.306-1.35-1.26-2.839-1.26-2.839 1.1 2.997.676 5.258.385 6.54 0 0-.384 1.434.443.24 1.03-1.496.432-3.94.432-3.94Z"/><path fill="#fff" d="M13.398 7.726c.57 2.035.83 3.762.91 5.203.142 2.454-.232 4.07-.465 4.922-.075.278.236.484.417.274l.003-.003c.452-.517.665-1.727.766-2.79l.029-.349c.093-1.28.039-2.57-.262-3.808-.552-2.283-1.398-3.45-1.398-3.45Zm-1.024 3.585C12.234 7.968 11.983 5 11.983 5s-.255 2.82-.394 6.088a83.809 83.809 0 0 0-.09 3.957c.002 1.36.055 2.635.177 3.653.049.403.572.403.62 0 .084-.695.132-1.548.152-2.485a69.03 69.03 0 0 0-.013-3.039c-.017-.62-.036-1.246-.061-1.863Zm-3.905 4.027a10.24 10.24 0 0 1-.052-1.899c.032-.497.103-1.03.226-1.599.113-.52.268-1.066.478-1.64 0 0-.672 1.05-1.066 2.183-.078.217-.142.44-.19.656 0 0-.126.568-.145 1.327-.014.527.028 1.15.196 1.738.085.308.212.602.379.875 0 0 .826 1.23.442-.24-.12-.46-.21-.928-.268-1.4Z"/><path fill="#fff" d="M9.648 14.68a17.623 17.623 0 0 1 .032-1.997c.033-.49.085-.98.155-1.466a26.48 26.48 0 0 1 .74-3.491s-.85 1.166-1.402 3.449a11.242 11.242 0 0 0-.278 1.877c-.04.64-.03 1.285.016 1.928l.03.352c.1 1.063.31 2.273.764 2.79l.004.003c.18.207.494 0 .417-.274a14.06 14.06 0 0 1-.478-3.171Z"/><path fill="#fff" d="M11.06 14.805a55.054 55.054 0 0 1-.01-2.222c.006-.487.019-1.002.041-1.54.056-1.393.317-3.405.498-5.11 0 0-.892 1.844-1.299 5.171a32.01 32.01 0 0 0-.145 1.476l-.029.394s-.048.704-.03 1.654c.027 1.22.162 2.848.666 3.914a.275.275 0 0 0 .061.084l.004.003c.19.181.484.01.459-.271a45.644 45.644 0 0 1-.217-3.553Zm1.846 0c.017-.665.023-1.407.01-2.222a53.92 53.92 0 0 0-.042-1.54c-.055-1.393-.316-3.405-.497-5.11 0 0 .891 1.844 1.298 5.171.055.455.107.946.145 1.476l.03.394s.048.704.029 1.654c-.026 1.22-.162 2.848-.666 3.914a.27.27 0 0 1-.06.084l-.004.003c-.191.181-.484.01-.459-.271.065-.61.175-1.822.216-3.553Z"/></g><defs><clipPath id="a"><path fill="#fff" d="M0 0h24v24H0z"/></clipPath></defs></svg>