<svg xmlns="http://www.w3.org/2000/svg" fill="none" viewBox="0 0 24 24"><g clip-path="url(#a)"><path fill="#242D3D" d="M12 24c6.627 0 12-5.373 12-12S18.627 0 12 0 0 5.373 0 12s5.373 12 12 12Z"/><path fill="#fff" d="M16.11 13.042c-.306-1.35-1.259-2.839-1.259-2.839 1.098 2.997.675 5.258.384 6.54 0 0-.383 1.434.443.24 1.03-1.496.433-3.94.433-3.94Z"/><path fill="#fff" d="M13.398 7.726c.571 2.035.83 3.762.91 5.203.142 2.454-.232 4.07-.465 4.922-.074.278.236.484.417.274l.003-.003c.452-.517.666-1.727.766-2.79l.029-.349c.093-1.28.039-2.57-.262-3.808-.552-2.283-1.398-3.45-1.398-3.45Zm-1.024 3.585C12.234 7.968 11.983 5 11.983 5s-.255 2.82-.394 6.088a83.431 83.431 0 0 0-.09 3.957c.003 1.36.055 2.635.177 3.653.049.403.572.403.62 0a25.82 25.82 0 0 0 .152-2.485 68.875 68.875 0 0 0-.013-3.039c-.017-.62-.035-1.246-.061-1.863Zm-3.905 4.027a10.24 10.24 0 0 1-.052-1.899c.032-.497.104-1.03.227-1.599.113-.52.267-1.066.478-1.64 0 0-.673 1.05-1.066 2.183a5.64 5.64 0 0 0-.191.656s-.126.568-.145 1.327c-.013.527.028 1.15.196 1.738.085.308.213.602.379.875 0 0 .827 1.23.442-.24-.12-.46-.21-.928-.268-1.4Z"/><path fill="#fff" d="M9.648 14.68a17.628 17.628 0 0 1 .032-1.997c.034-.49.086-.98.155-1.466.145-1.046.382-2.206.74-3.491 0 0-.85 1.166-1.402 3.449-.03.122-.055.245-.08.365a11.37 11.37 0 0 0-.198 1.512 14.68 14.68 0 0 0 .017 1.928l.029.352c.1 1.063.31 2.273.765 2.79l.003.003c.181.207.494 0 .418-.274a14.058 14.058 0 0 1-.479-3.172Z"/><path fill="#fff" d="M11.06 14.805a55.238 55.238 0 0 1-.01-2.222c.006-.487.019-1.002.042-1.54.055-1.393.316-3.405.497-5.11 0 0-.891 1.844-1.299 5.171a32.15 32.15 0 0 0-.145 1.476l-.029.394s-.048.704-.03 1.654c.027 1.22.162 2.848.666 3.914a.275.275 0 0 0 .061.084l.004.003c.19.181.484.01.459-.271a45.595 45.595 0 0 1-.217-3.553Zm1.846 0c.017-.665.023-1.407.01-2.222a53.196 53.196 0 0 0-.042-1.54c-.054-1.393-.316-3.405-.497-5.11 0 0 .892 1.844 1.298 5.171.055.455.107.946.146 1.476l.03.394s.047.704.028 1.654c-.026 1.22-.161 2.848-.665 3.914a.27.27 0 0 1-.062.084l-.003.003c-.19.181-.484.01-.458-.271.064-.61.174-1.822.215-3.553Z"/></g><defs><clipPath id="a"><path fill="#fff" d="M0 0h24v24H0z"/></clipPath></defs></svg>