<svg xmlns="http://www.w3.org/2000/svg" fill="none" viewBox="0 0 24 24"><g clip-path="url(#a)"><path fill="#74D269" d="M12 24c6.627 0 12-5.373 12-12S18.627 0 12 0 0 5.373 0 12s5.373 12 12 12Z"/><path fill="#fff" d="M17.924 10.958h.014l.012 3.477L10.126 19 8.03 17.823v.001l-.013-.008-1.968-1.262V7.438l2.15-1.27.005.003L10.105 5l7.804 4.594.015 1.364Zm-2.293 2.179-1.637-.938-5.465 3.216 1.605.954 5.497-3.232Zm-2.006-1.148-3.371-1.93-.015 3.976 3.386-2.046Zm-3.37-2.356 5.42 3.171v-1.893l-5.413-3.16-.007 1.882Zm-2.231 7.666.02-1.9-.012.009v-6.7l-1.643-.98v8.595l1.635.976Zm.291-2.1 1.642-.993V7.727l-1.642.98v6.491Zm2.017 1.421-.033 1.985 7.305-4.295.021-1.974-7.293 4.284Zm5.455-6.009 1.7-.97-7.318-4.274-1.685.975 7.303 4.27Z"/></g><defs><clipPath id="a"><path fill="#fff" d="M0 0h24v24H0z"/></clipPath></defs></svg>