<svg xmlns="http://www.w3.org/2000/svg" fill="none" viewBox="0 0 24 24"><g clip-path="url(#a)"><path fill="#3C80F1" d="M12 24c6.627 0 12-5.373 12-12S18.627 0 12 0 0 5.373 0 12s5.373 12 12 12Z"/><path fill="#fff" d="M12 5a5.754 5.754 0 0 0-5.75 5.747c.003.31.038.619.103.921a.089.089 0 0 0 .1.069.09.09 0 0 0 .04-.016c.22-.158.482-.242.753-.243a.089.089 0 0 0 .09-.103 3.506 3.506 0 0 1-.06-.622 4.723 4.723 0 1 1 9.446 0c0 2.605-3.333 5.933-4.525 7.108a.28.28 0 0 1-.394 0c-.505-.493-.995-1-1.47-1.523h-.023a5.005 5.005 0 0 1-1.331-.32l-.08-.031a.088.088 0 0 0-.103.137 33.358 33.358 0 0 0 2.348 2.528 1.224 1.224 0 0 0 1.709 0c2.1-2.075 4.897-5.144 4.897-7.905A5.754 5.754 0 0 0 12 5Z"/><path fill="#fff" d="M14.39 11.328c0 .082-.006.161-.014.24-.02.302-.09.599-.207.879a3.012 3.012 0 0 1-.495.763l.006.005a4.075 4.075 0 0 1-1.45 1.037 3.606 3.606 0 0 1-1.743.28 3.225 3.225 0 0 1-1.57-.597 1.86 1.86 0 0 0 .44-.067 1.5 1.5 0 0 0 .37-.158c.25-.15.445-.377.553-.648a1.587 1.587 0 0 0 .113-.718V8.548a.219.219 0 0 1 .187-.177h1.243c.295.023.583.1.85.228a3.095 3.095 0 0 1 1.337 1.214 3 3 0 0 1 .2.406 2.716 2.716 0 0 1 .18.874v.236Zm1.024-.27a3.493 3.493 0 0 0-.075-.621 3.777 3.777 0 0 0-.45-1.147 4.115 4.115 0 0 0-1.786-1.621c-.38-.18-.79-.29-1.209-.321-.053 0-.104 0-.162-.006h-1.159c-.037 0-.075 0-.113.008a1.243 1.243 0 0 0-1.09 1.147v3.847c0 .067-.004.134-.014.201a.58.58 0 0 1-.033.132.329.329 0 0 1-.052.089.392.392 0 0 1-.2.114 1.03 1.03 0 0 1-.35.028 1.944 1.944 0 0 1-1.125-.504.513.513 0 0 0-.8.621 5.38 5.38 0 0 0 1.46 1.697 4.232 4.232 0 0 0 2.131.83 4.634 4.634 0 0 0 2.24-.352 4.782 4.782 0 0 0 1.82-1.327l.007.006c.272-.308.495-.655.662-1.03a3.79 3.79 0 0 0 .281-1.197c.008-.104.013-.197.017-.296v-.145c.004-.043 0-.102 0-.153h-.001Z"/></g><defs><clipPath id="a"><path fill="#fff" d="M0 0h24v24H0z"/></clipPath></defs></svg>