<svg xmlns="http://www.w3.org/2000/svg" fill="none" viewBox="0 0 24 24"><g clip-path="url(#a)"><path fill="#3C80F1" d="M12 24c6.627 0 12-5.373 12-12S18.627 0 12 0 0 5.373 0 12s5.373 12 12 12"/><path fill="#fff" d="M12 5a5.754 5.754 0 0 0-5.75 5.747q.005.466.103.921a.09.09 0 0 0 .1.069.1.1 0 0 0 .04-.016c.22-.158.482-.242.753-.243a.09.09 0 0 0 .09-.103 3.5 3.5 0 0 1-.06-.622 4.723 4.723 0 1 1 9.446 0c0 2.605-3.333 5.933-4.525 7.108a.28.28 0 0 1-.394 0q-.758-.739-1.47-1.523h-.023a5 5 0 0 1-1.331-.32l-.08-.031a.088.088 0 0 0-.103.137 33 33 0 0 0 2.348 2.528 1.224 1.224 0 0 0 1.709 0c2.1-2.075 4.897-5.144 4.897-7.905A5.754 5.754 0 0 0 12 5"/><path fill="#fff" d="M14.39 11.328q-.001.122-.014.24c-.02.302-.09.599-.207.879a3 3 0 0 1-.495.763l.006.005a4.1 4.1 0 0 1-1.45 1.037 3.6 3.6 0 0 1-1.743.28 3.2 3.2 0 0 1-1.57-.597 2 2 0 0 0 .44-.067 1.5 1.5 0 0 0 .37-.158c.25-.15.445-.377.553-.648q.075-.185.103-.385.018-.166.01-.333V8.548a.22.22 0 0 1 .187-.177h1.243c.295.023.583.1.85.228a3.1 3.1 0 0 1 1.337 1.214 3 3 0 0 1 .2.406q.082.21.127.43.047.22.053.444v.236m1.024-.27a3.5 3.5 0 0 0-.075-.621 3.8 3.8 0 0 0-.45-1.147 4.1 4.1 0 0 0-1.786-1.621c-.38-.18-.79-.29-1.209-.321-.053 0-.104 0-.162-.006h-1.159c-.037 0-.075 0-.113.008a1.24 1.24 0 0 0-1.09 1.146v3.847q0 .1-.014.201a.6.6 0 0 1-.033.132.3.3 0 0 1-.052.089.4.4 0 0 1-.2.114 1 1 0 0 1-.35.028 1.94 1.94 0 0 1-1.125-.504.513.513 0 0 0-.8.621 5.4 5.4 0 0 0 1.46 1.697 4.23 4.23 0 0 0 2.131.83 4.6 4.6 0 0 0 2.24-.352 4.8 4.8 0 0 0 1.82-1.327l.007.006c.272-.308.495-.655.662-1.03a3.8 3.8 0 0 0 .281-1.197c.008-.104.013-.197.017-.296v-.145c.004-.043 0-.102 0-.153z"/></g><defs><clipPath id="a"><path fill="#fff" d="M0 0h24v24H0z"/></clipPath></defs></svg>