<svg xmlns="http://www.w3.org/2000/svg" fill="none" viewBox="0 0 24 24"><g clip-path="url(#a)"><path fill="#121747" d="M12 24c6.627 0 12-5.373 12-12S18.627 0 12 0 0 5.373 0 12s5.373 12 12 12Z"/><path fill="#fff" d="M13.253 16.21c0 .7-.563 1.27-1.259 1.27a1.264 1.264 0 0 1-1.258-1.27V7.77c0-.701.564-1.27 1.258-1.27.695 0 1.259.569 1.259 1.27v8.44Zm-4.236.003a1.268 1.268 0 0 1-.621 1.114 1.244 1.244 0 0 1-1.726-.473 1.268 1.268 0 0 1-.16-.641v-1.898a1.268 1.268 0 0 1 .62-1.113 1.244 1.244 0 0 1 1.726.473c.11.195.165.417.16.64l.001 1.898Z"/><path fill="#fff" d="M17.49 12.862c0 .7-.562 1.27-1.258 1.27-.695 0-1.258-.57-1.258-1.27V9.657c0-.701.563-1.27 1.258-1.27.696 0 1.259.569 1.259 1.27v3.204Z" opacity=".5"/></g><defs><clipPath id="a"><path fill="#fff" d="M0 0h24v24H0z"/></clipPath></defs></svg>