<svg xmlns="http://www.w3.org/2000/svg" fill="none" viewBox="0 0 24 24"><path fill="#D8D8D8" fill-opacity=".01" d="M0 0h24v24H0z"/><path fill="#DE5833" fill-rule="evenodd" d="M12 1.938c5.65 0 10.23 4.505 10.23 10.062 0 5.558-4.58 10.063-10.23 10.063S1.77 17.558 1.77 12C1.77 6.443 6.35 1.938 12 1.938Z" clip-rule="evenodd"/><mask id="a" width="22" height="22" x="1" y="1" maskUnits="userSpaceOnUse" style="mask-type:luminance"><path fill="#fff" fill-rule="evenodd" d="M1.73 11.972c0 5.57 4.607 10.103 10.27 10.103 5.663 0 10.27-4.532 10.27-10.103 0-5.57-4.607-10.1-10.27-10.1-5.663 0-10.27 4.53-10.27 10.1Z" clip-rule="evenodd"/></mask><g mask="url(#a)"><path fill="#D5D7D8" fill-rule="evenodd" d="M16.192 26.988c-.36-1.63-2.452-5.319-3.246-6.879-.793-1.56-1.587-3.759-1.225-5.178.065-.258-.688-2.224-.471-2.363 1.683-1.08 2.126.118 2.8-.367.347-.25.818.206.938-.208.432-1.489-.601-4.084-1.754-5.218-.377-.37-.954-.602-1.606-.726-.251-.337-.655-.66-1.228-.96-.637-.333-2.024-.774-2.743-.892-.499-.08-.611.057-.824.091.198.017 1.14.475 1.323.502-.183.121-.722-.006-1.065.146-.173.077-.302.369-.3.507.98-.097 2.514-.003 3.419.394-.72.08-1.816.17-2.287.414-1.37.71-1.975 2.367-1.614 4.354.36 1.982 1.947 9.216 2.452 11.631.505 2.413-1.081 3.972-2.09 4.398l1.08.071-.36.78c1.297.142 2.74-.282 2.74-.282-.288.78-2.236 1.064-2.236 1.064s.939.283 2.452-.284c1.516-.567 2.452-.922 2.452-.922l.721 1.843 1.371-1.347.577 1.419c.003 0 1.085-.356.724-1.988Z" clip-rule="evenodd"/></g><mask id="b" width="22" height="22" x="1" y="1" maskUnits="userSpaceOnUse" style="mask-type:luminance"><path fill="#fff" fill-rule="evenodd" d="M1.73 11.972c0 5.57 4.607 10.103 10.27 10.103 5.663 0 10.27-4.532 10.27-10.103 0-5.57-4.607-10.1-10.27-10.1-5.663 0-10.27 4.53-10.27 10.1Z" clip-rule="evenodd"/></mask><g mask="url(#b)"><path fill="#fff" fill-rule="evenodd" d="M16.628 26.658c-.36-1.63-2.451-5.32-3.246-6.881-.794-1.562-1.587-3.76-1.226-5.178.067-.258.068-1.312.286-1.452 1.682-1.08 1.562-.036 2.237-.52.348-.25.627-.552.748-.966.433-1.49-.601-4.084-1.755-5.22-.375-.369-.953-.602-1.604-.724-.25-.338-.654-.662-1.226-.96a5.851 5.851 0 0 0-3.653-.568c.198.018.65.42.833.447-.276.185-1.01.16-1.006.57.984-.097 2.061.056 2.967.452-.72.08-1.39.255-1.862.5-1.37.709-1.731 2.127-1.37 4.114.36 1.987 1.948 9.221 2.45 11.632.506 2.412-1.08 3.97-2.09 4.397l1.082.07-.36.782c1.297.142 2.739-.283 2.739-.283-.288.782-2.235 1.064-2.235 1.064s.937.283 2.451-.285a649.94 649.94 0 0 0 2.454-.922l.721 1.844 1.37-1.348.579 1.42c-.003 0 1.077-.354.716-1.985Z" clip-rule="evenodd"/></g><mask id="c" width="22" height="22" x="1" y="1" maskUnits="userSpaceOnUse" style="mask-type:luminance"><path fill="#fff" fill-rule="evenodd" d="M1.73 11.972c0 5.57 4.607 10.103 10.27 10.103 5.663 0 10.27-4.532 10.27-10.103 0-5.57-4.607-10.1-10.27-10.1-5.663 0-10.27 4.53-10.27 10.1Z" clip-rule="evenodd"/></mask><g mask="url(#c)"><path fill="#2D4F8E" fill-rule="evenodd" d="M8.338 10.372a.75.75 0 0 1 .758-.745.75.75 0 0 1 .757.745.75.75 0 0 1-.757.745.75.75 0 0 1-.758-.745Z" clip-rule="evenodd"/></g><mask id="d" width="22" height="22" x="1" y="1" maskUnits="userSpaceOnUse" style="mask-type:luminance"><path fill="#fff" fill-rule="evenodd" d="M1.73 11.972c0 5.57 4.607 10.103 10.27 10.103 5.663 0 10.27-4.532 10.27-10.103 0-5.57-4.607-10.1-10.27-10.1-5.663 0-10.27 4.53-10.27 10.1Z" clip-rule="evenodd"/></mask><g mask="url(#d)"><path fill="#fff" fill-rule="evenodd" d="M9.235 10.124c0-.107.088-.194.196-.194.109 0 .197.087.197.194a.195.195 0 0 1-.197.193.195.195 0 0 1-.196-.193Z" clip-rule="evenodd"/></g><mask id="e" width="22" height="22" x="1" y="1" maskUnits="userSpaceOnUse" style="mask-type:luminance"><path fill="#fff" fill-rule="evenodd" d="M1.73 11.972c0 5.57 4.607 10.103 10.27 10.103 5.663 0 10.27-4.532 10.27-10.103 0-5.57-4.607-10.1-10.27-10.1-5.663 0-10.27 4.53-10.27 10.1Z" clip-rule="evenodd"/></mask><g mask="url(#e)"><path fill="#2D4F8E" fill-rule="evenodd" d="M13.507 9.93c0-.352.292-.639.65-.639.36 0 .652.287.652.64 0 .354-.291.64-.652.64a.646.646 0 0 1-.65-.64Z" clip-rule="evenodd"/></g><mask id="f" width="22" height="22" x="1" y="1" maskUnits="userSpaceOnUse" style="mask-type:luminance"><path fill="#fff" fill-rule="evenodd" d="M1.73 11.972c0 5.57 4.607 10.103 10.27 10.103 5.663 0 10.27-4.532 10.27-10.103 0-5.57-4.607-10.1-10.27-10.1-5.663 0-10.27 4.53-10.27 10.1Z" clip-rule="evenodd"/></mask><g mask="url(#f)"><path fill="#fff" fill-rule="evenodd" d="M14.279 9.717c0-.09.075-.165.167-.165.096 0 .17.074.17.165a.165.165 0 0 1-.17.166.167.167 0 0 1-.167-.166Z" clip-rule="evenodd"/></g><mask id="g" width="3" height="2" x="7" y="7" maskUnits="userSpaceOnUse" style="mask-type:luminance"><path fill="#fff" fill-rule="evenodd" d="M8.142 8.033c-.785.317-.49.963-.49.963s-.02-.35.533-.693c.555-.344 1.126-.09 1.126-.09s-.22-.285-.67-.285c-.142 0-.309.029-.499.105Z" clip-rule="evenodd"/></mask><g mask="url(#g)"><path fill="#394A9F" fill-rule="evenodd" d="M7.607 8.996h-.25v-1.28h.25v1.28Zm.027 0h-.027v-1.28h.054v1.28h-.027Zm.054 0H7.66v-1.28h.027v1.28Zm0 0h.08v-1.28h-.08v1.28Zm.106 0h-.026v-1.28h.026v1.28Zm0 0h.054v-1.28h-.054v1.28Zm.054 0H7.9v-1.28h-.053v1.28Zm.053 0h.053v-1.28h-.053v1.28Zm.053 0h.054v-1.28h-.054v1.28Zm.054 0h.053v-1.28h-.053v1.28Zm.053 0h.134v-1.28H8.06v1.28Zm.16 0h-.026v-1.28h.053v1.28h-.027Zm.054 0h-.027v-1.28h.053v1.28h-.026Zm.053 0h-.026v-1.28h.053v1.28h-.027Zm.054 0h-.027v-1.28h.106v1.28h-.079Zm.106 0h-.026v-1.28h.026v1.28Zm0 0h.107v-1.28h-.107v1.28Zm.107 0h.053v-1.28h-.053v1.28Zm.054 0h.053v-1.28h-.053v1.28Zm.053 0h.053v-1.28h-.053v1.28Zm.053 0h.557v-1.28h-.557v1.28Z" clip-rule="evenodd"/></g><mask id="h" width="3" height="2" x="12" y="7" maskUnits="userSpaceOnUse" style="mask-type:luminance"><path fill="#fff" fill-rule="evenodd" d="M12.988 8.229s.178-.285.833-.293c.318-.004.728.226.728.226s-.16-.401-.614-.475a1.314 1.314 0 0 0-.211-.018c-.645 0-.736.56-.736.56Z" clip-rule="evenodd"/></mask><g mask="url(#h)"><path fill="#394A9F" fill-rule="evenodd" d="M12.997 8.228h-.009v-.677h.01v.677Zm.024 0h-.024v-.677h.049v.677h-.024Zm.05 0h-.025v-.677h.024v.677Zm0 0h.048v-.677h-.049v.677Zm.048 0h.048v-.677h-.048v.677Zm.048 0h.025v-.677h-.025v.677Zm.05 0h-.025v-.677h.024v.677Zm0 0h.048v-.677h-.049v.677Zm.048 0h.048v-.677h-.048v.677Zm.048 0h.049v-.677h-.049v.677Zm.049 0h.048v-.677h-.048v.677Zm.049 0h.048v-.677h-.048v.677Zm.048 0h.024v-.677h-.024v.677Zm.049 0h-.024v-.677h.024v.677Zm0 0h.048v-.677h-.048v.677Zm.049 0h.048v-.677h-.048v.677Zm.048 0h.048v-.677h-.048v.677Zm.049 0h.048v-.677h-.048v.677Zm.048 0h.025v-.677h-.025v.677Zm.049 0h-.024v-.677h.048v.677h-.024Zm.049 0h-.025v-.677h.025v.677Zm0 0h.048v-.677H13.8v.677Zm.048 0h.025v-.677h-.025v.677Zm.049 0h-.024v-.677h.048v.677h-.024Zm.048 0h-.024v-.677h.049v.677h-.025Zm.049 0h-.024v-.677h.048v.677h-.024Zm.049 0h-.024v-.677h.048v.677h-.024Zm.506 0h-.482v-.677h.482v.677Z" clip-rule="evenodd"/></g><path fill="#FDD20A" fill-rule="evenodd" d="M11.414 13.245c.075-.45 1.26-1.303 2.098-1.355.84-.052 1.102-.04 1.802-.205.702-.165 2.507-.607 3.006-.834.501-.228 2.621.112 1.127.932-.646.356-2.389 1.01-3.635 1.374-1.243.366-1.998-.35-2.412.252-.329.479-.066 1.134 1.42 1.27 2.008.183 3.932-.89 4.144-.32.213.57-1.725 1.28-2.905 1.303-1.179.022-3.554-.767-3.911-1.01-.357-.244-.833-.813-.734-1.407Z" clip-rule="evenodd"/><path fill="#DE5833" fill-rule="evenodd" d="M12 1.18C5.935 1.18 1 6.034 1 12s4.935 10.82 11 10.82S23 17.966 23 12 18.065 1.18 12 1.18Zm0 22.623C5.383 23.803 0 18.508 0 12 0 5.492 5.383.197 12 .197S24 5.492 24 12c0 6.508-5.383 11.803-12 11.803Z" clip-rule="evenodd"/><rect width="16" height="6.667" x="4" y="16.667" fill="#fff" stroke="#DE5833" rx="1.333"/><path fill="#DE5833" d="M9.409 21.016H7.766v-3.107h-.787v3.758h2.43v-.651Zm1.253.651v-3.758h-.787v3.758h.787Zm2.309 0v-3.11h1.089v-.648h-2.961v.648h1.086v3.11h.786Zm4.013-.651h-1.703v-.948h1.607v-.605h-1.607v-.906h1.703v-.648h-2.49v3.758h2.49v-.651Z"/></svg>