<svg xmlns="http://www.w3.org/2000/svg" fill="none" viewBox="0 0 24 24"><path fill="#fff" d="M12 24c6.627 0 12-5.373 12-12S18.627 0 12 0 0 5.373 0 12s5.373 12 12 12"/><path fill="#DE5833" d="M12 22.23c5.65 0 10.23-4.58 10.23-10.23S17.65 1.77 12 1.77 1.77 6.35 1.77 12 6.35 22.23 12 22.23"/><path fill="#DE5833" fill-rule="evenodd" d="M0 12c0 6.627 5.373 12 12 12 6.624-.008 11.992-5.376 12-12 0-6.627-5.373-12-12-12S0 5.373 0 12m1 0C1 5.925 5.925 1 12 1c6.072.007 10.993 4.928 11 11 0 6.075-4.925 11-11 11S1 18.075 1 12" clip-rule="evenodd"/><path fill="#fff" d="M13.672 6.35a3.1 3.1 0 0 0-1.6-.738 3.5 3.5 0 0 0-1.226-.976 5.76 5.76 0 0 0-3.58-.586H7.2c-.146.028-.236.08-.358.1q.543.175 1.06.418c-.174.066-.412.106-.6.182a1 1 0 0 0-.2.058.68.68 0 0 0-.302.526 8.7 8.7 0 0 1 3 .246 5.2 5.2 0 0 0-1.66.482.4.4 0 0 0-.05.028q-.077.027-.15.066c-1.368.72-1.974 2.4-1.614 4.426C6.638 12.422 8 18.716 8.6 21.664q.271.096.548.174c.925.267 1.883.402 2.846.4a10.3 10.3 0 0 0 2.44-.294c-.418-.8-.8-1.536-1.058-2.042-.8-1.586-1.586-3.822-1.226-5.264.068-.262.068-1.334.286-1.476 1.682-1.098 1.562-.036 2.238-.528.354-.233.617-.58.748-.982.438-1.512-.596-4.148-1.75-5.302"/><path fill="#D5D7D8" d="M7.2 4.06c-.146.028-.236.08-.358.1q.543.175 1.06.418a.6.6 0 0 0 .13-.064C7.84 4.486 7.4 4.08 7.2 4.06m-.184 1.034c0-.17.12-.266.28-.334a1 1 0 0 0-.2.058.68.68 0 0 0-.296.516 8.7 8.7 0 0 1 3 .246l.2-.028a6 6 0 0 0-2.984-.458m1.056.996q-.077.028-.15.066c-1.368.72-1.974 2.4-1.614 4.426.33 1.84 1.692 8.134 2.292 11.082q.271.096.548.174C8.6 19.188 7.102 12.2 6.75 10.244 6.4 8.25 6.744 6.82 8.072 6.09"/><path fill="#fff" d="M9.432 9.896a.2.2 0 1 0 0 .4.2.2 0 0 0 0-.4m5.014-.048a.168.168 0 1 0 0-.336.168.168 0 0 0 0 .336M9.31 8.15s-.382-.504-1.168-.182-.49.978-.49.978-.02-.356.534-.704c.34-.205.756-.24 1.124-.092m5.24-.052a.85.85 0 0 0-.6-.48q.09.148.176.302.22.069.424.178"/><path fill="#fff" d="M12.988 8.166s.178-.29.832-.298q.157.003.306.052c-.058-.104-.116-.2-.176-.302h-.016c-.836-.142-.946.548-.946.548"/><path fill="url(#a)" fill-rule="evenodd" d="M8.394 10.054a.758.758 0 1 1 1.4.583.758.758 0 0 1-1.4-.583m.838.036a.2.2 0 1 0 .4 0 .2.2 0 0 0-.4 0" clip-rule="evenodd"/><path fill="url(#b)" fill-rule="evenodd" d="M13.549 9.642a.652.652 0 1 1 1.199.511.652.652 0 0 1-1.2-.511m.731.035c0 .092.073.168.166.169v.002a.17.17 0 0 0 .17-.17.168.168 0 0 0-.336-.001" clip-rule="evenodd"/><path fill="url(#c)" d="M9.31 8.15s-.382-.504-1.168-.182-.49.978-.49.978-.02-.356.534-.704c.34-.205.756-.24 1.124-.092"/><path fill="url(#d)" d="M14.126 7.92q.221.069.424.178a.85.85 0 0 0-.6-.48h-.016c-.836-.14-.946.55-.946.55s.178-.29.832-.298q.157.002.306.05"/><path fill="#FDD20A" d="M11.414 13.266c.076-.458 1.26-1.324 2.098-1.378s1.102-.04 1.8-.2 2.506-.618 3-.848 2.622.114 1.126.948c-.638.354-2.38 1.012-3.626 1.388s-2-.354-2.412.256c-.328.488-.066 1.154 1.42 1.292 2 .186 3.932-.904 4.144-.326s-1.726 1.302-2.906 1.326-3.554-.78-3.91-1.028-.834-.826-.734-1.43"/><path fill="#65BC46" d="M15.754 17.868c-.338-.076-1.634.838-2.142 1.2a2 2 0 0 0-.054-.188c-.082-.2-1.326-.088-1.658.222-.788-.4-2.4-1.14-2.444-.678-.048.6 0 3.102.328 3.29.24.136 1.556-.576 2.25-.972l.066.02c.422.096 1.222 0 1.504-.188a.2.2 0 0 0 .068-.088c.642.248 1.942.722 2.222.62.376-.136.282-3.142-.14-3.238"/><path fill="#43A244" d="M11.64 19.484c0 .988-.142 1.4.282 1.504s1.22 0 1.504-.186.046-1.456-.048-1.694-1.738-.046-1.738.376"/><defs><linearGradient id="a" x1="8.338" x2="10.416" y1="11.385" y2="11.385" gradientUnits="userSpaceOnUse"><stop offset=".01" stop-color="#6176B9"/><stop offset=".69" stop-color="#394A9F"/></linearGradient><linearGradient id="b" x1="13.508" x2="15.294" y1="10.789" y2="10.789" gradientUnits="userSpaceOnUse"><stop offset=".01" stop-color="#6176B9"/><stop offset=".69" stop-color="#394A9F"/></linearGradient><linearGradient id="c" x1="7.598" x2="9.948" y1="9.149" y2="9.149" gradientUnits="userSpaceOnUse"><stop offset=".01" stop-color="#6176B9"/><stop offset=".69" stop-color="#394A9F"/></linearGradient><linearGradient id="d" x1="12.988" x2="15.13" y1="8.272" y2="8.272" gradientUnits="userSpaceOnUse"><stop offset=".01" stop-color="#6176B9"/><stop offset=".69" stop-color="#394A9F"/></linearGradient></defs></svg>