<svg xmlns="http://www.w3.org/2000/svg" fill="none" viewBox="0 0 24 24"><path fill="#D8D8D8" fill-opacity=".01" d="M0 0h24v24H0z"/><path fill="#DE5833" fill-rule="evenodd" d="M12 1.938c5.65 0 10.23 4.505 10.23 10.062 0 5.558-4.58 10.063-10.23 10.063S1.77 17.558 1.77 12C1.77 6.443 6.35 1.938 12 1.938" clip-rule="evenodd"/><mask id="a" width="22" height="22" x="1" y="1" maskUnits="userSpaceOnUse" style="mask-type:luminance"><path fill="#fff" fill-rule="evenodd" d="M1.73 11.972c0 5.57 4.607 10.103 10.27 10.103s10.27-4.532 10.27-10.103S17.663 1.871 12 1.871 1.73 6.403 1.73 11.972" clip-rule="evenodd"/></mask><g mask="url(#a)"><path fill="#D5D7D8" fill-rule="evenodd" d="M16.192 26.989c-.36-1.63-2.453-5.32-3.246-6.88s-1.588-3.759-1.226-5.178c.066-.258-.687-2.224-.47-2.363 1.682-1.08 2.126.117 2.8-.367.346-.25.818.206.938-.208.431-1.489-.601-4.084-1.755-5.218-.377-.37-.954-.602-1.606-.726-.25-.337-.655-.66-1.227-.96-.638-.333-2.025-.774-2.744-.892-.498-.08-.61.057-.823.091.198.017 1.14.475 1.322.502-.183.121-.72-.006-1.064.146-.173.077-.303.369-.301.507.981-.098 2.514-.003 3.42.394-.72.08-1.817.17-2.288.414-1.37.71-1.974 2.367-1.614 4.354.361 1.982 1.948 9.216 2.453 11.631.505 2.413-1.082 3.972-2.091 4.398l1.081.072-.36.78c1.297.141 2.74-.283 2.74-.283-.289.78-2.236 1.064-2.236 1.064s.938.283 2.452-.284 2.452-.922 2.452-.922l.721 1.843 1.37-1.346.578 1.418c.003 0 1.085-.356.724-1.988" clip-rule="evenodd"/></g><mask id="b" width="22" height="22" x="1" y="1" maskUnits="userSpaceOnUse" style="mask-type:luminance"><path fill="#fff" fill-rule="evenodd" d="M1.73 11.972c0 5.57 4.607 10.103 10.27 10.103s10.27-4.532 10.27-10.103S17.663 1.871 12 1.871 1.73 6.403 1.73 11.972" clip-rule="evenodd"/></mask><g mask="url(#b)"><path fill="#fff" fill-rule="evenodd" d="M16.628 26.658c-.36-1.63-2.452-5.32-3.246-6.881-.794-1.562-1.587-3.76-1.226-5.178.067-.258.068-1.312.286-1.452 1.682-1.08 1.562-.036 2.237-.52.348-.25.627-.552.748-.966.433-1.49-.601-4.084-1.755-5.22-.376-.369-.953-.602-1.604-.724-.25-.338-.654-.662-1.226-.96a5.85 5.85 0 0 0-3.654-.568c.198.018.652.42.834.447-.276.185-1.01.16-1.006.57.983-.097 2.06.056 2.967.452-.72.08-1.39.256-1.862.5-1.37.709-1.731 2.127-1.37 4.115.36 1.986 1.947 9.22 2.45 11.63.506 2.413-1.08 3.972-2.09 4.398l1.082.07-.36.783c1.297.141 2.739-.284 2.739-.284-.288.782-2.235 1.064-2.235 1.064s.937.283 2.451-.285a650 650 0 0 0 2.454-.922l.72 1.844 1.371-1.348.579 1.42c-.004 0 1.077-.354.716-1.985" clip-rule="evenodd"/></g><mask id="c" width="22" height="22" x="1" y="1" maskUnits="userSpaceOnUse" style="mask-type:luminance"><path fill="#fff" fill-rule="evenodd" d="M1.73 11.972c0 5.57 4.607 10.103 10.27 10.103s10.27-4.532 10.27-10.103S17.663 1.871 12 1.871 1.73 6.403 1.73 11.972" clip-rule="evenodd"/></mask><g mask="url(#c)"><path fill="#2D4F8E" fill-rule="evenodd" d="M8.337 10.372a.75.75 0 0 1 .758-.745.75.75 0 0 1 .757.745.75.75 0 0 1-.757.745.75.75 0 0 1-.758-.745" clip-rule="evenodd"/></g><mask id="d" width="22" height="22" x="1" y="1" maskUnits="userSpaceOnUse" style="mask-type:luminance"><path fill="#fff" fill-rule="evenodd" d="M1.73 11.972c0 5.57 4.607 10.103 10.27 10.103s10.27-4.532 10.27-10.103S17.663 1.871 12 1.871 1.73 6.403 1.73 11.972" clip-rule="evenodd"/></mask><g mask="url(#d)"><path fill="#fff" fill-rule="evenodd" d="M9.235 10.124c0-.107.088-.194.196-.194s.197.087.197.194a.195.195 0 0 1-.197.193.195.195 0 0 1-.196-.193" clip-rule="evenodd"/></g><mask id="e" width="22" height="22" x="1" y="1" maskUnits="userSpaceOnUse" style="mask-type:luminance"><path fill="#fff" fill-rule="evenodd" d="M1.73 11.972c0 5.57 4.607 10.103 10.27 10.103s10.27-4.532 10.27-10.103S17.663 1.871 12 1.871 1.73 6.403 1.73 11.972" clip-rule="evenodd"/></mask><g mask="url(#e)"><path fill="#2D4F8E" fill-rule="evenodd" d="M13.507 9.93c0-.352.292-.639.65-.639.36 0 .652.287.652.64a.646.646 0 0 1-.652.64.646.646 0 0 1-.65-.64" clip-rule="evenodd"/></g><mask id="f" width="22" height="22" x="1" y="1" maskUnits="userSpaceOnUse" style="mask-type:luminance"><path fill="#fff" fill-rule="evenodd" d="M1.73 11.972c0 5.57 4.607 10.103 10.27 10.103s10.27-4.532 10.27-10.103S17.663 1.871 12 1.871 1.73 6.403 1.73 11.972" clip-rule="evenodd"/></mask><g mask="url(#f)"><path fill="#fff" fill-rule="evenodd" d="M14.278 9.717c0-.09.076-.165.168-.165.096 0 .17.074.17.165a.165.165 0 0 1-.17.166.167.167 0 0 1-.168-.166" clip-rule="evenodd"/></g><mask id="g" width="3" height="2" x="7" y="7" maskUnits="userSpaceOnUse" style="mask-type:luminance"><path fill="#fff" fill-rule="evenodd" d="M8.142 8.033c-.785.317-.49.963-.49.963s-.02-.35.533-.693c.555-.344 1.126-.09 1.126-.09s-.22-.285-.67-.285c-.142 0-.309.029-.499.105" clip-rule="evenodd"/></mask><g mask="url(#g)"><path fill="#394A9F" fill-rule="evenodd" d="M7.607 8.996h-.25v-1.28h.25zm.027 0h-.027v-1.28h.054v1.28zm.054 0H7.66v-1.28h.027zm0 0h.08v-1.28h-.08zm.106 0h-.026v-1.28h.026zm0 0h.054v-1.28h-.054zm.054 0H7.9v-1.28h-.053zm.053 0h.053v-1.28h-.053zm.053 0h.054v-1.28h-.054zm.054 0h.053v-1.28h-.053zm.054 0h.133v-1.28h-.133zm.16 0h-.027v-1.28h.053v1.28zm.053 0h-.027v-1.28h.053v1.28zm.053 0h-.026v-1.28h.053v1.28zm.054 0h-.027v-1.28h.107v1.28zm.106 0h-.026v-1.28h.026zm0 0h.107v-1.28h-.106zm.107 0h.053v-1.28h-.053zm.054 0h.053v-1.28h-.053zm.053 0h.053v-1.28h-.053zm.053 0h.557v-1.28h-.557z" clip-rule="evenodd"/></g><mask id="h" width="3" height="2" x="12" y="7" maskUnits="userSpaceOnUse" style="mask-type:luminance"><path fill="#fff" fill-rule="evenodd" d="M12.988 8.229s.178-.285.833-.293c.318-.004.728.226.728.226s-.16-.401-.614-.475a1.3 1.3 0 0 0-.211-.018c-.645 0-.736.56-.736.56" clip-rule="evenodd"/></mask><g mask="url(#h)"><path fill="#394A9F" fill-rule="evenodd" d="M12.997 8.229h-.009V7.55h.01zm.024 0h-.024V7.55h.049v.678zm.049 0h-.024V7.55h.024zm0 0h.048V7.55h-.048zm.049 0h.048V7.55h-.048zm.048 0h.025V7.55h-.025zm.049 0h-.024V7.55h.024zm0 0h.048V7.55h-.048zm.049 0h.048V7.55h-.048zm.048 0h.049V7.55h-.049zm.049 0h.048V7.55h-.048zm.048 0h.049V7.55h-.049zm.049 0h.024V7.55h-.024zm.049 0h-.025V7.55h.025zm0 0h.048V7.55h-.048zm.048 0h.049V7.55h-.049zm.049 0h.048V7.55h-.048zm.049 0h.048V7.55h-.048zm.048 0h.024V7.55h-.024zm.049 0h-.024V7.55h.048v.678zm.048 0h-.024V7.55h.024zm0 0h.049V7.55H13.8zm.05 0h.024V7.55h-.025zm.048 0h-.024V7.55h.048v.678zm.048 0h-.024V7.55h.049v.678zm.049 0h-.024V7.55h.048v.678zm.049 0h-.025V7.55h.049v.678zm.506 0h-.482V7.55h.482z" clip-rule="evenodd"/></g><path fill="#FDD20A" fill-rule="evenodd" d="M11.414 13.245c.075-.45 1.26-1.303 2.098-1.355.84-.052 1.102-.04 1.802-.205.702-.165 2.507-.607 3.006-.834.501-.228 2.621.112 1.127.932-.647.356-2.389 1.01-3.635 1.374-1.244.366-1.998-.35-2.412.252-.329.479-.067 1.134 1.42 1.27 2.007.183 3.932-.89 4.144-.32s-1.725 1.28-2.905 1.303-3.554-.767-3.911-1.01c-.357-.244-.833-.813-.734-1.407" clip-rule="evenodd"/><path fill="#DE5833" fill-rule="evenodd" d="M12 1.18C5.935 1.18 1 6.034 1 12s4.935 10.82 11 10.82S23 17.966 23 12 18.065 1.18 12 1.18m0 22.623C5.383 23.803 0 18.508 0 12S5.383.197 12 .197 24 5.492 24 12s-5.383 11.803-12 11.803" clip-rule="evenodd"/><rect width="16" height="6.667" x="4" y="16.667" fill="#fff" stroke="#DE5833" rx="1.333"/><path fill="#DE5833" d="M9.41 21.016H7.765v-3.107h-.787v3.758h2.43zm1.252.651v-3.758h-.787v3.758zm2.31 0v-3.11h1.088v-.648H11.1v.648h1.085v3.11zm4.013-.651h-1.703v-.948h1.606v-.605h-1.607v-.906h1.704v-.648h-2.49v3.758h2.49z"/></svg>