<svg xmlns="http://www.w3.org/2000/svg" fill="none" viewBox="0 0 24 24"><path fill="#62757E" fill-rule="evenodd" d="M19.39 10.333h-2.223v5.279a.84.84 0 0 1-.228.572c-.062.066-.536.528-1.439.724v4.259a.833.833 0 1 1-1.667 0v-4.26c-.902-.196-1.376-.656-1.438-.721a.84.84 0 0 1-.228-.574V6.167A4.17 4.17 0 0 1 16.333 2h3.056c1.072 0 1.944.873 1.944 1.945V8.39a1.946 1.946 0 0 1-1.944 1.943m-5.557 4.84c.174.078.45.16.835.16.383 0 .656-.081.832-.162v-4.922a4.1 4.1 0 0 1-1.667-.77zm0-9.006c0 1.378 1.123 2.5 2.501 2.5h.833v-5h-.833a2.504 2.504 0 0 0-2.5 2.5m5.834-2.222a.28.28 0 0 0-.278-.278h-.556v5h.556a.28.28 0 0 0 .278-.277zm-10 5.534v6.133a.84.84 0 0 1-.228.572c-.062.066-.536.527-1.439.724v4.259a.833.833 0 1 1-1.667 0v-4.26c-.902-.196-1.376-.656-1.438-.721a.84.84 0 0 1-.228-.574V9.478A4.15 4.15 0 0 1 3 6.167 4.17 4.17 0 0 1 7.168 2a4.17 4.17 0 0 1 4.165 4.167 4.15 4.15 0 0 1-1.666 3.312m-3.334 5.694c.174.078.45.16.835.16.383 0 .656-.081.832-.162v-4.922a4.2 4.2 0 0 1-1.667 0zm.835-11.506a2.504 2.504 0 0 0-2.501 2.5c0 1.378 1.122 2.5 2.5 2.5s2.5-1.122 2.5-2.5c0-1.379-1.122-2.5-2.5-2.5m0 3.335a.833.833 0 1 1-.002-1.667.833.833 0 0 1 .002 1.667" clip-rule="evenodd"/></svg>