<svg xmlns="http://www.w3.org/2000/svg" fill="none" viewBox="0 0 24 24"><g clip-path="url(#a)"><path fill="#1693D4" d="M12 24c6.627 0 12-5.373 12-12S18.627 0 12 0 0 5.373 0 12s5.373 12 12 12Z"/><path fill="#fff" fill-rule="evenodd" d="M9.003 12.34A4.77 4.77 0 0 1 9 11.7H7.345L5.5 10.225h3.837a4.756 4.756 0 0 1 4.409-2.952c2.626 0 4.754 2.116 4.754 4.727 0 2.61-2.128 4.727-4.755 4.727a4.757 4.757 0 0 1-4.391-2.912H5.5l1.845-1.476h1.658Zm7.45-.252c0-.49-.066-.918-.198-1.283a2.57 2.57 0 0 0-.553-.916 2.28 2.28 0 0 0-.838-.555 2.912 2.912 0 0 0-1.054-.186c-.41 0-.791.07-1.145.209a2.73 2.73 0 0 0-.917.588 2.72 2.72 0 0 0-.609.916 3.093 3.093 0 0 0-.222 1.193c0 .445.074.842.222 1.193.148.35.353.646.615.887.262.242.572.428.928.56.377.136.774.203 1.174.198 1.025 0 1.808-.362 2.347-1.086l-.912-.723a1.61 1.61 0 0 1-.58.514c-.236.124-.525.187-.866.187a1.62 1.62 0 0 1-.57-.102 1.747 1.747 0 0 1-.49-.277 1.338 1.338 0 0 1-.501-.955h4.158c.008-.06.012-.12.012-.181v-.181Zm-1.367-.611h-2.802c.03-.384.188-.699.472-.944a1.546 1.546 0 0 1 1.043-.368c.22 0 .412.036.575.108.163.072.299.168.405.288.106.12.184.26.233.418.05.162.075.33.074.498Z" clip-rule="evenodd"/></g><defs><clipPath id="a"><path fill="#fff" d="M0 0h24v24H0z"/></clipPath></defs></svg>