<svg xmlns="http://www.w3.org/2000/svg" fill="none" viewBox="0 0 24 24"><g clip-path="url(#a)"><path fill="#1693D4" d="M12 24c6.627 0 12-5.373 12-12S18.627 0 12 0 0 5.373 0 12s5.373 12 12 12"/><path fill="#fff" fill-rule="evenodd" d="M9.003 12.34A5 5 0 0 1 9 11.7H7.345L5.5 10.225h3.837a4.76 4.76 0 0 1 4.409-2.952c2.626 0 4.754 2.116 4.754 4.727 0 2.61-2.128 4.727-4.754 4.727a4.76 4.76 0 0 1-4.392-2.912H5.5l1.845-1.476zm7.45-.252q0-.735-.198-1.283a2.6 2.6 0 0 0-.553-.916 2.3 2.3 0 0 0-.838-.555 2.9 2.9 0 0 0-1.054-.186q-.615 0-1.145.209a2.7 2.7 0 0 0-.917.588 2.7 2.7 0 0 0-.609.916 3.1 3.1 0 0 0-.222 1.193q0 .667.222 1.193.222.525.615.887.393.363.928.56c.377.136.774.203 1.174.198q1.538 0 2.347-1.086l-.912-.723a1.6 1.6 0 0 1-.58.514q-.354.187-.866.187-.296 0-.57-.102a1.8 1.8 0 0 1-.49-.277 1.34 1.34 0 0 1-.501-.955h4.158q.012-.09.012-.181zm-1.367-.611h-2.802q.045-.576.472-.944a1.55 1.55 0 0 1 1.043-.368q.33 0 .575.108t.405.288.233.418q.075.245.074.498" clip-rule="evenodd"/></g><defs><clipPath id="a"><path fill="#fff" d="M0 0h24v24H0z"/></clipPath></defs></svg>