<svg xmlns="http://www.w3.org/2000/svg" fill="none" viewBox="0 0 24 24"><g clip-path="url(#a)"><path fill="#AA15DD" d="M12 24c6.627 0 12-5.373 12-12S18.627 0 12 0 0 5.373 0 12s5.373 12 12 12Z"/><path fill="#fff" d="M11.999 17.95c.149 0 .27.124.27.275a.272.272 0 0 1-.27.275.272.272 0 0 1-.27-.275.273.273 0 0 1 .27-.275ZM6.564 9.126a.279.279 0 0 1 .016-.486.27.27 0 0 1 .382.176.279.279 0 0 1-.097.29.267.267 0 0 1-.301.02Zm0 5.754a.268.268 0 0 1 .369.1.277.277 0 0 1-.1.376.266.266 0 0 1-.368-.101.277.277 0 0 1 .099-.375Zm10.87-5.754a.27.27 0 0 1-.369-.1.28.28 0 0 1 .019-.307.269.269 0 0 1 .42-.013.277.277 0 0 1-.07.42ZM12 6.05a.272.272 0 0 1-.266-.275c0-.112.067-.212.168-.255a.267.267 0 0 1 .295.062.278.278 0 0 1-.045.423.27.27 0 0 1-.152.045Zm4.828 8.786a.56.56 0 0 0 .138.714l-4.427 2.6a.546.546 0 0 0-.539-.476.547.547 0 0 0-.538.476l-4.428-2.6a.56.56 0 0 0-.156-.96.54.54 0 0 0-.382.01V9.4a.54.54 0 0 0 .673-.236.56.56 0 0 0-.134-.712l4.427-2.6a.547.547 0 0 0 .538.476.547.547 0 0 0 .539-.477l4.428 2.6a.56.56 0 0 0 .156.958.54.54 0 0 0 .382-.009v5.197a.54.54 0 0 0-.676.24Zm-3.783-.796a2.246 2.246 0 0 1-2.955-.616l2.92-1.71.996-.585.472-.278.027-.014 2.006-1.18a.267.267 0 0 0-.06-.484.252.252 0 0 0-.198.029l-1.475.87a3.48 3.48 0 0 0-2.493-1.523v-1.69a.268.268 0 0 0-.164-.25.27.27 0 0 0-.103-.022.27.27 0 0 0-.268.272v1.674A3.4 3.4 0 0 0 10.19 9c-.429.251-.799.59-1.086.995l-1.352-.793a.256.256 0 0 0-.354.097.266.266 0 0 0 .095.359l1.341.788a3.568 3.568 0 0 0-.365 1.859l.125.708c.055.192.125.379.21.559l-1.311.77a.266.266 0 0 0 .063.484.257.257 0 0 0 .198-.027l1.316-.771a3.5 3.5 0 0 0 2.678 1.517v1.596c0 .15.12.272.268.272a.272.272 0 0 0 .248-.169.272.272 0 0 0 .02-.103v-1.61c.48-.05.946-.204 1.362-.452a3.43 3.43 0 0 0 1.154-1.128l1.447.847c.124.07.28.027.35-.098a.266.266 0 0 0-.09-.36l-1.457-.854c.004-.008.013-.017.013-.027.442-1.018-.741-1.455-1.004-.67-.176.525-.537.97-1.015 1.25Zm4.39.84a.279.279 0 0 1 .03.456.265.265 0 0 1-.3.02.278.278 0 0 1 .064-.503.267.267 0 0 1 .206.027Zm-7.736-2.517c-.026-1.031.096-1.752 1.074-2.326a2.241 2.241 0 0 1 2.554.196l-3.628 2.13Z"/></g><defs><clipPath id="a"><path fill="#fff" d="M0 0h24v24H0z"/></clipPath></defs></svg>