<svg xmlns="http://www.w3.org/2000/svg" fill="none" viewBox="0 0 24 24"><g clip-path="url(#a)"><path fill="#fff" d="m13.336 9.798-2.477 1.427a.204.204 0 0 0-.103.179V12.6a.193.193 0 0 0 .103.172l1.037.599a.185.185 0 0 0 .198 0l4.281-2.466c.727-.42.727-1.631 0-2.051l-3.848-2.216a1.029 1.029 0 0 0-1.064 0L7.616 8.855a1.05 1.05 0 0 0-.538.925c0 1.484.006 2.961 0 4.439a1.05 1.05 0 0 0 .535.924l3.847 2.223a1.058 1.058 0 0 0 1.064 0l3.851-2.223a1.04 1.04 0 0 0 .529-.924v-1.93l-4.58 2.65a.65.65 0 0 1-.662 0l-2.046-1.185a.648.648 0 0 1-.33-.573v-2.363a.653.653 0 0 1 .323-.567c.682-.396 1.37-.79 2.052-1.185a.653.653 0 0 1 .662 0l1.016.58a.09.09 0 0 1 .03.12.09.09 0 0 1-.033.032Z"/><path fill="#fff" d="M12 4.916a7.084 7.084 0 1 0 0 14.169 7.084 7.084 0 0 0 0-14.17Zm1.336 4.73-1.016-.58a.653.653 0 0 0-.662 0c-.682.395-1.37.79-2.052 1.185a.653.653 0 0 0-.324.567v2.363a.649.649 0 0 0 .331.573l2.045 1.185a.65.65 0 0 0 .662 0l4.58-2.65v1.93a1.04 1.04 0 0 1-.525.924l-3.847 2.223a1.058 1.058 0 0 1-1.064 0l-3.848-2.223a1.05 1.05 0 0 1-.538-.924c.006-1.478 0-2.956 0-4.44a1.05 1.05 0 0 1 .535-.924L11.46 6.64a1.029 1.029 0 0 1 1.064 0l3.851 2.216c.727.42.727 1.632 0 2.052l-4.281 2.465a.184.184 0 0 1-.198 0l-1.037-.598a.194.194 0 0 1-.103-.173v-1.197a.203.203 0 0 1 .103-.179l2.477-1.427a.09.09 0 0 0 .043-.076.09.09 0 0 0-.043-.077Z"/><path fill="url(#b)" d="M12 2a10 10 0 1 0 0 20 10 10 0 0 0 0-20Zm1.336 7.645-1.016-.58a.653.653 0 0 0-.662 0c-.682.396-1.37.79-2.052 1.186a.653.653 0 0 0-.324.567v2.363a.649.649 0 0 0 .331.573l2.045 1.185a.65.65 0 0 0 .662 0l4.58-2.65v1.93a1.04 1.04 0 0 1-.525.924l-3.847 2.223a1.058 1.058 0 0 1-1.064 0l-3.848-2.223a1.052 1.052 0 0 1-.538-.924c.006-1.478 0-2.956 0-4.44a1.05 1.05 0 0 1 .535-.924L11.46 6.64a1.029 1.029 0 0 1 1.064 0l3.851 2.216c.727.42.727 1.632 0 2.052l-4.281 2.465a.185.185 0 0 1-.198 0l-1.037-.599a.194.194 0 0 1-.103-.172v-1.197a.203.203 0 0 1 .103-.179l2.477-1.427a.09.09 0 0 0 .043-.076.09.09 0 0 0-.043-.077Z"/></g><defs><linearGradient id="b" x1="-5.127" x2="28.782" y1="-8.552" y2="32.138" gradientUnits="userSpaceOnUse"><stop stop-color="#273498"/><stop offset=".53" stop-color="#0074C2"/><stop offset="1" stop-color="#00ABE7"/></linearGradient><clipPath id="a"><path fill="#fff" d="M2 2h20v20H2z"/></clipPath></defs></svg>