<svg xmlns="http://www.w3.org/2000/svg" fill="none" viewBox="0 0 24 24"><g clip-path="url(#a)"><path fill="#2B1544" d="M12 24c6.627 0 12-5.373 12-12S18.627 0 12 0 0 5.373 0 12s5.373 12 12 12"/><path fill="#fff" d="M17.846 9.723v4.328c0 .193.01.39-.034.578a2.26 2.26 0 0 1-.651 1.145c-.154.148-.345.243-.528.351l-3.715 2.169c-.379.202-.826.236-1.246.184a1.7 1.7 0 0 1-.625-.204L7.133 15.99c-.319-.177-.557-.47-.732-.784-.143-.274-.248-.574-.248-.887V9.646c.024-.455.226-.886.513-1.23q.176-.22.415-.367 1.82-1.06 3.638-2.124c.2-.11.389-.245.605-.32a2.3 2.3 0 0 1 1.128-.063c.167.046.338.096.488.184 1.32.775 2.642 1.543 3.961 2.319.352.208.61.556.778.927.106.234.167.492.167.751m-5.885-1.61q-.421.624-.967 1.144c-.19.18-.373.375-.481.616a1 1 0 0 0-.121.56c.03.262.216.494.46.587.247.1.526.077.772-.02a.26.26 0 0 1 .141-.019c-.048.309-.235.569-.383.835l.006.044c.134.143.275.278.409.419.033.031.064.076.111.09.156-.12.277-.278.42-.41.032-.037.098-.076.064-.133-.139-.26-.292-.524-.336-.824.026-.061.1-.01.143.005.23.113.51.13.751.037a.77.77 0 0 0 .46-.857 1.54 1.54 0 0 0-.446-.816c-.344-.355-.675-.733-.91-1.172a.15.15 0 0 0-.093-.086m-2.362 4.233c-.39.212-.651.628-.716 1.07a1.48 1.48 0 0 0 .835 1.52c.355.153.767.15 1.124.01.185-.074.343-.195.48-.338.05-.054.125-.103.125-.187-.006-.084-.082-.13-.13-.187-.064-.057-.115-.13-.188-.175-.117-.051-.187.077-.262.14-.296.3-.829.303-1.132.01a.82.82 0 0 1-.246-.728.82.82 0 0 1 .406-.604.95.95 0 0 1 .462-.103.88.88 0 0 1 .578.295c.515.513 1.01 1.044 1.524 1.558.271.269.648.441 1.032.426.292.007.574-.11.812-.275.35-.244.563-.668.585-1.096.047-.677-.444-1.36-1.106-1.491-.422-.086-.898.002-1.223.303-.232.21-.443.447-.671.664-.236-.195-.423-.44-.654-.64a1.1 1.1 0 0 0-.338-.221c-.024-.015-.031-.022-.063-.035a1.37 1.37 0 0 0-1.234.084m3.275.684a.83.83 0 0 1 .644-.246.79.79 0 0 1 .644.367c.213.325.15.792-.124 1.06-.282.274-.766.309-1.07.05-.225-.192-.415-.421-.63-.623l-.008-.054c.18-.187.364-.366.544-.554"/></g><defs><clipPath id="a"><path fill="#fff" d="M0 0h24v24H0z"/></clipPath></defs></svg>