<svg xmlns="http://www.w3.org/2000/svg" fill="none" viewBox="0 0 24 24"><g clip-path="url(#a)"><path fill="#2B1544" d="M12 24c6.627 0 12-5.373 12-12S18.627 0 12 0 0 5.373 0 12s5.373 12 12 12Z"/><path fill="#fff" d="M17.846 9.723v4.328c0 .193.01.39-.034.578a2.256 2.256 0 0 1-.651 1.145c-.154.148-.345.243-.528.351-1.24.722-2.476 1.446-3.715 2.169-.379.202-.826.236-1.246.184a1.697 1.697 0 0 1-.625-.204c-1.305-.76-2.61-1.523-3.914-2.284-.319-.177-.557-.47-.732-.784-.143-.274-.248-.574-.248-.887V9.646c.024-.455.226-.886.513-1.23.116-.146.257-.27.415-.367 1.213-.706 2.426-1.415 3.638-2.124.2-.11.389-.245.605-.32a2.318 2.318 0 0 1 1.128-.063c.167.046.338.096.488.184 1.32.775 2.642 1.543 3.961 2.319.352.208.61.556.778.927.106.234.167.492.167.751Zm-5.885-1.61c-.28.415-.604.799-.967 1.144-.19.18-.373.375-.481.616a.975.975 0 0 0-.121.56c.03.262.216.494.46.587.247.1.526.077.772-.02a.255.255 0 0 1 .141-.019c-.048.309-.235.569-.383.835l.006.044c.134.143.275.278.409.419.033.031.064.076.111.09.156-.12.277-.278.42-.41.032-.037.098-.076.064-.133-.139-.26-.292-.524-.336-.824.026-.061.1-.01.143.005.23.113.51.13.751.037a.773.773 0 0 0 .46-.857 1.536 1.536 0 0 0-.446-.816c-.344-.355-.675-.733-.91-1.172a.152.152 0 0 0-.093-.086Zm-2.362 4.233c-.39.212-.651.628-.716 1.07a1.482 1.482 0 0 0 .835 1.52c.355.153.767.15 1.124.01.185-.074.343-.195.48-.338.05-.054.125-.103.125-.187-.006-.084-.082-.13-.13-.187-.064-.057-.115-.13-.188-.175-.117-.051-.187.077-.262.14-.296.3-.829.303-1.132.01a.816.816 0 0 1-.246-.728.822.822 0 0 1 .406-.604.947.947 0 0 1 .462-.103.883.883 0 0 1 .578.295c.515.513 1.01 1.044 1.524 1.558.271.269.648.441 1.032.426.292.007.574-.11.812-.275.35-.244.563-.668.585-1.096.047-.677-.444-1.36-1.106-1.491-.422-.086-.898.002-1.223.303-.232.21-.443.447-.671.664-.236-.195-.423-.44-.654-.64a1.137 1.137 0 0 0-.338-.221c-.024-.015-.031-.022-.063-.035a1.367 1.367 0 0 0-1.234.084Zm3.275.684a.831.831 0 0 1 .644-.246.79.79 0 0 1 .644.367c.213.325.15.792-.124 1.06-.282.274-.766.309-1.07.05-.225-.192-.415-.421-.63-.623l-.008-.054c.18-.187.364-.366.544-.554Z"/></g><defs><clipPath id="a"><path fill="#fff" d="M0 0h24v24H0z"/></clipPath></defs></svg>