<svg xmlns="http://www.w3.org/2000/svg" fill="none" viewBox="0 0 24 24"><path fill="url(#a)" d="M21.661 17.861a8.73 8.73 0 0 1-.988.442 9.548 9.548 0 0 1-3.365.605c-4.436 0-8.3-3.051-8.3-6.967a2.95 2.95 0 0 1 1.54-2.56c-4.012.17-5.043 4.35-5.043 6.8 0 6.925 6.383 7.627 7.758 7.627.741 0 1.86-.216 2.53-.427l.124-.042a12.03 12.03 0 0 0 6.243-4.95.375.375 0 0 0-.499-.528Z"/><path fill="url(#b)" d="M21.661 17.861a8.73 8.73 0 0 1-.988.442 9.548 9.548 0 0 1-3.365.605c-4.436 0-8.3-3.051-8.3-6.967a2.95 2.95 0 0 1 1.54-2.56c-4.012.17-5.043 4.35-5.043 6.8 0 6.925 6.383 7.627 7.758 7.627.741 0 1.86-.216 2.53-.427l.124-.042a12.03 12.03 0 0 0 6.243-4.95.375.375 0 0 0-.499-.528Z" opacity=".35"/><path fill="url(#c)" d="M9.912 22.63a7.423 7.423 0 0 1-2.132-2 7.566 7.566 0 0 1 2.768-11.249c.293-.137.792-.387 1.457-.375a3.033 3.033 0 0 1 2.408 1.22 2.98 2.98 0 0 1 .596 1.748c0-.02 2.293-7.461-7.499-7.461-4.115 0-7.5 3.905-7.5 7.33a12.2 12.2 0 0 0 1.136 5.25 11.998 11.998 0 0 0 14.66 6.291 7.083 7.083 0 0 1-5.886-.75l-.008-.003Z"/><path fill="url(#d)" d="M9.912 22.63a7.423 7.423 0 0 1-2.132-2 7.566 7.566 0 0 1 2.768-11.249c.293-.137.792-.387 1.457-.375a3.033 3.033 0 0 1 2.408 1.22 2.98 2.98 0 0 1 .596 1.748c0-.02 2.293-7.461-7.499-7.461-4.115 0-7.5 3.905-7.5 7.33a12.2 12.2 0 0 0 1.136 5.25 11.998 11.998 0 0 0 14.66 6.291 7.083 7.083 0 0 1-5.886-.75l-.008-.003Z" opacity=".41"/><path fill="url(#e)" d="M14.28 13.954c-.076.098-.31.234-.31.53 0 .245.16.48.443.678 1.348.938 3.89.814 3.896.814a5.583 5.583 0 0 0 2.837-.783A5.754 5.754 0 0 0 24 10.236c.024-2.1-.75-3.497-1.063-4.116C20.95 2.235 16.662 0 11.999 0A11.999 11.999 0 0 0 .001 11.83C.046 8.405 3.45 5.638 7.5 5.638c.328 0 2.199.032 3.937.944 1.532.805 2.334 1.776 2.892 2.739.579 1 .682 2.263.682 2.767 0 .503-.257 1.25-.731 1.866Z"/><path fill="url(#f)" d="M14.28 13.954c-.076.098-.31.234-.31.53 0 .245.16.48.443.678 1.348.938 3.89.814 3.896.814a5.583 5.583 0 0 0 2.837-.783A5.754 5.754 0 0 0 24 10.236c.024-2.1-.75-3.497-1.063-4.116C20.95 2.235 16.662 0 11.999 0A11.999 11.999 0 0 0 .001 11.83C.046 8.405 3.45 5.638 7.5 5.638c.328 0 2.199.032 3.937.944 1.532.805 2.334 1.776 2.892 2.739.579 1 .682 2.263.682 2.767 0 .503-.257 1.25-.731 1.866Z"/><defs><radialGradient id="b" cx="0" cy="0" r="1" gradientTransform="matrix(8.94086 0 0 8.49382 14.738 16.728)" gradientUnits="userSpaceOnUse"><stop offset=".72" stop-opacity="0"/><stop offset=".95" stop-opacity=".53"/><stop offset="1"/></radialGradient><radialGradient id="d" cx="0" cy="0" r="1" gradientTransform="matrix(2.01408 -13.29299 10.73933 1.62716 6.618 18.655)" gradientUnits="userSpaceOnUse"><stop offset=".76" stop-opacity="0"/><stop offset=".95" stop-opacity=".5"/><stop offset="1"/></radialGradient><radialGradient id="e" cx="0" cy="0" r="1" gradientTransform="matrix(-.75915 18.97562 -40.41427 -1.61685 2.424 4.44)" gradientUnits="userSpaceOnUse"><stop stop-color="#35C1F1"/><stop offset=".11" stop-color="#34C1ED"/><stop offset=".23" stop-color="#2FC2DF"/><stop offset=".31" stop-color="#2BC3D2"/><stop offset=".67" stop-color="#36C752"/></radialGradient><radialGradient id="f" cx="0" cy="0" r="1" gradientTransform="matrix(2.55485 8.75962 -7.12332 2.0776 22.505 7.256)" gradientUnits="userSpaceOnUse"><stop stop-color="#66EB6E"/><stop offset="1" stop-color="#66EB6E" stop-opacity="0"/></radialGradient><linearGradient id="a" x1="5.505" x2="22.223" y1="16.597" y2="16.597" gradientUnits="userSpaceOnUse"><stop stop-color="#0C59A4"/><stop offset="1" stop-color="#114A8B"/></linearGradient><linearGradient id="c" x1="14.318" x2="3.877" y1="9.345" y2="20.718" gradientUnits="userSpaceOnUse"><stop stop-color="#1B9DE2"/><stop offset=".16" stop-color="#1595DF"/><stop offset=".67" stop-color="#0680D7"/><stop offset="1" stop-color="#0078D4"/></linearGradient></defs></svg>