<svg xmlns="http://www.w3.org/2000/svg" fill="none" viewBox="0 0 24 24"><path fill="url(#a)" d="M21.66 17.861a9 9 0 0 1-.987.442 9.6 9.6 0 0 1-3.365.605c-4.436 0-8.3-3.051-8.3-6.967a2.95 2.95 0 0 1 1.54-2.56c-4.012.17-5.043 4.35-5.043 6.8 0 6.925 6.383 7.627 7.758 7.627.741 0 1.86-.216 2.53-.427l.123-.042a12.03 12.03 0 0 0 6.244-4.95.375.375 0 0 0-.5-.528"/><path fill="url(#b)" d="M21.66 17.861a9 9 0 0 1-.987.442 9.6 9.6 0 0 1-3.365.605c-4.436 0-8.3-3.051-8.3-6.967a2.95 2.95 0 0 1 1.54-2.56c-4.012.17-5.043 4.35-5.043 6.8 0 6.925 6.383 7.627 7.758 7.627.741 0 1.86-.216 2.53-.427l.123-.042a12.03 12.03 0 0 0 6.244-4.95.375.375 0 0 0-.5-.528" opacity=".35"/><path fill="url(#c)" d="M9.912 22.63a7.4 7.4 0 0 1-2.132-2 7.567 7.567 0 0 1 2.768-11.249c.293-.137.792-.387 1.457-.375a3.03 3.03 0 0 1 2.408 1.22c.378.504.587 1.117.596 1.748 0-.02 2.293-7.461-7.5-7.461-4.114 0-7.498 3.905-7.498 7.331a12.2 12.2 0 0 0 1.135 5.25 12 12 0 0 0 14.659 6.29 7.08 7.08 0 0 1-5.885-.75z"/><path fill="url(#d)" d="M9.912 22.63a7.4 7.4 0 0 1-2.132-2 7.567 7.567 0 0 1 2.768-11.249c.293-.137.792-.387 1.457-.375a3.03 3.03 0 0 1 2.408 1.22c.378.504.587 1.117.596 1.748 0-.02 2.293-7.461-7.5-7.461-4.114 0-7.498 3.905-7.498 7.331a12.2 12.2 0 0 0 1.135 5.25 12 12 0 0 0 14.659 6.29 7.08 7.08 0 0 1-5.885-.75z" opacity=".41"/><path fill="url(#e)" d="M14.28 13.954c-.076.098-.31.234-.31.53 0 .245.16.48.443.678 1.348.938 3.89.814 3.896.814a5.6 5.6 0 0 0 2.837-.783A5.75 5.75 0 0 0 24 10.236c.024-2.1-.75-3.497-1.063-4.116C20.949 2.235 16.662 0 11.999 0A12 12 0 0 0 0 11.83c.045-3.425 3.45-6.192 7.5-6.192.328 0 2.199.032 3.937.944 1.531.805 2.334 1.776 2.892 2.739.579 1 .682 2.263.682 2.767 0 .503-.257 1.25-.731 1.866"/><path fill="url(#f)" d="M14.28 13.954c-.076.098-.31.234-.31.53 0 .245.16.48.443.678 1.348.938 3.89.814 3.896.814a5.6 5.6 0 0 0 2.837-.783A5.75 5.75 0 0 0 24 10.236c.024-2.1-.75-3.497-1.063-4.116C20.949 2.235 16.662 0 11.999 0A12 12 0 0 0 0 11.83c.045-3.425 3.45-6.192 7.5-6.192.328 0 2.199.032 3.937.944 1.531.805 2.334 1.776 2.892 2.739.579 1 .682 2.263.682 2.767 0 .503-.257 1.25-.731 1.866"/><defs><radialGradient id="b" cx="0" cy="0" r="1" gradientTransform="matrix(8.94086 0 0 8.49382 14.738 16.728)" gradientUnits="userSpaceOnUse"><stop offset=".72" stop-opacity="0"/><stop offset=".95" stop-opacity=".53"/><stop offset="1"/></radialGradient><radialGradient id="d" cx="0" cy="0" r="1" gradientTransform="matrix(2.01408 -13.29299 10.73933 1.62716 6.618 18.655)" gradientUnits="userSpaceOnUse"><stop offset=".76" stop-opacity="0"/><stop offset=".95" stop-opacity=".5"/><stop offset="1"/></radialGradient><radialGradient id="e" cx="0" cy="0" r="1" gradientTransform="matrix(-.75915 18.97562 -40.41427 -1.61685 2.424 4.44)" gradientUnits="userSpaceOnUse"><stop stop-color="#35C1F1"/><stop offset=".11" stop-color="#34C1ED"/><stop offset=".23" stop-color="#2FC2DF"/><stop offset=".31" stop-color="#2BC3D2"/><stop offset=".67" stop-color="#36C752"/></radialGradient><radialGradient id="f" cx="0" cy="0" r="1" gradientTransform="matrix(2.55485 8.75962 -7.12332 2.0776 22.505 7.256)" gradientUnits="userSpaceOnUse"><stop stop-color="#66EB6E"/><stop offset="1" stop-color="#66EB6E" stop-opacity="0"/></radialGradient><linearGradient id="a" x1="5.505" x2="22.222" y1="16.597" y2="16.597" gradientUnits="userSpaceOnUse"><stop stop-color="#0C59A4"/><stop offset="1" stop-color="#114A8B"/></linearGradient><linearGradient id="c" x1="14.318" x2="3.877" y1="9.345" y2="20.718" gradientUnits="userSpaceOnUse"><stop stop-color="#1B9DE2"/><stop offset=".16" stop-color="#1595DF"/><stop offset=".67" stop-color="#0680D7"/><stop offset="1" stop-color="#0078D4"/></linearGradient></defs></svg>