<svg xmlns="http://www.w3.org/2000/svg" fill="none" viewBox="0 0 24 24"><path fill="#62757E" fill-rule="evenodd" d="M20.651 8.98a2.8 2.8 0 0 0 0-3.96l-1.414-1.414a2.8 2.8 0 0 0-3.96 0L4.182 14.702a2.8 2.8 0 0 0-.81 1.733l-.242 2.74a1.8 1.8 0 0 0 1.952 1.952l2.74-.242a2.8 2.8 0 0 0 1.734-.81zm-1.13-2.829a1.2 1.2 0 0 1 0 1.698l-.915.914-3.112-3.111.915-.915a1.2 1.2 0 0 1 1.697 0zm-5.158.632 3.111 3.111-9.05 9.05a1.2 1.2 0 0 1-.742.347l-2.74.242a.2.2 0 0 1-.218-.217l.242-2.74a1.2 1.2 0 0 1 .347-.743z" clip-rule="evenodd"/></svg>