<svg xmlns="http://www.w3.org/2000/svg" fill="none" viewBox="0 0 24 24"><path fill="#62757E" fill-rule="evenodd" d="M21.651 2.817a2.8 2.8 0 0 1 0 3.96l-8.192 8.192a2.8 2.8 0 0 1-1.733.81l-1.703.15a1.8 1.8 0 0 1-1.952-1.952l.15-1.703a2.8 2.8 0 0 1 .81-1.733l8.192-8.192a2.8 2.8 0 0 1 3.96 0zm-1.13 2.828a1.2 1.2 0 0 0 0-1.697l-.47-.468a1.2 1.2 0 0 0-1.696 0l-.27.269 2.166 2.165zm-1.401 1.4L16.954 4.88l-6.792 6.792a1.2 1.2 0 0 0-.346.743l-.15 1.703a.2.2 0 0 0 .216.217l1.703-.15a1.2 1.2 0 0 0 .743-.348zM3.75 8.25a1.5 1.5 0 0 1 1.5-1.5H10a.75.75 0 0 0 0-1.5H5.25a3 3 0 0 0-3 3v10.5a3 3 0 0 0 3 3h10.5a3 3 0 0 0 3-3V14a.75.75 0 0 0-1.5 0v4.75a1.5 1.5 0 0 1-1.5 1.5H5.25a1.5 1.5 0 0 1-1.5-1.5z" clip-rule="evenodd"/></svg>