<svg xmlns="http://www.w3.org/2000/svg" fill="none" viewBox="0 0 24 24"><path fill="currentColor" fill-rule="evenodd" d="M19.845 4.155a1.018 1.018 0 0 0-1.44 0l-1.047 1.047 1.44 1.44 1.047-1.047a1.018 1.018 0 0 0 0-1.44Zm-2.007 3.446-1.44-1.44L5.406 17.157c-.399.398-.692.89-.852 1.43l-.366 1.227 1.227-.365a3.394 3.394 0 0 0 1.43-.853L17.839 7.6Zm-.392-4.405a2.375 2.375 0 0 1 3.358 3.358l-13 13a4.75 4.75 0 0 1-2.003 1.194l-2.429.724a.678.678 0 0 1-.844-.844l.724-2.43a4.75 4.75 0 0 1 1.193-2.002l13-13Z" clip-rule="evenodd"/></svg>