<svg xmlns="http://www.w3.org/2000/svg" fill="none" viewBox="0 0 24 24"><g clip-path="url(#a)"><path fill="#242424" d="M12 24c6.627 0 12-5.373 12-12S18.627 0 12 0 0 5.373 0 12s5.373 12 12 12Z"/><path fill="#fff" d="m10.089 17.118 1.744-1.753 1.75 1.753-1.116 1.119a.894.894 0 0 1-1.268 0l-1.11-1.12Zm4.517-6.007-1.75-1.753 1.75-1.753 1.75 1.753-1.75 1.753Zm-.435 5.436-1.75-1.754 4.7-4.707 1.116 1.12c.35.35.35.918 0 1.269l-4.066 4.072Zm-4.811-.181-1.75-1.753 4.692-4.7 1.75 1.754-4.692 4.699Zm-2.484-2.47-1.118-1.12a.898.898 0 0 1 .009-1.268l1.116-1.12 1.75 1.754-1.757 1.754Zm6.998-7.012-4.7 4.705-1.75-1.753 4.066-4.073a.895.895 0 0 1 1.267 0l1.117 1.121Z"/></g><defs><clipPath id="a"><path fill="#fff" d="M0 0h24v24H0z"/></clipPath></defs></svg>