<svg xmlns="http://www.w3.org/2000/svg" fill="none" viewBox="0 0 24 24"><g clip-path="url(#a)"><path fill="#242424" d="M12 24c6.627 0 12-5.373 12-12S18.627 0 12 0 0 5.373 0 12s5.373 12 12 12"/><path fill="#fff" d="m10.089 17.118 1.744-1.753 1.75 1.753-1.117 1.119a.894.894 0 0 1-1.267 0zm4.517-6.007-1.75-1.753 1.75-1.753 1.75 1.753zm-.435 5.436-1.75-1.754 4.699-4.706 1.117 1.118a.9.9 0 0 1 0 1.27zm-4.811-.181-1.75-1.753 4.691-4.7 1.75 1.754zm-2.485-2.47-1.117-1.12a.9.9 0 0 1 .009-1.268l1.116-1.12 1.75 1.754zm6.999-7.012-4.7 4.705-1.75-1.753 4.065-4.073a.895.895 0 0 1 1.268 0z"/></g><defs><clipPath id="a"><path fill="#fff" d="M0 0h24v24H0z"/></clipPath></defs></svg>