<svg xmlns="http://www.w3.org/2000/svg" fill="none" viewBox="0 0 24 24"><g clip-path="url(#a)"><path fill="#0FACF3" d="M12 24c6.627 0 12-5.373 12-12S18.627 0 12 0 0 5.373 0 12s5.373 12 12 12"/><path fill="#fff" d="M6.923 6.956h3.924c1.555 0 2.328-.05 3.488.057 1.16.123 2.321.596 3.072 1.504.885 1.055 1.144 2.478 1.085 3.801-.058 1.317-.509 2.698-1.544 3.597-.918.826-2.203 1.129-3.422 1.137-2.37.008-4.733 0-7.103 0-.259-.017-.551.008-.751-.172-.35-.35-.142-1.103.417-1.071 1.319-.04 2.646 0 3.965-.025-.025-1.111-.008-2.223-.008-3.326-1.019-.009-2.03 0-3.047 0-.226-.009-.477-.009-.651-.156-.209-.188-.209-.506-.117-.751.117-.27.434-.32.701-.32 1.035-.008 2.079 0 3.113 0 .017-1.014-.016-2.028.017-3.033-1.16-.008-2.32 0-3.481 0-.259-.008-.55-.008-.751-.188-.208-.27-.166-.654.009-.924.333-.163.717-.13 1.084-.13m4.575 4.276c.475.007.951-.034 1.427.032.568.082.568 1.079-.009 1.16-.467.074-.95.025-1.427.034.009.964 0 1.921 0 2.885.009.164.017.409.226.426.567.049 1.061.032 1.703.032.95.041 1.953-.253 2.62-.948.685-.727.935-1.74.952-2.706.025-1.07-.176-2.248-.96-3.05-.71-.72-1.777-.964-2.771-.907-.566 0-1.052-.017-1.578.033-.166.049-.175.253-.183.4v2.608"/></g><defs><clipPath id="a"><path fill="#fff" d="M0 0h24v24H0z"/></clipPath></defs></svg>