<svg xmlns="http://www.w3.org/2000/svg" fill="none" viewBox="0 0 24 24"><path fill="#5378DF" d="M22.08 12c0-5.523-4.477-10-10-10s-10 4.477-10 10 4.477 10 10 10 10-4.477 10-10"/><path fill="#fff" d="M16.627 8.046c.392-.005.782.047 1.158.155q.082.016.147.067a.705.705 0 0 1 .24.985c-.137.202-.342.224-.558.224h-1.79q.138.335.196.69c.045.259.069.528.103.797v.461h1.414a1.5 1.5 0 0 1 .319.022c.25.046.397.18.409.415v.671c-.011.235-.16.37-.41.416a1.5 1.5 0 0 1-.318.022h-1.433v.458c-.035.268-.057.537-.102.794q-.062.361-.205.7h1.816c.216 0 .42.022.558.225a.707.707 0 0 1-.24.987.4.4 0 0 1-.146.07 4 4 0 0 1-1.163.157l-.157.003-.316.006c-1.313.023-2.615.028-3.606.029h-.342c-1.331 0-3.118-.02-4.467-.046a4 4 0 0 1-1.158-.157.4.4 0 0 1-.148-.067.704.704 0 0 1-.24-.985c.137-.202.342-.224.558-.224h1.792a3 3 0 0 1-.197-.69c-.046-.259-.068-.528-.102-.797v-.465H6.824a1.5 1.5 0 0 1-.318-.022c-.25-.045-.397-.179-.41-.415v-.67c.012-.236.16-.37.41-.416a1.5 1.5 0 0 1 .327-.022h1.433v-.462c.033-.269.056-.537.102-.795q.06-.362.205-.699H6.749c-.216 0-.422-.023-.558-.225a.706.706 0 0 1 .238-.987.4.4 0 0 1 .149-.067 4 4 0 0 1 1.161-.15l.158-.004.315-.006c1.314-.023 2.616-.028 3.608-.029h.342c1.331 0 3.117.018 4.465.046m-2.474 4.925h-3.92c-.206.001-.204.02-.183.258q.011.357.09.706c.09.406.409.724.82.819q.552.142 1.126.157c.437 0 .873-.055 1.297-.162.41-.093.73-.411.82-.816q.079-.35.09-.706c.018-.218.019-.248-.14-.256m-1.877-3.489c-.436.001-.87.056-1.292.163a1.08 1.08 0 0 0-.819.816 4 4 0 0 0-.09.706c-.02.218-.021.251.137.256h3.921c.206-.001.205-.02.184-.258a4 4 0 0 0-.096-.707 1.09 1.09 0 0 0-.82-.82 5 5 0 0 0-1.125-.156"/></svg>