<svg xmlns="http://www.w3.org/2000/svg" fill="none" viewBox="0 0 24 24"><path fill="#5378DF" d="M22.08 12c0-5.523-4.477-10-10-10s-10 4.477-10 10 4.477 10 10 10 10-4.477 10-10Z"/><path fill="#fff" d="M16.628 8.046c.391-.005.781.047 1.157.155a.35.35 0 0 1 .148.067.704.704 0 0 1 .24.985c-.138.202-.343.224-.559.224h-1.79c.092.222.158.454.196.69.046.259.07.528.103.797v.461h1.414a1.49 1.49 0 0 1 .319.022c.25.046.397.18.41.415v.671c-.012.235-.16.37-.41.416a1.483 1.483 0 0 1-.319.022h-1.433v.458c-.034.268-.057.537-.102.794-.04.24-.11.475-.205.7h1.816c.216 0 .42.022.558.225a.707.707 0 0 1-.24.987.37.37 0 0 1-.146.07 4.05 4.05 0 0 1-1.163.157l-.157.003-.315.006a220.21 220.21 0 0 1-3.607.029h-.342c-1.331 0-3.117-.02-4.466-.046a4.02 4.02 0 0 1-1.16-.157.364.364 0 0 1-.146-.067.704.704 0 0 1-.24-.985c.136-.202.34-.224.557-.224h1.792a3.117 3.117 0 0 1-.196-.69c-.046-.259-.069-.528-.103-.797v-.465H6.825a1.483 1.483 0 0 1-.319-.022c-.25-.045-.397-.179-.41-.415v-.67c.012-.236.16-.37.41-.416a1.5 1.5 0 0 1 .327-.022h1.433v-.462c.034-.269.056-.537.102-.795.04-.24.109-.475.205-.699H6.749c-.216 0-.422-.023-.558-.225a.706.706 0 0 1 .239-.987.362.362 0 0 1 .148-.067c.378-.107.77-.157 1.162-.15l.157-.004.316-.006c1.314-.023 2.616-.028 3.607-.029h.343c1.33 0 3.116.018 4.465.046Zm-2.475 4.925h-3.92c-.206.001-.204.02-.183.258.008.238.038.474.091.706.09.406.408.724.819.819.368.095.746.147 1.126.157.438 0 .874-.055 1.298-.162a1.08 1.08 0 0 0 .819-.816c.053-.232.083-.469.09-.706.018-.218.02-.248-.14-.256Zm-1.877-3.489a5.32 5.32 0 0 0-1.291.163c-.41.093-.73.411-.82.816a3.877 3.877 0 0 0-.09.706c-.019.218-.021.251.138.256h3.92c.207-.001.205-.02.184-.258a3.882 3.882 0 0 0-.096-.707 1.088 1.088 0 0 0-.819-.82 4.962 4.962 0 0 0-1.126-.156Z"/></svg>