<svg xmlns="http://www.w3.org/2000/svg" fill="none" viewBox="0 0 24 24"><g clip-path="url(#a)"><path fill="#3FBADF" d="M12 24c6.627 0 12-5.373 12-12S18.627 0 12 0 0 5.373 0 12s5.373 12 12 12Z"/><path fill="#fff" fill-opacity=".4" d="M8.75 15.86 12 14.025v3.663l-3.25-1.83Zm0-5.85L12 8.175v3.663l-3.25-1.83Z"/><path fill="#fff" fill-opacity=".7" d="m18.5 13.981-3.25 1.876v-3.696l3.25 1.82Zm0-5.85-3.25 1.876V6.311l3.25 1.82Z"/><path fill="#fff" fill-opacity=".8" d="M8.75 15.857v-3.694L12 14.03l-3.25 1.828Zm0-5.85V6.313L12 8.18l-3.25 1.828Z"/><path fill="#fff" d="M15.25 15.857 12 14.03l3.25-1.868v3.696Zm0-5.85L12 8.18l3.25-1.868v3.696Z"/><path fill="#fff" fill-opacity=".6" d="M15.25 15.857 12 17.69v-3.66l3.25 1.828Zm0-5.85L12 11.84V8.18l3.25 1.828Z"/><path fill="#fff" fill-opacity=".5" d="M8.75 12.163v3.694L5.5 13.982l3.25-1.819Zm0-5.85v3.694L5.5 8.132l3.25-1.819Z"/></g><defs><clipPath id="a"><path fill="#fff" d="M0 0h24v24H0z"/></clipPath></defs></svg>