<svg xmlns="http://www.w3.org/2000/svg" fill="none" viewBox="0 0 24 24"><g clip-path="url(#a)"><path fill="#3FBADF" d="M12 24c6.627 0 12-5.373 12-12S18.627 0 12 0 0 5.373 0 12s5.373 12 12 12"/><path fill="#fff" fill-opacity=".4" d="M8.75 15.86 12 14.025v3.663zm0-5.85L12 8.175v3.663z"/><path fill="#fff" fill-opacity=".7" d="m18.5 13.981-3.25 1.876v-3.696zm0-5.85-3.25 1.876V6.311z"/><path fill="#fff" fill-opacity=".8" d="M8.75 15.857v-3.694L12 14.03zm0-5.85V6.313L12 8.18z"/><path fill="#fff" d="M15.25 15.857 12 14.03l3.25-1.868zm0-5.85L12 8.18l3.25-1.868z"/><path fill="#fff" fill-opacity=".6" d="M15.25 15.857 12 17.69v-3.66zm0-5.85L12 11.84V8.18z"/><path fill="#fff" fill-opacity=".5" d="M8.75 12.163v3.694L5.5 13.982zm0-5.85v3.694L5.5 8.132z"/></g><defs><clipPath id="a"><path fill="#fff" d="M0 0h24v24H0z"/></clipPath></defs></svg>