<svg xmlns="http://www.w3.org/2000/svg" fill="none" viewBox="0 0 24 24"><g clip-path="url(#a)"><path fill="#2B5EBB" d="M12 24c6.627 0 12-5.373 12-12S18.627 0 12 0 0 5.373 0 12s5.373 12 12 12"/><path fill="#fff" fill-rule="evenodd" d="M18.5 11.975c0 1.519-1.177 2.703-2.68 2.698-1.471-.004-2.666-1.221-2.658-2.707s1.215-2.698 2.68-2.688c1.494.01 2.658 1.192 2.658 2.697M7.508 17.148a1.963 1.963 0 0 1-1.963-1.985c.003-1.11.87-2.005 1.96-1.98.314.007.628.124.934.22.434.135.858.304 1.29.445.269.089.526.026.763-.12.344-.215.637-.474.823-.853a.757.757 0 0 1 1-.366.77.77 0 0 1 .435.912c-.115.42-.461.647-.893.571-.383-.067-.763-.19-1.151-.05-.696.254-1.001.83-1.23 1.487-.125.359-.257.737-.481 1.033-.359.479-.887.688-1.487.686M7.467 6.853c.888 0 1.58.52 1.882 1.376.12.338.3.655.453.98.379.806 1.33.886 1.933.665.534-.195 1.049.149 1.061.702.009.384-.188.663-.548.776a.785.785 0 0 1-.873-.326c-.07-.104-.134-.212-.212-.31-.53-.67-1.119-.845-1.917-.544-.278.103-.539.26-.8.404a1.96 1.96 0 0 1-2.752-.882c-.622-1.32.327-2.84 1.773-2.84m6.194 10.34c-.008.728-.601 1.32-1.31 1.307-.684-.013-1.256-.603-1.274-1.266-.018-.75.533-1.36 1.3-1.367.732-.008 1.293.597 1.285 1.326m-2.575-10.38c0-.736.576-1.32 1.297-1.313.7.007 1.287.606 1.28 1.312-.004.741-.56 1.336-1.29 1.322-.831-.015-1.32-.685-1.287-1.321" clip-rule="evenodd"/></g><defs><clipPath id="a"><path fill="#fff" d="M0 0h24v24H0z"/></clipPath></defs></svg>