<svg xmlns="http://www.w3.org/2000/svg" fill="none" viewBox="0 0 24 24"><g clip-path="url(#a)"><path fill="#00ADED" d="M12 24c6.627 0 12-5.373 12-12S18.627 0 12 0 0 5.373 0 12s5.373 12 12 12Z"/><path fill="#fff" d="m8.001 17.357.002-.003 2.24-5.353-2.242-5.353 4.137 5.353-4.134 5.352-.003.004Zm8.278 0-.003-.004-4.134-5.352 4.137-5.353-2.243 5.353 2.241 5.353.002.003Z"/><path fill="#fff" fill-opacity=".8" d="M12.14 12.001v3.73L8 17.354l4.14-5.356v-3.73l4.14-1.623-4.14 5.356Z"/><path fill="#fff" fill-opacity=".5" d="M12.14 15.73V19L8 17.352l4.14-1.627v-3.724L8 6.645l4.14 1.624V5l4.14 1.647-4.14 1.627v3.725l4.14 5.356-4.14-1.624Z"/><path fill="#fff" fill-opacity=".145" d="M8 6.647 12.14 5v3.274L8 6.647Zm8.28 10.705L12.14 19v-3.275l4.14 1.627Z"/></g><defs><clipPath id="a"><path fill="#fff" d="M0 0h24v24H0z"/></clipPath></defs></svg>