<svg xmlns="http://www.w3.org/2000/svg" fill="none" viewBox="0 0 24 24"><g clip-path="url(#a)"><path fill="#00ADED" d="M12 24c6.627 0 12-5.373 12-12S18.627 0 12 0 0 5.373 0 12s5.373 12 12 12"/><path fill="#fff" d="m8.001 17.357.001-.003 2.241-5.353-2.242-5.353 4.136 5.353-4.133 5.352zm8.277 0-.003-.004-4.133-5.352 4.136-5.353-2.242 5.353 2.24 5.353z"/><path fill="#fff" fill-opacity=".8" d="M12.14 12.001v3.73L8 17.354zV8.27l4.14-1.624z"/><path fill="#fff" fill-opacity=".5" d="M12.14 15.73V19L8 17.352l4.14-1.627v-3.724L8 6.645l4.14 1.624V5l4.14 1.647-4.14 1.627v3.725l4.14 5.356z"/><path fill="#fff" fill-opacity=".145" d="M8 6.647 12.14 5v3.274zm8.28 10.705L12.14 19v-3.275z"/></g><defs><clipPath id="a"><path fill="#fff" d="M0 0h24v24H0z"/></clipPath></defs></svg>