<svg xmlns="http://www.w3.org/2000/svg" fill="none" viewBox="0 0 24 24"><g clip-path="url(#a)"><path fill="#396A28" d="M12 24c6.627 0 12-5.373 12-12S18.627 0 12 0 0 5.373 0 12s5.373 12 12 12Z"/><path fill="#fff" fill-rule="evenodd" d="M13.225 10.352 12 9.128l-1.233 1.233-1.279-1.279L12 5.5l2.53 3.548-1.305 1.304Zm-2.886.437L9.13 12l1.223 1.225-1.273 1.274L5.5 12l3.54-2.511 1.3 1.3Zm3.3 2.444L14.872 12l-1.22-1.22 1.316-1.315L18.5 12l-3.572 2.523-1.289-1.29Zm-2.859.42L12 14.872l1.211-1.211 1.29 1.29L12 18.5l-2.484-3.583 1.264-1.264ZM12 9.948 14.052 12 12 14.052 9.948 12 12 9.948Z" clip-rule="evenodd"/></g><defs><clipPath id="a"><path fill="#fff" d="M0 0h24v24H0z"/></clipPath></defs></svg>