<svg xmlns="http://www.w3.org/2000/svg" fill="none" viewBox="0 0 24 24"><path fill="#62757E" fill-rule="evenodd" d="M21.166 11.5a.834.834 0 0 1-.834-.833V6.969l-7.783 6.824a.834.834 0 0 1-1.099 0L3.667 6.97v9.53c0 .46.374.833.833.833H12A.833.833 0 0 1 12 19H4.5A2.503 2.503 0 0 1 2 16.5v-10C2 5.122 3.122 4 4.5 4h15C20.877 4 22 5.122 22 6.5v4.167c0 .46-.374.833-.834.833M4.709 5.667 12 12.058l7.29-6.391zm9.46 11.606a.8.8 0 0 1 .158-.293c.016-.018.022-.04.04-.058l3.903-3.905c.01-.01.022-.012.03-.021.01-.01.012-.021.02-.03a2.14 2.14 0 0 1 1.524-.633h.001a2.13 2.13 0 0 1 1.523.633c.407.406.632.947.632 1.525 0 .575-.226 1.115-.634 1.52-.008.008-.018.01-.027.018-.01.011-.012.024-.023.035l-3.902 3.904c-.022.023-.052.031-.076.05a.9.9 0 0 1-.293.151c-.023.007-.04.022-.062.026l-2.323.457a.833.833 0 0 1-.978-.98l.455-2.324c.006-.027.024-.049.032-.075m2.249 1.335 3.719-3.722c.009-.01.02-.012.03-.02.01-.012.014-.026.024-.036a.48.48 0 0 0-.001-.687.485.485 0 0 0-.687 0c-.01.01-.025.013-.035.022-.008.01-.011.022-.02.03l-3.725 3.727-.167.855z" clip-rule="evenodd"/></svg>