<svg xmlns="http://www.w3.org/2000/svg" fill="none" viewBox="0 0 24 24"><path fill="#62757E" fill-rule="evenodd" d="M19.336 22H4.477C3.112 22 2 20.879 2 19.5v-8.333c0-.007.002-.013.004-.02a.828.828 0 0 1 .09-.354.092.092 0 0 1 .007-.026c.018-.033.048-.054.07-.084l.018-.02c.029-.038.046-.08.081-.113l9.081-8.334a.821.821 0 0 1 1.11 0l8.979 8.24c.305.137.56.386.56.696v8.361C22 20.893 20.701 22 19.336 22ZM3.652 19.5c0 .46.37.834.825.834h14.86c.454 0 .994-.362.994-.82v-7.037L12.3 16.9a.822.822 0 0 1-.79 0l-7.86-4.33v6.93Zm8.254-15.54L4.24 10.996l7.666 4.221 7.667-4.221-7.667-7.036Z" clip-rule="evenodd"/></svg>