<svg xmlns="http://www.w3.org/2000/svg" fill="none" viewBox="0 0 24 24"><path fill="#62757E" fill-rule="evenodd" d="M21.167 14a.834.834 0 0 1-.834-.833V6.97l-7.784 6.823a.83.83 0 0 1-1.098 0L3.667 6.97v9.53c0 .46.374.833.833.833h9.167a.834.834 0 0 1 0 1.667H4.5A2.503 2.503 0 0 1 2 16.5v-10C2 5.122 3.122 4 4.5 4h15C20.878 4 22 5.122 22 6.5v6.667c0 .46-.373.833-.833.833M4.708 5.667 12 12.058l7.292-6.391zM18.667 14A3.337 3.337 0 0 1 22 17.333a3.337 3.337 0 0 1-3.333 3.334 3.337 3.337 0 0 1-3.334-3.334A3.337 3.337 0 0 1 18.667 14m0 1.667c-.149 0-.29.026-.426.062l2.03 2.03a1.7 1.7 0 0 0 .062-.426c0-.919-.747-1.666-1.666-1.666m0 3.333c.148 0 .29-.026.426-.062l-2.03-2.031a1.6 1.6 0 0 0-.063.426c0 .92.747 1.667 1.667 1.667" clip-rule="evenodd"/></svg>