<svg xmlns="http://www.w3.org/2000/svg" fill="none" viewBox="0 0 24 24"><path fill="#62757E" fill-rule="evenodd" d="M21.167 12.333a.833.833 0 0 1-.833-.833V6.97l-7.784 6.823a.833.833 0 0 1-1.1 0L3.667 6.97v9.53c0 .46.374.833.833.833h6.667a.833.833 0 0 1 0 1.667H4.5A2.503 2.503 0 0 1 2 16.5v-10C2 5.122 3.122 4 4.5 4h15C20.88 4 22 5.122 22 6.5v5c0 .46-.373.833-.833.833M4.708 5.667 12 12.058l7.291-6.391zm9.792 10h4.655l-1.077-1.078a.833.833 0 1 1 1.178-1.178l2.5 2.5.006.008a.826.826 0 0 1-.007 1.171l-2.499 2.5a.833.833 0 0 1-1.178-1.18l1.077-1.077H14.5a.833.833 0 0 1 0-1.666" clip-rule="evenodd"/></svg>