<svg xmlns="http://www.w3.org/2000/svg" fill="none" viewBox="0 0 24 24"><path fill="#62757E" fill-rule="evenodd" d="M21.166 11.5a.833.833 0 0 1-.833-.833V6.969l-7.784 6.824a.83.83 0 0 1-1.098 0L3.667 6.97v9.53c0 .46.374.833.833.833h6.666a.833.833 0 0 1 0 1.667H4.5A2.503 2.503 0 0 1 2 16.5v-10C2 5.122 3.122 4 4.5 4h15C20.878 4 22 5.122 22 6.5v4.167c0 .46-.374.833-.834.833M4.71 5.667 12 12.058l7.292-6.391zM17 12.333a3.337 3.337 0 0 1 3.334 3.334c0 .616-.18 1.187-.473 1.683l1.896 1.894a.833.833 0 1 1-1.179 1.178l-1.895-1.895A3.3 3.3 0 0 1 17 19a3.34 3.34 0 0 1-3.333-3.333A3.337 3.337 0 0 1 17 12.333m0 5c.46 0 .874-.185 1.176-.485l.002-.004.003-.002c.3-.301.487-.717.487-1.175 0-.92-.748-1.667-1.667-1.667a1.668 1.668 0 0 0 0 3.333" clip-rule="evenodd"/></svg>