<svg xmlns="http://www.w3.org/2000/svg" fill="none" viewBox="0 0 24 24"><path fill="#62757E" fill-rule="evenodd" d="M21.167 11.5a.834.834 0 0 1-.834-.833V6.97l-7.784 6.823A.83.83 0 0 1 12 14a.83.83 0 0 1-.55-.207L3.668 6.97v9.53c0 .46.374.833.833.833h8.333a.834.834 0 0 1 0 1.667H4.5A2.503 2.503 0 0 1 2 16.5v-10C2 5.122 3.122 4 4.5 4h15C20.878 4 22 5.122 22 6.5v4.167c0 .46-.373.833-.833.833M4.708 5.667 12 12.058l7.292-6.391zm11.459 10c.46 0 .833.373.833.833 0 .92.747 1.667 1.667 1.667.919 0 1.666-.748 1.666-1.667 0-.78-.541-1.433-1.267-1.613l.19.19a.832.832 0 1 1-1.178 1.179l-1.667-1.667a.833.833 0 0 1 0-1.178l1.666-1.667a.832.832 0 1 1 1.179 1.178l-.278.278c1.698.167 3.022 1.574 3.022 3.3a3.337 3.337 0 0 1-3.333 3.333 3.337 3.337 0 0 1-3.334-3.333c0-.46.374-.833.834-.833" clip-rule="evenodd"/></svg>