<svg xmlns="http://www.w3.org/2000/svg" fill="none" viewBox="0 0 24 24"><path fill="#62757E" fill-rule="evenodd" d="M19.327 22H4.475C3.11 22 2 20.878 2 19.5v-8.333l.003-.02a.8.8 0 0 1 .09-.353l.008-.027c.017-.033.048-.054.07-.084l.017-.02c.028-.037.046-.08.081-.113l2.703-2.482a.82.82 0 0 1 1.166.056.84.84 0 0 1-.056 1.177l-1.844 1.695 7.664 4.221 7.663-4.221-1.83-1.68a.84.84 0 0 1-.054-1.178.82.82 0 0 1 1.165-.056l2.59 2.38c.306.141.564.396.564.705V19.5c0 1.378-1.308 2.5-2.673 2.5m1.005-9.528-8.036 4.426a.82.82 0 0 1-.79 0L3.65 12.571V19.5c0 .46.37.833.825.833h14.852c.455 0 1.005-.374 1.005-.833zm-6.533-2.16c-.488-.195-.827-.553-.98-.994a2.4 2.4 0 0 1-.918.182c-1.365 0-2.475-1.122-2.475-2.5s1.11-2.5 2.476-2.5c.749 0 1.413.345 1.867.878a.82.82 0 0 1 .607.789v2.62c.059.025.37.035.456-.04.39-.417.376-.994.365-1.504L15.194 7c0-1.838-1.479-3.333-3.296-3.333-1.818 0-3.297 1.495-3.297 3.333s1.479 3.333 3.297 3.333a.83.83 0 0 1 .825.834.83.83 0 0 1-.825.833C9.17 12 6.951 9.758 6.951 7s2.22-5 4.947-5 4.946 2.242 4.946 5l.003.206c.015.661.04 1.769-.816 2.686-.517.554-1.454.73-2.232.42m-1.897-4.145a.83.83 0 0 0-.826.833c0 .46.37.833.826.833A.83.83 0 0 0 12.727 7a.83.83 0 0 0-.825-.833" clip-rule="evenodd"/></svg>