<svg xmlns="http://www.w3.org/2000/svg" fill="none" viewBox="0 0 24 24"><path fill="#62757E" fill-rule="evenodd" d="m21.989 7.21-1.114 9.102c-.12 1.128-1.093 2.021-2.213 2.021H7.834A.833.833 0 0 1 7 17.501c0-.46.39-.758.85-.758h10.857c.262 0 .482-.335.512-.62l1.01-8.254-6.842 6.087a.83.83 0 0 1-1.176-.07L5.543 6.388c-.029-.032-.04-.072-.062-.107-.033-.05-.068-.096-.089-.153s-.026-.115-.035-.174c-.006-.041-.025-.077-.025-.12 0-.009.005-.015.005-.024.002-.062.021-.119.036-.178.013-.047.016-.095.036-.138s.053-.078.08-.118c.034-.05.064-.103.108-.145q.009-.01.015-.02c.032-.028.072-.039.106-.062.05-.032.097-.067.154-.088.057-.022.115-.027.175-.037.04-.005.077-.023.119-.023H19.91c.6 0 1.177.258 1.582.709.379.42.555.954.496 1.5M8.022 6.666l4.88 5.49 6.171-5.49zM7.834 10c0 .46-.374.834-.834.834H4.5a.834.834 0 0 1 0-1.668H7c.46 0 .834.373.834.834m.833 2.5c0 .46-.373.833-.833.833h-5a.834.834 0 0 1 0-1.667h5c.46 0 .833.373.833.834m-3.334 1.667h4.168a.832.832 0 1 1 0 1.666H5.333a.833.833 0 0 1 0-1.666" clip-rule="evenodd"/></svg>