<svg xmlns="http://www.w3.org/2000/svg" fill="none" viewBox="0 0 24 24"><path fill="#62757E" fill-rule="evenodd" d="M21.167 13.168a.834.834 0 0 1-.834-.835V6.97l-7.783 6.823a.83.83 0 0 1-1.1 0L3.668 6.97v9.53c0 .46.374.834.833.834h8.334a.833.833 0 1 1 0 1.667H4.5A2.503 2.503 0 0 1 2 16.5v-10C2 5.122 3.122 4 4.5 4h15C20.88 4 22 5.122 22 6.5v5.833a.834.834 0 0 1-.833.835M12 12.059l7.292-6.392H4.709zm3.965 3.898 1.527 1.775 3.05-3.45a.834.834 0 0 1 1.249 1.104l-3.683 4.166a.83.83 0 0 1-.625.281h-.005a.83.83 0 0 1-.626-.29l-2.15-2.5a.833.833 0 1 1 1.263-1.086" clip-rule="evenodd"/></svg>