<svg xmlns="http://www.w3.org/2000/svg" fill="none" viewBox="0 0 24 24"><path fill="#62757E" fill-rule="evenodd" d="M21.167 15a.834.834 0 0 1-.834-.833V7.97l-7.784 6.823A.83.83 0 0 1 12 15a.83.83 0 0 1-.55-.207L3.668 7.97v9.53c0 .46.374.833.833.833h8.333a.834.834 0 0 1 0 1.667H4.5A2.503 2.503 0 0 1 2 17.5v-10C2 6.122 3.122 5 4.5 5h15C20.878 5 22 6.122 22 7.5v6.667c0 .46-.373.833-.833.833M4.708 6.667 12 13.058l7.292-6.391zm11.459 10h5a.834.834 0 0 1 0 1.666h-5a.834.834 0 0 1 0-1.666" clip-rule="evenodd"/></svg>