<svg xmlns="http://www.w3.org/2000/svg" fill="none" viewBox="0 0 24 24"><path fill="#62757E" fill-rule="evenodd" d="M19.334 22H4.477C3.11 22 2 20.879 2 19.5v-8.334q0-.009.004-.019a.84.84 0 0 1 .089-.354q.002-.012.008-.025c.018-.035.05-.056.07-.086l.017-.019c.029-.038.046-.08.082-.113l2.88-2.645c.046-.041.101-.061.152-.09V5.332c0-.46.37-.833.825-.833h2.735l2.488-2.283a.82.82 0 0 1 1.11 0L14.949 4.5h2.735a.83.83 0 0 1 .825.833v2.434l2.93 2.69c.305.136.562.385.562.695v8.361C22 20.893 20.7 22 19.334 22M4.239 10.995l1.063.586v-1.562zm7.666-7.035-.588.54h1.177zM9.257 6.135c-.017.002-.035.01-.052.01s-.031-.009-.047-.01H6.98l-.026 6.356 4.95 2.726 5.09-2.802v-6.28zm9.25 3.885v1.561l1.064-.585zm1.824 2.456-8.03 4.422a.82.82 0 0 1-.792 0L3.651 12.57v6.93c0 .459.37.833.826.833h14.857c.455 0 .997-.36.997-.82z" clip-rule="evenodd"/></svg>