<svg xmlns="http://www.w3.org/2000/svg" fill="none" viewBox="0 0 24 24"><path fill="#62757E" fill-rule="evenodd" d="M21.167 14a.834.834 0 0 1-.834-.833V6.969l-7.784 6.824a.83.83 0 0 1-1.098 0L3.667 6.97v9.53c0 .46.374.833.833.833h6.667a.834.834 0 0 1 0 1.667H4.5A2.503 2.503 0 0 1 2 16.5v-10C2 5.122 3.122 4 4.5 4h15C20.878 4 22 5.122 22 6.5v6.667c0 .46-.373.833-.833.833M4.709 5.667 12 12.058l7.29-6.391zm9.022 10.515a.8.8 0 0 1 .18-.272l2.5-2.5a.833.833 0 1 1 1.178 1.18l-1.077 1.077h1.323c2.22 0 4.165 1.947 4.165 4.166a.834.834 0 0 1-1.667 0c0-1.43-1.32-2.5-2.5-2.5h-1.321l1.077 1.078a.833.833 0 1 1-1.178 1.178l-2.5-2.499a.83.83 0 0 1-.244-.588V16.5c0-.108.022-.217.064-.318" clip-rule="evenodd"/></svg>