<svg xmlns="http://www.w3.org/2000/svg" fill="none" viewBox="0 0 24 24"><path fill="#62757E" fill-rule="evenodd" d="M21.167 14.833a.834.834 0 0 1-.834-.833V6.97l-7.784 6.823A.83.83 0 0 1 12 14a.83.83 0 0 1-.55-.207L3.668 6.97v9.53c0 .46.374.833.833.833H12A.834.834 0 0 1 12 19H4.5A2.503 2.503 0 0 1 2 16.5v-10C2 5.122 3.122 4 4.5 4h15C20.878 4 22 5.122 22 6.5V14c0 .46-.373.833-.833.833M4.708 5.667 12 12.058l7.292-6.391zm11.215 11.077L17 17.822V14a.834.834 0 0 1 1.667 0v3.822l1.077-1.078a.832.832 0 1 1 1.178 1.178l-2.5 2.5a.83.83 0 0 1-1.179 0l-2.499-2.5a.832.832 0 1 1 1.178-1.178" clip-rule="evenodd"/></svg>