<svg xmlns="http://www.w3.org/2000/svg" fill="none" viewBox="0 0 24 24"><path fill="#62757E" fill-rule="evenodd" d="M21.167 13.167a.834.834 0 0 1-.834-.834V6.97l-7.784 6.823A.83.83 0 0 1 12 14a.83.83 0 0 1-.55-.207L3.668 6.97v9.53c0 .46.374.833.833.833h8.333a.834.834 0 0 1 0 1.667H4.5A2.503 2.503 0 0 1 2 16.5v-10C2 5.122 3.122 4 4.5 4h15C20.878 4 22 5.122 22 6.5v5.833c0 .46-.373.834-.833.834m-16.459-7.5L12 12.058l7.292-6.391zM16.167 16.5h1.666v-1.667a.834.834 0 0 1 1.667 0V16.5h1.667a.834.834 0 0 1 0 1.667H19.5v1.666a.834.834 0 0 1-1.667 0v-1.666h-1.666a.834.834 0 0 1 0-1.667" clip-rule="evenodd"/></svg>