<svg xmlns="http://www.w3.org/2000/svg" fill="none" viewBox="0 0 24 24"><path fill="#62757E" fill-rule="evenodd" d="M21.167 11.5c-.46 0-.75-.373-.75-.833v-3.77l-7.868 6.896a.83.83 0 0 1-1.098 0L3.667 6.97v9.53c0 .46.374.833.833.833H12A.834.834 0 0 1 12 19H4.5A2.503 2.503 0 0 1 2 16.5v-10C2 5.122 3.122 4 4.5 4h15C20.88 4 22 5.122 22 6.5v4.167c0 .46-.373.833-.834.833M4.708 5.667 12 12.058l7.291-6.391zm10.87 8.577a.833.833 0 0 1 1.178 0l1.91 1.911 1.912-1.91a.83.83 0 0 1 1.177 0 .83.83 0 0 1 0 1.178l-1.91 1.91 1.91 1.911a.832.832 0 0 1-.588 1.423.83.83 0 0 1-.59-.245l-1.91-1.91-1.911 1.91a.83.83 0 0 1-1.179 0 .833.833 0 0 1 0-1.178l1.912-1.91-1.912-1.912a.833.833 0 0 1 0-1.178" clip-rule="evenodd"/></svg>