<svg xmlns="http://www.w3.org/2000/svg" fill="none" viewBox="0 0 24 24"><g clip-path="url(#a)"><path fill="#0CF" d="M12 24c6.627 0 12-5.373 12-12S18.627 0 12 0 0 5.373 0 12s5.373 12 12 12"/><path fill="#fff" fill-opacity=".4" d="M6.326 14.113h3.078L8.079 16.8H5zm1.753-3.556h3.079l-1.321 2.68h-3.08l1.323-2.681M9.834 7h3.078L11.59 9.68H8.512z"/><path fill="#fff" fill-opacity=".6" d="M9.394 14.112h3.079l-1.326 2.687H8.068zm1.754-3.556h3.078l-1.321 2.68H9.826zM12.902 7h3.079l-1.323 2.68H11.58z"/><path fill="#fff" d="M12.413 14.112h3.079l-1.326 2.687h-3.078zm1.754-3.556h3.079l-1.322 2.68h-3.078zM15.921 7H19l-1.322 2.68H14.6z"/></g><defs><clipPath id="a"><path fill="#fff" d="M0 0h24v24H0z"/></clipPath></defs></svg>