<svg xmlns="http://www.w3.org/2000/svg" fill="none" viewBox="0 0 24 24"><path fill="#62757E" fill-rule="evenodd" d="M20.263 3.924a.19.19 0 0 0-.193-.185C11.514 3.724 7.365 5.816 5.533 8.52c-1.848 2.725-1.563 6.387-.457 10.062.013.042.06.095.124.114 3.626 1.032 6.31.983 8.304.317 1.98-.661 3.368-1.962 4.356-3.615 2.015-3.37 2.317-8.105 2.403-11.473m-.19-1.785a1.79 1.79 0 0 1 1.79 1.826c-.086 3.33-.372 8.476-2.63 12.253-1.147 1.92-2.815 3.508-5.222 4.312-2.364.79-5.353.793-9.119-.26l-1.416 1.417a.852.852 0 1 1-1.205-1.205l1.316-1.316a2 2 0 0 1-.043-.124c-1.136-3.776-1.61-8.065.664-11.42 2.29-3.379 7.143-5.498 15.865-5.483m-6.52 5.669a.8.8 0 0 0-1.284-.956l-3.414 4.586a.8.8 0 0 0 .642 1.277h2.656l-1.301 3.344a.8.8 0 0 0 1.356.849l2.858-4.568a.8.8 0 0 0-.678-1.225h-2.739z" clip-rule="evenodd"/></svg>