<svg xmlns="http://www.w3.org/2000/svg" fill="none" viewBox="0 0 24 24"><g clip-path="url(#a)"><path fill="#2F2F2F" d="M12 24c6.627 0 12-5.373 12-12S18.627 0 12 0 0 5.373 0 12s5.373 12 12 12"/><path fill="#fff" fill-rule="evenodd" d="M17.822 8.37c.072.038.239.128.223.325l-.01 6.629a.3.3 0 0 1-.18.3l-1.464.855-1.158.675-3.083 1.8a.22.22 0 0 1-.136.046.33.33 0 0 1-.174-.056l-2.127-1.227-3.607-2.079c-.1-.049-.16-.163-.151-.293l.004-1.75c.004-1.577.007-3.177.008-4.725v-.058c-.002-.085-.006-.262.16-.341l2.032-1.208 1.105-.656L11.79 5.11l.007-.004q.08-.047.17-.08L12.031 5l.06.036c.603.349 1.215.705 1.806 1.05l1.105.643 1.078.627 1.698.988.002.001zm-5.58 9.971 1.884-1.1 3.429-2 .006-3.723.003-2.46-2.45 1.434v1.13q-.004 1.057.004 2.116v.048l-.029.04a.4.4 0 0 1-.117.101l-.016.01-.793.462c-.286.166-.582.337-.871.507l-1.047.608zm-2.67-7.99 1.606.922.83.476 2.403-1.405-2.407-1.42zm-.249.414.045 2.794 2.398 1.396.004-2.786zm-2.876-1.65-.012 6.156 5.329 3.074.002-2.832-1.044-.608-.654-.381-1.023-.596c-.098-.046-.16-.16-.153-.284L8.84 10.49zm10.878-.475-.935-.545-1.032-.601c-.983-.57-2.148-1.247-3.35-1.951q-1.826 1.08-3.65 2.162l-1.671.99 2.404 1.378 2.758-1.62a.285.285 0 0 1 .318.007l2.721 1.604zm-5.08 6.317q1.206-.702 2.414-1.402v-2.796l-2.412 1.409zm3.263-.505a.3.3 0 0 1-.074.011.25.25 0 0 1-.182-.074.3.3 0 0 1-.092-.28.285.285 0 0 1 .277-.24c.079 0 .155.036.21.097l.001.002a.3.3 0 0 1 .05.32.27.27 0 0 1-.19.165m1.314.896a.29.29 0 0 1-.11-.246.3.3 0 0 1 .141-.242.26.26 0 0 1 .14-.042q.084 0 .156.049a.29.29 0 0 1 .128.29.29.29 0 0 1-.286.256.26.26 0 0 1-.17-.065m-8.393-1.476c.08 0 .155.037.208.1a.29.29 0 0 1 .049.315.28.28 0 0 1-.265.174.29.29 0 0 1-.272-.353.29.29 0 0 1 .28-.236m7.608 1.003a.3.3 0 0 1-.103-.282.29.29 0 0 1 .28-.248c.07 0 .137.028.19.078a.29.29 0 0 1 .088.285.28.28 0 0 1-.18.212.27.27 0 0 1-.275-.045m-8.212-.46c.084.07.124.181.102.285a.28.28 0 0 1-.162.212.27.27 0 0 1-.262-.014.3.3 0 0 1-.138-.284.28.28 0 0 1 .183-.249.3.3 0 0 1 .1-.02q.096 0 .177.07m4.142-8.672c.083 0 .161.035.217.098a.28.28 0 0 1 .068.267.28.28 0 0 1-.233.215h-.003a.294.294 0 0 1-.349-.267.3.3 0 0 1 .029-.143v-.001a.29.29 0 0 1 .224-.165zm-4.963 9.114a.28.28 0 0 1 .148.248.29.29 0 0 1-.134.26.3.3 0 0 1-.156.047.25.25 0 0 1-.13-.034.29.29 0 0 1-.15-.26c0-.11.057-.21.147-.26a.27.27 0 0 1 .275 0m5.117-7.181a.29.29 0 0 1 .136.267.28.28 0 0 1-.173.241.3.3 0 0 1-.127.028.3.3 0 0 1-.18-.06.28.28 0 0 1-.113-.255.28.28 0 0 1 .148-.231.3.3 0 0 1 .144-.038q.09 0 .165.048m-.363-.482a.28.28 0 0 1-.094-.238v-.002a.3.3 0 0 1 .14-.224.27.27 0 0 1 .154-.047q.078.001.149.038v.001a.28.28 0 0 1 .15.26.29.29 0 0 1-.175.261.3.3 0 0 1-.127.028.28.28 0 0 1-.197-.077" clip-rule="evenodd"/></g><defs><clipPath id="a"><path fill="#fff" d="M0 0h24v24H0z"/></clipPath></defs></svg>