<svg xmlns="http://www.w3.org/2000/svg" fill="none" viewBox="0 0 24 24"><g clip-path="url(#a)"><path fill="#2F2F2F" d="M12 24c6.627 0 12-5.373 12-12S18.627 0 12 0 0 5.373 0 12s5.373 12 12 12Z"/><path fill="#fff" fill-rule="evenodd" d="M17.822 8.37c.072.038.239.128.223.325l-.01 6.629a.304.304 0 0 1-.18.3l-1.464.855-1.158.675-3.083 1.8a.223.223 0 0 1-.136.046.33.33 0 0 1-.174-.056l-2.127-1.227-3.607-2.079c-.1-.049-.16-.163-.151-.293l.004-1.75c.004-1.577.007-3.177.008-4.725v-.006a.25.25 0 0 0 0-.032v-.02c-.002-.085-.006-.262.16-.341a763.18 763.18 0 0 1 2.032-1.208l1.105-.656L11.79 5.11l.007-.004c.054-.031.11-.058.17-.08L12.031 5l.06.036c.603.349 1.215.705 1.806 1.05l1.105.643 1.078.627 1.698.988.002.001.04.025Zm-5.58 9.971 1.884-1.1a5285.88 5285.88 0 0 0 3.429-2l.006-3.723.003-2.46-2.45 1.434v1.13c-.003.705-.001 1.41.004 2.116v.048l-.029.04a.363.363 0 0 1-.117.101l-.016.01-.793.462c-.286.166-.582.337-.871.507l-1.047.608-.003 2.827Zm-2.67-7.99 1.606.922.83.476 2.403-1.405-2.407-1.42-2.433 1.428Zm-.249.414.045 2.793 2.398 1.397.004-2.786-2.447-1.404Zm-2.876-1.65-.012 6.156 5.329 3.074.002-2.832-1.044-.608-.654-.381-1.023-.596c-.098-.046-.16-.16-.153-.284L8.84 10.49 6.447 9.115Zm10.878-.475-.935-.545-1.032-.601c-.983-.57-2.148-1.247-3.35-1.951-1.217.72-2.434 1.44-3.65 2.162l-1.671.99 2.404 1.378 2.758-1.62a.285.285 0 0 1 .318.007l2.721 1.604 2.437-1.424Zm-5.08 6.317c.804-.468 1.609-.936 2.414-1.402v-2.796l-2.412 1.409-.002 2.79Zm3.263-.505a.25.25 0 0 1-.074.011.25.25 0 0 1-.182-.074.295.295 0 0 1-.092-.28.285.285 0 0 1 .277-.24c.079 0 .155.036.21.097l.001.002a.3.3 0 0 1 .05.32.27.27 0 0 1-.19.165Zm1.314.896a.286.286 0 0 1-.11-.246.297.297 0 0 1 .141-.242.258.258 0 0 1 .14-.042.293.293 0 0 1 .284.34.29.29 0 0 1-.286.255.259.259 0 0 1-.17-.065Zm-8.393-1.476c.08 0 .155.037.208.1a.293.293 0 0 1 .049.315.281.281 0 0 1-.265.174.291.291 0 0 1-.272-.353.291.291 0 0 1 .28-.236Zm7.608 1.003a.299.299 0 0 1-.103-.282.293.293 0 0 1 .28-.248c.07 0 .137.028.19.078a.29.29 0 0 1 .088.285.279.279 0 0 1-.18.212.274.274 0 0 1-.275-.045Zm-8.212-.46c.084.07.124.181.102.285a.278.278 0 0 1-.162.212.271.271 0 0 1-.262-.014.297.297 0 0 1-.138-.284.285.285 0 0 1 .183-.249.25.25 0 0 1 .1-.02c.063 0 .124.024.177.07Zm4.142-8.672c.083 0 .161.035.217.098a.281.281 0 0 1 .068.267.279.279 0 0 1-.233.215h-.003a.294.294 0 0 1-.349-.267.287.287 0 0 1 .029-.143v-.001a.29.29 0 0 1 .224-.165.268.268 0 0 1 .048-.004Zm-4.963 9.114a.284.284 0 0 1 .148.248.289.289 0 0 1-.134.26.289.289 0 0 1-.156.047.254.254 0 0 1-.13-.034.292.292 0 0 1-.15-.26c0-.11.057-.21.147-.26a.265.265 0 0 1 .275 0Zm5.117-7.181a.292.292 0 0 1 .136.267.281.281 0 0 1-.173.241.31.31 0 0 1-.127.028.287.287 0 0 1-.18-.06.283.283 0 0 1-.113-.255.28.28 0 0 1 .148-.231.286.286 0 0 1 .144-.038.3.3 0 0 1 .165.048Zm-.363-.482a.28.28 0 0 1-.094-.238v-.002a.295.295 0 0 1 .14-.224.274.274 0 0 1 .154-.047.33.33 0 0 1 .149.038v.001a.285.285 0 0 1 .15.26.286.286 0 0 1-.175.261.31.31 0 0 1-.127.028.281.281 0 0 1-.197-.077Z" clip-rule="evenodd"/></g><defs><clipPath id="a"><path fill="#fff" d="M0 0h24v24H0z"/></clipPath></defs></svg>