<svg xmlns="http://www.w3.org/2000/svg" fill="none" viewBox="0 0 24 24"><g clip-path="url(#a)"><path fill="#624DBF" d="M12 24c6.627 0 12-5.373 12-12S18.627 0 12 0 0 5.373 0 12s5.373 12 12 12Z"/><path fill="#fff" d="M16.209 7.333c.329.038.662.059.988.118.644.122.855.428.745 1.05-.044.252-.206.408-.465.45-.154.021-.31.032-.465.033-2.116.005-4.235.009-6.35.017a5.9 5.9 0 0 0-.949.08c-1.049.164-1.444.58-1.532 1.592-.04.476-.04.476.457.476h8.685a.749.749 0 0 1 .382.1c.387.236.29.605.268.945-.017.274-.188.424-.482.48a2.221 2.221 0 0 1-.374.024h-8.66c-.32 0-.315 0-.289.303.022.277.04.55.11.82.131.5.452.81.97.949.575.155 1.167.19 1.76.193 2.067.013 4.13.009 6.197.009.264 0 .509.033.663.264.299.446.066 1.067-.457 1.227-.447.139-.917.172-1.383.177-1.94.033-3.88.038-5.82 0a10.608 10.608 0 0 1-1.78-.198c-1.383-.273-2.073-.945-2.305-2.273-.053-.306-.084-.617-.123-.925V10.82c.027-.24.048-.478.08-.713.183-1.505.886-2.244 2.43-2.572.55-.118 1.11-.143 1.664-.198 2.006-.004 4.02-.004 6.035-.004Z"/></g><defs><clipPath id="a"><path fill="#fff" d="M0 0h24v24H0z"/></clipPath></defs></svg>