<svg xmlns="http://www.w3.org/2000/svg" fill="none" viewBox="0 0 24 24"><path fill="url(#a)" d="M5.293 10.091c.197.423.686 1.258.686 1.258L11.635 2l-5.52 3.854c-.329.22-.598.517-.785.865a4 4 0 0 0-.037 3.372"/><path fill="#A0A8D4" d="M3.052 13.17a6.3 6.3 0 0 0 2.47 4.573L11.627 22s-3.82-5.505-7.041-10.982a5.5 5.5 0 0 1-.647-1.868 3 3 0 0 1 0-.897 35 35 0 0 0-.247.475 7.3 7.3 0 0 0-.66 2.112q-.096 1.166.02 2.33"/><path fill="url(#b)" d="M18.627 13.909c-.198-.423-.687-1.258-.687-1.258L12.285 22l5.52-3.852a2.4 2.4 0 0 0 .785-.864 4 4 0 0 0 .037-3.375"/><path fill="#A0A8D4" d="M20.868 10.83a6.3 6.3 0 0 0-2.471-4.573L12.292 2s3.817 5.505 7.041 10.982a5.5 5.5 0 0 1 .645 1.868c.045.297.045.6 0 .897.084-.156.247-.475.247-.475a7.2 7.2 0 0 0 .66-2.112q.097-1.166-.017-2.33"/><path fill="url(#c)" d="M5.33 6.719c.187-.348.456-.645.785-.865L11.635 2l-5.656 9.352s-.494-.836-.686-1.258a4 4 0 0 1 .037-3.375m-2.278 6.45a6.3 6.3 0 0 0 2.47 4.574L11.627 22s-3.82-5.505-7.041-10.982a5.5 5.5 0 0 1-.647-1.868 3 3 0 0 1 0-.897 35 35 0 0 0-.247.475 7.3 7.3 0 0 0-.66 2.112q-.096 1.166.02 2.33m15.565.742c-.198-.422-.687-1.258-.687-1.258L12.285 22l5.52-3.852c.328-.22.598-.516.785-.864a4 4 0 0 0 .037-3.375zm2.24-3.078a6.3 6.3 0 0 0-2.47-4.574L12.292 2s3.817 5.505 7.041 10.982a5.5 5.5 0 0 1 .645 1.868c.045.297.045.6 0 .897.084-.156.247-.475.247-.475a7.3 7.3 0 0 0 .66-2.112q.097-1.166-.017-2.33z" style="mix-blend-mode:color"/><defs><linearGradient id="a" x1="11.882" x2="4.623" y1="2.23" y2="10.099" gradientUnits="userSpaceOnUse"><stop offset=".58" stop-color="#A0A8D4"/><stop offset=".73" stop-color="#8791C7"/><stop offset=".91" stop-color="#6470B4"/></linearGradient><linearGradient id="b" x1="297.388" x2="564.438" y1="776.089" y2="568.771" gradientUnits="userSpaceOnUse"><stop offset=".58" stop-color="#A0A8D4"/><stop offset=".73" stop-color="#8791C7"/><stop offset=".91" stop-color="#6470B4"/></linearGradient><linearGradient id="c" x1="11.959" x2="11.959" y1="1.901" y2="22.062" gradientUnits="userSpaceOnUse"><stop stop-color="#513EFF"/><stop offset=".18" stop-color="#5157FF"/><stop offset=".57" stop-color="#5298FF"/><stop offset="1" stop-color="#52E5FF"/></linearGradient></defs></svg>