<svg xmlns="http://www.w3.org/2000/svg" fill="none" viewBox="0 0 24 24"><path fill="url(#a)" d="M5.293 10.091c.197.423.687 1.258.687 1.258L11.635 2l-5.52 3.854c-.328.22-.598.517-.785.865a4 4 0 0 0-.037 3.372Z"/><path fill="#A0A8D4" d="M3.052 13.17a6.293 6.293 0 0 0 2.47 4.573L11.628 22s-3.82-5.505-7.04-10.982A5.53 5.53 0 0 1 3.94 9.15a2.99 2.99 0 0 1 0-.897 35.09 35.09 0 0 0-.247.475 7.251 7.251 0 0 0-.66 2.112c-.063.776-.057 1.555.02 2.33Z"/><path fill="url(#b)" d="M18.627 13.909c-.198-.423-.687-1.258-.687-1.258L12.285 22l5.52-3.852c.328-.22.598-.516.785-.864a4 4 0 0 0 .037-3.375Z"/><path fill="#A0A8D4" d="M20.868 10.83a6.292 6.292 0 0 0-2.47-4.573L12.291 2s3.817 5.505 7.042 10.982a5.53 5.53 0 0 1 .644 1.868c.045.297.045.6 0 .897.084-.156.247-.475.247-.475a7.25 7.25 0 0 0 .66-2.112c.064-.776.059-1.555-.017-2.33Z"/><path fill="url(#c)" d="M5.33 6.719c.187-.348.457-.645.785-.865L11.636 2 5.98 11.351s-.495-.835-.687-1.257a4 4 0 0 1 .037-3.375Zm-2.278 6.45a6.293 6.293 0 0 0 2.47 4.574L11.628 22s-3.82-5.505-7.04-10.982A5.532 5.532 0 0 1 3.94 9.15a2.99 2.99 0 0 1 0-.897 35.09 35.09 0 0 0-.247.475 7.252 7.252 0 0 0-.66 2.112c-.063.776-.057 1.555.02 2.33Zm15.565.742c-.198-.422-.687-1.258-.687-1.258L12.285 22l5.52-3.852c.328-.22.598-.516.785-.864a4 4 0 0 0 .037-3.375l-.01.002Zm2.24-3.078a6.292 6.292 0 0 0-2.47-4.574L12.292 2s3.817 5.505 7.042 10.982c.325.579.543 1.212.644 1.868.045.297.045.6 0 .897.084-.156.247-.475.247-.475a7.25 7.25 0 0 0 .66-2.112c.064-.776.059-1.555-.017-2.33l-.01.003Z" style="mix-blend-mode:color"/><defs><linearGradient id="a" x1="11.882" x2="4.623" y1="2.23" y2="10.099" gradientUnits="userSpaceOnUse"><stop offset=".58" stop-color="#A0A8D4"/><stop offset=".73" stop-color="#8791C7"/><stop offset=".91" stop-color="#6470B4"/></linearGradient><linearGradient id="b" x1="297.388" x2="564.438" y1="776.089" y2="568.771" gradientUnits="userSpaceOnUse"><stop offset=".58" stop-color="#A0A8D4"/><stop offset=".73" stop-color="#8791C7"/><stop offset=".91" stop-color="#6470B4"/></linearGradient><linearGradient id="c" x1="11.959" x2="11.959" y1="1.901" y2="22.062" gradientUnits="userSpaceOnUse"><stop stop-color="#513EFF"/><stop offset=".18" stop-color="#5157FF"/><stop offset=".57" stop-color="#5298FF"/><stop offset="1" stop-color="#52E5FF"/></linearGradient></defs></svg>