<svg xmlns="http://www.w3.org/2000/svg" fill="none" viewBox="0 0 24 24"><g clip-path="url(#a)"><path fill="#443F54" d="M12 24c6.627 0 12-5.373 12-12S18.627 0 12 0 0 5.373 0 12s5.373 12 12 12"/><path fill="#FEFFFE" d="m11.68 17.927-2.492-1.516c-.337-.202-.707-.404-1.044-.64-.135-.1-.135-.202-.135-.269.337-1.583.707-3.3 1.078-4.85l-.236-.74s-.808 3.872-1.212 5.59c-.068.235 0 .37.235.505 1.313.774 3.974 2.458 3.974 2.458zm.64 0 2.492-1.516c.337-.202.707-.404 1.044-.64.135-.1.135-.202.135-.269a207 207 0 0 0-1.078-4.85l.27-.707s.808 3.84 1.178 5.557c.068.235 0 .37-.235.505-1.314.774-3.975 2.458-3.975 2.458zm2.56-7.948-.135-.203H9.289l-.135.203s.101.27.067.168h5.625c-.068.067.034-.168.034-.168" opacity=".7"/><path fill="#FEFFFE" d="M15.048 9.675s-1.852-2.693-2.66-3.872c-.17-.202-.27-.303-.371-.303s-.236.101-.37.303a387 387 0 0 0-2.661 3.873c-.169.236-.169.303-.034.606 0 0 1.313 3.638 1.853 5.254.269.741.976 2.863.976 2.863.034.067.168.101.236.101a.36.36 0 0 0 .235-.101s.742-2.122.977-2.863a566 566 0 0 1 1.853-5.253c.134-.304.134-.37-.034-.607m-3.031 7.612q-1.287-3.669-2.56-7.342s1.819-2.66 2.526-3.705c.707 1.045 2.526 3.705 2.526 3.705s-1.718 5.051-2.492 7.342"/></g><defs><clipPath id="a"><path fill="#fff" d="M0 0h24v24H0z"/></clipPath></defs></svg>