<svg xmlns="http://www.w3.org/2000/svg" fill="none" viewBox="0 0 24 24"><g clip-path="url(#a)"><path fill="#000" d="M12 24c6.627 0 12-5.373 12-12S18.627 0 12 0 0 5.373 0 12s5.373 12 12 12Z"/><path fill="#fff" fill-rule="evenodd" d="M11.997 5.5c.074 0 .145.034.19.095l2.78 3.798a.22.22 0 0 1 .041.094l1.346 6.144a.174.174 0 0 1 .004.026.232.232 0 0 1-.108.221l-4.127 2.587a.232.232 0 0 1-.126.035.232.232 0 0 1-.125-.035l-4.127-2.586-.006-.004m.936.039 2.907 1.821-.58-1.821H8.675Zm2.814 0 .508 1.595.508-1.595H11.49Zm1.164-.464h-1.312l-1.106-3.475 1.762-3.11 1.763 3.11-1.107 3.475Zm.34.464-.58 1.821 2.907-1.821h-2.328Zm2.736-.464H13.14l.932-2.925 1.657 2.925Zm-.157-1.219-.833-3.803-.476 1.494 1.31 2.31Zm-1.62-2.86.572-1.796-2.293-3.133v1.895l1.72 3.035ZM11.997 5.5a.232.232 0 0 0-.189.095l-2.78 3.798a.233.233 0 0 0-.042.094L7.64 15.631v.001m1.614-5.204-.833 3.804 1.309-2.31-.476-1.494Zm.788.944 1.72-3.035V6.442L9.47 9.575l.573 1.797Zm-.12 1.153.931 2.925H8.266l1.657-2.925Z" clip-rule="evenodd"/></g><defs><clipPath id="a"><path fill="#fff" d="M0 0h24v24H0z"/></clipPath></defs></svg>