<svg xmlns="http://www.w3.org/2000/svg" fill="none" viewBox="0 0 24 24"><g clip-path="url(#a)"><path fill="#EB0000" d="M12.642 0c5.715 0 10.143 4.428 10.43 10.428v.144l-12.716 3.57c.287 1.429 1 2.858 2.144 3.715 1 .713 2.143 1.142 3.286 1.142 3.702 0 6.27-3.265 6.284-3.284l.574.142V16c-.429 1.857-3.001 8-10.431 8-2.856 0-5.285-.857-7-2.429C2.5 19.286.93 15.857.93 12c0-6.428 4.285-12 11.713-12m0 1.856c-2 0-3.429 5.43-2.714 10.43l5.571-1.572c0-4.714-.857-8.858-2.857-8.858"/></g><defs><clipPath id="a"><path fill="#fff" d="M0 0h24v24H0z"/></clipPath></defs></svg>