<svg xmlns="http://www.w3.org/2000/svg" fill="none" viewBox="0 0 24 24"><g clip-path="url(#a)"><path fill="#C9A35E" d="M12 24c6.627 0 12-5.373 12-12S18.627 0 12 0 0 5.373 0 12s5.373 12 12 12Z"/><path fill="#fff" d="M8.666 14.47a.208.208 0 0 1-.186.118H6.207a.206.206 0 0 1-.176-.101.206.206 0 0 1-.006-.208l4.133-7.45c.074-.132.287-.132.361 0l3.222 5.793a.22.22 0 0 1-.08.283.194.194 0 0 1-.101.026h-.943a.213.213 0 0 1-.18-.106l-2.093-3.807-2.342 4.329h.894a.211.211 0 0 1 .176.095.211.211 0 0 1 .01.203l-.415.825Zm9.307-.191a.195.195 0 0 1-.006.207.193.193 0 0 1-.175.101h-6.203a.208.208 0 0 1-.207-.207v-.825c0-.117.095-.207.207-.207h4.414l-2.337-4.313-.442.883c-.075.139-.303.139-.373 0l-.415-.825a.227.227 0 0 1 0-.186l1.033-2.07a.219.219 0 0 1 .18-.113.218.218 0 0 1 .187.106l4.137 7.449Zm-2.689.825 1.027 1.863a.207.207 0 0 1 0 .208.193.193 0 0 1-.175.101H7.863a.213.213 0 0 1-.182-.106.206.206 0 0 1 .006-.208l1.655-2.689 1.65-2.89a.2.2 0 0 1 .187-.107.195.195 0 0 1 .182.112l.415.825a.2.2 0 0 1-.006.197l-2.097 3.62h4.653l-.431-.719a.195.195 0 0 1-.006-.207.213.213 0 0 1 .181-.106h1.033c.075 0 .144.042.181.106Z"/></g><defs><clipPath id="a"><path fill="#fff" d="M0 0h24v24H0z"/></clipPath></defs></svg>