<svg xmlns="http://www.w3.org/2000/svg" fill="none" viewBox="0 0 24 24"><g clip-path="url(#a)"><path fill="#F68922" d="M12 24c6.627 0 12-5.373 12-12S18.627 0 12 0 0 5.373 0 12s5.373 12 12 12"/><path fill="#fff" d="M12.432 8.447s-2.476.363-2.837 3.116c0 0-.383 3.08 2.765 3.912q.328.086.668.085h.154a1.22 1.22 0 0 1 1.209 1.217 1.21 1.21 0 0 1-1.114 1.214c-1.547.104-3.624-.656-4.971-2.482 0 0-2.64-3.795.237-7.282a6.1 6.1 0 0 1 2.566-1.844c1.182-.442 2.914-.726 4.417.454 0 0 2.011 1.558.98 4.102 0 0-.722 2.025-3.198 2.181l-.344-.019a1.14 1.14 0 0 1-1.07-.846 1.15 1.15 0 0 1 .346-1.162c.2-.176.453-.277.719-.286l.349-.024s1.186-.051 1.083-1.454c0 0-.103-1.246-1.96-.882"/></g><defs><clipPath id="a"><path fill="#fff" d="M0 0h24v24H0z"/></clipPath></defs></svg>