<svg xmlns="http://www.w3.org/2000/svg" fill="none" viewBox="0 0 24 24"><path fill="#62757E" fill-rule="evenodd" d="M14.777 4.98a1.2 1.2 0 0 0-1.697 0l-2.793 2.793 5.94 5.94 2.793-2.793a1.2 1.2 0 0 0 0-1.697zm.319 9.864-5.94-5.94L4.98 13.08a1.2 1.2 0 0 0 0 1.697l4.417 4.417a.95.95 0 0 0 .673.28h.003a.95.95 0 0 0 .673-.28zm-2.367 4.63 7.423-7.423a2.8 2.8 0 0 0 0-3.96L15.909 3.85a2.8 2.8 0 0 0-3.96 0l-8.1 8.1a2.8 2.8 0 0 0 0 3.96l4.417 4.417c.353.353.8.592 1.28.693q.136.054.292.055h10.909a.8.8 0 1 0 0-1.6z" clip-rule="evenodd"/></svg>