<svg xmlns="http://www.w3.org/2000/svg" fill="none" viewBox="0 0 24 24"><path fill="#667489" fill-rule="evenodd" d="m19.963 2.191 1.846 1.845a.652.652 0 0 1 0 .923l-3.472 3.47.464.464a.652.652 0 0 1 0 .923l-.922.922a3.25 3.25 0 0 1-2.438.95 5.875 5.875 0 0 1-1.254 6.43l-3.69 3.69a.653.653 0 0 1-.924 0l-7.382-7.38a.652.652 0 0 1 0-.922l3.571-3.57c1.755-1.755 4.375-2.254 6.554-1.362a3.25 3.25 0 0 1 .949-2.448l.922-.923a.653.653 0 0 1 .923 0l.459.459 3.472-3.47a.653.653 0 0 1 .922 0Zm-9.928 18.234 3.23-3.229a4.57 4.57 0 0 0 0-6.458 4.573 4.573 0 0 0-6.46 0l-3.23 3.23.923.922 2.307-2.306a.653.653 0 0 1 .923.922L5.42 15.812l.923.923 2.307-2.306a.653.653 0 0 1 .922.922l-2.307 2.306 1.846 1.846.923.922Zm4.152-10.61a1.96 1.96 0 0 0 2.769 0l.461-.46-.003-.003-1.382-1.383-1.383-1.382-.462.461a1.959 1.959 0 0 0 0 2.768Zm2.305-3.23.923.922 3.01-3.01-.923-.922-3.01 3.01Zm-5.996 9.689a.653.653 0 0 1 .923.922l-2.307 2.307-.923-.923 2.307-2.306Z" clip-rule="evenodd"/></svg>