<svg xmlns="http://www.w3.org/2000/svg" fill="none" viewBox="0 0 24 24"><g clip-path="url(#a)"><path fill="#5472E8" d="M12 24c6.627 0 12-5.373 12-12S18.627 0 12 0 0 5.373 0 12s5.373 12 12 12Z"/><path fill="#C1CCF8" d="M11.999 5.5v4.806l4.332 1.815L12 5.5Z"/><path fill="#fff" d="m11.999 5.5-4.333 6.62 4.333-1.814V5.5Z"/><path fill="#C1CCF8" d="M11.999 15.235V18.5l4.335-5.623L12 15.235Z"/><path fill="#fff" d="M11.999 18.5v-3.266l-4.333-2.357 4.333 5.623Z"/><path fill="#8BA1F6" d="m11.999 14.479 4.332-2.358L12 10.306v4.172Z"/><path fill="#C1CCF8" d="m7.666 12.12 4.333 2.359v-4.172L7.666 12.12Z"/></g><defs><clipPath id="a"><path fill="#fff" d="M0 0h24v24H0z"/></clipPath></defs></svg>