<svg xmlns="http://www.w3.org/2000/svg" fill="none" viewBox="0 0 24 24"><path fill="#8C8C8C" d="M12.125 2v7.362a.067.067 0 0 1-.062.062c-.219.096-.407.19-.625.285-.282.126-.594.253-.875.411l-1.032.473-.843.38-1.032.474c-.28.127-.562.253-.875.41-.218.095-.468.222-.687.317-.032 0-.032.03-.063 0H6c.094-.158.188-.285.281-.442.5-.854 1.032-1.707 1.532-2.56.53-.915 1.093-1.832 1.625-2.749.5-.852 1-1.705 1.5-2.526.375-.634.75-1.233 1.093-1.866.063 0 .063-.031.094-.031 0 0-.031 0 0 0Z"/><path fill="#141414" d="M18.188 12.174c-.468.316-.968.6-1.437.884-1.532.917-3.032 1.802-4.563 2.718-.031 0-.031.03-.063.03-.03 0-.03-.03-.03-.03V9.424c0-.03.03-.03.062-.03.125.062.25.126.406.189.375.19.781.348 1.156.537.344.158.657.316 1 .442.344.158.657.316 1 .474.282.127.594.253.875.41.282.128.594.254.875.412.22.094.438.221.688.316 0-.032 0 0 .031 0Z"/><path fill="#8C8C8C" d="M12.125 22c-.031 0 0 0 0 0-.031 0-.031 0-.062-.032-.625-.884-1.219-1.738-1.844-2.623l-1.875-2.653c-.594-.853-1.219-1.706-1.813-2.591l-.468-.664c0-.031-.032-.031-.032-.062.032 0 .032.03.063.03.844.506 1.719 1.012 2.562 1.517.97.6 1.97 1.17 2.938 1.77.156.094.344.189.5.284.031 0 .031.032.031.063V22Z"/><path fill="#3C3C3B" d="M6 11.843c0-.031 0-.031 0 0 .313-.158.625-.284.938-.442l1.218-.569c.313-.158.625-.284.938-.442.437-.221.906-.41 1.344-.632.312-.127.625-.285.937-.41.219-.095.438-.19.656-.317.032 0 .032-.031.063-.031v6.445c-.031.032-.031 0-.063 0-.093-.063-.187-.095-.25-.158l-5.719-3.412c-.03-.032-.062-.032-.062-.032Zm12.094 1.17c0 .03 0 .03-.031.062-1.813 2.591-3.625 5.15-5.438 7.742-.187.284-.375.536-.562.821v-5.024a23.25 23.25 0 0 1 1.219-.726l4.781-2.844c0-.031.031-.031.031-.031Z"/><path fill="#343434" d="M12.126 9.393v-7.36l6 10.047c.031.031.062.062.062.095-.125-.063-.25-.127-.406-.19-.156-.063-.313-.158-.469-.221-.093-.031-.187-.095-.312-.127-.157-.063-.344-.158-.5-.22-.094-.033-.188-.095-.282-.127l-.656-.284c-.125-.064-.219-.095-.344-.158-.156-.064-.312-.158-.468-.222-.094-.031-.188-.094-.282-.126l-.656-.284c-.125-.063-.219-.095-.344-.159-.156-.062-.312-.158-.468-.221-.094-.062-.22-.095-.313-.157l-.563-.285Z"/></svg>