<svg xmlns="http://www.w3.org/2000/svg" fill="none" viewBox="0 0 24 24"><path fill="#3AB83A" d="M6 12.902c2.2 1.168 4.495 2.39 6.268 3.337l6.216-3.337c-2.25 3.344-4.126 6.127-6.216 9.208-2.094-3.074-4.406-6.466-6.268-9.208m.24-.923 6.034-3.22 5.957 3.197-5.953 3.224zm6.028-4.252L6 11.027l6.24-9.137 6.244 9.157z"/><path fill="#0B8311" d="m12.268 16.239 6.216-3.337c-2.25 3.344-6.216 9.208-6.216 9.208zm.006-7.48 5.957 3.197-5.953 3.224zm-.006-1.032L12.24 1.89l6.244 9.157z"/><path fill="#0B8311" d="m6.24 11.98 6.035.495 5.957-.516-5.954 3.224z"/><path fill="#146714" d="m12.275 12.475 5.957-.516-5.954 3.224z"/></svg>