<svg xmlns="http://www.w3.org/2000/svg" fill="none" viewBox="0 0 24 24"><path fill="#62757E" fill-rule="evenodd" d="m5.308 11.758 3.723 2.01-.859.858-2.521-1.394 1.644 2.271L3.399 19.4a.85.85 0 0 0 1.202 1.202l16-16A.85.85 0 0 0 19.4 3.4l-3.82 3.818L12.004 2zm9.121-3.39-2.426-3.54-4.033 5.878 4.027-1.59 1.209.476zm-2.49 2.491-2.845 1.124 1.118.603zm-.689 5.468-1.948 1.949L11.997 22l6.34-8.768-6.333 3.511zm6.274-6.274-5.066 5.067 6.234-3.362zm-4.744 8.09.053-.03-.837 1.157-.847-1.17.08.044a1.6 1.6 0 0 0 1.55-.001" clip-rule="evenodd"/></svg>