<svg xmlns="http://www.w3.org/2000/svg" fill="none" viewBox="0 0 24 24"><g clip-path="url(#a)"><path fill="#23BEE2" d="M12 24c6.627 0 12-5.373 12-12S18.627 0 12 0 0 5.373 0 12s5.373 12 12 12Z"/><path fill="#fff" d="m14.292 10.507 1.914-2.017A5.478 5.478 0 0 1 9.36 16.8l4.868-2.51.793-.41-.735-.507-.524-.363 1.53-.781.761-.39-.682-.515-1.079-.817Zm-4.584 3.272-1.785 1.88A5.478 5.478 0 0 1 14.9 7.352L9.772 9.996l-.793.41.735.506.524.363-1.53.783-.761.388.682.516 1.079.817Zm-2.119 2.233-.369.389A6.475 6.475 0 0 1 5.5 12c0-3.585 2.916-6.5 6.5-6.5 1.473 0 2.834.493 3.925 1.323l-.533.274A5.93 5.93 0 0 0 12 6.036 5.971 5.971 0 0 0 6.036 12a5.94 5.94 0 0 0 1.554 4.011Zm8.952-7.875.37-.39A6.472 6.472 0 0 1 18.5 12c0 3.584-2.916 6.5-6.5 6.5a6.463 6.463 0 0 1-3.695-1.155l.546-.282c.944.59 2.036.903 3.149.901A5.971 5.971 0 0 0 17.964 12a5.937 5.937 0 0 0-1.423-3.863Zm-7.589 4.398 2.329-1.19-1.263-.872 6.99-3.606-3.517 3.706 1.557 1.178-2.329 1.19 1.263.873-6.99 3.605 3.517-3.705-1.557-1.179Z"/></g><defs><clipPath id="a"><path fill="#fff" d="M0 0h24v24H0z"/></clipPath></defs></svg>