<svg xmlns="http://www.w3.org/2000/svg" fill="none" viewBox="0 0 24 24"><path fill="#7AB200" d="M21.92 9.524c-.316-1.18-2.785-3.858-4.583-6.065a.5.5 0 0 0-.347-.208c-.177 0-.324.178-.247.309.077.13 1.79 3.673 1.45 4.822-.339 1.15-1.897.934-2.144.934s-.039.1.108.239A4.14 4.14 0 0 1 17.6 12.78v1.073c2.013-.178 5.077-1.389 4.267-4.329zM7.9 9.555c.14-.139.247-.24.1-.24-.146 0-1.828.24-2.152-.933S7.268 3.7 7.338 3.56a.26.26 0 0 0-.217-.309h-.07c-.177 0-.316.208-.354.208-1.76 2.184-4.26 4.885-4.576 6.065-.771 2.94 2.315 4.151 4.298 4.36V12.81a4.24 4.24 0 0 1 1.482-3.256m6.305 3.881c0 .039 0 .039-.039.07-.039.03 0 .038-.07.038H9.939v-.733c0-1.003 1.234-1.489 2.191-1.489s2.076.486 2.076 1.49zM12.129 9.07c-2.153 0-4.514 1.25-4.514 3.711v3.743c0 2.492 2.361 3.672 4.514 3.703a4.87 4.87 0 0 0 4.12-1.975s0-.1-.038-.139c-.772-.416-1.165-.656-1.898-1.041-.039 0-.039 0-.078.038a2.63 2.63 0 0 1-2.106 1.003c-.957 0-2.191-.586-2.191-1.59v-1.11h5.941a.555.555 0 0 0 .563-.54v-2.06c0-2.493-2.222-3.704-4.328-3.743"/></svg>