<svg xmlns="http://www.w3.org/2000/svg" fill="none" viewBox="0 0 24 24"><g clip-path="url(#a)"><path fill="#039" d="M24 12A12 12 0 1 1 .001 12 12 12 0 0 1 24 12Z"/><path fill="#fff" d="M12.558 7.31c-.351-.002-.7.07-1.021.212-.32.141-.61.346-.849.602a3.59 3.59 0 0 0-.646.966 5.69 5.69 0 0 0-.408 1.294h3.45v1.093H9.521c0 .081 0 .158-.008.232-.007.074-.008.13-.008.2v.495c0 .107.005.218.016.335H12.6v1.095H9.668c.181.93.517 1.64 1.007 2.13.49.49 1.133.735 1.931.735a4.88 4.88 0 0 0 1.134-.127 5.82 5.82 0 0 0 1.014-.335v1.293a4.717 4.717 0 0 1-1.005.343 5.333 5.333 0 0 1-1.255.126 4.43 4.43 0 0 1-1.645-.288 3.849 3.849 0 0 1-1.274-.83 4.55 4.55 0 0 1-.887-1.31 7.138 7.138 0 0 1-.52-1.74H6.867V12.74h1.182a3.604 3.604 0 0 1-.016-.303v-.351c0-.117 0-.237.007-.36.008-.121.009-.204.009-.248H6.866v-1.093H8.14c.084-.621.25-1.228.495-1.805.215-.508.515-.974.887-1.38a3.73 3.73 0 0 1 1.274-.887A4.186 4.186 0 0 1 12.446 6c.478-.005.953.053 1.414.175.45.122.88.31 1.274.56l-.637 1.167a4.624 4.624 0 0 0-.893-.416 2.953 2.953 0 0 0-1.046-.177Z"/></g><defs><clipPath id="a"><path fill="#fff" d="M0 0h24v24H0z"/></clipPath></defs></svg>