<svg xmlns="http://www.w3.org/2000/svg" fill="none" viewBox="0 0 24 24"><g clip-path="url(#a)"><path fill="#0F8FF8" d="M12 24c6.627 0 12-5.373 12-12S18.627 0 12 0 0 5.373 0 12s5.373 12 12 12"/><path fill="#fff" fill-rule="evenodd" d="m6.334 14.003.54-1.336h.57a11 11 0 0 1-.022-.687q0-.448.038-.833H6.334l.54-1.336h.849Q8.909 6.001 13.069 6a9.3 9.3 0 0 1 2.598.355v1.682a5.95 5.95 0 0 0-2.456-.517q-2.492 0-3.206 2.292h4.948l-.54 1.335h-4.73q-.044.33-.038.664 0 .478.03.856h4.122l-.534 1.336H9.96q.533 1.389 1.3 1.933.765.544 2.184.544 1.014 0 2.223-.494v1.582Q14.518 18 12.934 18q-4.168 0-5.271-3.997z" clip-rule="evenodd"/></g><defs><clipPath id="a"><path fill="#fff" d="M0 0h24v24H0z"/></clipPath></defs></svg>