<svg xmlns="http://www.w3.org/2000/svg" fill="none" viewBox="0 0 24 24"><path fill="#62757E" fill-rule="evenodd" d="M15.058 5.285a.833.833 0 0 1-1.177-.058c-.925-1.02-2.01-1.56-3.133-1.56-2.42 0-4.474 2.456-5.164 5.833H12a.833.833 0 0 1 0 1.667H5.361a12.7 12.7 0 0 0 .081 2.5H9.5a.834.834 0 0 1 0 1.666H5.789c.838 2.94 2.744 5 4.96 5 1.124 0 2.208-.539 3.134-1.56a.833.833 0 0 1 1.235 1.12C13.867 21.27 12.357 22 10.748 22c-3.076 0-5.693-2.79-6.668-6.667H2.833a.833.833 0 0 1 0-1.666h.94A14 14 0 0 1 3.667 12c0-.282.013-.558.03-.833h-.864a.834.834 0 0 1 0-1.667H3.9C4.689 5.194 7.456 2 10.748 2c1.609 0 3.118.73 4.368 2.108a.83.83 0 0 1-.058 1.177" clip-rule="evenodd"/></svg>