<svg xmlns="http://www.w3.org/2000/svg" fill="none" viewBox="0 0 24 24"><path fill="#62757E" fill-rule="evenodd" d="M15.82 17.654v1.966l-.715.045c-1.054.014-1.605 1.67-.09 1.877.508.088.998.06 1.654 0 1.268-.185 1.521-.302 1.52-1.296-.015-.443-.03-.973-.045-1.654-.072-.805-.567-2.192-1.43-2.145-.788-.002-1.589-.076-2.19-.268-.168-.054-.319-.094-.457-.131-.72-.194-1.1-.297-1.777-1.612-.08.225-.164.413-.241.587-.14.314-.258.58-.296.932-.149.942-.686 1.261-1.43 1.252-.85-.084-1.7-.271-2.614-.473l-.291-.064c-.318-.07-.623-.118-.925-.165-.576-.09-1.139-.18-1.757-.416-1.272-.535-1.546-1.869-1.82-3.203q-.07-.346-.146-.685c-.308-1.444-.527-2.993-.715-4.514-.198-1.368.246-2.265 1.832-2.324l2.28.045c.628-.061 1.233-.15 1.162-1.028l-.045-2.592.023-.08C7.405 1.337 7.752.033 9.34 0l2.19.09c.76.127 2.039.364 2.503 1.787l.815.015c1.237.02 2.475.04 3.52.253.335.131.72.213 1.104.294 1.165.246 2.33.493 2.114 2.12.271.096.329 2.862.387 5.628l.015.718c.014 1.81-.045 3.657-.268 5.587-.012 1.886-.597 3.544-1.182 5.201l-.025.072c-.364 1.053-.858 1.989-2.28 2.1-1.444.179-2.784.147-4.111.09-1.254-.036-1.919-.858-2.1-2.324v-1.52c0-1.01.552-1.893 2.1-2.547zm.134-6.101 2.615.022c.08-1.362-.506-1.627-1.252-1.63-1.228.121-1.287.775-1.345 1.428zM6.86.559l-4.424 4.38c.894-.255 1.742-.231 2.59-.207.402.012.803.023 1.209.005.218-.065.354-.172.335-.357.022-.376.024-.792.025-1.213.004-.971.008-1.975.265-2.608" clip-rule="evenodd"/></svg>