<svg xmlns="http://www.w3.org/2000/svg" fill="none" viewBox="0 0 24 24"><g clip-path="url(#a)"><path fill="#9e50c3" d="M16.068 0a2.25 2.25 0 0 1 1.591.66l4.182 4.18c.422.423.659.995.659 1.592V21.75A2.25 2.25 0 0 1 20.25 24H3.75a2.25 2.25 0 0 1-2.25-2.25V2.25A2.25 2.25 0 0 1 3.75 0zM12 5a7 7 0 1 0 0 14 7 7 0 0 0 0-14m1.944 9.745a.75.75 0 1 1 1.06 1.06 4.25 4.25 0 0 1-6.009 0 .75.75 0 0 1 1.06-1.06 2.75 2.75 0 0 0 3.89 0M10 9c.552 0 1 .672 1 1.5s-.448 1.5-1 1.5-1-.672-1-1.5S9.448 9 10 9m4 0c.552 0 1 .672 1 1.5s-.448 1.5-1 1.5-1-.672-1-1.5.448-1.5 1-1.5"/></g><defs><clipPath id="a"><path fill="#fff" d="M0 0h24v24H0z"/></clipPath></defs></svg>