<svg xmlns="http://www.w3.org/2000/svg" fill="none" viewBox="0 0 24 24"><g clip-path="url(#a)"><path fill="#9C5CBE" fill-rule="evenodd" d="M3.75 0A2.25 2.25 0 0 0 1.5 2.25v19.5A2.25 2.25 0 0 0 3.75 24h16.5a2.25 2.25 0 0 0 2.25-2.25V6.432a2.25 2.25 0 0 0-.659-1.591L17.659.659A2.25 2.25 0 0 0 16.068 0zM12 19a7 7 0 1 0 0-14 7 7 0 0 0 0 14m-1-8.5c0 .828-.448 1.5-1 1.5s-1-.672-1-1.5S9.448 9 10 9s1 .672 1 1.5m3 1.5c.552 0 1-.672 1-1.5S14.552 9 14 9s-1 .672-1 1.5.448 1.5 1 1.5m-.056 2.745a.75.75 0 0 1 1.061 1.06 4.25 4.25 0 0 1-6.01 0 .75.75 0 1 1 1.06-1.06 2.75 2.75 0 0 0 3.89 0" clip-rule="evenodd"/></g><defs><clipPath id="a"><path fill="#fff" d="M0 0h24v24H0z"/></clipPath></defs></svg>