<svg xmlns="http://www.w3.org/2000/svg" fill="none" viewBox="0 0 24 24"><g clip-path="url(#a)"><path fill="#FFAA5C" d="M12 24c6.627 0 12-5.373 12-12S18.627 0 12 0 0 5.373 0 12s5.373 12 12 12Z"/><path fill="#fff" fill-rule="evenodd" d="M17.909 11.242c-.002.023-.006.045-.006.068-.003.721-.006 1.443-.007 2.164l-.002 1.482c0 .047-.004.094-.007.153a.543.543 0 0 1-.063-.03l-2.75-1.533c-.05-.027-.053-.051-.03-.1.469-.961.47-1.926.01-2.89-.023-.046-.019-.07.029-.095l2.751-1.544c.023-.013.05-.02.075-.03v2.355ZM12.177 5.5c.046.028.092.057.139.084l5.347 3.005c.02.01.04.023.067.04-.025.016-.041.028-.06.038l-2.729 1.524c-.071.04-.07.039-.118-.029-.605-.848-1.434-1.332-2.489-1.455a.772.772 0 0 0-.094-.006c-.056 0-.077-.021-.077-.08 0-.598-.004-1.198-.006-1.796l-.002-1.24c0-.029.007-.057.01-.085h.012Zm-.366 13c-.02-.015-.039-.031-.06-.043l-5.387-3.029-.084-.05.057-.038 2.712-1.516c.054-.03.08-.019.113.028.565.784 1.337 1.247 2.305 1.405.1.016.2.023.3.028.057.002.08.018.08.077-.001.53.001 1.06.003 1.59l.003 1.504c0 .015-.004.03-.007.044h-.035Zm-5.72-3.87c.003-.018.009-.037.01-.055l.002-.746.004-1.67.007-2.636.003-.567c0-.017.003-.033.005-.06.026.012.044.02.062.03.9.502 1.798 1.005 2.699 1.506.052.029.06.051.034.106-.473.97-.47 1.94 0 2.912.038.078.04.077-.038.12L6.17 15.092c-.023.013-.053.014-.08.02v-.482Zm7.961-.55a3.03 3.03 0 0 0 .107-1.026 2.587 2.587 0 0 0-.352-1.197c-.254-.427-.621-.736-1.069-.96-.118-.06-.131-.03-.06-.178.158-.332.436-.539.78-.671a2.43 2.43 0 0 1 .742-.146.14.14 0 0 1 .095.043 2.95 2.95 0 0 1 .79 1.618c.227 1.54-.777 2.987-2.336 3.37-1.73.425-3.484-.64-3.843-2.33-.336-1.584.678-3.115 2.191-3.52 1.136-.302 2.144-.06 3.027.692l.1.085-.013.02c-.087-.011-.173-.024-.26-.033-.54-.05-1.07-.015-1.585.162a2.643 2.643 0 0 0-1.482 1.232c-.047.084-.05.084-.142.053a.775.775 0 0 1-.306-.2 1.622 1.622 0 0 1-.372-.613c-.069-.201-.12-.408-.179-.612-.005-.016-.008-.032-.022-.05-.009.048-.018.094-.025.141a2.899 2.899 0 0 0-.018.142c-.056.528-.026 1.048.157 1.552.226.629.654 1.082 1.278 1.357.081.036.081.037.038.111-.231.393-.594.59-1.041.657a2.83 2.83 0 0 1-.628.004l.058.023c1.022.352 2.145.194 2.99-.7.213-.228.399-.48.555-.75.04-.069.043-.07.108-.022.277.202.442.479.555.789.106.285.148.582.158.884 0 .024.002.048.004.072v.001Zm3.704 1.307-5.592 3.102c-.003-.033-.007-.053-.007-.072l-.001-3.067c0-.046.013-.062.063-.066 1.087-.09 1.949-.566 2.582-1.432.055-.076.054-.077.136-.031l2.743 1.521.076.045Zm-5.91-9.866.003.074.001 3.025c0 .047-.007.07-.065.075-1.11.08-1.987.56-2.63 1.444-.05.07-.05.07-.124.029L6.36 8.684c-.032-.017-.06-.039-.09-.059.03-.02.058-.045.091-.063l5.384-2.988.1-.053Z" clip-rule="evenodd"/></g><defs><clipPath id="a"><path fill="#fff" d="M0 0h24v24H0z"/></clipPath></defs></svg>