<svg xmlns="http://www.w3.org/2000/svg" fill="none" viewBox="0 0 24 24"><path fill="#62757E" fill-rule="evenodd" d="M19.948 19.588a.667.667 0 0 1-.615.412H14a.667.667 0 0 1 0-1.333l3.728.004-4.866-4.866a.666.666 0 1 1 .943-.943l4.944 4.945v-3.819c0-.368.216-.655.584-.655.369 0 .667.298.667.667v5.333a.66.66 0 0 1-.052.255Zm-9.282-8.255a.664.664 0 0 1-.47-.195L5.318 6.262 5.333 10A.666.666 0 0 1 4 10V4.664A.668.668 0 0 1 4.668 4H10c.368 0 .666.298.666.667 0 .368-.28.622-.649.622H6.232l4.907 4.906a.666.666 0 0 1-.472 1.139Z" clip-rule="evenodd"/></svg>