<svg xmlns="http://www.w3.org/2000/svg" fill="none" viewBox="0 0 24 24"><path fill="currentColor" fill-rule="evenodd" d="M21 20.25a.762.762 0 0 1-.218.526l-.002.004c-.003.003-.008.004-.01.007a.737.737 0 0 1-.52.213H16.5a.75.75 0 0 1 0-1.5h1.94l-4.72-4.72a.75.75 0 1 1 1.06-1.06l4.72 4.72V16.5a.75.75 0 1 1 1.5 0v3.75Zm-.75-12a.75.75 0 0 1-.75-.75V5.56l-4.72 4.72a.747.747 0 0 1-1.06 0 .75.75 0 0 1 0-1.06l4.72-4.72H16.5a.75.75 0 0 1 0-1.5h3.75c.006 0 .01.003.015.003a.744.744 0 0 1 .271.054.75.75 0 0 1 .464.693V7.5a.75.75 0 0 1-.75.75ZM5.56 19.5H7.5a.75.75 0 0 1 0 1.5H3.75a.755.755 0 0 1-.519-.212c-.004-.003-.008-.004-.012-.008a.758.758 0 0 1-.22-.53V16.5a.75.75 0 1 1 1.5 0v1.94l4.72-4.72a.75.75 0 1 1 1.06 1.06L5.562 19.5Zm4.19-9a.747.747 0 0 1-.53-.22L4.5 5.56V7.5a.75.75 0 0 1-1.5 0V3.75a.753.753 0 0 1 .463-.693.748.748 0 0 1 .274-.055L3.75 3H7.5a.75.75 0 1 1 0 1.5H5.56l4.72 4.72a.75.75 0 0 1-.53 1.28Z" clip-rule="evenodd"/></svg>