<svg xmlns="http://www.w3.org/2000/svg" fill="none" viewBox="0 0 24 24"><path fill="currentColor" fill-rule="evenodd" d="M20 19.334a.677.677 0 0 1-.194.467c0 .002 0 .003-.002.004l-.009.006a.655.655 0 0 1-.462.19H16a.666.666 0 0 1 0-1.335h1.724l-4.196-4.195a.666.666 0 1 1 .943-.943l4.196 4.196V16A.666.666 0 1 1 20 16v3.333Zm-.667-10.668A.666.666 0 0 1 18.667 8V6.276L14.47 10.47a.664.664 0 0 1-.943 0 .666.666 0 0 1 0-.943l4.196-4.195h-1.725A.666.666 0 0 1 16 4h3.334c.005 0 .01.003.014.003a.66.66 0 0 1 .653.663V8a.667.667 0 0 1-.667.666Zm-13.057 10H8A.668.668 0 0 1 8 20H4.666a.67.67 0 0 1-.46-.189c-.004-.002-.008-.003-.011-.006A.673.673 0 0 1 4 19.334V16a.666.666 0 1 1 1.333 0v1.724l4.196-4.196a.666.666 0 1 1 .942.943l-4.195 4.195Zm3.724-8a.664.664 0 0 1-.471-.195L5.333 6.276V8A.667.667 0 0 1 4 8V4.667a.67.67 0 0 1 .412-.616.665.665 0 0 1 .243-.049L4.666 4H8a.667.667 0 1 1 0 1.333H6.276l4.195 4.195a.666.666 0 0 1-.47 1.138Z" clip-rule="evenodd"/></svg>