<svg xmlns="http://www.w3.org/2000/svg" fill="none" viewBox="0 0 24 24"><path fill="currentColor" fill-rule="evenodd" d="M20.942 20.537a.75.75 0 0 1-.692.463h-6a.75.75 0 0 1 0-1.5l4.195.005-5.475-5.475a.75.75 0 1 1 1.06-1.06l5.563 5.563v-4.296c0-.415.243-.738.657-.738a.75.75 0 0 1 .75.751v6c0 .097-.02.195-.058.287ZM10.5 11.25a.747.747 0 0 1-.53-.22L4.484 5.545 4.5 9.75a.75.75 0 0 1-1.5 0V3.748A.752.752 0 0 1 3.751 3h6a.75.75 0 0 1 .749.75c0 .414-.316.7-.73.7H5.51l5.52 5.52a.75.75 0 0 1-.53 1.28Z" clip-rule="evenodd"/></svg>