<svg xmlns="http://www.w3.org/2000/svg" fill="none" viewBox="0 0 24 24"><path fill="#46464A" fill-rule="evenodd" d="M19.872 4.127a2.085 2.085 0 0 0-3.488.934l-.579 2.159a.758.758 0 0 1-.732.562h-2.664l3.809 3.81V8.926c0-.343.23-.644.562-.732l2.158-.579a2.085 2.085 0 0 0 .935-3.489Zm-4.02-1.072a3.602 3.602 0 1 1 3.478 6.026l-1.595.428V12c0 .201-.08.394-.223.536l-.71.711a.758.758 0 0 1-1.073 0l-.885-.886-7.492 7.492a2.474 2.474 0 0 1-1.75.725.958.958 0 0 0-.677.28l-.92.92a.758.758 0 0 1-1.072 0l-.71-.711a.758.758 0 0 1 0-1.072l.918-.92c.18-.18.28-.423.28-.677 0-.656.262-1.286.726-1.75l7.492-7.492-.886-.885a.758.758 0 0 1 0-1.073l.71-.71A.758.758 0 0 1 12 6.264h2.49l.428-1.595a3.59 3.59 0 0 1 .933-1.615Zm-3.141 7.174L5.219 17.72a.958.958 0 0 0-.28.677c0 .273-.046.541-.132.795.254-.086.522-.131.795-.131a.955.955 0 0 0 .677-.281l7.492-7.492-1.06-1.06Z" clip-rule="evenodd"/></svg>