<svg xmlns="http://www.w3.org/2000/svg" fill="none" viewBox="0 0 24 24"><path fill="#62757E" d="M2.5 20.489v-2.691q0-.405.157-.778t.433-.648l9.325-9.327-1.207-1.177a.841.841 0 1 1 1.18-1.199l1.776 1.768 3.673-3.683a.8.8 0 0 1 .29-.186.96.96 0 0 1 .702 0q.159.067.305.186l2.112 2.123q.12.135.186.294a.96.96 0 0 1 0 .702.8.8 0 0 1-.186.29L17.57 9.84l1.775 1.81a.846.846 0 1 1-1.207 1.184l-1.205-1.228-9.304 9.305q-.276.275-.649.432a2 2 0 0 1-.778.157h-2.69a.98.98 0 0 1-.723-.29.98.98 0 0 1-.289-.721m1.678-.667h2.203l9.36-9.416-2.147-2.147-9.416 9.36zm12.2-11.165 3.137-3.137-1.035-1.035-3.137 3.148z"/></svg>