<svg xmlns="http://www.w3.org/2000/svg" fill="none" viewBox="0 0 24 24"><path fill="currentColor" fill-rule="evenodd" d="M12 20c-6.496 0-10-5.323-10-7.5C2 10.323 5.504 5 12 5s10 5.323 10 7.5c0 2.177-3.504 7.5-10 7.5Zm0-13.333c-5.653 0-8.333 4.679-8.333 5.833s2.68 5.833 8.333 5.833c5.653 0 8.333-4.679 8.333-5.833S17.653 6.667 12 6.667Zm0 10A4.171 4.171 0 0 1 7.833 12.5 4.171 4.171 0 0 1 12 8.333a4.171 4.171 0 0 1 4.167 4.167A4.171 4.171 0 0 1 12 16.667ZM12 10a2.503 2.503 0 0 0-2.5 2.5c0 1.378 1.122 2.5 2.5 2.5s2.5-1.122 2.5-2.5S13.378 10 12 10Z" clip-rule="evenodd"/></svg>