<svg xmlns="http://www.w3.org/2000/svg" fill="none" viewBox="0 0 24 24"><path fill="#62757E" fill-rule="evenodd" d="M12 19.5c-6.496 0-10-5.323-10-7.5s3.504-7.5 10-7.5S22 9.823 22 12s-3.504 7.5-10 7.5m0-13.333c-5.653 0-8.333 4.679-8.333 5.833s2.68 5.833 8.333 5.833 8.333-4.679 8.333-5.833S17.653 6.167 12 6.167m0 10A4.17 4.17 0 0 1 7.833 12 4.17 4.17 0 0 1 12 7.833 4.17 4.17 0 0 1 16.167 12 4.17 4.17 0 0 1 12 16.167M12 9.5A2.503 2.503 0 0 0 9.5 12c0 1.378 1.122 2.5 2.5 2.5s2.5-1.122 2.5-2.5-1.122-2.5-2.5-2.5" clip-rule="evenodd"/></svg>