<svg xmlns="http://www.w3.org/2000/svg" fill="none" viewBox="0 0 24 24"><path fill="#62757E" fill-rule="evenodd" d="M4.265 20.922a.83.83 0 0 1-1.178 0 .83.83 0 0 1 0-1.178l2.567-2.568C2.93 15.426 2 13.006 2 12c0-2.177 3.504-7.5 10-7.5 2.502 0 4.08.759 4.952 1.379l2.801-2.802a.833.833 0 1 1 1.179 1.179zM9.76 13.07l3.316-3.315A2.5 2.5 0 0 0 12 9.5 2.503 2.503 0 0 0 9.5 12c0 .375.1.736.26 1.07M12 6.167c-5.653 0-8.333 4.679-8.333 5.833 0 .371.595 2.442 3.202 3.96l1.699-1.697c-.059-.054-.127-.095-.17-.167A4.16 4.16 0 0 1 7.833 12 4.17 4.17 0 0 1 12 7.834c.824 0 1.617.252 2.294.702l1.452-1.451c-.688-.425-1.877-.918-3.746-.918m0 9.999a.833.833 0 0 1-.054-1.665 2.75 2.75 0 0 0 2.556-2.556.833.833 0 1 1 1.663.109 4.42 4.42 0 0 1-4.11 4.11zm-2.3 1.391a9.4 9.4 0 0 0 2.3.275c5.653 0 8.333-4.678 8.333-5.833 0-.348-.36-1.48-1.476-2.754a.833.833 0 1 1 1.254-1.098C21.258 9.457 22 10.97 22 12c0 2.177-3.504 7.5-10 7.5-.936 0-1.847-.11-2.707-.326a.834.834 0 1 1 .408-1.616" clip-rule="evenodd"/></svg>