<svg xmlns="http://www.w3.org/2000/svg" fill="none" viewBox="0 0 24 24"><path fill="#62757E" d="M2.5 20.489v-2.691c0-.27.052-.53.157-.778.105-.249.249-.465.433-.648l9.325-9.327-1.207-1.177a.841.841 0 1 1 1.18-1.199l1.776 1.768 3.673-3.683a.84.84 0 0 1 .29-.186.957.957 0 0 1 .702 0c.106.045.207.107.305.186l2.112 2.123c.08.09.141.188.186.294a.956.956 0 0 1 0 .702.838.838 0 0 1-.186.29L17.57 9.84l1.775 1.81a.846.846 0 1 1-1.207 1.184l-1.205-1.228-9.304 9.304c-.184.184-.4.328-.649.433a1.983 1.983 0 0 1-.778.157h-2.69a.979.979 0 0 1-.723-.29.979.979 0 0 1-.289-.721Zm1.678-.667h2.203l9.36-9.416-2.147-2.147-9.416 9.36v2.203Zm12.2-11.165 3.137-3.137-1.035-1.035-3.137 3.148 1.035 1.024Z"/></svg>