<svg xmlns="http://www.w3.org/2000/svg" fill="none" viewBox="0 0 24 24"><path fill="currentColor" fill-rule="evenodd" d="M4.265 20.089a.828.828 0 0 1-.59.244.832.832 0 0 1-.59-1.422l2.57-2.568C2.93 14.593 2 12.173 2 11.166c0-2.176 3.504-7.5 10-7.5 2.502 0 4.08.76 4.952 1.38l2.801-2.802a.833.833 0 1 1 1.179 1.178L4.265 20.09Zm5.495-7.852 3.316-3.316A2.492 2.492 0 0 0 12 8.667a2.503 2.503 0 0 0-2.5 2.5c0 .375.1.736.26 1.07ZM12 5.333c-5.653 0-8.333 4.68-8.333 5.833 0 .372.595 2.443 3.202 3.961l1.699-1.697c-.059-.055-.127-.095-.17-.167a4.158 4.158 0 0 1-.565-2.096A4.171 4.171 0 0 1 12 7.001c.824 0 1.617.252 2.294.702l1.452-1.452c-.688-.425-1.877-.918-3.746-.918Zm0 10a.833.833 0 0 1-.054-1.665 2.748 2.748 0 0 0 2.556-2.556.833.833 0 1 1 1.663.109 4.42 4.42 0 0 1-4.11 4.11l-.056.001Zm-2.3 1.39a9.44 9.44 0 0 0 2.3.276c5.653 0 8.333-4.678 8.333-5.833 0-.348-.36-1.48-1.476-2.754a.833.833 0 1 1 1.254-1.098C21.258 8.624 22 10.137 22 11.166c0 2.176-3.504 7.5-10 7.5-.936 0-1.847-.11-2.707-.327a.834.834 0 1 1 .408-1.615Z" clip-rule="evenodd"/></svg>