<svg xmlns="http://www.w3.org/2000/svg" fill="none" viewBox="0 0 24 24"><path fill="#62757E" fill-rule="evenodd" d="M2.25 5A2.75 2.75 0 0 1 5 2.25h2a.75.75 0 0 1 0 1.5H5c-.69 0-1.25.56-1.25 1.25v2a.75.75 0 0 1-1.5 0zm19.5 0A2.75 2.75 0 0 0 19 2.25h-2a.75.75 0 0 0 0 1.5h2c.69 0 1.25.56 1.25 1.25v2a.75.75 0 0 0 1.5 0zM16 7.25a.75.75 0 0 1 .75.75v2a.75.75 0 0 1-1.5 0V8a.75.75 0 0 1 .75-.75m-8 0a.75.75 0 0 1 .75.75v2a.75.75 0 0 1-1.5 0V8A.75.75 0 0 1 8 7.25m1.525 8.214A.75.75 0 0 0 8.47 16.53l.525-.525-.525.525v.001l.002.002.003.002.006.006.018.017.054.05q.067.059.184.148c.157.118.383.267.678.415.591.296 1.455.579 2.585.579s1.994-.283 2.585-.58c.295-.147.52-.296.677-.414a3 3 0 0 0 .24-.198l.017-.017.006-.006.003-.002.001-.002L15 16l.53.53a.75.75 0 0 0-1.055-1.066l-.016.014q-.027.025-.096.078c-.094.07-.243.17-.448.273-.409.204-1.045.421-1.915.421s-1.506-.217-1.915-.42a3 3 0 0 1-.544-.351zM12 7.25a.75.75 0 0 1 .75.75v5a.75.75 0 0 1-.75.75h-1a.75.75 0 0 1 0-1.5h.25V8a.75.75 0 0 1 .75-.75M2.25 19A2.75 2.75 0 0 0 5 21.75h2a.75.75 0 0 0 0-1.5H5c-.69 0-1.25-.56-1.25-1.25v-2a.75.75 0 0 0-1.5 0zm19.5 0A2.75 2.75 0 0 1 19 21.75h-2a.75.75 0 0 1 0-1.5h2c.69 0 1.25-.56 1.25-1.25v-2a.75.75 0 0 1 1.5 0z" clip-rule="evenodd"/></svg>