<svg xmlns="http://www.w3.org/2000/svg" fill="none" viewBox="0 0 24 24"><path fill="#62757E" fill-rule="evenodd" d="M12 3.8a8.2 8.2 0 1 0 0 16.4 8.2 8.2 0 0 0 0-16.4M2.2 12c0-5.412 4.388-9.8 9.8-9.8s9.8 4.388 9.8 9.8-4.388 9.8-9.8 9.8-9.8-4.388-9.8-9.8m6.194-3.138c.11-.22.411-.662.981-.662s.87.441.98.662c.135.268.195.584.195.888s-.06.62-.194.888c-.11.22-.411.662-.981.662s-.87-.441-.98-.662A2 2 0 0 1 8.2 9.75c0-.304.06-.62.194-.888m5.25 0c.11-.22.411-.662.981-.662s.87.441.98.662c.135.268.195.584.195.888s-.06.62-.194.888c-.11.22-.411.662-.981.662s-.87-.441-.98-.662a2 2 0 0 1-.195-.888c0-.304.06-.62.194-.888m-5.392 5.754a.8.8 0 0 1 1.132 0 3.7 3.7 0 0 0 5.232 0 .8.8 0 0 1 1.132 1.132 5.3 5.3 0 0 1-7.496 0 .8.8 0 0 1 0-1.132" clip-rule="evenodd"/></svg>