<svg xmlns="http://www.w3.org/2000/svg" fill="none" viewBox="0 0 24 24"><g clip-path="url(#a)"><path fill="#C99705" d="M12 24c6.627 0 12-5.373 12-12S18.627 0 12 0 0 5.373 0 12s5.373 12 12 12"/><path fill="#fff" fill-rule="evenodd" d="m6.8 17.365.028-.114c.1-.388.364-.627.758-.736.4-.11.782-.068 1.128.168q.172.113.255.297c.015.033.046.06.07.091.026-.03.063-.056.076-.09.085-.226.18-.45.245-.682q.521-1.892 1.031-3.784c.014-.05.022-.101.034-.16h-.259c-.287-.006-.576.002-.862-.02-.39-.03-.654-.27-.66-.638-.007-.322.183-.57.548-.633.255-.044.522-.027.784-.032.252-.004.503 0 .754-.002.023 0 .061-.026.067-.047a33 33 0 0 0 .182-.674c.004-.013 0-.028 0-.05-.284 0-.565.009-.846-.002a1.15 1.15 0 0 1-.619-.187c-.23-.158-.292-.383-.255-.633.037-.252.2-.421.458-.492.091-.025.19-.035.285-.036q.609-.006 1.217.003c.098.002.142-.03.18-.112.136-.281.269-.565.425-.835a6.2 6.2 0 0 1 1.038-1.356c.548-.528 1.193-.902 1.967-1.04.513-.09 1.03-.113 1.535.06q.456.157.67.575c.088.175.175.349.165.555a1.03 1.03 0 0 1-.976.972c-.345.011-.643-.082-.873-.332-.217-.236-.243-.51-.156-.801q.01-.032.023-.065l-.018-.022c-.044.028-.094.052-.131.087a2.7 2.7 0 0 0-.488.641 7.8 7.8 0 0 0-.632 1.537c-.005.016-.004.034-.007.062q.211.002.416 0c.2-.003.4-.002.59.07.232.086.41.229.456.472.048.248-.001.442-.233.632-.188.154-.41.186-.64.194-.308.01-.617.013-.925.018-.041 0-.074 0-.086.052q-.076.32-.157.636-.002.015.002.04c.216 0 .432-.006.646.002.23.009.444.069.613.235a.54.54 0 0 1 .062.726c-.056.075-.123.144-.183.215-.127.148-.303.2-.49.207q-.48.018-.962.014c-.087 0-.121.026-.14.103-.115.45-.224.903-.35 1.352-.253.901-.536 1.794-.998 2.623a4.7 4.7 0 0 1-.833 1.094c-.483.47-1.055.791-1.739.91-.466.08-.937.108-1.397-.031-.39-.119-.66-.361-.764-.75l-.03-.114z" clip-rule="evenodd"/></g><defs><clipPath id="a"><path fill="#fff" d="M0 0h24v24H0z"/></clipPath></defs></svg>