<svg xmlns="http://www.w3.org/2000/svg" fill="none" viewBox="0 0 24 24"><g clip-path="url(#a)"><path fill="#C99705" d="M12 24c6.627 0 12-5.373 12-12S18.627 0 12 0 0 5.373 0 12s5.373 12 12 12Z"/><path fill="#fff" fill-rule="evenodd" d="m6.8 17.365.028-.114c.1-.388.365-.627.759-.736.4-.11.78-.068 1.127.168.114.076.2.174.255.297.016.033.046.06.07.091.026-.03.063-.056.076-.09.085-.226.181-.45.245-.682.349-1.261.69-2.523 1.031-3.784.014-.05.022-.101.035-.16h-.26c-.287-.006-.576.002-.862-.02-.389-.03-.653-.27-.66-.638-.007-.322.183-.57.548-.633.255-.044.523-.027.785-.032.251-.004.502 0 .754-.002.022 0 .06-.026.066-.047.064-.223.123-.448.182-.674.004-.013.001-.028.001-.05-.285 0-.566.009-.847-.002a1.148 1.148 0 0 1-.619-.187c-.229-.158-.292-.383-.255-.633.038-.252.2-.421.458-.492.091-.025.19-.035.285-.036a49.36 49.36 0 0 1 1.217.003c.099.002.142-.03.181-.112.135-.281.268-.565.425-.835a6.173 6.173 0 0 1 1.037-1.356c.548-.528 1.193-.902 1.967-1.04.513-.09 1.03-.113 1.535.06.303.104.528.297.67.575.089.175.175.349.165.555a1.03 1.03 0 0 1-.975.972c-.346.011-.644-.082-.874-.332-.216-.236-.243-.51-.156-.801l.023-.065-.018-.022c-.044.028-.094.052-.131.087a2.648 2.648 0 0 0-.487.641 7.82 7.82 0 0 0-.633 1.537c-.005.016-.004.034-.007.062.14 0 .28.002.416 0 .2-.003.4-.002.59.07.232.086.41.229.456.472.048.248 0 .442-.232.632-.189.154-.41.186-.64.194-.309.01-.618.013-.926.018-.041 0-.074 0-.085.052-.05.213-.105.425-.158.636-.002.01.001.023.002.04.217 0 .432-.006.646.002.231.009.444.069.613.235a.54.54 0 0 1 .062.726c-.056.075-.123.144-.183.215-.126.148-.302.2-.49.207-.32.013-.641.016-.962.014-.087 0-.121.026-.14.103-.114.45-.224.903-.35 1.352-.253.901-.535 1.794-.998 2.623a4.714 4.714 0 0 1-.833 1.094c-.483.47-1.055.791-1.738.91-.467.08-.938.108-1.398-.031-.39-.119-.66-.361-.764-.75l-.029-.114v-.173Z" clip-rule="evenodd"/></g><defs><clipPath id="a"><path fill="#fff" d="M0 0h24v24H0z"/></clipPath></defs></svg>