<svg xmlns="http://www.w3.org/2000/svg" fill="none" viewBox="0 0 24 24"><g clip-path="url(#a)"><path fill="#417BA4" d="M12 24c6.627 0 12-5.373 12-12S18.627 0 12 0 0 5.373 0 12s5.373 12 12 12"/><path fill="#fff" d="M6.595 8.512c-.021.144-.015.244.062.32-.1.172-.176.3-.25.443.075-.143.15-.268.25-.416.22.276.908.276 1.845-.027.11-.027.11.22.11.22 0 .138-.027.33-1.212.496-.33.055-.8.028-1.019-.22a.6.6 0 0 1-.083-.33c0-.028 0-.055.028-.111l.003-.005a.5.5 0 0 1 .052-.132c.027-.083.083-.138.138-.22-.028.054-.083.164-.138.22a.6.6 0 0 1 .138-.22zm.166-.355c.04-.06.084-.119.143-.178l-.082.11-.015.014q.044-.06.097-.124l-.082.11a1 1 0 0 0-.061.068m0 0q-.05.076-.104.152l-.01.01-.068.11zm.585-.66c.083-.068.165-.146.247-.207a.9.9 0 0 0-.165.331c-.028.082-.028.165.027.22l-.015.015c.182.203.777.143 1.53-.18a6 6 0 0 0 .716-.358c.083-.028.193.11.22.137.028.028.055.11 0 .165a4.7 4.7 0 0 1-.909.441c-.946.406-1.707.466-1.917.207l-.01.013c-.028-.082-.055-.137-.028-.247 0-.028 0-.055.027-.083a1 1 0 0 1 .082-.092 1 1 0 0 0-.109.12c0-.028.027-.083.027-.11.056-.111.11-.193.193-.304l.058-.045c.083-.117.206-.217.328-.34.22-.193.22-.193.33-.275l.049-.042q.116-.087.243-.173l.012-.006.042-.03a7.3 7.3 0 0 1 1.252-.658q.107-.06.214-.107l-.115.05q-.103.044-.208.084c-.11.028-.11.028-.332.138-.11.055-.11.055-.303.165-.082.055-.082.055-.275.165a6 6 0 0 0-.233.163c1.803-.887 1.677-.85 1.55-.8a5 5 0 0 0-.463.17c-.639.272-1.24.66-1.615 1.02a2 2 0 0 0-.148.136l.11-.1a2 2 0 0 0-.165.182c-.087.087-.173.156-.247.236m-1.564 6.39.02.067q.031.11.11.193-.076-.225-.144-.452a.7.7 0 0 0 .145.452 3 3 0 0 1-.138-.523c.495.688 2.369.523 4.765-.496 3.058-1.294 5.84-3.497 6.225-4.93.083-.357.028-.605-.166-.798.138.138.276.303.414.44.165.194.192.441.11.772-.386 1.459-3.222 3.69-6.363 5.012-2.726 1.186-4.782 1.24-4.979.264-.047-.16-.096-.368-.144-.512a1 1 0 0 0 .11.248l.017.058q-.002.052.004.103a1 1 0 0 1-.001-.095l-.003-.008zm4.472-8.151.038-.016c.826-.22 1.35-.11 1.24.358-.028.166-.138.33-.303.496-.138.055-.44 0-.496-.055q.207-.248.248-.413c.085-.364-.311-.462-.957-.293l-.029.01zm-.05.02.115-.036-.065.015zm-4.567 7.16v.02c-.078-.079-.107-.181-.11-.308a1 1 0 0 1-.005-.165q.006.078.005.157a1 1 0 0 1-.005-.163c-.008-.145-.022-.31-.022-.43a.8.8 0 0 0 .11.385q.002.126.013.262c-.013-.09-.013-.179-.013-.262 1.845 1.955 10.136-3.112 10.219-5.26.027-.385-.194-.523-.303-.605l.22.137.275.193c.221.193.303.468.221.826-.358 1.377-3.058 3.497-6.005 4.737-2.334 1.007-4.136 1.139-4.6.476m-.013-2.101.04-.165c-.055.22-.027.413.083.523l-.002.006a.7.7 0 0 0 .223.159c.082.11.027.385.027.385-.027.083-.055.193-.11.166-.276-.138-.385-.358-.358-.689a.63.63 0 0 0 .11.468l.003-.015a.64.64 0 0 1-.085-.425l.01-.071a.3.3 0 0 0-.01.071l.054-.385.056-.221v-.055zm.404-.676q-.078.165-.115.346a.52.52 0 0 1-.083-.414c0-.055 0-.083.028-.137q.079-.24.192-.468a.6.6 0 0 0 .055.495l-.017.041c.345.453 1.603.338 3.212-.344 2.066-.908 3.967-2.396 4.215-3.332.083-.357-.028-.578-.33-.689.054-.027.054-.027.22.028.11.028.193.055.247.055.358.138.496.386.386.771-.275 1.047-2.341 2.672-4.6 3.635-1.79.744-3.168.882-3.525.359zm4.25 7.937c-.33.01-.605-.024-.813-.101-.165-.083-.385-.165-.522-.248.336.14.777.174 1.284.124 2.902-.286 7.992-3.336 8.273-5.329l-.027.083q-.046.246-.055.496c0 .027 0 .054-.028.082-.33 1.184-2.671 3.03-5.233 4.13-1.154.493-2.152.737-2.878.763zm.322-1.133.05-.07q-.025.034-.048.07.628-.175 1.343-.456c.303-.082.413.111.413.111.027.027.027.138-.138.22a12 12 0 0 1-1.888.582l-.013.024.009-.023c-.976.205-1.717.175-2.102-.087-.137-.11-.33-.247-.468-.358.444.38 1.47.371 2.842-.013m-3.448-.593c-.11-.137-.248-.275-.33-.413.11.138.275.33.385.468a.06.06 0 0 0-.055-.055m4.38-10.823c.165 0 .385-.027.55-.027.579 0 .855.22.744.661-.138.523-.881 1.267-1.845 1.927-.193.083-.386-.165-.33-.275 0-.027.027-.027.027-.027.854-.579 1.487-1.212 1.625-1.68.11-.44-.248-.633-.882-.579zm3.305.634c.33.165.468.44.358.854-.33 1.239-2.754 3.14-5.399 4.268a13 13 0 0 1-1.432.523c-.248.028-.275-.303-.165-.468.027-.055.055-.055.083-.083.412-.11.853-.275 1.322-.468C12.11 9.714 14.396 7.896 14.7 6.74c.11-.413-.056-.688-.414-.826.165.083.386.166.55.247zM17.7 8.887l.083.138c.082.22.082.22.082.33v.028c-.082-.028-.247-.358-.274-.496 0-.165-.028-.275-.111-.385zm.579 1.46a1.05 1.05 0 0 1-.027.496c-.331 1.211-2.397 3-4.904 4.296-.275.11-.44-.083-.385-.276a.28.28 0 0 1 .138-.165c2.534-1.322 4.654-3.14 4.985-4.379a1.04 1.04 0 0 0 0-.578c.083.22.166.44.193.606m.193 1.157v.22c0 .11 0 .192-.028.33-.192.744-1.102 1.707-2.34 2.644-.194.138-.304-.055-.276-.193a.5.5 0 0 1 .137-.22c1.295-.964 2.231-1.956 2.424-2.727.028-.137.055-.275.028-.412zM7.069 8.28c-.027-.083-.054-.138-.027-.248-.027.11 0 .165.027.247M6.38 9.327a.6.6 0 0 1-.082-.33c0 .137 0 .22.083.33m-.468 1.157q-.124-.165-.082-.414a.52.52 0 0 0 .083.414m10.385.964a.38.38 0 0 1-.056.357c-1.211 1.102-3.001 2.204-4.875 3.002-2.782 1.157-4.875 1.24-5.068.248-.028-.083 0-.027.028-.055 0 .028 0 .165.11.33-.028-.055-.055-.082-.082-.137-.028-.028-.028-.055-.056-.083-.055-.082-.082-.192-.137-.275.523.688 2.45.55 4.93-.523 1.873-.799 3.663-1.928 4.875-3.002.22-.11.303.055.33.138m-6.969 5.039c.028.055.055.166-.055.193-.991.165-1.708.082-2.039-.276-.11-.137-.275-.33-.385-.468.303.386 1.047.496 2.121.33.193 0 .33.166.358.222zm8.676-2.01c.083-.165.166-.413.221-.578-.331 1.073-2.452 2.726-4.765 3.718-1.433.605-2.617.825-3.25.633.165.054.412.11.605.138 1.763.275 6.225-1.928 7.19-3.911m-1.432 1.983c0 .027-.055.11-.165.193a9.7 9.7 0 0 1-2.286 1.349c-.716.302-1.35.468-1.818.495h-.69c.552.028 1.35-.165 2.315-.55.964-.414 1.9-.964 2.589-1.543.028 0 .028-.027.055-.027 0 0 0 .027.027.027 0 0 0 .028-.027.056M5.83 9.96c0-.027.028-.082.028-.11.055-.165.165-.413.22-.579 0 .083-.028.139-.055.221a2.4 2.4 0 0 0-.193.468"/></g><defs><clipPath id="a"><path fill="#fff" d="M0 0h24v24H0z"/></clipPath></defs></svg>