<svg xmlns="http://www.w3.org/2000/svg" fill="none" viewBox="0 0 24 24"><g clip-path="url(#a)"><path fill="#417BA4" d="M12 24c6.627 0 12-5.373 12-12S18.627 0 12 0 0 5.373 0 12s5.373 12 12 12Z"/><path fill="#fff" d="M6.595 8.512c-.021.144-.015.244.062.32-.1.172-.176.3-.25.443.075-.143.15-.268.25-.416.22.276.908.276 1.845-.027.11-.027.11.22.11.22 0 .138-.027.33-1.212.496-.33.055-.8.028-1.019-.22a.583.583 0 0 1-.083-.33c0-.028 0-.055.028-.111a.512.512 0 0 1 .055-.137c.027-.083.083-.138.138-.22-.028.054-.083.164-.138.22a.6.6 0 0 1 .138-.22l.076-.018Zm.166-.355c.04-.06.084-.119.143-.178l-.082.11a.665.665 0 0 0-.015.014c.03-.04.061-.082.097-.124l-.082.11a.854.854 0 0 0-.061.068Zm0 0c-.035.051-.067.101-.104.152a.286.286 0 0 0-.01.01 4.663 4.663 0 0 0-.068.11l.182-.272Zm.585-.66c.083-.068.165-.146.247-.207a.923.923 0 0 0-.165.331c-.028.082-.028.165.027.22l-.015.015c.182.203.777.143 1.53-.18a5.83 5.83 0 0 0 .716-.358c.083-.028.193.11.22.137.028.028.055.11 0 .165a4.66 4.66 0 0 1-.909.441c-.946.406-1.707.466-1.917.207l-.01.013c-.028-.082-.055-.137-.028-.247 0-.028 0-.055.027-.083a.904.904 0 0 1 .082-.092 1.405 1.405 0 0 0-.109.12c0-.028.027-.083.027-.11.056-.111.11-.193.193-.304.02-.014.038-.03.058-.045.083-.117.206-.217.328-.34.22-.193.22-.193.33-.275a.54.54 0 0 1 .049-.042c.078-.058.158-.116.243-.173l.012-.006.042-.03a7.3 7.3 0 0 1 1.252-.658c.071-.04.143-.075.214-.107a5.315 5.315 0 0 1-.323.134c-.11.028-.11.028-.332.138-.11.055-.11.055-.303.165-.082.055-.082.055-.275.165a6.151 6.151 0 0 0-.233.163c1.803-.887 1.677-.85 1.55-.8a5.018 5.018 0 0 0-.463.17c-.639.272-1.24.66-1.615 1.02a1.564 1.564 0 0 0-.148.136 3.4 3.4 0 0 1 .11-.1 2.179 2.179 0 0 0-.165.182c-.087.087-.173.156-.247.236Zm-1.564 6.39a.897.897 0 0 0 .02.067.45.45 0 0 0 .11.193c-.05-.15-.099-.3-.144-.452a.697.697 0 0 0 .145.452 2.87 2.87 0 0 1-.138-.523c.495.688 2.369.523 4.765-.496 3.058-1.294 5.84-3.497 6.225-4.93.083-.357.028-.605-.166-.798.138.138.276.303.414.44.165.194.192.441.11.772-.386 1.459-3.222 3.69-6.363 5.011-2.726 1.188-4.782 1.24-4.979.265-.047-.16-.096-.368-.144-.512a.977.977 0 0 0 .11.248l.017.058c-.002.034 0 .07.004.103a.896.896 0 0 1-.001-.095l-.003-.008.018.205Zm4.472-8.151.038-.016c.826-.22 1.35-.11 1.24.358-.028.166-.138.33-.303.496-.138.055-.44 0-.496-.055.138-.165.22-.303.248-.413.085-.364-.311-.462-.957-.293l-.029.01.259-.087Zm-.05.02.115-.036-.065.015-.05.02Zm-4.567 7.16v.02c-.078-.079-.107-.181-.11-.308a.838.838 0 0 1-.005-.165c.004.052.005.104.005.157a.765.765 0 0 1-.005-.163c-.008-.145-.022-.31-.022-.43a.79.79 0 0 0 .11.385c0 .083.007.172.013.262-.013-.09-.013-.179-.013-.262 1.845 1.955 10.136-3.112 10.219-5.26.027-.385-.194-.523-.303-.605l.22.137.275.193c.221.193.303.468.221.826-.358 1.377-3.058 3.497-6.005 4.737-2.334 1.007-4.136 1.139-4.6.476Zm-.013-2.101.04-.165c-.055.22-.027.413.083.523a.4.4 0 0 0-.002.006.655.655 0 0 0 .223.159c.082.11.027.385.027.385-.027.083-.055.193-.11.166-.276-.138-.385-.358-.358-.689a.63.63 0 0 0 .11.468l.003-.015a.64.64 0 0 1-.085-.425l.01-.071a.302.302 0 0 0-.01.071l.054-.385.056-.221v-.055l-.041.248Zm.404-.676c-.052.11-.09.226-.115.346a.518.518 0 0 1-.083-.414c0-.055 0-.083.028-.137.052-.16.117-.317.192-.468a.604.604 0 0 0 .055.495l-.017.041c.345.453 1.603.338 3.212-.344 2.066-.908 3.967-2.396 4.215-3.332.083-.357-.028-.578-.33-.689.054-.027.054-.027.22.028.11.028.193.055.247.055.358.138.496.386.386.771-.275 1.047-2.341 2.672-4.6 3.635-1.79.744-3.168.882-3.525.359l.115-.346Zm4.25 7.937c-.33.01-.605-.024-.813-.101-.165-.083-.385-.165-.522-.248.336.14.777.174 1.284.124 2.902-.286 7.992-3.336 8.273-5.329l-.027.083c-.03.164-.05.33-.055.496 0 .027 0 .054-.028.082-.33 1.184-2.671 3.03-5.233 4.13-1.154.493-2.152.737-2.878.763h-.001Zm.322-1.133.05-.07c-.017.023-.032.046-.048.07.418-.117.867-.269 1.343-.456.303-.082.413.111.413.111.027.027.027.138-.138.22a12.06 12.06 0 0 1-1.888.582l-.013.024.009-.023c-.976.205-1.717.175-2.102-.087-.137-.11-.33-.247-.468-.358.444.38 1.47.371 2.842-.013Zm-3.448-.593c-.11-.137-.248-.275-.33-.413.11.138.275.33.385.468a.06.06 0 0 0-.055-.055Zm4.38-10.823c.165 0 .385-.027.55-.027.579 0 .855.22.744.661-.138.523-.881 1.267-1.845 1.927-.193.083-.386-.165-.33-.275 0-.027.027-.027.027-.027.854-.579 1.487-1.212 1.625-1.68.11-.44-.248-.633-.882-.579h.11Zm3.305.634c.33.165.468.44.358.854-.33 1.239-2.754 3.14-5.399 4.268a13.1 13.1 0 0 1-1.432.523c-.248.028-.275-.303-.165-.468.027-.055.055-.055.083-.083.412-.11.853-.275 1.322-.468C12.11 9.714 14.396 7.896 14.7 6.74c.11-.413-.056-.688-.414-.826.165.083.386.166.55.247v.001ZM17.7 8.887l.083.138c.082.22.082.22.082.33v.028c-.082-.028-.247-.358-.274-.496 0-.165-.028-.275-.111-.385l.221.385Zm.579 1.46a1.05 1.05 0 0 1-.027.496c-.331 1.211-2.397 3-4.904 4.296-.275.11-.44-.083-.385-.276a.282.282 0 0 1 .138-.165c2.534-1.322 4.654-3.14 4.985-4.379a1.037 1.037 0 0 0 0-.578c.083.22.166.44.193.606Zm.193 1.157v.22c0 .11 0 .192-.028.33-.192.744-1.102 1.707-2.34 2.644-.194.138-.304-.055-.276-.193a.502.502 0 0 1 .137-.22c1.295-.964 2.231-1.956 2.424-2.727.028-.137.055-.275.028-.412l.055.357ZM7.069 8.28c-.027-.083-.054-.138-.027-.248-.027.11 0 .165.027.247ZM6.38 9.327a.592.592 0 0 1-.082-.33c0 .137 0 .22.083.33Zm-.468 1.157Zm10.385.964a.377.377 0 0 1-.056.357c-1.211 1.102-3.002 2.204-4.875 3.002-2.782 1.157-4.875 1.24-5.068.248-.028-.083 0-.027.028-.055 0 .028 0 .165.11.33-.028-.055-.055-.082-.082-.137-.028-.028-.028-.055-.056-.083-.055-.082-.082-.192-.137-.275.523.688 2.45.55 4.93-.523 1.873-.799 3.663-1.928 4.875-3.002.22-.11.303.055.33.138Zm-6.969 5.039c.028.055.055.166-.055.193-.991.165-1.708.082-2.039-.276-.11-.137-.275-.33-.385-.468.303.386 1.047.496 2.121.33.193 0 .33.166.358.222v-.001Zm8.676-2.01c.083-.165.166-.413.221-.579-.331 1.074-2.452 2.727-4.765 3.719-1.433.605-2.617.825-3.25.633.165.054.412.11.605.138 1.763.275 6.225-1.928 7.19-3.911Zm-1.432 1.983c0 .027-.055.11-.165.193a9.645 9.645 0 0 1-2.286 1.349c-.716.302-1.35.468-1.818.495h-.69c.552.028 1.35-.165 2.315-.55.964-.414 1.9-.964 2.589-1.543.028 0 .028-.027.055-.027 0 0 0 .027.027.027 0 0 0 .028-.027.056ZM5.83 9.96c0-.027.028-.082.028-.11.055-.165.165-.413.22-.579 0 .083-.028.139-.055.221a2.402 2.402 0 0 0-.193.468Z"/></g><defs><clipPath id="a"><path fill="#fff" d="M0 0h24v24H0z"/></clipPath></defs></svg>