<svg xmlns="http://www.w3.org/2000/svg" fill="none" viewBox="0 0 24 24"><circle cx="12" cy="12" r="10" fill="#24996E"/><path fill="#fff" fill-rule="evenodd" d="M12.282 6.923c.215.169.59.73.8 1.14.215.423.162.7-.172.897-.117.07-.222.081-.81.094-.775.016-1.032-.024-1.208-.19a.546.546 0 0 1-.13-.555c.052-.174.5-.905.707-1.151.275-.33.55-.409.813-.235Zm1.736 3.522c.13.06.288.18.417.32.206.222 2.199 3.266 2.427 3.707.302.584.097 1.085-.51 1.243-.205.053-.77.061-4.352.061-3.581 0-4.147-.008-4.352-.061-.596-.155-.806-.643-.524-1.218.178-.364 2.196-3.458 2.412-3.7.22-.246.424-.371.69-.426.09-.018.933-.03 1.873-.027 1.708.007 1.71.007 1.918.101Z" clip-rule="evenodd"/></svg>