<svg xmlns="http://www.w3.org/2000/svg" fill="none" viewBox="0 0 24 24"><g clip-path="url(#a)"><path fill="#42C1CA" d="M12 24c6.627 0 12-5.373 12-12S18.627 0 12 0 0 5.373 0 12s5.373 12 12 12"/><path fill="#fff" d="M11.643 9.937c.231-.972.51-1.847.806-2.417.11-.273.551-.926 1.036-1.357.807-.719 1.712-.9 2.655-.31l-.083.132.083-.131c.481.302.674.612.59.905-.063.217-.301.392-.429.374a.77.77 0 0 1-.554-.15 1.05 1.05 0 0 1-.336-.45c-.132-.31-.305-.417-.517-.392a.73.73 0 0 0-.39.182l-.146.162a2.4 2.4 0 0 0-.3.395c-.297.493-.57 1.398-.95 3.271l2.512.368-.138 1.006-2.548-.373-.11.662-.027.166-.05.278 2.573.377-.147 1.005-2.634-.385c-.304 1.293-.705 2.678-.988 3.225-.11.274-.55.925-1.036 1.357-.807.718-1.712.901-2.655.31-.48-.302-.674-.614-.59-.906.063-.218.301-.392.429-.373a.77.77 0 0 1 .554.15q.209.151.336.449c.132.31.305.417.517.392a.73.73 0 0 0 .39-.183c.564-.628 1.011-1.839 1.577-4.635l-2.512-.369.139-1.006 2.548.373.11-.661q.036-.223.078-.445l-2.564-.375.147-1.005z"/></g><defs><clipPath id="a"><path fill="#fff" d="M0 0h24v24H0z"/></clipPath></defs></svg>