<svg xmlns="http://www.w3.org/2000/svg" fill="none" viewBox="0 0 24 24"><path fill="currentColor" fill-rule="evenodd" d="M21.962 11.374c.005.037.021.07.021.11v9.08c0 .792-.653 1.436-1.456 1.436h-8.743a1.449 1.449 0 0 1-1.458-1.437v-1.892a.833.833 0 0 1 1.666 0L12 20.405h8.333l-.014-8.391H17.82a.832.832 0 0 1-.832-.833V8.685h-1.664a.832.832 0 1 1 0-1.665h2.496c.018 0 .034.01.052.011a.79.79 0 0 1 .22.045c.027.009.052.015.077.027a.83.83 0 0 1 .24.162l3.24 3.237c.213.152.351.4.351.68 0 .068-.023.129-.038.192ZM20.318 6.16a.833.833 0 0 1-.832-.833.416.416 0 0 0-.417-.415c-.006 0-.011-.004-.018-.004-.006 0-.01.004-.017.004h-1.759a.82.82 0 0 1-.703 1.248.832.832 0 0 1-.588-.244l-1.25-1.248c-.011-.01-.014-.026-.024-.036a.821.821 0 0 1-.155-.232.836.836 0 0 1 0-.64.81.81 0 0 1 .155-.233c.01-.011.013-.025.024-.036l1.25-1.249a.834.834 0 0 1 1.177 0 .82.82 0 0 1 .114 1.005h1.759c.006 0 .011.004.017.004.007 0 .012-.004.018-.004 1.148 0 2.082.934 2.082 2.08 0 .46-.373.833-.833.833Zm-6.66.33v9.079c0 .793-.654 1.437-1.458 1.437H3.457A1.449 1.449 0 0 1 2 15.57V3.466a1.45 1.45 0 0 1 1.457-1.438h6.037c.017 0 .032.008.05.01a.84.84 0 0 1 .222.044c.026.01.052.016.077.028.086.04.167.09.237.159 0 .002.002.002.003.003l3.239 3.238c.213.15.352.398.352.678 0 .068-.024.128-.039.19.005.04.023.073.023.113Zm-1.665.53h-2.5a.832.832 0 0 1-.832-.833V3.692H3.665l.002 11.695H12l-.007-8.367ZM3.665 17.838c.46 0 .832.373.832.832 0 .23.187.417.417.417.007 0 .012.003.018.003.007 0 .012-.003.019-.003h1.758a.82.82 0 0 1 .114-1.005.832.832 0 0 1 1.178 0L9.25 19.33a.821.821 0 0 1 .242.578l.002.01a.842.842 0 0 1-.244.589L8 21.757a.83.83 0 0 1-1.177 0 .82.82 0 0 1-.114-1.005H4.951c-.007 0-.012-.003-.019-.004-.006 0-.011.004-.018.004a2.084 2.084 0 0 1-2.082-2.08c0-.46.373-.833.833-.833Z" clip-rule="evenodd"/></svg>