<svg xmlns="http://www.w3.org/2000/svg" fill="none" viewBox="0 0 24 24"><path fill="#62757E" fill-rule="evenodd" d="M5.957 3.517a.31.31 0 0 0-.308.308v16.35c0 .17.138.308.308.308h12.086c.17 0 .308-.137.308-.308v-8.53a2.44 2.44 0 0 0-2.44-2.441h-1.423a1.825 1.825 0 0 1-1.824-1.825V5.957a2.44 2.44 0 0 0-2.441-2.44zm0-1.517a1.825 1.825 0 0 0-1.824 1.825v16.35c0 1.008.817 1.825 1.824 1.825h12.086a1.825 1.825 0 0 0 1.824-1.825V11.29A9.29 9.29 0 0 0 10.578 2zm7.813 2.2c.262.53.41 1.126.41 1.757V7.38c0 .17.138.308.308.308h1.422c.631 0 1.228.148 1.758.41A7.8 7.8 0 0 0 13.77 4.2M12 18.94a3.755 3.755 0 0 1-3.75-3.75A3.755 3.755 0 0 1 12 11.44a3.755 3.755 0 0 1 3.75 3.75A3.755 3.755 0 0 1 12 18.94m-2.084-3.75c0 1.148.935 2.083 2.084 2.083.268 0 .522-.055.758-.148l-2.694-2.694a2.1 2.1 0 0 0-.148.758m1.327-1.936a2.1 2.1 0 0 1 .757-.147c1.148 0 2.083.934 2.083 2.082 0 .268-.055.522-.147.758z" clip-rule="evenodd"/></svg>