<svg xmlns="http://www.w3.org/2000/svg" fill="none" viewBox="0 0 24 24"><path fill="currentColor" fill-rule="evenodd" d="M19.833 22h-5a.833.833 0 0 1-.833-.833v-3.334c0-.46.373-.834.833-.834v-.833c0-1.378 1.122-2.5 2.5-2.5 1.379 0 2.5 1.122 2.5 2.5V17c.461 0 .834.374.834.834v3.334c0 .46-.373.833-.834.833Zm-1.666-5.004v-.83a.834.834 0 0 0-1.667 0V17h1.668l-.001-.003Zm.833 1.67h-3.333v1.667H19v-1.667Zm0-7.5a.833.833 0 1 1-1.667 0V9.5h-5a.833.833 0 0 1-.833-.834v-5.03H5.667v16.697H11.5a.833.833 0 0 1 0 1.667H5.667C4.747 22 4 21.252 4 20.333V3.667C4 2.747 4.747 2 5.667 2h6.666c.02 0 .036.01.055.01.074.006.145.02.214.044.028.01.056.017.083.03a.8.8 0 0 1 .23.156c.003.002.007.003.008.006l5.743 5.74c.026.02.039.051.063.073s.043.048.064.073a.806.806 0 0 1 .224.534c0 .029-.014.054-.017.081v2.42Zm-5.833-6.32v2.987h2.988l-2.988-2.988Z" clip-rule="evenodd"/></svg>