<svg xmlns="http://www.w3.org/2000/svg" fill="none" viewBox="0 0 24 24"><path fill="currentColor" fill-rule="evenodd" d="m17.678 18.666 1.911 1.911a.833.833 0 1 1-1.178 1.179l-1.91-1.91-1.912 1.91a.829.829 0 0 1-1.178 0 .833.833 0 0 1 0-1.179l1.91-1.91-1.91-1.911a.832.832 0 1 1 1.178-1.178l1.912 1.91 1.91-1.91a.832.832 0 1 1 1.178 1.178l-1.91 1.91ZM19 12.833a.833.833 0 0 1-1.666 0V9.502h-5c-.46 0-.781-.39-.781-.85V3.637H5.692l-.025 16.696h5a.834.834 0 0 1 0 1.667h-5C4.747 22 4 21.253 4 20.333V3.667C4 2.747 4.748 2 5.667 2h6.667c.017 0 .032.01.048.01.078.004.153.02.226.045.025.01.05.016.074.027a.801.801 0 0 1 .241.163l5.743 5.743c.026.02.04.051.064.074.023.022.041.047.062.07.13.148.225.325.225.537 0 .029-.014.053-.017.082v4.082Zm-5.833-7.988v2.99h2.989l-2.99-2.99Z" clip-rule="evenodd"/></svg>