<svg xmlns="http://www.w3.org/2000/svg" fill="none" viewBox="0 0 24 24"><path fill="currentColor" fill-rule="evenodd" d="M19.833 19.5h-1.665v1.667a.834.834 0 0 1-1.667 0V19.5h-1.668a.833.833 0 1 1 0-1.667h1.668v-1.667a.833.833 0 0 1 1.666 0v1.667h1.666a.833.833 0 1 1 0 1.667ZM19 12a.833.833 0 1 1-1.667 0V9.5h-5a.833.833 0 0 1-.833-.833V3.636H5.667v16.697H11.5a.833.833 0 1 1 0 1.667H5.667C4.747 22 4 21.252 4 20.333V3.667C4 2.748 4.747 2 5.667 2h6.666c.018 0 .033.01.051.01.076.005.15.02.221.045.027.01.053.016.078.028.085.039.164.09.233.157l.007.006 5.742 5.741c.027.019.04.05.063.072.024.023.044.048.065.074a.806.806 0 0 1 .224.534c0 .029-.014.054-.017.082V12Zm-5.833-7.155v2.988h2.988l-2.988-2.988Z" clip-rule="evenodd"/></svg>