<svg xmlns="http://www.w3.org/2000/svg" fill="none" viewBox="0 0 24 24"><path fill="#62757E" fill-rule="evenodd" d="M20.319 6.161a.833.833 0 0 1-.833-.833.417.417 0 0 0-.417-.415l-.018-.004-.017.004h-1.759a.82.82 0 0 1-.703 1.248.83.83 0 0 1-.588-.244l-1.25-1.248c-.011-.01-.014-.026-.024-.036a.8.8 0 0 1-.155-.232.84.84 0 0 1 0-.64.8.8 0 0 1 .155-.233c.01-.011.013-.025.024-.036l1.25-1.249a.834.834 0 0 1 1.177 0 .82.82 0 0 1 .114 1.005h1.759c.006 0 .011.004.017.004s.012-.004.018-.004c1.148 0 2.082.934 2.082 2.08 0 .46-.373.833-.832.833M3.665 17.84c.46 0 .832.373.832.832 0 .23.187.417.417.417l.018.003.019-.003h1.758a.82.82 0 0 1 .114-1.005.83.83 0 0 1 1.178 0l1.249 1.248a.82.82 0 0 1 .242.578l.002.01a.84.84 0 0 1-.244.589L8 21.757a.83.83 0 0 1-1.177 0 .82.82 0 0 1-.114-1.005H4.951q-.01-.001-.019-.004l-.018.004a2.084 2.084 0 0 1-2.081-2.08c0-.46.372-.833.832-.833m-.046-2.471V3.643h3.027c.823 0 1.497.67 1.497 1.506v1.025c0 .863.697 1.569 1.565 1.569h1.02a1.5 1.5 0 0 1 1.497 1.506v6.119zM2.019 3.61c0-.863.697-1.568 1.565-1.568h3.317c3.168 0 5.835 2.133 6.66 5.042H14.8q.085 0 .17.005l.085-.005c3.827 0 6.924 3.115 6.924 6.95v6.407c0 .863-.697 1.568-1.565 1.568h-8.676a1.567 1.567 0 0 1-1.565-1.568v-3.474H3.584a1.567 1.567 0 0 1-1.565-1.57zm9.753 13.357v3.442h8.606v-6.118c0-.835-.673-1.507-1.496-1.507h-1.02a1.567 1.567 0 0 1-1.566-1.568v-1.025c0-.835-.674-1.507-1.497-1.507h-.98q.006.153.006.308v6.406c0 .863-.697 1.569-1.565 1.569zm-2.03-11.82q0-.38-.087-.735a5.4 5.4 0 0 1 1.807 1.817 3 3 0 0 0-.733-.087h-.986zm8.066 4.308a5.36 5.36 0 0 1 1.807 1.817 3 3 0 0 0-.733-.088h-.986v-.993q0-.381-.088-.736" clip-rule="evenodd"/></svg>