<svg xmlns="http://www.w3.org/2000/svg" fill="none" viewBox="0 0 24 24"><path fill="currentColor" fill-rule="evenodd" d="M19.833 7.833c0 .03-.014.055-.016.083v9.917c0 .92-.747 1.667-1.665 1.667h-9.99a1.667 1.667 0 0 1-1.665-1.667V3.668c0-.92.747-1.668 1.665-1.668h5.828c.018 0 .033.01.05.01a.86.86 0 0 1 .22.045c.027.01.054.016.079.028a.828.828 0 0 1 .24.162l4.903 4.909c.026.018.039.05.063.072.025.022.043.048.066.074a.812.812 0 0 1 .222.533Zm-11.67 10h9.989V8.667H13.99a.832.832 0 0 1-.833-.834V3.637h-4.99l-.005 14.196ZM14.82 4.845V7h2.153L14.82 4.845Zm2.498 16.322c0 .46-.373.833-.832.833H5.665A1.667 1.667 0 0 1 4 20.333v-15a.832.832 0 1 1 1.665 0v15h10.822c.46 0 .832.373.832.834Z" clip-rule="evenodd"/></svg>