<svg xmlns="http://www.w3.org/2000/svg" fill="none" viewBox="0 0 24 24"><path fill="#62757E" fill-rule="evenodd" d="M10.26 4.323v11.452h8.44V9.798a1.46 1.46 0 0 0-1.46-1.46h-1.003a1.553 1.553 0 0 1-1.553-1.552V5.782a1.46 1.46 0 0 0-1.46-1.46H10.26Zm-.047-1.6c-.858 0-1.553.695-1.553 1.553v11.546c0 .858.695 1.553 1.553 1.553h8.534c.858 0 1.553-.695 1.553-1.553V9.547a6.824 6.824 0 0 0-6.824-6.824h-3.263Zm5.993 2.369c.05.222.078.453.078.69v.957h.957c.237 0 .468.027.69.078a5.251 5.251 0 0 0-1.725-1.725ZM4.789 4.636a.8.8 0 0 1 .8.8V18.2a2.2 2.2 0 0 0 2.2 2.2h8.673a.8.8 0 0 1 0 1.6H7.789a3.8 3.8 0 0 1-3.8-3.8V5.436a.8.8 0 0 1 .8-.8Zm3.11.8a.8.8 0 0 0-1.6 0V16.91a2.8 2.8 0 0 0 2.8 2.8h7.966a.8.8 0 0 0 0-1.6H9.1a1.2 1.2 0 0 1-1.2-1.2V5.435Z" clip-rule="evenodd"/></svg>