<svg xmlns="http://www.w3.org/2000/svg" fill="none" viewBox="0 0 24 24"><path fill="#62757E" fill-rule="evenodd" d="M5.957 3.517a.31.31 0 0 0-.308.308v16.35c0 .17.138.308.308.308h12.086c.17 0 .308-.137.308-.308v-8.53a2.44 2.44 0 0 0-2.44-2.441h-1.423a1.825 1.825 0 0 1-1.824-1.825V5.957a2.44 2.44 0 0 0-2.441-2.44zm0-1.517a1.825 1.825 0 0 0-1.824 1.825v16.35c0 1.008.817 1.825 1.824 1.825h12.086a1.825 1.825 0 0 0 1.824-1.825V11.29A9.29 9.29 0 0 0 10.578 2zm7.813 2.2c.262.53.41 1.126.41 1.757V7.38c0 .17.138.308.308.308h1.422c.631 0 1.228.148 1.758.41A7.8 7.8 0 0 0 13.77 4.2M12 18.462a3.34 3.34 0 0 1-3.334-3.335.833.833 0 0 1 1.667 0c0 .92.748 1.668 1.667 1.668s1.666-.748 1.666-1.668c0-.78-.541-1.432-1.268-1.612l.191.19a.832.832 0 0 1-.59 1.422.83.83 0 0 1-.588-.244l-1.667-1.666a.833.833 0 0 1 0-1.178l1.667-1.667a.832.832 0 1 1 1.178 1.179l-.277.276c1.698.168 3.021 1.575 3.021 3.3A3.34 3.34 0 0 1 12 18.462" clip-rule="evenodd"/></svg>