<svg xmlns="http://www.w3.org/2000/svg" fill="none" viewBox="0 0 24 24"><path fill="currentColor" fill-rule="evenodd" d="M20 8.668c0 .029-.013.054-.017.082v11.583c0 .919-.746 1.667-1.665 1.667H6.665A1.668 1.668 0 0 1 5 20.333V3.667C5 2.747 5.747 2 6.665 2h6.66c.037 0 .07.016.105.02.038.006.07.013.108.023a.82.82 0 0 1 .375.201l5.737 5.744c.027.02.04.051.063.073.024.022.042.047.063.071a.808.808 0 0 1 .224.536ZM6.665 20.333h11.654V9.501h-4.994a.833.833 0 0 1-.833-.833v-5.03H6.668l-.003 16.695Zm7.491-15.488v2.99h2.986l-2.986-2.99Zm-.919 6.782 3.33 6.667a.834.834 0 0 1-1.489.745L14.059 17h-3.133l-1.018 2.04a.831.831 0 1 1-1.49-.745l3.33-6.667c.282-.564 1.207-.564 1.49 0Zm-.01 3.706-.735-1.47-.734 1.47h1.469Z" clip-rule="evenodd"/></svg>