<svg xmlns="http://www.w3.org/2000/svg" fill="none" viewBox="0 0 24 24"><path fill="currentColor" fill-rule="evenodd" d="M20 17.2v1.6h-.914c-.076.29-.19.563-.34.816l.648.646-1.132 1.132-.648-.647a3.177 3.177 0 0 1-.813.34L16.8 22h-1.6v-.914a3.155 3.155 0 0 1-.815-.34l-.675.676-1.132-1.132.676-.675a3.166 3.166 0 0 1-.34-.815H12v-1.6h.914c.076-.29.19-.563.34-.814l-.648-.649 1.13-1.13.65.647c.252-.15.524-.264.815-.34V14h1.6v.915c.29.076.562.191.814.34l.619-.62 1.132 1.13-.619.622c.149.252.264.524.34.814H20Zm-4-.8a1.6 1.6 0 1 0 1.6 1.6c0-.882-.718-1.6-1.6-1.6Zm2.4-4.8a.8.8 0 1 1-1.6 0V9.2H12a.8.8 0 0 1-.8-.8V3.57H5.6V19.6h4a.8.8 0 1 1 0 1.6h-4c-.882 0-1.6-.717-1.6-1.6v-16C4 2.718 4.718 2 5.6 2H12c.018 0 .034.009.052.01a.81.81 0 0 1 .207.042c.027.009.052.015.078.027a.8.8 0 0 1 .227.154l.002.001L18.08 7.75c.025.017.038.048.06.069.024.021.042.047.063.071.123.141.213.31.213.512 0 .028-.013.05-.015.078v3.12Zm-5.6-6.87V7.6h2.869L12.8 4.731Z" clip-rule="evenodd"/></svg>