<svg xmlns="http://www.w3.org/2000/svg" fill="none" viewBox="0 0 24 24"><path fill="#62757E" fill-rule="evenodd" d="M8.67 13.667h.833a.833.833 0 0 1 0 1.666H8.67a.833.833 0 0 1 0-1.666m1.076 1.91a.834.834 0 0 1 1.177 1.178l-.832.833a.83.83 0 0 1-1.177 0 .833.833 0 0 1 0-1.177zm2.256-5.244c.459 0 .832.373.832.834V12a.833.833 0 0 1-1.665 0v-.833c0-.46.373-.834.833-.834m0 5.834c.459 0 .832.372.832.833v.833a.833.833 0 0 1-1.665 0V17c0-.46.373-.833.833-.833m1.074-.59a.83.83 0 0 1 1.177 0l.833.834a.833.833 0 0 1-1.178 1.177l-.832-.832a.834.834 0 0 1 0-1.179m1.421-.244a.833.833 0 0 1 0-1.666h.833a.833.833 0 0 1 0 1.666zm-.244-1.911a.83.83 0 0 1-1.177 0 .833.833 0 0 1 0-1.178l.832-.833a.833.833 0 0 1 1.177 1.178zm-3.918.245a.83.83 0 0 1-.589-.245l-.832-.834a.833.833 0 0 1 1.177-1.177l.833.833a.833.833 0 0 1-.589 1.423M5.957 3.517a.31.31 0 0 0-.308.308v16.35c0 .17.138.308.308.308h12.086c.17 0 .308-.137.308-.308v-8.53a2.44 2.44 0 0 0-2.44-2.441h-1.423a1.825 1.825 0 0 1-1.824-1.825V5.957a2.44 2.44 0 0 0-2.441-2.44zm0-1.517a1.825 1.825 0 0 0-1.824 1.825v16.35c0 1.008.817 1.825 1.824 1.825h12.086a1.825 1.825 0 0 0 1.824-1.825V11.29A9.29 9.29 0 0 0 10.578 2zm7.813 2.2c.262.53.41 1.126.41 1.757V7.38c0 .17.138.308.308.308h1.422c.631 0 1.228.148 1.758.41A7.8 7.8 0 0 0 13.77 4.2" clip-rule="evenodd"/></svg>