<svg xmlns="http://www.w3.org/2000/svg" fill="none" viewBox="0 0 24 24"><path fill="#62757E" fill-rule="evenodd" d="M5.957 3.517a.31.31 0 0 0-.308.308v16.35c0 .17.138.308.308.308h12.086c.17 0 .308-.137.308-.308v-8.53a2.44 2.44 0 0 0-2.44-2.441h-1.423a1.825 1.825 0 0 1-1.824-1.825V5.957a2.44 2.44 0 0 0-2.441-2.44zm0-1.517a1.825 1.825 0 0 0-1.824 1.825v16.35c0 1.008.817 1.825 1.824 1.825h12.086a1.825 1.825 0 0 0 1.824-1.825V11.29A9.29 9.29 0 0 0 10.578 2zm7.813 2.2c.262.53.41 1.126.41 1.757V7.38c0 .17.138.308.308.308h1.422c.631 0 1.228.148 1.758.41A7.8 7.8 0 0 0 13.77 4.2m-2.186 6.344v4.291a3 3 0 0 0-.832-.124c-1.401 0-2.498.916-2.498 2.086 0 1.168 1.097 2.081 2.498 2.081 1.4 0 2.497-.913 2.497-2.081v-4.312l1.091 1.039a.83.83 0 0 0 1.177-.03.834.834 0 0 0-.03-1.18L12.99 9.94a.833.833 0 0 0-1.406.604m-.832 6.668c-.509 0-.833-.272-.833-.415 0-.147.316-.419.833-.419.515 0 .832.272.832.419 0 .143-.324.415-.832.415" clip-rule="evenodd"/></svg>