<svg xmlns="http://www.w3.org/2000/svg" fill="none" viewBox="0 0 24 24"><path fill="currentColor" fill-rule="evenodd" d="M20.082 17.895c-.008.008-.018.01-.025.017-.009.009-.011.02-.02.029l-3.414 3.416c-.021.022-.05.03-.074.05a.834.834 0 0 1-.295.152c-.021.005-.038.02-.06.025l-2.033.4a.83.83 0 0 1-.75-.228.832.832 0 0 1-.23-.75l.399-2.034c.006-.03.025-.052.033-.08a.798.798 0 0 1 .055-.133.786.786 0 0 1 .108-.162c.013-.017.019-.037.034-.053l3.415-3.417c.008-.007.02-.01.027-.017.008-.008.01-.02.018-.028.752-.752 2.063-.752 2.813 0 .376.376.584.875.584 1.408a1.975 1.975 0 0 1-.585 1.405Zm-1.177-1.634c-.167-.167-.29-.166-.456-.001-.007.008-.018.01-.027.018-.007.009-.01.02-.018.028l-3.237 3.24-.111.563.57-.112 3.232-3.235c.009-.008.02-.01.029-.018.008-.01.01-.02.02-.03a.321.321 0 0 0-.002-.453ZM18.999 12a.833.833 0 0 1-1.666 0V9.5h-5a.832.832 0 0 1-.833-.832v-5.03H5.667v16.694h5a.833.833 0 1 1 0 1.667h-5A1.667 1.667 0 0 1 4 20.332V3.667C4 2.747 4.747 2 5.667 2h6.665c.018 0 .033.01.05.01.077.004.15.02.224.045.026.01.052.016.076.028.086.04.169.09.239.16l.002.002 5.741 5.742c.027.019.04.05.063.072.026.023.044.05.066.075a.804.804 0 0 1 .223.534c0 .029-.013.053-.017.082V12Zm-5.832-7.155v2.99h2.987l-2.987-2.99Z" clip-rule="evenodd"/></svg>