<svg xmlns="http://www.w3.org/2000/svg" fill="none" viewBox="0 0 24 24"><path fill="#62757E" fill-rule="evenodd" d="M16 13.907v1.6h-.914c-.076.29-.19.563-.34.816l.648.647-1.132 1.131-.648-.647a3.18 3.18 0 0 1-.813.34l-.001.914-1.6-.001v-.913a3.158 3.158 0 0 1-.815-.34l-.675.675-1.132-1.131.676-.676a3.167 3.167 0 0 1-.34-.815H8v-1.6h.914c.076-.29.19-.562.34-.814l-.648-.648 1.13-1.132.65.648c.252-.15.524-.264.815-.34v-.914h1.6v.915c.29.075.562.19.814.339l.619-.619 1.132 1.13-.619.621c.149.252.264.524.34.814H16Zm-4-.8a1.6 1.6 0 1 0 1.6 1.6c0-.882-.718-1.6-1.6-1.6Zm-6.043-9.59a.308.308 0 0 0-.308.308v16.35c0 .17.138.308.308.308h12.086c.17 0 .308-.137.308-.308v-8.53a2.44 2.44 0 0 0-2.44-2.441h-1.423a1.825 1.825 0 0 1-1.824-1.825V5.957a2.44 2.44 0 0 0-2.441-2.44H5.957Zm0-1.517a1.825 1.825 0 0 0-1.824 1.825v16.35c0 1.008.817 1.825 1.824 1.825h12.086a1.825 1.825 0 0 0 1.824-1.825V11.29A9.29 9.29 0 0 0 10.578 2h-4.62Zm7.813 2.2c.262.53.41 1.126.41 1.757V7.38c0 .17.138.308.308.308h1.422c.631 0 1.228.148 1.758.41A7.802 7.802 0 0 0 13.77 4.2Z" clip-rule="evenodd"/></svg>