<svg xmlns="http://www.w3.org/2000/svg" fill="none" viewBox="0 0 24 24"><path fill="currentColor" fill-rule="evenodd" d="M19.983 8.768V12a.832.832 0 0 1-1.665 0V9.518h-4.994a.833.833 0 0 1-.832-.832V3.664H6.665l.003 16.692h7.5c.46 0 .82.324.82.784s-.372.832-.832.832H6.665A1.666 1.666 0 0 1 5 20.308V3.664C5 2.746 5.747 2 6.665 2h6.66c.267 0 .493.134.646.329l5.678 5.678.004.005c.083.064.15.14.205.233.017.026.039.049.053.078.016.037.018.079.029.119.025.079.06.156.06.244 0 .029-.013.054-.017.082Zm-5.827-3.9v2.985h2.986L14.156 4.87Zm3.33 9.642c.46 0 .832.373.832.832v3.33a.832.832 0 1 1-1.664 0v-3.33c0-.459.373-.832.832-.832Zm.592 6.067c.149.158.24.374.24.59a.877.877 0 0 1-.24.592.878.878 0 0 1-.592.241.863.863 0 0 1-.59-.241.858.858 0 0 1-.242-.591c0-.217.091-.433.241-.591.308-.308.866-.308 1.183 0Z" clip-rule="evenodd"/></svg>