<svg xmlns="http://www.w3.org/2000/svg" fill="none" viewBox="0 0 24 24"><path fill="currentColor" fill-rule="evenodd" d="M19.984 7.914v12.64c0 .797-.646 1.446-1.438 1.446H6.438A1.444 1.444 0 0 1 5 20.555V3.444C5 2.647 5.646 2 6.438 2h7.72c.038 0 .07.017.107.022a.64.64 0 0 1 .104.02c.143.04.276.1.377.202l4.904 4.909c.026.018.04.05.063.072.024.023.043.048.064.074a.806.806 0 0 1 .223.533c0 .03-.013.053-.016.082Zm-4.994-3.07V7h2.152L14.99 4.844Zm3.33 3.822h-4.163a.833.833 0 0 1-.832-.834V3.637H6.668l-.002 16.696h11.653V8.666Zm-9.99 1.667h8.324c.46 0 .833.373.833.834v6.666c0 .46-.372.834-.832.834H8.33a.833.833 0 0 1-.832-.834v-6.666c0-.46.372-.834.832-.834ZM15.822 12h-3.33v1.667h3.33V12Zm0 3.333h-3.33V17h3.33v-1.667ZM9.162 17h1.666v-1.667H9.163V17Zm0-3.333h1.666V12H9.163v1.667Z" clip-rule="evenodd"/></svg>