<svg xmlns="http://www.w3.org/2000/svg" fill="none" viewBox="0 0 24 24"><path fill="currentColor" fill-rule="evenodd" d="M19.983 8.75v11.582c0 .92-.747 1.668-1.665 1.668H6.665A1.668 1.668 0 0 1 5 20.332V3.668C5 2.747 5.747 2 6.665 2h6.66c.037 0 .07.017.105.02a.78.78 0 0 1 .107.023.82.82 0 0 1 .375.201l5.737 5.744c.026.02.04.05.063.074.025.021.042.046.063.07.13.148.225.325.225.536 0 .03-.014.054-.017.082Zm-5.827-3.905v2.99h2.985l-2.984-2.99Zm4.162 4.657h-4.994a.833.833 0 0 1-.832-.834v-5.03H6.667l-.002 16.695h11.654V9.502Zm-9.156 4.165h.832a.833.833 0 0 1 0 1.666h-.832a.833.833 0 0 1 0-1.666Zm1.076 1.91a.834.834 0 0 1 1.177 1.178l-.832.833a.83.83 0 0 1-1.178 0 .833.833 0 0 1 0-1.177l.833-.834Zm2.255-5.244c.46 0 .833.373.833.834V12a.833.833 0 0 1-1.665 0v-.833c0-.46.372-.834.832-.834Zm0 5.834c.46 0 .833.372.833.833v.833a.833.833 0 0 1-1.665 0V17c0-.46.372-.833.832-.833Zm1.074-.59a.831.831 0 0 1 1.178 0l.832.834a.833.833 0 0 1-1.177 1.177l-.833-.832a.834.834 0 0 1 0-1.179Zm1.422-.244a.833.833 0 0 1 0-1.666h.832a.833.833 0 0 1 0 1.666h-.832Zm-.244-1.911a.83.83 0 0 1-1.178 0 .833.833 0 0 1 0-1.178l.833-.833a.833.833 0 0 1 1.177 1.178l-.832.833Zm-3.918.245a.83.83 0 0 1-.59-.245l-.832-.834a.833.833 0 0 1 1.178-1.177l.832.833a.833.833 0 0 1-.588 1.423Z" clip-rule="evenodd"/></svg>