<svg xmlns="http://www.w3.org/2000/svg" fill="none" viewBox="0 0 24 24"><path fill="currentColor" fill-rule="evenodd" d="M19.833 18.68H15.18l1.077 1.078a.833.833 0 1 1-1.178 1.178l-2.498-2.498a.84.84 0 0 1-.182-.271.858.858 0 0 1-.051-.253c-.002-.024-.014-.043-.014-.066v-.001c0-.112.023-.22.065-.322.031-.074.082-.136.132-.197.018-.022.027-.05.048-.07l2.5-2.5a.833.833 0 1 1 1.178 1.179l-1.079 1.077h4.656a.834.834 0 0 1 0 1.667Zm-.816-9.984c0 .03-.014.054-.017.083v4.068a.833.833 0 0 1-1.667 0v-3.36h-5c-.46 0-.833-.33-.833-.791V3.667H5.667v16.666h5a.834.834 0 0 1 0 1.667h-5C4.747 22 4 21.253 4 20.333V3.667C4 2.748 4.747 2 5.667 2h6.666a.82.82 0 0 1 .647.329l5.686 5.687a.813.813 0 0 1 .21.24c.017.027.037.048.05.076.017.037.02.08.03.121.026.08.06.155.06.243Zm-5.85-3.823v2.99h2.988l-2.988-2.99Z" clip-rule="evenodd"/></svg>