<svg xmlns="http://www.w3.org/2000/svg" fill="none" viewBox="0 0 24 24"><path fill="#62757E" fill-rule="evenodd" d="M8.12 3.745c0-.062.05-.113.113-.113h3.654a1.94 1.94 0 0 1 1.94 1.94v1.219c0 .946.768 1.713 1.714 1.713h1.218a1.94 1.94 0 0 1 1.941 1.94v7.31c0 .062-.05.113-.114.113H8.233a.114.114 0 0 1-.114-.114V3.745Zm-1.6 0c0-.946.766-1.713 1.713-1.713h3.959A8.108 8.108 0 0 1 20.3 10.14v7.613c0 .947-.767 1.714-1.714 1.714H8.233a1.714 1.714 0 0 1-1.714-1.714V3.745Zm8.908 1.827c0-.418-.073-.82-.207-1.193a6.537 6.537 0 0 1 2.732 2.731 3.534 3.534 0 0 0-1.194-.206h-1.218a.114.114 0 0 1-.113-.113V5.572Zm-9.839-.136a.8.8 0 0 0-1.6 0V18.2a3.8 3.8 0 0 0 3.8 3.8h8.673a.8.8 0 0 0 0-1.6H7.789a2.2 2.2 0 0 1-2.2-2.2V5.436Z" clip-rule="evenodd"/></svg>