<svg xmlns="http://www.w3.org/2000/svg" fill="none" viewBox="0 0 24 24"><mask id="a" width="24" height="24" x="0" y="0" maskUnits="userSpaceOnUse" style="mask-type:alpha"><path fill="#fff" fill-rule="evenodd" d="M0 0h24v24H0z" clip-rule="evenodd"/></mask><g fill-rule="evenodd" clip-rule="evenodd" mask="url(#a)"><path fill="#0090FF" d="M12 22C6.5 22 2 17.5 2 11.95c.05-5.5 4.5-10 10.05-9.95 5.5.05 9.95 4.5 9.95 10.1-.05 5.45-4.5 9.9-10 9.9"/><path fill="#fff" d="m12.897 10.856-.307 1.563 2.923.39-.205.733-2.872-.39c-.205.635-.308 1.318-.564 1.905-.257.683-.513 1.367-.82 2.002-.411.83-1.129 1.417-2.103 1.563-.564.098-1.18.049-1.641-.293-.154-.098-.308-.293-.308-.44 0-.195.103-.44.256-.537.103-.049.36 0 .513.049.154.147.308.342.41.537.308.391.718.44 1.129.147.461-.39.718-.928.872-1.466.307-1.172.615-2.295.871-3.467v-.196l-2.718-.39.103-.733 2.82.39.36-1.514-2.924-.44.103-.78 3.025.39c.103-.293.154-.537.257-.781.256-.88.513-1.759 1.128-2.54s1.334-1.27 2.41-1.221c.462 0 .923.146 1.231.488.051.049.154.147.154.244 0 .196 0 .44-.154.586-.205.147-.461.098-.666-.097-.154-.147-.257-.293-.41-.44-.309-.39-.77-.44-1.129-.098a3.1 3.1 0 0 0-.667.928c-.359 1.026-.615 2.1-.974 3.175l2.82.391-.205.733z"/></g></svg>