<svg xmlns="http://www.w3.org/2000/svg" fill="none" viewBox="0 0 24 24"><path fill="currentColor" fill-rule="evenodd" d="M19.833 19.502h-5a.833.833 0 1 1 0-1.666h5a.834.834 0 0 1 0 1.666ZM19 15.284a.833.833 0 1 1-1.667 0V9.499h-5a.833.833 0 0 1-.833-.833v-5.03H5.667v16.697h6.666a.834.834 0 0 1 0 1.667H5.667C4.747 22 4 21.253 4 20.333V3.667C4 2.747 4.747 2 5.667 2h6.666c.018 0 .033.01.05.01a.81.81 0 0 1 .223.045c.027.01.052.016.076.028.087.04.169.09.239.16l.002.001 5.742 5.743c.027.018.04.05.063.071.024.023.044.049.065.075a.806.806 0 0 1 .224.533c0 .03-.014.054-.017.083v6.535ZM13.167 4.845v2.988h2.988l-2.988-2.988Z" clip-rule="evenodd"/></svg>