<svg xmlns="http://www.w3.org/2000/svg" fill="none" viewBox="0 0 24 24"><path fill="#62757E" fill-rule="evenodd" d="M9.254 15.032a.83.83 0 0 1 1.127-.193l.622.415 1.577-1.918a.833.833 0 0 1 1.347.084l2.106 3.333a.834.834 0 0 1-.704 1.279H8.67a.834.834 0 0 1-.665-1.334zm.667-2a1.25 1.25 0 1 1 0-2.5 1.249 1.249 0 0 1 0 2.5M5.957 3.517a.31.31 0 0 0-.308.308v16.35c0 .17.138.308.308.308h12.086c.17 0 .308-.137.308-.308v-8.53a2.44 2.44 0 0 0-2.441-2.441h-1.422a1.825 1.825 0 0 1-1.824-1.825V5.957a2.44 2.44 0 0 0-2.441-2.44zm0-1.517a1.825 1.825 0 0 0-1.824 1.825v16.35c0 1.008.817 1.825 1.824 1.825h12.086a1.825 1.825 0 0 0 1.824-1.825V11.29A9.29 9.29 0 0 0 10.578 2zm7.812 2.2a3.94 3.94 0 0 1 .411 1.757V7.38c0 .17.138.308.308.308h1.422c.631 0 1.228.148 1.758.41A7.8 7.8 0 0 0 13.769 4.2" clip-rule="evenodd"/></svg>