<svg xmlns="http://www.w3.org/2000/svg" fill="none" viewBox="0 0 24 24"><path fill="#62757E" fill-rule="evenodd" d="M15.506 18.098a.83.83 0 0 1-1.178 0l-1.062-1.062a3.3 3.3 0 0 1-1.682.472 3.34 3.34 0 0 1-3.334-3.333 3.34 3.34 0 0 1 3.334-3.333 3.337 3.337 0 0 1 3.333 3.333 3.3 3.3 0 0 1-.473 1.682l1.062 1.062a.833.833 0 0 1 0 1.178m-3.922-5.59c-.92 0-1.667.748-1.667 1.667 0 .92.748 1.667 1.667 1.667a1.668 1.668 0 0 0 0-3.333M5.957 3.517a.31.31 0 0 0-.308.308v16.35c0 .17.138.308.308.308h12.086c.17 0 .308-.137.308-.308v-8.53a2.44 2.44 0 0 0-2.44-2.441h-1.423a1.825 1.825 0 0 1-1.824-1.825V5.957a2.44 2.44 0 0 0-2.441-2.44zm0-1.517a1.825 1.825 0 0 0-1.824 1.825v16.35c0 1.008.817 1.825 1.824 1.825h12.086a1.825 1.825 0 0 0 1.824-1.825V11.29A9.29 9.29 0 0 0 10.578 2zm7.813 2.2c.262.53.41 1.126.41 1.757V7.38c0 .17.138.308.308.308h1.422c.631 0 1.228.148 1.758.41A7.8 7.8 0 0 0 13.77 4.2" clip-rule="evenodd"/></svg>