<svg xmlns="http://www.w3.org/2000/svg" fill="none" viewBox="0 0 24 24"><path fill="#62757E" fill-rule="evenodd" d="M16.167 15.335c0 .112-.024.22-.066.322-.004.01-.014.018-.02.03a.816.816 0 0 1-.158.237l-2.5 2.499a.83.83 0 0 1-.59.243.833.833 0 0 1-.59-1.422l1.079-1.077H8.667a.834.834 0 0 1 0-1.667h4.654l-1.077-1.078a.833.833 0 1 1 1.179-1.178l2.495 2.497c.079.078.141.17.185.274.025.06.029.13.039.195.006.042.025.08.025.123v.002ZM5.957 3.518a.308.308 0 0 0-.308.308v16.35c0 .17.138.308.308.308h12.086c.17 0 .308-.137.308-.308v-8.53a2.44 2.44 0 0 0-2.44-2.441h-1.423a1.825 1.825 0 0 1-1.824-1.825V5.957a2.44 2.44 0 0 0-2.441-2.44H5.957Zm0-1.517a1.825 1.825 0 0 0-1.824 1.825v16.35c0 1.008.817 1.825 1.824 1.825h12.086a1.825 1.825 0 0 0 1.824-1.825V11.29A9.29 9.29 0 0 0 10.578 2h-4.62Zm7.813 2.2c.262.53.41 1.126.41 1.757V7.38c0 .17.138.308.308.308h1.422c.631 0 1.228.148 1.758.41A7.802 7.802 0 0 0 13.77 4.2Z" clip-rule="evenodd"/></svg>