<svg xmlns="http://www.w3.org/2000/svg" fill="none" viewBox="0 0 24 24"><path fill="currentColor" fill-rule="evenodd" d="M18.168 22a.834.834 0 0 1 0-1.667.834.834 0 0 0 0-1.666.833.833 0 1 1 0-1.667c1.378 0 2.499 1.122 2.499 2.5s-1.121 2.5-2.5 2.5ZM19 14.5a.834.834 0 0 1-1.667 0v-5h-5a.833.833 0 0 1-.833-.833V3.636H5.667v16.697h4.167a.833.833 0 1 1 0 1.667H5.667C4.747 22 4 21.252 4 20.333V3.667C4 2.748 4.747 2 5.667 2h6.666c.019 0 .034.01.051.01.076.005.149.02.221.045.027.01.053.016.078.028.085.039.164.09.232.156l.008.007 5.742 5.741c.027.019.04.05.063.072.024.023.044.048.065.074a.806.806 0 0 1 .224.534c0 .029-.014.054-.017.082V14.5Zm-5.833-9.655v2.988h2.988l-2.988-2.988ZM14 17a.833.833 0 1 1 0 1.667.834.834 0 0 0 0 1.666A.833.833 0 1 1 14 22a2.502 2.502 0 0 1-2.5-2.5c0-1.378 1.122-2.5 2.5-2.5Zm1.667 1.667h.833a.833.833 0 1 1 0 1.666h-.833a.834.834 0 0 1 0-1.666Z" clip-rule="evenodd"/></svg>