<svg xmlns="http://www.w3.org/2000/svg" fill="none" viewBox="0 0 24 24"><path fill="#62757E" fill-rule="evenodd" d="M14.084 17a.834.834 0 0 1 0-1.667.834.834 0 0 0 0-1.666.833.833 0 1 1 0-1.667c1.378 0 2.5 1.122 2.5 2.5s-1.122 2.5-2.5 2.5m-4.168-5a.833.833 0 1 1 0 1.667.834.834 0 0 0 0 1.666.833.833 0 1 1 0 1.667 2.5 2.5 0 0 1-2.499-2.5c0-1.378 1.121-2.5 2.5-2.5m1.667 1.667h.833a.833.833 0 1 1 0 1.666h-.833a.834.834 0 0 1 0-1.666" clip-rule="evenodd"/><path fill="#62757E" fill-rule="evenodd" d="M5.957 3.517a.31.31 0 0 0-.308.308v16.35c0 .17.138.308.308.308h12.086c.17 0 .308-.137.308-.308v-8.53a2.44 2.44 0 0 0-2.44-2.441h-1.423a1.825 1.825 0 0 1-1.824-1.825V5.957a2.44 2.44 0 0 0-2.441-2.44zm0-1.517a1.825 1.825 0 0 0-1.824 1.825v16.35c0 1.008.817 1.825 1.824 1.825h12.086a1.825 1.825 0 0 0 1.824-1.825V11.29A9.29 9.29 0 0 0 10.578 2zm7.813 2.2c.262.53.41 1.126.41 1.757V7.38c0 .17.138.308.308.308h1.422c.631 0 1.228.148 1.758.41A7.8 7.8 0 0 0 13.77 4.2" clip-rule="evenodd"/></svg>