<svg xmlns="http://www.w3.org/2000/svg" fill="none" viewBox="0 0 24 24"><path fill="#62757E" fill-rule="evenodd" d="m15.922 14.49-1.666 1.666a.83.83 0 0 1-1.179 0 .833.833 0 0 1 0-1.178l.245-.244h-1.6c-1.225 0-2.222 1.121-2.222 2.5a.833.833 0 1 1-1.667 0c0-2.297 1.745-4.167 3.89-4.167h1.599l-.245-.244a.832.832 0 1 1 1.179-1.178l1.666 1.667a.83.83 0 0 1 0 1.178M5.957 3.517a.31.31 0 0 0-.308.308v16.35c0 .17.138.308.308.308h12.086c.17 0 .308-.137.308-.308v-8.53a2.44 2.44 0 0 0-2.44-2.441h-1.423a1.825 1.825 0 0 1-1.824-1.825V5.957a2.44 2.44 0 0 0-2.441-2.44zm0-1.517a1.825 1.825 0 0 0-1.824 1.825v16.35c0 1.008.817 1.825 1.824 1.825h12.086a1.825 1.825 0 0 0 1.824-1.825V11.29A9.29 9.29 0 0 0 10.578 2zm7.813 2.2c.262.53.41 1.126.41 1.757V7.38c0 .17.138.308.308.308h1.422c.631 0 1.228.148 1.758.41A7.8 7.8 0 0 0 13.77 4.2" clip-rule="evenodd"/></svg>