<svg xmlns="http://www.w3.org/2000/svg" fill="none" viewBox="0 0 24 24"><path fill="#62757E" fill-rule="evenodd" d="M5.65 3.825c0-.17.137-.308.307-.308h4.266a2.44 2.44 0 0 1 2.44 2.44V7.38c0 1.008.817 1.825 1.825 1.825h1.422a2.44 2.44 0 0 1 2.44 2.44v8.531c0 .17-.137.308-.307.308H5.957a.31.31 0 0 1-.308-.308zm-1.517 0C4.133 2.817 4.95 2 5.957 2h4.621a9.29 9.29 0 0 1 9.29 9.29v8.885A1.825 1.825 0 0 1 18.042 22H5.957a1.825 1.825 0 0 1-1.824-1.825zM14.18 5.957c0-.63-.148-1.228-.41-1.757a7.8 7.8 0 0 1 3.898 3.898 3.94 3.94 0 0 0-1.758-.41h-1.422a.31.31 0 0 1-.308-.309zM10.301 16.04v-3.818a15 15 0 0 1 3.398 0v3.818l-1.364-.682a.75.75 0 0 0-.67 0zM12 10.627q-.97 0-1.913.11a1.46 1.46 0 0 0-1.286 1.458v5.058a.75.75 0 0 0 1.086.671L12 16.868l2.113 1.056a.75.75 0 0 0 1.086-.67v-5.059c0-.723-.53-1.37-1.286-1.458a17 17 0 0 0-1.913-.11" clip-rule="evenodd"/></svg>