<svg xmlns="http://www.w3.org/2000/svg" fill="none" viewBox="0 0 24 24"><path fill="currentColor" fill-rule="evenodd" d="M19.983 8.75v11.582c0 .92-.746 1.668-1.665 1.668H6.665A1.668 1.668 0 0 1 5 20.332V3.668C5 2.748 5.747 2 6.665 2h6.66c.037 0 .068.017.105.022.038.005.07.011.108.021.142.039.274.1.375.201L19.65 7.99c.027.018.04.05.063.072.025.022.043.047.065.072a.81.81 0 0 1 .223.535c0 .03-.013.054-.017.082Zm-5.827-3.905v2.99h2.986l-2.986-2.99Zm4.162 4.657h-4.994a.832.832 0 0 1-.832-.834V3.637H6.668l-.003 16.696h11.654V9.502Zm-8.571 6.164a.832.832 0 0 1 1.127-.193l.623.415 1.576-1.918a.833.833 0 0 1 1.347.084l2.106 3.333a.834.834 0 0 1-.703 1.279h-6.66a.834.834 0 0 1-.665-1.333l1.249-1.667Zm.667-2a1.25 1.25 0 1 1 0-2.5 1.249 1.249 0 0 1 0 2.5Z" clip-rule="evenodd"/></svg>