<svg xmlns="http://www.w3.org/2000/svg" fill="none" viewBox="0 0 24 24"><path fill="currentColor" fill-rule="evenodd" d="M19.99 17.052a.792.792 0 0 1-.045.22c-.01.026-.016.052-.028.078a.816.816 0 0 1-.161.24l-4.167 4.165A.827.827 0 0 1 15 22H6.672C5.752 22 5 21.25 5 20.328V4.505c0-.922.75-1.672 1.671-1.672h1.69c0-.46.346-.833.806-.833H12.5c.46 0 .833.373.833.833h4.995c.922 0 1.672.75 1.672 1.672V17c0 .018-.01.033-.01.052Zm-4.157 2.103 1.322-1.322h-1.322v1.322Zm-4.126-15.29c-.017-.064-.04-.128-.04-.198H10v4.485l.46-.231a.837.837 0 0 1 .746 0l.5-.088V3.866Zm1.626.635v5a.834.834 0 0 1-1.206.746l-1.293-.648-1.295.648a.836.836 0 0 1-.81-.037c-.246-.152-.368-.42-.368-.709v-5H6.67l-.005 15.828 7.55.005V17c0-.46.324-.833.784-.833h3.4V4.5h-5.067Z" clip-rule="evenodd"/></svg>