<svg xmlns="http://www.w3.org/2000/svg" fill="none" viewBox="0 0 24 24"><path fill="#62757E" fill-rule="evenodd" d="M5.957 3.517a.308.308 0 0 0-.308.308v16.35c0 .17.138.308.308.308h12.086c.17 0 .308-.137.308-.308v-8.53a2.44 2.44 0 0 0-2.44-2.441h-1.423a1.825 1.825 0 0 1-1.824-1.825V5.957a2.44 2.44 0 0 0-2.441-2.44H5.957Zm0-1.517a1.825 1.825 0 0 0-1.824 1.825v16.35c0 1.008.817 1.825 1.824 1.825h12.086a1.825 1.825 0 0 0 1.824-1.825V11.29A9.29 9.29 0 0 0 10.578 2h-4.62Zm7.813 2.2c.262.53.41 1.126.41 1.757V7.38c0 .17.138.308.308.308h1.422c.631 0 1.228.148 1.758.41A7.802 7.802 0 0 0 13.77 4.2Zm-2.186 6.966v4.29a2.983 2.983 0 0 0-.832-.123c-1.401 0-2.498.916-2.498 2.086 0 1.167 1.097 2.08 2.498 2.08 1.4 0 2.497-.913 2.497-2.08v-4.312l1.091 1.038a.831.831 0 0 0 1.177-.03.834.834 0 0 0-.03-1.178l-2.497-2.375a.833.833 0 0 0-1.406.604Zm-.832 6.667c-.509 0-.833-.271-.833-.414 0-.148.316-.42.833-.42.515 0 .832.272.832.42 0 .142-.324.414-.832.414Z" clip-rule="evenodd"/></svg>