<svg xmlns="http://www.w3.org/2000/svg" fill="none" viewBox="0 0 24 24"><path fill="currentColor" fill-rule="evenodd" d="M19.91 8.327c.016.037.019.079.03.118.025.08.06.157.06.246 0 .029-.014.053-.017.081v3.234a.832.832 0 0 1-.832.833c-.46 0-.747-.38-.747-.84V9.494h-5.019a.838.838 0 0 1-.836-.834V3.665H6.665V20.32h4.994a.833.833 0 0 1 0 1.666H6.665A1.666 1.666 0 0 1 5 20.32V3.665C5 2.747 5.746 2 6.665 2h6.659c.267 0 .494.134.646.329l5.679 5.682c.001 0 .001.003.003.003a.826.826 0 0 1 .206.235c.017.028.038.05.052.078Zm-5.754-3.456v2.987h2.985L14.156 4.87Zm.59 13.209 1.149 1.15v-4.727c0-.46.299-.83.758-.83.46 0 .833.373.833.832v4.652l1.076-1.077a.831.831 0 1 1 1.177 1.177l-2.496 2.498a.834.834 0 0 1-.59.245.829.829 0 0 1-.588-.245l-2.498-2.498a.833.833 0 0 1 1.178-1.177Z" clip-rule="evenodd"/></svg>