<svg xmlns="http://www.w3.org/2000/svg" fill="none" viewBox="0 0 24 24"><path fill="#62757E" fill-rule="evenodd" d="M15.165 14.447c-.007.007-.017.01-.025.016-.008.01-.01.021-.019.03l-3.414 3.416c-.022.021-.05.03-.074.05a.832.832 0 0 1-.295.152c-.022.005-.039.02-.061.024l-2.033.4a.83.83 0 0 1-.75-.228.832.832 0 0 1-.229-.75l.399-2.034c.005-.03.025-.052.033-.08a.801.801 0 0 1 .055-.133.788.788 0 0 1 .107-.161c.014-.017.02-.037.035-.053l3.415-3.417c.008-.008.019-.01.027-.018.008-.008.01-.019.018-.027.751-.752 2.062-.752 2.813 0 .376.375.583.875.583 1.407a1.97 1.97 0 0 1-.585 1.406ZM5.957 3.517a.308.308 0 0 0-.308.308v16.35c0 .17.138.308.308.308h12.086c.17 0 .308-.137.308-.308v-8.53a2.44 2.44 0 0 0-2.44-2.441h-1.423a1.825 1.825 0 0 1-1.824-1.825V5.957a2.44 2.44 0 0 0-2.441-2.44H5.957Zm0-1.517a1.825 1.825 0 0 0-1.824 1.825v16.35c0 1.008.817 1.825 1.824 1.825h12.086a1.825 1.825 0 0 0 1.824-1.825V11.29A9.29 9.29 0 0 0 10.578 2h-4.62Zm7.813 2.2c.262.53.41 1.126.41 1.757V7.38c0 .17.138.308.308.308h1.422c.631 0 1.228.148 1.758.41A7.802 7.802 0 0 0 13.77 4.2Z" clip-rule="evenodd"/></svg>