<svg xmlns="http://www.w3.org/2000/svg" fill="none" viewBox="0 0 24 24"><path fill="#62757E" fill-rule="evenodd" d="m9.993 12.004-.248-.248a.832.832 0 1 1 1.177-1.179l1.833 1.836a3.8 3.8 0 0 1 1.388 1.39l1.774 1.775a.833.833 0 0 1-1.178 1.178l-.188-.189a3.8 3.8 0 0 1-1.132 1.933.83.83 0 0 1-1.176-.057.833.833 0 0 1 .057-1.177 2.12 2.12 0 0 0 .515-2.437l-1.085-1.086a2.1 2.1 0 0 0-.859-.185 2.13 2.13 0 0 0-1.58.706.832.832 0 1 1-1.238-1.115 3.8 3.8 0 0 1 1.94-1.145M5.957 3.517a.31.31 0 0 0-.308.308v16.35c0 .17.138.308.308.308h12.086c.17 0 .308-.137.308-.308v-8.53a2.44 2.44 0 0 0-2.44-2.441h-1.423a1.825 1.825 0 0 1-1.824-1.825V5.957a2.44 2.44 0 0 0-2.441-2.44zm0-1.517a1.825 1.825 0 0 0-1.824 1.825v16.35c0 1.008.817 1.825 1.824 1.825h12.086a1.825 1.825 0 0 0 1.824-1.825V11.29A9.29 9.29 0 0 0 10.578 2zm7.813 2.2c.262.53.41 1.126.41 1.757V7.38c0 .17.138.308.308.308h1.422c.631 0 1.228.148 1.758.41A7.8 7.8 0 0 0 13.77 4.2" clip-rule="evenodd"/></svg>