<svg xmlns="http://www.w3.org/2000/svg" fill="none" viewBox="0 0 24 24"><path fill="currentColor" fill-rule="evenodd" d="M19.983 8.751v11.582c0 .919-.746 1.667-1.665 1.667H6.665A1.668 1.668 0 0 1 5 20.332V3.668C5 2.747 5.747 2 6.665 2h6.66c.037 0 .07.017.106.02.037.006.07.013.106.023a.83.83 0 0 1 .376.201l5.736 5.744c.027.02.04.05.064.074.024.021.042.046.063.07a.812.812 0 0 1 .224.536c0 .03-.013.055-.017.083Zm-5.827-3.906v2.99h2.986l-2.986-2.99Zm4.162 4.657h-4.994a.833.833 0 0 1-.832-.834v-5.03H6.667l-.002 16.695h11.654V9.502ZM9.162 7c.46 0 .832.373.832.833V9.5a.833.833 0 1 1-1.664 0V7.833c0-.46.372-.833.832-.833Zm.244 7.744a.83.83 0 0 1 .588-.244h4.995a.83.83 0 0 1 .588.244l.833.833a.833.833 0 0 1-1.177 1.179l-.59-.59H10.34l-.589.59a.833.833 0 0 1-1.177-1.178l.833-.834Z" clip-rule="evenodd"/></svg>