<svg xmlns="http://www.w3.org/2000/svg" fill="none" viewBox="0 0 24 24"><path fill="currentColor" fill-rule="evenodd" d="M20.667 17.85c0 .111-.024.22-.066.32-.004.012-.014.02-.02.03a.816.816 0 0 1-.159.238l-2.5 2.498a.83.83 0 0 1-.589.244.833.833 0 0 1-.59-1.422l1.079-1.077h-4.655a.834.834 0 0 1 0-1.667h4.654l-1.077-1.078a.833.833 0 1 1 1.178-1.178l2.496 2.497c.079.078.141.17.184.274.026.06.03.13.04.195.006.042.025.08.025.123v.002Zm-1.65-9.155c0 .03-.014.054-.017.083v3.236a.833.833 0 0 1-1.667 0V9.486h-5c-.46 0-.833-.33-.833-.791V3.667H5.667v16.667H11.5a.833.833 0 1 1 0 1.666H5.667C4.747 22 4 21.252 4 20.334V3.667C4 2.748 4.747 2 5.667 2h6.666c.267 0 .495.134.647.33l5.685 5.686a.786.786 0 0 1 .208.238c.019.026.04.049.054.078.016.037.018.078.029.117.026.08.06.158.06.246Zm-5.85-3.822v2.989h2.988l-2.988-2.989Z" clip-rule="evenodd"/></svg>