<svg xmlns="http://www.w3.org/2000/svg" fill="none" viewBox="0 0 24 24"><path fill="#62757E" fill-rule="evenodd" d="M8.914 14.188a.833.833 0 0 1 0-1.178l2.499-2.498a.833.833 0 0 1 .568-.24c.007 0 .012-.004.019-.004.112 0 .22.023.322.065a.824.824 0 0 1 .21.14c.017.015.04.022.057.039l2.496 2.498a.833.833 0 0 1-1.176 1.178l-1.077-1.078v4.652c0 .46-.372.834-.832.834-.46 0-.76-.36-.76-.82V13.04l-1.149 1.148a.833.833 0 0 1-1.177 0ZM5.957 3.517a.308.308 0 0 0-.308.308v16.35c0 .17.138.308.308.308h12.086c.17 0 .308-.137.308-.308v-8.53a2.44 2.44 0 0 0-2.44-2.441h-1.423a1.825 1.825 0 0 1-1.824-1.825V5.957a2.44 2.44 0 0 0-2.441-2.44H5.957Zm0-1.517a1.825 1.825 0 0 0-1.824 1.825v16.35c0 1.008.817 1.825 1.824 1.825h12.086a1.825 1.825 0 0 0 1.824-1.825V11.29A9.29 9.29 0 0 0 10.578 2h-4.62Zm7.813 2.2c.262.53.41 1.126.41 1.757V7.38c0 .17.138.308.308.308h1.422c.631 0 1.228.148 1.758.41A7.802 7.802 0 0 0 13.77 4.2Z" clip-rule="evenodd"/></svg>