<svg xmlns="http://www.w3.org/2000/svg" fill="none" viewBox="0 0 24 24"><path fill="currentColor" fill-rule="evenodd" d="M19.983 8.75v11.584c0 .919-.747 1.666-1.665 1.666H6.665A1.667 1.667 0 0 1 5 20.334V3.667C5 2.747 5.747 2 6.665 2h6.66c.016 0 .03.008.048.01.077.004.151.02.224.045.025.009.051.015.075.027a.816.816 0 0 1 .24.162l5.737 5.744c.026.019.04.05.063.072.024.023.043.049.064.074a.803.803 0 0 1 .224.534c0 .03-.014.054-.017.083Zm-5.827-3.905v2.99h2.985l-2.984-2.99Zm4.162 4.656h-4.994a.833.833 0 0 1-.832-.833v-5.03H6.667l-.002 16.696h11.654V9.501Zm-7.832 2.503-.248-.248a.832.832 0 1 1 1.177-1.179l1.833 1.836a3.794 3.794 0 0 1 1.388 1.39l1.774 1.775a.833.833 0 0 1-1.178 1.178l-.188-.189A3.806 3.806 0 0 1 13.91 18.5a.828.828 0 0 1-1.175-.057.833.833 0 0 1 .057-1.177 2.12 2.12 0 0 0 .515-2.437l-1.085-1.086a2.105 2.105 0 0 0-.859-.185 2.13 2.13 0 0 0-1.58.706.832.832 0 1 1-1.238-1.115 3.785 3.785 0 0 1 1.94-1.145Z" clip-rule="evenodd"/></svg>