<svg xmlns="http://www.w3.org/2000/svg" fill="none" viewBox="0 0 24 24"><path fill="currentColor" fill-rule="evenodd" d="M18.334 22H6.666A1.668 1.668 0 0 1 5 20.333V3.666C5 2.747 5.747 2 6.666 2h9.167c.006 0 .01.003.016.003a.823.823 0 0 1 .574.242l3.332 3.332a.826.826 0 0 1 .18.27.832.832 0 0 1 .065.32v14.166c0 .92-.747 1.667-1.666 1.667ZM11.667 3.638H6.698l-.032 16.695 5.057.015v-1.404a.807.807 0 0 1-.056-.277c0-.099.024-.191.056-.279v-.555h-.89a.833.833 0 1 1 0-1.666h.89v-.555a.812.812 0 0 1-.056-.279.81.81 0 0 1 .056-.278v-.556h-.89a.832.832 0 1 1 0-1.666h.89v-.555a.811.811 0 0 1-.056-.278c0-.099.024-.19.056-.279V9.5h-.89c-.46 0-.785-.383-.785-.843V5.31c0-.46.325-.81.786-.81h.833v-.863Zm0 4.196h1.666V6.166h-1.666v1.668ZM18.422 6.6 15.46 3.638h-2.126V4.5h.833c.461 0 .834.372.834.833v3.334c0 .46-.373.833-.834.833h-.833v1.666h.833a.834.834 0 0 1 0 1.667h-.833V14.5h.833a.834.834 0 0 1 0 1.667h-.833v1.668h.833a.833.833 0 1 1 0 1.666h-.833v.852l5.09.015V6.601Z" clip-rule="evenodd"/></svg>