<svg xmlns="http://www.w3.org/2000/svg" fill="none" viewBox="0 0 24 24"><path fill="#62757E" fill-rule="evenodd" d="M9.476 2a.8.8 0 0 0 0 1.6h4.385c1.018 0 1.843.825 1.843 1.844v1.175c0 .928.752 1.68 1.68 1.68h1.174c1.018 0 1.844.826 1.844 1.845v7.05a.08.08 0 0 1-.082.082h-2.936a.8.8 0 0 0 0 1.6h2.936A1.68 1.68 0 0 0 22 17.194V9.85A7.85 7.85 0 0 0 14.154 2zm7.826 3.444c0-.383-.062-.75-.177-1.094a6.3 6.3 0 0 1 2.527 2.528 3.4 3.4 0 0 0-1.094-.178h-1.174a.08.08 0 0 1-.082-.081zM3.598 6.806c0-.046.037-.082.082-.082h3.523c1.018 0 1.844.825 1.844 1.844v1.175a1.68 1.68 0 0 0 1.68 1.681H11.9c1.018 0 1.843.826 1.843 1.845v7.05a.08.08 0 0 1-.082.082H3.68a.08.08 0 0 1-.082-.082zM2 6.806a1.68 1.68 0 0 1 1.68-1.681h3.817a7.85 7.85 0 0 1 7.845 7.85v7.344A1.68 1.68 0 0 1 13.662 22H3.68A1.68 1.68 0 0 1 2 20.32zm8.645 1.762c0-.382-.063-.75-.178-1.094a6.3 6.3 0 0 1 2.527 2.528 3.4 3.4 0 0 0-1.093-.177h-1.175a.08.08 0 0 1-.081-.082z" clip-rule="evenodd"/></svg>