<svg xmlns="http://www.w3.org/2000/svg" fill="none" viewBox="0 0 24 24"><path fill="currentColor" fill-rule="evenodd" d="m20.422 18.422-1.666 1.667a.83.83 0 0 1-1.178 0 .833.833 0 0 1 0-1.178l.244-.245h-1.6c-1.225 0-2.222 1.122-2.222 2.5a.833.833 0 1 1-1.667 0c0-2.296 1.746-4.166 3.89-4.166h1.599l-.245-.244a.832.832 0 1 1 1.179-1.178l1.666 1.667a.832.832 0 0 1 0 1.177ZM19 12.832a.833.833 0 0 1-1.666 0v-3.33h-5c-.46 0-.787-.39-.787-.85V3.637h-5.86l-.02 16.696h4.166a.834.834 0 0 1 0 1.667H5.667C4.747 22 4 21.253 4 20.333V3.667C4 2.747 4.747 2 5.667 2h6.666c.018 0 .032.01.049.01.078.004.152.02.226.045.025.01.05.016.074.027a.81.81 0 0 1 .238.16l.004.003 5.742 5.743c.026.02.04.051.064.073.023.023.041.048.062.072.13.147.225.324.225.536 0 .029-.014.053-.017.082v4.082Zm-5.833-7.987v2.99h2.988l-2.988-2.99Z" clip-rule="evenodd"/></svg>