<svg xmlns="http://www.w3.org/2000/svg" fill="none" viewBox="0 0 24 24"><path fill="#62757E" fill-rule="evenodd" d="m15.096 14.453-.955.978.226 1.395a.834.834 0 0 1-1.226.863l-1.14-.632-1.143.632a.834.834 0 0 1-1.225-.864l.227-1.394-.956-.978a.832.832 0 0 1 .47-1.406l1.288-.197.584-1.245a.834.834 0 0 1 1.509 0l.583 1.245 1.288.197a.831.831 0 0 1 .47 1.406m-2.45-.023a.83.83 0 0 1-.628-.47L12 13.92l-.018.04a.83.83 0 0 1-.629.47l-.123.018.116.12a.83.83 0 0 1 .227.716l-.02.115.044-.023c.25-.14.556-.14.807 0l.042.023-.018-.115a.83.83 0 0 1 .226-.717l.116-.119zM5.957 3.517a.31.31 0 0 0-.308.308v16.35c0 .17.138.308.308.308h12.086c.17 0 .308-.137.308-.308v-8.53a2.44 2.44 0 0 0-2.44-2.441h-1.423a1.825 1.825 0 0 1-1.824-1.825V5.957a2.44 2.44 0 0 0-2.441-2.44zm0-1.517a1.825 1.825 0 0 0-1.824 1.825v16.35c0 1.008.817 1.825 1.824 1.825h12.086a1.825 1.825 0 0 0 1.824-1.825V11.29A9.29 9.29 0 0 0 10.578 2zm7.813 2.2c.262.53.41 1.126.41 1.757V7.38c0 .17.138.308.308.308h1.422c.631 0 1.228.148 1.758.41A7.8 7.8 0 0 0 13.77 4.2" clip-rule="evenodd"/></svg>