<svg xmlns="http://www.w3.org/2000/svg" fill="none" viewBox="0 0 24 24"><path fill="#62757E" fill-rule="evenodd" d="M16.779 15.363a.84.84 0 0 1-.592.244.83.83 0 0 1-.45-.15c-.16 1.66-1.761 3.067-3.595 3.067-.456 0-.896-.088-1.307-.263a.83.83 0 0 1-.443-1.093.84.84 0 0 1 1.099-.44q.305.129.65.13c.88 0 1.717-.622 1.91-1.352a.83.83 0 0 1-.969-.143.83.83 0 0 1 0-1.178l1.257-1.25a.84.84 0 0 1 1.184 0l1.256 1.25a.83.83 0 0 1 0 1.178m-9.558-1.178a.83.83 0 0 1 1.042-.094c.16-1.66 1.762-3.066 3.596-3.066.45 0 .888.087 1.302.26a.83.83 0 0 1 .448 1.091.836.836 0 0 1-1.096.446c-1.014-.424-2.294.302-2.552 1.212a.83.83 0 0 1 .956.15.83.83 0 0 1 0 1.18l-1.255 1.25a.84.84 0 0 1-1.185 0l-1.256-1.25a.83.83 0 0 1 0-1.18M5.957 3.517a.31.31 0 0 0-.308.308v16.35c0 .17.138.308.308.308h12.086c.17 0 .308-.137.308-.308v-8.53a2.44 2.44 0 0 0-2.44-2.441h-1.423a1.825 1.825 0 0 1-1.824-1.825V5.957a2.44 2.44 0 0 0-2.441-2.44zm0-1.517a1.825 1.825 0 0 0-1.824 1.825v16.35c0 1.008.817 1.825 1.824 1.825h12.086a1.825 1.825 0 0 0 1.824-1.825V11.29A9.29 9.29 0 0 0 10.578 2zm7.813 2.2c.262.53.41 1.126.41 1.757V7.38c0 .17.138.308.308.308h1.422c.631 0 1.228.148 1.758.41A7.8 7.8 0 0 0 13.77 4.2" clip-rule="evenodd"/></svg>