<svg xmlns="http://www.w3.org/2000/svg" fill="none" viewBox="0 0 24 24"><path fill="#62757E" fill-rule="evenodd" d="M16.167 15.336q-.001.168-.066.32c-.004.012-.014.02-.02.03a.8.8 0 0 1-.158.238l-2.5 2.499a.83.83 0 0 1-.59.243.833.833 0 0 1-.59-1.422l1.079-1.077H8.667a.834.834 0 0 1 0-1.667h4.654l-1.077-1.078a.833.833 0 1 1 1.179-1.178l2.496 2.497q.118.117.184.274c.025.06.029.13.039.195.006.042.025.08.025.123zM5.957 3.515a.31.31 0 0 0-.308.309v16.35c0 .17.138.308.308.308h12.086c.17 0 .308-.137.308-.308v-8.53a2.44 2.44 0 0 0-2.44-2.441h-1.423a1.825 1.825 0 0 1-1.824-1.825V5.957a2.44 2.44 0 0 0-2.441-2.44zm0-1.516a1.825 1.825 0 0 0-1.824 1.825v16.35c0 1.008.817 1.825 1.824 1.825h12.086a1.825 1.825 0 0 0 1.824-1.825V11.29A9.29 9.29 0 0 0 10.578 2zm7.813 2.2c.262.53.41 1.126.41 1.757V7.38c0 .17.138.308.308.308h1.422c.631 0 1.228.148 1.758.41A7.8 7.8 0 0 0 13.77 4.2" clip-rule="evenodd"/></svg>