<svg xmlns="http://www.w3.org/2000/svg" fill="none" viewBox="0 0 24 24"><path fill="#62757E" fill-rule="evenodd" d="M15.334 15.388h-4.655l1.077 1.077a.833.833 0 1 1-1.178 1.179L8.08 15.145a.8.8 0 0 1-.182-.271 1 1 0 0 1-.051-.253c-.002-.023-.014-.043-.014-.066v-.002c0-.11.023-.22.066-.32.03-.074.081-.136.131-.197.019-.023.028-.051.048-.071l2.5-2.5a.833.833 0 1 1 1.178 1.18l-1.078 1.076h4.656a.834.834 0 0 1 0 1.667M5.957 3.517a.31.31 0 0 0-.308.308v16.35c0 .17.138.308.308.308h12.086c.17 0 .308-.137.308-.308v-8.53a2.44 2.44 0 0 0-2.44-2.441h-1.423a1.825 1.825 0 0 1-1.824-1.825V5.957a2.44 2.44 0 0 0-2.441-2.44zm0-1.517a1.825 1.825 0 0 0-1.824 1.825v16.35c0 1.008.817 1.825 1.824 1.825h12.086a1.825 1.825 0 0 0 1.824-1.825V11.29A9.29 9.29 0 0 0 10.578 2zm7.813 2.2c.262.53.41 1.126.41 1.757V7.38c0 .17.138.308.308.308h1.422c.631 0 1.228.148 1.758.41A7.8 7.8 0 0 0 13.77 4.2" clip-rule="evenodd"/></svg>