<svg xmlns="http://www.w3.org/2000/svg" fill="none" viewBox="0 0 24 24"><path fill="currentColor" fill-rule="evenodd" d="M17.333 22A3.338 3.338 0 0 1 14 18.666a.833.833 0 0 1 1.667 0 1.668 1.668 0 0 0 3.333 0c0-.78-.542-1.433-1.268-1.613l.19.191a.832.832 0 0 1-.589 1.422.829.829 0 0 1-.589-.244l-1.666-1.666a.833.833 0 0 1 0-1.179l1.666-1.666a.832.832 0 1 1 1.178 1.178l-.277.277c1.698.167 3.022 1.575 3.022 3.3A3.338 3.338 0 0 1 17.333 22ZM19 12a.834.834 0 0 1-1.667 0V9.5h-5a.834.834 0 0 1-.833-.833v-5.03H5.667v16.696h6.666a.833.833 0 1 1 0 1.667H5.667C4.747 22 4 21.252 4 20.333V3.667C4 2.748 4.747 2 5.667 2h6.666c.018 0 .033.01.05.01a.85.85 0 0 1 .223.045c.026.01.052.016.077.028a.812.812 0 0 1 .24.162l5.742 5.741c.027.02.04.051.064.073.024.023.043.048.064.074a.803.803 0 0 1 .224.534c0 .029-.014.054-.017.082V12Zm-5.833-7.155v2.988h2.988l-2.988-2.988Z" clip-rule="evenodd"/></svg>