<svg xmlns="http://www.w3.org/2000/svg" fill="none" viewBox="0 0 24 24"><path fill="currentColor" fill-rule="evenodd" d="m20.43 18.66-.956.978.227 1.395a.834.834 0 0 1-1.227.863l-1.14-.632-1.142.632a.834.834 0 0 1-1.226-.864l.228-1.394-.957-.978a.832.832 0 0 1 .47-1.406l1.288-.197.584-1.245a.834.834 0 0 1 1.51 0l.583 1.245 1.288.197a.831.831 0 0 1 .47 1.406Zm-2.45-.023a.834.834 0 0 1-.628-.47l-.019-.04-.018.04a.834.834 0 0 1-.629.47l-.122.018.116.12a.833.833 0 0 1 .226.716l-.019.115.043-.023a.832.832 0 0 1 .807 0l.043.023-.019-.115a.833.833 0 0 1 .226-.716l.116-.12-.123-.018ZM19 12a.834.834 0 1 1-1.667 0V9.5h-5c-.46 0-.798-.314-.798-.774v-5.06H5.667l.016 16.79h5.852c.46 0 .798.25.798.711 0 .46-.373.833-.833.833H5.667C4.747 22 4 21.253 4 20.334V3.666C4 2.747 4.747 2 5.667 2h6.666c.018 0 .032.01.049.01.077.004.152.02.225.045.026.01.051.016.075.027a.8.8 0 0 1 .24.162l5.743 5.743c.027.018.04.05.064.072.024.023.043.049.064.074a.806.806 0 0 1 .224.533c0 .03-.014.055-.017.083V12Zm-5.834-7.155v2.988h2.989l-2.989-2.988Z" clip-rule="evenodd"/></svg>