<svg xmlns="http://www.w3.org/2000/svg" fill="none" viewBox="0 0 24 24"><path fill="currentColor" fill-rule="evenodd" d="M20.154 7.384c0 .028-.014.05-.016.077l-.001 8.529c0 .77-.625 1.395-1.393 1.395h-8.742A1.395 1.395 0 0 1 8.61 15.99V3.394C8.61 2.626 9.234 2 10.002 2h4.757c.016 0 .03.008.046.01.07.004.138.018.204.04.025.01.049.016.072.026a.767.767 0 0 1 .218.147l.004.003 4.526 4.531c.025.017.037.047.06.067.022.02.038.044.058.067a.744.744 0 0 1 .207.493Zm-10.008 8.462H18.6l.002-7.691H14.76a.77.77 0 0 1-.768-.77V3.509h-3.837l-.008 12.337Zm5.382-11.22v1.99h1.987l-1.987-1.99Zm2.304 14.296c0 .425-.343.77-.768.77H7.72c-.78 0-1.414-.635-1.414-1.416v-13.2a.77.77 0 1 1 1.538 0v13.077h9.221c.425 0 .768.344.768.769Zm-2.305 2.308a.768.768 0 0 1-.768.769H5.413c-.78 0-1.413-.634-1.413-1.415v-13.2a.769.769 0 1 1 1.537 0V20.46h9.222c.425 0 .768.344.768.769Z" clip-rule="evenodd"/></svg>