<svg xmlns="http://www.w3.org/2000/svg" fill="none" viewBox="0 0 24 24"><path fill="currentColor" fill-rule="evenodd" d="M20 8.668c0 .029-.013.053-.017.082v11.583c0 .92-.746 1.667-1.665 1.667H6.665A1.667 1.667 0 0 1 5 20.333V3.667C5 2.748 5.747 2 6.665 2h6.66c.037 0 .068.017.104.022a.78.78 0 0 1 .108.021.82.82 0 0 1 .376.202l5.736 5.742c.026.02.04.051.063.072.025.024.044.05.066.075a.804.804 0 0 1 .222.534ZM6.665 20.333h11.654V9.501h-4.995a.833.833 0 0 1-.832-.833V3.636H6.668l-.003 16.697Zm7.491-15.487v2.988h2.986l-2.986-2.988Z" clip-rule="evenodd"/></svg>