<svg xmlns="http://www.w3.org/2000/svg" fill="none" viewBox="0 0 24 24"><path fill="#62757E" fill-rule="evenodd" d="M3.783 2.889A49 49 0 0 1 12 2.2c2.8 0 5.545.236 8.217.689A1.91 1.91 0 0 1 21.8 4.774v1.044a3.05 3.05 0 0 1-.893 2.157l-5.432 5.432a1.45 1.45 0 0 0-.425 1.025v2.927a3.05 3.05 0 0 1-1.686 2.728l-3.256 1.629A.8.8 0 0 1 8.95 21v-6.568a1.45 1.45 0 0 0-.425-1.025L3.093 7.975A3.05 3.05 0 0 1 2.2 5.818V4.774c0-.921.656-1.728 1.583-1.885M12 3.8c-2.71 0-5.365.228-7.95.666a.31.31 0 0 0-.25.308v1.044c0 .385.153.753.425 1.025l5.432 5.432a3.05 3.05 0 0 1 .893 2.157v5.274l2.098-1.05a1.45 1.45 0 0 0 .802-1.297v-2.927c0-.809.321-1.585.893-2.157l5.432-5.432a1.45 1.45 0 0 0 .425-1.025V4.774a.31.31 0 0 0-.25-.308A47.5 47.5 0 0 0 12 3.8" clip-rule="evenodd"/></svg>