<svg xmlns="http://www.w3.org/2000/svg" fill="none" viewBox="0 0 24 24"><path fill="#62757E" fill-rule="evenodd" d="M12 2.2c-2.8 0-5.545.236-8.217.689A1.907 1.907 0 0 0 2.2 4.774v1.044c0 .809.322 1.585.894 2.157l5.431 5.432c.272.272.425.64.425 1.025V21a.8.8 0 0 0 1.158.716l3.256-1.629a3.05 3.05 0 0 0 1.572-1.902.8.8 0 0 0-1.54-.433 1.45 1.45 0 0 1-.747.904l-2.099 1.05v-5.274a3.05 3.05 0 0 0-.893-2.157L4.225 6.843A1.45 1.45 0 0 1 3.8 5.818V4.774c0-.16.112-.284.25-.308A47.519 47.519 0 0 1 12 3.8c2.71 0 5.366.228 7.95.666.138.024.25.148.25.308v1.044c0 .385-.153.753-.424 1.025l-.844.844a.8.8 0 0 0 1.13 1.132l.845-.844a3.05 3.05 0 0 0 .893-2.157V4.774c0-.921-.656-1.728-1.583-1.885A49.118 49.118 0 0 0 12 2.2Zm9.602 10.409v1.6h-.914c-.076.29-.191.563-.34.816l.647.646-1.131 1.132-.648-.647a3.177 3.177 0 0 1-.814.34v.913h-1.6v-.914a3.155 3.155 0 0 1-.816-.34l-.675.676-1.131-1.132.675-.675a3.166 3.166 0 0 1-.339-.815h-.914v-1.6h.914c.075-.29.19-.563.34-.814l-.649-.649 1.131-1.13.65.646c.251-.149.524-.263.814-.339V9.41h1.6v.914c.29.076.563.191.815.34l.618-.62 1.133 1.13-.62.622c.15.252.265.524.34.814h.914Zm-4-.8a1.6 1.6 0 1 0 1.6 1.6c0-.882-.719-1.6-1.6-1.6Z" clip-rule="evenodd"/></svg>