<svg xmlns="http://www.w3.org/2000/svg" fill="none" viewBox="0 0 24 24"><path fill="#62757E" d="M19.8 14.934q.437.114.815.339l.618-.619 1.133 1.13-.619.62q.225.379.339.815H23v1.6h-.914a3.2 3.2 0 0 1-.34.816l.648.646-1.131 1.132-.649-.647a3.2 3.2 0 0 1-.813.34l-.001.913h-1.6l.001-.913a3.2 3.2 0 0 1-.816-.34l-.675.674-1.132-1.13.676-.676a3.2 3.2 0 0 1-.34-.816H15v-1.6h.914q.114-.436.34-.814l-.649-.647 1.131-1.132.65.648q.379-.226.815-.34v-.914h1.6zm-.8 1.485a1.6 1.6 0 0 0 0 3.2c.881 0 1.6-.718 1.6-1.6s-.718-1.6-1.6-1.6m-6-.215a.8.8 0 0 1 0 1.6h-3a.8.8 0 1 1 0-1.6zm4-5a.8.8 0 0 1 0 1.6H6a.8.8 0 1 1 0-1.6zm4-5a.8.8 0 0 1 0 1.6H3a.8.8 0 1 1 0-1.6z"/></svg>