<svg xmlns="http://www.w3.org/2000/svg" fill="none" viewBox="0 0 24 24"><path fill="#62757E" fill-rule="evenodd" d="M21.955 13.85c-.103.58-1.451 6.038-1.605 6.659-.003.017-.014.029-.019.045-.013.04-.031.074-.049.111a1 1 0 0 1-.094.157.8.8 0 0 1-.243.203c-.02.01-.033.03-.054.04-.082.038-2.059.935-4.956.935-2.779 0-4.663-.818-4.89-.92l-.006-.004-.033-.014c-.05-.024-.083-.063-.126-.094-.038-.028-.083-.044-.116-.08-.052-.052-1.267-1.312-2.637-3.568-1.257-2.072-3.175-3.876-3.194-3.894a.83.83 0 0 1-.05-1.163c1.205-1.336 3.77-1.5 5.176-.33l.446.442V4.52C9.505 3.035 10.531 2 12 2c1.466 0 2.49 1.032 2.49 2.51v5.07c.2-.022.411-.027.647.013.656.11 1.116.459 1.42.85a2.42 2.42 0 0 1 1.501-.063c.578.164.968.49 1.22.837a2.37 2.37 0 0 1 1.43.139c.969.425 1.447 1.38 1.247 2.494m-1.92-.971c-.334-.144-.77.09-.776.092a.84.84 0 0 1-.787.024.83.83 0 0 1-.46-.634c-.01-.047-.082-.286-.412-.38-.425-.12-.805.212-.81.216a.84.84 0 0 1-.821.196.83.83 0 0 1-.572-.622c-.01-.036-.13-.469-.535-.537a.69.69 0 0 0-.594.173l-.011.009a.83.83 0 0 1-.601.26.826.826 0 0 1-.82-.761q-.005-.02-.008-.041c0-.011-.006-.02-.006-.031V4.51c0-.561-.276-.846-.822-.846-.683 0-.826.465-.826.855v9.766a.82.82 0 0 1-.222.706l-.015.01a.83.83 0 0 1-.597.255.82.82 0 0 1-.682-.38l-1.723-1.715c-.483-.4-1.416-.467-2.128-.214.732.77 1.869 2.064 2.748 3.511 1.049 1.727 1.995 2.82 2.298 3.154.431.173 1.96.723 4.082.723 1.865 0 3.275-.418 3.899-.642.593-2.405 1.411-5.757 1.479-6.136.092-.515-.166-.63-.278-.678M7.007 5.329H4.849l.245.244a.83.83 0 0 1-.59 1.421.84.84 0 0 1-.59-.244l-1.67-1.664A.83.83 0 0 1 2 4.498v-.001a.83.83 0 0 1 .245-.59l1.668-1.663a.836.836 0 0 1 1.18 0 .83.83 0 0 1 0 1.177l-.244.243h2.158a.833.833 0 1 1 0 1.665" clip-rule="evenodd"/></svg>