<svg xmlns="http://www.w3.org/2000/svg" fill="none" viewBox="0 0 24 24"><path fill="#62757E" fill-rule="evenodd" d="M21.963 14.476c-.086.536-1.2 5.574-1.327 6.146-.004.016-.013.028-.017.043q-.016.053-.04.102a1 1 0 0 1-.078.145.7.7 0 0 1-.2.188c-.018.01-.028.027-.045.036-.069.035-1.704.864-4.102.864-2.301 0-3.86-.757-4.046-.85l-.004-.003-.028-.013c-.041-.021-.07-.058-.105-.088-.031-.025-.068-.04-.095-.072-.043-.049-1.049-1.211-2.182-3.295-1.041-1.912-2.627-3.578-2.643-3.594a.83.83 0 0 1-.041-1.074c.997-1.233 3.119-1.385 4.283-.305l.369.409V5.862c0-1.37.848-2.326 2.064-2.326 1.213 0 2.06.953 2.06 2.317v4.681c.165-.02.34-.024.535.012.544.101.924.424 1.176.783a1.82 1.82 0 0 1 1.241-.057 1.86 1.86 0 0 1 1.01.773 1.78 1.78 0 0 1 1.183.128c.802.392 1.198 1.275 1.032 2.303m-1.589-.897c-.277-.133-.637.084-.641.086a.63.63 0 0 1-.652.02.77.77 0 0 1-.38-.584.48.48 0 0 0-.342-.35c-.351-.112-.666.195-.67.198a.64.64 0 0 1-.68.181.74.74 0 0 1-.473-.574c-.008-.033-.107-.432-.442-.495a.53.53 0 0 0-.49.16l-.011.008a.65.65 0 0 1-.497.239c-.36 0-.646-.31-.678-.701l-.007-.039c0-.01-.006-.018-.006-.028V5.853c0-.517-.228-.78-.68-.78-.564 0-.683.429-.683.789v9.016a.81.81 0 0 1-.183.65l-.012.01a.66.66 0 0 1-.495.236c-.24 0-.44-.144-.565-.35l-1.424-1.585c-.4-.368-1.172-.43-1.761-.197.605.71 1.546 1.905 2.273 3.242.868 1.594 1.652 2.604 1.902 2.912.357.16 1.622.666 3.377.666 1.544 0 2.71-.385 3.226-.592.491-2.22 1.168-5.315 1.223-5.665.078-.476-.137-.581-.229-.626M8.701 6.385a.66.66 0 0 1-.487.224.65.65 0 0 1-.488-.224.83.83 0 0 1 0-1.087l.015-.017C6.393 5.723 5.334 6.903 4.938 8.4l.026-.028c.27-.3.706-.3.976 0s.27.786 0 1.087l-1.38 1.536a.66.66 0 0 1-.49.225.66.66 0 0 1-.487-.225L2.202 9.458a.83.83 0 0 1 0-1.087c.27-.3.706-.3.977 0l.283.316C3.845 6.098 5.68 4.05 8.008 3.625l-.282-.314a.83.83 0 0 1 0-1.086.64.64 0 0 1 .975 0l1.381 1.536c.27.3.27.787 0 1.086z" clip-rule="evenodd"/></svg>