<svg xmlns="http://www.w3.org/2000/svg" fill="none" viewBox="0 0 24 24"><path fill="#62757E" fill-rule="evenodd" d="M19.631 15.47c-.082.467-1.16 4.839-1.284 5.335-.003.014-.011.024-.015.037q-.016.045-.04.089a.6.6 0 0 1-.137.192.7.7 0 0 1-.13.096c-.017.008-.028.024-.045.032-.066.03-1.648.749-3.966.749-2.222 0-3.73-.655-3.912-.737l-.006-.003-.026-.011c-.038-.018-.064-.05-.098-.074-.031-.022-.068-.036-.096-.065-.041-.043-1.013-1.051-2.109-2.859-1.007-1.659-2.541-3.104-2.556-3.119a.665.665 0 0 1-.04-.931c.964-1.07 3.015-1.202 4.142-.265l.357.355V7.997c0-1.188.82-2.018 1.996-2.018 1.173 0 1.992.827 1.992 2.01v4.062a1.79 1.79 0 0 1 1.654.691 1.95 1.95 0 0 1 1.201-.05c.462.131.773.393.976.67a1.9 1.9 0 0 1 1.144.111c.774.34 1.157 1.106.998 1.997m-1.537-.777c-.267-.116-.616.073-.62.075a.68.68 0 0 1-.63.019.67.67 0 0 1-.367-.508c-.01-.038-.067-.229-.33-.304-.34-.099-.646.169-.648.172a.67.67 0 0 1-.66.157.66.66 0 0 1-.456-.498c-.008-.029-.104-.375-.428-.43-.283-.045-.46.125-.462.126l-.017.013c-.034.036-.077.062-.12.09-.03.021-.057.047-.09.062-.036.016-.076.02-.115.03-.046.012-.09.026-.139.028l-.021.004c-.035 0-.064-.014-.098-.02-.046-.006-.091-.01-.135-.027-.047-.017-.086-.045-.126-.072-.027-.017-.057-.025-.081-.046l-.013-.017c-.037-.034-.062-.077-.09-.118-.021-.032-.047-.059-.063-.092-.016-.036-.02-.075-.03-.114-.011-.046-.026-.091-.028-.139l-.004-.021V7.989q-.002-.675-.657-.676c-.547 0-.662.372-.662.684v7.822a.65.65 0 0 1-.176.566l-.013.009a.66.66 0 0 1-.478.204.66.66 0 0 1-.544-.302l-1.38-1.376c-.387-.321-1.133-.375-1.702-.171.586.616 1.495 1.652 2.198 2.812.84 1.384 1.598 2.26 1.84 2.527.345.14 1.568.579 3.265.579 1.493 0 2.62-.335 3.12-.515.474-1.927 1.129-4.612 1.183-4.915.074-.414-.134-.504-.223-.544m-9.056-4.532a.666.666 0 0 1-.905-.267 4 4 0 0 1-.484-1.9A4.004 4.004 0 0 1 11.656 4a4.004 4.004 0 0 1 4.005 3.993 4 4 0 0 1-.353 1.64.667.667 0 0 1-1.216-.549 2.6 2.6 0 0 0 .234-1.09 2.67 2.67 0 0 0-2.67-2.66 2.67 2.67 0 0 0-2.671 2.66c0 .44.11.878.32 1.264a.665.665 0 0 1-.267.903m6.868 1.082a.666.666 0 0 1-.243-.91A4.66 4.66 0 0 0 16.287 8a4.675 4.675 0 0 0-4.673-4.667A4.676 4.676 0 0 0 6.94 8c0 1.12.405 2.205 1.137 3.051a.666.666 0 1 1-1.01.873A6 6 0 0 1 5.606 8c0-3.309 2.695-6 6.009-6 3.313 0 6.009 2.691 6.009 6a6 6 0 0 1-.805 3 .667.667 0 0 1-.912.243" clip-rule="evenodd"/></svg>