<svg xmlns="http://www.w3.org/2000/svg" fill="none" viewBox="0 0 24 24"><path fill="#62757E" fill-rule="evenodd" d="M21.96 13.85c-.092.58-1.29 6.038-1.425 6.659-.004.017-.014.029-.018.046q-.019.056-.043.11a.8.8 0 0 1-.154.24.7.7 0 0 1-.145.119c-.018.012-.03.03-.049.04-.073.039-1.83.936-4.406.936-2.474 0-4.151-.821-4.347-.922h-.002l-.031-.016c-.045-.024-.076-.064-.115-.096-.033-.027-.071-.042-.101-.078-.046-.052-1.125-1.312-2.343-3.568-1.118-2.072-2.822-3.876-2.84-3.894a.906.906 0 0 1-.044-1.163c1.071-1.336 3.35-1.5 4.601-.33l.397.443V4.519c0-1.484.91-2.519 2.217-2.519 1.303 0 2.214 1.032 2.214 2.51v5.07c.177-.022.365-.027.574.013.584.11.992.459 1.263.848.38-.15.84-.22 1.333-.06a2 2 0 0 1 1.085.835 1.9 1.9 0 0 1 1.27.14c.862.425 1.287 1.38 1.11 2.494m-1.706-.971c-.297-.143-.686.09-.69.093a.68.68 0 0 1-.7.023.84.84 0 0 1-.408-.634.52.52 0 0 0-.367-.38c-.375-.12-.715.212-.719.216a.69.69 0 0 1-.73.196.8.8 0 0 1-.51-.623c-.008-.035-.115-.468-.474-.536a.56.56 0 0 0-.528.174l-.01.008a.7.7 0 0 1-.534.26c-.387 0-.694-.336-.73-.76 0-.014-.006-.028-.006-.042 0-.011-.006-.02-.006-.031V4.51c0-.561-.245-.846-.73-.846-.607 0-.735.465-.735.855v9.766a.88.88 0 0 1-.196.706q-.007.004-.013.01a.7.7 0 0 1-.532.255c-.257 0-.473-.156-.606-.38L9.5 13.16c-.431-.4-1.26-.466-1.892-.213.65.769 1.66 2.063 2.442 3.51.931 1.727 1.774 2.82 2.042 3.154.384.174 1.743.724 3.628.724 1.658 0 2.911-.418 3.466-.643.527-2.405 1.254-5.757 1.314-6.135.082-.517-.147-.63-.246-.68M8.674 5.883c-.41 0-.742-.372-.742-.832v-.21l-.959 1.077a.7.7 0 0 1-.524.243.7.7 0 0 1-.525-.243.906.906 0 0 1 0-1.177l.96-1.077h-.188c-.41 0-.742-.372-.742-.832S6.286 2 6.696 2h1.978q.146 0 .283.064a.8.8 0 0 1 .401.45q.055.151.056.311l.002.007v2.22c0 .46-.332.831-.742.831M4.53 8.657h.188c.41 0 .74.373.74.833s-.33.833-.74.833H2.74c-.034 0-.063-.017-.097-.023-.063-.01-.126-.014-.185-.042a.8.8 0 0 1-.402-.45A.9.9 0 0 1 2 9.485V7.271c0-.46.331-.832.741-.832s.742.372.742.832v.209l.958-1.075a.686.686 0 0 1 1.049 0c.29.325.29.852 0 1.177z" clip-rule="evenodd"/></svg>