<svg xmlns="http://www.w3.org/2000/svg" fill="none" viewBox="0 0 24 24"><path fill="#62757E" fill-rule="evenodd" d="M21.955 13.85c-.103.58-1.451 6.039-1.604 6.659-.004.017-.015.03-.02.046-.012.04-.03.073-.048.11a1 1 0 0 1-.095.157.8.8 0 0 1-.24.202c-.021.012-.035.03-.057.04-.082.039-2.059.936-4.956.936-2.784 0-4.671-.821-4.891-.92l-.004-.002-.034-.016c-.05-.023-.086-.063-.13-.096-.036-.027-.079-.042-.113-.077l-.022-.024c-.137-.142-1.298-1.377-2.614-3.544-1.257-2.072-3.175-3.876-3.194-3.894a.83.83 0 0 1-.05-1.163c1.205-1.336 3.77-1.5 5.176-.33l.446.442V4.519c0-1.483 1.026-2.518 2.495-2.518 1.466 0 2.49 1.032 2.49 2.509v5.07c.2-.021.411-.026.647.013.656.11 1.116.46 1.421.85a2.42 2.42 0 0 1 1.5-.063c.578.165.968.49 1.22.837a2.37 2.37 0 0 1 1.43.14c.969.423 1.447 1.38 1.247 2.493m-1.92-.971c-.334-.144-.77.09-.775.092a.84.84 0 0 1-.788.024.83.83 0 0 1-.46-.634c-.01-.047-.082-.286-.412-.38-.425-.121-.805.213-.81.216a.837.837 0 0 1-1.394-.426c-.009-.036-.129-.47-.534-.536a.68.68 0 0 0-.593.173q-.008.004-.012.008a.83.83 0 0 1-.6.259.825.825 0 0 1-.82-.758l-.01-.042c0-.012-.005-.021-.005-.032V4.51c0-.56-.277-.845-.822-.845-.683 0-.826.465-.826.854v9.767a.82.82 0 0 1-.222.705l-.014.01a.83.83 0 0 1-.599.255.82.82 0 0 1-.681-.38l-1.722-1.715c-.484-.4-1.418-.466-2.129-.213.732.769 1.869 2.062 2.748 3.511 1.048 1.726 1.996 2.82 2.298 3.154.431.173 1.96.723 4.082.723 1.865 0 3.275-.418 3.899-.642.593-2.405 1.41-5.758 1.479-6.136.093-.516-.167-.63-.277-.68M7.778 4.815a.8.8 0 0 1-.18.271L5.926 6.75a.83.83 0 0 1-1.18 0 .83.83 0 0 1 .001-1.176l.244-.245H2.834a.833.833 0 1 1 0-1.664h2.158l-.244-.244a.83.83 0 0 1 0-1.177.834.834 0 0 1 1.18 0l1.668 1.664a.83.83 0 0 1 .244.587l.001.002a.8.8 0 0 1-.064.318" clip-rule="evenodd"/></svg>