<svg xmlns="http://www.w3.org/2000/svg" fill="none" viewBox="0 0 24 24"><path fill="#62757E" fill-rule="evenodd" d="M20.958 13.85c-.095.582-1.345 6.039-1.487 6.659-.004.016-.014.029-.018.044-.012.04-.03.076-.046.114a.8.8 0 0 1-.31.357c-.02.012-.032.031-.053.041-.076.038-1.91.935-4.597.935-2.581 0-4.33-.82-4.535-.92q-.002-.003-.003-.002l-.032-.015c-.046-.024-.078-.063-.117-.095-.036-.027-.077-.044-.109-.079-.047-.052-1.173-1.312-2.444-3.568-1.167-2.072-2.944-3.876-2.963-3.894a.88.88 0 0 1-.046-1.164c1.116-1.336 3.494-1.5 4.8-.33l.451.483V4.502C9.45 3.02 10.364 2 11.726 2c1.36 0 2.417 1.025 2.417 2.502v5.065a2 2 0 0 1 .492.026c.609.109 1.035.459 1.318.85a2.1 2.1 0 0 1 2.523.775c.377-.082.846-.09 1.326.138.899.425 1.342 1.381 1.156 2.495m-1.78-.971c-.307-.146-.707.085-.711.088a.73.73 0 0 1-.735.035.83.83 0 0 1-.43-.641.53.53 0 0 0-.383-.38c-.395-.122-.746.212-.75.216a.74.74 0 0 1-.762.196.81.81 0 0 1-.532-.621c-.008-.037-.12-.47-.495-.537a.6.6 0 0 0-.259.012c-.058.373-.462.428-.86.428-.41 0-.656-.053-.675-.464a.85.85 0 0 1-.007-.728v-5.98c0-.562-.347-.838-.853-.838-.633 0-.766.464-.766.854v9.767a.86.86 0 0 1-.205.705l-.015.01a.75.75 0 0 1-.554.255.7.7 0 0 1-.66-.407l-1.57-1.688c-.449-.4-1.313-.464-1.973-.214.678.77 1.733 2.064 2.548 3.512.973 1.727 1.852 2.821 2.132 3.154.402.174 1.82.723 3.784.723 1.73 0 3.038-.418 3.617-.642.55-2.405 1.309-5.758 1.37-6.136.087-.517-.154-.63-.256-.679" clip-rule="evenodd"/></svg>