<svg xmlns="http://www.w3.org/2000/svg" fill="none" viewBox="0 0 24 24"><path fill="#62757E" fill-rule="evenodd" d="M19.136 15.254c-.086.48-1.202 4.998-1.329 5.512-.003.013-.012.024-.016.038q-.017.046-.04.091a.7.7 0 0 1-.079.13.7.7 0 0 1-.2.168c-.017.01-.027.024-.046.033-.067.031-1.704.774-4.102.774-2.303 0-3.864-.679-4.048-.763l-.003-.001-.028-.012c-.042-.02-.07-.052-.105-.078-.032-.023-.068-.036-.096-.065-.042-.044-1.048-1.087-2.182-2.954-1.041-1.716-2.628-3.21-2.644-3.224a.69.69 0 0 1-.041-.963c.997-1.106 3.12-1.241 4.284-.273l.369.366V7.529c0-1.227.85-2.084 2.065-2.084 1.213 0 2.062.854 2.062 2.077v4.197a1.85 1.85 0 0 1 1.71.714 2 2 0 0 1 1.242-.051c.479.136.802.406 1.01.692a2 2 0 0 1 1.183.115c.802.352 1.198 1.143 1.034 2.065m-1.59-.805c-.277-.117-.638.076-.642.077a.7.7 0 0 1-.652.02.69.69 0 0 1-.38-.525c-.01-.038-.069-.236-.342-.314-.351-.1-.666.175-.67.178a.7.7 0 0 1-.68.162.69.69 0 0 1-.473-.514c-.009-.03-.108-.388-.443-.444a.56.56 0 0 0-.49.143l-.011.007a.683.683 0 0 1-1.175-.414q-.005-.017-.007-.035c-.001-.009-.006-.016-.006-.025V7.522q-.001-.698-.68-.7c-.565 0-.684.386-.684.707v8.085a.67.67 0 0 1-.183.584l-.012.008a.7.7 0 0 1-.495.212.68.68 0 0 1-.564-.314l-1.426-1.42c-.4-.331-1.173-.386-1.761-.177.605.636 1.546 1.707 2.274 2.906.868 1.43 1.652 2.335 1.902 2.611.358.144 1.623.598 3.378.598 1.544 0 2.711-.345 3.228-.532.49-1.99 1.168-4.765 1.224-5.078.076-.428-.138-.522-.23-.563M15.74 7.511h-1.38a.69.69 0 1 1 0-1.377h1.38a.69.69 0 1 1 0 1.377m-1.893-2.585a.687.687 0 0 1-.976.03.69.69 0 0 1-.03-.973l1.014-1.077c.261-.278.7-.29.976-.03.278.26.292.696.03.974zm-2.942-.17a.69.69 0 0 1-.69-.69V2.69a.69.69 0 1 1 1.38 0v1.377a.69.69 0 0 1-.69.689m-2.438.387a.7.7 0 0 1-.504-.217L6.95 3.85a.69.69 0 0 1 .03-.974.69.69 0 0 1 .977.03L8.97 3.983a.688.688 0 0 1-.502 1.16m-.324 1.68a.69.69 0 0 1-.69.688H6.07a.69.69 0 1 1 0-1.377h1.382a.69.69 0 0 1 .69.688" clip-rule="evenodd"/></svg>