<svg xmlns="http://www.w3.org/2000/svg" fill="none" viewBox="0 0 24 24"><path fill="#62757E" fill-rule="evenodd" d="M18.429 10.889c-1.97 0-3.572-1.662-3.572-3.704 0-2.042 1.603-3.704 3.572-3.704S22 5.143 22 7.185c0 2.042-1.602 3.704-3.571 3.704Zm0-5.926c-1.182 0-2.143.997-2.143 2.222s.96 2.222 2.143 2.222c1.181 0 2.142-.997 2.142-2.222s-.96-2.222-2.142-2.222Zm.713 2.963h-.713a.728.728 0 0 1-.715-.74v-.741c0-.41.32-.741.715-.741.395 0 .713.332.713.74.396 0 .715.332.715.741 0 .41-.32.741-.715.741Zm-3.78 4.476c.348-.07.782-.08 1.224.124.83.378 1.238 1.229 1.068 2.22-.09.517-1.242 5.375-1.374 5.926-.003.015-.013.026-.017.04-.01.036-.026.067-.042.1a.709.709 0 0 1-.147.213.705.705 0 0 1-.14.107c-.017.01-.029.026-.047.035-.07.034-1.763.833-4.243.833-2.378 0-3.99-.727-4.186-.82l-.006-.002-.027-.013c-.041-.02-.07-.054-.105-.08-.034-.027-.073-.041-.103-.074-.044-.047-1.084-1.168-2.256-3.176-1.078-1.844-2.719-3.45-2.735-3.466a.76.76 0 0 1-.043-1.035c1.031-1.189 3.226-1.336 4.431-.294l.382.394V6.441c0-1.32.878-2.242 2.136-2.242 1.254 0 2.132.919 2.132 2.233v4.513a1.903 1.903 0 0 1 1.77.768 1.999 1.999 0 0 1 1.284-.055c.494.146.828.436 1.043.744Zm-.69 1.583a.742.742 0 0 1-.394-.564c-.009-.042-.07-.255-.353-.338-.364-.109-.69.188-.693.192a.697.697 0 0 1-.703.174.728.728 0 0 1-.49-.553c-.008-.032-.11-.418-.458-.478a.57.57 0 0 0-.507.154c-.003.004-.007.004-.01.007a.697.697 0 0 1-.515.231c-.373 0-.669-.299-.702-.677-.001-.011-.006-.023-.007-.035 0-.01-.005-.019-.005-.028V6.433c0-.5-.237-.752-.703-.752-.585 0-.708.413-.708.76v8.692a.746.746 0 0 1-.19.629l-.012.008a.698.698 0 0 1-.512.228.698.698 0 0 1-.584-.338l-1.474-1.527c-.415-.356-1.213-.414-1.822-.19.627.684 1.6 1.836 2.353 3.125.897 1.537 1.709 2.511 1.967 2.808.37.154 1.679.642 3.494.642 1.597 0 2.803-.371 3.337-.571.508-2.141 1.208-5.125 1.266-5.462.08-.459-.142-.56-.237-.603-.288-.128-.66.08-.664.082a.7.7 0 0 1-.674.021ZM12.084 8.63a.752.752 0 0 1-.356-.98c.165-.382.25-.788.25-1.212 0-1.63-1.282-2.956-2.857-2.956-1.575 0-2.857 1.326-2.857 2.956 0 .49.118.976.342 1.405.189.36.06.81-.286 1.005a.695.695 0 0 1-.34.09.711.711 0 0 1-.629-.387 4.575 4.575 0 0 1-.516-2.113C4.835 3.99 6.758 2 9.121 2c2.363 0 4.285 1.99 4.285 4.437 0 .636-.126 1.249-.377 1.822a.704.704 0 0 1-.945.37Z" clip-rule="evenodd"/></svg>