<svg xmlns="http://www.w3.org/2000/svg" fill="none" viewBox="0 0 24 24"><path fill="#62757E" fill-rule="evenodd" d="M21.23 6.444h-1.54c-.426 0-.77-.331-.77-.74 0-.41.344-.741.77-.741h1.54c.425 0 .77.331.77.74 0 .41-.344.741-.77.741m-3.833 14.229c-.003.015-.014.026-.018.04q-.018.051-.045.099a.7.7 0 0 1-.31.32c-.018.01-.03.027-.05.035-.077.035-1.901.833-4.575.833-2.564 0-4.304-.727-4.514-.82l-.006-.002-.03-.013c-.044-.02-.075-.055-.113-.081-.037-.025-.078-.04-.11-.073-.048-.047-1.17-1.168-2.434-3.176-1.16-1.844-2.93-3.45-2.948-3.466a.72.72 0 0 1-.047-1.035C3.31 12.145 5.677 12 6.976 13.04l.41.394V6.441c0-1.32.948-2.242 2.304-2.242 1.353 0 2.298.919 2.298 2.234v4.512a2.3 2.3 0 0 1 .597.012 2.08 2.08 0 0 1 1.312.756 2.3 2.3 0 0 1 1.384-.055c.533.146.894.436 1.126.744a2.27 2.27 0 0 1 1.32.124c.894.379 1.335 1.229 1.151 2.22-.095.517-1.34 5.375-1.48 5.927m-.29-6.792c-.31-.128-.712.081-.717.083a.81.81 0 0 1-.727.021.75.75 0 0 1-.424-.564c-.01-.042-.076-.255-.38-.338-.39-.108-.744.189-.748.192a.8.8 0 0 1-.758.174.75.75 0 0 1-.528-.553c-.01-.032-.12-.418-.494-.478a.64.64 0 0 0-.547.154l-.012.007a.78.78 0 0 1-.554.231.75.75 0 0 1-.757-.677c0-.012-.006-.023-.007-.035 0-.01-.006-.019-.006-.028V6.433q-.002-.751-.758-.752c-.63 0-.763.413-.763.76v8.692a.71.71 0 0 1-.204.628l-.014.01a.764.764 0 0 1-1.18-.11l-1.59-1.528c-.448-.356-1.31-.414-1.965-.19.675.684 1.724 1.835 2.536 3.125.968 1.537 1.843 2.511 2.121 2.807.4.155 1.81.643 3.767.643 1.722 0 3.023-.371 3.6-.571.547-2.141 1.302-5.125 1.364-5.462.086-.46-.153-.56-.256-.604m.273-7.437h-1.541c-.425 0-.77-.331-.77-.74 0-.41.345-.741.77-.741h1.54c.426 0 .77.331.77.74 0 .41-.344.741-.77.741M12.873 8.63a.73.73 0 0 1-.385-.98q.27-.574.27-1.212c0-1.63-1.381-2.956-3.08-2.956-1.698 0-3.08 1.326-3.08 2.956 0 .49.127.976.37 1.405a.725.725 0 0 1-.309 1.004.8.8 0 0 1-.368.09.77.77 0 0 1-.676-.386 4.3 4.3 0 0 1-.558-2.113C5.057 3.99 7.13 2 9.679 2c2.547 0 4.62 1.99 4.62 4.437 0 .636-.137 1.249-.407 1.822a.78.78 0 0 1-1.02.37" clip-rule="evenodd"/></svg>