<svg xmlns="http://www.w3.org/2000/svg" fill="none" viewBox="0 0 24 24"><path fill="#62757E" fill-rule="evenodd" d="M12.466 2.006a.8.8 0 0 1 .544.318 7.46 7.46 0 0 0 2.716 2.248 9.111 9.111 0 1 1-10.31 2.02.805.805 0 0 1 1.236.087 7.6 7.6 0 0 0 1.64 1.667 9.86 9.86 0 0 1 3.568-6.168c.17-.137.389-.2.606-.172m-.192 1.955a8.23 8.23 0 0 0-2.488 5.77.805.805 0 0 1-1.172.705 9.1 9.1 0 0 1-2.632-2.024 7.5 7.5 0 1 0 9.075-2.375l-.024-.011a9.1 9.1 0 0 1-2.76-2.065m-.314 6.096a.8.8 0 0 1 .643-.199 4.582 4.582 0 1 1-4.955 3.11.805.805 0 0 1 1.243-.396 5.3 5.3 0 0 0 1.08.615 6.85 6.85 0 0 1 1.99-3.13m.796 1.47a5.2 5.2 0 0 0-1.4 2.822.806.806 0 0 1-.987.66 6.8 6.8 0 0 1-1.336-.48 2.97 2.97 0 1 0 3.723-3.003" clip-rule="evenodd"/></svg>