<svg xmlns="http://www.w3.org/2000/svg" fill="none" viewBox="0 0 24 24"><path fill="url(#a)" d="M22.776 8.051c-.505-1.216-1.53-2.529-2.333-2.944.572 1.11.97 2.3 1.178 3.53l.002.02c-1.315-3.279-3.545-4.6-5.367-7.48a14 14 0 0 1-.274-.445 4 4 0 0 1-.128-.24 2 2 0 0 1-.173-.46.03.03 0 0 0-.026-.03.04.04 0 0 0-.023 0l-.005.003-.009.004.005-.008C12.7 1.712 11.71 4.88 11.618 6.463a5.8 5.8 0 0 0-3.2 1.234 4 4 0 0 0-.3-.228 5.4 5.4 0 0 1-.034-2.843 8.6 8.6 0 0 0-2.8 2.164H5.28c-.46-.584-.428-2.51-.402-2.913a2 2 0 0 0-.388.206 8.5 8.5 0 0 0-1.137.974q-.598.607-1.088 1.304v.002-.002a9.8 9.8 0 0 0-1.56 3.524l-.016.077c-.022.103-.1.615-.114.727l-.003.025q-.153.795-.189 1.604v.06a11.632 11.632 0 0 0 23.096 1.967q.028-.224.053-.45c.24-1.98-.02-3.99-.755-5.844M9.37 17.157q.079.04.161.079l.008.005zM21.624 8.66v-.011l.002.012z"/><path fill="url(#b)" d="M22.776 8.051c-.505-1.216-1.53-2.529-2.333-2.944.572 1.11.97 2.3 1.178 3.53v.012l.002.012a10.54 10.54 0 0 1-.362 7.85c-1.333 2.861-4.56 5.793-9.611 5.65-5.458-.154-10.264-4.204-11.163-9.508-.163-.837 0-1.26.082-1.94a8.7 8.7 0 0 0-.187 1.605v.06a11.632 11.632 0 0 0 23.096 1.967c.02-.15.035-.299.053-.45.24-1.98-.02-3.99-.755-5.844"/><path fill="url(#c)" d="M22.776 8.051c-.505-1.216-1.53-2.529-2.333-2.944.572 1.11.97 2.3 1.178 3.53v.012l.002.012a10.54 10.54 0 0 1-.362 7.85c-1.333 2.861-4.56 5.793-9.611 5.65-5.458-.154-10.264-4.204-11.163-9.508-.163-.837 0-1.26.082-1.94a8.7 8.7 0 0 0-.187 1.605v.06a11.632 11.632 0 0 0 23.096 1.967c.02-.15.035-.299.053-.45.24-1.98-.02-3.99-.755-5.844"/><path fill="url(#d)" d="m17.124 9.419.072.053a6.3 6.3 0 0 0-1.08-1.41C12.5 4.448 15.168.223 15.618.009l.004-.007c-2.921 1.711-3.913 4.878-4.004 6.462.136-.01.27-.02.409-.02a5.87 5.87 0 0 1 5.097 2.976"/><path fill="url(#e)" d="M12.035 10.14c-.02.29-1.042 1.288-1.4 1.288-3.307 0-3.844 2.001-3.844 2.001.146 1.685 1.32 3.073 2.74 3.807q.097.05.196.093.171.075.342.14c.487.173.997.271 1.513.292 5.798.272 6.92-6.933 2.737-9.023a4.02 4.02 0 0 1 2.805.68 5.87 5.87 0 0 0-5.097-2.976c-.138 0-.273.012-.409.021a5.8 5.8 0 0 0-3.2 1.234c.176.15.377.35.798.766.79.778 2.814 1.583 2.819 1.678"/><path fill="url(#f)" d="M12.035 10.14c-.02.29-1.042 1.288-1.4 1.288-3.307 0-3.844 2.001-3.844 2.001.146 1.685 1.32 3.073 2.74 3.807q.097.05.196.093.171.075.342.14c.487.173.997.271 1.513.292 5.798.272 6.92-6.933 2.737-9.023a4.02 4.02 0 0 1 2.805.68 5.87 5.87 0 0 0-5.097-2.976c-.138 0-.273.012-.409.021a5.8 5.8 0 0 0-3.2 1.234c.176.15.377.35.798.766.79.778 2.814 1.583 2.819 1.678"/><path fill="url(#g)" d="M7.875 7.31q.14.089.24.16a5.4 5.4 0 0 1-.033-2.844 8.6 8.6 0 0 0-2.8 2.164c.057-.001 1.744-.032 2.593.52"/><path fill="url(#h)" d="M.489 12.653c.897 5.304 5.705 9.354 11.162 9.509 5.051.143 8.278-2.79 9.612-5.65a10.54 10.54 0 0 0 .361-7.85v-.023l.003.02c.412 2.694-.958 5.304-3.1 7.069l-.007.015c-4.174 3.4-8.169 2.051-8.977 1.5l-.17-.084c-2.433-1.163-3.439-3.38-3.223-5.282a2.99 2.99 0 0 1-2.756-1.733 4.39 4.39 0 0 1 4.277-.172 5.8 5.8 0 0 0 4.367.172c-.004-.095-2.029-.9-2.818-1.678-.422-.416-.622-.616-.8-.766a4 4 0 0 0-.3-.228l-.24-.159c-.848-.552-2.535-.521-2.591-.52h-.005c-.461-.584-.429-2.51-.403-2.913a2 2 0 0 0-.388.206q-.611.436-1.137.974-.6.605-1.092 1.301v.002-.002a9.8 9.8 0 0 0-1.56 3.524c-.006.024-.42 1.83-.215 2.768"/><path fill="url(#i)" d="M16.116 8.063c.425.417.789.892 1.08 1.41q.098.074.175.143c2.637 2.431 1.255 5.868 1.152 6.112 2.143-1.765 3.512-4.375 3.1-7.07-1.315-3.28-3.546-4.602-5.367-7.48a14 14 0 0 1-.274-.446 4 4 0 0 1-.128-.24 2 2 0 0 1-.174-.46.03.03 0 0 0-.026-.03.04.04 0 0 0-.022 0l-.006.003-.008.004c-.45.214-3.118 4.438.498 8.054"/><path fill="url(#j)" d="M17.37 9.615a2 2 0 0 0-.175-.143l-.072-.053a4.02 4.02 0 0 0-2.805-.681c4.184 2.092 3.061 9.295-2.737 9.023a5.2 5.2 0 0 1-1.513-.292 6 6 0 0 1-.342-.14q-.099-.044-.196-.093l.008.005c.808.552 4.802 1.9 8.977-1.5l.007-.016c.104-.243 1.486-3.68-1.153-6.11"/><path fill="url(#k)" d="M6.791 13.429s.537-2 3.845-2c.357 0 1.38-.999 1.399-1.288a5.8 5.8 0 0 1-4.368-.172 4.39 4.39 0 0 0-4.276.172 2.99 2.99 0 0 0 2.755 1.733c-.215 1.902.79 4.12 3.224 5.282l.16.08c-1.42-.734-2.593-2.122-2.739-3.807"/><path fill="url(#l)" d="M22.776 8.051c-.505-1.216-1.53-2.529-2.333-2.944.572 1.11.97 2.3 1.178 3.53l.002.02c-1.315-3.279-3.545-4.6-5.367-7.48a14 14 0 0 1-.274-.445 4 4 0 0 1-.128-.24 2 2 0 0 1-.173-.46.03.03 0 0 0-.026-.03.04.04 0 0 0-.023 0l-.005.003-.009.004.005-.008C12.7 1.712 11.71 4.88 11.618 6.463c.136-.01.27-.02.41-.02a5.87 5.87 0 0 1 5.096 2.976 4.02 4.02 0 0 0-2.805-.681c4.184 2.092 3.061 9.295-2.737 9.023a5.2 5.2 0 0 1-1.513-.292 6 6 0 0 1-.538-.233l.008.005-.17-.084c.055.026.106.054.162.079-1.42-.734-2.593-2.122-2.74-3.807 0 0 .537-2 3.845-2 .357 0 1.38-.999 1.399-1.288-.005-.095-2.03-.9-2.819-1.678-.421-.416-.621-.616-.799-.766a4 4 0 0 0-.3-.228 5.4 5.4 0 0 1-.033-2.843 8.6 8.6 0 0 0-2.8 2.164H5.28c-.46-.584-.428-2.51-.402-2.913a2 2 0 0 0-.388.206 8.5 8.5 0 0 0-1.137.974q-.598.607-1.088 1.304v.002-.002a9.8 9.8 0 0 0-1.56 3.524l-.016.077c-.022.103-.12.622-.134.734 0-.009 0 .008 0 0q-.135.806-.172 1.622v.06a11.632 11.632 0 0 0 23.096 1.967q.028-.224.053-.45c.24-1.98-.02-3.99-.755-5.844m-1.154.598.003.012z"/><defs><radialGradient id="b" cx="0" cy="0" r="1" gradientTransform="translate(20.344 2.664)scale(24.2491)" gradientUnits="userSpaceOnUse"><stop offset=".129" stop-color="#FFBD4F"/><stop offset=".186" stop-color="#FFAC31"/><stop offset=".247" stop-color="#FF9D17"/><stop offset=".283" stop-color="#FF980E"/><stop offset=".403" stop-color="#FF563B"/><stop offset=".467" stop-color="#FF3750"/><stop offset=".71" stop-color="#F5156C"/><stop offset=".782" stop-color="#EB0878"/><stop offset=".86" stop-color="#E50080"/></radialGradient><radialGradient id="c" cx="0" cy="0" r="1" gradientTransform="translate(11.484 12.577)scale(24.2491)" gradientUnits="userSpaceOnUse"><stop offset=".3" stop-color="#960E18"/><stop offset=".351" stop-color="#B11927" stop-opacity=".74"/><stop offset=".435" stop-color="#DB293D" stop-opacity=".343"/><stop offset=".497" stop-color="#F5334B" stop-opacity=".094"/><stop offset=".53" stop-color="#FF3750" stop-opacity="0"/></radialGradient><radialGradient id="d" cx="0" cy="0" r="1" gradientTransform="translate(14.407 -2.84)scale(17.5674)" gradientUnits="userSpaceOnUse"><stop offset=".132" stop-color="#FFF44F"/><stop offset=".252" stop-color="#FFDC3E"/><stop offset=".506" stop-color="#FF9D12"/><stop offset=".526" stop-color="#FF980E"/></radialGradient><radialGradient id="e" cx="0" cy="0" r="1" gradientTransform="translate(8.801 18.911)scale(11.5461)" gradientUnits="userSpaceOnUse"><stop offset=".353" stop-color="#3A8EE6"/><stop offset=".472" stop-color="#5C79F0"/><stop offset=".669" stop-color="#9059FF"/><stop offset="1" stop-color="#C139E6"/></radialGradient><radialGradient id="f" cx="0" cy="0" r="1" gradientTransform="matrix(5.95022 -1.43859 1.68422 6.96621 12.809 10.59)" gradientUnits="userSpaceOnUse"><stop offset=".206" stop-color="#9059FF" stop-opacity="0"/><stop offset=".278" stop-color="#8C4FF3" stop-opacity=".064"/><stop offset=".747" stop-color="#7716A8" stop-opacity=".45"/><stop offset=".975" stop-color="#6E008B" stop-opacity=".6"/></radialGradient><radialGradient id="g" cx="0" cy="0" r="1" gradientTransform="translate(11.177 1.671)scale(8.30622)" gradientUnits="userSpaceOnUse"><stop stop-color="#FFE226"/><stop offset=".121" stop-color="#FFDB27"/><stop offset=".295" stop-color="#FFC82A"/><stop offset=".502" stop-color="#FFA930"/><stop offset=".732" stop-color="#FF7E37"/><stop offset=".792" stop-color="#FF7139"/></radialGradient><radialGradient id="h" cx="0" cy="0" r="1" gradientTransform="translate(17.706 -3.597)scale(35.4389)" gradientUnits="userSpaceOnUse"><stop offset=".113" stop-color="#FFF44F"/><stop offset=".456" stop-color="#FF980E"/><stop offset=".622" stop-color="#FF5634"/><stop offset=".716" stop-color="#FF3647"/><stop offset=".904" stop-color="#E31587"/></radialGradient><radialGradient id="i" cx="0" cy="0" r="1" gradientTransform="rotate(83.976 8.263 7.364)scale(25.974 17.0465)" gradientUnits="userSpaceOnUse"><stop stop-color="#FFF44F"/><stop offset=".06" stop-color="#FFE847"/><stop offset=".168" stop-color="#FFC830"/><stop offset=".304" stop-color="#FF980E"/><stop offset=".356" stop-color="#FF8B16"/><stop offset=".455" stop-color="#FF672A"/><stop offset=".57" stop-color="#FF3647"/><stop offset=".737" stop-color="#E31587"/></radialGradient><radialGradient id="j" cx="0" cy="0" r="1" gradientTransform="translate(10.982 4.748)scale(22.1251)" gradientUnits="userSpaceOnUse"><stop offset=".137" stop-color="#FFF44F"/><stop offset=".48" stop-color="#FF980E"/><stop offset=".592" stop-color="#FF5634"/><stop offset=".655" stop-color="#FF3647"/><stop offset=".904" stop-color="#E31587"/></radialGradient><radialGradient id="k" cx="0" cy="0" r="1" gradientTransform="translate(16.822 6.043)scale(24.2158)" gradientUnits="userSpaceOnUse"><stop offset=".094" stop-color="#FFF44F"/><stop offset=".231" stop-color="#FFE141"/><stop offset=".509" stop-color="#FFAF1E"/><stop offset=".626" stop-color="#FF980E"/></radialGradient><linearGradient id="a" x1="21.237" x2="1.927" y1="3.718" y2="22.348" gradientUnits="userSpaceOnUse"><stop offset=".048" stop-color="#FFF44F"/><stop offset=".111" stop-color="#FFE847"/><stop offset=".225" stop-color="#FFC830"/><stop offset=".368" stop-color="#FF980E"/><stop offset=".401" stop-color="#FF8B16"/><stop offset=".462" stop-color="#FF672A"/><stop offset=".534" stop-color="#FF3647"/><stop offset=".705" stop-color="#E31587"/></linearGradient><linearGradient id="l" x1="21.005" x2="4.574" y1="3.619" y2="20.049" gradientUnits="userSpaceOnUse"><stop offset=".167" stop-color="#FFF44F" stop-opacity=".8"/><stop offset=".266" stop-color="#FFF44F" stop-opacity=".634"/><stop offset=".489" stop-color="#FFF44F" stop-opacity=".217"/><stop offset=".6" stop-color="#FFF44F" stop-opacity="0"/></linearGradient></defs></svg>