<svg xmlns="http://www.w3.org/2000/svg" fill="none" viewBox="0 0 24 24"><path fill="#62757E" fill-rule="evenodd" d="M19 5.7H5A1.3 1.3 0 0 0 3.7 7v10A1.3 1.3 0 0 0 5 18.3h14a1.3 1.3 0 0 0 1.3-1.3V7A1.3 1.3 0 0 0 19 5.7M5 4a3 3 0 0 0-3 3v10a3 3 0 0 0 3 3h14a3 3 0 0 0 3-3V7a3 3 0 0 0-3-3zm7 3.3a.8.8 0 0 1 .566.234l1.91 1.91a.8.8 0 0 1-1.132 1.132L12 9.23l-1.344 1.345a.8.8 0 0 1-1.132-1.132l1.91-1.91A.8.8 0 0 1 12 7.3m0 9.4a.8.8 0 0 0 .566-.234l1.909-1.91a.8.8 0 0 0-1.131-1.13L12 14.768l-1.344-1.344a.8.8 0 0 0-1.13 1.131l1.908 1.91A.8.8 0 0 0 12 16.7" clip-rule="evenodd"/></svg>