<svg xmlns="http://www.w3.org/2000/svg" fill="none" viewBox="0 0 24 24"><g clip-path="url(#a)"><path fill="#00AFEC" d="M12 24c6.627 0 12-5.373 12-12S18.627 0 12 0 0 5.373 0 12s5.373 12 12 12Z"/><path fill="#fff" d="M14.332 9.72c.027-.043.05-.1.075-.148a6.52 6.52 0 0 0 .843-3.201 6.294 6.294 0 0 0-2.49-.83c.33 1.442.798 2.838 1.474 4.154l.098.025Zm-4.456-.246-.025-.006-.19-.043v-.003H9.66l.17-.744c.127.027.253.057.379.088h.002c.46-1.038.819-2.118 1.071-3.225a6.487 6.487 0 0 0-3.203 1.276v.002A6.508 6.508 0 0 0 5.5 11.87V12a6.591 6.591 0 0 0 2.245.794l.004-.003a17.93 17.93 0 0 0 2.128-3.317h-.001Zm4.069 1.096c.142.076.195.185.263.397.093.32.03.658-.037.975l.786.182.195-.846c.794 1.221 1.674 2.483 2.743 3.473-.194.44-.314.594-.6.98a18.06 18.06 0 0 0-5.443-.805l.156-.626-.522-.122a.353.353 0 0 1-.213-.128c-.061-.081-.061-.189-.04-.284l.326-1.42c.17.04.346.067.504.142a.51.51 0 0 1 .303.345c.042.216-.05.422-.086.63l.703.162.586-2.539-.06-.02-.046-.009c.163-.17.305-.322.452-.507l.03.02Zm-6.18 2.387.017-.023c.137.03.242.02.382.034.5.044.985.054 1.483-.017.037-.005.076-.009.115-.01l-.115.443a.393.393 0 0 1-.135.234.322.322 0 0 1-.255.044c-.18-.036-.358-.085-.539-.12-.055.248-.114.496-.17.742l1.2.278c-.049.224-.06.284-.112.506-.999.137-1.986.352-2.951.644-.285-.386-.406-.48-.597-.92.608-.564 1.155-1.19 1.677-1.835Zm2.787 1.79.482.112-.017.095-.514.037.05-.244Zm-.888-1.938a.862.862 0 0 1 .113-.01v-.002l.62-2.682c.024-.121.073-.243.034-.365a.3.3 0 0 0-.188-.188l-.02-.007c-.103-.027-.024-.008-.129-.032-.01-.003-.063.015-.075.012a17.566 17.566 0 0 1-2.108 3.276c.136.028.114.02.25.034a6.515 6.515 0 0 0 1.503-.036Z"/><path fill="#fff" d="M11.041 8.956v.002c.095-.403.185-.807.282-1.208l.8.184-.277 1.209.479.111c.048-.2.095-.402.14-.604l.07-.302.07-.302.8.182a9.41 9.41 0 0 1-.034.163c-.078.35-.164.697-.241 1.049l.921.214c-.676-1.316-1.124-2.692-1.454-4.133-.207-.025-.294-.017-.504-.02h-.128c-.23 0-.314-.006-.54.02-.253 1.106-.552 2.267-1.013 3.305l.63.13Zm1.062 1.034.025.005.002-.005h-.027Z"/><path fill="#fff" d="m12.106 9.99-.372 1.61c.23.05.471.135.709.069a.488.488 0 0 0 .32-.327c.045-.143.067-.289.106-.43l.393.099c.017.002-.003.013.008.001l.01-.007c.162-.175.347-.366.493-.55a2.853 2.853 0 0 0-.76-.255l-.907-.21Zm5.833-.634c-.56-1.253-1.36-2.197-2.547-2.885a6.138 6.138 0 0 1-.822 3.102 2.218 2.218 0 0 0-.092.188c.372.08.603.13.975.214v.004l-.24 1.076c.792 1.221 1.676 2.565 2.742 3.557a6.48 6.48 0 0 0 .545-2.458v-.305a6.527 6.527 0 0 0-.56-2.494v.001ZM5.5 12.142v.094c.013.866.198 1.578.545 2.372a15.516 15.516 0 0 0 1.598-1.714 5.944 5.944 0 0 1-2.143-.752Zm6.33 2.925-.273 1.186h-.002l-.804-.184.224-.973-.512.036-.19.825-.806-.185c.041-.183.081-.361.126-.542-.958.13-1.903.339-2.827.624a6.509 6.509 0 0 0 5.122 2.646h.266a6.525 6.525 0 0 0 5.08-2.646 17.773 17.773 0 0 0-5.405-.787Z"/></g><defs><clipPath id="a"><path fill="#fff" d="M0 0h24v24H0z"/></clipPath></defs></svg>