<svg xmlns="http://www.w3.org/2000/svg" fill="none" viewBox="0 0 24 24"><g clip-path="url(#a)"><path fill="#00AFEC" d="M12 24c6.627 0 12-5.373 12-12S18.627 0 12 0 0 5.373 0 12s5.373 12 12 12"/><path fill="#fff" d="M14.332 9.72c.027-.043.05-.1.075-.148a6.5 6.5 0 0 0 .843-3.201 6.3 6.3 0 0 0-2.49-.83c.33 1.442.797 2.838 1.474 4.154zm-4.457-.246-.024-.006-.19-.043v-.003H9.66l.17-.744q.19.041.378.088h.003c.46-1.038.819-2.118 1.071-3.225a6.5 6.5 0 0 0-3.203 1.276v.002A6.5 6.5 0 0 0 5.5 11.87V12a6.6 6.6 0 0 0 2.245.794l.003-.003a18 18 0 0 0 2.129-3.317zm4.07 1.096c.142.076.195.185.262.397.094.32.03.658-.036.975l.786.182.195-.846c.794 1.221 1.674 2.483 2.742 3.473-.193.44-.314.594-.6.98a18 18 0 0 0-5.443-.805l.157-.626-.522-.122a.35.35 0 0 1-.213-.128c-.061-.081-.061-.189-.04-.284l.326-1.42c.169.04.345.067.504.142a.51.51 0 0 1 .302.345c.043.216-.048.422-.085.63l.703.162.586-2.539-.06-.02-.046-.009c.163-.17.305-.322.451-.507zm-6.18 2.387.017-.023c.136.03.242.02.381.034.5.044.986.054 1.483-.017q.057-.008.116-.01l-.116.443a.4.4 0 0 1-.134.234.32.32 0 0 1-.256.044c-.178-.036-.357-.085-.538-.12q-.084.372-.17.742l1.2.278c-.05.224-.061.284-.112.506q-1.502.206-2.951.644c-.285-.386-.407-.48-.597-.92.607-.564 1.154-1.19 1.677-1.835m2.787 1.79.481.112-.016.095-.514.037zm-.888-1.938q.056-.009.113-.01v-.002l.62-2.682c.024-.121.073-.243.034-.365a.3.3 0 0 0-.188-.188l-.02-.007c-.103-.027-.024-.008-.129-.032-.011-.003-.063.015-.075.012a17.6 17.6 0 0 1-2.108 3.276c.136.028.114.02.25.034a6.5 6.5 0 0 0 1.503-.036"/><path fill="#fff" d="M11.041 8.956v.002c.095-.403.185-.807.282-1.208l.8.184-.278 1.209.48.111.14-.604.07-.302.07-.302.8.182-.034.163c-.078.35-.164.697-.242 1.049l.922.214c-.677-1.316-1.125-2.692-1.454-4.133-.207-.025-.295-.017-.504-.02h-.128c-.23 0-.315-.006-.54.02-.254 1.106-.553 2.267-1.013 3.305zm1.062 1.034.024.005.003-.005z"/><path fill="#fff" d="m12.105 9.99-.371 1.61c.23.05.471.135.708.069a.49.49 0 0 0 .322-.327c.044-.143.066-.289.105-.43l.392.099c.018.002-.002.013.009.001l.01-.007c.162-.175.346-.366.493-.55a3 3 0 0 0-.76-.255zm5.834-.634c-.56-1.253-1.36-2.197-2.547-2.885a6.14 6.14 0 0 1-.823 3.102 2 2 0 0 0-.091.188c.371.08.603.13.975.214v.004l-.24 1.076c.792 1.221 1.676 2.565 2.742 3.557a6.5 6.5 0 0 0 .545-2.458v-.305a6.5 6.5 0 0 0-.561-2.494zM5.5 12.142v.094c.012.866.198 1.578.544 2.372q.864-.796 1.599-1.714a5.9 5.9 0 0 1-2.143-.752m6.33 2.925-.273 1.186h-.002l-.804-.184.223-.973-.511.036-.19.825h-.001l-.805-.185q.06-.272.126-.542c-.958.13-1.904.339-2.827.624a6.51 6.51 0 0 0 5.122 2.646h.266a6.52 6.52 0 0 0 5.08-2.646 17.8 17.8 0 0 0-5.405-.787"/></g><defs><clipPath id="a"><path fill="#fff" d="M0 0h24v24H0z"/></clipPath></defs></svg>