<svg xmlns="http://www.w3.org/2000/svg" fill="none" viewBox="0 0 24 24"><path fill="#62757E" fill-rule="evenodd" d="M10.916 12.29c-2.455-.157-4.77-.289-6.25.953v7.926a.832.832 0 0 1-1.666 0V3.867c0-.019.01-.035.01-.055a.8.8 0 0 1 .054-.261.9.9 0 0 1 .152-.232c.011-.011.015-.026.026-.037l.001-.002.004-.002C5.76.753 8.93 2.49 11.723 4.03c3.495 1.923 5.954 3.016 8.182.754a.833.833 0 0 1 1.417.715c-1.182 7.383-6.295 7.054-10.406 6.792m.002-6.804C8.056 3.911 6.18 3.014 4.666 4.263v7.002c1.846-.908 4.126-.778 6.357-.634 3.574.23 6.731.432 8.131-3.322-2.783 1.178-5.753-.458-8.236-1.823" clip-rule="evenodd"/></svg>