<svg xmlns="http://www.w3.org/2000/svg" fill="none" viewBox="0 0 24 24"><path fill="#62757E" fill-rule="evenodd" d="M16.946 11.734c.02.055.028.11.034.168.005.034.02.063.02.098 0 .037-.006.066-.007.101v.013c-.015.299-.086.534-.298.633l-5.199 8.842a.833.833 0 0 1-1.437-.844l4.67-7.943H7.951c-.04.006-.078.031-.12.031a.83.83 0 0 1-.421-.114.818.818 0 0 1-.393-.648C7.015 12.046 7 12.026 7 12c0-.019.01-.034.01-.051.004-.057.019-.11.034-.165.015-.054.028-.106.053-.155.008-.016.008-.035.018-.052l5.389-9.166a.834.834 0 0 1 1.437.844L9.29 11.167h6.877c.018 0 .035.01.053.01a.822.822 0 0 1 .161.033c.055.015.108.029.158.054.016.008.034.008.05.018.03.017.048.046.075.067a.77.77 0 0 1 .127.114c.035.04.062.083.088.13.027.046.05.09.067.141Z" clip-rule="evenodd"/></svg>