<svg xmlns="http://www.w3.org/2000/svg" fill="none" viewBox="0 0 24 24"><path fill="#62757E" fill-rule="evenodd" d="M10 2.2A1.8 1.8 0 0 0 8.2 4v3.2H8A1.8 1.8 0 0 0 6.2 9v10A2.8 2.8 0 0 0 9 21.8h6a2.8 2.8 0 0 0 2.8-2.8V9A1.8 1.8 0 0 0 16 7.2h-.2V4A1.8 1.8 0 0 0 14 2.2zm4.2 5V4a.2.2 0 0 0-.2-.2h-4a.2.2 0 0 0-.2.2v3.2h.8V5.705a.7.7 0 0 1 1.4-.008.7.7 0 0 1 1.4.008V7.2zm-6 1.6H8a.2.2 0 0 0-.2.2v10A1.2 1.2 0 0 0 9 20.2h6a1.2 1.2 0 0 0 1.2-1.2V9a.2.2 0 0 0-.2-.2zm1 7.433a2.8 2.8 0 1 1 5.6 0 2.8 2.8 0 0 1-5.6 0m2.8-1.2a1.2 1.2 0 1 0 0 2.4 1.2 1.2 0 0 0 0-2.4" clip-rule="evenodd"/></svg>