<svg xmlns="http://www.w3.org/2000/svg" fill="none" viewBox="0 0 24 24"><path fill="#62757E" d="M17.206 9.526c.63 0 .903.318 1.01.508.293.521-.036.99-.212 1.243l-7.005 10.144a.86.86 0 0 1-.923.572.84.84 0 0 1-.743-.723c-.005-.023-.003-.047-.007-.07-.002-.045-.016-.087-.01-.133l.008-.066c.004-.03.005-.06.012-.092l.607-4.713 2.016-2.015-.01.107-.433 3.359 4.46-6.458h-1.024l1.663-1.663zm1.977-7.355a.849.849 0 1 1 1.2 1.202l-15.998 16a.85.85 0 0 1-1.202-1.202l3.655-3.655H6.14c-.634 0-.913-.332-1.023-.53-.31-.556.073-1.094.198-1.272l8.51-10.394a.903.903 0 0 1 1.226-.144.8.8 0 0 1 .324.629.8.8 0 0 1-.014.307l-.995 3.873zM7.415 12.851h1.087L11.953 9.4l.78-3.04z"/></svg>