<svg xmlns="http://www.w3.org/2000/svg" fill="none" viewBox="0 0 24 24"><g clip-path="url(#a)"><path fill="#C40E09" d="M12 24c6.627 0 12-5.373 12-12S18.627 0 12 0 0 5.373 0 12s5.373 12 12 12Z"/><path fill="#fff" fill-rule="evenodd" d="M15.946 6.362c.057.044.109.083.156.124.126.111.253.223.376.338.097.093.19.192.283.29.008.007.014.025.011.035a2.536 2.536 0 0 1-.614 1.093c-.185.19-.392.35-.618.48-.099.057-.2.108-.301.16a3.718 3.718 0 0 1-1.017.32c-.238.044-.48.076-.72.109-.315.043-.631.078-.946.124-.465.067-.92.173-1.351.373-.475.221-.87.544-1.139 1.02a2.03 2.03 0 0 0-.248 1.033c.006.705.247 1.314.663 1.855.255.331.545.625.85.903.212.193.427.38.638.572.27.248.54.496.77.786.121.152.24.309.344.475.177.284.318.589.41.915.051.178.082.36.096.546a2.57 2.57 0 0 1-.073.822c-.027.11-.029.112-.137.131-.154.029-.307.058-.461.083-.113.017-.226.028-.34.04-.039.006-.079.008-.119.011h-.024c.001-.01 0-.018.003-.026.034-.091.073-.18.105-.273.072-.196.12-.401.144-.61a1.867 1.867 0 0 0-.193-1.063 2.55 2.55 0 0 0-.442-.602 8.838 8.838 0 0 0-.766-.691 12.38 12.38 0 0 1-1.257-1.179 6.419 6.419 0 0 1-.644-.828 4.074 4.074 0 0 1-.489-1.022 2.999 2.999 0 0 1-.016-1.73c.093-.327.218-.634.412-.91a2.82 2.82 0 0 1 .965-.846 4.882 4.882 0 0 1 1.208-.458 8.248 8.248 0 0 1 1.023-.191c.389-.047.777-.087 1.165-.13.317-.036.632-.08.938-.177.279-.084.535-.23.749-.428.185-.173.322-.38.421-.618.091-.22.136-.451.168-.686.007-.052.011-.106.017-.17Zm-4.493 8.162c.14-.027.272-.051.403-.08.339-.075.673-.165.987-.326a2.61 2.61 0 0 0 .807-.636c.23-.271.417-.57.515-.923a1.98 1.98 0 0 0 .064-.689 2.745 2.745 0 0 0-.467-1.314 5.327 5.327 0 0 0-.688-.82c-.044-.045-.091-.09-.136-.134-.007-.006-.012-.014-.021-.025l.241-.038.524-.08c.092-.013.183-.029.275-.04.01-.002.026.01.035.02.163.19.33.375.486.57.204.254.376.531.516.83.124.267.215.544.26.838.03.206.044.413.023.62-.061.582-.234 1.12-.574 1.59a2.98 2.98 0 0 1-.765.725 4.375 4.375 0 0 1-1.104.523c-.168.054-.337.1-.505.147a.055.055 0 0 1-.046-.01 184.08 184.08 0 0 1-.829-.747l-.001-.001ZM12.8 8.352l-.41.064-.465.072c-.054.009-.109.019-.164.025a.079.079 0 0 1-.056-.018 4.804 4.804 0 0 1-.497-.531c-.083-.105-.167-.21-.24-.323-.248-.384-.442-.795-.524-1.256-.074-.394-.052-.8.062-1.184.007-.025.015-.038.045-.044.17-.03.339-.067.509-.095.14-.023.282-.034.423-.05L11.6 5l-.023.052a2.8 2.8 0 0 0-.248.789c-.058.374.002.757.172 1.095.14.284.333.524.55.745.227.23.473.435.719.64l.031.031Zm-2.02 7.184-.271.028c-.115.013-.23.022-.344.04-.176.027-.353.054-.528.093-.638.14-1.135.48-1.406 1.13a3.6 3.6 0 0 0-.22.738l-.012.043c-.036-.028-.07-.05-.1-.077-.127-.114-.254-.226-.378-.341-.09-.085-.174-.174-.264-.26-.03-.028-.035-.057-.024-.098.12-.435.358-.829.686-1.139a3.27 3.27 0 0 1 .707-.5c.36-.196.745-.31 1.14-.395.045-.01.092-.014.137-.027.028-.007.046 0 .066.019l.368.337.408.374a.54.54 0 0 1 .035.035Zm2.753-2.786c-.032-.008-.063-.015-.094-.024l-2.196-.687-.845-.264c-.108-.033-.163-.122-.155-.212.012-.134.056-.227.182-.252a.219.219 0 0 1 .103.01c.238.072.475.149.712.223l1.681.524.67.208a.216.216 0 0 1 .157.236c-.018.141-.103.234-.215.238Zm-4.639 4.134c.02.005.045.009.068.016l3.058.955c.105.033.167.12.158.223-.012.14-.085.232-.194.241a.268.268 0 0 1-.099-.014c-.843-.262-1.686-.526-2.528-.789l-.526-.163c-.098-.032-.163-.115-.156-.21.01-.127.056-.223.169-.251.015-.005.03-.005.05-.008Zm6.447-10.032c-.01.028-.023.086-.05.135-.045.08-.136.11-.225.082l-1.475-.46c-.527-.165-1.055-.33-1.583-.493-.09-.028-.157-.081-.167-.183-.011-.115.042-.268.192-.285a.211.211 0 0 1 .084.011l3.064.957c.102.032.16.107.16.236Zm-4.4 4.113c.005-.132.063-.231.166-.252a.258.258 0 0 1 .121.008c.31.094.618.191.927.288l1.166.363a.217.217 0 0 1 .155.245c-.024.147-.11.236-.23.223-.06-.007-.119-.031-.179-.05l-1.515-.473-.457-.143a.207.207 0 0 1-.155-.21Zm-.212 1.202c.04.011.071.017.101.026l1.922.6c.053.017.106.032.159.05.118.038.175.147.144.272-.023.098-.07.174-.172.191a.224.224 0 0 1-.1-.008c-.244-.074-.487-.151-.731-.228-.454-.14-.907-.283-1.36-.423-.084-.026-.148-.076-.162-.168-.016-.103.011-.198.093-.263.032-.025.074-.034.106-.048Zm-1.771 5.847c.009-.138.069-.245.193-.259a.205.205 0 0 1 .08.009l2.116.66c.113.035.168.147.14.267-.024.102-.077.173-.177.196a.115.115 0 0 1-.057.001l-1.977-.617-.175-.055a.21.21 0 0 1-.143-.202Zm.634-1.731.07.017 2.087.651a.215.215 0 0 1 .158.22c-.01.137-.08.23-.187.244a.265.265 0 0 1-.107-.014c-.563-.174-1.127-.352-1.69-.528-.133-.041-.268-.082-.402-.125-.098-.032-.157-.113-.149-.213.01-.131.061-.217.17-.245.015-.004.03-.004.05-.007Zm4.85-8.63-.202-.06-1.961-.614c-.13-.041-.183-.146-.148-.285.023-.088.068-.152.154-.172a.23.23 0 0 1 .115.004l1.738.54.372.117a.21.21 0 0 1 .144.23c-.01.083-.034.165-.115.206-.03.016-.063.022-.096.033Zm.626-1.719c-.012.085-.035.177-.132.224a.205.205 0 0 1-.155.005l-1.506-.471-.587-.185c-.123-.038-.177-.145-.143-.277.023-.09.066-.159.156-.178a.243.243 0 0 1 .118.007c.396.122.791.246 1.186.37l.907.282c.099.032.157.109.156.223Z" clip-rule="evenodd"/></g><defs><clipPath id="a"><path fill="#fff" d="M0 0h24v24H0z"/></clipPath></defs></svg>