<svg xmlns="http://www.w3.org/2000/svg" fill="none" viewBox="0 0 24 24"><g clip-path="url(#a)"><path fill="#C40E09" d="M12 24c6.627 0 12-5.373 12-12S18.627 0 12 0 0 5.373 0 12s5.373 12 12 12"/><path fill="#fff" fill-rule="evenodd" d="M15.946 6.362q.085.064.156.124.19.166.376.338.145.141.283.29c.008.007.014.025.011.035q-.085.332-.26.625-.15.256-.354.468-.278.285-.618.48-.149.084-.301.16a3.7 3.7 0 0 1-1.017.32c-.238.044-.48.076-.72.109-.315.043-.631.078-.946.124-.465.067-.92.173-1.351.373-.475.221-.87.544-1.139 1.02a2.03 2.03 0 0 0-.248 1.033c.006.705.247 1.314.663 1.855.255.331.545.625.85.903.212.193.427.38.638.572.27.248.54.496.77.786.121.152.24.309.344.475.177.284.318.589.41.915q.076.267.096.546a2.6 2.6 0 0 1-.073.822c-.027.11-.029.112-.137.131q-.23.044-.461.083-.17.024-.34.04-.059.008-.119.011h-.024q0-.015.003-.026c.034-.091.073-.18.105-.273q.108-.295.144-.61a1.87 1.87 0 0 0-.193-1.063 2.6 2.6 0 0 0-.442-.602 9 9 0 0 0-.766-.691 12 12 0 0 1-1.257-1.179 6.4 6.4 0 0 1-.644-.828 4 4 0 0 1-.489-1.022 3 3 0 0 1-.016-1.73c.093-.327.218-.634.412-.91a2.8 2.8 0 0 1 .965-.846 5 5 0 0 1 1.208-.458 8 8 0 0 1 1.023-.191c.389-.047.777-.087 1.165-.13.317-.036.632-.08.938-.177.279-.084.535-.23.749-.428.185-.173.322-.38.421-.618.091-.22.136-.451.168-.686q.01-.076.017-.17m-4.493 8.162q.208-.039.403-.08c.339-.075.673-.165.987-.326a2.6 2.6 0 0 0 .807-.636c.23-.271.417-.57.515-.923a2 2 0 0 0 .064-.689 2.75 2.75 0 0 0-.467-1.314 5.3 5.3 0 0 0-.688-.82q-.067-.068-.136-.134-.009-.009-.021-.025l.241-.038.524-.08.275-.04c.01-.002.026.01.035.02.163.19.33.375.486.57q.306.381.516.83c.124.267.215.544.26.838.03.206.044.413.023.62-.061.582-.234 1.12-.574 1.59a3 3 0 0 1-.765.725 4.4 4.4 0 0 1-1.104.523c-.168.054-.337.1-.505.147a.06.06 0 0 1-.046-.01q-.407-.363-.812-.729-.007-.005-.017-.018zM12.8 8.352l-.41.064-.465.072q-.081.015-.164.025a.08.08 0 0 1-.056-.018 5 5 0 0 1-.497-.531c-.083-.105-.167-.21-.24-.323-.248-.384-.442-.795-.524-1.256-.074-.394-.052-.8.062-1.184.007-.025.015-.038.045-.044.17-.03.339-.067.509-.095.14-.023.282-.034.423-.05L11.6 5l-.023.052a2.8 2.8 0 0 0-.248.789c-.058.374.002.757.172 1.095.14.284.333.524.55.745.227.23.473.435.719.64zm-2.02 7.184-.271.028c-.115.013-.23.022-.344.04-.176.027-.353.054-.528.093-.638.14-1.135.48-1.406 1.13q-.15.358-.22.738l-.012.043c-.036-.028-.07-.05-.1-.077q-.191-.17-.378-.341c-.09-.085-.174-.174-.264-.26-.03-.028-.035-.057-.024-.098.12-.435.358-.829.686-1.139a3.3 3.3 0 0 1 .707-.5c.36-.196.745-.31 1.14-.395.045-.01.092-.014.137-.027.028-.007.046 0 .066.019l.368.337.408.374zm2.753-2.786q-.048-.011-.094-.024l-2.196-.687q-.423-.131-.844-.264c-.109-.033-.164-.122-.156-.212.012-.134.056-.227.182-.252a.2.2 0 0 1 .103.01q.357.11.712.223l1.681.524.67.208a.216.216 0 0 1 .157.236c-.018.141-.103.234-.215.238m-4.639 4.134q.032.006.068.016l3.058.955c.105.033.167.12.158.223-.012.14-.085.232-.194.241a.3.3 0 0 1-.099-.014l-2.528-.789-.526-.163c-.098-.032-.163-.115-.156-.21.01-.127.056-.223.169-.251q.021-.006.05-.008m6.447-10.032c-.01.028-.023.086-.05.135-.045.08-.136.11-.225.082l-1.475-.46q-.79-.248-1.583-.493c-.09-.028-.157-.081-.167-.183-.011-.115.042-.268.192-.285a.2.2 0 0 1 .084.011l3.064.957c.102.032.16.107.16.236m-4.4 4.113c.005-.132.063-.231.166-.252a.3.3 0 0 1 .121.008q.464.142.927.288l1.166.363a.217.217 0 0 1 .155.245c-.024.147-.11.236-.23.223-.06-.007-.119-.031-.179-.05l-1.515-.473-.457-.143a.21.21 0 0 1-.155-.21m-.212 1.202.101.026 1.922.6q.08.024.159.05c.118.038.175.147.144.272-.023.098-.07.174-.172.191a.2.2 0 0 1-.1-.008q-.365-.112-.731-.228l-1.36-.423c-.084-.026-.148-.076-.162-.168-.016-.103.011-.198.093-.263.032-.025.074-.034.106-.048m-1.771 5.847c.009-.138.069-.245.193-.259a.2.2 0 0 1 .08.009l2.116.66c.113.035.168.147.14.267-.024.102-.077.173-.177.196a.1.1 0 0 1-.057.001l-1.977-.617-.175-.055a.21.21 0 0 1-.143-.202m.634-1.731.07.017 2.087.651a.215.215 0 0 1 .158.22c-.01.137-.08.23-.187.244a.3.3 0 0 1-.107-.014q-.845-.262-1.69-.528-.2-.061-.402-.125c-.098-.032-.157-.113-.149-.213.01-.131.061-.217.17-.245q.021-.004.05-.007m4.85-8.63-.202-.06-1.961-.614c-.13-.041-.183-.146-.148-.285.023-.088.068-.152.154-.172a.23.23 0 0 1 .115.004l1.738.54.372.117a.21.21 0 0 1 .144.23c-.01.083-.034.165-.115.206-.03.016-.063.022-.096.033m.626-1.719c-.012.085-.035.177-.132.224a.2.2 0 0 1-.155.005l-1.506-.471-.587-.185c-.123-.038-.177-.145-.143-.277.023-.09.066-.159.156-.178a.24.24 0 0 1 .118.007q.594.184 1.186.37l.907.282c.099.032.157.109.156.223" clip-rule="evenodd"/></g><defs><clipPath id="a"><path fill="#fff" d="M0 0h24v24H0z"/></clipPath></defs></svg>