<svg xmlns="http://www.w3.org/2000/svg" fill="none" viewBox="0 0 24 24"><g clip-path="url(#a)"><path fill="#2080A2" d="M12 24c6.627 0 12-5.373 12-12S18.627 0 12 0 0 5.373 0 12s5.373 12 12 12"/><path fill="#fff" fill-rule="evenodd" d="M11.986 15.008c-.802.915-.821 2.17.01 3.006.784-.756.784-2.165-.01-3.006m0-8.534c-1.893 2.19-1.821 4.778 0 6.929 1.853-2.195 1.858-4.771 0-6.93m1.34 6.317c1.574-1.61 3.496-1.978 5.674-1.63-.702 1.61-1.693 2.896-3.443 3.569.387-.303.739-.55 1.057-.835a3.55 3.55 0 0 0 1.097-1.737c.06-.218-.017-.28-.217-.312-.733-.118-1.421.036-2.079.336-1.106.504-2.007 1.28-2.851 2.124-.015.015-.021.038-.048.086 1.655.063 2.916.724 3.663 2.25-.97.216-1.858.17-2.681-.359.62.19 1.239.33 1.918.007-.084-.14-.133-.303-.245-.395-.306-.25-.62-.503-.966-.693-.536-.293-1.134-.43-1.796-.566.894 1.566.67 2.988-.423 4.364-.508-.64-.864-1.31-.961-2.101-.098-.794.125-1.515.508-2.205-.847-.136-2.675.845-2.957 1.6.656.332 1.295.181 1.954-.064-.473.487-1.837.687-2.727.393.738-1.505 1.993-2.167 3.685-2.23-.124-.126-.217-.224-.313-.317-.705-.679-1.453-1.302-2.332-1.755-.719-.371-1.473-.604-2.3-.48-.099.015-.196.039-.333.067.252 1.295 1.12 2.098 2.193 2.774C7.275 14.546 5.371 12.574 5 11.16c2.177-.353 4.109.033 5.677 1.679C9.38 9.949 10.07 7.392 11.986 5c1.9 2.373 2.598 4.912 1.34 7.791" clip-rule="evenodd"/></g><defs><clipPath id="a"><path fill="#fff" d="M0 0h24v24H0z"/></clipPath></defs></svg>