<svg xmlns="http://www.w3.org/2000/svg" fill="none" viewBox="0 0 24 24"><path fill="#00EF8B" d="M12.08 22c5.523 0 10-4.477 10-10s-4.477-10-10-10-10 4.477-10 10 4.477 10 10 10"/><path fill="#fff" d="M16.468 10.436h-2.824v2.824h2.824zm-5.646 3.882a1.06 1.06 0 1 1-1.06-1.06h1.06v-2.822h-1.06a3.882 3.882 0 1 0 3.882 3.882v-1.06h-2.822zm3.882-5.294h3.176V6.2h-3.176a3.886 3.886 0 0 0-3.882 3.882v.354h2.822v-.354a1.06 1.06 0 0 1 1.06-1.058"/><path fill="#16FF99" d="M10.822 13.258h2.822v-2.822h-2.822z"/></svg>