<svg xmlns="http://www.w3.org/2000/svg" fill="none" viewBox="0 0 24 24"><path fill="#62757E" fill-rule="evenodd" d="M20.333 18.167H6.167A1.67 1.67 0 0 1 4.5 16.5V5.667C4.5 4.747 5.247 4 6.167 4h4.651q.173.004.334.075.144.063.253.173l.006.003L13.6 6.5h6.732c.92 0 1.667.747 1.667 1.667V16.5a1.67 1.67 0 0 1-1.667 1.667m0-10H13.25a.84.84 0 0 1-.592-.249l-.005-.003-2.19-2.248H6.167v10.88h14.166zM19.5 19.834c0 .46-.373.833-.833.833h-15C2.747 20.667 2 19.919 2 19V7.334a.834.834 0 1 1 1.667 0v11.725h15c.46 0 .833.314.833.775" clip-rule="evenodd"/></svg>