<svg xmlns="http://www.w3.org/2000/svg" fill="none" viewBox="0 0 24 24"><path fill="#62757E" fill-rule="evenodd" d="M21.167 14c-.46 0-.75-.322-.75-.782V7.35L12 7.334h-.001a.8.8 0 0 1-.287-.059q-.043-.017-.084-.039c-.03-.015-.062-.023-.09-.043l-2.29-1.526h-5.58l.02 13.418h10.037c.46 0 .775.288.775.748s-.373.833-.833.833h-10C2.747 20.666 2 19.92 2 19V5.667A1.67 1.67 0 0 1 3.667 4H9.5c.026 0 .047.013.072.015q.084.008.166.034a1 1 0 0 1 .155.062c.022.013.047.015.07.029l2.29 1.527h8.08c.92 0 1.667.748 1.667 1.667v5.833c0 .46-.373.833-.834.833m-5.59 1.91a.834.834 0 0 1 1.179 0l1.91 1.91 1.912-1.91a.833.833 0 1 1 1.177 1.178L19.845 19l1.91 1.911a.832.832 0 0 1-.588 1.423.83.83 0 0 1-.59-.244l-1.91-1.911-1.911 1.91a.83.83 0 0 1-1.179 0 .833.833 0 0 1 0-1.178L17.49 19l-1.912-1.912a.833.833 0 0 1 0-1.178" clip-rule="evenodd"/></svg>