<svg xmlns="http://www.w3.org/2000/svg" fill="none" viewBox="0 0 24 24"><path fill="currentColor" fill-rule="evenodd" d="M21.167 12a.833.833 0 0 1-.834-.833V5.333H12a.828.828 0 0 1-.29-.058c-.028-.01-.053-.025-.08-.038-.03-.015-.063-.023-.093-.044l-2.29-1.526h-5.58V17.09H14.5c.46 0 .833.284.833.744s-.373.832-.833.832H3.667C2.747 18.666 2 17.92 2 17V3.667C2 2.747 2.748 2 3.667 2H9.5c.026 0 .047.013.072.015.057.005.11.017.166.034a.805.805 0 0 1 .155.062c.022.013.047.015.07.03l2.29 1.526h8.08c.92 0 1.667.748 1.667 1.666v5.834c0 .46-.373.833-.833.833Zm-3.334.833h.834a.833.833 0 0 1 0 1.668h-.834a.834.834 0 0 1 0-1.668ZM17 16.167c0-.46.373-.833.833-.833h.834c.46 0 .833.373.833.833v2.5a.834.834 0 0 1 0 1.666h-1.667a.833.833 0 0 1 0-1.667V17a.833.833 0 0 1-.833-.833Z" clip-rule="evenodd"/></svg>