<svg xmlns="http://www.w3.org/2000/svg" fill="none" viewBox="0 0 24 24"><path fill="currentColor" fill-rule="evenodd" d="M21.166 13.666a.833.833 0 0 1-.833-.834l.055-7.358h-8.355c-.255 0-.485-.165-.647-.385L9.247 3.663h-5.58l.012 13.577h10.025a.841.841 0 0 1 0 1.68H3.678C2.76 18.92 2 17.92 2 17V3.662c0-.919.76-1.55 1.679-1.55h5.413a.825.825 0 0 1 .87.023l2.485 1.657h7.941c.92 0 1.612.618 1.612 1.537v7.502c0 .46-.373.834-.834.834Zm-5.126 1.92 1.287-.198.583-1.243a.833.833 0 0 1 1.51 0l.583 1.243 1.29.198a.833.833 0 0 1 .47 1.407l-.957.978.226 1.395a.836.836 0 0 1-.822.967.832.832 0 0 1-.403-.104l-1.142-.631-1.142.631a.838.838 0 0 1-.883-.047.836.836 0 0 1-.342-.816l.227-1.395-.955-.98a.833.833 0 0 1 .47-1.405Zm1.971 1.522a.831.831 0 0 1 .226.715l-.018.117.042-.024a.83.83 0 0 1 .807 0l.044.025-.019-.118a.837.837 0 0 1 .228-.716l.115-.119-.125-.019a.835.835 0 0 1-.628-.469l-.017-.04-.019.04a.834.834 0 0 1-.628.47l-.124.018.116.12Z" clip-rule="evenodd"/></svg>