<svg xmlns="http://www.w3.org/2000/svg" fill="none" viewBox="0 0 24 24"><path fill="#62757E" fill-rule="evenodd" d="M20.333 20.667H3.667C2.747 20.667 2 19.919 2 19V5.667A1.67 1.67 0 0 1 3.667 4H9.5c.026 0 .047.013.073.015q.084.008.165.033a1 1 0 0 1 .155.064c.022.012.047.014.07.028l2.336 1.558h8.034c.92 0 1.667.716 1.667 1.635V19c0 .92-.747 1.667-1.667 1.667m0-13.333H12a.8.8 0 0 1-.372-.098c-.03-.015-.061-.023-.09-.043l-2.29-1.526H3.667v13.45h16.666zM11.255 9.46c.282-.564 1.208-.564 1.49 0l3.334 6.667a.834.834 0 0 1-1.49.746l-1.02-2.039h-3.137l-1.02 2.039a.834.834 0 0 1-1.49-.746zm1.48 3.707L12 11.697l-.735 1.47z" clip-rule="evenodd"/></svg>