<svg xmlns="http://www.w3.org/2000/svg" fill="none" viewBox="0 0 24 24"><path fill="#62757E" fill-rule="evenodd" d="M20.333 20.667H3.667C2.747 20.667 2 19.8 2 18.889V5.655C2 4.742 2.748 4 3.667 4h5.888c.028 0 .052.013.078.016a.8.8 0 0 1 .32.098c.023.013.05.015.072.03l2.233 1.51h1.409v-.827A.83.83 0 0 1 14.5 4h3.333c.46 0 .834.37.834.827v.828h1.666c.92 0 1.667.741 1.667 1.654v11.58c0 .912-.747 1.778-1.667 1.778M17 5.655h-1.667v4.452l.462-.229a.84.84 0 0 1 .745 0l.46.228zm3.333 1.654h-1.666v4.135c0 .288-.15.554-.395.704a.84.84 0 0 1-.811.036l-1.293-.642-1.295.642a.84.84 0 0 1-.811-.036.82.82 0 0 1-.395-.704V7.31H12a.8.8 0 0 1-.29-.058q-.043-.017-.084-.04c-.032-.017-.065-.026-.095-.046l-2.233-1.51H3.667v13.347h16.666z" clip-rule="evenodd"/></svg>