<svg xmlns="http://www.w3.org/2000/svg" fill="none" viewBox="0 0 24 24"><path fill="#62757E" fill-rule="evenodd" d="M21.166 14c-.46 0-.724-.32-.724-.78V7.353L12 7.333a.8.8 0 0 1-.288-.057q-.043-.018-.084-.04c-.03-.015-.061-.023-.09-.043l-2.29-1.526H3.667l.023 13.42h7.539c.46 0 .77.286.77.747 0 .46-.372.833-.833.833h-7.5A1.67 1.67 0 0 1 2 19V5.667C2 4.747 2.748 4 3.667 4H9.5c.025 0 .046.013.072.015q.084.008.165.034a1 1 0 0 1 .155.062c.022.013.047.015.07.029l2.289 1.527h8.081c.92 0 1.667.748 1.667 1.666v5.834c0 .46-.373.833-.834.833m-6.13 4.361 2.302 1.93 3.157-4.285a.834.834 0 1 1 1.342.989l-3.683 5a.834.834 0 0 1-1.206.144l-2.983-2.5a.833.833 0 1 1 1.07-1.277" clip-rule="evenodd"/></svg>