<svg xmlns="http://www.w3.org/2000/svg" fill="none" viewBox="0 0 24 24"><path fill="#62757E" fill-rule="evenodd" d="M21.167 17.308a.831.831 0 0 1-.834-.828V7.362H12a.806.806 0 0 1-.596-.278L9.248 5.656H3.667v13.373H14.5c.46 0 .833.246.833.703 0 .457-.372.964-.833.964H3.667c-.92 0-1.667-.879-1.667-1.792V5.656C2 4.743 2.748 4 3.667 4H9.5c.026 0 .047.013.072.014.057.005.11.017.166.034a.84.84 0 0 1 .155.063c.022.012.048.014.07.028l2.349 1.556h8.021c.919 0 1.667.704 1.667 1.617v9.168a.831.831 0 0 1-.833.828Zm-3.334-2.427c.461 0 .834.372.834.829v3.311a.83.83 0 0 1-.834.829.83.83 0 0 1-.833-.829V15.71a.83.83 0 0 1 .833-.829Zm.592 6.036c.15.158.242.365.242.589 0 .215-.092.43-.242.587a.884.884 0 0 1-.592.24.88.88 0 0 1-.591-.24.864.864 0 0 1-.242-.587c0-.224.09-.431.242-.589.308-.306.866-.306 1.183 0Z" clip-rule="evenodd"/></svg>