<svg xmlns="http://www.w3.org/2000/svg" fill="none" viewBox="0 0 24 24"><path fill="#62757E" fill-rule="evenodd" d="M20.333 20.667h-10A1.67 1.67 0 0 1 8.667 19v-6.666c0-.92.747-1.667 1.666-1.667h3.92c.044 0 .082.018.124.025.063.01.127.013.187.038.064.026.118.07.173.11.03.022.066.033.095.06l1.518 1.465h3.983c.92 0 1.667.716 1.667 1.635v5c0 .919-.747 1.667-1.667 1.667m0-6.667h-4.352a.8.8 0 0 1-.314-.063c-.06-.024-.107-.065-.158-.102-.035-.024-.075-.038-.107-.069l-1.484-1.432h-3.585v6.729h10zm.834-4.167A.833.833 0 0 1 20.333 9a.417.417 0 0 0-.416-.417l-.018-.003-.018.003h-.928a.82.82 0 0 1-.703 1.25.83.83 0 0 1-.59-.244l-1.248-1.25a.83.83 0 0 1-.244-.582l-.001-.007a.84.84 0 0 1 .245-.59l1.249-1.25a.833.833 0 0 1 1.178 0 .82.82 0 0 1 .114 1.007h.928l.018.003.018-.003C21.065 6.917 22 7.85 22 9c0 .46-.373.833-.833.833m-6.667 0A.833.833 0 0 1 13.667 9V7.333H9.314A.8.8 0 0 1 9 7.269c-.057-.023-.104-.064-.154-.1-.036-.024-.077-.039-.11-.07L7.25 5.666H3.667v6.699H7c.46 0 .833.341.833.802 0 .46-.373.833-.833.833H3.667C2.747 14 2 13.252 2 12.334V5.666C2 4.748 2.748 4 3.667 4h3.92c.045 0 .084.018.127.025.062.01.124.014.183.038.068.027.124.072.182.115.028.021.061.03.086.056l1.486 1.432h4.016c.919 0 1.666.748 1.666 1.667V9c0 .46-.373.833-.833.833M2.833 15.667c.46 0 .834.372.834.833 0 .23.186.417.416.417l.019.003.018-.003h.927a.82.82 0 0 1 .114-1.006.833.833 0 0 1 1.178 0l1.25 1.25.002.002a.84.84 0 0 1 .242.587v.002a.82.82 0 0 1-.245.588L6.34 19.59a.83.83 0 0 1-1.178 0 .82.82 0 0 1-.114-1.006H4.12l-.018-.005-.019.005A2.086 2.086 0 0 1 2 16.5c0-.46.373-.833.833-.833" clip-rule="evenodd"/></svg>