<svg xmlns="http://www.w3.org/2000/svg" fill="none" viewBox="0 0 24 24"><path fill="currentColor" fill-rule="evenodd" d="M21.166 12.833c-.46 0-.75-.33-.75-.79V5.337L12 5.333h-.001a.828.828 0 0 1-.288-.058c-.03-.011-.055-.025-.083-.039-.03-.015-.062-.023-.09-.043l-2.29-1.526H3.667l.021 13.403h8.364c.46 0 .78.302.78.763 0 .46-.372.833-.832.833H3.667C2.747 18.666 2 17.92 2 17V3.667C2 2.747 2.748 2 3.667 2H9.5c.026 0 .046.013.072.014a.78.78 0 0 1 .167.035.794.794 0 0 1 .153.062c.022.013.048.015.07.029l2.29 1.527h8.081c.92 0 1.667.747 1.667 1.666V12a.834.834 0 0 1-.834.834Zm-3.333.833A3.338 3.338 0 0 1 21.166 17a3.3 3.3 0 0 1-.472 1.683l1.061 1.06a.832.832 0 1 1-1.177 1.18l-1.063-1.062a3.299 3.299 0 0 1-1.682.472A3.337 3.337 0 0 1 14.5 17a3.338 3.338 0 0 1 3.333-3.334Zm0 5c.46 0 .875-.186 1.177-.488l.002-.001A1.667 1.667 0 1 0 16.166 17c0 .919.748 1.666 1.667 1.666Z" clip-rule="evenodd"/></svg>