<svg xmlns="http://www.w3.org/2000/svg" fill="none" viewBox="0 0 24 24"><path fill="#62757E" fill-rule="evenodd" d="M21.166 15c-.46 0-.754-.32-.754-.78V7.352L12 7.332a.8.8 0 0 1-.288-.057q-.043-.017-.084-.04c-.03-.015-.062-.023-.09-.042l-2.29-1.527H3.667l.016 13.42h9.528c.46 0 .79.287.79.748 0 .46-.374.833-.835.833H3.667C2.747 20.667 2 19.919 2 19V5.666C2 4.746 2.748 4 3.667 4H9.5c.025 0 .046.012.071.014a1 1 0 0 1 .17.035 1 1 0 0 1 .15.06c.023.013.05.015.071.03l2.29 1.527h8.081c.92 0 1.667.748 1.667 1.667v6.834c0 .46-.374.833-.834.833m-5.126 2.586 1.287-.198.583-1.243a.833.833 0 0 1 1.51 0l.583 1.243 1.29.198a.833.833 0 0 1 .47 1.407l-.957.978.226 1.395a.836.836 0 0 1-.822.967.83.83 0 0 1-.403-.104l-1.142-.631-1.142.631a.84.84 0 0 1-.883-.047.84.84 0 0 1-.342-.816l.227-1.395-.955-.98a.833.833 0 0 1 .47-1.405m1.971 1.522a.83.83 0 0 1 .226.715l-.018.117.042-.024a.83.83 0 0 1 .807 0l.044.025-.019-.118a.84.84 0 0 1 .228-.716l.115-.119-.125-.019a.84.84 0 0 1-.628-.469l-.017-.04-.019.04a.83.83 0 0 1-.628.47l-.124.018z" clip-rule="evenodd"/></svg>