<svg xmlns="http://www.w3.org/2000/svg" fill="none" viewBox="0 0 24 24"><path fill="#62757E" fill-rule="evenodd" d="M20.333 20.667H3.667C2.747 20.667 2 19.919 2 19V5.666C2 4.747 2.748 4 3.667 4H9.5c.026 0 .048.013.073.014.056.005.11.017.165.034a.763.763 0 0 1 .155.064c.022.011.048.014.07.028l2.34 1.56h8.03c.92 0 1.667.714 1.667 1.633V19c0 .92-.747 1.667-1.667 1.667Zm0-13.334H12a.822.822 0 0 1-.288-.058c-.03-.011-.056-.025-.085-.04-.03-.015-.061-.023-.09-.042l-2.29-1.527h-5.58V19.12h16.666V7.334ZM9.744 10.079a.833.833 0 1 1 1.178 1.178l-1.91 1.91 1.91 1.911a.832.832 0 1 1-1.178 1.179l-2.5-2.5a.832.832 0 0 1 0-1.179l2.5-2.5Zm3.334.001a.833.833 0 0 1 1.178 0l2.5 2.5a.832.832 0 0 1 0 1.178l-2.5 2.5a.83.83 0 0 1-1.178 0 .832.832 0 0 1 0-1.178l1.91-1.91-1.91-1.912a.832.832 0 0 1 0-1.178Z" clip-rule="evenodd"/></svg>