<svg xmlns="http://www.w3.org/2000/svg" fill="none" viewBox="0 0 24 24"><path fill="#62757E" fill-rule="evenodd" d="M12.252 5.692h8.081c.919 0 1.667.76 1.667 1.693V19.23c0 .932-.748 1.692-1.667 1.692H3.667c-.919 0-1.667-.76-1.667-1.692V5.692C2 4.76 2.748 4 3.667 4H9.5c.165 0 .325.05.462.142zm-.486 1.659a.8.8 0 0 1-.238-.115l-2.28-1.544H3.667v13.539h16.666V7.385h-8.322a.8.8 0 0 1-.245-.034m-3.74 8.752c.294.36.82.408 1.174.11.97-.82 1.9-1.213 2.8-1.213s1.83.392 2.8 1.212c.354.3.88.25 1.174-.109a.855.855 0 0 0-.108-1.192c-1.251-1.057-2.545-1.603-3.866-1.603s-2.615.546-3.866 1.603a.855.855 0 0 0-.108 1.192M9.5 11.615a.84.84 0 0 0 .833-.846.84.84 0 0 0-.833-.846.84.84 0 0 0-.833.846.84.84 0 0 0 .833.846m5.833-.846a.84.84 0 0 1-.833.846.84.84 0 0 1-.833-.846.84.84 0 0 1 .833-.846.84.84 0 0 1 .833.846" clip-rule="evenodd"/></svg>