<svg xmlns="http://www.w3.org/2000/svg" fill="none" viewBox="0 0 24 24"><path fill="#62757E" fill-rule="evenodd" d="M21.166 14c-.46 0-.754-.32-.754-.78V7.352L12 7.332a.8.8 0 0 1-.288-.057q-.043-.017-.084-.04c-.03-.015-.062-.023-.09-.042l-2.29-1.527H3.667l.016 13.42h7.528c.46 0 .79.287.79.748 0 .46-.374.833-.835.833H3.667C2.747 20.667 2 19.919 2 19V5.666C2 4.746 2.748 4 3.667 4H9.5c.025 0 .046.012.071.014a1 1 0 0 1 .17.035 1 1 0 0 1 .15.06c.023.013.05.015.071.03l2.29 1.527h8.081c.92 0 1.667.748 1.667 1.667v5.834c0 .46-.374.833-.834.833m-3.333 3.333h1.322l-.245-.243a.833.833 0 0 1 1.179-1.179l1.667 1.666a.834.834 0 0 1 0 1.179l-1.667 1.666a.83.83 0 0 1-1.178 0 .83.83 0 0 1 0-1.178l.243-.244h-1.321a2.503 2.503 0 0 0-2.5 2.5.833.833 0 0 1-1.666 0 4.17 4.17 0 0 1 4.166-4.167" clip-rule="evenodd"/></svg>