<svg xmlns="http://www.w3.org/2000/svg" fill="none" viewBox="0 0 24 24"><path fill="#62757E" fill-rule="evenodd" d="M21.167 14.833a.833.833 0 0 1-.834-.833V7.333H12a.8.8 0 0 1-.288-.058q-.043-.017-.085-.04c-.03-.015-.061-.023-.09-.042l-2.29-1.527h-5.58v13.417h9.166c.461 0 .834.29.834.75 0 .461-.373.926-.834.926H3.667C2.747 20.76 2 19.92 2 19V5.667C2 4.746 2.748 4 3.667 4H9.5c.025 0 .047.012.07.014a.8.8 0 0 1 .322.097c.022.011.048.014.07.028l2.29 1.527h8.081A1.67 1.67 0 0 1 22 7.333V14c0 .46-.372.833-.833.833m-5 3.334h1.666v-1.668a.833.833 0 1 1 1.667 0v1.668h1.667a.833.833 0 1 1 0 1.667H19.5V21.5a.833.833 0 1 1-1.667 0v-1.666h-1.666a.834.834 0 0 1 0-1.667" clip-rule="evenodd"/></svg>