<svg xmlns="http://www.w3.org/2000/svg" fill="none" viewBox="0 0 24 24"><path fill="#62757E" fill-rule="evenodd" d="M21.167 14a.833.833 0 0 1-.834-.833V7.333H12a.8.8 0 0 1-.29-.058q-.04-.017-.08-.038c-.03-.015-.063-.023-.093-.044l-2.29-1.526h-5.58V19.09H14.5c.46 0 .833.284.833.744s-.373.832-.833.832H3.667C2.747 20.666 2 19.92 2 19V5.667C2 4.747 2.748 4 3.667 4H9.5c.026 0 .047.013.072.015q.084.008.166.034a1 1 0 0 1 .155.062c.022.013.047.015.07.03l2.29 1.526h8.08c.92 0 1.667.748 1.667 1.666v5.834c0 .46-.373.833-.833.833m-3.334.833h.834a.833.833 0 0 1 0 1.667h-.834a.834.834 0 0 1 0-1.667M17 18.167c0-.46.373-.833.833-.833h.834c.46 0 .833.373.833.833v2.5a.834.834 0 0 1 0 1.666h-1.667a.833.833 0 0 1 0-1.667V19a.833.833 0 0 1-.833-.833" clip-rule="evenodd"/></svg>