<svg xmlns="http://www.w3.org/2000/svg" fill="none" viewBox="0 0 24 24"><path fill="#F1C100" fill-rule="evenodd" d="M17.46 19.13a.3.3 0 0 1-.044.068l-.01.009-.063.061a.4.4 0 0 1-.106.075H4.539l2.714-7.458a.6.6 0 0 1 .225-.213h12.698z" clip-rule="evenodd"/><path fill="#D0A600" fill-rule="evenodd" d="M3.534 16.275V5.534h5.733l2.253 1.653c.03.023.066.033.099.05q.04.027.084.044a.8.8 0 0 0 .27.055h5.37v2.801H7.478c-.672 0-1.422.55-1.667 1.222l-2.277 6.256z" clip-rule="evenodd" opacity=".8"/><path fill="#B08C00" fill-rule="evenodd" d="M17.46 19.13a.3.3 0 0 1-.044.068l-.01.009-.063.061a.4.4 0 0 1-.106.075H4.539l2.714-7.458a.6.6 0 0 1 .225-.213h12.698zM3.535 16.276V5.534h5.733l2.253 1.653c.03.023.066.033.099.05q.04.027.084.044a.8.8 0 0 0 .27.055h5.37v2.801H7.478c-.672 0-1.422.55-1.667 1.222l-2.277 6.256v-1.34m17.611-6.138h-2.267V7.336c0-.847-.689-1.535-1.535-1.535h-5.119L9.972 4.15c-.024-.018-.052-.022-.076-.036a.7.7 0 0 0-.295-.096C9.573 4.014 9.547 4 9.518 4H3.534C2.688 4 2 4.688 2 5.534V19.4c0 .813.665 1.479 1.478 1.479H17.4a1.48 1.48 0 0 0 1.38-.964 1.6 1.6 0 0 0 .123-.257l3.02-8.298c.244-.672-.105-1.222-.777-1.222" clip-rule="evenodd"/></svg>