<svg xmlns="http://www.w3.org/2000/svg" fill="none" viewBox="0 0 24 24"><path fill="currentColor" fill-rule="evenodd" d="M21.167 13.667a.834.834 0 0 1-.834-.834v-7.5H12a.821.821 0 0 1-.288-.057c-.03-.011-.056-.026-.084-.04-.03-.015-.061-.023-.09-.043l-2.29-1.526H3.667v13.418h6.666c.46 0 .834.289.834.749s-.374.833-.834.833H3.667C2.747 18.667 2 17.919 2 17V3.667C2 2.747 2.748 2 3.667 2H9.5c.026 0 .047.013.073.015.056.005.11.017.165.034a.762.762 0 0 1 .155.062c.022.013.047.015.07.029l2.29 1.527h8.08c.92 0 1.667.747 1.667 1.666v7.5c0 .46-.373.834-.833.834Zm-5.834 1.667a.834.834 0 0 1 0 1.666.834.834 0 0 0 0 1.667.833.833 0 0 1 0 1.666c-1.378 0-2.5-1.12-2.5-2.5 0-1.378 1.122-2.5 2.5-2.5ZM17 17h.833a.834.834 0 0 1 0 1.667H17A.833.833 0 1 1 17 17Zm2.5 1.667a.834.834 0 0 0 0-1.667.833.833 0 0 1 0-1.666c1.378 0 2.5 1.121 2.5 2.5s-1.122 2.5-2.5 2.5a.833.833 0 0 1 0-1.667Z" clip-rule="evenodd"/></svg>