<svg xmlns="http://www.w3.org/2000/svg" fill="none" viewBox="0 0 24 24"><path fill="#687485" fill-rule="evenodd" d="M17.46 18.13a.27.27 0 0 1-.044.068l-.01.009a.779.779 0 0 1-.17.136H4.54l2.714-7.458a.606.606 0 0 1 .225-.213h12.698L17.46 18.13ZM3.535 15.276V4.534h5.733l2.253 1.653c.03.023.066.033.099.05.028.017.054.033.084.044a.77.77 0 0 0 .27.055h5.37v2.801H7.478c-.672 0-1.422.55-1.667 1.222l-2.277 6.256v-1.34Zm17.611-6.138h-2.267V6.336c0-.847-.689-1.535-1.535-1.535h-5.119L9.972 3.15c-.024-.018-.052-.022-.076-.036a.729.729 0 0 0-.295-.096C9.573 3.014 9.547 3 9.518 3H3.534C2.688 3 2 3.688 2 4.534V18.4c0 .814.665 1.479 1.478 1.479H17.4a1.48 1.48 0 0 0 1.38-.964 1.59 1.59 0 0 0 .123-.257l3.02-8.298c.244-.672-.105-1.222-.777-1.222Z" clip-rule="evenodd"/></svg>