<svg xmlns="http://www.w3.org/2000/svg" fill="none" viewBox="0 0 24 24"><path fill="#62757E" fill-rule="evenodd" d="M20.333 20.667H3.667C2.747 20.667 2 19.919 2 19V5.666C2 4.747 2.748 4 3.667 4H9.5c.025 0 .047.013.072.014a.9.9 0 0 1 .32.096c.022.013.048.015.07.03l2.341 1.56h8.03c.92 0 1.667.714 1.667 1.633V19c0 .92-.747 1.667-1.667 1.667m0-13.333H12a.8.8 0 0 1-.288-.06q-.043-.016-.083-.038c-.03-.015-.062-.023-.091-.043l-2.29-1.527H3.667V19.12h16.666zM8.807 13.542a.837.837 0 0 1 1.285-.124l.986.993 1.921-2.576a.833.833 0 0 1 1.384.073l2.476 4.166a.834.834 0 0 1-.717 1.26H7.833a.834.834 0 0 1-.693-1.297zm.278-1.209a1.25 1.25 0 1 1-.002-2.5 1.25 1.25 0 0 1 .002 2.5" clip-rule="evenodd"/></svg>