<svg xmlns="http://www.w3.org/2000/svg" fill="none" viewBox="0 0 24 24"><path fill="#62757E" fill-rule="evenodd" d="M21.167 13.16a.833.833 0 0 1-.834-.833V7.33H12a.8.8 0 0 1-.288-.058q-.043-.017-.083-.039c-.03-.015-.062-.023-.091-.042l-2.29-1.527H3.667v13.447H12c.46 0 .833.25.833.71s-.373.833-.833.833H3.667c-.92 0-1.667-.747-1.667-1.666V5.665C2 4.747 2.748 4 3.667 4H9.5c.025 0 .047.013.07.015a.9.9 0 0 1 .32.096c.024.012.05.014.072.029l2.345 1.562h8.026c.92 0 1.667.71 1.667 1.629v4.996c0 .46-.373.833-.833.833m-5.834 4.276v-.931a2.501 2.501 0 0 1 5 0v.83c0 .036-.015.066-.02.101h.02c.46 0 .834.274.834.734v3.331c0 .46-.374.832-.834.832h-5a.833.833 0 0 1-.833-.832v-3.33c0-.46.373-.735.833-.735m3.334-.101v-.83a.834.834 0 0 0-1.667 0v.931h1.688c-.005-.035-.021-.065-.021-.101m-2.5 3.454H19.5v-1.786h-3.333z" clip-rule="evenodd"/></svg>