<svg xmlns="http://www.w3.org/2000/svg" fill="none" viewBox="0 0 24 24"><path fill="#62757E" fill-rule="evenodd" d="M21.167 16.49a.833.833 0 0 1-.834-.832V7.331H12a.821.821 0 0 1-.288-.058c-.03-.011-.056-.025-.084-.04-.03-.015-.061-.023-.09-.042l-2.29-1.526H3.667v13.45H12c.46 0 .833.247.833.706 0 .46-.373.97-.833.97H3.667c-.92 0-1.667-.883-1.667-1.802V5.665C2 4.747 2.748 4 3.667 4H9.5c.026 0 .047.013.072.014a.82.82 0 0 1 .32.097c.023.013.048.015.07.029l2.35 1.565h8.021c.92 0 1.667.708 1.667 1.626v8.327c0 .46-.373.833-.833.833Zm-5.244 1.924L17 19.491V14.84a.833.833 0 0 1 1.667 0v4.65l1.077-1.076a.832.832 0 1 1 1.178 1.178l-2.497 2.495a.837.837 0 0 1-.273.184c-.065.027-.135.03-.204.04-.04.007-.075.023-.115.023h-.001a.824.824 0 0 1-.322-.065c-.02-.008-.035-.026-.054-.036a.791.791 0 0 1-.213-.143l-2.5-2.497a.833.833 0 1 1 1.18-1.178Z" clip-rule="evenodd"/></svg>