<svg xmlns="http://www.w3.org/2000/svg" fill="none" viewBox="0 0 24 24"><path fill="#62757E" fill-rule="evenodd" d="M21.167 16.485a.833.833 0 0 1-.834-.832V7.33H12a.8.8 0 0 1-.288-.058q-.043-.017-.084-.04c-.03-.015-.061-.023-.09-.042l-2.29-1.526H3.667v13.45h7.5c.46 0 .833.246.833.706s-.373.834-.833.834h-7.5c-.92 0-1.667-.747-1.667-1.666V5.665C2 4.747 2.748 4 3.667 4H9.5c.026 0 .047.013.072.014a.8.8 0 0 1 .32.097c.023.012.048.015.07.029l2.35 1.565h8.021c.92 0 1.667.707 1.667 1.626v8.322a.833.833 0 0 1-.833.832m-7.256 1.928 2.5-2.497a.834.834 0 0 1 1.178 1.177l-1.184 1.184h4.762c.46 0 .833.265.833.726s-.373.833-.833.833h-4.655l1.077 1.076A.831.831 0 0 1 17 22.333a.83.83 0 0 1-.59-.244l-2.496-2.495a.8.8 0 0 1-.183-.272.8.8 0 0 1-.057-.282c0-.013-.007-.024-.007-.037v-.001c0-.221.088-.433.244-.59" clip-rule="evenodd"/></svg>