<svg xmlns="http://www.w3.org/2000/svg" fill="none" viewBox="0 0 24 24"><path fill="url(#a)" d="m2 13.265.02-8.994c-.002-.434.385-.785.863-.785h5.561q.188-.001.363.064c.911.342 1.25 1.09 1.921 1.93a.4.4 0 0 0 .312.153H21c.551 0 .998.311.998.81v6.428a.395.395 0 0 1-.395.394z"/><path fill="url(#b)" d="M2 8.657c0-.465.416-.954.929-.954H8.67c.278 0 .633-.044.88-.172l.905-.577.04-.023c.257-.16.456-.31.757-.31 1.696-.005 7.591 0 9.891.002.473 0 .857.574.857 1.004v10.854c0 .446-.4.808-.892.808h-18.2c-.5 0-.908-.369-.908-.824z"/><path fill="url(#c)" d="M2 9.966c0-.5.448-.907 1-.907h6.17a1 1 0 0 0 .486-.13c.349-.2 1.012-.58 1.351-.78a.93.93 0 0 1 .476-.131c1.327 0 7.251-.004 9.659 0 .473 0 .857.348.857.78v10.908c0 .446-.4.808-.892.808H2.91c-.502 0-.909-.369-.909-.824z"/><path fill="url(#d)" d="M2 8.853c0-.5.448-.906 1-.906h6.17a1 1 0 0 0 .486-.13c.349-.2 1.012-.581 1.351-.781a.93.93 0 0 1 .476-.13c1.327 0 7.251-.004 9.659 0 .473 0 .857.348.857.779V18.48c0 .446-.4 1.033-.892 1.033H2.91c-.502 0-.909-.593-.909-1.049z"/><defs><linearGradient id="a" x1="2" x2="21.998" y1="5.876" y2="5.876" gradientUnits="userSpaceOnUse"><stop stop-color="#febe18"/><stop offset="1" stop-color="#efb122"/></linearGradient><linearGradient id="b" x1="2" x2="21.998" y1="12.952" y2="12.952" gradientUnits="userSpaceOnUse"><stop stop-color="#ffedb9"/><stop offset=".31" stop-color="#ffe8a8"/><stop offset=".92" stop-color="#ffdd7e"/><stop offset="1" stop-color="#ffdc79"/></linearGradient><linearGradient id="c" x1="2" x2="21.998" y1="14.264" y2="14.264" gradientUnits="userSpaceOnUse"><stop stop-color="#edb024"/><stop offset=".55" stop-color="#e9ad25"/><stop offset=".96" stop-color="#e0a42b"/><stop offset="1" stop-color="#dfa32c"/></linearGradient><linearGradient id="d" x1="7.441" x2="17.093" y1="5.213" y2="21.931" gradientUnits="userSpaceOnUse"><stop stop-color="#ffe69c"/><stop offset=".15" stop-color="#ffe495"/><stop offset=".35" stop-color="#ffde82"/><stop offset=".6" stop-color="#ffd663"/><stop offset=".87" stop-color="#ffca39"/><stop offset=".88" stop-color="#ffca38"/></linearGradient></defs></svg>