<svg xmlns="http://www.w3.org/2000/svg" fill="none" viewBox="0 0 24 24"><path fill="currentColor" fill-rule="evenodd" d="M21.166 12.833c-.46 0-.75-.317-.75-.777V5.35L12 5.333h-.001a.828.828 0 0 1-.37-.097c-.03-.015-.063-.023-.091-.043l-2.29-1.526H3.667l.02 13.418h6.692c.46 0 .787.289.787.749s-.373.833-.833.833H3.667C2.747 18.667 2 17.919 2 17V3.667C2 2.747 2.748 2 3.667 2H9.5c.026 0 .048.013.073.015a.83.83 0 0 1 .32.096c.022.013.047.015.069.029l2.29 1.527h8.081c.92 0 1.667.747 1.667 1.666V12c0 .46-.374.833-.834.833ZM13.281 15.9c.159-1.66 1.752-3.067 3.577-3.067.448 0 .884.088 1.297.261a.833.833 0 0 1-.643 1.538c-1.017-.425-2.286.302-2.541 1.212a.825.825 0 0 1 .951.15.834.834 0 0 1 0 1.179l-1.25 1.25a.827.827 0 0 1-1.178 0l-1.25-1.25a.833.833 0 0 1 0-1.179.823.823 0 0 1 1.037-.094Zm3.213 2.638c.2.085.418.13.646.13.875 0 1.708-.623 1.9-1.353a.822.822 0 0 1-.963-.142.833.833 0 0 1 0-1.179l1.25-1.25a.831.831 0 0 1 1.178 0l1.25 1.25a.834.834 0 0 1-.589 1.423.829.829 0 0 1-.447-.15c-.16 1.66-1.754 3.066-3.58 3.066-.453 0-.89-.088-1.3-.262a.834.834 0 0 1 .655-1.533Z" clip-rule="evenodd"/></svg>