<svg xmlns="http://www.w3.org/2000/svg" fill="none" viewBox="0 0 24 24"><path fill="#62757E" fill-rule="evenodd" d="m22 19.003-.003.011a1.01 1.01 0 0 1-.523.86l-2.218 2.215a.83.83 0 0 1-1.178 0 .83.83 0 0 1 0-1.177l.96-.959H14.5c-.46 0-.833-.49-.833-.95s.373-.726.833-.726h4.76l-1.183-1.184a.834.834 0 0 1 1.178-1.178l2.5 2.5a.83.83 0 0 1 .243.58zm-.833-4.178a.833.833 0 0 1-.834-.833V7.331H12a.8.8 0 0 1-.288-.058q-.043-.017-.085-.04c-.029-.015-.061-.023-.09-.042L9.249 5.665H3.667v13.45h7.5c.46 0 .833.246.833.706s-.373.834-.833.834h-7.5c-.92 0-1.667-.747-1.667-1.666V5.665C2 4.747 2.748 4 3.667 4H9.5c.026 0 .047.013.073.015q.084.007.165.033a1 1 0 0 1 .155.063c.022.012.048.015.07.029l2.349 1.565h8.021c.92 0 1.667.707 1.667 1.626v6.661c0 .46-.373.833-.833.833" clip-rule="evenodd"/></svg>