<svg xmlns="http://www.w3.org/2000/svg" fill="none" viewBox="0 0 24 24"><path fill="#62757E" fill-rule="evenodd" d="M20.333 20.667H3.667c-.92 0-1.667-.87-1.667-1.782V5.655C2 4.74 2.748 4 3.667 4H9.5c.026 0 .047.012.073.015a.9.9 0 0 1 .32.097c.023.011.048.013.07.027l2.34 1.549h3.695c.056-.012.109-.034.169-.034s.112.022.168.034h3.998c.919 0 1.667.708 1.667 1.62v11.577c0 .912-.748 1.782-1.667 1.782m-5-13.36H12a.9.9 0 0 1-.288-.057q-.043-.016-.085-.04c-.03-.014-.061-.022-.09-.041L9.249 5.654H3.667v13.348h11.666v-2.494H14.5a.83.83 0 0 1-.833-.827.83.83 0 0 1 .833-.827h.833v-1.705H14.5a.83.83 0 0 1-.833-.827V9.014a.83.83 0 0 1 .833-.827h.833zm0 2.534v1.654H17V9.84zm5-2.533H17v.88h.833a.83.83 0 0 1 .834.826v3.308a.83.83 0 0 1-.834.827H17v.878h.833a.83.83 0 0 1 .834.827.83.83 0 0 1-.834.827H17v.827h.833a.83.83 0 0 1 .834.827.83.83 0 0 1-.834.827H17v.84h3.333z" clip-rule="evenodd"/></svg>