<svg xmlns="http://www.w3.org/2000/svg" fill="none" viewBox="0 0 24 24"><path fill="#62757E" fill-rule="evenodd" d="M20.333 20.667H3.667C2.747 20.667 2 19.919 2 19V5.666C2 4.747 2.748 4 3.667 4H9.5c.026 0 .048.013.073.014q.084.008.165.034a1 1 0 0 1 .155.064c.022.011.048.013.07.028l2.34 1.56h8.03c.92 0 1.667.714 1.667 1.633V19c0 .92-.747 1.667-1.667 1.667m0-13.333H12a.8.8 0 0 1-.288-.06q-.043-.016-.085-.039c-.03-.015-.061-.023-.09-.042l-2.29-1.527h-5.58V19.12h16.666zM11.167 14c.295 0 .572.047.833.123v-4.29a.833.833 0 0 1 1.408-.605l2.499 2.375a.833.833 0 1 1-1.148 1.208l-1.092-1.038v4.31c0 1.169-1.099 2.083-2.5 2.083s-2.5-.914-2.5-2.083S9.765 14 11.167 14m0 2.5c.516 0 .833-.27.833-.417s-.317-.417-.833-.417c-.517 0-.834.27-.834.417 0 .143.325.416.834.416" clip-rule="evenodd"/></svg>