<svg xmlns="http://www.w3.org/2000/svg" fill="none" viewBox="0 0 24 24"><path fill="#62757E" fill-rule="evenodd" d="M20.333 20.667H3.667C2.747 20.667 2 19.919 2 19V5.667A1.67 1.67 0 0 1 3.667 4H9.5c.026 0 .047.013.072.015a.828.828 0 0 1 .32.097c.023.012.048.014.07.028l2.335 1.557h8.036c.92 0 1.667.717 1.667 1.636V19c0 .92-.747 1.667-1.667 1.667Zm0-13.334H12a.84.84 0 0 1-.288-.057c-.03-.011-.056-.026-.084-.04-.03-.015-.061-.023-.09-.043l-2.29-1.526H3.667v13.447h16.666V7.334Z" clip-rule="evenodd"/></svg>