<svg xmlns="http://www.w3.org/2000/svg" fill="none" viewBox="0 0 24 24"><path fill="#62757E" fill-rule="evenodd" d="M18.83 22H4.67A1.67 1.67 0 0 1 3 20.33v-9.995c0-.92.748-1.669 1.67-1.669h.83V2.833c0-.46.373-.833.833-.833H13c.018 0 .033.008.05.01q.115.007.223.044c.026.01.051.016.076.028.087.04.17.091.24.161v.001l4.076 4.076c.027.018.04.05.063.072q.035.034.065.074a.8.8 0 0 1 .224.533c0 .03-.014.055-.017.083v3.25h.83c.922 0 1.67.75 1.67 1.67v8.329A1.67 1.67 0 0 1 18.83 22M13.834 4.844v1.322h1.322zm2.5 2.989H13a.834.834 0 0 1-.833-.834V3.64h-5v5.027h2.5c.191 0 .376.066.525.187l1.826 1.48h4.315zM11.723 12a.83.83 0 0 1-.526-.186l-1.826-1.481H4.669l-.002 9.998 14.165.002.001-8.33z" clip-rule="evenodd"/></svg>