<svg xmlns="http://www.w3.org/2000/svg" fill="none" viewBox="0 0 24 24"><path fill="#62757E" fill-rule="evenodd" d="M21.166 14.833c-.46 0-.75-.317-.75-.777V7.35L12 7.333h-.001a.8.8 0 0 1-.37-.097c-.03-.015-.063-.023-.091-.043l-2.29-1.526H3.667l.02 13.418h6.692c.46 0 .787.289.787.749s-.373.833-.833.833H3.667C2.747 20.667 2 19.919 2 19V5.667C2 4.747 2.748 4 3.667 4H9.5c.026 0 .048.013.073.015a.8.8 0 0 1 .32.096c.022.013.047.015.069.029l2.29 1.527h8.081c.92 0 1.667.747 1.667 1.666V14c0 .46-.374.833-.834.833M13.281 17.9c.159-1.66 1.752-3.067 3.577-3.067.448 0 .884.088 1.297.261a.833.833 0 0 1-.643 1.538c-1.017-.425-2.286.302-2.541 1.212a.825.825 0 0 1 .951.15.834.834 0 0 1 0 1.179l-1.25 1.25a.827.827 0 0 1-1.178 0l-1.25-1.25a.833.833 0 0 1 0-1.179.82.82 0 0 1 1.037-.094m3.213 2.638q.302.129.646.13c.875 0 1.708-.623 1.9-1.353a.82.82 0 0 1-.963-.142.833.833 0 0 1 0-1.179l1.25-1.25a.83.83 0 0 1 1.178 0l1.25 1.25a.834.834 0 0 1-.589 1.423.83.83 0 0 1-.447-.15c-.16 1.66-1.754 3.066-3.58 3.066-.453 0-.89-.088-1.3-.262a.834.834 0 0 1 .655-1.533" clip-rule="evenodd"/></svg>