<svg xmlns="http://www.w3.org/2000/svg" fill="none" viewBox="0 0 24 24"><path fill="#62757E" fill-rule="evenodd" d="M21.167 13.99a.833.833 0 0 1-.834-.832V7.332H12V7.33a.8.8 0 0 1-.288-.058q-.043-.017-.084-.04c-.03-.015-.061-.023-.09-.042l-2.29-1.526H3.667V19.11h9.166c.46 0 .834.252.834.712s-.374.833-.834.833H3.667c-.92 0-1.667-.747-1.667-1.665V5.665C2 4.747 2.748 4 3.667 4H9.5c.025 0 .047.013.07.014a1 1 0 0 1 .17.035 1 1 0 0 1 .15.062c.024.012.05.014.072.029l2.341 1.56h8.03c.92 0 1.667.713 1.667 1.632v5.826c0 .46-.373.833-.833.833m-3.924.261a.8.8 0 0 1 .273-.18.8.8 0 0 1 .27-.055c.016-.002.03-.01.047-.01s.031.008.048.01a.8.8 0 0 1 .27.054.8.8 0 0 1 .272.18l2.5 2.498a.832.832 0 0 1-.59 1.421.83.83 0 0 1-.589-.243l-1.077-1.077v4.652a.833.833 0 0 1-1.667 0V16.85l-1.078 1.077a.832.832 0 1 1-1.178-1.178z" clip-rule="evenodd"/></svg>