<svg xmlns="http://www.w3.org/2000/svg" fill="none" viewBox="0 0 24 24"><path fill="#62757E" fill-rule="evenodd" d="M19.182 2.17a.85.85 0 1 1 1.202 1.203l-16 16a.85.85 0 0 1-1.42-.375l-.08.002C2.348 19 2 18.689 2 18.194c0-.135.034-.325.116-.535l2.851-7.711C5.205 9.298 5.6 9 6.24 9c.646 0 1.041.284 1.286.941l1.05 2.836 6.618-6.618.016-.048c.223-.658.578-1.01 1.124-1.092zM7.321 14.033l-.98.98H4.824l1.382-4.17h.047zm-2.362 2.361-.844.845.294-.845zm6.365 1.012 1.358-3.946 2.875-2.875-.904 2.854h3.877l-1.412-4.415 1.39-1.39 3.368 9.772c.089.266.124.447.124.627 0 .56-.416.968-.991.968-.531 0-.824-.266-1-.873l-.974-2.952h-4.887l-.965 2.942c-.186.617-.478.883-.991.883-.593 0-.992-.39-.992-.968 0-.162.036-.37.124-.627M9.87 16.271l-1.363 1.363.217.628c.156.521.422.738.898.738.51 0 .878-.332.878-.806 0-.155-.034-.311-.116-.535z" clip-rule="evenodd"/></svg>