<svg xmlns="http://www.w3.org/2000/svg" fill="none" viewBox="0 0 24 24"><path fill="#62757E" fill-rule="evenodd" d="M22 2.833V7a.834.834 0 1 1-1.667 0V4.844l-4.9 4.9a8.827 8.827 0 0 0-2.6 6.28v5.141c0 .46-.373.834-.833.834a.794.794 0 0 1-.806-.815v-4.768c-.008-.047-.027-.09-.027-.139v-.255c0-.07.009-.14.01-.21-.09-2.252-1.017-4.475-2.61-6.069l-4.9-4.9V7A.834.834 0 0 1 2 7V2.835a.835.835 0 0 1 .237-.58c.003-.003.004-.008.007-.01a.828.828 0 0 1 .584-.243L2.834 2H7a.832.832 0 1 1 0 1.666H4.845l4.9 4.9c.975.976 1.732 2.11 2.255 3.344a10.53 10.53 0 0 1 2.256-3.344l4.9-4.9H17A.833.833 0 0 1 17 2h4.167c.01 0 .018.005.028.005.099.003.197.02.29.059a.835.835 0 0 1 .451.451.829.829 0 0 1 .054.266c0 .018.01.034.01.052Z" clip-rule="evenodd"/></svg>