<svg xmlns="http://www.w3.org/2000/svg" fill="none" viewBox="0 0 24 24"><path fill="#62757E" fill-rule="evenodd" d="m21.756 12.257-5.826 5.835a.83.83 0 0 1-1.177 0 .834.834 0 0 1 0-1.179l5.238-5.245-5.238-5.245a.833.833 0 0 1 1.177-1.178l5.826 5.834a.833.833 0 0 1 0 1.178m-4.161 0-5.826 5.835a.83.83 0 0 1-.908.181c-.31-.129-.482-.408-.482-.746v-2.55c-2.414-.038-4.228.48-5.388 1.553-1.26 1.166-1.3 2.589-1.302 2.648a.836.836 0 0 1-.815.822h-.017a.83.83 0 0 1-.83-.781c-.312-5.31 2.192-7.997 4.35-9.317 1.55-.948 3.11-1.322 4.002-1.47V5.803c0-.337.172-.61.482-.74a.83.83 0 0 1 .908.182l5.826 5.834a.833.833 0 0 1 0 1.178m-5.582-4.411v1.322c0 .05-.02.092-.029.139-.01.054-.013.11-.032.162-.02.05-.052.09-.08.135-.03.046-.052.093-.09.132-.036.039-.081.065-.123.096-.045.032-.084.067-.134.09s-.104.029-.158.041c-.047.011-.088.034-.137.036-.278.019-5.328.408-7.019 5.007 1.62-1.29 3.975-1.853 7.019-1.67.049.003.09.026.136.037.055.012.11.019.16.042.049.023.087.057.13.088.044.032.09.058.127.097.036.039.059.086.087.13.03.046.062.088.082.14.02.05.023.105.033.16.008.047.028.09.028.139v1.322l3.816-3.823z" clip-rule="evenodd"/></svg>