<svg xmlns="http://www.w3.org/2000/svg" fill="none" viewBox="0 0 24 24"><path fill="#62757E" fill-rule="evenodd" d="M22 12a.77.77 0 0 0-1.538 0 8.461 8.461 0 1 1-2.654-6.154h-1.962a.77.77 0 1 0 0 1.539h3.846a.77.77 0 0 0 .77-.77V2.77a.77.77 0 0 0-1.539 0v2.014A9.97 9.97 0 0 0 12 2C6.477 2 2 6.477 2 12s4.477 10 10 10 10-4.477 10-10m-9.165-1.822h3.102V9H11.61v4.099h1.283q.115-.336.383-.537.268-.2.67-.2.565 0 .853.315.297.307.297.9 0 .585-.288.939-.287.354-.852.354-.469 0-.776-.23a1.04 1.04 0 0 1-.383-.613h-1.302q.086.881.737 1.427t1.743.546q1.159 0 1.781-.67.632-.67.632-1.772 0-.594-.22-1.11a1.93 1.93 0 0 0-.709-.863q-.488-.335-1.254-.335-.42 0-.795.163-.373.153-.574.402zM7.613 9.019v1.235h.929V16H9.92V9.02z" clip-rule="evenodd"/></svg>