<svg xmlns="http://www.w3.org/2000/svg" fill="none" viewBox="0 0 24 24"><path fill="#62757E" d="M19.692 2a.77.77 0 0 1 .77.77v3.845a.77.77 0 0 1-.77.77h-3.846a.77.77 0 0 1 0-1.54h1.957A8.43 8.43 0 0 0 12 3.539 8.462 8.462 0 1 0 20.462 12 .77.77 0 1 1 22 12c0 5.523-4.477 10-10 10S2 17.523 2 12 6.477 2 12 2a9.97 9.97 0 0 1 6.923 2.783V2.77a.77.77 0 0 1 .77-.77M9.921 16H8.542v-5.745h-.929V9.02h2.308zm6.017-5.822h-3.103v1.637q.2-.248.574-.402.374-.163.795-.163.765 0 1.254.336.489.335.709.861.22.518.22 1.112 0 1.1-.632 1.771-.622.67-1.78.67-1.093 0-1.744-.546t-.737-1.427h1.302q.086.384.384.614.306.23.775.23.565-.001.853-.355.287-.355.287-.939 0-.594-.297-.9-.288-.316-.853-.316-.401 0-.67.201a1.1 1.1 0 0 0-.383.537h-1.284V9h4.33z"/></svg>