<svg xmlns="http://www.w3.org/2000/svg" fill="none" viewBox="0 0 24 24"><path fill="#62757E" fill-rule="evenodd" d="M14.985 5.449C13.821 4.43 12 5.257 12 6.803v9.593c0 1.546 1.821 2.373 2.985 1.355l5.482-4.797a1.8 1.8 0 0 0 0-2.709zM13.6 6.803a.2.2 0 0 1 .332-.15l5.481 4.796a.2.2 0 0 1 0 .301l-5.481 4.797a.2.2 0 0 1-.332-.151zM4.985 5.45C3.821 4.43 2 5.257 2 6.803v9.593c0 1.546 1.821 2.373 2.985 1.355l5.482-4.797a1.8 1.8 0 0 0 0-2.709zM3.6 6.803a.2.2 0 0 1 .332-.15l5.481 4.796a.2.2 0 0 1 0 .301l-5.481 4.797a.2.2 0 0 1-.332-.151z" clip-rule="evenodd"/></svg>