<svg xmlns="http://www.w3.org/2000/svg" fill="none" viewBox="0 0 24 24"><path fill="#62757E" fill-rule="evenodd" d="M14.985 5.449C13.822 4.431 12 5.257 12 6.804v9.592c0 1.547 1.822 2.373 2.985 1.355l5.482-4.797a1.8 1.8 0 0 0 0-2.709zM13.6 6.804a.2.2 0 0 1 .332-.15l5.481 4.795a.2.2 0 0 1 0 .301l-5.481 4.797a.2.2 0 0 1-.332-.15zM4.985 5.449C3.821 4.431 2 5.257 2 6.804v9.592c0 1.547 1.821 2.373 2.985 1.355l5.482-4.797a1.8 1.8 0 0 0 0-2.709zM3.6 6.804a.2.2 0 0 1 .332-.15l5.481 4.795a.2.2 0 0 1 0 .301l-5.481 4.797a.2.2 0 0 1-.332-.15z" clip-rule="evenodd"/></svg>