<svg xmlns="http://www.w3.org/2000/svg" fill="none" viewBox="0 0 24 24"><path fill="#62757e" fill-rule="evenodd" d="M12 2c.451 0 .816.366.816.816v1.091l.647-.647a.816.816 0 1 1 1.155 1.154l-1.802 1.802v4.37l3.786-2.188.66-2.459a.817.817 0 0 1 1.575.423l-.237.883.945-.544a.817.817 0 0 1 .817 1.414l-.946.545.885.237a.816.816 0 1 1-.422 1.577l-2.463-.66L13.633 12l3.784 2.186 2.462-.659a.816.816 0 1 1 .422 1.576l-.884.237.945.546.07.046a.816.816 0 0 1-.887 1.368l-.945-.546.237.885a.816.816 0 0 1-1.576.422l-.66-2.461-3.785-2.186v4.371l1.801 1.802a.816.816 0 1 1-1.154 1.154l-.647-.647v1.09a.816.816 0 1 1-1.632 0v-1.09l-.647.647a.816.816 0 1 1-1.155-1.154l1.802-1.802v-4.37l-3.786 2.184-.66 2.463a.816.816 0 1 1-1.576-.423l.237-.886-.945.547a.816.816 0 0 1-.816-1.414l.943-.546-.882-.237a.816.816 0 1 1 .422-1.576l2.46.659L10.366 12 6.58 9.814l-2.46.66a.816.816 0 0 1-.42-1.577l.883-.237-.944-.545a.816.816 0 0 1 .816-1.414l.945.545-.237-.884A.816.816 0 0 1 6.74 5.94l.658 2.46 3.786 2.186v-4.37L9.382 4.414a.816.816 0 1 1 1.155-1.154l.647.647v-1.09c0-.451.366-.817.816-.817" clip-rule="evenodd"/></svg>