<svg xmlns="http://www.w3.org/2000/svg" fill="none" viewBox="0 0 24 24"><g clip-path="url(#a)"><path fill="#27323A" d="M12 24c6.627 0 12-5.373 12-12S18.627 0 12 0 0 5.373 0 12s5.373 12 12 12Z"/><path fill="#fff" d="M17.592 5.5s1.07.952.31 2.888a3.597 3.597 0 0 1-.593.979l-2.643 3.1-2.12 2.768s-2.435-.4-3.381.582l4.013.178s-.857.938-4.238.267c0 0 .045.94 1.579 1.209 0 0-1.354.447-2.166-.85 0 0 0 .941.946 1.342 0 0-.767.178-1.399-.626l-1.08 1.16s-.225.044-.09-.178l.901-1.071s.09-.76-.452-.493c0 0-.36.133-.225.537 0 0-.542-.445.09-1.027l-1.22-1.207 1.58.848-.678-1.653 1.126 1.43s-.093-1.607.405-2.053c0 0 .134 1.564.767 1.698l-.046-3.262.677-.58.09 2.052s.18.222.359-.044c0 0 .407-.671.407-2.635l1.081-1.027.136.804s.182.312.407.045l.224-1.564s1.443-1.653 5.233-3.617Zm-7.215 9.068c3.74-3.439 5.726-6.79 5.722-6.79-1.847 1.294-5.722 6.79-5.722 6.79Z"/></g><defs><clipPath id="a"><path fill="#fff" d="M0 0h24v24H0z"/></clipPath></defs></svg>