<svg xmlns="http://www.w3.org/2000/svg" fill="none" viewBox="0 0 24 24"><g clip-path="url(#a)"><path fill="#13B5EC" d="M12 24c6.627 0 12-5.373 12-12S18.627 0 12 0 0 5.373 0 12s5.373 12 12 12Z"/><path fill="#fff" fill-rule="evenodd" d="M12.9 9.675 15.6 8.1v3.15l-2.7-1.575Zm2.7 6.75-3.6 2.1-3.6-2.1V12.75l3.6 2.1 3.6-2.1v3.675ZM8.4 8.1l2.7 1.575-2.7 1.575V8.1Zm4.05 2.325L15.15 12l-2.7 1.575v-3.15Zm-.9 3.15L8.85 12l2.7-1.575v3.15Zm3.6-6.225L12 9.15l-3.15-1.8L12 5.475l3.15 1.875Zm-7.65-.3v9.825l4.5 2.55 4.5-2.55V7.05L12 4.5 7.5 7.05Z" clip-rule="evenodd"/></g><defs><clipPath id="a"><path fill="#fff" d="M0 0h24v24H0z"/></clipPath></defs></svg>