<svg xmlns="http://www.w3.org/2000/svg" fill="none" viewBox="0 0 24 24"><path fill="#02A6C2" d="M8.089 4.2h12.91c.001 1.392.001 2.783 0 4.173H8.089c-.002-1.39-.002-2.782 0-4.172Z"/><path fill="#5FCADE" d="M3.005 9.943a413.23 413.23 0 0 1 4.166 0c.007 1.388.007 2.777 0 4.165-1.389.008-2.777.008-4.166 0a401.756 401.756 0 0 1 0-4.165Zm5.087 0c3.106-.007 6.211-.007 9.317 0 .007 1.388.007 2.777 0 4.165-3.106.007-6.212.007-9.317 0a446.309 446.309 0 0 1 0-4.165Z"/><path fill="#ABEBF4" d="M8.096 15.686a192.03 192.03 0 0 1 4.157 0c.014 1.385.014 2.77 0 4.157-1.385.014-2.771.013-4.157 0a205.727 205.727 0 0 1 0-4.157Z"/></svg>