<svg xmlns="http://www.w3.org/2000/svg" fill="none" viewBox="0 0 24 24"><g clip-path="url(#a)"><path fill="#4096D0" d="M12 24c6.627 0 12-5.373 12-12S18.627 0 12 0 0 5.373 0 12s5.373 12 12 12"/><path fill="#fff" d="M18.196 8.1h-4.222l-1.252 3.14H8.774V9.622h3.948L13.3 8.1H7.321a.28.28 0 0 0-.28.278v2.86h-.963L5.5 12.762h1.54v2.858c0 .155.128.281.285.281h2.893l.578-1.522H8.774v-1.617h3.274L10.796 15.9h1.926l1.348-3.14h4.147a.28.28 0 0 0 .283-.278V8.4a.3.3 0 0 0-.304-.3m-1.333 2.899a.24.24 0 0 1-.243.24h-1.972l.674-1.615h1.297a.243.243 0 0 1 .245.239z"/></g><defs><clipPath id="a"><path fill="#fff" d="M0 0h24v24H0z"/></clipPath></defs></svg>