<svg xmlns="http://www.w3.org/2000/svg" fill="none" viewBox="0 0 24 24"><path fill="#62757E" fill-rule="evenodd" d="M8.384 10.056c.924 0 1.672-.748 1.672-1.672V4.768a.768.768 0 0 0-1.536 0v3.616a.136.136 0 0 1-.136.136H4.768a.768.768 0 1 0 0 1.537h3.616Zm7.232 0a1.672 1.672 0 0 1-1.672-1.672V4.768a.768.768 0 0 1 1.537 0v3.616c0 .075.06.136.135.136h3.616a.768.768 0 0 1 0 1.537h-3.616Zm-5.56 5.56c0-.924-.748-1.672-1.672-1.672H4.768a.768.768 0 1 0 0 1.536h3.616c.075 0 .136.06.136.136v3.616a.768.768 0 1 0 1.536 0v-3.616Zm5.56-1.672c-.923 0-1.672.748-1.672 1.672v3.616a.768.768 0 0 0 1.537 0v-3.616c0-.075.06-.136.135-.136h3.616a.768.768 0 0 0 0-1.537h-3.616Z" clip-rule="evenodd"/></svg>