<svg xmlns="http://www.w3.org/2000/svg" fill="none" viewBox="0 0 24 24"><path fill="#62757E" fill-rule="evenodd" d="M4 5.672C4 4.75 4.749 4 5.672 4h3.616a.768.768 0 1 1 0 1.537H5.672a.136.136 0 0 0-.135.135v3.616a.768.768 0 0 1-1.537 0zm16 0C20 4.75 19.252 4 18.328 4h-3.616a.768.768 0 1 0 0 1.537h3.616c.075 0 .136.06.136.135v3.616a.768.768 0 0 0 1.536 0zM4 18.328C4 19.25 4.749 20 5.672 20h3.616a.768.768 0 0 0 0-1.537H5.672a.136.136 0 0 1-.135-.135v-3.616a.768.768 0 0 0-1.537 0zm16 0C20 19.25 19.252 20 18.328 20h-3.616a.768.768 0 1 1 0-1.537h3.616c.075 0 .136-.06.136-.135v-3.616a.768.768 0 0 1 1.536 0z" clip-rule="evenodd"/></svg>