<svg xmlns="http://www.w3.org/2000/svg" fill="none" viewBox="0 0 24 24"><path fill="#62757E" fill-rule="evenodd" d="M8.384 10.057c.924 0 1.672-.75 1.672-1.673V4.768a.768.768 0 0 0-1.536 0v3.616a.136.136 0 0 1-.136.136H4.768a.768.768 0 1 0 0 1.537zm7.232 0a1.67 1.67 0 0 1-1.672-1.673V4.768a.768.768 0 0 1 1.537 0v3.616c0 .075.06.136.135.136h3.616a.768.768 0 0 1 0 1.537zm-5.56 5.559c0-.924-.748-1.672-1.672-1.672H4.768a.768.768 0 1 0 0 1.536h3.616c.075 0 .136.06.136.136v3.616a.768.768 0 1 0 1.536 0zm5.56-1.672c-.923 0-1.672.748-1.672 1.672v3.616a.768.768 0 0 0 1.537 0v-3.616c0-.075.06-.136.135-.136h3.616a.768.768 0 0 0 0-1.537z" clip-rule="evenodd"/></svg>