<svg xmlns="http://www.w3.org/2000/svg" fill="none" viewBox="0 0 24 24"><g clip-path="url(#a)"><path fill="#ED1968" d="M12 24c6.627 0 12-5.373 12-12S18.627 0 12 0 0 5.373 0 12s5.373 12 12 12"/><path fill="#fff" d="M10.133 18.227a5.7 5.7 0 0 1-2.036-1.037 6.7 6.7 0 0 1-1.513-1.612 6.4 6.4 0 0 1-.931-2.13 6.3 6.3 0 0 1 0-2.765 7.5 7.5 0 0 1 .873-2.188A6 6 0 0 1 8.97 6.306a6.3 6.3 0 0 1 1.105-.46c.582.69 1.164 1.44 1.746 2.188.058.115.174.173.233.288a4.5 4.5 0 0 0-1.688.403 4 4 0 0 0-1.222.979 4.8 4.8 0 0 0-.756 1.44 3.5 3.5 0 0 0 .058 1.9l2.502-1.958c.582.749 1.164 1.44 1.746 2.188-.815.634-1.688 1.267-2.503 1.959.815 1.036 1.688 2.13 2.503 3.224a6.3 6.3 0 0 1-2.56-.23m5.546-6.976a4 4 0 0 0-.076-.28c-.079.061-1.81 1.37-2.502 1.958-.582-.749-1.164-1.44-1.746-2.188.815-.634 1.688-1.267 2.502-1.958a544 544 0 0 0-2.502-3.168c0-.057-.058-.057-.058-.115h.815a6.44 6.44 0 0 1 4.073 1.497 6.2 6.2 0 0 1 1.396 1.613c.435.66.713 1.407.815 2.188a7 7 0 0 1-.058 2.707 5.7 5.7 0 0 1-.931 2.073 6.2 6.2 0 0 1-1.455 1.555 5.1 5.1 0 0 1-1.92 1.037 40 40 0 0 1-1.455-1.843 4.4 4.4 0 0 1-.465-.634 3.6 3.6 0 0 0 1.588-.361c.495-.24.927-.59 1.263-1.02a3.7 3.7 0 0 0 .698-1.44q.163-.657.018-1.621m-2.748 4.822a36 36 0 0 0 1.25 1.595 4.8 4.8 0 0 0 1.506-.878 5.8 5.8 0 0 0 1.364-1.463 5.2 5.2 0 0 0 .86-1.913c.183-.836.201-1.7.053-2.56a4.8 4.8 0 0 0-.757-2.023 5.8 5.8 0 0 0-1.304-1.504 6 6 0 0 0-3.74-1.395c.54.68 1.086 1.373 2.039 2.586l.256.324-.317.268a33 33 0 0 1-1.267 1.014c-.04.032-.535.408-.907.693.153.192.33.412.602.748.268.331.445.552.598.745.27-.22.565-.452.917-.723.057-.044.987-.752 1.25-.956l.498-.387.188.598c.217.69.24 1.426.066 2.128a4.1 4.1 0 0 1-.777 1.605 4.03 4.03 0 0 1-2.4 1.474z"/></g><defs><clipPath id="a"><path fill="#fff" d="M0 0h24v24H0z"/></clipPath></defs></svg>