<svg xmlns="http://www.w3.org/2000/svg" fill="none" viewBox="0 0 24 24"><g fill="#060606" fill-rule="evenodd" clip-path="url(#a)" clip-rule="evenodd"><path d="M3 16.797c.243.129.562.326.79.478.083.057.178.106.269.163.05.03.08.046.125.076.023.015.042.03.065.042l.068.038 2.922 1.799c.042.023.08.05.125.076l2.653 1.635c.03.02.042.023.068.042l1.268.778c.057.03.08.068.144.072v-9.905l-.402-.231c-.038-.02-.06-.035-.099-.057l-.315-.183c-.448-.235-.865-.523-1.317-.758-.045-.023-.06-.039-.11-.061l-.402-.232c-.099-.06-.546-.33-.626-.349v1.564l1.647.952c.045.027.076.046.118.069.045.022.068.049.125.06v6.706c-.289-.193-.596-.368-.892-.546l-.717-.444c-.293-.198-.608-.36-.9-.554-.034-.023-.053-.03-.087-.054l-.634-.39a1.82 1.82 0 0 1-.182-.114c-.232-.156-.482-.293-.717-.444-.065-.042-.118-.069-.182-.11-.35-.236-.725-.448-1.082-.665-.03-.018-.057-.038-.084-.056l-.277-.171v-8.05a3.253 3.253 0 0 0-.167-.098 3.828 3.828 0 0 1-.167-.099l-.853-.486C3.11 7.256 3.06 7.218 3 7.188v9.609Zm9.317-4.721v3.806l.505-.284c.231-.122.444-.27.675-.391.042-.023.057-.03.088-.053.03-.02.06-.03.09-.046v-2.243a.239.239 0 0 0 .095-.042c.035-.022.057-.03.091-.049.179-.102.353-.224.536-.315.246-.121.482-.273.717-.413l.175-.103.356-.201.088-.053c.155-.08.3-.186.459-.27l.174-.102c.03-.02.061-.03.091-.046l1.165-.675c.247-.13.475-.285.718-.414l.36-.212c.122-.072.24-.137.36-.213.065-.038.118-.064.175-.102l.19-.107v6.494c-.053.011-.068.03-.114.057l-.334.205-.102.068c-.046.026-.076.05-.114.072-.042.023-.065.042-.106.065l-.338.2c-.304.175-.588.373-.892.547l-.888.55c-.042.027-.064.038-.106.065-.399.27-.824.493-1.226.755-.072.05-.148.091-.22.137l-1.112.683a1.587 1.587 0 0 0-.106.064c-.33.217-.676.403-1.006.619l-.452.277V22c.076-.019.198-.11.266-.152.091-.057.178-.102.27-.163.254-.17.53-.311.785-.482.05-.03.087-.057.133-.084l.672-.413c.045-.027.08-.05.125-.076l3.575-2.201c.05-.03.09-.057.133-.084l2.387-1.468c.045-.03.09-.057.136-.08V7.203c-.068.015-.08.038-.133.068l-.129.072-.793.46c-.27.144-.52.322-.793.459l-2.121 1.222c-.095.053-.171.102-.262.155l-.391.228c-.277.14-.68.38-.934.539-.045.03-.083.042-.129.072l-.861.501c-.038.02-.03.02-.068.042l-.27.148c-.16.083-.3.186-.46.27-.037.018-.037.026-.067.041l-.27.148c-.178.087-.649.418-.793.448ZM3.527 6.55c.054.012.084.042.133.069.179.094.338.208.52.3l1.442.834c.687.418 1.4.79 2.091 1.207l.13.072c.049.027.083.05.128.072l.786.456c.034.019.03.019.057.034.368.224.755.414 1.12.645l1.168.672c.046.026.08.05.126.076.136.083.626.38.675.38.072 0 .49-.266.596-.33l.205-.122c.068-.042.129-.069.197-.11l.198-.114.398-.236c.068-.041.13-.072.194-.113l.603-.342c.038-.019.065-.038.099-.057.034-.023.057-.034.098-.057l.403-.231c.064-.038.136-.095.212-.114-.011-.046-.019-.042-.057-.065l-1.286-.74c-.513.27-.998.585-1.507.862a4.752 4.752 0 0 1-.35.209l-.773-.448c-.27-.137-.516-.315-.786-.456-.06-.034-.121-.072-.174-.102L8.6 7.898c-.03-.02-.056-.035-.087-.054-.034-.022-.057-.03-.09-.049L6.411 6.634c-.038-.023-.042-.034-.095-.046.042-.06.09-.064.16-.106.056-.038.11-.057.17-.091l1.75-.945c.037-.023.037-.027.075-.046s.057-.026.092-.049c.06-.038.121-.064.182-.095l2.182-1.176c.038-.02.05-.03.087-.053l.888-.475c.05 0 .721.391.877.47.038.02.064.031.102.054.046.026.057.038.11.06l2.414 1.302c.213.133.858.47 1.085.585.259.129.505.284.763.413l1.435.778.11.061c.17.103.174.015.451-.136l.513-.293c.09-.049.436-.27.516-.288-.015-.05-.06-.068-.106-.095l-.52-.285c-.262-.132-.524-.296-.786-.42l-.52-.286c-.178-.09-.357-.174-.524-.28L15.2 3.776a1.055 1.055 0 0 1-.129-.072l-1.055-.57c-.05-.026-.08-.045-.129-.071-.027-.016-.038-.02-.06-.03l-1.386-.752C12.355 2.228 11.95 2 11.9 2c-.041 0-.334.175-.398.205L8.499 3.829c-.05.023-.087.042-.133.069L6.264 5.032c-.05.027-.072.046-.13.072l-.19.103c-.037.019-.037.026-.067.042-.042.026-.088.038-.133.068l-.402.216c-.054.027-.08.05-.13.072l-.61.334c-.023.012-.023.008-.042.02-.088.049-.179.083-.262.14-.05.03-.08.041-.133.068l-.588.326c-.046.027-.034.004-.05.057Z"/></g><defs><clipPath id="a"><path fill="#fff" d="M3 2h17.799v20H3z"/></clipPath></defs></svg>