<svg xmlns="http://www.w3.org/2000/svg" fill="none" viewBox="0 0 24 24"><g clip-path="url(#a)"><path fill="#2D475B" d="M12 24c6.627 0 12-5.373 12-12S18.627 0 12 0 0 5.373 0 12s5.373 12 12 12Z"/><path fill="#fff" d="M10.615 9.845h7.205v1.617h-7.205V9.845Zm7.205 2.694h.03v4.253s-5.62 4.072-9.986-.359c0 0-2.392-2.426-1.525-5.96 0 0 .688-4.4 5.92-4.94 0 0 3.23-.45 5.322 1.947l-1.256 1.227s-2.66-2.755-6.218-.598c0 0-2.9 1.617-1.705 5.689 0 0 1.316 3.533 5.442 2.815 0 0 1.405-.32 2.123-.94v-1.517h-5.351v-1.617h7.204Z"/></g><defs><clipPath id="a"><path fill="#fff" d="M0 0h24v24H0z"/></clipPath></defs></svg>