<svg xmlns="http://www.w3.org/2000/svg" fill="none" viewBox="0 0 24 24"><g clip-path="url(#a)"><path fill="#58BF00" d="M12 24c6.627 0 12-5.373 12-12S18.627 0 12 0 0 5.373 0 12s5.373 12 12 12"/><path fill="#fff" d="m17.525 16.277-4.543-2.118V9.466l4.543-1.611zM10.91 18.5l-4.435-2.066V8.073l4.435 2.067zm6.506-10.948-.073.026-4.361 1.548-.11.039-1.848.655L6.65 7.782l6.222-2.208.055-.02.115-.04.04-.014 4.375 2.038z"/></g><defs><clipPath id="a"><path fill="#fff" d="M0 0h24v24H0z"/></clipPath></defs></svg>