<svg xmlns="http://www.w3.org/2000/svg" fill="none" viewBox="0 0 24 24"><path fill="#DE5959" d="m9.836 11.843-.173-.174a.209.209 0 0 0-.357.147v2.49a.21.21 0 0 0 .21.209h2.49a.209.209 0 0 0 .147-.357.21.21 0 0 1 0-.295l2.649-2.656a.21.21 0 0 0 0-.295l-.241-.24a.208.208 0 0 1 .03-.323.2.2 0 0 1 .117-.035h2.49a.21.21 0 0 1 .209.209v2.49a.21.21 0 0 1-.358.147l-.168-.167a.203.203 0 0 0-.294 0l-4.464 4.464a.21.21 0 0 1-.296 0l-5.464-5.464a.207.207 0 0 1 0-.296l7.565-7.562a.21.21 0 0 0 0-.295l-1.78-1.779a.21.21 0 0 0-.296 0l-9.791 9.793a.21.21 0 0 0 0 .295l9.791 9.792a.21.21 0 0 0 .296 0l9.791-9.792a.21.21 0 0 0 0-.294l-5.76-5.761a.21.21 0 0 0-.296 0l-5.75 5.75a.21.21 0 0 1-.295 0z"/></svg>