<svg xmlns="http://www.w3.org/2000/svg" fill="none" viewBox="0 0 24 24"><g clip-path="url(#a)"><path fill="#BC3FE0" d="M12 24c6.627 0 12-5.373 12-12S18.627 0 12 0 0 5.373 0 12s5.373 12 12 12"/><path fill="#fff" fill-rule="evenodd" d="M8.998 11.581v-1.425c0-2.246 1.356-3.656 3.713-3.656 1.791 0 2.792.759 3.567 1.736l-1.517 1.16c-.581-.711-1.13-1.13-2.034-1.13-1.082 0-1.728.744-1.728 1.937v1.378h4.02v1.612H11v2.65h5.247V17.5H7.723v-1.208l1.275-.372v-2.727H7.723V11.58z" clip-rule="evenodd"/></g><defs><clipPath id="a"><path fill="#fff" d="M0 0h24v24H0z"/></clipPath></defs></svg>