<svg xmlns="http://www.w3.org/2000/svg" fill="none" viewBox="0 0 24 24"><path fill="#62757E" fill-rule="evenodd" d="M12 22C6.486 22 2 17.513 2 12 2 6.486 6.486 2 12 2s10 4.486 10 10c0 5.513-4.486 10-10 10m0-18.333c-4.595 0-8.333 3.738-8.333 8.333S7.405 20.333 12 20.333s8.333-3.738 8.333-8.333S16.595 3.667 12 3.667m2.5 7.5a.833.833 0 0 1-.833-.834c0-.67-.311-1.666-1.166-1.666-.835 0-1.334.705-1.334 1.386 0 .355.11.539.309.87A4.5 4.5 0 0 1 11.961 12h.872a.833.833 0 1 1 0 1.667h-.777a4 4 0 0 1-.295.912c.322.076.65.204.979.444.68.497 1.026.278 1.145.16a.847.847 0 0 1 1.168-.04.82.82 0 0 1 .08 1.144c-.28.326-.865.716-1.64.716-.508 0-1.097-.168-1.735-.632-.519-.378-1.029-.145-1.345.087a6 6 0 0 1-.397.354c-.038.029-.082.044-.123.066q-.034.021-.069.038a.8.8 0 0 1-.277.067l-.008.001c-.012.001-.025.007-.038.007-.052 0-.1-.025-.15-.034-.052-.01-.103-.015-.153-.035-.057-.022-.105-.058-.156-.093-.033-.021-.07-.032-.1-.059-.016-.015-.023-.035-.037-.05-.018-.02-.042-.027-.06-.047-.024-.032-.033-.07-.052-.104a.8.8 0 0 1-.104-.292.77.77 0 0 1 .06-.454 1 1 0 0 1 .08-.139c.02-.026.028-.059.05-.084a3.4 3.4 0 0 1 .42-.382c.365-.362.841-.94 1.046-1.551H9.5A.833.833 0 1 1 9.5 12h.673l-.126-.22c-.245-.405-.547-.91-.547-1.727C9.5 8.341 10.818 7 12.5 7c1.84 0 2.833 1.717 2.833 3.333 0 .46-.372.834-.833.834" clip-rule="evenodd"/></svg>