<svg xmlns="http://www.w3.org/2000/svg" fill="none" viewBox="0 0 24 24"><path fill="#62757E" fill-rule="evenodd" d="M14.5 8.662a.833.833 0 0 1-.835-.833c0-2.257-1.756-4.163-3.835-4.163-2.196 0-3.67 2.095-3.67 4.053 0 1.101.294 1.72.669 2.502.338.71.707 1.494.887 2.676h2.871c.461 0 .576.301.576.761s-.372.833-.833.833H7.824c-.016 1.561-.69 3.003-1.51 4.192a5.35 5.35 0 0 1 3.375.837c2.694 1.704 4.202.23 4.217.215a.834.834 0 0 1 1.188 1.17c-.499.503-1.541 1.095-2.94 1.095-.97 0-2.108-.282-3.357-1.073-2.036-1.285-4.005-.223-4.898.423a12 12 0 0 1-.577.471c-.047.034-.098.053-.149.076-.023.011-.042.026-.066.035a.8.8 0 0 1-.282.053l-.011-.003a.8.8 0 0 1-.335-.076c-.036-.017-.065-.047-.1-.069-.052-.034-.108-.06-.154-.107-.013-.014-.017-.033-.03-.047s-.029-.02-.04-.033c-.025-.034-.032-.074-.051-.11-.026-.046-.051-.09-.066-.14a1 1 0 0 1-.029-.159c-.006-.053-.012-.103-.008-.155a1 1 0 0 1 .033-.151 1 1 0 0 1 .053-.153.7.7 0 0 1 .09-.131c.024-.031.036-.068.065-.096.174-.17.39-.349.634-.529 1.051-.924 3.246-3.14 3.28-5.535H3.657a.833.833 0 0 1-.834-.833c0-.46.545-.761 1.006-.761h2.194c-.153-.804-.421-1.374-.701-1.96-.408-.855-.832-1.74-.832-3.218C4.491 4.619 6.936 2 9.83 2c3.034 0 5.503 2.615 5.503 5.829 0 .46-.373.833-.833.833" clip-rule="evenodd"/></svg>