<svg xmlns="http://www.w3.org/2000/svg" fill="none" viewBox="0 0 24 24"><g clip-path="url(#a)"><path fill="url(#b)" fill-rule="evenodd" d="M4.454 24h-.742v-3.711H0v-.743h3.712v-.111a11.09 11.09 0 0 1-2.84-7.064H0v-.742h.872a11.09 11.09 0 0 1 2.84-7.063v-.112H0V3.71h3.712V0h.742v3.711h.112A11.09 11.09 0 0 1 11.63.872V0h.742v.872a11.09 11.09 0 0 1 7.063 2.84h.112V0h.743v3.711H24v.743h-3.711v.112a11.09 11.09 0 0 1 2.84 7.063h.87v.742h-.87a11.09 11.09 0 0 1-2.84 7.063v.112H25v.743h-4.711V24h-.743v-3.711h-.111a11.09 11.09 0 0 1-7.064 2.839V24h-.742v-.872a11.09 11.09 0 0 1-7.063-2.84h-.112V24Zm0-4.865c.129.14.261.278.397.411h6.533a10.712 10.712 0 0 0-.285-.718 11.175 11.175 0 0 0-2.392-3.574 11.178 11.178 0 0 0-3.574-2.393 10.65 10.65 0 0 0-.679-.27v6.544Zm-.742-7.557V6.021a10.339 10.339 0 0 0-1.968 5.608h1.771c.066-.016.132-.033.197-.051Zm.742-.228c.229-.08.455-.167.679-.262A11.627 11.627 0 0 0 8.42 8.945L4.518 5.043l-.064.07v6.237Zm4.492-2.93a11.2 11.2 0 0 0 2.153-3.327c.093-.21.178-.424.256-.64H5.113l-.07.065 3.903 3.903Zm2.683-4.836a11.03 11.03 0 0 1-.035.127H6.022a10.339 10.339 0 0 1 5.607-1.967v1.84Zm.764.127a10.776 10.776 0 0 1-.022-.08V1.736c2.185.05 4.204.776 5.855 1.976h-5.833Zm.231.743c.076.215.159.428.248.64.6 1.369 1.407 2.56 2.42 3.573a11.564 11.564 0 0 0 3.575 2.421c.224.095.45.182.68.262v-6.5a10.28 10.28 0 0 0-.412-.396h-6.51Zm7.86 7.175-.195-.05V5.693a10.344 10.344 0 0 1 2.215 5.935h-2.02Zm-.938.962a10.65 10.65 0 0 0-.679.27 11.21 11.21 0 0 0-3.328 2.153l4.007 4.007v-6.43Zm-4.53 2.95a11.625 11.625 0 0 0-2.144 3.287c-.1.237-.192.476-.275.718h6.425l-4.006-4.006ZM12.37 20.29v-.001h6.182a10.344 10.344 0 0 1-6.182 2.224V20.29Zm-.755-.001.013.048v2.167a10.343 10.343 0 0 1-5.934-2.215h5.92Zm10.897-7.918a10.344 10.344 0 0 1-2.224 6.182v-6.182h2.224Zm-18.801 0v5.855a10.34 10.34 0 0 1-1.977-5.855h1.977Zm10.199 1.534a9.266 9.266 0 0 0-1.925 2.828 8.97 8.97 0 0 0-1.904-2.828A8.976 8.976 0 0 0 7.253 12a9.26 9.26 0 0 0 2.829-1.924 8.97 8.97 0 0 0 1.904-2.829 9.265 9.265 0 0 0 1.925 2.829A9.263 9.263 0 0 0 16.739 12a8.977 8.977 0 0 0-2.828 1.905Z" clip-rule="evenodd"/></g><defs><linearGradient id="b" x1="3.83" x2="20.963" y1="4.211" y2="20.129" gradientUnits="userSpaceOnUse"><stop stop-color="#446EFF"/><stop offset=".333" stop-color="#3982FF"/><stop offset=".667" stop-color="#2E96FF"/><stop offset="1" stop-color="#6FADFF"/></linearGradient><clipPath id="a"><path fill="#fff" d="M0 0h24v24H0z"/></clipPath></defs></svg>