<svg xmlns="http://www.w3.org/2000/svg" fill="none" viewBox="0 0 24 24"><g clip-path="url(#a)"><path fill="url(#b)" fill-rule="evenodd" d="M4.454 24h-.742v-3.711H0v-.743h3.712v-.111a11.1 11.1 0 0 1-2.84-7.064H0v-.742h.872a11.1 11.1 0 0 1 2.84-7.063v-.112H0V3.71h3.712V0h.742v3.711h.112A11.1 11.1 0 0 1 11.63.872V0h.742v.872a11.1 11.1 0 0 1 7.063 2.84h.112V0h.743v3.711H24v.743h-3.711v.112a11.1 11.1 0 0 1 2.84 7.063h.87v.742h-.87a11.1 11.1 0 0 1-2.84 7.063v.112H25v.743h-4.711V24h-.743v-3.711h-.111a11.1 11.1 0 0 1-7.064 2.839V24h-.742v-.872a11.1 11.1 0 0 1-7.063-2.84h-.112zm0-4.865q.193.21.397.411h6.533q-.129-.363-.285-.718a11.2 11.2 0 0 0-2.392-3.574 11.2 11.2 0 0 0-3.574-2.393q-.336-.147-.679-.27zm-.742-7.557V6.021a10.34 10.34 0 0 0-1.968 5.608h1.771q.1-.024.197-.051m.742-.228q.343-.12.679-.262A11.6 11.6 0 0 0 8.42 8.945L4.518 5.043l-.064.07zm4.492-2.93q1.35-1.436 2.153-3.327.14-.316.256-.64H5.113l-.07.065zm2.683-4.836-.035.127H6.022a10.34 10.34 0 0 1 5.607-1.967zm.764.127-.022-.08V1.736c2.185.05 4.204.776 5.855 1.976zm.231.743q.114.322.248.64.9 2.054 2.42 3.573a11.6 11.6 0 0 0 3.575 2.421q.336.142.68.262v-6.5q-.2-.203-.412-.396zm7.86 7.175-.195-.05V5.693a10.34 10.34 0 0 1 2.215 5.935zm-.938.962q-.343.123-.679.27a11.2 11.2 0 0 0-3.328 2.153l4.007 4.007zm-4.53 2.95a11.6 11.6 0 0 0-2.144 3.287q-.15.355-.275.718h6.425zM12.37 20.29v-.001h6.182a10.34 10.34 0 0 1-6.182 2.224zm-.755-.001.013.048v2.167a10.34 10.34 0 0 1-5.934-2.215zm10.897-7.918a10.34 10.34 0 0 1-2.224 6.182v-6.182zm-18.801 0v5.855a10.34 10.34 0 0 1-1.977-5.855zm10.199 1.534a9.3 9.3 0 0 0-1.925 2.828 9 9 0 0 0-1.904-2.828A9 9 0 0 0 7.253 12a9.3 9.3 0 0 0 2.829-1.924 9 9 0 0 0 1.904-2.829 9.3 9.3 0 0 0 1.925 2.829A9.3 9.3 0 0 0 16.739 12a9 9 0 0 0-2.828 1.905" clip-rule="evenodd"/></g><defs><linearGradient id="b" x1="3.83" x2="20.963" y1="4.211" y2="20.129" gradientUnits="userSpaceOnUse"><stop stop-color="#446EFF"/><stop offset=".333" stop-color="#3982FF"/><stop offset=".667" stop-color="#2E96FF"/><stop offset="1" stop-color="#6FADFF"/></linearGradient><clipPath id="a"><path fill="#fff" d="M0 0h24v24H0z"/></clipPath></defs></svg>