<svg xmlns="http://www.w3.org/2000/svg" fill="none" viewBox="0 0 24 24"><g clip-path="url(#a)"><path fill="#EFB914" d="M12 24c6.627 0 12-5.373 12-12S18.627 0 12 0 0 5.373 0 12s5.373 12 12 12Z"/><path fill="#fff" fill-rule="evenodd" d="M14.956 8.369a4.695 4.695 0 0 1 1.771 3.204l-1.682-.418a3.165 3.165 0 0 0-2.28-2.167c-1.694-.421-3.404.586-3.821 2.25-.417 1.662.62 3.353 2.314 3.774a3.176 3.176 0 0 0 3.034-.845l1.683.418a4.711 4.711 0 0 1-3.073 2l-.479 1.915-1.534-.381.38-1.522a4.9 4.9 0 0 1-.766-.19l-.38 1.521-1.534-.382.478-1.915c-1.405-1.108-2.112-2.952-1.656-4.775.455-1.823 1.948-3.12 3.71-3.44l.48-1.916 1.533.381-.38 1.522c.26.043.516.106.767.19l.38-1.521 1.534.382-.48 1.915Z" clip-rule="evenodd"/></g><defs><clipPath id="a"><path fill="#fff" d="M0 0h24v24H0z"/></clipPath></defs></svg>