<svg xmlns="http://www.w3.org/2000/svg" fill="none" viewBox="0 0 24 24"><path fill="#62757E" fill-rule="evenodd" d="M9.056 3.6a1.775 1.775 0 1 0 0 3.552h1.776V5.376c0-.98-.795-1.775-1.776-1.775m2.576-.407a3.376 3.376 0 0 0-5.448 3.958H3.168a1.904 1.904 0 0 0-1.904 1.905v1.472c0 .903.628 1.66 1.472 1.855v7.345A2.27 2.27 0 0 0 5.008 22h13.984a2.27 2.27 0 0 0 2.272-2.272v-7.345a1.905 1.905 0 0 0 1.472-1.855V9.056a1.904 1.904 0 0 0-1.905-1.904h-3.75a3.376 3.376 0 0 0-5.448-3.958m.8 5.56v2.079h8.4a.304.304 0 0 0 .303-.304V9.056a.304.304 0 0 0-.304-.303zm7.231 3.68h-7.23V20.4h6.559c.37 0 .671-.3.671-.671zM10.833 20.4v-7.967H4.337v7.296c0 .37.3.671.671.671zm0-9.567v-2.08H3.168a.304.304 0 0 0-.303.304v1.472c0 .168.136.304.303.304zm1.6-3.68h1.776a1.775 1.775 0 1 0-1.776-1.776z" clip-rule="evenodd"/></svg>