<svg xmlns="http://www.w3.org/2000/svg" fill="none" viewBox="0 0 24 24"><path fill="currentColor" fill-rule="evenodd" d="m21.989 8.25-.006 3.912c0 .46-.327.671-.788.671h-.044v7.36c0 .05.003.108.006.168.02.393.047.93-.322 1.319a1.03 1.03 0 0 1-.755.32H4.68c-.81 0-1.847-1.013-1.847-1.807v-7.36c-.46-.001-.833-.213-.833-.671V8.3c0-.18.067-1.078 1.378-1.078.096 0 .195.004.287.008L3.67 7h2.38c-.418-.54-.745-1.226-.745-2.068C5.304 2.917 6.797 2 8.184 2c1.824 0 2.992 1.16 4.2 3.666C13.606 3.16 14.82 2 16.645 2c1.387 0 2.88.917 2.88 2.932 0 .842-.335 1.527-.765 2.068h2.434c.04 0-.19.23-.172.23.275-.03.604.084.781.293a.946.946 0 0 1 .185.726Zm-9.164 12.083h6.662l-.003-.14.042-7.36h-6.7v7.5Zm-8.046 0h6.38v-7.5H4.505l-.006 7.24c.063.087.19.205.279.26ZM3.67 8.667c-.047 0 .052.232-.004.231l.004 2.269h7.487v-2.5H3.671Zm4.513-5c-.453 0-1.213.164-1.213 1.265 0 1.186 1.533 1.995 1.553 2.004.037.015.064.044.098.064h2.545C9.662 3.678 8.75 3.667 8.184 3.667Zm8.054 3.269c.02-.008 1.622-.818 1.622-2.004 0-1.101-.76-1.265-1.214-1.265-.565 0-1.536.01-3.05 3.333h2.542c.035-.02.061-.05.1-.064Zm4.122 1.73h-7.535v2.5h7.535v-2.5Z" clip-rule="evenodd"/></svg>