<svg xmlns="http://www.w3.org/2000/svg" fill="none" viewBox="0 0 24 24"><g clip-path="url(#a)"><path fill="#008DDE" d="M12 24c6.627 0 12-5.373 12-12S18.627 0 12 0 0 5.373 0 12s5.373 12 12 12Z"/><path fill="#fff" d="M16.724 12.596a.424.424 0 0 0 .408-.592.426.426 0 0 0-.408-.258h-.97v-.96h2.03a.426.426 0 1 0 0-.85h-2.039a2.068 2.068 0 0 0-1.716-1.854V7.06a.426.426 0 1 0-.85 0v.994h-.96V5.818a.426.426 0 1 0-.85 0v2.235h-.962v-.995a.425.425 0 0 0-.85 0v1.024a2.068 2.068 0 0 0-1.716 1.853h-2.4a.425.425 0 1 0 0 .85h2.393v.96h-.971a.426.426 0 1 0 0 .85h.97v.961h-1.85a.424.424 0 0 0-.407.592.426.426 0 0 0 .407.258h1.858a2.069 2.069 0 0 0 1.716 1.853v.661a.425.425 0 1 0 .85 0v-.632h.96v1.925a.426.426 0 0 0 .85 0v-1.925h.961v.994a.426.426 0 1 0 .85 0V16.26a2.068 2.068 0 0 0 1.717-1.853h2.814a.426.426 0 1 0 0-.85h-2.805v-.96h.97v-.001Zm-1.65 1.627a1.388 1.388 0 0 1-1.386 1.386h-3.79a1.388 1.388 0 0 1-1.386-1.386v-4.105A1.387 1.387 0 0 1 9.898 8.73h3.79a1.388 1.388 0 0 1 1.387 1.387v4.105Z"/><path fill="#fff" d="M10.8 9.735a4.874 4.874 0 0 0-.492.017.535.535 0 0 0-.457.517c-.013.575-.002 1.152-.006 1.728.008.293-.02.59.024.881.041.26.295.427.547.427.784.005 1.568.001 2.352.002v.325h-2.524l-.325.974h2.512c.294-.009.59.02.881-.023.26-.042.427-.296.426-.548.006-1.025.001-2.05.003-3.077-.01-.275.024-.555-.031-.826-.06-.277-.356-.413-.618-.396h-1.8c-.163.003-.328 0-.493-.002Zm.02.975h1.947v1.623H10.82V10.71Z"/></g><defs><clipPath id="a"><path fill="#fff" d="M0 0h24v24H0z"/></clipPath></defs></svg>