<svg xmlns="http://www.w3.org/2000/svg" fill="none" viewBox="0 0 24 24"><path fill="#15EBB7" fill-rule="evenodd" d="M16.61 9.855a5.32 5.32 0 0 1 .989 3.118 5.3 5.3 0 0 1-.99 3.073l1.35 1.027a7 7 0 0 0 1.332-4.09 7 7 0 0 0-1.433-4.285l-.774.697z" clip-rule="evenodd"/><path fill="#0E0333" fill-rule="evenodd" d="m19.161 17.983-4.538-3.452c.323-.426.508-.944.536-1.48a2.66 2.66 0 0 0-.407-1.518l2.172-1.962 2.274-2.129a.37.37 0 0 0 .01-.528l-.315-.314a8.97 8.97 0 0 0-6.091-2.666l.009-1.25a.8.8 0 0 0-.018-.249.7.7 0 0 0-.12-.222.55.55 0 0 0-.204-.148.54.54 0 0 0-.48 0 .6.6 0 0 0-.204.148.55.55 0 0 0-.12.213.46.46 0 0 0-.019.25l-.009 1.286a9 9 0 0 0-1.618.315l.01-1.601a.8.8 0 0 0-.019-.25.7.7 0 0 0-.12-.222.55.55 0 0 0-.203-.148.54.54 0 0 0-.481 0 .6.6 0 0 0-.203.148.55.55 0 0 0-.12.212.46.46 0 0 0-.02.25l-.027 2.046A9 9 0 0 0 4.501 8.82a9.06 9.06 0 0 0-.823 5.923 9.04 9.04 0 0 0 3.06 5.137 9 9 0 0 0 5.592 2.091l6.61.028c.203 0 .37-.167.37-.37v-3.341a.39.39 0 0 0-.149-.306m-6.701 2.379a7.44 7.44 0 0 1-4.493-1.546 7.45 7.45 0 0 1-2.625-3.97 7.47 7.47 0 0 1 .324-4.748 7.44 7.44 0 0 1 3.142-3.572L8.8 8.96c-.01.083 0 .166.019.25a.7.7 0 0 0 .12.222.55.55 0 0 0 .203.148.54.54 0 0 0 .48 0 .6.6 0 0 0 .204-.148.55.55 0 0 0 .12-.213.46.46 0 0 0 .019-.25l.01-2.99a7.4 7.4 0 0 1 2.541-.434c1.6 0 3.152.527 4.419 1.49a.19.19 0 0 1 .018.287l-3.457 3.174a2.6 2.6 0 0 0-.998-.203c-.38 0-.758.074-1.11.23a2.6 2.6 0 0 0-.905.676 2.7 2.7 0 0 0-.546.99c-.11.37-.139.75-.083 1.13.055.38.185.74.388 1.064s.48.592.795.805c.324.204.684.343 1.063.398.38.056.767.028 1.128-.083l4.418 3.36a.2.2 0 0 1 .074.148l-.009 1.184a.185.185 0 0 1-.185.185zm1.081-7.404c0 .204-.065.407-.175.583q-.18.264-.472.389a.97.97 0 0 1-.6.055 1.13 1.13 0 0 1-.537-.287 1.03 1.03 0 0 1-.222-1.138q.125-.292.389-.472a1.1 1.1 0 0 1 .582-.176c.277 0 .545.111.74.315.184.185.295.444.295.73" clip-rule="evenodd"/></svg>