<svg xmlns="http://www.w3.org/2000/svg" fill="none" viewBox="0 0 24 24"><path fill="#62757E" d="M13.04 7.2c.08 0 .16-.08.16-.08-.08 0-.08 0-.16-.08.16-.16.24-.24.32-.24h.08c.08.08.16.08.24.16 0 .08-.08.08-.16.16-.08 0-.24.08-.48.08q.12 0 0 0m-.4-.16c.16 0 .4-.16.4-.4-.24 0-.4.16-.4.4m-2.88-1.6c-.16 0-.24.16-.24.32v.16c0 .24.08.32.24.32.08 0 .24 0 .32-.08l.16-.16c.08-.16.24-.32.48-.32q.24 0 .48-.24c.08-.08.24-.16.4-.16s.24 0 .4-.08l.08-.08h-.24c0-.08.08-.08.08-.16.08 0 .16.16.32.08-.08-.08-.16-.08-.24-.16h.08c.16 0 .4-.08.48-.24 0 0 .08-.08.08-.16s0-.08.08-.16c.08 0 .16-.08.24-.08s.16-.08.16-.08c-.08 0-.24-.08-.32-.08S12.64 4 12.56 4c-.32 0-.56 0-.88.08-.48.08-.88.16-1.36.24-.24 0-.4.08-.56.24 0 0 0 .08.08.08 0 0 0 .08-.08.08.16 0 .16.08.24.24 0 .08.08.24.16.24s.08.08 0 .16c-.32 0-.4 0-.4.08m-5.28 6.64c-.08 0-.16-.08-.24-.08s-.08-.08-.16-.08c0 .16.16.24.4.16m8.88-5.44c0-.08-.08-.08-.08-.16-.08.08-.08.08.08.16M8.88 4.32h-.32c.16.08.24.08.32 0 0 .08 0 0 0 0m-.32.24c.16 0 .24-.08.4-.16-.16.08-.32.08-.4.16m-3.12 6.32c0 .16-.16.08-.16.16.24.08.4 0 .64-.08-.16-.08-.32-.08-.48-.08m2.48-3.2c.08 0 .16.08.24.08s.16-.08.24-.08c0 0 .08 0 .08-.08v-.08s-.08 0-.08-.08c-.08 0-.16-.08-.08-.16-.16.08-.32.24-.4.4m-3.6 2.96c.24.08.4.08.64.16a.62.62 0 0 0-.64-.16M6.8 5.36c.16-.08.24-.08.4-.16-.16-.08-.32 0-.4.16m.56.64c.08 0 .16 0 .24-.08-.16 0-.16 0-.24.08m-.72.16h.4C7.04 6 6.96 6 6.88 6c-.08-.08-.24 0-.24.16m2.08-.48c0-.08 0-.08-.08-.16-.08 0-.16-.08-.16-.16-.08 0-.16-.08-.24-.16 0 0-.08-.08-.16 0h-.16c-.08-.08-.16-.08-.32 0 0 0-.08 0-.16.08l.08-.08c-.16-.08-.32 0-.4.16 0 .08-.08.08 0 .08.16 0 .4.08.56 0s.24 0 .32.16c0 .08.08.16.08.24h-.24c-.08 0-.16.08-.24.16.16 0 .16.08.24.08.08.08.24.08.32 0L8.08 6h.08c.08.08.16 0 .16-.08v-.16h.24c.08 0 .08 0 .16-.08m-1.52 0c-.08 0-.24.08-.32.16.08-.08.24-.08.32-.16m14.56 11.36-1.2-1.2a.773.773 0 0 0-1.12 0l-1.2 1.2c-.32.32-.32.8 0 1.12.24.24.64.32.96.16-.16.72-.96 1.28-1.84 1.28-.24 0-.4-.08-.64-.16-.4-.16-.88 0-1.04.4s0 .88.4 1.04.8.24 1.28.24c1.76 0 3.28-1.36 3.44-2.96.16.08.24.16.4.16.24 0 .4-.08.56-.24.32-.24.32-.72 0-1.04m-9.12 1.12 1.2 1.2c.16.16.4.24.56.24.24 0 .4-.08.56-.24l1.2-1.2c.32-.32.32-.8 0-1.12-.24-.24-.64-.32-.88-.16.24-.88 1.44-1.6 2.4-1.2.4.16.88 0 1.04-.4s0-.88-.4-1.04-.8-.24-1.28-.24c-1.76 0-3.28 1.36-3.44 2.96a.73.73 0 0 0-.96.08c-.32.32-.32.8 0 1.12m8.56-6.56v.16c-.08.4-.4.64-.8.64s-.72-.32-.8-.72v-.72l-.08.08-.08.08c-.16 0-.24.08-.32.24l-.08.08c-.24.08-.4.16-.64.24-.16.08-.24 0-.24-.16s-.08-.32-.16-.4l-.16-.16c-.08-.08-.08-.16-.16-.24 0-.16-.08-.24-.16-.32-.16-.16-.32-.32-.32-.56 0 0 0 .08-.08.16-.08-.08-.08-.16-.16-.16l.24.48c.08.16.16.24.24.4 0 0 .08.08 0 .08 0 .16.08.24.16.32s.08.16.08.16c0 .08.08.16.16.24.16.08.24.24.32.32-.4-.24-.72-.24-1.12-.24-1.12 0-2.24.32-3.12.88-.08-.08-.16-.08-.32-.08-.08.08-.24.08-.32.16h-.16c-.16-.08-.24 0-.32 0-.08.08-.24.08-.32 0-.24-.08-.4-.24-.56-.56-.08-.16-.08-.24-.24-.32-.08 0-.08-.08-.08-.08.08-.08.08-.08.08-.16-.08-.08-.08-.08 0-.16l.08-.08q.12-.12 0-.24c0-.08 0-.08-.08-.16-.08-.16 0-.24 0-.32.16-.16.24-.32.4-.56.08-.08.16-.16.24-.16 0-.08.08-.24.08-.4 0-.08 0-.16.08-.24l.24-.24c.08-.08.08-.08.16 0 .08 0 .16.08.24.08s.16-.08.24-.08c.08-.08.24-.08.32-.16h.64c.16 0 .16 0 .08.16-.08.24 0 .24.24.32h.16c.08 0 .16.08.24.16l.08.08c.08 0 .08 0 .16.08.16 0 .16 0 .16-.16.08-.08.16-.16.24-.16s.16.08.24.08.16.08.24.08h.72c.08 0 .16-.08.16-.16 0-.16.08-.24.08-.4s0-.16-.16-.08c-.08 0-.16.08-.24 0s-.16-.08-.32 0-.24 0-.24-.16c0-.08-.08-.16-.08-.24.16-.08.4-.16.56-.24h.08c.16 0 .32.08.4.08h.24c.08 0 .16-.16.08-.24 0 0-.08-.08-.16-.08s-.16-.08-.24-.08-.08-.08-.08-.16c.24.08.24 0 .24-.08-.08.08-.24.08-.32.16.08.08.08.08.16.08-.08 0-.16.08-.16.08-.08 0-.08 0-.16-.08 0-.16-.16-.16-.24-.08s-.16.16-.16.24c-.08.08-.08.24 0 .32-.16.08-.4 0-.56.16 0 .08.08.16.08.24s0 .16-.08.16-.08-.08-.16-.08v-.16h-.08c-.08 0-.16-.08-.16-.16 0-.16-.08-.32-.32-.32-.08-.08-.24-.08-.32-.24 0-.08-.08 0-.08 0 .08 0 .08.08.16.08l.32.32c.08.08 0 .16-.08.24s-.32 0-.32-.08c-.08-.08 0-.16.08-.24-.08-.08-.24-.16-.32-.24h-.08c-.16.08-.32.08-.48.08l-.08.08c0 .08 0 .08-.08.16-.08 0-.16.08-.16.08-.16.08-.16.08-.16.16v.16c-.08.08-.16.08-.24.16h-.48c-.24 0-.24-.08-.16-.32 0-.16.08-.24.08-.4 0 0 0-.08.08-.08h.16c.08 0 .24.08.32.08q.24 0 .24-.24c0-.16-.08-.32-.32-.4.08 0 .16-.08.24-.08.16 0 .32-.08.4-.16l.24-.24c.08-.08.16-.16.32-.16.08 0 .08 0 .08-.08s0-.08-.08-.16c0-.08 0-.16.16-.16.08 0 .16.08.08.16v.08s0 .08.08.08.24 0 .32.08h.08c.08 0 .16-.08.32-.08q.24 0 .24-.24c0-.08 0-.08.08-.08h.16v-.08s0-.08-.08-.08c.08 0 .16 0 .24-.08.08 0 .16-.08.24-.08h-.48c-.08 0-.16 0-.24-.08s0-.16.08-.24v-.32h-.08c-.08 0-.08.08-.08.08-.08.08-.16.16-.24.16s-.08.08-.08.16l.08.08c.08.08.08.16 0 .16s-.08.08-.16.16c0 .08-.08.08-.08.16s-.08.08-.16.08-.08-.08-.16-.16c-.08-.24-.08-.24-.24-.08-.08 0-.16.08-.24 0-.16-.16-.08-.32.08-.4.24-.16.48-.32.72-.56.32-.32.72-.4 1.12-.32h.08c-.08-.08-.16-.08-.16-.16-.24-.16-.48-.24-.72-.4h-.16c-.16.16-.32.16-.4 0 0-.08-.08-.08-.08-.08s-.08 0-.08-.08-.08-.08-.08-.08q-.96-.36-1.92-.48c-1.2-.16-2.32 0-3.44.32-.32.08-.64.24-.88.32-.08.08-.16.08-.24.16v.08c-.08 0-.16.08-.24.08H7.6c-.32.24-.64.4-.96.72 0 0-.08 0-.08.08 0 0-.08.08-.16.08l-.32.32c.16 0 .32 0 .4-.16.08 0 .08-.08 0-.08v-.08c.24-.08.24-.08.32-.08 0 .08-.08.16 0 .16 0 0 .08 0 .16.08-.08 0-.16.08-.16.16s-.08.08-.16.16h-.16c.08.08.08.16 0 .16s-.16 0-.24.08c0 0-.08 0-.08.08s-.08.08-.16.16c-.08-.08-.24 0-.32.08-.08 0-.16.08-.16.16q-.12.12 0 .24c.08 0 .08.08.16.08.16 0 .32.08.4.08v.24s0 .08.08.08h.16s.08-.08.08-.16q.12-.24.24-.24c.08 0 .16-.08.24-.16 0 0 .08-.08.08-.16s0-.16.08-.16c.08-.08.08-.16.16-.16 0-.24.16-.24.4-.16.16.08.16.16.08.24 0 .08 0 .08.08.08s.16 0 .16-.08c.08-.08.16-.08.24-.16 0 .24.08.48.08.64h.16s.08 0 .08.08v.08l-.08.08c-.24.08-.48.24-.72.24-.16 0-.4.08-.56.16-.08 0-.16.08-.24.08v.08c.08 0 .16-.08.24-.08.08-.08.16-.08.24-.08 0 .08-.08.16-.08.24.08.16.24.08.32.08-.16.16-.4.24-.56.24.08-.08.16-.08.24-.16-.24 0-.48.08-.64.24l-.08.08c0 .08-.08.16-.16.16-.32.08-.48.24-.64.4 0 0-.08 0-.08-.08v.16c0 .08-.08.24-.16.24-.16.16-.24.16-.32.24s-.24.08-.32.16-.08.24-.16.24q-.12.12-.24 0c-.08 0-.16-.08-.16-.08-.08 0-.16 0-.24.08s-.16.08-.32.08c-.08.32-.08.56-.16.88.08-.08.16-.08.32 0a4 4 0 0 0-.24.56h.4c.16 0 .16.08.16.16s-.08.16-.08.24v.16l-.08.08-.08-.08c-.08-.08-.08-.16-.08-.24-.16-.08-.24-.08-.32-.08 0 2.16.88 4.16 2.32 5.6.16.16.4.32.56.48 0 0 0-.08-.08-.08-.24-.24-.24-.48-.32-.8 0-.4-.08-.88-.16-1.28-.08-.32-.24-.56-.56-.72-.16-.08-.24-.08-.24-.24 0-.08-.08-.08-.08-.16-.16-.24-.4-.56-.56-.8q-.12-.12 0-.24l.08-.08c-.08-.16-.08-.16 0-.32 0-.08.08-.08.08-.16.08-.08.08-.16.16-.24.08-.16.08-.24 0-.4v-.08c-.08 0-.16-.08-.24-.08.16 0 .24 0 .32.08.08-.16.48-.48.64-.48v.24c.16-.24.16-.24.4-.16s.4.16.64.08h.08v.08l.24.24c.08.16.24.24.4.24h.24q.24 0 .24.24c0 .08 0 .24.08.32.08 0 .16 0 .24.16.24-.08.4 0 .4.16h.4c.16 0 .24.08.32.16s.16.16.24.16c.16.08.24.16.16.32s-.16.4-.32.56c-.08.24-.08.32-.08.4v.4c0 .16-.08.32-.16.48-.08.08-.08.08-.24.08h-.16c-.08.08-.16.08-.32.16-.08 0-.08.08 0 .16s0 .16 0 .24-.08.16-.08.16v.16c-.08.08-.08.16-.16.24-.08.16-.16.16-.32.08-.08 0-.08-.08-.16-.08l.08.08.16.16c.08.16 0 .24-.16.24h-.16c-.08 0-.08 0-.08.16v.16h-.08s-.08 0-.08-.08c0 .08.08.08.08.16.08.08.08.08 0 .16 0 .08-.08.08-.08.16v.08l.24.24c.88.56 1.92.88 2.96 1.04h.4c.32 0 .8.32.8.8s-.48.8-.8.8h-.08C5.84 20.72 2 16.64 2 11.6 2 6.32 6.32 2 11.6 2s9.6 4.32 9.6 9.6M5.36 7.92c0-.08-.08-.16-.16-.16-.16 0-.32.16-.48.24h.48-.08c-.08.16-.24.24-.32.4v.16c.08 0 .08 0 .16-.08l.08-.08c.08-.08.08-.16.16-.16q.12-.12.24 0s0 .08-.08.08v.08h.08s.08 0 .08-.08c.08 0 .08-.08.16-.08l.08-.08h-.08c-.32-.08-.32-.08-.32-.24M16.72 5.6h.08l-.24-.24c-.08-.08-.16-.08-.32-.08h.16c-.08 0-.08-.08-.16-.08v.16c0 .08.08.16.16.24.08 0 .16.08.32 0 .08.08 0 .08 0 0m1.76 3.12c.08.08.16.08.32.08.08 0 .16 0 .16-.08.08-.08 0-.16-.08-.24 0 0-.08 0-.16-.08h.16s0-.08-.08-.08c0 0-.08 0-.08-.08-.08-.08-.16-.08-.24-.16 0 0-.08-.08 0-.16 0 0 .08-.08.16-.08h.08c0-.08-.08-.16-.08-.16h-.24c-.08 0-.08.08-.16.08q-.12.12 0 .24c.08.08.16.24.32.32q.12.12 0 .24c-.16.08-.16.16-.08.16m.96 1.52c0-.08 0-.16-.08-.24h-.08c-.16.08-.32 0-.48-.16v-.16l-.08-.08h-.16v.16c.08.08.16.16.16.24.08.16.08.16.24.16 0 .16.08.16.24.08.08-.08.16-.08.24-.16z"/></svg>