<svg xmlns="http://www.w3.org/2000/svg" fill="none" viewBox="0 0 24 24"><path fill="#62757E" fill-rule="evenodd" d="M21.167 16.833h-3l3.583 3.584a.806.806 0 0 1 0 1.166.9.9 0 0 1-.583.25.76.76 0 0 1-.584-.25L17 18.083v3c0 .5-.333.834-.833.834s-.834-.334-.834-.834v-5c0-.5.334-.833.834-.833h5c.5 0 .833.333.833.833 0 .417-.417.75-.833.75m.75-4.166V12c0-5.5-4.5-10-10-10S2 6.5 2 12s4.5 10 10 10c.333 0 .583 0 .917-.083.416 0 .833-.417.833-.834 0-.5-.417-.833-.75-.833h-.167c-.666.083-1.25 0-1.916-.083a8.5 8.5 0 0 1-3.084-1.084l-.25-.25v-.083c0-.083.084-.083.084-.167 0-.083.083-.083 0-.166-.084 0-.084-.084-.084-.167l.084.083h.083v-.166c0-.084 0-.167.083-.167H8c.167 0 .25-.083.167-.25 0-.083-.084-.083-.167-.167l-.083-.083c.083 0 .083.083.166.083.167.084.25.084.334-.083.083-.083.166-.167.166-.25v-.167c0-.083 0-.166.084-.166 0-.084.083-.167 0-.25V16.5c.083-.083.166-.083.333-.167h.167c.083 0 .166 0 .25-.083.083-.167.166-.333.166-.5v-.417c0-.083 0-.166.084-.166.083-.167.25-.334.333-.584.083-.166 0-.333-.167-.333-.083 0-.166-.083-.25-.167-.083-.083-.166-.166-.333-.166h-.417c-.166-.25-.25-.334-.5-.25 0-.167-.083-.167-.25-.167 0-.083 0-.25-.083-.333 0-.167-.167-.25-.25-.25H7.5a.46.46 0 0 1-.417-.25l-.25-.25v-.084H6.75c-.25.084-.5 0-.667-.083-.25-.167-.333-.167-.416.167v-.25c-.167 0-.667.25-.667.5-.083-.084-.167-.167-.333-.084.083.084.166.084.25.084v.083c.083.167.083.25 0 .417-.084.083-.084.166-.167.25 0 .083-.083.083-.083.166-.084.084-.084.167 0 .334L4.583 14q-.125.125 0 .25c.167.25.417.583.584.833 0 .084.083.084.083.167.083-.083.167 0 .25.083.333.167.5.417.583.75.084.417.167.917.25 1.417 0 .333.084.583.334.833 0 0 0 .084.083.084-.25-.167-.417-.334-.583-.5-1.584-1.584-2.5-3.667-2.5-5.917.083 0 .166 0 .25.167 0 .083.083.166.083.25l.083.083.084-.083v-.167c0-.083.083-.167.083-.25.083-.167 0-.25-.167-.167h-.416c.083-.166.166-.416.25-.583-.167 0-.25-.083-.334 0 0-.333.084-.583.167-.917.083 0 .167 0 .25-.083s.167-.083.25-.083.167.083.167.083c.083 0 .166.083.25 0 .166 0 .166-.083.25-.167.166-.25.333-.25.416-.333.084-.083.167-.083.334-.167.083 0 .083-.083.083-.25v-.166c.083 0 .083 0 .083.083.167-.167.334-.333.584-.417a.18.18 0 0 0 .166-.166s0-.084.084-.084c.166-.166.416-.25.666-.25 0 0-.083 0-.083.084.25 0 .417-.084.583-.25-.083 0-.166 0-.25-.084-.083-.083 0-.166 0-.25h-.25c-.083 0-.166.084-.25.084v-.084c.084.084.167 0 .25 0C7.5 7.75 7.75 7.75 8 7.667c.25 0 .417-.167.667-.25l.083-.084s.083-.083 0-.083l-.083-.083H8.5c0-.25 0-.417-.083-.667q-.25.125-.25.25c-.084 0-.167.083-.167 0-.083 0-.083 0-.083-.083.083-.167 0-.25-.084-.25-.25-.084-.416-.084-.583.083 0 .083-.083.167-.167.25v.167C7.083 7 7 7.083 7 7.083c-.083.084-.167.084-.25.167q-.25 0-.25.25c0 .083-.083.083-.083.167 0 0-.084.083-.167 0l-.083-.084c0-.083.083-.166.083-.25-.083-.083-.25-.083-.333-.166-.084 0-.167 0-.167-.084-.083-.083-.167-.166 0-.25l.167-.166s.166-.084.25-.084a.18.18 0 0 0 .166-.166l.084-.084c.083 0 .166 0 .25-.083.083 0 .083-.083 0-.167h.166c.084 0 .167 0 .167-.166 0-.084.083-.167.083-.167H7v-.167c-.083 0-.083 0-.333.167v.083c.083.084 0 .084 0 .084C6.583 6 6.417 6 6.25 6l.333-.333c.084-.084.167-.084.167-.167 0 0 .083 0 .083-.083.334-.25.667-.417 1-.667H8c.083 0 .167-.083.25-.083v-.084c.083-.083.167-.083.25-.166.333-.084.583-.25.917-.334 1.166-.416 2.333-.5 3.583-.333a8.8 8.8 0 0 1 2 .5c.083 0 .083 0 .083.083l.084.084c.083 0 .083 0 .083.083 0 .167.167.167.25.083.083-.083.083-.083.167 0 .25.167.5.334.75.417.083.083.166.083.166.167H16.5c-.417-.167-.833-.084-1.167.333-.166.25-.416.417-.75.583-.166.084-.25.25-.083.417q.125.125.25 0c.167-.083.167-.083.25.083 0 .084 0 .167.167.167.083 0 .166 0 .166-.083 0-.084.084-.084.084-.167s.083-.083.166-.167c.084-.083.084-.166 0-.166l-.083-.084c0-.083 0-.166.083-.166.084 0 .167-.084.25-.167 0-.083.084-.083.084-.083H16v.083c0 .083 0 .167-.083.25-.084.083-.167.167-.084.25.084.083.167.083.25.083h.5c-.083 0-.166.084-.25.084s-.166 0-.25.083l.084.083v.084H16c-.083 0-.083 0-.083.083q0 .25-.25.25c-.084 0-.167.083-.334.083h-.083C15.167 7 15 7 14.917 7l-.084-.083v-.084c0-.083 0-.166-.083-.166a.18.18 0 0 0-.167.166c0 .084 0 .167.084.167 0 .083 0 .083-.084.083-.166 0-.25.084-.333.167L14 7.5a.64.64 0 0 1-.417.167c-.083 0-.166 0-.25.083.167.083.334.167.334.417q0 .25-.25.25c-.084 0-.25-.084-.334-.084h-.166l-.084.084c.084.166 0 .25-.083.416-.083.25-.083.25.167.334h.5c.083 0 .166-.084.25-.167 0 0 .083-.083 0-.167 0-.083 0-.166.083-.166.083-.084.167-.084.167-.084.083 0 .083-.083.083-.166l.083-.084c.167 0 .334 0 .5-.083h.084c.083.083.25.167.333.25-.083.083-.083.167-.083.25.083.083.25.083.333.083.083-.083.083-.166.083-.25A.65.65 0 0 0 15 8.25s-.083-.083-.167-.083c0-.084.084-.084.084 0 .083.083.166.166.333.25a.65.65 0 0 1 .333.333.18.18 0 0 0 .167.167h.083c0 .083-.083.166 0 .166 0 .084.084.084.167.084s.083-.084.083-.167S16 8.833 16 8.75c.167-.167.417-.083.583-.167a.254.254 0 0 1 0-.333c.084-.083.084-.167.167-.25.417-.167.583-.167.583 0 0 .083.084.083.167.083s.083 0 .167-.083c-.084-.083-.084-.083-.167-.083.083-.084.25-.084.333-.167V8c-.083.083 0 .167.084.167.083 0 .166.083.25.083s.083.083.166.083c.084.084 0 .25-.083.25H18c-.167 0-.333-.083-.417-.083H17.5c-.167.083-.417.167-.583.25 0 .083.083.167.083.25.083.167.167.25.25.167h.583c.084-.084.167 0 .167.083 0 .167 0 .25-.083.417a.18.18 0 0 1-.167.166H17c-.083 0-.167-.083-.25-.083s-.167-.083-.25-.083c-.167 0-.25 0-.25.166 0 .167-.083.167-.167.167-.083 0-.083 0-.166-.083l-.084-.084c-.25-.25-.333-.333-.5-.333h-.083C15 9.417 15 9.417 15 9.167 15 9.083 15 9 14.917 9h-.667c-.167 0-.25.083-.333.167-.084 0-.167.083-.25.083-.084 0-.167 0-.25-.083h-.167l-.25.25c-.083.083-.167.166-.167.25 0 .166-.083.25-.25.333-.083 0-.166.083-.25.167-.166.166-.25.333-.416.583a.253.253 0 0 0 0 .333c0 .084 0 .084.083.167v.25l-.083.083v.167q.124.25 0 .25l.083.083c.167.084.25.167.25.334.083.25.333.416.583.583.084.083.25.083.334 0a.254.254 0 0 1 .333 0h.167c.083 0 .25-.083.333-.167.167-.083.333 0 .417.167 0 0 .083 0 .083.083h.083c.084 0 .167 0 .25.084 0 0 .084 0 .084.083 0 0 .083 0 .083.083h4.25c.167-.083.167-.166.25-.5.083-.166.083-.333.167-.583-.084 0-.167.083-.167.083-.167.084-.25.084-.417.167-.083 0-.25 0-.25-.167-.083-.25-.25-.333-.416-.5-.084-.083-.167-.166-.167-.25s-.083-.166-.083-.166c-.084-.084-.167-.167-.167-.334V11c-.083-.167-.167-.25-.25-.417l-.25-.5.167.167c0-.083 0-.083.083-.167 0 .25.25.417.333.584.084.083.167.25.167.333s.083.167.167.25c0 .083.083.083.166.167.084.083.167.25.167.416 0 .167.083.25.25.167.25-.083.417-.167.667-.25 0 0 .083 0 .083-.083.083-.084.167-.25.333-.25l.084-.084.083-.083v1.333c0 .334.333.834.833.834.5.083.834-.25.834-.75M5.75 8.333h.167l-.084.084c-.083 0-.083.083-.166.083l-.084.083H5.5V8.5s0-.083.083-.083c-.166-.084-.25 0-.333 0 0 .083-.083.166-.167.25L5 8.75s-.083.083-.167.083v-.166c.167-.167.334-.25.5-.334h.084-.5c.083-.166.25-.25.416-.333.084 0 .167 0 .167.167 0 .166 0 .166.25.166m11.583-2.5c-.166 0-.25-.083-.333-.166-.083-.084-.083-.167-.167-.25V5.25c.084 0 .084.083.167.083h-.167c.084 0 .25 0 .334.084l.25.25c0 .083 0 .083-.084.166.084 0 0 0 0 0m1.75 3q.126-.124 0-.25c-.083-.083-.166-.25-.333-.333q-.124-.125 0-.25c.083-.083.083-.083.167-.083.083 0 .166-.084.25 0 0 .083.083.166.083.166h-.083c-.084 0-.084 0-.167.084v.166c.083.084.167.084.25.167 0 0 .083 0 .083.083 0 0 0 .084.084.084h-.167c.083.083.083.166.167.166.083.084.083.084.083.25 0 .084.083.084 0 0-.083 0-.25-.083-.333-.083s-.084-.083-.084-.167m1 1.584c-.083.083-.166.083-.25.166-.166.084-.25.084-.25-.083-.166 0-.166 0-.25-.167-.083-.083-.083-.166-.166-.25v-.166h.166l.084.083s.083.083.083.167c.083.166.25.25.5.166h.083c0 .084 0 .167.084.25 0-.083 0-.083-.084-.166" clip-rule="evenodd"/></svg>