<svg xmlns="http://www.w3.org/2000/svg" fill="none" viewBox="0 0 24 24"><g clip-path="url(#a)"><path fill="#005396" d="M12 24c6.627 0 12-5.373 12-12S18.627 0 12 0 0 5.373 0 12s5.373 12 12 12Z"/><path fill="#fff" d="M10.007 5.814a6.532 6.532 0 0 1 4.139.05 6.53 6.53 0 0 1 3.117 2.33c.179.239.33.495.475.756.169.33.321.67.436 1.021.152.484.266.985.302 1.492.018.11.006.222.021.331a6.61 6.61 0 0 1 0 .413c-.015.11-.003.222-.021.332a6.345 6.345 0 0 1-.258 1.348 6.529 6.529 0 0 1-3.359 3.95 5.95 5.95 0 0 1-1.103.418 6.475 6.475 0 0 1-1.963.242c-.11-.015-.224-.003-.332-.021a6.382 6.382 0 0 1-1.456-.29 6.53 6.53 0 0 1-4.133-4.014 6.394 6.394 0 0 1-.364-1.913 6.188 6.188 0 0 1 .027-.94c.047-.463.152-.92.294-1.36a6.533 6.533 0 0 1 4.178-4.145Zm1.253 2.35v1.52c-.003.027.022.042.035.06.234.246.47.489.703.735-.002-.772-.002-1.544 0-2.316h-.739.001Zm-3.207.786c.056.037.097.09.144.137.502.507 1.006 1.013 1.507 1.524.458.463.918.925 1.375 1.388-.553.567-1.116 1.123-1.668 1.69L8.09 15.023a.66.66 0 0 1-.036.027c.65 0 1.3.002 1.952-.003.665-.695 1.333-1.389 1.996-2.086l1.995 2.086c.65.005 1.3.002 1.949.003-.1-.08-.178-.179-.27-.265-.466-.47-.934-.94-1.398-1.412-.45-.459-.908-.91-1.354-1.372.108-.109.21-.221.32-.328.852-.858 1.7-1.718 2.55-2.576.05-.05.093-.107.152-.147-.652 0-1.3-.002-1.95.001L12 11.035c-.663-.697-1.331-1.39-1.996-2.084l-1.95-.001Zm3.95 4.567c0 .774.001 1.547-.002 2.322.247-.002.494 0 .739 0v-1.523a.05.05 0 0 0-.017-.044c-.125-.135-.257-.262-.38-.397-.112-.122-.232-.233-.34-.358Z"/></g><defs><clipPath id="a"><path fill="#fff" d="M0 0h24v24H0z"/></clipPath></defs></svg>