<svg xmlns="http://www.w3.org/2000/svg" fill="none" viewBox="0 0 24 24"><path fill="#fb413b" d="M5.143 5.143v15.5a.5.5 0 0 1-.5.5H1a1 1 0 0 1-1-1v-15z"/><path fill="url(#a)" d="M24 5.143v15a1 1 0 0 1-1 1h-3.643a.5.5 0 0 1-.5-.5v-15.5z"/><path fill="url(#b)" d="M19.774 3.46a2.571 2.571 0 1 1 3.31 3.937l-10.349 8.699a1.14 1.14 0 0 1-1.47 0L.916 7.396a2.571 2.571 0 1 1 3.31-3.936L12 9.995z"/><defs><linearGradient id="a" x1="21.428" x2="21.428" y1="5.143" y2="21.34" gradientUnits="userSpaceOnUse"><stop offset=".408" stop-color="#3ac566"/><stop offset="1" stop-color="#338bfd"/></linearGradient><linearGradient id="b" x1="24" x2="0" y1="9.786" y2="9.786" gradientUnits="userSpaceOnUse"><stop stop-color="#fad917"/><stop offset=".33" stop-color="#f74b47"/><stop offset=".66" stop-color="#f74b47"/><stop offset="1" stop-color="#ff64a0"/></linearGradient></defs></svg>