<svg xmlns="http://www.w3.org/2000/svg" fill="none" viewBox="0 0 24 24"><g clip-path="url(#a)"><path fill="#00A6C4" d="M12 24c6.627 0 12-5.373 12-12S18.627 0 12 0 0 5.373 0 12s5.373 12 12 12Z"/><path fill="#fff" d="m17.186 8.75.119.196c.589.99.9 2.12.9 3.271C18.194 15.685 15.418 18.5 12 18.5h-.01c-3.42 0-6.205-2.837-6.195-6.304 0-1.163.322-2.294.911-3.272l.108-.185.567.576a2.233 2.233 0 0 0-.267.532 2.417 2.417 0 0 0 1.436 3.088 2.376 2.376 0 0 0 2.132-.272L12 14.011l1.51-1.533c.14.098.301.174.473.24a2.319 2.319 0 0 0 2.968-1.425 2.364 2.364 0 0 0-.236-2.065l.471-.478Zm-9.108 1.272 1.779 1.793a1.213 1.213 0 0 1-.772.272 1.276 1.276 0 0 1-1.265-1.282c0-.294.097-.566.258-.783Zm6.205 1.684 1.757-1.782c.14.207.214.456.214.718 0 .706-.567 1.282-1.265 1.282-.267 0-.503-.076-.706-.218Zm-2.262 1.348L6.9 7.836l.204-.216a6.569 6.569 0 0 1 4.844-2.12h.01a6.61 6.61 0 0 1 4.93 2.228l.193.218-5.058 5.108ZM7.735 7.836l4.286 4.36 4.233-4.272a6.034 6.034 0 0 0-4.285-1.815h-.012a5.957 5.957 0 0 0-4.222 1.728Z"/></g><defs><clipPath id="a"><path fill="#fff" d="M0 0h24v24H0z"/></clipPath></defs></svg>