<svg xmlns="http://www.w3.org/2000/svg" fill="none" viewBox="0 0 24 24"><g fill="#282B2C" fill-rule="evenodd" clip-path="url(#a)" clip-rule="evenodd"><path d="m3.634 7.035.079.071c.247.243.492.488.742.727.056.054.057.09.017.152-.525.803-.716 1.683-.54 2.616.234 1.251.953 2.163 2.128 2.712.695.325 1.43.408 2.188.294.508-.076.985-.25 1.42-.522.072-.046.111-.04.17.018.639.636 1.282 1.267 1.92 1.904.07.07.107.078.182.003.73-.721 1.465-1.437 2.195-2.159.08-.08.13-.093.236-.03.637.376 1.332.526 2.076.492 1.475-.067 2.822-1.078 3.279-2.464.346-1.05.218-2.047-.346-2.995-.037-.062-.04-.1.016-.154.206-.194.405-.394.608-.591.019-.018.04-.035.06-.052a9.423 9.423 0 0 1-1.011 11.81c-3.602 3.819-9.546 4.116-13.515.838-4.03-3.33-4.51-8.796-1.904-12.67Z"/><path d="M18.612 5.8C14.745 1.924 8.456 2.253 5.1 5.645c.02.022.038.045.06.065l6.65 6.533c.061.061.097.054.154-.003.286-.284.575-.566.864-.847l5.61-5.46c.05-.05.112-.086.174-.133Zm-6.73 7.818L3.777 5.647c.02-.026.035-.05.054-.071.975-1.06 2.107-1.918 3.429-2.527.72-.333 1.47-.584 2.25-.749.898-.19 1.806-.266 2.723-.226 1.337.059 2.617.359 3.84.894 1.47.643 2.712 1.583 3.765 2.77.061.069.026.1-.02.145a8312.79 8312.79 0 0 0-3.931 3.832l-3.92 3.825-.085.078Zm-3.485-1.864c-.55.492-1.77.606-2.577-.185-.81-.794-.7-1.967-.167-2.577l2.744 2.761Zm7.098-.191 2.75-2.7c.386.423.565 1.506-.104 2.305-.745.887-1.973.882-2.645.395Z"/></g><defs><clipPath id="a"><path fill="#fff" d="M2 2h19.697v20H2z"/></clipPath></defs></svg>