<svg xmlns="http://www.w3.org/2000/svg" fill="none" viewBox="0 0 24 24"><g fill="#282B2C" fill-rule="evenodd" clip-path="url(#a)" clip-rule="evenodd"><path d="m3.634 7.035.079.071q.369.366.742.727c.056.054.057.09.017.152-.525.803-.716 1.683-.54 2.616.234 1.251.953 2.163 2.128 2.712.695.325 1.43.408 2.188.294.508-.076.985-.25 1.42-.522.072-.046.111-.04.17.018.639.636 1.282 1.267 1.92 1.903.07.07.107.079.182.004.73-.722 1.465-1.437 2.195-2.159.08-.08.13-.093.236-.03.637.375 1.332.526 2.076.492 1.475-.067 2.822-1.078 3.279-2.465.346-1.05.218-2.047-.346-2.995-.037-.061-.04-.1.016-.153.206-.194.405-.394.608-.591l.06-.052a9.42 9.42 0 0 1-1.011 11.81c-3.602 3.819-9.546 4.116-13.515.838-4.03-3.33-4.51-8.796-1.904-12.67"/><path d="M18.613 5.8C14.745 1.924 8.456 2.253 5.1 5.645q.03.034.06.065 3.326 3.266 6.65 6.533c.062.061.097.054.154-.003q.43-.426.864-.847l5.61-5.46c.05-.05.113-.086.175-.133m-6.731 7.818L3.777 5.646c.02-.025.035-.05.054-.07.976-1.061 2.108-1.918 3.429-2.528q1.08-.5 2.25-.748a10.8 10.8 0 0 1 2.723-.226q2.006.09 3.84.894c1.47.643 2.712 1.583 3.765 2.77.061.068.026.1-.02.145q-1.966 1.915-3.93 3.832l-3.921 3.825zm-3.485-1.864c-.55.492-1.77.606-2.577-.185-.81-.794-.7-1.967-.167-2.577zm7.099-.191 2.748-2.7c.387.423.566 1.506-.103 2.304-.745.888-1.973.883-2.645.396"/></g><defs><clipPath id="a"><path fill="#fff" d="M2 2h19.697v20H2z"/></clipPath></defs></svg>