<svg xmlns="http://www.w3.org/2000/svg" fill="none" viewBox="0 0 24 24"><g clip-path="url(#a)"><path fill="#001D57" d="M12 24c6.627 0 12-5.373 12-12S18.627 0 12 0 0 5.373 0 12s5.373 12 12 12"/><path fill="#fff" d="m14.573 5 .794.795-1.503 1.544c.317.482.487 1.05.487 1.636a2.94 2.94 0 0 1-.83 2.067 2.76 2.76 0 0 1-1.464.809v1.346a2.8 2.8 0 0 1 1.461.805c.539.553.838 1.297.833 2.07a2.94 2.94 0 0 1-.833 2.069 2.8 2.8 0 0 1-2.026.859 2.8 2.8 0 0 1-2.026-.86 2.95 2.95 0 0 1-.833-2.068c0-.78.296-1.518.83-2.068a2.76 2.76 0 0 1 1.464-.808V11.85a2.8 2.8 0 0 1-1.46-.806 2.95 2.95 0 0 1-.834-2.07c0-.778.296-1.517.833-2.069a2.8 2.8 0 0 1 2.027-.86c.567 0 1.113.173 1.58.495zm-3.08 9.278a1.67 1.67 0 0 0-1.226.521 1.82 1.82 0 0 0-.512 1.273c0 .478.182.925.512 1.271a1.704 1.704 0 0 0 2.45 0 1.833 1.833 0 0 0-.002-2.546 1.67 1.67 0 0 0-1.223-.52m1.223-4.02c.33-.341.515-.799.513-1.274a1.78 1.78 0 0 0-1.07-1.658 1.7 1.7 0 0 0-1.892.385 1.82 1.82 0 0 0-.512 1.273c0 .478.182.925.512 1.272a1.704 1.704 0 0 0 2.449.002"/></g><defs><clipPath id="a"><path fill="#fff" d="M0 0h24v24H0z"/></clipPath></defs></svg>