<svg xmlns="http://www.w3.org/2000/svg" fill="none" viewBox="0 0 24 24"><path fill="#bbe2fe" d="M3.158 2.5a2.5 2.5 0 0 1 2.5-2.5h12.684a2.5 2.5 0 0 1 2.5 2.5v2.579a2.5 2.5 0 0 1-2.5 2.5H5.658a2.5 2.5 0 0 1-2.5-2.5z"/><path fill="#3c91fd" d="M20.554 1.895H3.445A3 3 0 0 0 .474 5.307l.985 7.094a1 1 0 0 0 .99.862H21.55a1 1 0 0 0 .99-.862l.986-7.094a3 3 0 0 0-2.972-3.412"/><path fill="url(#a)" d="m23.494 20.564-.947-6.446a1 1 0 0 0-.99-.855H2.442a1 1 0 0 0-.989.855l-.948 6.446A3 3 0 0 0 3.473 24h17.053a3 3 0 0 0 2.968-3.436"/><mask id="b" width="24" height="13" x="0" y="1" maskUnits="userSpaceOnUse" style="mask-type:alpha"><path fill="#000" d="M19.648 1.895H4.353a3.79 3.79 0 0 0-3.754 4.31l.98 7.058h20.843l.98-7.057a3.79 3.79 0 0 0-3.754-4.311"/></mask><g mask="url(#b)"><path fill="url(#c)" d="M.561 2.5a2.5 2.5 0 0 1 2.5-2.5h17.877a2.5 2.5 0 0 1 2.5 2.5v6.342H.561z"/></g><path fill="#fff" d="M16.304 18.316v-8.83l-2.152 1.592-.774-1.107 3.434-2.508h.962v10.853zm-7.327.258q-.984 0-1.667-.289a3.4 3.4 0 0 1-1.16-.833 3.8 3.8 0 0 1-.72-1.16l-.227-.614 1.342-.47.174.448q.174.447.485.81.318.357.743.546.424.19 1.046.19.977 0 1.606-.561a1.8 1.8 0 0 0 .63-1.402q0-.926-.6-1.418-.599-.492-1.682-.492h-.856v-1.35h.773q.901.001 1.425-.454.523-.462.523-1.311 0-.742-.508-1.198-.508-.454-1.372-.454-.492 0-.849.151a1.9 1.9 0 0 0-.614.432 2.5 2.5 0 0 0-.44.644l-.174.357-1.326-.5.243-.531q.241-.538.69-.985.454-.447 1.068-.682.614-.243 1.455-.243 1.614 0 2.463.834.857.833.857 2.1 0 .93-.47 1.538-.463.599-1.319.864v.045q1.053.265 1.63.94.582.666.583 1.766 0 1.38-1.023 2.334-1.023.948-2.729.947"/><defs><linearGradient id="a" x1="12" x2="12" y1="13.263" y2="24" gradientUnits="userSpaceOnUse"><stop stop-color="#489cfd"/><stop offset="1" stop-color="#308bfe"/></linearGradient><linearGradient id="c" x1="11.999" x2="11.999" y1="0" y2="8.842" gradientUnits="userSpaceOnUse"><stop offset=".229" stop-color="#a0a8ff"/><stop offset="1" stop-color="#a0a8ff" stop-opacity="0"/></linearGradient></defs></svg>