<svg xmlns="http://www.w3.org/2000/svg" fill="none" viewBox="0 0 24 24"><circle cx="12" cy="12" r="12" fill="#fff"/><path fill="#4285F4" d="M20.809 12.203c0-.593-.053-1.155-.143-1.703h-8.475v3.383h4.853c-.218 1.11-.855 2.047-1.8 2.685v2.25h2.895c1.695-1.568 2.67-3.878 2.67-6.616"/><path fill="#34A853" d="M12.191 21c2.43 0 4.463-.81 5.948-2.183l-2.895-2.25c-.81.54-1.838.87-3.053.87-2.347 0-4.335-1.582-5.047-3.72H4.159v2.318C5.636 18.975 8.674 21 12.19 21"/><path fill="#FBBC05" d="M7.144 13.718A5.2 5.2 0 0 1 6.859 12c0-.6.105-1.177.285-1.717V7.965H4.159a8.9 8.9 0 0 0 0 8.07z"/><path fill="#EA4335" d="M12.191 6.563c1.328 0 2.513.457 3.45 1.35l2.565-2.565C16.654 3.893 14.621 3 12.191 3A8.98 8.98 0 0 0 4.16 7.965l2.985 2.318c.712-2.138 2.7-3.72 5.047-3.72"/></svg>