<svg xmlns="http://www.w3.org/2000/svg" fill="none" viewBox="0 0 24 24"><path fill="#029853" d="M0 7.489a2.5 2.5 0 0 1 2.5-2.5h9.023a2.5 2.5 0 0 1 2.5 2.5v9.022a2.5 2.5 0 0 1-2.5 2.5H2.5a2.5 2.5 0 0 1-2.5-2.5z"/><path fill="#0ebb5e" d="M2.157 5.87a2.5 2.5 0 0 1 2.5-2.5H21.5a2.5 2.5 0 0 1 2.5 2.5v12.26a2.5 2.5 0 0 1-2.5 2.5H4.657a2.5 2.5 0 0 1-2.5-2.5z"/><mask id="a" width="22" height="18" x="2" y="3" maskUnits="userSpaceOnUse" style="mask-type:alpha"><path fill="#0ebb5e" d="M2.157 5.87a2.5 2.5 0 0 1 2.5-2.5H21.23a2.5 2.5 0 0 1 2.5 2.5v12.26a2.5 2.5 0 0 1-2.5 2.5H4.657a2.5 2.5 0 0 1-2.5-2.5z"/></mask><g mask="url(#a)"><path fill="url(#b)" d="M0 4.989h14.023v14.023H0z"/></g><path fill="#fff" d="M17.722 17.932v-1.811H9.708a.75.75 0 0 1 0-1.5h8.014V9.303a.75.75 0 0 1 1.5 0v5.318h2.082a.75.75 0 0 1 0 1.5h-2.082v1.811a.75.75 0 0 1-1.5 0"/><defs><linearGradient id="b" x1="14.023" x2="4.462" y1="12" y2="12" gradientUnits="userSpaceOnUse"><stop stop-color="#77cafb" stop-opacity="0"/><stop offset="1" stop-color="#77cafb"/></linearGradient></defs></svg>