<svg xmlns="http://www.w3.org/2000/svg" fill="none" viewBox="0 0 24 24"><path fill="#0F9D58" d="M14.182 0H4.909c-.9 0-1.636.736-1.636 1.636v20.728c0 .9.736 1.636 1.636 1.636h14.182c.9 0 1.636-.736 1.636-1.636V6.545L16.91 3.818 14.182 0Z"/><path fill="#F1F1F1" d="M7.636 11.727v7.91h8.727v-7.91H7.636Zm3.818 6.819H8.727v-1.364h2.727v1.364Zm0-2.182H8.727V15h2.727v1.364Zm0-2.182H8.727v-1.364h2.727v1.364Zm3.819 4.364h-2.728v-1.364h2.728v1.364Zm0-2.182h-2.728V15h2.728v1.364Zm0-2.182h-2.728v-1.364h2.728v1.364Z"/><path fill="#87CEAC" d="M14.182 0v4.91c0 .903.732 1.635 1.636 1.635h4.91L14.181 0Z"/></svg>