<svg xmlns="http://www.w3.org/2000/svg" fill="none" viewBox="0 0 24 24"><mask id="a" width="24" height="24" x="0" y="0" maskUnits="userSpaceOnUse" style="mask-type:luminance"><path fill="#fff" d="M23.523 9.774H12.25v4.613h6.478a5.53 5.53 0 0 1-2.055 3.452c-1.49 1.166-3.225 1.404-4.43 1.404-3.046 0-5.649-2.01-6.656-4.742-.04-.1-.068-.202-.1-.303a7.2 7.2 0 0 1 .027-4.476c.947-2.84 3.608-4.962 6.73-4.962q.945 0 1.807.229a6.5 6.5 0 0 1 2.806 1.575l3.427-3.428C18.2 1.183 15.481 0 12.24 0 9.647 0 7.254.825 5.293 2.219A12 12 0 0 0 1.518 6.62a11.9 11.9 0 0 0-1.267 5.378c0 1.942.449 3.767 1.268 5.382v.01a12.1 12.1 0 0 0 3.666 4.317A11.9 11.9 0 0 0 12.24 24c1.9 0 3.583-.35 5.068-1.005a10.4 10.4 0 0 0 2.879-1.883 10.6 10.6 0 0 0 2.631-3.833c.607-1.491.932-3.177.932-5.004 0-.851-.084-1.716-.226-2.501"/></mask><g mask="url(#a)"><g filter="url(#b)"><path fill="url(#c)" d="M.078 12.08c.013 1.912.546 3.884 1.353 5.476v.011c.583 1.156 1.38 2.07 2.288 2.975l5.484-2.044c-1.038-.538-1.196-.868-1.94-1.47a7.1 7.1 0 0 1-1.679-2.735H5.57l.014-.01c-.232-.697-.255-1.435-.263-2.202z"/></g><g filter="url(#d)"><path fill="url(#e)" d="M12.25-.087c-.542 1.945-.335 3.835 0 4.935a7 7 0 0 1 1.8.228 6.5 6.5 0 0 1 2.806 1.576l3.516-3.516c-2.083-1.95-4.589-3.22-8.122-3.223"/></g><g filter="url(#f)"><path fill="url(#g)" d="M12.238-.103c-2.658 0-5.113.846-7.124 2.276A12.3 12.3 0 0 0 3.072 4c-.16 1.532 1.196 3.415 3.883 3.4 1.303-1.55 3.231-2.551 5.377-2.551h.006l-.088-4.95z"/></g><g filter="url(#h)"><path fill="url(#i)" d="M21.013 12.635 18.64 14.3a5.53 5.53 0 0 1-2.055 3.452c-1.486 1.163-3.217 1.402-4.422 1.403-1.246 2.167-1.465 3.253.087 5.002 1.92-.002 3.623-.355 5.125-1.018a10.5 10.5 0 0 0 2.917-1.908 10.8 10.8 0 0 0 2.667-3.885c.615-1.511.944-3.22.944-5.071z"/></g><g filter="url(#j)"><path fill="#3086FF" d="M12.075 9.598v4.965h11.417c.1-.68.432-1.56.432-2.288 0-.851-.083-1.891-.225-2.677z"/></g><g filter="url(#k)"><path fill="url(#l)" d="M3.126 3.824a12 12 0 0 0-1.783 2.622C.524 8.076.076 10.056.076 11.999l.002.082c.363.71 5.009.574 5.243 0l-.003-.08c0-.797.131-1.384.371-2.104a7.4 7.4 0 0 1 1.354-2.411c.134-.175.493-.552.598-.778.04-.087-.073-.135-.08-.165-.006-.034-.157-.007-.19-.032-.107-.08-.32-.122-.448-.16-.275-.079-.731-.254-.984-.436-.8-.575-2.05-1.262-2.813-2.091"/></g><g filter="url(#m)"><path fill="url(#n)" d="M5.956 6.546c1.856 1.149 2.39-.58 3.624-1.12L7.433.879a12.05 12.05 0 0 0-4.929 3.904z"/></g><g filter="url(#o)"><path fill="url(#p)" d="M6.711 18.147c-2.491.919-2.882.952-3.11 2.529q.657.655 1.409 1.207c1.342.983 3.925 2.292 7.229 2.292h.011v-5.108h-.008c-1.237 0-2.225-.331-3.239-.908-.25-.142-.703.24-.933.069-.318-.236-1.083.203-1.359-.081"/></g><g filter="url(#q)" opacity=".5"><path fill="url(#r)" d="M10.791 18.907v5.18c.462.055.943.088 1.448.088q.758 0 1.47-.075v-5.158a8.6 8.6 0 0 1-1.467.126 7 7 0 0 1-1.451-.161"/></g></g><defs><filter id="b" width="10.065" height="9.401" x="-.392" y="11.61" color-interpolation-filters="sRGB" filterUnits="userSpaceOnUse"><feFlood flood-opacity="0" result="BackgroundImageFix"/><feBlend in="SourceGraphic" in2="BackgroundImageFix" result="shape"/><feGaussianBlur result="effect1_foregroundBlur_112_5741" stdDeviation=".235"/></filter><filter id="d" width="9.395" height="7.679" x="11.447" y="-.557" color-interpolation-filters="sRGB" filterUnits="userSpaceOnUse"><feFlood flood-opacity="0" result="BackgroundImageFix"/><feBlend in="SourceGraphic" in2="BackgroundImageFix" result="shape"/><feGaussianBlur result="effect1_foregroundBlur_112_5741" stdDeviation=".235"/></filter><filter id="f" width="10.219" height="8.441" x="2.589" y="-.573" color-interpolation-filters="sRGB" filterUnits="userSpaceOnUse"><feFlood flood-opacity="0" result="BackgroundImageFix"/><feBlend in="SourceGraphic" in2="BackgroundImageFix" result="shape"/><feGaussianBlur result="effect1_foregroundBlur_112_5741" stdDeviation=".235"/></filter><filter id="h" width="13.686" height="12.822" x="10.687" y="11.805" color-interpolation-filters="sRGB" filterUnits="userSpaceOnUse"><feFlood flood-opacity="0" result="BackgroundImageFix"/><feBlend in="SourceGraphic" in2="BackgroundImageFix" result="shape"/><feGaussianBlur result="effect1_foregroundBlur_112_5741" stdDeviation=".235"/></filter><filter id="j" width="12.789" height="5.904" x="11.605" y="9.128" color-interpolation-filters="sRGB" filterUnits="userSpaceOnUse"><feFlood flood-opacity="0" result="BackgroundImageFix"/><feBlend in="SourceGraphic" in2="BackgroundImageFix" result="shape"/><feGaussianBlur result="effect1_foregroundBlur_112_5741" stdDeviation=".235"/></filter><filter id="k" width="8.513" height="9.68" x="-.394" y="3.354" color-interpolation-filters="sRGB" filterUnits="userSpaceOnUse"><feFlood flood-opacity="0" result="BackgroundImageFix"/><feBlend in="SourceGraphic" in2="BackgroundImageFix" result="shape"/><feGaussianBlur result="effect1_foregroundBlur_112_5741" stdDeviation=".235"/></filter><filter id="m" width="13.685" height="12.663" x="-.8" y="-2.426" color-interpolation-filters="sRGB" filterUnits="userSpaceOnUse"><feFlood flood-opacity="0" result="BackgroundImageFix"/><feBlend in="SourceGraphic" in2="BackgroundImageFix" result="shape"/><feGaussianBlur result="effect1_foregroundBlur_112_5741" stdDeviation="1.652"/></filter><filter id="o" width="9.59" height="6.989" x="3.13" y="17.656" color-interpolation-filters="sRGB" filterUnits="userSpaceOnUse"><feFlood flood-opacity="0" result="BackgroundImageFix"/><feBlend in="SourceGraphic" in2="BackgroundImageFix" result="shape"/><feGaussianBlur result="effect1_foregroundBlur_112_5741" stdDeviation=".235"/></filter><filter id="q" width="3.859" height="6.209" x="10.321" y="18.436" color-interpolation-filters="sRGB" filterUnits="userSpaceOnUse"><feFlood flood-opacity="0" result="BackgroundImageFix"/><feBlend in="SourceGraphic" in2="BackgroundImageFix" result="shape"/><feGaussianBlur result="effect1_foregroundBlur_112_5741" stdDeviation=".235"/></filter><radialGradient id="c" cx="0" cy="0" r="1" gradientTransform="matrix(-.4883 -11.95193 17.55595 -.71724 9.093 20.362)" gradientUnits="userSpaceOnUse"><stop offset=".142" stop-color="#1ABD4D"/><stop offset=".248" stop-color="#6EC30D"/><stop offset=".312" stop-color="#8AC502"/><stop offset=".366" stop-color="#A2C600"/><stop offset=".446" stop-color="#C8C903"/><stop offset=".54" stop-color="#EBCB03"/><stop offset=".616" stop-color="#F7CD07"/><stop offset=".699" stop-color="#FDCD04"/><stop offset=".771" stop-color="#FDCE05"/><stop offset=".861" stop-color="#FFCE0A"/></radialGradient><radialGradient id="e" cx="0" cy="0" r="1" gradientTransform="matrix(8.29246 -.00002 -.00001 10.7093 20.043 6.398)" gradientUnits="userSpaceOnUse"><stop offset=".408" stop-color="#FB4E5A"/><stop offset="1" stop-color="#FF4540"/></radialGradient><radialGradient id="g" cx="0" cy="0" r="1" gradientTransform="matrix(-11.61833 6.43485 -8.73208 -15.76606 15.514 -1.653)" gradientUnits="userSpaceOnUse"><stop offset=".231" stop-color="#FF4541"/><stop offset=".312" stop-color="#FF4540"/><stop offset=".458" stop-color="#FF4640"/><stop offset=".54" stop-color="#FF473F"/><stop offset=".699" stop-color="#FF5138"/><stop offset=".771" stop-color="#FF5B33"/><stop offset=".861" stop-color="#FF6C29"/><stop offset="1" stop-color="#FF8C18"/></radialGradient><radialGradient id="i" cx="0" cy="0" r="1" gradientTransform="rotate(-127.454 11.79 8.236)scale(34.6477 12.7893)" gradientUnits="userSpaceOnUse"><stop offset=".132" stop-color="#0CBA65"/><stop offset=".21" stop-color="#0BB86D"/><stop offset=".297" stop-color="#09B479"/><stop offset=".396" stop-color="#08AD93"/><stop offset=".477" stop-color="#0AA6A9"/><stop offset=".568" stop-color="#0D9CC6"/><stop offset=".667" stop-color="#1893DD"/><stop offset=".769" stop-color="#258BF1"/><stop offset=".859" stop-color="#3086FF"/></radialGradient><radialGradient id="l" cx="0" cy="0" r="1" gradientTransform="matrix(-1.4911 12.8522 -17.7704 -2.0617 11.22 2.164)" gradientUnits="userSpaceOnUse"><stop offset=".366" stop-color="#FF4E3A"/><stop offset=".458" stop-color="#FF8A1B"/><stop offset=".54" stop-color="#FFA312"/><stop offset=".616" stop-color="#FFB60C"/><stop offset=".771" stop-color="#FFCD0A"/><stop offset=".861" stop-color="#FECF0A"/><stop offset=".915" stop-color="#FECF08"/><stop offset="1" stop-color="#FDCD01"/></radialGradient><radialGradient id="n" cx="0" cy="0" r="1" gradientTransform="rotate(132.119 4.111 3.04)scale(6.42638 18.1259)" gradientUnits="userSpaceOnUse"><stop offset=".316" stop-color="#FF4C3C"/><stop offset=".604" stop-color="#FF692C"/><stop offset=".727" stop-color="#FF7825"/><stop offset=".885" stop-color="#FF8D1B"/><stop offset="1" stop-color="#FF9F13"/></radialGradient><radialGradient id="p" cx="0" cy="0" r="1" gradientTransform="matrix(-11.61833 -6.43485 8.73208 -15.76606 15.514 25.652)" gradientUnits="userSpaceOnUse"><stop offset=".231" stop-color="#0FBC5F"/><stop offset=".312" stop-color="#0FBC5F"/><stop offset=".366" stop-color="#0FBC5E"/><stop offset=".458" stop-color="#0FBC5D"/><stop offset=".54" stop-color="#12BC58"/><stop offset=".699" stop-color="#28BF3C"/><stop offset=".771" stop-color="#38C02B"/><stop offset=".861" stop-color="#52C218"/><stop offset=".915" stop-color="#67C30F"/><stop offset="1" stop-color="#86C504"/></radialGradient><linearGradient id="r" x1="10.791" x2="13.71" y1="21.541" y2="21.541" gradientUnits="userSpaceOnUse"><stop stop-color="#0FBC5C"/><stop offset="1" stop-color="#0CBA65"/></linearGradient></defs></svg>