<svg xmlns="http://www.w3.org/2000/svg" fill="none" viewBox="0 0 24 24"><path fill="#3186ff" d="M3.272 2.5a2.5 2.5 0 0 1 2.5-2.5h6.773l7.89 7.889a1 1 0 0 1 .292.707V21.5a2.5 2.5 0 0 1-2.5 2.5H5.772a2.5 2.5 0 0 1-2.5-2.5z"/><path fill="#7bf" d="M12.545 5.59V0l7.091 7.09h-5.59a1.5 1.5 0 0 1-1.5-1.5"/><mask id="a" width="18" height="24" x="3" y="0" maskUnits="userSpaceOnUse" style="mask-type:alpha"><path fill="#3186ff" d="M3.272 2.5a2.5 2.5 0 0 1 2.5-2.5h6.773l7.89 7.889a1 1 0 0 1 .292.707V21.5a2.5 2.5 0 0 1-2.5 2.5H5.772a2.5 2.5 0 0 1-2.5-2.5z"/></mask><g mask="url(#a)"><path fill="url(#b)" d="M2.145 25.09v-15l19.711 9v6z"/></g><path fill="#fff" d="M15.819 14.523a.75.75 0 0 1 0 1.5H8.59a.75.75 0 0 1 0-1.5zM13.5 18.477a.75.75 0 0 1 0 1.5H8.592a.75.75 0 0 1 0-1.5z"/><defs><linearGradient id="b" x1="3.282" x2="1.644" y1="11.454" y2="18.854" gradientUnits="userSpaceOnUse"><stop stop-color="#acaaff" stop-opacity="0"/><stop offset="1" stop-color="#acaaff" stop-opacity=".84"/></linearGradient></defs></svg>