<svg xmlns="http://www.w3.org/2000/svg" fill="none" viewBox="0 0 24 24"><path fill="#EA4335" d="m16.444 15.85 1.387 3.254 2.39 3.288c.37-.213.686-.522.907-.906l2.54-4.4c.222-.381.332-.809.332-1.236l-3.902-.413z"/><path fill="#00832D" d="M15.777 1.608a2.5 2.5 0 0 0-1.237-.332H9.46a2.5 2.5 0 0 0-1.237.332L9.66 4.95l2.329 3.181.01.02 2.348-3.216z"/><path fill="#0066DA" d="M7.555 15.85 3.66 15.3 0 15.85c0 .426.11.852.33 1.235l2.54 4.401c.222.382.537.692.907.906l2.35-3.118z"/><path fill="#FFBA00" d="m20.176 8.563-3.492-6.05a2.47 2.47 0 0 0-.907-.905L12 8.15l4.444 7.699H24c0-.428-.11-.854-.331-1.238z"/><path fill="#2684FC" d="M16.444 15.85h-8.89l-3.778 6.542c.37.213.795.332 1.238.332h13.97c.442 0 .867-.119 1.236-.332z"/><path fill="#2684FC" d="M16.444 15.85h-8.89l-3.778 6.542c.37.213.795.332 1.238.332h13.97c.442 0 .867-.119 1.236-.332z"/><path fill="#00AC47" d="M12 8.15 8.222 1.609c-.37.213-.684.52-.905.903L.33 14.616A2.5 2.5 0 0 0 0 15.85h7.555z"/></svg>