<svg xmlns="http://www.w3.org/2000/svg" fill="none" viewBox="0 0 24 24"><path fill="#fff" d="M17.263 6.737H6.737v10.526h10.526z"/><path fill="#EA4335" d="M17.263 22 22 17.263h-4.737z"/><path fill="#FBBC04" d="M22 6.737h-4.737v10.526H22z"/><path fill="#34A853" d="M17.263 17.263H6.737V22h10.526z"/><path fill="#188038" d="M2 17.263v3.158A1.58 1.58 0 0 0 3.579 22h3.158v-4.737z"/><path fill="#1967D2" d="M22 6.737V3.579A1.58 1.58 0 0 0 20.421 2h-3.158v4.737z"/><path fill="#4285F4" d="M17.263 2H3.58A1.58 1.58 0 0 0 2 3.579v13.684h4.737V6.737h10.526z"/><path fill="#4285F4" d="M8.896 14.903q-.59-.398-.814-1.168l.913-.376q.124.473.434.734.308.26.747.26.449 0 .77-.273a.87.87 0 0 0 .322-.693.86.86 0 0 0-.34-.703q-.339-.272-.85-.272h-.527v-.904h.474q.438 0 .738-.237t.3-.649q0-.367-.268-.585-.27-.22-.68-.22-.403 0-.64.215a1.26 1.26 0 0 0-.345.527l-.904-.376q.18-.51.662-.899.483-.39 1.234-.39.555 0 .998.215.442.216.693.595.25.38.25.854 0 .483-.233.818a1.6 1.6 0 0 1-.572.515v.054c.292.12.546.318.734.572a1.5 1.5 0 0 1 .287.921q0 .537-.272.958-.273.42-.752.662-.48.241-1.077.242a2.23 2.23 0 0 1-1.282-.397m5.61-4.532-1.003.725-.502-.76L14.8 9.038h.69v6.12h-.985z"/></svg>