<svg xmlns="http://www.w3.org/2000/svg" fill="none" viewBox="0 0 24 24"><path fill="url(#a)" d="m6.671 23.163 14.998-2.375v-.354L2.552 20.17a3.6 3.6 0 0 0 4.12 2.993"/><path fill="#ffdc12" d="M21.567 3.83A3.6 3.6 0 0 0 17.448.837L2.4 3.221v.609z"/><path fill="url(#b)" d="M0 5.533a2.5 2.5 0 0 1 2.5-2.5h19a2.5 2.5 0 0 1 2.5 2.5v13a2.5 2.5 0 0 1-2.5 2.5h-19a2.5 2.5 0 0 1-2.5-2.5z"/><path fill="#fff" d="M19.2 6.783a.75.75 0 0 1 .75.75v9a.75.75 0 0 1-.75.75H4.8a.75.75 0 0 1-.75-.75v-9a.75.75 0 0 1 .75-.75zm-13.65 9h12.9v-7.5H5.55z"/><defs><linearGradient id="a" x1="2.552" x2="21.669" y1="21.689" y2="21.689" gradientUnits="userSpaceOnUse"><stop stop-color="#ffbd08"/><stop offset="1" stop-color="#fbabe6"/></linearGradient><linearGradient id="b" x1="9.6" x2="12" y1="3.633" y2="21.033" gradientUnits="userSpaceOnUse"><stop stop-color="#febd02"/><stop offset="1" stop-color="#fff447"/></linearGradient></defs></svg>