<svg xmlns="http://www.w3.org/2000/svg" fill="none" viewBox="0 0 24 24"><circle cx="12" cy="12" r="12" fill="#fff"/><mask id="a" width="18" height="18" x="3" y="3" maskUnits="userSpaceOnUse" style="mask-type:luminance"><path fill="#fff" d="M20.643 10.33h-8.455v3.46h4.858a4.14 4.14 0 0 1-1.541 2.589c-1.117.874-2.419 1.053-3.323 1.053-2.284 0-4.236-1.508-4.991-3.557-.03-.074-.051-.15-.076-.227a5.4 5.4 0 0 1 .02-3.357c.711-2.13 2.707-3.721 5.049-3.721q.707 0 1.354.172a4.86 4.86 0 0 1 2.105 1.181l2.57-2.571C16.65 3.887 14.611 3 12.18 3a9.01 9.01 0 0 0-8.04 4.966 8.9 8.9 0 0 0-.95 4.033c0 1.457.336 2.826.95 4.037v.008a9.1 9.1 0 0 0 2.75 3.237A8.93 8.93 0 0 0 12.18 21c1.425 0 2.688-.262 3.801-.754a7.8 7.8 0 0 0 2.16-1.412 8 8 0 0 0 1.973-2.875c.455-1.118.699-2.382.699-3.753 0-.638-.063-1.287-.17-1.876"/></mask><g mask="url(#a)"><g filter="url(#b)"><path fill="url(#c)" d="M3.059 12.06c.009 1.434.409 2.913 1.014 4.107v.008c.438.867 1.036 1.552 1.717 2.231l4.112-1.532c-.778-.404-.897-.651-1.454-1.103a5.3 5.3 0 0 1-1.26-2.051h-.01l.01-.008c-.174-.522-.191-1.076-.197-1.652z"/></g><g filter="url(#d)"><path fill="url(#e)" d="M12.188 2.935c-.407 1.458-.251 2.876 0 3.7q.707.001 1.35.172a4.85 4.85 0 0 1 2.105 1.182l2.636-2.637c-1.562-1.463-3.441-2.415-6.091-2.417"/></g><g filter="url(#f)"><path fill="url(#g)" d="M12.179 2.923A9.2 9.2 0 0 0 6.836 4.63 9.2 9.2 0 0 0 5.304 6c-.12 1.148.897 2.56 2.912 2.549.978-1.162 2.424-1.913 4.033-1.913h.005l-.066-3.713z"/></g><g filter="url(#h)"><path fill="url(#i)" d="m18.76 12.476-1.78 1.249a4.14 4.14 0 0 1-1.541 2.589c-1.114.872-2.413 1.052-3.317 1.052-.934 1.626-1.098 2.44.066 3.752 1.44-.001 2.717-.267 3.843-.764a7.9 7.9 0 0 0 2.188-1.43 8.1 8.1 0 0 0 2-2.915c.462-1.133.708-2.414.708-3.803z"/></g><g filter="url(#j)"><path fill="#3086FF" d="M12.057 10.199v3.723h8.562c.075-.51.324-1.17.324-1.716 0-.638-.062-1.418-.169-2.007z"/></g><g filter="url(#k)"><path fill="url(#l)" d="M5.345 5.868a9 9 0 0 0-1.338 1.966c-.614 1.223-.95 2.709-.95 4.165l.002.061c.272.533 3.756.43 3.932 0L6.988 12c0-.597.1-1.037.28-1.577.222-.667.57-1.28 1.014-1.809.101-.131.37-.414.449-.583.03-.065-.055-.101-.06-.124-.004-.025-.117-.005-.143-.024-.08-.06-.239-.091-.335-.12-.207-.059-.549-.19-.739-.327-.6-.431-1.537-.946-2.109-1.568"/></g><g filter="url(#m)"><path fill="url(#n)" d="M7.467 7.91c1.392.86 1.793-.435 2.718-.84l-1.61-3.41a9.04 9.04 0 0 0-3.697 2.928z"/></g><g filter="url(#o)"><path fill="url(#p)" d="M8.033 16.61c-1.868.69-2.16.714-2.333 1.897q.494.491 1.057.905c1.007.738 2.945 1.72 5.422 1.72h.009V17.3h-.006c-.928 0-1.67-.25-2.43-.682-.187-.107-.527.18-.7.052-.238-.177-.812.152-1.019-.06"/></g><g filter="url(#q)" opacity=".5"><path fill="url(#r)" d="M11.094 17.18v3.885c.346.041.707.066 1.086.066q.568-.001 1.103-.056v-3.869c-.4.07-.776.095-1.1.095-.374 0-.737-.045-1.09-.121"/></g></g><defs><filter id="b" width="7.784" height="7.286" x="2.589" y="11.59" color-interpolation-filters="sRGB" filterUnits="userSpaceOnUse"><feFlood flood-opacity="0" result="BackgroundImageFix"/><feBlend in="SourceGraphic" in2="BackgroundImageFix" result="shape"/><feGaussianBlur result="effect1_foregroundBlur_19160_8787" stdDeviation=".235"/></filter><filter id="d" width="7.281" height="5.995" x="11.468" y="2.464" color-interpolation-filters="sRGB" filterUnits="userSpaceOnUse"><feFlood flood-opacity="0" result="BackgroundImageFix"/><feBlend in="SourceGraphic" in2="BackgroundImageFix" result="shape"/><feGaussianBlur result="effect1_foregroundBlur_19160_8787" stdDeviation=".235"/></filter><filter id="f" width="7.899" height="6.566" x="4.824" y="2.453" color-interpolation-filters="sRGB" filterUnits="userSpaceOnUse"><feFlood flood-opacity="0" result="BackgroundImageFix"/><feBlend in="SourceGraphic" in2="BackgroundImageFix" result="shape"/><feGaussianBlur result="effect1_foregroundBlur_19160_8787" stdDeviation=".235"/></filter><filter id="h" width="10.5" height="9.852" x="10.898" y="11.736" color-interpolation-filters="sRGB" filterUnits="userSpaceOnUse"><feFlood flood-opacity="0" result="BackgroundImageFix"/><feBlend in="SourceGraphic" in2="BackgroundImageFix" result="shape"/><feGaussianBlur result="effect1_foregroundBlur_19160_8787" stdDeviation=".235"/></filter><filter id="j" width="9.827" height="4.663" x="11.587" y="9.729" color-interpolation-filters="sRGB" filterUnits="userSpaceOnUse"><feFlood flood-opacity="0" result="BackgroundImageFix"/><feBlend in="SourceGraphic" in2="BackgroundImageFix" result="shape"/><feGaussianBlur result="effect1_foregroundBlur_19160_8787" stdDeviation=".235"/></filter><filter id="k" width="6.62" height="7.495" x="2.587" y="5.398" color-interpolation-filters="sRGB" filterUnits="userSpaceOnUse"><feFlood flood-opacity="0" result="BackgroundImageFix"/><feBlend in="SourceGraphic" in2="BackgroundImageFix" result="shape"/><feGaussianBlur result="effect1_foregroundBlur_19160_8787" stdDeviation=".235"/></filter><filter id="m" width="11.916" height="11.15" x="1.574" y=".354" color-interpolation-filters="sRGB" filterUnits="userSpaceOnUse"><feFlood flood-opacity="0" result="BackgroundImageFix"/><feBlend in="SourceGraphic" in2="BackgroundImageFix" result="shape"/><feGaussianBlur result="effect1_foregroundBlur_19160_8787" stdDeviation="1.652"/></filter><filter id="o" width="7.427" height="5.477" x="5.23" y="16.125" color-interpolation-filters="sRGB" filterUnits="userSpaceOnUse"><feFlood flood-opacity="0" result="BackgroundImageFix"/><feBlend in="SourceGraphic" in2="BackgroundImageFix" result="shape"/><feGaussianBlur result="effect1_foregroundBlur_19160_8787" stdDeviation=".235"/></filter><filter id="q" width="3.129" height="4.892" x="10.624" y="16.71" color-interpolation-filters="sRGB" filterUnits="userSpaceOnUse"><feFlood flood-opacity="0" result="BackgroundImageFix"/><feBlend in="SourceGraphic" in2="BackgroundImageFix" result="shape"/><feGaussianBlur result="effect1_foregroundBlur_19160_8787" stdDeviation=".235"/></filter><radialGradient id="c" cx="0" cy="0" r="1" gradientTransform="matrix(-.3663 -8.96393 13.16691 -.53805 9.82 18.271)" gradientUnits="userSpaceOnUse"><stop offset=".142" stop-color="#1ABD4D"/><stop offset=".248" stop-color="#6EC30D"/><stop offset=".312" stop-color="#8AC502"/><stop offset=".366" stop-color="#A2C600"/><stop offset=".446" stop-color="#C8C903"/><stop offset=".54" stop-color="#EBCB03"/><stop offset=".616" stop-color="#F7CD07"/><stop offset=".699" stop-color="#FDCD04"/><stop offset=".771" stop-color="#FDCE05"/><stop offset=".861" stop-color="#FFCE0A"/></radialGradient><radialGradient id="e" cx="0" cy="0" r="1" gradientTransform="matrix(6.21934 -.00002 0 8.03195 18.032 7.798)" gradientUnits="userSpaceOnUse"><stop offset=".408" stop-color="#FB4E5A"/><stop offset="1" stop-color="#FF4540"/></radialGradient><radialGradient id="g" cx="0" cy="0" r="1" gradientTransform="rotate(151.02 7.09 2.771)scale(9.961 13.517)" gradientUnits="userSpaceOnUse"><stop offset=".231" stop-color="#FF4541"/><stop offset=".312" stop-color="#FF4540"/><stop offset=".458" stop-color="#FF4640"/><stop offset=".54" stop-color="#FF473F"/><stop offset=".699" stop-color="#FF5138"/><stop offset=".771" stop-color="#FF5B33"/><stop offset=".861" stop-color="#FF6C29"/><stop offset="1" stop-color="#FF8C18"/></radialGradient><radialGradient id="i" cx="0" cy="0" r="1" gradientTransform="matrix(-15.8026 -20.62862 7.61452 -5.83312 12.317 19.953)" gradientUnits="userSpaceOnUse"><stop offset=".132" stop-color="#0CBA65"/><stop offset=".21" stop-color="#0BB86D"/><stop offset=".297" stop-color="#09B479"/><stop offset=".396" stop-color="#08AD93"/><stop offset=".477" stop-color="#0AA6A9"/><stop offset=".568" stop-color="#0D9CC6"/><stop offset=".667" stop-color="#1893DD"/><stop offset=".769" stop-color="#258BF1"/><stop offset=".859" stop-color="#3086FF"/></radialGradient><radialGradient id="l" cx="0" cy="0" r="1" gradientTransform="matrix(-1.11832 9.63912 -13.3278 -1.54628 11.416 4.623)" gradientUnits="userSpaceOnUse"><stop offset=".366" stop-color="#FF4E3A"/><stop offset=".458" stop-color="#FF8A1B"/><stop offset=".54" stop-color="#FFA312"/><stop offset=".616" stop-color="#FFB60C"/><stop offset=".771" stop-color="#FFCD0A"/><stop offset=".861" stop-color="#FECF0A"/><stop offset=".915" stop-color="#FECF08"/><stop offset="1" stop-color="#FDCD01"/></radialGradient><radialGradient id="n" cx="0" cy="0" r="1" gradientTransform="matrix(-3.2325 3.5751 -10.0837 -9.1174 9.843 4.523)" gradientUnits="userSpaceOnUse"><stop offset=".316" stop-color="#FF4C3C"/><stop offset=".604" stop-color="#FF692C"/><stop offset=".727" stop-color="#FF7825"/><stop offset=".885" stop-color="#FF8D1B"/><stop offset="1" stop-color="#FF9F13"/></radialGradient><radialGradient id="p" cx="0" cy="0" r="1" gradientTransform="rotate(-151.02 10.192 9.229)scale(9.961 13.517)" gradientUnits="userSpaceOnUse"><stop offset=".231" stop-color="#0FBC5F"/><stop offset=".312" stop-color="#0FBC5F"/><stop offset=".366" stop-color="#0FBC5E"/><stop offset=".458" stop-color="#0FBC5D"/><stop offset=".54" stop-color="#12BC58"/><stop offset=".699" stop-color="#28BF3C"/><stop offset=".771" stop-color="#38C02B"/><stop offset=".861" stop-color="#52C218"/><stop offset=".915" stop-color="#67C30F"/><stop offset="1" stop-color="#86C504"/></radialGradient><linearGradient id="r" x1="11.094" x2="13.283" y1="19.156" y2="19.156" gradientUnits="userSpaceOnUse"><stop stop-color="#0FBC5C"/><stop offset="1" stop-color="#0CBA65"/></linearGradient></defs></svg>