<svg xmlns="http://www.w3.org/2000/svg" fill="none" viewBox="0 0 24 24"><path fill="#EA4335" d="M11.213 11.475 1.115 22.033A2.75 2.75 0 0 0 3.738 24q.786 0 1.377-.393l11.41-6.492z"/><path fill="#FBBC04" d="m21.443 9.64-4.918-2.82-5.508 4.852 5.573 5.443 4.918-2.754c.853-.46 1.443-1.377 1.443-2.361a2.94 2.94 0 0 0-1.508-2.36"/><path fill="#4285F4" d="M1.114 1.967c-.065.197-.065.46-.065.722v18.688c0 .262 0 .46.065.721l10.492-10.295z"/><path fill="#34A853" d="m11.279 12 5.246-5.18L5.18.393C4.787.131 4.262 0 3.738 0 2.492 0 1.377.852 1.115 1.967z"/></svg>