<svg xmlns="http://www.w3.org/2000/svg" fill="none" viewBox="0 0 24 24"><path fill="#62757E" fill-rule="evenodd" d="M21.167 17.333H2.833A.833.833 0 0 1 2 16.5V4.833a.833.833 0 1 1 1.667 0v10.834h17.5a.833.833 0 1 1 0 1.666m-2.417-7.5A.833.833 0 0 1 17.917 9v-.76l-4.542 3.893a.83.83 0 0 1-1.13-.044l-1.973-1.972-3.584 2.867a.834.834 0 0 1-1.042-1.302L9.813 8.35a.833.833 0 0 1 1.11.062l1.954 1.954 3.537-3.032h-.164a.833.833 0 1 1 0-1.666h2.5c.37 0 .62.244.708.575.005.014.004.028.007.042.016.07.035.14.035.216V9c0 .46-.29.833-.75.833" clip-rule="evenodd"/></svg>