<svg xmlns="http://www.w3.org/2000/svg" fill="none" viewBox="0 0 24 24"><g clip-path="url(#a)"><path fill="#6747ED" d="M12 22c5.523 0 10-4.477 10-10S17.523 2 12 2 2 6.477 2 12s4.477 10 10 10"/><path fill="#fff" fill-rule="evenodd" d="M11.854 13.292a2.66 2.66 0 0 1-2.667-2.667 2.66 2.66 0 0 1 2.667-2.667 2.66 2.66 0 0 1 2.667 2.667 2.66 2.66 0 0 1-2.667 2.667m0-6.667a4.001 4.001 0 0 1 0 8 4.001 4.001 0 0 1 0-8m3.813 8.208c.27.271.27.688 0 .938L13 18.437c-.271.271-.688.271-.938 0-.27-.27-.27-.687 0-.937l2.667-2.667c.25-.27.688-.27.938 0m1.541-7.541a.66.66 0 0 1-.666.666.66.66 0 0 1-.667-.666c0-.375.291-.667.666-.667.355 0 .667.292.667.667" clip-rule="evenodd"/></g><defs><clipPath id="a"><path fill="#fff" d="M2 2h20v20H2z"/></clipPath></defs></svg>