<svg xmlns="http://www.w3.org/2000/svg" fill="none" viewBox="0 0 24 24"><path fill="#62757E" fill-rule="evenodd" d="M21.167 18.333H2.833A.833.833 0 0 1 2 17.5V5.833a.833.833 0 1 1 1.667 0v10.834h17.5a.833.833 0 1 1 0 1.666M18.25 9.167c-.066 0-.123-.029-.187-.038l-3.572 3.001a1.246 1.246 0 0 1-1.241 1.203c-.635 0-1.14-.483-1.22-1.096l-1.607-1.149-2.601 2.602c0 .02.011.04.011.06a1.25 1.25 0 1 1-1.25-1.25c.022 0 .04.01.06.012L9.744 9.41c.024-.024.056-.034.082-.054a.74.74 0 0 1 .287-.148 1 1 0 0 1 .151-.029.86.86 0 0 1 .465.103c.03.015.061.02.089.039l2.185 1.561c.083-.017.16-.05.247-.05.055 0 .102.024.155.032l3.612-3.034a1.243 1.243 0 0 1 1.233-1.164 1.25 1.25 0 0 1 0 2.5" clip-rule="evenodd"/></svg>