<svg xmlns="http://www.w3.org/2000/svg" fill="none" viewBox="0 0 24 24"><g clip-path="url(#a)"><path fill="#5411B3" d="M12 24c6.627 0 12-5.373 12-12S18.627 0 12 0 0 5.373 0 12s5.373 12 12 12"/><path fill="#fff" fill-rule="evenodd" d="M12.031 5.5c.313.189.624.381.94.565q2.247 1.303 4.495 2.601c.1.057.143.12.143.241q-.006 3.096.004 6.19c0 .135-.06.191-.159.248l-5.346 3.099q-.04.026-.077.056h-.065q-.805-.477-1.615-.95-1.91-1.11-3.822-2.212c-.108-.062-.143-.133-.143-.257q.009-3.07.003-6.141c0-.147.05-.22.171-.29q2.649-1.529 5.293-3.063c.041-.024.076-.058.113-.087zm1.658 10.33c.244.166.483.342.729.52.014-.007.034-.015.052-.025.798-.462 1.597-.922 2.393-1.389.047-.027.088-.11.088-.165q.007-2.77-.002-5.54a.22.22 0 0 0-.092-.163c-.786-.462-1.576-.916-2.362-1.376-.082-.048-.127-.033-.196.02-.191.15-2.068 1.296-2.803 1.738-.575.344-1.136.706-1.58 1.223a1.99 1.99 0 0 0-.134 2.473c.265.384.619.676.998.935.303.206.615.398.922.596q-.01.02-.021.028c-.406.235-.81.473-1.22.702-.04.021-.122 0-.167-.029a6.4 6.4 0 0 1-1.19-.992c-1.022-1.072-1.23-2.83-.484-4.11a4.36 4.36 0 0 1 1.394-1.467c.745-.487 2.82-1.718 3.094-1.886-.024-.03-.03-.047-.043-.055-.326-.19-.65-.384-.98-.566-.05-.026-.137-.016-.19.011-.182.094-.356.202-.533.306-.156.09-.311.183-.49.289l.85.534c-.435.256-.845.502-1.26.74-.034.02-.105.004-.14-.02a10 10 0 0 1-.602-.438c-.086-.068-.143-.074-.239-.018q-1.158.678-2.324 1.345c-.086.049-.114.106-.114.205q.004 2.747 0 5.492c0 .098.025.156.113.207q1.157.662 2.309 1.338c.085.05.142.048.227-.01.551-.368 3.07-1.947 3.771-2.383.119-.074.219-.18.326-.27l-.018-.042h-2.615c.266-.462.514-.898.771-1.329.024-.039.11-.055.169-.055q1.779-.003 3.558-.002.069.002.152.008c.003.056.016.107.005.15-.078.325-.13.66-.248.97-.28.736-.8 1.302-1.432 1.738-.692.476-2.893 1.773-3.266 1.996.018.03.02.044.027.049.228.134.472.246.68.407.298.23.558.229.856 0 .215-.165.467-.282.728-.435l-.865-.54c.023-.021.037-.038.054-.048q.593-.346 1.191-.685c.038-.02.115-.01.153.017m1.71-5.518c.204.361.356.827.379 1.185-.401 0-.787.002-1.175-.003-.035 0-.09-.041-.102-.075-.189-.584-.592-1-1.07-1.348-.338-.247-.698-.465-1.049-.697-.03-.019-.058-.04-.106-.073.08-.048.142-.086.206-.123.326-.19.65-.383.98-.565.06-.033.166-.053.214-.021.691.454 1.309.985 1.723 1.72" clip-rule="evenodd"/></g><defs><clipPath id="a"><path fill="#fff" d="M0 0h24v24H0z"/></clipPath></defs></svg>