<svg xmlns="http://www.w3.org/2000/svg" fill="none" viewBox="0 0 24 24"><path fill="#62757E" d="M5.7 15.9c.266 0 .514 0 .721.016.216.018.457.06.695.18a1.8 1.8 0 0 1 .718.663l.07.124.076.178c.063.179.09.355.103.517.017.207.017.455.017.722v1.3c0 .266 0 .514-.017.721a1.8 1.8 0 0 1-.18.696 1.8 1.8 0 0 1-.787.787 1.8 1.8 0 0 1-.695.18C6.214 22 5.966 22 5.7 22H4.4c-.266 0-.514 0-.721-.017a1.8 1.8 0 0 1-.695-.18 1.8 1.8 0 0 1-.786-.786 1.8 1.8 0 0 1-.181-.696C1.999 20.114 2 19.866 2 19.6v-1.3c0-.267-.001-.515.016-.722.018-.216.059-.457.18-.695a1.8 1.8 0 0 1 .787-.786c.238-.122.479-.163.695-.181.207-.017.455-.016.722-.016zm6.95 0c.266 0 .515 0 .721.016.216.018.457.06.696.18a1.8 1.8 0 0 1 .717.663l.07.124.076.178c.064.179.09.355.103.517.017.207.017.455.017.722v1.3c0 .266 0 .514-.017.721a1.8 1.8 0 0 1-.18.696 1.8 1.8 0 0 1-.786.787c-.239.121-.48.162-.696.18-.207.016-.455.016-.721.016h-1.3c-.267 0-.515 0-.722-.017a1.8 1.8 0 0 1-.695-.18 1.8 1.8 0 0 1-.786-.786 1.8 1.8 0 0 1-.18-.696c-.018-.207-.017-.455-.017-.721v-1.3c0-.267 0-.515.016-.722.018-.216.06-.457.18-.695a1.8 1.8 0 0 1 .787-.786c.238-.122.479-.163.695-.181.207-.017.455-.016.722-.016zm6.954 0c.266 0 .515 0 .721.016.217.018.457.06.696.18a1.8 1.8 0 0 1 .717.663l.07.124.076.178c.064.179.09.355.104.517.016.207.016.455.016.722v1.3c0 .266 0 .514-.017.721a1.8 1.8 0 0 1-.18.696 1.8 1.8 0 0 1-.786.787c-.239.121-.48.162-.696.18-.206.016-.455.016-.721.016h-1.3c-.267 0-.515 0-.722-.017a1.8 1.8 0 0 1-.695-.18 1.8 1.8 0 0 1-.786-.786 1.8 1.8 0 0 1-.18-.696c-.018-.207-.016-.455-.016-.721v-1.3c0-.267-.002-.515.015-.722.018-.216.06-.457.18-.695a1.8 1.8 0 0 1 .787-.786c.238-.122.48-.163.695-.181.207-.017.455-.016.722-.016zM4.4 17.5c-.293 0-.465 0-.591.01a1 1 0 0 0-.106.015.2.2 0 0 0-.078.079 1 1 0 0 0-.014.105c-.01.127-.011.298-.011.59v1.3c0 .294 0 .466.01.592.005.057.01.088.014.102q.03.055.085.085c-.024-.013-.017.001.1.01.126.011.298.011.59.011h1.3c.294 0 .466 0 .592-.01.117-.01.123-.024.099-.011a.2.2 0 0 0 .05-.037l.035-.047a1 1 0 0 0 .014-.103c.01-.126.01-.298.01-.591v-1.3c0-.293 0-.465-.01-.591a1 1 0 0 0-.014-.104l.003.004-.037-.05a.2.2 0 0 0-.048-.035 1 1 0 0 0-.102-.013A8 8 0 0 0 5.7 17.5zm6.95 0c-.293 0-.464 0-.591.01a1 1 0 0 0-.105.015.2.2 0 0 0-.079.079 1 1 0 0 0-.014.105c-.01.127-.011.298-.011.59v1.3c0 .294 0 .466.01.592a1 1 0 0 0 .014.102q.03.055.085.085c-.024-.013-.017.001.1.01.127.011.298.011.59.011h1.3c.294 0 .466 0 .593-.01.117-.01.123-.024.098-.011a.2.2 0 0 0 .05-.037l.035-.047a1 1 0 0 0 .014-.103c.01-.126.01-.298.01-.591v-1.3c0-.293 0-.465-.01-.591a1 1 0 0 0-.014-.104l.003.004-.037-.05a.2.2 0 0 0-.048-.035 1 1 0 0 0-.101-.013 8 8 0 0 0-.592-.011zm6.954 0c-.293 0-.464 0-.59.01a1 1 0 0 0-.106.015.2.2 0 0 0-.079.079 1 1 0 0 0-.014.105c-.01.127-.01.298-.01.59v1.3c0 .294 0 .466.01.592.005.057.01.088.014.102q.03.055.084.085c-.024-.013-.017.001.1.01.127.011.298.011.591.011h1.3c.293 0 .465 0 .592-.01.117-.01.123-.024.098-.011a.2.2 0 0 0 .051-.037l.034-.047a1 1 0 0 0 .014-.103c.01-.126.01-.298.01-.591v-1.3c0-.293 0-.465-.01-.591a1 1 0 0 0-.014-.104l.003.004-.037-.05a.2.2 0 0 0-.048-.035 1 1 0 0 0-.101-.013 8 8 0 0 0-.592-.011zM5.699 8.95c.267 0 .515-.001.722.016.216.017.457.059.695.18a1.8 1.8 0 0 1 .718.663l.07.124.076.178c.063.179.09.355.103.517.017.207.017.455.017.722v1.3c0 .266 0 .514-.017.721a1.8 1.8 0 0 1-.18.695 1.8 1.8 0 0 1-.787.787 1.8 1.8 0 0 1-.695.18c-.207.017-.455.017-.722.017H4.4c-.266 0-.514 0-.721-.017a1.8 1.8 0 0 1-.695-.18 1.8 1.8 0 0 1-.786-.787 1.8 1.8 0 0 1-.181-.695C1.999 13.164 2 12.916 2 12.65v-1.3c0-.266-.001-.514.016-.721.018-.216.059-.457.18-.695a1.8 1.8 0 0 1 .787-.787c.238-.121.479-.163.695-.18.207-.017.455-.016.722-.016zm6.95 0c.267 0 .516-.001.722.016.216.017.457.059.696.18a1.8 1.8 0 0 1 .717.663l.07.124.076.178c.064.179.09.355.103.517.017.207.017.455.017.722v1.3c0 .266 0 .514-.017.721a1.8 1.8 0 0 1-.18.695 1.8 1.8 0 0 1-.786.787c-.239.122-.48.162-.696.18-.207.017-.455.017-.721.017h-1.3c-.267 0-.515 0-.722-.017a1.8 1.8 0 0 1-.695-.18 1.8 1.8 0 0 1-.786-.787 1.8 1.8 0 0 1-.18-.695c-.018-.207-.017-.455-.017-.722v-1.3c0-.266 0-.514.016-.721.018-.216.06-.457.18-.695a1.8 1.8 0 0 1 .787-.787c.238-.121.479-.163.695-.18.207-.017.455-.016.722-.016zm6.955 0c.266 0 .515-.001.721.016.217.017.457.059.696.18a1.8 1.8 0 0 1 .717.663l.07.124.076.178c.064.179.09.355.104.517.016.207.016.455.016.722v1.3c0 .266 0 .514-.017.721a1.8 1.8 0 0 1-.18.695 1.8 1.8 0 0 1-.786.787c-.239.122-.48.162-.696.18-.206.017-.455.017-.721.017h-1.3c-.267 0-.515 0-.722-.017a1.8 1.8 0 0 1-.695-.18 1.8 1.8 0 0 1-.786-.787 1.8 1.8 0 0 1-.18-.695c-.018-.207-.016-.455-.016-.722v-1.3c0-.266-.002-.514.015-.721.018-.216.06-.457.18-.695a1.8 1.8 0 0 1 .787-.787c.238-.121.48-.163.695-.18.207-.017.455-.016.722-.016zM4.4 10.55c-.293 0-.465 0-.591.01a1 1 0 0 0-.106.015.2.2 0 0 0-.078.078 1 1 0 0 0-.014.106c-.01.126-.011.298-.011.59v1.3c0 .294 0 .466.01.592.005.057.01.088.014.102q.03.055.085.085c-.024-.013-.017 0 .1.01.126.01.298.011.59.011h1.3c.294 0 .466 0 .592-.01.117-.01.123-.024.099-.011a.2.2 0 0 0 .05-.037l.035-.047a1 1 0 0 0 .014-.103c.01-.126.01-.298.01-.592v-1.3c0-.292 0-.464-.01-.59a1 1 0 0 0-.014-.104l.003.004-.037-.05a.2.2 0 0 0-.048-.035 1 1 0 0 0-.102-.014 8 8 0 0 0-.592-.01zm6.95 0c-.293 0-.464 0-.591.01a1 1 0 0 0-.105.015.2.2 0 0 0-.079.078 1 1 0 0 0-.014.106c-.01.126-.011.298-.011.59v1.3c0 .294 0 .466.01.592a1 1 0 0 0 .014.102q.03.055.085.085c-.024-.013-.017 0 .1.01.127.01.298.011.59.011h1.3c.294 0 .466 0 .593-.01.117-.01.123-.024.098-.011a.2.2 0 0 0 .05-.037l.035-.047a1 1 0 0 0 .014-.103c.01-.126.01-.298.01-.592v-1.3c0-.292 0-.464-.01-.59a1 1 0 0 0-.014-.104l.003.004-.037-.05a.2.2 0 0 0-.048-.035 1 1 0 0 0-.101-.014 8 8 0 0 0-.592-.01zm6.954 0c-.293 0-.464 0-.59.01a1 1 0 0 0-.106.015.2.2 0 0 0-.079.078 1 1 0 0 0-.014.106c-.01.126-.01.298-.01.59v1.3c0 .294 0 .466.01.592.005.057.01.088.014.102q.03.055.084.085c-.024-.013-.017 0 .1.01.127.01.298.011.591.011h1.3c.293 0 .465 0 .592-.01.117-.01.123-.024.098-.011a.2.2 0 0 0 .051-.037l.034-.047a1 1 0 0 0 .014-.103c.01-.126.01-.298.01-.592v-1.3c0-.292 0-.464-.01-.59a1 1 0 0 0-.014-.104l.003.004-.037-.05a.2.2 0 0 0-.048-.035 1 1 0 0 0-.101-.014 8 8 0 0 0-.592-.01zM5.699 2c.267 0 .515-.001.722.016.216.017.457.059.695.18.297.151.545.38.718.662l.07.124.076.18c.063.178.09.354.103.516.017.206.017.455.017.721v1.3c0 .267 0 .515-.017.722a1.8 1.8 0 0 1-.18.695 1.8 1.8 0 0 1-.787.787 1.8 1.8 0 0 1-.695.18c-.207.017-.455.017-.722.017H4.4c-.266 0-.514 0-.721-.017a1.8 1.8 0 0 1-.695-.18 1.8 1.8 0 0 1-.786-.787 1.8 1.8 0 0 1-.181-.695C1.999 6.214 2 5.966 2 5.699V4.4c0-.266-.001-.515.016-.721.018-.216.06-.457.18-.696a1.8 1.8 0 0 1 .787-.786c.238-.121.479-.163.695-.18C3.885 1.999 4.133 2 4.4 2zm6.95 0c.267 0 .516-.001.722.016.216.017.457.059.696.18a1.8 1.8 0 0 1 .717.662l.07.124.076.18c.064.178.09.354.103.516.017.206.017.455.017.721v1.3c0 .267 0 .515-.017.722a1.8 1.8 0 0 1-.18.695 1.8 1.8 0 0 1-.786.787c-.239.122-.48.162-.696.18-.207.017-.455.017-.721.017h-1.3c-.267 0-.515 0-.722-.017a1.8 1.8 0 0 1-.695-.18 1.8 1.8 0 0 1-.786-.787 1.8 1.8 0 0 1-.18-.695c-.018-.207-.017-.455-.017-.722V4.4c0-.266 0-.515.016-.721.018-.216.06-.457.18-.696a1.8 1.8 0 0 1 .787-.786c.238-.121.479-.163.695-.18.207-.017.455-.016.722-.016zm6.955 0c.266 0 .515-.001.721.016.217.017.457.059.696.18.296.151.545.38.717.662l.07.124.076.18c.064.178.09.354.104.516.016.206.016.455.016.721v1.3c0 .267 0 .515-.017.722a1.8 1.8 0 0 1-.18.695 1.8 1.8 0 0 1-.786.787c-.239.122-.48.162-.696.18-.206.017-.455.017-.721.017h-1.3c-.267 0-.515 0-.722-.017a1.8 1.8 0 0 1-.695-.18 1.8 1.8 0 0 1-.786-.787 1.8 1.8 0 0 1-.18-.695c-.018-.207-.016-.455-.016-.722V4.4c0-.266-.002-.515.015-.721.018-.216.06-.457.18-.696a1.8 1.8 0 0 1 .787-.786c.238-.121.48-.163.695-.18.207-.017.455-.016.722-.016zM4.4 3.6c-.293 0-.465 0-.591.01a1 1 0 0 0-.106.015.2.2 0 0 0-.078.077c.006-.014-.006.003-.014.107a8 8 0 0 0-.011.59v1.3c0 .293 0 .465.01.592.005.057.01.088.014.102q.03.055.085.085c-.024-.013-.017 0 .1.01.126.01.298.011.59.011h1.3c.294 0 .466 0 .592-.01.117-.01.123-.024.099-.011a.2.2 0 0 0 .05-.038l.035-.046a1 1 0 0 0 .014-.103c.01-.127.01-.299.01-.592V4.4c0-.292 0-.464-.01-.59a1 1 0 0 0-.014-.104l.003.004-.037-.05a.2.2 0 0 0-.046-.034 1 1 0 0 0-.104-.015A8 8 0 0 0 5.7 3.6zm6.95 0c-.293 0-.464 0-.591.01a1 1 0 0 0-.105.015.2.2 0 0 0-.079.077c.007-.014-.006.003-.014.107-.01.126-.011.298-.011.59v1.3c0 .293 0 .465.01.592a1 1 0 0 0 .014.102q.03.055.085.085c-.024-.013-.017 0 .1.01.127.01.298.011.59.011h1.3c.294 0 .466 0 .593-.01.116-.01.123-.024.098-.011a.2.2 0 0 0 .05-.038l.035-.046a1 1 0 0 0 .014-.103c.01-.127.01-.299.01-.592V4.4c0-.292 0-.464-.01-.59a1 1 0 0 0-.014-.104l.003.004-.037-.05a.2.2 0 0 0-.046-.034 1 1 0 0 0-.104-.015 8 8 0 0 0-.591-.01zm6.954 0c-.293 0-.464 0-.59.01a1 1 0 0 0-.106.015.2.2 0 0 0-.079.077c.007-.014-.006.003-.014.107-.01.126-.01.298-.01.59v1.3c0 .293 0 .465.01.592.005.057.01.088.014.102q.03.055.084.085c-.024-.013-.017 0 .1.01.127.01.298.011.591.011h1.3c.293 0 .465 0 .592-.01.117-.01.123-.024.098-.011a.2.2 0 0 0 .051-.038l.034-.046a1 1 0 0 0 .014-.103c.01-.127.01-.299.01-.592V4.4c0-.292 0-.464-.01-.59a1 1 0 0 0-.014-.104l.003.004-.037-.05a.2.2 0 0 0-.046-.034 1 1 0 0 0-.103-.015 8 8 0 0 0-.592-.01z"/></svg>