<svg xmlns="http://www.w3.org/2000/svg" fill="none" viewBox="0 0 24 24"><path fill="#62757E" fill-rule="evenodd" d="M21.13 22h-4.347a.87.87 0 0 1-.87-.87v-4.347c0-.48.39-.87.87-.87h4.347c.48 0 .87.39.87.87v4.347c0 .48-.39.87-.87.87m-.87-4.348h-2.608v2.609h2.609zm.87-2.609h-4.347a.87.87 0 0 1-.87-.87V9.827c0-.48.39-.87.87-.87h4.347c.48 0 .87.39.87.87v4.348c0 .48-.39.87-.87.87m-.87-4.347h-2.608v2.608h2.609zm.87-2.609h-4.347a.87.87 0 0 1-.87-.87V2.87c0-.48.39-.87.87-.87h4.347c.48 0 .87.39.87.87v4.347c0 .48-.39.87-.87.87m-.87-4.348h-2.608v2.609h2.609zM14.175 22H9.826a.87.87 0 0 1-.87-.87v-4.347c0-.48.39-.87.87-.87h4.348c.48 0 .87.39.87.87v4.347c0 .48-.39.87-.87.87m-.87-4.348h-2.608v2.609h2.608zm.87-2.609H9.826a.87.87 0 0 1-.87-.87V9.827c0-.48.39-.87.87-.87h4.348c.48 0 .87.39.87.87v4.348c0 .48-.39.87-.87.87m-.87-4.347h-2.608v2.608h2.608zm.87-2.609H9.826a.87.87 0 0 1-.87-.87V2.87c0-.48.39-.87.87-.87h4.348c.48 0 .87.39.87.87v4.347c0 .48-.39.87-.87.87m-.87-4.348h-2.608v2.609h2.608zM7.217 22H2.87a.87.87 0 0 1-.87-.87v-4.347c0-.48.39-.87.87-.87h4.347c.48 0 .87.39.87.87v4.347c0 .48-.39.87-.87.87m-.87-4.348H3.74v2.609h2.609zm.87-2.609H2.87a.87.87 0 0 1-.87-.87V9.827c0-.48.39-.87.87-.87h4.347c.48 0 .87.39.87.87v4.348c0 .48-.39.87-.87.87m-.87-4.347H3.74v2.608h2.609zm.87-2.609H2.87a.87.87 0 0 1-.87-.87V2.87c0-.48.39-.87.87-.87h4.347c.48 0 .87.39.87.87v4.347c0 .48-.39.87-.87.87m-.87-4.348H3.74v2.609h2.609z" clip-rule="evenodd"/></svg>