<svg xmlns="http://www.w3.org/2000/svg" fill="none" viewBox="0 0 24 24"><path fill="#62757E" fill-rule="evenodd" d="M21.169 22h-7.48a.833.833 0 0 1-.832-.833V12c0-.46.372-.833.831-.833h7.48c.46 0 .832.373.832.833v9.167c0 .46-.372.833-.831.833m-.831-9.167H14.52v7.5h5.818zm.83-3.333h-7.48a.833.833 0 0 1-.831-.833V2.833c0-.46.372-.833.831-.833h7.48c.46 0 .832.373.832.833v5.834c0 .46-.372.833-.831.833m-.83-5.833H14.52v4.166h5.818zM10.312 22h-7.48A.833.833 0 0 1 2 21.167v-5.834c0-.46.372-.833.831-.833h7.48c.46 0 .832.373.832.833v5.834c0 .46-.372.833-.831.833m-.831-5.833H3.663v4.166h5.818zm.83-3.334h-7.48A.833.833 0 0 1 2 12V2.833c0-.46.372-.833.831-.833h7.48c.46 0 .832.373.832.833V12c0 .46-.372.833-.831.833m-.83-9.166H3.663v7.5h5.818z" clip-rule="evenodd"/></svg>