<svg xmlns="http://www.w3.org/2000/svg" fill="none" viewBox="0 0 24 24"><path fill="#62757E" fill-rule="evenodd" d="M20.334 22h-4.162a.833.833 0 0 1-.833-.833v-7.5c0-.46.373-.834.833-.834h4.162c.46 0 .833.374.833.834v7.5c0 .46-.373.833-.833.833m-.832-7.5h-2.498v5.833h2.498zm.832-2.5h-4.162a.833.833 0 0 1-.833-.833V2.833c0-.46.373-.833.833-.833h4.162c.46 0 .833.373.833.833v8.334c0 .46-.373.833-.833.833m-.832-8.333h-2.498v6.666h2.498zM13.675 22h-4.07c-.46 0-.938-.373-.938-.833v-10c0-.46.479-.834.939-.834h4.069c.46 0 .832.374.832.834v10c0 .46-.373.833-.832.833m-.833-10h-2.508v8.333h2.508zm.832-2.5H9.607c-.46 0-.939-.373-.939-.833V2.833c0-.46.479-.833.939-.833h4.069c.46 0 .832.373.832.833v5.834c0 .46-.373.833-.832.833m-.832-5.833h-2.508v4.166h2.508zM7.014 22H2.832A.833.833 0 0 1 2 21.167V17c0-.46.372-.833.832-.833h4.182c.46 0 .832.373.832.833v4.167c0 .46-.372.833-.832.833m-.833-4.167H3.665v2.5H6.18zm.833-2.555H2.832A.83.83 0 0 1 2 14.444V2.834c0-.46.372-.834.832-.834h4.182c.46 0 .832.373.832.833v11.611a.83.83 0 0 1-.832.833M3.664 3.666l.003 10h2.5l.014-10z" clip-rule="evenodd"/></svg>