<svg xmlns="http://www.w3.org/2000/svg" fill="none" viewBox="0 0 24 24"><path fill="#62757E" fill-rule="evenodd" d="M21.167 22h-7.5a.834.834 0 0 1-.834-.833V2.833c0-.46.374-.833.834-.833h7.5c.46 0 .833.373.833.833v18.334c0 .46-.373.833-.833.833Zm-.834-18.333H14.5v16.666h5.833V3.667ZM10.333 22h-7.5A.834.834 0 0 1 2 21.167v-7.5c0-.46.373-.834.833-.834h7.5c.46 0 .834.374.834.834v7.5c0 .46-.374.833-.834.833ZM9.5 14.5H3.667v5.833H9.5V14.5Zm.833-3.333h-7.5A.834.834 0 0 1 2 10.333v-7.5c0-.46.373-.833.833-.833h7.5c.46 0 .834.373.834.833v7.5c0 .46-.374.834-.834.834Zm-.833-7.5H3.667V9.5H9.5V3.667Z" clip-rule="evenodd"/></svg>