<svg xmlns="http://www.w3.org/2000/svg" fill="none" viewBox="0 0 24 24"><g clip-path="url(#a)"><path fill="#000" fill-rule="evenodd" d="m9.27 15.405-.003.003zm0 0 7.978-6.142c.391-.301.95-.184 1.137.284.98 2.467.542 5.431-1.41 7.467s-4.667 2.482-7.149 1.465l-2.711 1.31c3.889 2.771 8.611 2.086 11.562-.994 2.341-2.441 3.066-5.769 2.388-8.77l.006.007c-.983-4.408.242-6.17 2.75-9.774l.01-.011L24 0l-3.302 3.443v-.01zM7.693 7.332c-2.382 2.482-2.863 6.786-.071 9.566l-.003.003L0 24c.477-.685 1.068-1.333 1.658-1.98l.023-.026.005-.005c1.686-1.848 3.357-3.68 2.336-6.267-1.368-3.467-.571-7.53 1.962-10.171 2.634-2.745 6.513-3.437 9.752-2.046a7.7 7.7 0 0 1 1.83 1.04L14.86 5.848c-2.519-1.102-5.405-.353-7.166 1.484" clip-rule="evenodd"/></g><defs><clipPath id="a"><path fill="#fff" d="M0 0h24v24H0z"/></clipPath></defs></svg>