<svg xmlns="http://www.w3.org/2000/svg" fill="none" viewBox="0 0 24 24"><g clip-path="url(#a)"><path fill="#000" fill-rule="evenodd" d="M.654 3.276C0 4.56 0 6.24 0 9.6v4.8c0 3.36 0 5.04.654 6.324a6 6 0 0 0 2.622 2.622C4.56 24 6.24 24 9.6 24h4.8c3.36 0 5.04 0 6.324-.654a6 6 0 0 0 2.622-2.622C24 19.44 24 17.76 24 14.4V9.6c0-3.36 0-5.04-.654-6.324A6 6 0 0 0 20.724.654C19.44 0 17.76 0 14.4 0H9.6C6.24 0 4.56 0 3.276.654A6 6 0 0 0 .654 3.276m11.377 15.581-6.456-9.42h2.869l6.456 9.42zm-6.46 0 2.87-4.188 1.436 2.094-1.434 2.094zm5.024-7.331 4.962-7.24h2.872L12.03 13.62zm5.481 7.331V8.766l2.353-3.433v13.524z" clip-rule="evenodd"/></g><defs><clipPath id="a"><path fill="#fff" d="M0 0h24v24H0z"/></clipPath></defs></svg>