<svg xmlns="http://www.w3.org/2000/svg" fill="none" viewBox="0 0 24 24"><g clip-path="url(#a)"><path fill="#62757E" d="M5.984 5.55c2.634-2.744 6.513-3.435 9.752-2.045a7.7 7.7 0 0 1 1.83 1.04L14.86 5.848c-2.518-1.102-5.404-.353-7.166 1.484-2.307 2.404-2.831 6.519-.324 9.302l.25.266L0 24c.483-.694 1.084-1.35 1.682-2.006 1.687-1.85 3.362-3.682 2.34-6.272-1.368-3.467-.57-7.53 1.962-10.171M23.822.26c-2.508 3.603-3.734 5.365-2.75 9.773l-.007-.007c.678 3.001-.047 6.329-2.387 8.77-2.951 3.08-7.674 3.765-11.563.993l2.711-1.31c2.482 1.017 5.198.571 7.15-1.464s2.39-5 1.409-7.467c-.187-.468-.746-.585-1.137-.284l-7.98 6.144L20.699 3.433v.01L24 0z"/></g><defs><clipPath id="a"><path fill="#fff" d="M0 0h24v24H0z"/></clipPath></defs></svg>