<svg xmlns="http://www.w3.org/2000/svg" fill="none" viewBox="0 0 24 24"><path fill="#62757E" fill-rule="evenodd" d="M5.197 3.802a1.8 1.8 0 0 1 1.8-1.8h13.197a1.8 1.8 0 0 1 1.8 1.8V17a1.8 1.8 0 0 1-1.8 1.8H6.997a1.8 1.8 0 0 1-1.8-1.8zm1.8-.2a.2.2 0 0 0-.2.2V17c0 .11.09.2.2.2h13.197a.2.2 0 0 0 .2-.2V3.802a.2.2 0 0 0-.2-.2zM2.8 5.6a.8.8 0 0 1 .8.8v11.8a2.2 2.2 0 0 0 2.2 2.2h11.8a.8.8 0 1 1 0 1.6H5.8A3.8 3.8 0 0 1 2 18.2V6.4a.8.8 0 0 1 .8-.8m8.679 1.379a.922.922 0 1 0-1.305 1.305l2.117 2.117-2.117 2.117a.923.923 0 1 0 1.305 1.305l2.116-2.117 2.117 2.117a.92.92 0 0 0 1.305 0 .92.92 0 0 0 0-1.306l-2.116-2.116 2.116-2.117a.92.92 0 0 0 0-1.305.92.92 0 0 0-1.305 0l-2.117 2.117z" clip-rule="evenodd"/></svg>