<svg xmlns="http://www.w3.org/2000/svg" fill="none" viewBox="0 0 24 24"><path fill="#62757E" fill-rule="evenodd" d="M5.197 3.802a1.8 1.8 0 0 1 1.8-1.8h13.197a1.8 1.8 0 0 1 1.8 1.8V17a1.8 1.8 0 0 1-1.8 1.8H6.997a1.8 1.8 0 0 1-1.8-1.8v-5.503a.8.8 0 0 1 0-.336zm1.6 8.326v4.871c0 .11.09.2.2.2h13.197a.2.2 0 0 0 .2-.2V5.802H6.797v4.726h6.312l-1.646-1.646a.8.8 0 0 1 1.132-1.131l3.01 3.011a.8.8 0 0 1 0 1.132l-3.01 3.01a.8.8 0 0 1-1.132-1.13l1.646-1.646zM2.8 5.6a.8.8 0 0 1 .8.8v11.8a2.2 2.2 0 0 0 2.2 2.2h11.8a.8.8 0 1 1 0 1.6H5.8A3.8 3.8 0 0 1 2 18.2V6.4a.8.8 0 0 1 .8-.8" clip-rule="evenodd"/></svg>