<svg xmlns="http://www.w3.org/2000/svg" fill="none" viewBox="0 0 24 24"><g clip-path="url(#a)"><path fill="#377E96" d="M12 24c6.627 0 12-5.373 12-12S18.627 0 12 0 0 5.373 0 12s5.373 12 12 12"/><path fill="#fff" fill-rule="evenodd" d="m17.719 22.553.063-.047c-.174-.319-.456-.486-.773-.562-.454-.108-.914-.207-1.376-.24-1.027-.074-2.056-.091-3.084-.154-1.144-.07-2.287-.166-3.433-.241-.1-.008-.243.03-.3.101-.3.368-.59.746-.86 1.136-.132.191-.214.416-.316.622l.078.045a12 12 0 0 1-1.319-.598c.078.016.18.004.218-.035.47-.47.924-.955 1.381-1.435-.341-.273-.675-.515-.979-.79-.283-.256-.402-.596-.377-.986.038-.597.3-1.107.684-1.534.455-.505.966-.96 1.454-1.436.06-.057.122-.11.177-.162-.018-.032-.02-.042-.026-.046l-.142-.082c-1.566-.904-2.347-2.275-2.367-4.066-.018-1.532.634-2.774 1.788-3.754 1.125-.955 2.45-1.29 3.905-1.257 1.076.025 2.082.263 3.018.797.053.03.185-.005.233-.055.443-.465.893-.924 1.308-1.414.516-.607.953-1.267 1.133-2.064.141-.621.081-1.204-.369-1.689-.66-.712-1.797-.616-2.377.195-.114.159-.18.353-.292.515-.041.06-.146.078-.223.115-.018-.067-.06-.137-.05-.2a3 3 0 0 1 .115-.506c.285-.818.814-1.376 1.702-1.5.289-.041.589-.007.89-.007-.014-.02-.02-.038-.032-.043a3 3 0 0 0-.17-.085 12.4 12.4 0 0 0-1.75-.645 12 12 0 0 1 3.18 1.42c.006.066.002.083.01.092.662.817.578 1.683.16 2.565-.354.747-.87 1.378-1.427 1.98q-.766.824-1.537 1.65c.021.013.034.028.045.028.786 0 1.571.012 2.356-.004.409-.008.773-.144 1.026-.506.047-.07.178-.083.271-.121l.052.072c-.217.627-.431 1.255-.661 1.877-.02.052-.135.095-.209.098-.277.012-.555.005-.832.005h-.997l.113.225c.54 1.058.683 2.179.41 3.323-.403 1.687-1.507 2.778-3.112 3.345-1.312.463-2.657.447-4.003.125-.12-.029-.304-.053-.368.011-.29.29-.595.581-.804.928-.43.714-.18 1.21.64 1.383l.023.003c.803.062 1.607.139 2.412.183 1.138.062 2.278.087 3.416.155.689.041 1.37.163 1.99.492.8.423 1.366 1.045 1.614 1.955l.176-.125q-.701.526-1.478.947zM14.08 23.82a12 12 0 0 1-2.205.18 15.5 15.5 0 0 0 2.205-.18M24 12.038V12c0-1.035-.131-2.04-.377-2.997.245.993.371 2.012.377 3.035m-2.79-7.73a12 12 0 0 0-2.392-2.183q1.37.99 2.393 2.184zM6.23 22.524q-.89-.49-1.685-1.12c.535.406 1.118.754 1.685 1.12M2.187 5.09q.707-.984 1.583-1.823A12 12 0 0 0 2.187 5.09M8.35.566A12.8 12.8 0 0 1 12 0a12 12 0 0 0-3.65.566m6.325 11.926-.046-.011c-.026-.363-.04-.728-.079-1.09-.089-.836-.326-1.627-.788-2.34-.682-1.055-1.822-1.481-2.915-1.058-.898.346-1.374 1.059-1.589 1.967-.204.86-.187 1.73-.084 2.597.1.825.335 1.61.81 2.309.61.896 1.462 1.288 2.52 1.11 1.005-.166 1.636-.816 1.894-1.783.148-.552.188-1.133.277-1.701" clip-rule="evenodd"/></g><defs><clipPath id="a"><path fill="#fff" d="M0 0h24v24H0z"/></clipPath></defs></svg>