<svg xmlns="http://www.w3.org/2000/svg" fill="none" viewBox="0 0 24 24"><g clip-path="url(#a)"><path fill="#6747ED" d="M12 24c6.627 0 12-5.373 12-12S18.627 0 12 0 0 5.373 0 12s5.373 12 12 12Z"/><path fill="#fff" fill-rule="evenodd" d="M11.267 12.713a2.876 2.876 0 0 1-2.885-2.885c0-1.6 1.285-2.885 2.885-2.885 1.6 0 2.886 1.284 2.886 2.885 0 1.6-1.285 2.885-2.886 2.885Zm0-7.213a4.329 4.329 0 0 1 0 8.655 4.329 4.329 0 0 1 0-8.655Zm4.125 8.88c.293.294.293.745 0 1.015l-2.885 2.885c-.293.293-.744.293-1.014 0-.293-.293-.293-.744 0-1.014l2.885-2.885a.695.695 0 0 1 1.014 0Zm1.668-8.159a.712.712 0 0 1-.721.722.712.712 0 0 1-.721-.722c0-.405.315-.721.72-.721.384 0 .722.316.722.721Z" clip-rule="evenodd"/></g><defs><clipPath id="a"><path fill="#fff" d="M0 0h24v24H0z"/></clipPath></defs></svg>