<svg xmlns="http://www.w3.org/2000/svg" fill="none" viewBox="0 0 24 24"><g clip-path="url(#a)"><path fill="#FF0060" d="M12 24c6.627 0 12-5.373 12-12S18.627 0 12 0 0 5.373 0 12s5.373 12 12 12Z"/><path fill="#fff" d="M17.531 9.657H12a2.343 2.343 0 1 0 2.193 3.158H12a.62.62 0 0 1-.619-.618v-.075a.617.617 0 0 1 .619-.619h3.656c.027.17.04.343.038.515A3.694 3.694 0 1 1 12 8.306l.113-.018a.23.23 0 0 0 .075.018h3.28c1.791 0 2.522-.956 2.522-2.306H12a6.001 6.001 0 0 0-.018 12A6 6 0 0 0 18 12.028v-1.894a.469.469 0 0 0-.469-.477Z"/></g><defs><clipPath id="a"><path fill="#fff" d="M0 0h24v24H0z"/></clipPath></defs></svg>