<svg xmlns="http://www.w3.org/2000/svg" fill="none" viewBox="0 0 24 24"><g clip-path="url(#a)"><path fill="#7F27FF" d="M12 24c6.627 0 12-5.373 12-12S18.627 0 12 0 0 5.373 0 12s5.373 12 12 12"/><path fill="#fff" d="M11.619 11.083H7.123v4.414c-.005.451.176.886.501 1.205.326.319.769.497 1.229.492h2.766zm.104-2.31h.484c.479-.824.917-1.385 1.33-1.688.508-.375 1.03-.378 1.437.023.382.374.453.843.202 1.296q-.105.188-.283.37h1.777c.415 0 .83.34.83.815a.835.835 0 0 1-.83.815h-4.36V9.317h-.691v1.087h-4.29c-.413 0-.829-.341-.829-.815 0-.407.348-.815.83-.815h1.797a2 2 0 0 1-.299-.35c-.297-.454-.261-.935.127-1.316.408-.4.929-.397 1.438-.023.412.303.85.865 1.33 1.689m-.804 0c-.354-.563-.671-.946-.941-1.145-.25-.183-.387-.184-.534-.04-.151.148-.16.275-.034.468.144.221.448.47.886.718zm2.091 0h.746c.417-.239.693-.48.813-.696.103-.186.081-.327-.084-.489-.147-.144-.284-.144-.533.04-.27.199-.588.582-.941 1.146m-.7 2.31h4.496v4.414a1.67 1.67 0 0 1-.5 1.205 1.73 1.73 0 0 1-1.23.492H12.31z"/></g><defs><clipPath id="a"><path fill="#fff" d="M0 0h24v24H0z"/></clipPath></defs></svg>