<svg xmlns="http://www.w3.org/2000/svg" fill="none" viewBox="0 0 24 24"><g clip-path="url(#a)"><path fill="#37DCD8" d="M12 24c6.627 0 12-5.373 12-12S18.627 0 12 0 0 5.373 0 12s5.373 12 12 12"/><path fill="#fff" d="m11.994 9.841-1.81-1.822A21 21 0 0 1 12 5.5c.665.79 1.271 1.629 1.814 2.508zm3.716 1.827c.511 1.43 1.26 2.862.546 4.236a4.9 4.9 0 0 1-2.023 2.038c-2.352 1.248-5.264.331-6.503-2.038-.721-1.374.12-2.918.63-4.349a32 32 0 0 1 1.482-2.962l2.151 2.167 2.164-2.178c.569.984 1.06 1.996 1.553 3.086"/></g><defs><clipPath id="a"><path fill="#fff" d="M0 0h24v24H0z"/></clipPath></defs></svg>