<svg xmlns="http://www.w3.org/2000/svg" fill="none" viewBox="0 0 24 24"><g clip-path="url(#a)"><path fill="#00DCFA" d="M12 24c6.627 0 12-5.373 12-12S18.627 0 12 0 0 5.373 0 12s5.373 12 12 12"/><path fill="#fff" d="M13.996 5.5c-2.287 0-4.23 1.759-4.473 4.022C7.258 9.767 5.5 11.71 5.5 13.996a4.507 4.507 0 0 0 4.504 4.504c2.287 0 4.237-1.759 4.473-4.022 2.264-.245 4.023-2.187 4.023-4.473A4.507 4.507 0 0 0 13.996 5.5m3.449 5.009a3.5 3.5 0 0 1-2.937 2.936v-2.937zm-10.89 2.983a3.5 3.5 0 0 1 2.937-2.945v2.937H6.555zm6.898 1.016a3.48 3.48 0 0 1-3.45 2.975 3.48 3.48 0 0 1-3.448-2.975zm.039-4v2.976h-2.984v-2.976zm3.953-1.016h-6.898a3.484 3.484 0 0 1 3.45-2.975 3.48 3.48 0 0 1 3.448 2.975"/></g><defs><clipPath id="a"><path fill="#fff" d="M0 0h24v24H0z"/></clipPath></defs></svg>