<svg xmlns="http://www.w3.org/2000/svg" fill="none" viewBox="0 0 24 24"><g clip-path="url(#a)"><path fill="#00DCFA" d="M12 24c6.627 0 12-5.373 12-12S18.627 0 12 0 0 5.373 0 12s5.373 12 12 12Z"/><path fill="#fff" d="M13.996 5.5c-2.287 0-4.23 1.759-4.473 4.022C7.258 9.767 5.5 11.71 5.5 13.995a4.507 4.507 0 0 0 4.504 4.505c2.287 0 4.237-1.759 4.473-4.022 2.264-.245 4.023-2.187 4.023-4.473A4.507 4.507 0 0 0 13.996 5.5Zm3.449 5.008a3.504 3.504 0 0 1-2.937 2.937v-2.937h2.937Zm-10.89 2.984a3.504 3.504 0 0 1 2.937-2.945v2.937H6.555v.008Zm6.898 1.016a3.483 3.483 0 0 1-3.45 2.975 3.483 3.483 0 0 1-3.448-2.975h6.898Zm.039-4v2.976h-2.984v-2.976h2.984Zm3.953-1.016h-6.898a3.484 3.484 0 0 1 3.45-2.975 3.483 3.483 0 0 1 3.448 2.975Z"/></g><defs><clipPath id="a"><path fill="#fff" d="M0 0h24v24H0z"/></clipPath></defs></svg>