<svg xmlns="http://www.w3.org/2000/svg" fill="none" viewBox="0 0 24 24"><g clip-path="url(#a)"><path fill="#16B9AD" d="M12 24c6.627 0 12-5.373 12-12S18.627 0 12 0 0 5.373 0 12s5.373 12 12 12"/><path fill="#fff" d="M18.5 9.2c0 3.516-2.917 6.375-6.5 6.375s-6.5-2.86-6.5-6.373q0-.389.048-.776h1.167a5 5 0 0 0-.058.776c0 2.889 2.397 5.24 5.344 5.24 2.812 0 5.123-2.14 5.33-4.846H9.062c.176 1.264 1.172 2.268 2.455 2.475a2.98 2.98 0 0 0 3.134-1.573h1.252c-.57 1.64-2.139 2.742-3.904 2.743-2.273 0-4.122-1.813-4.122-4.04q0-.391.076-.776h10.499q.048.386.048.775"/></g><defs><clipPath id="a"><path fill="#fff" d="M0 0h24v24H0z"/></clipPath></defs></svg>