<svg xmlns="http://www.w3.org/2000/svg" fill="none" viewBox="0 0 24 24"><g clip-path="url(#a)"><path fill="#56C9E9" d="M12 24c6.627 0 12-5.373 12-12S18.627 0 12 0 0 5.373 0 12s5.373 12 12 12"/><path fill="#fff" d="M16.432 8.183c-.441-.162-1.416.081-1.463.15.187.036.244.06.523.106a2.6 2.6 0 0 1 .847.313c.278.162.394-.058.394-.058.047-.105-.08-.43-.301-.51M8.507 6.257a4 4 0 0 0-.233-.325c-.22-.232-.649-.348-.882-.232-.127.059-.185.14-.08.279.126.125.288.21.463.243.105.024.57.128.685.15.117 0 .047-.115.047-.115m.464 1.172a.1.1 0 0 0-.047-.046 1.3 1.3 0 0 1-.824-.174.33.33 0 0 0-.382 0c-.151.127.07.278.08.278.093.058.198.035.291.058q.341.1.696.128c.197 0 .244-.07.186-.244M16.653 7c.023-.07 0-.302-.419-.244-.348.059-.591.151-.58.197s.395.117.476.128c.325.058.51-.035.523-.081m-4.224-1.938a.23.23 0 0 0-.302-.012c-.348.22-.093.975-.059.975.035 0 .07-.267.419-.661a.214.214 0 0 0-.059-.302m-1.107 2.241c-.029-.03 0-.03 0 0"/><path fill="#fff" d="M10.99 6.93c-.221-.116-.036-.685-.116-.894a.2.2 0 0 0-.314-.115.222.222 0 0 0-.104.324c.047.093.325.627.104.72-.081.035-.255-.035-.37-.105-.419-.185-.488-.824-.616-.905a.33.33 0 0 0-.406.012.27.27 0 0 0-.116.336c.058.105.278.163.325.523l.139.104c.07.058.139.116.22.174.21.209.163.244.592.174.14-.046.116-.232.255-.278a.5.5 0 0 1 .255.034.84.84 0 0 1 .314.29c.186.221.267.5.43.744q.084.153.208.277l.174.14c.244.162.464.15.638-.035a.43.43 0 0 0 .175-.29 5 5 0 0 1 .355-.811l.004-.001q.001-.01.008-.016a.03.03 0 0 1 .016-.007.19.19 0 0 1 .22 0c.035.046-.035.475 0 .521.023.094.197.036.348.024a.3.3 0 0 0 .035-.059c.255-.08.499-.208.754-.278h.14q.214-.034.429 0c.139 0 .185.082.173.21.233-.012.465-.012.697-.036.104-.012.267-.012.255-.209-.023-.116-.209-.44-1.056-.243-.081.023-.545.163-.708.081q.372-.24.766-.44c.116-.094.21-.221.14-.36-.07-.14-.21-.128-.337-.082a1.6 1.6 0 0 0-.638.383q-.177.18-.383.325c-.337.163-.337.163-.418.14-.104-.048-.22-.128-.14-.244a1 1 0 0 0 .105-.244c.036-.151-.011-.197-.116-.197-.209.011-.278.313-.313.36a.7.7 0 0 1-.081.127.2.2 0 0 1-.21.047c-.069-.012-.127-.047-.069-.14.105-.162.43-.418.523-.754 0 0 .162-.441-.29-.452-.245-.012-.442.162-.511.429-.07.278.081.661 0 .847q-.045.118-.116.22a.426.426 0 0 1-.569 0 .46.46 0 0 1-.104-.382q.06-.23.093-.465c.011-.116-.198-.325-.372-.185-.081.058-.047.15-.012.232.059.174.163.673-.406.429m.325.36c-.012-.012 0-.012 0 0"/><path fill="#fff" d="M11.697 7.813h.767c.069-.015.137.039.185.145.004.059-.01.116-.035.145a.96.96 0 0 0-.812 0h-.035z"/><path fill="#fff" d="M14.506 7.498a8 8 0 0 0-.87.302.13.13 0 0 1-.14-.046.2.2 0 0 1 0-.163.2.2 0 0 0 0-.115.4.4 0 0 0-.116-.163.198.198 0 0 0-.302.059 2.8 2.8 0 0 0-.348.788.6.6 0 0 1-.174.29c-.174.151-.336.163-.568.035a2 2 0 0 1-.186-.151 1.7 1.7 0 0 1-.209-.29c-.093-.174-.186-.36-.278-.522-.128-.209-.256-.406-.487-.51a.4.4 0 0 0-.233-.013.24.24 0 0 0-.162.117c-.035.058-.5.07-.661-.024-.082-.046-.314-.278-.395-.255-.07 0-.104-.046-.151-.08a.8.8 0 0 0-.72-.094.26.26 0 0 0-.197.209.26.26 0 0 0 .174.244q.174.064.337.15c.058.024.15.036.139.14a.2.2 0 0 0 .012.081c.011.15-.093.162-.197.162a3 3 0 0 1-.442-.07 1.2 1.2 0 0 0-.499-.057c-.046.058-.104.023-.162.035-.209.035-.371.185-.36.36.012.197.174.243.337.278.394.093.79.058 1.184.07.475 0 .742.232.812.708.046.347 1.09 9.491 1.102 9.688a.184.184 0 0 0 .14.174c.394.12.806.176 1.218.163a4.6 4.6 0 0 0 1.369-.174c.07-.024.128-.047.128-.14.011-.243.672-8.98.672-9.12a1.8 1.8 0 0 1 .372-1.125c.197-.233.418-.442.615-.673.058-.325-.36-.325-.754-.268"/></g><defs><clipPath id="a"><path fill="#fff" d="M0 0h24v24H0z"/></clipPath></defs></svg>