<svg xmlns="http://www.w3.org/2000/svg" fill="none" viewBox="0 0 24 24"><g clip-path="url(#a)"><path fill="#56C9E9" d="M12 24c6.627 0 12-5.373 12-12S18.627 0 12 0 0 5.373 0 12s5.373 12 12 12Z"/><path fill="#fff" d="M16.432 8.183c-.441-.162-1.416.081-1.463.15.186.036.244.06.523.106a2.6 2.6 0 0 1 .847.313c.278.162.394-.058.394-.058.047-.105-.08-.43-.301-.51ZM8.507 6.257a3.564 3.564 0 0 0-.233-.325c-.22-.232-.649-.348-.882-.232-.127.059-.185.14-.08.279.126.125.288.21.463.243.104.024.569.128.685.15.117 0 .047-.115.047-.115Zm.464 1.172a.09.09 0 0 0-.047-.046 1.287 1.287 0 0 1-.824-.174.332.332 0 0 0-.383 0c-.15.127.07.278.082.278.092.058.197.035.29.058.227.066.46.109.696.128.197 0 .243-.07.186-.244ZM16.652 7c.024-.07 0-.302-.418-.244-.348.059-.591.151-.58.197.012.047.395.117.476.128.325.058.51-.035.522-.081ZM12.43 5.062a.233.233 0 0 0-.302-.012c-.348.22-.093.975-.059.975.035 0 .07-.267.418-.661a.214.214 0 0 0-.058-.302Zm-1.107 2.241c-.029-.03 0-.03 0 0Z"/><path fill="#fff" d="M10.99 6.93c-.221-.116-.036-.685-.116-.894a.2.2 0 0 0-.314-.116.222.222 0 0 0-.104.325c.047.093.325.627.104.72-.081.035-.255-.035-.37-.105-.419-.185-.488-.824-.616-.905a.33.33 0 0 0-.406.012.268.268 0 0 0-.116.336c.058.105.278.163.325.522l.139.105c.07.058.139.116.22.174.21.209.163.244.592.174.14-.047.116-.232.255-.278a.49.49 0 0 1 .255.034.835.835 0 0 1 .314.29c.186.221.267.5.43.743.056.102.126.196.208.278l.174.14c.244.162.464.15.638-.035a.426.426 0 0 0 .175-.29 4.914 4.914 0 0 1 .355-.812h.004c0-.006.004-.012.008-.016a.025.025 0 0 1 .016-.007.191.191 0 0 1 .22 0c.035.046-.035.475 0 .521.023.094.197.035.348.024a.256.256 0 0 0 .035-.059c.255-.08.499-.208.754-.278h.14c.142-.023.286-.023.429 0 .139 0 .185.082.173.21.233-.012.465-.012.697-.036.104-.012.267-.012.255-.209-.023-.116-.209-.44-1.056-.243-.081.023-.545.163-.708.081.248-.16.504-.307.766-.44.116-.094.21-.221.14-.36-.07-.14-.21-.128-.337-.082a1.57 1.57 0 0 0-.638.383c-.118.12-.246.228-.383.325-.337.163-.337.163-.418.14-.104-.048-.22-.128-.14-.244a.865.865 0 0 0 .105-.244c.036-.151-.011-.197-.116-.197-.209.011-.278.313-.313.36a.69.69 0 0 1-.081.127.202.202 0 0 1-.21.047c-.069-.012-.127-.047-.069-.14.105-.162.43-.418.523-.754 0 0 .162-.441-.29-.452-.245-.012-.442.162-.511.428-.07.279.081.662 0 .848a1.05 1.05 0 0 1-.116.22.426.426 0 0 1-.569 0 .463.463 0 0 1-.104-.382c.04-.153.07-.309.093-.465.011-.116-.198-.325-.372-.185-.081.058-.047.15-.012.232.059.174.163.673-.406.429Zm.325.36c-.012-.012 0-.012 0 0Z"/><path fill="#fff" d="M11.697 7.813h.767c.069-.015.137.039.185.145.004.059-.01.116-.035.145a.955.955 0 0 0-.812 0h-.035l-.07-.29Z"/><path fill="#fff" d="M14.505 7.498a7.836 7.836 0 0 0-.87.302.126.126 0 0 1-.14-.046.197.197 0 0 1 0-.163.197.197 0 0 0 0-.115.385.385 0 0 0-.115-.163.2.2 0 0 0-.302.059 2.807 2.807 0 0 0-.348.788.58.58 0 0 1-.174.29c-.174.151-.336.163-.569.035a2.12 2.12 0 0 1-.185-.151 1.67 1.67 0 0 1-.209-.29c-.094-.174-.186-.36-.278-.522-.128-.209-.256-.406-.488-.51a.397.397 0 0 0-.232-.013.24.24 0 0 0-.163.117c-.035.058-.499.07-.66-.024-.083-.046-.314-.278-.396-.255-.07 0-.104-.046-.15-.08a.795.795 0 0 0-.72-.094.26.26 0 0 0-.197.209.262.262 0 0 0 .174.244c.115.043.228.093.337.15.058.024.15.036.139.14a.232.232 0 0 0 .011.081c.012.15-.093.162-.197.162a2.9 2.9 0 0 1-.44-.07 1.207 1.207 0 0 0-.5-.057c-.047.058-.104.023-.162.035-.21.035-.371.185-.36.36.012.197.174.243.337.278.394.093.789.058 1.183.07.476 0 .743.232.812.708.047.347 1.091 9.491 1.103 9.688a.184.184 0 0 0 .14.174c.394.12.805.176 1.217.163.463.012.925-.047 1.37-.174.07-.024.127-.047.127-.14.012-.243.673-8.98.673-9.12a1.798 1.798 0 0 1 .372-1.125c.197-.233.417-.442.614-.673.059-.325-.36-.325-.754-.268Z"/></g><defs><clipPath id="a"><path fill="#fff" d="M0 0h24v24H0z"/></clipPath></defs></svg>