<svg xmlns="http://www.w3.org/2000/svg" fill="none" viewBox="0 0 24 24"><path fill="#62757E" fill-rule="evenodd" d="m20.812 17.598-4.822 3.358a.832.832 0 0 1-.397.146c-.052.005-.694.065-1.526.065-.868 0-1.942-.065-2.77-.326-.824-.26-1.816-.827-2.69-1.326-.556-.317-1.316-.752-1.547-.796-.285.003-1.882.391-3.17.751a.831.831 0 0 1-1.038-.63l-.833-3.908a.832.832 0 0 1 .588-.976c5.386-1.522 8.183-1.11 8.3-1.091a.815.815 0 0 1 .16.042l4.763 1.764c.008.002.012.009.02.011.007.004.013.002.02.005.324.14.586.359.79.618l2.401-1.42c.02-.012.041-.012.061-.022.02-.01.032-.026.052-.035a2.063 2.063 0 0 1 2.677 1.135 2.062 2.062 0 0 1-1.04 2.635Zm-.986-2.229L17.069 17a2.035 2.035 0 0 1-1.249 1.485 2.039 2.039 0 0 1-1.574-.02L10.05 16.95a.833.833 0 1 1 .566-1.568l4.243 1.532c.176.074.287.044.344.023a.39.39 0 0 0 .01-.718l-4.634-1.717c-.415-.042-2.706-.204-6.766.852l.485 2.277c.956-.25 2.294-.576 2.813-.576.526 0 1.158.346 2.321 1.011.802.459 1.712.978 2.367 1.184.974.307 2.64.266 3.423.209l4.704-3.276a.818.818 0 0 1 .164-.089.39.39 0 0 0 .216-.507.387.387 0 0 0-.48-.219Zm-3.452-1.702c-2.117 0-3.837-1.676-3.939-3.77-2.092-.1-3.769-1.821-3.769-3.939A3.963 3.963 0 0 1 12.625 2c2.117 0 3.837 1.676 3.939 3.77 2.093.1 3.769 1.82 3.769 3.938a3.962 3.962 0 0 1-3.959 3.959Zm-3.75-10a2.294 2.294 0 0 0-2.29 2.291 2.293 2.293 0 0 0 2.29 2.292c.028 0 .054-.008.081-.01a3.973 3.973 0 0 1 2.202-2.2c0-.027.01-.054.01-.082a2.295 2.295 0 0 0-2.292-2.291Zm3.75 3.75a2.294 2.294 0 0 0-2.291 2.291A2.294 2.294 0 0 0 16.374 12a2.294 2.294 0 0 0 2.293-2.292 2.295 2.295 0 0 0-2.293-2.291Z" clip-rule="evenodd"/></svg>