<svg xmlns="http://www.w3.org/2000/svg" fill="none" viewBox="0 0 24 24"><path fill="#62757E" d="M12.495 21.5h-1.77a6.713 6.713 0 0 1-6.708-6.708V7.63a2.18 2.18 0 0 1 2.762-2.096V4.99a2.18 2.18 0 0 1 2.893-2.052A2.17 2.17 0 0 1 11.715 1.5c.938 0 1.745.596 2.043 1.438.228-.079.465-.123.719-.123 1.192 0 2.166.973 2.166 2.175v4.603a2.18 2.18 0 0 1 2.709.29c.824.824.842 2.156.053 3.007v1.692a5.37 5.37 0 0 1-1.579 3.814l-1.517 1.517a5.37 5.37 0 0 1-3.814 1.578zM6.191 7.033a.597.597 0 0 0-.596.596v7.163a5.13 5.13 0 0 0 5.13 5.13h1.77a3.82 3.82 0 0 0 2.7-1.114l1.518-1.517a3.8 3.8 0 0 0 1.113-2.7V12.82c0-.369.15-.71.404-.974a.593.593 0 0 0 0-.833c-.22-.228-.614-.219-.833 0a2.57 2.57 0 0 0-.754 1.798v1.324a.786.786 0 0 1-.79.789 3.1 3.1 0 0 0-1.315.29 3 3 0 0 0-.912.64.789.789 0 0 1-1.113-1.114q.603-.604 1.377-.956a4.6 4.6 0 0 1 1.183-.368V4.998a.595.595 0 0 0-.587-.596.59.59 0 0 0-.588.596v5.849c0 .438-.35.789-.789.789a.786.786 0 0 1-.789-.79V3.684a.597.597 0 0 0-1.193 0V4.99l.07 5.19a.79.79 0 0 1-.78.798c-.464-.017-.789-.342-.798-.78l-.07-5.19a.597.597 0 0 0-.587-.606.597.597 0 0 0-.596.596v6.506c0 .439-.351.79-.79.79a.786.786 0 0 1-.789-.79V7.63a.595.595 0 0 0-.587-.596z"/></svg>