<svg xmlns="http://www.w3.org/2000/svg" fill="none" viewBox="0 0 24 24"><path fill="#62757E" fill-rule="evenodd" d="M21.162 11.167H7.746a.84.84 0 0 1-.838-.834v-7.5A.84.84 0 0 1 7.746 2h13.416a.84.84 0 0 1 .838.833v7.5a.84.84 0 0 1-.838.834m-.839-7.5H8.585V9.5h11.738zm-9.41 3.574c.148.159.24.376.24.592a.88.88 0 0 1-.24.592c-.157.15-.468.242-.69.242a.85.85 0 0 1-.587-.242.84.84 0 0 1-.213-.592c0-.216.064-.433.213-.592.314-.308.972-.308 1.277 0m3.543-2.764c.925 0 1.651.915 1.651 2.083s-.726 2.083-1.651 2.083c-.926 0-1.651-.915-1.651-2.083s.725-2.083 1.65-2.083m4.767.264c.148.159.24.375.24.592a.88.88 0 0 1-.24.592.87.87 0 0 1-.586.242.86.86 0 0 1-.586-.242.88.88 0 0 1-.24-.592.88.88 0 0 1 .24-.592c.313-.308.866-.308 1.172 0m-8.397 8.124a1 1 0 0 1 .16.042l4.719 1.764.02.012.02.005c.32.139.58.358.782.616l2.378-1.42c.02-.011.041-.011.06-.021.02-.01.032-.026.052-.034a2.03 2.03 0 0 1 2.652 1.135 2.066 2.066 0 0 1-1.028 2.634l-4.779 3.358a.8.8 0 0 1-.392.146c-.053.005-.69.065-1.513.065-.86 0-1.924-.065-2.743-.326-.818-.26-1.802-.827-2.67-1.328-.549-.316-1.302-.75-1.53-.794-.282.003-1.865.391-3.14.751a.82.82 0 0 1-.65-.09.83.83 0 0 1-.38-.54l-.825-3.908a.833.833 0 0 1 .581-.976c5.336-1.523 8.11-1.11 8.226-1.091m-6.549 4.768c.947-.251 2.273-.577 2.788-.577.52 0 1.146.346 2.298 1.01.796.459 1.698.979 2.347 1.185.966.307 2.615.266 3.391.209l4.663-3.277a1 1 0 0 1 .162-.088.39.39 0 0 0 .212-.506.383.383 0 0 0-.474-.22L16.932 17q-.04.196-.12.387a2.04 2.04 0 0 1-1.875 1.245c-.268 0-.54-.055-.802-.168l-4.159-1.513a.835.835 0 0 1-.495-1.067.823.823 0 0 1 1.057-.5l4.203 1.531c.241.103.47.012.553-.187a.39.39 0 0 0-.2-.508L10.5 14.503c-.41-.042-2.678-.205-6.704.852z" clip-rule="evenodd"/></svg>