<svg xmlns="http://www.w3.org/2000/svg" fill="none" viewBox="0 0 24 24"><path fill="url(#a)" d="M17.595 2c-2.312 0-4.198 1.835-4.26 4.084v4.557c-.425 0-.851.06-1.338.06s-.913 0-1.339.058V6.084c0-2.25-1.947-4.084-4.32-4.025-2.251 0-4.077 1.835-4.138 4.025v10.89c.061 2.249 1.947 4.084 4.32 4.025 2.313-.06 4.138-1.835 4.138-4.025v-4.557c.426 0 .852-.06 1.34-.06.486 0 .912 0 1.338-.059v4.617c.06 2.249 1.947 4.084 4.32 4.024 2.312-.059 4.138-1.834 4.138-4.024V6.084c0-2.25-1.886-4.084-4.199-4.084M6.46 3.657c1.4 0 2.495 1.066 2.495 2.427v4.794a15.4 15.4 0 0 0-3.59 1.006c-.487.237-.974.473-1.4.829v-6.63c0-1.301 1.095-2.426 2.495-2.426m2.495 13.317c0 1.361-1.096 2.427-2.495 2.427s-2.495-1.066-2.495-2.427v-1.065c0-.947.79-1.894 2.13-2.427.912-.414 1.886-.651 2.92-.829zm8.64 2.427c-1.4 0-2.495-1.066-2.495-2.427V12.18a15.4 15.4 0 0 0 3.59-1.006c.487-.237.974-.474 1.4-.829v6.629c0 1.361-1.156 2.427-2.495 2.427m.365-9.766c-.912.414-1.886.651-2.92.829v-4.38c0-1.361 1.095-2.427 2.494-2.427s2.495 1.066 2.495 2.427v1.065c.061 1.006-.73 1.894-2.069 2.486"/><defs><linearGradient id="a" x1="11.997" x2="-1.137" y1="2" y2="15.504" gradientUnits="userSpaceOnUse"><stop stop-color="#00E8A2"/><stop offset="1" stop-color="#00ADE8"/></linearGradient></defs></svg>