<svg xmlns="http://www.w3.org/2000/svg" fill="none" viewBox="0 0 24 24"><path fill="url(#a)" d="M17.595 2c-2.312 0-4.199 1.835-4.26 4.084v4.557c-.425 0-.851.06-1.338.06-.487 0-.913 0-1.339.058V6.084c0-2.25-1.947-4.084-4.32-4.025-2.252 0-4.077 1.835-4.138 4.025v10.89c.06 2.249 1.947 4.084 4.32 4.025 2.313-.06 4.138-1.835 4.138-4.025v-4.557c.426 0 .852-.06 1.339-.06s.913 0 1.338-.059v4.617c.061 2.249 1.948 4.084 4.32 4.024 2.313-.059 4.139-1.834 4.139-4.024V6.084c0-2.25-1.887-4.084-4.199-4.084ZM6.459 3.657c1.4 0 2.495 1.066 2.495 2.427v4.794a15.428 15.428 0 0 0-3.59 1.006c-.487.237-.973.473-1.4.829v-6.63c0-1.301 1.096-2.426 2.495-2.426Zm2.495 13.317c0 1.361-1.095 2.427-2.495 2.427-1.4 0-2.494-1.066-2.494-2.427v-1.065c0-.947.79-1.894 2.13-2.427.912-.414 1.886-.651 2.92-.829l-.06 4.321Zm8.641 2.427c-1.4 0-2.495-1.066-2.495-2.427V12.18a15.427 15.427 0 0 0 3.59-1.006c.487-.237.974-.474 1.4-.829v6.629c0 1.361-1.156 2.427-2.495 2.427Zm.365-9.766c-.913.414-1.886.651-2.92.829v-4.38c0-1.361 1.095-2.427 2.494-2.427 1.4 0 2.495 1.066 2.495 2.427v1.065c.06 1.006-.73 1.894-2.069 2.486Z"/><defs><linearGradient id="a" x1="11.997" x2="-1.138" y1="2" y2="15.504" gradientUnits="userSpaceOnUse"><stop stop-color="#00E8A2"/><stop offset="1" stop-color="#00ADE8"/></linearGradient></defs></svg>