<svg xmlns="http://www.w3.org/2000/svg" fill="none" viewBox="0 0 24 24"><path fill="#62757E" fill-rule="evenodd" d="M20.333 21.333h-1.666c-.92 0-1.667-.747-1.667-1.666v-5c0-.919.747-1.666 1.667-1.666h1.666V13c0-4.595-3.738-8.333-8.333-8.333S3.667 8.405 3.667 13h1.666C6.253 13 7 13.749 7 14.669v4.999c0 .919-.747 1.666-1.667 1.666H3.667c-.92 0-1.667-.747-1.667-1.666V13C2 7.486 6.486 3 12 3s10 4.486 10 10v6.667c0 .919-.747 1.666-1.667 1.666M3.667 19.667H5.33l.002-5H3.667zm15-5v5h1.664l.002-5z" clip-rule="evenodd"/></svg>