<svg xmlns="http://www.w3.org/2000/svg" fill="none" viewBox="0 0 24 24"><path fill="#62757E" fill-rule="evenodd" d="M18.623 12.052a8.7 8.7 0 0 1-2.065 3.3l.794 5.702a.82.82 0 0 1-.203.661.86.86 0 0 1-.643.285H9.893a.86.86 0 0 1-.724-.392l-.816-1.275H6.618c-1.118 0-2.064-.817-2.199-1.9l-.426-3.36-1.404-.447a.85.85 0 0 1-.52-.462.82.82 0 0 1 .012-.685l1.626-3.38v-.822C3.707 5.198 7.067 2 11.359 2c.472 0 .854.373.854.833s-.382.834-.854.834c-3.334 0-5.946 2.464-5.946 5.61v1.008l-.003.016c0 .055-.021.109-.035.165-.011.053-.016.109-.04.158q0 .008-.002.015l-1.297 2.695 1.002.319c.314.1.541.369.581.689l.494 3.887c.031.25.248.438.505.438h2.209a.86.86 0 0 1 .723.391l.816 1.275h5.163l-.722-5.184a.83.83 0 0 1 .308-.759c.01-.008 1.263-1.035 1.888-2.866a.863.863 0 0 1 1.08-.526.83.83 0 0 1 .54 1.054M14.8 6.167c1.435 0 2.56.915 2.56 2.083 0 .93-.717 1.69-1.732 1.966.007.04.025.076.025.117v.834c0 .46-.382.833-.853.833a.844.844 0 0 1-.854-.833v-.834h-.853a.844.844 0 0 1-.854-.833c0-.46.383-.833.854-.833H14.8c.529 0 .853-.27.853-.417s-.324-.417-.853-.417c-1.436 0-2.56-.915-2.56-2.083 0-.93.717-1.69 1.73-1.966-.006-.04-.024-.076-.024-.117v-.834c0-.46.383-.833.854-.833.47 0 .853.373.853.833v.834h.853c.471 0 .853.373.853.833s-.382.833-.853.833H14.8c-.53 0-.854.27-.854.417s.325.417.854.417" clip-rule="evenodd"/></svg>