<svg xmlns="http://www.w3.org/2000/svg" fill="none" viewBox="0 0 24 24"><path fill="#62757E" fill-rule="evenodd" d="m17.838 8.186-.002.046v.457c.002.107-.012.728-.478 1.2-.211.214-.589.47-1.194.47-1.078 0-1.66-.834-1.66-1.619v-.45q.001-.056-.002-.103c-.766-.597-1.676-1.5-1.676-2.758C12.826 3.54 14.323 2 16.164 2S19.5 3.538 19.5 5.43c0 1.353-1.1 2.32-1.662 2.756m-1.674-4.52c-.923 0-1.672.791-1.672 1.763 0 .454.386.963 1.181 1.555q.048.036.09.077c.33.328.4.811.407 1.108.008-.399.107-.909.508-1.195.773-.577 1.156-1.085 1.156-1.545 0-.972-.749-1.762-1.67-1.762m-5.837 0c-2.848 0-4.996 2.412-4.996 5.61v1.009l-.003.016c-.001.055-.02.107-.033.162-.012.055-.017.111-.04.161-.002.005 0 .011-.003.016l-1.265 2.693.978.32c.307.1.528.369.568.69l.481 3.886c.031.25.243.438.495.438h2.153c.287 0 .554.148.706.391l.797 1.275h5.039l-.705-5.184a.83.83 0 0 1 .242-.706c.009-.009.879-.873 1.596-2.065a.832.832 0 1 1 1.427.859 13.6 13.6 0 0 1-1.56 2.084l.779 5.733a.836.836 0 0 1-.826.946H9.703a.83.83 0 0 1-.706-.392L8.2 20.333H6.51a2.165 2.165 0 0 1-2.148-1.9l-.416-3.36-1.37-.447a.83.83 0 0 1-.497-1.147l1.587-3.38v-.822C3.665 5.197 6.592 2 10.327 2a.833.833 0 1 1 0 1.667" clip-rule="evenodd"/></svg>