<svg xmlns="http://www.w3.org/2000/svg" fill="none" viewBox="0 0 24 24"><path fill="#62757E" fill-rule="evenodd" d="M16.166 5.333h1.667l-4.167 5.834L14.5 7h-1.667l1.745-5h4.088zM11.14 3.667c-3.256 0-5.807 2.464-5.807 5.61v1.008l-.003.015c0 .057-.02.112-.034.167-.012.053-.016.108-.038.157q-.001.008-.004.015l-1.266 2.695.979.319c.306.1.529.369.568.69l.48 3.886a.5.5 0 0 0 .495.438h2.156c.288 0 .555.148.708.391l.796 1.275h5.042l-.704-5.184a.83.83 0 0 1 .24-.706c.018-.016 1.666-1.656 2.294-3.54a.833.833 0 1 1 1.581.527c-.585 1.757-1.837 3.263-2.41 3.892l.779 5.732a.832.832 0 0 1-.826.946H9.708A.84.84 0 0 1 9 21.608l-.796-1.275H6.51a2.17 2.17 0 0 1-2.148-1.899l-.416-3.36-1.372-.448a.835.835 0 0 1-.496-1.147l1.588-3.38v-.822C3.666 5.198 6.95 2 11.14 2a.833.833 0 1 1 0 1.667" clip-rule="evenodd"/></svg>