<svg xmlns="http://www.w3.org/2000/svg" fill="none" viewBox="0 0 24 24"><path fill="#62757E" fill-rule="evenodd" d="M20.969 7.33a.434.434 0 0 1-.407.322h-.014l-.601-.025-.02-.002a.727.727 0 0 0-.526.265l-.38.426a.75.75 0 0 0-.217.573l.076.705c.021.19-.11.39-.291.444l-.796.245a.333.333 0 0 1-.107.016.434.434 0 0 1-.378-.223l-.327-.633a.766.766 0 0 0-.5-.357l-.478-.119a.718.718 0 0 0-.602.09l-.396.292a.405.405 0 0 1-.242.077.424.424 0 0 1-.285-.107l-.607-.572a.44.44 0 0 1-.067-.53l.272-.431a.69.69 0 0 0 .038-.603s-.019-.041-.076-.236c-.063-.203-.07-.273-.07-.273a.694.694 0 0 0-.366-.482l-.471-.209a.437.437 0 0 1-.237-.477l.188-.815a.433.433 0 0 1 .403-.322h.019l.529.023h.015a.74.74 0 0 0 .533-.262l.239-.268a.785.785 0 0 0 .213-.583l-.062-.574a.433.433 0 0 1 .288-.445l.798-.244a.433.433 0 0 1 .486.206l.226.436c.087.169.313.32.5.336l.469.087a.777.777 0 0 0 .603-.11l.463-.342a.411.411 0 0 1 .243-.076.42.42 0 0 1 .285.109l.608.572c.138.13.167.366.065.528l-.247.395a.664.664 0 0 0-.026.597s.078.148.153.404l.05.153c.03.172.196.377.37.454l.616.272c.172.075.279.29.237.476l-.19.817ZM17.06 4.48a1.667 1.667 0 1 0 .001 3.334 1.667 1.667 0 0 0 0-3.334Zm-5.92-.813c-3.257 0-5.808 2.464-5.808 5.61v1.008c0 .006-.003.01-.003.016 0 .056-.02.11-.033.166-.013.053-.017.108-.038.157-.003.005-.002.01-.005.015L3.99 13.334l.978.319c.307.1.529.369.568.689l.482 3.887c.03.25.242.438.493.438h2.157c.286 0 .554.148.706.391l.797 1.275h5.042l-.705-5.184a.835.835 0 0 1 .24-.706c.01-.009.88-.873 1.598-2.066a.834.834 0 0 1 1.428.86 13.673 13.673 0 0 1-1.561 2.085l.779 5.732a.83.83 0 0 1-.825.946H9.708A.835.835 0 0 1 9 21.608l-.797-1.275H6.51a2.165 2.165 0 0 1-2.147-1.9l-.416-3.36-1.372-.447a.835.835 0 0 1-.496-1.147l1.588-3.38v-.822C3.667 5.197 6.949 2 11.14 2a.833.833 0 0 1 0 1.667Z" clip-rule="evenodd"/></svg>