<svg xmlns="http://www.w3.org/2000/svg" fill="none" viewBox="0 0 24 24"><path fill="#62757E" fill-rule="evenodd" d="M16.608 9.493h-.245c-.827.949-2.32 1.188-2.51 1.214a.834.834 0 0 1-.77-1.343c.178-.224.412-.599.548-.935-.842-.552-1.58-1.509-1.58-2.682 0-2.052 2.043-3.721 4.557-3.721s4.559 1.669 4.559 3.72c0 2.067-2.045 3.747-4.56 3.747m0-5.8c-1.567 0-2.892.94-2.892 2.054 0 .65.601 1.241 1.165 1.467a.83.83 0 0 1 .524.774v.025a.84.84 0 0 1 .526-.186h.677c1.567 0 2.892-.953 2.892-2.08 0-1.114-1.325-2.054-2.892-2.054m-6.457-.026c-2.656 0-4.817 2.516-4.817 5.61v1.008l-.004.016c0 .055-.02.108-.033.164-.012.053-.017.11-.039.16l-.004.015-1.263 2.693.977.32c.308.1.53.369.57.69l.48 3.886c.03.25.243.438.494.438h2.157c.287 0 .554.148.707.391l.796 1.275h5.043l-.705-5.184a.83.83 0 0 1 .219-.684c.01-.012 1.09-1.162 1.819-2.373a.833.833 0 1 1 1.428.858c-.592.986-1.36 1.903-1.763 2.36l.781 5.744a.832.832 0 0 1-.826.946H9.708a.83.83 0 0 1-.707-.392l-.796-1.275H6.51a2.17 2.17 0 0 1-2.149-1.899l-.415-3.362-1.37-.446a.833.833 0 0 1-.497-1.147l1.587-3.38v-.822C3.666 5.264 6.576 2 10.151 2a.833.833 0 0 1 0 1.667" clip-rule="evenodd"/></svg>