<svg xmlns="http://www.w3.org/2000/svg" fill="none" viewBox="0 0 24 24"><path fill="#62757E" fill-rule="evenodd" d="M16.183 22H9.708a.83.83 0 0 1-.78-.54l-.43-1.143-2.328-.07a1 1 0 0 1-.115-.011 1.98 1.98 0 0 1-1.636-1.704l-.396-3.454-1.439-.45a.836.836 0 0 1-.505-1.15L3.667 10.1v-.823c0-3.972 3.175-7.155 7.24-7.273A1 1 0 0 1 11.003 2c4.225.091 7.664 3.354 7.664 7.275 0 .938-.307 1.988-.32 2.032-.556 1.862-1.704 3.362-2.239 3.991l.857 5.58A.83.83 0 0 1 16.183 22m-5.898-1.667h4.91l-.794-5.169a.84.84 0 0 1 .222-.704c.015-.016 1.523-1.606 2.127-3.627 0-.004.25-.863.25-1.558 0-2.954-2.731-5.51-5.978-5.606h-.019c-3.18.068-5.67 2.531-5.67 5.608v1.01a.8.8 0 0 1-.079.353l-1.26 2.683 1.044.327a.84.84 0 0 1 .58.7l.457 3.992c.013.112.1.207.219.241l2.814.084c.338.01.637.224.755.54z" clip-rule="evenodd"/></svg>