<svg xmlns="http://www.w3.org/2000/svg" fill="none" viewBox="0 0 24 24"><path fill="#62757E" fill-rule="evenodd" d="M20.922 10.923a.83.83 0 0 1-1.178 0l-2.006-2.006a3.7 3.7 0 0 1-1.988.583A3.754 3.754 0 0 1 12 5.75 3.754 3.754 0 0 1 15.75 2a3.754 3.754 0 0 1 3.75 3.75c0 .732-.22 1.41-.583 1.988l2.005 2.006a.83.83 0 0 1 0 1.178M15.75 3.666a2.086 2.086 0 0 0-2.083 2.083c0 1.148.935 2.083 2.083 2.083a2.086 2.086 0 0 0 2.083-2.083 2.086 2.086 0 0 0-2.083-2.083m-5.695 0c-1.902 0-4.721 2.356-4.721 5.61v1.008l-.003.016c-.001.055-.021.109-.034.164-.012.054-.017.11-.038.16l-.005.015-1.264 2.694.978.32c.308.1.529.369.569.69l.48 3.886a.5.5 0 0 0 .494.438h2.157c.287 0 .554.148.707.391l.797 1.275h5.041l-.704-5.184a.83.83 0 0 1 .262-.726c.013-.012 1.392-1.285 2.105-2.47a.835.835 0 0 1 1.428.86c-.614 1.02-1.586 2.038-2.086 2.532l.775 5.71a.832.832 0 0 1-.826.945H9.708a.83.83 0 0 1-.706-.392l-.797-1.275H6.51a2.17 2.17 0 0 1-2.148-1.899l-.416-3.362-1.371-.446a.832.832 0 0 1-.496-1.147l1.588-3.38v-.822C3.667 5.179 7.101 2 10.055 2a.833.833 0 1 1 0 1.667" clip-rule="evenodd"/></svg>