<svg xmlns="http://www.w3.org/2000/svg" fill="none" viewBox="0 0 24 24"><path fill="#62757E" fill-rule="evenodd" d="M7.687 5.1C5.51 5.1 3.8 6.787 3.8 8.8c0 3.274 2.05 6.076 4.245 8.122A23.6 23.6 0 0 0 12 19.88a23.6 23.6 0 0 0 3.954-2.957C18.15 14.875 20.2 12.074 20.2 8.8c0-2.013-1.71-3.7-3.887-3.7-1.623 0-2.997.943-3.582 2.259a.8.8 0 0 1-1.462 0C10.684 6.043 9.31 5.1 7.687 5.1M12 20.8l-.376.706-.003-.001-.006-.004-.023-.012a11 11 0 0 1-.384-.219 25.2 25.2 0 0 1-4.253-3.177C4.65 15.945 2.2 12.746 2.2 8.8c0-2.958 2.488-5.3 5.487-5.3 1.742 0 3.304.786 4.313 2.022A5.55 5.55 0 0 1 16.313 3.5c2.999 0 5.487 2.342 5.487 5.3 0 3.946-2.45 7.145-4.755 9.293a25.2 25.2 0 0 1-4.253 3.177 15 15 0 0 1-.384.219l-.023.012-.006.004h-.003zm0 0 .375.706a.8.8 0 0 1-.75 0z" clip-rule="evenodd"/></svg>