<svg xmlns="http://www.w3.org/2000/svg" fill="none" viewBox="0 0 24 24"><path fill="#62757E" fill-rule="evenodd" d="M3.8 8.8c0-2.013 1.71-3.7 3.887-3.7 1.388 0 2.593.69 3.279 1.71l-2.68 2.686a1.86 1.86 0 0 0 0 2.63l.552.553a2.635 2.635 0 0 0 3.73 0l1.018-1.019a2.396 2.396 0 0 1 3.391 0l1.831 1.819a14 14 0 0 1-1.116 1.591l-1.817-1.796a.84.84 0 0 0-1.187 0 .84.84 0 0 0 0 1.189l1.882 1.86q-.305.31-.616.6-.406.377-.805.714l-1.817-1.815a.84.84 0 0 0-1.187 0 .84.84 0 0 0 0 1.189l1.763 1.603A24 24 0 0 1 12 19.88a23.6 23.6 0 0 1-3.955-2.957C5.85 14.875 3.8 12.074 3.8 8.8m15.79 3.1c.383-.974.61-2.011.61-3.1 0-2.013-1.71-3.7-3.887-3.7-1.623 0-2.997.943-3.582 2.259a.8.8 0 0 1-.259.32l-2.999 3.006a.18.18 0 0 0 0 .252l.552.553a.96.96 0 0 0 1.357 0l1.017-1.019a4.07 4.07 0 0 1 5.765 0zm-7.966 9.606L12 20.8l.375.706a.8.8 0 0 1-.75 0m0 0L12 20.8l.376.706.003-.001.006-.004.023-.012a11 11 0 0 0 .384-.219 25.2 25.2 0 0 0 4.253-3.177C19.35 15.945 21.8 12.746 21.8 8.8c0-2.958-2.488-5.3-5.488-5.3A5.55 5.55 0 0 0 12 5.522 5.55 5.55 0 0 0 7.687 3.5c-3 0-5.487 2.342-5.487 5.3 0 3.946 2.45 7.145 4.754 9.293a25.2 25.2 0 0 0 4.254 3.177 15 15 0 0 0 .384.219l.023.012.006.004z" clip-rule="evenodd"/></svg>