<svg xmlns="http://www.w3.org/2000/svg" fill="none" viewBox="0 0 24 24"><path fill="#62757E" fill-rule="evenodd" d="M3.8 8.8c0-2.013 1.71-3.7 3.887-3.7 1.393 0 2.601.694 3.286 1.722L8.3 10.332a.8.8 0 0 0 .27 1.196l4.606 2.377-2.343 1.66a.8.8 0 0 0-.329.767l.409 2.858a23.6 23.6 0 0 1-2.867-2.268C5.85 14.877 3.8 12.075 3.8 8.8m8.776 10.726q.18-.114.387-.252a23.6 23.6 0 0 0 2.992-2.352C18.15 14.877 20.2 12.075 20.2 8.8c0-2.013-1.71-3.7-3.887-3.7-1.623 0-2.997.943-3.582 2.259a.8.8 0 0 1-.2.273l-2.381 2.911 4.927 2.543a.8.8 0 0 1 .096 1.364l-3.017 2.139zm-.952 1.98L12 20.8l.375.706a.8.8 0 0 1-.75 0m0 0L12 20.8l.376.706.003-.001.006-.004.023-.012a11 11 0 0 0 .384-.219 25.2 25.2 0 0 0 4.253-3.177C19.35 15.945 21.8 12.746 21.8 8.8c0-2.958-2.488-5.3-5.488-5.3A5.55 5.55 0 0 0 12 5.522 5.55 5.55 0 0 0 7.687 3.5c-3 0-5.487 2.342-5.487 5.3 0 3.946 2.45 7.145 4.754 9.293a25.2 25.2 0 0 0 4.254 3.177 15 15 0 0 0 .384.219l.023.012.006.004z" clip-rule="evenodd"/></svg>