<svg xmlns="http://www.w3.org/2000/svg" fill="none" viewBox="0 0 24 24"><path fill="#62757E" fill-rule="evenodd" d="M7.687 4.55C5.51 4.55 3.8 6.237 3.8 8.25c0 3.274 2.05 6.076 4.245 8.122A23.622 23.622 0 0 0 12 19.33a23.625 23.625 0 0 0 3.954-2.957c2.196-2.048 4.246-4.85 4.246-8.123 0-2.013-1.71-3.7-3.887-3.7-1.623 0-2.997.943-3.582 2.259a.8.8 0 0 1-1.462 0c-.585-1.316-1.959-2.26-3.582-2.26ZM12 20.25l-.376.706-.003-.001-.006-.004-.023-.012a10.633 10.633 0 0 1-.384-.219 25.226 25.226 0 0 1-4.253-3.177C4.65 15.395 2.2 12.196 2.2 8.25c0-2.958 2.488-5.3 5.487-5.3A5.55 5.55 0 0 1 12 4.972a5.552 5.552 0 0 1 4.313-2.022c2.999 0 5.487 2.342 5.487 5.3 0 3.946-2.45 7.145-4.755 9.293a25.223 25.223 0 0 1-4.253 3.177 15.056 15.056 0 0 1-.384.219l-.023.012-.006.004h-.003L12 20.25Zm0 0 .375.706a.801.801 0 0 1-.75 0L12 20.25Z" clip-rule="evenodd"/></svg>