<svg xmlns="http://www.w3.org/2000/svg" fill="none" viewBox="0 0 24 24"><path fill="currentColor" fill-rule="evenodd" d="M7.687 4.55C5.51 4.55 3.8 6.237 3.8 8.25c0 3.274 2.05 6.076 4.245 8.122A23.624 23.624 0 0 0 12 19.33a23.627 23.627 0 0 0 3.954-2.957c2.196-2.048 4.246-4.85 4.246-8.123 0-2.013-1.71-3.7-3.887-3.7-1.623 0-2.997.943-3.582 2.259a.8.8 0 0 1-1.462 0C10.684 5.493 9.31 4.55 7.687 4.55ZM12 20.25c-.375.707-.376.706-.376.706l-.003-.001-.006-.004-.023-.012a15.464 15.464 0 0 1-.384-.219 25.224 25.224 0 0 1-4.253-3.177C4.65 15.395 2.2 12.196 2.2 8.25c0-2.958 2.488-5.3 5.487-5.3 1.742 0 3.304.786 4.313 2.022a5.552 5.552 0 0 1 4.313-2.022c2.999 0 5.487 2.342 5.487 5.3 0 3.946-2.45 7.145-4.755 9.293a25.22 25.22 0 0 1-4.253 3.177 15.464 15.464 0 0 1-.384.219l-.023.012-.006.004h-.003L12 20.25Zm0 0 .375.707a.801.801 0 0 1-.75 0L12 20.25Z" clip-rule="evenodd"/></svg>