<svg xmlns="http://www.w3.org/2000/svg" fill="none" viewBox="0 0 24 24"><path fill="#46464A" fill-rule="evenodd" d="M3.8 8.8c0-2.013 1.71-3.7 3.887-3.7 1.393 0 2.601.694 3.286 1.722L8.3 10.332a.8.8 0 0 0 .27 1.196l4.606 2.377-2.343 1.66a.8.8 0 0 0-.329.767l.409 2.858a23.573 23.573 0 0 1-2.867-2.268C5.85 14.877 3.8 12.075 3.8 8.8Zm8.776 10.726a23.636 23.636 0 0 0 3.379-2.604C18.15 14.877 20.2 12.075 20.2 8.8c0-2.013-1.71-3.7-3.887-3.7-1.623 0-2.997.943-3.582 2.259a.799.799 0 0 1-.2.273l-2.381 2.911 4.927 2.543a.8.8 0 0 1 .096 1.364l-3.017 2.139.42 2.937Zm-.952 1.98L12 20.8l.375.706a.801.801 0 0 1-.75 0Zm0 0L12 20.8l.376.706.003-.001.006-.004.023-.012a10.633 10.633 0 0 0 .384-.219 25.22 25.22 0 0 0 4.253-3.177C19.35 15.945 21.8 12.746 21.8 8.8c0-2.958-2.488-5.3-5.488-5.3A5.552 5.552 0 0 0 12 5.522 5.552 5.552 0 0 0 7.687 3.5c-3 0-5.487 2.342-5.487 5.3 0 3.946 2.45 7.145 4.754 9.293a25.224 25.224 0 0 0 4.254 3.177 15.056 15.056 0 0 0 .384.219l.023.012.006.004.003.001Z" clip-rule="evenodd"/></svg>