<svg xmlns="http://www.w3.org/2000/svg" fill="none" viewBox="0 0 24 24"><path fill="#62757E" fill-rule="evenodd" d="M12 22C6.486 22 2 17.514 2 12S6.486 2 12 2s10 4.486 10 10-4.486 10-10 10m0-18.333c-4.595 0-8.333 3.738-8.333 8.333S7.405 20.333 12 20.333s8.333-3.738 8.333-8.333S16.595 3.667 12 3.667m1.99 8.62c-1.207.977-1.162 2.06-1.16 2.105a.84.84 0 0 1-.832.887.826.826 0 0 1-.828-.752c-.007-.08-.152-1.978 1.772-3.536.535-.433.725-.813.725-1.448 0-.969-.748-1.757-1.667-1.757-.95 0-1.667.716-1.667 1.667a.833.833 0 1 1-1.666 0A3.3 3.3 0 0 1 12 6.12c1.838 0 3.333 1.535 3.333 3.423 0 1.145-.414 1.992-1.342 2.744m-1.853 3.868c.454.078.762.486.684.94l-.008.047a.834.834 0 0 1-1.642-.284c.078-.453.51-.782.966-.703" clip-rule="evenodd"/></svg>