<svg xmlns="http://www.w3.org/2000/svg" fill="none" viewBox="0 0 24 24"><path fill="#62757E" fill-rule="evenodd" d="M12 22C6.486 22 2 17.514 2 12S6.486 2 12 2s10 4.486 10 10-4.486 10-10 10m.83-7.608c-.002-.045-.047-1.128 1.16-2.105.93-.752 1.343-1.599 1.343-2.745 0-1.887-1.495-3.422-3.333-3.422a3.3 3.3 0 0 0-3.333 3.333.833.833 0 1 0 1.666 0c0-.95.717-1.667 1.667-1.667.92 0 1.667.788 1.667 1.756 0 .636-.19 1.016-.725 1.449-1.924 1.558-1.779 3.456-1.772 3.536a.826.826 0 0 0 .89.75.84.84 0 0 0 .77-.885m-.01 2.703c.08-.454-.23-.862-.683-.94-.455-.08-.888.25-.966.703a.833.833 0 1 0 1.642.284z" clip-rule="evenodd"/></svg>