<svg xmlns="http://www.w3.org/2000/svg" fill="none" viewBox="0 0 24 24"><g clip-path="url(#a)"><path fill="url(#b)" d="m6.826 20.59-1.343-2.404a.33.33 0 0 1 .002-.283l1.49-2.667a.3.3 0 0 1 .24-.141h2.98c.086 0 .196.066.24.141l1.49 2.67a.33.33 0 0 1 0 .284l-1.49 2.669A.3.3 0 0 1 10.2 21H7.52a.9.9 0 0 1-.693-.41m9.685-5.491L13.54 9.78a.42.42 0 0 0-.327-.194h-5.94a.42.42 0 0 0-.327.194l-2.97 5.32a.46.46 0 0 0 0 .39l.87 1.56 1.523-2.725a.48.48 0 0 1 .377-.224h3.915c.138 0 .308.102.377.224l1.957 3.504c.07.124.07.326 0 .45L11.475 21h1.74a.42.42 0 0 0 .327-.194l2.97-5.318a.46.46 0 0 0-.001-.39m5.393-3.519-4.56-8.16c-.128-.232-.445-.42-.702-.42H7.524c-.257 0-.574.188-.703.42l-4.558 8.16a.95.95 0 0 0 0 .838l1.044 1.87 3.029-5.422a.59.59 0 0 1 .465-.277h6.88a.59.59 0 0 1 .464.277l3.441 6.157a.63.63 0 0 1 0 .554L14.557 21h2.085c.257 0 .574-.188.704-.42l4.558-8.16a.96.96 0 0 0 0-.84"/></g><defs><linearGradient id="b" x1="7.124" x2="17.54" y1="20.876" y2="3.421" gradientUnits="userSpaceOnUse"><stop offset=".002" stop-color="#FFDC00"/><stop offset=".333" stop-color="#E58E2F"/><stop offset=".667" stop-color="#DB2D72"/><stop offset="1" stop-color="#F0F"/></linearGradient><clipPath id="a"><path fill="#fff" d="M2 3h20v18H2z"/></clipPath></defs></svg>