<svg xmlns="http://www.w3.org/2000/svg" fill="none" viewBox="0 0 24 24"><path fill="#62757E" fill-rule="evenodd" d="M7.962 6.775a1.4 1.4 0 0 0 1.4 1.4H11.2v2.562H8.912a2.8 2.8 0 0 0-2.8 2.8v2.288H4.275a1.4 1.4 0 0 0-1.4 1.4v3.425a1.4 1.4 0 0 0 1.4 1.4H9.55a1.4 1.4 0 0 0 1.4-1.4v-3.425a1.4 1.4 0 0 0-1.4-1.4H7.712v-2.288a1.2 1.2 0 0 1 1.2-1.2h6.175a1.2 1.2 0 0 1 1.2 1.2v2.288H14.45a1.4 1.4 0 0 0-1.4 1.4v3.425a1.4 1.4 0 0 0 1.4 1.4h5.275a1.4 1.4 0 0 0 1.4-1.4v-3.425a1.4 1.4 0 0 0-1.4-1.4h-1.838v-2.288a2.8 2.8 0 0 0-2.8-2.8H12.8V8.175h1.837a1.4 1.4 0 0 0 1.4-1.4V3.35a1.4 1.4 0 0 0-1.4-1.4H9.362a1.4 1.4 0 0 0-1.4 1.4zm1.6-.2V3.55h4.875v3.025zM4.475 20.45v-3.025H9.35v3.025zm10.175-3.025v3.025h4.875v-3.025z" clip-rule="evenodd"/></svg>