<svg xmlns="http://www.w3.org/2000/svg" fill="none" viewBox="0 0 24 24"><path fill="#62757E" fill-rule="evenodd" d="M12.934 3.934a3.629 3.629 0 0 1 5.132 5.132l-10.5 10.5A.8.8 0 0 1 7 19.8H3a.8.8 0 0 1-.8-.8v-4a.8.8 0 0 1 .234-.566L3.93 12.94l.011-.011L11.93 4.94l.005-.006.006-.005zM12.5 6.631 5.631 13.5 8.5 16.369 15.369 9.5zm4 1.738L13.631 5.5l.435-.434a2.028 2.028 0 1 1 2.868 2.868zM7.369 17.5 4.5 14.631l-.7.7V18.2h2.869zm10.045-1.7a.2.2 0 0 0-.141.058l-2 2a.2.2 0 0 0 .141.342H20a.2.2 0 0 0 .2-.2v-2a.2.2 0 0 0-.2-.2zm-1.273-1.073a1.8 1.8 0 0 1 1.273-.527H20a1.8 1.8 0 0 1 1.8 1.8v2a1.8 1.8 0 0 1-1.8 1.8h-4.586c-1.603 0-2.406-1.939-1.273-3.073z" clip-rule="evenodd"/></svg>