<svg xmlns="http://www.w3.org/2000/svg" fill="none" viewBox="0 0 24 24"><path fill="#62757E" fill-rule="evenodd" d="M12.934 3.934a3.628 3.628 0 1 1 5.132 5.132l-10.5 10.5A.8.8 0 0 1 7 19.8H3a.8.8 0 0 1-.8-.8v-4a.8.8 0 0 1 .234-.566l1.494-1.494.006-.006a1.58 1.58 0 0 1 .006-.005l7.99-7.989.005-.006a.263.263 0 0 1 .006-.005l.994-.995ZM12.5 6.631 5.631 13.5 8.5 16.369 15.369 9.5 12.5 6.631Zm4 1.738L13.631 5.5l.435-.434a2.029 2.029 0 0 1 2.868 2.868l-.434.435ZM7.369 17.5 4.5 14.631l-.7.7v2.87h2.869l.7-.701Zm10.045-1.7a.2.2 0 0 0-.141.059l-2 2a.2.2 0 0 0 .141.341H20a.2.2 0 0 0 .2-.2v-2a.2.2 0 0 0-.2-.2h-2.586Zm-1.273-1.073a1.8 1.8 0 0 1 1.273-.527H20a1.8 1.8 0 0 1 1.8 1.8v2a1.8 1.8 0 0 1-1.8 1.8h-4.586c-1.604 0-2.407-1.939-1.273-3.073l2-2Z" clip-rule="evenodd"/></svg>