<svg xmlns="http://www.w3.org/2000/svg" fill="none" viewBox="0 0 24 24"><path fill="#E31337" d="M16.056 13.033a.085.085 0 0 1 .07.12l-3.938 6.807a.084.084 0 0 1-.069.04H9.713a.08.08 0 0 1-.08-.08.08.08 0 0 1 .011-.04l3.937-6.808a.079.079 0 0 1 .068-.04h2.407Zm-2.34-1.952a.085.085 0 0 1-.07-.04L9.645 4.12A.08.08 0 0 1 9.713 4h2.406a.084.084 0 0 1 .07.04l4.002 6.922a.08.08 0 0 1-.068.12h-2.407Z"/><path fill="#E31337" d="M14.192 4.12a.08.08 0 0 1 .073-.12h2.41a.078.078 0 0 1 .068.04l4.589 7.92a.079.079 0 0 1 0 .08l-4.589 7.92a.078.078 0 0 1-.068.04h-2.41a.078.078 0 0 1-.07-.04.08.08 0 0 1 0-.08L18.758 12l-4.565-7.88Zm-1.96 7.84a.084.084 0 0 1 0 .084L7.624 19.96a.084.084 0 0 1-.139 0l-4.66-7.92a.084.084 0 0 1 0-.084L7.432 4.04a.084.084 0 0 1 .139 0l4.66 7.92Z"/></svg>