<svg xmlns="http://www.w3.org/2000/svg" fill="none" viewBox="0 0 24 24"><path fill="#E31337" d="M16.056 13.033a.083.083 0 0 1 .066.041.086.086 0 0 1 .003.078l-3.937 6.809a.084.084 0 0 1-.069.039H9.712a.079.079 0 0 1-.079-.08.08.08 0 0 1 .011-.04l3.937-6.808a.08.08 0 0 1 .068-.04h2.407Zm-2.34-1.952a.084.084 0 0 1-.07-.04L9.645 4.12A.08.08 0 0 1 9.712 4h2.407a.084.084 0 0 1 .07.04l4.002 6.922a.079.079 0 0 1-.029.109.08.08 0 0 1-.04.01h-2.406Z"/><path fill="#E31337" d="M14.192 4.12a.08.08 0 0 1 .073-.12h2.41a.078.078 0 0 1 .068.04l4.589 7.92a.079.079 0 0 1 0 .08l-4.589 7.92a.078.078 0 0 1-.068.04h-2.41a.078.078 0 0 1-.07-.04.08.08 0 0 1 0-.08L18.758 12l-4.565-7.88Zm-1.96 7.84a.084.084 0 0 1 0 .084L7.624 19.96a.084.084 0 0 1-.139 0l-4.66-7.92a.084.084 0 0 1 0-.084L7.432 4.04a.084.084 0 0 1 .139 0l4.66 7.92Z"/></svg>