<svg xmlns="http://www.w3.org/2000/svg" fill="none" viewBox="0 0 24 24"><g clip-path="url(#a)"><path fill="#D59143" d="M12 24c6.627 0 12-5.373 12-12S18.627 0 12 0 0 5.373 0 12s5.373 12 12 12"/><path fill="#fff" d="M7.31 12.188c-.303.24-.573.668-.56 1.322.01.452.253.762.56.972v.808c0 .505.245.978.658 1.267l2.836 1.94V8.586L7.31 9.609zm.76-.239c.59.43.59 2.99.59 2.99s-.666-.065-1.216-.372c.453.153.817.119.976.136h.012l.009.002.022.002.007.001h.008s.094-2.234-.583-2.625c-.11-.038-.303-.016-.517.053.272-.184.557-.246.693-.187m2.98 4.035h1.906V18.5H11.05zm-.433-7.586-3.308.948V5.798a.298.298 0 0 1 .509-.211l2.968 2.98zm.432 3.548h1.907v3.795H11.05zM13.383 8.4l-.123.123 2.922-2.934a.298.298 0 0 1 .509.21v3.548zm-2.333.188h1.906V11.7H11.05zm5.64 3.6V9.61l-3.488-1.02v9.91l2.83-1.943a1.55 1.55 0 0 0 .659-1.266v-.809c.306-.21.55-.52.56-.972.013-.654-.257-1.082-.56-1.322m-1.145 2.557h.008l.007-.001.01-.001h.002l.02-.002h.002l.01-.001.086-.01h.005c.19-.025.424-.022.783-.134l.08-.027c-.551.308-1.216.372-1.216.372s0-2.558.588-2.99c.136-.059.42.003.692.188-.213-.069-.407-.09-.517-.053-.676.391-.56 2.66-.56 2.66z"/></g><defs><clipPath id="a"><path fill="#fff" d="M0 0h24v24H0z"/></clipPath></defs></svg>