<svg xmlns="http://www.w3.org/2000/svg" fill="none" viewBox="0 0 24 24"><g clip-path="url(#a)"><path fill="#D59143" d="M12 24c6.627 0 12-5.373 12-12S18.627 0 12 0 0 5.373 0 12s5.373 12 12 12Z"/><path fill="#fff" d="M7.31 12.188c-.304.24-.574.668-.56 1.322.01.452.253.762.56.972v.808c0 .505.245.978.658 1.267l2.836 1.94V8.586L7.31 9.609v2.579Zm.76-.239c.589.43.589 2.99.589 2.99s-.666-.065-1.215-.372c.453.153.817.119.975.136h.013l.008.002.023.002.007.001h.008s.093-2.234-.583-2.625c-.11-.038-.304-.016-.517.053.272-.184.556-.246.693-.187Zm2.98 4.035h1.906V18.5H11.05v-2.516Zm-.433-7.586-3.308.948V5.798a.298.298 0 0 1 .509-.211l2.968 2.98-.17-.17v.001Zm.432 3.548h1.907v3.795H11.05v-3.795ZM13.383 8.4l-.123.123 2.922-2.934a.298.298 0 0 1 .509.21v3.548L13.383 8.4Zm-2.333.188h1.906V11.7H11.05V8.587Zm5.64 3.6V9.61l-3.489-1.02v9.91l2.83-1.943a1.546 1.546 0 0 0 .66-1.266v-.809c.306-.21.55-.52.559-.972.014-.654-.256-1.082-.56-1.322Zm-1.145 2.557h.008l.007-.001.01-.001h.002l.02-.002h.002l.01-.001.086-.01h.004c.19-.025.425-.022.783-.134l.08-.027c-.55.308-1.216.372-1.216.372s0-2.558.589-2.99c.136-.059.42.003.692.188-.213-.069-.407-.09-.517-.053-.677.391-.56 2.66-.56 2.66v-.001Z"/></g><defs><clipPath id="a"><path fill="#fff" d="M0 0h24v24H0z"/></clipPath></defs></svg>