<svg xmlns="http://www.w3.org/2000/svg" fill="none" viewBox="0 0 24 24"><g clip-path="url(#a)"><path fill="#007F88" d="M2.523 5.015c-.303.024-.536.07-.523.104.12.28.868 1.923.878 1.932.01.01.184.022.388.03.905.033 1.621.205 2.396.576.556.266.968.552 1.396.966a4.67 4.67 0 0 1 1.334 2.316c0 .018-.137.021-.747.021-.411 0-.765.007-.787.015-.033.011-.118.19-.472.978-.238.53-.435.975-.439.99-.012.043.131.081.489.132.073.012.512.024 1.03.03l.904.01-.054.182c-.61 2.004-2.5 3.406-4.815 3.575a8 8 0 0 1-.383.016h-.145l-.446.996c-.382.85-.442.996-.416 1.004.115.041.374.056.973.056.765 0 1.138-.033 1.77-.158 2.577-.514 4.72-2.106 5.689-4.233.187-.41.407-1.083.446-1.365l.012-.081h1.934l.007.036c.14.664.29 1.111.553 1.64.788 1.592 2.265 2.891 4.094 3.605a9 9 0 0 0 3.496.609c.5-.015.898-.07.878-.12-.017-.044-.864-1.931-.87-1.936-.005-.005-.18-.011-.392-.02a6.4 6.4 0 0 1-1.554-.23 6.1 6.1 0 0 1-2.145-1.096c-.746-.61-1.285-1.367-1.57-2.208a3 3 0 0 1-.07-.226l-.012-.053.728-.005c.4-.003.74-.011.753-.018.023-.011.894-1.928.894-1.966 0-.025-.22-.088-.419-.12-.146-.022-.332-.029-1.072-.034l-.896-.008.034-.118c.496-1.707 2.02-3.063 3.986-3.543.434-.106.856-.16 1.404-.182.326-.013.367-.018.388-.044.013-.019.214-.456.445-.973.285-.632.416-.945.404-.953a2.6 2.6 0 0 0-.463-.079 12 12 0 0 0-1.417.007c-2.005.173-3.812.957-5.166 2.239-.827.782-1.407 1.66-1.764 2.675a7 7 0 0 0-.237.853l-.02.121H11.03l-.007-.038-.044-.21c-.28-1.354-1.074-2.67-2.193-3.64C7.51 5.969 5.922 5.277 4.173 5.067a10 10 0 0 0-1.65-.05"/></g><defs><clipPath id="a"><path fill="#fff" d="M2 5h20v14H2z"/></clipPath></defs></svg>