<svg xmlns="http://www.w3.org/2000/svg" fill="none" viewBox="0 0 24 24"><path fill="url(#a)" d="M20.128 6.178 18.49 8.714c.5.986.786 2.105.786 3.286a7.282 7.282 0 0 1-10.559 6.5l-2.532 1.637a9.962 9.962 0 0 0 5.817 1.869c5.524 0 9.998-4.48 9.998-10a9.996 9.996 0 0 0-1.872-5.827Z"/><path fill="url(#b)" d="M11.998 17.009a5.02 5.02 0 0 0 4.938-4.109 11.52 11.52 0 0 0-2.418-.256c-2.496 0-4.804.798-6.689 2.15a5.027 5.027 0 0 0 4.169 2.215Z"/><path fill="#000" d="M14.473 11.732c.875 0 1.726.093 2.548.273a5.022 5.022 0 0 0-5.023-5.025 5.021 5.021 0 0 0-4.979 5.696c-1.266.961-1.864 1.723-1.885 1.747A7.282 7.282 0 0 1 15.27 5.502l2.537-1.641A9.949 9.949 0 0 0 11.997 2C6.475 2 2 6.479 2 12c0 2.224.729 4.276 1.954 5.937a12.09 12.09 0 0 1 1.71-2.362s.985-1.03 1.742-1.547a11.952 11.952 0 0 1 7.067-2.296Z"/><defs><radialGradient id="a" cx="0" cy="0" r="1" gradientTransform="matrix(16.8241 0 0 16.8285 20.128 6.168)" gradientUnits="userSpaceOnUse"><stop offset=".099" stop-color="#26DB8D"/><stop offset=".263" stop-color="#23D29A"/><stop offset=".564" stop-color="#1ABBBB"/><stop offset=".886" stop-color="#0E9DE5"/></radialGradient><radialGradient id="b" cx="0" cy="0" r="1" gradientTransform="matrix(16.8241 0 0 16.8285 20.128 6.168)" gradientUnits="userSpaceOnUse"><stop offset=".099" stop-color="#26DB8D"/><stop offset=".263" stop-color="#23D29A"/><stop offset=".564" stop-color="#1ABBBB"/><stop offset=".886" stop-color="#0E9DE5"/></radialGradient></defs></svg>