<svg xmlns="http://www.w3.org/2000/svg" fill="none" viewBox="0 0 24 24"><path fill="url(#a)" d="M20.128 6.178 18.49 8.714c.5.986.786 2.105.786 3.286a7.282 7.282 0 0 1-10.559 6.5l-2.532 1.637a9.96 9.96 0 0 0 5.817 1.869c5.524 0 9.998-4.48 9.998-10a10 10 0 0 0-1.872-5.827"/><path fill="url(#b)" d="M11.998 17.009a5.02 5.02 0 0 0 4.938-4.109 11.5 11.5 0 0 0-2.419-.256c-2.495 0-4.803.798-6.688 2.15a5.03 5.03 0 0 0 4.169 2.215"/><path fill="#000" d="M14.473 11.732q1.314.002 2.548.273a5.02 5.02 0 0 0-5.023-5.025 5.02 5.02 0 0 0-4.979 5.696c-1.266.961-1.864 1.723-1.884 1.747A7.282 7.282 0 0 1 15.27 5.502l2.536-1.641A9.95 9.95 0 0 0 11.997 2C6.475 2 2 6.479 2 12c0 2.224.729 4.276 1.954 5.937a12 12 0 0 1 1.71-2.362s.985-1.03 1.742-1.547a11.95 11.95 0 0 1 7.067-2.296"/><defs><radialGradient id="a" cx="0" cy="0" r="1" gradientTransform="matrix(16.8241 0 0 16.8285 20.128 6.168)" gradientUnits="userSpaceOnUse"><stop offset=".099" stop-color="#26DB8D"/><stop offset=".263" stop-color="#23D29A"/><stop offset=".564" stop-color="#1ABBBB"/><stop offset=".886" stop-color="#0E9DE5"/></radialGradient><radialGradient id="b" cx="0" cy="0" r="1" gradientTransform="matrix(16.8241 0 0 16.8285 20.128 6.168)" gradientUnits="userSpaceOnUse"><stop offset=".099" stop-color="#26DB8D"/><stop offset=".263" stop-color="#23D29A"/><stop offset=".564" stop-color="#1ABBBB"/><stop offset=".886" stop-color="#0E9DE5"/></radialGradient></defs></svg>