<svg xmlns="http://www.w3.org/2000/svg" fill="none" viewBox="0 0 24 24"><g clip-path="url(#a)"><path fill="#8834FF" d="M12 24c6.627 0 12-5.373 12-12S18.627 0 12 0 0 5.373 0 12s5.373 12 12 12Z"/><path fill="#fff" d="M6.15 15.265c.124 0 .255.007.379 0 .236-.017.473-.065.703-.123a3.572 3.572 0 0 0 1.253-.628c.107-.082.213-.17.314-.265a3.36 3.36 0 0 0 .544-.715c.13-.231.224-.48.296-.734.005-.017.005-.041.011-.059h-.928a2.658 2.658 0 0 1-.627-.076.083.083 0 0 1-.024-.019c.054-.117.101-.23.149-.348l.36-.834a.392.392 0 0 1 .053-.112.135.135 0 0 1 .095-.036c.29-.005.573 0 .863 0h.077c-.012-.047-.012-.082-.024-.123-.104-.4-.29-.774-.544-1.1a4.178 4.178 0 0 0-.408-.449 3.034 3.034 0 0 0-.608-.444 4.122 4.122 0 0 0-.722-.32 3.842 3.842 0 0 0-.638-.14c-.172-.019-.337-.025-.508-.037a.882.882 0 0 1-.125-.011.053.053 0 0 1-.035-.036c-.06-.136-.119-.266-.178-.402-.071-.16-.136-.319-.206-.473-.054-.13-.113-.253-.172-.39l.124-.036c.26-.035.527-.046.793-.035a5.68 5.68 0 0 1 1.253.184c.26.07.52.159.768.265.35.148.68.332.988.55.135.1.271.207.402.314.058.047.117.1.177.153.295.284.555.609.774.958.219.348.379.727.485 1.123.035.13.059.267.089.397a.052.052 0 0 0 .047.035h1.2c.024-.095.042-.19.06-.284a4.62 4.62 0 0 1 .283-.798c.094-.213.213-.42.348-.609.125-.171.255-.343.397-.502a3.84 3.84 0 0 1 .337-.35 5.366 5.366 0 0 1 1.732-1.052c.225-.076.45-.147.674-.206a4.78 4.78 0 0 1 .514-.095c.142-.024.29-.035.438-.048.095-.006.183-.011.278-.011.141 0 .277-.006.413 0 .137.006.273.035.408.059.006 0 .006.006.018.017l-.1.237a59.76 59.76 0 0 1-.444 1.023c-.023.059-.083.035-.124.047a.262.262 0 0 1-.1 0 4.1 4.1 0 0 0-1.744.408c-.255.124-.493.28-.71.462-.088.076-.189.153-.272.241a3.234 3.234 0 0 0-.827 1.413c-.007.018-.007.042-.013.06h.066c.307 0 .62-.007.928 0 .183 0 .366.029.544.088.006.007.011.007.017.012l-.17.39c-.119.278-.243.556-.361.84-.036.083-.06.1-.154.1h-.864c.024.083.042.154.065.225.083.248.202.484.35.703.088.13.183.249.283.367a3.5 3.5 0 0 0 .922.745c.225.13.467.236.716.318.236.084.485.137.739.16l.466.036c.06.007.119.007.178.012.012.006.024.011.03.024.1.236.2.472.307.709l.254.58c-.083.017-.16.035-.242.04-.201.012-.408.024-.61.024-.182 0-.366-.017-.543-.04a10.59 10.59 0 0 1-.733-.13 5.535 5.535 0 0 1-.852-.285 5.154 5.154 0 0 1-.933-.52 13.85 13.85 0 0 1-.45-.349 4.797 4.797 0 0 1-1.182-1.554 3.94 3.94 0 0 1-.295-.893c-.012-.03-.018-.065-.024-.095 0-.059-.03-.07-.083-.07H11.34c-.06.32-.155.633-.284.933a3.718 3.718 0 0 1-.396.722 6.42 6.42 0 0 1-.396.502 3.02 3.02 0 0 1-.331.343c-.184.16-.379.307-.574.455a5.276 5.276 0 0 1-2.282.893 8.76 8.76 0 0 1-.55.065 2.729 2.729 0 0 1-.312 0c-.154 0-.308-.007-.455-.012-.054-.007-.108-.012-.16-.024-.03-.006-.042-.018-.024-.053.118-.272.242-.544.36-.816.072-.165.137-.319.213-.49Z"/></g><defs><clipPath id="a"><path fill="#fff" d="M0 0h24v24H0z"/></clipPath></defs></svg>