<svg xmlns="http://www.w3.org/2000/svg" fill="none" viewBox="0 0 24 24"><g clip-path="url(#a)"><path fill="#000" d="M12 24c6.627 0 12-5.373 12-12S18.627 0 12 0 0 5.373 0 12s5.373 12 12 12"/><circle cx="12" cy="12" r="6.5" fill="#fff"/><circle cx="12" cy="12" r="5.594" fill="#000"/><path fill="#fff" d="M10.42 12.829h-.725v.75H12v-.75h-.673c0-.335.017-.687.241-.959.452-.546 1.39-.52 1.766.104.2.331.168.744.168 1.114v2.02h.88v-2.176c0-.527.017-1.067-.287-1.528-.543-.822-2.316-1.077-2.742.026h-.026V8.918h-.907z"/><path fill="#fff" d="M9.695 14.357v.75H12v-.75z"/></g><defs><clipPath id="a"><path fill="#fff" d="M0 0h24v24H0z"/></clipPath></defs></svg>