<svg xmlns="http://www.w3.org/2000/svg" fill="none" viewBox="0 0 24 24"><g clip-path="url(#a)"><path fill="url(#b)" d="M10.97.045c1.873.793 2.947 2.9 3.717 4.708-.126.288-.354.687-.54.887-3.075.881-5.809 2.376-8.243 4.44-.2.169-.29.536-.187.729.118.218.533.363.786.163 2.38-1.882 5.114-3.532 8.053-4.312.285-.036.905.403 1.202.281.28-.114.613-.45.852-.762 1.564-.566 4.82-.465 6.25.702 1.557 3.346 1.51 7.13-.091 10.444-.802 1.662-4.5 1.423-6 1.078-.44-.101-.413-.78-.325-1.126.772-3.022.763-6.051.234-9.119l.001-.002c-.042-.246-.374-.527-.565-.5a.634.634 0 0 0-.507.7c.476 3.048.418 6.146-.266 9.12-.42.182-.805.435-.947.761-.185.428 0 .924.284 1.332-.507 1.68-1.44 3.266-2.848 4.43-4.148-.038-7.953-2.243-10.131-5.833.158-1.63.99-2.894 1.896-4.226.225-.331.797-.858 1.28-.415 2.324 2.143 4.942 3.858 7.995 4.937.2.07.606-.094.672-.258.065-.164-.015-.625-.234-.712-2.685-1.079-5.468-2.66-7.683-4.76.069-.517.008-.94-.249-1.292-.178-.245-.853-.288-1.196-.344-.982-.53-2.974-4.368-2.418-5.313C3.724 2.456 7.132.377 10.97.045m10.932 18.752c-2.111 3.03-5.352 4.928-9.062 5.17 1.176-1.167 2.063-2.363 2.696-3.929l1.057-.693c1.871.28 3.664.093 5.309-.548M1.105 7.004c.48 1.77 1.13 3.358 2.264 4.741v1.006a11.7 11.7 0 0 0-2.157 4.44C-.34 14.03-.424 10.335 1.105 7.003M12.088 0a11.87 11.87 0 0 1 10.225 5.879c-1.884-.79-3.628-1.024-5.623-.727l-1.148-.7C14.788 2.676 13.705 1.175 12.089 0"/></g><defs><linearGradient id="b" x1="12" x2="12" y1="0" y2="23.999" gradientUnits="userSpaceOnUse"><stop stop-color="#2BC6FE"/><stop offset="1" stop-color="#277EF2"/></linearGradient><clipPath id="a"><path fill="#fff" d="M0 0h24v24H0z"/></clipPath></defs></svg>