<svg xmlns="http://www.w3.org/2000/svg" fill="none" viewBox="0 0 24 24"><g clip-path="url(#a)"><path fill="#FFD21E" d="M11.932 20.962a9.477 9.477 0 0 0 9.477-9.477 9.477 9.477 0 1 0-18.954 0 9.477 9.477 0 0 0 9.477 9.477"/><path fill="#FF9D0B" d="M21.409 11.485a9.477 9.477 0 1 0-18.954 0 9.477 9.477 0 0 0 18.954 0m-20.045 0a10.568 10.568 0 1 1 21.136 0c0 5.836-4.732 10.568-10.568 10.568-5.837 0-10.568-4.732-10.568-10.568"/><path fill="#3A3B45" d="M15.01 8.907c.35.12.486.835.838.65a1.364 1.364 0 1 0-1.843-.565c.166.314.695-.196 1.009-.087zm-6.422 0c-.349.12-.488.835-.837.65a1.364 1.364 0 1 1 1.844-.565c-.167.314-.699-.196-1.01-.087z"/><path fill="#FF323D" d="M11.864 15.45c2.68 0 3.545-2.39 3.545-3.616 0-.639-.428-.437-1.116-.098-.635.313-1.489.747-2.427.747-1.96 0-3.545-1.877-3.545-.65 0 1.228.862 3.617 3.545 3.617z"/><path fill="#3A3B45" fill-rule="evenodd" d="M9.81 14.825a2.37 2.37 0 0 1 1.445-1.224c.11-.033.221.155.338.349.11.185.224.374.338.374.123 0 .246-.186.363-.369.123-.19.243-.376.36-.34a2.35 2.35 0 0 1 1.364 1.137c1.017-.802 1.39-2.111 1.39-2.918 0-.639-.428-.437-1.115-.098l-.038.019c-.63.313-1.47.728-2.392.728s-1.759-.415-2.392-.728c-.709-.352-1.153-.573-1.153.079 0 .831.398 2.198 1.492 2.991" clip-rule="evenodd"/><path fill="#FF9D0B" d="M18.34 10.19a.886.886 0 1 0 0-1.774.886.886 0 0 0 0 1.773m-12.68 0a.886.886 0 1 0 0-1.774.886.886 0 0 0 0 1.773m-1.825 3c-.442 0-.835.18-1.11.51-.235.29-.363.651-.363 1.025a2 2 0 0 0-.53-.082c-.422 0-.804.16-1.074.452a1.58 1.58 0 0 0-.218 1.91 1.45 1.45 0 0 0-.488.769 1.6 1.6 0 0 0 .218 1.292 1.42 1.42 0 0 0-.1 1.37c.277.632.973 1.128 2.323 1.663.837.333 1.606.545 1.612.548.971.27 1.973.416 2.98.437 1.599 0 2.741-.491 3.399-1.457 1.058-1.552.908-2.972-.464-4.342-.755-.758-1.26-1.873-1.364-2.119-.212-.725-.774-1.532-1.704-1.532-.502.008-.97.257-1.255.67-.272-.343-.54-.613-.78-.769a2 2 0 0 0-1.082-.346m0 1.09c.139 0 .31.06.496.177.584.371 1.705 2.3 2.116 3.05.137.25.374.357.584.357.423 0 .75-.418.04-.95-1.068-.799-.695-2.105-.185-2.184.022-.005.047-.005.066-.005.464 0 .668.799.668.799s.6 1.505 1.63 2.536c1.03 1.028 1.084 1.854.334 2.954-.513.75-1.492.976-2.498.976-1.04 0-2.109-.246-2.706-.398-.03-.008-3.668-1.037-3.207-1.91.076-.147.204-.207.365-.207.65 0 1.828.966 2.338.966.111 0 .19-.047.226-.164.215-.777-3.29-1.104-2.995-2.228.055-.2.194-.278.393-.278.857 0 2.782 1.508 3.186 1.508q.047 0 .065-.027c.202-.328.09-.557-1.336-1.418-1.421-.862-2.422-1.38-1.855-2q.1-.104.273-.103c.864 0 2.907 1.86 2.907 1.86s.551.573.886.573a.2.2 0 0 0 .186-.104c.234-.398-2.198-2.242-2.335-3.003-.092-.518.066-.777.358-.777"/><path fill="#FFD21E" d="M9.584 21.014c.75-1.102.695-1.929-.333-2.957-1.031-1.028-1.63-2.536-1.63-2.536-.001 0-.225-.873-.735-.791s-.883 1.385.186 2.184c1.066.8-.213 1.342-.625.592-.409-.75-1.532-2.678-2.116-3.049-.58-.368-.99-.163-.854.6.137.761 2.572 2.605 2.335 3-.237.401-1.072-.466-1.072-.466s-2.61-2.376-3.18-1.757c-.567.62.434 1.138 1.855 2 1.426.861 1.538 1.09 1.336 1.418-.205.327-3.349-2.327-3.644-1.2-.294 1.12 3.21 1.445 2.995 2.222-.218.778-2.47-1.467-2.93-.594-.463.875 3.178 1.903 3.208 1.912 1.173.305 4.16.951 5.204-.578"/><path fill="#FF9D0B" d="M20.165 13.19c.442 0 .838.18 1.11.51.235.29.363.651.363 1.025q.26-.078.532-.082c.422 0 .804.16 1.074.452.495.515.585 1.297.218 1.91.24.197.411.467.486.769a1.6 1.6 0 0 1-.218 1.292c.266.41.304.926.1 1.37-.278.632-.973 1.128-2.32 1.663-.84.333-1.61.545-1.615.548-.971.27-1.973.416-2.98.437-1.599 0-2.741-.491-3.399-1.457-1.058-1.552-.908-2.972.464-4.342.758-.758 1.263-1.873 1.366-2.119.213-.725.772-1.532 1.702-1.532.502.008.97.257 1.255.67.272-.343.54-.613.782-.769.32-.216.694-.336 1.08-.346m0 1.09c-.139 0-.308.06-.496.177-.581.371-1.705 2.3-2.117 3.05a.66.66 0 0 1-.583.357c-.42 0-.75-.418-.038-.95 1.066-.799.692-2.105.182-2.184a.4.4 0 0 0-.065-.005c-.464 0-.668.799-.668.799s-.6 1.505-1.628 2.536c-1.031 1.028-1.086 1.854-.333 2.954.51.75 1.492.976 2.495.976 1.042 0 2.108-.246 2.708-.398.028-.008 3.669-1.037 3.208-1.91-.08-.147-.205-.207-.366-.207-.649 0-1.83.966-2.337.966-.114 0-.194-.047-.226-.164-.218-.777 3.286-1.104 2.991-2.228-.051-.2-.19-.278-.392-.278-.857 0-2.782 1.508-3.186 1.508-.027 0-.052-.008-.062-.027-.202-.328-.093-.557 1.33-1.418 1.427-.862 2.428-1.38 1.855-2-.063-.07-.155-.103-.267-.103-.868 0-2.91 1.86-2.91 1.86s-.551.572-.884.572a.2.2 0 0 1-.185-.103c-.238-.398 2.195-2.242 2.332-3.003.092-.518-.066-.777-.358-.777"/><path fill="#FFD21E" d="M14.42 21.014c-.75-1.102-.699-1.929.332-2.957 1.028-1.028 1.628-2.536 1.628-2.536s.224-.873.737-.791c.507.082.88 1.385-.186 2.184-1.069.8.213 1.342.622.592.412-.75 1.535-2.678 2.116-3.049.581-.368.993-.163.854.6-.136.761-2.57 2.605-2.332 3 .235.401 1.07-.466 1.07-.466s2.612-2.376 3.18-1.757c.567.62-.432 1.138-1.855 2-1.427.861-1.536 1.09-1.337 1.418.205.327 3.35-2.327 3.644-1.2.294 1.12-3.207 1.445-2.992 2.222.218.778 2.468-1.467 2.93-.594.46.875-3.178 1.903-3.208 1.912-1.175.305-4.162.951-5.204-.578"/></g><defs><clipPath id="a"><path fill="#fff" d="M0 0h24v24H0z"/></clipPath></defs></svg>