<svg xmlns="http://www.w3.org/2000/svg" fill="none" viewBox="0 0 24 24"><g clip-path="url(#a)"><path fill="#282E5B" d="M14.006 8.152c0-2.87-1.383-5.343-2.443-6.152 0 0-.074-.044-.074.074-.088 5.548-2.899 7.064-4.459 9.08-3.576 4.68-.25 9.801 3.135 10.743 1.899.53-.441-.942-.736-4.032-.353-3.753 4.577-6.608 4.577-9.713"/><path fill="#059BDC" d="M15.86 10.05c-.014-.015-.043-.015-.073 0l-.015.015c-.059.691-.824 2.193-1.78 3.561-3.253 4.65-1.399 6.888-.354 8.094.604.707 0 0 1.516-.72.118-.06 2.944-1.56 3.253-4.96.309-3.311-1.796-5.387-2.546-5.99"/></g><defs><clipPath id="a"><path fill="#fff" d="M5.5 2h12.951v20H5.5z"/></clipPath></defs></svg>