<svg xmlns="http://www.w3.org/2000/svg" fill="none" viewBox="0 0 24 24"><g clip-path="url(#a)"><path fill="#292929" d="M12 24c6.627 0 12-5.373 12-12S18.627 0 12 0 0 5.373 0 12s5.373 12 12 12"/><path fill="#fff" fill-rule="evenodd" d="M11.354 13.727v-.895c-.001-.084.023-.147.1-.181.072-.031.147-.01.209.064l.556.653q.098.114.193.23a.1.1 0 0 1 .025.066q.002.473 0 .945a.55.55 0 0 1-.5.555.547.547 0 0 1-.577-.472q-.007-.053-.006-.109zm.002-5.856-.002-.038V6.057a.54.54 0 1 1 1.08-.014c.007.605.003 1.21.004 1.816l-.003.03c-.126-.215-.3-.323-.538-.322a.61.61 0 0 0-.54.304m-.002 8.198a.62.62 0 0 0 .547.304c.236-.001.409-.109.537-.31v1.505c0 .147.004.296-.009.442a.54.54 0 0 1-.565.49.545.545 0 0 1-.508-.541c-.004-.581-.002-1.161-.002-1.742zm1.084-5.736v1.08c0 .102-.032.158-.11.189a.2.2 0 0 1-.234-.061l-.47-.551q-.123-.142-.243-.286a.1.1 0 0 1-.026-.065 202 202 0 0 1 0-1.393.546.546 0 0 1 .498-.548c.257-.028.511.163.571.432q.014.068.013.138zm1.125-2.195V6.695a.56.56 0 0 1 .382-.548c.351-.11.702.154.704.537q.002.54 0 1.08V9.58a.554.554 0 0 1-.408.552.544.544 0 0 1-.674-.487l-.003-.099zm-3.278 6.956v1.667a.55.55 0 0 1-.45.55.547.547 0 0 1-.633-.517q-.002-.14 0-.28v-3.088a.55.55 0 0 1 .408-.541.54.54 0 0 1 .675.528zm0-6.14v2.275a.55.55 0 0 1-.426.546.543.543 0 0 1-.657-.527c-.003-.329 0-.657-.001-.986V6.684a.55.55 0 0 1 .424-.548.543.543 0 0 1 .66.533zm3.278 5.321v-2.47c0-.246.106-.429.325-.531.353-.163.748.097.76.496v4.97c0 .272-.154.488-.4.558a.543.543 0 0 1-.68-.481 1 1 0 0 1-.004-.105v-2.438zm3.311-2.513v3.861a.55.55 0 0 1-.436.554.547.547 0 0 1-.647-.52V7.91c0-.25.125-.45.337-.538.358-.15.746.12.746.519zm-8.666-.005v3.866a.55.55 0 0 1-.423.553.546.546 0 0 1-.66-.52V7.898c0-.266.16-.482.403-.55a.542.542 0 0 1 .68.522c.003.425 0 .852 0 1.278z" clip-rule="evenodd"/></g><defs><clipPath id="a"><path fill="#fff" d="M0 0h24v24H0z"/></clipPath></defs></svg>