<svg xmlns="http://www.w3.org/2000/svg" fill="none" viewBox="0 0 24 24"><path fill="#292929" d="M12 22c5.523 0 10-4.477 10-10S17.523 2 12 2 2 6.477 2 12s4.477 10 10 10Z"/><path fill="#fff" fill-rule="evenodd" d="m11.38 13.66-.001-.86c0-.08.022-.142.097-.174.068-.03.14-.01.2.06l.535.63c.062.073.125.145.186.22a.11.11 0 0 1 .024.063c0 .303.002.607 0 .91a.53.53 0 0 1-.482.534.526.526 0 0 1-.555-.454c-.005-.035-.005-.07-.005-.105v-.823Zm.001-5.63-.002-.037V6.285a.529.529 0 0 1 .425-.527.52.52 0 0 1 .614.513c.006.582.003 1.165.004 1.747l-.003.03c-.122-.208-.289-.312-.518-.311-.226 0-.395.1-.52.292Zm-.002 7.883a.592.592 0 0 0 .526.291c.228 0 .393-.104.517-.296v1.446c0 .142.004.285-.009.425a.518.518 0 0 1-.544.47.524.524 0 0 1-.488-.52c-.004-.558-.002-1.116-.002-1.675v-.141Zm1.043-5.517v1.038c0 .1-.031.153-.106.183a.193.193 0 0 1-.225-.059l-.453-.53c-.078-.091-.156-.182-.233-.275a.11.11 0 0 1-.025-.062c-.001-.447-.002-.893 0-1.34a.526.526 0 0 1 .479-.526c.247-.027.492.156.55.415a.731.731 0 0 1 .012.133v1.023Zm1.082-2.11V6.898a.534.534 0 0 1 .367-.526c.337-.107.675.148.676.516.002.346 0 .692 0 1.038v1.747a.533.533 0 0 1-.391.53.523.523 0 0 1-.649-.467 1.22 1.22 0 0 1-.003-.096V8.286Zm-3.153 6.689v1.603a.528.528 0 0 1-.433.53.526.526 0 0 1-.608-.499c-.003-.089 0-.178 0-.268v-2.97c0-.25.16-.46.392-.52a.52.52 0 0 1 .649.507v1.617Zm0-5.904v2.187a.529.529 0 0 1-.41.525.523.523 0 0 1-.631-.506c-.003-.316 0-.632-.001-.948V6.888a.53.53 0 0 1 .408-.527.522.522 0 0 1 .634.513V9.07Zm3.153 5.117v-2.376c0-.236.101-.412.312-.51.339-.158.719.093.731.476v4.78c0 .261-.149.469-.385.536a.522.522 0 0 1-.655-.463 1.237 1.237 0 0 1-.003-.1v-2.345.002Zm3.184-2.417v3.713a.531.531 0 0 1-.42.532.526.526 0 0 1-.622-.5v-7.45c0-.24.12-.432.324-.517a.522.522 0 0 1 .717.5v3.722Zm-8.334-.005v3.718a.528.528 0 0 1-.407.531.525.525 0 0 1-.635-.5v-7.46a.53.53 0 0 1 .388-.528.521.521 0 0 1 .654.501c.003.41 0 .82 0 1.23v2.507Z" clip-rule="evenodd"/></svg>