<svg xmlns="http://www.w3.org/2000/svg" fill="none" viewBox="0 0 24 24"><path fill="#292929" d="M12 22c5.523 0 10-4.477 10-10S17.523 2 12 2 2 6.477 2 12s4.477 10 10 10"/><path fill="#fff" fill-rule="evenodd" d="m11.38 13.66-.001-.86c0-.08.022-.142.097-.174.068-.03.14-.01.2.06l.535.63q.094.108.186.22a.1.1 0 0 1 .024.063q.002.455 0 .91a.53.53 0 0 1-.482.534.526.526 0 0 1-.555-.454q-.006-.053-.005-.105zm.001-5.63-.002-.037V6.285a.53.53 0 0 1 .425-.527.52.52 0 0 1 .614.513c.006.582.003 1.165.004 1.747l-.003.03c-.122-.208-.289-.312-.518-.311-.226 0-.395.1-.52.292m-.002 7.883a.59.59 0 0 0 .526.291c.228 0 .393-.104.517-.296v1.446c0 .142.004.285-.009.425a.52.52 0 0 1-.544.47.524.524 0 0 1-.488-.52q-.004-.837-.002-1.675zm1.043-5.517v1.038c0 .1-.031.153-.106.183a.19.19 0 0 1-.225-.059l-.453-.53q-.117-.136-.233-.275a.1.1 0 0 1-.025-.062q-.002-.67 0-1.34a.526.526 0 0 1 .479-.526c.247-.027.492.156.55.415q.012.065.012.133zm1.082-2.11V6.898a.534.534 0 0 1 .367-.526c.337-.107.675.148.676.516q.002.519 0 1.038v1.747a.53.53 0 0 1-.391.53.523.523 0 0 1-.649-.467l-.003-.096zm-3.153 6.689v1.603a.53.53 0 0 1-.433.53.526.526 0 0 1-.608-.499c-.003-.089 0-.178 0-.268v-2.97c0-.25.16-.46.392-.52a.52.52 0 0 1 .649.507zm0-5.904v2.187a.53.53 0 0 1-.41.525.523.523 0 0 1-.631-.506c-.003-.316 0-.632-.001-.948v-3.44a.53.53 0 0 1 .408-.527.522.522 0 0 1 .634.513zm3.153 5.117v-2.376c0-.236.101-.412.312-.51.339-.158.719.093.731.476v4.78c0 .261-.149.469-.385.536a.522.522 0 0 1-.655-.463 1 1 0 0 1-.003-.1v-2.345zm3.184-2.417v3.713a.53.53 0 0 1-.42.532.526.526 0 0 1-.622-.5v-7.45c0-.24.12-.432.324-.517a.522.522 0 0 1 .717.5v3.722m-8.334-.005v3.718a.53.53 0 0 1-.407.531.525.525 0 0 1-.635-.5v-7.46a.53.53 0 0 1 .388-.528.52.52 0 0 1 .654.501c.003.41 0 .82 0 1.23z" clip-rule="evenodd"/></svg>