<svg xmlns="http://www.w3.org/2000/svg" fill="none" viewBox="0 0 24 24"><path fill="#62757E" d="M12.7 2.5c1.16 0 2.1.94 2.1 2.1v.471H19a3 3 0 0 1 3 3V17.5a3 3 0 0 1-2.846 2.996L19 20.5H5l-.154-.004A3 3 0 0 1 2 17.5V8.071a3 3 0 0 1 3-3h4.2V4.6c0-1.16.94-2.1 2.1-2.1zM5 6.67a1.4 1.4 0 0 0-1.4 1.401V17.5A1.4 1.4 0 0 0 5 18.9h14a1.4 1.4 0 0 0 1.4-1.4V8.071a1.4 1.4 0 0 0-1.4-1.4h-4.312A2.1 2.1 0 0 1 12.7 8.1h-1.4a2.1 2.1 0 0 1-1.988-1.43zm7 7.473a3.99 3.99 0 0 1 3.73 2.568c.146.384-.17.757-.58.757h-6.3c-.41 0-.726-.373-.58-.757A3.99 3.99 0 0 1 12 14.143m0-4.656a1.996 1.996 0 1 1 0 3.992 1.996 1.996 0 0 1 0-3.992M11.3 4.1a.5.5 0 0 0-.5.5V6a.5.5 0 0 0 .5.5h1.4a.5.5 0 0 0 .5-.5V4.6a.5.5 0 0 0-.5-.5z"/></svg>