<svg xmlns="http://www.w3.org/2000/svg" fill="none" viewBox="0 0 24 24"><path fill="#62757E" fill-rule="evenodd" d="M20.556 21.333H3.444A1.443 1.443 0 0 1 2 19.895V7.773c0-.794.648-1.44 1.444-1.44H9.5v-2.5c0-.46.373-.833.833-.833h3.334c.46 0 .833.373.833.833v2.5h6.056c.796 0 1.444.646 1.444 1.44v12.122c0 .793-.648 1.438-1.444 1.438ZM12.833 4.667h-1.666V8h1.666V4.667ZM20.333 8H14.5v.834c0 .46-.373.834-.833.834h-3.334a.834.834 0 0 1-.833-.834V8H3.667v11.667h16.666V8ZM7.89 16.475c.018-.05.044-.094.071-.14a.801.801 0 0 1 .088-.13c.039-.045.084-.077.131-.112.03-.023.05-.053.082-.071l1.48-.825a3.15 3.15 0 0 1-.239-1.272l-.002-.012.002-1.561c0-.027.012-.049.015-.075.002-.03-.006-.059 0-.09.01-.05.032-.095.047-.143.003-.007.004-.016.008-.023.304-.966 1.435-1.543 2.428-1.543h.006c.99 0 2.119.576 2.422 1.543.004.007.005.015.008.022.015.049.037.094.047.145.007.03-.002.059 0 .09.003.025.015.047.015.074l.002 1.561-.002.013c.007.204-.007.709-.236 1.266l1.48.832c.032.018.051.048.08.069a.781.781 0 0 1 .13.113c.036.04.062.085.089.13a.79.79 0 0 1 .07.14c.02.056.027.111.035.17.004.036.02.067.02.104v.625c0 .804-.747 1.458-1.666 1.458h-5c-.92 0-1.667-.654-1.667-1.458v-.625c0-.038.017-.07.022-.105a.765.765 0 0 1 .034-.17Zm4.813-.248a.81.81 0 0 1-.335-.385.398.398 0 0 1-.021-.041.82.82 0 0 1-.05-.21.743.743 0 0 1-.01-.136c.002-.04.01-.078.018-.117a.784.784 0 0 1 .074-.23c.003-.006.003-.011.005-.016.005-.008.013-.012.017-.02.032-.054.054-.113.1-.162.357-.385.332-.915.332-.92-.001-.018.006-.033.006-.05 0-.01-.005-.016-.005-.024l-.001-1.418c-.072-.12-.417-.355-.832-.355-.413.001-.76.235-.832.356l-.001 1.417c0 .006-.004.011-.005.018 0 .016.008.03.006.046-.001.028-.02.55.333.93.119.13.175.288.198.45.007.034.014.067.016.1 0 .043-.005.083-.01.125a.82.82 0 0 1-.41.653l-1.664.929h4.742l-1.671-.94Z" clip-rule="evenodd"/></svg>