<svg xmlns="http://www.w3.org/2000/svg" fill="none" viewBox="0 0 24 24"><path fill="#62757E" fill-rule="evenodd" d="M12 3.489a5.85 5.85 0 0 0-2.931 10.915c.91.529 1.736 1.5 1.736 2.747v.17a.8.8 0 0 1-1.6 0v-.17c0-.496-.342-1.016-.94-1.363a7.45 7.45 0 1 1 7.469 0c-.597.347-.939.867-.939 1.363v.17a.8.8 0 0 1-1.6 0v-.17c0-1.248.825-2.218 1.736-2.747A5.85 5.85 0 0 0 12 3.49M9.895 12.3a.8.8 0 0 1 .974-.576 4.5 4.5 0 0 0 2.262 0 .8.8 0 1 1 .399 1.55 6 6 0 0 1-.73.14v3.908a.8.8 0 0 1-1.6 0v-3.908a6 6 0 0 1-.73-.14.8.8 0 0 1-.575-.975M9.22 18.98a.8.8 0 0 1 .935-.637 9.9 9.9 0 0 0 3.692 0 .8.8 0 1 1 .298 1.572 11.5 11.5 0 0 1-4.288 0 .8.8 0 0 1-.637-.935m.655 2.179a.8.8 0 0 1 .88-.713 12 12 0 0 0 2.493 0 .8.8 0 0 1 .166 1.592 13.6 13.6 0 0 1-2.826 0 .8.8 0 0 1-.713-.88" clip-rule="evenodd"/></svg>