<svg xmlns="http://www.w3.org/2000/svg" fill="none" viewBox="0 0 24 24"><path fill="currentColor" fill-rule="evenodd" d="M2.77 10.307a.769.769 0 1 1 0-1.538H4a.77.77 0 0 1 0 1.538H2.77Zm3.005 3.61c.3.301.3.788 0 1.088l-1.846 1.846a.764.764 0 0 1-.544.226.768.768 0 0 1-.544-1.313l1.846-1.846c.3-.3.788-.3 1.088 0ZM2.84 3.314a.768.768 0 1 1 1.088-1.088l1.846 1.846A.768.768 0 1 1 4.687 5.16L2.841 3.313ZM22 9.538a.77.77 0 0 1-.77.77H20a.77.77 0 0 1 0-1.539h1.23a.77.77 0 0 1 .77.77Zm-.841 6.226a.768.768 0 1 1-1.088 1.087l-1.846-1.846a.769.769 0 1 1 1.088-1.088l1.846 1.847ZM18.226 5.159a.768.768 0 0 1 0-1.088l1.846-1.846a.77.77 0 0 1 1.088 1.088l-1.846 1.846a.767.767 0 0 1-1.088 0Zm-3.827 8.96a.76.76 0 0 0-.06.05c-.601.556-.648 1.64-.648 1.96v.318c-1.393.6-2.737.236-3.383-.017v-.302c0-.319-.047-1.403-.649-1.958a.925.925 0 0 0-.059-.05c-1.08-.812-2.37-2.222-2.37-4.338C7.23 7.018 9.37 4.77 12 4.77c2.629 0 4.768 2.25 4.768 5.013 0 2.116-1.289 3.526-2.37 4.337Zm-2.4 6.343c-1.325 0-1.63-.832-1.691-1.086v-1.33c.49.142 1.1.264 1.79.264.5 0 1.04-.076 1.593-.24v1.304c-.066.268-.376 1.088-1.692 1.088ZM12 3.23c-3.477 0-6.307 2.94-6.307 6.552 0 2.155 1.01 4.063 2.924 5.523.077.125.152.519.153.823v3.325c0 .04.003.08.01.12.132.84.976 2.427 3.22 2.427 2.246 0 3.089-1.588 3.222-2.427a.897.897 0 0 0 .008-.12v-3.325c0-.274.072-.7.147-.817 1.917-1.461 2.93-3.371 2.93-5.529 0-3.612-2.828-6.552-6.307-6.552Z" clip-rule="evenodd"/></svg>