<svg xmlns="http://www.w3.org/2000/svg" fill="none" viewBox="0 0 24 24"><g clip-path="url(#a)"><path fill="#98C23A" d="M12 24c6.627 0 12-5.373 12-12S18.627 0 12 0 0 5.373 0 12s5.373 12 12 12"/><path fill="#fff" d="M12 5.5a6.5 6.5 0 1 0 6.5 6.5A6.51 6.51 0 0 0 12 5.5m0 12.129A5.624 5.624 0 1 1 17.623 12 5.63 5.63 0 0 1 12 17.623zM9.128 11.42H8.08V9.128q0-.645.612-.645h2.271a.55.55 0 0 1 .635.645v2.293H10.56v-2.04H9.128zm1.433.673h1.048v2.756a.552.552 0 0 1-.634.64H8.692a.55.55 0 0 1-.606-.65v-2.757h2.48zm4.3.038h1.059v2.757a.55.55 0 0 1-.64.64h-2.299a.55.55 0 0 1-.628-.64V9.177a.55.55 0 0 1 .645-.645h2.26a.55.55 0 0 1 .662.645v1.654h-1.103v-1.4H13.44v2.701z"/></g><defs><clipPath id="a"><path fill="#fff" d="M0 0h24v24H0z"/></clipPath></defs></svg>