<svg xmlns="http://www.w3.org/2000/svg" fill="none" viewBox="0 0 24 24"><path fill="#62757E" fill-rule="evenodd" d="M20.044 2.306a.85.85 0 0 1 1.202 1.202L3.378 21.376a.85.85 0 1 1-1.202-1.202l.544-.544a2.8 2.8 0 0 1-.982-2.13v-11a2.8 2.8 0 0 1 2.8-2.8h14.111zM17.049 5.3H4.538a1.2 1.2 0 0 0-1.2 1.2v7.2l3.725-3.726a2.8 2.8 0 0 1 3.96 0l.676.676zm-6.481 6.482-.677-.677a1.2 1.2 0 0 0-1.697 0l-4.856 4.857V17.5c0 .411.206.774.521.99zm11.008-6.22L20.137 7v5.953l-.858-.859a2.8 2.8 0 0 0-3.96 0l-1.088 1.088-.138-.138-1.131 1.132 2.402 2.402a.8.8 0 1 0 1.13-1.132l-1.132-1.133 1.088-1.088a1.2 1.2 0 0 1 1.697 0l1.99 1.99V17.5a1.2 1.2 0 0 1-1.2 1.2h-10.5l-1.6 1.6h12.1a2.8 2.8 0 0 0 2.8-2.8v-11c0-.33-.056-.645-.16-.939" clip-rule="evenodd"/></svg>