<svg xmlns="http://www.w3.org/2000/svg" fill="none" viewBox="0 0 24 24"><path fill="#687485" fill-rule="evenodd" d="M19.182 2.17a.85.85 0 0 1 1.428.799l.084.074-.21.21a.854.854 0 0 1-.1.12l-16.35 16.35a.86.86 0 0 1-.12.1l-.871.87A3.986 3.986 0 0 1 2 18V6a4 4 0 0 1 4-4h12a4 4 0 0 1 1.177.176l.005-.005Zm-1.43 1.43H6A2.4 2.4 0 0 0 3.6 6v11.753L17.753 3.6ZM6 22c-.549 0-1.072-.11-1.548-.31l1.301-1.303c.082.009.164.013.247.013h12a2.4 2.4 0 0 0 2.4-2.4V6a2.42 2.42 0 0 0-.012-.247l1.301-1.301c.2.476.311.999.311 1.548v12a4 4 0 0 1-4 4H6Zm4.195-4.675-.707-.672 1.131-1.131.022.02.118-.16 3.989-3.989.032.027 3.97 3.592a.8.8 0 1 1-1.073 1.187l-3.316-3-2.972 4.022a.8.8 0 0 1-1.194.104Zm.027-9.717a2.611 2.611 0 1 1-5.222 0 2.611 2.611 0 0 1 5.222 0ZM7.612 8.72a1.111 1.111 0 1 0 0-2.222 1.111 1.111 0 0 0 0 2.222Z" clip-rule="evenodd"/></svg>