<svg xmlns="http://www.w3.org/2000/svg" fill="none" viewBox="0 0 24 24"><path fill="currentColor" fill-rule="evenodd" d="M7.448 6.103a1.538 1.538 0 1 0 0 3.076 1.538 1.538 0 0 0 0-3.076Zm6.893 5.073a.718.718 0 0 0-1.059.106l-2.745 3.714-1.516-1.44a.718.718 0 0 0-1.085.113l-2.105 3.052a.718.718 0 0 0 .591 1.125h11.103a.718.718 0 0 0 .718-.718v-2.104a.718.718 0 0 0-.237-.533l-3.665-3.315Z" clip-rule="evenodd"/><path fill="currentColor" fill-rule="evenodd" d="M2 4.308A2.308 2.308 0 0 1 4.308 2h15.384A2.308 2.308 0 0 1 22 4.308v15.384A2.308 2.308 0 0 1 19.692 22H4.308A2.308 2.308 0 0 1 2 19.692V4.308Zm2.308-.77a.77.77 0 0 0-.77.77v15.384c0 .425.345.77.77.77h15.384a.77.77 0 0 0 .77-.77V4.308a.77.77 0 0 0-.77-.77H4.308Z" clip-rule="evenodd"/></svg>