<svg xmlns="http://www.w3.org/2000/svg" fill="none" viewBox="0 0 24 24"><path fill="#62757E" fill-rule="evenodd" d="M1.45 6a2.3 2.3 0 0 1 2.3-2.3h16.5a2.3 2.3 0 0 1 2.3 2.3v12a2.3 2.3 0 0 1-2.3 2.3H3.75a2.3 2.3 0 0 1-2.3-2.3V6Zm1.6 10.081V18a.7.7 0 0 0 .7.7h16.5a.7.7 0 0 0 .7-.7v-1.919l-2.675-2.674a1.45 1.45 0 0 0-2.05 0l-.844.843.935.934a.8.8 0 1 1-1.132 1.132l-5.159-5.16a1.45 1.45 0 0 0-2.05 0L3.05 16.082Zm11.2-2.962-3.093-3.094a3.05 3.05 0 0 0-4.314 0L3.05 13.82V6a.7.7 0 0 1 .7-.7h16.5a.7.7 0 0 1 .7.7v7.819l-1.543-1.544a3.05 3.05 0 0 0-4.314 0l-.843.844ZM13.075 8.25a1.175 1.175 0 1 1 2.35 0 1.175 1.175 0 0 1-2.35 0Z" clip-rule="evenodd"/></svg>