<svg xmlns="http://www.w3.org/2000/svg" fill="none" viewBox="0 0 24 24"><path fill="#62757E" fill-rule="evenodd" d="M4.538 3.7a2.8 2.8 0 0 0-2.8 2.8v11a2.8 2.8 0 0 0 2.8 2.8h14.4a2.8 2.8 0 0 0 2.8-2.8v-11a2.8 2.8 0 0 0-2.8-2.8zm-1.2 2.8a1.2 1.2 0 0 1 1.2-1.2h14.4a1.2 1.2 0 0 1 1.2 1.2v6.453l-.86-.859a2.8 2.8 0 0 0-3.96 0l-1.087 1.088-3.208-3.208a2.8 2.8 0 0 0-3.96 0l-3.725 3.725zm12.024 7.813 1.133 1.133a.8.8 0 1 1-1.132 1.132l-5.472-5.473a1.2 1.2 0 0 0-1.697 0l-4.856 4.857V17.5a1.2 1.2 0 0 0 1.2 1.2h14.4a1.2 1.2 0 0 0 1.2-1.2v-2.284l-1.99-1.99a1.2 1.2 0 0 0-1.698 0zM13.075 8.25a1.175 1.175 0 1 1 2.35 0 1.175 1.175 0 0 1-2.35 0" clip-rule="evenodd"/></svg>