<svg xmlns="http://www.w3.org/2000/svg" fill="none" viewBox="0 0 24 24"><path fill="#252B3D" d="M22.08 12c0-5.523-4.477-10-10-10s-10 4.477-10 10 4.477 10 10 10 10-4.477 10-10Z"/><path fill="#17B5CB" d="M16.408 7.5h1.172l-4.76 5.367a.364.364 0 0 0-.008.482L15.56 16.5h-1.225l-2.54-2.92-.126-.16a.364.364 0 0 1 .007-.481L16.408 7.5Z"/><path fill="#17B5CB" d="M14.17 13.347a.36.36 0 0 1-.079-.324.565.565 0 0 1 .111-.177l.322-.346 3.556 4h-1.13l-2.779-3.153ZM7.296 16.5H6.08l3.73-4.28a.36.36 0 0 0 0-.475L6.107 7.5H7.28l3.722 4.28c.095.127.112.31.01.429-.974 1.118-3.714 4.291-3.714 4.291Zm2.428-9H8.58l3.508 4s.01-.007.402-.461c.107-.124.129-.277.011-.393C11.763 9.901 9.724 7.5 9.724 7.5ZM13.05 10l2.065-2.5H14.03l-.968 1.07-.382.453a.405.405 0 0 0-.008.524c.097.113.378.453.378.453Zm-2.1 3.79L8.58 16.5h1.197l1.322-1.57.238-.245c.13-.145.126-.432 0-.584-.097-.114-.387-.311-.387-.311Z"/></svg>