<svg xmlns="http://www.w3.org/2000/svg" fill="none" viewBox="0 0 24 24"><path fill="#252B3D" d="M22.08 12c0-5.523-4.477-10-10-10s-10 4.477-10 10 4.477 10 10 10 10-4.477 10-10"/><path fill="#17B5CB" d="M16.407 7.5h1.173l-4.76 5.367a.364.364 0 0 0-.008.482L15.56 16.5h-1.226l-2.539-2.92-.126-.16a.364.364 0 0 1 .007-.481z"/><path fill="#17B5CB" d="M14.17 13.347a.36.36 0 0 1-.08-.324.6.6 0 0 1 .112-.177l.322-.346 3.556 4h-1.13zM7.296 16.5H6.08l3.73-4.28a.36.36 0 0 0 0-.475L6.107 7.5h1.17L11 11.78c.095.127.112.31.01.429-.974 1.118-3.715 4.291-3.715 4.291m2.429-9H8.58l3.507 4s.011-.007.403-.461c.107-.124.128-.277.01-.393C11.764 9.901 9.725 7.5 9.725 7.5M13.05 10l2.065-2.5H14.03l-.969 1.07-.381.453a.405.405 0 0 0-.008.524c.097.113.378.453.378.453m-2.1 3.79L8.58 16.5h1.197l1.322-1.57.237-.245c.13-.145.126-.432 0-.584-.096-.114-.386-.311-.386-.311"/></svg>