<svg xmlns="http://www.w3.org/2000/svg" fill="none" viewBox="0 0 24 24"><path fill="#62757E" fill-rule="evenodd" d="M21 18c0 .827-.673 1.5-1.5 1.5h-15c-.827 0-1.5-.673-1.5-1.5v-6c0-.069.022-.132.04-.196a.74.74 0 0 1-.02-.376l1.5-6.35a.75.75 0 0 1 .73-.577h3a.75.75 0 0 1 0 1.5H5.843l-1.24 5.25H9a.75.75 0 0 1 .75.75 2.25 2.25 0 0 0 2.249 2.25 2.253 2.253 0 0 0 2.251-2.25.75.75 0 0 1 .75-.75h4.397l-1.24-5.25H15a.75.75 0 0 1 0-1.5h3.749a.75.75 0 0 1 .73.577l1.5 6.35c.03.13.015.256-.02.376.018.064.04.127.04.197zm-1.403-5.25h-3.922a3.76 3.76 0 0 1-3.677 3.002 3.754 3.754 0 0 1-3.672-3.001H4.5V18h15.097zM14.47 7.72a.749.749 0 1 1 1.06 1.06l-3 3a.75.75 0 0 1-1.06 0l-3-3a.75.75 0 1 1 1.06-1.06l1.754 1.753V3.75c0-.414.302-.75.716-.75a.75.75 0 0 1 .75.75v5.69z" clip-rule="evenodd"/></svg>