<svg xmlns="http://www.w3.org/2000/svg" fill="none" viewBox="0 0 24 24"><path fill="#62757E" fill-rule="evenodd" d="M19.37 19.5H4.488A1.495 1.495 0 0 1 3 18v-6c0-.072.022-.136.04-.203a.734.734 0 0 1 0-.438l1.636-4.85a.735.735 0 0 1 .557-.481V4.5c0-.414.332-.75.743-.75h11.906c.41 0 .744.336.744.75v1.529c.248.052.467.22.554.48l1.639 4.85a.76.76 0 0 1 .035.274A.61.61 0 0 1 21 12v6c0 .827-.81 1.5-1.63 1.5ZM5.233 9.518l-.585 1.732h.585V9.518ZM17.138 5.25H6.721v6h2.232c.41 0 .744.336.744.75 0 1.241 1 2.25 2.23 2.25A2.244 2.244 0 0 0 14.163 12c0-.414.332-.75.743-.75h2.233v-6Zm1.488 4.271v1.729h.584l-.584-1.729Zm.872 3.229h-3.923c-.347 1.71-1.85 3-3.647 3-1.796 0-3.298-1.29-3.644-3H4.488V18h15.01v-5.25ZM16.394 3h-8.93a.747.747 0 0 1-.743-.75c0-.414.333-.75.744-.75h8.929c.41 0 .744.336.744.75s-.334.75-.744.75Z" clip-rule="evenodd"/></svg>