<svg xmlns="http://www.w3.org/2000/svg" fill="none" viewBox="0 0 24 24"><path fill="#0484B5" d="M2 12C2 6.477 6.477 2 12 2s10 4.477 10 10-4.477 10-10 10S2 17.523 2 12"/><path fill="#fff" d="M8.282 8.919c0-.358-.278-.637-.596-.637a.61.61 0 0 0-.596.597c0 .358.278.636.636.596l1.789 1.79h3.22l3.54-3.46 1.073 1.074-3.897 3.817 2.227 2.306v.04c0 .318.278.597.596.597a.61.61 0 0 0 .597-.597.61.61 0 0 0-.597-.596l-1.59-1.71 3.817-3.857-2.187-2.187-3.897 3.897H9.992z"/><path fill="#fff" d="m10.628 11.583-2.863 2.862h-.04a.61.61 0 0 0-.596.597.61.61 0 0 0 .596.596.61.61 0 0 0 .597-.596l2.664-2.664h2.306l2.982-2.863a.61.61 0 0 0 .596-.596.61.61 0 0 0-.596-.597.61.61 0 0 0-.596.597v.04l-2.744 2.624"/><path fill="#fff" d="M16.354 12.775a.61.61 0 0 0-.597-.596.61.61 0 0 0-.596.596c0 .318.239.557.517.597l1.63 1.71-1.074 1.073-3.3-3.459h-1.868l-3.42 3.46-1.074-1.074 3.579-3.5h-.875L6.572 8.88l1.034-1.034 1.949 1.988c0 .318.278.557.596.557a.61.61 0 0 0 .596-.597.61.61 0 0 0-.596-.596h-.08L7.606 6.692 5.38 8.919l3.1 3.101-3.1 3.101 2.227 2.227 3.856-3.857h1.034l3.698 3.857 2.147-2.187-1.988-2.266z"/></svg>