<svg xmlns="http://www.w3.org/2000/svg" fill="none" viewBox="0 0 24 24"><path fill="#62757E" d="M11.996 22a9.6 9.6 0 0 1-3.14-.514 10 10 0 0 1-2.74-1.428 10.17 10.17 0 0 1-3.61-4.922A9.7 9.7 0 0 1 2 12.004q0-1.643.507-3.133a10 10 0 0 1 1.428-2.748A10.4 10.4 0 0 1 6.107 3.95a10 10 0 0 1 2.741-1.436A9.6 9.6 0 0 1 11.988 2q1.644 0 3.14.514a9.9 9.9 0 0 1 2.75 1.436 10.2 10.2 0 0 1 2.172 2.173 9.9 9.9 0 0 1 1.436 2.748q.513 1.49.514 3.133 0 1.635-.514 3.132a9.9 9.9 0 0 1-1.436 2.749 10.2 10.2 0 0 1-2.173 2.173 10 10 0 0 1-2.748 1.428 9.5 9.5 0 0 1-3.133.514m0-1.428q1.429 0 2.71-.438a8.5 8.5 0 0 0 2.357-1.213 8.5 8.5 0 0 0 1.858-1.85 8.5 8.5 0 0 0 1.643-5.067 8.47 8.47 0 0 0-1.65-5.067 8.4 8.4 0 0 0-1.858-1.858 8.5 8.5 0 0 0-5.068-1.643q-1.42 0-2.71.43a8.53 8.53 0 0 0-5.412 5.428 8.5 8.5 0 0 0-.43 2.71 8.5 8.5 0 0 0 1.643 5.067 8.7 8.7 0 0 0 1.858 1.85 8.5 8.5 0 0 0 2.349 1.213q1.29.438 2.71.438m-1.758-3.071a.64.64 0 0 1-.445-.169.6.6 0 0 1-.177-.438.56.56 0 0 1 .177-.422.62.62 0 0 1 .445-.176h1.351v-4.922h-1.205a.64.64 0 0 1-.445-.169.6.6 0 0 1-.177-.437q0-.246.177-.423a.62.62 0 0 1 .445-.176h1.889q.322 0 .49.207.17.207.17.545v5.375h1.359q.261 0 .437.176a.55.55 0 0 1 .185.422q0 .262-.185.438a.6.6 0 0 1-.437.169zm1.69-9.083q-.485 0-.822-.337a1.12 1.12 0 0 1-.338-.822q0-.49.338-.83.338-.336.821-.337.491 0 .83.338.337.338.337.83 0 .483-.338.82a1.13 1.13 0 0 1-.829.338"/></svg>