<svg xmlns="http://www.w3.org/2000/svg" fill="none" viewBox="0 0 24 24"><path fill="#46464A" d="M11.996 22a9.596 9.596 0 0 1-3.14-.514 10.058 10.058 0 0 1-2.74-1.428 10.17 10.17 0 0 1-3.61-4.922A9.704 9.704 0 0 1 2 12.004c0-1.095.169-2.14.507-3.133a10.03 10.03 0 0 1 1.428-2.748A10.409 10.409 0 0 1 6.107 3.95a9.94 9.94 0 0 1 2.741-1.436A9.596 9.596 0 0 1 11.988 2c1.096 0 2.143.171 3.14.514a9.912 9.912 0 0 1 2.75 1.436 10.17 10.17 0 0 1 2.172 2.173 9.913 9.913 0 0 1 1.436 2.748c.342.993.514 2.037.514 3.133 0 1.09-.172 2.134-.514 3.132a9.912 9.912 0 0 1-1.436 2.749 10.17 10.17 0 0 1-2.173 2.173 10.03 10.03 0 0 1-2.748 1.428 9.528 9.528 0 0 1-3.133.514Zm0-1.428c.952 0 1.856-.146 2.71-.438a8.5 8.5 0 0 0 2.357-1.213 8.494 8.494 0 0 0 1.858-1.85 8.515 8.515 0 0 0 1.643-5.067 8.468 8.468 0 0 0-1.65-5.067 8.418 8.418 0 0 0-1.858-1.858 8.501 8.501 0 0 0-5.068-1.643c-.946 0-1.85.143-2.71.43a8.527 8.527 0 0 0-5.412 5.428 8.467 8.467 0 0 0-.43 2.71 8.514 8.514 0 0 0 1.643 5.067 8.724 8.724 0 0 0 1.858 1.85 8.528 8.528 0 0 0 2.349 1.213 8.37 8.37 0 0 0 2.71.438Zm-1.758-3.071a.636.636 0 0 1-.445-.169.594.594 0 0 1-.177-.438.56.56 0 0 1 .177-.422.62.62 0 0 1 .445-.176h1.351v-4.922h-1.205a.636.636 0 0 1-.445-.169.594.594 0 0 1-.177-.437c0-.164.059-.305.177-.423a.62.62 0 0 1 .445-.176h1.889c.215 0 .378.069.49.207.114.138.17.32.17.545v5.375h1.359a.59.59 0 0 1 .437.176.549.549 0 0 1 .185.422c0 .175-.062.32-.185.438a.609.609 0 0 1-.437.169h-4.054Zm1.69-9.083c-.323 0-.597-.112-.822-.337a1.118 1.118 0 0 1-.338-.822c0-.327.112-.604.338-.83.225-.224.499-.337.821-.337.328 0 .604.113.83.338.224.225.337.502.337.83 0 .322-.113.595-.338.82a1.127 1.127 0 0 1-.829.338Z"/></svg>