<svg xmlns="http://www.w3.org/2000/svg" fill="none" viewBox="0 0 24 24"><path fill="url(#a)" d="M4.372 5.457c.121-.157.25-.306.378-.457.006-.007.02-.009.025-.016.012-.014.03-.024.042-.038l.012-.015c.09-.085.185-.177.295-.258a4.4 4.4 0 0 1 1.22-.684c1.367-.49 2.889-.187 4.082.965 1.665 1.596 1.516 4.169.187 5.879-1.681 2.548-4.57 6.104-.57 9.29.72.573 1.252 1.045 3.517 1.714-1.48.28-2.855.193-4.383-.206-1.082-.625-2.782-1.961-3.36-3.766-.875-2.737 1.539-6.829 2.705-8.404 1.601-2.182-.99-4.542-2.897-1.906-.998 1.373-2.742 5.26-2.136 8.143.354 1.635.827 2.827 2.7 4.464a9 9 0 0 1-1.012-.713C.824 15.303 1.33 8.893 4.372 5.457"/><path fill="url(#b)" d="M19.19 18.543c-.122.157-.25.306-.38.457-.005.007-.018.009-.024.016-.012.015-.03.024-.042.039l-.012.014c-.09.085-.185.178-.295.258-.367.292-.78.523-1.22.684-1.367.49-2.888.188-4.082-.964-1.665-1.597-1.516-4.17-.187-5.88 1.68-2.548 4.57-6.104.57-9.29-.719-.573-1.252-1.045-3.517-1.714 1.48-.28 2.855-.193 4.384.207 1.08.624 2.781 1.96 3.36 3.765.874 2.737-1.54 6.829-2.706 8.404-1.601 2.182.99 4.542 2.897 1.906.998-1.373 2.742-5.26 2.136-8.143-.354-1.635-.826-2.827-2.7-4.464q.52.315 1.012.713c4.352 4.146 3.848 10.556.805 13.992"/><defs><linearGradient id="a" x1="2" x2="21.561" y1="12" y2="12" gradientUnits="userSpaceOnUse"><stop stop-color="#0082FA"/><stop offset="1" stop-color="#00F2FE"/></linearGradient><linearGradient id="b" x1="2" x2="21.561" y1="12" y2="12" gradientUnits="userSpaceOnUse"><stop stop-color="#0082FA"/><stop offset="1" stop-color="#00F2FE"/></linearGradient></defs></svg>