<svg xmlns="http://www.w3.org/2000/svg" fill="none" viewBox="0 0 24 24"><g clip-path="url(#a)"><path fill="#DF1A14" d="M12 24c6.627 0 12-5.373 12-12S18.627 0 12 0 0 5.373 0 12s5.373 12 12 12"/><path fill="#fff" d="M11.202 9.019a.46.46 0 0 1 .548.265c.215.49.407.997.63 1.488.133.294.586.332.763.06.297-.49.534-1.012.823-1.511.238-.31.667-.159.994-.189.34-.022.592.408.4.703-.934 1.745-1.875 3.483-2.81 5.23-.155.316-.666.316-.807-.016-.208-.506-.371-1.035-.571-1.542-.12-.332-.63-.385-.8-.067-.29.521-.541 1.065-.83 1.579-.141.233-.438.196-.668.196-.222-.015-.489.053-.659-.136a.49.49 0 0 1-.067-.59c.875-1.654 1.764-3.316 2.639-4.986.103-.19.192-.424.415-.483zm-3.054.129q.389-.023.778 0c.29.03.475.4.334.665-.868 1.64-1.742 3.27-2.609 4.903-.104.182-.185.424-.408.483-.259.039-.526.016-.785.016-.319.015-.586-.4-.393-.68q1.356-2.541 2.712-5.093c.075-.143.2-.287.371-.294m9.198.014c.281-.083.578-.022.867-.045.222.008.504-.038.667.159.2.204.14.59-.112.718-.51.325-1.015.672-1.533.99-.327.226-.808-.16-.668-.537.127-.302.304-.581.446-.876.08-.152.155-.348.333-.409m-2.454 4.519c.149-.091.334-.06.475.015.393.196.785.409 1.186.598.17.075.348.219.355.422.03.273-.2.537-.466.514-.571 0-1.142.007-1.705 0-.281 0-.504-.332-.4-.604.074-.197.185-.371.274-.56.066-.143.133-.317.281-.385"/></g><defs><clipPath id="a"><path fill="#fff" d="M0 0h24v24H0z"/></clipPath></defs></svg>