<svg xmlns="http://www.w3.org/2000/svg" fill="none" viewBox="0 0 24 24"><g clip-path="url(#a)"><path fill="#B2A3F6" d="M12 24c6.627 0 12-5.373 12-12S18.627 0 12 0 0 5.373 0 12s5.373 12 12 12Z"/><path fill="#fff" d="M10.375 9.666a.867.867 0 0 1-.875-.86c0-.474.392-.86.875-.86s.875.386.875.86c0 .476-.392.86-.875.86Zm2.499-.982a.868.868 0 0 1-.875-.86c0-.474.392-.86.875-.86.484 0 .875.385.875.86s-.391.86-.875.86Zm1.001 5.894A.867.867 0 0 1 13 13.72c0-.475.391-.86.875-.86.483 0 .875.385.875.86s-.392.86-.875.86ZM5.501 13.35a.492.492 0 0 1-.5-.49c0-.272.224-.492.5-.492.275 0 .5.22.5.491a.5.5 0 0 1-.311.456.492.492 0 0 1-.19.035Zm1.374 3.194a.37.37 0 0 1-.345-.226.375.375 0 0 1-.03-.143c0-.203.168-.368.375-.368.208 0 .376.165.376.368a.375.375 0 0 1-.376.37Zm4 2.456a.372.372 0 0 1-.376-.369c0-.204.168-.368.376-.368.207 0 .375.164.375.368a.372.372 0 0 1-.375.369Zm6.5-2.21a.372.372 0 0 1-.376-.37c0-.203.168-.368.376-.368.207 0 .375.165.375.369a.373.373 0 0 1-.375.369Zm-4-.737a.369.369 0 0 1-.346-.226.374.374 0 0 1-.03-.143c0-.203.169-.368.376-.368s.375.165.375.368a.375.375 0 0 1-.233.342.369.369 0 0 1-.142.027Zm2.25-1.72a.372.372 0 0 1-.376-.368c0-.204.168-.368.376-.368.207 0 .375.164.375.368a.373.373 0 0 1-.375.369ZM13 19c-.276 0-.5-.22-.5-.491s.224-.491.5-.491c.275 0 .5.22.5.49A.495.495 0 0 1 13 19Zm2.25-6.14a.492.492 0 1 1 0-.983c.276 0 .499.22.499.49a.5.5 0 0 1-.31.456.492.492 0 0 1-.19.036Zm.75 4.912a.49.49 0 0 1-.46-.301.5.5 0 0 1-.04-.19c0-.272.224-.491.5-.491s.5.22.5.49a.5.5 0 0 1-.5.492Zm-9.876-2.456a.62.62 0 0 1-.625-.614.62.62 0 0 1 .625-.614.62.62 0 0 1 .625.614.62.62 0 0 1-.625.614Zm6 2.456a.867.867 0 0 1-.875-.86c0-.475.392-.86.875-.86s.875.385.875.86c0 .474-.392.86-.875.86Zm-4.75-4.175a.868.868 0 0 1-.875-.86c0-.475.392-.86.875-.86.484 0 .875.385.875.86s-.392.86-.875.86Zm4.75 1.964a.62.62 0 0 1-.625-.614.62.62 0 0 1 .625-.613.62.62 0 0 1 .625.613.62.62 0 0 1-.625.614Zm-3-5.402a.372.372 0 0 1-.375-.37c0-.203.168-.368.375-.368.208 0 .376.165.376.369a.372.372 0 0 1-.376.369Zm2.375 1.473a.743.743 0 0 1-.75-.737c0-.407.336-.738.75-.738.413 0 .75.33.75.738a.744.744 0 0 1-.75.737Zm1.75.736a.49.49 0 0 1-.46-.302.499.499 0 0 1-.04-.19c0-.27.224-.49.5-.49s.5.22.5.49a.499.499 0 0 1-.5.492Zm.875-6.14a.372.372 0 0 1-.376-.368c0-.204.168-.369.376-.369.207 0 .375.165.375.369a.372.372 0 0 1-.375.368Zm-1.75 0a.614.614 0 0 1-.575-.377.624.624 0 0 1-.05-.237.623.623 0 0 1 .388-.57.614.614 0 0 1 .237-.044.613.613 0 0 1 .575.376.624.624 0 0 1 .05.238.627.627 0 0 1-.388.57.614.614 0 0 1-.237.044Zm.375 3.93c-.276 0-.5-.22-.5-.492 0-.271.224-.49.5-.49s.5.22.5.49a.496.496 0 0 1-.5.491ZM8 15.561a.744.744 0 0 1-.75-.737c0-.407.336-.737.75-.737s.75.33.75.736a.743.743 0 0 1-.75.738Zm7.25.736a.744.744 0 0 1-.75-.737c0-.407.335-.737.75-.737.414 0 .75.33.75.737a.744.744 0 0 1-.75.737Zm-1 1.72a.744.744 0 0 1-.75-.737c0-.408.336-.738.75-.738s.75.33.75.738a.743.743 0 0 1-.75.736Zm-5.875 0a.867.867 0 0 1-.874-.86c0-.475.391-.86.874-.86s.875.385.875.86-.392.86-.875.86ZM5.75 11.632a.744.744 0 0 1-.75-.737c0-.407.335-.737.75-.737.414 0 .75.33.75.737a.744.744 0 0 1-.75.737Z"/><path fill="#fff" d="M9.5 12.859a.99.99 0 0 1-1-.982.992.992 0 0 1 1-.983c.553 0 1 .44 1 .983a.991.991 0 0 1-1 .982Zm5.25-1.473a.992.992 0 0 1-1.001-.983.992.992 0 0 1 1-.982.992.992 0 0 1 1.001.982.991.991 0 0 1-1 .982v.001Zm2.749 4.176a.744.744 0 0 1-.75-.737c0-.407.336-.737.75-.737.413 0 .75.33.75.736a.743.743 0 0 1-.75.738Zm.75-2.948a.739.739 0 0 1-.749-.737c0-.407.335-.737.75-.737.413 0 .749.33.749.737a.743.743 0 0 1-.75.737Zm-2.874-3.438a.614.614 0 0 1-.576-.378.625.625 0 0 1-.05-.237.625.625 0 0 1 .389-.57.614.614 0 0 1 .237-.044.615.615 0 0 1 .575.377.624.624 0 0 1 .05.238.625.625 0 0 1-.389.569.614.614 0 0 1-.236.044Zm.124-1.966c-.276 0-.5-.22-.5-.49 0-.272.224-.492.5-.492s.5.22.5.491-.224.491-.5.491Zm1.125.492a.372.372 0 0 1-.376-.369c0-.203.168-.368.376-.368.207 0 .375.165.375.368a.372.372 0 0 1-.375.369Zm2 2.948a.373.373 0 0 1-.375-.37c0-.203.169-.368.376-.368.206 0 .375.165.375.369a.372.372 0 0 1-.375.369ZM7.875 7.456a.372.372 0 0 1-.375-.368c0-.204.168-.369.375-.369.208 0 .376.165.376.37a.372.372 0 0 1-.376.367Zm-.5 3.194A.372.372 0 0 1 7 10.28c0-.203.168-.368.376-.368.207 0 .375.165.375.369a.372.372 0 0 1-.375.369Zm1.001.49A.372.372 0 0 1 8 10.773c0-.204.168-.369.375-.369s.375.165.375.37a.372.372 0 0 1-.375.368Zm1.25-4.667a.372.372 0 0 1-.376-.37.37.37 0 0 1 .375-.367c.208 0 .376.164.376.368a.372.372 0 0 1-.376.369Zm9 7.37a.373.373 0 0 1-.376-.37c0-.203.169-.368.376-.368.206 0 .375.165.375.369a.372.372 0 0 1-.375.368Zm-1.25-3.93a.867.867 0 0 1-.875-.86c0-.475.391-.86.875-.86.483 0 .875.385.875.86 0 .474-.392.86-.875.86Zm-.751 1.964a.614.614 0 0 1-.575-.377.623.623 0 0 1-.05-.237c0-.34.28-.613.625-.613a.611.611 0 0 1 .575.376.623.623 0 0 1 .05.237.623.623 0 0 1-.625.614Zm-8.5-2.702a.614.614 0 0 1-.575-.376.624.624 0 0 1-.05-.237c0-.34.28-.615.625-.615a.62.62 0 0 1 .625.615.625.625 0 0 1-.388.569.614.614 0 0 1-.237.044Zm2.749-1.72a.614.614 0 0 1-.575-.376.625.625 0 0 1-.05-.237c0-.34.28-.614.626-.614a.62.62 0 0 1 .624.614.623.623 0 0 1-.388.57.614.614 0 0 1-.236.044h-.001Zm-1.624.247c-.276 0-.5-.22-.5-.492 0-.271.224-.49.5-.49s.5.22.5.49a.497.497 0 0 1-.5.492ZM6.5 9.666a.491.491 0 0 1-.46-.301.5.5 0 0 1-.04-.19c0-.27.224-.491.5-.491s.5.22.5.491a.5.5 0 0 1-.31.456.491.491 0 0 1-.19.035Zm10.5 3.93a.49.49 0 0 1-.46-.3.499.499 0 0 1-.04-.19c0-.272.223-.492.5-.492.275 0 .499.22.499.491a.499.499 0 0 1-.5.492Zm-5.375.246a.867.867 0 0 1-.875-.86c0-.475.392-.859.875-.859s.875.384.875.86c0 .475-.392.86-.875.86ZM10 14.334a.494.494 0 0 1-.5-.492c0-.271.223-.49.5-.49.276 0 .5.219.5.49a.499.499 0 0 1-.5.492Zm.249 1.964a.743.743 0 0 1-.749-.737c0-.407.335-.737.749-.737s.75.33.75.737a.744.744 0 0 1-.75.737Zm0 1.473a.492.492 0 0 1-.5-.49c0-.272.225-.492.5-.492.276 0 .5.22.5.492a.5.5 0 0 1-.5.49Z" opacity=".5"/></g><defs><clipPath id="a"><path fill="#fff" d="M0 0h24v24H0z"/></clipPath></defs></svg>