<svg xmlns="http://www.w3.org/2000/svg" fill="none" viewBox="0 0 24 24"><g clip-path="url(#a)"><path fill="#0AAD0A" d="M18.927 3.892c-1.06 0-1.817.462-2.515 1.466L14.4 8.248V0H9.6v8.248l-2.012-2.89c-.697-1.004-1.454-1.466-2.515-1.466-1.602 0-2.667 1.182-2.673 2.64-.004 1.246.584 2.06 1.824 2.858L12 14.4l7.776-5.01c1.24-.799 1.828-1.612 1.824-2.859-.005-1.457-1.071-2.639-2.673-2.639"/><path fill="#FF7009" d="M12 15.6c4.622 0 8.41 3.45 8.4 8.4H3.6c-.009-4.949 3.779-8.4 8.4-8.4"/></g><defs><clipPath id="a"><path fill="#fff" d="M0 0h24v24H0z"/></clipPath></defs></svg>