<svg xmlns="http://www.w3.org/2000/svg" fill="none" viewBox="0 0 24 24"><g clip-path="url(#a)"><path fill="#62757e" d="M.112 22.53c0 .26.074.295.326.295h1.51c.253 0 .327-.035.327-.295h.087v.97h-.087c0-.26-.07-.294-.327-.294H.438c-.256 0-.326.035-.326.294H.024v-.97zm22.387.858H5.569v-.857h16.93zm-.635-1.318H6.236v-1.185h15.628zM2.362 19.695.365 20.838v.007h1.997v.218H.45c-.33 0-.316.052-.372.346H0v-.73l1.91-1.091v-.007H0v-.218h2.362zM7.42 9.37q.345 0 .686.072c.056.012.084.027.087.092.038.761.088 1.522.119 2.283q.047 1.213.066 2.426c.01.573.003 1.147-.006 1.72a76 76 0 0 1-.05 1.907c-.029.682-.071 1.364-.11 2.045-.006.13-.02.26-.03.388a3.2 3.2 0 0 1-.762.106 3.2 3.2 0 0 1-.76-.106c-.011-.127-.025-.258-.032-.388-.038-.681-.081-1.363-.11-2.045a76 76 0 0 1-.055-3.627q.019-1.213.066-2.426c.03-.76.08-1.522.118-2.283.004-.065.031-.08.086-.092q.342-.073.687-.072m4.232 0q.346 0 .687.072c.055.012.083.027.087.092.037.761.088 1.522.118 2.283q.047 1.213.066 2.426a76 76 0 0 1-.057 3.627c-.027.682-.07 1.364-.108 2.045-.007.13-.02.26-.03.388a3.2 3.2 0 0 1-.763.106 3.2 3.2 0 0 1-.76-.106c-.01-.127-.024-.258-.032-.388-.038-.681-.081-1.363-.109-2.045a76 76 0 0 1-.05-1.907 53 53 0 0 1-.006-1.72q.02-1.213.067-2.426c.03-.76.08-1.522.118-2.283.003-.065.03-.08.086-.092q.341-.073.686-.072m4.91 0q.345 0 .686.072c.055.012.084.027.087.092.037.761.087 1.522.117 2.283q.047 1.213.067 2.426a76 76 0 0 1-.056 3.627c-.028.682-.072 1.364-.11 2.045-.007.13-.02.26-.03.388a3.2 3.2 0 0 1-.762.106 3.2 3.2 0 0 1-.76-.106c-.01-.127-.024-.258-.031-.388-.038-.681-.082-1.363-.11-2.045a76 76 0 0 1-.05-1.907 53 53 0 0 1-.006-1.72q.02-1.213.067-2.426c.03-.76.08-1.522.117-2.283.003-.065.032-.08.087-.092q.342-.073.686-.072m4.131 0q.346 0 .687.072c.055.012.083.027.087.092.037.761.087 1.522.117 2.283q.048 1.213.067 2.426c.01.573.004 1.147-.006 1.72q-.013.954-.05 1.907c-.028.682-.072 1.364-.11 2.045-.007.13-.02.26-.03.388a3.2 3.2 0 0 1-.762.106 3.2 3.2 0 0 1-.76-.106c-.01-.127-.024-.258-.032-.388-.038-.681-.081-1.363-.109-2.045a76 76 0 0 1-.056-3.627q.02-1.213.067-2.426c.03-.76.08-1.522.117-2.283.003-.065.032-.08.087-.092q.341-.073.686-.072M.52 16.272c-.274 0-.355.118-.355.377v.236h2.197v.38H.165v.239c0 .263.077.353.344.374v.097L0 17.96v-1.772l.52-.014zm1.842-2.87v1.381H.478c-.338 0-.348.004-.4.33H0v-1.659l.52-.01v.096c-.264 0-.355.128-.355.374v.27c0 .16.004.218.183.218h.698v-.419c0-.197-.09-.253-.27-.284v-.097h.737v.097c-.197 0-.302.084-.302.284v.42h.783c.193 0 .204-.042.204-.218V13.8c0-.236-.12-.294-.344-.312v-.096zm0-2.787-1.091.612v.215h1.091v.381H.478c-.338 0-.352 0-.4.33H0v-.89c0-.42.091-.938.628-.939.354 0 .527.2.58.53l1.154-.637zm-1.713.09c-.347 0-.484.176-.484.505 0 .25.095.232.316.232h.624v-.197c0-.301-.112-.54-.456-.54M2.362 7.36.365 8.503v.007h1.997v.219H.45c-.33 0-.316.051-.372.345H0v-.73l1.91-1.09v-.008H0v-.218h2.362zm19.319 1.67H6.136V7.385H21.68zm.367-2.65-.468.51H6.236l-.467-.51 8.14-1.877zM2.362 3.958v1.38H.478c-.338 0-.348.005-.4.33H0V4.01l.52-.011v.098c-.264 0-.355.127-.355.373v.27c0 .16.004.218.183.218h.698v-.419c0-.197-.091-.252-.27-.283v-.098h.737v.098c-.197 0-.302.083-.302.283v.419h.783c.193 0 .204-.041.204-.218v-.385c0-.235-.12-.294-.344-.311v-.097zm9.091-3.43c.239 0 .478.031.702.104l.02.578h-.1A.5.5 0 0 0 12 .998a.59.59 0 0 0-.513-.305c-.53 0-.6.575-.6.977 0 .43.133 1.039.68 1.039.232 0 .425-.045.615-.177v.239a1.6 1.6 0 0 1-.674.131c-.808 0-1.035-.515-1.035-1.232 0-.668.224-1.143.98-1.143m-5.225 2.34h-.366l-.262-.72h-.896l-.264.72h-.217L4.922.981c.014-.034.06-.172.06-.204 0-.145-.162-.145-.271-.163V.538h.66zM8.214.538c.425 0 .951.09.951.62 0 .35-.204.519-.537.57l.646 1.14H8.87l-.62-1.077h-.218v1.077h-.385v-1.86c0-.331-.001-.345-.334-.394V.538zm5.902 1.035h.955V.538h.386v2.33h-.386V1.736h-.955v1.132h-.386V.995c0-.301-.056-.308-.351-.339V.58l.737-.08zm3.68-.925c-.262 0-.297.074-.297.323v1.488c0 .25.035.322.298.322v.087h-.983v-.087c.264 0 .298-.07.298-.322V.971c0-.253-.034-.323-.297-.323V.562h.982zm2.517 1.788h.006L20.99.538h.228l-.857 2.33h-.305L19.368.981c-.105-.29-.123-.311-.425-.367V.538h.681zm3.634-1.385h-.098c0-.26-.13-.35-.38-.35h-.273c-.161 0-.221.003-.221.18v.688h.424c.2 0 .257-.09.288-.266h.1v.727h-.1c0-.194-.084-.298-.288-.298h-.424v.773c0 .19.042.2.221.2h.39c.238 0 .298-.117.315-.339H24l-.01.502h-1.401v-1.86c0-.331-.004-.342-.334-.394V.538h1.681zM.52.98c-.274 0-.355.117-.355.376v.237h2.197v.38H.165v.239c0 .263.077.353.344.374v.097L0 2.67V.897L.52.884zm4.244 1.004h.776l-.4-1.01zM8.267.701c-.253 0-.236.094-.236.312v.616h.2c.306 0 .548-.111.548-.45C8.78.836 8.6.7 8.267.7"/></g><defs><clipPath id="a"><path fill="#fff" d="M0 0h24v24H0z"/></clipPath></defs></svg>