<svg xmlns="http://www.w3.org/2000/svg" fill="none" viewBox="0 0 24 24"><path fill="#62757E" fill-rule="evenodd" d="M2 12C2 6.5 6.5 2 12 2s10 4.5 10 10c0 .417 0 .833-.083 1.083-.084.5-.5.834-.917.75-.5-.083-.833-.5-.75-.916.083-.334.083-.667.083-1 0-.667-.083-1.334-.25-1.917h-4.166c.166.833.166 1.667.166 2.5 0 .5-.416.833-.833.833-.5 0-.833-.333-.833-.833 0-.833-.084-1.667-.167-2.417H9.667c-.167 1.084-.25 2.167-.084 3.5 0 .084.021.167.042.25.02.084.042.167.042.25h3.583c.5 0 .833.334.833.834s-.333.833-.833.833H10c.583 2 1.583 3.583 2.417 4.667.416 0 .833.333.833.75a.835.835 0 0 1-.833.833H12C6.5 22 2 17.5 2 12m6.333-3.583C8.75 6.5 9.583 5 10.25 3.833c-2.5.584-4.667 2.25-5.75 4.584zm-3.75 7.25c1.084 2.25 3.167 3.916 5.667 4.5a14.1 14.1 0 0 1-1.917-4.5zM8 14c-.083-.083-.083-.25-.083-.333-.167-1.25-.084-2.5.083-3.584H3.917A7 7 0 0 0 3.667 12c0 .667.083 1.417.25 2zm2.083-5.583h3.834c-.5-1.75-1.25-3.084-1.917-4.084-.667 1-1.417 2.334-1.917 4.084m5.5 0H19.5c-1.083-2.334-3.333-4.084-5.917-4.584.75 1.084 1.5 2.667 2 4.584m-.25 12.75c0 .46.373.833.834.833h5c.46 0 .833-.372.833-.833v-3.333a.833.833 0 0 0-.833-.834h-.001v-.832c0-1.38-1.121-2.5-2.5-2.5a2.503 2.503 0 0 0-2.5 2.5V17a.833.833 0 0 0-.833.834zm5-2.5v1.697H17v-1.696zm-.833-2.5V17h-1.667v-.832a.834.834 0 0 1 1.667 0" clip-rule="evenodd"/></svg>