<svg xmlns="http://www.w3.org/2000/svg" fill="none" viewBox="0 0 24 24"><path fill="#62757E" d="M12 2C6.5 2 2 6.5 2 12s4.5 10 10 10 10-4.5 10-10S17.5 2 12 2m8.083 12h-4.25c0-.083.084-.25.084-.333.166-1.25.083-2.5-.084-3.584H20c.167.584.25 1.25.25 1.917.083.667 0 1.417-.167 2M9.667 14c0-.167-.084-.333-.084-.5-.166-1.25-.083-2.333.084-3.417h4.583c.167 1.084.25 2.167.083 3.417 0 .167-.083.333-.083.5zm4.166 1.667a13.8 13.8 0 0 1-1.916 4c-.75-1-1.417-2.334-1.917-4zM3.667 12c0-.667.083-1.333.25-1.917H8c-.167 1.084-.25 2.334-.083 3.584 0 .083 0 .25.083.333H3.917c-.167-.583-.25-1.333-.25-2M10 8.417c.5-1.75 1.25-3.084 1.917-4.084.666 1 1.416 2.334 1.916 4.084zm9.5 0h-4a15.7 15.7 0 0 0-2-4.584c2.667.5 4.917 2.25 6 4.584m-9.25-4.584C9.583 5 8.75 6.5 8.333 8.417H4.5c1.083-2.334 3.25-4 5.75-4.584M4.5 15.667h3.75c.417 1.75 1.167 3.25 1.917 4.5-2.417-.584-4.5-2.25-5.667-4.5m9.083 4.5c.75-1.167 1.5-2.667 1.917-4.5h4a8.39 8.39 0 0 1-5.917 4.5"/></svg>