<svg xmlns="http://www.w3.org/2000/svg" fill="none" viewBox="0 0 24 24"><path fill="#62757E" fill-rule="evenodd" d="M2 11.6C2 6.32 6.32 2 11.6 2s9.6 4.32 9.6 9.6c0 .4 0 .8-.08 1.04-.08.48-.48.8-.88.72-.48-.08-.8-.48-.72-.88.08-.32.08-.64.08-.96 0-.64-.08-1.28-.24-1.84h-4c.16.8.16 1.6.16 2.4 0 .48-.4.8-.8.8-.48 0-.8-.32-.8-.8 0-.8-.08-1.6-.16-2.32h-4.4c-.16 1.04-.24 2.08-.08 3.36 0 .08.02.16.04.24s.04.16.04.24h2.48c.48 0 .8.32.8.8s-.32.8-.8.8H9.68c.56 1.92 1.52 3.44 2.32 4.48.4 0 .8.32.8.72s-.32.8-.8.8h-.4c-5.28 0-9.6-4.32-9.6-9.6m6.08-3.44c.4-1.84 1.2-3.28 1.84-4.4-2.4.56-4.48 2.16-5.52 4.4zm-3.6 6.96c1.04 2.16 3.04 3.76 5.44 4.32a13.5 13.5 0 0 1-1.84-4.32zm3.28-1.6c-.08-.08-.08-.24-.08-.32-.16-1.2-.08-2.4.08-3.44H3.84c-.16.56-.24 1.2-.24 1.84s.08 1.36.24 1.92zm2-5.36h3.68c-.48-1.68-1.2-2.96-1.84-3.92-.64.96-1.36 2.24-1.84 3.92m5.28 0h3.76c-1.04-2.24-3.2-3.92-5.68-4.4.72 1.04 1.44 2.56 1.92 4.4M22 18.8v-1.6h-.914a3.2 3.2 0 0 0-.339-.814l.619-.62-1.132-1.132-.619.62a3.2 3.2 0 0 0-.814-.34V14h-1.6v.914q-.436.115-.816.34l-.648-.648-1.132 1.132.649.648a3.2 3.2 0 0 0-.34.814H14v1.6h.914q.114.435.34.815l-.676.675 1.132 1.132.675-.676q.378.226.816.34l-.001.913 1.6.001v-.914q.435-.114.814-.34l.65.648 1.13-1.133-.648-.645q.226-.38.34-.817zm-5.6-.8a1.6 1.6 0 0 1 3.2 0c0 .881-.718 1.6-1.6 1.6s-1.6-.719-1.6-1.6" clip-rule="evenodd"/></svg>