<svg xmlns="http://www.w3.org/2000/svg" fill="none" viewBox="0 0 24 24"><path fill="#62757E" fill-rule="evenodd" d="M2 11.6C2 6.32 6.32 2 11.6 2c4.96 0 9.2 3.92 9.6 8.72.08.48-.24.88-.72.88-.48.08-.88-.32-.88-.72s-.08-.8-.16-1.2h-4c0 .2.02.38.04.56s.04.36.04.56c.08.48-.24.88-.72.88h-.08c-.4 0-.8-.32-.8-.72-.04-.2-.06-.4-.08-.6s-.04-.4-.08-.6h-4.4c-.16 1.04-.24 2.08-.08 3.36 0 .08.02.16.04.24s.04.16.04.24h1.6c.48 0 .8.32.8.8s-.32.8-.8.8H9.68c.64 2.08 1.68 3.68 2.56 4.72.08 0 .08.08.08.08 0 .04.02.06.04.08s.04.04.04.08v.4c-.046.046-.066.066-.074.09-.006.017-.006.036-.006.07l-.08.08c0 .08 0 .16-.08.16-.08.08-.08.08-.16.08 0 .08-.08.08-.08.08-.16.08-.24.08-.32.08-5.28 0-9.6-4.32-9.6-9.6m6.08-3.44c.4-1.84 1.2-3.28 1.84-4.4-2.4.56-4.48 2.16-5.52 4.4zm-3.6 6.96c1.04 2.16 3.04 3.76 5.44 4.32a13.5 13.5 0 0 1-1.84-4.32zm3.28-1.6c-.08-.08-.08-.24-.08-.32-.16-1.2-.08-2.4.08-3.44H3.84c-.16.56-.24 1.2-.24 1.84q0 .96.24 1.92zm2-5.36h3.68c-.48-1.68-1.2-3.04-1.84-3.92-.64.96-1.36 2.32-1.84 3.92m5.28 0h3.76c-1.04-2.24-3.2-3.92-5.68-4.4.72 1.04 1.44 2.56 1.92 4.4M12.4 17.2c0 2.646 2.153 4.8 4.8 4.8s4.8-2.154 4.8-4.8-2.153-4.8-4.8-4.8a4.806 4.806 0 0 0-4.8 4.8m1.6 0c0-1.766 1.436-3.2 3.2-3.2s3.2 1.434 3.2 3.2c0 1.765-1.435 3.2-3.2 3.2a3.204 3.204 0 0 1-3.2-3.2m2.4-.8V18h3.2v-1.6H18v-1.6h-1.6z" clip-rule="evenodd"/></svg>