<svg xmlns="http://www.w3.org/2000/svg" fill="none" viewBox="0 0 24 24"><g clip-path="url(#a)"><path fill="#57BEEA" d="M12 24c6.627 0 12-5.373 12-12S18.627 0 12 0 0 5.373 0 12s5.373 12 12 12Z"/><path fill="#fff" d="M6.126 14.015A1.727 1.727 0 0 1 4.2 12.297a1.726 1.726 0 0 1 1.707-1.73c.61-2.806 3.099-4.907 6.074-4.907.556 0 1.095.073 1.607.21a1.719 1.719 0 0 1 2.652-.262 1.728 1.728 0 0 1 .295 2.045 6.241 6.241 0 0 1 1.665 4.255 6.243 6.243 0 0 1-1.848 4.445c.207.285.33.637.33 1.017a1.727 1.727 0 0 1-1.722 1.73 1.723 1.723 0 0 1-1.603-1.097 6.214 6.214 0 0 1-1.375.153c-2.699 0-4.996-1.727-5.856-4.141Zm.311-.067a5.906 5.906 0 0 0 6.832 3.75 1.726 1.726 0 0 1 1.69-2.057c.459 0 .876.18 1.184.473a5.928 5.928 0 0 0 1.742-4.206 5.92 5.92 0 0 0-1.53-3.984 1.714 1.714 0 0 1-2.553.127 1.727 1.727 0 0 1-.368-1.893 5.888 5.888 0 0 0-1.453-.181c-2.81 0-5.162 1.973-5.757 4.617a1.728 1.728 0 0 1 1.42 1.703 1.73 1.73 0 0 1-1.207 1.651Zm5.544-.308a1.73 1.73 0 0 1-1.723-1.732c0-.957.771-1.732 1.723-1.732.952 0 1.724.775 1.724 1.732a1.727 1.727 0 0 1-1.724 1.732Z"/></g><defs><clipPath id="a"><path fill="#fff" d="M0 0h24v24H0z"/></clipPath></defs></svg>