<svg xmlns="http://www.w3.org/2000/svg" fill="none" viewBox="0 0 24 24"><g clip-path="url(#a)"><path fill="#57BEEA" d="M12 24c6.627 0 12-5.373 12-12S18.627 0 12 0 0 5.373 0 12s5.373 12 12 12"/><path fill="#fff" d="M6.126 14.015A1.727 1.727 0 0 1 4.2 12.297a1.726 1.726 0 0 1 1.707-1.73c.61-2.806 3.099-4.907 6.075-4.907.555 0 1.094.073 1.607.21a1.717 1.717 0 0 1 2.651-.262c.323.325.504.764.503 1.222 0 .298-.075.579-.207.823a6.24 6.24 0 0 1 1.664 4.255 6.25 6.25 0 0 1-1.848 4.445c.208.285.33.637.33 1.017a1.725 1.725 0 0 1-1.722 1.73 1.72 1.72 0 0 1-1.603-1.097 6.2 6.2 0 0 1-1.375.153c-2.699 0-4.996-1.727-5.856-4.141m.312-.067a5.906 5.906 0 0 0 6.831 3.75 1.726 1.726 0 0 1 1.69-2.057c.459 0 .877.18 1.185.473a5.93 5.93 0 0 0 1.741-4.206 5.92 5.92 0 0 0-1.53-3.984 1.714 1.714 0 0 1-2.553.127A1.73 1.73 0 0 1 13.3 6.83c0-.238.048-.466.134-.672a6 6 0 0 0-1.452-.181c-2.81 0-5.163 1.973-5.758 4.617a1.73 1.73 0 0 1 1.42 1.703 1.73 1.73 0 0 1-1.207 1.651m5.544-.308a1.73 1.73 0 0 1-1.724-1.732c0-.957.772-1.732 1.724-1.732s1.724.775 1.724 1.732a1.73 1.73 0 0 1-1.724 1.732"/></g><defs><clipPath id="a"><path fill="#fff" d="M0 0h24v24H0z"/></clipPath></defs></svg>