<svg xmlns="http://www.w3.org/2000/svg" fill="none" viewBox="0 0 24 24"><g clip-path="url(#a)"><path fill="#0CAFA5" d="M12 24c6.627 0 12-5.373 12-12S18.627 0 12 0 0 5.373 0 12s5.373 12 12 12"/><path fill="#fff" d="M6.717 8.408c-.023-.012-.042-.002-.042.021v1.369q0 .018.012.035.01.016.03.027l2.026 1a.1.1 0 0 1 .03.027q.01.016.012.035v4.952a.1.1 0 0 0 .013.036q.011.017.03.027l1.388.684c.023.012.042.002.042-.021v-6.403a.1.1 0 0 0-.012-.036.1.1 0 0 0-.03-.027zm10.567 0c.023-.012.042-.002.042.021v1.369a.1.1 0 0 1-.012.035.1.1 0 0 1-.03.027l-2.026.999a.1.1 0 0 0-.03.027.1.1 0 0 0-.012.036v4.952a.1.1 0 0 1-.013.036.1.1 0 0 1-.03.027l-1.388.684c-.023.012-.042.002-.042-.021v-6.403q0-.019.012-.036a.1.1 0 0 1 .03-.027z"/><path fill="#fff" d="M17.558 5.783c0-.023-.019-.032-.042-.02l-5.474 2.702a.1.1 0 0 1-.083 0L6.485 5.762c-.024-.012-.043-.002-.043.021v1.369q.001.018.013.035.01.016.03.027l4.738 2.339a.1.1 0 0 1 .03.027q.01.016.011.035v8.493q.001.018.013.035.011.017.03.027l.651.322a.1.1 0 0 0 .085 0l.651-.322a.1.1 0 0 0 .03-.027.1.1 0 0 0 .012-.035V9.616q0-.02.013-.036a.1.1 0 0 1 .03-.027l4.737-2.339a.1.1 0 0 0 .03-.027.1.1 0 0 0 .012-.036zm-5.532 3.458q-.01-.001-.005-.008.005-.006.01 0 .003.007-.005.008"/><path fill="#fff" d="M11.313 5.604a.06.06 0 0 0-.034.018.05.05 0 0 0-.014.032v1.708q0 .02.012.036t.03.026l.651.322a.1.1 0 0 0 .085 0l.651-.322a.1.1 0 0 0 .03-.027.1.1 0 0 0 .012-.035V5.653a.05.05 0 0 0-.013-.032.06.06 0 0 0-.034-.017l-.64-.1a.4.4 0 0 0-.096 0z"/></g><defs><clipPath id="a"><path fill="#fff" d="M0 0h24v24H0z"/></clipPath></defs></svg>