<svg xmlns="http://www.w3.org/2000/svg" fill="none" viewBox="0 0 24 24"><g clip-path="url(#a)"><path fill="#0CAFA5" d="M12 24c6.627 0 12-5.373 12-12S18.627 0 12 0 0 5.373 0 12s5.373 12 12 12Z"/><path fill="#fff" d="M6.717 8.408c-.023-.012-.042-.002-.042.021v1.369c0 .012.005.024.012.035.007.011.017.02.03.027l2.026 1a.086.086 0 0 1 .03.027c.007.01.011.023.012.035v4.953a.072.072 0 0 0 .013.035c.007.011.018.02.03.027l1.388.684c.023.012.042.002.042-.021v-6.403a.07.07 0 0 0-.012-.036.086.086 0 0 0-.03-.027l-3.5-1.726Zm10.567 0c.023-.012.042-.002.042.021v1.369a.071.071 0 0 1-.012.035.086.086 0 0 1-.03.027l-2.026.999a.087.087 0 0 0-.03.027.071.071 0 0 0-.012.036v4.952a.072.072 0 0 1-.013.036.088.088 0 0 1-.03.027l-1.388.684c-.023.012-.042.002-.042-.021v-6.403a.07.07 0 0 1 .012-.036.086.086 0 0 1 .03-.027l3.5-1.726Z"/><path fill="#fff" d="M17.558 5.783c0-.023-.019-.032-.042-.02l-5.474 2.702a.107.107 0 0 1-.083 0L6.485 5.762c-.024-.012-.043-.002-.043.021v1.369c0 .012.005.024.012.035.008.01.018.02.03.027l4.738 2.339a.087.087 0 0 1 .03.027c.007.01.011.023.012.035v8.493a.06.06 0 0 0 .013.035c.007.011.017.02.03.027l.65.322a.11.11 0 0 0 .086 0l.651-.322a.085.085 0 0 0 .03-.027.071.071 0 0 0 .012-.035V9.616a.07.07 0 0 1 .012-.036.088.088 0 0 1 .03-.027l4.738-2.339a.087.087 0 0 0 .03-.027.07.07 0 0 0 .012-.036V5.783Zm-5.533 3.458c-.005 0-.007-.004-.005-.008.003-.004.008-.004.01 0 .003.004 0 .008-.005.008Z"/><path fill="#fff" d="M11.313 5.604a.064.064 0 0 0-.035.018.048.048 0 0 0-.014.032v1.708a.078.078 0 0 0 .043.062l.651.322a.106.106 0 0 0 .085 0l.651-.322a.087.087 0 0 0 .03-.027.072.072 0 0 0 .012-.035V5.653a.048.048 0 0 0-.014-.032.063.063 0 0 0-.033-.017l-.641-.1a.37.37 0 0 0-.095 0l-.64.1Z"/></g><defs><clipPath id="a"><path fill="#fff" d="M0 0h24v24H0z"/></clipPath></defs></svg>