<svg xmlns="http://www.w3.org/2000/svg" fill="none" viewBox="0 0 24 24"><g clip-path="url(#a)"><path fill="#1C1C1C" d="M12 24c6.627 0 12-5.373 12-12S18.627 0 12 0 0 5.373 0 12s5.373 12 12 12"/><path fill="#fff" d="M17.525 8.75v6.5L12 18.5l-5.525-3.25v-6.5L12 5.5zm-5.7 3.515-.513.303.96.56.51-.3 1.364.802-2.035 1.196-4.222-2.46-.017 1.197 4.242 2.464 4.075-2.397-2.388-1.405.481-.284-.96-.56-.477.282-.67-.394.586-.347-.96-.56-.582.344-1.14-.671 2.034-1.197 2.813 1.644 1.031-.61-3.846-2.234-4.075 2.397 2.164 1.273-.409.24.96.562.405-.24z"/></g><defs><clipPath id="a"><path fill="#fff" d="M0 0h24v24H0z"/></clipPath></defs></svg>