<svg xmlns="http://www.w3.org/2000/svg" fill="none" viewBox="0 0 24 24"><path fill="#000" d="M16.227 4.858c.568 0 1.029-.484 1.029-1.08 0-.594-.461-1.077-1.03-1.077-.567.003-1.028.486-1.028 1.081s.461 1.076 1.029 1.076m.303 2.804a.87.87 0 0 0 .62-.27.92.92 0 0 0 .252-.644c0-.503-.39-.914-.872-.914-.48 0-.87.408-.87.914s.388.914.87.914m2.393.357c.479 0 .869-.408.869-.911s-.39-.912-.87-.912c-.478 0-.868.408-.868.912 0 .503.39.911.869.911m-.287 2.399c.41 0 .743-.35.743-.779s-.333-.778-.743-.778c-.411 0-.744.349-.744.778s.333.779.744.779m1.915.778c.414 0 .748-.352.748-.784s-.334-.784-.748-.784a.73.73 0 0 0-.532.232.78.78 0 0 0-.217.552c0 .432.336.784.749.784m-4.323-1.102a.75.75 0 0 0 .541-.236.8.8 0 0 0 .221-.56v-.002c0-.44-.34-.798-.762-.798s-.762.357-.762.798c0 .438.341.798.762.798m-.69 1.908c.353 0 .638-.3.638-.668a.67.67 0 0 0-.184-.47.63.63 0 0 0-.452-.198h-.002c-.354 0-.639.3-.639.668s.285.668.639.668m2.396.337a.62.62 0 0 0 .45-.196.66.66 0 0 0 .183-.467v-.001c0-.368-.283-.665-.633-.665s-.633.297-.633.665a.67.67 0 0 0 .18.466.64.64 0 0 0 .447.198zm1.91.775c.353 0 .638-.3.638-.67s-.285-.67-.638-.67-.639.3-.639.67a.68.68 0 0 0 .184.47.63.63 0 0 0 .452.2zm-.944 1.448c.299 0 .54-.254.54-.565a.553.553 0 0 0-.54-.565.553.553 0 0 0-.539.565c0 .31.241.565.54.565m-1.919-.762c.304 0 .553-.26.553-.58a.566.566 0 0 0-.553-.578.566.566 0 0 0-.552.579c0 .319.249.579.552.579m-2.393-.354a.55.55 0 0 0 .387-.17.583.583 0 0 0 0-.805.55.55 0 0 0-.386-.172.55.55 0 0 0-.387.171.583.583 0 0 0 0 .805c.101.107.24.168.386.171m1.33 1.36a.487.487 0 0 0 .477-.497.5.5 0 0 0-.136-.35.47.47 0 0 0-.336-.147h-.004a.49.49 0 0 0-.476.497.5.5 0 0 0 .135.35.47.47 0 0 0 .336.147zm1.92.776a.493.493 0 0 0 .48-.503.49.49 0 0 0-.48-.502.48.48 0 0 0-.345.147.51.51 0 0 0 0 .71.48.48 0 0 0 .344.148m-1.081.582a.39.39 0 0 0 .38-.398.4.4 0 0 0-.111-.28.38.38 0 0 0-.27-.117.39.39 0 0 0-.379.397c0 .105.04.205.11.28a.38.38 0 0 0 .27.118m-1.024.312a.34.34 0 0 0 .243-.106.36.36 0 0 0 .1-.253c0-.2-.155-.36-.343-.36a.34.34 0 0 0-.244.105.36.36 0 0 0-.1.253v.001a.36.36 0 0 0 .097.252c.063.067.15.106.24.108zm-.897-1.035a.42.42 0 0 0 .409-.427.42.42 0 0 0-.409-.427.42.42 0 0 0-.408.427c0 .112.042.22.119.3s.18.126.29.127m-1.315-.98a.487.487 0 0 0 .476-.497.486.486 0 0 0-.476-.497.487.487 0 0 0-.477.497c0 .131.05.257.14.35.089.093.21.146.337.147m3.9 6.23c.567 0 1.025-.48 1.025-1.073s-.459-1.074-1.024-1.074c-.566 0-1.024.481-1.024 1.074 0 .592.458 1.073 1.024 1.073m-2.6-1.358c.471 0 .854-.4.854-.895 0-.494-.383-.895-.854-.895-.47 0-.853.4-.853.895 0 .494.382.895.853.895m-1.486 1.966c.477 0 .861-.402.861-.903 0-.497-.384-.903-.86-.903-.477 0-.862.403-.862.903a.9.9 0 0 0 .25.636.85.85 0 0 0 .611.267m-.447-3.623a.73.73 0 0 0 .53-.232.78.78 0 0 0 .216-.55.8.8 0 0 0-.216-.55.75.75 0 0 0-.53-.232.73.73 0 0 0-.53.231.78.78 0 0 0-.216.55c0 .431.335.782.746.782m-1.482 1.993c.41 0 .743-.349.743-.778s-.332-.779-.743-.779c-.41 0-.744.349-.744.779a.8.8 0 0 0 .214.547c.138.146.327.23.525.231zM9.81 21.021c.411 0 .741-.349.741-.776 0-.43-.332-.777-.74-.777-.411 0-.742.35-.742.777s.333.776.741.776m-1.33-1.76a.63.63 0 0 0 .45-.197.67.67 0 0 0 .184-.466c0-.366-.283-.663-.633-.663a.63.63 0 0 0-.448.198.674.674 0 0 0 0 .93.63.63 0 0 0 .448.197m1.601-1.36a.63.63 0 0 0 .45-.196.67.67 0 0 0 .183-.466.647.647 0 0 0-.633-.663.63.63 0 0 0-.447.197.674.674 0 0 0-.002.93.63.63 0 0 0 .447.198zm1.494-1.993a.62.62 0 0 0 .45-.196.66.66 0 0 0 .183-.467v-.001c0-.368-.283-.665-.633-.665a.62.62 0 0 0-.45.196.66.66 0 0 0-.184.467v.002c0 .367.283.664.634.664m-2.285.275c.304 0 .55-.257.55-.576a.563.563 0 0 0-.55-.576.563.563 0 0 0-.55.576c0 .319.247.576.55.576m-1.592 1.353a.53.53 0 0 0 .386-.168.57.57 0 0 0 .159-.4v-.002a.57.57 0 0 0-.157-.401.54.54 0 0 0-.385-.17h-.003a.53.53 0 0 0-.387.168.57.57 0 0 0-.158.401v.002a.58.58 0 0 0 .158.402.55.55 0 0 0 .387.168m-.366-1.586a.47.47 0 0 0 .334-.146.5.5 0 0 0 .137-.346.48.48 0 0 0-.471-.492.483.483 0 0 0-.471.492c0 .273.212.492.47.492m-.014-1.392a.4.4 0 0 0 .287-.126.42.42 0 0 0 .117-.298.415.415 0 0 0-.404-.425.414.414 0 0 0-.403.425c0 .235.18.424.403.424M7.54 13.4a.35.35 0 0 0 .343-.36.353.353 0 0 0-.343-.36.35.35 0 0 0-.343.36c0 .197.152.36.343.36m1.373-.194a.42.42 0 0 0 .408-.428.42.42 0 0 0-.408-.427.42.42 0 0 0-.409.428c0 .112.043.22.12.3.076.08.18.126.289.127m1.507-.607a.49.49 0 0 0 .476-.497.5.5 0 0 0-.137-.35.47.47 0 0 0-.335-.147h-.004a.49.49 0 0 0-.476.497.5.5 0 0 0 .137.35.48.48 0 0 0 .336.147zm.358 1.579c.144 0 .281-.06.382-.164a.57.57 0 0 0 0-.79.53.53 0 0 0-.765 0 .57.57 0 0 0 0 .79.53.53 0 0 0 .381.164zm-1.846.42a.48.48 0 0 0 .471-.495.484.484 0 0 0-.47-.495.46.46 0 0 0-.335.146.5.5 0 0 0-.137.347v.002a.5.5 0 0 0 .134.348.47.47 0 0 0 .332.147zm-5.208-.733c.562 0 1.02-.48 1.02-1.069 0-.59-.458-1.068-1.02-1.068S2.7 12.21 2.7 12.799c0 .59.458 1.068 1.02 1.068m2.317-1.908c.484 0 .874-.411.874-.917s-.393-.917-.874-.917a.87.87 0 0 0-.621.27.93.93 0 0 0-.254.645v.002c0 .509.393.917.875.917m-.904-2.352c.481 0 .869-.408.869-.912 0-.503-.39-.911-.87-.911a.85.85 0 0 0-.616.269.9.9 0 0 0-.252.64v.002c-.003.24.087.47.25.641a.86.86 0 0 0 .614.271zm2.233-1.114c.411 0 .747-.35.747-.782s-.335-.782-.747-.782c-.411 0-.746.35-.746.782s.336.782.746.782m.913 2.346c.414 0 .749-.351.749-.784s-.335-.784-.749-.784c-.413 0-.748.351-.748.784s.335.784.748.784m2.033-.487a.63.63 0 0 0 .452-.198.67.67 0 0 0 .184-.47.68.68 0 0 0-.179-.468.64.64 0 0 0-.447-.2.62.62 0 0 0-.453.186.66.66 0 0 0-.193.462v.02a.67.67 0 0 0 .182.469.63.63 0 0 0 .45.199zm1.756.006c.304 0 .55-.257.55-.573a.56.56 0 0 0-.55-.574.55.55 0 0 0-.392.168.583.583 0 0 0 0 .811.55.55 0 0 0 .392.168m1.451.345a.475.475 0 0 0 .464-.484.473.473 0 0 0-.464-.484.46.46 0 0 0-.328.143.5.5 0 0 0-.135.34c.003.266.209.485.463.485m.19-1.766a.4.4 0 0 0 .285-.125.43.43 0 0 0 .118-.297.413.413 0 0 0-.404-.422.413.413 0 0 0-.403.422c0 .111.042.218.117.297a.4.4 0 0 0 .286.125m-1.117-.578a.46.46 0 0 0 .328-.141.49.49 0 0 0 0-.679.457.457 0 0 0-.657 0 .49.49 0 0 0-.001.679c.087.09.205.14.328.14zm-1.434-.35a.54.54 0 0 0 .387-.17.58.58 0 0 0 .158-.4.556.556 0 0 0-.545-.571.56.56 0 0 0-.544.57.58.58 0 0 0 .157.401.55.55 0 0 0 .386.17zm-1.753.002c.354 0 .639-.3.639-.668s-.285-.668-.639-.668c-.353 0-.638.3-.638.668 0 .176.066.345.186.47s.282.196.452.198m-2.36-1.67c.4 0 .722-.339.722-.757 0-.42-.325-.758-.723-.758-.4 0-.722.339-.722.758 0 .418.324.757.722.757m2.031-.46c.354 0 .639-.299.639-.667s-.285-.668-.639-.668c-.353 0-.638.3-.638.668s.285.668.638.668m1.756.01c.303 0 .55-.258.55-.576a.563.563 0 0 0-.55-.576.54.54 0 0 0-.39.17.57.57 0 0 0-.16.404v.002c0 .151.057.297.16.405a.55.55 0 0 0 .39.17m1.44.342a.473.473 0 0 0 .464-.484.473.473 0 0 0-.464-.484.46.46 0 0 0-.331.141.49.49 0 0 0 0 .685c.088.09.207.142.331.142m1.107.593a.4.4 0 0 0 .293-.128.44.44 0 0 0 .12-.304.423.423 0 0 0-.413-.433.424.424 0 0 0-.414.433c0 .238.186.432.414.432m.812.681a.33.33 0 0 0 .24-.105.35.35 0 0 0 .1-.25V7.15a.36.36 0 0 0-.098-.251.34.34 0 0 0-.242-.106.33.33 0 0 0-.242.105.35.35 0 0 0-.099.25v.002a.36.36 0 0 0 .096.25.34.34 0 0 0 .24.106z"/></svg>