<svg xmlns="http://www.w3.org/2000/svg" fill="none" viewBox="0 0 24 24"><path fill="#000" d="M16.227 4.858c.568 0 1.029-.484 1.029-1.08 0-.594-.461-1.077-1.03-1.077-.567.003-1.028.486-1.028 1.081s.461 1.076 1.029 1.076Zm.303 2.804a.865.865 0 0 0 .62-.27.923.923 0 0 0 .252-.644c0-.503-.39-.914-.872-.914-.48 0-.87.408-.87.914s.388.914.87.914Zm2.393.357c.479 0 .869-.408.869-.911 0-.504-.39-.912-.87-.912-.478 0-.868.408-.868.912 0 .503.39.911.869.911Zm-.287 2.399c.41 0 .743-.35.743-.779 0-.43-.333-.778-.743-.778-.411 0-.744.349-.744.778 0 .43.333.779.744.779Zm1.915.778c.414 0 .748-.352.748-.784 0-.433-.334-.784-.748-.784a.733.733 0 0 0-.532.232.78.78 0 0 0-.217.552c0 .432.336.784.749.784Zm-4.323-1.102a.746.746 0 0 0 .541-.236.792.792 0 0 0 .221-.56v-.002c0-.44-.34-.798-.762-.798s-.762.357-.762.798c0 .438.341.798.762.798Zm-.69 1.908c.353 0 .638-.3.638-.668a.674.674 0 0 0-.184-.47.632.632 0 0 0-.452-.198h-.002c-.354 0-.639.3-.639.668 0 .368.285.668.639.668Zm2.396.337a.622.622 0 0 0 .45-.196.662.662 0 0 0 .183-.467v-.002c0-.367-.283-.664-.633-.664-.35 0-.633.297-.633.665a.673.673 0 0 0 .18.466.636.636 0 0 0 .447.198h.006Zm1.91.775c.353 0 .638-.3.638-.67 0-.37-.285-.67-.638-.67-.354 0-.639.3-.639.67a.675.675 0 0 0 .184.47.629.629 0 0 0 .452.2h.003Zm-.944 1.448c.299 0 .54-.254.54-.565a.553.553 0 0 0-.54-.565.553.553 0 0 0-.539.565c0 .31.241.565.54.565Zm-1.919-.762c.304 0 .553-.26.553-.58a.566.566 0 0 0-.553-.578.566.566 0 0 0-.552.579c0 .319.249.579.552.579Zm-2.393-.354a.546.546 0 0 0 .387-.17.584.584 0 0 0 0-.805.547.547 0 0 0-.386-.172.547.547 0 0 0-.387.171.584.584 0 0 0 0 .804c.101.108.24.17.386.172Zm1.33 1.36a.487.487 0 0 0 .477-.497.501.501 0 0 0-.136-.35.47.47 0 0 0-.336-.147h-.004a.487.487 0 0 0-.476.497.5.5 0 0 0 .135.35.469.469 0 0 0 .336.147h.005Zm1.92.776a.493.493 0 0 0 .48-.503.491.491 0 0 0-.48-.502.479.479 0 0 0-.345.147.511.511 0 0 0 0 .71.48.48 0 0 0 .344.148Zm-1.081.582a.39.39 0 0 0 .38-.398.402.402 0 0 0-.111-.28.376.376 0 0 0-.27-.117.39.39 0 0 0-.379.397c0 .105.04.205.11.28a.378.378 0 0 0 .27.118Zm-1.024.312a.336.336 0 0 0 .243-.106.358.358 0 0 0 .1-.253v-.001c0-.2-.155-.36-.343-.36a.336.336 0 0 0-.244.106.355.355 0 0 0-.1.253v.001a.36.36 0 0 0 .097.252c.063.067.15.106.24.108h.007Zm-.897-1.035a.419.419 0 0 0 .409-.427.419.419 0 0 0-.409-.427.419.419 0 0 0-.408.427c0 .112.042.22.119.3.076.08.18.126.29.127Zm-1.315-.98a.487.487 0 0 0 .476-.497.486.486 0 0 0-.476-.497.487.487 0 0 0-.477.497c0 .131.05.257.14.35.089.093.21.146.337.147Zm3.9 6.23c.567 0 1.025-.48 1.025-1.073s-.459-1.074-1.024-1.074c-.566 0-1.024.481-1.024 1.074 0 .592.458 1.073 1.024 1.073Zm-2.6-1.358c.471 0 .854-.4.854-.895 0-.494-.383-.895-.854-.895-.47 0-.853.4-.853.895 0 .494.382.895.853.895Zm-1.486 1.966c.477 0 .861-.402.861-.903 0-.497-.384-.903-.86-.903-.477 0-.862.403-.862.903a.911.911 0 0 0 .25.636.85.85 0 0 0 .611.267Zm-.447-3.623a.731.731 0 0 0 .53-.232.78.78 0 0 0 .216-.55.799.799 0 0 0-.216-.55.751.751 0 0 0-.53-.232.732.732 0 0 0-.53.231.779.779 0 0 0-.216.55c0 .431.335.782.746.782Zm-1.482 1.993c.41 0 .743-.349.743-.778 0-.43-.332-.779-.743-.779-.41 0-.744.349-.744.779a.785.785 0 0 0 .214.547c.138.146.327.23.525.231h.005Zm-1.598 1.353c.411 0 .741-.35.741-.776 0-.43-.332-.777-.74-.777-.411 0-.742.35-.742.777 0 .427.333.776.741.776Zm-1.33-1.76a.63.63 0 0 0 .45-.197.671.671 0 0 0 .184-.466c0-.366-.283-.663-.633-.663a.632.632 0 0 0-.448.198.674.674 0 0 0 0 .93.632.632 0 0 0 .448.197Zm1.601-1.36a.628.628 0 0 0 .45-.196.67.67 0 0 0 .183-.466.647.647 0 0 0-.633-.663.632.632 0 0 0-.447.197.674.674 0 0 0-.002.93.632.632 0 0 0 .447.198h.002Zm1.494-1.993a.62.62 0 0 0 .45-.196.663.663 0 0 0 .183-.467v-.001c0-.368-.283-.665-.633-.665a.62.62 0 0 0-.45.196.662.662 0 0 0-.184.467v.002c0 .367.283.664.634.664Zm-2.285.275c.304 0 .55-.257.55-.576a.563.563 0 0 0-.55-.576.563.563 0 0 0-.55.576c0 .319.247.576.55.576Zm-1.592 1.353a.533.533 0 0 0 .386-.168.567.567 0 0 0 .159-.4v-.002a.575.575 0 0 0-.157-.401.538.538 0 0 0-.385-.17h-.003a.533.533 0 0 0-.387.168.567.567 0 0 0-.158.401v.002a.583.583 0 0 0 .158.402.548.548 0 0 0 .387.168Zm-.366-1.586a.467.467 0 0 0 .334-.146.499.499 0 0 0 .137-.346.482.482 0 0 0-.471-.492.483.483 0 0 0-.471.492c0 .273.212.492.47.492Zm-.014-1.392a.396.396 0 0 0 .287-.126.422.422 0 0 0 .117-.298.415.415 0 0 0-.404-.425.414.414 0 0 0-.403.425c0 .235.18.424.403.424Zm.222-1.158a.351.351 0 0 0 .343-.36.353.353 0 0 0-.343-.359.351.351 0 0 0-.343.36c0 .197.152.36.343.36Zm1.373-.193a.419.419 0 0 0 .408-.428.419.419 0 0 0-.408-.427.419.419 0 0 0-.409.427c0 .113.043.221.12.301.076.08.18.126.289.127Zm1.507-.607a.489.489 0 0 0 .476-.497.502.502 0 0 0-.137-.35.47.47 0 0 0-.335-.147h-.004a.489.489 0 0 0-.476.497.508.508 0 0 0 .137.35.476.476 0 0 0 .336.147h.003Zm.358 1.579c.144 0 .281-.06.382-.164a.568.568 0 0 0 0-.79.532.532 0 0 0-.765 0 .568.568 0 0 0 0 .79.532.532 0 0 0 .381.164h.002Zm-1.846.42a.482.482 0 0 0 .471-.495.484.484 0 0 0-.47-.495.46.46 0 0 0-.335.146.49.49 0 0 0-.137.347v.002a.502.502 0 0 0 .134.348.47.47 0 0 0 .332.147h.005Zm-5.208-.734c.562 0 1.02-.478 1.02-1.068 0-.59-.458-1.068-1.02-1.068-.563 0-1.021.48-1.021 1.069 0 .59.458 1.067 1.02 1.067Zm2.317-1.907c.484 0 .874-.411.874-.917s-.393-.917-.874-.917a.867.867 0 0 0-.621.27.925.925 0 0 0-.254.645v.002c0 .509.393.917.875.917Zm-.904-2.352c.481 0 .869-.408.869-.912 0-.503-.39-.911-.87-.911a.851.851 0 0 0-.616.269.907.907 0 0 0-.252.64v.002c-.003.24.087.47.25.641a.86.86 0 0 0 .614.271h.005Zm2.233-1.114c.411 0 .747-.35.747-.782 0-.433-.335-.782-.747-.782-.411 0-.746.35-.746.782 0 .433.336.782.746.782Zm.913 2.346c.414 0 .749-.351.749-.784 0-.433-.335-.784-.749-.784-.413 0-.748.351-.748.784 0 .433.335.784.748.784Zm2.033-.487a.632.632 0 0 0 .452-.198.674.674 0 0 0 .184-.47.676.676 0 0 0-.179-.468.637.637 0 0 0-.447-.2.619.619 0 0 0-.453.186.658.658 0 0 0-.193.462v.02a.672.672 0 0 0 .182.469.63.63 0 0 0 .45.199h.004Zm1.756.006c.304 0 .55-.257.55-.573a.562.562 0 0 0-.55-.574.546.546 0 0 0-.392.168.583.583 0 0 0 0 .81.546.546 0 0 0 .392.169Zm1.451.345a.475.475 0 0 0 .464-.484.473.473 0 0 0-.464-.484.46.46 0 0 0-.328.143.49.49 0 0 0-.135.34c.003.266.209.485.463.485Zm.19-1.766a.4.4 0 0 0 .285-.125.427.427 0 0 0 .118-.297.413.413 0 0 0-.404-.422.413.413 0 0 0-.403.422c0 .111.042.218.117.297a.4.4 0 0 0 .286.125Zm-1.117-.578a.457.457 0 0 0 .328-.141.488.488 0 0 0 0-.679.457.457 0 0 0-.657 0 .489.489 0 0 0-.001.679c.087.09.205.14.328.14h.002Zm-1.434-.35a.54.54 0 0 0 .387-.17.577.577 0 0 0 .158-.4.556.556 0 0 0-.545-.571.558.558 0 0 0-.544.57.583.583 0 0 0 .157.401.547.547 0 0 0 .386.17h.001Zm-1.753.002c.354 0 .639-.3.639-.668 0-.368-.285-.668-.639-.668-.353 0-.638.3-.638.668 0 .176.066.345.186.47s.282.196.452.198Zm-2.36-1.67c.4 0 .722-.339.722-.758 0-.418-.325-.757-.723-.757-.4 0-.722.339-.722.757 0 .42.324.758.722.758Zm2.031-.46c.354 0 .639-.3.639-.667 0-.368-.285-.668-.639-.668-.353 0-.638.3-.638.668 0 .368.285.668.638.668Zm1.756.01c.303 0 .55-.258.55-.577a.563.563 0 0 0-.55-.575.538.538 0 0 0-.39.17.575.575 0 0 0-.16.404v.001c0 .152.057.298.16.406a.547.547 0 0 0 .39.17Zm1.44.342a.473.473 0 0 0 .464-.484.473.473 0 0 0-.464-.484.461.461 0 0 0-.331.141.492.492 0 0 0 0 .685c.088.09.207.142.331.142Zm1.107.593a.41.41 0 0 0 .293-.128.438.438 0 0 0 .12-.304.423.423 0 0 0-.413-.433.424.424 0 0 0-.414.433c0 .238.186.432.414.432Zm.812.681a.333.333 0 0 0 .24-.105.354.354 0 0 0 .1-.25V7.15a.364.364 0 0 0-.098-.251.343.343 0 0 0-.242-.106.333.333 0 0 0-.242.105.354.354 0 0 0-.099.25v.002a.36.36 0 0 0 .096.25.34.34 0 0 0 .24.106h.005Z"/></svg>