<svg xmlns="http://www.w3.org/2000/svg" fill="none" viewBox="0 0 24 24"><g clip-path="url(#a)"><path fill="#00D4D5" d="M12 22c5.523 0 10-4.477 10-10S17.523 2 12 2 2 6.477 2 12s4.477 10 10 10"/><path fill="#fff" d="M12.324 5.125v3.41l2.962-1.703z"/><path fill="#fff" d="M15.286 6.832v3.411l2.96-1.707z" opacity=".9"/><path fill="#fff" d="M12.324 8.536v3.41l2.962-1.703zm2.962 1.708v3.41l2.96-1.708zm-2.962 1.702v3.41l2.962-1.702z" opacity=".8"/><path fill="#fff" d="M15.286 13.654v3.41l2.96-1.707z"/><path fill="#fff" d="M4.67 8.42v3.411l2.962-1.707z" opacity=".4"/><path fill="#fff" d="M8.406 9.689v3.41l2.957-1.703z" opacity=".2"/><path fill="#fff" d="M6.211 11.846v3.41l2.961-1.707z" opacity=".3"/><path fill="#fff" d="M8.163 14.42v3.41l2.956-1.707z" opacity=".9"/><path fill="#fff" d="M12.3 15.888v3.41l2.956-1.707z" opacity=".7"/><path fill="#fff" d="M8.9 8.004v3.412l2.956-1.704z" opacity=".9"/><path fill="#fff" d="M12.325 5.125v3.41L9.363 6.833z" opacity=".8"/><path fill="#fff" d="M8.9 6.575v3.41L5.936 8.278zm2.96 1.688v3.41L8.9 9.967z" opacity=".6"/><path fill="#fff" d="M8.392 9.689v3.41l-2.96-1.703z" opacity=".95"/><path fill="#fff" d="M12.324 11.946v3.41l-2.956-1.702z" opacity=".6"/><path fill="#fff" d="M6.211 12.74v3.411L3.25 14.443z" opacity=".55"/><path fill="#fff" d="M18.246 8.536v3.41l-2.96-1.703z"/><path fill="#fff" d="M15.286 10.244v3.41l-2.962-1.708z" opacity=".95"/><path fill="#fff" d="M18.246 11.946v3.41l-2.96-1.702z" opacity=".9"/><path fill="#fff" d="M15.286 13.654v3.41l-2.962-1.707z" opacity=".7"/><path fill="#fff" d="M11.669 15.075v3.41l-2.961-1.703z" opacity=".4"/><path fill="#fff" d="M15.286 6.832v3.411l-2.962-1.707z"/></g><defs><clipPath id="a"><path fill="#fff" d="M2 2h20v20H2z"/></clipPath></defs></svg>