<svg xmlns="http://www.w3.org/2000/svg" fill="none" viewBox="0 0 24 24"><g clip-path="url(#a)"><path fill="#5DF" d="M12 24c6.627 0 12-5.373 12-12S18.627 0 12 0 0 5.373 0 12s5.373 12 12 12"/><path fill="#fff" d="M9.826 8.895a4.2 4.2 0 0 1 1.105-2.83c.194-.193.216-.232.216-.387 0-.154 0-.165-.116-.165a3 3 0 0 0-.426.077 6.7 6.7 0 0 0-4.029 2.802 6.2 6.2 0 0 0-.94 2.21 7.8 7.8 0 0 0-.099 2.211 6.45 6.45 0 0 0 2.3 4.184c.679.552 1.442.995 1.442.796a.8.8 0 0 0-.177-.227 3.5 3.5 0 0 1-.879-2.813 4.02 4.02 0 0 1 1.88-3.095 3 3 0 0 1 .425-.254c.083 0 .033-.166-.172-.553a3.8 3.8 0 0 1-.53-1.956m8.572 1.724a6.63 6.63 0 0 0-3.36-4.51c-.31-.17-.465-.21-.465-.105q.045.134.133.244a3.04 3.04 0 0 1 .553 1.658 2.2 2.2 0 0 1-.553 1.724.597.597 0 0 1-.835.033c-.22-.16-.22-.27-.083-.475a2.4 2.4 0 0 0 .415-1.465 1.41 1.41 0 0 0-.409-1.144 1.07 1.07 0 0 0-1.072-.282 1.75 1.75 0 0 0-1.061 1.271 5 5 0 0 0-.221 1.26c.004.655.165 1.3.47 1.88.212.333.475.631.779.884q.09.06.16.143a.5.5 0 0 1-.183.095 3.54 3.54 0 0 0-1.834 2.05 3.95 3.95 0 0 0-.266 1.63 1.9 1.9 0 0 0 .553 1.42 1.83 1.83 0 0 0 1.547.415 2.9 2.9 0 0 0 1.913-.917c.226-.244.27-.271.315-.216s.033.088-.05.227a4.14 4.14 0 0 1-2.36 1.868c-.193.05-.276.088-.276.132 0 .144 1.21-.055 1.945-.315a6.69 6.69 0 0 0 4.035-4.123 5.2 5.2 0 0 0 .304-2.056 5.2 5.2 0 0 0-.094-1.326"/></g><defs><clipPath id="a"><path fill="#fff" d="M0 0h24v24H0z"/></clipPath></defs></svg>