<svg xmlns="http://www.w3.org/2000/svg" fill="none" viewBox="0 0 24 24"><g clip-path="url(#a)"><path fill="#5DF" d="M12 24c6.627 0 12-5.373 12-12S18.627 0 12 0 0 5.373 0 12s5.373 12 12 12Z"/><path fill="#fff" d="M9.826 8.895a4.211 4.211 0 0 1 1.105-2.83c.194-.193.216-.232.216-.387 0-.154 0-.166-.116-.166a3.114 3.114 0 0 0-.426.078 6.687 6.687 0 0 0-4.029 2.802 6.234 6.234 0 0 0-.94 2.21 7.776 7.776 0 0 0-.099 2.211 6.45 6.45 0 0 0 2.3 4.184c.679.552 1.442.995 1.442.796a.79.79 0 0 0-.177-.227 3.503 3.503 0 0 1-.879-2.813 4.018 4.018 0 0 1 1.88-3.095 3.08 3.08 0 0 1 .425-.254c.083 0 .033-.166-.172-.553a3.819 3.819 0 0 1-.53-1.956Zm8.572 1.724a6.63 6.63 0 0 0-3.36-4.51c-.31-.171-.465-.21-.465-.105.03.089.074.171.133.243a3.04 3.04 0 0 1 .553 1.658 2.21 2.21 0 0 1-.553 1.725.597.597 0 0 1-.835.033c-.22-.16-.22-.27-.083-.475a2.41 2.41 0 0 0 .415-1.465 1.41 1.41 0 0 0-.409-1.144 1.067 1.067 0 0 0-1.072-.282 1.751 1.751 0 0 0-1.061 1.271 5.056 5.056 0 0 0-.221 1.26c.004.655.165 1.3.47 1.88.212.333.475.631.779.884.06.04.114.088.16.143a.485.485 0 0 1-.183.094 3.541 3.541 0 0 0-1.834 2.05 3.952 3.952 0 0 0-.266 1.631 1.896 1.896 0 0 0 .553 1.42 1.834 1.834 0 0 0 1.547.415 2.913 2.913 0 0 0 1.913-.917c.226-.244.27-.271.315-.216.044.055.033.088-.05.227a4.145 4.145 0 0 1-2.36 1.868c-.193.05-.276.088-.276.132 0 .144 1.21-.055 1.945-.315a6.687 6.687 0 0 0 4.035-4.123 5.211 5.211 0 0 0 .304-2.056 5.233 5.233 0 0 0-.094-1.326Z"/></g><defs><clipPath id="a"><path fill="#fff" d="M0 0h24v24H0z"/></clipPath></defs></svg>