<svg xmlns="http://www.w3.org/2000/svg" fill="none" viewBox="0 0 24 24"><g clip-path="url(#a)"><path fill="#0050DB" d="M12 24c6.627 0 12-5.373 12-12S18.627 0 12 0 0 5.373 0 12s5.373 12 12 12"/><path fill="#fff" d="M12 18.5c-.422 0-.836-.114-1.199-.328l-3.449-2.028a2.46 2.46 0 0 1-1.202-2.12v-4.05a2.47 2.47 0 0 1 1.202-2.118l3.45-2.028c.364-.214.78-.328 1.203-.328.42 0 .832.113 1.193.328l3.45 2.029a2.46 2.46 0 0 1 1.202 2.118v4.05a2.47 2.47 0 0 1-1.203 2.119L13.2 18.172a2.36 2.36 0 0 1-1.2.328m-1.984-4.179-.639.65a1.75 1.75 0 0 0 1.272.534c.995 0 1.802-.821 1.803-1.835v-.553c.273.16.583.245.899.244a1.73 1.73 0 0 0 1.277-.528l-.638-.65a.9.9 0 0 1-.64.27.91.91 0 0 1-.898-.914V8.487h-.898v5.19a.91.91 0 0 1-.9.916.9.9 0 0 1-.638-.272"/></g><defs><clipPath id="a"><path fill="#fff" d="M0 0h24v24H0z"/></clipPath></defs></svg>