<svg xmlns="http://www.w3.org/2000/svg" fill="none" viewBox="0 0 24 24"><path fill="#62757E" fill-rule="evenodd" d="M12 22C6.486 22 2 17.513 2 12 2 6.486 6.486 2 12 2s10 4.486 10 10c0 5.513-4.486 10-10 10m0-18.333c-4.595 0-8.333 3.738-8.333 8.333S7.405 20.333 12 20.333s8.333-3.738 8.333-8.333S16.595 3.667 12 3.667m1.21 7.5h.457a.833.833 0 1 1 0 1.666h-.831l-.003.834h.834a.833.833 0 1 1 0 1.666h-.837l-.002.836a.833.833 0 0 1-.834.831h-.002a.833.833 0 0 1-.831-.835l.002-.832h-.83a.833.833 0 1 1 0-1.666h.834l.002-.834h-.836a.833.833 0 1 1 0-1.666h.456l-1.975-2.86a.833.833 0 1 1 1.372-.947L12 9.986l1.814-2.626a.833.833 0 1 1 1.372.947z" clip-rule="evenodd"/></svg>