<svg xmlns="http://www.w3.org/2000/svg" fill="none" viewBox="0 0 24 24"><path fill="#62757E" fill-rule="evenodd" d="M3.6 8.52 8.52 3.6h6.96l4.92 4.92v6.96l-4.92 4.92H8.52L3.6 15.48zm3.965-6.227A1 1 0 0 1 8.272 2h7.456a1 1 0 0 1 .707.293l5.272 5.272a1 1 0 0 1 .293.707v7.456a1 1 0 0 1-.293.707l-5.272 5.272a1 1 0 0 1-.707.293H8.272a1 1 0 0 1-.707-.293l-5.272-5.272A1 1 0 0 1 2 15.728V8.272a1 1 0 0 1 .293-.707zm8.152 7.413a.85.85 0 1 0-1.434-.912l-2.992 4.7-1.76-1.408a.85.85 0 0 0-1.062 1.328l2.5 2a.85.85 0 0 0 1.248-.208z" clip-rule="evenodd"/></svg>