<svg xmlns="http://www.w3.org/2000/svg" fill="none" viewBox="0 0 24 24"><g clip-path="url(#a)"><path fill="#ffb319" d="M0 4.056A4.056 4.056 0 0 1 4.056 0h15.888A4.056 4.056 0 0 1 24 4.056v15.888A4.056 4.056 0 0 1 19.944 24H4.056A4.056 4.056 0 0 1 0 19.944z"/><path fill="#18181a" d="M13.767 16.521H10.13c-.983 0-1.154-1.066-.983-1.493.085-.213.3-.511.47-.725a4.8 4.8 0 0 0 2.352.597 4.913 4.913 0 0 0 4.919-4.905c0-1.45-.642-2.73-1.625-3.668l.128-.128c.257-.256.642-.426 1.027-.384l.598.043V3.512H15.99a2.81 2.81 0 0 0-2.61 1.749 4.8 4.8 0 0 0-1.368-.214 4.913 4.913 0 0 0-4.918 4.906 4.9 4.9 0 0 0 .94 2.9c-.085.085-.213.17-.299.213l-.128.128c-.984.939-1.454 2.133-1.198 3.498.129.725.77 1.493 1.412 1.92.428.298.984.426 1.54.426l4.105-.17c.47 0 .899.213 1.155.639l.513.981 2.524-.853-.428-.938a3.84 3.84 0 0 0-3.464-2.176M12.013 7.65c1.283 0 2.353 1.067 2.353 2.346s-1.07 2.346-2.353 2.346-2.352-1.066-2.352-2.346c0-1.322 1.026-2.346 2.352-2.346"/></g><defs><clipPath id="a"><path fill="#fff" d="M0 0h24v24H0z"/></clipPath></defs></svg>