<svg xmlns="http://www.w3.org/2000/svg" fill="none" viewBox="0 0 24 24"><g clip-path="url(#a)"><path fill="#FFB319" d="M0 4.056A4.056 4.056 0 0 1 4.056 0h15.888A4.056 4.056 0 0 1 24 4.056v15.888A4.056 4.056 0 0 1 19.944 24H4.056A4.056 4.056 0 0 1 0 19.944z"/><path fill="#18181A" d="M13.451 15.714h-2.986c-.808 0-.948-.876-.808-1.227.07-.175.246-.42.386-.595.563.315 1.23.49 1.933.49a4.035 4.035 0 0 0 4.04-4.029c0-1.19-.527-2.242-1.335-3.013l.105-.105c.21-.21.527-.35.843-.315l.492.035V5.028h-.843c-.984 0-1.792.596-2.143 1.437a4 4 0 0 0-1.124-.176 4.035 4.035 0 0 0-3.267 6.412c-.07.07-.176.14-.246.175l-.106.105c-.808.77-1.194 1.752-.983 2.873.105.595.632 1.226 1.16 1.576.35.245.807.35 1.264.35l3.372-.14c.387 0 .738.176.949.526l.421.806 2.073-.7-.351-.772a3.15 3.15 0 0 0-2.846-1.786m-1.44-7.287c1.054 0 1.932.875 1.932 1.926a1.947 1.947 0 0 1-1.932 1.927 1.947 1.947 0 0 1-1.932-1.927c0-1.086.843-1.926 1.932-1.926"/></g><defs><clipPath id="a"><path fill="#fff" d="M0 0h24v24H0z"/></clipPath></defs></svg>