<svg xmlns="http://www.w3.org/2000/svg" fill="none" viewBox="0 0 24 24"><path fill="#FF564F" d="M5.404 17.997 6.422 21l6.99-9-6.99-9-1.068 2.938 4.643 6.06-4.593 5.999Z" opacity=".2"/><path fill="#F08179" d="M20.303 20.998h-3.317l-6.991-9L16.986 3h3.317l-6.893 8.998 6.893 9Z"/><path fill="#FF564F" d="M3.762 3H6.42v17.998H3.762V3Zm16.544 17.998h-3.317l-6.992-9L16.99 3h3.317l-6.893 8.998 6.893 9Z"/><path fill="#FF564F" d="M20.306 20.998h-3.317l-6.992-9L16.99 3h3.317l-6.893 8.998 6.893 9Z"/><path fill="#FF564F" d="M20.306 20.998h-3.317l-6.992-9L16.99 3h3.317l-6.893 8.998 6.893 9Z"/><path fill="#FF564F" d="M20.306 20.998h-3.317l-6.992-9L16.99 3h3.317l-6.893 8.998 6.893 9Z"/></svg>