<svg xmlns="http://www.w3.org/2000/svg" fill="none" viewBox="0 0 24 24"><g clip-path="url(#a)"><path fill="#0093DD" d="M12 24c6.627 0 12-5.373 12-12S18.627 0 12 0 0 5.373 0 12s5.373 12 12 12"/><path fill="#fff" fill-rule="evenodd" d="m9.862 12 3.737 3.85 2.358-2.43a1.045 1.045 0 0 1 1.508 0 1.12 1.12 0 0 1 0 1.555l-3.112 3.206a1.05 1.05 0 0 1-1.508 0l-4.49-4.626v2.75c0 .604-.48 1.1-1.067 1.1-.589 0-1.066-.493-1.066-1.1v-8.61c0-.607.477-1.1 1.066-1.1s1.067.493 1.067 1.1v2.75l4.49-4.626a1.05 1.05 0 0 1 1.508 0l3.113 3.206a1.12 1.12 0 0 1 0 1.555 1.044 1.044 0 0 1-1.51 0L13.6 8.15zm3.738-1.1c.59 0 1.068.492 1.068 1.1 0 .607-.478 1.1-1.068 1.1s-1.067-.493-1.067-1.1.478-1.1 1.067-1.1" clip-rule="evenodd"/></g><defs><clipPath id="a"><path fill="#fff" d="M0 0h24v24H0z"/></clipPath></defs></svg>