<svg xmlns="http://www.w3.org/2000/svg" fill="none" viewBox="0 0 24 24"><path fill="#fff" d="M12 22c5.523 0 10-4.477 10-10S17.523 2 12 2 2 6.477 2 12s4.477 10 10 10"/><path fill="#000" fill-rule="evenodd" d="M2 12C2 6.492 6.492 2 12 2s10 4.492 10 10-4.492 10-10 10S2 17.508 2 12m13.57-2.246h.615L16.246 8h-4.061v1.754h.615l-1.262 1.477h-.523V9.754h.708V8h-.954v.677h-.523V8h-.954v.677H8.77V8h-.984v1.785h.861v4.461h-.861v1.785h3.907v-1.785h-.707V12.77h.523l1.261 1.416h-.615v1.784h4.03v-1.784h-.615l-1.908-2.216z" clip-rule="evenodd"/></svg>