<svg xmlns="http://www.w3.org/2000/svg" fill="none" viewBox="0 0 24 24"><path fill="#62757E" fill-rule="evenodd" d="M19.182 2.17a.85.85 0 1 1 1.202 1.203l-16 16a.85.85 0 0 1-1.202-1.202l.55-.55A9.943 9.943 0 0 1 2 12C2 6.486 6.486 2 12 2c2.082 0 4.018.64 5.62 1.733l1.562-1.562Zm-2.765 2.766A8.284 8.284 0 0 0 12 3.666c-4.595 0-8.333 3.739-8.333 8.334 0 1.621.465 3.136 1.269 4.417l4.295-4.295a3.198 3.198 0 0 1-.564-1.789A3.337 3.337 0 0 1 12 7c.669 0 1.292.198 1.815.538l2.602-2.602Zm-3.835 3.835a1.668 1.668 0 0 0-2.248 1.562c0 .196.039.39.113.573l2.135-2.135ZM12 22a9.948 9.948 0 0 1-5.917-1.943l1.195-1.194A8.286 8.286 0 0 0 12 20.333c4.595 0 8.333-3.738 8.333-8.333 0-1.752-.543-3.38-1.47-4.722l1.194-1.195A9.948 9.948 0 0 1 22 12c0 5.514-4.486 10-10 10Zm.7-8.559 2.588-2.588a3.398 3.398 0 0 1-1.064 1.895L15.29 15.9a.833.833 0 0 1-.79 1.1h-5a.832.832 0 0 1-.302-.057l1.61-1.61h2.53l-.638-1.892Z" clip-rule="evenodd"/></svg>