<svg xmlns="http://www.w3.org/2000/svg" fill="none" viewBox="0 0 24 24"><path fill="#62757E" fill-rule="evenodd" d="M12 22C6.486 22 2 17.514 2 12S6.486 2 12 2s10 4.486 10 10-4.486 10-10 10Zm0-18.333c-4.595 0-8.333 3.738-8.333 8.333 0 4.595 3.738 8.333 8.333 8.333 4.595 0 8.333-3.738 8.333-8.333 0-4.595-3.738-8.333-8.333-8.333Zm2.224 9.081L15.29 15.9a.833.833 0 0 1-.79 1.1h-5a.833.833 0 0 1-.79-1.1l1.065-3.148c-.688-.632-1.108-1.504-1.108-2.419A3.337 3.337 0 0 1 12 7a3.337 3.337 0 0 1 3.333 3.333c0 .912-.42 1.782-1.109 2.415ZM12 8.667c-.92 0-1.667.747-1.667 1.666 0 .562.325 1.107.849 1.425.022.014.035.035.055.05a.81.81 0 0 1 .124.114.714.714 0 0 1 .16.266.782.782 0 0 1 .05.307.827.827 0 0 1-.022.168c-.006.024-.002.05-.01.075l-.877 2.595h2.676l-.877-2.599c-.008-.024-.004-.049-.01-.073a.762.762 0 0 1-.021-.168.854.854 0 0 1 .007-.154.867.867 0 0 1 .042-.152.793.793 0 0 1 .065-.144.848.848 0 0 1 .094-.123.766.766 0 0 1 .124-.114c.02-.015.032-.037.054-.05.525-.32.85-.865.85-1.423 0-.919-.747-1.666-1.666-1.666Z" clip-rule="evenodd"/></svg>