<svg xmlns="http://www.w3.org/2000/svg" fill="none" viewBox="0 0 24 24"><path fill="currentColor" fill-rule="evenodd" d="M15.75 3.05a5.2 5.2 0 0 0-5.124 6.093c.13.748-.02 1.631-.652 2.265l-6.5 6.499a1.45 1.45 0 0 0-.424 1.025v2.018H5.2V19.5a.8.8 0 0 1 .8-.8h1.45v-1.45a.8.8 0 0 1 .8-.8h1.919l2.423-2.424c.633-.633 1.517-.781 2.265-.652A5.2 5.2 0 1 0 15.75 3.05Zm-6.8 5.2a6.8 6.8 0 1 1 5.635 6.7c-.377-.065-.687.033-.861.208l-2.658 2.658a.8.8 0 0 1-.566.234H9.05v1.45a.8.8 0 0 1-.8.8H6.8v1.45a.8.8 0 0 1-.8.8H2.25a.8.8 0 0 1-.8-.8v-2.818c0-.809.321-1.585.893-2.157l6.5-6.499c.174-.175.272-.484.206-.861a6.839 6.839 0 0 1-.1-1.165Zm6-3a.8.8 0 0 1 .8-.8 3.8 3.8 0 0 1 3.8 3.8.8.8 0 1 1-1.6 0 2.2 2.2 0 0 0-2.2-2.2.8.8 0 0 1-.8-.8Z" clip-rule="evenodd"/></svg>