<svg xmlns="http://www.w3.org/2000/svg" fill="none" viewBox="0 0 24 24"><path fill="#62757E" fill-rule="evenodd" d="M13.097 9.455a6.08 6.08 0 0 0-6.755-3.414H6.34c-2.327.468-4.212 2.32-4.7 4.65a6.087 6.087 0 0 0 5.94 7.391 6.07 6.07 0 0 0 5.517-3.536h2.544v.99a2.55 2.55 0 0 0 2.546 2.546 2.55 2.55 0 0 0 2.545-2.545v-1.112A2.55 2.55 0 0 0 22.5 12a2.55 2.55 0 0 0-2.546-2.546zM6.645 7.566a4.524 4.524 0 0 1 5.196 2.926l.183.519h7.93c.543 0 .99.447.99.99s-.447.99-.99.99h-.777v2.546c0 .542-.448.99-.99.99a.995.995 0 0 1-.99-.99V12.99h-5.174l-.183.52a4.52 4.52 0 0 1-4.26 3.016 4.53 4.53 0 0 1-4.419-5.514v-.002c.36-1.716 1.763-3.098 3.484-3.445m.935 3.445a.995.995 0 0 0-.99.99c0 .543.447.99.99.99s.99-.447.99-.99a.995.995 0 0 0-.99-.99M5.034 12A2.55 2.55 0 0 1 7.58 9.455a2.55 2.55 0 0 1 2.546 2.546 2.55 2.55 0 0 1-2.546 2.546A2.55 2.55 0 0 1 5.034 12" clip-rule="evenodd"/></svg>