<svg xmlns="http://www.w3.org/2000/svg" fill="none" viewBox="0 0 24 24"><path fill="#62757E" fill-rule="evenodd" d="m20.26 9.248-.03-.03H3.77l-.03 8.665 16.49.03zM3.74 7.478h16.52V5.74H3.74zm18.26.57c0 .17-.049.343-.144.503.092.214.144.449.144.697v8.635c0 .975-.794 1.77-1.77 1.77H3.77c-.976 0-1.77-.795-1.77-1.77V9.248c0-.248.052-.483.144-.697A1 1 0 0 1 2 8.048V5.17C2 4.603 2.465 4 3.77 4h16.46C21.535 4 22 4.603 22 5.17zM8.087 17.044h7.826v-1.739H8.087zm-2.609 0h1.74v-1.739h-1.74zm-.87-5.217h1.74v-1.74h-1.74zm2.61 0h1.739v-1.74h-1.74zm2.608 0h1.74v-1.74h-1.74zm2.609 0h1.739v-1.74h-1.74zm5.217 0h1.74v-1.74h-1.74zm-2.609 0h1.74v-1.74h-1.74zM4.61 14.436h1.739v-1.74h-1.74zm2.608 0h1.74v-1.74h-1.74zm2.61 0h1.738v-1.74h-1.74zm2.608 0h1.739v-1.74h-1.74zm2.608 0h1.74v-1.74h-1.74zm2.61 0h1.738v-1.74h-1.739zm-.87 2.608h1.739v-1.739h-1.74z" clip-rule="evenodd"/></svg>