<svg xmlns="http://www.w3.org/2000/svg" fill="none" viewBox="0 0 24 24"><path fill="#62757e" d="M20.4 8.462a4.861 4.861 0 1 0-9.652.834c.124.717-.018 1.566-.628 2.177l-6.132 6.132a1.32 1.32 0 0 0-.387.935v1.86h1.938v-1.324a.8.8 0 0 1 .8-.8h1.323v-1.323a.8.8 0 0 1 .8-.8h1.792l2.273-2.273c.61-.61 1.46-.752 2.177-.628q.407.07.834.071A4.86 4.86 0 0 0 20.4 8.462m-2.832 0a2.03 2.03 0 0 0-2.03-2.03.8.8 0 0 1 0-1.601 3.63 3.63 0 0 1 3.63 3.63.8.8 0 0 1-1.6 0m4.431 0a6.46 6.46 0 0 1-7.567 6.366c-.346-.06-.622.032-.774.184L11.15 17.52a.8.8 0 0 1-.565.234H9.262v1.322a.8.8 0 0 1-.8.8H7.139v1.323a.8.8 0 0 1-.8.8H2.8a.8.8 0 0 1-.8-.8V18.54c0-.775.308-1.518.855-2.066l6.132-6.132c.152-.152.244-.428.184-.774a6.46 6.46 0 1 1 12.827-1.106"/></svg>