<svg xmlns="http://www.w3.org/2000/svg" fill="none" viewBox="0 0 24 24"><path fill="#62757e" d="m9.315 12.277-5.327 5.328a1.32 1.32 0 0 0-.387.935v1.86h1.938v-1.324a.8.8 0 0 1 .8-.8h1.323v-1.323a.8.8 0 0 1 .8-.8h1.792l1.469-1.468 1.13 1.13-1.703 1.705a.8.8 0 0 1-.565.234H9.262v1.322a.8.8 0 0 1-.8.8H7.139v1.323a.8.8 0 0 1-.8.8H2.8a.8.8 0 0 1-.8-.8V18.54c0-.775.308-1.518.855-2.066l5.328-5.328zm6.223-10.276a6.46 6.46 0 0 1 1.113 12.824l5.483 5.483a.85.85 0 0 1-1.202 1.202L3.063 3.642a.85.85 0 0 1 1.203-1.203l4.908 4.909A6.46 6.46 0 0 1 15.538 2m0 1.6a4.86 4.86 0 0 0-4.845 5.266l4.439 4.439q.202.016.406.017a4.862 4.862 0 0 0 0-9.722m0 1.23a3.63 3.63 0 0 1 3.63 3.63.8.8 0 0 1-1.6 0 2.03 2.03 0 0 0-2.03-2.03.8.8 0 0 1 0-1.6"/></svg>