<svg xmlns="http://www.w3.org/2000/svg" fill="none" viewBox="0 0 24 24"><path fill="#000" stroke="#464649" d="M7.824.5h8.352c1.42 0 2.455 0 3.268.07.807.07 1.35.204 1.798.446a4.3 4.3 0 0 1 1.742 1.742c.242.448.376.991.446 1.798.07.813.07 1.847.07 3.268v8.352c0 1.42 0 2.455-.07 3.268-.07.807-.204 1.35-.446 1.798a4.3 4.3 0 0 1-1.742 1.742c-.448.242-.991.376-1.798.446-.813.07-1.847.07-3.268.07H7.824c-1.42 0-2.455 0-3.268-.07-.807-.07-1.35-.204-1.798-.446a4.3 4.3 0 0 1-1.742-1.742c-.242-.448-.377-.991-.446-1.798C.5 18.631.5 17.597.5 16.176V7.824c0-1.42 0-2.455.07-3.268.07-.807.204-1.35.446-1.798a4.3 4.3 0 0 1 1.742-1.742C3.206.774 3.749.639 4.556.57 5.369.5 6.403.5 7.824.5Z"/><path fill="#fff" d="M6.076 5.673v12.255h2.286v-2.62l1.979-1.979 6.754 4.865v-3l-5.136-3.715 5.807-5.806h-3.392l-6.012 6.012V5.673z"/><path fill="#0E8BFF" d="M21.469 4c0 .908-.736 1.643-1.643 1.643h-1.644V4a1.643 1.643 0 0 1 3.287 0"/></svg>