<svg xmlns="http://www.w3.org/2000/svg" fill="none" viewBox="0 0 24 24"><g clip-path="url(#a)"><path fill="#005FFF" d="M12 24c6.627 0 12-5.373 12-12S18.627 0 12 0 0 5.373 0 12s5.373 12 12 12Z"/><path fill="#fff" fill-rule="evenodd" d="M10.276 13.505V9.892h.844c.182 0 .33.146.33.325v.312c0 .34.293.63.636.63s.603-.29.603-.63v-.3a.34.34 0 0 1 .341-.337h.94v.913a.34.34 0 0 1-.341.338h-.319a.618.618 0 0 0-.62.612c0 .339.317.613.66.613h.281c.188 0 .34.15.34.335v.802h.756a.47.47 0 0 1 .475.465v.275a.47.47 0 0 1-.475.466h-.282a.469.469 0 0 1-.475-.466v-.619h-.943a.336.336 0 0 1-.338-.335v-.309a.638.638 0 0 0-.631-.625c-.343 0-.61.3-.61.656v.28c0 .184-.15.333-.335.333h-.837v.62a.47.47 0 0 1-.475.464H9.52a.47.47 0 0 1-.475-.465v-.275a.47.47 0 0 1 .475-.465h.756Zm4.451-3.733h-.758v-.74a.47.47 0 0 1 .476-.465h.282a.47.47 0 0 1 .475.465v.275a.47.47 0 0 1-.475.466v-.001Zm-4.451 0H9.52a.47.47 0 0 1-.475-.465v-.275a.47.47 0 0 1 .475-.465h.28a.47.47 0 0 1 .475.465v.74Zm1.706-1.084a.47.47 0 0 1-.475-.465v-.275a.47.47 0 0 1 .475-.465h.282a.47.47 0 0 1 .475.466v.275a.47.47 0 0 1-.475.464h-.282Zm0 7.347a.469.469 0 0 1-.475-.465v-.275a.47.47 0 0 1 .475-.465h.282a.47.47 0 0 1 .475.465v.276a.47.47 0 0 1-.475.464h-.282Zm3.695-3.734a.469.469 0 0 1-.475-.465v-.275a.47.47 0 0 1 .475-.465h.28a.47.47 0 0 1 .476.465v.275a.47.47 0 0 1-.475.466l-.281-.001Zm-7.512 0a.468.468 0 0 1-.474-.465v-.275a.47.47 0 0 1 .474-.465h.282a.47.47 0 0 1 .475.465v.275a.47.47 0 0 1-.476.466l-.28-.001Zm5.825 3.766a.435.435 0 0 1 .562.228.417.417 0 0 1-.232.55.436.436 0 0 1-.563-.227.419.419 0 0 1 .233-.551Zm-3.94-9.394a.435.435 0 0 1 .563.228.42.42 0 0 1-.233.55.435.435 0 0 1-.563-.228.419.419 0 0 1 .232-.55h.001Zm6.415 3.32a.42.42 0 0 1 .234-.55.435.435 0 0 1 .562.228.417.417 0 0 1-.232.55.435.435 0 0 1-.563-.227Zm-9.481 3.854a.418.418 0 0 1 .233-.55.434.434 0 0 1 .564.228.418.418 0 0 1-.233.55.435.435 0 0 1-.564-.228Zm0-4.176a.435.435 0 0 1 .796-.002.418.418 0 0 1-.234.553.435.435 0 0 1-.561-.227.419.419 0 0 1-.001-.324Zm6.883-2.22a.418.418 0 0 1 .002-.779.435.435 0 0 1 .56.227.421.421 0 0 1 0 .324.435.435 0 0 1-.562.228Zm2.598 6.074a.434.434 0 0 1 .796-.002.418.418 0 0 1-.234.553.436.436 0 0 1-.56-.227.418.418 0 0 1-.002-.324Zm-6.662 3.44a.416.416 0 0 1-.232-.55.435.435 0 0 1 .794-.001.42.42 0 0 1 0 .324.435.435 0 0 1-.562.228Zm6.332-1.222a.25.25 0 0 1 .348 0 .237.237 0 0 1 0 .341.25.25 0 0 1-.4-.077.237.237 0 0 1 .053-.263ZM7.763 7.434a.25.25 0 0 1 .349 0 .238.238 0 0 1 0 .341.25.25 0 0 1-.402-.078.237.237 0 0 1 .054-.262v-.001Zm8.373.341a.236.236 0 0 1 0-.34.249.249 0 0 1 .348 0 .237.237 0 0 1 0 .34.25.25 0 0 1-.348 0Zm-8.373 8.31a.237.237 0 0 1 0-.341.25.25 0 0 1 .349 0 .237.237 0 0 1 0 .34.25.25 0 0 1-.349 0Zm10.148-4.386c0-.133.111-.241.247-.241s.246.108.246.241a.244.244 0 0 1-.246.24.243.243 0 0 1-.246-.24h-.001Zm-11.944 0c0-.133.11-.241.247-.241.135 0 .246.108.246.241a.244.244 0 0 1-.246.24.243.243 0 0 1-.247-.24Zm6.158-5.54a.244.244 0 0 1-.248-.24c0-.134.111-.242.248-.242.135 0 .246.108.246.241a.244.244 0 0 1-.247.24v.001Zm0 11.682a.243.243 0 0 1-.248-.24c0-.133.111-.241.248-.241.135 0 .246.108.246.24a.244.244 0 0 1-.247.241Zm7.633-6.143c0-.132.111-.24.247-.24.135 0 .246.108.246.24a.244.244 0 0 1-.34.225.243.243 0 0 1-.153-.224Zm-15.823-.12c.103 0 .186.082.186.18a.184.184 0 0 1-.186.182.183.183 0 0 1-.184-.18c0-.1.083-.181.184-.181Zm7.82-7.587c0-.133.11-.241.246-.241s.246.108.246.24c0 .133-.11.241-.246.241a.244.244 0 0 1-.246-.24Zm7.294 10.579a.373.373 0 0 1 .682.002.362.362 0 0 1-.001.279.37.37 0 0 1-.603.114.36.36 0 0 1-.078-.396Zm-3.998 3.892a.242.242 0 0 1 .132.316.249.249 0 0 1-.454-.003.236.236 0 0 1 .135-.314.252.252 0 0 1 .187.002v-.001ZM4.831 8.467a.246.246 0 0 1 .151.223.235.235 0 0 1-.112.2.248.248 0 0 1-.362-.11.235.235 0 0 1 .055-.263.252.252 0 0 1 .268-.05Zm-.687 6.187a.31.31 0 0 1 .569.003.298.298 0 0 1-.17.393.31.31 0 0 1-.4-.165.299.299 0 0 1 .002-.232v.001ZM14.898 4.69a.298.298 0 0 1 .005-.557.31.31 0 0 1 .4.165.298.298 0 0 1-.17.394.31.31 0 0 1-.235-.002Zm4.606 3.65a.188.188 0 0 1 .142.001.18.18 0 0 1-.003.334.187.187 0 0 1-.24-.1.176.176 0 0 1 .041-.196.181.181 0 0 1 .06-.039ZM8.69 4.462a.185.185 0 0 1 .354.072.18.18 0 0 1-.114.166.187.187 0 0 1-.2-.04.18.18 0 0 1-.04-.197Zm.048 14.222a.17.17 0 0 1 .07.015.18.18 0 0 1 .099.236.186.186 0 0 1-.34-.001.18.18 0 0 1 0-.139.185.185 0 0 1 .17-.111Zm8.731-1.275a.25.25 0 0 1-.402-.078.237.237 0 0 1 .053-.262.248.248 0 0 1 .175-.071.248.248 0 0 1 .228.148.236.236 0 0 1-.054.264v-.001ZM5.951 6.025a.376.376 0 0 1 .603.117.356.356 0 0 1-.08.393.373.373 0 0 1-.603-.116.356.356 0 0 1 .08-.394Zm11.644.067a.186.186 0 0 1 .3.059.179.179 0 0 1-.039.196.188.188 0 0 1-.301-.058.177.177 0 0 1 .04-.197ZM6.02 17.052a.186.186 0 0 1 .301.058.178.178 0 0 1-.04.196.187.187 0 0 1-.3-.058.178.178 0 0 1 .04-.197Zm6.042 3.198a.304.304 0 0 1-.308-.3c0-.167.137-.302.308-.302.17 0 .307.135.307.301a.304.304 0 0 1-.307.301Z" clip-rule="evenodd"/></g><defs><clipPath id="a"><path fill="#fff" d="M0 0h24v24H0z"/></clipPath></defs></svg>