<svg xmlns="http://www.w3.org/2000/svg" fill="none" viewBox="0 0 24 24"><g clip-path="url(#a)"><path fill="#EA0017" d="M12 24c6.627 0 12-5.373 12-12S18.627 0 12 0 0 5.373 0 12s5.373 12 12 12"/><path fill="#fff" d="M15.063 11.676c.02 0 .068.02.109.044.112.07.17.207.16.372-.007.113-.034.19-.148.42a10 10 0 0 1-.32.584q-.253.42-.251.451c0 .006.115-.097.256-.23.264-.25.449-.367.533-.34.113.036.147.25.072.466a4 4 0 0 1-.274.559c-.066.109-.072.13.04.066l.094-.055c.233-.14.382-.156.463-.045.09.122.074.493-.036.815a.4.4 0 0 0-.032.145.5.5 0 0 0 .153-.05c.08-.036.197-.078.265-.093.228-.054.326.043.369.366.038.281-.068.514-.263.584-.033.012-.038.007-.027-.036.01-.03.02-.081.03-.118.011-.059.009-.06-.032-.038-.066.034-.14.17-.167.306-.081.402-.183.601-.45.873-.294.299-.599.5-1.073.713-.222.1-.533.296-.866.548l-.097.074-.192-.176-.096-.085a2.2 2.2 0 0 0-.541-.353l-.138-.056a.5.5 0 0 1 .086-.113.6.6 0 0 0 .115-.199c.032-.125.05-.154.12-.195.081-.044.212-.009.524.148.138.067.255.124.267.124.025 0 .02-.066-.012-.15-.024-.067-.015-.108.088-.42.138-.412.175-.561.148-.589-.034-.034-.062.02-.22.423a10 10 0 0 1-.16.395c-.007.006-.057-.012-.113-.039-.093-.045-.102-.059-.09-.109.065-.263.103-.855.063-1q-.047-.152-.088.12c-.06.38-.125.681-.152.708-.025.025-.04.018-.09-.04l-.059-.073v-2.126l.502-.648.103-.133c.802-1.037 1.032-1.336 1.21-1.564.099-.127.196-.23.217-.23zm-4.4 3.218c.214-.204.262-.222.337-.118.056.077.087.258.087.505v.203l.105.11.042.05c.042.05.08.109.093.14.034.085.048.406.02.515-.009.036.014.104.075.222.418.801.504.975.493.988l-.014.003-.025-.002a.4.4 0 0 1-.072-.02c-.097-.03-.213-.035-.621-.024-.247.007-.394-.034-.407-.113q-.011-.046.28-.448c.059-.081.065-.129.032-.183-.016-.027-.095-.037-.384-.045-.484-.016-.5-.043-.159-.301.143-.11.31-.281.33-.34.007-.022-.005-.065-.024-.097l-.039-.059-.275.016-.075.004c-.304.013-.359-.03-.256-.174.025-.034.038-.068.03-.077a2 2 0 0 0-.292-.013c-.26 0-.495-.03-.535-.066-.01-.01.101-.054.248-.1.251-.076.588-.23.742-.34q.136-.112.264-.237zm.837-1.949c.01.006.035.208.062.45s.045.464.045.491c0 .03.01.053.02.053.012 0 .08-.091.152-.204.075-.111.14-.204.147-.204.018 0 .03.086.09.729.03.296.06.539.066.539s.043-.127.077-.283a1.6 1.6 0 0 1 .08-.284c.014 0 .636 1.802.634 1.838 0 .05-.054-.009-.271-.29l-.276-.357-.04-.047-.061.068-.026.028q-.087.098-.176.195l-.142.157-.012-.077-.002-.02c-.01-.083-.039-.384-.068-.71a8 8 0 0 0-.07-.674c-.006-.01-.092.053-.192.143s-.19.17-.203.172c-.014.005-.016-.027-.009-.08.016-.115.17-1.567.17-1.61q0-.028.01-.023zm-2.9-1.249c.162-.02.499-.002.655.04.172.043.364.126.517.213.152.09.525.451.581.565.045.09.068.1-.205-.107a2.6 2.6 0 0 0-.71-.374 1.1 1.1 0 0 0-.394-.05l-.092-.002c-.285 0-.334.007-.497.061-1.033.351-1.555 1.666-1.014 2.555.16.267.418.505.765.706.197.115.181.134-.06.073a1.5 1.5 0 0 1-.993-.815c-.124-.254-.178-.489-.194-.826-.022-.545.12-.978.458-1.39.27-.328.746-.588 1.182-.649m-.832 1.763c.034-.104.038-.097.125.143.172.454.433.87.768 1.222.079.083.144.158.144.166 0 .037-.178-.008-.348-.085-.41-.192-.653-.593-.705-1.18a.7.7 0 0 1 .016-.266m1.896-3.378c.284-.043.299-.039.113.047-.093.043-.183.083-.199.095l-.018.01c-.05.038.043.052.369.062.413.012.416.014.381.15-.013.054-.018.054-.269.054a3 3 0 0 0-.431.034c-.176.032-.432.138-.432.18 0 .013.106.035.237.05.403.048.794.155 1.065.29.106.057.162.129.375.498.572.989.658 1.13.863 1.403.263.349.544.666.852.957l.28.265v.367c-.002.134-.01.236-.022.244-.023.013-.01.037-.317-.487a14 14 0 0 0-.725-1.109 4 4 0 0 1-.186-.277c-.006-.02-.027-.039-.043-.041a.7.7 0 0 1-.164-.16 7 7 0 0 0-1.464-1.218 2 2 0 0 1-.177-.093 3.7 3.7 0 0 0-.642-.267 2.1 2.1 0 0 0-.666-.027 2.5 2.5 0 0 0-.816.298 2 2 0 0 1-.194.111c-.017 0-.215.143-.369.268-.07.056-.126.088-.13.074-.012-.032.178-.296.343-.484q.336-.354.739-.632c.467-.312 1.152-.588 1.647-.662M8.12 12.902c-.083-.228-.08-.247.025-.186q.112.07.22.148a3.4 3.4 0 0 1 1.028 1.242c.097.206.165.398.149.414l-.012.003-.021-.006c-.11-.045-.449-.321-.704-.578-.323-.328-.549-.666-.685-1.037m.753-.61c0-.028.242.036.384.101.296.133.513.391.608.713.064.217.082.382.06.552-.02.151-.017.157-.16-.163a3.7 3.7 0 0 0-.666-.961 5 5 0 0 1-.226-.243m3.706-3.78c.111-.032.11-.032.145.023.06.095.172.464.219.733.03.176.05.419.059.708l.013.44-.11-.016-.025-.004c-.157-.026-.284-.074-1.13-.429-.457-.192-.834-.344-.841-.337-.011.011.215.457.366.722.275.48.786.74 1.377.702.169-.012.23-.007.281.018.123.065.202.179.276.4.093.272.263.602.408.792l.108.15c-.002.002-.075-.012-.163-.028-.396-.081-1.08-.369-1.265-.531-.213-.188-.019.112.207.319.276.253.674.472 1.128.624.136.045.25.086.253.088.025.023-.642.803-.682.803s-.272-.137-.495-.293c-.247-.173-.805-.722-1.003-.985a7.4 7.4 0 0 1-1.23-2.564l-.07-.258.088-.09.057-.054c.336-.295 1.187-.686 2.03-.933m3.464-.765q.076.008.14.045a.4.4 0 0 1 .093.093c.02.03.26.93.532 1.996.542 2.125.537 2.096.415 2.225a.4.4 0 0 1-.133.09c-.105.034-1.716.384-1.724.376a.5.5 0 0 1 .047-.136c.115-.263.122-.506.013-.68-.074-.123-.267-.238-.39-.238-.073 0-.095.022-.48.52-.221.288-.41.513-.42.504-.01-.008-.215-.89-.46-1.957-.318-1.376-.442-1.96-.43-2.007a.37.37 0 0 1 .153-.21c.098-.053 2.556-.63 2.645-.62zm.373 2.569c-.004-.01-.085.056-.18.147-.096.088-.29.27-.43.403l-.258.242-.553-.18a8 8 0 0 0-.572-.173 7 7 0 0 0 .475.445c.273.243.57.51.662.596.092.083.176.144.185.135.025-.025.678-1.597.671-1.615m-1.353.706c.155.052.33.099.386.109l.102.012.075.338c.04.186.07.342.062.347a.5.5 0 0 1-.117-.1 20 20 0 0 0-.472-.434 9 9 0 0 1-.369-.345c-.013-.034.04-.022.333.073M9.539 8.2c.38-.095.531-.118.531-.08 0 .012-.054.035-.118.048a8 8 0 0 0-.899.317c-.258.113-.587.306-.712.414l-.09.077.079.018.097.023c.323.086.916.31 1.197.457.207.106.468.285.468.321 0 .01-.067.025-.15.034a6.3 6.3 0 0 0-1.318.324 6.8 6.8 0 0 0-1.507.812c-.251.19-.251.19-.163.064.106-.154.429-.49.625-.648a3.6 3.6 0 0 1 1.576-.688l.09-.015-.16-.075-.08-.034a7.6 7.6 0 0 0-1.522-.371 1 1 0 0 1-.167-.034c-.06-.032.707-.443 1.161-.622q.521-.204 1.062-.342m5.423.425a71 71 0 0 0-.576 1.79c0 .02-.009.043-.022.05-.073.045.011.084.54.258.31.1.578.183.599.183.044 0 .883-.785.883-.825 0-.017-.29-.33-.64-.697q-.347-.36-.686-.73-.073-.092-.098-.029m-3.014 1.89c-.023-.064-.023-.064.05-.05.038.01.128.043.197.077q.246.117.022.116c-.14 0-.24-.052-.269-.143m3.046-1.767c.011.011.073.253.136.538l.117.52-.063.062c-.088.086-.76.588-.768.577-.007-.005.008-.048.033-.098.045-.088.49-1.434.513-1.554.01-.036.023-.057.032-.045m-4.978-.353-.018.162-.007.065c-.014.136-.005.169.034.169.025 0 .04.047.059.18.038.259.047.515.02.526a1 1 0 0 1-.214-.107 5 5 0 0 0-.773-.376.8.8 0 0 1-.177-.079c0-.047.278-.26.446-.341.214-.104.483-.197.573-.2zm3.456-1.087c.79-.15.956-.163 1.096-.09a.4.4 0 0 1 .133.11c.056.078.206.388.206.424 0 .016-.127.045-.321.077-1.422.224-2.588.56-3.476 1.006a4 4 0 0 0-.614.365c-.152.116-.136.148-.19-.367-.039-.348-.039-.368 0-.47.036-.095.056-.114.19-.18q.471-.218.965-.384c.603-.192 1.206-.34 2.01-.49M11.28 5.78h.023c.012 0 .053.064.094.139.192.35.581 1.435.534 1.482a.3.3 0 0 1-.103.034l-.079.014-.076-.166-.039-.083c-.23-.48-.644-1.136-.693-1.089a.4.4 0 0 0 .034.148c.115.33.27 1.07.27 1.28 0 .063-.01.083-.056.105a.3.3 0 0 1-.088.026.8.8 0 0 1-.16-.18c-.073-.1-.14-.175-.15-.166a3 3 0 0 0-.05.253c-.033.234-.067.315-.103.257a5 5 0 0 1-.045-.51 10 10 0 0 0-.038-.543c-.007-.034-.003-.06.008-.06.012 0 .1.074.195.166.095.091.176.16.18.152.019-.034-.226-.765-.38-1.136-.012-.032.01-.043.139-.063.155-.028.565-.066.606-.059zm-1.84.485c.181-.115.335-.154.436-.113.03.011.038.032.04.188v.144q-.004.24-.017.478l-.016.16-.42-.01-.171-.003a3.7 3.7 0 0 0-1.036.131c-.143.037-.273.07-.29.073-.015.004-.031-.01-.035-.027-.014-.082.506-.453 1.088-.779.175-.1.365-.208.421-.242m2.273-.496.136.231.045.077c.23.405.55 1.084.55 1.172 0 .039-.152.077-.18.046a1 1 0 0 1-.058-.122q-.25-.564-.55-1.103a5 5 0 0 1-.161-.289c0-.006.049-.012.108-.012zm.416.023h.037c.083 0 .339.016.567.034.226.018.435.038.467.045l.114.023c.07.016.124.102.282.442.104.228.257.633.242.644q-.41.063-.816.145c-.294.061-.353.061-.353-.005 0-.047-.357-.782-.505-1.04-.181-.31-.181-.288.002-.288z"/><path fill="#fff" d="M12.545 8.637c.057.138.086.285.116.595.03.33.083.788.115.977.013.098.052.118.052.03a4 4 0 0 0-.034-.278 21 21 0 0 1-.068-.616 7 7 0 0 0-.059-.494c-.029-.137-.081-.253-.113-.253-.016 0-.018.016-.009.039m.486 2.648c0 .099.317.827.42.966.07.097.052.009-.03-.139a4.6 4.6 0 0 1-.3-.663c-.051-.145-.09-.214-.09-.164"/><path fill="#fff" d="M10.358 5.199A6.96 6.96 0 0 1 15.603 6a7.14 7.14 0 0 1 2.481 2.541A6.8 6.8 0 0 1 19 11.965a6.6 6.6 0 0 1-.355 2.235 7.2 7.2 0 0 1-1.024 1.962 8.6 8.6 0 0 1-1.223 1.272c-1.114.903-2.404 1.42-3.875 1.543-1.566.136-3.297-.35-4.585-1.287-1.517-1.1-2.52-2.695-2.837-4.503a7 7 0 0 1 1.433-5.544c.192-.24.63-.695.9-.932a7 7 0 0 1 2.924-1.512m2.063.362a6.6 6.6 0 0 0-2.04.192c-.798.208-1.716.656-2.299 1.122l-.237.188c-.289.225-.92.917-1.157 1.272-.768 1.148-1.137 2.342-1.137 3.677 0 1.073.217 1.971.717 2.95a6.36 6.36 0 0 0 2.752 2.764 6.6 6.6 0 0 0 2.453.71c1.418.114 2.747-.216 4.001-.993.579-.358 1.32-1.043 1.69-1.56.692-.972 1.074-1.893 1.236-2.989.059-.39.062-1.459.003-1.805-.203-1.233-.714-2.374-1.44-3.215l-.194-.23a6 6 0 0 0-.726-.678c-.666-.511-1.175-.792-1.938-1.068-.518-.186-1.024-.288-1.684-.337"/></g><defs><clipPath id="a"><path fill="#fff" d="M0 0h24v24H0z"/></clipPath></defs></svg>