<svg xmlns="http://www.w3.org/2000/svg" fill="none" viewBox="0 0 24 24"><g clip-path="url(#a)"><path fill="#2B6680" d="M12 24c6.628 0 12-5.372 12-12S18.628 0 12 0 0 5.372 0 12s5.372 12 12 12Z"/><path fill="#fff" fill-rule="evenodd" d="M7.395 16.59A6.49 6.49 0 0 1 5.5 11.993a6.488 6.488 0 0 1 2.472-5.097 6.502 6.502 0 0 1 5.536-1.22.697.697 0 0 1-.323 1.355 5.113 5.113 0 0 0-5.646 2.474 5.1 5.1 0 0 0 .848 6.1 5.11 5.11 0 0 0 8.29-1.563 5.099 5.099 0 0 0 .289-3.235.695.695 0 0 1 .788-.862.697.697 0 0 1 .568.539c.116.486.176.984.178 1.484v.05a6.49 6.49 0 0 1-1.913 4.588 6.503 6.503 0 0 1-9.192-.018Zm7.877-9.33a1.03 1.03 0 0 1 .846 1.748h-.01c-.02 0-.039.002-.059.003l-.058.002-.02.002a1.859 1.859 0 0 0-1.685 1.48 1.855 1.855 0 0 0 .05.938 2.399 2.399 0 0 1-.367 1.931c-.08.117-.17.227-.27.328a2.406 2.406 0 0 1-4.106-1.7 2.4 2.4 0 0 1 .705-1.698.63.63 0 0 1 .04-.037 2.392 2.392 0 0 1 2.228-.6 1.858 1.858 0 0 0 2.414-1.61c.002-.017.005-.033.005-.05v-.11a1.026 1.026 0 0 1 .287-.627Z" clip-rule="evenodd"/></g><defs><clipPath id="a"><path fill="#fff" d="M0 0h24v24H0z"/></clipPath></defs></svg>