<svg xmlns="http://www.w3.org/2000/svg" fill="none" viewBox="0 0 24 24"><path fill="#5442D1" d="M11.371 3.32a9.96 9.96 0 0 1 5.053 1.011 10.07 10.07 0 0 1 4.988 5.57A9.8 9.8 0 0 1 22 13.215v4.189c0 .17.006.346-.035.511a1.43 1.43 0 0 1-.794.975c-.276.13-.593.147-.887.1-.64-.117-1.134-.717-1.14-1.363-.006-1.298 0-2.597 0-3.901.012-.37.012-.764-.188-1.087-.323-.6-1.11-.887-1.739-.629a1.42 1.42 0 0 0-.928 1.299c-.006 1.322 0 2.638 0 3.954 0 .247.012.5-.059.734a1.45 1.45 0 0 1-.987.97c-.611.17-1.31-.1-1.622-.664-.211-.341-.193-.752-.188-1.128-.005-1.31.006-2.62-.005-3.93-.012-.665-.559-1.264-1.223-1.352a1.426 1.426 0 0 0-1.633 1.416v3.819c-.006.323.035.652-.088.951-.188.547-.74.946-1.322.929-.593.035-1.175-.376-1.363-.934-.106-.277-.082-.57-.082-.864 0-1.316.006-2.632 0-3.954a1.435 1.435 0 0 0-1.152-1.363c-.576-.124-1.216.17-1.51.693a1.5 1.5 0 0 0-.188.717v4.277a1.42 1.42 0 0 1-.505 1.093c-.482.423-1.263.446-1.774.059A1.37 1.37 0 0 1 2 17.604v-4.33A10 10 0 0 1 3.199 8.56 10.1 10.1 0 0 1 5.766 5.5a9.9 9.9 0 0 1 5.605-2.18"/></svg>