<svg xmlns="http://www.w3.org/2000/svg" fill="none" viewBox="0 0 24 24"><g clip-path="url(#a)"><path fill="#00AEEF" d="M12 24c6.627 0 12-5.373 12-12S18.627 0 12 0 0 5.373 0 12s5.373 12 12 12Z"/><path fill="#fff" d="M11.256 11.224a.885.885 0 0 0 .38-.16c.11-.08.214-.217.312-.404l2.175-4.193c.085-.14.19-.252.31-.34a.72.72 0 0 1 .42-.127h1.379l-2.709 4.93c-.12.204-.256.369-.408.496a1.661 1.661 0 0 1-.51.29c.29.075.533.197.732.368.195.168.382.406.555.711L16.5 18h-1.518c-.307 0-.553-.165-.74-.492l-2.136-4.41a1.172 1.172 0 0 0-.36-.422 1.005 1.005 0 0 0-.49-.146v2.238h-1.193V12.52h-.877V18H7.5V6h1.686v5.243h.877V8.65h1.194v2.574h-.001Z"/></g><defs><clipPath id="a"><path fill="#fff" d="M0 0h24v24H0z"/></clipPath></defs></svg>