<svg xmlns="http://www.w3.org/2000/svg" fill="none" viewBox="0 0 24 24"><g clip-path="url(#a)"><path fill="#00AEEF" d="M12 24c6.627 0 12-5.373 12-12S18.627 0 12 0 0 5.373 0 12s5.373 12 12 12"/><path fill="#fff" d="M11.256 11.224a.9.9 0 0 0 .38-.16q.165-.122.312-.404l2.175-4.193q.129-.209.31-.34a.72.72 0 0 1 .42-.127h1.379l-2.709 4.93q-.18.306-.408.496a1.7 1.7 0 0 1-.51.29q.434.112.732.368.294.253.555.711L16.5 18h-1.518q-.46 0-.74-.492l-2.136-4.41q-.165-.295-.36-.422a1 1 0 0 0-.49-.146v2.238h-1.193V12.52h-.877V18H7.5V6h1.686v5.243h.877V8.65h1.194z"/></g><defs><clipPath id="a"><path fill="#fff" d="M0 0h24v24H0z"/></clipPath></defs></svg>