<svg xmlns="http://www.w3.org/2000/svg" fill="none" viewBox="0 0 24 24"><path fill="#23AF91" fill-rule="evenodd" d="m9.058 12.002 5.19 5.332 3.276-3.365a1.454 1.454 0 0 1 2.04.054c.557.573.58 1.494.053 2.096l-4.323 4.441c-.28.282-.656.44-1.047.44s-.766-.158-1.046-.44l-6.237-6.408v3.808c0 .84-.664 1.523-1.482 1.523C4.663 19.483 4 18.8 4 17.96V6.038c0-.84.663-1.522 1.482-1.522.818 0 1.482.682 1.482 1.522v3.809L13.2 3.44c.28-.282.656-.44 1.046-.44.391 0 .766.158 1.047.44l4.326 4.441a1.55 1.55 0 0 1-.053 2.095 1.453 1.453 0 0 1-2.04.054l-3.275-3.365zm5.193-1.524c-.6 0-1.142.37-1.372.94s-.102 1.225.322 1.661a1.455 1.455 0 0 0 1.616.33c.27-.113.502-.308.665-.558s.25-.547.251-.85c0-.403-.156-.79-.434-1.077a1.47 1.47 0 0 0-1.048-.447" clip-rule="evenodd"/></svg>