<svg xmlns="http://www.w3.org/2000/svg" fill="none" viewBox="0 0 24 24"><path fill="currentColor" fill-rule="evenodd" d="M21.788 21.056a.833.833 0 0 1-.622.277H2.834a.833.833 0 0 1-.828-.925l.828-7.454v-9.12c0-.462.374-.834.834-.834h16.666c.46 0 .834.373.834.833v9.122l.828 7.453a.832.832 0 0 1-.207.648ZM19.5 4.666h-15v7.5h15v-7.5Zm.087 9.167H4.412l-.648 5.834h16.471l-.648-5.834ZM7 18.833H5.333v-1.666H7v1.666Zm-.834-4.166h1.667v1.666H6.166v-1.666Zm10 4.166H7.834v-1.666h8.334v1.666Zm2.5 0H17v-1.666h1.667v1.666Zm-2.5-4.166h1.667v1.666h-1.666v-1.666Zm-2.5 0h1.667v1.666h-1.666v-1.666Zm-2.5 0h1.668v1.666h-1.668v-1.666Zm-2.5 0h1.667v1.666H8.666v-1.666Z" clip-rule="evenodd"/></svg>