<svg xmlns="http://www.w3.org/2000/svg" fill="none" viewBox="0 0 24 24"><path fill="#62757E" fill-rule="evenodd" d="M20.556 20H3.444A1.453 1.453 0 0 1 2 18.542v-2.709c0-.46.373-.833.833-.833V6.436C2.833 5.644 3.495 5 4.308 5h15.384c.813 0 1.475.644 1.475 1.436V15c.46 0 .833.373.833.833v2.709c0 .804-.648 1.458-1.444 1.458ZM19.5 6.667h-15V15h5.055c.46 0 .833.373.833.833h3.224c0-.46.372-.833.833-.833H19.5V6.667Zm.833 10h-5c0 .46-.373.833-.833.833h-5a.833.833 0 0 1-.833-.833h-5v1.666h16.666v-1.666Z" clip-rule="evenodd"/></svg>