<svg xmlns="http://www.w3.org/2000/svg" fill="none" viewBox="0 0 24 24"><path fill="#62757E" fill-rule="evenodd" d="M19.182 2.17a.85.85 0 0 1 1.393.912l.051.028-.142.142a1 1 0 0 1-.1.12L4.876 18.882a1 1 0 0 1-.12.1l-.932.931a1 1 0 0 0-.11.137A2.82 2.82 0 0 1 3 18.171v-9.6a2.83 2.83 0 0 1 2.829-2.828h7.542a.771.771 0 1 1 0 1.543H5.83c-.71 0-1.286.575-1.286 1.285v8.239L16.81 4.543h-1.381a.771.771 0 1 1 0-1.543h2.924zM21 8.572v-3.43l-1.543 1.543V8.57a.771.771 0 0 0 1.543 0M6.684 19.457l-1.475 1.475q.3.068.62.068h9.6a2.83 2.83 0 0 0 2.828-2.829V10.63a.771.771 0 1 0-1.543 0v7.542c0 .71-.575 1.286-1.285 1.286z" clip-rule="evenodd"/></svg>