<svg xmlns="http://www.w3.org/2000/svg" fill="none" viewBox="0 0 24 24"><path fill="#62757E" fill-rule="evenodd" d="M15.429 3h4.8a.77.77 0 0 1 .771.771v4.8a.771.771 0 0 1-1.543 0V5.634L8.431 16.66a.772.772 0 0 1-1.09-1.091L18.365 4.543H15.43a.771.771 0 1 1 0-1.543m-9.6 4.286c-.71 0-1.286.575-1.286 1.285v9.6c0 .71.575 1.286 1.286 1.286h9.6c.71 0 1.285-.576 1.285-1.286V10.63a.771.771 0 1 1 1.543 0v7.542A2.83 2.83 0 0 1 15.43 21h-9.6A2.83 2.83 0 0 1 3 18.171v-9.6a2.83 2.83 0 0 1 2.829-2.828h7.542a.771.771 0 1 1 0 1.543z" clip-rule="evenodd"/></svg>