<svg xmlns="http://www.w3.org/2000/svg" fill="none" viewBox="0 0 24 24"><path fill="#0080CA" d="M12 22c5.523 0 10-4.477 10-10S17.523 2 12 2 2 6.477 2 12s4.477 10 10 10"/><path fill="#fff" d="M14.646 13.313c.77 0 1.394-.631 1.394-1.41s-.624-1.41-1.394-1.41-1.394.631-1.394 1.41.624 1.41 1.394 1.41"/><path fill="#fff" d="m18.456 13.986-.041-.064-.01-.018c-.154-.24-.2-.29-.274-.4-1.02-1.57-.437-2.58.022-3.094.056-.063.108-.137.155-.194q.105-.122.18-.265l.008-.014c.092-.185.139-.39.136-.596a1.365 1.365 0 0 0-2.72 0c0 .226.058.449.167.647.017.033.094.136.102.154a.5.5 0 0 0 .058.072q.07.089.153.167.203.226.352.493a2.42 2.42 0 0 1-.239 2.517l-.338.486-.03.044-.009.01a1.3 1.3 0 0 0-.203.728 1.365 1.365 0 0 0 2.72 0 1.34 1.34 0 0 0-.185-.673zm-5.279 0-.04-.064-.012-.018c-.153-.24-.2-.29-.273-.4-1.02-1.57-.437-2.58.022-3.094.056-.063.108-.137.155-.194q.105-.122.18-.265l.008-.014c.09-.185.137-.39.136-.596a1.365 1.365 0 1 0-2.553.647c.017.033.094.136.103.154q.024.039.057.072.07.089.153.167.206.226.356.493a2.42 2.42 0 0 1-.232 2.517 3 3 0 0 1-.273.33l-.023.022a2.7 2.7 0 0 1-.497.357c-1.423.678-2.574-.26-2.574-.26l-.116-.095a.9.9 0 0 1-.217-.242c-1.02-1.57-.436-2.579.022-3.094.056-.062.108-.136.156-.193q.105-.122.179-.265l.008-.014c.094-.185.143-.389.143-.596a1.365 1.365 0 0 0-2.72 0c0 .226.058.449.167.647.017.033.095.136.103.154q.025.039.057.072.07.089.153.167.202.226.35.493a2.42 2.42 0 0 1-.24 2.517l-.173.246a1.36 1.36 0 0 0-.422.987v.031a1.365 1.365 0 0 0 2.33.942c.066-.046.11-.079.171-.118 1.57-1.02 2.58-.437 3.095.021q.063.056.128.105a1.366 1.366 0 0 0 2.321-.955c0-.237-.064-.47-.184-.673z"/></svg>