<svg xmlns="http://www.w3.org/2000/svg" fill="none" viewBox="0 0 24 24"><g clip-path="url(#a)"><path fill="#0FA9C9" d="M12 24c6.627 0 12-5.373 12-12S18.627 0 12 0 0 5.373 0 12s5.373 12 12 12Z"/><path fill="#fff" d="M12.803 15.112 8.988 19 7.9 17.806l2.644-2.695L7.8 12.316l1.171-1.194 3.832 3.99Zm2.226-2.233 1.171-1.195-2.744-2.796L16.1 6.194 15.012 5 11.18 8.888l3.849 3.99Zm-5.572-2.217 3.848 3.99 1.172-1.194-3.849-3.922-1.171 1.126Z"/></g><defs><clipPath id="a"><path fill="#fff" d="M0 0h24v24H0z"/></clipPath></defs></svg>