<svg xmlns="http://www.w3.org/2000/svg" fill="none" viewBox="0 0 24 24"><path fill="#62757E" d="M10.035 3.559c.58 0 1.137.23 1.548.64l1.965 1.965c.11.11.26.173.417.173h3.593A2.885 2.885 0 0 1 20.44 9.22v.123a2.88 2.88 0 0 1 1.737 3.064l-.794 5.557a2.885 2.885 0 0 1-2.856 2.476H5.471a2.884 2.884 0 0 1-2.855-2.476l-.794-5.557A2.88 2.88 0 0 1 3.56 9.344V6.442A2.884 2.884 0 0 1 6.442 3.56zM4.48 10.73a1.285 1.285 0 0 0-1.073 1.452l.794 5.557c.09.632.632 1.102 1.27 1.103h13.058c.64 0 1.181-.47 1.272-1.103l.794-5.557a1.285 1.285 0 0 0-1.272-1.466H4.677a1.3 1.3 0 0 0-.198.014m1.963-5.572c-.709 0-1.284.575-1.284 1.284v2.674h13.678a1.283 1.283 0 0 0-1.278-1.178h-3.593a2.2 2.2 0 0 1-1.548-.642L10.452 5.33a.6.6 0 0 0-.417-.173z"/></svg>