<svg xmlns="http://www.w3.org/2000/svg" fill="none" viewBox="0 0 24 24"><path fill="#62757E" d="M12 2.384c5.457 0 10 4.07 10 9.232s-4.543 9.232-10 9.232c-.852 0-1.681-.099-2.473-.285a6.9 6.9 0 0 1-4.9.944.784.784 0 0 1-.46-1.278c.386-.454.666-.999.805-1.596.042-.181-.033-.465-.346-.78C3.003 16.217 2 14.028 2 11.615c0-5.161 4.543-9.232 10-9.232m0 1.566c-4.723 0-8.434 3.496-8.434 7.666 0 1.965.814 3.765 2.171 5.132.493.496.978 1.305.76 2.24q-.128.551-.363 1.054a5.33 5.33 0 0 0 2.8-.964.79.79 0 0 1 .655-.115 9.2 9.2 0 0 0 2.41.318c4.724 0 8.434-3.495 8.434-7.665S16.723 3.95 12 3.95m0 4.55c.267 0 .501.182.566.441l.201.806a2.04 2.04 0 0 0 1.486 1.485l.805.202a.583.583 0 0 1 0 1.131l-.805.203a2.04 2.04 0 0 0-1.486 1.485l-.2.806a.584.584 0 0 1-1.133 0l-.2-.806a2.04 2.04 0 0 0-1.486-1.485l-.806-.203a.583.583 0 0 1 0-1.13l.806-.203a2.04 2.04 0 0 0 1.485-1.485l.201-.806A.58.58 0 0 1 12 8.5"/></svg>