<svg xmlns="http://www.w3.org/2000/svg" fill="none" viewBox="0 0 24 24"><path fill="#62757E" d="M19.667 16.326a.83.83 0 0 1 .512.178l.034.028q.03.025.056.054l.029.03.032.042a.8.8 0 0 1 .168.468l.003.033v1.667h1.666a.834.834 0 0 1 0 1.667H20.5v1.667a.834.834 0 0 1-1.667 0v-1.667h-1.666a.834.834 0 0 1-.784-1.114l.003-.009.013-.034a.84.84 0 0 1 .47-.455l.005-.001a.8.8 0 0 1 .293-.054h1.666V17.16c0-.46.374-.834.834-.834M10.035 3.56c.58 0 1.137.23 1.548.64l1.965 1.965c.11.11.26.173.417.173h3.592a2.885 2.885 0 0 1 2.884 2.884v.123a2.88 2.88 0 0 1 1.736 3.064l-.486 3.403a2.44 2.44 0 0 0-1.47-1.019l.372-2.61a1.285 1.285 0 0 0-1.271-1.466H4.677q-.102 0-.198.014a1.286 1.286 0 0 0-1.073 1.452L4.2 17.74c.09.632.632 1.102 1.27 1.103h9.408a2.42 2.42 0 0 0-.014 1.6H5.47a2.885 2.885 0 0 1-2.854-2.477l-.794-5.557a2.88 2.88 0 0 1 1.736-3.064V6.442A2.884 2.884 0 0 1 6.442 3.56zm-3.593 1.6c-.709 0-1.284.574-1.284 1.283v2.674h13.678a1.283 1.283 0 0 0-1.279-1.178h-3.592c-.58 0-1.138-.232-1.548-.642L10.452 5.33a.6.6 0 0 0-.417-.173z"/></svg>