<svg xmlns="http://www.w3.org/2000/svg" fill="none" viewBox="0 0 24 24"><g clip-path="url(#a)"><path fill="#11021E" d="M12 24c6.627 0 12-5.373 12-12S18.627 0 12 0 0 5.373 0 12s5.373 12 12 12"/><path fill="#fff" d="M8.91 11.066h.005l.094.036.1.034.093.036.1.04.093.036.1.029.093.035.094.041.187.07.1.03.093.04.1.036.094.035.1.035.093.035.1.035.093.035.1.036.093.04.1.03v-1.364h-2.16l-.094.047-.222.117-.229.117-.222.117-.223.117-.228.117-.228.117-.223.117-.222.118-.228.116-.223.117-.205.111-.023 3.355.228.158.223.158.228.152.445.317.228.157.1.077.128-.159.223-.293.017-.028-.017-.018-.223-.158-.228-.164-.228-.158-.223-.158-.222-.158-.064-.041.017-2.71.047-.023.222-.111.223-.118.228-.105.228-.117.223-.112.222-.11.229-.112.222-.11z"/><path fill="#fff" d="m12.784 17.47-.193.076-.21.081-.212.088-.21.082-.094.041-.11-.058-.212-.106-.205-.105-.21-.105-.21-.106-.211-.105-.211-.105-.211-.112-.211-.1-.205-.11-.21-.106-.205-.099-.211-.112-.023-.011v-2.733h-.61v3.108l.844.421.205.105.21.112.205.1.21.11.212.105.21.1.211.111.421.21.205.106.293.147.123-.053.21-.082.211-.082.21-.088.211-.088.212-.075-.212-.527zm3.74-3.81.012 1.292-.058.042-.357.252-.351.257-.358.252-.357.257-.363.246-.35.258-.358.257-.21.152-.147-.117-.351-.269-.357-.275-.358-.27-.35-.274-.065-.042v-1.392l.064-.058.351-.375.358-.37.357-.373.35-.37.347-.362H9.717l.357.374.352.37.362.368.357.374.352.37.046.052v1.686l.31.24.357.269.351.275.358.269.357.275.35.27.135.105.223-.164.357-.252.351-.257.363-.252.357-.252.357-.251.352-.258.357-.251.356-.252.293-.217.058-1.586-.35-.012zm-9.74-2.992h.042l.006-1.72.234-.147.28-.17.287-.17.275-.181.287-.17.281-.175.28-.17.282-.17.28-.175.288-.17.006-.006.269.158.287.158.562.328.28.158.287.158.275.164.276.152.012-.023.28-.504-.28-.164-.287-.158-.276-.157-.287-.16-.28-.168-.281-.158-.281-.159-.287-.158-.275-.158-.012-.006-.275.165-.28.175-.282.17-.28.175-.281.17-.287.17-.276.175-.287.17-.28.176-.281.175-.281.17-.275.17-.012 2.054h.287z"/><path fill="#fff" d="m17.788 9.088-.14-.111-.152-.123-.146-.117-.147-.117-.146-.123-.147-.111-.151-.118-.147-.122-.152-.118-.105-.087-.041.047-.147.18-.152.188-.035.053.035.04.153.124.146.117.146.129.152.123.147.122.152.13.146.122.07.059.007 2.768-.077.047-.146.1-.153.088-.146.1-.152.087-.146.1-.147.087-.152.1-.146.087-.147.1-.146.088-.146.1-.152.087-.147.1-.146.087-.146.1-.152.088.152.233.147.24.028.041.118-.075.146-.094.152-.088.147-.094.146-.093.146-.094.147-.087.151-.095.147-.087.146-.094.152-.093.147-.094.152-.088.146-.094.147-.087.146-.094.146-.093.152-.095.147-.087zm-4.822 1.65v1.2l.047-.018.193-.08.199-.077.193-.082.199-.076.199-.082.193-.082.199-.076.199-.082.194-.076.198-.082.194-.076v-3.63l-.223-.134-.228-.128-.223-.135-.228-.135-.228-.129-.228-.134-.223-.135-.223-.128-.228-.135-.228-.134-.228-.13-.223-.134-.222-.134-.229-.13-.116-.064-.111.053-.229.128-.223.118-.222.122-.228.13-.229.116-.227.123.227.134.229.13.14.082.088-.041.223-.124.222-.116.229-.117.093-.047.134.076.229.134.445.258.456.27.228.127.446.27.228.129.456.27.07.034v2.675h-1.598"/><path fill="#fff" d="m12.966 11.939 2.206-.89-2.212-.615zm-2.031 0v-1.482l-2.02.604 2.02.871"/></g><defs><clipPath id="a"><path fill="#fff" d="M0 0h24v24H0z"/></clipPath></defs></svg>