<svg xmlns="http://www.w3.org/2000/svg" fill="none" viewBox="0 0 24 24"><path fill="#62757E" fill-rule="evenodd" d="M7.212 5.204H6.5a1.2 1.2 0 0 0-1.2 1.2v12.804a1.2 1.2 0 0 0 1.2 1.2h8a.8.8 0 1 1 0 1.6h-8a2.8 2.8 0 0 1-2.8-2.8V6.404a2.8 2.8 0 0 1 2.8-2.8h.964A2.8 2.8 0 0 1 10 1.993h4a2.8 2.8 0 0 1 2.536 1.61h.964a2.8 2.8 0 0 1 2.8 2.8V13.6a.8.8 0 0 1-1.6 0V6.404a1.2 1.2 0 0 0-1.2-1.2h-.712A1.8 1.8 0 0 1 15 6.793H9a1.8 1.8 0 0 1-1.788-1.59m1.588-.41a1.2 1.2 0 0 1 1.2-1.2h4a1.2 1.2 0 0 1 1.2 1.2v.2a.2.2 0 0 1-.2.2H9a.2.2 0 0 1-.2-.2zM19.5 16c.268 0 .501.182.566.442l.201.805a2.04 2.04 0 0 0 1.486 1.486l.805.201a.583.583 0 0 1 0 1.132l-.805.201a2.04 2.04 0 0 0-1.486 1.486l-.201.805a.583.583 0 0 1-1.132 0l-.201-.805a2.04 2.04 0 0 0-1.486-1.486l-.805-.201a.583.583 0 0 1 0-1.132l.805-.201a2.04 2.04 0 0 0 1.486-1.486l.201-.805A.58.58 0 0 1 19.5 16m-3.965-3.244-.002.001v.001l-3.952 3.954a.2.2 0 0 1-.042.03l-.033.02a1 1 0 0 1-.119.079.8.8 0 0 1-.175.072l-.026.012q-.016.01-.036.014l-2.323.457a.833.833 0 0 1-.978-.977l.455-2.324a.2.2 0 0 1 .017-.041l.015-.036a1 1 0 0 1 .06-.142.8.8 0 0 1 .099-.15l.017-.027q.01-.017.022-.032l3.954-3.955V9.71a2.14 2.14 0 0 1 1.524-.632c.576 0 1.117.225 1.523.632.407.406.632.946.632 1.523a2.13 2.13 0 0 1-.632 1.52zm-1.178-1.866a.48.48 0 0 0-.69 0L9.89 14.667l-.168.855.86-.17 3.773-3.775.001-.001a.485.485 0 0 0 0-.686" clip-rule="evenodd"/></svg>