<svg xmlns="http://www.w3.org/2000/svg" fill="none" viewBox="0 0 24 24"><path fill="#62757e" d="M18.333 15c.46 0 .834.373.834.833v3.822l1.077-1.078a.832.832 0 1 1 1.178 1.18l-2.5 2.5a.83.83 0 0 1-1.178 0l-2.5-2.5a.833.833 0 1 1 1.178-1.18l1.078 1.078v-3.822c0-.46.373-.832.833-.833M11.352 2.005c1.025 0 1.918.698 2.167 1.693l.491 1.964a4.17 4.17 0 0 0 3.032 3.03l1.964.492a2.235 2.235 0 0 1 0 4.335l-1.964.491a4.17 4.17 0 0 0-3.032 3.032l-.491 1.964a2.234 2.234 0 0 1-4.335 0l-.491-1.964a4.17 4.17 0 0 0-3.031-3.032l-1.964-.491a2.234 2.234 0 0 1 0-4.335l1.964-.491a4.17 4.17 0 0 0 3.03-3.031l.492-1.964a2.235 2.235 0 0 1 2.168-1.693m0 1.624a.61.61 0 0 0-.593.462l-.491 1.964a5.79 5.79 0 0 1-4.213 4.213l-1.964.491a.61.61 0 0 0 0 1.185l1.964.49a5.79 5.79 0 0 1 4.213 4.214l.491 1.964a.611.611 0 0 0 1.185 0l.49-1.964a5.79 5.79 0 0 1 4.214-4.213l1.964-.491a.61.61 0 0 0 0-1.185l-1.964-.491a5.79 5.79 0 0 1-4.213-4.213l-.491-1.964a.61.61 0 0 0-.592-.462"/></svg>