<svg xmlns="http://www.w3.org/2000/svg" fill="none" viewBox="0 0 24 24"><path fill="#62757E" fill-rule="evenodd" d="M10.692 2a2.224 2.224 0 0 0-2.159 1.685l-.492 1.968A4.19 4.19 0 0 1 4.994 8.7l-1.967.491a2.225 2.225 0 0 0 0 4.318L4.994 14a4.19 4.19 0 0 1 3.047 3.047l.492 1.968a2.225 2.225 0 0 0 4.317 0l.492-1.968q.103-.407.28-.78c.619 1.563 1.967 2.848 3.646 3.164v.972h-1.2a.8.8 0 1 0 0 1.6h4a.8.8 0 1 0 0-1.6h-1.2v-.964a4.8 4.8 0 0 0 3.748-3.196.8.8 0 1 0-1.516-.512 3.2 3.2 0 0 1-3.032 2.175c-1.694 0-3.215-1.678-3.215-3.523a.83.83 0 0 0-.208-.55.8.8 0 0 0-1.13-.055 5.8 5.8 0 0 0-1.725 2.881l-.492 1.968a.625.625 0 0 1-1.213 0l-.491-1.968a5.79 5.79 0 0 0-4.211-4.21l-1.968-.493a.625.625 0 0 1 0-1.212l1.968-.492a5.79 5.79 0 0 0 4.21-4.211l.492-1.968a.625.625 0 0 1 1.213 0l.492 1.968A5.79 5.79 0 0 0 16 10.25a.8.8 0 1 0 .39-1.55 4.19 4.19 0 0 1-3.047-3.047l-.492-1.968A2.225 2.225 0 0 0 10.692 2m5.876 9.9a1.5 1.5 0 0 1 3 0v3a1.5 1.5 0 1 1-3 0z" clip-rule="evenodd"/></svg>