<svg xmlns="http://www.w3.org/2000/svg" fill="none" viewBox="0 0 24 24"><path fill="#62757E" fill-rule="evenodd" d="M7.212 5.204H6.5a1.2 1.2 0 0 0-1.2 1.2v12.804a1.2 1.2 0 0 0 1.2 1.2h8a.8.8 0 1 1 0 1.6h-8a2.8 2.8 0 0 1-2.8-2.8V6.404a2.8 2.8 0 0 1 2.8-2.8h.964A2.8 2.8 0 0 1 10 1.993h4a2.8 2.8 0 0 1 2.536 1.61h.964a2.8 2.8 0 0 1 2.8 2.8V13.6a.8.8 0 0 1-1.6 0V6.404a1.2 1.2 0 0 0-1.2-1.2h-.712A1.8 1.8 0 0 1 15 6.793H9a1.8 1.8 0 0 1-1.788-1.59m1.588-.41a1.2 1.2 0 0 1 1.2-1.2h4a1.2 1.2 0 0 1 1.2 1.2v.2a.2.2 0 0 1-.2.2H9a.2.2 0 0 1-.2-.2zM19.5 16c.268 0 .501.182.566.442l.201.805a2.04 2.04 0 0 0 1.486 1.486l.805.201a.583.583 0 0 1 0 1.132l-.805.201a2.04 2.04 0 0 0-1.486 1.486l-.201.805a.583.583 0 0 1-1.132 0l-.201-.805a2.04 2.04 0 0 0-1.486-1.486l-.805-.201a.583.583 0 0 1 0-1.132l.805-.201a2.04 2.04 0 0 0 1.486-1.486l.201-.805A.58.58 0 0 1 19.5 16m-8.333-2.353-1.078-1.078a.832.832 0 1 0-1.178 1.178l1.667 1.667a.83.83 0 0 0 1.178 0l3.333-3.333a.832.832 0 1 0-1.178-1.178z" clip-rule="evenodd"/></svg>