<svg xmlns="http://www.w3.org/2000/svg" fill="none" viewBox="0 0 24 24"><path fill="#62757E" fill-rule="evenodd" d="M19.5 20h-15A2.503 2.503 0 0 1 2 17.5v-10C2 6.12 3.122 5 4.5 5h15C20.878 5 22 6.12 22 7.5v10c0 1.378-1.122 2.5-2.5 2.5m.833-12.5a.835.835 0 0 0-.833-.833h-15a.835.835 0 0 0-.833.833v10c0 .46.374.833.833.833h15c.46 0 .833-.374.833-.833zm-1.666 5h-3.334a.834.834 0 0 1-.833-.833V8.333c0-.46.373-.833.833-.833h3.334c.46 0 .833.373.833.833v3.334c0 .46-.373.833-.833.833m-.834-3.333h-1.666v1.666h1.666zm-6.666 7.5h-5a.834.834 0 0 1 0-1.667h5a.834.834 0 0 1 0 1.667m0-3.334h-5a.834.834 0 0 1 0-1.666h5a.834.834 0 0 1 0 1.666M8.667 10h-2.5a.834.834 0 0 1 0-1.667h2.5a.834.834 0 0 1 0 1.667" clip-rule="evenodd"/></svg>