<svg xmlns="http://www.w3.org/2000/svg" fill="none" viewBox="0 0 24 24"><path fill="#62757E" fill-rule="evenodd" d="M12.702 3.204a.85.85 0 0 1 1.094.498L16 9.579l2.204-5.877a.85.85 0 1 1 1.592.596l-3 8a.85.85 0 0 1-1.592 0l-3-8a.85.85 0 0 1 .498-1.094M7.5 4.85A1.65 1.65 0 0 0 5.85 6.5v.65h3.3V6.5A1.65 1.65 0 0 0 7.5 4.85m3.35 1.65a3.35 3.35 0 1 0-6.7 0V12a.85.85 0 0 0 1.7 0V8.85h3.3V12a.85.85 0 0 0 1.7 0zM7.052 18.85l.549.549a.85.85 0 1 1-1.202 1.202l-2-2a.85.85 0 0 1 0-1.202l2-2A.85.85 0 1 1 7.6 16.601l-.549.549h9.896l-.55-.549a.85.85 0 1 1 1.203-1.202l2 2a.85.85 0 0 1 0 1.202l-2 2a.85.85 0 1 1-1.202-1.202l.549-.549z" clip-rule="evenodd"/></svg>