<svg xmlns="http://www.w3.org/2000/svg" fill="none" viewBox="0 0 24 24"><g clip-path="url(#a)"><path fill="#F5B5FF" d="M12 24c6.627 0 12-5.373 12-12S18.627 0 12 0 0 5.373 0 12s5.373 12 12 12"/><path fill="#000" fill-rule="evenodd" d="M9.582 9.402 8.42 7.02c-.108-.23 0-.473.257-.528l8.228-1.976c.256-.068.459.108.459.365v3.06a.39.39 0 0 1-.284.366l-6.552 1.57c-.352.082-.649.447-.649.813l-.014 2.627c0 .27-.216.555-.486.609l-2 .46c-.418.095-.77-.176-.77-.61v-2.558c0-.271.217-.542.487-.61l2.148-.5c.338-.068.486-.393.338-.705m-2.676 6.296 4.445-1.029c.392-.094.568-.46.392-.826l-1.027-2.125c-.162-.339 0-.69.365-.772l5.85-1.395c.257-.067.46.109.46.366v2.83a.72.72 0 0 1-.527.663l-4.054.975c-.391.081-.567.46-.391.826l1.12 2.315c.109.23 0 .474-.256.528L7.082 19.49c-.257.054-.46-.109-.46-.366v-3.06a.39.39 0 0 1 .284-.366" clip-rule="evenodd"/></g><defs><clipPath id="a"><path fill="#fff" d="M0 0h24v24H0z"/></clipPath></defs></svg>