<svg xmlns="http://www.w3.org/2000/svg" fill="none" viewBox="0 0 24 24"><path fill="currentColor" fill-rule="evenodd" d="m19.81 9.935-1.63 1.63a4.037 4.037 0 0 1-2.872 1.19h-.312a.75.75 0 1 1 0-1.5h.312a2.55 2.55 0 0 0 1.812-.75l1.63-1.63c.484-.486.75-1.129.75-1.814a2.55 2.55 0 0 0-.75-1.813 2.568 2.568 0 0 0-3.626 0l-1.629 1.63a2.55 2.55 0 0 0-.75 1.814v.305a.75.75 0 1 1-1.5 0v-.305a4.04 4.04 0 0 1 1.189-2.874l1.63-1.63a4.07 4.07 0 0 1 5.746 0A4.034 4.034 0 0 1 21 7.06a4.04 4.04 0 0 1-1.19 2.874ZM8.996 15.75a.75.75 0 0 1-.53-1.281l6-6.001a.749.749 0 1 1 1.061 1.06l-6 6.002a.75.75 0 0 1-.531.22ZM9 12.745h-.31c-.684 0-1.328.267-1.813.75l-1.629 1.63c-.998 1-1 2.628 0 3.627a2.57 2.57 0 0 0 3.626 0l1.629-1.63c.484-.485.75-1.128.75-1.814v-.307a.75.75 0 1 1 1.501 0v.307a4.043 4.043 0 0 1-1.19 2.875l-1.63 1.63A4.052 4.052 0 0 1 7.062 21a4.05 4.05 0 0 1-2.873-1.188 4.072 4.072 0 0 1-.001-5.748l1.63-1.629a4.04 4.04 0 0 1 2.873-1.19H9a.75.75 0 1 1 0 1.5Z" clip-rule="evenodd"/></svg>