<svg xmlns="http://www.w3.org/2000/svg" fill="none" viewBox="0 0 24 24"><path fill="#62757E" fill-rule="evenodd" d="M13.434 4.434a4.336 4.336 0 0 1 6.132 6.132l-3.998 3.997a4.3 4.3 0 0 1-6.14-.003.8.8 0 0 1 1.143-1.12 2.7 2.7 0 0 0 3.858 0l.005-.006 4-4a2.736 2.736 0 0 0-3.868-3.868l-.5.5a.8.8 0 0 1-1.132-1.132zm-3.6 4.051a4.3 4.3 0 0 1 4.737.955.8.8 0 1 1-1.142 1.12 2.7 2.7 0 0 0-3.858 0l-.005.006-4 4a2.735 2.735 0 1 0 3.868 3.868l.5-.5a.8.8 0 0 1 1.132 1.132l-.5.5a4.336 4.336 0 0 1-6.132-6.132l3.997-3.997a4.3 4.3 0 0 1 1.403-.952" clip-rule="evenodd"/></svg>