<svg xmlns="http://www.w3.org/2000/svg" fill="none" viewBox="0 0 24 24"><path fill="#62757E" fill-rule="evenodd" d="M8 2.2a.8.8 0 0 1 .8.8v2a.8.8 0 1 1-1.6 0V3a.8.8 0 0 1 .8-.8m5.434 2.234a4.336 4.336 0 0 1 6.132 6.132l-3.998 3.997a4.3 4.3 0 0 1-6.14-.003.8.8 0 0 1 1.143-1.12 2.7 2.7 0 0 0 3.858 0l.005-.006 4-4a2.736 2.736 0 0 0-3.868-3.868l-.5.5a.8.8 0 0 1-1.132-1.132zM2.2 8a.8.8 0 0 1 .8-.8h2a.8.8 0 1 1 0 1.6H3a.8.8 0 0 1-.8-.8m7.634.485a4.3 4.3 0 0 1 4.737.955.8.8 0 1 1-1.142 1.12 2.7 2.7 0 0 0-3.858 0l-.005.006-4 4a2.736 2.736 0 1 0 3.868 3.868l.5-.5a.8.8 0 0 1 1.132 1.132l-.5.5a4.336 4.336 0 0 1-6.132-6.132l3.998-3.997a4.3 4.3 0 0 1 1.402-.952M21 16.8h-2a.8.8 0 0 1 0-1.6h2a.8.8 0 0 1 0 1.6m-5 1.4a.8.8 0 0 1 .8.8v2a.8.8 0 0 1-1.6 0v-2a.8.8 0 0 1 .8-.8" clip-rule="evenodd"/></svg>