<svg xmlns="http://www.w3.org/2000/svg" fill="none" viewBox="0 0 24 24"><g clip-path="url(#a)"><path fill="#E8EDFA" d="M12 24c6.627 0 12-5.373 12-12S18.627 0 12 0 0 5.373 0 12s5.373 12 12 12Z"/><path fill="#2A5ADA" d="m11.997 5.5-1.193.686-3.25 1.879-1.188.685v6.5l1.192.685 3.28 1.88 1.193.685 1.193-.685 3.218-1.88 1.192-.685v-6.5l-1.192-.685-3.25-1.879-1.195-.686Zm-3.25 8.378v-3.756l3.25-1.879 3.25 1.879v3.756l-3.25 1.879-3.25-1.879Z"/></g><defs><clipPath id="a"><path fill="#fff" d="M0 0h24v24H0z"/></clipPath></defs></svg>