<svg xmlns="http://www.w3.org/2000/svg" fill="none" viewBox="0 0 24 24"><path fill="#0090FF" d="M8.355 2a.696.696 0 0 0-.647.432.706.706 0 0 0-.054.27v2.944a1.086 1.086 0 0 0 .667.997c.13.054.27.082.412.081h2.105a1.072 1.072 0 0 1 .997.666c.054.131.082.272.083.414v3.2a1.087 1.087 0 0 0 .667.999c.13.054.27.082.412.081h3.2a1.077 1.077 0 0 1 1.08 1.079v2.104a1.086 1.086 0 0 0 .667.998c.13.055.27.082.412.082h2.942a.698.698 0 0 0 .702-.702V2.703a.706.706 0 0 0-.433-.65A.697.697 0 0 0 21.3 2H8.355Zm-.774 13.673V8.96a1.086 1.086 0 0 0-.665-.999 1.071 1.071 0 0 0-.412-.082H2.702a.697.697 0 0 0-.648.434.707.707 0 0 0-.054.27V21.3a.706.706 0 0 0 .702.702h12.943a.695.695 0 0 0 .648-.433.708.708 0 0 0 .054-.27v-3.468a1.087 1.087 0 0 0-.668-.998 1.072 1.072 0 0 0-.412-.08H8.662a1.085 1.085 0 0 1-1.08-1.08"/></svg>