<svg xmlns="http://www.w3.org/2000/svg" fill="none" viewBox="0 0 24 24"><path fill="#0090FF" d="M8.355 2a.7.7 0 0 0-.647.432.7.7 0 0 0-.054.27v2.944a1.09 1.09 0 0 0 .667.997q.197.082.412.081h2.105a1.07 1.07 0 0 1 .997.666c.054.131.082.272.083.414v3.2a1.09 1.09 0 0 0 .667.999q.197.082.412.081h3.2a1.077 1.077 0 0 1 1.08 1.079v2.104a1.09 1.09 0 0 0 .667.999c.13.054.27.081.412.08h2.942a.7.7 0 0 0 .702-.701V2.703a.71.71 0 0 0-.433-.65A.7.7 0 0 0 21.3 2zm-.774 13.673V8.96a1.09 1.09 0 0 0-.665-.999 1.1 1.1 0 0 0-.412-.082H2.702a.7.7 0 0 0-.648.434.7.7 0 0 0-.054.27V21.3a.706.706 0 0 0 .702.702h12.943a.695.695 0 0 0 .648-.433.7.7 0 0 0 .054-.27v-3.468a1.09 1.09 0 0 0-.668-.998 1.1 1.1 0 0 0-.412-.08H8.662a1.085 1.085 0 0 1-1.08-1.08"/></svg>