<svg xmlns="http://www.w3.org/2000/svg" fill="none" viewBox="0 0 24 24"><path fill="#62757E" fill-rule="evenodd" d="m19.985 6.215-.011.018-2.527 2.817c-.23.26-.562.41-.905.41h-.001c-.343 0-.674-.15-.908-.411l-2.526-2.817-.01-.02a2.54 2.54 0 0 1 .037-3.505c.907-.92 2.459-.94 3.407-.081.949-.858 2.5-.837 3.405.08.95.968.959 2.527.039 3.508m-1.208-2.33a.84.84 0 0 0-1.168 0c-.01.01-.021.013-.03.021-.01.009-.013.02-.022.028l-.484.412c-.04.035-.087.052-.13.077-.031.018-.058.04-.09.053a.8.8 0 0 1-.312.068h-.001a.8.8 0 0 1-.31-.068c-.033-.013-.06-.035-.092-.053-.043-.025-.09-.042-.13-.076l-.483-.413c-.011-.01-.017-.024-.027-.034-.007-.006-.018-.007-.025-.014a.84.84 0 0 0-1.17 0 .86.86 0 0 0 .001 1.199l.011.016q.006.006.016.011l2.21 2.466 2.21-2.466.015-.011.011-.016a.86.86 0 0 0 0-1.2M8.18 17.881h-.825a.83.83 0 0 1-.825-.834.83.83 0 0 1 .825-.834h.825a.83.83 0 0 1 .825.834.83.83 0 0 1-.825.834m0-5.005h-.825a.83.83 0 0 1-.825-.834c0-.46.369-.833.825-.833h.825c.456 0 .825.373.825.833a.83.83 0 0 1-.825.834m0 2.503h-.825a.83.83 0 0 1-.825-.834.83.83 0 0 1 .825-.835h.825a.83.83 0 0 1 .825.835.83.83 0 0 1-.825.834m7.426 2.502h-4.951a.83.83 0 0 1-.825-.834.83.83 0 0 1 .825-.834h4.95a.83.83 0 0 1 .826.834.83.83 0 0 1-.825.834m0-5.005h-4.951a.83.83 0 0 1-.825-.834c0-.46.37-.833.825-.833h4.95a.83.83 0 0 1 .826.833.83.83 0 0 1-.825.834m0 2.503h-4.951a.83.83 0 0 1-.825-.834.83.83 0 0 1 .825-.835h4.95a.83.83 0 0 1 .826.835.83.83 0 0 1-.825.834M10.638 5.272H5.673v15.151h11.709v-9.259c0-.46.38-.841.836-.841s.837.381.837.841v9.26c0 .797-1.077 1.576-1.862 1.576h-12C4.407 22 4 21.22 4 20.423V5.273c0-.798.407-1.623 1.193-1.623h5.123c.455 0 .824.373.824.834s-.045.788-.502.788" clip-rule="evenodd"/></svg>