<svg xmlns="http://www.w3.org/2000/svg" fill="none" viewBox="0 0 24 24"><path fill="#62757E" fill-rule="evenodd" d="M21.167 13H9.5a.834.834 0 0 1 0-1.667h11.667a.834.834 0 0 1 0 1.667m0-6.667H9.5a.834.834 0 0 1 0-1.666h11.667a.834.834 0 0 1 0 1.666m-16.667 15a2.503 2.503 0 0 1-2.5-2.5c0-1.378 1.122-2.5 2.5-2.5s2.5 1.122 2.5 2.5c0 1.379-1.122 2.5-2.5 2.5M4.5 18a.835.835 0 0 0-.833.833c0 .46.374.834.833.834A.835.835 0 0 0 4.5 18m0-3.333a2.503 2.503 0 0 1-2.5-2.5c0-1.379 1.122-2.5 2.5-2.5s2.5 1.121 2.5 2.5c0 1.378-1.122 2.5-2.5 2.5m0-3.334a.835.835 0 0 0-.833.834.834.834 0 0 0 1.666 0 .835.835 0 0 0-.833-.834M4.5 8C3.122 8 2 6.88 2 5.5 2 4.122 3.122 3 4.5 3S7 4.122 7 5.5C7 6.88 5.878 8 4.5 8m0-3.333a.835.835 0 0 0-.833.833.834.834 0 0 0 1.666 0 .835.835 0 0 0-.833-.833M9.5 18h11.667a.834.834 0 0 1 0 1.667H9.5A.834.834 0 0 1 9.5 18" clip-rule="evenodd"/></svg>