<svg xmlns="http://www.w3.org/2000/svg" fill="none" viewBox="0 0 24 24"><path fill="#62757E" fill-rule="evenodd" d="M21.167 13H9.5a.833.833 0 1 1 0-1.667h11.667a.834.834 0 0 1 0 1.667m.007-6.72H9.453c-.46 0-.787-.32-.787-.78s.374-.834.834-.834h11.667c.46 0 .833.374.833.834s-.365.78-.826.78M4.5 21.332a2.503 2.503 0 0 1-2.5-2.5c0-1.379 1.122-2.5 2.5-2.5 1.38 0 2.5 1.121 2.5 2.5 0 1.378-1.12 2.5-2.5 2.5M4.5 18a.834.834 0 1 0 .002 1.668A.834.834 0 0 0 4.5 18m0-3.334a2.503 2.503 0 0 1-2.5-2.5c0-1.377 1.122-2.5 2.5-2.5a2.5 2.5 0 0 1 0 5m0-3.333a.834.834 0 1 0 .002 1.668.834.834 0 0 0-.002-1.668m.497-4.506a.836.836 0 0 1-1.2.15L2.306 5.752a.832.832 0 1 1 1.057-1.288l.814.667 1.32-1.792a.834.834 0 0 1 1.342.989zM9.5 18h11.667a.833.833 0 0 1 0 1.667H9.5A.833.833 0 1 1 9.5 18" clip-rule="evenodd"/></svg>