<svg xmlns="http://www.w3.org/2000/svg" fill="none" viewBox="0 0 24 24"><path fill="#62757E" fill-rule="evenodd" d="M21.13 12.423H8.957a.87.87 0 0 1-.87-.869c0-.48.353-.792.833-.792h12.212c.48 0 .868.313.868.792a.87.87 0 0 1-.87.87m0-6.948H8.957a.87.87 0 0 1-.87-.868c0-.48.353-.824.833-.824h12.212c.48 0 .868.343.868.824a.87.87 0 0 1-.87.868M4.933 20.606c-.501.439-1.215.524-1.696.524-.23 0-.406-.02-.482-.03a.87.87 0 0 1 .226-1.722c.15.018.327.017.48.002q-.05-.006-.095-.007H3.26a.868.868 0 0 1-.018-1.736c.024 0 .063.001.104-.001l.06-.005a2.3 2.3 0 0 0-.446-.001.875.875 0 0 1-.953-.773.867.867 0 0 1 .769-.955c.235-.027 1.446-.121 2.174.532.346.31.529.725.529 1.203 0 .318-.085.611-.248.863.163.254.248.55.248.873 0 .494-.19.92-.546 1.233m.546-7.312a.87.87 0 0 1-.87.869h-1.74a.869.869 0 0 1-.614-1.482c.724-.725 1.42-1.66 1.483-1.99a11 11 0 0 0-.553-.004l-.315.001a.87.87 0 1 1 0-1.737h.304c.783-.004 1.403-.01 1.864.449.395.391.44.923.44 1.288 0 .538-.327 1.17-.734 1.748a.87.87 0 0 1 .735.858m-1.74-6.082a.87.87 0 0 1-.87-.87V4.607a.868.868 0 0 1-.593-1.47l.837-.869a.869.869 0 0 1 1.496.602v3.474a.87.87 0 0 1-.87.869m5.18 10.53h12.213c.48 0 .868.281.868.76 0 .48-.388.984-.868.984H8.92c-.48 0-.833-.504-.833-.983 0-.48.353-.762.833-.762" clip-rule="evenodd"/></svg>