<svg xmlns="http://www.w3.org/2000/svg" fill="none" viewBox="0 0 24 24"><path fill="#62757E" fill-rule="evenodd" d="M3.254 6h16.5a.75.75 0 0 0 0-1.5h-16.5a.75.75 0 0 0 0 1.5Zm0 4.5h7.484a.75.75 0 0 0 0-1.5H3.254a.75.75 0 0 0 0 1.5Zm0 4.473h6.078a.75.75 0 0 0 0-1.5H3.254a.75.75 0 0 0 0 1.5Zm0 4.527h7.931a.75.75 0 0 0 0-1.5h-7.93a.75.75 0 0 0 0 1.5Zm17.708-6.891v1.6h-.914c-.076.29-.19.563-.34.816l.648.646-1.132 1.132-.648-.647a3.177 3.177 0 0 1-.813.34l-.001.913h-1.6v-.914a3.155 3.155 0 0 1-.815-.34l-.675.676-1.132-1.132.676-.675a3.166 3.166 0 0 1-.34-.815h-.914v-1.6h.914c.075-.29.19-.563.34-.814l-.648-.649 1.13-1.13.65.646c.252-.149.524-.263.815-.339V9.41h1.6v.914c.29.076.562.191.814.34l.618-.62 1.133 1.13-.619.622c.149.252.264.524.34.814h.913Zm-4-.8a1.6 1.6 0 1 0 1.6 1.6c0-.882-.718-1.6-1.6-1.6Z" clip-rule="evenodd"/></svg>