<svg xmlns="http://www.w3.org/2000/svg" fill="none" viewBox="0 0 24 24"><path fill="silver" d="M11.969 22c-5.552-.032-10-4.487-9.969-10.016A9.97 9.97 0 0 1 12.031 2c5.553.031 10 4.518 9.969 10.047-.064 5.53-4.543 9.984-10.031 9.953Zm9.053-9.984a9.04 9.04 0 0 0-9.053-9.068c-4.985 0-9.023 4.044-9.023 9.036A9.04 9.04 0 0 0 12 21.052c4.984 0 9.022-4.045 9.022-9.036Z"/><path fill="silver" d="M19.665 12.016c-.063 4.265-3.5 7.709-7.728 7.677-4.29-.063-7.697-3.539-7.634-7.772C4.366 7.656 7.804 4.275 12 4.306a7.707 7.707 0 0 1 7.665 7.71Zm-8.17 2.748v-.095c.22-.852.41-1.674.632-2.527.03-.063.094-.158.189-.19.22-.094.441-.19.662-.252.505-.126.79-.411.852-.916.031-.222.126-.443.189-.695-.536.22-1.01.41-1.514.6.347-1.36.662-2.623 1.01-3.95h-2.871c-.19 0-.253.063-.316.253l-1.325 4.929a.444.444 0 0 1-.19.221c-.284.126-.598.221-.882.348-.063.031-.158.062-.158.094-.126.411-.252.853-.41 1.327.441-.19.82-.348 1.262-.505-.285 1.105-.568 2.18-.852 3.254h8.139c.157 0 .22-.032.252-.19a7.51 7.51 0 0 1 .253-.916c.062-.221.094-.442.157-.694l-5.079-.096Z"/><path fill="#fff" d="M11.495 14.764c1.704.032 3.376.063 5.079.127-.063.252-.126.473-.157.694-.096.316-.19.601-.253.917-.032.158-.095.19-.252.19H7.773c.285-1.107.568-2.149.852-3.255a21.2 21.2 0 0 0-1.262.506c.127-.474.252-.884.41-1.327 0-.063.095-.095.158-.095.285-.126.6-.221.883-.348.094-.03.19-.125.19-.22l1.323-4.929c.032-.189.095-.252.316-.252h2.87c-.347 1.294-.662 2.59-1.01 3.949.505-.22.979-.41 1.515-.6-.063.253-.158.473-.19.695-.062.506-.346.79-.85.917-.22.062-.443.157-.663.252a.543.543 0 0 0-.19.19c-.22.852-.442 1.674-.63 2.526v.064-.001Z"/></svg>