<svg xmlns="http://www.w3.org/2000/svg" fill="none" viewBox="0 0 24 24"><path fill="silver" d="M11.969 22c-5.552-.032-10-4.487-9.969-10.016A9.97 9.97 0 0 1 12.031 2c5.553.031 10 4.518 9.969 10.047-.064 5.53-4.543 9.984-10.031 9.953m9.053-9.984a9.04 9.04 0 0 0-9.053-9.068c-4.985 0-9.023 4.044-9.023 9.036A9.04 9.04 0 0 0 12 21.052c4.984 0 9.022-4.045 9.022-9.036"/><path fill="silver" d="M19.665 12.016c-.063 4.265-3.5 7.709-7.728 7.677-4.29-.063-7.697-3.539-7.633-7.772.062-4.265 3.5-7.646 7.696-7.615a7.707 7.707 0 0 1 7.665 7.71m-8.17 2.748v-.095c.22-.852.41-1.674.632-2.527.03-.063.094-.158.189-.19.22-.094.441-.19.662-.252.505-.126.79-.411.852-.916.031-.222.126-.443.189-.695-.536.22-1.01.41-1.514.6.347-1.36.662-2.623 1.01-3.95h-2.871c-.19 0-.253.063-.316.253l-1.325 4.929a.44.44 0 0 1-.19.221c-.284.126-.598.221-.882.348-.063.031-.158.062-.158.094-.126.411-.252.853-.41 1.327.442-.19.82-.348 1.262-.505-.285 1.105-.568 2.18-.852 3.254h8.14c.156 0 .22-.032.252-.19a8 8 0 0 1 .252-.916c.062-.221.094-.442.157-.694z"/><path fill="#fff" d="M11.496 14.764c1.703.032 3.375.063 5.078.127-.062.252-.126.473-.157.694-.095.316-.19.601-.252.917-.032.158-.096.19-.253.19H7.773c.285-1.107.569-2.149.852-3.255a21 21 0 0 0-1.262.506c.127-.474.253-.884.41-1.327 0-.063.095-.095.158-.095.285-.126.6-.221.883-.348.095-.03.19-.125.19-.22l1.323-4.929c.033-.189.095-.252.316-.252h2.87c-.346 1.294-.662 2.59-1.009 3.949.505-.22.978-.41 1.514-.6-.063.253-.158.473-.189.695-.063.506-.347.79-.851.917-.22.062-.443.157-.663.252a.54.54 0 0 0-.189.19c-.221.852-.442 1.674-.631 2.526v.064z"/></svg>