<svg xmlns="http://www.w3.org/2000/svg" fill="none" viewBox="0 0 24 24"><path fill="url(#a)" d="M0 4.781C0 2.141 2.14 0 4.781 0H19.22A4.78 4.78 0 0 1 24 4.781V19.22A4.78 4.78 0 0 1 19.219 24H4.78A4.78 4.78 0 0 1 0 19.219z"/><rect width="13.594" height="2.016" x="3.234" y="4.266" fill="#fff" opacity=".25" rx="1.008"/><rect width="13.594" height="2.016" x="4.875" y="9.703" fill="#fff" opacity=".25" rx="1.008"/><rect width="13.594" height="2.016" x="7.359" y="6.984" fill="#fff" opacity=".25" rx="1.008"/><rect width="15.75" height="2.016" x="2.016" y="12.422" fill="#fff" opacity=".25" rx="1.008"/><rect width="13.594" height="2.016" x="4.875" y="15.141" fill="#fff" opacity=".25" rx="1.008"/><rect width="9.984" height="2.016" x="11.484" y="18.094" fill="#fff" opacity=".25" rx="1.008"/><rect width="10.406" height="2.016" x="3.234" y="4.266" fill="#E5DFF7" rx="1.008"/><rect width="10.5" height="2.016" x="4.875" y="9.703" fill="#E5DFF7" rx="1.008"/><rect width="10.5" height="2.016" x="2.016" y="12.422" fill="#E5DFF7" rx="1.008"/><rect width="10.406" height="2.016" x="7.359" y="6.984" fill="#E5DFF7" rx="1.008"/><rect width="10.734" height="2.016" x="4.875" y="15.141" fill="#E5DFF7" rx="1.008"/><rect width="6.984" height="2.016" x="11.484" y="18.094" fill="#E5DFF7" rx="1.008"/><defs><linearGradient id="a" x1="2.391" x2="21.82" y1="1.922" y2="23.063" gradientUnits="userSpaceOnUse"><stop stop-color="#6C77EF"/><stop offset="1" stop-color="#4F14BF"/></linearGradient></defs></svg>