<svg xmlns="http://www.w3.org/2000/svg" fill="none" viewBox="0 0 24 24"><g fill="#62757E" clip-path="url(#a)"><path fill-rule="evenodd" d="M12 22c5.523 0 10-4.477 10-10S17.523 2 12 2 2 6.477 2 12s4.477 10 10 10m0-2a8 8 0 1 0 0-16 8 8 0 0 0 0 16" clip-rule="evenodd" opacity=".3"/><path d="M12 3c0-.552.449-1.005.998-.95a10 10 0 0 1 8.952 8.952c.055.55-.398.998-.95.998s-.994-.45-1.062-.997a8 8 0 0 0-6.94-6.94C12.448 3.992 12 3.552 12 3"/></g><defs><clipPath id="a"><path fill="#fff" d="M0 0h24v24H0z"/></clipPath></defs></svg>