<svg xmlns="http://www.w3.org/2000/svg" fill="none" viewBox="0 0 24 24"><path fill="currentColor" d="M6.553 7.491a6.927 6.927 0 0 0-.704 3.062c0 1.818 1.127 4.258 2.642 6.312.743 1.008 1.543 1.87 2.271 2.47.365.301.695.522.978.664.29.147.477.183.571.183.326 0 .904-.226 1.676-.851.692-.56 1.429-1.35 2.117-2.275l1.267 1.27.029.027c-.715.934-1.495 1.764-2.272 2.392-.854.692-1.847 1.255-2.817 1.255-.483 0-.96-.161-1.387-.377a7.238 7.238 0 0 1-1.315-.883c-.869-.716-1.768-1.696-2.578-2.795-1.593-2.16-2.998-4.989-2.998-7.392A8.73 8.73 0 0 1 5.214 6.15l1.34 1.34Z"/><path fill="currentColor" d="M9.256 10.198a3.066 3.066 0 0 0 3.183 3.188l-3.183-3.188Zm6.084.628-3.528-3.533a3.066 3.066 0 0 1 3.528 3.533Z"/><path fill="currentColor" d="M18.087 13.578c.439-1.076.697-2.125.697-3.025 0-3.75-2.924-6.735-6.467-6.735a6.245 6.245 0 0 0-3.134.843L7.863 3.34A8.05 8.05 0 0 1 12.317 2C16.92 2 20.6 5.859 20.6 10.553c0 1.393-.45 2.933-1.135 4.405l-1.378-1.38Z"/><path fill="currentColor" fill-rule="evenodd" d="M4.133 3.96a.793.793 0 0 1 1.123 0l14.442 14.463c.31.31.31.814 0 1.125a.794.794 0 0 1-1.123 0L4.133 5.084a.796.796 0 0 1 0-1.125Z" clip-rule="evenodd"/></svg>