<svg xmlns="http://www.w3.org/2000/svg" fill="none" viewBox="0 0 24 24"><path fill="#687485" fill-rule="evenodd" d="M17.833 22H6.167c-1.379 0-2.5-1.12-2.5-2.5v-8.333c0-1.379 1.121-2.5 2.5-2.5H7V7c0-2.757 2.242-5 5-5 2.757 0 5 2.243 5 5v1.667h.833c1.379 0 2.5 1.121 2.5 2.5V19.5c0 1.38-1.121 2.5-2.5 2.5ZM12 3.667A3.337 3.337 0 0 0 8.666 7v1.667h6.667V7A3.337 3.337 0 0 0 12 3.667Zm6.666 7.5a.834.834 0 0 0-.833-.834H6.167a.834.834 0 0 0-.834.834V19.5c0 .46.374.833.833.833h11.667c.46 0 .834-.374.834-.833v-8.333Zm-5.833 3.935V17a.834.834 0 0 1-1.667 0v-1.898a1.661 1.661 0 0 1-.833-1.435c0-.92.748-1.667 1.667-1.667s1.666.748 1.666 1.667a1.66 1.66 0 0 1-.833 1.435Z" clip-rule="evenodd"/></svg>