<svg xmlns="http://www.w3.org/2000/svg" fill="none" viewBox="0 0 24 24"><path fill="#687485" fill-rule="evenodd" d="M17.833 22H6.167a2.503 2.503 0 0 1-2.5-2.5v-8.333c0-1.378 1.121-2.5 2.5-2.5h1.131a4.959 4.959 0 0 1 .175-3.783 4.957 4.957 0 0 1 2.816-2.58 4.955 4.955 0 0 1 3.817.166 4.954 4.954 0 0 1 2.58 2.816l.24.55a.835.835 0 0 1-1.53.662l-.258-.596c-.322-.88-.931-1.546-1.736-1.921a3.3 3.3 0 0 0-2.543-.11c-.834.302-1.5.912-1.875 1.717a3.305 3.305 0 0 0-.11 2.542l.192.538h8.767c1.379 0 2.5 1.121 2.5 2.499V19.5c0 1.379-1.121 2.5-2.5 2.5Zm.834-10.833c0-.46-.374-.885-.834-.885H8.765l-.004.003a.826.826 0 0 1-.282.05.817.817 0 0 1-.277-.053H6.167c-.46 0-.834.426-.834.885V19.5c0 .46.373.833.833.833h11.667c.46 0 .834-.373.834-.833v-8.333Zm-5.834 3.935V17a.833.833 0 1 1-1.667 0v-1.898a1.662 1.662 0 0 1-.833-1.435 1.668 1.668 0 0 1 3.333 0c0 .614-.337 1.145-.833 1.435Z" clip-rule="evenodd"/></svg>