<svg xmlns="http://www.w3.org/2000/svg" fill="none" viewBox="0 0 24 24"><path fill="#62757E" fill-rule="evenodd" d="M18.666 19.5c0 .46-.374.833-.833.833H6.167a.834.834 0 0 1-.834-.833v-8.333c0-.46.374-.834.833-.834h11.667c.46 0 .834.374.834.834V19.5ZM8.666 7A3.337 3.337 0 0 1 12 3.667 3.337 3.337 0 0 1 15.333 7v1.667H8.666V7Zm9.167 1.667H17V7c0-2.758-2.243-5-5-5-2.758 0-5 2.242-5 5v1.667h-.833a2.503 2.503 0 0 0-2.5 2.5V19.5c0 1.378 1.121 2.5 2.5 2.5h11.666c1.379 0 2.5-1.122 2.5-2.5v-8.333c0-1.379-1.121-2.5-2.5-2.5Z" clip-rule="evenodd"/></svg>