<svg xmlns="http://www.w3.org/2000/svg" fill="none" viewBox="0 0 24 24"><path fill="#62757E" fill-rule="evenodd" d="M19.182 2.17a.85.85 0 0 1 1.202 1.203l-16.66 16.66a.85.85 0 0 1-1.202-1.202l1.144-1.145v-6.52c0-1.378 1.122-2.5 2.5-2.5H7V7c0-2.758 2.242-5 5-5a5.01 5.01 0 0 1 4.51 2.843zM15.22 6.135A3.34 3.34 0 0 0 12 3.668 3.337 3.337 0 0 0 8.667 7v1.667h4.02zm-4.2 4.2H6.167a.834.834 0 0 0-.833.833v4.853zm7.647 9.166c0 .46-.374.833-.833.833H6.166a.8.8 0 0 1-.302-.056l-1.212 1.211a2.5 2.5 0 0 0 1.514.512h11.667c1.378 0 2.5-1.122 2.5-2.5v-8.333c0-1.379-1.122-2.5-2.5-2.5h-.359l-1.667 1.666h2.026c.46 0 .833.374.833.834zm-7.5-3.982a1.7 1.7 0 0 1-.31-.233l2.35-2.35c.285.299.46.703.46 1.148 0 .614-.337 1.145-.833 1.435v1.898a.833.833 0 1 1-1.667 0z" clip-rule="evenodd"/></svg>