<svg xmlns="http://www.w3.org/2000/svg" fill="none" viewBox="0 0 24 24"><path fill="#62757E" fill-rule="evenodd" d="M8.596 6.204a3.404 3.404 0 0 1 6.5-1.417.8.8 0 1 0 1.454-.668 5.005 5.005 0 0 0-9.554 2.085v2.463h-.83a2.503 2.503 0 0 0-2.5 2.5V19.5c0 1.378 1.122 2.5 2.5 2.5h11.667c1.379 0 2.5-1.122 2.5-2.5v-8.333c0-1.379-1.121-2.5-2.5-2.5H8.596zm9.237 14.13c.46 0 .834-.374.834-.834v-8.333a.834.834 0 0 0-.834-.834H6.167a.834.834 0 0 0-.834.834V19.5c0 .46.374.833.833.833zm-5-4.816v1.898a.833.833 0 1 1-1.666 0v-1.898a1.66 1.66 0 0 1-.834-1.435 1.668 1.668 0 0 1 3.334 0c0 .614-.338 1.145-.834 1.435" clip-rule="evenodd"/></svg>