<svg xmlns="http://www.w3.org/2000/svg" fill="none" viewBox="0 0 24 24"><path fill="#62757E" fill-rule="evenodd" d="M13.667 11.167v-.834c0-.887-.78-1.666-1.667-1.666s-1.667.779-1.667 1.666v.834zm.833 1.666h-5v2.059a.44.44 0 0 0 .44.441h4.118a.44.44 0 0 0 .442-.441zm.833-2.5v.834c.46 0 .834.373.834.833v2.892A2.11 2.11 0 0 1 14.058 17H9.941a2.11 2.11 0 0 1-2.108-2.108V12c0-.46.374-.833.834-.833v-.834C8.667 8.527 10.193 7 12 7s3.333 1.527 3.333 3.333M22 12c0 5.514-4.486 10-10 10S2 17.514 2 12 6.486 2 12 2c2.487 0 4.834.982 6.667 2.72V3.667a.834.834 0 0 1 1.666 0V7c0 .46-.373.833-.833.833h-3.333a.834.834 0 0 1 0-1.666h1.61c-1.563-1.616-3.575-2.5-5.777-2.5-4.595 0-8.333 3.738-8.333 8.333S7.405 20.333 12 20.333s8.333-3.738 8.333-8.333q0-.552-.07-1.093a.834.834 0 0 1 1.652-.217c.057.43.085.87.085 1.31" clip-rule="evenodd"/></svg>