<svg xmlns="http://www.w3.org/2000/svg" fill="none" viewBox="0 0 24 24"><path fill="#62757E" fill-rule="evenodd" d="M17.833 22H6.167c-1.379 0-2.5-1.12-2.5-2.5v-8.333c0-1.379 1.121-2.5 2.5-2.5H7V7c0-2.757 2.242-5 5-5s5 2.243 5 5v1.667h.833c1.379 0 2.5 1.121 2.5 2.5V19.5c0 1.38-1.121 2.5-2.5 2.5M12 3.667A3.337 3.337 0 0 0 8.666 7v1.667h6.667V7A3.337 3.337 0 0 0 12 3.667m6.666 7.5a.834.834 0 0 0-.833-.834H6.167a.834.834 0 0 0-.834.834V19.5c0 .46.374.833.833.833h11.667c.46 0 .834-.374.834-.833zm-5.833 4.35v1.9a.833.833 0 1 1-1.666 0v-1.9a1.66 1.66 0 0 1-.834-1.434 1.668 1.668 0 0 1 3.334 0c0 .614-.338 1.145-.834 1.435" clip-rule="evenodd"/></svg>