<svg xmlns="http://www.w3.org/2000/svg" fill="none" viewBox="0 0 24 24"><g clip-path="url(#a)"><path fill="#48BEFF" d="M12 24c6.627 0 12-5.373 12-12S18.627 0 12 0 0 5.373 0 12s5.373 12 12 12"/><path fill="#fff" d="m15.366 17.759-8.885-6.234a2.302 2.302 0 0 1 0-3.77L8.634 6.24l8.886 6.233a2.302 2.302 0 0 1 0 3.77zM8.632 7.251 6.955 8.425a1.48 1.48 0 0 0 0 2.426l8.413 5.898 1.678-1.173a1.48 1.48 0 0 0 0-2.426z"/><path fill="#fff" d="M8.624 16.75 6.95 15.573a1.48 1.48 0 0 1 0-2.426l4.338-3.027-.716-.504-4.09 2.857a2.303 2.303 0 0 0 0 3.77l2.145 1.508 2.656-1.86-.713-.502zm8.898-8.992-2.147-1.506-2.658 1.86.713.501 1.941-1.358 1.676 1.175a1.48 1.48 0 0 1 0 2.425l-4.338 3.028.713.502 4.096-2.862a2.304 2.304 0 0 0 0-3.77z"/><path fill="#fff" d="m6.988 12.114 3.379-2.366.47.673-3.379 2.365zm9.626-.954-1.646 1.153.47.673 1.705-1.196q-.27-.311-.532-.63z"/></g><defs><clipPath id="a"><path fill="#fff" d="M0 0h24v24H0z"/></clipPath></defs></svg>