<svg xmlns="http://www.w3.org/2000/svg" fill="none" viewBox="0 0 24 24"><path fill="currentColor" fill-rule="evenodd" d="M18.75 18.75H5.56l.97.97a.749.749 0 1 1-1.06 1.06l-2.25-2.249a.76.76 0 0 1-.22-.526v-.007a.743.743 0 0 1 .22-.527v-.001l2.25-2.25a.749.749 0 1 1 1.06 1.06l-.97.97h13.19a.75.75 0 0 0 .75-.75v-9a.751.751 0 0 0-.75-.75H5.25c-.413 0-.805.337-.805.75v5.252c0 .413-.281.748-.695.748a.75.75 0 0 1-.75-.75V7.5c0-1.24 1.01-2.25 2.25-2.25h13.5C19.99 5.25 21 6.26 21 7.5v9c0 1.24-1.01 2.25-2.25 2.25Z" clip-rule="evenodd"/></svg>