<svg xmlns="http://www.w3.org/2000/svg" fill="none" viewBox="0 0 24 24"><path fill="#62757E" fill-rule="evenodd" d="m20.78 6.53-2.25 2.25a.75.75 0 0 1-1.06-1.06l.97-.97H5.25a.78.78 0 0 0-.772.762v5.27a.704.704 0 0 1-.728.718.75.75 0 0 1-.75-.75V7.5c0-1.24 1.01-2.25 2.25-2.25h13.19l-.97-.97a.751.751 0 0 1 1.06-1.06l2.25 2.25a.75.75 0 0 1 0 1.06ZM10.5 9.74V8.5h2.333v7H11.44V9.739h-.94Zm-3.97 5.48a.75.75 0 0 0-1.06 0l-2.25 2.25a.75.75 0 0 0 0 1.06l2.25 2.25a.747.747 0 0 0 1.06 0 .749.749 0 0 0 0-1.06l-.97-.97h13.19A2.252 2.252 0 0 0 21 16.5v-5.25a.75.75 0 0 0-.75-.749c-.414 0-.66.36-.66.773v5.27a.758.758 0 0 1-.755.754H5.514L6.53 16.28a.749.749 0 0 0 0-1.06Z" clip-rule="evenodd"/></svg>