<svg xmlns="http://www.w3.org/2000/svg" fill="none" viewBox="0 0 24 24"><path fill="#62757E" fill-rule="evenodd" d="M4 0a4 4 0 0 0-4 4v16a4 4 0 0 0 4 4h16a4 4 0 0 0 4-4V4a4 4 0 0 0-4-4zm14.53 8.78 2.25-2.25a.75.75 0 0 0 0-1.06l-2.25-2.25a.75.75 0 0 0-1.06 1.06l.97.97H5.25C4.01 5.25 3 6.26 3 7.5v5.25c0 .414.336.75.75.75a.704.704 0 0 0 .728-.717v-5.27a.78.78 0 0 1 .772-.763h13.19l-.97.97a.751.751 0 0 0 1.06 1.06M10.5 8.5v1.239h.94V15.5h1.393v-7zm-5.03 6.72a.75.75 0 1 1 1.06 1.06l-1.016 1.017h13.32a.76.76 0 0 0 .757-.753v-5.27c0-.415.245-.774.66-.774a.75.75 0 0 1 .749.75v5.25c0 1.24-1.009 2.25-2.25 2.25H5.56l.97.97a.749.749 0 1 1-1.06 1.06l-2.25-2.25a.75.75 0 0 1 0-1.061z" clip-rule="evenodd"/></svg>