<svg xmlns="http://www.w3.org/2000/svg" fill="none" viewBox="0 0 24 24"><path fill="#62757E" fill-rule="evenodd" d="m20.78 6.53-2.25 2.25a.75.75 0 1 1-1.06-1.06l.97-.97H5.25a.75.75 0 0 0-.75.75v5.25a.75.75 0 1 1-1.5 0V7.5c0-1.24 1.01-2.25 2.25-2.25h13.19l-.97-.97a.75.75 0 1 1 1.06-1.06l2.25 2.25a.75.75 0 0 1 0 1.06M5.47 15.22a.75.75 0 1 1 1.06 1.06l-1.016 1.017h13.324a.76.76 0 0 0 .756-.753v-5.27c0-.415.242-.774.656-.774a.75.75 0 0 1 .75.75v5.25a2.25 2.25 0 0 1-2.25 2.25H5.56l.97.97a.749.749 0 1 1-1.06 1.06l-2.25-2.25a.75.75 0 0 1 0-1.061z" clip-rule="evenodd"/></svg>