<svg xmlns="http://www.w3.org/2000/svg" fill="none" viewBox="0 0 24 24"><path fill="#62757E" d="M20 0a4 4 0 0 1 4 4v16a4 4 0 0 1-4 4H4a4 4 0 0 1-4-4V4a4 4 0 0 1 4-4zm.25 10.5c-.414 0-.656.36-.656.773v5.27a.76.76 0 0 1-.756.754H5.514L6.53 16.28a.75.75 0 1 0-1.06-1.06l-2.25 2.249a.75.75 0 0 0 0 1.061l2.25 2.25a.746.746 0 0 0 1.06 0 .75.75 0 0 0 0-1.06l-.97-.97h13.19c1.241 0 2.25-1.01 2.25-2.251v-5.25a.75.75 0 0 0-.75-.749m-1.72-7.28a.75.75 0 0 0-1.06 1.06l.97.97H5.25C4.01 5.25 3 6.26 3 7.5v5.25a.75.75 0 0 0 1.5 0V7.5c0-.413.337-.75.75-.75h13.19l-.97.97a.75.75 0 1 0 1.06 1.06l2.25-2.25a.75.75 0 0 0 0-1.06z"/></svg>