<svg xmlns="http://www.w3.org/2000/svg" fill="none" viewBox="0 0 24 24"><g clip-path="url(#a)"><path fill="#000" d="M12 24c6.627 0 12-5.373 12-12S18.627 0 12 0 0 5.373 0 12s5.373 12 12 12Z"/><path fill="#fff" fill-rule="evenodd" d="M10.935 15.592h2.105v2.105h-2.105v-2.104Zm0-9.29h2.105v2.106h-2.105V6.303Zm4.96 0H18v2.106h-2.105V6.303ZM6 6.303h2.105v2.106H6V6.303Zm7.415 4.646h2.105v2.105h-2.105v-2.105Zm-4.965 0h2.105v2.105H8.45v-2.105Z" clip-rule="evenodd"/></g><defs><clipPath id="a"><path fill="#fff" d="M0 0h24v24H0z"/></clipPath></defs></svg>