<svg xmlns="http://www.w3.org/2000/svg" fill="none" viewBox="0 0 24 24"><g clip-path="url(#a)"><path fill="#0D4EA0" d="M12 24c6.627 0 12-5.373 12-12S18.627 0 12 0 0 5.373 0 12s5.373 12 12 12"/><path fill="#fff" d="M10.802 18.471c-.01.01-.029.02-.038.029H9.702c-.02 0-.029-.01-.038-.02l-3.13-3.535a.06.06 0 0 1 0-.057l3.898-6.73c.02-.027.066-.027.085 0l1.091 1.888c.01.01.01.029 0 .048L8.971 14.64c-.01.019 0 .038.01.057l1.574 1.773q.016.015.038.02h1.86c.047 0 .066.047.037.075zM11.958 5.53c.02-.039.067-.039.077 0l5.435 9.34c.01.02 0 .038-.01.057l-3.13 3.536a.1.1 0 0 1-.038.019H11.75c-.047 0-.066-.048-.037-.076l1.697-1.925 1.594-1.792c.019-.02.019-.039.01-.057l-3.017-5.204-1.138-1.964c-.01-.009-.01-.028 0-.048z"/></g><defs><clipPath id="a"><path fill="#fff" d="M0 0h24v24H0z"/></clipPath></defs></svg>