<svg xmlns="http://www.w3.org/2000/svg" fill="none" viewBox="0 0 24 24"><g clip-path="url(#a)"><path fill="#345D9D" d="M11.965 0a12 12 0 1 0 .07 0z"/><path fill="#fff" d="M11.96 12.664 11 15.89h5.11a.26.26 0 0 1 .184.068.27.27 0 0 1 .082.182v.084l-.445 1.533a.33.33 0 0 1-.333.244H7.78l1.31-4.46-1.466.444.333-1.021 1.466-.445 1.844-6.273A.336.336 0 0 1 11.6 6h1.982a.26.26 0 0 1 .266.25v.086l-1.555 5.287 1.467-.445-.313 1.064z"/></g><defs><clipPath id="a"><path fill="#fff" d="M0 0h24v24H0z"/></clipPath></defs></svg>