<svg xmlns="http://www.w3.org/2000/svg" fill="none" viewBox="0 0 24 24"><path fill="#6B7084" fill-rule="evenodd" d="M8.696 2.32a.8.8 0 0 1 .378.68c0 4.132 1.025 7.073 2.939 8.987 1.914 1.915 4.856 2.939 8.987 2.939a.8.8 0 0 1 .717 1.156 10.294 10.294 0 0 1-9.223 5.718C6.809 21.8 2.2 17.192 2.2 11.507c0-4.043 2.33-7.54 5.718-9.223a.8.8 0 0 1 .778.036ZM7.512 4.38A8.693 8.693 0 1 0 19.62 16.488c-3.718-.21-6.666-1.297-8.737-3.368-2.072-2.072-3.16-5.02-3.37-8.738Z" clip-rule="evenodd"/><path fill="#6B7084" fill-rule="evenodd" d="M19.8 3.8H21a.8.8 0 0 0 0-1.6h-1.4a1.4 1.4 0 0 0-1.4 1.4v3.708A2.3 2.3 0 1 0 19.8 9.5V3.8Zm-1.6 5.7a.7.7 0 1 0-1.4 0 .7.7 0 0 0 1.4 0Z" clip-rule="evenodd"/></svg>