<svg xmlns="http://www.w3.org/2000/svg" fill="none" viewBox="0 0 24 24"><g clip-path="url(#a)"><path fill="#F55749" d="M12 24c6.627 0 12-5.373 12-12S18.627 0 12 0 0 5.373 0 12s5.373 12 12 12Z"/><path fill="#fff" d="M11.879 5.532a.248.248 0 0 1 .241 0l5.347 3.001a.234.234 0 0 1 .12.204.233.233 0 0 1-.12.204l-4.65 2.622a1.076 1.076 0 0 0-.633-.35V9.786a1.05 1.05 0 0 0 .888-1.026c0-.575-.478-1.042-1.07-1.042-.59 0-1.068.467-1.068 1.042 0 .512.38.938.88 1.025v1.428a1.075 1.075 0 0 0-.624.349l-4.65-2.61a.233.233 0 0 1 0-.409l5.34-3.01-.001-.001Zm5.603 3.782a.246.246 0 0 1 .33.085.236.236 0 0 1 .033.119l.005 5.827a.233.233 0 0 1-.121.205l-5.177 2.918c-.16.091-.362-.023-.362-.204l-.005-5c.251-.042.479-.17.642-.361l1.293.725a1.013 1.013 0 0 0-.024.408c.082.57.624.966 1.208.886.585-.08.992-.607.91-1.177-.082-.57-.624-.967-1.208-.886a1.068 1.068 0 0 0-.73.44l-1.267-.71a1 1 0 0 0-.016-.745l4.49-2.53Zm-11.326.203c0-.138.115-.236.241-.236a.24.24 0 0 1 .121.033l4.495 2.533a1 1 0 0 0-.015.741l-1.267.71a1.07 1.07 0 0 0-.73-.44 1.064 1.064 0 0 0-1.207.887 1.048 1.048 0 0 0 .91 1.177 1.065 1.065 0 0 0 1.208-.886c.02-.137.011-.276-.024-.409l1.293-.725c.161.19.386.317.635.36l-.004 5.002c0 .181-.202.294-.363.203L6.271 15.55a.233.233 0 0 1-.12-.204l.005-5.828Z"/></g><defs><clipPath id="a"><path fill="#fff" d="M0 0h24v24H0z"/></clipPath></defs></svg>