<svg xmlns="http://www.w3.org/2000/svg" fill="none" viewBox="0 0 24 24"><g clip-path="url(#a)"><path fill="#172852" d="M12 24c6.627 0 12-5.373 12-12S18.627 0 12 0 0 5.373 0 12s5.373 12 12 12Z"/><path fill="#FFD83D" d="M9.831 5.878c1.303-.488 2.769-.489 4.096-.088 1.727.536 3.185 1.84 3.947 3.476.21.466.412.952.432 1.47-.971-.563-2.036-.927-3.103-1.26-1.706-.615-3.492-1.042-5.107-1.888-.376-.224-.856-.455-.958-.923-.041-.405.387-.63.693-.787ZM5.899 9.815c.377-1.023.996-1.973 1.835-2.677.214 1.756.961 3.454 2.196 4.73 1.48 1.539 3.59 2.483 5.735 2.448.852.026 1.685-.17 2.516-.33-.817 2.955-4.055 4.916-7.055 4.444-1.811-.231-3.483-1.304-4.492-2.817C5.496 13.94 5.21 11.718 5.9 9.815Z"/><path fill="#FF6F03" d="M15.203 9.476c1.067.333 2.131.697 3.103 1.26l.065.035c.09.677.156 1.368.036 2.046-.488-.207-.884-.57-1.298-.892-.797-.663-1.61-1.421-1.906-2.45Z"/></g><defs><clipPath id="a"><path fill="#fff" d="M0 0h24v24H0z"/></clipPath></defs></svg>