<svg xmlns="http://www.w3.org/2000/svg" fill="none" viewBox="0 0 24 24"><path fill="#62757E" fill-rule="evenodd" d="M18.487 19.535c-2.089 2.07-5 2.364-5.874 2.406a.8.8 0 0 1-.292.059.8.8 0 0 1-.311-.063c-.938-.05-3.767-.374-5.816-2.402C4.74 18.095 4 16.13 4 13.691a.832.832 0 0 1 1.24-.726l6.246 3.456v-2.106c-3.203-.406-5.7-3.048-5.806-6.278-.011-.054-.033-.104-.033-.162V2.84a.83.83 0 0 1 .523-.77.84.84 0 0 1 .913.195L9.66 4.937l2.001-2.623c.023-.03.056-.045.082-.071.027-.028.045-.063.077-.087.015-.012.035-.014.05-.024a1 1 0 0 1 .15-.072c.049-.02.096-.04.148-.05.053-.01.104-.01.158-.01.053 0 .104 0 .156.01.051.008.098.03.147.049a1 1 0 0 1 .153.073c.015.01.033.012.048.023.032.024.048.057.074.084.028.027.061.043.085.074l2.008 2.623 2.559-2.669a.835.835 0 0 1 1.437.573v4.877c.005.037.023.07.023.109 0 3.34-2.565 6.1-5.862 6.495v2.123l6.271-3.478a.84.84 0 0 1 .828.008.83.83 0 0 1 .413.716c.005 2.438-.728 4.405-2.18 5.845m-12.7-4.366c.222 1.296.751 2.365 1.583 3.187 1.315 1.301 3.09 1.728 4.116 1.865v-1.9zm11.55-7.239c0-.019-.01-.036-.01-.055V4.914L15.53 6.787a.836.836 0 0 1-1.267-.07l-1.935-2.529L10.4 6.716a.835.835 0 0 1-1.265.073l-1.82-1.885v2.813c.005.037.023.07.023.109 0 2.695 2.245 4.887 5.005 4.887 2.723 0 4.936-2.137 4.995-4.783m-4.182 10.415v1.877c1.026-.136 2.843-.559 4.164-1.874.823-.821 1.348-1.887 1.564-3.18z" clip-rule="evenodd"/></svg>