<svg xmlns="http://www.w3.org/2000/svg" fill="none" viewBox="0 0 24 24"><path fill="#62757E" fill-rule="evenodd" d="M19.5 7c0-1.25-1.25-2.5-2.5-2.5 1.25 0 2.5-1.25 2.5-2.5 0 1.25 1.25 2.5 2.5 2.5-1.25 0-2.5 1.25-2.5 2.5m-1.078 2.256-12.5 12.5a.83.83 0 0 1-.589.244.83.83 0 0 1-.589-.244l-2.5-2.5a.833.833 0 0 1 0-1.178l12.5-12.5a.833.833 0 0 1 1.179 0l2.5 2.5a.83.83 0 0 1 0 1.178m-14.41 9.41 1.321 1.322 8.405-8.405-1.322-1.321zm11.321-11.32-1.738 1.737 1.322 1.322 1.738-1.738zM11.167 7c0-1.25-1.25-2.5-2.5-2.5 1.25 0 2.5-1.25 2.5-2.5 0 1.25 1.25 2.5 2.5 2.5-1.25 0-2.5 1.25-2.5 2.5m7.916 4.167c0 1.458 1.459 2.916 2.917 2.916-1.458 0-2.917 1.459-2.917 2.917 0-1.458-1.458-2.917-2.917-2.917 1.46 0 2.917-1.458 2.917-2.916" clip-rule="evenodd"/></svg>