<svg xmlns="http://www.w3.org/2000/svg" fill="none" viewBox="0 0 24 24"><path fill="#62757E" fill-rule="evenodd" d="M4.339 2.5A1.839 1.839 0 0 0 2.5 4.339v7.983C2.5 17.42 6.783 21.5 12 21.5s9.5-4.08 9.5-9.178V4.338A1.839 1.839 0 0 0 19.661 2.5h-4.067a1.839 1.839 0 0 0-1.838 1.839v6.378c0 .794-.721 1.551-1.756 1.551-1.035 0-1.755-.757-1.755-1.55v-6.38A1.839 1.839 0 0 0 8.405 2.5H4.34Zm15.527 4.341V4.338a.204.204 0 0 0-.205-.204h-4.067a.204.204 0 0 0-.204.205V6.84h4.476ZM15.39 8.476v2.241c0 1.822-1.583 3.186-3.39 3.186-1.807 0-3.39-1.364-3.39-3.186V8.476H4.134v3.846c0 4.137 3.493 7.544 7.866 7.544 4.373 0 7.866-3.407 7.866-7.544V8.476H15.39ZM4.134 6.84H8.61v-2.5a.204.204 0 0 0-.204-.205H4.339a.204.204 0 0 0-.205.205v2.5Z" clip-rule="evenodd"/></svg>