<svg xmlns="http://www.w3.org/2000/svg" fill="none" viewBox="0 0 24 24"><g clip-path="url(#a)"><path fill="#5592D7" d="M12 24c6.627 0 12-5.373 12-12S18.627 0 12 0 0 5.373 0 12s5.373 12 12 12Z"/><path fill="#fff" d="M14.56 9.786V18.5L7.2 14.263c-2.176-1.274-2.037-2.067-2.037-3.788l7.565 4.374v-3.996l1.83-1.068h.002Z"/><path fill="#fff" d="m12.729 14.849-7.566-4.375 7.358-4.236c2.176-1.24 2.798-.724 4.318.137L9.274 10.75l3.455 1.998v2.1Z" opacity=".6"/><path fill="#fff" d="m9.274 10.75 7.565-4.375v8.474c0 2.514-.76 2.79-2.28 3.651V9.786l-3.49 1.996-1.796-1.033.001.001Z" opacity=".2"/></g><defs><clipPath id="a"><path fill="#fff" d="M0 0h24v24H0z"/></clipPath></defs></svg>