<svg xmlns="http://www.w3.org/2000/svg" fill="none" viewBox="0 0 24 24"><g clip-path="url(#a)"><path fill="#FF2D55" d="M12 24c6.627 0 12-5.373 12-12S18.627 0 12 0 0 5.373 0 12s5.373 12 12 12"/><path fill="#fff" d="m10.105 9.361-4.163 4.996A6.5 6.5 0 0 1 12 5.5a6.498 6.498 0 0 1 4.206 11.455H7.795A6.8 6.8 0 0 1 6.8 15.9h7.423v-2.815l2.343 2.815h.634l-2.98-3.575-.822.988zM14.221 8.1a1.626 1.626 0 0 0 0 3.25 1.626 1.626 0 0 0 0-3.25m-4.115-1.176a.813.813 0 1 0-.044 1.625.813.813 0 0 0 .044-1.625m-1.658 10.52h7.105A6.5 6.5 0 0 1 12 18.5a6.5 6.5 0 0 1-3.552-1.056m4.635-3.75-1.434 1.718h-5.18a6.5 6.5 0 0 1-.527-1.056h4.164v-4.235l2.977 3.572"/></g><defs><clipPath id="a"><path fill="#fff" d="M0 0h24v24H0z"/></clipPath></defs></svg>