<svg xmlns="http://www.w3.org/2000/svg" fill="none" viewBox="0 0 24 24"><g clip-path="url(#a)"><path fill="#62757E" d="M14.833 5.5a3.6 3.6 0 0 1 1.058.08l.035.01.016.003.007.002.004.001.002.001c-.001.006-.025.1-.478 1.785 0 0-.747-.206-1.39.36l-.019.018-.06.073-.085.107-.025.031c-.641.813-.604 1.153-1.773 2.557 0 0-.61-.282-.975-.453l-.783-.367c-.869-.405-1.79-.819-2.454-1.051-1.632-.573-2.835-.646-3.274.233-.58 1.16 1.773 1.832 2.956 2.17l.027.008c.479-.262 1.07-.437 1.688-.506a6.2 6.2 0 0 1 3.194.514c1.321.585 2.03 1.82 2.297 2.948.135.572.17 1.16.1 1.696-.067.52-.245 1.078-.615 1.501-.77.883-1.905.784-2.52.654a5.3 5.3 0 0 1-1.128-.382l-.078-.038-.032-.016-.003-.002-.002-.001a.936.936 0 0 1 .862-1.661l-2.103-3.316c-.515.1-.796.305-.9.409-.468.467-.702.936-.702 1.17 0 .018-.004.023-.01.024a1.3 1.3 0 0 0 .022.443.86.86 0 0 0 .239.432c.279.269.676.27.684.27-.007.018-.26.673-.234 1.404.005.163.05.311.125.447.448.805 2.016 1.162 3.332 1.462.552.126 1.06.242 1.424.377.348.116 1.271.322 2.053.49.449.06 1.085.076 1.722-.15 1.136-.403 1.348-1.96 1.77-3.268l-.06-.023c-.087-.032-.202-.068-.334-.11-.549-.173-1.386-.437-1.61-.863-.108-.207-.1-.484-.09-.808.016-.505.035-1.123-.377-1.765q-.152-.235-.29-.433c-.516-.756-.83-1.214-.547-2.6l.297-1.178 1.856.371-.01.054-.3 1.19a2.5 2.5 0 0 0-.062.547.3.3 0 0 0 .017.106v.002c.013.03.043.096.153.262.045.069.093.137.152.225l.05.074c.08.118.175.257.275.412.622.97.684 1.901.68 2.498v.027l.238.078.102.032.154.049c.076.024.172.056.267.09.11-.202.407-.636.945-.636.701 0 .989.987.989.987.276 1.84-.979 8.013-2.793 9.164-1.386.88-2.412-.428-3.175-2.438-.17-.037-.357-.075-.548-.117-.7-.151-1.649-.364-2.096-.512l-.033-.01-.032-.014c-.199-.073-.535-.156-1.09-.283l-.103-.023c-.48-.11-1.07-.243-1.63-.412-.578-.176-1.295-.437-1.903-.862-.638-.446-1.363-1.233-1.404-2.413a5 5 0 0 1 .009-.509 2.7 2.7 0 0 1-.651-1.24 2.6 2.6 0 0 1 .03-1.275c.083-.317.211-.594.317-.801q.054-.106.11-.206c-.351-.11-.748-.248-1.133-.412-.504-.215-1.219-.569-1.752-1.14a2.8 2.8 0 0 1-.71-1.327 2.55 2.55 0 0 1 .226-1.68c.604-1.208 1.756-1.635 2.782-1.672.926-.033 1.912.226 2.795.536.804.282 1.955.806 2.933 1.263A14 14 0 0 1 12.6 6.567l.08-.096.091-.084a3.43 3.43 0 0 1 2.062-.887m-3.087 7.288a4.34 4.34 0 0 0-2.228-.366l1.874 3.356.04.02q.058.027.169.073c.149.06.347.128.554.173.494.104.67.004.721-.053.04-.047.129-.202.169-.511a2.9 2.9 0 0 0-.066-1.024c-.18-.76-.61-1.392-1.233-1.668m4.419-7.133.19.102c.964.516 1.238 1.406 1.31 1.875a2.9 2.9 0 0 1-.004.875l-.004.029-.003.012v.009l-.002.001c-.006 0-.107-.02-1.856-.369 0 0 .109-.578-.319-.807l.48-1.785zM3.33 2.752a.936.936 0 0 1 1.252-.427c.737.361 1.578.813 2.394 1.733a.936.936 0 0 1-1.4 1.242c-.573-.645-1.152-.968-1.818-1.295a.936.936 0 0 1-.428-1.253M12.451.918a.936.936 0 0 1 1.6.971 5.8 5.8 0 0 0-.766 2.21.936.936 0 0 1-1.855-.242A7.6 7.6 0 0 1 12.45.918M8.388.028a.936.936 0 0 1 1.134.681q.1.391.206.776c.157.58.316 1.16.417 1.771a.937.937 0 0 1-1.847.305c-.086-.517-.204-.95-.347-1.474a44 44 0 0 1-.244-.924.936.936 0 0 1 .68-1.135"/></g><defs><clipPath id="a"><path fill="#fff" d="M0 0h24v24H0z"/></clipPath></defs></svg>