<svg xmlns="http://www.w3.org/2000/svg" fill="none" viewBox="0 0 24 24"><g clip-path="url(#a)"><path fill="#7950DD" d="M12 24c6.628 0 12-5.372 12-12S18.628 0 12 0 0 5.372 0 12s5.372 12 12 12Z"/><path fill="#fff" d="M15.31 9.735a.805.805 0 0 0-.816 0l-1.87 1.133-1.272.738-1.87 1.133a.806.806 0 0 1-.816 0l-1.487-.887a.853.853 0 0 1-.408-.714V9.39a.8.8 0 0 1 .408-.713l1.463-.862a.805.805 0 0 1 .816 0l1.463.862a.85.85 0 0 1 .407.713v1.133L12.6 9.76V8.627a.802.802 0 0 0-.408-.714L9.482 6.29a.805.805 0 0 0-.816 0L5.908 7.913a.802.802 0 0 0-.408.714v3.274a.8.8 0 0 0 .408.714l2.758 1.625c.24.148.552.148.816 0l1.87-1.108 1.272-.763 1.87-1.108a.806.806 0 0 1 .816 0l1.463.862c.24.148.408.419.408.714v1.748a.802.802 0 0 1-.408.714l-1.463.886a.806.806 0 0 1-.816 0l-1.463-.861a.853.853 0 0 1-.407-.714v-1.133l-1.272.763v1.133c0 .295.144.566.408.714l2.758 1.625a.81.81 0 0 0 .816 0l2.758-1.625a.853.853 0 0 0 .408-.714v-3.274a.802.802 0 0 0-.408-.715L15.31 9.735Z"/></g><defs><clipPath id="a"><path fill="#fff" d="M0 0h24v24H0z"/></clipPath></defs></svg>