<svg xmlns="http://www.w3.org/2000/svg" fill="none" viewBox="0 0 24 24"><g clip-path="url(#a)"><path fill="#103F68" d="M12 24c6.627 0 12-5.373 12-12S18.627 0 12 0 0 5.373 0 12s5.373 12 12 12"/><path fill="#fff" d="m11.988 5.5 5.63 3.243v6.505L11.995 18.5l-.046-.011-5.567-3.241V8.743L11.949 5.5zm-.018.673-4.997 2.91v5.825l4.996 2.909.61-.353 4.448-2.558V9.084L12.58 6.51zm-4.223 6.275 1.48-1.106 1.307.835v1.502l.99.953-.001.447-.953.893h-.805zm4.674 2.633-.002-.45.986-.952v-1.502l1.294-.846 1.476 1.117-2.007 3.514h-.795zm-1.401-2.904-.482-1.26H13.4l-.472 1.26.14 1.409-1.104.002-1.091.002zm.943-1.606-2.72-.001.506-2.26h4.414l.533 2.263z"/></g><defs><clipPath id="a"><path fill="#fff" d="M0 0h24v24H0z"/></clipPath></defs></svg>