<svg xmlns="http://www.w3.org/2000/svg" fill="none" viewBox="0 0 24 24"><g clip-path="url(#a)"><path fill="#01A64F" d="M12 24c6.627 0 12-5.373 12-12S18.627 0 12 0 0 5.373 0 12s5.373 12 12 12"/><path fill="#fff" d="M15.03 6.795c.791.845 1.195 1.906 1.195 3.146 0 1.259-.404 2.32-1.195 3.165a3.93 3.93 0 0 1-2.266 1.205v.737h1.792v.81h-1.81v.43h1.81v.755h-1.792V18.5h-1.528v-1.456H9.46v-.755h1.792v-.432h-1.79v-.81h1.774v-.754a3.93 3.93 0 0 1-2.249-1.205c-.808-.845-1.212-1.906-1.212-3.165 0-1.276.387-2.337 1.195-3.165.807-.845 1.81-1.258 3.039-1.258 1.212 0 2.213.413 3.022 1.295m-1.65 4.8c.333-.43.509-.989.509-1.672 0-.665-.176-1.222-.545-1.654-.35-.45-.808-.665-1.335-.665-.545 0-1.001.216-1.353.647s-.527.97-.527 1.655c0 .7.176 1.258.527 1.69s.808.647 1.352.647c.563 0 1.037-.216 1.371-.647"/></g><defs><clipPath id="a"><path fill="#fff" d="M0 0h24v24H0z"/></clipPath></defs></svg>