<svg xmlns="http://www.w3.org/2000/svg" fill="none" viewBox="0 0 24 24"><g clip-path="url(#a)"><path fill="#1E252C" d="M12 24c6.627 0 12-5.373 12-12S18.627 0 12 0 0 5.373 0 12s5.373 12 12 12"/><path fill="#fff" d="M10.754 11.712a1.055 1.055 0 1 1 0-2.11 1.055 1.055 0 0 1 0 2.11m2.589 0a1.054 1.054 0 1 1 0-2.109 1.054 1.054 0 0 1 0 2.11m-2.59 2.59a1.055 1.055 0 1 1 0-2.11 1.055 1.055 0 0 1 0 2.11m2.59 0a1.055 1.055 0 1 1 0-2.11 1.055 1.055 0 0 1 0 2.11m2.589-2.878a.766.766 0 1 1 0-1.532.766.766 0 0 1 0 1.532m0 2.59a.767.767 0 1 1 0-1.535.767.767 0 0 1 0 1.535m-7.863-2.59a.767.767 0 1 1 0-1.534.767.767 0 0 1 0 1.534m0 2.59a.768.768 0 1 1 0-1.535.768.768 0 0 1 0 1.535m2.684 2.588a.768.768 0 1 1-.046-1.535.768.768 0 0 1 .046 1.535m2.59 0a.768.768 0 1 1-.047-1.534.768.768 0 0 1 .047 1.534m-2.59-7.766a.767.767 0 1 1-.046-1.534.767.767 0 0 1 .046 1.534m2.59 0a.767.767 0 1 1-.047-1.533.767.767 0 0 1 .047 1.533m-2.59-2.877a.48.48 0 1 1 0-.959.48.48 0 1 1 0 .96zm2.59 0a.479.479 0 1 1 0-.959.48.48 0 0 1 0 .96zm5.178 5.178a.48.48 0 1 1 0-.959.48.48 0 0 1 0 .96m0 2.59a.48.48 0 1 1 0-.96.48.48 0 0 1 0 .96M5.48 11.137a.48.48 0 1 1 0-.959.48.48 0 0 1 0 .96m0 2.59a.48.48 0 1 1 0-.96.48.48 0 0 1 0 .96M10.753 19a.48.48 0 1 1 0-.959.48.48 0 0 1 0 .959m2.59 0a.48.48 0 1 1 0-.96.48.48 0 0 1 0 .96"/></g><defs><clipPath id="a"><path fill="#fff" d="M0 0h24v24H0z"/></clipPath></defs></svg>