<svg xmlns="http://www.w3.org/2000/svg" fill="none" viewBox="0 0 24 24"><g clip-path="url(#a)"><path fill="#00B0FF" d="M12 24c6.627 0 12-5.373 12-12S18.627 0 12 0 0 5.373 0 12s5.373 12 12 12"/><path fill="#fff" d="M17.2 9.44v5.794l-1.649.962V12.33L12 14.454l-3.552-2.127v3.87L6.8 15.233V9.44l5.2 3.123zm-5.18 7.226 1.52-.91 1.502.91-3.023 1.834L9 16.666l1.5-.91zm3.002-9.332-1.502.91-1.52-.91-1.52.91-1.502-.91L12 5.5z"/></g><defs><clipPath id="a"><path fill="#fff" d="M0 0h24v24H0z"/></clipPath></defs></svg>