<svg xmlns="http://www.w3.org/2000/svg" fill="none" viewBox="0 0 24 24"><path fill="#62757E" fill-rule="evenodd" d="M21.326 6.345c.01.053.007.105.006.158 0 .054.003.105-.008.159-.01.057-.037.109-.06.163-.015.037-.02.077-.042.112l-3.964 6.399c.484.867.75 1.83.75 2.83 0 3.217-2.62 5.834-5.841 5.834s-5.842-2.617-5.842-5.834c0-1 .267-1.963.75-2.83L3.11 6.938c-.022-.035-.026-.075-.042-.113-.023-.054-.049-.106-.06-.163C2.997 6.608 3 6.558 3 6.504s-.004-.106.006-.16c.011-.057.036-.108.059-.162.016-.038.019-.079.04-.115l2.227-3.665c.013-.021.036-.03.05-.05a.8.8 0 0 1 .202-.194c.03-.021.056-.044.089-.06A.8.8 0 0 1 6.046 2h11.935c.061 0 .114.022.172.035.045-.008.083-.034.128-.035.298 0 .568.15.72.402l2.226 3.665c.021.036.025.076.04.114.023.054.048.106.06.164m-9.16 13.988a4.175 4.175 0 0 0 4.174-4.167 4.18 4.18 0 0 0-3.304-4.08 4.5 4.5 0 0 0-1.75.002 4.174 4.174 0 0 0-3.292 4.078 4.175 4.175 0 0 0 4.173 4.167m.697-9.933L14.866 7H9.468l2.004 3.403c.468-.054.93-.048 1.391-.003M6.035 4.46 4.8 6.494l3.368 5.438a5.9 5.9 0 0 1 1.626-1.09zm2.453.875.006-.002h7.353l.98-1.666h-9.32zm9.81-.876-3.763 6.391c.602.27 1.156.627 1.634 1.078l3.364-5.433z" clip-rule="evenodd"/></svg>