<svg xmlns="http://www.w3.org/2000/svg" fill="none" viewBox="0 0 24 24"><path fill="#62757E" fill-rule="evenodd" d="M21.13 17.783h-2.608a.87.87 0 1 1 0-1.74h2.608a.87.87 0 1 1 0 1.74Zm0-2.61h-2.608a.87.87 0 1 1 0-1.738h2.608a.87.87 0 1 1 0 1.739Zm0-2.608h-2.608a.87.87 0 1 1 0-1.739h2.608a.87.87 0 1 1 0 1.74Zm0-2.608h-2.608a.87.87 0 1 1 0-1.74h2.608a.87.87 0 1 1 0 1.74Zm0-2.61h-2.608a.87.87 0 1 1 0-1.738h2.608a.87.87 0 1 1 0 1.739Zm-5.217 13.044h-2.609a.87.87 0 1 1 0-1.739h2.609a.87.87 0 1 1 0 1.74Zm0-2.608h-2.609a.87.87 0 1 1 0-1.74h2.609a.87.87 0 1 1 0 1.74Zm0-2.61h-2.609a.87.87 0 1 1 0-1.738h2.609a.87.87 0 1 1 0 1.739Zm-5.217 5.218H8.087a.87.87 0 1 1 0-1.739h2.609a.87.87 0 1 1 0 1.74Zm0-2.608H8.087a.87.87 0 1 1 0-1.74h2.609a.87.87 0 1 1 0 1.74Zm0-2.61H8.087a.87.87 0 1 1 0-1.738h2.609a.87.87 0 1 1 0 1.739Zm0-2.608H8.087a.87.87 0 1 1 0-1.739h2.609a.87.87 0 1 1 0 1.74Zm0-2.608H8.087a.87.87 0 1 1 0-1.74h2.609a.87.87 0 1 1 0 1.74Zm0-2.61H8.087a.87.87 0 1 1 0-1.738h2.609a.87.87 0 1 1 0 1.739Zm0-2.608H8.087a.87.87 0 1 1 0-1.739h2.609a.87.87 0 1 1 0 1.74ZM5.478 20.391H2.87a.87.87 0 1 1 0-1.739h2.608a.87.87 0 1 1 0 1.74Zm0-2.608H2.87a.87.87 0 1 1 0-1.74h2.608a.87.87 0 1 1 0 1.74Zm0-2.61H2.87a.87.87 0 1 1 0-1.738h2.608a.87.87 0 1 1 0 1.739Zm0-2.608H2.87a.87.87 0 1 1 0-1.739h2.608a.87.87 0 1 1 0 1.74Zm0-2.608H2.87a.87.87 0 1 1 0-1.74h2.608a.87.87 0 1 1 0 1.74Zm13.044 8.695h2.608a.87.87 0 1 1 0 1.74h-2.608a.87.87 0 1 1 0-1.74Z" clip-rule="evenodd"/></svg>