<svg xmlns="http://www.w3.org/2000/svg" fill="none" viewBox="0 0 24 24"><path fill="#62757E" fill-rule="evenodd" d="M19.182 2.17a.85.85 0 1 1 1.202 1.203L3.85 19.907a1 1 0 0 1-.12.1l-.384.384H2.87a.87.87 0 0 1-.19-1.718l.89-.89h-.7a.87.87 0 1 1 0-1.74h2.44l3.478-3.478h-.701a.87.87 0 1 1 0-1.739h2.44zm1.948 15.613h-2.608a.87.87 0 1 1 0-1.74h2.608a.87.87 0 1 1 0 1.74m0-2.61h-2.608a.87.87 0 1 1 0-1.738h2.608a.87.87 0 1 1 0 1.739m0-2.608h-2.608a.87.87 0 1 1 0-1.739h2.608a.87.87 0 1 1 0 1.74m0-2.608h-2.608a.87.87 0 1 1 0-1.74h2.608a.87.87 0 1 1 0 1.74m0-2.61h-2.337l1.74-1.738h.597a.87.87 0 1 1 0 1.739m-10.434 8.697h-.599l-1.739 1.739h2.338a.87.87 0 1 0 0-1.74m5.217 4.347h-2.609a.87.87 0 1 1 0-1.739h2.609a.87.87 0 1 1 0 1.74m0-2.608h-2.609a.87.87 0 1 1 0-1.74h2.609a.87.87 0 1 1 0 1.74m0-2.61h-2.609a.87.87 0 1 1 0-1.738h2.609a.87.87 0 1 1 0 1.739m-5.217 5.218H8.087a.87.87 0 1 1 0-1.739h2.609a.87.87 0 1 1 0 1.74m0-10.434H8.087a.87.87 0 1 1 0-1.74h2.609a.87.87 0 1 1 0 1.74m0-2.61H8.087a.87.87 0 1 1 0-1.738h2.609a.87.87 0 1 1 0 1.739m0-2.608H8.087a.87.87 0 1 1 0-1.739h2.609a.87.87 0 1 1 0 1.74M5.478 15.174H2.87a.87.87 0 1 1 0-1.74h2.608a.87.87 0 1 1 0 1.74m0-2.609H2.87a.87.87 0 1 1 0-1.739h2.608a.87.87 0 1 1 0 1.74m0-2.608H2.87a.87.87 0 1 1 0-1.74h2.608a.87.87 0 1 1 0 1.74m13.044 8.695h2.608a.87.87 0 1 1 0 1.74h-2.608a.87.87 0 1 1 0-1.74" clip-rule="evenodd"/></svg>