<svg xmlns="http://www.w3.org/2000/svg" fill="none" viewBox="0 0 24 24"><path fill="currentColor" fill-rule="evenodd" d="M19.435 21H4.565C3.702 21 3 20.327 3 19.5v-15C3 3.673 3.702 3 4.565 3h14.87C20.298 3 21 3.673 21 4.5v15c0 .827-.702 1.5-1.565 1.5ZM4.565 4.5v15h14.868l.002-15H4.565ZM17.87 18.75c-.431 0-.782-.335-.782-.75v-.75c0-.415.35-.75.782-.75.433 0 .783.335.783.75V18c0 .415-.35.75-.783.75Zm0-11.25c-.431 0-.782-.335-.782-.75V6c0-.415.35-.75.782-.75.433 0 .783.335.783.75v.75c0 .415-.35.75-.783.75Zm-2.347 11.25c-.432 0-.783-.335-.783-.75v-.75c0-.415.35-.75.783-.75.432 0 .782.335.782.75V18c0 .415-.35.75-.782.75Zm0-11.25c-.432 0-.783-.335-.783-.75V6c0-.415.35-.75.783-.75.432 0 .782.335.782.75v.75c0 .415-.35.75-.782.75Zm-2.348 0c-.432 0-.783-.335-.783-.75V6c0-.415.35-.75.783-.75.433 0 .783.335.783.75v.75c0 .415-.35.75-.783.75Zm-2.348 0c-.432 0-.782-.335-.782-.75V6c0-.415.35-.75.782-.75.433 0 .783.335.783.75v.75c0 .415-.35.75-.783.75Zm4.27 3.883a.75.75 0 0 1 .426.675.748.748 0 0 1-.44.667l-4.695 2.2a.82.82 0 0 1-.758-.04.745.745 0 0 1-.368-.635v-4.5c0-.261.142-.504.374-.64a.81.81 0 0 1 .765-.028l4.695 2.301Zm-4.27 1.666 2.163-1.013-2.163-1.06v2.073ZM8.478 7.5c-.432 0-.782-.335-.782-.75V6c0-.415.35-.75.782-.75.433 0 .783.335.783.75v.75c0 .415-.35.75-.783.75ZM6.13 18.75c-.432 0-.782-.335-.782-.75v-.75c0-.415.35-.75.782-.75.433 0 .783.335.783.75V18c0 .415-.35.75-.783.75Zm0-11.25c-.432 0-.782-.335-.782-.75V6c0-.415.35-.75.782-.75.433 0 .783.335.783.75v.75c0 .415-.35.75-.783.75Zm2.348 9c.433 0 .783.335.783.75V18c0 .415-.35.75-.783.75-.432 0-.782-.335-.782-.75v-.75c0-.415.35-.75.782-.75Zm2.348 0c.433 0 .783.335.783.75V18c0 .415-.35.75-.783.75-.432 0-.782-.335-.782-.75v-.75c0-.415.35-.75.782-.75Zm2.348 0c.433 0 .783.335.783.75V18c0 .415-.35.75-.783.75-.432 0-.783-.335-.783-.75v-.75c0-.415.35-.75.783-.75Z" clip-rule="evenodd"/></svg>