<svg xmlns="http://www.w3.org/2000/svg" fill="none" viewBox="0 0 24 24"><path fill="url(#a)" fill-rule="evenodd" d="M15.111 2.519a2.37 2.37 0 0 1 2.37 2.37V19.11a2.37 2.37 0 0 1-2.37 2.37H2.963A2.963 2.963 0 0 1 0 18.519V8.445A5.926 5.926 0 0 1 5.926 2.52z" clip-rule="evenodd"/><path fill="#fff" d="M2.37 17.333a1.896 1.896 0 1 1 3.793.001 1.896 1.896 0 0 1-3.793 0"/><path fill="#f9ac02" d="M17.482 16.148V8.444l4.981-3.17A1 1 0 0 1 24 6.118v12.357a1 1 0 0 1-1.537.843z"/><mask id="b" width="18" height="20" x="0" y="2" maskUnits="userSpaceOnUse" style="mask-type:alpha"><path fill="#000" d="M0 7.519a5 5 0 0 1 5-5h10.482a2 2 0 0 1 2 2v14.963a2 2 0 0 1-2 2H2.5a2.5 2.5 0 0 1-2.5-2.5z"/></mask><g mask="url(#b)"><path fill="url(#c)" d="M13.926 13.224v-1.855a1 1 0 0 1 .47-.848l4.27-2.67v8.89l-4.27-2.67a1 1 0 0 1-.47-.848"/></g><defs><linearGradient id="a" x1="17.482" x2="0" y1="12" y2="12" gradientUnits="userSpaceOnUse"><stop stop-color="#fade13"/><stop offset="1" stop-color="#fcca03"/></linearGradient><linearGradient id="c" x1="13.926" x2="17.459" y1="12.296" y2="12.296" gradientUnits="userSpaceOnUse"><stop stop-color="#ffbae1" stop-opacity="0"/><stop offset="1" stop-color="#ffbae1"/></linearGradient></defs></svg>