<svg xmlns="http://www.w3.org/2000/svg" fill="none" viewBox="0 0 24 24"><g clip-path="url(#a)"><path fill="#000" d="M12 24c6.627 0 12-5.373 12-12S18.627 0 12 0 0 5.373 0 12s5.373 12 12 12Z"/><path fill="#fff" fill-opacity=".703" d="m7.749 15.841 4.02 2.53h.486l3.955-2.53-.616-.486-3.598 2.302-3.728-2.302-.52.486Zm1.945-5.867 2.27-3.437 2.334 3.47.55-.487-2.593-3.89s-.227-.292-.583 0L9.013 9.617l.68.357Z"/><path fill="#fff" d="M12.028 16.912c.13-.454.292-.876.422-1.33.584-1.815 1.167-3.663 1.75-5.479.033-.097.065-.227.098-.323.064-.196.161-.293.356-.293a.353.353 0 0 1 .357.292c.162.649.292 1.33.453 1.978.292 1.232.552 2.496.844 3.728.064.292-.033.487-.26.551-.227.065-.389-.097-.454-.389a161.123 161.123 0 0 1-.94-4.214c0-.065-.032-.098-.065-.195-.027.088-.06.175-.097.26-.616 1.88-1.2 3.76-1.816 5.64-.097.357-.227.681-.324 1.038-.064.227-.194.324-.389.324-.194 0-.324-.097-.389-.324-.713-2.237-1.426-4.474-2.107-6.711-.033-.065-.033-.097-.065-.227-.058.293-.123.585-.194.875-.26 1.168-.52 2.367-.779 3.534-.064.324-.323.486-.583.324-.162-.097-.194-.259-.162-.454.356-1.62.745-3.242 1.102-4.862.065-.26.13-.52.162-.779.065-.259.195-.389.39-.389.194 0 .323.13.388.39a599.317 599.317 0 0 1 2.205 7.035h.097Z"/></g><defs><clipPath id="a"><path fill="#fff" d="M0 0h24v24H0z"/></clipPath></defs></svg>