<svg xmlns="http://www.w3.org/2000/svg" fill="none" viewBox="0 0 24 24"><g clip-path="url(#a)"><path fill="#000" d="M12 24c6.627 0 12-5.373 12-12S18.627 0 12 0 0 5.373 0 12s5.373 12 12 12"/><path fill="#fff" fill-opacity=".703" d="m7.749 15.842 4.02 2.528h.487l3.955-2.529-.616-.486-3.599 2.302-3.728-2.302zm1.945-5.868 2.27-3.437 2.334 3.47.551-.487-2.593-3.89s-.228-.292-.584 0L9.014 9.617z"/><path fill="#fff" d="M12.028 16.912c.13-.454.292-.876.422-1.33.584-1.815 1.167-3.663 1.75-5.479.033-.097.065-.227.098-.323.065-.196.162-.293.356-.293a.35.35 0 0 1 .357.292c.162.649.292 1.33.454 1.978.292 1.232.551 2.496.843 3.728.064.292-.033.487-.26.551s-.389-.097-.453-.389a161 161 0 0 1-.94-4.214c0-.065-.033-.098-.065-.195q-.04.133-.098.26c-.616 1.88-1.2 3.76-1.815 5.64-.097.357-.227.681-.325 1.038-.064.227-.194.324-.388.324-.195 0-.325-.097-.39-.324-.713-2.237-1.426-4.474-2.107-6.711-.032-.065-.032-.097-.065-.227q-.086.44-.194.875c-.26 1.168-.519 2.367-.778 3.534-.065.324-.324.486-.584.324-.162-.097-.194-.259-.162-.454.357-1.62.746-3.242 1.102-4.862.065-.26.13-.52.162-.779q.098-.389.39-.389.29 0 .388.39a601 601 0 0 1 2.205 7.035z"/></g><defs><clipPath id="a"><path fill="#fff" d="M0 0h24v24H0z"/></clipPath></defs></svg>