<svg xmlns="http://www.w3.org/2000/svg" fill="none" viewBox="0 0 24 24"><path fill="#00832D" d="m13.576 12 2.34 2.674 3.145 2.01.548-4.667-.548-4.564-3.206 1.766z"/><path fill="#0066DA" d="M0 16.25v3.978c0 .909.736 1.645 1.646 1.645h3.976l.823-3.006-.823-2.616-2.729-.823z"/><path fill="#E94235" d="M5.622 2.127 0 7.749l2.893.823 2.73-.823.808-2.58z"/><path fill="#2684FC" d="M5.622 7.749H0v8.502h5.622z"/><path fill="#00AC47" d="m22.653 4.507-3.592 2.946v9.231l3.609 2.96a.824.824 0 0 0 1.33-.65V5.144a.824.824 0 0 0-1.347-.637M13.575 12v4.25H5.622v5.623h11.793c.91 0 1.646-.736 1.646-1.645v-3.544z"/><path fill="#FFBA00" d="M17.415 2.127H5.622v5.622h7.953V12l5.486-4.544V3.772c0-.909-.737-1.645-1.646-1.645"/></svg>