<svg xmlns="http://www.w3.org/2000/svg" fill="none" viewBox="0 0 24 24"><path fill="#62757E" fill-rule="evenodd" d="M22 11.5a3.336 3.336 0 0 1-3.333 3.333v3.334a.833.833 0 0 1-1.247.723l-5.64-3.223H7v4.166a.833.833 0 1 1-1.667 0v-4.166H3.667c-.92 0-1.667-.747-1.667-1.666V9c0-.92.748-1.667 1.667-1.667h8.112L17.42 4.11a.831.831 0 0 1 1.247.723v3.334A3.34 3.34 0 0 1 22 11.5M5.333 9H3.667v5h1.666zM17 6.27l-4.587 2.62a.8.8 0 0 1-.442.095c-.026.003-.048.015-.073.015H7v5h5c.017 0 .03.009.047.01.056.003.109.018.163.033a1 1 0 0 1 .157.052c.015.007.032.006.046.015L17 16.73zm1.667 3.564v3.333a1.67 1.67 0 0 0 1.666-1.667c0-.919-.747-1.666-1.666-1.666" clip-rule="evenodd"/></svg>