<svg xmlns="http://www.w3.org/2000/svg" fill="none" viewBox="0 0 24 24"><path fill="#62757E" d="M12 2.144c5.594 0 10.25 4.172 10.25 9.463S17.594 21.069 12 21.069c-.873 0-1.723-.101-2.534-.292a7.07 7.07 0 0 1-4.461 1.045 7 7 0 0 1-.562-.077.803.803 0 0 1-.47-1.31 3.9 3.9 0 0 0 .824-1.637c.043-.185-.034-.475-.356-.799-1.663-1.675-2.691-3.919-2.691-6.392 0-5.291 4.656-9.463 10.25-9.463m0 1.606c-4.841 0-8.644 3.582-8.644 7.857 0 2.014.834 3.86 2.225 5.26.505.509 1.003 1.338.78 2.296a5.5 5.5 0 0 1-.374 1.08 5.46 5.46 0 0 0 2.87-.988.8.8 0 0 1 .671-.118 9.5 9.5 0 0 0 2.472.326c4.841 0 8.644-3.582 8.644-7.857 0-4.274-3.803-7.856-8.644-7.856m2.995 2.922a.536.536 0 0 1 .635.525v6.6c0 .77-.548 1.433-1.305 1.577l-.232.045a1.411 1.411 0 0 1-.528-2.77l.416-.08a.71.71 0 0 0 .58-.7V9.625l-4.278.815v3.448l.001.03v1.1a1.36 1.36 0 0 1-1.105 1.336l-.43.082a1.41 1.41 0 0 1-.528-2.77l.413-.08a.71.71 0 0 0 .58-.7v-2.85l-.002-.039V8.216c0-.257.182-.477.434-.526z"/></svg>