<svg xmlns="http://www.w3.org/2000/svg" fill="none" viewBox="0 0 24 24"><path fill="#62757E" fill-rule="evenodd" d="M12 3.95c-4.723 0-8.433 3.495-8.433 7.666 0 1.965.813 3.766 2.17 5.133.493.496.979 1.305.761 2.239q-.129.552-.365 1.054a5.33 5.33 0 0 0 2.8-.964.78.78 0 0 1 .655-.115 9.2 9.2 0 0 0 2.412.318c4.723 0 8.433-3.494 8.433-7.665S16.723 3.951 12 3.951M5.175 21.584a7 7 0 0 1-.547-.076.783.783 0 0 1-.46-1.277c.385-.455.665-1 .804-1.597.042-.181-.033-.464-.347-.78C3.003 16.217 2 14.029 2 11.615c0-5.161 4.542-9.232 10-9.232 5.457 0 10 4.07 10 9.232s-4.543 9.232-10 9.232c-.852 0-1.68-.099-2.473-.284a6.9 6.9 0 0 1-4.352 1.019M16.408 9.387H8.075c-.46 0-.834-.358-.834-.8 0-.441.374-.8.834-.8h8.333c.46 0 .833.359.833.8s-.373.8-.833.8m-8.333 1.6h6.833c.46 0 .833.359.833.8s-.373.8-.833.8H8.075c-.46 0-.834-.358-.834-.8 0-.441.374-.8.834-.8m0 3.2h5.833c.46 0 .833.359.833.8s-.373.8-.833.8H8.075c-.46 0-.834-.358-.834-.8 0-.441.374-.8.834-.8" clip-rule="evenodd"/></svg>