<svg xmlns="http://www.w3.org/2000/svg" fill="none" viewBox="0 0 24 24"><path fill="currentColor" fill-rule="evenodd" d="M5.435 5.706A45.112 45.112 0 0 1 12 5.227c2.23 0 4.423.164 6.565.479 1.103.162 1.918 1.14 1.918 2.309v5.705c0 1.169-.815 2.147-1.918 2.309-1.734.255-3.5.41-5.294.46a2.204 2.204 0 0 0-1.498.642l-2.57 2.57v-2.572a.758.758 0 0 0-.7-.757 44.844 44.844 0 0 1-3.068-.343c-1.103-.162-1.918-1.14-1.918-2.31V8.016c0-1.169.815-2.147 1.918-2.31ZM12 3.71c-2.305 0-4.57.169-6.786.494C3.314 4.485 2 6.148 2 8.015v5.705c0 1.866 1.314 3.53 3.214 3.81.818.12 1.642.218 2.473.295v3.706a.758.758 0 0 0 1.295.536l3.863-3.864a.688.688 0 0 1 .468-.198 46.528 46.528 0 0 0 5.473-.476c1.9-.279 3.214-1.943 3.214-3.81V8.016c0-1.867-1.314-3.53-3.214-3.81A46.63 46.63 0 0 0 12 3.711Zm1.112 10.395h3.21a.642.642 0 0 0 0-1.284h-3.21a.642.642 0 0 0 0 1.284Zm1.427-4.309a.044.044 0 0 1 .007-.011c.004-.004.008-.006.012-.008a.048.048 0 0 0 .012-.008c.302-.3.468-.701.468-1.128 0-.427-.166-.827-.467-1.128-.603-.605-1.654-.605-2.258 0-.003.003-.004.007-.006.01a.048.048 0 0 1-.007.01c-.004.004-.008.006-.012.008-.004.003-.01.005-.013.009l-3.299 3.3-.002.003v.002a.454.454 0 0 0-.066.095l-.018.03-.022.033a.249.249 0 0 0-.034.057l-.002.003-.003.004-.812 2.16a.643.643 0 0 0 .827.827l2.16-.811.004-.002.003-.002c.027-.01.05-.028.074-.045l.035-.023c.011-.008.023-.014.034-.02a.371.371 0 0 0 .072-.05l.003-.003a.017.017 0 0 0 .003-.002l3.3-3.299a.052.052 0 0 0 .007-.011Zm-1.096-1.468a.313.313 0 0 1 .22.532l-.008.012a.048.048 0 0 1-.007.01c-.003.004-.008.006-.012.008-.004.003-.009.005-.012.01l-3.201 3.2-.706.265.264-.704 3.202-3.203.007-.011a.054.054 0 0 1 .007-.011.065.065 0 0 1 .012-.007.053.053 0 0 0 .013-.01.313.313 0 0 1 .22-.091Z" clip-rule="evenodd"/></svg>