<svg xmlns="http://www.w3.org/2000/svg" fill="none" viewBox="0 0 24 24"><path fill="#62757E" fill-rule="evenodd" d="M12 3.95c-4.723 0-8.433 3.495-8.433 7.666 0 1.965.813 3.766 2.17 5.133.493.496.979 1.305.761 2.239-.085.367-.208.72-.365 1.054a5.33 5.33 0 0 0 2.8-.964.784.784 0 0 1 .655-.115 9.214 9.214 0 0 0 2.412.318c4.723 0 8.433-3.494 8.433-7.665 0-4.17-3.71-7.665-8.433-7.665ZM5.175 21.584a6.868 6.868 0 0 1-.547-.076.783.783 0 0 1-.46-1.277c.385-.455.665-1 .804-1.597.042-.181-.033-.464-.347-.78C3.003 16.217 2 14.028 2 11.615c0-5.161 4.542-9.232 10-9.232 5.457 0 10 4.07 10 9.232 0 5.161-4.543 9.232-10 9.232-.852 0-1.68-.099-2.473-.284a6.899 6.899 0 0 1-4.352 1.019m11.68-9.39a.883.883 0 0 1-.883.883h-1.766a.884.884 0 0 1-.734-1.372l.85-1.276h-.116a.883.883 0 0 1 0-1.765h1.766a.884.884 0 0 1 .734 1.372l-.85 1.276h.116c.487 0 .882.395.882.882ZM12.44 13.96a.883.883 0 0 1-.883.882h-3.53a.882.882 0 0 1-.69-1.434l2.384-2.979H8.028a.883.883 0 0 1 0-1.765h3.53a.882.882 0 0 1 .69 1.434l-2.383 2.979h1.694c.487 0 .882.395.882.883Z" clip-rule="evenodd"/></svg>