<svg xmlns="http://www.w3.org/2000/svg" fill="none" viewBox="0 0 24 24"><path fill="#46464A" fill-rule="evenodd" d="M12 3.95c-4.723 0-8.433 3.495-8.433 7.666 0 1.965.813 3.766 2.17 5.133.493.496.979 1.305.761 2.239-.085.367-.208.72-.365 1.054a5.33 5.33 0 0 0 2.8-.964.784.784 0 0 1 .655-.115 9.214 9.214 0 0 0 2.412.318c4.723 0 8.433-3.494 8.433-7.665 0-4.17-3.71-7.665-8.433-7.665ZM5.175 21.584a6.868 6.868 0 0 1-.547-.076.783.783 0 0 1-.46-1.277c.385-.455.665-1 .804-1.597.042-.181-.033-.464-.347-.78C3.003 16.217 2 14.028 2 11.615c0-5.161 4.542-9.232 10-9.232 5.457 0 10 4.07 10 9.232 0 5.161-4.543 9.232-10 9.232-.852 0-1.68-.099-2.473-.284a6.899 6.899 0 0 1-4.352 1.019m4.793-12.67c-.81 0-1.41.621-1.41 1.32 0 1.365.86 2.58 1.867 3.518A10.718 10.718 0 0 0 12 14.96a10.877 10.877 0 0 0 1.575-1.208c1.006-.938 1.866-2.153 1.866-3.518 0-.699-.6-1.32-1.409-1.32-.599 0-1.094.347-1.301.813a.8.8 0 0 1-1.462 0 1.414 1.414 0 0 0-1.301-.814ZM12 15.887l-.376.706-.002-.001-.004-.002-.013-.007a6.144 6.144 0 0 1-.193-.11 12.302 12.302 0 0 1-2.078-1.552c-1.115-1.04-2.375-2.652-2.375-4.69 0-1.643 1.378-2.92 3.009-2.92.778 0 1.493.288 2.032.767a3.052 3.052 0 0 1 2.032-.767c1.63 0 3.01 1.277 3.01 2.92 0 2.038-1.262 3.65-2.376 4.69a12.303 12.303 0 0 1-2.272 1.662l-.012.007-.004.002h-.002L12 15.889Zm0 0 .375.706a.801.801 0 0 1-.75 0l.375-.706Z" clip-rule="evenodd"/></svg>