<svg xmlns="http://www.w3.org/2000/svg" fill="none" viewBox="0 0 24 24"><path fill="currentColor" fill-rule="evenodd" d="M12 5.227c-2.23 0-4.423.164-6.565.479-1.103.162-1.918 1.14-1.918 2.309v5.705c0 1.168.815 2.147 1.918 2.309 1.012.149 2.036.264 3.069.343.395.031.7.36.7.757V19.7l2.569-2.569c.402-.402.94-.626 1.498-.642 1.793-.05 3.56-.205 5.294-.46 1.103-.162 1.918-1.14 1.918-2.31V8.016c0-1.17-.815-2.147-1.918-2.31A45.114 45.114 0 0 0 12 5.228ZM5.214 4.205A46.63 46.63 0 0 1 12 3.711c2.305 0 4.57.168 6.786.494 1.9.28 3.214 1.943 3.214 3.81v5.705c0 1.866-1.314 3.53-3.214 3.81a46.528 46.528 0 0 1-5.473.475.688.688 0 0 0-.468.198l-3.863 3.864a.759.759 0 0 1-1.295-.536v-3.706a46.402 46.402 0 0 1-2.473-.296C3.314 17.25 2 15.586 2 13.72V8.016c0-1.867 1.314-3.53 3.214-3.81Z" clip-rule="evenodd"/></svg>