<svg xmlns="http://www.w3.org/2000/svg" fill="none" viewBox="0 0 24 24"><path fill="#62757E" fill-rule="evenodd" d="M12 3.75c-4.841 0-8.644 3.582-8.644 7.856 0 2.014.834 3.86 2.225 5.261.505.509 1.003 1.338.78 2.296a5.5 5.5 0 0 1-.374 1.08 5.46 5.46 0 0 0 2.87-.988.8.8 0 0 1 .671-.118 9.5 9.5 0 0 0 2.472.326c4.841 0 8.644-3.582 8.644-7.857 0-4.274-3.803-7.856-8.644-7.856M5.004 21.823a7 7 0 0 1-.56-.078.803.803 0 0 1-.472-1.31 3.9 3.9 0 0 0 .825-1.637c.043-.185-.034-.475-.356-.8-1.663-1.675-2.691-3.918-2.691-6.392 0-5.29 4.656-9.462 10.25-9.462s10.25 4.172 10.25 9.462S17.594 21.07 12 21.07c-.873 0-1.723-.1-2.534-.291a7.07 7.07 0 0 1-4.462 1.045M9.917 8.835c-.83 0-1.444.637-1.444 1.354 0 1.4.881 2.645 1.913 3.606A11 11 0 0 0 12 15.033l.226-.146c.38-.254.886-.624 1.389-1.092 1.031-.961 1.912-2.207 1.912-3.606 0-.717-.614-1.354-1.444-1.354a1.45 1.45 0 0 0-1.334.834.82.82 0 0 1-1.498 0c-.212-.478-.72-.834-1.334-.834M12 15.985l-.385.724-.002-.001-.004-.002-.013-.007-.044-.025q-.057-.03-.154-.088a12.6 12.6 0 0 1-2.13-1.591c-1.143-1.065-2.435-2.718-2.435-4.806 0-1.685 1.413-2.994 3.084-2.994.797 0 1.531.295 2.083.786a3.13 3.13 0 0 1 2.083-.786c1.672 0 3.085 1.31 3.085 2.994 0 2.088-1.293 3.74-2.435 4.806a12.6 12.6 0 0 1-2.285 1.68l-.043.024-.013.007-.005.002h-.001s-.001.001-.386-.723m0 0 .385.724a.82.82 0 0 1-.77 0z" clip-rule="evenodd"/></svg>