<svg xmlns="http://www.w3.org/2000/svg" fill="none" viewBox="0 0 24 24"><path fill="#62757E" fill-rule="evenodd" d="M12 3.75c-4.841 0-8.644 3.582-8.644 7.856 0 2.014.834 3.86 2.225 5.261.505.509 1.003 1.338.78 2.296a5.5 5.5 0 0 1-.374 1.08 5.46 5.46 0 0 0 2.87-.988.8.8 0 0 1 .671-.118 9.5 9.5 0 0 0 2.472.326c4.841 0 8.644-3.582 8.644-7.857 0-4.274-3.803-7.856-8.644-7.856M5.004 21.823a7 7 0 0 1-.56-.078.803.803 0 0 1-.472-1.31 3.9 3.9 0 0 0 .825-1.637c.043-.185-.034-.475-.356-.8-1.663-1.675-2.691-3.918-2.691-6.392 0-5.29 4.656-9.462 10.25-9.462s10.25 4.172 10.25 9.462S17.594 21.07 12 21.07c-.873 0-1.723-.1-2.534-.291a7.07 7.07 0 0 1-4.462 1.045M12 10.61c1.438 0 2.563.937 2.563 2.135 0 .952-.718 1.732-1.732 2.015.005.04.023.078.023.12v.854a.854.854 0 1 1-1.708 0v-.854h-.854a.854.854 0 1 1 0-1.708H12c.53 0 .854-.276.854-.427s-.324-.427-.854-.427c-1.437 0-2.562-.938-2.562-2.136 0-.952.717-1.732 1.732-2.015-.006-.04-.024-.077-.024-.12v-.854a.854.854 0 1 1 1.708 0v.854h.855a.854.854 0 1 1 0 1.708H12c-.53 0-.854.277-.854.428s.325.427.854.427" clip-rule="evenodd"/></svg>