<svg xmlns="http://www.w3.org/2000/svg" fill="none" viewBox="0 0 24 24"><path fill="#62757E" d="M12 2.144c5.594 0 10.25 4.172 10.25 9.462S17.594 21.07 12 21.07c-.873 0-1.723-.101-2.534-.292a7.07 7.07 0 0 1-4.461 1.045 7 7 0 0 1-.562-.077.803.803 0 0 1-.47-1.31 3.9 3.9 0 0 0 .824-1.637c.043-.185-.034-.475-.356-.799-1.663-1.675-2.691-3.919-2.691-6.393 0-5.29 4.656-9.462 10.25-9.462m0 1.606c-4.841 0-8.644 3.582-8.644 7.856 0 2.014.834 3.86 2.225 5.261.505.509 1.003 1.338.78 2.296a5.5 5.5 0 0 1-.374 1.08 5.46 5.46 0 0 0 2.87-.988.8.8 0 0 1 .671-.118 9.5 9.5 0 0 0 2.472.326c4.841 0 8.644-3.582 8.644-7.857 0-4.274-3.803-7.856-8.644-7.856"/></svg>