<svg xmlns="http://www.w3.org/2000/svg" fill="none" viewBox="0 0 24 24"><path fill="#62757E" fill-rule="evenodd" d="M12 3.95c-4.723 0-8.433 3.495-8.433 7.666 0 1.965.813 3.766 2.17 5.133.493.496.979 1.305.761 2.239-.085.367-.208.72-.365 1.054a5.33 5.33 0 0 0 2.8-.964.784.784 0 0 1 .655-.115 9.214 9.214 0 0 0 2.412.318c4.723 0 8.433-3.494 8.433-7.665 0-4.17-3.71-7.665-8.433-7.665ZM5.175 21.584a6.868 6.868 0 0 1-.547-.076.783.783 0 0 1-.46-1.277c.385-.455.665-1 .804-1.597.042-.181-.033-.464-.347-.78C3.003 16.217 2 14.028 2 11.615c0-5.161 4.542-9.232 10-9.232 5.457 0 10 4.07 10 9.232 0 5.161-4.543 9.232-10 9.232-.852 0-1.68-.099-2.473-.284a6.899 6.899 0 0 1-4.352 1.019m11.202-8.676a.049.049 0 0 1 .007-.009.043.043 0 0 1 .01-.007.042.042 0 0 0 .012-.007c.615-.61.983-1.453.983-2.26 0-1.718-1.41-3.115-3.143-3.115-.872 0-1.665.352-2.246.918a3.214 3.214 0 0 0-2.245-.918c-1.734 0-3.144 1.397-3.144 3.114 0 .808.368 1.652.983 2.26l.011.008a.044.044 0 0 1 .01.007.05.05 0 0 1 .008.01l.006.008 3.775 3.349c.034.03.074.05.113.071l.046.025a.47.47 0 0 1 .04.024.295.295 0 0 0 .06.035.882.882 0 0 0 .337.071.881.881 0 0 0 .338-.071c.021-.009.04-.022.06-.035a.469.469 0 0 1 .039-.024l.046-.025c.04-.02.079-.04.113-.071l3.775-3.349.006-.009Zm-3.495-2.533c.118-.61.703-1.069 1.363-1.069.743 0 1.348.591 1.348 1.318 0 .326-.176.71-.448.978L12 14.391l-3.146-2.79c-.27-.268-.447-.652-.447-.978 0-.727.605-1.318 1.347-1.318.66 0 1.246.46 1.364 1.07l.002.003.002.004a.731.731 0 0 0 .072.183l.015.03c.007.014.013.03.018.046a.263.263 0 0 0 .03.066l.008.01.008.007a.895.895 0 0 0 .226.225.089.089 0 0 0 .021.01.083.083 0 0 1 .022.008.876.876 0 0 0 .288.119c.038.007.075.004.112.001a.746.746 0 0 1 .119 0c.036.003.071.006.109-.001a.017.017 0 0 0 .003-.002.9.9 0 0 0 .316-.13l.011-.005a.886.886 0 0 0 .306-.383.738.738 0 0 0 .076-.192Z" clip-rule="evenodd"/></svg>