<svg xmlns="http://www.w3.org/2000/svg" fill="none" viewBox="0 0 24 24"><path fill="#62757E" fill-rule="evenodd" d="M3.493 9.183c0-3.171 2.825-5.85 6.45-5.85 3.624 0 6.449 2.679 6.449 5.85 0 3.17-2.825 5.85-6.45 5.85a7.064 7.064 0 0 1-1.847-.244.75.75 0 0 0-.628.11 4.023 4.023 0 0 1-1.889.71c.042-.103.08-.208.113-.314.314-.993-.245-1.868-.712-2.378-.934-1.02-1.486-2.322-1.486-3.734Zm.666 7.862a5.52 5.52 0 0 0 .984.087 5.52 5.52 0 0 0 2.892-.813c.612.14 1.251.213 1.907.213 4.328 0 7.95-3.23 7.95-7.35 0-4.119-3.622-7.35-7.95-7.35-4.327 0-7.95 3.231-7.95 7.35 0 1.817.714 3.474 1.88 4.748.373.406.45.72.389.913a2.84 2.84 0 0 1-.542.98.75.75 0 0 0 .44 1.222Zm15.123-6.442a.75.75 0 0 1 1.096-1.022c1.009 1.08 1.629 2.498 1.629 4.057 0 1.47-.552 2.815-1.461 3.87a1.95 1.95 0 0 0-.357.557c-.059.157-.053.258-.023.336.09.237.22.455.382.646a.75.75 0 0 1-.44 1.223 4.736 4.736 0 0 1-3.252-.59c-.5.11-1.021.168-1.556.168-1.052 0-2.847-.382-4.021-.95a.75.75 0 0 1 .652-1.35c.971.469 2.543.8 3.37.8.52 0 1.022-.07 1.494-.197a.75.75 0 0 1 .627.11c.38.267.82.453 1.296.536-.282-.951.286-1.797.691-2.268.693-.804 1.098-1.807 1.098-2.891 0-1.149-.455-2.208-1.226-3.034Z" clip-rule="evenodd"/></svg>