<svg xmlns="http://www.w3.org/2000/svg" fill="none" viewBox="0 0 24 24"><path fill="#62757E" fill-rule="evenodd" d="M12 3.95c-4.723 0-8.433 3.495-8.433 7.666 0 1.965.814 3.766 2.17 5.133.493.496.98 1.305.762 2.239a5.47 5.47 0 0 1-.365 1.054 5.33 5.33 0 0 0 2.8-.964.784.784 0 0 1 .655-.115 9.214 9.214 0 0 0 2.411.318c4.723 0 8.433-3.494 8.433-7.665 0-4.17-3.71-7.665-8.433-7.665ZM5.175 21.584a6.867 6.867 0 0 1-.547-.076.783.783 0 0 1-.46-1.277c.385-.455.665-1 .805-1.597.042-.181-.033-.464-.347-.78C3.003 16.217 2 14.028 2 11.615c0-5.161 4.543-9.232 10-9.232s10 4.07 10 9.232c0 5.161-4.543 9.232-10 9.232-.852 0-1.68-.099-2.472-.284a6.899 6.899 0 0 1-4.353 1.019m10.067-10.25a1.08 1.08 0 1 1 2.162 0 1.08 1.08 0 0 1-2.162 0Zm-4.322 0a1.08 1.08 0 1 1 2.161 0 1.08 1.08 0 0 1-2.161 0Zm-4.323 0a1.08 1.08 0 1 1 2.161 0 1.08 1.08 0 0 1-2.161 0Z" clip-rule="evenodd"/></svg>