<svg xmlns="http://www.w3.org/2000/svg" fill="none" viewBox="0 0 24 24"><path fill="#62757E" fill-rule="evenodd" d="M12 3.818q-.442 0-.871.04a.818.818 0 1 1-.15-1.627 11.3 11.3 0 0 1 2.041-.001.818.818 0 1 1-.149 1.627 10 10 0 0 0-.871-.04m2.938-.426a.82.82 0 0 1 1.063-.463c.645.252 1.258.563 1.828.926a.815.815 0 0 1 .25 1.129.82.82 0 0 1-1.133.248 9 9 0 0 0-1.543-.781.816.816 0 0 1-.465-1.06m-5.876 0a.816.816 0 0 1-.465 1.059 9 9 0 0 0-1.543.781.82.82 0 0 1-1.132-.248.815.815 0 0 1 .249-1.129c.57-.363 1.183-.674 1.828-.926a.82.82 0 0 1 1.063.463m-4.05 2.385a.815.815 0 0 1 .108 1.15 7.7 7.7 0 0 0-.94 1.422.82.82 0 0 1-1.103.358.816.816 0 0 1-.36-1.099 9.3 9.3 0 0 1 1.14-1.723.82.82 0 0 1 1.155-.108m13.976 0a.82.82 0 0 1 1.155.108 9.3 9.3 0 0 1 1.14 1.723.816.816 0 0 1-.36 1.1.82.82 0 0 1-1.102-.359 7.7 7.7 0 0 0-.94-1.421.815.815 0 0 1 .107-1.15m2.29 4.084a.82.82 0 0 1 .91.716q.062.511.062 1.037a7 7 0 0 1-.087 1.112.82.82 0 0 1-1.62-.255 5.5 5.5 0 0 0 .067-.857q0-.43-.05-.845a.82.82 0 0 1 .718-.908m-18.556 0c.45.054.771.46.718.908a7.2 7.2 0 0 0 .018 1.829.82.82 0 0 1-1.625.224 8.8 8.8 0 0 1-.022-2.245.82.82 0 0 1 .911-.716m17.992 4.79c.377.248.48.755.23 1.132a9.6 9.6 0 0 1-1.395 1.647.82.82 0 0 1-1.16-.03.815.815 0 0 1 .03-1.155 8 8 0 0 0 1.158-1.365.82.82 0 0 1 1.136-.23m-17.388.441a.82.82 0 0 1 1.126.276q.258.423.57.814a.815.815 0 0 1-.13 1.148.82.82 0 0 1-1.152-.13 9 9 0 0 1-.69-.985.816.816 0 0 1 .276-1.123m13.967 3.078a.816.816 0 0 1-.34 1.105 13 13 0 0 1-1.939.834.816.816 0 1 1-.528-1.547c.59-.2 1.16-.445 1.698-.73a.82.82 0 0 1 1.11.338m-11.588.58a.82.82 0 0 1 .483 1.052 6 6 0 0 1-.162.385.818.818 0 0 1-.107 1.618 6 6 0 0 1-1.465-.088.815.815 0 0 1-.481-1.333q.087-.101.167-.21a.8.8 0 0 1 .34-.268.8.8 0 0 1 .068-.426q.055-.122.103-.248a.82.82 0 0 1 1.054-.481m6.959 1.127a.82.82 0 0 1-.747.884 12 12 0 0 1-1.06.046c-.402 0-.77.04-1.122.105a.817.817 0 1 1-.297-1.607c.436-.08.904-.132 1.418-.132q.46 0 .92-.04a.82.82 0 0 1 .888.744" clip-rule="evenodd"/></svg>