<svg xmlns="http://www.w3.org/2000/svg" fill="none" viewBox="0 0 24 24"><path fill="#62757E" fill-rule="evenodd" d="M12 3.983q-.43 0-.85.039a.8.8 0 1 1-.145-1.593 11 11 0 0 1 1.99 0 .8.8 0 1 1-.145 1.593 9 9 0 0 0-.85-.039m2.867-.417a.8.8 0 0 1 1.036-.453q.947.372 1.784.907a.8.8 0 1 1-.862 1.348 8.7 8.7 0 0 0-1.505-.765.8.8 0 0 1-.453-1.037m-5.734 0a.8.8 0 0 1-.453 1.037 8.7 8.7 0 0 0-1.505.765.8.8 0 1 1-.862-1.348q.837-.535 1.784-.907a.8.8 0 0 1 1.036.453m-3.95 2.336a.8.8 0 0 1 .104 1.126A7.5 7.5 0 0 0 4.37 8.42a.8.8 0 1 1-1.426-.725 9 9 0 0 1 1.112-1.688.8.8 0 0 1 1.126-.105m13.635 0a.8.8 0 0 1 1.126.105c.432.52.806 1.086 1.112 1.688a.8.8 0 0 1-1.426.725 7.5 7.5 0 0 0-.917-1.392.8.8 0 0 1 .105-1.126M21.05 9.9a.8.8 0 0 1 .89.7q.059.502.059 1.017-.001.554-.085 1.088a.8.8 0 0 1-1.58-.25q.065-.41.065-.838 0-.42-.049-.828a.8.8 0 0 1 .7-.889m-18.1 0a.8.8 0 0 1 .7.889 7 7 0 0 0 .017 1.79.8.8 0 1 1-1.585.22A8.6 8.6 0 0 1 2.06 10.6a.8.8 0 0 1 .889-.7M20.5 14.59a.8.8 0 0 1 .225 1.109 9.4 9.4 0 0 1-1.361 1.612.8.8 0 1 1-1.103-1.16 7.8 7.8 0 0 0 1.13-1.336.8.8 0 0 1 1.109-.225m-16.964.433a.8.8 0 0 1 1.1.27q.251.414.556.797a.8.8 0 1 1-1.251.997 9 9 0 0 1-.674-.965.8.8 0 0 1 .27-1.1m13.627 3.013a.8.8 0 0 1-.331 1.082c-.603.32-1.237.594-1.892.816a.8.8 0 0 1-.516-1.514 11 11 0 0 0 1.657-.715.8.8 0 0 1 1.082.331m-11.306.569a.8.8 0 0 1 .471 1.028 5 5 0 0 1-.157.378.8.8 0 0 1-.105 1.584 6 6 0 0 1-1.43-.086.8.8 0 0 1-.469-1.305q.086-.1.164-.206a.8.8 0 0 1 .33-.263.8.8 0 0 1 .068-.417q.054-.12.1-.242a.8.8 0 0 1 1.028-.471m6.79 1.102a.8.8 0 0 1-.729.866 12 12 0 0 1-1.035.045c-.392 0-.751.04-1.093.102a.8.8 0 1 1-.29-1.574 7.6 7.6 0 0 1 1.383-.128q.448 0 .898-.04a.8.8 0 0 1 .866.73" clip-rule="evenodd"/></svg>