<svg xmlns="http://www.w3.org/2000/svg" fill="none" viewBox="0 0 24 24"><path fill="#62757E" fill-rule="evenodd" d="M3.493 9.183c0-3.171 2.825-5.85 6.45-5.85s6.45 2.679 6.45 5.85-2.826 5.85-6.45 5.85a7 7 0 0 1-1.848-.244.75.75 0 0 0-.627.11 4 4 0 0 1-1.89.71q.063-.155.113-.314c.314-.993-.245-1.868-.712-2.378-.934-1.02-1.486-2.322-1.486-3.734m.666 7.862a5.5 5.5 0 0 0 .984.087c1.059 0 2.05-.297 2.893-.813.611.14 1.25.213 1.906.213 4.328 0 7.95-3.23 7.95-7.35s-3.622-7.35-7.95-7.35c-4.327 0-7.95 3.231-7.95 7.35 0 1.817.714 3.474 1.88 4.748.373.406.45.72.389.913a2.8 2.8 0 0 1-.542.98.75.75 0 0 0 .44 1.222m15.123-6.442a.75.75 0 1 1 1.097-1.022c1.008 1.08 1.628 2.498 1.628 4.057 0 1.47-.552 2.815-1.461 3.87-.172.2-.295.39-.357.557-.059.157-.052.258-.023.336q.137.357.382.646a.75.75 0 0 1-.44 1.223 4.73 4.73 0 0 1-3.252-.59q-.751.166-1.555.168c-1.053 0-2.848-.382-4.022-.95a.75.75 0 0 1 .652-1.35c.971.469 2.543.8 3.37.8.52 0 1.022-.07 1.494-.197a.75.75 0 0 1 .628.11 3.2 3.2 0 0 0 1.295.536c-.282-.951.286-1.797.691-2.268.693-.804 1.098-1.807 1.098-2.891 0-1.149-.455-2.208-1.225-3.034" clip-rule="evenodd"/></svg>