<svg xmlns="http://www.w3.org/2000/svg" fill="none" viewBox="0 0 24 24"><path fill="#62757E" fill-rule="evenodd" d="M12 3.95c-4.723 0-8.433 3.495-8.433 7.666 0 1.965.813 3.766 2.17 5.133.493.496.979 1.305.761 2.239-.085.367-.208.72-.365 1.054a5.33 5.33 0 0 0 2.8-.964.784.784 0 0 1 .655-.115 9.214 9.214 0 0 0 2.412.318c4.723 0 8.433-3.494 8.433-7.665 0-4.17-3.71-7.665-8.433-7.665ZM5.175 21.584a6.868 6.868 0 0 1-.547-.076.783.783 0 0 1-.46-1.277c.385-.455.665-1 .804-1.597.042-.181-.033-.464-.347-.78C3.003 16.217 2 14.028 2 11.615c0-5.161 4.542-9.232 10-9.232 5.457 0 10 4.07 10 9.232 0 5.161-4.543 9.232-10 9.232-.852 0-1.68-.099-2.473-.284a6.899 6.899 0 0 1-4.352 1.019M12 15.133c-2.95 0-4.906-1.922-4.988-2.004a.873.873 0 1 1 1.236-1.236c.013.012 1.544 1.492 3.752 1.492 2.234 0 3.737-1.477 3.752-1.492a.873.873 0 1 1 1.236 1.236c-.082.082-2.038 2.004-4.988 2.004Zm2.622-5.244a.873.873 0 1 1-.002-1.746.873.873 0 0 1 .002 1.746Zm-5.244 0a.873.873 0 1 1-.002-1.746.873.873 0 0 1 .002 1.746Z" clip-rule="evenodd"/></svg>