<svg xmlns="http://www.w3.org/2000/svg" fill="none" viewBox="0 0 24 24"><path fill="currentColor" fill-rule="evenodd" d="M11.29 3.71c-2.038 0-4.045.133-6.014.388C3.347 4.348 2 6.027 2 7.917v5.9c0 1.89 1.347 3.569 3.276 3.82.329.042.659.081.99.117v3.777a.758.758 0 0 0 1.294.536l3.587-3.587c.172.05.351.082.536.097a46.98 46.98 0 0 0 3.556.156l2.623 2.623a.759.759 0 0 0 1.294-.536v-2.221l.27-.022C20.913 18.456 22 17.195 22 15.743V11.68a2.852 2.852 0 0 0-1.422-2.478V7.917c0-1.89-1.347-3.568-3.276-3.819a46.686 46.686 0 0 0-6.013-.387ZM9.108 15.744c0 .724.269 1.398.722 1.908l-2.049 2.05v-2.633a.758.758 0 0 0-.688-.755c-.544-.05-1.085-.11-1.622-.18-1.12-.146-1.955-1.132-1.955-2.315V7.917c0-1.184.836-2.17 1.955-2.315a45.17 45.17 0 0 1 5.817-.375c1.972 0 3.914.128 5.818.375 1.119.145 1.955 1.131 1.955 2.315v.901a46.896 46.896 0 0 0-7.384.03c-1.485.123-2.569 1.382-2.569 2.833v4.062Zm2.694-5.384a45.322 45.322 0 0 1 7.503 0c.099.008.193.027.282.056.517.166.895.669.895 1.266v4.062c0 .702-.52 1.269-1.18 1.323-.316.026-.633.048-.95.067a.758.758 0 0 0-.713.757v1.1l-1.55-1.55a.758.758 0 0 0-.535-.222c-1.263 0-2.513-.052-3.749-.152a1.248 1.248 0 0 1-.487-.143 1.334 1.334 0 0 1-.693-1.18V11.68c0-.702.518-1.267 1.177-1.322Zm1.359 3.835a.76.76 0 0 0 0 1.518h2.727a.76.76 0 0 0 0-1.518h-2.727Zm0-2.277a.76.76 0 0 0 0 1.518h4.764a.76.76 0 0 0 0-1.518h-4.764Z" clip-rule="evenodd"/></svg>