<svg xmlns="http://www.w3.org/2000/svg" fill="none" viewBox="0 0 24 24"><path fill="#62757E" fill-rule="evenodd" d="M12 3.75c-4.841 0-8.644 3.582-8.644 7.856 0 2.014.834 3.86 2.225 5.261.505.509 1.003 1.338.78 2.296a5.5 5.5 0 0 1-.374 1.08 5.46 5.46 0 0 0 2.87-.988.8.8 0 0 1 .671-.118 9.5 9.5 0 0 0 2.472.326c4.841 0 8.644-3.582 8.644-7.857 0-4.274-3.803-7.856-8.644-7.856M5.004 21.823a7 7 0 0 1-.56-.078.803.803 0 0 1-.472-1.31 3.9 3.9 0 0 0 .825-1.637c.043-.185-.034-.475-.356-.8-1.663-1.675-2.691-3.918-2.691-6.392 0-5.29 4.656-9.462 10.25-9.462s10.25 4.172 10.25 9.462S17.594 21.07 12 21.07c-.873 0-1.723-.1-2.534-.291a7.07 7.07 0 0 1-4.462 1.045m11.39-6.748h-3.662a.74.74 0 0 1-.732-.747.74.74 0 0 1 .732-.747h3.661a.74.74 0 0 1 .732.747.74.74 0 0 1-.732.747m-2.026-5.028-.017.026-3.762 3.84-.008.005c-.034.033-.08.054-.12.081-.042.027-.08.061-.125.08l-.007.004-2.464.944a.72.72 0 0 1-.775-.17.76.76 0 0 1-.168-.792l.926-2.514.005-.008c.014-.038.043-.07.064-.104.03-.051.056-.106.095-.147l.004-.006 3.762-3.84c.008-.008.02-.011.028-.019.007-.007.009-.017.016-.024.688-.704 1.887-.704 2.575 0 .343.35.532.816.532 1.313 0 .496-.19.963-.533 1.312-.008.008-.02.01-.028.019M13.36 8.459a.35.35 0 0 0-.25-.107.35.35 0 0 0-.252.107c-.008.008-.02.01-.028.018s-.01.018-.017.026L9.162 12.23l-.302.819.805-.309 3.65-3.724c.009-.01.02-.012.029-.02l.017-.027a.37.37 0 0 0 0-.512" clip-rule="evenodd"/></svg>