<svg xmlns="http://www.w3.org/2000/svg" fill="none" viewBox="0 0 24 24"><path fill="#62757E" fill-rule="evenodd" d="M12 3.95c-4.723 0-8.433 3.495-8.433 7.666 0 1.965.813 3.766 2.17 5.133.493.496.979 1.305.761 2.239-.085.367-.208.72-.365 1.054a5.33 5.33 0 0 0 2.8-.964.784.784 0 0 1 .655-.115 9.214 9.214 0 0 0 2.412.318c4.723 0 8.433-3.494 8.433-7.665 0-4.17-3.71-7.665-8.433-7.665ZM5.175 21.584a6.868 6.868 0 0 1-.547-.076.783.783 0 0 1-.46-1.277c.385-.455.665-1 .804-1.597.042-.181-.033-.464-.347-.78C3.003 16.217 2 14.028 2 11.615c0-5.161 4.542-9.232 10-9.232 5.457 0 10 4.07 10 9.232 0 5.161-4.543 9.232-10 9.232-.852 0-1.68-.099-2.473-.284a6.899 6.899 0 0 1-4.352 1.019M16.285 15h-3.57a.722.722 0 0 1-.715-.729c0-.402.32-.729.714-.729h3.572c.394 0 .714.327.714.73 0 .402-.32.728-.714.728Zm-1.975-4.905c-.007.007-.01.017-.017.025l-3.67 3.746-.007.005c-.034.033-.078.053-.118.08-.04.026-.077.06-.122.077l-.007.004-2.403.921a.705.705 0 0 1-.757-.167.74.74 0 0 1-.163-.771l.903-2.453c0-.003.004-.005.005-.008.014-.037.042-.067.062-.101.03-.05.055-.103.093-.143l.004-.006 3.67-3.747c.008-.008.02-.01.028-.018.006-.007.008-.017.015-.024.671-.687 1.841-.687 2.512 0 .335.342.52.797.52 1.28 0 .485-.186.94-.52 1.281-.009.008-.02.01-.028.018Zm-.983-1.55a.344.344 0 0 0-.245-.104.344.344 0 0 0-.246.104c-.008.008-.018.01-.027.018-.007.008-.01.018-.016.025L9.23 12.225l-.295.799.786-.301 3.562-3.634c.007-.008.019-.01.027-.019.007-.008.009-.018.017-.026a.36.36 0 0 0 0-.5Z" clip-rule="evenodd"/></svg>