<svg xmlns="http://www.w3.org/2000/svg" fill="none" viewBox="0 0 24 24"><path fill="#62757E" fill-rule="evenodd" d="M3.567 11.616c0-4.17 3.71-7.665 8.433-7.665s8.433 3.494 8.433 7.665-3.71 7.665-8.433 7.665c-.84 0-1.649-.111-2.412-.318a.78.78 0 0 0-.655.115 5.33 5.33 0 0 1-2.8.964q.237-.502.365-1.054c.218-.934-.268-1.743-.76-2.24-1.358-1.366-2.171-3.167-2.171-5.132m1.06 9.891q.27.05.548.076.336.033.68.033a6.9 6.9 0 0 0 3.672-1.052c.792.185 1.62.284 2.473.284 5.457 0 10-4.07 10-9.232s-4.543-9.232-10-9.232c-5.458 0-10 4.07-10 9.232 0 2.413 1.003 4.602 2.625 6.236.314.317.39.6.347.78a3.8 3.8 0 0 1-.804 1.598.783.783 0 0 0 .46 1.277M15.353 6.912c.12.1.19.247.19.402v6.44c0 .751-.535 1.398-1.274 1.538l-.227.043a1.376 1.376 0 1 1-.514-2.703l.406-.077a.696.696 0 0 0 .565-.683V9.684l-4.173.795v4.466c0 .637-.452 1.184-1.078 1.304l-.42.08a1.376 1.376 0 0 1-.514-2.704l.403-.076a.696.696 0 0 0 .565-.684v-2.78l-.001-.038V8.308c0-.25.178-.465.424-.512l5.218-.994c.153-.03.31.011.43.11" clip-rule="evenodd"/></svg>