<svg xmlns="http://www.w3.org/2000/svg" fill="none" viewBox="0 0 24 24"><path fill="#FF5C16" d="m3.31 20.945 4.308-1.278 3.249 1.934h2.266l3.251-1.934 4.306 1.278L22 16.54l-1.31-4.889L22 7.52l-1.31-5.122-6.729 4.004H10.04L3.31 2.398 2 7.52l1.31 4.132L2 16.541z"/><path fill="#FF5C16" d="m20.69 2.398-6.73 4.007.269 2.75zm-4.307 14.144-2.96 2.246 2.96.879zm-2.723-3.713.568-3.673 3.642 2.497h.002v.001l-.011 2.57-1.477-1.395zM3.31 2.398l6.729 4.007-.267 2.75zm4.306 14.144 2.96 2.246-2.96.879zm-1.488-4.888v-.002zl3.643-2.498.57 3.673H7.615l-1.478 1.396z"/><path fill="#E34807" d="m16.384 19.667 4.306 1.278L22 16.542h-5.616zm-2.724-6.839-.823 5.309 1.14-2.952 3.886-.96-1.478-1.397zm-6.044 6.839L3.31 20.945 2 16.542h5.616zm2.724-6.839.822 5.309-1.14-2.952-3.885-.96 1.479-1.397z"/><path fill="#FF8D5D" d="m22 16.54-1.31-4.888h-2.817l-.01 2.572-3.885.96-1.14 2.952.586.65 2.96-2.247zm-20 0 1.31-4.888h2.817l.01 2.572 3.886.96 1.14 2.952-.587.65-2.96-2.247zm8.038-10.138h3.923l.267 2.75-1.39 8.98h-1.675L9.77 9.153z"/><path fill="#661800" d="M20.69 2.398 22 7.52l-1.31 4.132h-2.817L14.23 9.154zm-6.216 11.496h1.276l.695.678-2.468.61zM3.31 2.398 2 7.52l1.31 4.132h2.817L9.77 9.154zm6.214 11.496H8.246l-.695.68 2.472.61zm1.344 5.956-.291-1.062.586-.65h1.676l.586.65-.292 1.061"/><path fill="#C0C4CD" d="M10.868 19.85v1.752h2.265V19.85z"/><path fill="#E7EBF6" d="m16.383 19.665-3.252 1.936v-1.753l.292-1.061zm-8.767 0 3.252 1.936v-1.753l-.291-1.061z"/></svg>