<svg xmlns="http://www.w3.org/2000/svg" fill="none" viewBox="0 0 24 24"><path fill="url(#a)" d="M6.897 4.025h-.023l-.032 2.607h.023c1.716 0 3.046 1.353 5.939 6.225l.177.297.011.019 1.619-2.429-.011-.02q-.572-.93-1.099-1.71a28 28 0 0 0-1.174-1.624c-1.914-2.437-3.515-3.365-5.43-3.365"/><path fill="url(#b)" d="M6.874 4.025c-1.925.01-3.625 1.253-4.855 3.158q-.006.006-.011.017l2.255 1.228.011-.016c.718-1.08 1.611-1.768 2.568-1.78h.022l.034-2.606z"/><path fill="url(#c)" d="M2.02 7.184q-.007.007-.012.018C1.201 8.459.598 10 .274 11.664l-.004.023 2.534.598.003-.023c.271-1.462.786-2.818 1.456-3.832l.011-.016z"/><path fill="url(#d)" d="m2.807 12.26-2.533-.597-.004.022A15 15 0 0 0 0 14.462v.022l2.598.233v-.022q-.002-.082-.002-.165a12.5 12.5 0 0 1 .211-2.27"/><path fill="url(#e)" d="M2.678 15.527a5.5 5.5 0 0 1-.08-.81v-.022L0 14.462v.024q0 .87.142 1.625l.005.022 2.534-.584z"/><path fill="url(#f)" d="M3.27 16.872c-.283-.308-.484-.755-.589-1.324q-.003-.01-.003-.023l-2.534.584.004.023c.192 1.006.568 1.843 1.106 2.478l.014.018 2.018-1.74z"/><path fill="#0082FB" d="M10.78 9.661c-1.528 2.343-2.453 3.814-2.453 3.814-2.035 3.19-2.739 3.904-3.872 3.904-.473 0-.868-.17-1.171-.49l-.014-.016-2.018 1.739q.008.008.014.017c.744.866 1.791 1.346 3.09 1.346 1.963 0 3.374-.925 5.885-5.312l1.765-3.12a41 41 0 0 0-1.226-1.882"/><path fill="url(#g)" d="m13.502 5.963-.016.015c-.402.428-.786.905-1.16 1.412.377.482.768 1.02 1.175 1.625.48-.74.928-1.341 1.367-1.8q.006-.009.015-.016z"/><path fill="#0082FB" d="M20.919 5.733c-1.066-1.077-2.335-1.708-3.694-1.708-1.433 0-2.637.784-3.723 1.938l-.016.015 1.381 1.235.016-.016c.717-.745 1.409-1.116 2.176-1.116.826 0 1.6.389 2.27 1.071l.015.016 1.589-1.42z"/><path fill="url(#h)" d="M23.998 14.117c-.059-3.456-1.27-6.545-3.064-8.37l-.015-.016-1.589 1.42.016.016c1.35 1.387 2.276 3.966 2.36 6.949v.022h2.292z"/><path fill="url(#i)" d="M23.999 14.141v-.022h-2.292v.022q.005.21.006.423c0 .813-.121 1.47-.368 1.944l-.011.02 1.708 1.777.012-.019c.62-.957.946-2.287.946-3.9z"/><path fill="url(#j)" d="m21.345 16.506-.011.021c-.214.4-.519.667-.918.783l.779 2.455q.156-.053.301-.118l.086-.04.05-.024c.515-.257.95-.635 1.303-1.123l.064-.09.043-.066.012-.02z"/><path fill="url(#k)" d="M19.92 17.377c-.261 0-.49-.038-.717-.14l-.798 2.513c.448.154.927.222 1.46.222q.736-.001 1.35-.215l-.778-2.455a1.7 1.7 0 0 1-.517.075"/><path fill="url(#l)" d="m18.324 16.518-.015-.018-1.835 1.91.016.015c.638.68 1.247 1.1 1.937 1.332l.798-2.512c-.294-.123-.574-.35-.901-.728"/><path fill="url(#m)" d="M18.31 16.502c-.55-.64-1.232-1.707-2.303-3.43l-1.396-2.328-.011-.02-1.62 2.43.01.019.99 1.663c.958 1.605 1.74 2.766 2.492 3.573l.016.016 1.834-1.908z"/><defs><linearGradient id="a" x1="13.534" x2="8.158" y1="12.185" y2="5.14" gradientUnits="userSpaceOnUse"><stop offset=".001" stop-color="#0867DF"/><stop offset=".454" stop-color="#0668E1"/><stop offset=".859" stop-color="#0064E0"/></linearGradient><linearGradient id="b" x1="3.067" x2="6.753" y1="7.622" y2="4.823" gradientUnits="userSpaceOnUse"><stop offset=".132" stop-color="#0064DF"/><stop offset=".999" stop-color="#0064E0"/></linearGradient><linearGradient id="c" x1="1.505" x2="2.984" y1="11.728" y2="8.006" gradientUnits="userSpaceOnUse"><stop offset=".015" stop-color="#0072EC"/><stop offset=".688" stop-color="#0064DF"/></linearGradient><linearGradient id="d" x1="1.304" x2="1.475" y1="14.416" y2="12.143" gradientUnits="userSpaceOnUse"><stop offset=".073" stop-color="#007CF6"/><stop offset=".994" stop-color="#0072EC"/></linearGradient><linearGradient id="e" x1="1.398" x2="1.276" y1="15.651" y2="14.741" gradientUnits="userSpaceOnUse"><stop offset=".073" stop-color="#007FF9"/><stop offset="1" stop-color="#007CF6"/></linearGradient><linearGradient id="f" x1="1.327" x2="2.089" y1="15.89" y2="17.508" gradientUnits="userSpaceOnUse"><stop offset=".073" stop-color="#007FF9"/><stop offset="1" stop-color="#0082FB"/></linearGradient><linearGradient id="g" x1="13.048" x2="14.056" y1="8.064" y2="6.67" gradientUnits="userSpaceOnUse"><stop offset=".28" stop-color="#007FF8"/><stop offset=".914" stop-color="#0082FB"/></linearGradient><linearGradient id="h" x1="20.713" x2="22.823" y1="6.257" y2="14.015" gradientUnits="userSpaceOnUse"><stop stop-color="#0082FB"/><stop offset="1" stop-color="#0081FA"/></linearGradient><linearGradient id="i" x1="23.332" x2="21.997" y1="14.312" y2="17.01" gradientUnits="userSpaceOnUse"><stop offset=".062" stop-color="#0081FA"/><stop offset="1" stop-color="#0080F9"/></linearGradient><linearGradient id="j" x1="20.936" x2="22.184" y1="18.44" y2="17.59" gradientUnits="userSpaceOnUse"><stop stop-color="#027AF3"/><stop offset="1" stop-color="#0080F9"/></linearGradient><linearGradient id="k" x1="18.979" x2="20.713" y1="18.606" y2="18.606" gradientUnits="userSpaceOnUse"><stop stop-color="#0377EF"/><stop offset=".999" stop-color="#0279F1"/></linearGradient><linearGradient id="l" x1="17.472" x2="18.718" y1="17.651" y2="18.384" gradientUnits="userSpaceOnUse"><stop offset=".002" stop-color="#0471E9"/><stop offset="1" stop-color="#0377EF"/></linearGradient><linearGradient id="m" x1="13.669" x2="17.663" y1="12.243" y2="17.264" gradientUnits="userSpaceOnUse"><stop offset=".277" stop-color="#0867DF"/><stop offset="1" stop-color="#0471E9"/></linearGradient></defs></svg>