<svg xmlns="http://www.w3.org/2000/svg" fill="none" viewBox="0 0 24 24"><path fill="#E2761B" d="M21.004 2.61 13.2 8.432l1.443-3.434z"/><path fill="#E4761B" d="m2.988 2.61 7.741 5.876-1.372-3.489zm15.208 13.492L16.117 19.3l4.448 1.229 1.278-4.356zm-16.031.071 1.27 4.356L7.882 19.3l-2.078-3.198z"/><path fill="#E4761B" d="m7.631 10.7-1.239 1.882 4.416.197-.157-4.765zm8.73 0L13.3 7.959l-.101 4.82 4.408-.197zm-8.479 8.6 2.651-1.3-2.29-1.795zM13.46 18l2.659 1.3-.369-3.095z"/><path fill="#D7C1B3" d="m16.118 19.3-2.66-1.3.213 1.741-.024.733zm-8.236 0 2.47 1.174-.015-.733.196-1.74z"/><path fill="#233447" d="M10.392 15.055 8.18 14.4l1.561-.717zm3.208 0 .65-1.37 1.57.716z"/><path fill="#CD6116" d="m7.882 19.3.377-3.198-2.455.071zm7.859-3.198.376 3.198 2.079-3.127zm1.867-3.52-4.408.197.408 2.276.65-1.37 1.57.716zm-9.428 1.82 1.569-.717.643 1.37.416-2.276-4.416-.197z"/><path fill="#E4751F" d="m6.392 12.582 1.851 3.623L8.18 14.4zm9.435 1.82-.078 1.803 1.859-3.623zm-5.02-1.623-.415 2.276.518 2.686.117-3.537zm2.393 0-.212 1.417.094 3.545.526-2.686z"/><path fill="#F6851B" d="m13.608 15.055-.526 2.686.377.26 2.29-1.796.078-1.804zM8.18 14.4l.063 1.804L10.533 18l.377-.26-.518-2.686z"/><path fill="#C0AD9E" d="m13.647 20.474.024-.733-.196-.173h-2.957l-.18.173.015.733-2.47-1.174.862.709 1.75 1.22h3.003l1.757-1.22.863-.709z"/><path fill="#161616" d="m13.459 18-.377-.26H10.91l-.377.26-.196 1.741.18-.173h2.958l.196.173z"/><path fill="#763D16" d="M21.333 8.81 22 5.595l-.996-2.985-7.545 5.623L16.36 10.7l4.102 1.205.91-1.064-.393-.283.628-.575-.486-.378.627-.48zM2 5.595l.667 3.213-.424.315.628.48-.479.379.628.575-.393.283.902 1.064L7.631 10.7l2.902-2.466-7.545-5.623z"/><path fill="#F6851B" d="M20.463 11.905 16.36 10.7l1.247 1.882-1.86 3.623 2.448-.032h3.647zM7.63 10.7l-4.1 1.205-1.364 4.268h3.639l2.439.032-1.851-3.623zm5.569 2.079.259-4.545 1.192-3.237H9.357l1.176 3.237.275 4.545.094 1.433.008 3.529h2.172l.016-3.529z"/></svg>