<svg xmlns="http://www.w3.org/2000/svg" fill="none" viewBox="0 0 24 24"><g clip-path="url(#a)"><path fill="#DA1157" d="M12 24c6.627 0 12-5.373 12-12S18.627 0 12 0 0 5.373 0 12s5.373 12 12 12"/><path fill="#fff" d="M14.713 13.64a1.641 1.641 0 1 0 0-3.281 1.641 1.641 0 0 0 0 3.282m0-5.425A3.785 3.785 0 1 1 12 14.637 3.77 3.77 0 0 0 13.072 12 3.77 3.77 0 0 0 12 9.362a3.77 3.77 0 0 1 2.713-1.147m-5.426 5.426a1.641 1.641 0 1 0 0-3.283 1.641 1.641 0 0 0 0 3.283M12 9.362A3.77 3.77 0 0 0 10.928 12c0 1.026.41 1.956 1.072 2.637a3.785 3.785 0 1 1 0-5.275M10.928 12A3.77 3.77 0 0 0 12 14.638 3.77 3.77 0 0 0 13.072 12 3.77 3.77 0 0 0 12 9.363 3.77 3.77 0 0 0 10.928 12"/></g><defs><clipPath id="a"><path fill="#fff" d="M0 0h24v24H0z"/></clipPath></defs></svg>