<svg xmlns="http://www.w3.org/2000/svg" fill="none" viewBox="0 0 24 24"><path fill="#62757E" fill-rule="evenodd" d="M21.756 3.423 3.422 21.756a.83.83 0 0 1-1.178 0 .83.83 0 0 1 0-1.178l4.52-4.521A6.66 6.66 0 0 1 5.369 12v-1.822a.833.833 0 1 1 1.667 0V12a5 5 0 0 0 .924 2.862l.715-.714c0-.013-.008-.025-.008-.038V5.195c0-.05.02-.093.029-.14C8.84 3.348 10.258 2 12 2s3.16 1.348 3.305 3.055c.008.047.028.09.028.14V7.49l5.244-5.245a.834.834 0 0 1 1.179 1.179m-8.054 2.09c-.013-.06-.036-.114-.036-.178 0-.92-.747-1.668-1.666-1.668-.92 0-1.667.748-1.667 1.668v7.154l3.37-3.37zm-1.25 10.623a.834.834 0 0 1-.224-1.651 1.67 1.67 0 0 0 1.394-1.266.834.834 0 0 1 1.623.382 3.35 3.35 0 0 1-2.794 2.535m-4.62 4.198h3.335v-1.726a6.5 6.5 0 0 1-1.033-.207.833.833 0 1 1 .468-1.6A5.005 5.005 0 0 0 17 12c0-.107.025-.207.062-.301V10.35c0-.46.312-1.006.772-1.006s.834.373.834.833V12c0 3.394-2.55 6.197-5.834 6.609v1.725h3.333a.833.833 0 0 1 0 1.666H7.833a.833.833 0 0 1 0-1.666" clip-rule="evenodd"/></svg>