<svg xmlns="http://www.w3.org/2000/svg" fill="none" viewBox="0 0 24 24"><path fill="#62757E" fill-rule="evenodd" d="M8.668 12.833a3.337 3.337 0 0 0 3.334 3.334 3.363 3.363 0 0 0 3.348-3.349V5.056C15.35 3.5 13.744 2 12.002 2 10.259 2 8.67 3.5 8.67 5.055zm4.167 5.775v1.725h3.333a.834.834 0 0 1 0 1.667H7.835a.834.834 0 0 1 0-1.667h3.333v-1.725C7.885 18.197 5.335 15.393 5.335 12V9.5a.834.834 0 0 1 1.667 0V12c0 2.758 2.242 5 5 5s5-2.242 5-5V9.5a.834.834 0 0 1 1.666 0V12c0 3.393-2.55 6.197-5.833 6.608m.833-13.273a1.67 1.67 0 0 0-1.666-1.668 1.67 1.67 0 0 0-1.667 1.668v7.498c0 .92.747 1.667 1.667 1.667.919 0 1.666-.748 1.666-1.667z" clip-rule="evenodd"/></svg>