<svg xmlns="http://www.w3.org/2000/svg" fill="none" viewBox="0 0 24 24"><path fill="url(#a)" d="M22.08 12c0-5.523-4.477-10-10-10s-10 4.477-10 10 4.477 10 10 10 10-4.477 10-10Z"/><path fill="#fff" d="M12.08 16.837a.725.725 0 0 1-.744-.662l-.083-.655c-.797-.227-1.263-.817-1.384-1.753l-.717-5.524a2.662 2.662 0 0 0-.466-.033c-.23-.002-.46.028-.682.088v8.378H6.596V9.942c0-.914.41-1.56 1.158-1.828V7.68c0-.502.305-.839.759-.839.453 0 .738.282.81.797l.057.402c.818.229 1.296.886 1.438 1.953l.663 5.325c.396.076.803.076 1.199 0l.663-5.325c.139-1.067.622-1.724 1.438-1.955l.056-.403c.073-.512.361-.796.81-.796.45 0 .76.337.76.838v.435c.747.268 1.157.913 1.157 1.827v6.734h-1.409V8.297a2.521 2.521 0 0 0-.682-.088 2.66 2.66 0 0 0-.466.033l-.717 5.525c-.118.92-.596 1.523-1.384 1.753l-.079.656a.71.71 0 0 1-.747.662Zm-.567-1.253.073.564a.472.472 0 0 0 .494.442.462.462 0 0 0 .495-.44l.072-.566a3.496 3.496 0 0 1-1.134 0Zm4.893.845h.907V9.942c0-.775-.312-1.31-.907-1.559v8.046Zm-9.561 0h.91V8.383c-.594.25-.904.784-.904 1.559l-.006 6.487Zm2.57-8.117.703 5.423c.1.784.471 1.292 1.1 1.513l-.649-5.224c-.12-.921-.498-1.484-1.154-1.712Zm5.33 0c-.656.228-1.036.79-1.154 1.713l-.649 5.22c.63-.221 1-.729 1.1-1.514l.703-5.42Zm-6.74-.278c.224-.054.453-.08.683-.08.144 0 .288.008.43.026l-.043-.313c-.055-.384-.244-.578-.562-.578-.318 0-.508.225-.508.588v.357Zm7.468-.08c.23 0 .459.026.682.08V7.68c0-.363-.194-.588-.507-.588s-.508.194-.563.578l-.043.313c.143-.018.287-.027.43-.025v-.003Z"/><defs><linearGradient id="a" x1="12.08" x2="12.08" y1="2" y2="22" gradientUnits="userSpaceOnUse"><stop stop-color="#FF5A2F"/><stop offset="1" stop-color="#9F59E3"/></linearGradient></defs></svg>