<svg xmlns="http://www.w3.org/2000/svg" fill="none" viewBox="0 0 24 24"><path fill="url(#a)" d="M22.08 12c0-5.523-4.477-10-10-10s-10 4.477-10 10 4.477 10 10 10 10-4.477 10-10Z"/><path fill="#fff" d="M12.08 16.837a.725.725 0 0 1-.744-.662l-.083-.655c-.797-.227-1.263-.817-1.384-1.753L9.15 8.243a2.662 2.662 0 0 0-.465-.033c-.23-.002-.46.028-.683.088v8.378H6.596V9.942c0-.914.41-1.56 1.158-1.828V7.68c0-.502.305-.839.758-.839.454 0 .738.282.812.797l.055.402c.819.229 1.297.886 1.439 1.953l.662 5.325c.396.076.804.076 1.2 0l.663-5.325c.138-1.067.622-1.724 1.438-1.955l.055-.403c.074-.512.362-.796.812-.796.45 0 .758.337.758.838v.435c.748.268 1.158.913 1.158 1.827v6.734h-1.409V8.297a2.52 2.52 0 0 0-.683-.088 2.66 2.66 0 0 0-.465.033l-.717 5.525c-.119.92-.596 1.523-1.384 1.753l-.079.656a.71.71 0 0 1-.747.662Zm-.567-1.253.073.564a.472.472 0 0 0 .494.442.462.462 0 0 0 .495-.44l.072-.566a3.496 3.496 0 0 1-1.134 0Zm4.893.845h.907V9.942c0-.775-.312-1.31-.907-1.559v8.046Zm-9.561 0h.909V8.383c-.594.25-.903.784-.903 1.559l-.006 6.487Zm2.57-8.117.703 5.423c.1.784.47 1.292 1.1 1.513l-.649-5.224c-.12-.921-.498-1.484-1.154-1.712Zm5.33 0c-.656.228-1.036.79-1.154 1.713l-.65 5.22c.631-.221 1-.729 1.101-1.514l.703-5.42Zm-6.74-.278c.223-.054.453-.08.683-.08.144 0 .287.008.43.026l-.043-.313c-.055-.384-.245-.578-.563-.578-.317 0-.507.225-.507.588v.357Zm7.467-.08c.23 0 .46.026.683.08V7.68c0-.363-.194-.588-.507-.588s-.508.194-.563.578l-.043.313c.143-.018.287-.027.43-.025v-.003Z"/><defs><linearGradient id="a" x1="12.08" x2="12.08" y1="2" y2="22" gradientUnits="userSpaceOnUse"><stop stop-color="#FF5A2F"/><stop offset="1" stop-color="#9F59E3"/></linearGradient></defs></svg>