<svg xmlns="http://www.w3.org/2000/svg" fill="none" viewBox="0 0 24 24"><g clip-path="url(#a)"><path fill="#242424" d="M12 24c6.627 0 12-5.373 12-12S18.627 0 12 0 0 5.373 0 12s5.373 12 12 12Z"/><path fill="#fff" d="M15.697 6.545a.752.752 0 1 1-1.503-.002.752.752 0 0 1 1.503.002Zm-.542 2.615a.637.637 0 1 1 0-1.271.636.636 0 1 1 0 1.27Zm-.198 1.567a.536.536 0 0 1-.38-.918.539.539 0 1 1 .38.918Zm-.032.811a.461.461 0 1 1-.922 0 .461.461 0 0 1 .922 0Zm-.73 1.019a.394.394 0 1 1-.789 0 .394.394 0 0 1 .79 0Zm-.797.723a.34.34 0 1 1-.678 0 .34.34 0 0 1 .678 0ZM17.46 8.9a.64.64 0 0 1-1.247-.29.64.64 0 0 1 1.247.29Zm-.306 1.657a.542.542 0 1 1-1.055-.247.542.542 0 0 1 1.055.247Zm-.57 1.322a.458.458 0 1 1-.892-.208.458.458 0 0 1 .892.208Zm-.733 1.006a.392.392 0 0 1-.763-.177.39.39 0 0 1 .61-.229.39.39 0 0 1 .152.406Zm-.802.703a.335.335 0 0 1-.614.1.337.337 0 1 1 .614-.1Zm-.801.444a.29.29 0 0 1-.563-.132.29.29 0 0 1 .563.132Zm4.198-2.87a.545.545 0 0 1-.981-.474.546.546 0 0 1 .98.474Zm-.568 1.309a.464.464 0 0 1-.835-.403.465.465 0 0 1 .88.228.461.461 0 0 1-.045.175Zm-.714.993a.402.402 0 0 1-.76-.197.4.4 0 0 1 .04-.15.4.4 0 0 1 .72.347Zm-.795.702a.349.349 0 0 1-.464.16.345.345 0 0 1-.17-.467.347.347 0 0 1 .472-.157.348.348 0 0 1 .162.464Zm-.801.432a.297.297 0 0 1-.535-.258.297.297 0 0 1 .535.258Zm-.752.218a.253.253 0 0 1-.465-.027.253.253 0 0 1 .156-.32.253.253 0 0 1 .334.252.25.25 0 0 1-.025.095Zm.612 2.87a.75.75 0 0 1-.277-1.025.755.755 0 0 1 1.029-.275.75.75 0 0 1-.18 1.375.754.754 0 0 1-.571-.075h-.001Zm-1.767-.905a.633.633 0 0 1-.234-.868.639.639 0 0 1 .87-.233.634.634 0 0 1-.152 1.164.638.638 0 0 1-.484-.063Zm-1.301-1.088a.536.536 0 0 1 .13-.985.54.54 0 0 1 .673.588.536.536 0 0 1-.394.45.54.54 0 0 1-.41-.053Zm-.887-1.166a.462.462 0 0 1-.168-.628.46.46 0 1 1 .168.628Zm-.522-1.139a.393.393 0 0 1 .095-.722.394.394 0 1 1 .205.762.396.396 0 0 1-.3-.04Zm-.23-1.05a.338.338 0 0 1 .082-.62.34.34 0 0 1 .424.372.338.338 0 0 1-.506.248Zm2.216 5.866a.638.638 0 1 1 0-1.276.639.639 0 1 1 0 1.276Zm-1.724-1.263a.54.54 0 0 1 .353-.934.539.539 0 1 1 .035 1.08.544.544 0 0 1-.388-.146Zm-.866-1.152a.456.456 0 0 1 .299-.79.46.46 0 0 1 .444.618.46.46 0 0 1-.743.173Zm-.507-1.136a.388.388 0 0 1-.018-.552.393.393 0 0 1 .677.254.39.39 0 0 1-.379.403.393.393 0 0 1-.28-.106Zm-.21-1.043a.334.334 0 0 1-.016-.473.337.337 0 0 1 .475-.016.335.335 0 0 1-.219.58.337.337 0 0 1-.24-.09Zm.013-.913a.287.287 0 1 1 .395-.42.289.289 0 0 1-.395.42Zm.4 5.058a.542.542 0 0 1 .552-.84.546.546 0 0 1 .434.636.54.54 0 0 1-.23.347.547.547 0 0 1-.757-.143Zm-.855-1.144a.461.461 0 0 1 .47-.714.465.465 0 0 1 .369.54.462.462 0 0 1-.542.368.465.465 0 0 1-.297-.194Zm-.507-1.113a.4.4 0 1 1 .662-.449.399.399 0 0 1-.406.617.402.402 0 0 1-.256-.168Zm-.213-1.036a.347.347 0 1 1 .574-.391.347.347 0 0 1-.574.39Zm.024-.908a.295.295 0 0 1 .3-.458c.078.015.146.06.19.125a.297.297 0 0 1-.49.333Zm.185-.758a.251.251 0 0 1 .156-.395.251.251 0 0 1 .296.298.252.252 0 0 1-.452.097Zm-2.8-.911a.754.754 0 0 1 1.122.552.749.749 0 0 1-.37.748.754.754 0 0 1-1.103-.845.75.75 0 0 1 .35-.455Zm1.672-1.07a.638.638 0 0 1 .87.232.635.635 0 0 1-.717.931.64.64 0 0 1-.467-.53.634.634 0 0 1 .314-.633Zm1.596-.577a.54.54 0 0 1 .79.605.538.538 0 1 1-.79-.605Zm1.457-.181a.461.461 0 0 1 .675.516.456.456 0 0 1-.384.337.46.46 0 0 1-.426-.736.458.458 0 0 1 .135-.117Zm1.25.12a.396.396 0 0 1 .54.145.396.396 0 0 1-.686.394.394.394 0 0 1 .146-.539Zm1.027.328a.341.341 0 0 1 .498.381.339.339 0 0 1-.622.082.34.34 0 0 1 .124-.463Zm-5.835-1.32a.64.64 0 0 1 .798.428.64.64 0 0 1-1.225.368.637.637 0 0 1 .427-.795Zm1.592-.562a.54.54 0 0 1 .314 1.034.54.54 0 0 1-.313-1.034Zm1.434-.17a.457.457 0 1 1 .264.875.457.457 0 0 1-.264-.875Zm1.241.132a.39.39 0 1 1-.134.071.39.39 0 0 1 .135-.071h-.001Zm1.01.34a.336.336 0 0 1 .194.643.335.335 0 1 1-.194-.642Zm.786.47a.288.288 0 0 1 .36.192.288.288 0 1 1-.359-.192Zm-4.591-2.19a.544.544 0 1 1-.316.954.545.545 0 0 1 .316-.954Zm1.422-.164a.463.463 0 1 1 .021.925.463.463 0 0 1-.02-.925Zm1.22.12a.4.4 0 0 1 .058.797.4.4 0 0 1-.058-.797Zm1.006.336a.347.347 0 1 1 .023.693.347.347 0 0 1-.023-.693Z"/></g><defs><clipPath id="a"><path fill="#fff" d="M0 0h24v24H0z"/></clipPath></defs></svg>