<svg xmlns="http://www.w3.org/2000/svg" fill="none" viewBox="0 0 24 24"><path fill="#000" d="M8.854 14.166H4.429l.002-4.423h4.425zm4.422 4.422H8.852l.002-4.422h4.425z"/><path fill="#000" d="M13.279 14.166H8.854l.002-4.423h4.425zm4.424 0H13.28l.002-4.423h4.425zM8.856 9.743H4.431l.002-4.422h4.425zm8.849 0h-4.424l.002-4.422h4.425zM4.43 14.166H.004l.002-4.423H4.43z"/><path fill="#000" d="M4.431 9.743H.007l.002-4.422h4.424zm.003-4.423H.009L.011.899h4.425zm17.698 0h-4.425L17.71.899h4.425zM4.427 18.588H.002l.002-4.422H4.43zm-.002 4.422H0l.002-4.422h4.425zm17.703-8.844h-4.425l.003-4.423h4.424zm.002-4.423h-4.425l.003-4.422h4.424zm-.004 8.845H17.7l.002-4.422h4.425zm-.002 4.422h-4.425l.002-4.422h4.425z"/><path fill="#FF7000" d="M10.694 14.165H6.269l.002-4.422h4.425z"/><path fill="#FF4900" d="M15.116 18.588h-4.425l.002-4.423h4.425z"/><path fill="#FF7000" d="M15.119 14.165h-4.425l.002-4.422h4.425zm4.424 0H15.12l.002-4.422h4.424z"/><path fill="#FFA300" d="M10.696 9.743H6.27l.002-4.423h4.425zm8.849 0H15.12l.003-4.423h4.424z"/><path fill="#FF7000" d="M6.269 14.165H1.844l.002-4.422h4.425z"/><path fill="#FFA300" d="M6.27 9.743H1.847l.002-4.423h4.425z"/><path fill="#FFCE00" d="M6.273 5.32H1.85V.898h4.425zm17.699 0h-4.424L19.55.898h4.424z"/><path fill="#FF4900" d="M6.267 18.588H1.842l.002-4.423h4.425z"/><path fill="#FF0107" d="M6.265 23.01H1.84l.002-4.422h4.425z"/><path fill="#FF7000" d="M23.968 14.165h-4.425l.002-4.422h4.425z"/><path fill="#FFA300" d="M23.97 9.743h-4.425l.002-4.423h4.425z"/><path fill="#FF4900" d="M23.966 18.588H19.54l.002-4.423h4.425z"/><path fill="#FF0107" d="M23.964 23.01h-4.425l.002-4.422h4.425z"/></svg>