<svg xmlns="http://www.w3.org/2000/svg" fill="none" viewBox="0 0 24 24"><path fill="#000" d="M8.854 14.166H4.429l.002-4.423h4.425l-.002 4.423Zm4.422 4.422H8.852l.002-4.422h4.425l-.003 4.422Z"/><path fill="#000" d="M13.279 14.166H8.854l.002-4.423h4.425l-.002 4.423Zm4.424 0H13.28l.002-4.423h4.425l-.003 4.423ZM8.856 9.743H4.431l.002-4.422h4.425l-.002 4.422Zm8.849 0h-4.424l.002-4.422h4.425l-.003 4.422ZM4.43 14.166H.004l.002-4.423H4.43l-.002 4.423Z"/><path fill="#000" d="M4.431 9.743H.007l.002-4.422h4.424l-.002 4.422Z"/><path fill="#000" d="M4.434 5.32H.009L.011.899h4.425l-.002 4.423Zm17.698 0h-4.425L17.71.899h4.425l-.002 4.423ZM4.427 18.588H.002l.002-4.422H4.43l-.002 4.422Zm-.002 4.422H0l.002-4.422h4.425l-.002 4.423Zm17.703-8.844h-4.425l.003-4.423h4.424l-.002 4.423Z"/><path fill="#000" d="M22.13 9.743h-4.425l.003-4.422h4.424l-.002 4.422Zm-.004 8.845H17.7l.002-4.422h4.425l-.002 4.422Zm-.002 4.422h-4.425l.002-4.422h4.425l-.002 4.423Z"/><path fill="#FF7000" d="M10.694 14.165H6.269l.002-4.422h4.425l-.002 4.422Z"/><path fill="#FF4900" d="M15.116 18.588h-4.425l.002-4.423h4.425l-.002 4.423Z"/><path fill="#FF7000" d="M15.118 14.165h-4.424l.002-4.422h4.425l-.003 4.422Zm4.425 0H15.12l.002-4.422h4.424l-.002 4.422Z"/><path fill="#FFA300" d="M10.696 9.743H6.27l.002-4.423h4.425l-.002 4.423Zm8.849 0H15.12l.003-4.423h4.424l-.002 4.423Z"/><path fill="#FF7000" d="M6.269 14.165H1.844l.002-4.422h4.425l-.002 4.422Z"/><path fill="#FFA300" d="M6.27 9.743H1.847l.002-4.423h4.425l-.002 4.423Z"/><path fill="#FFCE00" d="M6.273 5.32H1.85V.898h4.425L6.273 5.32Zm17.699 0h-4.424L19.55.898h4.424l-.002 4.422Z"/><path fill="#FF4900" d="M6.267 18.588H1.842l.002-4.423h4.425l-.002 4.423Z"/><path fill="#FF0107" d="M6.265 23.01H1.84l.002-4.422h4.425l-.002 4.422Z"/><path fill="#FF7000" d="M23.968 14.165h-4.425l.002-4.422h4.425l-.002 4.422Z"/><path fill="#FFA300" d="M23.97 9.743h-4.425l.002-4.423h4.425l-.002 4.423Z"/><path fill="#FF4900" d="M23.965 18.588h-4.424l.002-4.423h4.425l-.003 4.423Z"/><path fill="#FF0107" d="M23.964 23.01h-4.425l.002-4.422h4.425l-.002 4.422Z"/></svg>