<svg xmlns="http://www.w3.org/2000/svg" fill="none" viewBox="0 0 24 24"><g clip-path="url(#a)"><path fill="#00316D" d="M12 24c6.627 0 12-5.373 12-12S18.627 0 12 0 0 5.373 0 12s5.373 12 12 12"/><path fill="#fff" d="M13.274 15.183c-.008-.014-.009-.02-.012-.022q-.55-.26-1.1-.517c-.02-.01-.06-.008-.072.006-.16.172-.315.347-.474.522.115.085 1.562.086 1.658.011M9.92 10.951l-.037-.077c-.03.021-.07.037-.09.067q-.51.756-1.01 1.515c-.02.032-.02.079-.03.118.042-.008.088-.006.122-.027q.43-.26.853-.53a.24.24 0 0 0 .095-.148c.038-.295.064-.592.097-.918m7.09 4.284h.487c.094 0 .13-.036.07-.126q-.464-.712-.93-1.42c-.017-.027-.054-.038-.083-.056-.015.03-.04.06-.043.09l-.104 1.387c-.006.088.024.128.114.126.163-.004.325-.002.488-.002m-10.48-.036c.074.018.111.034.147.035l1.583.001c.102 0 .128-.036.085-.135a64 64 0 0 1-.486-1.13c-.046-.111-.089-.106-.161-.028q-.423.455-.848.907zm7.797-2.726c.034.067.046.096.063.12l.713 1.037q.442.643.887 1.284c.02.03.059.045.088.067.016-.035.04-.07.045-.106.012-.1.015-.2.021-.301.032-.458.067-.915.095-1.373.012-.195-.073-.295-.258-.341l-1.48-.37c-.045-.01-.092-.01-.174-.017m-.125-3.034-.045.008c-.006.09-.015.181-.018.273l-.065 2.228c-.003.082.02.124.105.144.512.124 1.023.255 1.534.38.045.011.094.001.14 0-.011-.045-.014-.096-.036-.136q-.764-1.393-1.533-2.782c-.023-.041-.054-.077-.082-.115m-2.296 4.554c.014-.079.028-.126.03-.173.007-.248.008-.495.02-.743a.8.8 0 0 0-.16-.526l-1.403-1.956c-.02-.03-.03-.068-.044-.103l-.056.034c-.014.05-.035.098-.04.149-.042.401-.077.803-.121 1.204a.27.27 0 0 0 .075.234l1.582 1.773c.028.031.062.057.117.107m.341-.123.036.023c.032-.025.07-.045.096-.077q.674-.818 1.344-1.64a.2.2 0 0 0 .046-.121q.031-1.095.056-2.19c.001-.04-.022-.08-.035-.12-.032.03-.078.056-.096.094-.413.876-.809 1.76-1.242 2.625-.23.457-.193.93-.205 1.406m-2.07 1.365c.284 0 .57.004.853-.003a.27.27 0 0 0 .174-.074c.198-.208.384-.428.581-.635.074-.077.057-.125-.005-.193a90 90 0 0 1-.992-1.093c-.08-.089-.125-.088-.195.008-.45.616-.905 1.227-1.357 1.84-.022.031-.03.072-.046.108.04.014.08.04.12.04q.434.003.867.002m.294-2.343c-.157-.183-.311-.355-.457-.535-.061-.075-.109-.083-.191-.031-.494.31-.994.613-1.487.925-.089.057-.16.145-.235.223-.07.072-.06.15-.022.24q.287.66.569 1.32c.072.165.1.168.21.02l.875-1.172zm3.425-.466c-.039.062-.057.1-.083.13q-.702.857-1.408 1.71c-.077.093-.037.13.05.17.541.248 1.08.5 1.624.747q.106.047.22.05a94 94 0 0 0 1.342 0c.042 0 .084-.019.126-.03-.015-.043-.022-.093-.048-.13q-.618-.903-1.24-1.804zm-1.901 3.414h-6.1c-.158 0-.301-.017-.37-.187-.065-.161.01-.28.117-.394.607-.649 1.223-1.29 1.814-1.953.225-.253.4-.554.59-.838.612-.915 1.219-1.833 1.834-2.745.06-.09.152-.18.249-.216.133-.05.248.028.333.15q.742 1.058 1.49 2.116c.101.144.138.14.214-.025l1.533-3.338c.06-.132.14-.243.295-.25.162-.008.261.09.337.23.77 1.396 1.521 2.803 2.32 4.181.484.834 1.044 1.62 1.57 2.428l.194.298c.076.121.122.254.05.388-.071.13-.202.155-.34.155z"/></g><defs><clipPath id="a"><path fill="#fff" d="M0 0h24v24H0z"/></clipPath></defs></svg>