<svg xmlns="http://www.w3.org/2000/svg" fill="none" viewBox="0 0 24 24"><g clip-path="url(#a)"><path fill="#1AAB9B" d="M12 24c6.627 0 12-5.373 12-12S18.627 0 12 0 0 5.373 0 12s5.373 12 12 12"/><path fill="#fff" d="M6.091 15.59V9.956l4.273 3.216v2.418h1.091v-2.644a.64.64 0 0 0-.254-.509l-5.182-3.9A.637.637 0 0 0 5 9.045v6.545zm11.818 0V9.956l-4.273 3.216v2.418h-1.091v-2.644c0-.2.094-.39.253-.509l5.183-3.9A.636.636 0 0 1 19 9.045v6.546z"/></g><defs><clipPath id="a"><path fill="#fff" d="M0 0h24v24H0z"/></clipPath></defs></svg>