<svg xmlns="http://www.w3.org/2000/svg" fill="none" viewBox="0 0 24 24"><g clip-path="url(#a)"><path fill="#0B1529" d="M12 24c6.627 0 12-5.373 12-12S18.627 0 12 0 0 5.373 0 12s5.373 12 12 12"/><path fill="#fff" fill-rule="evenodd" d="m7.833 14.048 2.98 1.748v.977l-3.9-2.294V8.493L12 5.5l5.087 2.993v5.986l-3.9 2.294v-.978l2.98-1.747-.769-.444.1-.175.76.439V9.43l-3.855 2.285v6.534L12 18.5l-.403-.252v-6.533L7.742 9.43v4.438l.759-.439.1.176zm4.055-7.523L8.145 8.721 12 11.006l3.855-2.285-3.765-2.209v.907h-.202zm0 1.465h.202v.937h-.202zm0 1.508h.202v.937l-.101.046-.1-.046zm3.143 3.646-.1.175-.812-.469.1-.175zm-1.28-.754-.102.175-.81-.469.01-.11.09-.064zm-4.782.754.81-.469.102.176-.811.468zm1.28-.754.812-.468.09.064.01.11-.81.469z" clip-rule="evenodd"/></g><defs><clipPath id="a"><path fill="#fff" d="M0 0h24v24H0z"/></clipPath></defs></svg>