<svg xmlns="http://www.w3.org/2000/svg" fill="none" viewBox="0 0 24 24"><g clip-path="url(#a)"><path fill="#00ADEF" d="M12 24c6.627 0 12-5.373 12-12S18.627 0 12 0 0 5.373 0 12s5.373 12 12 12"/><path fill="#fff" fill-rule="evenodd" d="M11.328 18.492A6.523 6.523 0 0 1 5.5 12a6.523 6.523 0 0 1 5.828-6.492V7.5A4.55 4.55 0 0 0 7.471 12a4.55 4.55 0 0 0 3.857 4.5zM12.613 5.5a6.52 6.52 0 0 1 5.879 5.813h-1.988a4.55 4.55 0 0 0-3.89-3.826zm5.887 7.101a6.52 6.52 0 0 1-5.887 5.899v-1.987a4.55 4.55 0 0 0 3.904-3.912z" clip-rule="evenodd"/></g><defs><clipPath id="a"><path fill="#fff" d="M0 0h24v24H0z"/></clipPath></defs></svg>