<svg xmlns="http://www.w3.org/2000/svg" fill="none" viewBox="0 0 24 24"><g clip-path="url(#a)"><path fill="#7F368A" d="M12 24c6.627 0 12-5.373 12-12S18.627 0 12 0 0 5.373 0 12s5.373 12 12 12"/><path fill="#fff" d="M18.493 16.124c.044.178-.133.267-.267.223h-2.224c-.134 0-.223-.045-.313-.09-.133-.044-.222-.222-.266-.4v-.045L13.33 8.099c-.044 0-.178.134-.222.134-.044.044-.134.089-.178.044-.089-.044-.134-.178-.089-.267.088-.223.311-.357.534-.401.267-.045.49-.045.756-.045h1.647c.133 0 .267 0 .4.045.134.089.178.267.223.4.088.313.133.625.222.937l1.068 4.013.4 1.605c.134.49.312 1.026.4 1.56zm-5.162 0c.045.178-.133.267-.266.223H10.84a.64.64 0 0 1-.312-.09c-.133-.044-.222-.222-.267-.4v-.045L8.17 8.099c-.046 0-.18.134-.223.134-.045.044-.134.089-.179.044-.088-.044-.133-.178-.088-.267.088-.223.31-.357.533-.401.268-.045.49-.045.757-.045h1.646c.134 0 .267 0 .4.045.134.089.179.267.223.4.089.313.134.625.223.937l1.068 4.013.4 1.605c.134.49.311 1.026.4 1.56M9.238 14.43l-.534 1.694a.43.43 0 0 1-.4.312h-2.36a.446.446 0 0 1-.445-.446v-.09l1.869-7.043c.045-.09.133-.179.222-.179.134 0 .223.089.223.179zm5.25-.134-.311.936c-.045.09-.09.134-.178.134-.089 0-.134-.045-.179-.134l-1.557-5.44.312-1.114c0-.09.089-.134.178-.134.088 0 .178.045.178.134z"/></g><defs><clipPath id="a"><path fill="#fff" d="M0 0h24v24H0z"/></clipPath></defs></svg>