<svg xmlns="http://www.w3.org/2000/svg" fill="none" viewBox="0 0 24 24"><path fill="#62757E" fill-rule="evenodd" d="M19.531 10.478a.833.833 0 0 1-1.172-.111c-.896-1.081-2.18-1.7-3.526-1.7-1.343 0-2.628.62-3.525 1.704a.83.83 0 0 1-1.173.11.834.834 0 0 1-.11-1.174C11.24 7.842 12.992 7 14.833 7c1.843 0 3.596.84 4.809 2.304a.833.833 0 0 1-.11 1.173M8.167 5.333c0-.46.373-.833.833-.833h1.666a.833.833 0 0 1 0 1.667H9a.833.833 0 0 1-.833-.834m1.691 11.723a.832.832 0 1 1 0 1.666.836.836 0 0 1-.837-.834c0-.46.369-.832.829-.832zm4.975-10.89A.833.833 0 0 1 14 5.334v-1.25c0-.143-.325-.416-.833-.416H6.5a.834.834 0 0 0-.834.833v15c0 .46.374.833.834.833h6.667c.508 0 .833-.273.833-.416v-1.25a.833.833 0 1 1 1.667 0v1.25c0 1.149-1.121 2.083-2.5 2.083H6.5A2.503 2.503 0 0 1 4 19.5v-15C4 3.122 5.122 2 6.5 2h6.667c1.379 0 2.5.934 2.5 2.083v1.25a.834.834 0 0 1-.834.834m-1.666 9.167c0-.918.748-1.666 1.666-1.666.92 0 1.667.748 1.667 1.666A1.67 1.67 0 0 1 14.833 17a1.67 1.67 0 0 1-1.666-1.667M14.833 12c-.704 0-1.365.44-1.769 1.175a.834.834 0 0 1-1.462-.8c.701-1.28 1.91-2.042 3.231-2.042 1.324 0 2.531.764 3.231 2.041a.833.833 0 1 1-1.461.801c-.404-.736-1.064-1.175-1.77-1.175" clip-rule="evenodd"/></svg>