<svg xmlns="http://www.w3.org/2000/svg" fill="none" viewBox="0 0 24 24"><path fill="currentColor" fill-rule="evenodd" d="M20.5 15.542c0 4.116-1.658 6.458-5.829 6.458H9.672C5.502 22 3 19.658 3 15.542c0-3.314 3.521-6.755 4.82-7.912-.62-.981-1.705-2.945-1.433-4.296a1.72 1.72 0 0 1 .756-1.137c.909-.584 1.687.346 2.153.9.067.08.154.184.24.28a.165.165 0 0 1 .01-.017c.29-.506.773-1.35 1.788-1.35.9 0 1.36.433 1.635.69.032.032.062.064.095.091.304-.01.431-.095.67-.254.34-.227.806-.537 1.67-.537.673 0 1.24.412 1.52 1.103.454 1.116.155 3.011-1.186 4.603 1.376 1.234 4.762 4.598 4.762 7.836ZM15.344 3.636c-.309.009-.435.094-.675.253-.34.227-.806.538-1.67.538-.602 0-.964-.342-1.181-.546-.194-.182-.252-.237-.484-.237-.068.045-.243.352-.337.516-.248.432-.62 1.084-1.378 1.084-.658 0-1.126-.536-1.574-1.068.17.816.818 2.031 1.364 2.858h4.702c.988-.955 1.35-2.063 1.352-2.792.001-.344-.075-.534-.12-.606Zm-1.005 5.033H9.13c-1.43 1.226-4.465 4.353-4.465 6.873 0 3.202 1.768 4.796 5.008 4.796h5c3.24 0 4.164-1.594 4.164-4.796 0-2.52-3.058-5.648-4.496-6.873Zm-2.606 5.059c1.148 0 2.08.917 2.08 2.043 0 .836-.515 1.554-1.248 1.87v.173a.825.825 0 0 1-.832.818.825.825 0 0 1-.831-.818h-.416a.825.825 0 0 1-.832-.817c0-.451.372-.817.832-.817h1.247c.23 0 .416-.184.416-.409a.412.412 0 0 0-.416-.408c-1.146 0-2.08-.917-2.08-2.043 0-.836.516-1.554 1.249-1.87v-.174c0-.451.371-.817.831-.817.46 0 .832.366.832.817h.416c.46 0 .832.367.832.818a.824.824 0 0 1-.832.817h-1.248a.413.413 0 0 0-.415.409c0 .225.186.408.415.408Z" clip-rule="evenodd"/></svg>