<svg xmlns="http://www.w3.org/2000/svg" fill="none" viewBox="0 0 24 24"><path fill="#62757E" fill-rule="evenodd" d="M19.875 15.188c0 3.704-1.492 5.812-5.246 5.812h-4.5c-3.753 0-6.004-2.108-6.004-5.812 0-2.983 3.169-6.08 4.337-7.12C7.906 7.183 6.93 5.415 7.173 4.2a1.55 1.55 0 0 1 .681-1.024c.817-.526 1.518.311 1.938.81.06.072.138.166.216.253l.009-.016c.26-.455.695-1.216 1.609-1.216.81 0 1.224.39 1.471.623q.043.043.085.081c.274-.01.389-.086.603-.229.307-.204.726-.483 1.504-.483.605 0 1.116.371 1.368.993.408 1.004.14 2.71-1.068 4.142 1.239 1.11 4.286 4.139 4.286 7.053m-4.64-10.716c-.278.008-.392.085-.608.228-.306.205-.725.484-1.504.484-.54 0-.867-.307-1.062-.491-.174-.164-.227-.213-.435-.213-.062.04-.22.316-.304.464-.223.388-.558.976-1.24.976-.593 0-1.013-.483-1.417-.962.153.735.737 1.829 1.228 2.573h4.232c.89-.86 1.215-1.857 1.216-2.513.002-.31-.067-.48-.107-.546m-.904 4.53H9.64c-1.287 1.104-4.019 3.918-4.019 6.185 0 2.883 1.592 4.317 4.508 4.317h4.499c2.916 0 3.749-1.434 3.749-4.317 0-2.267-2.752-5.083-4.047-6.185m-2.346 4.553c1.033 0 1.872.825 1.872 1.84a1.84 1.84 0 0 1-1.124 1.682v.156a.74.74 0 0 1-.748.736.74.74 0 0 1-.748-.736h-.374a.74.74 0 0 1-.75-.736c0-.406.335-.735.75-.735h1.122a.37.37 0 0 0 .374-.368.37.37 0 0 0-.374-.367c-1.032 0-1.872-.825-1.872-1.839a1.84 1.84 0 0 1 1.124-1.683v-.157c0-.406.334-.735.748-.735s.748.33.748.736h.375c.413 0 .749.33.749.736a.74.74 0 0 1-.749.735h-1.123a.37.37 0 0 0-.374.368.37.37 0 0 0 .374.367" clip-rule="evenodd"/></svg>