<svg xmlns="http://www.w3.org/2000/svg" fill="none" viewBox="0 0 24 24"><path fill="#62757E" fill-rule="evenodd" d="M19.182 2.17a.85.85 0 1 1 1.202 1.203l-16 16a.85.85 0 0 1-1.202-1.202l.547-.547c-2.653-3.892-2.253-9.242 1.2-12.695a.833.833 0 0 1 1.178 1.178A8.34 8.34 0 0 0 4.933 16.42l2.044-2.044a5.56 5.56 0 0 1 1.095-6.304A.833.833 0 1 1 9.25 9.25a3.89 3.89 0 0 0-.985 3.837zm.879 3.91-1.195 1.195a8.336 8.336 0 0 1-.973 10.617.833.833 0 1 0 1.178 1.179c3.541-3.541 3.871-9.078.99-12.991m-3.21 3.21-1.247 1.247a3.89 3.89 0 0 1-.854 4.213.833.833 0 1 0 1.178 1.178 5.56 5.56 0 0 0 .923-6.638" clip-rule="evenodd"/></svg>