<svg xmlns="http://www.w3.org/2000/svg" fill="none" viewBox="0 0 24 24"><path fill="#62757E" fill-rule="evenodd" d="M11.833 22C8.617 22 6 19.433 6 16.277V7.723C6 4.568 8.617 2 11.833 2c3.217 0 5.834 2.567 5.834 5.723v8.555c0 3.155-2.617 5.722-5.834 5.722ZM16 7.723c0-2.236-1.87-4.056-4.167-4.056-2.297 0-4.166 1.82-4.166 4.056v8.555c0 2.235 1.869 4.055 4.166 4.055 2.298 0 4.167-1.82 4.167-4.055V7.723Zm-4.167 2.61A.834.834 0 0 1 11 9.5V7a.833.833 0 1 1 1.667 0v2.5c0 .46-.374.833-.834.833Z" clip-rule="evenodd"/></svg>