<svg xmlns="http://www.w3.org/2000/svg" fill="none" viewBox="0 0 24 24"><path fill="#62757E" fill-rule="evenodd" d="m19.805 12.467-1.997 1.998a.665.665 0 1 1-.942-.941l.861-.862h-5.073v5.076l.873-.873a.667.667 0 0 1 .941.942l-1.997 1.998a.66.66 0 0 1-.942 0l-1.997-1.998a.667.667 0 0 1 .942-.942l.902.903v-5.106H6.272l.86.862a.665.665 0 1 1-.94.941l-1.997-1.998-.004-.005a.66.66 0 0 1 0-.932l.004-.005 1.997-1.998a.665.665 0 1 1 .94.941l-.86.862h5.104V6.225l-.902.903a.667.667 0 0 1-.942-.941l1.997-2 .016-.01a.55.55 0 0 1 .2-.13.69.69 0 0 1 .727.14l1.996 2a.666.666 0 1 1-.941.941l-.873-.873v5.075h5.073l-.86-.861a.666.666 0 1 1 .94-.942l1.998 1.998c.26.26.26.682 0 .942" clip-rule="evenodd"/></svg>