<svg xmlns="http://www.w3.org/2000/svg" fill="none" viewBox="0 0 24 24"><g clip-path="url(#a)"><path fill="#104FCA" d="M12 24c6.627 0 12-5.373 12-12S18.627 0 12 0 0 5.373 0 12s5.373 12 12 12"/><path fill="#fff" fill-opacity=".5" d="m6 7.376 2.823 4.735v4.886C7.264 16.997 6 15.773 6 14.263z"/><path fill="#fff" fill-opacity=".6" d="m15.177 12.106 2.821-4.733H18v6.89c.001 1.51-1.263 2.734-2.822 2.734z"/><path fill="#fff" fill-opacity=".8" d="m11.998 11.97-1.411 2.367q-.44-.11-.944-.851L6 7.376c1.35-.755 3.077-.307 3.856 1z"/><path fill="#fff" d="M14.144 8.37c.78-1.308 2.506-1.756 3.856-1l-3.643 6.11A2.84 2.84 0 0 1 12 14.71c-.439 0-.872-.1-1.267-.29l-.147-.083z"/></g><defs><clipPath id="a"><path fill="#fff" d="M0 0h24v24H0z"/></clipPath></defs></svg>