<svg xmlns="http://www.w3.org/2000/svg" fill="none" viewBox="0 0 24 24"><path fill="#F0F" fill-rule="evenodd" d="M12 2c5.522 0 10 4.463 10 9.975H12V2Z" clip-rule="evenodd"/><path fill="#FF6" fill-rule="evenodd" d="M12 21.95c5.522 0 10-4.463 10-9.975H12v9.975Z" clip-rule="evenodd"/><path fill="#AD8A60" fill-rule="evenodd" d="M12 17.482c3.04 0 5.522-2.476 5.522-5.507 0-3.035-2.482-5.507-5.522-5.507S6.478 8.94 6.478 11.975c.005 3.03 2.482 5.507 5.522 5.507Z" clip-rule="evenodd"/><path fill="#606" fill-rule="evenodd" d="M16.433 15.255c-.114.15-.234.29-.354.43-.854.933-1.922 1.497-3.165 1.717v1.218c.464.04.918.115 1.363.22a9.946 9.946 0 0 1 3.29 1.423l.035-.025h.005c.244-.17.484-.375.733-.55l.03-.02c.245-.21.475-.429.714-.644.395-.394.754-.823 1.079-1.278-.674-.2-1.498-.564-1.164-1.403.345-.863.994-1.507.17-2.331a5.155 5.155 0 0 0-.19-.155c-.668-.5-.793-.569-.529-1.423.02-.055.035-.104.055-.16.045-.13.09-.244.11-.294h-1.138c.005 1.103-.295 2.237-.939 3.135l-.105.14Z" clip-rule="evenodd"/><path fill="#9FF" fill-rule="evenodd" d="M12 21.95c-5.522 0-10-4.468-10-9.975h10v9.975Z" clip-rule="evenodd"/><path fill="#CF934F" fill-rule="evenodd" d="M12 17.482c-3.05 0-5.522-2.466-5.522-5.507H12v5.507Z" clip-rule="evenodd"/><path fill="#CF934F" fill-rule="evenodd" d="M12 21.95a9.98 9.98 0 0 1-5.562-1.682 9.901 9.901 0 0 1 3.29-1.423c.445-.105.9-.175 1.363-.22v-2.082c.295.05.6.075.909.075v5.332Z" clip-rule="evenodd"/><path fill="#FFEEDB" fill-rule="evenodd" d="M12 17.482c3.05 0 5.522-2.466 5.522-5.507H12v5.507Z" clip-rule="evenodd"/><path fill="#FF1414" fill-rule="evenodd" d="M12 14.546c.14-.095.235-.15.394-.23.085-.04.18-.06.28-.06.11 0 .215.026.305.075.374.185.714.365 1.073.565-.504.594-1.168.888-2.047.888L12 14.546Z" clip-rule="evenodd"/><path fill="#fff" d="M12 8.38a.939.939 0 0 0 .998-.803c.045.883 1.129 1.268 1.503.11-.08.703.68.988 1.368.524 1.143.883 1.548 2.236 1.653 3.77h1.088c.33-.895 1.103-1.309-.255-1.933-.174-.08-.05-.035.205-.354.784-1.029.335-1.483-.854-1.418-.12.005.055-.13.14-.26.909-1.348.71-2.247-1.088-1.797.215-.72.599-1.932-.63-1.847-.404.024-.718.23-1.043.449.025-.804-.02-1.822-1.133-1.478-.37.125-.639.39-.899.674-.11-.629-.379-1.078-1.053-1.153V8.38Z"/><path fill="#000" d="M11.78 14.236c.13.05.225.175.225.345.005.12-.045.305-.32.5-.444.274-1.083.329-1.477.084-.365-.17-.59-.5-.45-.963.095-.2.36-.295.54-.23.2.075.29.285.044.41.12-.24-.334-.39-.374.024-.01.145.205.35.47.39.234.035.469-.05.693-.28.105-.1.205-.205.34-.27a.464.464 0 0 1 .31-.01Z"/><path fill="#FF0" fill-rule="evenodd" d="M2 11.975C2 6.468 6.483 2 12.005 2v9.975H2Z" clip-rule="evenodd"/><path fill="#EDD491" fill-rule="evenodd" d="M6.483 11.975c0-3.04 2.472-5.507 5.522-5.507v5.507H6.483Z" clip-rule="evenodd"/><path fill="#FFEEDB" fill-rule="evenodd" d="M12 21.95a9.98 9.98 0 0 0 5.562-1.682 9.947 9.947 0 0 0-3.29-1.423 10.19 10.19 0 0 0-1.363-.22v-2.082c-.295.05-.6.075-.909.075v5.332Z" clip-rule="evenodd"/><path fill="#000" fill-rule="evenodd" d="M14.207 11.021a.44.44 0 1 0-.002-.88.44.44 0 0 0 .002.88Z" clip-rule="evenodd"/><path fill="#4B9100" fill-rule="evenodd" d="M14.556 18.904a9.99 9.99 0 0 1 3.01 1.358 10.045 10.045 0 0 1-5.561 1.683v-1.153c.689 0 1.313-.21 1.772-.545.46-.339.754-.813.78-1.343Z" clip-rule="evenodd"/><path fill="#1A1A1A" fill-rule="evenodd" d="M9.733 11.446a.38.38 0 0 1-.379-.38v-.963c0-.21.17-.38.38-.38s.384.17.384.38v.963c0 .21-.175.38-.385.38Z" clip-rule="evenodd"/><path fill="red" fill-rule="evenodd" d="M7.911 8.27c-.649.685-1.073 1.568-1.318 2.602-.394-.674-.244-2.507.255-3.395-.37-.225-1.213-.335-2.661.314C5.44 6.06 7.192 5.964 8.27 6.14c-.38-.65-.884-.964-2.257-1.408 2.217-.744 3.04-.25 4.204.639-.05-.889-.165-1.268-.839-2.337 1.088-.08 1.982.635 2.621 1.493v3.315c-.594.035-1.053-.374-1.258-.833-.15.399-.125 1.113.065 1.537-.914-.115-1.183-.789-1.373-1.353-.43.185-1.213.754-1.523 1.079Z" clip-rule="evenodd"/><path fill="#FFC" fill-rule="evenodd" d="M9.449 18.904a9.934 9.934 0 0 0-3.01 1.358A10.045 10.045 0 0 0 12 21.945h.005v-1.153H12c-.689 0-1.313-.21-1.772-.545-.465-.339-.754-.813-.78-1.343Z" clip-rule="evenodd"/></svg>