<svg xmlns="http://www.w3.org/2000/svg" fill="none" viewBox="0 0 24 24"><path fill="#62757E" d="M13.333 18.52c0 .021-.01.04-.012.06.002.031.012.06.012.093 0 1.834-1.87 3.327-4.167 3.327-1.18 0-2.245-.394-3.004-1.025l1.182-1.182c.46.329 1.111.54 1.822.541 1.355 0 2.501-.761 2.501-1.661 0-.705-.693-1.324-1.639-1.565l1.282-1.28q.213.104.412.227v-.639l1.611-1.611zM12.156 2.074a.84.84 0 0 1 .893.132l3.783 3.31 3.212-3.21a.85.85 0 0 1 1.201 1.202L3.378 21.376a.85.85 0 0 1-1.202-1.202l9.546-9.546V2.812c0-.328.136-.602.434-.738m7.56 5.965a.835.835 0 0 1-1.099 1.254l-.412-.361 1.18-1.181zm-6.383.978 2.317-2.319-2.317-2.028z"/></svg>