<svg xmlns="http://www.w3.org/2000/svg" fill="none" viewBox="0 0 24 24"><path fill="#62757E" fill-rule="evenodd" d="M19.793 9.216a.833.833 0 0 1-1.175.077l-.413-.36 1.181-1.182.33.288a.834.834 0 0 1 .077 1.177m-4.142-2.518L13.333 4.67v4.346zm-3.93 3.93-9.545 9.546a.85.85 0 0 0 1.202 1.202L21.246 3.508a.85.85 0 0 0-1.202-1.202l-3.211 3.21-3.784-3.31a.84.84 0 0 0-.893-.132c-.298.135-.434.41-.434.738zm1.612 3.176-1.611 1.611v.64a5 5 0 0 0-.41-.23l-1.282 1.282c.945.241 1.637.861 1.637 1.566 0 .9-1.145 1.66-2.5 1.66-.711 0-1.365-.209-1.825-.538l-1.18 1.18C6.92 21.608 7.987 22 9.166 22c2.298 0 4.167-1.492 4.167-3.327q0-.025-.006-.051l-.006-.043q0-.014.006-.027a.1.1 0 0 0 .006-.032z" clip-rule="evenodd"/></svg>