<svg xmlns="http://www.w3.org/2000/svg" fill="none" viewBox="0 0 24 24"><path fill="#62757E" fill-rule="evenodd" d="M20.044 2.306a.85.85 0 0 1 1.435.762q.064.027.121.065l-.254.254a1 1 0 0 1-.1.12L3.07 21.685a1 1 0 0 1-.121.1l-.002.002a.85.85 0 0 1-1.079-1.305l.2-.2A2.7 2.7 0 0 1 2 19.683c0-1.791 1.777-3.256 3.995-3.328l2.704-2.705v-7.2c0-.392.243-.873.628-.955l9.556-2.028zm-3.319 3.318-6.392 1.357v5.035zM22 5.137 20.408 6.73v7.86a4.8 4.8 0 0 0-2.575-.731c-2.297 0-4.166 1.493-4.166 3.33 0 1.83 1.869 3.317 4.166 3.317S22 19.02 22 17.19l-.003-.021-.002-.017.002-.01.003-.014zM8.306 18.831l2.027-2.027v2.53a.3.3 0 0 1-.014.081l-.012.048q.005.046.013.093a1 1 0 0 1 .015.127c0 1.829-1.87 3.317-4.167 3.317a5 5 0 0 1-1.73-.3l1.379-1.38q.173.018.351.017c1.355 0 2.5-.757 2.5-1.654 0-.309-.133-.6-.362-.852m9.527-3.31c-1.354 0-2.5.764-2.5 1.668 0 .898 1.146 1.656 2.5 1.656s2.5-.758 2.5-1.656c0-.904-1.145-1.668-2.5-1.668" clip-rule="evenodd"/></svg>