<svg xmlns="http://www.w3.org/2000/svg" fill="none" viewBox="0 0 24 24"><path fill="#62757E" fill-rule="evenodd" d="M19.794 9.216a.833.833 0 0 1-1.176.077l-.413-.36 1.181-1.182.33.288a.834.834 0 0 1 .078 1.177ZM15.65 6.698 13.333 4.67v4.346l2.318-2.318Zm-3.929 3.93-9.546 9.546a.85.85 0 0 0 1.202 1.202L21.246 3.508a.85.85 0 0 0-1.202-1.202l-3.211 3.21-3.784-3.31a.836.836 0 0 0-.893-.132c-.298.135-.434.41-.434.738v7.815Zm1.611 3.176-1.61 1.611v.64a4.55 4.55 0 0 0-.411-.23l-1.282 1.282c.945.241 1.637.861 1.637 1.566 0 .9-1.145 1.66-2.5 1.66-.711 0-1.364-.209-1.825-.538l-1.18 1.18C6.92 21.608 7.987 22 9.167 22c2.297 0 4.166-1.492 4.166-3.327a.296.296 0 0 0-.006-.051c-.002-.014-.005-.028-.006-.043.001-.01.004-.018.006-.027a.115.115 0 0 0 .006-.032v-4.716Z" clip-rule="evenodd"/></svg>