<svg xmlns="http://www.w3.org/2000/svg" fill="none" viewBox="0 0 24 24"><path fill="#62757E" fill-rule="evenodd" d="m20.126 19.955 1.63 1.626a.83.83 0 0 1-.59 1.419.83.83 0 0 1-.588-.243L8.912 11.123l-.002-.002-6.666-6.648a.828.828 0 0 1 0-1.174.834.834 0 0 1 1.178 0l5.244 5.23V6.307c0-.392.276-.732.66-.813l11.667-2.477c.038-.008.073.002.11-.001.023-.003.04-.017.063-.017.027 0 .05.013.076.015a.82.82 0 0 1 .168.034.754.754 0 0 1 .272.145.776.776 0 0 1 .2.237c.029.05.05.1.069.156.007.025.025.045.03.071.007.03-.001.058.001.088.004.03.018.055.018.085v13.296c0 .009-.005.016-.005.025 0 .012.005.025.005.037 0 1.144-.725 2.166-1.874 2.766Zm.207-2.766c0-.904-1.145-1.668-2.5-1.668a3.21 3.21 0 0 0-1.69.463l2.704 2.697c.877-.272 1.486-.86 1.486-1.492Zm.094-12.351L10.333 6.98v3.21l4.617 4.603c.767-.589 1.788-.935 2.883-.935.985 0 1.88.286 2.594.745V4.838ZM6.169 16.352c.94 0 1.8.26 2.497.682V14.69a.833.833 0 0 1 1.667 0v4.644c0 .046-.018.085-.026.129.007.073.028.145.028.219 0 1.83-1.87 3.318-4.166 3.318C3.869 23 2 21.512 2 19.682c0-1.836 1.87-3.33 4.169-3.33Zm0 4.986c1.354 0 2.5-.758 2.5-1.656 0-.904-1.146-1.668-2.5-1.668-1.357 0-2.502.764-2.502 1.668 0 .898 1.145 1.657 2.502 1.657Z" clip-rule="evenodd"/></svg>