<svg xmlns="http://www.w3.org/2000/svg" fill="none" viewBox="0 0 24 24"><path fill="#62757E" fill-rule="evenodd" d="M3.421 21.757a.83.83 0 0 1-1.178-.004.84.84 0 0 1 .002-1.182l4.357-4.356h-2.9a1.67 1.67 0 0 1-1.666-1.672V9.526c0-.922.747-1.673 1.666-1.673h3.025l5.599-4.816a.832.832 0 0 1 1.376.635v5.446l6.876-6.874a.83.83 0 0 1 1.178.002.837.837 0 0 1-.002 1.183zM12.036 5.49 7.578 9.324a.83.83 0 0 1-.869.126H3.638v5.02l3.398.072c.042 0 .077.018.117.024.057.008.114.014.168.034.058.022.107.055.157.088.033.021.07.03.1.056l.267.23 4.19-4.19zm-1.242 12.021 1.242 1.067V15.04c0-.462.372-.837.833-.837s.833.375.833.837v5.356a.837.837 0 0 1-.833.836.84.84 0 0 1-.543-.2L9.709 18.78a.84.84 0 0 1-.09-1.178.83.83 0 0 1 1.175-.09m4.582-3.804a1.67 1.67 0 0 0 1.434-2.526.84.84 0 0 1 .29-1.146.83.83 0 0 1 1.143.291c.305.516.466 1.106.466 1.708a3.343 3.343 0 0 1-3.333 3.345.836.836 0 0 1 0-1.672m1.382 3.382c2.138-.697 3.575-2.727 3.575-5.055 0-1.183-.37-2.304-1.07-3.241a.84.84 0 0 1 .169-1.17.83.83 0 0 1 1.166.166A7.05 7.05 0 0 1 22 12.034c0 3.055-1.9 5.726-4.729 6.645a.834.834 0 0 1-1.05-.536.837.837 0 0 1 .537-1.054" clip-rule="evenodd"/></svg>