<svg xmlns="http://www.w3.org/2000/svg" fill="none" viewBox="0 0 24 24"><path fill="#007896" d="M12.36 22.18c5.523 0 10-4.477 10-10s-4.477-10-10-10-10 4.477-10 10 4.477 10 10 10Z"/><path fill="#fff" d="M13.402 14.698a1.434 1.434 0 0 1-2.045 0l-1.303-1.317a.892.892 0 0 0-1.272 0 1.476 1.476 0 0 0 0 2.069l2.58 2.604a1.434 1.434 0 0 0 2.044 0l2.573-2.607a1.476 1.476 0 0 0 0-2.07.892.892 0 0 0-1.272 0l-1.305 1.32Zm-4.89-4.585a1.382 1.382 0 0 1 1.972-.02l1.243 1.255a.86.86 0 0 0 1.226-.013c.55-.549.558-1.438.018-1.997l-2.457-2.483a1.382 1.382 0 0 0-1.97.02L6.04 9.412a1.423 1.423 0 0 0-.019 1.997.86.86 0 0 0 1.226-.012l1.265-1.284Z"/><path fill="#fff" d="M14.242 10.056a1.382 1.382 0 0 1 1.971-.02l1.244 1.257a.86.86 0 0 0 1.225-.013c.551-.548.56-1.438.019-1.997l-2.458-2.485a1.382 1.382 0 0 0-1.972.02l-2.503 2.538a1.423 1.423 0 0 0-.019 1.997.86.86 0 0 0 1.226-.013l1.267-1.284Z"/></svg>