<svg xmlns="http://www.w3.org/2000/svg" fill="none" viewBox="0 0 24 24"><path fill="#007896" d="M12.36 22.18c5.523 0 10-4.477 10-10s-4.477-10-10-10-10 4.477-10 10 4.477 10 10 10"/><path fill="#fff" d="M13.402 14.698a1.434 1.434 0 0 1-2.044 0l-1.303-1.317a.89.89 0 0 0-1.273 0 1.476 1.476 0 0 0 0 2.07l2.58 2.603a1.433 1.433 0 0 0 2.044 0l2.573-2.607a1.476 1.476 0 0 0 0-2.07.89.89 0 0 0-1.272 0zm-4.89-4.585a1.38 1.38 0 0 1 1.972-.02l1.243 1.255a.86.86 0 0 0 1.226-.013c.55-.548.558-1.438.018-1.997l-2.456-2.483a1.38 1.38 0 0 0-1.972.02L6.04 9.412a1.423 1.423 0 0 0-.019 1.997.86.86 0 0 0 1.226-.012z"/><path fill="#fff" d="M14.242 10.057a1.38 1.38 0 0 1 1.971-.021l1.243 1.257a.86.86 0 0 0 1.226-.012c.55-.55.559-1.439.019-1.997l-2.459-2.486a1.38 1.38 0 0 0-1.97.02l-2.504 2.538a1.423 1.423 0 0 0-.019 1.997.86.86 0 0 0 1.226-.013z"/></svg>