<svg xmlns="http://www.w3.org/2000/svg" fill="none" viewBox="0 0 24 24"><g clip-path="url(#a)"><path fill="#FFAA05" d="M12 24c6.627 0 12-5.373 12-12S18.627 0 12 0 0 5.373 0 12s5.373 12 12 12"/><path fill="#fff" fill-rule="evenodd" d="M12.527 9.443v1.211h1.44l-.65.746h-.967v.938h1.005l-.492.747h-.513v1.913l-.828 1.129v-3.042h-1.144l.631-.747h.513v-.937H9.906l.65-.747h.966V9.4q-.714-.774-1.971-.774c-1.607 0-2.878 1.713-2.878 3.416q0 1.702.778 2.89l-.897 1.042Q5.501 14.413 5.5 12.405c0-2.937 2.528-4.63 4.317-4.63q1.641 0 2.515 1.376 1.671-1.147 3.419-1.147c1.783 0 2.749 2.178 2.749 4.258 0 2.768-1.863 3.836-2.543 3.96a.14.14 0 0 1-.133-.052.13.13 0 0 1-.022-.097.13.13 0 0 1 .055-.083q1.578-1.06 1.578-3.25c0-3.185-1.636-3.923-2.838-3.923a3.7 3.7 0 0 0-2.07.626" clip-rule="evenodd"/></g><defs><clipPath id="a"><path fill="#fff" d="M0 0h24v24H0z"/></clipPath></defs></svg>