<svg xmlns="http://www.w3.org/2000/svg" fill="none" viewBox="0 0 24 24"><g clip-path="url(#a)"><path fill="#FFAA05" d="M12 24c6.627 0 12-5.373 12-12S18.627 0 12 0 0 5.373 0 12s5.373 12 12 12Z"/><path fill="#fff" fill-rule="evenodd" d="M12.527 9.443v1.211h1.44l-.65.747h-.967v.938h1.005l-.492.746h-.513v1.913l-.828 1.129v-3.042h-1.144l.631-.746h.513V11.4H9.906l.65-.747h.966V9.4c-.476-.516-1.133-.774-1.971-.774-1.607 0-2.878 1.713-2.878 3.416 0 1.135.26 2.098.778 2.89l-.897 1.042c-.702-1.041-1.054-2.23-1.054-3.569 0-2.937 2.528-4.63 4.317-4.63 1.094 0 1.933.459 2.515 1.376 1.114-.764 2.254-1.147 3.418-1.147 1.784 0 2.75 2.178 2.75 4.258 0 2.768-1.863 3.836-2.543 3.961a.135.135 0 0 1-.133-.053.13.13 0 0 1-.022-.097.125.125 0 0 1 .055-.083c1.052-.707 1.578-1.79 1.578-3.25 0-3.185-1.636-3.922-2.838-3.922a3.7 3.7 0 0 0-2.07.625Z" clip-rule="evenodd"/></g><defs><clipPath id="a"><path fill="#fff" d="M0 0h24v24H0z"/></clipPath></defs></svg>