<svg xmlns="http://www.w3.org/2000/svg" fill="none" viewBox="0 0 24 24"><g clip-path="url(#a)"><path fill="#4A90E2" d="M12 24c6.627 0 12-5.373 12-12S18.627 0 12 0 0 5.373 0 12s5.373 12 12 12"/><path fill="#fff" d="M18.014 8.999c-.546 0-1.008.44-1.008 1.007 0 .798-.126 1.007-1.008 1.007h-.084a.985.985 0 0 0-.902.987v.021c0 .777-.146.966-1.008.966-.041 0-.083 0-.104.02-.505.064-.903.483-.903.987 0 .546.44 1.007 1.008 1.007.524 0 .965-.42.986-.923v-.084c0-.713.23-.986.986-1.007h.021a.99.99 0 0 0 .987-.945v-.063c0-.735.23-1.008 1.008-1.008.545 0 1.007-.44 1.007-1.007a.98.98 0 0 0-.986-.965m-5.92 2.014a1.02 1.02 0 0 1 .924.966.995.995 0 0 1-1.008 1.008 1.01 1.01 0 0 1-1.007-1.008c0-.714-.231-.986-1.008-.986-.776 0-1.007.272-1.007 1.007v.063c-.02.504-.462.923-.986.923a1.01 1.01 0 0 1-1.008-1.007c0-.525.399-.945.903-.986h.084c.881 0 1.007-.189 1.007-.986a1.008 1.008 0 0 1 2.015 0c0 .797.126 1.006 1.007 1.006zm-6.087 3.988a1.007 1.007 0 1 1 0-2.014 1.007 1.007 0 0 1 0 2.014"/></g><defs><clipPath id="a"><path fill="#fff" d="M0 0h24v24H0z"/></clipPath></defs></svg>