<svg xmlns="http://www.w3.org/2000/svg" fill="none" viewBox="0 0 24 24"><g clip-path="url(#a)"><path fill="#36A9CF" d="M12 24c6.627 0 12-5.373 12-12S18.627 0 12 0 0 5.373 0 12s5.373 12 12 12Z"/><path fill="#fff" fill-rule="evenodd" d="M18.243 13.575c.112.049.154.201.093.34a.283.283 0 0 1-.22.176l-1.415 2.611a.343.343 0 0 1-.103.324.347.347 0 0 1-.273.106l-2.762 1.654a.333.333 0 0 1-.26.207c-.137.026-.267-.023-.329-.116L9.73 18.65a.34.34 0 0 1-.287.06c-.16-.035-.271-.163-.265-.295l-2.507-1.808a.337.337 0 0 1-.292-.09c-.11-.099-.15-.243-.107-.353l-1.031-2.39c-.113-.023-.21-.133-.236-.28-.02-.132.023-.256.103-.322l.152-3.619a.347.347 0 0 1-.044-.328c.05-.149.174-.242.295-.236l2.705-2.835c-.023-.134.079-.275.238-.326a.339.339 0 0 1 .3.04l3.893-.707c.05-.115.193-.182.347-.155.14.024.245.12.27.231l1.798 1.026a.363.363 0 0 1 .301.037.372.372 0 0 1 .182.272l.774.52a.338.338 0 0 1 .293.058c.145.104.197.286.114.407l-.005.007 1.135 2.214c.108-.014.219.07.258.203.043.145-.017.294-.132.33-.117.039-.246-.05-.289-.194l-.007-.032-2.335-1.25a.358.358 0 0 1-.147.12v6.232a.36.36 0 0 1 .207.408l.948.966a.302.302 0 0 1 .154-.022l1.432-2.53a.286.286 0 0 1-.014-.272c.06-.14.2-.211.312-.162Zm.003.302c.024-.056.007-.116-.038-.136-.044-.02-.1.01-.124.065-.025.055-.008.116.037.136.045.02.1-.01.125-.065Zm-1.696 3.05c.05-.051.06-.126.02-.168-.04-.042-.114-.035-.166.015-.05.05-.06.127-.02.169.04.042.115.035.166-.016Zm-.4-.16.007-.015-.91-.925a.344.344 0 0 1-.37-.003.35.35 0 0 1-.129-.148h-1.22a.361.361 0 0 1-.147.158l.12 1.722c.046.02.088.05.12.086l2.529-.874Zm-2.653 1.774 2.207-1.322-2.011.695a.33.33 0 0 1-.2.224l-.06.359a.278.278 0 0 1 .064.044Zm-.207.342c.07-.013.118-.07.108-.129-.01-.057-.076-.094-.146-.08-.07.013-.118.07-.108.128.01.058.076.094.146.081Zm-.32-.253a.337.337 0 0 1 .185-.147l.058-.34a.354.354 0 0 1-.135-.09l-2.532.408 2.424.169Zm-2.368-2.76-.824 2.43 3.192-.516-2.258-1.96a.353.353 0 0 1-.11.046Zm-1.06 2.263.785-2.316a.356.356 0 0 1-.12-.142H8.773a.445.445 0 0 1-.03.05l.8 2.408Zm-.097.467c.07.016.136-.019.147-.076.013-.057-.033-.116-.103-.132-.07-.015-.137.019-.149.076-.012.059.035.117.105.132Zm-2.601-2.17 2.421 1.747-.765-2.301a.351.351 0 0 1-.3-.109l-1.352.589a.28.28 0 0 1-.004.073Zm-.227-.381a.404.404 0 0 1 .096.059l1.389-.605a.366.366 0 0 1 .064-.192l-2.149-2.22.6 2.958Zm-.014.387c.038-.043.025-.118-.028-.167-.053-.047-.127-.051-.165-.007-.038.044-.027.12.026.167.054.048.128.051.166.007Zm-1.14-2.757.74 1.713-.496-2.442-.195.416a.365.365 0 0 1-.049.313Zm-.017-2.762-.09 2.133.177-.376a.355.355 0 0 1 .015-.356l-.102-1.401ZM5.318 9.23c-.024.068.002.14.056.16.055.019.117-.02.141-.09.024-.068-.001-.14-.056-.16-.055-.018-.117.021-.141.09Zm.537 3.279c0-.072-.052-.131-.116-.131s-.117.059-.117.131c0 .073.053.132.117.132s.116-.059.116-.132Zm-.146-3.11a.382.382 0 0 1-.087.145l.184 2.54L6.94 8.5l-1.212.823a.416.416 0 0 1-.018.076Zm1.926-2.28L6.085 8.74l.794-.538a.38.38 0 0 1 .283-.315l.473-.77Zm.798-.769-1.01 1.643a.265.265 0 0 1 .03.149l.748.23a.348.348 0 0 1 .571.093h1.252a.354.354 0 0 1 .248-.197l.68-1.447a.366.366 0 0 1-.07-.165l-2.08-.46a.364.364 0 0 1-.195.142.372.372 0 0 1-.174.013Zm.037-.415c-.068.02-.11.084-.093.14.017.056.086.084.153.063.068-.02.11-.084.093-.14-.016-.056-.085-.085-.153-.063Zm3.976-.487-3.139.572 1.642.363a.348.348 0 0 1 .398-.123l1.099-.812Zm.385.062-1.17.866 3.21.089.007-.025-1.702-.97a.347.347 0 0 1-.272.061.378.378 0 0 1-.073-.02Zm.151-.394c-.07-.013-.135.024-.145.083-.01.057.038.114.109.127.07.013.135-.024.145-.083.01-.057-.039-.114-.109-.127ZM15.04 6.85a.395.395 0 0 1-.112-.103l-3.349-.093a.317.317 0 0 1-.013.059l1.351 1.558a.353.353 0 0 1 .395.195h1.436a.357.357 0 0 1 .17-.17l.122-1.446Zm.025 1.628a.143.143 0 0 0-.14.145c0 .08.063.143.14.143a.143.143 0 0 0 .142-.143.143.143 0 0 0-.141-.145Zm.063-2.036c-.035.06-.009.144.059.183.067.04.15.024.184-.038.036-.061.01-.143-.058-.183-.067-.04-.15-.023-.185.038Zm2.492 3.384-2.309-2.92-.116 1.381a.36.36 0 0 1 .223.306l2.202 1.233Zm-1.46-2.544-.518-.347 1.672 2.176-.813-1.455a.37.37 0 0 1-.189-.07.337.337 0 0 1-.152-.304Zm.242-.036c-.033.048-.012.121.046.163.058.041.132.036.165-.013.034-.047.013-.12-.045-.162-.059-.041-.133-.036-.165.013Zm-3.544 1.377c0 .077.06.14.137.14a.14.14 0 0 0 .138-.14.14.14 0 0 0-.138-.142.14.14 0 0 0-.138.142Zm.075 3.037a.142.142 0 0 0-.141.144c0 .08.064.144.141.144a.142.142 0 0 0 .14-.144.141.141 0 0 0-.14-.144ZM11.09 6.554c0 .08.063.144.14.144a.142.142 0 0 0 .142-.144.143.143 0 0 0-.142-.145.143.143 0 0 0-.14.145Zm.103.405-.646 1.372a.362.362 0 0 1 .098.474l2.15 2.667a.355.355 0 0 1 .062-.02V8.955a.36.36 0 0 1-.164-.518l-1.31-1.51a.352.352 0 0 1-.19.033ZM10.2 8.623c0 .08.064.143.141.143a.143.143 0 0 0 .141-.143.143.143 0 0 0-.14-.145.143.143 0 0 0-.142.145Zm-1.884 0c0 .077.061.14.138.14a.14.14 0 0 0 .138-.14.14.14 0 0 0-.138-.142.14.14 0 0 0-.138.142Zm.138 6.752a.142.142 0 0 0-.14.143c0 .08.062.144.14.144a.144.144 0 0 0 0-.287ZM7.056 8.082c-.046.054-.05.13-.006.169.043.038.116.027.163-.029.047-.054.05-.13.007-.168-.043-.04-.116-.027-.164.028Zm-1.034 4.237a.353.353 0 0 1 .054.19c0 .07-.019.135-.052.188l2.292 2.368v-6.11a.36.36 0 0 1-.214-.32l-.778-.238a.368.368 0 0 1-.08.055L6.022 12.32Zm7.188 2.839c.152 0 .28.098.33.235h1.196a.356.356 0 0 1 .192-.206V8.954a.356.356 0 0 1-.193-.206h-1.41a.36.36 0 0 1-.192.206v2.552a.363.363 0 0 1 .153.298.357.357 0 0 1-.353.36.356.356 0 0 1-.352-.36c0-.045.007-.087.023-.127l-2.182-2.704a.353.353 0 0 1-.412-.225H8.785a.36.36 0 0 1-.193.206v6.233a.36.36 0 0 1 .193.206h1.41a.36.36 0 0 1 .192-.206v-2.59a.361.361 0 0 1-.17-.307.357.357 0 0 1 .354-.36.355.355 0 0 1 .331.485l2.216 2.755a.378.378 0 0 1 .091-.012Zm.152 2.575c-.076 0-.14.057-.14.129 0 .07.064.128.14.128.079 0 .142-.058.142-.128s-.063-.129-.141-.129Zm-.293-2.215c0 .08.063.144.14.144a.143.143 0 0 0 .142-.144.144.144 0 0 0-.087-.132.141.141 0 0 0-.054-.011.142.142 0 0 0-.141.143Zm-2.64-3.228c0 .08.064.144.142.144.078 0 .14-.064.14-.144a.142.142 0 0 0-.14-.144.142.142 0 0 0-.141.144Zm.096 3.085a.141.141 0 0 0-.13.089.142.142 0 0 0-.011.054c0 .08.064.144.141.144.078 0 .14-.064.14-.144a.142.142 0 0 0-.14-.143Zm.138-.188a.36.36 0 0 1 .207.405l2.287 1.984a.366.366 0 0 1 .065-.03l-.117-1.683a.361.361 0 0 1-.204-.518l-2.19-2.724a.31.31 0 0 1-.048.016v2.55Zm4.543.33a.141.141 0 1 0-.281.001c0 .08.063.144.14.144a.143.143 0 0 0 .142-.144ZM5.21 13.596c.057-.01.093-.075.081-.147-.012-.072-.068-.122-.124-.112-.058.01-.093.077-.081.148.011.072.067.122.124.111ZM17.92 9.96c-.046.015-.07.075-.053.132.017.058.069.093.114.079.047-.015.07-.075.054-.133-.017-.058-.069-.093-.115-.078Z" clip-rule="evenodd"/></g><defs><clipPath id="a"><path fill="#fff" d="M0 0h24v24H0z"/></clipPath></defs></svg>