<svg xmlns="http://www.w3.org/2000/svg" fill="none" viewBox="0 0 24 24"><g clip-path="url(#a)"><path fill="#622FBA" d="M12 24c6.627 0 12-5.373 12-12S18.627 0 12 0 0 5.373 0 12s5.373 12 12 12"/><path fill="#fff" fill-rule="evenodd" d="M13.681 12.894a1 1 0 0 0-.164.064l-2.39-2.484a1.243 1.243 0 0 0-.74-1.816V6.921l-.64-.358 1.477-.855a1.55 1.55 0 0 1 1.552 0l2.938 1.7-1.161.672a1.242 1.242 0 1 0-.872 2.322zm.74 0v-2.493a1.242 1.242 0 0 0 .71-1.803l1.32-.763.63.364a1.54 1.54 0 0 1 .77 1.335v4.932c0 .55-.294 1.058-.77 1.334l-2.66 1.54v-2.076a1.241 1.241 0 0 0 0-2.37m-1.448.565a1.243 1.243 0 0 0 .708 1.805v2.504l-.905.524a1.55 1.55 0 0 1-1.552 0l-3.163-1.83 1.188-.93a1.24 1.24 0 0 0 1.276.197 1.24 1.24 0 0 0-.14-2.342v-2.339q.104-.027.198-.073zm-3.327-.051a1.24 1.24 0 0 0-.797 1.5l-1.476 1.155-.453-.262a1.54 1.54 0 0 1-.77-1.335V9.534c0-.55.293-1.058.77-1.334l2.084-1.207.643.36v1.326a1.242 1.242 0 0 0 0 2.349zm.404-3.018a.537.537 0 1 1-.038-1.074.537.537 0 0 1 .038 1.074m0 4.729a.537.537 0 1 1-.039-1.074.537.537 0 0 1 .04 1.074m4.001-5.366a.538.538 0 1 1-.039-1.075.538.538 0 0 1 .039 1.075m0 4.863a.538.538 0 1 1-.001-1.075.538.538 0 0 1 .001 1.075" clip-rule="evenodd"/></g><defs><clipPath id="a"><path fill="#fff" d="M0 0h24v24H0z"/></clipPath></defs></svg>