<svg xmlns="http://www.w3.org/2000/svg" fill="none" viewBox="0 0 24 24"><path fill="#FAFAFA" d="M12 24c6.627 0 12-5.373 12-12S18.627 0 12 0 0 5.373 0 12s5.373 12 12 12"/><path fill="#000" d="m15.62 6.613-2.507 3.72c-.173.254.16.56.4.347l2.467-2.147c.067-.053.16-.013.16.08v6.707c0 .093-.12.133-.174.067L8.5 6.453A1.23 1.23 0 0 0 7.527 6H7.26c-.694 0-1.267.573-1.267 1.28v9.44a1.28 1.28 0 0 0 2.374.667l2.506-3.72c.174-.254-.16-.56-.4-.347l-2.466 2.133c-.067.054-.16.014-.16-.08V8.68c0-.093.12-.133.173-.067l7.467 8.934c.24.293.6.453.973.453h.267a1.28 1.28 0 0 0 1.28-1.28V7.28A1.28 1.28 0 0 0 16.726 6c-.454 0-.867.227-1.107.613"/></svg>