<svg xmlns="http://www.w3.org/2000/svg" fill="none" viewBox="0 0 24 24"><g clip-path="url(#a)"><path fill="#50479E" d="M12 24c6.627 0 12-5.373 12-12S18.627 0 12 0 0 5.373 0 12s5.373 12 12 12Z"/><path fill="#fff" d="M14.834 10.48v3.108l-2.8 1.539v-3.108l2.8-1.539Zm3.34-.798v4.635c0 .33-.09.652-.261.932-.17.28-.414.517-.718.684l-2.088 1.147v-3.059l.264-.145v-3.69l2.557-1.407c.159.273.247.582.247.904Zm-11.37 6.25a1.914 1.914 0 0 1-.698-.654 1.796 1.796 0 0 1-.28-.96V11.35L8.7 13.596v.124l.004.13.224.131 2.87 1.578.237.13v2.81a2.034 2.034 0 0 1-1.015-.248l-4.216-2.319ZM6.686 8.14l3.04-1.664 2.067 2.002-3.091 1.705v.26l-2.87 1.575-.006-2.335c0-.33.091-.654.264-.934.15-.247.354-.455.596-.61v.001Zm10.51-.072a1.9 1.9 0 0 1 .733.712l-2.557 1.406v-.024l-.264-.145-2.816-1.548 2.816-1.549 2.088 1.148ZM5.832 12.019 8.7 10.44v3.155l-2.87-1.578Zm6.204-3.672V5.5c.33.005.654.09.944.25l2.127 1.17-2.816 1.547-.255-.12Zm-.237.13L8.934 6.903l2.211-1.216a2.04 2.04 0 0 1 .89-.187v2.847l-.236.13Zm.255 7.222.236-.13 2.784 1.53-2.095 1.152c-.29.158-.613.243-.943.248v-2.81l.018.01Zm3.053-1.678v3.06l-.033.018-2.784-1.53 2.817-1.548Z"/></g><defs><clipPath id="a"><path fill="#fff" d="M0 0h24v24H0z"/></clipPath></defs></svg>