<svg xmlns="http://www.w3.org/2000/svg" fill="none" viewBox="0 0 24 24"><g clip-path="url(#a)"><path fill="#50479E" d="M12 24c6.627 0 12-5.373 12-12S18.627 0 12 0 0 5.373 0 12s5.373 12 12 12"/><path fill="#fff" d="M14.834 10.48v3.108l-2.8 1.539v-3.108zm3.34-.798v4.635c0 .33-.09.652-.261.932a1.9 1.9 0 0 1-.718.684l-2.088 1.147v-3.059l.264-.145v-3.69l2.557-1.407c.159.273.246.582.246.904m-11.37 6.25a1.9 1.9 0 0 1-.698-.654 1.8 1.8 0 0 1-.28-.96V11.35L8.7 13.596v.124l.004.13.224.131 2.87 1.578.237.13v2.81a2.03 2.03 0 0 1-1.016-.248zM6.686 8.14l3.04-1.664 2.067 2.002L8.7 10.182v.26l-2.87 1.576-.006-2.336c0-.33.091-.654.263-.934.151-.247.355-.455.597-.61zm10.51-.072a1.9 1.9 0 0 1 .733.712l-2.557 1.406v-.024l-.264-.145-2.817-1.548 2.817-1.549zM5.832 12.019 8.7 10.44v3.155zm6.204-3.672V5.5c.33.005.654.09.943.25l2.128 1.17-2.817 1.547zm-.237.13L8.934 6.903l2.211-1.216c.28-.129.584-.192.89-.187v2.847zm.255 7.222.236-.13 2.784 1.53-2.095 1.152a2 2 0 0 1-.943.248v-2.81zm3.053-1.678v3.06l-.034.018-2.783-1.53z"/></g><defs><clipPath id="a"><path fill="#fff" d="M0 0h24v24H0z"/></clipPath></defs></svg>