<svg xmlns="http://www.w3.org/2000/svg" fill="none" viewBox="0 0 24 24"><path fill="#000" d="m12.005 21.918-.115-.058A20.012 20.012 0 0 1 2.668 9.774a19.691 19.691 0 0 1-.496-2.482c-.105-.84-.163-1.69-.172-2.54 0-.143-.02-.123.114-.19a19.9 19.9 0 0 1 7.437-2.463 21.45 21.45 0 0 1 2.93-.143 20.04 20.04 0 0 1 9.356 2.568c.039.019.067.038.106.057.038.019.057.048.057.095v.143c-.01.497-.029.984-.067 1.48a19.468 19.468 0 0 1-.286 2.1 19.457 19.457 0 0 1-1.356 4.325 19.767 19.767 0 0 1-4.029 5.89 19.88 19.88 0 0 1-4.095 3.199c-.057.038-.105.066-.162.105ZM2.916 5.24v.114c0 .697.048 1.403.134 2.09.076.63.181 1.251.324 1.872.03.105.058.21.105.315a4.254 4.254 0 0 0 4.812 2.348 4.252 4.252 0 0 0 3.131-2.978c.115-.41.153-.83.172-1.25.01-.278.038-.554.086-.831a5.043 5.043 0 0 1 3.017-3.723c.086-.039.181-.067.267-.105.01-.01.029-.01.029-.03-.248-.085-1.728-.238-2.616-.257a17.94 17.94 0 0 0-5.604.764c-1.356.41-2.635.964-3.857 1.67Zm14.081 11.437a.302.302 0 0 0 .096-.096 18.063 18.063 0 0 0 3.58-7.494c.162-.735.267-1.47.334-2.215.048-.506.067-1.012.067-1.527 0-.039 0-.067-.01-.105l-.143-.086c-.391-.22-.792-.43-1.193-.62a15.473 15.473 0 0 0-1.805-.726 4.123 4.123 0 0 0-2.281-.077c-2.186.525-3.59 2.673-3.17 4.879.23 1.222.888 2.176 1.938 2.844.067.048.144.086.21.134a4.929 4.929 0 0 1 1.805 1.9 4.84 4.84 0 0 1 .601 2.673c.01.162-.01.334-.029.515Zm-4.992 4.267a.867.867 0 0 0 .124-.077 18.46 18.46 0 0 0 3.322-2.5.66.66 0 0 0 .153-.21c.067-.125.133-.259.19-.383.478-.992.583-2.024.268-3.093a4.245 4.245 0 0 0-4.602-2.997 4.098 4.098 0 0 0-1.594.534 5.053 5.053 0 0 1-3.045.65 5.038 5.038 0 0 1-2.597-1.04c-.019-.02-.048-.03-.095-.058.01.047.019.076.028.095.43 1.088.955 2.12 1.575 3.103a18.234 18.234 0 0 0 2.33 2.94 18.15 18.15 0 0 0 2.883 2.396c.477.306.926.583 1.06.64Z"/><path fill="#F7A800" d="M2.916 5.24a17.819 17.819 0 0 1 3.848-1.662 18.265 18.265 0 0 1 5.603-.763c.888.019 2.368.162 2.616.257.01.02-.01.03-.028.03-.086.037-.182.066-.268.104a5.043 5.043 0 0 0-3.016 3.723 6.123 6.123 0 0 0-.086.83c-.01.42-.048.841-.172 1.251a4.268 4.268 0 0 1-3.131 2.979A4.254 4.254 0 0 1 3.47 9.641a1.357 1.357 0 0 1-.105-.315 17.831 17.831 0 0 1-.325-1.872 17.078 17.078 0 0 1-.133-2.09c.01-.048.01-.077.01-.124Z"/><path fill="#67B2E8" d="M16.998 16.677c.019-.182.038-.344.047-.516a5.008 5.008 0 0 0-.601-2.673 4.996 4.996 0 0 0-1.804-1.9c-.067-.048-.144-.086-.21-.133-1.06-.669-1.71-1.614-1.938-2.845a4.222 4.222 0 0 1 3.168-4.88 4.211 4.211 0 0 1 2.282.077c.62.19 1.212.448 1.804.725.41.191.802.401 1.193.62.048.03.086.048.143.087 0 .038.01.066.01.105 0 .506-.029 1.021-.067 1.527a17.867 17.867 0 0 1-2.835 8.22 18.455 18.455 0 0 1-1.079 1.489c-.038.029-.057.067-.114.096Z"/><path fill="#00C4B3" d="M12.005 20.944c-.144-.058-.583-.325-1.05-.64a18.214 18.214 0 0 1-2.884-2.396 17.724 17.724 0 0 1-2.329-2.94 17.232 17.232 0 0 1-1.575-3.103c-.01-.029-.02-.048-.029-.096.048.03.067.039.096.058a4.88 4.88 0 0 0 1.069.64c.487.21.993.353 1.527.4a5.084 5.084 0 0 0 3.046-.649 4.501 4.501 0 0 1 1.594-.534 4.246 4.246 0 0 1 4.602 2.997c.315 1.06.22 2.09-.268 3.093-.066.134-.124.258-.19.382a.662.662 0 0 1-.153.21 18.461 18.461 0 0 1-3.323 2.501 1.893 1.893 0 0 1-.133.077Z"/></svg>