<svg xmlns="http://www.w3.org/2000/svg" fill="none" viewBox="0 0 24 24"><path fill="#000" d="m12.005 21.918-.115-.058A20.012 20.012 0 0 1 2.668 9.774a19.69 19.69 0 0 1-.496-2.482A22.65 22.65 0 0 1 2 4.752c0-.143-.02-.123.115-.19A19.9 19.9 0 0 1 9.55 2.099a21.45 21.45 0 0 1 2.931-.143 20.04 20.04 0 0 1 9.356 2.568c.038.019.067.038.105.057.038.019.057.048.057.095v.143c-.01.497-.028.984-.067 1.48a19.493 19.493 0 0 1-.286 2.1 19.457 19.457 0 0 1-1.356 4.325 19.767 19.767 0 0 1-4.028 5.89 19.885 19.885 0 0 1-4.096 3.199c-.057.038-.105.066-.162.105ZM2.916 5.24v.114c0 .697.048 1.403.134 2.09.076.63.181 1.251.325 1.872.028.105.057.21.105.315a4.254 4.254 0 0 0 4.811 2.348 4.252 4.252 0 0 0 3.131-2.978c.115-.41.153-.83.172-1.25a6.31 6.31 0 0 1 .086-.831 5.043 5.043 0 0 1 3.017-3.723c.086-.039.181-.067.267-.105.01-.01.029-.01.029-.03-.248-.085-1.728-.238-2.616-.257a17.94 17.94 0 0 0-5.604.764c-1.355.41-2.635.964-3.857 1.67Zm14.082 11.437a.3.3 0 0 0 .095-.096 18.065 18.065 0 0 0 3.58-7.494c.162-.735.267-1.47.334-2.215.048-.506.067-1.012.067-1.527 0-.039 0-.067-.01-.105l-.143-.086c-.391-.22-.792-.43-1.193-.62a15.48 15.48 0 0 0-1.804-.726 4.124 4.124 0 0 0-2.282-.077c-2.186.525-3.59 2.673-3.17 4.879.23 1.222.889 2.176 1.939 2.844.066.048.143.086.21.134a4.929 4.929 0 0 1 1.804 1.9c.458.83.659 1.728.601 2.673.01.162-.01.334-.028.515Zm-4.993 4.267a.868.868 0 0 0 .124-.077 18.468 18.468 0 0 0 3.322-2.5.659.659 0 0 0 .153-.21 7.08 7.08 0 0 0 .19-.383c.478-.992.583-2.024.268-3.093a4.246 4.246 0 0 0-4.601-2.997 4.097 4.097 0 0 0-1.595.534 5.053 5.053 0 0 1-3.045.65 5.038 5.038 0 0 1-2.597-1.04c-.019-.02-.047-.03-.095-.058.01.047.019.076.029.095a18.57 18.57 0 0 0 1.575 3.103 18.234 18.234 0 0 0 2.33 2.94 18.21 18.21 0 0 0 2.882 2.396c.477.306.926.583 1.06.64Z"/><path fill="#F7A800" d="M2.917 5.24a17.819 17.819 0 0 1 3.847-1.661 18.264 18.264 0 0 1 5.604-.764c.888.019 2.367.162 2.616.258.01.019-.01.028-.029.028-.086.038-.181.067-.267.105A5.043 5.043 0 0 0 11.67 6.93a6.123 6.123 0 0 0-.086.83c-.01.421-.048.841-.172 1.252a4.268 4.268 0 0 1-3.131 2.978A4.254 4.254 0 0 1 3.47 9.641a1.357 1.357 0 0 1-.105-.315 17.826 17.826 0 0 1-.324-1.872 17.078 17.078 0 0 1-.134-2.09c.01-.048.01-.077.01-.124Z"/><path fill="#67B2E8" d="M16.998 16.676c.019-.181.038-.343.047-.515a5.009 5.009 0 0 0-.601-2.673 4.997 4.997 0 0 0-1.804-1.9c-.067-.048-.144-.086-.21-.134-1.06-.668-1.71-1.613-1.938-2.845a4.222 4.222 0 0 1 3.169-4.878 4.211 4.211 0 0 1 2.282.077c.62.19 1.212.448 1.804.725.41.191.802.401 1.193.62.048.03.086.048.143.087 0 .038.01.066.01.105 0 .506-.029 1.021-.067 1.527a17.868 17.868 0 0 1-2.835 8.22 18.453 18.453 0 0 1-1.079 1.489c-.038.029-.057.067-.114.095Z"/><path fill="#00C4B3" d="M12.005 20.944c-.144-.057-.583-.325-1.05-.64a18.21 18.21 0 0 1-2.884-2.396 17.724 17.724 0 0 1-2.329-2.94 17.232 17.232 0 0 1-1.575-3.103c-.01-.029-.02-.048-.029-.095.048.028.067.038.096.057a4.88 4.88 0 0 0 1.069.64c.487.21.993.353 1.527.4a5.084 5.084 0 0 0 3.046-.649 4.501 4.501 0 0 1 1.594-.534 4.246 4.246 0 0 1 4.602 2.997c.315 1.06.22 2.091-.268 3.093-.066.134-.124.258-.19.382a.66.66 0 0 1-.153.21 18.461 18.461 0 0 1-3.456 2.578Z"/></svg>