<svg xmlns="http://www.w3.org/2000/svg" fill="none" viewBox="0 0 24 24"><path fill="#000" d="m12.005 21.918-.115-.058A20 20 0 0 1 2.668 9.774a20 20 0 0 1-.496-2.482A23 23 0 0 1 2 4.752c0-.143-.02-.123.115-.19A19.9 19.9 0 0 1 9.55 2.099a21.5 21.5 0 0 1 2.931-.143 20.04 20.04 0 0 1 9.356 2.568c.038.019.067.038.105.057s.057.048.057.095v.143c-.01.497-.028.984-.067 1.48a20 20 0 0 1-.286 2.1 19.5 19.5 0 0 1-1.356 4.325 19.8 19.8 0 0 1-4.028 5.89 20 20 0 0 1-4.096 3.199c-.057.038-.105.066-.162.105M2.916 5.24v.114c0 .697.048 1.403.134 2.09.076.63.181 1.251.325 1.872.028.105.057.21.105.315a4.254 4.254 0 0 0 4.811 2.348 4.25 4.25 0 0 0 3.131-2.978c.115-.41.153-.83.172-1.25q.015-.416.086-.831a5.04 5.04 0 0 1 3.017-3.723c.086-.039.181-.067.267-.105.01-.01.029-.01.029-.03-.248-.085-1.728-.238-2.616-.257a18 18 0 0 0-5.604.764c-1.355.41-2.635.964-3.857 1.67m14.082 11.437a.3.3 0 0 0 .095-.096 18.1 18.1 0 0 0 3.58-7.494c.162-.735.267-1.47.334-2.215.048-.506.067-1.012.067-1.527 0-.039 0-.067-.01-.105l-.143-.086c-.391-.22-.792-.43-1.193-.62a16 16 0 0 0-1.804-.726 4.1 4.1 0 0 0-2.282-.077c-2.186.525-3.59 2.673-3.17 4.879.23 1.222.889 2.176 1.939 2.844.066.048.143.086.21.134a4.93 4.93 0 0 1 1.804 1.9c.458.83.659 1.728.601 2.673.01.162-.01.334-.028.515m-4.993 4.267a1 1 0 0 0 .124-.077 18.5 18.5 0 0 0 3.322-2.5.7.7 0 0 0 .153-.21 7 7 0 0 0 .19-.383c.478-.992.583-2.024.268-3.093a4.246 4.246 0 0 0-4.601-2.997 4.1 4.1 0 0 0-1.595.534 5.05 5.05 0 0 1-3.045.65 5.04 5.04 0 0 1-2.597-1.04c-.019-.02-.047-.03-.095-.058q.014.069.029.095a18.6 18.6 0 0 0 1.575 3.103 18.2 18.2 0 0 0 2.33 2.94 18.2 18.2 0 0 0 2.882 2.396c.477.306.926.583 1.06.64"/><path fill="#F7A800" d="M2.917 5.24a17.8 17.8 0 0 1 3.847-1.661 18.3 18.3 0 0 1 5.604-.764c.888.019 2.367.162 2.616.258.01.019-.01.028-.029.028-.086.038-.181.067-.267.105A5.04 5.04 0 0 0 11.67 6.93a6 6 0 0 0-.086.83c-.01.421-.048.841-.172 1.252a4.27 4.27 0 0 1-3.131 2.978A4.254 4.254 0 0 1 3.47 9.641a1.4 1.4 0 0 1-.105-.315 18 18 0 0 1-.324-1.872 17 17 0 0 1-.134-2.09c.01-.048.01-.077.01-.124"/><path fill="#67B2E8" d="M16.998 16.676c.019-.181.038-.343.047-.515a5 5 0 0 0-.601-2.673 5 5 0 0 0-1.804-1.9c-.067-.048-.144-.086-.21-.134-1.06-.668-1.71-1.613-1.938-2.844a4.22 4.22 0 0 1 3.168-4.88 4.2 4.2 0 0 1 2.282.077c.62.19 1.212.448 1.804.725.41.191.802.401 1.193.62.048.03.086.048.143.087 0 .038.01.066.01.105 0 .506-.029 1.021-.067 1.527a17.9 17.9 0 0 1-2.835 8.22 19 19 0 0 1-1.079 1.489c-.038.029-.057.067-.114.095"/><path fill="#00C4B3" d="M12.005 20.944c-.144-.057-.583-.325-1.05-.64a18.2 18.2 0 0 1-2.884-2.396 17.7 17.7 0 0 1-2.329-2.94 17.2 17.2 0 0 1-1.575-3.103c-.01-.029-.02-.048-.029-.095.048.028.067.038.096.057a5 5 0 0 0 1.069.64c.487.21.993.353 1.527.4a5.1 5.1 0 0 0 3.046-.649 4.5 4.5 0 0 1 1.594-.534 4.246 4.246 0 0 1 4.602 2.997c.315 1.06.22 2.09-.268 3.093-.066.134-.124.258-.19.382a.7.7 0 0 1-.153.21 18.5 18.5 0 0 1-3.323 2.501 2 2 0 0 1-.133.077"/></svg>