<svg xmlns="http://www.w3.org/2000/svg" fill="none" viewBox="0 0 24 24"><g clip-path="url(#a)"><path fill="#DF42AB" d="M12 24c6.627 0 12-5.373 12-12S18.627 0 12 0 0 5.373 0 12s5.373 12 12 12Z"/><path fill="#fff" fill-rule="evenodd" d="M16.997 7.299v4.662a.285.285 0 0 1 .003.038v4.7a.3.3 0 0 1-.418.278.305.305 0 0 1-.102-.068h-.002l-4.17-4.178V16.7a.3.3 0 0 1-.298.3H7.3a.297.297 0 0 1-.3-.3v-4.701a.3.3 0 0 1 .009-.073V7.298a.3.3 0 0 1 .513-.209l4.17 4.177V7.3a.299.299 0 0 1 .3-.299h4.717a.298.298 0 0 1 .288.299Z" clip-rule="evenodd"/></g><defs><clipPath id="a"><path fill="#fff" d="M0 0h24v24H0z"/></clipPath></defs></svg>