<svg xmlns="http://www.w3.org/2000/svg" fill="none" viewBox="0 0 24 24"><path fill="#62757E" fill-rule="evenodd" d="M21.875 21.604a.833.833 0 0 1-.708.396h-10a.833.833 0 0 1-.746-1.206L12 17.637v-3.97c0-.461.373-.834.834-.834H19.5c.46 0 .834.373.834.834v3.97l1.578 3.157a.832.832 0 0 1-.037.81ZM18.703 14.5h-5.036V17h5.036v-2.5Zm.282 4.167h-5.637l-.833 1.666h7.303l-.833-1.666Zm-.206-9.175a.833.833 0 0 1-.939-.713c-.207-1.516-2.095-2.705-4.131-2.606a.836.836 0 0 1-.875-.79.833.833 0 0 1 .79-.875c2.914-.145 5.543 1.667 5.868 4.045a.834.834 0 0 1-.713.94Zm-5.2.469a.834.834 0 0 1-.745 1.206h-10a.834.834 0 0 1-.746-1.206l1.578-3.158v-3.97c0-.46.373-.833.834-.833h6.666c.46 0 .834.373.834.833v3.97l1.579 3.158ZM11.484 9.5l-.833-1.667H5.015L4.182 9.5h7.302Zm-1.15-5.833H5.332v2.5h5v-2.5ZM5.22 12.84a.835.835 0 0 1 .938.713c.206 1.517 2.098 2.705 4.132 2.606a.833.833 0 0 1 .085 1.665 6.42 6.42 0 0 1-.333.008c-2.778 0-5.225-1.765-5.535-4.054a.833.833 0 0 1 .713-.938Z" clip-rule="evenodd"/></svg>