<svg xmlns="http://www.w3.org/2000/svg" fill="none" viewBox="0 0 24 24"><path fill="#62757E" fill-rule="evenodd" d="M20.333 22h-5c-.919 0-1.666-1.005-1.666-1.915v-9.97c0-.911.747-1.472 1.666-1.472h5c.92 0 1.667.561 1.667 1.471v9.971c0 .91-.747 1.915-1.667 1.915Zm0-1.915v-9.78h-5V20.34h5v-.254ZM17 11.195h1.667c.46 0 .833.375.833.83a.833.833 0 0 1-.833.831H17a.833.833 0 0 1-.833-.83c0-.456.373-.83.833-.83Zm1.667 8.325H17v-1.65h1.667v1.65Zm-.72-12.576a.832.832 0 0 1-.94-.706c-.207-1.502-2.104-2.706-4.131-2.58-.443.044-.851-.326-.874-.782a.828.828 0 0 1 .789-.867c2.902-.144 5.542 1.65 5.868 4.005a.828.828 0 0 1-.712.93Zm-6.738 14.852a6.545 6.545 0 0 1-.336.008c-2.776 0-5.221-1.748-5.532-4.013a.827.827 0 0 1 .713-.93.831.831 0 0 1 .939.706c.205 1.503 2.1 2.702 4.131 2.58.432-.042.851.326.875.782a.829.829 0 0 1-.79.867Zm-2.542-6.44h-5c-.92 0-1.667-.963-1.667-1.872V3.512C2 2.602 2.748 2 3.667 2h5c.919 0 1.666.602 1.666 1.512v9.972c0 .91-.747 1.873-1.666 1.873Zm0-1.872V3.662h-5v10.034h5v-.212ZM5.333 4.545H7c.46 0 .833.369.833.826A.829.829 0 0 1 7 6.195H5.333a.829.829 0 0 1-.833-.824c0-.457.373-.826.833-.826ZM7 12.84H5.333v-1.65H7v1.65Z" clip-rule="evenodd"/></svg>