<svg xmlns="http://www.w3.org/2000/svg" fill="none" viewBox="0 0 24 24"><g clip-path="url(#a)"><path fill="#B3BA00" d="M12 24c6.627 0 12-5.373 12-12S18.627 0 12 0 0 5.373 0 12s5.373 12 12 12Z"/><path fill="#fff" d="m10.445 9.11-.07.042 3.25 5.015V9.148l-1.623-.94-1.557.902Zm-.07 5.688 1.699.994 1.551-.906-3.25-5.053v4.965ZM8.75 10.026v3.948l1.083.734V9.292l-1.083.734Zm5.417 4.682 1.083-.751v-3.914l-1.083-.751v5.416Z"/><path fill="#fff" d="M12 5.5A6.502 6.502 0 0 0 5.5 12c0 3.588 2.911 6.5 6.5 6.5 3.588 0 6.5-2.912 6.5-6.5 0-3.589-2.912-6.5-6.5-6.5Zm-.027 10.628-3.508-2.08V9.893l3.508-2.075 3.508 2.075v4.154l-3.508 2.079Z"/></g><defs><clipPath id="a"><path fill="#fff" d="M0 0h24v24H0z"/></clipPath></defs></svg>