<svg xmlns="http://www.w3.org/2000/svg" fill="none" viewBox="0 0 24 24"><path fill="#62757E" fill-rule="evenodd" d="m20.372 5.639-.468 1.149.596 1.702s-1.754 6.636-1.96 7.447c-.404 1.596-.681 2.213-1.831 3.021a155 155 0 0 1-3.81 2.579c-.291.199-.618.422-.919.422-.3 0-.628-.223-.92-.422a155 155 0 0 1-3.81-2.579c-1.149-.808-1.426-1.425-1.83-3.021-.206-.81-1.96-7.447-1.96-7.447l.596-1.702-.468-1.15s.596-.637 1.32-1.36 2.258-.299 2.258-.299L8.913 2h6.134l1.747 1.98s1.534-.426 2.258.297c.724.724 1.32 1.362 1.32 1.362m-4.068-.404s-1.896.361-2.151.361c-.204 0-.598-.135-1.009-.276l-.312-.107c-.511-.17-.852-.171-.852-.171s-.34.001-.852.171q-.155.052-.312.107c-.41.14-.805.276-1.009.276-.255 0-2.151-.361-2.151-.361S5.409 7.947 5.409 8.527c0 .48.194.667.421.888q.072.07.146.146l1.685 1.787.054.056c.169.17.416.418.242.83l-.036.085c-.192.448-.428 1-.127 1.56.32.595.868.992 1.22.927.351-.066 1.177-.497 1.48-.694.304-.197 1.266-.989 1.266-1.292 0-.253-.692-.674-1.028-.878-.067-.041-.12-.073-.15-.094l-.165-.103c-.307-.19-.86-.534-.874-.687-.017-.188-.01-.243.236-.707q.082-.15.178-.314c.236-.405.5-.858.441-1.183-.066-.366-.64-.576-1.128-.754l-.177-.066-.508-.19C8.1 7.662 7.56 7.46 7.47 7.419c-.123-.057-.091-.11.282-.146l.182-.019c.462-.049 1.315-.14 1.73-.024.08.023.172.047.268.073.466.126 1.037.28 1.092.37l.027.041c.053.075.087.123.029.44l-.096.506c-.129.671-.33 1.72-.355 1.956l-.012.095c-.032.263-.053.437.252.507l.08.018c.344.08.849.195 1.031.195s.687-.116 1.031-.195l.08-.018c.305-.07.284-.244.252-.507l-.012-.095c-.025-.235-.226-1.282-.354-1.953-.044-.23-.08-.415-.097-.51-.058-.316-.024-.364.028-.439q.014-.018.029-.041c.054-.09.625-.244 1.09-.37l.27-.073c.414-.115 1.267-.025 1.73.024l.18.019c.374.035.406.09.282.146-.088.041-.629.243-1.115.425h-.002l-.505.19-.177.066c-.487.178-1.062.388-1.128.754-.058.325.205.778.44 1.183q.098.165.178.314c.248.464.254.52.237.707-.014.153-.568.496-.875.687-.071.044-.129.08-.164.104-.03.02-.083.052-.15.093-.336.204-1.028.625-1.028.878 0 .303.962 1.095 1.266 1.292.303.197 1.129.628 1.48.694s.9-.332 1.22-.927c.301-.56.065-1.112-.127-1.56l-.036-.084c-.174-.413.073-.662.241-.83l.055-.057 1.685-1.787q.074-.077.146-.146c.227-.22.42-.408.42-.888 0-.58-2.246-3.292-2.246-3.292M14.62 15.61a17 17 0 0 0-.793-.42l-.382-.196c-.6-.31-1.348-.574-1.465-.574s-.865.264-1.465.574l-.377.194-.003.001-.001.001c-.402.207-.686.353-.794.42-.139.087-.054.252.073.34.126.09 1.829 1.407 1.994 1.553l.067.06c.159.143.362.326.506.326s.347-.183.506-.326l.067-.06c.165-.146 1.868-1.463 1.994-1.552.127-.09.212-.254.073-.34" clip-rule="evenodd"/></svg>