<svg xmlns="http://www.w3.org/2000/svg" fill="none" viewBox="0 0 24 24"><g clip-path="url(#a)"><path fill="#62757E" fill-rule="evenodd" d="M18.667 9.386v.947c0 3.394-2.55 6.197-5.834 6.61v3.39h3.334a.833.833 0 1 1 0 1.667H7.833a.833.833 0 1 1 0-1.667h3.334v-3.39c-3.284-.413-5.834-3.216-5.834-6.61v-.947C3.38 8.863 2 6.576 2 4.5c0-.46.373-.833.833-.833h2.5v-.834c0-.46.373-.833.834-.833h11.666c.461 0 .834.373.834.833v.834h2.5c.46 0 .833.373.833.833 0 2.076-1.38 4.363-3.333 4.886M5.333 5.333H3.774c.233.936.824 1.846 1.56 2.263zM17 3.667H7v6.666c0 2.758 2.242 5 5 5s5-2.242 5-5zm1.667 1.666v2.263c.735-.417 1.326-1.327 1.559-2.263zm-5.62 7.394H11.38a.833.833 0 1 1 0-1.667V8.905l-.244.244a.832.832 0 1 1-1.178-1.178l1.666-1.667a.835.835 0 0 1 1.423.59v4.166a.833.833 0 1 1 0 1.667" clip-rule="evenodd"/></g><defs><clipPath id="a"><path fill="#fff" d="M0 0h24v24H0z"/></clipPath></defs></svg>