<svg xmlns="http://www.w3.org/2000/svg" fill="none" viewBox="0 0 24 24"><g clip-path="url(#a)"><path fill="#62757E" d="M11.917 5.417a.64.64 0 0 0-.417.166c-.167.167-.333.167-.5.25-.25 0-.333.167-.5.334a.18.18 0 0 1-.167.166c0 .084-.083.084-.25.084-.25-.084-.25-.167-.25-.334v-.166c0-.167.084-.25.25-.334.084 0 .084-.083.167-.083 0-.083.083-.083 0-.167-.167-.083-.167-.25-.25-.333q0-.125-.25-.25c0-.083.083-.083.083-.083s0-.084-.083-.084a.76.76 0 0 1 .583-.25c.5 0 .917-.083 1.417-.25C12 4 12.333 4 12.667 4c.083 0 .166 0 .25.083.083 0 .25.084.333.084-.083 0-.083 0-.167.083-.083 0-.166.083-.25.083s-.083.084-.083.167 0 .083-.083.167q-.25.25-.5.25h-.084c.084.083.167.166.25.166-.166.084-.25 0-.333-.083 0 .083-.083.083-.083.167h.25s0 .083-.084.083c.084.083-.083.167-.166.167m-3 .333c-.084-.083-.167-.167-.167-.25-.083 0-.167-.083-.25-.167 0 0-.083-.083-.167 0h-.166c-.084-.083-.167-.083-.334 0 0 0-.083 0-.166.084l.083-.084c-.167-.083-.333 0-.417.167 0 .083-.083.083 0 .083.167 0 .417.084.584 0 .166-.083.25 0 .333.167 0 .083.083.167.083.25h-.25c-.083 0-.166.083-.25.167.167 0 .167.083.25.083.084.083.25.083.334 0l-.084-.083h.084c.083.083.166 0 .166-.084v-.166h.25c.084 0 .167 0 .167-.084 0-.083-.083-.083-.083-.083m4.666 1.667c.167 0 .334-.084.5-.084a.18.18 0 0 0 .167-.166c-.083-.084-.167-.084-.25-.167h-.083c-.167 0-.25.083-.25.167.083 0 .083 0 .166.083-.166.083-.25.083-.25.167m-4.916.333c-.084 0-.167-.083-.084-.167-.166 0-.333.167-.416.334.083 0 .166.083.25.083s.166-.083.25-.083c0 0 .083 0 .083-.084zm4.416-.5c.167 0 .417-.167.417-.417-.25 0-.417.167-.417.417m-7.5 4c0 .167-.166.083-.166.167.25.083.416 0 .666-.084-.166-.083-.333-.083-.5-.083m1.5-5.083c-.083-.084-.25 0-.25.166h.417c0-.166-.083-.166-.167-.166M4.417 11c.25.083.416.083.666.167A.65.65 0 0 0 4.417 11M7 5.5c.167-.083.25-.083.417-.167-.167-.083-.334 0-.417.167m-2.417 7c-.083 0-.166-.083-.25-.083s-.083-.084-.166-.084c0 .167.166.25.416.167m4.584-8c-.084.083-.25.083-.334.167.084 0 .25 0 .334-.167M7.083 6c.167 0 .25-.083.417-.167A.64.64 0 0 0 7.083 6m.5.167c.084 0 .167 0 .25-.084-.166 0-.166 0-.25.084M9.167 4.5c0-.083 0 0 0 0h-.334zm4.583 2.167c-.083.083-.083.083.083.166 0-.083-.083-.083-.083-.166M22 12c0 5.5-4.5 10-10 10S2 17.5 2 12 6.5 2 12 2s10 4.5 10 10m-2.583 3.667c.583-1.084.833-2.334.833-3.667v-.667l-.083.084-.084.083c-.166 0-.25.083-.333.25l-.083.083c-.25.084-.417.167-.667.25-.167.084-.25 0-.25-.166a.64.64 0 0 0-.167-.417l-.166-.167c-.084-.083-.084-.166-.167-.25 0-.166-.083-.25-.167-.333-.166-.167-.333-.333-.333-.583 0 0 0 .083-.083.166-.084-.083-.084-.166-.167-.166l.25.5c.083.166.167.25.25.416 0 0 .083.084 0 .084 0 .166.083.25.167.333a.26.26 0 0 1 .083.167c0 .083.083.166.167.25.166.083.333.25.416.5 0 .083.167.166.25.166.167 0 .25-.083.417-.166.083 0 .083 0 .167-.084-.084.5-.167.917-.584 1.167-.25.167-.416.333-.583.583-.25.25-.333.584-.167.917.084.167.084.333.084.5a.46.46 0 0 1-.25.417 1.2 1.2 0 0 0-.334.25c-.166.166-.166.25-.083.416.083.084 0 .25-.167.334H17.5c-.083.083-.167.083-.083.25v.166c-.167.167-.334.417-.5.584-.084.083-.167.083-.25.166-.167 0-.417 0-.584.084-.083 0-.166 0-.166-.167 0-.083 0-.167-.084-.25-.083-.083-.083-.167-.166-.25-.084-.083-.167-.167-.084-.333 0-.167 0-.334-.083-.5-.167-.417-.167-.5-.25-.667a.92.92 0 0 1 0-.667c0-.083.083-.083.083-.166.084-.084.084-.167 0-.334-.083-.166-.166-.333-.166-.5a.46.46 0 0 0-.25-.416c-.084-.084-.167-.25-.084-.334 0-.083.084-.166.084-.25.083-.25-.084-.416-.334-.416H14.5s-.083 0-.083-.084c-.084-.166-.167-.25-.417-.166-.083.083-.25.083-.333.166H13.5c-.167-.083-.25 0-.333 0a.253.253 0 0 1-.334 0c-.25-.083-.416-.25-.583-.583-.083-.167-.083-.25-.25-.333-.083 0-.083-.084-.083-.084.083-.083.083-.083.083-.166-.083-.084-.083-.084 0-.167l.083-.083q.126-.126 0-.25c0-.084 0-.084-.083-.167-.083-.167 0-.25 0-.333.167-.167.25-.334.417-.584.083-.083.166-.166.25-.166.083.083.166-.084.166-.25 0-.084 0-.167.084-.25l.25-.25c.083-.084.083-.084.166 0 .084 0 .167.083.25.083.084 0 .167-.083.25-.083.084-.084.25-.084.334-.167h.666c.167 0 .167 0 .084.167-.084.25 0 .25.25.333h.166c.084 0 .167.083.25.167l.084.083c.083 0 .083 0 .166.083.167 0 .167 0 .167-.166.083-.084.167-.167.25-.167s.167.083.25.083.167.084.25.084h.75a.18.18 0 0 0 .167-.167c0-.167.083-.25.083-.417s0-.166-.167-.083c-.083 0-.166.083-.25 0s-.166-.083-.333 0-.25 0-.25-.167c0-.083-.083-.166-.083-.25.166-.083.416-.166.583-.25h.083c.167 0 .334.084.417.084H18c.083 0 .167-.167.083-.25 0 0-.083-.084-.166-.084-.084 0-.167-.083-.25-.083-.084 0-.084-.083-.084-.167.25.084.25 0 .25-.083-.083.083-.25.083-.333.167.083.083.083.083.167.083-.084 0-.167.083-.167.083-.083 0-.083 0-.167-.083 0-.167-.166-.167-.25-.083-.083.083-.166.166-.166.25a.253.253 0 0 0 0 .333c-.167.083-.417 0-.584.167 0 .083.084.166.084.25s0 .166-.084.166c-.083 0-.083-.083-.166-.083v-.167h-.084a.18.18 0 0 1-.166-.166c0-.167-.084-.334-.334-.334-.083-.083-.25-.083-.333-.25 0-.083-.083 0-.083 0 .083 0 .083.084.166.084l.334.333c.083.083 0 .167-.084.25-.083.083-.333 0-.333-.083-.083-.084 0-.167.083-.25-.083-.084-.25-.167-.333-.25h-.083c-.167.083-.334.083-.5.083l-.084.083c0 .084 0 .084-.083.167-.083 0-.167.083-.167.083-.166.084-.166.084-.166.167v.167c-.084.083-.167.083-.25.166h-.5c-.25 0-.25-.083-.167-.333 0-.167.083-.25.083-.417 0 0 0-.083.084-.083h.166c.084 0 .25.083.334.083q.25 0 .25-.25c0-.166-.084-.333-.334-.416.084 0 .167-.084.25-.084a.64.64 0 0 0 .417-.166l.25-.25c.083-.084.167-.167.333-.167.084 0 .084 0 .084-.083 0-.084 0-.084-.084-.167 0-.083 0-.167.167-.167.083 0 .167.084.083.167v.083s0 .084.084.084c.083 0 .25 0 .333.083h.083c.084 0 .167-.083.334-.083q.25 0 .25-.25c0-.084 0-.084.083-.084h.167V6.5s0-.083-.084-.083c.084 0 .167 0 .25-.084.084 0 .167-.083.25-.083h-.5c-.083 0-.166 0-.25-.083-.083-.084 0-.167.084-.25v-.334h-.084c-.083 0-.083.084-.083.084-.083.083-.167.166-.25.166s-.083.084-.083.167l.083.083c.083.084.083.167 0 .167s-.083.083-.167.167c0 .083-.083.083-.083.166 0 .084-.083.084-.167.084-.083 0-.083-.084-.166-.167-.084-.25-.084-.25-.25-.083-.084 0-.167.083-.25 0-.167-.167-.084-.334.083-.417.25-.167.5-.333.75-.583.333-.334.75-.417 1.167-.334h.083c-.083-.083-.167-.083-.167-.166-.25-.167-.5-.25-.75-.417h-.166c-.167.167-.334.167-.417 0 0-.083-.083-.083-.083-.083s-.084 0-.084-.084c0-.083-.083-.083-.083-.083a8.8 8.8 0 0 0-2-.5c-1.25-.167-2.417 0-3.583.333-.334.084-.667.25-.917.334-.083.083-.167.083-.25.166v.084c-.083 0-.167.083-.25.083h-.167c-.333.25-.666.417-1 .75 0 0-.083 0-.083.083 0 0-.083.084-.167.084L6.25 6c.167 0 .333 0 .417-.167.083 0 .083-.083 0-.083v-.083c.25-.084.25-.084.333-.084 0 .084-.083.167 0 .167 0 0 .083 0 .167.083A.18.18 0 0 0 7 6c0 .083-.083.083-.167.167h-.166c.083.083.083.166 0 .166-.084 0-.167 0-.25.084 0 0-.084 0-.084.083s-.083.083-.166.167c-.084-.084-.25 0-.334.083a.18.18 0 0 0-.166.167q-.126.124 0 .25c.083 0 .083.083.166.083.167 0 .334.083.417.083v.25s0 .084.083.084H6.5s.083-.084.083-.167q.126-.25.25-.25c.084 0 .167-.083.25-.167 0 0 .084-.083.084-.166 0-.084 0-.167.083-.167.083-.083.083-.167.167-.167 0-.25.166-.25.416-.166.167.083.167.166.084.25 0 .083 0 .083.083.083s.167 0 .167-.083c.083-.084.166-.084.25-.167 0 .25.083.5.083.667h.167s.083 0 .083.083v.083l-.083.084c-.25.083-.5.25-.75.25-.167 0-.417.083-.584.166-.083 0-.166.084-.25.084V8c.084 0 .167-.083.25-.083.084-.084.167-.084.25-.084 0 .084-.083.167-.083.25.083.167.25.084.333.084a.9.9 0 0 1-.583.25c.083-.084.167-.084.25-.167-.25 0-.5.083-.667.25l-.083.083a.18.18 0 0 1-.167.167c-.333.083-.5.25-.666.417 0 0-.084 0-.084-.084v.167c0 .083-.083.25-.166.25-.167.167-.25.167-.334.25-.083.083-.25.083-.333.167-.083.083-.083.25-.167.25q-.124.124-.25 0c-.083 0-.166-.084-.166-.084-.084 0-.167 0-.25.084-.084.083-.167.083-.334.083-.083.333-.083.583-.166.917.083-.084.166-.084.333 0a4 4 0 0 0-.25.583h.417c.166 0 .166.083.166.167 0 .083-.083.166-.083.25v.166l-.083.084-.084-.084C4 12.25 4 12.167 4 12.083 3.833 12 3.75 12 3.667 12c0 2.25.916 4.333 2.416 5.833.167.167.417.334.584.5 0 0 0-.083-.084-.083-.25-.25-.25-.5-.333-.833 0-.417-.083-.917-.167-1.334-.083-.333-.25-.583-.583-.75-.167-.083-.25-.083-.25-.25 0-.083-.083-.083-.083-.166-.167-.25-.417-.584-.584-.834q-.125-.124 0-.25l.084-.083c-.084-.167-.084-.167 0-.333 0-.084.083-.084.083-.167.083-.083.083-.167.167-.25.083-.167.083-.25 0-.417V12.5c-.084 0-.167-.083-.25-.083.166 0 .25 0 .333.083.083-.167.5-.5.667-.5v.25c.166-.25.166-.25.416-.167.25.084.417.167.667.084h.083v.083l.25.25c.084.167.25.25.417.25h.25q.25 0 .25.25c0 .083 0 .25.083.333.084 0 .167 0 .25.167.25-.083.417 0 .417.167h.417c.166 0 .25.083.333.166.083.084.167.167.25.167.167.083.25.167.167.333-.084.167-.167.417-.334.584-.083.25-.083.333-.083.416v.417c0 .167-.083.333-.167.5-.083.083-.083.083-.25.083h-.166c-.084.084-.167.084-.334.167-.083 0-.083.083 0 .167.084.083 0 .166 0 .25s-.083.166-.083.166v.167c-.083.083-.083.167-.167.25-.083.167-.166.167-.333.083-.083 0-.083-.083-.167-.083l.084.083.166.167c.084.167 0 .25-.166.25H7.75c-.083 0-.083 0-.083.167v.166h-.084s-.083 0-.083-.083c0 .083.083.083.083.167.084.083.084.083 0 .166 0 .084-.083.084-.083.167v.083l.25.25c.917.584 2 .917 3.083 1.084.917.166 1.834.083 2.667-.084 1.5-.25 2.75-.916 3.917-1.916l.5-.5c.166-.167.333-.334.416-.5.167-.167.25-.334.334-.5-.167-.167-.167-.25-.084-.417 0-.083.084-.083.084-.167 0-.083.083-.25.083-.333 0-.167 0-.25.167-.25.166-.083.333-.167.416-.417.167.167.167.25.084.584M5.5 8.417s0 .083 0 0c-.083.083-.083.166-.083.166H5.5s.083 0 .083-.083c.084 0 .084-.083.167-.083l.083-.084H5.75c-.167 0-.167 0-.25-.166A.18.18 0 0 0 5.333 8c-.166 0-.333.167-.5.25h.5-.083c-.083.167-.25.25-.333.417v.166c.083 0 .083 0 .166-.083l.084-.083c.083-.084.083-.167.166-.167 0-.083.084-.167.167-.083M20 10.333c-.167.084-.333 0-.5-.166V10l-.083-.083h-.167v.166c.083.084.167.167.167.25.083.167.083.167.25.167 0 .167.083.167.25.083.083-.083.166-.083.25-.166l.083.083c0-.083 0-.167-.083-.25-.084.083-.084.083-.167.083m-.833-2.5h-.25c-.084 0-.084.084-.167.084q-.124.124 0 .25c.083.083.167.25.333.333q.126.125 0 .25c-.083.083-.083.167 0 .167.084.083.167.083.334.083.083 0 .166 0 .166-.083.084-.084 0-.167-.083-.25.083.083 0 .083-.083 0h.166s0-.084-.083-.084c0 0-.083 0-.083-.083-.084-.083-.167-.083-.25-.167 0 0-.084-.083 0-.166 0 0 .083-.084.166-.084h.084c-.167-.083-.167-.166-.25-.25M17.333 5.75h.084l-.25-.25c-.084-.083-.167-.083-.334-.083H17c-.083 0-.083-.084-.167-.084V5.5c0 .083.084.167.167.25.083 0 .167.083.333 0 .084.083 0 .083 0 0"/></g><defs><clipPath id="a"><path fill="#fff" d="M0 0h24v24H0z"/></clipPath></defs></svg>