<svg xmlns="http://www.w3.org/2000/svg" fill="none" viewBox="0 0 24 24"><g clip-path="url(#a)"><path fill="#62757E" d="M16.312 3.5c3 0 5.487 2.342 5.488 5.3 0 3.946-2.45 7.145-4.754 9.293a25.2 25.2 0 0 1-4.253 3.177 15 15 0 0 1-.385.22l-.022.011-.007.004h-.002s-.002.001-.377-.705l.375.707a.8.8 0 0 1-.751-.001l-.002-.001-.007-.004-.023-.012-.083-.046q-.107-.06-.301-.173a25.2 25.2 0 0 1-4.253-3.178C4.65 15.946 2.2 12.747 2.2 8.8c0-2.958 2.488-5.3 5.487-5.3 1.742 0 3.304.785 4.313 2.021A5.55 5.55 0 0 1 16.312 3.5M7.687 5.1C5.51 5.1 3.8 6.787 3.8 8.8c0 3.274 2.05 6.076 4.246 8.123A23.6 23.6 0 0 0 12 19.88c.234-.138.566-.341.964-.606a25 25 0 0 0 .942-.66l-1.762-1.603a.84.84 0 0 1 0-1.19.84.84 0 0 1 1.188 0l1.816 1.816q.4-.338.807-.714.31-.291.613-.6l-1.88-1.86a.843.843 0 0 1 0-1.19.84.84 0 0 1 1.187 0l1.814 1.794c.406-.502.784-1.033 1.116-1.59l-1.828-1.817a2.397 2.397 0 0 0-3.391 0l-1.017 1.02a2.636 2.636 0 0 1-3.73 0l-.553-.554a1.863 1.863 0 0 1 0-2.63l2.678-2.684C10.277 5.79 9.074 5.1 7.687 5.1m8.625 0c-1.622 0-2.995.943-3.58 2.258a.8.8 0 0 1-.25.31l-3.009 3.017a.18.18 0 0 0-.052.125q.002.074.052.127l.552.553a.96.96 0 0 0 1.357 0l1.017-1.02a4.074 4.074 0 0 1 5.765 0l1.425 1.428c.383-.973.611-2.01.611-3.098 0-2.013-1.71-3.7-3.888-3.7"/></g><defs><clipPath id="a"><path fill="#fff" d="M0 0h24v24H0z"/></clipPath></defs></svg>