<svg xmlns="http://www.w3.org/2000/svg" fill="none" viewBox="0 0 24 24"><path fill="#667489" fill-rule="evenodd" d="m19.904 6.788.468-1.15s-.596-.637-1.32-1.36c-.725-.724-2.258-.299-2.258-.299L15.047 2H8.912L7.166 3.98s-1.534-.426-2.258.297c-.724.724-1.32 1.362-1.32 1.362l.468 1.149-.597 1.702s1.755 6.636 1.96 7.447c.405 1.596.682 2.213 1.832 3.021 1.15.809 3.238 2.213 3.578 2.426.341.212.767.575 1.15.575.384 0 .81-.363 1.15-.575.342-.213 2.43-1.617 3.58-2.426 1.15-.808 1.427-1.425 1.831-3.021.206-.81 1.96-7.447 1.96-7.447l-.596-1.702Z" clip-rule="evenodd"/><path fill="#fff" d="M14.152 5.596c.256 0 2.152-.361 2.152-.361s2.247 2.712 2.247 3.292c0 .48-.194.667-.421.888a4.019 4.019 0 0 0-.146.146l-1.685 1.787a3.049 3.049 0 0 1-.055.056c-.168.17-.415.418-.24.83.01.028.023.057.035.085.192.447.428 1 .127 1.56-.32.595-.869.992-1.22.927-.351-.066-1.177-.497-1.48-.694-.304-.197-1.266-.989-1.266-1.292 0-.253.692-.674 1.028-.878.067-.04.12-.073.15-.094l.164-.103c.307-.19.861-.534.875-.687.017-.188.01-.243-.237-.707-.052-.099-.114-.205-.177-.314-.236-.405-.5-.858-.441-1.183.066-.366.64-.576 1.128-.754l.177-.066.507-.19c.486-.182 1.026-.384 1.115-.425.124-.057.092-.11-.282-.146a17.4 17.4 0 0 1-.181-.019c-.462-.049-1.315-.14-1.73-.024l-.268.073c-.466.126-1.037.28-1.092.37a.795.795 0 0 1-.028.041c-.052.075-.086.123-.028.44l.096.509c.13.67.33 1.718.355 1.953l.011.095c.032.263.054.437-.251.507l-.08.018c-.344.08-.849.195-1.031.195-.183 0-.688-.116-1.032-.195a81.197 81.197 0 0 1-.08-.018c-.304-.07-.283-.244-.25-.507l.01-.095c.026-.235.227-1.285.356-1.956l.096-.506c.058-.317.024-.365-.029-.44l-.028-.041c-.054-.09-.625-.244-1.091-.37a39.11 39.11 0 0 1-.269-.073c-.414-.115-1.267-.025-1.73.024l-.18.019c-.374.035-.406.09-.283.146.09.041.63.243 1.115.425l.508.19.177.066c.487.178 1.062.388 1.128.754.058.325-.205.778-.44 1.183a8.74 8.74 0 0 0-.179.314c-.247.464-.254.52-.236.707.013.152.567.496.874.687.072.044.13.08.165.104.03.02.083.052.15.093.336.204 1.028.625 1.028.878 0 .303-.962 1.095-1.266 1.292-.303.197-1.129.628-1.48.694-.352.066-.9-.332-1.22-.927-.301-.56-.065-1.112.127-1.56l.035-.084c.175-.413-.072-.662-.24-.83a2.836 2.836 0 0 1-.056-.057L5.976 9.561c-.05-.052-.098-.1-.146-.146-.228-.22-.42-.408-.42-.888 0-.58 2.246-3.292 2.246-3.292s1.896.361 2.151.361c.204 0 .598-.135 1.008-.276l.313-.107c.511-.17.852-.171.852-.171s.34.001.852.171c.103.035.208.07.312.107.41.14.804.276 1.008.276Z"/><path fill="#fff" d="M13.827 15.192c.4.206.685.352.793.42.139.086.054.25-.073.34-.127.09-1.829 1.406-1.994 1.552a1.637 1.637 0 0 0-.067.06c-.16.143-.362.326-.506.326-.144 0-.347-.183-.507-.327l-.066-.06a103.465 103.465 0 0 0-1.995-1.551c-.126-.09-.211-.254-.072-.34.108-.068.392-.214.793-.42l.382-.197c.6-.31 1.348-.574 1.465-.574.117 0 .865.264 1.465.574l.382.197Z"/><path fill="#667489" fill-rule="evenodd" d="M16.794 3.98 15.047 2H8.913L7.166 3.98s-1.534-.426-2.258.297c0 0 2.045-.184 2.748.958 0 0 1.896.361 2.151.361.256 0 .81-.212 1.321-.383.511-.17.852-.171.852-.171s.34.001.852.171c.511.17 1.065.383 1.32.383.256 0 2.152-.361 2.152-.361.703-1.142 2.748-.958 2.748-.958-.724-.723-2.258-.298-2.258-.298Z" clip-rule="evenodd"/></svg>