<svg xmlns="http://www.w3.org/2000/svg" fill="none" viewBox="0 0 24 24"><g clip-path="url(#a)"><path fill="#62757E" fill-rule="evenodd" d="M12 22C6.486 22 2 17.514 2 12S6.486 2 12 2s10 4.486 10 10-4.486 10-10 10Zm-6.667-5.032a8.132 8.132 0 0 0 1.621-4.135H3.71a8.273 8.273 0 0 0 1.624 4.135Zm1.621-5.801a8.141 8.141 0 0 0-1.621-4.135 8.272 8.272 0 0 0-1.624 4.135h3.245Zm4.213-7.459C9.37 3.888 7.758 4.66 6.48 5.8a9.792 9.792 0 0 1 2.142 5.368h2.545v-7.46Zm0 9.125H8.622a9.797 9.797 0 0 1-2.14 5.37c1.277 1.138 2.889 1.909 4.685 2.088v-7.458Zm9.123 0h-3.245a8.144 8.144 0 0 0 1.622 4.135 8.264 8.264 0 0 0 1.623-4.135Zm-7.457 7.458c1.796-.18 3.408-.951 4.686-2.09a9.788 9.788 0 0 1-2.14-5.368h-2.546v7.458Zm0-16.583v7.459h2.545a9.787 9.787 0 0 1 2.141-5.369c-1.278-1.139-2.89-1.91-4.686-2.09Zm5.835 3.324a8.137 8.137 0 0 0-1.623 4.135h3.245a8.264 8.264 0 0 0-1.622-4.135Z" clip-rule="evenodd"/></g><defs><clipPath id="a"><path fill="#fff" d="M0 0h24v24H0z"/></clipPath></defs></svg>