<svg xmlns="http://www.w3.org/2000/svg" fill="none" viewBox="0 0 24 24"><g clip-path="url(#a)"><path fill="#62757E" d="M12 2.2c5.412 0 9.8 4.387 9.8 9.8 0 5.412-4.388 9.8-9.8 9.8S2.2 17.412 2.2 12 6.588 2.2 12 2.2m0 1.6a8.2 8.2 0 1 0 0 16.4 8.2 8.2 0 0 0 0-16.4m2.616 10.816a.8.8 0 0 1 1.132 1.132 5.3 5.3 0 0 1-7.495 0 .8.8 0 0 1 1.13-1.132 3.7 3.7 0 0 0 5.233 0M9.375 8.2c.57 0 .87.441.98.662.134.269.194.583.195.888a2 2 0 0 1-.195.888c-.11.221-.41.662-.98.662s-.87-.44-.98-.662A2 2 0 0 1 8.2 9.75c0-.305.06-.62.194-.888.11-.22.411-.662.98-.662m5.25 0c.57 0 .87.441.98.662.134.269.194.583.195.888a2 2 0 0 1-.195.888c-.11.221-.41.662-.98.662s-.87-.44-.98-.662a2 2 0 0 1-.195-.888c0-.305.06-.62.194-.888.11-.22.411-.662.98-.662"/></g><defs><clipPath id="a"><path fill="#fff" d="M0 0h24v24H0z"/></clipPath></defs></svg>