<svg xmlns="http://www.w3.org/2000/svg" fill="none" viewBox="0 0 24 24"><path fill="#62757E" fill-rule="evenodd" d="M10.746 4.837V9.31c0 .757-.3 1.483-.836 2.018l-1.957 1.957a9.1 9.1 0 0 1 4.405.953c1.585.792 3.42 1 5.135.571l.062-.016-3.465-3.465a2.85 2.85 0 0 1-.836-2.018V4.837a22 22 0 0 0-2.508 0m4.108.124a.8.8 0 0 0-.016-1.585A23 23 0 0 0 12 3.2a23 23 0 0 0-2.837.176.8.8 0 0 0-.017 1.585v4.35c0 .332-.132.651-.367.887l-5.745 5.744c-1.54 1.54-.863 4.264 1.405 4.651a45 45 0 0 0 7.561.638 45 45 0 0 0 7.561-.638c2.268-.387 2.945-3.111 1.405-4.65l-5.745-5.745a1.25 1.25 0 0 1-.367-.887zm4.02 11.153-.993.248a9.07 9.07 0 0 1-6.239-.692 7.48 7.48 0 0 0-5.135-.572l-.488.122-1.853 1.854c-.71.709-.325 1.794.542 1.942 2.37.404 4.806.615 7.292.615s4.922-.21 7.292-.615c.867-.148 1.252-1.233.542-1.942z" clip-rule="evenodd"/></svg>