<svg xmlns="http://www.w3.org/2000/svg" fill="none" viewBox="0 0 24 24"><g clip-path="url(#a)"><path fill="currentColor" fill-rule="evenodd" d="M3.8 8.25c0-2.013 1.71-3.7 3.888-3.7 1.387 0 2.592.69 3.278 1.711l-2.68 2.685a1.862 1.862 0 0 0 0 2.63l.553.553a2.635 2.635 0 0 0 3.73 0l1.017-1.019a2.396 2.396 0 0 1 3.391 0l1.832 1.819c-.333.557-.71 1.089-1.117 1.591l-1.817-1.796a.838.838 0 0 0-1.187 0 .842.842 0 0 0 0 1.189l1.882 1.86a19.205 19.205 0 0 1-1.421 1.314l-1.817-1.815a.838.838 0 0 0-1.187 0 .842.842 0 0 0 0 1.189l1.763 1.603c-.34.25-.659.47-.944.66-.398.264-.73.468-.964.606a23.624 23.624 0 0 1-3.955-2.957C5.85 14.325 3.8 11.523 3.8 8.25Zm15.79 3.1c.384-.974.61-2.011.61-3.1 0-2.013-1.71-3.7-3.887-3.7-1.623 0-2.996.943-3.582 2.259a.8.8 0 0 1-.259.32l-2.999 3.006a.179.179 0 0 0 0 .252l.553.553a.959.959 0 0 0 1.356 0l1.017-1.019a4.073 4.073 0 0 1 5.765 0l1.426 1.429Zm-7.966 9.606L12 20.25l.375.707a.801.801 0 0 1-.75 0Zm0 0L12 20.25c.375.707.377.706.377.706l.002-.001.006-.004.023-.012.083-.046c.07-.04.173-.097.302-.173a25.22 25.22 0 0 0 4.253-3.177C19.35 15.395 21.8 12.196 21.8 8.25c0-2.958-2.488-5.3-5.487-5.3A5.552 5.552 0 0 0 12 4.972 5.552 5.552 0 0 0 7.688 2.95c-3 0-5.488 2.342-5.488 5.3 0 3.946 2.45 7.145 4.755 9.293a25.22 25.22 0 0 0 4.253 3.177 15.464 15.464 0 0 0 .384.219l.023.012.007.004.002.001Z" clip-rule="evenodd"/></g><defs><clipPath id="a"><path fill="#fff" d="M0 0h24v24H0z"/></clipPath></defs></svg>