<svg xmlns="http://www.w3.org/2000/svg" fill="none" viewBox="0 0 24 24"><path fill="currentColor" fill-rule="evenodd" d="M17.625 4.023c.586 0 1.082.372 1.259.894L21 11.012v8.147a.82.82 0 0 1-.818.818h-1.023a.821.821 0 0 1-.818-.818v-1.227H5.659v1.227a.82.82 0 0 1-.818.818H3.818A.821.821 0 0 1 3 19.16v-8.147L5.116 4.92a1.333 1.333 0 0 1 1.259-.896h11.25Zm1.024 5.226-1.247-3.59H6.587L5.341 9.25h13.308ZM4.636 10.773v5.522h14.728v-5.522H4.636Zm4.091 2.761a1.33 1.33 0 1 1-2.659 0 1.33 1.33 0 0 1 2.66 0Zm9.205 0a1.33 1.33 0 1 1-2.66 0 1.33 1.33 0 0 1 2.66 0Z" clip-rule="evenodd"/></svg>