<svg xmlns="http://www.w3.org/2000/svg" fill="none" viewBox="0 0 24 24"><g clip-path="url(#a)"><path fill="#62757E" d="M12 2c4.833 0 9 3.417 9.833 8.25.083.5-.25.916-.666 1a.865.865 0 0 1-1-.667c0-.166-.084-.25-.084-.416h-4.25c0 .083.084.167.084.333 0 .417-.333.834-.75.917h-.084c-.416 0-.75-.334-.833-.75 0-.25-.083-.417-.083-.584h-4.5c-.167 1.083-.25 2.167-.084 3.417 0 .167.084.333.084.5H12c.5 0 .833.333.833.833s-.333.834-.833.834h-1.917c.5 2 1.5 3.583 2.334 4.666.417 0 .833-.083 1.25-.166.5-.083.917.25 1 .666.083.5-.25.917-.667 1-.667.083-1.333.167-2 .167-5.5 0-10-4.5-10-10S6.5 2 12 2m6.25 9.981c2.172 0 3.75 1.621 3.75 3.854 0 3.096-3.068 5.839-3.198 5.954a.835.835 0 0 1-1.104 0c-.13-.115-3.198-2.858-3.198-5.954 0-2.233 1.578-3.854 3.75-3.854M4.583 15.667c1.083 2.25 3.167 3.917 5.667 4.5a14.1 14.1 0 0 1-1.917-4.5zm13.667-2.02c-1.266 0-2.083.86-2.083 2.188 0 1.562 1.218 3.223 2.08 4.155.773-.832 2.086-2.494 2.086-4.155 0-1.329-.817-2.187-2.083-2.187M3.917 10.084A7 7 0 0 0 3.667 12q0 1 .25 2H8c-.083-.083-.083-.25-.083-.333-.167-1.25-.084-2.5.083-3.584zm6.333-6.25c-2.5.583-4.667 2.25-5.75 4.584h3.833C8.75 6.5 9.583 5 10.25 3.833m1.75.5c-.667 1-1.417 2.334-1.917 4.084h3.834c-.5-1.75-1.25-3.167-1.917-4.084m1.5-.5c.75 1.083 1.5 2.667 2 4.584h4c-1.083-2.417-3.333-4.084-6-4.584"/></g><defs><clipPath id="a"><path fill="#fff" d="M0 0h24v24H0z"/></clipPath></defs></svg>