<svg xmlns="http://www.w3.org/2000/svg" fill="none" viewBox="0 0 24 24"><path fill="#62757E" fill-rule="evenodd" d="M12.208 2.026a.863.863 0 0 1 .628 1.046l-.537 2.15a.863.863 0 0 1-1.674-.418l.537-2.15a.863.863 0 0 1 1.046-.628M5.012 2c.476 0 .863.387.863.863v.212h.212a.863.863 0 1 1 0 1.726h-.212v.212a.863.863 0 1 1-1.726 0v-.212h-.212a.863.863 0 1 1 0-1.726h.212v-.212c0-.476.386-.863.863-.863m15.05 0c.476 0 .862.387.862.863v.212h.212a.863.863 0 1 1 0 1.726h-.212v.212a.863.863 0 1 1-1.726 0v-.212h-.212a.863.863 0 1 1 0-1.726h.212v-.212c0-.476.387-.863.863-.863m-3.69 5.628a.863.863 0 0 1 0 1.22l-1.075 1.075a.863.863 0 0 1-1.22-1.22l1.074-1.075a.863.863 0 0 1 1.22 0m-8.845.836a.86.86 0 0 1 .763.239l7.007 7.006a.863.863 0 0 1-.25 1.395l-10.3 4.72a1.94 1.94 0 0 1-2.571-2.571v-.002l4.72-10.298a.86.86 0 0 1 .631-.49m.42 2.337-4.199 9.17a.22.22 0 0 0 .043.241.215.215 0 0 0 .242.044l9.168-4.203zm14.026.99a.863.863 0 0 1-.627 1.047l-2.15.537a.863.863 0 0 1-.419-1.674l2.15-.538a.863.863 0 0 1 1.046.628m-1.912 5.259c.477 0 .863.386.863.863v.212h.212a.863.863 0 0 1 0 1.726h-.212v.212a.863.863 0 1 1-1.726 0v-.212h-.212a.863.863 0 0 1 0-1.726h.212v-.212c0-.477.387-.863.863-.863" clip-rule="evenodd"/></svg>