<svg xmlns="http://www.w3.org/2000/svg" fill="none" viewBox="0 0 24 24"><g fill="#62757E" fill-rule="evenodd" clip-path="url(#a)" clip-rule="evenodd"><path d="M12.296 7.252a3.068 3.068 0 1 0 0 6.136 3.068 3.068 0 0 0 0-6.136m-1.478 3.068a1.477 1.477 0 1 1 2.955 0 1.477 1.477 0 0 1-2.955 0"/><path d="M12.296 2C7.685 2 4 5.859 4 10.553c0 2.403 1.406 5.233 3.002 7.392.811 1.099 1.711 2.08 2.582 2.795.435.358.88.664 1.317.883.428.216.905.377 1.389.377.972 0 1.965-.563 2.821-1.255.892-.72 1.788-1.706 2.585-2.807 1.57-2.17 2.895-4.995 2.895-7.385C20.59 5.859 16.906 2 12.296 2m-6.478 8.553c0-3.75 2.93-6.735 6.478-6.735s6.477 2.986 6.477 6.735c0 1.831-1.073 4.276-2.55 6.32-.727 1.004-1.517 1.862-2.254 2.458-.774.625-1.353.85-1.68.85-.093 0-.28-.035-.571-.182a5.5 5.5 0 0 1-.979-.663c-.73-.6-1.53-1.463-2.275-2.471-1.517-2.054-2.646-4.494-2.646-6.312"/></g><defs><clipPath id="a"><path fill="#fff" d="M0 0h24v24H0z"/></clipPath></defs></svg>