<svg xmlns="http://www.w3.org/2000/svg" fill="none" viewBox="0 0 24 24"><g clip-path="url(#a)"><path fill="#62757E" fill-rule="evenodd" d="m21.97 5.717-1.223 4.006a.834.834 0 0 1-.802.619h-1.278v10.96c0 .467-.273.698-.734.698H6.187c-.46 0-.854-.23-.854-.697V10.342H4.055a.834.834 0 0 1-.803-.62L2.03 5.702a.846.846 0 0 1 .421-.972l4.888-2.557a.83.83 0 0 1 1.052.247c.015.02 1.604 2.135 3.609 2.135 1.98 0 3.586-2.182 3.601-2.204a.83.83 0 0 1 1.071-.251l4.889 2.649a.85.85 0 0 1 .409.968M16.484 3.91c-.766.849-2.4 2.33-4.484 2.33S8.282 4.8 7.519 3.979L3.815 5.914l.876 2.742h1.475c.46 0 .834.377.834.842l.026 10.842h10.069V9.87A.8.8 0 0 1 17 9.5c0-.466.373-.843.834-.843h1.476l.877-2.74z" clip-rule="evenodd"/></g><defs><clipPath id="a"><path fill="#fff" d="M0 0h24v24H0z"/></clipPath></defs></svg>