<svg xmlns="http://www.w3.org/2000/svg" fill="none" viewBox="0 0 24 24"><g clip-path="url(#a)"><path fill="#62757E" fill-rule="evenodd" d="M12 22C6.486 22 2 17.514 2 12S6.486 2 12 2s10 4.486 10 10-4.486 10-10 10m-6.667-5.032a8.13 8.13 0 0 0 1.621-4.135H3.71a8.27 8.27 0 0 0 1.624 4.135m1.621-5.801a8.14 8.14 0 0 0-1.621-4.134 8.27 8.27 0 0 0-1.624 4.134zm4.213-7.459c-1.798.18-3.41.952-4.688 2.092a9.8 9.8 0 0 1 2.142 5.368h2.545zm0 9.125H8.622a9.8 9.8 0 0 1-2.14 5.37c1.277 1.138 2.889 1.909 4.685 2.088zm9.123 0h-3.245a8.14 8.14 0 0 0 1.622 4.135 8.26 8.26 0 0 0 1.623-4.135m-7.457 7.458c1.796-.18 3.408-.951 4.686-2.09a9.8 9.8 0 0 1-2.14-5.368h-2.546zm0-16.583v7.459h2.545a9.8 9.8 0 0 1 2.141-5.369c-1.278-1.139-2.89-1.91-4.686-2.09m5.835 3.324a8.14 8.14 0 0 0-1.623 4.135h3.245a8.26 8.26 0 0 0-1.622-4.135" clip-rule="evenodd"/></g><defs><clipPath id="a"><path fill="#fff" d="M0 0h24v24H0z"/></clipPath></defs></svg>