<svg xmlns="http://www.w3.org/2000/svg" fill="none" viewBox="0 0 24 24"><path fill="#62757E" fill-rule="evenodd" d="M2.2 3a.8.8 0 0 1 .8-.8h12a.8.8 0 0 1 .05 1.598V6.7H21a.8.8 0 0 1 .05 1.598V21a.8.8 0 0 1-.8.8H3.75a.8.8 0 0 1-.8-.8V3.798A.8.8 0 0 1 2.2 3Zm2.35.8v16.4h1.4v-2.575c0-1.063.862-1.925 1.925-1.925h2.25c1.063 0 1.925.862 1.925 1.925V20.2h1.4V3.8h-8.9Zm10.5 4.5v11.9h4.4V8.3h-4.4Zm-4.6 11.9v-2.575a.325.325 0 0 0-.325-.325h-2.25a.325.325 0 0 0-.325.325V20.2h2.9ZM5.95 6.75a.8.8 0 0 1 .8-.8h.75a.8.8 0 1 1 0 1.6h-.75a.8.8 0 0 1-.8-.8Zm3.75 0a.8.8 0 0 1 .8-.8h.75a.8.8 0 0 1 0 1.6h-.75a.8.8 0 0 1-.8-.8Zm-3.75 3a.8.8 0 0 1 .8-.8h.75a.8.8 0 1 1 0 1.6h-.75a.8.8 0 0 1-.8-.8Zm3.75 0a.8.8 0 0 1 .8-.8h.75a.8.8 0 0 1 0 1.6h-.75a.8.8 0 0 1-.8-.8Zm6.75 1.5a.8.8 0 0 1 .8-.8h.008a.8.8 0 0 1 .8.8v.008a.8.8 0 0 1-.8.8h-.008a.8.8 0 0 1-.8-.8v-.008Zm-10.5 1.5a.8.8 0 0 1 .8-.8h.75a.8.8 0 0 1 0 1.6h-.75a.8.8 0 0 1-.8-.8Zm3.75 0a.8.8 0 0 1 .8-.8h.75a.8.8 0 0 1 0 1.6h-.75a.8.8 0 0 1-.8-.8Zm6.75 1.5a.8.8 0 0 1 .8-.8h.008a.8.8 0 0 1 .8.8v.008a.8.8 0 0 1-.8.8h-.008a.8.8 0 0 1-.8-.8v-.008Zm0 3a.8.8 0 0 1 .8-.8h.008a.8.8 0 0 1 .8.8v.008a.8.8 0 0 1-.8.8h-.008a.8.8 0 0 1-.8-.8v-.008Z" clip-rule="evenodd"/></svg>