<svg xmlns="http://www.w3.org/2000/svg" fill="none" viewBox="0 0 24 24"><path fill="#62757E" fill-rule="evenodd" d="M17.625 4.023c.586 0 1.081.372 1.258.894L21 11.012v8.147c0 .45-.37.818-.819.818H19.16a.82.82 0 0 1-.819-.818v-1.227H5.66v1.227c0 .45-.369.818-.819.818H3.818A.82.82 0 0 1 3 19.16v-8.147L5.115 4.92a1.33 1.33 0 0 1 1.26-.896zm1.023 5.226-1.246-3.59H6.587L5.34 9.25zM4.636 10.773v5.522h14.727v-5.522zm4.09 2.761a1.33 1.33 0 1 1-2.658 0 1.33 1.33 0 0 1 2.659 0m9.205 0a1.33 1.33 0 1 1-2.659 0 1.33 1.33 0 0 1 2.66 0" clip-rule="evenodd"/></svg>