<svg xmlns="http://www.w3.org/2000/svg" fill="none" viewBox="0 0 24 24"><path fill="#62757E" fill-rule="evenodd" d="M22 17.189c0 1.83-1.87 3.317-4.167 3.317s-4.166-1.487-4.166-3.317c0-1.837 1.869-3.33 4.166-3.33.976 0 1.864.28 2.575.732V4.843L10.333 6.98v12.353c0 .046-.018.085-.026.129.006.074.028.144.028.22 0 1.829-1.87 3.317-4.167 3.317C3.87 23 2 21.512 2 19.683c0-1.838 1.87-3.331 4.168-3.331.956 0 1.827.268 2.531.703V6.45c0-.392.243-.873.628-.955l11.667-2.476c.3-.067.59.051.784.266l.028.028q.041.05.073.11a.6.6 0 0 1 .083.191c.005.016.016.028.02.044.006.025-.002.048 0 .072.005.035.018.064.018.101v13.296l-.005.024c0 .013.005.025.005.038m-15.832.824c-1.355 0-2.501.765-2.501 1.67 0 .897 1.146 1.654 2.501 1.654s2.5-.757 2.5-1.654c0-.905-1.145-1.67-2.5-1.67m11.665-2.492c-1.354 0-2.5.764-2.5 1.668 0 .898 1.146 1.656 2.5 1.656s2.5-.758 2.5-1.656c0-.904-1.145-1.668-2.5-1.668" clip-rule="evenodd"/></svg>