<svg xmlns="http://www.w3.org/2000/svg" fill="none" viewBox="0 0 24 24"><path fill="#62757E" d="m15.048 2 1.746 1.98s1.533-.426 2.258.297a63 63 0 0 1 1.32 1.362l-.468 1.15.596 1.701c-.014.054-1.754 6.638-1.96 7.447-.404 1.595-.681 2.213-1.831 3.021s-3.237 2.213-3.578 2.426c-.341.212-.767.575-1.15.575-.384 0-.81-.362-1.151-.575s-2.428-1.617-3.578-2.426c-1.15-.808-1.428-1.426-1.832-3.021-.205-.81-1.949-7.403-1.96-7.447l.596-1.702-.468-1.15c.012-.012.603-.645 1.32-1.36.72-.72 2.238-.304 2.258-.299L8.913 2zM11.98 14.42c-.117 0-.865.265-1.466.575l-.38.196c-.401.207-.686.353-.793.42-.14.087-.055.252.072.341a100 100 0 0 1 1.994 1.552l.066.06c.16.143.363.326.507.326s.347-.183.506-.326l.067-.06c.166-.146 1.868-1.462 1.995-1.552.126-.09.21-.254.072-.34a16 16 0 0 0-.793-.42l-.382-.197c-.6-.31-1.347-.574-1.465-.574m0-9.378s-.341.002-.852.172l-.312.105c-.41.142-.805.278-1.009.278-.255 0-2.151-.363-2.151-.363S5.409 7.948 5.409 8.527c0 .48.193.667.42.888q.073.068.147.147l1.685 1.787.055.055c.168.17.416.418.24.831q-.016.042-.035.084c-.192.448-.428 1-.127 1.56.32.595.868.992 1.22.927.35-.066 1.176-.497 1.48-.694.303-.197 1.265-.99 1.265-1.293 0-.253-.692-.673-1.028-.878l-.15-.092a4 4 0 0 0-.163-.104c-.307-.19-.86-.534-.875-.686-.017-.188-.011-.244.236-.708q.08-.15.178-.314c.235-.405.5-.858.441-1.183-.066-.366-.64-.576-1.128-.754l-.177-.066-.507-.19C8.1 7.662 7.56 7.46 7.47 7.419c-.123-.057-.09-.111.283-.147l.18-.018c.463-.05 1.315-.139 1.73-.024l.27.074c.465.126 1.035.28 1.09.369l.029.042c.052.074.086.123.028.44l-.096.505c-.129.671-.33 1.72-.355 1.956l-.011.095c-.032.262-.054.437.25.507l.08.018c.344.08.85.195 1.032.195s.687-.116 1.031-.195l.08-.018c.305-.07.284-.245.252-.507q-.007-.045-.012-.095c-.025-.235-.226-1.282-.355-1.953-.044-.229-.08-.414-.096-.509-.058-.316-.024-.365.029-.44l.027-.041c.055-.09.626-.243 1.092-.37q.145-.038.269-.073c.414-.115 1.267-.025 1.73.024l.18.018c.374.036.406.09.283.147-.09.041-.63.243-1.116.425l-.507.19-.178.066c-.487.178-1.06.388-1.127.754-.058.325.205.778.44 1.183q.098.165.178.314c.248.464.254.52.237.708-.015.152-.568.496-.874.686-.072.044-.13.08-.164.104-.03.02-.084.052-.15.092-.337.205-1.028.625-1.029.878 0 .303.962 1.096 1.266 1.293.303.197 1.129.628 1.48.694s.9-.332 1.22-.927c.3-.56.064-1.112-.127-1.56l-.035-.084c-.175-.412.072-.662.24-.83l.056-.056 1.684-1.787a5 5 0 0 1 .146-.147c.227-.22.42-.408.42-.888 0-.578-2.236-3.281-2.246-3.293 0 0-1.894.362-2.15.363-.205 0-.6-.136-1.01-.278l-.312-.105c-.503-.168-.841-.172-.852-.172"/></svg>