<svg xmlns="http://www.w3.org/2000/svg" fill="none" viewBox="0 0 24 24"><path fill="#62757E" fill-rule="evenodd" d="M15.936 21.333h3.793c1.253 0 2.27-.985 2.27-2.196v-8.94C22 8.987 20.983 8 19.73 8h-.537l-.04-.001h-1.344a.833.833 0 0 0 0 1.665h.9v.003h1.021c.328 0 .605.243.605.53v8.94c0 .286-.277.53-.605.53h-3.793c-.327 0-.602-.244-.602-.53v-2.63h-.002v-.999a.832.832 0 0 0-1.664 0v.999h-.002v2.63c0 1.211 1.018 2.196 2.27 2.196M17 17.167h1.667v1.666H17zm.833-5a.88.88 0 0 1-.591-.242.86.86 0 0 1-.242-.592c0-.216.092-.433.242-.591.308-.309.875-.309 1.183 0 .15.158.242.375.242.591a.88.88 0 0 1-.242.592.88.88 0 0 1-.592.242m1.667-5a.833.833 0 0 1-.833-.834V4.667H4.5v10H12a.833.833 0 1 1 0 1.666H3.667v.834H12a.833.833 0 1 1 0 1.666H3.46A1.46 1.46 0 0 1 2 17.375V15.5c0-.46.373-.833.833-.833V4.482C2.833 3.665 3.48 3 4.275 3h14.617c.795 0 1.441.665 1.441 1.482v1.851a.833.833 0 0 1-.833.834m-7.096-.397a.437.437 0 0 0-.808 0l-.694 1.669-1.802.144a.438.438 0 0 0-.25.769l1.373 1.175-.42 1.758a.437.437 0 0 0 .654.475L12 11.818l1.542.942a.437.437 0 0 0 .654-.475l-.42-1.758 1.373-1.175a.437.437 0 0 0-.25-.769l-1.801-.144z" clip-rule="evenodd"/></svg>