<svg xmlns="http://www.w3.org/2000/svg" fill="none" viewBox="0 0 24 24"><g clip-path="url(#a)"><path fill="#1A4199" d="M12 24c6.627 0 12-5.373 12-12S18.627 0 12 0 0 5.373 0 12s5.373 12 12 12Z"/><path fill="#fff" d="m9.111 6.875 5.883 3.393v3.464L6 8.538l2.886-1.663a.23.23 0 0 1 .23 0" opacity=".7"/><path fill="#fff" d="m14.994 6.806-2.997 1.732 2.997 1.73V6.806Z" opacity=".9"/><path fill="#fff" d="m14.994 6.806 2.885 1.664a.23.23 0 0 1 .12.201v6.791l-3.005-1.73V6.806Z"/><path fill="#fff" d="m17.994 15.463-2.886 1.662a.24.24 0 0 1-.23 0l-5.882-3.393v-3.469l8.998 5.2Z" opacity=".9"/><path fill="#fff" d="M6 8.538v6.79a.23.23 0 0 0 .12.202l2.887 1.664v-6.93L6 8.537Z" opacity=".6"/><path fill="#fff" d="m9.001 17.193 2.996-1.73-2.996-1.731v3.461Z" opacity=".7"/></g><defs><clipPath id="a"><path fill="#fff" d="M0 0h24v24H0z"/></clipPath></defs></svg>