<svg xmlns="http://www.w3.org/2000/svg" fill="none" viewBox="0 0 24 24"><path fill="#62757E" fill-rule="evenodd" d="M13.348 1.755a2.7 2.7 0 0 0-2.696 0L3.802 5.71a2.7 2.7 0 0 0-1.348 2.335v7.91c0 .963.514 1.853 1.348 2.335l6.85 3.955a2.7 2.7 0 0 0 2.696 0l6.85-3.955a2.7 2.7 0 0 0 1.348-2.335v-7.91c0-.963-.514-1.853-1.348-2.335zm-1.86 1.45a1.02 1.02 0 0 1 1.023 0l6.85 3.955c.317.182.512.52.512.885v7.91c0 .365-.195.703-.512.885l-6.85 3.955a1.02 1.02 0 0 1-1.022 0l-6.85-3.955a1.02 1.02 0 0 1-.512-.885v-7.91c0-.365.195-.703.512-.885zm6.743 6.93a.697.697 0 0 0-.001-1.394l-2.832.002a.697.697 0 0 0 .001 1.394h.722l-.004 4.355a.697.697 0 0 0 1.395 0l.003-4.356zm-4.89.002a.697.697 0 0 0 0-1.395l-1.988.002a.697.697 0 0 0-.697.697v5.12a.697.697 0 0 0 1.394 0v-1.914h1.292a.697.697 0 0 0-.001-1.395h-1.29v-1.114zM6.366 9.076a.697.697 0 0 0-1.292.364v5.12a.697.697 0 0 0 1.394 0v-2.645l1.84 3.009A.697.697 0 0 0 9.6 14.56V9.44a.697.697 0 1 0-1.395 0v2.644z" clip-rule="evenodd"/></svg>