<svg xmlns="http://www.w3.org/2000/svg" fill="none" viewBox="0 0 24 24"><g clip-path="url(#a)"><path fill="#F80000" d="M12 24c6.627 0 12-5.373 12-12S18.627 0 12 0 0 5.373 0 12s5.373 12 12 12"/><path fill="#fff" d="M14.8 12.59 10.113 19l.173-5.209H9.2l.444-4.572 4.959-.683-1.628 4.147zm-3.848 4.548v-1.225a.17.17 0 0 0-.173-.165.17.17 0 0 0-.172.164v1.226a.17.17 0 0 0 .172.165.17.17 0 0 0 .173-.165m-1.283-3.7h.987l-.045 1.885a.18.18 0 0 0 .055.133.2.2 0 0 0 .138.056h.008a.19.19 0 0 0 .193-.18l.045-2.225h-.987l.331-3.653a.15.15 0 0 0-.04-.115.16.16 0 0 0-.118-.05h-.028a.156.156 0 0 0-.158.139zm0-4.62 1.826-1.508c.098-1.508-.89-1.744-.89-1.744l.15-.566c1.627.471 1.381 2.262 1.381 2.262l2.368.99z"/></g><defs><clipPath id="a"><path fill="#fff" d="M0 0h24v24H0z"/></clipPath></defs></svg>