<svg xmlns="http://www.w3.org/2000/svg" fill="none" viewBox="0 0 24 24"><g clip-path="url(#a)"><path fill="#F28F01" d="M12 24c6.627 0 12-5.373 12-12S18.627 0 12 0 0 5.373 0 12s5.373 12 12 12Z"/><path fill="#fff" fill-rule="evenodd" d="m13.271 10.652-1.147-2.255c.239-.52.358-.815.358-.883 0-.244-.16-.423-.481-.537h3.514c-.433.195-.818.683-1.155 1.463l-1.089 2.212Zm-1.723 3.503-.535 1.087h3.154c1.428 0 2.383-.267 2.865-.803l-1.686 2.584H6.728c.93-.18 1.87-1.3 2.816-3.365.32-.634.612-1.22.879-1.757l1.125 2.254Zm-6.048.356c.698-.414 3.25-4.829 3.25-6.07 0-.293-.177-.57-.53-.83h2.745l2.383 4.682 2.311-4.682H18.5c-1.204.317-3.587 5.996-3.587 6.656 0 .13.024.212.072.244h-2.503l-2.143-4.29-2.118 4.29H5.5Z" clip-rule="evenodd"/></g><defs><clipPath id="a"><path fill="#fff" d="M0 0h24v24H0z"/></clipPath></defs></svg>