<svg xmlns="http://www.w3.org/2000/svg" fill="none" viewBox="0 0 24 24"><g clip-path="url(#a)"><path fill="#F28F01" d="M12 24c6.627 0 12-5.373 12-12S18.627 0 12 0 0 5.373 0 12s5.373 12 12 12"/><path fill="#fff" fill-rule="evenodd" d="m13.271 10.652-1.147-2.255q.358-.78.358-.883 0-.366-.481-.537h3.514q-.65.293-1.155 1.463zm-1.723 3.503-.535 1.087h3.154q2.142 0 2.865-.803l-1.686 2.584H6.728q1.396-.269 2.816-3.365.48-.951.879-1.757zm-6.048.356c.698-.414 3.25-4.829 3.25-6.07q0-.44-.53-.83h2.745l2.383 4.682 2.311-4.682H18.5c-1.204.317-3.587 5.996-3.587 6.656q0 .196.072.244h-2.503l-2.143-4.29-2.118 4.29z" clip-rule="evenodd"/></g><defs><clipPath id="a"><path fill="#fff" d="M0 0h24v24H0z"/></clipPath></defs></svg>