<svg xmlns="http://www.w3.org/2000/svg" fill="none" viewBox="0 0 24 24"><g clip-path="url(#a)"><path fill="#2AB0FD" d="M12 24c6.627 0 12-5.373 12-12S18.627 0 12 0 0 5.373 0 12s5.373 12 12 12"/><path fill="#fff" fill-rule="evenodd" d="M18.184 11.223c.107-.001.176.013.218.052.046.042.064.11.074.215.303 3.497-2.341 6.657-5.848 6.981-3.617.335-6.756-2.275-7.1-5.902-.334-3.522 2.311-6.717 5.841-7.038 2-.182 3.726.446 5.18 1.83.014.014.01.074-.006.091q-.49.499-.988.989c-.019.018-.086.015-.107-.004-1.5-1.374-3.237-1.78-5.137-1.088-1.921.7-3.02 2.15-3.238 4.19-.293 2.762 1.792 5.196 4.572 5.406 2.521.19 4.805-1.594 5.223-4.085.004-.025-.052-.087-.08-.087-1.557-.004-3.114-.003-4.67-.009-.04 0-.115-.074-.116-.115q-.013-.652 0-1.305c0-.04.07-.11.108-.11 1.038-.006 5.087.003 6.073-.011z" clip-rule="evenodd"/></g><defs><clipPath id="a"><path fill="#fff" d="M0 0h24v24H0z"/></clipPath></defs></svg>