<svg xmlns="http://www.w3.org/2000/svg" fill="none" viewBox="0 0 24 24"><g clip-path="url(#a)"><path fill="#186C9D" d="M12 24c6.627 0 12-5.373 12-12S18.627 0 12 0 0 5.373 0 12s5.373 12 12 12"/><path fill="#fff" d="M14.174 17v-.001q.156.002.306-.034c.584-.136 1.078-.646 1.195-1.197L18 7.038l-1.848-.01-1.524 5.712-4.12-5.731-.003.002.002-.006L9.827 7a1.3 1.3 0 0 0-.306.033c-.584.138-1.078.648-1.196 1.198L6 16.963l1.849.008 1.523-5.712 4.12 5.732h.002zM9.779 9.737l.322-1.206 4.12 5.732-.322 1.207z"/></g><defs><clipPath id="a"><path fill="#fff" d="M0 0h24v24H0z"/></clipPath></defs></svg>