<svg xmlns="http://www.w3.org/2000/svg" fill="none" viewBox="0 0 24 24"><g clip-path="url(#a)"><path fill="#050708" d="M12 24c6.627 0 12-5.373 12-12S18.627 0 12 0 0 5.373 0 12s5.373 12 12 12"/><path fill="#fff" d="M11.914 5.508a.46.46 0 0 1 .37.091l5.143 3.82a.47.47 0 0 1 .186.387v4.387a.47.47 0 0 1-.205.403l-5.124 3.806a.46.46 0 0 1-.586-.014l-5.104-3.793a.49.49 0 0 1-.207-.402V9.81a.49.49 0 0 1 .205-.402l5.106-3.793a.5.5 0 0 1 .216-.106m-.061 11.827-.005.206.001.412q.133.002.266 0v-.605a3 3 0 0 0-.262-.013m-1.01-.543h-.15c.107.187.208.376.316.56q.134.002.267-.006c-.07-.196-.193-.366-.284-.553a11 11 0 0 0-.299 0zm1.61.284q-.001.135.002.27h.248a2 2 0 0 0 .01-.264 4 4 0 0 0-.26-.006m-.28-1.452c-.372.002-.745-.002-1.118.003v.254c.33.008.66.002.99.003v.609c-.068 0-.136-.002-.203.005-.02.08-.01.164-.01.246q.179.004.357 0l.11-.12q0-.435.002-.869zm1.976.34c-.085-.041-.174-.182-.273-.097-.294.195-.596.378-.887.579q.001.126.008.251.408.005.814 0 .003-.134.001-.267l-.2-.002-.125.001c.216-.152.441-.289.662-.433zm-3.866.147-.529.002a7 7 0 0 0 0 .267q.528.004 1.058-.002v-.265a63 63 0 0 0-1.058 0zm-.888-.388h-.13a8 8 0 0 0 0 .267q.13.003.261 0v-.266a8 8 0 0 0-.262 0zm5.078-.954q-.005.217-.002.436c.142.219.28.439.424.656.12-.183.237-.37.358-.552.022-.04.058-.08.055-.129a8 8 0 0 0-.002-.399c-.11.18-.228.353-.337.532-.025.034-.043.078-.083.096-.143-.21-.274-.428-.413-.64m-.848-.327q-.248-.001-.5.002a49 49 0 0 1-.303 1.085l.257.002.229-.84.14.008c.074.277.153.552.226.83q.128.003.256.002zm-5.172.609-.232.005v.262c.23.004.463.01.694-.002.01-.087.006-.175.004-.263-.233-.001-.466-.005-.698.002zm1.861-.62c-.32.2-.636.408-.952.615q-.002.128.001.255.747.006 1.495 0 .003-.134 0-.268c-.337-.005-.672.002-1.009-.005.233-.14.457-.293.687-.439zm1.123-.197h-.132c-.004.333 0 .665-.002.998l.08.014q.093-.007.188-.011c-.002-.334 0-.667-.002-1h-.264zm.814.246a2 2 0 0 1-.277.018q.157.275.31.553l.26-.001c-.056-.207-.184-.388-.293-.57m3.522.126-.136.002a6 6 0 0 0 0 .262q.135.007.271.002v-.265a5 5 0 0 0-.271.001zm-6.375-1.06c-.145.215-.276.438-.422.65q-.205-.323-.413-.644-.005.221-.002.442c.144.209.277.425.414.638.148-.212.28-.436.425-.65q0-.218-.002-.435m.68.282a3 3 0 0 0-.002.274q.131.002.261 0a6 6 0 0 0 0-.268 3 3 0 0 0-.26-.006m3.613-.724-.132.124q0 .178.002.354l.254-.001.002-.219h.593q-.003.36 0 .717.127.004.257.003v-.853l-.128-.124q-.424.001-.848-.001m-6.616-.17h-.167l-.125.125-.001.58.004.29c.021.052.07.098.119.126.29.008.58 0 .87.004h.243q0-.127-.002-.253c-.326-.003-.653 0-.98-.001l-.001-.61.207-.003v-.255q-.168-.003-.333-.002zm5.705.225c-.315.213-.638.41-.953.622 0 .087 0 .172.013.258q.744.002 1.49-.001a5 5 0 0 0 0-.279c-.331-.004-.663.002-.995-.004.221-.149.452-.284.67-.44q-.113-.076-.225-.156m3.539-.041q-.476.303-.946.612v.26q.745.003 1.488 0v-.27c-.334-.003-.668.001-1.001-.002l.681-.442q-.11-.08-.222-.158m-5.88-1.172h-.131q-.003.758 0 1.515.133.004.265.002c.01-.337-.016-.675.017-1.01.18.309.376.607.564.91l.09-.001c-.014-.138.04-.296-.05-.414q-.316-.5-.625-1a7 7 0 0 0-.261 0zm4.836.546c-.087-.013-.175-.008-.262-.006a51 51 0 0 0 0 .937q.132.004.264 0c.001-.31.006-.62-.002-.93m-5.856.352c-.305.01-.611-.017-.915.016l.001.264c.384.003.766 0 1.15.001v-.27a2 2 0 0 0-.236-.011m7.639-1.195a25 25 0 0 0-.863-.001l-.116.12v.345h.254l.002-.21c.201.001.402-.003.603.002v1.128h.245c-.005-.081.017-.162.012-.243.003-.1-.001-.2.002-.3q-.002-.313 0-.625c.015-.097-.066-.171-.14-.216m-4.327 1.02h-.128v.27h.256v-.269h-.256zm-1.128-.53-.133.002q-.004.33 0 .66.132.004.266.001v-.661a7 7 0 0 0-.266 0zm2.725.306-.405.003a5 5 0 0 0-.002.266c.229.026.46.006.69.013.046-.005.107.016.133-.037a1 1 0 0 0-.01-.243c-.27 0-.54-.003-.812 0zm-1.12-.01-.131.001v.269h.261q.003-.135 0-.269h-.261zm-4.935-.777h-.267v.856h.268v-.856m.967-.34-.248.002q-.155.544-.307 1.088l.256.002c.068-.28.157-.554.22-.834l.142-.01c.087.279.152.563.237.843h.249c-.095-.365-.201-.726-.302-1.089q-.247-.002-.495 0zm3.188-.08-.04.002h-1.014v.258c.33.01.66-.016.988.014v.597l-.21.002v.26l.335.001.13-.142v-.757c.016-.124-.106-.253-.23-.234zm-5.26.66a6 6 0 0 0-.002.26q.132.002.265 0v-.254a3 3 0 0 0-.263-.007m6.287-1.091h-.168c-.048.063-.141.11-.13.203v.732c-.01.091.08.14.128.202l1.114-.001a8 8 0 0 0 .002-.26c-.33-.004-.66 0-.99-.003v-.611l.213-.002a6 6 0 0 0-.001-.258q-.168-.003-.337-.002zm-2.856.432h-.646a4 4 0 0 0 .001.273h.645a7 7 0 0 0 0-.273m5.255-.313-.577.002v.267c.385.005.769.002 1.153.002v-.27c-.384 0-.768-.004-1.152.001zm-1.309 0-.136.002v.266q.136.004.273 0a8 8 0 0 0 0-.266 4 4 0 0 0-.273 0zm-7.1-.556-.662.002a7 7 0 0 0 0 .27c.277.003.554 0 .831.001-.106.075-.217.143-.326.213.073.053.138.126.224.158q.302-.186.597-.386l-.001-.255a92 92 0 0 0-1.325-.001zm1.83-.218c-.211.146-.432.279-.639.432.205.149.421.28.629.424q.216.002.433-.001-.32-.212-.641-.421c.21-.15.431-.28.64-.431-.141-.003-.28 0-.421-.003m1.858.48h-.573l.001.268h1.142a1 1 0 0 0 .004-.266c-.382-.004-.764 0-1.147-.002zm.96 0-.137.002v.263q.137.003.275 0v-.262a5 5 0 0 0-.275-.001zm.638-.79h-.128v.856h.256q.002-.427 0-.856h-.256zm3.255.492-.133.001a9 9 0 0 0 0 .269q.135.003.265 0a5 5 0 0 0 0-.27 8 8 0 0 0-.264 0zm-.888-1.05c-.166-.028-.333-.002-.499 0-.101.361-.2.723-.305 1.082h.257c.072-.28.156-.556.225-.837l.14-.001c.084.278.154.56.235.839h.255zm-1.466.636h-.13v.269h.26v-.267a6 6 0 0 0-.26-.001zm3.144-.303-.296.002.315.556q.135.001.269-.004c-.073-.196-.191-.37-.289-.554m-4.857-.812-.127.002q-.004.5-.002 1c-.202-.004-.403.013-.603-.01l-.002-.201h-.243c0 .117-.01.235.004.351q.053.058.112.114c.291-.002.582 0 .873-.002l.117-.115c-.003-.38.002-.76-.002-1.138h-.254zm-2.006.627h-.129c-.006.21-.003.418-.002.626h.26q.001-.312-.001-.625h-.257zm6.072-.366-.131.002q-.004.429 0 .858.132.003.264 0 .005-.429 0-.858a6 6 0 0 0-.264 0zm-7.919.353-.575.002v.27q.576.003 1.15 0 .003-.135 0-.27a75 75 0 0 0-1.15 0zm1.016.002h-.26v.27h.261q.003-.135 0-.27m1.897-.994q-.211.326-.42.653c-.142-.214-.278-.432-.418-.648 0 .145-.011.292.003.437q.066.11.135.218l.278.43c.14-.22.29-.434.42-.66.012-.142.002-.287.002-.43m1.731-.647h-.128q-.004.758 0 1.515.132.003.266 0l.001-1.014c.195.3.377.61.575.909l.099.017q.003-.165.002-.33c-.232-.364-.457-.732-.687-1.097a7 7 0 0 0-.256 0zm-3.133.283-.19.008h-.214q-.001.133.001.267.142 0 .287.005c-.19.113-.372.235-.559.35.069.058.133.126.217.159.285-.165.556-.355.837-.527l.001-.252a5 5 0 0 0-.57-.002zm5.069.404-.63.001v.26q.63.002 1.26 0v-.26q-.63-.003-1.26 0zm-3.091-.298-.131.002q-.003.134 0 .268.131.003.262 0 .003-.135 0-.268a5 5 0 0 0-.262 0zm2.217-.185-.136.002v.261q.135.003.272 0v-.26a5 5 0 0 0-.272-.001zM10.87 6.898l-.135.003c.006.39-.018.784.011 1.174l.261-.002q.004-.585.001-1.174a4 4 0 0 0-.274.002zm1.006.555-.294.002q.152.28.311.555.135.001.27-.004c-.075-.195-.193-.367-.287-.553m1.544-.134-.365.002v.27q.365.005.729 0v-.27a36 36 0 0 0-.729 0zm-1.438-.887h-.405c-.08-.01-.126.071-.17.123-.017.112-.005.227-.005.34h.251l.002-.212h.595c.017.211-.001.423-.001.634l.02.08c.08.005.16.001.24 0v-.85l-.079-.078-.043-.034c-.27-.007-.54 0-.81-.002z"/></g><defs><clipPath id="a"><path fill="#fff" d="M0 0h24v24H0z"/></clipPath></defs></svg>