<svg xmlns="http://www.w3.org/2000/svg" fill="none" viewBox="0 0 24 24"><path fill="#46464A" d="M4.713 18.187h3.73C8.506 19.907 9.918 21.5 12 21.5c2.073 0 3.494-1.584 3.566-3.313h3.72c.942 0 1.522-.516 1.522-1.294 0-.969-.878-1.793-1.702-2.58-.634-.625-.779-1.856-.905-3.087a14.548 14.548 0 0 0-.1-1.448 3.608 3.608 0 0 1-1.801.235c.045.417.081.86.09 1.376.09 1.72.39 3.041 1.005 3.757.444.506.95.986 1.186 1.249v.108H5.4v-.108c.236-.263.76-.742 1.204-1.25.625-.715.914-2.036 1.005-3.756.108-3.63 1.222-4.86 2.68-5.241.226-.063.343-.172.361-.416.055-.915.562-1.53 1.349-1.53.154 0 .29.018.416.063.163-.552.453-1.05.833-1.466A2.707 2.707 0 0 0 12 2.5c-1.349 0-2.353.914-2.697 2.118-2.363.851-3.359 3.132-3.494 6.545-.118 1.276-.272 2.525-.915 3.15-.823.787-1.702 1.611-1.702 2.58 0 .778.58 1.294 1.521 1.294Zm11.813-9.35c1.702 0 3.123-1.413 3.123-3.124 0-1.71-1.421-3.122-3.123-3.122a3.14 3.14 0 0 0-3.123 3.122 3.14 3.14 0 0 0 3.123 3.123ZM12 20.042c-1.023 0-1.756-.734-1.82-1.856h3.649c-.055 1.113-.797 1.856-1.829 1.856Z"/></svg>