<svg xmlns="http://www.w3.org/2000/svg" fill="none" viewBox="0 0 24 24"><path fill="#62757E" fill-rule="evenodd" d="M8.443 18.187h-3.73c-.941 0-1.52-.516-1.52-1.294 0-.954.85-1.767 1.663-2.543l.038-.037c.643-.625.797-1.874.915-3.15.135-3.413 1.131-5.694 3.494-6.545C9.647 3.414 10.65 2.5 12 2.5s2.354.914 2.707 2.118c2.353.851 3.358 3.132 3.485 6.545.117 1.276.271 2.525.914 3.15l.039.037c.812.776 1.663 1.59 1.663 2.543 0 .778-.58 1.294-1.521 1.294h-3.72C15.494 19.925 14.073 21.5 12 21.5c-2.082 0-3.494-1.593-3.557-3.313M5.4 16.395v.108h13.18v-.108a14 14 0 0 0-.381-.397 21 21 0 0 1-.805-.852c-.615-.716-.905-2.037-1.005-3.757-.108-3.63-1.222-4.852-2.679-5.241-.217-.063-.344-.172-.362-.416-.045-.915-.552-1.53-1.349-1.53-.787 0-1.303.615-1.349 1.53-.018.244-.135.353-.362.416-1.448.39-2.57 1.611-2.679 5.241-.09 1.72-.38 3.041-1.005 3.757-.267.305-.565.601-.81.846-.162.16-.3.299-.394.403m4.78 1.792c.063 1.122.796 1.856 1.82 1.856 1.031 0 1.773-.743 1.828-1.856zm.186-9.667a.834.834 0 0 0 0 1.667h1.6l-2.25 2.812a.833.833 0 0 0 .65 1.354H13.7a.833.833 0 1 0 0-1.666h-1.6l2.251-2.813a.833.833 0 0 0-.65-1.354z" clip-rule="evenodd"/></svg>