<svg xmlns="http://www.w3.org/2000/svg" fill="none" viewBox="0 0 24 24"><path fill="#62757E" fill-rule="evenodd" d="M20.184 18.052c-.24.39-.674.615-1.188.615h-3.628A3.338 3.338 0 0 1 12.033 22a3.338 3.338 0 0 1-3.334-3.333H5.073c-.513 0-.946-.225-1.187-.615-.242-.39-.248-.878-.018-1.337L6.2 12.613v-4.78A5.84 5.84 0 0 1 12.033 2a5.84 5.84 0 0 1 5.835 5.833v4.78l2.313 4.063c.25.498.244.986.003 1.377Zm-8.151 2.281a1.67 1.67 0 0 0 1.668-1.666h-3.335c0 .919.748 1.666 1.667 1.666Zm4.278-7.088c-.009-.014-.008-.03-.015-.045-.025-.05-.037-.102-.052-.157-.015-.055-.03-.107-.033-.163-.001-.017-.01-.03-.01-.047v-5a4.173 4.173 0 0 0-4.168-4.166 4.17 4.17 0 0 0-4.165 4.166v5c0 .017-.009.031-.01.047-.003.055-.018.107-.032.162-.015.055-.028.108-.053.158-.007.015-.007.03-.014.045L5.622 17h12.826l-2.137-3.755ZM9.534 8.667c0-.46.373-.834.833-.834h3.334a.833.833 0 0 1 .651 1.354L12.102 12H13.7a.833.833 0 1 1 0 1.667h-3.334a.834.834 0 0 1-.65-1.354l2.25-2.813h-1.6a.834.834 0 0 1-.833-.833Z" clip-rule="evenodd"/></svg>