<svg xmlns="http://www.w3.org/2000/svg" fill="none" viewBox="0 0 24 24"><path fill="#62757E" fill-rule="evenodd" d="M17.868 12.613v-2.94a4.753 4.753 0 0 1-1.624-.108v3.023a.822.822 0 0 0 .067.657L18.448 17H5.622l2.137-3.755a.095.095 0 0 0 .008-.024.114.114 0 0 1 .006-.021.698.698 0 0 0 .049-.144l.003-.013.007-.025c.012-.046.024-.09.026-.138 0-.008.003-.015.005-.022a.078.078 0 0 0 .005-.025v-5a4.17 4.17 0 0 1 4.968-4.089 4.68 4.68 0 0 1 .749-1.535A5.84 5.84 0 0 0 6.2 7.833v4.78l-2.334 4.102c-.229.46-.222.948.019 1.337.24.39.674.615 1.188.615h3.625A3.337 3.337 0 0 0 12.033 22a3.338 3.338 0 0 0 3.335-3.333h3.627c.514 0 .948-.225 1.188-.615.242-.39.248-.878-.002-1.376l-2.313-4.063Zm-5.835 7.72a1.67 1.67 0 0 0 1.668-1.666h-3.335c0 .919.748 1.666 1.667 1.666ZM17.367 8a3 3 0 1 0 0-6 3 3 0 0 0 0 6Z" clip-rule="evenodd"/></svg>