<svg xmlns="http://www.w3.org/2000/svg" fill="none" viewBox="0 0 24 24"><path fill="#62757E" fill-rule="evenodd" d="M20.183 18.052c-.24.39-.674.615-1.188.615h-3.627A3.338 3.338 0 0 1 12.033 22 3.337 3.337 0 0 1 8.7 18.667H5.074c-.514 0-.948-.225-1.188-.615-.241-.39-.248-.878-.019-1.337l2.334-4.102v-4.78A5.84 5.84 0 0 1 12.033 2a5.841 5.841 0 0 1 5.835 5.833v4.78l2.313 4.063c.25.498.244.987.002 1.377Zm-8.15 2.281a1.67 1.67 0 0 0 1.668-1.666h-3.335c0 .919.748 1.666 1.667 1.666Zm4.278-7.088a.822.822 0 0 1-.067-.657V8.043c-.019-.069-.042-.135-.042-.21a4.173 4.173 0 0 0-4.169-4.166 4.17 4.17 0 0 0-4.165 4.166v5c0 .017-.01.03-.01.047-.003.056-.019.107-.033.162-.014.056-.027.109-.052.158-.007.015-.007.03-.014.045L5.622 17h12.826l-2.137-3.755Z" clip-rule="evenodd"/></svg>