<svg xmlns="http://www.w3.org/2000/svg" fill="none" viewBox="0 0 24 24"><path fill="#62757E" fill-rule="evenodd" d="M20.183 18.052c-.24.39-.674.615-1.187.615h-3.628A3.339 3.339 0 0 1 12.033 22a3.337 3.337 0 0 1-3.334-3.333H5.074c-.514 0-.948-.225-1.189-.615-.24-.39-.247-.878-.017-1.337L6.2 12.613v-4.78A5.84 5.84 0 0 1 12.033 2a5.841 5.841 0 0 1 5.835 5.833v4.78l2.313 4.063c.25.498.244.987.002 1.377Zm-8.15 2.281a1.67 1.67 0 0 0 1.668-1.666h-3.335c0 .919.747 1.666 1.667 1.666Zm4.278-7.088c-.009-.014-.008-.03-.015-.045-.026-.05-.038-.102-.052-.157-.015-.055-.03-.107-.033-.163-.001-.016-.01-.03-.01-.047v-5a4.173 4.173 0 0 0-4.168-4.166 4.17 4.17 0 0 0-4.165 4.166v5c0 .017-.009.03-.01.047-.003.056-.019.108-.033.163-.014.055-.027.108-.051.157-.008.015-.007.03-.015.045L5.62 17h12.827l-2.137-3.755ZM9.535 9.5h1.666V7.833a.834.834 0 0 1 1.668 0V9.5h1.666a.834.834 0 1 1 0 1.667H12.87v1.666a.834.834 0 0 1-1.668 0v-1.666H9.535a.834.834 0 0 1 0-1.667Z" clip-rule="evenodd"/></svg>