<svg xmlns="http://www.w3.org/2000/svg" fill="none" viewBox="0 0 24 24"><g clip-path="url(#a)"><path fill="#F5D100" d="M12 24c6.627 0 12-5.373 12-12S18.627 0 12 0 0 5.373 0 12s5.373 12 12 12Z"/><path fill="#fff" d="M11.997 5C8.14 5 5 8.14 5 11.997 5 15.854 8.14 19 12.003 19a7.008 7.008 0 0 0 7.002-7.003C19.005 8.134 15.86 5 11.998 5Zm0 13.46a6.47 6.47 0 0 1-6.463-6.463c.006-3.56 2.903-6.458 6.463-6.458a6.471 6.471 0 0 1 6.464 6.464c0 3.56-2.898 6.457-6.464 6.457Z"/><path fill="#fff" d="m8.375 8.89.514-.515 2.74 2.74-.515.514-2.74-2.739Zm3.985 3.987.514-.515 2.74 2.739-.515.514-2.74-2.738Zm-.874-.878.514-.515.52.518-.515.516-.52-.52Zm.881-.862 2.74-2.74.514.516-2.739 2.74-.515-.516Zm-3.972 3.967 2.738-2.739.515.514-2.738 2.74-.515-.515Z"/></g><defs><clipPath id="a"><path fill="#fff" d="M0 0h24v24H0z"/></clipPath></defs></svg>