<svg xmlns="http://www.w3.org/2000/svg" fill="none" viewBox="0 0 24 24"><g clip-path="url(#a)"><path fill="#82BD39" d="M12 24c6.627 0 12-5.373 12-12S18.627 0 12 0 0 5.373 0 12s5.373 12 12 12Z"/><path fill="#fff" d="M10.882 14.352 12 15.825V19l-4.2-1.864V8.933a.42.42 0 0 1 .148-.317l.479-.41a.445.445 0 0 1 .646.069l3.825 5.014 2.113 1.293V7.666l-1.867-.932-.091 4.337-.989-1.311L12.02 5l4.18 1.945v8.165l-.95.783-2.992-1.671-3.32-4.356-.046 6.617 1.978 1.013.012-3.144Z"/></g><defs><clipPath id="a"><path fill="#fff" d="M0 0h24v24H0z"/></clipPath></defs></svg>