<svg xmlns="http://www.w3.org/2000/svg" fill="none" viewBox="0 0 24 24"><path fill="#76b900" d="M8.955 8.745V7.287q.21-.015.423-.022c3.924-.126 6.499 3.427 6.499 3.427s-2.78 3.927-5.762 3.927c-.43 0-.814-.07-1.16-.189v-4.423c1.528.188 1.835.873 2.753 2.43l2.042-1.752s-1.49-1.988-4.004-1.988c-.273 0-.535.02-.792.047zm0-4.818v2.179q.21-.018.422-.026c5.457-.187 9.012 4.55 9.012 4.55s-4.083 5.047-8.337 5.047c-.39 0-.755-.037-1.098-.098v1.347q.44.058.914.06c3.958 0 6.822-2.055 9.594-4.488.46.374 2.341 1.284 2.728 1.683-2.636 2.244-8.778 4.051-12.261 4.051-.336 0-.658-.02-.975-.05v1.891H24V3.928zm0 10.502v1.15c-3.662-.664-4.679-4.533-4.679-4.533s1.758-1.98 4.678-2.3v1.26H8.95c-1.533-.186-2.73 1.27-2.73 1.27s.672 2.45 2.736 3.155zM2.451 10.88s2.17-3.255 6.503-3.592v-1.18C4.156 6.498 0 10.63 0 10.63s2.353 6.918 8.955 7.552v-1.255c-4.845-.62-6.503-6.048-6.503-6.048"/></svg>