<svg xmlns="http://www.w3.org/2000/svg" fill="none" viewBox="0 0 24 24"><g clip-path="url(#a)"><path fill="#4099CD" d="M12 24c6.627 0 12-5.373 12-12S18.627 0 12 0 0 5.373 0 12s5.373 12 12 12"/><path fill="#fff" fill-rule="evenodd" d="M18.5 12a6.5 6.5 0 1 1-.76-3.054c-1.453-.87-4.43-.286-7.246 1.543q-.88.57-1.668 1.263a.812.812 0 0 0-1.132 1.142c-.66.766-1.134 1.542-1.38 2.258a6.52 6.52 0 0 0 3.5 2.971c1.35-.228 2.919-.853 4.441-1.842 2.207-1.433 3.755-3.267 4.224-4.801a7 7 0 0 0 .021.52M6.966 15.985c-.462-.711-.08-1.843.872-2.943a.813.813 0 0 0 1.17-1.103q.33-.259.698-.498c2.21-1.435 4.568-1.729 5.266-.655.697 1.073-.53 3.108-2.74 4.544s-4.57 1.729-5.266.655" clip-rule="evenodd"/></g><defs><clipPath id="a"><path fill="#fff" d="M0 0h24v24H0z"/></clipPath></defs></svg>