<svg xmlns="http://www.w3.org/2000/svg" fill="none" viewBox="0 0 24 24"><g clip-path="url(#a)"><path fill="#008FBB" d="M12 24c6.627 0 12-5.373 12-12S18.627 0 12 0 0 5.373 0 12s5.373 12 12 12"/><path fill="#fff" fill-rule="evenodd" d="M18.416 12.53c-.323 0-.584-.237-.584-.53v-.53h-2.935c-.323 0-.585-.238-.585-.53 0-.294.262-.53.585-.53h3.519c.322 0 .584.236.584.53V12c0 .293-.26.53-.584.53m-2.895 0h1.168c.322 0 .584.237.584.53s-.261.53-.584.53h-1.792a.6.6 0 0 1-.27-.059l-3.405-2.062h-.981c-.323 0-.585-.237-.585-.53s.261-.53.585-.53h1.167a.6.6 0 0 1 .338.098l3.33 2.024zm-4.113 0c.323 0 .584.237.584.53s-.261.53-.584.53h-1.167a.6.6 0 0 1-.27-.059L6.565 11.47h-.98c-.323 0-.585-.237-.585-.53s.26-.53.584-.53h1.168a.63.63 0 0 1 .338.098l3.33 2.024zm-5.824 0h1.168c.323 0 .584.237.584.53s-.261.53-.584.53H5.584c-.322 0-.584-.236-.584-.53 0-.292.26-.53.584-.53" clip-rule="evenodd"/></g><defs><clipPath id="a"><path fill="#fff" d="M0 0h24v24H0z"/></clipPath></defs></svg>