<svg xmlns="http://www.w3.org/2000/svg" fill="none" viewBox="0 0 24 24"><path fill="#fff" d="M19.393 4.929c-3.905-3.905-10.236-3.905-14.141 0C1.345 8.833 1.345 15.166 5.25 19.07s10.237 3.905 14.142 0c3.906-3.905 3.906-10.238.001-14.142m-.856 13.286a8.79 8.79 0 1 1 0-12.43 8.79 8.79 0 0 1 0 12.43"/><path fill="#141521" d="M18.52 5.801a8.767 8.767 0 0 0-12.397 0 8.767 8.767 0 0 0 0 12.397 8.767 8.767 0 0 0 12.397 0 8.767 8.767 0 0 0 0-12.397M8.626 19.046a8 8 0 0 1-1.688-1.226V6.18a8 8 0 0 1 1.745-1.256l7.334 11.15V4.954a8 8 0 0 1 1.689 1.226v11.64a8 8 0 0 1-1.746 1.256L8.626 7.926z"/><path fill="#fff" d="M17.754 17.9V6.224a8 8 0 0 0-1.685-1.231v11.156L8.754 4.963a7.8 7.8 0 0 0-1.74 1.26V17.9a7.8 7.8 0 0 0 1.684 1.23V7.976l7.315 11.186a7.8 7.8 0 0 0 1.74-1.261"/></svg>