<svg xmlns="http://www.w3.org/2000/svg" fill="none" viewBox="0 0 24 24"><path fill="#fff" d="M19.393 4.929c-3.905-3.905-10.236-3.905-14.141 0C1.345 8.833 1.345 15.166 5.25 19.07c3.905 3.905 10.237 3.905 14.142 0 3.906-3.905 3.906-10.238.001-14.142Zm-.856 13.286a8.79 8.79 0 1 1 0-12.43 8.79 8.79 0 0 1 0 12.43Z"/><path fill="#141521" d="M18.52 5.801a8.767 8.767 0 0 0-12.397 0 8.767 8.767 0 0 0 0 12.397 8.767 8.767 0 0 0 12.397 0 8.767 8.767 0 0 0 0-12.397ZM8.626 19.046a7.877 7.877 0 0 1-1.688-1.226V6.18a7.86 7.86 0 0 1 1.745-1.256l7.334 11.15V4.954a7.88 7.88 0 0 1 1.689 1.226v11.64a7.86 7.86 0 0 1-1.746 1.256L8.626 7.926v11.12Z"/><path fill="#fff" d="M17.754 17.9V6.224a7.86 7.86 0 0 0-1.685-1.231v11.156L8.754 4.963a7.84 7.84 0 0 0-1.74 1.26V17.9a7.812 7.812 0 0 0 1.684 1.23V7.976l7.315 11.185a7.84 7.84 0 0 0 1.74-1.26Z"/></svg>