<svg xmlns="http://www.w3.org/2000/svg" fill="none" viewBox="0 0 24 24"><g clip-path="url(#a)"><path fill="#164B79" d="M12 24c6.627 0 12-5.373 12-12S18.627 0 12 0 0 5.373 0 12s5.373 12 12 12"/><path fill="#fff" d="m10.785 13.698-.396.846h-.88l2.388-5.09 1.593 3.394h-.9l-.713-1.473-.714 1.498zm3.47.827 1.865-2.514-1.878-2.532h1.028l1.362 1.852-.495.68.495.681-1.362 1.852h-1.885l-.398-.846h.88zM17.136 12l-.503-.692 1.363-1.852H19zm0 0L19 14.545h-1.005l-1.362-1.852zm-8.048-1.809a2.52 2.52 0 0 1 .69 1.81 2.62 2.62 0 0 1-.69 1.808c-.46.515-1.027.735-1.697.735a2.28 2.28 0 0 1-1.698-.735A2.55 2.55 0 0 1 5 12c-.01-.525.143-1.04.44-1.473l.585.624a1.8 1.8 0 0 0 .23 2.077 1.52 1.52 0 0 0 1.133.516c.428 0 .836-.187 1.133-.516a1.7 1.7 0 0 0 .46-1.205 1.8 1.8 0 0 0-.461-1.207 1.48 1.48 0 0 0-1.133-.49 1.4 1.4 0 0 0-.794.223l-.586-.624c.393-.31.882-.476 1.383-.468a2.23 2.23 0 0 1 1.696.734"/></g><defs><clipPath id="a"><path fill="#fff" d="M0 0h24v24H0z"/></clipPath></defs></svg>