<svg xmlns="http://www.w3.org/2000/svg" fill="none" viewBox="0 0 24 24"><g clip-path="url(#a)"><path fill="#164B79" d="M12 24c6.627 0 12-5.373 12-12S18.627 0 12 0 0 5.373 0 12s5.373 12 12 12Z"/><path fill="#fff" d="m10.785 13.698-.396.846h-.88l2.388-5.09 1.593 3.394h-.9l-.713-1.473-.714 1.498-.378.825Zm3.47.827 1.865-2.514-1.878-2.532h1.028l1.362 1.852-.495.68.495.681-1.362 1.852h-1.885l-.398-.846h.88l.388.827ZM17.136 12l-.503-.692 1.363-1.852H19L17.136 12Zm0 0L19 14.545h-1.005l-1.362-1.852.503-.692Zm-8.048-1.809a2.522 2.522 0 0 1 .69 1.81 2.624 2.624 0 0 1-.69 1.808c-.46.514-1.027.735-1.697.735a2.275 2.275 0 0 1-1.698-.735A2.545 2.545 0 0 1 5 12c-.01-.525.143-1.04.44-1.473l.585.624a1.796 1.796 0 0 0 .23 2.077 1.525 1.525 0 0 0 1.133.516c.428 0 .836-.187 1.133-.516a1.687 1.687 0 0 0 .46-1.206 1.794 1.794 0 0 0-.461-1.206 1.483 1.483 0 0 0-1.133-.49 1.394 1.394 0 0 0-.794.223l-.586-.624c.393-.31.882-.476 1.383-.468a2.234 2.234 0 0 1 1.696.734Z"/></g><defs><clipPath id="a"><path fill="#fff" d="M0 0h24v24H0z"/></clipPath></defs></svg>