<svg xmlns="http://www.w3.org/2000/svg" fill="none" viewBox="0 0 24 24"><g clip-path="url(#a)"><path fill="#000" d="M12 24c6.627 0 12-5.373 12-12S18.627 0 12 0 0 5.373 0 12s5.373 12 12 12"/><path fill="#fff" fill-rule="evenodd" d="M11.069 6.43a.932.932 0 1 0 1.863.006.932.932 0 0 0-1.863-.006M8.343 7.81a.933.933 0 0 0 1.864.008.932.932 0 0 0-1.864-.008m4.589 4.114a.932.932 0 1 0-1.864.004.932.932 0 0 0 1.864-.004m-.929-3.657a.932.932 0 1 1-.01 1.864.937.937 0 0 1-.926-.933.934.934 0 0 1 .936-.931m5.482 0a.933.933 0 0 1 .008 1.864.93.93 0 0 1-.937-.928.93.93 0 0 1 .929-.936m-9.14 2.274a.932.932 0 1 0 1.863.006.932.932 0 0 0-1.864-.006m5.487-2.73a.932.932 0 1 1 1.86.01.932.932 0 0 1-1.86-.01m-7.321 2.32a.93.93 0 0 0 .933-.931.926.926 0 0 0-.932-.933.93.93 0 0 0-.93.926.935.935 0 0 0 .929.938m8.241 1.343a.93.93 0 0 1-.92-.945.93.93 0 0 1 .953-.92c.507.01.918.44.909.95a.93.93 0 0 1-.942.915m-8.908.287c.001.38.313.688.693.687a.694.694 0 0 0 .687-.695.694.694 0 0 0-.694-.687.694.694 0 0 0-.686.695m2.724 1.379a.691.691 0 0 1 1.38.003.696.696 0 0 1-.692.69.696.696 0 0 1-.688-.694m6.864.001a.69.69 0 0 0-.688-.691c-.378 0-.69.31-.692.688a.695.695 0 0 0 .689.693c.378 0 .69-.311.691-.69m1.385-1.386a.69.69 0 0 1 .69-.689.69.69 0 0 1-.005 1.38.686.686 0 0 1-.685-.691m-5.487 2.729a.689.689 0 1 0 1.377.002.689.689 0 0 0-1.377-.002m1.153 2.13a.465.465 0 1 1-.93.003.465.465 0 0 1 .93-.003m2.254-.917a.465.465 0 1 0 .01-.93.465.465 0 0 0-.01.93m-5.482 0a.467.467 0 0 1 .002-.931.47.47 0 0 1 .466.466c0 .258-.21.465-.468.465M6.54 13.384a.468.468 0 0 0-.006.933.47.47 0 0 0 .466-.466.47.47 0 0 0-.46-.467m11.43.465a.465.465 0 1 1-.93 0 .47.47 0 0 1 .461-.465.47.47 0 0 1 .468.465m-.223 1.643a.244.244 0 0 0-.24-.238.24.24 0 1 0-.004.48.24.24 0 0 0 .244-.242m-5.49 2.765a.24.24 0 1 1-.477.006.238.238 0 1 1 .478-.006m-5.723-2.52a.241.241 0 0 0 .008-.482.24.24 0 0 0-.248.237.24.24 0 0 0 .24.245m2.964 1.14c0 .135-.108.24-.245.238a.237.237 0 0 1-.235-.24c0-.134.103-.236.237-.238a.24.24 0 0 1 .243.24m5.006-.005a.237.237 0 0 0 .238.245.235.235 0 0 0 .24-.235.235.235 0 0 0-.238-.245.236.236 0 0 0-.24.235" clip-rule="evenodd"/></g><defs><clipPath id="a"><path fill="#fff" d="M0 0h24v24H0z"/></clipPath></defs></svg>