<svg xmlns="http://www.w3.org/2000/svg" fill="none" viewBox="0 0 24 24"><path fill="#62757E" fill-rule="evenodd" d="M4.37 2.136h2.054c.256 0 .494 0 .694.016.216.018.456.058.694.178.339.17.614.442.786.776.122.235.162.472.18.685.016.197.016.432.016.685v15.048c0 .253 0 .488-.016.685a1.8 1.8 0 0 1-.18.685 1.8 1.8 0 0 1-.786.776c-.238.12-.478.16-.694.178-.2.016-.438.016-.694.016H4.37c-.257 0-.495 0-.694-.016a1.8 1.8 0 0 1-.695-.178 1.8 1.8 0 0 1-.786-.776 1.8 1.8 0 0 1-.18-.685C2 20.012 2 19.777 2 19.524V4.476c0-.253 0-.488.016-.685a1.8 1.8 0 0 1 .18-.685c.172-.334.448-.606.786-.776.238-.12.479-.16.695-.178.2-.016.437-.016.694-.016M3.7 3.74a.2.2 0 0 0-.076.076 1 1 0 0 0-.014.105c-.01.125-.011.294-.011.583v14.994c0 .289 0 .458.01.583a1 1 0 0 0 .015.105.2.2 0 0 0 .077.076 1 1 0 0 0 .106.014c.126.01.298.01.591.01h1.998c.293 0 .465 0 .591-.01a1 1 0 0 0 .106-.014.2.2 0 0 0 .077-.076 1 1 0 0 0 .015-.105c.01-.125.01-.294.01-.583V4.503c0-.289 0-.458-.01-.583a1 1 0 0 0-.015-.105.2.2 0 0 0-.077-.076 1 1 0 0 0-.106-.014 8 8 0 0 0-.59-.01h-2c-.293 0-.465 0-.591.01a1 1 0 0 0-.106.014m-.004 16.52" clip-rule="evenodd"/><path fill="#62757E" d="M4.598 17.917c0-.436.358-.79.8-.79.44 0 .799.354.799.79a.794.794 0 0 1-.8.789.794.794 0 0 1-.8-.79"/><path fill="#62757E" fill-rule="evenodd" d="M9.566 2.136h2.053c.257 0 .495 0 .694.016.216.018.457.058.695.178.338.17.614.442.786.776.121.235.162.472.18.685.016.197.016.432.016.685v15.048c0 .253 0 .488-.016.685a1.8 1.8 0 0 1-.18.685 1.8 1.8 0 0 1-.786.776c-.238.12-.479.16-.695.178-.2.016-.437.016-.694.016H9.566c-.256 0-.494 0-.694-.016a1.8 1.8 0 0 1-.694-.178 1.8 1.8 0 0 1-.786-.776 1.8 1.8 0 0 1-.18-.685c-.016-.197-.016-.432-.016-.685V4.476c0-.253 0-.488.016-.685a1.8 1.8 0 0 1 .18-.685c.172-.334.447-.606.786-.776.238-.12.478-.16.694-.178.2-.016.438-.016.694-.016m-.67 1.603a.2.2 0 0 0-.076.076 1 1 0 0 0-.015.105c-.01.125-.01.294-.01.583v14.994c0 .289 0 .458.01.583a1 1 0 0 0 .015.105.2.2 0 0 0 .077.076 1 1 0 0 0 .105.014c.127.01.299.01.592.01h1.998c.293 0 .465 0 .591-.01a1 1 0 0 0 .106-.014.2.2 0 0 0 .077-.076 1 1 0 0 0 .014-.105c.01-.125.011-.294.011-.583V4.503c0-.289 0-.458-.01-.583a1 1 0 0 0-.015-.105.2.2 0 0 0-.077-.076 1 1 0 0 0-.106-.014 8 8 0 0 0-.591-.01H9.594c-.293 0-.465 0-.592.01a1 1 0 0 0-.105.014m-.004 16.52" clip-rule="evenodd"/><path fill="#62757E" d="M9.794 17.917c0-.436.357-.79.799-.79.441 0 .8.354.8.79a.794.794 0 0 1-.8.789.794.794 0 0 1-.8-.79"/><path fill="#62757E" fill-rule="evenodd" d="m14.775 2.416.027-.004 1.974-.309.027-.004c.253-.04.488-.076.688-.091.216-.016.46-.014.714.068.361.116.676.341.899.645.157.213.235.441.286.65.048.191.085.424.125.673l2.384 14.863c.04.25.078.481.093.679.016.213.014.454-.069.705a1.78 1.78 0 0 1-.653.887 1.8 1.8 0 0 1-.658.283c-.195.047-.43.083-.683.123l-2.028.317c-.253.04-.488.076-.688.091-.216.016-.46.014-.714-.068a1.8 1.8 0 0 1-.9-.645 1.8 1.8 0 0 1-.286-.65 9 9 0 0 1-.124-.673L12.809 5.12l-.005-.027c-.04-.25-.077-.481-.092-.679a1.8 1.8 0 0 1 .069-.705c.117-.356.346-.667.653-.887.216-.155.447-.232.658-.283a9 9 0 0 1 .683-.123m-.408 1.687a.2.2 0 0 0-.064.087 1 1 0 0 0 .003.105c.01.125.036.293.082.578l2.376 14.81c.045.285.073.452.103.574a1 1 0 0 0 .03.1.2.2 0 0 0 .089.064 1 1 0 0 0 .107-.002c.126-.01.296-.036.585-.081l1.974-.309a8 8 0 0 0 .582-.102 1 1 0 0 0 .102-.03.2.2 0 0 0 .064-.087 1 1 0 0 0-.002-.105 8 8 0 0 0-.082-.578L17.94 4.317a8 8 0 0 0-.103-.574 1 1 0 0 0-.031-.1.2.2 0 0 0-.088-.064 1 1 0 0 0-.107.002c-.126.01-.296.036-.585.081l-1.974.309c-.29.045-.459.072-.582.102a1 1 0 0 0-.103.03M20.4 19.815v-.001zm-3.42.605h.002z" clip-rule="evenodd"/><path fill="#62757E" d="M17.5 17.967a.79.79 0 0 1 .665-.902.8.8 0 0 1 .914.656.79.79 0 0 1-.664.902.8.8 0 0 1-.915-.656M2.753 6.476h4.988v1.578H2.753zm5.346 0h4.988v1.578H8.099zm5.891.394 4.927-.77.25 1.56-4.927.77z"/></svg>