<svg xmlns="http://www.w3.org/2000/svg" fill="none" viewBox="0 0 24 24"><path fill="#62757E" fill-rule="evenodd" d="m21.277 20.721-4.56.605a.83.83 0 0 1-.936-.718L13.688 4.54a.833.833 0 0 1 .72-.934l4.581-.598a.833.833 0 0 1 .935.72l2.069 16.06a.83.83 0 0 1-.716.933m-2.9-15.953-2.928.384.221 1.698 2.926-.382zm.433 3.353-2.925.382 1.442 11.062 2.908-.387zm-.143 8.986c.46 0 .833.373.833.834s-.373.862-.833.862-.833-.342-.833-.803v-.06c0-.46.372-.833.833-.833m-5.821 4.226H2.833A.833.833 0 0 1 2 20.501V3.833c0-.46.373-.833.833-.833h9.982l.016.003.015-.003c.46 0 .834.373.834.833v16.668c0 .46-.374.832-.834.832M7.006 4.667h-3.34v1.667h3.34zm0 3.333h-3.34v11.667h3.34zm1.667 11.667h3.34V8h-3.34zm0-13.333h3.34V4.667h-3.34zm2.26 12.258a.86.86 0 0 1-.591.242.85.85 0 0 1-.593-.25.85.85 0 0 1-.241-.584c0-.216.092-.433.25-.592.3-.308.867-.308 1.175 0a.88.88 0 0 1 .242.592.88.88 0 0 1-.242.592m-5.008-1.184a.84.84 0 0 1 0 1.184.87.87 0 0 1-.592.242.82.82 0 0 1-.583-.25.814.814 0 0 1 0-1.176c.3-.308.858-.308 1.175 0" clip-rule="evenodd"/></svg>