<svg xmlns="http://www.w3.org/2000/svg" fill="none" viewBox="0 0 24 24"><path fill="#100C17" d="M7.616 2.98c2.679-1.28 5.877-1.32 8.556-.04 3.079 1.4 5.358 4.518 5.717 7.876 0 .12.04.28.08.4.08.96 0 1.959-.2 2.879-1.159 5.357-6.396 8.755-11.754 7.676-2.199-.4-4.238-1.64-5.677-3.359a10.029 10.029 0 0 1-1.2-11.074A9.846 9.846 0 0 1 7.616 2.98Zm1.2 3.678v2.159h6.317V6.618c-2.12.04-4.238.04-6.317.04Zm-2.2 2.199v6.237h2.16c0-2.079.04-4.198 0-6.277-.72 0-1.44 0-2.16.04Zm8.477 0v6.237h2.159V8.857c-.72-.04-1.44-.04-2.16 0Zm-6.277 6.277v2.159h6.277c.04-.72 0-1.44 0-2.159-2.08-.04-4.198-.04-6.277 0Z"/></svg>