<svg xmlns="http://www.w3.org/2000/svg" fill="none" viewBox="0 0 24 24"><path fill="#7ABDF7" d="M10.924 10.924a4.5 4.5 0 0 0 2.153 0 4.54 4.54 0 0 1 3.32-3.32 4.528 4.528 0 1 0-8.794 0 4.53 4.53 0 0 1 3.32 3.32"/><path fill="#0D74F5" d="M13.077 13.076a4.5 4.5 0 0 0-2.153 0 4.53 4.53 0 0 1-3.32 3.32 4.527 4.527 0 1 0 8.794 0 4.53 4.53 0 0 1-3.32-3.32"/><path fill="#4494F7" d="M17.474 7.473c-.362 0-.724.044-1.076.13a4.53 4.53 0 0 1-3.32 3.32 4.5 4.5 0 0 0 0 2.153 4.53 4.53 0 0 1 3.32 3.32 4.528 4.528 0 1 0 1.076-8.924z"/><path fill="#005CF4" d="M10.924 13.076a4.5 4.5 0 0 0 0-2.153 4.53 4.53 0 0 1-3.32-3.32 4.527 4.527 0 1 0 0 8.795 4.53 4.53 0 0 1 3.32-3.322"/><path fill="#186EF9" d="M13.077 10.924a4.53 4.53 0 0 0 3.32-3.32 4.53 4.53 0 0 0-3.32 3.32"/><path fill="#0246F2" d="M13.077 13.076a4.53 4.53 0 0 0 3.32 3.32 4.53 4.53 0 0 0-3.32-3.32"/><path fill="#0046F8" d="M10.924 10.924a4.53 4.53 0 0 0-3.321-3.32 4.54 4.54 0 0 0 3.32 3.32"/><path fill="#0729F1" d="M10.924 13.076a4.53 4.53 0 0 0-3.321 3.32 4.53 4.53 0 0 0 3.32-3.32"/><path fill="#7ABDF7" d="M10.924 10.924a4.5 4.5 0 0 0 2.153 0 4.54 4.54 0 0 1 3.32-3.32 4.528 4.528 0 1 0-8.794 0 4.53 4.53 0 0 1 3.32 3.32"/><path fill="#0D74F5" d="M13.077 13.076a4.5 4.5 0 0 0-2.153 0 4.53 4.53 0 0 1-3.32 3.32 4.527 4.527 0 1 0 8.794 0 4.53 4.53 0 0 1-3.32-3.32"/><path fill="#4494F7" d="M17.474 7.473c-.362 0-.724.044-1.076.13a4.53 4.53 0 0 1-3.32 3.32 4.5 4.5 0 0 0 0 2.153 4.53 4.53 0 0 1 3.32 3.32 4.528 4.528 0 1 0 1.076-8.924z"/><path fill="#005CF4" d="M10.924 13.076a4.5 4.5 0 0 0 0-2.153 4.53 4.53 0 0 1-3.32-3.32 4.527 4.527 0 1 0 0 8.795 4.53 4.53 0 0 1 3.32-3.322"/><path fill="#186EF9" d="M13.077 10.924a4.53 4.53 0 0 0 3.32-3.32 4.53 4.53 0 0 0-3.32 3.32"/><path fill="#0246F2" d="M13.077 13.076a4.53 4.53 0 0 0 3.32 3.32 4.53 4.53 0 0 0-3.32-3.32"/><path fill="#0046F8" d="M10.924 10.924a4.53 4.53 0 0 0-3.321-3.32 4.54 4.54 0 0 0 3.32 3.32"/><path fill="#0729F1" d="M10.924 13.076a4.53 4.53 0 0 0-3.321 3.32 4.53 4.53 0 0 0 3.32-3.32"/></svg>