<svg xmlns="http://www.w3.org/2000/svg" fill="none" viewBox="0 0 24 24"><path fill="#62757E" fill-rule="evenodd" d="M19.944 21.333H4.056A2.053 2.053 0 0 1 2 19.288V8.38c0-1.128.533-2.012 1.667-2.012h6.356L8.078 4.423a.833.833 0 1 1 1.178-1.179L12 5.99l2.744-2.745a.833.833 0 1 1 1.178 1.18l-1.945 1.944h6.356c1.134 0 1.667.884 1.667 2.012v10.908a2.053 2.053 0 0 1-2.056 2.045m.39-2.045V8.38a.39.39 0 0 0-.39-.38H4.056a.39.39 0 0 0-.39.38v10.908c0 .205-.21.468 0 .468h16.667c.211 0 0-.263 0-.468m-2.084-.454a1.251 1.251 0 0 1 0-2.5 1.25 1.25 0 0 1 0 2.5m.417-3.333h-.834a.834.834 0 0 1 0-1.667h.834a.834.834 0 0 1 0 1.667m0-2.5h-.834a.833.833 0 1 1 0-1.667h.834a.834.834 0 0 1 0 1.666m0-2.5h-.834a.833.833 0 1 1 0-1.668h.834a.834.834 0 0 1 0 1.667m-3.333 8.333h-10a.834.834 0 0 1-.834-.833V9.667c0-.46.373-.834.833-.834h10.001c.46 0 .834.374.834.834V18c0 .46-.374.833-.834.833M6.167 10.5v6.746H14.5V10.5z" clip-rule="evenodd"/></svg>