<svg xmlns="http://www.w3.org/2000/svg" fill="none" viewBox="0 0 24 24"><path fill="#000" fill-rule="evenodd" d="M6.873.007a1.65 1.65 0 0 0-.682.298C5.617.74 5.173 1.666 4.985 2.819c-.07.436-.119 1.04-.119 1.503 0 .544.064 1.24.155 1.721.02.107.031.202.022.208l-.186.152a5.3 5.3 0 0 0-.95 1.02 5.5 5.5 0 0 0-.938 2.339 6.6 6.6 0 0 0-.024 1.357c.091.78.325 1.438.727 2.04l.13.195-.037.064c-.269.452-.498 1.105-.605 1.732-.084.496-.095.629-.095 1.294 0 .67.009.803.088 1.267.095.554.288 1.142.503 1.533.071.128.243.393.264.407.007.003-.014.067-.047.141a7.4 7.4 0 0 0-.548 1.873 5 5 0 0 0-.07.991c0 .56.03.832.148 1.279L3.42 24h1.477l-.048-.091c-.298-.552-.326-1.575-.07-2.597.118-.472.25-.819.499-1.296l.148-.29v-.177c0-.165-.003-.184-.057-.293a.9.9 0 0 0-.195-.25 1.7 1.7 0 0 1-.384-.543c-.424-.92-.506-2.286-.208-3.451.124-.486.329-.918.544-1.155a.8.8 0 0 0 .222-.53c0-.195-.068-.355-.224-.522a3.14 3.14 0 0 1-.816-1.729c-.14-.96.113-2.005.689-2.834.563-.814 1.354-1.336 2.238-1.475.198-.033.569-.028.776.01.226.04.367.028.512-.041.179-.085.268-.19.373-.431.094-.215.166-.333.36-.576.235-.29.46-.489.822-.729.414-.27.885-.467 1.353-.561.17-.035.25-.04.569-.04s.398.005.569.04c.687.14 1.37.494 1.914.997.117.109.398.457.488.602.034.057.094.177.132.267.105.241.195.346.374.43.14.068.286.082.503.045.343-.058.607-.053.943.016 1.144.23 2.14 1.173 2.581 2.437.384 1.108.276 2.267-.296 3.153-.097.15-.193.27-.333.419-.301.322-.301.722-.001 1.053.492.539.8 1.866.708 3.036-.062.772-.26 1.463-.533 1.854a2 2 0 0 1-.224.258.9.9 0 0 0-.194.25c-.054.109-.057.128-.057.293v.178l.148.29c.248.476.38.823.498 1.295.253 1.008.23 2.01-.059 2.581a1 1 0 0 0-.045.098c0 .006.33.009.733.009h.73l.02-.074.016-.06v-.001l.02-.073c.019-.076.056-.3.087-.516a9 9 0 0 0 0-1.258c-.11-.875-.294-1.57-.596-2.226-.032-.074-.053-.138-.046-.141a1.4 1.4 0 0 0 .108-.152c.376-.569.607-1.284.724-2.228.031-.26.031-1.379 0-1.628-.083-.645-.183-1.083-.348-1.525a6 6 0 0 0-.33-.7l-.037-.064.13-.194c.402-.604.637-1.262.728-2.04a6.6 6.6 0 0 0-.024-1.358 5.5 5.5 0 0 0-.94-2.339 5.3 5.3 0 0 0-.949-1.02l-.186-.152a.7.7 0 0 1 .023-.208c.208-1.087.201-2.443-.018-3.503-.19-.924-.534-1.658-.978-2.082-.355-.338-.717-.482-1.151-.455-.996.059-1.8 1.205-2.116 3.01a7 7 0 0 0-.097.726c0 .036-.007.066-.015.066a1 1 0 0 1-.149-.078A4.86 4.86 0 0 0 12 3.03c-.832 0-1.687.243-2.456.698a1 1 0 0 1-.148.078c-.008 0-.015-.03-.015-.066a7 7 0 0 0-.097-.725C8.996 1.392 8.336.319 7.46.048a2.1 2.1 0 0 0-.586-.041m.293 1.402c.249.197.524.759.683 1.388.03.113.06.244.069.292.007.047.026.152.041.233.067.365.098.76.102 1.24l.001.475-.118.175-.12.178h-.277c-.324 0-.646.041-.954.124l-.2.05-.038.01c-.033.007-.038-.003-.057-.144a8.4 8.4 0 0 1 .015-2.323c.125-.788.414-1.501.697-1.711.067-.05.079-.049.156.013m9.826-.012c.17.126.358.46.498.888.28.854.36 2.028.212 3.145-.02.14-.024.151-.057.144l-.039-.01-.199-.05a3.7 3.7 0 0 0-.954-.124h-.278l-.119-.178-.119-.175.002-.474c.004-.669.066-1.19.214-1.772.157-.623.434-1.185.68-1.382.078-.062.09-.063.159-.012" clip-rule="evenodd"/><path fill="#000" d="M11.147 12.648c-.028-.133.064-.312.195-.383a.4.4 0 0 1 .193-.032c.132-.002.172.013.39.143l.054.032.085-.053c.148-.095.229-.124.355-.124.08 0 .136.01.18.033.183.094.259.3.176.48-.043.095-.187.235-.324.314-.129.074-.14.112-.088.355.063.291.02.443-.15.525-.065.031-.1.035-.263.03-.18-.005-.191-.007-.255-.059a.42.42 0 0 1-.143-.253c0-.028.015-.128.036-.222.019-.097.033-.205.03-.243-.006-.064-.013-.073-.118-.136-.196-.12-.322-.264-.353-.407"/><path fill="#000" fill-rule="evenodd" d="M11.733 10.07a6 6 0 0 0-.655.086c-.291.06-.68.195-.951.327-.941.46-1.589 1.227-1.787 2.115-.04.176-.045.234-.045.53 0 .293.005.357.043.524.264 1.16 1.332 2.017 2.714 2.173.3.033 1.596.033 1.896 0 1.11-.125 2.064-.727 2.493-1.571.114-.226.169-.372.22-.602.039-.167.044-.23.044-.523 0-.297-.005-.355-.045-.531-.288-1.29-1.539-2.304-3.072-2.497a7 7 0 0 0-.855-.031m.644.937a3.3 3.3 0 0 1 1.44.514c.223.148.537.458.671.662.165.251.26.508.303.82.02.143.009.251-.043.482-.08.345-.332.705-.672.957a3 3 0 0 1-.689.348c-.383.122-.632.145-1.525.138-.582-.006-.686-.01-.853-.042q-.857-.16-1.35-.68c-.265-.28-.385-.535-.45-.946-.03-.192.025-.509.137-.776.136-.326.488-.73.836-.963.403-.269.934-.46 1.422-.512.187-.02.585-.02.773-.002" clip-rule="evenodd"/><path fill="#000" d="M7.158 10.265c-.305.096-.533.32-.65.639a1.2 1.2 0 0 0-.06.52c.057.309.31.59.598.667.362.095.632.033.872-.205.14-.136.215-.255.29-.448.056-.136.06-.16.06-.353l.001-.207-.072-.148a.9.9 0 0 0-.565-.472 1 1 0 0 0-.474.007m8.645.465a.9.9 0 0 1 .558-.47c.126-.035.35-.035.465 0 .395.115.66.444.724.897a.75.75 0 0 1-.08.498.86.86 0 0 1-.516.436c-.362.095-.632.033-.872-.205a1.14 1.14 0 0 1-.291-.448c-.055-.136-.059-.16-.059-.353l-.002-.207z"/></svg>