<svg xmlns="http://www.w3.org/2000/svg" fill="none" viewBox="0 0 24 24"><g clip-path="url(#a)"><path fill="#1A53F0" d="M12 24A12 12 0 1 0 12 .001 12 12 0 0 0 12 24"/><path fill="#fff" d="M8.9 12.195A2.903 2.903 0 1 0 8.906 18a2.903 2.903 0 0 0-.006-5.807m0 4.93a2.028 2.028 0 1 1-.01-4.056 2.028 2.028 0 0 1 .01 4.056m6.198-11.126a2.903 2.903 0 1 0-.003 5.806A2.903 2.903 0 0 0 15.098 6m0 4.93a2.023 2.023 0 0 1-2.023-2.02 2.02 2.02 0 1 1 2.024 2.025zM8.9 6a2.902 2.902 0 1 0 2.079.873h.822V6zm2.024 2.904a2.026 2.026 0 1 1-4.051.002 2.026 2.026 0 0 1 4.05-.002"/></g><defs><clipPath id="a"><path fill="#fff" d="M0 0h24v24H0z"/></clipPath></defs></svg>