<svg xmlns="http://www.w3.org/2000/svg" fill="none" viewBox="0 0 24 24"><g clip-path="url(#a)"><path fill="#1C347A" d="M12 24c6.627 0 12-5.373 12-12S18.627 0 12 0 0 5.373 0 12s5.373 12 12 12"/><path fill="#fff" d="M8.142 6.077A7.1 7.1 0 0 0 6.07 8.155V6.077zM17.895 8.1a7.1 7.1 0 0 0-2.037-2.022h2.037zm-2.007 9.804a7.1 7.1 0 0 0 2.007-2.002v2.002zm-9.82-2.058a7.1 7.1 0 0 0 2.044 2.058H6.07zM18.5 12c0 3.584-2.916 6.5-6.5 6.5A6.507 6.507 0 0 1 5.5 12c0-3.584 2.916-6.5 6.5-6.5s6.5 2.916 6.5 6.5M12 16.74A4.745 4.745 0 0 0 16.74 12 4.745 4.745 0 0 0 12 7.26 4.745 4.745 0 0 0 7.26 12 4.745 4.745 0 0 0 12 16.74"/></g><defs><clipPath id="a"><path fill="#fff" d="M0 0h24v24H0z"/></clipPath></defs></svg>