<svg xmlns="http://www.w3.org/2000/svg" fill="none" viewBox="0 0 24 24"><path fill="#fff" d="m6.46 13.272.528-3.978-4.59-3.186 4.193 1.42.99-1.519 3.616-2.245 7.972 4.39.413 6.703-3.55 4.935-2.805.43 1.452-2.658v-2.559l-1.056-1.997-1.073-.71-1.651 1.7v1.8l-1.287 1.205-1.635.198-.726.412-1.189-.38-.495-1.782.892-1.254z"/><path fill="#94A6C3" d="M13.788 6.075c-.874-.181-1.832-.132-1.832-.132s-.313 1.453-2.262 1.832c.017 0 2.576.875 4.094-1.7m.793 13.173c1.056-.826 1.848-1.965 2.212-3.252.016-.05.165-.132.264-.198.165-.1.33-.182.363-.314q.1-.582.099-1.172c0-.148-.149-.297-.297-.445-.116-.1-.231-.215-.231-.298a6.3 6.3 0 0 0-1.964-3.928l-.116.115a6.15 6.15 0 0 1 1.915 3.83c.016.132.148.264.28.396.116.1.248.248.248.314q0 .57-.1 1.139c-.016.066-.164.132-.28.198-.165.082-.313.165-.347.297a6.1 6.1 0 0 1-2.509 3.417c.215-.462.892-1.965 1.255-2.724l-.066-2.443-2.096-2.03-1.189.165-1.304 2.113s.611.776-.247 1.683c-.843.892-1.503 1.09-1.503 1.09l-.61-.33c.18-.231.544-.578.825-.809.479-.396.957-.43.957-.858.017-.892-.94-.644-.94-.644l-.347.33-.149 1.221-.726.908-.082-.016-1.189-.265s.726-.38.841-.808c.116-.413-.23-1.783-.247-1.865.016.016.347.297.495.76.264-.727.611-1.42.71-1.487.1-.066 1.436-.775 1.436-.775l-.446 1.171.33-.181.793-1.948s.776-.38 1.354-.38c1.04-.016 2.575-1.287 1.881-3.565.198.082 3.632 1.8 4.226 5.167.446 2.59-1.023 5.018-3.5 6.42"/><path fill="#1B314F" d="M10.652 6.438c.38-.445.231-1.105.231-1.105L9.778 6.966c-.017 0 .396.017.874-.528m-3.714 8.93.132-.66s-.545.958-.594 1.09c-.05.149.033.412.247.396.215-.017.48-.33.48-.561 0-.297-.265-.264-.265-.264"/><path fill="#1B314F" d="M16.743 4.87s.825.033 1.684.132c-1.932-1.518-3.764-1.964-5.25-1.964-2.046 0-3.433.842-3.516.891l.644-1.023S7.73 2.658 6.822 5.382c-.231-.578-.445-1.42-.445-1.42s-1.337 1.172-.71 3.12c-1.535-.561-3.73-1.337-3.813-1.354-.116-.016-.15.034-.15.034s-.032.049.067.132c.182.148 3.648 2.707 4.408 3.202-.166.594-.166.875 0 1.156.23.38.247.577.214.858-.033.28-.33 2.707-.396 3.004s-.76 1.354-.727 1.667c.034.314.463 1.65.843 1.8.28.099.973.313 1.436.313.164 0 .313-.033.38-.1.28-.247.362-.296.56-.296h.05c.083 0 .181.017.297.017.264 0 .611-.05.858-.281.364-.364.99-.859 1.189-1.09a1.54 1.54 0 0 0 .314-1.172c-.05-.396.165-.743.412-1.089q.444-.58.892-1.156c1.139.859 1.848 2.163 1.848 3.615 0 2.575-2.245 4.655-5.018 4.655a5.3 5.3 0 0 1-1.254-.148c1.27.445 2.344.594 3.219.594 1.865 0 2.855-.677 2.855-.677s-.346.446-.908.958h.017c3.087-.43 4.589-2.971 4.589-2.971s-.116.825-.264 1.386c4.11-3.087 3.417-6.95 3.4-7.081.033.049.446.544.66.809.66-6.801-4.902-8.997-4.902-8.997m-6.322 10.862c-.066.082-.347.33-.545.511-.198.182-.413.363-.578.529q-.099.099-.396.099h-.495c.248-.33.974-1.09 1.222-1.255.297-.198.446-.396.264-.742-.181-.348-.66-.265-.66-.265s.28-.116.528-.116c-.313-.082-.71 0-.892.182-.198.181-.165.825-.247 1.238-.083.43-.363.644-.792 1.04-.232.215-.397.28-.529.28a6 6 0 0 1-.842-.214c-.165-.214-.412-.924-.478-1.221.049-.165.247-.512.346-.71.198-.38.314-.594.347-.793.066-.28.28-2.013.363-2.74.215.281.512.743.446 1.04.479-.677.132-1.337-.033-1.6-.149-.265-.347-.793-.181-1.354.164-.562.759-2.113.759-2.113s.198.347.478.28 2.542-3.466 2.542-3.466.611 1.337-.033 2.31c-.66.975-1.304 1.157-1.304 1.157s.908.164 1.75-.446c.346.808.677 1.65.693 1.766-.05.116-.71 1.7-.775 1.799-.034.033-.265.1-.43.132-.28.083-.445.132-.511.182-.116.099-.644 1.551-.892 2.261a1.37 1.37 0 0 0-.809.578c.116-.083.48-.132.743-.165.231-.017.94.363 1.123 1.073v.033a1.05 1.05 0 0 1-.182.71m-1.552.198c.149-.215.132-.578.149-.694s.049-.33.18-.363c.133-.033.447.017.447.248 0 .215-.231.264-.396.413-.116.115-.347.363-.38.396m6.586-3.153a7.8 7.8 0 0 0 .132-2.162 6.05 6.05 0 0 1 1.156 2.97c.016.133.148.265.28.397.116.1.248.231.248.313q0 .57-.099 1.14c-.017.049-.165.132-.28.198-.166.082-.314.165-.347.297a6.15 6.15 0 0 1-2.179 3.186c1.535-1.601 2.278-4.242 1.09-6.34m-1.04 6.487c1.074-.825 1.899-1.98 2.262-3.285.016-.05.165-.132.264-.198.165-.082.33-.181.363-.313q.1-.582.1-1.173c0-.148-.15-.296-.298-.445-.083-.099-.215-.215-.215-.297a6.45 6.45 0 0 0-1.353-3.285c-.33-1.981-1.65-2.592-1.684-2.608.033.05.892 1.287.297 2.74-.61 1.469-2.179 1.238-2.31 1.254-.133 0-.644.66-1.288 1.882a1.8 1.8 0 0 0-.826-.05c.297-.825.743-1.997.826-2.096.033-.033.28-.099.446-.148.313-.083.462-.132.511-.198.033-.05.198-.43.363-.826.149 0 .528-.033.562-.05.032-.032.346-.84.346-.94 0-.083-.644-1.684-.891-2.294.115-.132.231-.298.346-.48a6.76 6.76 0 0 1 6.026 6.719 6.76 6.76 0 0 1-3.847 6.091"/><path fill="#1B314F" d="M10.024 10.35c.314-.363.149-1.04-.429-1.155.149-.347.363-1.04.363-1.04s-1.683 2.641-1.832 2.69c-.149.05-.297-.527-.297-.527-.314 1.204.528 1.37.627.99.462-.116 1.255-.611 1.568-.958"/><path fill="#FFD923" d="m8.588 10.995.859-1.47s.495.248.248.644c-.314.462-1.107.825-1.107.825"/><path fill="#D82122" d="M19.202 17.795c-.247.33-.528.677-.858 1.007 2.13-4.093.1-7.84.016-7.99.15.15.298.315.43.463 1.634 1.816 1.832 4.54.412 6.52m1.981-5.266c-.742-1.997-1.8-3.697-4.126-5.232-2.245-1.486-4.656-1.37-4.788-1.354h-.033q.121-.045.248-.066c.512-.165 1.172-.297 1.832-.38 1.75-.247 3.516.347 4.721 1.618l.033.033c1.37 1.453 2.08 3.268 2.113 5.381m-4.655-8.17c-2.46-.463-4.044-.231-5.183.198a5 5 0 0 0-.248-.611c-.346.413-.71.908-.94 1.221-.628.43-.892.842-.892.842.363-1.238 1.42-2.162 2.707-2.393q.59-.103 1.189-.1a7.75 7.75 0 0 1 3.367.843M7.433 7.528C5.501 7.462 6.145 5.217 6.18 5.085c0 .016.132 1.766 1.254 2.443m1.898-4.044c-1.486.891-1.188 3.02-1.188 3.02-1.42-2.162 1.073-2.97 1.188-3.02"/><path fill="#fff" d="M6.888 8.122c.1.083.198.231.083.446-.066.115-.165.099-.314.033-.198-.1-1.387-.792-2.46-1.503 1.222.43 2.46.892 2.658.99z"/></svg>