<svg xmlns="http://www.w3.org/2000/svg" fill="none" viewBox="0 0 24 24"><path fill="#fff" d="m6.46 13.272.528-3.978-4.59-3.186 4.194 1.42.99-1.519 3.615-2.245 7.973 4.39.412 6.703-3.55 4.935-2.805.43 1.452-2.658v-2.559l-1.056-1.997-1.073-.71-1.65 1.7v1.8l-1.288 1.205-1.635.198-.726.412-1.188-.38-.495-1.782.891-1.255v-.924Z"/><path fill="#94A6C3" d="M13.788 6.075c-.874-.182-1.832-.132-1.832-.132s-.313 1.453-2.262 1.832c.017 0 2.576.875 4.094-1.7Zm.793 13.172c1.056-.825 1.848-1.964 2.212-3.251.016-.05.165-.132.264-.198.165-.1.33-.182.363-.314.066-.387.1-.78.099-1.172 0-.148-.149-.297-.297-.446-.116-.099-.231-.214-.231-.297a6.291 6.291 0 0 0-1.964-3.929l-.116.116a6.146 6.146 0 0 1 1.915 3.83c.016.132.148.264.28.396.116.099.248.248.248.314 0 .38-.033.759-.1 1.138-.016.066-.164.132-.28.198-.165.083-.313.166-.347.298a6.101 6.101 0 0 1-2.509 3.416c.215-.462.892-1.964 1.255-2.723l-.066-2.443-2.096-2.03-1.189.165-1.304 2.113s.611.775-.247 1.683c-.843.891-1.503 1.09-1.503 1.09l-.61-.33c.18-.232.544-.578.825-.81.479-.395.957-.429.957-.858.017-.891-.94-.643-.94-.643l-.347.33-.149 1.221-.726.908-.082-.017-1.189-.264s.726-.38.841-.808c.116-.413-.23-1.783-.247-1.866.016.017.347.298.495.76.264-.726.611-1.42.71-1.486.1-.066 1.436-.776 1.436-.776l-.446 1.172.33-.181.793-1.948s.776-.38 1.354-.38c1.04-.016 2.575-1.288 1.881-3.565.198.082 3.632 1.799 4.226 5.166.446 2.592-1.023 5.018-3.5 6.422Z"/><path fill="#1B314F" d="M10.652 6.438c.38-.445.23-1.105.23-1.105L9.778 6.966c-.016 0 .397.017.875-.528Zm-3.714 8.93.132-.66s-.545.958-.594 1.09c-.05.148.033.412.247.396.215-.017.48-.33.48-.562 0-.296-.265-.264-.265-.264Z"/><path fill="#1B314F" d="M16.743 4.87s.825.033 1.684.132c-1.932-1.518-3.764-1.964-5.25-1.964-2.046 0-3.433.842-3.516.891l.644-1.023S7.73 2.658 6.822 5.382c-.23-.578-.445-1.42-.445-1.42s-1.337 1.172-.71 3.12c-1.535-.561-3.73-1.337-3.813-1.354-.116-.016-.149.034-.149.034s-.033.049.066.132C1.953 6.042 5.42 8.6 6.18 9.096c-.166.594-.166.875 0 1.155.23.38.247.578.214.859-.033.28-.33 2.707-.396 3.004-.066.297-.76 1.354-.726 1.667.033.314.462 1.65.842 1.8.28.098.973.313 1.436.313.165 0 .313-.033.38-.1.28-.247.363-.296.56-.296h.05c.083 0 .182.016.297.016.264 0 .611-.05.858-.28.364-.364.99-.859 1.189-1.09a1.536 1.536 0 0 0 .314-1.172c-.05-.396.165-.743.412-1.09.296-.386.593-.77.892-1.155 1.139.859 1.849 2.163 1.849 3.615 0 2.575-2.245 4.655-5.019 4.655-.422 0-.843-.05-1.254-.148 1.271.445 2.344.594 3.219.594 1.865 0 2.855-.677 2.855-.677s-.346.446-.907.958h.016c3.087-.43 4.589-2.972 4.589-2.972s-.116.826-.264 1.387c4.11-3.087 3.417-6.95 3.4-7.082.033.05.446.545.66.81.66-6.802-4.902-8.997-4.902-8.997Zm-6.322 10.862c-.066.082-.347.33-.545.511-.198.182-.413.363-.578.529-.066.066-.198.098-.396.098h-.495c.248-.33.974-1.089 1.222-1.254.297-.198.446-.396.264-.743-.181-.347-.66-.264-.66-.264s.28-.116.528-.116c-.313-.082-.71 0-.891.182-.198.181-.166.825-.248 1.238-.083.43-.363.644-.792 1.04-.232.215-.396.28-.528.28a5.695 5.695 0 0 1-.843-.214c-.164-.215-.412-.924-.478-1.221.05-.165.248-.512.346-.71.198-.38.314-.595.347-.793.066-.28.28-2.013.363-2.74.215.281.512.743.446 1.04.479-.677.132-1.337-.033-1.601-.148-.264-.347-.792-.181-1.353.165-.562.759-2.113.759-2.113s.198.346.478.28c.281-.066 2.543-3.466 2.543-3.466s.61 1.337-.034 2.31c-.66.975-1.304 1.156-1.304 1.156s.908.165 1.75-.446c.347.81.677 1.651.693 1.767-.049.115-.71 1.7-.775 1.799-.034.033-.264.1-.43.132-.28.083-.445.132-.511.182-.116.099-.644 1.551-.892 2.261a1.365 1.365 0 0 0-.808.578c.115-.083.478-.132.742-.165.231-.017.941.363 1.123 1.073v.033a1.05 1.05 0 0 1-.182.71Zm-1.552.198c.149-.215.132-.578.149-.694.016-.115.049-.33.181-.363.132-.033.446.017.446.248 0 .214-.23.264-.396.413-.116.115-.347.363-.38.396Zm6.586-3.153a7.824 7.824 0 0 0 .132-2.162 6.05 6.05 0 0 1 1.156 2.97c.016.133.148.265.28.397.116.099.248.231.248.313 0 .38-.033.76-.099 1.14-.017.049-.165.132-.28.197-.165.083-.314.166-.347.298a6.146 6.146 0 0 1-2.179 3.185c1.535-1.6 2.278-4.242 1.09-6.338Zm-1.04 6.487c1.074-.825 1.899-1.98 2.262-3.285.016-.05.165-.132.264-.198.165-.083.33-.181.363-.313.067-.388.1-.78.1-1.173 0-.148-.15-.297-.298-.445-.083-.1-.215-.215-.215-.297a6.449 6.449 0 0 0-1.353-3.285c-.33-1.981-1.65-2.592-1.684-2.608.033.05.892 1.287.297 2.74-.61 1.469-2.178 1.238-2.31 1.254-.133 0-.644.66-1.288 1.882a1.807 1.807 0 0 0-.825-.05c.296-.825.742-1.997.825-2.096.033-.033.28-.099.446-.148.313-.083.462-.132.511-.198.033-.05.198-.43.363-.826.149 0 .529-.033.562-.05.032-.032.346-.841.346-.94 0-.083-.644-1.684-.891-2.295.115-.132.231-.297.347-.478a6.761 6.761 0 0 1 6.025 6.718 6.759 6.759 0 0 1-3.847 6.091Z"/><path fill="#1B314F" d="M10.024 10.35c.314-.363.15-1.04-.428-1.155.148-.347.362-1.04.362-1.04s-1.683 2.64-1.832 2.69c-.148.05-.297-.527-.297-.527-.314 1.204.529 1.37.627.99.463-.116 1.255-.611 1.569-.958Z"/><path fill="#FFD923" d="m8.588 10.994.859-1.469s.495.248.248.644c-.314.462-1.107.825-1.107.825Z"/><path fill="#D82122" d="M19.202 17.795a9.29 9.29 0 0 1-.858 1.007c2.13-4.093.1-7.84.016-7.99.15.15.298.314.43.463 1.634 1.816 1.832 4.54.412 6.52Zm1.981-5.266c-.742-1.997-1.8-3.697-4.127-5.232-2.244-1.486-4.655-1.37-4.787-1.354h-.033c.08-.03.164-.052.248-.066.512-.165 1.172-.297 1.832-.38 1.75-.247 3.516.347 4.721 1.618l.033.033c1.37 1.453 2.08 3.268 2.113 5.381Zm-4.655-8.17c-2.46-.463-4.044-.232-5.183.197a4.692 4.692 0 0 0-.248-.61c-.346.412-.71.908-.94 1.221-.628.43-.892.842-.892.842.363-1.238 1.42-2.162 2.707-2.394.393-.068.79-.101 1.189-.098a7.754 7.754 0 0 1 3.367.841ZM7.433 7.527c-1.932-.065-1.288-2.31-1.253-2.442 0 .016.132 1.766 1.254 2.443Zm1.898-4.044c-1.486.891-1.188 3.02-1.188 3.02-1.42-2.162 1.073-2.97 1.188-3.02Z"/><path fill="#fff" d="M6.888 8.122c.1.083.198.23.083.446-.066.115-.165.099-.314.033-.198-.1-1.387-.793-2.46-1.503 1.222.43 2.46.892 2.658.99l.033.034Z"/></svg>