<svg xmlns="http://www.w3.org/2000/svg" fill="none" viewBox="0 0 24 24"><g clip-path="url(#a)"><path fill="#000" d="M12 24c6.627 0 12-5.373 12-12S18.627 0 12 0 0 5.373 0 12s5.373 12 12 12"/><path fill="#fff" fill-rule="evenodd" d="M11.986 17.316c3.402 0 5.98-2.28 6.514-5.262h-2.902c-.434 1.583-1.781 2.743-3.578 2.743-1.783 0-3.147-1.168-3.6-2.743H5.5c.515 2.993 3.07 5.262 6.486 5.262" clip-rule="evenodd"/><path fill="#fff" d="M12.003 7.68a1.498 1.498 0 1 0 0-2.996 1.498 1.498 0 0 0 0 2.996"/><path fill="#fff" fill-rule="evenodd" d="M8.259 12.054v-.03c0-2.13 1.525-3.868 3.725-3.868s3.758 1.768 3.761 3.897z" clip-rule="evenodd"/></g><defs><clipPath id="a"><path fill="#fff" d="M0 0h24v24H0z"/></clipPath></defs></svg>