<svg xmlns="http://www.w3.org/2000/svg" fill="none" viewBox="0 0 24 24"><g clip-path="url(#a)"><path fill="#25AAE1" d="M12 24c6.627 0 12-5.373 12-12S18.627 0 12 0 0 5.373 0 12s5.373 12 12 12Z"/><path fill="#fff" fill-rule="evenodd" d="M12.231 17.995c-1.093.012-2.011-.185-2.877-.615-.053-.027-.093-.028-.146.002a4.791 4.791 0 0 1-1.701.575c-.256.033-.515.069-.772.016a.91.91 0 0 1-.498-1.506c.306-.347.535-.755.673-1.196a.143.143 0 0 0-.018-.133 5.715 5.715 0 0 1-.851-2.479c-.196-1.948.41-3.617 1.807-4.985a5.722 5.722 0 0 1 3.242-1.602c1.691-.248 3.232.143 4.587 1.192 1.208.936 1.96 2.168 2.222 3.674.332 1.905-.15 3.603-1.427 5.053-.945 1.072-2.145 1.709-3.557 1.935-.268.043-.54.055-.684.07Zm-4.287-1.592c.044-.012.069-.018.094-.026a4.05 4.05 0 0 0 1.062-.545c.235-.165.466-.173.714-.032.53.304 1.1.493 1.71.558.99.106 1.926-.083 2.763-.62 1.446-.928 2.166-2.264 2.088-3.994-.05-1.108-.484-2.065-1.27-2.844-.947-.939-2.1-1.367-3.435-1.275a4.12 4.12 0 0 0-2.406.95c-1.342 1.12-1.86 2.556-1.563 4.278.097.567.323 1.087.642 1.567a.734.734 0 0 1 .114.599 5.44 5.44 0 0 1-.32.966c-.06.136-.123.268-.192.418Zm4.061-6.941.38.771c.133.274.27.547.4.823.034.072.078.097.153.107.56.078 1.12.16 1.678.24.02.004.04.01.063.014-.103.107-.2.21-.3.309-.316.308-.633.616-.951.921-.056.054-.078.104-.063.186.1.562.194 1.125.288 1.688l.004.056c-.03-.012-.054-.02-.075-.03-.495-.261-.99-.521-1.483-.786-.066-.036-.119-.04-.188-.002-.496.265-.994.526-1.492.787-.02.011-.041.02-.08.039.025-.152.046-.287.07-.422.078-.454.156-.91.24-1.364.011-.066-.026-.098-.063-.134-.397-.39-.795-.78-1.194-1.168-.022-.023-.054-.036-.082-.053l.02-.032.611-.088c.384-.055.767-.11 1.152-.163.061-.01.09-.042.115-.094.251-.512.505-1.024.758-1.536l.04-.07Z" clip-rule="evenodd"/></g><defs><clipPath id="a"><path fill="#fff" d="M0 0h24v24H0z"/></clipPath></defs></svg>