<svg xmlns="http://www.w3.org/2000/svg" fill="none" viewBox="0 0 24 24"><g clip-path="url(#a)"><path fill="#25AAE1" d="M12 24c6.627 0 12-5.373 12-12S18.627 0 12 0 0 5.373 0 12s5.373 12 12 12"/><path fill="#fff" fill-rule="evenodd" d="M12.23 17.995c-1.093.012-2.01-.185-2.876-.615-.053-.027-.093-.028-.146.002a4.8 4.8 0 0 1-1.701.575c-.256.033-.515.069-.772.016a.91.91 0 0 1-.498-1.506c.305-.347.535-.755.673-1.196a.14.14 0 0 0-.018-.133 5.7 5.7 0 0 1-.851-2.479c-.196-1.948.41-3.617 1.806-4.985a5.72 5.72 0 0 1 3.242-1.602c1.692-.248 3.233.143 4.587 1.192 1.208.936 1.96 2.168 2.222 3.674.332 1.905-.148 3.603-1.426 5.053-.945 1.072-2.145 1.709-3.557 1.935-.268.043-.54.055-.684.07m-4.286-1.592c.043-.012.069-.018.093-.026a4 4 0 0 0 1.063-.545c.235-.165.466-.173.714-.032.53.304 1.099.493 1.709.558.991.106 1.927-.083 2.763-.62 1.447-.928 2.167-2.264 2.089-3.994-.05-1.108-.484-2.065-1.27-2.844-.947-.939-2.1-1.367-3.436-1.275a4.12 4.12 0 0 0-2.405.95c-1.343 1.12-1.86 2.556-1.563 4.278.097.567.323 1.087.642 1.567a.73.73 0 0 1 .114.599 5.4 5.4 0 0 1-.32.966c-.06.136-.124.268-.192.418m4.06-6.941.38.771c.134.274.272.547.4.823.034.072.079.097.154.107q.84.119 1.678.24l.063.014c-.103.107-.2.21-.3.309q-.474.463-.951.921c-.056.054-.078.104-.063.186.1.562.193 1.125.288 1.688l.004.056-.075-.03q-.743-.39-1.483-.786c-.067-.036-.119-.04-.188-.002q-.745.396-1.492.787c-.02.011-.042.02-.08.039.024-.152.046-.287.07-.422q.116-.682.24-1.364c.011-.066-.026-.098-.063-.134q-.596-.585-1.194-1.168c-.022-.023-.054-.036-.082-.053l.02-.032.61-.088q.576-.083 1.153-.163c.061-.01.09-.042.114-.094l.758-1.536.04-.07" clip-rule="evenodd"/></g><defs><clipPath id="a"><path fill="#fff" d="M0 0h24v24H0z"/></clipPath></defs></svg>