<svg xmlns="http://www.w3.org/2000/svg" fill="none" viewBox="0 0 24 24"><g clip-path="url(#a)"><path fill="#FF0420" d="M12 24c6.627 0 12-5.373 12-12S18.627 0 12 0 0 5.373 0 12s5.373 12 12 12"/><path fill="#fff" fill-rule="evenodd" d="M6.744 14.683q.684.504 1.757.504c.864 0 1.555-.197 2.069-.6.518-.408.878-1.027 1.09-1.848.129-.504.235-1.027.326-1.56q.043-.288.043-.475 0-.627-.317-1.08a1.9 1.9 0 0 0-.864-.686 3.1 3.1 0 0 0-1.243-.236q-2.55 0-3.163 2.477a29 29 0 0 0-.331 1.56c-.03.192-.044.35-.044.485q0 .945.677 1.46m2.741-1.09a1.3 1.3 0 0 1-.854.298c-.576 0-.87-.273-.864-.83q.001-.201.038-.38c.11-.585.216-1.075.326-1.478q.152-.618.504-.912a1.32 1.32 0 0 1 .864-.297q.857 0 .855.82-.002.202-.039.39c-.072.422-.177.911-.316 1.478q-.153.617-.514.912m2.548 1.652c.038.043.086.062.153.062h1.224q.094.001.173-.062a.26.26 0 0 0 .1-.163l.414-1.973h1.214q1.18.001 1.858-.495.69-.495.912-1.53.05-.247.052-.471-.001-.784-.614-1.2Q16.916 9 15.916 9H13.52q-.094 0-.173.062a.24.24 0 0 0-.101.164l-1.243 5.856q-.015.092.029.163m3.998-3.586c-.187.14-.403.207-.658.207H14.34l.341-1.613h1.08c.245 0 .423.048.523.144q.153.137.154.398 0 .116-.029.269a1 1 0 0 1-.379.595" clip-rule="evenodd"/></g><defs><clipPath id="a"><path fill="#fff" d="M0 0h24v24H0z"/></clipPath></defs></svg>