<svg xmlns="http://www.w3.org/2000/svg" fill="none" viewBox="0 0 24 24"><g clip-path="url(#a)"><path fill="#FF0420" d="M12 24c6.627 0 12-5.373 12-12S18.627 0 12 0 0 5.373 0 12s5.373 12 12 12Z"/><path fill="#fff" fill-rule="evenodd" d="M6.744 14.683c.456.336 1.042.504 1.757.504.864 0 1.555-.197 2.069-.6.518-.408.878-1.027 1.09-1.848.129-.504.235-1.027.326-1.56.029-.192.043-.35.043-.475 0-.418-.106-.778-.317-1.08a1.89 1.89 0 0 0-.864-.686 3.104 3.104 0 0 0-1.243-.236c-1.7 0-2.755.826-3.163 2.477a29.16 29.16 0 0 0-.331 1.56c-.03.192-.044.35-.044.485 0 .629.226 1.118.677 1.46Zm2.741-1.09a1.286 1.286 0 0 1-.854.298c-.576 0-.87-.273-.864-.83 0-.135.014-.26.038-.38.11-.585.216-1.075.326-1.478.101-.413.27-.715.504-.912a1.32 1.32 0 0 1 .864-.297c.572 0 .855.273.855.82 0 .135-.015.264-.039.39-.072.422-.177.911-.316 1.478-.101.412-.274.715-.514.912Zm2.548 1.652c.038.043.086.062.153.062h1.224c.063 0 .12-.019.173-.062a.258.258 0 0 0 .1-.163l.414-1.973h1.214c.787 0 1.406-.163 1.858-.495.46-.33.763-.84.912-1.53.033-.164.052-.322.052-.471 0-.523-.206-.922-.614-1.2-.403-.274-.936-.413-1.603-.413H13.52a.27.27 0 0 0-.173.062.24.24 0 0 0-.101.164l-1.243 5.856c-.01.062 0 .115.029.163Zm3.998-3.586c-.187.14-.403.207-.658.207h-1.032l.341-1.613h1.08c.245 0 .423.048.523.144.101.091.154.225.154.398 0 .077-.01.168-.029.269a.987.987 0 0 1-.379.595Z" clip-rule="evenodd"/></g><defs><clipPath id="a"><path fill="#fff" d="M0 0h24v24H0z"/></clipPath></defs></svg>