<svg xmlns="http://www.w3.org/2000/svg" fill="none" viewBox="0 0 24 24"><g clip-path="url(#a)"><path fill="#FF0420" d="M12 24c6.627 0 12-5.373 12-12S18.627 0 12 0 0 5.373 0 12s5.373 12 12 12Z"/><path fill="#fff" fill-rule="evenodd" d="M6.744 14.683c.456.336 1.042.504 1.757.504.864 0 1.555-.197 2.069-.6.518-.408.878-1.027 1.09-1.848.129-.504.234-1.027.325-1.56.03-.192.044-.35.044-.475 0-.418-.106-.778-.317-1.08a1.89 1.89 0 0 0-.864-.686 3.104 3.104 0 0 0-1.243-.236c-1.7 0-2.755.826-3.163 2.477a29.16 29.16 0 0 0-.332 1.56c-.028.192-.043.35-.043.485 0 .629.226 1.118.677 1.46Zm2.74-1.09a1.286 1.286 0 0 1-.854.298c-.576 0-.868-.273-.864-.83 0-.135.015-.26.039-.38.11-.585.216-1.075.326-1.478.1-.413.269-.715.504-.912a1.32 1.32 0 0 1 .864-.297c.571 0 .854.273.854.82 0 .135-.014.264-.038.39-.072.422-.178.911-.317 1.478-.1.412-.273.715-.513.912Zm2.548 1.652a.192.192 0 0 0 .154.062h1.224c.062 0 .12-.019.173-.062a.258.258 0 0 0 .1-.163l.413-1.973h1.215c.787 0 1.406-.163 1.857-.495.461-.33.764-.84.912-1.53.034-.164.053-.322.053-.471 0-.523-.206-.922-.614-1.2-.403-.274-.936-.413-1.603-.413H13.52c-.062 0-.12.02-.172.062a.24.24 0 0 0-.101.164l-1.243 5.856c-.01.062 0 .115.028.163Zm3.999-3.586c-.187.14-.403.207-.658.207h-1.032l.341-1.613h1.08c.245 0 .422.048.523.144.101.091.154.225.154.398 0 .077-.01.168-.029.269a.987.987 0 0 1-.38.595Z" clip-rule="evenodd"/></g><defs><clipPath id="a"><path fill="#fff" d="M0 0h24v24H0z"/></clipPath></defs></svg>