<svg xmlns="http://www.w3.org/2000/svg" fill="none" viewBox="0 0 24 24"><path fill="#62757e" d="M2.8 5.6a.8.8 0 0 1 .8.8v11.8a2.2 2.2 0 0 0 2.2 2.2h11.8a.801.801 0 0 1 0 1.6H5.8A3.8 3.8 0 0 1 2 18.2V6.4a.8.8 0 0 1 .8-.8m17.394-3.598a1.8 1.8 0 0 1 1.8 1.8v13.197a1.8 1.8 0 0 1-1.8 1.8H6.997a1.8 1.8 0 0 1-1.8-1.8V3.802a1.8 1.8 0 0 1 1.8-1.8zm-13.197 1.6a.2.2 0 0 0-.2.2v13.197c0 .11.09.2.2.2h13.197a.2.2 0 0 0 .2-.2V3.802a.2.2 0 0 0-.2-.2zm9.946 2.668a.8.8 0 0 1 .8.8v6.178a.8.8 0 1 1-1.6 0V8.995l-5.328 5.303a.801.801 0 0 1-1.132-1.13l5.325-5.299h-4.243a.8.8 0 0 1 0-1.6z"/></svg>