<svg xmlns="http://www.w3.org/2000/svg" fill="none" viewBox="0 0 24 24"><mask id="a" width="20" height="21" x="2" y="2" maskUnits="userSpaceOnUse" style="mask-type:alpha"><path fill="#fff" d="M12 22.008c5.523 0 10-4.477 10-10s-4.477-10-10-10-10 4.478-10 10 4.477 10 10 10"/></mask><g mask="url(#a)"><path stroke="#5C4EFF" stroke-width=".243" d="M11.895 21.673a9.594 9.594 0 1 0 0-19.189 9.594 9.594 0 0 0 0 19.19Z"/><path stroke="#5C4EFF" stroke-width=".243" d="M11.894 20.247a8.168 8.168 0 1 0 0-16.336 8.168 8.168 0 0 0 0 16.336Z"/><path stroke="#5C4EFF" stroke-width=".243" d="M11.958 18.823a6.88 6.88 0 1 0 0-13.762 6.88 6.88 0 0 0 0 13.762Z"/><mask id="b" width="12" height="15" x="5" y="4" maskUnits="userSpaceOnUse" style="mask-type:alpha"><path fill="#fff" d="m16.1 6.003-.156-.096a7.173 7.173 0 1 0-7.477 12.244l.156.095z"/></mask><g mask="url(#b)"><path stroke="#5C4EFF" stroke-width=".467" d="M8.494 17.998A6.98 6.98 0 1 1 15.77 6.085a6.98 6.98 0 0 1-7.276 11.913Z"/></g><mask id="c" width="17" height="14" x="3" y="7" maskUnits="userSpaceOnUse" style="mask-type:alpha"><path fill="#fff" d="m19.363 16.08-.108.185a8.42 8.42 0 1 1-14.582-8.42l.106-.186z"/></mask><g mask="url(#c)"><path stroke="#5C4EFF" stroke-width=".467" d="M4.786 7.988a8.192 8.192 0 1 0 14.19 8.192 8.192 8.192 0 0 0-14.19-8.192Z"/></g><mask id="d" width="18" height="18" x="5" y="1" maskUnits="userSpaceOnUse" style="mask-type:alpha"><path fill="#fff" d="M5.033 4.84 5.875 4a8.51 8.51 0 0 1 12.037 0l1.99 1.99a8.51 8.51 0 0 1 0 12.036l-.843.842z"/></mask><g mask="url(#d)"><path stroke="#5C4EFF" stroke-width=".467" d="M18.754 18.916c3.789-3.789 3.789-9.931 0-13.72s-9.932-3.789-13.72 0a9.7 9.7 0 0 0 0 13.72c3.788 3.789 9.931 3.789 13.72 0Z"/></g><path fill="url(#e)" d="M7.773 9.556a4.904 4.904 0 1 0 8.494 4.905 4.904 4.904 0 0 0-8.494-4.905"/></g><defs><linearGradient id="e" x1="10.598" x2="16.26" y1="7.251" y2="13.483" gradientUnits="userSpaceOnUse"><stop stop-color="#8479FF"/><stop offset=".964" stop-color="#1F1F61"/></linearGradient></defs></svg>