<svg xmlns="http://www.w3.org/2000/svg" fill="none" viewBox="0 0 25 24"><path fill="#000" d="m16.332 1.835 6.92 3.995.75.433-.75.432-6.92 3.995-.75.434v-2.96c-2.186-.086-3.51-.015-5.495 1.394-2.31 1.639-2.762 1.956-3.664 2.48.819.482 1.336.848 3.53 2.404 1.984 1.41 3.309 1.479 5.494 1.394v-2.96l.75.434 6.92 3.994.75.433-.75.433-6.92 3.995-.75.434v-2.68c-2.447.071-4.98-.144-7.84-2.173-2.784-1.976-2.712-1.925-3.966-2.636-.448-.253-1.239-.537-2.094-.765a15 15 0 0 0-1.092-.25c-.346-.063-.48-.069-.451-.069v-4.05l.135.004v-.006c-.029 0 .106-.006.452-.07a15 15 0 0 0 1.092-.25c.855-.228 1.646-.512 2.093-.765 1.254-.71 1.183-.66 3.967-2.635 2.86-2.029 5.392-2.245 7.839-2.174V1.401z"/></svg>