<svg xmlns="http://www.w3.org/2000/svg" fill="none" viewBox="0 0 24 24"><path fill="#000" d="M9.205 8.736v-2.28c0-.192.072-.336.238-.432l4.543-2.64c.619-.36 1.356-.528 2.117-.528 2.854 0 4.662 2.232 4.662 4.608 0 .168 0 .36-.024.552l-4.71-2.784a.79.79 0 0 0-.856 0zm10.609 8.88v-5.448a.8.8 0 0 0-.429-.744l-5.97-3.504 1.95-1.128a.43.43 0 0 1 .476 0l4.544 2.64c1.308.768 2.188 2.4 2.188 3.984 0 1.824-1.07 3.504-2.76 4.2m-12.012-4.8-1.95-1.152c-.167-.096-.239-.24-.239-.432v-5.28c0-2.568 1.95-4.512 4.591-4.512 1 0 1.927.336 2.712.936L8.23 5.112a.8.8 0 0 0-.428.744zM12 15.264 9.205 13.68v-3.36L12 8.736l2.795 1.584v3.36zm1.796 7.296c-1 0-1.927-.336-2.712-.936l4.686-2.736a.8.8 0 0 0 .428-.744v-6.96l1.974 1.152c.167.096.238.24.238.432v5.28c0 2.568-1.974 4.512-4.614 4.512m-5.637-5.352-4.544-2.64c-1.308-.768-2.188-2.4-2.188-3.984 0-1.848 1.094-3.504 2.783-4.2v5.472c0 .336.143.576.428.744l5.947 3.48-1.95 1.128a.43.43 0 0 1-.476 0m-.262 3.936c-2.688 0-4.662-2.04-4.662-4.56 0-.192.024-.384.047-.576l4.686 2.736a.79.79 0 0 0 .856 0l5.97-3.48v2.28c0 .192-.07.336-.237.432l-4.543 2.64c-.619.36-1.356.528-2.117.528M13.796 24c2.878 0 5.28-2.064 5.827-4.8C22.287 18.504 24 15.984 24 13.416c0-1.68-.713-3.312-1.998-4.488a6.6 6.6 0 0 0 .19-1.512c0-3.432-2.759-6-5.946-6a5.6 5.6 0 0 0-1.88.312A5.94 5.94 0 0 0 10.205 0c-2.878 0-5.28 2.064-5.827 4.8C1.713 5.496 0 8.016 0 10.584c0 1.68.713 3.312 1.998 4.488a6.6 6.6 0 0 0-.19 1.512c0 3.432 2.759 6 5.946 6a5.6 5.6 0 0 0 1.88-.312A5.93 5.93 0 0 0 13.795 24"/></svg>