<svg xmlns="http://www.w3.org/2000/svg" fill="none" viewBox="0 0 24 24"><path fill="#1A82FF" d="M12 2c5.523 0 10 4.477 10 10s-4.477 10-10 10S2 17.523 2 12 6.477 2 12 2"/><path fill="#fff" d="M15.85 16.332q-1.365 1.674-3.843 1.674-2.476 0-3.843-1.674-1.367-1.675-1.367-4.329t1.366-4.329T12.007 6q2.476 0 3.843 1.674t1.366 4.33-1.366 4.328"/><path fill="#1A82FF" d="M11.988 15.673q.652 0 1.109-.355.456-.356.66-.964.205-.609.29-1.167.083-.558.083-1.184 0-.77-.093-1.379l-3.745 3.903q.52 1.144 1.696 1.146m.037-7.34q-.652 0-1.108.356a2 2 0 0 0-.662.963 7 7 0 0 0-.288 1.167 8 8 0 0 0-.084 1.184q0 .412.027.778l3.572-3.721q-.52-.727-1.457-.727"/><path fill="#1A82FF" d="m7.088 15.723-.46-.441 3.488-3.636.46.441zm6.571-3.794-.46-.44 3.488-3.636.46.44z"/></svg>