<svg xmlns="http://www.w3.org/2000/svg" fill="none" viewBox="0 0 24 24"><path fill="#1A82FF" d="M12 2c5.523 0 10 4.477 10 10s-4.477 10-10 10S2 17.523 2 12 6.477 2 12 2Z"/><path fill="#fff" d="M15.85 16.332c-.91 1.116-2.191 1.674-3.842 1.674-1.651 0-2.933-.558-3.844-1.674-.911-1.116-1.367-2.56-1.366-4.329 0-1.77.455-3.213 1.366-4.329C9.074 6.558 10.356 6 12.007 6c1.652 0 2.933.558 3.843 1.674.91 1.116 1.366 2.56 1.367 4.33 0 1.769-.456 3.212-1.366 4.328Z"/><path fill="#1A82FF" d="M11.988 15.673c.435 0 .805-.119 1.11-.355.303-.237.524-.559.66-.964a6.845 6.845 0 0 0 .372-2.351 9.19 9.19 0 0 0-.093-1.379l-3.745 3.903c.347.764.912 1.145 1.696 1.146Zm.038-7.34c-.435 0-.805.119-1.109.356a1.989 1.989 0 0 0-.661.963 6.757 6.757 0 0 0-.289 1.167 7.89 7.89 0 0 0-.083 1.184c0 .275.008.534.026.778l3.572-3.721c-.347-.484-.832-.727-1.456-.727Z"/><path fill="#1A82FF" d="m7.089 15.723-.46-.441 3.487-3.636.46.442-3.487 3.635Zm6.57-3.793-.46-.442 3.488-3.635.46.441-3.487 3.636Z"/></svg>