<svg xmlns="http://www.w3.org/2000/svg" fill="none" viewBox="0 0 24 24"><path fill="#1A82FF" d="M12 2c5.523 0 10 4.477 10 10s-4.477 10-10 10S2 17.523 2 12 6.477 2 12 2Z"/><path fill="#fff" d="M15.85 16.332c-.91 1.116-2.191 1.674-3.843 1.674-1.65 0-2.932-.558-3.843-1.674-.912-1.116-1.367-2.56-1.367-4.329 0-1.77.456-3.213 1.366-4.329C9.074 6.558 10.355 6 12.007 6c1.651 0 2.932.558 3.843 1.674.91 1.116 1.366 2.56 1.366 4.33 0 1.769-.455 3.212-1.366 4.328Z"/><path fill="#1A82FF" d="M11.988 15.673c.435 0 .804-.119 1.109-.355a1.99 1.99 0 0 0 .66-.964c.137-.406.233-.795.29-1.167.056-.372.083-.767.083-1.184 0-.514-.031-.973-.093-1.379l-3.745 3.903c.346.763.912 1.145 1.696 1.146Zm.037-7.34c-.434 0-.804.119-1.108.356a1.99 1.99 0 0 0-.662.963 6.77 6.77 0 0 0-.288 1.167 7.89 7.89 0 0 0-.084 1.184c0 .275.01.534.027.778l3.572-3.721c-.347-.484-.833-.727-1.457-.727Z"/><path fill="#1A82FF" d="m7.088 15.723-.46-.441 3.488-3.636.46.441-3.488 3.636Zm6.571-3.794-.46-.44 3.488-3.636.46.44-3.487 3.636Z"/></svg>