<svg xmlns="http://www.w3.org/2000/svg" fill="none" viewBox="0 0 24 24"><g clip-path="url(#a)"><path fill="#34445B" d="M12 24c6.627 0 12-5.373 12-12S18.627 0 12 0 0 5.373 0 12s5.373 12 12 12"/><path fill="#fff" d="m12.515 7.537 1.135-1.771a1.146 1.146 0 0 0 .468-2.242 1.146 1.146 0 0 0-1.152 1.807l-1.408 2.197a4.495 4.495 0 0 0-2.41 7.952 4.5 4.5 0 0 0 6.328-.625 4.498 4.498 0 0 0-2.961-7.318m-.517 6.845a2.38 2.38 0 0 1-2.385-2.385 2.383 2.383 0 0 1 3.741-1.962c.399.276.704.666.875 1.12a1.379 1.379 0 0 0-2.178 1.689 1.378 1.378 0 0 0 2.173.004 2.38 2.38 0 0 1-2.226 1.534"/><path fill="#fff" d="m12.515 7.537 1.135-1.771a1.146 1.146 0 0 0 .468-2.242 1.146 1.146 0 0 0-1.152 1.807l-1.408 2.197a4.495 4.495 0 0 0-2.41 7.952 4.5 4.5 0 0 0 6.328-.625 4.498 4.498 0 0 0-2.961-7.318m-.517 6.845a2.38 2.38 0 0 1-2.385-2.385 2.383 2.383 0 0 1 3.741-1.962c.399.276.704.666.875 1.12a1.379 1.379 0 0 0-2.178 1.689 1.378 1.378 0 0 0 2.173.004 2.38 2.38 0 0 1-2.226 1.534"/></g><defs><clipPath id="a"><path fill="#fff" d="M0 0h24v24H0z"/></clipPath></defs></svg>