<svg xmlns="http://www.w3.org/2000/svg" fill="none" viewBox="0 0 24 24"><g clip-path="url(#a)"><path fill="#34445B" d="M12 24c6.627 0 12-5.373 12-12S18.627 0 12 0 0 5.373 0 12s5.373 12 12 12Z"/><path fill="#fff" d="m12.515 7.537 1.135-1.771a1.146 1.146 0 0 0 .469-2.242 1.147 1.147 0 0 0-1.152 1.807l-1.409 2.197a4.495 4.495 0 0 0-2.41 7.952 4.499 4.499 0 0 0 6.328-.625 4.498 4.498 0 0 0-2.961-7.318Zm-.517 6.845a2.382 2.382 0 0 1-2.204-3.298 2.384 2.384 0 0 1 4.435.07 1.379 1.379 0 1 0-1.697 2.082 1.377 1.377 0 0 0 1.692-.388 2.38 2.38 0 0 1-2.226 1.534Z"/><path fill="#fff" d="m12.515 7.537 1.135-1.771a1.146 1.146 0 0 0 .469-2.242 1.147 1.147 0 0 0-1.152 1.807l-1.409 2.197a4.495 4.495 0 0 0-2.41 7.952 4.499 4.499 0 0 0 6.328-.625 4.498 4.498 0 0 0-2.961-7.318Zm-.517 6.845a2.382 2.382 0 0 1-2.204-3.298 2.384 2.384 0 0 1 4.435.07 1.379 1.379 0 1 0-1.697 2.082 1.377 1.377 0 0 0 1.692-.388 2.38 2.38 0 0 1-2.226 1.534Z"/></g><defs><clipPath id="a"><path fill="#fff" d="M0 0h24v24H0z"/></clipPath></defs></svg>