<svg xmlns="http://www.w3.org/2000/svg" fill="none" viewBox="0 0 24 24"><path fill="#62757E" fill-rule="evenodd" d="M21 18c0 .827-.673 1.5-1.5 1.5h-15c-.827 0-1.5-.673-1.5-1.5v-6c0-.07.022-.132.04-.197a.74.74 0 0 1-.02-.376l1.5-6.35a.75.75 0 0 1 .73-.577h1.5a.75.75 0 0 1 0 1.5h-.907l-1.24 5.25H9a.75.75 0 0 1 .75.75 2.251 2.251 0 0 0 4.5 0 .75.75 0 0 1 .75-.75h4.397L18.157 6h-.907a.75.75 0 1 1 0-1.5h1.5c.348 0 .65.24.73.577l1.5 6.35a.74.74 0 0 1-.02.376c.018.065.04.127.04.197zm-1.397-5.25h-3.93a3.76 3.76 0 0 1-3.675 3 3.754 3.754 0 0 1-3.672-3H4.499V18l15.104.02zM15 6a.75.75 0 0 1-.53-.22l-1.72-1.72v5.69a.75.75 0 1 1-1.5 0V4.06L9.53 5.78a.75.75 0 1 1-1.06-1.06l3-3a.75.75 0 0 1 1.06 0l3 3A.75.75 0 0 1 15 6" clip-rule="evenodd"/></svg>