<svg xmlns="http://www.w3.org/2000/svg" fill="none" viewBox="0 0 24 24"><g clip-path="url(#a)"><path fill="url(#b)" d="m17.01 2.733-14.5 9.19-1.246-1.967V8.261c0-.617.313-1.192.83-1.528l8.429-5.469a3.88 3.88 0 0 1 4.222 0z"/><path fill="url(#c)" d="m14.615 1.183.13.08 6.577 4.268L5.013 15.868 2.511 11.92l11.969-7.6a1.913 1.913 0 0 0 .135-3.136"/><path fill="url(#d)" fill-opacity=".2" d="m14.615 1.183.13.08 6.577 4.268L5.013 15.868 2.511 11.92l11.969-7.6a1.913 1.913 0 0 0 .135-3.136"/><path fill="url(#e)" d="M11.52 17.842 5.013 15.87 18.848 7.1a1.877 1.877 0 0 0-.006-3.174l-.062-.039.179.112 4.21 2.73c.518.337.83.912.83 1.53v1.64z"/><path fill="url(#f)" fill-opacity=".2" d="M11.52 17.842 5.013 15.87 18.848 7.1a1.877 1.877 0 0 0-.006-3.174l-.062-.039.179.112 4.21 2.73c.518.337.83.912.83 1.53v1.64z"/><path fill="url(#g)" d="M14.745 1.264a3.88 3.88 0 0 0-4.223 0L2.094 6.733c-.517.336-.83.911-.83 1.528v.083c.02.62.347 1.19.873 1.523l10.48 6.607 10.506-6.597c.545-.343.876-.942.876-1.586v1.607-1.64c0-.618-.312-1.193-.83-1.53z"/><path fill="url(#h)" d="M10.77 23.36h9.281A3.947 3.947 0 0 0 24 19.414V8.292c0 .644-.331 1.243-.877 1.586L9.315 18.546A2.56 2.56 0 0 0 8.12 20.71a2.65 2.65 0 0 0 2.65 2.65"/><path fill="url(#i)" fill-opacity=".4" d="M10.77 23.36h9.281A3.947 3.947 0 0 0 24 19.414V8.292c0 .644-.331 1.243-.877 1.586L9.315 18.546A2.56 2.56 0 0 0 8.12 20.71a2.65 2.65 0 0 0 2.65 2.65"/><path fill="url(#j)" fill-opacity=".5" d="M10.77 23.36h9.281A3.947 3.947 0 0 0 24 19.414V8.292c0 .644-.331 1.243-.877 1.586L9.315 18.546A2.56 2.56 0 0 0 8.12 20.71a2.65 2.65 0 0 0 2.65 2.65"/><path fill="url(#k)" d="M14.543 23.36H5.21a3.947 3.947 0 0 1-3.947-3.947V8.283c0 .643.33 1.24.874 1.584l13.793 8.695a2.6 2.6 0 0 1-1.387 4.798"/><path fill="url(#l)" d="M14.543 23.36H5.21a3.947 3.947 0 0 1-3.947-3.947V8.283c0 .643.33 1.24.874 1.584l13.793 8.695a2.6 2.6 0 0 1-1.387 4.798"/><path fill="url(#m)" d="M2.053 11.359h6c1.133 0 2.052.919 2.052 2.052v6a2.053 2.053 0 0 1-2.052 2.053h-6A2.053 2.053 0 0 1 0 19.41v-6c0-1.133.919-2.052 2.053-2.052"/><path fill="url(#n)" fill-opacity=".5" d="M2.053 11.359h6c1.133 0 2.052.919 2.052 2.052v6a2.053 2.053 0 0 1-2.052 2.053h-6A2.053 2.053 0 0 1 0 19.41v-6c0-1.133.919-2.052 2.053-2.052"/><path fill="#fff" d="M5.027 19.317q-1.254 0-2.058-.785-.804-.784-.804-2.046 0-1.334.816-2.157.818-.823 2.139-.823 1.249 0 2.034.788.788.788.788 2.078 0 1.326-.817 2.137-.811.807-2.098.808m.024-1.11q.684 0 1.1-.467.416-.465.416-1.297 0-.867-.404-1.35-.405-.48-1.08-.481-.694 0-1.12.498-.423.493-.424 1.309 0 .828.425 1.31.424.478 1.087.478"/><path fill="#fff" d="M5.024 19.394q-1.248 0-2.05-.805-.801-.806-.801-2.102 0-1.37.813-2.216.814-.846 2.131-.845 1.245 0 2.026.81.785.808.785 2.134 0 1.36-.813 2.195-.81.83-2.09.83m.025-1.14q.68 0 1.095-.479.415-.48.415-1.333 0-.89-.403-1.385-.402-.495-1.075-.496-.693 0-1.116.512-.423.508-.423 1.345 0 .85.423 1.345.423.492 1.084.492"/></g><defs><linearGradient id="b" x1="2.587" x2="15.815" y1="9.031" y2=".826" gradientUnits="userSpaceOnUse"><stop stop-color="#20a7fa"/><stop offset=".4" stop-color="#3bd5ff"/><stop offset="1" stop-color="#c4b0ff"/></linearGradient><linearGradient id="c" x1="8.652" x2="16.015" y1="13.953" y2="2.162" gradientUnits="userSpaceOnUse"><stop stop-color="#165ad9"/><stop offset=".501" stop-color="#1880e5"/><stop offset="1" stop-color="#8587ff"/></linearGradient><linearGradient id="d" x1="15.066" x2="6.889" y1="12.246" y2="5.584" gradientUnits="userSpaceOnUse"><stop offset=".237" stop-color="#448aff" stop-opacity="0"/><stop offset=".792" stop-color="#0032b1"/></linearGradient><linearGradient id="e" x1="10.847" x2="23.767" y1="13.639" y2="5.371" gradientUnits="userSpaceOnUse"><stop stop-color="#1a43a6"/><stop offset=".492" stop-color="#2052cb"/><stop offset="1" stop-color="#5f20cb"/></linearGradient><linearGradient id="f" x1="17.687" x2="9.836" y1="14.398" y2="7.605" gradientUnits="userSpaceOnUse"><stop stop-color="#0045b9" stop-opacity="0"/><stop offset=".67" stop-color="#0d1f69"/></linearGradient><linearGradient id="h" x1="23.999" x2="12.538" y1="15.826" y2="15.826" gradientUnits="userSpaceOnUse"><stop stop-color="#4dc4ff"/><stop offset=".196" stop-color="#0fafff"/></linearGradient><linearGradient id="l" x1="-.345" x2="10.69" y1="15.827" y2="15.819" gradientUnits="userSpaceOnUse"><stop offset=".206" stop-color="#6ce0ff"/><stop offset=".535" stop-color="#50d5ff" stop-opacity="0"/></linearGradient><radialGradient id="g" cx="0" cy="0" r="1" gradientTransform="matrix(0 -17.0532 18.4574 0 12.632 1.138)" gradientUnits="userSpaceOnUse"><stop offset=".568" stop-color="#275ff0" stop-opacity="0"/><stop offset=".992" stop-color="#002177"/></radialGradient><radialGradient id="i" cx="0" cy="0" r="1" gradientTransform="rotate(-45 32.688 -7.98)scale(7.30867)" gradientUnits="userSpaceOnUse"><stop offset=".259" stop-color="#0060d1"/><stop offset=".908" stop-color="#0383f1" stop-opacity="0"/></radialGradient><radialGradient id="j" cx="0" cy="0" r="1" gradientTransform="rotate(-52.658 28.55 8.86)scale(24.8094 22.4341)" gradientUnits="userSpaceOnUse"><stop offset=".732" stop-color="#f4a7f7" stop-opacity="0"/><stop offset="1" stop-color="#f4a7f7"/></radialGradient><radialGradient id="k" cx="0" cy="0" r="1" gradientTransform="rotate(123.339 .768 9.591)scale(13.09 33.9702)" gradientUnits="userSpaceOnUse"><stop stop-color="#49deff"/><stop offset=".724" stop-color="#29c3ff"/></radialGradient><radialGradient id="m" cx="0" cy="0" r="1" gradientTransform="rotate(46.924 -13.551 5.832)scale(13.3023)" gradientUnits="userSpaceOnUse"><stop offset=".039" stop-color="#0091ff"/><stop offset=".919" stop-color="#183dad"/></radialGradient><radialGradient id="n" cx="0" cy="0" r="1" gradientTransform="matrix(0 7.07372 -8.15928 0 5.053 17.513)" gradientUnits="userSpaceOnUse"><stop offset=".558" stop-color="#0fa5f7" stop-opacity="0"/><stop offset="1" stop-color="#74c6ff"/></radialGradient><clipPath id="a"><path fill="#fff" d="M0 0h24v24H0z"/></clipPath></defs></svg>