<svg xmlns="http://www.w3.org/2000/svg" fill="none" viewBox="0 0 24 24"><g clip-path="url(#a)"><path fill="#4392CD" d="M12 24c6.627 0 12-5.373 12-12S18.627 0 12 0 0 5.373 0 12s5.373 12 12 12"/><path fill="#fff" fill-rule="evenodd" d="M12.558 17.85h-1.116c-.837 0-1.074-.776-1.074-1.369 0-.592.042-.86.042-1.129 0-.422-.213-1.477-.6-1.92-.753-.86-1.228-1.632-1.228-2.751-.655-.339-1.813-.65-2.26-1.157-.445-.508-.822-1.229-.822-2.26q0-.395.168-1.114.385 1.203 1.185 1.65c.78.439 1.661.763 2.413.763h5.468c.752 0 1.631-.325 2.413-.762q.8-.45 1.185-1.651.168.72.168 1.114c0 1.03-.377 1.75-.823 2.259-.446.507-1.604.819-2.26 1.157 0 1.12-.474 1.891-1.227 2.752-.387.442-.6 1.497-.6 1.92 0 .268.042.536.042 1.129s-.237 1.369-1.074 1.369" clip-rule="evenodd"/></g><defs><clipPath id="a"><path fill="#fff" d="M0 0h24v24H0z"/></clipPath></defs></svg>