<svg xmlns="http://www.w3.org/2000/svg" fill="none" viewBox="0 0 24 24"><g clip-path="url(#a)"><path fill="#5F45BA" d="M12 24c6.627 0 12-5.373 12-12S18.627 0 12 0 0 5.373 0 12s5.373 12 12 12"/><path fill="#fff" d="M8.476 7.38a.735.735 0 1 1-1.265-.75.735.735 0 0 1 1.265.75m-2.509-.326a.52.52 0 1 1-.894-.53.52.52 0 0 1 .894.53m6.984 10.637a5.72 5.72 0 1 0-1.422-11.35 4.7 4.7 0 0 0-1.397.35c-.519.255-.853.678-.853 1.245 0 .736.597 1.334 1.334 1.334.123 0 .55-.135.65-.17a3.08 3.08 0 0 1 4.091 3.107 3.083 3.083 0 0 1-5.651 1.503c-.616-.806-.474-2.094-.474-2.111a1.336 1.336 0 0 0-2.624-.302c-.03.112-.046.44-.041.482a5.718 5.718 0 0 0 6.387 5.912m-5.24-8.27a.953.953 0 1 1-1.637-.974.953.953 0 0 1 1.637.974"/></g><defs><clipPath id="a"><path fill="#fff" d="M0 0h24v24H0z"/></clipPath></defs></svg>