<svg xmlns="http://www.w3.org/2000/svg" fill="none" viewBox="0 0 24 24"><path fill="#633001" fill-rule="evenodd" d="M11.993 20.883c-2.776-.002-5.011-.668-6.573-1.864C3.839 17.808 3 16.09 3 14.146c0-1.873.837-3.224 1.784-4.137a7.86 7.86 0 0 1 2.13-1.437c-.156-.48-.3-.962-.433-1.449-.193-.716-.382-1.556-.382-2.171 0-.729.16-1.46.588-2.03C7.139 2.323 7.82 2 8.64 2c.64 0 1.184.238 1.61.648.407.391.678.912.865 1.454.329.953.457 2.15.492 3.346h.786c.035-1.195.163-2.393.492-3.346.187-.542.458-1.063.865-1.454.426-.41.97-.648 1.61-.648.82 0 1.5.322 1.953.923.429.568.588 1.3.588 2.029 0 .615-.19 1.455-.382 2.171-.132.487-.277.97-.434 1.449a7.86 7.86 0 0 1 2.131 1.437c.947.913 1.784 2.264 1.784 4.137 0 1.944-.839 3.662-2.42 4.873-1.562 1.196-3.797 1.862-6.573 1.864h-.014Z" clip-rule="evenodd"/><path fill="#D1884F" d="M8.64 2.693c-1.2 0-1.753.905-1.753 2.156 0 .994.642 2.986.906 3.761a.35.35 0 0 1-.204.434c-.962.383-3.801 1.786-3.801 5 0 3.384 2.885 5.937 8.206 5.94h.012c5.321-.003 8.206-2.556 8.206-5.94 0-3.214-2.839-4.617-3.801-5a.35.35 0 0 1-.204-.434c.264-.775.906-2.767.906-3.761 0-1.251-.553-2.156-1.753-2.156-1.728 0-2.159 2.473-2.19 5.127a.322.322 0 0 1-.319.32h-1.702a.322.322 0 0 1-.32-.32c-.03-2.654-.46-5.127-2.189-5.127Z"/><path fill="#FEDC90" d="M12.006 18.9c-3.91 0-8.212-2.113-8.218-4.85v.013c0 3.388 2.89 5.941 8.218 5.941 5.33 0 8.219-2.553 8.219-5.941v-.013c-.007 2.736-4.31 4.85-8.219 4.85Z"/><path fill="#633001" d="M9.834 13.21c0 .923-.432 1.405-.965 1.405-.533 0-.966-.482-.966-1.406 0-.924.433-1.405.966-1.405.533 0 .965.481.965 1.405Zm6.275 0c0 .923-.432 1.405-.965 1.405-.533 0-.965-.482-.965-1.406 0-.924.432-1.405.965-1.405.533 0 .966.481.966 1.405Z"/></svg>