<svg xmlns="http://www.w3.org/2000/svg" fill="none" viewBox="0 0 24 24"><path fill="#62757E" fill-rule="evenodd" d="M21.652 19.845a.84.84 0 0 1-.751.111c-.052-.016-2.501-.783-8.901-.783-5.897 0-8.92.79-8.948.798A.834.834 0 0 1 2 19.173V5.827c0-.262.126-.51.338-.665a.84.84 0 0 1 .74-.126c.03.01 3.041.901 8.922.901 5.88 0 8.892-.892 8.922-.901a.84.84 0 0 1 .74.126.82.82 0 0 1 .338.665v13.346c0 .267-.13.517-.348.672M7.833 7.435c-1.91-.15-3.3-.38-4.166-.558V18.15c.86-.157 2.249-.36 4.166-.494zm1.667.1v10.034c.772-.03 1.597-.05 2.5-.05.915 0 1.735.017 2.5.044V7.534c-.773.034-1.598.058-2.5.058s-1.727-.024-2.5-.058m10.833-.658c-.865.179-2.255.408-4.166.558V17.64c1.98.125 3.33.324 4.166.485z" clip-rule="evenodd"/></svg>