<svg xmlns="http://www.w3.org/2000/svg" fill="none" viewBox="0 0 24 24"><path fill="#62757E" fill-rule="evenodd" d="M22 8.833a.833.833 0 0 1-.833.834H17v10A3.337 3.337 0 0 1 13.667 23H5.5c-.03 0-.055-.014-.083-.017-.03.003-.055.017-.085.017A3.337 3.337 0 0 1 2 19.667c0-.03.014-.055.017-.084C2.014 19.554 2 19.53 2 19.5v-2.333c0-.461.373-.834.833-.834H4.5v-10A3.336 3.336 0 0 1 7.832 3h10.667c.02 0 .037.01.056.01.038 0 .073-.01.112-.01A3.337 3.337 0 0 1 22 6.333c0 .03-.014.055-.017.084.003.029.017.054.017.083zM3.667 18v1.5c0 .03-.015.054-.017.083.002.029.017.054.017.084 0 .918.747 1.666 1.666 1.666.03 0 .055.015.084.017.029-.003.054-.017.084-.017h5.296a3.3 3.3 0 0 1-.464-1.666c0-.03.014-.055.017-.084-.002-.029-.017-.054-.017-.083V18zM7.832 4.667c-.919 0-1.665.748-1.665 1.666v10h5c.46 0 .833.373.833.834V19.5c0 .03-.014.054-.017.083.003.029.017.054.017.084 0 .918.748 1.666 1.667 1.666s1.666-.748 1.666-1.666V6.333c0-.61.177-1.174.464-1.666zm12.501 1.666c0-.918-.747-1.666-1.666-1.666-.92 0-1.667.748-1.667 1.666V8h3.333V6.5c0-.03.015-.054.017-.083-.003-.029-.017-.054-.017-.084" clip-rule="evenodd"/></svg>