<svg xmlns="http://www.w3.org/2000/svg" fill="none" viewBox="0 0 24 24"><path fill="#62757E" fill-rule="evenodd" d="M21.167 16.167h-5a.834.834 0 0 1 0-1.667h5a.834.834 0 0 1 0 1.667m0-4.167H12a.834.834 0 0 1 0-1.667h9.167a.834.834 0 0 1 0 1.667m0-4.167H12a.834.834 0 0 1 0-1.666h9.167a.834.834 0 0 1 0 1.666m0-4.166H12A.834.834 0 0 1 12 2h9.167a.834.834 0 0 1 0 1.667M13.394 15.05c.34.309.366.836.056 1.176l-5 5.5a.8.8 0 0 1-.297.206.8.8 0 0 1-.32.067.8.8 0 0 1-.33-.07c-.025-.01-.043-.032-.067-.044a.8.8 0 0 1-.204-.148q-.007-.006-.015-.01l-5-5.5a.833.833 0 0 1 1.233-1.122L7 19.012V2.833c0-.46.373-.833.833-.833s.784.373.784.833v16.233l3.6-3.96a.834.834 0 0 1 1.177-.055m1.106 3.616h6.666a.834.834 0 0 1 0 1.666H14.5a.834.834 0 0 1 0-1.666" clip-rule="evenodd"/></svg>