<svg xmlns="http://www.w3.org/2000/svg" fill="none" viewBox="0 0 24 24"><path fill="#62757E" fill-rule="evenodd" d="M21.167 17.834H12a.834.834 0 0 1-.833-.834.77.77 0 0 1 .795-.794h9.206c.46 0 .832.334.832.794s-.373.834-.833.834m0-4.167H12A.833.833 0 1 1 12 12h9.167a.833.833 0 0 1 0 1.667m0-4.167h-5a.833.833 0 1 1 0-1.666h5a.833.833 0 0 1 0 1.666m0-4.167H14.5a.833.833 0 1 1 0-1.666h6.667a.833.833 0 0 1 0 1.666m-8.332 3.833a.83.83 0 0 1-.617-.272L8.614 4.93v16.292c0 .46-.32.777-.78.777s-.894-.316-.894-.777V5.053l-3.49 3.84a.833.833 0 1 1-1.233-1.12L7.056 2.45A.92.92 0 0 1 7.833 2c.123 0 .234.03.334.077a.8.8 0 0 1 .282.196l5.002 5.5a.834.834 0 0 1-.616 1.393m-.873 11.22h9.206c.46 0 .832.321.832.781s-.373.833-.833.833H12a.833.833 0 0 1-.833-.833c0-.46.335-.78.795-.78" clip-rule="evenodd"/></svg>