<svg xmlns="http://www.w3.org/2000/svg" fill="none" viewBox="0 0 24 24"><g clip-path="url(#a)"><path fill="#03E8B0" d="M12 24c6.627 0 12-5.372 12-12 0-6.627-5.373-12-12-12S0 5.373 0 12c0 6.628 5.373 12 12 12"/><path fill="#fff" d="M11.626 5.614c.418-.182.717.204.976.462q.691.587 1.317 1.246c.239.26.142.736-.183.88-.25.137-.554.034-.745-.155-.503-.48-.983-.985-1.504-1.443-.324-.264-.258-.837.139-.99m4.572 1.331c.284-.152.739-.029.817.31.12.3-.072.597-.284.797-.465.458-.917.928-1.369 1.4a.584.584 0 0 1-.687.144c-.336-.139-.427-.642-.174-.898.57-.579 1.073-1.228 1.697-1.752zm-9.08.093c.297-.178.662-.06.882.182.492.497 1 .976 1.498 1.465.33.304.1.947-.36.95-.385.058-.59-.321-.847-.529A17 17 0 0 1 7.017 7.9c-.231-.238-.162-.676.102-.86m.383 2.934c.496-.192.98.433.67.863-.365.476-.842.86-1.24 1.31-.237.242-.456.614-.849.567-.46-.018-.69-.656-.356-.965.604-.577 1.083-1.307 1.776-1.776zm10.06 1.38c.34-.222.855.03.866.441.05.386-.333.59-.544.85-.372.446-.78.862-1.202 1.263-.308.29-.882.087-.938-.334-.072-.434.336-.703.594-.981.426-.395.786-.86 1.223-1.239m-8.766 3.053c.332-.197.834.038.842.44.062.387-.323.593-.533.852-.37.448-.783.858-1.2 1.264-.272.274-.85.142-.927-.25-.131-.38.191-.686.437-.924.476-.445.89-.954 1.381-1.382m5.89-.014c.183-.063.416-.069.57.064.575.544 1.186 1.05 1.725 1.631.167.17.182.451.071.654-.156.364-.69.373-.95.115-.523-.493-1.026-1.011-1.553-1.503-.318-.246-.244-.819.137-.961m-4.42 1.392c.273-.148.594-.008.79.2q.739.74 1.505 1.451c.338.32.109.972-.367.977-.385.045-.585-.336-.843-.545a15 15 0 0 1-1.268-1.2c-.243-.26-.144-.74.183-.883m-.877-9.674a.563.563 0 0 1-.963.398.56.56 0 0 1-.165-.398.563.563 0 0 1 .955-.386.56.56 0 0 1 .172.386m1.643 1.497a.563.563 0 1 1-1.125 0 .563.563 0 0 1 1.125 0M6.628 8.982a.563.563 0 0 1-.97.41.563.563 0 1 1 .97-.41m8.952-2.918a.563.563 0 0 1-.963.398.563.563 0 1 1 .798-.797c.106.106.165.25.165.399M18.5 8.84a.562.562 0 0 1-.963.398.563.563 0 1 1 .963-.398m-1.541 1.618a.562.562 0 0 1-.963.398.563.563 0 1 1 .963-.398m1.538 4.546a.56.56 0 0 1-.564.563.564.564 0 0 1-.398-.96.564.564 0 0 1 .962.397M14.1 16.378a.56.56 0 0 1-.564.583.565.565 0 0 1-.564-.583.563.563 0 0 1 1.128 0m1.622 1.54a.564.564 0 1 1-1.127.037.564.564 0 0 1 1.127-.037m-6.175 0a.563.563 0 0 1-.963.398.56.56 0 0 1-.165-.398.563.563 0 0 1 .956-.386c.105.101.167.24.171.386zm-1.376-4.41a.562.562 0 0 1-.784.538.565.565 0 0 1-.172-.923.564.564 0 0 1 .956.386m-1.543 1.637a.563.563 0 1 1-1.125.038.563.563 0 0 1 1.125-.038"/></g><defs><clipPath id="a"><path fill="#fff" d="M0 0h24v24H0z"/></clipPath></defs></svg>