<svg xmlns="http://www.w3.org/2000/svg" fill="none" viewBox="0 0 24 24"><g clip-path="url(#a)"><path fill="#F7931E" d="M12 24c6.627 0 12-5.373 12-12S18.627 0 12 0 0 5.373 0 12s5.373 12 12 12"/><path fill="#fff" d="M12 5.5a6.5 6.5 0 1 0 0 13 6.5 6.5 0 0 0 0-13m3.25 3.149a1.22 1.22 0 0 1 1.219 1.218v1.828a1.22 1.22 0 0 1-1.219 1.219h-1.51l-.097.457a.265.265 0 0 1-.245.203h-.306a.16.16 0 0 1-.16-.203l.098-.457h-.711l-.098.457a.264.264 0 0 1-.245.203h-.305a.16.16 0 0 1-.16-.203l.097-.457h-.762l-.67 3.149H8.553l1.187-5.587h1.625l-.259 1.219h3.13a.61.61 0 0 0 .609-.609v-.61a.61.61 0 0 0-.61-.609H7.531L8.547 8.65h3.968l.097-.457a.264.264 0 0 1 .246-.204h.305a.16.16 0 0 1 .16.204l-.097.457h.711l.097-.457a.264.264 0 0 1 .246-.204h.305a.16.16 0 0 1 .16.204l-.097.457z"/></g><defs><clipPath id="a"><path fill="#fff" d="M0 0h24v24H0z"/></clipPath></defs></svg>