<svg xmlns="http://www.w3.org/2000/svg" fill="none" viewBox="0 0 24 24"><g clip-path="url(#a)"><path fill="#00ACFF" d="M12 24c6.627 0 12-5.373 12-12S18.627 0 12 0 0 5.373 0 12s5.373 12 12 12"/><path fill="#fff" fill-rule="evenodd" d="M11.419 14.625a.322.322 0 0 1 .422.424.33.33 0 0 1-.175.176l-2.151.893-.286 1.566H7.75l.162-.9-.873.361a.32.32 0 0 1-.422-.176.325.325 0 0 1 .175-.423l1.257-.522.095-.53-1.697.705a.324.324 0 1 1-.247-.6l2.08-.864 1.515-8.413h4.278Q18 6.186 18 8.946c0 2.334-1.706 4.139-4.601 4.139h-3.332l-.178.983.939-.39a.322.322 0 0 1 .42.424.33.33 0 0 1-.174.175l-1.324.55-.097.531zm-.36-6.977-.74 4.058h3.295c2.029 0 2.798-1.38 2.798-2.381s-.484-1.677-2.098-1.677z" clip-rule="evenodd"/></g><defs><clipPath id="a"><path fill="#fff" d="M0 0h24v24H0z"/></clipPath></defs></svg>