<svg xmlns="http://www.w3.org/2000/svg" fill="none" viewBox="0 0 24 24"><path fill="currentColor" fill-rule="evenodd" d="M3 4.841a1.84 1.84 0 0 1 1.84-1.84h3.07a1.84 1.84 0 0 1 1.84 1.84v14.318A1.84 1.84 0 0 1 7.91 21H4.84A1.84 1.84 0 0 1 3 19.16V4.84Zm1.84-.205a.205.205 0 0 0-.204.205v14.318c0 .113.092.205.205.205h3.068a.205.205 0 0 0 .205-.205V4.841a.205.205 0 0 0-.205-.205H4.841Zm9.16.205a1.84 1.84 0 0 1 1.84-1.84h3.07a1.84 1.84 0 0 1 1.84 1.84v14.318A1.84 1.84 0 0 1 18.91 21h-3.07A1.84 1.84 0 0 1 14 19.16V4.84Zm1.84-.205a.204.204 0 0 0-.204.205v14.318c0 .113.092.205.205.205h3.068a.204.204 0 0 0 .205-.205V4.841a.204.204 0 0 0-.205-.205h-3.068Z" clip-rule="evenodd"/></svg>