<svg xmlns="http://www.w3.org/2000/svg" fill="none" viewBox="0 0 24 24"><path fill="#62757E" fill-rule="evenodd" d="M12 22C6.486 22 2 17.514 2 12S6.486 2 12 2s10 4.486 10 10-4.486 10-10 10m0-18.333c-4.595 0-8.333 3.738-8.333 8.333S7.405 20.333 12 20.333s8.333-3.738 8.333-8.333S16.595 3.667 12 3.667m2.5 12.5h-.833a.833.833 0 0 1-.834-.834V8.667c0-.46.373-.834.834-.834h.833c.46 0 .833.374.833.834v6.666c0 .46-.372.834-.833.834m-4.167 0H9.5a.833.833 0 0 1-.833-.834V8.667c0-.46.372-.834.833-.834h.833c.461 0 .834.374.834.834v6.666c0 .46-.373.834-.834.834" clip-rule="evenodd"/></svg>