<svg xmlns="http://www.w3.org/2000/svg" fill="none" viewBox="0 0 24 24"><g clip-path="url(#a)"><path fill="#EDE708" d="M12 24c6.627 0 12-5.373 12-12 0-6.628-5.373-12-12-12S0 5.372 0 12c0 6.627 5.373 12 12 12"/><path fill="#fff" d="m17.587 10.507.276.415c.553-1.392.426-2.48-.071-2.955-.895-.862-2.21-.382-3.635-.978-1.187-.873-1.905-1.105-2.894-1.105-.675.116-1.3.432-1.795.906a2.76 2.76 0 0 0-2.154.845c-.586.69-.718 2.585-.807 3.066-.088.48-1.104 2.419-1 3.48.106 1.06.884 2.209 3.088 2.48a4.19 4.19 0 0 0 3.314 1.452c1.155-.122 2.762-1.889 3.695-2.59.934-.702 4.259-1.31 2.276-4.574a5 5 0 0 0-.276-.414zm-5.043 4.86a3.68 3.68 0 0 1-4.115-2.242c-.121-.475-.359-2.894 1.657-4.092 1.503-.851 3.618-.967 4.508 1.016.889 1.983.563 4.761-2.05 5.319"/></g><defs><clipPath id="a"><path fill="#fff" d="M0 0h24v24H0z"/></clipPath></defs></svg>