<svg xmlns="http://www.w3.org/2000/svg" fill="none" viewBox="0 0 24 24"><path fill="#B3D234" fill-rule="evenodd" d="M7.559 4.975c.382-.435.73-.807 1.064-1.119-5.629-.182-3.99 3.915-5.824 8.08-2.112 4.795.248 6.623 3.766 7.192a7.702 7.702 0 0 1-1.189-1.958c-2.28-2.89-1.363-8.159 2.183-12.195Z" clip-rule="evenodd"/><path fill="#0095D9" fill-rule="evenodd" d="M21.102 10.083c-.524 1.485-1.485 3.152-2.844 4.793-1.059 1.278-2.236 2.285-3.452 3.014-1.404.916-3.147 1.457-5.096 1.457-1.09 0-2.163-.06-3.146-.22a6.442 6.442 0 0 0 2.107 1.661c5.088 2.478 5.41-2.125 10.794-4.462 3.023-1.311 3.034-3.876 1.637-6.243Z" clip-rule="evenodd"/><path fill="#EEE809" fill-rule="evenodd" d="M14.805 5.292a6.68 6.68 0 0 1 2.1.75c1.709.973 3.266 2.463 4.197 4.04.917-2.6.49-4.644-1.516-5.014-2.204-.406-3.928-.536-5.584-1.701-2.04-1.435-3.828-.961-5.38.489.11.003.222.008.337.015 2.152.128 4.207.55 5.846 1.421Z" clip-rule="evenodd"/><path fill="#51B849" fill-rule="evenodd" d="M7.559 4.975C4.013 9.011 3.096 14.28 5.376 17.17c-1.024-2.42-.953-5.44.49-7.85 1.922-3.21 5.776-4.609 8.939-4.027C13.165 4.421 11.112 4 8.96 3.872a14.964 14.964 0 0 0-.337-.016 15.9 15.9 0 0 0-1.064 1.12Z" clip-rule="evenodd"/><path fill="#00845D" fill-rule="evenodd" d="M16.905 6.041a6.665 6.665 0 0 0-2.1-.749c2.158 1.148 3.594 3.075 3.578 6.146-.015 2.664-1.381 5.019-3.577 6.452 1.216-.729 2.394-1.736 3.452-3.014 1.36-1.64 2.32-3.307 2.844-4.793-.931-1.578-2.488-3.068-4.197-4.042Z" clip-rule="evenodd"/><path fill="#005121" fill-rule="evenodd" d="M14.45 16.43a5.24 5.24 0 0 1-7.258-1.571c-1.571-2.445-.794-5.593 1.566-7.282 2.639-1.89 6.024-1.144 7.257 1.57 1.203 2.648.87 5.706-1.565 7.283Zm.355-11.138c-3.163-.581-7.017.818-8.939 4.027-1.443 2.41-1.515 5.43-.49 7.85.303.716.7 1.38 1.189 1.959.982.159 2.054.22 3.145.22 1.949 0 3.692-.541 5.096-1.458 2.196-1.433 3.563-3.788 3.576-6.452.017-3.07-1.42-4.999-3.577-6.146Z" clip-rule="evenodd"/></svg>