<svg xmlns="http://www.w3.org/2000/svg" fill="none" viewBox="0 0 24 24"><path fill="#B3D234" fill-rule="evenodd" d="M7.559 4.975c.382-.436.73-.807 1.064-1.119-5.629-.182-3.99 3.915-5.824 8.08-2.112 4.795.248 6.623 3.766 7.192a7.7 7.7 0 0 1-1.189-1.958c-2.28-2.89-1.363-8.159 2.183-12.195" clip-rule="evenodd"/><path fill="#0095D9" fill-rule="evenodd" d="M21.102 10.083c-.524 1.485-1.485 3.152-2.844 4.793-1.059 1.278-2.236 2.285-3.452 3.014-1.404.916-3.147 1.457-5.096 1.457-1.09 0-2.163-.06-3.146-.22a6.4 6.4 0 0 0 2.107 1.66c5.089 2.48 5.41-2.125 10.794-4.46 3.023-1.313 3.034-3.877 1.637-6.244" clip-rule="evenodd"/><path fill="#EEE809" fill-rule="evenodd" d="M14.805 5.292a6.7 6.7 0 0 1 2.1.749c1.709.974 3.266 2.464 4.197 4.042.917-2.6.49-4.645-1.516-5.015-2.204-.406-3.928-.537-5.584-1.701-2.04-1.435-3.828-.962-5.38.489q.165.004.337.015c2.153.127 4.207.55 5.846 1.42" clip-rule="evenodd"/><path fill="#51B849" fill-rule="evenodd" d="M7.559 4.975C4.013 9.01 3.096 14.279 5.376 17.17c-1.024-2.42-.953-5.44.49-7.85 1.922-3.21 5.776-4.609 8.939-4.027C13.166 4.421 11.112 4 8.96 3.871l-.337-.015c-.333.312-.682.683-1.064 1.119" clip-rule="evenodd"/><path fill="#00845D" fill-rule="evenodd" d="M16.905 6.041a6.7 6.7 0 0 0-2.1-.749c2.158 1.147 3.594 3.075 3.578 6.146-.015 2.664-1.381 5.018-3.577 6.452 1.216-.73 2.394-1.736 3.452-3.014 1.36-1.64 2.32-3.308 2.844-4.793-.931-1.578-2.488-3.069-4.197-4.042" clip-rule="evenodd"/><path fill="#005121" fill-rule="evenodd" d="M14.45 16.43a5.24 5.24 0 0 1-7.258-1.571c-1.571-2.445-.794-5.593 1.566-7.283 2.639-1.889 6.023-1.144 7.257 1.572 1.203 2.647.87 5.705-1.565 7.282m.355-11.138c-3.164-.581-7.017.817-8.939 4.027-1.443 2.41-1.515 5.43-.49 7.85a7.7 7.7 0 0 0 1.189 1.959c.982.159 2.054.22 3.145.22 1.949 0 3.692-.542 5.096-1.458 2.196-1.433 3.562-3.788 3.576-6.452.017-3.071-1.42-4.999-3.577-6.146" clip-rule="evenodd"/></svg>