<svg xmlns="http://www.w3.org/2000/svg" fill="none" viewBox="0 0 24 24"><g clip-path="url(#a)"><path fill="#302C2C" d="M12 24c6.627 0 12-5.373 12-12S18.627 0 12 0 0 5.373 0 12s5.373 12 12 12"/><path fill="#fff" d="M18.447 11.82a.7.7 0 0 0-.127-.177 441 441 0 0 0-3.411-3.78l-2.906 3.178-2.942-3.147s-2.314 2.528-3.448 3.815c-.148.145-.148.407-.016.562.59.671 3.483 3.862 3.483 3.862L12 12.934l2.898 3.202 3.496-3.868s.074-.077.09-.128a.44.44 0 0 0-.037-.32m-11.222.354c-.095-.111-.063-.287.025-.393.37-.421 1.85-2.009 1.85-2.009l2.062 2.19-2.065 2.26s-1.265-1.35-1.872-2.048m9.447.075a1.3 1.3 0 0 1-.152.21l-1.6 1.74L12.85 12l2.035-2.23s1.172 1.214 1.71 1.867c.045.056.099.11.122.182a.57.57 0 0 1-.047.43"/></g><defs><clipPath id="a"><path fill="#fff" d="M0 0h24v24H0z"/></clipPath></defs></svg>