<svg xmlns="http://www.w3.org/2000/svg" fill="none" viewBox="0 0 72 48"><path fill="#fff" stroke="#E3E3E8" d="M4 .5h64A3.5 3.5 0 0 1 71.5 4v40a3.5 3.5 0 0 1-3.5 3.5H4A3.5 3.5 0 0 1 .5 44V4A3.5 3.5 0 0 1 4 .5Z"/><path fill="#EF404A" d="M21.994 17.938c-1.978 0-3.526 1.619-3.526 3.687 0 2.069 1.55 3.637 3.526 3.637s3.526-1.597 3.526-3.637-1.55-3.687-3.526-3.687m0 5.84c-1.049 0-1.84-.924-1.84-2.15 0-1.227.791-2.2 1.84-2.2 1.05 0 1.854.945 1.854 2.2 0 1.254-.797 2.15-1.854 2.15M34.084 15h-1.318a.197.197 0 0 0-.198.197v9.66c0 .11.088.197.198.197h1.317c.11 0 .198-.088.198-.197v-9.66a.197.197 0 0 0-.198-.197m-2.855 3.117c-.312-.063-.826-.177-1.605-.177-1.36 0-2.725.42-2.725 2.566v4.35c0 .11.088.198.198.198h1.32c.11 0 .197-.088.197-.197v-4.313c0-.314.055-1.097 1.232-1.097.49 0 .964.079 1.06.094.103.018.196-.024.224-.127l.286-1.064c.032-.12-.042-.204-.187-.233m-13.538.033h-1.405a.195.195 0 0 0-.187.143l-1.339 4.725-1.227-4.203a.91.91 0 0 0-.874-.665h-.435a.91.91 0 0 0-.874.665l-1.227 4.203-1.34-4.725a.19.19 0 0 0-.186-.143h-1.4a.196.196 0 0 0-.187.257l1.919 6.006a.92.92 0 0 0 .876.641h.566c.404 0 .769-.27.883-.658l1.19-4.021 1.19 4.021a.925.925 0 0 0 .882.658h.567a.91.91 0 0 0 .876-.64l1.919-6.007a.197.197 0 0 0-.187-.257m47.11 0h-1.344s-.158 0-.21.132l-1.845 4.868-1.846-4.877c-.029-.077-.112-.123-.193-.123h-1.344c-.184 0-.244.152-.2.268l2.698 6.763-1.09 2.751c-.053.136.004.27.182.27h1.328a.19.19 0 0 0 .182-.123l3.86-9.641c.07-.167-.046-.288-.18-.288zM41.821 15h-1.318a.2.2 0 0 0-.198.197v2.896c-.254-.055-.709-.155-1.447-.155-2.621 0-3.168 2.356-3.168 3.643 0 2.848 1.713 3.682 3.316 3.682 1.365 0 2.296-.325 2.742-.523.27-.116.27-.272.27-.41v-9.133A.2.2 0 0 0 41.82 15m-1.516 8.626s-.52.153-1.108.153c-1.38 0-1.71-.974-1.71-2.13 0-.412-.045-2.209 1.644-2.209.575 0 1.172.158 1.172.158v4.028zm13.931-5.689c-1.168 0-1.825.154-2.463.332-.172.048-.242.164-.194.357l.198.799c.026.114.132.272.32.224.411-.101 1.04-.3 1.959-.3.92 0 1.16.341 1.16 1.164h-1.138c-2.422 0-3.094 1.277-3.094 2.321 0 1.319.644 2.43 2.92 2.43 1.715 0 2.571-.431 2.762-.532.156-.081.249-.143.249-.413v-3.982c0-1.8-1.065-2.397-2.679-2.397zm.966 5.79s-.527.175-1.243.175c-.985 0-1.269-.493-1.269-1.007 0-.653.43-1.072 1.373-1.072h1.14zm-8.576-5.79c-1.365 0-2.296.325-2.742.523-.27.116-.27.272-.27.41v9.135c0 .107.088.197.198.197h1.317a.2.2 0 0 0 .198-.197v-2.896c.254.055.709.156 1.446.156 2.622 0 3.169-2.356 3.169-3.644 0-2.848-1.713-3.681-3.316-3.681zm-.127 5.825c-.575 0-1.172-.158-1.172-.158v-4.028s.52-.153 1.108-.153c1.38 0 1.71.974 1.71 2.13 0 .412.044 2.209-1.644 2.209z"/><path fill="#002733" fill-rule="evenodd" d="M8.24 29.115v-.156c0-.9.454-1.492 1.345-1.492.297 0 .542.044.758.097l-.163.803a2.4 2.4 0 0 0-.402-.044c-.38 0-.513.246-.513.616v.178h.87v.816h-.87v2.98H8.239v-2.98h-.505v-.816h.505zm4.11-.088c.268 0 .52.029.67.066l-.15.84a1.4 1.4 0 0 0-.44-.06c-.274 0-.46.053-.616.128v2.911h-1.025v-3.558c.401-.2 1.025-.327 1.56-.327m.943 1.983c0 1.196.714 1.99 1.858 1.99 1.152 0 1.85-.8 1.85-1.99s-.707-1.983-1.85-1.983-1.858.788-1.858 1.983m2.661 0c0 .704-.276 1.143-.803 1.143-.52 0-.81-.445-.81-1.143 0-.697.28-1.136.81-1.136.529 0 .803.432.803 1.136m6.376 1.9v-.002h1.017v-2.363c0-.974-.586-1.522-1.642-1.522-.455 0-.9.149-1.212.305-.26-.202-.617-.305-1.047-.305-.58 0-1.197.118-1.674.327v3.558h1.02v-2.905q.288-.134.6-.134c.477 0 .67.253.67.75v2.289h.997v-2.161c0-.259-.03-.498-.09-.698.187-.103.44-.177.692-.177.47 0 .67.252.67.75v2.286h-.003zm10.414-1.114h.002l-.193.899c.371.171.966.305 1.605.305 1.115 0 1.888-.505 1.888-1.523s-.676-1.35-1.56-1.656c-.583-.208-.842-.333-.842-.735q0-.544.78-.542c.415 0 .779.097 1.121.23l.21-.883c-.32-.14-.84-.268-1.397-.268-1.144 0-1.792.549-1.792 1.492 0 .87.551 1.263 1.399 1.553.667.215 1.01.349 1.01.816 0 .386-.29.595-.863.595-.52 0-1.017-.149-1.366-.283zM26.1 27.71v5.2h1.063v-1.978h1.77v-.906h-1.77v-1.41h2.103v-.906zm5.344 0h-1.063v5.2h1.063z" clip-rule="evenodd"/></svg>