<svg xmlns="http://www.w3.org/2000/svg" fill="none" viewBox="0 0 72 48"><path fill="#fff" stroke="#E3E3E8" d="M4 .5h64A3.5 3.5 0 0 1 71.5 4v40a3.5 3.5 0 0 1-3.5 3.5H4A3.5 3.5 0 0 1 .5 44V4A3.5 3.5 0 0 1 4 .5Z"/><path fill="#09BB07" d="M31.965 27.445a.986.986 0 0 1-1.303-.397l-.065-.143-2.694-5.885a.5.5 0 0 1-.048-.207.494.494 0 0 1 .791-.394l3.18 2.255a1.46 1.46 0 0 0 1.312.15l14.95-6.625C45.409 13.054 40.995 11 35.998 11 27.824 11 21.2 16.497 21.2 23.278c0 3.698 1.992 7.03 5.113 9.28a.98.98 0 0 1 .362 1.114 604 604 0 0 1-.669 2.476c-.03.115-.078.237-.078.36 0 .271.221.492.494.492.106 0 .195-.04.287-.092l3.24-1.86a1.56 1.56 0 0 1 .785-.228q.225.002.436.065a17.6 17.6 0 0 0 4.83.672c8.173 0 14.8-5.498 14.8-12.279 0-2.054-.61-3.986-1.685-5.687l-17.04 9.793z"/></svg>