<svg xmlns="http://www.w3.org/2000/svg" fill="none" viewBox="0 0 72 48"><path fill="#fff" stroke="#E3E3E8" d="M4 .5h64A3.5 3.5 0 0 1 71.5 4v40a3.5 3.5 0 0 1-3.5 3.5H4A3.5 3.5 0 0 1 .5 44V4A3.5 3.5 0 0 1 4 .5Z"/><path fill="#7887E6" d="M60.511 19.169a1.49 1.49 0 1 0 0-2.979 1.49 1.49 0 0 0 0 2.979"/><path fill="#FF5073" d="M60.511 23.83a1.49 1.49 0 1 0 0-2.978 1.49 1.49 0 0 0 0 2.978"/><path fill="#2D2341" fill-rule="evenodd" d="M13.791 20.053h-1.445v3.606H10v-9.872h3.791c2.261 0 3.334 1.316 3.334 3.061 0 2.017-1.431 3.204-3.334 3.204m-.352-4.55h-1.093v2.832h1.188c.821 0 1.361-.543 1.313-1.521-.037-.74-.667-1.311-1.408-1.311m10.16 8.155h-2.292v-.324c-.456.287-1.054.495-1.605.495-1.395 0-2.456-1.052-2.456-2.304 0-1.282.907-2.67 4.063-2.446v-.487c0-.557-.473-.744-1.002-.744-.744 0-1.616.33-2.031.516l-.63-1.302c.686-.43 1.803-.873 3.219-.873 1.689 0 2.733.744 2.733 2.39zm-4.066-2.174c0 .529.387.858.96.858.358 0 .687-.128.9-.286v-1.531c-1.386-.23-1.86.358-1.86.959m26.84-5.123v-.3c0-1.731.973-2.861 2.82-2.861.415 0 .772.058 1.087.143v1.63a2.6 2.6 0 0 0-.672-.1c-.702 0-.96.458-.96 1.102v.386h1.574v1.56H48.65v5.737h-2.275V17.92h-1.217v-1.56zm-7.823.702c.686-.429 1.803-.873 3.219-.873 1.688 0 2.733.744 2.732 2.389v5.08h-2.29v-.324c-.457.287-1.055.495-1.605.495-1.396 0-2.457-1.051-2.457-2.304 0-1.282.908-2.67 4.063-2.446v-.487c0-.557-.472-.744-1.001-.744-.744 0-1.617.33-2.032.516zm2.76 5.28c.359 0 .687-.13.902-.287h-.001v-1.531c-1.386-.23-1.86.358-1.86.959 0 .529.387.858.96.858m-9.572-5.98-3.697 9.343h-2.179l.963-2.39-3.086-6.954h2.343l1.807 4.36 1.575-4.36zm25.796 3.535v.572H52.79c.036.375.132.68.276.923q0 .002.002.003a2 2 0 0 0 .121.172l.01.012.022.026q.042.05.089.095l.003.003q.114.11.256.197.003 0 .004.002a1.7 1.7 0 0 0 .327.15l.06.019h.001l.115.03.02.003.02.005q.057.012.115.02l.005.001.029.004q.072.01.147.015l.036.002q.078.005.16.005c.62 0 1.314-.175 1.999-.563l.638 1.418c-1.01.7-2.32.82-2.982.82-2.375 0-3.863-1.475-3.863-3.778 0-2.247 1.575-3.864 3.606-3.864 2.032 0 3.528 1.569 3.528 3.708m-2.312-.632c-.086-.972-.586-1.473-1.216-1.473s-1.13.5-1.216 1.473zM34.18 22.17c.673 0 1.073-.2 1.073-.6 0-.428-.546-.615-1.203-.84-.99-.337-2.23-.76-2.23-2.224 0-1.545 1.373-2.318 3.076-2.318.93 0 1.846.287 2.447.587l-.644 1.502c-.458-.2-1.087-.414-1.688-.414-.573 0-.916.214-.916.557 0 .378.51.55 1.134.758.98.328 2.242.75 2.242 2.218 0 1.575-1.43 2.433-3.09 2.433-.93 0-1.932-.214-2.79-.672l.73-1.473c.514.258 1.173.486 1.86.486m8.2 6.377v-.962h-.413v-.27h1.141l.043.27h-.39v.962zm2.084 0-.047-.892-.032.12q-.1.386-.209.772h-.334l-.24-.892-.047.892h-.34q.054-.617.101-1.23h.479l.218.872.002-.01.21-.862h.48l.097 1.23zm-34.453-.87v5.492h1.305v-2.006h.804c1.059 0 1.854-.66 1.854-1.782 0-.971-.597-1.703-1.854-1.703zm2.699 1.751c0 .502-.295.78-.732.78h-.66v-1.575h.66c.47 0 .732.326.732.795m3.756 3.336.072.405v.001h1.162v-2.825c0-.916-.58-1.33-1.52-1.33a3.4 3.4 0 0 0-1.791.486l.35.725c.23-.104.716-.287 1.13-.287.294 0 .556.103.556.413v.271c-1.694-.032-2.26.549-2.26 1.424 0 .812.638 1.218 1.266 1.218.51 0 .811-.254 1.035-.501m-.326-1.362c.067 0 .123.007.183.013q.049.006.104.01v.852a.9.9 0 0 1-.502.16c-.318 0-.533-.184-.533-.478 0-.334.239-.557.748-.557m2.793 3.494.67-1.727h-.383l-.44-1.394h-.001c-.28-.888-.56-1.776-.848-2.665h1.29l.763 3.008.86-3.008h1.265q-.55 1.59-1.09 3.18-.445 1.306-.892 2.607zm5.476-7.218v5.491h3.398v-.947h-2.093v-4.544zm6.128 5.491-.072-.405c-.223.247-.525.5-1.034.5-.629 0-1.266-.405-1.266-1.217 0-.875.565-1.456 2.26-1.424v-.27c0-.311-.262-.414-.557-.414-.413 0-.9.183-1.13.287l-.35-.724a3.4 3.4 0 0 1 1.791-.486c.94 0 1.52.413 1.52 1.33v2.824zm-.111-1.743-.104-.01c-.06-.007-.116-.014-.182-.014-.51 0-.748.223-.748.557 0 .294.215.477.533.477a.9.9 0 0 0 .501-.16zm2.324.637c0 1.059.756 1.106 1.138 1.106v.002h.907v-.852h-.35c-.278 0-.43-.128-.43-.541V29.98h.78v-.868h-.78v-1.21l-1.265.438v.771h-.62v.868h.62zm6.088.803c-.255.192-.916.399-1.569.399-1.321 0-2.148-.82-2.148-2.102 0-1.249.875-2.148 2.005-2.148.868 0 1.727.469 1.727 1.901v.478H36.45c.064.669.47.94 1.01.94.407 0 .868-.167 1.02-.263zm-1.154-2.14c0-.55-.239-.82-.573-.82-.35 0-.612.279-.66.82zm1.687-1.616v4.06h1.273v-2.627c.223-.223.581-.358.916-.358.079 0 .245 0 .318.015v-1.185c-.549 0-1.035.334-1.297.835v-.74z" clip-rule="evenodd"/></svg>