<svg xmlns="http://www.w3.org/2000/svg" fill="none" viewBox="0 0 72 48"><path fill="#fff" stroke="#E3E3E8" d="M4 .5h64A3.5 3.5 0 0 1 71.5 4v40a3.5 3.5 0 0 1-3.5 3.5H4A3.5 3.5 0 0 1 .5 44V4A3.5 3.5 0 0 1 4 .5Z"/><path fill="#4D4D4D" d="M13.34 38.938c-.383 0-.77-.011-1.149-.037A9 9 0 0 1 11 38.736v-6.797c.322-.062.68-.103 1.067-.135q.576-.047 1.076-.046.671 0 1.233.098a2.9 2.9 0 0 1 .968.327q.406.233.635.612.228.383.23.935 0 .84-.813 1.324c.448.166.75.4.911.686q.243.437.244.98-.002 1.105-.807 1.658c-.545.379-1.34.56-2.403.56m-.8-4.345h.77c.49 0 .833-.062 1.047-.187q.311-.187.312-.601c0-.276-.108-.483-.322-.597q-.327-.172-.952-.172-.202-.001-.437.005a5 5 0 0 0-.416.025c-.002 0-.002 1.527-.002 1.527m0 1.204v1.812q.173.023.375.032.204.01.448.01c.474 0 .853-.066 1.145-.201q.437-.203.437-.748c0-.322-.12-.556-.363-.691q-.367-.209-1.046-.207h-.994v-.007zm6.262-3.805q.002.413-.271.654a.9.9 0 0 1-.635.239.92.92 0 0 1-.635-.24c-.177-.16-.27-.373-.27-.653s.087-.494.27-.655a.93.93 0 0 1 .635-.238.92.92 0 0 1 .635.238q.27.242.27.655m-.145 6.858h-1.509v-5.322h1.509zm.813-6.647 1.508-.243v1.568h1.815v1.256h-1.815v1.868q.001.477.166.758c.108.186.338.285.676.285q.252-.002.499-.046.241-.043.474-.124l.213 1.173q-.298.12-.609.192a3.6 3.6 0 0 1-.821.083q-.618-.001-1.026-.166a1.54 1.54 0 0 1-.65-.468 1.7 1.7 0 0 1-.338-.72 4.3 4.3 0 0 1-.1-.94v-4.476zm3.538 3.987c-.003-.369.06-.736.187-1.085a2.54 2.54 0 0 1 1.403-1.49 2.8 2.8 0 0 1 1.154-.223 3.6 3.6 0 0 1 1.467.296l-.312 1.205a4 4 0 0 0-.469-.14 2.4 2.4 0 0 0-.568-.062q-.672.001-.998.416-.327.412-.327 1.09c0 .477.104.851.306 1.111q.313.396 1.077.395.296 0 .588-.053.298-.046.577-.16l.214 1.235q-.321.129-.66.192-.433.085-.874.083c-.49 0-.906-.073-1.258-.218a2.4 2.4 0 0 1-.87-.592 2.3 2.3 0 0 1-.494-.884 4.4 4.4 0 0 1-.143-1.115"/><path fill="#4D4D4D" d="M32.504 36.181c0 .42-.062.8-.182 1.148q-.181.521-.524.888a2.4 2.4 0 0 1-.828.571 2.8 2.8 0 0 1-1.076.202 2.7 2.7 0 0 1-1.072-.202 2.4 2.4 0 0 1-.828-.571 2.55 2.55 0 0 1-.535-.888 3.3 3.3 0 0 1-.193-1.148c0-.415.067-.799.197-1.143a2.46 2.46 0 0 1 1.378-1.444 2.7 2.7 0 0 1 1.051-.202c.38 0 .738.067 1.06.202.323.136.598.322.828.567.236.253.42.55.536.877.121.344.188.723.188 1.143m-1.539 0c0-.468-.094-.83-.28-1.095q-.281-.398-.796-.4c-.343 0-.614.136-.8.4s-.286.633-.286 1.095.094.836.285 1.106c.187.276.458.41.8.41.344 0 .61-.134.796-.41q.28-.413.281-1.106m3.799-4.189q.002.413-.271.654a.9.9 0 0 1-.635.239.92.92 0 0 1-.635-.24c-.177-.16-.27-.373-.27-.653s.087-.494.27-.655a.93.93 0 0 1 .635-.238.92.92 0 0 1 .635.238q.27.242.27.655m-.14 6.858h-1.51v-5.322h1.51zm.858-5.14a8 8 0 0 1 .993-.208 8 8 0 0 1 1.275-.098q.677-.001 1.128.176.454.18.713.498.265.326.375.77c.073.295.108.628.108.99v3.008h-1.508V36.02q.002-.73-.193-1.033-.195-.301-.718-.3-.163 0-.342.015c-.12.012-.23.021-.322.037v4.107h-1.51z"/><path fill="#0AC18E" d="M44.199 38.99q-1.716 0-2.61-.95-.897-.948-.895-2.7.002-.868.276-1.551.272-.685.75-1.153a3.15 3.15 0 0 1 1.133-.711q.657-.243 1.43-.244.446-.001.812.067.325.053.64.151.234.072.457.177.18.092.265.14l-.458 1.272a3.8 3.8 0 0 0-.754-.291 3.5 3.5 0 0 0-.978-.12c-.242 0-.483.042-.712.12a1.7 1.7 0 0 0-.62.39c-.176.176-.321.41-.431.69q-.162.428-.161 1.033-.003.458.103.904.11.42.343.722c.166.208.38.374.624.482q.384.178.931.176.31.001.619-.04a3.7 3.7 0 0 0 .864-.224c.108-.046.207-.094.292-.13l.437 1.267q-.334.202-.941.363-.62.161-1.416.16m4.723-5.602q.67.002 1.113.15.446.149.713.437c.182.194.311.43.38.686q.109.406.108.898v3.135c-.218.046-.515.104-.9.166a9 9 0 0 1-1.398.099q-.515 0-.936-.094a2.1 2.1 0 0 1-.722-.296 1.4 1.4 0 0 1-.469-.54c-.108-.223-.161-.493-.161-.82s.062-.571.187-.79c.117-.21.29-.388.499-.513q.312-.195.717-.28.418-.089.842-.088.296.002.52.026.228.022.37.066v-.14q0-.382-.234-.617t-.812-.234q-.38 0-.76.057a3.2 3.2 0 0 0-.65.156l-.193-1.214q.133-.041.327-.088.197-.046.432-.083c.157-.025.318-.041.49-.062.183-.006.36-.017.537-.017m.12 4.407q.226-.001.426-.011.162-.003.322-.032V36.61c-.062-.016-.152-.025-.276-.041a3 3 0 0 0-.333-.02q-.202 0-.4.025a.9.9 0 0 0-.328.098.56.56 0 0 0-.223.193.56.56 0 0 0-.083.3q-.002.354.24.49c.16.1.379.141.655.141m4.54-.026q.415.001.588-.083c.115-.053.172-.16.172-.312 0-.12-.073-.23-.223-.317a4 4 0 0 0-.68-.306 6 6 0 0 1-.645-.275 1.8 1.8 0 0 1-.49-.337 1.35 1.35 0 0 1-.312-.473 1.8 1.8 0 0 1-.109-.66q.001-.746.557-1.183.554-.437 1.53-.436.469 0 .93.087c.297.057.536.12.708.186l-.264 1.173a5 5 0 0 0-.573-.16 3.2 3.2 0 0 0-.692-.074q-.709 0-.708.395a.4.4 0 0 0 .032.161.35.35 0 0 0 .12.135q.119.08.25.14.195.095.4.166c.334.124.603.243.822.363s.384.25.51.383q.181.2.264.457.08.25.079.588c0 .523-.198.924-.594 1.189q-.592.404-1.674.404-.712 0-1.18-.12a6 6 0 0 1-.655-.202L52 37.434q.386.15.79.239.39.097.792.097m2.825 1.08v-7.607L57.916 31v2.55q.191-.06.39-.099a2.4 2.4 0 0 1 .463-.046q.648-.002 1.076.177.429.18.688.498.256.326.363.769c.073.296.104.629.104.991v3.007h-1.51V36.02q0-.73-.186-1.033c-.125-.202-.36-.3-.692-.3a1.8 1.8 0 0 0-.38.036c-.12.026-.223.046-.317.078v4.045h-1.509z"/><path fill="#0AC18E" fill-rule="evenodd" d="M46 17c0 5.523-4.477 10-10 10s-10-4.477-10-10S30.477 7 36 7s10 4.477 10 10m-9.952-4.489c1.411-.232 2.561.004 3.062 1.142.333.906.06 1.595-.473 2.08.87.089 1.912.874 2.065 1.828.24 1.587-.922 2.621-2.566 3.022l.457 1.772-1.07.276-.457-1.78c-.28.073-.56.145-.858.213l.457 1.788-1.066.276-.46-1.775c-.253.06-2.157.549-2.157.549l-.116-1.33s.793-.193.777-.201c.3-.076.325-.317.309-.457l-1.242-4.81c-.1-.204-.305-.42-.738-.308.008-.02-.778.2-.778.2l-.296-1.142s1.924-.497 2.152-.561l-.453-1.756 1.07-.277.45 1.74q.256-.071.514-.13l.339-.082-.445-1.752 1.07-.277zm.222 7.198c.908-.186 2.51-.514 2.327-1.871-.32-1.245-2.166-.723-3.063-.469q-.15.043-.26.072l.63 2.349a6 6 0 0 1 .366-.08m-.937-3.415c.762-.156 2.145-.438 1.95-1.65-.403-1.142-1.815-.717-2.558-.493q-.151.046-.26.075l.573 2.133q.121-.03.295-.065" clip-rule="evenodd"/></svg>