<svg xmlns="http://www.w3.org/2000/svg" fill="none" viewBox="0 0 72 48"><path fill="#fff" d="M0 4a4 4 0 0 1 4-4h64a4 4 0 0 1 4 4v40a4 4 0 0 1-4 4H4a4 4 0 0 1-4-4V4Z"/><path stroke="#A1B2BA" stroke-opacity=".4" d="M.5 4A3.5 3.5 0 0 1 4 .5h64A3.5 3.5 0 0 1 71.5 4v40a3.5 3.5 0 0 1-3.5 3.5H4A3.5 3.5 0 0 1 .5 44V4Z"/><path fill="#0073FF" d="M38.216 20.925c0 .25-.093.465-.28.646a.925.925 0 0 1-.667.27.935.935 0 0 1-.672-.27.861.861 0 0 1-.281-.646c0-.25.092-.466.281-.65A.93.93 0 0 1 37.27 20c.26 0 .48.093.667.276.188.183.28.4.28.65Z"/><path fill="#FFC200" d="M50.825 26.096c0 .3-.106.555-.32.768a1.056 1.056 0 0 1-.775.322c-.3 0-.553-.108-.765-.322a1.048 1.048 0 0 1-.32-.768c0-.299.107-.557.32-.77.212-.212.468-.319.765-.319.298 0 .56.106.774.32.215.212.321.468.321.769Z"/><path fill="#19303F" fill-rule="evenodd" d="M23.41 23.741a.788.788 0 0 1 .568-.216c.232 0 .42.073.567.217.145.146.218.338.218.583v2.492c0 .067.022.122.064.166a.226.226 0 0 0 .165.063h1.238a.231.231 0 0 0 .166-.063.23.23 0 0 0 .063-.166v-2.634c0-.693-.158-1.22-.473-1.585-.313-.363-.775-.546-1.388-.546-.309 0-.583.061-.82.183-.24.122-.438.3-.591.534v-2.36a.223.223 0 0 0-.065-.166.221.221 0 0 0-.163-.063h-1.24a.223.223 0 0 0-.164.063.224.224 0 0 0-.065.165v6.409c0 .067.022.122.065.165a.221.221 0 0 0 .163.064h1.24a.223.223 0 0 0 .164-.064.224.224 0 0 0 .065-.165v-2.493c0-.244.073-.437.223-.583Zm-3.927 3.4c-.53 0-.954-.14-1.273-.417-.318-.28-.477-.663-.477-1.156v-1.974h-.5a.206.206 0 0 1-.157-.07.233.233 0 0 1-.067-.167v-.35c0-.104.01-.187.03-.252a.522.522 0 0 1 .107-.183l1.207-1.339a.96.96 0 0 1 .258-.218.605.605 0 0 1 .266-.051h.325c.063 0 .117.021.161.067a.212.212 0 0 1 .067.16v1h1.067c.063 0 .118.02.163.066a.214.214 0 0 1 .069.162v.938a.227.227 0 0 1-.069.168.217.217 0 0 1-.163.069H19.43v1.618c0 .118.031.212.094.28a.341.341 0 0 0 .26.104.614.614 0 0 0 .205-.04c.075-.025.158-.066.252-.122.095-.053.173-.072.238-.057.067.014.128.064.185.146l.43.642c.047.073.07.145.066.218a.273.273 0 0 1-.084.191 1.77 1.77 0 0 1-.688.416c-.283.1-.584.151-.905.151Zm-11.495-1.81a.977.977 0 0 1-.283-.706.98.98 0 0 1 .283-.707.932.932 0 0 1 .695-.292c.274 0 .506.096.697.292a.976.976 0 0 1 .284.707.976.976 0 0 1-.284.706.941.941 0 0 1-.697.292.936.936 0 0 1-.695-.292Zm1.654 1.404v.083a.22.22 0 0 0 .071.163.232.232 0 0 0 .166.07h1.236c.06 0 .112-.024.155-.07a.222.222 0 0 0 .067-.163v-4.394a.23.23 0 0 0-.063-.165.229.229 0 0 0-.165-.064h-1.24a.23.23 0 0 0-.163.064.229.229 0 0 0-.064.165v.086a1.636 1.636 0 0 0-.535-.338 1.839 1.839 0 0 0-.65-.113c-.693 0-1.276.246-1.748.742-.473.497-.709 1.103-.709 1.824 0 .72.236 1.328.708 1.822a2.318 2.318 0 0 0 1.749.744c.232 0 .45-.039.65-.114.198-.077.376-.19.535-.342Zm5.185-1.25c-.114.128-.281.191-.504.191h.002c-.225 0-.398-.064-.52-.194-.12-.132-.181-.317-.181-.557v-2.53c0-.056-.026-.103-.075-.144a.258.258 0 0 0-.168-.061h-1.226a.24.24 0 0 0-.162.061.184.184 0 0 0-.07.144v2.758c0 .587.22 1.073.66 1.459.442.386 1.03.579 1.751.579.72 0 1.295-.191 1.723-.575.429-.382.643-.87.643-1.463v-2.758a.187.187 0 0 0-.073-.144.25.25 0 0 0-.165-.061h-1.225a.25.25 0 0 0-.165.061.18.18 0 0 0-.073.144v2.53c0 .246-.058.432-.172.56Zm13.752-.866c0 .278.095.512.284.707.19.195.423.292.695.292a.94.94 0 0 0 .697-.292.976.976 0 0 0 .283-.707.976.976 0 0 0-.283-.706.937.937 0 0 0-.697-.292.934.934 0 0 0-.695.292.98.98 0 0 0-.284.706Zm-1.704 0c0-.71.262-1.316.783-1.817.524-.498 1.156-.748 1.9-.748s1.38.25 1.902.748c.523.5.783 1.107.783 1.817 0 .711-.26 1.317-.783 1.818-.522.5-1.156.75-1.902.75s-1.376-.25-1.9-.75c-.521-.5-.784-1.107-.784-1.818Zm6.95-2.429h-.883a.229.229 0 0 0-.167.065.225.225 0 0 0-.065.164v4.401a.219.219 0 0 0 .226.225h1.237c.06 0 .114-.02.161-.062a.187.187 0 0 0 .071-.143v-2.343a.49.49 0 0 1 .142-.374.508.508 0 0 1 .374-.138c.042 0 .085.004.128.012.045.008.112.026.199.053l.056.014.121.03h.008a.682.682 0 0 0 .106.011c.11 0 .197-.033.26-.096a.485.485 0 0 0 .124-.288l.136-1.108c.021-.161-.018-.283-.12-.37-.103-.086-.252-.13-.45-.13-.182 0-.368.055-.558.168a2.23 2.23 0 0 0-.554.488l-.136-.305a.427.427 0 0 0-.416-.274Zm9.026 1.327-1.924 2.077h1.916c.063 0 .116.024.16.065a.224.224 0 0 1 .062.16v1.002a.216.216 0 0 1-.063.16.216.216 0 0 1-.16.064h-3.98a.234.234 0 0 1-.166-.069.22.22 0 0 1-.07-.163v-.825a.4.4 0 0 1 .023-.145.302.302 0 0 1 .081-.118l1.965-2.085h-1.758a.233.233 0 0 1-.234-.233v-.98a.23.23 0 0 1 .07-.166.226.226 0 0 1 .164-.07h3.788c.063 0 .118.023.163.07a.232.232 0 0 1 .069.166v.82a.4.4 0 0 1-.024.146.428.428 0 0 1-.082.124Zm3.793.474h-1.61a.812.812 0 0 1 .299-.46.814.814 0 0 1 .522-.18c.198 0 .37.06.517.18a.736.736 0 0 1 .272.46Zm.57 2.94c.385-.17.676-.396.871-.68a.246.246 0 0 0 .047-.173.2.2 0 0 0-.098-.146l-.821-.537a.296.296 0 0 0-.193-.055.303.303 0 0 0-.181.094c-.13.132-.266.226-.408.287a1.153 1.153 0 0 1-.462.093c-.249 0-.463-.067-.638-.197a.842.842 0 0 1-.333-.533h3.026a.227.227 0 0 0 .197-.095.437.437 0 0 0 .069-.256v-.277c0-.676-.229-1.244-.685-1.707-.455-.465-1.022-.697-1.778-.697s-1.368.242-1.835.726c-.464.483-.699 1.132-.699 1.865 0 .732.248 1.338.746 1.82.497.481 1.133.723 1.908.723.459 0 .88-.086 1.266-.255Zm6.612-3.406a.788.788 0 0 0-.57.216c-.148.146-.223.34-.223.583v2.493a.225.225 0 0 1-.065.165.223.223 0 0 1-.164.064h-1.24a.224.224 0 0 1-.163-.064.224.224 0 0 1-.065-.165v-4.398c0-.067.022-.123.065-.166a.226.226 0 0 1 .163-.063h1.24a.22.22 0 0 1 .164.063.224.224 0 0 1 .065.166v.35a1.53 1.53 0 0 1 .59-.534c.238-.122.512-.182.821-.182.613 0 1.075.182 1.39.545.313.364.47.892.47 1.585v2.634a.23.23 0 0 1-.062.166.231.231 0 0 1-.166.063h-1.238a.23.23 0 0 1-.166-.063.231.231 0 0 1-.063-.166v-2.492c0-.244-.073-.437-.218-.583a.772.772 0 0 0-.565-.217Zm6.25.466h-1.608a.803.803 0 0 1 .299-.46.817.817 0 0 1 .522-.18c.197 0 .37.06.517.18a.742.742 0 0 1 .27.46Zm.571 2.94c.386-.17.675-.396.87-.68a.237.237 0 0 0 .047-.173c-.005-.061-.039-.108-.098-.146l-.819-.537a.301.301 0 0 0-.195-.055.299.299 0 0 0-.18.094 1.32 1.32 0 0 1-.407.287 1.152 1.152 0 0 1-.462.093c-.25 0-.463-.067-.638-.197a.842.842 0 0 1-.333-.533h3.026c.085 0 .15-.032.195-.095a.424.424 0 0 0 .069-.256v-.277c0-.676-.229-1.244-.683-1.707-.457-.465-1.02-.697-1.778-.697s-1.368.242-1.835.726c-.466.483-.699 1.132-.699 1.865 0 .732.249 1.338.745 1.82.496.481 1.132.723 1.907.723.459 0 .882-.086 1.268-.255Zm3.675.218c-.531 0-.956-.14-1.274-.417-.319-.28-.476-.663-.476-1.155v-1.975h-.502a.206.206 0 0 1-.157-.069.235.235 0 0 1-.067-.167v-.35c0-.105.01-.188.031-.253a.515.515 0 0 1 .106-.183l1.207-1.338a.96.96 0 0 1 .258-.219.609.609 0 0 1 .268-.05h.322a.21.21 0 0 1 .162.066.212.212 0 0 1 .067.162v.998h1.067c.063 0 .118.021.163.067a.214.214 0 0 1 .069.161v.94a.227.227 0 0 1-.069.166.217.217 0 0 1-.163.07h-1.067v1.617c0 .119.031.213.094.28a.343.343 0 0 0 .262.105.622.622 0 0 0 .205-.04c.073-.025.156-.067.25-.122.094-.053.173-.073.24-.057.065.014.126.063.183.146l.429.642c.05.072.07.145.069.218a.278.278 0 0 1-.087.19 1.754 1.754 0 0 1-.687.416c-.283.1-.585.152-.904.152h.001Zm-26.202-.332v-4.398a.212.212 0 0 0-.067-.162.218.218 0 0 0-.166-.067h-1.23a.226.226 0 0 0-.233.229v4.398a.226.226 0 0 0 .232.228h1.231a.218.218 0 0 0 .166-.067.212.212 0 0 0 .067-.162Z" clip-rule="evenodd"/></svg>