<svg xmlns="http://www.w3.org/2000/svg" fill="none" viewBox="0 0 72 48"><path fill="#fff" stroke="#E3E3E8" d="M4 .5h64A3.5 3.5 0 0 1 71.5 4v40a3.5 3.5 0 0 1-3.5 3.5H4A3.5 3.5 0 0 1 .5 44V4A3.5 3.5 0 0 1 4 .5Z"/><path fill="#0068A3" fill-rule="evenodd" d="M26.647 32.072c.32-.165.864-.382 1.44-.382 1.32 0 2.035.888 2.035 2.541 0 1.932-.959 2.872-2.504 2.872-.566 0-1.44-.175-2.08-.507v-7.21l1.11-.258zm-.01 4.142c.34.145.714.166.98.166.79 0 1.386-.475 1.386-2.149 0-1.312-.49-1.736-1.204-1.736-.427 0-.736.114-1.162.342zm-11.352-4.39h.074l1.45 5.155h1.15l1.728-7.325h-1.248l-1.087 5.466h-.074l-1.482-5.466h-.948l-1.386 5.466h-.075l-1.193-5.466H11l1.727 7.325h1.15zm9.125 4.804v-.785c-.587.34-1.12.537-1.695.537-1.098 0-1.62-.548-1.62-1.788h3.475v-.382c0-1.683-.821-2.52-2.153-2.52-1.599 0-2.42 1.136-2.42 2.706 0 1.633.736 2.707 2.526 2.707.768 0 1.407-.206 1.887-.475m-.853-2.728h-2.44c.117-1.032.617-1.518 1.268-1.518.575 0 1.12.434 1.172 1.518m11.468 1.53h-.053l-2.388-5.776h-1.29v7.325h.96v-5.186h.096l2.174 5.186h.682l2.175-5.31h.096v5.31h1.15v-7.325h-1.321zm4.775-1.034c0-1.808 1.024-2.706 2.43-2.706s2.43.898 2.43 2.706c0 1.767-.97 2.707-2.43 2.707s-2.43-.94-2.43-2.707m3.741 0c0-1.394-.586-1.983-1.31-1.983-.704 0-1.312.589-1.312 1.983 0 1.416.555 1.984 1.311 1.984.757 0 1.311-.568 1.311-1.984m4.85-2.706c-1.226 0-2.239.485-2.718.764v4.525h1.108v-4.091c.33-.186.874-.372 1.301-.372.543 0 .959.145.959.96v3.503h1.108v-3.74c0-1.064-.479-1.55-1.759-1.55m7.162 4.153v.785a3.85 3.85 0 0 1-1.887.475c-1.79 0-2.525-1.074-2.525-2.707 0-1.57.82-2.706 2.42-2.706 1.332 0 2.153.837 2.153 2.52v.382h-3.475c0 1.24.522 1.788 1.62 1.788.575 0 1.108-.197 1.694-.538M52.26 33.9h2.44c-.052-1.084-.596-1.518-1.172-1.518-.65 0-1.15.486-1.268 1.518M61 31.865h-1.14l-1.216 3.802h-.063l-1.365-3.802h-1.172l2.046 5.166c-.256.764-.703 1.322-1.428 1.322v.847c1.225 0 1.876-.743 2.409-2.17zM35.285 8c1.467 0 2.856.331 4.093.919q.292.135.583.296l-.86.746-1.292-1.295-2.18 1.885-1.296-1.37-4.062 3.55 2.604 2.781-1.023.873 2.565 2.786-1.018.87 3.666 3.954 2.175-1.941 1.881 2.08a10 10 0 0 1-1.23.793 9.5 9.5 0 0 1-4.606 1.182c-5.145 0-9.341-4.068-9.341-9.054C25.944 12.067 30.14 8 35.285 8m-1.702 8.483 2.221-1.94 2 2.154-2.22 1.938zm3.8 1.782-2.22 1.938 2 2.154 2.221-1.94zm-5.39-5.46 2.222-1.938 2 2.153-2.222 1.939zm5.743-2.497-1.666 1.454 1.5 1.615 1.666-1.454zm1.294 8.114 1.666-1.454 1.5 1.615-1.666 1.454zm3.131 1.807-1.665 1.455 1.5 1.614 1.666-1.454zm-.995-6.021 1.111-.97 1 1.077-1.11.97zm-.308-4.168-1.11.97 1 1.076 1.11-.97zm1.729 7.367 1.11-.97 1 1.076-1.11.97zm-3.316-3.852-1.666 1.455 1.5 1.614 1.666-1.454z" clip-rule="evenodd"/></svg>