<svg xmlns="http://www.w3.org/2000/svg" fill="none" viewBox="0 0 72 48"><path fill="#fff" stroke="#E3E3E8" d="M4 .5h64A3.5 3.5 0 0 1 71.5 4v40a3.5 3.5 0 0 1-3.5 3.5H4A3.5 3.5 0 0 1 .5 44V4A3.5 3.5 0 0 1 4 .5Z"/><path fill="#fff" d="M18.838 16.5a2.23 2.23 0 0 1 2.229 2.218v10.561a2.23 2.23 0 0 1-2.229 2.218H8.228A2.23 2.23 0 0 1 6 29.28v-8.086l.006-2.593a2.23 2.23 0 0 1 2.222-2.1z"/><path fill="#3F3A39" d="M48.795 19.303h-2.67a.44.44 0 0 0-.44.44v8.369h1.879v-2.994h1.231c1.82 0 3.467-1.13 3.467-3.044s-1.648-2.772-3.467-2.772zm-1.231 4.915v-4.015s.58.003 1.231.003c.923 0 1.94.695 1.94 1.89s-1.02 2.122-1.94 2.122zm7.9-2.702c-1.422 0-2.154.347-2.154.347l.173.524s.537-.246 1.585-.246c1.167 0 1.404.564 1.404 1.335l-.017.344c-.25-.075-.835-.17-1.433-.17-.89 0-2.358.545-2.358 2.33 0 1.784 1.294 2.249 2.212 2.249.757 0 1.22-.233 1.592-.463v.35h1.877v-4.64c.008-1.466-1.457-1.959-2.882-1.959zm.08 5.884c-.816 0-1.402-.599-1.402-1.485s.784-1.406 1.498-1.406c.359 0 .701.098.834.212v2.268c-.228.201-.496.41-.93.41m7.2 1.511c-.571 1.258-1.51 1.42-1.93 1.47-.441.05-.914.029-.914.029v-1.027c.837 0 1.292.066 1.786-.91l.335-.847-3.087-6.112h1.97l2.024 4.063 1.79-4.063H66s-2.683 6.144-3.255 7.398m-35.447-9.608h-2.67a.44.44 0 0 0-.441.44v8.369h1.88v-2.994h1.231c1.82 0 3.467-1.13 3.467-3.044.003-1.914-1.646-2.772-3.467-2.772zm-1.229 4.915v-4.015s.58.003 1.232.003c.923 0 1.938.695 1.938 1.89s-1.019 2.122-1.938 2.122zm7.901-2.702c-1.423 0-2.154.347-2.154.347l.174.524s.534-.246 1.585-.246c1.167 0 1.403.564 1.403 1.335l-.016.344c-.25-.075-.835-.17-1.433-.17-.889 0-2.359.545-2.359 2.33 0 1.784 1.295 2.249 2.213 2.249.757 0 1.218-.233 1.592-.463v.35h1.878v-4.64c.006-1.466-1.46-1.959-2.882-1.959zm.08 5.884c-.817 0-1.402-.599-1.402-1.485s.784-1.406 1.496-1.406c.36 0 .702.098.835.212v2.268c-.232.201-.5.41-.93.41m7.198 1.511c-.572 1.258-1.51 1.42-1.93 1.47-.442.05-.915.029-.915.029v-1.027c.838 0 1.293.066 1.787-.91l.335-.847-3.087-6.112h1.97l2.024 4.063 1.79-4.063h1.282s-2.683 6.144-3.255 7.398"/><path fill="#F03" d="M8.933 31.497h-.705A2.23 2.23 0 0 1 6 29.28v-8.086c2-.201 3.864-.195 5.499-.04zm9.062-6.99c.353-1.431-1.968-2.758-5.683-3.259l-1.348 5.586c3.114.148 6.65-.787 7.03-2.327m.843-8.007H8.228c-1.185 0-2.16.934-2.222 2.099 8.884-.249 13.205 2.827 12.527 5.895-.612 2.76-3.43 3.819-8.01 4.169L9.838 31.5h9a2.23 2.23 0 0 0 2.229-2.218V18.718a2.23 2.23 0 0 0-2.229-2.218"/></svg>