<svg xmlns="http://www.w3.org/2000/svg" fill="none" viewBox="0 0 72 48"><path fill="#fff" d="M0 4a4 4 0 0 1 4-4h64a4 4 0 0 1 4 4v40a4 4 0 0 1-4 4H4a4 4 0 0 1-4-4V4Z"/><path stroke="#A1B2BA" stroke-opacity=".4" d="M.5 4A3.5 3.5 0 0 1 4 .5h64A3.5 3.5 0 0 1 71.5 4v40a3.5 3.5 0 0 1-3.5 3.5H4A3.5 3.5 0 0 1 .5 44V4Z"/><path fill="#252526" d="M21.205 27.694v-2.496h1.078c2.006 0 3.212-1.116 3.212-2.785 0-1.572-1.222-2.484-2.98-2.484h-2.609v7.765h1.299Zm1.252-6.61c1.032 0 1.731.474 1.731 1.48 0 .924-.777 1.479-1.797 1.479h-1.186v-2.96h1.252Zm21.058 3.895c0-1.607-1.217-2.82-2.83-2.82a2.822 2.822 0 0 0-1.99.818 2.802 2.802 0 0 0-.827 1.982v.043c0 1.618 1.17 2.796 2.818 2.796a2.795 2.795 0 0 0 2.601-1.68c.145-.335.223-.695.228-1.06v-.08Zm-4.418 0c0-.925.684-1.669 1.589-1.641.999.03 1.62.722 1.6 1.64-.022.919-.696 1.642-1.6 1.642-.905 0-1.59-.717-1.59-1.641h.001Zm16.64.327a3.11 3.11 0 0 0 .034-.566c0-1.514-1.159-2.577-2.631-2.577a2.778 2.778 0 0 0-1.97.785 2.758 2.758 0 0 0-.837 1.943v.068c0 1.652 1.102 2.842 2.771 2.842 1.126 0 2.065-.532 2.459-1.27l-.963-.532c-.254.416-.8.71-1.414.71-.859 0-1.462-.52-1.589-1.398l4.14-.005Zm-4.074-.936c.163-.717.697-1.155 1.438-1.155.742 0 1.324.474 1.392 1.155h-2.83Zm-15.152-2.108-1.508 3.872-1.345-3.872h-1.402l2.017 5.431-.835 1.907h1.334l3.072-7.338h-1.333ZM66 22.285a1.901 1.901 0 0 0-.534-.07c-.534 0-1.136.305-1.391.821v-.774h-1.23v5.431h1.23V24.8c0-1.006.672-1.42 1.368-1.42.183-.004.366.015.544.057L66 22.293v-.008Zm-4.06 3.021a3.1 3.1 0 0 0 .035-.566c0-1.514-1.159-2.577-2.631-2.577a2.778 2.778 0 0 0-1.97.785 2.758 2.758 0 0 0-.837 1.943v.068c0 1.652 1.102 2.842 2.771 2.842 1.12 0 2.064-.532 2.46-1.27l-.964-.532c-.255.416-.8.71-1.415.71-.857 0-1.46-.52-1.588-1.398l4.14-.005Zm-4.073-.936c.163-.717.697-1.155 1.438-1.155s1.324.474 1.392 1.155h-2.83Zm-27.56.596a1.678 1.678 0 0 1-1.005 1.582c-.203.09-.422.139-.644.144h-.079c-.95 0-1.588-.74-1.588-1.726a1.733 1.733 0 0 1 1.705-1.71c.962 0 1.612.74 1.612 1.71Zm19.191-.37c0-1.514-.742-2.435-2.133-2.435-.731 0-1.403.312-1.774.811v-.71H44.35v5.431h1.241V24.75c0-.913.66-1.49 1.45-1.49.787 0 1.205.531 1.205 1.432v3.005h1.252v-3.1Zm-19.19-2.334v.71c-.36-.474-.94-.811-1.81-.811-1.507 0-2.76 1.329-2.76 2.889 0 1.56 1.079 2.75 2.528 2.75.94 0 1.647-.335 2.037-.89v.786h1.216v-5.434h-1.211Z"/><path fill="url(#a)" fill-rule="evenodd" d="M11.703 28.046a4.371 4.371 0 0 0 4.379-4.363c0-2.41-1.96-4.364-4.38-4.364a4.371 4.371 0 0 0-4.378 4.364 4.37 4.37 0 0 0 4.379 4.363Zm0 1.32c3.15 0 5.703-2.545 5.703-5.683 0-3.139-2.554-5.683-5.703-5.683C8.553 18 6 20.544 6 23.683c0 3.138 2.553 5.683 5.703 5.683Z" clip-rule="evenodd"/><defs><radialGradient id="a" cx="0" cy="0" r="1" gradientTransform="matrix(-5.70273 0 0 -5.6828 11.703 23.683)" gradientUnits="userSpaceOnUse"><stop stop-color="#FF4700"/><stop offset=".109" stop-color="#FF4800"/><stop offset=".193" stop-color="#F66D00"/><stop offset=".25" stop-color="#E9A600"/><stop offset=".323" stop-color="#E3D301"/><stop offset=".417" stop-color="#91DA30"/><stop offset=".5" stop-color="#1DD58F"/><stop offset=".599" stop-color="#168BF0"/><stop offset=".75" stop-color="#DD53C9"/><stop offset=".891" stop-color="#F9491D"/><stop offset="1" stop-color="#FF4700"/></radialGradient></defs></svg>