<svg xmlns="http://www.w3.org/2000/svg" fill="none" viewBox="0 0 72 48"><path fill="#fff" stroke="#E3E3E8" d="M4 .5h64A3.5 3.5 0 0 1 71.5 4v40a3.5 3.5 0 0 1-3.5 3.5H4A3.5 3.5 0 0 1 .5 44V4A3.5 3.5 0 0 1 4 .5Z"/><path fill="#002855" fill-rule="evenodd" d="M15.18 26.948a2.44 2.44 0 0 1-1.2.312h-.327c-.085 0-.206-.007-.556-.069l1.185-5.042c.217-.196.453-.323.725-.385.273-.061.449-.078.618-.078.521 0 .924.152 1.118.483q.29.495.29 1.378 0 .717-.235 1.379a4.2 4.2 0 0 1-.645 1.185q-.41.524-.973.837m2.672-7.242q-.637-.313-1.509-.313-.419 0-.781.092c-.243.061-.471.14-.713.251L15.962 15l-2.818.441L10 28.804q.527.258 1.118.405.59.147 1.117.22.528.074.937.083.408.01.572.01 1.272 0 2.363-.488a5.9 5.9 0 0 0 1.89-1.323 6.2 6.2 0 0 0 1.263-1.967 6.3 6.3 0 0 0 .464-2.4 5.7 5.7 0 0 0-.2-1.543 3.6 3.6 0 0 0-.618-1.25 3 3 0 0 0-1.054-.845m7.451-1.493.414-1.76h-2.699l-.414 1.76zm3.086 8.824q.297.15.82.15.446 0 .865-.085c.183-.036.373-.08.561-.145l-.562 2.377-.157.038q-.652.15-1.546.151-1.285 0-1.993-.386t-1.006-1.055-.26-1.535a10 10 0 0 1 .26-1.828l1.825-7.799 2.888-.452-.708 2.92h3.092l-.559 2.298h-3.073l-.82 3.467q-.111.434-.14.81a1.34 1.34 0 0 0 .093.65q.12.273.42.424M62 19.39h-2.699l-1.57 6.68h.003l-.215.918q-.226.065-.45.111a4.4 4.4 0 0 1-.866.085q-.522 0-.82-.15a.86.86 0 0 1-.419-.425 1.34 1.34 0 0 1-.093-.65q.029-.375.14-.81l.82-3.466.54-2.298h-2.757l-1.248 5.331a10 10 0 0 0-.26 1.828q-.039.866.26 1.535.298.67 1.006 1.055.708.386 1.993.386.894 0 1.546-.15.026-.008.052-.013l-.002.005c-.12.55-.365.996-.758 1.344q-.59.522-1.75.523-.495 0-.901-.058l-.532 2.26q.539.07 1.198.071 1.233 0 2.158-.284a4.3 4.3 0 0 0 1.586-.862q.661-.578 1.106-1.448.444-.87.716-2.063l1.867-7.94-.007-.002zM19.942 29.523l2.383-10.137h2.698l-2.382 10.137zm28.82-7.837c-1.258 0-1.498 0-2.014.27-.365.193-.668.481-.934.818a3.9 3.9 0 0 0-.627 1.165q-.227.661-.227 1.378 0 .88.29 1.395.29.514 1.072.514.418 0 .753-.165.336-.165.717-.551.036-.459.118-.964a16 16 0 0 1 .169-.857l.015-.073zm1.917 3.41a6.2 6.2 0 0 0-.145 2.102c.072.704.339 1.783.598 2.323h-2.611a2.5 2.5 0 0 1-.327-.822q-.017-.086-.038-.151a4.8 4.8 0 0 1-1.126.698 3.35 3.35 0 0 1-1.38.275q-.907 0-1.552-.321a2.9 2.9 0 0 1-1.053-.863 3.5 3.5 0 0 1-.59-1.267 6.4 6.4 0 0 1-.181-1.552q0-1.267.444-2.386a6.1 6.1 0 0 1 1.235-1.956c.526-.556 1.797-1.785 3.882-1.785h4.187zm-15.79 2.096q.31.073.768.073.712 0 1.297-.268.585-.267.996-.748.412-.48.64-1.155a4.6 4.6 0 0 0 .228-1.488q0-.795-.347-1.35c-.231-.37-.637-.566-1.21-.568-.4-.002-1.065-.002-1.065-.002zm6.634-3.79q0 1.35-.438 2.468a5.9 5.9 0 0 1-1.216 1.931 5.4 5.4 0 0 1-1.864 1.267 6.1 6.1 0 0 1-2.367.452q-.621 0-1.242-.11l-.823 3.345h-2.705l3.14-13.363h3.605q1.022 0 1.763.314t1.215.86.704 1.274q.228.731.228 1.562" clip-rule="evenodd"/></svg>