<svg xmlns="http://www.w3.org/2000/svg" fill="none" viewBox="0 0 72 48"><path fill="#F1E22A" stroke="#E3E3E8" d="M4 .5h64A3.5 3.5 0 0 1 71.5 4v40a3.5 3.5 0 0 1-3.5 3.5H4A3.5 3.5 0 0 1 .5 44V4A3.5 3.5 0 0 1 4 .5Z"/><g fill="#000" clip-path="url(#a)"><path d="M14.18 28.14c-.348-.254-.7-.482-1.02-.748-1.047-.866-1.801-1.927-2.062-3.283-.328-1.713.18-3.2 1.318-4.479 1.208-1.357 2.763-2.11 4.524-2.443 2.129-.404 4.185-.165 6.125.828 1.387.71 2.485 1.723 3.116 3.174.838 1.926.378 4.11-1.193 5.707-1.215 1.235-2.714 1.924-4.397 2.252-.835.163-1.679.17-2.525.148a.84.84 0 0 0-.462.128c-1.188.787-2.366 1.587-3.547 2.383q-.072.046-.14.095c-.16.113-.326.147-.493.028-.168-.12-.181-.29-.132-.476zm19.748.324v3.738h-2.706V18.246c.386 0 .77-.003 1.155.002.248.003.55-.065.727.052.166.11.197.42.287.643.018.044.04.087.072.159l.2-.178c1.24-1.1 3.262-1.301 4.639-.459a3.32 3.32 0 0 1 1.425 1.8c.621 1.807.678 3.634-.009 5.43-.813 2.13-2.7 3.148-4.966 2.89-.262-.03-.523-.076-.824-.121m-.002-1.89c.366 0 .702.005 1.038 0 1.012-.017 1.764-.537 2.143-1.476.261-.646.32-1.327.313-2.011-.005-.643-.04-1.286-.308-1.89-.242-.546-.643-.89-1.24-.996-.607-.107-1.182.006-1.746.227-.145.057-.206.13-.205.297.008 1.858.005 3.716.005 5.574zm24.426-8.718 2.648.738c-.018.075-.024.129-.042.179-1.08 2.965-2.15 5.935-3.246 8.895-.494 1.332-1.117 2.608-2.073 3.678-.398.446-.885.813-1.342 1.206-.053.046-.2.066-.242.03-.534-.475-1.057-.962-1.6-1.462.081-.075.142-.135.206-.192a9.4 9.4 0 0 0 1.908-2.322.47.47 0 0 0 .04-.447q-1.707-4.635-3.406-9.273l-.095-.266 2.703-.729 2.28 7.872zm-15.435 3.052c-.24-.588-.477-1.157-.697-1.733-.017-.046.068-.163.133-.204.801-.503 1.682-.798 2.613-.942.795-.123 1.588-.115 2.373.085 1.449.371 2.365 1.418 2.536 2.908q.055.468.058.938c.005 2.028.003 4.057.003 6.085v.296c-.385 0-.744.003-1.103 0-.266-.003-.59.078-.778-.046-.171-.113-.194-.451-.283-.69-.008-.021-.026-.039-.05-.074q-.18.119-.36.232c-.873.558-1.807.897-2.865.857-1.576-.059-2.67-1.094-2.812-2.664-.05-.544-.037-1.079.125-1.599.35-1.122 1.192-1.71 2.278-1.97.535-.127 1.095-.168 1.647-.202.543-.032 1.09-.007 1.632-.007.159-1.185-.415-1.896-1.535-1.92-.935-.021-1.819.195-2.674.55zm4.48 3.025c-.545 0-1.057-.006-1.57.003a2.5 2.5 0 0 0-.5.066c-.901.2-1.282.72-1.202 1.624.04.456.33.786.784.846.881.117 1.663-.162 2.382-.649.05-.034.101-.113.102-.172.008-.56.005-1.122.005-1.718"/></g><defs><clipPath id="a"><path fill="#fff" d="M11 17h50v15.6H11z"/></clipPath></defs></svg>