<svg xmlns="http://www.w3.org/2000/svg" fill="none" viewBox="0 0 72 48"><path fill="#fff" stroke="#E3E3E8" d="M4 .5h64A3.5 3.5 0 0 1 71.5 4v40a3.5 3.5 0 0 1-3.5 3.5H4A3.5 3.5 0 0 1 .5 44V4A3.5 3.5 0 0 1 4 .5Z"/><path fill="#75C8D1" d="M55.01 18v10.974H66V18zm8.244 8.232H57.76v-5.49h5.493z"/><path fill="#F5A83B" d="M57.757 26.232v-5.49h5.497L66 18H55.006v10.974l2.746-2.742z"/><path fill="#231815" d="M12.661 19.19c.359-.005.713.009 1.072.046.18 0 .86 0 1.113-.271a.45.45 0 0 0 .101-.175q.033-.097.023-.202a.48.48 0 0 0-.202-.34 1.1 1.1 0 0 0-.777-.225H7.325S6.5 18 6.16 18.436a.5.5 0 0 0-.129.198.5.5 0 0 0-.032.234.53.53 0 0 0 .248.386c.18.092.382.129.58.106.428-.11.87-.166 1.316-.161l1.27-.023h.105l-1.555 7.052s-.303 1.198-.538 1.814c-.285.767.74.891.74.891s1.385.24 1.606-.74l1.873-9.008h1.016zm6.077 2.31-.226.078a3.9 3.9 0 0 0-1.48-.349 4.02 4.02 0 0 0-2.485.699 6.86 6.86 0 0 0-2.59 4.727 2.2 2.2 0 0 0 .566 1.708 2.23 2.23 0 0 0 1.652.726c1.094.037 1.853-.79 2.465-1.557a7 7 0 0 0-.142.85c-.042.372.372.657.86.661.487 0 .947-.234.961-.583q.119-1.268.396-2.508l.299-1.36c.28-1.282.465-1.984.58-2.444a.647.647 0 0 0-.548-.675.6.6 0 0 0-.313.027zm-1.527 2.803c-.295 1.392-.562 2.19-.953 2.7-.501.68-1.025.887-1.435.874-.7-.023-.943-.717-.91-1.668.04-1.148.708-4.125 2.838-4.07.303.023.607.096.887.216zM42.599 21.5l-.225.074a3.9 3.9 0 0 0-1.482-.35 4 4 0 0 0-2.48.7 6.86 6.86 0 0 0-2.59 4.726 2.2 2.2 0 0 0 .567 1.709 2.23 2.23 0 0 0 1.651.726c1.113.037 1.854-.79 2.47-1.553q-.098.419-.142.845c-.037.354.372.657.865.662.492 0 .947-.235.961-.584q.119-1.267.396-2.508l.299-1.36c.28-1.277.464-1.984.575-2.443a.66.66 0 0 0-.055-.313.7.7 0 0 0-.198-.248.64.64 0 0 0-.295-.12.7.7 0 0 0-.312.033zm-1.527 2.803c-.29 1.396-.557 2.195-.953 2.7-.5.685-1.025.887-1.435.878-.704-.027-.943-.74-.91-1.672.04-1.148.703-4.12 2.838-4.07.303.023.607.096.887.216zM25.403 21.1c-1.113-.04-1.71.442-2.295 1.264a2.2 2.2 0 0 0 .142-.597c.042-.35-.542-.625-1.035-.63-.492 0-.947.24-.961.584a19 19 0 0 1-.4 2.508l-.295 1.36c-.06.257-.11.482-.151.698l-.792 3.592s-.266 1.043-.464 1.58c-.244.671.644.772.644.772s1.205.212 1.394-.661l.56-2.729q.404.097.81.11a3.98 3.98 0 0 0 2.48-.698 6.82 6.82 0 0 0 2.595-4.727 2.2 2.2 0 0 0-.106-.914 2.23 2.23 0 0 0-1.22-1.332 2.2 2.2 0 0 0-.906-.184zm.263 2.877c-.037 1.148-.704 4.125-2.834 4.07a3 3 0 0 1-.865-.203l.28-1.36.13-.578c.285-1.392.552-2.196.947-2.701.502-.68 1.026-.887 1.435-.873.7 0 .943.698.907 1.65zm7.935-5.959-2.69.065c-.824 0-1.077.556-1.082.74 0 0-1.076 6.504-1.31 7.441 0 0-.268 1.208-.475 1.852-.257.78.773.863.773.863s1.39.193 1.573-.818l.58-3.413c2.461.087 3.528-.523 3.528-.523a4.1 4.1 0 0 0 1.748-1.48c.428-.652.663-1.41.672-2.186.156-2.752-3.317-2.54-3.317-2.54m-.285 5.223a5.05 5.05 0 0 1-2.134.313l.74-4.474s.64-.042 1.008 0c.368.04 1.656.023 1.674 1.378.019 1.36-.529 2.411-1.288 2.784m17.251-1.908a1.24 1.24 0 0 0-1.325.804l-1.987 5.003-.645-5.04c-.138-.91-1.398-.776-1.398-.776s-.925.046-.718.74c.17.574.373 1.663.373 1.663.446 2.439.612 4.414.612 4.414 0 .18.06.616.888.818 0 0-.598 2.122-2.512 2.219 0 0-.175 0-.24.275-.064.276-.137 1.236.856 1.245a1.4 1.4 0 0 0 .63-.165 3.9 3.9 0 0 0 1.114-.882 12.4 12.4 0 0 0 2.047-3.29l2.788-6.288s.404-.648-.483-.74"/></svg>