<svg xmlns="http://www.w3.org/2000/svg" fill="none" viewBox="0 0 72 48"><path fill="#fff" d="M0 4a4 4 0 0 1 4-4h64a4 4 0 0 1 4 4v40a4 4 0 0 1-4 4H4a4 4 0 0 1-4-4V4Z"/><path stroke="#A1B2BA" stroke-opacity=".4" d="M.5 4A3.5 3.5 0 0 1 4 .5h64A3.5 3.5 0 0 1 71.5 4v40a3.5 3.5 0 0 1-3.5 3.5H4A3.5 3.5 0 0 1 .5 44V4Z"/><path fill="#005697" fill-rule="evenodd" d="M18.636 35.516a1.34 1.34 0 0 0-.205-.747 1.349 1.349 0 0 0-.54-.481c.223-.111.396-.274.52-.49a1.45 1.45 0 0 0 .183-.73v-.15c0-.332-.064-.608-.192-.83a1.438 1.438 0 0 0-.541-.531 2.592 2.592 0 0 0-.834-.287 6.158 6.158 0 0 0-1.082-.087 17.227 17.227 0 0 0-.842.029 10.487 10.487 0 0 0-.659.063c-.162.028-.276.077-.343.15-.067.071-.101.201-.101.39v5.046c0 .188.035.318.105.39.07.072.188.121.356.15.084.016.185.03.302.04.117.012.244.021.381.03a17.554 17.554 0 0 0 .851.029c.364 0 .706-.028 1.028-.083.32-.055.6-.154.838-.295.237-.141.426-.332.566-.572.14-.241.21-.544.21-.91v-.124Zm-1.425-2.383a.762.762 0 0 1-.042.254.5.5 0 0 1-.138.207.72.72 0 0 1-.26.141 1.346 1.346 0 0 1-.415.054h-.939v-1.436c.028 0 .071 0 .13-.004.058-.003.12-.004.184-.004h.323c.43 0 .73.054.901.162.17.108.256.275.256.502v.124Zm-.214 3.013a.641.641 0 0 0 .248-.539v-.091c0-.2-.065-.372-.193-.52-.129-.146-.36-.22-.696-.22h-.939v1.553h.147c.064 0 .13.002.2.004.07.003.138.005.202.005h.138c.43 0 .728-.064.893-.192Zm6.234-1.85a1.95 1.95 0 0 0-.139-.776 1.348 1.348 0 0 0-.39-.523 1.62 1.62 0 0 0-.616-.299 3.231 3.231 0 0 0-.817-.095c-.28 0-.552.02-.817.058a6.9 6.9 0 0 0-.633.116c-.107.028-.16.089-.16.183v.672c0 .056.014.094.042.116a.169.169 0 0 0 .11.034h.041l.252-.021c.1-.009.213-.015.34-.021a18.757 18.757 0 0 1 .8-.017c.195 0 .35.036.461.108.112.072.168.227.168.465v.299h-.453c-.721 0-1.245.112-1.572.336-.327.224-.49.58-.49 1.067v.075c0 .27.04.497.12.68.082.182.19.33.324.44.134.11.286.19.457.236.17.047.348.07.532.07.252 0 .468-.032.65-.099.181-.066.353-.157.515-.274v.133a.16.16 0 0 0 .05.116c.034.033.073.05.118.05h.94a.162.162 0 0 0 .117-.05.158.158 0 0 0 .05-.116v-2.963Zm-1.656 2.137a2.24 2.24 0 0 0 .323-.129v-.912h-.478a1.46 1.46 0 0 0-.36.037.54.54 0 0 0-.227.112.395.395 0 0 0-.117.19.958.958 0 0 0-.034.266v.075c0 .177.043.29.13.34.087.05.22.075.398.075.129 0 .25-.018.365-.054Zm6.787.818v-2.764a4 4 0 0 0-.063-.735 1.633 1.633 0 0 0-.226-.597 1.157 1.157 0 0 0-.453-.403c-.193-.1-.44-.15-.742-.15-.268 0-.506.033-.712.097a2.37 2.37 0 0 0-.654.339v-.201a.161.161 0 0 0-.05-.118.162.162 0 0 0-.118-.05h-.939a.161.161 0 0 0-.117.05.159.159 0 0 0-.05.116v4.416c0 .044.017.084.054.12a.168.168 0 0 0 .121.054h1.015a.156.156 0 0 0 .117-.054.171.171 0 0 0 .05-.12v-3.263c.146-.077.283-.14.411-.19a1.04 1.04 0 0 1 .378-.075c.128 0 .233.013.314.038a.354.354 0 0 1 .189.128c.044.06.075.14.092.24.017.1.025.221.025.364v2.758c0 .044.017.085.05.12a.155.155 0 0 0 .118.054h1.014a.169.169 0 0 0 .122-.054.165.165 0 0 0 .054-.12Zm4.125-.805v.739c0 .06-.014.103-.042.128a.335.335 0 0 1-.134.062 4.603 4.603 0 0 1-1.115.125c-.593 0-1.067-.18-1.421-.54-.355-.36-.533-.88-.533-1.56v-.697c0-.68.178-1.201.533-1.56.354-.36.828-.54 1.42-.54a4.682 4.682 0 0 1 1.116.124.336.336 0 0 1 .134.063c.028.025.042.067.042.128v.739a.126.126 0 0 1-.046.104.175.175 0 0 1-.113.037h-.017a7.887 7.887 0 0 0-1.023-.058.783.783 0 0 0-.268.046.502.502 0 0 0-.218.157.833.833 0 0 0-.147.3 1.664 1.664 0 0 0-.055.46v.697c0 .183.018.336.055.46a.831.831 0 0 0 .147.3.498.498 0 0 0 .218.157.79.79 0 0 0 .268.046 7.85 7.85 0 0 0 1.023-.058h.017c.044 0 .082.012.113.037a.13.13 0 0 1 .046.104Zm4.654-1.685c0-.332-.047-.63-.14-.897a1.849 1.849 0 0 0-.402-.676 1.799 1.799 0 0 0-.655-.432 2.462 2.462 0 0 0-.904-.153 2.46 2.46 0 0 0-.903.153c-.26.103-.48.247-.66.432-.178.185-.314.41-.407.676a2.711 2.711 0 0 0-.138.897v.58c0 .333.046.632.138.897.093.266.228.491.408.677.179.185.399.329.66.431.26.103.56.154.902.154.342 0 .643-.051.904-.154.26-.102.478-.246.655-.431.176-.186.31-.411.403-.677.092-.265.139-.564.139-.896v-.581Zm-2.101 1.602c.495 0 .742-.34.742-1.021v-.581c0-.675-.247-1.013-.742-1.013-.245 0-.43.085-.559.253-.128.17-.191.422-.191.76v.58c0 .338.063.593.191.764.128.172.314.258.559.258Zm7.089.888v-2.764c0-.26-.022-.505-.063-.735a1.63 1.63 0 0 0-.227-.597 1.158 1.158 0 0 0-.453-.403c-.192-.1-.44-.15-.742-.15a2.41 2.41 0 0 0-.712.097 2.37 2.37 0 0 0-.654.339v-.201a.16.16 0 0 0-.05-.118.16.16 0 0 0-.118-.05h-.939a.162.162 0 0 0-.117.05.16.16 0 0 0-.05.116v4.416c0 .044.018.084.054.12a.169.169 0 0 0 .122.054h1.014a.156.156 0 0 0 .117-.054.172.172 0 0 0 .05-.12v-3.263c.146-.077.283-.14.411-.19.13-.05.255-.075.378-.075.128 0 .233.013.314.038a.354.354 0 0 1 .189.128c.045.06.075.14.092.24.017.1.025.221.025.364v2.758c0 .044.017.085.05.12a.156.156 0 0 0 .118.054h1.014a.17.17 0 0 0 .122-.054.166.166 0 0 0 .055-.12Zm3.656-.624v.642c0 .093-.054.148-.16.165-.129.022-.24.038-.335.05a2.854 2.854 0 0 1-.327.016 3.03 3.03 0 0 1-.605-.054.915.915 0 0 1-.437-.212.99.99 0 0 1-.267-.436 2.344 2.344 0 0 1-.091-.718v-2.407l-.671-.108a.297.297 0 0 1-.122-.062.14.14 0 0 1-.054-.112v-.548c0-.044.018-.084.054-.12a.17.17 0 0 1 .122-.054h.67v-.68c0-.045.017-.08.05-.108a.29.29 0 0 1 .117-.059l1.017-.174h.025a.16.16 0 0 1 .108.037c.028.025.042.06.042.104v.88h.688c.044 0 .083.017.117.05a.16.16 0 0 1 .05.117v.678a.16.16 0 0 1-.05.117.161.161 0 0 1-.117.05h-.688v2.416c0 .166.014.273.042.32.028.047.106.07.234.07h.411c.118 0 .177.047.177.14Zm4.477-2.331c0-.304-.046-.563-.139-.776a1.349 1.349 0 0 0-.39-.523 1.622 1.622 0 0 0-.616-.299 3.232 3.232 0 0 0-.817-.095c-.28 0-.552.02-.818.058a6.894 6.894 0 0 0-.633.116c-.106.028-.159.089-.159.183v.672c0 .056.014.094.042.116a.17.17 0 0 0 .109.034h.042l.251-.021c.101-.009.214-.015.34-.021a18.81 18.81 0 0 1 .8-.017c.196 0 .35.036.462.108.111.072.167.227.167.465v.299h-.452c-.722 0-1.245.112-1.572.336-.327.224-.49.58-.49 1.067v.075c0 .27.04.497.12.68.081.182.19.33.324.44.134.11.286.19.456.236.17.047.348.07.533.07.252 0 .468-.032.65-.099.181-.066.353-.157.515-.274v.133a.16.16 0 0 0 .05.116c.034.033.073.05.118.05h.939a.162.162 0 0 0 .117-.05.159.159 0 0 0 .05-.116v-2.963Zm-1.657 2.137a2.24 2.24 0 0 0 .323-.129v-.912h-.478a1.46 1.46 0 0 0-.36.037.541.541 0 0 0-.227.112.393.393 0 0 0-.117.19.954.954 0 0 0-.034.266v.075c0 .177.044.29.13.34.087.05.22.075.399.075.128 0 .25-.018.364-.054Zm5.781.752v-.74a.127.127 0 0 0-.046-.103.173.173 0 0 0-.113-.037h-.017a7.84 7.84 0 0 1-1.023.058.777.777 0 0 1-.268-.046.5.5 0 0 1-.218-.158.83.83 0 0 1-.147-.298 1.658 1.658 0 0 1-.054-.461v-.697c0-.183.018-.337.054-.46a.831.831 0 0 1 .147-.3.503.503 0 0 1 .218-.157.782.782 0 0 1 .268-.046 7.877 7.877 0 0 1 1.023.058h.017a.174.174 0 0 0 .113-.037.126.126 0 0 0 .046-.104v-.739c0-.06-.014-.103-.042-.129a.336.336 0 0 0-.134-.062 5.82 5.82 0 0 0-.457-.083 4.573 4.573 0 0 0-.658-.041c-.593 0-1.066.18-1.421.54-.355.359-.532.88-.532 1.56v.697c0 .68.177 1.2.532 1.56.355.36.828.54 1.421.54a4.6 4.6 0 0 0 1.115-.125.335.335 0 0 0 .134-.062c.028-.025.042-.068.042-.129ZM58 36.627v.642c0 .093-.053.148-.16.165-.128.022-.24.038-.335.05a2.854 2.854 0 0 1-.327.016 3.01 3.01 0 0 1-.604-.054.912.912 0 0 1-.438-.212.988.988 0 0 1-.267-.436 2.345 2.345 0 0 1-.091-.718v-2.407l-.67-.108a.297.297 0 0 1-.122-.062.14.14 0 0 1-.055-.112v-.548c0-.044.018-.084.055-.12a.17.17 0 0 1 .121-.054h.671v-.68c0-.045.017-.08.05-.108a.29.29 0 0 1 .117-.059l1.016-.174h.025c.045 0 .08.013.108.037.028.025.042.06.042.104v.88h.688c.044 0 .084.017.117.05a.16.16 0 0 1 .05.117v.678a.16.16 0 0 1-.05.117.161.161 0 0 1-.117.05h-.688v2.416c0 .166.014.273.042.32.028.047.106.07.235.07h.41c.118 0 .177.047.177.14Z" clip-rule="evenodd"/><path fill="#005697" d="M53.206 15.21H39.584L38.2 16.754l-4.495 5.01-1.385 1.545H18.877l1.364-1.564.646-.74 1.364-1.563h-6.194c-1.131 0-2.057.94-2.057 2.088v4.406c0 1.15.926 2.089 2.057 2.089h23.711c1.132 0 2.677-.698 3.435-1.551l3.587-4.039 6.416-7.225Z"/><path fill="#FBD500" d="M55.943 10.5c1.131 0 2.057.94 2.057 2.089v4.406c0 1.148-.926 2.088-2.057 2.088H49.77l1.377-1.551.682-.77 1.377-1.552H39.585l-7.266 8.105H18.794l9.7-10.857.367-.411c.76-.85 2.308-1.547 3.44-1.547h23.642Z"/></svg>