<svg xmlns="http://www.w3.org/2000/svg" fill="none" viewBox="0 0 72 48"><path fill="#fff" stroke="#E3E3E8" d="M4 .5h64A3.5 3.5 0 0 1 71.5 4v40a3.5 3.5 0 0 1-3.5 3.5H4A3.5 3.5 0 0 1 .5 44V4A3.5 3.5 0 0 1 4 .5Z"/><path fill="#000" fill-rule="evenodd" d="M21 10.1h16.49C48.693 10.1 53 16.229 53 23.976 53 33.242 46.982 37.9 37.49 37.9H21zm1.566 1.667v24.564h14.923c9.003 0 13.896-4.217 13.896-12.307 0-8.335-5.284-12.257-13.896-12.257zm4.403 12.699a2.99 2.99 0 0 0 2.985-2.991 2.99 2.99 0 0 0-2.985-2.991 2.99 2.99 0 0 0-2.984 2.99 2.99 2.99 0 0 0 2.984 2.991m-2.397 1.275h4.795v8.53h-4.795z" clip-rule="evenodd"/><path fill="#D50072" fill-rule="evenodd" d="M45.954 18.73h1.37v4.118h2.006c-.538-7.502-6.458-9.169-11.84-9.169h-5.725v5.05h.831c1.566 0 2.496 1.03 2.496 2.746s-.93 2.746-2.447 2.746h-.88v10.05h5.724c8.759 0 11.744-4.069 11.89-10.05h-3.425zm-6.605 4.118v1.372h-3.425v-5.49h3.327v1.372h-1.957v.637h1.859v1.373h-1.81v.736zm.587 1.372 1.663-5.49h1.958l1.663 5.49h-1.419l-.293-1.03h-1.81l-.294 1.03zm2.168-2.45h-.015v.048zm0 0h.963l-.44-1.52h-.05zm-10.34 1.078v-2.746h.832c.539 0 1.126.147 1.126 1.373s-.538 1.373-1.126 1.373z" clip-rule="evenodd"/></svg>