<svg xmlns="http://www.w3.org/2000/svg" fill="none" viewBox="0 0 72 48"><path fill="#fff" stroke="#E3E3E8" d="M4 .5h64A3.5 3.5 0 0 1 71.5 4v40a3.5 3.5 0 0 1-3.5 3.5H4A3.5 3.5 0 0 1 .5 44V4A3.5 3.5 0 0 1 4 .5Z"/><path fill="#000" d="m64.987 20.799.013-.015h-2.167l-1.368 4.703h-.073l-1.571-4.703h-2.575l3.098 7.762-1.294 2.366v.057h2.022zm-24.025-.015h-2.298v7.733h2.298zm15.831 5.799v-3.231c0-1.76-1.048-2.727-2.896-2.727-1.18 0-1.993.202-3.478.649l.407 1.775c1.353-.606 1.95-.865 2.575-.865.756 0 1.092.534 1.092 1.357v.057c-2.634.49-3.45.764-3.958 1.27-.378.374-.538.908-.538 1.529 0 1.486 1.164 2.279 2.255 2.279.815 0 1.47-.303 2.357-.967l.16.808h2.3zm-2.299.058c-.61.332-.96.462-1.367.462-.553 0-.903-.361-.903-.937 0-.216.044-.433.218-.606.277-.274.815-.476 2.052-.764zm-7.812-6.016c-.844 0-1.499.317-2.241.923v-.764h-2.299v10.185h2.299v-2.525c.437.115.843.174 1.338.174 2.052 0 3.9-1.501 3.9-4.17 0-2.395-1.338-3.823-2.997-3.823m-1.456 6.564c-.262 0-.51-.029-.787-.116V22.89c.481-.331.873-.49 1.367-.49.86 0 1.543.678 1.543 2.121.001 1.846-1.003 2.668-2.123 2.668"/><path fill="#1677FF" d="M19.18 16.8H9.322A2.323 2.323 0 0 0 7 19.122v9.856A2.323 2.323 0 0 0 9.323 31.3h9.856a2.32 2.32 0 0 0 2.322-2.323v-9.855a2.32 2.32 0 0 0-2.322-2.322"/><path fill="#fff" d="M18.94 25.906c-.58-.195-1.359-.492-2.226-.806.52-.906.937-1.937 1.21-3.057h-2.858v-1.03h3.501v-.574h-3.501v-1.717h-1.429c-.25 0-.25.247-.25.247v1.468H9.846v.575h3.54v1.03h-2.924v.574h5.671a10 10 0 0 1-.816 1.997c-1.84-.608-3.804-1.1-5.037-.796-.79.194-1.297.54-1.596.904-1.37 1.667-.388 4.198 2.505 4.198 1.711 0 3.36-.953 4.636-2.525 1.905.916 5.676 2.489 5.676 2.489v-2.241c.002 0-.472-.038-2.561-.736m-8.02 2.045c-2.257 0-2.924-1.777-1.809-2.75.373-.328 1.052-.488 1.414-.523 1.34-.132 2.58.379 4.045 1.093-1.029 1.342-2.34 2.18-3.65 2.18"/><path fill="#000" d="M30.763 18.346h-3.085L24.23 28.517h2.125l.582-1.991h3.652l.553 1.991h2.72zm-3.347 6.52 1.367-4.688h.058l1.294 4.688zm9.676-6.882h-2.299v10.532h2.299z"/><path fill="#1677FF" d="M38.489 18.923c0 .75.553 1.255 1.324 1.255.772 0 1.325-.505 1.325-1.255 0-.736-.553-1.255-1.325-1.255-.77 0-1.324.519-1.324 1.255"/></svg>