<svg xmlns="http://www.w3.org/2000/svg" fill="none" viewBox="0 0 72 48"><path fill="#fff" stroke="#E3E3E8" d="M4 .5h64A3.5 3.5 0 0 1 71.5 4v40a3.5 3.5 0 0 1-3.5 3.5H4A3.5 3.5 0 0 1 .5 44V4A3.5 3.5 0 0 1 4 .5Z"/><path fill="#0F3365" fill-rule="evenodd" d="M13.88 15.474c-1.227.002-2.22.884-2.222 1.974v13.104c.003 1.09.995 1.972 2.222 1.974h23.116V15.474zm0-1.474h44.24c2.143 0 3.88 1.543 3.88 3.448v13.104C62 32.457 60.263 34 58.12 34H13.88C11.737 34 10 32.457 10 30.552V17.449C10 15.543 11.737 14 13.88 14" clip-rule="evenodd"/><path fill="#FFFFFE" fill-rule="evenodd" d="M40.779 28.409h-1.941v-7.004h1.79v.9h.022c.388-.699 1.207-1.015 2.092-1.015 1.553 0 2.404 1.313 2.404 2.52 0 1.475-.895 2.702-2.566 2.702-.68 0-1.413-.22-1.78-.814h-.021zm1.186-3.22c.733 0 1.175-.546 1.175-1.34 0-.662-.42-1.237-1.175-1.237-.712 0-1.186.556-1.186 1.303 0 .729.54 1.274 1.186 1.274m10.618 3.22c.399.077.798.115 1.208.115 1.678 0 2.147-1.083 2.656-2.259l.093-.213 2.06-4.647h-1.941l-1.154 3.257h-.022l-1.207-3.257h-2.092l2.275 5.107c-.14.44-.507.69-.98.69a2.6 2.6 0 0 1-.766-.106zm-.724-1.85a5.5 5.5 0 0 1-.108-1.178v-1.86c0-1.523-1.24-2.068-2.674-2.068-.83 0-1.553.105-2.243.354l.032 1.169c.54-.268 1.165-.374 1.79-.374.701 0 1.273.182 1.284.863a6 6 0 0 0-.906-.068c-1.035 0-2.9.183-2.9 1.706 0 1.083.991 1.572 2.102 1.572.798 0 1.337-.279 1.779-.901h.021c0 .152.011.304.023.457q.013.163.02.328zm-3.915-1.58c0-.48.518-.662 1.176-.662.206 0 .407.01.594.019l.225.01c0 .584-.463 1.179-1.197 1.179-.453 0-.798-.202-.798-.547" clip-rule="evenodd"/><path fill="#D8232A" fill-rule="evenodd" d="M21.97 26.396h1.941v-4.991h-1.94zm0-5.806h1.941v-1.265h-1.94zm6.688.7c.226 0 .463.028.657.057l-.097 1.437c-.215-.057-.431-.057-.657-.057-.906 0-1.413.584-1.413 1.562v2.107h-1.94v-4.992h1.768v.92h.021c.334-.632.82-1.034 1.66-1.034m7.266 2.616c0 1.648-1.412 2.606-3.267 2.606s-3.267-.958-3.267-2.607c0-1.658 1.413-2.615 3.267-2.615 1.855 0 3.267.957 3.267 2.616m-4.528 0c0 .738.366 1.398 1.261 1.398s1.262-.66 1.262-1.398c0-.748-.367-1.409-1.262-1.409s-1.261.661-1.261 1.409m-12.523-2.501h1.758v4.407c0 2.05-1.122 2.712-3.386 2.712a7.3 7.3 0 0 1-2.146-.316l.098-1.36c.592.258 1.088.411 1.897.411 1.122 0 1.725-.47 1.725-1.447v-.268h-.021c-.464.585-1.11.852-1.887.852-1.542 0-2.502-1.034-2.502-2.51 0-1.485.787-2.596 2.534-2.596.83 0 1.499.402 1.909 1.015h.02zm-1.358 1.207c-.723 0-1.1.565-1.1 1.245 0 .776.518 1.217 1.1 1.217.69 0 1.24-.517 1.24-1.284 0-.556-.367-1.178-1.24-1.178" clip-rule="evenodd"/></svg>