<svg xmlns="http://www.w3.org/2000/svg" fill="none" viewBox="0 0 72 48"><path fill="#fff" d="M0 4a4 4 0 0 1 4-4h64a4 4 0 0 1 4 4v40a4 4 0 0 1-4 4H4a4 4 0 0 1-4-4V4Z"/><path stroke="#A1B2BA" stroke-opacity=".4" d="M.5 4A3.5 3.5 0 0 1 4 .5h64A3.5 3.5 0 0 1 71.5 4v40a3.5 3.5 0 0 1-3.5 3.5H4A3.5 3.5 0 0 1 .5 44V4Z"/><path fill="#10298E" fill-rule="evenodd" d="M40.83 24.138h2.293c.727-.027 1.169-.084 1.328-.174.217-.122.363-.368.436-.735.046-.245.07-.609.07-1.092 0-.592-.047-1.031-.14-1.318-.132-.401-.449-.646-.95-.735-.1-.013-.337-.02-.713-.02H40.83v4.074ZM37.153 31V17h6.851c.94 0 1.657.079 2.15.236 1.127.361 1.883 1.102 2.27 2.222.2.587.3 1.472.3 2.653 0 1.42-.111 2.44-.33 3.062-.44 1.228-1.344 1.936-2.71 2.12-.161.027-.844.052-2.05.072l-.611.02H40.83V31h-3.677Zm-15.044-9.534h-3.421c0-.576-.066-.962-.198-1.158-.203-.29-.765-.436-1.685-.436-.893 0-1.485.083-1.774.251-.289.168-.433.534-.433 1.097 0 .51.128.845.384 1.006.184.114.427.181.73.201l.69.05c1.478.1 2.402.172 2.77.212 1.17.12 2.017.44 2.543.956.414.402.66.929.74 1.58.046.388.069.828.069 1.317 0 1.127-.105 1.953-.316 2.476-.38.96-1.236 1.566-2.568 1.82-.557.108-1.41.162-2.559.162-1.915 0-3.25-.117-4.005-.352-.925-.288-1.535-.87-1.83-1.748-.165-.489-.246-1.303-.246-2.442h3.421v.292c0 .608.171 1 .511 1.173.236.12.521.183.856.19h1.258c.641 0 1.051-.033 1.228-.1.314-.127.52-.331.62-.613.052-.174.078-.399.078-.674 0-.617-.22-.992-.659-1.126-.163-.053-.926-.127-2.288-.221-1.093-.08-1.853-.157-2.278-.232-1.12-.214-1.867-.656-2.24-1.326-.327-.57-.49-1.431-.49-2.584 0-.877.088-1.581.265-2.11.177-.53.462-.932.856-1.207.577-.422 1.315-.67 2.213-.744a28.037 28.037 0 0 1 2.489-.101c1.436 0 2.459.084 3.069.252 1.489.41 2.233 1.558 2.233 3.444 0 .155-.011.387-.033.696Zm32.011-1.682 1.723 6.069h-3.395l1.672-6.069Zm-2.463 8.796h4.917l.701 2.42H61l-4.156-14h-5.547l-4.105 14h3.804l.66-2.42Z" clip-rule="evenodd"/><path fill="#FFBE00" fill-rule="evenodd" d="M32.078 18.97c1.516 0 2.87.716 3.76 1.837l.792-1.741a6.86 6.86 0 0 0-4.788-1.941 6.89 6.89 0 0 0-6.393 4.33h-1.546l-.913 2.006h1.989a6.885 6.885 0 0 0 .01 1.243h-1l-.913 2.005h2.42a6.892 6.892 0 0 0 6.346 4.211 6.85 6.85 0 0 0 3.876-1.195v-2.458a4.784 4.784 0 0 1-3.64 1.694c-1.696 0-3.187-.896-4.055-2.252h5.068l.912-2.005h-6.726a5.19 5.19 0 0 1-.028-1.243h7.32l.912-2.005h-7.6c.841-1.486 2.405-2.486 4.197-2.486Z" clip-rule="evenodd"/></svg>