<svg xmlns="http://www.w3.org/2000/svg" fill="none" viewBox="0 0 72 48"><path fill="#fff" d="M0 4a4 4 0 0 1 4-4h64a4 4 0 0 1 4 4v40a4 4 0 0 1-4 4H4a4 4 0 0 1-4-4V4Z"/><path stroke="#A1B2BA" stroke-opacity=".4" d="M.5 4A3.5 3.5 0 0 1 4 .5h64A3.5 3.5 0 0 1 71.5 4v40a3.5 3.5 0 0 1-3.5 3.5H4A3.5 3.5 0 0 1 .5 44V4Z"/><path fill="#179BD7" d="M45.27 17h-4.067a.566.566 0 0 0-.558.48l-1.644 10.479a.34.34 0 0 0 .334.393h2.087c.194 0 .36-.142.39-.336l.467-2.97a.565.565 0 0 1 .557-.48h1.286c2.679 0 4.224-1.303 4.628-3.884.183-1.13.007-2.017-.519-2.638C47.654 17.36 46.63 17 45.27 17Zm.468 3.828c-.222 1.466-1.336 1.466-2.414 1.466h-.613l.43-2.738a.338.338 0 0 1 .335-.288h.28c.734 0 1.428 0 1.785.42.214.252.279.625.197 1.14Zm11.682-.048h-1.945a.338.338 0 0 0-.334.288l-.086.547-.137-.198c-.422-.615-1.36-.82-2.299-.82-2.15 0-3.988 1.637-4.346 3.935-.185 1.146.078 2.242.725 3.006.595.703 1.442.995 2.452.995 1.733 0 2.695-1.12 2.695-1.12l-.087.544a.34.34 0 0 0 .335.394h1.753a.566.566 0 0 0 .558-.48l1.052-6.697a.34.34 0 0 0-.335-.393Zm-2.713 3.81c-.187 1.117-1.07 1.868-2.197 1.868-.564 0-1.017-.182-1.307-.528-.287-.343-.396-.831-.305-1.375.176-1.108 1.073-1.883 2.181-1.883.553 0 1.003.184 1.299.533.297.352.415.843.329 1.384Zm5.009-7.302-1.669 10.67a.34.34 0 0 0 .334.394h1.678a.565.565 0 0 0 .558-.48l1.645-10.478a.34.34 0 0 0-.334-.394H60.05a.34.34 0 0 0-.334.288Z"/><path fill="#253B80" d="M16.272 17h-4.065a.566.566 0 0 0-.559.48l-1.644 10.479a.34.34 0 0 0 .335.393h1.941a.566.566 0 0 0 .559-.48l.443-2.826a.565.565 0 0 1 .558-.48h1.287c2.677 0 4.223-1.303 4.627-3.884.181-1.13.007-2.017-.519-2.638C18.657 17.36 17.633 17 16.272 17Zm.469 3.828c-.222 1.466-1.337 1.466-2.415 1.466h-.613l.43-2.738a.34.34 0 0 1 .335-.288h.281c.734 0 1.427 0 1.785.42.213.252.278.625.197 1.14Zm11.684-.048h-1.947a.34.34 0 0 0-.335.288l-.086.547-.136-.198c-.422-.615-1.361-.82-2.3-.82-2.15 0-3.988 1.637-4.346 3.935-.186 1.146.079 2.242.725 3.006.593.703 1.442.995 2.452.995 1.734 0 2.695-1.12 2.695-1.12l-.087.544a.34.34 0 0 0 .334.394h1.754a.566.566 0 0 0 .558-.48l1.052-6.697a.339.339 0 0 0-.333-.393Zm-2.714 3.81c-.188 1.117-1.07 1.868-2.196 1.868-.566 0-1.018-.182-1.308-.528-.287-.343-.397-.831-.305-1.375.175-1.108 1.073-1.883 2.181-1.883.553 0 1.003.184 1.299.533.296.352.414.843.329 1.384Zm13.081-3.81h-1.956a.566.566 0 0 0-.468.25l-2.698 3.995-1.144-3.84a.567.567 0 0 0-.542-.404h-1.922a.34.34 0 0 0-.322.45l2.155 6.357-2.026 2.874a.34.34 0 0 0 .277.538H32.1a.56.56 0 0 0 .464-.244l6.507-9.44a.34.34 0 0 0-.279-.535Z"/></svg>