<svg xmlns="http://www.w3.org/2000/svg" fill="none" viewBox="0 0 72 48"><path fill="#FA82A0" stroke="#E3E3E8" d="M4 .5h64A3.5 3.5 0 0 1 71.5 4v40a3.5 3.5 0 0 1-3.5 3.5H4A3.5 3.5 0 0 1 .5 44V4A3.5 3.5 0 0 1 4 .5Z"/><path fill="#fff" fill-rule="evenodd" d="m41.678 19.196 1.946-9.64a2.13 2.13 0 0 0-1.489-2.487c-1.204-.3-2.417.4-2.726 1.58l-1.764 6.006-1.39-5.914a2.14 2.14 0 0 0-.92-1.356 2.17 2.17 0 0 0-1.63-.307C32.6 7.31 31.88 8.59 32.156 9.756l.82 6.699c-.712-.707-1.545-.924-2.51-.369l-.125.084c-.879.595-1.057 1.811-.493 2.92a1.93 1.93 0 0 0-1.272.573l-.083.092c-.811.832-.653 2.238.36 3.244l.822.815c.092 3.767 3.173 6.405 6.805 6.405a.5.5 0 0 0 .124-.017c4.92-.048 7.083-2.963 7.454-7.386.117-1.397-.142-2.354-.686-2.928-.301-.316-.62-.466-.862-.5zm-5.372 10.123.075-.006c4.533.041 6.44-2.488 6.783-6.564.1-1.164-.1-1.871-.452-2.246a.9.9 0 0 0-.268-.19l-.1-.034-5.269-1.223q-.024-.007-.083-.017l-.084-.016a2.2 2.2 0 0 0-.845 0c-.41.091-.67.316-.803.748-.178.59-.163 1.041.214 1.402a.45.45 0 0 1 .224.176c.263.173.633.324 1.135.46l3.47.774c.578.133.394.99-.184.882l-.108-.017a3.2 3.2 0 0 0-1.38.158c-.845.316-1.372 1.04-1.439 2.388a.455.455 0 0 1-.477.424.45.45 0 0 1-.426-.474c.067-1.49.652-2.463 1.589-2.987l-1.263-.29a5.6 5.6 0 0 1-1.108-.415 2 2 0 0 1-.565.58l-.1.067a2 2 0 0 1-.177.106 2.02 2.02 0 0 1-.325 2.356l-.092.092a2.05 2.05 0 0 1-2.877.041l-.676-.67c.54 2.637 2.864 4.422 5.611 4.495m-1.521-7.584a1.05 1.05 0 0 1-.336.357l-.1.059a1.134 1.134 0 0 1-1.573-.3l-1.974-2.92c-.535-.815-.468-1.663.05-2.021l.092-.067c.67-.382 1.23-.091 1.807.749l.47.699q.032.067.082.12l.999 1.483c-.136.712-.013 1.337.483 1.841m6.012-2.743-3.496-.81-.02-.005c-.042-.01-.116-.03-.214-.044a3.3 3.3 0 0 0-1.205.008c-.48.108-.88.347-1.16.732l-.636-.946-1.014-8.312-.009-.05c-.175-.699.26-1.48.845-1.606a1.26 1.26 0 0 1 .945.175c.276.183.468.466.535.79l1.774 7.535c.01.188.133.356.326.41a.45.45 0 0 0 .56-.308l2.25-7.67a1.343 1.343 0 0 1 1.615-.957c.602.183.978.807.844 1.44zm-8.774 3.366a2.04 2.04 0 0 0 1.721.887c.361.436.342 1.08-.065 1.492l-.083.092c-.435.44-1.146.45-1.59.017l-2.509-2.47c-.694-.691-.786-1.54-.35-1.989l.083-.091a1.03 1.03 0 0 1 1.32-.124zM23.375 41c1.422 0 2.51-.948 2.51-2.337 0-1.29-.92-1.847-2.05-2.18-.719-.208-1.17-.366-1.17-.873 0-.425.309-.757.802-.757.418 0 .728.24.954.607l1.179-.74c-.368-.807-1.196-1.223-2.09-1.223-1.423 0-2.326 1.015-2.326 2.196 0 .94.569 1.663 1.965 2.071.761.216 1.247.366 1.247.965 0 .566-.41.915-1.004.915-.636 0-1.12-.407-1.413-.782l-.979.973c.527.716 1.38 1.165 2.375 1.165m11.993-7.412v1.331c-.794-.033-1.371.366-1.371 1.248v.54c.317-.332.77-.498 1.33-.498v1.347c-.787.017-1.33.516-1.33 1.215v2.096h-1.422v-4.783c0-1.348.853-2.496 2.584-2.496zm11.609 4.709v-1.232q.477.5 1.33.5v-1.34c-.77-.016-1.33-.532-1.33-1.214v-.79h-1.422v4.159c0 1.347.845 2.495 2.584 2.495h.21v-1.33c-.795.024-1.372-.367-1.372-1.248m-20.583.05c0 1.455 1.221 2.653 2.727 2.653s2.726-1.198 2.726-2.654-1.22-2.653-2.726-2.653-2.727 1.198-2.727 2.653M51 40a.956.956 0 0 1-.953.948.95.95 0 0 1-.954-.948.95.95 0 0 1 .953-.947c.527 0 .954.432.954.947m-21.88-.332c.728 0 1.305-.574 1.305-1.323 0-.748-.577-1.322-1.305-1.322-.736 0-1.304.574-1.304 1.322 0 .757.577 1.323 1.304 1.323m6.625-1.323c0 1.456 1.22 2.654 2.726 2.654s2.727-1.198 2.727-2.654-1.221-2.653-2.727-2.653-2.726 1.198-2.726 2.653m2.726 1.323c.736 0 1.305-.574 1.305-1.323 0-.748-.577-1.322-1.305-1.322s-1.305.574-1.305 1.322c0 .757.577 1.323 1.305 1.323m4.876-3.835v.574q.424-.686 1.388-.649v1.514c-.853 0-1.346.466-1.346 1.298v2.296h-1.422v-5.033z" clip-rule="evenodd"/></svg>