<svg xmlns="http://www.w3.org/2000/svg" fill="none" viewBox="0 0 72 48"><path fill="#fff" d="M0 4a4 4 0 0 1 4-4h64a4 4 0 0 1 4 4v40a4 4 0 0 1-4 4H4a4 4 0 0 1-4-4V4Z"/><path stroke="#A1B2BA" stroke-opacity=".4" d="M.5 4A3.5 3.5 0 0 1 4 .5h64A3.5 3.5 0 0 1 71.5 4v40a3.5 3.5 0 0 1-3.5 3.5H4A3.5 3.5 0 0 1 .5 44V4Z"/><path fill="#FF4724" fill-rule="evenodd" d="m21.05 35.734 8.85-5.199 6.1-10.69V9.535c-.16 0-.322.108-.444.321L28.33 22.521l-7.226 12.664c-.121.214-.133.408-.053.549Z" clip-rule="evenodd"/><path fill="#9E1F63" fill-rule="evenodd" d="M36 9.536v10.308l6.1 10.691 8.849 5.199c.08-.141.068-.335-.053-.549L43.67 22.521 36.444 9.857c-.123-.214-.283-.32-.444-.32Z" clip-rule="evenodd"/><path fill="#662D91" fill-rule="evenodd" d="M50.949 35.734 42.1 30.536H29.9l-8.85 5.198c.08.142.252.23.496.23h28.907c.244 0 .416-.088.496-.23Z" clip-rule="evenodd"/><path fill="#fff" fill-rule="evenodd" d="M29.9 30.536h12.2L36 19.844l-6.1 10.692Z" clip-rule="evenodd"/></svg>