<svg xmlns="http://www.w3.org/2000/svg" fill="none" viewBox="0 0 72 48"><path fill="#fff" d="M0 4a4 4 0 0 1 4-4h64a4 4 0 0 1 4 4v40a4 4 0 0 1-4 4H4a4 4 0 0 1-4-4V4Z"/><path stroke="#A1B2BA" stroke-opacity=".4" d="M.5 4A3.5 3.5 0 0 1 4 .5h64A3.5 3.5 0 0 1 71.5 4v40a3.5 3.5 0 0 1-3.5 3.5H4A3.5 3.5 0 0 1 .5 44V4Z"/><path fill="#4D4D4D" d="M13.34 38.938c-.383 0-.77-.011-1.149-.037A8.563 8.563 0 0 1 11 38.736v-6.797c.322-.062.68-.103 1.067-.135.384-.032.743-.046 1.076-.046.448 0 .858.032 1.233.098a2.9 2.9 0 0 1 .968.327c.27.156.483.358.635.612.151.255.23.567.23.935 0 .56-.272 1.001-.813 1.324.448.166.75.4.911.686.161.291.244.618.244.98 0 .738-.271 1.288-.807 1.658-.545.379-1.34.56-2.403.56Zm-.8-4.345h.77c.49 0 .833-.063 1.047-.187.207-.124.312-.326.312-.601 0-.276-.108-.483-.322-.597-.218-.115-.536-.172-.952-.172-.135 0-.28 0-.437.005a5.055 5.055 0 0 0-.416.025c-.002 0-.002 1.527-.002 1.527Zm0 1.204v1.812c.115.016.24.025.375.032.136.006.286.01.448.01.474 0 .853-.066 1.145-.201.292-.136.437-.384.437-.748 0-.322-.12-.556-.363-.691-.244-.14-.594-.207-1.046-.207h-.994v-.007h-.002Zm6.263-3.805c0 .275-.088.493-.271.654a.913.913 0 0 1-.635.239.924.924 0 0 1-.635-.24c-.177-.16-.27-.373-.27-.653s.087-.494.27-.655a.932.932 0 0 1 .635-.238.924.924 0 0 1 .635.238c.181.161.27.38.27.655Zm-.145 6.858h-1.509v-5.322h1.509v5.322Zm.812-6.647 1.508-.243v1.568h1.815v1.256h-1.815v1.868c0 .317.057.572.166.758.108.186.338.285.676.285a3.057 3.057 0 0 0 .973-.17l.213 1.173a3.61 3.61 0 0 1-1.43.275c-.412 0-.754-.057-1.025-.166a1.535 1.535 0 0 1-.651-.468 1.717 1.717 0 0 1-.338-.72 4.334 4.334 0 0 1-.1-.94v-4.476h.007Zm3.538 3.987c-.003-.369.06-.736.187-1.085a2.535 2.535 0 0 1 1.403-1.49 2.798 2.798 0 0 1 1.154-.223 3.576 3.576 0 0 1 1.467.296l-.312 1.205a3.967 3.967 0 0 0-.469-.14 2.432 2.432 0 0 0-.568-.062c-.448 0-.78.14-.998.416-.218.275-.327.638-.327 1.09 0 .477.104.851.306 1.111.208.264.568.395 1.077.395.197 0 .394-.018.588-.053a2.51 2.51 0 0 0 .577-.16l.214 1.235c-.214.086-.434.15-.66.192-.289.056-.58.085-.874.083-.49 0-.906-.073-1.258-.218a2.377 2.377 0 0 1-.87-.592 2.27 2.27 0 0 1-.494-.884 4.393 4.393 0 0 1-.143-1.115Z"/><path fill="#4D4D4D" d="M32.504 36.181c0 .42-.062.8-.182 1.148-.12.348-.296.643-.524.888a2.418 2.418 0 0 1-.828.571 2.76 2.76 0 0 1-1.076.202 2.73 2.73 0 0 1-1.072-.202 2.383 2.383 0 0 1-.828-.571 2.551 2.551 0 0 1-.535-.888 3.247 3.247 0 0 1-.193-1.148c0-.415.067-.799.197-1.143a2.463 2.463 0 0 1 1.378-1.444 2.683 2.683 0 0 1 1.051-.202c.38 0 .738.067 1.06.202.323.136.598.322.828.567.236.253.42.55.536.877.121.344.188.723.188 1.143Zm-1.539 0c0-.468-.094-.83-.28-1.095-.187-.264-.453-.4-.796-.4s-.614.136-.8.4c-.187.264-.286.633-.286 1.095 0 .462.094.836.285 1.106.187.276.458.41.8.41.344 0 .61-.134.796-.41.187-.275.281-.644.281-1.106Zm3.799-4.189c0 .275-.088.493-.271.654a.913.913 0 0 1-.635.239.924.924 0 0 1-.635-.24c-.177-.16-.27-.373-.27-.653s.087-.494.27-.655a.932.932 0 0 1 .635-.238.924.924 0 0 1 .635.238c.181.161.27.38.27.655Zm-.14 6.858h-1.51v-5.322h1.51v5.322Zm.857-5.14a7.99 7.99 0 0 1 .993-.208 8.311 8.311 0 0 1 1.275-.098c.452 0 .827.057 1.128.176.302.12.541.285.713.498.177.218.302.473.375.77.073.295.108.628.108.99v3.008h-1.508V36.02c0-.488-.062-.83-.193-1.033-.13-.202-.37-.3-.718-.3-.108 0-.223.004-.342.015-.12.012-.23.021-.322.037v4.107h-1.51v-5.137Z"/><path fill="#0AC18E" d="M44.199 38.99c-1.145 0-2.013-.316-2.61-.95-.599-.633-.895-1.531-.895-2.7 0-.58.094-1.095.276-1.551.181-.457.432-.84.75-1.153a3.15 3.15 0 0 1 1.133-.711 4.112 4.112 0 0 1 1.43-.244c.297 0 .568.021.812.067.217.035.43.086.64.151a3.425 3.425 0 0 1 .722.317l-.458 1.272a3.766 3.766 0 0 0-.754-.291 3.535 3.535 0 0 0-.978-.12c-.242 0-.483.042-.712.12a1.681 1.681 0 0 0-.62.39c-.176.176-.321.41-.431.69-.109.285-.161.63-.161 1.033-.002.304.033.608.103.904.074.28.187.52.343.722.166.208.38.374.624.482.255.12.567.176.931.176.207 0 .413-.012.619-.04a3.653 3.653 0 0 0 .864-.224c.108-.046.207-.094.292-.13l.437 1.267c-.223.135-.536.255-.941.363a5.62 5.62 0 0 1-1.416.16Zm4.723-5.602c.448 0 .817.052 1.113.15.297.1.536.244.713.437.182.194.311.43.38.686.073.27.108.571.108.898v3.135c-.218.046-.515.104-.9.166a8.891 8.891 0 0 1-1.398.099 4.35 4.35 0 0 1-.936-.094 2.1 2.1 0 0 1-.722-.296 1.394 1.394 0 0 1-.469-.54c-.108-.223-.161-.493-.161-.82 0-.326.062-.571.187-.79.117-.21.29-.388.499-.513.207-.13.448-.223.717-.28.278-.06.56-.088.842-.088.198 0 .37.011.52.026.151.015.276.036.37.066v-.14c0-.254-.078-.461-.234-.617-.157-.156-.426-.234-.812-.234-.254 0-.507.019-.76.057a3.17 3.17 0 0 0-.65.156l-.193-1.214a5.806 5.806 0 0 1 .759-.17c.157-.026.318-.042.49-.063.183-.006.36-.017.537-.017Zm.12 4.407c.151 0 .292-.005.426-.011.108-.002.215-.013.322-.032V36.61c-.062-.016-.152-.025-.276-.041a2.59 2.59 0 0 0-.333-.02 3.33 3.33 0 0 0-.4.025.885.885 0 0 0-.328.098.556.556 0 0 0-.223.193.556.556 0 0 0-.083.3c0 .235.078.4.24.49.16.1.379.141.655.141Zm4.54-.025c.276 0 .473-.026.588-.083.115-.053.172-.16.172-.312 0-.12-.073-.23-.223-.317a3.958 3.958 0 0 0-.68-.306 6.032 6.032 0 0 1-.645-.275 1.81 1.81 0 0 1-.49-.337 1.347 1.347 0 0 1-.312-.473 1.754 1.754 0 0 1-.109-.66c0-.497.187-.892.557-1.183.37-.292.879-.436 1.53-.436.312 0 .623.03.93.087.297.057.536.12.708.186l-.264 1.173a4.786 4.786 0 0 0-.573-.16 3.162 3.162 0 0 0-.692-.074c-.473 0-.708.131-.708.395a.37.37 0 0 0 .032.161.35.35 0 0 0 .12.135c.08.054.162.1.25.14.13.064.263.118.4.166.334.124.603.243.822.363.218.12.384.25.51.383.12.132.21.287.264.457.053.166.079.363.079.588 0 .523-.198.924-.594 1.189-.395.27-.952.404-1.674.404-.474 0-.869-.041-1.18-.12a6.022 6.022 0 0 1-.655-.202L52 37.434c.257.1.521.18.79.239.259.065.525.097.792.097Zm2.825 1.08v-7.607L57.916 31v2.55a3.65 3.65 0 0 1 .39-.099 2.37 2.37 0 0 1 .463-.046c.432 0 .79.057 1.076.177.286.12.515.285.688.498.172.218.291.473.363.769.073.296.104.629.104.991v3.007h-1.51V36.02c0-.488-.062-.83-.186-1.033-.125-.202-.36-.3-.692-.3a1.788 1.788 0 0 0-.38.036c-.12.026-.223.046-.317.078v4.045h-1.509v.004Z"/><path fill="#0AC18E" fill-rule="evenodd" d="M46 17c0 5.523-4.477 10-10 10s-10-4.477-10-10S30.477 7 36 7s10 4.477 10 10Zm-9.952-4.489c1.411-.232 2.561.004 3.062 1.142.333.906.06 1.595-.473 2.08.87.089 1.912.874 2.065 1.828.24 1.587-.922 2.621-2.566 3.022l.457 1.772-1.07.276-.457-1.78c-.28.073-.56.145-.858.213l.457 1.788-1.066.276-.46-1.775c-.253.06-2.157.549-2.157.549l-.116-1.33s.793-.193.777-.201c.3-.076.325-.317.309-.457l-1.242-4.81c-.1-.204-.305-.42-.738-.308.008-.02-.778.2-.778.2l-.296-1.142s1.924-.497 2.152-.561l-.453-1.756 1.07-.277.45 1.74c.17-.048.343-.09.514-.13l.339-.082-.445-1.752 1.07-.277.453 1.752Zm.222 7.198c.908-.186 2.51-.514 2.327-1.871-.32-1.245-2.166-.723-3.063-.469-.099.028-.187.053-.26.072l.63 2.349a6.24 6.24 0 0 1 .366-.08Zm-.937-3.415c.762-.156 2.145-.438 1.95-1.65-.403-1.142-1.815-.717-2.558-.493-.1.03-.188.057-.26.075l.573 2.133c.08-.02.18-.041.295-.065Z" clip-rule="evenodd"/></svg>