<svg xmlns="http://www.w3.org/2000/svg" fill="none" viewBox="0 0 72 48"><path fill="#fff" stroke="#E3E3E8" d="M4 .5h64A3.5 3.5 0 0 1 71.5 4v40a3.5 3.5 0 0 1-3.5 3.5H4A3.5 3.5 0 0 1 .5 44V4A3.5 3.5 0 0 1 4 .5Z"/><path fill="#252526" d="M21.205 27.694v-2.496h1.078c2.006 0 3.212-1.116 3.212-2.785 0-1.572-1.222-2.484-2.98-2.484h-2.609v7.765zm1.252-6.61c1.032 0 1.731.474 1.731 1.48 0 .924-.777 1.479-1.797 1.479h-1.186v-2.96zm21.058 3.895c0-1.607-1.217-2.82-2.83-2.82a2.82 2.82 0 0 0-1.99.818 2.8 2.8 0 0 0-.827 1.982v.043c0 1.618 1.17 2.796 2.818 2.796a2.795 2.795 0 0 0 2.601-1.68c.145-.335.223-.695.228-1.06zm-4.418 0c0-.925.684-1.669 1.589-1.641.999.03 1.62.722 1.6 1.64-.022.919-.696 1.642-1.6 1.642s-1.59-.717-1.59-1.641zm16.64.327a3 3 0 0 0 .034-.566c0-1.514-1.159-2.577-2.631-2.577a2.78 2.78 0 0 0-1.97.785 2.76 2.76 0 0 0-.837 1.943v.068c0 1.652 1.102 2.842 2.771 2.842 1.126 0 2.065-.532 2.459-1.27l-.963-.532c-.254.416-.8.71-1.414.71-.859 0-1.462-.52-1.589-1.398zm-4.074-.936c.163-.717.697-1.155 1.438-1.155.742 0 1.324.474 1.392 1.155zm-15.152-2.108-1.508 3.872-1.345-3.872h-1.402l2.017 5.431-.835 1.907h1.334l3.072-7.338zM66 22.285a2 2 0 0 0-.534-.07c-.534 0-1.136.305-1.391.821v-.774h-1.23v5.431h1.23V24.8c0-1.006.672-1.42 1.368-1.42q.276-.006.544.057L66 22.293zm-4.06 3.021a3 3 0 0 0 .035-.566c0-1.514-1.159-2.577-2.631-2.577a2.78 2.78 0 0 0-1.97.785 2.76 2.76 0 0 0-.837 1.943v.068c0 1.652 1.102 2.842 2.771 2.842 1.12 0 2.064-.532 2.46-1.27l-.964-.532c-.255.416-.8.71-1.415.71-.857 0-1.46-.52-1.588-1.398zm-4.073-.936c.163-.717.697-1.155 1.438-1.155s1.324.474 1.392 1.155zm-27.56.596a1.68 1.68 0 0 1-1.005 1.582c-.203.09-.422.139-.644.144h-.079c-.95 0-1.588-.74-1.588-1.726a1.733 1.733 0 0 1 1.705-1.71c.962 0 1.612.74 1.612 1.71m19.191-.37c0-1.514-.742-2.435-2.133-2.435-.731 0-1.403.312-1.774.811v-.71H44.35v5.431h1.241V24.75c0-.913.66-1.49 1.45-1.49.787 0 1.205.531 1.205 1.432v3.005h1.252zm-19.19-2.334v.71c-.36-.474-.94-.811-1.81-.811-1.507 0-2.76 1.329-2.76 2.889s1.079 2.75 2.528 2.75c.94 0 1.647-.335 2.037-.89v.786h1.217v-5.434z"/><path fill="url(#a)" fill-rule="evenodd" d="M13.842 20.005a4.24 4.24 0 0 0-2.122-.569v-1.44a5.68 5.68 0 0 1 4.924 2.842l-1.248.72a4.24 4.24 0 0 0-1.554-1.553" clip-rule="evenodd"/><path fill="url(#b)" fill-rule="evenodd" d="M15.964 23.68c0-.744-.196-1.476-.569-2.121l1.248-.72a5.69 5.69 0 0 1 0 5.684l-1.248-.72a4.24 4.24 0 0 0 .57-2.122" clip-rule="evenodd"/><path fill="url(#c)" fill-rule="evenodd" d="M13.842 27.356a4.25 4.25 0 0 0 1.554-1.553l1.248.72a5.69 5.69 0 0 1-4.924 2.843v-1.441c.745 0 1.477-.196 2.122-.569" clip-rule="evenodd"/><path fill="url(#d)" fill-rule="evenodd" d="M8.045 25.803a4.25 4.25 0 0 0 3.675 2.122v1.44a5.69 5.69 0 0 1-4.923-2.842z" clip-rule="evenodd"/><path fill="url(#e)" fill-rule="evenodd" d="M8.045 21.559a4.24 4.24 0 0 0 0 4.244l-1.248.72a5.69 5.69 0 0 1 0-5.685z" clip-rule="evenodd"/><path fill="url(#f)" fill-rule="evenodd" d="M11.72 19.437a4.24 4.24 0 0 0-3.675 2.122l-1.248-.72a5.69 5.69 0 0 1 4.923-2.843z" clip-rule="evenodd"/><defs><linearGradient id="a" x1="11.72" x2="13.87" y1="18.716" y2="22.439" gradientUnits="userSpaceOnUse"><stop stop-color="#F27F02"/><stop offset="1" stop-color="#A5D825"/></linearGradient><linearGradient id="b" x1="16.019" x2="16.019" y1="21.198" y2="26.163" gradientUnits="userSpaceOnUse"><stop stop-color="#AAD223"/><stop offset="1" stop-color="#1BBFAC"/></linearGradient><linearGradient id="c" x1="16.02" x2="13.87" y1="26.163" y2="29.887" gradientUnits="userSpaceOnUse"><stop stop-color="#27C1A1"/><stop offset="1" stop-color="#2786ED"/></linearGradient><linearGradient id="d" x1="11.72" x2="9.57" y1="28.645" y2="24.922" gradientUnits="userSpaceOnUse"><stop stop-color="#2889EA"/><stop offset="1" stop-color="#FF4801"/></linearGradient><linearGradient id="e" x1="6.756" x2="6.756" y1="26.163" y2="21.198" gradientUnits="userSpaceOnUse"><stop stop-color="#FF4801"/><stop offset="1" stop-color="#FF4801"/></linearGradient><linearGradient id="f" x1="7.421" x2="9.571" y1="21.198" y2="17.475" gradientUnits="userSpaceOnUse"><stop stop-color="#FF4801"/><stop offset="1" stop-color="#F18201"/></linearGradient></defs></svg>