<svg xmlns="http://www.w3.org/2000/svg" fill="none" viewBox="0 0 72 48"><path fill="#fff" stroke="#E3E3E8" d="M4 .5h64A3.5 3.5 0 0 1 71.5 4v40a3.5 3.5 0 0 1-3.5 3.5H4A3.5 3.5 0 0 1 .5 44V4A3.5 3.5 0 0 1 4 .5Z"/><path fill="#0C4DA2" fill-rule="evenodd" d="M16.824 10.44c-.7-.105-1.897-.036-2.386.604-.726.949-.455 2.222.57 2.828q.332.195 1.436.878c.538.333.8 1.36-.055 1.418-.696.047-.705-.397-.714-.87a5 5 0 0 0-.012-.283.06.06 0 0 0-.063-.057h-1.55c-.025 0-.046.024-.046.053-.034 1.068.155 1.896 1.301 2.198 1.41.373 3.127.074 3.225-1.746.07-1.283-.849-1.8-1.803-2.338a14 14 0 0 1-.62-.362c-1.447-.913.682-1.996.71-.63q.003.148.017.3c.002.029.023.052.046.052h1.403c.027 0 .05-.022.056-.052.214-1.146-.42-1.828-1.515-1.993m19.367 2.006c-.507-1.035 1.19-1.426 1.064-.073v.01c0 .056.046.102.103.102h1.381a.057.057 0 0 0 .056-.059l-.003-.158c-.007-.553-.013-1.017-.533-1.431-.57-.453-1.625-.47-2.327-.322q-1.381.29-1.405 1.722c-.019 1.11.868 1.606 1.66 2.048.65.364 1.235.691 1.2 1.293-.045.808-1.268.757-1.26-.052a7 7 0 0 0-.011-.51.06.06 0 0 0-.062-.058h-1.552c-.02 0-.035.027-.035.06.02.958.07 1.67 1.053 2.081 1.044.438 2.967.305 3.343-1.05q.453-1.631-.957-2.48a10 10 0 0 0-.367-.2c-.496-.266-1.216-.652-1.348-.923m19.652 1.943h.516c.025 0 .045.025.046.056l.008.155c.037.607.098 1.604-.824 1.43q-.473-.09-.485-.603a71 71 0 0 1-.012-3.121c.011-.483.261-.79.758-.704q.531.092.543.885c0 .094.074.169.163.169l1.329.002c.025 0 .047-.022.052-.052.264-1.85-1.382-2.39-2.856-2.123q-1.547.278-1.56 1.903-.01 1.245.016 2.488.02.951.157 1.287c.62 1.498 3.917 1.402 4.222-.265q.133-.726.055-2.387c-.002-.034-.028-.062-.06-.062l-2.07-.005c-.04 0-.072.026-.072.058v.84c0 .027.033.049.074.049m-32.317-3.746-2.786-.046-1.168 6.432v.008c0 .026.018.048.04.048h1.55a.09.09 0 0 0 .093-.08q.414-2.813.832-5.625.02-.13.074-.095c.022.014.036.045.037.084q.004.2.038.402.44 2.656.878 5.32c.006.037.035.064.067.064l1.312.018.017-.001a.1.1 0 0 0 .08-.117zm9.378 6.4-.12-5.745v-.001l-.008-.641c0-.03-.02-.052-.045-.052H30.27c-.026 0-.05.029-.056.068l-.752 4.826q0 .005-.003.008c-.004.01-.015.014-.023.009-.079-.052-.524-3.045-.716-4.33l-.08-.532c-.004-.027-.025-.048-.05-.049h-2.455c-.023 0-.042.022-.044.05l-.03.4-.127 5.93v.002a.1.1 0 0 0 .102.098h1.428c.028 0 .051-.025.051-.055-.009-.97-.002-1.939.005-2.909l.008-1.234q.005-.78.06-1.56.003-.047.012 0l1.022 5.704c.006.032.025.055.048.055h1.501c.03 0 .057-.027.063-.064.089-.51.99-5.675 1.038-5.702a.02.02 0 0 1 .013-.002c.017.004.03.028.03.055l.048 5.663c0 .033.028.058.064.058l1.427-.006h.001c.028-.001.05-.02.05-.044m11.875-6.421-1.52-.02a255 255 0 0 0-.018 4.842c.005.912-1.226.874-1.227.032q0-2.399-.009-4.807c0-.035-.02-.064-.044-.064h-1.477c-.026 0-.047.026-.047.056q-.003 2.117-.002 4.235 0 .966.154 1.343c.423 1.04 1.695 1.127 2.704.972.992-.153 1.467-.724 1.524-1.681.067-1.102.051-2.234.036-3.363q-.012-.731-.013-1.458.008-.017 0-.045c-.007-.024-.032-.042-.061-.042m7.102 6.366.003-6.16a.4.4 0 0 0-.017-.175.07.07 0 0 0-.06-.048h-1.43a.054.054 0 0 0-.052.055q.045 2.455.082 4.91c.002.129-.052.057-.064.015l-1.409-4.938a.054.054 0 0 0-.051-.04 18 18 0 0 0-2.275.054l.003 6.29c0 .046.034.082.077.082l1.408-.004c.02 0 .035-.03.035-.068q-.043-3.518-.096-5.045-.003-.08.022-.11.035-.048.06.035l1.51 5.137c.01.033.036.057.062.057h2.142c.027 0 .05-.02.05-.047m-25.4 16.419q1.338-1.084 1.943-2.774h-.001q.994-3.189-.766-5.727c-1.401-2.022-3.7-2.981-6.15-2.554q-1.383.242-2.448 1.344-.039.039-.04-.008l-.008-1.088c0-.03-.029-.055-.064-.055l-2.338-.018c-.04 0-.073.036-.073.08V38.82a.5.5 0 0 0 .05.171l.22.008 2.166-.009c.027 0 .05-.02.05-.044v-5.738q0-.054.04-.012c1.994 2.146 5.289 1.934 7.418.21m-4.999-1.161c-2.13-.532-2.61-2.725-2.39-4.611.188-1.607 1.312-2.797 2.9-3.013 3.009-.41 4.618 2.415 3.97 5.05-.504 2.046-2.472 3.073-4.48 2.574m18.539-8.632q.004.18-.113.04c-.923-1.119-2.394-1.503-3.874-1.37q-2.808.25-4.462 2.513c-3.451 4.72.96 11.472 6.674 9.654q1.005-.32 1.65-1.048.097-.108.096.029v1.162c0 .033.033.058.073.058l2.34.002c.028 0 .05-.018.05-.041V22.6a.05.05 0 0 0-.05-.05H40.04a.05.05 0 0 0-.046.05zm-4.483 8.603c-2.896-.852-3.296-5.218-1.036-6.945 1.426-1.09 3.766-.88 4.865.6 1.143 1.538 1.047 4.66-.59 5.861-.904.662-2.169.8-3.239.484m14.406 6.726 6.469-15.156.537-1.234.003-.015c.001-.02-.014-.037-.033-.037h-2.726c-.035 0-.066.023-.081.06l-3.353 8.343q-.026.064-.047.013l-3.637-8.343c-.019-.044-.047-.073-.07-.073l-2.725.002a.03.03 0 0 0-.016.004c-.019.009-.027.033-.017.054l5.135 11.175a.1.1 0 0 1 0 .087l-.703 1.616-1.51 3.503-.004.015c0 .021.016.04.038.04h2.682c.021 0 .044-.023.058-.054" clip-rule="evenodd"/></svg>