<svg xmlns="http://www.w3.org/2000/svg" fill="none" viewBox="0 0 72 48"><path fill="#fff" stroke="#E3E3E8" d="M4 .5h64A3.5 3.5 0 0 1 71.5 4v40a3.5 3.5 0 0 1-3.5 3.5H4A3.5 3.5 0 0 1 .5 44V4A3.5 3.5 0 0 1 4 .5Z"/><path fill="#000" fill-rule="evenodd" d="M17.675 17.86c.937.078 1.875-.476 2.46-1.178.577-.723.958-1.692.86-2.682-.83.04-1.855.554-2.441 1.277-.537.623-.997 1.632-.88 2.582m11.153 12.744V15.178h5.714c2.95 0 5.01 2.058 5.01 5.066s-2.1 5.086-5.088 5.086h-3.272v5.274zm-7.842-12.557c-.826-.048-1.58.252-2.189.494-.392.156-.723.288-.976.288-.283 0-.629-.14-1.016-.295-.509-.205-1.09-.439-1.699-.427-1.397.02-2.696.82-3.408 2.097-1.466 2.553-.381 6.333 1.035 8.411.693 1.03 1.523 2.158 2.617 2.118.482-.018.828-.167 1.186-.321.412-.178.84-.362 1.51-.362.646 0 1.055.18 1.449.352.374.164.733.32 1.266.311 1.133-.02 1.846-1.029 2.54-2.058a9 9 0 0 0 1.126-2.346l.006-.019-.026-.013c-.25-.116-2.163-1.003-2.181-3.381-.018-1.996 1.517-3.008 1.758-3.167l.03-.02c-.977-1.464-2.501-1.622-3.028-1.662m22.883 12.676c1.485 0 2.862-.762 3.487-1.969h.049v1.85h2.188v-7.678c0-2.227-1.758-3.662-4.464-3.662-2.51 0-4.365 1.455-4.434 3.454h2.13c.175-.95 1.044-1.573 2.236-1.573 1.445 0 2.256.682 2.256 1.939v.851l-2.95.178c-2.744.168-4.229 1.306-4.229 3.285 0 2 1.534 3.325 3.731 3.325m.635-1.83c-1.26 0-2.061-.614-2.061-1.554 0-.97.771-1.534 2.246-1.623l2.627-.168v.87c0 1.445-1.21 2.474-2.812 2.474m12.345 2.315c-.947 2.702-2.031 3.592-4.336 3.592-.176 0-.762-.02-.899-.06v-1.85c.147.02.508.04.694.04 1.045 0 1.63-.446 1.992-1.603l.215-.683-4.004-11.231h2.47l2.784 9.113h.05l2.783-9.113H61zm-25.656-14.01h2.725c2.05 0 3.223 1.108 3.223 3.058s-1.172 3.067-3.233 3.067h-2.715z" clip-rule="evenodd"/></svg>