<svg xmlns="http://www.w3.org/2000/svg" fill="none" viewBox="0 0 72 48"><path fill="#fff" stroke="#E3E3E8" d="M4 .5h64A3.5 3.5 0 0 1 71.5 4v40a3.5 3.5 0 0 1-3.5 3.5H4A3.5 3.5 0 0 1 .5 44V4A3.5 3.5 0 0 1 4 .5Z"/><path fill="#FF6648" fill-rule="evenodd" d="M15.979 20.319H9.14v6.839c0 .315.255.57.57.57h6.839v-6.84a.57.57 0 0 0-.57-.57M7 18.179v9.979c0 .944.766 1.71 1.71 1.71h9.979v-9.98a1.71 1.71 0 0 0-1.71-1.709z" clip-rule="evenodd"/><mask id="a" width="44" height="12" x="21" y="18" maskUnits="userSpaceOnUse" style="mask-type:luminance"><path fill="#fff" d="M64.643 18.898H21.925v10.25h42.718z"/></mask><g fill="#08053F" mask="url(#a)"><path d="M21.926 19.108h3.662c.716 0 1.425.048 2.095.335 1.107.476 1.674 1.429 1.66 2.724-.01 1.077-.73 1.89-1.66 2.26-.266.105-.554.155-.828.244-.073.023-.13.094-.194.144.073.038.142.096.22.112.288.058.586.077.866.159.527.154.844.54 1.025 1.043q.49 1.366.972 2.736c.015.042.022.086.037.146-.059.006-.106.016-.154.016-.475.001-.95-.003-1.426.004-.13.002-.19-.033-.223-.17q-.263-1.064-.545-2.124c-.222-.844-.744-1.3-1.648-1.367-.747-.055-1.5-.048-2.25-.073-.154-.005-.158.081-.158.197q.002 1.637.001 3.276 0 .258-.264.258h-1.188zm1.452 4.954h.222c.59 0 1.182-.008 1.773.002.45.008.879-.084 1.295-.246 1.013-.396 1.476-1.445 1.067-2.443-.26-.633-.782-.941-1.429-.98-.903-.053-1.81-.035-2.715-.057-.17-.004-.218.048-.217.218.007 1.124.004 2.249.004 3.373zm41.255 4.959h-1.335v-.21q.002-2.09-.002-4.182a4.5 4.5 0 0 0-.044-.614c-.096-.674-.514-1.058-1.197-1.115-.785-.065-1.461.417-1.68 1.233a3.7 3.7 0 0 0-.123.91c-.014 1.252-.006 2.505-.006 3.758v.216H58.9v-.234c0-1.336.008-2.673-.005-4.009a4.6 4.6 0 0 0-.114-.99c-.198-.856-.995-1.005-1.56-.83-.694.214-1.062.742-1.24 1.406-.086.324-.119.67-.123 1.006-.015 1.143-.005 2.287-.005 3.43v.231c-.434 0-.85.002-1.264-.004-.032 0-.077-.056-.09-.095-.017-.046-.006-.102-.006-.153v-6.707q0-.255.25-.254h1.095c.039.39.008.762-.076 1.131-.02.088-.055.174-.064.262-.008.073.013.15.021.224.061-.053.14-.095.18-.162.104-.176.178-.37.286-.543a2.155 2.155 0 0 1 2.353-.951c.633.163 1.04.582 1.268 1.184.03.078.04.165.08.236.03.054.094.12.147.122.052.004.129-.053.16-.104.103-.17.177-.357.285-.523.483-.74 1.159-1.08 2.049-.963.45.06.867.18 1.236.476.478.383.702.893.796 1.469.055.334.075.677.077 1.015.009 1.388.004 2.776.004 4.164 0 .05-.006.1-.01.17zm-19.401.007c-.419 0-.816.004-1.214-.006-.041-.001-.114-.078-.116-.123-.021-.425-.007-.846.14-1.254.024-.07-.006-.16-.01-.242-.064.056-.161.1-.188.17-.267.699-.75 1.185-1.456 1.409-1.11.351-2.125.146-2.987-.646-.734-.674-1.045-1.557-1.125-2.525-.078-.959.103-1.866.613-2.695.61-.989 1.68-1.501 2.83-1.399.682.061 1.268.323 1.714.845.164.192.267.435.395.655.026.044.034.104.068.137.04.038.1.054.152.08.013-.052.048-.11.036-.154-.384-1.437-.111-2.9-.175-4.35 0-.005.005-.01.016-.031h1.307zm-5.634-3.616c.037.273.053.55.116.817.12.51.352.978.784 1.288a2.05 2.05 0 0 0 2.825-.409c.688-.904.763-1.91.288-2.922-.447-.953-1.37-1.473-2.505-1.168a1.6 1.6 0 0 0-.744.414c-.545.55-.745 1.225-.765 1.98m-7.577-1.357h-1.303a2.6 2.6 0 0 1 .369-1.084c.31-.513.77-.844 1.325-1.032a4.46 4.46 0 0 1 2.893-.016c.94.31 1.47.974 1.62 1.941q.081.524.087 1.054c.01 1.317.004 2.634.003 3.951 0 .045-.005.09-.008.146H35.67c-.014-.48-.032-.952.115-1.413.027-.085.052-.173.061-.261.004-.04-.033-.086-.05-.129-.045.027-.108.043-.13.082-.102.185-.175.388-.29.563-.651.994-1.601 1.365-2.75 1.258-.77-.072-1.427-.397-1.848-1.073-.74-1.19-.142-2.678 1.226-3.098.648-.198 1.318-.193 1.983-.236.352-.022.705-.049 1.055-.092.76-.093.718-.637.46-1.116-.171-.315-.485-.451-.819-.524a3.64 3.64 0 0 0-1.735.017c-.484.13-.779.45-.887.94-.008.037-.023.073-.04.121m3.622 1.108c-.23.25-.502.363-.796.417-.428.078-.862.13-1.29.213-.393.076-.803.129-1.17.28-.64.265-.75 1.138-.228 1.577.248.21.548.265.862.272 1.688.037 2.689-1.236 2.622-2.76m17.709.249c.01.91-.21 1.753-.781 2.48-.55.7-1.28 1.097-2.157 1.212-.725.095-1.434.02-2.102-.305-.829-.402-1.38-1.056-1.68-1.916-.356-1.03-.351-2.07.066-3.084.559-1.358 1.744-2.12 3.22-2.095 1.125.019 2.06.434 2.736 1.356.424.579.633 1.24.697 1.95.011.133.001.268.001.403m-1.336-.092a2.7 2.7 0 0 0-.3-1.247c-.37-.706-.944-1.104-1.75-1.13-.816-.027-1.465.29-1.854 1.014-.544 1.01-.535 2.04.057 3.026.723 1.205 2.384 1.121 3.104.391.537-.545.746-1.213.743-2.054"/></g></svg>