<svg xmlns="http://www.w3.org/2000/svg" fill="none" viewBox="0 0 72 48"><path fill="#fff" stroke="#E3E3E8" d="M4 .5h64A3.5 3.5 0 0 1 71.5 4v40a3.5 3.5 0 0 1-3.5 3.5H4A3.5 3.5 0 0 1 .5 44V4A3.5 3.5 0 0 1 4 .5Z"/><path fill="#060809" fill-rule="evenodd" d="M31.45 25.507h-2.132v-.839c0-1.091.622-1.403 1.159-1.403a2.34 2.34 0 0 1 1.052.263l.726-1.663s-.735-.483-2.073-.483c-1.504 0-3.216.85-3.216 3.518v.607h-3.57v-.839c0-1.091.622-1.403 1.157-1.403.305 0 .715.07 1.054.263l.726-1.663c-.433-.256-1.13-.483-2.073-.483-1.505 0-3.216.85-3.216 3.518v.607h-1.366v1.82h1.366v6.43h2.352v-6.43h3.57v6.43h2.352v-6.43h2.133zm-17.171 6.77c-.619 0-.927-.305-.927-.808 0-.931 1.04-1.25 2.937-1.451 0 1.245-.84 2.258-2.01 2.258m.818-7.013c-1.356 0-2.916.642-3.763 1.318l.773 1.632c.68-.623 1.778-1.155 2.77-1.155.94 0 1.46.315 1.46.95 0 .429-.345.644-.996.729-2.432.317-4.341.99-4.341 2.87C11 33.098 12.059 34 13.712 34c1.18 0 2.23-.658 2.73-1.526v1.283h2.2v-5.373c0-2.218-1.54-3.12-3.545-3.12m22.084.243v8.25h2.354v-3.975c0-1.89 1.14-2.444 1.936-2.444.31 0 .73.09 1.007.298l.428-2.181c-.363-.156-.743-.19-1.055-.19-1.21 0-1.97.537-2.472 1.628v-1.386zm13.98 1.207c.484-.711 1.413-1.45 2.658-1.45 1.504 0 2.75.936 2.75 2.79v5.703h-2.353V28.8c0-1.092-.656-1.545-1.278-1.545-.778 0-1.556.713-1.556 2.255v4.247H49.03v-4.94c0-1.125-.619-1.562-1.291-1.562-.744 0-1.54.73-1.54 2.255v4.247h-2.355v-8.25h2.268v1.248c.398-.797 1.26-1.49 2.504-1.49 1.141 0 2.094.53 2.544 1.449m-15.956 7.043h-2.35v-8.25h2.35z" clip-rule="evenodd"/><path fill="#0FA0EA" fill-rule="evenodd" d="M46.564 14c-6.353 0-12.016 4.421-13.624 10.105h2.304c1.342-4.233 5.899-7.948 11.32-7.948 6.59 0 12.284 5.029 12.284 12.857 0 1.758-.227 3.342-.657 4.742h2.234l.023-.076c.365-1.445.552-3.014.552-4.666C61 20.284 54.653 14 46.564 14" clip-rule="evenodd"/></svg>