<svg xmlns="http://www.w3.org/2000/svg" fill="none" viewBox="0 0 72 48"><path fill="#fff" stroke="#E3E3E8" d="M4 .5h64A3.5 3.5 0 0 1 71.5 4v40a3.5 3.5 0 0 1-3.5 3.5H4A3.5 3.5 0 0 1 .5 44V4A3.5 3.5 0 0 1 4 .5Z"/><path fill="#F7931A" d="M18.93 25.452c-.809 3.213-4.096 5.17-7.339 4.368-3.243-.8-5.219-4.057-4.409-7.271.808-3.214 4.093-5.171 7.336-4.369 3.244.8 5.22 4.058 4.41 7.272z"/><path fill="#fff" d="M15.725 23.145c.122-.799-.493-1.228-1.332-1.513l.273-1.082-.665-.165-.264 1.054a22 22 0 0 0-.532-.124l.267-1.06-.665-.164-.272 1.081a21 21 0 0 1-.424-.099v-.004l-.916-.226-.176.703s.494.112.483.118c.268.067.318.243.31.382l-.31 1.232a.3.3 0 0 1 .068.023l-.07-.017-.435 1.725c-.032.08-.116.202-.305.155.008.01-.482-.12-.482-.12l-.33.754.865.214.473.122-.274 1.093.664.165.272-1.082q.273.073.53.137l-.27 1.076.664.165.274-1.091c1.134.212 1.985.127 2.343-.889.29-.817-.015-1.29-.611-1.597.433-.1.76-.383.847-.966m-1.517 2.11c-.205.817-1.595.374-2.046.264l.365-1.45c.45.111 1.895.332 1.68 1.185m.206-2.121c-.187.744-1.344.365-1.718.273l.331-1.314c.375.092 1.582.266 1.387 1.04"/><path fill="#4D4D4D" d="M24.746 21.63q.738 0 1.271.259.535.258.891.7.354.44.52 1.032.17.595.17 1.275 0 1.05-.39 1.982a5.1 5.1 0 0 1-1.066 1.626 5 5 0 0 1-1.593 1.093 4.9 4.9 0 0 1-1.99.403q-.141 0-.485-.008a7 7 0 0 1-.79-.067 9 9 0 0 1-.942-.184 4.8 4.8 0 0 1-.942-.334l2.65-11.041L24.423 18l-.95 3.917q.305-.135.613-.212.306-.076.659-.077zm-1.993 6.5q.537 0 1.01-.258c.318-.17.593-.403.822-.69q.344-.433.543-.98.198-.548.198-1.14.001-.729-.245-1.139-.245-.409-.905-.41-.216.001-.558.074-.345.078-.623.32l-1.01 4.16q.091.016.16.03a1.7 1.7 0 0 0 .33.032h.274zm7.307 1.656h-2.27l1.916-7.987h2.284zm1.103-8.96a1.42 1.42 0 0 1-.86-.282q-.385-.278-.384-.858 0-.317.13-.6a1.6 1.6 0 0 1 .347-.486q.215-.206.498-.326.285-.12.605-.12.474 0 .858.281.382.282.382.859 0 .32-.13.6t-.345.485-.498.327-.605.12zm2.815-1.016 2.375-.366-.583 2.355h2.545l-.46 1.852h-2.528l-.673 2.794q-.093.349-.108.652a1.2 1.2 0 0 0 .075.525q.09.222.33.342.237.121.68.122.367 0 .714-.07.345-.066.697-.19l.168 1.733q-.46.167-.995.29a5.7 5.7 0 0 1-1.272.121q-1.056 0-1.64-.31-.582-.31-.83-.85-.244-.538-.213-1.238.031-.699.214-1.474l1.502-6.287zm4.237 6.787q-.001-1.032.337-1.945.336-.912.967-1.595a4.55 4.55 0 0 1 1.525-1.078q.896-.395 1.998-.396.69 0 1.234.13t.99.34l-.782 1.763a7 7 0 0 0-.636-.22q-.33-.1-.804-.099-1.134.001-1.801.775-.668.774-.669 2.081-.001.774.34 1.253.337.478 1.24.478.446 0 .86-.09.413-.091.736-.227l.168 1.807q-.43.167-.95.297a5.3 5.3 0 0 1-1.241.127q-.951-.001-1.608-.272a3.1 3.1 0 0 1-1.089-.737 2.75 2.75 0 0 1-.62-1.087 4.5 4.5 0 0 1-.193-1.305zm10.076 3.401q-.812 0-1.41-.244a2.6 2.6 0 0 1-.987-.682 2.9 2.9 0 0 1-.59-1.04 4.1 4.1 0 0 1-.2-1.328q0-.913.298-1.823a5.2 5.2 0 0 1 .881-1.639 4.7 4.7 0 0 1 1.425-1.194c.56-.307 1.206-.463 1.93-.463q.798 0 1.404.244.605.243.996.682.39.441.588 1.04.2.6.199 1.328 0 .91-.29 1.823a5.2 5.2 0 0 1-.859 1.639q-.567.729-1.417 1.19-.85.464-1.97.463zm1.134-6.499q-.506.001-.888.29a2.5 2.5 0 0 0-.643.728 3.6 3.6 0 0 0-.392.964q-.13.523-.129.994c0 .506.084.902.244 1.185q.246.425.89.426.506 0 .89-.29a2.5 2.5 0 0 0 .642-.729 3.6 3.6 0 0 0 .392-.963q.128-.523.129-.994 0-.76-.246-1.185-.245-.425-.89-.426m5.875 6.287h-2.271l1.915-7.987h2.286zm1.1-8.96a1.4 1.4 0 0 1-.856-.282q-.384-.278-.385-.858 0-.317.131-.6a1.6 1.6 0 0 1 .842-.812q.284-.12.604-.12.476 0 .859.281t.384.859q0 .32-.132.6-.13.28-.345.485a1.7 1.7 0 0 1-.497.327 1.5 1.5 0 0 1-.608.12zm2.465 1.336q.26-.077.573-.174.315-.099.706-.18.39-.085.872-.137.484-.053 1.096-.054 1.793 0 2.477 1.033.68 1.033.238 2.824l-1.042 4.312H61.5l1.01-4.222q.093-.397.146-.767a1.8 1.8 0 0 0-.008-.653.8.8 0 0 0-.282-.455q-.224-.175-.683-.175c-.306 0-.596.032-.904.092l-1.488 6.18h-2.284l1.855-7.622z"/></svg>