<svg xmlns="http://www.w3.org/2000/svg" fill="none" viewBox="0 0 72 48"><path fill="#fff" stroke="#E3E3E8" d="M4 .5h64A3.5 3.5 0 0 1 71.5 4v40a3.5 3.5 0 0 1-3.5 3.5H4A3.5 3.5 0 0 1 .5 44V4A3.5 3.5 0 0 1 4 .5Z"/><path fill="#FF8C00" fill-rule="evenodd" d="M21.704 32.488c1.745 0 3.638.598 5.731 2.444.213.186.49-.045.31-.277-2.062-2.592-3.961-3.087-5.86-3.499-2.326-.508-3.517-1.814-4.354-3.241-.168-.284-.238-.232-.258.128-.02.444.013 1.042.116 1.621h-.283c-3.323 0-6.015-2.689-6.015-6.001s2.692-5.989 6.015-5.989 6.014 2.69 6.014 5.995q0 .356-.038.701c-.438-.077-1.301-.09-1.913-.038-.225.02-.193.128-.026.154 1.99.36 3.356 1.589 3.671 3.814.007.052.077.065.103.02a9 9 0 0 0 1.288-4.657c0-4.998-4.076-9.063-9.1-9.063C12.084 14.6 8 18.665 8 23.676c0 5.01 4.076 9.075 9.106 9.075 1.333 0 2.66-.257 4.598-.257zm.676-3.293c.406.34.528.746.316 1.035a.67.67 0 0 1-.541.244.95.95 0 0 1-.619-.225c-.367-.321-.476-.842-.238-1.138a.54.54 0 0 1 .432-.18c.218 0 .457.096.656.264zm1.867-.869c.058.399-.064.56-.193.56-.141 0-.309-.161-.515-.483-.2-.315-.277-.675-.174-.855.065-.122.206-.174.38-.11.335.13.47.644.509.882zm12.616-2.078-1.05-1.26a.203.203 0 0 1 .026-.283.2.2 0 0 1 .129-.045h2.196c.103-.309.16-.643.16-.984 0-1.576-1.178-2.933-2.794-2.933s-2.795 1.357-2.795 2.933 1.178 2.913 2.795 2.913c.49 0 .94-.122 1.326-.34zm4.746 2.13c.116.128.02.328-.154.328h-2.396a.34.34 0 0 1-.251-.116l-.406-.489a5.3 5.3 0 0 1-2.872.849c-2.917 0-5.287-2.367-5.287-5.274s2.37-5.275 5.287-5.275 5.287 2.367 5.287 5.275c0 1.048-.31 2.026-.844 2.85l1.63 1.858zm22.133-9.732h-1.957a.26.26 0 0 0-.258.257v9.539c0 .141.116.257.258.257h1.957a.26.26 0 0 0 .258-.257v-9.539a.26.26 0 0 0-.258-.257m-3.29 0h-2.19a.26.26 0 0 0-.251.18l-1.732 5.64-1.906-5.647a.26.26 0 0 0-.245-.173h-1.526c-.11 0-.213.07-.245.173l-1.9 5.648-1.732-5.641a.26.26 0 0 0-.251-.18h-2.19a.26.26 0 0 0-.212.11.25.25 0 0 0-.039.23l3.214 9.546a.26.26 0 0 0 .244.174h1.739c.11 0 .213-.071.245-.174l1.886-5.577 1.887 5.577a.26.26 0 0 0 .245.174h1.739c.11 0 .212-.071.245-.174l3.213-9.545a.25.25 0 0 0-.039-.232.28.28 0 0 0-.212-.11zm-15.237.257v9.539a.26.26 0 0 1-.257.257H43a.26.26 0 0 1-.258-.257v-9.539c0-.141.116-.257.258-.257h1.958c.141 0 .257.116.257.257" clip-rule="evenodd"/></svg>