<svg xmlns="http://www.w3.org/2000/svg" fill="none" viewBox="0 0 72 48"><path fill="#fff" stroke="#E3E3E8" d="M4 .5h64A3.5 3.5 0 0 1 71.5 4v40a3.5 3.5 0 0 1-3.5 3.5H4A3.5 3.5 0 0 1 .5 44V4A3.5 3.5 0 0 1 4 .5Z"/><path fill="#F90" fill-rule="evenodd" d="M43.208 32.659c.394-.999 1.271-3.237.854-3.779h.003c-.415-.543-2.746-.258-3.794-.13h-.002c-.32.04-.368-.243-.082-.448 1.862-1.333 4.912-.952 5.266-.502s-.097 3.566-1.84 5.054c-.269.228-.525.106-.405-.195m-12.526 1.54c4.054 0 8.776-1.304 12.028-3.75v.005c.538-.413.076-1.02-.473-.782a28.8 28.8 0 0 1-11.213 2.345c-5.345 0-10.515-1.494-14.698-3.975-.367-.217-.64.166-.333.446 4.027 3.703 9.266 5.74 14.69 5.712" clip-rule="evenodd"/><path fill="#000" fill-rule="evenodd" d="M57.192 26.877h1.728c.18.003.33-.141.337-.325v-4.878c0-.612.033-1.166.275-1.719a1.14 1.14 0 0 1 1.003-.725c1.104 0 1.094 1.233 1.085 2.203l-.001.238v4.921c.021.158.15.278.306.285h1.742a.33.33 0 0 0 .333-.285V20.89c0-.877 0-2.097-.452-2.823C63.058 17.286 62.3 17 61.525 17c-1.196 0-1.875.59-2.36 1.83h-.033v-1.386a.33.33 0 0 0-.307-.253h-1.607a.33.33 0 0 0-.333.297v9.064a.327.327 0 0 0 .307.325m-1.625-4.754c0-2.86-1.391-5.11-3.962-5.11-2.506 0-3.896 2.212-3.896 5.014s1.373 5.053 3.896 5.053c2.428 0 3.962-2.193 3.962-4.957m-5.304-.382c0-1.106.081-2.878 1.358-2.878.55 0 .937.251 1.132.877.227.723.26 1.639.26 2.402 0 1.162-.051 3.069-1.408 3.069-1.343 0-1.342-2.312-1.342-3.433zm-32.4 5.154h1.734a.32.32 0 0 0 .233-.092.34.34 0 0 0 .1-.234V21.69c0-1.044 0-2.425 1.197-2.425 1.107 0 1.09 1.213 1.076 2.193l-.003.307v4.804a.33.33 0 0 0 .307.325h1.735a.32.32 0 0 0 .233-.093.34.34 0 0 0 .1-.233v-4.917c0-.509-.002-1.195.163-1.622a1.15 1.15 0 0 1 1.035-.742c.501 0 .89.172 1.018.781.066.294.057.974.052 1.425l-.003.272v4.804a.327.327 0 0 0 .307.325h1.73a.32.32 0 0 0 .235-.092.34.34 0 0 0 .1-.234V20.85q0-.21.005-.426c.014-.854.029-1.763-.442-2.415a2.53 2.53 0 0 0-2.402-.965 2.57 2.57 0 0 0-2.003 1.66c-.486-1.145-1.18-1.678-2.248-1.678-1.067 0-1.86.532-2.28 1.678h-.032v-1.183a.33.33 0 0 0-.307-.313h-1.615a.33.33 0 0 0-.33.324v9.064c.015.163.145.29.306.298m-3.012.07a.35.35 0 0 1-.41.041 3.8 3.8 0 0 1-.865-.986q-.058-.089-.127-.19c-.952.987-1.625 1.283-2.856 1.283C9.135 27.113 8 26.195 8 24.36c0-1.433.767-2.407 1.84-2.885.793-.355 1.85-.465 2.764-.56l.493-.053v-.361c.004-.389.007-.822-.21-1.148-.212-.325-.614-.458-.972-.458-.661 0-1.25.345-1.394 1.06a.37.37 0 0 1-.307.324l-1.665-.186a.3.3 0 0 1-.206-.128.32.32 0 0 1-.052-.24c.385-2.076 2.225-2.703 3.874-2.703.843 0 1.944.229 2.606.879.778.742.773 1.713.768 2.775l-.001.264v2.75c0 .74.27 1.108.553 1.496l.102.14c.11.156.134.351 0 .468-.355.302-.983.858-1.328 1.172zm-1.747-4.305v.086c.001.65.002 1.201-.323 1.79-.276.497-.713.803-1.2.803-.665 0-1.053-.516-1.053-1.282 0-1.503 1.324-1.776 2.576-1.776zm25.69 2.52.101.14c.116.163.141.353-.008.461-.354.302-.983.86-1.328 1.172a.355.355 0 0 1-.409.04 3.7 3.7 0 0 1-.869-.988l-.124-.188c-.951.988-1.629 1.283-2.856 1.283-1.458 0-2.592-.917-2.592-2.75 0-1.435.762-2.408 1.847-2.887.794-.355 1.858-.465 2.775-.56l.482-.05v-.357c.004-.389.007-.822-.212-1.147-.205-.325-.614-.46-.972-.46-.66 0-1.246.346-1.392 1.06a.37.37 0 0 1-.307.325l-1.679-.184a.3.3 0 0 1-.208-.129.32.32 0 0 1-.05-.242c.386-2.077 2.226-2.702 3.874-2.702.842 0 1.943.228 2.607.878.779.739.773 1.703.767 2.759v3.031c0 .74.269 1.107.553 1.495m-4.502.15c.486 0 .925-.307 1.199-.802.326-.592.325-1.146.325-1.804v-.451c-1.253 0-2.576.272-2.576 1.777 0 .764.388 1.28 1.052 1.28m6.069-7.828v1.29a.33.33 0 0 0 .096.236.3.3 0 0 0 .233.091h2.981l-3.417 5c-.157.27-.23.579-.212.89v1.32c0 .191.207.409.405.3a6.45 6.45 0 0 1 6.015-.01c.216.114.42-.107.42-.297v-1.388a.59.59 0 0 0-.307-.505c-.995-.57-2.152-.737-3.247-.71l2.95-4.292c.274-.384.428-.628.428-.814v-1.111a.33.33 0 0 0-.096-.235.3.3 0 0 0-.232-.092h-5.694a.3.3 0 0 0-.233.09.32.32 0 0 0-.09.237" clip-rule="evenodd"/></svg>