<svg xmlns="http://www.w3.org/2000/svg" fill="none" viewBox="0 0 72 48"><path fill="#fff" stroke="#E3E3E8" d="M4 .5h64A3.5 3.5 0 0 1 71.5 4v40a3.5 3.5 0 0 1-3.5 3.5H4A3.5 3.5 0 0 1 .5 44V4A3.5 3.5 0 0 1 4 .5Z"/><path fill="#659AD2" d="M31.305 20.794s.146-5.827 1.623-7.522c2.498-2.865 5.228-3.02 6.31-3.08q.165-.01.276-.019c.08-.008.15-.01.222-.013a38 38 0 0 0-3.21-.16h-1.082c-9.15.1-12.663 2.584-13.335 10.794zm-.897 9.989c-1.032 1.226-2.518 1.144-2.54 1.142v4.982c-3.676-1.41-5.333-4.347-5.765-9.765A44 44 0 0 1 22 25.44l9.305-.004-.006.527c-.011.908-.033 2.674-.03 2.732.007.26-.062 1.14-.86 2.088m12.273-20.13c4.675 1.182 6.7 4.136 7.184 10.206.15 1.885.133 3.14.133 3.14s.018 1.257-.133 3.142C49.208 35.403 45.7 37.9 36.526 38h-1.082c-1.591-.017-3.007-.109-4.272-.287h.016q.059 0 .117-.004c1.66-.09 3.97-1.306 5.346-4.133.6-1.236.762-3.444.762-3.444v-4.695h5.27v-4.643h-5.269l-.004-.014-.002-.006-.003-.013-.006-.02v-.005l-.002-.009a.3.3 0 0 1-.013-.06l-.002-.01-.009-.056q-.003-.012-.003-.028v-.006l-.01-.068v-.017l-.002-.023-.001-.016-.003-.067v-.045l-.001-.032v-.066l.001-.026.001-.02a2 2 0 0 1 .011-.155q.006-.067.017-.139l.002-.014.003-.013a3 3 0 0 1 .031-.172v-.002c.09-.406.28-.905.663-1.471 1.028-1.519 3.947-1.447 4.507-1.42l.086.006h.007z"/></svg>