<svg xmlns="http://www.w3.org/2000/svg" fill="none" viewBox="0 0 72 48"><path fill="#fff" d="M0 4a4 4 0 0 1 4-4h64a4 4 0 0 1 4 4v40a4 4 0 0 1-4 4H4a4 4 0 0 1-4-4V4Z"/><path stroke="#A1B2BA" stroke-opacity=".4" d="M.5 4A3.5 3.5 0 0 1 4 .5h64A3.5 3.5 0 0 1 71.5 4v40a3.5 3.5 0 0 1-3.5 3.5H4A3.5 3.5 0 0 1 .5 44V4Z"/><path fill="#002855" fill-rule="evenodd" d="M15.18 26.948a2.435 2.435 0 0 1-1.2.312h-.327c-.085 0-.206-.007-.556-.069l1.184-5.042c.218-.196.454-.323.726-.385.273-.061.449-.078.618-.078.521 0 .924.152 1.118.483.194.33.29.79.29 1.378 0 .478-.078.938-.235 1.379a4.22 4.22 0 0 1-.645 1.185c-.273.35-.598.628-.973.837Zm2.672-7.242c-.425-.209-.927-.313-1.509-.313-.279 0-.54.03-.781.092-.243.061-.471.14-.713.251L15.961 15l-2.818.441L10 28.804c.351.172.724.307 1.118.405.393.098.766.171 1.117.22.352.049.664.077.937.083.272.006.463.01.572.01.848 0 1.636-.163 2.363-.488a5.93 5.93 0 0 0 1.89-1.323 6.24 6.24 0 0 0 1.263-1.967 6.26 6.26 0 0 0 .464-2.4 5.73 5.73 0 0 0-.2-1.543 3.549 3.549 0 0 0-.618-1.25 3.002 3.002 0 0 0-1.054-.845Zm7.451-1.493.414-1.76h-2.699l-.414 1.76h2.7Zm3.086 8.823c.198.101.471.151.82.151.297 0 .586-.028.865-.085.183-.036.373-.08.561-.145l-.562 2.377-.157.038c-.435.1-.95.151-1.546.151-.857 0-1.521-.129-1.993-.386-.472-.257-.808-.609-1.006-1.055-.199-.446-.286-.957-.26-1.535a9.97 9.97 0 0 1 .26-1.828l1.825-7.799 2.888-.452-.708 2.92h3.092l-.559 2.298h-3.073l-.82 3.467a4.72 4.72 0 0 0-.14.81 1.34 1.34 0 0 0 .093.65c.081.182.22.323.42.424ZM62 19.392h-2.699l-1.57 6.68h.003l-.215.918c-.151.043-.3.081-.45.111a4.36 4.36 0 0 1-.866.085c-.348 0-.621-.05-.82-.15a.862.862 0 0 1-.419-.425 1.34 1.34 0 0 1-.093-.65c.019-.25.066-.52.14-.81l.82-3.466.54-2.298h-2.757l-1.248 5.331a9.966 9.966 0 0 0-.26 1.828c-.026.577.061 1.09.26 1.535.199.446.534.798 1.006 1.055.472.257 1.136.386 1.993.386.596 0 1.111-.05 1.546-.15.018-.005.034-.01.052-.013l-.002.005c-.12.55-.365.996-.758 1.344-.393.348-.976.523-1.75.523-.33 0-.63-.02-.901-.058l-.532 2.26c.36.047.758.071 1.198.071.822 0 1.541-.095 2.158-.284a4.296 4.296 0 0 0 1.586-.862c.44-.385.81-.868 1.106-1.448.296-.58.535-1.268.716-2.063l1.867-7.94-.007-.002L62 19.39ZM19.942 29.523l2.383-10.137h2.698l-2.382 10.137h-2.699Zm28.82-7.837c-1.258 0-1.498 0-2.014.27-.365.193-.668.481-.934.818a3.9 3.9 0 0 0-.627 1.165c-.151.441-.227.9-.227 1.378 0 .587.097 1.052.29 1.395.194.343.551.514 1.072.514.278 0 .53-.055.753-.165.224-.11.463-.294.717-.551.024-.306.064-.627.118-.964a16.4 16.4 0 0 1 .169-.857l.015-.073.669-2.93Zm1.917 3.41a6.158 6.158 0 0 0-.145 2.102c.072.704.339 1.783.598 2.323h-2.611a2.474 2.474 0 0 1-.327-.822c-.013-.058-.023-.107-.038-.151a4.831 4.831 0 0 1-1.126.698 3.35 3.35 0 0 1-1.38.275c-.605 0-1.122-.107-1.552-.321a2.93 2.93 0 0 1-1.053-.863 3.47 3.47 0 0 1-.59-1.267 6.36 6.36 0 0 1-.181-1.552c0-.844.148-1.64.444-2.386a6.082 6.082 0 0 1 1.235-1.956c.526-.556 1.797-1.785 3.882-1.785h4.187l-1.343 5.705Zm-15.79 2.096a3.4 3.4 0 0 0 .768.073c.475 0 .907-.089 1.297-.268.39-.178.722-.427.996-.748.275-.32.488-.705.64-1.155a4.62 4.62 0 0 0 .228-1.488c0-.53-.115-.98-.347-1.35-.231-.37-.637-.566-1.21-.568-.4-.002-1.065-.002-1.065-.002l-1.307 5.506Zm6.634-3.79c0 .9-.146 1.723-.438 2.468a5.853 5.853 0 0 1-1.216 1.931 5.43 5.43 0 0 1-1.864 1.267 6.1 6.1 0 0 1-2.367.452 7.14 7.14 0 0 1-1.242-.11l-.823 3.345h-2.705l3.14-13.363h3.605c.681 0 1.27.104 1.763.314.493.21.898.496 1.215.86.317.363.551.788.704 1.274.152.488.228 1.008.228 1.562Z" clip-rule="evenodd"/></svg>