<svg xmlns="http://www.w3.org/2000/svg" fill="none" viewBox="0 0 72 48"><path fill="#fff" stroke="#E3E3E8" d="M4 .5h64A3.5 3.5 0 0 1 71.5 4v40a3.5 3.5 0 0 1-3.5 3.5H4A3.5 3.5 0 0 1 .5 44V4A3.5 3.5 0 0 1 4 .5Z"/><path fill="#5A31F4" d="M10.479 28.423c-1.626 0-3.381-1.012-3.479-2.872v-.033c0-.016.016-.016.016-.033q.017-.016.033-.016h2.015c.017 0 .05 0 .065.016.017.017.033.033.033.066.049.587.666.93 1.528.93.601 0 1.203-.294 1.203-.735 0-.375-.293-.603-.83-.767-.454-.13-.974-.277-1.348-.391-2.179-.67-2.455-1.633-2.455-2.628 0-1.387 1.35-2.644 3.186-2.644 1.56 0 3.235.718 3.365 2.693v.032c0 .017-.016.017-.016.033q-.017.015-.033.016h-2.015c-.017 0-.05-.016-.065-.016-.017-.016-.033-.033-.033-.065-.049-.62-.65-.751-1.187-.751-.536 0-1.072.163-1.072.686 0 .522.666.734 1.04.832s1.398.343 1.398.343c2.048.538 2.178 1.958 2.178 2.579-.016 1.322-1.105 2.725-3.527 2.725m11.818-.081a.12.12 0 0 1-.033.065c-.016.016-.032.033-.065.033h-2.032a.12.12 0 0 1-.065-.033c-.016-.016-.016-.033-.032-.065v-4.62c0-.914-.277-1.828-1.333-1.828-.976 0-1.577.67-1.577 1.6v4.848a.12.12 0 0 1-.033.065c-.016.016-.032.033-.065.033h-2.048c-.016 0-.016-.017-.032-.017 0 0-.017-.016-.017-.032V16.998c0-.016 0-.049.017-.065.016-.017.032-.033.065-.033h1.918c.016 0 .016.016.032.016.017.017.017.033.033.066v3.966l.049-.05a2.66 2.66 0 0 1 2.097-1.126c1.333 0 2.21.654 2.682 1.666.211.473.341.995.374 1.517.016.164.016.327.016.49zm5.185.701h-.26c-2.146-.065-3.804-1.632-3.869-3.688-.049-1.616.878-2.465 1.626-2.922.016-.016.048-.016.08-.033h.082c.033 0 .049.017.065.033s.033.033.049.065l.666 1.306c.017.05.033.082.017.13a.2.2 0 0 1-.082.115c-.471.359-.715.734-.715 1.29 0 1.06.894 1.762 2.21 1.778 1.61-.016 2.602-1.126 2.602-2.872 0-.44-.065-.882-.228-1.306a3.5 3.5 0 0 0-.715-1.11 2.57 2.57 0 0 0-2.097-.669c-1.495.13-2.13.571-2.52.914l-.065.049a.12.12 0 0 1-.065.033h-.081c-.032 0-.049-.017-.081-.033-.017-.016-.049-.033-.049-.065l-.748-1.322c-.016-.05-.032-.098-.016-.131a.2.2 0 0 1 .081-.114l.017-.017c.747-.522 1.69-1.191 3.576-1.191 3.186 0 4.909 2.611 4.909 5.06.016 2.644-1.837 4.619-4.39 4.7m9.917-9.27c-.455.016-.91.147-1.333.359a3.16 3.16 0 0 0-1.057.914v-1.224c0-.017-.016-.033-.016-.033-.016 0-.016-.016-.032-.016h-1.951c-.016 0-.033.016-.033.016a.12.12 0 0 0-.032.065v11.132c0 .032.016.049.032.065.017 0 .017.016.033.016h2.08c.017 0 .033-.016.033-.016 0-.016.016-.016.016-.032v-3.69h.033c.325.507 1.203 1.11 2.34 1.11 2.146 0 3.935-1.844 3.935-4.341s-1.789-4.325-4.048-4.325m1.755 5.19a2.5 2.5 0 0 1-.455.718 2 2 0 0 1-.682.49 2 2 0 0 1-.813.18q-.488 0-.927-.197a2.5 2.5 0 0 1-.764-.587 2.3 2.3 0 0 1-.439-.865 2.2 2.2 0 0 1-.032-.98c.065-.326.195-.636.374-.897a2.06 2.06 0 0 1 .699-.653 2.03 2.03 0 0 1 1.837-.114q.609.244.975.832c.244.376.374.8.374 1.24 0 .278-.049.572-.146.833m14.191.473c0 .408.341.637.91.637.78 0 1.235-.44 1.235-1.208v-.228l-1.17.065c-.618.016-.975.294-.975.734m-3.95-4.929H48.11c-.016 0-.032.016-.048.016l-.033.033c-.016 0-.032.017-.032.033-.017.016-.017.033-.017.049v2.774c0 .017.017.033.017.05l.032.032c0 .016.016.033.033.033.016.016.032.016.049.016h1.284c.78 0 1.365-.636 1.349-1.534 0-.865-.569-1.502-1.35-1.502"/><path fill="#5A31F4" d="M64.838 18.304a2.2 2.2 0 0 0-.797-.996 2.14 2.14 0 0 0-1.203-.375h-17.23c-.586 0-1.122.228-1.529.652a2.23 2.23 0 0 0-.634 1.567v9.728c0 .588.228 1.143.634 1.567s.96.653 1.528.653h17.231c.293 0 .57-.05.83-.163.26-.098.503-.262.698-.474.212-.196.358-.44.472-.718s.162-.555.162-.849v-9.744a2.15 2.15 0 0 0-.162-.849m-15.346 6.349h-1.365a.12.12 0 0 0-.081.032.13.13 0 0 0-.033.082v1.991a.13.13 0 0 1-.032.082.12.12 0 0 1-.082.032h-.959a.12.12 0 0 1-.081-.032.13.13 0 0 1-.032-.082v-7.181c-.017-.017 0-.033 0-.05 0-.016 0-.016.016-.032 0-.016.016-.033.032-.033.017-.016.033-.016.049-.016h2.536c1.447 0 2.487 1.077 2.503 2.612 0 1.518-1.04 2.595-2.47 2.595m7.104 2.073v.049c-.016 0-.016.016-.032.032 0 .017-.017.033-.033.033h-.992l-.032-.033a.034.034 0 0 1-.032-.032v-.262c0-.016 0-.032-.017-.049-.016-.016-.032-.016-.049-.032h-.048c-.017 0-.033.016-.05.032-.26.31-.698.523-1.397.523-1.024 0-1.707-.555-1.707-1.502a1.4 1.4 0 0 1 .13-.67c.098-.211.244-.39.423-.521.374-.294.959-.441 1.804-.474l.91-.032v-.278c0-.555-.34-.783-.926-.783-.585 0-.943.212-1.024.555a.2.2 0 0 1-.049.065c-.016.016-.049.016-.065.016h-.943l-.032-.032c0-.017-.017-.033-.017-.05v-.048c.13-.816.78-1.437 2.179-1.437 1.479 0 2 .719 2 2.04zm5.608-4.62-2 5.517c-.454 1.29-1.25 1.616-2.129 1.616-.162 0-.325-.016-.487-.065a.2.2 0 0 1-.065-.05c-.017-.015-.033-.032-.033-.064v-.85c0-.015.016-.032.016-.048.017 0 .017-.016.033-.033.016-.016.032-.032.049-.032h.048c.13.016.277.032.407.032a1.02 1.02 0 0 0 .683-.196 1.07 1.07 0 0 0 .406-.587l.065-.196c.016-.033.016-.049 0-.082l-1.87-4.978v-.049c0-.016 0-.032.017-.049.016-.016.032-.016.049-.032.016-.017.032-.017.048-.017h.91c.017 0 .05 0 .066.017.032 0 .032.032.048.049l1.268 3.509a.2.2 0 0 0 .05.065c.015.016.048.016.064.016.017 0 .049 0 .065-.016.033-.016.033-.049.049-.065l1.105-3.493a.2.2 0 0 1 .05-.065c.015 0 .048-.017.064-.017h.927c.016 0 .032 0 .049.017.016.016.032.032.032.049 0 .016.016.032.016.049z"/></svg>