<svg xmlns="http://www.w3.org/2000/svg" fill="none" viewBox="0 0 72 48"><path fill="#fff" stroke="#E3E3E8" d="M4 .5h64A3.5 3.5 0 0 1 71.5 4v40a3.5 3.5 0 0 1-3.5 3.5H4A3.5 3.5 0 0 1 .5 44V4A3.5 3.5 0 0 1 4 .5Z"/><path fill="#508ECB" d="M16.424 29.569h-1.072l-2.217-6.912h-.041L10.88 29.57H9.83L6 19.301h2.06l2.276 6.672h.037l2.115-6.672h1.236l2.127 6.672h.037l2.275-6.672h2.061zm5.844-4.299a3.475 3.475 0 0 0 3.364 2.799 3.27 3.27 0 0 0 2.922-1.724h1.92a5.22 5.22 0 0 1-4.912 3.485c-2.886 0-5.214-2.506-5.214-5.416a5.246 5.246 0 0 1 5.172-5.316c2.89-.037 5.264 2.286 5.297 5.188 0 .335-.037.852-.054.984zm6.62-1.484a3.33 3.33 0 0 0-3.64-2.989 3.33 3.33 0 0 0-2.98 2.989z"/><path fill="#32AF4A" d="M32.268 19.3h1.755v1.576h.037a4.32 4.32 0 0 1 3.644-1.852c3.475 0 5.3 2.798 5.3 5.539.05 2.856-2.217 5.217-5.069 5.266h-.111c-2.144 0-3.215-1.095-3.603-1.744h-.037V33h-1.916zm5.304 1.493c-2.015 0-3.417 1.74-3.417 3.63a3.47 3.47 0 0 0 3.327 3.608 3.47 3.47 0 0 0 3.598-3.336v-.235c0-1.84-1.422-3.667-3.512-3.667zm15.321 8.776v-1.596h-.037a3.91 3.91 0 0 1-3.492 1.856c-2.901.1-5.333-2.178-5.432-5.088v-.285c0-2.501 1.756-5.453 5.432-5.453a4.05 4.05 0 0 1 3.475 1.724h.037V19.3h1.925v10.268zm-3.529-8.776c-2.365 0-3.511 2.067-3.511 3.667a3.54 3.54 0 0 0 3.408 3.662 3.537 3.537 0 0 0 3.652-3.419v-.243a3.497 3.497 0 0 0-3.33-3.663c-.074 0-.144-.004-.218 0zM60.361 33h-1.995l1.496-3.634-4.084-10.065h2.06l3.014 7.97 3.087-7.97h2.06z"/></svg>