<svg xmlns="http://www.w3.org/2000/svg" fill="none" viewBox="0 0 72 48"><path fill="#fff" stroke="#E3E3E8" d="M4 .5h64A3.5 3.5 0 0 1 71.5 4v40a3.5 3.5 0 0 1-3.5 3.5H4A3.5 3.5 0 0 1 .5 44V4A3.5 3.5 0 0 1 4 .5Z"/><path fill="#8891B1" d="M36.182 9 27 24.277l9.182-4.18z"/><path fill="#63688E" d="M36.182 20.098 27 24.278l9.182 5.443zm9.193 4.179L36.182 9v11.098z"/><path fill="#464A75" d="m36.182 29.72 9.193-5.443-9.193-4.18z"/><path fill="#8891B1" d="M27 26.029 36.182 39v-7.539z"/><path fill="#63688E" d="M36.182 31.461V39l9.193-12.971z"/></svg>