<svg xmlns="http://www.w3.org/2000/svg" fill="none" viewBox="0 0 72 48"><path fill="#fff" stroke="#E3E3E8" d="M4 .5h64A3.5 3.5 0 0 1 71.5 4v40a3.5 3.5 0 0 1-3.5 3.5H4A3.5 3.5 0 0 1 .5 44V4A3.5 3.5 0 0 1 4 .5Z"/><path fill="#1A1A1A" d="M18.528 16.5H8.513A2.51 2.51 0 0 0 6 19.006v9.988A2.51 2.51 0 0 0 8.513 31.5h10.015a2.51 2.51 0 0 0 2.513-2.506v-9.987a2.51 2.51 0 0 0-2.514-2.507m-.221 11.482a.793.793 0 0 1-.794.791H9.528a.793.793 0 0 1-.794-.791v-7.963c0-.438.356-.792.794-.792h7.985c.438 0 .794.354.794.791zm-6.382-1.946a.454.454 0 0 1-.455-.456v-3.179c0-.252.202-.457.455-.457h3.192c.251 0 .455.204.455.457v3.178a.455.455 0 0 1-.455.456h-3.192zm13.104-.217h1.642c.082.927.712 1.651 1.984 1.651 1.136 0 1.834-.56 1.834-1.405 0-.792-.547-1.146-1.533-1.379l-1.273-.273c-1.383-.3-2.423-1.187-2.423-2.634 0-1.598 1.423-2.69 3.271-2.69 1.957 0 3.217 1.024 3.325 2.539H30.27c-.19-.71-.78-1.131-1.736-1.131-1.014 0-1.71.546-1.71 1.242 0 .697.601 1.12 1.641 1.352l1.26.273c1.382.3 2.326 1.132 2.326 2.592 0 1.857-1.396 2.962-3.393 2.962-2.246-.002-3.49-1.215-3.628-3.1M37.925 31.5v-2.716l.107-1.192h-.107c-.377.857-1.167 1.326-2.241 1.326-1.732 0-3.02-1.405-3.02-3.56s1.288-3.561 3.02-3.561c1.06 0 1.812.494 2.241 1.271h.107v-1.139h1.424V31.5zm.053-6.144c0-1.379-.845-2.183-1.88-2.183s-1.88.804-1.88 2.183.846 2.182 1.88 2.182c1.035 0 1.88-.802 1.88-2.182m2.613.71V21.93h1.53v4.003c0 1.084.524 1.606 1.396 1.606 1.074 0 1.773-.763 1.773-1.954V21.93h1.53v6.853h-1.423v-1.419h-.107c-.336.911-1.074 1.553-2.214 1.553-1.64 0-2.485-1.043-2.485-2.85m7.16.803c0-1.285.9-2.035 2.497-2.128l1.892-.121v-.536c0-.642-.47-1.03-1.302-1.03-.765 0-1.222.388-1.343.937h-1.53c.162-1.392 1.316-2.196 2.872-2.196 1.758 0 2.832.75 2.832 2.196v4.791h-1.423v-1.271h-.107c-.322.843-.994 1.406-2.282 1.406-1.233 0-2.105-.83-2.105-2.049m4.39-.844v-.361l-1.543.107c-.832.052-1.209.361-1.209.977 0 .522.43.897 1.033.897 1.09 0 1.72-.695 1.72-1.62m2.67 2.759v-6.855h1.423v1.312h.107c.201-.897.886-1.312 1.906-1.312h.698v1.379h-.872c-.994 0-1.732.642-1.732 1.86v3.614h-1.53zm11.136-3.146h-5.222c.08 1.258.966 1.968 1.947 1.968.831 0 1.355-.335 1.65-.897h1.518c-.416 1.392-1.638 2.207-3.182 2.207-2.026 0-3.45-1.512-3.45-3.56s1.463-3.56 3.464-3.56c2.012 0 3.328 1.378 3.328 3.09.001.337-.026.51-.053.752m-1.462-1.057c-.053-.95-.846-1.593-1.812-1.593-.913 0-1.677.576-1.866 1.593z"/></svg>