<svg xmlns="http://www.w3.org/2000/svg" fill="none" viewBox="0 0 72 48"><path fill="#fff" stroke="#E3E3E8" d="M4 .5h64A3.5 3.5 0 0 1 71.5 4v40a3.5 3.5 0 0 1-3.5 3.5H4A3.5 3.5 0 0 1 .5 44V4A3.5 3.5 0 0 1 4 .5Z"/><path fill="#3C4043" fill-rule="evenodd" d="M34.06 30.514v-6.046h3.119c1.277 0 2.356-.428 3.235-1.273l.211-.214a4.354 4.354 0 0 0-.21-6.093 4.45 4.45 0 0 0-3.236-1.297h-5.006v14.923zm0-7.878v-5.213h3.166c.68 0 1.325.262 1.806.738 1.02 1 1.044 2.666.059 3.701a2.45 2.45 0 0 1-1.865.774zM49.43 21.1c-.81-.75-1.911-1.131-3.307-1.131-1.793 0-3.141.666-4.032 1.987l1.664 1.06q.915-1.357 2.497-1.357c.669 0 1.313.25 1.817.702.493.428.774 1.047.774 1.702v.44c-.727-.405-1.641-.619-2.767-.619-1.312 0-2.367.31-3.153.94-.785.631-1.184 1.464-1.184 2.523a3.18 3.18 0 0 0 1.114 2.5c.738.666 1.676.999 2.778.999 1.301 0 2.333-.583 3.118-1.75h.082v1.417h1.806v-6.296c0-1.32-.399-2.368-1.208-3.117m-5.123 7.532a1.55 1.55 0 0 1-.622-1.25c0-.558.258-1.023.763-1.392.516-.369 1.16-.559 1.923-.559 1.055-.012 1.876.226 2.462.702 0 .81-.317 1.512-.938 2.107a2.98 2.98 0 0 1-2.122.892 2.3 2.3 0 0 1-1.466-.5M54.693 35 61 20.303h-2.05l-2.92 7.33h-.035l-2.99-7.33h-2.05l4.138 9.556L52.747 35z" clip-rule="evenodd"/><path fill="#4285F4" d="M27.545 23.16c0-.584-.047-1.167-.141-1.738h-7.96v3.296h4.56a3.97 3.97 0 0 1-1.688 2.606v2.142h2.72c1.594-1.487 2.508-3.689 2.508-6.307"/><path fill="#34A853" d="M19.444 31.537c2.274 0 4.197-.761 5.592-2.07l-2.72-2.143c-.762.524-1.735.821-2.872.821-2.204 0-4.068-1.51-4.736-3.534h-2.802v2.214c1.43 2.891 4.35 4.712 7.538 4.712"/><path fill="#FBBC04" d="M14.708 24.611a5.24 5.24 0 0 1 0-3.284v-2.202h-2.802a8.61 8.61 0 0 0 0 7.688z"/><path fill="#EA4335" d="M19.444 17.792a4.5 4.5 0 0 1 3.235 1.285l2.415-2.451a8.08 8.08 0 0 0-5.65-2.226c-3.189 0-6.108 1.833-7.538 4.725l2.802 2.213c.668-2.035 2.532-3.546 4.736-3.546"/></svg>