<svg xmlns="http://www.w3.org/2000/svg" fill="none" viewBox="0 0 72 48"><path fill="#fff" stroke="#E3E3E8" d="M4 .5h64A3.5 3.5 0 0 1 71.5 4v40a3.5 3.5 0 0 1-3.5 3.5H4A3.5 3.5 0 0 1 .5 44V4A3.5 3.5 0 0 1 4 .5Z"/><path fill="#862165" fill-rule="evenodd" d="M45.69 17c-.999 0-1.81.807-1.81 1.803s.811 1.801 1.81 1.801c1 0 1.81-.805 1.81-1.801S46.69 17 45.69 17m-26.106 6.04c-.464-.03-1.54-.1-1.54-1.063 0-1.162 1.547-1.162 2.128-1.162 1.02 0 2.342.3 3.286.581 0 0 .526.185.974.374l.042.011v-3.183l-.056-.017c-1.116-.388-2.41-.76-4.811-.76-4.14 0-5.607 2.399-5.607 4.457 0 1.185.51 3.976 5.25 4.298h.005c.406.025 1.465.09 1.465 1.081 0 .822-.873 1.306-2.342 1.306-1.61 0-3.171-.408-4.12-.796v3.277c1.42.372 3.021.556 4.898.556 4.046 0 5.86-2.271 5.86-4.523 0-2.552-2.029-4.21-5.432-4.437m12.218-1.415.018-.049h4.335a16.5 16.5 0 0 1-2.66 4.99s1.964 3.425 2.412 5.284H31.37s-.543-2.468-1.64-4.107v4.107h-3.79V18.566l3.79-.747v7.329a12.7 12.7 0 0 0 2.073-3.524m22.643 10.224V18.475l3.673-.654v14.03zm-12.663-10.41c-3.393.109-5.117 1.625-5.117 4.639v5.772h3.703v-4.708c0-1.803.238-2.577 2.389-2.65v-3c-.362-.077-.975-.053-.975-.053m2.072 10.412V21.588h3.672V31.85zm5.229-13.376 3.67-.654v14.03h-3.67z" clip-rule="evenodd"/></svg>