<svg xmlns="http://www.w3.org/2000/svg" fill="none" viewBox="0 0 72 48"><path fill="#FFB3C7" stroke="#E3E3E8" d="M4 .5h64A3.5 3.5 0 0 1 71.5 4v40a3.5 3.5 0 0 1-3.5 3.5H4A3.5 3.5 0 0 1 .5 44V4A3.5 3.5 0 0 1 4 .5Z"/><path fill="#17120F" fill-rule="evenodd" d="M11.715 30.304H9V18h2.715zM18.495 18h-2.657c0 2.264-1 4.342-2.746 5.702l-1.053.82 4.078 5.782h3.353l-3.752-5.32c1.779-1.843 2.777-4.32 2.777-6.984m4.331 12.3h-2.564V18.002h2.564zm7.748-8.507v.544a4.2 4.2 0 0 0-2.428-.779c-2.384 0-4.317 2.01-4.317 4.489s1.933 4.488 4.317 4.488c.9 0 1.736-.288 2.428-.779v.544h2.45v-8.507zm-.008 4.254c0 1.209-.994 2.189-2.22 2.189-1.225 0-2.219-.98-2.219-2.19 0-1.208.994-2.188 2.22-2.188 1.225 0 2.219.98 2.219 2.189m25.848-3.71v-.544h2.449V30.3h-2.45v-.544a4.2 4.2 0 0 1-2.427.78c-2.384 0-4.317-2.01-4.317-4.49 0-2.478 1.933-4.488 4.317-4.488.9 0 1.736.288 2.428.78m-2.228 5.899c1.226 0 2.22-.98 2.22-2.19 0-1.208-.994-2.188-2.22-2.188s-2.22.98-2.22 2.189.994 2.189 2.22 2.189m-8.87-6.672c-.978 0-1.904.316-2.523 1.188v-.958h-2.439V30.3h2.469v-4.47c0-1.294.834-1.927 1.838-1.927 1.077 0 1.696.668 1.696 1.91V30.3h2.446v-5.41c0-1.98-1.514-3.326-3.487-3.326m-8.504.23V22.9c.49-.664 1.406-1.107 2.4-1.107v2.475h-.029c-.969 0-2.365.72-2.365 2.06V30.3h-2.514v-8.507zm23.114 7.087c0-.883.688-1.598 1.537-1.598S63 27.998 63 28.88s-.688 1.598-1.537 1.598-1.537-.715-1.537-1.598" clip-rule="evenodd"/></svg>