<svg xmlns="http://www.w3.org/2000/svg" fill="none" viewBox="0 0 72 48"><path fill="#fff" stroke="#E3E3E8" d="M4 .5h64A3.5 3.5 0 0 1 71.5 4v40a3.5 3.5 0 0 1-3.5 3.5H4A3.5 3.5 0 0 1 .5 44V4A3.5 3.5 0 0 1 4 .5Z"/><path fill="#005697" fill-rule="evenodd" d="M18.636 35.516a1.34 1.34 0 0 0-.205-.747 1.35 1.35 0 0 0-.54-.481q.334-.166.52-.49a1.45 1.45 0 0 0 .183-.73v-.15q0-.498-.192-.83a1.44 1.44 0 0 0-.541-.531 2.6 2.6 0 0 0-.834-.287 6 6 0 0 0-1.082-.087q-.201 0-.419.009-.219.008-.423.02a11 11 0 0 0-.659.063q-.243.041-.343.15-.1.107-.101.39v5.046q0 .282.105.39.105.107.356.15.126.025.302.04.175.017.381.03.205.012.424.02.217.009.427.009.545 0 1.028-.083.48-.083.838-.295.356-.212.566-.572.21-.361.21-.91zm-1.425-2.383a.8.8 0 0 1-.042.254.5.5 0 0 1-.138.207.7.7 0 0 1-.26.141 1.4 1.4 0 0 1-.415.054h-.939v-1.436q.042.001.13-.004.088-.004.184-.004h.323q.645 0 .901.162t.256.502zm-.214 3.013q.248-.19.248-.539v-.091q0-.299-.193-.52-.193-.22-.696-.22h-.939v1.553h.147q.095 0 .2.004.105.005.202.005h.138q.645 0 .893-.192m6.234-1.85a1.95 1.95 0 0 0-.139-.776 1.35 1.35 0 0 0-.39-.523 1.6 1.6 0 0 0-.616-.299 3.2 3.2 0 0 0-.817-.095q-.42 0-.817.058a7 7 0 0 0-.633.116q-.16.042-.16.183v.672q0 .084.042.116a.17.17 0 0 0 .11.034h.041l.252-.021q.15-.013.34-.021a19 19 0 0 1 .8-.017q.294 0 .461.108t.168.465v.299h-.453q-1.081 0-1.572.336-.49.336-.49 1.067v.075q0 .405.12.68.123.274.324.44.2.166.457.236.255.07.532.07.377 0 .65-.099.272-.099.515-.274v.133q0 .066.05.116t.118.05h.94a.16.16 0 0 0 .117-.05.16.16 0 0 0 .05-.116zm-1.656 2.137a2 2 0 0 0 .323-.129v-.912h-.478a1.5 1.5 0 0 0-.36.037.54.54 0 0 0-.227.112.4.4 0 0 0-.117.19 1 1 0 0 0-.034.266v.075q0 .265.13.34t.398.075q.193 0 .365-.054m6.787.818v-2.764q0-.39-.063-.735a1.6 1.6 0 0 0-.226-.597 1.16 1.16 0 0 0-.453-.403q-.29-.15-.742-.15-.402 0-.712.097a2.4 2.4 0 0 0-.654.339v-.201a.16.16 0 0 0-.05-.118.16.16 0 0 0-.118-.05h-.939a.16.16 0 0 0-.117.05.16.16 0 0 0-.05.116v4.416q0 .066.054.12a.17.17 0 0 0 .121.054h1.015a.16.16 0 0 0 .117-.054.17.17 0 0 0 .05-.12v-3.263q.219-.115.411-.19a1 1 0 0 1 .378-.075q.192 0 .314.038a.35.35 0 0 1 .189.128q.066.09.092.24t.025.364v2.758q0 .067.05.12a.16.16 0 0 0 .118.054h1.014a.17.17 0 0 0 .122-.054.17.17 0 0 0 .054-.12m4.125-.805v.739q0 .09-.042.128a.3.3 0 0 1-.134.062q-.177.042-.457.084a5 5 0 0 1-.658.04q-.89 0-1.421-.539-.533-.54-.533-1.56v-.697q0-1.02.533-1.56.531-.54 1.42-.54.377 0 .659.041.281.042.457.083a.34.34 0 0 1 .134.063q.042.037.042.128v.739a.13.13 0 0 1-.046.104.18.18 0 0 1-.113.037h-.017q-.235-.024-.449-.041a8 8 0 0 0-.574-.017.8.8 0 0 0-.268.045.5.5 0 0 0-.218.158.8.8 0 0 0-.147.3 1.7 1.7 0 0 0-.055.46v.697q0 .274.055.46a.8.8 0 0 0 .147.3.5.5 0 0 0 .218.157q.126.045.268.046a8 8 0 0 0 1.023-.058h.017q.066 0 .113.037.046.038.046.104m4.654-1.685q0-.497-.14-.897a1.85 1.85 0 0 0-.402-.676 1.8 1.8 0 0 0-.655-.432 2.5 2.5 0 0 0-.904-.153 2.5 2.5 0 0 0-.903.153q-.39.154-.66.432-.267.277-.407.676a2.7 2.7 0 0 0-.138.897v.58q0 .5.138.897.139.398.408.677.269.278.66.431.39.154.902.154.513 0 .904-.154.39-.153.655-.431.264-.279.403-.677t.139-.896zm-2.101 1.602q.742 0 .742-1.021v-.581q0-1.013-.742-1.013-.367 0-.559.253-.192.254-.191.76v.58q0 .507.191.764.192.258.559.258m7.089.888v-2.764q0-.39-.063-.735a1.6 1.6 0 0 0-.227-.597 1.16 1.16 0 0 0-.453-.403q-.288-.15-.742-.15a2.4 2.4 0 0 0-.712.097 2.4 2.4 0 0 0-.654.339v-.201a.16.16 0 0 0-.05-.118.16.16 0 0 0-.118-.05h-.939a.16.16 0 0 0-.117.05.16.16 0 0 0-.05.116v4.416q0 .066.054.12a.17.17 0 0 0 .122.054h1.014a.16.16 0 0 0 .117-.054.17.17 0 0 0 .05-.12v-3.263q.219-.115.411-.19.194-.075.378-.075.192 0 .314.038a.35.35 0 0 1 .189.128q.067.09.092.24t.025.364v2.758q0 .067.05.12a.16.16 0 0 0 .118.054h1.014a.17.17 0 0 0 .122-.054.17.17 0 0 0 .055-.12m3.656-.624v.642q0 .14-.16.165-.193.032-.335.05a3 3 0 0 1-.327.016 3 3 0 0 1-.605-.054.9.9 0 0 1-.437-.212 1 1 0 0 1-.267-.436 2.3 2.3 0 0 1-.091-.718v-2.407l-.671-.108a.3.3 0 0 1-.122-.062.14.14 0 0 1-.054-.112v-.548q0-.066.054-.12a.17.17 0 0 1 .122-.054h.67v-.68q0-.067.05-.108a.3.3 0 0 1 .117-.059l1.017-.174h.025q.066 0 .108.037.042.038.042.104v.88h.688q.066 0 .117.05a.16.16 0 0 1 .05.117v.678a.16.16 0 0 1-.05.117.16.16 0 0 1-.117.05h-.688v2.416q0 .25.042.32t.234.07h.411q.177 0 .177.14m4.477-2.331q0-.456-.139-.776a1.35 1.35 0 0 0-.39-.523 1.6 1.6 0 0 0-.616-.299 3.2 3.2 0 0 0-.817-.095q-.42 0-.818.058a7 7 0 0 0-.633.116q-.159.042-.159.183v.672q0 .084.042.116a.17.17 0 0 0 .109.034h.042l.251-.021q.151-.013.34-.021a19 19 0 0 1 .8-.017q.294 0 .462.108.167.108.167.465v.299h-.452q-1.082 0-1.572.336t-.49 1.067v.075q0 .405.12.68.122.274.324.44.201.166.456.236t.533.07q.378 0 .65-.099t.515-.274v.133q0 .066.05.116t.118.05h.939a.16.16 0 0 0 .117-.05.16.16 0 0 0 .05-.116zm-1.657 2.137a2 2 0 0 0 .323-.129v-.912h-.478a1.5 1.5 0 0 0-.36.037.54.54 0 0 0-.227.112.4.4 0 0 0-.117.19 1 1 0 0 0-.034.266v.075q0 .265.13.34t.399.075q.192 0 .364-.054m5.781.752v-.74a.13.13 0 0 0-.046-.103.17.17 0 0 0-.113-.037h-.017q-.234.024-.448.041a8 8 0 0 1-.575.017.8.8 0 0 1-.268-.046.5.5 0 0 1-.218-.158.8.8 0 0 1-.147-.298 1.7 1.7 0 0 1-.054-.461v-.697q0-.275.054-.46a.8.8 0 0 1 .147-.3.5.5 0 0 1 .218-.157.8.8 0 0 1 .268-.046 8 8 0 0 1 1.023.058h.017a.17.17 0 0 0 .113-.037.13.13 0 0 0 .046-.104v-.739q0-.09-.042-.129a.34.34 0 0 0-.134-.062 6 6 0 0 0-.457-.083 5 5 0 0 0-.658-.041q-.889 0-1.421.54t-.532 1.56v.697q0 1.02.532 1.56t1.421.54a4.6 4.6 0 0 0 1.115-.125.3.3 0 0 0 .134-.062q.042-.037.042-.129M58 36.627v.642q0 .14-.16.165-.192.032-.335.05a3 3 0 0 1-.327.016q-.343 0-.604-.054a.9.9 0 0 1-.438-.212 1 1 0 0 1-.267-.436 2.4 2.4 0 0 1-.091-.718v-2.407l-.67-.108a.3.3 0 0 1-.122-.062.14.14 0 0 1-.055-.112v-.548q0-.066.055-.12a.17.17 0 0 1 .121-.054h.671v-.68q0-.067.05-.108a.3.3 0 0 1 .117-.059l1.016-.174h.025q.067 0 .108.037.042.038.042.104v.88h.688q.067 0 .117.05a.16.16 0 0 1 .05.117v.678a.16.16 0 0 1-.05.117.16.16 0 0 1-.117.05h-.688v2.416q0 .25.042.32t.235.07h.41q.177 0 .177.14" clip-rule="evenodd"/><path fill="#005697" d="M53.206 15.21H39.584L38.2 16.754l-4.495 5.01-1.385 1.545H18.877l1.364-1.564.646-.74 1.364-1.563h-6.194c-1.131 0-2.057.94-2.057 2.088v4.406c0 1.15.926 2.089 2.057 2.089h23.711c1.132 0 2.677-.698 3.435-1.551l3.587-4.039z"/><path fill="#FBD500" d="M55.943 10.5c1.131 0 2.057.94 2.057 2.089v4.406c0 1.148-.926 2.088-2.057 2.088H49.77l1.377-1.551.682-.77 1.377-1.552H39.585l-7.266 8.105H18.794l9.7-10.857.367-.411c.76-.85 2.308-1.547 3.44-1.547z"/></svg>