<svg xmlns="http://www.w3.org/2000/svg" fill="none" viewBox="0 0 72 48"><path fill="#fff" d="M0 4a4 4 0 0 1 4-4h64a4 4 0 0 1 4 4v40a4 4 0 0 1-4 4H4a4 4 0 0 1-4-4V4Z"/><path stroke="#A1B2BA" stroke-opacity=".4" d="M.5 4A3.5 3.5 0 0 1 4 .5h64A3.5 3.5 0 0 1 71.5 4v40a3.5 3.5 0 0 1-3.5 3.5H4A3.5 3.5 0 0 1 .5 44V4Z"/><path fill="#7FA9B3" d="M60.267 19.457c.069.075.118.144.182.233.05.074.1.123.149.197.064.074.133.163.183.232.05.074.118.143.168.217.064.09.133.178.198.267.069.089.118.163.183.252.064.074.118.143.182.217.05.074.1.123.149.198.069.088.148.177.217.266.065.074.119.163.183.232.05.074.119.124.168.198.035.034.05.074.084.108.035.055.084.09.119.144.035.034.064.088.099.123a.372.372 0 0 1 .099.143c.05.074.118.124.168.217.034.055.084.09.118.144.07.088.149.197.218.286.035.054.084.089.119.143.05.074.099.124.148.198.035.054.084.089.119.143.049.069.098.143.148.217.05.07.119.143.183.217.05.055.084.109.118.163.05.055.035.109-.014.163-.07.09-.134.178-.218.267-.05.074-.119.143-.168.197-.064.07-.119.163-.183.233-.05.073-.119.143-.168.217-.064.074-.119.163-.168.232-.05.074-.119.143-.168.217-.035.054-.084.109-.119.163-.05.074-.099.123-.148.198-.05.054-.084.108-.134.162-.069.09-.148.178-.217.267-.05.074-.119.143-.168.217a2.34 2.34 0 0 0-.183.232c-.035.055-.084.109-.119.163-.05.074-.118.143-.168.218-.05.074-.119.143-.168.217-.084.089-.148.197-.232.286a17.98 17.98 0 0 1-.252.321c-.07.074-.134.163-.183.232-.05.074-.1.143-.168.217-.05.075-.12.144-.169.218-.049.069-.118.143-.168.217 0 0-.014 0-.034.02v-9.594c-.015-.035 0-.035 0-.035h.014Z"/><path fill="#183B56" fill-rule="evenodd" d="M34.786 16.1h-1.85v9.564c0 .266.02.548.07.815.104.553.356 1.032.81 1.382.372.296.807.45 1.296.464.29.01.572.007.858.003.145-.001.29-.003.437-.003h.1V26.81c-.065.015-.149.015-.218.015-.133 0-.262-.003-.392-.007a13.609 13.609 0 0 0-.4-.008.614.614 0 0 1-.44-.182c-.202-.198-.271-.464-.271-.731V16.1Zm-13.22 11.903v-.004h.005l-.005.004Zm-.118.09.118-.09v.767c.588 0 1.157 0 1.745.014v-6.33c0-.325-.05-.651-.168-.977a2.466 2.466 0 0 0-1.172-1.353 3.357 3.357 0 0 0-1.072-.36l-.097-.013a8.302 8.302 0 0 0-1.06-.091c-.168 0-.336 0-.505.015-.153 0-.286 0-.435.034-.37.07-.736.153-1.072.311-.47.208-.87.48-1.172.894-.034.048-.016.068.012.1l.003.004c.057.04.111.095.168.153l.034.034c.075.079.155.154.235.229l.077.072c.104.1.208.198.311.302.04.034.08.074.119.113l.03.03c.028.03.055.058.089.084.034.034.069.05.118 0 .044-.056.09-.102.136-.146l.032-.032a.635.635 0 0 0 .055-.054l.03-.03a1.87 1.87 0 0 1 .687-.41 2.216 2.216 0 0 1 1.107-.138c.287.035.569.07.84.173.401.153.688.41.806.84.049.158.064.332.078.496l.002.012v.024c.01.159.01.317 0 .48v.256h-.05c-.82 0-1.661 0-2.497.015-.168 0-.336.015-.504.035-.435.049-.84.207-1.206.444-.455.291-.786.686-.954 1.22-.119.36-.168.735-.119 1.115.015.094.03.193.04.292.007.046.012.093.018.139.007.051.013.102.021.152.084.375.233.72.485 1.012.232.291.538.499.87.652.4.173.806.257 1.226.257.301 0 .603-.015.905-.05.217-.015.435-.049.652-.103.283-.069.533-.238.777-.404l.01-.006c.08-.058.16-.118.247-.184Zm.083-3.298h-.098l-.005.005H19.45c-.336 0-.652.069-.94.242-.251.158-.44.345-.538.637-.084.257-.064.513-.015.77a.974.974 0 0 0 .267.513c.237.223.539.307.84.341l.084.006c.056.005.113.009.169.009.084 0 .168.005.252.015.217.034.435 0 .652-.035.317-.054.604-.173.856-.395.168-.153.321-.326.37-.548.05-.222.07-.444.084-.666v-.894ZM8 19.773h1.69v.879c.05-.049.1-.098.15-.133.232-.232.498-.415.78-.563.282-.133.594-.232.91-.267.41-.049.825-.014 1.24.084.253.065.5.134.732.247.297.129.544.326.762.593.267.31.45.662.564 1.056a8.383 8.383 0 0 1 .282 1.59c.02.36.034.741.034 1.106 0 .331-.03.662-.064.993a5.554 5.554 0 0 1-.282 1.372c-.168.48-.415.909-.796 1.255-.232.217-.514.345-.83.43a4.034 4.034 0 0 1-.896.147c-.464.03-.91.03-1.36-.133a2.549 2.549 0 0 1-.86-.528 1.759 1.759 0 0 0-.103-.094 1.179 1.179 0 0 1-.163-.153V31.9H8.035C8 27.851 8 23.802 8 19.773Zm5.325 4.33c.03-.38 0-.775-.084-1.14h-.01a2.931 2.931 0 0 0-.366-.973c-.198-.316-.465-.548-.811-.661-.267-.099-.529-.084-.796-.05-.514.084-.88.366-1.127.81-.297.529-.38 1.106-.396 1.684-.01.252.005.498.02.745l.006.085c.005.054.009.107.009.162.02.218.05.445.084.662.084.38.218.74.465 1.056.247.331.598.494.993.529.218.015.43 0 .648-.035.45-.064.761-.316.979-.71.252-.445.316-.959.366-1.452.021-.153.02-.309.02-.462v-.249Zm38.35 1.516a5.772 5.772 0 0 1-.14-.785c1.959 0 3.882 0 5.854-.014v-.045l.003-.038c.014-.158.027-.305.027-.465 0-.065 0-.119-.01-.173a.735.735 0 0 0-.005-.074.733.733 0 0 1-.005-.074 5.37 5.37 0 0 0-.035-.563 13.18 13.18 0 0 0-.118-.75c-.119-.564-.322-1.097-.663-1.576a2.995 2.995 0 0 0-.746-.77c-.579-.395-1.226-.583-1.923-.617a4.52 4.52 0 0 0-.688.02l-.113.007-.114.007c-.306.015-.593.104-.885.208-.51.187-.934.493-1.295.903a2.784 2.784 0 0 0-.495.75 5.68 5.68 0 0 0-.32.875c-.14.43-.189.854-.223 1.298a6.306 6.306 0 0 0 0 .75c0 .183.014.366.03.549.009.084.014.173.018.258l.001.013c.015.326.104.652.203.958.153.528.39.993.746 1.402.307.36.683.633 1.123.84a4.15 4.15 0 0 0 1.498.326c.355.015.697 0 1.053-.035.222-.015.445-.05.647-.103.41-.104.801-.238 1.157-.46.307-.187.593-.43.836-.716.034-.034.034-.069 0-.103-.085-.084-.169-.168-.257-.247l-.129-.124-.129-.123-.563-.563-.223.178-.073.059c-.048.04-.096.08-.15.119a2.752 2.752 0 0 1-1.65.582c-.257.015-.53-.034-.781-.084a1.828 1.828 0 0 1-.782-.375c-.375-.326-.578-.75-.697-1.215l.015-.01Zm3.875-2.137h-3.98c.015-.154.015-.307.015-.46a.812.812 0 0 0 .012-.051l.013-.052.027-.106c.036-.142.073-.289.116-.423.203-.548.564-.957 1.123-1.13.563-.173 1.122-.139 1.65.153.377.207.614.528.767.908.084.222.153.46.203.701.02.082.026.163.033.243l.006.063c0 .034.005.07.01.105l.005.049ZM29.994 19.67h-.004l.005-.005-.001.005Zm-2.095 6.157c.721-2.087 1.408-4.12 2.095-6.157h1.989c0 .034 0 .05-.015.084-.13.338-.26.687-.389 1.031l-.125.336a16.89 16.89 0 0 0-.191.493c-.067.177-.133.353-.205.524-.088.236-.18.472-.271.708-.123.317-.247.636-.366.961l-.195.503c-.09.233-.181.467-.27.702a92.59 92.59 0 0 1-.357.934c-.095.247-.19.493-.28.735-.154.42-.312.834-.48 1.254l-.045.119c-.173.46-.348.923-.539 1.382l-.123.315a11.16 11.16 0 0 1-.41.969 2.006 2.006 0 0 1-1.395 1.101c-.135.027-.27.042-.404.057l-.05.005-.06.007c-.161.01-.32.007-.48.003-.08-.001-.161-.003-.242-.003h-.826v-1.605h1.103c.465-.014.875-.266 1.033-.7.174-.45.336-.915.496-1.377l.038-.11c.023-.065 0-.117-.021-.169a.387.387 0 0 1-.028-.083c-.072-.2-.144-.394-.215-.586a71.008 71.008 0 0 1-.196-.535c-.094-.259-.193-.518-.291-.777-.1-.26-.198-.519-.292-.778a70.947 70.947 0 0 1-.354-.926c-.116-.308-.232-.617-.353-.925-.117-.317-.24-.633-.361-.948v-.001c-.11-.286-.22-.57-.326-.854a77.471 77.471 0 0 0-.32-.851c-.107-.284-.214-.568-.318-.852-.008-.008-.011-.02-.016-.035a.212.212 0 0 0-.019-.049H25.7c.05 0 .07.035.07.07l.31.903c.112.308.22.617.327.925.108.31.215.618.326.926.208.583.41 1.17.618 1.773.173.484.346.968.515 1.451 0 .015.014.035.034.05Zm19.034 2.503v-5.392c0-.439-.133-.849-.435-1.21a1.4 1.4 0 0 0-.984-.508l-.06-.005a2.579 2.579 0 0 0-.489-.01c-.484.05-.9.228-1.186.637-.203.277-.302.588-.351.934-.015.113-.015.227-.015.34v5.194h-1.805v-8.57h1.72v.864c.039-.032.075-.063.11-.094.075-.066.146-.129.227-.183A3.26 3.26 0 0 1 45 19.74a4.042 4.042 0 0 1 1.004-.064c.385.014.766.098 1.117.261.35.163.652.39.92.672.266.311.469.671.568 1.076.084.326.119.652.119.983 0 .287.003.573.007.86.004.285.007.57.007.853 0 .524.004 1.048.008 1.572.004.522.007 1.043.007 1.563v.815h-1.824Zm-8.9-8.66h1.746v8.665h-1.745V19.67Zm.006-1.53h1.745V16.1H38.04v2.04Z" clip-rule="evenodd"/></svg>