<svg xmlns="http://www.w3.org/2000/svg" fill="none" viewBox="0 0 72 48"><path fill="#fff" stroke="#E3E3E8" d="M4 .5h64A3.5 3.5 0 0 1 71.5 4v40a3.5 3.5 0 0 1-3.5 3.5H4A3.5 3.5 0 0 1 .5 44V4A3.5 3.5 0 0 1 4 .5Z"/><path fill="#EA4335" d="M36.017 23.344 23.394 36.541c.41 1.393 1.72 2.459 3.278 2.459q.984 0 1.722-.492l14.262-8.115z"/><path fill="#FBBC04" d="m48.803 21.05-6.147-3.526-6.885 6.066 6.967 6.803 6.147-3.442c1.066-.574 1.803-1.721 1.803-2.951-.081-1.23-.82-2.377-1.885-2.95"/><path fill="#4285F4" d="M23.394 11.459c-.082.246-.082.574-.082.902v23.36c0 .328 0 .574.081.902l13.115-12.869z"/><path fill="#34A853" d="m36.099 24 6.557-6.475-14.18-8.033C27.984 9.164 27.328 9 26.672 9c-1.557 0-2.95 1.066-3.278 2.459z"/></svg>