<svg xmlns="http://www.w3.org/2000/svg" fill="none" viewBox="0 0 72 48"><path fill="#fff" stroke="#E3E3E8" d="M4 .5h64A3.5 3.5 0 0 1 71.5 4v40a3.5 3.5 0 0 1-3.5 3.5H4A3.5 3.5 0 0 1 .5 44V4A3.5 3.5 0 0 1 4 .5Z"/><path fill="#000" fill-rule="evenodd" d="M43.805 32.25h10.371v-4.654h-5.254V16.721h-5.117zM12 16.813v15.505l4.622.007v-4.732h1.04c1.843 0 3.945-.386 4.898-1.31.953-.925 1.347-2.31 1.347-4.078a6.8 6.8 0 0 0-.52-2.773 3.73 3.73 0 0 0-1.497-1.752 7.3 7.3 0 0 0-2.155-.77c-.601-.107-1.682-.103-2.9-.099l-.74.002zm4.8 7.942a2 2 0 0 1-.214-.017l-.005-4.771v-.26c.918 0 1.75.124 2.097.487.496.527.495 1.076.494 1.736v.096c0 .846-.01 1.76-.347 2.17-.218.265-.596.612-2.024.56m43.165-2.678h-4.901v10.195h4.901zm-4.97-5.288H60v4.216h-5.005z" clip-rule="evenodd"/><path fill="#30469D" fill-rule="evenodd" d="M36.927 31.182c.66-.233 1.312-.724 1.873-1.224 1.582-1.414 3.25-3.813 3.12-6.734-.136-3.075-1.818-5.047-4.06-6.275.647.14 1.18.56 1.678.957 1.439 1.142 2.53 2.91 2.578 5.396.062 3.307-1.734 5.562-3.514 7.117.559-.272.988-.775 1.404-1.263 1.179-1.383 2.264-3.352 2.264-5.816 0-3.468-2-5.465-4.333-6.772.752.238 1.443.63 2.03 1.149a7.2 7.2 0 0 1 1.969 2.694 7.06 7.06 0 0 1 .526 3.274 9.43 9.43 0 0 1-3.043 6.389 10.96 10.96 0 0 1-6.557 2.909q-.487.035-.976 0c-4.072-.332-7.028-2.889-7.336-6.81a8 8 0 0 1 0-1.226c.173-2.474 1.314-4.445 2.81-5.967 1.627-1.657 3.684-2.906 6.554-3.1.071-.307.154-.66.198-.88.944.984 2.092 2.056 3.277 3.213-1.428.717-2.818 1.472-4.215 2.22.031-.281.097-.6.116-.804-2.397.416-4.418 2.122-4.837 4.514-.52 2.92 1.477 5.15 4.333 5.166 2.886.015 5.335-2.17 5.775-4.668.346-2.018-.555-3.429-1.718-4.361 1.085.703 2.253 1.974 2.108 3.863-.236 2.96-3.075 5.412-6.045 5.435a5.4 5.4 0 0 1-2.262-.486 5.3 5.3 0 0 1-1.836-1.384c.973 1.387 2.673 2.118 4.605 1.99 1.519-.1 2.803-.83 3.747-1.721.945-.89 1.716-2.175 1.907-3.482a5.3 5.3 0 0 0 0-1.568c-.237-1.53-1.184-2.241-2.05-3.229 1.234.965 2.526 2.252 2.442 4.333-.129 3.042-3.1 5.723-6.207 5.93-2.038.137-3.293-.547-4.37-1.529 1.02 1.268 2.945 1.919 4.956 1.608 2.868-.444 5.425-2.79 5.737-5.701.28-2.629-1.077-3.849-2.373-5.137 1.387 1.02 2.56 2.16 2.645 4.257.074 1.821-.83 3.604-1.99 4.744-1.854 1.823-5.466 3.02-8.274 1.339 2.392 1.79 6.106.764 8.078-.994 1.432-1.275 2.477-2.974 2.304-5.51-.14-2.04-1.32-3.083-2.654-4.17 1.373.69 2.697 2.07 2.888 4.055.255 2.6-.967 4.52-2.454 5.812-1.798 1.555-4.333 2.48-7.181 1.76 4.718 1.441 9.129-1.993 9.756-5.968.45-2.856-1.04-4.54-2.458-5.74-.145-.122-.228-.21-.428-.382 2.026 1.033 3.71 3.317 3.044 6.542-.775 3.756-4.612 6.797-9.562 6.007.72.282 1.56.22 2.284.183 2.253-.124 4.291-1.226 5.383-2.414 1.325-1.444 2.373-3.264 2.17-5.886-.183-2.38-1.535-3.51-3.189-4.758a4.7 4.7 0 0 1 1.798 1.257 5.85 5.85 0 0 1 1.622 3.593c.2 2.703-1.066 4.712-2.458 6.117-1.483 1.5-3.494 2.464-6.049 2.486 4.008.119 6.67-2.293 7.96-4.974.74-1.53.956-3.7.348-5.395-.557-1.56-1.832-2.63-3.085-3.499 2.188 1.147 4.03 3.3 3.63 6.636a7.9 7.9 0 0 1-1.14 3.25c-1.194 1.965-3.147 3.346-5.338 4.097 1.622-.34 3.161-1.296 4.293-2.526 1.386-1.5 2.45-3.399 2.381-6.045-.078-2.847-1.873-4.489-3.707-5.777q.036.005.07.019c2.001.961 3.516 2.63 3.831 5.223.503 4.093-2.246 7.082-4.794 8.64" clip-rule="evenodd"/></svg>