<svg xmlns="http://www.w3.org/2000/svg" fill="none" viewBox="0 0 72 48"><path fill="#fff" stroke="#E3E3E8" d="M4 .5h64A3.5 3.5 0 0 1 71.5 4v40a3.5 3.5 0 0 1-3.5 3.5H4A3.5 3.5 0 0 1 .5 44V4A3.5 3.5 0 0 1 4 .5Z"/><path fill="#10298E" fill-rule="evenodd" d="M40.83 24.138h2.293q1.09-.04 1.328-.174.326-.184.436-.735.07-.367.07-1.092 0-.888-.14-1.318-.198-.602-.95-.735-.15-.02-.713-.02H40.83zM37.153 31V17h6.851q1.41 0 2.15.236 1.69.542 2.27 2.222.3.881.3 2.653 0 2.13-.33 3.062-.66 1.843-2.71 2.12-.241.041-2.05.072l-.611.02H40.83V31zm-15.044-9.534h-3.421q0-.864-.198-1.158-.305-.435-1.685-.436-1.34 0-1.774.251-.433.252-.433 1.097 0 .765.384 1.006.276.171.73.201l.69.05q2.218.151 2.77.212 1.755.181 2.543.956.62.603.74 1.58.069.583.069 1.317 0 1.691-.316 2.476-.57 1.44-2.568 1.82-.835.162-2.559.162-2.872 0-4.005-.352-1.387-.431-1.83-1.748-.247-.733-.246-2.442h3.421v.291q0 .913.511 1.173.354.18.856.19h1.258q.962 0 1.228-.1.47-.19.62-.613.078-.261.078-.674 0-.925-.659-1.126-.245-.08-2.288-.221-1.64-.12-2.278-.232-1.68-.321-2.24-1.326-.49-.855-.49-2.584 0-1.316.265-2.11.265-.795.856-1.207.866-.633 2.213-.744 1.12-.1 2.489-.101 2.154 0 3.069.252 2.233.615 2.233 3.444 0 .233-.033.696m32.011-1.682 1.723 6.069h-3.395zm-2.463 8.796h4.917l.701 2.42H61l-4.156-14h-5.547l-4.105 14h3.804z" clip-rule="evenodd"/><path fill="#FFBE00" fill-rule="evenodd" d="M32.078 18.97c1.516 0 2.87.716 3.76 1.837l.792-1.741a6.86 6.86 0 0 0-4.788-1.941 6.89 6.89 0 0 0-6.393 4.33h-1.546l-.913 2.006h1.989a7 7 0 0 0 .01 1.243h-1l-.913 2.005h2.42a6.89 6.89 0 0 0 6.346 4.211 6.85 6.85 0 0 0 3.876-1.195v-2.458a4.78 4.78 0 0 1-3.64 1.694c-1.696 0-3.187-.896-4.055-2.251h5.068l.912-2.006h-6.725a5.2 5.2 0 0 1-.03-1.243h7.32l.913-2.005h-7.6c.841-1.486 2.405-2.486 4.197-2.486" clip-rule="evenodd"/></svg>