<svg xmlns="http://www.w3.org/2000/svg" fill="none" viewBox="0 0 72 48"><path fill="#fff" stroke="#E3E3E8" d="M4 .5h64A3.5 3.5 0 0 1 71.5 4v40a3.5 3.5 0 0 1-3.5 3.5H4A3.5 3.5 0 0 1 .5 44V4A3.5 3.5 0 0 1 4 .5Z"/><path fill="#6627CF" fill-rule="evenodd" d="M8 21.813c0-2.104 0-3.157.41-3.96a3.76 3.76 0 0 1 1.64-1.643c.803-.41 1.854-.41 3.957-.41h4.369c2.103 0 3.154 0 3.957.41a3.75 3.75 0 0 1 1.64 1.642c.41.804.41 1.857.41 3.961v4.374c0 2.105 0 3.157-.41 3.961a3.76 3.76 0 0 1-1.64 1.642c-.803.41-1.854.41-3.957.41h-4.369c-2.103 0-3.154 0-3.957-.41a3.76 3.76 0 0 1-1.64-1.642C8 29.344 8 28.292 8 26.187zm7.382-2.309-2.637-.024v1.746h4.37l-4.541 5.812v1.478h2.808v1.702h1.685v-1.702h2.865c.024-.068.033-.252-.12-.42a4 4 0 0 1-.638-.942c-.042-.08-.078-.17-.108-.241a.6.6 0 0 0-.064-.136c-.291-.013-1.294-.018-2.197-.022-.85-.004-1.612-.007-1.611-.017l4.546-5.848v-1.386h-2.672v-1.722h-1.686z" clip-rule="evenodd"/><path fill="#6627CF" d="m32.715 18.945-3.168-.03v2.11h5.25l-5.456 7.02v1.784h3.374v2.057h2.025V29.83h3.442c.029-.083.039-.304-.145-.508a5 5 0 0 1-.767-1.137c-.05-.098-.093-.206-.129-.292-.036-.088-.063-.154-.078-.164a121 121 0 0 0-2.639-.026c-1.02-.005-1.937-.01-1.936-.021l5.462-7.063v-1.674h-3.21v-2.08h-2.025zm14.621-.982c-.048.019-.062 1.088-.062 5.137v.316c0 4.585 0 5.027.166 5.393l.059.12.01.02c.218.42.748.798 1.34.953.329.087 1.293.097 1.664.02.477-.102.569-.247.38-.62a4 4 0 0 1-.317-1.02c-.053-.334-.12-.388-.526-.378-.193.005-.376-.01-.41-.029-.197-.126-.197-.16-.197-5.06 0-3.15-.015-4.732-.048-4.794-.049-.088-.111-.092-1.027-.088-.535 0-1.003.015-1.032.03m4.421.014c-.063.039-.073.658-.073 5.09 0 4.774.005 5.064.092 5.398.164.658.535 1.06 1.239 1.355.27.111.39.13.935.145.728.02 1.1-.034 1.47-.223.367-.179.376-.304.063-.764a9 9 0 0 1-.424-.697l-.193-.362-.352-.005c-.439-.01-.482-.03-.564-.237-.063-.14-.072-.861-.072-4.862 0-3.15-.015-4.732-.048-4.794-.049-.088-.111-.092-1.027-.092-.535 0-1.008.024-1.046.048"/><path fill="#6627CF" fill-rule="evenodd" d="M41.272 21a8 8 0 0 1-.41.097c-1.239.286-2.333 1.239-2.796 2.448-.256.668-.347 1.185-.352 1.955-.005 1.079.212 1.872.709 2.627.559.846 1.378 1.422 2.439 1.712.361.097.52.112 1.35.112.82 0 .988-.015 1.33-.107.849-.237 1.572-.629 2.155-1.185.371-.348.366-.445-.01-.735a6 6 0 0 1-.617-.586c-.231-.247-.37-.363-.443-.363-.068 0-.222.097-.371.242-.516.47-1.167.692-2.02.687-.781-.005-1.35-.208-1.711-.624-.184-.208-.415-.682-.463-.948l-.03-.18h3.004c1.654 0 3.037-.018 3.07-.043.16-.101.198-.803.083-1.567-.275-1.829-1.364-3.058-3.076-3.469-.303-.072-.554-.097-1.094-.092-.386 0-.718.01-.747.02m1.287 1.868c.352.073.786.314.988.547.188.213.38.595.43.841l.033.155h-3.93l.034-.155c.144-.653.703-1.2 1.398-1.373a2.5 2.5 0 0 1 1.046-.015m16.237-1.825c-1.712.382-2.869 1.592-3.23 3.377-.217 1.055-.096 2.283.313 3.164.56 1.219 1.577 2.008 2.965 2.293.439.092.612.102 1.302.082.583-.02.896-.053 1.166-.126.825-.217 1.548-.614 2.102-1.146.424-.411.424-.43-.034-.813a6 6 0 0 1-.631-.61c-.313-.362-.395-.367-.747-.048-.526.48-1.153.692-2.025.687-1.224-.005-1.938-.532-2.17-1.596l-.033-.126h6.108c.207-.15.13-1.737-.12-2.472a6 6 0 0 0-.285-.639c-.564-1.084-1.466-1.756-2.72-2.022-.4-.087-1.58-.087-1.961-.005m1.504 1.824c.328.073.665.242.906.46.203.188.53.783.53.967v.116h-3.914l.034-.135c.25-1.035 1.311-1.65 2.444-1.408" clip-rule="evenodd"/></svg>