<svg xmlns="http://www.w3.org/2000/svg" fill="none" viewBox="0 0 72 48"><path fill="#fff" stroke="#E3E3E8" d="M4 .5h64A3.5 3.5 0 0 1 71.5 4v40a3.5 3.5 0 0 1-3.5 3.5H4A3.5 3.5 0 0 1 .5 44V4A3.5 3.5 0 0 1 4 .5Z"/><path fill="url(#a)" fill-rule="evenodd" d="M18.613 14.75h.057v1.447h-.057a8.17 8.17 0 0 0-7.805 5.75l-1.38-.44c1.22-3.915 4.87-6.757 9.185-6.757" clip-rule="evenodd"/><path fill="url(#b)" fill-rule="evenodd" d="M18.67 16.197V14.75h-.057c4.328 0 7.99 2.861 9.196 6.798l-1.378.44a8.175 8.175 0 0 0-7.761-5.79" clip-rule="evenodd"/><path fill="url(#c)" fill-rule="evenodd" d="m23.414 30.988.85 1.172a9.57 9.57 0 0 1-5.651 1.835 9.57 9.57 0 0 1-5.577-1.78l.852-1.172a8.12 8.12 0 0 0 4.725 1.507c1.795 0 3.453-.58 4.801-1.562" clip-rule="evenodd"/><path fill="url(#d)" fill-rule="evenodd" d="m9.43 21.508 1.378.439a8.2 8.2 0 0 0-.366 2.426c0 2.753 1.36 5.19 3.446 6.67l-.85 1.172A9.62 9.62 0 0 1 9 24.71v-.674a9.6 9.6 0 0 1 .43-2.528" clip-rule="evenodd"/><path fill="url(#e)" fill-rule="evenodd" d="M28.23 24.373a9.6 9.6 0 0 1-3.966 7.788l-.85-1.171a8.1 8.1 0 0 0 2.474-2.891 8.24 8.24 0 0 0 .896-3.726c0-.831-.124-1.635-.355-2.39l1.38-.44c.276.894.422 1.845.422 2.832z" clip-rule="evenodd"/><path fill="#64717D" fill-rule="evenodd" d="M23.117 25.802c0-.501-.35-.726-1.125-.726h-1.91v1.449h1.91c.788 0 1.125-.217 1.125-.723m-1.394-3.037h-1.642v1.449h1.642c.744 0 1.08-.225 1.08-.721 0-.498-.341-.728-1.08-.728m2.397 3.128c0 .967-.77 1.517-2.13 1.517h-2.808c-.049 0-.081-.033-.081-.08v-5.37c0-.047.032-.078.081-.078h2.56c1.323 0 2.05.51 2.05 1.428 0 .546-.244.984-.948 1.193.89.186 1.252.712 1.276 1.39m-6.187-3.933v.75c0 .049-.032.08-.081.08H14.6v1.4h2.7c.048 0 .079.034.079.08v.75c0 .048-.033.08-.082.08h-2.695v2.23c0 .049-.033.08-.082.08h-.818a.076.076 0 0 1-.08-.08v-5.37c0-.047.032-.078.08-.078h4.152c.048 0 .08.032.08.078" clip-rule="evenodd"/><path fill="#1B2529" fill-rule="evenodd" d="M55.721 21.135a80 80 0 0 0 2.745 7.248l2.52-7.248h2.015L59.39 30.5q-.693 1.8-1.644 2.774-.953.977-2.55.977-.398 0-.748-.064v-1.635c.195.03.37.045.516.045q.97.002 1.58-.54.61-.54 1.072-1.585a75 75 0 0 1-2.134-4.596 131 131 0 0 1-1.902-4.74zm-7.48-.218q1.698 0 2.732.962 1.036.965 1.036 2.88v5.457h-1.772v-1.481a3.64 3.64 0 0 1-1.377 1.232 4.1 4.1 0 0 1-1.913.431q-1.461 0-2.268-.74-.807-.742-.808-1.948 0-1.2.91-2.009.91-.807 2.905-.808h2.512v-.026q0-2.29-2.142-2.29-.895 0-1.512.319a2.6 2.6 0 0 0-.992.89l-1.265-1.009a3.9 3.9 0 0 1 1.556-1.38 4.85 4.85 0 0 1 2.195-.482h.202zm-10.493-3.414q2.429 0 3.629 1.139t1.201 3.092q0 1.946-1.201 3.089-1.2 1.144-3.63 1.144h-3.473v4.25h-1.941V17.503zm12.45 8.818h-2.44q-1.087 0-1.555.342a1.08 1.08 0 0 0-.465.921q-.002 1.197 1.616 1.198 1.07 0 1.782-.477.713-.475 1.062-1.294zm-12.634-7.04h-3.29v4.905h3.288q1.58.001 2.306-.613.724-.61.723-1.84 0-1.225-.723-1.838-.726-.612-2.306-.613z" clip-rule="evenodd"/><defs><linearGradient id="a" x1="18.67" x2="11.264" y1="16.623" y2="21.988" gradientUnits="userSpaceOnUse"><stop stop-color="#24D365"/><stop offset="1" stop-color="#139DBD"/></linearGradient><linearGradient id="b" x1="18.613" x2="26.04" y1="16.575" y2="21.971" gradientUnits="userSpaceOnUse"><stop stop-color="#23D068"/><stop offset=".52" stop-color="#EACD36"/><stop offset="1" stop-color="#FF6C5C"/></linearGradient><linearGradient id="c" x1="13.46" x2="23.826" y1="31.647" y2="31.647" gradientUnits="userSpaceOnUse"><stop stop-color="#266FF3"/><stop offset="1" stop-color="#C439D6"/></linearGradient><linearGradient id="d" x1="11.857" x2="8.742" y1="31.677" y2="22.597" gradientUnits="userSpaceOnUse"><stop stop-color="#266FF3"/><stop offset="1" stop-color="#149FBA"/></linearGradient><linearGradient id="e" x1="26.107" x2="22.986" y1="21.773" y2="30.815" gradientUnits="userSpaceOnUse"><stop stop-color="#FF6C5C"/><stop offset="1" stop-color="#C439D6"/></linearGradient></defs></svg>