<svg xmlns="http://www.w3.org/2000/svg" fill="none" viewBox="0 0 72 48"><path fill="#fff" d="M0 4a4 4 0 0 1 4-4h64a4 4 0 0 1 4 4v40a4 4 0 0 1-4 4H4a4 4 0 0 1-4-4V4Z"/><path stroke="#A1B2BA" stroke-opacity=".4" d="M.5 4A3.5 3.5 0 0 1 4 .5h64A3.5 3.5 0 0 1 71.5 4v40a3.5 3.5 0 0 1-3.5 3.5H4A3.5 3.5 0 0 1 .5 44V4Z"/><path fill="#7887E6" d="M60.511 19.169a1.49 1.49 0 1 0 0-2.979 1.49 1.49 0 0 0 0 2.979Z"/><path fill="#FF5073" d="M60.511 23.83a1.49 1.49 0 1 0 0-2.978 1.49 1.49 0 0 0 0 2.978Z"/><path fill="#2D2341" fill-rule="evenodd" d="M13.791 20.052h-1.445v3.607H10v-9.872h3.791c2.261 0 3.334 1.316 3.334 3.061 0 2.017-1.431 3.204-3.334 3.204Zm-.352-4.549h-1.093v2.832h1.188c.821 0 1.361-.543 1.313-1.521-.037-.74-.667-1.311-1.408-1.311Zm10.16 8.155h-2.292v-.324c-.456.287-1.054.495-1.605.495-1.395 0-2.456-1.052-2.456-2.304 0-1.282.907-2.67 4.063-2.446v-.487c0-.557-.473-.744-1.002-.744-.744 0-1.616.33-2.031.516l-.63-1.302c.686-.43 1.803-.873 3.219-.873 1.689 0 2.733.744 2.733 2.39v5.08Zm-4.066-2.174c0 .529.387.858.96.858.358 0 .687-.128.9-.286v-1.531c-1.386-.23-1.86.358-1.86.959Zm26.84-5.123v-.3c0-1.731.973-2.861 2.82-2.861.415 0 .772.058 1.087.143v1.63a2.558 2.558 0 0 0-.672-.1c-.702 0-.96.458-.96 1.102v.386h1.574v1.56H48.65v5.737h-2.275v-5.737h-1.217v-1.56h1.217Zm-7.823.702c.686-.429 1.803-.873 3.219-.873 1.688 0 2.733.744 2.732 2.389v5.08h-2.29v-.324c-.457.287-1.055.495-1.605.495-1.396 0-2.457-1.051-2.457-2.304 0-1.282.908-2.67 4.063-2.446v-.487c0-.557-.472-.744-1.001-.744-.744 0-1.617.33-2.032.516l-.63-1.302Zm2.76 5.28c.359 0 .687-.13.902-.287h-.001v-1.531c-1.386-.23-1.86.358-1.86.959 0 .529.387.858.96.858Zm-9.572-5.98-3.697 9.343h-2.179l.963-2.39-3.086-6.954h2.343l1.807 4.36 1.575-4.36h2.274Zm25.796 3.535v.572H52.79c.036.375.132.68.276.923a1.652 1.652 0 0 0 .123.175l.01.012a1.26 1.26 0 0 0 .11.121l.004.003c.076.073.161.14.256.197a1.648 1.648 0 0 0 .331.152 9.357 9.357 0 0 0 .06.019h.001l.115.03.02.003.02.005c.038.008.076.014.115.02l.005.001.029.004c.048.007.097.012.147.015.012 0 .023 0 .036.002.052.003.105.005.16.005.62 0 1.314-.175 1.999-.563l.638 1.418c-1.01.7-2.32.82-2.982.82-2.375 0-3.863-1.475-3.863-3.778 0-2.247 1.575-3.864 3.606-3.864 2.032 0 3.528 1.569 3.528 3.708Zm-2.312-.632c-.086-.972-.586-1.473-1.216-1.473s-1.13.5-1.216 1.473h2.432ZM34.18 22.17c.673 0 1.073-.2 1.073-.6 0-.428-.546-.615-1.203-.84-.99-.337-2.23-.76-2.23-2.224 0-1.545 1.373-2.318 3.076-2.318.93 0 1.846.287 2.447.587l-.644 1.502c-.458-.2-1.087-.414-1.688-.414-.573 0-.916.214-.916.557 0 .378.51.55 1.134.758.98.328 2.242.75 2.242 2.218 0 1.575-1.43 2.433-3.09 2.433-.93 0-1.932-.214-2.79-.672l.73-1.473c.514.258 1.173.486 1.86.486Zm8.2 6.377v-.962h-.413v-.27h1.141l.043.27h-.39v.962h-.381Zm2.084 0-.047-.892-.032.12a44.18 44.18 0 0 1-.209.772h-.334l-.24-.892-.047.892h-.34c.036-.41.07-.822.101-1.23h.479l.218.872.002-.01c.07-.288.138-.573.21-.862h.48l.097 1.23h-.338Zm-34.453-.87v5.492h1.305v-2.006h.804c1.059 0 1.854-.66 1.854-1.782 0-.971-.597-1.703-1.854-1.703h-2.11Zm2.699 1.751c0 .502-.295.78-.732.78h-.66v-1.575h.66c.47 0 .732.326.732.795Zm3.756 3.336.072.405v.001H17.7v-2.825c0-.916-.58-1.33-1.52-1.33a3.41 3.41 0 0 0-1.791.486l.35.725c.23-.104.716-.287 1.13-.287.294 0 .556.103.556.413v.271c-1.694-.032-2.26.549-2.26 1.424 0 .812.638 1.218 1.266 1.218.51 0 .811-.254 1.035-.501Zm-.326-1.362c.067 0 .123.007.183.013.033.004.067.008.104.01v.852a.875.875 0 0 1-.502.16c-.318 0-.533-.184-.533-.478 0-.334.239-.557.748-.557Zm2.793 3.494.67-1.727h-.383l-.44-1.394h-.001c-.28-.888-.56-1.776-.848-2.665h1.29l.763 3.008.86-3.008h1.265c-.367 1.06-.729 2.121-1.09 3.18-.297.87-.594 1.74-.892 2.607h-1.194v-.001Zm5.476-7.218v5.491h3.398v-.947h-2.093v-4.544h-1.305Zm6.128 5.491-.072-.405c-.223.247-.525.5-1.034.5-.629 0-1.266-.405-1.266-1.217 0-.875.565-1.456 2.26-1.424v-.27c0-.311-.262-.414-.557-.414-.413 0-.9.183-1.13.287l-.35-.724a3.41 3.41 0 0 1 1.791-.486c.94 0 1.52.413 1.52 1.33v2.824h-1.162Zm-.111-1.743a2.766 2.766 0 0 1-.104-.01c-.06-.007-.116-.014-.182-.014-.51 0-.748.223-.748.557 0 .294.215.477.533.477a.875.875 0 0 0 .501-.16v-.85Zm2.324.637c0 1.059.756 1.106 1.138 1.106v.002h.907v-.852h-.35c-.278 0-.43-.128-.43-.541v-1.799h.78v-.868h-.78v-1.21l-1.265.438v.771h-.62v.868h.62v2.085Zm6.088.803c-.255.192-.916.399-1.569.399-1.321 0-2.148-.82-2.148-2.102 0-1.249.875-2.148 2.005-2.148.868 0 1.727.469 1.727 1.901v.478H36.45c.064.669.47.94 1.01.94.407 0 .868-.167 1.02-.263l.358.796Zm-1.154-2.14c0-.55-.239-.82-.573-.82-.35 0-.612.279-.66.82h1.233Zm1.687-1.616v4.06h1.273v-2.627c.223-.223.581-.358.916-.358.079 0 .245 0 .318.015v-1.185c-.549 0-1.035.334-1.297.835v-.74h-1.21Z" clip-rule="evenodd"/></svg>