<svg xmlns="http://www.w3.org/2000/svg" fill="none" viewBox="0 0 72 48"><path fill="#fff" d="M0 4a4 4 0 0 1 4-4h64a4 4 0 0 1 4 4v40a4 4 0 0 1-4 4H4a4 4 0 0 1-4-4V4Z"/><path stroke="#A1B2BA" stroke-opacity=".4" d="M.5 4A3.5 3.5 0 0 1 4 .5h64A3.5 3.5 0 0 1 71.5 4v40a3.5 3.5 0 0 1-3.5 3.5H4A3.5 3.5 0 0 1 .5 44V4Z"/><path fill="#75C8D1" d="M55.01 18v10.974H66V18H55.01Zm8.244 8.232H57.76v-5.49h5.493v5.49Z"/><path fill="#F5A83B" d="M57.757 26.232v-5.49h5.497L66 18H55.006v10.974l2.746-2.742h.005Z"/><path fill="#231815" d="M12.661 19.19c.359-.005.713.009 1.072.046.18 0 .86 0 1.113-.271a.447.447 0 0 0 .101-.175.48.48 0 0 0-.18-.542 1.104 1.104 0 0 0-.777-.225H7.326S6.5 18 6.16 18.436a.507.507 0 0 0-.129.198.51.51 0 0 0-.032.234.528.528 0 0 0 .248.386c.18.092.382.129.58.106.428-.11.87-.166 1.316-.161l1.27-.023h.105l-1.555 7.052s-.303 1.198-.538 1.814c-.285.767.74.891.74.891s1.385.24 1.606-.74l1.873-9.008h1.016v.005Zm6.077 2.31-.226.078a3.928 3.928 0 0 0-1.48-.349 4.018 4.018 0 0 0-2.485.699 6.859 6.859 0 0 0-2.59 4.727 2.2 2.2 0 0 0 .566 1.708 2.228 2.228 0 0 0 1.652.726c1.094.037 1.853-.79 2.465-1.557a6.64 6.64 0 0 0-.142.85c-.042.372.372.657.86.661.487 0 .947-.234.961-.583.078-.845.212-1.681.396-2.508l.299-1.36c.28-1.282.465-1.984.58-2.444a.647.647 0 0 0-.548-.675.605.605 0 0 0-.313.027h.005Zm-1.527 2.803c-.295 1.392-.562 2.19-.953 2.7-.501.68-1.025.887-1.435.873-.7-.023-.943-.716-.91-1.667.04-1.148.708-4.125 2.838-4.07.303.023.607.096.887.216l-.427 1.948ZM42.599 21.5l-.225.074a3.93 3.93 0 0 0-1.482-.35 4.005 4.005 0 0 0-2.48.7 6.86 6.86 0 0 0-2.59 4.726 2.201 2.201 0 0 0 .567 1.709 2.227 2.227 0 0 0 1.651.726c1.113.037 1.854-.79 2.47-1.553-.064.28-.114.56-.142.845-.037.354.372.657.865.662.492 0 .947-.235.961-.584.078-.845.212-1.68.396-2.508l.299-1.36c.28-1.277.464-1.984.575-2.443a.662.662 0 0 0-.055-.313.697.697 0 0 0-.198-.248.635.635 0 0 0-.295-.12.714.714 0 0 0-.312.033l-.005.005Zm-1.527 2.803c-.29 1.396-.557 2.195-.953 2.7-.5.685-1.025.887-1.435.878-.704-.027-.943-.74-.91-1.672.04-1.148.703-4.12 2.838-4.07.303.023.607.096.887.216l-.427 1.948ZM25.403 21.1c-1.113-.04-1.71.442-2.295 1.264a2.22 2.22 0 0 0 .142-.597c.042-.35-.542-.625-1.035-.63-.492 0-.947.24-.961.584a19.235 19.235 0 0 1-.4 2.508l-.295 1.36c-.06.257-.11.482-.151.698l-.792 3.592s-.266 1.043-.464 1.58c-.244.671.644.772.644.772s1.205.212 1.394-.661l.56-2.729c.268.065.54.101.81.11a3.976 3.976 0 0 0 2.48-.698 6.82 6.82 0 0 0 2.595-4.727 2.204 2.204 0 0 0-.106-.914 2.228 2.228 0 0 0-1.22-1.332 2.191 2.191 0 0 0-.906-.184v.005Zm.263 2.877c-.037 1.148-.704 4.125-2.834 4.07a2.93 2.93 0 0 1-.865-.203l.28-1.36.13-.578c.285-1.392.552-2.196.947-2.701.502-.68 1.026-.887 1.435-.873.7 0 .943.698.907 1.65v-.005Zm7.935-5.959-2.69.065c-.824 0-1.077.556-1.082.74 0 0-1.076 6.504-1.31 7.441 0 0-.268 1.208-.475 1.852-.257.78.773.863.773.863s1.39.193 1.573-.818l.58-3.413c2.461.087 3.528-.523 3.528-.523a4.112 4.112 0 0 0 1.748-1.48c.428-.652.663-1.41.672-2.186.156-2.752-3.317-2.54-3.317-2.54Zm-.285 5.223a5.045 5.045 0 0 1-2.134.313l.74-4.474s.64-.042 1.008 0c.368.04 1.656.023 1.674 1.378.019 1.36-.529 2.411-1.288 2.784Zm17.251-1.906a1.24 1.24 0 0 0-1.325.804l-1.987 5.003-.645-5.04c-.138-.91-1.398-.776-1.398-.776s-.925.046-.718.74c.17.574.373 1.663.373 1.663.446 2.439.612 4.414.612 4.414 0 .18.06.616.888.818 0 0-.598 2.122-2.512 2.219 0 0-.175 0-.24.275-.064.276-.137 1.236.856 1.245a1.43 1.43 0 0 0 .63-.165 3.92 3.92 0 0 0 1.114-.882 12.368 12.368 0 0 0 2.047-3.29l2.788-6.288s.404-.648-.483-.74Z"/></svg>