<svg xmlns="http://www.w3.org/2000/svg" fill="none" viewBox="0 0 72 48"><path fill="#fff" d="M0 4a4 4 0 0 1 4-4h64a4 4 0 0 1 4 4v40a4 4 0 0 1-4 4H4a4 4 0 0 1-4-4V4Z"/><path stroke="#A1B2BA" stroke-opacity=".4" d="M.5 4A3.5 3.5 0 0 1 4 .5h64A3.5 3.5 0 0 1 71.5 4v40a3.5 3.5 0 0 1-3.5 3.5H4A3.5 3.5 0 0 1 .5 44V4Z"/><path fill="#659AD2" d="M31.305 20.794s.146-5.827 1.623-7.522c2.498-2.865 5.228-3.02 6.31-3.08.11-.007.202-.012.276-.019.08-.008.15-.01.222-.013a37.569 37.569 0 0 0-3.21-.16h-1.082c-9.15.1-12.663 2.584-13.335 10.794h9.195Zm-.897 9.989c-1.032 1.226-2.518 1.144-2.54 1.142v4.982c-3.676-1.41-5.333-4.347-5.765-9.765A43.913 43.913 0 0 1 22 25.44l9.305-.004-.006.527c-.011.908-.033 2.674-.03 2.732.007.26-.062 1.14-.86 2.088Zm12.274-20.131c4.675 1.183 6.7 4.137 7.184 10.207.15 1.885.133 3.14.133 3.14s.018 1.257-.133 3.142C49.208 35.403 45.7 37.9 36.526 38h-1.082c-1.591-.017-3.007-.109-4.272-.287h.016c.04 0 .077-.001.117-.004 1.66-.09 3.97-1.306 5.346-4.133.6-1.236.762-3.444.762-3.444v-4.695h5.27v-4.643h-5.269s-.003-.006-.004-.014l-.002-.006-.003-.013-.006-.02v-.005a.916.916 0 0 1-.025-.135.082.082 0 0 1-.004-.028v-.006l-.01-.068a.4.4 0 0 1 0-.017l-.002-.023-.001-.016a1.136 1.136 0 0 1-.003-.067v-.045l-.001-.032a.82.82 0 0 1 0-.066l.001-.026.001-.02a1.454 1.454 0 0 1 .011-.155c.004-.045.01-.09.017-.139l.002-.014a3.298 3.298 0 0 1 .034-.185v-.002c.09-.406.28-.905.663-1.471 1.028-1.519 3.947-1.447 4.507-1.42l.086.006h.007v-6.154Z"/></svg>