<svg xmlns="http://www.w3.org/2000/svg" fill="none" viewBox="0 0 72 48"><path fill="#fff" stroke="#E3E3E8" d="M4 .5h64A3.5 3.5 0 0 1 71.5 4v40a3.5 3.5 0 0 1-3.5 3.5H4A3.5 3.5 0 0 1 .5 44V4A3.5 3.5 0 0 1 4 .5Z"/><path fill="#1A1919" fill-rule="evenodd" d="M30.93 20.717h2.275l.365-1.876h-2.274zm-.235 1.206h2.274l-1.445 7.405c-.105.038-.43.17-.88.17-.607 0-1.163-.241-1.163-1.095q-.001-.24.059-.551c.451-2.31 1.155-5.93 1.155-5.93m22.58-.17c-1.514 0-2.115.903-2.398 1.453h-.027l.088-1.281H48.69c-.015.281-.112 1.17-.257 1.935l-.617 3.203c-.075.393-.211.975-.211 1.312 0 .718.358 1.123 1.156 1.123.448 0 .77-.125.888-.17l.752-3.856c.208-1.065.964-1.762 1.864-1.762.726 0 1.072.539 1.072.98 0 .383-.094.808-.167 1.184l-.323 1.651c-.039.198-.121.58-.121.878 0 .73.404 1.095 1.172 1.095.42 0 .685-.107.874-.17l.674-3.457c.146-.781.2-1.193.2-1.69 0-1.432-.822-2.427-2.372-2.427m-10.101 1.791c-1.271 0-1.975 1.323-1.975 2.503 0 .995.441 1.66 1.444 1.66 1.134 0 2.021-.982 2.021-2.658 0-.768-.4-1.505-1.49-1.505m-.67 5.954c-2.435 0-3.6-1.487-3.6-3.382 0-2.6 1.753-4.362 4.463-4.362 2.351 0 3.6 1.45 3.6 3.31 0 2.79-1.873 4.434-4.463 4.434m-8.516-1.783a3.4 3.4 0 0 0-.084.683c0 .849.557 1.1 1.148 1.1.472 0 .764-.132.871-.17l1.093-5.613h1.768l.35-1.792h-1.768l.086-.441c.16-.828.542-1.192 1.204-1.192.442 0 .8.08.923.113l.333-1.704c-.142-.036-.795-.199-1.762-.199-1.54 0-2.55.953-2.849 2.488l-.183.935h-1.15l-.35 1.792h1.152zm-5.234-5.961c-1.142 0-1.77.807-2.015 1.45h-.026l.088-1.281h-2.248c-.02.444-.111 1.195-.34 2.376-.233 1.197-.459 2.39-.692 3.553-.04.198-.058.393-.058.557 0 .609.295 1.088 1.168 1.088.432 0 .732-.114.876-.169l.67-3.433c.24-1.313.678-2.182 1.948-2.182.577 0 1.126.126 1.24.16l.386-1.975c-.084-.03-.417-.144-.997-.144m32.982 3.17c.122-.678-.266-1.38-1.143-1.38-1.07 0-1.54.745-1.75 1.38zm1.015 2.756c0 1.03-.98 1.82-2.714 1.82-2.397 0-3.57-1.52-3.57-3.382 0-1.847 1.205-4.362 4.145-4.362 1.938 0 3.388.98 3.388 3.225 0 .552-.12 1.153-.173 1.393h-5.152c-.009.539.437 1.472 2.228 1.472.798 0 1.702-.287 1.848-.36zm-42.1-2.756c.121-.678-.267-1.38-1.143-1.38-1.071 0-1.541.745-1.751 1.38zm1.014 2.756c0 1.03-.98 1.82-2.713 1.82-2.398 0-3.57-1.52-3.57-3.382 0-1.847 1.205-4.362 4.145-4.362 1.938 0 3.387.98 3.387 3.225 0 .552-.12 1.153-.172 1.393h-5.153c-.008.539.437 1.472 2.228 1.472.799 0 1.702-.287 1.848-.36zM8 19.403h2.288v7.363c0 1.107.54 1.673 1.41 1.673.088 0 .14-.012.158-.016-.381.587-.875 1.068-2.009 1.068-1.199 0-1.847-.848-1.847-2.12z" clip-rule="evenodd"/><path fill="#00A3DA" fill-rule="evenodd" d="M11.078 25.762a1 1 0 0 0-.153.532v.484c0 .747.396 1.014.828 1.014.442 0 .678-.305.895-.652.364-.58 4.807-7.737 4.807-7.737h-2.378z" clip-rule="evenodd"/></svg>