<svg xmlns="http://www.w3.org/2000/svg" fill="none" viewBox="0 0 72 48"><path fill="#fff" stroke="#E3E3E8" d="M4 .5h64A3.5 3.5 0 0 1 71.5 4v40a3.5 3.5 0 0 1-3.5 3.5H4A3.5 3.5 0 0 1 .5 44V4A3.5 3.5 0 0 1 4 .5Z"/><path fill="#0073FF" d="M38.216 20.925q0 .375-.28.646a.93.93 0 0 1-.667.27.94.94 0 0 1-.672-.27.86.86 0 0 1-.281-.646q-.001-.375.281-.65A.93.93 0 0 1 37.27 20q.388 0 .667.276.281.275.28.65"/><path fill="#FFC200" d="M50.825 26.096q0 .45-.32.768a1.06 1.06 0 0 1-.775.322q-.448 0-.765-.322a1.05 1.05 0 0 1-.32-.768q0-.45.32-.77.319-.319.765-.319c.298 0 .56.106.774.32q.322.318.321.769"/><path fill="#19303F" fill-rule="evenodd" d="M23.41 23.741a.8.8 0 0 1 .568-.216q.347 0 .567.217.218.217.218.583v2.492q0 .1.064.166a.23.23 0 0 0 .165.063h1.238a.23.23 0 0 0 .166-.063.23.23 0 0 0 .063-.166v-2.634q0-1.039-.473-1.585-.469-.545-1.388-.546-.464 0-.82.183-.36.183-.591.534v-2.36a.22.22 0 0 0-.065-.166.22.22 0 0 0-.163-.063h-1.24a.22.22 0 0 0-.164.063.22.22 0 0 0-.065.165v6.409q0 .1.065.165a.22.22 0 0 0 .163.064h1.24a.22.22 0 0 0 .164-.064.22.22 0 0 0 .065-.165v-2.493q-.001-.365.223-.583m-3.927 3.4q-.795 0-1.273-.417-.477-.418-.477-1.156v-1.974h-.5a.2.2 0 0 1-.157-.07.23.23 0 0 1-.067-.167v-.35q0-.155.03-.252a.5.5 0 0 1 .107-.183l1.207-1.339a1 1 0 0 1 .258-.218.6.6 0 0 1 .266-.051h.325q.095-.001.161.067a.21.21 0 0 1 .067.16v1h1.067q.095-.002.163.066a.21.21 0 0 1 .069.162v.938a.23.23 0 0 1-.069.168.22.22 0 0 1-.163.069H19.43v1.618q0 .177.094.28a.34.34 0 0 0 .26.104.6.6 0 0 0 .205-.04q.112-.038.252-.122.141-.08.238-.057.1.022.185.146l.43.642q.071.109.066.218a.27.27 0 0 1-.084.191 1.8 1.8 0 0 1-.687.416q-.425.15-.906.151m-11.495-1.81a.98.98 0 0 1-.283-.706.98.98 0 0 1 .283-.707.93.93 0 0 1 .695-.292q.41-.001.697.292a.98.98 0 0 1 .284.707.98.98 0 0 1-.284.706.94.94 0 0 1-.697.292.94.94 0 0 1-.695-.292m1.654 1.404v.083a.22.22 0 0 0 .071.163.23.23 0 0 0 .166.07h1.236q.09 0 .155-.07a.22.22 0 0 0 .067-.163v-4.394a.23.23 0 0 0-.063-.165.23.23 0 0 0-.165-.064h-1.24a.23.23 0 0 0-.163.064.23.23 0 0 0-.064.165v.086a1.6 1.6 0 0 0-.535-.338 1.8 1.8 0 0 0-.65-.113q-1.04-.001-1.748.742-.71.744-.709 1.824 0 1.08.708 1.822a2.32 2.32 0 0 0 1.749.744q.349 0 .65-.114.297-.115.535-.342m5.185-1.25q-.17.191-.504.191h.002q-.337 0-.52-.194-.18-.198-.181-.557v-2.53q0-.083-.075-.144a.26.26 0 0 0-.168-.061h-1.226q-.09 0-.162.061a.18.18 0 0 0-.07.144v2.758q0 .88.66 1.459c.442.386 1.03.579 1.751.579q1.08 0 1.723-.575.643-.573.643-1.463v-2.758a.2.2 0 0 0-.073-.144.25.25 0 0 0-.165-.061h-1.225a.25.25 0 0 0-.165.061.18.18 0 0 0-.073.144v2.53q0 .368-.172.56m13.752-.866q0 .416.284.707.286.292.695.292a.94.94 0 0 0 .697-.292.98.98 0 0 0 .283-.707.98.98 0 0 0-.283-.706.94.94 0 0 0-.697-.292.93.93 0 0 0-.695.292.98.98 0 0 0-.284.706m-1.704 0q0-1.065.783-1.817.785-.747 1.9-.748 1.117 0 1.902.749.784.75.783 1.816 0 1.066-.783 1.818-.783.75-1.902.75c-.746 0-1.376-.25-1.9-.75q-.783-.75-.784-1.818m6.95-2.429h-.883a.23.23 0 0 0-.167.065.23.23 0 0 0-.065.164v4.401q0 .098.063.16a.22.22 0 0 0 .163.065h1.237q.09 0 .161-.062a.2.2 0 0 0 .071-.143v-2.343q0-.239.142-.374a.5.5 0 0 1 .374-.138q.063 0 .128.012.068.012.199.053l.056.014.121.03h.008q.056.01.106.011.165 0 .26-.096a.5.5 0 0 0 .124-.288l.136-1.108q.032-.24-.12-.37-.154-.13-.45-.13-.273 0-.558.168a2.2 2.2 0 0 0-.554.488l-.136-.305a.43.43 0 0 0-.416-.274m9.026 1.327-1.924 2.077h1.916q.094.002.16.065a.22.22 0 0 1 .062.16v1.002a.22.22 0 0 1-.063.16.22.22 0 0 1-.16.064h-3.98a.23.23 0 0 1-.166-.069.22.22 0 0 1-.07-.163v-.825q0-.088.023-.145a.3.3 0 0 1 .081-.118l1.965-2.085h-1.758a.233.233 0 0 1-.234-.233v-.98q0-.094.07-.166a.23.23 0 0 1 .164-.07h3.788q.095 0 .163.07a.23.23 0 0 1 .069.166v.82a.4.4 0 0 1-.024.146.4.4 0 0 1-.082.124m3.793.474h-1.61a.8.8 0 0 1 .299-.46.8.8 0 0 1 .522-.18q.297 0 .517.18a.74.74 0 0 1 .272.46m.57 2.94q.578-.255.871-.68a.25.25 0 0 0 .047-.173.2.2 0 0 0-.098-.146l-.821-.537a.3.3 0 0 0-.193-.055.3.3 0 0 0-.181.094q-.195.197-.408.287a1.2 1.2 0 0 1-.462.093q-.374-.001-.638-.197a.84.84 0 0 1-.333-.533h3.026a.23.23 0 0 0 .197-.095.44.44 0 0 0 .069-.256v-.277q0-1.013-.685-1.707c-.455-.465-1.022-.697-1.778-.697q-1.134 0-1.835.726c-.464.483-.699 1.132-.699 1.865q0 1.097.746 1.82.745.722 1.908.723.688 0 1.266-.255m6.612-3.406a.8.8 0 0 0-.57.216q-.222.219-.223.583v2.493a.23.23 0 0 1-.065.165.22.22 0 0 1-.164.064h-1.24a.22.22 0 0 1-.163-.064.22.22 0 0 1-.065-.165v-4.398q0-.101.065-.166a.23.23 0 0 1 .163-.063h1.24q.101 0 .164.063a.22.22 0 0 1 .065.166v.35a1.53 1.53 0 0 1 .59-.534q.357-.183.821-.182.919 0 1.39.545.47.546.47 1.585v2.634a.23.23 0 0 1-.062.166.23.23 0 0 1-.166.063h-1.238a.23.23 0 0 1-.166-.063.23.23 0 0 1-.063-.166v-2.492q0-.365-.218-.583a.77.77 0 0 0-.565-.217m6.25.466h-1.608a.8.8 0 0 1 .299-.46.82.82 0 0 1 .522-.18q.296 0 .517.18a.74.74 0 0 1 .27.46m.571 2.94q.578-.255.87-.68a.24.24 0 0 0 .047-.173q-.009-.09-.098-.146l-.819-.537a.3.3 0 0 0-.195-.055.3.3 0 0 0-.18.094 1.3 1.3 0 0 1-.407.287 1.2 1.2 0 0 1-.462.093q-.375-.001-.638-.197a.84.84 0 0 1-.333-.533h3.026q.128 0 .195-.095a.42.42 0 0 0 .069-.256v-.277q-.001-1.013-.683-1.707c-.457-.465-1.02-.697-1.778-.697q-1.136 0-1.835.726c-.466.483-.699 1.132-.699 1.865q0 1.097.745 1.82.744.722 1.907.723.689 0 1.268-.255m3.675.218q-.797 0-1.274-.417-.477-.419-.476-1.155v-1.975h-.502a.2.2 0 0 1-.157-.069.24.24 0 0 1-.067-.167v-.35q0-.157.031-.253a.5.5 0 0 1 .106-.183l1.207-1.338a1 1 0 0 1 .258-.219.6.6 0 0 1 .268-.05h.322q.097-.002.162.066a.21.21 0 0 1 .067.162v.998h1.067q.095-.001.163.067a.21.21 0 0 1 .069.161v.94a.23.23 0 0 1-.069.166.22.22 0 0 1-.163.07h-1.067v1.617q0 .179.094.28a.34.34 0 0 0 .262.105.6.6 0 0 0 .205-.04q.11-.038.25-.122.14-.08.24-.057.098.021.183.146l.429.642c.05.072.07.145.069.218a.28.28 0 0 1-.087.19 1.75 1.75 0 0 1-.687.416q-.425.151-.904.152zm-26.202-.332v-4.398a.21.21 0 0 0-.067-.162.22.22 0 0 0-.166-.067h-1.23a.226.226 0 0 0-.233.229v4.398q0 .096.065.16.067.069.168.068h1.23a.22.22 0 0 0 .166-.067.21.21 0 0 0 .067-.162" clip-rule="evenodd"/></svg>