<svg xmlns="http://www.w3.org/2000/svg" fill="none" viewBox="0 0 72 48"><path fill="#fff" stroke="#E3E3E8" d="M4 .5h64A3.5 3.5 0 0 1 71.5 4v40a3.5 3.5 0 0 1-3.5 3.5H4A3.5 3.5 0 0 1 .5 44V4A3.5 3.5 0 0 1 4 .5Z"/><path fill="#345D9D" d="M14.453 15.5C9.785 15.5 6 19.306 6 24s3.785 8.5 8.453 8.5 8.453-3.806 8.453-8.5c-.01-4.694-3.785-8.5-8.453-8.5m.126 8.773-.873 2.986h4.697c.165 0 .272.157.233.313l-.407 1.415a.324.324 0 0 1-.311.234h-7.182l1.213-4.128-1.34.42.292-.976 1.35-.42 1.707-5.797a.32.32 0 0 1 .31-.234h1.816c.165 0 .271.156.233.312l-1.447 4.9 1.34-.42-.291.985zm13.209-6.197h-.524c-.097 0-.165.059-.184.156l-1.36 10.823c-.01.107.02.156.126.156h.524c.107 0 .165-.049.185-.156l1.368-10.823c.03-.107-.03-.156-.136-.156m2.748 3.124h-.524c-.098 0-.165.048-.185.155l-.97 7.71c-.01.107.048.156.145.156h.524c.097 0 .165-.049.185-.156l.96-7.7c.01-.107-.029-.166-.136-.166m22.963-.127c-.728 0-1.359.205-1.893.625s-.883.966-1.058 1.65a15 15 0 0 0-.33 1.863c-.077.713-.145 1.298-.145 1.864.01.693.233 1.24.65 1.66.427.409 1.01.624 1.747.624s1.349-.205 1.883-.625c.534-.41.883-.966 1.058-1.659.116-.459.233-1.073.33-1.864q.145-1.23.145-1.873 0-1.026-.64-1.64c-.437-.42-1.02-.625-1.747-.625m1.475 3.387c-.049.39-.078.644-.087.751-.097.8-.185 1.366-.262 1.708a2.18 2.18 0 0 1-.748 1.23 2.02 2.02 0 0 1-1.32.458c-.495 0-.902-.156-1.203-.458s-.447-.703-.447-1.2c0-.264.03-.596.078-.986.049-.39.078-.645.087-.752a25 25 0 0 1 .263-1.708c.116-.507.368-.917.747-1.23a2.02 2.02 0 0 1 1.32-.458c.495 0 .902.156 1.203.449.301.302.447.703.447 1.2 0 .283-.03.605-.078.996m3.901-3.259h-.514c-.097 0-.165.058-.184.155l-.98 7.71c-.01.107.048.156.145.156h.524c.097 0 .165-.049.184-.156l.961-7.7c.01-.107-.029-.166-.136-.166m6.62.459c-.36-.38-.864-.566-1.524-.566-.427 0-.815.078-1.175.244a2.4 2.4 0 0 0-.912.741q-.07.06-.068-.029l.078-.683c.01-.098-.03-.156-.126-.156h-.524c-.097 0-.165.058-.185.156l-.96 7.7c-.01.097.019.156.126.156h.524c.097 0 .165-.059.174-.156l.7-5.524c.116-.517.358-.937.717-1.24a1.94 1.94 0 0 1 1.291-.458q.699 0 1.107.44c.271.292.407.682.407 1.18 0 .147-.01.264-.02.351l-.669 5.25c0 .05 0 .079.02.108.029.03.067.049.126.049h.524c.097 0 .165-.049.174-.156l.67-5.377c.02-.215.03-.371.03-.479.028-.663-.146-1.18-.505-1.551m-34.619-3.572a.63.63 0 0 0-.864.273.66.66 0 0 0 .272.879c.31.166.699.039.864-.274a.65.65 0 0 0-.272-.878m28.378 0a.63.63 0 0 0-.864.273.66.66 0 0 0 .272.879c.31.166.708.039.873-.274a.67.67 0 0 0-.281-.878m-12.587 2.986c-.728 0-1.359.215-1.893.625-.534.42-.883.966-1.058 1.65-.145.555-.281 1.434-.33 1.863-.068.625-.145 1.298-.145 1.864.01.693.233 1.24.65 1.66.427.409 1.01.624 1.747.624s1.349-.205 1.883-.625c.534-.41.883-.966 1.058-1.659.01-.058.029-.117.038-.176a.073.073 0 0 0-.068-.087h-.65c-.039 0-.087.02-.097.078a.1.1 0 0 1-.01.029 2.18 2.18 0 0 1-.747 1.23 2.02 2.02 0 0 1-1.32.458c-.495 0-.902-.156-1.203-.458s-.447-.703-.447-1.2c0-.264.03-.596.078-.986.039-.332.078-.645.087-.752.097-.761.185-1.327.262-1.708.117-.507.37-.917.748-1.23a2.02 2.02 0 0 1 1.32-.458c.495 0 .902.146 1.203.449q.449.454.447 1.2v.01c0 .068.058.127.126.127h.611a.097.097 0 0 0 .097-.098v-.185q0-1.025-.64-1.64c-.437-.4-1.01-.605-1.747-.605m-5.27.625c-.428-.41-1.01-.625-1.738-.625-.727 0-1.358.205-1.892.625s-.883.966-1.058 1.65c-.146.555-.214 1.053-.33 1.863-.107.8-.146 1.298-.146 1.864.01.693.233 1.24.65 1.66.428.409 1.01.624 1.748.624.737 0 1.349-.205 1.882-.625.534-.41.884-.966 1.058-1.659.01-.058.03-.117.04-.176.009-.048-.02-.087-.069-.087h-.65c-.039 0-.087.02-.097.078 0 .01-.01.029-.01.029a2.18 2.18 0 0 1-.747 1.23 2.02 2.02 0 0 1-1.32.458c-.495 0-.903-.156-1.203-.458s-.447-.703-.447-1.2c0-.235.02-.528.058-.86l4.717-1.473c.097-.03.136-.078.155-.195.03-.244.049-.664.049-1.093-.01-.615-.223-1.22-.65-1.63m-.185 2.215a.095.095 0 0 1-.078.098l-3.91 1.22v-.02a25 25 0 0 1 .261-1.708c.117-.507.37-.917.748-1.23a2.02 2.02 0 0 1 1.32-.458c.495 0 .902.156 1.203.449.476.498.485 1.005.456 1.65m-6.774 4.459c.097-.049.204.02.184.127l-.068.527a.22.22 0 0 1-.116.156c-.466.176-1.116.254-1.64.02-.602-.274-.757-.87-.67-1.61l.69-5.651.096-.81.233-1.796c.01-.107.078-.156.184-.156h.505c.117 0 .146.068.126.156l-.3 2.557h1.64c.097 0 .136.059.136.156l-.05.371a.25.25 0 0 1-.048.127c-.029.03-.087.039-.126.039h-1.63l-.573 4.635c-.058.498-.126.947.126 1.191.33.273.97.117 1.3-.039"/></svg>