<svg xmlns="http://www.w3.org/2000/svg" fill="none" viewBox="0 0 72 48"><path fill="#fff" d="M0 4a4 4 0 0 1 4-4h64a4 4 0 0 1 4 4v40a4 4 0 0 1-4 4H4a4 4 0 0 1-4-4V4Z"/><path stroke="#A1B2BA" stroke-opacity=".4" d="M.5 4A3.5 3.5 0 0 1 4 .5h64A3.5 3.5 0 0 1 71.5 4v40a3.5 3.5 0 0 1-3.5 3.5H4A3.5 3.5 0 0 1 .5 44V4Z"/><path fill="#09BB07" d="M31.965 27.445a.986.986 0 0 1-1.303-.397l-.065-.143-2.694-5.885a.485.485 0 0 1-.048-.207.494.494 0 0 1 .791-.394l3.18 2.255a1.46 1.46 0 0 0 1.312.15l14.95-6.625C45.409 13.054 40.995 11 35.998 11 27.824 11 21.2 16.497 21.2 23.278c0 3.698 1.992 7.03 5.113 9.28a.98.98 0 0 1 .362 1.114 603.64 603.64 0 0 1-.669 2.476c-.03.115-.078.237-.078.36 0 .271.221.492.494.492.106 0 .195-.04.287-.092l3.24-1.86a1.56 1.56 0 0 1 .785-.228c.15 0 .296.024.436.065a17.63 17.63 0 0 0 4.83.672c8.173 0 14.8-5.498 14.8-12.279 0-2.054-.61-3.986-1.685-5.687l-17.04 9.793-.11.06Z"/></svg>