<svg xmlns="http://www.w3.org/2000/svg" fill="none" viewBox="0 0 72 48"><path fill="#fff" stroke="#E3E3E8" d="M4 .5h64A3.5 3.5 0 0 1 71.5 4v40a3.5 3.5 0 0 1-3.5 3.5H4A3.5 3.5 0 0 1 .5 44V4A3.5 3.5 0 0 1 4 .5Z"/><path fill="#333" fill-rule="evenodd" d="m36.827 27.815.008-6.84c0-.3-.18-.48-.478-.48l-6.745-.01a.48.48 0 0 0-.357.131.5.5 0 0 0-.121.35l-.01 6.84c0 .315.166.481.479.481l6.745.01a.48.48 0 0 0 .349-.123.48.48 0 0 0 .13-.36m.09-8.762c.936 0 1.408.478 1.408 1.418l-.008 7.852c0 .954-.475 1.418-1.41 1.415l-7.868-.01c-.95 0-1.407-.463-1.407-1.417l.009-7.852c0-.94.46-1.418 1.41-1.415zm8.644 7.391c.053-.026.094-.038.147-.065.853-.428 1.6-.936 2.264-1.522.507-.454.8-.84.852-1.135 0-.068-.08-.107-.212-.107l-6.23-.006c.016.027.027.053.04.053.132.15.253.283.344.39.69.856 1.555 1.62 2.606 2.291.053.039.12.08.186.107zm18.253-6.321c.121.08.186.28.186.588 0 .241-.041.416-.106.497-.121.16-.307.226-.572.226h-1.04l-.008 7.064c0 .321-.148.589-.413.803-.24.172-.626.294-1.16.347-.53 0-10.451.61-15.184-1.65a44 44 0 0 1-3.541 1.309c-.759.226-1.346.344-1.744.371a.74.74 0 0 1-.532-.214c-.132-.134-.2-.282-.197-.416 0-.31.08-.523.265-.63 1.691-.452 3.102-.892 4.247-1.32-.744-.535-1.529-1.245-2.352-2.157-.345-.363-.52-.642-.531-.856 0-.203.053-.363.174-.482h-.6c-.253 0-.412-.053-.477-.19-.106-.107-.145-.268-.145-.482 0-.202.053-.362.174-.481.106-.092.254-.146.452-.146l4.06.006v-1.78l-4.47-.006q-.34 0-.52-.16-.16-.142-.16-.524 0-.341.16-.52.18-.16.52-.16l4.47.006v-1.15c0-.188.068-.36.215-.524.095-.095.28-.145.573-.145.254 0 .44.053.546.148a.67.67 0 0 1 .224.523v1.15l4.683.007q.359 0 .52.16.158.121.159.523a.77.77 0 0 1-.133.47c-.121.148-.307.214-.546.214l-4.686-.006v1.78l2.86.003c.477.027.796.08.97.175.292.188.44.47.437.871-.041.416-.269.925-.694 1.525-.599.76-1.425 1.483-2.478 2.152-.107.065-.213.119-.307.172 1.596.624 3.99.904 6.32 1.014l.006-4.313a.3.3 0 0 0-.053.08.72.72 0 0 1-.625.307c-.254 0-.467-.069-.626-.214-.147-.122-.212-.295-.212-.509 0-.133.067-.28.174-.442 1-1.632 1.761-3.344 2.28-5.151.095-.24.255-.387.467-.428.239 0 .451.053.61.134.175.095.266.282.266.55a6 6 0 0 1-.094.561c-.174.669-.413 1.38-.735 2.128l-.009 7.344c2.954.063 5.495-.098 5.722-.098q.2.001.2-.199l.01-6.545-4.259-.006c-.212 0-.371-.053-.492-.16-.133-.107-.186-.294-.186-.562 0-.294.053-.496.186-.603.094-.08.253-.134.492-.134l4.258.006v-1.78c0-.39.257-.604.735-.627.478 0 .717.214.732.63v1.78h1.036c.212 0 .386.054.492.149zm-5.677 6.188c-.08-.042-.133-.122-.186-.23-.304-.63-.808-1.58-1.499-2.837a.64.64 0 0 1-.053-.616.77.77 0 0 1 .319-.294 1 1 0 0 1 .36-.065q.28.04.519.202c.28.294.664.91 1.142 1.875.266.589.41 1.07.41 1.474 0 .188-.053.306-.147.387-.133.133-.307.187-.535.187-.159 0-.265-.027-.333-.08z" clip-rule="evenodd"/><path fill="#C9191D" fill-rule="evenodd" d="M12.102 15.1h9.495c2.263 0 4.105 1.852 4.105 4.125v9.55c0 2.273-1.842 4.125-4.105 4.125h-9.495C9.842 32.9 8 31.048 8 28.775v-9.55c0-2.273 1.841-4.125 4.102-4.125m2.077 4.018c.118-.27.147-.451-.047-.674l-.236-.27c-.198-.224-.493-.283-.661-.134 0 0-.9 1.236-1.402 1.679-.499.443-1.646 1.194-1.646 1.194-.172.15-.148.452.047.675l.236.27c.197.224.372.256.66.134.29-.122.98-.493 1.739-1.168.752-.668 1.192-1.435 1.31-1.706m-.295 2.268.239.274.003.003c.197.228.165.413.044.689-.1.232-.457.826-1.024 1.42v5.77c0 .279-.21.505-.466.505h-.407c-.257 0-.466-.226-.466-.505v-4.67c-.34.22-.617.363-.774.431-.295.125-.475.092-.672-.133l-.24-.274c-.197-.229-.218-.535-.044-.69 0 0 1.178-.775 1.691-1.23s1.443-1.724 1.443-1.724c.174-.151.475-.092.673.134m9.357 1.153h-4.55s-.018.006-.027.006q-.006 0-.013-.003l-.014-.003h-.914a.305.305 0 0 1-.304-.306v-.639c0-.17.136-.306.304-.306h.915a.503.503 0 0 0 .501-.505v-.336a.503.503 0 0 0-.502-.505h-.914a.304.304 0 0 1-.304-.304v-1.093a.503.503 0 0 0-.502-.506h-.333a.503.503 0 0 0-.502.506v1.093c0 .17-.136.303-.304.303h-.956a.506.506 0 0 0-.504.506v.336c0 .279.224.505.504.505h.956c.168 0 .304.137.304.306v.639c0 .17-.136.306-.304.306h-.956a.506.506 0 0 0-.504.505v.336c0 .28.224.506.504.506h.956c.168 0 .304.136.304.306v.576c0 .17-.136.306-.304.306h-.956a.506.506 0 0 0-.504.506v.335c0 .28.224.506.504.506h.956c.168 0 .304.136.304.303v1.12a.3.3 0 0 1-.242.297c-.838.179-1.679.345-1.679.345a.533.533 0 0 0-.375.651l.089.348c.074.288.242.392.637.395.393 0 .944-.062 2.199-.386 1.23-.317 2.003-.844 2.312-1.054l.01-.007c.298-.205.445-.363.375-.651l-.089-.348a.53.53 0 0 0-.637-.395s-.366.184-.835.395a.303.303 0 0 1-.428-.276v-.437c0-.17.136-.303.304-.303h.915a.503.503 0 0 0 .501-.505v-.336a.503.503 0 0 0-.502-.506h-.914a.305.305 0 0 1-.304-.306v-.576c0-.17.136-.306.304-.306h.915s.017-.006.026-.006q.007 0 .013.003l.014.003h1.133c.17 0 .31.14.31.309v5.343c0 .28.209.506.466.506h.407c.257 0 .466-.226.466-.506v-5.343c0-.173.139-.31.31-.31h1.464a.506.506 0 0 0 .504-.505v-.336a.504.504 0 0 0-.504-.505zm-3.01-3.302c0 .318.257.577.572.577a.575.575 0 0 0 .573-.577.575.575 0 0 0-.573-.576.575.575 0 0 0-.572.576m.608-1.267.035-.002h.006c.753.042 1.245.749 1.119 1.534-.124.77-1.03 2.371-1.03 2.371a.18.18 0 0 1-.163.101.18.18 0 0 1-.162-.1s-.906-1.603-1.03-2.372c-.124-.785.366-1.492 1.119-1.534q.021-.002.042.001a.3.3 0 0 0 .064 0" clip-rule="evenodd"/></svg>