<svg xmlns="http://www.w3.org/2000/svg" fill="none" viewBox="0 0 72 48"><path fill="#fff" stroke="#E3E3E8" d="M4 .5h64A3.5 3.5 0 0 1 71.5 4v40a3.5 3.5 0 0 1-3.5 3.5H4A3.5 3.5 0 0 1 .5 44V4A3.5 3.5 0 0 1 4 .5Z"/><mask id="a" width="26" height="30" x="23" y="9" maskUnits="userSpaceOnUse" style="mask-type:luminance"><path fill="#fff" d="M23.55 9h24.9v30h-24.9z"/></mask><g mask="url(#a)"><path fill="#002991" d="M44.789 15.9c0 3.716-3.43 8.1-8.619 8.1h-4.998l-.245 1.548L29.761 33H23.55l3.736-24H37.35c3.389 0 6.054 1.889 7.036 4.513.284.763.42 1.573.402 2.387"/><path fill="#60CDFF" d="M48.369 22.8a8.596 8.596 0 0 1-8.503 7.2h-3.47l-1.446 9h-6.178l.99-6 1.166-7.452.244-1.548h4.998c5.182 0 8.618-4.384 8.618-8.1 2.55 1.316 4.037 3.975 3.58 6.9"/><path fill="#008CFF" d="M44.788 15.9c-1.069-.56-2.366-.9-3.777-.9h-8.427l-1.412 9h4.998c5.182 0 8.618-4.384 8.618-8.1"/></g></svg>