<svg xmlns="http://www.w3.org/2000/svg" fill="none" viewBox="0 0 72 48"><path fill="#fff" d="M0 4a4 4 0 0 1 4-4h64a4 4 0 0 1 4 4v40a4 4 0 0 1-4 4H4a4 4 0 0 1-4-4V4Z"/><path stroke="#A1B2BA" stroke-opacity=".4" d="M.5 4A3.5 3.5 0 0 1 4 .5h64A3.5 3.5 0 0 1 71.5 4v40a3.5 3.5 0 0 1-3.5 3.5H4A3.5 3.5 0 0 1 .5 44V4Z"/><path fill="#F7931A" d="M18.93 25.451c-.809 3.214-4.096 5.172-7.339 4.37-3.243-.801-5.219-4.058-4.409-7.272.808-3.214 4.093-5.171 7.336-4.369 3.244.8 5.22 4.058 4.41 7.271h.001Z"/><path fill="#fff" d="M15.725 23.145c.122-.799-.493-1.228-1.332-1.513l.273-1.082-.665-.165-.264 1.054a21.782 21.782 0 0 0-.532-.124l.267-1.06-.665-.164-.272 1.081a20.692 20.692 0 0 1-.424-.099v-.004l-.916-.226-.176.703s.494.112.483.118c.268.067.318.243.31.382l-.31 1.232a.315.315 0 0 1 .068.023l-.07-.017-.435 1.725c-.032.08-.116.202-.305.155.008.01-.482-.12-.482-.12l-.33.754.865.214c.16.04.318.082.473.122l-.274 1.093.664.165.272-1.082c.182.049.358.094.53.137l-.27 1.076.664.165.274-1.091c1.134.212 1.985.127 2.343-.889.29-.817-.015-1.29-.611-1.597.433-.1.76-.383.847-.966Zm-1.517 2.11c-.205.817-1.595.374-2.046.264l.365-1.45c.45.111 1.895.332 1.68 1.185Zm.206-2.121c-.187.744-1.344.365-1.718.273l.331-1.314c.375.092 1.582.266 1.387 1.04Z"/><path fill="#4D4D4D" d="M24.746 21.63c.492 0 .915.086 1.271.259.358.172.653.405.891.7.235.294.41.637.52 1.032.113.396.17.822.17 1.275 0 .7-.13 1.36-.39 1.982a5.129 5.129 0 0 1-1.066 1.626 5.05 5.05 0 0 1-1.593 1.093 4.91 4.91 0 0 1-1.99.403c-.094 0-.256-.002-.485-.008a7.431 7.431 0 0 1-.79-.067 9.077 9.077 0 0 1-.942-.184 4.754 4.754 0 0 1-.942-.334l2.65-11.041L24.423 18l-.95 3.917c.202-.09.409-.161.613-.212.204-.05.424-.077.659-.077v.002Zm-1.993 6.5c.358 0 .695-.086 1.01-.258.318-.17.593-.403.822-.69.229-.289.41-.615.543-.98a3.33 3.33 0 0 0 .198-1.14c0-.486-.08-.865-.245-1.139-.163-.272-.466-.41-.905-.41-.144 0-.33.026-.558.074-.231.051-.437.16-.623.32l-1.01 4.16c.06.011.115.02.16.03a1.665 1.665 0 0 0 .33.032h.274l.004.002Zm7.307 1.656h-2.27l1.916-7.987h2.284l-1.93 7.987Zm1.103-8.96a1.42 1.42 0 0 1-.86-.282c-.257-.185-.384-.472-.384-.858 0-.212.044-.41.13-.6a1.58 1.58 0 0 1 .347-.486c.144-.137.309-.246.498-.326.19-.08.392-.12.605-.12.316 0 .602.094.858.281.255.188.382.474.382.859 0 .214-.044.412-.13.6a1.584 1.584 0 0 1-.345.485c-.142.137-.31.244-.498.327-.189.082-.391.12-.605.12h.002Zm2.815-1.016 2.375-.366-.583 2.355h2.545l-.46 1.852h-2.528l-.673 2.794a3.14 3.14 0 0 0-.108.652 1.2 1.2 0 0 0 .075.525c.061.149.17.261.33.342.159.08.384.122.68.122.245 0 .483-.023.714-.07.23-.045.462-.107.697-.19l.168 1.733a8.503 8.503 0 0 1-.995.29 5.727 5.727 0 0 1-1.272.121c-.704 0-1.25-.103-1.64-.31-.388-.207-.665-.49-.83-.85-.162-.359-.234-.771-.213-1.238.02-.467.093-.956.214-1.474l1.502-6.287.002-.002Zm4.237 6.787c0-.688.111-1.337.337-1.945.223-.607.547-1.14.967-1.595a4.545 4.545 0 0 1 1.525-1.078c.596-.263 1.264-.396 1.998-.396a5.01 5.01 0 0 1 2.223.47l-.781 1.763a7.207 7.207 0 0 0-.636-.22 2.793 2.793 0 0 0-.804-.099c-.757 0-1.355.26-1.801.775-.445.516-.669 1.21-.669 2.081 0 .516.112.934.34 1.253.224.318.639.478 1.24.478a4.25 4.25 0 0 0 1.595-.317l.17 1.807c-.288.111-.604.21-.95.297a5.325 5.325 0 0 1-1.242.127c-.634 0-1.17-.092-1.608-.272a3.063 3.063 0 0 1-1.089-.737 2.75 2.75 0 0 1-.62-1.087 4.45 4.45 0 0 1-.193-1.305h-.002Zm10.076 3.401c-.541 0-1.012-.082-1.41-.244a2.603 2.603 0 0 1-.987-.682 2.938 2.938 0 0 1-.59-1.04 4.144 4.144 0 0 1-.2-1.328c0-.608.099-1.217.298-1.823a5.149 5.149 0 0 1 .881-1.639 4.715 4.715 0 0 1 1.425-1.194c.56-.307 1.206-.463 1.93-.463.532 0 1 .082 1.404.244.404.161.735.39.996.682.259.295.456.64.588 1.04.135.4.199.843.199 1.328 0 .606-.097 1.215-.29 1.823a5.229 5.229 0 0 1-.859 1.639c-.378.485-.85.883-1.417 1.19-.566.31-1.224.463-1.97.463l.002.004Zm1.134-6.499c-.337 0-.634.098-.888.29a2.51 2.51 0 0 0-.643.728 3.584 3.584 0 0 0-.392.964c-.087.349-.129.68-.129.994 0 .506.084.902.244 1.185.165.283.46.426.89.426.337 0 .634-.096.89-.29a2.49 2.49 0 0 0 .642-.729 3.56 3.56 0 0 0 .392-.963c.085-.349.129-.68.129-.994 0-.506-.082-.902-.246-1.185-.163-.283-.46-.426-.89-.426Zm5.874 6.287h-2.271l1.915-7.987h2.286l-1.93 7.987Zm1.1-8.96a1.41 1.41 0 0 1-.856-.282c-.256-.185-.385-.472-.385-.858 0-.212.044-.41.131-.6a1.608 1.608 0 0 1 .842-.812c.19-.08.39-.12.604-.12.318 0 .603.094.859.281.255.188.384.474.384.859 0 .214-.045.412-.132.6a1.568 1.568 0 0 1-.345.485 1.692 1.692 0 0 1-.497.327 1.5 1.5 0 0 1-.608.12h.004Zm2.465 1.336c.172-.05.365-.11.573-.174.21-.066.445-.126.706-.18.26-.056.55-.103.872-.137.322-.035.689-.054 1.096-.054 1.196 0 2.02.345 2.477 1.033.454.688.533 1.631.238 2.824l-1.042 4.312H61.5l1.01-4.222c.063-.265.11-.52.146-.767a1.822 1.822 0 0 0-.008-.653.786.786 0 0 0-.282-.455c-.15-.117-.376-.175-.683-.175-.306 0-.596.032-.904.092l-1.488 6.18h-2.284l1.855-7.622.002-.002Z"/></svg>