<svg xmlns="http://www.w3.org/2000/svg" fill="none" viewBox="0 0 72 48"><path fill="#fff" stroke="#E3E3E8" d="M4 .5h64A3.5 3.5 0 0 1 71.5 4v40a3.5 3.5 0 0 1-3.5 3.5H4A3.5 3.5 0 0 1 .5 44V4A3.5 3.5 0 0 1 4 .5Z"/><path fill="#7FA9B3" d="M60.267 19.458c.069.074.118.143.182.232.05.074.1.123.149.197.064.074.133.163.183.232.05.074.118.143.168.217.064.09.133.178.198.267.069.089.118.163.183.252.064.074.118.143.182.217.05.074.1.123.149.198.069.088.148.177.217.266.065.074.119.163.183.232.05.074.119.124.168.198.035.034.05.074.084.108.035.055.084.09.119.144.035.034.064.088.099.123a.4.4 0 0 1 .099.143c.05.074.118.124.168.217.034.055.084.09.118.144.07.088.149.197.218.286.035.054.084.089.119.143.05.074.099.124.148.198.035.054.084.089.119.143q.073.105.148.217c.05.07.119.143.183.217.05.055.084.109.118.163.05.055.035.109-.014.163-.07.09-.134.178-.218.267-.05.074-.119.143-.168.197-.064.07-.119.163-.183.233-.05.073-.119.143-.168.217-.064.074-.119.163-.168.232-.05.074-.119.143-.168.217-.035.054-.084.109-.119.163-.05.074-.099.123-.148.198-.05.054-.084.108-.134.162-.069.09-.148.178-.217.267-.05.074-.119.143-.168.217a2 2 0 0 0-.183.232c-.035.055-.084.109-.119.163-.05.074-.118.143-.168.218-.05.074-.119.143-.168.217-.084.089-.148.197-.232.286q-.126.164-.252.321c-.07.074-.134.163-.183.232-.05.074-.1.143-.168.217-.05.075-.12.144-.169.218-.049.069-.118.143-.168.217 0 0-.014 0-.034.02v-9.594c-.015-.035 0-.035 0-.035z"/><path fill="#183B56" fill-rule="evenodd" d="M34.786 16.1h-1.85v9.564c0 .266.02.548.07.815.104.553.356 1.032.81 1.382.372.296.807.45 1.296.464.29.01.572.007.858.003l.437-.003h.1V26.81c-.065.015-.149.015-.218.015q-.198 0-.392-.007a14 14 0 0 0-.4-.008.6.6 0 0 1-.44-.182c-.202-.198-.271-.464-.271-.731zm-13.22 11.903v-.004h.005zm-.118.09.118-.09v.767c.588 0 1.157 0 1.745.014v-6.33c0-.325-.05-.651-.168-.977a2.47 2.47 0 0 0-1.172-1.353 3.4 3.4 0 0 0-1.072-.36l-.097-.013a8 8 0 0 0-1.06-.091c-.168 0-.336 0-.505.015-.153 0-.286 0-.435.034-.37.07-.736.153-1.072.311-.47.208-.87.48-1.172.894-.034.048-.016.068.012.1l.003.004c.057.04.111.095.168.153l.034.034q.114.117.235.229l.077.072q.156.148.311.302.06.053.119.113l.03.03q.04.045.089.084c.034.034.069.05.118 0q.067-.082.136-.146l.032-.032.055-.054.03-.03c.202-.187.434-.326.687-.41a2.2 2.2 0 0 1 1.107-.138c.287.035.569.07.84.173.401.153.688.41.806.84.049.158.064.332.078.496l.002.012v.024q.015.237 0 .48v.256h-.05c-.82 0-1.661 0-2.497.015-.168 0-.336.015-.504.035-.435.049-.84.207-1.206.444-.455.291-.786.686-.954 1.22-.119.36-.168.735-.119 1.115q.024.142.04.292l.018.139.021.152c.084.375.233.72.485 1.012.232.291.538.499.87.652q.598.258 1.226.257.452.001.905-.05.326-.022.652-.103c.283-.069.533-.238.777-.404l.01-.006q.118-.086.247-.184m.083-3.298h-.098l-.005.005H19.45c-.336 0-.652.069-.94.242-.251.158-.44.345-.538.637-.084.257-.064.513-.015.77a.97.97 0 0 0 .267.513c.237.223.539.307.84.341l.084.006q.085.008.169.009.126 0 .252.015c.217.034.435 0 .652-.035.317-.054.604-.173.856-.395.168-.153.321-.326.37-.548.05-.222.07-.444.084-.666zM8 19.773h1.69v.879c.05-.049.1-.098.15-.133.232-.232.498-.415.78-.563.282-.133.594-.232.91-.267.41-.049.825-.014 1.24.084.253.065.5.134.732.247.297.129.544.326.762.593.267.31.45.662.564 1.056q.125.452.197.894c.035.232.07.464.084.696.02.36.035.741.035 1.106 0 .331-.03.662-.064.993a5.6 5.6 0 0 1-.282 1.372c-.168.48-.415.909-.796 1.255-.232.217-.514.345-.83.43a4 4 0 0 1-.896.147c-.464.03-.91.03-1.36-.133a2.6 2.6 0 0 1-.86-.528 2 2 0 0 0-.103-.094 1 1 0 0 1-.163-.153V31.9H8.035C8 27.851 8 23.803 8 19.774m5.325 4.33c.03-.38 0-.775-.084-1.14h-.01a2.9 2.9 0 0 0-.366-.973c-.198-.316-.465-.548-.811-.661-.267-.099-.529-.084-.796-.05-.514.084-.88.366-1.127.81-.297.529-.38 1.106-.396 1.684-.01.252.005.498.02.745l.006.085q.008.08.009.162c.02.218.05.445.084.662.084.38.218.74.465 1.056.247.331.598.494.993.529.218.015.43 0 .648-.035.45-.064.761-.316.979-.71.252-.445.316-.959.366-1.452.021-.153.02-.309.02-.462zm38.35 1.516a6 6 0 0 1-.14-.785c1.959 0 3.882 0 5.854-.014v-.045l.003-.038c.014-.158.027-.305.027-.465 0-.065 0-.119-.01-.173l-.005-.074-.005-.074a5 5 0 0 0-.035-.563 13 13 0 0 0-.118-.75c-.119-.564-.322-1.097-.663-1.576a3 3 0 0 0-.746-.77c-.579-.395-1.226-.583-1.923-.617-.228-.015-.46 0-.687.02l-.114.007-.114.007c-.306.015-.593.104-.885.208-.51.187-.934.493-1.295.903a2.8 2.8 0 0 0-.495.75 6 6 0 0 0-.32.875c-.14.43-.189.854-.223 1.298a6 6 0 0 0 0 .75c0 .183.014.366.03.549.009.084.014.173.018.258l.001.013c.015.326.104.652.203.958.153.528.39.993.746 1.402.307.36.683.633 1.123.84a4.2 4.2 0 0 0 1.498.326c.355.015.697 0 1.053-.035.222-.015.445-.05.647-.103.41-.104.801-.238 1.157-.46.307-.187.593-.43.836-.716q.051-.051 0-.103-.126-.127-.257-.247l-.129-.124-.129-.123-.563-.563-.223.178-.073.059q-.07.06-.15.119a2.75 2.75 0 0 1-1.65.582c-.257.015-.53-.034-.781-.084a1.8 1.8 0 0 1-.782-.375c-.375-.326-.578-.75-.697-1.215zm3.875-2.137h-3.98c.015-.154.015-.307.015-.46l.012-.051.013-.052.027-.106c.036-.142.073-.289.116-.423.203-.548.564-.957 1.123-1.13.563-.173 1.122-.139 1.65.153.377.207.614.528.767.908.084.222.153.46.203.701.02.082.026.163.033.243l.006.063q.001.052.01.105zM29.994 19.67h-.004l.005-.005zm-2.095 6.157c.721-2.087 1.408-4.12 2.095-6.157h1.989c0 .034 0 .05-.015.084-.13.338-.26.687-.389 1.031l-.125.336a17 17 0 0 0-.191.493q-.099.267-.205.524-.133.354-.271.708-.186.474-.366.961l-.195.503q-.136.35-.27.702-.175.465-.357.934-.144.371-.28.735c-.154.42-.312.834-.48 1.254l-.045.119c-.173.46-.348.923-.539 1.382l-.123.315a11 11 0 0 1-.41.969 2 2 0 0 1-1.395 1.101c-.135.027-.27.042-.404.057l-.05.005-.06.007c-.161.01-.32.007-.48.003l-.242-.003h-.826v-1.605h1.103c.465-.014.875-.266 1.033-.7.174-.45.336-.915.496-1.377l.038-.11c.023-.065 0-.117-.021-.169a.4.4 0 0 1-.028-.083q-.108-.299-.215-.586l-.196-.535q-.142-.388-.291-.777-.15-.39-.292-.778a71 71 0 0 1-.354-.926q-.173-.462-.353-.925-.177-.475-.361-.948v-.001q-.166-.428-.326-.854a78 78 0 0 0-.32-.851q-.161-.426-.318-.852-.01-.012-.016-.035a.2.2 0 0 0-.019-.049H25.7c.05 0 .07.035.07.07l.31.903q.167.463.327.925.16.465.326.926c.208.583.41 1.17.618 1.773q.26.726.515 1.451c0 .015.014.035.034.05m19.034 2.503v-5.392c0-.439-.133-.849-.435-1.21a1.4 1.4 0 0 0-.984-.508l-.06-.005a2.6 2.6 0 0 0-.489-.01c-.484.05-.9.228-1.186.637-.203.277-.302.588-.351.934-.015.113-.015.227-.015.34v5.194h-1.805v-8.57h1.72v.864q.058-.048.11-.094c.075-.066.146-.129.227-.183a3.26 3.26 0 0 1 1.335-.587 4 4 0 0 1 1.004-.064c.385.014.766.098 1.117.261.35.163.652.39.92.672.266.311.469.671.568 1.076.084.326.119.652.119.983q0 .43.007.86.007.428.007.853.001.786.008 1.572.006.783.007 1.563v.815h-1.824m-8.9-8.66h1.746v8.665h-1.745zm.006-1.53h1.745V16.1H38.04z" clip-rule="evenodd"/></svg>