<svg xmlns="http://www.w3.org/2000/svg" fill="none" viewBox="0 0 72 48"><path fill="#fff" stroke="#E3E3E8" d="M4 .5h64A3.5 3.5 0 0 1 71.5 4v40a3.5 3.5 0 0 1-3.5 3.5H4A3.5 3.5 0 0 1 .5 44V4A3.5 3.5 0 0 1 4 .5Z"/><path fill="#EDAA00" fill-rule="evenodd" d="M52.004 37.336A2.664 2.664 0 0 1 49.34 40H22.667A2.664 2.664 0 0 1 20 37.336V10.665A2.664 2.664 0 0 1 22.668 8h26.67a2.664 2.664 0 0 1 2.664 2.665z" clip-rule="evenodd"/><path fill="#231F20" d="M37.87 24.346v-5.73l1.496-.355v.75s.387-.988 1.286-1.217c.276-.07.416-.028.416-.028v1.462c-.27.004-.535.06-.784.163-.554.219-.833.697-.833 1.424v3.164zm-7.885 1.863s-.242-.363-.242-1.654v-2.853l-.77.181V20.71l.77-.182v-1.28l1.59-.376v1.278l1.125-.267v1.175l-1.124.267v2.907c0 1.32.35 1.575.35 1.575zm2.639-3.409c0-1.019.145-1.762.456-2.332.37-.677.979-1.118 1.864-1.32 1.745-.397 2.374.636 2.35 2.02-.009.495-.007.737-.007.737l-3.074.723v.05c0 .968.204 1.427.817 1.296.529-.112.676-.444.718-.853.007-.067.01-.235.01-.235l1.44-.345s.004.118 0 .25c-.013.55-.173 1.915-2.174 2.387-1.896.45-2.402-.708-2.402-2.378zm2.382-2.585c-.51.116-.776.615-.787 1.443l1.546-.368q.005-.057.004-.25c-.004-.624-.197-.953-.762-.825zm11.443-.766c-.06-1.745.392-3.13 2.34-3.573 1.242-.282 1.712.04 1.95.352.23.298.319.7.319 1.262v.104l-1.525.363v-.212c0-.666-.182-.92-.666-.8-.576.145-.809.692-.809 1.78v.506c0 1.105.152 1.611.815 1.472.576-.121.655-.625.666-1.068l.004-.293 1.523-.358v.237c-.005 1.448-.768 2.361-2.2 2.694-1.97.463-2.356-.677-2.416-2.466zm-5.267 2.443c0-1.328.779-1.747 1.95-2.231 1.051-.436 1.074-.652 1.079-1.03.005-.317-.142-.59-.666-.457-.482.121-.61.471-.635.75a3 3 0 0 0-.01.294l-1.475.348a3 3 0 0 1 .101-.872c.236-.793.937-1.328 2.144-1.607 1.57-.363 2.094.327 2.096 1.4v2.537c0 1.227.228 1.407.228 1.407l-1.45.343a3 3 0 0 1-.194-.52s-.317.798-1.41 1.056c-1.151.27-1.757-.44-1.757-1.418m3.02-1.812a5.5 5.5 0 0 1-.771.451c-.485.237-.702.527-.702.976 0 .388.242.643.678.534.47-.117.795-.555.795-1.162zM21.67 30.226a.92.92 0 0 1-.77-1.421l.01-.013.018-.004 2.162-.51v1.642l-.034.008a61 61 0 0 1-1.198.277 1 1 0 0 1-.19.02zm0 2.102a.92.92 0 0 1-.918-.916.9.9 0 0 1 .148-.498l.01-.017.018-.003 2.162-.51v1.642l-.034.009c-.49.118-1.077.254-1.198.277a1 1 0 0 1-.19.019zm0 2.105a.919.919 0 0 1-.77-1.417l.01-.017 2.18-.514v1.643l-.034.008c-.518.125-1.093.255-1.198.279a1 1 0 0 1-.189.018m-.254-6.221V19.02l1.675-.396v9.191zm4.174-.782a1.034 1.034 0 0 0-2.068 0v8.592a2.804 2.804 0 0 0 2.799 2.8c.782 0 2.926-.004 2.926-.004v-7.581a1.35 1.35 0 0 0-.601-1.127l-2.61-1.772v4.023a.223.223 0 1 1-.443 0l-.005-4.93zm1.396-6.41a2.26 2.26 0 0 0-1.492 1.15v-.643l-1.508.357v4.126a1.54 1.54 0 0 1 1.588.278v-2.664c0-.638.318-1.148.771-1.248.342-.075.627.047.627.655v3.887l1.588-.373v-4.111c0-.998-.382-1.696-1.574-1.414m23.094-5.883a.983.983 0 1 1-.001-1.962.983.983 0 0 1 0 1.96zm0-1.843a.86.86 0 1 0 0 1.718.86.86 0 0 0 0-1.718"/><path fill="#231F20" d="M49.72 13.57h.425c.169 0 .302.083.302.307 0 .156-.069.275-.2.296.122.012.182.078.188.247 0 .075.003.17.007.242a.12.12 0 0 0 .057.103h-.216a.2.2 0 0 1-.032-.106c-.008-.072-.006-.14-.009-.227 0-.13-.043-.188-.175-.188h-.152v.52h-.192zm.345.533a.18.18 0 0 0 .142-.052.18.18 0 0 0 .05-.143c0-.127-.055-.194-.182-.194h-.16v.39z"/></svg>