<svg xmlns="http://www.w3.org/2000/svg" fill="none" viewBox="0 0 72 48"><path fill="#fff" stroke="#e4e4e5" d="M4 .5h64A3.5 3.5 0 0 1 71.5 4v40a3.5 3.5 0 0 1-3.5 3.5H4A3.5 3.5 0 0 1 .5 44V4A3.5 3.5 0 0 1 4 .5Z"/><path fill="#3c4043" fill-rule="evenodd" d="M34.06 30.514v-6.046h3.119c1.277 0 2.356-.428 3.235-1.273l.211-.214a4.354 4.354 0 0 0-.21-6.093 4.45 4.45 0 0 0-3.236-1.297h-5.006v14.923zm0-7.878v-5.213h3.166c.68 0 1.325.262 1.806.738 1.02 1 1.044 2.666.059 3.701a2.45 2.45 0 0 1-1.865.774zM49.43 21.1c-.81-.75-1.911-1.131-3.307-1.131-1.793 0-3.141.666-4.032 1.987l1.664 1.06q.915-1.357 2.497-1.357c.669 0 1.313.25 1.817.702.493.428.774 1.047.774 1.702v.44c-.727-.405-1.641-.619-2.767-.619-1.312 0-2.367.31-3.153.94-.785.631-1.184 1.464-1.184 2.523a3.18 3.18 0 0 0 1.114 2.5c.738.666 1.676.999 2.778.999 1.301 0 2.333-.583 3.118-1.75h.082v1.417h1.806v-6.296c0-1.32-.399-2.368-1.208-3.117m-5.123 7.532a1.55 1.55 0 0 1-.622-1.25c0-.558.258-1.023.763-1.392.516-.369 1.16-.559 1.923-.559 1.055-.012 1.876.226 2.462.702 0 .81-.317 1.512-.938 2.107a2.98 2.98 0 0 1-2.122.892 2.3 2.3 0 0 1-1.466-.5M54.693 35 61 20.303h-2.05l-2.92 7.33h-.035l-2.99-7.33h-2.05l4.138 9.556L52.747 35z" clip-rule="evenodd"/><mask id="a" width="17" height="18" x="11" y="14" maskUnits="userSpaceOnUse" style="mask-type:luminance"><path fill="#fff" d="M27.662 21.423h-7.985v3.268h4.588a3.9 3.9 0 0 1-1.455 2.445c-1.055.826-2.284.994-3.138.994-2.158 0-4.001-1.424-4.715-3.359-.028-.07-.048-.143-.07-.214a5.1 5.1 0 0 1 .019-3.17c.67-2.013 2.556-3.515 4.767-3.515q.669 0 1.28.162a4.6 4.6 0 0 1 1.987 1.116l2.428-2.429c-1.477-1.383-3.402-2.221-5.699-2.221a8.51 8.51 0 0 0-7.594 4.69 8.4 8.4 0 0 0-.897 3.81c0 1.375.318 2.668.898 3.811v.008a8.6 8.6 0 0 0 2.597 3.057 8.43 8.43 0 0 0 4.996 1.624c1.346 0 2.538-.248 3.59-.712a7.3 7.3 0 0 0 2.04-1.334 7.5 7.5 0 0 0 1.863-2.715c.43-1.056.66-2.25.66-3.544 0-.603-.06-1.216-.16-1.772"/></mask><g mask="url(#a)"><g filter="url(#b)"><path fill="url(#c)" d="M11.055 23.057c.009 1.354.387 2.75.959 3.879v.007c.413.82.977 1.466 1.62 2.107l3.885-1.447c-.735-.382-.847-.615-1.374-1.041a5.04 5.04 0 0 1-1.19-1.938h-.01l.01-.007c-.164-.493-.18-1.016-.186-1.56z"/></g><g filter="url(#d)"><path fill="url(#e)" d="M19.678 14.438c-.384 1.378-.238 2.717 0 3.496q.666 0 1.275.162a4.6 4.6 0 0 1 1.987 1.116l2.49-2.49c-1.475-1.382-3.25-2.282-5.753-2.284"/></g><g filter="url(#f)"><path fill="url(#g)" d="M19.669 14.427a8.7 8.7 0 0 0-5.046 1.612 8.7 8.7 0 0 0-1.447 1.294c-.113 1.085.848 2.419 2.75 2.407.924-1.096 2.29-1.806 3.81-1.806h.003l-.062-3.507z"/></g><g filter="url(#h)"><path fill="url(#i)" d="m25.884 23.45-1.68 1.179a3.92 3.92 0 0 1-1.456 2.445c-1.053.824-2.279.994-3.133.994-.882 1.535-1.037 2.304.062 3.543 1.36 0 2.567-.252 3.63-.721a7.4 7.4 0 0 0 2.067-1.352 7.6 7.6 0 0 0 1.889-2.752c.435-1.07.668-2.28.668-3.591z"/></g><g filter="url(#j)"><path fill="#3086ff" d="M19.553 21.299v3.516h8.087c.071-.481.306-1.105.306-1.62 0-.603-.059-1.34-.16-1.896z"/></g><g filter="url(#k)"><path fill="url(#l)" d="M13.215 17.209a8.5 8.5 0 0 0-1.264 1.857c-.58 1.154-.897 2.558-.897 3.933l.001.058c.257.503 3.548.407 3.714 0l-.002-.056c0-.565.093-.98.263-1.49.21-.63.539-1.21.959-1.709.095-.124.349-.39.423-.55.028-.062-.051-.096-.056-.118-.005-.024-.111-.004-.135-.022-.076-.057-.226-.087-.317-.113-.195-.056-.518-.18-.697-.31-.567-.407-1.452-.893-1.992-1.48"/></g><g filter="url(#m)"><path fill="url(#n)" d="M15.219 19.137c1.315.813 1.693-.41 2.567-.794l-1.52-3.22a8.53 8.53 0 0 0-3.492 2.765z"/></g><g filter="url(#o)"><path fill="url(#p)" d="M15.754 27.354c-1.765.65-2.041.674-2.204 1.791q.466.466.999.855c.95.697 2.78 1.624 5.12 1.624h.008v-3.618h-.005c-.876 0-1.577-.235-2.294-.643-.177-.101-.499.17-.662.048-.225-.167-.767.144-.962-.057"/></g><g filter="url(#q)" opacity=".5"><path fill="url(#r)" d="M18.644 27.892v3.67c.327.038.668.062 1.025.062q.537-.001 1.042-.053v-3.654c-.378.066-.733.09-1.04.09-.352 0-.695-.043-1.027-.115"/></g></g><defs><filter id="b" width="7.404" height="6.933" x="10.585" y="22.587" color-interpolation-filters="sRGB" filterUnits="userSpaceOnUse"><feFlood flood-opacity="0" result="BackgroundImageFix"/><feBlend in="SourceGraphic" in2="BackgroundImageFix" result="shape"/><feGaussianBlur result="effect1_foregroundBlur_10192_11705" stdDeviation=".235"/></filter><filter id="d" width="6.929" height="5.714" x="18.971" y="13.968" color-interpolation-filters="sRGB" filterUnits="userSpaceOnUse"><feFlood flood-opacity="0" result="BackgroundImageFix"/><feBlend in="SourceGraphic" in2="BackgroundImageFix" result="shape"/><feGaussianBlur result="effect1_foregroundBlur_10192_11705" stdDeviation=".235"/></filter><filter id="f" width="7.512" height="6.253" x="12.697" y="13.957" color-interpolation-filters="sRGB" filterUnits="userSpaceOnUse"><feFlood flood-opacity="0" result="BackgroundImageFix"/><feBlend in="SourceGraphic" in2="BackgroundImageFix" result="shape"/><feGaussianBlur result="effect1_foregroundBlur_10192_11705" stdDeviation=".235"/></filter><filter id="h" width="9.969" height="9.357" x="18.433" y="22.724" color-interpolation-filters="sRGB" filterUnits="userSpaceOnUse"><feFlood flood-opacity="0" result="BackgroundImageFix"/><feBlend in="SourceGraphic" in2="BackgroundImageFix" result="shape"/><feGaussianBlur result="effect1_foregroundBlur_10192_11705" stdDeviation=".235"/></filter><filter id="j" width="9.333" height="4.457" x="19.083" y="20.829" color-interpolation-filters="sRGB" filterUnits="userSpaceOnUse"><feFlood flood-opacity="0" result="BackgroundImageFix"/><feBlend in="SourceGraphic" in2="BackgroundImageFix" result="shape"/><feGaussianBlur result="effect1_foregroundBlur_10192_11705" stdDeviation=".235"/></filter><filter id="k" width="6.304" height="7.131" x="10.584" y="16.738" color-interpolation-filters="sRGB" filterUnits="userSpaceOnUse"><feFlood flood-opacity="0" result="BackgroundImageFix"/><feBlend in="SourceGraphic" in2="BackgroundImageFix" result="shape"/><feGaussianBlur result="effect1_foregroundBlur_10192_11705" stdDeviation=".235"/></filter><filter id="m" width="11.621" height="10.897" x="9.469" y="11.818" color-interpolation-filters="sRGB" filterUnits="userSpaceOnUse"><feFlood flood-opacity="0" result="BackgroundImageFix"/><feBlend in="SourceGraphic" in2="BackgroundImageFix" result="shape"/><feGaussianBlur result="effect1_foregroundBlur_10192_11705" stdDeviation="1.652"/></filter><filter id="o" width="7.067" height="5.225" x="13.08" y="26.869" color-interpolation-filters="sRGB" filterUnits="userSpaceOnUse"><feFlood flood-opacity="0" result="BackgroundImageFix"/><feBlend in="SourceGraphic" in2="BackgroundImageFix" result="shape"/><feGaussianBlur result="effect1_foregroundBlur_10192_11705" stdDeviation=".235"/></filter><filter id="q" width="3.008" height="4.672" x="18.174" y="27.422" color-interpolation-filters="sRGB" filterUnits="userSpaceOnUse"><feFlood flood-opacity="0" result="BackgroundImageFix"/><feBlend in="SourceGraphic" in2="BackgroundImageFix" result="shape"/><feGaussianBlur result="effect1_foregroundBlur_10192_11705" stdDeviation=".235"/></filter><radialGradient id="c" cx="0" cy="0" r="1" gradientTransform="rotate(-92.34 22.603 6.09)scale(8.473 12.4458)" gradientUnits="userSpaceOnUse"><stop offset=".142" stop-color="#1abd4d"/><stop offset=".248" stop-color="#6ec30d"/><stop offset=".312" stop-color="#8ac502"/><stop offset=".366" stop-color="#a2c600"/><stop offset=".446" stop-color="#c8c903"/><stop offset=".54" stop-color="#ebcb03"/><stop offset=".616" stop-color="#f7cd07"/><stop offset=".699" stop-color="#fdcd04"/><stop offset=".771" stop-color="#fdce05"/><stop offset=".861" stop-color="#ffce0a"/></radialGradient><radialGradient id="e" cx="0" cy="0" r="1" gradientTransform="matrix(5.87382 0 0 7.58573 25.197 19.032)" gradientUnits="userSpaceOnUse"><stop offset=".408" stop-color="#fb4e5a"/><stop offset="1" stop-color="#ff4540"/></radialGradient><radialGradient id="g" cx="0" cy="0" r="1" gradientTransform="rotate(151.02 9.272 9.506)scale(9.40761 12.7661)" gradientUnits="userSpaceOnUse"><stop offset=".231" stop-color="#ff4541"/><stop offset=".312" stop-color="#ff4540"/><stop offset=".458" stop-color="#ff4640"/><stop offset=".54" stop-color="#ff473f"/><stop offset=".699" stop-color="#ff5138"/><stop offset=".771" stop-color="#ff5b33"/><stop offset=".861" stop-color="#ff6c29"/><stop offset="1" stop-color="#ff8c18"/></radialGradient><radialGradient id="i" cx="0" cy="0" r="1" gradientTransform="rotate(232.546 17.43 10.368)scale(24.5421 9.0591)" gradientUnits="userSpaceOnUse"><stop offset=".132" stop-color="#0cba65"/><stop offset=".21" stop-color="#0bb86d"/><stop offset=".297" stop-color="#09b479"/><stop offset=".396" stop-color="#08ad93"/><stop offset=".477" stop-color="#0aa6a9"/><stop offset=".568" stop-color="#0d9cc6"/><stop offset=".667" stop-color="#1893dd"/><stop offset=".769" stop-color="#258bf1"/><stop offset=".859" stop-color="#3086ff"/></radialGradient><radialGradient id="l" cx="0" cy="0" r="1" gradientTransform="rotate(96.618 2.334 16.455)scale(9.16468 12.6718)" gradientUnits="userSpaceOnUse"><stop offset=".366" stop-color="#ff4e3a"/><stop offset=".458" stop-color="#ff8a1b"/><stop offset=".54" stop-color="#ffa312"/><stop offset=".616" stop-color="#ffb60c"/><stop offset=".771" stop-color="#ffcd0a"/><stop offset=".861" stop-color="#fecf0a"/><stop offset=".915" stop-color="#fecf08"/><stop offset="1" stop-color="#fdcd01"/></radialGradient><radialGradient id="n" cx="0" cy="0" r="1" gradientTransform="rotate(132.119 5.193 11.846)scale(4.55202 12.8392)" gradientUnits="userSpaceOnUse"><stop offset=".316" stop-color="#ff4c3c"/><stop offset=".604" stop-color="#ff692c"/><stop offset=".727" stop-color="#ff7825"/><stop offset=".885" stop-color="#ff8d1b"/><stop offset="1" stop-color="#ff9f13"/></radialGradient><radialGradient id="p" cx="0" cy="0" r="1" gradientTransform="rotate(208.98 15.216 13.494)scale(9.40761 12.7661)" gradientUnits="userSpaceOnUse"><stop offset=".231" stop-color="#0fbc5f"/><stop offset=".312" stop-color="#0fbc5f"/><stop offset=".366" stop-color="#0fbc5e"/><stop offset=".458" stop-color="#0fbc5d"/><stop offset=".54" stop-color="#12bc58"/><stop offset=".699" stop-color="#28bf3c"/><stop offset=".771" stop-color="#38c02b"/><stop offset=".861" stop-color="#52c218"/><stop offset=".915" stop-color="#67c30f"/><stop offset="1" stop-color="#86c504"/></radialGradient><linearGradient id="r" x1="18.644" x2="20.711" y1="29.758" y2="29.758" gradientUnits="userSpaceOnUse"><stop stop-color="#0fbc5c"/><stop offset="1" stop-color="#0cba65"/></linearGradient></defs></svg>