<svg xmlns="http://www.w3.org/2000/svg" fill="none" viewBox="0 0 72 48"><path fill="#fff" stroke="#E3E3E8" d="M4 .5h64A3.5 3.5 0 0 1 71.5 4v40a3.5 3.5 0 0 1-3.5 3.5H4A3.5 3.5 0 0 1 .5 44V4A3.5 3.5 0 0 1 4 .5Z"/><path fill="#6461FC" fill-rule="evenodd" d="m38.152 16.127-3.625.779v-2.942l3.625-.764zM23.42 14.873l-3.525.75-.014 11.55c0 2.133 1.603 3.705 3.74 3.705 1.185 0 2.052-.216 2.529-.476v-2.927c-.463.187-2.745.85-2.745-1.283v-5.12h2.745v-3.07h-2.745zm-8.537 6.012c-.765 0-1.227.217-1.227.779 0 .614.795.884 1.782 1.22 1.609.545 3.726 1.264 3.735 3.928 0 2.58-2.065 4.066-5.07 4.066-1.242 0-2.6-.245-3.943-.822v-3.432c1.213.664 2.744 1.154 3.943 1.154.81 0 1.387-.217 1.387-.88 0-.68-.862-.99-1.904-1.366C12 24.96 10 24.239 10 21.837c0-2.552 1.95-4.08 4.882-4.08 1.2 0 2.384.187 3.583.663v3.388c-1.098-.591-2.485-.923-3.583-.923m15.76-1.816-.232-1.067h-3.12v12.617h3.611v-8.551c.852-1.11 2.297-.909 2.745-.75v-3.316c-.463-.173-2.153-.49-3.005 1.067m3.884-1.067h3.626v12.616h-3.626zM62 24.36c0-3.691-1.791-6.604-5.214-6.604-3.438 0-5.518 2.913-5.518 6.575 0 4.34 2.455 6.532 5.98 6.532 1.719 0 3.019-.389 4-.937v-2.884c-.981.49-2.108.793-3.538.793-1.401 0-2.643-.49-2.802-2.191h7.063c0-.08.005-.26.011-.468.008-.283.018-.616.018-.816m-7.136-1.37c0-1.629.997-2.307 1.907-2.307.881 0 1.82.678 1.82 2.308zm-12.003-4.109c.505-.461 1.415-1.125 2.83-1.125 2.529 0 4.912 2.279 4.926 6.46 0 4.571-2.354 6.647-4.94 6.647-1.27 0-2.036-.533-2.556-.908l-.015 4.08-3.61.765V17.987h3.177zm.26 8.133c.347.375.852.677 1.704.677 1.33 0 2.225-1.442 2.225-3.374 0-1.889-.91-3.36-2.225-3.36-.823 0-1.343.289-1.719.707z" clip-rule="evenodd"/></svg>