<svg xmlns="http://www.w3.org/2000/svg" fill="none" viewBox="0 0 72 48"><path fill="#fff" stroke="#E3E3E8" d="M4 .5h64A3.5 3.5 0 0 1 71.5 4v40a3.5 3.5 0 0 1-3.5 3.5H4A3.5 3.5 0 0 1 .5 44V4A3.5 3.5 0 0 1 4 .5Z"/><path fill="#008CFF" d="M17.205 18.7c.378.622.548 1.262.548 2.07 0 2.58-2.212 5.932-4.007 8.285H9.645L8 19.265l3.59-.34.87 6.967c.813-1.318 1.815-3.389 1.815-4.8 0-.773-.133-1.3-.34-1.733zm4.654 4.312c.66 0 2.324-.301 2.324-1.242 0-.452-.321-.678-.7-.678-.661 0-1.53.79-1.624 1.92m-.076 1.864c0 1.149.642 1.6 1.493 1.6.927 0 1.814-.226 2.967-.81l-.434 2.937c-.813.396-2.08.66-3.308.66-3.119 0-4.234-1.883-4.234-4.236 0-3.05 1.815-6.29 5.557-6.29 2.06 0 3.213 1.15 3.213 2.75 0 2.58-3.326 3.37-5.254 3.389M37.4 20.96c0 .376-.058.922-.115 1.28l-1.077 6.777H32.71l.983-6.213c.019-.168.076-.508.076-.696 0-.452-.284-.565-.625-.565-.453 0-.907.207-1.209.358l-1.115 7.116h-3.516l1.607-10.147h3.043l.038.81c.718-.471 1.664-.98 3.005-.98 1.777 0 2.402.904 2.402 2.26m10.381-1.111c1-.715 1.946-1.111 3.25-1.111 1.795 0 2.42.904 2.42 2.26 0 .377-.057.923-.114 1.28l-1.077 6.777h-3.497l1.002-6.344c.018-.17.057-.377.057-.508 0-.509-.284-.622-.625-.622-.434 0-.868.189-1.19.358l-1.115 7.116h-3.497l1.002-6.344c.018-.17.056-.377.056-.508 0-.509-.284-.622-.624-.622-.454 0-.907.207-1.21.358l-1.115 7.117h-3.515l1.607-10.148H42.6l.094.847c.7-.508 1.644-1.017 2.91-1.017 1.097 0 1.814.47 2.174 1.11m12.63 2.957c0-.829-.208-1.394-.832-1.394-1.38 0-1.663 2.429-1.663 3.671 0 .943.265 1.526.888 1.526 1.304 0 1.607-2.561 1.607-3.803m-6.048 2.127c0-3.2 1.7-6.194 5.614-6.194 2.948 0 4.026 1.732 4.026 4.123 0 3.163-1.682 6.44-5.69 6.44-2.967 0-3.95-1.94-3.95-4.369"/></svg>