<svg xmlns="http://www.w3.org/2000/svg" fill="none" viewBox="0 0 24 24"><g clip-path="url(#a)"><path fill="#630" d="M12 24c6.627 0 12-5.373 12-12S18.627 0 12 0 0 5.373 0 12s5.373 12 12 12Z"/><path fill="#fff" d="m9.448 8.544.757-1.857 5.19.019c.758.057 1.667.057 2.179.701.606.7.473 1.705.17 2.5a5.281 5.281 0 0 1-3.845 3.448c-1.25.19-2.52.132-3.789.132.253-.616.506-1.235.758-1.856 1.042 0 2.103.057 3.163-.114.967-.246 1.857-1.212 1.705-2.273-.095-.454-.606-.663-1.042-.663-1.742-.076-3.485 0-5.227-.038h-.02Z"/><path fill="#fff" d="M7.212 9.055h6.156l-.814 2.102H6.378l.834-2.084v-.018Zm.985 2.576h2.14l-2.234 5.682H6l2.216-5.682h-.019Z"/></g><defs><clipPath id="a"><path fill="#fff" d="M0 0h24v24H0z"/></clipPath></defs></svg>