<svg xmlns="http://www.w3.org/2000/svg" fill="none" viewBox="0 0 24 24"><path fill="#62757E" fill-rule="evenodd" d="M21.167 8.667h-.925A4.17 4.17 0 0 1 17 11.916v.917a.834.834 0 0 1-1.667 0v-.917a4.17 4.17 0 0 1-3.241-3.25h-.925a.834.834 0 0 1 0-1.666h.925a4.17 4.17 0 0 1 3.241-3.25v-.917a.834.834 0 0 1 1.667 0v.918A4.17 4.17 0 0 1 20.242 7h.925a.834.834 0 0 1 0 1.667m-4.196-3.19a.82.82 0 0 1-.804.69.82.82 0 0 1-.804-.69c-.73.25-1.309.824-1.56 1.55a.82.82 0 0 1 .697.806.82.82 0 0 1-.697.806c.251.727.83 1.3 1.56 1.55.07-.389.395-.689.804-.689s.733.3.804.69a2.51 2.51 0 0 0 1.56-1.55.82.82 0 0 1-.698-.807c0-.411.305-.738.697-.806-.25-.726-.83-1.3-1.56-1.55m-6.638 8.857-.004.02c0 .008.004.014.004.021v1.792c0 .46-.373.833-.833.833h-.96l-.718 4.303c-.006.038-.026.069-.037.104-.013.044-.025.085-.045.125a.8.8 0 0 1-.1.15c-.027.032-.05.066-.08.093a.8.8 0 0 1-.162.11c-.03.017-.058.04-.092.053A.8.8 0 0 1 7 22H5.333a.83.83 0 0 1-.821-.697L3.794 17h-.96A.834.834 0 0 1 2 16.167v-1.792c0-.008.004-.013.004-.02L2 14.335c0-2.89 1.67-4.83 4.16-4.834A2.503 2.503 0 0 1 3.666 7c0-1.378 1.12-2.5 2.499-2.5s2.5 1.122 2.5 2.5a2.504 2.504 0 0 1-2.493 2.5c2.489.004 4.16 1.946 4.16 4.834M7 7a.834.834 0 1 0-1.665.001A.834.834 0 0 0 7 7m1.667 7.334c0-.743-.18-3.167-2.501-3.167s-2.5 2.424-2.5 3.167l-.003.02c0 .008.004.014.004.021v.958H4.5c.033 0 .06.015.093.02a.76.76 0 0 1 .441.187 1 1 0 0 1 .105.112.75.75 0 0 1 .149.286c.009.032.029.058.034.092l.717 4.303h.255l.718-4.303c.005-.034.025-.06.034-.092a1 1 0 0 1 .06-.154.9.9 0 0 1 .195-.244 1 1 0 0 1 .13-.09 1 1 0 0 1 .144-.064 1 1 0 0 1 .16-.033c.033-.004.063-.02.098-.02h.834v-.958l.004-.02c0-.008-.004-.013-.004-.02" clip-rule="evenodd"/></svg>