<svg xmlns="http://www.w3.org/2000/svg" fill="none" viewBox="0 0 24 24"><path fill="#62757E" fill-rule="evenodd" d="M16.167 10.372h-.468c-1.06 1.1-2.602 1.591-2.674 1.614a.834.834 0 0 1-.927-.32.829.829 0 0 1 .019-.977c.166-.222.543-.838.71-1.458-1.062-.795-1.66-1.88-1.66-3.045 0-2.308 2.242-4.186 5-4.186 2.757 0 5 1.878 5 4.186s-2.243 4.186-5 4.186Zm0-6.709c-1.839 0-3.334 1.132-3.334 2.523 0 1.005.839 1.65 1.337 1.944.036.02.057.054.088.079.047.037.094.072.132.118.033.041.054.088.078.134.026.048.054.093.07.145.017.056.019.113.024.17.003.041.019.079.016.12-.001.02-.005.04-.005.059l-.001.004a3.213 3.213 0 0 1-.023.22 2.43 2.43 0 0 0 .127-.15c.01-.014.027-.02.038-.033a.764.764 0 0 1 .13-.11c.042-.032.081-.064.127-.086.045-.023.094-.034.143-.047a.797.797 0 0 1 .17-.034c.018-.002.032-.01.05-.01h.834c1.837 0 3.332-1.132 3.332-2.523 0-1.391-1.495-2.523-3.333-2.523ZM9.5 17.011h-.96l-.718 4.294c-.006.038-.026.068-.037.103-.013.044-.025.085-.045.125a.833.833 0 0 1-.102.15c-.025.032-.047.064-.077.092a.807.807 0 0 1-.163.11c-.031.017-.058.04-.091.053A.841.841 0 0 1 7 22H5.333a.832.832 0 0 1-.821-.695l-.718-4.294h-.96A.832.832 0 0 1 2 16.179v-1.788c0-.007.004-.013.004-.02 0-.007-.004-.013-.004-.02 0-2.883 1.67-4.819 4.16-4.823a2.5 2.5 0 0 1-2.493-2.496 2.5 2.5 0 0 1 5 0 2.5 2.5 0 0 1-2.494 2.496c2.489.004 4.16 1.94 4.16 4.822 0 .008-.004.014-.004.02 0 .008.004.014.004.021v1.788c0 .46-.372.832-.833.832ZM7 7.032a.834.834 0 0 0-1.667 0 .834.834 0 0 0 1.667 0Zm1.667 7.318c0-.74-.181-3.16-2.501-3.16s-2.5 2.42-2.5 3.16c0 .008-.003.014-.003.02 0 .008.004.014.004.021v.957H4.5c.034 0 .063.015.096.019a.877.877 0 0 1 .162.032c.051.018.098.04.144.066a.753.753 0 0 1 .239.202.862.862 0 0 1 .087.13c.026.049.044.1.06.155.009.031.029.057.034.09l.717 4.295h.255l.718-4.294c.005-.034.025-.06.034-.091a.818.818 0 0 1 .058-.154.81.81 0 0 1 .09-.133.78.78 0 0 1 .105-.11.819.819 0 0 1 .135-.091.804.804 0 0 1 .14-.064.77.77 0 0 1 .164-.033c.033-.004.061-.02.095-.02h.834v-.956c0-.007.004-.013.004-.02 0-.007-.004-.013-.004-.02Z" clip-rule="evenodd"/></svg>