<svg xmlns="http://www.w3.org/2000/svg" fill="none" viewBox="0 0 24 24"><path fill="currentColor" fill-rule="evenodd" d="M20.333 9.5h-3.821l-2.256 2.256a.834.834 0 0 1-1.423-.59V9.5H12a.834.834 0 0 1-.833-.833V2.833c0-.46.373-.833.833-.833h8.334c.46 0 .834.373.834.833v5.834c0 .46-.374.833-.834.833ZM19.5 3.667h-6.668v4.166h.835c.46 0 .833.374.833.834v.488l1.077-1.077a.839.839 0 0 1 .588-.244H19.5V3.666ZM9.5 17h-.96l-.718 4.304c-.006.038-.026.069-.038.104-.013.043-.024.084-.044.124a.833.833 0 0 1-.102.15c-.026.032-.047.066-.077.093a.788.788 0 0 1-.162.11c-.032.017-.059.04-.093.053A.815.815 0 0 1 7 22H5.333a.832.832 0 0 1-.821-.696L3.794 17h-.96A.834.834 0 0 1 2 16.167v-1.792c0-.008.004-.014.004-.02 0-.008-.004-.015-.004-.022 0-2.889 1.672-4.83 4.16-4.833A2.502 2.502 0 0 1 3.668 7a2.5 2.5 0 0 1 4.999 0A2.503 2.503 0 0 1 6.17 9.5c2.49.002 4.163 1.944 4.163 4.833 0 .007-.004.014-.004.021 0 .007.004.014.004.021v1.792c0 .46-.373.833-.833.833ZM7 7a.834.834 0 1 0-1.665 0A.834.834 0 0 0 7 7Zm1.667 7.333c0-.743-.18-3.166-2.501-3.166-2.32 0-2.5 2.423-2.5 3.166l-.003.021c0 .007.004.014.004.021v.958H4.5c.033 0 .063.015.095.02a.803.803 0 0 1 .167.033.805.805 0 0 1 .136.062.763.763 0 0 1 .24.203.763.763 0 0 1 .15.287c.009.032.029.058.034.091l.717 4.304h.255l.718-4.304c.005-.033.025-.059.034-.09a.72.72 0 0 1 .148-.287.832.832 0 0 1 .105-.112.884.884 0 0 1 .273-.154.81.81 0 0 1 .167-.034c.033-.004.061-.019.094-.019h.834v-.958c0-.008.004-.014.004-.02 0-.008-.004-.015-.004-.022Z" clip-rule="evenodd"/></svg>