<svg xmlns="http://www.w3.org/2000/svg" fill="none" viewBox="0 0 24 24"><path fill="#62757E" fill-rule="evenodd" d="M16.333 15.5c0 .46-.373.833-.833.833h-.93l-.73 5.935a.833.833 0 0 1-.826.732H11.36a.833.833 0 0 1-.826-.727l-.765-5.94h-.935A.834.834 0 0 1 8 15.5v-3.3l.003-.017L8 12.167A4.17 4.17 0 0 1 12.167 8a4.17 4.17 0 0 1 4.166 4.167l-.003.016.003.018zm-4.166-5.833a2.503 2.503 0 0 0-2.5 2.5l-.004.016.004.018v2.466h.833c.035 0 .065.015.1.02.06.007.12.015.178.036q.066.026.127.064a.7.7 0 0 1 .14.094c.04.035.07.075.103.117a1 1 0 0 1 .089.131c.025.05.039.104.054.159.009.036.03.067.036.105l.765 5.94h.185l.729-5.935c.005-.039.027-.07.037-.106a.7.7 0 0 1 .054-.163c.021-.042.05-.078.078-.117a1 1 0 0 1 .12-.136c.033-.027.068-.047.103-.07a.8.8 0 0 1 .171-.086c.045-.016.091-.02.138-.028.043-.007.082-.025.126-.025h.834V12.2l.003-.018-.003-.016c0-1.379-1.122-2.5-2.5-2.5M9.667 5.5c0-1.378 1.121-2.5 2.5-2.5 1.378 0 2.5 1.122 2.5 2.5S13.545 8 12.167 8a2.503 2.503 0 0 1-2.5-2.5m2.5.833A.834.834 0 0 0 13 5.5a.835.835 0 0 0-.833-.833.835.835 0 0 0-.834.833c0 .46.374.833.834.833" clip-rule="evenodd"/></svg>