<svg xmlns="http://www.w3.org/2000/svg" fill="none" viewBox="0 0 24 24"><path fill="#62757E" fill-rule="evenodd" d="M17.522 16.635a.83.83 0 0 1-.688.365h-2.628l-.717 4.303a.834.834 0 0 1-.822.697H11a.83.83 0 0 1-.822-.697L9.461 17H6.833a.83.83 0 0 1-.775-1.14l2.563-6.506C9.02 7.965 10.331 7 11.833 7c1.516 0 2.833.978 3.223 2.387l2.553 6.474a.83.83 0 0 1-.087.774m-4.034-6.682a1 1 0 0 1-.031-.097c-.182-.7-.848-1.19-1.624-1.19-.766 0-1.431.482-1.617 1.17a1 1 0 0 1-.03.088l-2.13 5.41h2.11c.034 0 .061.014.093.018a.7.7 0 0 1 .303.095c.05.028.097.057.14.095.039.032.07.069.103.108a1 1 0 0 1 .09.134c.026.05.043.1.059.154.01.032.03.058.034.092l.717 4.303h.255l.717-4.303c.006-.033.027-.06.036-.09a1 1 0 0 1 .058-.157 1 1 0 0 1 .088-.13.77.77 0 0 1 .542-.3c.034-.004.064-.02.098-.02h2.11zM9.334 4.5c0-1.378 1.12-2.5 2.499-2.5s2.5 1.122 2.5 2.5-1.121 2.5-2.5 2.5a2.503 2.503 0 0 1-2.5-2.5m2.499.833c.46 0 .834-.374.834-.833a.835.835 0 0 0-.834-.833.835.835 0 0 0 0 1.666" clip-rule="evenodd"/></svg>