<svg xmlns="http://www.w3.org/2000/svg" fill="none" viewBox="0 0 24 24"><path fill="#62757E" fill-rule="evenodd" d="M22 14.083c0 .46-.373.834-.833.834h-.952l-.725 4.71a.83.83 0 0 1-.823.706H17a.83.83 0 0 1-.823-.705l-.39-2.5a.832.832 0 1 1 1.646-.256l.28 1.795h.239l.725-4.71c.005-.035.025-.062.035-.095a1 1 0 0 1 .058-.16 1 1 0 0 1 .085-.124 1 1 0 0 1 .113-.122 1 1 0 0 1 .122-.083 1 1 0 0 1 .15-.07 1 1 0 0 1 .158-.032c.035-.005.065-.021.102-.021h.833v-1.463l.004-.02-.004-.018c0-.445-.08-2.666-1.666-2.666a.834.834 0 0 1-.834-.833c0-.16.058-.303.137-.43-.046.002-.09.013-.137.013a2.5 2.5 0 0 1-2.5-2.5c0-1.378 1.121-2.5 2.5-2.5s2.5 1.122 2.5 2.5c0 .908-.49 1.696-1.215 2.134C20.856 7.714 22 9.362 22 11.749q-.001.01-.004.018l.004.02zM17.833 4.5a.834.834 0 1 0 .002 1.668.834.834 0 0 0-.003-1.668m-1.666 6.667-.004.017.004.017V14.5c0 .46-.374.833-.834.833h-.93l-.743 5.937a.833.833 0 0 1-.827.73h-1.666a.833.833 0 0 1-.827-.73l-.742-5.937h-.931a.834.834 0 0 1-.834-.833v-3.3l.004-.016-.004-.017A4.17 4.17 0 0 1 12 7a4.17 4.17 0 0 1 4.167 4.167m-1.667 0c0-1.379-1.122-2.5-2.5-2.5a2.503 2.503 0 0 0-2.5 2.5l-.003.017.003.017v2.466h.833c.04 0 .075.017.113.022.054.008.107.014.158.033q.08.03.151.075c.042.026.083.049.12.081a1 1 0 0 1 .113.13c.03.039.059.076.082.12.026.052.04.107.055.164.01.036.03.066.035.105l.743 5.936h.195l.742-5.936c.005-.04.026-.071.036-.109.015-.054.028-.107.052-.156.025-.05.057-.09.09-.133.032-.042.062-.082.102-.117s.086-.062.133-.09q.066-.041.139-.07c.052-.019.107-.025.163-.033.038-.005.073-.022.112-.022h.833V11.2l.003-.017zM9.5 4.5C9.5 3.122 10.622 2 12 2s2.5 1.122 2.5 2.5S13.378 7 12 7a2.503 2.503 0 0 1-2.5-2.5m2.5.833c.46 0 .833-.374.833-.833A.835.835 0 0 0 12 3.667a.835.835 0 0 0-.833.833c0 .46.374.833.833.833m-5.832 2.5c-.048 0-.092-.01-.138-.014.08.128.137.27.137.431 0 .46-.374.833-.834.833-1.586 0-1.666 2.221-1.666 2.666 0 .007-.004.013-.004.018 0 .007.004.013.004.02v1.463H4.5c.036 0 .066.016.1.02a1 1 0 0 1 .16.033 1 1 0 0 1 .15.07q.064.036.12.082a1 1 0 0 1 .117.124c.03.04.059.078.082.123.027.05.043.104.06.16.01.033.03.06.034.095l.725 4.71h.239l.28-1.795a.833.833 0 0 1 1.647.257l-.39 2.5a.83.83 0 0 1-.824.704H5.333c-.411 0-.76-.3-.823-.706l-.725-4.71h-.952A.834.834 0 0 1 2 14.083v-2.296l.004-.02L2 11.749c0-2.387 1.144-4.035 2.883-4.282a2.49 2.49 0 0 1-1.216-2.134c0-1.378 1.121-2.5 2.5-2.5s2.5 1.122 2.5 2.5c0 1.379-1.121 2.5-2.5 2.5m0-3.333a.835.835 0 0 0-.835.833.834.834 0 1 0 .834-.833" clip-rule="evenodd"/></svg>