<svg xmlns="http://www.w3.org/2000/svg" fill="none" viewBox="0 0 24 24"><path fill="#62757E" fill-rule="evenodd" d="M19.167 6.333H17.5c-.517 0-.833.27-.833.417s.316.417.833.417c1.402 0 2.5.915 2.5 2.083 0 .93-.7 1.69-1.69 1.966.006.04.023.076.023.117v.834a.834.834 0 0 1-1.666 0v-.834h-.834a.834.834 0 0 1 0-1.666H17.5c.517 0 .833-.27.833-.417 0-.148-.316-.417-.833-.417-1.402 0-2.5-.915-2.5-2.083 0-.93.7-1.69 1.69-1.966-.006-.04-.023-.076-.023-.117v-.834a.834.834 0 0 1 1.666 0v.834h.834a.834.834 0 0 1 0 1.666M12.5 18h-.96l-.718 4.303c-.006.039-.026.07-.037.104-.013.044-.025.085-.045.125a1 1 0 0 1-.1.15c-.027.032-.05.066-.08.093a.8.8 0 0 1-.16.11c-.033.017-.06.04-.094.053A.8.8 0 0 1 10 23H8.333a.83.83 0 0 1-.821-.697L6.794 18h-.96A.834.834 0 0 1 5 17.167v-1.792l.004-.02L5 15.333c0-2.889 1.672-4.83 4.16-4.832A2.503 2.503 0 0 1 6.668 8a2.5 2.5 0 0 1 4.999 0 2.504 2.504 0 0 1-2.496 2.5c2.49.003 4.163 1.944 4.163 4.833l-.004.021.004.021v1.792c0 .46-.373.833-.833.833M10 8a.834.834 0 1 0-1.665 0A.834.834 0 0 0 10 8m1.667 7.333c0-.743-.18-3.166-2.501-3.166s-2.5 2.423-2.5 3.166l-.003.021.004.021v.958H7.5c.033 0 .06.015.093.02.06.006.115.014.17.034q.07.023.133.06.075.04.14.095a.9.9 0 0 1 .193.242q.037.074.059.154c.009.032.029.058.034.092l.717 4.303h.255l.718-4.303c.005-.034.025-.06.034-.092a.74.74 0 0 1 .148-.286.8.8 0 0 1 .238-.201 1 1 0 0 1 .143-.065 1 1 0 0 1 .16-.033c.033-.004.063-.02.098-.02h.834v-.958c0-.008.004-.013.004-.02z" clip-rule="evenodd"/></svg>