<svg xmlns="http://www.w3.org/2000/svg" fill="none" viewBox="0 0 24 24"><path fill="#62757E" fill-rule="evenodd" d="M16.5 8.833a.834.834 0 0 1 0-1.666c1.106 0 1.667-.401 1.667-1.191a1.31 1.31 0 0 0-1.31-1.31c-.737 0-1.19.486-1.19.834A.834.834 0 0 1 14 5.5C14 4.122 15.282 3 16.858 3a2.98 2.98 0 0 1 2.975 2.976c0 1.736-1.308 2.857-3.333 2.857M11.5 18h-.96l-.718 4.303c-.006.038-.026.069-.037.104-.013.044-.025.085-.045.125a.8.8 0 0 1-.1.15c-.027.032-.05.066-.08.093a.8.8 0 0 1-.162.11c-.03.017-.058.04-.092.053A.8.8 0 0 1 9 23H7.333a.83.83 0 0 1-.821-.697L5.794 18h-.96A.834.834 0 0 1 4 17.167v-1.792l.004-.02L4 15.333c0-2.889 1.672-4.83 4.16-4.832A2.503 2.503 0 0 1 5.668 8a2.5 2.5 0 0 1 4.999 0 2.503 2.503 0 0 1-2.495 2.5c2.49.003 4.162 1.944 4.162 4.833l-.004.021.004.021v1.792c0 .46-.373.833-.833.833M9 8a.834.834 0 1 0-1.665 0A.834.834 0 0 0 9 8m1.667 7.333c0-.743-.18-3.166-2.501-3.166s-2.5 2.423-2.5 3.166l-.003.021.004.021v.958H6.5c.033 0 .06.015.093.02a.75.75 0 0 1 .303.095q.074.039.14.093.056.05.102.11a.8.8 0 0 1 .15.287c.009.032.029.058.034.092l.717 4.303h.255l.718-4.303c.005-.033.025-.06.034-.09a.74.74 0 0 1 .146-.284.78.78 0 0 1 .542-.303c.034-.004.064-.02.1-.02h.833v-.958c0-.008.004-.013.004-.02zm6.425-5.425c.15.159.241.375.241.592a.88.88 0 0 1-.241.592.88.88 0 0 1-.592.241.88.88 0 0 1-.592-.241.88.88 0 0 1-.241-.592c0-.217.091-.433.241-.592a.873.873 0 0 1 1.184 0" clip-rule="evenodd"/></svg>