<svg xmlns="http://www.w3.org/2000/svg" fill="none" viewBox="0 0 24 24"><path fill="#62757E" fill-rule="evenodd" d="M22 14.083c0 .46-.373.834-.833.834h-.952l-.725 4.71a.833.833 0 0 1-.823.706H17a.833.833 0 0 1-.823-.705l-.39-2.5a.832.832 0 1 1 1.646-.256l.28 1.795h.239l.725-4.71c.005-.035.025-.062.035-.095a.745.745 0 0 1 .058-.16.754.754 0 0 1 .085-.124.78.78 0 0 1 .113-.122.808.808 0 0 1 .122-.083.798.798 0 0 1 .15-.07.779.779 0 0 1 .158-.032c.035-.005.065-.021.102-.021h.833v-1.463c0-.007.004-.013.004-.02 0-.005-.004-.011-.004-.018 0-.445-.08-2.666-1.666-2.666a.834.834 0 0 1-.834-.833c0-.16.058-.303.137-.43-.046.002-.09.013-.137.013a2.502 2.502 0 0 1-2.5-2.5c0-1.378 1.121-2.5 2.5-2.5s2.5 1.122 2.5 2.5c0 .908-.49 1.696-1.215 2.134C20.855 7.714 22 9.362 22 11.749c0 .007-.003.013-.004.018 0 .007.004.013.004.02v2.296ZM17.832 4.5a.834.834 0 1 0 .003 1.668.834.834 0 0 0-.003-1.668Zm-1.665 6.667c0 .005-.004.01-.004.017 0 .006.004.011.004.017V14.5c0 .46-.374.833-.834.833h-.93l-.743 5.937a.833.833 0 0 1-.827.73h-1.666a.833.833 0 0 1-.827-.73l-.742-5.937h-.931a.834.834 0 0 1-.834-.833v-3.3c0-.005.004-.01.004-.016s-.004-.011-.004-.017A4.171 4.171 0 0 1 12 7a4.171 4.171 0 0 1 4.167 4.167Zm-1.667 0c0-1.379-1.122-2.5-2.5-2.5a2.503 2.503 0 0 0-2.5 2.5c0 .005-.003.01-.003.017 0 .006.003.011.003.017v2.466h.833c.04 0 .075.017.113.022.054.008.107.014.158.033a.85.85 0 0 1 .151.075c.042.026.083.049.12.081a.797.797 0 0 1 .113.13c.03.039.059.076.082.12.026.052.04.107.055.164.01.036.03.066.035.105l.743 5.936h.195l.742-5.936c.005-.04.026-.071.036-.109.015-.054.028-.107.052-.156.025-.05.057-.09.09-.133.032-.042.062-.082.102-.117.04-.036.086-.062.133-.09.045-.026.089-.052.139-.07.052-.019.107-.025.163-.033.038-.005.073-.022.112-.022h.833V11.2c0-.006.003-.011.003-.017 0-.006-.003-.011-.003-.017ZM9.5 4.5C9.5 3.122 10.622 2 12 2s2.5 1.122 2.5 2.5S13.378 7 12 7a2.503 2.503 0 0 1-2.5-2.5Zm2.5.833c.46 0 .833-.374.833-.833A.835.835 0 0 0 12 3.667a.835.835 0 0 0-.833.833c0 .46.374.833.833.833Zm-5.832 2.5c-.048 0-.092-.01-.138-.014.08.128.137.27.137.431 0 .46-.374.833-.834.833-1.586 0-1.666 2.221-1.666 2.666 0 .007-.004.013-.004.018 0 .007.004.013.004.02v1.463H4.5c.036 0 .066.016.1.02a.865.865 0 0 1 .16.033.773.773 0 0 1 .15.07.82.82 0 0 1 .12.082.81.81 0 0 1 .117.124c.03.04.059.078.082.123.027.05.043.104.06.16.01.033.03.06.034.095l.725 4.71h.239l.28-1.795a.833.833 0 0 1 1.647.257l-.39 2.5a.833.833 0 0 1-.824.704H5.333c-.411 0-.76-.3-.823-.706l-.725-4.71h-.952A.834.834 0 0 1 2 14.083v-2.296c0-.007.003-.013.004-.02 0-.005-.004-.011-.004-.018 0-2.387 1.144-4.035 2.883-4.282a2.492 2.492 0 0 1-1.216-2.134c0-1.378 1.121-2.5 2.5-2.5s2.5 1.122 2.5 2.5c0 1.379-1.121 2.5-2.5 2.5Zm0-3.333a.835.835 0 0 0-.835.833.834.834 0 1 0 .834-.833Z" clip-rule="evenodd"/></svg>