<svg xmlns="http://www.w3.org/2000/svg" fill="none" viewBox="0 0 24 24"><path fill="#62757E" fill-rule="evenodd" d="m20.256 5.256-.833.833a.834.834 0 0 1-1.179-1.178l.834-.833a.832.832 0 1 1 1.178 1.178m-3.923.244a.834.834 0 0 1-.833-.833v-.834a.834.834 0 0 1 1.667 0v.834c0 .46-.373.833-.834.833m-2.5.833a.83.83 0 0 1-.589-.244l-.833-.833a.833.833 0 1 1 1.178-1.179l.834.834a.833.833 0 0 1-.59 1.422M10.5 18h-.96l-.718 4.304c-.006.038-.027.069-.037.104-.014.043-.026.084-.045.124a1 1 0 0 1-.101.15c-.026.032-.048.066-.079.093a.8.8 0 0 1-.161.11c-.032.017-.059.04-.093.053A.8.8 0 0 1 8 23H6.333a.83.83 0 0 1-.821-.696L4.794 18h-.96A.834.834 0 0 1 3 17.167v-1.792c0-.008.004-.014.004-.02 0-.008-.004-.015-.004-.022 0-2.889 1.672-4.83 4.161-4.833A2.5 2.5 0 0 1 4.666 8c0-1.38 1.122-2.5 2.5-2.5s2.5 1.12 2.5 2.5a2.503 2.503 0 0 1-2.496 2.5c2.49.002 4.164 1.944 4.164 4.833l-.004.021.004.021v1.792c0 .46-.373.833-.834.833M8 8a.834.834 0 1 0-1.664 0A.834.834 0 0 0 8 8m1.667 7.333c0-.743-.18-3.166-2.5-3.166s-2.5 2.423-2.5 3.166l-.005.021.004.021v.958H5.5c.033 0 .062.015.094.02a1 1 0 0 1 .166.033q.073.025.139.063a1 1 0 0 1 .135.091q.058.05.105.112a1 1 0 0 1 .09.132c.026.05.042.1.058.154.01.032.03.058.035.091l.718 4.304h.254l.717-4.304c.006-.033.026-.059.035-.09a.7.7 0 0 1 .15-.29.78.78 0 0 1 .543-.297c.033-.004.06-.019.094-.019h.834v-.958l.004-.02zm6.667-9c1.838 0 3.333 1.504 3.333 3.351 0 1.098-.552 2.077-1.595 2.831-.023.016-.048.022-.072.036v.624c-.01.586-.47 1.492-1.666 1.492-1.193 0-1.656-.905-1.667-1.475v-.645c-.023-.013-.05-.016-.071-.032C13.552 11.76 13 10.781 13 9.685c0-1.848 1.495-3.352 3.334-3.352m-.761 4.831a.8.8 0 0 1 .208.226c.32.116.552.416.552.777V13h.003l-.003-.833c0-.361.233-.661.554-.777a.8.8 0 0 1 .208-.226c.6-.434.905-.931.905-1.48C18 8.755 17.253 8 16.334 8c-.92 0-1.667.755-1.667 1.684 0 .548.305 1.046.906 1.48" clip-rule="evenodd"/></svg>