<svg xmlns="http://www.w3.org/2000/svg" fill="none" viewBox="0 0 24 24"><path fill="#46464A" d="M3.12 6.426c0-1.194.36-2.143 1.08-2.846.72-.72 1.642-1.08 2.767-1.08 1.124 0 2.046.36 2.767 1.08.72.703 1.08 1.652 1.08 2.846 0 1.213-.36 2.179-1.08 2.9-.72.702-1.643 1.053-2.767 1.053-1.125 0-2.047-.351-2.767-1.054-.72-.72-1.08-1.686-1.08-2.899ZM16.727 2.79c.79 0 1.284.857.887 1.54L8.133 20.673a1.026 1.026 0 1 1-1.775-1.03l9.483-16.342c.183-.316.521-.511.887-.511Zm-9.76 1.186c-.598 0-1.072.21-1.423.632-.334.404-.501 1.01-.501 1.818 0 .809.167 1.424.5 1.845.352.422.826.633 1.424.633.597 0 1.071-.211 1.423-.633.351-.44.527-1.054.527-1.845 0-.808-.176-1.414-.527-1.818-.352-.421-.826-.632-1.423-.632Zm6.245 13.571c0-1.212.36-2.17 1.08-2.872.72-.72 1.643-1.08 2.768-1.08 1.124 0 2.037.36 2.74 1.08.72.702 1.08 1.66 1.08 2.872 0 1.195-.36 2.152-1.08 2.873-.703.72-1.616 1.08-2.74 1.08-1.125 0-2.047-.351-2.767-1.054-.72-.72-1.08-1.687-1.08-2.899Zm3.821-2.45c-.597 0-1.072.21-1.423.632-.351.404-.527 1.01-.527 1.818 0 .79.176 1.397.527 1.819.351.404.826.606 1.423.606.598 0 1.072-.203 1.423-.607.352-.421.527-1.027.527-1.818 0-.808-.175-1.414-.527-1.818-.351-.422-.825-.633-1.423-.633Z"/></svg>