<svg xmlns="http://www.w3.org/2000/svg" fill="none" viewBox="0 0 24 24"><path fill="#62757E" d="M3.12 6.426q0-1.791 1.08-2.846Q5.28 2.5 6.967 2.5t2.767 1.08q1.08 1.055 1.08 2.846 0 1.819-1.08 2.9-1.08 1.053-2.767 1.053T4.2 9.325q-1.08-1.08-1.08-2.899M16.727 2.79c.79 0 1.284.857.887 1.54L8.133 20.673a1.026 1.026 0 1 1-1.775-1.03l9.483-16.342c.183-.316.521-.511.887-.511M6.967 3.976q-.897 0-1.423.632-.501.606-.501 1.818 0 1.214.5 1.845.527.633 1.424.633.895 0 1.423-.633.527-.66.527-1.845 0-1.212-.527-1.818-.528-.632-1.423-.632m6.245 13.571q0-1.819 1.08-2.872 1.08-1.08 2.768-1.08 1.686 0 2.74 1.08 1.08 1.053 1.08 2.872 0 1.792-1.08 2.873-1.054 1.08-2.74 1.08t-2.767-1.054q-1.08-1.08-1.08-2.899m3.821-2.45q-.896 0-1.423.632-.527.606-.527 1.818 0 1.186.527 1.819.527.606 1.423.606.897 0 1.423-.607.528-.631.527-1.818 0-1.212-.527-1.818-.526-.633-1.423-.633"/></svg>