<svg xmlns="http://www.w3.org/2000/svg" fill="none" viewBox="0 0 24 24"><path fill="#AB9FF2" d="M12 22c5.523 0 10-4.477 10-10S17.523 2 12 2 2 6.477 2 12s4.477 10 10 10"/><path fill="#fff" d="M6.657 17.83c1.786 0 3.129-1.554 3.93-2.782a2.4 2.4 0 0 0-.152.804c0 .717.412 1.228 1.224 1.228 1.115 0 2.306-.978 2.923-2.032a1.6 1.6 0 0 0-.065.424c0 .5.282.815.856.815 1.808 0 3.627-3.206 3.627-6.009 0-2.184-1.104-4.107-3.876-4.107C10.25 6.17 5 12.125 5 15.97c0 1.51.812 1.858 1.657 1.858m6.788-7.791c0-.543.304-.924.748-.924.433 0 .736.38.736.924 0 .543-.303.934-.736.934-.444 0-.748-.39-.748-.934m2.318 0c0-.543.303-.924.747-.924.433 0 .736.38.736.924 0 .543-.303.934-.736.934-.444 0-.747-.39-.747-.934"/></svg>