<svg xmlns="http://www.w3.org/2000/svg" fill="none" viewBox="0 0 24 24"><path fill="url(#a)" d="M12 22c5.523 0 10-4.477 10-10S17.523 2 12 2 2 6.477 2 12s4.477 10 10 10Z"/><path fill="url(#b)" d="M19.159 12.122h-1.763c0-3.593-2.923-6.505-6.528-6.505-3.56 0-6.456 2.84-6.526 6.372-.074 3.65 3.363 6.82 7.026 6.82h.461c3.23 0 7.559-2.52 8.235-5.59.125-.565-.323-1.097-.905-1.097Zm-10.91.16a.877.877 0 0 1-1.754 0v-1.413a.877.877 0 0 1 1.753 0v1.413Zm3.043 0a.877.877 0 0 1-1.753 0v-1.413a.877.877 0 0 1 1.753 0v1.413Z"/><defs><linearGradient id="a" x1="12" x2="12" y1="2" y2="22" gradientUnits="userSpaceOnUse"><stop stop-color="#534BB1"/><stop offset="1" stop-color="#551BF9"/></linearGradient><linearGradient id="b" x1="12.213" x2="12.213" y1="5.617" y2="18.808" gradientUnits="userSpaceOnUse"><stop stop-color="#fff"/><stop offset="1" stop-color="#fff" stop-opacity=".82"/></linearGradient></defs></svg>