<svg xmlns="http://www.w3.org/2000/svg" fill="none" viewBox="0 0 24 24"><path fill="#62757E" fill-rule="evenodd" d="M6.8 3.75c0-.8.65-1.45 1.45-1.45H9.7V3a.8.8 0 0 0 .8.8h3a.8.8 0 0 0 .8-.8v-.7h1.45c.8 0 1.45.65 1.45 1.45v1.755a.8.8 0 1 0 1.6 0V3.75A3.05 3.05 0 0 0 15.75.7h-7.5A3.05 3.05 0 0 0 5.2 3.75v16.5a3.05 3.05 0 0 0 3.05 3.05h7.5a3.05 3.05 0 0 0 3.05-3.05v-2.306a.8.8 0 0 0-1.6 0v2.306c0 .8-.65 1.45-1.45 1.45h-7.5c-.8 0-1.45-.65-1.45-1.45V3.75Zm2.9 16.5a.8.8 0 0 1 .8-.8h3a.8.8 0 1 1 0 1.6h-3a.8.8 0 0 1-.8-.8Zm5.633-4.09-.613.003c-.747.738-1.806.854-2.395.854-.23 0-.387-.018-.427-.023h-.007a.833.833 0 0 1-.453-1.443s.182-.19.298-.467c-1.444-.9-2.236-2.127-2.236-3.504C9.5 9.054 12.117 7 15.333 7s5.834 2.054 5.834 4.58c0 2.526-2.618 4.58-5.834 4.58Zm0-7.493c-2.258 0-4.166 1.334-4.166 2.913 0 1.197 1.176 1.977 1.878 2.335.022.01.039.027.056.042a.225.225 0 0 0 .037.031l.025.018c.04.028.08.056.113.092.03.033.05.069.072.105l.015.025.015.023a.635.635 0 0 1 .063.118.619.619 0 0 1 .03.142l.004.028c.002.016.007.032.011.047a.252.252 0 0 1 .013.07.25.25 0 0 1-.001.026.21.21 0 0 0-.002.024l-.002.022a2.95 2.95 0 0 1-.022.317.874.874 0 0 0 .176-.187.82.82 0 0 1 .677-.343V14.5s.652-.007 1.008-.007c2.259 0 4.167-1.334 4.167-2.913 0-1.58-1.908-2.913-4.167-2.913Z" clip-rule="evenodd"/></svg>