<svg xmlns="http://www.w3.org/2000/svg" fill="none" viewBox="0 0 24 24"><path fill="#62757E" fill-rule="evenodd" d="M6.8 3.75c0-.8.65-1.45 1.45-1.45H9.7V3a.8.8 0 0 0 .8.8h3a.8.8 0 0 0 .8-.8v-.7h1.45c.8 0 1.45.65 1.45 1.45v2.237a.8.8 0 1 0 1.6 0V3.75A3.05 3.05 0 0 0 15.75.7h-7.5A3.05 3.05 0 0 0 5.2 3.75v16.5a3.05 3.05 0 0 0 3.05 3.05h7.5a3.05 3.05 0 0 0 3.05-3.05v-3.077a.8.8 0 0 0-1.6 0v3.077c0 .8-.65 1.45-1.45 1.45h-7.5c-.8 0-1.45-.65-1.45-1.45zm2.9 16.5a.8.8 0 0 1 .8-.8h3a.8.8 0 1 1 0 1.6h-3a.8.8 0 0 1-.8-.8m6.667-4.276a.835.835 0 0 1-1.067 0c-.114-.096-2.8-2.36-2.8-4.87 0-1.803 1.495-3.27 3.333-3.27s3.334 1.467 3.334 3.27c0 2.51-2.686 4.774-2.8 4.87M15.833 9.5c-.919 0-1.666.72-1.666 1.604 0 1.116.951 2.35 1.666 3.087.714-.74 1.667-1.977 1.667-3.087 0-.885-.748-1.604-1.667-1.604" clip-rule="evenodd"/></svg>