<svg xmlns="http://www.w3.org/2000/svg" fill="none" viewBox="0 0 24 24"><path fill="currentColor" fill-rule="evenodd" d="m15.333 16.16-.613.003c-.747.738-1.806.854-2.395.854-.247 0-.41-.021-.434-.024a.833.833 0 0 1-.453-1.442s.182-.19.298-.467c-1.444-.9-2.236-2.127-2.236-3.504C9.5 9.054 12.117 7 15.333 7s5.834 2.054 5.834 4.58c0 2.526-2.618 4.58-5.834 4.58Zm0-7.493c-2.258 0-4.166 1.334-4.166 2.913 0 1.197 1.176 1.977 1.878 2.335.037.018.06.05.092.073.05.035.099.066.139.11.036.04.06.085.087.13.029.046.059.09.078.141.02.055.026.112.034.17.006.04.024.076.024.118 0 .017-.003.032-.003.049l-.002.022a2.998 2.998 0 0 1-.022.317.876.876 0 0 0 .176-.187.82.82 0 0 1 .677-.343V14.5s.652-.007 1.008-.007c2.259 0 4.167-1.334 4.167-2.913 0-1.58-1.908-2.913-4.167-2.913ZM8.667 19.5H7v-1.668h1.667V19.5Zm-2.5-14.167c0-.46.372-.833.833-.833h1.667a.833.833 0 1 1 0 1.667H7a.833.833 0 0 1-.833-.834Zm6.666.834A.833.833 0 0 1 12 5.333V4.056a.395.395 0 0 0-.39-.39H4.057a.396.396 0 0 0-.39.39v15.888c0 .211.179.39.39.39h7.555c.21 0 .389-.179.389-.39v-1.277a.833.833 0 1 1 1.667 0v1.277A2.057 2.057 0 0 1 11.61 22H4.056A2.057 2.057 0 0 1 2 19.944V4.056C2 2.922 2.922 2 4.056 2h7.555c1.134 0 2.056.922 2.056 2.056v1.277c0 .46-.373.834-.834.834Z" clip-rule="evenodd"/></svg>