<svg xmlns="http://www.w3.org/2000/svg" fill="none" viewBox="0 0 24 24"><path fill="#62757E" fill-rule="evenodd" d="M17.5 7a.834.834 0 0 1-.833-.833c0-1.379-1.122-2.5-2.5-2.5a.834.834 0 0 1 0-1.667 4.17 4.17 0 0 1 4.166 4.167c0 .46-.373.833-.833.833M9.167 3.667a2.503 2.503 0 0 0-2.5 2.5.834.834 0 0 1-1.667 0A4.17 4.17 0 0 1 9.167 2a.834.834 0 0 1 0 1.667M5.833 17c.46 0 .834.373.834.833 0 1.379 1.121 2.5 2.5 2.5a.834.834 0 0 1 0 1.667A4.17 4.17 0 0 1 5 17.833c0-.46.373-.833.833-.833m3.611 2.498c-1.072 0-1.944-.917-1.944-2.044V6.544c0-1.128.872-2.046 1.944-2.046h4.445c1.073 0 1.944.918 1.944 2.046v10.91c0 1.127-.871 2.044-1.944 2.044zm4.723-2.044V6.544c0-.217-.147-.379-.278-.379H9.444c-.13 0-.277.162-.277.38v10.91c0 .222.146.377.277.377h4.445c.132 0 .278-.155.278-.378m-2.084-8.787h-.833a.834.834 0 0 1 0-1.667h.833a.834.834 0 0 1 0 1.667M12.5 17h-1.668v-1.667H12.5zm1.667 3.333c1.378 0 2.5-1.121 2.5-2.5a.834.834 0 0 1 1.666 0A4.17 4.17 0 0 1 14.167 22a.834.834 0 0 1 0-1.667" clip-rule="evenodd"/></svg>