<svg xmlns="http://www.w3.org/2000/svg" fill="none" viewBox="0 0 24 24"><path fill="currentColor" fill-rule="evenodd" d="M19.167 12.833h-6.321l1.076 1.077a.832.832 0 1 1-1.178 1.178l-2.5-2.499a.816.816 0 0 1-.179-.268.823.823 0 0 1 0-.642.834.834 0 0 1 .18-.269l2.5-2.498a.832.832 0 1 1 1.178 1.178l-1.077 1.077h6.32a.834.834 0 0 1 0 1.666ZM10 4.5h1.667a.834.834 0 0 1 0 1.667H10A.834.834 0 0 1 10 4.5Zm1.667 13.332V19.5H10v-1.668h1.667ZM15.833 9.5A.834.834 0 0 1 15 8.667V4.056a.395.395 0 0 0-.39-.39H7.057a.396.396 0 0 0-.39.39v15.888c0 .211.179.39.39.39h7.555c.21 0 .389-.179.389-.39v-4.61a.834.834 0 0 1 1.667 0v4.61A2.057 2.057 0 0 1 14.61 22H7.056A2.057 2.057 0 0 1 5 19.944V4.056C5 2.922 5.922 2 7.056 2h7.555c1.134 0 2.056.922 2.056 2.056v4.61c0 .46-.374.834-.834.834Z" clip-rule="evenodd"/></svg>