<svg xmlns="http://www.w3.org/2000/svg" fill="none" viewBox="0 0 24 24"><path fill="#62757E" fill-rule="evenodd" d="M6.8 3.75c0-.8.65-1.45 1.45-1.45H9.7V3a.8.8 0 0 0 .8.8h3a.8.8 0 0 0 .8-.8v-.7h1.45c.8 0 1.45.65 1.45 1.45v5.514a.8.8 0 1 0 1.6 0V3.75A3.05 3.05 0 0 0 15.75.7h-7.5A3.05 3.05 0 0 0 5.2 3.75v16.5a3.05 3.05 0 0 0 3.05 3.05h7.5a3.05 3.05 0 0 0 3.05-3.05v-5.193a.8.8 0 0 0-1.6 0v5.193c0 .8-.65 1.45-1.45 1.45h-7.5c-.8 0-1.45-.65-1.45-1.45zm2.9 16.5a.8.8 0 0 1 .8-.8h3a.8.8 0 1 1 0 1.6h-3a.8.8 0 0 1-.8-.8m3.146-7.417h6.32a.834.834 0 0 0 0-1.666h-6.32l1.076-1.077a.832.832 0 1 0-1.178-1.178l-2.499 2.498a.834.834 0 0 0 0 1.18l2.5 2.498a.83.83 0 0 0 .588.244.833.833 0 0 0 .59-1.422z" clip-rule="evenodd"/></svg>