<svg xmlns="http://www.w3.org/2000/svg" fill="none" viewBox="0 0 24 24"><path fill="currentColor" fill-rule="evenodd" d="M20.19 23H3.655A1.662 1.662 0 0 1 2 21.333V9.667C2 8.747 2.742 8 3.654 8H20.19c.913 0 1.81.748 1.81 1.667v11.666c0 .92-.897 1.667-1.81 1.667Zm.141-13.333H3.654v6.521l4.423-3.82a.822.822 0 0 1 1.123.043l4.454 4.489 2.733-2.067a.823.823 0 0 1 1.132.134l2.812 3.401V9.667Zm0 11.305-3.58-4.33-2.679 2.025a.821.821 0 0 1-1.08-.078l-4.42-4.454-4.918 4.248v2.95h16.677v-.361Zm-5.101-8.805c0-.92.742-1.667 1.655-1.667.91 0 1.652.748 1.652 1.667s-.741 1.666-1.652 1.666a1.662 1.662 0 0 1-1.655-1.666Zm1.652 0 .003.833v-.833h-.003Zm2.482-5H4.48a.83.83 0 0 1-.827-.834c0-.46.37-.833.827-.833h14.883a.83.83 0 0 1 .827.833.83.83 0 0 1-.827.834Zm-1.654-2.5H6.134a.83.83 0 0 1-.826-.834c0-.46.37-.833.826-.833H17.71a.83.83 0 0 1 .827.833.83.83 0 0 1-.827.834Z" clip-rule="evenodd"/></svg>