<svg xmlns="http://www.w3.org/2000/svg" fill="none" viewBox="0 0 24 24"><path fill="#62757E" fill-rule="evenodd" d="M1.45 7.512a2.3 2.3 0 0 1 2.3-2.3h16.5a2.3 2.3 0 0 1 2.3 2.3v12a2.3 2.3 0 0 1-2.3 2.3H3.75a2.3 2.3 0 0 1-2.3-2.3v-12Zm1.6 10.082v1.918a.7.7 0 0 0 .7.7h16.5a.7.7 0 0 0 .7-.7v-1.918l-2.675-2.675a1.45 1.45 0 0 0-2.05 0l-.844.843.935.935a.8.8 0 1 1-1.132 1.131l-5.159-5.159a1.45 1.45 0 0 0-2.05 0L3.05 17.594Zm11.2-2.963-3.093-3.093a3.05 3.05 0 0 0-4.314 0L3.05 15.33V7.512a.7.7 0 0 1 .7-.7h16.5a.7.7 0 0 1 .7.7v7.82l-1.543-1.544a3.05 3.05 0 0 0-4.314 0l-.843.843Zm-1.175-4.869a1.175 1.175 0 1 1 2.35 0 1.175 1.175 0 0 1-2.35 0Zm6.289-5.908H4.481a.83.83 0 0 1-.827-.833c0-.46.37-.833.827-.833h14.883a.83.83 0 0 1 .827.833.83.83 0 0 1-.827.833Z" clip-rule="evenodd"/></svg>