<svg xmlns="http://www.w3.org/2000/svg" fill="none" viewBox="0 0 24 24"><path fill="#62757E" fill-rule="evenodd" d="M21.355 16.311a.8.8 0 0 1-.8-.8v-8.8a2.2 2.2 0 0 0-2.2-2.2h-12.8a.8.8 0 0 1 0-1.6h12.8a3.8 3.8 0 0 1 3.8 3.8v8.8a.8.8 0 0 1-.8.8M4.538 6.151a2.8 2.8 0 0 0-2.8 2.8v9.338a2.8 2.8 0 0 0 2.8 2.8h11.46a2.8 2.8 0 0 0 2.8-2.8V8.95a2.8 2.8 0 0 0-2.8-2.8zm-1.2 2.8a1.2 1.2 0 0 1 1.2-1.2h11.46a1.2 1.2 0 0 1 1.2 1.2v3.693a2.8 2.8 0 0 0-3.689.239l-.905.905-3.026-3.025a2.8 2.8 0 0 0-3.96 0l-2.28 2.28zm10.397 5.968 1.316 1.316a.8.8 0 0 1-1.132 1.131l-5.472-5.472a1.2 1.2 0 0 0-1.697 0l-3.412 3.412v2.983a1.2 1.2 0 0 0 1.2 1.2h11.46a1.2 1.2 0 0 0 1.2-1.2v-3.515l-.86-.76a1.2 1.2 0 0 0-1.698 0zm-.66-4.757a1.175 1.175 0 1 1 2.35 0 1.175 1.175 0 0 1-2.35 0" clip-rule="evenodd"/></svg>