<svg xmlns="http://www.w3.org/2000/svg" fill="none" viewBox="0 0 24 24"><path fill="#62757E" fill-rule="evenodd" d="M1.845 8.29c0-1.118.82-2.141 1.967-2.141H16.84c1.146 0 1.967 1.023 1.967 2.142v10.655c0 1.119-.82 2.143-1.967 2.143H3.812c-1.146 0-1.967-1.024-1.967-2.143V8.291Zm1.566 8.975v1.681c0 .353.24.522.401.522H16.84c.162 0 .401-.17.401-.522v-1.681l-2.09-2.35c-.383-.432-.976-.432-1.36 0l-.624.702.696.782a.83.83 0 0 1-.046 1.146.764.764 0 0 1-1.106-.048l-1.18-1.326-.01-.013-2.884-3.242c-.383-.431-.976-.431-1.36 0l-3.866 4.349Zm8.691-2.845L9.79 11.819c-1.004-1.13-2.661-1.13-3.665 0L3.411 14.87V8.29c0-.353.24-.522.401-.522H16.84c.162 0 .401.17.401.522v6.58l-.938-1.055c-1.004-1.129-2.66-1.129-3.664 0l-.537.604Zm-1.079-4.131c0-.567.424-1.144 1.08-1.144.655 0 1.079.577 1.079 1.144s-.424 1.143-1.08 1.143c-.655 0-1.079-.576-1.079-1.143ZM4.837 3.71a.8.8 0 0 1 .8-.8h13.718a2.8 2.8 0 0 1 2.8 2.8v10.113a.8.8 0 1 1-1.6 0V5.711a1.2 1.2 0 0 0-1.2-1.2H5.637a.8.8 0 0 1-.8-.8Z" clip-rule="evenodd"/></svg>