<svg xmlns="http://www.w3.org/2000/svg" fill="none" viewBox="0 0 24 24"><path fill="#62757E" fill-rule="evenodd" d="M19 5.7H5A1.3 1.3 0 0 0 3.7 7v10A1.3 1.3 0 0 0 5 18.3h6.544a.853.853 0 1 1 .034 1.7H5a3 3 0 0 1-3-3V7a3 3 0 0 1 3-3h14a3 3 0 0 1 3 3v3.816a.853.853 0 1 1-1.7-.098V7A1.3 1.3 0 0 0 19 5.7M5.586 8.472a1 1 0 0 1 1-1h6a1 1 0 0 1 1 1v4a1 1 0 0 1-1 1h-6a1 1 0 0 1-1-1zm15.553 13.282a.704.704 0 0 0 1 0 .707.707 0 0 0 0-1l-5.204-5.203h4.015c.39 0 .688-.27.688-.66a.707.707 0 0 0-.707-.707h-5.655a.706.706 0 0 0-.708.705v5.658a.707.707 0 1 0 1.414 0l-.015-3.964z" clip-rule="evenodd"/></svg>