<svg xmlns="http://www.w3.org/2000/svg" fill="none" viewBox="0 0 24 24"><path fill="#62757E" d="M21.166 4.927C21.681 5.467 22 6.195 22 7v10a3 3 0 0 1-3 3H6.14l1.7-1.7H19a1.3 1.3 0 0 0 1.3-1.3V7c0-.324-.12-.619-.315-.846l1.041-1.04a1 1 0 0 0 .14-.187m-1.983-2.756a.85.85 0 0 1 1.202 1.202l-16 16a1 1 0 0 1-.123.1l-.328.329a3 3 0 0 1-.7-.382A2.99 2.99 0 0 1 2 17V7a3 3 0 0 1 3-3h12.354zM5 5.7A1.3 1.3 0 0 0 3.7 7v10c0 .191.042.372.116.536L15.653 5.7zm12.597 4.866a1 1 0 0 1 1 1v4a1 1 0 0 1-1 1h-6a1 1 0 0 1-1-1v-.022l4.977-4.978z"/></svg>