<svg xmlns="http://www.w3.org/2000/svg" fill="none" viewBox="0 0 24 24"><path fill="#62757E" d="M20.932 14.186c.39 0 .706.316.706.706s-.298.66-.688.66h-4.015l5.204 5.203a.707.707 0 0 1-1 1l-5.171-5.17.014 3.963a.707.707 0 0 1-1.414 0V14.89a.71.71 0 0 1 .708-.704zM19 3.999a3 3 0 0 1 3 3v3.775h-.002l.002.043a.853.853 0 1 1-1.7-.095V6.999A1.3 1.3 0 0 0 19 5.7H5A1.3 1.3 0 0 0 3.7 7v10A1.3 1.3 0 0 0 5 18.3h6.543a.852.852 0 1 1 .087 1.702L11.595 20H5a3 3 0 0 1-3-3V7a3 3 0 0 1 3-3zm-6.414 3.474a1 1 0 0 1 1 1v4a1 1 0 0 1-1 1h-6a1 1 0 0 1-1-1v-4a1 1 0 0 1 1-1z"/></svg>