<svg xmlns="http://www.w3.org/2000/svg" fill="none" viewBox="0 0 24 24"><path fill="#62757E" fill-rule="evenodd" d="M19.182 2.17a.85.85 0 1 1 1.202 1.203l-16 16a1 1 0 0 1-.12.1l-.332.332A3 3 0 0 1 2 17V7a3 3 0 0 1 3-3h12.353zm-3.53 3.53H5A1.3 1.3 0 0 0 3.7 7v10q.002.29.116.537zm5.374-.585-1.039 1.039c.195.227.313.523.313.846v10a1.3 1.3 0 0 1-1.3 1.3H7.841l-1.7 1.7H19a3 3 0 0 0 3-3V7a3 3 0 0 0-.832-2.073 1 1 0 0 1-.142.188m-5.451 5.451-4.979 4.979v.021a1 1 0 0 0 1 1h6a1 1 0 0 0 1-1v-4a1 1 0 0 0-1-1z" clip-rule="evenodd"/></svg>