<svg xmlns="http://www.w3.org/2000/svg" fill="none" viewBox="0 0 24 24"><path fill="#62757E" fill-rule="evenodd" d="M12.714 2.816c0-.45.366-.816.817-.816A8.47 8.47 0 0 1 22 10.47c0 .45-.366.816-.816.816H13.53a.816.816 0 0 1-.817-.817zm1.633.865v5.972h5.972a6.84 6.84 0 0 0-5.972-5.972M9.653 6.742a6.838 6.838 0 1 0 7.605 7.605h-6.789a.816.816 0 0 1-.816-.816zM2 13.531a8.47 8.47 0 0 1 8.47-8.47c.45 0 .816.366.816.817v6.836h6.836c.451 0 .817.366.817.817A8.47 8.47 0 0 1 2 13.53" clip-rule="evenodd"/></svg>