<svg xmlns="http://www.w3.org/2000/svg" fill="none" viewBox="0 0 24 24"><path fill="#62757E" fill-rule="evenodd" d="M18.826 20.492a.828.828 0 0 1-1.178 0l-.873-.872A8.71 8.71 0 0 1 10.778 22C5.938 22 2 18.062 2 13.223c0-.106.012-.209.015-.313-.002-.027-.015-.05-.015-.077 0-.044.018-.082.025-.125a8.777 8.777 0 0 1 8.308-8.24V2.832c0-.46.373-.833.834-.833C17.14 2 22 6.86 22 12.833c0 2.894-1.127 5.615-3.174 7.66Zm-8.048-.159a7.06 7.06 0 0 0 4.819-1.891l-4.783-4.783c-.012.001-.022.008-.036.008H3.69c.232 3.714 3.318 6.666 7.09 6.666Zm-7-8.333h6.555V6.134A7.117 7.117 0 0 0 3.778 12ZM12 3.704v8.784l6.21 6.211a9.09 9.09 0 0 0 2.123-5.866c0-4.773-3.667-8.706-8.333-9.129Z" clip-rule="evenodd"/></svg>