<svg xmlns="http://www.w3.org/2000/svg" fill="none" viewBox="0 0 24 24"><path fill="#62757E" fill-rule="evenodd" d="M21.167 15.333h-.757c-.323 1.164-1 2.17-2.06 2.984l.622 1.723a.833.833 0 0 1-.495 1.066l-2.299.843a.83.83 0 0 1-.64-.027.83.83 0 0 1-.431-.473l-.51-1.412c-.431.152-.969.296-1.986.296-.992 0-1.509-.134-1.916-.277l-.503 1.393a.83.83 0 0 1-.784.551.9.9 0 0 1-.287-.05l-2.297-.844a.834.834 0 0 1-.497-1.066l.606-1.673c-1.38-1.037-2.235-2.412-2.439-3.902C2.686 14.175 2 12.405 2 11.167a.833.833 0 1 1 1.667 0c.002.244.063 1.356.917 1.63.692-2.973 4.024-5.235 8.027-5.235.892-.006 1.764.009 2.601.193 1.804-1.693 4.23-1.593 4.34-1.583a.833.833 0 0 1 .423 1.516c-.033.024-.875.651-1.1 1.979.543.46.945.868 1.35 1.5h.942c.46 0 .833.373.833.833v2.5c0 .46-.372.833-.833.833m-.834-2.5h-.575a.8.8 0 0 1-.378-.101c-.032-.016-.057-.038-.087-.059a.8.8 0 0 1-.218-.223c-.013-.02-.036-.027-.047-.047-.423-.768-.727-1.055-1.561-1.738a.84.84 0 0 1-.303-.697c.044-.703.213-1.3.431-1.796a3.8 3.8 0 0 0-1.506 1.04l-.002.003c-.008.01-.02.012-.028.02a.8.8 0 0 1-.227.178c-.05.024-.103.03-.155.044-.051.015-.1.037-.154.042a.8.8 0 0 1-.279-.03c-.013-.005-.027 0-.04-.006h-.005c-.738-.235-1.618-.229-2.545-.235-3.587 0-6.473 2.068-6.536 4.626.031 1.334.847 2.6 2.259 3.485.332.208.475.62.34.99l-.54 1.498.731.269.498-1.376c.015-.043.046-.072.066-.11.028-.05.05-.1.086-.142s.079-.071.121-.105c.042-.033.08-.068.127-.092.047-.025.099-.038.15-.053.052-.015.099-.032.152-.038.055-.005.109.004.165.01.043.004.085-.004.13.007.247.066.443.139.635.211.381.144.682.259 1.573.259.906 0 1.23-.122 1.64-.275.173-.065.357-.13.565-.19l.004-.003h.006l.056-.02c.046-.012.09-.004.135-.009.055-.006.109-.017.163-.012.05.005.094.023.142.036.056.016.113.029.165.056.04.02.071.052.108.08.05.036.098.07.14.118.032.038.05.084.077.128.024.042.058.076.075.125l.504 1.395.732-.27-.503-1.39q-.018-.032-.033-.065a.823.823 0 0 1 .291-1.057c1.198-.76 1.89-1.746 2.055-2.93.005-.037.026-.066.035-.102a1 1 0 0 1 .055-.155 1 1 0 0 1 .092-.136c.03-.04.06-.077.098-.11a1 1 0 0 1 .144-.098 1 1 0 0 1 .126-.061 1 1 0 0 1 .175-.035c.034-.005.064-.02.1-.02h.575zm-5-.833A.833.833 0 1 1 17 12a.833.833 0 0 1-1.667 0m-2.707-5.338a.833.833 0 0 1-.662-.975Q12 5.514 12 5.333a1.668 1.668 0 0 0-3.333 0c0 .328.132.717.346 1.019a.834.834 0 0 1-1.359.965C7.238 6.73 7 6.008 7 5.333A3.337 3.337 0 0 1 10.332 2a3.337 3.337 0 0 1 3.27 4 .83.83 0 0 1-.976.662" clip-rule="evenodd"/></svg>