<svg xmlns="http://www.w3.org/2000/svg" fill="none" viewBox="0 0 24 24"><path fill="#62757E" fill-rule="evenodd" d="M8.411 2.029c-1.662 0-2.436 2.06-1.185 3.154l1.656 1.449a.2.2 0 0 1 .068.15v3.034c-.614.322-1.343.833-2.015 1.421-.875.766-1.772 1.765-2.208 2.814a1.43 1.43 0 0 0 .237 1.505c.317.37.795.573 1.286.573h.215l-3.27 3.27a.85.85 0 0 0 1.08 1.303L19.836 5.14a1 1 0 0 1 .121-.1l.44-.44a.85.85 0 1 0-1.202-1.202L15.05 7.543v-.76a.2.2 0 0 1 .068-.151l1.656-1.449c1.25-1.094.477-3.154-1.186-3.154zm8.15 8.79-1.14 1.14q.292.222.59.482c.753.658 1.4 1.406 1.724 2.088h-4.882L11.2 16.18v5.015a.8.8 0 0 0 1.6 0V16.13h4.95a1.7 1.7 0 0 0 1.286-.573c.335-.39.468-.95.237-1.505-.436-1.05-1.333-2.048-2.208-2.814a13 13 0 0 0-.503-.418m-8.496 3.71 5.385-5.386v-2.36a1.8 1.8 0 0 1 .615-1.355l1.655-1.449a.2.2 0 0 0 .066-.102.2.2 0 0 0-.01-.119.2.2 0 0 0-.07-.096.2.2 0 0 0-.117-.033H8.41a.2.2 0 0 0-.117.033.2.2 0 0 0-.07.096.2.2 0 0 0-.01.119.2.2 0 0 0 .066.102l1.655 1.449a1.8 1.8 0 0 1 .615 1.354v3.547a.8.8 0 0 1-.52.749c-.435.163-1.239.66-2.042 1.363-.752.658-1.399 1.406-1.723 2.088z" clip-rule="evenodd"/></svg>