<svg xmlns="http://www.w3.org/2000/svg" fill="none" viewBox="0 0 24 24"><path fill="#62757E" fill-rule="evenodd" d="M21.414 10.87a6.7 6.7 0 0 1-3.77.047l-2.983 2.985a8.5 8.5 0 0 1 .287 5.845.83.83 0 0 1-.796.586.83.83 0 0 1-.59-.244l-4.235-4.235-5.905 5.902a.83.83 0 0 1-1.177 0 .833.833 0 0 1 0-1.179l5.902-5.902-4.236-4.235a.833.833 0 0 1 .341-1.385c1.895-.59 4-.486 5.843.285l2.989-2.99a6.67 6.67 0 0 1 .049-3.763.834.834 0 0 1 1.385-.342l7.238 7.239a.833.833 0 0 1-.342 1.385m-6.91-6.283c.004.578.108 1.156.31 1.702a.83.83 0 0 1-.19.88l-3.762 3.76a.83.83 0 0 1-.965.154 6.97 6.97 0 0 0-3.705-.719l7.449 7.446a6.86 6.86 0 0 0-.724-3.709.83.83 0 0 1 .154-.966l3.757-3.758a.83.83 0 0 1 .88-.192 5 5 0 0 0 1.707.315z" clip-rule="evenodd"/></svg>