<svg xmlns="http://www.w3.org/2000/svg" fill="none" viewBox="0 0 24 24"><path fill="#62757E" fill-rule="evenodd" d="M8.411 2.029c-1.662 0-2.436 2.06-1.185 3.154l1.656 1.449a.2.2 0 0 1 .068.15v3.034c-.614.322-1.343.833-2.015 1.421-.875.766-1.772 1.765-2.208 2.814a1.43 1.43 0 0 0 .237 1.505c.318.37.795.573 1.286.573h4.95v5.067a.8.8 0 0 0 1.6 0V16.13h4.95a1.7 1.7 0 0 0 1.286-.573c.335-.39.468-.95.237-1.505-.436-1.05-1.333-2.048-2.208-2.814-.672-.588-1.401-1.099-2.015-1.42V6.781a.2.2 0 0 1 .068-.15l1.656-1.449c1.25-1.094.477-3.154-1.186-3.154zm-.131 1.95a.2.2 0 0 1-.066-.102.2.2 0 0 1 .01-.119.2.2 0 0 1 .07-.096.2.2 0 0 1 .117-.033h7.178a.2.2 0 0 1 .117.033.2.2 0 0 1 .07.096.2.2 0 0 1 .01.119.2.2 0 0 1-.066.102l-1.655 1.449a1.8 1.8 0 0 0-.615 1.354v3.547a.8.8 0 0 0 .52.749c.434.163 1.239.66 2.042 1.363.752.658 1.399 1.406 1.723 2.088H6.265c.324-.681.971-1.43 1.723-2.088.803-.702 1.607-1.2 2.043-1.363a.8.8 0 0 0 .519-.75V6.783a1.8 1.8 0 0 0-.615-1.354z" clip-rule="evenodd"/></svg>