<svg xmlns="http://www.w3.org/2000/svg" fill="none" viewBox="0 0 24 24"><path fill="#ED79AA" d="M12 22c5.523 0 10-4.477 10-10S17.523 2 12 2 2 6.477 2 12s4.477 10 10 10"/><path fill="#fff" fill-rule="evenodd" d="m16.658 7.58-1.17 1.178a4.52 4.52 0 0 0-3.22-1.344c-2.446 0-4.443 1.944-4.548 4.382h-.005v4.45A6.25 6.25 0 0 1 6.063 12c0-3.452 2.778-6.25 6.206-6.25a6.17 6.17 0 0 1 4.388 1.83m0 8.84a6.17 6.17 0 0 1-4.288 1.83v-1.665a4.52 4.52 0 0 0 3.119-1.342z" clip-rule="evenodd" opacity=".5"/><path fill="#fff" fill-rule="evenodd" d="M9.3 17.49v-5.694h.005a3.08 3.08 0 0 1 3.065-2.921c1.695 0 3.07 1.384 3.07 3.091s-1.375 3.09-3.07 3.09a3.04 3.04 0 0 1-1.551-.422v3.444a6 6 0 0 1-1.518-.587zm3.07-3.961a1.555 1.555 0 0 0 1.552-1.563c0-.863-.695-1.562-1.552-1.562a1.557 1.557 0 0 0-1.551 1.562c0 .863.694 1.563 1.551 1.563" clip-rule="evenodd"/></svg>