<svg xmlns="http://www.w3.org/2000/svg" fill="none" viewBox="0 0 24 24"><path fill="#ED79AA" d="M12 22c5.523 0 10-4.477 10-10S17.523 2 12 2 2 6.477 2 12s4.477 10 10 10Z"/><path fill="#fff" fill-rule="evenodd" d="M16.657 7.58 15.49 8.759a4.524 4.524 0 0 0-3.22-1.344c-2.447 0-4.444 1.944-4.549 4.382h-.005v4.45A6.252 6.252 0 0 1 6.063 12c0-3.452 2.778-6.25 6.206-6.25a6.165 6.165 0 0 1 4.388 1.83Zm0 8.84a6.166 6.166 0 0 1-4.287 1.83v-1.665a4.524 4.524 0 0 0 3.119-1.342l1.168 1.176Z" clip-rule="evenodd" opacity=".5"/><path fill="#fff" fill-rule="evenodd" d="M9.3 17.49v-5.694h.005a3.079 3.079 0 0 1 3.065-2.921c1.695 0 3.07 1.384 3.07 3.091a3.08 3.08 0 0 1-3.07 3.09 3.04 3.04 0 0 1-1.551-.422v3.444a6.134 6.134 0 0 1-1.518-.587v-.001Zm3.07-3.961a1.555 1.555 0 0 0 1.552-1.563c0-.863-.695-1.562-1.552-1.562a1.557 1.557 0 0 0-1.551 1.562c0 .863.694 1.563 1.551 1.563Z" clip-rule="evenodd"/></svg>