<svg xmlns="http://www.w3.org/2000/svg" fill="none" viewBox="0 0 24 24"><g clip-path="url(#a)"><path fill="#ED79AA" d="M12 24c6.627 0 12-5.373 12-12S18.627 0 12 0 0 5.373 0 12s5.373 12 12 12Z"/><path fill="#fff" fill-rule="evenodd" d="m17.571 7.404-1.229 1.224a4.76 4.76 0 0 0-1.551-1.034 4.804 4.804 0 0 0-1.835-.363c-2.574 0-4.674 2.021-4.784 4.556h-.006v4.63A6.462 6.462 0 0 1 6.428 12c0-3.59 2.923-6.5 6.528-6.5.858 0 1.708.167 2.5.494a6.49 6.49 0 0 1 2.115 1.41Zm0 9.192a6.52 6.52 0 0 1-4.509 1.904v-1.732a4.783 4.783 0 0 0 3.28-1.395l1.23 1.223Z" clip-rule="evenodd" opacity=".5"/><path fill="#fff" fill-rule="evenodd" d="M9.834 17.71v-5.922h.005a3.222 3.222 0 0 1 3.223-3.038 3.222 3.222 0 0 1 3.228 3.215 3.221 3.221 0 0 1-3.227 3.214 3.223 3.223 0 0 1-1.632-.44v3.582a6.495 6.495 0 0 1-1.597-.61v-.001Zm3.228-4.12a1.654 1.654 0 0 0 1.157-.478 1.62 1.62 0 0 0 .475-1.147 1.629 1.629 0 0 0-2.258-1.5 1.64 1.64 0 0 0-.883.88 1.628 1.628 0 0 0 1.51 2.245Z" clip-rule="evenodd"/></g><defs><clipPath id="a"><path fill="#fff" d="M0 0h24v24H0z"/></clipPath></defs></svg>