<svg xmlns="http://www.w3.org/2000/svg" fill="none" viewBox="0 0 24 24"><g clip-path="url(#a)"><path fill="#96B73D" d="M12 24c6.627 0 12-5.373 12-12S18.627 0 12 0 0 5.373 0 12s5.373 12 12 12"/><path fill="#fff" d="M9.136 12.068q.084.253.245.467l-1.62-1.637a.91.91 0 0 1 0-1.28l2.044-2.046q.063-.047.121-.1l.06-.052 1.655-1.657a.894.894 0 0 1 1.27.002l5.422 5.462a.916.916 0 0 1-.654 1.439.93.93 0 0 1-.6-.142L12.287 7.69l-.006-.007-.015-.017-2.563 2.564-.04.032q0 .003-.004.006l2.533 2.552a.91.91 0 0 1-.403 1.516.9.9 0 0 1-.87-.235l-1.297-1.306-.06-.063-.06-.06a2 2 0 0 1-.122-.154l.03.035-.02-.025a1.7 1.7 0 0 1-.255-.459m5.295 1.673-2.536-2.554a.91.91 0 0 1 .292-1.476.9.9 0 0 1 .98.198l1.297 1.306.062.062.059.06q.05.057.093.119l.015.018-.056-.078 1.696 1.708a.91.91 0 0 1 0 1.282l-2.045 2.046q-.064.045-.124.098l-1.705 1.705a.894.894 0 0 1-1.27 0l-5.51-5.555a.915.915 0 0 1 .12-1.22.9.9 0 0 1 1.217.007l4.8 4.846.015.02 2.558-2.558.038-.03z"/></g><defs><clipPath id="a"><path fill="#fff" d="M0 0h24v24H0z"/></clipPath></defs></svg>