<svg xmlns="http://www.w3.org/2000/svg" fill="none" viewBox="0 0 24 24"><g clip-path="url(#a)"><path fill="#96B73D" d="M12 24c6.627 0 12-5.373 12-12S18.627 0 12 0 0 5.373 0 12s5.373 12 12 12Z"/><path fill="#fff" d="M9.136 12.068c.056.168.138.325.245.467l-1.62-1.637a.91.91 0 0 1 0-1.28l2.044-2.046c.042-.031.082-.065.121-.1l.06-.052 1.655-1.657a.894.894 0 0 1 1.27.002l5.422 5.462a.916.916 0 0 1-.654 1.439.925.925 0 0 1-.6-.142L12.287 7.69l-.006-.007-.015-.017-2.563 2.564-.04.032c0 .002-.002.004-.004.006l2.533 2.552a.91.91 0 0 1-.403 1.516.895.895 0 0 1-.87-.235l-1.297-1.306c-.019-.017-.037-.04-.06-.063l-.06-.06a1.671 1.671 0 0 1-.122-.154l.03.035-.02-.025a1.645 1.645 0 0 1-.255-.459Zm5.295 1.673-2.536-2.554a.91.91 0 0 1 .292-1.476.896.896 0 0 1 .98.198l1.297 1.306c.019.017.037.04.062.062l.059.06c.033.038.065.078.093.119l.015.018a3.034 3.034 0 0 0-.056-.078l1.696 1.708a.91.91 0 0 1 0 1.282l-2.045 2.046a1.44 1.44 0 0 0-.124.098l-1.705 1.705a.894.894 0 0 1-1.27 0l-5.51-5.555a.915.915 0 0 1 .12-1.22.9.9 0 0 1 1.217.007l4.8 4.846.015.02 2.558-2.558.038-.03.004-.004Z"/></g><defs><clipPath id="a"><path fill="#fff" d="M0 0h24v24H0z"/></clipPath></defs></svg>