<svg xmlns="http://www.w3.org/2000/svg" fill="none" viewBox="0 0 24 24"><g clip-path="url(#a)"><path fill="#5E4778" d="M12 24c6.627 0 12-5.373 12-12S18.627 0 12 0 0 5.373 0 12s5.373 12 12 12"/><path fill="#fff" fill-rule="evenodd" d="M12.664 6H8.111v1.915l3.261-.01h1.168c.656 0 1.152.19 1.479.496.323.303.531.763.531 1.405 0 .653-.21 1.125-.536 1.436-.33.313-.829.509-1.491.509H8.306V18h2.03v-4.344h2.337c1.112 0 2.102-.367 2.817-1.05.717-.685 1.125-1.657 1.125-2.8 0-1.144-.41-2.107-1.13-2.781C14.767 6.353 13.775 6 12.665 6m-.096 2.936H7.385v1.792h5.183z" clip-rule="evenodd"/></g><defs><clipPath id="a"><path fill="#fff" d="M0 0h24v24H0z"/></clipPath></defs></svg>