<svg xmlns="http://www.w3.org/2000/svg" fill="none" viewBox="0 0 24 24"><g clip-path="url(#a)"><path fill="#00BFFF" d="M12 24c6.627 0 12-5.373 12-12S18.627 0 12 0 0 5.373 0 12s5.373 12 12 12"/><path fill="#fff" d="M7.067 15.186h-.064v2.664H5.5V8.831h1.469v.416h.058c.513-.491 1.166-.505 1.533-.505 1.536 0 2.544 1.465 2.544 3.42v.254c0 2.035-1.166 3.248-2.57 3.248-.658.002-1.144-.148-1.468-.478m2.641-2.65v-.443c0-1.274-.485-2.126-1.35-2.126-.935 0-1.436.99-1.436 2.126v.442c0 1.082.493 1.911 1.461 1.911.763-.003 1.325-.597 1.325-1.91M11.83 6.15h1.505v9.474H11.83zm5.804 4.166c-.844 0-1.682.67-1.682 1.516v3.798h-1.496V8.895h1.386v.414h.057c.337-.355 1.16-.521 1.838-.512.067 0 .011.002.077.002l.008 1.517zm-.632 3.696H18.5v1.612h-1.497z"/></g><defs><clipPath id="a"><path fill="#fff" d="M0 0h24v24H0z"/></clipPath></defs></svg>