<svg xmlns="http://www.w3.org/2000/svg" fill="none" viewBox="0 0 24 24"><path fill="#62757E" fill-rule="evenodd" d="M21.566 2.434a.8.8 0 0 1 0 1.132L19.62 5.512a4.34 4.34 0 0 1 .406 4.155 4.3 4.3 0 0 1-.965 1.403l-1.495 1.496a.8.8 0 0 1-1.132 0l-5-5a.8.8 0 0 1 0-1.132L12.93 4.94a4.336 4.336 0 0 1 5.558-.559l1.946-1.946a.8.8 0 0 1 1.132 0m-4.489 2.993a2.74 2.74 0 0 0-3.002.63l-.01.009-.934.934L17 10.869l.944-.944a2.735 2.735 0 0 0-.867-4.498m-6.511 5.007a.8.8 0 0 1 0 1.132L9.13 13 11 14.869l1.434-1.435a.8.8 0 0 1 1.132 1.132L12.13 16l.435.434a.8.8 0 0 1 0 1.132L11.07 19.06a4.335 4.335 0 0 1-5.558.559l-1.946 1.946a.8.8 0 0 1-1.132-1.132l1.946-1.946a4.34 4.34 0 0 1 .559-5.558l1.495-1.496a.8.8 0 0 1 1.132 0L8 11.87l1.434-1.435a.8.8 0 0 1 1.132 0M7 13.131l-.944.944a2.736 2.736 0 1 0 3.87 3.869l.008-.01.935-.934zm8.434 2.303a.8.8 0 0 1 1.132 0L18 16.87l1.434-1.435a.8.8 0 0 1 1.132 1.132L19.13 18l1.435 1.434a.8.8 0 0 1-1.132 1.132L18 19.13l-1.434 1.435a.8.8 0 0 1-1.132-1.132L16.87 18l-1.435-1.434a.8.8 0 0 1 0-1.132" clip-rule="evenodd"/></svg>