<svg xmlns="http://www.w3.org/2000/svg" fill="none" viewBox="0 0 24 24"><path fill="#62757E" fill-rule="evenodd" d="M15.566 4.566a.8.8 0 1 0-1.132-1.132l-3.041 3.042-1.042-1.042a.8.8 0 0 0-1.132 0L7.171 7.483a6.61 6.61 0 0 0-.618 8.833l-3.119 3.118a.8.8 0 0 0 1.132 1.132l3.118-3.119a6.6 6.6 0 0 0 4.139 1.405c.879-.009 1.504-.155 2.311-.503a.8.8 0 1 0-.634-1.469c-.612.264-1.027.365-1.693.372A5.01 5.01 0 0 1 8.285 8.63l.012-.011L9.785 7.13l7.369 7.369a.8.8 0 1 0 1.13-1.131l-.76-.761 3.042-3.042a.8.8 0 1 0-1.132-1.132l-3.042 3.042-3.868-3.868zm1 10.868a.8.8 0 1 0-1.132 1.132L16.87 18l-1.435 1.434a.8.8 0 1 0 1.132 1.132L18 19.13l1.434 1.435a.8.8 0 1 0 1.132-1.132L19.13 18l1.435-1.434a.8.8 0 1 0-1.132-1.132L18 16.87z" clip-rule="evenodd"/></svg>