<svg xmlns="http://www.w3.org/2000/svg" fill="none" viewBox="0 0 24 24"><path fill="#62757E" fill-rule="evenodd" d="M15.566 3.434a.8.8 0 0 1 0 1.132l-3.042 3.042 3.868 3.868 3.042-3.042a.8.8 0 0 1 1.132 1.132l-3.042 3.041 1.042 1.042a.8.8 0 0 1 0 1.132l-2.049 2.048a6.61 6.61 0 0 1-8.833.618l-3.118 3.119a.8.8 0 0 1-1.132-1.132l3.119-3.118a6.61 6.61 0 0 1 .618-8.833l2.048-2.049a.8.8 0 0 1 1.132 0l1.041 1.042 3.042-3.042a.8.8 0 0 1 1.132 0M9.785 7.131 8.297 8.62l-.012.01a5.01 5.01 0 1 0 7.084 7.084l.011-.01 1.489-1.489z" clip-rule="evenodd"/></svg>