<svg xmlns="http://www.w3.org/2000/svg" fill="none" viewBox="0 0 24 24"><path fill="#EF4056" fill-rule="evenodd" d="M21.768 1.626H2.316C1.053 1.626 0 2.566 0 3.79v6.984c0 6.33 5.39 11.6 12.042 11.6 6.61 0 11.958-5.27 11.958-11.6V3.79c0-1.226-1.01-2.165-2.232-2.165Z" clip-rule="evenodd"/><path fill="#fff" d="m13.136 15.512 5.727-5.227c.59-.613.59-1.634 0-2.288-.59-.571-1.642-.653-2.232 0l-4.59 4.207-4.504-4.207c-.632-.653-1.685-.571-2.316 0-.674.654-.59 1.675 0 2.288l5.642 5.227c.337.327.758.45 1.179.45.337 0 .8-.123 1.095-.45Z"/></svg>