<svg xmlns="http://www.w3.org/2000/svg" fill="none" viewBox="0 0 24 24"><path fill="#ef4056" d="M21.769 1.626c1.22 0 2.231.94 2.231 2.165v6.983c0 6.33-5.347 11.6-11.958 11.6C5.389 22.374 0 17.104 0 10.774V3.791c0-1.225 1.052-2.165 2.315-2.165zM2.5 10.774c0 4.873 4.192 9.1 9.542 9.1 5.29 0 9.458-4.21 9.458-9.1V4.126h-19zm13.337-2.129c.488-.54 1.358-.473 1.846 0 .487.541.487 1.386 0 1.893l-4.738 4.325c-.244.27-.627.371-.906.371-.348 0-.696-.1-.974-.37l-4.67-4.326c-.487-.507-.557-1.352 0-1.893.523-.473 1.394-.54 1.917 0l3.727 3.48z"/></svg>