<svg xmlns="http://www.w3.org/2000/svg" fill="none" viewBox="0 0 24 24"><g clip-path="url(#a)"><path fill="#DCD6CC" d="M12 24c6.627 0 12-5.373 12-12S18.627 0 12 0 0 5.373 0 12s5.373 12 12 12"/><path fill="#000" d="M17.693 6.626a2.78 2.78 0 0 0-1.96-.801c-.745 0-1.438.286-1.961.8l-6.406 6.31a.33.33 0 0 0-.095.248v3.247L5.5 18.175h.977l1.312-1.292h3.278a.33.33 0 0 0 .246-.105l6.374-6.278.006-.006A2.7 2.7 0 0 0 18.5 8.57a2.7 2.7 0 0 0-.807-1.944m-3.726.733.27-.267a2.1 2.1 0 0 1 1.495-.608 2.14 2.14 0 0 1 1.495.608c.006.007.013.019.025.025.384.391.592.9.592 1.447 0 .553-.22 1.074-.617 1.472l-.278.273h-2.478l1.627-1.603a.334.334 0 0 0 .013-.465c-.007-.006-.007-.013-.013-.019a.35.35 0 0 0-.485 0l-1.64 1.615V7.358zm-5.51 8.867 1.337-1.317h2.478l-1.337 1.317zm3.89-3.838 1.583-1.559h2.478l-1.583 1.559zm1.936.534-1.476 1.453H10.33l1.476-1.453zm-2.44-3.47 1.589-1.566v2.471l-1.589 1.571zm-2.017 1.986L11.3 9.985v2.471L9.826 13.91zM7.934 13.3l1.355-1.329v2.471l-1.355 1.329z"/></g><defs><clipPath id="a"><path fill="#fff" d="M0 0h24v24H0z"/></clipPath></defs></svg>