<svg xmlns="http://www.w3.org/2000/svg" fill="none" viewBox="0 0 24 24"><g clip-path="url(#a)"><path fill="#2C3E50" d="M12 24c6.627 0 12-5.373 12-12S18.627 0 12 0 0 5.373 0 12s5.373 12 12 12"/><path fill="#fff" d="M17.8 15.81v-.6c0-.12-.08-.199-.202-.199h-.4v-.603c0-.12-.08-.2-.198-.2h-.4V9.793h.397c.12 0 .201-.08.201-.201v-.6h.4a.193.193 0 0 0 .199-.162c.02-.1-.02-.179-.1-.221L12.1 5.803a.28.28 0 0 0-.18 0L6.12 8.61a.2.2 0 0 0-.1.219c0 .102.08.163.18.163h.6v.601c0 .119.08.198.2.198h.4v4.416H7c-.12 0-.201.08-.201.199v.603h-.4c-.12 0-.2.08-.2.199v.602c-.118 0-.2.08-.2.202 0 .121.08.2.199.2h11.6c.12 0 .201-.079.201-.198s-.08-.203-.198-.203zM7.197 9.392v-.4h9.598v.4zm8.198.402v4.413h-.798V9.794zm-2 0v4.413h-.8V9.794zm-2 0v4.413h-.798V9.794zm-2 0v4.413H8.6V9.794zm7.4 5.215H7.2v-.402h9.598v.402z"/></g><defs><clipPath id="a"><path fill="#fff" d="M0 0h24v24H0z"/></clipPath></defs></svg>