<svg xmlns="http://www.w3.org/2000/svg" fill="none" viewBox="0 0 24 24"><path fill="#1E1E1E" d="M12.12 3a6.847 6.847 0 0 0-6.46 9.034.975.975 0 0 0 1.199.598.97.97 0 0 0 .58-1.195 4.493 4.493 0 0 1-.266-1.739 4.92 4.92 0 1 1 5.216 5.059s-.957.058-1.433.117a5.05 5.05 0 0 0-.521.103.063.063 0 0 1-.09 0 .062.062 0 0 1 0-.077l.148-.808.899-4.043a.934.934 0 1 0-1.829-.391s-2.138 9.897-2.138 9.987a.898.898 0 0 0 .665 1.096h.049a.899.899 0 0 0 1.1-.67.198.198 0 0 1 0-.045c.028-.116.297-1.433.297-1.433a2.426 2.426 0 0 1 2.008-1.909 26.77 26.77 0 0 1 1.074-.09A6.816 6.816 0 0 0 12.119 3Z"/><path fill="#E6007A" d="M12.532 18.723a1.136 1.136 0 0 0-1.347.898 1.133 1.133 0 0 0 .867 1.348h.031a1.114 1.114 0 0 0 1.348-.836v-.063a1.177 1.177 0 0 0-.899-1.347Z"/></svg>