<svg xmlns="http://www.w3.org/2000/svg" fill="none" viewBox="0 0 24 24"><path fill="#62757E" d="M12 2.02c1.059 0 2.096.25 2.922.737.556.328 1.152.858 1.457 1.59.789-.096 1.544.166 2.097.486.83.48 1.558 1.262 2.084 2.184s.829 1.948.825 2.906c-.002.644-.158 1.437-.644 2.076.486.64.642 1.433.644 2.077.003.959-.299 1.984-.825 2.907-.526.922-1.255 1.703-2.084 2.183-.553.32-1.308.582-2.097.485-.304.733-.9 1.265-1.457 1.592-.826.487-1.863.736-2.923.736-1.059 0-2.096-.25-2.922-.736-.557-.327-1.153-.858-1.457-1.591-.788.096-1.543-.164-2.096-.485-.829-.48-1.557-1.262-2.083-2.184s-.828-1.948-.825-2.907c.002-.644.157-1.437.643-2.077-.486-.639-.641-1.43-.643-2.075-.004-.958.299-1.984.825-2.906s1.254-1.704 2.083-2.185c.553-.32 1.308-.582 2.096-.485.304-.733.9-1.263 1.456-1.59.826-.488 1.864-.737 2.923-.737m0 14.843c-1.65 0-2.986.787-2.986 1.758 0 .91 1.175 1.66 2.68 1.75l.305.008c1.649 0 2.986-.787 2.987-1.758 0-.91-1.176-1.66-2.682-1.75zm-4.16-2.431c-.825-1.445-2.167-2.223-2.998-1.738-.83.485-.836 2.05-.011 3.496.824 1.445 2.166 2.223 2.997 1.738.83-.486.835-2.051.011-3.496m11.319-1.738c-.831-.486-2.173.292-2.997 1.737l-.146.272c-.675 1.365-.621 2.769.157 3.224.78.455 2.007-.2 2.836-1.475l.161-.262c.825-1.445.82-3.01-.011-3.496m-5.12-4.292c-.633.22-1.33.335-2.04.335a6.3 6.3 0 0 1-2.039-.334 6.4 6.4 0 0 1-.731 1.959c-.36.63-.816 1.19-1.331 1.637a6.2 6.2 0 0 1 1.126 1.3l.207.339.187.35c.257.52.44 1.066.543 1.607a6.3 6.3 0 0 1 2.04-.333c.71 0 1.408.114 2.04.334a6.4 6.4 0 0 1 .733-1.96 6.4 6.4 0 0 1 1.33-1.638 6.3 6.3 0 0 1-1.33-1.637 6.4 6.4 0 0 1-.733-1.96m-6.211-2.33c-.831-.485-2.173.294-2.997 1.739l-.146.272c-.675 1.365-.621 2.768.157 3.223.78.455 2.007-.2 2.836-1.475l.161-.262c.825-1.445.819-3.01-.011-3.496M19.17 7.81c-.824-1.445-2.166-2.223-2.997-1.737-.83.485-.836 2.05-.011 3.496.824 1.444 2.166 2.222 2.997 1.737.778-.455.831-1.86.156-3.224zM12 3.62c-1.65 0-2.986.788-2.986 1.76 0 .91 1.175 1.658 2.68 1.748l.305.009c1.649 0 2.986-.787 2.987-1.758 0-.91-1.176-1.66-2.682-1.75z"/></svg>