<svg xmlns="http://www.w3.org/2000/svg" fill="none" viewBox="0 0 24 24"><path fill="#1E1E1E" d="M12.12 3a6.846 6.846 0 0 0-6.46 9.034.975.975 0 0 0 1.199.598.97.97 0 0 0 .58-1.195 4.493 4.493 0 0 1-.266-1.739 4.92 4.92 0 1 1 5.216 5.059s-.957.058-1.433.117c-.175.025-.35.06-.521.103a.062.062 0 0 1-.045.019.064.064 0 0 1-.045-.02.063.063 0 0 1 0-.076l.148-.808.899-4.043a.935.935 0 0 0-1.829-.391s-2.138 9.897-2.138 9.987a.899.899 0 0 0 .665 1.096h.05a.899.899 0 0 0 1.1-.67.198.198 0 0 1 0-.045 260.8 260.8 0 0 0 .296-1.433 2.425 2.425 0 0 1 2.008-1.909c.207-.032 1.074-.09 1.074-.09A6.815 6.815 0 0 0 12.12 3Z"/><path fill="#E6007A" d="M12.533 18.723a1.136 1.136 0 0 0-1.348.898 1.13 1.13 0 0 0 .867 1.348h.032a1.114 1.114 0 0 0 1.347-.836v-.063a1.177 1.177 0 0 0-.898-1.347Z"/></svg>