<svg xmlns="http://www.w3.org/2000/svg" fill="none" viewBox="0 0 24 24"><path fill="#FF2670" fill-rule="evenodd" d="M15.562 4.098c0 1.16-1.595 2.099-3.563 2.099-1.967 0-3.562-.94-3.562-2.099C8.437 2.94 10.032 2 11.999 2c1.968 0 3.563.94 3.563 2.098m0 15.804c0 1.159-1.595 2.098-3.563 2.098-1.967 0-3.562-.94-3.562-2.099 0-1.158 1.595-2.098 3.562-2.098 1.968 0 3.563.94 3.563 2.098M7.034 9.097c.983-1.725.977-3.592-.014-4.172S4.427 5.276 3.444 7s-.978 3.593.013 4.172c.992.58 2.593-.35 3.577-2.074m13.508 3.73c.992.58.998 2.447.014 4.172-.983 1.724-2.585 2.653-3.576 2.073-.992-.579-.998-2.447-.015-4.172.984-1.724 2.586-2.653 3.577-2.073M7.02 19.074c.992-.58.998-2.447.014-4.172s-2.585-2.653-3.577-2.074c-.991.58-.998 2.448-.014 4.172.984 1.725 2.585 2.654 3.577 2.074M20.556 7c.984 1.724.978 3.592-.014 4.172s-2.593-.35-3.577-2.074c-.984-1.725-.977-3.593.014-4.172.992-.58 2.593.349 3.577 2.074" clip-rule="evenodd"/></svg>