<svg xmlns="http://www.w3.org/2000/svg" fill="none" viewBox="0 0 24 24"><path fill="#62757E" d="M20.56 7.017c.527.922.829 1.948.826 2.906-.002.644-.159 1.437-.645 2.076.487.64.643 1.433.645 2.077.003.958-.3 1.984-.825 2.906-.526.922-1.256 1.703-2.084 2.184-.554.32-1.309.581-2.097.484-.305.734-.9 1.266-1.457 1.593-.826.487-1.864.735-2.923.736-1.059 0-2.096-.25-2.923-.736-.502-.295-1.037-.756-1.36-1.383l1.3-1.3q-.003.03-.002.061c0 .91 1.174 1.659 2.68 1.75l.305.008c1.648 0 2.986-.787 2.986-1.758 0-.91-1.176-1.66-2.681-1.75L12 16.862c-.563 0-1.089.094-1.538.253l1.845-1.844a6.2 6.2 0 0 1 1.733.326 6.4 6.4 0 0 1 .733-1.96A6.3 6.3 0 0 1 16.102 12a6 6 0 0 1-.271-.253l1.13-1.13c.743.734 1.602 1.038 2.198.69.755-.442.826-1.776.213-3.1zM12 2.02c1.06 0 2.096.25 2.923.736.556.327 1.152.858 1.457 1.59.637-.078 1.253.08 1.758.312l1.261-1.26A.85.85 0 0 1 20.602 4.6l-16 16a.85.85 0 0 1-1.203-1.203l1.065-1.065a6.5 6.5 0 0 1-1.023-1.35c-.526-.923-.828-1.949-.825-2.907.002-.644.157-1.438.644-2.077-.486-.639-.642-1.431-.644-2.075-.003-.958.3-1.984.825-2.906.526-.922 1.255-1.704 2.083-2.185.553-.32 1.308-.582 2.096-.485.305-.733.9-1.264 1.456-1.591.827-.487 1.865-.736 2.924-.736m7.16 10.672c-.832-.485-2.174.293-2.998 1.738l-.145.272c-.676 1.364-.622 2.768.157 3.224.779.454 2.006-.2 2.836-1.475l.16-.263c.825-1.444.82-3.01-.01-3.496m-11.32 1.74c-.824-1.445-2.166-2.223-2.997-1.739-.831.486-.836 2.051-.012 3.496.223.391.484.733.763 1.014l2.425-2.425a5 5 0 0 0-.18-.346m6.2-6.03a6.3 6.3 0 0 1-2.04.334 6.3 6.3 0 0 1-2.04-.334 6.4 6.4 0 0 1-.73 1.96 6.3 6.3 0 0 1-1.332 1.637c.422.366.804.807 1.124 1.3l.18.296 4.9-4.9a6 6 0 0 1-.063-.294m-6.212-2.33c-.83-.485-2.173.294-2.997 1.739l-.145.272c-.676 1.364-.622 2.768.157 3.223.779.454 2.006-.2 2.836-1.475l.16-.263c.825-1.444.82-3.01-.01-3.496m9.032-.135a1.12 1.12 0 0 0-.686.135c-.366.214-.57.637-.615 1.166zM12 3.62c-1.648 0-2.985.788-2.985 1.759 0 .91 1.174 1.659 2.68 1.749l.305.009c1.648 0 2.986-.787 2.986-1.758 0-.91-1.176-1.66-2.681-1.75z"/></svg>