<svg xmlns="http://www.w3.org/2000/svg" fill="none" viewBox="0 0 24 24"><g clip-path="url(#a)"><path fill="url(#b)" d="M2 3.376v17.248C2 21.384 2.616 22 3.376 22h17.248c.76 0 1.376-.616 1.376-1.376V3.376C22 2.616 21.384 2 20.624 2H3.376C2.616 2 2 2.616 2 3.376"/><path fill="url(#c)" d="M4.5 6.981h3.142l3.652 5.353-1.76.391-1.464-.39z"/><path fill="url(#d)" d="M4.335 17.687h3.142l3.817-5.353H8.07z"/><path fill="url(#e)" d="M9.113 6.981h3.143l3.652 5.353-1.727.413-1.5-.413z"/><path fill="url(#f)" d="M16.34 6.981h3.143L16.62 11.3l-1.613-2.364z"/><path fill="url(#g)" d="M13.676 6.981h1.21l-.595.9z"/><path fill="url(#h)" d="M16.523 17.687h3.143l-3.034-4.369-1.624 2.258z"/><path fill="url(#i)" d="M13.49 17.687h1.576l-.779-1.109z"/><path fill="url(#j)" d="M8.949 17.687h3.11l3.849-5.353H12.68z"/></g><defs><linearGradient id="b" x1="12" x2="12" y1="22" y2="2" gradientUnits="userSpaceOnUse"><stop stop-color="#D1D5D8"/><stop offset="1" stop-color="#FDFCFD"/></linearGradient><linearGradient id="c" x1="5.478" x2="8.568" y1="6.253" y2="12.069" gradientUnits="userSpaceOnUse"><stop stop-color="#73A2A8"/><stop offset="1" stop-color="#71B5BF"/></linearGradient><linearGradient id="d" x1="5.339" x2="8.389" y1="17.028" y2="11.405" gradientUnits="userSpaceOnUse"><stop stop-color="#699699"/><stop offset="1" stop-color="#73A4A6"/></linearGradient><linearGradient id="e" x1="10.072" x2="12.953" y1="6.467" y2="11.868" gradientUnits="userSpaceOnUse"><stop stop-color="#005661"/><stop offset="1" stop-color="#048293"/></linearGradient><linearGradient id="f" x1="16.033" x2="16.033" y1="10.608" y2="6.41" gradientUnits="userSpaceOnUse"><stop stop-color="#676F74"/><stop offset="1" stop-color="#3B444A"/></linearGradient><linearGradient id="g" x1="13.152" x2="13.152" y1="6.41" y2="7.285" gradientUnits="userSpaceOnUse"><stop stop-color="#93989C"/><stop offset="1" stop-color="#AAAFB2"/></linearGradient><linearGradient id="h" x1="16.482" x2="14.756" y1="16.339" y2="13.717" gradientUnits="userSpaceOnUse"><stop stop-color="#3B444A"/><stop offset="1" stop-color="#3B444A"/></linearGradient><linearGradient id="i" x1="13.148" x2="13.148" y1="16.819" y2="15.741" gradientUnits="userSpaceOnUse"><stop stop-color="#858B8F"/><stop offset="1" stop-color="#868D90"/></linearGradient><linearGradient id="j" x1="9.904" x2="12.795" y1="16.892" y2="11.543" gradientUnits="userSpaceOnUse"><stop stop-color="#08575C"/><stop offset="1" stop-color="#096166"/></linearGradient><clipPath id="a"><path fill="#fff" d="M2 2h20v20H2z"/></clipPath></defs></svg>