<svg xmlns="http://www.w3.org/2000/svg" fill="none" viewBox="0 0 24 24"><path fill="#3F4B80" d="m19.279 8.07-.86-.628L20.43 6.42l-1.15 1.65Z"/><path fill="#313A62" d="m14.166 6 2.505 1.295.3 2.09L14.166 6Z"/><path fill="#3F4B80" d="m16.971 9.385-.4 1.777L14.167 6l2.805 3.385Z"/><path fill="#4B5897" d="m16.572 11.162-3.835-4.869 1.433-.283 2.402 5.152Z"/><path fill="#5161A4" d="m16.572 11.163-4.16-1.636.325-3.234 3.835 4.87Z"/><path fill="#4B5897" d="m12.737 6.293-.324 3.234-4.287.605 4.61-3.839Z"/><path fill="#4B5897" d="m16.572 11.162-4.587 1.253.428-2.889 4.159 1.636Z"/><path fill="#3F4B80" d="m11.985 12.415 4.587-1.253-2.068.97-2.519.283Zm-2.533.435 2.533-.435.042.87-2.575-.435Z"/><path fill="#313A62" d="m12.027 13.285-.042-.87 2.519-.283-2.477 1.153Z"/><path fill="#3F4B80" d="m8.126 10.132 4.287-.606-.428 2.889-3.859-2.283Z"/><path fill="#4B5897" d="m8.126 10.132 3.859 2.284-2.533.435-1.326-2.719Z"/><path fill="#313A62" d="m8.126 10.132 1.326 2.719-1.279.94-.047-3.659Z"/><path fill="#5161A4" d="m5.95 10.864.513 3.096-1.41-2.132.898-.964Z"/><path fill="#313A62" d="m3.427 11.848 1.626-.02.01.998-1.636-.978Z"/><path fill="#3F4B80" d="m3.558 12.524-.131-.676 1.635.978-1.504-.302Z"/><path fill="#4B5897" d="m3.558 12.524-.93.827.799-1.503.131.676Z"/><path fill="#313A62" d="m2.628 13.35-.066.502-1.062-.175 1.128-.326Z"/><path fill="#5161A4" d="m2.628 13.351.93-.827-.996 1.328.066-.5Z"/><path fill="#3F4B80" d="m5.053 11.829 1.41 2.132-1.4.279-.01-2.411Zm.413 3.999-1.02 2.123-.15-1.636 1.17-.487Z"/><path fill="#1F243E" d="m4.296 16.315.15 1.636-.587.284.437-1.92Z"/><path fill="#3F4B80" d="m4.447 17.951.155.8-1.213.25 1.058-1.05Z"/><path fill="#313A62" d="m3.86 18.235.587-.284-1.058 1.05.47-.766Zm1.202-3.995 1.4-.278-2.166 2.354.766-2.075Z"/><path fill="#4B5897" d="m6.463 13.962.954 1.092-3.12 1.262 2.166-2.354Zm-.513-3.097 2.177-.733-1.664 3.83-.512-3.097Z"/><path fill="#3F4B80" d="m6.463 13.961 1.664-3.829.047 3.66-1.711.17Z"/><path fill="#313A62" d="m7.417 15.053-.954-1.092 1.71-.17-.756 1.262Z"/><path fill="#4B5897" d="m14.504 12.132 2.016-.014-1.287 1.976-.729-1.962Z"/><path fill="#5161A4" d="m14.504 12.132 2.068-.97-.052.955-2.016.014Z"/><path fill="#3F4B80" d="m14.11 13.881.394-1.75.729 1.963-1.124-.213Z"/><path fill="#4B5897" d="m13.625 14.798.484-.917 1.123.212-1.607.705Z"/><path fill="#3F4B80" d="m12.648 15.455.305-1.504 1.156-.07-1.461 1.574Z"/><path fill="#313A62" d="m12.648 15.455 1.461-1.574-.484.917-.977.657Z"/><path fill="#495692" d="m18.419 7.442 1.917-1.352.094.331-2.011 1.021Z"/><path fill="#5D6CAC" d="m20.336 6.09 1.57-.08-1.476.41-.094-.33Z"/><path fill="#4F60A3" d="m19.33 9.177-.874-.619 2.957.005-2.082.614Z"/><path fill="#495692" d="M18.456 8.557 21 8.227l.414.335-2.957-.005Z"/><path fill="#3F4B80" d="m20.999 8.227 1.166-1.026-.752 1.362-.414-.336Z"/><path fill="#4F60A3" d="m21.413 8.563.752-1.362.249.118-1.001 1.244Z"/><path fill="#313A62" d="m22.165 7.2.207-.59.042.709-.25-.118Zm-5.194 2.185.282 2.486-.681-.709.4-1.777Z"/><path fill="#3F4B80" d="m17.253 11.872-.282-2.487 2.36-.208-2.078 2.695Z"/><path fill="#4B5897" d="m19.33 9.177-2.359.208-.3-2.09 2.66 1.882Z"/><path fill="#313A62" d="m19.279 8.07.38.346-1.203.142.823-.487Z"/><path fill="#3F4B80" d="m16.67 7.295 2.609.775-.823.487-1.785-1.262Z"/><path fill="#313A62" d="m16.67 7.295 1.749.147.86.628-2.608-.775Z"/><path fill="#3F4B80" d="m19.223 13.11.108-3.933.94.77-1.049 3.163Z"/><path fill="#495692" d="m19.223 13.11.108-3.933-2.078 2.695 1.97 1.238Z"/><path fill="#313A62" d="m20.27 9.948-.3-.984-.64.213.94.77Zm.128 2.618-1.175.544 1.048-3.163.127 2.619Z"/></svg>