<svg xmlns="http://www.w3.org/2000/svg" fill="none" viewBox="0 0 24 24"><path fill="#8247E5" d="M16.583 8.914c-.332-.196-.764-.196-1.13 0l-2.59 1.5-1.76.98-2.59 1.5c-.332.195-.764.195-1.13 0l-2.058-1.175c-.332-.195-.565-.554-.565-.946V8.457c0-.391.2-.75.565-.946L7.35 6.37c.332-.195.763-.195 1.129 0l2.025 1.142c.333.196.565.555.565.946v1.5l1.76-1.01V7.445c0-.392-.199-.75-.564-.946L8.513 4.347c-.332-.196-.764-.196-1.13 0L3.566 6.5A1.06 1.06 0 0 0 3 7.446v4.339c0 .391.2.75.565.946l3.819 2.153c.332.195.764.195 1.129 0l2.59-1.468 1.76-1.012 2.59-1.468a1.16 1.16 0 0 1 1.13 0l2.026 1.142c.332.196.564.555.564.946v2.316c0 .392-.199.75-.564.946l-2.026 1.175c-.332.196-.764.196-1.13 0l-2.025-1.142c-.332-.196-.565-.555-.565-.946v-1.5l-1.76 1.01v1.501c0 .392.2.75.565.946l3.82 2.153c.331.196.763.196 1.128 0l3.82-2.153c.331-.195.564-.554.564-.946v-4.338c0-.392-.2-.75-.565-.946z"/></svg>