<svg xmlns="http://www.w3.org/2000/svg" fill="none" viewBox="0 0 24 24"><path fill="#3F4B80" d="m19.279 8.07-.86-.628L20.43 6.42z"/><path fill="#313A62" d="m14.166 6 2.505 1.295.3 2.09z"/><path fill="#3F4B80" d="m16.971 9.385-.4 1.777L14.166 6z"/><path fill="#4B5897" d="m16.572 11.162-3.835-4.869 1.433-.284z"/><path fill="#5161A4" d="m16.572 11.163-4.16-1.636.325-3.234z"/><path fill="#4B5897" d="m12.737 6.293-.324 3.234-4.287.605z"/><path fill="#4B5897" d="m16.572 11.162-4.587 1.253.428-2.889z"/><path fill="#3F4B80" d="m11.985 12.415 4.587-1.253-2.068.97zm-2.533.435 2.533-.435.043.87z"/><path fill="#313A62" d="m12.027 13.285-.042-.87 2.519-.283z"/><path fill="#3F4B80" d="m8.126 10.131 4.287-.605-.428 2.889z"/><path fill="#4B5897" d="m8.126 10.132 3.859 2.284-2.533.435z"/><path fill="#313A62" d="m8.126 10.132 1.326 2.719-1.279.94z"/><path fill="#5161A4" d="m5.95 10.864.513 3.097-1.41-2.133z"/><path fill="#313A62" d="m3.427 11.848 1.626-.02.01.998z"/><path fill="#3F4B80" d="m3.558 12.524-.131-.676 1.635.978z"/><path fill="#4B5897" d="m3.558 12.524-.93.827.799-1.503z"/><path fill="#313A62" d="m2.628 13.35-.066.502-1.062-.175z"/><path fill="#5161A4" d="m2.628 13.351.93-.827-.996 1.328z"/><path fill="#3F4B80" d="m5.053 11.829 1.41 2.132-1.4.279zm.414 3.999-1.02 2.123-.15-1.636z"/><path fill="#1F243E" d="m4.296 16.315.15 1.636-.587.284z"/><path fill="#3F4B80" d="m4.447 17.951.155.8-1.213.25z"/><path fill="#313A62" d="m3.86 18.235.587-.284-1.058 1.05zm1.202-3.995 1.4-.279-2.166 2.355z"/><path fill="#4B5897" d="m6.463 13.962.954 1.092-3.12 1.262zm-.513-3.097 2.177-.733-1.664 3.83z"/><path fill="#3F4B80" d="m6.463 13.962 1.664-3.83.047 3.66z"/><path fill="#313A62" d="m7.417 15.053-.954-1.092 1.71-.17z"/><path fill="#4B5897" d="m14.504 12.132 2.016-.014-1.288 1.976z"/><path fill="#5161A4" d="m14.504 12.132 2.068-.97-.052.955z"/><path fill="#3F4B80" d="m14.11 13.881.394-1.75.729 1.963z"/><path fill="#4B5897" d="m13.625 14.798.484-.917 1.123.213z"/><path fill="#3F4B80" d="m12.648 15.455.305-1.503 1.157-.071z"/><path fill="#313A62" d="m12.648 15.455 1.462-1.574-.484.917z"/><path fill="#495692" d="m18.419 7.442 1.917-1.352.094.331z"/><path fill="#5D6CAC" d="m20.336 6.09 1.57-.08-1.476.41z"/><path fill="#4F60A3" d="m19.33 9.177-.873-.619 2.956.005z"/><path fill="#495692" d="m18.457 8.557 2.542-.33.414.335z"/><path fill="#3F4B80" d="m20.999 8.227 1.166-1.026-.752 1.362z"/><path fill="#4F60A3" d="m21.413 8.563.752-1.362.249.118z"/><path fill="#313A62" d="m22.165 7.2.206-.59.043.709zm-5.194 2.185.282 2.486-.681-.709z"/><path fill="#3F4B80" d="m17.254 11.872-.282-2.487 2.359-.208z"/><path fill="#4B5897" d="m19.33 9.177-2.359.208-.3-2.09z"/><path fill="#313A62" d="m19.279 8.07.38.346-1.203.142z"/><path fill="#3F4B80" d="m16.67 7.295 2.609.775-.823.487z"/><path fill="#313A62" d="m16.67 7.295 1.749.147.86.628z"/><path fill="#3F4B80" d="m19.223 13.11.108-3.933.94.77z"/><path fill="#495692" d="m19.223 13.11.108-3.933-2.078 2.695z"/><path fill="#313A62" d="m20.27 9.948-.3-.984-.64.213zm.128 2.618-1.175.543 1.048-3.162z"/></svg>