<svg xmlns="http://www.w3.org/2000/svg" fill="none" viewBox="0 0 24 24"><g clip-path="url(#a)"><path fill="#4C5A95" d="M12 24c6.627 0 12-5.373 12-12S18.627 0 12 0 0 5.373 0 12s5.373 12 12 12"/><path fill="#fff" d="m20 8.191-.032-.514-.159.431-.891.75-1.021.151-.306-.282.895-1.188.917-.266-.992.02-1.442 1.005-1.352-.093-1.899-.932-1.12.217-3.5 2.797-1.686.522-.693.677-1.241.016-.615 1.099-.863.238.816.107.759-.984 1.172.235-.022 1.053-.585 1.516-.335 1.402-.36.56.914-.194-.104-.573.776-1.54 1.496-.58.578-.922.979-.684 1.941.273 1.956-.826-.33 1.306-.87.075-.249 1.07.744-.476 1.234-.514.963-1.454.061-.687.518.514 1.506.909.857-.39-.05-1.92-.25-.743 1.12-.272z"/></g><defs><clipPath id="a"><path fill="#fff" d="M0 0h24v24H0z"/></clipPath></defs></svg>