<svg xmlns="http://www.w3.org/2000/svg" fill="none" viewBox="0 0 24 24"><g clip-path="url(#a)"><path fill="#105B2F" d="M12 24c6.627 0 12-5.373 12-12S18.627 0 12 0 0 5.373 0 12s5.373 12 12 12Z"/><path fill="#fff" fill-rule="evenodd" d="m9.025 13.635-.293 1.49-.532 2.738c-.015.083-.036.138-.141.137-.662-.01-1.323-.015-1.985-.023-.015 0-.032-.01-.074-.026l1.492-7.455H6.236c.003-.055.001-.088.007-.12.077-.403.16-.805.23-1.209.02-.112.07-.14.175-.14.308.003.615-.008.921.002.147.005.203-.037.231-.181.171-.891.354-1.78.53-2.669.02-.106.044-.178.182-.178 1.506.004 3.013-.01 4.519.01.879.01 1.76.056 2.625.233.298.062.6.141.876.264.793.353 1.271.963 1.404 1.809.206 1.313-.072 2.52-.915 3.571-.623.774-1.476 1.208-2.43 1.472-.755.21-1.531.275-2.313.276-1.016.003-2.032 0-3.048 0h-.204v-.001Zm.416-2.054h.212c1.075 0 2.15.003 3.225-.001.229 0 .46-.01.688-.038.868-.103 1.527-.52 1.948-1.275.181-.327.242-.708.172-1.075-.088-.523-.4-.864-.93-.96a7.368 7.368 0 0 0-1.177-.128c-1.104-.02-2.208-.012-3.313-.015-.04 0-.08.006-.133.01l-.183.937h3.068l-.282 1.453H9.658l-.217 1.092Z" clip-rule="evenodd"/></g><defs><clipPath id="a"><path fill="#fff" d="M0 0h24v24H0z"/></clipPath></defs></svg>