<svg xmlns="http://www.w3.org/2000/svg" fill="none" viewBox="0 0 24 24"><path fill="#62757E" fill-rule="evenodd" d="M11.167 22C6.113 22 2 17.987 2 13.054c0-3.89 2.58-7.313 6.418-8.517a.833.833 0 0 1 .498 1.591c-3.091.97-5.25 3.817-5.25 6.926 0 4.014 3.365 7.28 7.5 7.28 4.136 0 7.5-3.266 7.5-7.28 0-3.109-2.158-5.957-5.248-6.926a.833.833 0 0 1 .498-1.59c3.838 1.203 6.417 4.625 6.417 8.516 0 4.933-4.112 8.946-9.166 8.946Zm0-13.333a.833.833 0 0 1-.834-.834v-5a.833.833 0 1 1 1.667 0v5c0 .46-.373.834-.833.834Z" clip-rule="evenodd"/></svg>