<svg xmlns="http://www.w3.org/2000/svg" fill="none" viewBox="0 0 24 24"><g clip-path="url(#a)"><path fill="#05BCA9" d="M12 24c6.627 0 12-5.373 12-12S18.627 0 12 0 0 5.373 0 12s5.373 12 12 12Z"/><path fill="#fff" fill-rule="evenodd" d="M18.997 11.974a.12.12 0 0 1-.066.134l-.045.021-1.345 1.35.522 1.95a.12.12 0 0 1-.085.147l-1.872.503-.516 1.93a.12.12 0 0 1-.146.086l-1.978-.53-1.399 1.4a.117.117 0 0 1-.084.036.118.118 0 0 1-.085-.035l-1.382-1.386-1.914.515a.121.121 0 0 1-.091-.012.119.119 0 0 1-.055-.073l-.517-1.93-1.872-.503a.118.118 0 0 1-.087-.1.12.12 0 0 1 .003-.047l.504-1.889-1.452-1.457a.12.12 0 0 1 0-.169l1.412-1.417-.504-1.887a.12.12 0 0 1 .085-.147l1.957-.527.51-1.907a.12.12 0 0 1 .147-.085l1.851.497 1.405-1.408a.122.122 0 0 1 .17 0l1.421 1.424 1.915-.514a.12.12 0 0 1 .146.085l.013.05a.125.125 0 0 1 .007.024l.49 1.834 1.958.526a.12.12 0 0 1 .084.147l-.521 1.95 1.316 1.32a.12.12 0 0 1 .1.093ZM17.47 13.21l.786-.786-.885.412.1.375Zm.287 2-.41-1.536-.815.817 1.225.719Zm-1.29-.479-.288 1.08 1.461-.392-1.172-.687Zm-1.048 2.996.421-1.576-1.151.309.73 1.267Zm-1.461-.656-.296.297 1.16.312-.864-.609Zm-1.855 1.52 1.097-1.1-1.097-.294v1.394Zm-.239-1.372-1.08.29 1.08 1.082V17.22Zm-3.027.564 1.485-.398-.795-.798-.69 1.196Zm-.63-1.632.33 1.233.099-1.118-.429-.115Zm-1.803-.732 1.465.393-.292-1.09-1.173.697Zm1.055-.905-.775-.777-.393 1.47 1.168-.693Zm-2.03-2.374 1.131 1.134.303-1.134H5.427Zm1.213-.919-.122-.455-.953.956 1.075-.5ZM6.25 8.828l.394 1.474.787-.789-1.181-.685Zm1.364.502.3-1.125-1.545.415 1.237.717.008-.007Zm1.033-2.94-.394 1.476 1.078-.29-.684-1.186Zm1.367.534.285-.286-1.118-.3.833.586Zm1.85-1.516-1.102 1.106 1.102.296V5.408Zm.24 1.424 1.12-.301-1.12-1.123v1.424Zm3.147-.598-1.566.42.84.842.726-1.262Zm.177 1.534.366.098-.281-1.055-.085.957Zm2.246.851-1.541-.414.297 1.115 1.243-.701Zm-1.123.909.835.837.413-1.542-1.248.705Zm2.008 2.351-1.048-1.05-.282 1.05h1.33Zm-1.38.24.128.481 1.033-.481h-1.162Zm-.181.625.09-.04-.04-.146-.05.186Zm-.08.303-.263.98.62-.621-.125-.468-.233.108Zm-.725 1.783-1.332 1.335 1.05-.282.282-1.053Zm-1.672 1.338 1.796-1.801.317-1.189-3.023 1.41.91 1.58Zm-.051.39-.34.34.9.635-.56-.975Zm-.637.132.098.069.13-.131-.228.062Zm-.302.08-1.045.281.91.245.364-.366-.228-.16Zm-1.97.281L9.876 16.6l.712.714.972-.262Zm-2.658-1.09-.012.125.185.05-.173-.174Zm-.221-.221-.799-.8.252.944.522.14.025-.283v-.001Zm-1.26-1.603-.423-1.58-.244.912.666.668ZM6.821 11.9l-.119-.444-.952.444h1.071Zm.27-.626-.168.08.074.277.095-.357Zm.082-.301.315-1.18-.775.777.147.548.313-.145ZM7.95 8.99l1.085-1.087-.856.23-.229.858Zm1.566-1.569.324-.325-.86-.606.536.931Zm.677-.077-.154-.108-.204.204.358-.096Zm.301-.081 1.065-.286-.995-.267-.353.353.283.2Zm1.99-.286 1.615.434-.682-.684-.934.25Zm2.67 1.152.016-.182-.27-.073.254.255Zm.22.221.748.75-.259-.967-.459-.123-.03.34Zm1.21 1.552.462 1.73.267-.999-.73-.73Zm-3.368 4.003.273.474 3.225-1.502.202-.758H15.04l-.095 1.07a.12.12 0 0 1-.221.051l-.583-.986-.925 1.65Zm-.458.815.513-.24-.192-.332-.32.572Zm-2.033-.216 2.85 2.007.749-.202-.933-1.62-.868.405a.12.12 0 0 1-.155-.168l.544-.97-1.884.02-.303.527Zm-.12.208-.916 1.59 2.333.626 1.252-.337-2.67-1.879Zm.145-.732-.757.009.535.376.222-.385Zm-1.51-1.84-.31 3.51.544.546.935-1.623-.857-.602a.12.12 0 0 1 .068-.218l1.158-.014-.946-1.6H9.24Zm-.24 0H7.135l.624 2.336.95.953.293-3.29Zm.69-.24-.373-.631-.056.631h.43Zm.846-2.23-3.16 1.473-.202.757h1.848l.09-1.023a.12.12 0 0 1 .222-.05l.585.99.914-1.63-.298-.516h.001Zm-.12-.208-.951-1.65-1.638 1.642-.37 1.387 2.959-1.379Zm2.92.095L10.45 7.524l-.756.203.94 1.634.934-.435a.12.12 0 0 1 .154.168l-.546.973 1.88-.021.282-.49Zm.12-.21.93-1.61-2.364-.636-1.271.342 2.706 1.905Zm-.123.695.683-.007-.483-.34-.2.348Zm1.468 2.078h-.46l.4.677.06-.678Zm-3.832-2.176.362-.644-.577.269.215.375Zm2.079 3.772.953-1.7-1.018-1.723-.003-.006-1.94.021-.98 1.747.994 1.682 1.982-.023.012.002Zm2.3-5.054-.286 3.218h1.804l-.62-2.316-.898-.902Zm-.525 3.218.304-3.44-.552-.553-.922 1.6.805.565a.12.12 0 0 1-.068.219l-1.134.012.943 1.597h.623Zm.369-4.175.093-1.052-.537.932.444.12Zm-6.323 8.624-.096 1.084.554-.961-.458-.123Z" clip-rule="evenodd"/></g><defs><clipPath id="a"><path fill="#fff" d="M0 0h24v24H0z"/></clipPath></defs></svg>