<svg xmlns="http://www.w3.org/2000/svg" fill="none" viewBox="0 0 24 24"><g clip-path="url(#a)"><path fill="#3CB054" d="M12 24c6.627 0 12-5.373 12-12S18.627 0 12 0 0 5.373 0 12s5.373 12 12 12"/><path fill="#fff" fill-rule="evenodd" d="M7 6c8.062.298 11.17 5.137 9.61 9.455-.442 1.202-.912 1.86-1.9 2.545.04-.173.081-.347.113-.525.584-3.368-.523-7.422-5.941-9.662 4.31 2.566 6.05 7.13 4.04 10.077C9.5 18.428 7 15.506 7 12.14z" clip-rule="evenodd"/></g><defs><clipPath id="a"><path fill="#fff" d="M0 0h24v24H0z"/></clipPath></defs></svg>