<svg xmlns="http://www.w3.org/2000/svg" fill="none" viewBox="0 0 24 24"><g clip-path="url(#a)"><path fill="#348F8D" d="M12 24c6.627 0 12-5.373 12-12S18.627 0 12 0 0 5.373 0 12s5.373 12 12 12Z"/><path fill="#fff" d="M16.752 6.179a.864.864 0 0 1 0 1.2l-2.034 2.085a.837.837 0 0 1-.223.163.773.773 0 0 1-.937-.137l-2.027-2.076-3.902 4.003.942.964a.76.76 0 0 1-.005 1.053.718.718 0 0 1-1.028.004l-1.499-1.53a.763.763 0 0 1 0-1.06l.01-.01a.132.132 0 0 0 .01-.01l4.955-5.082h.001l.017-.017a.746.746 0 0 1 .967-.092.8.8 0 0 1 .13.108l1.94 1.985 1.512-1.551a.815.815 0 0 1 1.172 0h-.001Zm1.207 5.916a.757.757 0 0 1 .001 1.057l-.01.01a.151.151 0 0 0-.01.01l-4.975 5.1a.745.745 0 0 1-1.14-.079l-1.896-1.94L8.426 17.8a.815.815 0 0 1-.801.223.84.84 0 0 1-.588-.601.862.862 0 0 1 .218-.82l2.033-2.086a.811.811 0 0 1 .428-.235.779.779 0 0 1 .727.218l2.032 2.079 3.895-3.993-.942-.964a.76.76 0 0 1 .004-1.053.719.719 0 0 1 1.029-.005l1.477 1.511.001.002.002.001.018.019Z"/></g><defs><clipPath id="a"><path fill="#fff" d="M0 0h24v24H0z"/></clipPath></defs></svg>