<svg xmlns="http://www.w3.org/2000/svg" fill="none" viewBox="0 0 24 24"><g clip-path="url(#a)"><path fill="#348F8D" d="M12 24c6.627 0 12-5.372 12-12 0-6.627-5.373-12-12-12S0 5.373 0 12c0 6.628 5.373 12 12 12"/><path fill="#fff" d="M16.752 6.18a.864.864 0 0 1 0 1.199l-2.034 2.086a.8.8 0 0 1-.223.162.774.774 0 0 1-.937-.137l-2.026-2.076-3.903 4.003.942.964a.76.76 0 0 1-.004 1.053.72.72 0 0 1-1.029.004L6.04 11.91a.763.763 0 0 1 0-1.06l.01-.01.01-.01 4.954-5.083h.001l.017-.017A.746.746 0 0 1 12 5.637a1 1 0 0 1 .13.109l1.94 1.984 1.511-1.551a.816.816 0 0 1 1.172 0m1.208 5.915a.757.757 0 0 1 0 1.057l-.01.01-.01.01-4.975 5.1a.747.747 0 0 1-1.14-.079l-1.895-1.94L8.426 17.8a.81.81 0 0 1-.801.223.84.84 0 0 1-.588-.601.86.86 0 0 1 .218-.82l2.034-2.086a.8.8 0 0 1 .427-.235.78.78 0 0 1 .727.218l2.032 2.079 3.896-3.993-.943-.964a.76.76 0 0 1 .005-1.053.72.72 0 0 1 1.028-.005l1.477 1.511.002.002.002.001z"/></g><defs><clipPath id="a"><path fill="#fff" d="M0 0h24v24H0z"/></clipPath></defs></svg>