<svg xmlns="http://www.w3.org/2000/svg" fill="none" viewBox="0 0 24 24"><g clip-path="url(#a)"><path fill="#3A8CBD" d="M12 24c6.627 0 12-5.373 12-12S18.627 0 12 0 0 5.373 0 12s5.373 12 12 12Z"/><path fill="#fff" d="M10.31 13.385h1.122c.321.001.638-.07.928-.206a2.33 2.33 0 0 0 .72-.553c.2-.238.354-.51.457-.803a2.62 2.62 0 0 0 .166-.928c.002-.31-.06-.616-.18-.9a2.77 2.77 0 0 0-.485-.79 2.432 2.432 0 0 0-.734-.566 1.988 1.988 0 0 0-.925-.222H8.431v7.156h1.882l-.002-2.188Zm0-3.24h.955a.515.515 0 0 1 .346.167c.111.11.18.305.18.609s-.068.485-.167.583a.426.426 0 0 1-.317.166h-.996v-1.524Z"/><path fill="#fff" d="M6 6.69v10.62a.69.69 0 0 0 .69.689h10.62c.38 0 .689-.308.689-.689V6.69A.688.688 0 0 0 17.31 6H6.69a.689.689 0 0 0-.69.689Zm9.897 9.897H8.088a.688.688 0 0 1-.689-.689V8.089a.689.689 0 0 1 .69-.689h7.808c.381 0 .689.308.689.689v7.808c0 .382-.308.69-.689.69Z"/><path fill="#fff" d="M11.155 14.23h4.418v1.357h-4.418V14.23Z"/></g><defs><clipPath id="a"><path fill="#fff" d="M0 0h24v24H0z"/></clipPath></defs></svg>