<svg xmlns="http://www.w3.org/2000/svg" fill="none" viewBox="0 0 24 24"><path fill="#EEF6FF" d="M19.516 16.46a11.638 11.638 0 0 1-2.635 2.65 27.409 27.409 0 0 1-4.75 2.85.277.277 0 0 1-.284 0 28.343 28.343 0 0 1-4.487-2.667c-1-.71-1.89-1.552-2.644-2.5a4.467 4.467 0 0 1-1.032-2.426V6.856c0-.53 0-1.058-.017-1.587 0-.208.097-.273.285-.341 1.65-.6 3.297-1.204 4.94-1.811.984-.36 1.962-.729 2.949-1.091a.53.53 0 0 1 .325 0c1.911.695 3.82 1.401 5.73 2.102.736.279 1.477.545 2.222.8a.286.286 0 0 1 .164.107c.039.054.057.12.05.184v8.714a4.232 4.232 0 0 1-.816 2.526Z"/><path fill="url(#a)" fill-rule="evenodd" d="M17.402 18.71c.431-.352.836-.733 1.21-1.139.235-.25.459-.51.672-.779a4.466 4.466 0 0 0 1.032-2.425l.016-.433v-8.62l.001-.045-.001-.042v-.008a.264.264 0 0 0-.05-.184.286.286 0 0 0-.164-.107 72.974 72.974 0 0 1-2.222-.8 693.43 693.43 0 0 1-2.018-.742c-1.237-.455-2.474-.91-3.712-1.36a.528.528 0 0 0-.332 0c-1.238.45-2.474.905-3.711 1.36-.673.248-1.346.496-2.02.742a72.96 72.96 0 0 1-2.221.8.286.286 0 0 0-.164.107.264.264 0 0 0-.05.184v.008a.579.579 0 0 0 0 .087v8.62l.016.433c.09.888.448 1.73 1.032 2.425.213.269.437.528.672.78a13.1 13.1 0 0 0 1.973 1.722 28.347 28.347 0 0 0 4.486 2.667.28.28 0 0 0 .142.039h.021c.051 0 .1-.014.143-.04a28.347 28.347 0 0 0 4.487-2.667c.261-.185.515-.38.762-.583Zm.82-3.191-.008.01a9.884 9.884 0 0 1-1.827 1.944c-.146.118-.294.232-.447.343l-.009.007-.009.006A25.769 25.769 0 0 1 12 20.247a25.773 25.773 0 0 1-3.922-2.418l-.01-.006-.008-.007a9.436 9.436 0 0 1-.447-.343c-.373-.309-.725-.64-1.053-.99a9.885 9.885 0 0 1-.774-.953l-.008-.011a2.834 2.834 0 0 1-.494-1.242V6.845c0-.228 0-.461-.002-.698a978.147 978.147 0 0 0 5.78-2.126L12 3.672l.938.348a982.19 982.19 0 0 0 5.78 2.126c-.002.237-.002.47-.002.698v7.433a2.83 2.83 0 0 1-.494 1.242Z" clip-rule="evenodd"/><path fill="url(#b)" fill-rule="evenodd" d="M11.425 6.862a.623.623 0 0 1 1.15 0l.987 2.375 2.564.205a.623.623 0 0 1 .355 1.094l-1.953 1.673.597 2.5a.623.623 0 0 1-.93.677L12 14.046l-2.195 1.34a.623.623 0 0 1-.93-.676l.597-2.501-1.953-1.673a.623.623 0 0 1 .355-1.094l2.564-.205.987-2.375Z" clip-rule="evenodd"/><defs><linearGradient id="a" x1="3.667" x2="24.546" y1="2" y2="14.563" gradientUnits="userSpaceOnUse"><stop stop-color="#3F39E8"/><stop offset="1" stop-color="#00BAD6"/></linearGradient><linearGradient id="b" x1="7.301" x2="17.525" y1="6.479" y2="14.188" gradientUnits="userSpaceOnUse"><stop stop-color="#3F39E8"/><stop offset="1" stop-color="#00BAD6"/></linearGradient></defs></svg>