<svg xmlns="http://www.w3.org/2000/svg" fill="none" viewBox="0 0 24 24"><path fill="#687485" fill-rule="evenodd" d="M17.402 18.71c.431-.352.836-.733 1.21-1.139.235-.25.459-.51.672-.779a4.467 4.467 0 0 0 1.032-2.425l.016-.433v-8.62l.001-.045-.001-.042v-.008a.265.265 0 0 0-.05-.184.286.286 0 0 0-.164-.107 72.974 72.974 0 0 1-2.222-.8 693.43 693.43 0 0 1-2.018-.742c-1.237-.455-2.474-.91-3.712-1.36a.528.528 0 0 0-.332 0c-1.238.45-2.474.905-3.711 1.36-.673.248-1.346.496-2.02.742a72.96 72.96 0 0 1-2.221.8.286.286 0 0 0-.164.107.264.264 0 0 0-.05.184v.008a.579.579 0 0 0 0 .087v8.62l.016.433c.09.888.448 1.73 1.032 2.425.213.269.437.528.672.78a13.096 13.096 0 0 0 1.973 1.722 28.342 28.342 0 0 0 4.486 2.667.28.28 0 0 0 .142.039h.021c.051 0 .1-.014.143-.04a28.347 28.347 0 0 0 4.487-2.667c.261-.185.515-.38.762-.583Zm.82-3.191-.008.01a9.884 9.884 0 0 1-1.827 1.944c-.146.118-.294.232-.447.343l-.009.007-.009.006A25.774 25.774 0 0 1 12 20.247a25.773 25.773 0 0 1-3.922-2.418l-.01-.006-.008-.007a9.436 9.436 0 0 1-.447-.343c-.373-.309-.725-.64-1.053-.99a9.885 9.885 0 0 1-.774-.953l-.008-.011a2.834 2.834 0 0 1-.494-1.242V6.845c0-.228 0-.461-.002-.698 1.39-.507 2.777-1.016 4.162-1.528.53-.193 1.075-.396 1.618-.598L12 3.672l.938.348a977.142 977.142 0 0 0 5.78 2.126c-.002.237-.002.47-.002.698v7.433a2.842 2.842 0 0 1-.494 1.242Z" clip-rule="evenodd"/><path fill="#687485" fill-rule="evenodd" d="M11.425 6.862a.623.623 0 0 1 1.15 0l.987 2.375 2.564.205a.623.623 0 0 1 .355 1.094l-1.953 1.673.597 2.5a.623.623 0 0 1-.93.677L12 14.046l-2.195 1.34a.623.623 0 0 1-.93-.676l.597-2.501-1.953-1.673a.623.623 0 0 1 .355-1.094l2.564-.205.987-2.375Z" clip-rule="evenodd"/></svg>