<svg xmlns="http://www.w3.org/2000/svg" fill="none" viewBox="0 0 24 24"><path fill="#62757E" fill-rule="evenodd" d="m15.309 3.69-.973-.83a3.6 3.6 0 0 0-4.672 0l-.973.83a.4.4 0 0 1-.228.094l-1.273.101A3.6 3.6 0 0 0 3.885 7.19l-.101 1.273a.4.4 0 0 1-.095.228l-.828.973a3.6 3.6 0 0 0 0 4.672l.828.973a.4.4 0 0 1 .095.228l.101 1.273a3.6 3.6 0 0 0 3.305 3.305l1.273.101a.4.4 0 0 1 .228.095l.973.829a3.6 3.6 0 0 0 4.672 0l.973-.83a.4.4 0 0 1 .228-.094l1.273-.101a3.6 3.6 0 0 0 3.305-3.305l.101-1.273a.4.4 0 0 1 .095-.228l.829-.973a3.6 3.6 0 0 0 0-4.672l-.83-.973a.4.4 0 0 1-.094-.228l-.101-1.273a3.6 3.6 0 0 0-3.305-3.305l-1.273-.101a.4.4 0 0 1-.228-.095m-4.607.39a2 2 0 0 1 2.596 0l.973.828c.32.273.719.438 1.138.472l1.274.101a2 2 0 0 1 1.836 1.836l.101 1.274c.034.42.199.818.472 1.138l.829.973a2 2 0 0 1 0 2.596l-.829.973c-.273.32-.438.719-.472 1.138l-.101 1.274a2 2 0 0 1-1.836 1.836l-1.274.101c-.42.034-.818.199-1.139.472l-.972.829a2 2 0 0 1-2.596 0l-.973-.829a2 2 0 0 0-1.138-.472l-1.274-.101a2 2 0 0 1-1.836-1.836L5.38 15.41a2 2 0 0 0-.472-1.139l-.829-.972a2 2 0 0 1 0-2.596l.829-.973c.273-.32.438-.719.472-1.138l.101-1.274A2 2 0 0 1 7.317 5.48l1.273-.1c.42-.034.818-.199 1.138-.472zM9.65 8.318a.82.82 0 0 0-.627.291L6.96 11.065a.82.82 0 0 0 .037 1.094l4.412 4.582a.82.82 0 0 0 1.18 0l4.412-4.582a.82.82 0 0 0 .037-1.094L14.976 8.61a.82.82 0 0 0-.627-.291z" clip-rule="evenodd"/></svg>