<svg xmlns="http://www.w3.org/2000/svg" fill="none" viewBox="0 0 24 24"><path fill="#EEF6FF" d="M12.745 2.158a1.834 1.834 0 0 0-1.49 0L4.837 5.011a1.834 1.834 0 0 0-1.09 1.676v4.31C3.747 16.086 7.27 20.845 12 22c4.732-1.155 8.253-5.914 8.253-11.003v-4.31c0-.725-.427-1.382-1.09-1.676l-6.418-2.853Z"/><path fill="url(#a)" fill-rule="evenodd" d="m5.486 6.473 6.42-2.853a.234.234 0 0 1 .19 0l6.418 2.853a.234.234 0 0 1 .139.214v4.31c0 4.275-2.884 8.22-6.653 9.346-3.768-1.125-6.652-5.07-6.652-9.346v-4.31c0-.093.054-.177.138-.214Zm7.259-4.315a1.834 1.834 0 0 0-1.49 0L4.837 5.011a1.834 1.834 0 0 0-1.09 1.676v4.31C3.748 16.086 7.27 20.845 12 22c4.732-1.155 8.253-5.914 8.253-11.003v-4.31c0-.725-.427-1.382-1.09-1.676l-6.418-2.853Zm-.14 4.426a.656.656 0 0 0-1.211 0l-1.041 2.503-2.702.217a.656.656 0 0 0-.374 1.152l2.058 1.764-.629 2.636a.656.656 0 0 0 .98.713L12 14.156l2.313 1.413a.656.656 0 0 0 .98-.713l-.628-2.636 2.058-1.764a.656.656 0 0 0-.374-1.152l-2.702-.217-1.041-2.503Z" clip-rule="evenodd"/><defs><linearGradient id="a" x1="3.748" x2="24.531" y1="2" y2="14.385" gradientUnits="userSpaceOnUse"><stop stop-color="#3F39E8"/><stop offset="1" stop-color="#00BAD6"/></linearGradient></defs></svg>