<svg xmlns="http://www.w3.org/2000/svg" fill="none" viewBox="0 0 24 24"><path fill="#62757E" fill-rule="evenodd" d="M12 22C6.486 22 2 17.514 2 12S6.486 2 12 2s10 4.486 10 10-4.486 10-10 10m0-18.333c-4.595 0-8.333 3.738-8.333 8.333S7.405 20.333 12 20.333s8.333-3.738 8.333-8.333S16.595 3.667 12 3.667" clip-rule="evenodd"/><path fill="#62757E" fill-rule="evenodd" d="M8 7a1 1 0 0 0-1 1v8a1 1 0 1 0 2 0v-3.516a1 1 0 0 0 .343.362l5.374 3.385a1 1 0 0 0 1.533-.847V8.616a1 1 0 0 0-1.533-.847l-5.374 3.385a1 1 0 0 0-.343.362V8a1 1 0 0 0-1-1" clip-rule="evenodd"/></svg>