<svg xmlns="http://www.w3.org/2000/svg" fill="none" viewBox="0 0 24 24"><path fill="#62757E" fill-rule="evenodd" d="m21.167 12.345-8.81 9.157a1.67 1.67 0 0 1-2.369.01l-7.501-7.5A1.65 1.65 0 0 1 2 12.833c0-.446.172-.864.487-1.178l9.18-8.832c.47-.473 1.317-.823 2-.823h6.666C21.253 2 22 2.748 22 3.667v6.666c0 .684-.35 1.53-.833 2.012m-.834-8.678h-6.666c-.238 0-.666.177-.834.345l-9.18 8.833 7.514 7.49v-.002h.002l8.808-9.155c.179-.179.356-.607.356-.845zm-2.5 4.166a1.668 1.668 0 0 1 0-3.333c.92 0 1.668.747 1.668 1.667 0 .919-.748 1.666-1.668 1.666m-3.863 4.31-1.178-1.179c-.186-.186-.412-.309-.62-.339-.12-.016-.22 0-.264.045-.104.103-.07.518.295.883v.001c.441.442.729.997.81 1.563.092.647-.095 1.258-.516 1.677-.346.348-.828.54-1.354.54-.41 0-.823-.127-1.206-.336l-.091.091a.834.834 0 0 1-1.179-1.178l-.589-.59a.832.832 0 1 1 1.179-1.178l1.178 1.178c.255.255.533.346.708.346.046 0 .131-.007.175-.051.045-.044.062-.145.045-.263-.03-.209-.153-.435-.34-.622l-.001-.002c-.989-.99-1.118-2.412-.292-3.237.42-.42 1.033-.609 1.677-.516.306.043.605.151.888.306l.086-.085a.832.832 0 1 1 1.178 1.178l.59.59a.832.832 0 1 1-1.179 1.178" clip-rule="evenodd"/></svg>