<svg xmlns="http://www.w3.org/2000/svg" fill="none" viewBox="0 0 24 24"><path fill="#96B73D" d="M12 22c5.523 0 10-4.477 10-10S17.523 2 12 2 2 6.477 2 12s4.477 10 10 10Z"/><path fill="#fff" d="M9.246 12.066c.054.16.133.312.236.448l-1.558-1.573a.875.875 0 0 1 0-1.232l1.965-1.966c.04-.03.08-.063.117-.097l.057-.05 1.592-1.593a.86.86 0 0 1 1.22.002l5.215 5.252a.88.88 0 0 1-.63 1.383.889.889 0 0 1-.577-.136l-4.606-4.65-.005-.006-.015-.016-2.465 2.465-.037.031-.005.005 2.435 2.454a.875.875 0 0 1-.387 1.458.86.86 0 0 1-.836-.226l-1.247-1.256c-.018-.016-.036-.037-.059-.06l-.057-.057a1.624 1.624 0 0 1-.117-.149l.028.034-.019-.025a1.581 1.581 0 0 1-.245-.44Zm5.091 1.608L11.9 11.218a.875.875 0 0 1 .28-1.419.861.861 0 0 1 .943.19l1.248 1.257c.017.015.036.037.059.059l.056.058c.033.036.063.075.09.114l.014.017a2.807 2.807 0 0 0-.053-.075l1.63 1.642a.875.875 0 0 1 0 1.233L14.2 16.26c-.041.03-.081.061-.119.095l-1.64 1.64a.859.859 0 0 1-1.221 0l-5.298-5.342a.88.88 0 0 1 .115-1.173.864.864 0 0 1 1.17.007l4.615 4.659.016.019 2.46-2.46.036-.028a.134.134 0 0 1 .003-.004Z"/></svg>