<svg xmlns="http://www.w3.org/2000/svg" fill="none" viewBox="0 0 24 24"><path fill="#62757E" fill-rule="evenodd" d="M6.265 3.825C6.265 2.817 7.082 2 8.09 2h7.82c1.008 0 1.825.817 1.825 1.825v2.792q.586.073 1.167.16c1.402.21 2.387 1.43 2.387 2.811v5.967a2.89 2.89 0 0 1-2.89 2.89h-.204l.142 1.565A1.825 1.825 0 0 1 16.52 22H7.48a1.825 1.825 0 0 1-1.817-1.99l.143-1.565h-.204a2.89 2.89 0 0 1-2.891-2.89V9.588c0-1.381.985-2.601 2.387-2.811q.582-.087 1.167-.16zm1.517 2.63a47 47 0 0 1 8.436 0v-2.63a.31.31 0 0 0-.308-.308H8.09a.31.31 0 0 0-.308.308zM5.943 16.93l.215-2.361a.759.759 0 0 1 .047-1.494 41 41 0 0 1 5.795-.41 41 41 0 0 1 5.795.41.758.758 0 0 1 .047 1.494l.215 2.36h.341c.76 0 1.375-.614 1.375-1.373V9.588c0-.667-.471-1.218-1.096-1.311A45 45 0 0 0 12 7.782a45 45 0 0 0-6.677.495c-.624.093-1.095.644-1.095 1.311v5.967c0 .759.615 1.374 1.374 1.374zm10.362-2.514a39.5 39.5 0 0 0-8.61 0l-.521 5.733a.31.31 0 0 0 .307.335h9.039a.31.31 0 0 0 .306-.335zm-2.22-3.837c0-.419.34-.758.759-.758h.007c.418 0 .758.34.758.758v.007c0 .42-.34.759-.758.759h-.007a.76.76 0 0 1-.759-.759zm2.844 0c0-.419.34-.758.758-.758h.007c.42 0 .759.34.759.758v.007c0 .42-.34.759-.759.759h-.007a.76.76 0 0 1-.758-.759z" clip-rule="evenodd"/></svg>