<svg xmlns="http://www.w3.org/2000/svg" fill="none" viewBox="0 0 24 24"><g clip-path="url(#a)"><path fill="#1061E3" d="M12 24c6.627 0 12-5.373 12-12S18.627 0 12 0 0 5.373 0 12s5.373 12 12 12Z"/><path fill="#fff" fill-rule="evenodd" d="M17.797 15.757c.058.603-.13 1.197-.713 1.584a1.63 1.63 0 0 1-.925.259c-2.772-.002-5.544 0-8.316-.002a1.595 1.595 0 0 1-1.56-1.053c-.087-.253-.1-.514-.09-.788h1.688c.162 0 .27-.12.233-.267a.35.35 0 0 0-.097-.149c-.688-.687-1.378-1.372-2.068-2.058l-.631-.628c-.237-.235-.351-.518-.31-.849.022-.162.074-.322.127-.479A7.072 7.072 0 0 1 6.51 8.912a7.187 7.187 0 0 1 3.28-2.166 6.965 6.965 0 0 1 2.57-.334c2.055.123 3.767.96 5.123 2.5a6.903 6.903 0 0 1 1.477 2.736c.105.377.006.717-.274.995-.525.523-1.054 1.043-1.58 1.564-.388.383-.774.767-1.16 1.151-.128.127-.116.294.03.37a.326.326 0 0 0 .142.027c.532.002 1.065.002 1.598.002h.082Zm-11.088.378c.008.225.068.425.2.6.218.292.513.429.878.428h8.42c.033 0 .066-.001.098-.003a1.011 1.011 0 0 0 .786-.427 1 1 0 0 0 .194-.598H6.71Zm7.188-5.423c.02.013.035.021.047.03.691.515 1.13 1.19 1.296 2.035.091.46.079.917-.03 1.373a3.26 3.26 0 0 1-.524 1.15.248.248 0 0 0-.048.211c.049.19.265.252.408.113.21-.204.415-.412.623-.618.837-.833 1.674-1.665 2.512-2.496a.7.7 0 0 0 .217-.649c-.02-.109-.06-.215-.097-.32a7.63 7.63 0 0 0-1.182-2.188 6.382 6.382 0 0 0-1.38-1.318.131.131 0 0 1-.05-.08.477.477 0 0 0-.662-.39.123.123 0 0 1-.089 0 6.382 6.382 0 0 0-2.352-.608 7.418 7.418 0 0 0-1.938.11 6.25 6.25 0 0 0-1.542.508.124.124 0 0 1-.122 0 .466.466 0 0 0-.672.404c0 .042-.016.067-.048.092-.214.17-.437.332-.637.517-.94.872-1.58 1.935-1.991 3.141-.104.305-.035.567.192.793L8.32 15c.209.208.417.416.627.623.121.119.304.098.383-.043.054-.097.04-.193-.023-.283a3.23 3.23 0 0 1-.596-1.577 3.202 3.202 0 0 1 .16-1.385c.036-.102.08-.201.12-.306l.989.581a2.18 2.18 0 0 0 2.425 2.975 2.189 2.189 0 0 0 1.274-.748c.322-.383.492-.827.502-1.328.014-.746-.295-1.34-.875-1.804l.59-.992Zm3.265 2.128a25.796 25.796 0 0 0-.053-.33 4.904 4.904 0 0 0-.344-1.148c-.018-.042-.022-.075-.001-.118a.465.465 0 0 0-.444-.665.475.475 0 0 0-.453.505.462.462 0 0 0 .34.41.189.189 0 0 1 .144.127c.213.521.331 1.061.348 1.624a.137.137 0 0 1-.03.092c-.32.322-.643.641-.965.961l-.03.024c.307-1.52-.066-2.836-1.286-3.827-1.267-1.029-2.68-1.108-4.163-.439l-.453-.782c.162-.072.317-.147.476-.212a4.74 4.74 0 0 1 1.277-.315c.057-.007.098.002.142.047a.462.462 0 0 0 .667-.003.133.133 0 0 1 .122-.045 4.71 4.71 0 0 1 2.789 1.274c.063.06.123.122.183.184.109.11.229.112.34.005l.735-.711.069-.066c.088.112.177.22.26.332a7.22 7.22 0 0 1 1.084 2.135.241.241 0 0 1-.064.263l-.646.643-.044.035Zm-.886-3.717-.628.608a.626.626 0 0 1-.053-.046 5.125 5.125 0 0 0-2.347-1.288c-.247-.06-.503-.088-.754-.129-.044-.007-.074-.016-.101-.058a.474.474 0 0 0-.794.002.136.136 0 0 1-.087.053c-1.62.178-2.89.936-3.822 2.262a.128.128 0 0 1-.095.058.467.467 0 0 0-.357.672c.01.027.01.057 0 .084a5.098 5.098 0 0 0-.389 1.402c-.004.03-.01.06-.017.101l-.06-.056c-.2-.2-.4-.4-.602-.598-.094-.09-.125-.187-.08-.315.47-1.35 1.22-2.507 2.386-3.37.014-.01.028-.018.04-.029.042-.037.08-.047.143-.03a.469.469 0 0 0 .587-.367.107.107 0 0 1 .05-.066 5.4 5.4 0 0 1 .942-.361c.767-.218 1.55-.275 2.34-.218a5.844 5.844 0 0 1 2.104.538c.042.02.063.042.07.09a.469.469 0 0 0 .643.367c.023-.008.059-.009.076.003.286.198.55.422.793.669.004.005.006.012.012.022Zm-2.565 4.326a1.712 1.712 0 0 1-3.424.006 1.71 1.71 0 0 1 1.707-1.704 1.708 1.708 0 0 1 1.717 1.697v.001Zm-5.388.885-.442-.445c-.182-.182-.366-.36-.546-.544a.137.137 0 0 1-.04-.09 4.613 4.613 0 0 1 .37-1.681.1.1 0 0 1 .08-.067c.313-.073.46-.348.348-.647-.007-.021-.007-.053.004-.07a4.638 4.638 0 0 1 1.299-1.281c.002-.002.004-.002.014-.004l.186.316.389.672c.078.137.18.167.315.085a3.191 3.191 0 0 1 1.153-.422 3.297 3.297 0 0 1 2.054.317c.006.003.011.008.024.018l-.588.985c-1.109-.417-2.026-.168-2.766.754l-.985-.58c.088-.118.172-.232.258-.344.035-.046.076-.088.115-.131.06-.068.06-.105-.002-.168a14.87 14.87 0 0 0-.163-.164c-.075-.073-.111-.073-.181.003-.299.32-.539.69-.708 1.092a3.68 3.68 0 0 0-.279 1.792c.018.196.058.39.091.604Zm3.673-5.607a.269.269 0 0 1-.263-.264.271.271 0 0 1 .266-.262.269.269 0 0 1 .263.265.267.267 0 0 1-.266.262v-.001Zm-3.22-.99a.261.261 0 0 1 .269.258.265.265 0 0 1-.53 0 .26.26 0 0 1 .262-.258Zm7.561 3.57a.26.26 0 0 1-.005-.52.258.258 0 0 1 .242.158.26.26 0 0 1-.237.362Zm-1.122-3.57c.149 0 .262.112.262.26a.26.26 0 0 1-.36.241.261.261 0 0 1-.003-.483.258.258 0 0 1 .1-.019v.001Zm-7.292 3.31a.26.26 0 0 1-.264.26.258.258 0 0 1-.26-.263.259.259 0 0 1 .259-.257.258.258 0 0 1 .265.26Z" clip-rule="evenodd"/></g><defs><clipPath id="a"><path fill="#fff" d="M0 0h24v24H0z"/></clipPath></defs></svg>