<svg xmlns="http://www.w3.org/2000/svg" fill="none" viewBox="0 0 24 24"><g clip-path="url(#a)"><path fill="#1061E3" d="M12 24c6.627 0 12-5.372 12-12 0-6.627-5.373-12-12-12S0 5.373 0 12c0 6.628 5.373 12 12 12"/><path fill="#fff" fill-rule="evenodd" d="M17.797 15.757c.058.602-.13 1.197-.713 1.584a1.63 1.63 0 0 1-.925.259l-8.316-.002q-.091 0-.182-.005a1.6 1.6 0 0 1-1.378-1.047c-.087-.255-.1-.515-.09-.79h1.688c.162 0 .27-.118.233-.266a.35.35 0 0 0-.097-.149q-1.033-1.03-2.068-2.058l-.631-.629c-.237-.234-.351-.518-.31-.848.022-.162.074-.322.127-.479A7.1 7.1 0 0 1 6.51 8.912a7.2 7.2 0 0 1 3.28-2.166 7 7 0 0 1 2.57-.334c2.055.123 3.767.959 5.123 2.5a6.9 6.9 0 0 1 1.477 2.736c.105.377.006.717-.274.995l-1.58 1.564q-.582.575-1.16 1.151c-.128.126-.116.294.03.37a.3.3 0 0 0 .142.027q.798.003 1.598.002zm-11.087.378c.007.225.067.425.199.6.218.291.513.429.878.428h8.42q.05 0 .098-.003a1 1 0 0 0 .786-.427 1 1 0 0 0 .194-.598zm7.187-5.423.047.03c.691.515 1.13 1.19 1.296 2.035q.135.69-.03 1.373a3.3 3.3 0 0 1-.524 1.15.25.25 0 0 0-.048.211c.049.19.265.252.408.113.21-.204.415-.412.623-.618l2.512-2.497a.7.7 0 0 0 .217-.648c-.02-.109-.06-.215-.097-.32a7.6 7.6 0 0 0-1.182-2.188 6.4 6.4 0 0 0-1.38-1.318.13.13 0 0 1-.05-.08.477.477 0 0 0-.662-.39.12.12 0 0 1-.089 0 6.4 6.4 0 0 0-2.352-.608 7.4 7.4 0 0 0-1.938.11 6.3 6.3 0 0 0-1.542.508.12.12 0 0 1-.122 0 .466.466 0 0 0-.672.404c0 .042-.016.067-.048.092-.214.17-.437.332-.637.517-.94.872-1.58 1.935-1.991 3.141-.104.305-.035.567.192.793L8.32 15l.627.623c.121.119.304.098.383-.043.054-.097.04-.193-.023-.283a3.23 3.23 0 0 1-.596-1.577 3.2 3.2 0 0 1 .16-1.385c.036-.102.08-.201.12-.306l.989.58a2.18 2.18 0 0 0 2.425 2.976 2.2 2.2 0 0 0 1.274-.748c.322-.383.492-.827.502-1.328.014-.746-.295-1.34-.875-1.804zm3.265 2.128-.053-.33a5 5 0 0 0-.344-1.148c-.018-.042-.022-.075-.001-.118a.465.465 0 0 0-.444-.665.473.473 0 0 0-.453.505.46.46 0 0 0 .34.41.19.19 0 0 1 .144.127 4.6 4.6 0 0 1 .348 1.624.14.14 0 0 1-.03.092q-.481.482-.965.961l-.03.024c.307-1.52-.066-2.836-1.286-3.827-1.267-1.029-2.68-1.108-4.163-.439l-.453-.782c.162-.072.317-.147.476-.213.41-.163.839-.269 1.277-.315.057-.006.098.003.142.048a.46.46 0 0 0 .667-.003.13.13 0 0 1 .122-.045 4.7 4.7 0 0 1 2.789 1.274q.094.09.183.184c.109.109.229.112.34.005l.735-.711.069-.066c.088.112.177.22.26.332a7.2 7.2 0 0 1 1.084 2.135.24.24 0 0 1-.064.263l-.646.643zm-.886-3.717-.628.608q-.03-.023-.053-.046a5.1 5.1 0 0 0-2.347-1.288c-.247-.06-.503-.088-.754-.129-.044-.007-.074-.016-.101-.058a.474.474 0 0 0-.794.002.14.14 0 0 1-.087.053c-1.62.178-2.89.936-3.822 2.262a.13.13 0 0 1-.095.058.467.467 0 0 0-.357.672q.015.042 0 .084a5.1 5.1 0 0 0-.389 1.402c-.004.03-.01.06-.017.101l-.06-.056q-.3-.301-.602-.598c-.094-.09-.125-.187-.08-.315.47-1.35 1.22-2.507 2.386-3.37l.04-.029c.042-.037.08-.047.143-.03a.47.47 0 0 0 .587-.367.1.1 0 0 1 .05-.066q.454-.225.942-.361c.767-.218 1.55-.275 2.34-.218a5.8 5.8 0 0 1 2.104.538c.042.02.063.042.07.09a.47.47 0 0 0 .643.367c.023-.008.059-.009.076.003q.429.298.793.669.005.007.012.022m-2.565 4.326a1.712 1.712 0 0 1-3.424.005 1.71 1.71 0 0 1 1.707-1.703 1.71 1.71 0 0 1 1.717 1.697m-5.388.885-.442-.445q-.274-.271-.546-.544a.14.14 0 0 1-.04-.09 4.6 4.6 0 0 1 .37-1.681.1.1 0 0 1 .08-.067c.313-.073.46-.348.348-.647-.007-.021-.007-.053.004-.07a4.6 4.6 0 0 1 1.299-1.281q.001-.002.014-.004l.186.316.389.672c.078.137.18.167.315.085a3.2 3.2 0 0 1 1.153-.422 3.3 3.3 0 0 1 2.054.317c.006.003.011.008.024.018l-.588.985c-1.109-.417-2.026-.168-2.766.753l-.985-.578q.13-.178.258-.345.055-.068.115-.131c.06-.068.06-.105-.002-.168l-.163-.164c-.075-.073-.111-.073-.181.003-.299.32-.539.69-.708 1.092a3.7 3.7 0 0 0-.279 1.792c.018.196.058.39.091.604m3.673-5.607a.27.27 0 0 1-.263-.264.27.27 0 0 1 .266-.262.27.27 0 0 1 .263.265.267.267 0 0 1-.266.262zm-3.22-.99a.26.26 0 0 1 .269.258.265.265 0 0 1-.53 0 .26.26 0 0 1 .262-.258m7.561 3.57a.26.26 0 0 1-.005-.52.26.26 0 0 1 .242.158.26.26 0 0 1-.237.362m-1.122-3.57c.149 0 .262.112.262.26a.26.26 0 0 1-.36.241.261.261 0 0 1-.003-.483.3.3 0 0 1 .1-.019zm-7.292 3.31a.26.26 0 0 1-.264.26.26.26 0 0 1-.242-.162.26.26 0 0 1 .241-.359.26.26 0 0 1 .265.26" clip-rule="evenodd"/></g><defs><clipPath id="a"><path fill="#fff" d="M0 0h24v24H0z"/></clipPath></defs></svg>