<svg xmlns="http://www.w3.org/2000/svg" fill="none" viewBox="0 0 24 24"><g clip-path="url(#a)"><path fill="#4231C8" d="M20.579 6.791c.231.133.421.46.421.728v9.38c0 .267-.19.594-.421.728l-8.158 4.69a.939.939 0 0 1-.842 0l-8.157-4.69A.93.93 0 0 1 3 16.898V7.52c0-.267.19-.595.422-.728L11.579 2.1a.938.938 0 0 1 .842 0l8.159 4.69Z"/><path fill="#fff" d="M17.169 8.746c.23-.135.23-.356-.002-.49l-4.86-2.826a.928.928 0 0 0-.84 0l-4.86 2.826a.938.938 0 0 0-.42.73v5.756a.89.89 0 0 0 .43.713l.801.423c.236.125.43.008.43-.26V9.964c0-.268.188-.375.419-.24l3.202 1.884c.23.135.607.135.838 0l4.862-2.86Z"/><path fill="#4231C8" d="M14.271 8.263c.23.134.232.356.002.491L12.306 9.91a.91.91 0 0 1-.838 0L9.502 8.754c-.23-.135-.23-.357.001-.49l1.964-1.143a.927.927 0 0 1 .84 0l1.964 1.142Z"/></g><defs><clipPath id="a"><path fill="#fff" d="M3 2h18v20.418H3z"/></clipPath></defs></svg>