<svg xmlns="http://www.w3.org/2000/svg" fill="none" viewBox="0 0 24 24"><path fill="#62757E" fill-rule="evenodd" d="M8.219 7.217a2.6 2.6 0 0 0 2.58-2.319c3.173-.568 6.394.8 8.023 3.624a.87.87 0 0 0 1.507-.87c-2.011-3.484-5.978-5.171-9.912-4.437A2.6 2.6 0 0 0 8.219 2a2.609 2.609 0 1 0 0 5.217m0 9.566c-.512 0-.987.153-1.39.408a7.15 7.15 0 0 1-1.844-3.226 7.16 7.16 0 0 1 .708-5.443.87.87 0 1 0-1.507-.87c-1.18 2.046-1.493 4.445-.882 6.758a8.86 8.86 0 0 0 2.45 4.161c-.087.26-.144.532-.144.82a2.609 2.609 0 1 0 2.609-2.608m12.174-6.957a2.605 2.605 0 0 1 .467 5.17c-1.1 3.594-4.35 6.134-8.293 6.134a.87.87 0 1 1 0-1.739c3.066 0 5.604-1.933 6.552-4.693a2.6 2.6 0 0 1-1.335-2.263 2.61 2.61 0 0 1 2.609-2.609" clip-rule="evenodd"/></svg>