<svg xmlns="http://www.w3.org/2000/svg" fill="none" viewBox="0 0 24 24"><path fill="#62757E" fill-rule="evenodd" d="M6.872 2A2.864 2.864 0 0 0 4 4.857v14.286A2.864 2.864 0 0 0 6.872 22h10.256A2.864 2.864 0 0 0 20 19.143V4.857A2.864 2.864 0 0 0 17.128 2H6.872ZM5.64 4.857c0-.676.551-1.224 1.23-1.224h10.257c.68 0 1.231.548 1.231 1.224v14.286c0 .676-.551 1.224-1.23 1.224H6.871c-.68 0-1.231-.548-1.231-1.224V4.857Zm7.154 2.188a.433.433 0 0 1 .197.459l-.653 3.385h3.286c.148 0 .282.097.342.247.06.15.036.325-.063.447l-4.25 5.278a.349.349 0 0 1-.449.094.433.433 0 0 1-.197-.459l.653-3.385H8.375a.375.375 0 0 1-.342-.247.453.453 0 0 1 .063-.447l4.25-5.278a.35.35 0 0 1 .449-.094Z" clip-rule="evenodd"/></svg>