<svg xmlns="http://www.w3.org/2000/svg" fill="none" viewBox="0 0 24 24"><path fill="#62757E" d="M10.314 2.335a2.6 2.6 0 0 1 3.373 0l1.711 1.459 2.244.18a2.6 2.6 0 0 1 2.384 2.384l.18 2.244 1.459 1.711a2.6 2.6 0 0 1 0 3.374l-1.459 1.711-.18 2.244a2.6 2.6 0 0 1-2.384 2.384l-2.244.18-1.711 1.459a2.6 2.6 0 0 1-3.373 0l-1.712-1.459-2.244-.18a2.6 2.6 0 0 1-2.384-2.384l-.18-2.244-1.459-1.711a2.6 2.6 0 0 1 0-3.373l1.459-1.712.18-2.244a2.6 2.6 0 0 1 2.384-2.384l2.244-.18zm2.334 1.218a1 1 0 0 0-1.296 0l-1.86 1.585c-.161.136-.36.22-.57.236l-2.437.194a1 1 0 0 0-.917.917l-.194 2.437c-.017.21-.1.409-.236.57l-1.585 1.86a1 1 0 0 0 0 1.296l1.585 1.86.011.017c.71.55 1.76.479 2.013-.387.16-.549.2-1.142.15-1.726a4.754 4.754 0 0 1 6.693-4.74l-3.46 3.462a3.17 3.17 0 0 0 2.377 2.377l3.46-3.461a4.754 4.754 0 0 1-4.74 6.693c-.639-.054-1.276-.015-1.863.182-.793.266-.846 1.253-.328 1.908l.04.03 1.86 1.584a1 1 0 0 0 1.297 0l1.86-1.585c.161-.136.36-.22.57-.236l2.437-.194a1 1 0 0 0 .917-.917l.194-2.437c.017-.21.1-.409.236-.57l1.585-1.86a1 1 0 0 0 0-1.296l-1.585-1.86a1 1 0 0 1-.236-.57l-.194-2.437a1 1 0 0 0-.917-.917l-2.437-.194a1 1 0 0 1-.57-.236z"/></svg>