<svg xmlns="http://www.w3.org/2000/svg" fill="none" viewBox="0 0 24 24"><path fill="#62757E" fill-rule="evenodd" d="M3.095 11.37c.141.459.424 3.12 1.273 3.889.874.79 4.173.777 4.805.435 1.414-.766 1.987-3.242 2.237-4.326.14-.613.59-.613.59-.613s.474 0 .616.613c.25 1.084.798 3.567 2.21 4.332.632.343 3.932.356 4.807-.434.847-.768 1.13-3.438 1.271-3.898.14-.46.848-.92.99-1.074.142-.153.142-.767 0-.92-.283-.307-3.618-.58-7.21-.154-.716.085-.989.306-2.685.306s-1.97-.222-2.686-.306c-3.588-.426-6.924-.153-7.207.154-.141.153-.141.768 0 .92.141.154.848.614.989 1.075" clip-rule="evenodd"/></svg>