<svg xmlns="http://www.w3.org/2000/svg" fill="none" viewBox="0 0 24 24"><path fill="currentColor" fill-rule="evenodd" d="M20.497 8.797a.521.521 0 0 0-.014-.31L19.979 7.1l.335-.755a.773.773 0 0 0-.156-.854l-1.11-1.136a2.279 2.279 0 0 0-2.369-.573l-1.436-1.586a.521.521 0 0 0-.382-.172L11.996 2l-2.857.023a.521.521 0 0 0-.382.172L7.322 3.78a2.278 2.278 0 0 0-2.37.575L3.84 5.492a.77.77 0 0 0-.155.85l.336.757-.504 1.389a.521.521 0 0 0-.014.31l.373 1.43 1.697 6.52A3.84 3.84 0 0 0 7.044 18.9l.302.214a153.5 153.5 0 0 0 3.733 2.55l.077.05c.279.185.547.288.847.286.294.002.565-.102.844-.287l.074-.049.445-.294a140.279 140.279 0 0 0 3.588-2.469 3.84 3.84 0 0 0 1.473-2.153l1.697-6.521.373-1.43Zm-1.57-1.54.52 1.434-.331 1.273-1.697 6.522a2.797 2.797 0 0 1-1.072 1.568 90.275 90.275 0 0 1-1.086.764 139.33 139.33 0 0 1-2.912 1.975l-.076.05c-.124.082-.21.115-.27.115-.066 0-.15-.032-.275-.114l-.077-.05-.44-.292a139.184 139.184 0 0 1-3.56-2.449 2.795 2.795 0 0 1-1.07-1.567L4.885 9.965 4.552 8.69l.52-1.434a.521.521 0 0 0-.013-.389l-.346-.778.985-1.008a1.24 1.24 0 0 1 1.304-.309l.297.106c.199.071.42.015.562-.14l1.515-1.675 2.628-.022 2.62.022 1.516 1.674a.521.521 0 0 0 .562.141L17 4.773a1.237 1.237 0 0 1 1.303.308l.985 1.009-.346.778a.521.521 0 0 0-.013.39Zm-4.384 8.2-.932-.49a9.453 9.453 0 0 0-.572-.27l-.507-.213a2.526 2.526 0 0 0-.333-.123h-.136c-.023 0-.173.056-.333.123l-.507.212c-.16.069-.418.19-.572.271l-.93.49c-.156.08-.165.231-.024.332l.808.577c.143.102.367.279.498.394l.228.199c.13.113.346.303.476.419l.216.194a.356.356 0 0 0 .208.085.36.36 0 0 0 .21-.085l.214-.194a47.7 47.7 0 0 1 .477-.42l.228-.198c.131-.115.354-.292.497-.394l.808-.577c.142-.1.132-.251-.022-.331Zm3.434-7.228c.098.146.21.334.25.418.039.085.073.396.07.494l-.026.086c-.043.151-.048.16-.048.16-.11.137-.296.354-.415.481l-1.842 1.977a.54.54 0 0 0-.094.528l.301.72a.945.945 0 0 1 .015.595l-.062.168a1.611 1.611 0 0 1-.49.695l-.29.238a.545.545 0 0 1-.53.064l-1.029-.496a2.556 2.556 0 0 1-.52-.35l-.823-.752a.336.336 0 0 1-.017-.479l1.857-1.264a.367.367 0 0 0 .114-.461l-.72-1.37c-.081-.154-.098-.398-.035-.543a.82.82 0 0 1 .41-.375l2.258-.861c.162-.062.154-.127-.02-.143l-1.325-.127a2.016 2.016 0 0 0-.62.055l-1.155.325a.356.356 0 0 0-.247.4l.454 2.503c.03.173.041.363.023.423-.02.06-.175.138-.345.175l-.703.15a1.329 1.329 0 0 1-.242.026 1.351 1.351 0 0 1-.243-.025l-.702-.15c-.17-.038-.324-.117-.343-.176-.02-.06-.01-.25.022-.423l.454-2.502a.36.36 0 0 0-.248-.4l-1.155-.326a2.013 2.013 0 0 0-.62-.055l-1.325.127c-.173.016-.182.08-.02.143l2.26.861a.83.83 0 0 1 .409.375.723.723 0 0 1-.035.544l-.72 1.369a.366.366 0 0 0 .112.461l1.858 1.264a.336.336 0 0 1-.017.48l-.823.75a2.59 2.59 0 0 1-.52.35l-1.029.497a.545.545 0 0 1-.53-.064l-.289-.238a1.624 1.624 0 0 1-.492-.695l-.06-.168a.945.945 0 0 1 .013-.595l.302-.72a.54.54 0 0 0-.093-.528L6.455 9.868a9.049 9.049 0 0 1-.415-.481s-.007-.009-.049-.16l-.027-.086c-.002-.098.033-.41.072-.494a4.46 4.46 0 0 1 .248-.418l.522-.78c.097-.145.266-.377.375-.514l.703-.892a2.34 2.34 0 0 1 .21-.248h.014s.14.025.312.058l1.077.209c.171.034.383.075.472.09.088.017.296-.012.461-.067l.85-.278c.167-.055.44-.132.61-.17 0 0 .068-.018.241-.016.173-.002.241.015.241.015.17.04.444.116.61.17l.85.279c.165.055.373.084.462.067.088-.015.3-.056.47-.09l1.079-.209a8.673 8.673 0 0 1 .326-.058c.006 0 .1.11.21.248l.703.892c.108.137.276.369.374.514l.521.78Z" clip-rule="evenodd"/></svg>