<svg xmlns="http://www.w3.org/2000/svg" fill="none" viewBox="0 0 24 24"><path fill="#62757E" fill-rule="evenodd" d="M4.857 2A2.857 2.857 0 0 0 2 4.857v14.286A2.857 2.857 0 0 0 4.857 22h9.065a.816.816 0 0 0-.006-1.633H4.858a1.224 1.224 0 0 1-1.224-1.224V4.857c0-.676.548-1.224 1.224-1.224h10.204c.677 0 1.225.548 1.225 1.224v9.059a.816.816 0 1 0 1.632-.041v-6.16h1.225c.676 0 1.224.548 1.224 1.224v4.977a.816.816 0 0 0 1.633 0V8.938a2.857 2.857 0 0 0-2.857-2.856h-1.225V4.857A2.857 2.857 0 0 0 15.061 2zm8.164 6.53a.816.816 0 0 0 0-1.632H10.18a.816.816 0 0 0 0 1.633zM6.898 6.899a.816.816 0 1 0 0 1.633.816.816 0 0 0 0-1.633M13.837 12c0 .45-.365.816-.816.816H6.898a.816.816 0 0 1 0-1.632h6.123c.45 0 .816.365.816.816m-.816 4.898a.816.816 0 0 0 0-1.633H6.898a.816.816 0 0 0 0 1.633zm6.191 1.052-1.262-1.264a.893.893 0 0 0-1.264 1.264l1.264 1.262-1.264 1.264a.893.893 0 0 0 1.264 1.262l1.262-1.262 1.264 1.262a.893.893 0 0 0 1.262-1.262l-1.262-1.264 1.262-1.262a.893.893 0 0 0-1.262-1.264z" clip-rule="evenodd"/></svg>