<svg xmlns="http://www.w3.org/2000/svg" fill="none" viewBox="0 0 24 24"><path fill="currentColor" fill-rule="evenodd" d="M21.56 18.985a.837.837 0 0 1-.856-.04L17 16.473v.943c0 .92-.747 1.666-1.667 1.666H3.667c-.92 0-1.667-.747-1.667-1.666V6.583c0-.918.748-1.666 1.667-1.666h11.666c.92 0 1.667.748 1.667 1.666v.944l3.704-2.47A.833.833 0 0 1 22 5.75v12.5c0 .308-.17.59-.44.735ZM20.333 7.308 16.63 9.777c-.021.014-.046.016-.069.028a.776.776 0 0 1-.158.065.804.804 0 0 1-.159.031c-.026.003-.05.016-.076.016-.029 0-.053-.013-.081-.017a.752.752 0 0 1-.16-.032.79.79 0 0 1-.397-.267c-.016-.02-.04-.032-.056-.055-.014-.022-.016-.048-.028-.07a.765.765 0 0 1-.063-.155.814.814 0 0 1-.034-.163c-.002-.026-.015-.048-.015-.074v-2.5H3.667v10.864h11.666v-2.531c0-.026.013-.049.015-.075a.792.792 0 0 1 .034-.162.792.792 0 0 1 .063-.156c.012-.022.014-.048.028-.07.015-.022.04-.034.057-.055a.806.806 0 0 1 .56-.3c.027-.003.05-.015.077-.015.026 0 .047.012.072.015a.807.807 0 0 1 .32.097c.023.011.049.013.07.028l3.704 2.469V7.308Z" clip-rule="evenodd"/></svg>