<svg xmlns="http://www.w3.org/2000/svg" fill="none" viewBox="0 0 24 24"><path fill="#FDB7A5" d="M21.02 17.351a13.963 13.963 0 0 1-3.163 3.182 32.89 32.89 0 0 1-5.699 3.42.333.333 0 0 1-.342 0 34.021 34.021 0 0 1-5.384-3.201A15.488 15.488 0 0 1 3.26 17.75a5.361 5.361 0 0 1-1.24-2.91V5.827c0-.635 0-1.27-.02-1.905 0-.248.116-.327.342-.409C4.322 2.793 6.3 2.07 8.27 1.34 9.451.908 10.625.466 11.81.03a.636.636 0 0 1 .39 0c2.293.835 4.582 1.683 6.875 2.524.883.334 1.772.654 2.667.96a.33.33 0 0 1 .196.129.317.317 0 0 1 .06.22V14.32a5.078 5.078 0 0 1-.979 3.031Z" style="mix-blend-mode:multiply"/><path fill="#FB5930" d="M11.996 22a1.018 1.018 0 0 1-.439-.105 26.795 26.795 0 0 1-4.317-2.567 12.623 12.623 0 0 1-2.636-2.479 4.85 4.85 0 0 1-1.101-2.612V5.729a.91.91 0 0 1 .172-.61.99.99 0 0 1 .538-.37L8.83 3.07l.953-.35 1.818-.653c.259-.09.543-.09.802 0 1.173.425 2.359.863 3.508 1.28l1.865.683c.613.226 1.337.487 2.057.745.2.06.374.183.494.347a.88.88 0 0 1 .171.56v8.12a4.582 4.582 0 0 1-.874 2.727 11.52 11.52 0 0 1-2.62 2.613 26.547 26.547 0 0 1-4.563 2.747 1.02 1.02 0 0 1-.446.111ZM4.902 5.938v8.22c.077.7.37 1.363.843 1.904.674.841 1.47 1.586 2.366 2.211a25.527 25.527 0 0 0 3.885 2.33 24.88 24.88 0 0 0 4.138-2.51c.9-.643 1.683-1.423 2.318-2.308a3.3 3.3 0 0 0 .645-1.96V5.938c-.648-.229-1.283-.458-1.828-.654L15.408 4.6c-1.118-.409-2.27-.833-3.409-1.245-.569.203-1.145.415-1.714.62l-.953.353-4.43 1.61Z"/><path fill="url(#a)" fill-rule="evenodd" d="m17.07 9.44-.367-.977.254-.56a.19.19 0 0 0-.04-.214l-.693-.688a1.136 1.136 0 0 0-1.163-.265l-.194.066-1.013-1.135H10.13l-1 1.149-.189-.066a1.139 1.139 0 0 0-1.175.268l-.705.701a.15.15 0 0 0-.032.17l.267.583-.365.976.236.88 1.076 4.013c.124.462.41.867.807 1.145 0 0 1.306.904 2.596 1.724a.658.658 0 0 0 .359.123.655.655 0 0 0 .359-.123c1.448-.931 2.594-1.728 2.594-1.728a2.04 2.04 0 0 0 .805-1.146l1.071-4.014.236-.882Z" clip-rule="evenodd"/><path fill="#fff" fill-rule="evenodd" d="m15.924 9.634-.016.052-.027.094a7.927 7.927 0 0 1-.334.372l-1.035 1.078c-.112.117-.176.264-.112.412l.14.338a.85.85 0 0 1 .009.557.994.994 0 0 1-.311.428l-.108.087a.525.525 0 0 1-.502.059l-.476-.222a2.473 2.473 0 0 1-.492-.321l-.45-.397a.202.202 0 0 1-.012-.295l1.098-.726c.136-.09.208-.257.13-.399l-.39-.696c-.077-.142-.108-.33-.068-.42.04-.088.197-.207.351-.264l1.275-.464c.153-.057.145-.116-.019-.131l-.814-.06a1.137 1.137 0 0 0-.442.052l-.616.15c-.159.043-.192.208-.162.366l.254 1.352c.03.158.044.317.032.354-.011.036-.152.095-.313.131l-.21.047a1.66 1.66 0 0 1-.584.004l-.255-.054c-.16-.033-.302-.09-.314-.127-.012-.037.002-.196.032-.354l.253-1.352c.03-.159-.004-.323-.162-.367l-.617-.148a1.14 1.14 0 0 0-.442-.051l-.814.06c-.164.015-.172.074-.018.13l1.275.463c.153.057.312.176.351.265.04.089.01.277-.068.42l-.39.696c-.077.142-.004.308.132.398l1.099.725a.202.202 0 0 1-.01.295l-.451.398a2.473 2.473 0 0 1-.492.322l-.476.222a.526.526 0 0 1-.501-.059l-.108-.086a1.008 1.008 0 0 1-.317-.441.842.842 0 0 1 .013-.544l.14-.337c.063-.149 0-.296-.113-.413L8.43 10.156a8.014 8.014 0 0 1-.334-.37L8.07 9.69l-.017-.052a1.15 1.15 0 0 1 .045-.304c.025-.052.12-.204.213-.337l.221-.321c.093-.133.252-.345.354-.471l.325-.4c.102-.125.19-.228.203-.227l.294.054.492.093.396.074c.056.01.23-.022.386-.072l.354-.112a7.92 7.92 0 0 1 .527-.146l.124.002.124-.002c.133.03.37.096.527.145l.354.112c.157.05.33.081.387.07l.327-.06.068-.014.492-.093c.162-.03.294-.055.304-.054a3.3 3.3 0 0 1 .194.227l.325.399c.103.126.262.337.354.47l.223.322c.092.133.236.375.245.43.009.056.015.15.013.21Zm-3.87 3.218c.015 0 .15.05.303.112l.14.057c.152.061.397.171.543.244l.416.207c.146.073.157.209.023.303l-.354.248a7.426 7.426 0 0 0-.467.361l-.447.383a.35.35 0 0 1-.443.001l-.443-.38a7.229 7.229 0 0 0-.468-.357l-.353-.245c-.135-.093-.125-.23.02-.304l.419-.213c.145-.075.389-.186.54-.248l.141-.057c.152-.062.288-.112.303-.112h.127Z" clip-rule="evenodd"/><defs><linearGradient id="a" x1="6.931" x2="17.07" y1="17.416" y2="17.416" gradientUnits="userSpaceOnUse"><stop stop-color="#F50"/><stop offset="1" stop-color="#FF2000"/></linearGradient></defs></svg>