<svg xmlns="http://www.w3.org/2000/svg" fill="none" viewBox="0 0 24 24"><path fill="#62757E" fill-rule="evenodd" d="M16.429 15.545 12.767 9.72V6.547l6.556 10.927zM8.387 16.83h7.197l2.336 1.557H5.662zm2.841-7.11-3.645 5.797-2.644 1.51 6.289-10.481zm.77 1.668 2.455 3.903h-4.91zm9.893 7.373L12.658 3.373c-.025-.04-.057-.072-.088-.106A.76.76 0 0 0 11.997 3a.76.76 0 0 0-.572.267c-.03.034-.063.065-.087.106L2.105 18.762a.8.8 0 0 0-.082.191l-.002.014a.8.8 0 0 0-.01.315.8.8 0 0 0 .084.254v.002l.002.001c.013.023.03.039.045.06.025.034.048.072.078.102s.063.05.097.075c.022.016.04.034.063.047.036.021.074.033.113.048q.035.017.072.03a1 1 0 0 0 .176.023l.023.003H21.23a.769.769 0 0 0 .66-1.166" clip-rule="evenodd"/></svg>