<svg xmlns="http://www.w3.org/2000/svg" fill="none" viewBox="0 0 24 24"><path fill="currentColor" fill-rule="evenodd" d="M3 5.15a.85.85 0 0 0 0 1.7h12a.85.85 0 0 0 0-1.7H3ZM2.15 10c0-.47.38-.85.85-.85h12a.85.85 0 0 1 0 1.7H3a.85.85 0 0 1-.85-.85Zm0 8c0-.47.38-.85.85-.85h9a.85.85 0 0 1 0 1.7H3a.85.85 0 0 1-.85-.85Zm0-4c0-.47.38-.85.85-.85h12a.85.85 0 0 1 0 1.7H3a.85.85 0 0 1-.85-.85Zm19.567 1.456a.85.85 0 0 0-1.434-.912l-2.992 4.7-1.76-1.408a.85.85 0 1 0-1.062 1.328l2.5 2a.85.85 0 0 0 1.248-.208l3.5-5.5Z" clip-rule="evenodd"/></svg>