<svg xmlns="http://www.w3.org/2000/svg" fill="none" viewBox="0 0 24 24"><path fill="#62757E" d="M18.27 10.96a1.2 1.2 0 0 1 0 2.08L6.6 19.776a1.2 1.2 0 0 1-1.8-1.04V5.263a1.2 1.2 0 0 1 1.8-1.04l11.67 6.738Z" opacity=".15"/><path fill="#62757E" fill-rule="evenodd" d="M16.93 8.22a.789.789 0 1 0 1.039-1.188l-6.526-4.27a.79.79 0 0 0-.845-.125c-.283.128-.411.389-.411.699v12.536a4.543 4.543 0 0 0-2.42-.683c-2.174 0-3.944 1.418-3.944 3.162 0 1.736 1.77 3.15 3.944 3.15 2.175 0 3.945-1.414 3.945-3.15 0-.017-.003-.033-.006-.049a.34.34 0 0 1-.005-.04c0-.01.003-.017.005-.026a.106.106 0 0 0 .006-.03V5.094l5.217 3.126Zm4.367 7.486a.85.85 0 0 0-1.434-.912l-2.992 4.7-1.76-1.408a.85.85 0 0 0-1.062 1.328l2.5 2a.85.85 0 0 0 1.248-.208l3.5-5.5Z" clip-rule="evenodd"/></svg>