<svg xmlns="http://www.w3.org/2000/svg" fill="none" viewBox="0 0 24 24"><path fill="currentColor" fill-rule="evenodd" d="M3.095 10.908c.141.46.424 3.121 1.273 3.889.874.79 4.173.778 4.805.436 1.414-.767 1.987-3.242 2.237-4.326.14-.614.59-.614.59-.614s.474 0 .616.613c.25 1.085.798 3.568 2.21 4.333.632.343 3.931.355 4.807-.435.847-.768 1.13-3.437 1.271-3.898.14-.46.848-.92.99-1.073.142-.154.142-.768 0-.921-.283-.307-3.618-.58-7.21-.154-.716.086-.989.307-2.685.307-1.696 0-1.97-.222-2.686-.307-3.588-.426-6.924-.152-7.207.154-.141.153-.141.768 0 .921.141.153.848.614.989 1.075Z" clip-rule="evenodd"/></svg>