<svg xmlns="http://www.w3.org/2000/svg" fill="none" viewBox="0 0 24 24"><path fill="#687485" fill-rule="evenodd" d="M6.233 14.502c.888 2.19 2.557 4.584 5.767 5.845 3.21-1.26 4.879-3.654 5.767-5.846.884-2.179.953-4.073.957-4.179v-.005c.005-.455.01-1.204.01-1.66V6.156a.06.06 0 0 0-.005-.025.076.076 0 0 0-.039-.039.056.056 0 0 0-.023-.004h-.834c-3.05 0-4.939-1.317-5.833-2.158-.892.84-2.78 2.158-5.833 2.158h-.834a.057.057 0 0 0-.023.004.073.073 0 0 0-.023.016.075.075 0 0 0-.016.023.06.06 0 0 0-.004.025v2.501c0 .456.004 1.205.009 1.66v.002-.001.004c.004.106.074 2 .957 4.18Zm6.042 7.45-.008.001A.828.828 0 0 1 12 22a.825.825 0 0 1-.268-.047l-.007-.001c-.003 0-.007 0-.01-.002-7.855-2.86-8.038-11.528-8.04-11.615a234.65 234.65 0 0 1-.008-1.678V6.156c0-.92.747-1.668 1.666-1.668h.834c3.5 0 5.075-2.071 5.14-2.16a.825.825 0 0 1 .641-.325.82.82 0 0 1 .748.329c.062.085 1.637 2.156 5.137 2.156h.834c.919 0 1.666.748 1.666 1.668v2.501c0 .462-.004 1.216-.009 1.678 0 .087-.184 8.755-8.039 11.615a.032.032 0 0 1-.01.002ZM7.897 11.133a.675.675 0 0 1-.966-.056c-.31-.337-.284-.887.051-1.179 2.955-2.621 7.222-2.621 10.172 0 .335.298.356.848.051 1.179a.687.687 0 0 1-.976.05c-2.418-2.15-5.92-2.15-8.332.006Zm3.802 5.125-.76-.825c-.242-.264-.186-.719.109-.893a2.055 2.055 0 0 1 2.02 0c.31.175.361.63.118.893l-.759.825a.486.486 0 0 1-.728 0Zm-1.741-2.846a.686.686 0 0 1-.946-.073c-.315-.342-.294-.91.062-1.19 1.783-1.398 4.205-1.398 5.982 0 .357.275.378.848.068 1.185l-.006.005a.692.692 0 0 1-.945.073 3.414 3.414 0 0 0-4.215 0Zm1.932 6.948h.004-.005.001Z" clip-rule="evenodd"/></svg>