<svg xmlns="http://www.w3.org/2000/svg" fill="none" viewBox="0 0 24 24"><path fill="url(#a)" d="M19.27 10.96a1.2 1.2 0 0 1 0 2.08L7.6 19.776a1.2 1.2 0 0 1-1.8-1.04V5.263a1.2 1.2 0 0 1 1.8-1.04z" opacity=".15"/><path fill="url(#b)" fill-rule="evenodd" d="M19.043 8.146a.79.79 0 0 1-1.114.074l-5.217-3.126v13.112c0 .02-.01.036-.011.055.001.031.01.059.01.09 0 1.736-1.769 3.15-3.944 3.15s-3.944-1.414-3.944-3.15c0-1.744 1.77-3.162 3.944-3.162.916 0 1.75.262 2.42.683V3.336c0-.31.128-.57.41-.699a.79.79 0 0 1 .846.125l6.526 4.27a.79.79 0 0 1 .074 1.114" clip-rule="evenodd"/><defs><linearGradient id="a" x1="19.139" x2="4.216" y1="18.842" y2="5.885" gradientUnits="userSpaceOnUse"><stop offset=".026" stop-color="#FA7250"/><stop offset=".401" stop-color="#FF1893"/><stop offset=".995" stop-color="#A78AFF"/></linearGradient><linearGradient id="b" x1="18.489" x2="1.263" y1="20.192" y2="7.339" gradientUnits="userSpaceOnUse"><stop offset=".026" stop-color="#FA7250"/><stop offset=".401" stop-color="#FF1893"/><stop offset=".995" stop-color="#A78AFF"/></linearGradient></defs></svg>