<svg xmlns="http://www.w3.org/2000/svg" fill="none" viewBox="0 0 24 24"><path fill="#62757E" fill-rule="evenodd" d="M4.796 4.937A2.8 2.8 0 0 0 2 7.737v8.526c0 1.546 1.252 2.8 2.796 2.8h9.375a2.8 2.8 0 0 0 2.788-2.58l2.046 1.83C20.163 19.349 22 18.525 22 16.97V7.03c0-1.555-1.837-2.378-2.995-1.342l-2.046 1.83a2.8 2.8 0 0 0-2.788-2.58zM15.37 9.244V7.737a1.2 1.2 0 0 0-1.198-1.2H4.796a1.2 1.2 0 0 0-1.198 1.2v8.526a1.2 1.2 0 0 0 1.198 1.2h9.375a1.2 1.2 0 0 0 1.198-1.2v-1.507a.799.799 0 0 1 1.33-.651l3.37 3.014a.2.2 0 0 0 .333-.149V7.03a.2.2 0 0 0-.333-.15L16.7 9.896a.798.798 0 0 1-1.33-.651M5.632 9a1 1 0 1 1 2 0 1 1 0 0 1-2 0m6.543.8a.8.8 0 0 0 0-1.6h-2.088a.8.8 0 0 0 0 1.6z" clip-rule="evenodd"/></svg>