<svg xmlns="http://www.w3.org/2000/svg" fill="none" viewBox="0 0 24 24"><path fill="#62757E" d="M20.543 7.406c0-.017-.008-.043-.008-.06a.8.8 0 0 0-.069-.248c-.008-.018 0-.026-.008-.043 0-.009-.009-.009-.017-.017a.8.8 0 0 0-.18-.232c-.018-.017-.035-.026-.052-.043-.034-.026-.06-.051-.094-.077L12.2 2.116a.85.85 0 0 0-.857 0L3.429 6.695a.4.4 0 0 0-.095.068c-.017.017-.034.026-.051.043a.8.8 0 0 0-.18.232c0 .008-.009.008-.017.017-.009.017 0 .025-.009.043a.8.8 0 0 0-.068.248c0 .017 0 .034-.009.06v9.166a.86.86 0 0 0 .429.746l7.914 4.57c.017.01.043.018.06.026l.069.026a.9.9 0 0 0 .291.06.9.9 0 0 0 .292-.06c.025-.009.051-.017.068-.026s.043-.017.06-.026l7.915-4.57a.86.86 0 0 0 .428-.746v-9.14c.026-.009.017-.017.017-.026m-8.771-3.55 6.096 3.516-6.096 2.975-6.088-2.975zM4.715 8.804l6.2 3.035v7.82l-6.2-3.575zm7.914 10.855v-7.82l6.2-3.035v7.271z"/></svg>