<svg xmlns="http://www.w3.org/2000/svg" fill="none" viewBox="0 0 24 24"><path fill="#62757E" fill-rule="evenodd" d="M2 5.29A2.09 2.09 0 0 1 4.09 3.2h12.972a2.4 2.4 0 0 1 2.4 2.4v.18h.138a2.4 2.4 0 0 1 2.4 2.4V18.4a2.4 2.4 0 0 1-2.4 2.4H4.4A2.4 2.4 0 0 1 2 18.4zm1.6 2.033V18.4a.8.8 0 0 0 .8.8h15.2a.8.8 0 0 0 .8-.8v-1.513h-5.848a2.4 2.4 0 0 1-2.4-2.4v-2.271a2.4 2.4 0 0 1 2.4-2.4H20.4V8.18a.8.8 0 0 0-.8-.8H4.09q-.254 0-.49-.058m16.8 4.093h-5.848a.8.8 0 0 0-.8.8v2.27a.8.8 0 0 0 .8.8H20.4zM3.6 5.29c0 .271.22.49.49.49h13.772V5.6a.8.8 0 0 0-.8-.8H4.09a.49.49 0 0 0-.49.49" clip-rule="evenodd"/></svg>