<svg xmlns="http://www.w3.org/2000/svg" fill="none" viewBox="0 0 24 24"><path fill="#687485" fill-rule="evenodd" d="m12 3.604-5.5 2.4v3.625c0 3.5 2.392 6.722 5.5 7.67 3.108-.948 5.5-4.17 5.5-7.67V6.003L12 3.604Zm7.13 6.025c0 4.028-2.651 7.813-6.33 9.095v.442c.461.202.832.573 1.034 1.034H20.2a.8.8 0 0 1 0 1.6h-6.366a2 2 0 0 1-3.668 0H3.8a.8.8 0 0 1 0-1.6h6.366a2.007 2.007 0 0 1 1.034-1.034v-.442c-3.679-1.282-6.33-5.067-6.33-9.095V5.974c0-.615.368-1.171.94-1.421l5.547-2.419a1.61 1.61 0 0 1 1.287 0l5.545 2.419c.573.25.942.806.942 1.421v3.655Zm-10.775.003a.626.626 0 0 1-.844-.045.637.637 0 0 1 .045-.948 7.038 7.038 0 0 1 8.89 0 .64.64 0 0 1 .045.948c-.23.23-.6.249-.853.04a5.754 5.754 0 0 0-7.283.005Zm3.323 4.123-.664-.664a.457.457 0 0 1 .095-.718 1.933 1.933 0 0 1 1.765 0 .45.45 0 0 1 .104.718l-.663.664a.45.45 0 0 1-.637 0Zm-1.522-2.29a.637.637 0 0 1-.826-.058c-.275-.276-.257-.732.054-.957a4.474 4.474 0 0 1 5.229 0c.311.22.33.681.059.952l-.005.005a.642.642 0 0 1-.826.059 3.19 3.19 0 0 0-3.684 0Z" clip-rule="evenodd"/></svg>