<svg xmlns="http://www.w3.org/2000/svg" fill="none" viewBox="0 0 24 24"><path fill="currentColor" d="M18.923 3.538H5.333c-.58 0-1.025.411-1.025.887v14.498a.77.77 0 0 1-1.539 0V4.425C2.77 3.07 3.93 2 5.334 2h13.725c.77 0 1.402.616 1.402 1.387v13.464a.77.77 0 0 1-1.538 0V3.538Z"/><path fill="currentColor" d="M20.462 20.461a.77.77 0 1 1 0 1.539H5.889c-1.72 0-3.12-1.374-3.12-3.077 0-1.704 1.399-3.077 3.12-3.077h14.573a.77.77 0 0 1 0 1.538H5.889c-.877 0-1.581.69-1.581 1.539 0 .847.704 1.538 1.581 1.538h14.573Z"/><path fill="currentColor" d="M19.984 21.022a.77.77 0 1 1-1.48.417 9.234 9.234 0 0 1 0-5.032.77.77 0 0 1 1.48.416 7.695 7.695 0 0 0 0 4.2ZM14.308 2.77a.77.77 0 0 1 1.538 0v7.691a.77.77 0 0 1-1.257.595L12 8.932l-2.589 2.124a.77.77 0 0 1-1.257-.595V2.77a.77.77 0 1 1 1.538 0v6.066l1.82-1.492a.77.77 0 0 1 .976 0l1.82 1.492V2.77Z"/></svg>