<svg xmlns="http://www.w3.org/2000/svg" fill="none" viewBox="0 0 24 24"><path fill="#62757E" fill-rule="evenodd" d="M9.373 4.874V3.797A.805.805 0 0 0 8.559 3a.805.805 0 0 0-.814.797v1.077H2.814A.805.805 0 0 0 2 5.671c0 .44.364.796.814.796l8.74.001-.074.19a15.2 15.2 0 0 1-2.812 4.612l-.109.123-.108-.123a15 15 0 0 1-1.643-2.23.85.85 0 0 0-.728-.417h-.068c-.602 0-.975.603-.685 1.094.57.963 1.236 1.868 1.99 2.704l.094.104-.106.093a14.3 14.3 0 0 1-4.276 2.575c-.415.16-.652.595-.535 1.006a.775.775 0 0 0 1.01.523 15.9 15.9 0 0 0 4.959-2.98l.096-.084.096.085q.904.796 1.918 1.451c.4.259.949.073 1.134-.38a.84.84 0 0 0-.334-1.014 14 14 0 0 1-1.557-1.183l-.107-.093.094-.104a16.85 16.85 0 0 0 3.438-5.856l.033-.097h1.03c.45 0 .814-.356.814-.796a.805.805 0 0 0-.814-.797zm9.873 12.758 1.218 2.894c.12.284.411.474.74.474.57 0 .944-.543.74-1.029l-4.11-9.767c-.204-.487-.703-.81-1.261-.81-.559 0-1.057.323-1.262.81l-4.108 9.767c-.205.487.17 1.029.739 1.029.328 0 .62-.19.739-.474l1.216-2.894zm-2.673-6.36 2.041 4.857h-4.086z" clip-rule="evenodd"/></svg>