<svg xmlns="http://www.w3.org/2000/svg" fill="none" viewBox="0 0 24 24"><path fill="#FADBEC" d="M18.27 10.96a1.2 1.2 0 0 1 0 2.08L6.6 19.776a1.2 1.2 0 0 1-1.8-1.04V5.264a1.2 1.2 0 0 1 1.8-1.04l11.67 6.738Z"/><path fill="url(#a)" fill-rule="evenodd" d="M18.043 8.146a.789.789 0 0 1-1.113.074l-5.218-3.126v13.112c0 .02-.01.036-.011.055.001.031.01.059.01.09 0 1.736-1.769 3.149-3.943 3.149-2.175 0-3.945-1.413-3.945-3.15 0-1.743 1.77-3.161 3.945-3.161.915 0 1.748.261 2.419.683V3.336c0-.31.128-.57.41-.699a.79.79 0 0 1 .846.125l6.526 4.27a.79.79 0 0 1 .074 1.114Z" clip-rule="evenodd"/><path fill="url(#b)" fill-rule="evenodd" d="M17.237 20.737a.763.763 0 0 0 1.526 0v-1.929h1.929a.763.763 0 1 0 0-1.525h-1.93v-1.93a.763.763 0 1 0-1.525 0v1.93h-1.929a.763.763 0 0 0 0 1.525h1.93v1.93Z" clip-rule="evenodd"/><defs><linearGradient id="a" x1="17.489" x2=".263" y1="20.192" y2="7.339" gradientUnits="userSpaceOnUse"><stop offset=".026" stop-color="#FA7250"/><stop offset=".401" stop-color="#FF1893"/><stop offset=".995" stop-color="#A78AFF"/></linearGradient><linearGradient id="b" x1="21.096" x2="14.539" y1="21.023" y2="14.598" gradientUnits="userSpaceOnUse"><stop offset=".026" stop-color="#FA7250"/><stop offset=".401" stop-color="#FF1893"/><stop offset=".995" stop-color="#A78AFF"/></linearGradient></defs></svg>