<svg xmlns="http://www.w3.org/2000/svg" fill="none" viewBox="0 0 24 24"><path fill="currentColor" fill-rule="evenodd" d="M2.15 6c0-.47.38-.85.85-.85h12a.85.85 0 0 1 0 1.7H3A.85.85 0 0 1 2.15 6Zm0 4c0-.47.38-.85.85-.85h12a.85.85 0 0 1 0 1.7H3a.85.85 0 0 1-.85-.85Zm15.667 0c0-.47.38-.85.85-.85H21a.85.85 0 0 1 0 1.7h-1.483v7.832a3.176 3.176 0 0 1-3.184 3.168 3.176 3.176 0 0 1-3.183-3.168 3.176 3.176 0 0 1 3.183-3.168c.535 0 1.04.131 1.484.364V10Zm0 8.682c0-.806-.66-1.468-1.484-1.468s-1.483.662-1.483 1.468c0 .806.659 1.468 1.483 1.468.825 0 1.484-.662 1.484-1.468ZM3 17.15a.85.85 0 0 0 0 1.7h7a.85.85 0 1 0 0-1.7H3Zm-.056-4c-.439 0-.794.38-.794.85s.355.85.794.85h10.27c.439 0 .794-.38.794-.85s-.355-.85-.793-.85H2.944Z" clip-rule="evenodd"/></svg>