<svg xmlns="http://www.w3.org/2000/svg" fill="none" viewBox="0 0 24 24"><path fill="#62757E" fill-rule="evenodd" d="m2.034 20.465 5.9-3.466L12 9.872V3c-.107 0-.214.071-.296.214l-4.817 8.442L2.07 20.1c-.082.143-.09.272-.036.366M12 3v6.872l4.067 7.127 5.9 3.466c.052-.094.045-.223-.037-.366l-4.817-8.442-4.817-8.443C12.214 3.07 12.107 3 12 3" clip-rule="evenodd"/><path fill="#62757E" fill-rule="evenodd" d="m21.966 20.465-5.9-3.466H7.934l-5.899 3.466c.053.094.167.153.33.153h19.272c.162 0 .277-.059.33-.153" clip-rule="evenodd"/></svg>