<svg xmlns="http://www.w3.org/2000/svg" fill="none" viewBox="0 0 24 24"><path fill="currentColor" fill-rule="evenodd" d="M2.15 6c0-.47.38-.85.85-.85h12a.85.85 0 0 1 0 1.7H3A.85.85 0 0 1 2.15 6ZM3 9.15a.85.85 0 1 0 0 1.7h12a.85.85 0 1 0 0-1.7H3Zm0 8a.85.85 0 0 0 0 1.7h9a.85.85 0 1 0 0-1.7H3Zm11.15.85c0-.47.38-.85.85-.85h2.15V15a.85.85 0 1 1 1.7 0v2.15H21a.85.85 0 0 1 0 1.7h-2.15V21a.85.85 0 0 1-1.7 0v-2.15H15a.85.85 0 0 1-.85-.85ZM3 13.15a.85.85 0 0 0 0 1.7h12a.85.85 0 1 0 0-1.7H3Z" clip-rule="evenodd"/></svg>