<svg xmlns="http://www.w3.org/2000/svg" fill="none" viewBox="0 0 24 24"><path fill="url(#a)" d="M18.27 10.96a1.2 1.2 0 0 1 0 2.08L6.6 19.776a1.2 1.2 0 0 1-1.8-1.04V5.264a1.2 1.2 0 0 1 1.8-1.04l11.67 6.738Z" opacity=".15"/><path fill="url(#b)" fill-rule="evenodd" d="M16.93 8.22a.789.789 0 1 0 1.039-1.188l-6.526-4.27a.79.79 0 0 0-.845-.125c-.283.128-.411.389-.411.699v12.536a4.542 4.542 0 0 0-2.42-.683c-2.174 0-3.944 1.418-3.944 3.162 0 1.736 1.77 3.149 3.945 3.149 2.174 0 3.944-1.413 3.944-3.15 0-.016-.003-.032-.006-.048-.002-.013-.005-.027-.005-.04 0-.01.003-.017.005-.026a.108.108 0 0 0 .006-.03V5.094L16.93 8.22ZM18 21.5a.763.763 0 0 1-.763-.763v-1.929h-1.929a.763.763 0 1 1 0-1.525h1.93v-1.93a.763.763 0 0 1 1.525 0v1.93h1.929a.763.763 0 0 1 0 1.525h-1.93v1.93A.763.763 0 0 1 18 21.5Z" clip-rule="evenodd"/><defs><linearGradient id="a" x1="18.139" x2="3.216" y1="18.842" y2="5.885" gradientUnits="userSpaceOnUse"><stop offset=".026" stop-color="#FA7250"/><stop offset=".401" stop-color="#FF1893"/><stop offset=".995" stop-color="#A78AFF"/></linearGradient><linearGradient id="b" x1="20.538" x2="2.643" y1="20.192" y2="3.861" gradientUnits="userSpaceOnUse"><stop offset=".026" stop-color="#FA7250"/><stop offset=".401" stop-color="#FF1893"/><stop offset=".995" stop-color="#A78AFF"/></linearGradient></defs></svg>