<svg xmlns="http://www.w3.org/2000/svg" fill="none" viewBox="0 0 24 24"><path fill="currentColor" fill-rule="evenodd" d="M7.15 6c0-.47.38-.85.85-.85h13a.85.85 0 0 1 0 1.7H8A.85.85 0 0 1 7.15 6Zm4 4c0-.47.38-.85.85-.85h9a.85.85 0 0 1 0 1.7h-9a.85.85 0 0 1-.85-.85Zm0 4c0-.47.38-.85.85-.85h9a.85.85 0 0 1 0 1.7h-9a.85.85 0 0 1-.85-.85ZM8 17.15a.85.85 0 0 0 0 1.7h13a.85.85 0 1 0 0-1.7H8ZM5.143 7.103c-1.214-.954-2.993-.09-2.993 1.454v6.886c0 1.543 1.78 2.408 2.993 1.454l4.381-3.442a1.85 1.85 0 0 0 0-2.91L5.143 7.103ZM3.85 8.557a.15.15 0 0 1 .243-.117l4.381 3.442a.15.15 0 0 1 0 .236L4.093 15.56a.15.15 0 0 1-.243-.117V8.557Z" clip-rule="evenodd"/></svg>