<svg xmlns="http://www.w3.org/2000/svg" fill="none" viewBox="0 0 24 24"><path fill="currentColor" fill-rule="evenodd" d="M2.15 6c0-.47.38-.85.85-.85h12a.85.85 0 0 1 0 1.7H3A.85.85 0 0 1 2.15 6Zm0 4c0-.47.38-.85.85-.85h12a.85.85 0 0 1 0 1.7H3a.85.85 0 0 1-.85-.85Zm0 8c0-.47.374-.85.836-.85h8.855c.462 0 .836.38.836.85s-.374.85-.836.85H2.986A.843.843 0 0 1 2.15 18Zm14.827-4.773c-1.233-.765-2.827.12-2.827 1.572V19.9c0 1.451 1.594 2.337 2.827 1.572l4.105-2.552a1.85 1.85 0 0 0 0-3.142l-4.105-2.552ZM15.85 14.8c0-.118.13-.19.23-.128l4.105 2.552a.15.15 0 0 1 0 .254l-4.106 2.552a.15.15 0 0 1-.229-.128V14.8ZM2.986 13.15a.843.843 0 0 0-.836.85c0 .47.374.85.836.85h8.855c.462 0 .836-.38.836-.85s-.374-.85-.836-.85H2.986Z" clip-rule="evenodd"/></svg>