<svg xmlns="http://www.w3.org/2000/svg" fill="none" viewBox="0 0 24 24"><path fill="#62757E" fill-rule="evenodd" d="M16.937 9.221A.792.792 0 1 0 17.98 8.03l-6.334-5.542a.794.794 0 0 0-.848-.125c-.283.128-.412.39-.412.7v12.582a4.557 4.557 0 0 0-2.428-.686C5.776 14.959 4 16.382 4 18.132c0 1.743 1.776 3.16 3.958 3.16 2.183 0 3.958-1.417 3.958-3.16a.277.277 0 0 0-.005-.049.276.276 0 0 1-.006-.04c0-.01.003-.017.006-.026a.108.108 0 0 0 .005-.03V4.829l5.02 4.392ZM5.584 18.132c0-.861 1.087-1.59 2.374-1.59 1.288 0 2.375.729 2.375 1.59 0 .855-1.087 1.577-2.375 1.577-1.287 0-2.374-.722-2.374-1.577Zm16.133-2.176a.85.85 0 0 0-1.434-.912l-2.992 4.7-1.76-1.408a.85.85 0 1 0-1.062 1.328l2.5 2a.85.85 0 0 0 1.248-.208l3.5-5.5Z" clip-rule="evenodd"/></svg>