<svg xmlns="http://www.w3.org/2000/svg" fill="none" viewBox="0 0 24 24"><path fill="currentColor" fill-rule="evenodd" d="M10.9 20.361a8.805 8.805 0 1 0 0-17.61 8.805 8.805 0 0 0 0 17.61Zm0 1.65c5.774 0 10.455-4.68 10.455-10.455 0-5.774-4.681-10.455-10.456-10.455C5.125 1.1.444 5.78.444 11.556s4.68 10.456 10.455 10.456Z" clip-rule="evenodd"/><circle cx="21.905" cy="20.361" r="1.651" fill="#6B7084"/><path fill="currentColor" fill-rule="evenodd" d="m16.687 9.646-.42-1.116.292-.642a.216.216 0 0 0-.046-.243l-.792-.786a1.298 1.298 0 0 0-1.33-.304l-.222.076-1.157-1.298H8.755L7.612 6.646l-.215-.074a1.301 1.301 0 0 0-1.342.306l-.807.801a.172.172 0 0 0-.036.194l.304.666L5.1 9.655l.27 1.006 1.23 4.585c.142.53.468.992.922 1.31 0 0 1.493 1.032 2.967 1.97.13.082.265.143.41.14a.75.75 0 0 0 .41-.14c1.656-1.064 2.965-1.975 2.965-1.975a2.33 2.33 0 0 0 .92-1.31l1.225-4.587.269-1.008Z" clip-rule="evenodd"/><path fill="currentColor" fill-rule="evenodd" d="m15.378 9.868-.02.06-.03.106c-.081.1-.253.291-.382.425l-1.182 1.232c-.129.134-.201.303-.128.472l.16.385c.073.17.08.45.01.637-.071.192-.194.36-.356.49l-.123.098a.6.6 0 0 1-.573.068l-.545-.253a2.821 2.821 0 0 1-.562-.368l-.515-.454a.231.231 0 0 1-.013-.336l1.255-.83c.156-.103.238-.293.15-.455l-.446-.796c-.089-.162-.124-.378-.08-.48.046-.1.227-.237.402-.302l1.457-.53c.176-.066.166-.133-.02-.15l-.931-.068a1.3 1.3 0 0 0-.506.059l-.704.17c-.18.05-.219.239-.185.42l.29 1.544c.035.181.051.363.038.405-.014.042-.175.11-.358.15l-.241.053a1.89 1.89 0 0 1-.667.005l-.292-.061c-.183-.039-.345-.104-.358-.146-.014-.042.002-.224.036-.405l.29-1.545c.033-.18-.005-.37-.186-.418l-.705-.17a1.301 1.301 0 0 0-.505-.059l-.93.069c-.188.017-.197.085-.021.15l1.457.529c.176.065.356.2.402.302.045.101.01.317-.078.48l-.445.795c-.089.162-.006.353.15.455l1.256.83a.231.231 0 0 1-.013.336l-.514.454c-.14.124-.393.29-.562.368l-.544.254a.601.601 0 0 1-.573-.067l-.124-.098a1.151 1.151 0 0 1-.362-.504.963.963 0 0 1 .015-.622l.16-.386c.072-.17 0-.337-.13-.471l-1.183-1.23a9.169 9.169 0 0 1-.382-.425l-.03-.107-.02-.06a1.315 1.315 0 0 1 .052-.348c.028-.059.138-.232.243-.384l.253-.367c.105-.153.287-.395.404-.539l.371-.456c.117-.144.217-.26.232-.26l.337.062.562.105.452.085c.065.012.263-.025.442-.082l.405-.128c.178-.057.45-.132.602-.166l.141.002.142-.002c.152.034.424.109.602.165l.405.128c.179.057.378.093.442.081l.373-.07.079-.015.562-.107c.184-.034.336-.062.347-.061.005-.001.104.115.222.26l.372.455c.117.143.299.386.404.538l.254.367c.105.152.27.429.28.492.01.063.018.17.016.24Zm-4.423 3.677c.017 0 .172.057.346.128l.16.065c.174.07.453.196.62.28l.476.236c.167.083.18.239.026.346l-.405.283a8.476 8.476 0 0 0-.534.414l-.51.436a.4.4 0 0 1-.506.002 69.06 69.06 0 0 0-.506-.433 8.297 8.297 0 0 0-.535-.41l-.404-.28c-.154-.106-.143-.262.024-.347l.478-.244c.166-.085.444-.212.618-.282l.16-.066c.174-.07.33-.128.346-.128h.146Z" clip-rule="evenodd"/></svg>