<svg xmlns="http://www.w3.org/2000/svg" fill="none" viewBox="0 0 24 24"><path fill="#62757E" fill-rule="evenodd" d="M18.929 9.147a.79.79 0 0 1-1.117.074l-5.02-4.392v13.158c0 .02-.01.036-.012.055.002.031.011.059.011.09 0 1.743-1.775 3.16-3.958 3.16-2.182 0-3.958-1.417-3.958-3.16 0-1.75 1.776-3.173 3.958-3.173.92 0 1.755.263 2.428.686V3.064c0-.311.129-.573.412-.701a.79.79 0 0 1 .848.125l6.334 5.542a.79.79 0 0 1 .074 1.117M8.833 16.543c-1.287 0-2.374.728-2.374 1.589 0 .855 1.087 1.577 2.374 1.577s2.375-.722 2.375-1.577c0-.861-1.087-1.59-2.375-1.59" clip-rule="evenodd"/></svg>