<svg xmlns="http://www.w3.org/2000/svg" fill="none" viewBox="0 0 24 24"><path fill="#62757E" fill-rule="evenodd" d="m5.05 6.126 6.805-2.996a.36.36 0 0 1 .29 0l6.806 2.996a.33.33 0 0 1 .199.295v4.525c0 4.523-3.089 8.716-7.15 9.899-4.061-1.183-7.15-5.376-7.15-9.899V6.421c0-.12.072-.239.2-.295m7.74-4.46a1.96 1.96 0 0 0-1.58 0L4.405 4.661a1.93 1.93 0 0 0-1.155 1.76v4.525c0 5.344 3.733 10.34 8.75 11.554 5.017-1.213 8.75-6.21 8.75-11.554V6.421c0-.761-.453-1.45-1.155-1.76zm-4.868 9.158A7 7 0 0 1 12 9.521c1.522 0 2.928.483 4.078 1.303a.839.839 0 0 0 .975-1.365A8.67 8.67 0 0 0 12 7.844a8.67 8.67 0 0 0-5.053 1.615.839.839 0 0 0 .975 1.365m1.586 2.752A3.86 3.86 0 0 1 12 12.67c.95 0 1.818.34 2.492.906a.839.839 0 1 0 1.079-1.285A5.54 5.54 0 0 0 12 10.992a5.54 5.54 0 0 0-3.57 1.299.839.839 0 0 0 1.078 1.285m4.077 1.188c.216.193.161.527-.083.682a8 8 0 0 1-1.322.676.5.5 0 0 1-.36 0 8 8 0 0 1-1.322-.676c-.244-.155-.3-.49-.083-.682A2.38 2.38 0 0 1 12 14.163c.608 0 1.163.227 1.585.601" clip-rule="evenodd"/></svg>