<svg xmlns="http://www.w3.org/2000/svg" fill="none" viewBox="0 0 24 24"><path fill="#62757E" fill-rule="evenodd" d="M16.937 9.221A.792.792 0 1 0 17.98 8.03l-6.334-5.542a.79.79 0 0 0-.848-.125c-.283.128-.412.39-.412.7v12.582a4.56 4.56 0 0 0-2.428-.686C5.776 14.959 4 16.382 4 18.132c0 1.743 1.776 3.16 3.958 3.16s3.958-1.417 3.958-3.16a.3.3 0 0 0-.005-.049l-.006-.04q0-.014.006-.026a.1.1 0 0 0 .005-.03V4.829zM5.584 18.132c0-.861 1.087-1.59 2.374-1.59s2.375.729 2.375 1.59c0 .855-1.087 1.577-2.375 1.577-1.287 0-2.374-.722-2.374-1.577m15.254 2.706a.763.763 0 0 1-1.078 0l-1.364-1.364-1.364 1.364a.763.763 0 0 1-1.079-1.078l1.364-1.364-1.364-1.364a.763.763 0 0 1 1.079-1.079l1.364 1.364 1.364-1.364a.763.763 0 0 1 1.078 1.079l-1.364 1.364 1.364 1.364a.763.763 0 0 1 0 1.078" clip-rule="evenodd"/></svg>