<svg xmlns="http://www.w3.org/2000/svg" fill="none" viewBox="0 0 24 24"><path fill="currentColor" fill-rule="evenodd" d="M7.22 7.217A2.6 2.6 0 0 0 9.8 4.898c3.173-.568 6.394.8 8.024 3.624a.87.87 0 0 0 1.506-.87c-2.01-3.484-5.978-5.171-9.912-4.437A2.601 2.601 0 0 0 7.22 2a2.609 2.609 0 1 0 0 5.217Zm0 9.566c-.512 0-.987.153-1.39.408a7.146 7.146 0 0 1-1.844-3.226 7.158 7.158 0 0 1 .708-5.443.87.87 0 1 0-1.507-.87c-1.18 2.046-1.493 4.445-.882 6.758a8.86 8.86 0 0 0 2.45 4.161c-.086.26-.144.532-.144.82a2.609 2.609 0 1 0 2.61-2.608Zm12.174-6.957a2.605 2.605 0 0 1 .467 5.17c-1.1 3.594-4.35 6.134-8.293 6.134a.87.87 0 1 1 0-1.739c3.067 0 5.604-1.933 6.552-4.693a2.598 2.598 0 0 1-1.335-2.263 2.609 2.609 0 0 1 2.609-2.609Z" clip-rule="evenodd"/></svg>