<svg xmlns="http://www.w3.org/2000/svg" fill="none" viewBox="0 0 24 24"><path fill="#62757E" fill-rule="evenodd" d="M11.352 2.005a2.234 2.234 0 0 0-2.168 1.693l-.49 1.963A4.17 4.17 0 0 1 5.66 8.693l-1.963.491a2.234 2.234 0 0 0 0 4.335l1.963.491a4.17 4.17 0 0 1 3.032 3.032l.491 1.964a2.234 2.234 0 0 0 4.335 0l.491-1.964a4.17 4.17 0 0 1 3.032-3.032l1.964-.49a2.234 2.234 0 0 0 0-4.336l-1.964-.49A4.17 4.17 0 0 1 14.01 5.66l-.49-1.963a2.234 2.234 0 0 0-2.168-1.693m-.593 2.086a.61.61 0 0 1 1.185 0l.491 1.964a5.79 5.79 0 0 0 4.213 4.213l1.964.491a.61.61 0 0 1 0 1.185l-1.964.491a5.79 5.79 0 0 0-4.213 4.213l-.49 1.964a.61.61 0 0 1-1.186 0l-.49-1.964a5.79 5.79 0 0 0-4.214-4.213l-1.964-.49a.61.61 0 0 1 0-1.186l1.964-.49a5.79 5.79 0 0 0 4.213-4.214zm8.307 11.35a.583.583 0 0 0-1.132 0l-.201.806a2.04 2.04 0 0 1-1.486 1.486l-.805.201a.583.583 0 0 0 0 1.132l.805.201a2.04 2.04 0 0 1 1.486 1.486l.201.805a.583.583 0 0 0 1.132 0l.201-.805a2.04 2.04 0 0 1 1.486-1.486l.805-.201a.583.583 0 0 0 0-1.132l-.805-.201a2.04 2.04 0 0 1-1.486-1.486z" clip-rule="evenodd"/></svg>