<svg xmlns="http://www.w3.org/2000/svg" fill="none" viewBox="0 0 24 24"><path fill="#469EA2" d="m3 16.946 8.629 4.982 8.628-4.982V6.982L11.63 2 3 6.982v9.964Z"/><path fill="#6ACAD1" d="M10.745 3.192 4.48 6.807c.01.113.01.227 0 .34l6.256 3.615a1.495 1.495 0 0 1 1.777 0l6.256-3.616a1.863 1.863 0 0 1 0-.339l-6.246-3.615a1.495 1.495 0 0 1-1.777 0Zm8.629 4.95L13.108 11.8a1.513 1.513 0 0 1-.884 1.54l.01 7.191c.102.045.198.1.288.164l6.256-3.615a1.513 1.513 0 0 1 .883-1.541V8.307a2.057 2.057 0 0 1-.287-.164Zm-15.49.042c-.09.064-.187.12-.288.164v7.232a1.477 1.477 0 0 1 .883 1.54l6.256 3.616a1.6 1.6 0 0 1 .288-.164v-7.231a1.477 1.477 0 0 1-.884-1.541L3.883 8.184Z"/><path fill="#469EA2" d="m11.629 3.079 7.714 4.458v8.906L11.63 20.9l-7.715-4.458V7.526L11.63 3.08Zm0-1.058L3 7.003v9.964l8.629 4.982 8.628-4.982V7.003L11.63 2.02Z"/><path fill="#469EA2" d="M11.69 13.659h-.123a1.609 1.609 0 0 1-1.613-1.613v-.123a1.61 1.61 0 0 1 1.613-1.613h.123a1.609 1.609 0 0 1 1.613 1.613v.123a1.609 1.609 0 0 1-1.613 1.613Zm0 6.626h-.123a1.607 1.607 0 0 0-1.407.821l1.469.843 1.469-.843a1.607 1.607 0 0 0-1.408-.822Zm8.578-4.982h-.062a1.608 1.608 0 0 0-1.613 1.612v.123c-.001.274.07.544.206.781l1.469-.852v-1.664Zm-1.47-9.143a1.581 1.581 0 0 0-.205.78v.124a1.609 1.609 0 0 0 1.613 1.613h.062V7.003l-1.47-.843Zm-7.17-4.14-1.468.843a1.616 1.616 0 0 0 1.407.832h.123a1.608 1.608 0 0 0 1.408-.822l-1.47-.852Zm-7.16 4.13L3 7.003v1.674h.062a1.608 1.608 0 0 0 1.612-1.613v-.123a1.708 1.708 0 0 0-.205-.791Zm-1.406 9.152H3v1.665l1.469.852a1.57 1.57 0 0 0 .205-.78v-.124a1.609 1.609 0 0 0-1.612-1.612Z"/><path fill="#083B54" fill-opacity=".15" d="M11.629 22v-9.974L3 7.044v9.974L11.629 22Z"/><path fill="#083B54" fill-opacity=".05" d="M20.268 16.925V6.961l-8.63 4.982v9.975l8.63-4.992Z"/></svg>