<svg xmlns="http://www.w3.org/2000/svg" fill="none" viewBox="0 0 24 24"><path fill="#6d4aff" d="M0 2.928c0-.467.545-.723.904-.424l9.51 7.901c.92.764 2.253.764 3.172 0l9.51-7.901a.552.552 0 0 1 .904.424v16.213a2.483 2.483 0 0 1-2.483 2.484H2.483A2.483 2.483 0 0 1 0 19.14z"/><path fill="url(#a)" fill-rule="evenodd" d="m15.24 9.03.001.002-4.789 4.233a2.206 2.206 0 0 1-2.872.042L0 7V2.928c0-.467.545-.723.904-.424l9.51 7.901c.92.764 2.253.764 3.172 0z" clip-rule="evenodd"/><path fill="url(#b)" fill-rule="evenodd" d="M18.897 5.993v15.632h2.62A2.483 2.483 0 0 0 24 19.14V2.928a.552.552 0 0 0-.904-.424z" clip-rule="evenodd"/><defs><linearGradient id="a" x1="18.104" x2="12.627" y1="11.792" y2="-11.573" gradientUnits="userSpaceOnUse"><stop stop-color="#e2dbff"/><stop offset="1" stop-color="#6d4aff"/></linearGradient><linearGradient id="b" x1="31.31" x2="12.625" y1="34.287" y2="-5.607" gradientUnits="userSpaceOnUse"><stop offset=".271" stop-color="#e2dbff"/><stop offset="1" stop-color="#6d4aff"/></linearGradient></defs></svg>