<svg xmlns="http://www.w3.org/2000/svg" fill="none" viewBox="0 0 24 24"><g clip-path="url(#a)"><path fill="#1A53F0" d="M12 24c6.627 0 12-5.373 12-12S18.627 0 12 0 0 5.373 0 12s5.373 12 12 12Z"/><path fill="#fff" fill-rule="evenodd" d="M14.077 9.508a.504.504 0 0 1-.073-.007.407.407 0 0 0-.059-.006c-.69 0-1.382 0-2.073-.005-.145 0-.193.044-.193.188.004.8.009 1.6 0 2.397 0 .155.061.197.206.197l.77.002c.513.003 1.026.006 1.54-.002.214-.005.288.078.288.27v1.242c0 .159-.086.16-.177.16-.05.001-.102.002-.142.028a5.471 5.471 0 0 1-.014.116l-.021.169h-4.032c-.192.001-.365.002-.282-.298a9.293 9.293 0 0 0-.285-.03V9.713c.055-.008.108-.014.163-.02l.13-.015v-1.21H8.609v1.206a.55.55 0 0 0 .145.023c.109-.005.155.034.155.155-.002.228-.002.457-.002.686 0 .324-.001.649-.006.972 0 .053-.078.148-.123.148-.901.005-1.802 0-2.703-.004a.161.161 0 0 1-.057-.026C6.034 8.78 8.694 6.023 11.682 6v.276c0 .252 0 .504.002.757.002.503.004 1.007-.002 1.508 0 .192.061.249.249.249a69.7 69.7 0 0 1 1.92 0c.167 0 .268-.03.246-.223-.018-.148.07-.183.2-.18.32.01.64.018.959.018.149 0 .205.052.201.206-.008.371-.008.743 0 1.11 0 .156-.065.18-.197.175a13.354 13.354 0 0 0-.934 0c-.193.01-.271-.057-.234-.25a.42.42 0 0 0-.015-.138Zm.072 5.507.01.148h1.212v-1.219c-.306.065-.3-.122-.294-.313l.001-.05c.005-.371.005-.743 0-1.11 0-.14.04-.197.184-.197.849.005 1.701.005 2.55 0 .219 0 .196.132.175.247l-.009.059a5.773 5.773 0 0 1-.813 2.432c-1.032 1.679-2.533 2.646-4.484 2.929l-.06.005c-.018 0-.035.002-.05.003-.135.005-.201.007-.234-.025-.032-.031-.032-.096-.032-.223v-.014c.003-.857.003-1.713 0-2.569 0-.205.043-.297.28-.284.291.015.585.012.878.008l.386-.003c.06 0 .12.003.18.007l.108.005.012.164Zm-4.351.151H8.577l.002-1.21c.166-.03.25-.045.293-.095.043-.052.043-.14.043-.32v-.253c0-.271-.001-.544.005-.814.005-.149-.041-.206-.197-.206-.844.005-1.684 0-2.529-.008-.161-.005-.214.061-.188.205.018.106.033.212.048.317.035.248.07.495.143.732.639 2.137 2.021 3.559 4.156 4.224.288.09.588.141.885.192.132.022.264.044.393.07a.516.516 0 0 0 .044-.118c.003-.967.003-1.934 0-2.9a.2.2 0 0 0-.14-.135 30.738 30.738 0 0 0-1.549 0c-.057 0-.123.084-.162.144a.5.5 0 0 0-.026.175Z" clip-rule="evenodd"/></g><defs><clipPath id="a"><path fill="#fff" d="M0 0h24v24H0z"/></clipPath></defs></svg>