<svg xmlns="http://www.w3.org/2000/svg" fill="none" viewBox="0 0 24 24"><g clip-path="url(#a)"><path fill="#1A53F0" d="M12 24c6.627 0 12-5.373 12-12S18.627 0 12 0 0 5.373 0 12s5.373 12 12 12"/><path fill="#fff" fill-rule="evenodd" d="m14.077 9.508-.073-.007q-.03-.005-.059-.006-1.036.001-2.073-.005c-.145 0-.193.044-.193.188.004.8.009 1.6 0 2.397 0 .155.061.197.206.197l.77.002c.513.003 1.026.006 1.54-.002.214-.005.288.078.288.27v1.242c0 .159-.086.16-.177.16-.05.001-.102.002-.142.028l-.014.116-.021.169h-4.032c-.192.001-.365.002-.282-.298a9 9 0 0 0-.285-.03V9.713l.163-.02.13-.015v-1.21H8.609v1.206a.6.6 0 0 0 .145.023c.109-.005.155.034.155.155q-.003.342-.002.686 0 .487-.006.972c0 .053-.078.148-.123.148-.901.005-1.802 0-2.703-.004a.2.2 0 0 1-.057-.026C6.034 8.78 8.694 6.023 11.682 6v.276l.002.757q.005.755-.002 1.508c0 .192.061.249.249.249a70 70 0 0 1 1.92 0c.167 0 .268-.03.246-.223-.018-.148.07-.183.2-.18q.48.017.959.018c.149 0 .205.052.201.206q-.012.558 0 1.11c0 .156-.065.18-.197.175a13 13 0 0 0-.934 0c-.193.01-.271-.057-.234-.25a.4.4 0 0 0-.015-.138m.072 5.507.01.148h1.212v-1.219c-.306.065-.3-.122-.294-.313l.001-.05q.008-.558 0-1.11c0-.14.04-.197.184-.197q1.275.008 2.55 0c.219 0 .196.132.175.247l-.009.059a5.8 5.8 0 0 1-.813 2.432c-1.032 1.679-2.533 2.646-4.484 2.929l-.06.005q-.027 0-.05.003c-.135.005-.201.007-.234-.025-.032-.031-.032-.096-.032-.223v-.014q.005-1.285 0-2.569c0-.205.043-.297.28-.284.291.015.585.012.878.008l.386-.003q.09 0 .18.007l.108.005zm-4.351.151H8.577l.002-1.21c.166-.03.25-.045.293-.095.043-.052.043-.14.043-.32v-.253q-.002-.408.005-.814c.005-.149-.041-.206-.197-.206-.844.005-1.684 0-2.529-.008-.161-.005-.214.061-.188.205q.026.16.048.317c.035.248.07.495.143.732.639 2.137 2.021 3.559 4.156 4.224.288.09.588.141.885.192q.199.032.393.07a.5.5 0 0 0 .044-.118q.004-1.45 0-2.9a.2.2 0 0 0-.14-.135 31 31 0 0 0-1.549 0c-.057 0-.123.084-.162.144a.5.5 0 0 0-.026.175" clip-rule="evenodd"/></g><defs><clipPath id="a"><path fill="#fff" d="M0 0h24v24H0z"/></clipPath></defs></svg>