<svg xmlns="http://www.w3.org/2000/svg" fill="none" viewBox="0 0 24 24"><g clip-path="url(#a)"><path fill="#015CC6" d="M12 24c6.627 0 12-5.373 12-12S18.627 0 12 0 0 5.373 0 12s5.373 12 12 12"/><path fill="#fff" fill-rule="evenodd" d="M11.646 12.242V6h-.258v.011l-.038.005q-.026.002-.048.006-.015.003-.03.01-.021.01-.042.012a1.5 1.5 0 0 0-.378.054q-.135.027-.266.063-.084.023-.17.043a1 1 0 0 0-.14.044.8.8 0 0 1-.229.057c-.07.04-.145.067-.221.093q-.075.025-.15.057-.09.039-.178.082-.105.052-.215.098-.15.064-.287.154-.22.142-.437.29l-.067.046a5.5 5.5 0 0 0-.9.79 6 6 0 0 0-.57.728 7 7 0 0 1-.167.241 2 2 0 0 0-.15.265q-.03.058-.058.118l-.033.066-.029.058a1 1 0 0 0-.061.127l-.067.163a4 4 0 0 0-.107.268q-.044.13-.085.26l-.038.122a3 3 0 0 0-.062.231q-.006.024-.007.05c-.003.03-.005.06-.02.078-.018.023-.018.05-.018.075s0 .048-.017.065c-.015.016-.013.037-.011.058.002.025.004.05-.022.069a.3.3 0 0 1-.01.1q-.008.038-.01.077a.6.6 0 0 1-.015.123.6.6 0 0 0-.016.123c0 .003-.012.008-.019.008v.264h2.843c.023 0 .037-.003.037-.03q-.001-.024 0-.047V9.994c0-.077 0-.077-.083-.077h-.21c-.03 0-.044 0-.052-.007q-.008-.008-.006-.047V8.586c0-.041.006-.054.05-.054h1.276c.032 0 .046 0 .052.007q.004.006.003.028V9.84a.2.2 0 0 1 0 .047c-.004.01-.017.026-.027.026h-.198c-.126-.004-.126.009-.126.13v3.958c.001.068.014.082.079.082h.234c.03 0 .039.01.039.04v.187c-.005.126.008.126.13.126h3.97c.05-.002.07-.019.07-.067v-.246c-.001-.031.009-.04.039-.04h.246c.048 0 .067-.019.067-.07v-1.629c0-.022 0-.033-.031-.033h-2.647c-.055 0-.082 0-.096-.014s-.013-.041-.013-.095m-2.882.107H6v.257h.011l.009.039.026.134q.004.024.002.052c0 .03-.001.062.016.087.014.02.014.042.015.065 0 .021 0 .043.012.064.015.027.017.063.02.1q0 .032.006.064.024.121.056.241.016.06.03.121a5 5 0 0 0 .194.594l.039.106q.14.324.306.634c.103.193.225.374.347.555l.05.075c.036.057.081.108.126.16q.049.055.093.113.245.314.54.582a6 6 0 0 0 .345.293l.052.042c.132.107.271.2.412.293l.068.045q.274.182.568.325.25.129.512.232.108.039.217.073l.143.046q.134.043.27.075.123.029.245.065.093.02.189.026l.047.012.037.01q.015.003.03.001c.02-.001.04-.002.058.016.007.006.029.006.043.006.047-.007.093.003.14.013q.052.014.106.016c.003 0 .008.012.008.019h.26v-2.823c0-.03 0-.044-.007-.052q-.008-.009-.047-.007H9.966c-.039 0-.055.003-.055.05q.004.083.001.164v.082c0 .027 0 .04-.008.048q-.008.009-.047.007h-1.28q-.034.001-.042-.006-.007-.008-.005-.041v-1.304c-.001-.026.01-.033.034-.033h.09q.09-.004.179 0c.049 0 .054-.017.049-.054v-1.652c.002-.03-.009-.03-.036-.03zm3.585 5.646v-2.846c0-.027 0-.038.03-.036h1.652c.037-.005.054 0 .054.049q-.004.09 0 .18v.09c0 .023.007.034.033.033h1.304q.033.001.041-.006.007-.006.006-.041v-1.28q.002-.039-.007-.048c-.007-.007-.02-.007-.048-.007h-.082a3 3 0 0 0-.164 0c-.047 0-.05-.015-.05-.054V12.4q-.002-.038.007-.047c.008-.008.022-.008.052-.008H18v.258c-.007 0-.02.005-.02.008a.5.5 0 0 1-.015.107c-.01.046-.02.092-.012.14q0 .022-.006.043-.03.096-.041.194a.8.8 0 0 1-.027.177q-.032.106-.056.214l-.017.07q-.027.104-.062.203l-.025.078q-.116.366-.281.714-.147.321-.337.62a6 6 0 0 1-.373.526q-.054.064-.107.132-.088.11-.18.214a5 5 0 0 1-.745.68q-.14.117-.292.22-.244.17-.502.313a10 10 0 0 1-.633.307q-.07.033-.14.055a4 4 0 0 0-.303.093c-.113.038-.226.076-.343.102q-.188.043-.377.082l-.126.027q-.065.015-.131.023l-.147.016-.11.012c-.003 0-.005.007-.007.012l-.002.008zm1.85-9.1v-.879l-.004-.283v-.609l-.006-.032a.2.2 0 0 0-.064.055l-.091.136q-.095.15-.203.291c-.134.173-.263.356-.387.531l-.014.02q-.192.27-.381.544l-.165.234-.133.188q-.047.073-.1.14-.06.077-.113.158a2 2 0 0 1-.167.22.1.1 0 0 0-.022.048q0 .009.005.018.006.008.014.013a.4.4 0 0 0 .07 0h.95c.036 0 .052 0 .058.007s.004.023.004.056v1.77q.001.006.007.013l.003.006.007-.006.01-.008a.2.2 0 0 0 .033-.034 7 7 0 0 1 .256-.367q.068-.092.133-.185l.223-.318.055-.078.109-.157.118-.16q.085-.112.167-.226.061-.087.119-.174.081-.125.177-.253a9 9 0 0 0 .165-.227q.076-.108.156-.215.059-.074.109-.155c.01-.017.005-.037-.024-.037h-1.03c-.037 0-.045-.01-.045-.045" clip-rule="evenodd"/></g><defs><clipPath id="a"><path fill="#fff" d="M0 0h24v24H0z"/></clipPath></defs></svg>