<svg xmlns="http://www.w3.org/2000/svg" fill="none" viewBox="0 0 24 24"><path fill="#62757e" d="M6.8 2.7c1.596 0 2.798 1.345 3.552 2.95C11.138 7.315 11.6 9.561 11.6 12s-.463 4.685-1.248 6.351C9.599 19.955 8.397 21.3 6.8 21.3s-2.797-1.345-3.552-2.949C2.464 16.685 2 14.438 2 12s.464-4.684 1.248-6.35C4.003 4.044 5.203 2.7 6.8 2.7m10.4 0c1.597 0 2.797 1.345 3.552 2.95C21.536 7.315 22 9.561 22 12s-.464 4.685-1.248 6.351c-.755 1.604-1.956 2.948-3.552 2.949s-2.798-1.345-3.552-2.949C12.863 16.685 12.4 14.438 12.4 12s.463-4.684 1.248-6.35c.754-1.605 1.956-2.95 3.552-2.95M6.8 4.3c-.613 0-1.412.558-2.105 2.03-.44.935-.777 2.132-.955 3.49a2.54 2.54 0 0 1 1.76-.726c1.49 0 2.698 1.342 2.698 2.999 0 1.656-1.208 2.998-2.698 2.999a2.53 2.53 0 0 1-1.73-.699c.184 1.27.51 2.39.926 3.277.693 1.472 1.492 2.03 2.105 2.03.612 0 1.411-.558 2.104-2.03C9.568 16.26 10 14.256 10 12c0-2.257-.432-4.26-1.096-5.67C8.211 4.858 7.412 4.3 6.8 4.3m10.4 0c-.612 0-1.411.558-2.104 2.03-.44.935-.778 2.132-.956 3.49a2.54 2.54 0 0 1 1.758-.726c1.491 0 2.7 1.342 2.7 2.999 0 1.656-1.21 2.999-2.7 2.999a2.53 2.53 0 0 1-1.73-.699c.185 1.27.51 2.39.928 3.277.693 1.472 1.491 2.03 2.104 2.03s1.412-.558 2.105-2.03c.663-1.41 1.095-3.414 1.095-5.67 0-2.257-.432-4.26-1.095-5.67-.693-1.472-1.492-2.03-2.105-2.03"/></svg>