<svg xmlns="http://www.w3.org/2000/svg" fill="none" viewBox="0 0 24 24"><path fill="#62757e" d="M11.255 2.158a1.84 1.84 0 0 1 1.49 0l6.42 2.853a1.83 1.83 0 0 1 1.088 1.676v4.31c0 5.089-3.521 9.848-8.253 11.003-4.731-1.155-8.253-5.914-8.253-11.004v-4.31c0-.724.428-1.38 1.09-1.675zm.84 1.462a.23.23 0 0 0-.19 0L5.486 6.473a.23.23 0 0 0-.138.214v4.31c0 4.275 2.884 8.221 6.652 9.346 3.768-1.125 6.652-5.071 6.652-9.347v-4.31a.23.23 0 0 0-.138-.213zm-2.493 8.133a1.7 1.7 0 0 1 1.5.9h4.096a.8.8 0 1 1 0 1.6h-4.096a1.7 1.7 0 1 1-1.5-2.5m4.796-4.202a1.702 1.702 0 1 1-1.502 2.502H8.802a.8.8 0 0 1 0-1.6h4.094a1.7 1.7 0 0 1 1.502-.902"/></svg>