<svg xmlns="http://www.w3.org/2000/svg" fill="none" viewBox="0 0 24 24"><g clip-path="url(#a)"><path fill="#22B573" d="M12 24c6.627 0 12-5.373 12-12S18.627 0 12 0 0 5.373 0 12s5.373 12 12 12Z"/><path fill="#FEFFFF" d="M11.579 17.88a6.813 6.813 0 0 0 1.444-.073 6.023 6.023 0 0 0 2.521-1.098c.333-.25.902-.82 1.15-1.149a6.12 6.12 0 0 0 1.112-2.53c.07-.361.08-1.607.017-1.977-.349-1.959-1.544-3.553-3.297-4.395a8.217 8.217 0 0 0-.14-.065l.228.809c.13.449.396 1.395.595 2.097.528 1.857.522 1.825.541 2.297.01.246.004.522-.019.69a3.797 3.797 0 0 1-3.256 3.249 4.471 4.471 0 0 1-1.252-.045.96.96 0 0 0-.234-.038c-.01.013.512 1.895.595 2.148.017.052.023.073-.006.08Zm-1.94-.473a.159.159 0 0 1-.01-.009c-.02-.021-.165-.483-.32-1.03-.155-.548-.443-1.561-.636-2.247a34.216 34.216 0 0 1-.399-1.487 5.192 5.192 0 0 1-.009-1.234c.06-.35.166-.69.317-1.012C9.11 9.28 10.04 8.55 11.267 8.28c.332-.073 1.101-.073 1.437 0 .135.032.26.044.272.029.012-.013-.118-.516-.288-1.118a33.5 33.5 0 0 1-.3-1.086 22.65 22.65 0 0 0-.346-.002c-.705-.003-.885.016-1.43.142A5.966 5.966 0 0 0 7.51 8.151a5.917 5.917 0 0 0-1.164 5.543 5.53 5.53 0 0 0 .914 1.816 5.953 5.953 0 0 0 2.38 1.897Zm1.394 1.032a3.143 3.143 0 0 1-.363-.066 4.74 4.74 0 0 0-.304-.08c-1.006-.243-2.075-.84-2.876-1.607-.61-.585-1.221-1.47-1.477-2.138a7.385 7.385 0 0 0-.093-.222c-.085-.18-.236-.708-.322-1.135-.092-.446-.098-.526-.098-1.174 0-.398.016-.778.035-.886.022-.104.063-.335.098-.51.032-.176.079-.354.101-.395a.244.244 0 0 0 .032-.076c-.016 0 .13-.47.155-.506.012-.016.05-.1.082-.19.054-.148.231-.508.298-.617.018-.025.1-.164.186-.306.088-.146.174-.282.19-.3l.231-.295a6.568 6.568 0 0 1 3.885-2.347c.446-.086 1.967-.083 2.42.003a6.601 6.601 0 0 1 2.151.835c.316.196.339.209.696.493.304.24.807.747 1.025 1.032.086.114.193.25.238.303a.552.552 0 0 1 .082.124c0 .016.035.07.076.123.041.055.14.228.221.383.08.158.159.3.171.316.012.02.073.15.13.294.427 1.08.575 2.108.458 3.219-.047.476-.262 1.322-.426 1.682-.032.076-.06.146-.06.155 0 .028-.273.573-.355.709-.667 1.107-1.613 2-2.683 2.53-.183.093-.357.178-.389.194-.212.11-.911.322-1.43.43-.322.066-1.674.082-2.085.025Zm1.42-4.524c.687-.174 1.282-.759 1.453-1.426.063-.25.066-.734.003-.978-.263-1.038-1.341-1.7-2.357-1.443-.418.105-.64.228-.933.522-.42.421-.595.838-.592 1.427a1.937 1.937 0 0 0 1.459 1.885c.262.07.718.076.968.013Z"/></g><defs><clipPath id="a"><path fill="#fff" d="M0 0h24v24H0z"/></clipPath></defs></svg>