<svg xmlns="http://www.w3.org/2000/svg" fill="none" viewBox="0 0 24 24"><g clip-path="url(#a)"><path fill="#333" d="M12 24c6.627 0 12-5.373 12-12S18.627 0 12 0 0 5.373 0 12s5.373 12 12 12Z"/><path fill="#fff" d="M8.528 5.86h5.607c1.551.093 3.258.73 3.943 2.21.858 1.887.432 4.539-1.5 5.615-1.78 1.018-3.911.617-5.867.7-.053.964.217 2.085-.455 2.9-.27.39-1.509.854-1.509.854s-.114-1.047-.156-3.402c-.027-.65.08-1.38.638-1.802.654-.562 1.58-.386 2.374-.415 1.199-.032 2.458.152 3.597-.31 1.67-.683 1.73-3.47.047-4.173-1.718-.666-3.615-.06-5.38-.428-.802-.225-1.162-1.014-1.34-1.748ZM5.5 9.06c1.466.027 2.935-.05 4.398.037 1.064.082 1.763 1.045 1.874 2.03-1.476-.007-2.956.047-4.433-.018-.907-.052-1.577-.79-1.839-1.602v-.446Z"/></g><defs><clipPath id="a"><path fill="#fff" d="M0 0h24v24H0z"/></clipPath></defs></svg>