<svg xmlns="http://www.w3.org/2000/svg" fill="none" viewBox="0 0 31 31"><path fill="#fff" d="M26 15.5C26 21.3 21.3 26 15.5 26S5 21.3 5 15.5 9.7 5 15.5 5 26 9.7 26 15.5"/><path fill="url(#a)" fill-rule="evenodd" d="m22.218 11.57.398-.977s-.506-.543-1.122-1.157c-.616-.615-1.92-.254-1.92-.254L18.09 7.5h-5.214L11.39 9.182s-1.303-.361-1.92.254a52 52 0 0 0-1.122 1.157l.399.977-.507 1.447s1.49 5.64 1.665 6.33c.344 1.356.58 1.88 1.557 2.567.978.688 2.753 1.881 3.042 2.062.29.18.652.489.978.489s.688-.308.978-.489c.29-.18 2.064-1.374 3.041-2.062.978-.687 1.213-1.211 1.557-2.568.175-.689 1.666-6.33 1.666-6.33z" clip-rule="evenodd"/><path fill="#fff" d="M17.33 10.557c.217 0 1.828-.308 1.828-.308s1.91 2.306 1.91 2.8c0 .407-.164.566-.358.754l-.124.124-1.432 1.519-.046.048c-.143.143-.354.355-.205.706l.03.071c.163.38.364.85.108 1.326-.272.506-.738.844-1.037.788s-1-.422-1.258-.59-1.076-.84-1.076-1.098c0-.215.588-.573.874-.746q.087-.053.128-.08.045-.03.14-.088c.26-.162.73-.454.743-.584.014-.16.009-.206-.202-.6-.044-.085-.097-.175-.15-.268-.2-.344-.425-.729-.375-1.005.056-.311.544-.49.958-.641q.078-.028.15-.056l.432-.161c.413-.155.872-.327.948-.362.105-.048.078-.094-.24-.124l-.154-.016c-.393-.042-1.117-.118-1.47-.02l-.228.062c-.396.107-.881.238-.928.314l-.024.035c-.044.064-.073.105-.024.374l.082.432c.11.57.28 1.46.302 1.66l.01.082c.027.223.045.371-.215.43l-.067.016c-.293.067-.722.165-.877.165s-.584-.098-.877-.165l-.067-.016c-.26-.059-.242-.207-.214-.43l.01-.081c.02-.2.192-1.093.301-1.663l.082-.43c.05-.27.02-.31-.024-.374l-.024-.035c-.047-.076-.532-.207-.928-.314l-.228-.062c-.352-.098-1.077-.022-1.47.02l-.154.016c-.318.03-.345.076-.24.124.076.035.534.207.948.361l.582.218c.414.151.902.33.958.641.05.276-.174.661-.374 1.005a9 9 0 0 0-.151.267c-.21.395-.216.442-.202.601.012.13.483.422.744.584l.14.088q.04.027.127.08c.286.173.874.53.874.746 0 .258-.818.931-1.076 1.099s-.96.533-1.258.589-.765-.282-1.037-.788c-.256-.476-.055-.945.108-1.326l.03-.071c.149-.351-.062-.563-.205-.706l-.046-.048-1.432-1.519-.124-.124c-.194-.188-.358-.347-.358-.755 0-.493 1.91-2.799 1.91-2.799s1.611.308 1.828.308c.174 0 .508-.115.857-.235l.266-.09c.434-.145.724-.146.724-.146s.29 0 .724.145l.266.09c.349.12.683.236.857.236"/><path fill="#fff" d="M17.053 18.713c.34.175.582.3.674.357.118.074.046.213-.062.29a88 88 0 0 0-1.695 1.318l-.057.051c-.135.122-.308.277-.43.277s-.295-.155-.43-.277l-.057-.05a88 88 0 0 0-1.695-1.32c-.108-.076-.18-.215-.062-.29.092-.056.333-.18.675-.356l.324-.167c.51-.264 1.146-.488 1.245-.488s.735.224 1.245.488z"/><defs><linearGradient id="a" x1="8.241" x2="22.725" y1="24.585" y2="24.585" gradientUnits="userSpaceOnUse"><stop stop-color="#FF5601"/><stop offset=".5" stop-color="#FF4000"/><stop offset="1" stop-color="#FF1F01"/></linearGradient></defs></svg>