<svg xmlns="http://www.w3.org/2000/svg" fill="none" viewBox="0 0 24 24"><g clip-path="url(#a)"><path fill="#1347E8" d="M12 24c6.627 0 12-5.373 12-12S18.627 0 12 0 0 5.373 0 12s5.373 12 12 12Z"/><path fill="#fff" d="M12 5a7 7 0 1 0 0 14 7 7 0 0 0 0-14Zm6.644 6.714-.567.005-.002-.237.567-.005.002.237Zm-.145-1.224-.562.078-.033-.235.561-.078.034.236v-.001ZM18.014 9l.098.216-.516.234-.098-.216.515-.234Zm-.708-1.08.157.18-.426.373-.157-.178.426-.374Zm-.83-.886.18.156-.37.429-.18-.155.37-.43Zm-.99-.8.199.128-.309.476-.198-.129.308-.476Zm-1.126-.556.23.06-.144.548-.23-.06.144-.548Zm-1.238-.304.236.019-.047.565-.236-.02.047-.564Zm-1.281-.15h.236v.567h-.236v-.567Zm-1.053.15.047.564-.237.02-.047-.565.237-.02Zm-1.238.304.143.548-.229.06-.144-.547.229-.061Zm-1.126.555.309.476-.2.129-.308-.476.199-.129Zm-.99.802.37.429-.18.155-.37-.43.18-.155v.001Zm-.83.885.427.374-.157.178-.426-.374.157-.178ZM5.9 8.999l.515.235-.097.216-.516-.235.098-.216Zm-.452 1.255.562.078-.033.236-.561-.079.032-.235Zm-.175 1.222.566.005-.002.238-.566-.006.002-.237Zm.052 1.331.564-.057.023.236-.564.057-.023-.236Zm.256 1.206.553-.129.054.231-.553.129-.054-.231Zm.618 1.44-.117-.206.492-.281.118.206-.493.28Zm.803 1.01L6.83 16.3l.39-.412.172.163-.39.412Zm.907.806-.193-.137.33-.462.192.138-.329.461Zm1.06.707-.21-.11.263-.502.21.11-.264.502Zm1.17.45-.234-.039.094-.559.234.04-.093.559Zm1.024.193-.004-.567.238-.003.004.567-.238.003ZM6.107 12A5.9 5.9 0 0 1 12 6.107 5.9 5.9 0 0 1 17.893 12 5.9 5.9 0 0 1 12 17.893 5.9 5.9 0 0 1 6.107 12Zm6.355 6.67h-.008l-.051-.564.236-.021.008-.001.051.564-.236.022Zm1.263-.266-.098-.558.233-.042.099.559-.234.04Zm1.206-.416-.195-.533.223-.08.194.532-.223.08Zm1.07-.656-.35-.445.185-.148.35.445-.186.147v.001Zm.912-.889-.407-.393.164-.171.407.394-.164.17Zm.745-.958-.458-.334.14-.191.459.333-.14.192Zm.606-1.139-.535-.187.078-.224.535.187-.078.224Zm.335-1.291-.567-.026.01-.237.567.026-.01.237ZM14.25 15.01c.094.102.097.257.003.35-.093.092-.248.088-.349-.009v.001l-.177-.178-.402-.408a1.762 1.762 0 0 1-.837.17h-1.106c-1.002.037-1.927-.463-1.852-2.09.002-.068-.005-.944-.005-1.013l.002-.657c-.002-1.623.395-2.358 1.488-2.618.124-.03.8-.045.93-.045h.057c.13 0 .727.015.851.045 1.094.26 1.49.995 1.488 2.618l.002.658c0 .069-.007.944-.004 1.013.041.878-.211 1.26-.609 1.638l.344.346.176.18Zm-1.692-.59c.127 0 .252-.018.373-.054l-.226-.229-.178-.18c-.095-.101-.097-.256-.003-.348.093-.093.248-.088.35.008l.175.178.318.322a.824.824 0 0 0 .047-.047c.296-.31.438-.57.41-1.2-.003-.044-.003-.045.001-.835l.001-.202v-.444c0-.271-.002-.176-.002-.213.001-.72-.08-1.344-.255-1.626-.104-.168-.284-.357-.826-.488a9.736 9.736 0 0 0-.74-.032h-.058c-.164 0-.711.016-.818.032-.543.131-.723.32-.827.488-.175.282-.256.906-.255 1.626l-.001.213a347.656 347.656 0 0 0 .002 1.481c-.029.63.113.89.41 1.2.275.29.617.35.855.35h.051l.01-.002h1.135c.017.002.034.002.051.002Z"/></g><defs><clipPath id="a"><path fill="#fff" d="M0 0h24v24H0z"/></clipPath></defs></svg>