<svg xmlns="http://www.w3.org/2000/svg" fill="none" viewBox="0 0 24 24"><g clip-path="url(#a)"><path fill="#FF8C00" d="M12 24c6.627 0 12-5.373 12-12S18.627 0 12 0 0 5.373 0 12s5.373 12 12 12Z"/><path fill="#fff" d="M15.959 14.24c.033.26-.041.36-.124.36-.083 0-.198-.1-.322-.302-.123-.201-.173-.429-.107-.546.04-.076.132-.11.24-.067.214.084.296.411.313.554Zm-1.156.571c.256.219.33.47.198.655a.43.43 0 0 1-.338.151.582.582 0 0 1-.388-.143c-.23-.201-.297-.537-.149-.722a.319.319 0 0 1 .265-.118c.132 0 .28.059.412.177Zm-8.978-3.53c0-3.193 2.541-5.781 5.677-5.781 3.136 0 5.678 2.588 5.678 5.781a5.898 5.898 0 0 1-.8 2.967c-.017.025-.059.017-.067-.017-.197-1.42-1.047-2.202-2.285-2.437-.108-.017-.124-.085.016-.1.38-.035.916-.026 1.196.025.017-.149.026-.297.026-.446 0-2.11-1.684-3.824-3.755-3.824-2.071 0-3.755 1.714-3.755 3.824s1.684 3.824 3.755 3.824h.173a5.247 5.247 0 0 1-.075-1.034c.009-.235.059-.269.158-.084.52.916 1.262 1.74 2.715 2.067 1.188.27 2.376.58 3.655 2.236.115.143-.058.293-.19.176-1.303-1.177-2.492-1.563-3.573-1.563-1.213.009-2.038.169-2.872.169-3.136 0-5.677-2.59-5.677-5.784v.001Z"/></g><defs><clipPath id="a"><path fill="#fff" d="M0 0h24v24H0z"/></clipPath></defs></svg>