<svg xmlns="http://www.w3.org/2000/svg" fill="none" viewBox="0 0 24 24"><g clip-path="url(#a)"><path fill="#610089" d="M12 24c6.627 0 12-5.373 12-12S18.627 0 12 0 0 5.373 0 12s5.373 12 12 12"/><path fill="#fff" fill-rule="evenodd" d="M12.29 5.502c3.031.163 5.485 2.266 6.087 5.24.079.392.1.798.122 1.2.02.354-.212.593-.531.593-.313 0-.518-.227-.526-.58-.058-2.592-1.808-4.73-4.336-5.27-.379-.08-.773-.082-1.16-.126a.52.52 0 0 1-.48-.546.52.52 0 0 1 .517-.51c.102-.005.204-.001.307-.001M11.724 18.5c-2.91-.087-5.526-2.293-6.078-5.148a11 11 0 0 1-.145-1.33c-.017-.273.156-.468.408-.533a.5.5 0 0 1 .559.234.8.8 0 0 1 .08.345c.044 2.485 1.724 4.623 4.135 5.217.435.108.893.125 1.342.173.257.026.463.2.497.45.032.237-.117.501-.343.557-.146.036-.304.025-.455.035m.267-8.865c1.286-.005 2.366 1.05 2.375 2.319.003.437-.398.712-.768.524-.201-.102-.287-.272-.296-.498a1.3 1.3 0 0 0-1.103-1.26 1.295 1.295 0 0 0-1.475 1.03c-.135.698.302 1.379.983 1.526q.141.03.284.036c.316.017.539.235.536.532-.002.302-.24.525-.563.528-1.014.009-1.97-.731-2.247-1.738a2.372 2.372 0 0 1 2.274-3m4.464 2.22c-.012.1-.008.226-.044.338a.52.52 0 0 1-.58.337c-.258-.042-.441-.254-.444-.544a3.1 3.1 0 0 0-.257-1.268c-.598-1.321-1.623-2.03-3.075-2.098-.355-.018-.59-.226-.588-.544s.24-.525.6-.524c2.17.004 4.064 1.682 4.339 3.843.019.146.031.292.049.46m-8.9.272c-.03-.24.032-.478.306-.604.362-.167.74.092.748.517a3.4 3.4 0 0 0 1.43 2.735c.548.388 1.2.603 1.87.619.46.011.726.344.58.72a.505.505 0 0 1-.507.334c-1.301-.012-2.399-.499-3.276-1.455a4.33 4.33 0 0 1-1.15-2.865zm6.816 1.666c-.022.264-.112.432-.311.525-.197.092-.398.078-.555-.068q-.429-.397-.828-.826a.516.516 0 0 1 .014-.698c.183-.197.51-.238.71-.054.297.27.578.56.852.855.072.078.092.204.118.266" clip-rule="evenodd"/></g><defs><clipPath id="a"><path fill="#fff" d="M0 0h24v24H0z"/></clipPath></defs></svg>