<svg xmlns="http://www.w3.org/2000/svg" fill="none" viewBox="0 0 24 24"><path fill="#D9D9D9" d="M12 0c6.627 0 12 5.373 12 12s-5.373 12-12 12S0 18.627 0 12 5.373 0 12 0m0 5.76a6.24 6.24 0 1 0 0 12.48 6.24 6.24 0 0 0 0-12.48"/><path fill="#168DF9" d="M12 0c6.627 0 12 5.373 12 12s-5.373 12-12 12S0 18.627 0 12 5.373 0 12 0m0 5.76a6.24 6.24 0 1 0 0 12.48 6.24 6.24 0 0 0 0-12.48"/><path fill="url(#a)" d="M10.679 5.901A6.24 6.24 0 0 0 12 18.24V24C5.373 24 0 18.626 0 12c0-2.227.609-4.312 1.666-6.1z"/><path fill="#DAEFFA" d="M17.16 13.68a4.08 4.08 0 0 1 4.057 3.65 3.36 3.36 0 0 1-.404 6.665L20.64 24h-8.4l-.185-.005a3.6 3.6 0 1 1 1.111-7.075 4.08 4.08 0 0 1 3.993-3.24"/><defs><linearGradient id="a" x1="6" x2="6" y1="5.901" y2="23.999" gradientUnits="userSpaceOnUse"><stop stop-color="#168DF9"/><stop offset="1" stop-color="#ADE2FB"/></linearGradient></defs></svg>