<svg xmlns="http://www.w3.org/2000/svg" fill="none" viewBox="0 0 24 24"><path fill="#62757E" d="M22 2.94v9.082a.896.896 0 0 1-.897.895h-8.206v8.188a.896.896 0 0 1-1.794 0v-9.083c0-.494.402-.895.897-.895h8.206V2.94c0-.495.402-.895.897-.895.496 0 .897.4.897.895"/><path fill="#62757E" fill-rule="evenodd" d="M8.592 21.105v-4.787a.896.896 0 0 0-.897-.895H2.897c-.496 0-.897.4-.897.895v4.787c0 .494.401.895.897.895h4.798c.495 0 .897-.4.897-.895m-1.794-3.893v2.998H3.794v-2.998zm1.794-9.485V2.94a.896.896 0 0 0-.897-.895H2.897c-.496 0-.897.4-.897.895v4.787c0 .494.401.895.897.895h4.798c.495 0 .897-.4.897-.895M6.798 3.834v2.998H3.794V3.834z" clip-rule="evenodd"/><path fill="#62757E" d="M16.664 2.78v4.168c0 .43-.35.78-.781.78h-4.178a.78.78 0 0 1-.781-.78V2.779c0-.43.35-.779.78-.779h4.179a.78.78 0 0 1 .78.78"/><path fill="#62757E" fill-rule="evenodd" d="M22 21.105v-4.787a.896.896 0 0 0-.897-.895h-4.798c-.495 0-.897.4-.897.895v4.787c0 .494.402.895.897.895h4.798c.496 0 .897-.4.897-.895m-1.794-3.893v2.998h-3.004v-2.998z" clip-rule="evenodd"/><path fill="#62757E" d="M8.592 12.022a.896.896 0 0 1-.897.895H2.897a.896.896 0 1 1 0-1.79h4.798c.495 0 .897.401.897.895"/></svg>