<svg xmlns="http://www.w3.org/2000/svg" fill="none" viewBox="0 0 24 24"><path fill="#62757E" fill-rule="evenodd" d="M21.167 22h-2.5a.833.833 0 1 1 0-1.667h1.666v-1.666a.833.833 0 1 1 1.667 0v2.5c0 .46-.372.833-.833.833m0-4.89a.833.833 0 0 1-.834-.832v-1.223a.833.833 0 1 1 1.667 0v1.223c0 .46-.372.833-.833.833m0-3.443h-2a.833.833 0 0 1-.834-.834v-.832L16.166 12a.833.833 0 0 1 0-1.667h.002l3 .002c.459 0 .832.373.832.833V12h1.167a.833.833 0 1 1 0 1.667m0-5h-5a.833.833 0 0 1-.834-.834v-5c0-.46.373-.833.834-.833h5c.46 0 .833.373.833.833v5c0 .46-.372.834-.833.834m-.834-5H17V7h3.333zm-1.65.833h.009a.834.834 0 0 1 0 1.667.837.837 0 0 1-.838-.834c0-.46.37-.833.83-.833m-.016 10.834v1.25a.833.833 0 1 1-1.667 0v-.416l-1.667-.001v1.666a.833.833 0 1 1-1.666 0v-2.5a.8.8 0 0 1 .053-.263c.007-.02.004-.043.012-.06.025-.06.069-.107.106-.158.025-.035.042-.077.073-.108.02-.02.05-.03.073-.05.06-.048.12-.098.192-.129a.8.8 0 0 1 .324-.065h3.333c.461 0 .834.373.834.834m-5.834-6.667h-1.666a.833.833 0 1 1 0-1.667h1.666a.833.833 0 1 1 0 1.667m0-2.5h-1.666a.833.833 0 0 1-.834-.834c0-.007.005-.014.005-.021 0-.009-.005-.014-.005-.023V2.833a.833.833 0 1 1 1.667 0V4.5h.833a.833.833 0 1 1 0 1.667m-5 2.5h-5A.833.833 0 0 1 2 7.833v-5c0-.46.373-.833.833-.833h5c.461 0 .834.373.834.833v5c0 .46-.373.834-.834.834m-.833-5H3.667V7H7zM5.35 4.5h.008a.834.834 0 0 1 0 1.667.837.837 0 0 1-.837-.834.83.83 0 0 1 .828-.833m-2.517 5.833H4.5c.46 0 .833.374.833.834v1.666a.833.833 0 1 1-1.666 0V12h-.834a.833.833 0 1 1 0-1.667m0 5h5c.461 0 .834.374.834.834v5c0 .46-.373.833-.834.833h-5A.833.833 0 0 1 2 21.167v-5c0-.46.373-.834.833-.834m.834 5H7V17H3.667zm1.691-.833a.837.837 0 0 1-.837-.833.83.83 0 0 1 .828-.834h.01a.834.834 0 0 1 0 1.667m7.475-5a.833.833 0 1 1-1.666 0v-1.667H7A.833.833 0 0 1 6.167 12v-.833a.833.833 0 1 1 1.666 0H12c.46 0 .833.373.833.833 0 .05-.02.092-.028.138.008.048.028.09.028.14zM11.167 17c.46 0 .833.373.833.833v2.5h.833a.833.833 0 1 1 0 1.667h-1.666a.833.833 0 0 1-.834-.833v-3.334c0-.46.373-.833.834-.833m5 1.667c.46 0 .833.373.833.833v1.667a.833.833 0 1 1-1.667 0V19.5c0-.46.373-.833.834-.833" clip-rule="evenodd"/></svg>