<svg xmlns="http://www.w3.org/2000/svg" fill="none" viewBox="0 0 24 24"><g clip-path="url(#a)"><path fill="#252525" d="M12 24c6.627 0 12-5.373 12-12S18.627 0 12 0 0 5.373 0 12s5.373 12 12 12Z"/><path fill="#fff" d="M18.74 15.596a.266.266 0 0 1 .26.27V17.2h-4.395l-.017-1.162a.261.261 0 0 1 .093-.199.39.39 0 0 1 .059-.06c1.937-1.352 2.68-3.924 1.78-6.15-.903-2.225-3.201-3.484-5.494-3.01-2.291.474-3.941 2.551-3.942 4.963-.002 1.649.784 3.192 2.1 4.127.03.016.053.04.068.07a.278.278 0 0 1 .16.25l-.017 1.163H5v-1.336c0-.148.117-.269.26-.269.144 0 .26.12.26.269v.806h3.362l.009-.502h-.009c-1.933-1.402-2.762-3.933-2.05-6.257C7.544 7.58 9.633 6 11.995 6c2.363 0 4.452 1.58 5.164 3.903.712 2.324-.117 4.855-2.05 6.257l.008.51h3.362v-.805a.266.266 0 0 1 .26-.269Zm-3.471-3.623c.58.737.756 1.396.504 1.83-.193.337-.605.52-1.202.52a4.57 4.57 0 0 1-1.109-.165c-.327 1.144-.857 1.881-1.462 1.881s-1.134-.737-1.454-1.881a4.57 4.57 0 0 1-1.109.164c-.597 0-1.008-.182-1.202-.52-.31-.537.042-1.378.849-2.236a4.863 4.863 0 0 1-.345-.4c-.58-.736-.756-1.387-.504-1.838.194-.338.605-.52 1.202-.52.375.01.748.065 1.11.166.327-1.145.857-1.882 1.461-1.882.605 0 1.134.737 1.454 1.89a4.57 4.57 0 0 1 1.11-.164c.596 0 1.008.181 1.201.52.252.45.076 1.1-.504 1.838a5.235 5.235 0 0 1-.344.399c.121.126.236.259.344.398Zm-.69-2.835c-.348.011-.695.06-1.033.147.09.412.154.829.194 1.249.331.245.648.512.95.798.117-.122.226-.252.327-.373.479-.616.655-1.145.479-1.465-.16-.295-.588-.356-.917-.356Zm-1.848 3.737c.244-.147.48-.303.698-.46.025-.277.033-.555.033-.85 0-.294-.017-.58-.033-.85-.227-.158-.46-.309-.698-.45-.24-.137-.484-.267-.731-.39a7.46 7.46 0 0 0-.73.39c-.253.147-.48.295-.699.45a9.201 9.201 0 0 0-.033.85c0 .295.017.582.033.85.454.32.932.603 1.429.85a7.46 7.46 0 0 0 .73-.39h.002Zm.664-.026c-.168.103-.327.208-.495.312a7.17 7.17 0 0 1-.505.286c.276.124.56.231.849.32.059-.285.11-.59.151-.918Zm-1.773.598-.504-.286a33.53 33.53 0 0 1-.496-.312c.03.31.08.616.15.919.29-.091.573-.198.85-.321Zm-1.378-1.283c-.01-.2-.016-.399-.017-.598 0-.208.008-.4.017-.599a7.36 7.36 0 0 0-.698.599c.222.212.455.412.698.598Zm.378-1.864a10.138 10.138 0 0 1 1-.598 7.39 7.39 0 0 0-.85-.321c-.058.286-.108.59-.15.92Zm1.764-.598c.168.086.336.182.504.286.168.104.336.208.497.312a6.95 6.95 0 0 0-.152-.919 8.063 8.063 0 0 0-.849.32Zm1.387 1.274c.008.2.017.39.017.598 0 .208-.008.408-.017.599.244-.2.479-.4.689-.599a6.833 6.833 0 0 0-.689-.598Zm-1.765-3.554c-.428 0-.865.607-1.151 1.638a9.21 9.21 0 0 1 1.151.45 9.198 9.198 0 0 1 1.152-.45c-.286-1.031-.732-1.638-1.152-1.638ZM8.521 9.494c-.185.32-.008.858.479 1.456.1.13.21.25.327.38.3-.287.616-.553.95-.796.039-.42.103-.837.194-1.248a4.336 4.336 0 0 0-1.034-.148c-.328 0-.748.061-.916.356Zm.916 4.508a4.01 4.01 0 0 0 1.034-.157 10.2 10.2 0 0 1-.194-1.248 8.32 8.32 0 0 1-.958-.797c-.722.772-1.008 1.465-.798 1.846.16.295.588.356.916.356Zm2.571 1.716c.42 0 .866-.607 1.152-1.638a9.209 9.209 0 0 1-1.152-.45 9.315 9.315 0 0 1-1.151.45c.286 1.031.731 1.638 1.151 1.638Zm3.488-2.072c.176-.312 0-.849-.479-1.465a6.469 6.469 0 0 0-.328-.372c-.3.287-.616.553-.95.798-.038.42-.103.836-.193 1.248.338.09.685.14 1.034.147.328 0 .748-.061.916-.356ZM12.008 10.3c.68 0 1.231.565 1.236 1.266 0 .698-.548 1.264-1.224 1.265-.677.002-1.227-.562-1.23-1.26-.003-.698.542-1.267 1.218-1.27Zm0 2.21c.5-.003.904-.42.908-.936 0-.517-.406-.936-.908-.936-.501 0-.907.419-.907.936 0 .517.406.937.907.937Z"/></g><defs><clipPath id="a"><path fill="#fff" d="M0 0h24v24H0z"/></clipPath></defs></svg>