<svg xmlns="http://www.w3.org/2000/svg" fill="none" viewBox="0 0 24 24"><g clip-path="url(#a)"><path fill="#252525" d="M12 24c6.627 0 12-5.373 12-12S18.627 0 12 0 0 5.373 0 12s5.373 12 12 12"/><path fill="#fff" d="M18.74 15.596a.266.266 0 0 1 .26.27V17.2h-4.395l-.017-1.162a.26.26 0 0 1 .093-.199.4.4 0 0 1 .059-.06c1.937-1.352 2.68-3.924 1.78-6.15-.903-2.225-3.201-3.484-5.494-3.01-2.291.474-3.941 2.551-3.942 4.964-.002 1.648.784 3.191 2.1 4.126q.045.024.068.07a.28.28 0 0 1 .16.25l-.017 1.163H5v-1.336c0-.148.117-.269.26-.269s.26.12.26.269v.806h3.362l.009-.502h-.009c-1.932-1.402-2.762-3.933-2.05-6.257S9.633 6 11.995 6s4.452 1.58 5.164 3.903-.117 4.855-2.05 6.257l.008.51h3.362v-.805a.266.266 0 0 1 .26-.269m-3.471-3.623c.58.737.756 1.396.504 1.83-.193.337-.605.52-1.202.52a4.6 4.6 0 0 1-1.109-.165c-.327 1.144-.857 1.881-1.462 1.881s-1.134-.737-1.454-1.881a4.6 4.6 0 0 1-1.109.164c-.597 0-1.008-.182-1.202-.52-.31-.537.042-1.378.849-2.236a5 5 0 0 1-.345-.4c-.58-.736-.756-1.387-.504-1.838.194-.338.605-.52 1.202-.52.375.01.748.065 1.11.166.327-1.145.857-1.882 1.461-1.882s1.134.737 1.454 1.89a4.6 4.6 0 0 1 1.11-.164c.596 0 1.008.181 1.201.52.252.45.076 1.1-.504 1.838q-.162.208-.344.399.182.19.344.398m-.69-2.835q-.524.017-1.033.147.135.619.194 1.249.497.368.95.798c.117-.122.226-.252.327-.373.479-.616.655-1.145.479-1.465-.16-.295-.588-.356-.917-.356m-1.848 3.737c.244-.147.48-.303.698-.46.025-.277.033-.555.033-.85s-.017-.58-.033-.85q-.34-.238-.698-.45-.36-.206-.731-.39a8 8 0 0 0-.73.39c-.253.147-.48.295-.699.45a9 9 0 0 0-.033.85c0 .295.017.582.033.85q.682.48 1.429.85a8 8 0 0 0 .73-.39zm.664-.026c-.168.103-.327.208-.495.312q-.252.156-.505.286.415.186.849.32.089-.427.151-.918m-1.773.598-.504-.286q-.254-.157-.496-.312.045.465.15.919.435-.136.85-.321m-1.378-1.283q-.015-.3-.017-.598c0-.208.008-.4.017-.599a7 7 0 0 0-.698.599q.333.319.698.598m.378-1.864q.237-.166.487-.312c.177-.104.345-.2.513-.286a7 7 0 0 0-.85-.321q-.087.427-.15.92m1.764-.598q.252.13.504.286.254.156.497.312a7 7 0 0 0-.152-.919 8 8 0 0 0-.849.32m1.387 1.274c.008.2.017.39.017.598q-.002.312-.017.599c.244-.2.479-.4.689-.599a7 7 0 0 0-.689-.598m-1.765-3.554c-.428 0-.865.607-1.151 1.638a9 9 0 0 1 1.151.45 9 9 0 0 1 1.152-.45c-.286-1.031-.732-1.638-1.152-1.638M8.521 9.494c-.185.32-.008.858.479 1.456.1.13.21.25.327.38q.45-.431.95-.796.058-.63.194-1.248a4.3 4.3 0 0 0-1.034-.148c-.328 0-.748.061-.916.356m.916 4.508a4 4 0 0 0 1.034-.157 10 10 0 0 1-.194-1.248 8 8 0 0 1-.958-.797c-.722.772-1.008 1.465-.798 1.846.16.295.588.356.916.356m2.571 1.716c.42 0 .866-.607 1.152-1.638a9 9 0 0 1-1.152-.45 9 9 0 0 1-1.151.45c.286 1.031.731 1.638 1.151 1.638m3.488-2.072c.176-.312 0-.849-.479-1.465a7 7 0 0 0-.328-.372q-.45.43-.95.798-.057.63-.193 1.248.509.136 1.034.147c.328 0 .748-.061.916-.356M12.008 10.3c.68 0 1.231.565 1.236 1.266 0 .698-.548 1.264-1.224 1.265-.677.002-1.227-.562-1.23-1.26s.542-1.267 1.218-1.27m0 2.21c.5-.003.904-.42.908-.936 0-.517-.406-.936-.908-.936-.501 0-.907.419-.907.936s.406.937.907.937"/></g><defs><clipPath id="a"><path fill="#fff" d="M0 0h24v24H0z"/></clipPath></defs></svg>