<svg xmlns="http://www.w3.org/2000/svg" fill="none" viewBox="0 0 24 24"><g clip-path="url(#a)"><path fill="#454545" d="M12 24c6.627 0 12-5.373 12-12S18.627 0 12 0 0 5.373 0 12s5.373 12 12 12"/><path fill="#fff" fill-rule="evenodd" d="M9 12c0-1.654 1.346-3 3-3s3 1.346 3 3c0 .435-.095.848-.263 1.222l-1.98-1.98-1.514 1.515 1.98 1.98A3 3 0 0 1 12 15a3.003 3.003 0 0 1-3-3m7.875 0a4.85 4.85 0 0 0-.786-2.652L18 7.436 16.564 6l-1.912 1.912A4.85 4.85 0 0 0 12 7.125c-.979 0-1.888.29-2.652.786L7.436 6 6 7.436l1.912 1.912a4.85 4.85 0 0 0 0 5.304L6 16.564 7.436 18l1.912-1.912a4.85 4.85 0 0 0 2.652.787c.979 0 1.888-.29 2.652-.787L16.564 18 18 16.564l-1.912-1.912c.514-.789.788-1.71.787-2.652" clip-rule="evenodd"/></g><defs><clipPath id="a"><path fill="#fff" d="M0 0h24v24H0z"/></clipPath></defs></svg>