<svg xmlns="http://www.w3.org/2000/svg" fill="none" viewBox="0 0 24 24"><g clip-path="url(#a)"><path fill="#2E9AD0" d="M12 24c6.627 0 12-5.373 12-12S18.627 0 12 0 0 5.373 0 12s5.373 12 12 12Z"/><path fill="#fff" d="m17.608 16.223-1.255-1.118-2.54 1.906a.51.51 0 0 1-.098.567.5.5 0 0 1-.352.15.499.499 0 0 1-.487-.41h-2.743a.498.498 0 0 1-.487.41.5.5 0 0 1-.496-.505.51.51 0 0 1 .046-.21l-2.257-1.68a.489.489 0 0 1-.68-.023.506.506 0 0 1 .115-.797l-.83-2.648A.5.5 0 0 1 5 11.364a.5.5 0 0 1 .56-.5l.815-2.648a.505.505 0 0 1-.26-.444.5.5 0 0 1 .496-.504.49.49 0 0 1 .333.131l2.274-1.642a.508.508 0 0 1-.068-.253A.5.5 0 0 1 9.646 5c.242 0 .444.176.487.41h2.743a.498.498 0 0 1 .487-.41.5.5 0 0 1 .495.504c0 .084-.02.167-.06.242l2.259 1.66a.49.49 0 0 1 .341-.138.5.5 0 0 1 .496.504.506.506 0 0 1-.226.423l.812 2.666a.493.493 0 0 1 .529.503.5.5 0 0 1-.512.504l-.953 3.073 1.22 1.086a.731.731 0 0 1 .493-.19.75.75 0 0 1 .743.756.75.75 0 0 1-.743.756.752.752 0 0 1-.648-1.126Zm-4.203.498.946-2.131a.504.504 0 0 1-.163-.247l-2.195.32a.506.506 0 0 1-.12.25l1.303 1.843a.485.485 0 0 1 .23-.035Zm.25.096 2.462-1.848-1.061-.462a.491.491 0 0 1-.48.188l-.937 2.11.016.011Zm-.678.09-1.31-1.854a.488.488 0 0 1-.325 0l-1.31 1.853a.504.504 0 0 1 .085.16h2.775a.504.504 0 0 1 .085-.16Zm4.282-5.11a.506.506 0 0 1-.014-.857l-.768-2.52-.171 2.465c.197.066.34.255.34.479a.504.504 0 0 1-.337.477l.17 2.473.78-2.518Zm-1.434-.813-1.008-1.976a.487.487 0 0 1-.255.014l-.886 1.951a.508.508 0 0 1-.005.785l.913 1.944a.491.491 0 0 1 .197.007l1.03-1.979a.508.508 0 0 1 .014-.746Zm.238.876a.5.5 0 0 1-.035-.008L15 13.828a.506.506 0 0 1 .155.448l1.107.482-.198-2.898Zm-.004-.992.182-2.617a.497.497 0 0 1-.24-.177l-.851.356a.515.515 0 0 1-.124.442l1.02 1.998c.005 0 .009 0 .013-.002Zm-2.614.993a.492.492 0 0 1-.214-.011l-1.35 2.399a.52.52 0 0 1 .092.162l2.207-.321a.506.506 0 0 1 .177-.287l-.912-1.943v.001Zm.006-.993.889-1.958a.506.506 0 0 1-.167-.308l-2.211-.32a.505.505 0 0 1-.104.159l1.36 2.44a.49.49 0 0 1 .234-.013h-.001Zm-.434.856a.504.504 0 0 1-.15-.36.51.51 0 0 1 .14-.351l-1.361-2.442a.488.488 0 0 1-.235.012l-1.404 2.435a.507.507 0 0 1-.01.701l1.38 2.37a.49.49 0 0 1 .3.015l1.34-2.38Zm-7.24.054.79 2.524.187-2.446a.503.503 0 0 1-.39-.492.503.503 0 0 1 .398-.495L6.57 8.43l-.778 2.53a.505.505 0 0 1 .2.405.506.506 0 0 1-.214.414Zm2.474 1.926a.49.49 0 0 1 .222.008l.871-1.948a.506.506 0 0 1-.194-.4c0-.158.072-.299.183-.391l-.886-1.951a.49.49 0 0 1-.186.003l-1.068 1.967a.507.507 0 0 1 .009.736l1.05 1.976Zm.206.986a.489.489 0 0 1-.496-.173l-.86.374a.518.518 0 0 1-.023.232l2.275 1.694a.453.453 0 0 1 .02-.014l-.916-2.113Zm-.6-.402a.506.506 0 0 1 .17-.476L7.001 11.88l-.2 2.61a.5.5 0 0 1 .21.167l.846-.37Zm.974-.19 2.205.314a.505.505 0 0 1 .125-.199l-1.377-2.365a.487.487 0 0 1-.211.014l-.885 1.974a.5.5 0 0 1 .143.261Zm-.013.252a.505.505 0 0 1-.141.223l.93 2.148a.495.495 0 0 1 .226.035l1.303-1.842a.506.506 0 0 1-.12-.25l-2.198-.314Zm-.956-5.932-.847-.354a.499.499 0 0 1-.212.173l.203 2.578 1.029-1.894a.506.506 0 0 1-.173-.502v-.001Zm.604-.379.875-2.062-2.26 1.633c.023.07.03.145.022.219l.872.364a.49.49 0 0 1 .491-.154Zm.37.556a.506.506 0 0 1-.167.315l.889 1.958a.49.49 0 0 1 .24.016l1.389-2.41a.506.506 0 0 1-.14-.194l-2.21.315Zm-.152-.434a.51.51 0 0 1 .123.184l2.205-.315a.507.507 0 0 1 .102-.253L9.847 5.965a.487.487 0 0 1-.248.041l-.914 2.155h-.001Zm5.933-.134a.493.493 0 0 1 .425.176l.865-.362a.517.517 0 0 1 .019-.22L13.68 5.97l.936 2.057Zm-.418.324c.036-.096.1-.18.185-.239l-.961-2.108a.493.493 0 0 1-.261-.04l-1.266 1.813a.516.516 0 0 1 .101.255l2.202.32Zm-1.232-2.543a.505.505 0 0 1-.075-.146h-2.776a.506.506 0 0 1-.075.146l1.269 1.816a.486.486 0 0 1 .388 0l1.27-1.816Z"/></g><defs><clipPath id="a"><path fill="#fff" d="M0 0h24v24H0z"/></clipPath></defs></svg>