<svg xmlns="http://www.w3.org/2000/svg" fill="none" viewBox="0 0 24 24"><g clip-path="url(#a)"><path fill="#2E9AD0" d="M12 24c6.627 0 12-5.373 12-12S18.627 0 12 0 0 5.373 0 12s5.373 12 12 12"/><path fill="#fff" d="m17.608 16.223-1.255-1.118-2.54 1.906a.51.51 0 0 1-.098.567.5.5 0 0 1-.352.15.5.5 0 0 1-.487-.41h-2.743a.5.5 0 0 1-.487.41.5.5 0 0 1-.496-.505.5.5 0 0 1 .046-.21l-2.257-1.68a.49.49 0 0 1-.68-.023.506.506 0 0 1 .115-.797l-.83-2.648A.5.5 0 0 1 5 11.364a.5.5 0 0 1 .56-.5l.815-2.648a.5.5 0 0 1-.26-.444.5.5 0 0 1 .496-.504.5.5 0 0 1 .333.131l2.274-1.642a.5.5 0 0 1-.068-.253A.5.5 0 0 1 9.646 5c.242 0 .444.176.487.41h2.743a.5.5 0 0 1 .487-.41.5.5 0 0 1 .495.504q0 .128-.06.242l2.259 1.66a.5.5 0 0 1 .341-.138.5.5 0 0 1 .496.504.5.5 0 0 1-.226.423l.812 2.666a.493.493 0 0 1 .529.503.5.5 0 0 1-.512.504l-.953 3.073 1.22 1.086a.73.73 0 0 1 .493-.19.75.75 0 0 1 .743.756.75.75 0 0 1-.743.756.752.752 0 0 1-.648-1.126m-4.203.498.946-2.131a.5.5 0 0 1-.163-.247l-2.195.32a.5.5 0 0 1-.12.25l1.303 1.843a.5.5 0 0 1 .23-.035m.25.096 2.462-1.848-1.061-.462a.49.49 0 0 1-.48.188l-.937 2.11.016.011m-.678.09-1.31-1.854a.5.5 0 0 1-.325 0l-1.31 1.853a.5.5 0 0 1 .085.16h2.775a.5.5 0 0 1 .085-.16m4.282-5.11a.506.506 0 0 1-.014-.857l-.768-2.52-.171 2.465c.197.066.34.255.34.479a.5.5 0 0 1-.337.477l.17 2.473zm-1.434-.813-1.008-1.976a.5.5 0 0 1-.255.014l-.886 1.951a.508.508 0 0 1-.005.785l.913 1.944a.5.5 0 0 1 .197.007l1.03-1.979a.51.51 0 0 1 .014-.746m.238.876-.035-.008L15 13.828a.5.5 0 0 1 .155.448l1.107.482zm-.004-.992.182-2.617a.5.5 0 0 1-.24-.177l-.851.356a.52.52 0 0 1-.124.442l1.02 1.999zm-2.614.993a.5.5 0 0 1-.214-.011l-1.35 2.399q.06.072.092.162l2.207-.321a.5.5 0 0 1 .177-.287l-.912-1.943zm.006-.993.889-1.958a.5.5 0 0 1-.167-.308l-2.211-.32a.5.5 0 0 1-.104.159l1.36 2.44a.5.5 0 0 1 .234-.013zm-.434.856a.5.5 0 0 1-.15-.36.5.5 0 0 1 .14-.351l-1.361-2.442a.5.5 0 0 1-.235.012l-1.404 2.435a.507.507 0 0 1-.01.701l1.38 2.37a.5.5 0 0 1 .3.015zm-7.24.054.79 2.524.187-2.446a.5.5 0 0 1-.39-.492.5.5 0 0 1 .398-.495L6.57 8.43l-.778 2.53a.5.5 0 0 1 .2.405.5.5 0 0 1-.214.414m2.474 1.926a.5.5 0 0 1 .222.008l.871-1.948a.5.5 0 0 1-.194-.4c0-.158.072-.299.183-.391l-.886-1.951a.5.5 0 0 1-.186.003l-1.068 1.967a.507.507 0 0 1 .009.736zm.206.986a.49.49 0 0 1-.496-.173l-.86.374a.5.5 0 0 1-.023.232l2.275 1.694.02-.014zm-.6-.402a.5.5 0 0 1 .17-.476L7.001 11.88l-.2 2.61a.5.5 0 0 1 .21.167zm.974-.19 2.205.314a.5.5 0 0 1 .125-.199l-1.377-2.365a.5.5 0 0 1-.211.014l-.885 1.974a.5.5 0 0 1 .143.261m-.013.252a.5.5 0 0 1-.141.223l.93 2.148a.5.5 0 0 1 .226.035l1.303-1.842a.5.5 0 0 1-.12-.25zm-.956-5.932-.847-.354a.5.5 0 0 1-.212.173l.203 2.578 1.029-1.894a.51.51 0 0 1-.173-.502zm.604-.379.875-2.062-2.26 1.633q.034.106.022.219l.872.364a.49.49 0 0 1 .491-.154m.37.556a.5.5 0 0 1-.167.315l.889 1.958a.5.5 0 0 1 .24.016l1.389-2.41a.5.5 0 0 1-.14-.194zm-.152-.434a.5.5 0 0 1 .123.184l2.205-.315a.5.5 0 0 1 .102-.253L9.847 5.965a.5.5 0 0 1-.248.041zm5.933-.134a.5.5 0 0 1 .425.176l.865-.362a.5.5 0 0 1 .019-.22L13.68 5.97zm-.418.324c.036-.096.1-.18.185-.239l-.961-2.108a.5.5 0 0 1-.261-.04l-1.266 1.813a.5.5 0 0 1 .101.255zm-1.232-2.543a.5.5 0 0 1-.075-.146h-2.776a.5.5 0 0 1-.075.146l1.269 1.816a.5.5 0 0 1 .388 0z"/></g><defs><clipPath id="a"><path fill="#fff" d="M0 0h24v24H0z"/></clipPath></defs></svg>