<svg xmlns="http://www.w3.org/2000/svg" fill="none" viewBox="0 0 24 24"><g fill="#000" clip-path="url(#a)"><path d="m6.688 3.187 5.08 5.952 3.41-2.006S11.062 1.632 9.965 2.02c-1.031.393-3.278 1.167-3.278 1.167Zm8.616 3.946s.774-1.359 1.158-3.172c0 0 3.86 1.551 2.379 5.436l-3.537-2.264Z"/><path d="m18.84 9.4.324 4.078 1.478-.193s.384-.13.323-.839c-.066-.777-.192-2.394-.192-2.394s.065-.39-.835-.516c-1.097-.2-1.097-.135-1.097-.135Zm.32 4.078-2.96 2.394 1.351 2.653s.324 1.036 1.285-.131c.901-1.167 1.286-1.36 1.22-2.071-.057-.713-.254-2.395-.896-2.845Zm-3.021 2.39-4.052-1.813-3.537 7.184s-.258.515.643.581c.9.131 2.378.454 3.152-.323.773-.709 3.794-5.629 3.794-5.629Zm-4.053-1.874-.384-4.79-8.748.586s-.515.065-.45 1.035c.066 1.294.192 2.718.192 2.718s-.065.582 1.093.647c1.159.061 8.17.061 8.297-.196Z"/></g><defs><clipPath id="a"><path fill="#fff" d="M2.5 2h18.473v20H2.5z"/></clipPath></defs></svg>