<svg xmlns="http://www.w3.org/2000/svg" fill="none" viewBox="0 0 24 24"><g fill="#000" clip-path="url(#a)"><path d="m6.688 3.187 5.08 5.952 3.41-2.006S11.062 1.632 9.965 2.02c-1.031.393-3.278 1.167-3.278 1.167m8.617 3.946s.773-1.359 1.158-3.172c0 0 3.86 1.551 2.378 5.436z"/><path d="m18.84 9.4.324 4.078 1.477-.193s.385-.13.324-.839c-.066-.778-.193-2.394-.193-2.394s.066-.39-.835-.516c-1.097-.2-1.097-.135-1.097-.135m.32 4.077-2.96 2.394 1.351 2.653s.323 1.035 1.285-.131c.9-1.167 1.286-1.36 1.22-2.071-.057-.713-.254-2.395-.896-2.845m-3.021 2.39-4.052-1.813-3.537 7.184s-.258.515.642.58c.901.132 2.379.455 3.152-.322.774-.709 3.795-5.629 3.795-5.629m-4.052-1.874-.385-4.79-8.747.586s-.516.065-.45 1.035c.065 1.294.192 2.718.192 2.718s-.066.582 1.093.647c1.158.061 8.17.061 8.297-.197"/></g><defs><clipPath id="a"><path fill="#fff" d="M2.5 2h18.473v20H2.5z"/></clipPath></defs></svg>