<svg xmlns="http://www.w3.org/2000/svg" fill="none" viewBox="0 0 24 24"><path fill="#62757E" fill-rule="evenodd" d="M20.612 11H19.5v2.5a.835.835 0 0 1-1.422.59L14.988 11h-3.265c-.766 0-1.39-.64-1.39-1.428V2.429c0-.788.624-1.429 1.39-1.429h8.889C21.377 1 22 1.64 22 2.43v7.142c0 .787-.623 1.428-1.388 1.428m-.279-8.333H12v6.666h3.333q.165 0 .319.065a.8.8 0 0 1 .27.18l1.911 1.91v-1.321c0-.46.374-.834.834-.834h1.666zM17.013 8.5a.833.833 0 0 1-.833-.833v-.834h-.748c-.966 0-1.752-.747-1.752-1.666 0-.92.786-1.667 1.752-1.667h1.581c.46 0 .834.373.834.833v3.334c0 .46-.374.833-.834.833m-7.127 6.578a.83.83 0 0 1-1.119-.372l-.92-1.843-.922 1.843a.833.833 0 1 1-1.49-.745L7.1 10.627c.282-.565 1.208-.565 1.49 0l1.667 3.334a.833.833 0 0 1-.372 1.117m-1.22-5.745h-5V16h1.667c.46 0 .834.373.834.833v1.322l1.91-1.91.01-.008a.84.84 0 0 1 .58-.237H12v-3.333a.834.834 0 1 1 1.667 0v3.571c0 .788-.624 1.429-1.39 1.429H9.013l-3.09 3.089a.834.834 0 0 1-1.422-.59v-2.5H3.388c-.765 0-1.388-.64-1.388-1.428V9.095c0-.788.623-1.428 1.388-1.428h5.279a.834.834 0 0 1 0 1.666" clip-rule="evenodd"/></svg>