<svg xmlns="http://www.w3.org/2000/svg" fill="none" viewBox="0 0 24 24"><path fill="gray" d="M10.04 4.5c4.44 0 8.04 2.68 8.04 7.885 0 4.925-3.18 7.557-7.25 7.855 1.936 1.183 4.859 1.185 6.677-.36l.567.309-.637 3.181-.235.296c-3.228.95-6.156-.103-8.2-3.446C5.053 19.836 2 17.218 2 12.385 2 7.179 5.6 4.5 10.04 4.5m0 1.4c-2.95 0-4.223 2.904-4.223 6.485 0 3.58 1.223 6.484 4.223 6.484 2.853 0 4.224-2.903 4.224-6.484S13.076 5.9 10.04 5.9m10.113-3.175 2.755.71v.248l-2.755.71-.702 2.725h-.262l-.704-2.725-2.695-.696V3.42l2.695-.695L19.19 0h.262z"/></svg>