<svg xmlns="http://www.w3.org/2000/svg" fill="none" viewBox="0 0 24 24"><path fill="#4BA2EA" d="M19.034 22.987c.11.227.22.565.455.698.174.07.363.095.55.07h3.404a.56.56 0 0 0 .494-.815c-.212-.408-.431-.808-.643-1.216l-1.31-2.472a1.3 1.3 0 0 1-.165-.36s-.047-.08.016-.29c.063-.158.855-1.72.902-1.876.322-.996 4.237-10.435-6.873-11.4q.126.068.244.15a7.9 7.9 0 0 1 2.369 2.361 7.77 7.77 0 0 1 .008 8.348 7.7 7.7 0 0 1-1.397 1.632.8.8 0 0 0-.29.36.54.54 0 0 0 .023.4z"/><path fill="#FF3B4A" d="M.079 10.654c1.788-1.217 3.593-1.295 4.158.384a.4.4 0 0 0-.008.086 7.754 7.754 0 0 0 8.795 8.583c.172-.023.337-.055.51-.086q.185-.05.376-.031c.197 2.4-7.335 3.028-11.996-2.715C.761 15.455.204 12.591.08 10.653"/><path fill="#65CEE7" d="M23.341 15.51a11.4 11.4 0 0 1-.714 1.75c-.063.117-.118.227-.18.345-.087.157-.18.321-.275.478q-.2.26-.337.557l.008-.031q.095-.235.164-.479a10.32 10.32 0 0 0-6.143-12.796l-.11-.063c.298.157-1.412-4.15 2.142-3.593q.224.12.447.251a11.4 11.4 0 0 1 4.723 5.578c.508 1.318.78 2.715.8 4.127a12 12 0 0 1-.525 3.876"/><path fill="#87C966" d="M18.845 3.428a2.1 2.1 0 0 1-3.091 1.844 7.9 7.9 0 0 0-3.138-.973 7.6 7.6 0 0 0-3.994.714 7.8 7.8 0 0 0-2.958 2.44 7.9 7.9 0 0 0-1.388 3.287C.456 6.064 8.301-1.468 17.104 1.364c.149.04.306.087.455.134.11.055.227.11.337.172h.008a2.1 2.1 0 0 1 .941 1.758"/><path fill="url(#a)" d="M17.512 1.474a2.4 2.4 0 0 0-.409-.11c-.666-.18-1.35-.294-2.04-.337-.203-.016-.407-.016-.62-.016A10.227 10.227 0 0 0 4.277 10.74a1 1 0 0 0-.016.11l-.023.18a2.1 2.1 0 0 1-2.064 1.71h-.062A2.09 2.09 0 0 1 .08 10.646c0-.095.007-.18.015-.267a11.6 11.6 0 0 1 1.052-3.57 11.2 11.2 0 0 1 2.377-3.295A12 12 0 0 1 6.88 1.247a11.9 11.9 0 0 1 3.962-.989 14 14 0 0 1 2.361.016q.829.071 1.64.259a12 12 0 0 1 2.668.941"/><path fill="#AF27CC" d="M15.637 22.971c-.11.314-.432.369-.722.44-.345.086-.69.148-1.044.203-.635.095-1.279.134-1.914.165-.67.021-1.34-.02-2-.125q-1.052-.154-2.064-.471a11.3 11.3 0 0 1-4.354-2.573 11 11 0 0 1-1.71-2.072A11.5 11.5 0 0 1 .29 14.843a13.4 13.4 0 0 1-.22-4.158v-.032a10.15 10.15 0 0 0 9.391 9.548c.275.024.55.032.832.032a10.2 10.2 0 0 0 3.609-.651.54.54 0 0 1 .392.322q.39.763.769 1.537c.008.016.015.04.023.055.134.259.26.526.393.785.117.22.25.431.156.69"/><defs><linearGradient id="a" x1=".079" x2="17.512" y1="6.478" y2="6.478" gradientUnits="userSpaceOnUse"><stop stop-color="#FFDA12"/><stop offset="1" stop-color="#EFE333"/></linearGradient></defs></svg>