<svg xmlns="http://www.w3.org/2000/svg" fill="none" viewBox="0 0 24 24"><path fill="gray" fill-rule="evenodd" d="M18.485 2.725 19.188 0h.263l.703 2.725 2.754.71v.248l-2.754.71-.703 2.725h-.263l-.703-2.725-2.695-.695V3.42zM10.04 4.5c4.44 0 8.04 2.68 8.04 7.884 0 4.926-3.18 7.558-7.25 7.857 1.936 1.182 4.858 1.184 6.676-.36l.568.308-.637 3.181-.235.296c-3.227.95-6.156-.103-8.2-3.446C5.053 19.836 2 17.218 2 12.385 2 7.177 5.6 4.5 10.04 4.5m0 14.369c2.853 0 4.224-2.903 4.224-6.485 0-3.58-1.188-6.484-4.224-6.484-2.95 0-4.223 2.903-4.223 6.484S7.04 18.87 10.04 18.87" clip-rule="evenodd"/></svg>