<svg xmlns="http://www.w3.org/2000/svg" fill="none" viewBox="0 0 24 24"><path fill="#4BA2EA" d="M19.034 22.987c.11.227.22.565.455.698.174.07.363.095.55.07h3.404a.558.558 0 0 0 .494-.815c-.212-.408-.431-.808-.643-1.216l-1.31-2.472a1.251 1.251 0 0 1-.165-.36s-.047-.08.016-.29c.063-.158.855-1.72.902-1.876.322-.996 4.237-10.435-6.873-11.4.084.045.165.095.244.15a7.908 7.908 0 0 1 2.369 2.36 7.772 7.772 0 0 1 .008 8.349 7.696 7.696 0 0 1-1.397 1.632.817.817 0 0 0-.29.36.543.543 0 0 0 .023.4l2.213 4.41Z"/><path fill="#FF3B4A" d="M.079 10.653c1.788-1.216 3.593-1.294 4.158.385a.351.351 0 0 0-.008.086 7.754 7.754 0 0 0 8.795 8.583c.172-.023.337-.055.51-.086.122-.034.25-.044.376-.031.197 2.4-7.335 3.028-11.996-2.715C.761 15.455.204 12.591.08 10.653Z"/><path fill="#65CEE7" d="M23.341 15.51a11.37 11.37 0 0 1-.714 1.75c-.063.117-.118.227-.18.345-.087.157-.18.321-.275.478a2.85 2.85 0 0 0-.337.557l.008-.031c.063-.157.118-.316.164-.479a10.32 10.32 0 0 0-6.143-12.796l-.11-.063c.298.157-1.412-4.15 2.142-3.593.15.079.298.165.447.251a11.405 11.405 0 0 1 4.723 5.578c.508 1.318.78 2.715.8 4.127a11.99 11.99 0 0 1-.525 3.876Z"/><path fill="#87C966" d="M18.845 3.428a2.101 2.101 0 0 1-3.091 1.844 7.884 7.884 0 0 0-3.138-.973 7.625 7.625 0 0 0-3.994.714 7.81 7.81 0 0 0-2.958 2.44 7.891 7.891 0 0 0-1.388 3.287C.456 6.064 8.301-1.468 17.104 1.364c.149.04.306.087.455.134.11.055.227.11.337.172h.008a2.107 2.107 0 0 1 .941 1.758Z"/><path fill="url(#a)" d="M17.512 1.474a2.405 2.405 0 0 0-.409-.11c-.666-.18-1.35-.294-2.04-.337-.203-.016-.407-.016-.62-.016A10.227 10.227 0 0 0 4.277 10.74a.616.616 0 0 0-.016.11l-.023.18a2.098 2.098 0 0 1-2.064 1.71h-.062A2.092 2.092 0 0 1 .08 10.646c0-.095.007-.18.015-.267a11.62 11.62 0 0 1 1.052-3.57 11.225 11.225 0 0 1 2.377-3.295A12.06 12.06 0 0 1 6.88 1.247a11.914 11.914 0 0 1 3.962-.989 13.963 13.963 0 0 1 2.361.016c.552.047 1.1.134 1.64.259a11.99 11.99 0 0 1 2.668.941Z"/><path fill="#AF27CC" d="M15.636 22.971c-.11.314-.431.369-.721.44-.345.086-.69.148-1.044.203-.635.095-1.279.134-1.914.165-.67.021-1.34-.02-2-.125-.7-.102-1.39-.26-2.064-.471a11.318 11.318 0 0 1-4.354-2.573 11.125 11.125 0 0 1-1.71-2.072A11.504 11.504 0 0 1 .29 14.843a13.443 13.443 0 0 1-.22-4.158v-.032a10.147 10.147 0 0 0 9.391 9.548c.275.024.55.032.832.032a10.19 10.19 0 0 0 3.609-.651.544.544 0 0 1 .392.322c.259.51.518 1.02.769 1.537.008.016.015.04.023.055.134.259.26.526.393.785.117.22.25.431.156.69Z"/><defs><linearGradient id="a" x1=".079" x2="17.512" y1="6.478" y2="6.478" gradientUnits="userSpaceOnUse"><stop stop-color="#FFDA12"/><stop offset="1" stop-color="#EFE333"/></linearGradient></defs></svg>