<svg xmlns="http://www.w3.org/2000/svg" fill="none" viewBox="0 0 24 24"><g clip-path="url(#a)"><path fill="#615CED" d="m23.923 14.571-2.776-4.857-.328-.571L22.29 6.57a.56.56 0 0 0 0-.571l-1.633-2.857a.57.57 0 0 0-.49-.286H13.96L12.49.286A.57.57 0 0 0 12 0H8.734a.57.57 0 0 0-.489.286L5.47 5.143l-.328.571H2.2A.57.57 0 0 0 1.71 6L.078 8.857a.56.56 0 0 0 0 .571l3.104 5.43-1.471 2.57a.56.56 0 0 0 0 .571l1.633 2.858a.57.57 0 0 0 .489.286h6.208l1.47 2.571A.57.57 0 0 0 12 24h3.266a.57.57 0 0 0 .489-.286l3.104-5.428H21.8a.57.57 0 0 0 .49-.286l1.632-2.857a.56.56 0 0 0 0-.572M8.73.571l1.633 2.858L8.73 6.286h13.071l-1.633 2.857H7.425L5.626 6zm1.306 20.005H3.828l1.632-2.862h3.266L2.191 6.286h3.265L7.09 9.143l4.737 8.286-1.794 3.142zm10.128-5.719L18.531 12l-6.535 11.429-1.633-2.858 1.633-2.857 4.737-8.285h3.593l3.104 5.428h-3.27z"/></g><defs><clipPath id="a"><path fill="#fff" d="M0 0h24v24H0z"/></clipPath></defs></svg>