<svg xmlns="http://www.w3.org/2000/svg" fill="none" viewBox="0 0 24 24"><g clip-path="url(#a)"><path fill="#9D4BEF" d="M12 24c6.627 0 12-5.373 12-12S18.627 0 12 0 0 5.373 0 12s5.373 12 12 12Z"/><path fill="#fff" d="M9.012 6.5a2.511 2.511 0 1 1 0 5.023 2.511 2.511 0 0 1 0-5.023Zm2.511 8.488a2.511 2.511 0 1 1-2.511-2.511 3.465 3.465 0 0 0 3.464-3.465 2.511 2.511 0 1 1 2.512 2.512 3.465 3.465 0 0 0-3.464 3.464Zm3.465 2.512a2.511 2.511 0 1 1 0-5.023 2.511 2.511 0 0 1 0 5.023Zm0-1.754a.757.757 0 1 0 0-1.515.757.757 0 0 0 0 1.515Zm-5.976 0a.757.757 0 1 0 0-1.515.757.757 0 0 0 0 1.515Zm5.976-5.977a.757.757 0 1 0 0-1.515.757.757 0 0 0 0 1.515Zm-5.976 0a.757.757 0 1 0 0-1.515.757.757 0 0 0 0 1.515Z"/></g><defs><clipPath id="a"><path fill="#fff" d="M0 0h24v24H0z"/></clipPath></defs></svg>