<svg xmlns="http://www.w3.org/2000/svg" fill="none" viewBox="0 0 24 24"><g clip-path="url(#a)"><rect width="20" height="20" x="2" y="2" fill="url(#b)" rx="10"/><path fill="url(#c)" d="M6.444 8.944h.834a7.78 7.78 0 0 1 7.777 7.778v.834h1.667c.46 0 .833-.373.833-.834 0-5.676-4.601-10.278-10.277-10.278a.833.833 0 0 0-.834.834z"/><path fill="url(#d)" d="M15.333 16.722h2.222c0 .46-.373.834-.833.834h-1.389z"/><path fill="url(#e)" d="M7.278 6.444v2.223h-.834v-1.39c0-.46.373-.833.834-.833"/><path fill="url(#f)" d="M6.444 8.667h.834a8.056 8.056 0 0 1 8.055 8.055v.834h-2.5v-.834a5.556 5.556 0 0 0-5.555-5.555h-.834z"/><path fill="url(#g)" d="M13.11 16.722h2.223v.834h-2.222z"/><path fill="url(#h)" d="M6.444 10.889V8.667h.834v2.222z"/><path fill="url(#i)" d="M6.444 12.278c0 .46.373.833.834.833a3.61 3.61 0 0 1 3.61 3.611c0 .46.374.834.834.834h1.389v-.834a5.833 5.833 0 0 0-5.833-5.833h-.834z"/><path fill="url(#j)" d="M10.889 16.722h2.222v.834h-1.389a.833.833 0 0 1-.833-.834"/><path fill="url(#k)" d="M7.278 13.111a.833.833 0 0 1-.834-.833v-1.39h.834z"/></g><defs><radialGradient id="c" cx="0" cy="0" r="1" gradientTransform="rotate(-90 12 4.722)scale(10.2778)" gradientUnits="userSpaceOnUse"><stop offset=".77" stop-color="#FF4000"/><stop offset="1" stop-color="#8754C9"/></radialGradient><radialGradient id="f" cx="0" cy="0" r="1" gradientTransform="rotate(-90 12 4.722)scale(8.05556)" gradientUnits="userSpaceOnUse"><stop offset=".724" stop-color="#FFF700"/><stop offset="1" stop-color="#FF9901"/></radialGradient><radialGradient id="i" cx="0" cy="0" r="1" gradientTransform="rotate(-90 12 4.722)scale(5.83333)" gradientUnits="userSpaceOnUse"><stop offset=".595" stop-color="#0AF"/><stop offset="1" stop-color="#01DA40"/></radialGradient><radialGradient id="j" cx="0" cy="0" r="1" gradientTransform="matrix(2.36111 0 0 6.2963 10.75 17.139)" gradientUnits="userSpaceOnUse"><stop stop-color="#0AF"/><stop offset="1" stop-color="#01DA40"/></radialGradient><radialGradient id="k" cx="0" cy="0" r="1" gradientTransform="matrix(0 -2.36111 44.7737 0 6.861 13.25)" gradientUnits="userSpaceOnUse"><stop stop-color="#0AF"/><stop offset="1" stop-color="#01DA40"/></radialGradient><linearGradient id="b" x1="12" x2="12" y1="2" y2="22" gradientUnits="userSpaceOnUse"><stop stop-color="#174299"/><stop offset="1" stop-color="#001E59"/></linearGradient><linearGradient id="d" x1="15.194" x2="17.555" y1="17.139" y2="17.139" gradientUnits="userSpaceOnUse"><stop stop-color="#FF4000"/><stop offset="1" stop-color="#8754C9"/></linearGradient><linearGradient id="e" x1="6.861" x2="6.861" y1="6.444" y2="8.806" gradientUnits="userSpaceOnUse"><stop stop-color="#8754C9"/><stop offset="1" stop-color="#FF4000"/></linearGradient><linearGradient id="g" x1="13.111" x2="15.333" y1="17.139" y2="17.139" gradientUnits="userSpaceOnUse"><stop stop-color="#FFF700"/><stop offset="1" stop-color="#FF9901"/></linearGradient><linearGradient id="h" x1="6.861" x2="6.861" y1="10.889" y2="8.667" gradientUnits="userSpaceOnUse"><stop stop-color="#FFF700"/><stop offset="1" stop-color="#FF9901"/></linearGradient><clipPath id="a"><path fill="#fff" d="M2 2h20v20H2z"/></clipPath></defs></svg>