<svg xmlns="http://www.w3.org/2000/svg" fill="none" viewBox="0 0 24 24"><g fill="#62757E" clip-path="url(#a)"><path d="m16.315 13.34-2.87 2.881a.627.627 0 0 0 0 .885l2.194 2.196a.97.97 0 0 0 1.359 0l6.722-6.634a.94.94 0 0 0 0-1.341l-6.722-6.63a.97.97 0 0 0-1.359 0l-2.193 2.197a.627.627 0 0 0 0 .884l2.87 2.881a1.884 1.884 0 0 1 0 2.682m-8.631-.001 2.87 2.881a.627.627 0 0 1 0 .885L8.36 19.302a.97.97 0 0 1-1.359 0L.28 12.668a.94.94 0 0 1 0-1.341l6.722-6.63a.97.97 0 0 1 1.359 0l2.193 2.197a.627.627 0 0 1 0 .884l-2.87 2.881a1.884 1.884 0 0 0 0 2.682"/><path d="M8.438 12.548a.775.775 0 0 1 0-1.096l3.014-3.014a.775.775 0 0 1 1.096 0l3.014 3.014a.775.775 0 0 1 0 1.096l-3.014 3.014a.775.775 0 0 1-1.096 0z"/></g><defs><clipPath id="a"><path fill="#fff" d="M0 0h24v24H0z"/></clipPath></defs></svg>