<svg xmlns="http://www.w3.org/2000/svg" fill="none" viewBox="0 0 24 24"><g clip-path="url(#a)"><path fill="#384182" d="M10.278 18.228 5 22 8.35 6.652zm.106-.035 3.214.041L8.475 6.711zm3.517-.254 2.46-9.08-.93-1.133zM12.715 3.706l-4.05 2.716 5.918-1.907zm-.51 0L9.69 3.79l-.367 1.045z"/><path fill="#F79534" d="m15.252 7.378-6.481-.885 5.84-1.83zm-1.536-3.412.356-.962-1.868-.809zm.54-1.056.421 1.51 2.49-.655z"/><path fill="#F0513A" d="M13.74 18.175 8.547 6.605l6.772.944zM12.52 3.706 9.316 4.952l-.77 1.416zm-1.987-.944-.8.88 2.656-.066zm1.4-.685-1.27.584 2.894 1.27zM13.378 2h-1.364l2.111.815zm.789 1.08-.326.968.652.313z"/></g><defs><clipPath id="a"><path fill="#fff" d="M5 2h12.174v20H5z"/></clipPath></defs></svg>