<svg xmlns="http://www.w3.org/2000/svg" fill="none" viewBox="0 0 24 24"><g clip-path="url(#a)"><path fill="#384182" d="M10.277 18.228 5 22 8.35 6.652l1.928 11.576Zm.107-.035 3.214.041L8.475 6.711l1.91 11.482Zm3.517-.254 2.46-9.079-.93-1.133-1.53 10.212ZM12.715 3.707l-4.05 2.715 5.918-1.907-1.868-.808Zm-.51 0-2.515.082-.367 1.045 2.882-1.127Z"/><path fill="#F79534" d="m15.252 7.378-6.48-.885 5.84-1.83.64 2.715Zm-1.535-3.412.355-.962-1.867-.809 1.512 1.771Zm.54-1.056.42 1.51 2.49-.654-2.91-.856Z"/><path fill="#F0513A" d="M13.74 18.175 8.547 6.605l6.772.944-1.577 10.626ZM12.52 3.706 9.316 4.952l-.77 1.416 3.972-2.662Zm-1.987-.944-.8.88 2.656-.066-1.856-.814Zm1.4-.685-1.27.584 2.894 1.27-1.625-1.854ZM13.378 2h-1.364l2.111.815L13.38 2Zm.789 1.08-.326.968.652.313-.326-1.28Z"/></g><defs><clipPath id="a"><path fill="#fff" d="M5 2h12.174v20H5z"/></clipPath></defs></svg>