<svg xmlns="http://www.w3.org/2000/svg" fill="none" viewBox="0 0 24 24"><g clip-path="url(#a)"><path fill="#3555F9" d="M12 24c6.627 0 12-5.373 12-12S18.627 0 12 0 0 5.373 0 12s5.373 12 12 12Z"/><path fill="#fff" d="M10.957 6.08c.54-.1 1.094-.088 1.641-.06.632.073 1.264.205 1.845.466a6.134 6.134 0 0 1 2.814 2.374c.25.364.418.773.587 1.178.156-.25.296-.509.433-.77a.353.353 0 0 1 .324-.21.371.371 0 0 1 .397.324c.016.152-.08.284-.143.416-.198.401-.455.772-.72 1.133-.05.052-.029.125-.023.189.295 1.741-.267 3.595-1.464 4.907a6.236 6.236 0 0 1-2.53 1.7c-1.12.39-2.351.48-3.508.206a6.203 6.203 0 0 1-4.006-2.937c-.184-.298-.302-.628-.448-.943-.159.245-.294.502-.43.76a.41.41 0 0 1-.337.225c-.243 0-.463-.261-.365-.494.208-.48.494-.924.814-1.338.069-.072.06-.174.047-.264a5.845 5.845 0 0 1 .101-2.3c.49-2.115 2.247-3.882 4.375-4.432.198-.046.395-.095.595-.13ZM9.453 7.36a5.451 5.451 0 0 0-2.507 2.757 5.393 5.393 0 0 0-.369 2.226c.12-.09.233-.187.341-.29.633-.566 1.375-1.003 2.15-1.352 1.44-.655 3.026-.937 4.601-1.013-.532-.553-1.11-1.062-1.643-1.615a9.41 9.41 0 0 1 .532-.525c.207.187.398.39.6.581.656.653 1.33 1.286 1.976 1.947-.688.685-1.393 1.354-2.08 2.039a2.264 2.264 0 0 1-.182.154c-.173-.175-.374-.327-.513-.531.423-.443.904-.832 1.309-1.29-.727.01-1.45.113-2.161.254-.575.103-1.127.297-1.679.482-1.155.433-2.221 1.122-3.034 2.045-.048.048-.041.119-.029.178.096.413.278.798.476 1.171a5.442 5.442 0 0 0 3.09 2.508 5.502 5.502 0 0 0 5.338-1.145c1.187-1.046 1.853-2.64 1.75-4.205-.125.098-.237.208-.354.314a8.53 8.53 0 0 1-2.7 1.57 12.612 12.612 0 0 1-4.027.762c.12.157.267.288.407.427.41.4.815.805 1.232 1.198-.16.189-.348.354-.525.527-.177-.145-.33-.313-.496-.471-.62-.6-1.233-1.21-1.852-1.812a2.011 2.011 0 0 1-.235-.255c.267-.288.575-.536.85-.817.47-.455.929-.924 1.405-1.373.179.173.366.339.524.53-.424.44-.875.852-1.304 1.286.47.023.935-.057 1.402-.102.338-.036.669-.112 1.002-.181 1.709-.395 3.373-1.206 4.52-2.543-.44-1.9-2.054-3.462-3.975-3.904-1.28-.325-2.676-.14-3.84.468Z"/></g><defs><clipPath id="a"><path fill="#fff" d="M0 0h24v24H0z"/></clipPath></defs></svg>