<svg xmlns="http://www.w3.org/2000/svg" fill="none" viewBox="0 0 24 24"><g clip-path="url(#a)"><path fill="#E30613" d="M12 24c6.627 0 12-5.373 12-12S18.627 0 12 0 0 5.373 0 12s5.373 12 12 12"/><path fill="#fff" fill-rule="evenodd" d="M11.625 18.5c-3.38 0-6.123-2.714-6.123-6.061s2.742-6.062 6.123-6.062 6.123 2.714 6.123 6.062c0 3.347-2.742 6.061-6.124 6.061m1.057-10.386c1.428.584 2.453 1.684 3.181 3.166l.55-.382c-.617-1.485-1.757-2.651-3.59-3.407z" clip-rule="evenodd" opacity=".75"/><path fill="#fff" d="M18.498 8.053c0-1.41-1.155-2.553-2.58-2.553-1.423 0-2.579 1.143-2.579 2.553q0 .203.032.402c.859.5 1.548 1.217 2.1 2.113q.221.04.448.04c1.424 0 2.579-1.144 2.579-2.555"/></g><defs><clipPath id="a"><path fill="#fff" d="M0 0h24v24H0z"/></clipPath></defs></svg>