<svg xmlns="http://www.w3.org/2000/svg" fill="none" viewBox="0 0 24 24"><g clip-path="url(#a)"><path fill="#2A2A2A" d="M12 24c6.627 0 12-5.373 12-12S18.627 0 12 0 0 5.373 0 12s5.373 12 12 12Z"/><path fill="#fff" d="M7.775 5.504h5.272c.064-.02.096.039.138.071.497.47.943.99 1.33 1.554a9.85 9.85 0 0 1 1.282 2.565c.313.964.461 1.985.422 2.999h-2.688a3.25 3.25 0 0 0 .015-.406c-.028-.956-.323-1.894-.788-2.725-.497-.89-1.192-1.657-1.98-2.295-.86-.695-1.827-1.243-2.835-1.686-.056-.026-.114-.047-.168-.077Zm1.951 4.762c.902 1.632 1.802 3.264 2.701 4.897.216.394.436.786.65 1.18-1.119.717-2.234 1.44-3.352 2.157v-8.234h.001Z"/></g><defs><clipPath id="a"><path fill="#fff" d="M0 0h24v24H0z"/></clipPath></defs></svg>