<svg xmlns="http://www.w3.org/2000/svg" fill="none" viewBox="0 0 24 24"><path fill="#62757E" d="M3.806 17.81H1.628l4.68-11.847H7.82l4.664 11.847h-2.291l-.456-1.934h-5.33zm1.072-3.82H9.25L7.056 7.426zm17.494 3.82H20.91v-1.268c-.667.975-1.625 1.495-3.072 1.495-1.804 0-2.974-1.105-2.974-2.811 0-1.999 1.349-3.023 3.998-3.023h2.048v-.146c0-1.349-.813-2.162-2.52-2.275a5.96 5.96 0 0 0-2.876.731V9.327c1.073-.407 2.08-.618 3.023-.618 2.584 0 3.835 1.316 3.835 4.03zm-2.275-4.534h-1.316c-2.13 0-2.682.455-2.698 1.544.162.91.926.991 1.983.991 1.462 0 2.031-.309 2.031-2.21z"/></svg>