<svg xmlns="http://www.w3.org/2000/svg" fill="none" viewBox="0 0 24 24"><path fill="#62757E" d="M14.262 18.358H8.947v-.639q.701-.045 1.16-.18.468-.134.468-.332a1.3 1.3 0 0 0-.072-.405l-1.061-2.86h-4.47q-.252.63-.414 1.098l-.278.863a6 6 0 0 0-.162.63 2.3 2.3 0 0 0-.045.395q0 .36.566.557.567.198 1.277.234v.639H1.114v-.639q.234-.018.585-.099.35-.09.575-.233.36-.243.558-.504.197-.27.387-.737.961-2.402 2.122-5.396l2.068-5.333h.72l4.253 11.007q.135.351.306.567t.477.423a2.1 2.1 0 0 0 .54.215q.332.081.557.09zm-5.144-5.216L7.184 8.196l-1.897 4.946zm13.768 5.054q-.422.153-.747.243a2.4 2.4 0 0 1-.72.099q-.7 0-1.123-.324-.414-.333-.53-.962h-.055q-.585.647-1.259.989-.665.342-1.61.342-.997 0-1.645-.612-.639-.611-.639-1.6 0-.513.144-.918t.432-.728q.225-.27.593-.477.369-.216.693-.342.405-.152 1.637-.566 1.241-.414 1.672-.648v-.89q0-.117-.054-.45a1.8 1.8 0 0 0-.207-.629 1.7 1.7 0 0 0-.512-.576q-.324-.25-.926-.251-.414 0-.774.143-.35.135-.494.288 0 .18.08.53.09.352.09.648 0 .315-.287.576-.279.26-.783.26-.45 0-.665-.314a1.29 1.29 0 0 1 .081-1.51q.297-.379.764-.675.405-.253.98-.423.576-.18 1.125-.18.754 0 1.313.108.566.1 1.025.44.458.333.692.909.243.567.243 1.466 0 1.285-.027 2.284a80 80 0 0 0-.027 2.167q0 .351.117.558.126.207.378.35.134.082.422.09.297.01.603.01zm-3.139-4.748q-.765.225-1.34.44-.575.216-1.07.54-.45.306-.71.728-.261.414-.261.99 0 .746.387 1.097.395.35.998.35.638 0 1.124-.305.486-.315.818-.738z"/></svg>