<svg xmlns="http://www.w3.org/2000/svg" fill="none" viewBox="0 0 24 24"><path fill="#62757E" fill-rule="evenodd" d="M21.167 20.5h-6.67a1.67 1.67 0 0 0-1.669 1.667.833.833 0 1 1-1.668 0A1.67 1.67 0 0 0 9.492 20.5H2.834A.833.833 0 0 1 2 19.667V3.833c0-.46.373-.833.834-.833H9.55c.976 0 1.844.438 2.446 1.116A3.26 3.26 0 0 1 14.44 3l.011.002.012-.002h6.703c.46 0 .833.373.833.833v15.834c0 .46-.373.833-.833.833M11.16 6.277c0-.888-.722-1.61-1.611-1.61l-.006-.001H3.667v14.167h5.87c.016 0 .03.009.045.01.576.015 1.11.181 1.578.454zm9.172-1.61h-5.868l-.012-.002-.011.002c-.89 0-1.613.722-1.613 1.61v13.02a3.3 3.3 0 0 1 1.602-.457c.011 0 .021-.007.034-.007h5.868zm-6.67 10c0-.461.373-.834.834-.834h4.169a.833.833 0 1 1 0 1.667h-4.169a.833.833 0 0 1-.834-.833m5.003-2.5h-4.169a.834.834 0 1 1 0-1.667h4.169a.833.833 0 1 1 0 1.667m0-3.334h-4.169a.833.833 0 1 1 0-1.666h4.169a.833.833 0 1 1 0 1.666M5.325 15.5a.833.833 0 1 1 0-1.667h4.168a.833.833 0 1 1 0 1.667zm4.168-3.333H5.324a.834.834 0 1 1 0-1.667h4.169a.833.833 0 1 1 0 1.667m0-3.334H5.324a.833.833 0 1 1 0-1.666h4.169a.833.833 0 1 1 0 1.666" clip-rule="evenodd"/></svg>