<svg xmlns="http://www.w3.org/2000/svg" fill="none" viewBox="0 0 25 24"><path fill="#62757E" fill-rule="evenodd" d="M22 3.833v9.099h-.002v.534a.85.85 0 1 1-1.7 0v-8.8h-5.84l-.006-.001h-.006l-.005.002c-.89 0-1.613.722-1.613 1.61v13.02a3.3 3.3 0 0 1 1.602-.457h.002l.01-.002v.002l.853-.02a.85.85 0 1 1 0 1.7H14.24a1.67 1.67 0 0 0-1.411 1.647.833.833 0 1 1-1.668 0A1.67 1.67 0 0 0 9.492 20.5H2.834A.833.833 0 0 1 2 19.667V3.833c0-.46.373-.833.834-.833H9.55c.976 0 1.844.438 2.446 1.116A3.26 3.26 0 0 1 14.446 3l.006.002.006-.002.006-.001h6.703c.46 0 .833.373.833.833M11.16 6.277a1.613 1.613 0 0 0-1.613-1.61h-.002l-.002-.001H3.667v14.167h5.87q.012.001.024.005l.021.005c.576.015 1.11.181 1.578.454zm2.502 8.39c0-.461.373-.834.834-.834h4.169a.833.833 0 1 1 0 1.667h-4.169a.833.833 0 0 1-.834-.833m5.003-2.5h-4.169a.834.834 0 1 1 0-1.667h4.169a.833.833 0 1 1 0 1.667m0-3.334h-4.169a.833.833 0 1 1 0-1.666h4.169a.833.833 0 1 1 0 1.666M5.325 15.5a.833.833 0 1 1 0-1.667h4.168a.833.833 0 1 1 0 1.667zm4.168-3.333H5.324a.834.834 0 1 1 0-1.667h4.169a.833.833 0 1 1 0 1.667m0-3.334H5.324a.833.833 0 1 1 0-1.666h4.169a.833.833 0 1 1 0 1.666M21.148 23.52a.85.85 0 0 1-.85-.85v-2.15h-2.15a.85.85 0 1 1 0-1.7h2.15v-2.15a.85.85 0 1 1 1.7 0v2.15h2.15a.85.85 0 0 1 0 1.7h-2.15v2.15c0 .47-.38.85-.85.85" clip-rule="evenodd"/></svg>