<svg xmlns="http://www.w3.org/2000/svg" fill="none" viewBox="0 0 24 24"><path fill="#62757E" d="M4.355 12.667h3.98L6.244 7.508zm.496-5.159h-1.42q-.595 0-.838-.155-.234-.165-.233-.546 0-.399.204-.545.214-.155 1.148-.155h2.774q.535 0 .72.146.195.135.35.516l3.807 9.509h.165q.525 0 .72.146.195.145.195.525 0 .399-.185.555-.185.146-.691.146H8.92q-.741 0-.954-.146-.205-.156-.205-.555 0-.369.224-.516.234-.155.866-.155h.906l-.945-2.317H3.868l-.837 2.317h.944q.642 0 .876.155.234.147.234.516 0 .399-.214.555-.205.146-.915.146h-2.56q-.623 0-.827-.146-.205-.156-.205-.555 0-.38.205-.525.204-.146.788-.146h.185zm15.641 5.84a6.6 6.6 0 0 0-1.041-.253 5.7 5.7 0 0 0-.993-.088q-1.5 0-2.365.507-.867.505-.867 1.362 0 .662.536 1.09.545.429 1.382.428 1.236 0 2.287-.642 1.06-.652 1.061-1.353zm.078 3.066a5.8 5.8 0 0 1-1.742 1.1 5.1 5.1 0 0 1-1.927.38q-1.451 0-2.346-.808-.886-.81-.886-2.103 0-1.538 1.178-2.384 1.188-.847 3.329-.847.564 0 1.138.078.575.068 1.178.223v-.068q0-1.119-.535-1.654-.535-.536-1.665-.536-.759 0-1.693.41-.934.408-1.236.408a.58.58 0 0 1-.467-.224.93.93 0 0 1-.185-.594q0-.573 1.07-.973 1.08-.399 2.755-.399 1.713 0 2.589.876.876.866.876 2.57v4.409h.476q.692 0 .925.146.234.145.234.525 0 .35-.195.526-.194.175-.584.175H21.33a.63.63 0 0 1-.448-.165q-.174-.166-.233-.477z"/></svg>