<svg xmlns="http://www.w3.org/2000/svg" fill="none" viewBox="0 0 24 24"><path fill="#62757E" fill-rule="evenodd" d="M21.167 20.5h-6.67a1.67 1.67 0 0 0-1.668 1.667.833.833 0 0 1-1.668 0A1.67 1.67 0 0 0 9.493 20.5H2.834A.833.833 0 0 1 2 19.667V3.833c0-.46.373-.833.834-.833H9.55c.976 0 1.844.438 2.446 1.116A3.26 3.26 0 0 1 14.44 3l.011.002.012-.002h6.703c.46 0 .833.373.833.833v15.834c0 .46-.373.833-.833.833M9.549 4.667l-.006-.001H3.667v14.167h5.87c.016 0 .03.009.045.01a3.3 3.3 0 0 1 1.58.454V6.277c0-.888-.724-1.61-1.613-1.61m10.784 0h-5.87l-.01-.002-.012.002c-.89 0-1.612.722-1.612 1.61v13.02a3.3 3.3 0 0 1 1.601-.457c.012 0 .021-.007.034-.007h5.868z" clip-rule="evenodd"/></svg>