<svg xmlns="http://www.w3.org/2000/svg" fill="none" viewBox="0 0 24 24"><path fill="#62757E" fill-rule="evenodd" d="M20.667 12c0 3.817-2.465 7.23-5.993 8.298a.833.833 0 1 1-.482-1.596C17.022 17.846 19 15.09 19 12c0-2.897-1.692-5.25-4.254-6.204l.832 1.665a.833.833 0 1 1-1.49.745L12.42 4.873a.833.833 0 0 1 .373-1.117l3.334-1.668a.832.832 0 1 1 .744 1.49l-1.395.699c3.103 1.236 5.19 4.21 5.19 7.723m-8.795 8.246L8.54 21.912a.83.83 0 0 1-1.118-.373.833.833 0 0 1 .373-1.117l1.394-.698C6.087 18.488 4 15.516 4 12c0-3.816 2.464-7.228 5.992-8.297a.833.833 0 0 1 .484 1.595c-2.832.858-4.81 3.614-4.81 6.702 0 2.9 1.693 5.254 4.255 6.206l-.833-1.666a.834.834 0 0 1 1.49-.746l1.667 3.334a.83.83 0 0 1-.372 1.117" clip-rule="evenodd"/></svg>