<svg xmlns="http://www.w3.org/2000/svg" fill="none" viewBox="0 0 24 24"><path fill="#62757E" fill-rule="evenodd" d="M21.54 17.246a.833.833 0 0 1-1.118-.373l-.699-1.396c-1.237 3.103-4.21 5.19-7.723 5.19-3.818 0-7.23-2.465-8.297-5.992a.833.833 0 0 1 1.595-.483C6.155 17.022 8.911 19 12 19c2.898 0 5.251-1.692 6.205-4.254l-1.666.832a.832.832 0 1 1-.745-1.49l3.333-1.667a.834.834 0 0 1 1.118.373l1.666 3.334a.833.833 0 0 1-.372 1.118m-8.948-2.171c.15.158.241.375.241.592a.88.88 0 0 1-.242.591.88.88 0 0 1-.59.242.88.88 0 0 1-.593-.242c-.15-.158-.15-.375-.15-.591 0-.217 0-.434.15-.592.308-.308.875-.308 1.184 0M11.258 9c0-.46.282-.833.742-.833s.943.373.943.833v4.167c0 .46-.483.833-.943.833s-.742-.373-.742-.833zm8.484 2.032a.836.836 0 0 1-1.04-.557c-.858-2.83-3.614-4.808-6.702-4.808-2.9 0-5.255 1.692-6.206 4.255l1.667-.835a.834.834 0 0 1 .745 1.492l-3.333 1.666a.833.833 0 0 1-1.118-.372L2.088 8.54a.834.834 0 0 1 1.491-.745l.697 1.394C5.511 6.086 8.485 4 12 4c3.816 0 7.228 2.464 8.298 5.992a.835.835 0 0 1-.556 1.04" clip-rule="evenodd"/></svg>