<svg xmlns="http://www.w3.org/2000/svg" fill="none" viewBox="0 0 24 24"><path fill="#62757E" fill-rule="evenodd" d="M11.8 22C6.948 22 3 18.052 3 13.2c0-4.364 3.197-7.986 7.369-8.673L8.92 3.44a.8.8 0 0 1 .96-1.28l3.2 2.4a.8.8 0 0 1 .15 1.134l-2.276 2.9a.799.799 0 1 1-1.258-.988l1.212-1.545c-3.55.442-6.308 3.472-6.308 7.14 0 3.97 3.23 7.2 7.2 7.2s7.2-3.23 7.2-7.2c0-2.41-1.258-4.826-3.207-6.154a.8.8 0 1 1 .901-1.322C19.066 7.342 20.6 10.277 20.6 13.2c0 4.851-3.948 8.799-8.8 8.799m3.814-10.688-4 4.8a.8.8 0 0 1-.578.287L11 16.4a.8.8 0 0 1-.566-.234l-2.4-2.4a.799.799 0 1 1 1.132-1.132l1.78 1.781 3.44-4.127a.8.8 0 1 1 1.228 1.024" clip-rule="evenodd"/></svg>