<svg xmlns="http://www.w3.org/2000/svg" fill="none" viewBox="0 0 24 24"><path fill="#62757E" fill-rule="evenodd" d="M17.265 18.958a.832.832 0 1 1-.94-1.377c2.03-1.383 3.342-3.9 3.342-6.412 0-4.137-3.365-7.501-7.5-7.501s-7.5 3.364-7.5 7.501c0 3.968 3.097 7.218 6.999 7.477l-1.184-2.068a.834.834 0 0 1 1.448-.827l1.793 3.135a.833.833 0 0 1-.316 1.142l-3.334 1.865a.835.835 0 0 1-.813-1.454l.685-.384C5.963 19.058 3 15.458 3 11.169 3 6.113 7.113 2 12.167 2s9.166 4.113 9.166 9.17c0 3.046-1.596 6.103-4.068 7.788" clip-rule="evenodd"/></svg>