<svg xmlns="http://www.w3.org/2000/svg" fill="none" viewBox="0 0 24 24"><g clip-path="url(#a)"><path fill="#080817" d="M12 24c6.627 0 12-5.373 12-12S18.627 0 12 0 0 5.373 0 12s5.373 12 12 12"/><path fill="#fff" d="m8.03 8.24.95-.548.136.221 3.529-2.038-.26-.154-.26-.144L12 5.5 6.24 8.828v.143l1.654-.952zm0 2.096 2.768-1.596.124.222 3.54-2.04-.26-.153-.26-.144-.125-.077-7.577 4.365v.154l1.654-.952zm0 1.048 3.672-2.124.125.221 3.54-2.038-.26-.145-.262-.155-.124-.076-8.48 4.895v.152l1.653-.96zm0 1.04 4.604-2.656.127.223 3.51-2.03-.262-.145-.259-.152-.125-.068L6.24 13.01v.144l1.654-.952zm0 1.047 5.508-3.182.126.23 3.51-2.028-.261-.154-.248-.145-.136-.076L6.24 14.058v.144l1.654-.952zm9.537-4.759-.134-.077-11.193 6.47v.144l1.654-.951.135.22 5.51-3.182.125.222 4.095-2.355v-.375zM6.952 15.885l.923-.529.135.222 5.5-3.183.134.23 4.116-2.385V9.5L6.827 15.81zm6.558-2.442.134.231 4.116-2.385v-.74L7.73 16.337l.124.077.943-.548.134.22zm-4.75 3.49.952-.547.124.23 3.675-2.125.133.22 4.116-2.374v-.75l-9.126 5.27zm.913.52.943-.539.124.221 2.77-1.596.134.22 4.116-2.374v-.75l-8.222 4.75zm.77.451.134.078.943-.55.124.232 1.866-1.077.134.222 4.116-2.376v-.75zm1.038.596.943-.538.133.221.953-.557.134.23 4.116-2.375v-.75l-6.405 3.703zm2.077-12.106-.26-.144-.26-.154-.134-.077L6.24 9.875v.143l1.654-.951.135.22 1.864-1.075.127.22z"/></g><defs><clipPath id="a"><path fill="#fff" d="M0 0h24v24H0z"/></clipPath></defs></svg>