<svg xmlns="http://www.w3.org/2000/svg" fill="none" viewBox="0 0 24 24"><path fill="url(#a)" d="M12 22c5.523 0 10-4.477 10-10S17.523 2 12 2 2 6.477 2 12s4.477 10 10 10Z"/><path fill="#fff" d="m7.625 7.813 1.063-.563.124.25 3.876-2.25-.25-.188-.313-.187L12 4.812 5.625 8.5v.125l1.813-1 .187.188Zm0 2.375 3.063-1.813.124.25 3.938-2.25-.313-.188-.312-.125L14 6l-8.375 4.813v.124l1.813-1 .187.25Zm0 1.124L11.688 9l.124.188 3.938-2.25-.313-.125-.312-.188L15 6.562l-9.375 5.375v.188l1.813-1.063.187.25Zm0 1.126 5.063-2.876.124.188 3.938-2.188-.313-.187-.312-.188L16 7.125l-10.375 6v.125l1.813-1 .187.188Zm0 1.187 6.063-3.5.124.25 3.938-2.25-.313-.188-.25-.125L17 7.688 5.625 14.25v.188l1.813-1.063.187.25Zm10.5-5.25L18 8.25 5.625 15.438v.124l1.813-1 .187.25 6.063-3.562.124.25 4.563-2.563V8.5l-.25-.125ZM6.437 16.313l1-.625.125.25 6.125-3.5.126.25 4.562-2.626V9.25L6.25 16.188l.188.125Zm7.25-2.688.126.25 4.562-2.688v-.812L7.25 16.813l.188.062 1-.625.187.25 5.063-2.875Zm-5.25 3.813 1.063-.563.125.25 4.063-2.375.124.25 4.563-2.625v-.813L8.25 17.375l.188.063Zm1 .562 1.063-.563.125.25 3.063-1.75.124.25 4.563-2.625v-.874l-9.125 5.25.188.062Zm.813.5.188.125L11.5 18l.125.25 2.063-1.188.124.25 4.563-2.625v-.812L10.25 18.5Zm1.188.688 1-.625.187.25 1.063-.563.124.25 4.563-2.625V15l-7.063 4.125.126.063ZM13.75 5.813l-.313-.188-.312-.125L13 5.375l-7.375 4.25v.188L7.438 8.75l.187.25 2.063-1.188.124.25 3.938-2.25Z"/><defs><linearGradient id="a" x1="2" x2="22" y1="12" y2="12" gradientUnits="userSpaceOnUse"><stop stop-color="#001C3A"/><stop offset=".6" stop-color="#001E3D"/><stop offset=".7" stop-color="#001F3F"/><stop offset="1" stop-color="#002042"/></linearGradient></defs></svg>