<svg xmlns="http://www.w3.org/2000/svg" fill="none" viewBox="0 0 24 24"><g clip-path="url(#a)"><path fill="#602A52" d="M12 24c6.627 0 12-5.373 12-12S18.627 0 12 0 0 5.373 0 12s5.373 12 12 12Z"/><path fill="#fff" fill-rule="evenodd" d="M14.412 12.185a2.53 2.53 0 0 0-.845-1.156l-.004-.005a2.508 2.508 0 0 0-.126-.09l-.008-.005a2.935 2.935 0 0 0-.13-.08l-.011-.007a1.49 1.49 0 0 0-.132-.068l-.013-.007a3.611 3.611 0 0 0-.14-.062l-.015-.006a2.572 2.572 0 0 0-.47-.144 1.79 1.79 0 0 1-.354.45c.332.027.653.133.935.31l.016.01.078.052.035.025.07.053.04.032.06.054.04.038.055.056.04.043.05.057.038.048.044.06a1.17 1.17 0 0 1 .076.112l.035.056c.01.02.024.04.034.06.012.02.021.042.032.063l.03.06.031.079c.056.14.096.286.118.435l.065.238c.027.1.278.979.86 1.275.667.342 1.55.765 1.898.932l-4.59 2.694v-1.846c0-.292.592-.633.865-.752l.016-.01a2.37 2.37 0 0 0 .166-.09l.023-.01c.118-.072.23-.153.337-.241l.028-.026.033-.029c.033-.03.065-.06.097-.092l.017-.016c.034-.035.07-.068.1-.109l.03-.033c.025-.03.05-.062.074-.094l.021-.026c.03-.04.057-.08.084-.12l.01-.012c.036-.057.069-.115.103-.174a2.61 2.61 0 0 1-.328-.506 1.966 1.966 0 0 1-.136.296 3 3 0 0 1-.07.12l-.01.017a2.03 2.03 0 0 1-.07.097l-.022.028-.075.09-.014.017c-.171.186-.376.34-.603.452l-.043.021c-.116.052-1.142.507-1.142 1.199v1.847l-4.603-2.7c.296-.18 1.16-.684 1.872-.905.279-.085.87.28 1.205.547l.02.018c.044.041.09.08.14.118l.016.015c.106.085.22.161.338.228l.08.044.016.008c.077.039.157.074.237.106l.036.013.024.01c.116.042.236.075.357.1.095-.17.218-.324.364-.454a2.067 2.067 0 0 1-.568-.124l-.031-.012-.06-.024-.031-.013-.059-.027a2.051 2.051 0 0 1-.38-.24l-.184-.163a3.365 3.365 0 0 0-.544-.382c-.455-.254-.835-.337-1.127-.247-.609.188-1.294.553-1.713.794l4.597-8.105V10c0 .125-.19.454-.821.733l-.044.023c-.061.03-.121.062-.18.096l-.011.006a2.546 2.546 0 0 0-.53.416l-.007.006c-.06.061-.116.126-.17.193l-.006.009-.075.1-.008.012a2.974 2.974 0 0 0-.064.097l-.007.01c-.021.033-.04.067-.06.102l-.013.024-.052.1-.008.015c-.015.031-.03.063-.043.095l-.014.035c-.014.033-.026.069-.039.1l-.012.036a1.344 1.344 0 0 0-.024.077c-.005.014-.01.028-.013.043-.034.118-.059.24-.074.362l-.006.055a1.51 1.51 0 0 0-.006.075c-.001.025 0 .05-.004.075-.004.025 0 .03 0 .047v.056c0 .124.01.248.028.372.198.048.39.12.57.213a1.959 1.959 0 0 1-.088-.551v-.034c0-.045 0-.089.006-.136v-.036c0-.038.007-.077.013-.116v-.016a1.26 1.26 0 0 1 .024-.127l.008-.033c.008-.035.017-.07.028-.104l.008-.023c.011-.04.026-.08.041-.12l.012-.026c.013-.033.027-.065.042-.098l.011-.024c.019-.039.039-.076.06-.113l.01-.019c.02-.032.039-.063.06-.094l.014-.022c.024-.036.05-.069.076-.105l.004-.006c.026-.033.052-.064.08-.095l.014-.018c.125-.137.268-.256.426-.356l.217-.1c.117-.052 1.138-.52 1.138-1.212V6.45l4.632 8.167c-.413-.199-1.14-.55-1.708-.839-.324-.165-.545-.748-.601-.958l-.063-.245a2.427 2.427 0 0 0-.102-.387l-.004-.002Zm3.138 2.57-5.106-8.997a.512.512 0 0 0-.705-.19.512.512 0 0 0-.189.19l-5.1 8.998a.494.494 0 0 0 .184.671l5.104 3.002a.52.52 0 0 0 .525 0l5.103-3a.494.494 0 0 0 .184-.67v-.004Z" clip-rule="evenodd"/></g><defs><clipPath id="a"><path fill="#fff" d="M0 0h24v24H0z"/></clipPath></defs></svg>