<svg xmlns="http://www.w3.org/2000/svg" fill="none" viewBox="0 0 24 24"><g clip-path="url(#a)"><path fill="#602A52" d="M12 24c6.627 0 12-5.373 12-12S18.627 0 12 0 0 5.373 0 12s5.373 12 12 12"/><path fill="#fff" fill-rule="evenodd" d="M14.412 12.185a2.53 2.53 0 0 0-.845-1.156l-.004-.005-.126-.09-.008-.005-.13-.08-.011-.007a2 2 0 0 0-.132-.068l-.013-.007-.14-.062-.015-.006a2.6 2.6 0 0 0-.47-.144 1.8 1.8 0 0 1-.354.45c.332.027.653.133.935.31l.016.01.078.052.035.025.07.053.04.032.06.054.04.038.055.056.04.043.05.057.038.048.044.06.037.052.04.06.034.056.034.06q.017.03.032.063l.03.06.031.079q.084.21.118.435l.065.238c.027.1.278.979.86 1.275.667.342 1.55.765 1.898.932l-4.59 2.694v-1.846c0-.292.592-.633.865-.752l.016-.01a2 2 0 0 0 .166-.09l.023-.01q.177-.109.337-.241l.028-.026.033-.029q.05-.044.097-.092l.017-.016c.034-.035.07-.068.1-.109l.03-.033q.038-.046.074-.094l.021-.026q.044-.06.084-.12l.01-.012q.053-.085.103-.174a2.6 2.6 0 0 1-.328-.506 2 2 0 0 1-.136.296l-.07.12-.01.017-.07.097-.022.028-.075.09-.014.017c-.171.186-.376.34-.603.452l-.043.021c-.116.052-1.142.507-1.142 1.199v1.847l-4.603-2.7c.296-.18 1.16-.684 1.872-.905.279-.085.87.28 1.205.547l.02.018q.066.061.14.118l.016.015q.16.127.338.228l.08.044.016.008q.116.058.237.106l.036.013.024.01q.175.063.357.1.144-.257.364-.454a2 2 0 0 1-.568-.124l-.031-.012-.06-.024-.031-.013-.059-.027a2 2 0 0 1-.38-.24l-.184-.163a3.4 3.4 0 0 0-.544-.382c-.455-.254-.835-.337-1.127-.247-.609.188-1.294.553-1.713.794l4.597-8.105V10c0 .125-.19.454-.821.733l-.044.023q-.091.045-.18.096l-.011.006a2.6 2.6 0 0 0-.53.416l-.007.006q-.09.092-.17.193l-.006.009-.075.1-.008.012-.064.097-.007.01-.06.102-.013.024-.052.1-.008.015q-.023.047-.043.095l-.014.035c-.014.033-.026.069-.039.1l-.012.036-.024.077q-.008.02-.013.043-.051.178-.074.362l-.006.055-.006.075q0 .038-.004.075c-.004.025 0 .03 0 .047v.056q0 .186.028.372.299.073.57.213a2 2 0 0 1-.088-.551v-.034q-.001-.067.006-.136v-.036c0-.038.007-.077.013-.116v-.016a1 1 0 0 1 .024-.127l.008-.033q.012-.053.028-.104l.008-.023q.018-.06.041-.12l.012-.026.042-.098.011-.024q.028-.058.06-.113l.01-.019.06-.094.014-.022q.037-.053.076-.105l.004-.006q.038-.049.08-.095l.014-.018q.188-.206.426-.356l.217-.1c.117-.052 1.138-.52 1.138-1.212V6.45l4.632 8.167c-.413-.199-1.14-.55-1.708-.839-.324-.165-.545-.748-.601-.958l-.063-.245a2.4 2.4 0 0 0-.102-.387zm3.138 2.57-5.106-8.997a.51.51 0 0 0-.705-.19.5.5 0 0 0-.189.19l-5.1 8.998a.494.494 0 0 0 .184.671l5.104 3.002a.52.52 0 0 0 .525 0l5.103-3a.494.494 0 0 0 .184-.67z" clip-rule="evenodd"/></g><defs><clipPath id="a"><path fill="#fff" d="M0 0h24v24H0z"/></clipPath></defs></svg>