<svg xmlns="http://www.w3.org/2000/svg" fill="none" viewBox="0 0 24 24"><g clip-path="url(#a)"><path fill="#0E0E21" d="M12 24c6.627 0 12-5.373 12-12S18.627 0 12 0 0 5.373 0 12s5.373 12 12 12"/><path fill="#fff" fill-rule="evenodd" d="m9.108 11.671-.806-.523a.16.16 0 0 1-.051-.219l3.11-5.272a.32.32 0 0 1 .272-.157h.734a.32.32 0 0 1 .273.157l3.11 5.272a.163.163 0 0 1-.052.22l-.806.522a.16.16 0 0 1-.222-.053l-2.601-4.41a.08.08 0 0 0-.137 0l-2.602 4.41a.16.16 0 0 1-.222.053m7.46.647 1.237 2.098a.327.327 0 0 1-.1.438l-5.532 3.595a.32.32 0 0 1-.344 0l-5.532-3.595a.325.325 0 0 1-.1-.438l1.237-2.098a.16.16 0 0 1 .222-.053l.805.523a.16.16 0 0 1 .052.22l-.708 1.198a.083.083 0 0 0 .026.11l4.126 2.68a.08.08 0 0 0 .085 0l4.128-2.68a.08.08 0 0 0 .026-.11l-.707-1.199a.16.16 0 0 1 .051-.219l.806-.523a.16.16 0 0 1 .18.006.2.2 0 0 1 .042.047" clip-rule="evenodd"/></g><defs><clipPath id="a"><path fill="#fff" d="M0 0h24v24H0z"/></clipPath></defs></svg>