<svg xmlns="http://www.w3.org/2000/svg" fill="none" viewBox="0 0 24 24"><g clip-path="url(#a)"><path fill="#0E0E21" d="M12 24c6.627 0 12-5.373 12-12S18.627 0 12 0 0 5.373 0 12s5.373 12 12 12Z"/><path fill="#fff" fill-rule="evenodd" d="m9.108 11.671-.806-.523a.162.162 0 0 1-.052-.219l3.11-5.272a.319.319 0 0 1 .273-.157h.734a.318.318 0 0 1 .273.157l3.109 5.272a.162.162 0 0 1-.051.22l-.806.522a.158.158 0 0 1-.222-.053l-2.602-4.41a.079.079 0 0 0-.107-.029.08.08 0 0 0-.03.028L9.33 11.618a.158.158 0 0 1-.222.053Zm7.46.647 1.237 2.098a.328.328 0 0 1-.1.438l-5.532 3.595a.314.314 0 0 1-.345 0l-5.53-3.595a.325.325 0 0 1-.102-.438l1.237-2.098a.158.158 0 0 1 .223-.053l.805.523a.162.162 0 0 1 .051.22l-.707 1.198a.083.083 0 0 0 .026.11l4.126 2.68a.075.075 0 0 0 .085 0l4.128-2.68a.081.081 0 0 0 .026-.11l-.708-1.199a.163.163 0 0 1 .052-.219l.806-.523a.157.157 0 0 1 .221.053Z" clip-rule="evenodd"/></g><defs><clipPath id="a"><path fill="#fff" d="M0 0h24v24H0z"/></clipPath></defs></svg>