<svg xmlns="http://www.w3.org/2000/svg" fill="none" viewBox="0 0 24 24"><g clip-path="url(#a)"><path fill="#00E6A0" d="M12 24c6.627 0 12-5.373 12-12S18.627 0 12 0 0 5.373 0 12s5.373 12 12 12"/><path fill="#fff" d="M16.424 6.5a.42.42 0 0 1 .31.125l-.003-.004a.42.42 0 0 1 .12.237l.005.067-.005 2.223c0 .291-.115.572-.322.778l-2.757 2.749 2.95 2.941a1.099 1.099 0 1 1-1.55 1.557l-3.73-3.718a1.096 1.096 0 0 1 0-1.557l3.267-3.26H9.182v7.732a1.1 1.1 0 0 1-1.117 1.117l-.11-.004a1.103 1.103 0 0 1-1.008-1.113V7.7c0-.693.497-1.2 1.168-1.2z"/></g><defs><clipPath id="a"><path fill="#fff" d="M0 0h24v24H0z"/></clipPath></defs></svg>