<svg xmlns="http://www.w3.org/2000/svg" fill="none" viewBox="0 0 24 24"><path fill="#62757E" fill-rule="evenodd" d="M20.423 21.756a.83.83 0 0 1-1.179 0L17.35 19.86a3.3 3.3 0 0 1-1.683.472A3.337 3.337 0 0 1 12.333 17a3.337 3.337 0 0 1 3.334-3.333A3.337 3.337 0 0 1 19 17c0 .617-.18 1.187-.473 1.683l1.895 1.895a.833.833 0 0 1 0 1.178m-4.756-6.423A1.67 1.67 0 0 0 14 17a1.67 1.67 0 0 0 1.668 1.667 1.66 1.66 0 0 0 1.176-.488l.001-.002h.002A1.66 1.66 0 0 0 17.334 17c0-.92-.748-1.667-1.667-1.667m2.5-2.5c-.46 0-.758-.372-.758-.833V7H6.5c-.294 0-.57-.06-.833-.153v12.501c0 .544.441.985.985.985h5.681a.833.833 0 1 1 0 1.667H6.652a2.646 2.646 0 0 1-2.621-2.348C4.021 19.6 4 19.554 4 19.5V4.954c0-.054.02-.1.031-.151-.013-.1-.031-.2-.031-.303C4 3.122 5.122 2 6.5 2h11.667a.833.833 0 1 1 0 1.667.834.834 0 0 0 0 1.666c.46 0 .833.373.833.834 0 .08-.024.153-.046.226.022.075.046.147.046.228V12c0 .46-.373.833-.833.833M6.5 3.667a.834.834 0 0 0 0 1.666h9.314a2.5 2.5 0 0 1-.147-.833c0-.293.06-.57.153-.833z" clip-rule="evenodd"/></svg>