<svg xmlns="http://www.w3.org/2000/svg" fill="none" viewBox="0 0 24 24"><path fill="currentColor" fill-rule="evenodd" d="M2.77 11.23A.77.77 0 0 0 2 12c0 5.523 4.477 10 10 10s10-4.477 10-10S17.523 2 12 2a9.973 9.973 0 0 0-6.923 2.783V2.77a.77.77 0 1 0-1.539 0v3.846c0 .425.345.77.77.77h3.846a.77.77 0 0 0 0-1.539H6.192A8.461 8.461 0 1 1 3.539 12a.77.77 0 0 0-.77-.77Z" clip-rule="evenodd"/><path fill="currentColor" d="M8 10.254V9.02h2.308V16h-1.38v-5.746H8Zm8.324-.076h-3.102v1.637a1.4 1.4 0 0 1 .574-.402 1.98 1.98 0 0 1 .795-.163c.51 0 .929.112 1.255.335.325.224.561.511.708.862.147.345.22.715.22 1.111 0 .734-.21 1.325-.632 1.772-.415.447-1.008.67-1.78.67-.728 0-1.31-.182-1.744-.546-.434-.364-.68-.84-.737-1.427h1.303c.057.256.185.46.383.613.204.153.462.23.775.23.377 0 .66-.118.852-.354.192-.236.288-.55.288-.939 0-.396-.1-.696-.297-.9-.192-.21-.476-.316-.852-.316-.268 0-.492.067-.67.201a1.097 1.097 0 0 0-.384.537h-1.283V9h4.328v1.178Z"/></svg>