<svg xmlns="http://www.w3.org/2000/svg" fill="none" viewBox="0 0 24 24"><path fill="#62757E" fill-rule="evenodd" d="M2 12c0 5.514 4.486 10 10 10s10-4.486 10-10S17.514 2 12 2 2 6.486 2 12Zm1.667 0c0-4.595 3.738-8.333 8.333-8.333 4.595 0 8.333 3.738 8.333 8.333 0 4.595-3.738 8.333-8.333 8.333-4.595 0-8.333-3.738-8.333-8.333Zm2.723.61a1 1 0 0 1 0-1.691l4.932-3.106a1 1 0 0 1 1.532.846v.975l2.453-1.7a1 1 0 0 1 1.57.823v6.016a1 1 0 0 1-1.57.822l-2.453-1.7v.975a1 1 0 0 1-1.532.847L6.39 12.61Z" clip-rule="evenodd"/></svg>