<svg xmlns="http://www.w3.org/2000/svg" fill="none" viewBox="0 0 24 24"><path fill="#62757E" fill-rule="evenodd" d="M8.096 5.449c1.164-1.018 2.985-.192 2.985 1.355v9.592c0 1.547-1.821 2.373-2.985 1.355l-5.481-4.797a1.8 1.8 0 0 1 0-2.709zm1.385 1.355a.2.2 0 0 0-.331-.15l-5.482 4.795a.2.2 0 0 0 0 .301l5.482 4.797a.2.2 0 0 0 .331-.15zm8.615-1.355c1.164-1.018 2.985-.192 2.985 1.355v9.592c0 1.547-1.821 2.373-2.985 1.355l-5.481-4.797a1.8 1.8 0 0 1 0-2.709zm1.385 1.355a.2.2 0 0 0-.331-.15l-5.482 4.795a.2.2 0 0 0 0 .301l5.482 4.797a.2.2 0 0 0 .331-.15z" clip-rule="evenodd"/></svg>