<svg xmlns="http://www.w3.org/2000/svg" fill="none" viewBox="0 0 24 24"><g clip-path="url(#a)"><path fill="#CC1E46" d="M12 24c6.627 0 12-5.373 12-12S18.627 0 12 0 0 5.373 0 12s5.373 12 12 12"/><path fill="#fff" d="M9.48 8.207a6.24 6.24 0 0 1 3.21-1.228c.119-.024.247.05.243.181.011.313.004.625.004.938.008.097-.044.223-.155.226-1.03.114-2.01.535-2.86 1.116-.08.045-.063.15-.056.226.06.548.019 1.1.035 1.65 2.776.007 5.553-.002 8.33.004.133-.011.272.064.262.212.014.935.003 1.87.005 2.804.003.508-.106 1.034-.413 1.449-.486.652-1.34 1.044-2.151.9-.575-.086-1.072-.443-1.42-.896a6.26 6.26 0 0 1-3.262 1.237c-.12.001-.21-.116-.191-.232.004-.326-.007-.655.005-.982.028-.173.241-.14.368-.168a6.3 6.3 0 0 0 2.7-1.138 21 21 0 0 1-.044-1.825c-2.786-.018-5.573-.001-8.36-.009-.122.014-.24-.078-.229-.208q-.003-1.476.001-2.952c.006-.515.168-1.035.51-1.428.449-.51 1.126-.837 1.814-.797.659.026 1.263.4 1.654.92M6.624 9.68q-.001.865.001 1.732c.69-.001 1.377.009 2.065-.006.001-.563.008-1.125-.003-1.687-.011-.54-.498-1.016-1.04-1.005-.528-.022-1.01.441-1.023.966m8.768 2.953c-.006.548-.001 1.096-.003 1.644-.004.22.063.434.19.613.264.378.79.543 1.222.376.398-.147.66-.564.656-.982 0-.55.003-1.1-.002-1.65-.688-.006-1.375-.003-2.063-.002"/></g><defs><clipPath id="a"><path fill="#fff" d="M0 0h24v24H0z"/></clipPath></defs></svg>