<svg xmlns="http://www.w3.org/2000/svg" fill="none" viewBox="0 0 24 24"><g clip-path="url(#a)"><path fill="#60E4DD" d="M12 24c6.627 0 12-5.373 12-12S18.627 0 12 0 0 5.373 0 12s5.373 12 12 12"/><path fill="#fff" fill-rule="evenodd" d="m7.544 14.94.553-.831H6.106a.06.06 0 0 1-.06-.06v-.414a.06.06 0 0 1 .06-.06H8.46c1.26-1.84 1.888-2.597 1.888-2.674 0-.12-.026-.178-.455-.178-.847 0-2.242-.605-2.242-2.258 0-.899 1.455-1.99 2.303-1.99.394 0 .455.167.273.178-.484.03-1.545.998-1.545 1.93 0 .625.554 1.694 1.787 1.694 1.458 0 2.702-2.317 5.728-2.317 1.818 0 2.303 1.422 2.303 1.812s-.567.595-1.333.595S16.372 9 14.833 9c-2.416 0-4.474 2.617-5.463 4.574h1.706a.06.06 0 0 1 .06.06v.414a.06.06 0 0 1-.037.057l-.023.004H9.119a6 6 0 0 0-.299.832h1.71a.06.06 0 0 1 .06.06v.414a.06.06 0 0 1-.06.06H8.743q.048 1.137 1.909 2.05H5.894q.64-1.03 1.3-2.05H5.56a.06.06 0 0 1-.061-.06v-.414a.06.06 0 0 1 .06-.06z" clip-rule="evenodd"/></g><defs><clipPath id="a"><path fill="#fff" d="M0 0h24v24H0z"/></clipPath></defs></svg>