<svg xmlns="http://www.w3.org/2000/svg" fill="none" viewBox="0 0 24 24"><g clip-path="url(#a)"><path fill="#60E4DD" d="M12 24c6.627 0 12-5.373 12-12S18.627 0 12 0 0 5.373 0 12s5.373 12 12 12Z"/><path fill="#fff" fill-rule="evenodd" d="M7.544 14.94c.195-.295.38-.572.553-.831H6.106a.06.06 0 0 1-.06-.06v-.414a.06.06 0 0 1 .06-.06H8.46c1.26-1.84 1.888-2.597 1.888-2.674 0-.119-.026-.178-.455-.178-.847 0-2.242-.605-2.242-2.258 0-.899 1.455-1.99 2.303-1.99.394 0 .455.167.273.178-.484.03-1.545.999-1.545 1.93 0 .625.554 1.694 1.787 1.694 1.458 0 2.702-2.317 5.728-2.317 1.818 0 2.303 1.423 2.303 1.813 0 .39-.567.594-1.333.594S16.372 9 14.833 9c-2.416 0-4.474 2.617-5.463 4.574h1.706a.06.06 0 0 1 .06.06v.414a.06.06 0 0 1-.06.061H9.119a6.084 6.084 0 0 0-.299.832h1.71a.06.06 0 0 1 .06.06v.414a.06.06 0 0 1-.06.06H8.743c.032.758.668 1.442 1.909 2.05H5.894c.426-.687.86-1.37 1.3-2.05H5.56a.06.06 0 0 1-.061-.06v-.414a.06.06 0 0 1 .06-.06h1.984Z" clip-rule="evenodd"/></g><defs><clipPath id="a"><path fill="#fff" d="M0 0h24v24H0z"/></clipPath></defs></svg>