<svg xmlns="http://www.w3.org/2000/svg" fill="none" viewBox="0 0 24 24"><path fill="#3555F9" d="M12 22c5.523 0 10-4.477 10-10S17.523 2 12 2 2 6.477 2 12s4.477 10 10 10"/><path fill="#fff" d="M10.975 6.142c.531-.099 1.075-.088 1.613-.06.62.072 1.24.202 1.81.458a6.03 6.03 0 0 1 2.765 2.331c.246.358.41.76.576 1.158.154-.245.292-.5.425-.757a.35.35 0 0 1 .32-.207.364.364 0 0 1 .39.319c.015.15-.08.28-.141.41a7.6 7.6 0 0 1-.708 1.112c-.048.05-.028.122-.022.185.29 1.71-.262 3.53-1.438 4.82a6.1 6.1 0 0 1-2.486 1.668 6.2 6.2 0 0 1-3.445.203 6.1 6.1 0 0 1-3.933-2.884c-.182-.292-.297-.617-.44-.927-.157.24-.29.494-.422.746a.4.4 0 0 1-.332.222c-.238 0-.454-.257-.359-.485.205-.47.486-.907.8-1.315.068-.07.058-.17.046-.258a5.7 5.7 0 0 1 .1-2.26C6.575 8.545 8.3 6.81 10.39 6.27c.193-.046.387-.094.584-.127M9.499 7.398a5.35 5.35 0 0 0-2.463 2.708 5.3 5.3 0 0 0-.362 2.186q.176-.132.335-.285c.622-.555 1.35-.985 2.111-1.328 1.414-.643 2.972-.92 4.52-.995-.524-.542-1.091-1.043-1.614-1.585.165-.182.343-.349.522-.517.203.184.39.384.59.572.643.64 1.306 1.262 1.94 1.912-.675.673-1.368 1.329-2.043 2.002a2 2 0 0 1-.179.151c-.17-.17-.367-.32-.504-.521.415-.436.888-.817 1.286-1.267-.714.01-1.424.11-2.122.25-.565.1-1.107.29-1.65.473-1.134.425-2.181 1.102-2.98 2.008-.047.047-.04.117-.027.175.094.406.272.784.467 1.15a5.35 5.35 0 0 0 3.035 2.463 5.4 5.4 0 0 0 5.243-1.124c1.165-1.027 1.82-2.593 1.719-4.13-.124.096-.234.205-.349.308a8.4 8.4 0 0 1-2.652 1.542 12.4 12.4 0 0 1-3.954.749c.117.154.262.283.399.42.403.392.8.79 1.21 1.176-.158.185-.341.347-.515.517-.175-.142-.325-.307-.488-.462-.608-.59-1.21-1.188-1.818-1.78a2 2 0 0 1-.232-.25c.264-.283.566-.527.835-.803.463-.447.913-.907 1.381-1.348.175.17.359.332.514.52-.416.432-.859.838-1.28 1.263.462.023.918-.056 1.377-.1.33-.035.657-.11.983-.178 1.678-.387 3.313-1.184 4.44-2.497-.432-1.866-2.018-3.4-3.905-3.834-1.257-.32-2.627-.138-3.77.46"/></svg>