<svg xmlns="http://www.w3.org/2000/svg" fill="none" viewBox="0 0 24 24"><g clip-path="url(#a)"><path fill="#F49352" d="M12 24c6.627 0 12-5.373 12-12S18.627 0 12 0 0 5.373 0 12s5.373 12 12 12"/><path fill="#fff" fill-rule="evenodd" d="M9.793 7.55a1.017 1.017 0 0 1-1.008-1.024c0-.566.451-1.026 1.008-1.026.558 0 1.01.459 1.01 1.026S10.35 7.55 9.793 7.55m4.448 10.95a1.016 1.016 0 0 1-1.01-1.026c0-.565.453-1.025 1.01-1.025s1.01.46 1.01 1.025c0 .567-.453 1.026-1.01 1.026m-4.034-7.664a.897.897 0 0 1-1.27-.172.93.93 0 0 1 .169-1.29l4.652-3.616a.897.897 0 0 1 1.271.172.93.93 0 0 1-.169 1.292zm.035 3.685a.897.897 0 0 1-1.27-.172.93.93 0 0 1 .168-1.291l4.653-3.615a.897.897 0 0 1 1.27.172.93.93 0 0 1-.168 1.291zm0 3.79a.896.896 0 0 1-1.27-.173.93.93 0 0 1 .168-1.292l4.653-3.614a.897.897 0 0 1 1.27.172.93.93 0 0 1-.168 1.29z" clip-rule="evenodd"/></g><defs><clipPath id="a"><path fill="#fff" d="M0 0h24v24H0z"/></clipPath></defs></svg>