<svg xmlns="http://www.w3.org/2000/svg" fill="none" viewBox="0 0 24 24"><g clip-path="url(#a)"><path fill="#F49352" d="M12 24c6.627 0 12-5.373 12-12S18.627 0 12 0 0 5.373 0 12s5.373 12 12 12Z"/><path fill="#fff" fill-rule="evenodd" d="M9.793 7.55a1.017 1.017 0 0 1-1.009-1.024c0-.566.452-1.026 1.01-1.026.557 0 1.008.459 1.008 1.026S10.351 7.55 9.793 7.55ZM14.24 18.5a1.016 1.016 0 0 1-1.008-1.026c0-.565.451-1.025 1.008-1.025.558 0 1.01.46 1.01 1.025 0 .567-.452 1.026-1.01 1.026Zm-4.033-7.664a.896.896 0 0 1-1.27-.172.93.93 0 0 1 .168-1.29l4.653-3.616a.897.897 0 0 1 1.27.172.93.93 0 0 1-.168 1.292l-4.653 3.614Zm.035 3.685a.897.897 0 0 1-1.271-.172.93.93 0 0 1 .169-1.291l4.652-3.615a.897.897 0 0 1 1.271.172.931.931 0 0 1-.169 1.291l-4.652 3.615Zm0 3.79a.897.897 0 0 1-1.271-.173.93.93 0 0 1 .169-1.292l4.652-3.614a.897.897 0 0 1 1.271.172.931.931 0 0 1-.169 1.29l-4.652 3.616Z" clip-rule="evenodd"/></g><defs><clipPath id="a"><path fill="#fff" d="M0 0h24v24H0z"/></clipPath></defs></svg>