<svg xmlns="http://www.w3.org/2000/svg" fill="none" viewBox="0 0 24 24"><g clip-path="url(#a)"><path fill="#FFD800" d="M12 24c6.627 0 12-5.373 12-12S18.627 0 12 0 0 5.373 0 12s5.373 12 12 12Z"/><path fill="#fff" fill-rule="evenodd" d="M16.654 10.16c.033-.034.1-.034.166-.034.996 0 1.793.844 1.793 1.857 0 .946-.697 1.689-1.594 1.857h-.2c-.332 0-.664-.101-.963-.27a.555.555 0 0 0-.332-.101.662.662 0 0 0-.365.101c-.233.135-.332.372-.332.642v.303a1.82 1.82 0 0 1-1.595 1.655h-.199c-.332 0-.664-.101-.963-.27a.748.748 0 0 0-.365-.101.664.664 0 0 0-.366.101c-.232.135-.332.372-.332.642v.303c-.066.879-.764 1.554-1.628 1.655h-.166c-.997 0-1.794-.844-1.794-1.857.033-.946.698-1.722 1.595-1.824h.2c.331 0 .663.102.963.27a.555.555 0 0 0 .332.102.662.662 0 0 0 .365-.101c.233-.136.332-.372.332-.642-.066-.979.632-1.857 1.595-1.958H13c.332 0 .664.1.963.27a.75.75 0 0 0 .366.101.662.662 0 0 0 .365-.101c.232-.135.332-.372.332-.642-.066-.979.664-1.857 1.628-1.958Zm-3.82-2.33c.067-.034.1-.034.2-.034.996 0 1.793.844 1.793 1.857-.033.946-.697 1.722-1.594 1.823h-.2c-.332 0-.664-.1-.963-.27a.555.555 0 0 0-.332-.1.66.66 0 0 0-.365.1c-.233.136-.333.372-.333.642v.304c-.066.877-.763 1.553-1.627 1.654h-.166c-.996 0-1.794-.843-1.794-1.857 0-.911.665-1.654 1.561-1.79h.2c.332 0 .664.102.963.271a.555.555 0 0 0 .332.101.662.662 0 0 0 .365-.101c.233-.135.332-.372.332-.642-.066-.979.665-1.857 1.628-1.958ZM9.18 5.5c.99 0 1.794.817 1.794 1.824 0 1.006-.804 1.822-1.794 1.822S7.386 8.33 7.386 7.324c0-1.007.804-1.824 1.794-1.824Z" clip-rule="evenodd"/></g><defs><clipPath id="a"><path fill="#fff" d="M0 0h24v24H0z"/></clipPath></defs></svg>