<svg xmlns="http://www.w3.org/2000/svg" fill="none" viewBox="0 0 24 24"><path fill="currentColor" d="M16.867 17.356c.158-.19.19-.485.105-.77l-.476-1.36c.875-.664 1.907-1.52 2.907-2.722 3.57-4.42 1.973-9.711 1.9-9.88a.892.892 0 0 0-.697-.579c-.18-.042-3.363-.334-6.482 1.356l-.053.063a9.805 9.805 0 0 0-2.823 2.364c-1 1.203-1.716 2.32-2.2 3.418l-1.37-.284c-.296-.031-.58.053-.739.243l-3.696 3.672c-.211.254-.295.612-.21.897.01.116.137.22.263.326.127.106.37.2.485.19l4.966-.047.116-.01.063.052s.696-.064 1.519.62c.886.738.94 1.317.94 1.317.01.116.02.232.094.4l.9 4.712c.022.232.149.337.275.443.127.105.19.158.37.2.358.084.695-.064.842-.37l3.001-4.251Zm2.95-13.718c.127.748.318 2.192-.05 3.922L15.97 4.4c1.633-.676 3.088-.75 3.847-.762Zm-11.99 6.947.59.063a15.66 15.66 0 0 0-.41 1.909l-2.224-.03 2.043-1.941Zm1.836 2.17c.136-1.064.64-3.215 2.851-5.874.58-.696 1.232-1.224 1.949-1.7L19.4 9.29a7.89 7.89 0 0 1-1.316 2.225c-2.21 2.659-4.234 3.546-5.256 3.874-.222-.506-.623-1.053-1.32-1.633-.696-.579-1.371-.926-1.845-1Zm3.482 4.182a15.69 15.69 0 0 0 1.802-.75l.233.622-1.653 2.374-.382-2.245ZM5 19.907c-.38-.316-.422-.78-.106-1.16l2.737-3.29c.316-.38.78-.423 1.16-.107.38.316.422.78.106 1.16L6.16 19.8c-.264.317-.844.37-1.16.107Zm2.951-.33c-.38-.315-.422-.779-.106-1.159l1.369-1.646c.316-.38.78-.422 1.16-.106.38.316.422.78.106 1.16L9.11 19.47a.825.825 0 0 1-1.16.107Z"/></svg>