<svg xmlns="http://www.w3.org/2000/svg" fill="none" viewBox="0 0 24 24"><path fill="#62757E" fill-rule="evenodd" d="M16.717 7.622a2.906 2.906 0 1 1-4.11 4.11 2.906 2.906 0 0 1 4.11-4.11m-1.12 2.989a1.321 1.321 0 1 0-1.869-1.869 1.321 1.321 0 0 0 1.868 1.868" clip-rule="evenodd"/><path fill="#62757E" fill-rule="evenodd" d="M19.738 3.01a1.427 1.427 0 0 1 1.59 1.59l-.542 4.413a7.13 7.13 0 0 1-3.77 5.45l-1.246.652c.42 2.56-.666 4.304-1.84 5.371a7.6 7.6 0 0 1-2.406 1.465l-.016.005-.005.002h-.002s-.002.001-.252-.75l.25.751a.792.792 0 0 1-1.027-.596l-.708-3.539a.8.8 0 0 1-.145-.115l-2.82-2.82-3.5-.7a.793.793 0 0 1-.597-1.027v-.002l.001-.002.002-.005.005-.015a3 3 0 0 1 .083-.217 7.6 7.6 0 0 1 1.382-2.19c1.002-1.102 2.6-2.127 4.911-1.9l.79-1.508a7.13 7.13 0 0 1 5.45-3.77zm-.008 1.6-4.21.517a5.55 5.55 0 0 0-4.24 2.932l-3.117 5.954 2.164 2.164 5.954-3.118a5.55 5.55 0 0 0 2.932-4.238zm-8.424 12.844 2.96-1.55c.103 1.61-.609 2.69-1.402 3.41-.351.32-.718.566-1.036.749zM8.271 10.39c-1.344.053-2.277.698-2.923 1.408-.32.351-.566.718-.748 1.037l2.164.432z" clip-rule="evenodd"/><path fill="#62757E" d="m3.45 20.388.751-.25zv-.002l-.002-.004-.003-.01-.009-.029-.028-.096a5.6 5.6 0 0 1-.186-1.417c0-.87.219-2.04 1.167-2.989a.793.793 0 0 1 1.12 1.121c-.545.546-.701 1.243-.701 1.868a4 4 0 0 0 .054.648c.18.03.402.054.648.054.625 0 1.322-.156 1.868-.702a.793.793 0 0 1 1.12 1.12c-.947.95-2.119 1.167-2.988 1.167a5.6 5.6 0 0 1-1.513-.213l-.03-.01-.009-.002-.004-.002h-.002a.8.8 0 0 1-.502-.502"/></svg>