<svg xmlns="http://www.w3.org/2000/svg" fill="none" viewBox="0 0 24 24"><path fill="currentColor" fill-rule="evenodd" d="M21.167 17.667a.834.834 0 0 1-.834-.834V7.667h-15a.834.834 0 0 1 0-1.667h15.834c.46 0 .833.373.833.833v10c0 .46-.373.834-.833.834ZM19.5 9.333v10c0 .46-.373.834-.833.834H2.833A.834.834 0 0 1 2 19.333v-10c0-.46.373-.833.833-.833h15.834c.46 0 .833.373.833.833Zm-1.667.834H3.667V18.5h14.166v-8.333ZM4.815 15.852l1.355-.729c-.436-.351-.625-1.075-.625-1.415v-.627c0-.833.766-1.248 1.457-1.248.689 0 1.46.415 1.46 1.248v.627c0 .374-.2 1.076-.634 1.418l1.36.726s.312.129.312.312v.355c0 .173-.14.313-.312.313H4.815a.312.312 0 0 1-.312-.313v-.355c0-.172.312-.312.312-.312Zm6.352-4.019h5a.834.834 0 0 1 0 1.667h-5a.834.834 0 0 1 0-1.667Zm0 2.5H14.5a.834.834 0 0 1 0 1.667h-3.333a.834.834 0 0 1 0-1.667Z" clip-rule="evenodd"/></svg>