<svg xmlns="http://www.w3.org/2000/svg" fill="none" viewBox="0 0 24 24"><path fill="#62757E" fill-rule="evenodd" d="M2.008 7.023A2.883 2.883 0 0 1 4.89 4.141h14.218a2.883 2.883 0 0 1 2.883 2.882v9.954a2.883 2.883 0 0 1-2.883 2.882H4.891a2.883 2.883 0 0 1-2.883-2.882zM4.89 5.641c-.764 0-1.383.619-1.383 1.382v9.954c0 .763.619 1.382 1.383 1.382h14.218c.764 0 1.383-.619 1.383-1.382V7.023c0-.763-.619-1.382-1.383-1.382zM8.8 8.484a1.027 1.027 0 1 0 0 2.055 1.027 1.027 0 0 0 0-2.055M6.273 9.512a2.527 2.527 0 1 1 5.055 0 2.527 2.527 0 0 1-5.055 0m7.82-.356a.75.75 0 0 1 .75-.75h3.555a.75.75 0 1 1 0 1.5h-3.554a.75.75 0 0 1-.75-.75m0 2.844a.75.75 0 0 1 .75-.75h3.555a.75.75 0 1 1 0 1.5h-3.554a.75.75 0 0 1-.75-.75m-7.26 3.163a5.6 5.6 0 0 0 1.968.353c.693 0 1.356-.125 1.968-.353a2.45 2.45 0 0 0-1.968-.991 2.45 2.45 0 0 0-1.969.991m-1.74.096a3.95 3.95 0 0 1 7.416 0 .75.75 0 0 1-.352.921 7.1 7.1 0 0 1-3.356.836 7.1 7.1 0 0 1-3.357-.836.75.75 0 0 1-.351-.92m9-.415a.75.75 0 0 1 .75-.75h3.555a.75.75 0 1 1 0 1.5h-3.554a.75.75 0 0 1-.75-.75" clip-rule="evenodd"/></svg>