<svg xmlns="http://www.w3.org/2000/svg" fill="none" viewBox="0 0 24 24"><path fill="#62757E" fill-rule="evenodd" d="M10.122 1.76a.8.8 0 0 0 0 1.132L11.24 4.01a8.995 8.995 0 1 0 3.47 17.084.8.8 0 1 0-.696-1.441 7.394 7.394 0 1 1-2.383-14.007l-1.51 1.51a.8.8 0 1 0 1.131 1.132l2.699-2.699a.8.8 0 0 0 0-1.131L11.253 1.76a.8.8 0 0 0-1.131 0m5.4 6.554a1.8 1.8 0 0 1 2.546 0l3.394 3.394a1.8 1.8 0 0 1 0 2.546l-3.394 3.394a1.8 1.8 0 0 1-2.546 0l-3.394-3.394a1.8 1.8 0 0 1 0-2.546zm1.415 1.131a.2.2 0 0 0-.283 0L13.26 12.84a.2.2 0 0 0 0 .283l3.394 3.394a.2.2 0 0 0 .283 0l3.394-3.394a.2.2 0 0 0 0-.283z" clip-rule="evenodd"/></svg>