<svg xmlns="http://www.w3.org/2000/svg" fill="none" viewBox="0 0 24 24"><path fill="#62757E" d="M11.253 1.76a.8.8 0 1 0-1.13 1.131l1.12 1.12a8.99 8.99 0 0 0-8.82 5.71A8.995 8.995 0 0 0 14.71 21.093a.8.8 0 1 0-.695-1.44 7.4 7.4 0 0 1-6.809-.196 7.394 7.394 0 0 1 4.426-13.81l-1.51 1.51a.8.8 0 1 0 1.13 1.13L13.95 5.59a.8.8 0 0 0 0-1.131zm6.815 6.554a1.8 1.8 0 0 0-2.546 0l-3.394 3.394a1.8 1.8 0 0 0 0 2.546l3.395 3.394a1.8 1.8 0 0 0 2.545 0l3.394-3.394a1.8 1.8 0 0 0 0-2.546zm-1.415 1.131a.2.2 0 0 1 .284 0l3.394 3.394a.2.2 0 0 1 0 .284l-3.395 3.393a.2.2 0 0 1-.283 0l-3.393-3.393a.2.2 0 0 1 0-.284z"/></svg>