<svg xmlns="http://www.w3.org/2000/svg" fill="none" viewBox="0 0 24 24"><g clip-path="url(#a)"><path fill="#8D181B" d="M12 24c6.627 0 12-5.373 12-12S18.627 0 12 0 0 5.373 0 12s5.373 12 12 12"/><path fill="#fff" d="M18.13 11.821c.48 0 .87.38.87.85s-.39.85-.87.85a.87.87 0 0 1-.807-.536h-2.48l-.915 1.626c-.15.268-.563.189-.6-.114l-.205-1.738-.76 5.636c-.05.374-.611.357-.637-.02l-.623-9.112-.66 6.036c-.04.36-.569.379-.634.022l-.698-3.837-.323 1.263a.32.32 0 0 1-.31.238H5.32A.317.317 0 0 1 5 12.67c0-.173.143-.313.32-.313h2.907l.626-2.447c.084-.328.565-.312.626.021l.566 3.113.813-7.432c.042-.38.612-.37.638.012l.654 9.56.676-5.016c.05-.366.593-.362.636.005l.388 3.277.523-.931a.32.32 0 0 1 .28-.162h2.67a.87.87 0 0 1 .808-.537"/></g><defs><clipPath id="a"><path fill="#fff" d="M0 0h24v24H0z"/></clipPath></defs></svg>