<svg xmlns="http://www.w3.org/2000/svg" fill="none" viewBox="0 0 24 24"><path fill="#62757E" fill-rule="evenodd" d="M4.385 17.545V6.455a2.07 2.07 0 0 1 2.07-2.07h11.09a2.07 2.07 0 0 1 2.07 2.07v11.09a2.07 2.07 0 0 1-2.07 2.07H6.456a2.07 2.07 0 0 1-2.07-2.07ZM6.455 3A3.454 3.454 0 0 0 3 6.455v11.09A3.454 3.454 0 0 0 6.455 21h11.09A3.454 3.454 0 0 0 21 17.545V6.455A3.454 3.454 0 0 0 17.545 3H6.455Zm.113 4.203a.579.579 0 0 0-.579.578v.386c0 .32.26.579.579.579h.193a8.485 8.485 0 0 1 8.485 8.485v.193c0 .32.26.579.58.579h.385c.32 0 .578-.26.578-.579v-.193c0-5.538-4.49-10.028-10.028-10.028h-.193Zm-.579 4.435c0-.32.26-.578.579-.578h.193a6.171 6.171 0 0 1 6.171 6.171v.193c0 .32-.259.579-.578.579h-.386a.579.579 0 0 1-.579-.579v-.193a4.629 4.629 0 0 0-4.628-4.628h-.193a.579.579 0 0 1-.579-.579v-.386Zm1.543 6.365a1.543 1.543 0 1 0 0-3.086 1.543 1.543 0 0 0 0 3.086Z" clip-rule="evenodd"/></svg>