<svg xmlns="http://www.w3.org/2000/svg" fill="none" viewBox="0 0 24 24"><path fill="#62757E" fill-rule="evenodd" d="M4 4.866C4 4.388 4.388 4 4.866 4h.714C13.544 4 20 10.456 20 18.42v.714a.866.866 0 1 1-1.732 0v-.714c0-7.007-5.68-12.688-12.688-12.688h-.714A.866.866 0 0 1 4 4.866m0 6.42c0-.478.388-.866.866-.866h.714a8 8 0 0 1 8 8v.714a.866.866 0 1 1-1.733 0v-.714a6.27 6.27 0 0 0-6.267-6.267h-.714A.866.866 0 0 1 4 11.287m0 7.134a1.58 1.58 0 1 1 3.16 0 1.58 1.58 0 0 1-3.16 0" clip-rule="evenodd"/></svg>