<svg xmlns="http://www.w3.org/2000/svg" fill="none" viewBox="0 0 24 24"><g clip-path="url(#a)"><path fill="#384182" d="M12 24c6.627 0 12-5.373 12-12S18.627 0 12 0 0 5.373 0 12s5.373 12 12 12Z"/><path fill="#fff" fill-rule="evenodd" d="m7.862 19 2.303-10.684 1.292 8.018L7.861 19ZM10.21 8.255l3.498 8.088-2.19-.039-1.308-8.05v.001Zm.052-.061 4.582.65-1.061 7.499-3.52-8.15Zm3.602 8.033 1.033-7.313.676.857-1.709 6.456Zm.966-7.451-4.472-.636 4.026-1.325.446 1.96Zm-4.493-.705 2.74-1.9 1.307.575-4.047 1.325Zm-.068-.023.529-1.011 2.234-.896-2.763 1.907Zm.529-1.056.252-.79 1.841-.061-2.093.85Zm.237-.851.594-.636 1.277.575-1.871.061Zm.631-.674.891-.436 1.152 1.347-2.043-.91Zm1.018-.383 1.33.582-.239.72-1.091-1.302Zm1.136 1.325.245-.735.297 1.011-.542-.276ZM12.586 5h.973l.482.536a.03.03 0 0 1-.014.05.03.03 0 0 1-.02-.002L12.585 5Zm1.537.613 1.98.552c.01.003.018.008.025.016a.046.046 0 0 1-.025.073l-1.682.462-.297-1.103Z" clip-rule="evenodd"/></g><defs><clipPath id="a"><path fill="#fff" d="M0 0h24v24H0z"/></clipPath></defs></svg>