<svg xmlns="http://www.w3.org/2000/svg" fill="none" viewBox="0 0 24 24"><g clip-path="url(#a)"><path fill="#3D58B0" d="M12 24c6.627 0 12-5.373 12-12S18.627 0 12 0 0 5.373 0 12s5.373 12 12 12"/><path fill="#fff" d="M12 5c-3.86 0-7 3.14-7 7 0 3.861 3.14 7 7 7 3.861 0 7-3.14 7-7s-3.14-7-7-7m0 .953a6.04 6.04 0 0 1 6.047 6.048 6.04 6.04 0 0 1-6.046 6.046 6.04 6.04 0 0 1-6.048-6.046 6.04 6.04 0 0 1 6.048-6.048"/><path fill="#fff" d="M9.4 9.415v5.17h5.2v-5.17zm.847.847h3.507v3.475h-3.507z"/></g><defs><clipPath id="a"><path fill="#fff" d="M0 0h24v24H0z"/></clipPath></defs></svg>