<svg xmlns="http://www.w3.org/2000/svg" fill="none" viewBox="0 0 26 26"><path fill="#000" d="M24.484 13.666c0 3.02-1.245 5.915-3.463 8.05s-5.224 3.335-8.36 3.335-6.143-1.2-8.36-3.334C2.084 19.58.838 16.686.838 13.667S2.084 7.75 4.301 5.615 9.525 2.28 12.66 2.28s6.143 1.2 8.36 3.335c2.218 2.135 3.463 5.03 3.463 8.05" opacity=".53"/><path fill="url(#a)" stroke="#CDCDCD" stroke-linecap="round" stroke-linejoin="round" stroke-width=".754" d="M24.934 12.66a12.273 12.273 0 1 1-24.546 0 12.273 12.273 0 0 1 24.546 0"/><path fill="url(#b)" d="M23.973 12.66a11.312 11.312 0 1 1-22.624 0 11.312 11.312 0 0 1 22.624 0"/><path fill="#F4F2F3" d="M12.66 1.939a.164.164 0 0 0-.164.165v1.902a.165.165 0 1 0 .33 0V2.104a.165.165 0 0 0-.165-.165m-1.078.068h-.034a.164.164 0 0 0-.146.181l.083.796a.165.165 0 1 0 .328-.034l-.083-.796a.164.164 0 0 0-.148-.147m2.165.001a.164.164 0 0 0-.147.147l-.084.796a.165.165 0 0 0 .21.175.17.17 0 0 0 .118-.14l.084-.797a.165.165 0 0 0-.18-.181m-3.273.16a.165.165 0 0 0-.16.199l.393 1.861a.16.16 0 0 0 .071.104.165.165 0 0 0 .252-.172l-.394-1.861a.165.165 0 0 0-.162-.131m4.381.001a.164.164 0 0 0-.162.131L14.3 4.16a.164.164 0 0 0 .127.197.164.164 0 0 0 .196-.127l.395-1.861a.165.165 0 0 0-.16-.2m-5.44.297a.165.165 0 0 0-.171.215l.248.762a.165.165 0 1 0 .314-.102l-.247-.761a.16.16 0 0 0-.143-.114m6.492 0a.16.16 0 0 0-.142.114l-.248.761a.16.16 0 0 0 .05.176.165.165 0 0 0 .264-.074l.247-.761a.165.165 0 0 0-.17-.215M8.37 2.85a.165.165 0 0 0-.148.232l.773 1.738a.165.165 0 1 0 .301-.134l-.772-1.738a.17.17 0 0 0-.154-.098m8.595.006a.17.17 0 0 0-.154.098l-.775 1.737a.164.164 0 0 0 .146.232.17.17 0 0 0 .155-.098l.775-1.737a.164.164 0 0 0-.083-.218.2.2 0 0 0-.064-.014m-9.566.508a.16.16 0 0 0-.142.064.16.16 0 0 0-.012.183l.4.693a.165.165 0 1 0 .286-.165l-.4-.693a.17.17 0 0 0-.132-.082m10.523 0a.16.16 0 0 0-.13.082l-.4.693a.165.165 0 1 0 .285.165l.4-.693a.165.165 0 0 0-.155-.247M6.457 3.95a.165.165 0 0 0-.127.261l1.117 1.54a.165.165 0 1 0 .267-.193l-1.118-1.54a.16.16 0 0 0-.139-.068m12.421.008a.16.16 0 0 0-.14.068L17.62 5.565a.16.16 0 0 0-.03.123.16.16 0 0 0 .125.135.16.16 0 0 0 .172-.064l1.119-1.538a.165.165 0 0 0-.128-.262m-13.263.698a.16.16 0 0 0-.158.094.17.17 0 0 0 .026.181l.536.595a.165.165 0 1 0 .245-.22l-.535-.595a.16.16 0 0 0-.114-.055m14.095.001a.17.17 0 0 0-.114.055l-.535.595a.164.164 0 0 0 .012.233.164.164 0 0 0 .233-.013l.535-.594a.16.16 0 0 0 .043-.12.16.16 0 0 0-.055-.113.16.16 0 0 0-.119-.043m-14.903.775a.165.165 0 0 0-.102.288l1.414 1.272a.164.164 0 0 0 .266-.067.16.16 0 0 0-.045-.178L4.925 5.475a.16.16 0 0 0-.119-.042m15.715.006a.16.16 0 0 0-.12.042l-1.414 1.272a.164.164 0 0 0 .101.287.17.17 0 0 0 .12-.042l1.414-1.272a.164.164 0 0 0-.101-.287m-16.387.858a.164.164 0 0 0-.146.25.2.2 0 0 0 .044.048l.647.47a.164.164 0 0 0 .26-.159.17.17 0 0 0-.066-.107l-.647-.47a.17.17 0 0 0-.092-.032m17.058.006a.17.17 0 0 0-.091.031l-.648.47a.16.16 0 0 0-.064.172.166.166 0 0 0 .199.122.2.2 0 0 0 .058-.027l.648-.47a.17.17 0 0 0 .064-.172.166.166 0 0 0-.166-.126m-17.685.915a.164.164 0 0 0-.152.143.17.17 0 0 0 .08.164l1.648.952a.165.165 0 0 0 .214-.244.2.2 0 0 0-.049-.042L3.601 7.24a.17.17 0 0 0-.094-.022m18.308 0a.16.16 0 0 0-.094.022l-1.648.95a.164.164 0 0 0 .104.307.2.2 0 0 0 .061-.02l1.648-.952a.164.164 0 0 0 .06-.225.17.17 0 0 0-.131-.082M3.032 8.2a.164.164 0 0 0-.157.224.16.16 0 0 0 .087.091l.73.326a.165.165 0 1 0 .135-.3l-.73-.327a.2.2 0 0 0-.065-.014m19.26.007a.2.2 0 0 0-.064.014l-.73.325a.164.164 0 0 0-.084.218.165.165 0 0 0 .218.084l.73-.326a.164.164 0 0 0 .084-.217.16.16 0 0 0-.153-.098M2.61 9.227a.164.164 0 0 0-.093.289.2.2 0 0 0 .056.031l1.809.59a.165.165 0 1 0 .102-.314l-1.808-.59a.2.2 0 0 0-.066-.007m20.106.006a.2.2 0 0 0-.065.008l-1.81.588a.165.165 0 1 0 .102.313l1.81-.588a.165.165 0 0 0-.037-.32m-20.37 1.07a.164.164 0 0 0-.162.195.16.16 0 0 0 .128.132l.782.166a.16.16 0 0 0 .124-.023.16.16 0 0 0 .073-.168.16.16 0 0 0-.128-.132l-.783-.166zm20.631.002-.033.003-.783.167a.16.16 0 0 0-.128.13.16.16 0 0 0 .026.124.16.16 0 0 0 .17.068l.783-.166a.164.164 0 0 0 .128-.196.164.164 0 0 0-.163-.13m-20.83 1.082a.165.165 0 0 0 0 .328l1.89.2a.17.17 0 0 0 .163-.085.165.165 0 0 0-.127-.243l-1.892-.2zm21.031.014h-.034l-1.892.198a.165.165 0 1 0 .035.328l1.892-.198a.165.165 0 0 0-.001-.328M2.114 12.496a.165.165 0 1 0 0 .33h.8a.16.16 0 0 0 .153-.102.165.165 0 0 0-.152-.228zm20.293 0a.165.165 0 1 0 0 .33h.8a.16.16 0 0 0 .153-.102.165.165 0 0 0-.153-.228zm-18.338.9h-.033l-1.892.197a.165.165 0 1 0 .034.328l1.892-.198a.16.16 0 0 0 .111-.06.164.164 0 0 0-.012-.22.17.17 0 0 0-.1-.048m17.182.01a.164.164 0 0 0-.112.269.17.17 0 0 0 .111.06l1.892.2a.16.16 0 0 0 .162-.085.165.165 0 0 0-.128-.243l-1.891-.2zM3.126 14.522l-.033.003-.783.167a.16.16 0 0 0-.128.131.165.165 0 0 0 .197.191l.783-.166a.16.16 0 0 0 .104-.071.165.165 0 0 0-.14-.255m19.07.002a.164.164 0 0 0-.163.13.164.164 0 0 0 .127.196l.783.166a.164.164 0 0 0 .195-.127.164.164 0 0 0-.127-.195l-.782-.167zm-17.752.65a.2.2 0 0 0-.065.007l-1.809.588a.164.164 0 0 0-.024.304.17.17 0 0 0 .126.01l1.81-.589a.165.165 0 0 0-.038-.32m16.432.005a.166.166 0 0 0-.134.24.17.17 0 0 0 .096.081l1.81.59a.16.16 0 0 0 .176-.05.17.17 0 0 0 .021-.182.17.17 0 0 0-.096-.082l-1.808-.59a.2.2 0 0 0-.066-.007M3.753 16.46a.2.2 0 0 0-.064.014l-.731.326a.165.165 0 1 0 .134.301l.731-.325a.165.165 0 0 0-.07-.316m17.811.006a.165.165 0 0 0-.07.316l.73.326a.164.164 0 0 0 .218-.084.17.17 0 0 0-.03-.18.2.2 0 0 0-.053-.037l-.731-.326a.2.2 0 0 0-.064-.015m-16.388.358a.16.16 0 0 0-.094.022l-1.647.95a.17.17 0 0 0-.081.165.165.165 0 0 0 .246.121l1.647-.95a.164.164 0 0 0-.07-.308m14.967 0a.16.16 0 0 0-.131.082.17.17 0 0 0 .012.183q.02.026.048.042l1.648.951a.165.165 0 1 0 .165-.285l-1.648-.951a.16.16 0 0 0-.094-.022M4.766 18.22a.16.16 0 0 0-.09.031l-.649.47a.164.164 0 0 0 .011.274.16.16 0 0 0 .183-.007l.648-.47a.164.164 0 0 0 .037-.23.17.17 0 0 0-.14-.068m15.785.005a.16.16 0 0 0-.139.068.17.17 0 0 0-.007.183.2.2 0 0 0 .044.047l.647.47a.16.16 0 0 0 .123.03.165.165 0 0 0 .07-.296l-.647-.47a.17.17 0 0 0-.09-.032m-14.318.057a.16.16 0 0 0-.119.042L4.7 19.596a.16.16 0 0 0-.046.178.165.165 0 0 0 .266.067l1.415-1.271a.16.16 0 0 0 .045-.178.17.17 0 0 0-.147-.11m12.851.005a.165.165 0 0 0-.101.287l1.413 1.273a.16.16 0 0 0 .182.026.166.166 0 0 0 .078-.22.2.2 0 0 0-.039-.051l-1.414-1.273a.16.16 0 0 0-.119-.042M7.575 19.495a.17.17 0 0 0-.139.068L6.317 21.1a.164.164 0 0 0 .095.257.16.16 0 0 0 .172-.063l1.119-1.538a.165.165 0 0 0-.128-.262m10.162.007a.165.165 0 0 0-.128.261l1.117 1.54a.164.164 0 0 0 .274-.01.17.17 0 0 0-.007-.183l-1.117-1.54a.17.17 0 0 0-.139-.068m-11.606.237a.17.17 0 0 0-.114.055l-.536.594a.165.165 0 1 0 .246.221l.535-.594a.165.165 0 0 0-.131-.276m13.059.001a.165.165 0 0 0-.131.275l.535.595a.16.16 0 0 0 .114.054.164.164 0 0 0 .164-.22.2.2 0 0 0-.033-.055l-.535-.594a.17.17 0 0 0-.114-.055m-10.052.66a.16.16 0 0 0-.154.097l-.775 1.738a.165.165 0 1 0 .302.134l.775-1.737a.164.164 0 0 0-.084-.218.2.2 0 0 0-.064-.014m7.035.004a.165.165 0 0 0-.148.232l.773 1.739a.165.165 0 1 0 .302-.134l-.773-1.739a.17.17 0 0 0-.154-.098m-8.397.533a.16.16 0 0 0-.131.082l-.4.693a.165.165 0 1 0 .285.165l.4-.693a.165.165 0 0 0-.154-.247m9.77 0a.16.16 0 0 0-.143.064.17.17 0 0 0-.012.183l.4.693a.164.164 0 0 0 .274.018.17.17 0 0 0 .012-.183l-.4-.693a.17.17 0 0 0-.131-.082m-6.682.025a.165.165 0 0 0-.163.13l-.395 1.861a.164.164 0 0 0 .127.196.17.17 0 0 0 .17-.068.2.2 0 0 0 .026-.06l.395-1.86a.165.165 0 0 0-.16-.2m3.588 0a.165.165 0 0 0-.16.2l.394 1.86a.166.166 0 0 0 .196.128.165.165 0 0 0 .127-.195l-.394-1.861a.164.164 0 0 0-.163-.131m-1.791.189a.16.16 0 0 0-.153.101.2.2 0 0 0-.012.063v1.903a.16.16 0 0 0 .102.152.165.165 0 0 0 .228-.152v-1.903a.165.165 0 0 0-.165-.165m-3.027.614a.17.17 0 0 0-.143.114l-.247.76a.165.165 0 1 0 .313.103l.248-.761a.165.165 0 0 0-.171-.216m6.053 0a.164.164 0 0 0-.171.215l.247.762a.16.16 0 0 0 .144.113.16.16 0 0 0 .12-.038.17.17 0 0 0 .05-.177l-.248-.761a.16.16 0 0 0-.142-.113m-4.061.424a.165.165 0 0 0-.148.147l-.084.796a.165.165 0 0 0 .268.146.17.17 0 0 0 .06-.111l.084-.796a.16.16 0 0 0-.085-.162.16.16 0 0 0-.095-.02m2.064.001h-.034a.165.165 0 0 0-.147.181l.083.796a.165.165 0 0 0 .292.087.17.17 0 0 0 .036-.12l-.083-.797a.164.164 0 0 0-.148-.147"/><g filter="url(#c)" opacity=".409"><path fill="#000" d="m20.39 6.064-9.023 5.242-5.705 8.982 8.346-6.182z"/></g><path fill="#FF5150" d="m13.954 14.015-2.587-2.709 9.175-6.171z"/><path fill="#F1F1F1" d="m13.954 14.015-2.586-2.709-6.589 8.88z"/><path fill="#000" d="m4.78 20.187 9.174-6.172 6.588-8.88z" opacity=".243"/><defs><radialGradient id="b" cx="0" cy="0" r="1" gradientTransform="translate(12.712 11.011)scale(12.2733)" gradientUnits="userSpaceOnUse"><stop stop-color="#06C2E7"/><stop offset=".25" stop-color="#0DB8EC"/><stop offset=".5" stop-color="#12AEF1"/><stop offset=".75" stop-color="#1F86F9"/><stop offset="1" stop-color="#107DDD"/></radialGradient><linearGradient id="a" x1="12.66" x2="12.66" y1="24.934" y2=".387" gradientUnits="userSpaceOnUse"><stop stop-color="#BDBDBD"/><stop offset="1" stop-color="#fff"/></linearGradient><filter id="c" width="25.948" height="25.444" x=".052" y=".454" color-interpolation-filters="sRGB" filterUnits="userSpaceOnUse"><feFlood flood-opacity="0" result="BackgroundImageFix"/><feBlend in="SourceGraphic" in2="BackgroundImageFix" result="shape"/><feGaussianBlur result="effect1_foregroundBlur_4868_17272" stdDeviation="2.73"/></filter></defs></svg>