<svg xmlns="http://www.w3.org/2000/svg" fill="none" viewBox="0 0 26 26"><path fill="#000" d="M24.484 13.666c0 3.02-1.245 5.915-3.463 8.05-2.217 2.136-5.224 3.335-8.36 3.335-3.135 0-6.143-1.2-8.36-3.335-2.217-2.135-3.463-5.03-3.463-8.05 0-3.02 1.246-5.915 3.463-8.05C6.518 3.48 9.526 2.28 12.661 2.28c3.136 0 6.143 1.2 8.36 3.335 2.218 2.135 3.463 5.03 3.463 8.05Z" opacity=".53"/><path fill="url(#a)" stroke="#CDCDCD" stroke-linecap="round" stroke-linejoin="round" stroke-width=".754" d="M24.934 12.66a12.273 12.273 0 1 1-24.547 0 12.273 12.273 0 0 1 24.547 0Z"/><path fill="url(#b)" d="M23.972 12.66a11.312 11.312 0 1 1-22.624 0 11.312 11.312 0 0 1 22.624 0Z"/><path fill="#F4F2F3" d="M12.66 1.939a.165.165 0 0 0-.164.165v1.902a.163.163 0 0 0 .101.153.165.165 0 0 0 .229-.153V2.104a.165.165 0 0 0-.165-.165Zm-1.078.068a.165.165 0 0 0-.18.181l.083.796a.165.165 0 1 0 .328-.034l-.084-.796a.165.165 0 0 0-.147-.147Zm2.165.001a.164.164 0 0 0-.148.147l-.083.796a.164.164 0 0 0 .085.162.164.164 0 0 0 .183-.017.165.165 0 0 0 .06-.11l.083-.797a.165.165 0 0 0-.18-.181Zm-3.274.16a.165.165 0 0 0-.16.199l.394 1.86a.164.164 0 0 0 .3.057.164.164 0 0 0 .023-.124l-.394-1.861a.165.165 0 0 0-.162-.131Zm4.382.001a.165.165 0 0 0-.162.131l-.395 1.86a.166.166 0 0 0 .068.171.165.165 0 0 0 .254-.102l.396-1.86a.163.163 0 0 0-.09-.183.165.165 0 0 0-.07-.016Zm-5.44.297a.165.165 0 0 0-.171.215l.248.762a.165.165 0 1 0 .314-.102l-.248-.761a.164.164 0 0 0-.142-.114Zm6.492 0a.164.164 0 0 0-.143.114l-.247.76a.163.163 0 0 0 .05.177.165.165 0 0 0 .264-.074l.247-.761a.167.167 0 0 0-.01-.126.164.164 0 0 0-.16-.09ZM8.37 2.85a.165.165 0 0 0-.148.232l.773 1.738a.164.164 0 0 0 .305-.008.165.165 0 0 0-.004-.126l-.772-1.738a.165.165 0 0 0-.154-.098Zm8.595.006a.165.165 0 0 0-.154.098l-.775 1.737a.164.164 0 0 0 .083.218.164.164 0 0 0 .218-.084l.775-1.737a.164.164 0 0 0-.083-.218.165.165 0 0 0-.064-.014Zm-9.566.508a.163.163 0 0 0-.142.064.165.165 0 0 0-.012.183l.4.693a.165.165 0 1 0 .285-.165l-.4-.693a.165.165 0 0 0-.131-.082Zm10.523 0a.164.164 0 0 0-.13.082l-.401.693a.167.167 0 0 0-.017.125.163.163 0 0 0 .077.1.165.165 0 0 0 .226-.06l.4-.693a.165.165 0 0 0-.155-.247ZM6.456 3.95a.165.165 0 0 0-.128.261l1.117 1.54a.165.165 0 1 0 .267-.194l-1.117-1.54a.164.164 0 0 0-.139-.067Zm12.42.008a.164.164 0 0 0-.138.068l-1.12 1.538a.166.166 0 0 0-.007.183.166.166 0 0 0 .227.055.164.164 0 0 0 .047-.044l1.12-1.538a.165.165 0 0 0-.128-.262Zm-13.262.698a.164.164 0 0 0-.158.094.164.164 0 0 0 .026.181l.536.595a.165.165 0 1 0 .245-.22l-.535-.595a.164.164 0 0 0-.114-.055Zm14.095.001a.165.165 0 0 0-.114.055l-.535.595a.164.164 0 0 0 .012.233.164.164 0 0 0 .233-.013l.535-.594a.163.163 0 0 0 .042-.12.163.163 0 0 0-.054-.113.165.165 0 0 0-.119-.043Zm-14.903.775a.165.165 0 0 0-.102.287l1.414 1.273a.165.165 0 1 0 .22-.245L4.926 5.475a.165.165 0 0 0-.119-.042Zm15.714.006a.164.164 0 0 0-.119.042l-1.414 1.272a.164.164 0 0 0 .101.287.165.165 0 0 0 .12-.042l1.414-1.272a.164.164 0 0 0-.04-.271.165.165 0 0 0-.062-.016Zm-16.386.858a.164.164 0 0 0-.166.126.165.165 0 0 0 .064.172l.647.47a.164.164 0 0 0 .238-.22.164.164 0 0 0-.044-.046l-.647-.47a.165.165 0 0 0-.092-.032Zm17.057.006a.165.165 0 0 0-.09.031l-.648.47a.163.163 0 0 0-.064.172.166.166 0 0 0 .199.122.165.165 0 0 0 .058-.027l.648-.47a.163.163 0 0 0 .064-.172.163.163 0 0 0-.088-.11.164.164 0 0 0-.079-.016Zm-17.684.915a.164.164 0 0 0-.152.143.165.165 0 0 0 .08.164l1.648.951a.165.165 0 1 0 .165-.285l-1.647-.95a.165.165 0 0 0-.094-.022Zm18.308 0a.163.163 0 0 0-.094.022l-1.648.95a.165.165 0 0 0 .104.307.165.165 0 0 0 .061-.02l1.648-.952a.164.164 0 0 0-.071-.307ZM3.032 8.2a.164.164 0 0 0-.168.16.165.165 0 0 0 .098.155l.73.326a.165.165 0 1 0 .135-.3l-.73-.327a.164.164 0 0 0-.065-.014Zm19.26.007a.165.165 0 0 0-.064.014l-.73.325a.164.164 0 0 0-.047.27.165.165 0 0 0 .18.032l.732-.326a.164.164 0 0 0 .083-.218.165.165 0 0 0-.154-.097ZM2.61 9.226a.165.165 0 0 0-.037.321l1.809.59a.165.165 0 1 0 .102-.314l-1.809-.59a.165.165 0 0 0-.065-.007Zm20.105.007a.16.16 0 0 0-.065.008l-1.809.588a.164.164 0 0 0-.106.208.167.167 0 0 0 .144.113.167.167 0 0 0 .064-.008l1.81-.588a.164.164 0 0 0 .105-.208.164.164 0 0 0-.142-.113Zm-20.368 1.07a.165.165 0 0 0-.036.327l.783.166a.164.164 0 0 0 .197-.191.165.165 0 0 0-.128-.132l-.783-.166a.162.162 0 0 0-.033-.004Zm20.63.002a.207.207 0 0 0-.033.003l-.783.167a.166.166 0 0 0-.104.071.166.166 0 0 0 .108.252.166.166 0 0 0 .064 0l.783-.167a.166.166 0 0 0 .104-.071.164.164 0 0 0-.034-.219.166.166 0 0 0-.105-.036Zm-20.83 1.082a.165.165 0 0 0 0 .328l1.89.2a.164.164 0 0 0 .182-.147.164.164 0 0 0-.146-.181l-1.892-.2a.17.17 0 0 0-.034 0Zm21.03.014a.151.151 0 0 0-.033 0l-1.892.198a.165.165 0 0 0-.087.292.167.167 0 0 0 .122.036l1.891-.198a.164.164 0 0 0 .1-.28.165.165 0 0 0-.1-.048ZM2.115 12.496a.165.165 0 1 0 0 .33h.8a.163.163 0 0 0 .153-.102.164.164 0 0 0-.153-.228h-.8Zm20.293 0a.165.165 0 1 0 0 .33h.8a.163.163 0 0 0 .152-.102.165.165 0 0 0-.152-.228h-.8Zm-18.338.899a.15.15 0 0 0-.033 0l-1.892.198a.165.165 0 0 0-.03.322c.02.006.042.008.064.006l1.892-.198a.165.165 0 0 0 0-.328Zm17.182.012a.164.164 0 0 0-.112.268.165.165 0 0 0 .11.06l1.893.2a.164.164 0 0 0 .18-.147.163.163 0 0 0-.084-.162.164.164 0 0 0-.062-.02l-1.891-.2a.17.17 0 0 0-.034 0ZM3.126 14.52a.162.162 0 0 0-.033.003l-.783.167a.163.163 0 0 0-.128.13.165.165 0 0 0 .197.192l.782-.166a.164.164 0 0 0 .07-.29.165.165 0 0 0-.105-.036Zm19.069.001a.164.164 0 0 0-.163.195.164.164 0 0 0 .128.132l.782.166a.164.164 0 0 0 .197-.191.165.165 0 0 0-.128-.132l-.783-.166a.162.162 0 0 0-.033-.003Zm-17.75.65a.16.16 0 0 0-.066.008l-1.809.588a.164.164 0 0 0-.024.304.166.166 0 0 0 .126.01l1.809-.589a.164.164 0 0 0-.037-.321Zm16.43.006a.165.165 0 0 0-.037.321l1.809.59a.165.165 0 1 0 .102-.314l-1.808-.59a.168.168 0 0 0-.066-.007ZM3.754 16.46a.164.164 0 0 0-.064.014l-.731.326a.163.163 0 0 0-.098.155.165.165 0 0 0 .232.146l.731-.325a.163.163 0 0 0 .098-.155.165.165 0 0 0-.168-.161Zm17.81.006a.165.165 0 0 0-.07.316l.731.326a.164.164 0 0 0 .232-.146.164.164 0 0 0-.098-.155l-.73-.326a.163.163 0 0 0-.064-.015Zm-16.387.358a.164.164 0 0 0-.094.021l-1.647.952a.164.164 0 0 0-.018.273.165.165 0 0 0 .183.012l1.647-.95a.164.164 0 0 0 .005-.284.165.165 0 0 0-.076-.024Zm14.967 0a.164.164 0 0 0-.148.207.165.165 0 0 0 .077.1l1.648.951a.166.166 0 0 0 .183-.012.164.164 0 0 0 .058-.173.165.165 0 0 0-.076-.1l-1.648-.951a.165.165 0 0 0-.094-.022ZM4.766 18.219a.165.165 0 0 0-.091.032l-.648.47a.164.164 0 0 0-.036.23.165.165 0 0 0 .23.037l.648-.47a.164.164 0 0 0 .036-.23.165.165 0 0 0-.139-.069Zm15.785.006a.163.163 0 0 0-.14.068.163.163 0 0 0-.006.183.167.167 0 0 0 .043.047l.648.47a.164.164 0 0 0 .257-.094.164.164 0 0 0-.063-.172l-.648-.47a.164.164 0 0 0-.091-.032Zm-14.318.057a.164.164 0 0 0-.119.042L4.7 19.596a.166.166 0 0 0-.045.177.165.165 0 0 0 .266.068l1.415-1.272a.166.166 0 0 0 .012-.232.164.164 0 0 0-.114-.055Zm12.851.005a.165.165 0 0 0-.101.287l1.413 1.273a.166.166 0 0 0 .182.026.166.166 0 0 0 .078-.22.161.161 0 0 0-.039-.051l-1.414-1.273a.166.166 0 0 0-.119-.043ZM7.575 19.494a.165.165 0 0 0-.139.067L6.317 21.1a.165.165 0 1 0 .267.194l1.119-1.539a.164.164 0 0 0-.037-.23.163.163 0 0 0-.09-.031Zm10.162.006a.165.165 0 0 0-.128.262l1.117 1.54a.165.165 0 1 0 .267-.194l-1.117-1.54a.164.164 0 0 0-.14-.067h.001Zm-11.606.238a.165.165 0 0 0-.114.055l-.536.594a.164.164 0 0 0 .068.266.164.164 0 0 0 .177-.045l.536-.595a.164.164 0 0 0-.012-.233.162.162 0 0 0-.12-.042Zm13.059 0a.162.162 0 0 0-.12.043.167.167 0 0 0-.054.114.164.164 0 0 0 .043.119l.535.595a.164.164 0 0 0 .287-.102.165.165 0 0 0-.042-.119l-.535-.595a.165.165 0 0 0-.114-.054Zm-10.052.66a.164.164 0 0 0-.154.098l-.775 1.738a.165.165 0 1 0 .301.134l.775-1.737a.164.164 0 0 0-.147-.233Zm7.035.005a.164.164 0 0 0-.151.106.164.164 0 0 0 .003.126l.773 1.739a.164.164 0 0 0 .316-.072.163.163 0 0 0-.015-.062l-.772-1.739a.164.164 0 0 0-.154-.098Zm-8.397.533a.164.164 0 0 0-.131.082l-.4.693a.164.164 0 0 0 .121.246.166.166 0 0 0 .164-.081l.4-.693a.164.164 0 0 0-.06-.226.165.165 0 0 0-.094-.021Zm9.77 0a.163.163 0 0 0-.143.064.163.163 0 0 0-.012.183l.4.693a.164.164 0 0 0 .274.018.165.165 0 0 0 .012-.183l-.4-.693a.164.164 0 0 0-.132-.082Zm-6.683.024a.164.164 0 0 0-.162.131l-.395 1.86a.166.166 0 0 0 .068.171.166.166 0 0 0 .183.003.163.163 0 0 0 .071-.105l.396-1.86a.166.166 0 0 0-.033-.138.164.164 0 0 0-.128-.061Zm3.59.002a.165.165 0 0 0-.161.199l.394 1.86a.164.164 0 0 0 .255.103.163.163 0 0 0 .067-.17l-.393-1.862a.165.165 0 0 0-.163-.13Zm-1.792.187a.165.165 0 0 0-.165.165v1.902a.163.163 0 0 0 .102.153.163.163 0 0 0 .126 0 .165.165 0 0 0 .102-.152v-1.903a.165.165 0 0 0-.165-.165Zm-3.028.615a.165.165 0 0 0-.142.113l-.248.762a.164.164 0 0 0 .17.215.164.164 0 0 0 .144-.114l.247-.76a.164.164 0 0 0-.17-.216Zm6.054 0a.165.165 0 0 0-.171.215l.247.762a.165.165 0 1 0 .314-.102l-.248-.761a.165.165 0 0 0-.142-.114Zm-4.061.424a.165.165 0 0 0-.148.147l-.084.796a.163.163 0 0 0 .147.181.164.164 0 0 0 .181-.147l.084-.795a.165.165 0 0 0-.18-.182Zm2.063.001a.165.165 0 0 0-.18.181l.083.796a.164.164 0 0 0 .181.147.165.165 0 0 0 .147-.181l-.083-.796a.165.165 0 0 0-.148-.147Z"/><g filter="url(#c)" opacity=".409"><path fill="#000" d="m20.39 6.064-9.023 5.242-5.705 8.981 8.346-6.181 6.382-8.042Z"/></g><path fill="#FF5150" d="m13.954 14.015-2.587-2.709 9.175-6.171-6.588 8.88Z"/><path fill="#F1F1F1" d="m13.954 14.015-2.586-2.709-6.589 8.88 9.175-6.171Z"/><path fill="#000" d="m4.78 20.186 9.174-6.171 6.588-8.88L4.779 20.186Z" opacity=".243"/><defs><radialGradient id="b" cx="0" cy="0" r="1" gradientTransform="translate(12.712 11.011) scale(12.2732)" gradientUnits="userSpaceOnUse"><stop stop-color="#06C2E7"/><stop offset=".25" stop-color="#0DB8EC"/><stop offset=".5" stop-color="#12AEF1"/><stop offset=".75" stop-color="#1F86F9"/><stop offset="1" stop-color="#107DDD"/></radialGradient><linearGradient id="a" x1="12.66" x2="12.66" y1="24.934" y2=".387" gradientUnits="userSpaceOnUse"><stop stop-color="#BDBDBD"/><stop offset="1" stop-color="#fff"/></linearGradient><filter id="c" width="25.948" height="25.443" x=".052" y=".454" color-interpolation-filters="sRGB" filterUnits="userSpaceOnUse"><feFlood flood-opacity="0" result="BackgroundImageFix"/><feBlend in="SourceGraphic" in2="BackgroundImageFix" result="shape"/><feGaussianBlur result="effect1_foregroundBlur_4868_17272" stdDeviation="2.73"/></filter></defs></svg>