<svg xmlns="http://www.w3.org/2000/svg" fill="none" viewBox="0 0 26 26"><path fill="#000" d="M24.484 13.666c0 3.02-1.245 5.915-3.463 8.05s-5.224 3.335-8.36 3.335-6.143-1.2-8.36-3.334C2.084 19.58.838 16.686.838 13.667S2.084 7.75 4.301 5.615 9.525 2.28 12.66 2.28s6.143 1.2 8.36 3.335c2.218 2.135 3.463 5.03 3.463 8.05" opacity=".53"/><path fill="url(#a)" stroke="#cdcdcd" stroke-linecap="round" stroke-linejoin="round" stroke-width=".754" d="M24.934 12.66a12.273 12.273 0 1 1-24.547 0 12.273 12.273 0 0 1 24.547 0"/><path fill="url(#b)" d="M23.973 12.66a11.311 11.311 0 1 1-22.623.001 11.311 11.311 0 0 1 22.623 0"/><path fill="#f4f2f3" d="M12.66 1.94a.164.164 0 0 0-.164.164v1.902a.165.165 0 1 0 .33 0V2.104a.165.165 0 0 0-.165-.165m-1.078.067h-.034a.164.164 0 0 0-.146.182l.083.795a.165.165 0 1 0 .328-.034l-.083-.796a.164.164 0 0 0-.148-.147m2.165.001a.164.164 0 0 0-.147.147l-.084.796a.165.165 0 0 0 .268.145.17.17 0 0 0 .06-.11l.084-.797a.165.165 0 0 0-.18-.18m-3.273.16a.165.165 0 0 0-.16.199l.393 1.861a.16.16 0 0 0 .131.128.165.165 0 0 0 .192-.196l-.394-1.861a.165.165 0 0 0-.162-.131m4.381.002a.164.164 0 0 0-.162.13L14.3 4.161a.164.164 0 0 0 .127.196.164.164 0 0 0 .196-.127l.395-1.861a.165.165 0 0 0-.16-.2m-5.44.296a.165.165 0 0 0-.171.215l.248.762a.165.165 0 1 0 .314-.102l-.247-.761a.16.16 0 0 0-.143-.114m6.492 0a.16.16 0 0 0-.142.114l-.248.761a.16.16 0 0 0 .05.176.165.165 0 0 0 .264-.074l.247-.761a.165.165 0 0 0-.17-.215M8.37 2.85a.165.165 0 0 0-.148.232l.773 1.738a.165.165 0 1 0 .301-.134l-.772-1.738a.17.17 0 0 0-.154-.098m8.595.006a.17.17 0 0 0-.154.098l-.775 1.737a.164.164 0 0 0 .084.218.165.165 0 0 0 .217-.084l.775-1.737a.164.164 0 0 0-.083-.218.2.2 0 0 0-.064-.014m-9.566.508a.16.16 0 0 0-.142.064.16.16 0 0 0-.012.183l.4.693a.164.164 0 0 0 .306-.104.2.2 0 0 0-.02-.061l-.4-.693a.17.17 0 0 0-.132-.082m10.523 0a.16.16 0 0 0-.13.082l-.4.693a.165.165 0 1 0 .285.165l.4-.693a.165.165 0 0 0-.155-.247M6.457 3.95a.165.165 0 0 0-.127.261l1.117 1.54a.165.165 0 1 0 .267-.193l-1.118-1.54a.16.16 0 0 0-.139-.068m12.421.008a.16.16 0 0 0-.14.068L17.62 5.565a.16.16 0 0 0-.03.123.16.16 0 0 0 .125.135.17.17 0 0 0 .172-.064l1.119-1.538a.165.165 0 0 0-.128-.262m-13.263.698a.16.16 0 0 0-.158.094.17.17 0 0 0 .026.182l.536.594a.164.164 0 0 0 .287-.101.17.17 0 0 0-.042-.12l-.535-.594a.17.17 0 0 0-.114-.055m14.095.002a.17.17 0 0 0-.114.054l-.535.595a.164.164 0 0 0 .012.233.164.164 0 0 0 .233-.013l.535-.594a.16.16 0 0 0 .043-.12.16.16 0 0 0-.055-.113.16.16 0 0 0-.119-.042m-14.903.774a.165.165 0 0 0-.102.288l1.414 1.272a.164.164 0 0 0 .275-.13.17.17 0 0 0-.054-.115L4.925 5.475a.17.17 0 0 0-.119-.042m15.715.006a.16.16 0 0 0-.12.042l-1.414 1.272a.164.164 0 0 0 .101.287.17.17 0 0 0 .12-.042l1.414-1.272a.164.164 0 0 0-.101-.287m-16.387.858a.164.164 0 0 0-.168.19.17.17 0 0 0 .066.108l.647.47a.165.165 0 1 0 .194-.266l-.647-.47a.17.17 0 0 0-.092-.032m17.058.006a.17.17 0 0 0-.091.031l-.648.47a.16.16 0 0 0-.064.172.166.166 0 0 0 .199.122.2.2 0 0 0 .058-.027l.648-.47a.17.17 0 0 0 .064-.172.166.166 0 0 0-.166-.126m-17.685.915a.164.164 0 0 0-.152.143.17.17 0 0 0 .08.164l1.648.952a.165.165 0 0 0 .214-.244.2.2 0 0 0-.049-.042L3.601 7.24a.17.17 0 0 0-.094-.022m18.308 0a.16.16 0 0 0-.094.022l-1.648.951a.164.164 0 0 0-.018.274.17.17 0 0 0 .183.012l1.648-.952a.164.164 0 0 0 .06-.225.17.17 0 0 0-.131-.082M3.032 8.2a.164.164 0 0 0-.157.224.16.16 0 0 0 .087.091l.73.326a.165.165 0 1 0 .135-.3l-.73-.327a.2.2 0 0 0-.065-.014m19.26.007a.2.2 0 0 0-.064.014l-.73.325a.164.164 0 0 0-.084.218.165.165 0 0 0 .218.084l.73-.326a.164.164 0 0 0 .084-.217.16.16 0 0 0-.153-.098M2.61 9.227a.164.164 0 0 0-.133.238.17.17 0 0 0 .096.082l1.809.59a.16.16 0 0 0 .177-.05.165.165 0 0 0-.075-.264l-1.808-.59a.2.2 0 0 0-.066-.007m20.106.006a.2.2 0 0 0-.065.008l-1.81.588a.165.165 0 1 0 .102.313l1.81-.588a.165.165 0 0 0-.037-.32m-20.37 1.07a.165.165 0 0 0-.034.327l.782.166a.17.17 0 0 0 .17-.068.165.165 0 0 0-.101-.255l-.783-.166zm20.631.002-.033.004-.783.166a.17.17 0 0 0-.104.071.164.164 0 0 0 .049.228.16.16 0 0 0 .124.023l.782-.166a.16.16 0 0 0 .105-.071.17.17 0 0 0 .023-.125.164.164 0 0 0-.163-.13m-20.83 1.082a.164.164 0 0 0-.142.21.17.17 0 0 0 .141.118l1.892.2a.16.16 0 0 0 .162-.085.165.165 0 0 0-.127-.243l-1.892-.2zm21.031.014h-.034l-1.892.198a.165.165 0 1 0 .035.328l1.892-.198a.165.165 0 0 0-.001-.328M2.114 12.496a.165.165 0 1 0 0 .33h.8a.165.165 0 1 0 0-.33zm20.293 0a.165.165 0 1 0 0 .33h.8a.165.165 0 1 0 0-.33zm-18.338.9h-.033l-1.892.197a.165.165 0 1 0 .034.328l1.892-.198a.165.165 0 0 0 0-.328m17.182.01a.164.164 0 0 0-.148.148.165.165 0 0 0 .147.181l1.892.2a.163.163 0 0 0 .181-.147.17.17 0 0 0-.085-.162.2.2 0 0 0-.062-.019l-1.891-.2zM3.126 14.522l-.033.004-.783.166a.17.17 0 0 0-.128.131.165.165 0 0 0 .197.192l.783-.167a.17.17 0 0 0 .128-.13.165.165 0 0 0-.164-.196m19.07.002a.164.164 0 0 0-.14.255.17.17 0 0 0 .104.07l.783.167a.164.164 0 0 0 .195-.127.164.164 0 0 0-.127-.195l-.782-.167zm-17.752.65a.2.2 0 0 0-.065.007l-1.809.588a.165.165 0 1 0 .102.313l1.81-.588a.16.16 0 0 0 .113-.143.165.165 0 0 0-.15-.178m16.432.005a.164.164 0 0 0-.15.177.16.16 0 0 0 .113.144l1.808.59a.165.165 0 1 0 .102-.314l-1.808-.59a.2.2 0 0 0-.066-.007M3.753 16.46a.2.2 0 0 0-.064.014l-.731.326a.16.16 0 0 0-.098.155.165.165 0 0 0 .232.146l.731-.325a.165.165 0 0 0-.07-.316m17.811.006a.164.164 0 0 0-.168.161.17.17 0 0 0 .098.155l.73.326a.164.164 0 0 0 .232-.146.17.17 0 0 0-.097-.155l-.731-.326a.2.2 0 0 0-.064-.015m-16.388.358a.16.16 0 0 0-.094.022l-1.647.95a.164.164 0 0 0-.018.275.16.16 0 0 0 .183.011l1.647-.95a.164.164 0 0 0 .005-.284.2.2 0 0 0-.076-.024m14.967 0a.164.164 0 0 0-.148.207.17.17 0 0 0 .077.1l1.648.951a.165.165 0 1 0 .165-.285l-1.648-.951a.17.17 0 0 0-.094-.022M4.766 18.22a.17.17 0 0 0-.09.031l-.649.47a.164.164 0 0 0-.036.23.165.165 0 0 0 .23.037l.648-.47a.164.164 0 0 0-.024-.282.2.2 0 0 0-.079-.016m15.785.005a.16.16 0 0 0-.139.068.17.17 0 0 0-.007.183.2.2 0 0 0 .044.048l.647.47a.164.164 0 0 0 .257-.095.17.17 0 0 0-.063-.172l-.648-.47a.16.16 0 0 0-.09-.032m-14.318.057a.16.16 0 0 0-.119.042L4.7 19.596a.17.17 0 0 0-.046.178.165.165 0 0 0 .266.067l1.415-1.271a.166.166 0 0 0 .012-.233.16.16 0 0 0-.114-.055m12.851.005a.165.165 0 0 0-.101.287l1.413 1.273a.17.17 0 0 0 .182.026.166.166 0 0 0 .078-.22.2.2 0 0 0-.039-.051l-1.414-1.273a.17.17 0 0 0-.119-.042M7.575 19.495a.17.17 0 0 0-.139.068L6.317 21.1a.164.164 0 0 0 .036.23.164.164 0 0 0 .23-.036l1.12-1.538a.165.165 0 0 0-.128-.262m10.162.007a.165.165 0 0 0-.128.261l1.117 1.54a.165.165 0 1 0 .267-.193l-1.117-1.54a.17.17 0 0 0-.139-.068m-11.606.237a.17.17 0 0 0-.114.055l-.536.595a.165.165 0 1 0 .246.22l.535-.594a.165.165 0 0 0-.131-.276m13.059.001a.16.16 0 0 0-.119.042.17.17 0 0 0-.055.114.16.16 0 0 0 .043.12l.535.594a.164.164 0 0 0 .287-.102.17.17 0 0 0-.042-.119l-.535-.594a.17.17 0 0 0-.114-.055m-10.052.66a.16.16 0 0 0-.154.098l-.775 1.737a.164.164 0 0 0 .147.232.17.17 0 0 0 .155-.098l.775-1.737a.164.164 0 0 0-.148-.232m7.035.005a.165.165 0 0 0-.148.232l.773 1.738a.164.164 0 0 0 .218.083.16.16 0 0 0 .098-.154.2.2 0 0 0-.015-.063l-.772-1.738a.17.17 0 0 0-.154-.099m-8.397.532a.16.16 0 0 0-.131.082l-.4.693a.165.165 0 1 0 .285.165l.4-.693a.164.164 0 0 0-.06-.225.17.17 0 0 0-.094-.022m9.77 0a.16.16 0 0 0-.143.064.16.16 0 0 0-.012.183l.4.693a.164.164 0 0 0 .226.06.164.164 0 0 0 .06-.225l-.4-.693a.17.17 0 0 0-.131-.082m-6.682.025a.164.164 0 0 0-.163.13l-.395 1.861a.164.164 0 0 0 .191.197.17.17 0 0 0 .132-.128l.395-1.861a.165.165 0 0 0-.16-.2m3.588 0a.165.165 0 0 0-.16.2l.394 1.86a.17.17 0 0 0 .131.129.166.166 0 0 0 .193-.132.2.2 0 0 0-.001-.064l-.394-1.861a.164.164 0 0 0-.163-.131m-1.791.189a.165.165 0 0 0-.165.165v1.902a.16.16 0 0 0 .102.152.165.165 0 0 0 .228-.152v-1.902a.165.165 0 0 0-.165-.165m-3.027.614a.16.16 0 0 0-.143.114l-.247.76a.164.164 0 0 0 .231.199.16.16 0 0 0 .082-.096l.248-.761a.165.165 0 0 0-.171-.216m6.053 0a.164.164 0 0 0-.171.215l.247.762a.16.16 0 0 0 .144.114.165.165 0 0 0 .17-.216l-.248-.76a.17.17 0 0 0-.142-.114m-4.061.424a.165.165 0 0 0-.148.147l-.084.796a.165.165 0 1 0 .328.035l.084-.796a.16.16 0 0 0-.085-.162.17.17 0 0 0-.095-.02m2.064.001h-.034a.165.165 0 0 0-.147.181l.083.796a.165.165 0 1 0 .328-.034l-.083-.796a.164.164 0 0 0-.148-.147"/><g filter="url(#c)" opacity=".409"><path fill="#000" d="m20.39 6.064-9.023 5.242-5.705 8.982 8.346-6.182z"/></g><path fill="#ff5150" d="m13.954 14.015-2.587-2.709 9.175-6.171z"/><path fill="#f1f1f1" d="m13.954 14.015-2.586-2.709-6.589 8.88z"/><path fill="#000" d="m4.78 20.187 9.174-6.172 6.588-8.88z" opacity=".243"/><defs><radialGradient id="b" cx="0" cy="0" r="1" gradientTransform="translate(12.712 11.011)scale(12.2733)" gradientUnits="userSpaceOnUse"><stop stop-color="#06c2e7"/><stop offset=".25" stop-color="#0db8ec"/><stop offset=".5" stop-color="#12aef1"/><stop offset=".75" stop-color="#1f86f9"/><stop offset="1" stop-color="#107ddd"/></radialGradient><linearGradient id="a" x1="12.66" x2="12.66" y1="24.934" y2=".387" gradientUnits="userSpaceOnUse"><stop stop-color="#bdbdbd"/><stop offset="1" stop-color="#fff"/></linearGradient><filter id="c" width="25.948" height="25.444" x=".052" y=".454" color-interpolation-filters="sRGB" filterUnits="userSpaceOnUse"><feFlood flood-opacity="0" result="BackgroundImageFix"/><feBlend in="SourceGraphic" in2="BackgroundImageFix" result="shape"/><feGaussianBlur result="effect1_foregroundBlur_4868_17272" stdDeviation="2.73"/></filter></defs></svg>