<svg xmlns="http://www.w3.org/2000/svg" fill="none" viewBox="0 0 24 24"><g clip-path="url(#a)"><path fill="#00688C" d="M12 24c6.627 0 12-5.373 12-12S18.627 0 12 0 0 5.373 0 12s5.373 12 12 12Z"/><path fill="#fff" d="M17.64 15.254V8.752L11.994 5.5l-.007.004L6.36 8.755v6.5l5.631 3.245 5.649-3.246Zm-2.499-1.04-.963-.552-2.148 1.248a.041.041 0 0 1-.041 0l-2.466-1.43v-2.485L7.356 9.753l4.616-2.706a.011.011 0 0 1 .006-.002c.003 0 .005 0 .007.002l4.287 2.451-.758.439-3.527-2.03-3.129 1.837 1.086.623 2.045-1.19 2.5 1.428-.002 2.366 2.13 1.22v.035l-4.626 2.7-4.288-2.447.75-.44 3.53 2.025 3.157-1.85Z"/><path fill="#fff" d="M12.671 11.392v-.034l-.002-.013v-.004l-.001-.014v-.004l-.002-.014v-.003l-.002-.015v-.002l-.003-.015v-.001l-.003-.015-.001-.002-.004-.015v-.001a.133.133 0 0 0-.003-.016l-.005-.016-.004-.017a.242.242 0 0 0-.01-.031l-.007-.016a.291.291 0 0 0-.006-.015l-.007-.016-.006-.014-.008-.015-.007-.015-.008-.014a.634.634 0 0 1-.008-.014l-.008-.014a.36.36 0 0 0-.01-.013v-.001L12.549 11l-.001-.002-.009-.012h-.001c-.003-.005-.005-.01-.009-.013v-.001l-.01-.012-.001-.001-.01-.011v-.001l-.01-.011-.002-.002-.01-.01v-.002l-.01-.01a.656.656 0 0 1-.012-.012l-.002-.002-.01-.01a1.24 1.24 0 0 1-.011-.01l-.002-.002a.323.323 0 0 0-.01-.01l-.002-.001a.29.29 0 0 0-.011-.009h-.002l-.011-.01-.002-.001-.011-.009h-.002l-.012-.01h-.001l-.012-.009h-.002l-.012-.008v-.001l-.014-.008-.014-.008h-.001l-.014-.008a.688.688 0 0 0-.587 1.244l-.297 1.36h1.125l-.3-1.359a.692.692 0 0 0 .425-.638Z"/></g><defs><clipPath id="a"><path fill="#fff" d="M0 0h24v24H0z"/></clipPath></defs></svg>