<svg xmlns="http://www.w3.org/2000/svg" fill="none" viewBox="0 0 24 24"><g clip-path="url(#a)"><path fill="#00688C" d="M12 24c6.627 0 12-5.373 12-12S18.627 0 12 0 0 5.373 0 12s5.373 12 12 12Z"/><path fill="#fff" d="M17.64 15.254V8.752L11.994 5.5l-.008.004L6.36 8.755v6.5l5.631 3.245 5.648-3.246Zm-2.499-1.04-.963-.552-2.149 1.248a.041.041 0 0 1-.041 0l-2.465-1.43v-2.485L7.355 9.753l4.617-2.706a.012.012 0 0 1 .012 0l4.288 2.451-.758.439-3.528-2.03L8.86 9.744l1.085.623 2.045-1.19h.002l2.498 1.428v2.366l2.129 1.22v.035l-4.626 2.7-4.289-2.447.75-.44 3.531 2.025 3.157-1.85Z"/><path fill="#fff" d="M12.671 11.392v-.034l-.002-.013v-.004l-.001-.014v-.004l-.002-.014v-.003l-.002-.015v-.002l-.003-.015v-.001l-.004-.015v-.002l-.004-.015v-.001a.192.192 0 0 0-.003-.016l-.005-.016-.005-.017a.259.259 0 0 0-.01-.031l-.006-.016a.291.291 0 0 0-.006-.015l-.007-.016-.006-.014-.008-.015-.007-.015-.008-.014a.634.634 0 0 1-.008-.014l-.008-.014a.265.265 0 0 0-.01-.013v-.001L12.548 11l-.001-.002-.01-.012c-.003-.005-.005-.01-.009-.013v-.001l-.01-.012-.001-.001-.01-.011v-.001l-.01-.011-.002-.002-.01-.01v-.002l-.01-.01a.656.656 0 0 1-.012-.012l-.002-.002-.01-.01a1.24 1.24 0 0 1-.012-.01l-.001-.002a.249.249 0 0 0-.011-.01l-.002-.001a.228.228 0 0 0-.01-.009h-.002l-.011-.01-.002-.001-.011-.009h-.002l-.012-.01h-.001l-.012-.009h-.002l-.012-.008-.001-.001-.013-.008-.014-.008h-.001l-.014-.008a.688.688 0 0 0-.587 1.244l-.298 1.36h1.126l-.3-1.359a.692.692 0 0 0 .425-.638Z"/></g><defs><clipPath id="a"><path fill="#fff" d="M0 0h24v24H0z"/></clipPath></defs></svg>