<svg xmlns="http://www.w3.org/2000/svg" fill="none" viewBox="0 0 24 24"><path fill="#62757E" fill-rule="evenodd" d="M19.944 19H19.5v.833c0 .46-.372.834-.833.834H17a.833.833 0 0 1-.833-.834V19H7.833v.833c0 .46-.372.834-.833.834H5.333a.833.833 0 0 1-.833-.834V19h-.444A2.05 2.05 0 0 1 2 16.955V6.045C2 4.918 2.922 4 4.056 4h15.888C21.078 4 22 4.918 22 6.045v10.91A2.05 2.05 0 0 1 19.944 19m.39-12.955a.39.39 0 0 0-.39-.378H4.056a.39.39 0 0 0-.39.378v10.91a.39.39 0 0 0 .39.378h15.888a.39.39 0 0 0 .39-.378zm-4.167 8.788a3.337 3.337 0 0 1-3.334-3.333 3.337 3.337 0 0 1 3.334-3.333A3.337 3.337 0 0 1 19.5 11.5a3.337 3.337 0 0 1-3.333 3.333M14.5 11.5c0 .92.748 1.667 1.667 1.667s1.666-.748 1.666-1.667c0-.148-.025-.29-.061-.426l-1.016 1.015a.83.83 0 0 1-1.178 0 .833.833 0 0 1 0-1.178l1.015-1.015a1.6 1.6 0 0 0-.426-.063A1.67 1.67 0 0 0 14.5 11.5m-5 1.667h1.667v1.666H9.5zm0-2.5h1.667v1.666H9.5zm0-2.5h1.667v1.666H9.5zm-2.5 5h1.667v1.666H7zm0-2.5h1.667v1.666H7zm0-2.5h1.667v1.666H7zm-2.5 5h1.667v1.666H4.5zm0-2.5h1.667v1.666H4.5zm0-2.5h1.667v1.666H4.5z" clip-rule="evenodd"/></svg>