<svg xmlns="http://www.w3.org/2000/svg" fill="none" viewBox="0 0 25 24"><path fill="#00A1E0" fill-rule="evenodd" d="M9.955 5.477a4.193 4.193 0 0 1 3.033-1.301c1.582 0 2.954.879 3.692 2.189a5.099 5.099 0 0 1 2.084-.444c2.848 0 5.16 2.33 5.16 5.204 0 2.875-2.312 5.205-5.16 5.205a5.21 5.21 0 0 1-1.02-.101 3.777 3.777 0 0 1-3.288 1.934 3.755 3.755 0 0 1-1.652-.38 4.297 4.297 0 0 1-7.991-.193 3.96 3.96 0 0 1-.822.085C1.785 17.675 0 15.864 0 13.64c0-1.495.804-2.796 1.996-3.5a4.645 4.645 0 0 1 4.268-6.488 4.63 4.63 0 0 1 3.692 1.83" clip-rule="evenodd"/><path fill="#FFFFFE" fill-rule="evenodd" d="M3.485 12.334c-.015.04.005.047.01.054.045.033.09.056.136.083.245.13.475.167.716.167.49 0 .796-.261.796-.681v-.009c0-.388-.345-.53-.667-.63l-.042-.014c-.243-.08-.454-.148-.454-.308v-.008c0-.137.124-.239.313-.239.211 0 .463.07.624.16 0 0 .047.03.065-.016l.1-.269c.01-.025-.007-.045-.024-.055a1.39 1.39 0 0 0-.703-.189h-.05c-.448 0-.762.272-.762.66v.009c0 .41.346.543.67.635l.052.017c.235.072.44.135.44.3v.008c0 .153-.134.266-.346.266-.083 0-.347-.001-.632-.182-.035-.02-.055-.035-.081-.05-.014-.01-.05-.025-.065.021l-.096.27m7.182 0c-.015.039.005.047.01.054.045.032.09.056.137.082.244.13.474.167.715.167.49 0 .796-.26.796-.681v-.008c0-.389-.344-.53-.667-.632l-.042-.013c-.243-.08-.453-.148-.453-.308v-.008c0-.137.123-.238.313-.238.21 0 .461.07.623.159 0 0 .048.03.065-.015l.1-.27c.009-.025-.008-.045-.024-.055a1.39 1.39 0 0 0-.704-.189h-.049c-.449 0-.763.272-.763.66v.01c0 .409.346.542.67.635l.052.016c.236.072.44.135.44.3v.009c0 .152-.133.265-.346.265-.083 0-.347-.001-.632-.182-.035-.02-.055-.034-.081-.05-.009-.006-.05-.022-.064.022l-.097.269m4.905-.823c0 .237-.044.424-.13.557-.087.131-.218.195-.4.195-.182 0-.312-.063-.397-.194-.086-.132-.13-.32-.13-.557 0-.238.044-.424.13-.555.085-.13.214-.193.397-.193.183 0 .313.063.4.193.087.13.13.317.13.555m.41-.44a.988.988 0 0 0-.186-.357.892.892 0 0 0-.315-.239 1.031 1.031 0 0 0-.44-.088c-.167 0-.313.03-.44.088a.903.903 0 0 0-.5.595c-.04.136-.06.283-.06.44 0 .158.02.306.06.441.04.136.103.256.186.356.084.1.19.18.315.237.125.057.273.086.44.086.165 0 .313-.029.438-.086a.882.882 0 0 0 .315-.237c.083-.1.146-.22.186-.356.04-.135.06-.283.06-.44 0-.157-.02-.305-.06-.44m3.367 1.124c-.013-.04-.052-.024-.052-.024a.934.934 0 0 1-.19.054c-.07.01-.145.016-.225.016-.198 0-.356-.059-.469-.176-.113-.117-.176-.305-.176-.56.001-.232.057-.406.158-.54.1-.131.252-.2.454-.2.17 0 .298.02.434.062 0 0 .032.014.047-.028.036-.1.063-.17.101-.28.011-.03-.015-.044-.025-.048a1.586 1.586 0 0 0-.581-.09c-.173 0-.326.03-.457.088a.944.944 0 0 0-.529.595 1.415 1.415 0 0 0-.067.442c0 .34.092.614.273.816.181.202.454.304.809.304.21 0 .425-.043.58-.104 0 0 .03-.014.017-.049l-.102-.278m.717-.914a.797.797 0 0 1 .113-.327.441.441 0 0 1 .396-.201.43.43 0 0 1 .389.201.68.68 0 0 1 .091.327h-.993.004Zm1.38-.29a.87.87 0 0 0-.177-.324.81.81 0 0 0-.264-.2 1.01 1.01 0 0 0-.397-.081c-.174 0-.331.029-.459.088a.915.915 0 0 0-.319.244 1.002 1.002 0 0 0-.188.36 1.56 1.56 0 0 0-.06.443c0 .16.02.308.062.443a.91.91 0 0 0 .202.352c.091.1.208.177.349.231.14.054.31.082.503.082.401-.001.612-.09.698-.139.016-.009.03-.024.012-.066l-.09-.254c-.014-.038-.053-.024-.053-.024-.099.037-.24.103-.57.102-.215 0-.374-.064-.474-.163-.102-.102-.153-.25-.16-.462l1.388.001s.037 0 .04-.036c.002-.014.048-.285-.04-.597h-.003Zm-12.483.29a.799.799 0 0 1 .112-.327.442.442 0 0 1 .397-.201.43.43 0 0 1 .388.201.68.68 0 0 1 .092.327h-.994.005Zm1.38-.29a.87.87 0 0 0-.178-.324.81.81 0 0 0-.263-.2 1.01 1.01 0 0 0-.398-.081 1.1 1.1 0 0 0-.458.088.915.915 0 0 0-.319.244 1.005 1.005 0 0 0-.188.36c-.04.137-.06.286-.06.443 0 .16.02.308.062.443.042.135.11.254.2.352.092.1.21.177.35.231.14.054.308.082.503.082.401-.001.612-.09.698-.139.016-.009.03-.024.012-.066l-.09-.254c-.014-.038-.053-.024-.053-.024-.099.037-.24.103-.57.102-.214 0-.374-.064-.474-.163-.102-.102-.153-.25-.16-.462l1.388.001s.037 0 .04-.036c.002-.014.048-.285-.041-.597h-.001Zm-4.378 1.196a.27.27 0 0 1-.08-.083.332.332 0 0 1-.042-.18c0-.121.04-.209.124-.268 0 0 .12-.104.403-.1.126.002.252.013.376.032v.63s-.175.038-.374.05c-.282.017-.407-.081-.406-.08l-.001-.001Zm.552-.976a3.038 3.038 0 0 0-.216-.006 1.31 1.31 0 0 0-.341.043.89.89 0 0 0-.29.135.67.67 0 0 0-.2.229.668.668 0 0 0-.075.32c0 .123.021.229.063.316a.58.58 0 0 0 .182.217.758.758 0 0 0 .282.122c.109.025.232.038.367.038.143 0 .284-.012.421-.035.117-.02.234-.043.35-.068a1.63 1.63 0 0 0 .097-.025c.034-.008.032-.045.032-.045l-.001-1.266c0-.278-.074-.484-.22-.612-.147-.127-.36-.191-.637-.191-.104 0-.272.014-.372.034 0 0-.303.058-.427.156 0 0-.028.017-.013.055l.099.264c.012.034.045.023.045.023l.023-.012c.266-.145.604-.14.604-.14.15 0 .265.03.343.09.075.057.114.145.114.33v.058c-.119-.017-.229-.027-.229-.027l-.001-.003Zm11.165-.715a.037.037 0 0 0 .003-.014.038.038 0 0 0-.024-.035 1.222 1.222 0 0 0-.232-.04.689.689 0 0 0-.358.057.615.615 0 0 0-.234.173v-.168c0-.024-.016-.042-.04-.042h-.355c-.023 0-.04.018-.04.042v2.066a.042.042 0 0 0 .043.042h.363a.042.042 0 0 0 .042-.042v-1.038c0-.139.016-.277.046-.364a.52.52 0 0 1 .122-.204.421.421 0 0 1 .171-.103.676.676 0 0 1 .186-.026c.073 0 .152.019.152.019.027.003.042-.014.051-.038.024-.063.091-.253.105-.29" clip-rule="evenodd"/><path fill="#FFFFFE" fill-rule="evenodd" d="M14.28 9.543a1.073 1.073 0 0 0-.326-.047c-.25 0-.447.07-.586.21-.138.14-.232.35-.279.63l-.017.093h-.315s-.038-.001-.046.04l-.052.289c-.004.028.008.045.045.045h.307l-.311 1.735a2.23 2.23 0 0 1-.083.342.705.705 0 0 1-.097.197.258.258 0 0 1-.127.098.513.513 0 0 1-.274.012.33.33 0 0 1-.075-.025s-.036-.013-.05.023l-.103.281c-.01.028.004.05.021.056a.837.837 0 0 0 .33.056c.128 0 .244-.018.34-.053a.636.636 0 0 0 .257-.178.918.918 0 0 0 .18-.31c.048-.127.089-.284.122-.467l.312-1.767h.457s.038.001.046-.04l.052-.29c.004-.027-.008-.044-.045-.044h-.443c.002-.01.022-.166.073-.313a.401.401 0 0 1 .097-.147.287.287 0 0 1 .116-.073.58.58 0 0 1 .334.007c.045.014.051.001.06-.02l.106-.292c.011-.031-.016-.044-.025-.048Zm-6.195 2.999c0 .023-.016.042-.04.042h-.367c-.024 0-.04-.019-.04-.042v-2.96c0-.023.016-.042.04-.042h.367c.024 0 .04.019.04.042v2.96Z" clip-rule="evenodd"/></svg>