<svg xmlns="http://www.w3.org/2000/svg" fill="none" viewBox="0 0 25 24"><path fill="#00A1E0" fill-rule="evenodd" d="M9.955 5.477a4.2 4.2 0 0 1 3.033-1.301c1.582 0 2.954.879 3.692 2.189a5.1 5.1 0 0 1 2.084-.444c2.848 0 5.16 2.33 5.16 5.204 0 2.875-2.312 5.205-5.16 5.205q-.521-.001-1.02-.101a3.78 3.78 0 0 1-3.288 1.934 3.76 3.76 0 0 1-1.652-.38 4.3 4.3 0 0 1-3.957 2.62 4.3 4.3 0 0 1-4.035-2.814q-.406.086-.82.086C1.784 17.675 0 15.864 0 13.64c0-1.495.804-2.796 1.996-3.5a4.645 4.645 0 0 1 4.268-6.488 4.63 4.63 0 0 1 3.692 1.83" clip-rule="evenodd"/><path fill="#FFFFFE" fill-rule="evenodd" d="M3.485 12.334c-.015.04.005.047.01.054.045.033.09.056.136.083.245.13.475.167.716.167.49 0 .796-.261.796-.681v-.009c0-.388-.345-.53-.667-.63l-.042-.014c-.243-.08-.454-.148-.454-.308v-.008c0-.137.124-.239.313-.239.211 0 .463.07.624.16 0 0 .047.03.065-.016l.1-.269c.01-.025-.007-.045-.024-.055a1.4 1.4 0 0 0-.703-.189h-.05c-.448 0-.762.272-.762.66v.009c0 .41.346.543.67.635l.052.017c.235.072.44.135.44.3v.008c0 .153-.133.266-.346.266-.083 0-.347-.001-.632-.182-.035-.02-.055-.035-.081-.05-.014-.01-.05-.025-.065.021zm7.182 0c-.015.039.005.047.01.054.045.032.09.056.137.082.244.13.474.167.715.167.49 0 .796-.26.796-.681v-.008c0-.389-.344-.53-.666-.632l-.043-.013c-.243-.08-.453-.148-.453-.308v-.008c0-.137.123-.238.313-.238.21 0 .461.07.623.159 0 0 .048.03.065-.015l.1-.27c.009-.025-.008-.045-.024-.055a1.4 1.4 0 0 0-.704-.189h-.049c-.449 0-.763.272-.763.66v.01c0 .409.347.542.67.635l.052.016c.237.072.44.135.44.3v.009c0 .152-.133.265-.346.265-.083 0-.347-.001-.632-.182-.034-.02-.055-.034-.08-.05-.01-.006-.051-.022-.065.022zm4.905-.823q0 .357-.13.557-.129.196-.4.195-.271.001-.397-.194-.13-.2-.13-.557t.13-.555c.085-.13.214-.193.397-.193s.313.063.4.193q.13.197.13.555m.41-.44a1 1 0 0 0-.186-.357.9.9 0 0 0-.315-.239 1 1 0 0 0-.44-.088q-.25 0-.44.088a.9.9 0 0 0-.314.24 1 1 0 0 0-.186.355q-.06.204-.06.44 0 .238.06.441.06.205.186.356.127.15.315.237.19.086.44.086t.438-.086a.9.9 0 0 0 .315-.237q.125-.151.186-.356.06-.203.06-.44 0-.236-.06-.44m3.367 1.124c-.013-.04-.052-.024-.052-.024a1 1 0 0 1-.19.054q-.104.015-.225.016-.298 0-.469-.176c-.113-.117-.176-.305-.175-.56 0-.232.056-.406.157-.54q.15-.198.454-.2c.17 0 .298.02.434.062 0 0 .032.014.047-.028.036-.1.063-.17.102-.28.01-.03-.016-.044-.026-.048a1.6 1.6 0 0 0-.581-.09q-.26 0-.457.088a.94.94 0 0 0-.529.595 1.4 1.4 0 0 0-.067.442q0 .511.273.816c.181.202.454.304.809.304.21 0 .425-.043.58-.104 0 0 .03-.014.017-.049zm.716-.914a.8.8 0 0 1 .113-.327.44.44 0 0 1 .396-.201.43.43 0 0 1 .389.201.7.7 0 0 1 .091.327h-.993zm1.38-.29a.9.9 0 0 0-.177-.324.8.8 0 0 0-.264-.2 1 1 0 0 0-.397-.081c-.174 0-.33.029-.458.088a.9.9 0 0 0-.32.244 1 1 0 0 0-.188.36q-.06.206-.06.443 0 .24.062.443a.9.9 0 0 0 .202.352q.137.15.349.231t.503.082c.401-.001.612-.09.698-.139.016-.009.03-.024.012-.066l-.09-.254c-.014-.038-.052-.024-.052-.024-.1.037-.24.103-.57.102-.216 0-.375-.064-.475-.163-.102-.102-.153-.25-.16-.462l1.388.001s.037 0 .04-.036c.002-.014.048-.285-.04-.597zm-12.483.29a.8.8 0 0 1 .112-.327.44.44 0 0 1 .397-.201.43.43 0 0 1 .388.201.7.7 0 0 1 .092.327h-.994zm1.38-.29a.9.9 0 0 0-.178-.324.8.8 0 0 0-.263-.2 1 1 0 0 0-.398-.081 1.1 1.1 0 0 0-.458.088.9.9 0 0 0-.319.244 1 1 0 0 0-.188.36q-.06.206-.06.443 0 .24.062.443.064.204.2.352.139.15.35.231t.504.082c.4-.001.611-.09.698-.139.015-.009.03-.024.011-.066l-.09-.254c-.014-.038-.053-.024-.053-.024-.099.037-.24.103-.57.102-.214 0-.374-.064-.474-.163-.102-.102-.153-.25-.16-.462l1.388.001s.037 0 .04-.036c.002-.014.048-.285-.041-.597zm-4.378 1.196a.3.3 0 0 1-.08-.083.33.33 0 0 1-.042-.18q-.001-.18.124-.268s.12-.104.403-.1q.19.003.376.032v.63s-.175.038-.374.05c-.282.017-.407-.081-.406-.08zm.552-.976a3 3 0 0 0-.216-.006 1.3 1.3 0 0 0-.341.043.9.9 0 0 0-.29.135.7.7 0 0 0-.2.229.7.7 0 0 0-.075.32q0 .185.064.316c.04.086.103.161.18.217a.8.8 0 0 0 .283.122q.164.038.367.038.215 0 .421-.035.176-.03.35-.068l.097-.025c.034-.008.032-.045.032-.045l-.001-1.266q0-.418-.22-.612-.221-.19-.637-.191c-.104 0-.272.014-.372.034 0 0-.303.058-.427.156 0 0-.028.017-.013.055l.099.264c.012.034.045.023.045.023l.023-.012c.266-.145.604-.14.604-.14q.226 0 .343.09c.075.057.114.145.114.33v.058c-.119-.017-.229-.027-.229-.027zm11.165-.715a.04.04 0 0 0 0-.03l-.008-.012-.013-.008a1.2 1.2 0 0 0-.232-.04.7.7 0 0 0-.358.058.6.6 0 0 0-.234.173v-.168c0-.024-.016-.042-.04-.042h-.355c-.023 0-.04.018-.04.042v2.066a.043.043 0 0 0 .043.042h.363a.04.04 0 0 0 .043-.042v-1.038c0-.139.015-.277.045-.364a.5.5 0 0 1 .122-.204.4.4 0 0 1 .171-.103.7.7 0 0 1 .186-.026c.073 0 .152.019.152.019.027.003.042-.014.051-.038.024-.063.092-.253.105-.29" clip-rule="evenodd"/><path fill="#FFFFFE" fill-rule="evenodd" d="M14.28 9.543a1 1 0 0 0-.325-.047c-.25 0-.449.07-.587.21q-.207.21-.28.63l-.016.093h-.315s-.038-.001-.046.04l-.052.289c-.004.028.008.045.045.045h.307l-.311 1.735q-.037.21-.083.342a.7.7 0 0 1-.097.197.26.26 0 0 1-.127.098.5.5 0 0 1-.274.012.3.3 0 0 1-.075-.025s-.036-.013-.05.023l-.103.281c-.01.028.004.05.021.056a.8.8 0 0 0 .33.056q.194 0 .34-.053a.64.64 0 0 0 .257-.178.9.9 0 0 0 .18-.31q.072-.192.122-.467l.312-1.767h.457s.038.001.046-.04l.052-.29c.004-.027-.008-.044-.045-.044h-.443c.002-.01.022-.166.073-.312a.4.4 0 0 1 .097-.148.3.3 0 0 1 .116-.073.6.6 0 0 1 .334.007c.045.014.051.001.06-.02l.106-.292c.01-.031-.016-.044-.025-.048m-6.195 2.999c0 .023-.017.042-.04.042h-.367c-.024 0-.04-.019-.04-.042v-2.96c0-.023.016-.042.04-.042h.367c.023 0 .04.019.04.042z" clip-rule="evenodd"/></svg>