<svg xmlns="http://www.w3.org/2000/svg" fill="none" viewBox="0 0 24 24"><g clip-path="url(#a)"><path fill="#7882FF" d="M23.78 8.422c-.296-2.23-1.085-4.25-2.472-5.73-1.48-1.387-3.5-2.176-5.73-2.473C13.451-.063 12 .005 12 .005s-1.45-.068-3.578.214c-2.23.297-4.25 1.086-5.725 2.473-1.392 1.48-2.181 3.5-2.478 5.73C-.063 10.549.005 12 .005 12s-.068 1.45.214 3.578c.297 2.23 1.086 4.25 2.473 5.73 1.48 1.392 3.5 2.18 5.725 2.478 2.127.282 3.578.214 3.578.214s1.45.068 3.578-.214c2.23-.297 4.25-1.086 5.725-2.478 1.392-1.48 2.181-3.5 2.473-5.73.282-2.127.214-3.578.214-3.578s.078-1.45-.204-3.578"/><path fill="#fff" d="M18.144 10.223a6.41 6.41 0 0 1-4.455 7.891 6.41 6.41 0 0 1-7.891-4.454 6.41 6.41 0 0 1 4.454-7.891 6.41 6.41 0 0 1 7.891 4.454"/><path fill="#fff" d="M18.144 10.223a6.4 6.4 0 0 1-.195 4.026"/><path fill="#fff" d="M18.042 10.223c.248.896.296 1.801.165 2.663z"/><path fill="#4D5CC1" d="M16.255 16.44c-1.621 0-3.593-.414-5.56-1.159s-3.714-1.748-4.926-2.823C3.802 10.71 3.924 9.357 4.172 8.704c.248-.652 1.056-1.747 3.685-1.747 1.621 0 3.593.413 5.56 1.158s3.714 1.748 4.926 2.824c1.967 1.747 1.845 3.1 1.597 3.753-.244.652-1.052 1.748-3.685 1.748M7.862 8.987c-1.217 0-1.738.301-1.791.438-.054.136.14.71 1.051 1.519 1.018.9 2.585 1.796 4.299 2.443 1.713.653 3.48 1.028 4.839 1.028 1.217 0 1.737-.302 1.791-.438.054-.137-.141-.711-1.047-1.52-1.017-.9-2.585-1.796-4.298-2.443-1.723-.653-3.486-1.027-4.844-1.027"/><path fill="#fff" d="m6.07 9.444 11.971 4.547c.4-1.178.463-2.483.102-3.768A6.407 6.407 0 0 0 6.07 9.444"/></g><defs><clipPath id="a"><path fill="#fff" d="M0 0h24v24H0z"/></clipPath></defs></svg>