<svg xmlns="http://www.w3.org/2000/svg" fill="none" viewBox="0 0 24 24"><path fill="#62757e" d="M15.175 2.5c.45 0 .807-.004 1.15.078.286.069.56.182.81.335.301.185.55.44.868.759l2.325 2.325c.319.319.574.567.759.868.153.25.266.524.335.81.082.343.077.7.077 1.15V17.5c0 .547.001 1.005-.03 1.379-.03.383-.099.747-.275 1.093a2.8 2.8 0 0 1-1.223 1.223c-.346.176-.71.244-1.093.276q-.26.02-.575.024v.005H5.698v-.005a9 9 0 0 1-.576-.024c-.383-.032-.747-.1-1.093-.276a2.8 2.8 0 0 1-1.223-1.223c-.176-.346-.244-.71-.276-1.093-.03-.374-.029-.832-.029-1.379V6.501c0-.547-.001-1.005.03-1.379.03-.383.099-.747.275-1.093a2.8 2.8 0 0 1 1.223-1.223c.346-.176.71-.244 1.093-.276.374-.03.832-.03 1.379-.03zm-5.477 10c-.573 0-.955 0-1.249.024-.283.024-.414.065-.496.107-.226.115-.41.299-.524.524-.042.082-.084.213-.107.496-.024.294-.024.676-.024 1.25v5h9.404v-5c0-.574 0-.956-.024-1.25-.024-.283-.065-.414-.107-.496a1.2 1.2 0 0 0-.524-.524c-.083-.042-.213-.083-.496-.107-.293-.024-.675-.024-1.248-.024zM6.501 4.101c-.573 0-.956 0-1.25.024-.283.023-.413.064-.495.106a1.2 1.2 0 0 0-.525.525c-.041.082-.083.212-.106.496-.024.293-.024.676-.024 1.249v10.998c0 .573 0 .956.024 1.249.023.284.065.414.106.496a1.2 1.2 0 0 0 .525.524c.082.042.212.084.496.107q.192.014.446.018V14.9c0-.546-.001-1.005.03-1.379.03-.383.099-.747.275-1.092a2.8 2.8 0 0 1 1.224-1.224c.345-.176.71-.244 1.092-.275.374-.03.833-.03 1.38-.03h4.604c.546 0 1.005 0 1.379.03.382.031.746.1 1.091.275.527.268.956.697 1.224 1.224.176.345.244.71.276 1.092.03.374.03.832.03 1.38v4.993q.253-.004.445-.018c.284-.023.414-.065.496-.107a1.2 1.2 0 0 0 .525-.524c.042-.082.083-.212.106-.496.024-.293.024-.676.024-1.249V8.825c0-.527-.005-.66-.033-.777a1.2 1.2 0 0 0-.143-.347c-.063-.102-.154-.2-.527-.572l-2.325-2.325-.071-.07c0 .52.001.932-.095 1.291a2.8 2.8 0 0 1-1.98 1.98c-.287.077-.606.093-.988.096H11.2c-.547 0-1.005 0-1.379-.03-.383-.031-.747-.1-1.092-.275a2.8 2.8 0 0 1-1.224-1.224c-.176-.345-.244-.71-.276-1.093-.03-.373-.029-.832-.029-1.378zm8.02 12.9a.8.8 0 0 1 0 1.6H9.526a.8.8 0 0 1 0-1.6zm0-3.203a.8.8 0 0 1 0 1.6H9.526a.8.8 0 0 1 0-1.6zM8.8 4.1c0 .573 0 .955.024 1.249.023.283.065.413.107.496a1.2 1.2 0 0 0 .524.524c.082.042.212.083.496.106.293.024.676.025 1.25.025h2.132c.671 0 .85-.007.977-.041a1.2 1.2 0 0 0 .85-.849c.033-.127.04-.306.04-.977 0-.162 0-.258-.004-.328-.003-.067-.007-.073-.003-.057a.2.2 0 0 0-.141-.142c.015.005.01 0-.057-.003a8 8 0 0 0-.328-.003z"/></svg>