<svg xmlns="http://www.w3.org/2000/svg" fill="none" viewBox="0 0 24 24"><g clip-path="url(#a)"><path fill="#20EE82" d="M12 24c6.627 0 12-5.373 12-12S18.627 0 12 0 0 5.373 0 12s5.373 12 12 12"/><path fill="#fff" fill-rule="evenodd" d="M12 6.5a5.5 5.5 0 0 1 5.5 5.5v5.5H12a5.5 5.5 0 0 1 0-11m3.3 8.8v-3.25c0-1.825-1.46-3.34-3.283-3.35A3.304 3.304 0 0 0 8.7 12.017c.01 1.824 1.526 3.283 3.35 3.283z" clip-rule="evenodd"/></g><defs><clipPath id="a"><path fill="#fff" d="M0 0h24v24H0z"/></clipPath></defs></svg>