<svg xmlns="http://www.w3.org/2000/svg" fill="none" viewBox="0 0 24 24"><path fill="#62757E" d="M2.8 16.6a.8.8 0 0 1 .8.8v1.8a1.2 1.2 0 0 0 1.2 1.2h1.8a.8.8 0 1 1 0 1.6H4.8A2.8 2.8 0 0 1 2 19.2v-1.8a.8.8 0 0 1 .8-.8m11 3.8a.8.8 0 1 1 0 1.6h-3.6a.8.8 0 0 1 0-1.6zm7.4-3.8a.8.8 0 0 1 .8.8v1.8a2.8 2.8 0 0 1-2.8 2.8h-1.8a.8.8 0 1 1 0-1.6h1.8a1.2 1.2 0 0 0 1.2-1.2v-1.8a.8.8 0 0 1 .8-.8m-8.092-7.313c.32 0 .626.128.852.354l.9.899c.226.226.533.353.852.353h.5c.666 0 1.205.539 1.205 1.204v4.014c0 .665-.54 1.204-1.204 1.204H7.787a1.204 1.204 0 0 1-1.204-1.204v-4.014c0-.665.54-1.204 1.204-1.204h.505c.32 0 .626-.127.852-.353l.899-.9c.226-.225.532-.353.852-.353zm-1.106 2.007a2.409 2.409 0 1 0 .001 4.818 2.409 2.409 0 0 0-.001-4.818m0 1.205a1.204 1.204 0 1 1 0 2.409 1.204 1.204 0 0 1 0-2.409M2.8 9.4a.8.8 0 0 1 .8.8v3.6a.8.8 0 1 1-1.6 0v-3.6a.8.8 0 0 1 .8-.8m18.4 0a.8.8 0 0 1 .8.8v3.6a.8.8 0 0 1-1.6 0v-3.6a.8.8 0 0 1 .8-.8M20 2a2 2 0 0 1 2 2v3.401h-1.981L20 7.402H2V4a2 2 0 0 1 2-2zM4.8 3.6a1.2 1.2 0 0 0-1.2 1.2v.602a.4.4 0 0 0 .382.399h16.036a.4.4 0 0 0 .382-.399V4.8a1.2 1.2 0 0 0-1.078-1.194L19.2 3.6z"/></svg>