<svg xmlns="http://www.w3.org/2000/svg" fill="none" viewBox="0 0 24 24"><path fill="#62757E" fill-rule="evenodd" d="M3.6 4.8a1.2 1.2 0 0 1 1.2-1.2h1.8a.8.8 0 1 0 0-1.6H4.8A2.8 2.8 0 0 0 2 4.8v1.8a.8.8 0 1 0 1.6 0zM10.2 2a.8.8 0 1 0 0 1.6h3.6a.8.8 0 0 0 0-1.6zm7.2 0a.8.8 0 0 0 0 1.6h1.8a1.2 1.2 0 0 1 1.2 1.2v1.8a.8.8 0 0 0 1.6 0V4.8A2.8 2.8 0 0 0 19.2 2zM3.6 10.2a.8.8 0 1 0-1.6 0v3.6a.8.8 0 0 0 1.6 0zm18.4 0a.8.8 0 0 0-1.6 0v3.6a.8.8 0 0 0 1.6 0zM3.6 17.4a.8.8 0 0 0-1.6 0v1.8A2.8 2.8 0 0 0 4.8 22h1.8a.8.8 0 0 0 0-1.6H4.8a1.2 1.2 0 0 1-1.2-1.2zm18.4 0a.8.8 0 0 0-1.6 0v1.8a1.2 1.2 0 0 1-1.2 1.2h-1.8a.8.8 0 0 0 0 1.6h1.8a2.8 2.8 0 0 0 2.8-2.8zm-11.8 3a.8.8 0 0 0 0 1.6h3.6a.8.8 0 0 0 0-1.6zM5.5 10.207c0-.798.647-1.445 1.445-1.445h.606c.383 0 .75-.152 1.021-.423l1.08-1.08a1.45 1.45 0 0 1 1.022-.423h2.656c.383 0 .75.152 1.022.423l1.08 1.08c.27.27.638.423 1.021.423h.602c.798 0 1.445.647 1.445 1.445v4.816c0 .798-.647 1.445-1.445 1.445H6.945A1.445 1.445 0 0 1 5.5 15.023zm6.502 4.816a2.89 2.89 0 1 0 0-5.78 2.89 2.89 0 0 0 0 5.78m0-1.445a1.445 1.445 0 1 0 0-2.89 1.445 1.445 0 0 0 0 2.89" clip-rule="evenodd"/></svg>