<svg xmlns="http://www.w3.org/2000/svg" fill="none" viewBox="0 0 24 24"><path fill="#62757E" fill-rule="evenodd" d="M20.556 17.333H3.444c-.796 0-1.444-.635-1.444-1.415V5.417C2 4.636 2.648 4 3.444 4h17.112C21.352 4 22 4.636 22 5.417v10.5c0 .781-.648 1.416-1.444 1.416m-.223-11.666H3.667v10h16.666zM8.166 12.159s.422.174.918.174c.2 0 .417-.08.417-.211 0-.474-.618-.647-.625-.649-.005-.001-.01-.006-.014-.006l-.026-.005C8.154 11.25 7 10.547 7 9.26c0-1.08.915-1.927 2.083-1.927.841 0 1.51.282 1.584.314A.834.834 0 0 1 10 9.175S9.58 9 9.084 9c-.23 0-.416.117-.416.26 0 .367.658.61.665.612l.008.004c.658.187 1.827.872 1.827 2.246 0 1.07-.896 1.878-2.084 1.878a4.3 4.3 0 0 1-1.582-.312.834.834 0 0 1 .664-1.529m4.668-4.826h1.864C15.968 7.333 17 8.4 17 9.71v1.905C17 12.93 15.967 14 14.697 14h-1.863a.834.834 0 0 1-.833-.833v-5c0-.46.373-.834.833-.834m.834 5h1.03c.35 0 .636-.322.636-.719V9.71c0-.398-.28-.709-.636-.709h-1.03zM7 19h10a.834.834 0 0 1 0 1.667H7A.834.834 0 0 1 7 19" clip-rule="evenodd"/></svg>