<svg xmlns="http://www.w3.org/2000/svg" fill="none" viewBox="0 0 24 24"><path fill="#62757E" fill-rule="evenodd" d="m4.383 17.332.746-2.156h4.507l.746 2.156h2.399L8.71 6H6.07L2 17.332h2.383Zm3-8.706L9.02 13.36H5.745l1.637-4.734Zm5.797 1.767c-.356.703-.534 1.508-.534 2.416 0 .919.178 1.735.535 2.448.367.703.859 1.248 1.475 1.637.627.39 1.319.584 2.075.584.67 0 1.26-.135 1.767-.405.519-.281.924-.633 1.216-1.054v1.313H22V8.351h-2.286v1.28a3.548 3.548 0 0 0-1.216-1.02c-.497-.271-1.08-.406-1.75-.406a3.97 3.97 0 0 0-2.092.567c-.616.379-1.108.919-1.475 1.621Zm6.21 1.038c.216.39.324.86.324 1.41 0 .552-.108 1.027-.324 1.427-.216.39-.508.692-.876.908a2.388 2.388 0 0 1-1.183.308c-.41 0-.8-.108-1.167-.324a2.488 2.488 0 0 1-.876-.924c-.216-.411-.324-.887-.324-1.427s.108-1.005.324-1.394c.227-.4.519-.703.876-.908a2.3 2.3 0 0 1 1.167-.308c.422 0 .816.108 1.183.324.368.206.66.508.876.908Z" clip-rule="evenodd"/></svg>