<svg xmlns="http://www.w3.org/2000/svg" fill="none" viewBox="0 0 24 24"><path fill="currentColor" d="M5.789 14.653c0-.483.392-.874.875-.874h7.499a.875.875 0 1 1 0 1.75h-7.5a.875.875 0 0 1-.874-.876Zm.875-4.803a.875.875 0 0 0 0 1.75h7.499a.875.875 0 1 0 0-1.75h-7.5Z"/><path fill="currentColor" fill-rule="evenodd" d="M18.7 17.1a4.64 4.64 0 0 1-1.592 2.06v1.965a.875.875 0 0 1-1.502.61l-1.651-1.694h-7.33A4.624 4.624 0 0 1 2 15.416V9.201a4.624 4.624 0 0 1 4.624-4.625h.02A3.797 3.797 0 0 1 10.239 2h7.14a4.624 4.624 0 0 1 4.624 4.624v6.806A3.692 3.692 0 0 1 18.7 17.1ZM8.596 4.577h5.796a4.624 4.624 0 0 1 4.624 4.625v6.038a1.942 1.942 0 0 0 1.237-1.81V6.625A2.875 2.875 0 0 0 17.38 3.75h-7.14c-.673 0-1.27.325-1.643.826ZM3.75 9.201a2.875 2.875 0 0 1 2.874-2.875h7.768a2.875 2.875 0 0 1 2.874 2.875v6.215a2.875 2.875 0 0 1-1.463 2.506.875.875 0 0 0-.445.761v.29l-.407-.418a.875.875 0 0 0-.627-.264h-7.7a2.875 2.875 0 0 1-2.874-2.875V9.201Z" clip-rule="evenodd"/></svg>