<svg xmlns="http://www.w3.org/2000/svg" fill="none" viewBox="0 0 24 24"><path fill="currentColor" fill-rule="evenodd" d="M4.592 2.619a2.113 2.113 0 0 1 2.988 0l2.347 2.347c.855.855.704 2.09.346 2.875-.38.833-.24 1.682.266 2.189l3.895 3.895c.507.507 1.356.646 2.189.266.784-.358 2.02-.509 2.875.346l1.883 1.883a2.113 2.113 0 0 1 0 2.988l-1.479 1.48c-.97.968-2.427 1.416-3.803.887-1.958-.752-5.273-2.365-8.39-5.483C4.59 13.174 2.976 9.859 2.224 7.9c-.529-1.376-.081-2.834.888-3.803l1.479-1.48Zm1.78 1.207a.406.406 0 0 0-.573 0l-1.48 1.479c-.567.568-.751 1.33-.5 1.983.694 1.808 2.195 4.895 5.096 7.796 2.902 2.902 5.99 4.403 7.797 5.098.652.25 1.415.066 1.983-.502l1.479-1.48a.406.406 0 0 0 0-.573l-1.883-1.882c-.128-.129-.479-.22-.96 0-1.352.617-3 .49-4.104-.612l-3.895-3.896c-1.104-1.103-1.23-2.752-.612-4.105.22-.48.128-.83 0-.96L6.372 3.827Z" clip-rule="evenodd"/></svg>