<svg xmlns="http://www.w3.org/2000/svg" fill="none" viewBox="0 0 24 24"><path fill="#62757E" fill-rule="evenodd" d="M10.498 2a8.498 8.498 0 0 0-5.22 15.205l-3.102 3.103a.85.85 0 0 0 1.202 1.202L21.246 3.642a.85.85 0 1 0-1.202-1.202l-2.839 2.838A8.484 8.484 0 0 0 10.498 2Zm5.565 4.42a6.898 6.898 0 1 0-9.642 9.642l9.642-9.642Zm-5.565 12.577a8.518 8.518 0 0 1-1.989-.235L9.9 17.371a6.898 6.898 0 0 0 7.47-7.47l1.393-1.392c.153.638.234 1.304.234 1.99a8.46 8.46 0 0 1-1.6 4.964l4.367 4.367a.8.8 0 1 1-1.131 1.132L16.34 16.67a8.47 8.47 0 0 1-5.843 2.326Z" clip-rule="evenodd"/></svg>