<svg xmlns="http://www.w3.org/2000/svg" fill="none" viewBox="0 0 24 24"><path fill="#62757E" d="M13.162 8.88a.837.837 0 0 0-1.178 1.19l.604.598h-2.41a.837.837 0 0 0-.838.837v3.045a.837.837 0 1 0 1.675 0v-2.208h1.56l-.598.604a.837.837 0 0 0 1.19 1.178l2.031-2.052a.837.837 0 0 0-.006-1.184z"/><path fill="#62757E" fill-rule="evenodd" d="M14.89 3.197a4.09 4.09 0 0 0-5.78 0L3.196 9.11a4.09 4.09 0 0 0 0 5.782l5.912 5.912a4.09 4.09 0 0 0 5.782 0l5.912-5.912a4.09 4.09 0 0 0 0-5.782zm-4.597 1.184a2.413 2.413 0 0 1 3.414 0l5.912 5.913c.942.942.942 2.47 0 3.412l-5.912 5.913a2.413 2.413 0 0 1-3.414 0l-5.912-5.912a2.413 2.413 0 0 1 0-3.414z" clip-rule="evenodd"/></svg>