<svg xmlns="http://www.w3.org/2000/svg" fill="none" viewBox="0 0 24 24"><path fill="currentColor" fill-rule="evenodd" d="m11.025 17.287 3.667-2.117a1.222 1.222 0 0 0 0-2.117l-3.667-2.117a1.222 1.222 0 0 0-1.833 1.058v4.234c0 .94 1.018 1.529 1.833 1.058Zm-.277-4.715 2.666 1.54-2.666 1.539v-3.08Z" clip-rule="evenodd"/><path fill="currentColor" fill-rule="evenodd" d="M2 6.444A4.444 4.444 0 0 1 6.444 2h11.112A4.444 4.444 0 0 1 22 6.444v11.112A4.444 4.444 0 0 1 17.556 22H6.444A4.444 4.444 0 0 1 2 17.556V6.444Zm12.854-2.888h2.702c.25 0 .492.031.724.091l-3.41 3.41h-3.516l3.475-3.475a.671.671 0 0 0 .025-.026Zm-1.884 0H9.584a.673.673 0 0 1-.026.027L6.084 7.057h3.385l3.5-3.501Zm-8.772 3.5 3.502-3.5H6.444a2.889 2.889 0 0 0-2.888 2.888v.613h.642Zm12.558 0h3.688v-.612c0-.845-.363-1.605-.941-2.134l-2.747 2.747Zm-13.2 1.556h16.888v8.944a2.889 2.889 0 0 1-2.888 2.888H6.444a2.889 2.889 0 0 1-2.888-2.888V8.612Z" clip-rule="evenodd"/></svg>