<svg xmlns="http://www.w3.org/2000/svg" fill="none" viewBox="0 0 24 24"><path fill="#62757E" d="M12 2.144c5.594 0 10.25 4.172 10.25 9.462S17.594 21.07 12 21.07c-.873 0-1.723-.101-2.534-.292a7.07 7.07 0 0 1-4.461 1.045 7 7 0 0 1-.562-.077.803.803 0 0 1-.47-1.31 3.9 3.9 0 0 0 .824-1.637c.043-.185-.034-.475-.356-.799-1.663-1.675-2.691-3.919-2.691-6.393 0-5.29 4.656-9.462 10.25-9.462m0 1.606c-4.841 0-8.644 3.582-8.644 7.856 0 2.014.834 3.86 2.225 5.261.505.509 1.003 1.338.78 2.296a5.5 5.5 0 0 1-.374 1.08 5.46 5.46 0 0 0 2.87-.988.8.8 0 0 1 .671-.118 9.5 9.5 0 0 0 2.472.326c4.841 0 8.644-3.582 8.644-7.857 0-4.274-3.803-7.856-8.644-7.856m-.675 11.178c.362-.352.999-.352 1.35 0a1 1 0 0 1 .276.674 1 1 0 0 1-.275.676 1 1 0 0 1-.676.276 1 1 0 0 1-.675-.276 1 1 0 0 1-.275-.675 1 1 0 0 1 .275-.675M12 7.046a2.856 2.856 0 0 1 2.852 2.852 2.85 2.85 0 0 1-1.9 2.677v.176a.8.8 0 0 1-.061.297 1 1 0 0 1-.215.378c-.047.043-.108.07-.162.104q-.103.07-.218.112a.8.8 0 0 1-.296.06.8.8 0 0 1-.295-.06 1 1 0 0 1-.38-.216c-.1-.107-.168-.24-.216-.38a.8.8 0 0 1-.06-.295V11.8c0-.525.426-.951.951-.951a.95.95 0 0 0 .951-.95.953.953 0 0 0-.951-.952.953.953 0 0 0-.95.951.951.951 0 0 1-1.902 0A2.856 2.856 0 0 1 12 7.046"/></svg>