<svg xmlns="http://www.w3.org/2000/svg" fill="none" viewBox="0 0 24 24"><path fill="#62757E" fill-rule="evenodd" d="M9.942 3.333c-3.624 0-6.45 2.679-6.45 5.85 0 1.412.553 2.714 1.487 3.734.467.51 1.026 1.385.712 2.378a4 4 0 0 1-.113.314 4 4 0 0 0 1.89-.71.75.75 0 0 1 .627-.11 7 7 0 0 0 1.847.243c3.625 0 6.45-2.679 6.45-5.85s-2.825-5.85-6.45-5.85M4.597 17.106a6 6 0 0 1-.438-.06.75.75 0 0 1-.44-1.224 2.8 2.8 0 0 0 .542-.98c.06-.191-.016-.506-.388-.912-1.167-1.274-1.88-2.93-1.88-4.747 0-4.12 3.622-7.35 7.95-7.35 4.327 0 7.949 3.23 7.949 7.35s-3.622 7.35-7.95 7.35a8.6 8.6 0 0 1-1.907-.214 5.53 5.53 0 0 1-3.438.787M19.32 9.543a.75.75 0 0 0-.037 1.06c.77.827 1.225 1.886 1.225 3.035 0 1.084-.405 2.087-1.098 2.891-.405.47-.973 1.317-.691 2.268a3.2 3.2 0 0 1-1.296-.536.75.75 0 0 0-.627-.11 5.7 5.7 0 0 1-1.495.197c-.826 0-2.398-.331-3.37-.8a.75.75 0 1 0-.651 1.35c1.174.568 2.97.95 4.021.95a7.2 7.2 0 0 0 1.556-.168 4.7 4.7 0 0 0 3.252.59.75.75 0 0 0 .44-1.223 2.2 2.2 0 0 1-.382-.646c-.03-.078-.036-.18.023-.336a2 2 0 0 1 .357-.556c.91-1.056 1.46-2.402 1.46-3.871 0-1.559-.62-2.976-1.628-4.057a.75.75 0 0 0-1.06-.038M6.77 8.075a.936.936 0 1 0 0 1.872.936.936 0 0 0 0-1.872m2.235.936a.936.936 0 1 1 1.872 0 .936.936 0 0 1-1.872 0m4.108-.936a.936.936 0 1 0 0 1.872.936.936 0 0 0 0-1.872" clip-rule="evenodd"/></svg>