<svg xmlns="http://www.w3.org/2000/svg" fill="none" viewBox="0 0 24 24"><path fill="#62757E" fill-rule="evenodd" d="M2 10.498a8.498 8.498 0 1 1 15.397 4.965l4.367 4.367a.8.8 0 1 1-1.131 1.132L16.34 16.67A8.498 8.498 0 0 1 2 10.499M10.498 3.6a6.898 6.898 0 1 0 0 13.797 6.898 6.898 0 0 0 0-13.797m.825 6.334h2.4c.43 0 .677.368.677.797 0 .428-.37.796-.8.796h-2.4v2.377c0 .428-.37.796-.8.796s-.8-.367-.8-.796v-2.377H7.2c-.43 0-.8-.368-.8-.796 0-.43.37-.797.8-.858h2.462V7.496c0-.429.369-.796.861-.796.43 0 .8.367.8.796z" clip-rule="evenodd"/></svg>