<svg xmlns="http://www.w3.org/2000/svg" fill="none" viewBox="0 0 24 24"><path fill="#62757E" fill-rule="evenodd" d="M21.783 20.56a.74.74 0 0 1-1.047 0l-5.69-5.69a6.63 6.63 0 0 1-4.156 1.463 6.6 6.6 0 0 1-4.835-2.075.741.741 0 0 1 1.074-1.021 5.14 5.14 0 0 0 3.761 1.615 5.19 5.19 0 0 0 5.184-5.185A5.19 5.19 0 0 0 10.89 4.48c-2.444 0-4.486 1.705-5.032 3.983l.804-.803a.74.74 0 1 1 1.047 1.05l-2.076 2.077a.73.73 0 0 1-.532.357c-.028.003-.053-.007-.08-.006-.02.002-.038.011-.058.011-.043 0-.085-.017-.128-.025l-.04-.007a.7.7 0 0 1-.356-.185L2.217 8.71a.74.74 0 1 1 1.048-1.05L4.3 8.698C4.773 5.48 7.543 3 10.89 3a6.674 6.674 0 0 1 6.665 6.667c0 1.572-.55 3.015-1.462 4.156l5.69 5.69a.74.74 0 0 1 0 1.048" clip-rule="evenodd"/></svg>