<svg xmlns="http://www.w3.org/2000/svg" fill="none" viewBox="0 0 24 24"><path fill="#62757E" fill-rule="evenodd" d="M9.126 6.15c0-.635.515-1.15 1.15-1.15h3.448c.635 0 1.15.515 1.15 1.15v9.195a1.15 1.15 0 0 1-1.15 1.15h-3.448a1.15 1.15 0 0 1-1.15-1.15V6.149Zm4.138 8.735h-2.528V6.61h2.528v8.276ZM2.17 10.747c0-.635.515-1.15 1.15-1.15h3.448c.635 0 1.15.515 1.15 1.15v4.598a1.15 1.15 0 0 1-1.15 1.15H3.32a1.15 1.15 0 0 1-1.15-1.15v-4.598Zm1.61 4.138v-3.678h2.528v3.678H3.78Zm13.452-5.287a1.15 1.15 0 0 0-1.15 1.15v4.597c0 .635.515 1.15 1.15 1.15h3.448a1.15 1.15 0 0 0 1.15-1.15v-4.598a1.15 1.15 0 0 0-1.15-1.15h-3.448Zm.46 1.609v3.678h2.528v-3.678h-2.528Z" clip-rule="evenodd"/><path fill="#62757E" d="M2.805 17.575a.805.805 0 1 0 0 1.61h18.39a.805.805 0 0 0 0-1.61H2.805Z"/></svg>