<svg xmlns="http://www.w3.org/2000/svg" fill="none" viewBox="0 0 24 24"><path fill="#62757E" d="M6.985 3.234a.8.8 0 0 1 1.13 0l2.75 2.75a.8.8 0 0 1-1.13 1.131L8.35 5.73v9.38A3 3 0 1 1 4.55 18a3 3 0 0 1 2.2-2.89V5.73L5.365 7.115a.8.8 0 1 1-1.13-1.13zM16.45 3a3 3 0 0 1 .8 5.89v9.38l1.385-1.385a.8.8 0 0 1 1.13 1.13l-2.75 2.75a.8.8 0 0 1-1.13 0l-2.75-2.75a.8.8 0 1 1 1.13-1.13l1.386 1.384V8.89A3 3 0 0 1 16.45 3m-8.9 13.6a1.4 1.4 0 1 0 .001 2.801A1.4 1.4 0 0 0 7.55 16.6m8.9-12a1.401 1.401 0 1 0 .002 2.802A1.401 1.401 0 0 0 16.45 4.6"/></svg>