<svg xmlns="http://www.w3.org/2000/svg" fill="none" viewBox="0 0 24 24"><path fill="#62757E" fill-rule="evenodd" d="M11.212 9.956a2.5 2.5 0 0 1-1.625 2.343V17a.875.875 0 0 1-1.75 0v-4.701a2.501 2.501 0 0 1 0-4.686V7a.875.875 0 0 1 1.75 0v.613a2.5 2.5 0 0 1 1.625 2.343m-3.75 0c0-.35.144-.666.375-.893v.004a1.246 1.246 0 0 1 1.75 0v-.004a1.25 1.25 0 1 1-2.125.893m8.701 6.233a2.501 2.501 0 0 0 0-4.685V7a.875.875 0 0 0-1.75 0v4.504a2.5 2.5 0 0 0 0 4.685V17a.875.875 0 1 0 1.75 0zm-1.75-3.235a1.25 1.25 0 1 0 1.75 1.785 1.25 1.25 0 0 0-1.75-1.785" clip-rule="evenodd"/><path fill="#62757E" fill-rule="evenodd" d="M7 2a5 5 0 0 0-5 5v10a5 5 0 0 0 5 5h10a5 5 0 0 0 5-5V7a5 5 0 0 0-5-5zm10 1.75H7A3.25 3.25 0 0 0 3.75 7v10A3.25 3.25 0 0 0 7 20.25h10A3.25 3.25 0 0 0 20.25 17V7A3.25 3.25 0 0 0 17 3.75" clip-rule="evenodd"/></svg>