<svg xmlns="http://www.w3.org/2000/svg" fill="none" viewBox="0 0 24 24"><path fill="#62757E" d="M14.85 14.74V9.818a.483.483 0 0 0-.483-.484.68.68 0 0 0-.586.339l-1.149 1.989a1.42 1.42 0 0 0 .025 1.458c.28.452.658.832 1.102 1.116l-.25 4.056a.792.792 0 1 0 1.581-.005zm-6.81-4.16a1.364 1.364 0 0 1 2.718.008l.123 1.512q.014.19-.013.38l-.025.164c-.082.547-.46.986-.958 1.163l.304 4.48a.792.792 0 1 1-1.582.004l.278-4.492a1.46 1.46 0 0 1-.935-1.141l-.026-.166a1.7 1.7 0 0 1-.015-.405z"/><path fill="#62757E" fill-rule="evenodd" d="M13.682 2.703a.703.703 0 0 0-1.036-.619L5.776 5.79l-.006.003A2.51 2.51 0 0 0 4 8.193v11.294A2.513 2.513 0 0 0 6.513 22h10.038a2.513 2.513 0 0 0 2.514-2.513V8.193A2.513 2.513 0 0 0 16.55 5.68h-2.869zM12.276 5.68v-1.8L8.94 5.68zM6.513 7.086h10.038c.612 0 1.108.496 1.108 1.107v11.294c0 .611-.496 1.107-1.108 1.107H6.513a1.107 1.107 0 0 1-1.107-1.107V8.193c0-.611.496-1.107 1.107-1.107" clip-rule="evenodd"/></svg>