<svg xmlns="http://www.w3.org/2000/svg" fill="none" viewBox="0 0 24 24"><path fill="currentColor" fill-rule="evenodd" d="M12.914 3.566c-.74-.147-1.482-.143-1.99-.133-.814.015-1.371.284-1.77.682-.415.414-.707 1.018-.875 1.77a7.588 7.588 0 0 0-.167 1.645 2.1 2.1 0 0 1 .974-.265c2.11-.076 4.02-1.161 4.773-1.743a.96.96 0 0 1 .808-.177c.959.227 1.625.828 2.03 1.597.136-.87-.002-1.35-.157-1.6-.262-.424-.771-.498-1.054-.497a1.006 1.006 0 0 1-.777-.361c-.405-.487-1.049-.77-1.795-.918Zm4.256 6.561c-.17 1.57-.817 3.246-1.82 4.423v.873c1.068.022 2.405.27 3.565.972 1.389.842 2.47 2.308 2.546 4.627a.952.952 0 0 1-.955.978H3.955A.95.95 0 0 1 3 21.016c.088-2.113 1.206-3.502 2.56-4.35 1.156-.723 2.49-1.062 3.551-1.175v-.916c-.93-.97-1.593-2.263-1.891-3.459-.496-1.575-.754-3.727-.347-5.542.205-.918.593-1.8 1.259-2.466.681-.68 1.604-1.082 2.764-1.104.517-.01 1.395-.018 2.299.161.84.167 1.791.514 2.49 1.258.506.033 1.493.22 2.08 1.172.665 1.074.614 2.801-.596 5.532Zm-6.619 5.538v.26a.962.962 0 0 1-.916.956c-.944.05-2.246.33-3.307.994-.916.573-1.643 1.422-1.84 2.696h15.498c-.178-1.519-.928-2.415-1.821-2.956-1.03-.624-2.303-.802-3.242-.76a.964.964 0 0 1-1.013-.957v-.173a3.398 3.398 0 0 1-1.56.385 3.945 3.945 0 0 1-1.799-.445Zm3.992-8.867c-.998.711-3.063 1.81-5.405 1.895-.187.007-.293.058-.36.11a.67.67 0 0 0-.206.321c-.124.356-.131.927.041 1.63.262 1.064.884 2.224 1.714 3.007.624.588 1.314.92 2.023.92.602 0 1.201-.3 1.755-.89.882-.937 1.508-2.466 1.644-3.914.078-.842-.016-1.592-.264-2.144-.207-.458-.513-.775-.942-.935Z" clip-rule="evenodd"/></svg>