<svg xmlns="http://www.w3.org/2000/svg" fill="none" viewBox="0 0 24 24"><path fill="#62757E" fill-rule="evenodd" d="M13.87 9.83c1.693 0 3.066-1.39 3.066-3.105S15.563 3.62 13.87 3.62s-3.066 1.39-3.066 3.105S12.177 9.83 13.87 9.83M2.007 7.67c0 1.57.945 2.915 2.29 3.487v.004C3.018 11.216 2 12.281 2 13.589v5.981C2 20.912 3.074 22 4.4 22h10.705c1.289 0 2.34-1.03 2.396-2.321l1.949 1.458c1.056.79 2.55.026 2.55-1.303v-6.579c0-1.303-1.441-2.073-2.503-1.337l-2.009 1.392a2.42 2.42 0 0 0-2.04-2.126v-.011a4.72 4.72 0 0 0 3.087-4.448C18.535 4.115 16.447 2 13.87 2c-2.438 0-4.44 1.894-4.648 4.308C8.682 4.893 7.327 3.89 5.74 3.89c-2.062 0-3.733 1.692-3.733 3.78m10.248 3.489h-5.07v-.003a3.78 3.78 0 0 0 2.25-2.958 4.71 4.71 0 0 0 2.82 2.96m-4.383-3.49c0 1.194-.954 2.16-2.132 2.16s-2.133-.966-2.133-2.16c0-1.192.955-2.16 2.133-2.16s2.132.968 2.132 2.16M3.6 13.59c0-.448.358-.81.8-.81h10.705c.441 0 .8.362.8.81v5.981c0 .447-.359.81-.8.81H4.399a.805.805 0 0 1-.8-.81zm16.8 6.245-2.896-2.168v-2.404l2.896-2.007z" clip-rule="evenodd"/></svg>