<svg xmlns="http://www.w3.org/2000/svg" fill="none" viewBox="0 0 24 24"><path fill="#62757E" fill-rule="evenodd" d="M6.04 6.95c0-1.06.86-1.92 1.92-1.92h3.03c1.06 0 1.919.86 1.919 1.92v2.02a1.92 1.92 0 0 1-1.92 1.919H7.96a1.92 1.92 0 0 1-1.919-1.92zm1.92-.102a.1.1 0 0 0-.101.101v2.02c0 .056.045.102.1.102h3.03a.1.1 0 0 0 .102-.101V6.95a.1.1 0 0 0-.101-.102z" clip-rule="evenodd"/><path fill="#62757E" fill-rule="evenodd" d="M5.94 2a2.93 2.93 0 0 0-2.93 2.93v11.644c0 .172-.04.342-.117.496l-.625 1.25A2.543 2.543 0 0 0 4.543 22h9.863a2.544 2.544 0 0 0 2.275-3.68l-.624-1.25a1.1 1.1 0 0 1-.118-.496V9.88h.683a.53.53 0 0 1 .53.53v5.195a2.424 2.424 0 0 0 4.848 0V8.761a2.93 2.93 0 0 0-.705-1.905l-1.977-2.309a.91.91 0 1 0-1.381 1.183l.514.6c-.107.516-.013 1.192.302 1.857.354.75.9 1.3 1.429 1.513v5.905a.606.606 0 1 1-1.212 0v-5.194a2.35 2.35 0 0 0-2.346-2.349h-.685V4.929A2.93 2.93 0 0 0 13.01 2zM4.827 4.93c0-.614.498-1.112 1.111-1.112h7.071c.614 0 1.111.498 1.111 1.111v11.645c0 .454.106.903.31 1.31l.624 1.248a.724.724 0 0 1-.65 1.05h-9.86a.725.725 0 0 1-.648-1.05l.624-1.248c.203-.407.31-.856.31-1.31z" clip-rule="evenodd"/></svg>