<svg xmlns="http://www.w3.org/2000/svg" fill="none" viewBox="0 0 24 24"><path fill="#62757E" d="M8.408 6.705a.75.75 0 1 0-1.5 0v.878H6.03a.75.75 0 1 0 0 1.5h.878v.878a.75.75 0 1 0 1.5 0v-.878h.878a.75.75 0 1 0 0-1.5h-.878zm.932 11.463a.75.75 0 0 1-1.061 0l-.62-.621-.622.621a.75.75 0 1 1-1.06-1.06l.62-.622-.62-.62a.75.75 0 0 1 1.06-1.061l.621.62.62-.62a.75.75 0 0 1 1.062 1.06l-.621.621.62.621a.75.75 0 0 1 0 1.06m9.431-9.834a.75.75 0 0 1-.75.75h-3.255a.75.75 0 0 1 0-1.5h3.255a.75.75 0 0 1 .75.75m-.736 7.413a.75.75 0 0 0 0-1.5h-3.256a.75.75 0 0 0 0 1.5zm.75 1.552a.75.75 0 0 1-.75.75h-3.256a.75.75 0 0 1 0-1.5h3.256a.75.75 0 0 1 .75.75"/><path fill="#62757E" fill-rule="evenodd" d="M7 2a5 5 0 0 0-5 5v10a5 5 0 0 0 5 5h10a5 5 0 0 0 5-5V7a5 5 0 0 0-5-5zm10 1.75H7A3.25 3.25 0 0 0 3.75 7v10A3.25 3.25 0 0 0 7 20.25h3.878a2.5 2.5 0 0 1-.128-.793v-6.25a2.5 2.5 0 0 1 2.5-2.5h6.25q.393.001.75.115V7A3.25 3.25 0 0 0 17 3.75m3.25 9.457v3.75a3.25 3.25 0 0 1-3.25 3.25h-3.75a.75.75 0 0 1-.75-.75v-6.25a.75.75 0 0 1 .75-.75h6.25a.75.75 0 0 1 .75.75" clip-rule="evenodd"/></svg>