<svg xmlns="http://www.w3.org/2000/svg" fill="none" viewBox="0 0 24 24"><path fill="#62757E" fill-rule="evenodd" d="M18.75 21H5.25a.75.75 0 0 1-.75-.75v-.5c0-3.111 2.31-5.822 5.383-6.7a5.254 5.254 0 0 1-3.133-4.8A5.256 5.256 0 0 1 12 3a5.256 5.256 0 0 1 5.25 5.25 5.254 5.254 0 0 1-3.133 4.8c3.073.877 5.383 3.589 5.383 6.7v.5a.75.75 0 0 1-.75.75Zm-3-12.75A3.754 3.754 0 0 0 12 4.5a3.754 3.754 0 0 0-3.75 3.75A3.754 3.754 0 0 0 12 12a3.754 3.754 0 0 0 3.75-3.75Zm-3.75 6c-3.161 0-5.845 2.38-5.993 5.25h11.986c-.147-2.87-2.832-5.25-5.993-5.25Z" clip-rule="evenodd"/></svg>