<svg xmlns="http://www.w3.org/2000/svg" fill="none" viewBox="0 0 24 24"><path fill="#62757E" fill-rule="evenodd" d="M4.592 2.619a2.113 2.113 0 0 1 2.988 0l2.347 2.347c.855.855.704 2.09.346 2.876-.38.832-.24 1.681.266 2.188l3.895 3.895c.507.507 1.356.646 2.189.266.784-.358 2.02-.509 2.875.346l1.883 1.883a2.113 2.113 0 0 1 0 2.988l-1.479 1.48c-.97.968-2.427 1.416-3.803.887-1.958-.752-5.273-2.365-8.39-5.483C4.59 13.174 2.976 9.859 2.224 7.9c-.529-1.376-.081-2.834.888-3.803zm1.78 1.207a.406.406 0 0 0-.573 0l-1.48 1.48c-.567.567-.751 1.33-.5 1.982.694 1.808 2.195 4.895 5.096 7.797 2.902 2.901 5.99 4.402 7.797 5.097.652.25 1.415.066 1.983-.502l1.479-1.479a.406.406 0 0 0 0-.574l-1.883-1.882c-.128-.129-.479-.22-.96 0-1.352.617-3 .49-4.104-.612l-3.895-3.896c-1.104-1.103-1.23-2.752-.612-4.105.22-.48.128-.83 0-.96zm6.767-.551a.854.854 0 0 1 .965-.726l-.12.845.12-.845h.006l.01.002.03.005.101.018q.13.022.35.075c.293.07.7.184 1.17.363.937.356 2.154.98 3.224 2.05s1.694 2.287 2.05 3.223c.179.47.293.877.363 1.17a7 7 0 0 1 .092.452l.005.03.002.01v.005l-.845.12.845-.12a.855.855 0 0 1-1.69.241l-.002-.012a4 4 0 0 0-.068-.33 8 8 0 0 0-.298-.959c-.3-.787-.811-1.773-1.661-2.623s-1.837-1.362-2.624-1.662a8 8 0 0 0-1.225-.355l-.063-.011-.013-.002a.853.853 0 0 1-.724-.964m-.912 3.245a.854.854 0 0 1 .97-.718l-.125.845.126-.845h.002l.003.001.008.001.023.004.073.014q.092.017.246.054c.204.05.485.132.81.258.645.25 1.49.687 2.238 1.435a6.5 6.5 0 0 1 1.436 2.238 7 7 0 0 1 .312 1.056l.013.073.004.023.001.008v.004s0 .002-.843.128l.844-.128a.855.855 0 0 1-1.688.257v-.004l-.007-.036a5 5 0 0 0-.228-.764 4.8 4.8 0 0 0-1.05-1.648 4.8 4.8 0 0 0-1.649-1.05 5 5 0 0 0-.764-.228l-.035-.007h-.005a.854.854 0 0 1-.715-.97" clip-rule="evenodd"/></svg>