<svg xmlns="http://www.w3.org/2000/svg" fill="none" viewBox="0 0 24 24"><path fill="#62757E" d="M15.062 2a2.857 2.857 0 0 1 2.856 2.857v1.225h1.225A2.857 2.857 0 0 1 22 8.938v10.205A2.86 2.86 0 0 1 19.143 22H4.857A2.86 2.86 0 0 1 2 19.143V4.857A2.86 2.86 0 0 1 4.857 2zM4.857 3.633c-.676 0-1.224.548-1.224 1.224v14.286c0 .676.548 1.224 1.224 1.224h11.628a2.9 2.9 0 0 1-.199-1.049V4.858c0-.677-.548-1.225-1.224-1.225zm13.061 15.685c0 .325.13.636.36.866l.183.183h.682c.676 0 1.224-.548 1.224-1.224V8.938c0-.676-.548-1.224-1.224-1.224h-1.225zm-4.897-4.052a.817.817 0 0 1 0 1.632H6.898a.816.816 0 1 1 0-1.632zm0-4.082a.817.817 0 0 1 0 1.632H6.898a.817.817 0 0 1 0-1.632zM6.898 6.897a.816.816 0 1 1-.001 1.633.816.816 0 0 1 .002-1.633m6.123 0a.817.817 0 0 1 0 1.633H10.18a.817.817 0 0 1 0-1.633z"/></svg>