<svg xmlns="http://www.w3.org/2000/svg" fill="none" viewBox="0 0 24 24"><path fill="#62757E" fill-rule="evenodd" d="M6.04 6.95c0-1.06.86-1.92 1.92-1.92h3.03c1.06 0 1.92.86 1.92 1.92v2.02a1.92 1.92 0 0 1-1.92 1.919H7.96a1.92 1.92 0 0 1-1.92-1.92V6.95Zm1.92-.102a.101.101 0 0 0-.101.101v2.02c0 .056.045.102.1.102h3.031a.101.101 0 0 0 .101-.101V6.95a.101.101 0 0 0-.101-.102H7.96Z" clip-rule="evenodd"/><path fill="#62757E" fill-rule="evenodd" d="M5.94 2a2.93 2.93 0 0 0-2.93 2.93v11.643c0 .173-.04.343-.117.497l-.624 1.249a2.543 2.543 0 0 0 2.274 3.68h9.863a2.543 2.543 0 0 0 2.275-3.68l-.624-1.249a1.112 1.112 0 0 1-.118-.497V9.88h.683a.53.53 0 0 1 .53.53v5.195a2.424 2.424 0 0 0 4.848 0V8.761a2.93 2.93 0 0 0-.705-1.906l-1.977-2.308a.909.909 0 1 0-1.381 1.183l.514.6c-.107.515-.012 1.192.302 1.857.354.749.9 1.3 1.429 1.512v5.906a.606.606 0 1 1-1.212 0v-5.194a2.348 2.348 0 0 0-2.346-2.349h-.685V4.928A2.93 2.93 0 0 0 13.01 2H5.94ZM4.827 4.93c0-.614.498-1.112 1.111-1.112h7.071c.614 0 1.111.498 1.111 1.111v11.645c0 .454.106.903.31 1.31l.624 1.248a.726.726 0 0 1-.649 1.05H4.543a.725.725 0 0 1-.648-1.05l.624-1.248a2.93 2.93 0 0 0 .31-1.31V4.928Z" clip-rule="evenodd"/></svg>