<svg xmlns="http://www.w3.org/2000/svg" fill="none" viewBox="0 0 24 24"><path fill="#62757E" fill-rule="evenodd" d="M13.327 2a.886.886 0 0 0-.886.886v6.531a4.516 4.516 0 0 0 3.628 4.428v6.382h-1.29a.886.886 0 0 0 0 1.773h4.353a.886.886 0 1 0 0-1.773h-1.29v-6.382a4.516 4.516 0 0 0 3.628-4.428v-6.53A.886.886 0 0 0 20.583 2zm.886 5.188V3.773h5.484v1.959a1 1 0 0 0-.135.023zm0 1.56v.67a2.742 2.742 0 1 0 5.484 0V7.291l-5.349 1.433a1 1 0 0 1-.135.024" clip-rule="evenodd"/><path fill="#62757E" d="M3.773 2.886a.886.886 0 0 0-1.773 0v6.176a3.42 3.42 0 0 0 3.419 3.418h.463v8.634a.886.886 0 0 0 1.773 0V12.48h.296a3.42 3.42 0 0 0 3.419-3.418V2.886a.886.886 0 0 0-1.773 0v6.176c0 .909-.737 1.646-1.646 1.646h-.296V2.886a.886.886 0 0 0-1.773 0v7.822H5.42c-.91 0-1.646-.737-1.646-1.646z"/></svg>