<svg xmlns="http://www.w3.org/2000/svg" fill="none" viewBox="0 0 24 24"><path fill="#62757E" d="M22 11.594v-3.15C22 6.547 20.438 5 18.52 5c-.437 0-.79.35-.79.783 0 .432.353.782.79.782 1.047 0 1.899.843 1.899 1.88v1.71a4.93 4.93 0 0 0-3.338-1.295H6.92c-1.288 0-2.461.49-3.338 1.294v-1.71c0-1.036.852-1.879 1.899-1.879.437 0 .79-.35.79-.782A.785.785 0 0 0 5.48 5C3.562 5 2 6.546 2 8.445v3.147c0 .23.102.433.26.577A4.8 4.8 0 0 0 2 13.731C2 16.42 4.203 18.6 6.919 18.6s4.919-2.18 4.919-4.869a4.82 4.82 0 0 0-1.307-3.304h2.938a4.82 4.82 0 0 0-1.306 3.304c0 2.688 2.202 4.869 4.918 4.869S22 16.42 22 13.731a4.8 4.8 0 0 0-.26-1.562.78.78 0 0 0 .26-.577zM10.257 13.73c0 1.824-1.495 3.304-3.338 3.304s-3.338-1.48-3.338-3.304 1.495-3.304 3.338-3.304 3.338 1.48 3.338 3.304m6.824 3.304c-1.842 0-3.338-1.48-3.338-3.304s1.495-3.304 3.338-3.304 3.338 1.48 3.338 3.304-1.495 3.304-3.338 3.304"/></svg>