<svg xmlns="http://www.w3.org/2000/svg" fill="none" viewBox="0 0 24 24"><path fill="#62757E" fill-rule="evenodd" d="M4.857 2A2.857 2.857 0 0 0 2 4.857v14.286A2.857 2.857 0 0 0 4.857 22h14.285A2.857 2.857 0 0 0 22 19.143V8.939a2.857 2.857 0 0 0-2.857-2.857h-1.225V4.857A2.857 2.857 0 0 0 15.061 2zm13.061 5.714v11.604c0 .325.13.636.359.866l.184.183h.682c.676 0 1.224-.548 1.224-1.224V8.939c0-.676-.548-1.225-1.224-1.225zM3.633 4.857c0-.676.548-1.224 1.224-1.224h10.204c.677 0 1.225.548 1.225 1.224v14.46c0 .364.069.72.2 1.05H4.856a1.224 1.224 0 0 1-1.224-1.224zm2.449 2.857a.816.816 0 1 1 1.632 0 .816.816 0 0 1-1.632 0m6.939.817a.816.816 0 1 0 0-1.633H10.18a.816.816 0 0 0 0 1.633zM13.837 12c0 .45-.366.816-.816.816H6.898a.816.816 0 0 1 0-1.632h6.123c.45 0 .816.365.816.816m-.816 4.898a.816.816 0 1 0 0-1.633H6.898a.816.816 0 0 0 0 1.633z" clip-rule="evenodd"/></svg>