<svg xmlns="http://www.w3.org/2000/svg" fill="none" viewBox="0 0 24 24"><path fill="currentColor" fill-rule="evenodd" d="M15.88 10.65a.842.842 0 0 0-.934-.971L4.442 10.902a.84.84 0 0 0-.744.916l.553 5.478c.03.29.277.512.572.512 1.305 0 2.32 1.08 2.266 2.335a3.37 3.37 0 0 0 .209-.074c.62-.246 1.184-.685 1.331-1.56a.844.844 0 0 1 .835-.701h4.493a.844.844 0 0 0 .836-.7l1.087-6.459ZM6.077 21.16V22h.02l.038-.001a5.386 5.386 0 0 0 .53-.046 5.51 5.51 0 0 0 1.262-.328c.817-.323 1.752-.96 2.188-2.14h3.842a2.533 2.533 0 0 0 2.506-2.102l1.088-6.458c.278-1.653-1.123-3.108-2.803-2.912L4.244 9.237a2.521 2.521 0 0 0-2.231 2.748l.553 5.477a2.26 2.26 0 0 0 2.257 2.023.57.57 0 0 1 .566.662l-.147.877a.832.832 0 0 0 .189.68.85.85 0 0 0 .647.296v-.838Z" clip-rule="evenodd"/><path fill="currentColor" d="M5.23 12.694c0-.417.338-.755.755-.755h6.959a.755.755 0 0 1 0 1.51h-6.96a.755.755 0 0 1-.754-.755Zm0 2.515c0-.417.338-.755.755-.755h6.959a.755.755 0 0 1 0 1.51h-6.96a.755.755 0 0 1-.754-.755Z"/><path fill="currentColor" fill-rule="evenodd" d="M8.143 4.665a.842.842 0 0 1 .883-.987l10.483.611c.48.028.84.446.793.92l-.597 5.907a1.444 1.444 0 0 0-1.22 1.663l.134.788a1.418 1.418 0 0 1-.697-.394c-.171-.18-.343-.469-.424-.953a.846.846 0 0 0-.975-.689.84.84 0 0 0-.696.965c.13.774.435 1.376.86 1.824.42.444.916.693 1.367.83a4.05 4.05 0 0 0 1.69.134l.013-.002h.007s.002 0-.137-.828l.139.827a.84.84 0 0 0 .696-.965l-.264-1.565a1.448 1.448 0 0 0 1.173-1.272l.616-6.103c.144-1.422-.937-2.677-2.378-2.761l-10.484-.61c-1.643-.096-2.943 1.357-2.649 2.96L7 7a.846.846 0 0 0 .985.675.84.84 0 0 0 .681-.975l-.523-2.035Z" clip-rule="evenodd"/><path fill="currentColor" d="M10.311 6.238c0-.417.338-.755.755-.755h6.959a.755.755 0 1 1 0 1.51h-6.96a.755.755 0 0 1-.754-.755Z"/></svg>