<svg xmlns="http://www.w3.org/2000/svg" fill="none" viewBox="0 0 24 24"><path fill="#62757E" fill-rule="evenodd" d="M10.498 2a8.498 8.498 0 0 0-5.22 15.205l-3.102 3.103a.85.85 0 0 0 1.202 1.202L21.246 3.642a.85.85 0 1 0-1.202-1.202l-2.839 2.838A8.48 8.48 0 0 0 10.498 2m5.565 4.42a6.898 6.898 0 1 0-9.642 9.642zm-5.565 12.577a8.5 8.5 0 0 1-1.989-.235L9.9 17.371q.296.026.598.026A6.9 6.9 0 0 0 17.371 9.9l1.392-1.391c.153.638.234 1.304.234 1.99a8.46 8.46 0 0 1-1.6 4.964l4.367 4.367a.8.8 0 1 1-1.131 1.132L16.34 16.67a8.47 8.47 0 0 1-5.843 2.326" clip-rule="evenodd"/></svg>