<svg xmlns="http://www.w3.org/2000/svg" fill="none" viewBox="0 0 24 24"><path fill="#62757E" fill-rule="evenodd" d="M12 3.95c-4.723 0-8.433 3.495-8.433 7.666 0 1.965.813 3.766 2.17 5.133.493.496.979 1.305.761 2.239q-.129.552-.365 1.054a5.33 5.33 0 0 0 2.8-.964.78.78 0 0 1 .655-.115 9.2 9.2 0 0 0 2.412.318c4.723 0 8.433-3.494 8.433-7.665S16.723 3.951 12 3.951M5.175 21.584a7 7 0 0 1-.547-.076.783.783 0 0 1-.46-1.277c.385-.455.665-1 .804-1.597.042-.181-.033-.464-.347-.78C3.003 16.217 2 14.029 2 11.615c0-5.161 4.542-9.232 10-9.232 5.457 0 10 4.07 10 9.232s-4.543 9.232-10 9.232c-.852 0-1.68-.099-2.473-.284a6.9 6.9 0 0 1-4.352 1.019m7.753-9.021v.17c0 .104-.024.2-.06.29a1 1 0 0 1-.21.369.5.5 0 0 1-.102.07q-.028.014-.055.032a1 1 0 0 1-.212.108.8.8 0 0 1-.289.059.8.8 0 0 1-.288-.059 1 1 0 0 1-.37-.21 1 1 0 0 1-.211-.37.8.8 0 0 1-.059-.289v-.927c0-.512.416-.928.928-.928a.93.93 0 0 0 .928-.928.93.93 0 0 0-.928-.927.93.93 0 0 0-.928.927.928.928 0 0 1-1.855 0A2.786 2.786 0 0 1 12 7.167a2.786 2.786 0 0 1 2.783 2.782 2.78 2.78 0 0 1-1.855 2.613m0 2.953a.98.98 0 0 0-.27-.658c-.342-.344-.964-.344-1.316 0a.98.98 0 0 0-.27.658.98.98 0 0 0 .27.659.98.98 0 0 0 .658.269.98.98 0 0 0 .659-.27.98.98 0 0 0 .269-.658" clip-rule="evenodd"/></svg>