<svg xmlns="http://www.w3.org/2000/svg" fill="none" viewBox="0 0 24 24"><path fill="currentColor" fill-rule="evenodd" d="M2 4.73c0-1.085.88-1.965 1.964-1.965h11.48c1.085 0 1.964.88 1.964 1.965v1.862h2.628c1.085 0 1.964.88 1.964 1.964v9.566a3.112 3.112 0 0 1-3.112 3.113H5.112A3.112 3.112 0 0 1 2 18.122V4.73Zm14.149 14.872H5.112a1.48 1.48 0 0 1-1.48-1.48V4.73c0-.184.15-.332.332-.332h11.48c.183 0 .331.148.331.332v13.392a3.1 3.1 0 0 0 .374 1.48Zm2.739 0a1.48 1.48 0 0 0 1.48-1.48V8.556a.332.332 0 0 0-.332-.331h-2.628v9.897c0 .818.663 1.48 1.48 1.48ZM5.06 7.408c0-.45.366-.816.817-.816h3.06c.452 0 .817.365.817.816v3.061a.816.816 0 0 1-.816.817h-3.06a.816.816 0 0 1-.817-.817V7.41Zm1.633.817v1.428h1.428V8.225H6.694Zm4.49-.817c0-.45.365-.816.816-.816h1.53a.816.816 0 1 1 0 1.633H12a.816.816 0 0 1-.816-.817Zm0 3.061c0-.45.365-.816.816-.816h1.53a.816.816 0 0 1 0 1.633H12a.816.816 0 0 1-.816-.817ZM5.06 13.531c0-.451.366-.817.817-.817h7.653a.816.816 0 1 1 0 1.633H5.878a.816.816 0 0 1-.817-.816Zm0 3.06c0-.45.366-.816.817-.816h7.653a.816.816 0 1 1 0 1.633H5.878a.816.816 0 0 1-.817-.816Z" clip-rule="evenodd"/></svg>