<svg xmlns="http://www.w3.org/2000/svg" fill="none" viewBox="0 0 24 24"><path fill="#62757E" fill-rule="evenodd" d="M22 16.504c0 .717-.189 1.39-.519 1.97a.7.7 0 0 1-.171.276 3.99 3.99 0 0 1-3.306 1.75H5.996A3.996 3.996 0 0 1 2 16.504V6.996A3.996 3.996 0 0 1 5.996 3h12.008A3.996 3.996 0 0 1 22 6.996zM5.996 4.398h12.008a2.597 2.597 0 0 1 2.598 2.598v.376l-8.507 6.155-8.696-6.156v-.375a2.597 2.597 0 0 1 2.597-2.597M3.398 9.085v7.42q0 .181.025.358l4.619-4.49zm5.804 4.109-5.163 5.02a2.6 2.6 0 0 0 1.957.889h12.008a2.6 2.6 0 0 0 1.856-.781l-5.122-4.98-2.229 1.613a.7.7 0 0 1-.814.004zm6.686-.684 4.659 4.53q.055-.26.055-.535V9.1z" clip-rule="evenodd"/></svg>