<svg xmlns="http://www.w3.org/2000/svg" fill="none" viewBox="0 0 24 24"><path fill="#62757E" fill-rule="evenodd" d="M21.756 21.756a.83.83 0 0 1-1.179 0l-6.399-6.4a7.492 7.492 0 0 1-4.662 1.625C5.372 16.98 2 13.62 2 9.49 2 5.36 5.372 2 9.516 2c4.145 0 7.517 3.36 7.517 7.49a7.43 7.43 0 0 1-1.668 4.695l6.391 6.393a.833.833 0 0 1 0 1.178ZM9.516 3.652c-3.23 0-5.858 2.62-5.858 5.839 0 3.219 2.628 5.837 5.858 5.837 3.23 0 5.86-2.618 5.86-5.837 0-3.22-2.63-5.838-5.86-5.838Zm.4 5.015c1.15 0 2.084.935 2.084 2.083 0 .852-.515 1.584-1.25 1.907v.176a.834.834 0 0 1-1.667 0h-.416a.833.833 0 1 1 0-1.666h1.25c.23 0 .417-.188.417-.417a.418.418 0 0 0-.418-.417A2.086 2.086 0 0 1 7.834 8.25c0-.853.515-1.584 1.25-1.907v-.176a.833.833 0 0 1 1.666 0h.417a.833.833 0 0 1 0 1.666h-1.25a.417.417 0 0 0 0 .833Z" clip-rule="evenodd"/></svg>