<svg xmlns="http://www.w3.org/2000/svg" fill="none" viewBox="0 0 24 24"><g clip-path="url(#a)"><path fill="#1B1B1B" stroke="#fff" stroke-width=".656" d="M12 21.672c5.342 0 9.672-4.33 9.672-9.672S17.342 2.328 12 2.328 2.328 6.658 2.328 12s4.33 9.672 9.672 9.672Z"/><path fill="#fff" fill-rule="evenodd" d="M14.836 9.164a.287.287 0 0 0 .443-.033.283.283 0 0 0-.033-.393c-1.082-1.033-2.05-1.558-3.656-1.476-1.688.082-3.18.968-3.082 2.836.082 1.656 1.689 2.263 3.099 2.804 1.082.41 2.032.77 2.082 1.54.049.853-.82 1.361-1.574 1.41-1.426.082-2.263-.426-3.197-1.327a.303.303 0 0 0-.41-.017c-.13.115-.13.312-.016.443 1.049 1.049 2.131 1.574 3.705 1.492 1.574-.115 3.508-1 3.41-2.87-.082-1.622-1.623-2.229-3.017-2.753-1.147-.443-2.213-.853-2.262-1.787-.033-.672.77-1.164 1.344-1.197 1.394-.066 2.262.426 3.164 1.328m.18 4.443c0 .72-.393 1.344-.983 1.705L14 15.295c.213-.295.246-.672.246-1.033 0-1.065-1.164-1.475-2.394-1.918-1.36-.492-2.786-1-2.786-2.442 0-.656.295-1.361.868-1.689l.017.033a2.3 2.3 0 0 0-.213 1c0 1.18 1.295 1.656 2.606 2.147 1.345.492 2.672.984 2.672 2.214" clip-rule="evenodd"/><path stroke="#fff" stroke-linecap="round" stroke-width=".328" d="M11.918 19.705c4.295 0 7.787-3.492 7.787-7.787s-3.492-7.787-7.787-7.787-7.787 3.492-7.787 7.787 3.492 7.787 7.787 7.787Z"/></g><defs><clipPath id="a"><path fill="#fff" d="M2 2h20v20H2z"/></clipPath></defs></svg>