<svg xmlns="http://www.w3.org/2000/svg" fill="none" viewBox="0 0 24 24"><g clip-path="url(#a)"><path fill="#006AA8" d="M24 12A12 12 0 1 1 .001 12 12 12 0 0 1 24 12"/><path fill="#fff" fill-rule="evenodd" d="m15.057 12.186-.876 1.02h-.032l.107-1.65V7.272h-1.163v9.335h1.163v-2.532l.71-.492 2.18 3.024H18.5l-2.775-3.737 2.6-2.85h-1.368zm-4.175 3.12c.155-.326.233-.684.227-1.045a2.4 2.4 0 0 0-.154-.893 1.9 1.9 0 0 0-.448-.667 3.1 3.1 0 0 0-.746-.515 9 9 0 0 0-1.03-.444q-.546-.198-.921-.372a2.7 2.7 0 0 1-.591-.378 1.2 1.2 0 0 1-.322-.45 1.6 1.6 0 0 1-.098-.594 1.09 1.09 0 0 1 .43-.911q.434-.343 1.226-.343.556 0 1.098.135.494.11.964.297l.43-.936a6 6 0 0 0-1.096-.342 6.4 6.4 0 0 0-1.388-.135 4.2 4.2 0 0 0-1.154.15 2.7 2.7 0 0 0-.896.436 2 2 0 0 0-.579.696 2.1 2.1 0 0 0-.207.942 2.9 2.9 0 0 0 .129.9c.09.26.228.5.409.708q.308.335.7.563.483.27 1.005.457.604.222.998.414.342.15.63.39c.146.114.26.265.33.438.069.18.102.371.097.564a1.2 1.2 0 0 1-.5 1.031q-.49.36-1.53.36-.327 0-.655-.042A8 8 0 0 1 6 15.438a7 7 0 0 1-.5-.192v1.068c.332.151.683.254 1.044.306q.67.111 1.349.107a5 5 0 0 0 1.342-.162 3 3 0 0 0 1.012-.486c.27-.204.487-.469.635-.773" clip-rule="evenodd"/></g><defs><clipPath id="a"><path fill="#fff" d="M0 0h24v24H0z"/></clipPath></defs></svg>