<svg xmlns="http://www.w3.org/2000/svg" fill="none" viewBox="0 0 24 24"><g clip-path="url(#a)"><path fill="#006AA8" d="M24 12A12 12 0 1 1 .001 12 12 12 0 0 1 24 12Z"/><path fill="#fff" fill-rule="evenodd" d="m15.057 12.186-.876 1.02h-.032l.107-1.65V7.272h-1.163v9.335h1.163v-2.532l.71-.492 2.18 3.024H18.5l-2.775-3.737 2.6-2.85h-1.368l-1.9 2.166Zm-4.175 3.12c.155-.326.233-.684.227-1.045a2.352 2.352 0 0 0-.154-.893 1.89 1.89 0 0 0-.448-.667 3.1 3.1 0 0 0-.746-.515 9.03 9.03 0 0 0-1.03-.444 11.726 11.726 0 0 1-.921-.372 2.72 2.72 0 0 1-.591-.378 1.204 1.204 0 0 1-.322-.45 1.632 1.632 0 0 1-.098-.594 1.092 1.092 0 0 1 .43-.911c.29-.229.698-.343 1.226-.343.37 0 .738.046 1.098.135.329.073.651.172.964.297l.43-.936a5.772 5.772 0 0 0-1.096-.342 6.354 6.354 0 0 0-1.388-.135 4.196 4.196 0 0 0-1.154.15 2.668 2.668 0 0 0-.896.436 1.966 1.966 0 0 0-.579.696 2.073 2.073 0 0 0-.207.942 2.9 2.9 0 0 0 .129.9c.09.26.228.5.409.708.204.222.44.412.7.563.321.18.658.333 1.005.457.403.148.735.286.998.414.227.1.439.231.63.39.146.114.26.265.33.438.069.18.102.371.097.564a1.195 1.195 0 0 1-.5 1.031c-.327.24-.837.36-1.53.36-.218 0-.437-.014-.655-.042A8.054 8.054 0 0 1 6 15.438a6.882 6.882 0 0 1-.5-.192v1.068c.332.151.683.254 1.044.306.446.074.897.11 1.349.107a5.11 5.11 0 0 0 1.342-.162 2.97 2.97 0 0 0 1.012-.486c.27-.204.487-.469.635-.773Z" clip-rule="evenodd"/></g><defs><clipPath id="a"><path fill="#fff" d="M0 0h24v24H0z"/></clipPath></defs></svg>