<svg xmlns="http://www.w3.org/2000/svg" fill="none" viewBox="0 0 24 24"><path fill="#62757E" fill-rule="evenodd" d="M19.249 22H4.459c-1.36 0-2.395-1.113-2.395-2.492v-8.023a.83.83 0 0 1 .023-.69c.004-.01.002-.02.007-.028.03-.056.072-.098.112-.14.02-.024.028-.05.05-.071L6.031 6.99c.055-.052.121-.082.185-.115V5.294c0-.46.253-.794.707-.794h1.9L11.3 2.216a.814.814 0 0 1 1.105.001L14.883 4.5h1.901c.454 0 1.063.334 1.063.794v1.877l3.482 3.27c.349.13.671.382.671.706v8.361C22 20.888 20.609 22 19.249 22M4.21 10.988l2.007 1.11V9.093zm7.644-7.028-.586.54h1.172zm4.331 8.86V6.13H9.252c-.03.004-.058.016-.088.016-.026 0-.05-.013-.077-.016H7.878v6.69c0 .06-.029.115-.045.173l.913.505c.433-1.317 1.652-2.276 3.101-2.276 1.452 0 2.674.962 3.104 2.282zm-5.953 1.5 1.622.897 1.61-.891a1.634 1.634 0 0 0-1.617-1.437c-.831 0-1.511.626-1.615 1.431m7.615-4.877v2.459l1.648-.912zm2.492 2.978-8.092 4.477a.81.81 0 0 1-.787 0l-7.735-4.28v6.89c0 .46.28.826.733.826h14.79c.454 0 1.09-.366 1.09-.826zm-10.95-2.92a.83.83 0 0 1-.822-.834v-.834c0-.46.368-.833.822-.833s.822.374.822.833v.834c0 .46-.368.834-.822.834" clip-rule="evenodd"/></svg>