<svg xmlns="http://www.w3.org/2000/svg" fill="none" viewBox="0 0 24 24"><path fill="#62757E" fill-rule="evenodd" d="M4.8 2.002a2.8 2.8 0 0 0-2.8 2.8v14.404a2.8 2.8 0 0 0 2.8 2.8H11a.8.8 0 0 0 0-1.6H4.8a1.2 1.2 0 0 1-1.2-1.2V4.802a1.2 1.2 0 0 1 1.2-1.2h14.4a1.2 1.2 0 0 1 1.2 1.2v6.202a.8.8 0 1 0 1.6 0V4.802a2.8 2.8 0 0 0-2.8-2.8zM22 17a5 5 0 1 1-10 0 5 5 0 0 1 10 0m-1.95-2.08a.8.8 0 0 1 .03 1.13l-3.318 3.5a.8.8 0 0 1-1.113.047l-1.681-1.5a.8.8 0 0 1 1.065-1.194l1.102.983 2.784-2.936a.8.8 0 0 1 1.131-.03" clip-rule="evenodd"/></svg>