<svg xmlns="http://www.w3.org/2000/svg" fill="none" viewBox="0 0 24 24"><path fill="currentColor" fill-rule="evenodd" d="M12 18.858a7.06 7.06 0 0 1-.251-.005l-1.142 1.74a1.236 1.236 0 0 1-1.369.513 10 10 0 0 1-4.17-2.386 1.228 1.228 0 0 1-.24-1.446l.949-1.852a7.249 7.249 0 0 1-.244-.418l-2.098-.112a1.23 1.23 0 0 1-1.134-.92A9.78 9.78 0 0 1 2 11.576c0-.806.102-1.608.301-2.396a1.228 1.228 0 0 1 1.13-.92l2.102-.11c.077-.142.158-.282.244-.419l-.95-1.853a1.229 1.229 0 0 1 .241-1.446 9.995 9.995 0 0 1 4.167-2.384c.52-.15 1.078.063 1.372.512l1.142 1.74a7.23 7.23 0 0 1 .502 0l1.142-1.74a1.237 1.237 0 0 1 1.37-.513 10.001 10.001 0 0 1 4.17 2.385c.392.376.484.964.24 1.447l-.95 1.852c.086.137.167.276.244.418l2.098.112c.535.025 1 .396 1.134.92.198.787.301 1.589.301 2.396 0 .806-.102 1.607-.301 2.396a1.229 1.229 0 0 1-1.13.92l-2.102.11a7.418 7.418 0 0 1-.244.418l.95 1.856a1.23 1.23 0 0 1-.241 1.444 9.998 9.998 0 0 1-4.167 2.384 1.238 1.238 0 0 1-1.372-.512l-1.142-1.74a7.06 7.06 0 0 1-.251.005Zm-2.569.67 1.258-1.916a.784.784 0 0 1 .729-.35 6.183 6.183 0 0 0 1.164 0c.29-.028.57.107.73.35l1.257 1.916a8.43 8.43 0 0 0 3.092-1.766l-1.044-2.037a.784.784 0 0 1 .063-.817 5.75 5.75 0 0 0 .576-.988.784.784 0 0 1 .671-.457l2.311-.123a8.168 8.168 0 0 0 .195-1.764c0-.592-.066-1.181-.195-1.763l-2.31-.123a.784.784 0 0 1-.672-.457 5.754 5.754 0 0 0-.576-.988.784.784 0 0 1-.063-.817l1.044-2.037a8.433 8.433 0 0 0-3.092-1.766L13.31 5.541a.784.784 0 0 1-.729.35A6.192 6.192 0 0 0 12 5.862c-.188 0-.381.01-.582.03a.784.784 0 0 1-.729-.35L9.431 3.624A8.43 8.43 0 0 0 6.34 5.391l1.044 2.037a.784.784 0 0 1-.063.817 5.64 5.64 0 0 0-.575.987.784.784 0 0 1-.672.458l-2.311.123a8.167 8.167 0 0 0-.195 1.763c0 .592.066 1.182.195 1.764l2.31.123a.784.784 0 0 1 .673.458c.156.344.348.673.575.987a.784.784 0 0 1 .063.817L6.34 17.762a8.434 8.434 0 0 0 3.092 1.766Zm-1.075-7.951a3.644 3.644 0 1 1 7.288 0 3.644 3.644 0 0 1-7.288 0Zm1.568 0a2.076 2.076 0 1 0 4.153 0 2.076 2.076 0 0 0-4.153 0Z" clip-rule="evenodd"/></svg>