<svg xmlns="http://www.w3.org/2000/svg" fill="none" viewBox="0 0 24 24"><path fill="#62757E" fill-rule="evenodd" d="M18 9a2.98 2.98 0 0 1-2.266-1.055L8.925 11.35c.046.209.075.424.075.647q0 .305-.06.593l6.798 3.46A2.98 2.98 0 0 1 18 15c1.654 0 3 1.346 3 3s-1.346 3-3 3a3.003 3.003 0 0 1-2.938-3.609l-6.789-3.456A2.98 2.98 0 0 1 6 15c-1.654 0-3-1.346-3-3.001s1.346-3 3-3a2.98 2.98 0 0 1 2.236 1.019l6.826-3.414A3.003 3.003 0 0 1 18 3c1.654 0 3 1.346 3 3s-1.346 3-3 3m0 10.5c.827 0 1.5-.674 1.5-1.5 0-.827-.673-1.5-1.5-1.5-.826 0-1.5.673-1.5 1.5 0 .826.674 1.5 1.5 1.5M6 10.499c-.827 0-1.5.673-1.5 1.5S5.173 13.5 6 13.5s1.5-.674 1.5-1.501-.673-1.5-1.5-1.5M18 4.5c-.826 0-1.5.674-1.5 1.5 0 .827.674 1.5 1.5 1.5.827 0 1.5-.673 1.5-1.5 0-.826-.673-1.5-1.5-1.5" clip-rule="evenodd"/></svg>