<svg xmlns="http://www.w3.org/2000/svg" fill="none" viewBox="0 0 24 24"><path fill="#62757E" fill-rule="evenodd" d="M11.435 1.234a.8.8 0 0 1 1.13 0l2.992 2.993a.798.798 0 0 1-1.128 1.129l-1.63-1.63V14.52a.798.798 0 0 1-1.597 0V3.725L9.57 5.355a.798.798 0 0 1-1.129-1.128zM7.51 8.583c-.8 0-1.447.648-1.447 1.447v7.927c0 .799.648 1.447 1.447 1.447h8.98c.799 0 1.447-.648 1.447-1.447V10.03c0-.8-.648-1.447-1.447-1.447h-1.497a.798.798 0 0 1 0-1.596h1.497a3.043 3.043 0 0 1 3.043 3.043v7.927A3.043 3.043 0 0 1 16.49 21H7.51a3.043 3.043 0 0 1-3.043-3.043V10.03A3.043 3.043 0 0 1 7.51 6.987h1.497a.798.798 0 1 1 0 1.596z" clip-rule="evenodd"/></svg>