<svg xmlns="http://www.w3.org/2000/svg" fill="none" viewBox="0 0 24 24"><path fill="#667489" d="M4.857 22A2.865 2.865 0 0 1 2 19.144V8.945a.816.816 0 1 1 1.633 0v10.2c0 .682.54 1.223 1.224 1.223h14.286c.683 0 1.224-.54 1.224-1.224v-1.02c0-.469.368-.826.817-.826.234 0 .438.092.581.245a.808.808 0 0 1 .235.581v1.02A2.865 2.865 0 0 1 19.143 22H4.857Zm2.03-4.07a.819.819 0 0 1-.805-.826c0-6.078 4.938-11.014 11.02-11.014h1.092L15.51 3.407a.794.794 0 0 1-.245-.581c0-.449.368-.816.817-.816.214 0 .428.092.581.245l4.082 4.08a.808.808 0 0 1 .235.58.826.826 0 0 1-.235.582l-4.082 4.08a.81.81 0 0 1-1.184 0 .775.775 0 0 1-.224-.582.78.78 0 0 1 .255-.57l2.694-2.693h-1.092c-5.173 0-9.388 4.212-9.388 9.382 0 .47-.367.827-.816.827h-.01l-.01-.01Z"/></svg>