<svg xmlns="http://www.w3.org/2000/svg" fill="none" viewBox="0 0 24 24"><path fill="#62757E" fill-rule="evenodd" d="M20.556 17.333H3.444c-.796 0-1.444-.635-1.444-1.416v-10.5C2 4.636 2.648 4 3.444 4h17.112C21.352 4 22 4.636 22 5.417v10.5c0 .78-.648 1.416-1.444 1.416m-.223-11.666H3.667v10h16.666zM7 19h10a.833.833 0 1 1 0 1.667H7A.833.833 0 1 1 7 19m5-9.91h1.322l-.245-.243a.833.833 0 0 1 1.179-1.179l1.667 1.666a.834.834 0 0 1 0 1.179l-1.667 1.666a.83.83 0 0 1-1.178 0 .83.83 0 0 1 0-1.177l.243-.245H12a2.503 2.503 0 0 0-2.5 2.5.833.833 0 1 1-1.666 0A4.17 4.17 0 0 1 12 9.091" clip-rule="evenodd"/></svg>