<svg xmlns="http://www.w3.org/2000/svg" fill="none" viewBox="0 0 24 24"><path fill="#F00500" d="M12 22c5.523 0 10-4.477 10-10S17.523 2 12 2 2 6.477 2 12s4.477 10 10 10Z"/><path fill="#000" d="M15.818 12.639c-.007.035-.109.139-.211.215-.3.22-.837.424-1.383.522-.31.056-.62.065-.715.019-.06-.03-.069-.054-.047-.133.046-.162.194-.34.424-.508.117-.085.593-.374.815-.496.365-.2.66-.319.86-.347a.431.431 0 0 1 .163 0c.04.015.083.13.1.269.01.074.005.4-.006.459Zm-5.121.72c-.013.025-.078.053-.152.064-.074.011-.3.005-.428-.01a4.51 4.51 0 0 1-1.306-.377 1.64 1.64 0 0 1-.45-.302l-.062-.063-.006-.082a2.235 2.235 0 0 1 .009-.45.59.59 0 0 1 .067-.191c.017-.022.017-.022.096-.022a.94.94 0 0 1 .306.056c.268.083.665.283 1.15.574.4.239.55.357.665.517.078.1.13.241.11.285Zm3.078 3.025c0 .006-.026.11-.059.234-.02.076-.04.152-.058.229-.025.002-.046.004-.07.002h-.07l-.095.226-.107.256-.013.03-.045-.073-.046-.074v-.602l-.018.004a5.924 5.924 0 0 1-1.843.024 1.445 1.445 0 0 0-.143-.018c-.002.003 0 .142.004.314l.006.308-.036.057c-.02.03-.04.056-.04.058-.006.007-.028-.028-.078-.128a1.47 1.47 0 0 1-.121-.33l-.015-.063-.068.004-.067.007-.018-.08a2.23 2.23 0 0 1-.024-.148l-.006-.07-.056-.05-.072-.061a.049.049 0 0 1-.016-.037v-.026l.272.002.272.002.008.028.009.03.094.003.365.011.272.006.069-.108.072-.108h.091l-.002-.227-.002-.226-.12-.052c-.385-.17-.61-.362-.695-.597-.018-.049-.018-.066-.022-.283-.002-.216-.002-.235.013-.283a.316.316 0 0 1 .224-.221c.037-.011.135-.011.648-.011l.604.002.067.032a.378.378 0 0 1 .163.129c.052.069.068.123.068.256 0 .19-.013.352-.033.417a.901.901 0 0 1-.126.25c-.109.14-.306.278-.488.342l-.051.019.002.229.002.228.048.004.048.005.065.097.063.098h.292c.16 0 .301.002.315.004.021.005.026.003.047-.034l.026-.04h.25c.188-.009.244-.004.244.003Z"/><path fill="#000" d="M12.627 17.008c-.041.023-.07.034-.076.03-.006-.002-.037-.029-.07-.052l-.058-.048-.061.065c-.133.144-.138.15-.176.152-.06.006-.074-.004-.148-.115a2.563 2.563 0 0 1-.07-.104s-.028-.005-.06-.007l-.061-.006-.028.058-.029.059-.05-.015a1.053 1.053 0 0 1-.115-.046l-.065-.032v-.124l.578.002.578.002.002.059c.003.069.005.067-.091.122Z"/><path fill="#fff" d="m18.06 14.356-.003-.048a4.621 4.621 0 0 0-3.394 1.05s-.445-2.044-2.531-2.044c-2.088 0-2.86 2.044-2.86 2.044-1.17-1.259-2.735-1.168-3.3-1.085l-.003.041c-.017.315-.008.465.044.663.163.62.665 1.302 1.452 1.972 1.289 1.095 3.036 1.886 4.36 1.978 1.38.093 3.417-.713 4.773-1.892.213-.188.413-.388.6-.601.134-.157.334-.427.32-.427-.005 0 0-.004.008-.008.006-.005.013-.011.009-.015-.003-.003.002-.01.009-.011.006-.003.01-.006.008-.011-.002-.005 0-.009.01-.01.005-.003.008-.01.005-.014-.002-.004 0-.009.005-.009.004 0 .009-.006.009-.01 0-.005.004-.012.008-.012.005 0 .01-.004.01-.008a6.489 6.489 0 0 0 .209-.371c.123-.281.2-.531.238-.781.013-.12.023-.339.015-.392v.001Zm-5.433 2.651c-.041.024-.07.035-.076.031-.006-.003-.037-.029-.07-.053l-.059-.047-.06.065c-.133.144-.138.15-.176.152-.061.006-.074-.005-.148-.115-.04-.056-.07-.104-.07-.104s-.028-.005-.06-.007l-.061-.006-.028.058-.029.059-.05-.015a1.034 1.034 0 0 1-.115-.046l-.065-.032v-.125l.578.003.578.002.002.058c.003.07.005.068-.091.122Zm1.087-.39-.059.227c-.024.002-.046.005-.07.002h-.069l-.094.229-.106.256-.013.03-.046-.074-.045-.073v-.602l-.018.004a5.925 5.925 0 0 1-1.843.024 1.475 1.475 0 0 0-.143-.018c-.002.003 0 .142.004.314l.006.308-.036.056c-.02.031-.04.057-.04.06-.006.006-.028-.029-.078-.129a1.465 1.465 0 0 1-.121-.33l-.015-.063-.068.004-.067.007-.018-.081a2.298 2.298 0 0 1-.024-.148l-.006-.069-.056-.05a2 2 0 0 0-.072-.061.049.049 0 0 1-.016-.037v-.026l.272.002.272.002.008.028.009.029.094.004.365.011.271.006.07-.108.072-.109h.091l-.002-.226-.002-.226-.12-.052c-.385-.17-.61-.362-.695-.598-.018-.048-.018-.065-.022-.282-.002-.216-.002-.235.013-.283a.316.316 0 0 1 .224-.221c.037-.012.135-.012.648-.012l.604.003.067.032a.379.379 0 0 1 .162.128c.053.07.069.124.069.257 0 .19-.014.352-.033.417a.902.902 0 0 1-.126.25c-.109.14-.306.278-.488.341l-.051.02.002.229.002.228.048.004.047.005.066.097.063.098h.291c.161 0 .302.002.316.004.021.005.026.002.047-.034l.026-.04h.25c.194 0 .25.003.25.009a1.54 1.54 0 0 0-.067.226Z"/><path fill="#FFA409" d="M18.044 14.134a6.382 6.382 0 0 0-.844-2.95.766.766 0 0 1-.047-.09l-.01-.018c.068-.202.345-1.048.563-2.015.298-1.312.488-2.847-.09-3.308 0 0-1-.074-2.34 1.239a8.946 8.946 0 0 0-.99 1.176l-.094-.03a6.784 6.784 0 0 0-1.66-.322c-.17-.013-.803-.013-1.009 0a5.877 5.877 0 0 0-1.706.345 8.847 8.847 0 0 0-1.024-1.167C7.4 5.675 6.363 5.75 6.363 5.75c-.613.476-.404 2.08-.088 3.437.157.665.344 1.323.561 1.971a.485.485 0 0 1-.023.048c-.507 1.026-.781 2.015-.846 3.067.567-.083 2.13-.176 3.301 1.084 0 0 .774-2.043 2.86-2.043 2.087 0 2.533 2.044 2.533 2.044a4.633 4.633 0 0 1 3.393-1.05l-.01-.175ZM7.248 10.34s-.813-2.032-.605-3.193c.035-.195.1-.367.203-.497 0 0 .92.091 2.408 1.743 0 0-.283.137-.66.428l-.005.002a5.226 5.226 0 0 0-1.341 1.517Zm3.45 3.02c-.014.025-.08.054-.153.064-.074.011-.3.005-.428-.01a4.51 4.51 0 0 1-1.306-.377 1.639 1.639 0 0 1-.45-.302l-.062-.063-.006-.082a2.234 2.234 0 0 1 .009-.45.589.589 0 0 1 .067-.191c.017-.022.017-.022.096-.022a.94.94 0 0 1 .306.056c.268.083.665.283 1.15.574.4.24.55.357.665.517.078.1.13.241.11.285h.002Zm5.12-.72c-.007.035-.109.139-.211.215-.3.22-.837.424-1.383.522-.31.056-.62.065-.715.02-.06-.032-.069-.055-.047-.133.046-.163.194-.342.424-.51.117-.084.593-.373.815-.495.365-.2.66-.319.86-.347a.43.43 0 0 1 .163 0c.04.015.083.13.1.27.01.073.005.4-.006.458Zm-.361-3.819-.005-.002a4.05 4.05 0 0 0-.638-.429c1.437-1.651 2.325-1.743 2.325-1.743.098.133.161.302.196.498.202 1.16-.582 3.195-.582 3.195a5.177 5.177 0 0 0-1.296-1.519Z"/><path fill="#FF9300" d="M17.337 7.144c-.17-.022-.971-.026-1.88 1.676l-.005-.003a4.055 4.055 0 0 0-.638-.428c1.437-1.652 2.325-1.743 2.325-1.743.1.133.163.302.198.498Z"/><path fill="#FF8300" d="M16.754 10.34a5.157 5.157 0 0 0-1.297-1.52c.909-1.702 1.709-1.698 1.88-1.676.202 1.163-.583 3.195-.583 3.195Zm.615-3.19-.032-.006.032.006Z"/><path fill="#FF9300" d="M9.254 8.39s-.283.137-.66.427c0 0-.003.003-.005.003-.942-1.704-1.77-1.698-1.948-1.676.035-.196.1-.367.202-.498.003 0 .924.091 2.41 1.744Z"/><path fill="#FF8300" d="M8.59 8.82c-.542.413-.999.93-1.343 1.519 0 0-.812-2.032-.604-3.195.176-.022 1.006-.026 1.948 1.676Z"/><path fill="#FF8300" d="m6.644 7.144-.035.006.034-.006Z"/><path fill="#fff" d="M14.555 11.467s-.696.043-.609-.5c.088-.543.63-.608.783-.587.152.022.76.24.652.696-.108.456-.261.369-.348.391-.087.022-.478 0-.478 0Zm-5.13 0s-.695.043-.608-.5c.087-.543.63-.608.782-.587.152.022.761.24.652.696-.108.456-.26.369-.347.391-.088.022-.478 0-.478 0h-.001Z"/></svg>