<svg xmlns="http://www.w3.org/2000/svg" fill="none" viewBox="0 0 24 24"><path fill="#F00500" d="M12 22c5.523 0 10-4.477 10-10S17.523 2 12 2 2 6.477 2 12s4.477 10 10 10"/><path fill="#000" d="M15.817 12.639c-.006.035-.108.139-.21.215-.3.22-.837.424-1.383.522-.31.056-.621.065-.715.019-.06-.03-.07-.054-.047-.133.045-.162.194-.34.424-.508.117-.085.593-.374.815-.496.364-.2.66-.319.86-.347a.4.4 0 0 1 .163 0c.04.015.083.13.1.269.009.074.005.4-.007.459m-5.12.72c-.013.025-.078.053-.152.064a2.5 2.5 0 0 1-.428-.01 4.5 4.5 0 0 1-1.307-.377 1.6 1.6 0 0 1-.45-.302l-.06-.063-.007-.082a2.2 2.2 0 0 1 .009-.45.6.6 0 0 1 .067-.191c.017-.022.017-.022.096-.022a1 1 0 0 1 .306.056c.268.083.665.283 1.15.574.4.239.55.357.665.517.078.1.13.241.11.285m3.078 3.025c0 .006-.026.11-.059.234l-.059.229q-.034.004-.07.002h-.068l-.097.226-.106.256-.013.03-.046-.073-.045-.074v-.602l-.018.004a6 6 0 0 1-1.843.024 2 2 0 0 0-.144-.018c-.002.003 0 .142.005.314l.006.308-.036.057c-.02.03-.04.056-.04.058-.006.007-.028-.028-.078-.128a1.5 1.5 0 0 1-.122-.33l-.015-.063-.067.004-.068.007-.017-.08a2 2 0 0 1-.024-.148l-.006-.07-.056-.05-.072-.061q-.017-.016-.016-.037v-.026l.272.002.272.002.008.028.009.03.093.003.365.011.272.006.07-.108.072-.108h.09l-.001-.227-.002-.226-.12-.052c-.385-.17-.61-.362-.695-.597-.018-.049-.018-.066-.022-.283-.002-.216-.002-.235.013-.283a.32.32 0 0 1 .223-.221c.038-.011.136-.011.649-.011l.603.002.068.032a.4.4 0 0 1 .162.129c.053.069.068.123.068.256 0 .19-.013.352-.032.417a.9.9 0 0 1-.126.25c-.109.14-.307.278-.488.342l-.052.019.003.229.002.228.048.004.047.005.066.097.063.098h.291c.161 0 .302.002.315.004.022.005.027.003.048-.034l.026-.04h.25c.188-.009.244-.004.244.003"/><path fill="#000" d="M12.627 17.008c-.041.023-.07.034-.076.03-.006-.002-.037-.029-.07-.052l-.058-.048-.061.065c-.133.144-.138.15-.176.152-.06.006-.074-.004-.148-.115l-.07-.104s-.028-.005-.06-.007l-.061-.006-.028.058-.029.059-.05-.015a1 1 0 0 1-.115-.046l-.065-.032v-.124l.578.002.578.002.002.059c.003.069.005.067-.091.122"/><path fill="#fff" d="M18.06 14.356q-.002-.014-.003-.048a4.62 4.62 0 0 0-3.394 1.05s-.445-2.044-2.531-2.044c-2.088 0-2.861 2.044-2.861 2.044-1.17-1.259-2.734-1.168-3.3-1.085l-.002.041c-.017.315-.009.465.044.663.162.62.665 1.302 1.452 1.972 1.289 1.095 3.036 1.886 4.36 1.978 1.38.093 3.417-.713 4.773-1.892q.318-.282.6-.601c.134-.157.334-.427.32-.427q-.006-.001.008-.008c.006-.005.012-.011.009-.015-.003-.003.002-.01.009-.011q.01-.004.008-.011-.004-.008.009-.01.01-.006.006-.014-.003-.008.005-.009.007-.002.008-.01c0-.005.005-.012.01-.012a.01.01 0 0 0 .008-.008 7 7 0 0 0 .209-.371 3 3 0 0 0 .238-.781 3 3 0 0 0 .015-.392zm-5.433 2.651c-.042.024-.07.035-.076.031-.006-.003-.037-.029-.07-.053l-.059-.047-.06.065c-.133.144-.138.15-.177.152-.06.006-.073-.005-.147-.115l-.07-.104s-.028-.005-.06-.007l-.061-.006-.028.058-.03.059-.05-.015a1 1 0 0 1-.114-.046l-.065-.032v-.125l.578.003.578.002.002.058c.002.07.004.068-.091.122m1.087-.39-.06.227q-.034.005-.069.002h-.069l-.094.229-.106.256-.013.03-.046-.074-.045-.073v-.602l-.018.004a6 6 0 0 1-1.843.024 2 2 0 0 0-.144-.018c-.002.003 0 .142.005.314l.006.308-.036.056c-.02.031-.04.057-.04.06-.006.006-.028-.029-.078-.129a1.5 1.5 0 0 1-.122-.33l-.015-.063-.067.004-.068.007-.017-.081a2 2 0 0 1-.024-.148l-.006-.069-.056-.05-.072-.061c-.012-.009-.016-.024-.016-.037v-.026l.272.002.272.002.008.028.009.029.093.004.365.011.272.006.07-.108.072-.109h.09l-.001-.226-.003-.226-.119-.052c-.385-.17-.61-.362-.696-.598-.017-.048-.017-.065-.021-.282-.002-.216-.002-.235.013-.283a.32.32 0 0 1 .223-.221c.038-.012.135-.012.649-.012l.603.003.068.032a.4.4 0 0 1 .162.128c.053.07.068.124.068.257 0 .19-.013.352-.032.417a.9.9 0 0 1-.126.25c-.11.14-.307.278-.488.341l-.052.02.003.229.002.228.048.004.047.005.066.097.062.098h.292c.16 0 .302.002.315.004.022.005.026.002.048-.034l.026-.04h.25c.194 0 .25.003.25.009a1.5 1.5 0 0 0-.068.226z"/><path fill="#FFA409" d="M18.044 14.134a6.4 6.4 0 0 0-.844-2.95 1 1 0 0 1-.048-.09l-.008-.018c.067-.202.343-1.048.562-2.015.298-1.312.488-2.847-.09-3.308 0 0-1-.074-2.34 1.239a9 9 0 0 0-.99 1.176l-.094-.03a6.8 6.8 0 0 0-1.66-.322c-.17-.013-.803-.013-1.009 0a5.9 5.9 0 0 0-1.706.345 9 9 0 0 0-1.024-1.167C7.399 5.675 6.363 5.75 6.363 5.75c-.613.476-.404 2.08-.088 3.436q.236 1 .561 1.972l-.024.048c-.506 1.026-.78 2.015-.845 3.067.567-.083 2.13-.176 3.301 1.084 0 0 .774-2.043 2.86-2.043 2.087 0 2.533 2.044 2.533 2.044a4.63 4.63 0 0 1 3.393-1.05l-.011-.175M7.247 10.34s-.812-2.032-.604-3.193c.035-.195.1-.367.203-.497 0 0 .92.091 2.408 1.743 0 0-.283.137-.66.428l-.005.002a5.2 5.2 0 0 0-1.342 1.517m3.45 3.02c-.013.025-.078.053-.152.064a2.5 2.5 0 0 1-.428-.01 4.5 4.5 0 0 1-1.306-.377 1.6 1.6 0 0 1-.45-.302l-.062-.063-.006-.082a2.2 2.2 0 0 1 .009-.45.6.6 0 0 1 .067-.191c.017-.022.017-.022.096-.022a1 1 0 0 1 .306.056c.268.083.665.283 1.15.574.4.239.55.357.665.517.078.1.13.241.11.285zm5.12-.72c-.006.035-.108.139-.21.215-.3.22-.837.424-1.383.522-.31.056-.621.065-.715.019-.06-.03-.07-.054-.047-.133.045-.162.194-.34.424-.508.117-.085.593-.374.815-.496.364-.2.66-.319.86-.347a.4.4 0 0 1 .163 0c.04.015.083.13.1.269.009.074.005.4-.006.459m-.36-3.819-.005-.002a4 4 0 0 0-.638-.429c1.436-1.651 2.325-1.743 2.325-1.743.098.133.16.302.196.498.202 1.16-.583 3.195-.583 3.195a5.2 5.2 0 0 0-1.295-1.519"/><path fill="#FF9300" d="M17.338 7.144c-.17-.022-.972-.026-1.88 1.676l-.005-.003a4 4 0 0 0-.639-.428c1.437-1.652 2.325-1.743 2.325-1.743.1.133.164.302.198.498"/><path fill="#FF8300" d="M16.755 10.34a5.2 5.2 0 0 0-1.298-1.52c.909-1.702 1.709-1.698 1.88-1.676.203 1.163-.582 3.195-.582 3.195m.614-3.19-.032-.006z"/><path fill="#FF9300" d="M9.254 8.39s-.283.137-.661.427l-.004.003c-.942-1.704-1.77-1.698-1.948-1.676.034-.196.1-.367.202-.498.002 0 .924.091 2.41 1.744"/><path fill="#FF8300" d="M8.59 8.82c-.542.413-.999.93-1.343 1.519 0 0-.812-2.032-.604-3.195.176-.022 1.006-.026 1.947 1.676M6.644 7.144l-.035.006z"/><path fill="#fff" d="M14.555 11.467s-.695.043-.608-.5.63-.608.782-.587.76.24.653.696c-.11.456-.262.369-.349.391s-.478 0-.478 0m-5.13 0s-.695.043-.608-.5c.088-.543.63-.608.783-.587.151.022.76.24.652.696-.11.456-.261.369-.348.391-.088.022-.478 0-.478 0"/></svg>