<svg xmlns="http://www.w3.org/2000/svg" fill="none" viewBox="0 0 24 24"><path fill="#F00500" d="M12 24c6.627 0 12-5.373 12-12S18.627 0 12 0 0 5.373 0 12s5.373 12 12 12Z"/><path fill="#000" d="M15.805 12.296c-.006.035-.108.14-.21.215-.3.22-.837.424-1.383.522-.31.057-.621.065-.715.02-.06-.03-.07-.055-.047-.133.045-.162.193-.341.423-.509.118-.084.594-.373.815-.495.365-.2.66-.319.86-.348a.431.431 0 0 1 .163 0c.04.015.083.13.1.27.01.073.005.4-.006.458Zm-5.12.72c-.013.026-.079.054-.152.065-.075.011-.3.004-.428-.01a4.51 4.51 0 0 1-1.307-.377 1.64 1.64 0 0 1-.45-.302l-.061-.063-.006-.083a2.235 2.235 0 0 1 .008-.45.59.59 0 0 1 .068-.19c.017-.023.017-.023.096-.023a.94.94 0 0 1 .306.057c.267.083.665.283 1.15.574.4.239.55.356.665.517.078.1.13.241.11.285Zm3.078 3.025c0 .007-.027.111-.06.235-.02.076-.04.152-.058.229-.024.001-.045.004-.07.001h-.069l-.096.227a9.92 9.92 0 0 0-.106.256l-.013.03-.046-.074-.045-.074v-.601l-.018.004a5.924 5.924 0 0 1-1.843.024 1.447 1.447 0 0 0-.144-.018c-.002.003 0 .141.005.313l.006.31-.037.055c-.02.03-.039.057-.039.06-.006.005-.028-.03-.078-.13a1.465 1.465 0 0 1-.122-.33l-.015-.062-.067.004-.068.006-.017-.08a2.298 2.298 0 0 1-.024-.148l-.006-.07-.057-.05-.072-.06a.053.053 0 0 1-.015-.037v-.026l.272.002.272.002.008.028.008.029.094.004.365.01.272.007.07-.108.071-.109h.092l-.002-.226-.003-.226-.12-.052c-.384-.17-.61-.363-.695-.598-.017-.048-.017-.065-.022-.282-.002-.216-.002-.235.013-.283a.316.316 0 0 1 .224-.222c.038-.01.135-.01.648-.01l.604.002.068.032a.377.377 0 0 1 .162.128c.053.07.068.124.068.257 0 .189-.013.352-.032.417a.903.903 0 0 1-.127.25c-.108.14-.306.278-.487.341l-.052.02.003.228.002.229.048.004.047.004.066.098.062.098h.292c.16 0 .302.002.315.004.022.005.026.002.048-.035l.026-.04h.25c.187-.008.244-.003.244.003Z"/><path fill="#000" d="M12.614 16.665c-.04.024-.069.035-.075.03-.006-.002-.038-.028-.07-.052l-.059-.047-.06.065c-.133.144-.138.15-.177.152-.06.006-.073-.005-.147-.115-.04-.056-.07-.105-.07-.105s-.028-.004-.06-.006l-.062-.006-.028.058-.028.059-.05-.015a1.034 1.034 0 0 1-.115-.046l-.065-.032v-.125l.578.003.578.002.002.058c.002.07.004.068-.091.122Z"/><path fill="#fff" d="M18.048 14.014c-.002-.01-.002-.025-.004-.048a4.622 4.622 0 0 0-3.393 1.05s-.445-2.044-2.532-2.044-2.86 2.044-2.86 2.044c-1.17-1.26-2.735-1.168-3.3-1.085l-.002.04c-.018.316-.009.466.044.663.162.62.665 1.303 1.452 1.972 1.288 1.096 3.036 1.886 4.36 1.978 1.38.094 3.416-.713 4.773-1.89.212-.19.412-.39.6-.603.134-.156.334-.426.319-.426-.004 0 0-.004.009-.009.006-.004.012-.01.009-.015-.003-.002.001-.008.008-.01.007-.003.01-.007.009-.012-.002-.004 0-.008.009-.01.006-.003.009-.009.006-.013-.003-.005 0-.01.004-.01a.01.01 0 0 0 .01-.01c0-.004.004-.011.008-.011s.009-.004.009-.009a6.403 6.403 0 0 0 .209-.371c.123-.28.201-.53.238-.78.013-.12.024-.34.015-.392Zm-5.434 2.651c-.04.024-.069.034-.075.03-.006-.002-.038-.028-.07-.052l-.059-.047-.06.065c-.133.143-.138.15-.177.151-.06.007-.074-.004-.147-.114a2.605 2.605 0 0 1-.07-.105s-.028-.004-.061-.006l-.06-.006-.029.058-.028.059-.05-.015a1.05 1.05 0 0 1-.115-.046l-.066-.033v-.124l.579.003.578.001.002.06c.002.069.004.067-.092.121Zm1.088-.391c-.021.075-.04.152-.06.228-.023.002-.045.004-.069.002h-.07l-.093.229a9.92 9.92 0 0 0-.106.256l-.013.03-.046-.074-.046-.074v-.602l-.017.005a5.924 5.924 0 0 1-1.843.024 1.509 1.509 0 0 0-.144-.018c-.002.002 0 .141.004.313l.007.309-.037.056c-.02.03-.039.056-.039.059-.006.006-.028-.028-.078-.128a1.47 1.47 0 0 1-.122-.33l-.015-.063-.067.004-.068.006-.018-.08a2.298 2.298 0 0 1-.023-.148l-.007-.07-.056-.05a2.094 2.094 0 0 0-.072-.06.053.053 0 0 1-.015-.037v-.027l.272.003.271.002.009.028.008.029.094.004.365.01.272.007.07-.108.071-.109h.091l-.001-.226-.003-.226-.12-.052c-.384-.17-.61-.363-.695-.598-.017-.048-.017-.066-.022-.282-.002-.216-.002-.235.013-.284a.315.315 0 0 1 .224-.22c.038-.012.135-.012.648-.012l.604.002.068.033a.378.378 0 0 1 .162.128c.053.07.068.124.068.256 0 .19-.013.353-.032.418a.9.9 0 0 1-.127.25c-.108.14-.306.278-.487.341l-.052.02.003.228.001.228.048.005.048.004.066.098.062.098h.292c.16 0 .302.002.315.003.022.006.026.003.047-.034l.027-.04h.25c.194 0 .25.003.25.01a1.526 1.526 0 0 0-.068.226Z"/><path fill="#FFA409" d="M18.031 13.792a6.382 6.382 0 0 0-.844-2.95.744.744 0 0 1-.047-.091l-.009-.017c.068-.203.344-1.048.563-2.015.298-1.312.487-2.847-.09-3.308 0 0-1-.074-2.34 1.239a8.946 8.946 0 0 0-.99 1.175l-.095-.03a6.783 6.783 0 0 0-1.66-.322c-.17-.012-.802-.012-1.008 0a5.876 5.876 0 0 0-1.707.346 8.847 8.847 0 0 0-1.023-1.167C7.387 5.332 6.35 5.409 6.35 5.409c-.613.476-.404 2.08-.088 3.436.158.666.345 1.324.562 1.972a.474.474 0 0 1-.024.048c-.506 1.026-.78 2.015-.846 3.066.567-.082 2.13-.176 3.302 1.085 0 0 .773-2.043 2.86-2.043 2.087 0 2.532 2.043 2.532 2.043a4.634 4.634 0 0 1 3.393-1.05l-.01-.174ZM7.235 9.997s-.813-2.032-.604-3.194c.035-.195.1-.366.202-.496 0 0 .921.09 2.408 1.743 0 0-.282.137-.66.428l-.005.002a5.226 5.226 0 0 0-1.341 1.517Zm3.45 3.019c-.014.026-.079.054-.152.065-.075.011-.3.004-.429-.01a4.51 4.51 0 0 1-1.306-.377 1.639 1.639 0 0 1-.45-.302l-.061-.063-.006-.083a2.234 2.234 0 0 1 .008-.45.59.59 0 0 1 .068-.19c.017-.023.017-.023.095-.023.096 0 .176.015.307.057.267.083.665.283 1.15.574.4.239.55.356.665.517.078.1.13.241.11.285h.001Zm5.12-.72c-.006.036-.108.14-.21.216-.3.219-.838.423-1.383.521-.31.057-.621.065-.715.02-.06-.03-.07-.055-.048-.133.046-.162.194-.341.424-.508.118-.086.594-.374.815-.496.365-.2.66-.319.86-.348a.43.43 0 0 1 .164 0c.04.015.082.131.1.27.009.074.004.4-.006.459h-.001Zm-.36-3.818-.005-.003a4.055 4.055 0 0 0-.639-.428c1.437-1.652 2.325-1.743 2.325-1.743.098.133.162.302.197.498.201 1.16-.583 3.195-.583 3.195a5.177 5.177 0 0 0-1.296-1.52Z"/><path fill="#FF9300" d="M17.325 6.801c-.17-.02-.972-.025-1.88 1.677l-.005-.003a4.05 4.05 0 0 0-.639-.428c1.437-1.652 2.325-1.743 2.325-1.743.1.132.164.302.198.497h.001Z"/><path fill="#FF8300" d="M16.742 9.997a5.155 5.155 0 0 0-1.298-1.52c.91-1.701 1.71-1.697 1.88-1.676.203 1.163-.582 3.196-.582 3.196Zm.615-3.19-.033-.006.033.007Z"/><path fill="#FF9300" d="M9.241 8.047s-.282.138-.66.428c0 0-.003.003-.005.003C7.636 6.773 6.806 6.78 6.63 6.8c.034-.195.1-.366.202-.497.002 0 .924.091 2.41 1.744Z"/><path fill="#FF8300" d="M8.578 8.478a5.204 5.204 0 0 0-1.343 1.518s-.812-2.032-.604-3.195c.176-.021 1.006-.025 1.947 1.677ZM6.631 6.802l-.035.006.035-.006Z"/><path fill="#fff" d="M14.543 11.125s-.696.043-.61-.5c.088-.544.631-.609.783-.587.153.021.76.239.653.696-.109.456-.261.369-.348.391-.087.021-.479 0-.479 0Zm-5.13 0s-.695.043-.609-.5c.088-.544.63-.609.783-.587.152.021.76.239.652.696-.109.456-.26.369-.348.391-.087.021-.478 0-.478 0Z"/></svg>