<svg xmlns="http://www.w3.org/2000/svg" fill="none" viewBox="0 0 24 24"><path fill="currentColor" fill-rule="evenodd" d="M20.34 6.155v2.502c0 .461-.005 1.216-.01 1.677 0 .087-.184 8.756-8.045 11.615l-.017.003A.808.808 0 0 1 12 22a.813.813 0 0 1-.268-.047l-.017-.004C3.855 19.09 3.67 10.421 3.67 10.334c-.005-.46-.01-1.216-.01-1.677V6.155c0-.92.749-1.667 1.669-1.667h.834c3.502 0 5.079-2.072 5.144-2.16a.823.823 0 0 1 .642-.325.817.817 0 0 1 .746.329c.063.084 1.64 2.156 5.142 2.156h.834c.92 0 1.668.748 1.668 1.667ZM12 8.24a.834.834 0 0 0-.834.834v3.336a.834.834 0 1 0 1.668 0V9.074A.834.834 0 0 0 12 8.24Zm.592 6.08c.15.157.242.375.242.592a.7.7 0 0 1-.067.317.97.97 0 0 1-.175.275.829.829 0 0 1-.592.242.829.829 0 0 1-.592-.242.978.978 0 0 1-.175-.275.7.7 0 0 1-.067-.317c0-.217.092-.435.242-.592a.852.852 0 0 1 .909-.175.86.86 0 0 1 .275.175Z" clip-rule="evenodd"/></svg>