<svg xmlns="http://www.w3.org/2000/svg" fill="none" viewBox="0 0 24 24"><path fill="#62757E" fill-rule="evenodd" d="M11.255 2.158a1.83 1.83 0 0 1 1.49 0l6.419 2.853c.662.294 1.089.95 1.089 1.676v4.31c0 5.089-3.521 9.848-8.253 11.003-4.731-1.155-8.253-5.914-8.253-11.003v-4.31c0-.725.427-1.382 1.09-1.676zM12 13.245a.834.834 0 0 1-.834-.835V9.075a.834.834 0 1 1 1.667 0v3.335a.834.834 0 0 1-.833.835m0 3.1a.84.84 0 0 1-.592-.242.86.86 0 0 1-.242-.592c0-.217.092-.434.242-.592.317-.309.875-.3 1.183 0 .15.158.242.375.242.592a.86.86 0 0 1-.242.592.88.88 0 0 1-.591.242" clip-rule="evenodd"/></svg>