<svg xmlns="http://www.w3.org/2000/svg" fill="none" viewBox="0 0 24 24"><path fill="currentColor" fill-rule="evenodd" d="M15.832 8.82c.37.273.45.795.177 1.165l-3.686 5.004a.834.834 0 0 1-1.207.145l-2.985-2.502a.834.834 0 1 1 1.07-1.278l2.305 1.93 3.16-4.287a.834.834 0 0 1 1.166-.177Zm2.84-4.332h-.835c-3.502 0-5.079-2.072-5.142-2.155a.82.82 0 0 0-.746-.33.827.827 0 0 0-.642.325c-.065.088-1.643 2.16-5.144 2.16h-.834A1.67 1.67 0 0 0 3.66 6.156v2.502c0 .46.004 1.215.01 1.676 0 .087.183 8.756 8.044 11.615l.017.003c.085.03.175.048.268.048a.83.83 0 0 0 .268-.047l.017-.004c7.86-2.86 8.044-11.528 8.045-11.615.005-.46.009-1.216.009-1.676V6.156a1.67 1.67 0 0 0-1.668-1.668Z" clip-rule="evenodd"/></svg>