<svg xmlns="http://www.w3.org/2000/svg" fill="none" viewBox="0 0 24 24"><path fill="#62757E" fill-rule="evenodd" d="m5.497 6.473 6.418-2.853a.23.23 0 0 1 .19 0l6.419 2.853a.23.23 0 0 1 .139.214v4.31c0 4.275-2.884 8.22-6.653 9.346-3.768-1.125-6.652-5.07-6.652-9.346v-4.31c0-.093.054-.177.139-.214m7.258-4.315a1.83 1.83 0 0 0-1.49 0L4.847 5.011a1.83 1.83 0 0 0-1.09 1.676v4.31c0 5.089 3.522 9.848 8.253 11.003 4.732-1.155 8.253-5.914 8.253-11.003v-4.31c0-.725-.427-1.382-1.09-1.676zm-.559 5.973a.212.212 0 0 0-.392 0l-.802 1.929a.21.21 0 0 1-.18.13l-2.082.167a.212.212 0 0 0-.121.373l1.587 1.359c.06.052.087.133.068.21l-.485 2.033a.212.212 0 0 0 .317.23l1.783-1.09a.21.21 0 0 1 .222 0l1.783 1.09a.212.212 0 0 0 .317-.23l-.485-2.033a.21.21 0 0 1 .068-.21l1.587-1.36a.212.212 0 0 0-.121-.372l-2.083-.167a.21.21 0 0 1-.179-.13z" clip-rule="evenodd"/></svg>