<svg xmlns="http://www.w3.org/2000/svg" fill="none" viewBox="0 0 24 24"><path fill="currentColor" fill-rule="evenodd" d="M17.837 4.488h.834c.92 0 1.668.748 1.668 1.667v2.502c0 .461-.004 1.216-.008 1.677 0 .087-.185 8.756-8.046 11.616l-.017.003A.813.813 0 0 1 12 22a.808.808 0 0 1-.268-.047l-.005-.001c-.004 0-.008 0-.011-.002C3.854 19.09 3.67 10.421 3.67 10.334c-.005-.46-.01-1.216-.01-1.677V6.155a1.67 1.67 0 0 1 1.67-1.667h.834c3.502 0 5.079-2.072 5.145-2.16a.824.824 0 0 1 .642-.325.818.818 0 0 1 .746.329c.063.084 1.64 2.156 5.141 2.156Zm-5.665 4.614a.187.187 0 0 0-.345 0l-.706 1.697a.187.187 0 0 1-.157.115l-1.833.147a.187.187 0 0 0-.107.328l1.397 1.196a.187.187 0 0 1 .06.185l-.427 1.789a.187.187 0 0 0 .28.203l1.569-.959a.187.187 0 0 1 .194 0l1.57.959a.187.187 0 0 0 .279-.203l-.427-1.789a.187.187 0 0 1 .06-.185l1.397-1.196a.187.187 0 0 0-.107-.328l-1.833-.147a.187.187 0 0 1-.157-.115l-.707-1.697Z" clip-rule="evenodd"/></svg>