<svg xmlns="http://www.w3.org/2000/svg" fill="none" viewBox="0 0 24 24"><path fill="#62757E" fill-rule="evenodd" d="M11.905 3.62 5.486 6.473a.23.23 0 0 0-.139.214v4.31c0 4.275 2.885 8.22 6.653 9.346 3.768-1.125 6.653-5.07 6.653-9.346v-4.31a.23.23 0 0 0-.14-.214L12.096 3.62a.23.23 0 0 0-.19 0m-.65-1.462a1.83 1.83 0 0 1 1.49 0l6.419 2.853c.662.294 1.089.95 1.089 1.676v4.31c0 5.089-3.521 9.848-8.253 11.003-4.731-1.155-8.253-5.914-8.253-11.003v-4.31c0-.725.427-1.382 1.09-1.676zM12 16.163a4.173 4.173 0 0 1-4.167-4.17c0-2.298 1.87-4.17 4.167-4.17a4.173 4.173 0 0 1 4.167 4.17c0 2.3-1.87 4.17-4.167 4.17m2.5-4.17a2.5 2.5 0 0 0-.25-1.071l-3.32 3.322c.325.156.685.25 1.07.25 1.378 0 2.5-1.121 2.5-2.5m-5 0c0 .385.095.747.25 1.073l3.322-3.324A2.5 2.5 0 0 0 12 9.491a2.505 2.505 0 0 0-2.5 2.503" clip-rule="evenodd"/></svg>