<svg xmlns="http://www.w3.org/2000/svg" fill="none" viewBox="0 0 24 24"><path fill="currentColor" fill-rule="evenodd" d="M20.34 6.155v2.502c0 .461-.005 1.216-.01 1.677 0 .087-.184 8.756-8.045 11.615l-.017.003A.808.808 0 0 1 12 22a.813.813 0 0 1-.268-.047l-.017-.004C3.855 19.09 3.67 10.421 3.67 10.334c-.005-.46-.01-1.216-.01-1.677V6.155c0-.92.749-1.667 1.669-1.667h.834c3.502 0 5.079-2.072 5.144-2.16a.825.825 0 0 1 .642-.325.818.818 0 0 1 .746.329c.063.084 1.64 2.156 5.142 2.156h.834c.92 0 1.668.748 1.668 1.667Zm-5.249 3.926-1.912 1.912 1.912 1.912a.833.833 0 1 1-1.179 1.18L12 13.171l-1.912 1.912a.832.832 0 0 1-1.18 0 .833.833 0 0 1 0-1.179l1.913-1.912-1.912-1.912a.833.833 0 1 1 1.179-1.18L12 10.815l1.912-1.912a.833.833 0 1 1 1.18 1.179Z" clip-rule="evenodd"/></svg>