<svg xmlns="http://www.w3.org/2000/svg" fill="none" viewBox="0 0 24 24"><path fill="#687485" fill-rule="evenodd" d="M11.255 2.158a1.834 1.834 0 0 1 1.49 0l6.419 2.853c.662.294 1.089.95 1.089 1.676v4.31c0 5.089-3.521 9.848-8.253 11.003-4.731-1.155-8.252-5.914-8.252-11.003v-4.31c0-.725.426-1.382 1.089-1.676l6.418-2.853Zm.917 6.944a.187.187 0 0 0-.345 0l-.706 1.697a.187.187 0 0 1-.157.115l-1.833.147a.187.187 0 0 0-.107.328l1.397 1.196a.187.187 0 0 1 .06.185l-.427 1.789a.187.187 0 0 0 .28.203l1.569-.959a.187.187 0 0 1 .194 0l1.57.959a.187.187 0 0 0 .279-.203l-.427-1.789a.187.187 0 0 1 .06-.185l1.397-1.196a.187.187 0 0 0-.107-.328l-1.833-.147a.187.187 0 0 1-.157-.115l-.707-1.697Z" clip-rule="evenodd"/></svg>