<svg xmlns="http://www.w3.org/2000/svg" fill="none" viewBox="0 0 24 24"><path fill="#666D89" fill-rule="evenodd" d="M20.324 10.335c0 .087-.184 8.755-8.039 11.615l-.018.003A.828.828 0 0 1 12 22a.825.825 0 0 1-.268-.047c-.005-.002-.011 0-.017-.003-7.855-2.86-8.038-11.528-8.04-11.615a234.65 234.65 0 0 1-.008-1.678V6.156c0-.92.747-1.668 1.666-1.668h.834c3.5 0 5.075-2.071 5.14-2.16a.825.825 0 0 1 .641-.325.822.822 0 0 1 .748.329c.062.085 1.637 2.156 5.137 2.156h.834c.919 0 1.666.748 1.666 1.668v2.501c0 .462-.004 1.216-.009 1.678Zm-1.657-4.179h-.834c-3.045 0-4.925-1.305-5.833-2.15-.908.845-2.788 2.15-5.833 2.15h-.834v2.501c0 .456.005 1.203.01 1.66.004.303.194 7.38 6.656 9.942 6.49-2.577 6.658-9.867 6.658-9.942.006-.457.01-1.204.01-1.66V6.156Zm-6.26 1.805a.316.316 0 0 0-.453-.058 4.107 4.107 0 0 0-1.492 2.604c-.276-.2-.52-.445-.719-.723a.316.316 0 0 0-.485-.035 3.795 3.795 0 1 0 4.294-.841 3.145 3.145 0 0 1-1.146-.947Zm1.174 5.044a1.581 1.581 0 1 1-3.083-.494c.265.196.57.34.9.421.09-.59.386-1.113.81-1.495a1.581 1.581 0 0 1 1.373 1.568Z" clip-rule="evenodd"/></svg>