<svg xmlns="http://www.w3.org/2000/svg" fill="none" viewBox="0 0 24 24"><path fill="#687485" fill-rule="evenodd" d="m5.497 6.473 6.418-2.853a.234.234 0 0 1 .19 0l6.42 2.853a.234.234 0 0 1 .138.214v4.31c0 4.275-2.884 8.22-6.653 9.346-3.768-1.125-6.652-5.07-6.652-9.346v-4.31c0-.093.054-.177.139-.214Zm7.258-4.315a1.834 1.834 0 0 0-1.49 0L4.848 5.011a1.834 1.834 0 0 0-1.09 1.676v4.31c0 5.089 3.522 9.848 8.253 11.003 4.732-1.155 8.253-5.914 8.253-11.003v-4.31c0-.725-.427-1.382-1.09-1.676l-6.418-2.853Zm-.582 6.944a.187.187 0 0 0-.345 0l-.707 1.697a.187.187 0 0 1-.157.115l-1.833.147a.187.187 0 0 0-.107.328l1.397 1.196a.187.187 0 0 1 .06.185l-.427 1.789a.187.187 0 0 0 .28.203l1.569-.959a.187.187 0 0 1 .194 0l1.57.959a.187.187 0 0 0 .279-.203l-.427-1.789a.187.187 0 0 1 .06-.185l1.397-1.196a.187.187 0 0 0-.107-.328l-1.833-.147a.187.187 0 0 1-.157-.115l-.706-1.697Z" clip-rule="evenodd"/></svg>