<svg xmlns="http://www.w3.org/2000/svg" fill="none" viewBox="0 0 24 24"><path fill="currentColor" fill-rule="evenodd" d="M14.502 10.325a2.496 2.496 0 0 1-1.666 2.348v.154a.834.834 0 1 1-1.668 0V12.5l-.002-.008.002-.008v-.297c0-.034.016-.064.019-.098-.003-.033-.02-.063-.02-.097 0-.461.374-.834.835-.834a.834.834 0 1 0-.836-.834.834.834 0 1 1-1.668 0 2.506 2.506 0 0 1 2.504-2.502c1.378 0 2.5 1.123 2.5 2.502Zm-1.727 4.687c.042.1.059.208.059.317a.822.822 0 0 1-.059.316c-.041.1-.108.191-.183.276a.83.83 0 0 1-.909.175.823.823 0 0 1-.45-.45.83.83 0 0 1-.067-.317.83.83 0 0 1 .067-.317c.041-.1.1-.192.183-.276.225-.233.6-.3.9-.175.11.042.201.1.276.175.075.084.133.176.183.276Zm5.896-10.524h-.834c-3.502 0-5.079-2.072-5.142-2.156a.818.818 0 0 0-.746-.329.825.825 0 0 0-.642.325c-.065.088-1.642 2.16-5.144 2.16h-.834A1.67 1.67 0 0 0 3.66 6.155v2.502c0 .461.004 1.216.009 1.677 0 .087.184 8.756 8.045 11.615l.017.003c.085.03.175.048.268.048a.808.808 0 0 0 .268-.047l.017-.004c7.86-2.859 8.044-11.528 8.045-11.615.005-.46.01-1.216.01-1.677V6.155a1.67 1.67 0 0 0-1.669-1.667Z" clip-rule="evenodd"/></svg>