<svg xmlns="http://www.w3.org/2000/svg" fill="none" viewBox="0 0 24 24"><path fill="#62757E" fill-rule="evenodd" d="M11.255 2.158a1.83 1.83 0 0 1 1.49 0l6.419 2.853a1.83 1.83 0 0 1 1.089 1.676v4.31c0 5.089-3.521 9.848-8.253 11.003-4.731-1.155-8.252-5.914-8.252-11.003v-4.31c0-.725.426-1.382 1.089-1.676zm4.912 8.675V12.5h-.952a3.3 3.3 0 0 1-.354.85l.674.673-1.178 1.18-.675-.675a3.3 3.3 0 0 1-.848.354v.952l-1.667-.001v-.951a3.3 3.3 0 0 1-.85-.354l-.703.703-1.178-1.178.703-.704a3.3 3.3 0 0 1-.353-.849h-.953v-1.666h.953q.119-.453.353-.849l-.675-.675 1.178-1.178.676.675q.395-.234.85-.354V7.5h1.666v.953q.455.119.848.353l.646-.646 1.178 1.178-.644.646q.234.396.353.85zM12 10c-.918 0-1.666.748-1.666 1.666a1.668 1.668 0 0 0 3.333 0c0-.919-.748-1.666-1.667-1.666" clip-rule="evenodd"/></svg>