<svg xmlns="http://www.w3.org/2000/svg" fill="none" viewBox="0 0 24 24"><path fill="#62757E" fill-rule="evenodd" d="M11.255 2.158a1.83 1.83 0 0 1 1.49 0l6.419 2.853a1.83 1.83 0 0 1 1.089 1.676v4.31c0 5.089-3.521 9.848-8.253 11.003-4.731-1.155-8.252-5.914-8.252-11.003v-4.31c0-.725.426-1.382 1.089-1.676zm.941 5.973a.212.212 0 0 0-.392 0l-.802 1.929a.21.21 0 0 1-.18.13l-2.082.167a.212.212 0 0 0-.121.373l1.587 1.359c.06.052.087.133.068.21l-.485 2.033a.212.212 0 0 0 .317.23l1.783-1.09a.21.21 0 0 1 .222 0l1.783 1.09a.212.212 0 0 0 .317-.23l-.485-2.033a.21.21 0 0 1 .068-.21l1.587-1.36a.212.212 0 0 0-.121-.372l-2.083-.167a.21.21 0 0 1-.179-.13z" clip-rule="evenodd"/></svg>