<svg xmlns="http://www.w3.org/2000/svg" fill="none" viewBox="0 0 24 24"><path fill="#666D89" fill-rule="evenodd" d="M20.324 10.335c0 .087-.184 8.755-8.039 11.615l-.018.003A.828.828 0 0 1 12 22a.825.825 0 0 1-.268-.047c-.005-.002-.011 0-.017-.003-7.855-2.86-8.038-11.528-8.04-11.615a234.65 234.65 0 0 1-.008-1.678V6.156c0-.92.747-1.668 1.666-1.668h.834c3.5 0 5.075-2.071 5.14-2.16a.825.825 0 0 1 .641-.325.822.822 0 0 1 .748.329c.062.085 1.637 2.156 5.137 2.156h.834c.919 0 1.666.748 1.666 1.668v2.501c0 .462-.004 1.216-.009 1.678ZM12.406 7.96a.316.316 0 0 0-.452-.058 4.107 4.107 0 0 0-1.492 2.604c-.276-.2-.52-.445-.719-.723a.316.316 0 0 0-.485-.035 3.795 3.795 0 1 0 4.294-.841 3.144 3.144 0 0 1-1.146-.947Zm1.175 5.044a1.581 1.581 0 1 1-3.083-.494c.265.196.57.34.9.421.09-.59.386-1.113.81-1.495a1.581 1.581 0 0 1 1.373 1.568Z" clip-rule="evenodd"/></svg>