<svg xmlns="http://www.w3.org/2000/svg" fill="none" viewBox="0 0 24 24"><path fill="#62757E" fill-rule="evenodd" d="M11.915 3.62 5.497 6.473a.23.23 0 0 0-.14.214v4.31c0 4.275 2.885 8.22 6.653 9.346 3.769-1.125 6.653-5.07 6.653-9.346v-4.31a.23.23 0 0 0-.139-.214L12.105 3.62a.23.23 0 0 0-.19 0m-.65-1.462a1.83 1.83 0 0 1 1.49 0l6.419 2.853c.662.294 1.089.95 1.089 1.676v4.31c0 5.089-3.521 9.848-8.253 11.003-4.731-1.155-8.252-5.914-8.252-11.003v-4.31c0-.725.427-1.382 1.089-1.676zm1.057 12.831a.834.834 0 0 1-1.205.145l-2.984-2.502a.832.832 0 1 1 1.07-1.278l2.304 1.93 3.157-4.287a.833.833 0 1 1 1.342.989z" clip-rule="evenodd"/></svg>