<svg xmlns="http://www.w3.org/2000/svg" fill="none" viewBox="0 0 24 24"><path fill="#687485" fill-rule="evenodd" d="M16.17 12.007c0 .46-.374.834-.835.834h-2.501v2.502a.834.834 0 0 1-1.668 0V12.84H8.664a.834.834 0 0 1 0-1.668h2.502V8.671a.834.834 0 0 1 1.668 0v2.502h2.502c.46 0 .833.374.833.834Zm2.501-7.519h-.834c-3.502 0-5.079-2.072-5.141-2.155a.82.82 0 0 0-.747-.33.828.828 0 0 0-.642.325c-.065.088-1.643 2.16-5.144 2.16h-.834A1.67 1.67 0 0 0 3.66 6.156v2.502c0 .46.004 1.215.01 1.676 0 .087.184 8.756 8.044 11.615l.017.003c.086.03.176.048.268.048a.83.83 0 0 0 .268-.047l.017-.004c7.86-2.86 8.044-11.528 8.045-11.615.005-.46.01-1.216.01-1.676V6.156a1.67 1.67 0 0 0-1.669-1.668Z" clip-rule="evenodd"/></svg>