<svg xmlns="http://www.w3.org/2000/svg" fill="none" viewBox="0 0 24 24"><path fill="currentColor" fill-rule="evenodd" d="M15.336 12.827A3.339 3.339 0 0 1 12 16.163a3.339 3.339 0 0 1-3.336-3.336.834.834 0 1 1 1.668 0c0 .92.748 1.668 1.668 1.668a1.67 1.67 0 0 0 1.668-1.668c0-.781-.542-1.434-1.269-1.615l.19.191a.833.833 0 1 1-1.179 1.18l-1.667-1.668a.833.833 0 0 1 0-1.18l1.667-1.667a.833.833 0 1 1 1.18 1.179l-.277.278c1.698.166 3.023 1.575 3.023 3.302Zm3.335-8.34h-.834c-3.502 0-5.079-2.07-5.142-2.155a.818.818 0 0 0-.746-.329.825.825 0 0 0-.642.325c-.065.088-1.642 2.16-5.144 2.16h-.834A1.67 1.67 0 0 0 3.66 6.155v2.502c0 .461.004 1.216.009 1.677 0 .087.184 8.756 8.045 11.615l.017.003c.085.03.175.048.268.048a.808.808 0 0 0 .268-.047l.017-.004c7.86-2.859 8.044-11.528 8.045-11.615.005-.46.01-1.216.01-1.677V6.155a1.67 1.67 0 0 0-1.669-1.667Z" clip-rule="evenodd"/></svg>