<svg xmlns="http://www.w3.org/2000/svg" fill="none" viewBox="0 0 24 24"><path fill="currentColor" fill-rule="evenodd" d="M20.324 10.334c0 .087-.184 8.756-8.039 11.616-.006.001-.012 0-.018.002A.823.823 0 0 1 12 22a.823.823 0 0 1-.268-.048c-.005-.002-.011 0-.017-.002-7.855-2.86-8.038-11.529-8.04-11.616a187.36 187.36 0 0 1-.008-1.676V6.156c0-.92.747-1.668 1.666-1.668h.834c3.5 0 5.075-2.072 5.14-2.16a.824.824 0 0 1 .641-.325.82.82 0 0 1 .747.33c.063.083 1.638 2.155 5.138 2.155h.834c.919 0 1.666.748 1.666 1.668v2.502c0 .46-.004 1.215-.009 1.676Zm-1.657-4.178h-.834c-3.045 0-4.925-1.305-5.833-2.15-.908.845-2.788 2.15-5.833 2.15h-.834v2.502c0 .456.004 1.203.01 1.659.004.303.194 7.379 6.656 9.942 6.49-2.578 6.658-9.868 6.658-9.943.005-.455.01-1.202.01-1.658V6.156Zm-6.668 10.207a.828.828 0 0 1-.834-.833l.001-2.703H8.463a.828.828 0 0 1-.833-.833c0-.46.373-.833.833-.833l2.704-.001V8.457a.834.834 0 1 1 1.668-.001l-.001 2.703h2.703a.834.834 0 0 1 0 1.667h-2.704l-.001 2.704c0 .46-.373.833-.833.833Z" clip-rule="evenodd"/></svg>