<svg xmlns="http://www.w3.org/2000/svg" fill="none" viewBox="0 0 24 24"><path fill="#62757E" fill-rule="evenodd" d="M11.905 3.62 5.486 6.473a.23.23 0 0 0-.138.214v4.31c0 4.275 2.884 8.22 6.652 9.346 3.768-1.125 6.653-5.07 6.653-9.346v-4.31a.23.23 0 0 0-.14-.214L12.096 3.62a.23.23 0 0 0-.19 0m-.65-1.462a1.83 1.83 0 0 1 1.49 0l6.419 2.853c.662.294 1.089.95 1.089 1.676v4.31c0 5.089-3.521 9.848-8.253 11.003-4.731-1.155-8.252-5.914-8.252-11.003v-4.31c0-.725.426-1.382 1.089-1.676zm1.58 10.515v.153a.834.834 0 1 1-1.667 0V12.5l-.001-.007.001-.008v-.296c0-.036.016-.065.02-.098-.004-.034-.02-.063-.02-.098 0-.462.374-.834.834-.834a.834.834 0 1 0-.835-.834.834.834 0 0 1-1.667 0 2.505 2.505 0 0 1 2.502-2.502 2.503 2.503 0 0 1 2.498 2.502 2.5 2.5 0 0 1-1.665 2.348m-.243 2.064a.84.84 0 0 1 .241.592.84.84 0 0 1-.241.591.86.86 0 0 1-.592.243.88.88 0 0 1-.592-.243.88.88 0 0 1-.241-.591c0-.218.091-.435.241-.592.317-.31.875-.31 1.184 0" clip-rule="evenodd"/></svg>