<svg xmlns="http://www.w3.org/2000/svg" fill="none" viewBox="0 0 24 24"><path fill="#62757E" fill-rule="evenodd" d="M11.915 3.62 5.497 6.473a.23.23 0 0 0-.14.214v4.31c0 4.275 2.885 8.22 6.653 9.346 3.769-1.125 6.653-5.07 6.653-9.346v-4.31a.23.23 0 0 0-.139-.214L12.105 3.62a.23.23 0 0 0-.19 0m-.65-1.462a1.83 1.83 0 0 1 1.49 0l6.419 2.853c.662.294 1.089.95 1.089 1.676v4.31c0 5.089-3.521 9.848-8.253 11.003-4.731-1.155-8.252-5.914-8.252-11.003v-4.31c0-.725.427-1.382 1.089-1.676zM12 16.163a3.34 3.34 0 0 1-3.333-3.336.834.834 0 1 1 1.666 0c0 .92.748 1.668 1.667 1.668a1.67 1.67 0 0 0 1.667-1.668c0-.781-.542-1.434-1.269-1.614l.191.19a.834.834 0 0 1-1.178 1.18l-1.667-1.669a.833.833 0 0 1 0-1.178l1.667-1.668a.834.834 0 0 1 1.178 1.18l-.277.277c1.698.166 3.021 1.575 3.021 3.302A3.34 3.34 0 0 1 12 16.163" clip-rule="evenodd"/></svg>