<svg xmlns="http://www.w3.org/2000/svg" fill="none" viewBox="0 0 24 24"><path fill="currentColor" fill-rule="evenodd" d="M12 14.495c-.384 0-.745-.095-1.072-.251l3.324-3.323c.155.326.25.688.25 1.072A2.505 2.505 0 0 1 12 14.495Zm0-5.004c.385 0 .746.094 1.072.251L9.75 13.065a2.476 2.476 0 0 1-.25-1.072A2.505 2.505 0 0 1 12 9.49Zm0-1.668c-2.3 0-4.17 1.87-4.17 4.17s1.87 4.17 4.17 4.17 4.17-1.87 4.17-4.17-1.87-4.17-4.17-4.17Zm6.671-3.335h-.834c-3.502 0-5.079-2.072-5.142-2.156a.818.818 0 0 0-.746-.329.825.825 0 0 0-.642.325c-.065.088-1.642 2.16-5.144 2.16h-.834A1.67 1.67 0 0 0 3.66 6.155v2.502c0 .461.004 1.216.009 1.677 0 .087.184 8.756 8.045 11.615l.017.003c.085.03.175.048.268.048a.808.808 0 0 0 .268-.047l.017-.004c7.86-2.859 8.044-11.528 8.045-11.615.005-.46.01-1.216.01-1.677V6.155a1.67 1.67 0 0 0-1.669-1.667Z" clip-rule="evenodd"/></svg>