<svg xmlns="http://www.w3.org/2000/svg" fill="none" viewBox="0 0 24 24"><path fill="currentColor" fill-rule="evenodd" d="M20.324 10.335c0 .087-.184 8.755-8.039 11.615a.033.033 0 0 1-.01.002l-.008.001A.83.83 0 0 1 12 22a.825.825 0 0 1-.268-.047l-.007-.001c-.003 0-.007 0-.01-.002-7.855-2.86-8.038-11.528-8.04-11.615a234.65 234.65 0 0 1-.008-1.678V6.156c0-.92.747-1.668 1.666-1.668h.834c3.5 0 5.075-2.071 5.14-2.16a.826.826 0 0 1 .641-.325.82.82 0 0 1 .748.329c.062.085 1.637 2.156 5.137 2.156h.834c.919 0 1.666.748 1.666 1.668v2.501c0 .462-.004 1.216-.009 1.678Zm-1.657-4.179h-.834c-3.045 0-4.925-1.305-5.833-2.15-.908.845-2.788 2.15-5.833 2.15h-.834v2.501c0 .456.004 1.203.01 1.66.004.303.194 7.38 6.656 9.942 6.49-2.577 6.658-9.867 6.658-9.942.006-.457.01-1.204.01-1.66V6.156Zm-6.495 2.946a.187.187 0 0 0-.345 0l-.706 1.697a.187.187 0 0 1-.157.115l-1.833.147a.187.187 0 0 0-.107.328l1.397 1.196a.187.187 0 0 1 .06.185l-.427 1.789a.187.187 0 0 0 .28.203l1.569-.959a.187.187 0 0 1 .194 0l1.57.959a.187.187 0 0 0 .279-.203l-.427-1.789a.187.187 0 0 1 .06-.185l1.397-1.196a.187.187 0 0 0-.107-.328l-1.833-.147a.187.187 0 0 1-.157-.115l-.707-1.697Z" clip-rule="evenodd"/></svg>