<svg xmlns="http://www.w3.org/2000/svg" fill="none" viewBox="0 0 24 24"><path fill="currentColor" fill-rule="evenodd" d="M20.324 10.334c0 .087-.184 8.756-8.039 11.616-.006.001-.012 0-.017.002A.829.829 0 0 1 12 22a.828.828 0 0 1-.268-.048c-.006-.002-.011 0-.017-.002-7.855-2.86-8.038-11.53-8.04-11.616a187.36 187.36 0 0 1-.008-1.677V6.155a1.67 1.67 0 0 1 1.666-1.668h.834c3.5 0 5.075-2.071 5.14-2.16a.82.82 0 0 1 .643-.324.816.816 0 0 1 .745.329c.063.084 1.638 2.155 5.138 2.155h.834c.919 0 1.666.75 1.666 1.668v2.502c0 .461-.004 1.216-.009 1.677Zm-1.657-4.179h-.834c-3.045 0-4.925-1.305-5.833-2.15-.908.845-2.788 2.15-5.833 2.15h-.834v2.502c0 .456.005 1.203.01 1.659.004.303.194 7.38 6.656 9.943 6.49-2.578 6.658-9.868 6.658-9.943.006-.456.01-1.203.01-1.659V6.155Zm-5.832 6.518v.153a.834.834 0 1 1-1.667 0V12.5l-.001-.007.001-.008v-.296c0-.036.016-.065.02-.098-.004-.034-.02-.063-.02-.098 0-.462.374-.834.834-.834a.834.834 0 1 0-.835-.834.834.834 0 0 1-1.667 0 2.505 2.505 0 0 1 2.502-2.502 2.503 2.503 0 0 1 2.498 2.502 2.498 2.498 0 0 1-1.665 2.348Zm-.243 2.064a.837.837 0 0 1 .241.592.839.839 0 0 1-.241.591.861.861 0 0 1-.592.243.877.877 0 0 1-.592-.243.876.876 0 0 1-.241-.591c0-.218.091-.435.241-.592.317-.31.875-.31 1.184 0Z" clip-rule="evenodd"/></svg>