<svg xmlns="http://www.w3.org/2000/svg" fill="none" viewBox="0 0 24 24"><path fill="#62757E" fill-rule="evenodd" d="M11.255 2.158a1.834 1.834 0 0 1 1.49 0l6.418 2.853c.663.294 1.09.95 1.09 1.676v4.31c0 5.089-3.521 9.848-8.253 11.003-4.731-1.155-8.253-5.914-8.253-11.003v-4.31c0-.725.427-1.382 1.09-1.676l6.418-2.853ZM12 13.245a.834.834 0 0 1-.834-.835V9.075a.834.834 0 1 1 1.667 0v3.335a.834.834 0 0 1-.833.835Zm0 3.1a.843.843 0 0 1-.592-.242.862.862 0 0 1-.242-.592c0-.217.092-.434.242-.592.317-.309.875-.3 1.183 0 .15.158.242.375.242.592a.862.862 0 0 1-.242.592.877.877 0 0 1-.591.242Z" clip-rule="evenodd"/></svg>