<svg xmlns="http://www.w3.org/2000/svg" fill="none" viewBox="0 0 24 24"><path fill="currentColor" fill-rule="evenodd" d="M20.324 10.334c0 .087-.184 8.756-8.039 11.616-.006.001-.012 0-.017.002A.828.828 0 0 1 12 22a.829.829 0 0 1-.268-.048c-.006-.002-.011 0-.017-.002-7.855-2.86-8.038-11.53-8.04-11.616a234.65 234.65 0 0 1-.008-1.677V6.155a1.67 1.67 0 0 1 1.666-1.668h.834c3.5 0 5.075-2.071 5.14-2.16a.822.822 0 0 1 .645-.324.816.816 0 0 1 .743.329c.063.084 1.638 2.155 5.138 2.155h.834c.919 0 1.666.75 1.666 1.668v2.502c0 .461-.004 1.215-.009 1.677Zm-1.657-4.18h-.834c-3.045 0-4.925-1.304-5.833-2.148-.908.844-2.788 2.149-5.833 2.149h-.834v2.502c0 .456.004 1.203.01 1.659.004.303.194 7.38 6.656 9.943 6.49-2.578 6.658-9.869 6.658-9.943.006-.456.01-1.203.01-1.659V6.155Zm-6.345 8.835a.833.833 0 0 1-1.205.145l-2.984-2.502a.832.832 0 1 1 1.07-1.278l2.304 1.93 3.157-4.287a.833.833 0 1 1 1.342.989l-3.684 5.003Z" clip-rule="evenodd"/></svg>