<svg xmlns="http://www.w3.org/2000/svg" fill="none" viewBox="0 0 24 24"><path fill="#62757E" fill-rule="evenodd" d="M11.255 2.158a1.83 1.83 0 0 1 1.49 0l6.419 2.853c.662.294 1.089.95 1.089 1.676v4.31c0 5.089-3.521 9.848-8.253 11.003-4.731-1.155-8.252-5.914-8.252-11.003v-4.31c0-.725.426-1.382 1.089-1.676zm3.245 13.17a.833.833 0 0 0 .59-1.423l-1.912-1.912 1.911-1.912a.834.834 0 0 0-1.178-1.18L12 10.814l-1.91-1.911a.834.834 0 0 0-1.178 1.18l1.91 1.91-1.911 1.913a.833.833 0 1 0 1.178 1.179L12 13.172l1.91 1.912a.83.83 0 0 0 .59.245" clip-rule="evenodd"/></svg>