<svg xmlns="http://www.w3.org/2000/svg" fill="none" viewBox="0 0 24 24"><path fill="#62757E" fill-rule="evenodd" d="M11.255 2.158a1.83 1.83 0 0 1 1.49 0l6.419 2.853c.662.294 1.089.95 1.089 1.676v4.31c0 5.089-3.521 9.848-8.253 11.003-4.731-1.155-8.252-5.914-8.252-11.003v-4.31c0-.725.426-1.382 1.089-1.676zm-2.588 10.67A3.34 3.34 0 0 0 12 16.162a3.34 3.34 0 0 0 3.333-3.336c0-1.727-1.323-3.136-3.021-3.302l.277-.278a.834.834 0 1 0-1.178-1.18L9.744 9.737a.833.833 0 0 0 0 1.178l1.667 1.668a.83.83 0 0 0 1.178 0 .834.834 0 0 0 0-1.179l-.19-.19c.726.18 1.268.833 1.268 1.614A1.67 1.67 0 0 1 12 14.495a1.67 1.67 0 0 1-1.667-1.668.834.834 0 1 0-1.666 0" clip-rule="evenodd"/></svg>