<svg xmlns="http://www.w3.org/2000/svg" fill="none" viewBox="0 0 24 24"><path fill="#62757E" fill-rule="evenodd" d="M11.167 12.41a.834.834 0 1 0 1.666 0V9.075a.834.834 0 1 0-1.667 0zm.241 3.693a.843.843 0 0 0 1.184 0 .86.86 0 0 0 .241-.592.88.88 0 0 0-.242-.592c-.308-.3-.866-.309-1.183 0a.88.88 0 0 0-.242.592c0 .225.092.434.242.592m.497-12.483L5.486 6.473a.23.23 0 0 0-.138.214v4.31c0 4.275 2.884 8.22 6.652 9.346 3.768-1.125 6.653-5.07 6.653-9.346v-4.31a.23.23 0 0 0-.14-.214L12.096 3.62a.23.23 0 0 0-.19 0m-.65-1.462a1.83 1.83 0 0 1 1.49 0l6.419 2.853c.662.294 1.089.95 1.089 1.676v4.31c0 5.089-3.521 9.848-8.253 11.003-4.731-1.155-8.252-5.914-8.252-11.003v-4.31c0-.725.426-1.382 1.089-1.676z" clip-rule="evenodd"/></svg>