<svg xmlns="http://www.w3.org/2000/svg" fill="none" viewBox="0 0 24 24"><path fill="#62757E" fill-rule="evenodd" d="M11.255 2.158a1.83 1.83 0 0 1 1.49 0l6.419 2.853c.662.294 1.089.95 1.089 1.676v4.31c0 5.089-3.521 9.848-8.253 11.003-4.731-1.155-8.252-5.914-8.252-11.003v-4.31c0-.725.426-1.382 1.089-1.676zm4.911 8.675V12.5h-.951a3.3 3.3 0 0 1-.354.85l.674.673-1.178 1.18-.675-.675a3.3 3.3 0 0 1-.848.354v.952l-1.668-.001.001-.951a3.3 3.3 0 0 1-.85-.354l-.703.703-1.178-1.178.703-.704a3.3 3.3 0 0 1-.353-.849h-.953v-1.666h.953a3.3 3.3 0 0 1 .353-.849l-.675-.675 1.178-1.178.675.675q.396-.234.85-.354V7.5h1.667v.953q.455.119.848.353l.645-.646 1.179 1.178-.645.646q.234.396.354.85zM12 10c-.918 0-1.666.748-1.666 1.666 0 .919.748 1.666 1.666 1.666A1.667 1.667 0 0 0 12 10" clip-rule="evenodd"/></svg>