<svg xmlns="http://www.w3.org/2000/svg" fill="none" viewBox="0 0 24 24"><path fill="#62757E" fill-rule="evenodd" d="M19 22H5.667C4.747 22 4 21.253 4 20.333V7c0-.919.747-1.666 1.667-1.666H9V4.5C9 3.122 10.122 2 11.5 2h1.667c1.378 0 2.5 1.122 2.5 2.5v.832H19a1.67 1.67 0 0 1 1.667 1.667v13.334A1.67 1.67 0 0 1 19 22M14 4.5a.834.834 0 0 0-.833-.833H11.5a.834.834 0 0 0-.833.833v.832H14zM15.667 7v.832a.833.833 0 1 1-1.667 0V7h-3.333v.833a.833.833 0 1 1-1.667 0V7H5.667v13.334h13.33L19 7zm-2.78 11.457c-.045.04-.099.061-.15.09-.03.017-.057.04-.09.054a.8.8 0 0 1-.314.066.8.8 0 0 1-.313-.066c-.033-.014-.06-.037-.09-.054-.052-.029-.105-.05-.15-.09L8.278 15.35c-.604-.595-.945-1.38-.945-2.127 0-1.594 1.309-2.89 2.917-2.89.808 0 1.544.327 2.083.852a2.98 2.98 0 0 1 2.084-.852c1.608 0 2.916 1.296 2.916 2.89 0 .748-.34 1.532-.913 2.096zM14.417 12c-.612 0-1.157.426-1.265.99q-.001.006-.004.01c-.01.056-.04.104-.063.156a.82.82 0 0 1-.588.493l-.005.003c-.04.007-.078-.004-.117-.002-.066.003-.13.015-.2.002l-.008-.004a.8.8 0 0 1-.245-.1c-.017-.01-.038-.013-.054-.024a.8.8 0 0 1-.276-.346c-.028-.058-.061-.115-.074-.179l-.003-.008c-.108-.565-.653-.991-1.265-.991-.69 0-1.25.548-1.25 1.223 0 .298.168.664.417.91l2.916 2.586 2.949-2.617c.217-.215.385-.581.385-.88 0-.674-.561-1.222-1.25-1.222" clip-rule="evenodd"/></svg>