<svg xmlns="http://www.w3.org/2000/svg" fill="none" viewBox="0 0 24 24"><path fill="#62757E" fill-rule="evenodd" d="M18.667 22H5.333a1.67 1.67 0 0 1-1.666-1.667V7c0-.92.748-1.667 1.666-1.667h3.334V4.5c0-1.378 1.121-2.5 2.5-2.5h1.666c1.379 0 2.5 1.122 2.5 2.5v.833h3.334c.919 0 1.666.748 1.666 1.667v13.333c0 .92-.747 1.667-1.666 1.667m-5-17.5a.834.834 0 0 0-.834-.833h-1.666a.834.834 0 0 0-.834.833v.833h3.334zM15.333 7v.833a.833.833 0 1 1-1.666 0V7h-3.334v.833a.833.833 0 1 1-1.666 0V7H5.333v13.333h13.331L18.667 7z" clip-rule="evenodd"/></svg>