<svg xmlns="http://www.w3.org/2000/svg" fill="none" viewBox="0 0 24 24"><path fill="#62757E" fill-rule="evenodd" d="M12 2a4.345 4.345 0 0 1 4.35 4.338v.616h1.79c.954 0 1.755.72 1.855 1.666l1.195 11.325A1.863 1.863 0 0 1 19.334 22H4.667a1.863 1.863 0 0 1-1.857-2.055L4.006 8.62c.1-.947.901-1.666 1.856-1.666H7.65v-.616A4.344 4.344 0 0 1 12 2M5.862 8.553a.263.263 0 0 0-.262.235L4.405 20.111a.264.264 0 0 0 .262.291h14.667a.264.264 0 0 0 .262-.29L18.401 8.787a.263.263 0 0 0-.262-.235H16.35v.25c.218.21.355.505.356.83a1.155 1.155 0 0 1-2.307.119l-.006-.118.006-.118a1.15 1.15 0 0 1 .349-.712v-.251H9.253v.25c.218.21.355.504.355.83 0 .638-.518 1.154-1.156 1.154a1.155 1.155 0 0 1-1.157-1.153c0-.327.137-.622.356-.831v-.25zm7.908 3.289a2.275 2.275 0 0 1 2.274 2.369c-.044 1.438-1.091 2.535-1.993 3.225a9.7 9.7 0 0 1-1.803 1.087l-.035.014-.01.004-.002.002H12.2a.5.5 0 0 1-.399 0H11.8l-.003-.002-.01-.004-.034-.015-.122-.057a9.7 9.7 0 0 1-1.71-1.05c-.911-.705-1.965-1.826-1.965-3.294v-.026A2.276 2.276 0 0 1 12 12.687a2.27 2.27 0 0 1 1.77-.845M12 3.598a2.745 2.745 0 0 0-2.748 2.74v.616h5.496v-.616A2.745 2.745 0 0 0 12 3.598" clip-rule="evenodd"/></svg>