<svg xmlns="http://www.w3.org/2000/svg" fill="none" viewBox="0 0 24 24"><path fill="#62757E" fill-rule="evenodd" d="M18.667 22H5.333a1.67 1.67 0 0 1-1.666-1.667V7c0-.919.747-1.666 1.666-1.666h3.334V4.5c0-1.378 1.121-2.5 2.5-2.5h1.666c1.379 0 2.5 1.122 2.5 2.5v.832h3.334c.918 0 1.666.748 1.666 1.667v13.334c0 .92-.748 1.667-1.666 1.667m-5-17.5a.834.834 0 0 0-.834-.833h-1.666a.834.834 0 0 0-.834.833v.832h3.334zM15.333 7v.832a.833.833 0 1 1-1.666 0V7h-3.334v.833a.833.833 0 1 1-1.666 0V7H5.333v13.334h13.331L18.667 7zm-2.78 11.457c-.045.04-.098.061-.149.09-.03.017-.057.04-.09.054a.8.8 0 0 1-.314.066.8.8 0 0 1-.313-.066c-.034-.014-.06-.037-.091-.054-.05-.029-.104-.05-.15-.09l-3.5-3.107C7.34 14.755 7 13.97 7 13.223c0-1.594 1.308-2.89 2.917-2.89.808 0 1.544.327 2.083.852a2.98 2.98 0 0 1 2.083-.852c1.609 0 2.917 1.296 2.917 2.89 0 .748-.34 1.532-.913 2.096zM14.083 12c-.611 0-1.156.426-1.265.99q0 .006-.003.01c-.01.056-.04.104-.063.156a.81.81 0 0 1-.589.493l-.005.003c-.04.007-.077-.004-.116-.002-.066.003-.131.015-.2.002q-.004-.003-.009-.004a.8.8 0 0 1-.245-.1c-.016-.01-.037-.013-.053-.024a.8.8 0 0 1-.277-.346c-.027-.058-.06-.115-.073-.179l-.003-.008c-.109-.565-.654-.991-1.265-.991-.69 0-1.25.548-1.25 1.223 0 .298.167.664.416.91L12 16.72l2.948-2.617c.218-.215.385-.581.385-.88 0-.674-.56-1.222-1.25-1.222" clip-rule="evenodd"/></svg>