<svg xmlns="http://www.w3.org/2000/svg" fill="none" viewBox="0 0 24 24"><path fill="#62757E" fill-rule="evenodd" d="M18.381 12.652a.834.834 0 0 1-1.08 0c-.148-.126-3.62-3.118-3.62-6.497C13.68 3.748 15.43 2 17.84 2S22 3.748 22 6.155c0 3.38-3.472 6.37-3.619 6.497m-.54-8.985c-1.49 0-2.493 1-2.493 2.488 0 1.794 1.493 3.7 2.49 4.715.87-.887 2.494-2.798 2.494-4.715 0-1.488-1-2.488-2.491-2.488m-3.54 8.38a.833.833 0 1 1-.468 1.6c-.41-.12-.748-.34-1.022-.609a2.4 2.4 0 0 1-1.64.629c-.664 0-1.223-.27-1.648-.67-.424.399-.992.67-1.687.67-.663 0-1.222-.27-1.648-.67-.423.399-.991.67-1.686.67-.015 0-.029-.005-.044-.005v6.671h3.378V17c0-.92.748-1.667 1.667-1.667h2.502c.919 0 1.666.748 1.666 1.667v3.333h3.335v-5a.833.833 0 1 1 1.668 0v5A1.67 1.67 0 0 1 17.006 22h-3.335a1.67 1.67 0 0 1-1.666-1.667V17H9.47v3.333c0 .92-.716 1.667-1.635 1.667H4.502a1.67 1.67 0 0 1-1.668-1.667v-7.148c0-.062.022-.117.035-.174C2.326 12.508 2 11.79 2 11.09c0-.022.01-.04.013-.061.001-.02-.006-.038-.004-.058l.834-5.759c.005-.035.026-.065.035-.1a1 1 0 0 1 .055-.154.7.7 0 0 1 .093-.137 1 1 0 0 1 .097-.109 1 1 0 0 1 .142-.095 1 1 0 0 1 .132-.064 1 1 0 0 1 .168-.033c.035-.005.066-.021.103-.021h7.503a.834.834 0 1 1 0 1.667H4.389l-.716 4.948c.012.37.33.885.829.885.543 0 .833-.484.833-.833 0-.009.005-.016.005-.025 0-.017-.005-.034-.005-.051a.834.834 0 0 1 1.667 0c0 .37.325.909.834.909.544 0 .834-.484.834-.833l.005-.025c0-.017-.005-.034-.005-.051a.833.833 0 1 1 1.667 0c0 .37.325.909.834.909.544 0 .834-.484.834-.833a.833.833 0 1 1 1.666 0c0 .336.254.77.63.88" clip-rule="evenodd"/></svg>