<svg xmlns="http://www.w3.org/2000/svg" fill="none" viewBox="0 0 24 24"><path fill="#62757E" d="M14.747 6.337c0-1.513-1.23-2.74-2.747-2.74a2.744 2.744 0 0 0-2.747 2.74v.617h5.494zm1.958 4.247a1.155 1.155 0 0 1-2.306.118l-.006-.118.006-.118c.029-.279.157-.528.348-.712V8.553H9.253v1.2a1.154 1.154 0 0 1-.801 1.984 1.154 1.154 0 0 1-.801-1.984v-1.2H5.86a.263.263 0 0 0-.261.235L4.405 20.112a.263.263 0 0 0 .262.29h14.667a.263.263 0 0 0 .262-.29L18.401 8.788a.263.263 0 0 0-.262-.235H16.35v1.201c.219.21.355.504.355.83m-.355-3.63h1.79c.954 0 1.754.719 1.854 1.666l1.195 11.325A1.86 1.86 0 0 1 19.335 22H4.667a1.863 1.863 0 0 1-1.857-2.055L4.007 8.62c.1-.947.9-1.666 1.855-1.666H7.65v-.617A4.344 4.344 0 0 1 12 2a4.344 4.344 0 0 1 4.35 4.337z"/></svg>