<svg xmlns="http://www.w3.org/2000/svg" fill="none" viewBox="0 0 24 24"><path fill="#62757E" fill-rule="evenodd" d="m21.166 12.345-8.81 9.157a1.67 1.67 0 0 1-2.368.01l-7.5-7.5A1.65 1.65 0 0 1 2 12.833c0-.446.173-.865.488-1.179l9.178-8.831c.47-.473 1.317-.823 2-.823h6.667C21.253 2 22 2.748 22 3.667v6.666c0 .683-.35 1.529-.834 2.012m-.833-8.678h-6.666c-.238 0-.666.177-.835.345l-9.178 8.833 7.513 7.49v-.002h.002l8.807-9.155c.18-.18.357-.608.357-.845zM17 9.5c-1.378 0-2.5-1.12-2.5-2.5 0-1.378 1.122-2.5 2.5-2.5s2.5 1.122 2.5 2.5c0 1.38-1.122 2.5-2.5 2.5m0-3.333a.834.834 0 1 0 .003 1.668A.834.834 0 0 0 17 6.167" clip-rule="evenodd"/></svg>