<svg xmlns="http://www.w3.org/2000/svg" fill="none" viewBox="0 0 24 24"><path fill="#62757E" fill-rule="evenodd" d="M19 22H5.667A1.669 1.669 0 0 1 4 20.333V7c0-.92.748-1.667 1.667-1.667H9V4.5C9 3.122 10.122 2 11.5 2h1.667c1.378 0 2.5 1.122 2.5 2.5v.833H19c.92 0 1.667.748 1.667 1.667v13.333c0 .92-.748 1.667-1.667 1.667ZM14 4.5a.834.834 0 0 0-.833-.833H11.5a.834.834 0 0 0-.833.833v.833H14V4.5ZM15.667 7v.833a.833.833 0 1 1-1.667 0V7h-3.333v.833a.833.833 0 1 1-1.667 0V7H5.667v13.333h13.33L19 7h-3.333Z" clip-rule="evenodd"/></svg>