<svg xmlns="http://www.w3.org/2000/svg" fill="none" viewBox="0 0 24 24"><path fill="#62757E" d="M18.948 2A3.05 3.05 0 0 1 22 5.052v4.32c0 .81-.322 1.585-.895 2.157l-9.584 9.586c-.935.935-2.432 1.208-3.613.435a18.9 18.9 0 0 1-5.458-5.458c-.773-1.181-.5-2.678.435-3.612l9.586-9.586A3.05 3.05 0 0 1 14.628 2zm-4.32 1.6c-.385 0-.754.154-1.025.425l-9.586 9.586c-.464.464-.536 1.13-.227 1.604a17.3 17.3 0 0 0 4.995 4.995c.473.31 1.14.237 1.604-.227l9.586-9.585c.271-.272.424-.641.424-1.026v-4.32c0-.801-.65-1.451-1.45-1.451zm1.836 1.613a2.6 2.6 0 1 1-2.85 2.85l-.013-.265.012-.266A2.6 2.6 0 0 1 16.198 5.2zM16.198 6.8a.998.998 0 0 0-.102 1.99l.102.006a1 1 0 0 0 .992-.897l.006-.101a1 1 0 0 0-.998-.998"/></svg>