<svg xmlns="http://www.w3.org/2000/svg" fill="none" viewBox="0 0 24 24"><path fill="#62757E" fill-rule="evenodd" d="M22 9.5a2.4 2.4 0 0 1-.72 1.697v9.142c0 .919-.861 1.661-1.78 1.661h-4.167c-.918 0-1.602-.742-1.602-1.661v-5.016l-3.397.01v5A1.67 1.67 0 0 1 8.667 22H4.5a1.668 1.668 0 0 1-1.666-1.667v-9.027C2.323 10.85 2 10.212 2 9.5c0-.027.013-.05.015-.075.003-.026-.006-.05 0-.075l1.221-6.668c.006-.03.025-.054.034-.083a.786.786 0 0 1 .395-.489.859.859 0 0 1 .133-.058.84.84 0 0 1 .171-.035C4 2.014 4.026 2 4.056 2h15.888c.032 0 .059.014.09.018a.842.842 0 0 1 .306.095.845.845 0 0 1 .24.2.761.761 0 0 1 .15.283c.009.03.027.052.033.082l1.223 6.459a.826.826 0 0 1-.004.273c.004.03.018.058.018.09ZM4.5 20.333l4.199.006v-5.016c0-.92.715-1.657 1.635-1.657h3.332c.92 0 1.667.748 1.667 1.667v5l4.27.006v-8.365c-.09.008-.178.026-.271.026a2.748 2.748 0 0 1-1.833-.694 2.744 2.744 0 0 1-1.833.694 2.75 2.75 0 0 1-1.833-.694A2.75 2.75 0 0 1 12 12a2.748 2.748 0 0 1-1.833-.694A2.744 2.744 0 0 1 8.333 12a2.744 2.744 0 0 1-1.832-.694A2.75 2.75 0 0 1 4.666 12c-.057 0-.11-.012-.166-.016v8.349Zm.166-10c.552 0 1-.374 1-.833a.834.834 0 1 1 1.667 0c0 .46.45.833 1 .833.551 0 1-.374 1-.833a.833.833 0 1 1 1.666 0c0 .46.448.833 1 .833s1.002-.374 1.002-.833a.833.833 0 1 1 1.666 0c0 .46.448.833.999.833.551 0 1-.374 1-.833a.833.833 0 1 1 1.666 0c0 .46.449.833 1 .833.552 0 1.002-.374 1.002-.833 0-.022.01-.042.012-.064l-1.101-5.818H4.759L3.675 9.532c.02.444.454.8.991.8Z" clip-rule="evenodd"/></svg>