<svg xmlns="http://www.w3.org/2000/svg" fill="none" viewBox="0 0 24 24"><path fill="#62757E" fill-rule="evenodd" d="M21.167 11.473v8.193c0 .92-.748 1.667-1.667 1.667h-15a1.67 1.67 0 0 1-1.667-1.667v-8.193a2.42 2.42 0 0 1-.815-1.64l-.003-.023C2.012 9.762 2 9.716 2 9.667c0-.03.013-.056.017-.086.003-.029-.005-.057 0-.085L3.24 3.663c.006-.027.023-.047.032-.073a.8.8 0 0 1 .151-.283.82.82 0 0 1 .552-.291c.028-.003.052-.016.08-.016h15.889c.027 0 .05.013.077.015a.87.87 0 0 1 .435.177.8.8 0 0 1 .203.24q.042.071.069.154c.007.025.025.044.03.07l1.223 5.625a.8.8 0 0 1 .005.315c.001.025.014.045.014.07 0 .712-.323 1.35-.833 1.807m-6.667 8.2 5.12.003V12.14c-.096.01-.19.027-.288.027a2.75 2.75 0 0 1-1.833-.693 2.75 2.75 0 0 1-3 .43zm-10-.007 8.405.006v-7.665a2.8 2.8 0 0 1-.906.16 2.75 2.75 0 0 1-1.833-.694 2.75 2.75 0 0 1-1.833.693 2.75 2.75 0 0 1-1.833-.693 2.75 2.75 0 0 1-1.834.693c-.057 0-.11-.012-.167-.016zm.166-9.166c.551 0 1.001-.374 1.001-.833a.834.834 0 1 1 1.666 0c0 .459.449.833 1 .833s1-.374 1-.833a.834.834 0 1 1 1.666 0c0 .459.448.833 1 .833.551 0 1.001-.374 1.001-.833a.834.834 0 1 1 1.666 0c0 .459.45.833 1 .833.551 0 1-.374 1-.833a.834.834 0 1 1 1.666 0c0 .459.448.833 1 .833s1.001-.374 1.001-.833c0-.022.011-.04.013-.061L19.26 4.618H4.742L3.676 9.706c.026.44.455.794.99.794m12.333 5.833h-1.666v-1.667H17z" clip-rule="evenodd"/></svg>