<svg xmlns="http://www.w3.org/2000/svg" fill="none" viewBox="0 0 24 24"><path fill="#62757E" fill-rule="evenodd" d="M21.787 15.242v.063c0 .014.018.019.025.007.006-.011.024-.008.025.005q.007.059.017.118.014.092.024.191a.453.453 0 0 1-.444.497h-.008a.45.45 0 0 1-.384-.214 5 5 0 0 0-.215-.328l-.063-.09q-.015-.024-.032-.046c-.017-.019-.024-.045-.035-.068l-.254-.508-.215-.564-.055-.194a2 2 0 0 0-.24-.526l-.067-.105c-.03-.045-.069-.1-.087-.151l-.01-.026-.117-.298-.022-.067a1 1 0 0 0-.119-.21l-.085-.13-.09-.135-.098-.119c-.058-.07-.12-.144-.184-.231l-.02-.023c-.032-.037-.072-.07-.093-.113q-.068-.118-.136-.231l-.135-.232-.024-.048c-.034-.077-.04-.163-.056-.245l-.026-.183a1.1 1.1 0 0 0-.128-.38l-.14-.25-.003-.009a1.4 1.4 0 0 0-.55-.59l-.045-.034a.46.46 0 0 1-.192-.226c-.068-.17-.136-.328-.215-.509l-.056-.124q-.018-.042-.04-.087a.64.64 0 0 0-.23-.275l-.227-.146a.47.47 0 0 1-.203-.34l-.026-.282a.75.75 0 0 0-.155-.406l-.008-.01a2 2 0 0 0-.204-.213l-.082-.07-.192-.17a.37.37 0 0 1-.124-.17l-.068-.18-.028-.065a.4.4 0 0 0-.173-.192l-.262-.14a.45.45 0 0 1-.237-.327l-.037-.234a.42.42 0 0 0-.2-.297l-.148-.079a.48.48 0 0 1-.214-.282l-.023-.085A.6.6 0 0 0 14 4.461l-.076-.03a.34.34 0 0 1-.192-.135l-.113-.147c-.068-.09-.136-.18-.215-.271a.7.7 0 0 1-.079-.158l-.013-.045a.97.97 0 0 0-.45-.565.4.4 0 0 1-.18-.181l-.272-.52c-.041-.091-.09-.177-.138-.265l-.054-.096a.6.6 0 0 0-.152-.192q-.056-.051-.108-.102l-.18-.18q-.044-.052-.09-.102l-.091-.102-.113-.124a.447.447 0 0 1 .34-.746.48.48 0 0 1 .327.147l.102.102.104.117q.089.097.188.182l.047.04c.063.052.135.113.199.185q.015.017.04.018.01 0 .019.004l.397.165.016.009.082.05.072.043.18.113q.089.054.181.113c.017.011.04.032.06.049l.06.062.343.375.334.324c.049.047.101.092.137.15q.015.022.027.048.052.109.111.224l.07.135q.045.078.116.134l.058.046q.063.051.13.102a.9.9 0 0 1 .226.215l.217.371a.2.2 0 0 0 .054.058q.093.051.187.107.093.056.186.108a.4.4 0 0 1 .069.055 1 1 0 0 1 .123.147l.26.363.373.429c.05.05.072.122.103.187q.061.129.123.265l.002.005a2 2 0 0 0 .195.339l.064.098a1 1 0 0 0 .157.179c.101.079.203.17.305.26a.46.46 0 0 1 .146.26l.031.162a.97.97 0 0 0 .292.528l.043.04a1 1 0 0 1 .109.128l.067.104q.085.126.159.258.046.079.112.14l.13.125.198.187c.046.045.08.101.102.158l.068.17q.03.082.067.17.044.107.09.236l.096.338q.052.181.136.35l.142.283.203.373q.045.102.107.194l.05.072c.077.114.158.233.25.378l.056.113c.08.135.147.271.192.373l.102.17q.051.085.102.174.05.09.101.175a.6.6 0 0 1 .052.13q.016.051.016.104v.071l.013.122c.02.173.057.345.127.504l.097.222a.5.5 0 0 1 .045.18v.146a.75.75 0 0 0 .164.464q.08.102.164.204c.057.079.09.18.09.282v.113a2.6 2.6 0 0 0 0 .418m-9.052 3.95q.004.015.004.03v.11c0 .029-.027.05-.055.044a.045.045 0 0 0-.054.037 4 4 0 0 1-.069.374.4.4 0 0 0-.008.178l.022.152.028.186.034.215a.4.4 0 0 1 0 .17q-.033.118-.062.242c-.038.16-.037.326-.008.488.069.384.102.9.048 1.156l-.068.542a.46.46 0 0 1-.418.384h-.034a.46.46 0 0 1-.44-.328l-.08-.282-.07-.227c-.013-.044-.031-.088-.031-.134-.023-.17-.057-.34-.09-.509l-.013-.069a1 1 0 0 1-.01-.112l-.057-.677v-.401q0-.176-.045-.345a5 5 0 0 1-.062-.203l-.041-.138c-.014-.044-.04-.1-.043-.145l-.003-.037-.02-.2-.017-.184a2 2 0 0 0-.074-.37 7 7 0 0 0-.113-.372l-.26-.678-.158-.633-.007-.06c-.005-.065 0-.13.005-.195l.015-.15a2 2 0 0 0-.043-.65l-.004-.018-.056-.248a5 5 0 0 0-.08-.407.5.5 0 0 0-.094-.203l-.131-.159-.203-.248a.52.52 0 0 1-.113-.35l-.008-.054a7 7 0 0 0-.072-.466l-.033-.226-.023-.152a.6.6 0 0 0-.115-.276l-.28-.374a.41.41 0 0 1-.09-.339q.035-.201.06-.414a.55.55 0 0 0-.041-.29 3 3 0 0 1-.088-.21l-.056-.125a14 14 0 0 0-.303-.514 1 1 0 0 1-.043-.082c-.036-.081-.045-.171-.06-.259l-.012-.072-.023-.158a.54.54 0 0 0-.13-.277l-.299-.333a.5.5 0 0 1-.113-.339l.02-.251a.64.64 0 0 0-.161-.472q-.09-.1-.175-.203a.54.54 0 0 1-.113-.271v-.158L7.594 8.4a.75.75 0 0 0-.227-.485 7 7 0 0 1-.209-.197.5.5 0 0 1-.055-.071 1 1 0 0 1-.082-.158l-.167-.375c-.046-.102-.114-.2-.114-.311a7 7 0 0 0-.045-.472q0-.047-.032-.083l-.103-.112-.249-.26a.6.6 0 0 1-.102-.192l-.056-.226a6 6 0 0 0-.113-.429l-.118-.417a1.5 1.5 0 0 0-.141-.347l-.103-.174-.135-.237-.113-.226-.124-.237a.46.46 0 0 1 .047-.488.45.45 0 0 1 .348-.179c.158 0 .316.09.395.238l.136.26.102.214.124.203q.051.084.102.164.102.163.244.294l.354.322c.102.113.204.237.305.361l.147.17.03.038a1 1 0 0 1 .05.084l.146.273.147.283.124.203.237.407.02.038c.02.041.031.085.043.13l.046.176a2 2 0 0 0 .318.674l.054.075c.056.077.129.147.152.24.057.17.102.327.147.485a.5.5 0 0 0 .106.181q.178.198.346.396a.3.3 0 0 1 .038.051c.03.047.051.099.072.15l.06.149q.058.151.111.281l.046.114.294.622.007.013c.026.048.033.104.045.157l.033.146.05.226.046.192q.042.133.09.271l.077.227q.025.078.07.146c.102.158.203.327.305.497a.5.5 0 0 1 .057.248v.158l-.003.032c-.02.253.045.503.168.725l.076.136.034.068c.018.035.025.075.036.112q.023.076.044.153.03.106.063.21a2 2 0 0 0 .186.417q.063.12.13.237l.068.113.01.018c.05.086.054.19.068.288.027.178.053.36.08.564v.203q.009.115.01.235.003.183.035.364c.034.147.068.294.09.418l.147.622.226.711.124.621q.026.11.057.22.031.111.056.221zm-5.871-2.927a.008.008 0 0 1-.012-.007 5 5 0 0 0-.044-.44l-.056-.237a4 4 0 0 1-.046-.192q-.02-.098-.045-.192l-.068-.486-.03-.305q-.015-.157.002-.316l.017-.158.003-.018a2 2 0 0 0 .02-.283v-.456a.4.4 0 0 0-.045-.192l-.046-.102-.078-.164a2 2 0 0 1-.162-.485l-.034-.176a1 1 0 0 0-.02-.089l-.002-.005a1 1 0 0 0-.05-.123l-.048-.097a.8.8 0 0 1-.058-.476l.034-.147a.52.52 0 0 0-.045-.316q-.078-.153-.164-.31l-.036-.065a.8.8 0 0 1-.082-.236l-.035-.167q-.033-.15-.043-.3l-.02-.3a1 1 0 0 0-.027-.181l-.192-.531-.01-.046a4 4 0 0 0-.091-.327l-.034-.136a.4.4 0 0 0-.08-.158 6 6 0 0 0-.284-.36.12.12 0 0 1-.031-.082l-.002-.02-.042-.242c-.016-.088-.026-.178-.062-.259a1 1 0 0 0-.042-.082l-.04-.068a1.6 1.6 0 0 1-.22-.67l-.008-.085-.007-.059a.4.4 0 0 0-.03-.106L4.3 5.64l-.079-.17-.103-.277-.089-.242q-.014-.037-.032-.067l-.028-.045-.046-.065a11 11 0 0 0-.29-.4l-.146-.169q-.06-.067-.124-.13l-.049-.048a.6.6 0 0 1-.12-.183 10 10 0 0 0-.17-.35l-.147-.396a.45.45 0 0 0-.43-.293H2.44a.44.44 0 0 0-.41.599l.146.417c.068.147.113.26.159.373q.056.137.073.282l.017.147.023.181c.022.18.033.362.045.542 0 .09.045.181.101.249l.084.103.055.066c.081.1.115.229.097.357q-.013.084-.021.163c0 .068 0 .135.011.203l.158.52a.6.6 0 0 0 .102.18l.215.224c.058.06.088.14.069.22l-.013.054-.022.147a.44.44 0 0 0 .09.35q.069.087.136.177c.065.087.083.2.05.303l-.05.164a.46.46 0 0 0 .09.429l.069.084c.153.187.236.42.236.662a.36.36 0 0 0 .056.214l.216.43a1 1 0 0 1 .037.092.5.5 0 0 1-.117.517.48.48 0 0 0-.056.475l.286.615c.116.25.177.522.177.797a.46.46 0 0 0 .09.271q.119.144.225.295l.065.088q.026.035.026.079 0 .012.003.025c.02.109.031.217.031.315l.005.036a2 2 0 0 1-.068.818l-.004.016a.35.35 0 0 0 0 .215q.015.076.028.158.012.08.028.158l.03.171.004.03c.004.035.029.075.04.107q.057.16.104.32l.025.084.023.067.056.238.003.01a2 2 0 0 1 .043.413v.14q0 .227.05.45v.003l.003.011c.031.142.036.29.018.434l-.006.048a3 3 0 0 0-.02.304v.186l-.023.237q0 .08.01.158.011.117.015.232l.01.153c0 .083.018.166.033.248l.023.113.045.26a.47.47 0 0 0 .406.384h.046a.45.45 0 0 0 .429-.294l.079-.214.045-.113.034-.102c.08-.17.136-.463.18-.881 0-.068 0-.124-.022-.192a.35.35 0 0 1 .028-.288q.04-.076.074-.153a.4.4 0 0 0 .045-.192v-.063a2.6 2.6 0 0 1 .147-.818c.022-.068.034-.147.022-.215l-.03-.192a5 5 0 0 0-.071-.388v-.039a.008.008 0 0 0-.012-.007m10.336 2.58q.002.023.012.044a.4.4 0 0 1 .04.123c.004.026.037.04.056.02l.016-.015a.014.014 0 0 1 .021.003q.012.016.014.034l.003.012c.056.135.12.29.076.48l-.002.009a3 3 0 0 0-.066.463l-.01.116v.146a.46.46 0 0 1-.319.414.4.4 0 0 1-.134.016.44.44 0 0 1-.418-.283l-.067-.17-.03-.075c-.036-.091-.073-.186-.117-.274l-.018-.05-.01-.035-.074-.277-.056-.203-.009-.033c-.01-.038-.025-.075-.025-.114a4 4 0 0 0-.074-.41 1 1 0 0 1-.028-.223 5 5 0 0 0-.036-.32 1 1 0 0 1-.01-.105.5.5 0 0 0-.031-.183l-.053-.131-.04-.097-.079-.192a1 1 0 0 1-.024-.102l-.06-.322a2 2 0 0 0-.122-.404l-.121-.29-.283-.554-.014-.034-.016-.044-.196-.543c-.022-.056-.022-.113-.022-.17.011-.146.011-.293.011-.44a.6.6 0 0 0-.034-.197l-.068-.198-.079-.215c-.056-.147-.44-.745-.553-.858a.7.7 0 0 1-.147-.283c-.028-.15-.064-.293-.101-.44l-.023-.09-.057-.215-.034-.125a.5.5 0 0 0-.124-.215l-.293-.293a.48.48 0 0 1-.136-.339l.011-.274a.93.93 0 0 0-.113-.505l-.017-.03a2 2 0 0 0-.164-.244l-.27-.348a.4.4 0 0 1-.08-.17l-.034-.123-.017-.086a.72.72 0 0 0-.265-.417q-.102-.08-.203-.164a.5.5 0 0 1-.164-.26.6.6 0 0 1-.017-.16v-.148a.55.55 0 0 0-.192-.426l-.147-.124a.43.43 0 0 1-.147-.283l-.031-.203a.56.56 0 0 0-.234-.373l-.198-.135a.37.37 0 0 1-.147-.147l-.305-.531a.4.4 0 0 1-.047-.112l-.015-.07-.049-.3a.4.4 0 0 0-.143-.247q-.06-.045-.119-.096l-.135-.113a.5.5 0 0 1-.136-.203 19 19 0 0 0-.214-.588.7.7 0 0 0-.102-.158 1.6 1.6 0 0 1-.226-.361l-.226-.509a6 6 0 0 0-.17-.282l-.079-.124a.456.456 0 0 1 .147-.622.46.46 0 0 1 .621.136l.068.113q.044.075.09.147.093.145.206.276l.124.14q.111.126.243.232l.332.267.462.429c.05.049.087.108.125.167l.045.07.092.14c.05.075.099.147.134.21l.348.475c.017.023.036.055.051.079l.02.033.27.51c.055.1.142.246.217.351.054.078.118.149.16.234l.007.013.174.434q.03.075.086.13c.124.103.249.204.362.306a.3.3 0 0 1 .056.06 1 1 0 0 1 .082.134l.246.472.302.501c.017.028.039.052.055.08.018.031.02.07.031.105l.047.153q.046.135.084.28.035.112.083.22l.064.141.046.103q.067.146.169.27c.101.113.192.226.282.35.057.08.09.17.09.26l.009.19c.01.222.084.437.216.617l.073.101q.029.041.053.086a.2.2 0 0 1 .022.045q.042.094.08.192.037.098.079.192.057.158.155.294l.121.17.096.135.046.057a.4.4 0 0 1 .067.158c.04.18.08.36.136.572a.7.7 0 0 1 .023.17q0 .049.007.097.018.12.033.24.018.163.061.322.04.149.083.286l.03.098c.065.184.037.368.014.512v.007a.15.15 0 0 0 .034.122l.325.387a.6.6 0 0 1 .09.17l.17.575.21.596.007.029.01.065c.009.074-.001.15-.001.225l-.023.279a.9.9 0 0 0 .023.275q.043.165.076.33.014.075.014.154a1 1 0 0 1-.018.182l-.016.08-.016.127a.8.8 0 0 0 .015.305q.01.036.011.066a.2.2 0 0 0 .008.04q.01.025.014.048" clip-rule="evenodd"/></svg>