<svg xmlns="http://www.w3.org/2000/svg" fill="none" viewBox="0 0 24 24"><path fill="#62757E" fill-rule="evenodd" d="M21.787 15.242v.063c0 .014.018.019.025.007.006-.011.024-.008.025.005.005.04.01.078.017.118.009.062.018.125.024.191a.453.453 0 0 1-.444.497h-.008a.454.454 0 0 1-.384-.214 5.443 5.443 0 0 0-.215-.328l-.063-.09c-.01-.015-.02-.032-.032-.046-.017-.019-.024-.045-.035-.068l-.254-.508-.215-.564-.055-.194a1.954 1.954 0 0 0-.24-.526l-.067-.105c-.03-.045-.069-.1-.087-.151l-.01-.026-.117-.298-.022-.067a.98.98 0 0 0-.119-.21 5.06 5.06 0 0 1-.085-.13l-.09-.135a8.248 8.248 0 0 0-.098-.119c-.058-.07-.12-.144-.184-.231l-.02-.023c-.032-.037-.072-.07-.093-.113-.046-.079-.09-.155-.136-.231l-.135-.232a1.197 1.197 0 0 1-.024-.048c-.034-.077-.04-.163-.056-.245a5.294 5.294 0 0 1-.026-.183 1.082 1.082 0 0 0-.128-.38l-.14-.25-.003-.009a1.413 1.413 0 0 0-.55-.59l-.045-.034a.463.463 0 0 1-.192-.226c-.068-.17-.136-.328-.215-.509l-.056-.124a1.616 1.616 0 0 0-.04-.087.64.64 0 0 0-.23-.275l-.227-.146a.47.47 0 0 1-.203-.34l-.026-.282a.751.751 0 0 0-.155-.406l-.008-.01a1.777 1.777 0 0 0-.204-.213 29.795 29.795 0 0 0-.082-.07l-.192-.17a.37.37 0 0 1-.124-.17l-.068-.18a2.011 2.011 0 0 0-.028-.065.395.395 0 0 0-.173-.192l-.262-.14a.448.448 0 0 1-.237-.327l-.037-.234a.423.423 0 0 0-.2-.297l-.148-.079a.481.481 0 0 1-.214-.282l-.023-.085A.596.596 0 0 0 14 4.461a10.13 10.13 0 0 1-.076-.03.337.337 0 0 1-.192-.135l-.113-.147c-.068-.09-.136-.18-.215-.271a.686.686 0 0 1-.079-.158l-.013-.045a.966.966 0 0 0-.45-.565.4.4 0 0 1-.18-.181l-.272-.52c-.041-.091-.09-.177-.138-.265l-.054-.096a.559.559 0 0 0-.152-.192c-.037-.034-.074-.068-.108-.102l-.18-.18c-.029-.035-.06-.069-.09-.102a2.839 2.839 0 0 1-.091-.102l-.113-.124a.447.447 0 0 1 .34-.746.48.48 0 0 1 .327.147l.102.102.104.117c.059.065.122.125.188.182l.047.04c.063.052.135.113.199.185.01.011.024.018.04.018.006 0 .013.001.019.004l.397.165.016.009.082.05.072.043.18.113c.06.037.119.073.181.113.017.011.04.032.06.049l.06.062.343.375.334.324c.049.047.101.092.137.15.01.015.019.031.027.048.034.073.072.147.111.224l.07.135c.029.052.07.097.116.134l.058.046c.043.034.085.068.13.102a.89.89 0 0 1 .226.215l.217.371a.176.176 0 0 0 .054.058c.062.034.124.07.187.107.062.037.124.074.186.108a.44.44 0 0 1 .069.055.998.998 0 0 1 .123.147l.26.363.373.429c.05.05.072.122.103.187.041.085.082.175.123.265l.002.005a2.121 2.121 0 0 0 .195.339l.064.098a.879.879 0 0 0 .157.179c.101.079.203.17.305.26a.46.46 0 0 1 .146.26l.031.162a.968.968 0 0 0 .292.528l.043.04a.758.758 0 0 1 .109.128l.067.104a3.8 3.8 0 0 1 .159.258c.03.052.068.1.112.14l.13.125.198.187c.046.045.08.101.102.158l.068.17c.02.055.043.111.067.17.029.072.06.15.09.236l.096.338c.035.12.08.238.136.35l.142.283.203.373c.03.068.066.133.107.194l.05.072c.077.114.158.233.25.378l.056.113c.08.135.147.271.192.373l.102.17c.034.056.068.115.102.174.034.06.067.119.101.175a.56.56 0 0 1 .068.234v.071l.013.122c.02.173.057.345.127.504l.097.222a.531.531 0 0 1 .045.18v.146a.75.75 0 0 0 .164.464c.054.068.108.136.164.204.057.079.09.18.09.282v.113a2.603 2.603 0 0 0 0 .418Zm-9.052 3.95c.003.01.004.02.004.03v.11c0 .029-.027.05-.055.044a.045.045 0 0 0-.054.037 3.521 3.521 0 0 1-.069.374.434.434 0 0 0-.008.178l.022.152c.009.062.017.124.028.186l.034.215a.427.427 0 0 1 0 .17c-.022.078-.042.16-.062.242-.038.16-.037.326-.008.488.069.384.102.9.048 1.156l-.068.542a.457.457 0 0 1-.418.384h-.034a.461.461 0 0 1-.44-.328l-.08-.282-.07-.227c-.013-.044-.031-.088-.031-.134-.023-.17-.057-.34-.09-.509l-.013-.069a.627.627 0 0 1-.01-.112l-.057-.677v-.401c0-.117-.015-.232-.045-.345a5.431 5.431 0 0 1-.062-.203 8.012 8.012 0 0 0-.041-.138c-.014-.044-.04-.1-.043-.145a.744.744 0 0 0-.003-.037l-.02-.2-.017-.184a1.781 1.781 0 0 0-.074-.37 7.18 7.18 0 0 0-.113-.372l-.26-.678-.158-.633a1.115 1.115 0 0 1-.002-.255l.015-.15a1.999 1.999 0 0 0-.043-.65l-.004-.018-.056-.248a5.16 5.16 0 0 0-.08-.407.465.465 0 0 0-.094-.203 19.298 19.298 0 0 1-.334-.407.518.518 0 0 1-.113-.35l-.008-.054a6.633 6.633 0 0 0-.072-.466l-.033-.226a2.84 2.84 0 0 0-.023-.152.632.632 0 0 0-.115-.276l-.28-.374a.413.413 0 0 1-.09-.339c.024-.133.043-.273.06-.414a.552.552 0 0 0-.041-.29 3.388 3.388 0 0 1-.088-.21l-.056-.125a14.361 14.361 0 0 0-.303-.514.699.699 0 0 1-.043-.082c-.036-.081-.045-.171-.06-.259l-.012-.072a3.549 3.549 0 0 0-.023-.158.539.539 0 0 0-.13-.277l-.299-.333a.512.512 0 0 1-.113-.339 7.796 7.796 0 0 1 .02-.251.637.637 0 0 0-.161-.472 6.503 6.503 0 0 1-.175-.203.535.535 0 0 1-.113-.271v-.158L7.594 8.4a.75.75 0 0 0-.227-.485 6.92 6.92 0 0 1-.209-.197.497.497 0 0 1-.055-.071 1.045 1.045 0 0 1-.082-.158l-.167-.375c-.046-.102-.114-.2-.114-.311a6.512 6.512 0 0 0-.045-.472.122.122 0 0 0-.032-.083l-.103-.112-.249-.26a.628.628 0 0 1-.102-.192l-.056-.226a6.018 6.018 0 0 0-.113-.429l-.118-.417a1.531 1.531 0 0 0-.141-.347 10.383 10.383 0 0 0-.103-.174l-.135-.237-.113-.226-.124-.237a.461.461 0 0 1 .047-.488.446.446 0 0 1 .348-.179c.158 0 .316.09.395.238l.136.26.102.214.124.203c.034.057.068.11.102.164.068.108.15.208.244.294l.354.322c.102.113.204.237.305.361l.147.17a.864.864 0 0 1 .08.122l.146.273.147.283.124.203.237.407a.28.28 0 0 1 .02.038c.02.041.031.085.043.13l.046.176a2 2 0 0 0 .318.674l.054.075c.056.077.129.147.152.24.057.17.102.327.147.485a.51.51 0 0 0 .106.181c.12.132.233.264.346.396a.313.313 0 0 1 .038.051c.03.047.051.099.072.15l.06.149c.038.1.076.195.111.281l.046.114.294.622.007.013c.026.048.033.104.045.157l.033.146.05.226.046.192c.028.089.058.178.09.271l.077.227c.017.052.04.1.07.146.102.158.203.327.305.497a.475.475 0 0 1 .057.248v.158l-.003.032c-.02.253.045.503.168.725l.076.136.034.068c.018.035.025.075.036.112.016.05.03.102.044.153.02.07.04.141.063.21a1.97 1.97 0 0 0 .186.417c.042.08.085.158.13.237l.068.113.01.018c.05.086.054.19.068.288.027.178.053.36.08.564v.203a3.6 3.6 0 0 1 .01.235c.002.122.013.244.035.364.034.147.068.294.09.418l.147.622.226.711.124.621c.017.074.037.147.057.22.02.074.04.148.056.221l.053.222Zm-5.871-2.927a.008.008 0 0 1-.012-.007 5.427 5.427 0 0 0-.044-.44l-.056-.237a3.804 3.804 0 0 1-.046-.192c-.014-.065-.028-.13-.045-.192l-.068-.486-.03-.305a1.59 1.59 0 0 1 .002-.316l.017-.158.003-.018a2 2 0 0 0 .02-.283v-.456a.371.371 0 0 0-.045-.192l-.046-.102a6.542 6.542 0 0 1-.078-.164 2.067 2.067 0 0 1-.162-.485l-.034-.176a.936.936 0 0 0-.02-.089l-.002-.005a.75.75 0 0 0-.05-.123l-.048-.097a.805.805 0 0 1-.058-.476l.034-.147a.52.52 0 0 0-.045-.316c-.051-.103-.107-.205-.164-.31l-.036-.065a.786.786 0 0 1-.082-.236 10.585 10.585 0 0 0-.035-.167c-.022-.1-.036-.2-.043-.3l-.02-.3a1.211 1.211 0 0 0-.027-.181l-.192-.531-.01-.046a4.272 4.272 0 0 0-.091-.327l-.034-.136a.417.417 0 0 0-.08-.158 5.547 5.547 0 0 0-.284-.36.123.123 0 0 1-.031-.082 20.2 20.2 0 0 0-.044-.262c-.016-.088-.026-.178-.062-.259a.813.813 0 0 0-.042-.082l-.04-.068a1.608 1.608 0 0 1-.22-.67l-.008-.085a.782.782 0 0 0-.007-.059.44.44 0 0 0-.03-.106L4.3 5.64l-.079-.17-.103-.277-.089-.242c-.008-.024-.021-.047-.032-.067a.536.536 0 0 0-.028-.045l-.046-.065a11.338 11.338 0 0 0-.29-.4l-.146-.169c-.04-.045-.082-.087-.124-.13a6.92 6.92 0 0 1-.049-.048.617.617 0 0 1-.12-.183 10.228 10.228 0 0 0-.17-.35l-.147-.396a.452.452 0 0 0-.43-.293H2.44a.44.44 0 0 0-.41.599l.146.417c.068.147.113.26.159.373.037.09.062.186.073.282l.017.147.023.181c.022.18.033.362.045.542 0 .09.045.181.101.249l.084.103.055.066c.081.1.115.229.097.357-.008.056-.016.11-.021.163 0 .068 0 .135.011.203l.158.52a.573.573 0 0 0 .102.18l.215.224c.058.06.088.14.069.22a1.28 1.28 0 0 0-.013.054l-.022.147a.438.438 0 0 0 .09.35c.046.058.091.117.136.177.065.087.083.2.05.303l-.05.164a.46.46 0 0 0 .09.429l.069.084c.153.187.236.42.236.662a.36.36 0 0 0 .056.214l.216.43a.69.69 0 0 1 .037.092.496.496 0 0 1-.117.517.477.477 0 0 0-.056.475l.286.615c.116.25.177.522.177.797a.46.46 0 0 0 .09.271c.08.095.153.196.225.295l.065.088c.017.023.026.05.026.079a1.693 1.693 0 0 1 .034.34l.005.036a2 2 0 0 1-.068.818l-.004.016a.348.348 0 0 0 0 .215c.01.05.02.104.028.158.008.053.017.107.028.158l.03.171a.275.275 0 0 1 .004.03c.004.035.029.075.04.107.039.105.072.214.104.32l.025.084.023.067.056.238.003.01a2 2 0 0 1 .043.413v.14c0 .151.017.302.05.45v.003l.003.011c.031.142.036.29.018.434l-.006.048a2.47 2.47 0 0 0-.02.304v.186l-.023.237c0 .053.004.106.01.158.008.078.012.155.015.232.003.05.005.1.01.153 0 .083.018.166.033.248l.023.113.045.26a.467.467 0 0 0 .406.384h.046a.452.452 0 0 0 .429-.294l.079-.214.045-.113.034-.102c.08-.17.136-.463.18-.881 0-.068 0-.124-.022-.192a.346.346 0 0 1 .028-.288c.026-.051.051-.102.074-.153a.371.371 0 0 0 .045-.192v-.063a2.614 2.614 0 0 1 .147-.818c.022-.068.034-.147.022-.215l-.03-.192a5.198 5.198 0 0 0-.071-.388v-.039a.008.008 0 0 0-.012-.007Zm10.336 2.58c.002.015.005.03.012.044a.432.432 0 0 1 .04.123c.004.026.037.04.056.02l.016-.015a.014.014 0 0 1 .021.003c.007.012.013.021.014.034l.003.012c.056.135.12.29.076.48l-.002.009a3.185 3.185 0 0 0-.066.463l-.01.116v.146a.458.458 0 0 1-.319.414.442.442 0 0 1-.134.016.438.438 0 0 1-.418-.283l-.067-.17-.03-.075c-.036-.091-.073-.186-.117-.274a.346.346 0 0 1-.018-.05l-.01-.035-.074-.277-.056-.203-.009-.033c-.01-.038-.025-.075-.025-.114a3.834 3.834 0 0 0-.074-.41.966.966 0 0 1-.028-.223 4.86 4.86 0 0 0-.036-.32.662.662 0 0 1-.01-.105.508.508 0 0 0-.031-.183l-.053-.131-.04-.097-.079-.192a.883.883 0 0 1-.024-.102l-.06-.322a1.996 1.996 0 0 0-.122-.404l-.121-.29-.283-.554a.405.405 0 0 1-.014-.034l-.016-.044-.196-.543c-.022-.056-.022-.113-.022-.17.011-.146.011-.293.011-.44a.598.598 0 0 0-.034-.197l-.068-.198-.079-.215c-.056-.147-.44-.745-.553-.858a.68.68 0 0 1-.147-.283c-.028-.15-.064-.293-.101-.44l-.023-.09-.057-.215a7.509 7.509 0 0 1-.034-.125.48.48 0 0 0-.124-.215l-.293-.293a.478.478 0 0 1-.136-.339l.011-.274a.931.931 0 0 0-.113-.505l-.017-.03a2.043 2.043 0 0 0-.164-.244 112.287 112.287 0 0 1-.27-.348.393.393 0 0 1-.08-.17l-.034-.123-.017-.086a.723.723 0 0 0-.265-.417c-.068-.054-.136-.107-.203-.164a.489.489 0 0 1-.164-.26.588.588 0 0 1-.017-.16v-.148a.548.548 0 0 0-.192-.426l-.147-.124a.432.432 0 0 1-.147-.283l-.031-.203a.559.559 0 0 0-.234-.373c-.065-.045-.13-.09-.198-.135a.367.367 0 0 1-.147-.147l-.305-.531a.388.388 0 0 1-.047-.112.616.616 0 0 1-.015-.07l-.049-.3a.392.392 0 0 0-.143-.247c-.04-.03-.08-.062-.119-.096l-.135-.113a.496.496 0 0 1-.136-.203 19.343 19.343 0 0 0-.214-.588.71.71 0 0 0-.102-.158 1.637 1.637 0 0 1-.226-.361l-.226-.509a5.529 5.529 0 0 0-.17-.282l-.079-.124a.456.456 0 0 1 .147-.622.458.458 0 0 1 .621.136l.068.113c.029.05.06.099.09.147.063.096.13.19.206.276l.124.14c.074.084.155.161.243.232l.332.267.462.429c.05.049.087.108.125.167l.045.07.092.14c.05.075.099.147.134.21l.348.475c.017.023.036.055.051.079l.02.033.27.51c.055.1.142.246.217.351.054.078.118.149.16.234a.801.801 0 0 0 .007.013l.174.434c.02.05.049.094.086.13.124.103.249.204.362.306a.338.338 0 0 1 .056.06.866.866 0 0 1 .082.134l.246.472.302.501c.017.028.039.052.055.08.018.031.02.07.031.105l.047.153c.03.09.059.183.084.28.023.075.051.148.083.22l.064.141.046.103c.044.097.101.187.169.27.101.113.192.226.282.35.057.08.09.17.09.26l.009.19c.01.222.084.437.216.617l.073.101c.02.027.036.057.053.086a.222.222 0 0 1 .022.045c.029.062.054.127.08.192.025.065.05.13.079.192.037.105.09.204.155.294l.121.17.096.135.046.057a.396.396 0 0 1 .067.158c.04.18.08.36.136.572a.666.666 0 0 1 .023.17c0 .032.002.065.007.097.012.079.023.16.033.24a2.1 2.1 0 0 0 .061.322c.025.098.055.196.083.286l.03.098c.065.184.037.368.014.512v.007a.151.151 0 0 0 .034.122l.325.387a.596.596 0 0 1 .09.17l.17.575.21.596.007.029.01.065c.009.074-.001.15-.001.225l-.023.279a.846.846 0 0 0 .023.275c.027.11.055.22.076.33a.927.927 0 0 1-.004.336l-.016.08-.016.127a.835.835 0 0 0 .015.305c.006.024.01.046.011.066a.163.163 0 0 0 .008.04c.006.017.012.032.014.048Z" clip-rule="evenodd"/></svg>