<svg xmlns="http://www.w3.org/2000/svg" fill="none" viewBox="0 0 24 24"><path fill="#62757E" fill-rule="evenodd" d="M21.787 15.242v.063c0 .014.018.019.025.007.006-.011.024-.008.025.005.005.04.01.078.017.118.009.062.018.125.024.191a.453.453 0 0 1-.444.497h-.008a.454.454 0 0 1-.384-.214 5.443 5.443 0 0 0-.215-.328l-.063-.09-.01-.014a.317.317 0 0 0-.022-.032.159.159 0 0 1-.025-.045.51.51 0 0 0-.007-.017l-.003-.006-.254-.508-.215-.564-.055-.194a1.954 1.954 0 0 0-.24-.526l-.067-.105-.014-.021a.665.665 0 0 1-.073-.13l-.004-.012-.003-.008-.003-.006-.117-.298-.022-.067a.98.98 0 0 0-.08-.152l-.039-.057a5.06 5.06 0 0 1-.085-.13l-.09-.136-.097-.119a4.78 4.78 0 0 1-.185-.231l-.02-.023-.03-.033a.342.342 0 0 1-.063-.08 8.216 8.216 0 0 0-.136-.23v-.001a16.33 16.33 0 0 1-.135-.232.714.714 0 0 1-.07-.234 5.294 5.294 0 0 1-.036-.242 1.082 1.082 0 0 0-.128-.38l-.14-.25-.003-.009a1.413 1.413 0 0 0-.55-.59l-.045-.034a.463.463 0 0 1-.192-.226c-.068-.17-.136-.328-.215-.509l-.056-.124-.003-.007L18.45 7.69l.005.006a.627.627 0 0 1 .034.045l.066.102v.001c.057.086.111.17.16.259.03.052.068.1.112.14l.13.125h.001l.197.187c.046.045.08.101.102.158l.068.17c.02.055.043.111.067.17.029.073.06.15.09.236l.096.338c.035.12.08.238.136.35l.142.283.203.373c.03.068.066.133.107.194l.05.072c.077.115.159.234.25.378l.056.113c.08.135.147.271.192.373l.102.17c.034.056.068.115.102.174.034.06.067.119.101.175a.56.56 0 0 1 .068.234v.071l.013.122c.02.173.057.345.127.504l.097.222a.531.531 0 0 1 .045.18v.146a.75.75 0 0 0 .164.464c.054.068.108.136.164.204.057.079.09.18.09.282v.113a2.603 2.603 0 0 0 0 .418Zm-6.7-4.186-.001-.001-1.225 1.225.019.07.022.09c.038.148.074.29.102.441a.68.68 0 0 0 .147.283c.113.113.497.711.553.858l.08.215c.022.067.044.134.067.198a.6.6 0 0 1 .034.197c0 .147 0 .294-.011.44 0 .057 0 .114.022.17l.196.543.005.015a1.766 1.766 0 0 0 .025.063l.283.554.121.29c.055.13.095.266.121.404l.06.322a.7.7 0 0 0 .025.102l.08.192.039.096v.001l.053.13c.022.06.032.122.032.184a.6.6 0 0 0 .009.104c.016.107.026.214.036.321 0 .075.01.15.028.223.031.133.056.268.074.41 0 .027.008.054.016.08l.01.034.008.033.056.203.074.277.003.01.007.024a.346.346 0 0 0 .018.05c.044.089.081.184.117.275l.03.076.067.17a.44.44 0 0 0 .418.282.432.432 0 0 0 .134-.016.458.458 0 0 0 .318-.413v-.147l.011-.116c.014-.156.03-.311.066-.463l.002-.009c.045-.19-.02-.345-.076-.48a.041.041 0 0 1-.003-.012.091.091 0 0 0-.014-.034.014.014 0 0 0-.021-.003l-.016.016c-.019.018-.052.005-.056-.02a.432.432 0 0 0-.04-.124.145.145 0 0 1-.013-.044c-.002-.016-.008-.03-.014-.047a.163.163 0 0 1-.008-.041.473.473 0 0 0-.01-.066.835.835 0 0 1-.016-.305l.016-.128.016-.079a.927.927 0 0 0 .004-.335c-.021-.11-.049-.221-.076-.331a.846.846 0 0 1-.023-.275l.023-.279c0-.026 0-.052.002-.078.002-.05.005-.098-.001-.147a1.341 1.341 0 0 0-.017-.094l-.21-.596-.17-.576a.623.623 0 0 0-.09-.17l-.326-.386a.154.154 0 0 1-.034-.122l.001-.006c.023-.145.051-.33-.014-.513l-.03-.098a5.527 5.527 0 0 1-.083-.287 2.053 2.053 0 0 1-.061-.321 7.805 7.805 0 0 0-.033-.24.655.655 0 0 1-.008-.098.666.666 0 0 0-.022-.17c-.056-.211-.096-.391-.136-.571a.396.396 0 0 0-.067-.158l-.046-.057a26.815 26.815 0 0 1-.096-.136l-.12-.169a1.188 1.188 0 0 1-.156-.294c-.029-.062-.054-.127-.08-.192-.025-.065-.05-.13-.079-.192a.222.222 0 0 0-.022-.045l-.016-.026a.65.65 0 0 0-.037-.06l-.073-.1Zm.106-4.896-1.599 1.599-.231-.445a.866.866 0 0 0-.082-.134.338.338 0 0 0-.056-.06c-.113-.102-.238-.203-.362-.305a.387.387 0 0 1-.086-.13l-.174-.435-.006-.013c-.03-.06-.07-.111-.11-.164a3.843 3.843 0 0 1-.268-.422l-.27-.51-.002-.002a.345.345 0 0 0-.018-.03l-.013-.02a.991.991 0 0 0-.038-.059l-.348-.474a2.94 2.94 0 0 0-.134-.212 6.526 6.526 0 0 1-.092-.139l-.045-.07-.003-.005a.968.968 0 0 0-.122-.162l-.462-.43-.332-.266a1.994 1.994 0 0 1-.243-.232l-.124-.14a2.285 2.285 0 0 1-.205-.276 2.555 2.555 0 0 1-.09-.147l-.068-.113a.458.458 0 0 0-.622-.136.456.456 0 0 0-.146.622l.079.124c.056.09.113.18.169.282l.226.509c.056.135.147.26.226.361a.71.71 0 0 1 .102.158c.079.204.146.396.214.588.023.079.08.147.136.203l.135.113c.04.034.08.065.119.096.077.061.127.15.143.247l.049.3a.616.616 0 0 0 .015.07.41.41 0 0 0 .047.112l.305.53c.034.057.08.114.147.148.068.045.133.09.198.135.125.087.21.222.234.373l.031.203a.432.432 0 0 0 .147.283l.147.124a.548.548 0 0 1 .192.426v.148c0 .054.003.108.017.16a.49.49 0 0 0 .164.26c.067.057.135.11.203.164.018.014.036.03.053.046l-1.903 1.903a7.596 7.596 0 0 1-.06-.181l-.044-.192-.051-.226v-.001l-.033-.145-.007-.034c-.009-.043-.017-.085-.038-.123l-.007-.013-.294-.622-.046-.114a16.57 16.57 0 0 1-.112-.281l-.06-.149a.933.933 0 0 0-.07-.15.313.313 0 0 0-.04-.051 18.659 18.659 0 0 0-.345-.396.51.51 0 0 1-.106-.18 11.38 11.38 0 0 0-.147-.486.502.502 0 0 0-.108-.184 1.61 1.61 0 0 1-.044-.056l-.054-.075a2 2 0 0 1-.318-.674l-.046-.177a.795.795 0 0 0-.042-.129.28.28 0 0 0-.02-.038l-.238-.407-.124-.203-.147-.283-.146-.273a.864.864 0 0 0-.08-.122l-.147-.17a10.24 10.24 0 0 0-.305-.361l-.354-.322a1.42 1.42 0 0 1-.244-.294 8.272 8.272 0 0 1-.102-.164l-.124-.203-.102-.214-.136-.26a.457.457 0 0 0-.42-.237.446.446 0 0 0-.323.178.461.461 0 0 0-.047.488l.124.237.113.226.135.237c.035.058.07.116.103.174.062.108.107.226.14.347l.119.417c.045.147.079.282.113.43l.056.225a.628.628 0 0 0 .102.192l.249.26.103.112c.02.022.032.052.032.083l.001.017c.022.155.033.3.044.455 0 .083.039.16.077.236l.037.075.167.375c.024.055.05.108.082.158a.497.497 0 0 0 .055.07c.068.068.139.133.21.198a.75.75 0 0 1 .226.485l.005.052v.158a.535.535 0 0 0 .113.271c.056.068.116.136.175.203.114.13.176.299.161.472l-.005.064-.015.187c0 .125.034.249.113.34l.3.332c.07.078.113.175.13.277.008.054.016.108.022.159l.012.071.003.021.004.024a.818.818 0 0 0 .053.214.699.699 0 0 0 .043.082c.105.169.209.346.303.514l.056.124a3.388 3.388 0 0 0 .094.226l-2.562 2.562-.006-.043-.03-.305a1.59 1.59 0 0 1 .002-.316l.017-.158.003-.018a2 2 0 0 0 .02-.283v-.456a.371.371 0 0 0-.045-.192l-.046-.102-.078-.164a2.067 2.067 0 0 1-.162-.485l-.034-.176a.936.936 0 0 0-.02-.089l-.002-.005a.75.75 0 0 0-.05-.123l-.048-.097a.805.805 0 0 1-.058-.476l.034-.147a.52.52 0 0 0-.045-.316c-.051-.103-.107-.205-.164-.31l-.036-.065a.786.786 0 0 1-.082-.236 10.585 10.585 0 0 0-.035-.167c-.022-.1-.036-.2-.043-.3l-.02-.3a1.211 1.211 0 0 0-.027-.181l-.192-.531-.01-.046a4.272 4.272 0 0 0-.091-.327l-.034-.136a.417.417 0 0 0-.08-.158 5.547 5.547 0 0 0-.284-.36.123.123 0 0 1-.031-.082.841.841 0 0 0-.106-.521.813.813 0 0 0-.042-.082l-.04-.068a1.608 1.608 0 0 1-.22-.67l-.008-.085a.782.782 0 0 0-.007-.059.44.44 0 0 0-.03-.106L4.3 5.64l-.079-.17-.103-.277-.089-.242c-.008-.024-.021-.047-.032-.067a.536.536 0 0 0-.028-.045l-.046-.065a11.338 11.338 0 0 0-.29-.4l-.146-.169a2.698 2.698 0 0 0-.124-.13 6.92 6.92 0 0 1-.049-.048.617.617 0 0 1-.12-.183 10.228 10.228 0 0 0-.17-.35l-.147-.396a.452.452 0 0 0-.43-.293H2.44a.44.44 0 0 0-.41.599l.146.417c.068.147.113.26.159.373.037.09.062.186.073.282l.017.147.023.181c.022.18.033.362.045.542 0 .09.045.181.101.249l.084.103.055.066c.081.1.115.229.097.357-.008.056-.016.11-.021.163 0 .068 0 .135.011.203l.158.52a.573.573 0 0 0 .102.18l.215.224c.058.06.088.14.069.22a1.28 1.28 0 0 0-.013.054l-.022.147a.438.438 0 0 0 .09.35c.046.058.091.117.136.177.065.087.083.2.05.303l-.05.164a.46.46 0 0 0 .09.429l.069.084c.153.187.236.42.236.662a.36.36 0 0 0 .056.214l.216.43a.69.69 0 0 1 .037.092.496.496 0 0 1-.117.517.477.477 0 0 0-.056.475l.286.615c.116.25.177.522.177.797a.46.46 0 0 0 .09.271c.08.095.153.196.225.295l.065.088c.017.023.026.05.026.079a1.693 1.693 0 0 1 .034.34l.005.036a2 2 0 0 1-.068.818l-.004.016a.348.348 0 0 0 0 .215c.01.05.02.104.028.158.008.053.017.107.028.158l.03.171a.239.239 0 0 0 .03.102 5.639 5.639 0 0 1 .108.32L3.181 18.17a.85.85 0 0 0 1.202 1.202l16-16a.85.85 0 1 0-1.202-1.202l-2.659 2.658-.237-.33a.998.998 0 0 0-.123-.148.44.44 0 0 0-.07-.055 5.185 5.185 0 0 1-.185-.108 6.309 6.309 0 0 0-.187-.107.176.176 0 0 1-.054-.058l-.217-.371-.023-.031a.89.89 0 0 0-.203-.184c-.045-.034-.087-.068-.13-.102l-.058-.046a.468.468 0 0 1-.117-.134l-.068-.135a6.562 6.562 0 0 1-.112-.224.467.467 0 0 0-.136-.172.233.233 0 0 1-.028-.026l-.334-.324-.343-.375a1.054 1.054 0 0 0-.12-.111l-.18-.113-.181-.113-.072-.043-.034-.021-.048-.029a.307.307 0 0 0-.016-.009l-.397-.165a.052.052 0 0 0-.02-.004.053.053 0 0 1-.039-.018 1.883 1.883 0 0 0-.199-.186l-.047-.04a1.908 1.908 0 0 1-.188-.181 12.64 12.64 0 0 1-.104-.117L12.15.646A.485.485 0 0 0 11.824.5a.447.447 0 0 0-.339.746l.113.124c.028.034.06.068.09.102a2.1 2.1 0 0 1 .09.101l.181.18c.034.035.071.069.108.103l.034.031c.049.046.088.1.118.16l.054.097c.049.088.097.174.138.265l.271.52a.4.4 0 0 0 .181.18.966.966 0 0 1 .45.566l.013.045a.686.686 0 0 0 .08.158c.078.09.146.18.214.27l.113.148a.337.337 0 0 0 .192.135l.076.03c.177.07.303.222.353.405l.023.085a.481.481 0 0 0 .214.282l.147.08a.418.418 0 0 1 .2.296l.038.234a.444.444 0 0 0 .217.317Zm-3.414 8.325-.047-.077-1.412 1.412c.023.105.04.21.058.315l.056.248.005.018c.05.212.064.432.042.65l-.014.15a1.115 1.115 0 0 0 .001.255l.158.633.26.678.04.126c.025.08.051.166.073.247.038.12.062.244.074.369l.017.184.02.2.003.037a.378.378 0 0 0 .028.103l.015.042.04.138c.02.067.04.135.063.203.03.113.045.228.045.345v.4l.057.678a.59.59 0 0 0 .01.112l.012.07c.034.169.068.338.09.508 0 .037.012.072.024.107l.003.01.005.017.07.227.08.282a.461.461 0 0 0 .44.328h.034a.457.457 0 0 0 .418-.384l.068-.542c.054-.256.02-.772-.048-1.156a1.189 1.189 0 0 1 .008-.488c.02-.082.04-.164.062-.243a.427.427 0 0 0 0-.17l-.034-.214a4.128 4.128 0 0 1-.028-.186l-.022-.152a.424.424 0 0 1 .008-.178c.032-.125.051-.25.07-.374a.045.045 0 0 1 .053-.037.045.045 0 0 0 .055-.044v-.11c0-.01-.001-.02-.004-.03l-.053-.222a5.91 5.91 0 0 0-.056-.22 6.352 6.352 0 0 1-.057-.22l-.124-.622-.226-.712-.147-.62a9.708 9.708 0 0 0-.09-.419 2.165 2.165 0 0 1-.035-.364 3.502 3.502 0 0 0-.01-.235v-.203a30.708 30.708 0 0 0-.08-.564l-.007-.058c-.01-.08-.02-.16-.06-.23l-.011-.018Z" clip-rule="evenodd"/></svg>