<svg xmlns="http://www.w3.org/2000/svg" fill="none" viewBox="0 0 24 24"><path fill="#62757E" fill-rule="evenodd" d="M9 6.898a.9.9 0 0 0 .9-.9c0-.497-.403-2.9-.9-2.9s-.9 2.403-.9 2.9a.9.9 0 0 0 .9.9Zm2.5-.9a2.5 2.5 0 0 1-5 0c0-1.38 1.12-4.5 2.5-4.5s2.5 3.12 2.5 4.5Zm-7 4.9a.9.9 0 0 0 .9-.9c0-.497-.403-2.9-.9-2.9s-.9 2.403-.9 2.9a.9.9 0 0 0 .9.9Zm2.5-.9a2.5 2.5 0 0 1-5 0c0-1.38 1.12-4.5 2.5-4.5S7 8.618 7 9.998Zm8.9-4a.9.9 0 1 1-1.8 0c0-.497.403-2.9.9-2.9s.9 2.403.9 2.9Zm-.9 2.5a2.5 2.5 0 0 0 2.5-2.5c0-1.38-1.12-4.5-2.5-4.5s-2.5 3.12-2.5 4.5a2.5 2.5 0 0 0 2.5 2.5Zm4.5 2.4a.9.9 0 0 0 .9-.9c0-.497-.403-2.9-.9-2.9s-.9 2.403-.9 2.9a.9.9 0 0 0 .9.9Zm2.5-.9a2.5 2.5 0 0 1-5 0c0-1.38 1.12-4.5 2.5-4.5s2.5 3.12 2.5 4.5Zm-8.358 2.487.007.008c.56.65 1.055 1.232 1.568 1.838h.001c.29.343.587.692.905 1.065l.04.048.046.045.24.24c.604.6 1.106 1.1 1.477 1.65.36.532.5.977.455 1.44-.186.556-.54.946-1.044 1.081h-.014a5.122 5.122 0 0 1-.374-.024 32.248 32.248 0 0 1-.998-.121l-.24-.031c-.986-.128-2.279-.286-3.631-.286h-.18c-1.354 0-2.648.16-3.634.29l-.21.027c-.412.054-.745.098-1.023.125-.207.02-.318.021-.362.022h-.018c-.512-.132-.866-.518-1.052-1.078-.042-.458.099-.901.46-1.433.372-.55.874-1.05 1.478-1.65l.242-.242.042-.042.038-.044c.568-.658 1.079-1.26 1.6-1.873.286-.339.576-.68.88-1.037.42-.48.769-.753 1.058-.852l.014-.005.014-.005a.418.418 0 0 1 .07-.019l.007-.002.008-.001c.085-.016.201-.021.488-.021.268 0 .407.003.507.017a.47.47 0 0 1 .056.017l.014.005.014.004c.295.101.657.382 1.051.844Zm3.978 8.993c1.31-.29 2.04-1.31 2.33-2.32.292-1.919-1.115-3.316-2.373-4.565-.08-.079-.16-.157-.237-.235l-.896-1.054a276.04 276.04 0 0 0-1.584-1.856c-.46-.54-1.05-1.08-1.75-1.32-.11-.04-.22-.07-.33-.09-.25-.04-.52-.04-.78-.04s-.53 0-.79.05c-.11.02-.22.05-.33.09-.7.24-1.28.78-1.75 1.32l-.896 1.054c-.517.61-1.02 1.202-1.584 1.856l-.238.237c-1.258 1.249-2.664 2.644-2.382 4.553.29 1.02 1.02 2.03 2.33 2.32.34.07 1.024-.02 1.91-.137 1.018-.134 2.303-.303 3.63-.303h.18c1.339 0 2.634.169 3.657.302.872.114 1.547.202 1.883.138Z" clip-rule="evenodd"/></svg>