<svg xmlns="http://www.w3.org/2000/svg" fill="none" viewBox="0 0 24 24"><path fill="#46464A" fill-rule="evenodd" d="M19.652 13.005c.067.171.19.312.334.427.054.043.106.088.157.136.188.178.417.344.67.286.135-.03.277-.088.424-.18a.196.196 0 0 0 .087-.24l-.119-.27a1.378 1.378 0 0 1-.099-.402l-.006-.053a4.88 4.88 0 0 1-.013-.122v-.099a.158.158 0 0 0-.008-.049l-.008-.026a.528.528 0 0 0-.052-.13c-.034-.057-.067-.116-.101-.176a9.718 9.718 0 0 0-.102-.175l-.102-.17a3.977 3.977 0 0 0-.192-.372l-.056-.113a12.084 12.084 0 0 0-.25-.378l-.064-.094a.962.962 0 0 1-.082-.148l-.01-.024-.204-.373-.184-.367a1 1 0 0 1-.068-.175l-.121-.43a5.818 5.818 0 0 0-.091-.234c-.024-.06-.047-.116-.067-.172l-.068-.17a.474.474 0 0 0-.102-.157 12.372 12.372 0 0 1-.197-.187l-.131-.124a.605.605 0 0 1-.112-.141 3.258 3.258 0 0 0-.16-.258 9.38 9.38 0 0 1-.066-.104.757.757 0 0 0-.11-.129l-.041-.039a.968.968 0 0 1-.293-.528l-.03-.162a.463.463 0 0 0-.148-.26 6.223 6.223 0 0 0-.305-.26.879.879 0 0 1-.156-.18l-.063-.096-.001-.001-.087-.133a1.037 1.037 0 0 1-.075-.135l-.035-.076a13.477 13.477 0 0 0-.155-.335c-.014-.03-.028-.062-.048-.09a.233.233 0 0 0-.023-.027l-.373-.43-.288-.401a.657.657 0 0 0-.164-.163 6.335 6.335 0 0 1-.187-.108 6.309 6.309 0 0 0-.186-.107.176.176 0 0 1-.054-.058l-.217-.371-.054-.07a.634.634 0 0 0-.13-.116l-.042-.029a5.074 5.074 0 0 1-.13-.102l-.058-.046a.468.468 0 0 1-.117-.134l-.069-.135a6.562 6.562 0 0 1-.111-.224.467.467 0 0 0-.027-.049l-.005-.008a.55.55 0 0 0-.096-.107l-.029-.027-.34-.331-.359-.391a.655.655 0 0 0-.105-.095l-.18-.113-.181-.113-.093-.056-.03-.018-.01-.007a.476.476 0 0 0-.037-.02l-.397-.166a.052.052 0 0 0-.02-.004.053.053 0 0 1-.039-.018 1.884 1.884 0 0 0-.199-.186l-.097-.082a.969.969 0 0 1-.094-.09l-.148-.166-.102-.102A.485.485 0 0 0 11.824.5a.447.447 0 0 0-.339.746l.113.124c.028.034.06.068.09.102a2.1 2.1 0 0 1 .09.101l.181.18c.034.035.071.069.108.103l.034.031a.56.56 0 0 1 .118.16l.054.097c.049.088.097.174.138.265l.271.52a.4.4 0 0 0 .181.18.966.966 0 0 1 .45.566l.013.045a.686.686 0 0 0 .08.158c.078.09.146.18.214.27l.113.148a.337.337 0 0 0 .192.135l.076.03c.177.07.303.222.353.405l.023.085a.481.481 0 0 0 .214.282l.147.08a.418.418 0 0 1 .2.296l.038.234c.022.147.112.26.237.328l.262.139a.397.397 0 0 1 .174.192l.027.064.068.181a.37.37 0 0 0 .124.17c.062.056.128.113.193.17l.136.12a.93.93 0 0 1 .102.105l.055.068a.751.751 0 0 1 .155.406l.026.283a.47.47 0 0 0 .203.339l.226.146a.641.641 0 0 1 .232.275l.039.087.056.124c.08.181.147.34.215.509.034.09.102.17.192.226l.045.033.112.066c.163.097.295.24.38.41l.062.123.158.286c.052.095.09.198.104.306l.005.039c.008.06.016.12.026.182l.007.036.008.052a.587.587 0 0 0 .065.206c.045.08.09.156.135.232l.136.231c.015.03.039.055.062.08.01.01.021.021.03.033l.02.023c.066.087.127.16.185.231.033.04.066.079.098.12l.09.135.085.13.043.065a.88.88 0 0 1 .072.135l.004.009.022.067Zm-4.756 2.237c.069.19.282.28.477.231l.13-.029a.53.53 0 0 0 .18-.069l.045-.027c.197-.123.316-.335.368-.562.036-.156.088-.307.152-.451a.087.087 0 0 0 .004-.064l-.03-.097v-.001a5.322 5.322 0 0 1-.083-.287l-.017-.06a1.164 1.164 0 0 1-.037-.198 6.12 6.12 0 0 0-.04-.303.654.654 0 0 1-.008-.098.666.666 0 0 0-.022-.17 14.33 14.33 0 0 1-.136-.571.396.396 0 0 0-.067-.158l-.046-.057a32.246 32.246 0 0 1-.096-.136l-.13-.182a1.066 1.066 0 0 1-.14-.265l-.006-.016c-.029-.062-.054-.127-.08-.191a3.933 3.933 0 0 0-.101-.238l-.016-.026a.65.65 0 0 0-.037-.06l-.096-.133a1 1 0 0 1-.192-.546l-.01-.229c0-.09-.033-.18-.09-.26a4.228 4.228 0 0 0-.282-.35l-.023-.027a.958.958 0 0 1-.131-.211l-.06-.132v-.003h-.001l-.082-.182a1.058 1.058 0 0 1-.052-.136l-.013-.043a5.128 5.128 0 0 0-.084-.28v-.001l-.047-.152-.009-.036a.236.236 0 0 0-.022-.07l-.029-.041a.509.509 0 0 1-.026-.038l-.302-.5-.265-.508a.602.602 0 0 0-.12-.16 10.244 10.244 0 0 0-.36-.304.387.387 0 0 1-.087-.13l-.174-.435a.632.632 0 0 0-.1-.158 3.458 3.458 0 0 1-.284-.44l-.27-.51-.002-.003a.345.345 0 0 0-.018-.03l-.013-.02a1.002 1.002 0 0 0-.038-.059l-.348-.474c-.035-.064-.084-.137-.134-.212a6.551 6.551 0 0 1-.092-.139l-.073-.114a.792.792 0 0 0-.097-.123l-.462-.43-.398-.32a1 1 0 0 1-.121-.115l-.222-.25a1.364 1.364 0 0 1-.129-.176l-.034-.053a2.555 2.555 0 0 1-.09-.147l-.068-.113a.458.458 0 0 0-.622-.136.456.456 0 0 0-.146.622l.079.124c.056.09.113.18.169.282l.226.509c.056.135.147.26.226.361a.71.71 0 0 1 .102.158c.079.204.146.396.214.588.023.079.08.147.136.203l.135.113c.04.034.08.065.119.096.077.061.127.15.143.247l.05.307a.534.534 0 0 0 .061.175l.305.53c.034.057.08.114.147.148.068.045.133.09.198.135.125.087.21.222.234.373l.031.203a.432.432 0 0 0 .147.283l.147.124a.548.548 0 0 1 .192.426v.148c0 .054.003.108.017.16a.49.49 0 0 0 .164.26c.067.057.135.11.203.164.133.106.23.25.265.417l.017.086.034.124a.393.393 0 0 0 .08.17c.061.078.12.155.18.23l.136.175c.03.038.057.079.081.121l.054.095.02.035c.074.13.101.28.095.429l-.013.315a.48.48 0 0 0 .135.339l.293.293a.48.48 0 0 1 .126.215c.01.043.022.085.033.125l.057.214.022.09c.038.148.074.29.102.441a.68.68 0 0 0 .147.283c.113.113.497.711.553.858l.08.215c.022.067.044.134.067.198a.6.6 0 0 1 .034.197c0 .147 0 .294-.011.44 0 .057 0 .114.022.17Zm-2.212 4.134a.045.045 0 0 0 .055-.044v-.11c0-.01-.001-.02-.004-.03l-.053-.222a6.416 6.416 0 0 0-.056-.22 6.352 6.352 0 0 1-.057-.22l-.124-.622-.226-.712-.147-.62a9.708 9.708 0 0 0-.09-.419l-.017-.09a1.018 1.018 0 0 1-.017-.184c0-.108-.002-.22-.011-.325v-.203a32.873 32.873 0 0 0-.096-.683c-.004-.034-.007-.069-.02-.102a.499.499 0 0 0-.042-.085l-.068-.113a9.77 9.77 0 0 1-.13-.237c-.025-.047-.05-.095-.077-.142a1.087 1.087 0 0 1-.085-.199l-.024-.077a4.426 4.426 0 0 1-.063-.209 6.167 6.167 0 0 0-.044-.152l-.01-.035a.311.311 0 0 0-.026-.078.799.799 0 0 1-.014-.029l-.02-.039-.138-.248a.877.877 0 0 1-.115-.486c.002-.041.006-.084.01-.127l.002-.032v-.158c0-.09-.012-.17-.057-.248-.102-.17-.203-.34-.305-.497a.596.596 0 0 1-.07-.146c-.026-.08-.052-.154-.077-.227a10.719 10.719 0 0 1-.09-.271l-.045-.192-.051-.226v-.003l-.033-.143-.007-.034c-.009-.043-.017-.085-.038-.123l-.007-.013-.294-.622-.046-.114a16.57 16.57 0 0 1-.112-.281l-.075-.187a.642.642 0 0 0-.094-.163c-.113-.132-.226-.264-.346-.396a.51.51 0 0 1-.106-.18 11.367 11.367 0 0 0-.17-.547.507.507 0 0 0-.06-.087l-.03-.04-.205-.28a1 1 0 0 1-.159-.337l-.102-.394a.576.576 0 0 0-.054-.134l-.237-.407-.124-.203-.147-.283-.158-.295a.595.595 0 0 0-.068-.1l-.147-.17a10.233 10.233 0 0 0-.305-.361l-.388-.353a1.08 1.08 0 0 1-.186-.224l-.024-.039a8.272 8.272 0 0 1-.102-.164l-.124-.203-.102-.214-.136-.26a.457.457 0 0 0-.513-.223.453.453 0 0 0-.164.095.46.46 0 0 0-.113.557l.124.237.113.226.135.237c.052.085.103.17.149.256.03.055.052.114.07.174l.143.508c.045.147.079.282.113.43l.056.225a.628.628 0 0 0 .102.192l.249.26.103.112c.02.022.032.052.032.083l.001.017a6.512 6.512 0 0 1 .048.509c.008.051.033.098.057.145.01.02.021.041.03.062l.208.466a.679.679 0 0 0 .12.188c.067.067.138.132.208.197a.75.75 0 0 1 .227.485l.005.052v.158a.535.535 0 0 0 .113.271c.056.068.116.136.175.203.114.13.176.299.161.472l-.005.064-.015.187c0 .125.034.249.113.34l.3.332c.07.078.113.175.13.277.008.054.016.108.022.159l.02.121.007.045c.005.04.01.08.025.117l.02.047a.699.699 0 0 0 .043.082c.105.169.209.346.303.514l.056.124c.027.074.058.143.088.21.04.092.053.192.041.291-.017.141-.036.28-.06.414a.413.413 0 0 0 .09.339l.28.374c.06.08.098.176.115.276.008.05.017.101.023.152l.033.226c.03.152.052.313.072.466l.008.054a.518.518 0 0 0 .113.35c.067.085.135.166.203.248v.001l.13.158a.46.46 0 0 1 .096.203c.034.136.056.271.079.407l.056.248.042.178a1 1 0 0 1 .021.325l-.035.364a.721.721 0 0 0 .006.206l.158.633.26.678.04.126c.024.08.051.166.073.247l.025.079a1 1 0 0 1 .041.207l.025.267.02.2.003.037a.378.378 0 0 0 .028.103l.015.042.04.138c.02.067.04.135.063.203l.011.043c.023.084.034.17.034.258v.445l.057.677a.59.59 0 0 0 .01.112l.012.07c.034.169.068.338.09.508 0 .037.012.072.024.107l.008.027.07.227.08.282a.461.461 0 0 0 .44.328h.034a.457.457 0 0 0 .418-.384l.068-.542c.054-.256.02-.772-.048-1.156a1.189 1.189 0 0 1 .008-.488c.02-.082.04-.164.062-.243a.427.427 0 0 0 0-.17l-.034-.214a4.128 4.128 0 0 1-.028-.186 5.222 5.222 0 0 0-.022-.152.424.424 0 0 1 .008-.178c.032-.125.051-.25.07-.374a.045.045 0 0 1 .053-.037Zm-5.832-3.118c0 .006.007.01.012.007a.008.008 0 0 1 .012.007v.047c.03.127.05.254.07.38.01.064.02.128.032.192a.467.467 0 0 1-.023.215c-.025.08-.05.156-.076.231a1.168 1.168 0 0 0-.07.387v.263a.371.371 0 0 1-.046.192 3.76 3.76 0 0 1-.074.153l-.011.023a.346.346 0 0 0-.017.265.56.56 0 0 1 .023.192c-.045.418-.102.712-.181.881l-.034.102-.045.113-.08.214a.452.452 0 0 1-.428.294H5.87a.467.467 0 0 1-.406-.384l-.045-.26-.023-.113-.008-.041a1.123 1.123 0 0 1-.026-.207l-.009-.153c-.004-.08-.007-.159-.016-.24a1.337 1.337 0 0 1-.009-.142v-.008l.023-.237v-.262c0-.051.004-.102.01-.152l.016-.124.003-.022a1.16 1.16 0 0 0-.016-.39l-.008-.033-.025-.114a1.028 1.028 0 0 1-.025-.226v-.358a1 1 0 0 0-.022-.206l-.024-.112-.056-.238-.023-.067-.025-.085a6.235 6.235 0 0 0-.103-.319.429.429 0 0 0-.016-.035.238.238 0 0 1-.029-.102l-.03-.171a2.468 2.468 0 0 1-.028-.158c-.009-.054-.017-.108-.028-.158a.348.348 0 0 1 0-.215l.064-.217a1 1 0 0 0 .034-.409l-.03-.244c0-.098-.011-.206-.032-.315a.135.135 0 0 1-.003-.025.132.132 0 0 0-.026-.079l-.065-.088a5.924 5.924 0 0 0-.225-.295.46.46 0 0 1-.09-.271v-.197a1 1 0 0 0-.094-.422l-.37-.793a.477.477 0 0 1 .092-.516.496.496 0 0 0 .082-.476.69.69 0 0 0-.037-.092l-.216-.43a.361.361 0 0 1-.056-.214v-.016a1 1 0 0 0-.226-.634l-.079-.096a.46.46 0 0 1-.09-.43l.05-.163a.335.335 0 0 0-.05-.303 8.257 8.257 0 0 0-.136-.177.438.438 0 0 1-.09-.35l.022-.147.013-.054a.237.237 0 0 0-.069-.22l-.215-.223a.573.573 0 0 1-.102-.181l-.158-.52c-.011-.068-.011-.135-.011-.203.005-.052.013-.107.02-.163a.462.462 0 0 0-.096-.357 12.62 12.62 0 0 0-.139-.17.407.407 0 0 1-.101-.248c-.012-.18-.023-.361-.045-.542l-.023-.18-.017-.148v-.004a1.023 1.023 0 0 0-.072-.274l-.001-.004a7.193 7.193 0 0 0-.159-.373l-.146-.418a.44.44 0 0 1 .205-.548.403.403 0 0 1 .134-.047c.027-.003.054-.003.079-.003.192 0 .361.112.429.293l.147.396c.056.113.113.226.17.35.03.067.069.13.12.183l.049.048c.042.043.084.085.124.13l.147.17c.095.124.183.248.29.4l.045.064c.01.014.019.03.028.045.01.02.024.043.032.067l.09.242c.036.1.07.196.102.278l.08.169.169.373a.489.489 0 0 1 .035.15l.022.236a1 1 0 0 0 .136.417l.11.185a1.175 1.175 0 0 1 .06.122c.016.04.023.084.03.127l.007.049a21.886 21.886 0 0 1 .052.305c0 .03.01.059.03.081.101.115.194.238.286.361a.417.417 0 0 1 .079.158l.034.136c.038.114.068.237.09.327l.011.046.192.53a.721.721 0 0 1 .025.154l.027.403a.95.95 0 0 0 .021.15c.018.078.035.157.052.243a.786.786 0 0 0 .082.235l.035.064c.058.106.114.208.165.31.045.102.068.215.045.317l-.034.147a.805.805 0 0 0 .058.476l.048.097c.02.04.037.08.05.123l.001.006a.922.922 0 0 1 .021.088l.053.276c.02.102.055.2.1.294l.043.09v.001c.025.054.05.11.078.164l.046.102a.371.371 0 0 1 .045.192v.527a.998.998 0 0 1-.01.142l-.013.088-.017.158-.006.054a1.026 1.026 0 0 0 0 .208l.034.36.068.485c.017.062.031.127.045.192.015.065.029.13.046.192l.056.237c.022.143.033.287.044.44ZM17.635 17h-1.667a.834.834 0 0 0 0 1.667h1.667v1.666a.834.834 0 0 0 1.666 0v-1.666h1.667a.834.834 0 0 0 0-1.667h-1.667v-1.667a.834.834 0 0 0-1.666 0V17Z" clip-rule="evenodd"/></svg>