<svg xmlns="http://www.w3.org/2000/svg" fill="none" viewBox="0 0 24 24"><path fill="#62757E" fill-rule="evenodd" d="M19.538 12.598a.3.3 0 0 1-.199-.13l-.003-.005-.098-.12c-.058-.07-.12-.143-.184-.23l-.02-.023-.03-.033a.3.3 0 0 1-.063-.08l-.136-.232-.135-.23a.6.6 0 0 1-.064-.206v-.001l-.009-.052-.007-.036-.026-.182-.005-.04a.9.9 0 0 0-.104-.305l-.158-.286-.062-.123a1 1 0 0 0-.38-.41l-.112-.066-.045-.033a.46.46 0 0 1-.192-.226c-.068-.17-.136-.328-.215-.509l-.056-.124q-.018-.042-.04-.087a.64.64 0 0 0-.23-.275l-.227-.146a.47.47 0 0 1-.203-.34l-.026-.282a.75.75 0 0 0-.155-.406l-.055-.068a1 1 0 0 0-.102-.106l-.137-.12q-.098-.084-.192-.17a.37.37 0 0 1-.124-.169l-.068-.18-.028-.065a.4.4 0 0 0-.173-.192l-.262-.14a.45.45 0 0 1-.237-.327l-.037-.234a.42.42 0 0 0-.2-.297l-.148-.079a.48.48 0 0 1-.214-.282l-.023-.085A.6.6 0 0 0 14 4.461l-.076-.03a.34.34 0 0 1-.192-.135l-.113-.147c-.068-.09-.136-.18-.215-.271a.7.7 0 0 1-.079-.158l-.013-.045a.97.97 0 0 0-.45-.565.4.4 0 0 1-.18-.181l-.272-.52a4 4 0 0 0-.138-.265l-.054-.096a.6.6 0 0 0-.118-.16l-.034-.032q-.056-.051-.108-.102l-.18-.18q-.044-.052-.09-.102l-.091-.102-.113-.124a.447.447 0 0 1 .34-.746.48.48 0 0 1 .327.147l.102.102.148.166q.044.048.094.09l.097.082c.063.053.135.115.199.186q.015.017.04.018.01 0 .019.004l.397.165.037.021.01.007.03.018.093.056.18.113q.089.054.181.113a.7.7 0 0 1 .105.095l.358.39.341.332.029.027a.6.6 0 0 1 .096.107l.005.008q.015.024.027.049.052.11.111.224l.07.135q.045.078.116.134l.058.046q.063.051.13.102l.041.029q.074.048.13.115l.055.07.217.372a.2.2 0 0 0 .054.058q.093.051.187.107.093.056.186.108a.6.6 0 0 1 .164.163l.288.402.373.429.023.027q.028.043.048.09l.016.037q.07.144.139.298l.035.076q.032.07.075.135l.087.133.064.098a1 1 0 0 0 .157.179c.101.079.203.17.305.26a.46.46 0 0 1 .146.26l.031.162a.97.97 0 0 0 .292.528l.043.04a1 1 0 0 1 .109.128l.067.104q.085.126.159.258.046.079.112.14l.13.125.198.187c.046.045.08.101.102.158l.068.17q.03.082.067.171.045.106.09.235l.122.429a1 1 0 0 0 .068.175l.184.367.203.373.01.024q.036.078.083.148l.064.095c.077.114.159.232.25.377l.056.113c.08.135.147.271.192.373l.102.17q.051.085.102.174.05.09.101.175a.6.6 0 0 1 .052.13l.008.027a.2.2 0 0 1 .008.05v.098l.013.122.006.053c.016.138.042.369-.094.342l-.025-.009a5.5 5.5 0 0 0-1.449-.497m-4.008.775a.8.8 0 0 0 .36-.836l-.01-.051a.4.4 0 0 0-.069-.158l-.045-.057-.096-.136-.13-.182a1 1 0 0 1-.14-.265l-.006-.016q-.042-.094-.08-.191a4 4 0 0 0-.101-.238l-.016-.026-.037-.06-.096-.133a1 1 0 0 1-.192-.546l-.01-.229c0-.09-.033-.18-.09-.26a4 4 0 0 0-.282-.35l-.023-.027a1 1 0 0 1-.131-.211l-.06-.132v-.003h-.001l-.082-.182a1 1 0 0 1-.052-.136l-.013-.043q-.039-.144-.084-.28v-.001l-.047-.152-.009-.036a.2.2 0 0 0-.022-.07l-.029-.041-.026-.038-.302-.5-.265-.508a.6.6 0 0 0-.12-.16 10 10 0 0 0-.36-.304.4.4 0 0 1-.087-.13l-.174-.435-.04-.076a1 1 0 0 0-.06-.082l-.025-.031a3.5 3.5 0 0 1-.259-.41l-.27-.51-.002-.002-.018-.03-.013-.02-.038-.059-.348-.474c-.035-.064-.084-.137-.134-.212l-.092-.139-.073-.114a1 1 0 0 0-.097-.123l-.462-.43-.398-.32a1 1 0 0 1-.121-.115l-.222-.25a1.4 1.4 0 0 1-.129-.176l-.034-.053a3 3 0 0 1-.09-.147l-.068-.113a.46.46 0 0 0-.622-.136.456.456 0 0 0-.146.622l.079.124c.056.09.113.18.169.282l.226.509c.056.135.147.26.226.361a.7.7 0 0 1 .102.158c.079.204.146.396.214.588.023.079.08.147.136.203l.135.113q.06.05.119.096c.077.061.127.15.143.247l.05.307a.5.5 0 0 0 .061.175l.305.53c.034.057.08.114.147.148q.101.067.198.135c.125.087.21.222.234.373l.031.203a.43.43 0 0 0 .147.283l.147.124a.55.55 0 0 1 .192.426v.148q-.002.082.017.16a.5.5 0 0 0 .164.26q.1.084.203.164c.133.106.23.25.265.417l.017.086.034.124a.4.4 0 0 0 .08.17q.09.117.18.23l.136.175q.045.057.081.121l.054.095.02.035c.074.13.101.28.095.429l-.013.315a.48.48 0 0 0 .135.339l.293.293a.5.5 0 0 1 .126.215q.016.065.033.125l.057.214.022.09c.038.148.074.29.102.441a.7.7 0 0 0 .147.283c.345.344.947.49 1.356.224zm-2.846 6.003a.045.045 0 0 0 .055-.044v-.11q0-.015-.004-.03l-.053-.222a6 6 0 0 0-.056-.22 6 6 0 0 1-.057-.22l-.124-.622-.226-.712-.147-.62a10 10 0 0 0-.09-.419l-.017-.09a1 1 0 0 1-.017-.184c0-.108-.002-.22-.011-.325v-.203a33 33 0 0 0-.096-.683c-.004-.034-.007-.069-.02-.102a.5.5 0 0 0-.042-.085l-.068-.113-.13-.237q-.037-.071-.077-.142a1 1 0 0 1-.085-.199l-.024-.077a4 4 0 0 1-.062-.209l-.045-.152-.01-.035q-.008-.04-.026-.078l-.014-.029-.02-.039-.138-.248a.9.9 0 0 1-.115-.486q.003-.062.01-.127l.002-.032v-.158c0-.09-.012-.17-.057-.248-.102-.17-.203-.34-.305-.497a.6.6 0 0 1-.07-.146l-.077-.227q-.048-.138-.09-.271l-.045-.192-.051-.226v-.003l-.033-.143-.007-.034c-.009-.043-.017-.085-.038-.123l-.007-.013-.294-.622-.046-.114q-.053-.13-.112-.281l-.075-.187a.6.6 0 0 0-.094-.163q-.168-.198-.346-.396a.5.5 0 0 1-.106-.18 11 11 0 0 0-.17-.547.5.5 0 0 0-.06-.087l-.03-.04-.205-.28a1 1 0 0 1-.159-.337l-.102-.394a.6.6 0 0 0-.054-.134l-.237-.407-.124-.203-.147-.283-.158-.295a.6.6 0 0 0-.068-.1l-.147-.17a10 10 0 0 0-.305-.361l-.388-.353a1 1 0 0 1-.186-.224l-.024-.039-.102-.164-.124-.203-.102-.214-.136-.26a.46.46 0 0 0-.513-.223.5.5 0 0 0-.164.095.46.46 0 0 0-.113.557l.124.237.113.226.135.237q.079.127.149.256.044.083.07.174l.143.508c.045.147.079.282.113.43l.056.225a.6.6 0 0 0 .102.192l.249.26.103.112q.031.035.032.083l.001.017a7 7 0 0 1 .048.509c.008.051.033.098.057.145q.016.03.03.062l.208.466a.7.7 0 0 0 .12.188q.102.1.208.197a.75.75 0 0 1 .227.485l.005.052v.158a.54.54 0 0 0 .113.271q.085.102.175.203c.114.13.176.299.161.472l-.005.064-.015.187c0 .125.034.249.113.34l.3.332c.07.078.113.175.13.277l.022.159.02.121.007.045c.005.04.01.08.025.117l.02.047a1 1 0 0 0 .043.082c.105.169.209.346.303.514l.056.124q.042.11.088.21c.04.092.053.192.041.291q-.025.212-.06.414a.41.41 0 0 0 .09.339l.28.374c.06.08.098.176.115.276q.013.075.023.152l.033.226c.03.152.052.313.072.466l.008.054a.52.52 0 0 0 .113.35q.1.126.203.248v.001l.13.158q.073.09.096.203c.034.136.056.271.079.407l.056.248.042.178a1 1 0 0 1 .021.325l-.035.364a.7.7 0 0 0 .006.206l.158.633.26.678.04.126c.024.08.051.166.073.247l.025.079a1 1 0 0 1 .041.207l.025.267.02.2.003.037a.4.4 0 0 0 .028.103l.015.042.04.138.063.203.011.043q.034.126.034.258v.445l.057.677q0 .058.01.112l.012.07c.034.169.068.338.09.508 0 .037.012.072.024.107l.008.027.07.227.08.282a.46.46 0 0 0 .44.328h.034a.46.46 0 0 0 .418-.384l.068-.542c.054-.256.02-.772-.048-1.156a1.2 1.2 0 0 1 .008-.488q.03-.124.062-.243a.4.4 0 0 0 0-.17l-.034-.214a4 4 0 0 1-.028-.186l-.022-.152a.4.4 0 0 1 .008-.178c.032-.125.051-.25.07-.374a.045.045 0 0 1 .053-.037m-5.832-3.118c0 .006.007.01.012.007a.008.008 0 0 1 .012.007v.047c.03.127.05.254.07.38q.014.096.032.192a.5.5 0 0 1-.023.215q-.037.12-.076.231a1.2 1.2 0 0 0-.07.387v.263a.37.37 0 0 1-.046.192l-.074.153-.011.023a.35.35 0 0 0-.017.265.6.6 0 0 1 .023.192c-.045.418-.102.712-.181.881l-.034.102-.045.113-.08.214a.45.45 0 0 1-.428.294H5.87a.47.47 0 0 1-.406-.384l-.045-.26-.023-.113-.008-.041a1 1 0 0 1-.026-.207l-.009-.153q-.004-.12-.016-.24a1 1 0 0 1-.009-.142v-.008l.023-.237v-.262q0-.077.01-.152l.016-.124.003-.022a1.2 1.2 0 0 0-.016-.39l-.008-.033-.025-.114a1 1 0 0 1-.025-.226v-.358a1 1 0 0 0-.022-.206l-.024-.112-.056-.238-.023-.067-.025-.085a6 6 0 0 0-.103-.319l-.016-.035a.24.24 0 0 1-.029-.102l-.03-.171q-.016-.077-.028-.158-.013-.082-.028-.158a.35.35 0 0 1 0-.215l.064-.217a1 1 0 0 0 .034-.409l-.03-.244c0-.098-.011-.206-.032-.315l-.003-.025a.13.13 0 0 0-.026-.079l-.065-.088a6 6 0 0 0-.225-.295.46.46 0 0 1-.09-.271v-.197a1 1 0 0 0-.094-.422l-.37-.793a.48.48 0 0 1 .092-.516.5.5 0 0 0 .082-.476 1 1 0 0 0-.037-.092l-.216-.43a.36.36 0 0 1-.056-.214v-.016a1 1 0 0 0-.226-.634l-.079-.096a.46.46 0 0 1-.09-.43l.05-.163a.34.34 0 0 0-.05-.303q-.067-.09-.136-.177a.44.44 0 0 1-.09-.35l.022-.147.013-.054a.24.24 0 0 0-.069-.22l-.215-.223a.6.6 0 0 1-.102-.181l-.158-.52c-.011-.068-.011-.135-.011-.203l.02-.163a.46.46 0 0 0-.096-.357l-.139-.17a.4.4 0 0 1-.101-.248c-.012-.18-.023-.361-.045-.542l-.023-.18-.017-.148v-.004a1 1 0 0 0-.072-.274l-.001-.004a7 7 0 0 0-.159-.373l-.146-.418a.44.44 0 0 1 .205-.548.4.4 0 0 1 .134-.047q.041-.004.079-.003c.192 0 .361.112.429.293l.147.396c.056.113.113.226.17.35q.044.102.12.183l.049.048q.063.064.124.13l.147.17c.095.124.183.248.29.4l.045.064q.015.022.028.045c.01.02.024.043.032.067l.09.242c.036.1.07.196.102.278l.08.169.169.373a.5.5 0 0 1 .035.15l.022.236a1 1 0 0 0 .136.417l.11.185q.024.04.043.082l.017.04c.016.04.023.084.03.127l.007.049.052.305q0 .046.03.081.15.175.286.361a.4.4 0 0 1 .079.158l.034.136c.038.114.068.237.09.327l.011.046.192.53a.7.7 0 0 1 .025.154l.027.403q.005.076.021.15.027.116.052.243a.8.8 0 0 0 .082.235l.035.064q.088.158.165.31c.045.102.068.215.045.317l-.034.147a.8.8 0 0 0 .058.476l.048.097q.03.06.05.123l.001.006a1 1 0 0 1 .021.088l.053.276q.031.153.1.294l.043.09v.001q.037.082.078.164l.046.102a.4.4 0 0 1 .045.192v.527a1 1 0 0 1-.01.142l-.013.088-.017.158-.006.054a1 1 0 0 0 0 .208l.034.36.068.485q.025.094.045.192.022.098.046.192l.056.237c.022.143.033.287.044.44M18.25 21.5a3.755 3.755 0 0 1-3.75-3.75A3.754 3.754 0 0 1 18.25 14 3.754 3.754 0 0 1 22 17.75a3.755 3.755 0 0 1-3.75 3.75m-.757-5.686c.235-.092.49-.147.757-.147 1.148 0 2.083.934 2.083 2.083 0 .267-.055.521-.147.757zm.757 4.02a2.086 2.086 0 0 1-2.084-2.084c0-.268.055-.523.148-.759l2.694 2.694c-.236.093-.49.148-.758.148" clip-rule="evenodd"/></svg>