<svg xmlns="http://www.w3.org/2000/svg" fill="none" viewBox="0 0 24 24"><path fill="#62757E" fill-rule="evenodd" d="M9.9 5.998a.9.9 0 1 1-1.8 0c0-.497.403-2.9.9-2.9s.9 2.403.9 2.9Zm-.9 2.5a2.5 2.5 0 0 0 2.5-2.5c0-1.38-1.12-4.5-2.5-4.5s-2.5 3.12-2.5 4.5a2.5 2.5 0 0 0 2.5 2.5Zm-3.6 1.5a.9.9 0 1 1-1.8 0c0-.497.403-2.9.9-2.9s.9 2.403.9 2.9Zm-.9 2.5a2.5 2.5 0 0 0 2.5-2.5c0-1.38-1.12-4.5-2.5-4.5S2 8.618 2 9.998a2.5 2.5 0 0 0 2.5 2.5Zm10.5-5.6a.9.9 0 0 0 .9-.9c0-.497-.403-2.9-.9-2.9s-.9 2.403-.9 2.9a.9.9 0 0 0 .9.9Zm2.5-.9a2.5 2.5 0 0 1-5 0c0-1.38 1.12-4.5 2.5-4.5s2.5 3.12 2.5 4.5Zm2.9 4a.9.9 0 1 1-1.8 0c0-.497.403-2.9.9-2.9s.9 2.403.9 2.9Zm-.9 2.5a2.5 2.5 0 0 0 2.5-2.5c0-1.38-1.12-4.5-2.5-4.5s-2.5 3.12-2.5 4.5a2.5 2.5 0 0 0 2.5 2.5Zm-5.858-.013c-.394-.462-.756-.743-1.05-.844l-.015-.005-.014-.004a.47.47 0 0 0-.056-.017 4.183 4.183 0 0 0-.507-.017c-.287 0-.403.005-.488.021l-.008.002-.008.001a.418.418 0 0 0-.07.02l-.013.005-.014.004c-.289.1-.638.372-1.057.851-.305.357-.594.7-.881 1.037-.521.614-1.032 1.216-1.6 1.874l-.038.044-.042.042-.24.24-.002.001v.001c-.604.6-1.106 1.1-1.478 1.65-.361.532-.502.975-.46 1.433.186.56.54.946 1.052 1.079h.018c.044-.002.155-.004.362-.023.278-.027.611-.07 1.024-.125l.21-.027c.985-.13 2.279-.29 3.633-.29h.18a15.946 15.946 0 0 1 .236-.001.799.799 0 0 1 .004 1.598v.005c-.08-.002-.16-.002-.24-.002h-.18c-1.327 0-2.612.169-3.63.303-.886.116-1.57.206-1.91.137-1.31-.29-2.04-1.3-2.33-2.32-.282-1.909 1.124-3.304 2.382-4.553l.238-.237a276.04 276.04 0 0 0 1.584-1.856l.896-1.054c.47-.54 1.05-1.08 1.75-1.32.11-.04.22-.07.33-.09.26-.05.53-.05.79-.05s.53 0 .78.04c.11.02.22.05.33.09.7.24 1.29.78 1.75 1.32l.685.798-.008.006a.799.799 0 1 1-1.285.944 183.61 183.61 0 0 0-.603-.703l-.007-.008ZM18.25 22a3.755 3.755 0 0 1-3.75-3.75 3.754 3.754 0 0 1 3.75-3.75A3.754 3.754 0 0 1 22 18.25 3.755 3.755 0 0 1 18.25 22Zm-.757-5.686c.235-.092.49-.147.757-.147 1.148 0 2.083.934 2.083 2.082 0 .268-.055.522-.147.758l-2.693-2.693Zm.757 4.02a2.086 2.086 0 0 1-2.084-2.084c0-.268.055-.523.148-.759l2.694 2.694c-.236.093-.49.148-.758.148Z" clip-rule="evenodd"/></svg>