<svg xmlns="http://www.w3.org/2000/svg" fill="none" viewBox="0 0 24 24"><path fill="currentColor" fill-rule="evenodd" d="M21.907 6.652a.824.824 0 0 1-.18.271l-2.496 2.5a.832.832 0 1 1-1.177-1.18l1.076-1.076h-1.79c-.48 0-.933.232-1.21.621l-3.126 4.384 3.112 4.41c.276.365.718.584 1.179.584h1.864l-1.075-1.076a.834.834 0 0 1 0-1.18.831.831 0 0 1 1.176 0l2.496 2.5a.833.833 0 0 1 0 1.179l-2.494 2.5a.83.83 0 0 1-1.177 0 .834.834 0 0 1 0-1.178l1.075-1.078h-1.865a3.166 3.166 0 0 1-2.508-1.246l-2.808-3.979-2.785 3.905a3.149 3.149 0 0 1-2.561 1.32h-3.8a.833.833 0 0 1 0-1.666h3.8c.478 0 .93-.233 1.207-.622l2.885-4.045.238-.333-3.12-4.422a1.48 1.48 0 0 0-1.177-.578H2.832a.833.833 0 0 1 0-1.667h3.834a3.16 3.16 0 0 1 2.52 1.263l2.8 3.969.328-.459 2.462-3.453a3.153 3.153 0 0 1 2.563-1.32h1.792l-1.075-1.078a.832.832 0 1 1 1.177-1.178l2.494 2.5a.835.835 0 0 1 .18.908Z" clip-rule="evenodd"/></svg>