<svg xmlns="http://www.w3.org/2000/svg" fill="none" viewBox="0 0 24 24"><path fill="#62757E" fill-rule="evenodd" d="M20.754 7.281a.75.75 0 0 0 0-1.061l-2.245-2.25a.749.749 0 1 0-1.059 1.06l.968.97h-1.613c-.914 0-1.777.444-2.307 1.188l-2.5 3.507-3.742 5.245c-.249.35-.656.56-1.087.56H3.75a.75.75 0 0 0 0 1.5h3.42c.915 0 1.777-.444 2.306-1.188l6.243-8.752c.249-.35.656-.56 1.087-.56h1.612l-.968.97a.75.75 0 0 0 1.059 1.06zm-6.356 6.967 1.306 1.726a1.34 1.34 0 0 0 1.061.526h1.678l-.968-.97a.75.75 0 0 1 1.06-1.06l2.245 2.25a.75.75 0 0 1 0 1.06l-2.244 2.25a.746.746 0 0 1-1.06 0 .75.75 0 0 1 0-1.06l.968-.97h-1.679a2.85 2.85 0 0 1-2.257-1.121l-1.306-1.729a.75.75 0 0 1 .148-1.05c.33-.25.8-.182 1.049.148M9.476 9.793 8.258 8.02c-.24-.32-.64-.52-1.058-.52H3.749a.75.75 0 0 1 0-1.5h3.45c.889 0 1.736.425 2.269 1.136L10.7 8.958a.741.741 0 0 1-1.226.835" clip-rule="evenodd"/></svg>