<svg xmlns="http://www.w3.org/2000/svg" fill="none" viewBox="0 0 24 24"><path fill="currentColor" fill-rule="evenodd" d="M4 0a4 4 0 0 0-4 4v16a4 4 0 0 0 4 4h16a4 4 0 0 0 4-4V4a4 4 0 0 0-4-4H4Zm17.727 6.923a.833.833 0 0 0 0-1.179l-2.494-2.5a.832.832 0 1 0-1.177 1.178L19.13 5.5h-1.792a3.153 3.153 0 0 0-2.563 1.32l-2.462 3.453-.327.459-2.8-3.97A3.16 3.16 0 0 0 6.666 5.5H2.831a.833.833 0 0 0 0 1.667h3.834c.466 0 .91.221 1.176.578l3.12 4.422-.237.333-2.885 4.045a1.483 1.483 0 0 1-1.207.621h-3.8a.833.833 0 0 0 0 1.667h3.8a3.149 3.149 0 0 0 2.561-1.32l2.785-3.905 2.808 3.98a3.166 3.166 0 0 0 2.508 1.245h1.865l-1.075 1.078a.834.834 0 0 0 .588 1.422.83.83 0 0 0 .589-.244l2.494-2.5a.833.833 0 0 0 0-1.178l-2.496-2.5a.831.831 0 0 0-1.177 0 .834.834 0 0 0 0 1.179l1.076 1.076h-1.864c-.461 0-.904-.219-1.18-.584l-3.111-4.41 3.127-4.384a1.484 1.484 0 0 1 1.208-.621h1.79l-1.075 1.077a.834.834 0 0 0 1.177 1.179l2.496-2.5Z" clip-rule="evenodd"/></svg>