<svg xmlns="http://www.w3.org/2000/svg" fill="none" viewBox="0 0 24 24"><path fill="#62757E" fill-rule="evenodd" d="M20.916 7.037a.7.7 0 0 1-.162.244l-2.246 2.25a.749.749 0 1 1-1.06-1.062l.969-.969h-1.612c-.431 0-.838.21-1.088.56l-2.814 3.945 2.8 3.97a1.34 1.34 0 0 0 1.062.525h1.678l-.968-.97a.75.75 0 0 1 1.06-1.06l2.245 2.25a.75.75 0 0 1 0 1.06l-2.244 2.25a.746.746 0 0 1-1.06 0 .75.75 0 0 1 0-1.06l.968-.97h-1.679a2.85 2.85 0 0 1-2.256-1.122l-2.527-3.58-2.507 3.513A2.83 2.83 0 0 1 7.169 18H3.75a.75.75 0 0 1 0-1.5h3.42c.431 0 .838-.21 1.087-.56l2.597-3.64.213-.3-2.808-3.98c-.24-.32-.64-.52-1.058-.52H3.749a.75.75 0 0 1 0-1.5h3.45c.889 0 1.736.425 2.268 1.136l2.521 3.572.294-.412 2.216-3.108A2.84 2.84 0 0 1 16.805 6h1.613l-.968-.97a.75.75 0 0 1 1.06-1.06l2.244 2.25a.75.75 0 0 1 .162.817" clip-rule="evenodd"/></svg>