<svg xmlns="http://www.w3.org/2000/svg" fill="none" viewBox="0 0 24 24"><path fill="#62757E" fill-rule="evenodd" d="M4 0a4 4 0 0 0-4 4v16a4 4 0 0 0 4 4h16a4 4 0 0 0 4-4V4a4 4 0 0 0-4-4zm16.754 7.281a.75.75 0 0 0 0-1.061l-2.245-2.25a.749.749 0 1 0-1.059 1.06l.968.97h-1.613c-.914 0-1.777.444-2.307 1.188l-2.216 3.108-.294.412-2.52-3.572A2.85 2.85 0 0 0 7.2 6H3.749a.75.75 0 0 0 0 1.5h3.45c.42 0 .819.2 1.059.52L11.066 12l-.213.3-2.597 3.64c-.249.35-.656.56-1.087.56H3.75a.75.75 0 0 0 0 1.5h3.42c.915 0 1.777-.444 2.306-1.188l2.507-3.515 2.527 3.582a2.85 2.85 0 0 0 2.256 1.12h1.679l-.967.97a.75.75 0 0 0 .529 1.281.75.75 0 0 0 .53-.22l2.244-2.25a.75.75 0 0 0 0-1.06l-2.246-2.25a.75.75 0 0 0-1.06 1.061l.97.969h-1.679a1.34 1.34 0 0 1-1.061-.526l-2.8-3.969 2.813-3.945c.25-.35.657-.56 1.088-.56h1.612l-.968.97a.75.75 0 0 0 1.059 1.06z" clip-rule="evenodd"/></svg>