<svg xmlns="http://www.w3.org/2000/svg" fill="none" viewBox="0 0 24 24"><path fill="#62757E" d="M20 0a4 4 0 0 1 4 4v16a4 4 0 0 1-4 4H4a4 4 0 0 1-4-4V4a4 4 0 0 1 4-4zm-1.49 3.97a.75.75 0 1 0-1.06 1.06l.968.97h-1.613a2.84 2.84 0 0 0-2.307 1.188l-2.216 3.108-.295.412-2.52-3.571A2.85 2.85 0 0 0 7.2 6H3.75a.75.75 0 0 0 0 1.5H7.2c.42 0 .819.2 1.059.52L11.065 12l-.213.3-2.595 3.64c-.25.35-.657.56-1.088.56h-3.42a.75.75 0 0 0 0 1.5h3.42c.914 0 1.776-.445 2.306-1.189l2.505-3.514 2.529 3.582A2.85 2.85 0 0 0 16.766 18h1.678l-.967.97a.751.751 0 0 0 .529 1.28.75.75 0 0 0 .53-.22l2.244-2.25a.75.75 0 0 0 0-1.06l-2.246-2.25a.75.75 0 0 0-1.059 1.06l.968.97h-1.677a1.34 1.34 0 0 1-1.062-.525l-2.802-3.97 2.816-3.945c.249-.35.656-.56 1.087-.56h1.612l-.968.97a.75.75 0 0 0 1.059 1.06l2.246-2.249a.75.75 0 0 0 0-1.062z"/></svg>