<svg xmlns="http://www.w3.org/2000/svg" fill="none" viewBox="0 0 24 24"><path fill="#687485" fill-rule="evenodd" d="M20.916 7.037a.743.743 0 0 1-.162.244l-2.246 2.25a.75.75 0 1 1-1.06-1.062l.969-.969h-1.612c-.431 0-.838.21-1.088.56l-6.242 8.752A2.834 2.834 0 0 1 7.169 18H3.75a.75.75 0 0 1 0-1.5h3.42c.431 0 .838-.21 1.087-.56l2.837-3.977c-.027-.028-.062-.042-.085-.074L8.258 8.02c-.24-.32-.64-.52-1.058-.52H3.749a.75.75 0 0 1 0-1.5h3.45c.889 0 1.736.425 2.269 1.136l2.53 3.56 2.5-3.508A2.838 2.838 0 0 1 16.805 6h1.613l-.968-.97a.749.749 0 1 1 1.06-1.06l2.244 2.25a.75.75 0 0 1 .162.817Zm-6.518 7.21 1.306 1.727a1.34 1.34 0 0 0 1.061.526h1.678l-.968-.97a.75.75 0 0 1 1.06-1.06l2.245 2.25a.75.75 0 0 1 0 1.06l-2.244 2.25a.746.746 0 0 1-1.06 0 .75.75 0 0 1 0-1.06l.968-.97h-1.679a2.85 2.85 0 0 1-2.257-1.121l-1.306-1.729a.75.75 0 0 1 .148-1.05c.33-.25.8-.182 1.049.148Z" clip-rule="evenodd"/></svg>