<svg xmlns="http://www.w3.org/2000/svg" fill="none" viewBox="0 0 24 24"><path fill="#62757E" d="M17.45 3.969a.75.75 0 0 1 1.06 0l2.244 2.25a.75.75 0 0 1 0 1.062l-2.246 2.25a.75.75 0 1 1-1.059-1.061l.968-.97h-1.612c-.431 0-.838.21-1.087.56l-2.816 3.945 2.802 3.97a1.34 1.34 0 0 0 1.062.525h1.677l-.967-.97a.75.75 0 0 1 1.058-1.06l2.246 2.25a.75.75 0 0 1 0 1.06l-2.244 2.25a.746.746 0 0 1-1.06.001.75.75 0 0 1 0-1.061l.968-.97h-1.678a2.85 2.85 0 0 1-2.257-1.121l-2.529-3.582-2.505 3.514A2.83 2.83 0 0 1 7.169 18h-3.42a.75.75 0 0 1 0-1.5h3.42c.43 0 .839-.21 1.088-.56l2.595-3.64.213-.3-2.807-3.98c-.24-.32-.64-.52-1.059-.52H3.75a.75.75 0 0 1 0-1.5H7.2c.888 0 1.737.425 2.269 1.137l2.52 3.571.294-.412 2.216-3.108A2.84 2.84 0 0 1 16.805 6h1.613l-.968-.97a.75.75 0 0 1 0-1.061"/></svg>