<svg xmlns="http://www.w3.org/2000/svg" fill="none" viewBox="0 0 24 24"><g clip-path="url(#a)"><path fill="#057BC1" d="M12 24c6.627 0 12-5.373 12-12S18.627 0 12 0 0 5.373 0 12s5.373 12 12 12"/><path fill="#fff" d="M12 5.5a6.5 6.5 0 1 0 0 13 6.5 6.5 0 0 0 0-13m2.262 8.952h-.264v1.48h-.889v-1.48h-1.352v-.55h1.374v-.993a3.5 3.5 0 0 1-2.347.38c-.444-.105-.887-.348-1.12-.75a2.5 2.5 0 0 1-.317-1.29V8.904h.899v2.431c.02.528.359 1.057.877 1.216a2.7 2.7 0 0 0 1.997-.318c0-.74-.01-1.849 0-3.329h.91v5h.232z"/></g><defs><clipPath id="a"><path fill="#fff" d="M0 0h24v24H0z"/></clipPath></defs></svg>