<svg xmlns="http://www.w3.org/2000/svg" fill="none" viewBox="0 0 24 24"><path fill="#62757E" fill-rule="evenodd" d="M20.25 19.5a.75.75 0 0 1-.75-.75v-1.389C19.5 10.269 13.73 4.5 6.639 4.5h-1.39a.75.75 0 1 1 0-1.5h1.39c7.918 0 14.36 6.443 14.36 14.361v1.389a.75.75 0 0 1-.75.75m-10.5-1.875A3.38 3.38 0 0 1 6.375 21 3.38 3.38 0 0 1 3 17.625a3.38 3.38 0 0 1 3.375-3.375 3.38 3.38 0 0 1 3.375 3.375m-5.25 0c0 1.034.841 1.875 1.875 1.875 1.033 0 1.875-.84 1.875-1.875a1.877 1.877 0 0 0-1.875-1.875c-1.034 0-1.875.84-1.875 1.875m.75-7.123a.75.75 0 1 1 0-1.5h.684c4.999 0 9.066 4.066 9.066 9.064v.684a.75.75 0 1 1-1.5 0v-.684c0-4.17-3.394-7.564-7.566-7.564z" clip-rule="evenodd"/></svg>