<svg xmlns="http://www.w3.org/2000/svg" fill="none" viewBox="0 0 24 24"><g clip-path="url(#a)"><path fill="#F5342E" d="M12 24c6.627 0 12-5.373 12-12S18.627 0 12 0 0 5.373 0 12s5.373 12 12 12Z"/><path fill="#fff" d="M5.5 12.08a6.627 6.627 0 0 1 .33-2.132A6.497 6.497 0 0 1 7.01 7.81 6.363 6.363 0 0 1 9.2 6.1a6.146 6.146 0 0 1 1.776-.535 6.15 6.15 0 0 1 1.118-.062 6.253 6.253 0 0 1 2.15.465c.01.005.022.01.023.022.002.017-.013.022-.026.028l-.234.09c-.51.199-1.008.425-1.492.68a9.844 9.844 0 0 0-1.533.982 5.506 5.506 0 0 0-1.105 1.14 2.936 2.936 0 0 0-.462.97 2.49 2.49 0 0 0 .044 1.337c.095.326.24.632.398.93.2.376.427.737.636 1.109.19.338.366.683.483 1.056.081.26.13.528.125.802-.009.356-.1.705-.268 1.02-.197.379-.467.698-.767.994-.278.272-.58.512-.89.74-.046.035-.082.033-.13.009a6.388 6.388 0 0 1-1.264-.846 6.484 6.484 0 0 1-1.213-1.386A6.612 6.612 0 0 1 5.5 12.08Z"/><path fill="#fff" d="M9.43 18.007c.012-.028.041-.029.063-.037a16.73 16.73 0 0 0 1.34-.556c.513-.242 1.013-.51 1.486-.823a7.59 7.59 0 0 0 1.04-.812 4.46 4.46 0 0 0 .817-1.004c.177-.305.296-.63.335-.983a2.46 2.46 0 0 0-.089-.95 4.703 4.703 0 0 0-.422-.978c-.205-.375-.438-.734-.654-1.103a5.997 5.997 0 0 1-.476-.977 2.471 2.471 0 0 1-.155-1.032c.018-.24.08-.472.177-.694.146-.334.356-.626.6-.895.355-.395.77-.722 1.201-1.03.048-.035.087-.038.14-.012.459.23.888.505 1.284.83.405.334.765.709 1.079 1.127a6.428 6.428 0 0 1 1.282 3.4c.014.206.027.41.021.616a6.517 6.517 0 0 1-2.083 4.64 6.626 6.626 0 0 1-6.922 1.312c-.023-.01-.05-.013-.064-.039Z"/></g><defs><clipPath id="a"><path fill="#fff" d="M0 0h24v24H0z"/></clipPath></defs></svg>