<svg xmlns="http://www.w3.org/2000/svg" fill="none" viewBox="0 0 24 24"><g clip-path="url(#a)"><path fill="#F5342E" d="M12 24c6.627 0 12-5.373 12-12S18.627 0 12 0 0 5.373 0 12s5.373 12 12 12Z"/><path fill="#fff" d="M5.5 12.08a6.627 6.627 0 0 1 .33-2.132A6.497 6.497 0 0 1 7.01 7.81 6.363 6.363 0 0 1 9.2 6.1a6.146 6.146 0 0 1 1.776-.535 6.15 6.15 0 0 1 1.118-.062 6.254 6.254 0 0 1 2.149.465c.01.005.023.01.024.022.001.017-.014.022-.026.028l-.234.09c-.51.199-1.008.425-1.492.68a9.839 9.839 0 0 0-1.533.982 5.48 5.48 0 0 0-1.105 1.14 2.936 2.936 0 0 0-.462.97 2.49 2.49 0 0 0 .044 1.337c.095.326.239.632.397.93.2.376.428.737.636 1.109.19.338.367.683.484 1.056.081.26.13.528.125.802-.01.356-.1.705-.268 1.02-.197.379-.467.698-.767.994-.278.272-.58.512-.89.74-.046.035-.082.033-.13.009a6.388 6.388 0 0 1-1.264-.846 6.484 6.484 0 0 1-1.213-1.386 6.612 6.612 0 0 1-1.07-3.566Z"/><path fill="#fff" d="M9.43 18.007c.012-.028.041-.029.063-.037a16.73 16.73 0 0 0 1.34-.556c.513-.242 1.013-.51 1.486-.823.37-.24.718-.512 1.04-.812.317-.3.598-.627.816-1.004a2.49 2.49 0 0 0 .336-.983 2.46 2.46 0 0 0-.09-.95 4.708 4.708 0 0 0-.421-.978c-.205-.375-.439-.734-.654-1.103a5.997 5.997 0 0 1-.476-.977 2.47 2.47 0 0 1-.155-1.032c.017-.24.08-.472.177-.694.145-.334.355-.626.599-.895.356-.395.77-.722 1.202-1.03.047-.035.087-.038.14-.012.459.23.888.505 1.283.83.405.334.766.709 1.08 1.127a6.426 6.426 0 0 1 1.281 3.4c.015.206.028.41.022.616a6.516 6.516 0 0 1-2.083 4.64 6.626 6.626 0 0 1-6.922 1.312c-.024-.01-.05-.013-.064-.039Z"/></g><defs><clipPath id="a"><path fill="#fff" d="M0 0h24v24H0z"/></clipPath></defs></svg>