<svg xmlns="http://www.w3.org/2000/svg" fill="none" viewBox="0 0 24 24"><path fill="currentColor" d="m12.96 21.578 7.288-4.224c.787-.46 1.134-.853 1.134-1.443 0-.6-.347-.984-1.134-1.452l-4.243-2.454 4.243-2.464c.787-.459 1.134-.852 1.134-1.443 0-.6-.347-.983-1.134-1.452L12.96 2.422C12.473 2.14 12.09 2 11.695 2c-.402 0-.786.14-1.274.422L3.133 6.646C2.347 7.115 2 7.5 2 8.098c0 .59.347.984 1.133 1.443l4.244 2.464-4.244 2.454C2.347 14.927 2 15.312 2 15.911c0 .59.347.984 1.133 1.443l7.288 4.224c.488.282.872.422 1.274.422.394 0 .778-.14 1.265-.422Zm-1.265-7.39c.394 0 .778-.132 1.265-.422l1.19-.693 4.824 2.744c.038.028.066.047.066.094 0 .037-.028.066-.066.084L12.07 19.93c-.14.075-.253.122-.375.122-.13 0-.243-.047-.383-.122l-6.895-3.935c-.047-.018-.066-.046-.066-.084 0-.047.019-.066.066-.094l4.805-2.744 1.2.693c.487.29.87.421 1.273.421Z"/></svg>