<svg xmlns="http://www.w3.org/2000/svg" fill="none" viewBox="0 0 24 24"><g clip-path="url(#a)"><path fill="#0072FF" d="M12 24c6.627 0 12-5.373 12-12S18.627 0 12 0 0 5.373 0 12s5.373 12 12 12Z"/><path fill="#fff" d="m16.743 10.702-2.843 6.32h-1.136l2.992-6.653c.345.056.679.168.987.333Zm-4.975-3.713-4.375 9.725a3.353 3.353 0 0 1-1.893-3.04c0-1.85 1.455-3.348 3.25-3.348 0-1.77 1.332-3.215 3.018-3.337Zm3.483 3.337-3.013 6.697h-1.231l3.783-8.409c.291.501.46 1.085.46 1.712Zm1.119 6.49 1.93-4.288c.127.359.2.744.2 1.148 0 1.44-.886 2.668-2.13 3.14Zm.852-5.8c.27.213.508.466.7.756l-2.355 5.234c-.105.011-.21.017-.316.017h-.73l2.7-6.007Zm-5.21-4.039c.46.002.897.103 1.294.285l-4.39 9.76H8.75a3.13 3.13 0 0 1-1.156-.222l4.418-9.823Zm2.521 1.252-3.956 8.794H9.25L13.58 7.4c.367.211.69.494.953.829Z"/></g><defs><clipPath id="a"><path fill="#fff" d="M0 0h24v24H0z"/></clipPath></defs></svg>