<svg xmlns="http://www.w3.org/2000/svg" fill="none" viewBox="0 0 24 24"><path fill="#E01E5A" d="M5.06 15.16a2.518 2.518 0 0 1-2.52 2.52 2.518 2.518 0 0 1-2.52-2.52 2.518 2.518 0 0 1 2.52-2.52h2.52v2.52Zm1.26 0a2.518 2.518 0 0 1 2.52-2.52 2.518 2.518 0 0 1 2.52 2.52v6.3a2.518 2.518 0 0 1-2.52 2.52 2.518 2.518 0 0 1-2.52-2.52v-6.3Z"/><path fill="#36C5F0" d="M8.84 5.04a2.518 2.518 0 0 1-2.52-2.52A2.518 2.518 0 0 1 8.84 0a2.518 2.518 0 0 1 2.52 2.52v2.52H8.84Zm0 1.28a2.518 2.518 0 0 1 2.52 2.52 2.518 2.518 0 0 1-2.52 2.52H2.52A2.518 2.518 0 0 1 0 8.84a2.518 2.518 0 0 1 2.52-2.52h6.32Z"/><path fill="#2EB67D" d="M18.94 8.84a2.518 2.518 0 0 1 2.52-2.52 2.518 2.518 0 0 1 2.52 2.52 2.518 2.518 0 0 1-2.52 2.52h-2.52V8.84Zm-1.26 0a2.518 2.518 0 0 1-2.52 2.52 2.518 2.518 0 0 1-2.52-2.52V2.52A2.518 2.518 0 0 1 15.16 0a2.518 2.518 0 0 1 2.52 2.52v6.32Z"/><path fill="#ECB22E" d="M15.16 18.94a2.518 2.518 0 0 1 2.52 2.52 2.518 2.518 0 0 1-2.52 2.52 2.518 2.518 0 0 1-2.52-2.52v-2.52h2.52Zm0-1.26a2.518 2.518 0 0 1-2.52-2.52 2.518 2.518 0 0 1 2.52-2.52h6.32A2.518 2.518 0 0 1 24 15.16a2.518 2.518 0 0 1-2.52 2.52h-6.32Z"/></svg>