<svg xmlns="http://www.w3.org/2000/svg" fill="none" viewBox="0 0 24 24"><path fill="#62757E" fill-rule="evenodd" d="M14.335 2h-4.67c-1.09 0-1.958 0-2.657.057-.717.059-1.328.181-1.887.466a4.8 4.8 0 0 0-2.098 2.098c-.285.56-.407 1.17-.466 1.887-.057.7-.057 1.567-.057 2.657v5.67c0 1.09 0 1.958.057 2.657.059.717.181 1.328.466 1.887a4.8 4.8 0 0 0 2.098 2.098c.56.285 1.17.407 1.887.466.7.057 1.566.057 2.657.057h4.67c1.09 0 1.958 0 2.657-.057.717-.059 1.328-.181 1.887-.466a4.8 4.8 0 0 0 2.098-2.098c.285-.56.407-1.17.466-1.887.057-.7.057-1.567.057-2.657v-5.67c0-1.09 0-1.958-.057-2.657-.059-.717-.181-1.328-.466-1.887a4.8 4.8 0 0 0-2.098-2.098c-.56-.285-1.17-.407-1.887-.466C16.292 2 15.425 2 14.335 2M5.847 3.949c.296-.151.673-.247 1.29-.297.628-.051 1.43-.052 2.563-.052h4.6c1.133 0 1.935 0 2.562.052.618.05.995.146 1.29.297a3.2 3.2 0 0 1 1.4 1.398c.15.296.246.673.296 1.29.051.628.052 1.43.052 2.563v5.6c0 1.133 0 1.935-.052 2.562-.05.618-.146.995-.297 1.29a3.2 3.2 0 0 1-1.398 1.4c-.296.15-.673.246-1.291.296-.627.051-1.429.052-2.562.052H9.7c-1.133 0-1.935 0-2.562-.052-.618-.05-.995-.146-1.29-.297a3.2 3.2 0 0 1-1.4-1.398c-.15-.296-.246-.673-.296-1.291C4.1 16.735 4.1 15.933 4.1 14.8V9.2c0-1.133 0-1.935.052-2.562.05-.618.146-.995.297-1.29a3.2 3.2 0 0 1 1.398-1.4m9.015 2.55a.8.8 0 1 0-1.502-.549L9.138 17.5a.8.8 0 0 0 1.502.55z" clip-rule="evenodd"/></svg>