<svg xmlns="http://www.w3.org/2000/svg" fill="none" viewBox="0 0 24 24"><path fill="#62757e" d="M7.918 2.284A.8.8 0 0 1 9.074 3c0 4.131 1.024 7.073 2.939 8.987 1.914 1.915 4.855 2.938 8.987 2.938a.8.8 0 0 1 .717 1.157 10.29 10.29 0 0 1-9.224 5.718C6.808 21.8 2.2 17.19 2.2 11.507c0-4.043 2.33-7.54 5.718-9.223M7.512 4.38a8.694 8.694 0 1 0 12.107 12.107c-3.718-.21-6.665-1.298-8.737-3.37-2.072-2.07-3.16-5.019-3.37-8.737M21 2.2a.8.8 0 0 1 0 1.6h-1.2v5.7a2.3 2.3 0 1 1-1.6-2.192V3.6a1.4 1.4 0 0 1 1.4-1.4zm-3.5 6.6a.7.7 0 1 0 0 1.4.7.7 0 0 0 0-1.4"/></svg>