<svg xmlns="http://www.w3.org/2000/svg" fill="none" viewBox="0 0 24 24"><g clip-path="url(#a)"><path fill="#8E9495" d="M12 24c6.627 0 12-5.373 12-12S18.627 0 12 0 0 5.373 0 12s5.373 12 12 12"/><path fill="#fff" d="M5.95 15.403a5 5 0 0 1-.365-1.118 4 4 0 0 1-.085-.617h.646a4.5 4.5 0 0 0 .392 1.48c.387.82.975 1.288 1.829 1.288.667 0 1.184-.267 1.548-.738.31-.398.484-.926.484-1.37 0-.568-.215-.987-.645-1.341-.35-.29-.752-.492-1.582-.837l-.147-.06c-.864-.358-1.263-.554-1.65-.86-.536-.424-.82-.949-.82-1.621 0-.805.289-1.488.807-1.97a2.65 2.65 0 0 1 1.802-.694c.925 0 1.63.384 2.1 1.059v-.917h2.086v9.206h.62v-2.647l.645.022v.032q.019.236.065.467c.067.336.171.673.316.98.384.82.973 1.288 1.826 1.288.667 0 1.184-.267 1.548-.738.31-.398.484-.926.484-1.37 0-.568-.215-.986-.645-1.341-.35-.289-.751-.491-1.582-.836l-.147-.061c-.863-.358-1.262-.554-1.65-.86-.536-.423-.82-.948-.82-1.62 0-.806.29-1.489.808-1.971a2.65 2.65 0 0 1 1.802-.693c.924 0 1.63.384 2.1 1.059v-.878h.646v3.193h-.647c0-.667-.153-1.343-.454-1.842-.355-.59-.89-.912-1.645-.912-.5-.004-.983.181-1.353.518-.39.364-.612.885-.612 1.525 0 .477.192.83.585 1.141.325.257.69.436 1.496.77l.147.06c.89.37 1.331.593 1.747.936.569.47.87 1.057.87 1.813a2.96 2.96 0 0 1-.611 1.74c-.483.624-1.189.988-2.067.988a2.44 2.44 0 0 1-1.56-.528 2.9 2.9 0 0 1-.647-.74v1.125h-1.911V7.707h-.795v2.613h-.645c0-.668-.153-1.344-.454-1.843-.356-.59-.89-.912-1.646-.912-.5-.004-.983.181-1.352.518-.39.364-.612.885-.612 1.525 0 .477.192.83.585 1.141.325.257.689.436 1.496.77l.146.06c.89.37 1.332.593 1.748.936.568.47.87 1.057.87 1.813a2.96 2.96 0 0 1-.611 1.74c-.484.624-1.19.988-2.067.988a2.44 2.44 0 0 1-1.56-.528 2.9 2.9 0 0 1-.661-.76v1.106H5.5v-3.206h.646v2.1a4 4 0 0 1-.196-.366"/></g><defs><clipPath id="a"><path fill="#fff" d="M0 0h24v24H0z"/></clipPath></defs></svg>