<svg xmlns="http://www.w3.org/2000/svg" fill="none" viewBox="0 0 24 24"><path fill="#62757E" fill-rule="evenodd" d="M6.8 3.75c0-.8.65-1.45 1.45-1.45H9.7V3a.8.8 0 0 0 .8.8h3a.8.8 0 0 0 .8-.8v-.7h1.45c.8 0 1.45.65 1.45 1.45v2.687a.8.8 0 1 0 1.6 0V3.75A3.05 3.05 0 0 0 15.75.7h-7.5A3.05 3.05 0 0 0 5.2 3.75v16.5a3.05 3.05 0 0 0 3.05 3.05h7.5a3.05 3.05 0 0 0 3.05-3.05v-.587a.8.8 0 0 0-1.6 0v.587c0 .8-.65 1.45-1.45 1.45h-7.5c-.8 0-1.45-.65-1.45-1.45zm2.9 16.5a.8.8 0 0 1 .8-.8h3a.8.8 0 1 1 0 1.6h-3a.8.8 0 0 1-.8-.8m1.967-6.432c0 2.306 1.869 4.182 4.166 4.182S20 16.124 20 13.818a.833.833 0 1 0-1.667 0 2.51 2.51 0 0 1-2.5 2.515 2.51 2.51 0 0 1-2.5-2.515 2.46 2.46 0 0 1 2.493-2.485h.504l-.242.234a.833.833 0 1 0 1.157 1.2l1.656-1.598a.834.834 0 0 0 .024-1.175L17.27 8.258a.834.834 0 0 0-1.207 1.15l.247.259h-.484a4.16 4.16 0 0 0-4.16 4.151" clip-rule="evenodd"/></svg>