<svg xmlns="http://www.w3.org/2000/svg" fill="none" viewBox="0 0 24 24"><path fill="#62757E" fill-rule="evenodd" d="m21.76 9.806-1.6 1.565c-.029.028-.064.04-.095.062-.052.039-.1.08-.161.105a.8.8 0 0 1-.304.062.8.8 0 0 1-.566-.235l-1.6-1.6a.8.8 0 1 1 1.131-1.13l.19.19c-.223-1.695-1.879-3.353-3.576-3.577l.187.186a.8.8 0 0 1-1.132 1.131l-1.599-1.598a.8.8 0 0 1 0-1.133l1.6-1.6a.8.8 0 0 1 1.13 1.132l-.252.252c2.622.188 5.091 2.685 5.256 5.31l.271-.267a.8.8 0 0 1 1.12 1.144M18.8 16.4V18a.8.8 0 0 1-1.6 0v-1.6a.8.8 0 0 1 1.6 0m-6.4-3.2c0-.442.414-.765.855-.765h6.424c1.007 0 1.521.785 1.521 1.791v5.948A1.83 1.83 0 0 1 19.373 22h-14q-.161 0-.315-.027a.8.8 0 0 1-.645-.93c.078-.434.377-.657.813-.579h14.453c.123 0-.08-.168-.08-.29v-5.948a.23.23 0 0 0-.226-.226H13.2a.8.8 0 0 1-.8-.8m-2.626 6.453H3.827A1.83 1.83 0 0 1 2 17.827V4.625a1.83 1.83 0 0 1 1.827-1.827h5.947c1.007 0 1.826.82 1.826 1.827v13.2a1.83 1.83 0 0 1-1.826 1.827m.27-15.247c0-.123-.147-.006-.27-.006H3.827a.23.23 0 0 0-.227.226v13.2a.23.23 0 0 0 .227.227h5.947c.123 0 .27.125.27.002zM7.6 6.8H6a.8.8 0 1 1 0-1.6h1.6a.8.8 0 1 1 0 1.6m-.784 8.8h.008a.8.8 0 1 1 0 1.6.804.804 0 0 1-.804-.8c0-.443.355-.8.796-.8" clip-rule="evenodd"/></svg>