<svg xmlns="http://www.w3.org/2000/svg" fill="none" viewBox="0 0 24 24"><path fill="#62757E" fill-rule="evenodd" d="M8.25 2.3c-.8 0-1.45.65-1.45 1.45v10.803l10.4-10.4V3.75c0-.8-.65-1.45-1.45-1.45H14.3V3a.8.8 0 0 1-.8.8h-3a.8.8 0 0 1-.8-.8v-.7zm10.375.428A3.05 3.05 0 0 0 15.75.7h-7.5A3.05 3.05 0 0 0 5.2 3.75v12.403L3.182 18.17a.85.85 0 0 0 1.202 1.202l16-16a.85.85 0 1 0-1.202-1.202zM5.265 20.876 6.8 19.341v.909c0 .8.65 1.45 1.45 1.45h7.5c.8 0 1.45-.65 1.45-1.45V8.94l1.6-1.6v12.91a3.05 3.05 0 0 1-3.05 3.05h-7.5a3.05 3.05 0 0 1-2.986-2.424M10.5 19.45a.8.8 0 1 0 0 1.6h3a.8.8 0 0 0 0-1.6z" clip-rule="evenodd"/></svg>