<svg xmlns="http://www.w3.org/2000/svg" fill="none" viewBox="0 0 24 24"><path fill="#62757E" fill-rule="evenodd" d="M20.542 22h-3.75a1.453 1.453 0 0 1-1.459-1.445v-7.944c0-.797.655-1.444 1.459-1.444h3.75c.804 0 1.458.647 1.458 1.444v7.944c0 .797-.654 1.445-1.458 1.445m-.209-9.167H17v7.5h3.333zm.834-2.5a.833.833 0 0 1-.834-.833V3.667h-15V7a.833.833 0 1 1-1.666 0V3.444c0-.796.64-1.444 1.428-1.444h15.477C21.359 2 22 2.648 22 3.444V9.5c0 .46-.373.833-.833.833M8.388 8.667c1.073 0 1.945.925 1.945 2.061v9.21c0 1.137-.872 2.062-1.945 2.062H3.944C2.872 22 2 21.075 2 19.938v-9.21c0-1.136.872-2.061 1.944-2.061zm-4.721 2.061v9.21c0 .227.146.395.277.395h4.444c.132 0 .279-.168.279-.395v-9.21c0-.226-.147-.395-.279-.395H3.944c-.13 0-.277.169-.277.395M12 15.333h1.667a.833.833 0 1 1 0 1.667H12a.834.834 0 0 1 0-1.667" clip-rule="evenodd"/></svg>