<svg xmlns="http://www.w3.org/2000/svg" fill="none" viewBox="0 0 24 24"><path fill="currentColor" fill-rule="evenodd" d="M19.5 18.667h-15a2.503 2.503 0 0 1-2.5-2.5V9.5C2 8.122 3.122 7 4.5 7h15C20.878 7 22 8.122 22 9.5v6.667c0 1.378-1.122 2.5-2.5 2.5Zm.833-9.167a.834.834 0 0 0-.833-.833h-15a.834.834 0 0 0-.833.833v6.667c0 .46.374.833.833.833h15c.46 0 .833-.373.833-.833V9.5Zm-2.42 4.167a.837.837 0 0 1-.837-.834.83.83 0 0 1 .829-.833h.008a.833.833 0 1 1 0 1.667Zm-12.58.833a.833.833 0 0 1-.833-.833V12a.833.833 0 1 1 1.667 0v1.667c0 .46-.374.833-.834.833Z" clip-rule="evenodd"/></svg>