<svg xmlns="http://www.w3.org/2000/svg" fill="none" viewBox="0 0 24 24"><path fill="#62757E" fill-rule="evenodd" d="M16.644 22H10.69c-1.117 0-2.024-.934-2.024-2.083v-12.5c0-1.15.907-2.084 2.024-2.084h5.952c1.116 0 2.024.934 2.024 2.084v12.5c0 1.149-.908 2.083-2.024 2.083M17 7.417C17 7.19 16.837 7 16.643 7h-5.952c-.194 0-.357.19-.357.417v12.5c0 .226.163.416.357.416h5.952c.194 0 .357-.19.357-.416zm-4.972.416h3.333V9.5h-3.333zm2.5 11.667H12.86v-1.667h1.667zm-.028-15a.833.833 0 0 1-.832-.805 2 2 0 0 0-.359-.028H7.357c-.194 0-.357.191-.357.417v12.5c0 .223.024.351.043.418.43.034.778.394.778.83 0 .461-.36.835-.82.835-.392 0-1.668-.151-1.668-2.084V4.084C5.334 2.935 6.242 2 7.358 2h5.952c1.827 0 2.025 1.166 2.025 1.667 0 .46-.374.833-.834.833" clip-rule="evenodd"/></svg>