<svg xmlns="http://www.w3.org/2000/svg" fill="none" viewBox="0 0 24 24"><path fill="#62757E" fill-rule="evenodd" d="M10 5.364h1.667c.46 0 .833.376.833.84s-.373.84-.833.84H10a.837.837 0 0 1-.833-.84c0-.464.373-.84.833-.84M19.167 23a.837.837 0 0 1-.834-.84v-4.2c0-1.042-.834-2.224-1.666-3.125v5.644c0 .072-.024.135-.041.202l.713.982c.272.374.191.9-.18 1.174a.83.83 0 0 1-1.165-.183l-3.685-5.078c-.156-.223-.557-.663-1.191-.282-.257.243-.408.52.024 1.194l2.058 3.216a.843.843 0 0 1-.248 1.16.83.83 0 0 1-1.152-.25L9.743 19.4c-1.108-1.724-.278-2.873.315-3.404a1 1 0 0 1 .1-.078c1.434-.938 2.823-.303 3.507.682L15 18.44v-5.518c0-.155.044-.303.12-.431a.8.8 0 0 1-.12-.409V4.884c0-.195-.607-.196-.833-.196h-7.5c-.226 0 0 .001 0 .196v14.397c0 .195.19.36.416.36h1.25c.46 0 .834.375.834.84a.837.837 0 0 1-.834.839h-1.25C5.935 21.32 5 20.405 5 19.28V4.885C5 3.76 6.352 3 7.5 3H15c1.148 0 1.667.76 1.667 1.884v7.198a.8.8 0 0 1-.09.364c.849.702 3.423 3.036 3.423 5.515v4.199c0 .464-.373.84-.833.84" clip-rule="evenodd"/></svg>