<svg xmlns="http://www.w3.org/2000/svg" fill="none" viewBox="0 0 24 24"><path fill="currentColor" fill-rule="evenodd" d="M16.31 22h-5.952c-1.117 0-2.025-.934-2.025-2.083v-12.5c0-1.15.908-2.084 2.024-2.084h5.953c1.116 0 2.023.934 2.023 2.084v12.5c0 1.149-.907 2.083-2.023 2.083Zm.357-14.583c0-.227-.164-.417-.357-.417h-5.952c-.195 0-.358.19-.358.417v12.5c0 .226.163.416.357.416h5.953c.193 0 .357-.19.357-.416v-12.5Zm-4.973.416h3.333V9.5h-3.333V7.833Zm2.5 11.667h-1.667v-1.667h1.667V19.5Zm-.027-15a.833.833 0 0 1-.833-.805 1.777 1.777 0 0 0-.358-.028H7.023c-.193 0-.356.191-.356.417v12.5c0 .223.024.351.043.418.43.034.777.394.777.83 0 .461-.36.835-.82.835-.391 0-1.667-.151-1.667-2.084V4.084C5 2.935 5.907 2 7.023 2h5.953C14.802 2 15 3.166 15 3.667c0 .46-.373.833-.833.833Z" clip-rule="evenodd"/></svg>