<svg xmlns="http://www.w3.org/2000/svg" fill="none" viewBox="0 0 24 24"><g clip-path="url(#a)"><path fill="#FEC60D" d="M12 24c6.627 0 12-5.373 12-12S18.627 0 12 0 0 5.373 0 12s5.373 12 12 12"/><path fill="#fff" d="m17.464 8.646-1.762-1.014-.176-.101-.175-.104c-.353-.201-.707-.397-1.056-.606l-1.673-.966A12 12 0 0 0 12 5.5c-.009 0-.072.041-.086.05L9.628 6.866l-.09.053-.086.05-.176.102-.09.053-.172.1-.177.1-.354.203c-.03.016-.056.033-.086.05l-.443.256c-.061.036-.118.065-.178.1l-.35.206c-.175.1-.352.208-.53.304-.078.042-.49.293-.53.304v6.514c.033.003.482.271.529.299l.705.408.176.102.349.2c.03.016.056.033.087.05.034.019.056.035.09.051.09.047.176.101.261.153l.444.256c.03.017.055.031.085.05.174.104.353.198.526.302l.618.358c.409.242.825.466 1.232.71l.483.28c.077.052.105-.006.226-.073l1.058-.61.177-.101.173-.1q.042-.023.085-.05l.971-.562c.29-.174.59-.33.88-.505l1.932-1.12.086-.05c.031-.017.06-.04.095-.047V8.747c-.055-.037-.111-.065-.17-.1m-3.48 6.376h-1.646v.431q0 .007-.008.007h-.794v-.438h-1.52v-1.22c0-.012.014-.023.022-.03l.154-.167.013-.013.012-.014.09-.095v-.002l.027-.027.012-.014.029-.03.003-.004.096-.104q.03-.029.06-.064h.001l.003-.005.065-.068.025-.027.078-.083.013-.013.011-.015.131-.139.001-.001.003-.004.02-.02c.026-.033.072-.074.099-.107l.003-.004.027-.027.05-.055c.036-.036.067-.075.103-.11l.115-.124.013-.013.05-.056q.016-.014.027-.027.012-.014.026-.027l.05-.055q.008-.007.014-.015l.039-.041.026-.028c.023-.025.087-.09.101-.11l.025-.026a1 1 0 0 0-.065-.07l-.05-.056-.014-.013c-.005-.006-.006-.01-.012-.015l-.116-.123-.064-.07-.013-.013-.589-.632-.013-.016-.087-.093v-.002l-.194-.208-.012-.012-.052-.057-.103-.11-.011-.012-.002-.001-.037-.042-.053-.055c-.006-.006-.007-.01-.013-.015q-.05-.055-.103-.109l-.012-.013c-.004-.005-.023-.023-.023-.028V9.048h1.52V8.54c.268 0 .533.005.8.005v.487q-.001.008.007.008h1.643v1.235h-2.266c.013.02.034.037.05.056l.125.138.025.028c.021.026.046.047.067.073l.183.201c.036.035.067.075.1.11l.469.515.003.004.167.184.013.012c.023.023.041.049.064.071l.3.33q.02.018.037.04c-.005.008-.008.01-.014.016l-.012.014-.063.068-.012.014-.15.165c-.011.01-.016.018-.026.028-.02.02-.052.059-.076.082l-.105.117c-.021.025-.078.081-.095.103l-.15.163c-.032.04-.068.074-.101.113l-.062.066-.087.097-.014.014-.107.118-.005.006-.131.143-.003.003-.005.006-.001.001-.06.067-.012.013-.013.013c-.026.026-.049.057-.075.082l-.012.014-.05.056-.013.012-.15.165h2.204c.02 0 .063-.005.063.007z"/></g><defs><clipPath id="a"><path fill="#fff" d="M0 0h24v24H0z"/></clipPath></defs></svg>