<svg xmlns="http://www.w3.org/2000/svg" fill="none" viewBox="0 0 24 24"><path fill="#62757E" fill-rule="evenodd" d="M20.056 22h-4.444c-1.073 0-1.945-.935-1.945-2.084v-12.5c0-1.149.872-2.083 1.945-2.083h4.444c1.072 0 1.944.934 1.944 2.084v12.499C22 21.065 21.128 22 20.056 22m.277-14.583c0-.239-.146-.417-.277-.417h-4.444c-.132 0-.279.178-.279.417v12.499c0 .239.147.417.279.417h4.444c.13 0 .277-.178.277-.417zM18.667 9.5H17a.833.833 0 0 1 0-1.667h1.667a.833.833 0 0 1 0 1.667m0 10H17v-1.667h1.667zM9.5 17.833H7.833v-1.666H9.5zM7 5.333c0-.46.373-.834.833-.834H9.5a.833.833 0 0 1 0 1.667H7.833A.833.833 0 0 1 7 5.333m7.5-.834a.833.833 0 0 1-.832-.8 1 1 0 0 0-.107-.02 2 2 0 0 0-.227-.012H4c-.18 0-.333.163-.333.357v14.285c0 .194.153.357.333.357h8a.833.833 0 0 1 0 1.667H4c-1.102 0-2-.908-2-2.024V4.024C2 2.908 2.898 2 4 2h9.334q.227 0 .434.025h.003c.979.124 1.563.738 1.563 1.642 0 .46-.373.832-.833.832" clip-rule="evenodd"/></svg>