<svg xmlns="http://www.w3.org/2000/svg" fill="none" viewBox="0 0 24 24"><path fill="#62757E" fill-rule="evenodd" d="M20.056 21.333h-4.444c-1.073 0-1.945-.917-1.945-2.045V8.378c0-1.128.872-2.045 1.945-2.045h4.444c1.072 0 1.944.917 1.944 2.045v10.91c0 1.128-.872 2.045-1.944 2.045m.277-12.955c0-.223-.145-.378-.277-.378h-4.444c-.132 0-.279.155-.279.378v10.91c0 .223.147.379.279.379h4.444c.131 0 .277-.156.277-.38zM18.667 10.5H17a.833.833 0 1 1 0-1.667h1.667a.833.833 0 1 1 0 1.667m0 8.333H17v-1.666h1.667zM5.333 12.167V10.5A.833.833 0 1 1 7 10.5v1.667a.834.834 0 0 1-1.667 0M19.5 5.5a.835.835 0 0 1-.833-.805 2 2 0 0 0-.358-.028H4.024c-.194 0-.357.191-.357.417v12.5c0 .225.163.416.357.416h7.143a.834.834 0 0 1 0 1.667H4.024C2.908 19.667 2 18.733 2 17.583V5.084C2 3.935 2.908 3 4.024 3H18.31c1.827 0 2.024 1.166 2.024 1.667 0 .46-.373.833-.833.833" clip-rule="evenodd"/></svg>