<svg xmlns="http://www.w3.org/2000/svg" fill="none" viewBox="0 0 24 24"><g clip-path="url(#a)"><path fill="#FEC60D" d="M12 24c6.627 0 12-5.373 12-12S18.627 0 12 0 0 5.373 0 12s5.373 12 12 12Z"/><path fill="#fff" d="m17.463 8.646-1.76-1.014-.177-.101c-.059-.033-.115-.07-.175-.104-.353-.201-.707-.397-1.056-.606l-1.673-.966A12.35 12.35 0 0 0 12 5.5c-.009 0-.072.041-.086.05L9.628 6.866l-.09.053a2.26 2.26 0 0 0-.086.05l-.176.102-.09.053-.172.1-.177.1-.354.203c-.03.016-.056.033-.086.05l-.443.256c-.061.036-.118.065-.178.1l-.35.206c-.175.1-.352.208-.53.304-.078.042-.49.293-.53.304v6.514c.033.003.482.271.529.299l.705.408.176.102.349.2c.03.016.056.033.087.05.034.019.056.035.09.051.09.047.176.101.261.153l.444.256c.03.017.055.031.085.05.174.104.353.198.526.302l.618.358c.409.242.825.466 1.232.71l.483.28c.077.052.105-.006.226-.073l1.058-.61a13.1 13.1 0 0 1 .177-.101l.173-.1c.029-.015.056-.032.085-.05l.971-.562c.29-.174.59-.33.88-.505l1.932-1.12.086-.05c.031-.017.06-.04.095-.047V8.747c-.055-.037-.111-.065-.17-.1Zm-3.478 6.376h-1.647v.431c0 .005-.002.007-.008.007h-.794v-.438h-1.52v-1.22c0-.012.014-.023.022-.03l.154-.167a.146.146 0 0 0 .013-.013.12.12 0 0 1 .012-.014l.09-.095v-.002l.027-.027.012-.014.029-.03.003-.004.096-.104c.02-.02.04-.04.06-.064h.001l.003-.005.065-.068.025-.027.078-.083.013-.013a.18.18 0 0 0 .011-.015l.131-.139.001-.001.003-.004.02-.02c.026-.033.072-.074.099-.107l.003-.004.027-.027.05-.055c.036-.036.067-.075.103-.11l.115-.124.013-.013.05-.056c.01-.01.02-.017.027-.027.008-.01.017-.017.026-.027l.05-.055a.066.066 0 0 0 .014-.015l.039-.041.026-.028c.023-.025.087-.09.101-.11.008-.01.018-.016.025-.026a.792.792 0 0 0-.065-.07l-.05-.056-.014-.013c-.005-.006-.006-.01-.012-.015-.04-.04-.076-.083-.116-.123l-.064-.07a.115.115 0 0 0-.013-.013l-.589-.632a.172.172 0 0 0-.013-.016l-.087-.093v-.002l-.194-.208-.012-.012-.052-.057c-.035-.036-.068-.075-.103-.11l-.011-.012-.002-.001-.037-.042-.053-.055c-.006-.006-.007-.01-.013-.015-.035-.036-.067-.074-.103-.109l-.012-.013c-.004-.005-.023-.023-.023-.028V9.048h1.52V8.54c.268 0 .533.005.8.005v.487c0 .006.001.008.007.008h1.643v1.235h-2.266c.013.02.034.037.05.056l.125.138.025.028c.021.026.046.047.067.073l.183.201c.036.035.067.075.1.11l.469.514.003.005.167.184.013.012c.023.023.041.049.064.071l.3.33c.013.013.027.025.037.04-.005.008-.008.01-.014.016a.141.141 0 0 1-.012.014l-.063.068a.13.13 0 0 1-.012.014l-.15.165c-.011.01-.016.018-.026.028-.02.02-.052.059-.076.082l-.105.117c-.021.025-.078.081-.095.103l-.15.163c-.032.04-.068.074-.101.113l-.062.066-.087.097-.014.014c-.034.04-.072.077-.107.118l-.005.006-.131.143-.003.003-.005.006-.001.001-.06.067a.106.106 0 0 0-.012.013.146.146 0 0 1-.013.013c-.026.026-.049.057-.075.082a.128.128 0 0 0-.012.014l-.05.056-.013.012-.15.165h2.204c.02 0 .063-.005.063.007v1.22-.001Z"/></g><defs><clipPath id="a"><path fill="#fff" d="M0 0h24v24H0z"/></clipPath></defs></svg>