<svg xmlns="http://www.w3.org/2000/svg" fill="none" viewBox="0 0 24 24"><path fill="currentColor" fill-rule="evenodd" d="M15.167 22H8.5A2.503 2.503 0 0 1 6 19.5v-15C6 3.12 7.122 2 8.5 2h6.667c1.378 0 2.5 1.12 2.5 2.5v15c0 1.378-1.122 2.5-2.5 2.5ZM16 4.5a.834.834 0 0 0-.833-.833H8.5a.834.834 0 0 0-.833.833v15c0 .46.374.833.833.833h6.667A.834.834 0 0 0 16 19.5v-15Zm-3.333 1.667H11A.833.833 0 1 1 11 4.5h1.667a.833.833 0 1 1 0 1.667Zm-.817 10.888h.008a.833.833 0 1 1 0 1.668.837.837 0 0 1-.837-.834.83.83 0 0 1 .829-.834Z" clip-rule="evenodd"/></svg>