<svg xmlns="http://www.w3.org/2000/svg" fill="none" viewBox="0 0 24 24"><path fill="#62757E" fill-rule="evenodd" d="M8.4 6a2.4 2.4 0 1 1-4.8 0 2.4 2.4 0 0 1 4.8 0m1.515.822A4.001 4.001 0 0 1 2 6a4 4 0 0 1 7.924-.778h2.841a4.035 4.035 0 1 1 0 8.069h-4.51a2.455 2.455 0 0 0 0 4.909h4.468v-1.436c0-.953.772-1.725 1.725-1.725h3.207v-1.416a2.65 2.65 0 1 1 5.298 0v.25a.8.8 0 0 1-1.6 0v-.25a1.05 1.05 0 1 0-2.098 0v1.487a1.725 1.725 0 0 1 1.233 1.654v3.486c0 .953-.773 1.725-1.725 1.725h-4.315a1.725 1.725 0 0 1-1.725-1.725v-.45H8.255a4.055 4.055 0 0 1 0-8.11h4.51a2.435 2.435 0 1 0 0-4.868zm4.533 9.817a.125.125 0 0 0-.125.125v3.486c0 .069.056.125.125.125h4.315a.125.125 0 0 0 .125-.125v-3.486a.125.125 0 0 0-.125-.125z" clip-rule="evenodd"/></svg>