<svg xmlns="http://www.w3.org/2000/svg" fill="none" viewBox="0 0 24 24"><path fill="currentColor" fill-rule="evenodd" d="M15.667 18c-2.298 0-4.167-1.876-4.167-4.182a.834.834 0 0 1 1.667 0 2.51 2.51 0 0 0 2.5 2.515 2.51 2.51 0 0 0 2.5-2.515 2.462 2.462 0 0 0-2.493-2.485h-.504l.242.234a.833.833 0 0 1-1.157 1.2l-1.656-1.598a.834.834 0 0 1-.024-1.175l1.655-1.736a.834.834 0 0 1 1.207 1.15l-.247.259h.484a4.16 4.16 0 0 1 4.16 4.151c0 2.306-1.87 4.182-4.167 4.182ZM9.94 18a.833.833 0 1 1 0 1.667.837.837 0 0 1-.837-.834.83.83 0 0 1 .83-.833h.007ZM8.25 6.333c0-.46.372-.833.833-.833h1.667a.833.833 0 1 1 0 1.667H9.083a.833.833 0 0 1-.833-.834Zm6.583.834A.833.833 0 0 1 14 6.333V5.5c0-.375-.384-.833-.833-.833H6.5a.834.834 0 0 0-.833.833v15c0 .46.374.833.833.833h6.667c.415 0 .833-.57.833-.833v-.833a.834.834 0 0 1 1.667 0v.833c0 1.132-1.115 2.5-2.5 2.5H6.5A2.503 2.503 0 0 1 4 20.5v-15C4 4.12 5.122 3 6.5 3h6.667c1.331 0 2.5 1.168 2.5 2.5v.833a.834.834 0 0 1-.834.834Z" clip-rule="evenodd"/></svg>