<svg xmlns="http://www.w3.org/2000/svg" fill="none" viewBox="0 0 24 24"><g clip-path="url(#a)"><path fill="#FEC60D" d="M12 24c6.627 0 12-5.373 12-12S18.627 0 12 0 0 5.373 0 12s5.373 12 12 12Z"/><path fill="#fff" d="m17.464 8.646-1.762-1.014-.176-.101c-.058-.033-.115-.07-.175-.104-.353-.201-.707-.397-1.056-.606l-1.673-.966c-.097-.06-.6-.355-.622-.355a.69.69 0 0 0-.086.05L9.628 6.866l-.09.053c-.03.016-.058.033-.086.05l-.175.102-.09.053-.173.1-.176.1-.355.203c-.03.016-.056.033-.086.05l-.442.256c-.062.036-.119.065-.179.1l-.35.206c-.175.1-.351.208-.53.304-.078.042-.49.293-.53.304v6.514c.033.003.483.271.53.299l.704.408.176.102.349.2c.03.016.056.033.087.05.034.019.056.035.09.051.09.047.176.101.261.153l.444.256.086.05c.173.104.353.198.525.302l.619.358c.408.242.825.466 1.23.71l.484.28c.077.052.105-.006.226-.073l1.058-.61.177-.101.173-.1c.03-.015.056-.032.085-.05l.971-.562c.29-.174.59-.33.88-.505l1.932-1.12c.029-.017.057-.034.087-.05.03-.017.06-.04.094-.047V8.747c-.054-.037-.111-.065-.17-.1Zm-3.479 6.376h-1.647v.431c0 .005-.002.007-.007.007h-.794v-.438h-1.522v-1.22c0-.012.016-.023.023-.03l.155-.167a.124.124 0 0 0 .012-.013.12.12 0 0 1 .012-.014l.09-.095v-.002l.028-.027.011-.014.029-.03.003-.004.096-.104c.02-.02.04-.04.06-.064h.001l.004-.005.064-.068.025-.027.078-.083.013-.013a.161.161 0 0 0 .012-.015l.13-.139.001-.001.003-.004.02-.02c.026-.033.072-.074.1-.107l.002-.004c.009-.01.019-.017.027-.027l.05-.055c.037-.036.067-.075.103-.11l.115-.124.013-.013.05-.056c.01-.01.02-.017.027-.027.008-.01.018-.017.026-.027l.05-.055.015-.015.038-.041.026-.028c.023-.025.087-.09.101-.11.008-.01.018-.016.025-.026a.791.791 0 0 0-.065-.07l-.05-.056-.013-.013c-.005-.006-.007-.01-.013-.015-.04-.04-.076-.083-.116-.123l-.064-.07a.115.115 0 0 0-.012-.013l-.59-.632a.156.156 0 0 0-.012-.016l-.087-.093-.001-.002-.194-.208-.012-.012-.051-.057c-.035-.036-.069-.075-.104-.11l-.011-.012-.001-.001-.038-.042-.053-.055c-.006-.006-.007-.01-.013-.015-.035-.036-.066-.074-.102-.109l-.013-.013c-.004-.005-.023-.023-.023-.028V9.048h1.521V8.54c.267 0 .532.005.8.005v.487c0 .006 0 .008.006.008h1.643v1.235h-2.266c.013.02.034.037.05.056l.126.138c.007.01.016.018.024.028.022.026.046.047.067.073l.183.201c.036.035.067.075.101.11l.468.514.003.005.168.184.012.012c.023.023.041.049.064.071l.301.33c.013.013.026.025.036.04-.005.008-.008.01-.014.016a.157.157 0 0 1-.012.014l-.063.068a.13.13 0 0 1-.011.014l-.152.165-.025.028c-.02.02-.051.059-.075.082l-.106.117c-.021.025-.077.081-.094.103l-.15.163c-.033.04-.07.074-.102.113l-.061.066c-.031.032-.058.065-.087.097-.005.005-.01.008-.014.014-.035.04-.073.077-.107.118l-.006.006-.131.143-.003.003-.005.006v.001l-.061.067a.114.114 0 0 0-.012.013.124.124 0 0 1-.013.013c-.026.026-.049.057-.075.082a.156.156 0 0 0-.011.014l-.05.056-.014.012-.15.165h2.204c.021 0 .063-.005.063.007v1.22-.001Z"/></g><defs><clipPath id="a"><path fill="#fff" d="M0 0h24v24H0z"/></clipPath></defs></svg>