<svg xmlns="http://www.w3.org/2000/svg" fill="none" viewBox="0 0 24 24"><g clip-path="url(#a)"><path fill="#B30D23" d="M12 24c6.627 0 12-5.373 12-12S18.627 0 12 0 0 5.373 0 12s5.373 12 12 12Z"/><path fill="#fff" d="M12.594 15.027 12 16.134l-.594-1.107C7.817 14.75 5 12.073 5 12.073c0-.007 2.737-2.6 6.253-2.941l.465-.797.282-.469.478.797.27.469c3.514.335 6.252 2.94 6.252 2.94s-2.818 2.677-6.406 2.956Zm-7-2.954c-.006 0 2.707 1.854 5.432 2.246l-1.329-2.487.361-.626.332.62-.007.006 1.293 2.544c.103.006.207.006.312.006.104 0 .202 0 .306-.006l.95-1.892.691-1.29.361.626-1.328 2.492c2.725-.385 5.437-2.194 5.437-2.245 0-.045-2.583-1.771-5.242-2.214l.405.702-.337.676-.876-1.467A6.682 6.682 0 0 0 12 9.75c-.117 0-.239.007-.361.013l-.895 1.467-.33-.645.422-.727c-2.658.45-5.242 2.214-5.242 2.214Z"/></g><defs><clipPath id="a"><path fill="#fff" d="M0 0h24v24H0z"/></clipPath></defs></svg>