<svg xmlns="http://www.w3.org/2000/svg" fill="none" viewBox="0 0 24 24"><g clip-path="url(#a)"><path fill="#B30D23" d="M12 24c6.627 0 12-5.373 12-12S18.627 0 12 0 0 5.373 0 12s5.373 12 12 12"/><path fill="#fff" d="M12.594 15.027 12 16.134l-.594-1.107C7.817 14.75 5 12.073 5 12.073c0-.007 2.737-2.6 6.253-2.942l.465-.796.282-.469.478.797.27.468C16.261 9.467 19 12.073 19 12.073s-2.818 2.676-6.406 2.954m-7-2.954c-.006 0 2.707 1.854 5.432 2.246l-1.329-2.487.361-.626.332.62-.007.006 1.293 2.544q.155.007.312.006c.104 0 .202 0 .306-.006l.95-1.892.691-1.29.361.626-1.328 2.492c2.725-.385 5.437-2.195 5.437-2.246 0-.044-2.583-1.77-5.242-2.214l.405.703-.337.676-.876-1.467A7 7 0 0 0 12 9.75q-.177.001-.361.013l-.895 1.467-.33-.645.422-.727c-2.658.45-5.242 2.214-5.242 2.214"/></g><defs><clipPath id="a"><path fill="#fff" d="M0 0h24v24H0z"/></clipPath></defs></svg>