<svg xmlns="http://www.w3.org/2000/svg" fill="none" viewBox="0 0 24 24"><g clip-path="url(#a)"><path fill="#0B1C26" d="M12 24c6.627 0 12-5.373 12-12S18.627 0 12 0 0 5.373 0 12s5.373 12 12 12Z"/><path fill="#fff" d="M12 18.5c-3.586-.01-6.5-2.92-6.5-6.5S8.414 5.51 12 5.5c3.586.01 6.5 2.92 6.5 6.5s-2.914 6.493-6.5 6.5Zm5.764-5.466a.659.659 0 0 1-.854.348 1.32 1.32 0 0 1 .338 1.213 5.933 5.933 0 0 0 .516-1.56Zm-.602.065a.327.327 0 1 0-.001 0Zm.146-3.561a2.727 2.727 0 0 1-.488 2.68.652.652 0 0 1 .988.501 5.72 5.72 0 0 0-.5-3.182Zm-.333.912a2.26 2.26 0 0 0-4.523 0 2.26 2.26 0 0 0 4.523 0Zm-2.351 3.849c0-.49.271-.942.707-1.17a2.752 2.752 0 0 1-1.655-.13c.447.342.777.814.948 1.35.003-.022 0-.036 0-.05Zm.129.873c0 .217-.027.433-.08.644a.634.634 0 0 1 .568-.35c.034 0 .068.003.1.01a1.337 1.337 0 0 1-.617-.662c.019.119.028.238.029.358Zm1.198-.04a.839.839 0 0 0 .84-.833.837.837 0 0 0-.84-.834.835.835 0 0 0-.836.833c0 .462.377.834.837.834Zm.553-2.354a.671.671 0 0 1 .083-.316c-.239.22-.513.398-.812.526.058-.006.115-.014.176-.014.24 0 .474.064.679.187a.644.644 0 0 1-.125-.384h-.001Zm-4.505-.355c.355 0 .706.068 1.034.2A2.73 2.73 0 0 1 12 10.898a2.737 2.737 0 0 1-1.033 1.725c.329-.13.68-.199 1.034-.2Zm0-3.648c-.25 0-.495-.07-.706-.203.372.393.619.889.707 1.423a2.75 2.75 0 0 1 .707-1.424 1.318 1.318 0 0 1-.707.204Zm1.343-1.338c0 .3-.101.59-.287.827.279-.21.596-.367.933-.458-.014 0-.025.003-.036.003a.656.656 0 0 1-.61-.415c-.003.014 0 .029 0 .043Zm1.02-.79a.65.65 0 0 1 .243.504.653.653 0 0 1-.39.597 2.757 2.757 0 0 1 2.597.924 5.932 5.932 0 0 0-2.45-2.026Zm-.413.182a.326.326 0 1 0-.002.654.326.326 0 0 0 .002-.655Zm-1.544-.67a1.337 1.337 0 0 1 .89.942.652.652 0 0 1 .65-.605.35.35 0 0 1 .065.007 5.934 5.934 0 0 0-1.605-.344Zm-1.252 1.278a.848.848 0 0 0 1.694 0 .847.847 0 0 0-1.694 0Zm-1.166-.934a.397.397 0 0 1 .064-.007.65.65 0 0 1 .65.605 1.337 1.337 0 0 1 .89-.942 5.955 5.955 0 0 0-1.604.344Zm.67.934c0-.014.001-.029.004-.043a.657.657 0 0 1-.61.415c-.015 0-.025-.003-.036-.003.337.092.654.248.934.458a1.317 1.317 0 0 1-.291-.827Zm-.933-.283a.326.326 0 1 0 .653 0 .326.326 0 0 0-.653 0ZM7.187 8.676a2.746 2.746 0 0 1 2.598-.924.65.65 0 0 1-.147-1.103 5.878 5.878 0 0 0-2.45 2.027Zm-.162 1.775a2.26 2.26 0 0 0 3.859 1.595 2.26 2.26 0 0 0 .664-1.595 2.26 2.26 0 0 0-4.523 0Zm2.351 3.848-.003.046a2.764 2.764 0 0 1 .947-1.35 2.752 2.752 0 0 1-1.655.13 1.33 1.33 0 0 1 .711 1.174Zm-1.88-1.522a.622.622 0 0 1-.13.383 1.32 1.32 0 0 1 .855-.171 2.703 2.703 0 0 1-.812-.526.612.612 0 0 1 .087.314Zm-.288 1.522a.836.836 0 1 0 1.673 0 .836.836 0 0 0-1.673 0Zm1.447 1.177c.032-.003.065-.01.1-.01.24 0 .46.135.568.35a2.73 2.73 0 0 1-.054-1.006c-.12.287-.337.523-.614.666Zm-2.466-2.76a.655.655 0 0 1 .65-.597c.119 0 .236.034.337.097a2.727 2.727 0 0 1-.488-2.681 5.785 5.785 0 0 0-.499 3.181Zm.65-.264a.324.324 0 0 0-.327.325.326.326 0 1 0 .327-.325Zm-.122 1.847c0-.343.134-.672.373-.916a.66.66 0 0 1-.854-.348 5.8 5.8 0 0 0 .517 1.56 1.334 1.334 0 0 1-.036-.296Zm1.68 1.277a1.328 1.328 0 0 1-1.253-.308c.313.463.69.878 1.12 1.235a.632.632 0 0 1-.147-.4c0-.211.105-.408.28-.526Zm.05.526a.308.308 0 1 0 .617 0 .308.308 0 0 0-.617 0Zm2.76 1.7a2.76 2.76 0 0 1-1.816-1.757c0 .018.007.036.007.058a.638.638 0 0 1-.915.573c.797.602 1.735.99 2.724 1.127Zm3.05-2.63a2.257 2.257 0 0 0-4.514 0A2.26 2.26 0 0 0 12 17.426a2.261 2.261 0 0 0 2.257-2.255v.001Zm1.264 1.503a.638.638 0 0 1-.915-.572c0-.02.003-.039.007-.058a2.762 2.762 0 0 1-1.816 1.758 5.89 5.89 0 0 0 2.724-1.128Zm.033-.573Zm1.302-.833a1.325 1.325 0 0 1-1.253.307.63.63 0 0 1 .133.927c.43-.356.807-.772 1.12-1.235Z"/></g><defs><clipPath id="a"><path fill="#fff" d="M0 0h24v24H0z"/></clipPath></defs></svg>