<svg xmlns="http://www.w3.org/2000/svg" fill="none" viewBox="0 0 24 24"><g clip-path="url(#a)"><path fill="#0B1C26" d="M12 24c6.627 0 12-5.373 12-12S18.627 0 12 0 0 5.373 0 12s5.373 12 12 12"/><path fill="#fff" d="M12 18.5c-3.586-.01-6.5-2.92-6.5-6.5S8.414 5.51 12 5.5c3.586.01 6.5 2.92 6.5 6.5s-2.914 6.493-6.5 6.5m5.764-5.466a.66.66 0 0 1-.854.348c.23.24.373.562.373.915q-.002.154-.035.298a6 6 0 0 0 .516-1.56m-.602.065a.327.327 0 1 0-.001 0m.146-3.561a2.73 2.73 0 0 1-.488 2.68.652.652 0 0 1 .988.501 5.7 5.7 0 0 0-.5-3.182m-.333.912a2.26 2.26 0 0 0-4.523 0 2.26 2.26 0 0 0 4.523 0m-2.351 3.849c0-.49.271-.942.707-1.17a2.75 2.75 0 0 1-1.655-.13c.447.342.777.814.948 1.35.003-.022 0-.036 0-.05m.129.873q0 .326-.08.644a.63.63 0 0 1 .568-.35q.052 0 .1.01a1.34 1.34 0 0 1-.617-.662q.028.178.029.358m1.198-.04a.84.84 0 0 0 .84-.833.837.837 0 0 0-.84-.834.835.835 0 0 0-.836.833c0 .462.377.834.837.834m.553-2.354a.7.7 0 0 1 .083-.316c-.239.22-.513.398-.812.526.058-.006.115-.014.176-.014.24 0 .474.064.679.187a.64.64 0 0 1-.125-.384zm-4.505-.355c.355 0 .706.068 1.034.2A2.73 2.73 0 0 1 12 10.898a2.74 2.74 0 0 1-1.033 1.725c.329-.13.68-.199 1.034-.2m0-3.648c-.25 0-.495-.07-.706-.203.372.393.619.889.707 1.423a2.75 2.75 0 0 1 .707-1.424 1.3 1.3 0 0 1-.707.204m1.343-1.338c0 .3-.101.59-.287.827.279-.21.596-.367.933-.458l-.036.003a.66.66 0 0 1-.61-.415c-.003.014 0 .029 0 .043m1.02-.79a.65.65 0 0 1 .243.504.65.65 0 0 1-.39.597 2.76 2.76 0 0 1 2.597.924 5.93 5.93 0 0 0-2.45-2.026m-.413.182a.326.326 0 1 0-.002.654.326.326 0 0 0 .002-.655m-1.544-.67a1.34 1.34 0 0 1 .89.942.65.65 0 0 1 .65-.605q.033 0 .065.007a6 6 0 0 0-1.605-.344m-1.252 1.278a.848.848 0 0 0 1.694 0 .847.847 0 0 0-1.694 0M9.99 6.501a.4.4 0 0 1 .064-.007.65.65 0 0 1 .65.605 1.34 1.34 0 0 1 .89-.942 6 6 0 0 0-1.604.344m.67.934q0-.022.004-.043a.66.66 0 0 1-.61.415l-.036-.003c.337.092.654.248.934.458a1.32 1.32 0 0 1-.291-.827m-.933-.283a.326.326 0 1 0 .653 0 .326.326 0 0 0-.653 0M7.187 8.676a2.75 2.75 0 0 1 2.598-.924.65.65 0 0 1-.147-1.103 5.9 5.9 0 0 0-2.45 2.027m-.162 1.775a2.26 2.26 0 0 0 3.859 1.595 2.26 2.26 0 0 0 .664-1.595 2.26 2.26 0 0 0-4.523 0m2.351 3.848-.003.046a2.76 2.76 0 0 1 .947-1.35 2.75 2.75 0 0 1-1.655.13 1.33 1.33 0 0 1 .711 1.174m-1.88-1.522a.62.62 0 0 1-.13.383 1.32 1.32 0 0 1 .855-.171 2.7 2.7 0 0 1-.812-.526.6.6 0 0 1 .087.314m-.288 1.522a.836.836 0 1 0 1.673 0 .836.836 0 0 0-1.673 0m1.447 1.177c.032-.003.065-.01.1-.01.24 0 .46.135.568.35a2.7 2.7 0 0 1-.054-1.006c-.12.287-.337.523-.614.666m-2.466-2.76a.655.655 0 0 1 .65-.597c.119 0 .236.034.337.097a2.73 2.73 0 0 1-.488-2.681 5.8 5.8 0 0 0-.499 3.181m.65-.264a.324.324 0 0 0-.327.325.326.326 0 1 0 .327-.325m-.122 1.847c0-.343.134-.672.373-.916a.66.66 0 0 1-.854-.348 5.8 5.8 0 0 0 .517 1.56 1.3 1.3 0 0 1-.036-.296m1.68 1.277a1.33 1.33 0 0 1-1.253-.308c.313.463.69.878 1.12 1.235a.63.63 0 0 1-.147-.4c0-.211.105-.408.28-.526m.05.526a.308.308 0 1 0 .617 0 .308.308 0 0 0-.617 0m2.76 1.7a2.76 2.76 0 0 1-1.816-1.757c0 .018.007.036.007.058a.638.638 0 0 1-.915.573c.797.602 1.735.99 2.724 1.127m3.05-2.63a2.257 2.257 0 0 0-4.514 0A2.26 2.26 0 0 0 12 17.426a2.26 2.26 0 0 0 2.257-2.255zm1.264 1.503a.638.638 0 0 1-.915-.572q0-.03.007-.058a2.76 2.76 0 0 1-1.816 1.758 5.9 5.9 0 0 0 2.724-1.128m1.335-1.406a1.33 1.33 0 0 1-1.253.307.63.63 0 0 1 .133.927c.43-.356.807-.772 1.12-1.235"/></g><defs><clipPath id="a"><path fill="#fff" d="M0 0h24v24H0z"/></clipPath></defs></svg>