<svg xmlns="http://www.w3.org/2000/svg" fill="none" viewBox="0 0 24 24"><g clip-path="url(#a)"><path fill="#5B6DEE" d="M12 24c6.627 0 12-5.373 12-12S18.627 0 12 0 0 5.373 0 12s5.373 12 12 12"/><path fill="#fff" d="M10.02 11.281a6.7 6.7 0 0 0-1.22.106C9.13 8.322 11.686 6 14.728 6c1.862 0 3.138.912 3.138 2.8s-1.532 2.8-3.766 2.8c-1.65 0-2.43-.318-4.08-.318M9.9 12.4c-2.235 0-3.767.913-3.767 2.8 0 1.888 1.276 2.8 3.139 2.8 3.042 0 5.597-2.32 5.928-5.387a6.7 6.7 0 0 1-1.22.106c-1.65 0-2.431-.32-4.08-.32"/></g><defs><clipPath id="a"><path fill="#fff" d="M0 0h24v24H0z"/></clipPath></defs></svg>