<svg xmlns="http://www.w3.org/2000/svg" fill="none" viewBox="0 0 24 24"><g clip-path="url(#a)"><path fill="url(#b)" d="M12 24c6.627 0 12-5.373 12-12S18.627 0 12 0 0 5.373 0 12s5.373 12 12 12"/><path fill="#00D1FF" d="M8.642 9.551a.43.43 0 0 0-.338-.157H5.581a.1.1 0 0 1-.059-.023.07.07 0 0 1-.022-.05V7.486a.07.07 0 0 1 .022-.05.07.07 0 0 1 .06-.023h2.877q1.088.001 1.88.89l.7.855-1.363 1.66zm5.03-1.256q.788-.881 1.888-.882h2.869q.032-.003.053.017.022.021.017.056V9.32q0 .03-.017.05a.06.06 0 0 1-.053.023h-2.723a.43.43 0 0 0-.337.157l-2.006 2.442 2.014 2.459a.43.43 0 0 0 .326.146h2.723a.06.06 0 0 1 .054.022.1.1 0 0 1 .017.06v1.834q0 .03-.017.051a.06.06 0 0 1-.054.022H15.56c-.733 0-1.357-.297-1.88-.89l-1.67-2.038-1.668 2.038q-.788.89-1.889.89H5.581a.06.06 0 0 1-.053-.022.08.08 0 0 1-.017-.059V14.67q0-.03.017-.05a.06.06 0 0 1 .053-.023h2.723c.13 0 .253-.06.338-.157l1.97-2.406z"/></g><defs><linearGradient id="b" x1="12.002" x2="12.002" y1="0" y2="6.351" gradientUnits="userSpaceOnUse"><stop stop-color="#090220"/><stop offset="1" stop-color="#170659"/></linearGradient><clipPath id="a"><path fill="#fff" d="M0 0h24v24H0z"/></clipPath></defs></svg>