<svg xmlns="http://www.w3.org/2000/svg" fill="none" viewBox="0 0 24 24"><g clip-path="url(#a)"><path fill="#199248" d="M12 24c6.627 0 12-5.373 12-12S18.627 0 12 0 0 5.373 0 12s5.373 12 12 12"/><path fill="#fff" d="M12 5.5a6.5 6.5 0 1 0 0 13 6.5 6.5 0 0 0 0-13m1.486 12.045a5.74 5.74 0 1 1-2.49-11.196 5.74 5.74 0 0 1 2.49 11.196"/><path fill="#fff" d="M13.587 7.28c0 .28 0 .56.01.84a5.3 5.3 0 0 0-1.162-.304c-.016-.254.057-.533-.017-.774a7 7 0 0 0-.852-.01 9 9 0 0 0 0 .785c-.398.06-.788.164-1.162.31q.012-.423.007-.848a4.983 4.983 0 0 0 0 9.446q0-.415-.008-.83c.371.146.76.246 1.155.298 0 .254 0 .508-.015.759q.456.064.914 0-.02-.375-.022-.751a5.5 5.5 0 0 0 1.16-.295 13 13 0 0 0 0 .823 4.983 4.983 0 0 0-.006-9.445zm.742 7.549c-.654.593-1.584.733-2.437.72-.75 0-1.542-.202-2.084-.745-.287-.277-.45-.648-.595-1.015.523-.136 1.063-.181 1.59-.294a.92.92 0 0 0 .617.692c.478.15 1.07.17 1.47-.17.282-.235.29-.748-.06-.924-.822-.425-1.846-.28-2.622-.818-1.07-.674-1.15-2.463-.102-3.19.8-.562 1.87-.632 2.8-.407.839.212 1.437.924 1.725 1.712q-.774.136-1.55.268c-.135-.82-1.284-1.015-1.855-.537-.325.27-.242.846.165.99.888.369 1.955.262 2.742.879.914.62 1.01 2.1.196 2.838"/></g><defs><clipPath id="a"><path fill="#fff" d="M0 0h24v24H0z"/></clipPath></defs></svg>