<svg xmlns="http://www.w3.org/2000/svg" fill="none" viewBox="0 0 24 24"><path fill="url(#a)" fill-rule="evenodd" d="m21.485 5.745.562-1.378s-.716-.766-1.585-1.634c-.869-.868-2.71-.358-2.71-.358L15.658 0H8.296L6.198 2.375s-1.84-.51-2.71.358a75.717 75.717 0 0 0-1.584 1.634l.562 1.378-.715 2.043s2.105 7.964 2.351 8.936c.486 1.915.818 2.655 2.198 3.626 1.38.97 3.886 2.655 4.295 2.91.409.256.92.69 1.38.69.46 0 .971-.434 1.38-.69.41-.255 2.914-1.94 4.294-2.91 1.38-.97 1.713-1.71 2.199-3.626.246-.972 2.351-8.936 2.351-8.936l-.715-2.043Z" clip-rule="evenodd"/><path fill="#fff" d="M14.583 4.316c.307 0 2.582-.434 2.582-.434s2.696 3.255 2.696 3.95c0 .576-.232.801-.505 1.066a5.582 5.582 0 0 0-.176.176l-2.02 2.144-.067.067c-.202.203-.499.501-.29.997l.044.1c.23.538.514 1.2.152 1.872-.384.715-1.042 1.192-1.464 1.113-.421-.079-1.412-.596-1.776-.832-.364-.236-1.519-1.187-1.519-1.551 0-.304.83-.809 1.234-1.054.08-.049.143-.087.18-.112.041-.028.111-.071.197-.124.368-.229 1.033-.641 1.05-.824.02-.226.012-.292-.284-.85a11.892 11.892 0 0 0-.214-.376c-.282-.485-.599-1.03-.529-1.419.08-.44.77-.692 1.353-.905l.213-.079.609-.228c.583-.218 1.232-.46 1.338-.51.148-.068.11-.133-.338-.175l-.218-.023c-.555-.059-1.578-.167-2.075-.029l-.323.088c-.559.151-1.243.337-1.31.443-.01.02-.022.035-.033.05-.063.09-.104.148-.034.528.02.113.063.335.116.61.154.806.395 2.062.425 2.344l.014.115c.038.314.064.524-.302.608l-.096.022c-.413.094-1.018.233-1.237.233-.219 0-.825-.139-1.238-.234a27.77 27.77 0 0 1-.095-.021c-.367-.084-.34-.293-.302-.608l.013-.115c.03-.282.272-1.542.427-2.347l.115-.607c.07-.38.028-.438-.034-.528a.928.928 0 0 1-.034-.05c-.066-.106-.75-.292-1.31-.443a47.3 47.3 0 0 1-.322-.088c-.498-.138-1.52-.03-2.075.03l-.218.022c-.448.042-.487.107-.339.175.107.05.755.292 1.338.51l.61.228.212.079c.585.213 1.274.466 1.354.905.07.39-.247.934-.53 1.42-.076.13-.15.257-.213.376-.296.557-.304.623-.284.849.017.183.681.595 1.05.824.085.053.155.096.197.124.036.025.1.063.18.112.403.245 1.234.75 1.234 1.054 0 .364-1.155 1.315-1.519 1.55-.364.237-1.355.754-1.776.833-.422.079-1.08-.398-1.465-1.113-.36-.671-.077-1.334.153-1.871l.043-.101c.21-.496-.088-.794-.29-.997a3.683 3.683 0 0 1-.065-.067L4.77 9.074c-.059-.063-.118-.12-.175-.176-.273-.265-.505-.49-.505-1.065 0-.696 2.696-3.951 2.696-3.951s2.275.434 2.582.434c.244 0 .717-.163 1.21-.332.124-.043.25-.087.374-.128.614-.204 1.023-.206 1.023-.206s.409.002 1.022.206c.124.041.25.085.375.128.493.17.965.332 1.21.332Z"/><path fill="#fff" d="M14.193 15.83c.48.248.822.423.95.504.167.104.066.301-.086.408-.152.108-2.195 1.688-2.393 1.863l-.08.071c-.192.172-.435.392-.608.392s-.417-.22-.608-.392a8.888 8.888 0 0 0-.08-.071 123.643 123.643 0 0 0-2.393-1.863c-.152-.107-.254-.304-.087-.408.13-.08.47-.257.952-.504l.458-.236c.72-.372 1.618-.69 1.758-.69.14 0 1.038.318 1.758.69l.459.236Z"/><path fill="url(#b)" fill-rule="evenodd" d="M17.753 2.375 15.657 0H8.296L6.198 2.375s-1.84-.51-2.71.358c0 0 2.455-.222 3.298 1.149 0 0 2.275.434 2.582.434.306 0 .971-.256 1.585-.46.613-.204 1.022-.206 1.022-.206s.409.002 1.022.206c.614.204 1.278.46 1.585.46.307 0 2.582-.434 2.582-.434.843-1.37 3.297-1.15 3.297-1.15-.869-.867-2.71-.357-2.71-.357Z" clip-rule="evenodd"/><defs><linearGradient id="a" x1="1.752" x2="22.2" y1="24.119" y2="24.119" gradientUnits="userSpaceOnUse"><stop stop-color="#F50"/><stop offset=".333" stop-color="#F50"/><stop offset=".667" stop-color="#FF2000"/><stop offset="1" stop-color="#FF2000"/></linearGradient><linearGradient id="b" x1="3.49" x2="20.462" y1="4.346" y2="4.346" gradientUnits="userSpaceOnUse"><stop stop-color="#F50"/><stop offset=".333" stop-color="#F50"/><stop offset=".667" stop-color="#FF2000"/><stop offset="1" stop-color="#FF2000"/></linearGradient></defs></svg>