<svg xmlns="http://www.w3.org/2000/svg" fill="none" viewBox="0 0 24 24"><path fill="#464649" fill-rule="evenodd" d="M12.006 0c.25.007.973.057 1.876.364.47.158 1.16.419 1.551.515l3.922-.714.104-.018.065.08c1.935 2.39 3.051 4.024 3.684 5.12.316.549.512.966.63 1.276.118.307.162.522.162.663 0 1.476-.737 2.21-1.16 2.63l-.018.019-.005.002-.016.016-.093.098c-.08.084-.191.204-.324.347-.265.285-.615.665-.966 1.047-.577.627-1.17 1.27-1.39 1.505.303.742.842 2.168.038 3.71-.5.948-1.277 1.734-2.12 2.13.017.692-.335 1.351-.928 1.781-.275.205-2.755 2.17-2.992 2.38C13.34 23.63 12.682 24 12 24s-1.34-.371-2.026-1.05c-.24-.211-2.714-2.172-2.991-2.379l-.223-.182c-.458-.423-.72-.998-.705-1.6-.733-.343-1.416-.98-1.91-1.765l-.21-.363c-.805-1.543-.267-2.969.037-3.71-.22-.237-.812-.88-1.389-1.506a365 365 0 0 0-1.29-1.394L1.2 9.953l-.018-.017-.003-.001-.018-.019C.738 9.496 0 8.761 0 7.286c0-.141.045-.356.162-.663a9 9 0 0 1 .632-1.275C1.426 4.25 2.542 2.616 4.477.228l.065-.081.103.018L8.567.88C8.959.783 9.648.522 10.119.364A6.7 6.7 0 0 1 11.995 0zM12 16.544c-.682.666-1.898 1.532-4.104 2.333q.006.023.019.051c.03.056.083.112.14.154.193.14 2.864 2.25 3.139 2.498.14.127.293.274.45.396.077.06.15.11.214.142a.34.34 0 0 0 .142.045c.03 0 .077-.011.143-.045q.097-.05.214-.14c.156-.122.309-.271.45-.398.275-.248 2.95-2.361 3.139-2.498a.5.5 0 0 0 .14-.154c.01-.018.013-.036.018-.05-2.206-.802-3.422-1.668-4.104-2.334m-.004-14.707c-.093.003-.596.032-1.29.268-.296.099-.741.262-1.122.388a8 8 0 0 1-.557.165 1.8 1.8 0 0 1-.438.067h-.004c-.118 0-.392-.039-.715-.092a63 63 0 0 1-1.144-.2c-.624-.115-1.22-.23-1.456-.275a65 65 0 0 0-1.756 2.288A26 26 0 0 0 2.34 6.173a7 7 0 0 0-.377.694c-.093.203-.133.343-.134.421.002.44.102.699.245.906.075.107.164.205.267.31l.34.345 2.641 2.866c.142.152.354.347.48.59.134.263.171.579.014.978v.003c-.333.806-.72 1.629-.261 2.52.214.406.505.763.81 1.019.295.248.585.383.815.398.84-.31 1.727-.712 2.455-1.138.37-.216.696-.437.953-.653.244-.204.415-.397.51-.569l.004-1.568-2.527-.66-.145-.037.013-.15.395-4.39a.79.79 0 0 0-.62-.842l-2.981-.56-.268-.051.155-.225.893-1.285L6.083 5l4.588.895.157.03-.014.16-.464 5.165.15.043.63.186.869.256.868-.256.63-.186.15-.043-.463-5.166-.015-.159.158-.03L17.914 5l.067.095.891 1.285.157.225-.268.05-2.981.56a.79.79 0 0 0-.62.842l.394 4.391.014.15-.145.037-2.528.66.003 1.568c.095.172.267.365.512.57.257.215.583.436.952.652.729.426 1.615.828 2.453 1.138.231-.015.522-.15.818-.398a3.5 3.5 0 0 0 .81-1.02c.46-.89.072-1.713-.26-2.519l-.002-.003c-.157-.4-.12-.714.015-.977.125-.244.337-.44.478-.591l2.367-2.567h-.006l.277-.298c.118-.127.24-.244.34-.346a2.4 2.4 0 0 0 .266-.31c.143-.207.243-.466.245-.906l-.008-.07a1.7 1.7 0 0 0-.125-.351 7 7 0 0 0-.377-.693 26 26 0 0 0-1.174-1.727c-.755-1.035-1.526-2-1.759-2.29-.236.046-.83.162-1.453.276-.398.072-.808.146-1.144.2-.324.053-.598.09-.716.092h-.004a1.8 1.8 0 0 1-.437-.067 8 8 0 0 1-.557-.165c-.38-.126-.825-.29-1.12-.388-.693-.236-1.197-.265-1.293-.268" clip-rule="evenodd"/></svg>