<svg xmlns="http://www.w3.org/2000/svg" fill="none" viewBox="0 0 24 24"><path fill="#3A76F0" d="m9.12.35.27 1.092a10.845 10.845 0 0 0-3.015 1.247l-.577-.964A11.956 11.956 0 0 1 9.12.35Zm5.76 0-.27 1.092c1.062.26 2.079.681 3.015 1.247l.581-.964A11.956 11.956 0 0 0 14.88.35ZM1.725 5.798A11.954 11.954 0 0 0 .351 9.119l1.09.27A10.844 10.844 0 0 1 2.69 6.375l-.964-.578ZM1.125 12c0-.545.04-1.09.122-1.63l-1.112-.168a12.04 12.04 0 0 0 0 3.596l1.112-.169A10.854 10.854 0 0 1 1.125 12Zm17.078 10.274-.578-.963c-.935.565-1.95.985-3.011 1.246l.27 1.091a11.954 11.954 0 0 0 3.319-1.374ZM22.875 12c0 .545-.04 1.09-.122 1.63l1.112.168a12.04 12.04 0 0 0 0-3.596l-1.112.169c.082.54.122 1.084.122 1.63Zm.774 2.88-1.09-.27a10.846 10.846 0 0 1-1.248 3.015l.964.58a11.952 11.952 0 0 0 1.374-3.325Zm-10.02 7.874c-1.08.163-2.178.163-3.258 0l-.17 1.112c1.193.18 2.405.18 3.597 0l-.169-1.112Zm7.125-4.303a10.914 10.914 0 0 1-2.304 2.303l.668.905a12.019 12.019 0 0 0 2.542-2.535l-.906-.673ZM18.45 3.245c.88.649 1.656 1.426 2.304 2.305l.906-.675a12.018 12.018 0 0 0-2.535-2.535l-.675.905ZM3.246 5.55A10.914 10.914 0 0 1 5.55 3.245l-.675-.905A12.019 12.019 0 0 0 2.34 4.875l.906.675Zm19.029.247-.964.578c.565.935.986 1.95 1.247 3.01l1.091-.27a11.953 11.953 0 0 0-1.374-3.318Zm-11.904-4.55a10.953 10.953 0 0 1 3.258 0L13.8.135a12.044 12.044 0 0 0-3.597 0l.169 1.112Zm-6.548 20.71-2.323.541.542-2.323-1.095-.257-.542 2.323a1.125 1.125 0 0 0 1.352 1.352l2.321-.532-.255-1.105Zm-2.642-3.042 1.095.255.375-1.61a10.828 10.828 0 0 1-1.21-2.951l-1.09.27a11.87 11.87 0 0 0 1.106 2.851l-.276 1.185Zm5.25 2.438-1.61.375.255 1.095 1.185-.276c.899.49 1.857.861 2.852 1.106l.27-1.091a10.829 10.829 0 0 1-2.944-1.217l-.008.008ZM12 2.25a9.75 9.75 0 0 0-8.25 14.937l-.938 3.999 4-.938A9.75 9.75 0 0 0 21.21 8.778 9.75 9.75 0 0 0 12 2.25Z"/></svg>