<svg xmlns="http://www.w3.org/2000/svg" fill="none" viewBox="0 0 24 24"><path fill="url(#a)" d="M19.799 15.598a.7.7 0 0 1 .678.53l.243.967a2.45 2.45 0 0 0 1.783 1.783l.967.241a.701.701 0 0 1 0 1.36l-.967.24a2.45 2.45 0 0 0-1.783 1.784l-.242.967a.7.7 0 0 1-1.359 0l-.241-.967a2.45 2.45 0 0 0-1.783-1.783l-.967-.241a.7.7 0 0 1 0-1.36l.967-.241a2.45 2.45 0 0 0 1.783-1.783l.241-.967a.7.7 0 0 1 .68-.53M11.219 0a2.68 2.68 0 0 1 2.601 2.031l.59 2.358a5 5 0 0 0 3.639 3.638l2.357.59a2.682 2.682 0 0 1 0 5.203l-2.357.59a5 5 0 0 0-3.639 3.639l-.59 2.357a2.682 2.682 0 0 1-5.203 0l-.59-2.357A5 5 0 0 0 4.39 14.41l-2.358-.59a2.682 2.682 0 0 1 0-5.203l2.358-.59A5 5 0 0 0 8.027 4.39l.59-2.358A2.68 2.68 0 0 1 11.22 0m0 1.95a.73.73 0 0 0-.711.554l-.59 2.357a6.95 6.95 0 0 1-5.057 5.057l-2.357.59a.733.733 0 0 0 0 1.422l2.357.59a6.95 6.95 0 0 1 5.057 5.056l.59 2.358a.733.733 0 0 0 1.422 0l.59-2.358a6.95 6.95 0 0 1 5.056-5.056l2.358-.59a.733.733 0 0 0 0-1.422l-2.358-.59a6.95 6.95 0 0 1-5.056-5.057l-.59-2.357a.73.73 0 0 0-.711-.555"/><defs><linearGradient id="a" x1="22.753" x2="-.022" y1="22.341" y2=".023" gradientUnits="userSpaceOnUse"><stop offset=".026" stop-color="#fa7250"/><stop offset=".401" stop-color="#ff1893"/><stop offset=".995" stop-color="#a78aff"/></linearGradient></defs></svg>