<svg xmlns="http://www.w3.org/2000/svg" fill="none" viewBox="0 0 24 24"><path fill="#FFABE7" d="M12 24c6.627 0 12-5.373 12-12S18.627 0 12 0 0 5.373 0 12s5.373 12 12 12"/><path fill="#B8509A" fill-rule="evenodd" d="M12 2.25c-5.386 0-9.75 4.367-9.75 9.748 0 5.115 3.946 9.314 8.96 9.717v.035H12c5.386 0 9.75-4.367 9.75-9.748S17.386 2.25 12 2.25m2.155 17.631a8.2 8.2 0 0 1-1.912.284H12a8.1 8.1 0 0 1-3.109-.613c.928-3.344 3.444-5.739 6.323-6.809.497 2.408.137 4.989-1.06 7.138m.62-8.661c-3.286 1.183-6.156 3.85-7.309 7.571a8.16 8.16 0 0 1-3.634-6.793c0-1.004.181-1.966.513-2.854.989.492 2.046.84 3.134 1.035a11.7 11.7 0 0 0 4.185-.004 11.4 11.4 0 0 0 2.29-.67c.327.545.603 1.12.822 1.715m1.964 1.088a12.15 12.15 0 0 1-.427 6.63 8.16 8.16 0 0 0 3.852-6.683 9.1 9.1 0 0 0-3.425.053m3.316-1.672a10.8 10.8 0 0 0-3.755.148 11.6 11.6 0 0 0-.922-1.977 11.8 11.8 0 0 0 2.756-2.199 8.15 8.15 0 0 1 1.92 4.028M7.758 8.622a10 10 0 0 1-2.718-.9 8.2 8.2 0 0 1 3.003-2.87l.008.003h.002q.2.062.386.127l.133.05v.001c.2.076.38.144.529.213l.042.021.01.005c.094.043.228.107.349.165l.004.002.022.01.153.073.002.001h.001a3 3 0 0 1 .169.098l.066.038.045.025.006.003.013.007.002.001.065.037.196.114q.08.046.142.085l.052.033h.001l.002.002.035.026.038.023c.06.035.117.075.19.125l.109.075.027.019.024.013.004.003.047.033.145.106.064.049.01.007.085.064.125.092a10.6 10.6 0 0 1 1.656 1.578 10 10 0 0 1-1.619.44c-1.202.217-2.43.222-3.62.004zM12 3.832a8.13 8.13 0 0 1 4.98 1.695 10.2 10.2 0 0 1-2.495 1.968 12.2 12.2 0 0 0-2.196-2.164l-.02-.016-.02-.013-.006-.004-.018-.013-.056-.042-.085-.063-.072-.054-.174-.129a3 3 0 0 0-.154-.103l-.036-.026a7 7 0 0 0-.291-.193 5 5 0 0 0-.311-.194c-.082-.048-.17-.099-.226-.13l-.042-.024-.02-.012-.004-.002-.021-.011-.007-.004-.038-.021-.035-.02-.006-.004-.02-.013a4 4 0 0 0-.199-.112l-.016-.008-.018-.01-.019-.009-.157-.075A8.2 8.2 0 0 1 12 3.831" clip-rule="evenodd"/></svg>