<svg xmlns="http://www.w3.org/2000/svg" fill="none" viewBox="0 0 24 24"><path fill="#FF4500" fill-rule="evenodd" d="M21.376 9.548A2.62 2.62 0 0 1 24 12.172c0 1.075-.645 2-1.548 2.409.043.258.064.537.064.795 0 4.065-4.71 7.334-10.516 7.334S1.484 19.42 1.484 15.376c0-.28.021-.537.065-.795a2.62 2.62 0 0 1 1.075-5.01 2.63 2.63 0 0 1 1.828.73c1.827-1.312 4.344-2.15 7.14-2.237l1.333-6.28a.42.42 0 0 1 .193-.3.46.46 0 0 1 .345-.065l4.365.925a1.87 1.87 0 0 1 1.678-1.054 1.872 1.872 0 1 1-1.872 1.957L13.72 2.41l-1.204 5.634c2.753.108 5.226.946 7.032 2.237a2.64 2.64 0 0 1 1.828-.732M7.85 12.172a1.87 1.87 0 0 0-1.871 1.871c0 1.032.838 1.892 1.87 1.871a1.872 1.872 0 0 0 0-3.742m8.602 6.839c-1.29 1.29-3.742 1.376-4.452 1.376-.73 0-3.183-.108-4.452-1.376a.48.48 0 0 1 0-.689.48.48 0 0 1 .689 0c.817.818 2.537 1.097 3.763 1.097s2.968-.28 3.764-1.097a.48.48 0 0 1 .688 0 .524.524 0 0 1 0 .689m-2.215-4.946c0 1.032.839 1.87 1.87 1.87 1.033 0 1.872-.86 1.872-1.87a1.872 1.872 0 0 0-3.742 0" clip-rule="evenodd"/></svg>