<svg xmlns="http://www.w3.org/2000/svg" fill="none" viewBox="0 0 24 24"><path fill="url(#a)" fill-rule="evenodd" d="M22 12c0 5.523-4.477 10-10 10S2 17.523 2 12 6.477 2 12 2s10 4.477 10 10Zm-9.642-2.617c-.972.404-2.916 1.241-5.831 2.512-.474.188-.722.372-.744.552-.039.304.343.424.862.587l.218.07c.51.166 1.198.36 1.555.368.324.007.685-.127 1.084-.4 2.724-1.84 4.13-2.769 4.218-2.789.063-.014.149-.032.207.02.059.052.053.15.047.177-.038.161-1.534 1.552-2.308 2.272-.241.224-.413.383-.448.42a8.802 8.802 0 0 1-.235.232c-.474.457-.83.8.02 1.36.408.27.735.492 1.061.714.356.242.711.484 1.17.785.118.077.23.157.338.234.415.296.787.561 1.247.519.267-.025.543-.276.683-1.026.332-1.77.983-5.608 1.133-7.19a1.764 1.764 0 0 0-.017-.393.422.422 0 0 0-.142-.27c-.12-.098-.305-.118-.387-.117-.376.007-.953.207-3.73 1.363Z" clip-rule="evenodd"/><defs><linearGradient id="a" x1="12" x2="12" y1="2" y2="21.852" gradientUnits="userSpaceOnUse"><stop stop-color="#2AABEE"/><stop offset="1" stop-color="#229ED9"/></linearGradient></defs></svg>