<svg xmlns="http://www.w3.org/2000/svg" fill="none" viewBox="0 0 24 24"><path fill="#464649" d="m15.656 0 2.097 2.375c.034-.01 1.848-.502 2.709.357a76 76 0 0 1 1.585 1.635l-.563 1.378.716 2.043c-.005.021-2.105 7.965-2.351 8.937-.486 1.914-.819 2.654-2.199 3.625-1.38.97-3.884 2.655-4.294 2.91s-.92.69-1.38.69-.971-.434-1.38-.69c-.41-.255-2.914-1.94-4.294-2.91s-1.713-1.71-2.198-3.625c-.247-.973-2.353-8.937-2.353-8.937l.716-2.043-.562-1.378S2.62 3.6 3.49 2.732s2.71-.357 2.71-.357L8.295 0zm-3.68 14.905c-.142.001-1.039.317-1.758.689l-.457.236c-.481.248-.823.423-.952.504-.167.104-.066.3.087.408a124 124 0 0 1 2.392 1.863l.08.07c.191.173.435.392.608.392.172 0 .417-.22.608-.391l.08-.071a124 124 0 0 1 2.393-1.863c.152-.107.253-.304.087-.408-.13-.08-.47-.256-.952-.504l-.458-.236c-.72-.373-1.618-.689-1.758-.689m0-11.255s-.409.002-1.022.206l-.375.127c-.492.17-.965.332-1.21.332-.307 0-2.582-.433-2.582-.433-.025.03-2.695 3.259-2.695 3.951 0 .575.23.8.504 1.065q.087.083.175.175l2.022 2.145.065.067c.202.203.5.502.29.997l-.044.1c-.23.538-.513 1.2-.152 1.872.384.714 1.043 1.192 1.465 1.113s1.412-.596 1.776-.832 1.519-1.188 1.519-1.552c0-.303-.83-.808-1.233-1.053-.08-.05-.145-.087-.181-.112l-.197-.125c-.368-.228-1.032-.64-1.05-.823-.02-.225-.012-.292.285-.85.063-.118.137-.245.213-.375.282-.486.599-1.03.53-1.42-.08-.44-.77-.691-1.354-.905l-.213-.079-.61-.228c-.583-.219-1.23-.46-1.338-.51-.147-.068-.109-.133.34-.176l.217-.022c.555-.06 1.578-.167 2.075-.029q.149.042.323.088c.558.151 1.243.337 1.31.444l.032.05c.063.089.105.147.035.527-.02.112-.063.334-.116.607-.154.805-.395 2.063-.425 2.347l-.014.114c-.039.315-.064.525.302.609l.095.021c.413.095 1.02.234 1.239.234s.824-.138 1.237-.233l.096-.022c.365-.084.34-.294.301-.609l-.013-.114c-.03-.283-.272-1.539-.426-2.344-.053-.275-.096-.497-.116-.61-.07-.38-.028-.438.035-.528l.033-.05c.066-.106.75-.292 1.31-.443q.174-.046.322-.088c.497-.138 1.52-.03 2.075.029l.218.022c.448.043.486.108.339.176-.107.05-.756.291-1.34.51l-.608.228q-.103.039-.213.078c-.584.214-1.274.467-1.353.907-.07.39.247.933.53 1.419.076.13.15.257.213.376.297.557.304.624.283.85-.017.182-.681.594-1.05.822l-.196.125c-.036.025-.1.063-.18.112-.404.245-1.233.75-1.234 1.053 0 .364 1.155 1.316 1.519 1.552s1.354.753 1.776.832 1.08-.399 1.465-1.113c.36-.672.076-1.334-.153-1.871l-.043-.1c-.21-.496.088-.795.29-.998l.065-.067 2.022-2.145q.089-.093.175-.175c.273-.265.505-.49.505-1.065 0-.693-2.671-3.921-2.696-3.951 0 0-2.275.433-2.582.433-.245 0-.717-.162-1.21-.332l-.375-.127c-.601-.2-1.005-.205-1.021-.206"/></svg>