<svg xmlns="http://www.w3.org/2000/svg" fill="none" viewBox="0 0 24 24"><g clip-path="url(#a)"><path fill="#000" d="M11.93 0C8.773.019 5.751 1.32 3.518 3.62S.021 9.034 0 12.289a12.7 12.7 0 0 0 2.288 7.192A12.1 12.1 0 0 0 8.2 23.969c.6.155.74-.309.74-.608v-2.155c-3.28.763-4-1.536-4-1.536a4.2 4.2 0 0 0-1.34-1.845c-1.05-.773.15-.773.15-.773.367.063.716.206 1.025.419s.57.492.765.818c.15.308.36.582.616.803.257.22.555.385.876.482a2.36 2.36 0 0 0 1.928-.254 3.55 3.55 0 0 1 .75-1.691c-2.68-.31-5.37-1.382-5.37-6.186a4.5 4.5 0 0 1 .278-1.74 4.4 4.4 0 0 1 .922-1.486 3.93 3.93 0 0 1 .14-3.227s1-.31 3.28 1.227a9.3 9.3 0 0 1 3-.464 9.3 9.3 0 0 1 3 .464c2.18-1.433 3.23-1.145 3.23-1.145a4.8 4.8 0 0 1 .15 3.227 5.07 5.07 0 0 1 1.19 3.227c0 4.763-2.83 5.835-5.52 5.99a4.03 4.03 0 0 1 .9 2.464v3.36c0 .3.15.763.89.609a12.1 12.1 0 0 0 5.906-4.48c1.47-2.09 2.271-4.6 2.294-7.18-.07-3.263-1.369-6.37-3.622-8.664C18.127 1.33 15.096.03 11.93 0"/></g><defs><clipPath id="a"><path fill="#fff" d="M0 0h24v24H0z"/></clipPath></defs></svg>