<svg xmlns="http://www.w3.org/2000/svg" fill="none" viewBox="0 0 24 24"><path fill="#000" d="M18.096 11.096c-.03-3.485-1.92-5.585-5.111-5.585-2.13 0-3.922.963-4.863 2.499l2.062 1.438c.535-.843 1.273-1.543 2.628-1.543 1.528 0 2.318.85 2.544 2.431a15 15 0 0 0-2.236-.173c-4.125 0-6.067 1.867-6.067 4.336 0 2.515 1.942 3.99 4.802 3.99 3.14 0 5.014-2.115 5.782-4.735.798.361 1.348 1.204 1.348 2.47 0 3.387-3.907 5.231-7.22 5.231-4.886 0-8.077-3.207-8.077-8.424 0-6.391 4.223-10.486 9.899-10.486 3.81 0 5.691 1.67 6.971 3.914l2.108-1.475C21.273 2.078 18.164 0 13.496 0 6.06 0 1 5.277 1 12.933 1 19.935 5.953 24 11.856 24c4.878 0 9.809-2.846 9.809-7.717 0-2.544-1.46-4.23-3.569-5.187m-6.33 4.856c-1.077 0-2.026-.512-2.026-1.453 0-1.483 1.822-1.935 3.606-1.935.678 0 1.34.046 1.927.174-.421 1.927-1.67 3.214-3.508 3.214"/></svg>