<svg xmlns="http://www.w3.org/2000/svg" fill="none" viewBox="0 0 24 24"><mask id="a" width="20" height="24" x="2" y="0" maskUnits="userSpaceOnUse" style="mask-type:luminance"><path fill="#fff" d="M2.04 0h19.92v24H2.04z"/></mask><g mask="url(#a)"><path fill="#002991" d="M19.031 5.52c0 2.973-2.743 6.48-6.894 6.48H8.138l-.196 1.238-.933 5.962H2.04L5.03 0h8.05c2.711 0 4.844 1.51 5.63 3.61.226.611.335 1.259.321 1.91"/><path fill="#60CDFF" d="M21.895 11.04a6.88 6.88 0 0 1-6.802 5.76h-2.777L11.161 24H6.218l.791-4.8.934-5.962L8.138 12h3.999c4.145 0 6.894-3.507 6.894-6.48 2.04 1.053 3.23 3.18 2.864 5.52"/><path fill="#008CFF" d="M19.031 5.52a6.5 6.5 0 0 0-3.022-.72H9.268L8.138 12h3.999c4.145 0 6.894-3.507 6.894-6.48"/></g></svg>