<svg xmlns="http://www.w3.org/2000/svg" fill="none" viewBox="0 0 24 24"><path fill="#FF4724" fill-rule="evenodd" d="m.04 21.387 7.08-4.159L12 8.675V.43c-.129 0-.258.086-.355.257l-5.781 10.13-5.78 10.131c-.098.171-.107.326-.043.44" clip-rule="evenodd"/><path fill="#9E1F63" fill-rule="evenodd" d="M12 .429v8.246l4.88 8.553 7.08 4.159c.063-.113.054-.268-.044-.439l-5.78-10.131L12.355.686C12.257.515 12.129.429 12 .429" clip-rule="evenodd"/><path fill="#662D91" fill-rule="evenodd" d="m23.96 21.387-7.08-4.158H7.12L.04 21.387c.064.113.202.184.397.184h23.126c.195 0 .332-.07.396-.184" clip-rule="evenodd"/><path fill="#fff" fill-rule="evenodd" d="M7.12 17.229h9.76L12 8.676z" clip-rule="evenodd"/></svg>