<svg xmlns="http://www.w3.org/2000/svg" fill="none" viewBox="0 0 24 24"><path fill="#0077B7" d="M21.829 0H2.171A2.17 2.17 0 0 0 0 2.171v19.658C0 23.028.972 24 2.171 24h19.658A2.17 2.17 0 0 0 24 21.829V2.17A2.17 2.17 0 0 0 21.829 0M7.427 20.723a.63.63 0 0 1-.632.632h-2.69a.63.63 0 0 1-.631-.632V9.45a.63.63 0 0 1 .631-.631h2.69c.349 0 .632.282.632.631zM5.45 7.755a2.555 2.555 0 1 1 0-5.11 2.555 2.555 0 0 1 0 5.11m16.031 13.02c0 .32-.26.58-.58.58h-2.886a.58.58 0 0 1-.582-.58v-5.289c0-.789.232-3.457-2.061-3.457-1.779 0-2.14 1.826-2.212 2.646v6.1c0 .32-.26.58-.58.58H9.787a.58.58 0 0 1-.58-.58V9.398a.58.58 0 0 1 .58-.581h2.791a.58.58 0 0 1 .581.58v.984c.66-.99 1.64-1.754 3.727-1.754 4.62 0 4.594 4.318 4.594 6.69z"/><path fill="#fff" d="M7.426 20.723a.63.63 0 0 1-.631.632h-2.69a.63.63 0 0 1-.632-.632V9.45c0-.349.283-.631.632-.631h2.69a.63.63 0 0 1 .631.631zM5.45 7.755a2.555 2.555 0 1 1 0-5.11 2.555 2.555 0 0 1 0 5.11m16.031 13.02c0 .32-.26.58-.58.58h-2.887a.58.58 0 0 1-.58-.58v-5.289c0-.789.23-3.457-2.062-3.457-1.779 0-2.14 1.826-2.212 2.646v6.1c0 .32-.26.58-.58.58H9.787a.58.58 0 0 1-.58-.58V9.398a.58.58 0 0 1 .58-.581h2.791c.32 0 .581.26.581.58v.984c.66-.99 1.64-1.754 3.727-1.754 4.62 0 4.594 4.318 4.594 6.69z"/></svg>