<svg xmlns="http://www.w3.org/2000/svg" fill="none" viewBox="0 0 24 24"><path fill="url(#a)" fill-rule="evenodd" d="M24 12c0 6.627-5.373 12-12 12S0 18.627 0 12 5.373 0 12 0s12 5.373 12 12ZM12.43 8.859c-1.167.486-3.5 1.49-6.998 3.014-.568.226-.866.447-.893.663-.046.366.412.51 1.034.705l.263.084c.613.199 1.437.432 1.865.441.389.009.823-.152 1.302-.48 3.268-2.207 4.955-3.322 5.061-3.346.075-.017.179-.038.249.024s.063.18.056.212c-.046.193-1.84 1.862-2.77 2.726-.29.27-.495.46-.537.504-.094.098-.19.19-.282.279-.57.548-.996.96.024 1.632.49.323.882.59 1.273.856.427.291.853.581 1.405.943.14.092.274.188.405.28.497.355.944.674 1.496.623.32-.03.652-.331.82-1.23.397-2.126 1.179-6.73 1.36-8.628a2.123 2.123 0 0 0-.02-.472.506.506 0 0 0-.172-.325c-.143-.117-.365-.142-.465-.14-.451.008-1.143.249-4.476 1.635Z" clip-rule="evenodd"/><path fill="#fff" fill-rule="evenodd" d="M5.432 11.873C8.93 10.35 11.263 9.345 12.43 8.86c3.333-1.386 4.025-1.627 4.477-1.635.099-.002.32.023.465.14a.506.506 0 0 1 .17.325c.016.093.036.306.02.472-.18 1.898-.962 6.502-1.36 8.627-.167.9-.499 1.201-.82 1.23-.696.065-1.225-.46-1.9-.902-1.056-.692-1.653-1.123-2.678-1.8-1.185-.78-.417-1.209.258-1.91.177-.184 3.247-2.976 3.307-3.23.007-.032.014-.15-.056-.212s-.174-.041-.249-.024c-.105.024-1.793 1.14-5.061 3.346-.48.328-.913.489-1.302.48-.428-.01-1.252-.242-1.865-.441-.751-.244-1.349-.374-1.297-.789.027-.216.325-.437.893-.662Z" clip-rule="evenodd"/><defs><linearGradient id="a" x1="12" x2="12" y1="0" y2="23.822" gradientUnits="userSpaceOnUse"><stop stop-color="#2AABEE"/><stop offset="1" stop-color="#229ED9"/></linearGradient></defs></svg>