<svg xmlns="http://www.w3.org/2000/svg" fill="none" viewBox="0 0 24 24"><path fill="#0077B7" d="M5.851 23.19c0 .447-.365.81-.815.81H1.563a.813.813 0 0 1-.816-.81V8.728c0-.447.365-.81.816-.81h3.473c.45 0 .815.363.815.81zM3.3 6.555C1.477 6.555 0 5.087 0 3.277S1.477 0 3.3 0c1.82 0 3.297 1.467 3.297 3.277S5.121 6.555 3.3 6.555m20.7 16.7a.75.75 0 0 1-.75.745h-3.727a.75.75 0 0 1-.75-.745v-6.783c0-1.012.299-4.435-2.662-4.435-2.296 0-2.762 2.343-2.856 3.394v7.824a.75.75 0 0 1-.75.745H8.901a.75.75 0 0 1-.75-.745V8.663c0-.412.336-.745.75-.745h3.604c.414 0 .75.333.75.745v1.262c.852-1.27 2.117-2.25 4.812-2.25 5.967 0 5.933 5.538 5.933 8.58z"/></svg>