<svg xmlns="http://www.w3.org/2000/svg" fill="none" viewBox="0 0 24 24"><path fill="#fff" d="M2 2h20v20H2z"/><path fill="#0077B7" d="M21.829 0H2.171A2.171 2.171 0 0 0 0 2.171v19.658C0 23.028.972 24 2.171 24h19.658A2.171 2.171 0 0 0 24 21.829V2.17A2.171 2.171 0 0 0 21.829 0ZM7.427 20.723a.632.632 0 0 1-.632.632h-2.69a.632.632 0 0 1-.631-.632V9.45a.63.63 0 0 1 .631-.631h2.69c.349 0 .632.282.632.631v11.274ZM5.45 7.755a2.555 2.555 0 1 1 0-5.11 2.555 2.555 0 0 1 0 5.11Zm16.031 13.02c0 .32-.26.58-.58.58h-2.886a.581.581 0 0 1-.582-.58v-5.289c0-.789.232-3.457-2.061-3.457-1.779 0-2.14 1.826-2.212 2.646v6.1c0 .32-.26.58-.58.58H9.787a.58.58 0 0 1-.58-.58V9.398a.58.58 0 0 1 .58-.581h2.791a.58.58 0 0 1 .581.58v.984c.66-.99 1.64-1.754 3.727-1.754 4.62 0 4.594 4.318 4.594 6.69v5.456Z"/></svg>