<svg xmlns="http://www.w3.org/2000/svg" fill="none" viewBox="0 0 24 24"><path fill="#FFABE7" d="M12 24c6.627 0 12-5.373 12-12S18.627 0 12 0 0 5.373 0 12s5.373 12 12 12"/><path fill="#B8509A" fill-rule="evenodd" d="M2.25 11.998c0-5.38 4.364-9.748 9.75-9.748s9.75 4.371 9.75 9.752c0 5.38-4.364 9.748-9.75 9.748h-.79v-.035c-5.014-.403-8.96-4.602-8.96-9.717m9.993 8.167a8.169 8.169 0 1 0-8.411-8.167A8.17 8.17 0 0 0 12 20.165z" clip-rule="evenodd"/><path fill="#B8509A" fill-rule="evenodd" d="M8.053 4.855q-.163-.05-.338-.109l.508-1.498.229.074c.176.057.398.127.53.175l.007.002.007.003.116.044c.204.077.457.173.668.271l.009.005.042.02.372.177.172.082.02.009.018.01.014.008c.043.023.123.065.2.112l.02.013.006.004.073.04.007.005.021.011.024.014.041.023.227.13c.085.05.215.127.31.195.103.063.216.141.292.193l.036.026a5 5 0 0 1 .328.232l.072.054.141.105.018.013.005.004.021.013.02.016c.873.664 1.65 1.446 2.313 2.316l.001.001v.001a11.7 11.7 0 0 1 1.715 3.185c1.197 3.342.845 7.203-1.036 10.251l-1.346-.83c1.62-2.627 1.932-5.986.892-8.89v-.002l-.002-.003a10.1 10.1 0 0 0-1.482-2.755A10.7 10.7 0 0 0 11.346 6.6l-.125-.092q-.045-.032-.095-.071l-.064-.049-.145-.106-.051-.036-.024-.013-.027-.019-.11-.075c-.072-.05-.13-.09-.189-.125l-.038-.023-.036-.027q.003.002-.001 0l-.053-.034-.142-.085-.196-.114-.065-.037h-.002l-.013-.008-.006-.003-.111-.063-.062-.038q-.047-.029-.108-.06H9.68l-.175-.084-.353-.167-.01-.005-.042-.021c-.15-.07-.329-.137-.529-.213l-.133-.05a10 10 0 0 0-.386-.128m1.932.84" clip-rule="evenodd"/><path fill="#B8509A" fill-rule="evenodd" d="M11.383 8.619c2.387-.431 4.59-1.77 6.097-3.676l1.24.98c-1.74 2.203-4.282 3.751-7.056 4.252-1.381.25-2.8.258-4.185.004a11.6 11.6 0 0 1-3.92-1.466l.814-1.356a10 10 0 0 0 3.385 1.265h.004c1.191.22 2.42.214 3.621-.003M7.157 20.017c1.35-6.89 8.373-10.696 14.116-9.131l-.416 1.526C15.982 11.083 9.88 14.35 8.709 20.32z" clip-rule="evenodd"/></svg>