<svg xmlns="http://www.w3.org/2000/svg" fill="none" viewBox="0 0 24 24"><path fill="#000" fill-rule="evenodd" d="M3.61 0h16.78A3.61 3.61 0 0 1 24 3.61v16.78A3.61 3.61 0 0 1 20.39 24H3.61A3.61 3.61 0 0 1 0 20.39V3.61A3.61 3.61 0 0 1 3.61 0m6.495 12.82L3.54 4.044H8.6l4.303 5.754 5.325-5.754h1.487l-6.148 6.642 6.933 9.27h-5.059l-4.672-6.248-5.782 6.248H3.5zM8.05 5.14H5.727L15.99 18.86h2.324z" clip-rule="evenodd"/><path fill="#fff" d="m3.541 4 6.564 8.776L3.5 19.91h1.487l5.782-6.247 4.672 6.247H20.5l-6.933-9.27L19.715 4h-1.487l-5.325 5.753L8.6 4zm2.186 1.095h2.324l10.263 13.721H15.99z"/></svg>