<svg xmlns="http://www.w3.org/2000/svg" fill="none" viewBox="0 0 24 24"><path fill="#F50" d="M24 14.29c.004-1.657-1.32-2.999-2.944-2.999-.405 0-.792.084-1.148.232-.24-2.69-2.468-4.803-5.187-4.803-.668 0-1.313.125-1.886.357-.23.084-.293.167-.293.35v9.488c0 .19.146.327.322.35h8.188c1.624 0 2.948-1.33 2.948-2.976M12.276 7.742a.366.366 0 0 0-.327-.327.34.34 0 0 0-.21.073.4.4 0 0 0-.123.254v.03l-.124 6.715.063 1.235.064 1.205a.345.345 0 0 0 .334.326.327.327 0 0 0 .323-.326l.146-2.44zM5.937 9.36a.2.2 0 0 1 .199.202l.199 4.94-.199 2.577a.2.2 0 0 1-.199.201c-.116 0-.199-.084-.21-.201l-.165-2.577.165-4.94c.011-.117.094-.201.21-.201m-.78 1.106c0-.107-.082-.19-.176-.19-.105 0-.176.083-.188.19l-.187 4.012.187 2.596c.011.106.083.19.188.19.094 0 .176-.084.176-.19l.218-2.596zm-.761 4.013-.218-2.47c-.011-.084-.082-.16-.165-.16a.16.16 0 0 0-.157.16l-.21 2.47.21 2.595c0 .095.075.167.157.167.083 0 .154-.072.165-.167zM.364 13.127c-.011-.054-.041-.095-.094-.095-.052 0-.082.041-.094.095L0 14.479l.176 1.33c.012.054.042.095.094.095.053 0 .083-.041.094-.095l.21-1.33zm.791-.927c.053 0 .094.041.105.095l.27 2.184-.27 2.144c-.011.053-.052.095-.105.095-.052 0-.094-.042-.094-.107l-.24-2.132.24-2.184c0-.054.042-.095.094-.095m1.065-.308c0-.072-.052-.126-.116-.126s-.116.053-.124.126l-.217 2.587.217 2.5c.012.065.064.119.124.119a.12.12 0 0 0 .116-.118l.26-2.5zm.833-.209a.15.15 0 0 1 .146.136l.24 2.66-.24 2.577c-.011.083-.075.137-.146.137a.133.133 0 0 1-.135-.137L2.7 14.479l.218-2.66c0-.083.064-.136.135-.136m8.053-3.633a.34.34 0 0 1 .146.255l.123 6.186-.116 2.227-.011.254q.001.133-.094.213a.3.3 0 0 1-.21.095.32.32 0 0 1-.24-.118.3.3 0 0 1-.064-.178v-.012l-.116-2.493.105-6.11.011-.064c0-.107.053-.202.135-.255a.3.3 0 0 1 .165-.053c.06 0 .113.023.165.053M7.156 9.137c-.007-.126-.101-.232-.229-.232-.116 0-.217.106-.217.232l-.165 5.342.165 2.554c.011.125.105.22.217.22.124 0 .218-.095.23-.22l.187-2.554zM9.928 9c.157 0 .27.125.281.296l.146 5.195-.146 2.493a.28.28 0 0 1-.281.285.3.3 0 0 1-.293-.285l-.124-2.493.124-5.195c.011-.17.135-.296.293-.296m-1.759-.042c-.011-.137-.117-.254-.252-.254-.123 0-.24.117-.24.254l-.146 5.521.146 2.543c.012.136.117.243.24.243.136 0 .24-.107.252-.243l.165-2.543zm.75-.125c.146 0 .259.114.259.262l.157 5.384-.157 2.524a.26.26 0 0 1-.26.262c-.142 0-.247-.114-.258-.262l-.146-2.524.146-5.384a.26.26 0 0 1 .259-.262"/></svg>