<svg xmlns="http://www.w3.org/2000/svg" fill="none" viewBox="0 0 24 24"><path fill="#1185FE" d="M5.202 2.857C7.954 4.922 10.914 9.11 12 11.358c1.087-2.247 4.046-6.436 6.798-8.501C20.783 1.367 24 .213 24 3.883c0 .733-.42 6.157-.667 7.037-.856 3.061-3.978 3.842-6.755 3.37 4.854.826 6.089 3.562 3.422 6.298-5.064 5.197-7.279-1.303-7.847-2.97-.104-.305-.152-.447-.153-.326 0-.122-.05.021-.153.327-.568 1.666-2.782 8.166-7.847 2.97-2.667-2.737-1.432-5.473 3.422-6.3-2.777.473-5.899-.308-6.755-3.369C.42 10.04 0 4.615 0 3.883c0-3.67 3.217-2.517 5.202-1.026"/></svg>