<svg xmlns="http://www.w3.org/2000/svg" fill="none" viewBox="0 0 24 24"><rect width="20" height="20" x="2" y="2" fill="#fff" rx="10"/><path fill="#FF4500" fill-rule="evenodd" d="M24 12c0 6.627-5.373 12-12 12S0 18.627 0 12 5.373 0 12 0s12 5.373 12 12Zm-3.995 0c0-.974-.788-1.747-1.747-1.747-.473 0-.902.186-1.217.487-1.203-.86-2.85-1.418-4.683-1.49l.802-3.75 2.606.558a1.245 1.245 0 1 0 1.246-1.303c-.487 0-.917.286-1.117.702l-2.907-.616a.305.305 0 0 0-.23.043.278.278 0 0 0-.128.2l-.888 4.182c-1.861.057-3.537.615-4.754 1.49a1.759 1.759 0 0 0-1.217-.488 1.745 1.745 0 0 0-.716 3.337 3.153 3.153 0 0 0-.043.53c0 2.692 3.136 4.883 7.002 4.883 3.867 0 7.003-2.177 7.003-4.883 0-.172-.015-.359-.043-.53A1.764 1.764 0 0 0 20.004 12Zm-12 1.246a1.247 1.247 0 1 1 1.246 1.246c-.688.014-1.246-.559-1.246-1.246Zm4.01 4.224c.472 0 2.104-.057 2.964-.916a.348.348 0 0 0 0-.459.32.32 0 0 0-.459 0c-.53.545-1.69.73-2.505.73-.817 0-1.962-.185-2.507-.73a.32.32 0 0 0-.458 0 .32.32 0 0 0 0 .459c.845.844 2.478.916 2.964.916Zm2.734-2.964a1.247 1.247 0 1 1 1.246-1.246c0 .673-.558 1.246-1.246 1.246Z" clip-rule="evenodd"/></svg>