<svg xmlns="http://www.w3.org/2000/svg" fill="none" viewBox="0 0 24 24"><path fill="currentColor" fill-rule="evenodd" d="m22.429 7.763-.755-2.01.524-1.154a.39.39 0 0 0-.082-.438L20.69 2.745a2.337 2.337 0 0 0-2.393-.546l-.4.136L15.815 0H8.152L6.095 2.363l-.388-.134a2.342 2.342 0 0 0-2.416.552L1.839 4.223a.31.31 0 0 0-.064.349l.547 1.198-.75 2.009.486 1.81 2.213 8.255a4.204 4.204 0 0 0 1.66 2.355s2.688 1.86 5.34 3.548c.233.148.477.257.74.253.261.003.505-.105.738-.254a196.334 196.334 0 0 0 5.336-3.554 4.206 4.206 0 0 0 1.656-2.358l2.204-8.258.484-1.813Z" clip-rule="evenodd"/><path fill="currentColor" fill-rule="evenodd" d="m20.073 8.162-.034.107-.055.193c-.147.18-.456.523-.688.765l-2.128 2.218c-.232.24-.362.543-.23.848l.287.694c.132.304.145.808.018 1.147-.128.344-.35.648-.64.88l-.222.178c-.262.21-.726.264-1.031.122l-.98-.456a5.085 5.085 0 0 1-1.012-.661l-.928-.817a.416.416 0 0 1-.022-.606l2.258-1.494c.28-.185.428-.528.27-.82l-.804-1.432c-.159-.292-.223-.68-.141-.863.081-.182.406-.428.723-.545l2.621-.955c.316-.117.3-.238-.037-.27l-1.675-.121c-.337-.031-.584.017-.91.106l-1.267.307c-.326.09-.395.429-.334.754l.523 2.78c.062.326.092.654.067.73-.024.075-.314.196-.644.27l-.434.096a3.43 3.43 0 0 1-1.2.008l-.525-.11c-.33-.07-.62-.187-.646-.262-.024-.076.005-.404.067-.73l.52-2.78c.06-.326-.009-.665-.335-.754l-1.268-.306c-.326-.089-.573-.136-.91-.105l-1.674.124c-.337.031-.354.152-.037.27l2.623.951c.316.117.642.362.723.545.082.182.018.57-.14.862l-.802 1.433c-.158.292-.01.635.27.82l2.261 1.492a.416.416 0 0 1-.022.605l-.927.818a5.06 5.06 0 0 1-1.01.663l-.98.457c-.305.143-.77.088-1.032-.12l-.222-.178a2.073 2.073 0 0 1-.651-.907c-.117-.311-.105-.815.027-1.12l.286-.694c.132-.304 0-.607-.231-.848L4.658 9.235a16.433 16.433 0 0 1-.688-.763l-.055-.193-.035-.108c-.003-.123.042-.518.093-.625.052-.107.249-.418.438-.693l.456-.66c.19-.275.517-.71.727-.97l.668-.82c.211-.26.39-.47.418-.468.001-.002.274.048.606.11l1.012.19.814.153c.115.021.473-.045.795-.147l.728-.231c.321-.102.81-.237 1.084-.3l.255.004.254-.004c.275.062.763.196 1.085.298l.728.23c.322.102.68.168.795.146l.672-.126.142-.027 1.012-.191c.332-.063.605-.113.624-.112.01-.001.189.209.4.468l.67.82c.21.258.538.694.728.968l.457.66c.19.274.485.773.504.886.019.114.031.308.028.432Zm-7.961 6.619c.03 0 .31.103.622.23l.29.118c.312.126.814.352 1.116.502l.855.426c.301.15.323.43.048.622l-.73.511a15.16 15.16 0 0 0-.96.744l-.92.786a.721.721 0 0 1-.91.003 90.252 90.252 0 0 0-.911-.78 14.917 14.917 0 0 0-.963-.737l-.727-.503c-.276-.191-.257-.473.043-.626l.86-.438c.3-.153.8-.383 1.113-.51l.29-.117c.311-.127.591-.231.621-.231h.263Z" clip-rule="evenodd"/></svg>