<svg xmlns="http://www.w3.org/2000/svg" fill="none" viewBox="0 0 24 25"><path fill="#1877F2" fill-rule="evenodd" d="M12 0c6.628 0 12 5.405 12 12.073C24 18.1 19.613 23.095 13.875 24v-8.437h2.796l.532-3.49h-3.328V9.81c0-.955.464-1.886 1.955-1.886h1.514V4.952s-1.374-.236-2.686-.236c-2.742 0-4.533 1.672-4.533 4.697v2.66H7.078v3.49h3.047V24C4.388 23.095 0 18.1 0 12.073 0 5.405 5.372 0 12 0" clip-rule="evenodd"/><path fill="#fff" d="m16.671 15.563.532-3.49h-3.328V9.81c0-.955.464-1.886 1.955-1.886h1.514V4.952s-1.374-.236-2.686-.236c-2.742 0-4.533 1.672-4.533 4.697v2.66H7.078v3.49h3.047V24a12 12 0 0 0 3.75 0v-8.437z"/></svg>