<svg xmlns="http://www.w3.org/2000/svg" fill="none" viewBox="0 0 24 24"><path fill="currentColor" fill-rule="evenodd" d="m.04 21.387 7.08-4.159L12 8.675V.43c-.129 0-.257.086-.355.257l-5.781 10.13-5.78 10.132c-.098.171-.107.326-.043.44ZM12 .43v8.245l4.88 8.553 7.08 4.16c.063-.114.054-.269-.043-.44l-5.781-10.131L12.355.686C12.257.515 12.129.429 12 .429Z" clip-rule="evenodd"/><path fill="currentColor" fill-rule="evenodd" d="m23.96 21.387-7.08-4.159H7.12l-7.08 4.16c.064.112.202.183.397.183h23.126c.195 0 .332-.07.396-.184Z" clip-rule="evenodd"/><path fill="currentColor" fill-rule="evenodd" d="M7.12 17.229h9.76L12 8.675l-4.88 8.553Z" clip-rule="evenodd"/></svg>