<svg xmlns="http://www.w3.org/2000/svg" fill="none" viewBox="0 0 24 24"><path fill="#464649" d="M12 0c6.628 0 12 5.405 12 12.073C24 18.1 19.613 23.095 13.875 24v-8.436h2.796l.532-3.49h-3.328V9.81c0-.955.464-1.887 1.955-1.887h1.514v-2.97s-.205-.034-.53-.077q-.096-.014-.204-.027a20 20 0 0 0-.61-.066l-.17-.013q-.113-.011-.23-.019a16 16 0 0 0-.94-.035 7 7 0 0 0-.745.043q-.014.001-.027.004a5 5 0 0 0-.428.071l-.068.016a5 5 0 0 0-.377.1l-.047.015-.161.055-.052.02q-.076.027-.15.059-.037.015-.072.032a4 4 0 0 0-.305.151l-.07.04q-.054.03-.106.063l-.105.067-.06.04-.091.067q-.05.036-.1.075a4 4 0 0 0-.154.129l-.025.022-.082.076a4 4 0 0 0-.177.181q-.038.042-.075.086l-.055.065-.08.099a4 4 0 0 0-.118.164l-.055.083a4 4 0 0 0-.162.273l-.022.04-.066.131-.012.025-.052.115-.041.097-.042.107-.039.1-.042.127a5 5 0 0 0-.125.46l-.022.1-.01.054q-.019.095-.035.191l-.017.123q-.061.442-.062.931v2.66H7.078v3.49h3.047V24C4.388 23.095 0 18.1 0 12.073 0 5.405 5.372 0 12 0"/></svg>