<svg xmlns="http://www.w3.org/2000/svg" fill="none" viewBox="0 0 24 24"><path fill="url(#a)" fill-rule="evenodd" d="M24 12c0 6.627-5.373 12-12 12S0 18.627 0 12 5.373 0 12 0s12 5.373 12 12M12.43 8.859q-1.75.728-6.998 3.015-.852.338-.893.662c-.046.366.412.51 1.034.705l.263.084c.613.199 1.437.432 1.865.441q.584.013 1.302-.48 4.902-3.31 5.061-3.346c.075-.017.179-.038.249.024s.063.18.056.212c-.046.193-1.84 1.862-2.77 2.726-.29.27-.495.46-.537.504q-.143.146-.282.279c-.57.548-.996.96.024 1.632.49.323.882.59 1.273.856.427.291.853.581 1.405.943q.21.14.405.28c.497.355.944.674 1.496.623.32-.03.652-.331.82-1.23.397-2.126 1.179-6.73 1.36-8.628a2 2 0 0 0-.02-.472.5.5 0 0 0-.172-.325c-.143-.117-.365-.142-.465-.14-.451.008-1.143.249-4.476 1.635" clip-rule="evenodd"/><path fill="#fff" fill-rule="evenodd" d="M5.432 11.874q5.247-2.287 6.998-3.015c3.333-1.386 4.025-1.627 4.477-1.635.099-.002.32.023.465.14a.5.5 0 0 1 .17.325c.016.093.036.306.02.472-.18 1.898-.962 6.502-1.36 8.628-.167.899-.499 1.2-.82 1.23-.696.064-1.225-.46-1.9-.903-1.056-.692-1.653-1.123-2.678-1.8-1.185-.78-.417-1.209.258-1.91.177-.184 3.247-2.976 3.307-3.23.007-.032.014-.15-.056-.212s-.174-.041-.249-.024q-.158.037-5.061 3.346-.72.493-1.302.48c-.428-.01-1.252-.242-1.865-.441-.751-.244-1.349-.374-1.297-.789q.04-.324.893-.662" clip-rule="evenodd"/><defs><linearGradient id="a" x1="12" x2="12" y1="0" y2="23.822" gradientUnits="userSpaceOnUse"><stop stop-color="#2AABEE"/><stop offset="1" stop-color="#229ED9"/></linearGradient></defs></svg>