<svg xmlns="http://www.w3.org/2000/svg" fill="none" viewBox="0 0 24 24"><path fill="#001C64" d="M9.879 4.8a.692.692 0 0 0-.683.583l-1.135 7.2A.692.692 0 0 1 8.744 12h3.326a6.794 6.794 0 0 0 6.708-5.752c.039-.247.06-.496.066-.746a6.314 6.314 0 0 0-2.946-.702H9.88Z"/><path fill="#0070E0" d="M18.844 5.501c-.005.25-.027.5-.066.747A6.794 6.794 0 0 1 12.07 12H8.744c-.34 0-.63.247-.683.584L7.017 19.2l-.654 4.15a.561.561 0 0 0 .555.65h3.61a.692.692 0 0 0 .683-.584l.951-6.032a.692.692 0 0 1 .684-.584h2.126a6.794 6.794 0 0 0 6.708-5.752c.369-2.35-.814-4.487-2.836-5.547Z"/><path fill="#003087" d="M5.777 0c-.34 0-.63.248-.683.584L2.26 18.55c-.053.341.21.65.556.65h4.201l1.044-6.616 1.135-7.2a.692.692 0 0 1 .683-.584h6.02c1.095 0 2.094.255 2.945.701C18.902 2.488 16.416 0 12.997 0h-7.22Z"/></svg>