<svg xmlns="http://www.w3.org/2000/svg" fill="none" viewBox="0 0 24 24"><path fill="#1ED760" fill-rule="evenodd" d="M0 12C0 5.372 5.373 0 12 0c6.628 0 12 5.372 12 12s-5.372 12-12 12C5.373 24 0 18.628 0 12m5.157-2.75c3.693-1.12 10.073-.909 13.941 1.388a1.122 1.122 0 1 0 1.146-1.93c-4.453-2.644-11.5-2.892-15.738-1.605a1.123 1.123 0 0 0 .651 2.148m12.528 5.099a.936.936 0 0 0 .979-1.594c-3.704-2.277-9.122-2.917-13.48-1.595a.937.937 0 0 0-.624 1.167.937.937 0 0 0 1.167.623c3.816-1.158 8.733-.583 11.958 1.399m-1.21 3.208a.747.747 0 1 0 .78-1.277c-3.163-1.933-7.084-2.383-11.655-1.338a.747.747 0 1 0 .333 1.458c4.177-.954 7.724-.565 10.542 1.157" clip-rule="evenodd"/><path fill="#000" fill-rule="evenodd" d="M19.098 10.638C15.23 8.341 8.85 8.13 5.158 9.251a1.122 1.122 0 1 1-.652-2.148C8.745 5.816 15.79 6.064 20.244 8.708a1.122 1.122 0 0 1-1.146 1.93m-.126 3.403a.936.936 0 0 1-1.287.308c-3.225-1.983-8.142-2.557-11.958-1.399a.937.937 0 0 1-1.167-.623.937.937 0 0 1 .623-1.167c4.359-1.322 9.777-.682 13.48 1.595.44.27.58.846.309 1.286m-1.469 3.267a.747.747 0 0 1-1.028.25c-2.818-1.723-6.365-2.112-10.542-1.158a.748.748 0 1 1-.333-1.458c4.571-1.045 8.492-.595 11.655 1.338a.75.75 0 0 1 .248 1.028" clip-rule="evenodd"/></svg>