<svg xmlns="http://www.w3.org/2000/svg" fill="none" viewBox="0 0 24 24"><path fill="#46464A" d="M19.23 7.46c.116.174.25.4.297.5.048.102.089.475.085.592l-.031.102a2 2 0 0 1-.057.192c-.131.164-.355.424-.497.577L16.82 11.79a.65.65 0 0 0-.112.632l.36.863c.082.194.09.513.018.712l-.074.2a1.93 1.93 0 0 1-.586.833l-.347.285a.65.65 0 0 1-.636.077l-1.232-.594a3 3 0 0 1-.622-.42l-.986-.9a.403.403 0 0 1-.02-.573l2.224-1.514a.44.44 0 0 0 .136-.552l-.862-1.64c-.098-.185-.118-.478-.042-.65.074-.173.295-.375.49-.45l2.704-1.031c.195-.075.185-.152-.022-.172l-1.588-.151a2.4 2.4 0 0 0-.742.065l-1.383.39a.43.43 0 0 0-.296.48l.543 2.996c.036.207.05.435.027.507-.024.07-.208.165-.412.21l-.842.18a1.6 1.6 0 0 1-.29.03 1.6 1.6 0 0 1-.29-.03l-.842-.18c-.203-.045-.388-.14-.41-.21-.024-.072-.012-.3.026-.507l.544-2.997a.43.43 0 0 0-.297-.479l-1.383-.39a2.4 2.4 0 0 0-.743-.065l-1.587.151c-.208.02-.218.097-.023.172l2.705 1.031c.195.075.415.277.49.45.074.172.055.465-.042.65l-.862 1.64a.44.44 0 0 0 .134.552l2.226 1.514a.403.403 0 0 1-.02.574l-.986.9c-.155.14-.436.33-.623.42l-1.232.593a.65.65 0 0 1-.635-.077l-.346-.285a1.95 1.95 0 0 1-.59-.832l-.072-.2c-.072-.2-.064-.52.017-.713l.36-.863a.65.65 0 0 0-.11-.632L5.43 9.423a11 11 0 0 1-.497-.577s-.009-.01-.059-.192l-.032-.102c-.003-.117.039-.49.086-.591.048-.101.181-.327.297-.501l.625-.935c.117-.174.319-.451.449-.615l.842-1.068a3 3 0 0 1 .25-.297h.018c0-.001.169.03.374.07l1.29.25c.205.04.458.089.564.108s.355-.015.553-.081l1.019-.333c.198-.066.526-.158.729-.204 0 0 .082-.02.29-.02.206 0 .288.02.288.02.203.046.531.138.73.204l1.018.333c.197.066.447.1.553.08.106-.018.36-.067.564-.108l1.29-.25c.206-.04.374-.07.375-.069h.017c.007-.001.12.131.25.297l.843 1.068c.13.164.33.441.448.615z"/><path fill="#46464A" d="m14 15.529 1.116.587c.185.096.196.277.027.397l-.968.69a9 9 0 0 0-.595.473l-.274.238c-.157.136-.414.363-.57.502l-.257.232a.43.43 0 0 1-.25.102.43.43 0 0 1-.25-.102l-.259-.232a69 69 0 0 0-.57-.502l-.272-.239a10 10 0 0 0-.597-.471l-.967-.691c-.17-.12-.159-.3.027-.397l1.115-.587c.184-.097.493-.242.685-.324l.607-.255a3 3 0 0 1 .399-.146h.162c.028 0 .207.066.4.146l.606.255c.193.082.5.227.686.324"/><path fill="#46464A" fill-rule="evenodd" d="M22.23 7.77a.6.6 0 0 1 .017.37l-2.479 9.522a4.6 4.6 0 0 1-1.764 2.579l-.36.254a179 179 0 0 1-4.47 3.054l-.089.059c-.334.221-.658.345-1.01.343-.36.002-.68-.12-1.015-.341l-.092-.06-.533-.353a167 167 0 0 1-4.299-2.958 4.6 4.6 0 0 1-1.762-2.577L1.895 8.14a.6.6 0 0 1 .017-.37l.604-1.664-.402-.906a.92.92 0 0 1 .185-1.018l1.33-1.361a2.73 2.73 0 0 1 2.84-.688l1.718-1.9a.62.62 0 0 1 .458-.205L12.066 0l3.431.028c.175.001.34.076.458.205l1.72 1.9a2.73 2.73 0 0 1 2.837.686l1.329 1.36c.267.27.339.676.187 1.023l-.401.904zm-1.24.243-.622-1.717a.62.62 0 0 1 .016-.466l.413-.933-1.18-1.207a1.48 1.48 0 0 0-1.56-.37l-.355.128a.62.62 0 0 1-.673-.169l-1.816-2.005-3.137-.026-3.147.026-1.815 2.005a.62.62 0 0 1-.672.17l-.357-.128a1.48 1.48 0 0 0-1.56.37l-1.18 1.207.414.932a.62.62 0 0 1 .016.466l-.623 1.717 2.43 9.335a3.35 3.35 0 0 0 1.281 1.877l.355.25a174 174 0 0 0 4.435 3.031l.093.06c.149.099.25.137.328.137.073 0 .175-.039.324-.137l.09-.06.529-.349a166 166 0 0 0 4.26-2.931 3.35 3.35 0 0 0 1.283-1.878z" clip-rule="evenodd"/></svg>