<svg xmlns="http://www.w3.org/2000/svg" fill="none" viewBox="0 0 24 24"><path fill="url(#a)" fill-rule="evenodd" d="M5.838 12a6.162 6.162 0 1 1 12.324 0 6.162 6.162 0 0 1-12.324 0M12 16a4 4 0 1 1 0-8 4 4 0 0 1 0 8" clip-rule="evenodd"/><path fill="url(#b)" d="M18.406 7.034a1.44 1.44 0 1 0 0-2.88 1.44 1.44 0 0 0 0 2.88"/><path fill="url(#c)" fill-rule="evenodd" d="M12 0C8.741 0 8.332.014 7.052.072 5.775.13 4.902.333 4.14.63a5.9 5.9 0 0 0-2.126 1.384A5.9 5.9 0 0 0 .63 4.14c-.297.763-.5 1.635-.558 2.912C.014 8.332 0 8.741 0 12s.014 3.668.072 4.948c.058 1.277.261 2.15.558 2.912.307.79.717 1.459 1.384 2.126A5.9 5.9 0 0 0 4.14 23.37c.763.297 1.635.5 2.912.558C8.332 23.986 8.741 24 12 24s3.668-.014 4.948-.072c1.277-.059 2.15-.261 2.912-.558a5.9 5.9 0 0 0 2.126-1.384 5.9 5.9 0 0 0 1.384-2.126c.297-.763.5-1.635.558-2.912.058-1.28.072-1.689.072-4.948s-.014-3.668-.072-4.948c-.059-1.277-.261-2.15-.558-2.912a5.9 5.9 0 0 0-1.384-2.126A5.9 5.9 0 0 0 19.86.63c-.763-.297-1.635-.5-2.912-.558C15.668.014 15.259 0 12 0m0 2.162c3.204 0 3.584.012 4.849.07 1.17.053 1.805.249 2.228.413.56.218.96.478 1.38.898s.68.82.898 1.38c.164.423.36 1.058.413 2.228.058 1.265.07 1.645.07 4.849s-.012 3.584-.07 4.849c-.053 1.17-.249 1.805-.413 2.228-.218.56-.478.96-.898 1.38s-.82.68-1.38.898c-.423.164-1.058.36-2.228.413-1.265.058-1.645.07-4.849.07s-3.584-.012-4.849-.07c-1.17-.053-1.805-.249-2.228-.413a3.7 3.7 0 0 1-1.38-.898c-.42-.42-.68-.82-.898-1.38-.164-.423-.36-1.058-.413-2.228-.058-1.265-.07-1.645-.07-4.849s.012-3.584.07-4.849c.053-1.17.249-1.805.413-2.228.218-.56.478-.96.898-1.38s.82-.68 1.38-.898c.423-.164 1.058-.36 2.228-.413 1.265-.058 1.645-.07 4.849-.07" clip-rule="evenodd"/><defs><linearGradient id="a" x1="18.06" x2="5.711" y1="2.137" y2="23.405" gradientUnits="userSpaceOnUse"><stop stop-color="#7339FA"/><stop offset=".333" stop-color="#D302C0"/><stop offset=".667" stop-color="#FF4B2B"/><stop offset="1" stop-color="#FFC703"/></linearGradient><linearGradient id="b" x1="18.06" x2="5.711" y1="2.137" y2="23.405" gradientUnits="userSpaceOnUse"><stop stop-color="#7339FA"/><stop offset=".333" stop-color="#D302C0"/><stop offset=".667" stop-color="#FF4B2B"/><stop offset="1" stop-color="#FFC703"/></linearGradient><linearGradient id="c" x1="18.06" x2="5.711" y1="2.137" y2="23.405" gradientUnits="userSpaceOnUse"><stop stop-color="#7339FA"/><stop offset=".333" stop-color="#D302C0"/><stop offset=".667" stop-color="#FF4B2B"/><stop offset="1" stop-color="#FFC703"/></linearGradient></defs></svg>