<svg xmlns="http://www.w3.org/2000/svg" fill="none" viewBox="0 0 24 24"><path fill="#5966F2" fill-rule="evenodd" d="M15.432 2.855c1.715.296 3.355.813 4.885 1.515a.06.06 0 0 1 .031.028c2.71 3.987 4.05 8.484 3.549 13.66a.08.08 0 0 1-.032.056 19.8 19.8 0 0 1-6.002 3.03.08.08 0 0 1-.084-.03 16 16 0 0 1-1.225-1.993.077.077 0 0 1 .04-.106 12.3 12.3 0 0 0 1.874-.892.077.077 0 0 0 .006-.127 10 10 0 0 1-.372-.293.07.07 0 0 0-.079-.01c-3.881 1.794-8.134 1.794-12.061 0a.07.07 0 0 0-.078.011q-.182.15-.372.292c-.043.032-.04.1.008.127.598.343 1.22.645 1.872.893a.076.076 0 0 1 .041.105 14 14 0 0 1-1.226 1.995.08.08 0 0 1-.084.027 19.9 19.9 0 0 1-5.993-3.03.08.08 0 0 1-.03-.055c-.42-4.478.432-9.012 3.544-13.66a.07.07 0 0 1 .032-.028 19.7 19.7 0 0 1 4.885-1.515.08.08 0 0 1 .079.037c.211.375.454.856.617 1.25a18.3 18.3 0 0 1 5.487 0c.164-.386.397-.875.608-1.25a.074.074 0 0 1 .079-.037M8.02 15.33c-1.183 0-2.157-1.086-2.157-2.419s.956-2.419 2.157-2.419c1.21 0 2.176 1.095 2.157 2.42 0 1.332-.956 2.418-2.157 2.418m7.975 0c-1.183 0-2.157-1.086-2.157-2.419s.955-2.419 2.157-2.419c1.21 0 2.176 1.095 2.157 2.42 0 1.332-.946 2.418-2.157 2.418" clip-rule="evenodd"/><path fill="#fff" d="M5.863 12.912c0 1.333.975 2.419 2.157 2.419 1.202 0 2.157-1.086 2.157-2.419.019-1.324-.946-2.419-2.157-2.419-1.201 0-2.157 1.086-2.157 2.42m7.975-.001c0 1.333.974 2.419 2.157 2.419 1.21 0 2.157-1.086 2.157-2.419.019-1.324-.946-2.419-2.157-2.419-1.201 0-2.157 1.086-2.157 2.42"/></svg>