<svg xmlns="http://www.w3.org/2000/svg" fill="none" viewBox="0 0 24 24"><path fill="#464649" d="M11.815 0c3.944 0 5.648.242 6.097.309 2.664.393 4.912 2.426 5.259 5.004.189 1.916.024 5.034.023 5.545 0 .153-.021 1.525-.03 1.67-.233 3.685-2.531 5.14-4.945 5.604q-.05.014-.11.023c-1.53.3-3.17.38-4.726.423-.372.01-.743.01-1.115.01-1.547 0-3.089-.183-4.592-.546a.05.05 0 0 0-.046.01.05.05 0 0 0-.02.044c.043.49.15.971.317 1.433.208.535.937 1.819 3.641 1.819 1.573.003 3.14-.181 4.67-.546a.05.05 0 0 1 .044.01l.015.018.006.024v1.808l-.007.024-.017.019c-.5.362-1.179.569-1.76.753q-.383.12-.777.213a13.2 13.2 0 0 1-7.194-.38c-2.163-.76-4.372-2.62-4.917-4.857a26.4 26.4 0 0 1-.614-3.68c-.17-1.866-.185-3.737-.258-5.61-.051-1.307-.021-2.732.255-4.017C1.588 2.517 3.952.692 6.542.309 6.992.242 7.84 0 11.785 0zm3.812 3.927c-1.297 0-2.279.5-2.934 1.498l-.632 1.06-.632-1.06q-.984-1.498-2.936-1.498c-1.122 0-2.027.395-2.717 1.164Q4.775 6.247 4.775 8.21v6.406h2.537V8.4c0-1.309.55-1.976 1.654-1.976 1.22 0 1.832.79 1.832 2.35v3.403h2.523V8.772c0-1.56.61-2.35 1.83-2.35 1.11 0 1.656.668 1.656 1.977v6.218h2.539V8.211q0-1.965-1.001-3.12c-.692-.77-1.596-1.164-2.718-1.164"/></svg>