<svg xmlns="http://www.w3.org/2000/svg" fill="none" viewBox="0 0 24 24"><path fill="url(#a)" fill-rule="evenodd" d="M22 12c0 5.523-4.477 10-10 10S2 17.523 2 12 6.477 2 12 2s10 4.477 10 10m-9.642-2.617q-1.458.606-5.831 2.512-.711.282-.744.552c-.039.304.343.424.862.587l.218.07c.51.166 1.198.36 1.555.368q.486.01 1.084-.4 4.086-2.76 4.218-2.789c.063-.014.149-.032.207.02.059.052.053.15.047.177-.038.161-1.534 1.552-2.308 2.272-.241.224-.413.383-.448.42a9 9 0 0 1-.235.232c-.474.457-.83.8.02 1.36.408.27.735.492 1.061.714.356.242.711.484 1.17.785q.177.117.338.234c.415.296.787.561 1.247.519.267-.025.543-.276.683-1.026.332-1.77.983-5.608 1.133-7.19a1.8 1.8 0 0 0-.017-.393.42.42 0 0 0-.142-.27c-.12-.098-.305-.118-.387-.117-.376.007-.953.207-3.73 1.363" clip-rule="evenodd"/><path fill="#fff" fill-rule="evenodd" d="M6.527 11.895q4.372-1.905 5.832-2.512c2.777-1.156 3.354-1.356 3.73-1.363.083-.001.268.02.387.116a.42.42 0 0 1 .143.271c.013.078.03.255.016.394-.15 1.581-.801 5.418-1.133 7.19-.14.749-.416 1-.683 1.025-.58.053-1.022-.384-1.584-.753-.88-.577-1.377-.936-2.232-1.499-.987-.65-.347-1.008.216-1.592.147-.153 2.706-2.48 2.755-2.692.006-.026.012-.125-.046-.177-.059-.052-.145-.034-.208-.02q-.132.03-4.218 2.788-.598.412-1.084.4c-.357-.007-1.044-.201-1.554-.367-.627-.204-1.124-.311-1.081-.657q.033-.27.744-.552" clip-rule="evenodd"/><defs><linearGradient id="a" x1="12" x2="12" y1="2" y2="21.852" gradientUnits="userSpaceOnUse"><stop stop-color="#2AABEE"/><stop offset="1" stop-color="#229ED9"/></linearGradient></defs></svg>