<svg xmlns="http://www.w3.org/2000/svg" fill="none" viewBox="0 0 24 24"><path fill="url(#a)" fill-rule="evenodd" d="M17.912.309c2.664.393 4.912 2.426 5.259 5.004.15 1.534.076 3.839.04 4.959-.01.279-.016.484-.016.586 0 .15-.022 1.525-.031 1.67-.234 3.685-2.531 5.14-4.946 5.604l-.085.019-.024.005c-1.53.298-3.17.378-4.726.422-.372.01-.743.01-1.115.01a19.6 19.6 0 0 1-4.592-.546.05.05 0 0 0-.046.01.05.05 0 0 0-.02.044q.066.737.317 1.433c.208.534.936 1.818 3.642 1.818a20 20 0 0 0 4.668-.545.054.054 0 0 1 .066.051v1.809a.06.06 0 0 1-.023.043c-.478.347-1.121.55-1.684.729l-.076.024q-.384.12-.778.213a13.2 13.2 0 0 1-7.194-.38c-2.164-.76-4.372-2.62-4.917-4.856a26.4 26.4 0 0 1-.615-3.68C.893 13.398.852 12.04.81 10.68Q.788 9.913.76 9.143c-.051-1.307-.022-2.731.254-4.016.574-2.61 2.94-4.435 5.53-4.818l.18-.03C7.236.188 8.306 0 11.785 0h.03c3.944 0 5.647.242 6.097.309m1.433 14.308V8.21q.002-1.965-1-3.12c-.692-.77-1.596-1.164-2.718-1.164-1.297 0-2.279.5-2.933 1.498l-.633 1.06-.632-1.06q-.984-1.498-2.936-1.498c-1.122 0-2.027.395-2.716 1.164Q4.774 6.246 4.774 8.21v6.406h2.538V8.399c0-1.309.55-1.976 1.654-1.976 1.22 0 1.831.79 1.831 2.35v3.403h2.524V8.772c0-1.56.61-2.35 1.83-2.35 1.11 0 1.656.668 1.656 1.977v6.218z" clip-rule="evenodd"/><path fill="#fff" d="M19.345 8.21v6.407h-2.538V8.399c0-1.309-.546-1.976-1.655-1.976-1.22 0-1.831.79-1.831 2.35v3.403h-2.524V8.772c0-1.56-.612-2.35-1.831-2.35-1.103 0-1.654.668-1.654 1.977v6.218H4.774V8.21q0-1.965 1.003-3.12c.69-.77 1.594-1.164 2.716-1.164q1.952 0 2.936 1.498l.632 1.06.633-1.06c.654-.999 1.636-1.498 2.933-1.498 1.122 0 2.026.395 2.718 1.164q1.002 1.155 1 3.12"/><defs><linearGradient id="a" x1="12" x2="12" y1="0" y2="24" gradientUnits="userSpaceOnUse"><stop stop-color="#6364FF"/><stop offset="1" stop-color="#563ACC"/></linearGradient></defs></svg>