<svg xmlns="http://www.w3.org/2000/svg" fill="none" viewBox="0 0 24 24"><path fill="#EE1D52" d="M17.12 8.663a9.43 9.43 0 0 0 5.499 1.76V6.478q-.583 0-1.155-.121v3.104a9.43 9.43 0 0 1-5.498-1.759v8.048a7.29 7.29 0 0 1-7.293 7.289 7.26 7.26 0 0 1-4.06-1.233A7.27 7.27 0 0 0 9.828 24a7.29 7.29 0 0 0 7.293-7.29zm1.425-3.978a5.5 5.5 0 0 1-1.424-3.218V.96h-1.095a5.52 5.52 0 0 0 2.519 3.725M7.161 18.718a3.335 3.335 0 0 1 3.667-5.196V9.49a7.4 7.4 0 0 0-1.154-.067v3.138a3.335 3.335 0 0 0-2.513 6.157"/><path fill="#010101" d="M15.966 7.703a9.43 9.43 0 0 0 5.499 1.759V6.358a5.52 5.52 0 0 1-2.92-1.673A5.52 5.52 0 0 1 16.027.96h-2.875v15.75a3.336 3.336 0 0 1-5.991 2.008 3.334 3.334 0 0 1 1.5-6.313c.354 0 .694.055 1.013.156V9.423a7.29 7.29 0 0 0-5.06 12.384 7.26 7.26 0 0 0 4.06 1.233 7.29 7.29 0 0 0 7.292-7.29z"/><path fill="#69C9D0" d="M21.465 6.358v-.84a5.5 5.5 0 0 1-2.92-.833 5.5 5.5 0 0 0 2.92 1.673M16.027.96a6 6 0 0 1-.06-.453V0h-3.97v15.75a3.335 3.335 0 0 1-4.836 2.968 3.336 3.336 0 0 0 5.992-2.007V.96zM9.674 9.423V8.53a7.29 7.29 0 0 0-8.294 7.22 7.28 7.28 0 0 0 3.234 6.057 7.29 7.29 0 0 1 5.06-12.384"/></svg>