<svg xmlns="http://www.w3.org/2000/svg" fill="none" viewBox="0 0 24 24"><path fill="#000" d="M17.743 11.124a9 9 0 0 0-.315-.143c-.185-3.414-2.05-5.368-5.182-5.388h-.043c-1.873 0-3.43.8-4.39 2.255l1.723 1.181c.716-1.087 1.84-1.318 2.668-1.318h.029c1.031.006 1.81.306 2.313.89.366.426.612 1.015.733 1.757a13.2 13.2 0 0 0-2.96-.143c-2.978.172-4.892 1.909-4.763 4.322.065 1.223.675 2.277 1.717 2.964.88.582 2.015.866 3.194.802 1.557-.085 2.78-.68 3.631-1.766.648-.825 1.057-1.894 1.238-3.241.742.448 1.292 1.037 1.596 1.745.516 1.205.546 3.184-1.069 4.797-1.415 1.414-3.115 2.025-5.685 2.044-2.852-.02-5.008-.935-6.41-2.717-1.313-1.67-1.991-4.08-2.017-7.165.026-3.085.704-5.496 2.017-7.165 1.402-1.782 3.558-2.696 6.41-2.717 2.871.02 5.065.94 6.52 2.73.715.879 1.253 1.983 1.607 3.27l2.019-.538c-.43-1.585-1.107-2.95-2.028-4.083C18.43 1.2 15.701.024 12.185 0h-.015C8.661.024 5.962 1.205 4.15 3.51c-1.614 2.05-2.446 4.904-2.474 8.482v.016c.028 3.578.86 6.431 2.473 8.482 1.813 2.305 4.512 3.486 8.021 3.51h.014c3.12-.022 5.32-.838 7.132-2.649 2.37-2.368 2.299-5.336 1.517-7.158-.56-1.307-1.629-2.368-3.09-3.07m-5.387 5.064c-1.305.074-2.66-.512-2.728-1.766-.05-.93.662-1.969 2.808-2.092q.369-.022.724-.021c.779 0 1.508.075 2.171.22-.247 3.088-1.697 3.59-2.975 3.66"/></svg>