<svg xmlns="http://www.w3.org/2000/svg" fill="none" viewBox="0 0 24 24"><path fill="url(#a)" fill-rule="evenodd" d="M22 12c0 5.523-4.477 10-10 10S2 17.523 2 12 6.477 2 12 2s10 4.477 10 10Zm-9.642-2.617c-.972.404-2.916 1.241-5.831 2.512-.474.188-.722.372-.744.552-.039.304.343.424.862.587l.218.07c.51.166 1.198.36 1.555.368.324.007.685-.127 1.084-.4 2.724-1.84 4.13-2.769 4.218-2.789.063-.014.149-.032.207.02.059.052.053.15.047.177-.038.161-1.534 1.552-2.308 2.272-.241.224-.413.383-.448.42a8.802 8.802 0 0 1-.235.232c-.474.457-.83.8.02 1.36.408.27.735.492 1.061.714.356.242.711.484 1.17.785.118.077.23.157.338.234.415.296.787.561 1.247.519.267-.025.543-.276.683-1.026.332-1.77.983-5.608 1.133-7.19a1.764 1.764 0 0 0-.017-.393.422.422 0 0 0-.142-.27c-.12-.098-.305-.118-.387-.117-.376.007-.953.207-3.73 1.363Z" clip-rule="evenodd"/><path fill="#fff" fill-rule="evenodd" d="M6.527 11.895a476.36 476.36 0 0 1 5.832-2.512c2.777-1.156 3.354-1.356 3.73-1.363.083-.001.268.02.387.116a.421.421 0 0 1 .143.271c.013.078.03.255.016.394-.15 1.581-.801 5.418-1.133 7.19-.14.749-.416 1-.683 1.025-.58.053-1.022-.384-1.584-.753-.88-.577-1.377-.936-2.232-1.499-.987-.65-.347-1.008.216-1.592.147-.154 2.706-2.48 2.755-2.692.006-.026.012-.125-.046-.177-.059-.052-.145-.034-.208-.02-.088.02-1.494.95-4.218 2.788-.399.274-.76.408-1.084.4-.357-.007-1.044-.201-1.554-.367-.627-.204-1.124-.311-1.081-.657.022-.18.27-.364.744-.552Z" clip-rule="evenodd"/><defs><linearGradient id="a" x1="12" x2="12" y1="2" y2="21.852" gradientUnits="userSpaceOnUse"><stop stop-color="#2AABEE"/><stop offset="1" stop-color="#229ED9"/></linearGradient></defs></svg>