<svg xmlns="http://www.w3.org/2000/svg" fill="none" viewBox="0 0 24 24"><path fill="#464649" d="M12 0c6.627 0 12 5.373 12 12s-5.373 12-12 12S0 18.627 0 12 5.373 0 12 0m4.906 7.225c-.451.008-1.144.248-4.476 1.634q-1.751.729-6.998 3.014-.852.339-.893.663c-.052.415.545.545 1.297.79.613.198 1.437.431 1.865.44q.583.013 1.302-.48 4.903-3.31 5.062-3.347c.074-.016.177-.037.248.025.07.062.063.18.055.212-.06.253-3.129 3.047-3.306 3.23-.675.701-1.443 1.13-.258 1.911 1.025.676 1.621 1.107 2.677 1.8.675.442 1.205.966 1.902.902.32-.03.652-.332.82-1.23.398-2.126 1.179-6.73 1.36-8.628a2 2 0 0 0-.021-.473.5.5 0 0 0-.17-.325c-.145-.116-.367-.14-.466-.138"/></svg>