<svg xmlns="http://www.w3.org/2000/svg" fill="none" viewBox="0 0 24 24"><path fill="#fff" d="M3 5h18v14H3z"/><path fill="#1ED760" fill-rule="evenodd" d="M0 12C0 5.372 5.373 0 12 0c6.628 0 12 5.372 12 12s-5.372 12-12 12C5.373 24 0 18.628 0 12Zm5.157-2.75c3.693-1.12 10.073-.909 13.941 1.388a1.122 1.122 0 1 0 1.146-1.93c-4.453-2.644-11.5-2.892-15.738-1.605a1.123 1.123 0 0 0 .651 2.148Zm12.528 5.099a.936.936 0 0 0 .979-1.595c-3.704-2.276-9.122-2.916-13.48-1.594a.937.937 0 0 0-.624 1.167.937.937 0 0 0 1.167.623c3.816-1.158 8.733-.584 11.958 1.399Zm-1.21 3.208a.747.747 0 1 0 .78-1.277c-3.163-1.933-7.084-2.383-11.655-1.338a.747.747 0 1 0 .333 1.458c4.177-.954 7.724-.565 10.542 1.157Z" clip-rule="evenodd"/></svg>