<svg xmlns="http://www.w3.org/2000/svg" fill="none" viewBox="0 0 24 24"><g clip-path="url(#a)"><path fill="#ff4500" d="M12 0C5.372 0 0 5.372 0 12c0 3.313 1.343 6.313 3.514 8.485L1.23 22.771A.72.72 0 0 0 1.738 24H12c6.628 0 12-5.372 12-12S18.628 0 12 0"/><path fill="url(#b)" d="M18.802 14.689a2.802 2.802 0 1 0 0-5.605 2.802 2.802 0 0 0 0 5.605"/><path fill="url(#c)" d="M5.198 14.689a2.802 2.802 0 1 0 0-5.605 2.802 2.802 0 0 0 0 5.605"/><path fill="url(#d)" d="M12.007 20.293c4.418 0 8-2.686 8-6s-3.582-6-8-6-8 2.687-8 6 3.581 6 8 6"/><path fill="url(#e)" d="M9.642 13.72c-.046 1.009-.72 1.375-1.506 1.375s-1.385-.547-1.338-1.556c.047-1.01.721-1.67 1.507-1.67s1.384.843 1.337 1.852z"/><path fill="url(#f)" d="M14.372 13.72c.047 1.009.721 1.375 1.507 1.375s1.384-.547 1.337-1.556c-.046-1.01-.72-1.67-1.506-1.67s-1.385.843-1.338 1.852z"/><path fill="#ffc49c" d="M8.848 13.269c.171 0 .31-.152.31-.34 0-.186-.139-.338-.31-.338-.172 0-.312.152-.312.339s.14.339.312.339m7.397 0c.172 0 .311-.152.311-.34 0-.186-.139-.338-.31-.338-.172 0-.312.152-.312.339s.14.339.311.339"/><path fill="url(#g)" d="M12.007 15.88a28 28 0 0 0-2.77.135.22.22 0 0 0-.183.305 3.2 3.2 0 0 0 5.905 0 .22.22 0 0 0-.184-.305 28 28 0 0 0-2.768-.135"/><path fill="url(#h)" d="M16.388 7.478a1.986 1.986 0 1 0 0-3.971 1.986 1.986 0 0 0 0 3.97"/><path fill="url(#i)" d="M11.978 8.547c-.238 0-.43-.1-.43-.253a3.23 3.23 0 0 1 3.226-3.226.43.43 0 1 1 0 .86 2.37 2.37 0 0 0-2.365 2.365c0 .154-.192.252-.43.252z"/><path fill="#842123" d="M6.98 13.628c.043-.951.676-1.574 1.41-1.574.696 0 1.233.71 1.253 1.592.02-.986-.57-1.776-1.338-1.776-.77 0-1.46.672-1.507 1.689s.552 1.536 1.338 1.536h.057c-.715-.018-1.255-.532-1.212-1.466zm10.053 0c-.043-.951-.675-1.574-1.41-1.574-.695 0-1.233.71-1.253 1.592-.019-.986.57-1.776 1.339-1.776.785 0 1.46.672 1.506 1.689s-.552 1.536-1.337 1.536h-.058c.715-.018 1.256-.532 1.212-1.466z"/></g><defs><radialGradient id="b" cx="0" cy="0" r="1" gradientTransform="matrix(5.66436 0 0 4.92799 18.86 10.205)" gradientUnits="userSpaceOnUse"><stop stop-color="#feffff"/><stop offset=".4" stop-color="#feffff"/><stop offset=".51" stop-color="#f9fcfc"/><stop offset=".62" stop-color="#edf3f5"/><stop offset=".7" stop-color="#dee9ec"/><stop offset=".72" stop-color="#d8e4e8"/><stop offset=".76" stop-color="#ccd8df"/><stop offset=".8" stop-color="#c8d5dd"/><stop offset=".83" stop-color="#ccd6de"/><stop offset=".85" stop-color="#d8dbe2"/><stop offset=".88" stop-color="#ede3e9"/><stop offset=".9" stop-color="#ffebef"/></radialGradient><radialGradient id="c" cx="0" cy="0" r="1" gradientTransform="matrix(5.66436 0 0 4.92799 5.257 1.342)" gradientUnits="userSpaceOnUse"><stop stop-color="#feffff"/><stop offset=".4" stop-color="#feffff"/><stop offset=".51" stop-color="#f9fcfc"/><stop offset=".62" stop-color="#edf3f5"/><stop offset=".7" stop-color="#dee9ec"/><stop offset=".72" stop-color="#d8e4e8"/><stop offset=".76" stop-color="#ccd8df"/><stop offset=".8" stop-color="#c8d5dd"/><stop offset=".83" stop-color="#ccd6de"/><stop offset=".85" stop-color="#d8dbe2"/><stop offset=".88" stop-color="#ede3e9"/><stop offset=".9" stop-color="#ffebef"/></radialGradient><radialGradient id="d" cx="0" cy="0" r="1" gradientTransform="matrix(17.0864 0 0 11.9605 12.179 9.497)" gradientUnits="userSpaceOnUse"><stop stop-color="#feffff"/><stop offset=".4" stop-color="#feffff"/><stop offset=".51" stop-color="#f9fcfc"/><stop offset=".62" stop-color="#edf3f5"/><stop offset=".7" stop-color="#dee9ec"/><stop offset=".72" stop-color="#d8e4e8"/><stop offset=".76" stop-color="#ccd8df"/><stop offset=".8" stop-color="#c8d5dd"/><stop offset=".83" stop-color="#ccd6de"/><stop offset=".85" stop-color="#d8dbe2"/><stop offset=".88" stop-color="#ede3e9"/><stop offset=".9" stop-color="#ffebef"/></radialGradient><radialGradient id="e" cx="0" cy="0" r="1" gradientTransform="matrix(1.5277 0 0 2.21302 8.294 14.168)" gradientUnits="userSpaceOnUse"><stop stop-color="#f60"/><stop offset=".5" stop-color="#ff4500"/><stop offset=".7" stop-color="#fc4301"/><stop offset=".82" stop-color="#f43f07"/><stop offset=".92" stop-color="#e53812"/><stop offset="1" stop-color="#d4301f"/></radialGradient><radialGradient id="f" cx="0" cy="0" r="1" gradientTransform="matrix(-1.5277 0 0 -2.21302 15.73 14.168)" gradientUnits="userSpaceOnUse"><stop stop-color="#f60"/><stop offset=".5" stop-color="#ff4500"/><stop offset=".7" stop-color="#fc4301"/><stop offset=".82" stop-color="#f43f07"/><stop offset=".92" stop-color="#e53812"/><stop offset="1" stop-color="#d4301f"/></radialGradient><radialGradient id="g" cx="0" cy="0" r="1" gradientTransform="matrix(5.03326 0 0 3.32195 11.992 18.621)" gradientUnits="userSpaceOnUse"><stop stop-color="#172e35"/><stop offset=".29" stop-color="#0e1c21"/><stop offset=".73" stop-color="#030708"/><stop offset="1"/></radialGradient><radialGradient id="h" cx="0" cy="0" r="1" gradientTransform="matrix(4.41882 0 0 4.33045 16.431 3.647)" gradientUnits="userSpaceOnUse"><stop stop-color="#feffff"/><stop offset=".4" stop-color="#feffff"/><stop offset=".51" stop-color="#f9fcfc"/><stop offset=".62" stop-color="#edf3f5"/><stop offset=".7" stop-color="#dee9ec"/><stop offset=".72" stop-color="#d8e4e8"/><stop offset=".76" stop-color="#ccd8df"/><stop offset=".8" stop-color="#c8d5dd"/><stop offset=".83" stop-color="#ccd6de"/><stop offset=".85" stop-color="#d8dbe2"/><stop offset=".88" stop-color="#ede3e9"/><stop offset=".9" stop-color="#ffebef"/></radialGradient><radialGradient id="i" cx="0" cy="0" r="1" gradientTransform="translate(14.59 8.12)scale(3.62217)" gradientUnits="userSpaceOnUse"><stop offset=".48" stop-color="#7a9299"/><stop offset=".67" stop-color="#172e35"/><stop offset=".75"/><stop offset=".82" stop-color="#172e35"/></radialGradient><clipPath id="a"><path fill="#fff" d="M0 0h24v24H0z"/></clipPath></defs></svg>