<svg xmlns="http://www.w3.org/2000/svg" fill="none" viewBox="0 0 24 24"><path fill="url(#a)" d="M12 24c6.627 0 12-5.373 12-12S18.627 0 12 0 0 5.373 0 12s5.373 12 12 12Z"/><path fill="#fff" fill-rule="evenodd" d="M5.432 11.873a572.556 572.556 0 0 1 6.998-3.014c3.333-1.386 4.025-1.627 4.476-1.635.1-.002.322.023.465.14a.506.506 0 0 1 .171.325c.016.093.036.306.02.472-.18 1.898-.962 6.502-1.36 8.627-.168.9-.499 1.201-.82 1.23-.696.065-1.225-.46-1.9-.902-1.056-.692-1.653-1.123-2.678-1.8-1.185-.78-.417-1.209.258-1.91.177-.184 3.247-2.976 3.307-3.23.007-.032.014-.15-.056-.212s-.174-.041-.249-.024c-.106.024-1.793 1.14-5.061 3.346-.48.328-.913.489-1.302.48-.428-.01-1.252-.242-1.865-.441-.752-.244-1.349-.374-1.297-.789.027-.216.325-.437.893-.662Z" clip-rule="evenodd"/><defs><linearGradient id="a" x1="12" x2="12" y1="0" y2="23.822" gradientUnits="userSpaceOnUse"><stop stop-color="#2AABEE"/><stop offset="1" stop-color="#229ED9"/></linearGradient></defs></svg>