<svg xmlns="http://www.w3.org/2000/svg" fill="none" viewBox="0 0 24 24"><path fill="url(#a)" fill-rule="evenodd" d="m7.014 20.407-.362-.214-3.742.981 1-3.647-.236-.374a9.858 9.858 0 0 1-1.512-5.26c.002-5.45 4.438-9.884 9.892-9.884a9.824 9.824 0 0 1 6.99 2.899 9.824 9.824 0 0 1 2.894 6.993c-.002 5.45-4.438 9.884-9.888 9.884h-.004a9.875 9.875 0 0 1-5.032-1.378Zm-5.273-2.57L.054 24l6.306-1.654a11.888 11.888 0 0 0 5.685 1.448h.005c6.557 0 11.894-5.336 11.897-11.893a11.82 11.82 0 0 0-3.482-8.413A11.822 11.822 0 0 0 12.05 0C5.493 0 .156 5.335.154 11.892a11.873 11.873 0 0 0 1.586 5.945ZM8.408 6.411c.212.009.446.019.669.514.152.338.408.969.612 1.472.15.37.273.671.304.734.075.149.124.322.025.52l-.042.085a1.696 1.696 0 0 1-.255.412c-.05.057-.1.12-.152.182-.102.124-.205.25-.294.338-.149.148-.304.31-.13.607.173.297.77 1.27 1.653 2.058a7.684 7.684 0 0 0 2.193 1.386c.082.036.149.065.198.09.297.148.47.123.644-.075.173-.199.742-.868.94-1.165.199-.298.397-.248.67-.15.272.1 1.733.819 2.03.968l.163.079c.207.1.348.168.407.268.075.124.075.719-.173 1.413-.248.694-1.461 1.363-2.006 1.413-.053.005-.105.01-.159.017-.503.06-1.139.134-3.408-.76-2.793-1.102-4.634-3.831-5.014-4.395l-.064-.093-.003-.004c-.16-.214-1.21-1.618-1.21-3.07 0-1.369.672-2.086.982-2.417l.058-.062c.272-.297.594-.372.792-.372h.033c.187 0 .373 0 .537.007Z" clip-rule="evenodd"/><defs><linearGradient id="a" x1=".054" x2="23.947" y1="12.001" y2="12.001" gradientUnits="userSpaceOnUse"><stop stop-color="#20B038"/><stop offset="1" stop-color="#60D66A"/></linearGradient></defs></svg>