<svg xmlns="http://www.w3.org/2000/svg" fill="none" viewBox="0 0 24 24"><path fill="#3A76F0" d="m9.12.35.27 1.092a10.9 10.9 0 0 0-3.015 1.247l-.577-.964A12 12 0 0 1 9.12.35m5.76 0-.27 1.092c1.062.26 2.079.681 3.015 1.247l.581-.964A12 12 0 0 0 14.88.35M1.725 5.798A12 12 0 0 0 .351 9.119l1.09.27A10.8 10.8 0 0 1 2.69 6.375zM1.125 12q0-.819.122-1.63l-1.112-.168a12 12 0 0 0 0 3.596l1.112-.169A11 11 0 0 1 1.125 12m17.078 10.274-.578-.963c-.935.565-1.95.985-3.011 1.246l.27 1.092a12 12 0 0 0 3.319-1.375M22.875 12q0 .819-.122 1.63l1.112.168a12 12 0 0 0 0-3.596l-1.112.169q.122.81.122 1.63m.774 2.88-1.09-.27a10.9 10.9 0 0 1-1.248 3.015l.964.58a12 12 0 0 0 1.374-3.325m-10.02 7.874c-1.08.163-2.178.163-3.258 0l-.17 1.112c1.193.18 2.405.18 3.597 0zm7.125-4.303a11 11 0 0 1-2.304 2.303l.668.905a12 12 0 0 0 2.542-2.535zM18.45 3.245c.88.649 1.656 1.426 2.304 2.305l.906-.675a12 12 0 0 0-2.535-2.535zM3.246 5.55A11 11 0 0 1 5.55 3.245l-.675-.905A12 12 0 0 0 2.34 4.875zm19.029.247-.964.578c.565.935.986 1.95 1.247 3.01l1.091-.27a12 12 0 0 0-1.374-3.318m-11.904-4.55a11 11 0 0 1 3.258 0L13.8.135a12 12 0 0 0-3.597 0zm-6.548 20.71-2.323.541.542-2.323-1.095-.257-.542 2.323a1.125 1.125 0 0 0 1.352 1.352l2.321-.532zm-2.642-3.042 1.095.255.375-1.61a10.8 10.8 0 0 1-1.21-2.951l-1.09.27a12 12 0 0 0 1.106 2.851zm5.25 2.438-1.61.375.255 1.095 1.185-.276c.899.49 1.857.861 2.852 1.106l.27-1.091a10.8 10.8 0 0 1-2.944-1.217zM12 2.25a9.75 9.75 0 0 0-8.25 14.937l-.938 3.999 4-.938A9.75 9.75 0 0 0 21.21 8.778 9.75 9.75 0 0 0 12 2.25"/></svg>