<svg xmlns="http://www.w3.org/2000/svg" fill="none" viewBox="0 0 24 24"><path fill="#fff" d="M2 9h20v8H2z"/><path fill="#5865F2" fill-rule="evenodd" d="M15.432 2.855c1.715.296 3.355.813 4.885 1.515a.06.06 0 0 1 .031.028c2.71 3.987 4.05 8.484 3.549 13.66a.077.077 0 0 1-.032.056 19.834 19.834 0 0 1-6.002 3.03.076.076 0 0 1-.084-.03 15.987 15.987 0 0 1-1.225-1.993.077.077 0 0 1 .04-.106 12.302 12.302 0 0 0 1.874-.892.077.077 0 0 0 .006-.127 9.528 9.528 0 0 1-.372-.293.074.074 0 0 0-.079-.01c-3.881 1.794-8.134 1.794-12.061 0a.074.074 0 0 0-.078.011c-.12.1-.246.197-.372.292-.043.032-.04.1.008.127.598.343 1.22.645 1.872.893a.076.076 0 0 1 .041.105 14.226 14.226 0 0 1-1.226 1.995.078.078 0 0 1-.084.027 19.9 19.9 0 0 1-5.993-3.03.082.082 0 0 1-.03-.055c-.42-4.478.432-9.012 3.544-13.66a.07.07 0 0 1 .032-.028 19.737 19.737 0 0 1 4.885-1.515.077.077 0 0 1 .079.037c.211.375.454.856.617 1.25a18.271 18.271 0 0 1 5.487 0c.164-.386.397-.875.608-1.25a.074.074 0 0 1 .079-.037ZM8.02 15.33c-1.183 0-2.157-1.086-2.157-2.419s.956-2.419 2.157-2.419c1.21 0 2.176 1.095 2.157 2.42 0 1.332-.956 2.418-2.157 2.418Zm7.975 0c-1.183 0-2.157-1.086-2.157-2.419s.955-2.419 2.157-2.419c1.21 0 2.176 1.095 2.157 2.42 0 1.332-.946 2.418-2.157 2.418Z" clip-rule="evenodd"/></svg>