<svg xmlns="http://www.w3.org/2000/svg" fill="none" viewBox="0 0 24 24"><path fill="#FF4500" fill-rule="evenodd" d="M24 12c0 6.627-5.373 12-12 12S0 18.627 0 12 5.373 0 12 0s12 5.373 12 12m-3.995 0c0-.974-.788-1.747-1.747-1.747-.473 0-.902.186-1.217.487-1.203-.86-2.85-1.418-4.683-1.49l.802-3.75 2.606.558a1.245 1.245 0 1 0 1.246-1.303c-.487 0-.917.286-1.117.702l-2.907-.616a.3.3 0 0 0-.23.043.28.28 0 0 0-.128.2l-.888 4.182c-1.861.057-3.537.615-4.754 1.49a1.76 1.76 0 0 0-1.217-.488 1.745 1.745 0 0 0-.716 3.337 3 3 0 0 0-.043.53c0 2.692 3.136 4.883 7.002 4.883 3.867 0 7.003-2.177 7.003-4.883 0-.172-.015-.359-.043-.53A1.76 1.76 0 0 0 20.004 12m-12 1.246a1.247 1.247 0 1 1 1.246 1.246c-.688.014-1.246-.559-1.246-1.246m4.01 4.224c.472 0 2.104-.057 2.964-.916a.35.35 0 0 0 0-.459.32.32 0 0 0-.459 0c-.53.545-1.69.73-2.505.73-.817 0-1.962-.185-2.507-.73a.32.32 0 0 0-.458 0 .32.32 0 0 0 0 .459c.845.844 2.478.916 2.964.916m2.734-2.964a1.247 1.247 0 1 1 1.246-1.246c0 .673-.558 1.246-1.246 1.246" clip-rule="evenodd"/><path fill="#fff" fill-rule="evenodd" d="M18.258 10.253c.96 0 1.747.773 1.747 1.747 0 .716-.43 1.332-1.031 1.604.029.171.043.358.043.53 0 2.706-3.136 4.883-7.002 4.883-3.867 0-7.003-2.191-7.003-4.883 0-.187.014-.359.043-.53a1.743 1.743 0 0 1 .716-3.337c.472 0 .902.186 1.217.487 1.217-.873 2.893-1.432 4.754-1.49l.888-4.18a.28.28 0 0 1 .129-.201c.057-.043.143-.057.23-.043l2.906.616c.2-.416.63-.702 1.117-.702a1.247 1.247 0 1 1-1.246 1.303L13.16 5.5l-.802 3.752c1.833.071 3.48.63 4.683 1.489a1.76 1.76 0 0 1 1.217-.487M9.25 12c-.688 0-1.246.558-1.246 1.246s.558 1.26 1.246 1.246a1.247 1.247 0 0 0 0-2.492m5.728 4.554c-.86.859-2.492.916-2.964.916-.487 0-2.12-.072-2.965-.916a.32.32 0 0 1 0-.459.32.32 0 0 1 .458 0c.545.545 1.69.73 2.507.73.816 0 1.976-.185 2.505-.73a.32.32 0 0 1 .459 0 .35.35 0 0 1 0 .459m-1.475-3.294c0 .687.558 1.246 1.245 1.246s1.246-.573 1.246-1.246a1.247 1.247 0 0 0-2.491 0" clip-rule="evenodd"/></svg>