<svg xmlns="http://www.w3.org/2000/svg" fill="none" viewBox="0 0 24 24"><path fill="url(#a)" fill-rule="evenodd" d="m7.013 20.407-.36-.214-3.743.981.999-3.647-.235-.374a9.858 9.858 0 0 1-1.512-5.26c.002-5.45 4.438-9.884 9.892-9.884a9.824 9.824 0 0 1 6.99 2.899 9.824 9.824 0 0 1 2.894 6.993c-.003 5.45-4.438 9.884-9.888 9.884h-.004a9.875 9.875 0 0 1-5.033-1.378Zm-5.272-2.57L.054 24l6.306-1.654a11.888 11.888 0 0 0 5.685 1.448h.005c6.556 0 11.894-5.336 11.896-11.893a11.82 11.82 0 0 0-3.48-8.413A11.822 11.822 0 0 0 12.05 0C5.492 0 .156 5.335.153 11.892c0 2.096.547 4.142 1.588 5.945ZM8.408 6.411c.212.009.446.019.669.514.152.338.408.969.612 1.472.15.37.272.671.304.734.074.149.124.322.025.52l-.042.085c-.074.152-.13.264-.255.412-.05.057-.1.12-.152.182-.102.124-.205.25-.294.338-.15.148-.304.31-.13.607.173.297.77 1.27 1.653 2.058a7.703 7.703 0 0 0 2.193 1.386c.082.036.149.065.197.09.298.148.471.123.644-.075.174-.199.743-.868.941-1.165.199-.298.397-.248.67-.15.272.1 1.733.819 2.03.968l.163.079c.207.1.347.168.407.268.075.124.075.719-.173 1.413-.248.694-1.462 1.363-2.007 1.413-.052.005-.104.01-.158.017-.503.06-1.14.134-3.409-.76-2.792-1.102-4.633-3.831-5.013-4.395l-.064-.093-.004-.004c-.16-.214-1.21-1.618-1.21-3.07 0-1.369.673-2.086.983-2.417l.058-.062c.272-.297.594-.372.792-.372h.033c.187 0 .373 0 .537.007Z" clip-rule="evenodd"/><defs><linearGradient id="a" x1=".054" x2="23.946" y1="12.001" y2="12.001" gradientUnits="userSpaceOnUse"><stop stop-color="#20B038"/><stop offset="1" stop-color="#60D66A"/></linearGradient></defs></svg>