<svg xmlns="http://www.w3.org/2000/svg" fill="none" viewBox="0 0 24 24"><g clip-path="url(#a)"><path fill="#000" d="M12 24c6.627 0 12-5.373 12-12S18.627 0 12 0 0 5.373 0 12s5.373 12 12 12Z"/><path fill="#66FFF6" d="m17.443 14.764-1.816 1.898a.424.424 0 0 1-.308.13H6.711a.214.214 0 0 1-.194-.123.2.2 0 0 1 .04-.222l1.817-1.897a.423.423 0 0 1 .307-.131h8.608a.214.214 0 0 1 .194.123.2.2 0 0 1-.04.222Zm-1.816-3.82a.422.422 0 0 0-.308-.13H6.711a.215.215 0 0 0-.116.033.2.2 0 0 0-.039.312l1.818 1.897a.421.421 0 0 0 .307.13h8.608a.208.208 0 0 0 .193-.123.2.2 0 0 0-.039-.222l-1.816-1.897ZM6.711 9.581h8.608a.432.432 0 0 0 .308-.13l1.816-1.898a.204.204 0 0 0 .04-.221.208.208 0 0 0-.194-.124H8.681a.431.431 0 0 0-.307.13L6.557 9.237a.203.203 0 0 0-.04.222.207.207 0 0 0 .078.09.215.215 0 0 0 .116.033Z"/></g><defs><clipPath id="a"><path fill="#fff" d="M0 0h24v24H0z"/></clipPath></defs></svg>