<svg xmlns="http://www.w3.org/2000/svg" fill="none" viewBox="0 0 24 24"><path fill="url(#a)" d="M5.925 15.306a.601.601 0 0 1 .415-.165h14.366c.261 0 .392.303.207.48l-2.838 2.714a.601.601 0 0 1-.415.165H3.294c-.261 0-.392-.303-.207-.48l2.838-2.714Z"/><path fill="url(#b)" d="M5.925 5.165A.6.6 0 0 1 6.34 5h14.366c.261 0 .392.303.207.48l-2.838 2.714a.601.601 0 0 1-.415.165H3.294c-.261 0-.392-.303-.207-.48l2.838-2.714Z"/><path fill="url(#c)" d="M18.075 10.203a.6.6 0 0 0-.415-.165H3.294c-.261 0-.392.303-.207.48l2.838 2.715a.6.6 0 0 0 .415.164h14.366c.261 0 .392-.303.207-.48l-2.838-2.714Z"/><defs><linearGradient id="a" x1="15.169" x2="5.896" y1="1.297" y2="19.856" gradientUnits="userSpaceOnUse"><stop stop-color="#00FFA3"/><stop offset="1" stop-color="#DC1FFF"/></linearGradient><linearGradient id="b" x1="15.169" x2="5.896" y1="1.297" y2="19.856" gradientUnits="userSpaceOnUse"><stop stop-color="#00FFA3"/><stop offset="1" stop-color="#DC1FFF"/></linearGradient><linearGradient id="c" x1="15.169" x2="5.896" y1="1.297" y2="19.856" gradientUnits="userSpaceOnUse"><stop stop-color="#00FFA3"/><stop offset="1" stop-color="#DC1FFF"/></linearGradient></defs></svg>