<svg xmlns="http://www.w3.org/2000/svg" fill="none" viewBox="0 0 24 24"><path fill="#62757E" fill-rule="evenodd" d="M19.399 3.399a.85.85 0 0 1 1.202 1.202l-16 16A.85.85 0 0 1 3.4 19.4l.629-.629c-.832-.668-1.052-1.993-.158-2.879l1.845-1.845-1.845-1.843c-.673-.666-.715-1.581-.34-2.278-.375-.697-.333-1.612.34-2.278l2.204-2.201c.4-.4.946-.632 1.524-.632h10.386zm-3.115 3.115H7.598a.46.46 0 0 0-.322.134L5.068 8.853a.2.2 0 0 0-.047.065.228.228 0 0 0 .208.324h8.327zm-4.094 4.094H5.23a.228.228 0 0 0-.208.324.2.2 0 0 0 .047.065l2.208 2.205a.46.46 0 0 0 .322.134h1.864zm-4.147 4.147h-.445a.46.46 0 0 0-.322.134l-2.208 2.208a.227.227 0 0 0 .161.389h.083zm4.776 0 1.42-1.42h4.532a.23.23 0 0 0 .226-.268.22.22 0 0 0-.065-.12l-2.154-2.151 3.925-3.924a1.9 1.9 0 0 1-.573 1.237l-1.818 1.816 1.818 1.816c.681.675.716 1.604.326 2.305.39.7.355 1.629-.326 2.304l-2.204 2.204c-.4.4-.946.632-1.524.632H8.388l1.7-1.7h6.314a.45.45 0 0 0 .322-.134l2.208-2.208a.22.22 0 0 0 .065-.12.23.23 0 0 0-.226-.269z" clip-rule="evenodd"/></svg>