<svg xmlns="http://www.w3.org/2000/svg" fill="none" viewBox="0 0 24 24"><path fill="url(#a)" d="m21.897 17.026-3.302 3.45a.77.77 0 0 1-.56.237H2.383a.4.4 0 0 1-.21-.061.365.365 0 0 1-.07-.567l3.304-3.45a.77.77 0 0 1 .56-.237h15.65a.38.38 0 0 1 .352.225.365.365 0 0 1-.072.403m-3.302-6.946a.77.77 0 0 0-.56-.237H2.383a.4.4 0 0 0-.21.06.364.364 0 0 0-.07.567l3.304 3.45a.77.77 0 0 0 .56.237h15.65a.4.4 0 0 0 .21-.06.365.365 0 0 0 .07-.567zM2.383 7.602h15.652a.78.78 0 0 0 .56-.237l3.302-3.45a.37.37 0 0 0 .071-.403.4.4 0 0 0-.141-.164.4.4 0 0 0-.21-.06H5.967a.78.78 0 0 0-.56.236l-3.303 3.45a.37.37 0 0 0-.072.403c.03.067.08.124.141.164a.4.4 0 0 0 .21.061"/><defs><linearGradient id="a" x1="3.688" x2="19.622" y1="21.128" y2="2.69" gradientUnits="userSpaceOnUse"><stop offset=".08" stop-color="#9945FF"/><stop offset=".3" stop-color="#8752F3"/><stop offset=".5" stop-color="#5497D5"/><stop offset=".6" stop-color="#43B4CA"/><stop offset=".72" stop-color="#28E0B9"/><stop offset=".97" stop-color="#19FB9B"/></linearGradient></defs></svg>