<svg xmlns="http://www.w3.org/2000/svg" fill="none" viewBox="0 0 24 24"><path fill="#62757E" fill-rule="evenodd" d="M14.47 9.53a.75.75 0 0 0 1.06 0l1.72-1.72V18a.75.75 0 0 0 1.5 0V7.81l1.72 1.72a.75.75 0 1 0 1.06-1.06l-3-3a.748.748 0 0 0-.528-.22h-.004a.748.748 0 0 0-.528.22l-3 3a.75.75 0 0 0 0 1.06ZM4 6.75a.75.75 0 0 1 0-1.5h7a.75.75 0 0 1 0 1.5H4ZM3.25 12c0 .414.336.75.75.75h7a.75.75 0 0 0 0-1.5H4a.75.75 0 0 0-.75.75Zm0 6c0 .414.336.75.75.75h9a.75.75 0 0 0 0-1.5H4a.75.75 0 0 0-.75.75Z" clip-rule="evenodd"/></svg>