<svg xmlns="http://www.w3.org/2000/svg" fill="none" viewBox="0 0 24 24"><path fill="#62757E" fill-rule="evenodd" d="M20.47 9.28a.75.75 0 1 0 1.06-1.06l-3-3a.747.747 0 0 0-1.06 0l-3 3a.75.75 0 0 0 1.06 1.06l1.72-1.72v8.63l-1.72-1.72a.75.75 0 1 0-1.06 1.06l3 3a.75.75 0 0 0 1.06 0l3-3a.75.75 0 1 0-1.06-1.06l-1.72 1.72V7.56zM4 5.25a.75.75 0 0 0 0 1.5h7a.75.75 0 0 0 0-1.5zm0 6a.75.75 0 0 0 0 1.5h7a.75.75 0 0 0 0-1.5zM3.25 18a.75.75 0 0 1 .75-.75h7a.75.75 0 0 1 0 1.5H4a.75.75 0 0 1-.75-.75" clip-rule="evenodd"/></svg>