<svg xmlns="http://www.w3.org/2000/svg" fill="none" viewBox="0 0 24 24"><path fill="#62757E" fill-rule="evenodd" d="M12 22C6.486 22 2 17.514 2 12S6.486 2 12 2s10 4.486 10 10-4.486 10-10 10Zm7.95-7.5h-3.646a5.009 5.009 0 0 1-1.804 1.805v3.644a8.371 8.371 0 0 0 5.45-5.449ZM12 8.668A3.336 3.336 0 0 0 8.667 12 3.337 3.337 0 0 0 12 15.333 3.337 3.337 0 0 0 15.333 12 3.336 3.336 0 0 0 12 8.668Zm0 11.665c.282 0 .56-.015.833-.042v-3.375A4.992 4.992 0 0 1 12 17c-.285 0-.56-.038-.833-.084v3.375c.274.027.551.042.833.042Zm-2.5-.384v-3.645A4.993 4.993 0 0 1 7.696 14.5H4.05a8.37 8.37 0 0 0 5.45 5.45ZM3.667 12c0 .28.015.56.042.833h3.375A4.998 4.998 0 0 1 7 12c0-.285.038-.56.084-.833H3.71a8.351 8.351 0 0 0-.042.833Zm.384-2.5h3.645A5.004 5.004 0 0 1 9.5 7.697V4.05A8.37 8.37 0 0 0 4.05 9.5ZM12 3.667c-.282 0-.56.015-.833.042v3.377c.272-.046.548-.084.833-.084.285 0 .56.038.833.084V3.709A8.337 8.337 0 0 0 12 3.667Zm2.5.384v3.646A5.004 5.004 0 0 1 16.304 9.5h3.645A8.37 8.37 0 0 0 14.5 4.05Zm2.416 7.116c.046.272.084.548.084.833 0 .285-.038.56-.084.833h3.375a8.351 8.351 0 0 0 0-1.666h-3.375Z" clip-rule="evenodd"/></svg>