<svg xmlns="http://www.w3.org/2000/svg" fill="none" viewBox="0 0 24 24"><path fill="#62757E" fill-rule="evenodd" d="M5.698 3.498q-.223 0-.43.042a.8.8 0 0 1-.31-1.57q.36-.071.74-.072h.525a.8.8 0 0 1 0 1.6zm2.876-.8a.8.8 0 0 1 .8-.8h1.05a.8.8 0 1 1 0 1.6h-1.05a.8.8 0 0 1-.8-.8m4.201 0a.8.8 0 0 1 .8-.8h1.05a.8.8 0 1 1 0 1.6h-1.05a.8.8 0 0 1-.8-.8m4.202 0a.8.8 0 0 1 .8-.8h.525q.38 0 .74.073a.8.8 0 1 1-.31 1.57 2.2 2.2 0 0 0-.43-.043h-.525a.8.8 0 0 1-.8-.8M2.91 4.328a.8.8 0 0 1 .63.94 2.2 2.2 0 0 0-.042.43v.525a.8.8 0 1 1-1.6 0v-.525q0-.38.072-.74a.8.8 0 0 1 .94-.63m18.18 0a.8.8 0 0 1 .94.63q.071.36.072.74v.525a.8.8 0 0 1-1.6 0v-.525q0-.223-.042-.43a.8.8 0 0 1 .63-.94M2.697 8.574a.8.8 0 0 1 .8.8v1.05a.8.8 0 0 1-1.6 0v-1.05a.8.8 0 0 1 .8-.8m18.604 0a.8.8 0 0 1 .8.8v1.05a.8.8 0 0 1-1.6 0v-1.05a.8.8 0 0 1 .8-.8M2.698 12.775a.8.8 0 0 1 .8.8v1.05a.8.8 0 0 1-1.6 0v-1.05a.8.8 0 0 1 .8-.8m18.604 0a.8.8 0 0 1 .8.8v1.05a.8.8 0 0 1-1.6 0v-1.05a.8.8 0 0 1 .8-.8M2.698 16.978a.8.8 0 0 1 .8.8v.525q0 .223.042.43a.8.8 0 1 1-1.57.31 4 4 0 0 1-.072-.74v-.525a.8.8 0 0 1 .8-.8m18.604 0a.8.8 0 0 1 .8.8v.525q0 .38-.073.74a.8.8 0 1 1-1.57-.31q.042-.208.043-.43v-.525a.8.8 0 0 1 .8-.8M4.328 21.09a.8.8 0 0 1 .94-.63q.208.041.43.042h.525a.8.8 0 0 1 0 1.6h-.525q-.38 0-.74-.073a.8.8 0 0 1-.63-.94m15.344 0a.8.8 0 0 1-.63.94q-.361.071-.74.072h-.525a.8.8 0 1 1 0-1.6h.525q.222 0 .43-.042a.8.8 0 0 1 .94.63m-11.098.212a.8.8 0 0 1 .8-.8h1.05a.8.8 0 1 1 0 1.6h-1.05a.8.8 0 0 1-.8-.8m4.201 0a.8.8 0 0 1 .8-.8h1.05a.8.8 0 1 1 0 1.6h-1.05a.8.8 0 0 1-.8-.8M5.2 8A2.8 2.8 0 0 1 8 5.2h8A2.8 2.8 0 0 1 18.8 8v8a2.8 2.8 0 0 1-2.8 2.8H8A2.8 2.8 0 0 1 5.2 16zM8 6.8A1.2 1.2 0 0 0 6.8 8v3.069l4.269-4.27zm5.31.02L6.8 13.332V16q0 .034.002.067l9.265-9.265L16 6.8h-2.67zm3.888 1.113L17.2 8v2.67l-.02.02-6.511 6.51h-2.67l-.066-.002zM12.931 17.2H16a1.2 1.2 0 0 0 1.2-1.2v-3.069z" clip-rule="evenodd"/></svg>