<svg xmlns="http://www.w3.org/2000/svg" fill="none" viewBox="0 0 24 24"><path fill="#62757E" fill-rule="evenodd" d="m19.021 3.177-5.127-1.399a21 21 0 0 0-1.063-.272 3 3 0 0 0-.883-.076 2.8 2.8 0 0 0-2.372 1.812c-.104.279-.142.57-.16.872q-.008.165-.012.356a9 9 0 0 0-.279-.064c-.312-.065-.619-.105-.93-.07a2.8 2.8 0 0 0-2.3 1.755c-.115.292-.157.599-.176.917q-.01.173-.014.376a8 8 0 0 0-.348-.069c-.49-.085-.971-.11-1.442.047A2.8 2.8 0 0 0 2.47 8.466c-.275.413-.377.883-.424 1.379C2 10.326 2 10.928 2 11.655v5.269c0 .442 0 .818.024 1.13.025.331.08.645.216.954a2.8 2.8 0 0 0 .767 1.015.849.849 0 0 0 1.441.73L21.21 3.994a.85.85 0 1 0-1.202-1.202l-.515.515zm-.831 1.431-4.695-1.28a20 20 0 0 0-.995-.257c-.236-.05-.345-.053-.408-.048a1.2 1.2 0 0 0-1.017.777c-.022.059-.047.166-.06.406-.011.18-.014.4-.015.692l4.321 1.179c.425.115.787.214 1.081.319zM15.118 7.68l-.245-.067-5.024-1.37a20 20 0 0 0-1.05-.27c-.249-.052-.364-.055-.43-.047a1.2 1.2 0 0 0-.985.752c-.025.062-.053.174-.068.428-.011.181-.015.402-.016.692l4.321 1.179c.427.116.79.215 1.085.32.193.069.376.146.55.246zm-3.08 3.08a21 21 0 0 0-.866-.247l-4.44-1.211c-.748-.204-1.256-.342-1.648-.41-.386-.067-.56-.046-.663-.012a1.2 1.2 0 0 0-.62.473c-.06.09-.126.253-.163.643-.037.396-.038.922-.038 1.698v5.2c0 .48 0 .795.02 1.04.017.233.048.346.083.425a1.2 1.2 0 0 0 .314.422zM9.484 22.052l-3.11-.848L7.677 19.9l2.19.597c.75.204 1.257.342 1.65.41.385.067.559.046.662.012a1.2 1.2 0 0 0 .62-.473c.06-.09.126-.253.163-.643.037-.396.038-.922.038-1.698v-3.529l1.6-1.6v4.94c.255.066.45.114.613.147.227.046.333.049.394.044a1.2 1.2 0 0 0 1.023-.791c.02-.058.044-.16.057-.392.013-.233.013-.538.013-.987v-5.06l1.596-1.596q.005.315.004.694v5.067c.253.062.456.108.63.139.285.05.417.045.494.031a1.2 1.2 0 0 0 .865-.674c.032-.071.07-.198.09-.487.02-.293.02-.677.02-1.244v-5.63l1.543-1.542a4 4 0 0 1 .034.31c.024.312.024.688.024 1.13v5.761c0 .531 0 .972-.025 1.328-.026.366-.082.718-.235 1.047a2.8 2.8 0 0 1-2.018 1.573c-.357.067-.711.036-1.073-.028a9 9 0 0 1-.353-.072 9 9 0 0 1-.012.33 3 3 0 0 1-.148.841 2.8 2.8 0 0 1-2.387 1.845 3 3 0 0 1-.852-.069 9 9 0 0 1-.316-.07q-.01.208-.026.393c-.047.496-.15.966-.425 1.38a2.8 2.8 0 0 1-1.445 1.103c-.47.157-.951.132-1.442.047-.476-.083-1.057-.241-1.759-.433" clip-rule="evenodd"/></svg>