<svg xmlns="http://www.w3.org/2000/svg" fill="none" viewBox="0 0 24 24"><path fill="#62757E" fill-rule="evenodd" d="m19.021 3.177-5.127-1.399a21 21 0 0 0-1.063-.272 3 3 0 0 0-.883-.076 2.8 2.8 0 0 0-2.372 1.812c-.104.279-.142.57-.16.872q-.008.165-.012.356a9 9 0 0 0-.279-.064c-.312-.065-.619-.105-.93-.07a2.8 2.8 0 0 0-2.3 1.755c-.115.292-.157.599-.176.917q-.01.173-.014.376a8 8 0 0 0-.348-.069c-.49-.085-.971-.11-1.442.047A2.8 2.8 0 0 0 2.47 8.466c-.275.413-.377.883-.424 1.379C2 10.326 2 10.928 2 11.655v5.269c0 .442 0 .818.024 1.13.025.331.08.645.216.954a2.8 2.8 0 0 0 .791 1.035c.262.213.55.349.863.46.295.105.658.204 1.085.32l4.505 1.23c.702.19 1.283.349 1.759.432.49.085.971.11 1.442-.047a2.8 2.8 0 0 0 1.445-1.104c.275-.413.377-.883.425-1.379q.017-.184.026-.393.17.04.316.07c.286.058.566.095.852.07a2.8 2.8 0 0 0 2.387-1.846c.097-.27.132-.55.148-.841q.009-.152.012-.33.188.042.353.072c.362.064.716.095 1.073.028a2.8 2.8 0 0 0 2.018-1.573c.153-.33.209-.68.235-1.047.025-.356.025-.797.025-1.328v-5.76c0-.443 0-.82-.024-1.132a2.8 2.8 0 0 0-.217-.953 2.8 2.8 0 0 0-.79-1.035 2.8 2.8 0 0 0-.863-.46 16 16 0 0 0-1.085-.32M18.3 15.043c.253.062.456.108.63.139.285.05.417.045.494.031a1.2 1.2 0 0 0 .865-.674c.032-.071.07-.198.09-.487.02-.293.02-.677.02-1.244V7.105c0-.479 0-.794-.018-1.038-.018-.234-.05-.348-.084-.426a1.2 1.2 0 0 0-.34-.444c-.066-.054-.167-.114-.388-.193a15 15 0 0 0-.997-.291l-5.077-1.385a20 20 0 0 0-.995-.257c-.236-.05-.345-.053-.408-.048a1.2 1.2 0 0 0-1.017.777c-.022.059-.047.166-.06.406-.011.18-.014.4-.015.692l4.321 1.179c.427.116.79.215 1.085.32.312.111.6.247.863.46a2.8 2.8 0 0 1 .79 1.035c.137.31.192.623.217.953.024.313.024.689.024 1.131zm-3.087 3.02c-.162-.032-.358-.08-.613-.145v-5.042c0-.442 0-.818-.024-1.13a2.8 2.8 0 0 0-.216-.954 2.8 2.8 0 0 0-.791-1.035 2.8 2.8 0 0 0-.863-.46 16 16 0 0 0-1.085-.32l-4.32-1.179c0-.29.004-.51.015-.692.015-.254.043-.366.068-.428a1.2 1.2 0 0 1 .985-.752c.066-.008.181-.005.43.047.251.052.574.14 1.05.27l5.024 1.37c.462.126.765.21.997.291.22.08.322.14.388.193a1.2 1.2 0 0 1 .339.444c.035.078.066.192.084.426.018.244.019.56.019 1.038v5.933c0 .45 0 .754-.013.987a1.5 1.5 0 0 1-.057.392 1.2 1.2 0 0 1-1.023.79c-.061.006-.167.003-.394-.043M5.083 8.893c-.385-.067-.559-.046-.662-.012a1.2 1.2 0 0 0-.62.473c-.06.09-.126.253-.163.643-.037.396-.038.922-.038 1.698v5.2c0 .48 0 .795.02 1.04.017.233.048.346.083.425a1.2 1.2 0 0 0 .339.444c.066.054.168.114.388.193.232.082.535.165.997.291l4.44 1.211c.75.204 1.257.342 1.65.41.385.067.559.046.662.012a1.2 1.2 0 0 0 .62-.473c.06-.09.126-.253.163-.643.037-.396.038-.922.038-1.698v-5.2c0-.48 0-.795-.02-1.04-.017-.233-.048-.346-.083-.425a1.2 1.2 0 0 0-.339-.444c-.066-.054-.168-.114-.389-.193a15 15 0 0 0-.997-.291l-4.44-1.211c-.748-.204-1.256-.342-1.648-.41" clip-rule="evenodd"/></svg>