<svg xmlns="http://www.w3.org/2000/svg" fill="none" viewBox="0 0 24 24"><g clip-path="url(#a)"><path fill="#FF3B81" d="M12 24c6.627 0 12-5.373 12-12S18.627 0 12 0 0 5.373 0 12s5.373 12 12 12"/><path fill="#fff" d="M7.544 15.629v.083h-.873v-1.576l-.027.088-.834-.252.471-1.519-.058.085-.723-.48.904-1.32-.086.068-.55-.667 1.3-1.038-.165.063-.313-.802 1.554-.588-.182.012-.06-.857 1.626-.112-.147-.033.196-.837 1.554.353-.098-.056.436-.744 1.354.77-.053-.055.639-.586 1.055 1.114-.023-.045.785-.377.677 1.368-.006-.039.86-.135.255 1.58.018-.112.862.134-.258 1.602.064-.128.784.377-.726 1.466.106-.112.638.586-1.128 1.192.136-.078.437.745-1.418.806.142-.033.197.838-1.567.356.121.008-.06.858-1.57-.108.08.03-.313.802-1.5-.567.095.076-.55.667-1.239-.988.062.089-.723.481-.887-1.294.027.085-.835.252zm0-1.021.545-.164.423 1.365.472-.314.804 1.176.36-.437 1.116.89.2-.512 1.345.508.039-.555 1.44.1-.13-.553 1.41-.321-.292-.499 1.26-.716-.432-.396.994-1.05-.53-.256.64-1.292-.58-.09.227-1.419-.555.086-.228-1.418-.5.24-.635-1.282-.407.374-.983-1.039-.28.48-1.245-.707-.129.548-1.399-.318.04.572-1.436.1.212.545-1.353.511.365.443-1.136.906.48.318-.819 1.196.552.166-.428 1.378h.574zm4.284-1.61q0-.326-.23-.5-.23-.176-.826-.367a6 6 0 0 1-.946-.385q-.948-.513-.949-1.384 0-.453.253-.806.255-.357.73-.557.48-.2 1.072-.199.598 0 1.064.219.468.214.724.61c.175.266.265.58.26.898h-1.148q0-.385-.241-.595-.242-.215-.677-.215-.422 0-.655.18a.56.56 0 0 0-.234.469q0 .27.272.456.275.184.807.345.981.296 1.428.733.449.438.448 1.09 0 .725-.547 1.14-.547.41-1.474.41a2.9 2.9 0 0 1-1.171-.233q-.528-.24-.807-.65a1.67 1.67 0 0 1-.276-.95h1.152q0 .924 1.102.924.41 0 .64-.165a.55.55 0 0 0 .23-.468m3.505-3.427-1.107 4.05-.912-.064.69-4.175zm-.966 4.471-.288 1.431-1.212-.354.278-1.372z"/></g><defs><clipPath id="a"><path fill="#fff" d="M0 0h24v24H0z"/></clipPath></defs></svg>