<svg xmlns="http://www.w3.org/2000/svg" fill="none" viewBox="0 0 24 24"><path fill="#687485" fill-rule="evenodd" d="M18 1.45a.8.8 0 0 1 .776.606l.104.416.302-.301a.85.85 0 1 1 1.202 1.202l-16 16a.85.85 0 1 1-1.202-1.203l3.465-3.464a3.698 3.698 0 0 0-1.77-1.124L2.03 12.77a.8.8 0 0 1 0-1.538l2.847-.813a3.7 3.7 0 0 0 2.54-2.542l.814-2.846a.8.8 0 0 1 1.538 0l.814 2.846a3.691 3.691 0 0 0 1.123 1.77l2.767-2.766-.417-.104a.8.8 0 0 1 0-1.552l1.036-.259a2.575 2.575 0 0 0 1.873-1.874l.26-1.035A.8.8 0 0 1 18 1.45Zm-7.427 9.33a5.297 5.297 0 0 1-1.529-2.464L9 8.162l-.044.154a5.3 5.3 0 0 1-3.64 3.64L5.162 12l.154.044a5.293 5.293 0 0 1 2.464 1.529l2.793-2.793Zm10.453-5.666a.845.845 0 0 0 .085-.098l.833.208a.8.8 0 0 1 0 1.552l-1.035.259a2.575 2.575 0 0 0-1.874 1.874l-.259 1.035a.8.8 0 0 1-1.552 0l-.205-.822 4.007-4.008ZM8.231 18.97l-.236-.825 3.084-3.083c-.218.32-.387.678-.496 1.062l-.814 2.846a.8.8 0 0 1-1.538 0Zm6.915-7.975-3.084 3.084a3.704 3.704 0 0 1 1.062-.497l2.846-.813a.8.8 0 0 0 0-1.538l-.824-.236ZM16.5 14.95a.8.8 0 0 1 .76.547l.393 1.183c.145.433.485.772.917.917l1.183.394a.8.8 0 0 1 0 1.518l-1.183.394a1.45 1.45 0 0 0-.917.917l-.394 1.183a.8.8 0 0 1-1.518 0l-.394-1.183a1.45 1.45 0 0 0-.917-.917l-1.183-.394a.8.8 0 0 1 0-1.518l1.183-.394a1.45 1.45 0 0 0 .917-.917l.394-1.183a.8.8 0 0 1 .76-.547Zm0 2.976a3.053 3.053 0 0 1-.823.824c.324.219.604.499.823.823a3.05 3.05 0 0 1 .824-.823 3.051 3.051 0 0 1-.824-.824Z" clip-rule="evenodd"/></svg>