<svg xmlns="http://www.w3.org/2000/svg" fill="none" viewBox="0 0 24 24"><path fill="#62757E" d="M16.286 14.857c.307 0 .58.197.677.489l.376 1.125c.142.427.477.762.903.904l1.127.376a.715.715 0 0 1 0 1.355l-1.127.375a1.43 1.43 0 0 0-.903.903l-.376 1.128a.714.714 0 0 1-1.355 0l-.376-1.128a1.43 1.43 0 0 0-.903-.903l-1.126-.375a.715.715 0 0 1 0-1.355l1.126-.376c.427-.142.761-.477.903-.904l.376-1.126a.715.715 0 0 1 .678-.488m2.897-12.686a.85.85 0 0 1 1.202 1.202l-16 16a.85.85 0 0 1-1.202-1.202l3.692-3.694a3.57 3.57 0 0 0-1.646-1.016l-2.711-.775a.714.714 0 0 1 0-1.373l2.71-.774a3.57 3.57 0 0 0 2.454-2.453l.774-2.711a.714.714 0 0 1 1.374 0l.774 2.71c.184.643.54 1.209 1.016 1.647l2.673-2.673-.323-.08a.714.714 0 0 1 0-1.386l.986-.247a2.5 2.5 0 0 0 1.818-1.819l.247-.986a.714.714 0 0 1 1.386 0l.08.324zm-2.897 15.386a2.9 2.9 0 0 1-.871.872c.35.223.648.52.871.87a2.9 2.9 0 0 1 .871-.87 2.9 2.9 0 0 1-.87-.872m-5.44-2.263a3.6 3.6 0 0 0-.242.62l-.774 2.71a.715.715 0 0 1-1.374 0l-.209-.732zm4.922-3.98a.715.715 0 0 1 0 1.372l-2.711.775a3.6 3.6 0 0 0-.62.242l2.598-2.599zM9.056 8.477a5 5 0 0 1-3.435 3.434L5.314 12l.307.088c.88.25 1.656.735 2.264 1.38l2.725-2.726a5 5 0 0 1-1.38-2.264l-.087-.306zm12.403-2.885a.715.715 0 0 1 0 1.385l-.986.247a2.5 2.5 0 0 0-1.82 1.819l-.246.986a.715.715 0 0 1-1.386 0l-.182-.73 3.89-3.89z"/></svg>