<svg xmlns="http://www.w3.org/2000/svg" fill="none" viewBox="0 0 24 24"><path fill="#667489" fill-rule="evenodd" d="M18 1.45a.8.8 0 0 1 .776.606l.26 1.035c.23.923.95 1.643 1.873 1.874l1.035.259a.8.8 0 0 1 0 1.552l-1.035.259a2.575 2.575 0 0 0-1.874 1.874l-.259 1.035a.8.8 0 0 1-1.552 0l-.259-1.035a2.575 2.575 0 0 0-1.873-1.874l-1.036-.259a.8.8 0 0 1 0-1.552l1.036-.259a2.575 2.575 0 0 0 1.873-1.874l.26-1.035A.8.8 0 0 1 18 1.45Zm0 3.241A4.17 4.17 0 0 1 16.692 6c.528.333.976.78 1.308 1.309.333-.529.78-.976 1.309-1.309A4.179 4.179 0 0 1 18 4.691ZM9 4.45a.8.8 0 0 1 .77.58l.813 2.846a3.7 3.7 0 0 0 2.54 2.542l2.847.813a.8.8 0 0 1 0 1.538l-2.846.813a3.7 3.7 0 0 0-2.541 2.542l-.814 2.846a.8.8 0 0 1-1.538 0l-.813-2.846a3.7 3.7 0 0 0-2.541-2.542L2.03 12.77a.8.8 0 0 1 0-1.538l2.847-.813a3.7 3.7 0 0 0 2.54-2.542l.814-2.846a.8.8 0 0 1 .77-.58Zm0 3.712-.044.154a5.3 5.3 0 0 1-3.64 3.64L5.162 12l.154.044a5.3 5.3 0 0 1 3.64 3.64l.044.154.044-.154a5.3 5.3 0 0 1 3.64-3.64l.154-.044-.154-.044a5.3 5.3 0 0 1-3.64-3.64L9 8.162Zm7.5 6.788a.8.8 0 0 1 .76.547l.393 1.183c.145.433.485.773.917.917l1.183.394a.8.8 0 0 1 0 1.518l-1.183.394a1.45 1.45 0 0 0-.917.917l-.394 1.183a.8.8 0 0 1-1.518 0l-.394-1.183a1.45 1.45 0 0 0-.917-.917l-1.183-.394a.8.8 0 0 1 0-1.518l1.183-.394a1.45 1.45 0 0 0 .917-.917l.394-1.183a.8.8 0 0 1 .76-.547Zm0 2.977a3.051 3.051 0 0 1-.823.823c.324.219.604.499.823.823.22-.324.499-.604.824-.823a3.05 3.05 0 0 1-.824-.823Z" clip-rule="evenodd"/></svg>