<svg xmlns="http://www.w3.org/2000/svg" fill="none" viewBox="0 0 24 24"><path fill="#62757E" fill-rule="evenodd" d="M17.714 2c.328 0 .614.223.693.541l.247.986a2.5 2.5 0 0 0 1.819 1.82l.986.246a.714.714 0 0 1 0 1.386l-.986.246a2.5 2.5 0 0 0-1.82 1.82l-.246.985a.714.714 0 0 1-1.386 0l-.246-.986a2.5 2.5 0 0 0-1.82-1.819l-.985-.246a.714.714 0 0 1 0-1.386l.986-.247a2.5 2.5 0 0 0 1.819-1.819l.246-.986A.714.714 0 0 1 17.714 2m0 2.949a3.9 3.9 0 0 1-1.337 1.337c.548.33 1.007.79 1.337 1.337.33-.548.79-1.007 1.337-1.337a3.9 3.9 0 0 1-1.337-1.337m-8.571-.092c.319 0 .6.212.687.518l.774 2.71a3.57 3.57 0 0 0 2.453 2.454l2.71.774a.714.714 0 0 1 0 1.374l-2.71.774a3.57 3.57 0 0 0-2.453 2.453l-.774 2.71a.714.714 0 0 1-1.374 0l-.774-2.71a3.57 3.57 0 0 0-2.453-2.453l-2.71-.774a.714.714 0 0 1 0-1.374l2.71-.774a3.57 3.57 0 0 0 2.453-2.453l.774-2.71a.714.714 0 0 1 .687-.519m0 3.314-.088.307a5 5 0 0 1-3.434 3.434L5.314 12l.307.088a5 5 0 0 1 3.434 3.434l.088.306.088-.306a5 5 0 0 1 3.434-3.434L12.97 12l-.306-.088A5 5 0 0 1 9.23 8.478zm7.143 6.686c.307 0 .58.197.677.489l.376 1.126c.142.426.477.761.903.903l1.127.376a.714.714 0 0 1 0 1.355l-1.127.376a1.43 1.43 0 0 0-.903.903l-.376 1.127a.714.714 0 0 1-1.355 0l-.375-1.127a1.43 1.43 0 0 0-.904-.903l-1.126-.376a.714.714 0 0 1 0-1.355l1.126-.376a1.43 1.43 0 0 0 .904-.903l.375-1.126a.71.71 0 0 1 .678-.489m0 2.7a2.9 2.9 0 0 1-.871.872c.35.223.647.52.87.87a2.9 2.9 0 0 1 .872-.87 2.9 2.9 0 0 1-.871-.871" clip-rule="evenodd"/></svg>