<svg xmlns="http://www.w3.org/2000/svg" fill="none" viewBox="0 0 24 24"><path fill="currentColor" fill-rule="evenodd" d="M5.333 21.333a.832.832 0 0 1-.651-1.352c.013-.018 1.197-1.524 1.432-3.101C4.038 15.84 2 13.646 2 10.884 2 6.537 6.486 3 12 3s10 3.537 10 7.884c0 4.383-4.486 7.95-10 7.95h-1.196c-1.63 2.37-5.285 2.495-5.449 2.5h-.022ZM12 4.667c-4.595 0-8.333 2.789-8.333 6.217 0 2.137 1.825 3.982 3.629 4.701a.834.834 0 0 1 .524.774c0 1.106-.393 2.188-.817 3.03.963-.264 2.077-.777 2.59-1.771a.835.835 0 0 1 .74-.451H12c4.595 0 8.333-2.819 8.333-6.283 0-3.428-3.738-6.217-8.333-6.217Z" clip-rule="evenodd"/></svg>