<svg xmlns="http://www.w3.org/2000/svg" fill="none" viewBox="0 0 24 24"><path fill="currentColor" fill-rule="evenodd" d="M12 18.833h-1.197c-1.63 2.37-5.284 2.496-5.448 2.5h-.022a.834.834 0 0 1-.651-1.353c.013-.017 1.197-1.523 1.432-3.1C4.038 15.84 2 13.646 2 10.884 2 6.537 6.486 3 12 3s10 3.537 10 7.884c0 4.383-4.486 7.95-10 7.95Zm0-14.166c-4.595 0-8.333 2.789-8.333 6.217 0 2.137 1.825 3.982 3.628 4.701a.833.833 0 0 1 .525.774c0 1.106-.393 2.188-.817 3.03.963-.264 2.076-.777 2.59-1.771a.835.835 0 0 1 .74-.451H12c4.595 0 8.333-2.819 8.333-6.283 0-3.428-3.738-6.217-8.333-6.217Zm2.98 9.857a.836.836 0 0 1-1.162-.202.833.833 0 0 1 .18-1.145c.037-.032.329-.308.466-1.001h-.761a.833.833 0 0 1-.834-.834V9.676c0-.461.373-.834.834-.834h1.666c.461 0 .834.373.834.834v1.666c0 .01-.005.018-.006.028 0 .01.006.018.006.028 0 2.202-1.098 3.038-1.224 3.126Zm-5 0a.837.837 0 0 1-1.162-.202.833.833 0 0 1 .18-1.145c.037-.032.329-.308.466-1.001h-.797a.833.833 0 0 1-.834-.834V9.676c0-.461.373-.834.834-.834h1.666c.461 0 .834.373.834.834v1.544c.013.06.036.115.036.178 0 2.202-1.098 3.038-1.224 3.126Z" clip-rule="evenodd"/></svg>