<svg xmlns="http://www.w3.org/2000/svg" fill="none" viewBox="0 0 24 24"><path fill="currentColor" fill-rule="evenodd" d="M12 18.833h-1.362c-1.613 2.37-5.124 2.496-5.281 2.5h-.024a.834.834 0 0 1-.586-1.425c.035-.036 1.261-1.283 1.494-2.763C3.5 15.562 2 13.355 2 10.885 2 6.536 6.486 3 12 3s10 3.537 10 7.884c0 4.383-4.486 7.95-10 7.95Zm0-14.166c-4.595 0-8.333 2.789-8.333 6.217 0 2.648 2.4 4.302 3.831 5.052a.832.832 0 0 1 .447.738c0 .981-.327 1.887-.718 2.62.842-.287 1.741-.79 2.199-1.677a.835.835 0 0 1 .74-.45H12c4.595 0 8.333-2.819 8.333-6.283 0-3.428-3.738-6.217-8.333-6.217Zm0 5c1.402 0 2.5.915 2.5 2.083 0 .93-.7 1.69-1.69 1.966.006.04.023.076.023.117v.834a.833.833 0 1 1-1.666 0v-.834h-.834a.833.833 0 1 1 0-1.666H12c.517 0 .833-.27.833-.417 0-.147-.316-.417-.833-.417-1.402 0-2.5-.915-2.5-2.083 0-.93.7-1.69 1.69-1.966-.006-.04-.023-.076-.023-.117v-.834a.833.833 0 1 1 1.666 0v.834h.834a.833.833 0 1 1 0 1.666H12c-.517 0-.833.27-.833.417 0 .147.316.417.833.417Z" clip-rule="evenodd"/></svg>