<svg xmlns="http://www.w3.org/2000/svg" fill="none" viewBox="0 0 24 24"><path fill="currentColor" fill-rule="evenodd" d="M12 18.833h-1.196c-1.63 2.37-5.285 2.495-5.449 2.5h-.022a.832.832 0 0 1-.651-1.352c.013-.017 1.197-1.524 1.431-3.101C4.038 15.84 2 13.645 2 10.884 2 6.537 6.486 3 12 3s10 3.537 10 7.884c0 4.383-4.486 7.95-10 7.95Zm0-14.166c-4.595 0-8.333 2.789-8.333 6.217 0 2.136 1.825 3.982 3.629 4.702a.832.832 0 0 1 .524.773c0 1.106-.393 2.188-.817 3.031.964-.265 2.077-.778 2.59-1.773a.833.833 0 0 1 .74-.45H12c4.595 0 8.333-2.819 8.333-6.283 0-3.428-3.738-6.217-8.333-6.217Zm5 6.666c0 .46-.373.834-.833.834H14.5a.835.835 0 0 1-.693-1.295l.802-1.205H14.5A.834.834 0 0 1 14.5 8h1.667a.835.835 0 0 1 .693 1.296l-.802 1.204h.109c.46 0 .833.373.833.833ZM12.833 13c0 .46-.373.833-.833.833H8.667a.832.832 0 0 1-.651-1.354l2.25-2.812h-1.6a.834.834 0 0 1 0-1.667H12a.832.832 0 0 1 .65 1.354l-2.25 2.813H12c.46 0 .833.373.833.833Z" clip-rule="evenodd"/></svg>