<svg xmlns="http://www.w3.org/2000/svg" fill="none" viewBox="0 0 24 24"><path fill="currentColor" fill-rule="evenodd" d="M12 18.833h-1.196c-1.63 2.371-5.285 2.496-5.449 2.5h-.022a.832.832 0 0 1-.651-1.353c.013-.017 1.197-1.523 1.431-3.1C4.038 15.842 2 13.646 2 10.884 2 6.537 6.486 3 12 3s10 3.537 10 7.884c0 4.383-4.486 7.95-10 7.95Zm0-14.166c-4.595 0-8.333 2.789-8.333 6.217 0 2.137 1.825 3.983 3.629 4.702a.833.833 0 0 1 .524.774c0 1.106-.393 2.187-.817 3.03.964-.265 2.077-.778 2.59-1.773a.835.835 0 0 1 .74-.45H12c4.595 0 8.333-2.819 8.333-6.283 0-3.428-3.738-6.217-8.333-6.217Zm3.678 8.766a1.662 1.662 0 0 1-3.261-.457c0-.92.747-1.669 1.666-1.669.145 0 .283.025.417.06v-2.56l-2.5.834v4.166c0 .256-.247.483-.543.636a1.667 1.667 0 1 1-1.54-2.302c.145 0 .282.024.416.059V8.807c0-.378-.162-.43.202-.527l4.167-1.112a.837.837 0 0 1 .722.145c.206.158.743.402.743.66v5c0 .241-.217.38-.49.46Z" clip-rule="evenodd"/></svg>