<svg xmlns="http://www.w3.org/2000/svg" fill="none" viewBox="0 0 24 24"><path fill="currentColor" fill-rule="evenodd" d="M12 18.833h-1.197c-1.63 2.371-5.284 2.496-5.448 2.5h-.022a.834.834 0 0 1-.651-1.353c.013-.017 1.197-1.523 1.432-3.1C4.038 15.842 2 13.646 2 10.884 2 6.537 6.486 3 12 3s10 3.537 10 7.884c0 4.383-4.486 7.95-10 7.95Zm0-14.166c-4.595 0-8.333 2.789-8.333 6.217 0 2.137 1.825 3.983 3.629 4.702a.833.833 0 0 1 .524.774c0 1.106-.393 2.187-.817 3.03.964-.265 2.077-.778 2.59-1.773a.835.835 0 0 1 .74-.45H12c4.595 0 8.333-2.819 8.333-6.283 0-3.428-3.738-6.217-8.333-6.217Zm4.067 7.5c-.005.005-.007.011-.012.016l-3.502 3.107c-.045.04-.098.06-.148.09-.032.017-.058.04-.092.054a.819.819 0 0 1-.312.066H12a.82.82 0 0 1-.313-.066c-.034-.013-.06-.037-.092-.055-.05-.028-.103-.049-.148-.089l-3.502-3.107-.013-.016c-.005-.006-.014-.008-.02-.014-.57-.565-.912-1.348-.912-2.097 0-1.593 1.308-2.89 2.917-2.89.808 0 1.544.327 2.083.852a2.982 2.982 0 0 1 2.083-.851c1.609 0 2.917 1.296 2.917 2.889 0 .749-.342 1.532-.913 2.097-.005.006-.014.008-.02.014Zm-1.984-3.334c-.612 0-1.155.426-1.265.992 0 .003-.002.004-.003.007-.014.07-.048.132-.08.196a.823.823 0 0 1-.27.33c-.007.005-.015.005-.02.01a.835.835 0 0 1-.28.114c-.003 0-.005.002-.007.003-.054.01-.104-.002-.156-.002-.054 0-.105.012-.16.002l-.006-.003a.815.815 0 0 1-.261-.107c-.012-.008-.028-.01-.04-.017a.833.833 0 0 1-.21-.209c-.003-.006-.01-.009-.015-.016-.02-.03-.027-.07-.044-.104-.032-.064-.067-.127-.081-.197 0-.003-.003-.005-.003-.007-.11-.566-.653-.992-1.265-.992-.69 0-1.25.549-1.25 1.223 0 .302.163.658.415.907L12 13.553l2.918-2.59c.252-.249.415-.605.415-.907 0-.674-.56-1.223-1.25-1.223Z" clip-rule="evenodd"/></svg>