<svg xmlns="http://www.w3.org/2000/svg" fill="none" viewBox="0 0 24 24"><path fill="currentColor" fill-rule="evenodd" d="M12 18.833h-1.197c-1.63 2.37-5.284 2.496-5.448 2.5h-.022a.832.832 0 0 1-.651-1.353c.013-.017 1.197-1.523 1.432-3.1C4.038 15.84 2 13.646 2 10.884 2 6.537 6.486 3 12 3s10 3.537 10 7.884c0 4.383-4.486 7.95-10 7.95Zm0-14.166c-4.595 0-8.333 2.789-8.333 6.217 0 2.137 1.825 3.982 3.629 4.701a.834.834 0 0 1 .524.774c0 1.106-.393 2.188-.817 3.03.964-.264 2.077-.777 2.59-1.771a.833.833 0 0 1 .74-.451H12c4.595 0 8.333-2.819 8.333-6.283 0-3.428-3.738-6.217-8.333-6.217Zm3.333 5h-.599l-.416 1.666h.182a.834.834 0 0 1 0 1.667h-.6l-.258 1.036a.833.833 0 0 1-1.617-.405l.157-.631h-1.614l-.26 1.036a.833.833 0 1 1-1.616-.405L8.849 13h-.182a.834.834 0 0 1 0-1.667h.599l.416-1.666H9.5A.834.834 0 0 1 9.5 8h.6l.258-1.035a.833.833 0 1 1 1.617.404L11.818 8h1.614l.26-1.035a.833.833 0 1 1 1.617.404L15.15 8h.182a.834.834 0 0 1 0 1.667Zm-3.932 0-.417 1.666H12.6l.417-1.666H11.4Z" clip-rule="evenodd"/></svg>