<svg xmlns="http://www.w3.org/2000/svg" fill="none" viewBox="0 0 24 24"><path fill="#62757E" fill-rule="evenodd" d="M11.007 10.174a.83.83 0 0 1 1.179 0l1.888 1.888c.137-.036.278-.062.426-.062.92 0 1.667.748 1.667 1.667s-.748 1.666-1.667 1.666a1.67 1.67 0 0 1-1.667-1.666c0-.149.026-.29.063-.427l-1.889-1.888a.833.833 0 0 1 0-1.178M22.59 7.59l-1.285 1.285a8.3 8.3 0 0 1 1.53 4.793c0 4.595-3.74 8.333-8.334 8.333a8.35 8.35 0 0 1-6.21-2.777.833.833 0 1 1 1.242-1.111 6.68 6.68 0 0 0 4.968 2.221 6.674 6.674 0 0 0 6.666-6.666A6.674 6.674 0 0 0 14.5 7a6.66 6.66 0 0 0-5.068 2.336.833.833 0 1 1-1.266-1.083 8.32 8.32 0 0 1 5.501-2.875V3.667h-.834a.833.833 0 0 1 0-1.667h3.334a.833.833 0 1 1 0 1.667h-.833v1.709a8.3 8.3 0 0 1 3.958 1.487l1.286-1.286a.83.83 0 0 1 1.178 0l.833.834a.833.833 0 0 1 0 1.178M7.001 12H2.833a.834.834 0 1 1 0-1.667H7A.833.833 0 0 1 7 12m-2.501.833h5a.833.833 0 0 1 0 1.667h-5a.833.833 0 0 1 0-1.667m.834 2.5h2.5a.833.833 0 1 1 0 1.667h-2.5a.834.834 0 1 1 0-1.667" clip-rule="evenodd"/></svg>