<svg xmlns="http://www.w3.org/2000/svg" fill="none" viewBox="0 0 24 24"><g clip-path="url(#a)"><path fill="#00B098" d="M12 24c6.627 0 12-5.373 12-12S18.627 0 12 0 0 5.373 0 12s5.373 12 12 12"/><path fill="#fff" d="M5 8.974v-.25h5.892v.25zm0-.725V8h5.892v.25zm2.485 7.448V9.472h.237v6.225zm.686 0V9.472h.236v6.225zm10.662-.51-2.658-2.808.166-.176L19 15.01zM12.363 8l2.659 2.81-.167.175-2.658-2.809zm5.985 7.7-2.658-2.81.166-.176 2.659 2.81zm-6.47-7.188 2.66 2.809-.168.176-2.658-2.808zm3.796 3.338.167-.176 2.992-3.162.167.177-2.992 3.161-.167.176-.318.336-.167.177-2.992 3.161-.167-.176 2.993-3.162.167-.176zm-.318-.689L18.349 8l.167.176-2.993 3.162-.166.176-.318.336-.168.176-2.991 3.162-.168-.177 2.993-3.161.166-.176.319-.336z"/></g><defs><clipPath id="a"><path fill="#fff" d="M0 0h24v24H0z"/></clipPath></defs></svg>