<svg xmlns="http://www.w3.org/2000/svg" fill="none" viewBox="0 0 24 24"><g clip-path="url(#a)"><path fill="#1C1C1C" d="M12 24c6.627 0 12-5.373 12-12S18.627 0 12 0 0 5.373 0 12s5.373 12 12 12"/><path fill="#fff" d="M11.832 10.483c.18.074.361.037.506 0 .109.369.29.7.47.848-.108.921-.434 1.253-.796 1.253-.505 0-.759-1.069-.759-1.253.109-.074.434-.295.58-.848zm-.543 3.244c.218-.185.362-.48.543-.959.144.074.361.037.506 0 .109.516.217.848.47.995-.072.59-.434.995-.76.995-.47 0-.686-.736-.759-1.031m-2.892 1.142c.144-.184.144-.479.072-1.032.108.037.217.037.29 0 .216.516.397.848.686 1.032.036.258 0 .553-.108.59-.398.184-.76-.295-.94-.59m-1.52-.995c.074 0 .11 0 .182.037a2.74 2.74 0 0 0 .687 1.032c.145.295.217.59.108.59-.325.036-.578-.185-.831-.664.036-.11 0-.184-.145-.995m-.975 0c.361 1.548 1.049 1.474 1.013 1.4a1.4 1.4 0 0 0-.435-.478c-.325-.332-.578-1.033-.578-.922m4.41.995c.254-.184.29-.59.327-1.105a.9.9 0 0 0 .433 0c.073.33.181.81.507 1.032-.036.405-.145.626-.398.663-.18.074-.687.074-.868-.59m-3.109-1.142c.145-.185.181-.48.217-.885.11.037.254.037.325 0 .11.479.29.774.507.922.072.774 0 1.032-.144 1.032-.325 0-.76-.701-.905-1.07m-1.12 0c0-.074.036-.553.072-.885H6.3c.181.7.435.922.435.922.18.847.18 1.068.035.995-.325-.111-.578-.737-.686-1.032m2.892 0c.18-.148.29-.406.362-.885.18.073.361.037.47 0 .108.479.29.774.543.922 0 .405-.037 1.068-.543.957-.434-.11-.795-.847-.832-.994m-.325-.11c-.434 0-.687-.702-.687-.923.217-.22.325-.626.434-1.326.072.037.18.037.29 0 .035.774.252 1.105.433 1.29-.072.626-.253.958-.47.958m-2.242-.923c.072-.147.072-.184.29-1.326h.18c0 .774.217 1.142.325 1.29-.036.405.037.958-.29.958-.143 0-.324-.184-.505-.922m-.723-1.29c.109.038.036.996.18 1.328 0 0 0 .92-.071.847-.543-.664-.181-2.211-.11-2.174m4.339 1.29c.253-.184.398-.59.615-1.326a.9.9 0 0 0 .433 0c.073.552.217.958.507 1.253-.072.59-.362.995-.724.995-.578 0-.795-.811-.831-.922m-2.965-1.437c.29-.11.47-.737.506-.811a.217.217 0 0 0 .29 0c0 .48.144.7.253.774-.11.627-.254 1.364-.58 1.364-.288 0-.433-.664-.47-1.327m-.904 1.364c-.253 0-.325-.958-.253-1.364 0 0 .217-.332.361-.811.036 0 .11.037.145 0-.036.48.036.7.108.811 0 0-.18 1.364-.36 1.364zm2.748-1.364c.145-.073.434-.479.578-.848.145.074.29.074.47.037.073.406.181.664.435.811-.11.663-.326 1.327-.796 1.327-.434 0-.651-.885-.687-1.327m.325-.995c-.216.59-.434.922-.723.922-.361 0-.397-.775-.397-.848.29-.222.505-.664.686-1.032h.254c-.073.552.072.81.18.958M7.456 9.34c-.18.516-.108.774-.035.959-.29.737-.434.922-.651.922-.217-.037-.217-.48-.145-.848.217-.148.687-.995.687-1.033zm-1.048.038c.108-.038-.29.515-.253.774.036.368-.398.995-.434.958-.144-.037.145-1.364.687-1.732m5.135.884c-.11.406-.254.922-.868.922-.325-.037-.506-.48-.579-.848.362-.258.543-.7.651-1.032.108.036.29.036.398 0 .072.552.253.81.398.958m-4.918-.995c.072-.037.542-.663.795-.663.145.036-.253.405-.217.59-.108.184-.614 1.104-.795 1.104-.145 0-.145-.478.217-1.031m8.895 4.57c-.037.553-.037.848.072 1.032-.145.296-.542.738-.94.59-.145-.037-.145-.332-.109-.59.326-.184.543-.553.688-1.032.072.037.18.037.289 0m1.446 0c.036.037.109.037.18-.037-.144.811-.18.885-.144.996-.253.478-.506.663-.831.663-.145 0-.072-.258.108-.59 0 0 .434-.368.687-1.032m.58.959c-.146.147-.29.22-.4.478-.035.074.652.148 1.013-1.4-.072-.11-.29.59-.614.922m-4.16-.959c0 .442.109.848.326 1.106-.181.626-.687.626-.868.59-.253-.074-.325-.295-.397-.664.289-.258.433-.7.506-1.032a.9.9 0 0 0 .433 0m3.254-1.032c0 .443.037.737.218.885-.145.368-.615 1.07-.904 1.07-.145 0-.217-.26-.145-1.033.217-.148.398-.517.506-.922a.33.33 0 0 0 .325 0m1.302.074c0 .295 0 .774.073.884-.145.296-.398.922-.687 1.033-.181.036-.145-.185.036-.996 0 0 .253-.258.434-.921zm-3.218-.074c.073.516.145.774.362.885-.036.184-.434.921-.832.995-.506.11-.542-.59-.542-.958.253-.148.434-.48.542-.922.109.037.29.074.47 0m1.375-.11c-.037.22-.326.921-.688.921-.217 0-.397-.368-.47-.958.181-.148.398-.516.434-1.29a.4.4 0 0 0 .29 0c.144.663.253 1.105.434 1.326m1.265-1.327c.18 1.142.217 1.18.29 1.326-.182.7-.362.922-.507.922-.325 0-.253-.59-.29-.958.145-.148.326-.516.326-1.29.073.037.109 0 .18 0m.759 1.326c.18-.294.109-1.252.18-1.326.11-.037.435 1.585-.107 2.174-.073.074-.073-.848-.073-.848m-4.628-1.326c.109.737.29 1.142.615 1.326-.037.11-.325.922-.832.922-.398.037-.614-.442-.723-.995.253-.295.434-.7.506-1.253.072.037.253.037.434 0m3.001-.922c0 .074.217.7.47.885 0 .626-.18 1.327-.47 1.327-.325 0-.47-.7-.579-1.364.109-.11.254-.369.254-.81a.35.35 0 0 0 .325-.038m1.627.811c.036.406-.036 1.364-.217 1.327-.18 0-.361-1.364-.361-1.364.072-.11.144-.368.108-.774a.11.11 0 0 0 .145 0c.144.48.325.811.325.811m-3.543-.811c.144.332.398.738.614.848-.036.443-.29 1.327-.687 1.327-.542.037-.686-.627-.795-1.327.217-.148.361-.442.398-.81a.7.7 0 0 0 .47-.038m.904.7c-.254.037-.47-.295-.723-.884.144-.148.253-.442.18-.958.109.036.181.036.253 0 .217.405.434.81.687.995 0 .11-.035.848-.398.848zm1.156-.884c.037-.148.11-.406-.108-.958h.145c0 .036.506.922.687 1.031.072.406.072.812-.145.848-.18 0-.325-.184-.579-.921m1.23-.11c.036-.259-.326-.812-.29-.775.58.369.797 1.696.688 1.733-.036.037-.434-.627-.398-.959m-4.592.995c-.542.037-.687-.48-.795-.885.18-.11.361-.442.397-.958.109.036.29.036.398 0 .108.331.29.774.579.995-.036.442-.217.81-.58.848zm3.362-2.543c.181 0 .724.626.76.663.398.59.398 1.032.253 1.032-.217 0-.687-.922-.795-1.106.035-.184-.362-.59-.218-.59m-8.027.11c-.072.221-.108.442 0 .553-.216.442-.578 1.07-.904 1.032-.36-.074-.072-.922-.035-.995.217-.11.723-.811.904-.811.108.037.035.221.035.221m1.7-.037c0 .221.037.479.217.59-.144.442-.434 1.032-.904.995-.325-.037-.397-.59-.325-.995.325-.111.614-.811.831-.811.18 0 .18.184.18.221m5.135.59c.072-.111.072-.331 0-.553 0-.037-.073-.221.035-.221.181 0 .688.7.904.81.037.075.325.923-.035.996-.362.037-.688-.627-.905-1.032m-1.917 0c.145-.111.18-.369.217-.59 0-.037 0-.221.18-.221.181-.037.543.7.833.81.108.48.035.959-.326.996-.506.073-.76-.59-.904-.995m-1.519-.811c.362 0 .362.7.652.848 0 .184-.11.995-.688.995-.506 0-.614-.664-.65-.995.433-.185.29-.848.686-.848"/></g><defs><clipPath id="a"><path fill="#fff" d="M0 0h24v24H0z"/></clipPath></defs></svg>