<svg xmlns="http://www.w3.org/2000/svg" fill="none" viewBox="0 0 24 24"><g clip-path="url(#a)"><path fill="#1C1C1C" d="M12 24c6.627 0 12-5.373 12-12S18.627 0 12 0 0 5.373 0 12s5.373 12 12 12Z"/><path fill="#fff" d="M11.832 10.483c.18.074.361.037.506 0 .109.369.29.7.47.848-.108.921-.434 1.253-.796 1.253-.505 0-.759-1.07-.759-1.253.109-.074.434-.295.58-.848h-.002Zm-.543 3.244c.218-.185.362-.48.543-.959.144.074.361.037.506 0 .109.516.217.848.47.995-.072.59-.434.995-.76.995-.47 0-.686-.736-.759-1.031Zm-2.892 1.142c.144-.184.144-.479.072-1.032.108.037.217.037.29 0 .216.516.397.848.686 1.032.036.258 0 .553-.108.59-.398.184-.76-.295-.94-.59Zm-1.52-.995c.074 0 .11 0 .182.037a2.74 2.74 0 0 0 .687 1.032c.145.295.217.59.108.59-.325.036-.578-.185-.831-.664.036-.11 0-.184-.145-.995Zm-.975 0c.361 1.548 1.049 1.474 1.013 1.4a1.404 1.404 0 0 0-.435-.478c-.325-.332-.578-1.033-.578-.922Zm4.41.995c.254-.184.29-.59.327-1.105a.881.881 0 0 0 .433 0c.073.33.181.81.507 1.032-.036.405-.145.626-.398.663-.18.074-.687.074-.868-.59Zm-3.109-1.142c.145-.185.181-.48.217-.885.11.037.254.037.325 0 .11.479.29.774.507.922.072.773 0 1.032-.144 1.032-.325 0-.76-.701-.905-1.07Zm-1.12 0c0-.074.036-.553.072-.885H6.3c.181.7.435.922.435.922.18.847.18 1.068.035.994-.325-.11-.578-.736-.686-1.031Zm2.892 0c.18-.148.29-.406.362-.885.18.073.361.037.47 0 .108.479.29.774.543.922 0 .405-.037 1.068-.543.957-.434-.11-.795-.847-.832-.994Zm-.325-.11c-.434 0-.687-.702-.687-.923.217-.22.325-.626.434-1.326.072.036.18.036.29 0 .035.774.252 1.105.433 1.29-.072.626-.253.958-.47.958Zm-2.242-.923c.072-.147.072-.184.29-1.326h.18c0 .774.217 1.142.325 1.29-.036.405.037.958-.29.958-.143 0-.324-.184-.505-.922Zm-.723-1.29c.109.038.036.995.18 1.328 0 0 0 .92-.071.847-.543-.664-.181-2.211-.11-2.175Zm4.339 1.29c.253-.184.398-.59.615-1.326a.867.867 0 0 0 .433 0c.073.552.217.958.507 1.252-.072.59-.362.996-.724.996-.578 0-.795-.811-.831-.922Zm-2.965-1.437c.29-.11.47-.737.506-.811a.217.217 0 0 0 .29 0c0 .48.144.7.253.774-.11.626-.254 1.364-.58 1.364-.288 0-.433-.664-.47-1.327Zm-.904 1.363c-.253 0-.325-.957-.253-1.363 0 0 .217-.332.361-.811.036 0 .11.037.145 0-.036.48.036.7.108.811 0 0-.18 1.363-.36 1.363h-.001Zm2.748-1.363c.145-.074.434-.479.578-.848.145.074.29.074.47.037.073.406.181.664.435.811-.11.663-.326 1.327-.796 1.327-.434 0-.651-.885-.687-1.327Zm.325-.995c-.216.59-.434.921-.723.921-.361 0-.397-.774-.397-.848.29-.22.505-.663.686-1.031h.254c-.073.552.072.81.18.958ZM7.456 9.34c-.18.516-.108.774-.035.959-.29.737-.434.922-.651.922-.217-.038-.217-.48-.145-.848.217-.148.687-.995.687-1.033h.144Zm-1.048.037c.108-.037-.29.516-.253.775.036.368-.398.995-.434.958-.144-.037.145-1.364.687-1.732Zm5.135.885c-.11.405-.254.921-.868.921-.325-.036-.506-.478-.579-.848.362-.257.543-.7.651-1.031.108.036.29.036.398 0 .072.552.253.81.398.958Zm-4.918-.996c.072-.036.542-.663.795-.663.145.037-.253.406-.217.59-.108.184-.614 1.105-.795 1.105-.145 0-.145-.479.217-1.032Zm8.895 4.571c-.037.553-.037.848.072 1.032-.145.295-.542.737-.94.59-.145-.037-.145-.332-.109-.59.326-.184.543-.553.688-1.032.072.037.18.037.289 0Zm1.446 0c.036.037.109.037.18-.037-.144.811-.18.884-.144.996-.253.478-.506.663-.831.663-.145 0-.072-.258.108-.59 0 0 .434-.368.687-1.032Zm.58.959c-.146.147-.29.22-.4.478-.035.074.652.148 1.013-1.4-.072-.11-.29.59-.614.922Zm-4.16-.959c0 .442.109.848.326 1.106-.181.626-.687.626-.868.59-.253-.074-.325-.295-.397-.664.289-.258.433-.7.506-1.032.144.037.29.037.433 0Zm3.254-1.032c0 .442.037.737.218.884-.145.37-.615 1.07-.904 1.07-.145 0-.217-.258-.145-1.032.217-.148.398-.517.506-.922a.331.331 0 0 0 .325 0Zm1.302.074c0 .295 0 .774.073.884-.145.296-.398.922-.687 1.033-.181.036-.145-.185.036-.996 0 0 .253-.258.434-.921h.144Zm-3.218-.074c.073.516.145.774.362.884-.036.185-.434.922-.832.995-.506.112-.542-.59-.542-.957.253-.148.434-.48.542-.922.109.037.29.074.47 0Zm1.375-.11c-.037.22-.326.921-.688.921-.217 0-.397-.369-.47-.958.181-.148.398-.516.434-1.29a.392.392 0 0 0 .29 0c.144.663.253 1.105.434 1.326Zm1.265-1.327c.18 1.142.217 1.18.29 1.326-.182.7-.362.922-.507.922-.325 0-.253-.59-.29-.958.145-.148.326-.516.326-1.29.073.036.109 0 .18 0Zm.759 1.326c.18-.295.109-1.252.18-1.326.11-.037.435 1.585-.107 2.174-.073.074-.073-.848-.073-.848Zm-4.628-1.326c.109.737.29 1.142.615 1.326-.037.11-.325.922-.832.922-.398.037-.614-.442-.723-.996.253-.294.434-.7.506-1.252.072.036.253.036.434 0Zm3.001-.922c0 .074.217.7.47.885 0 .626-.18 1.327-.47 1.327-.325 0-.47-.7-.579-1.364.109-.11.254-.369.254-.81a.346.346 0 0 0 .325-.038Zm1.627.811c.036.406-.036 1.363-.217 1.327-.18 0-.361-1.364-.361-1.364.072-.11.144-.368.108-.774a.108.108 0 0 0 .145 0c.144.48.325.811.325.811Zm-3.543-.811c.144.332.398.737.614.848-.036.442-.29 1.326-.687 1.326-.542.038-.686-.626-.795-1.326.217-.148.361-.442.398-.81a.695.695 0 0 0 .47-.038Zm.904.7c-.254.037-.47-.295-.723-.884.144-.148.253-.443.18-.958.109.036.181.036.253 0 .217.405.434.81.687.995 0 .11-.035.848-.398.848h.001Zm1.156-.884c.037-.148.11-.406-.108-.958h.145c0 .036.506.921.687 1.031.072.406.072.812-.145.848-.18 0-.325-.184-.579-.921Zm1.23-.111c.036-.258-.326-.81-.29-.774.58.369.797 1.696.688 1.732-.036.038-.434-.626-.398-.958Zm-4.592.996c-.542.036-.687-.48-.795-.885.18-.111.361-.443.397-.958.109.036.29.036.398 0 .108.331.29.774.579.995-.036.442-.217.81-.58.848h.001Zm3.362-2.544c.181 0 .724.627.76.663.398.59.398 1.033.253 1.033-.217 0-.687-.922-.795-1.106.035-.184-.362-.59-.218-.59Zm-8.027.11c-.072.222-.108.443 0 .553-.216.443-.578 1.07-.904 1.033-.36-.074-.072-.922-.035-.995.217-.11.723-.811.904-.811.108.037.035.22.035.22Zm1.7-.036c0 .221.037.479.217.59-.144.442-.434 1.032-.904.995-.325-.037-.397-.59-.325-.996.325-.11.614-.81.831-.81.18 0 .18.184.18.221Zm5.135.59c.072-.111.072-.332 0-.553 0-.037-.073-.221.035-.221.181 0 .688.7.904.81.037.074.325.922-.035.996-.362.036-.688-.627-.905-1.033Zm-1.917 0c.145-.111.18-.369.217-.59 0-.037 0-.221.18-.221.181-.037.543.7.833.81.108.48.035.959-.326.996-.506.073-.76-.59-.904-.996Zm-1.519-.811c.362 0 .362.7.652.848 0 .184-.11.995-.688.995-.506 0-.614-.664-.65-.995.433-.185.29-.848.686-.848Z"/></g><defs><clipPath id="a"><path fill="#fff" d="M0 0h24v24H0z"/></clipPath></defs></svg>