<svg xmlns="http://www.w3.org/2000/svg" fill="none" viewBox="0 0 24 24"><g clip-path="url(#a)"><path fill="#F2941B" d="M12 24c6.627 0 12-5.373 12-12S18.627 0 12 0 0 5.373 0 12s5.373 12 12 12"/><path fill="#fff" d="M12.336 5.842h.006c1.127 1.115 2.241 2.24 3.362 3.362H18.5l-6.294 8.917c-.104-1.047-.185-2.094-.277-3.14.911-1.312 1.848-2.612 2.76-3.917l-2.082-2.075a5 5 0 0 0-.062-.733c-.068-.8-.11-1.614-.21-2.414m-6.83 8.954c2.112-2.968 4.206-5.949 6.312-8.923l.265 3.153c-.918 1.311-1.841 2.605-2.759 3.91.684.684 1.367 1.38 2.063 2.063.093 1.047.173 2.106.278 3.16h-.013l-3.344-3.35c-.936.012-1.872-.007-2.808.012v-.025z"/></g><defs><clipPath id="a"><path fill="#fff" d="M0 0h24v24H0z"/></clipPath></defs></svg>