<svg xmlns="http://www.w3.org/2000/svg" fill="none" viewBox="0 0 24 24"><path fill="#6677FB" d="M5.118 8.56c.1-2.59 2.27-4.685 4.917-4.685a4.911 4.911 0 0 1 4.898 4.389c1.314.02 2.608.04 3.922.098C18.616 3.717 14.754 0 10.035 0c-4.858 0-8.82 3.934-8.82 8.758v.178a86.687 86.687 0 0 1 3.903-.376Z"/><path fill="#202C46" d="m16.885 14.254.04-.06a8.723 8.723 0 0 0 1.851-4.31c-1.334 0-2.648 0-3.982.04a4.901 4.901 0 0 1-4.758 3.697 4.948 4.948 0 0 1-4.56-3.044 89.61 89.61 0 0 0-3.942.514c1.035 3.697 4.46 6.405 8.502 6.405a8.76 8.76 0 0 0 3.743-.83l.06-.02.04.04 5.455 6.602c.378.455.915.712 1.513.712.458 0 .896-.158 1.234-.435.398-.336.657-.79.697-1.305.04-.514-.1-1.008-.438-1.423l-5.455-6.583Z"/></svg>