<svg xmlns="http://www.w3.org/2000/svg" fill="none" viewBox="0 0 24 24"><path fill="currentColor" fill-rule="evenodd" d="M12 22C6.486 22 2 17.514 2 12S6.486 2 12 2s10 4.486 10 10-4.486 10-10 10Zm0-18.333c-4.595 0-8.333 3.738-8.333 8.333 0 4.595 3.738 8.333 8.333 8.333 4.595 0 8.333-3.738 8.333-8.333 0-4.595-3.738-8.333-8.333-8.333Zm3.307 9.127.843 2.983c.128.448-.033.752-.14.894a.97.97 0 0 1-.722.357c-.205 0-.405-.066-.596-.195l-2.74-1.875-2.735 1.872a1.06 1.06 0 0 1-.6.198.97.97 0 0 1-.721-.357c-.108-.142-.268-.446-.14-.894l.843-2.983-2.172-2.21c-.296-.301-.392-.697-.259-1.058.134-.362.464-.598.883-.635l2.85-.268 1.15-2.648c.168-.39.514-.632.902-.632.389 0 .735.243.902.636l1.148 2.644 2.858.267c.418.04.745.278.877.64.132.36.035.753-.258 1.053l-2.173 2.211ZM13.7 10.27a1.472 1.472 0 0 1-1.168-.847l-.58-1.338-.581 1.34a1.474 1.474 0 0 1-1.165.845l-1.605.151 1.283 1.305c.343.348.49.92.356 1.392l-.35 1.232 1.306-.893a1.34 1.34 0 0 1 .755-.226c.275 0 .544.08.757.227l1.305.893-.349-1.237a1.48 1.48 0 0 1 .358-1.389l1.281-1.305-1.603-.15Z" clip-rule="evenodd"/></svg>