<svg xmlns="http://www.w3.org/2000/svg" fill="none" viewBox="0 0 24 24"><path fill="#01AEF0" d="M12 22c5.523 0 10-4.477 10-10S17.523 2 12 2 2 6.477 2 12s4.477 10 10 10"/><path fill="#fff" fill-rule="evenodd" d="M15.168 13.806c-.008 1.297-.757 2.4-1.951 2.853a7 7 0 0 1-.861.257c-.173.044-.268.13-.281.319q-.026.359-.075.713c-.04.278-.136.342-.392.28-.442-.104-.49-.176-.43-.639l.015-.118c.043-.38-.01-.434-.373-.416-.164.008-.232.089-.247.249-.022.23-.044.46-.082.687-.037.233-.135.29-.358.242-.478-.104-.513-.157-.45-.662.078-.627.076-.62-.502-.794-.257-.078-.505-.185-.756-.285-.152-.06-.202-.173-.161-.343.052-.215.089-.436.134-.654.077-.372.257-.484.6-.35a5.5 5.5 0 0 0 1.885.403c.587.014 1.168-.024 1.703-.312.354-.191.614-.47.745-.871.194-.595.02-1.076-.538-1.316-.46-.197-.952-.306-1.415-.495-.412-.167-.84-.335-1.194-.598-.798-.59-.938-1.462-.763-2.394.2-1.05.842-1.732 1.797-2.094.254-.096.369-.23.373-.515.004-.31.054-.619.091-.927.029-.237.121-.303.342-.267.47.077.527.152.48.64-.018.19-.033.381-.056.57-.018.16.032.233.199.238.38.011.397.004.442-.39.029-.253.05-.506.084-.759.038-.28.128-.344.386-.291.435.09.483.155.44.608-.018.198-.028.398-.062.594-.04.225.03.33.253.381.426.099.847.224 1.265.354.315.097.327.133.266.46-.035.195-.07.392-.117.585-.086.363-.268.472-.614.355-.592-.2-1.187-.38-1.815-.407-.55-.023-1.093-.015-1.57.33-.673.487-.677 1.476.038 1.892.455.265.98.4 1.474.595.3.119.61.221.898.365.774.386 1.162 1.032 1.153 1.928" clip-rule="evenodd"/></svg>