<svg xmlns="http://www.w3.org/2000/svg" fill="none" viewBox="0 0 24 24"><path fill="#62757E" fill-rule="evenodd" d="M12 22C6.486 22 2 17.514 2 12S6.486 2 12 2s10 4.486 10 10-4.486 10-10 10m0-18.333c-4.595 0-8.333 3.738-8.333 8.333S7.405 20.333 12 20.333s8.333-3.738 8.333-8.333S16.595 3.667 12 3.667m-.448 2.71c-.374.188-.616.935-1.102 2.43l-.051.156c-.068.209-.102.313-.167.39a.5.5 0 0 1-.186.135c-.093.038-.203.038-.422.038h-.165c-1.571 0-2.357 0-2.65.298a1 1 0 0 0-.278.853c.063.413.698.875 1.97 1.798l.133.097c.178.13.267.194.319.28a.5.5 0 0 1 .07.218c.009.1-.025.205-.093.413l-.05.157c-.486 1.495-.729 2.242-.537 2.613a1 1 0 0 0 .726.527c.412.068 1.047-.394 2.319-1.317l.133-.097c.178-.13.266-.194.364-.217a.5.5 0 0 1 .23 0c.098.023.187.088.364.217l.134.097c1.271.923 1.907 1.385 2.319 1.317a1 1 0 0 0 .726-.527c.192-.371-.051-1.118-.537-2.613l-.05-.157c-.069-.208-.102-.313-.094-.413a.5.5 0 0 1 .07-.219c.053-.085.142-.15.32-.279l.133-.097c1.271-.923 1.907-1.385 1.97-1.798a1 1 0 0 0-.278-.853c-.293-.298-1.079-.298-2.65-.298h-.165c-.22 0-.33 0-.422-.038a.5.5 0 0 1-.186-.136c-.066-.076-.1-.18-.168-.389l-.05-.157c-.486-1.494-.729-2.241-1.102-2.429a1 1 0 0 0-.897 0" clip-rule="evenodd"/></svg>