<svg xmlns="http://www.w3.org/2000/svg" fill="none" viewBox="0 0 24 24"><path fill="#01AEF0" d="M12 22c5.523 0 10-4.477 10-10S17.523 2 12 2 2 6.477 2 12s4.477 10 10 10Z"/><path fill="#fff" fill-rule="evenodd" d="M15.168 13.806c-.008 1.296-.757 2.4-1.951 2.853a7.4 7.4 0 0 1-.861.257c-.174.044-.268.13-.282.319a9.865 9.865 0 0 1-.075.712c-.04.28-.135.343-.392.282-.44-.105-.488-.177-.43-.64l.016-.118c.043-.38-.01-.434-.374-.416-.163.008-.23.089-.247.249-.02.23-.043.46-.08.687-.038.233-.136.29-.36.241-.477-.103-.512-.156-.45-.66.08-.628.077-.62-.501-.795-.257-.078-.505-.185-.756-.285-.153-.06-.203-.173-.161-.343.052-.215.088-.436.133-.654.078-.372.258-.484.602-.35a5.48 5.48 0 0 0 1.884.403c.587.014 1.168-.024 1.703-.313.354-.19.614-.47.745-.87.193-.595.02-1.076-.538-1.316-.46-.197-.952-.306-1.415-.495-.412-.167-.84-.335-1.194-.598-.798-.59-.938-1.462-.763-2.394.199-1.05.842-1.732 1.796-2.094.255-.096.37-.23.374-.515.004-.31.053-.619.09-.927.03-.237.122-.303.343-.267.47.077.527.152.48.64-.018.19-.033.38-.056.57-.019.16.032.233.199.238.38.011.397.004.442-.39.028-.253.05-.506.084-.759.038-.28.128-.344.386-.291.435.09.483.155.44.608-.018.198-.028.398-.062.594-.04.225.03.329.253.38.426.1.847.225 1.265.355.314.097.327.133.266.46-.035.195-.071.392-.117.585-.086.363-.268.472-.614.355-.592-.2-1.188-.38-1.816-.407-.55-.023-1.092-.015-1.57.33-.672.487-.676 1.475.04 1.892.454.265.98.4 1.473.595.3.118.61.22.898.365.774.386 1.162 1.032 1.153 1.928" clip-rule="evenodd"/></svg>