<svg xmlns="http://www.w3.org/2000/svg" fill="none" viewBox="0 0 24 24"><g clip-path="url(#a)"><path fill="url(#b)" d="M18.133 13.276a.2.2 0 0 1 .128-.012c.607.146 1.764.462 3.902 1.143q.075.025.154.03a.27.27 0 0 0 .14-.033.3.3 0 0 0 .104-.102.3.3 0 0 0 .012-.287c-.029-.062-.065-.12-.1-.178-.796-1.364-1.703-2.647-2.655-3.897a56 56 0 0 0-3.35-4.026c-.738-.802-2.427-2.66-2.844-3.038-.022-.022-1.59-1.544-2.54-2.031C9.561.065 7.961-.185 6.291.137 4.56.47 3.082 1.307 1.922 2.69.454 4.444-.174 6.494.042 8.81a8 8 0 0 0 1.272 3.63c.326.502.704.948 1.126 1.374.531.54 6.046 4.778 8.337 6.431 1.022.82 2.024 1.668 3.033 2.508.22.184.43.382.64.58.13.118.274.15.39.082.115-.069.152-.177.12-.359q-.024-.149-.053-.296c-.258-1.258-.7-2.45-1.223-3.61q-.035-.08-.073-.16a.22.22 0 0 1 .038-.243.2.2 0 0 1 .233-.045c1.682.8 3.319 1.694 4.932 2.633 1.443.84 2.873 1.706 4.309 2.56.247.148.49.14.685-.03s.249-.41.126-.698c-.309-.727-.6-1.463-.948-2.168-1.278-2.6-2.886-4.967-4.734-7.16l-.19-.221a.22.22 0 0 1-.025-.253.2.2 0 0 1 .096-.089"/><path fill="#202C46" fill-rule="evenodd" d="M2.496 7.875C2.575 5.06 4.823 2.736 7.66 2.743c2.822-.017 5.25 2.376 5.16 5.471a5.4 5.4 0 0 1-.622 2.367l2.34 2.062c.456.403.509 1.11.116 1.58a1.07 1.07 0 0 1-1.538.12l-2.341-2.064a5.07 5.07 0 0 1-3.146 1.07c-2.815-.01-5.22-2.385-5.134-5.474" clip-rule="evenodd"/><path fill="#fff" d="M7.614 10.88c1.55 0 2.805-1.29 2.805-2.88S9.165 5.12 7.615 5.12 4.81 6.41 4.81 8s1.256 2.88 2.805 2.88"/></g><defs><linearGradient id="b" x1="8.108" x2="12.545" y1="7.833" y2="21.604" gradientUnits="userSpaceOnUse"><stop stop-color="#6573FF"/><stop offset="1" stop-color="#29DDCC"/></linearGradient><clipPath id="a"><path fill="#fff" d="M0 0h24v24H0z"/></clipPath></defs></svg>