<svg xmlns="http://www.w3.org/2000/svg" fill="none" viewBox="0 0 24 24"><path fill="#62757E" fill-rule="evenodd" d="M12 22C6.486 22 2 17.514 2 12S6.486 2 12 2s10 4.486 10 10-4.486 10-10 10Zm0-18.333c-4.595 0-8.333 3.738-8.333 8.333 0 4.595 3.738 8.333 8.333 8.333 4.595 0 8.333-3.738 8.333-8.333 0-4.595-3.738-8.333-8.333-8.333Zm-1.02 2.978c.378-.907 1.662-.907 2.04 0l1.032 2.484 2.682.215c.979.078 1.376 1.3.63 1.939l-2.043 1.75.624 2.616c.228.956-.811 1.71-1.65 1.199L12 15.446l-2.296 1.402c-.838.512-1.877-.243-1.65-1.199l.625-2.616-2.043-1.75c-.746-.639-.349-1.86.63-1.94l2.682-.214 1.032-2.484ZM12 8.361l-.691 1.662a1.104 1.104 0 0 1-.932.677l-1.794.143 1.367 1.172c.314.27.452.692.356 1.095l-.418 1.75 1.537-.938a1.104 1.104 0 0 1 1.15 0l1.537.939-.418-1.752a1.104 1.104 0 0 1 .356-1.094l1.367-1.172-1.794-.143a1.104 1.104 0 0 1-.932-.677L12 8.361Z" clip-rule="evenodd"/></svg>