<svg xmlns="http://www.w3.org/2000/svg" fill="none" viewBox="0 0 24 24"><path fill="#1C2846" fill-rule="evenodd" d="M0 20.552A3.448 3.448 0 0 0 3.448 24h17.104c.114 0 .477-.006.935-.135.213-.06.904-.28 1.503-.875.94-.934 1.003-2.148 1.01-2.438v-6.698a152.073 152.073 0 0 0-24 1.373v5.325Z" clip-rule="evenodd"/><path fill="#606DB3" fill-rule="evenodd" d="M8.756 12.028c5.424-.21 10.522-.135 15.244.127V3.447A3.448 3.448 0 0 0 20.552 0H3.448A3.448 3.448 0 0 0 0 3.448v9.158c2.796-.26 5.717-.46 8.756-.578Z" clip-rule="evenodd"/><path fill="#FEFEFE" fill-rule="evenodd" d="M8.756 12.028c-3.039.118-5.96.317-8.756.578v2.62a151.698 151.698 0 0 1 24-1.372v-1.7c-4.722-.261-9.82-.337-15.244-.126Z" clip-rule="evenodd"/></svg>