<svg xmlns="http://www.w3.org/2000/svg" fill="none" viewBox="0 0 24 24"><path fill="#000" d="M19.177 5.814 16.77 7.041 5.14 12.964A6.928 6.928 0 0 1 15.386 6.02l1.379-.701.205-.105a8.461 8.461 0 0 0-13.407 7.492 1.54 1.54 0 0 1-.836 1.488l-.727.37v1.73l2.14-1.091.693-.354.683-.348 12.26-6.246 1.377-.702L22 6.103v-1.73zM22 7.832 6.212 15.87l-1.377.703L2 18.018v1.727l2.815-1.434 2.408-1.227 11.641-5.932q.06.454.06.91a6.928 6.928 0 0 1-10.316 6.039l-.085.045-1.494.761a8.462 8.462 0 0 0 13.408-7.494 1.54 1.54 0 0 1 .835-1.488l.728-.37z"/></svg>