<svg xmlns="http://www.w3.org/2000/svg" fill="none" viewBox="0 0 24 24"><path fill="#000" d="M19.177 5.814 16.77 7.041 5.14 12.964A6.928 6.928 0 0 1 15.386 6.02l1.379-.702.205-.104a8.462 8.462 0 0 0-13.407 7.492 1.54 1.54 0 0 1-.836 1.488l-.727.37v1.73l2.14-1.091.693-.354.683-.348 12.26-6.246 1.377-.702L22 6.102V4.374l-2.823 1.44ZM22 7.832 6.212 15.87l-1.377.703L2 18.018v1.727l2.815-1.434 2.408-1.227 11.641-5.932A6.927 6.927 0 0 1 8.608 18.1l-.085.044-1.494.762a8.462 8.462 0 0 0 13.408-7.495 1.54 1.54 0 0 1 .835-1.487l.728-.37V7.831Z"/></svg>