<svg xmlns="http://www.w3.org/2000/svg" fill="none" viewBox="0 0 24 24"><path fill="#62757E" d="M20.4 12c0-1.575-.001-2.676-.06-3.54-.058-.847-.166-1.347-.325-1.732a5.07 5.07 0 0 0-2.742-2.743c-.386-.16-.886-.267-1.734-.325-.863-.059-1.964-.06-3.539-.06s-2.676.001-3.54.06c-.847.058-1.347.166-1.732.325a5.07 5.07 0 0 0-2.743 2.743c-.16.385-.267.885-.325 1.733-.059.863-.06 1.964-.06 3.539s.001 2.676.06 3.54c.058.847.166 1.347.325 1.733a5.07 5.07 0 0 0 2.743 2.742c.385.16.885.267 1.733.325.863.059 1.964.06 3.539.06V22c-3.106 0-4.66 0-5.885-.508a6.67 6.67 0 0 1-3.473-3.306l-.134-.301C2 16.66 2 15.106 2 12c0-2.912 0-4.459.418-5.65l.09-.235a6.67 6.67 0 0 1 3.305-3.473l.302-.134C7.34 2 8.894 2 12 2s4.66 0 5.885.508a6.67 6.67 0 0 1 3.607 3.607C22 7.34 22 8.894 22 12s0 4.66-.508 5.885l-.134.301a6.67 6.67 0 0 1-3.473 3.306l-.235.09C16.46 22 14.912 22 12 22v-1.6c1.575 0 2.676-.001 3.54-.06.847-.058 1.347-.166 1.733-.325a5.07 5.07 0 0 0 2.742-2.742c.16-.386.267-.886.325-1.734.059-.863.06-1.964.06-3.539"/></svg>