<svg xmlns="http://www.w3.org/2000/svg" fill="none" viewBox="0 0 24 24"><path fill="#62757E" fill-rule="evenodd" d="M12 22C6.486 22 2 17.514 2 12S6.486 2 12 2s10 4.486 10 10-4.486 10-10 10m0-18.333c-4.595 0-8.333 3.738-8.333 8.333S7.405 20.333 12 20.333s8.333-3.738 8.333-8.333S16.595 3.667 12 3.667M7.728 9.352C7.5 9.903 7.5 10.602 7.5 12s0 2.097.228 2.648a3 3 0 0 0 1.624 1.624c.551.228 1.25.228 2.648.228s2.097 0 2.648-.228a3 3 0 0 0 1.624-1.624c.228-.551.228-1.25.228-2.648s0-2.097-.228-2.648a3 3 0 0 0-1.624-1.624C14.097 7.5 13.398 7.5 12 7.5s-2.097 0-2.648.228a3 3 0 0 0-1.624 1.624" clip-rule="evenodd"/></svg>