<svg xmlns="http://www.w3.org/2000/svg" fill="none" viewBox="0 0 24 24"><path fill="#ff4785" d="M3.113 22.069 2.37 2.3a1.204 1.204 0 0 1 1.128-1.247L20.313.003a1.204 1.204 0 0 1 1.28 1.201v21.541a1.204 1.204 0 0 1-1.259 1.203l-16.072-.722a1.204 1.204 0 0 1-1.15-1.157"/><mask id="a" width="20" height="24" x="2" y="0" maskUnits="userSpaceOnUse" style="mask-type:luminance"><path fill="#fff" d="M3.113 22.069 2.37 2.3a1.204 1.204 0 0 1 1.128-1.247L20.313.003a1.204 1.204 0 0 1 1.28 1.201v21.541a1.204 1.204 0 0 1-1.259 1.203l-16.072-.722a1.204 1.204 0 0 1-1.15-1.157"/></mask><g mask="url(#a)"><path fill="#fff" d="M16.564 2.944 16.68.18 18.99 0l.099 2.849a.179.179 0 0 1-.291.147l-.89-.701-1.055.8a.18.18 0 0 1-.288-.151m-2.953 6.083c0 .468 3.156.244 3.58-.085 0-3.19-1.712-4.867-4.847-4.867-3.134 0-4.89 1.703-4.89 4.256 0 4.448 6.002 4.533 6.002 6.959 0 .681-.334 1.085-1.067 1.085-.956 0-1.334-.488-1.29-2.148 0-.36-3.646-.472-3.757 0-.283 4.023 2.223 5.183 5.091 5.183 2.779 0 4.957-1.481 4.957-4.163 0-4.766-6.09-4.639-6.09-7 0-.959.71-1.086 1.133-1.086.445 0 1.245.078 1.178 1.866"/></g></svg>