<svg xmlns="http://www.w3.org/2000/svg" fill="none" viewBox="0 0 24 24"><g clip-path="url(#a)"><path fill="#2683FF" d="M12 24c6.627 0 12-5.373 12-12S18.627 0 12 0 0 5.373 0 12s5.373 12 12 12Z"/><path fill="#fff" d="M17.713 13.89a1.197 1.197 0 0 1 .428 1.612 1.23 1.23 0 0 1-1.655.457c-.057-.03-.107-.068-.158-.105l-3.135 1.772c.008.057.013.115.013.173 0 .068 0 .13-.013.197a1.213 1.213 0 0 1-1.39.989c-.661-.105-1.114-.717-1.007-1.365L7.64 15.836a2.426 2.426 0 0 1-.15.099c-.052.024-.102.055-.158.073a1.221 1.221 0 0 1-1.58-.66 1.182 1.182 0 0 1 .673-1.55V10.23a.775.775 0 0 1-.163-.075 2.59 2.59 0 0 1-.139-.092 1.184 1.184 0 0 1-.478-1.106 1.197 1.197 0 0 1 .744-.954 1.236 1.236 0 0 1 1.213.164l3.186-1.809a1.218 1.218 0 0 1-.013-.16c0-.655.56-1.198 1.227-1.198s1.215.53 1.215 1.191c0 .056-.006.105-.012.161l3.21 1.822a1.232 1.232 0 0 1 1.794.376 1.185 1.185 0 0 1-.472 1.624c-.057.024-.114.056-.17.074v3.575c.05.02.098.041.144.068Zm.22 1.495a.902.902 0 0 0-.32-1.248.934.934 0 0 0-1.095.118l-1.442-.82a1.592 1.592 0 0 0-.554-2.038 2.34 2.34 0 0 0-.158-.396l2.179-1.21a.951.951 0 0 0 1.18.085.916.916 0 0 0 .368-.955c-.113-.494-.617-.796-1.12-.686a.915.915 0 0 0-.7 1.1l-2.203 1.228c-.427-.5-1.787-.834-1.787-.834V7.006a.853.853 0 0 0 .611-.9.848.848 0 0 0-.611-.73.868.868 0 0 0-1.083.563A.848.848 0 0 0 11.777 7v2.778s-.742.24-1.032.475a1.98 1.98 0 0 0-.881.229L7.793 9.316a.89.89 0 0 0-.227-.827.932.932 0 0 0-1.52.244.9.9 0 0 0 .167 1.003.933.933 0 0 0 1.31.043l1.869 1.05a1.903 1.903 0 0 0-.214 2.481l-1.643.932a.948.948 0 0 0-1.433.186.916.916 0 0 0-.115.698.936.936 0 0 0 1.126.678.916.916 0 0 0 .692-1.105l1.757-.994a1.98 1.98 0 0 0 1.611.39c.176.08.356.147.54.203v2.594a.991.991 0 0 0-.584.487.947.947 0 0 0 .435 1.284.69.69 0 0 0 .12.05c.006 0 .012.006.018.006.516.154 1.064-.124 1.222-.63a.955.955 0 0 0-.643-1.198v-2.543s.472-.043.692-.111a1.666 1.666 0 0 0 1.782-.364l1.473.846a.902.902 0 0 0 .434.994.943.943 0 0 0 1.272-.328ZM6.9 14.52c.14 0 .269.073.34.19a.387.387 0 0 1-.34.575.387.387 0 0 1-.39-.382c0-.212.174-.383.39-.383Zm5.514-8.33a.39.39 0 0 1-.39.383.387.387 0 0 1-.39-.382c0-.212.174-.383.39-.383.216 0 .39.172.39.383Zm4.759 3.323a.39.39 0 0 1-.39-.383c0-.212.175-.383.39-.383.216 0 .39.171.39.383a.387.387 0 0 1-.39.382Zm-10.09-.736a.374.374 0 0 1 .144.519.388.388 0 0 1-.529.142.373.373 0 0 1-.145-.519.388.388 0 0 1 .53-.142Zm10.247 5.816a.374.374 0 0 1 0 .658.407.407 0 0 1-.392.003.376.376 0 0 1 0-.667.392.392 0 0 1 .392.006Zm-5.697 3.192a.02.02 0 0 1 .007-.013.387.387 0 0 1 .44-.317.382.382 0 0 1 .328.429.41.41 0 0 1-.403.327.391.391 0 0 1-.372-.426Zm2.242-5.909a.91.91 0 0 1 .642.877c0 .031-.007.062-.007.093-.006.025-.006.05-.012.074v.019a.893.893 0 0 1-.397.58l-.107.056-.019.006a.81.81 0 0 1-.233.068l-.031.006c-.044 0-.082.006-.126.006a.93.93 0 0 1-.566-.191l-.17.073a.714.714 0 0 1-.164.056h-.007c-.39.105-.803.063-1.164-.117h-.007c-.037-.019-.075-.037-.107-.056l-.012-.006c-.038-.024-.069-.05-.107-.074-.153.067-.318.1-.484.099-.051 0-.095 0-.14-.007l-.025-.006-.113-.018-.013-.006a1.367 1.367 0 0 1-.409-.167 1.098 1.098 0 0 1-.427-.494c0-.012-.007-.019-.013-.03a.633.633 0 0 0-.026-.063.297.297 0 0 1-.019-.043c-.006-.018-.018-.037-.018-.055a.177.177 0 0 0-.013-.056c-.006-.019-.006-.025-.013-.05-.006-.024-.006-.048-.012-.073 0-.02-.006-.031-.006-.043a1.18 1.18 0 0 1 0-.26c0-.018.006-.03.006-.043l.02-.099c.006-.013.006-.03.012-.043a.597.597 0 0 1 .031-.099c.007-.013.007-.018.013-.03a.796.796 0 0 1 .05-.112l.007-.012a1.258 1.258 0 0 1 1.044-.655c.02-.006.038-.006.064-.006.075 0 .151.006.226.02.032-.039.063-.07.1-.107l.033-.03c.037-.031.068-.062.106-.087l.02-.012c.024-.019.068-.05.087-.062.02-.012.05-.037.07-.043a.296.296 0 0 0 .063-.03c.037-.02.1-.05.138-.063l.032-.024c.252-.098.525-.13.793-.093h.006c.05.005.101.013.15.024h.007c.051.007.095.026.145.038l.006.006c.05.018.095.037.139.056l.012.006c.044.018.086.038.126.061l.007.007c.037.019.081.05.12.073l.006.007a.809.809 0 0 1 .119.086l.006.007c.21.177.373.404.472.66v.007l.038.117c0 .012.007.024.007.037.01.031.019.065.025.098l.019.142Z"/></g><defs><clipPath id="a"><path fill="#fff" d="M0 0h24v24H0z"/></clipPath></defs></svg>