<svg xmlns="http://www.w3.org/2000/svg" fill="none" viewBox="0 0 24 24"><g clip-path="url(#a)"><path fill="#2DC4E7" d="M12 24c6.627 0 12-5.373 12-12S18.627 0 12 0 0 5.373 0 12s5.373 12 12 12"/><path fill="#fff" d="M6.025 7.217c.65 0 1.321-.043 1.972.015.289.325.354.78.577 1.155 2.92.015 5.852 0 8.771 0 .217.015.484.022.592.239.13.238.037.52-.086.737-.593 1.004-1.156 2.023-1.734 3.034-.217.361-.362.766-.687 1.048-.266.224-.635.238-.975.238H10.41c-.217 0-.448-.022-.578-.195-.418-.47-.643-1.07-.917-1.619q-.712-1.426-1.395-2.867c-.094-.217-.21-.412-.318-.615-.382 0-.766 0-1.14-.014a4.1 4.1 0 0 1-.037-1.156m4.558 7.246c.294-.07.6-.075.896-.014.332.072.621.325.7.657.087.383.087.795-.065 1.163-.144.333-.505.492-.845.52-.39.03-.838 0-1.127-.289-.31-.346-.31-.852-.245-1.286a.9.9 0 0 1 .685-.751zm3.612 0a1.97 1.97 0 0 1 1.098.058c.332.137.506.498.534.838.044.397 0 .852-.288 1.156-.268.253-.658.289-1.011.281-.348-.014-.723-.144-.903-.469a1.7 1.7 0 0 1-.13-1.135.94.94 0 0 1 .7-.729"/></g><defs><clipPath id="a"><path fill="#fff" d="M0 0h24v24H0z"/></clipPath></defs></svg>