<svg xmlns="http://www.w3.org/2000/svg" fill="none" viewBox="0 0 24 24"><g clip-path="url(#a)"><path fill="#1387C9" d="M12 24c6.627 0 12-5.373 12-12S18.627 0 12 0 0 5.373 0 12s5.373 12 12 12"/><path fill="#fff" d="m12.031 13.402 5.67-3.3-5.67-3.358-5.612 3.359zM6.12 11.677a.45.45 0 0 0 .222.388l5.689 3.314 5.782-3.42a.436.436 0 0 1 .655.378v1.552a.44.44 0 0 1-.213.376l-6.002 3.583a.43.43 0 0 1-.441.002l-6.157-3.62a.313.313 0 0 1 .076-.57.3.3 0 0 1 .235.031l6.065 3.565 5.818-3.473V12.66l-5.597 3.311a.43.43 0 0 1-.439.002l-5.78-3.368a1.07 1.07 0 0 1-.532-.928v-1.461a.373.373 0 0 1 .56-.324l.36.21-.452.27a.307.307 0 0 1-.464-.214.31.31 0 0 1 .148-.32l6.157-3.685a.43.43 0 0 1 .443-.002l6.033 3.575a.44.44 0 0 1-.002.757l-6.035 3.513a.43.43 0 0 1-.437-.001L5.748 10.43a.244.244 0 0 0 .36-.141.3.3 0 0 0 .011-.073z"/></g><defs><clipPath id="a"><path fill="#fff" d="M0 0h24v24H0z"/></clipPath></defs></svg>