<svg xmlns="http://www.w3.org/2000/svg" fill="none" viewBox="0 0 24 24"><g clip-path="url(#a)"><path fill="#1387C9" d="M12 24c6.627 0 12-5.373 12-12S18.627 0 12 0 0 5.373 0 12s5.373 12 12 12Z"/><path fill="#fff" d="m12.031 13.402 5.67-3.3-5.67-3.358-5.612 3.359 5.612 3.3ZM6.12 11.677a.449.449 0 0 0 .222.388l5.689 3.314 5.782-3.42a.436.436 0 0 1 .655.378v1.552a.44.44 0 0 1-.213.376l-6.002 3.583a.432.432 0 0 1-.441.001l-6.157-3.62a.313.313 0 0 1 .076-.57.307.307 0 0 1 .235.032l6.065 3.565 5.818-3.473V12.66l-5.597 3.31a.433.433 0 0 1-.439.003l-5.78-3.369a1.072 1.072 0 0 1-.532-.927v-1.461a.373.373 0 0 1 .56-.324l.36.21-.452.27a.307.307 0 0 1-.464-.214.313.313 0 0 1 .148-.32l6.157-3.686a.433.433 0 0 1 .443 0l6.033 3.574a.44.44 0 0 1-.002.757l-6.035 3.512a.432.432 0 0 1-.437 0L5.748 10.43a.244.244 0 0 0 .36-.141.25.25 0 0 0 .011-.073v1.461Z"/></g><defs><clipPath id="a"><path fill="#fff" d="M0 0h24v24H0z"/></clipPath></defs></svg>