<svg xmlns="http://www.w3.org/2000/svg" fill="none" viewBox="0 0 24 24"><g clip-path="url(#a)"><path fill="#7324F0" d="M12 24c6.627 0 12-5.373 12-12S18.627 0 12 0 0 5.373 0 12s5.373 12 12 12"/><path fill="#fff" d="M19.494 10.393V10.1a1.9 1.9 0 0 0-1.894 1.763 1.897 1.897 0 0 0-1.887-1.763v.293a1.607 1.607 0 1 1 0 3.214v.293a1.903 1.903 0 0 0 1.893-1.763A1.9 1.9 0 0 0 19.5 13.9v-.293a1.608 1.608 0 0 1-.006-3.214M9.34 13.9v-.218L9.334 12h-.28v1.9zm3.8-3.8c-1.047 0-1.9.854-1.9 1.9s.853 1.9 1.9 1.9a1.9 1.9 0 0 0 0-3.8m0 3.507a1.608 1.608 0 1 1 0-3.214 1.607 1.607 0 0 1 0 3.214M8.007 10.1c-1.047 0-1.9.854-1.9 1.9A1.61 1.61 0 0 1 4.5 13.607v.293c1.046 0 1.9-.854 1.9-1.9a1.61 1.61 0 0 1 1.607-1.607h2.442V10.1z"/></g><defs><clipPath id="a"><path fill="#fff" d="M0 0h24v24H0z"/></clipPath></defs></svg>