<svg xmlns="http://www.w3.org/2000/svg" fill="none" viewBox="0 0 24 24"><g clip-path="url(#a)"><path fill="#E53431" d="M12 24c6.627 0 12-5.373 12-12S18.627 0 12 0 0 5.373 0 12s5.373 12 12 12"/><path fill="#fff" d="M9.765 5.034a.16.16 0 0 1 .194 0l.816.61a.162.162 0 0 1-.196.26l-.716-.537L7.53 7.116 17.773 14.8a.163.163 0 0 1 0 .261l-.753.564a.162.162 0 1 1-.194-.26l.579-.435L7.162 7.247a.16.16 0 0 1 0-.259zm2.604 0a.16.16 0 0 1 .195-.002l5.208 3.907a.16.16 0 0 1 .056.181.16.16 0 0 1-.154.112H15.07a.17.17 0 0 1-.097-.033l-3.418-2.563a.163.163 0 0 1 .195-.26l3.376 2.53h2.06l-4.719-3.54L9.2 7.818a.163.163 0 1 1-.195-.26zM7.881 8.4a.163.163 0 0 1 .194.26l-.545.41 10.243 7.683a.162.162 0 0 1 0 .26l-2.604 1.954a.16.16 0 0 1-.194 0l-.754-.565a.163.163 0 1 1 .196-.26l.655.49 2.334-1.75L7.16 9.2a.164.164 0 0 1 0-.26l.72-.538m-.622 6.365v.002h2.603q.055-.001.097.032l3.381 2.535a.16.16 0 0 1 .064.107.16.16 0 0 1-.078.163.16.16 0 0 1-.123.018.2.2 0 0 1-.057-.027L9.81 15.093H7.748l4.72 3.54 3.26-2.446a.163.163 0 0 1 .239.213.2.2 0 0 1-.043.048l-3.358 2.517a.16.16 0 0 1-.195 0L7.16 15.06a.163.163 0 1 1 .098-.294"/></g><defs><clipPath id="a"><path fill="#fff" d="M0 0h24v24H0z"/></clipPath></defs></svg>