<svg xmlns="http://www.w3.org/2000/svg" fill="none" viewBox="0 0 24 24"><g clip-path="url(#a)"><path fill="#2D9CDB" d="M12 24c6.627 0 12-5.373 12-12S18.627 0 12 0 0 5.373 0 12s5.373 12 12 12Z"/><path fill="#fff" d="M13.34 7.505c2.212 2.317 2.774 2.727 3.311 2.875-1.868-.235-2.923-.367-4.684-1.291l-1.111 1.293 6.994 1.553c-2.188 1.86-3.136 2.851-4.51 4.56h-2.647c-1.162-1.703-1.938-2.255-3.432-2.944 1.988.184 3.093.306 4.706 1.261l1.21-1.358-7.027-1.519c1.634-1.347 2.585-2.245 4.543-4.43h2.647Zm-2.484-.323c.604-.745.851-1.107 1.176-1.682.319.593.565.959 1.144 1.682h-2.32Zm2.32 9.636c-.605.745-.852 1.107-1.176 1.682-.319-.593-.566-.959-1.144-1.682h2.32Z"/></g><defs><clipPath id="a"><path fill="#fff" d="M0 0h24v24H0z"/></clipPath></defs></svg>