<svg xmlns="http://www.w3.org/2000/svg" fill="none" viewBox="0 0 24 24"><path fill="#62757E" fill-rule="evenodd" d="m21.495 19.433-5.833 2.5a.8.8 0 0 1-.329.067h-4.166a.833.833 0 0 1-.834-.833v-.834c0-.46.373-.833.834-.833h1.666c.461 0 .834.373.834.833h1.495l3.885-1.665h-.38c-.92 0-1.667-.747-1.667-1.666v-3.334c0-.919.747-1.666 1.667-1.666h1.666c0-4.596-3.738-8.335-8.333-8.335s-8.333 3.739-8.333 8.335h1.666c.919 0 1.667.747 1.667 1.666v3.334c0 .919-.748 1.666-1.667 1.666H3.667c-.92 0-1.667-.747-1.667-1.666v-5C2 6.487 6.486 2 12 2s10 4.487 10 10.002v6.665a.83.83 0 0 1-.505.765m-17.828-2.43H5.33l.002-3.334H3.667zm15-3.334v3.334h1.664l.002-3.334z" clip-rule="evenodd"/></svg>