<svg xmlns="http://www.w3.org/2000/svg" fill="none" viewBox="0 0 24 24"><g clip-path="url(#a)"><path fill="#FBECF3" d="M12 24c6.627 0 12-5.373 12-12S18.627 0 12 0 0 5.373 0 12s5.373 12 12 12Z"/><path fill="#FA52A0" d="m8.182 6.713 10.099 6.895-2.498 3.692-10.098-6.95 2.497-3.637Z"/><path fill="#FA52A0" d="M18.281 13.609c-.869 1.248-3.8.76-6.57-1.195-2.823-1.9-4.343-4.452-3.529-5.7.869-1.25 3.8-.76 6.57 1.194 2.823 1.846 4.344 4.452 3.53 5.7Z"/><path fill="#FA52A0" d="M15.784 17.246c-.869 1.249-3.8.76-6.57-1.194C6.445 14.097 4.87 11.6 5.74 10.296c.869-1.248 3.8-.76 6.57 1.195 2.769 1.954 4.29 4.506 3.475 5.755Z"/><path fill="#000" d="M18.282 13.609 15.784 17.3c-.869 1.248-3.8.706-6.57-1.195-.543-.38-1.031-.76-1.52-1.194.38-.055.869-.272 1.357-.815.87-.923 1.303-1.14 1.684-1.086.38 0 .814.38 1.52 1.303.706.924 1.683 1.195 2.28.706.054-.054.109-.054.163-.108.489-.38.652-.543 1.575-2.28.217-.435.977-1.14 2.009-.815.271.706.271 1.303 0 1.792Z"/><path fill="#fff" fill-rule="evenodd" d="M17.901 13.391c-.76 1.086-3.42.543-5.972-1.248C9.323 10.35 7.802 8.07 8.562 6.985c.76-1.086 3.421-.543 5.973 1.248 2.552 1.792 4.072 4.072 3.366 5.158Zm-2.389-1.628c-.38.543-1.683.271-2.986-.598-1.249-.868-2.009-2.009-1.629-2.551.38-.543 1.683-.272 2.986.597 1.25.868 2.01 2.009 1.63 2.552Z" clip-rule="evenodd"/><path fill="#fff" d="M7.965 7.962c0-.054-.054-.109-.108-.054-.054.054-.109.054-.109.108.055.163.109.272.109.38 0 .055.054.109.108.055.055 0 .11-.055.055-.109 0-.108 0-.217-.055-.38Zm.272.868c0-.054-.055-.108-.109-.054-.054.055-.054.055-.054.109.597 1.357 1.846 2.823 3.475 3.91.054.053.108 0 .162 0 .055-.055 0-.11 0-.164-1.683-1.086-2.877-2.497-3.474-3.8Zm6.57 5.321c-.055 0-.109 0-.109.055 0 .054 0 .108.054.108.163.054.38.109.543.163.055 0 .11 0 .11-.054 0-.055 0-.109-.055-.109-.163-.054-.38-.108-.543-.163Zm.977.218a.117.117 0 0 0-.109.108c0 .055.054.11.109.11.434.053.923.108 1.303.053a.117.117 0 0 0 .108-.108.117.117 0 0 0-.108-.109c-.435.054-.869 0-1.303-.054Z"/></g><defs><clipPath id="a"><path fill="#fff" d="M0 0h24v24H0z"/></clipPath></defs></svg>