<svg xmlns="http://www.w3.org/2000/svg" fill="none" viewBox="0 0 24 24"><path fill="url(#a)" d="m6.127 4.056 15.536 10.608-3.842 5.68L2.284 9.652l3.843-5.596Z"/><path fill="url(#b)" d="M21.663 14.664c-1.336 1.921-5.847 1.17-10.107-1.838-4.343-2.923-6.682-6.849-5.43-8.77 1.337-1.921 5.848-1.17 10.108 1.838 4.343 2.84 6.682 6.849 5.43 8.77Z"/><path fill="url(#c)" d="M17.82 20.26c-1.336 1.922-5.846 1.17-10.106-1.837-4.26-3.007-6.682-6.85-5.346-8.854 1.336-1.921 5.847-1.17 10.107 1.837 4.26 3.008 6.599 6.933 5.346 8.855Z"/><path fill="#0E0F23" d="m21.663 14.664-3.842 5.68c-1.337 1.921-5.847 1.086-10.107-1.838a25.17 25.17 0 0 1-2.339-1.837c.585-.084 1.336-.418 2.088-1.253 1.337-1.42 2.005-1.754 2.59-1.67.584 0 1.253.584 2.338 2.004 1.086 1.42 2.59 1.838 3.509 1.086.083-.084.167-.084.25-.167.752-.585 1.003-.835 2.423-3.508.334-.669 1.503-1.755 3.09-1.253.418 1.085.418 2.004 0 2.756Z"/><path fill="#fff" fill-rule="evenodd" d="M21.078 14.33c-1.169 1.67-5.262.835-9.188-1.921-4.01-2.757-6.348-6.265-5.178-7.935 1.169-1.671 5.262-.836 9.188 1.92 3.926 2.757 6.264 6.265 5.178 7.936Zm-3.675-2.506c-.584.835-2.59.418-4.594-.919-1.921-1.336-3.09-3.09-2.506-3.926.585-.835 2.59-.417 4.594.92 1.921 1.336 3.091 3.09 2.506 3.925Z" clip-rule="evenodd"/><path fill="#fff" d="M5.793 5.977c0-.084-.084-.167-.167-.084-.084.084-.167.084-.167.168.083.25.167.417.167.584 0 .084.083.167.167.084.083 0 .167-.084.083-.167 0-.167 0-.334-.083-.585Zm.417 1.336c0-.083-.083-.167-.167-.083-.083.083-.083.083-.083.167.919 2.088 2.84 4.344 5.346 6.014.083.084.167 0 .25 0 .084-.083 0-.167 0-.25C8.966 11.49 7.13 9.318 6.21 7.313ZM16.317 15.5c-.083 0-.167 0-.167.083 0 .084 0 .167.084.167.25.084.584.167.835.25.084 0 .167 0 .167-.083s0-.167-.083-.167c-.251-.083-.585-.167-.836-.25Zm1.503.334a.18.18 0 0 0-.166.167.18.18 0 0 0 .167.167c.668.083 1.42.167 2.005.083a.18.18 0 0 0 .167-.167.18.18 0 0 0-.167-.167c-.669.084-1.337 0-2.005-.083Z"/><defs><linearGradient id="a" x1="9.171" x2="12.252" y1="2.548" y2="13.128" gradientUnits="userSpaceOnUse"><stop stop-color="#03B8FF"/><stop offset="1" stop-color="#FA52A0"/></linearGradient><linearGradient id="b" x1="11.708" x2="14.789" y1="1.809" y2="12.389" gradientUnits="userSpaceOnUse"><stop stop-color="#03B8FF"/><stop offset="1" stop-color="#FA52A0"/></linearGradient><linearGradient id="c" x1="6.641" x2="9.722" y1="3.284" y2="13.864" gradientUnits="userSpaceOnUse"><stop stop-color="#03B8FF"/><stop offset="1" stop-color="#FA52A0"/></linearGradient></defs></svg>