<svg xmlns="http://www.w3.org/2000/svg" fill="none" viewBox="0 0 24 24"><path fill="#62757E" fill-rule="evenodd" d="m20.423 16.78-3.334 3a.848.848 0 0 1-.27.162.92.92 0 0 1-.32.058.88.88 0 0 1-.589-.22l-3.332-3a.697.697 0 0 1 0-1.06.9.9 0 0 1 1.178 0l1.987 1.788V4.698c0-.415.297-.698.757-.698s.833.336.833.75v12.689l1.911-1.72a.9.9 0 0 1 1.179 0 .698.698 0 0 1 0 1.061ZM11.5 8.5a.879.879 0 0 1-.59-.22L9 6.56v12.69c0 .414-.373.75-.834.75-.46 0-.833-.336-.833-.75V6.56L5.422 8.28a.9.9 0 0 1-1.178 0 .698.698 0 0 1 0-1.06l3.333-3a.837.837 0 0 1 .27-.162.919.919 0 0 1 .638 0 .832.832 0 0 1 .271.163L12.09 7.22a.698.698 0 0 1 0 1.06.879.879 0 0 1-.59.22Z" clip-rule="evenodd"/></svg>