<svg xmlns="http://www.w3.org/2000/svg" fill="none" viewBox="0 0 24 24"><path fill="#333" d="M17.373 8.556c-2.906 0-5.301 2.332-7.468 4.269-.624-.548-1.325-1.223-1.86-1.86-.051-.064-.128-.077-.166-.052a.109.109 0 0 0-.013.166c.497.612 1.16 1.35 1.785 1.975-1.16 1.096-2.931 2.421-4.359 2.421-2.88 0-2.892-3.988-.37-4.74.115-.025.115-.166 0-.127-3.3.815-3.121 5.466.434 5.466 1.695 0 3.25-1.134 4.817-2.472 1.695 1.53 3.836 2.778 6.588 2.778 6.984 0 6.78-7.824.612-7.824Zm-.663 7.225c-2.204-.012-4.345-.98-6.218-2.446 2.128-1.848 4.281-3.964 6.817-3.964 4.945 0 5.072 6.449-.599 6.41Z"/><path fill="#333" d="M6.427 10.913a.714.714 0 1 0 0-1.427.714.714 0 0 0 0 1.427Z"/></svg>