<svg xmlns="http://www.w3.org/2000/svg" fill="none" viewBox="0 0 24 24"><path fill="#8D33E5" d="M11.997 3.024c3.086 0 5.997.94 8.678 2.477l.2.09-.061.211a16.817 16.817 0 0 1-2.369 8.57 17.177 17.177 0 0 1-6.303 6.4l-.145.102-.156-.108c-2.664-1.543-4.683-3.719-6.214-6.388-1.53-2.664-2.452-5.629-2.452-8.708l-.024-.145.102-.084c2.67-1.537 5.653-2.435 8.738-2.435"/><path fill="#7000DF" d="M20.772 5.417a17.595 17.595 0 0 0-8.775-2.387v17.742l.2.12a17.51 17.51 0 0 0 6.381-6.43 17.363 17.363 0 0 0 2.375-8.726v-.217l-.181-.102Z"/><path fill="#7000DF" d="M20.983 5.7v-.235l-.2-.115A17.658 17.658 0 0 0 11.992 3a17.62 17.62 0 0 0-8.786 2.35L3 5.465V5.7c.012 3.085.826 6.11 2.368 8.774a17.577 17.577 0 0 0 6.43 6.424l.2.115.198-.115a17.562 17.562 0 0 0 6.43-6.418 17.56 17.56 0 0 0 2.375-8.78h-.018Zm-8.998 14.42c-5.176-3.024-8.49-8.436-8.527-14.432a17.435 17.435 0 0 1 8.54-2.236c2.994 0 5.93.771 8.539 2.236-.03 6.008-3.351 11.408-8.54 14.427l-.012.006Z"/><path fill="#8D33E5" d="M11.997 20.115c-5.188-3.02-8.503-8.431-8.539-14.427a17.452 17.452 0 0 1 8.54-2.236V3c-3.086 0-6.123.808-8.8 2.35L3 5.465V5.7c.006 3.085.826 6.11 2.368 8.774a17.577 17.577 0 0 0 6.43 6.424l.2.115v-.898Z"/><path fill="#3F017F" d="M17.65 8.604a.554.554 0 0 0-.036-.198 5.372 5.372 0 0 0-.88-1.597c-.09-.127-.199-.241-.295-.362l-.079-.09a.537.537 0 0 0-.386-.163.57.57 0 0 0-.138.03.18.18 0 0 0-.06.024S12.504 8.02 11.99 8.285c-.506-.265-3.76-2.049-3.839-2.055a.516.516 0 0 0-.138-.03.522.522 0 0 0-.271.072.395.395 0 0 0-.109.09l-.078.091a4.512 4.512 0 0 0-.295.362 5.974 5.974 0 0 0-.868 1.524.652.652 0 0 0-.006.53.589.589 0 0 0 .168.218c.013.012.025.024.043.03l.042.03.06.042.518.32 1.025.638 1.024.645.85.512.012 3.598v.711a.738.738 0 0 0 .048.199c.055.12.133.223.235.301a.929.929 0 0 0 .35.163c.126.03.259.06.392.078a5.918 5.918 0 0 0 1.663 0c.199-.03.247-.042.38-.072a.846.846 0 0 0 .355-.169.721.721 0 0 0 .235-.301.797.797 0 0 0 .048-.199V15.5s.042-3.249.03-4.189l.844-.512 1.049-.65 1.03-.646.512-.319a.612.612 0 0 0 .35-.579Z"/><path fill="#F4A900" d="M10.509 11.1a2.04 2.04 0 0 0-.2-.88 2.04 2.04 0 0 0-.56-.7c-.674-.536-1.723-.729-2.741-.512-.067.012-.254-.102-.32-.114 0 0-.018-.012.018.018s.03.06.036.066l3.76 2.158v-.037h.007Z"/><path fill="#78B6E4" d="M13.8 8.737c.8-.313 1.494-1.12 1.813-2.11.024-.072.15-.09.199-.138.018-.012-.042-.078-.024-.09L11.99 8.586l.049.024c.265.151.554.248.861.266a1.97 1.97 0 0 0 .892-.139h.006Z"/><path fill="#20B5AC" d="M13.42 11.202a1.981 1.981 0 0 0-.965 1.452c-.12.85.235 1.85.934 2.61.055.054.049.162.06.235 0 .018.025.018.043.03l.018-4.37-.09.043Z"/><path fill="#3F017F" d="M12.636 12.81c.054-.3.175-.578.35-.825.174-.247.41-.446.675-.59l-.157-.241-.085.054a1.982 1.982 0 0 0-.964 1.452c-.102.741.157 1.61.7 2.326a3.496 3.496 0 0 1-.519-2.175Zm1.199-4.296a2.03 2.03 0 0 1-.892.109 1.965 1.965 0 0 1-.85-.296l-.138.253.085.055c.259.15.554.24.855.259a1.9 1.9 0 0 0 .88-.139 3.643 3.643 0 0 0 1.802-1.79c0-.012-.054-.078-.108.042a3.42 3.42 0 0 1-1.634 1.507ZM9.533 9.653a1.801 1.801 0 0 1 .662 1.525l.29.09.09-.096c.018-.603-.247-1.368-.723-1.76-.554-.47-1.724-.627-2.507-.506-.03 0-.042.048.163.042a3.107 3.107 0 0 1 2.025.705Z"/><path fill="#fff" d="M11.997 16.029c-.403 0-.807-.054-1.199-.157a.38.38 0 0 1-.205-.138.375.375 0 0 1-.084-.235v-4.4c0-.3-.066-.602-.193-.873a1.956 1.956 0 0 0-.555-.7c-.674-.536-1.723-.729-2.741-.512a.451.451 0 0 1-.157.006.38.38 0 0 1-.145-.054.397.397 0 0 1-.18-.247.371.371 0 0 1 .017-.229c.127-.362.29-.717.477-1.055.198-.35.44-.675.729-.958a.407.407 0 0 1 .476-.06l3.706 2.133.096.06c.266.151.555.248.862.266a1.86 1.86 0 0 0 .886-.145c.802-.313 1.495-1.12 1.814-2.11a.61.61 0 0 1 .072-.138.394.394 0 0 1 .127-.096.441.441 0 0 1 .15-.048.399.399 0 0 1 .344.145c.253.294.476.608.675.945.205.35.362.723.464 1.115a.45.45 0 0 1-.018.253.39.39 0 0 1-.169.187l-3.73 2.152-.103.06c-.259.15-.482.361-.644.614a1.999 1.999 0 0 0-.314.832c-.12.85.235 1.85.934 2.61a.399.399 0 0 1 .085.397.436.436 0 0 1-.12.175.427.427 0 0 1-.2.09 6.843 6.843 0 0 1-1.157.115Z"/></svg>