<svg xmlns="http://www.w3.org/2000/svg" fill="none" viewBox="0 0 24 24"><path fill="#8D33E5" d="M11.997 3.024c3.085 0 5.996.94 8.678 2.477l.199.09-.06.211a16.8 16.8 0 0 1-2.369 8.57 17.2 17.2 0 0 1-6.303 6.4l-.145.102-.157-.108c-2.663-1.543-4.682-3.719-6.213-6.388-1.53-2.664-2.452-5.629-2.452-8.708l-.025-.145.103-.084c2.67-1.537 5.653-2.435 8.738-2.435"/><path fill="#7000DF" d="M20.771 5.417a17.6 17.6 0 0 0-8.774-2.387v17.742l.199.12a17.5 17.5 0 0 0 6.382-6.43 17.36 17.36 0 0 0 2.374-8.726v-.217z"/><path fill="#7000DF" d="M20.983 5.7v-.235l-.2-.115A17.66 17.66 0 0 0 11.992 3a17.6 17.6 0 0 0-8.786 2.35L3 5.465V5.7c.012 3.085.826 6.11 2.368 8.774a17.6 17.6 0 0 0 6.43 6.424l.2.115.198-.115a17.56 17.56 0 0 0 6.43-6.418 17.56 17.56 0 0 0 2.375-8.78zm-8.998 14.42c-5.176-3.024-8.49-8.436-8.527-14.432a17.43 17.43 0 0 1 8.54-2.236c2.994 0 5.93.771 8.539 2.236-.03 6.008-3.351 11.408-8.54 14.427z"/><path fill="#8D33E5" d="M11.997 20.115c-5.188-3.02-8.503-8.431-8.539-14.427a17.45 17.45 0 0 1 8.54-2.236V3c-3.086 0-6.123.808-8.8 2.35L3 5.465V5.7c.006 3.085.826 6.11 2.368 8.774a17.6 17.6 0 0 0 6.43 6.424l.2.115z"/><path fill="#3F017F" d="M17.65 8.605a.6.6 0 0 0-.036-.2 5.4 5.4 0 0 0-.88-1.596c-.09-.127-.199-.241-.295-.362l-.079-.09a.54.54 0 0 0-.386-.163.6.6 0 0 0-.138.03.2.2 0 0 0-.06.024S12.504 8.02 11.99 8.285c-.506-.265-3.76-2.049-3.839-2.055a.5.5 0 0 0-.138-.03.5.5 0 0 0-.271.072.4.4 0 0 0-.109.09l-.078.091a5 5 0 0 0-.295.362 6 6 0 0 0-.868 1.524.65.65 0 0 0-.006.53.6.6 0 0 0 .168.218q.018.02.043.03l.042.03.06.042.518.32 1.025.638 1.024.645.85.512.012 3.598v.711a.7.7 0 0 0 .048.199q.082.182.235.301a.9.9 0 0 0 .35.163c.126.03.259.06.392.078a6 6 0 0 0 1.663 0c.199-.03.247-.042.38-.072a.85.85 0 0 0 .355-.169.7.7 0 0 0 .235-.301.8.8 0 0 0 .048-.199V15.5s.042-3.249.03-4.189l.844-.512 1.049-.65 1.03-.646.512-.319a.61.61 0 0 0 .35-.578"/><path fill="#F4A900" d="M10.509 11.1a2.04 2.04 0 0 0-.2-.88 2.04 2.04 0 0 0-.56-.7c-.674-.536-1.723-.729-2.741-.512-.067.012-.254-.102-.32-.114 0 0-.018-.012.018.018s.03.06.036.066l3.76 2.158v-.037z"/><path fill="#78B6E4" d="M13.8 8.737c.8-.313 1.494-1.12 1.813-2.11.024-.071.15-.09.199-.138.018-.012-.042-.078-.024-.09L11.99 8.586l.048.024c.266.151.555.248.862.266a2 2 0 0 0 .892-.139z"/><path fill="#20B5AC" d="M13.42 11.202a1.98 1.98 0 0 0-.965 1.452c-.12.85.235 1.85.934 2.61.055.054.049.162.06.235 0 .018.025.018.043.03l.018-4.37z"/><path fill="#3F017F" d="M12.636 12.81c.054-.3.175-.578.35-.825.174-.247.41-.446.674-.59l-.156-.241-.085.054a1.98 1.98 0 0 0-.964 1.452c-.102.741.157 1.61.7 2.326a3.5 3.5 0 0 1-.52-2.175m1.2-4.297c-.283.102-.59.139-.892.109a2 2 0 0 1-.85-.296l-.138.253.084.055c.26.15.555.24.856.259a1.9 1.9 0 0 0 .88-.139 3.64 3.64 0 0 0 1.802-1.79c0-.012-.054-.078-.109.042a3.42 3.42 0 0 1-1.633 1.507M9.533 9.653a1.8 1.8 0 0 1 .662 1.525l.29.09.09-.096c.018-.603-.247-1.368-.723-1.76-.554-.47-1.724-.627-2.507-.506-.03 0-.042.048.163.042a3.1 3.1 0 0 1 2.025.705"/><path fill="#fff" d="M11.997 16.029c-.403 0-.807-.054-1.199-.157a.38.38 0 0 1-.205-.138.38.38 0 0 1-.084-.235v-4.4c0-.3-.066-.602-.193-.873a1.96 1.96 0 0 0-.554-.7c-.675-.536-1.724-.729-2.742-.512a.5.5 0 0 1-.157.006.4.4 0 0 1-.145-.054.4.4 0 0 1-.18-.247.37.37 0 0 1 .018-.229c.126-.362.289-.717.476-1.055.199-.35.44-.675.729-.958a.41.41 0 0 1 .476-.06l3.706 2.133.097.06c.265.151.554.248.861.266a1.86 1.86 0 0 0 .886-.145c.802-.313 1.495-1.12 1.814-2.11a.6.6 0 0 1 .072-.138.4.4 0 0 1 .127-.096.4.4 0 0 1 .15-.048.4.4 0 0 1 .344.145q.378.441.675.945.31.527.464 1.115a.45.45 0 0 1-.018.253.4.4 0 0 1-.169.187l-3.73 2.152-.102.06a2 2 0 0 0-.958 1.446c-.121.85.234 1.85.934 2.61a.4.4 0 0 1 .084.397.44.44 0 0 1-.12.175.4.4 0 0 1-.2.09 7 7 0 0 1-1.157.115"/></svg>