<svg xmlns="http://www.w3.org/2000/svg" fill="none" viewBox="0 0 24 24"><g clip-path="url(#a)"><path fill="url(#b)" d="M11.999 21.998c5.522 0 9.999-4.477 9.999-10 0-5.521-4.477-9.998-10-9.998C6.478 2 2 6.477 2 11.999s4.477 9.999 9.999 9.999Z"/><path fill="#00D1FF" d="M8.705 9.513a.421.421 0 0 0-.33-.154H5.704a.089.089 0 0 1-.058-.022.069.069 0 0 1-.022-.05v-1.8c0-.02.008-.036.022-.05a.068.068 0 0 1 .058-.021h2.822c.711 0 1.326.292 1.844.873l.686.838-1.336 1.629-1.015-1.243ZM13.64 8.28c.515-.576 1.132-.865 1.852-.865h2.814a.07.07 0 0 1 .052.016c.014.014.02.033.017.055v1.8c0 .02-.006.036-.017.05a.057.057 0 0 1-.052.022h-2.671a.42.42 0 0 0-.33.154l-1.969 2.395 1.976 2.412c.08.09.199.146.32.143h2.67a.062.062 0 0 1 .053.022c.011.016.02.038.017.058v1.8a.077.077 0 0 1-.017.049.058.058 0 0 1-.052.022H15.49c-.72 0-1.332-.292-1.844-.874l-1.637-1.998-1.637 1.998c-.516.582-1.133.874-1.852.874H5.704a.062.062 0 0 1-.052-.022.076.076 0 0 1-.017-.058v-1.8c0-.019.006-.035.017-.05a.058.058 0 0 1 .052-.021h2.67a.438.438 0 0 0 .331-.155l1.932-2.359 3.002-3.668Z"/></g><defs><linearGradient id="b" x1="12" x2="12" y1="2" y2="7.292" gradientUnits="userSpaceOnUse"><stop stop-color="#090220"/><stop offset="1" stop-color="#170659"/></linearGradient><clipPath id="a"><path fill="#fff" d="M2 2h20v20H2z"/></clipPath></defs></svg>