<svg xmlns="http://www.w3.org/2000/svg" fill="none" viewBox="0 0 24 24"><g clip-path="url(#a)"><path fill="url(#b)" d="M11.999 21.998c5.522 0 9.999-4.477 9.999-10 0-5.521-4.477-9.998-10-9.998C6.478 2 2 6.477 2 11.999s4.477 9.999 9.999 9.999"/><path fill="#00D1FF" d="M8.705 9.513a.42.42 0 0 0-.33-.154H5.704a.1.1 0 0 1-.058-.022.07.07 0 0 1-.022-.05v-1.8q0-.03.022-.05a.07.07 0 0 1 .058-.021h2.822q1.067 0 1.844.873l.686.838-1.336 1.629zM13.64 8.28q.772-.864 1.852-.865h2.814a.07.07 0 0 1 .052.016q.021.022.017.055v1.8q0 .03-.017.05a.06.06 0 0 1-.052.022h-2.671a.42.42 0 0 0-.33.154l-1.969 2.395 1.976 2.412c.08.09.199.146.32.143h2.67a.06.06 0 0 1 .053.022c.011.016.02.038.017.058v1.8q0 .028-.017.049a.06.06 0 0 1-.052.022H15.49q-1.078 0-1.844-.874l-1.637-1.998-1.637 1.998q-.774.873-1.852.874H5.704a.06.06 0 0 1-.052-.022.08.08 0 0 1-.017-.058v-1.8q0-.028.017-.05a.06.06 0 0 1 .052-.021h2.67a.44.44 0 0 0 .331-.155l1.932-2.359z"/></g><defs><linearGradient id="b" x1="12" x2="12" y1="2" y2="7.292" gradientUnits="userSpaceOnUse"><stop stop-color="#090220"/><stop offset="1" stop-color="#170659"/></linearGradient><clipPath id="a"><path fill="#fff" d="M2 2h20v20H2z"/></clipPath></defs></svg>