<svg xmlns="http://www.w3.org/2000/svg" fill="none" viewBox="0 0 24 24"><g fill="#008DD0" fill-rule="evenodd" clip-path="url(#a)" clip-rule="evenodd"><path d="M19.983 9.202C19 8.268 17.613 7.49 15.81 6.997h-.01c-4.285-1.17-5.811 1.598-2.342 3.342 3.939 1.978 4.486 5.218 2.263 7.243-.566.516-2.407 1.48-4.1 1.712-2.689.374-5.672-.2-8.098-.972a12.7 12.7 0 0 0 4.437 2.232c3.78 1.044 8.347.275 11.374-2.366 3.047-2.663 3.339-6.437.648-8.986m-4.17-2.204.04.012z"/><path d="M7.575 2.959A12.84 12.84 0 0 1 20.3 4.69c-4.528-1.445-8.04-1.32-10.345-.389l-.034.014c-2.846 1.168-3.832 3.56-2.593 5.722.667 1.166 1.843 2.037 3.035 2.635 3.154 1.586 2.184 4.014-1.23 3.57a8 8 0 0 1-1.123-.231C1.306 14.173.325 8.458 4.49 4.823A11 11 0 0 1 7.575 2.96"/></g><defs><clipPath id="a"><path fill="#fff" d="M2 2h19.826v19H2z"/></clipPath></defs></svg>