<svg xmlns="http://www.w3.org/2000/svg" fill="none" viewBox="0 0 24 24"><g fill="#008DD0" fill-rule="evenodd" clip-path="url(#a)" clip-rule="evenodd"><path d="M19.983 9.202c-.983-.934-2.37-1.711-4.171-2.205h-.01c-4.285-1.17-5.812 1.598-2.342 3.342 3.938 1.978 4.485 5.218 2.262 7.243-.566.516-2.406 1.48-4.1 1.712-2.688.374-5.672-.2-8.097-.972a12.74 12.74 0 0 0 4.436 2.232c3.781 1.044 8.348.275 11.374-2.365 3.048-2.664 3.34-6.438.648-8.987Zm-4.17-2.204.04.012-.04-.012Z"/><path d="M7.575 2.959A12.84 12.84 0 0 1 20.301 4.69c-4.528-1.445-8.04-1.32-10.345-.389l-.034.014C7.076 5.483 6.09 7.875 7.33 10.037c.667 1.166 1.843 2.037 3.035 2.635 3.154 1.586 2.184 4.014-1.23 3.57a8.225 8.225 0 0 1-1.123-.231C1.306 14.173.325 8.458 4.49 4.823A11 11 0 0 1 7.575 2.96Z"/></g><defs><clipPath id="a"><path fill="#fff" d="M2 2h19.826v19H2z"/></clipPath></defs></svg>