<svg xmlns="http://www.w3.org/2000/svg" fill="none" viewBox="0 0 24 24"><g clip-path="url(#a)"><path fill="#002342" d="M12 24c6.627 0 12-5.373 12-12S18.627 0 12 0 0 5.373 0 12s5.373 12 12 12Z"/><path fill="#fff" d="M5 10.25h.757v.712H5v-.712Zm.757 2.785H7.96v.715H5v-2.075h2.223v.711H5.758v.649Zm10.283-1.36H19v2.075h-2.223v-.715h1.466v-.648H16.04v-.713Zm2.215-.678h-2.217v-.713h2.217v.712Zm-9.573.678h2.96v1.39h-.737v.685H8.682v-2.075Zm2.203 1.36v-.648H9.44v.647h1.447ZM8.682 10.25h2.96v.712h-2.96v-.712Zm3.695 1.425h2.96v1.39H14.6v.685h-2.223v-2.075Zm2.2 1.36v-.648H13.13v.647h1.447Zm-2.2-2.785h2.96v.712h-2.96v-.712Z"/></g><defs><clipPath id="a"><path fill="#fff" d="M0 0h24v24H0z"/></clipPath></defs></svg>