<svg xmlns="http://www.w3.org/2000/svg" fill="none" viewBox="0 0 24 24"><g clip-path="url(#a)"><path fill="#002342" d="M12 24c6.627 0 12-5.373 12-12S18.627 0 12 0 0 5.373 0 12s5.373 12 12 12"/><path fill="#fff" d="M5 10.25h.757v.712H5zm.757 2.785H7.96v.715H5v-2.075h2.223v.711H5.758zm10.283-1.36H19v2.075h-2.222v-.715h1.465v-.648H16.04zm2.215-.678h-2.217v-.713h2.217zm-9.573.678h2.96v1.39h-.737v.685H8.682zm2.203 1.36v-.648H9.44v.647zM8.682 10.25h2.96v.712h-2.96zm3.695 1.425h2.96v1.39H14.6v.685h-2.223zm2.2 1.36v-.648H13.13v.647zm-2.2-2.785h2.96v.712h-2.96z"/></g><defs><clipPath id="a"><path fill="#fff" d="M0 0h24v24H0z"/></clipPath></defs></svg>