<svg xmlns="http://www.w3.org/2000/svg" fill="none" viewBox="0 0 24 24"><path fill="#62757E" fill-rule="evenodd" d="M19.87 22h-7.407c-1.174 0-2.13-.935-2.13-2.084v-12.5c0-1.149.956-2.083 2.13-2.083h7.406c1.176 0 2.131.934 2.131 2.084v12.499C22 21.065 21.045 22 19.87 22m.464-14.583c0-.226-.213-.417-.465-.417h-7.406c-.251 0-.494.607-.494.833v12.5c0 .227.243 0 .494 0h7.406c.252 0 .465-.191.465-.417zm-5.834.416h3.334V9.5H14.5zM17 19.5h-1.667v-1.667H17zM12.833 3.667H7.777c-.888 0-1.663.778-1.663 1.666v3.874l1.13-1.13a.83.83 0 0 1 1.178 0 .83.83 0 0 1 0 1.179l-2.5 2.5a.833.833 0 0 1-1.178 0l-2.5-2.5a.833.833 0 1 1 1.179-1.178L4.5 9.155V5.278A3.28 3.28 0 0 1 7.777 2h5.056a.833.833 0 1 1 0 1.667" clip-rule="evenodd"/></svg>