<svg xmlns="http://www.w3.org/2000/svg" fill="none" viewBox="0 0 24 24"><path fill="#62757E" fill-rule="evenodd" d="M19.917 22h-12.5c-1.149 0-2.084-.956-2.084-2.13v-7.407c0-1.174 1.352-2.095 2.5-2.095h12.5c1.149 0 1.667.92 1.667 2.095v7.407c0 1.174-.935 2.13-2.083 2.13Zm.416-2.13v-7.407c0-.251-.19-.463-.416-.463h-12.5c-.226 0-.417.212-.417.463v7.407c0 .25.607.536.833.536h12.5c.226 0 0-.285 0-.536Zm-2.5-4.537H19.5v1.666h-1.667v-1.666Zm-10-.833H9.5v3.332H7.833V14.5Zm1.423-6.077a.829.829 0 0 1-1.178 0 .833.833 0 0 1 0-1.179l1.077-1.077H5.278c-.889 0-1.611.723-1.611 1.61v5.056a.833.833 0 1 1-1.667 0V7.777A3.281 3.281 0 0 1 5.278 4.5h3.877L8.078 3.423a.833.833 0 1 1 1.178-1.179l2.5 2.5a.833.833 0 0 1 0 1.179l-2.5 2.5Z" clip-rule="evenodd"/></svg>