<svg xmlns="http://www.w3.org/2000/svg" fill="none" viewBox="0 0 24 24"><path fill="currentColor" fill-rule="evenodd" d="M19.5 20h-15A2.503 2.503 0 0 1 2 17.5v-10C2 6.122 3.122 5 4.5 5h15C20.878 5 22 6.122 22 7.5v10c0 1.378-1.122 2.5-2.5 2.5Zm.833-12.5a.834.834 0 0 0-.833-.833h-15a.834.834 0 0 0-.833.833v10c0 .46.374.833.833.833h15c.46 0 .833-.373.833-.833v-10Zm-2.475 5.833a.837.837 0 0 1-.837-.833.83.83 0 0 1 .829-.833h.008a.833.833 0 1 1 0 1.666Zm-12.525.834a.833.833 0 0 1-.833-.834v-1.666a.833.833 0 1 1 1.667 0v1.666a.834.834 0 0 1-.834.834Z" clip-rule="evenodd"/></svg>