<svg xmlns="http://www.w3.org/2000/svg" fill="none" viewBox="0 0 24 24"><path fill="currentColor" fill-rule="evenodd" d="M17.5 22h-10A2.503 2.503 0 0 1 5 19.5v-15C5 3.12 6.122 2 7.5 2h10C18.878 2 20 3.12 20 4.5v15c0 1.378-1.122 2.5-2.5 2.5Zm.833-17.5a.834.834 0 0 0-.833-.833h-10a.834.834 0 0 0-.833.833v15c0 .46.374.833.833.833h10c.46 0 .833-.373.833-.833v-15Zm-5 1.667h-1.666a.833.833 0 1 1 0-1.667h1.666a.833.833 0 1 1 0 1.667ZM12.517 17h.008a.833.833 0 1 1 0 1.667.837.837 0 0 1-.838-.834c0-.46.37-.833.83-.833Z" clip-rule="evenodd"/></svg>