<svg xmlns="http://www.w3.org/2000/svg" fill="none" viewBox="0 0 24 24"><path fill="#62757E" fill-rule="evenodd" d="M20.556 16.167H14.5a.833.833 0 1 1 0-1.667h5.833v-10H3.667v1.667a.833.833 0 1 1-1.667 0V4.28c0-.799.648-1.448 1.444-1.448h17.112c.796 0 1.444.65 1.444 1.448v10.44c0 .797-.648 1.447-1.444 1.447M4.03 7.833h6.773c1.12 0 2.03.925 2.03 2.062v9.21c0 1.137-.91 2.062-2.03 2.062H4.03c-1.12 0-2.03-.925-2.03-2.062v-9.21c0-1.137.91-2.062 2.03-2.062m-.363 11.272c0 .214.166.395.363.395h6.773c.197 0 .364-.18.364-.395v-9.21c0-.214-.167-.395-.364-.395H4.03c-.198 0-.363.18-.363.395zm2.5-8.772h2.5a.833.833 0 1 1 0 1.667h-2.5a.833.833 0 1 1 0-1.667m2.5 8.334h-2.5V17h2.5zm5.833-.834H17a.834.834 0 0 1 0 1.667h-2.5a.833.833 0 1 1 0-1.667" clip-rule="evenodd"/></svg>