<svg xmlns="http://www.w3.org/2000/svg" fill="none" viewBox="0 0 24 24"><path fill="#62757E" d="M19.3 2.2c.334 0 .618-.004.869.046a2.4 2.4 0 0 1 1.886 1.886c.05.251.046.535.046.868s.004.617-.046.868a2.4 2.4 0 0 1-1.886 1.886c-.251.05-.535.046-.868.046H6.305v2.282a1.2 1.2 0 0 0 1.2 1.2h1.519q.008-.076.021-.15a2.4 2.4 0 0 1 1.886-1.886c.251-.05.535-.046.868-.046H19.3c.333 0 .617-.004.868.046a2.4 2.4 0 0 1 1.886 1.886c.05.251.046.535.046.868s.004.617-.046.868a2.4 2.4 0 0 1-1.886 1.886c-.251.05-.535.046-.868.046h-7.502c-.333 0-.617.004-.868-.046a2.4 2.4 0 0 1-1.882-1.871H7.505c-.43 0-.836-.101-1.2-.275v4.693a1.2 1.2 0 0 0 1.2 1.199h1.5a2.5 2.5 0 0 1 .04-.368 2.4 2.4 0 0 1 1.886-1.886c.251-.05.535-.046.868-.046H19.3c.333 0 .617-.004.868.046a2.4 2.4 0 0 1 1.886 1.886c.05.251.046.535.046.868s.004.617-.046.868a2.4 2.4 0 0 1-1.886 1.886c-.251.05-.535.046-.868.046h-7.502c-.333 0-.617.004-.868-.046A2.4 2.4 0 0 1 9.106 20.1H7.505a2.8 2.8 0 0 1-2.8-2.8V7.8H4.7c-.333 0-.617.004-.868-.046a2.4 2.4 0 0 1-1.886-1.886C1.895 5.617 1.9 5.333 1.9 5s-.004-.617.046-.868a2.4 2.4 0 0 1 1.886-1.886c.251-.05.535-.046.868-.046zm-7.5 15.6c-.409 0-.498.004-.556.015a.8.8 0 0 0-.629.63c-.011.057-.015.146-.015.555s.004.498.015.556a.8.8 0 0 0 .63.629c.057.011.146.015.555.015h7.5c.41 0 .499-.004.557-.015a.8.8 0 0 0 .627-.63c.012-.057.016-.146.016-.555s-.004-.498-.016-.556a.8.8 0 0 0-.627-.629c-.058-.011-.147-.015-.557-.015zm0-7c-.409 0-.498.004-.556.015a.8.8 0 0 0-.629.63c-.011.057-.015.146-.015.555s.004.498.015.556a.8.8 0 0 0 .63.629c.057.011.146.015.555.015h7.5c.41 0 .499-.004.557-.015a.8.8 0 0 0 .627-.63c.012-.057.016-.146.016-.555s-.004-.498-.016-.556a.8.8 0 0 0-.627-.629c-.058-.011-.147-.015-.557-.015zm-7.1-7c-.409 0-.498.004-.555.015a.8.8 0 0 0-.63.63c-.01.057-.015.146-.015.555s.004.498.016.556a.8.8 0 0 0 .629.629c.057.011.146.015.555.015h14.602c.41 0 .499-.004.557-.015a.8.8 0 0 0 .627-.63c.012-.057.016-.146.016-.555s-.004-.498-.016-.556a.8.8 0 0 0-.627-.629C19.8 3.804 19.71 3.8 19.3 3.8z"/></svg>