<svg xmlns="http://www.w3.org/2000/svg" fill="none" viewBox="0 0 24 24"><path fill="#687485" fill-rule="evenodd" d="m20.195 17.46-2.77 4.167a.839.839 0 0 1-1.262.155l-2.246-2.042a.83.83 0 0 1-.054-1.177.838.838 0 0 1 1.181-.054l1.525 1.386 2.23-3.355a.837.837 0 0 1 1.16-.235c.385.255.49.772.236 1.155Zm-11.48-1.293H7.032V14.5h1.683v1.667ZM7.032 7.833h1.683V9.5H7.032V7.833Zm1.683 5H7.032v-1.666h1.683v1.666Zm5.722 3.334h-3.344a.835.835 0 0 1-.836-.834c0-.46.374-.833.836-.833h3.344c.462 0 .837.373.837.833 0 .46-.375.834-.837.834Zm0-6.667h-3.344a.835.835 0 0 1-.836-.833c0-.46.374-.834.836-.834h3.344c.462 0 .837.374.837.834 0 .46-.375.833-.837.833Zm0 3.333h-3.344a.835.835 0 0 1-.836-.833c0-.46.374-.833.836-.833h3.344c.462 0 .837.373.837.833 0 .46-.375.833-.837.833Zm3.388 1.667c-.462 0-.697-.373-.697-.833V5.333H14.87a2.192 2.192 0 0 1-1.724.834h-4.02a2.191 2.191 0 0 1-1.725-.834H5.284v15h5.853a.834.834 0 1 1 0 1.667H4.448c-.463 0-.782-.373-.782-.833V4.5c0-.46.32-.833.782-.833h2.508v-.834c0-.46.374-.833.836-.833h6.688c.463 0 .836.373.836.833v.834h2.509c.462 0 .986.373.986.833v9.167c0 .46-.524.833-.986.833Zm-4.18-10.833H8.628v.416c0 .226.228.417.498.417h4.02c.27 0 .499-.19.499-.417v-.416Z" clip-rule="evenodd"/></svg>