<svg xmlns="http://www.w3.org/2000/svg" fill="none" viewBox="0 0 24 24"><path fill="#62757E" fill-rule="evenodd" d="M9.104 4.503A1.45 1.45 0 0 1 10.5 3.448h3a1.45 1.45 0 0 1 1.45 1.4h-5.9q.008-.18.054-.345M10.5 1.848a3.05 3.05 0 0 0-2.726 1.68q-.732.063-1.46.147C4.791 3.852 3.7 5.161 3.7 6.655v12.28a3.05 3.05 0 0 0 3.05 3.05h10.5a3.05 3.05 0 0 0 3.05-3.05V6.655c0-1.494-1.09-2.803-2.614-2.98a49 49 0 0 0-1.46-.147 3.05 3.05 0 0 0-2.726-1.68zM6.499 5.265q.485-.057.973-.103A1.55 1.55 0 0 0 9 6.448h6a1.55 1.55 0 0 0 1.527-1.286q.488.046.974.103c.677.078 1.199.668 1.199 1.39v12.28c0 .8-.65 1.45-1.45 1.45H6.75c-.8 0-1.45-.65-1.45-1.45V6.655c0-.722.522-1.312 1.199-1.39m4.668 8.382-1.078-1.078a.832.832 0 1 0-1.178 1.178l1.667 1.667a.83.83 0 0 0 1.178 0l3.333-3.333a.833.833 0 1 0-1.178-1.178z" clip-rule="evenodd"/></svg>