<svg xmlns="http://www.w3.org/2000/svg" fill="none" viewBox="0 0 24 24"><path fill="currentColor" fill-rule="evenodd" d="m20.528 17.46-2.77 4.167a.839.839 0 0 1-1.262.155l-2.245-2.042a.83.83 0 0 1-.055-1.177.838.838 0 0 1 1.181-.054l1.526 1.386 2.23-3.355a.837.837 0 0 1 1.16-.235c.384.255.49.772.235 1.155Zm-11.48-1.293H7.365V14.5h1.683v1.667ZM7.365 7.833h1.683V9.5H7.365V7.833Zm1.683 5H7.365v-1.666h1.683v1.666Zm5.723 3.334h-3.345a.835.835 0 0 1-.836-.834c0-.46.375-.833.837-.833h3.344a.834.834 0 1 1 0 1.667Zm0-6.667h-3.345a.835.835 0 0 1-.836-.833c0-.46.375-.834.837-.834h3.344a.834.834 0 1 1 0 1.667Zm0 3.333h-3.345A.835.835 0 0 1 10.59 12c0-.46.375-.833.837-.833h3.344c.462 0 .836.373.836.833 0 .46-.374.833-.836.833Zm3.387 1.667c-.462 0-.697-.373-.697-.833V5.333h-2.256a2.192 2.192 0 0 1-1.725.834H9.46a2.191 2.191 0 0 1-1.725-.834H5.617v15h5.853a.834.834 0 1 1 0 1.667H4.782C4.319 22 4 21.627 4 21.167V4.5c0-.46.319-.833.782-.833H7.29v-.834c0-.46.373-.833.836-.833h6.688c.463 0 .836.373.836.833v.834h2.508c.463 0 .986.373.986.833v9.167c0 .46-.523.833-.986.833Zm-4.18-10.833H8.961v.416c0 .226.228.417.498.417h4.021c.27 0 .498-.19.498-.417v-.416Z" clip-rule="evenodd"/></svg>