<svg xmlns="http://www.w3.org/2000/svg" fill="none" viewBox="0 0 24 24"><path fill="#62757E" fill-rule="evenodd" d="M21.651 2.817a2.8 2.8 0 0 1 0 3.96l-8.192 8.192a2.8 2.8 0 0 1-1.733.81l-1.703.15a1.8 1.8 0 0 1-1.952-1.952l.15-1.703a2.8 2.8 0 0 1 .81-1.733l8.192-8.192a2.8 2.8 0 0 1 3.96 0zm-1.13 2.828a1.2 1.2 0 0 0 0-1.697l-.47-.468a1.2 1.2 0 0 0-1.696 0l-.27.269 2.166 2.165zm-1.401 1.4L16.954 4.88l-6.792 6.792a1.2 1.2 0 0 0-.346.743l-.15 1.703a.2.2 0 0 0 .216.217l1.703-.15a1.2 1.2 0 0 0 .743-.347zM9.94 4.834a.82.82 0 0 1-.75-.492 1.45 1.45 0 0 1 1.316-.791h3.545a.8.8 0 1 0 0-1.6h-3.545c-1.163 0-2.196.635-2.706 1.594q-.733.06-1.46.14c-1.49.165-2.61 1.398-2.61 2.868v12.563c0 1.657 1.398 2.935 3.04 2.935h10.46c1.642 0 3.04-1.278 3.04-2.935v-7.409a.8.8 0 1 0-1.6 0v7.41c0 .7-.608 1.334-1.44 1.334H6.77c-.832 0-1.44-.634-1.44-1.335V6.552c0-.633.485-1.2 1.187-1.278q.64-.07 1.287-.125A2.42 2.42 0 0 0 9.94 6.433h1.495a.8.8 0 1 0 0-1.6z" clip-rule="evenodd"/></svg>