<svg xmlns="http://www.w3.org/2000/svg" fill="none" viewBox="0 0 24 24"><path fill="#62757E" fill-rule="evenodd" d="m20.195 17.46-2.77 4.167a.838.838 0 0 1-1.262.155l-2.245-2.042a.83.83 0 0 1-.055-1.177.838.838 0 0 1 1.181-.054l1.525 1.386 2.23-3.355a.837.837 0 0 1 1.16-.235c.385.255.49.772.236 1.155Zm-11.48-1.293H7.032V14.5h1.683v1.667ZM7.032 7.833h1.683V9.5H7.032V7.833Zm1.683 5H7.032v-1.666h1.683v1.666Zm5.723 3.334h-3.345a.835.835 0 0 1-.836-.834c0-.46.374-.833.836-.833h3.345c.461 0 .836.373.836.833 0 .46-.375.834-.836.834Zm0-6.667h-3.345a.835.835 0 0 1-.836-.833c0-.46.374-.834.836-.834h3.345c.461 0 .836.374.836.834 0 .46-.375.833-.836.833Zm0 3.333h-3.345a.835.835 0 0 1-.836-.833c0-.46.374-.833.836-.833h3.345c.461 0 .836.373.836.833 0 .46-.375.833-.836.833Zm3.387 1.667c-.462 0-.697-.373-.697-.833V5.333h-2.256a2.192 2.192 0 0 1-1.725.834h-4.02c-.707 0-1.33-.331-1.726-.834H5.284v15h5.853a.834.834 0 1 1 0 1.667H4.448c-.463 0-.781-.373-.781-.833V4.5c0-.46.318-.833.781-.833h2.508v-.834c0-.46.374-.833.837-.833h6.687c.463 0 .837.373.837.833v.834h2.508c.462 0 .986.373.986.833v9.167c0 .46-.524.833-.986.833Zm-4.18-10.833H8.628v.416c0 .226.228.417.498.417h4.02c.27 0 .499-.19.499-.417v-.416Z" clip-rule="evenodd"/></svg>