<svg xmlns="http://www.w3.org/2000/svg" fill="none" viewBox="0 0 24 24"><path fill="#62757E" fill-rule="evenodd" d="M18.667 22H5.333a.833.833 0 0 1-.833-.833V4.5c0-.46.372-.833.833-.833h2.5v-.834c0-.46.373-.833.834-.833h6.666c.461 0 .834.373.834.833v.834h2.5c.46 0 .833.373.833.833v16.667c0 .46-.372.833-.833.833ZM14.5 3.667h-5v.416c0 .226.227.417.497.417h4.006c.27 0 .497-.19.497-.417v-.416Zm3.333 1.666h-2.11a2.183 2.183 0 0 1-1.72.834H9.997a2.183 2.183 0 0 1-1.72-.834h-2.11v15h11.666v-15ZM8.44 7.85l.394.418.878-.988a.832.832 0 1 1 1.245 1.107l-1.481 1.666a.833.833 0 0 1-.61.28h-.013a.833.833 0 0 1-.605-.26l-1.02-1.078A.834.834 0 0 1 8.44 7.85Zm0 4.167.394.416.878-.986a.832.832 0 1 1 1.245 1.106L9.475 14.22a.83.83 0 0 1-.61.28h-.013a.834.834 0 0 1-.605-.26l-1.02-1.078a.834.834 0 0 1 1.212-1.145Zm0 4.166.394.418.878-.988a.832.832 0 1 1 1.245 1.107l-1.481 1.667a.83.83 0 0 1-.61.28h-.013a.833.833 0 0 1-.605-.261l-1.02-1.078a.835.835 0 0 1 1.212-1.145Zm4.394-8.35h3.334a.833.833 0 1 1 0 1.667h-3.334a.833.833 0 1 1 0-1.667Zm0 4.167h3.334a.833.833 0 1 1 0 1.667h-3.334a.833.833 0 1 1 0-1.667Zm0 4.167h3.334a.833.833 0 1 1 0 1.666h-3.334a.833.833 0 1 1 0-1.666Z" clip-rule="evenodd"/></svg>