<svg xmlns="http://www.w3.org/2000/svg" fill="none" viewBox="0 0 24 24"><g clip-path="url(#a)"><path fill="#7B346E" d="M12 24c6.627 0 12-5.373 12-12S18.627 0 12 0 0 5.373 0 12s5.373 12 12 12"/><path fill="#fff" d="m6.466 10.375 1.477 1.477H5zm1.477 1.785-1.477 1.465L5 12.16zm1.996-1.998-1.477 1.466V8.686zm-1.785 1.466L6.69 10.162l1.466-1.477zm1.998-1.689L8.686 8.473h2.942zm0-3.25 1.476 1.476H8.686zm3.473-.213-1.477 1.466V5zM11.84 7.942l-1.465-1.465L11.84 5zm-1.9 5.906-1.478 1.466v-2.942zm-3.25 0 1.465-1.476v2.942zm7.148-3.909-1.466-1.466h2.942zm-1.466-1.774 1.466-1.477 1.477 1.477zm-.743 7.68-1.477 1.466-1.465-1.466zm-1.477-1.785 1.477 1.477H8.687zm7.16-3.898-1.477 1.466V8.686zm-3.25 0 1.465-1.477v2.943zm-3.687 7.371 1.466-1.475V19zm1.774-1.475 1.477 1.476L12.148 19zm1.69 1.253-1.467-1.466h2.943zm0-3.25 1.476 1.477h-2.944zm1.996-1.69 1.477 1.478-1.477 1.465zm-1.774 1.478 1.466-1.477v2.942zm3.463-.224L16.06 12.16H19zm0-3.25L19 11.852h-2.942z"/></g><defs><clipPath id="a"><path fill="#fff" d="M0 0h24v24H0z"/></clipPath></defs></svg>