<svg xmlns="http://www.w3.org/2000/svg" fill="none" viewBox="0 0 24 24"><g clip-path="url(#a)"><path fill="#7B346E" d="M12 24c6.627 0 12-5.373 12-12S18.627 0 12 0 0 5.373 0 12s5.373 12 12 12Z"/><path fill="#fff" d="m6.466 10.375 1.477 1.477H5l1.466-1.477Zm1.477 1.785-1.477 1.465L5 12.16h2.943Zm1.996-1.998-1.477 1.466V8.686l1.477 1.476Zm-1.785 1.466L6.69 10.162l1.466-1.477v2.943Zm1.998-1.689L8.686 8.473h2.942L10.152 9.94Zm0-3.25 1.476 1.476H8.686l1.466-1.476Zm3.473-.213-1.477 1.466V5l1.477 1.476ZM11.84 7.942l-1.465-1.465L11.84 5v2.942Zm-1.9 5.906-1.478 1.466v-2.942l1.477 1.476Zm-3.25 0 1.465-1.476v2.942l-1.466-1.466Zm7.147-3.909-1.465-1.466h2.942L13.838 9.94Zm-1.465-1.774 1.466-1.477 1.477 1.477h-2.943Zm-.743 7.68-1.477 1.466-1.465-1.466h2.942Zm-1.477-1.785 1.477 1.477H8.687l1.465-1.477Zm7.16-3.898-1.477 1.466V8.686l1.477 1.476Zm-3.25 0 1.465-1.477v2.943l-1.465-1.466Zm-3.687 7.371 1.466-1.475V19l-1.466-1.466Zm1.774-1.475 1.477 1.476L12.148 19l.001-2.942Zm1.69 1.253-1.467-1.466h2.943l-1.477 1.466Zm0-3.25 1.476 1.477h-2.944l1.467-1.477Zm1.996-1.69 1.477 1.478-1.477 1.465v-2.942Zm-1.774 1.478 1.466-1.477v2.942l-1.465-1.465Zm3.463-.224L16.06 12.16H19l-1.476 1.465Zm0-3.25L19 11.852h-2.942l1.466-1.477Z"/></g><defs><clipPath id="a"><path fill="#fff" d="M0 0h24v24H0z"/></clipPath></defs></svg>