<svg xmlns="http://www.w3.org/2000/svg" fill="none" viewBox="0 0 24 24"><path fill="#62757E" fill-rule="evenodd" d="M22 16.333V17c0 .46-.372.833-.833.833h-5c0 .46-.373.834-.834.834H8.667a.833.833 0 0 1-.834-.834h-5A.833.833 0 0 1 2 17v-.667c0-1.382.773-2.569 1.884-3.137a2.5 2.5 0 0 1-1.05-2.03c0-1.378 1.121-2.5 2.5-2.5 1.378 0 2.5 1.122 2.5 2.5 0 .838-.417 1.576-1.051 2.03a3.47 3.47 0 0 1 1.634 1.833c.444-.802 1.108-1.448 1.92-1.824a3.32 3.32 0 0 1-1.67-2.872A3.337 3.337 0 0 1 12 7a3.337 3.337 0 0 1 3.333 3.333c0 1.23-.676 2.294-1.67 2.872.812.376 1.476 1.022 1.92 1.824.313-.8.895-1.455 1.635-1.833a2.5 2.5 0 0 1-1.051-2.03c0-1.378 1.121-2.5 2.5-2.5 1.378 0 2.5 1.122 2.5 2.5 0 .838-.417 1.576-1.051 2.03 1.11.568 1.884 1.755 1.884 3.137m-16.667-6a.834.834 0 1 0 .002 1.669.834.834 0 0 0-.002-1.669m0 4.167c-.867 0-1.582.734-1.66 1.667h3.32c-.077-.933-.792-1.667-1.66-1.667M12 8.667A1.668 1.668 0 0 0 12 12c.918 0 1.667-.748 1.667-1.667S12.918 8.667 12 8.667m0 5.833c-1.305 0-2.38 1.102-2.49 2.5h4.98c-.11-1.398-1.185-2.5-2.49-2.5m6.667-4.167a.834.834 0 0 0 0 1.667.834.834 0 0 0 0-1.667m0 4.167c-.868 0-1.583.734-1.66 1.667h3.32c-.078-.933-.793-1.667-1.66-1.667" clip-rule="evenodd"/></svg>