<svg xmlns="http://www.w3.org/2000/svg" fill="none" viewBox="0 0 24 24"><path fill="#62757E" fill-rule="evenodd" d="M20.128 8.279C21.233 8.815 22 9.925 22 11.217a.827.827 0 0 1-.833.821h-5a.83.83 0 0 1-.834-.82c0-1.293.768-2.403 1.872-2.94a2.45 2.45 0 0 1-1.038-1.988c0-1.359 1.121-2.464 2.5-2.464 1.378 0 2.5 1.105 2.5 2.464 0 .818-.413 1.541-1.039 1.989m-1.461-2.811a.83.83 0 0 0-.834.822c0 .452.375.82.834.82s.833-.368.833-.82a.83.83 0 0 0-.833-.822m0 4.107c-.616 0-1.155.33-1.443.82h2.885a1.67 1.67 0 0 0-1.442-.82M14.5 5.468a.84.84 0 0 1-.522-.18c-1.075-.851-2.886-.851-3.955-.002a.84.84 0 0 1-1.172-.124.813.813 0 0 1 .126-1.155c1.694-1.342 4.349-1.343 6.046 0a.813.813 0 0 1 .126 1.154.83.83 0 0 1-.649.307m-5.838 5.56q.021.09.021.19a.827.827 0 0 1-.833.82H2.833a.827.827 0 0 1-.833-.82c0-1.293.768-2.403 1.872-2.94A2.44 2.44 0 0 1 2.833 6.29c0-1.359 1.122-2.464 2.5-2.464 1.379 0 2.5 1.105 2.5 2.464 0 .82-.412 1.541-1.039 1.99 1.05.51 1.798 1.536 1.868 2.748m-3.329-5.56a.83.83 0 0 0-.833.822c0 .452.374.82.833.82.46 0 .834-.368.834-.82a.83.83 0 0 0-.834-.822m0 4.107a1.67 1.67 0 0 0-1.442.82h2.885a1.67 1.67 0 0 0-1.443-.82m-.323 3.349a.84.84 0 0 1 1.092.438c.566 1.326 1.38 2.414 2.176 2.91.39.242.506.748.26 1.132a.836.836 0 0 1-1.15.256c-1.547-.962-2.49-2.88-2.823-3.66a.817.817 0 0 1 .445-1.076m5.528 4.65a2.44 2.44 0 0 1-1.038-1.99c0-1.358 1.122-2.464 2.5-2.464s2.5 1.106 2.5 2.465c0 .819-.412 1.54-1.038 1.989 1.104.535 1.871 1.645 1.871 2.938a.83.83 0 0 1-.833.821h-5a.83.83 0 0 1-.833-.82c0-1.294.767-2.403 1.871-2.94M12 14.763a.83.83 0 0 0-.833.822c0 .452.374.82.833.82.46 0 .833-.368.833-.82a.83.83 0 0 0-.833-.822m1.443 4.927A1.67 1.67 0 0 0 12 18.869c-.616 0-1.154.332-1.443.821zm4.455-6.328a.837.837 0 0 1 1.092-.438.817.817 0 0 1 .445 1.076c-.333.78-1.276 2.698-2.823 3.66a.84.84 0 0 1-1.15-.256.813.813 0 0 1 .26-1.133c.796-.495 1.61-1.583 2.176-2.91" clip-rule="evenodd"/></svg>