<svg xmlns="http://www.w3.org/2000/svg" fill="none" viewBox="0 0 24 24"><g clip-path="url(#a)"><path fill="#14C8FF" d="M12 24c6.627 0 12-5.373 12-12S18.627 0 12 0 0 5.373 0 12s5.373 12 12 12"/><path fill="#fff" d="M17.902 9.06c.411.334.67 1.024.58 1.53l-.884 4.89c-.092.51-.58 1.071-1.082 1.247l-4.822 1.694c-.502.176-1.248.049-1.659-.285L6.097 14.94c-.411-.333-.671-1.02-.578-1.53l.884-4.89c.092-.51.579-1.07 1.081-1.247l4.823-1.694c.503-.176 1.248-.048 1.66.285zM13.8 11.258l.196-.995-1.84.003.26-1.31h-.595a3.74 3.74 0 0 1-1.787 1.446l-.167.857h.805s-.272 1.232-.364 1.686c-.227 1.157.345 1.977 1.223 1.977h1.487l.26-1.098h-1.244c-.552 0-.523-.303-.416-.839l.343-1.73z"/></g><defs><clipPath id="a"><path fill="#fff" d="M0 0h24v24H0z"/></clipPath></defs></svg>