<svg xmlns="http://www.w3.org/2000/svg" fill="none" viewBox="0 0 24 24"><g clip-path="url(#a)"><path fill="#0899CD" d="M12 24c6.627 0 12-5.373 12-12S18.627 0 12 0 0 5.373 0 12s5.373 12 12 12"/><path fill="#fff" d="M18.482 12.512q-.165 2.366-1.888 4.082-.434.435-.91.771l-.045-.06 2.771-4.801zm-3.094 5.051Q13.889 18.5 12 18.5q-1.806 0-3.257-.856.219.129.444.237l.038-.077h5.55q.015.04.037.077.295-.143.576-.318m-7.072-.195a7 7 0 0 1-.916-.774q-1.717-1.716-1.882-4.082l.071-.008 2.772 4.801zM5.5 11.9q.035-2.631 1.9-4.5Q9.305 5.5 12 5.5t4.594 1.9q1.897 1.896 1.906 4.576 0-.24-.018-.477l-.071.009-2.77-4.81.047-.064a6 6 0 0 0-.873-.515.5.5 0 0 0-.04.084h-5.55a.5.5 0 0 0-.04-.084 6 6 0 0 0-.872.513q.02.035.048.068L5.59 11.508l-.072-.01a8 8 0 0 0-.016.402zm12.613-.22a.5.5 0 0 0-.092.152h-2.29a.5.5 0 0 0-.122-.184.5.5 0 0 0-.184-.12V7.02zm-.092.498a.5.5 0 0 0 .092.152l-2.688 4.655v-4.502a.5.5 0 0 0 .184-.12.5.5 0 0 0 .121-.185zM5.98 11.833a.5.5 0 0 0-.093-.153l2.69-4.66v4.508a.5.5 0 0 0-.185.121.5.5 0 0 0-.121.184zM9.22 6.56l.007-.012h5.55a.5.5 0 0 0 .092.152l-1.696 2.931a.5.5 0 0 0-.34.057zm.007 5.273a.5.5 0 0 0-.121-.184.5.5 0 0 0-.185-.121V7.02l2.692 4.654a.5.5 0 0 0-.089.159zm4.332-1.523a.51.51 0 0 0-.087-.506l1.61-2.784v4.507l-.075.035zm-.947-.362a.5.5 0 0 0-.035.18q0 .187.121.326l-.607 1.048a.5.5 0 0 0-.179 0L9.41 7.178zm-.13 1.885a.5.5 0 0 0-.092-.158l.605-1.048a.5.5 0 0 0 .34-.058l1.447 1.252-.006.012zm2.416.53a.5.5 0 0 0 .184.121v4.501l-2.692-4.662a.5.5 0 0 0 .087-.145h2.3q.04.106.12.185m-2.98.138a.6.6 0 0 0 .173-.003l2.501 4.332-3.198-2.766a.51.51 0 0 0-.086-.506zm2.864 4.945-.006.012h-5.55a.5.5 0 0 0-.089-.153l1.693-2.925a.5.5 0 0 0 .34-.057zm-3.774-4.062a.5.5 0 0 0-.34.058L9.22 12.19l.006-.011h2.3a.5.5 0 0 0 .089.149zm-.561.317a.5.5 0 0 0-.034.182q0 .186.12.325l-1.612 2.78v-4.505l.075-.034zM8.39 12.363a.5.5 0 0 0 .184.121v4.501l-2.689-4.654a.5.5 0 0 0 .093-.152h2.29q.04.105.122.184"/></g><defs><clipPath id="a"><path fill="#fff" d="M0 0h24v24H0z"/></clipPath></defs></svg>