<svg xmlns="http://www.w3.org/2000/svg" fill="none" viewBox="0 0 24 24"><g clip-path="url(#a)"><path fill="#0899CD" d="M12 24c6.627 0 12-5.373 12-12S18.627 0 12 0 0 5.373 0 12s5.373 12 12 12Z"/><path fill="#fff" d="M18.482 12.512c-.11 1.577-.74 2.938-1.888 4.082-.29.29-.592.547-.91.771a.595.595 0 0 0-.045-.06l2.771-4.801a.564.564 0 0 0 .072.008Zm-3.094 5.051c-.999.625-2.129.937-3.388.937-1.204 0-2.29-.285-3.257-.856.146.086.294.165.444.237a.47.47 0 0 0 .038-.077h5.55c.01.027.022.052.037.077.197-.095.388-.201.576-.318Zm-7.072-.195a6.964 6.964 0 0 1-.916-.774c-1.145-1.144-1.772-2.505-1.882-4.082a.464.464 0 0 0 .071-.008l2.772 4.801a.458.458 0 0 0-.045.063ZM5.5 11.9c.024-1.754.656-3.254 1.9-4.5 1.27-1.267 2.804-1.9 4.6-1.9 1.796 0 3.328.633 4.594 1.9 1.265 1.264 1.9 2.79 1.906 4.576 0-.16-.006-.318-.018-.477a.463.463 0 0 0-.071.009l-2.77-4.81a.489.489 0 0 0 .047-.064 6.122 6.122 0 0 0-.873-.515.502.502 0 0 0-.04.084h-5.55a.496.496 0 0 0-.04-.084 6.138 6.138 0 0 0-.872.513c.013.023.03.047.048.068L5.59 11.508a.46.46 0 0 0-.072-.01 7.452 7.452 0 0 0-.016.402H5.5Zm12.613-.22a.493.493 0 0 0-.092.152h-2.29a.513.513 0 0 0-.122-.184.513.513 0 0 0-.184-.12V7.02l2.688 4.66Zm-.092.498a.496.496 0 0 0 .092.152l-2.688 4.655v-4.502a.513.513 0 0 0 .184-.12.514.514 0 0 0 .121-.185h2.291ZM5.98 11.833a.495.495 0 0 0-.093-.153l2.69-4.66v4.508a.512.512 0 0 0-.185.121.514.514 0 0 0-.121.184H5.979Zm3.24-5.274a.065.065 0 0 0 .007-.011h5.55a.507.507 0 0 0 .092.152l-1.696 2.931a.487.487 0 0 0-.34.057L9.22 6.56Zm.007 5.274a.513.513 0 0 0-.121-.184.512.512 0 0 0-.185-.121V7.02l2.692 4.654a.503.503 0 0 0-.089.159H9.226Zm4.332-1.523a.512.512 0 0 0-.087-.506l1.61-2.784v4.507a.477.477 0 0 0-.075.035l-1.448-1.253v.001Zm-.947-.362a.471.471 0 0 0-.035.18c0 .125.04.233.121.326l-.607 1.048a.454.454 0 0 0-.179 0L9.41 7.178l3.201 2.77h.001Zm-.13 1.885a.515.515 0 0 0-.092-.158l.605-1.048a.487.487 0 0 0 .34-.058l1.447 1.252a.077.077 0 0 1-.006.012h-2.294Zm2.416.53a.514.514 0 0 0 .184.121v4.501l-2.692-4.662a.49.49 0 0 0 .087-.145h2.3c.026.07.067.133.12.185Zm-2.98.138a.573.573 0 0 0 .173-.003l2.501 4.332-3.198-2.766a.513.513 0 0 0-.086-.506l.61-1.057Zm2.864 4.945a.087.087 0 0 1-.006.012h-5.55a.5.5 0 0 0-.089-.153l1.693-2.925a.487.487 0 0 0 .34-.057l3.612 3.123Zm-3.774-4.062a.485.485 0 0 0-.34.058L9.22 12.19a.074.074 0 0 0 .006-.011h2.3a.5.5 0 0 0 .089.149l-.608 1.056Zm-.561.317a.47.47 0 0 0-.034.182c0 .124.04.232.12.325l-1.612 2.78v-4.505a.48.48 0 0 0 .075-.034l1.45 1.253ZM8.39 12.363a.514.514 0 0 0 .184.121v4.501l-2.689-4.654a.496.496 0 0 0 .093-.152h2.29a.515.515 0 0 0 .122.184Z"/></g><defs><clipPath id="a"><path fill="#fff" d="M0 0h24v24H0z"/></clipPath></defs></svg>