<svg xmlns="http://www.w3.org/2000/svg" fill="none" viewBox="0 0 24 24"><path fill="#000" d="M21.982 19.717v-.024l-9.76-16.057-.013-.02a.253.253 0 0 0-.351-.075.269.269 0 0 0-.077.071l-.013.022a461.03 461.03 0 0 1-1.976 3.234.562.562 0 0 0 0 .642c.876 1.426 1.75 2.852 2.621 4.279a.607.607 0 0 1 0 .694c-1.436 2.361-2.953 4.843-4.402 7.214a.257.257 0 0 0 .224.376h4.21a.254.254 0 0 0 .225-.134l.144-.242 1.951-3.206a.252.252 0 0 1 .347-.102.238.238 0 0 1 .088.08l1.933 3.15.179.293a.256.256 0 0 0 .224.133h.117a.35.35 0 0 0 .06 0h4.032A.255.255 0 0 0 22 19.79a.259.259 0 0 0-.018-.074Z"/><path fill="#000" d="m10.762 12.643.14-.232a.497.497 0 0 0 0-.57l-.865-1.402-.994-1.603a.253.253 0 0 0-.352-.083.25.25 0 0 0-.091.095l-6.57 10.85a.255.255 0 0 0 .225.377h3.86a.255.255 0 0 0 .224-.133l.147-.245a.273.273 0 0 0 .018-.028l.166-.266a2327.563 2327.563 0 0 1 4.092-6.76Z"/></svg>