<svg xmlns="http://www.w3.org/2000/svg" fill="none" viewBox="0 0 24 24"><path fill="#000" d="M21.982 19.717v-.024l-9.76-16.057-.013-.02a.253.253 0 0 0-.351-.075.3.3 0 0 0-.077.071l-.013.022a461 461 0 0 1-1.976 3.234.56.56 0 0 0 0 .642q1.314 2.139 2.621 4.279a.61.61 0 0 1 0 .694c-1.436 2.361-2.953 4.843-4.401 7.214a.257.257 0 0 0 .223.376h4.21a.25.25 0 0 0 .225-.134l.144-.242 1.951-3.206a.25.25 0 0 1 .347-.102.24.24 0 0 1 .088.08l1.933 3.15.179.293a.26.26 0 0 0 .224.133h.117a.4.4 0 0 0 .06 0h4.032A.255.255 0 0 0 22 19.79a.3.3 0 0 0-.018-.074"/><path fill="#000" d="m10.762 12.643.14-.232a.5.5 0 0 0 0-.57l-.865-1.402-.994-1.603a.253.253 0 0 0-.352-.083.25.25 0 0 0-.091.095l-6.57 10.85a.255.255 0 0 0 .225.377h3.86a.26.26 0 0 0 .224-.133l.147-.245.018-.028.166-.266a2328 2328 0 0 1 4.092-6.76"/></svg>