<svg xmlns="http://www.w3.org/2000/svg" fill="none" viewBox="0 0 24 24"><path fill="#000" d="M21.982 19.717v-.024l-9.76-16.057-.013-.02a.255.255 0 0 0-.352-.075.271.271 0 0 0-.076.071l-.013.022a459.524 459.524 0 0 1-1.976 3.234.562.562 0 0 0 0 .642c.876 1.426 1.75 2.852 2.62 4.279a.607.607 0 0 1 0 .694c-1.435 2.361-2.952 4.843-4.4 7.214a.257.257 0 0 0 .223.376h4.21a.253.253 0 0 0 .225-.134l.144-.242 1.951-3.206a.253.253 0 0 1 .347-.102.24.24 0 0 1 .088.08l1.933 3.15.179.293a.257.257 0 0 0 .223.133h.118a.3.3 0 0 0 .06 0h4.032A.255.255 0 0 0 22 19.79a.259.259 0 0 0-.018-.074Z"/><path fill="#000" d="m10.762 12.643.14-.232a.498.498 0 0 0 0-.57l-.865-1.402-.995-1.603a.254.254 0 0 0-.351-.083.25.25 0 0 0-.091.095l-6.57 10.85a.255.255 0 0 0 .104.345.236.236 0 0 0 .121.032h3.86a.255.255 0 0 0 .224-.133l.147-.245a.267.267 0 0 0 .018-.028l.166-.266a2320.895 2320.895 0 0 1 4.092-6.76Z"/></svg>