<svg xmlns="http://www.w3.org/2000/svg" fill="none" viewBox="0 0 24 24"><path fill="#62757E" fill-rule="evenodd" d="M2.02 5.88a3.095 3.095 0 0 1 3.095-3.095h13.77A3.095 3.095 0 0 1 21.98 5.88v12.24a3.095 3.095 0 0 1-3.095 3.095H5.115A3.095 3.095 0 0 1 2.02 18.12zm3.095-1.495c-.826 0-1.495.67-1.495 1.495v12.24c0 .826.67 1.495 1.495 1.495h13.77c.826 0 1.495-.67 1.495-1.495V5.88c0-.826-.67-1.495-1.495-1.495zm.89 2.545a.8.8 0 0 1 1.12-.16l3.06 2.295a.8.8 0 0 1 0 1.28l-3.06 2.295a.8.8 0 0 1-.96-1.28l2.207-1.655L6.165 8.05a.8.8 0 0 1-.16-1.12m4.43 5.07a.8.8 0 0 1 .8-.8h3.06a.8.8 0 1 1 0 1.6h-3.06a.8.8 0 0 1-.8-.8" clip-rule="evenodd"/></svg>