<svg xmlns="http://www.w3.org/2000/svg" fill="none" viewBox="0 0 24 24"><g clip-path="url(#a)"><path fill="#F4C257" d="M12 24c6.627 0 12-5.373 12-12S18.627 0 12 0 0 5.373 0 12s5.373 12 12 12"/><path fill="#fff" d="m8.135 14.934-.592-.344V9.41l.953-.553.591.343-.952.554v1.8l2.409 1.4v.667l-2.41-1.4zm8.322-1.03v.686L12 17.18l-.953-.554v-.687l.953.554 1.549-.9v-2.8l.573-.333v2.8zM17.593 12v-.117l-2.3 1.337v-.666l2.3-1.337V8.75L12 5.5 9.203 7.125l-.1.059 2.3 1.337-.573.332-2.3-1.336L6.407 8.75v6.5l2.796 1.625.102.059V14.26l.573.333v2.674L12 18.5l5.592-3.25zm-2.898-1.233-2.315 1.346v2.8l-.38.22-.286-.166v-2.692l-2.41-1.4v-.441l.287-.167 2.316 1.346 2.41-1.4.379.22zM11.41 7.164 12 6.82l4.456 2.59v1.107l-.59.343V9.753l-1.55-.9-2.41 1.4-.573-.333 2.41-1.4z"/></g><defs><clipPath id="a"><path fill="#fff" d="M0 0h24v24H0z"/></clipPath></defs></svg>