<svg xmlns="http://www.w3.org/2000/svg" fill="none" viewBox="0 0 24 24"><path fill="url(#a)" fill-rule="evenodd" d="M5.665 3.389 2.016 11.05a.14.14 0 0 0 .03.171l9.848 9.442a.154.154 0 0 0 .207 0l9.854-9.442a.144.144 0 0 0 .029-.17l-3.648-7.662a.135.135 0 0 0-.131-.089H5.794a.15.15 0 0 0-.13.089" clip-rule="evenodd"/><path fill="#fff" fill-rule="evenodd" d="M13.268 11.834c-.071.006-.437.03-1.25.03-.648 0-1.108-.018-1.273-.03-2.505-.112-4.373-.548-4.373-1.067s1.868-.96 4.373-1.072v1.703c.163.012.63.041 1.279.041.778 0 1.167-.035 1.238-.041V9.695c2.498.112 4.367.548 4.367 1.066 0 .519-1.863.961-4.362 1.073m0-2.31V7.997h3.489V5.67h-9.5v2.328h3.488v1.527c-2.835.13-4.968.69-4.968 1.367 0 .678 2.133 1.232 4.968 1.367v4.886h2.523v-4.886c2.828-.13 4.956-.69 4.956-1.361 0-.672-2.128-1.244-4.956-1.373" clip-rule="evenodd"/><defs><linearGradient id="a" x1="1.683" x2="21.082" y1="11.696" y2="11.696" gradientUnits="userSpaceOnUse"><stop stop-color="#D8B35D"/><stop offset="1" stop-color="#F5E7BF"/></linearGradient></defs></svg>