<svg xmlns="http://www.w3.org/2000/svg" fill="none" viewBox="0 0 24 24"><path fill="#62757E" fill-rule="evenodd" d="M21.167 17.5H10.333a.834.834 0 0 1 0-1.667h10V9.167h-10a.834.834 0 0 1 0-1.667h10.834c.46 0 .833.373.833.833v8.334c0 .46-.373.833-.833.833ZM9.5 6.667h-.833v11.666H9.5A.834.834 0 0 1 9.5 20H6.167a.834.834 0 0 1 0-1.667H7V6.667h-.833a.834.834 0 0 1 0-1.667H9.5a.834.834 0 0 1 0 1.667ZM6.167 8.333c0 .46-.374.834-.834.834H3.667v6.666h1.666a.834.834 0 0 1 0 1.667h-2.5A.834.834 0 0 1 2 16.667V8.333c0-.46.373-.833.833-.833h2.5c.46 0 .834.373.834.833Z" clip-rule="evenodd"/></svg>