<svg xmlns="http://www.w3.org/2000/svg" fill="none" viewBox="0 0 24 24"><path fill="#2C7DF7" d="M13.732 21.9c-1.436 0-2.48-.344-3.14-1.032-.656-.688-.984-1.428-.984-2.224 0-.292.056-.536.172-.732.112-.196.276-.36.468-.468.2-.116.444-.172.732-.172.292 0 .536.056.732.172.2.116.356.272.468.468.116.2.172.444.172.732 0 .352-.084.636-.252.86-.168.22-.368.368-.596.436.2.276.512.468.94.584.428.124.856.184 1.284.184a2.86 2.86 0 0 0 1.616-.48c.48-.32.836-.796 1.064-1.42.228-.628.344-1.336.344-2.132 0-.864-.128-1.6-.38-2.212-.244-.62-.608-1.076-1.088-1.376a2.944 2.944 0 0 0-1.556-.448c-.368 0-.824.152-1.376.46l-1.008.504V13.1l4.536-6.048H9.608v6.276c0 .52.116.948.344 1.284.228.336.58.504 1.056.504.368 0 .716-.124 1.052-.368.34-.248.632-.548.872-.892a.321.321 0 0 1 .116-.148.227.227 0 0 1 .148-.056c.084 0 .184.04.296.128.108.12.16.264.16.424a2.814 2.814 0 0 1-.056.32c-.26.58-.62 1.024-1.076 1.328-.448.3-.972.46-1.512.46-1.36 0-2.3-.268-2.82-.8-.52-.536-.78-1.26-.78-2.176v-6.28H4.2V5.888h3.208v-2.66l-.732-.732V1.9h2.132l.8.412v3.572l8.292-.02.824.824-5.084 5.084c.308-.124.632-.2.964-.228.548 0 1.168.176 1.856.528.696.344 1.228.816 1.604 1.42.376.596.616 1.168.72 1.72a7.21 7.21 0 0 1 .172 1.468 6.12 6.12 0 0 1-.62 2.728 4.024 4.024 0 0 1-1.88 1.88 6.207 6.207 0 0 1-2.724.612Z"/></svg>