<svg xmlns="http://www.w3.org/2000/svg" fill="none" viewBox="0 0 24 24"><g clip-path="url(#a)"><path fill="#434247" d="M12 24c6.627 0 12-5.373 12-12S18.627 0 12 0 0 5.373 0 12s5.373 12 12 12"/><path fill="#fff" d="M12 5a7 7 0 1 0 0 14 7 7 0 0 0 0-14m0 13.717A6.723 6.723 0 1 1 12 5.27a6.723 6.723 0 0 1 0 13.447"/><path fill="#fff" d="M12.769 12.688h1.775v2.618c0 .26-.267.399-.52.532-.25.133-.654.104-1.336.104h-.832c-1.278.029-1.636-.07-1.943-.203q-.46-.207-.462-.589v-2.462h-.92v2.774c0 .15.076.324.192.48.133.18.115.231.404.376.26.133.52.236.989.295.364.046.3.034.948.046h1.537c1.156-.023 1.393.058 2.08-.289.562-.278.753-.601.793-.81v-3.774h-2.7v.902zm-2.393-5.342c-.469.03-.856.174-1.156.29-.306.115-.37.254-.497.404a.77.77 0 0 0-.185.492v3.075h.925V8.826q.001-.357.427-.566c.29-.145.711-.214 1.105-.214h1.803c.687 0 1.057-.012 1.271.115.22.139.48.26.48.52v.735h.925v-.988c-.017-.128-.156-.492-.81-.798-.589-.278-.78-.295-1.704-.295"/></g><defs><clipPath id="a"><path fill="#fff" d="M0 0h24v24H0z"/></clipPath></defs></svg>