<svg xmlns="http://www.w3.org/2000/svg" fill="none" viewBox="0 0 24 24"><path fill="#62757E" d="M17.834 5.28c-2.284 1.546-3.879 3.955-3.879 6.782 0 2.781 1.546 5.16 3.771 6.708-.93.42-1.962.655-3.053.655-.878 0-1.72-.152-2.5-.432-.395.463-.886.84-1.443 1.1a9 9 0 0 0 3.943.907 8.96 8.96 0 0 0 4.25-1.065c.93-.5.695-1.79-.18-2.378-1.966-1.32-3.213-3.292-3.213-5.495 0-2.238 1.287-4.237 3.306-5.558.881-.576 1.132-1.858.212-2.37a9 9 0 0 0-13.266 9.274 4.3 4.3 0 0 1 1.474-1.061 7.425 7.425 0 0 1 10.578-7.068"/><path fill="#62757E" fill-rule="evenodd" d="M8.646 13.053a3.42 3.42 0 0 0-3.044 1.86A2.59 2.59 0 1 0 4.2 19.858q.103.03.213.03h4.521a.8.8 0 0 0 .26-.044 3.418 3.418 0 0 0-.548-6.792m.132 5.26H4.529l-.04-.005a1.015 1.015 0 1 1 .911-1.622.787.787 0 0 0 1.412-.398 1.843 1.843 0 1 1 2.037 2.014z" clip-rule="evenodd"/></svg>