<svg xmlns="http://www.w3.org/2000/svg" fill="none" viewBox="0 0 24 24"><path fill="#62757E" fill-rule="evenodd" d="M12 2c.477 0 .863.386.863.863v2.284a.863.863 0 1 1-1.726 0V2.863c0-.477.386-.863.863-.863M4.929 4.929a.863.863 0 0 1 1.22 0l1.616 1.615a.863.863 0 0 1-1.22 1.22L4.928 6.15a.863.863 0 0 1 0-1.22m14.142 0a.863.863 0 0 1 0 1.22l-1.615 1.616a.863.863 0 1 1-1.22-1.22L17.85 4.93a.863.863 0 0 1 1.22 0M12 9.056a2.944 2.944 0 1 0 0 5.888 2.944 2.944 0 0 0 0-5.888M7.33 12a4.67 4.67 0 1 1 9.34 0 4.67 4.67 0 0 1-9.34 0M2 12c0-.477.386-.863.863-.863h2.284a.863.863 0 1 1 0 1.726H2.863A.863.863 0 0 1 2 12m15.99 0c0-.477.386-.863.863-.863h2.284a.863.863 0 0 1 0 1.726h-2.284A.863.863 0 0 1 17.99 12M7.765 16.235a.863.863 0 0 1 0 1.22l-1.616 1.616a.863.863 0 1 1-1.22-1.22l1.615-1.616a.863.863 0 0 1 1.22 0m8.47 0a.863.863 0 0 1 1.22 0l1.616 1.616a.863.863 0 0 1-1.22 1.22l-1.616-1.615a.863.863 0 0 1 0-1.22M12 17.99c.477 0 .863.386.863.863v2.284a.863.863 0 0 1-1.726 0v-2.284c0-.477.386-.863.863-.863" clip-rule="evenodd"/></svg>