<svg xmlns="http://www.w3.org/2000/svg" fill="none" viewBox="0 0 24 24"><g clip-path="url(#a)"><path fill="#2AB8E6" d="M12 24c6.627 0 12-5.373 12-12S18.627 0 12 0 0 5.373 0 12s5.373 12 12 12"/><path fill="#fff" d="M8.724 5.5h6.552l.624.645v11.71l-.624.645H8.724l-.624-.645V6.145zm.624 11.709h5.304V6.792H9.348zm4.637-3.361H12.63v1.47h-1.225v-1.47h-1.357v-1.266h3.938zm0-3.628v1.266h-3.937V10.22h1.356V8.749h1.225v1.47z"/></g><defs><clipPath id="a"><path fill="#fff" d="M0 0h24v24H0z"/></clipPath></defs></svg>