<svg xmlns="http://www.w3.org/2000/svg" fill="none" viewBox="0 0 24 24"><path fill="url(#a)" d="M12 2c5.522 0 10 4.478 10 10s-4.478 10-10 10S2 17.522 2 12 6.478 2 12 2"/><path fill="#fff" d="M15.84 8.94c-.126.15-.118.482-.32.38 0 0-1.406-.538-.54-2.12.234-.366.476-.39.44-1.28.216.328.924.986.98 2.02.056.69-.356.782-.56 1"/><path fill="#fff" d="M14.72 11.4c.346-.116.906-.3.94-1.48.534.818 2.346 1.966 1.48 5.48-.352 1.37-1.664 2.036-2.9 2.54-.772.328-1.56.876-1.88 1.7 0 0-5.842-.738-5.66-6.54.146-3.01 2.966-4.16 4.16-6.36.636-1.388.42-2.78.42-2.78S15 6.274 13.32 9.84c-.546 1.26.758 1.686 1.4 1.56"/><path fill="url(#b)" d="M8.98 12.44v1.94h2.06v2.06h1.94v-2.06h2.06v-1.94z"/><defs><linearGradient id="a" x1="2" x2="22" y1="12" y2="12" gradientUnits="userSpaceOnUse"><stop stop-color="#FFA50D"/><stop offset="1" stop-color="#FE5413"/></linearGradient><linearGradient id="b" x1="8.98" x2="15.04" y1="14.44" y2="14.44" gradientUnits="userSpaceOnUse"><stop stop-color="#FFA50D"/><stop offset="1" stop-color="#FE5413"/></linearGradient></defs></svg>