<svg xmlns="http://www.w3.org/2000/svg" fill="none" viewBox="0 0 24 24"><path fill="#62757e" d="M19.327 2a1.7 1.7 0 0 1 1.7 1.7 3.5 3.5 0 0 1-2.69 3.404l-.015 3.47v2.134l.016 4.187a3.5 3.5 0 0 1 2.69 3.405 1.7 1.7 0 0 1-1.7 1.7h-12.6a1.7 1.7 0 0 1-1.7-1.7c0-1.66 1.157-3.05 2.708-3.41l-.006-1.583h-.007V13.3c-3.378-.305-5.209-2.627-5.447-4.654a.801.801 0 0 1 1.59-.188c.143 1.222 1.304 2.946 3.857 3.234V9.975l.005-.001.01-2.865A3.5 3.5 0 0 1 5.028 3.7a1.7 1.7 0 0 1 1.7-1.7zm-10.8 16.4a1.9 1.9 0 0 0-1.9 1.9.1.1 0 0 0 .1.1h12.6a.1.1 0 0 0 .1-.1 1.9 1.9 0 0 0-1.9-1.9zm4.496-3.592-3.7.5.02 1.492h7.401l-.02-2.342zm0-3.734-3.7.5v1.983l3.7-.349 3.7-.5v-1.983zm-3.7-1.25 3.7-.35 3.7-.5.021-1.774h-7.4zM6.728 3.6a.1.1 0 0 0-.1.1 1.9 1.9 0 0 0 1.9 1.9h9a1.9 1.9 0 0 0 1.899-1.9.1.1 0 0 0-.1-.1z"/></svg>