<svg xmlns="http://www.w3.org/2000/svg" fill="none" viewBox="0 0 24 24"><g clip-path="url(#a)"><path fill="#49BF87" d="M12 24c6.627 0 12-5.373 12-12S18.627 0 12 0 0 5.373 0 12s5.373 12 12 12Z"/><path fill="#fff" d="M5.698 6.965 5 7.753l2.764.735 1.053 2.634.7-.79-.985-2.71-2.834-.657Zm4.166-.463-.698.787 2.764.735 1.053 2.635.7-.79-.985-2.71-2.834-.657ZM13.8 6.04l-.698.787 2.764.734 1.052 2.635.7-.79-.985-2.71-2.833-.657Zm0 3.934-.698.788 2.764.734 1.052 2.635.7-.79-.985-2.71-2.833-.657Zm0 4.861-.698.788 2.764.735 1.052 2.634.7-.79-.985-2.71-2.833-.657Z"/></g><defs><clipPath id="a"><path fill="#fff" d="M0 0h24v24H0z"/></clipPath></defs></svg>