<svg xmlns="http://www.w3.org/2000/svg" fill="none" viewBox="0 0 24 24"><path fill="#62757E" d="M17.64 14.693a1.125 1.125 0 1 0 0-2.25 1.125 1.125 0 0 0 0 2.25"/><path fill="#62757E" fill-rule="evenodd" d="M10.83 22.785a2.035 2.035 0 0 1-2.942-1.823v-4.158H5.113c-1.38 0-2.39-1.3-2.049-2.637l1.983-7.788A1.83 1.83 0 0 1 6.821 5h13.477c.389 0 .704.316.704.705v10.394c0 .39-.315.705-.704.705h-7.3l-1.094 4.626a2.04 2.04 0 0 1-1.075 1.355m-1.532-1.823a.625.625 0 0 0 1.234.144l1.222-5.17a.705.705 0 0 1 .686-.542h1.717V6.41H6.82a.42.42 0 0 0-.407.316L4.43 14.515a.705.705 0 0 0 .683.879h3.48c.39 0 .705.315.705.705zm10.295-5.568h-4.027V6.41h4.027z" clip-rule="evenodd"/></svg>