<svg xmlns="http://www.w3.org/2000/svg" fill="none" viewBox="0 0 24 24"><path fill="currentColor" d="M5.735 11.23a1.25 1.25 0 1 0 0 2.501 1.25 1.25 0 0 0 0-2.5Z"/><path fill="currentColor" fill-rule="evenodd" d="M13.303 2.24c1.504-.748 3.268.346 3.268 2.024v4.62h3.083a2.35 2.35 0 0 1 2.278 2.93l-2.204 8.654A2.033 2.033 0 0 1 17.758 22H2.782A.783.783 0 0 1 2 21.217V9.668c0-.433.35-.783.783-.783h8.111l1.215-5.14a2.261 2.261 0 0 1 1.194-1.506Zm1.702 2.024a.695.695 0 0 0-1.371-.16l-1.357 5.744a.783.783 0 0 1-.763.603H9.607v9.982h8.15c.214 0 .4-.144.453-.351l2.203-8.654a.783.783 0 0 0-.759-.977h-3.866a.783.783 0 0 1-.783-.783V4.264ZM3.567 10.451H8.04v9.982H3.567v-9.982Z" clip-rule="evenodd"/></svg>