<svg xmlns="http://www.w3.org/2000/svg" fill="none" viewBox="0 0 24 24"><path fill="#6B7084" d="M18.27 12.77a1.25 1.25 0 1 0 0-2.5 1.25 1.25 0 0 0 0 2.5Z"/><path fill="#6B7084" fill-rule="evenodd" d="M10.702 21.76c-1.503.748-3.268-.346-3.268-2.024v-4.62H4.351a2.35 2.35 0 0 1-2.277-2.93l2.204-8.654A2.034 2.034 0 0 1 6.248 2h14.974c.433 0 .784.35.784.783v11.549a.784.784 0 0 1-.784.783h-8.111l-1.215 5.14a2.261 2.261 0 0 1-1.194 1.506Zm-1.701-2.024a.695.695 0 0 0 1.37.16l1.358-5.744a.783.783 0 0 1 .762-.603H14.4V3.567H6.25c-.214 0-.4.144-.453.351l-2.204 8.654a.783.783 0 0 0 .76.977h3.866c.432 0 .783.35.783.783v5.404Zm11.438-6.187h-4.473V3.567h4.473v9.982Z" clip-rule="evenodd"/></svg>