<svg xmlns="http://www.w3.org/2000/svg" fill="none" viewBox="0 0 24 24"><path fill="#62757E" d="M6.36 9.307a1.125 1.125 0 1 0 0 2.25 1.125 1.125 0 0 0 0-2.25"/><path fill="#62757E" fill-rule="evenodd" d="M13.17 1.215a2.035 2.035 0 0 1 2.942 1.823v4.158h2.775c1.38 0 2.39 1.3 2.049 2.637l-1.983 7.789A1.83 1.83 0 0 1 17.179 19H3.703a.705.705 0 0 1-.705-.705V7.901c0-.39.315-.705.705-.705h7.3l1.093-4.626a2.04 2.04 0 0 1 1.075-1.355m1.532 1.823a.625.625 0 0 0-1.234-.144l-1.222 5.17a.705.705 0 0 1-.686.542H9.843v8.984h7.336a.42.42 0 0 0 .407-.317l1.984-7.788a.705.705 0 0 0-.683-.879h-3.48a.705.705 0 0 1-.705-.705zM4.407 8.606h4.027v8.984H4.407z" clip-rule="evenodd"/></svg>