<svg xmlns="http://www.w3.org/2000/svg" fill="none" viewBox="0 0 24 24"><path fill="#62757E" fill-rule="evenodd" d="M21.756 10.923 10.922 21.756a.834.834 0 0 1-1.178 0l-1.617-1.617c-.024-.02-.053-.029-.076-.05a.834.834 0 0 1 .002-1.179c.396-.395.613-.92.613-1.479a2.08 2.08 0 0 0-.614-1.483 2.08 2.08 0 0 0-1.48-.614c-.56 0-1.088.218-1.483.613a.83.83 0 0 1-1.178.001c-.023-.022-.031-.052-.05-.076l-1.617-1.616a.833.833 0 0 1 0-1.178L13.078 2.245a.83.83 0 0 1 1.178 0l1.617 1.617c.024.019.053.027.075.05a.834.834 0 0 1 0 1.178 2.07 2.07 0 0 0-.614 1.48c-.001.559.217 1.086.613 1.482s.922.614 1.481.614a2.08 2.08 0 0 0 1.483-.614.833.833 0 0 1 1.178 0c.023.023.031.052.05.076l1.617 1.616a.833.833 0 0 1 0 1.179m-4.328-.59a3.73 3.73 0 0 1-2.66-1.103 3.73 3.73 0 0 1-.526-4.642l-.575-.576-9.655 9.654.576.577a3.735 3.735 0 0 1 4.644.527 3.736 3.736 0 0 1 .526 4.643l.575.575 9.655-9.655-.576-.575a3.73 3.73 0 0 1-1.984.575M14.5 13.666a.83.83 0 0 1-.59-.244l-3.333-3.333a.832.832 0 1 1 1.179-1.178l3.333 3.334a.832.832 0 0 1-.59 1.421" clip-rule="evenodd"/></svg>