<svg xmlns="http://www.w3.org/2000/svg" fill="none" viewBox="0 0 24 24"><path fill="#62757E" fill-rule="evenodd" d="M19.137 8.874a8.3 8.3 0 0 1 1.53 4.793c0 4.595-3.74 8.333-8.334 8.333C7.738 22 4 18.262 4 13.667c0-4.315 3.295-7.872 7.5-8.291v-1.71h-.834a.833.833 0 0 1 0-1.666H14a.833.833 0 0 1 0 1.667h-.834v1.709a8.27 8.27 0 0 1 3.958 1.487l1.286-1.286a.833.833 0 0 1 1.179 0l.833.834a.833.833 0 0 1 0 1.178zM12.333 7a6.674 6.674 0 0 0-6.667 6.667 6.674 6.674 0 0 0 6.667 6.666A6.674 6.674 0 0 0 19 13.667 6.674 6.674 0 0 0 12.333 7m0 8.333a1.67 1.67 0 0 1-1.667-1.666c0-.149.026-.29.063-.427L8.84 11.352a.833.833 0 1 1 1.179-1.178l1.888 1.888c.137-.036.278-.062.426-.062.918 0 1.667.748 1.667 1.667s-.748 1.666-1.667 1.666" clip-rule="evenodd"/></svg>