<svg xmlns="http://www.w3.org/2000/svg" fill="none" viewBox="0 0 24 24"><path fill="#62757E" fill-rule="evenodd" d="M21.166 13.834h-1.665a.835.835 0 0 0 0 1.667 2.5 2.5 0 0 1 2.499 2.5 2.5 2.5 0 0 1-1.666 2.346v.986a.833.833 0 1 1-1.668 0v-.832h-.833a.833.833 0 1 1 0-1.666h1.668a.835.835 0 0 0 0-1.668 2.505 2.505 0 0 1-2.501-2.5c0-1.085.698-2.001 1.666-2.347v-.986a.834.834 0 0 1 1.668 0v.833h.832a.833.833 0 1 1 0 1.667m-10.825-.822c-.023 0-.042-.02-.066-.022a.83.83 0 0 1-.776-.823V8.001a.834.834 0 1 1 1.667 0v3.32h3.34c.46 0 .827.368.827.829s-.367.862-.828.862zm7.852-3.93a.83.83 0 0 1-1.112-.393 7.02 7.02 0 0 0-4.863-3.858 6.98 6.98 0 0 0-5.299.956 7.04 7.04 0 0 0-3.09 4.459c-.826 3.818 1.594 7.597 5.394 8.425 1.842.4 3.727.059 5.31-.963a.833.833 0 0 1 .904 1.4A8.64 8.64 0 0 1 8.87 20.3C4.173 19.276 1.18 14.609 2.2 9.894a8.7 8.7 0 0 1 3.819-5.508 8.64 8.64 0 0 1 6.554-1.182 8.68 8.68 0 0 1 6.013 4.767.834.834 0 0 1-.392 1.111" clip-rule="evenodd"/></svg>