<svg xmlns="http://www.w3.org/2000/svg" fill="none" viewBox="0 0 24 24"><g clip-path="url(#a)"><path fill="#EF494D" d="M12 24c6.627 0 12-5.373 12-12S18.627 0 12 0 0 5.373 0 12s5.373 12 12 12"/><path fill="#fff" fill-rule="evenodd" d="M5 8.77a.27.27 0 0 1 .27-.27h3.518c1.623 0 2.638.837 2.638 2.02q0 .74-.677 1.346.947.538.947 1.615c0 1.683-1.623 2.02-2.706 2.02H5.27A.27.27 0 0 1 5 15.23v-.805c0-.15.121-.27.27-.27h3.72q1.15 0 1.15-.742 0-.74-1.15-.807H5.27a.27.27 0 0 1-.27-.27v-.805c0-.15.121-.27.27-.27h3.72q.812-.135.812-.674 0-.74-.812-.74H5.27A.27.27 0 0 1 5 9.576zm7.305 0a.27.27 0 0 1 .27-.27h3.585c.15 0 .27.121.27.27v6.46a.27.27 0 0 1-.27.27h-1.015a.27.27 0 0 1-.27-.27v-5.113a.27.27 0 0 0-.27-.271h-2.03a.27.27 0 0 1-.27-.27zm5.072-.27h1.353a.27.27 0 0 1 .27.27v.805a.27.27 0 0 1-.27.271h-1.353a.27.27 0 0 1-.27-.27V8.77c0-.15.12-.271.27-.271" clip-rule="evenodd"/></g><defs><clipPath id="a"><path fill="#fff" d="M0 0h24v24H0z"/></clipPath></defs></svg>