<svg xmlns="http://www.w3.org/2000/svg" fill="none" viewBox="0 0 24 24"><g clip-path="url(#a)"><path fill="#24DD7B" d="M12 24c6.627 0 12-5.373 12-12S18.627 0 12 0 0 5.373 0 12s5.373 12 12 12"/><path fill="#fff" d="M10.76 6.743 13.622 5.5l-.024 3.284H17.2v2.275h-3.626v3.942c0 1.196 2.028 1.336 2.791.938l.692 2.064c-1.694.985-6.321.75-6.321-2.98v-8.28zM8.088 11.67c-.712 0-1.288-.693-1.288-1.548s.576-1.548 1.288-1.548c.711 0 1.288.693 1.288 1.548s-.577 1.548-1.288 1.548"/></g><defs><clipPath id="a"><path fill="#fff" d="M0 0h24v24H0z"/></clipPath></defs></svg>