<svg xmlns="http://www.w3.org/2000/svg" fill="none" viewBox="0 0 24 24"><g clip-path="url(#a)"><path fill="#895AF8" d="M12 24c6.627 0 12-5.373 12-12S18.627 0 12 0 0 5.373 0 12s5.373 12 12 12"/><path fill="#fff" fill-rule="evenodd" d="M12.959 11.052q.13-.008.26 0c.801.054 1.17 1.143 1.679 1.083a4.4 4.4 0 0 1-1.625.84 1.08 1.08 0 0 1-1.175-.704v2.166l3.152-1.798V9.833zm-1.566-.005a1.1 1.1 0 0 1-.4-.807v-.044c0-.628 1.012-1.625 1.045-1.625.032.033 1.045 1.002 1.045 1.625v.049c-.01.278-.126.542-.325.737l2.492-1.338L12 8.05 8.75 9.628zm.531 1.245a1.08 1.08 0 0 1-1.175.71 4.4 4.4 0 0 1-1.625-.84c.509.038.872-1.056 1.679-1.083q.13-.008.26 0L8.75 9.833v2.812l3.18 1.836z" clip-rule="evenodd"/><path fill="#fff" d="M12 5.5a6.5 6.5 0 1 0 0 13 6.5 6.5 0 0 0 0-13M8.37 9.395 12 7.635l3.635 1.76v3.46L12 14.953l-3.63-2.096zm7.275 4.875-3.618 2.09-3.662-2.112v-.2l3.662 2.112 3.618-2.09zm0-.407-3.618 2.091-3.662-2.112v-.217l3.662 2.118 3.618-2.09zm0-.406-3.618 2.09-3.662-2.112v-.2l3.662 2.118 3.618-2.09z"/></g><defs><clipPath id="a"><path fill="#fff" d="M0 0h24v24H0z"/></clipPath></defs></svg>