<svg xmlns="http://www.w3.org/2000/svg" fill="none" viewBox="0 0 24 24"><g clip-path="url(#a)"><path fill="#FFC04E" d="M12 24c6.627 0 12-5.373 12-12S18.627 0 12 0 0 5.373 0 12s5.373 12 12 12"/><path fill="#fff" d="M11.744 9.227h.002l-.019.083-.165.78h-.02l-1.09 4.637H9.066l1.111-4.636H8.313l-1.048 4.636H5.74L7.125 9h4.667zM14.38 9h2.31c1.988.091 1.802 1.409 1.802 1.409H19l-.184.545h-.463c-.138.5-1.063.773-1.063.773 1.063.137 1.017.955 1.017.955h.509l-.14.545h-.415c-.107.758-.778 1.125-1.33 1.3a3.4 3.4 0 0 1-1.03.155h-2.908zm-7.9 1.09H5L5.277 9h1.479zm6.33 4-1.202-2.817.509-2.182 1.2 2.682zm3.534-2.817a.63.63 0 0 0 .441-.18.61.61 0 0 0 0-.868.63.63 0 0 0-.44-.18h-.901l-.277 1.228zm-.311 2.364c.414 0 .75-.316.75-.705 0-.39-.334-.705-.75-.705H14.95l-.333 1.41z"/></g><defs><clipPath id="a"><path fill="#fff" d="M0 0h24v24H0z"/></clipPath></defs></svg>