<svg xmlns="http://www.w3.org/2000/svg" fill="none" viewBox="0 0 24 24"><g clip-path="url(#a)"><path fill="#FF439B" d="M12 24c6.627 0 12-5.373 12-12S18.627 0 12 0 0 5.373 0 12s5.373 12 12 12Z"/><path fill="#fff" fill-rule="evenodd" d="m13.447 11.223 3.661 6.302H6.96l1.216-2.017 5.468.001-1.386-2.262 1.19-2.024Zm-3.738 1.466 3.723-6.188 5.068 8.533h-2.434l-2.678-4.654-1.3 2.31H9.709Zm3.176 2.352L5.5 15.006l5.075-8.53 1.209 2.044-2.797 4.497h2.708l1.19 2.024Z" clip-rule="evenodd"/></g><defs><clipPath id="a"><path fill="#fff" d="M0 0h24v24H0z"/></clipPath></defs></svg>