<svg xmlns="http://www.w3.org/2000/svg" fill="none" viewBox="0 0 24 24"><g clip-path="url(#a)"><path fill="#FF4081" d="M12 24c6.627 0 12-5.373 12-12S18.627 0 12 0 0 5.373 0 12s5.373 12 12 12"/><path fill="#fff" d="m10.629 15.252.102 2.273s1.219-.207 2.488 0l.102-2.273zm-1.472-1.757s3.555-.31 5.637 0l.202-2.48a38.4 38.4 0 0 0-5.94 0zM18.5 7.089s-6.805-1.447-13 .103l.457 2.841.559-1.085s5.84-.878 11.07 0l.508 1.086z"/></g><defs><clipPath id="a"><path fill="#fff" d="M0 0h24v24H0z"/></clipPath></defs></svg>