<svg xmlns="http://www.w3.org/2000/svg" fill="none" viewBox="0 0 24 24"><path fill="#62757E" fill-rule="evenodd" d="M16.58 11.086H7.71c-.036 0-.07.01-.11.01-2.494 0-4.525-2.036-4.525-4.542a4.53 4.53 0 0 1 4.26-4.516C7.4 2.025 7.459 2 7.527 2h9.055c2.496 0 4.526 2.038 4.526 4.543s-2.03 4.543-4.526 4.543M7.6 3.829a2.724 2.724 0 0 0-2.715 2.725 2.72 2.72 0 0 0 2.628 2.718l.013-.003h.19a2.72 2.72 0 0 0 2.601-2.715A2.724 2.724 0 0 0 7.601 3.83m8.98-.012h-5.39a4.5 4.5 0 0 1 .938 2.737 4.5 4.5 0 0 1-.919 2.715h5.372a2.723 2.723 0 0 0 2.715-2.725 2.723 2.723 0 0 0-2.715-2.727m-9.054 9.087h9.055c.022 0 .039.01.06.012l.014-.002c2.496 0 4.527 2.038 4.527 4.543S19.15 22 16.655 22c-.038 0-.072-.01-.11-.011H7.527C5.03 21.989 3 19.952 3 17.447s2.03-4.543 4.526-4.543m11.845 4.554a2.724 2.724 0 0 0-2.716-2.726 2.724 2.724 0 0 0-2.717 2.726 2.72 2.72 0 0 0 2.612 2.715h.03c.013 0 .022.005.033.006.014 0 .027.004.041.004a2.724 2.724 0 0 0 2.717-2.726M7.526 20.173h5.522a4.5 4.5 0 0 1-.92-2.715c0-1.032.357-1.973.937-2.737H7.526a2.723 2.723 0 0 0-2.715 2.726 2.723 2.723 0 0 0 2.715 2.726" clip-rule="evenodd"/></svg>