<svg xmlns="http://www.w3.org/2000/svg" fill="none" viewBox="0 0 24 24"><path fill="#62757E" fill-rule="evenodd" d="M16.167 17.667H7.833A5.84 5.84 0 0 1 2 11.833 5.84 5.84 0 0 1 7.833 6h8.334A5.84 5.84 0 0 1 22 11.833a5.84 5.84 0 0 1-5.833 5.834m-12.5-5.834A4.17 4.17 0 0 0 7.833 16a4.17 4.17 0 0 0 4.168-4.167 4.17 4.17 0 0 0-4.168-4.166 4.17 4.17 0 0 0-4.166 4.166m12.5-4.166h-4.258a5.814 5.814 0 0 1 0 8.333h4.258a4.17 4.17 0 0 0 4.166-4.167 4.17 4.17 0 0 0-4.166-4.166" clip-rule="evenodd"/></svg>