<svg xmlns="http://www.w3.org/2000/svg" fill="none" viewBox="0 0 24 24"><path fill="#62757E" fill-rule="evenodd" d="M18.088 10.684H9.53a4.746 4.746 0 0 1-2.747.881A4.788 4.788 0 0 1 2 6.783 4.788 4.788 0 0 1 6.783 2c1.01 0 1.947.32 2.72.858h8.585A3.918 3.918 0 0 1 22 6.771a3.918 3.918 0 0 1-3.912 3.913ZM6.783 3.74a3.047 3.047 0 0 0-3.044 3.044 3.047 3.047 0 0 0 3.044 3.043 3.047 3.047 0 0 0 3.043-3.043A3.047 3.047 0 0 0 6.783 3.74Zm11.305.858h-7.076c.342.659.553 1.394.553 2.186 0 .782-.207 1.51-.54 2.162h7.063a2.176 2.176 0 0 0 2.173-2.174 2.176 2.176 0 0 0-2.173-2.174ZM5.912 13.293h8.506c.023 0 .041.011.063.013a4.745 4.745 0 0 1 2.736-.871A4.789 4.789 0 0 1 22 17.217 4.788 4.788 0 0 1 17.217 22a4.74 4.74 0 0 1-2.773-.903c-.037.006-.07.022-.108.022H5.912A3.917 3.917 0 0 1 2 17.207a3.918 3.918 0 0 1 3.912-3.914Zm14.349 3.924a3.047 3.047 0 0 0-3.044-3.043 3.047 3.047 0 0 0-3.043 3.043 3.047 3.047 0 0 0 3.043 3.044 3.047 3.047 0 0 0 3.044-3.044ZM5.912 19.38h7.064a4.714 4.714 0 0 1-.541-2.163c0-.79.211-1.526.553-2.185H5.912a2.176 2.176 0 0 0-2.173 2.175c0 1.197.975 2.173 2.173 2.173Z" clip-rule="evenodd"/></svg>