<svg xmlns="http://www.w3.org/2000/svg" fill="none" viewBox="0 0 24 24"><g clip-path="url(#a)"><path fill="#1A1F36" d="M12 24c6.627 0 12-5.373 12-12S18.627 0 12 0 0 5.373 0 12s5.373 12 12 12Z"/><path fill="#fff" d="M13.33 10.916a.312.312 0 0 0 .026-.622H11.17v-.547a.36.36 0 0 0-.694 0v.547H9.89a.311.311 0 1 0 0 .622h.585v1.902a1.815 1.815 0 0 0 1.809 1.804 1.77 1.77 0 0 0 1.093-.399l.131-.11a.367.367 0 1 0-.48-.546l-.099.082a1.05 1.05 0 0 1-1.137.131 1.093 1.093 0 0 1-.623-.984v-1.88h2.16Zm3.552 2.121a.27.27 0 0 0-.115-.281.274.274 0 0 0-.099-.042h-.136a.268.268 0 0 0-.262.208 4.263 4.263 0 1 1-8.046-2.694 3.897 3.897 0 0 1 2.11-2.11 4.296 4.296 0 0 1 5.312 1.52.273.273 0 0 0 .372.076l.049-.033a.295.295 0 0 0 .093-.404 4.919 4.919 0 0 0-5.766-1.853 4.613 4.613 0 0 0-2.842 2.804 4.886 4.886 0 1 0 9.33 2.81ZM12.389 5.5h-.546a6.515 6.515 0 0 0-5.98 8.335.312.312 0 0 0 .388.208h.044a.312.312 0 0 0 .163-.366 5.892 5.892 0 1 1 4.373 4.099.294.294 0 0 0-.296.109.317.317 0 0 0 .18.508A6.51 6.51 0 1 0 12.39 5.5Z"/></g><defs><clipPath id="a"><path fill="#fff" d="M0 0h24v24H0z"/></clipPath></defs></svg>