<svg xmlns="http://www.w3.org/2000/svg" fill="none" viewBox="0 0 24 24"><g clip-path="url(#a)"><path fill="#1A1F36" d="M12 24c6.627 0 12-5.373 12-12S18.627 0 12 0 0 5.373 0 12s5.373 12 12 12"/><path fill="#fff" d="M13.33 10.917a.312.312 0 0 0 .027-.623H11.17v-.547a.36.36 0 0 0-.694 0v.547H9.89a.311.311 0 1 0 0 .622h.585v1.902a1.814 1.814 0 0 0 1.81 1.804 1.77 1.77 0 0 0 1.092-.399l.131-.11a.365.365 0 1 0-.48-.546l-.099.082a1.05 1.05 0 0 1-1.137.131 1.09 1.09 0 0 1-.623-.984v-1.88zm3.552 2.12a.274.274 0 0 0-.214-.323h-.136a.27.27 0 0 0-.262.208 4.265 4.265 0 0 1-7.032 2.197 4.26 4.26 0 0 1-1.014-4.891 3.9 3.9 0 0 1 2.11-2.11 4.296 4.296 0 0 1 5.312 1.52.274.274 0 0 0 .372.076l.05-.033a.295.295 0 0 0 .092-.404 4.92 4.92 0 0 0-5.765-1.853 4.61 4.61 0 0 0-2.843 2.804 4.886 4.886 0 1 0 9.33 2.81M12.389 5.5h-.546a6.515 6.515 0 0 0-5.98 8.335.31.31 0 0 0 .388.208h.044a.31.31 0 0 0 .164-.366 5.892 5.892 0 1 1 4.372 4.099.29.29 0 0 0-.295.109.317.317 0 0 0 .18.508A6.51 6.51 0 1 0 12.39 5.5"/></g><defs><clipPath id="a"><path fill="#fff" d="M0 0h24v24H0z"/></clipPath></defs></svg>