<svg xmlns="http://www.w3.org/2000/svg" fill="none" viewBox="0 0 24 24"><path fill="#62757e" d="M14.5 3.2A2.8 2.8 0 0 1 17.3 6v1.2h1.9A2.8 2.8 0 0 1 22 10v8a2.8 2.8 0 0 1-2.8 2.8H4.8A2.8 2.8 0 0 1 2 18v-8a2.8 2.8 0 0 1 2.8-2.8h1.9V6a2.8 2.8 0 0 1 2.8-2.8zM3.6 18a1.2 1.2 0 0 0 1.2 1.2h14.4a1.2 1.2 0 0 0 1.2-1.2v-3.2h-3.1v.6a1 1 0 0 1-2 0v-.6H8.7v.6a1 1 0 0 1-2 0v-.6H3.6zm1.2-9.2A1.2 1.2 0 0 0 3.6 10v3.2h3.1v-.6a1 1 0 0 1 2 0v.6h6.6v-.6a1 1 0 0 1 2 0v.6h3.1V10a1.2 1.2 0 0 0-1.2-1.2zm4.7-4A1.2 1.2 0 0 0 8.3 6v1.2h7.4V6a1.2 1.2 0 0 0-1.2-1.2z"/></svg>