<svg xmlns="http://www.w3.org/2000/svg" fill="none" viewBox="0 0 24 24"><path fill="#ABCD03" d="m13.189 1.792-.657 2.536c.93-1.791 2.407-3.14 4.104-4.328-1.24 1.401-2.371 2.803-3.064 4.204 1.167-1.596 2.735-2.483 4.504-3.069-2.352 2.04-4.22 4.23-5.642 6.429l-1.131-.48c.2-1.755.883-3.554 1.886-5.292Z"/><path fill="#FFFCDB" d="m10.17 6.619 2.151.868c0 .532-.044 2.156.298 2.635 3.58 4.483 2.977 13.47-.725 13.7-5.638 0-7.788-3.724-7.788-7.148 0-3.122 3.848-5.197 6.146-7.042.584-.497.483-1.594-.083-3.013Z"/><path fill="#7D4698" d="m12.322 7.455.775.385c-.072.497.037 1.597.547 1.88 2.262 1.366 4.396 2.856 5.235 4.346 2.99 5.25-2.098 10.111-6.493 9.65 2.39-1.72 3.082-5.25 2.189-9.1-.365-1.508-.93-2.874-1.934-4.417-.434-.757-.283-1.697-.32-2.744Z"/><path fill="#000" fill-rule="evenodd" d="m12.313 7.374 1.24.165c-.474 1.525.93 2.59 1.386 2.838 1.022.55 2.007 1.117 2.79 1.81a6.819 6.819 0 0 1 2.317 5.108c0 1.933-.912 3.796-2.444 5.038C16.162 23.503 14.174 24 12.24 24c-1.203 0-2.28-.053-3.446-.426-2.663-.869-4.651-3.086-4.815-5.747-.146-2.075.328-3.654 1.988-5.304.632-.641 1.742-1.35 2.756-1.999.36-.23.708-.452 1.02-.662.583-.39 1.203-1.49.017-3.565l.237-.177 1.757 1.144-1.483-.594c.128.177.474.975.547 1.206.164.656.091 1.295-.054 1.578-.51.894-1.264 1.344-1.987 1.775-.339.202-.671.4-.968.638-.139.111-.279.22-.419.33-1.51 1.178-2.993 2.334-2.809 5.63.091 1.774 1.514 3.938 3.647 4.949.42.198.863.355 1.321.479-.526-.221-.973-.497-1.32-.887a1.07 1.07 0 0 0-.128-.142c-.766-.851-1.697-2.27-2.043-3.6l-.015-.062c-.12-.503-.216-.9-.076-1.429.606-2.115 1.91-2.977 3.245-3.86l.092-.06c.106-.066.218-.13.33-.196.22-.126.444-.255.637-.407.497-.359.796-1.362 1.072-2.287l.113-.374-.063.335v.001c-.155.836-.375 2.022-1.013 2.502l-.019.013a36.62 36.62 0 0 1-.93.626l-.116.077c-1.274.842-2.527 1.67-3.111 3.701-.128.444-.018.923.091 1.366.328 1.277 1.258 2.66 1.988 3.477 0 .018.036.049.073.08.036.03.073.062.073.08.574.66.767.868 2.765 1.317-.547-.176-1.148-.442-1.525-.699-1.295-.87-1.952-1.95-2.061-3.547-.073-1.242.713-2.552 2.245-3.333 1.057-.532 1.366-1.364 1.694-2.358-.237 1.136-.492 1.843-1.586 2.464-1.295.727-2.223 2.166-2.132 3.142.11 1.188.965 2.552 1.932 3.368.48.401 1.285.644 1.986.79v-.046c-.205-.088-.526-.32-.784-.691-.17-.225-.286-.513-.406-.811a19.207 19.207 0 0 0-.066-.163c-.128-.337-.259-.691-.259-1.01 0-.763.094-1.704.66-2.343a13.8 13.8 0 0 1 .26-.29c.293-.32.435-.476.595-.944V7.278h.566v.096Zm0 .13V8.2l.014-.256c-.027 1.067.307 1.859.478 2.264l.019.044c.028.072.134.226.28.44.321.469.84 1.227 1.179 2.043.346.798.711 2.696.73 2.91.273 2.199.145 4.292-.53 6.048-.306.816-.962 1.556-1.457 1.903 1.309-.18 3.105-.823 4.175-1.69a5.947 5.947 0 0 0 2.189-4.612c0-1.774-.73-3.46-2.098-4.648-.784-.691-2.079-1.525-2.881-1.969-.802-.443-1.806-1.685-1.477-2.873l-.621-.302Zm0 1.769v2.713c.031.135.062.24.091.306.03.077.13.251.268.493.28.493.721 1.265 1.064 2.062.312.704.417 1.364.461 1.643l.013.078c.273 2.2.036 3.122-.547 5.108-.08.272-.196.532-.33.77.38-.452.665-.947.768-1.355.583-2.466.784-5.623-.019-8.036-.225-.675-.623-1.305-.975-1.86-.304-.482-.573-.908-.666-1.262a4.352 4.352 0 0 1-.128-.66Zm0 3.199v2.66a.757.757 0 0 0 .056.105l.108.18c.192.317.434.716.601 1.115.365.87.566 1.83.585 2.273.018.763-.09 1.966-.363 2.906-.203.68-.539 1.244-.882 1.58l.024-.016c.55-.519.997-1.38 1.148-2.095.364-1.615.638-3.317.42-4.329a3.437 3.437 0 0 1-.044-.24c-.058-.352-.16-.966-.413-1.622-.313-.808-.713-1.522-.97-1.982-.132-.236-.227-.405-.252-.484a1.59 1.59 0 0 1-.018-.051Zm0 3.119v2.519c.085.283.169.577.235.87.128.638.168 1.259.113 1.72-.015.15-.027.292-.04.43-.031.37-.06.707-.127 1.044a1.86 1.86 0 0 1-.181.514v.277c.409-.431.67-1.012.803-1.66.237-1.064.271-2.057.271-2.59.019-.46-.2-1.223-.4-1.915-.084-.293-.279-.591-.459-.866-.078-.12-.153-.235-.215-.343Zm0 5.62c.02-.16.031-.31.035-.438l.008-.2c.018-.482.039-1.012-.041-1.54l-.002-.014v2.192Zm-.566-4.1c-.121.52-.23.67-.517 1.068-.057.078-.12.166-.192.269a2.99 2.99 0 0 0-.568 2.216c.054.345.176.642.283.903l.01.022c.145.355.294.656.513.958l.009.011c.152.193.254.322.462.432v-5.88Z" clip-rule="evenodd"/></svg>