<svg xmlns="http://www.w3.org/2000/svg" fill="none" viewBox="0 0 24 24"><g clip-path="url(#a)"><path fill="#f2e4ff" d="M12 23.531c6.369 0 11.531-5.162 11.531-11.531S18.37.469 12 .469.469 5.63.469 12 5.63 23.531 12 23.531"/><path fill="url(#b)" d="M12.025 21.818v-1.455a8.363 8.363 0 0 0 0-16.726V2.182c5.41.014 9.793 4.403 9.793 9.818 0 5.414-4.382 9.804-9.793 9.817m0-5.092a4.727 4.727 0 0 0 0-9.452V5.819a6.181 6.181 0 0 1 0 12.361zm0-7.27a2.545 2.545 0 0 1 0 5.088zM0 12c0 6.627 5.372 12 12 12 6.627 0 12-5.373 12-12 0-6.628-5.373-12-12-12C5.372 0 0 5.372 0 12"/><path fill="url(#c)" d="M12 1.36c-5.98 0-10.828 4.826-10.828 10.78 0 5.955 4.848 10.782 10.828 10.782z"/></g><defs><linearGradient id="b" x1="12" x2="12" y1="24" y2="0" gradientUnits="userSpaceOnUse"><stop stop-color="#420c5d"/><stop offset="1" stop-color="#951ad1"/></linearGradient><linearGradient id="c" x1="6.586" x2="6.586" y1="22.922" y2="1.359" gradientUnits="userSpaceOnUse"><stop stop-color="#420c5d"/><stop offset="1" stop-color="#951ad1"/></linearGradient><clipPath id="a"><path fill="#fff" d="M0 0h24v24H0z"/></clipPath></defs></svg>