<svg xmlns="http://www.w3.org/2000/svg" fill="none" viewBox="0 0 24 24"><path fill="#62757E" fill-rule="evenodd" d="M3.8 7.6a.2.2 0 0 0-.2.2v9c0 .11.09.2.2.2h1a.23.23 0 0 0 .163-.073.46.46 0 0 0 .13-.255 6.802 6.802 0 0 1 13.414 0 .46.46 0 0 0 .13.255.23.23 0 0 0 .163.073h1a.2.2 0 0 0 .2-.2v-9a.2.2 0 0 0-.2-.2zM2 7.8A1.8 1.8 0 0 1 3.8 6h16a1.8 1.8 0 0 1 1.8 1.8v9a1.8 1.8 0 0 1-1.8 1.8h-1c-1.021 0-1.73-.816-1.871-1.664a5.202 5.202 0 0 0-10.258 0c-.141.848-.85 1.664-1.871 1.664h-1A1.8 1.8 0 0 1 2 16.8z" clip-rule="evenodd"/></svg>