<svg xmlns="http://www.w3.org/2000/svg" fill="none" viewBox="0 0 24 24"><path fill="#abcd03" d="m13.189 1.792-.657 2.536c.93-1.791 2.408-3.14 4.104-4.328-1.24 1.401-2.371 2.803-3.064 4.204 1.167-1.596 2.736-2.483 4.505-3.069-2.353 2.04-4.22 4.23-5.643 6.429l-1.13-.48c.2-1.755.882-3.554 1.885-5.292"/><path fill="#fffcdb" d="m10.17 6.619 2.151.868c0 .532-.044 2.156.298 2.634 3.58 4.484 2.977 13.471-.725 13.702-5.638 0-7.788-3.725-7.788-7.149 0-3.122 3.848-5.197 6.147-7.042.583-.497.482-1.594-.084-3.013"/><path fill="#7d4698" d="m12.322 7.455.775.385c-.072.497.037 1.597.547 1.88 2.262 1.366 4.396 2.856 5.235 4.346 2.99 5.25-2.098 10.111-6.493 9.65 2.39-1.72 3.082-5.25 2.189-9.1-.365-1.508-.93-2.873-1.934-4.417-.434-.757-.283-1.697-.32-2.744"/><path fill="#000" fill-rule="evenodd" d="m11.754 7.264-1.482-.595c.127.178.473.976.546 1.207.165.656.092 1.295-.054 1.579-.748 1.312-2.024 1.667-2.954 2.412-1.642 1.312-3.43 2.36-3.229 5.96.091 1.773 1.514 3.938 3.648 4.949.415.196.852.349 1.304.472-.519-.22-.96-.494-1.304-.88a1 1 0 0 0-.128-.142c-.766-.851-1.696-2.27-2.042-3.6-.128-.533-.238-.94-.092-1.49.62-2.165 1.97-3.016 3.338-3.92.31-.196.674-.374.966-.604.565-.408.875-1.65 1.185-2.66-.164.816-.347 2.288-1.076 2.838-.31.212-.62.426-.948.638-1.313.87-2.626 1.686-3.228 3.779-.127.443-.019.922.09 1.365.33 1.277 1.26 2.661 1.99 3.477 0 .036.145.124.145.16.574.66.767.865 2.76 1.313-.545-.176-1.145-.439-1.52-.694-1.295-.87-1.952-1.952-2.062-3.548-.072-1.242.714-2.552 2.246-3.332 1.057-.532 1.366-1.365 1.694-2.359-.237 1.136-.492 1.843-1.586 2.464-1.295.728-2.223 2.166-2.132 3.142.11 1.188.965 2.552 1.932 3.368.48.401 1.285.643 1.986.788v-.046c-.205-.088-.526-.32-.784-.69-.2-.265-.326-.618-.472-.973-.128-.337-.258-.691-.259-1.01 0-.763.095-1.704.66-2.342.482-.553.653-.648.855-1.24V7.278h.566v.096l1.24.165c-.474 1.525.93 2.59 1.386 2.839 1.022.55 2.006 1.117 2.79 1.808a6.82 6.82 0 0 1 2.317 5.11c0 1.933-.912 3.795-2.443 5.037C16.162 23.503 14.173 24 12.24 24c-1.203 0-2.28-.053-3.446-.425-2.663-.87-4.65-3.087-4.814-5.748-.146-2.076.327-3.654 1.987-5.304.857-.87 2.59-1.862 3.775-2.66.584-.39 1.204-1.49.019-3.566l.236-.177zm.56.955.013-.274c-.028 1.107.333 1.917.497 2.307.091.23.967 1.295 1.46 2.484.346.798.71 2.696.729 2.91.273 2.199.145 4.292-.53 6.048-.306.816-.963 1.555-1.459 1.902 1.31-.18 3.107-.822 4.177-1.69a5.95 5.95 0 0 0 2.189-4.61c0-1.774-.73-3.46-2.097-4.649-.784-.692-2.08-1.525-2.882-1.969-.802-.443-1.805-1.684-1.477-2.873l-.62-.302zm0 6.91a1 1 0 0 0 .055.108c.2.337.509.816.71 1.295.364.869.566 1.83.584 2.273.018.763-.09 1.967-.363 2.907-.203.678-.539 1.24-.881 1.577l.025-.019c.55-.52.996-1.376 1.146-2.09.365-1.615.639-3.318.42-4.329-.055-.23-.128-1.01-.456-1.862-.474-1.224-1.15-2.235-1.223-2.466l-.018-.055zm-.567 1.976c-.146.628-.27.72-.709 1.343a3 3 0 0 0-.567 2.216c.055.354.182.66.292.925.146.355.294.657.512.958.158.2.26.33.472.442zm.566 1.013c.085.28.17.572.236.861.128.639.167 1.26.112 1.722-.055.55-.076 1.011-.167 1.472q-.049.256-.18.511v.28c.407-.432.67-1.011.802-1.659a12.3 12.3 0 0 0 .272-2.59c.018-.46-.201-1.223-.402-1.915-.12-.42-.469-.854-.673-1.212zm0-6.14c.032.138.062.247.091.315.091.23.82 1.366 1.331 2.554.347.78.439 1.508.475 1.72.273 2.2.037 3.123-.547 5.11-.08.271-.197.53-.331.768.38-.452.666-.945.769-1.354.583-2.465.783-5.623-.019-8.036-.42-1.26-1.44-2.36-1.64-3.122a4 4 0 0 1-.129-.661zm0 9.219c.019-.155.032-.3.036-.424.018-.532.057-1.138-.034-1.741l-.002-.007z" clip-rule="evenodd"/></svg>