<svg xmlns="http://www.w3.org/2000/svg" fill="none" viewBox="0 0 24 24"><g clip-path="url(#a)"><path fill="#3058A6" d="M12 24c6.627 0 12-5.373 12-12S18.627 0 12 0 0 5.373 0 12s5.373 12 12 12"/><path fill="#fff" d="M12 18.11a6.11 6.11 0 1 1 0-12.22 6.11 6.11 0 0 1 0 12.222M12 5.5A6.507 6.507 0 0 0 5.5 12c0 3.584 2.916 6.5 6.5 6.5s6.5-2.916 6.5-6.5-2.916-6.5-6.5-6.5"/><path fill="#fff" fill-rule="evenodd" d="m14.289 14.325-.34 1.47-.08.355H11.62c-.752-.013-1.342-.213-1.73-.566.335.59 1.045.931 2.036.947h.008l1.875.001h.365l.082-.355.339-1.47-.265-.561zm-.59-6.3-.268-.557-.038.174L13.14 8.8h.39zm1.354 1.34-.337 1.43-.084.352h-2.033l-.516 2.357c-.01.067-.017.136-.017.174q.001.05.007.064.059.023.121.021h.222l.49-2.233h2.032l.083-.354.338-1.429-.263-.564zm-5.043 1.782H8.594l.488.383h.845z" clip-rule="evenodd"/><path fill="#fff" fill-rule="evenodd" d="M12.239 14.222h-.052c-.394-.01-.58-.216-.58-.544 0-.079.013-.183.026-.26l.598-2.73h2.038l.338-1.429h-2.039l.377-1.715h-1.663l-.377 1.715H9.1l-.324 1.43h1.804l-.702 3.209a2 2 0 0 0-.052.428c0 .916.723 1.346 1.801 1.364l1.875.001.34-1.469z" clip-rule="evenodd"/></g><defs><clipPath id="a"><path fill="#fff" d="M0 0h24v24H0z"/></clipPath></defs></svg>