<svg xmlns="http://www.w3.org/2000/svg" fill="none" viewBox="0 0 24 24"><path fill="#62757E" fill-rule="evenodd" d="m4.266 11.14.705-2.348c.039-.136.408-1.361 1.682-1.361.428 0 .778-.34.778-.769.01-.36.136-1.176 1.166-1.176s1.167.817 1.167 1.167c0 .428.35.778.778.778h2.916c.428 0 .778-.34.778-.769.01-.36.136-1.176 1.167-1.176 1.03 0 1.166.817 1.166 1.167 0 .428.35.778.778.778 1.273 0 1.633 1.223 1.682 1.39l.694 2.314a4.65 4.65 0 0 0-1.89-.399 4.65 4.65 0 0 0-3.411 1.483A2.73 2.73 0 0 0 12 10.736a2.73 2.73 0 0 0-2.422 1.483 4.65 4.65 0 0 0-3.411-1.483 4.6 4.6 0 0 0-1.901.404m6.54 4.763a4.668 4.668 0 1 1-8.822-2.574 1 1 0 0 1 .022-.094l1.458-4.861c.185-.74.943-2.11 2.489-2.431.253-.972 1.03-2.012 2.625-2.012s2.343.991 2.615 1.944h1.585c.272-.953 1.05-1.944 2.615-1.944s2.382 1.04 2.625 2.012c1.556.32 2.304 1.692 2.499 2.47l1.447 4.817a4.668 4.668 0 1 1-8.77 2.674 2.7 2.7 0 0 1-2.387 0m-7.75-.5a3.12 3.12 0 0 1 3.11-3.111 3.12 3.12 0 0 1 3.112 3.11 3.12 3.12 0 0 1-3.111 3.112 3.12 3.12 0 0 1-3.111-3.111m14.777-3.111a3.12 3.12 0 0 0-3.11 3.11 3.12 3.12 0 0 0 3.11 3.112 3.12 3.12 0 0 0 3.111-3.111 3.12 3.12 0 0 0-3.11-3.111m-7 1.166A1.17 1.17 0 0 1 12 12.292a1.17 1.17 0 0 1 1.167 1.166A1.17 1.17 0 0 1 12 14.625a1.17 1.17 0 0 1-1.167-1.167" clip-rule="evenodd"/></svg>