<svg xmlns="http://www.w3.org/2000/svg" fill="none" viewBox="0 0 24 24"><path fill="#62757E" fill-rule="evenodd" d="M10.727 1.888a1.8 1.8 0 0 1 2.546 0l8.839 8.84a1.8 1.8 0 0 1 0 2.545l-8.84 8.839a1.8 1.8 0 0 1-2.545 0l-8.839-8.84a1.8 1.8 0 0 1 0-2.545zm1.415 1.132a.2.2 0 0 0-.283 0l-8.84 8.839a.2.2 0 0 0 0 .283l8.84 8.838a.2.2 0 0 0 .283 0l8.838-8.838a.2.2 0 0 0 0-.283zm.755 4.78a.8.8 0 0 1 1.131 0l2.787 2.787a.8.8 0 0 1 0 1.131l-2.787 2.787a.8.8 0 0 1-1.131-1.131l1.387-1.388h-2.57a2.2 2.2 0 0 0-2.2 2.2V15.3a.8.8 0 0 1-1.6 0v-1.113a3.8 3.8 0 0 1 3.8-3.8h2.638l-1.455-1.455a.8.8 0 0 1 0-1.131" clip-rule="evenodd"/></svg>