<svg xmlns="http://www.w3.org/2000/svg" fill="none" viewBox="0 0 24 24"><path fill="#62757E" fill-rule="evenodd" d="M12 3.56c-.517 0-1.032.009-1.545.025-.674.022-1.22.588-1.22 1.302v.031a46.876 46.876 0 0 1 5.531 0v-.03c0-.715-.547-1.281-1.22-1.303A48.316 48.316 0 0 0 12 3.56Zm4.326 1.477v-.15c0-1.516-1.175-2.812-2.73-2.862a49.908 49.908 0 0 0-3.191 0c-1.556.05-2.731 1.346-2.731 2.862v.15a46.24 46.24 0 0 0-3.609.48.78.78 0 0 0 .267 1.537l.12-.021.945 12.282A2.908 2.908 0 0 0 8.297 22h7.406c1.52 0 2.783-1.17 2.9-2.685l.944-12.282.121.02a.78.78 0 1 0 .267-1.537 46.186 46.186 0 0 0-3.609-.479Zm1.675 1.76a44.768 44.768 0 0 0-6.001-.4 45.241 45.241 0 0 0-6 .4l.953 12.398c.054.703.64 1.245 1.344 1.245h7.406c.705 0 1.29-.542 1.344-1.245l.954-12.398ZM9.379 8.384a.78.78 0 0 1 .81.75l.326 8.51a.78.78 0 1 1-1.559.06l-.327-8.51a.78.78 0 0 1 .75-.81Zm5.242 0a.78.78 0 0 1 .75.81l-.327 8.51a.78.78 0 1 1-1.56-.06l.328-8.51a.78.78 0 0 1 .81-.75Z" clip-rule="evenodd"/></svg>