<svg xmlns="http://www.w3.org/2000/svg" fill="none" viewBox="0 0 24 24"><path fill="currentColor" fill-rule="evenodd" d="M10.52 3.88a46.327 46.327 0 0 1 2.96 0c.683.023 1.234.596 1.234 1.315v.101a44.78 44.78 0 0 0-5.428 0v-.101c0-.72.55-1.292 1.233-1.314Zm5.551 1.315V5.4a44.157 44.157 0 0 1 3.509.463.679.679 0 1 1-.232 1.337l-.189-.032-.91 11.826a2.714 2.714 0 0 1-2.706 2.506H8.456a2.714 2.714 0 0 1-2.706-2.506L4.84 7.168l-.189.032a.679.679 0 0 1-.231-1.337A43.97 43.97 0 0 1 7.928 5.4v-.205c0-1.416 1.098-2.624 2.548-2.67a47.693 47.693 0 0 1 3.048 0c1.45.046 2.547 1.254 2.547 2.67Zm-.73 1.505c.83.064 1.656.152 2.473.263l-.918 11.927a1.357 1.357 0 0 1-1.353 1.253H8.456a1.358 1.358 0 0 1-1.353-1.253L6.186 6.963A42.886 42.886 0 0 1 12 6.571c1.124 0 2.238.044 3.34.129Zm-4.643 3.457a17.316 17.316 0 0 1 2.604 0 .736.736 0 0 1 .682.682l.016.235a.75.75 0 1 0 1.497-.092c-.005-.086-.01-.171-.017-.256a2.237 2.237 0 0 0-2.065-2.065 18.812 18.812 0 0 0-2.83 0 2.236 2.236 0 0 0-2.023 1.772.75.75 0 0 0-.988 1.125l1.113 1.113a.75.75 0 0 0 1.06 0l1.114-1.113a.75.75 0 0 0-.518-1.28.74.74 0 0 1 .355-.121Zm4.615 3.161a.75.75 0 0 0-1.06 0l-1.114 1.114a.75.75 0 0 0 .518 1.28.74.74 0 0 1-.355.12 17.32 17.32 0 0 1-2.604 0 .736.736 0 0 1-.682-.681 16.921 16.921 0 0 1-.016-.235.75.75 0 0 0-1.497.092c.005.085.01.17.017.256a2.237 2.237 0 0 0 2.065 2.064 18.833 18.833 0 0 0 2.83 0 2.236 2.236 0 0 0 2.024-1.772.75.75 0 0 0 .988-1.124l-1.114-1.114Z" clip-rule="evenodd"/></svg>