<svg xmlns="http://www.w3.org/2000/svg" fill="none" viewBox="0 0 24 24"><path fill="#62757E" fill-rule="evenodd" d="M8 3a1 1 0 0 1 1-1h6a1 1 0 0 1 1 1v.578h4a.8.8 0 0 1 0 1.6h-.65v14.196a2.6 2.6 0 0 1-2.6 2.6h-9.5a2.6 2.6 0 0 1-2.6-2.6V5.178H4a.8.8 0 1 1 0-1.6h4zM6.25 19.374V5.202h11.5v14.172a1 1 0 0 1-1 1h-9.5a1 1 0 0 1-1-1m6.752-10.802A3.87 3.87 0 0 0 8.26 11.31a.8.8 0 0 0 1.545.414 2.272 2.272 0 0 1 3.605-1.195.8.8 0 0 0 .088 1.596h1.86a.8.8 0 0 0 .8-.8v-1.86a.8.8 0 0 0-1.599-.06 3.86 3.86 0 0 0-1.557-.833m2.738 5.695a.8.8 0 0 0-1.546-.414 2.272 2.272 0 0 1-3.604 1.194.8.8 0 0 0-.088-1.595h-1.86a.8.8 0 0 0-.8.8v1.86a.8.8 0 0 0 1.598.06 3.872 3.872 0 0 0 6.3-1.904" clip-rule="evenodd"/></svg>