<svg xmlns="http://www.w3.org/2000/svg" fill="none" viewBox="0 0 24 24"><path fill="currentColor" fill-rule="evenodd" d="M12 3.857c-.495 0-.989.008-1.48.024-.683.022-1.234.595-1.234 1.314v.101a44.777 44.777 0 0 1 5.428 0v-.101c0-.72-.55-1.292-1.233-1.314A46.333 46.333 0 0 0 12 3.857ZM16.072 5.4v-.205c0-1.416-1.097-2.624-2.548-2.67a47.699 47.699 0 0 0-3.048 0c-1.45.046-2.547 1.254-2.547 2.67V5.4a44.163 44.163 0 0 0-3.509.463.679.679 0 1 0 .232 1.337l.189-.032.91 11.826A2.714 2.714 0 0 0 8.456 21.5h7.087a2.714 2.714 0 0 0 2.706-2.506l.91-11.826.189.032a.678.678 0 1 0 .231-1.337 43.963 43.963 0 0 0-3.508-.463Zm1.742 1.563A42.886 42.886 0 0 0 12 6.571a43.354 43.354 0 0 0-5.814.392l.918 11.927a1.357 1.357 0 0 0 1.353 1.253h7.087c.709 0 1.298-.546 1.353-1.253l.917-11.927Zm-8.32 1.645a.679.679 0 0 1 .705.652l.313 8.143a.679.679 0 1 1-1.356.052l-.313-8.143a.679.679 0 0 1 .652-.704Zm5.012 0a.68.68 0 0 1 .652.704l-.314 8.143a.679.679 0 1 1-1.356-.052l.314-8.143a.679.679 0 0 1 .704-.652Z" clip-rule="evenodd"/></svg>