<svg xmlns="http://www.w3.org/2000/svg" fill="none" viewBox="0 0 24 24"><g clip-path="url(#a)"><path fill="#30C0F2" d="M12 24c6.627 0 12-5.373 12-12S18.627 0 12 0 0 5.373 0 12s5.373 12 12 12Z"/><path fill="#fff" d="M8.18 5.5h7.653s.203 1.01 1.287 1.078c0 0 3.59 8.352-5.147 11.922 0 0-8.06-2.56-5.215-11.855 0 0 1.219-.067 1.422-1.145Zm7.247.665H8.59l-.009.146A.986.986 0 0 1 8.13 7a1.229 1.229 0 0 1-.475.176l-.12.011-.034.116c-.63 2.152-.651 4.01-.155 5.597a7.02 7.02 0 0 0 2.114 3.217 8.11 8.11 0 0 0 1.686 1.14 7.052 7.052 0 0 0 .776.334l.064.02.062-.026c2.409-1.03 3.866-2.586 4.519-4.524.54-1.6.491-3.302.089-4.914a9.221 9.221 0 0 0-.307-.984l-.042-.103-.11-.007c-.317-.021-.517-.15-.642-.356a.89.89 0 0 1-.12-.364l-.008-.168Zm-6.529.354c4.139 0 6.208.002 6.208.002.028.122.074.243.143.358.166.276.433.462.807.516.099.275.183.555.254.838.387 1.552.433 3.19-.081 4.715-.614 1.825-1.98 3.294-4.258 4.284a6.636 6.636 0 0 1-.663-.292 7.759 7.759 0 0 1-1.612-1.088 6.678 6.678 0 0 1-2.01-3.057c-.466-1.492-.454-3.245.127-5.287.18-.041.353-.113.51-.21a1.32 1.32 0 0 0 .575-.779Zm4.784 3.629h-.197c.02-.396-.068-1.256-1.137-1.495a1.698 1.698 0 0 0-.939.042c-.417.149-.915.521-.934 1.453h-.145a.559.559 0 0 0-.559.555v2.324a.56.56 0 0 0 .559.556h3.353a.559.559 0 0 0 .559-.556v-2.324a.559.559 0 0 0-.56-.555Zm-1.303 2.627h-.745l.197-.98a.438.438 0 0 1 .175-.839.437.437 0 1 1 .176.84l.197.979Zm-1.422-2.627c.018-.305.146-1.025.948-1.078 0 0 1.057-.058 1.038 1.078h-1.986Z"/></g><defs><clipPath id="a"><path fill="#fff" d="M0 0h24v24H0z"/></clipPath></defs></svg>