<svg xmlns="http://www.w3.org/2000/svg" fill="none" viewBox="0 0 24 24"><g clip-path="url(#a)"><path fill="#30C0F2" d="M12 24c6.627 0 12-5.373 12-12S18.627 0 12 0 0 5.373 0 12s5.373 12 12 12Z"/><path fill="#fff" d="M8.18 5.5h7.653s.203 1.01 1.287 1.078c0 0 3.59 8.352-5.147 11.922 0 0-8.06-2.56-5.215-11.855 0 0 1.22-.067 1.422-1.145Zm7.248.665H8.59l-.01.146A.986.986 0 0 1 8.13 7a1.229 1.229 0 0 1-.475.176l-.12.011-.034.116c-.63 2.152-.65 4.01-.155 5.597a7.02 7.02 0 0 0 2.114 3.217c.512.45 1.079.832 1.687 1.14a7.068 7.068 0 0 0 .776.334l.063.02.062-.026c2.41-1.03 3.866-2.586 4.519-4.524.54-1.6.491-3.302.09-4.914a9.275 9.275 0 0 0-.308-.984l-.041-.103-.111-.007c-.316-.021-.517-.15-.641-.356a.888.888 0 0 1-.12-.364l-.008-.168Zm-6.53.354c4.139 0 6.208.002 6.208.002.028.122.075.243.143.358.166.276.433.462.808.516.098.275.183.555.253.838.388 1.552.433 3.19-.081 4.715-.614 1.825-1.98 3.294-4.258 4.284a6.638 6.638 0 0 1-.662-.292 7.76 7.76 0 0 1-1.613-1.088 6.678 6.678 0 0 1-2.01-3.057c-.466-1.492-.454-3.245.127-5.287.18-.041.353-.113.51-.21a1.32 1.32 0 0 0 .575-.779Zm4.784 3.629h-.197c.02-.396-.068-1.256-1.137-1.495a1.698 1.698 0 0 0-.939.042c-.417.149-.915.521-.934 1.453h-.145a.559.559 0 0 0-.559.555v2.324a.56.56 0 0 0 .56.556h3.352a.558.558 0 0 0 .559-.556v-2.324a.56.56 0 0 0-.559-.555Zm-1.303 2.627h-.745l.197-.98a.437.437 0 0 1 .176-.839.438.438 0 1 1 .175.84l.197.979Zm-1.422-2.627c.018-.305.147-1.025.948-1.078 0 0 1.057-.058 1.038 1.078h-1.986Z"/></g><defs><clipPath id="a"><path fill="#fff" d="M0 0h24v24H0z"/></clipPath></defs></svg>