<svg xmlns="http://www.w3.org/2000/svg" fill="none" viewBox="0 0 24 24"><path fill="#34E0A1" d="M12 24c6.627 0 12-5.373 12-12S18.627 0 12 0 0 5.373 0 12s5.373 12 12 12"/><path fill="#000" d="m19.412 9.659 1.448-1.575h-3.21A9.97 9.97 0 0 0 12 6.346c-2.097 0-4.033.64-5.638 1.738H3.143l1.448 1.575a4.426 4.426 0 1 0 5.99 6.518l1.42 1.544 1.418-1.543a4.428 4.428 0 1 0 5.993-6.519M7.574 15.926a2.995 2.995 0 1 1 0-5.99 2.995 2.995 0 0 1 0 5.99m4.428-3.083c0-1.97-1.434-3.663-3.326-4.385A8.6 8.6 0 0 1 12 7.793c1.179 0 2.302.237 3.325.665-1.89.724-3.323 2.414-3.323 4.385m4.425 3.083a2.995 2.995 0 1 1 0-5.99 2.995 2.995 0 0 1 0 5.99m0-4.567a1.57 1.57 0 1 0 0 3.139 1.57 1.57 0 0 0 0-3.139m-7.283 1.572a1.57 1.57 0 1 1-3.139 0 1.57 1.57 0 0 1 3.14 0"/></svg>