<svg xmlns="http://www.w3.org/2000/svg" fill="none" viewBox="0 0 24 24"><g clip-path="url(#a)"><path fill="#00843D" d="M12 24c6.627 0 12-5.373 12-12S18.627 0 12 0 0 5.373 0 12s5.373 12 12 12"/><path fill="#fff" d="M12.001 6.336c.21 0 .418.055.6.16l3.828 2.21a1.2 1.2 0 0 1 .6 1.04v4.51a1.2 1.2 0 0 1-.6 1.039l-3.828 2.21a1.2 1.2 0 0 1-1.2 0l-3.83-2.21a1.2 1.2 0 0 1-.6-1.04V9.746c0-.429.229-.825.6-1.04l3.828-2.21c.183-.105.39-.16.6-.16zm0-.835c-.358 0-.708.094-1.018.273l-3.829 2.21a2.04 2.04 0 0 0-1.017 1.762v4.509a2.04 2.04 0 0 0 1.017 1.762l3.828 2.21c.63.364 1.406.364 2.035 0l3.829-2.21a2.04 2.04 0 0 0 1.017-1.762v-4.51a2.04 2.04 0 0 0-1.017-1.762l-3.828-2.21A2.04 2.04 0 0 0 12 5.5z"/><path fill="#fff" d="M11.531 12.709a.25.25 0 0 1-.217-.125l-.46-.798a.25.25 0 0 1 0-.25l.46-.799a.25.25 0 0 1 .217-.125h.94a.25.25 0 0 1 .217.125l.46.798a.25.25 0 0 1 0 .25l-.46.799a.25.25 0 0 1-.217.125zm-1.256-1.257a.25.25 0 0 0 .217-.125l.46-.799a.25.25 0 0 0 0-.25l-.573-.995-1.122.612a.25.25 0 0 0-.13.225q.015.674.156 1.332zm3.452 0a.25.25 0 0 1-.217-.125l-.46-.799a.25.25 0 0 1 0-.25l.573-.995 1.121.612a.25.25 0 0 1 .13.225q-.013.673-.155 1.332zm-1.606-2.99a.25.25 0 0 0-.24 0l-1.136.62.57.988a.25.25 0 0 0 .216.125h.94a.25.25 0 0 0 .217-.125l.57-.987zM9.387 11.87A7 7 0 0 0 10.4 14l.553-.958a.25.25 0 0 0 0-.25l-.46-.799a.25.25 0 0 0-.217-.125zm5.228 0A7 7 0 0 1 13.602 14l-.553-.958a.25.25 0 0 1 0-.25l.461-.799a.25.25 0 0 1 .217-.125zm-3.084 1.257a.25.25 0 0 0-.217.125l-.641 1.112c.345.43.74.817 1.175 1.154a.25.25 0 0 0 .307 0c.435-.337.83-.725 1.175-1.154l-.642-1.112a.25.25 0 0 0-.216-.125z"/></g><defs><clipPath id="a"><path fill="#fff" d="M0 0h24v24H0z"/></clipPath></defs></svg>