<svg xmlns="http://www.w3.org/2000/svg" fill="none" viewBox="0 0 24 24"><g clip-path="url(#a)"><path fill="#002868" d="M12 22C6.5 22 2 17.5 2 12S6.5 2 12 2s10 4.5 10 10-4.5 10-10 10"/><path fill="#fff" d="M17.04 18H6.96a.963.963 0 0 1-.96-.96V6.96c0-.528.432-.96.96-.96h10.08c.528 0 .96.432.96.96v10.08c0 .528-.432.96-.96.96"/><path fill="#002868" d="M8.342 16.792c-.032 0-.058-.029-.058-.06v-1.613c0-.031-.025-.06-.057-.06h-.569c-.032 0-.06-.026-.06-.057v-.312c0-.032.028-.06.06-.06H9.41c.032 0 .06.028.06.06v.312c0 .031-.028.057-.06.057h-.566a.063.063 0 0 0-.06.06v1.613c0 .031-.026.06-.058.06zm2.878-2.102c0-.032.025-.06.056-.06h.382c.032 0 .06.028.06.06v1.1c0 .652-.368 1.03-.953 1.03-.583 0-.948-.378-.948-1.03v-1.1c0-.032.025-.06.057-.06h.382c.031 0 .06.028.06.06v1.116c0 .321.165.55.452.55.286 0 .451-.229.451-.55zm2.251.646c-.05 0-.067-.02-.086-.058-.067-.156-.213-.254-.435-.254-.2 0-.37.07-.37.204 0 .146.157.206.5.248.521.06.82.22.82.632 0 .465-.407.71-.928.71-.452 0-.84-.22-.9-.68-.006-.045.016-.061.06-.061h.35q.066 0 .083.054c.048.153.21.27.445.27.207 0 .388-.076.388-.238 0-.194-.19-.229-.572-.277-.439-.057-.744-.184-.744-.588s.347-.694.89-.694c.49 0 .83.264.9.659.01.044-.003.073-.05.073zm.862 1.456c-.032 0-.058-.029-.058-.06V14.69a.06.06 0 0 1 .058-.06h.864c.643 0 1.142.442 1.142 1.087 0 .636-.493 1.075-1.142 1.075zm.864-.43c.347 0 .617-.273.617-.652 0-.378-.27-.652-.62-.652h-.359c-.032 0-.057.029-.057.06v1.187c0 .031.025.057.057.057zm2.483-2.922H6.32a.16.16 0 0 1-.16-.16V6.96c0-.44.36-.8.8-.8h10.08c.44 0 .8.36.8.8v6.32a.16.16 0 0 1-.16.16"/><path fill="#fff" d="M12.59 12.142h-1.04a.12.12 0 0 1-.12-.12v-4.4a.12.12 0 0 1 .12-.12h1.04a.12.12 0 0 1 .12.12v4.4a.12.12 0 0 1-.12.12"/><path fill="#fff" d="M14.36 8.782H9.64a.12.12 0 0 1-.12-.12v-1.04a.12.12 0 0 1 .12-.12h4.72a.12.12 0 0 1 .12.12v1.04a.12.12 0 0 1-.12.12"/></g><defs><clipPath id="a"><path fill="#fff" d="M2 2h20v20H2z"/></clipPath></defs></svg>