<svg xmlns="http://www.w3.org/2000/svg" fill="none" viewBox="0 0 24 24"><path fill="#5E464D" d="M12.1 22c5.46 0 9.885-4.477 9.885-10S17.56 2 12.101 2 2.216 6.477 2.216 12s4.426 10 9.885 10"/><path fill="#fff" d="M8.992 20.867c.405.138 1.762.58 1.82.148.032-.237-.685-.48-1.655-.994a15.6 15.6 0 0 1-3.745-2.766 8.6 8.6 0 0 1-2.577-5.978c-.082-3.026 1.1-5.471 3.046-7.05a9.97 9.97 0 0 0-3.877 7.652c-.058 2.188.554 4.031 1.703 5.71a6.5 6.5 0 0 0 1.24 1.221c1.102.834 2.713 1.604 4.045 2.056"/><path fill="#fff" d="M22.121 9.708c-.612-2.882-2.518-4.9-5.066-6.326C19 4.77 21.746 7.72 20.129 10.322c-1.37 2.084-4.704 1.676-6.525.685C11.438 9.832 8.725 7.19 11.4 4.604c1.732-1.672 7.245.203 6.275 2.702-.566 1.454-2.77 1.131-3.76.42-.73-.524-1.345-1.426-1.02-2.357.105-.299.09-.762-.332-.421-.314.254-.473.673-.528 1.063-.46 3.26 5.346 5.786 7.068 2.633.895-1.637-.554-4.014-2.378-4.987-1.37-.735-2.798-1.25-4.546-1.125-2.796.195-5.143 1.948-5.437 4.805-.293 2.839 1.605 5.394 3.84 6.923 2.35 1.605 5.508 2.664 8.399 1.706 2.59-.858 3.66-3.832 3.14-6.259"/><path fill="#3FE0C5" d="M18.475 7.5c.278-1.868-1.41-3.15-2.97-3.733-1.839-.685-4.268-.386-5.607 1.137-.98 1.118-.916 2.741-.41 4.055.763 1.985 2.487 3.419 4.495 4.039 1.425.44 3.15.632 4.595.167 2.108-.678 2.794-2.876 2.359-4.89a5.8 5.8 0 0 0-.427-1.261c-.267-.56-1.077-1.691.042-.313q.177.232.325.481c.232.38.416.789.547 1.215.613 1.88.132 4.073-1.566 5.208-1.303.868-2.96.972-4.472.755-2.026-.294-3.936-1.273-5.264-2.849-1.212-1.436-2.04-3.499-1.54-5.384.364-1.38 1.484-2.41 2.826-2.84 1.696-.549 3.563-.293 5.09.599.766.445 1.47 1.062 1.856 1.87.177.365.272.764.279 1.169a2.4 2.4 0 0 1-.038.49c-.011.058-.135.223-.118.087"/></svg>