<svg xmlns="http://www.w3.org/2000/svg" fill="none" viewBox="0 0 24 24"><g clip-path="url(#a)"><path fill="#EF0027" d="M12 24c6.627 0 12-5.373 12-12S18.627 0 12 0 0 5.373 0 12s5.373 12 12 12Z"/><path fill="#fff" d="M15.634 7.307 5.818 5.5l5.166 13 7.198-8.77-2.548-2.423Zm-.158.795 1.502 1.428-4.107.744 2.605-2.172Zm-3.497 2.023L7.65 6.535l7.075 1.301-2.746 2.289Zm-.308.635-.706 5.836-3.806-9.58 4.512 3.743v.001Zm.653.31 4.548-.824-5.217 6.356.669-5.533Z"/></g><defs><clipPath id="a"><path fill="#fff" d="M0 0h24v24H0z"/></clipPath></defs></svg>