<svg xmlns="http://www.w3.org/2000/svg" fill="none" viewBox="0 0 24 24"><path fill="#62757E" fill-rule="evenodd" d="M3 7.398a3.885 3.885 0 0 0 3.886 3.886A3.884 3.884 0 0 0 10.65 8.37l.04-.153h7.446a.82.82 0 0 0 .819-.818.82.82 0 0 0-.819-.818h-7.445l-.041-.154a3.884 3.884 0 0 0-3.764-2.915A3.885 3.885 0 0 0 3 7.398m1.636 0a2.257 2.257 0 0 1 2.25-2.25 2.257 2.257 0 0 1 2.25 2.25 2.257 2.257 0 0 1-2.25 2.25 2.257 2.257 0 0 1-2.25-2.25m8.714 10.176a3.884 3.884 0 0 0 3.764 2.915A3.885 3.885 0 0 0 21 16.602a3.885 3.885 0 0 0-3.886-3.886 3.884 3.884 0 0 0-3.764 2.915l-.04.153H5.863a.82.82 0 0 0-.819.818c0 .45.369.818.819.818h7.445zm1.514-.972a2.257 2.257 0 0 1 2.25-2.25 2.257 2.257 0 0 1 2.25 2.25 2.257 2.257 0 0 1-2.25 2.25 2.257 2.257 0 0 1-2.25-2.25" clip-rule="evenodd"/></svg>