<svg xmlns="http://www.w3.org/2000/svg" fill="none" viewBox="0 0 24 24"><path fill="#62757E" fill-rule="evenodd" d="M13.82 19.333H3.834a.834.834 0 0 1 0-1.666h9.988A2.49 2.49 0 0 1 16.167 16c1.085 0 2 .698 2.346 1.667h1.654a.834.834 0 0 1 0 1.666h-1.654A2.5 2.5 0 0 1 16.167 21c-1.085 0-2.001-.7-2.346-1.667M17 18.5a.834.834 0 1 0-1.668.002A.834.834 0 0 0 17 18.5M5.487 12.833H3.833a.834.834 0 0 1 0-1.666h1.654A2.5 2.5 0 0 1 7.833 9.5c1.085 0 2.001.7 2.347 1.667h9.987a.834.834 0 0 1 0 1.666H10.18A2.5 2.5 0 0 1 7.833 14.5c-1.085 0-2-.698-2.346-1.667M8.667 12a.834.834 0 1 0-1.669.002A.834.834 0 0 0 8.667 12m.986-5.667h-5.82a.834.834 0 0 1 0-1.666h5.82A2.495 2.495 0 0 1 12 3c1.085 0 2.002.698 2.347 1.667h5.82a.834.834 0 0 1 0 1.666h-5.82A2.5 2.5 0 0 1 12 8c-1.085 0-2.002-.7-2.347-1.667m3.18-.833A.835.835 0 0 0 12 4.667a.835.835 0 0 0-.833.833.834.834 0 0 0 1.666 0" clip-rule="evenodd"/></svg>