<svg xmlns="http://www.w3.org/2000/svg" fill="none" viewBox="0 0 24 24"><path fill="#62757E" fill-rule="evenodd" d="M19.944 21.333H4.056A2.057 2.057 0 0 1 2 19.278V5.056C2 3.922 2.922 3 4.056 3h15.888C21.078 3 22 3.922 22 5.056v14.221a2.057 2.057 0 0 1-2.056 2.056Zm.39-16.277a.396.396 0 0 0-.39-.39H4.056a.396.396 0 0 0-.39.39v14.221c0 .211.179.39.39.39h15.888c.211 0 .39-.179.39-.39V5.056Zm-1.079 11.867-1.666 1.666a.831.831 0 0 1-1.178 0 .833.833 0 0 1 0-1.178l1.422-1.423V6.333a.834.834 0 0 1 1.667 0v10a.841.841 0 0 1-.245.59ZM10.333 18A5.84 5.84 0 0 1 4.5 12.167a5.84 5.84 0 0 1 5.832-5.834 5.84 5.84 0 0 1 5.834 5.834A5.84 5.84 0 0 1 10.332 18Zm0-10a4.171 4.171 0 0 0-4.166 4.167 4.171 4.171 0 0 0 4.165 4.166 4.171 4.171 0 0 0 4.167-4.166A4.171 4.171 0 0 0 10.332 8Zm0 5a.833.833 0 1 1-.001-1.665.833.833 0 0 1 .001 1.665ZM4.5 5.5h1.667v1.667H4.5V5.5Z" clip-rule="evenodd"/></svg>