<svg xmlns="http://www.w3.org/2000/svg" fill="none" viewBox="0 0 24 24"><path fill="#62757E" fill-rule="evenodd" d="M19.944 21.333H4.056A2.057 2.057 0 0 1 2 19.278V5.056C2 3.922 2.922 3 4.056 3h15.888C21.078 3 22 3.922 22 5.056v14.221a2.057 2.057 0 0 1-2.056 2.056m.39-16.277a.396.396 0 0 0-.39-.39H4.056a.396.396 0 0 0-.39.39v14.221c0 .211.179.39.39.39h15.888c.211 0 .39-.179.39-.39zm-1.079 11.867-1.666 1.666a.83.83 0 0 1-1.178 0 .833.833 0 0 1 0-1.178l1.422-1.423V6.333a.834.834 0 0 1 1.667 0v10a.84.84 0 0 1-.245.59M10.333 18A5.84 5.84 0 0 1 4.5 12.167a5.84 5.84 0 0 1 5.833-5.834 5.84 5.84 0 0 1 5.833 5.834A5.84 5.84 0 0 1 10.332 18m0-10a4.17 4.17 0 0 0-4.166 4.167 4.17 4.17 0 0 0 4.166 4.166 4.17 4.17 0 0 0 4.166-4.166A4.17 4.17 0 0 0 10.332 8m0 5a.833.833 0 1 1-.001-1.665.833.833 0 0 1 .001 1.665M4.5 5.5h1.667v1.667H4.5z" clip-rule="evenodd"/></svg>