<svg xmlns="http://www.w3.org/2000/svg" fill="none" viewBox="0 0 24 24"><g clip-path="url(#a)"><path fill="url(#b)" d="M18.733 24H5.267A5.27 5.27 0 0 1 0 18.733V5.267A5.27 5.27 0 0 1 5.267 0h13.466A5.27 5.27 0 0 1 24 5.267v13.466A5.27 5.27 0 0 1 18.733 24"/><path fill="#fff" d="M9.29 20.916c-.025-.006-.058-.02-.085-.026-2.479-.697-3.642-3.452-2.972-5.688.355-1.177 1.118-2.045 2.111-2.722.67-.454 1.361-.875 2.032-1.328.953-.651 1.677-1.5 2.038-2.617.44-1.368.296-2.65-.684-3.742-1.026-1.15-2.354-1.597-3.873-1.4-1.946.25-3.406 1.275-4.464 2.906-.046.066-.073.138-.112.21.44-.282.894-.466 1.4-.525 1.026-.125 2.013.552 2.203 1.538.151.756-.046 1.453-.5 2.052-.48.637-1.012 1.242-1.532 1.854-1.203 1.4-1.827 2.992-1.564 4.86.217 1.57 1.019 2.794 2.32 3.675 1.105.743 2.368.96 3.683.953m3.294-10.1c.71-.006 1.407.132 2.09.33.98.282 1.895.703 2.756 1.235.815.507 1.69.651 2.624.493.184-.032.361-.091.532-.157.06-.027.132-.119.132-.184a5 5 0 0 0-.007-.678 4.3 4.3 0 0 0-.743-2.097c-.526-.77-1.262-1.25-2.13-1.545-.145-.053-.204-.125-.23-.263a4.4 4.4 0 0 0-.165-.579c-.131-.355-.309-.69-.611-.967-.053.066-.106.119-.145.178-.414.592-.579 1.269-.579 1.98 0 .203-.059.354-.223.46-.454.295-.888.624-1.368.88-.618.342-1.282.619-1.933.914"/><path fill="#fff" d="M15.057 19.443a5.5 5.5 0 0 0 .316-1.86c-.007-.822-.151-1.618-.566-2.328-.94-1.605-2.347-2.44-4.221-2.427-.927.007-1.75.323-2.426.98a3.3 3.3 0 0 0-.776 1.17c1.762-1.86 4.622-1.301 5.714.375.664 1.02.828 2.111.434 3.262-.395 1.157-1.25 1.874-2.374 2.314 2.098-.006 4.182-.033 6.319-.23-.513-1.039-1.44-1.183-2.42-1.256"/><path fill="#fff" d="M20.804 15.077c-.02-.381-.21-.637-.493-.828-.349-.23-.756-.296-1.164-.329-.743-.066-1.453-.243-2.11-.605-.56-.309-1.099-.664-1.67-.947-.908-.44-1.875-.657-2.874-.75a5 5 0 0 0-2.012.204c-.079.027-.151.066-.224.1a.6.6 0 0 0 .23.032 6 6 0 0 1 2.25.362c1.498.572 2.59 1.61 3.36 2.991.072.132.164.23.302.244.348.033.703.079 1.058.059.454-.026.855-.23 1.263-.421.48-.223.98-.335 1.512-.25.171.04.355.086.572.138"/><path fill="#fff" d="M9.29 20.916c-1.314.007-2.577-.21-3.682-.953-1.302-.881-2.104-2.104-2.32-3.676-.257-1.867.361-3.458 1.57-4.86.527-.604 1.053-1.209 1.533-1.853.454-.599.65-1.296.5-2.052C6.7 6.536 5.714 5.86 4.688 5.984c-.506.059-.96.243-1.4.526.039-.073.072-.145.111-.21 1.052-1.632 2.512-2.664 4.458-2.914 1.52-.197 2.84.25 3.873 1.4.98 1.092 1.124 2.375.684 3.742-.362 1.118-1.085 1.966-2.038 2.617-.671.454-1.362.875-2.032 1.328-.993.678-1.756 1.552-2.11 2.723-.678 2.235.492 4.99 2.971 5.687.026.013.053.02.086.033m3.294-10.1c.65-.302 1.308-.578 1.94-.914.48-.256.914-.585 1.367-.88.165-.106.224-.257.224-.46 0-.711.164-1.382.579-1.98.039-.06.085-.105.144-.178.296.277.474.612.612.967.066.19.125.381.164.579.033.138.086.217.23.263.868.289 1.605.776 2.13 1.545.435.631.678 1.335.744 2.097.02.224.02.454.006.678a.27.27 0 0 1-.131.184 2.2 2.2 0 0 1-.533.157c-.934.158-1.808.014-2.623-.493a10.8 10.8 0 0 0-2.755-1.236c-.69-.197-1.388-.335-2.098-.329"/><path fill="#fff" d="M15.058 19.443c.98.073 1.906.224 2.426 1.25-2.137.19-4.222.223-6.32.23 1.125-.44 1.98-1.157 2.375-2.315.394-1.15.223-2.242-.434-3.261-1.092-1.677-3.952-2.236-5.714-.375.19-.473.44-.848.776-1.17.67-.658 1.499-.973 2.426-.98 1.874-.013 3.28.828 4.221 2.426.414.71.56 1.506.566 2.328 0 .631-.106 1.236-.323 1.867"/><path fill="#fff" d="M20.804 15.077c-.217-.046-.401-.098-.585-.131-.526-.086-1.032.026-1.512.25-.408.19-.81.394-1.263.42-.348.02-.703-.026-1.058-.059-.139-.013-.23-.112-.303-.243-.776-1.387-1.86-2.426-3.36-2.992-.723-.276-1.473-.381-2.249-.361-.072 0-.138 0-.23-.033.072-.033.145-.073.224-.099a5 5 0 0 1 2.012-.204c1 .092 1.972.31 2.873.75.572.283 1.111.638 1.67.947.658.361 1.368.539 2.111.605.408.039.815.098 1.164.328.296.184.486.44.506.822m-10.75-.19a2.56 2.56 0 0 0-2.565 2.55 2.547 2.547 0 0 0 2.571 2.559 2.543 2.543 0 0 0 2.551-2.558 2.555 2.555 0 0 0-2.557-2.551m-.02 3.734c-.644 0-1.17-.532-1.177-1.177 0-.644.54-1.183 1.19-1.183.651 0 1.184.539 1.177 1.19a1.165 1.165 0 0 1-1.19 1.17"/></g><defs><linearGradient id="b" x1="12.001" x2="12.001" y1="24" y2=".001" gradientUnits="userSpaceOnUse"><stop stop-color="#FF780B"/><stop offset="1" stop-color="#FFA322"/></linearGradient><clipPath id="a"><path fill="#fff" d="M0 0h24v24H0z"/></clipPath></defs></svg>