<svg xmlns="http://www.w3.org/2000/svg" fill="none" viewBox="0 0 24 24"><g clip-path="url(#a)"><path fill="#FF4A4A" d="M12 24c6.627 0 12-5.373 12-12S18.627 0 12 0 0 5.373 0 12s5.373 12 12 12Z"/><path fill="#fff" d="M13.97 13.75h-.593a.205.205 0 0 1-.144-.06.204.204 0 0 1-.059-.143v-1.558l-1.037.647a.268.268 0 0 1-.285 0l-1.031-.647v1.558c0 .11-.088.203-.203.203h-.587a.206.206 0 0 1-.144-.06.203.203 0 0 1-.06-.143V10.54a.27.27 0 0 1 .27-.27.24.24 0 0 1 .147.05l1.635 1.125a.188.188 0 0 0 .226 0l1.634-1.125a.271.271 0 0 1 .422.22v3.006a.194.194 0 0 1-.116.187.195.195 0 0 1-.076.016Zm-5.026-.005H5.269a.27.27 0 0 1-.269-.27v-3.022a.207.207 0 0 1 .208-.203h.594c.11 0 .203.088.203.203v2.299h2.227v-2.299c0-.11.088-.203.203-.203h.576c.11 0 .203.088.203.203v3.023a.27.27 0 0 1-.27.269Zm6.111-3.495h3.676a.27.27 0 0 1 .269.27v3.021c0 .11-.088.204-.198.204h-.592a.202.202 0 0 1-.203-.204v-2.166a.134.134 0 0 0-.132-.132h-1.958a.134.134 0 0 0-.132.132v2.166c0 .11-.088.204-.203.204h-.592a.202.202 0 0 1-.203-.204V10.52a.27.27 0 0 1 .269-.269Z"/><path fill="#fff" d="M16.597 11.88h.587c.11 0 .203.087.203.202v.598c0 .11-.088.203-.203.203h-.587a.202.202 0 0 1-.203-.203v-.603c0-.11.094-.198.203-.198Z"/></g><defs><clipPath id="a"><path fill="#fff" d="M0 0h24v24H0z"/></clipPath></defs></svg>