<svg xmlns="http://www.w3.org/2000/svg" fill="none" viewBox="0 0 24 24"><g clip-path="url(#a)"><circle cx="12" cy="12" r="12" fill="#E7006E"/><path fill="#fff" fill-rule="evenodd" d="m6 4.1.058.071q3.386 4.145 3.497 4.3c.122.168.077.32-.133.44a1.3 1.3 0 0 1-.475.133.6.6 0 0 1-.4-.17c-.078-.076-.396-.55-1.128-1.686q-.514-.805-1.042-1.602c-.029-.027-.029-.027.93 1.688l.055.099c.637 1.14.852 1.542.852 1.596 0 .11-.03.166-.165.317-.226.252-.326.534-.4 1.118-.08.656-.31 1.118-.945 1.91-.371.464-.432.55-.526.736-.118.235-.15.367-.164.664-.014.314.013.517.11.817.084.263.171.437.395.784.194.3.305.523.305.61 0 .07.013.07.313.002.718-.162 1.3-.447 1.629-.797.202-.216.25-.335.251-.632.001-.193-.006-.234-.058-.345-.085-.182-.24-.333-.582-.566-.449-.307-.64-.554-.693-.893-.044-.278.007-.475.255-.995.256-.537.32-.766.363-1.309.028-.35.066-.488.167-.6.105-.115.2-.154.46-.19.423-.057.693-.167.914-.37a.8.8 0 0 0 .285-.606l.01-.195-.108-.126q-.23-.27-3.836-4.233L6.129 4zm1.079 9.722a.34.34 0 0 1-.036.248c-.084.15-.245.198-.358.11-.07-.056-.076-.137-.014-.23.06-.09.054-.136-.023-.175-.045-.024-.066-.05-.066-.087 0-.12.216-.165.355-.072a.34.34 0 0 1 .142.206m2.874-3.626c.06-.221.253-.432.452-.493a.9.9 0 0 1 .51.048c.239.121.412.397.374.596-.046.243-.439.437-.892.44-.231.002-.317-.029-.405-.147-.055-.073-.076-.31-.04-.444m.902-.358c.118.072.15.18.08.279-.049.068-.197.133-.306.133-.164 0-.342-.117-.342-.222 0-.215.342-.328.568-.19m-1.263-4.31c-.082.012-.074.016.1.043.632.098 1.126.35 1.63.828.22.21.443.47.803.943.81 1.063 1.154 1.36 1.836 1.582.4.13.805.191 1.52.23.791.041 1.09.104 1.372.291.157.104.28.233.4.422l.072.11-.015-.122c-.057-.462-.387-1.113-.808-1.59l-.077-.087-.04.175c-.097.44-.307.756-.503.756a.25.25 0 0 1-.226-.143c-.044-.104-.04-.142.024-.262.119-.222.148-.52.09-.907a1 1 0 0 0-.056-.233c-.043-.052-.384-.25-.6-.35-.788-.364-1.73-.483-2.654-.333l-.22.034-.153-.17c-.578-.643-1.119-1.006-1.713-1.147-.256-.06-.626-.094-.782-.07m6.43.382c-.086.19-.128.399-.147.715-.011.204-.023.274-.046.283-.036.014-.085 0-.378-.113-.196-.076-.686-.219-.7-.205q.11.064.228.11.238.11.465.242c.502.297.588.47.588 1.19 0 .359-.005.406-.049.515-.06.145-.05.172.016.044.123-.237.173-.476.18-.846.005-.238.012-.288.046-.322.036-.036.045-.036.104-.006.089.045.488.363.661.526l.142.133-.142-.186a8 8 0 0 0-.479-.53c-.394-.404-.426-.458-.48-.831-.044-.294-.033-.548.03-.733a.5.5 0 0 0 .033-.124 1 1 0 0 0-.071.138m-6.517.162c-.047.557.171 1.3.523 1.786.274.376.697.668 1.01.697.205.018.267-.046.174-.181a3.4 3.4 0 0 1-.328-.6 7 7 0 0 1-.126-.506c-.147-.685-.292-.952-.625-1.155a2 2 0 0 0-.533-.198L9.52 5.9zm3.716 3.188c0 .97.58 1.547 2.227 2.21 1.097.441 1.545.67 1.88.957.294.252.468.59.485.935.004.065.016.112.028.108.045-.014.213-.39.268-.6.07-.265.095-.767.052-1.035-.148-.921-.77-1.598-1.776-1.932-.316-.104-.66-.176-1.269-.266-1.035-.15-1.41-.265-1.743-.533A1 1 0 0 0 13.23 9c-.005 0-.01.117-.01.26m.991 2.137q.05.171.08.348c.131.786-.28 1.42-1.083 1.666a10 10 0 0 1-.743.145c-.655.11-.948.187-1.242.328-.208.1-.46.251-.446.266a.3.3 0 0 0 .106-.025c.37-.13.783-.197 1.41-.23.249-.013.531-.034.628-.046.56-.07.946-.24 1.247-.546.157-.155.276-.344.347-.553.052-.143.058-.195.058-.447 0-.256-.005-.303-.06-.46a1.4 1.4 0 0 0-.266-.484l-.079-.087zm.834 1.69c-.219-.47-.269-.925-.149-1.35.013-.044.034-.081.046-.081q.062.023.115.062c.101.068.303.182.842.476.672.367 1.056.651 1.317.975.228.284.37.608.437 1.002.039.224.016.76-.041.986-.18.71-.601 1.267-1.2 1.592a2 2 0 0 1-.175.087c-.009 0 .023-.08.07-.18.201-.422.225-.832.073-1.288-.094-.28-.284-.621-.668-1.197-.447-.67-.556-.848-.667-1.084M8.86 15.625c.611-.516 1.371-.882 2.065-.995a3.2 3.2 0 0 1 1.072.041c.443.114.84.368 1.046.67.201.296.288.554.378 1.128.036.226.075.453.086.505.067.297.2.535.362.654.259.19.705.2 1.143.03a.6.6 0 0 1 .144-.045c.016.016-.205.164-.36.242-.184.098-.39.148-.599.145-.402 0-.735-.204-1.013-.62a5 5 0 0 1-.274-.547c-.293-.67-.438-.874-.779-1.097-.298-.195-.68-.23-.968-.088-.379.185-.484.67-.213.975a.84.84 0 0 0 .473.247.505.505 0 0 0 .571-.505c0-.202-.078-.316-.273-.405-.266-.12-.552.02-.55.27 0 .107.046.174.154.223.068.03.07.033.014.022-.244-.051-.302-.345-.105-.54.235-.236.723-.132.89.188.07.134.079.403.017.565-.137.362-.537.552-.943.448-.276-.07-.389-.146-.722-.49-.579-.596-.803-.712-1.638-.842l-.16-.025z" clip-rule="evenodd"/></g><defs><clipPath id="a"><path fill="#fff" d="M0 0h24v24H0z"/></clipPath></defs></svg>