<svg xmlns="http://www.w3.org/2000/svg" fill="none" viewBox="0 0 24 24"><path fill="#FF007A" d="M12 22c5.523 0 10-4.477 10-10S17.523 2 12 2 2 6.477 2 12s4.477 10 10 10Z"/><path fill="#fff" d="M9.654 5.177c-.179-.028-.186-.031-.102-.044.16-.025.54.01.802.071.61.146 1.166.518 1.76 1.179l.158.175.225-.036c.95-.153 1.917-.031 2.725.342.222.102.573.307.617.36.014.016.04.124.056.24.06.397.03.702-.09.93-.067.124-.07.163-.027.27a.26.26 0 0 0 .233.147c.201 0 .418-.325.518-.777l.04-.18.078.09c.433.49.772 1.158.83 1.633l.016.124-.073-.112a1.394 1.394 0 0 0-.412-.433c-.29-.192-.596-.257-1.409-.3-.734-.039-1.15-.102-1.56-.236-.701-.228-1.054-.532-1.887-1.624-.37-.485-.598-.753-.825-.969-.517-.491-1.024-.749-1.673-.85Z"/><path fill="#fff" d="M16.048 6.626c.02-.325.063-.54.152-.735a.799.799 0 0 1 .073-.141.482.482 0 0 1-.035.128c-.064.19-.075.45-.03.751.056.384.089.44.494.854.19.194.411.439.491.545l.146.19-.146-.136c-.178-.167-.588-.494-.678-.54-.061-.031-.07-.03-.108.006-.034.035-.042.086-.046.33-.008.38-.06.626-.185.87-.068.13-.078.103-.017-.046.046-.111.05-.16.05-.528 0-.74-.088-.918-.604-1.223a5.646 5.646 0 0 0-.477-.247 1.823 1.823 0 0 1-.234-.114c.014-.014.517.132.719.21.301.116.35.13.387.116.025-.01.037-.08.048-.29Zm-6.004 1.266c-.362-.498-.586-1.263-.538-1.834l.015-.177.083.015c.155.028.422.128.547.204.342.208.491.482.642 1.186.044.207.102.44.13.519.042.127.204.424.337.617.095.139.03.204-.18.185-.32-.029-.755-.329-1.036-.715Zm5.566 3.71c-1.692-.682-2.288-1.273-2.288-2.27 0-.148.005-.268.01-.268.007 0 .073.049.146.108.344.275.728.392 1.791.547.626.092.978.166 1.303.274 1.033.342 1.671 1.037 1.824 1.983.044.275.018.79-.054 1.063-.056.215-.23.602-.275.617-.012.003-.025-.045-.029-.112-.017-.355-.197-.7-.498-.96-.343-.295-.803-.53-1.93-.983Zm-1.188.282a2.943 2.943 0 0 0-.082-.358l-.043-.128.08.09c.11.125.199.283.273.496.056.162.063.21.062.473 0 .259-.007.312-.06.459a1.45 1.45 0 0 1-.356.567c-.31.315-.706.489-1.28.561-.1.013-.39.034-.646.047-.643.034-1.067.103-1.447.237a.305.305 0 0 1-.109.026c-.015-.016.244-.17.458-.273.302-.146.602-.225 1.275-.337.333-.056.676-.123.763-.15.824-.252 1.248-.903 1.112-1.71Z"/><path fill="#fff" d="M14.791 13.47c-.225-.484-.276-.95-.153-1.386.013-.046.034-.084.047-.084a.457.457 0 0 1 .118.064c.104.07.311.187.864.489.691.376 1.085.668 1.353 1 .234.293.38.625.45 1.03.039.23.016.781-.043 1.013-.186.728-.618 1.3-1.233 1.635a1.578 1.578 0 0 1-.18.089.701.701 0 0 1 .073-.186c.207-.432.231-.853.074-1.322-.095-.287-.291-.638-.685-1.229-.46-.687-.572-.871-.685-1.114Zm-6.354 2.606c.628-.53 1.409-.906 2.12-1.022.307-.05.818-.03 1.102.043.455.116.862.377 1.074.688.206.304.296.569.388 1.157.037.233.076.466.088.52.07.304.205.549.372.671.266.195.724.206 1.174.031a.615.615 0 0 1 .147-.046c.017.016-.21.168-.37.248-.188.101-.4.152-.614.149-.412 0-.755-.21-1.04-.637a5.144 5.144 0 0 1-.282-.561c-.301-.688-.45-.898-.8-1.127-.305-.2-.698-.236-.994-.09-.389.19-.497.687-.219 1.001a.86.86 0 0 0 .486.254.517.517 0 0 0 .587-.519c0-.207-.08-.325-.28-.415-.274-.123-.567.02-.566.277 0 .11.048.178.158.228.07.032.072.035.014.023-.25-.053-.309-.355-.107-.555.242-.241.742-.135.914.194.073.138.081.413.018.58-.14.371-.552.566-.969.46-.284-.072-.4-.15-.741-.503-.595-.613-.825-.731-1.683-.865l-.164-.026.187-.158Z"/><path fill="#fff" fill-rule="evenodd" d="m5.75 3.978.06.073c2.317 2.837 3.515 4.31 3.591 4.415.125.173.078.329-.137.452a1.297 1.297 0 0 1-.488.136.628.628 0 0 1-.41-.175c-.081-.076-.407-.563-1.159-1.73-.352-.551-.708-1.1-1.07-1.645-.03-.029-.03-.028 1.012 1.835.654 1.17.875 1.583.875 1.638 0 .113-.031.172-.17.327-.232.258-.335.548-.41 1.148-.083.673-.318 1.148-.97 1.961-.382.476-.445.564-.542.756-.12.241-.154.377-.168.682-.014.322.014.53.113.839.086.27.176.449.406.805.199.308.313.537.313.626 0 .072.014.072.322.002.737-.166 1.335-.46 1.672-.818.208-.222.257-.344.259-.649 0-.199-.007-.24-.06-.355-.088-.186-.247-.341-.598-.581-.461-.315-.657-.569-.712-.917-.045-.286.007-.487.262-1.021.263-.553.329-.788.373-1.345.028-.36.068-.501.172-.615.107-.119.205-.16.472-.196.435-.06.711-.172.939-.381a.817.817 0 0 0 .292-.622l.01-.2-.11-.129a709.676 709.676 0 0 0-3.94-4.347l-.066-.072-.133.103Zm1.071 10.238a.354.354 0 0 0-.108-.466c-.143-.095-.365-.05-.365.074 0 .037.02.065.068.09.079.04.085.086.023.18-.063.094-.058.178.014.235.116.091.28.04.368-.113Zm3.453-4.485c-.205.063-.403.28-.465.507-.037.138-.016.38.04.456.091.121.18.153.417.151.465-.003.868-.203.916-.452.039-.204-.14-.487-.384-.612a.912.912 0 0 0-.524-.05Zm.544.425c.071-.102.04-.212-.082-.286-.232-.142-.584-.025-.584.195 0 .109.184.228.351.228.113 0 .265-.067.315-.137Z" clip-rule="evenodd"/></svg>