<svg xmlns="http://www.w3.org/2000/svg" fill="none" viewBox="0 0 24 24"><path fill="#FF007A" d="M8.68 3.779c-.243-.038-.253-.043-.139-.06.22-.034.739.013 1.096.097.835.2 1.594.707 2.405 1.61l.215.239.307-.049c1.298-.21 2.619-.043 3.723.467.304.14.783.42.843.492.02.022.054.17.077.327.082.544.041.96-.124 1.272-.09.17-.096.222-.035.367a.36.36 0 0 0 .317.202c.275 0 .57-.444.707-1.062l.055-.245.108.122c.59.67 1.054 1.583 1.133 2.231l.022.17-.1-.153a1.9 1.9 0 0 0-.562-.592c-.396-.262-.815-.35-1.925-.41-1.003-.053-1.57-.138-2.132-.322-.957-.311-1.44-.727-2.577-2.219-.505-.662-.817-1.029-1.127-1.323-.706-.671-1.4-1.023-2.287-1.161"/><path fill="#FF007A" d="M17.416 5.759c.026-.444.086-.737.207-1.005.048-.105.093-.193.1-.193a.7.7 0 0 1-.047.175c-.088.26-.103.614-.042 1.027.077.524.121.6.674 1.165.26.266.563.6.672.745l.2.261-.2-.187c-.243-.228-.803-.674-.927-.738-.083-.042-.095-.042-.147.009-.047.048-.057.118-.063.452-.01.519-.08.853-.253 1.186-.092.18-.106.142-.023-.062.063-.152.069-.219.069-.721 0-1.011-.12-1.254-.825-1.67a8 8 0 0 0-.652-.339 2.5 2.5 0 0 1-.32-.155c.02-.02.706.18.982.287.412.158.48.178.53.159.033-.013.05-.11.065-.397M9.214 7.486c-.495-.68-.8-1.724-.735-2.505l.02-.241.114.02c.211.039.576.174.747.279.468.284.67.659.877 1.62.06.282.14.6.176.709.058.173.28.579.461.843.13.189.043.279-.244.253-.439-.04-1.033-.45-1.416-.978m7.603 5.068c-2.311-.93-3.125-1.739-3.125-3.101 0-.2.007-.365.014-.365.009 0 .099.066.2.147.468.376.993.536 2.446.748.854.126 1.336.226 1.78.373 1.41.468 2.283 1.418 2.491 2.71.06.376.025 1.08-.073 1.452-.077.293-.314.822-.376.842-.017.005-.034-.06-.04-.152-.023-.485-.268-.958-.68-1.312-.47-.402-1.098-.723-2.637-1.342m-1.622.386a4 4 0 0 0-.112-.489l-.06-.175.11.123c.151.17.272.387.373.677.077.222.086.287.085.647 0 .353-.01.427-.081.626a2 2 0 0 1-.488.776c-.422.43-.965.667-1.748.766-.137.018-.533.046-.882.065-.88.046-1.458.14-1.978.322a.4.4 0 0 1-.148.036c-.02-.021.333-.232.625-.373.413-.199.823-.307 1.742-.46.455-.076.924-.168 1.043-.204 1.125-.345 1.704-1.235 1.519-2.337"/><path fill="#FF007A" d="M15.699 15.107c-.307-.66-.377-1.298-.21-1.892.019-.063.048-.115.065-.115q.087.03.161.087c.142.095.425.256 1.181.667.944.515 1.481.914 1.848 1.368.32.399.518.853.614 1.406.053.314.022 1.068-.059 1.384-.253.995-.843 1.777-1.683 2.233q-.12.07-.246.122c-.012 0 .032-.113.1-.253.282-.591.315-1.167.1-1.807-.13-.392-.397-.87-.936-1.679-.627-.939-.78-1.19-.935-1.521m-8.68 3.561c.857-.724 1.924-1.238 2.896-1.396.419-.068 1.117-.04 1.505.058.621.16 1.178.516 1.467.94.282.415.404.777.53 1.582.05.317.105.636.12.708.095.417.28.75.509.918.363.266.989.282 1.603.043a.8.8 0 0 1 .202-.063c.022.022-.287.23-.506.339a1.7 1.7 0 0 1-.839.203c-.563 0-1.031-.286-1.421-.871a7 7 0 0 1-.385-.766c-.411-.94-.614-1.226-1.092-1.54-.418-.273-.955-.321-1.359-.123-.531.26-.679.939-.299 1.368.151.171.433.319.664.347a.71.71 0 0 0 .801-.709c0-.283-.109-.444-.382-.567-.373-.169-.775.028-.773.379.001.15.066.243.216.311.097.043.098.047.02.031-.343-.072-.423-.484-.147-.758.33-.33 1.014-.184 1.25.265.098.188.11.565.023.792-.192.508-.754.774-1.323.63-.388-.1-.546-.207-1.013-.688-.812-.837-1.127-1-2.299-1.182l-.224-.035z"/><path fill="#FF007A" fill-rule="evenodd" d="m3.348 2.14.082.1q4.749 5.815 4.906 6.03c.17.238.106.45-.187.618-.163.093-.5.187-.667.187a.86.86 0 0 1-.561-.24c-.11-.105-.555-.769-1.582-2.363q-.722-1.13-1.462-2.248c-.042-.04-.041-.038 1.382 2.507.893 1.598 1.195 2.163 1.195 2.239 0 .153-.043.233-.232.445-.316.353-.457.749-.56 1.569-.114.92-.435 1.568-1.326 2.679-.521.65-.607.77-.739 1.032-.166.33-.21.515-.23.932-.02.44.02.726.154 1.146.118.37.24.613.555 1.1.271.421.428.734.428.856 0 .097.019.097.44.002 1.006-.227 1.823-.627 2.283-1.117.285-.303.351-.47.354-.887 0-.271-.009-.328-.082-.485-.12-.254-.337-.466-.817-.794-.63-.43-.898-.777-.972-1.252-.061-.39.01-.666.358-1.395.36-.755.449-1.076.51-1.837.038-.492.092-.686.234-.84.146-.163.28-.219.644-.268.594-.081.973-.235 1.283-.521.27-.25.383-.49.4-.85l.014-.273-.151-.176q-.325-.378-5.383-5.939L3.53 2zM4.81 16.127a.483.483 0 0 0-.148-.637c-.195-.13-.498-.068-.498.101 0 .051.028.089.092.122.108.056.116.119.032.246-.087.13-.08.244.02.322.158.125.383.055.502-.154M9.528 10c-.28.086-.55.382-.635.692-.051.188-.022.52.055.623.124.166.244.21.568.207.636-.005 1.187-.277 1.252-.618.053-.279-.19-.665-.524-.836-.172-.087-.539-.122-.716-.068m.742.58c.099-.138.055-.29-.11-.39-.318-.194-.798-.034-.798.266 0 .149.25.312.479.312.154 0 .362-.091.43-.187" clip-rule="evenodd"/></svg>