<svg xmlns="http://www.w3.org/2000/svg" fill="none" viewBox="0 0 24 24"><g clip-path="url(#a)"><path fill="#F58634" d="M12 24c6.627 0 12-5.373 12-12S18.627 0 12 0 0 5.373 0 12s5.373 12 12 12Z"/><path fill="#fff" d="M10.412 16.01h.002c.705-.085 1.297-.298 1.778-.64.636-.456.955-1.035.955-1.738 0-.593-.233-1.089-.698-1.495-.467-.404-1.098-.65-1.896-.736-.27-.035-.654-.06-1.148-.089-1.075-.065-1.772-.212-2.096-.442a1.032 1.032 0 0 1-.284-.31.733.733 0 0 1-.093-.361c0-.333.192-.614.58-.835.386-.22.874-.333 1.468-.333.562 0 1.12.096 1.647.285 2.268.808 4.433 3.634 5.875 5.657-1.175.714-2.776 1.155-4.54 1.155a10.32 10.32 0 0 1-1.55-.117Zm-2.536-1.15c-2.07-.756-2.976-2.623-1.954-4.436.028.254.123.5.274.71.19.267.469.483.834.653 1.277.555 3.626.2 4.593.905.325.237.488.54.488.91 0 .463-.227.843-.68 1.138-.454.295-1.044.443-1.77.443a5.25 5.25 0 0 1-1.785-.323Z"/><path fill="#fff" d="M17.893 13.725v-3.47c.39.527.607 1.116.607 1.735 0 .62-.217 1.207-.607 1.735Zm-.977-4.421.003 4.422c-1.388-1.972-3.463-4.452-6.013-5.28a6.292 6.292 0 0 0-1.36-.283 9.997 9.997 0 0 1 2.417-.29c1.98 0 3.754.554 4.953 1.43Z" opacity=".5"/></g><defs><clipPath id="a"><path fill="#fff" d="M0 0h24v24H0z"/></clipPath></defs></svg>