<svg xmlns="http://www.w3.org/2000/svg" fill="none" viewBox="0 0 24 24"><path fill="#093687" d="M12 22c5.523 0 10-4.477 10-10S17.523 2 12 2 2 6.477 2 12s4.477 10 10 10Z"/><path fill="#fff" d="m11.39 15.584 1.784-5.42.859.28-.614-2.029h5.31c.963 0 1.464.86 1.118 1.92l-.337 1.023-.014.04-.014.038c-.093.252-.221.49-.381.705-.505.687-1.275 1.133-1.96 1.137h-2.665l-.757 2.305h-2.33Zm3.48-3.503h1.413c.354 0 .746-.316.873-.705l.347-1.057c.128-.389-.056-.705-.41-.705H15.68l-.81 2.467Zm-9.603 3.503a1.583 1.583 0 0 1-.473-.09 1.052 1.052 0 0 1-.48-.325 1.185 1.185 0 0 1-.178-.323 1.36 1.36 0 0 1-.053-.18 1.887 1.887 0 0 1 .045-.926c.007-.027.042-.14.042-.14l1.704-5.184h2.349l-1.73 5.265c-.094.288-.02.544.186.652a.427.427 0 0 0 .217.053h1.16l1.961-5.97h2.656l-1.946 2.029 1.05-.28-1.784 5.419H5.267Z"/></svg>