<svg xmlns="http://www.w3.org/2000/svg" fill="none" viewBox="0 0 24 24"><path fill="#49CC68" d="M14.039 20.598c-.623.178-1.246.29-1.847.29h-.089c-.6 0-1.245-.09-1.868-.29a.56.56 0 0 0-.69.379c-.09.289.089.6.378.69a7.5 7.5 0 0 0 2.18.333h.09c.711 0 1.445-.111 2.157-.334.29-.089.468-.4.379-.69a.56.56 0 0 0-.69-.378m4.85-13.681v-.023A7.05 7.05 0 0 0 12.148 2C9.033 2 6.319 3.98 5.385 6.917v.022c-.623 1.846-.4 4.316.6 6.607 1.38 3.137 3.894 5.34 6.118 5.34h.045c2.225 0 4.738-2.18 6.118-5.34 1.045-2.313 1.268-4.783.623-6.63M15.64 4.225c-1.135-.045-2.359.445-3.493 1.401-1.157-.956-2.38-1.446-3.493-1.401a6 6 0 0 1 3.493-1.113c1.29 0 2.492.4 3.493 1.113M13.06 17.55c-.29.133-.6.2-.912.2a2.04 2.04 0 0 1-.912-.2c-1.891-.868-2.292-4.383-.846-7.676.467-1.045 1.068-1.98 1.758-2.736.69.756 1.29 1.69 1.757 2.736 1.424 3.293 1.046 6.808-.845 7.676M7.009 13.1c-.912-2.069-1.113-4.249-.579-5.828.29-.846.779-1.447 1.402-1.736.979-.445 2.27-.133 3.493.868-.779.845-1.446 1.89-1.958 3.048-.979 2.202-1.18 4.494-.734 6.251A10.5 10.5 0 0 1 7.009 13.1m10.256 0a11.2 11.2 0 0 1-1.624 2.603c.444-1.757.222-4.049-.735-6.251-.511-1.157-1.179-2.203-1.957-3.048 1.223-.979 2.491-1.313 3.493-.868.622.29 1.112.89 1.401 1.736.556 1.58.334 3.76-.578 5.828"/></svg>