<svg xmlns="http://www.w3.org/2000/svg" fill="none" viewBox="0 0 24 24"><path fill="#49CC68" d="M14.04 20.598c-.624.178-1.247.29-1.847.29h-.09c-.6 0-1.245-.09-1.868-.29a.562.562 0 0 0-.69.379c-.089.289.09.6.378.69a7.525 7.525 0 0 0 2.18.333h.09c.712 0 1.446-.111 2.158-.334a.562.562 0 0 0 .378-.69.562.562 0 0 0-.69-.378Zm4.849-13.681v-.023A7.051 7.051 0 0 0 12.149 2c-3.115 0-5.83 1.98-6.764 4.917v.022c-.623 1.846-.4 4.316.6 6.607 1.38 3.137 3.894 5.34 6.119 5.34h.044c2.225 0 4.739-2.18 6.118-5.34 1.046-2.313 1.268-4.783.623-6.63ZM15.64 4.225c-1.135-.045-2.358.445-3.493 1.401-1.157-.956-2.38-1.446-3.493-1.401a5.99 5.99 0 0 1 3.493-1.113c1.29 0 2.492.4 3.493 1.113ZM13.06 17.55c-.29.133-.601.2-.913.2a2.04 2.04 0 0 1-.912-.2c-1.891-.868-2.291-4.383-.845-7.676.467-1.045 1.067-1.98 1.757-2.736.69.756 1.29 1.69 1.758 2.736 1.423 3.293 1.045 6.808-.846 7.676ZM7.008 13.1c-.912-2.069-1.112-4.249-.578-5.828.289-.846.778-1.447 1.401-1.736.979-.445 2.27-.133 3.493.868-.779.845-1.446 1.89-1.958 3.048-.979 2.202-1.179 4.494-.734 6.251A10.528 10.528 0 0 1 7.008 13.1Zm10.256 0a11.226 11.226 0 0 1-1.624 2.603c.445-1.757.222-4.049-.734-6.251-.512-1.157-1.18-2.203-1.958-3.048 1.223-.979 2.492-1.313 3.493-.868.623.29 1.112.89 1.401 1.736.556 1.58.334 3.76-.578 5.828Z"/></svg>