<svg xmlns="http://www.w3.org/2000/svg" fill="none" viewBox="0 0 24 24"><path fill="#62757E" fill-rule="evenodd" d="M3.276 15.587c.428 0 .775.347.775.775v2.181c0 .777.63 1.406 1.406 1.406h13.086c.777 0 1.406-.63 1.406-1.406v-2.18a.776.776 0 1 1 1.551 0v2.18a2.957 2.957 0 0 1-2.957 2.957H5.457A2.957 2.957 0 0 1 2.5 18.543v-2.18c0-.43.347-.776.776-.776M12 17.137a.775.775 0 0 0 .775-.775V5.148l3.039 3.038A.775.775 0 1 0 16.91 7.09l-4.363-4.362a.776.776 0 0 0-1.096 0L7.089 7.09a.776.776 0 1 0 1.097 1.097l3.039-3.038v11.214c0 .429.347.776.775.776" clip-rule="evenodd"/></svg>