<svg xmlns="http://www.w3.org/2000/svg" fill="none" viewBox="0 0 24 24"><path fill="#62757E" fill-rule="evenodd" d="M19.182 2.17a.85.85 0 1 1 1.202 1.203l-16 16a.85.85 0 0 1-1.202-1.202l3.356-3.356a.8.8 0 0 1-.19-.514v-2.548A2.64 2.64 0 0 1 4.5 9.24a2.64 2.64 0 0 1 2.648-2.637A2.64 2.64 0 0 1 9.796 9.24a2.64 2.64 0 0 1-1.849 2.514v1.652l3.484-3.484V4.718l-.483.482a.8.8 0 0 1-1.13 0 .794.794 0 0 1 0-1.126l1.848-1.84a.8.8 0 0 1 .882-.169.8.8 0 0 1 .252.172l1.844 1.837a.794.794 0 0 1 0 1.126.8.8 0 0 1-1.13 0l-.484-.482v3.605l2.099-2.1v-.206c0-.44.358-.796.8-.796h.202zm-2.667 9.273-2.848 1.03-3.478 3.479.655.178a3.1 3.1 0 0 0-1.723 2.773A3.103 3.103 0 0 0 12.231 22a3.103 3.103 0 0 0 3.11-3.097 3.1 3.1 0 0 0-2.31-2.994v-1.511l4.556-1.65a.8.8 0 0 0 .526-.748V9.575h.588c.441 0 .8-.357.8-.796V6.64l-2.986 2.985zm-4.284 5.955c-.835 0-1.511.674-1.511 1.505s.676 1.505 1.511 1.505 1.511-.674 1.511-1.505-.676-1.505-1.511-1.505m-6.132-8.16c0-.576.47-1.044 1.049-1.044.58 0 1.049.468 1.049 1.045s-.47 1.045-1.05 1.045a1.046 1.046 0 0 1-1.048-1.045" clip-rule="evenodd"/></svg>