<svg xmlns="http://www.w3.org/2000/svg" fill="none" viewBox="0 0 24 24"><path fill="#62757E" fill-rule="evenodd" d="M12.23 2a.8.8 0 0 1 .57.237l1.844 1.837a.794.794 0 0 1 0 1.126.8.8 0 0 1-1.13 0l-.484-.482v7.986l3.485-1.261V9.575h-.587a.8.8 0 0 1-.8-.796V6.017c0-.44.359-.796.8-.796h2.773c.441 0 .8.357.8.796V8.78c0 .44-.359.796-.8.796h-.588V12c0 .335-.21.634-.526.748l-4.557 1.65v1.511a3.1 3.1 0 0 1 2.31 2.994A3.103 3.103 0 0 1 12.232 22a3.103 3.103 0 0 1-3.11-3.097c0-1.214.702-2.265 1.723-2.773l-3.908-1.06a.8.8 0 0 1-.589-.768v-2.548A2.64 2.64 0 0 1 4.5 9.24a2.64 2.64 0 0 1 2.648-2.637A2.64 2.64 0 0 1 9.796 9.24a2.64 2.64 0 0 1-1.849 2.514v1.94l3.484.946V4.718l-.483.482a.8.8 0 0 1-1.13 0 .794.794 0 0 1 0-1.126l1.848-1.84A.8.8 0 0 1 12.23 2m.001 15.398c-.835 0-1.511.674-1.511 1.505s.676 1.505 1.511 1.505 1.511-.674 1.511-1.505-.676-1.505-1.511-1.505m4.496-9.415v-1.17h1.174v1.17zM6.1 9.239c0-.577.47-1.045 1.049-1.045.58 0 1.049.468 1.049 1.045s-.47 1.045-1.05 1.045A1.046 1.046 0 0 1 6.1 9.239" clip-rule="evenodd"/></svg>