<svg xmlns="http://www.w3.org/2000/svg" fill="none" viewBox="0 0 24 24"><g clip-path="url(#a)"><path fill="#5F5CF1" d="M12 24c6.627 0 12-5.373 12-12S18.627 0 12 0 0 5.373 0 12s5.373 12 12 12"/><path fill="#fff" fill-rule="evenodd" d="M16.225 14.05c0 1.67-1.356 2.78-3.358 2.947V18.5h-1.372v-1.518a7.47 7.47 0 0 1-3.72-1.505l1.009-1.381c.899.698 1.75 1.154 2.775 1.306v-2.977c-2.302-.577-3.374-1.412-3.374-3.128 0-1.64 1.34-2.764 3.31-2.916V5.5h1.372v.911a6.17 6.17 0 0 1 2.964 1.155l-.883 1.427c-.694-.501-1.403-.82-2.144-.972v2.886c2.396.577 3.42 1.503 3.42 3.143m-4.667-3.463V7.916c-.993.076-1.513.608-1.513 1.276 0 .637.3 1.047 1.514 1.397zm2.807 3.569c0-.683-.332-1.093-1.561-1.442v2.75c.993-.078 1.56-.579 1.56-1.307z" clip-rule="evenodd"/></g><defs><clipPath id="a"><path fill="#fff" d="M0 0h24v24H0z"/></clipPath></defs></svg>