<svg xmlns="http://www.w3.org/2000/svg" fill="none" viewBox="0 0 24 24"><path fill="#62757E" fill-rule="evenodd" d="M12 22C6.486 22 2 17.513 2 12 2 6.486 6.486 2 12 2s10 4.486 10 10c0 5.513-4.486 10-10 10m0-18.333c-4.595 0-8.333 3.738-8.333 8.333S7.405 20.333 12 20.333s8.333-3.738 8.333-8.333S16.595 3.667 12 3.667m0 7.5c1.378 0 2.5 1.121 2.5 2.5 0 1.085-.698 2-1.667 2.346V17a.833.833 0 1 1-1.666 0v-.833h-.834a.833.833 0 1 1 0-1.667H12a.834.834 0 0 0 0-1.667 2.503 2.503 0 0 1-2.5-2.5c0-1.085.7-2.001 1.667-2.346V7a.833.833 0 1 1 1.666 0v.833h.834a.833.833 0 1 1 0 1.667H12a.833.833 0 0 0 0 1.667" clip-rule="evenodd"/></svg>