<svg xmlns="http://www.w3.org/2000/svg" fill="none" viewBox="0 0 24 24"><path fill="#62757E" fill-rule="evenodd" d="M15.5 9.5a.833.833 0 0 1-.833-.833A2.5 2.5 0 0 0 13 6.32v4.93a4.174 4.174 0 0 1 3.333 4.082A4.175 4.175 0 0 1 13 19.416v1.75a.833.833 0 1 1-1.667 0v-1.75A4.175 4.175 0 0 1 8 15.332a.833.833 0 1 1 1.667 0c0 1.085.699 2.002 1.666 2.347v-4.93A4.17 4.17 0 0 1 8 8.667a4.17 4.17 0 0 1 3.333-4.083v-1.75a.833.833 0 1 1 1.667 0v1.75a4.174 4.174 0 0 1 3.333 4.083c0 .46-.372.833-.833.833m-.833 5.832c0-1.085-.7-2.001-1.667-2.346v4.693a2.5 2.5 0 0 0 1.667-2.347m-5-6.665c0 1.085.699 2 1.666 2.345V6.32a2.5 2.5 0 0 0-1.666 2.347" clip-rule="evenodd"/></svg>