<svg xmlns="http://www.w3.org/2000/svg" fill="none" viewBox="0 0 24 24"><g clip-path="url(#a)"><path fill="#2775C9" d="M12 24c6.627 0 12-5.373 12-12S18.627 0 12 0 0 5.373 0 12s5.373 12 12 12Z"/><path fill="#fff" d="M12 18.5a6.5 6.5 0 1 1 0-13 6.5 6.5 0 1 1 0 13Zm-.387-8.912a1.427 1.427 0 0 0-1.356 1.367c0 .669.41 1.106 1.278 1.288l.609.144c.592.138.835.338.835.675 0 .338-.426.67-.979.67a1.052 1.052 0 0 1-.996-.504.376.376 0 0 0-.337-.216h-.327a.195.195 0 0 0-.154.151.193.193 0 0 0 0 .076 1.51 1.51 0 0 0 1.443 1.15v.466a.39.39 0 0 0 .78 0v-.47a1.45 1.45 0 0 0 1.433-1.428c0-.703-.404-1.106-1.36-1.311l-.554-.122c-.553-.138-.813-.32-.813-.63s.332-.653.885-.653a.907.907 0 0 1 .88.448.442.442 0 0 0 .398.254h.26a.232.232 0 0 0 .171-.276 1.466 1.466 0 0 0-1.316-1.107v-.38a.39.39 0 1 0-.78 0v.41ZM7.126 12a4.862 4.862 0 0 0 3.32 4.608h.077a.249.249 0 0 0 .249-.249v-.116a.52.52 0 0 0-.32-.481 4.072 4.072 0 0 1 0-7.551.515.515 0 0 0 .32-.476v-.127a.232.232 0 0 0-.31-.222A4.863 4.863 0 0 0 7.126 12Zm9.748 0a4.863 4.863 0 0 0-3.32-4.603h-.082a.26.26 0 0 0-.26.26v.083a.554.554 0 0 0 .337.498 4.072 4.072 0 0 1 0 7.546.554.554 0 0 0-.332.492v.094a.261.261 0 0 0 .222.254.26.26 0 0 0 .121-.01A4.863 4.863 0 0 0 16.874 12Z"/></g><defs><clipPath id="a"><path fill="#fff" d="M0 0h24v24H0z"/></clipPath></defs></svg>