<svg xmlns="http://www.w3.org/2000/svg" fill="none" viewBox="0 0 24 24"><g clip-path="url(#a)"><path fill="#2775CA" d="M12 24A12 12 0 1 0 0 12a11.97 11.97 0 0 0 12 12"/><path fill="#fff" fill-rule="evenodd" d="M7.6 15.2a5.43 5.43 0 0 0 2.565 2.059c.108.075.217.225.217.338v.526c0 .075 0 .113-.036.15a.2.2 0 0 1-.045.097.2.2 0 0 1-.081.065.21.21 0 0 1-.2-.012 6.5 6.5 0 0 1-3.27-2.451 6.95 6.95 0 0 1-1.25-3.99A6.96 6.96 0 0 1 6.75 7.99a6.5 6.5 0 0 1 3.27-2.451.2.2 0 0 1 .145-.038.27.27 0 0 1 .162.108c.04.055.06.124.055.193v.526a.4.4 0 0 1-.051.224.37.37 0 0 1-.166.152A5.43 5.43 0 0 0 7.6 8.763a5.8 5.8 0 0 0-.971 3.218c0 1.151.339 2.275.971 3.219m6.287-9.692a.2.2 0 0 1 .098.03 6.53 6.53 0 0 1 3.267 2.465A7 7 0 0 1 18.5 12a7 7 0 0 1-1.248 3.996 6.53 6.53 0 0 1-3.267 2.465.2.2 0 0 1-.143.038.27.27 0 0 1-.163-.108.3.3 0 0 1-.054-.193v-.526a.4.4 0 0 1 .05-.224.37.37 0 0 1 .166-.151 5.43 5.43 0 0 0 2.565-2.06 5.8 5.8 0 0 0 .972-3.218c0-1.151-.34-2.275-.972-3.219a5.43 5.43 0 0 0-2.564-2.059.51.51 0 0 1-.216-.376V5.84c0-.076 0-.113.035-.15a.2.2 0 0 1 .044-.097.22.22 0 0 1 .182-.085m-1.775 5.853c1.513.188 2.27.643 2.27 1.954l-.003-.003c0 1.014-.721 1.803-1.803 1.99v.902c-.035.188-.144.3-.287.3h-.541c-.18-.037-.288-.15-.288-.3v-.901c-1.19-.188-1.766-.864-1.91-1.804v-.037a.27.27 0 0 1 .071-.188.25.25 0 0 1 .18-.075h.616c.062 0 .121.024.168.066a.28.28 0 0 1 .089.162c.111.568.432.977 1.37.977.684 0 1.188-.41 1.188-1.014s-.328-.826-1.336-1.014c-1.514-.188-2.235-.676-2.235-1.916 0-.94.685-1.687 1.769-1.841v-.867c.036-.188.144-.3.288-.3h.54c.18.038.29.15.29.3v.901c.395.035.768.205 1.061.484.293.278.49.65.56 1.057v.037a.27.27 0 0 1-.072.188.25.25 0 0 1-.18.075h-.577a.26.26 0 0 1-.156-.05.3.3 0 0 1-.1-.134c-.18-.564-.54-.79-1.19-.79-.72 0-1.08.34-1.08.865 0 .526.216.826 1.298.976" clip-rule="evenodd"/></g><defs><clipPath id="a"><path fill="#fff" d="M0 0h24v24H0z"/></clipPath></defs></svg>