<svg xmlns="http://www.w3.org/2000/svg" fill="none" viewBox="0 0 25 24"><path fill="currentColor" fill-rule="evenodd" d="M23.333 12.833h-2.5v2.5a.834.834 0 0 1-1.666 0v-2.5h-2.5a.834.834 0 0 1 0-1.666h2.5v-2.5a.834.834 0 0 1 1.666 0v2.5h2.5a.834.834 0 0 1 0 1.666Zm-12.647.334c3.414.975 5.98 3.988 5.98 7.445v.555c0 .46-.373.833-.833.833h-15A.834.834 0 0 1 0 21.167v-.555c0-3.457 2.567-6.47 5.98-7.445A5.838 5.838 0 0 1 2.5 7.833 5.84 5.84 0 0 1 8.333 2a5.84 5.84 0 0 1 5.834 5.833 5.838 5.838 0 0 1-3.481 5.334Zm-9.012 7.166h13.319c-.165-3.189-3.148-5.833-6.66-5.833-3.511 0-6.494 2.644-6.659 5.833Zm6.66-16.666a4.171 4.171 0 0 0-4.167 4.166A4.171 4.171 0 0 0 8.333 12 4.171 4.171 0 0 0 12.5 7.833a4.171 4.171 0 0 0-4.167-4.166Z" clip-rule="evenodd"/></svg>