<svg xmlns="http://www.w3.org/2000/svg" fill="none" viewBox="0 0 24 24"><path fill="#62757E" fill-rule="evenodd" d="M12 2.95a5.306 5.306 0 0 0-5.3 5.3 5.3 5.3 0 0 0 3.04 4.79c-3.026.92-5.29 3.617-5.29 6.71v.5a.8.8 0 0 0 .8.8h13.5a.8.8 0 0 0 .8-.8v-.5c0-3.093-2.264-5.79-5.29-6.71a5.3 5.3 0 0 0 3.04-4.79c0-2.923-2.377-5.3-5.3-5.3m-3.7 5.3c0-2.04 1.66-3.7 3.7-3.7s3.7 1.66 3.7 3.7-1.66 3.7-3.7 3.7-3.7-1.66-3.7-3.7M12 14.3c3.119 0 5.764 2.333 5.94 5.15H6.06c.176-2.817 2.82-5.15 5.94-5.15" clip-rule="evenodd"/></svg>