<svg xmlns="http://www.w3.org/2000/svg" fill="none" viewBox="0 0 24 24"><path fill="#62757E" fill-rule="evenodd" d="m21.872 9.64-3.427 4.828a.689.689 0 0 1-.503.288l-.06.003a.69.69 0 0 1-.485-.2l-2.089-2.07a.69.69 0 1 1 .97-.979l1.513 1.497 2.957-4.165a.69.69 0 1 1 1.124.799Zm-11.028 3.325c2.825.807 4.949 3.301 4.949 6.162v.46a.69.69 0 0 1-.69.689H2.69a.69.69 0 0 1-.69-.69v-.46c0-2.86 2.124-5.354 4.95-6.16a4.832 4.832 0 0 1-2.881-4.414 4.833 4.833 0 0 1 4.828-4.828 4.833 4.833 0 0 1 4.828 4.828 4.832 4.832 0 0 1-2.881 4.414Zm-7.459 5.931h11.023c-.136-2.639-2.605-4.827-5.511-4.827s-5.375 2.188-5.512 4.827ZM8.897 5.104a3.452 3.452 0 0 0-3.448 3.449A3.452 3.452 0 0 0 8.897 12a3.452 3.452 0 0 0 3.448-3.448 3.452 3.452 0 0 0-3.448-3.449Z" clip-rule="evenodd"/></svg>