<svg xmlns="http://www.w3.org/2000/svg" fill="none" viewBox="0 0 24 24"><path fill="#62757E" fill-rule="evenodd" d="M19.15 21H4.85C3.83 21 3 20.17 3 19.15V4.85C3 3.83 3.83 3 4.85 3h14.3C20.17 3 21 3.83 21 4.85v14.3c0 1.02-.83 1.85-1.85 1.85m.35-16.15c0-.19-.16-.35-.35-.35H4.85c-.19 0-.35.16-.35.35v14.3c0 .19.16.35.35.35h14.3c.19 0 .35-.16.35-.35zM16.515 18H7.5a.75.75 0 0 1-.75-.75c0-2.015 1.403-3.626 3.452-4.23-1.157-.639-1.952-1.858-1.952-3.27A3.754 3.754 0 0 1 12 6a3.754 3.754 0 0 1 3.75 3.75c0 1.412-.793 2.629-1.948 3.268 1.99.588 3.372 2.129 3.445 4.068a.75.75 0 0 1-.732.914M12 7.5c-1.24 0-2.25 1.01-2.25 2.25S10.76 12 12 12s2.25-1.01 2.25-2.25S13.24 7.5 12 7.5m0 6.75c-1.846 0-3.262.91-3.646 2.25h7.292c-.384-1.34-1.8-2.25-3.646-2.25" clip-rule="evenodd"/></svg>