<svg xmlns="http://www.w3.org/2000/svg" fill="none" viewBox="0 0 24 24"><path fill="currentColor" fill-rule="evenodd" d="M19.833 22h-15A.834.834 0 0 1 4 21.167v-.556c0-3.457 2.567-6.47 5.98-7.444A5.838 5.838 0 0 1 6.5 7.833 5.84 5.84 0 0 1 12.333 2a5.84 5.84 0 0 1 5.834 5.833 5.838 5.838 0 0 1-3.481 5.334c3.414.975 5.98 3.987 5.98 7.444v.556c0 .46-.373.833-.833.833ZM16.5 7.833a4.171 4.171 0 0 0-4.167-4.166 4.171 4.171 0 0 0-4.166 4.166A4.171 4.171 0 0 0 12.333 12 4.171 4.171 0 0 0 16.5 7.833ZM12.333 14.5c-3.512 0-6.495 2.644-6.659 5.833h13.319c-.165-3.189-3.147-5.833-6.66-5.833Z" clip-rule="evenodd"/></svg>