<svg xmlns="http://www.w3.org/2000/svg" fill="none" viewBox="0 0 24 24"><path fill="currentColor" fill-rule="evenodd" d="M20.352 22H3.648A1.65 1.65 0 0 1 2 20.352V3.648C2 2.74 2.74 2 3.647 2h16.705C21.26 2 22 2.74 22 3.648v16.704A1.65 1.65 0 0 1 20.352 22Zm-.019-1.667v-2.5H3.664l.003 2.52 16.666-.02ZM12 13.667a3.33 3.33 0 0 0-3.215 2.5h6.43a3.33 3.33 0 0 0-3.215-2.5ZM13.667 9.5c0-.92-.748-1.667-1.667-1.667-.92 0-1.667.748-1.667 1.667 0 .92.748 1.667 1.667 1.667.92 0 1.667-.748 1.667-1.667ZM3.647 3.667l.015 12.5h3.411a5.007 5.007 0 0 1 3.187-3.837A3.325 3.325 0 0 1 8.667 9.5 3.337 3.337 0 0 1 12 6.167 3.337 3.337 0 0 1 15.333 9.5a3.325 3.325 0 0 1-1.593 2.83 5.007 5.007 0 0 1 3.187 3.837h3.406V3.648l-16.685.019Z" clip-rule="evenodd"/></svg>