<svg xmlns="http://www.w3.org/2000/svg" fill="none" viewBox="0 0 24 24"><path fill="#62757E" fill-rule="evenodd" d="M4.25 8.25c0-2.923 2.377-5.3 5.3-5.3s5.3 2.377 5.3 5.3a5.3 5.3 0 0 1-3.04 4.79c3.026.92 5.29 3.617 5.29 6.71v.5a.8.8 0 0 1-.8.8H2.8a.8.8 0 0 1-.8-.8v-.5c0-3.093 2.264-5.79 5.29-6.71a5.3 5.3 0 0 1-3.04-4.79m5.3-3.7c-2.04 0-3.7 1.66-3.7 3.7s1.66 3.7 3.7 3.7 3.7-1.66 3.7-3.7-1.66-3.7-3.7-3.7m5.94 14.9c-.176-2.817-2.821-5.15-5.94-5.15s-5.764 2.333-5.94 5.15zm-.24-7.317a.8.8 0 0 1 .55-.33 2.965 2.965 0 0 0 2.53-2.93c0-1.249-.777-2.32-1.873-2.754a.87.87 0 0 1-.516-.514c-.187-.568.252-1.242.82-1.059a4.55 4.55 0 0 1 3.154 4.327 4.54 4.54 0 0 1-2.338 3.969c2.425.86 4.214 3.077 4.214 5.62v.418a.79.79 0 0 1-.792.792H19.41c-.393 0-.71-.325-.75-.716-.045-.454.295-.869.752-.869h.777c-.164-1.68-1.416-3.137-3.098-3.744a2.95 2.95 0 0 1-1.046-.628 9 9 0 0 0-.649-.566.76.76 0 0 1-.146-1.016" clip-rule="evenodd"/></svg>