<svg xmlns="http://www.w3.org/2000/svg" fill="none" viewBox="0 0 24 24"><path fill="#62757E" fill-rule="evenodd" d="M18 22H5.632c-.024 0-.043-.012-.066-.013-.023.001-.043.013-.066.013a.833.833 0 0 1-.833-.833v-3.334h-.834a.833.833 0 1 1 0-1.666h.834v-3.334h-.834a.833.833 0 1 1 0-1.666h.834V7.833h-.834a.833.833 0 1 1 0-1.666h.834V2.833c0-.46.372-.833.833-.833.023 0 .043.012.066.013.023-.001.042-.013.066-.013H18c1.378 0 2.5 1.122 2.5 2.5v15c0 1.378-1.122 2.5-2.5 2.5m.833-17.5A.834.834 0 0 0 18 3.667H6.333v2.5a.833.833 0 1 1 0 1.666v3.334a.833.833 0 1 1 0 1.666v3.334a.833.833 0 1 1 0 1.666v2.5H18c.46 0 .833-.373.833-.833zm-4.56 7.945c-1.157.762-1.268 1.143-1.273 1.222h-1.667c0-.301.146-1.379 2.024-2.614.365-.24.488-.506.488-1.056 0-.77-.528-1.33-1.256-1.33-.739 0-1.256.516-1.256 1.255a.833.833 0 1 1-1.666 0C9.667 8.258 10.923 7 12.589 7c1.64 0 2.923 1.317 2.923 2.997 0 1.1-.406 1.9-1.24 2.448m-1.515 3.136a.84.84 0 0 1 .242.583.86.86 0 0 1-.242.592.84.84 0 0 1-.591.241.84.84 0 0 1-.592-.241.843.843 0 0 1 0-1.184c.308-.3.875-.308 1.183.009" clip-rule="evenodd"/></svg>