<svg xmlns="http://www.w3.org/2000/svg" fill="none" viewBox="0 0 24 24"><path fill="#62757E" fill-rule="evenodd" d="M22 19.223c0 .795-.648 1.444-1.444 1.444H3.444A1.446 1.446 0 0 1 2 19.223v-1.835c0-.009.005-.017.006-.027-.001-.01-.006-.018-.006-.028 0-.46.373-.833.833-.833V5.458C2.833 4.654 3.495 4 4.308 4h15.384c.813 0 1.475.654 1.475 1.458V16.5c.46 0 .833.373.833.833 0 .01-.005.018-.006.028.001.01.006.018.006.027v1.835ZM3.667 18.167V19h5.888a.834.834 0 0 1-.833-.833H3.667ZM19.5 5.667h-15V16.5h5.055c.46 0 .833.373.833.833h3.224c0-.46.372-.833.833-.833H19.5V5.667Zm.833 12.5h-5.055c0 .46-.373.833-.833.833h5.888v-.833Zm-12.5-3.96v-.625c0-.026.013-.049.015-.074a.801.801 0 0 1 .034-.165.81.81 0 0 1 .057-.146.813.813 0 0 1 .086-.127.793.793 0 0 1 .12-.123c.018-.015.03-.038.05-.053l1.59-1.087a3.236 3.236 0 0 1-.283-1.336l-.002-.01.002-1.877c0-.021.01-.039.012-.06.002-.026-.007-.05-.002-.077C9.714 7.245 10.96 6.502 12 6.502h.005c1.037 0 2.282.742 2.483 1.945.005.026-.004.05-.002.077.002.021.012.04.012.06l.002 1.878-.002.008c.008.21-.019.725-.28 1.33l1.588 1.096c.022.014.032.036.052.052a.78.78 0 0 1 .117.123.744.744 0 0 1 .143.272.87.87 0 0 1 .035.167c.001.025.014.046.014.072v.625c0 .805-.624 1.46-1.389 1.46H9.222c-.765 0-1.389-.655-1.389-1.46Zm4.825-1.458c-.018-.011-.038-.016-.055-.029a.814.814 0 0 1-.178-.205c-.005-.008-.012-.013-.017-.02a.82.82 0 0 1-.087-.22c-.008-.03-.023-.057-.028-.088-.009-.051-.001-.103.001-.156.001-.058-.002-.114.011-.171.007-.027.023-.052.033-.078.025-.07.044-.141.088-.204.007-.01.017-.015.025-.025v-.002c.405-.524.383-1.002.382-1.022 0-.014.005-.027.005-.04 0-.009-.005-.017-.005-.026l-.001-1.765c-.064-.24-.459-.531-.832-.531-.373 0-.768.292-.832.53l-.001 1.766c0 .009-.004.015-.005.023 0 .016.006.03.006.046-.003.04-.015.506.381 1.019.005.006.006.015.011.021.005.007.013.01.017.017.027.04.035.087.055.13.023.051.052.1.065.153.012.054.008.106.01.16.001.053.01.105.001.157-.008.053-.032.101-.05.151-.018.05-.03.102-.059.148-.027.046-.07.083-.107.124-.033.036-.054.077-.094.108-.007.005-.016.007-.023.012-.007.005-.01.011-.015.016L9.53 14h4.942l-1.814-1.25Z" clip-rule="evenodd"/></svg>