<svg xmlns="http://www.w3.org/2000/svg" fill="none" viewBox="0 0 24 24"><path fill="#62757E" fill-rule="evenodd" d="M20.659 14.443a.763.763 0 0 0 1.079-1.079L20.374 12l1.364-1.364a.763.763 0 0 0-1.08-1.079l-1.363 1.364-1.364-1.364a.763.763 0 0 0-1.079 1.079L18.216 12l-1.364 1.364a.762.762 0 1 0 1.079 1.079l1.364-1.364zM9.55 2.95a5.306 5.306 0 0 0-5.3 5.3 5.3 5.3 0 0 0 3.04 4.79C4.264 13.96 2 16.657 2 19.75v.5a.8.8 0 0 0 .8.8h13.5a.8.8 0 0 0 .8-.8v-.5c0-3.093-2.264-5.79-5.29-6.71a5.3 5.3 0 0 0 3.04-4.79c0-2.923-2.377-5.3-5.3-5.3m-3.7 5.3c0-2.04 1.66-3.7 3.7-3.7s3.7 1.66 3.7 3.7-1.66 3.7-3.7 3.7-3.7-1.66-3.7-3.7m3.7 6.05c3.119 0 5.764 2.333 5.94 5.15H3.61c.176-2.817 2.821-5.15 5.94-5.15" clip-rule="evenodd"/></svg>