<svg xmlns="http://www.w3.org/2000/svg" fill="none" viewBox="0 0 24 24"><path fill="#62757E" fill-rule="evenodd" d="M12.399 2.95a5.306 5.306 0 0 0-5.3 5.3 5.29 5.29 0 0 0 2.2 4.293l-5.382 5.382a.762.762 0 0 0 .966 1.17l.003-.003a1 1 0 0 0 .108-.09L19.696 4.301a.762.762 0 1 0-1.078-1.078l-1.924 1.925a5.3 5.3 0 0 0-4.295-2.198m3.143 3.35a3.7 3.7 0 0 0-3.143-1.75 3.7 3.7 0 0 0-1.95 6.843zM5.649 21.05a.8.8 0 0 1-.436-.13l1.47-1.47H18.34c-.176-2.817-2.821-5.15-5.94-5.15q-.3 0-.594.028l5.89-5.89a5.3 5.3 0 0 1-3.037 4.602c3.027.92 5.29 3.617 5.29 6.71v.5a.8.8 0 0 1-.8.8z" clip-rule="evenodd"/></svg>