<svg xmlns="http://www.w3.org/2000/svg" fill="none" viewBox="0 0 24 24"><path fill="#666D89" fill-rule="evenodd" d="M4.479 7.813a4.16 4.16 0 1 1 8.319 0 4.16 4.16 0 0 1-8.32 0ZM8.639 2a5.813 5.813 0 0 0-2.297 11.154 8.343 8.343 0 0 0-6.04 7.797A1.024 1.024 0 0 0 1.326 22h14.625c.564 0 1.04-.463 1.024-1.05a8.344 8.344 0 0 0-6.04-7.796A5.814 5.814 0 0 0 8.638 2Zm7.183 10.834a.78.78 0 0 0-.78.803v.051c0 .442.357.8.798.8.246 0 .488-.017.725-.049a6.319 6.319 0 0 1 5.525 5.492h-3.078a.78.78 0 1 0 0 1.561h3.718a.967.967 0 0 0 .967-.99 7.88 7.88 0 0 0-4.73-7.016 5.378 5.378 0 0 0-3.126-9.755.799.799 0 1 0 0 1.599 3.78 3.78 0 0 1 .528 7.523 7.994 7.994 0 0 0-.547-.019ZM8.64 14.487a6.687 6.687 0 0 1 6.635 5.86H2.004a6.687 6.687 0 0 1 6.635-5.86Z" clip-rule="evenodd"/></svg>