<svg xmlns="http://www.w3.org/2000/svg" fill="none" viewBox="0 0 24 24"><path fill="#62757E" fill-rule="evenodd" d="M17 11.377h-.467c-1.06 1.101-2.603 1.592-2.674 1.614a.83.83 0 0 1-.928-.318.83.83 0 0 1 .02-.979c.165-.221.541-.837.709-1.458C12.598 9.441 12 8.356 12 7.188 12 4.878 14.243 3 17 3s5 1.879 5 4.188c0 2.31-2.243 4.189-5 4.189m0-6.713c-1.838 0-3.334 1.132-3.334 2.524 0 1.008.838 1.65 1.338 1.946.035.02.056.053.087.078.047.038.095.072.132.119.034.041.055.089.08.135.025.048.053.092.068.144.017.056.02.115.025.175.002.039.018.075.016.116q-.002.03-.006.056l-.001.006a4 4 0 0 1-.023.222q.068-.075.128-.151c.01-.014.026-.02.037-.032a1 1 0 0 1 .134-.114q.058-.047.122-.083c.048-.023.098-.035.15-.048.055-.015.107-.03.163-.033.018-.001.033-.01.05-.01h.835c1.838 0 3.332-1.133 3.332-2.526S18.838 4.664 17 4.664m-6.29 12.183 2.496 1.247c.038.018.063.05.095.073.05.034.1.065.141.11.037.04.061.086.09.132.027.045.057.087.077.137.02.056.027.115.035.175.006.04.023.075.023.117v.831c0 .918-.747 1.664-1.666 1.664H3.667c-.92 0-1.667-.746-1.667-1.663v-.832c0-.043.018-.078.023-.118.01-.06.015-.12.036-.175.02-.051.05-.093.078-.139.029-.045.052-.09.09-.13.04-.045.09-.075.14-.11.034-.023.059-.055.096-.074l2.5-1.237a4.7 4.7 0 0 1-.46-2.148l-.003-.016.002-2.495c0-.025.012-.046.013-.07.003-.028-.006-.056 0-.085.01-.055.035-.104.05-.157l.005-.016c.37-1.34 1.939-2.166 3.263-2.166h.005c1.323 0 2.888.826 3.26 2.166l.005.016c.014.053.04.103.05.158.006.028-.003.056 0 .084 0 .024.013.045.013.07l.001 2.495-.003.018a4.7 4.7 0 0 1-.454 2.138m-2.012.166c.01-.043.017-.085.034-.126.01-.028.01-.058.024-.085.023-.047.062-.079.092-.12.01-.012.013-.028.023-.04.697-.801.628-1.87.627-1.88-.002-.02.007-.035.006-.053l-.003-.017-.002-2.372c-.112-.437-.878-.956-1.666-.956-.787.001-1.552.52-1.665.957l-.001 2.371-.004.017c0 .016.007.03.006.046-.002.03-.061 1.096.628 1.886.024.027.032.062.052.09.02.031.05.052.066.086.01.02.007.04.016.059a1 1 0 0 1 .043.162c.01.052.02.101.019.154 0 .053-.01.103-.021.155a1 1 0 0 1-.04.152q-.032.07-.077.134a1 1 0 0 1-.103.134c-.015.015-.021.034-.037.048-.031.027-.07.04-.105.061-.026.017-.044.042-.071.056l-2.873 1.422v.316h8.335v-.318l-2.764-1.38c-.036-.012-.068-.034-.103-.051l-.006-.003-.003-.002c-.058-.03-.119-.056-.17-.101-.028-.024-.04-.055-.064-.081q-.027-.033-.05-.067a.8.8 0 0 1-.11-.193c-.015-.038-.022-.077-.031-.116a1 1 0 0 1-.023-.175c0-.057.01-.112.02-.17" clip-rule="evenodd"/></svg>