<svg xmlns="http://www.w3.org/2000/svg" fill="none" viewBox="0 0 24 24"><path fill="currentColor" fill-rule="evenodd" d="m21.178 12 1.911 1.91a.834.834 0 0 1-1.178 1.18L20 13.177l-1.912 1.911a.833.833 0 1 1-1.178-1.178L18.82 12l-1.91-1.91a.832.832 0 1 1 1.178-1.18L20 10.823l1.91-1.911a.833.833 0 1 1 1.18 1.178L21.177 12Zm-4.511 8.612v.555c0 .46-.374.833-.834.833h-15A.833.833 0 0 1 0 21.167v-.555c0-3.46 2.57-6.474 5.987-7.447A5.834 5.834 0 0 1 2.5 7.833 5.84 5.84 0 0 1 8.333 2a5.84 5.84 0 0 1 5.833 5.833 5.834 5.834 0 0 1-3.487 5.332c3.417.973 5.988 3.988 5.988 7.447ZM12.5 7.833a4.172 4.172 0 0 0-4.167-4.166 4.172 4.172 0 0 0-4.167 4.166A4.172 4.172 0 0 0 8.333 12 4.172 4.172 0 0 0 12.5 7.833ZM8.333 14.5c-3.512 0-6.495 2.644-6.66 5.833h13.32c-.165-3.189-3.148-5.833-6.66-5.833Z" clip-rule="evenodd"/></svg>