<svg xmlns="http://www.w3.org/2000/svg" fill="none" viewBox="0 0 26 26"><path fill="currentColor" fill-rule="evenodd" d="M25.145 5.131h-2.566v2.565a.855.855 0 0 1-1.71 0V5.131h-2.566a.855.855 0 0 1 0-1.71h2.566V.855a.855.855 0 0 1 1.71 0v2.566h2.566a.855.855 0 0 1 0 1.71ZM14.37 14.844c2.27.67 3.845 2.427 3.929 4.638l.02.187a.856.856 0 0 1-.855.855H7.186a.856.856 0 0 1-.855-.855c0-2.298 1.6-4.134 3.936-4.823-1.32-.729-2.226-2.119-2.226-3.729a4.28 4.28 0 0 1 4.276-4.276 4.28 4.28 0 0 1 4.276 4.276c0 1.61-.905 2.998-2.222 3.727Zm-6.21 3.97h8.313c-.438-1.528-2.052-2.566-4.157-2.566-2.104 0-3.719 1.038-4.157 2.566Zm4.156-10.262a2.569 2.569 0 0 0-2.565 2.565 2.569 2.569 0 0 0 2.565 2.566 2.569 2.569 0 0 0 2.566-2.566 2.569 2.569 0 0 0-2.566-2.565Zm2.566-3.42H4.165c-.216 0-.4.182-.4.398v16.305c0 .216.184.4.4.4H20.47a.406.406 0 0 0 .399-.4V11.117a.855.855 0 0 1 1.71 0v10.718c0 1.164-.945 2.11-2.11 2.11H4.166a2.111 2.111 0 0 1-2.11-2.11V5.53c0-1.163.946-2.11 2.11-2.11h10.718a.855.855 0 0 1 0 1.711Z" clip-rule="evenodd"/></svg>