<svg xmlns="http://www.w3.org/2000/svg" fill="none" viewBox="0 0 24 24"><path fill="#62757E" fill-rule="evenodd" d="m19.87 12 1.582 1.581a.69.69 0 0 1-.975.975l-1.581-1.58-1.582 1.58a.689.689 0 1 1-.974-.975L17.92 12l-1.58-1.581a.688.688 0 1 1 .974-.975l1.582 1.58 1.58-1.58a.69.69 0 1 1 .976.975L19.871 12Zm-3.732 7.126v.46a.69.69 0 0 1-.69.689H3.035a.69.69 0 0 1-.69-.69v-.459c0-2.862 2.128-5.357 4.955-6.162a4.827 4.827 0 0 1-2.886-4.412 4.832 4.832 0 0 1 4.827-4.827 4.832 4.832 0 0 1 4.827 4.827 4.828 4.828 0 0 1-2.885 4.412c2.827.805 4.955 3.3 4.955 6.162ZM12.689 8.552a3.452 3.452 0 0 0-3.448-3.448 3.452 3.452 0 0 0-3.448 3.448A3.452 3.452 0 0 0 9.241 12a3.452 3.452 0 0 0 3.448-3.448Zm-3.448 5.517c-2.906 0-5.374 2.188-5.51 4.827h11.02c-.135-2.64-2.603-4.827-5.51-4.827Z" clip-rule="evenodd"/></svg>