<svg xmlns="http://www.w3.org/2000/svg" fill="none" viewBox="0 0 24 24"><path fill="#62757E" fill-rule="evenodd" d="M21.755 21.756a.826.826 0 0 1-.588.244.826.826 0 0 1-.59-.244l-4.974-4.974a8.293 8.293 0 0 1-5.27 1.885C5.739 18.667 2 14.928 2 10.333S5.738 2 10.334 2c4.594 0 8.332 3.738 8.332 8.333a8.29 8.29 0 0 1-1.884 5.27l4.973 4.975a.832.832 0 0 1 0 1.178ZM17 10.333a6.675 6.675 0 0 0-6.666-6.666 6.674 6.674 0 0 0-6.667 6.666A6.674 6.674 0 0 0 10.334 17 6.675 6.675 0 0 0 17 10.333ZM12.833 14.5h-5c-.919 0-1.667-.654-1.667-1.458v-.625c0-.038.017-.07.022-.105.008-.059.014-.114.034-.17a.742.742 0 0 1 .071-.14c.027-.046.052-.09.088-.13a.844.844 0 0 1 .132-.114c.029-.021.048-.05.08-.069l1.509-.841a4.041 4.041 0 0 1-.267-1.543l-.002-.014.001-1.875c0-.022.011-.041.013-.062.001-.026-.007-.05-.003-.077.203-1.2 1.45-1.942 2.489-1.942h.005c1.037 0 2.282.742 2.483 1.944.004.025-.004.048-.002.074.001.022.012.04.012.063l.001 1.875-.002.01c.01.216.003.85-.264 1.54l1.509.85c.032.017.051.047.08.068.047.035.092.07.13.114a.8.8 0 0 1 .09.13c.026.046.052.09.07.14a.813.813 0 0 1 .034.17c.004.035.02.067.02.104v.625c0 .804-.747 1.458-1.666 1.458Zm-1.799-2.607c-.015-.009-.023-.024-.038-.033-.02-.013-.044-.02-.064-.034-.03-.024-.045-.056-.07-.082a.763.763 0 0 1-.105-.121.853.853 0 0 1-.074-.147.79.79 0 0 1-.047-.143.796.796 0 0 1-.013-.166c0-.05 0-.098.01-.147a.813.813 0 0 1 .054-.168c.012-.03.013-.064.03-.094.01-.017.027-.027.038-.044.012-.018.015-.04.029-.057.418-.54.381-1.295.381-1.303 0-.014.006-.026.005-.04 0-.008-.004-.014-.004-.021l-.001-1.763c-.062-.238-.458-.53-.832-.53-.373 0-.767.292-.833.53v1.762l-.003.015c0 .014.006.027.005.041-.001.031-.033.774.38 1.309.018.024.023.052.038.078.009.013.022.02.03.034.013.023.013.05.023.072a.755.755 0 0 1 .07.339.8.8 0 0 1-.012.147.878.878 0 0 1-.06.183c-.016.033-.03.065-.05.097a.823.823 0 0 1-.154.178c-.014.012-.02.029-.035.04-.01.007-.022.01-.032.017-.026.019-.043.045-.071.061l-1.665.93h4.744l-1.673-.94Z" clip-rule="evenodd"/></svg>