<svg xmlns="http://www.w3.org/2000/svg" fill="none" viewBox="0 0 24 24"><path fill="#62757E" fill-rule="evenodd" d="M23 12.833v-1.666h-.952a3.3 3.3 0 0 0-.353-.85l.644-.645-1.178-1.179-.645.646a3.3 3.3 0 0 0-.848-.353v-.953H18v.952q-.455.121-.85.354l-.675-.675-1.178 1.179.675.675a3.3 3.3 0 0 0-.354.849h-.952v1.665h.952q.12.454.354.85l-.704.703 1.179 1.178.703-.703q.395.236.85.354v.951l1.666.002v-.953a3.3 3.3 0 0 0 .848-.353l.676.674 1.177-1.18-.674-.673q.235-.394.354-.85zm-5.832-.834c0-.918.747-1.666 1.665-1.666.92 0 1.667.748 1.667 1.666 0 .92-.747 1.667-1.667 1.667a1.67 1.67 0 0 1-1.665-1.667M9.55 2.95a5.306 5.306 0 0 0-5.3 5.301 5.3 5.3 0 0 0 3.04 4.79C4.264 13.96 2 16.657 2 19.75v.5a.8.8 0 0 0 .8.8h13.5a.8.8 0 0 0 .8-.8v-.5c0-3.093-2.264-5.79-5.29-6.71a5.3 5.3 0 0 0 3.04-4.79c0-2.923-2.377-5.3-5.3-5.3m-3.7 5.3c0-2.04 1.66-3.7 3.7-3.7s3.7 1.66 3.7 3.7-1.66 3.7-3.7 3.7-3.7-1.659-3.7-3.7m3.7 6.051c3.119 0 5.764 2.333 5.94 5.15H3.61c.176-2.817 2.821-5.15 5.94-5.15" clip-rule="evenodd"/></svg>