<svg xmlns="http://www.w3.org/2000/svg" fill="none" viewBox="0 0 24 24"><path fill="currentColor" fill-rule="evenodd" d="M21.166 10.505h-3.821l-2.256 2.258a.832.832 0 0 1-1.423-.59v-1.668h-.834a.834.834 0 0 1-.834-.834V3.834c0-.46.374-.834.834-.834h8.334c.46 0 .834.373.834.834v5.837a.834.834 0 0 1-.834.834Zm-.833-5.837H13.64v4.166l.86.004c.46 0 .833.373.833.833v.489l1.077-1.078a.843.843 0 0 1 .59-.244h3.333v-4.17Zm-7.126 13.418c.038.019.062.05.095.075.049.034.1.065.14.108.036.04.06.087.09.133.027.045.057.086.076.137.022.056.027.115.035.176.006.039.024.075.024.117v.834A1.67 1.67 0 0 1 12 21.333H3.666A1.668 1.668 0 0 1 2 19.666v-.834c0-.043.018-.079.024-.12.009-.06.014-.118.035-.175.02-.05.05-.092.078-.137.029-.046.052-.093.09-.132.04-.044.09-.074.138-.108.035-.024.06-.057.098-.076l2.5-1.24a4.731 4.731 0 0 1-.46-2.154l-.003-.015.002-2.502c0-.025.012-.046.014-.07.002-.028-.007-.056-.002-.085.011-.055.036-.104.05-.158l.006-.015c.37-1.343 1.938-2.172 3.263-2.172h.005c1.382 0 3.041.896 3.314 2.346a.8.8 0 0 1-.025.381v2.094c.008.038.028.07.031.11a4.78 4.78 0 0 1-.455 2.23l2.504 1.252Zm-4.51-1.083a.822.822 0 0 1 .035-.127c.01-.029.01-.058.023-.085.023-.047.062-.078.092-.119.01-.013.013-.03.025-.042.696-.803.627-1.874.626-1.884-.002-.02.007-.036.006-.055 0-.006-.004-.01-.004-.016v-2.377c-.114-.44-.88-.959-1.667-.959-.787.001-1.552.52-1.665.959l-.001 2.377c0 .006-.004.011-.004.017 0 .017.007.031.006.048-.002.029-.061 1.097.628 1.89.024.027.031.062.052.09.02.03.049.052.066.087.009.018.007.039.016.058a.84.84 0 0 1 .043.163c.01.052.02.101.019.154 0 .053-.01.103-.021.155a.731.731 0 0 1-.041.153.842.842 0 0 1-.076.133.778.778 0 0 1-.104.135c-.014.015-.02.034-.036.048-.031.027-.07.04-.104.061-.026.017-.044.043-.072.057l-2.873 1.425v.317H12v-.32l-2.764-1.382c-.035-.012-.067-.033-.1-.05l-.008-.004c-.001-.001-.002-.003-.004-.003-.058-.03-.118-.056-.17-.1-.027-.024-.04-.056-.062-.082-.02-.021-.035-.044-.052-.067a.821.821 0 0 1-.109-.193c-.015-.038-.022-.077-.032-.117a.88.88 0 0 1-.022-.175c-.001-.057.01-.112.02-.17Z" clip-rule="evenodd"/></svg>