<svg xmlns="http://www.w3.org/2000/svg" fill="none" viewBox="0 0 25 24"><path fill="currentColor" fill-rule="evenodd" d="m24.013 9.15-4.143 5.832a.831.831 0 0 1-.606.348l-.072.003a.835.835 0 0 1-.587-.24l-2.524-2.501a.833.833 0 1 1 1.172-1.184l1.827 1.809 3.574-5.033a.834.834 0 0 1 1.358.965Zm-13.327 4.017c3.414.975 5.98 3.988 5.98 7.445v.555c0 .46-.372.833-.832.833h-15A.834.834 0 0 1 0 21.167v-.555c0-3.457 2.567-6.47 5.98-7.445A5.839 5.839 0 0 1 2.5 7.833 5.84 5.84 0 0 1 8.334 2a5.84 5.84 0 0 1 5.833 5.833 5.839 5.839 0 0 1-3.48 5.334Zm-9.012 7.166h13.319c-.165-3.189-3.147-5.833-6.66-5.833-3.511 0-6.494 2.644-6.659 5.833Zm6.66-16.666a4.171 4.171 0 0 0-4.167 4.166A4.171 4.171 0 0 0 8.334 12 4.171 4.171 0 0 0 12.5 7.833a4.171 4.171 0 0 0-4.166-4.166Z" clip-rule="evenodd"/></svg>