<svg xmlns="http://www.w3.org/2000/svg" fill="none" viewBox="0 0 24 24"><path fill="#62757E" fill-rule="evenodd" d="M18.618 3.223a.762.762 0 0 1 1.078 1.078L5.352 18.645a.76.76 0 0 1-.108.09l-.18.18.014-.094a.762.762 0 0 1-.804-1.254l5.08-5.08A5.218 5.218 0 0 1 7.25 8.3a5.235 5.235 0 0 1 5.23-5.23c1.712 0 3.234.828 4.189 2.103l1.95-1.95Zm-3.022 3.022a3.735 3.735 0 1 0-5.172 5.173l5.172-5.173ZM5.754 21a.744.744 0 0 1-.46-.16l1.334-1.334h11.82c-.147-2.86-2.82-5.23-5.97-5.23-.22 0-.44.012-.655.035l5.883-5.883a5.235 5.235 0 0 1-3.119 4.653c3.06.874 5.362 3.575 5.362 6.674v.498a.747.747 0 0 1-.747.747H5.754Z" clip-rule="evenodd"/></svg>