<svg xmlns="http://www.w3.org/2000/svg" fill="none" viewBox="0 0 24 24"><path fill="#697284" fill-rule="evenodd" d="M19.182 2.17a.85.85 0 0 1 1.202 1.203l-16 16a.853.853 0 0 1-.12.1l-.2.2.014-.104a.85.85 0 0 1-.896-1.398l5.667-5.667A5.82 5.82 0 0 1 6.5 7.834 5.84 5.84 0 0 1 12.333 2c1.91 0 3.61.923 4.674 2.346l2.175-2.175Zm-3.37 3.371a4.167 4.167 0 0 0-3.479-1.874 4.171 4.171 0 0 0-4.166 4.166 4.17 4.17 0 0 0 1.874 3.479l5.77-5.77ZM4.833 22a.83.83 0 0 1-.514-.178l1.489-1.489h13.185c-.165-3.189-3.147-5.833-6.66-5.833-.246 0-.49.013-.73.038l6.562-6.562a5.84 5.84 0 0 1-3.48 5.19c3.415.976 5.982 3.988 5.982 7.445v.556c0 .46-.374.833-.834.833h-15Z" clip-rule="evenodd"/></svg>