<svg xmlns="http://www.w3.org/2000/svg" fill="none" viewBox="0 0 24 24"><path fill="#697284" fill-rule="evenodd" d="M8.79 2.354a5.647 5.647 0 0 0-2.463 10.73 8.064 8.064 0 0 0-5.594 7.462c-.017.616.482 1.1 1.073 1.1h13.967c.592 0 1.09-.484 1.074-1.1a8.064 8.064 0 0 0-5.594-7.462A5.648 5.648 0 0 0 8.79 2.354ZM4.913 8a3.877 3.877 0 1 1 7.754 0 3.877 3.877 0 0 1-7.754 0Zm10.755-3.993a.859.859 0 1 0 0 1.717 3.514 3.514 0 0 1 .502 6.993 7.754 7.754 0 0 0-.52-.017.841.841 0 0 0-.84.876v.036c0 .474.384.858.858.858.235 0 .466-.015.693-.045a5.94 5.94 0 0 1 5.167 5.053h-2.364a.841.841 0 1 0 0 1.683h3.084a1.02 1.02 0 0 0 1.02-1.045 7.621 7.621 0 0 0-4.426-6.718 5.232 5.232 0 0 0-3.174-9.392ZM8.79 14.47a6.291 6.291 0 0 1 6.228 5.405H2.562A6.291 6.291 0 0 1 8.79 14.47Z" clip-rule="evenodd"/></svg>