<svg xmlns="http://www.w3.org/2000/svg" fill="none" viewBox="0 0 24 24"><g clip-path="url(#a)"><path fill="#112451" d="M12 24a12 12 0 1 1 0-24 12 12 0 0 1 0 24Z" opacity=".98"/><path fill="#2844AD" d="M12.441 13.32s-1.422.745-1.354 1.916c.068 1.172 1.639 2.953 2.587 2.6.948-.351 3.589-1.882 3.86-3.385.27-1.503-2.357-2.248-2.357-2.248l-2.736 1.117Zm3.67-6.385a5.973 5.973 0 0 0-6.284-.786L8.29 8.343a1.55 1.55 0 0 0 1.043 1.043c.88.291 4.692-1.178 4.692-1.178l2.086-1.273Z"/><path fill="#5493F7" d="M6.096 9.088s1.286-2.364 3.006-2.912c1.72-.549 1.477 1.171 0 1.869-1.476.697-2.404 1.097-3.006 1.043Zm-.244.732s-1.977 5.546 3.44 8.071c0 0 .42-2.214-.345-3.616a17.707 17.707 0 0 0-2.045-3.155 12.87 12.87 0 0 1-1.05-1.3Zm11.864 5.363s-1.415 2.708-3.46 2.708a.394.394 0 0 1-.244-.528c.129-.393 1.409-1.788 3.704-2.18Zm-1.557-8.208a5.689 5.689 0 0 1 1.794 2.323 7.104 7.104 0 0 1 .257 4.74c-.345.915-.88.678-2.031.434-1.151-.244-5.533-1.476-6.664-2.98-1.13-1.503-.257-2.709 1.206-3.487 1.462-.779 4.47-1.626 5.438-1.03Z"/><path fill="#3C3B6E" d="m10.071 16.327-.102-2.424 3.278-.197v2.391s0 .102 0 0l-3.183.19s.027.054.007.04Z"/><path fill="#B12234" d="M18.38 17.58v.332s0 .108 0 0l-8.194.494v-.325h.054l8.126-.488s-.006-.027.014-.013Z"/><path fill="#FEFEFE" d="M18.38 17.58h-.034l-8.18.494v-.352h.054l8.126-.487a.081.081 0 0 1 .054 0l-.02.345Zm-.04-1.043v.352h-.041l-8.126.494a.081.081 0 0 1-.055 0v-.352h.061l8.126-.494h.034Z"/><path fill="#B12234" d="m18.34 16.537-8.195.495v-.346l8.126-.494h.061l.007.345Z"/><path fill="#FEFEFE" d="M18.333 16.178h-.034l-8.187.494v-.352l3.243-.19h.082l4.841-.29h.055v.338Z"/><path fill="#B12234" d="m10.112 17.377 8.187-.495v.346l-8.187.494v-.346Zm3.189-3.346v-.352l4.923-.298v.332h-.06l-4.809.318s-.04.014-.054 0Z"/><path fill="#FEFEFE" d="m13.301 14.032.596-.041 4.314-.257v.345l-4.856.305a.04.04 0 0 1-.054 0v-.352Zm.054 1.746v-.352h.054l4.835-.298h.055v.352l-4.849.292s-.095.02-.095.006Z"/><path fill="#B12234" d="m18.292 15.129-4.937.298v-.353h.054l4.835-.29h.055l-.007.345Z"/><path fill="#FEFEFE" d="m18.278 14.777-.988.06-3.935.238v-.346l4.856-.291h.047l.02.339Z"/><path fill="#B12234" d="m13.355 15.779 4.91-.298v.345l-4.896.291-.014-.338Zm4.917-1.355h-.034l-4.883.305v-.352l1.517-.088 3.386-.21.014.345Z"/><path fill="#FDFDFD" d="M12.448 15.562v-.115a.142.142 0 0 1-.054-.041h.074v-.081.06c0 .021 0 .034.048 0h.054l-.054.048a.513.513 0 0 0 0 .075l-.068-.041v.095Zm-1.693-.054h.095a.149.149 0 0 1 0-.068v.074s0 .027 0 0h.08s0 .034-.053.04c-.055.008 0 0 0 .055a.31.31 0 0 1 0 .061l-.061-.04a.208.208 0 0 1-.061.047.31.31 0 0 0 0-.075v-.034l-.061-.04.06-.02Zm.995-.644-.06-.04-.062.054a.687.687 0 0 1 0-.081l-.06-.048h.074a.552.552 0 0 1 0-.08v.06h.101l-.054.047a.04.04 0 0 0 0 .034.242.242 0 0 1 .061.054Zm.84-.934-.047.033a.034.034 0 0 0-.014.027.033.033 0 0 0 .014.027v.062l-.068-.041-.061.054v-.081l-.061-.048h.102a.248.248 0 0 1 0-.067v.04c0 .04 0 .048.06.04h.048l.027-.046Zm-2.14.86h.075v-.075a.331.331 0 0 1 0 .075h.074a.162.162 0 0 1-.054.04v.115l-.061-.04h-.034l-.06.047a.197.197 0 0 1 0-.068v-.047h-.048l.108-.047Zm1.89-.109-.062.048a.19.19 0 0 1 0 .074l-.06-.04h-.034a.243.243 0 0 1-.061.054v-.081c0-.02 0 0 0 0a.183.183 0 0 1-.055-.048h.068a.344.344 0 0 1 0-.074v.054c0 .04 0 .04.048.034h.054l.101-.02Z"/><path fill="#FDFDFE" d="M13.064 15.27a.515.515 0 0 1 0 .075h.074l-.054.04v.041a.115.115 0 0 1 0 .068l-.06-.04a.148.148 0 0 1-.062.047v-.108a.142.142 0 0 1-.054-.041h.075l.081-.082Zm-1.74.204h.068a.31.31 0 0 1 0-.075v.068h.101l-.054.047v.034a.545.545 0 0 1 0 .075l-.06-.04-.062.053v-.08a.041.041 0 0 0 0-.035h-.054l.06-.047Z"/><path fill="#FDFDFD" d="M10.267 13.97a.695.695 0 0 0 0 .068h.068l-.048.04v.048a.637.637 0 0 1 0 .068l-.067-.048-.061.041v-.068l-.068-.04h.108a.367.367 0 0 1 .068-.109Zm1.179.177-.061-.041-.061.054a.687.687 0 0 1 0-.081l-.061-.048h.06v-.067a.331.331 0 0 1 0 .074h.075l-.06.048v.034a.196.196 0 0 1 .108.027Zm.467-.279a.515.515 0 0 1 0 .075h.074l-.06.054v.075l-.055-.04h-.047l-.047.04a.202.202 0 0 1 0-.068v-.04l-.061-.041h.08l.116-.055Zm1.063.062ZM11.9 15.582v-.068l-.068-.047h.074v-.075.075s0 .02 0 0h.082l-.061.054a.515.515 0 0 0 0 .074l-.068-.04-.054.047.095-.02Zm-.786-.928c0 .061 0 .061.088.061l-.054.047a.245.245 0 0 1 0 .075l-.061-.04h-.034l-.054.047a.245.245 0 0 1 0-.075l-.061-.047h.067l.109-.068Z"/><path fill="#FDFDFE" d="M10.213 16.029h.081v-.081a.695.695 0 0 0 0 .067h.075l-.061.055a.515.515 0 0 0 0 .074l-.068-.04-.06.047v-.075l.033-.047Zm1.707.047v-.067c0-.02 0 0 0 0l-.068-.048h.081l.068-.101a.331.331 0 0 1 0 .074.115.115 0 0 1 .068 0l-.061.048a.331.331 0 0 1 0 .074L12 16.03h-.034l-.054.04.007.007Zm1.164-.318v.081s0 .027 0 0h.082l-.061.054v.109l-.068-.048-.061.055v-.082l-.014-.067h.075a.472.472 0 0 1 .047-.102Z"/><path fill="#FEFEFE" d="M10.965 14.505a.246.246 0 0 0-.061.054.331.331 0 0 1 0 .075l-.068-.04-.068.054a.479.479 0 0 0 0-.082l-.067-.047a.273.273 0 0 1 .074 0l.034-.034a.2.2 0 0 1 0-.06.14.14 0 0 1 0 .067l.156.013Zm1.605.068-.068-.048-.061.055v-.082l-.068-.047h.054c.04 0 .04 0 .054-.048v-.054.082h.075l-.061.054.074.088Zm-1.924.847v-.041h-.04l-.054.047v-.081c0-.027 0 0 0 0l-.061-.047h.074a.183.183 0 0 1 0-.082v.075h.082l-.068.054a.784.784 0 0 1 .067.074Zm1.464-.238h.08v-.08a.515.515 0 0 1 0 .074h.075l-.06.054a.58.58 0 0 0 0 .081l-.062-.047h-.034l-.06.047v-.108l.06-.02Zm-.854-.677h.068s.033 0 .04-.034v-.067.08s0 .028 0 0h.081l-.06.055a.331.331 0 0 1 0 .075l-.061-.041a.246.246 0 0 1-.061.054v-.081c0-.027 0 0 0 0l-.007-.04Z"/><path fill="#FDFDFE" d="M10.762 15.995h.067s.034 0 .041-.034a.295.295 0 0 1 0-.067.513.513 0 0 1 0 .074h.075l-.062.054a.515.515 0 0 0 0 .075l-.067-.04-.061.053v-.114h.007Zm1.855.048-.06-.047-.069.054v-.109l-.067-.047h.08a.156.156 0 0 1 0-.075v.048c0 .04 0 .04.062.04h.115l-.061.055v.081Z"/><path fill="#FEFEFE" d="M11.012 15.244h.068v-.102.082s0 .027 0 0h.081l-.06.054a.515.515 0 0 0 0 .074l-.068-.04a.48.48 0 0 1-.061.047v-.075l.04-.04Zm.548-.062h.082v-.08.074h.075l-.062.054v.068l-.06-.034h-.041l-.054.047v-.081c0-.027 0 0 0 0l.06-.048Zm1.308.108-.061-.047h-.034l-.061.048a.545.545 0 0 1 0-.075l-.034-.034h.081v-.08.06s0 .04.04.034h.062l-.054.047v.041l.06.007Zm-.806-.846-.061.061v.082l-.061-.048h-.04l-.055.048a.239.239 0 0 1 0-.075v-.034l-.06-.04h.067v-.075.075l.21.006Zm-1.842.264a.29.29 0 0 1 0-.074l-.068-.048h.061c.034 0 .034 0 .047-.047a.288.288 0 0 1 0-.054v.074h.082l-.068.055a.245.245 0 0 1 0 .074l-.061-.04h-.034a.184.184 0 0 1 .04.06Zm1.605.982s-.061.034-.068.061a.646.646 0 0 0 0 .088l-.06-.047h-.035l-.06.047v-.081c0-.027 0 0 0 0l-.062-.04h.075v-.075a.284.284 0 0 1 0 .067h.034l.176-.02Zm-1.097-.67h.075v-.081a.552.552 0 0 1 0 .08h.08l-.06.055a.58.58 0 0 0 0 .081l-.061-.047h-.034l.054.074v-.08l-.054-.082Zm.494-.765-.054.047v.109l-.068-.048-.054.048v-.082l-.06-.04h.074v-.082.082s0 .027 0 0h.074l.088-.034Zm1.646-.095-.048.04v.041a.202.202 0 0 1 0 .068l-.06-.04h-.034l-.061.053a.649.649 0 0 1 0-.081v-.034l-.054-.04h.067v-.075a.331.331 0 0 1 0 .074h.068l.122-.006Zm-2.635 1.022v-.08c0-.028 0 0 0 0l-.06-.041h.074v-.082.075s0 .02 0 0h.068l-.034.04c-.034.041 0 0 0 .068v.054l-.068-.047.02.013Zm1.647-.081v-.108a.162.162 0 0 1-.062-.04h.068a.545.545 0 0 0 0-.075v.08h.081l-.068.055v.081l.102-.047-.122.054Zm.798.536h.061v-.068.074s0 .027 0 0h.068a.088.088 0 0 1-.048.041v.047a.637.637 0 0 1 0 .068l-.054-.034h-.054l-.047.04a.193.193 0 0 1 0-.067v-.04l.074-.055v-.006Zm-.305.02-.054.047v.034a.515.515 0 0 0 0 .075l-.06-.041h-.041l-.054.047v-.081a.238.238 0 0 1-.062-.04h.075a.421.421 0 0 1 0-.075.256.256 0 0 1 0 .068h.04l.156-.034Zm-1.09.061-.06.054v.034a.187.187 0 0 1 0 .074l-.042-.02h-.04l-.061.047V15.8l-.068-.04h.109l.162-.041Zm-.683-.055a.58.58 0 0 1 0 .082h.074l-.061.054a.55.55 0 0 1 0 .081l.034-.02a.241.241 0 0 1-.062.054v-.081c0-.027 0 0 0 0l-.067-.041h.081s-.007-.095 0-.129Zm1.008-1.428a.402.402 0 0 1 0-.075.33.33 0 0 1 0 .075Zm.589-.143a.552.552 0 0 1 0 .081h.075l-.054.048v.074l-.061-.04-.061.047a.198.198 0 0 1 0-.068v-.047l-.048-.034h.068s.075-.027.081-.061Zm-.914.894h.075v-.081.054a.04.04 0 0 0 .054.034h.047l-.054.047a.441.441 0 0 1 0 .075l-.068-.048-.06.054v-.08l.006-.055Zm1.889-.108-.054.04v.109l-.06-.04-.055.047a.239.239 0 0 1 0-.075.041.041 0 0 0 0-.034.162.162 0 0 1-.06-.04h.074a.177.177 0 0 1 0-.075v.068h.155Z"/></g><defs><clipPath id="a"><path fill="#fff" d="M0 0h24v24H0z"/></clipPath></defs></svg>