<svg xmlns="http://www.w3.org/2000/svg" fill="none" viewBox="0 0 24 24"><g clip-path="url(#a)"><path fill="#30367A" d="M12 24c6.627 0 12-5.373 12-12S18.627 0 12 0 0 5.373 0 12s5.373 12 12 12"/><path fill="#fff" d="M10.93 16.094V7.468H8.424V5.5h7.15v1.968H13.07v8.626zm-.577 2.406c-1.293 0-1.905-.621-1.905-1.936V8.032h1.881v8.445c0 .208.069.277.273.277h2.82c.204 0 .273-.07.273-.277V8.032h1.88v8.532c0 1.315-.612 1.936-1.905 1.936z"/></g><defs><clipPath id="a"><path fill="#fff" d="M0 0h24v24H0z"/></clipPath></defs></svg>