<svg xmlns="http://www.w3.org/2000/svg" fill="none" viewBox="0 0 24 24"><path fill="#222" d="M20.987 13.28a2.353 2.353 0 0 0-.278-.85c-.539-1.016-1.807-3.151-2.033-3.545a1.9 1.9 0 0 1-.225-.498c-.087-.249-.122-.497-.14-.56-.017-.103-.017-.103-.034-.186 0-.042-.052-.332-.174-.58-.104-.229-.226-.374-.313-.498-.73-.83-1.736-1.435-1.962-2.136a1.93 1.93 0 0 0-.126-.293c-.006-.011-.065-1.67-.071-1.681-.361-.67-1.106.189-1.714.295-1.894.332-3.094 1.635-4.745 2.92-.11.092-.575.666-1.361 1.392-.524.485-1.252 1.656-2.184 3.513l-.377 1.66-.629 2.106c.017.123.048.504.095 1.143.12 1.66.923 3.486 1.131 4.357.556-.207 5.172.837 7.291 1.23.338.06.73.093 1.18.063.126-.009-1.589-3.36-5.146-10.055 4.008 6.617 6.059 9.913 6.15 9.89a7.627 7.627 0 0 0 1.916-.81c-.324-.096-1.96-2.313-4.906-6.651-.327-.582-.491-1.144-.491-1.688 0-.613.235-1.294.705-2.043.02.46.068.837.146 1.13.117.44 1.574 2.23 2.024 2.395.727.268.425-.188 1.537.206.208.062.451.166.712.414.33.311.672.704.672.704.052.103.07.145.122.27.069.144.518.75.709.915.191.166.365.249.486.29a.952.952 0 0 0 .209.062c.243.063.451.042.556.042.118-.02.624-.547.722-.62.076-.059-5.48-4.487-5.464-4.506.021-.029.634-.515 1.276.437 2.088 3.098 4.163 4.11 4.188 4.068.079-.131.134-.249.164-.312.156-.332.208-.622.295-1.099.087-.332.121-.58.087-.891Zm-4.31-8.123c.047.027.047-.059.018-.164-.029-.106-.103-1.708-.11-1.719-.165-.308-.42-.371-.69-.175-.028.02-.02.36.024 1.023.27.553.523.897.758 1.035Zm.425 3.642-.992-.517c-.196-.178-.318-.475-.318-.802v-.416c0-.179.336-.342.414-.193l1.056 1.768c.172.268.094.268-.16.16Zm3.606 4.872c-.035.24-.015.132-.03.207-.031.133-.087.421-.117.535-.048.106-.13.106-.153.014 0-.037-.103-.382-.164-.533-.046-.114.105-.506.212-.582.115-.069.287.12.252.359Z"/><path fill="#222" d="M9.431 10.878s-.922-.77-3.204.356c-1.474.728-1.952 2.276-2.923 3.592-.97 1.316-1.495 1.26-1.495 1.26s2.132.807 4.092-.324c1.96-1.132 2.809-4.884 2.809-4.884h.721Z"/><path fill="#414141" fill-rule="evenodd" d="M1.81 16.085c.461.069 1.09.046 1.882-.069 1.19-.17 1.67-.459 1.886-.501.143-.029.363-.029.66 0a3.45 3.45 0 0 1-.888.501c-.463.175-.708.266-1.22.323-.512.058-.822.038-1.442-.033-.414-.047-.707-.12-.879-.221Z" clip-rule="evenodd"/><path fill="#222" d="M7.683 9.26C6 9.617 4.98 10.883 3.57 11.853c-1.41.97-1.894.82-1.894.82s1.757 1.116 4.05.498c2.295-.62 4.559-4.464 1.957-3.911Z"/><path fill="#414141" fill-rule="evenodd" d="M1.676 12.672c.433.157.818.254 1.153.29.503.056.692-.067 1.064.073.249.093.368.203.359.33a3.897 3.897 0 0 1-.688-.048c-.425-.06-.437-.07-.775-.159-.338-.088-.301-.076-.592-.198a2.582 2.582 0 0 1-.52-.288Z" clip-rule="evenodd"/><path fill="#222" d="M9.49 7.167c-1.758.024-3.242 1.17-4.983 1.913-1.74.743-2.146.478-2.146.478s1.245 1.58 3.696 1.406c2.45-.175 6.155-3.835 3.434-3.797Z"/><path fill="#414141" fill-rule="evenodd" d="M2.361 9.558c.321.123.627.242.918.355.435.17.587.17.82.392.156.148.391.346.705.594-.437-.078-.76-.166-.969-.263-.313-.146-.344-.168-.602-.331s-.37-.263-.57-.437a2.06 2.06 0 0 1-.302-.31Zm12.008 11.585a53.05 53.05 0 0 0-1.273-2.63 845.114 845.114 0 0 0-2.297-4.369l-1.627-3.067 1.823 9.574 2.552.492h.822Zm2.869-.985c-.692-.832-1.66-2.108-2.902-3.826-1.242-1.718-1.905-2.662-1.987-2.832l-.203-.468a3.915 3.915 0 0 1-.235-.725l-.003-.014a2.197 2.197 0 0 1-.035-.726c.029-.243.094-.48.192-.704l.49-1.106-1.135 1.815 3.903 9.394c.194-.03.511-.138.95-.325.439-.186.76-.347.965-.483Z" clip-rule="evenodd"/><path fill="#414141" fill-rule="evenodd" d="M12.545 9.775c.005.205.106.456.305.754.297.447 1.375 1.834 1.76 2.204.257.247.647.458 1.168.634a2.077 2.077 0 0 0-.24-.031c-.079 0-.166.018-.273.034-.233.037-.282.02-.55-.07-.267-.088-.801-.706-1.349-1.335-.547-.628-.618-.767-.698-1.073-.053-.204-.094-.576-.123-1.117Zm5.042 3.435-2.768-2.182.496.155 2.272 2.028Zm-.957-8.085-.614-2.099a.84.84 0 0 0-.098.046c-.032.017-.058.022-.076.014a5.166 5.166 0 0 0 0 .487c.008.191.022.38.042.569.088.193.212.397.372.612.16.215.285.339.375.37Zm-.86 1.13 1.722 2.791-1.45-2.63-.272-.161Zm4.37 7.444c.18.3.29.505.33.618a.412.412 0 0 1 0 .313" clip-rule="evenodd"/><path fill="#222" d="M15.534 5.31c.657.341.94.252 1.477.288.623.042 1.198.417 1.198.417s-.493-.108-.88-.09c-1.06.047-1.806.381-2.853.144-1.53-.348 0-1.31 1.058-.76Z"/><path fill="#222" d="M15.004 5.98c.657-.343.94-.253 1.477-.289.624-.042 1.198-.417 1.198-.417s-.493.108-.88.09c-1.06-.048-1.806-.382-2.853-.144-1.53.347 0 1.31 1.058.76Z"/><path fill="#222" d="M16.526 6.334c.498.38 1.573 0 1.573 0s-.452-.085-.732-.353c-.288-.275-.868-.274-1.09-.539-.373-.443-.18.566.249.892Z"/></svg>