<svg xmlns="http://www.w3.org/2000/svg" fill="none" viewBox="0 0 24 24"><path fill="#222" d="M20.987 13.28a2.35 2.35 0 0 0-.278-.85c-.539-1.016-1.807-3.151-2.033-3.545a1.896 1.896 0 0 1-.225-.498c-.087-.249-.122-.497-.14-.56-.017-.103-.017-.103-.034-.186 0-.042-.052-.332-.174-.58-.104-.229-.226-.374-.313-.498-.73-.83-1.736-1.435-1.962-2.136a1.932 1.932 0 0 0-.126-.293c-.006-.011-.065-1.67-.071-1.681-.361-.67-1.106.189-1.714.295-1.894.332-3.095 1.635-4.745 2.92-.11.092-.575.666-1.361 1.392-.524.485-1.252 1.656-2.184 3.513l-.377 1.66-.63 2.106c.018.123.05.504.095 1.143.121 1.66.924 3.486 1.132 4.357.556-.207 5.172.837 7.291 1.23.337.06.73.093 1.18.063.126-.009-1.589-3.36-5.146-10.055 4.008 6.617 6.058 9.913 6.15 9.89a7.627 7.627 0 0 0 1.916-.81c-.325-.096-1.96-2.313-4.906-6.651-.328-.582-.491-1.144-.491-1.688 0-.613.235-1.294.705-2.043.02.46.068.837.146 1.13.117.44 1.574 2.23 2.024 2.395.727.268.425-.188 1.537.206.208.062.451.166.712.414.33.311.672.704.672.704.052.103.07.145.121.27.07.144.519.75.71.915.19.166.365.249.486.29a.953.953 0 0 0 .209.062c.243.063.451.042.555.042.12-.02.625-.547.723-.62.075-.059-5.48-4.487-5.464-4.506.021-.029.634-.515 1.276.437 2.088 3.098 4.163 4.11 4.188 4.068a3.12 3.12 0 0 0 .163-.312c.157-.332.209-.622.296-1.099.087-.332.121-.58.087-.891Zm-4.31-8.123c.047.027.047-.059.018-.164-.029-.106-.103-1.708-.11-1.719-.166-.308-.42-.371-.69-.175-.028.02-.02.36.024 1.023.27.553.523.897.758 1.035Zm.425 3.642-.992-.517c-.196-.178-.318-.475-.318-.802v-.416c0-.179.336-.342.414-.193l1.056 1.768c.172.268.094.268-.16.16Zm3.606 4.872c-.035.24-.016.132-.03.207-.031.133-.087.421-.118.535-.047.106-.129.106-.152.014 0-.037-.103-.382-.164-.533-.046-.114.105-.506.212-.582.115-.069.287.12.252.359Z"/><path fill="#222" d="M9.431 10.878s-.922-.77-3.204.356c-1.475.729-1.952 2.276-2.923 3.592-.97 1.316-1.495 1.26-1.495 1.26s2.132.807 4.092-.324C7.86 14.63 8.71 10.878 8.71 10.878h.721Z"/><path fill="#414141" fill-rule="evenodd" d="M1.809 16.085c.462.069 1.09.046 1.883-.069 1.19-.17 1.67-.459 1.886-.501.143-.028.363-.028.66 0a3.449 3.449 0 0 1-.888.502c-.463.174-.708.265-1.22.322-.513.058-.822.038-1.442-.033-.414-.047-.707-.12-.879-.22Z" clip-rule="evenodd"/><path fill="#222" d="M7.682 9.26c-1.681.357-2.702 1.623-4.112 2.593-1.41.97-1.894.82-1.894.82s1.756 1.116 4.05.498c2.295-.62 4.559-4.464 1.956-3.911Z"/><path fill="#414141" fill-rule="evenodd" d="M1.676 12.672c.433.157.817.254 1.153.29.503.056.691-.067 1.064.073.249.093.368.203.358.33a3.897 3.897 0 0 1-.688-.048c-.425-.06-.436-.07-.775-.159-.338-.088-.3-.076-.591-.198a2.582 2.582 0 0 1-.521-.288Z" clip-rule="evenodd"/><path fill="#222" d="M9.49 7.167c-1.758.024-3.242 1.17-4.983 1.914-1.74.742-2.146.477-2.146.477s1.245 1.581 3.696 1.406c2.45-.175 6.155-3.835 3.434-3.797Z"/><path fill="#414141" fill-rule="evenodd" d="m2.361 9.558.917.355c.436.17.588.17.821.392.156.148.39.346.705.594-.437-.078-.76-.166-.97-.263-.312-.145-.343-.168-.601-.33-.258-.164-.371-.264-.571-.438a2.06 2.06 0 0 1-.3-.31Zm12.007 11.585c-.416-.923-.84-1.8-1.272-2.63a845.114 845.114 0 0 0-2.297-4.369l-1.627-3.067 1.823 9.574 2.552.492h.821Zm2.87-.985c-.692-.832-1.659-2.108-2.902-3.826-1.242-1.718-1.905-2.662-1.987-2.832l-.203-.467a3.923 3.923 0 0 1-.234-.726l-.004-.014a2.199 2.199 0 0 1-.035-.726c.029-.243.094-.48.193-.703l.489-1.107-1.135 1.815 3.903 9.395c.194-.03.511-.139.95-.325.439-.187.76-.348.965-.484Z" clip-rule="evenodd"/><path fill="#414141" fill-rule="evenodd" d="M12.546 9.775c.004.205.105.456.304.754.298.447 1.375 1.834 1.76 2.204.258.247.647.458 1.168.634a2.099 2.099 0 0 0-.24-.031c-.079 0-.166.018-.273.034-.233.037-.282.02-.55-.07-.266-.088-.801-.706-1.348-1.335-.548-.628-.619-.767-.699-1.073-.052-.204-.093-.576-.122-1.117Zm5.041 3.435-2.768-2.182.496.155 2.272 2.027Zm-.957-8.085-.614-2.099a.837.837 0 0 0-.097.046c-.033.017-.059.022-.077.014a5.166 5.166 0 0 0 0 .487c.008.191.022.38.042.569.088.193.212.397.372.612.16.215.285.339.375.37Zm-.86 1.129 1.721 2.792-1.45-2.63-.27-.162Zm4.37 7.445c.179.3.29.505.33.618a.412.412 0 0 1 0 .313" clip-rule="evenodd"/><path fill="#222" d="M15.533 5.31c.658.342.941.252 1.477.288.624.042 1.199.417 1.199.417s-.493-.108-.88-.09c-1.06.048-1.806.382-2.853.144-1.53-.347 0-1.31 1.057-.76Z"/><path fill="#222" d="M15.004 5.98c.657-.343.94-.253 1.477-.289.624-.042 1.198-.417 1.198-.417s-.493.108-.88.09c-1.06-.048-1.806-.382-2.853-.144-1.53.347 0 1.31 1.058.76Z"/><path fill="#222" d="M16.526 6.334c.498.379 1.573 0 1.573 0s-.452-.085-.732-.353c-.288-.275-.868-.274-1.09-.539-.373-.443-.18.566.249.892Z"/></svg>