<svg xmlns="http://www.w3.org/2000/svg" fill="none" viewBox="0 0 24 24"><g clip-path="url(#a)"><path fill="#F93" d="M12 24c6.627 0 12-5.373 12-12S18.627 0 12 0 0 5.373 0 12s5.373 12 12 12"/><path fill="#fff" d="M5.5 6.8h2.153l1.359 7.267q.032.16.075.319c.107-.423.174-.855.263-1.281L10.588 6.8h2.082l-2.292 10.204H7.793Q6.644 11.904 5.5 6.807zm8.004 3.206c.453-.57 1.177-.828 1.875-.873.69-.048 1.432.014 2.015.425.517.361.8.972.935 1.58.163.762.172 1.544.171 2.32h-3.815c.003.575-.033 1.167.159 1.717.093.27.266.54.542.637.294.096.647.033.862-.203.286-.324.345-.778.408-1.193h1.732c-.04.69-.167 1.417-.618 1.959-.452.562-1.182.793-1.872.82-.75.03-1.564-.073-2.162-.578-.556-.463-.799-1.198-.895-1.902-.096-.81-.101-1.63-.056-2.445.06-.794.204-1.636.718-2.265zm1.478.81c-.295.424-.303.971-.297 1.473h1.97c-.03-.477-.027-.98-.242-1.416-.266-.538-1.108-.54-1.43-.057"/></g><defs><clipPath id="a"><path fill="#fff" d="M0 0h24v24H0z"/></clipPath></defs></svg>