<svg xmlns="http://www.w3.org/2000/svg" fill="none" viewBox="0 0 24 24"><path fill="#434FCF" d="m20.072 15.331.436-.33A3.75 3.75 0 0 0 22 11.988a3.75 3.75 0 0 0-1.498-3.009l-.438-.33.074-.544a3.78 3.78 0 0 0-.897-2.992 3.75 3.75 0 0 0-3.367-1.26l-.542.075L15 3.491A3.75 3.75 0 0 0 11.993 2a3.75 3.75 0 0 0-3.014 1.5l-.33.437-.545-.074a3.75 3.75 0 0 0-3.36 1.263 3.78 3.78 0 0 0-.891 3l.075.542L3.49 9A3.75 3.75 0 0 0 2 12.013a3.75 3.75 0 0 0 1.5 3.008l.436.331-.074.543a3.78 3.78 0 0 0 .896 2.993 3.75 3.75 0 0 0 3.367 1.26l.543-.076.332.437A3.74 3.74 0 0 0 12.007 22a3.75 3.75 0 0 0 3.014-1.498l.33-.438.544.073a3.74 3.74 0 0 0 3.361-1.263 3.78 3.78 0 0 0 .891-3z"/><path fill="#fff" d="M11.205 15.333a.84.84 0 0 0 .602-.3l4.167-5a.834.834 0 0 0-1.28-1.066l-3.584 4.298-1.854-1.854a.832.832 0 1 0-1.179 1.179l2.5 2.5a.83.83 0 0 0 .59.244z"/></svg>