<svg xmlns="http://www.w3.org/2000/svg" fill="none" viewBox="0 0 24 24"><path fill="#62757E" fill-rule="evenodd" d="m20.508 15-.436.331.075.544a3.78 3.78 0 0 1-.89 2.999 3.74 3.74 0 0 1-3.362 1.263l-.543-.073-.331.438A3.75 3.75 0 0 1 12.007 22 3.74 3.74 0 0 1 9 20.51l-.332-.438-.543.076a3.75 3.75 0 0 1-3.367-1.26 3.78 3.78 0 0 1-.896-2.993l.074-.543-.437-.33A3.75 3.75 0 0 1 2 12.011 3.75 3.75 0 0 1 3.491 9l.437-.332-.075-.543a3.78 3.78 0 0 1 .892-2.999 3.75 3.75 0 0 1 3.36-1.263l.544.074.33-.438A3.75 3.75 0 0 1 11.993 2 3.75 3.75 0 0 1 15 3.49l.332.438.542-.075a3.75 3.75 0 0 1 3.367 1.26c.717.82 1.044 1.91.897 2.992l-.074.544.438.33A3.75 3.75 0 0 1 22 11.988c0 1.193-.543 2.29-1.492 3.013M9.883 8.579a.922.922 0 1 0-1.305 1.305L10.695 12l-2.117 2.117a.923.923 0 1 0 1.305 1.305L12 13.305l2.117 2.117a.92.92 0 0 0 1.304 0 .92.92 0 0 0 0-1.305L13.305 12l2.116-2.117a.92.92 0 0 0 0-1.305.92.92 0 0 0-1.304 0L12 10.695z" clip-rule="evenodd"/></svg>