<svg xmlns="http://www.w3.org/2000/svg" fill="none" viewBox="0 0 24 24"><path fill="currentColor" d="m20.072 15.331.436-.33A3.753 3.753 0 0 0 22 11.988a3.751 3.751 0 0 0-1.498-3.009l-.438-.33.074-.544a3.775 3.775 0 0 0-.897-2.992 3.751 3.751 0 0 0-3.367-1.26l-.542.075L15 3.491A3.748 3.748 0 0 0 11.993 2a3.748 3.748 0 0 0-3.014 1.5l-.33.437-.545-.074a3.748 3.748 0 0 0-3.36 1.263 3.777 3.777 0 0 0-.891 3l.075.542L3.49 9A3.748 3.748 0 0 0 2 12.013a3.747 3.747 0 0 0 1.5 3.008l.436.331-.074.543a3.775 3.775 0 0 0 .896 2.993 3.75 3.75 0 0 0 3.367 1.26l.543-.076.332.437A3.744 3.744 0 0 0 12.007 22a3.748 3.748 0 0 0 3.014-1.498l.33-.438.544.073a3.74 3.74 0 0 0 3.361-1.263 3.779 3.779 0 0 0 .891-3l-.075-.543Z"/><path fill="currentColor" d="M11.204 15.333a.835.835 0 0 0 .603-.3l4.167-5a.834.834 0 0 0-1.28-1.066l-3.584 4.298-1.854-1.854a.832.832 0 1 0-1.179 1.179l2.5 2.5a.831.831 0 0 0 .59.244l.037-.001Z"/></svg>