<svg xmlns="http://www.w3.org/2000/svg" fill="none" viewBox="0 0 24 24"><g clip-path="url(#a)"><path fill="#15BDFF" d="M12 24c6.627 0 12-5.373 12-12S18.627 0 12 0 0 5.373 0 12s5.373 12 12 12"/><path fill="#fff" d="M11.088 17.586 5.528 6.255a.274.274 0 0 1 .245-.394H7.7c.103 0 .2.057.246.148l4.06 8.22a.986.986 0 0 0 1.771 0l4.048-8.213a.28.28 0 0 1 .246-.149h.24c.142 0 .232.149.168.272l-5.62 11.448a.986.986 0 0 1-1.771 0"/></g><defs><clipPath id="a"><path fill="#fff" d="M0 0h24v24H0z"/></clipPath></defs></svg>