<svg xmlns="http://www.w3.org/2000/svg" fill="none" viewBox="0 0 24 24"><g clip-path="url(#a)"><path fill="#565656" d="M12 24c6.627 0 12-5.373 12-12S18.627 0 12 0 0 5.373 0 12s5.373 12 12 12"/><path fill="#fff" d="M8.836 10.242H6.803V9.125H8.41L7.177 5.908 8.193 5.5l2.308 6.024 2.99.02L15.807 5.5l1.018.408-1.233 3.217h1.606v1.118h-2.034l-.5 1.306 2.537.017-.007 1.117-2.957-.019L12 18.5l-2.247-5.864-2.953-.02.006-1.116 2.518.016zm2.093 2.401L12 15.438l1.066-2.78z"/></g><defs><clipPath id="a"><path fill="#fff" d="M0 0h24v24H0z"/></clipPath></defs></svg>