<svg xmlns="http://www.w3.org/2000/svg" fill="none" viewBox="0 0 24 24"><g clip-path="url(#a)"><path fill="#565656" d="M12 24c6.627 0 12-5.373 12-12S18.627 0 12 0 0 5.373 0 12s5.373 12 12 12Z"/><path fill="#fff" d="M8.836 10.242H6.803V9.125H8.41L7.177 5.908 8.194 5.5l2.307 6.024 2.99.02L15.807 5.5l1.018.408-1.233 3.217h1.606v1.118h-2.033l-.502 1.306 2.538.017-.006 1.117-2.958-.019L12 18.5l-2.246-5.864-2.954-.02.007-1.116 2.518.016-.489-1.274Zm2.094 2.401L12 15.438l1.065-2.78-2.135-.014Z"/></g><defs><clipPath id="a"><path fill="#fff" d="M0 0h24v24H0z"/></clipPath></defs></svg>