<svg xmlns="http://www.w3.org/2000/svg" fill="none" viewBox="0 0 24 24"><g clip-path="url(#a)"><path fill="#338BE5" d="M12 24c6.627 0 12-5.373 12-12S18.627 0 12 0 0 5.373 0 12s5.373 12 12 12Z"/><path fill="#fff" d="M16.31 11.947c.474.127.942.275 1.363.534.187.115.362.25.52.402.234.26.219.535.005.81-.187.239-.442.392-.713.519-.686.33-1.414.52-2.158.631-.604.091-1.217.143-1.826.22a.222.222 0 0 0-.14.096c-.427.636-.848 1.272-1.275 1.908a1.178 1.178 0 0 0-.093.133c-.45-.676-.896-1.355-1.337-2.036a.214.214 0 0 0-.182-.107c-1.218-.087-2.42-.245-3.569-.657-.364-.127-.712-.285-1.014-.524-.016-.016-.037-.026-.052-.041-.442-.371-.453-.768-.026-1.15.338-.306.754-.479 1.186-.612.431-.132.868-.228 1.306-.34.02-.005.041-.005.078-.016-.942-1.44-1.873-2.866-2.825-4.311a1.34 1.34 0 0 1 .135-.01c.588-.006 1.176 0 1.763-.006a.212.212 0 0 1 .203.117c1.424 2.171 2.846 4.343 4.266 6.516.021.037.045.07.073.102.328-.494.645-.967.957-1.44 1.144-1.73 2.288-3.457 3.433-5.183.042-.06.073-.107.166-.107.62.005 1.239.005 1.858.005a.68.68 0 0 1 .088.006 2074 2074 0 0 1-2.903 4.368c.245.06.48.112.713.173Zm-8.927 1.222c.121.134.264.25.422.34.65.347 1.368.473 2.112.585-.01-.035-.01-.05-.015-.06-.422-.637-.838-1.278-1.26-1.915a.151.151 0 0 0-.13-.04 6.044 6.044 0 0 0-.723.29 1.447 1.447 0 0 0-.4.326.336.336 0 0 0-.006.473Zm8.193.549c.284-.077.543-.224.754-.428.209-.208.209-.442 0-.656a.795.795 0 0 0-.176-.143c-.223-.112-.457-.219-.687-.33-.078-.041-.125-.01-.172.06-.244.378-.494.748-.743 1.12l-.473.718a.492.492 0 0 0 .124 0c.458-.112.92-.214 1.373-.341Zm.005-6.918-3.562 5.676L8.409 6.8h7.172Z"/></g><defs><clipPath id="a"><path fill="#fff" d="M0 0h24v24H0z"/></clipPath></defs></svg>