<svg xmlns="http://www.w3.org/2000/svg" fill="none" viewBox="0 0 24 24"><g clip-path="url(#a)"><path fill="#338BE5" d="M12 24c6.627 0 12-5.373 12-12S18.627 0 12 0 0 5.373 0 12s5.373 12 12 12"/><path fill="#fff" d="M16.31 11.947c.474.127.942.275 1.363.534q.282.173.52.402c.234.26.219.535.005.81-.187.239-.442.392-.713.519-.686.33-1.414.52-2.158.631-.604.091-1.217.143-1.826.22a.22.22 0 0 0-.14.096c-.427.636-.848 1.272-1.275 1.908a1 1 0 0 0-.093.133q-.675-1.014-1.337-2.036a.21.21 0 0 0-.182-.107c-1.218-.086-2.42-.244-3.569-.657-.364-.127-.712-.285-1.014-.524-.016-.016-.037-.026-.052-.041-.442-.371-.453-.768-.026-1.15.338-.306.754-.479 1.186-.612.431-.132.868-.228 1.306-.34.02-.005.041-.005.078-.016-.942-1.44-1.873-2.866-2.825-4.311.057-.005.098-.01.135-.01.588-.006 1.176 0 1.763-.006a.21.21 0 0 1 .203.117q2.136 3.256 4.266 6.517.031.054.073.102c.328-.494.645-.968.957-1.441l3.433-5.182c.042-.062.073-.108.166-.108q.93.007 1.858.006l.088.005q-1.449 2.185-2.903 4.368c.245.06.48.112.713.173m-8.927 1.222q.183.203.422.34c.65.347 1.368.474 2.112.585-.01-.035-.01-.05-.015-.06-.422-.637-.838-1.278-1.26-1.914a.15.15 0 0 0-.13-.041 6 6 0 0 0-.723.29 1.5 1.5 0 0 0-.4.326.336.336 0 0 0-.006.473m8.193.549c.284-.076.543-.224.754-.428.209-.208.209-.442 0-.656a.8.8 0 0 0-.176-.143c-.223-.112-.457-.219-.687-.33-.078-.041-.125-.01-.172.06-.244.378-.494.748-.743 1.12l-.473.718a.5.5 0 0 0 .124 0c.458-.111.92-.214 1.373-.341m.005-6.918-3.562 5.676L8.409 6.8z"/></g><defs><clipPath id="a"><path fill="#fff" d="M0 0h24v24H0z"/></clipPath></defs></svg>