<svg xmlns="http://www.w3.org/2000/svg" fill="none" viewBox="0 0 24 24"><path fill="#62757E" fill-rule="evenodd" d="M21.756 3.423 16.757 8.42l-.002.003L3.423 21.756a.83.83 0 0 1-1.179 0 .83.83 0 0 1 0-1.178l1.11-1.11A1.67 1.67 0 0 1 2 17.835V7a1.67 1.67 0 0 1 1.667-1.667h11.667c.584 0 1.097.304 1.395.76l3.849-3.849a.834.834 0 0 1 1.178 1.179M15.333 7l-11.705.002v10.874l1.358-.04L15.333 7.489zM9.505 17.876h5.877l-.048-2.543c0-.026.012-.048.015-.074a.9.9 0 0 1 .096-.318c.012-.023.014-.048.029-.07s.04-.035.056-.056a.83.83 0 0 1 .56-.299c.026-.003.05-.016.076-.016.027 0 .049.013.074.015a1 1 0 0 1 .164.033 1 1 0 0 1 .156.064c.022.012.047.014.069.029l3.79 2.399V7.002c0-.46.288-.835.748-.835S22 6.54 22 7v11.667a.834.834 0 0 1-1.296.693L17 16.89v.944c0 .919-.747 1.667-1.666 1.667H9.5a.834.834 0 0 1-.833-.834c0-.46.378-.79.838-.79" clip-rule="evenodd"/></svg>