<svg xmlns="http://www.w3.org/2000/svg" fill="none" viewBox="0 0 24 24"><path fill="currentColor" fill-rule="evenodd" d="M21.56 19.068a.836.836 0 0 1-.856-.04L17 16.557v.942c0 .92-.747 1.667-1.667 1.667H3.667A1.667 1.667 0 0 1 2 17.5V6.667A1.67 1.67 0 0 1 3.667 5h11.666C16.253 5 17 5.748 17 6.667v.943l3.704-2.47A.833.833 0 0 1 22 5.833v12.5c0 .308-.17.59-.44.735ZM20.333 7.391l-3.704 2.47c-.021.013-.046.015-.069.027a.777.777 0 0 1-.158.065.805.805 0 0 1-.159.032c-.026.002-.05.016-.076.016-.029 0-.053-.014-.081-.017a.752.752 0 0 1-.16-.033.79.79 0 0 1-.397-.266c-.016-.021-.04-.033-.056-.056-.014-.021-.016-.047-.028-.07a.765.765 0 0 1-.063-.154.814.814 0 0 1-.034-.163c-.002-.026-.015-.049-.015-.075v-2.5H3.667v10.865h11.666V15c0-.026.013-.048.015-.074a.792.792 0 0 1 .034-.163.792.792 0 0 1 .063-.156c.012-.022.014-.047.028-.069.015-.023.04-.035.057-.056a.806.806 0 0 1 .56-.3c.027-.002.05-.015.077-.015.026 0 .047.013.072.015a.794.794 0 0 1 .32.097c.023.012.049.013.07.028l3.704 2.47V7.39Z" clip-rule="evenodd"/></svg>