<svg xmlns="http://www.w3.org/2000/svg" fill="none" viewBox="0 0 24 24"><path fill="#62757E" d="M14.193 4.937a2.8 2.8 0 0 1 2.79 2.582l2.05-1.832c1.16-1.035 3-.212 3 1.343v9.94c0 1.555-1.84 2.378-3 1.342l-2.05-1.833a2.8 2.8 0 0 1-2.79 2.583H4.806a2.8 2.8 0 0 1-2.8-2.8V7.738a2.8 2.8 0 0 1 2.8-2.8zm-9.387 1.6a1.2 1.2 0 0 0-1.2 1.2v8.526a1.2 1.2 0 0 0 1.2 1.2h9.387a1.2 1.2 0 0 0 1.2-1.2v-1.559a.8.8 0 0 1 .201-.535.8.8 0 0 1 .58-.265h.02a.82.82 0 0 1 .53.2L20.1 17.12a.2.2 0 0 0 .334-.15V7.03a.2.2 0 0 0-.334-.15l-3.375 3.015a.8.8 0 0 1-1.13-.063.8.8 0 0 1-.2-.55V7.736a1.2 1.2 0 0 0-1.2-1.2z"/></svg>