<svg xmlns="http://www.w3.org/2000/svg" fill="none" viewBox="0 0 24 24"><path fill="#62757E" fill-rule="evenodd" d="M19.182 2.17a.85.85 0 1 1 1.202 1.203l-16 16a1 1 0 0 1-.12.1l-.061.061-.024-.01a.85.85 0 0 1-1.228-.928 3.3 3.3 0 0 1-.75-2.096V8A2.8 2.8 0 0 1 5 5.2h11.152zm-4.63 4.63H5A1.2 1.2 0 0 0 3.8 8v8.5c0 .295.077.582.219.834l3.579-3.58a1.8 1.8 0 1 1 2.157-2.156zm5.951-1.162-1.2 1.2A1.2 1.2 0 0 1 20.2 8v8.5a1.7 1.7 0 0 1-1.7 1.7h-1.06a2.2 2.2 0 0 1-1.714-.829l-1.542-1.922a2.8 2.8 0 0 0-2.458-1.034L6.34 19.8h.22a3.8 3.8 0 0 0 2.964-1.43v-.001l1.54-1.918a1.2 1.2 0 0 1 1.871 0l1.539 1.918A3.8 3.8 0 0 0 17.44 19.8h1.06a3.3 3.3 0 0 0 3.3-3.3V8a2.8 2.8 0 0 0-1.297-2.362M15.94 10.2l-1.74 1.74V12a1.8 1.8 0 1 0 1.739-1.799" clip-rule="evenodd"/></svg>