<svg xmlns="http://www.w3.org/2000/svg" fill="none" viewBox="0 0 24 24"><path fill="#62757E" fill-rule="evenodd" d="M3.02 6.02A2.8 2.8 0 0 1 5 5.2h14A2.8 2.8 0 0 1 21.8 8v8.5a3.3 3.3 0 0 1-3.3 3.3h-1.062a3.8 3.8 0 0 1-2.963-1.43v-.001l-1.539-1.918a1.2 1.2 0 0 0-1.872 0l-1.538 1.918h-.001a3.8 3.8 0 0 1-2.963 1.43l-.002.001H5.5a3.3 3.3 0 0 1-3.3-3.3V8a2.8 2.8 0 0 1 .82-1.98M5 6.8A1.2 1.2 0 0 0 3.8 8v8.5a1.7 1.7 0 0 0 1.7 1.7h1.06a2.2 2.2 0 0 0 1.714-.829l.002-.002 1.54-1.92a2.802 2.802 0 0 1 4.368 0l1.542 1.922a2.2 2.2 0 0 0 1.715.829H18.5a1.7 1.7 0 0 0 1.7-1.7V8A1.2 1.2 0 0 0 19 6.8zM6.2 12a1.8 1.8 0 1 1 3.6 0 1.8 1.8 0 0 1-3.6 0m8 0a1.8 1.8 0 1 1 3.6 0 1.8 1.8 0 0 1-3.6 0" clip-rule="evenodd"/></svg>