<svg xmlns="http://www.w3.org/2000/svg" fill="none" viewBox="0 0 24 24"><path fill="#EF3939" d="M12 23.955c5.257 0 8.177 0 10.091-1.903C24 20.148 24 17.238 24 11.997c0-5.24 0-8.15-1.909-10.054C20.177.045 17.257.045 12 .045s-8.178 0-10.091 1.903C0 3.851 0 6.762 0 12.003c0 5.24 0 8.15 1.909 10.054C3.822 23.955 6.743 23.955 12 23.955Z"/><path fill="url(#a)" d="M19.803 7.58a8.983 8.983 0 0 0-5.494-4.224C9.506 2.075 4.571 4.91 3.285 9.693a8.89 8.89 0 0 0 .922 6.839c.016.026.032.058.053.084l4.228 7.302c.702.021 1.46.027 2.278.027h1.192c2.335 0 4.212 0 5.747-.17 1.913-.21 3.284-.68 4.344-1.734 1.545-1.54 1.84-3.743 1.898-7.313a4724.65 4724.65 0 0 0-4.144-7.149Z"/><path fill="#fff" d="M18.316 5.676c-3.506-3.501-9.195-3.501-12.706 0a8.944 8.944 0 0 0 0 12.67c3.506 3.5 9.195 3.5 12.706 0a8.936 8.936 0 0 0 0-12.67Zm-.538 4.117c-1.481 2.568-2.963 5.136-4.444 7.709-.274.48-.675.764-1.223.806-.612.043-1.097-.216-1.408-.743-.939-1.608-1.867-3.227-2.795-4.84-.564-.98-1.133-1.961-1.697-2.947-.57-.992.073-2.199 1.212-2.257.601-.032 1.065.248 1.371.77.417.712.828 1.434 1.244 2.15.3.518.59 1.04.897 1.546.443.743 1.096 1.16 1.966 1.212a2.394 2.394 0 0 0 2.52-2.12c.011-.094.016-.194.022-.242a2.45 2.45 0 0 0-.253-1.112c-.46-.918.031-1.946 1.028-2.167.812-.18 1.655.416 1.76 1.239.053.353-.02.685-.2.996Z"/><defs><linearGradient id="a" x1="7.502" x2="18.876" y1="4.241" y2="24.084" gradientUnits="userSpaceOnUse"><stop stop-opacity=".2"/><stop offset=".791" stop-opacity=".05"/></linearGradient></defs></svg>