<svg xmlns="http://www.w3.org/2000/svg" fill="none" viewBox="0 0 24 24"><path fill="#EF3939" d="M12 23.955c5.257 0 8.177 0 10.091-1.903C24 20.148 24 17.238 24 11.997c0-5.24 0-8.15-1.909-10.054C20.177.045 17.257.045 12 .045s-8.178 0-10.091 1.903C0 3.851 0 6.762 0 12.003c0 5.24 0 8.15 1.909 10.054C3.822 23.955 6.743 23.955 12 23.955Z"/><path fill="url(#a)" d="M19.803 7.58a8.983 8.983 0 0 0-5.494-4.224C9.506 2.075 4.571 4.91 3.285 9.693a8.89 8.89 0 0 0 .922 6.839c.016.026.032.058.053.084l4.229 7.302c.7.021 1.46.027 2.277.027h1.192c2.335 0 4.213 0 5.747-.169 1.914-.21 3.285-.68 4.344-1.735 1.545-1.54 1.84-3.743 1.898-7.313a5281.96 5281.96 0 0 0-4.144-7.149Z"/><path fill="#fff" d="M18.316 5.676c-3.506-3.501-9.195-3.501-12.706 0-3.506 3.5-3.506 9.174 0 12.67 3.506 3.5 9.195 3.5 12.706 0a8.936 8.936 0 0 0 0-12.67Zm-.537 4.117a10044.09 10044.09 0 0 0-4.445 7.709c-.274.48-.675.764-1.223.806-.612.043-1.097-.216-1.408-.743-.939-1.608-1.866-3.227-2.794-4.84-.565-.98-1.134-1.961-1.698-2.947-.57-.992.074-2.199 1.213-2.257.6-.032 1.065.248 1.37.77.417.712.828 1.434 1.245 2.151.3.517.59 1.039.896 1.545.443.743 1.097 1.16 1.967 1.212a2.395 2.395 0 0 0 2.52-2.12c.01-.094.016-.194.02-.242a2.452 2.452 0 0 0-.252-1.112c-.459-.917.031-1.946 1.028-2.167.812-.18 1.655.416 1.76 1.239.054.353-.02.685-.2.996Z"/><defs><linearGradient id="a" x1="7.502" x2="18.877" y1="4.241" y2="24.084" gradientUnits="userSpaceOnUse"><stop stop-opacity=".2"/><stop offset=".791" stop-opacity=".05"/></linearGradient></defs></svg>