<svg xmlns="http://www.w3.org/2000/svg" fill="none" viewBox="0 0 24 24"><path fill="#62757E" fill-rule="evenodd" d="M17.833 16.333H6.167A4.171 4.171 0 0 1 2 12.167 4.171 4.171 0 0 1 6.167 8a4.171 4.171 0 0 1 4.166 4.167c0 .938-.316 1.802-.84 2.5h5.015a4.14 4.14 0 0 1-.841-2.5A4.171 4.171 0 0 1 17.833 8 4.171 4.171 0 0 1 22 12.167a4.171 4.171 0 0 1-4.167 4.166Zm-9.166-4.166c0-1.379-1.122-2.5-2.5-2.5a2.503 2.503 0 0 0-2.5 2.5c0 1.378 1.121 2.5 2.5 2.5 1.378 0 2.5-1.122 2.5-2.5Zm9.166-2.5a2.503 2.503 0 0 0-2.5 2.5c0 1.378 1.122 2.5 2.5 2.5 1.379 0 2.5-1.122 2.5-2.5 0-1.379-1.121-2.5-2.5-2.5Z" clip-rule="evenodd"/></svg>