<svg xmlns="http://www.w3.org/2000/svg" fill="none" viewBox="0 0 24 24"><path fill="#62757E" d="M13.6 2.5a.8.8 0 0 1 .8.8v17.4a.8.8 0 0 1-1.6 0V3.3a.8.8 0 0 1 .8-.8M7.2 3.812a.8.8 0 0 1 .8.8v14.777a.8.8 0 1 1-1.6 0V4.61a.8.8 0 0 1 .8-.8m9.6 1.463a.8.8 0 0 1 .8.8v11.85a.8.8 0 0 1-1.6 0V6.075a.8.8 0 0 1 .8-.8M10.4 6.71a.8.8 0 0 1 .8.8v8.98a.8.8 0 1 1-1.6 0V7.51a.8.8 0 0 1 .8-.8M4 9.006a.8.8 0 0 1 .8.8v4.387a.8.8 0 1 1-1.6 0V9.807a.8.8 0 0 1 .8-.801m16 0a.8.8 0 0 1 .8.8v4.387a.8.8 0 1 1-1.6 0V9.807a.8.8 0 0 1 .8-.801"/></svg>