<svg xmlns="http://www.w3.org/2000/svg" fill="none" viewBox="0 0 24 24"><path fill="#62757E" fill-rule="evenodd" d="m19.842 12.167 1.913 1.91a.832.832 0 0 1-.59 1.424.83.83 0 0 1-.59-.245l-1.913-1.91-1.914 1.91a.83.83 0 0 1-1.18 0 .83.83 0 0 1 0-1.179l1.913-1.91-1.913-1.911a.83.83 0 0 1 0-1.179.835.835 0 0 1 1.18 0l1.914 1.911 1.913-1.91a.836.836 0 0 1 1.18 0 .83.83 0 0 1 0 1.178zm-6.644 9.09a.84.84 0 0 1-.892-.123l-5.608-4.8h-3.03A1.67 1.67 0 0 1 2 14.666v-5A1.67 1.67 0 0 1 3.669 8h3.03l5.607-4.8a.834.834 0 0 1 1.378.633V20.5c0 .326-.19.621-.486.757M12.045 5.49 7.551 9.466c-.031.027-.07.036-.103.058-.05.031-.097.064-.154.085-.055.02-.111.026-.168.034-.04.006-.077.024-.12.024H3.67v5h3.338c.042 0 .077.018.116.023.059.008.116.014.172.035.056.02.102.053.151.085.034.02.073.03.105.057l4.494 3.996z" clip-rule="evenodd"/></svg>