<svg xmlns="http://www.w3.org/2000/svg" fill="none" viewBox="0 0 24 24"><path fill="#62757E" fill-rule="evenodd" d="M17.263 18.79a.837.837 0 0 1-1.052-.535.835.835 0 0 1 .537-1.052c2.143-.693 3.583-2.717 3.583-5.036 0-2.291-1.478-4.365-3.595-5.044a.834.834 0 1 1 .51-1.586C20.092 6.449 22 9.113 22 12.167c0 3.043-1.904 5.705-4.737 6.622m1.44-6.623a3.34 3.34 0 0 1-3.34 3.333.834.834 0 1 1 0-1.667 1.67 1.67 0 0 0 1.67-1.666 1.67 1.67 0 0 0-1.67-1.668.834.834 0 1 1 0-1.666 3.34 3.34 0 0 1 3.34 3.334m-5.501 9.09a.84.84 0 0 1-.893-.124l-5.609-4.8H3.67A1.67 1.67 0 0 1 2 14.667V9.666A1.67 1.67 0 0 1 3.67 8H6.7l5.61-4.8a.834.834 0 0 1 1.379.634V20.5a.84.84 0 0 1-.487.757M12.018 5.645 7.553 9.466c-.032.027-.07.036-.105.058-.049.03-.095.063-.151.084-.057.021-.114.027-.172.035-.04.005-.075.023-.116.023H3.67v5h3.34c.043 0 .078.018.12.025.057.007.112.013.167.033.057.021.103.054.153.086.034.02.072.03.104.057l4.465 3.82z" clip-rule="evenodd"/></svg>