<svg xmlns="http://www.w3.org/2000/svg" fill="none" viewBox="0 0 24 24"><path fill="#62757E" d="M20.97 9.234a.8.8 0 0 1 1.132 1.131L20.466 12l1.636 1.635a.8.8 0 0 1-1.132 1.132l-1.635-1.636-1.635 1.636a.8.8 0 0 1-1.131-1.132L18.203 12l-1.634-1.635A.8.8 0 0 1 17.7 9.234l1.635 1.634zm-7.437 10.53c0 1.367-1.652 2.052-2.618 1.086l-4.38-4.382H4.672c-1.14 0-2.321-.664-2.665-1.912A9.6 9.6 0 0 1 1.664 12c0-.884.12-1.74.344-2.556.344-1.248 1.526-1.911 2.665-1.912h1.861l4.381-4.381.093-.086c.975-.837 2.525-.153 2.525 1.17zM3.263 12c0 .739.101 1.454.288 2.131.113.41.542.736 1.122.736h2.192l.08.004a.8.8 0 0 1 .486.23l4.503 4.504V4.395L7.43 8.9a.8.8 0 0 1-.566.234H4.673c-.58 0-1.009.326-1.122.736A8 8 0 0 0 3.264 12"/></svg>