<svg xmlns="http://www.w3.org/2000/svg" fill="none" viewBox="0 0 24 24"><path fill="#62757E" d="M17.632 7.804a.8.8 0 0 1 1.131 0 5.933 5.933 0 0 1 0 8.392.8.8 0 1 1-1.13-1.131 4.334 4.334 0 0 0 0-6.13.8.8 0 0 1 0-1.13m-2.265 11.96c0 1.366-1.651 2.05-2.618 1.085l-4.381-4.382h-1.86c-1.14 0-2.322-.664-2.666-1.912A9.6 9.6 0 0 1 3.5 12c0-.883.119-1.74.343-2.554.344-1.248 1.526-1.912 2.665-1.912h1.86L12.75 3.15l.092-.086c.976-.837 2.526-.153 2.526 1.17zM5.098 12c0 .738.1 1.453.287 2.13.113.41.542.738 1.122.738H8.7l.078.004a.8.8 0 0 1 .487.23l4.502 4.502V4.396L9.265 8.898a.8.8 0 0 1-.565.234H6.507c-.58 0-1.009.328-1.122.738A8 8 0 0 0 5.098 12"/></svg>