<svg xmlns="http://www.w3.org/2000/svg" fill="none" viewBox="0 0 24 24"><path fill="url(#a)" d="M12.894.19a2.2 2.2 0 0 0-1.788 0L3.404 3.613a2.2 2.2 0 0 0-1.307 2.011v5.172C2.097 16.903 6.322 22.614 12 24c5.678-1.386 9.903-7.097 9.903-13.204V5.624a2.2 2.2 0 0 0-1.307-2.011L12.894.19Z"/><path fill="#fff" d="M5.466 10.906c.336.364.868.4 1.23.072 3.068-2.742 7.523-2.742 10.598-.007.368.328.907.3 1.242-.065.388-.42.362-1.12-.066-1.5-3.751-3.334-9.18-3.334-12.938 0-.427.372-.46 1.072-.066 1.5Zm5.1 5.541.965 1.05c.257.279.67.279.927 0l.966-1.05c.309-.335.243-.914-.151-1.135a2.614 2.614 0 0 0-2.57 0c-.374.221-.446.8-.137 1.135Zm-2.451-2.663a.873.873 0 0 0 1.202.093 4.342 4.342 0 0 1 5.362 0c.375.285.88.257 1.203-.093l.006-.007c.394-.429.368-1.157-.085-1.507-2.26-1.778-5.343-1.778-7.61 0-.453.357-.48 1.078-.078 1.514Z"/><defs><linearGradient id="a" x1="2.097" x2="24.105" y1="0" y2="2.225" gradientUnits="userSpaceOnUse"><stop stop-color="#E7304F"/><stop offset="1" stop-color="#B20F96"/></linearGradient></defs></svg>