<svg xmlns="http://www.w3.org/2000/svg" fill="none" viewBox="0 0 24 24"><path fill="url(#a)" fill-rule="evenodd" d="M21.989 10.001c-.001.105-.221 10.508-9.647 13.939-.007.003-.014.002-.021.004A.993.993 0 0 1 12 24a.989.989 0 0 1-.321-.056c-.007-.002-.014-.001-.021-.004C2.232 20.509 2.012 10.106 2.011 10 2.005 9.448 2 8.543 2 7.99V4.987c0-1.103.897-2.002 2-2.002h1c4.2 0 6.091-2.485 6.169-2.59a.99.99 0 0 1 .769-.39.984.984 0 0 1 .897.393C12.909.5 14.8 2.985 19 2.985h1c1.103 0 2 .899 2 2.002V7.99c0 .554-.005 1.46-.011 2.012Z" clip-rule="evenodd"/><path fill="#fff" d="M5.466 10.906c.336.364.868.4 1.23.072 3.068-2.742 7.523-2.742 10.598-.008.368.329.907.3 1.242-.064.388-.421.362-1.12-.066-1.5-3.751-3.334-9.18-3.334-12.938 0-.427.372-.46 1.072-.066 1.5Zm5.1 5.541.965 1.05a.62.62 0 0 0 .927 0l.966-1.05c.309-.335.243-.914-.151-1.135a2.614 2.614 0 0 0-2.57 0c-.374.221-.446.8-.137 1.135Zm-2.451-2.663a.873.873 0 0 0 1.202.093 4.342 4.342 0 0 1 5.362 0c.375.285.88.257 1.203-.093l.006-.007c.394-.429.368-1.157-.085-1.507-2.26-1.778-5.343-1.778-7.61 0-.453.357-.48 1.078-.078 1.514Z"/><defs><linearGradient id="a" x1="2" x2="24.218" y1="0" y2="2.268" gradientUnits="userSpaceOnUse"><stop stop-color="#E7304F"/><stop offset="1" stop-color="#B20F96"/></linearGradient></defs></svg>