<svg xmlns="http://www.w3.org/2000/svg" fill="none" viewBox="0 0 24 24"><path fill="#687485" fill-rule="evenodd" d="M12 0C5.373 0 0 5.373 0 12s5.373 12 12 12 12-5.373 12-12S18.627 0 12 0Zm6.414 5.77c.629.463.774 1.365.325 2.014l-7 10.111a1.388 1.388 0 0 1-1.024.6 1.375 1.375 0 0 1-1.105-.418l-4.2-4.333a1.477 1.477 0 0 1 0-2.043 1.37 1.37 0 0 1 1.98 0l3.031 3.127 6.04-8.723c.45-.65 1.324-.8 1.953-.336Z" clip-rule="evenodd"/><path fill="#fff" d="M18.74 7.784a1.475 1.475 0 0 0-.326-2.015 1.373 1.373 0 0 0-1.953.336l-6.04 8.724L7.39 11.7a1.37 1.37 0 0 0-1.98 0 1.477 1.477 0 0 0 0 2.043l4.2 4.333c.291.3.695.453 1.105.418a1.39 1.39 0 0 0 1.024-.6l7-10.11Z"/></svg>