<svg xmlns="http://www.w3.org/2000/svg" fill="none" viewBox="0 0 24 24"><path fill="url(#a)" d="M12.903.19a2.24 2.24 0 0 0-1.806 0L3.32 3.613A2.2 2.2 0 0 0 2 5.624v5.172C2 16.903 6.267 22.614 12 24c5.733-1.386 10-7.097 10-13.204V5.624a2.2 2.2 0 0 0-1.32-2.011z"/><path fill="#fff" d="M5.476 10.575c.334.37.866.407 1.227.072 3.064-2.792 7.513-2.792 10.584-.007a.86.86 0 0 0 1.24-.066c.387-.428.36-1.141-.066-1.527-3.747-3.396-9.166-3.396-12.92 0-.426.378-.459 1.091-.065 1.527m5.092 5.643.964 1.07a.61.61 0 0 0 .925 0l.965-1.07c.308-.342.243-.93-.151-1.156a2.57 2.57 0 0 0-2.566 0c-.374.225-.446.814-.137 1.156M8.12 13.505a.86.86 0 0 0 1.2.095c1.602-1.258 3.754-1.258 5.355 0 .374.29.88.262 1.2-.095l.007-.007c.394-.436.368-1.178-.085-1.534-2.257-1.811-5.334-1.811-7.598 0-.453.363-.48 1.098-.079 1.541"/><defs><linearGradient id="a" x1="20.961" x2="-1.36" y1="22.341" y2="4.114" gradientUnits="userSpaceOnUse"><stop offset=".026" stop-color="#FA7250"/><stop offset=".401" stop-color="#FF1893"/><stop offset=".995" stop-color="#A78AFF"/></linearGradient></defs></svg>