<svg xmlns="http://www.w3.org/2000/svg" fill="none" viewBox="0 0 24 24"><g clip-path="url(#a)"><path fill="#418BCA" d="M12 24c6.627 0 12-5.373 12-12S18.627 0 12 0 0 5.373 0 12s5.373 12 12 12"/><path fill="#fff" d="M14.843 6H18l-6 12L6 6h3.136l2.885 6.075zM12 9.306a.964.964 0 0 1-.951-.977c0-.539.426-.977.951-.977s.951.438.951.977c0 .54-.426.977-.951.977m4.31 2.693c.525 0 .951.438.95.978 0 .54-.425.976-.95.976a.964.964 0 0 1-.951-.976c0-.54.426-.977.951-.977"/></g><defs><clipPath id="a"><path fill="#fff" d="M0 0h24v24H0z"/></clipPath></defs></svg>