<svg xmlns="http://www.w3.org/2000/svg" fill="none" viewBox="0 0 24 24"><g clip-path="url(#a)"><path fill="#399B32" d="M12 24c6.627 0 12-5.373 12-12S18.627 0 12 0 0 5.373 0 12s5.373 12 12 12"/><path fill="#fff" d="M16.123 6.027c-.076.304-.062.693.022.728s.295-.165.419-.393c.119-.21.225-.272.37-.218.195.075.164.142-.234.486-.33.286-.396.39-.308.478.053.054.092.045.282-.058.238-.125.37-.116.37.027 0 .067-.087.12-.41.245-.229.09-.454.206-.507.264-.106.116-.291.483-.512 1.024-.19.469-.37.813-.49.947-.097.107-.423.175-1.111.228-.322.027-.362.022-.38-.054a7 7 0 0 1-.119-.63c0-.013.164-.01.367.005.361.027.723.124.89.24.129.09.142.077.2-.174q.105-.428.449-1.125c.172-.345.177-.371.159-.697-.022-.362-.084-.518-.3-.756-.08-.084-.128-.178-.115-.214l.027-.085c0-.009.04-.018.084-.018.052 0 .145.08.229.201.234.331.304.268.304-.281 0-.25.018-.357.075-.42.088-.098.16-.102.234-.014.044.054.044.112.005.264M12.615 7.9c.031.331.093.447.291.518.08.032.19.077.243.095.128.053.164.245.3 1.496.146 1.358.176 1.55.314 1.97.207.64.189 1.381-.054 2.127-.123.385-.26.559-.542.71-.565.3-1.148.081-1.602-.598a2.2 2.2 0 0 1-.344-1.685c.066-.312.101-.786.07-.903-.013-.057-.154-.236-.313-.406-.494-.513-1.015-1.434-.913-1.6.031-.044.053-.182.053-.303 0-.246-.07-.344-.38-.518-.203-.116-.216-.232-.048-.554.092-.188.146-.228.609-.465.472-.24.684-.308 1.385-.433.292-.054.503-.05.662.018.185.08.238.183.27.532M8.441 9.566c0 .227.075.451.128.393.023-.022.07-.147.115-.277.07-.224.199-.357.287-.3.075.05.048.308-.049.47-.132.218-.132.634.005.912.136.268.419.562.542.562.075-.005.164-.112.406-.527l.309-.523.049.313c.048.353.026.46-.173.804-.22.389-.467.693-.56.693-.105 0-.344-.237-.547-.54-.08-.127-.3-.367-.485-.542l-.34-.317-.207.036a2.4 2.4 0 0 1-.384.04c-.16.005-.177-.004-.19-.116-.013-.098.01-.13.102-.152q.151-.026.304-.004c.123.018.216.009.265-.027.075-.054.07-.063-.005-.152-.044-.054-.176-.125-.3-.165-.308-.098-.507-.233-.507-.335 0-.134.168-.166.304-.054.455.376.583.429.702.308.084-.084.062-.245-.08-.527-.123-.25-.168-.483-.101-.55.044-.048.159-.035.238.027.093.076.172.322.172.55m8.07 4.025c-.11.117-.428.488-.706.822-.821.992-.904 1.1-.87 1.136.036.035.733-.273.892-.394.199-.156.56-.54.626-.67a2 2 0 0 0 .107-.362c.052-.268.198-.473.33-.473.088 0 .128.102.093.236a2.7 2.7 0 0 1-.22.434c-.11.183-.186.348-.177.366.044.067.208.035.397-.076.11-.063.269-.227.388-.398.234-.33.393-.473.534-.473.12 0 .26.152.23.241-.014.036-.217.21-.446.385-.397.299-.521.455-.45.571.04.067.406-.022.794-.196.662-.3.843-.318.949-.117.088.166-.128.268-.975.456-.234.054-.49.139-.57.188l-.145.09.101.084c.089.072.181.085.618.085.393 0 .539.018.605.067.084.067.079.072-.044.183-.08.067-.154.103-.2.085-.193-.08-.85-.201-1.09-.201-.427 0-.463.157-.074.308q.262.107.207.246c-.04.108-.145.09-.53-.09-.776-.361-.917-.38-1.847-.258-.442.058-.57.063-.618.017-.097-.08-.08-.156.057-.276.11-.094.962-1.68.922-1.716-.022-.022-.882.286-1.505.545-.079.031-.079.027 0-.098.292-.478 1.134-1.015 2.114-1.35.508-.174.538-.178.75-.174.141.009.181.027.19.098.014.112-.164.389-.437.679M6.394 15.169c.163.233.539.626.595.626.058 0 .01-.39-.096-.796-.098-.37-.106-.55-.031-.625.057-.058.252-.071.331-.018.03.018.066.273.092.657.05.702.084.831.256.942.11.077.119.077.172.005.027-.04.058-.206.062-.37.013-.443.12-.64.308-.577.147.044.16.228.05.576-.129.406-.15.702-.093 1.1.084.54.287 1.023.388.92.022-.018.035-.621.04-1.336.004-1.117.013-1.34.08-1.55.123-.385.15-.403.634-.403.8 0 2.282.215 2.48.357.212.153.168.207-.251.34-.914.282-1.36.336-1.91.229-.181-.037-.345-.059-.363-.05-.017.009 0 .112.035.228.111.362.08.585-.18 1.38-.137.407-.265.881-.282 1.05-.018.17-.067.34-.093.376-.115.138-.243.076-.45-.215-.26-.357-.671-.75-.91-.875-.1-.054-.436-.152-.74-.224-.547-.125-.723-.21-.658-.317.023-.04.12-.044.331-.027.388.04.42-.013.16-.259a3.3 3.3 0 0 0-.963-.594c-.33-.134-.388-.179-.388-.286 0-.085.123-.175.243-.175.04 0 .216.121.388.273.362.308.613.456.75.434.252-.036-.049-.621-.52-1.015-.173-.143-.34-.317-.376-.384-.057-.112-.057-.125.022-.183a.4.4 0 0 1 .243-.054c.137.014.168.04.33.326.098.175.239.407.314.514m6.327-7.672c.225-.035.273.148.273.144.12.308.049.693.049.693-.159-.032-.278-.228-.278-.228-.092-.22-.044-.608-.044-.608m-3.18 1.274s.339.188.467.389c0 0 .088.21.022.362 0 0-.353-.165-.53-.443 0 .005-.115-.143.04-.308"/></g><defs><clipPath id="a"><path fill="#fff" d="M0 0h24v24H0z"/></clipPath></defs></svg>