<svg xmlns="http://www.w3.org/2000/svg" fill="none" viewBox="0 0 24 24"><path fill="#46464A" d="M9.167 4.5h-.25q.124-.125.25 0m.916 1.083c-.166 0-.25.167-.25.334v.166c0 .25.084.334.25.334.084 0 .25 0 .334-.084l.166-.166c.084-.167.25-.334.5-.334q.25 0 .5-.25A.64.64 0 0 1 12 5.417c.167 0 .25 0 .417-.084l.083-.083h-.25c0-.083.083-.083.083-.167.084 0 .167.167.334.084-.084-.084-.167-.084-.25-.167h.083c.167 0 .417-.083.5-.25 0 0 .083-.083.083-.167 0-.083 0-.083.084-.166.083 0 .166-.084.25-.084s.166-.083.166-.083c-.083 0-.25-.083-.333-.083s-.167-.084-.25-.084c-.333 0-.583 0-.917.084-.5.083-.916.166-1.416.25a.76.76 0 0 0-.584.25s0 .083.084.083c0 0 0 .083-.084.083.167 0 .167.084.25.25 0 .084.084.25.167.25s.083.084 0 .167c-.333 0-.417 0-.417.083m-4.5 5.667c0 .167-.166.083-.166.167.25.083.416 0 .666-.084-.166-.083-.333-.083-.5-.083m-1 1.25c-.083 0-.166-.083-.25-.083s-.083-.084-.166-.084c0 .167.166.25.416.167M7 5.5c.167-.083.25-.083.417-.167-.167-.083-.334 0-.417.167m1.833-.833c.167 0 .25-.084.417-.167-.167.083-.333.083-.417.167M4.417 11c.25.083.416.083.666.167A.65.65 0 0 0 4.417 11m8.666-3.75c.167 0 .417-.167.417-.417-.25 0-.417.167-.417.417m.5.167c.167 0 .334-.084.5-.084a.18.18 0 0 0 .167-.166c-.083-.084-.167-.084-.25-.167h-.083c-.167 0-.25.083-.25.167.083 0 .083 0 .166.083-.166.083-.25.083-.25.167m-6.75-1.084h.417c0-.166-.083-.166-.167-.166-.083-.084-.25 0-.25.166m.75-.166c.084 0 .167 0 .25-.084-.166 0-.166 0-.25.084m-.166-.334c-.084 0-.25.084-.334.167.084-.083.25-.083.334-.167m1.583 0c0-.083 0-.083-.083-.166A.18.18 0 0 1 8.75 5.5c-.083 0-.167-.083-.25-.167 0 0-.083-.083-.167 0h-.166c-.084-.083-.167-.083-.334 0 0 0-.083 0-.166.084l.083-.084c-.167-.083-.333 0-.417.167 0 .083-.083.083 0 .083.167 0 .417.084.584 0 .166-.083.25 0 .333.167 0 .083.083.167.083.25h-.25c-.083 0-.166.083-.25.167.167 0 .167.083.25.083.084.083.25.083.334 0l-.084-.083h.084c.083.083.166 0 .166-.084v-.166h.25c.084 0 .084 0 .167-.084m4.833 1c0-.083-.083-.083-.083-.166-.083.083-.083.083.083.166M8.167 7.917c.083 0 .166.083.25.083s.166-.083.25-.083c0 0 .083 0 .083-.084V7.75s-.083 0-.083-.083c-.084 0-.167-.084-.084-.167-.166.083-.333.25-.416.417m13 4.666c-.584 0-.834-.75-.834-.833v-.333l-.083.083-.083.083c-.167 0-.25.084-.334.25l-.083.084c-.083.083-.25.083-.333.166-.167 0-.334-.083-.5-.083a.64.64 0 0 0-.167-.417l-.167-.166c-.083-.084-.083-.167-.166-.25 0-.167-.084-.25-.167-.334-.167-.166-.333-.333-.333-.583 0 0 0 .083-.084.167-.083-.084-.083-.167-.166-.167l.25.5c.083.167.166.25.25.417 0 0 .083.083 0 .083 0 .167.083.25.166.333.084.084.084.167.084.167v.167c0 .083.083.083.083.083s0 .083-.083.083c-.334 0-.667 0-1.167.084 0 0-.167 0-.333.083-1 .25-1.917.75-2.25.917h-.084c-.083 0-.083-.084-.083-.084-.083-.083-.167 0-.25 0-.083.084-.25.084-.333.167h-.167c-.167-.083-.25 0-.333 0a.254.254 0 0 1-.334 0c-.25-.083-.416-.25-.583-.583-.083-.167-.083-.25-.25-.334-.083 0-.083-.083-.083-.083.083-.083.083-.083.083-.167-.083-.083-.083-.083 0-.166l.083-.084q.126-.124 0-.25c0-.083 0-.083-.083-.166-.083-.167 0-.25 0-.334.167-.166.25-.333.417-.583.083-.083.166-.167.25-.167-.167-.333-.084-.5-.084-.666 0-.084 0-.167.084-.25l.25-.25c.083-.084.083-.084.166 0 .084 0 .167.083.25.083.084 0 .167-.083.25-.083.084-.084.25-.084.334-.167h.666c.167 0 .167 0 .084.167-.084.25 0 .25.25.333h.166c.084 0 .167.083.25.167l.084.083c.083 0 .083 0 .166.083.167 0 .167 0 .167-.166.083-.084.167-.167.25-.167s.167.083.25.083.167.084.25.084h.75a.18.18 0 0 0 .167-.167c0-.167.083-.25.083-.417s0-.166-.167-.083c-.083 0-.166.083-.25 0s-.166-.083-.333 0-.25 0-.25-.167c0-.083-.083-.166-.083-.25.166-.083.416-.166.583-.25h.083c.167 0 .334.084.417.084H18c.083 0 .167-.167.083-.25 0 0-.083-.084-.166-.084-.084 0-.167-.083-.25-.083-.084 0-.084-.083-.084-.167.25.084.25 0 .25-.083-.083.083-.25.083-.333.167.083.083.083.083.167.083-.084 0-.167.083-.167.083-.083 0-.083 0-.167-.083 0-.167-.166-.167-.25-.083-.083.083-.166.166-.166.25a.253.253 0 0 0 0 .333c-.167.083-.417 0-.584.167 0 .083.084.166.084.25s0 .166-.084.166c-.083 0-.083-.083-.166-.083v-.167h-.084a.18.18 0 0 1-.166-.166c0-.167-.084-.334-.334-.334-.083-.083-.25-.083-.333-.25 0-.083-.083 0-.083 0 .083 0 .083.084.166.084l.334.333c.083.083 0 .167-.084.25-.083.083-.333 0-.333-.083-.083-.084 0-.167.083-.25-.083-.084-.25-.167-.333-.25h-.083c-.167.083-.334.083-.5.083l-.084.083c0 .084 0 .084-.083.167-.083 0-.167.083-.167.083-.166.084-.166.084-.166.167v.167c-.084.083-.167.083-.25.166h-.5c-.25 0-.25-.083-.167-.333 0-.167.083-.25.083-.417 0 0 0-.083.084-.083h.166c.084 0 .25.083.334.083q.25 0 .25-.25c0-.166-.084-.333-.334-.416.084 0 .167-.084.25-.084a.64.64 0 0 0 .417-.166l.25-.25c.083-.084.167-.167.333-.167.084 0 .084 0 .084-.083 0-.084 0-.084-.084-.167 0-.083 0-.167.167-.167.083 0 .167.084.083.167v.083s0 .084.084.084c.083 0 .25 0 .333.083h.083c.084 0 .167-.083.334-.083q.25 0 .25-.25c0-.084 0-.084.083-.084h.167V6.5s0-.083-.084-.083c.084 0 .167 0 .25-.084.084 0 .167-.083.25-.083h-.5c-.083 0-.166 0-.25-.083-.083-.084 0-.167.084-.25v-.334h-.084c-.083 0-.083.084-.083.084-.083.083-.167.166-.25.166s-.083.084-.083.167l.083.083c.083.084.083.167 0 .167s-.083.083-.167.167c0 .083-.083.083-.083.166 0 .084-.083.084-.167.084-.083 0-.083-.084-.166-.167-.084-.25-.084-.25-.25-.083-.084 0-.167.083-.25 0-.167-.167-.084-.334.083-.417.25-.167.5-.333.75-.583.333-.334.75-.417 1.167-.334h.083c-.083-.083-.167-.083-.167-.166-.25-.167-.5-.25-.75-.417h-.166c-.167.167-.334.167-.417 0 0-.083-.083-.083-.083-.083s-.084 0-.084-.084c0-.083-.083-.083-.083-.083a8.8 8.8 0 0 0-2-.5c-1.25-.167-2.417 0-3.583.333-.334.084-.667.25-.917.334-.083.083-.167.083-.25.166v.084c-.083 0-.167.083-.25.083h-.167c-.333.25-.666.417-1 .75 0 0-.083 0-.083.083 0 0-.083.084-.167.084L6.25 6c.167 0 .333 0 .417-.167.083 0 .083-.083 0-.083v-.083c.25-.084.25-.084.333-.084 0 .084-.083.167 0 .167 0 0 .083 0 .167.083A.18.18 0 0 0 7 6c0 .083-.083.083-.167.167h-.166c.083.083.083.166 0 .166-.084 0-.167 0-.25.084 0 0-.084 0-.084.083s-.083.083-.166.167c-.084-.084-.25 0-.334.083a.18.18 0 0 0-.166.167q-.126.124 0 .25c.083 0 .083.083.166.083.167 0 .334.083.417.083v.25s0 .084.083.084H6.5s.083-.084.083-.167q.126-.25.25-.25c.084 0 .167-.083.25-.167 0 0 .084-.083.084-.166 0-.084 0-.167.083-.167.083-.083.083-.167.167-.167 0-.25.166-.25.416-.166.167.083.167.166.084.25 0 .083 0 .083.083.083s.167 0 .167-.083c.083-.084.166-.084.25-.167 0 .25.083.5.083.667h.167s.083 0 .083.083v.083l-.083.084c-.25.083-.5.25-.75.25-.167 0-.417.083-.584.166-.083 0-.166.084-.25.084V8c.084 0 .167-.083.25-.083.084-.084.167-.084.25-.084 0 .084-.083.167-.083.25.083.167.25.084.333.084a.9.9 0 0 1-.583.25c.083-.084.167-.084.25-.167-.25 0-.5.083-.667.25l-.083.083a.18.18 0 0 1-.167.167c-.333.083-.5.25-.666.417 0 0-.084 0-.084-.084v.167c0 .083-.083.25-.166.25-.167.167-.25.167-.334.25-.083.083-.25.083-.333.167-.083.083-.083.25-.167.25q-.124.124-.25 0c-.083 0-.166-.084-.166-.084-.084 0-.167 0-.25.084-.084.083-.167.083-.334.083-.083.333-.083.583-.166.917.083-.084.166-.084.333 0a4 4 0 0 0-.25.583h.417c.166 0 .166.083.166.167 0 .083-.083.166-.083.25v.166l-.083.084-.084-.084C4 12.25 4 12.167 4 12.083 3.833 12 3.75 12 3.667 12c0 2.25.916 4.333 2.416 5.833.167.167.417.334.584.5 0 0 0-.083-.084-.083-.25-.25-.25-.5-.333-.833 0-.417-.083-.917-.167-1.334-.083-.333-.25-.583-.583-.75-.167-.083-.25-.083-.25-.25 0-.083-.083-.083-.083-.166-.167-.25-.417-.584-.584-.834q-.125-.124 0-.25l.084-.083c-.084-.167-.084-.167 0-.333 0-.084.083-.084.083-.167.083-.083.083-.167.167-.25.083-.167.083-.25 0-.417V12.5c-.084 0-.167-.083-.25-.083.166 0 .25 0 .333.083.083-.167.5-.5.667-.5v.25c.166-.25.166-.25.416-.167.25.084.417.167.667.084h.083v.083l.25.25c.084.167.25.25.417.25h.25q.25 0 .25.25c0 .083 0 .25.083.333.084 0 .167 0 .25.167.25-.083.417 0 .417.167h.417c.166 0 .25.083.333.166.083.084.167.167.25.167.167.083.25.167.167.333-.084.167-.167.417-.334.584-.083.25-.083.333-.083.416v.417c0 .167-.083.333-.167.5-.083.083-.083.083-.25.083h-.166c-.084.084-.167.084-.334.167-.083 0-.083.083 0 .167.084.083 0 .166 0 .25s-.083.166-.083.166v.167c-.083.083-.083.167-.167.25-.083.167-.166.167-.333.083-.083 0-.083-.083-.167-.083l.084.083.166.167c.084.167 0 .25-.166.25H7.75c-.083 0-.083 0-.083.167v.166h-.084s-.083 0-.083-.083c0 .083.083.083.083.167.084.083.084.083 0 .166 0 .084-.083.084-.083.167v.083l.25.25c.917.584 2 .917 3.083 1.084.334.083.75.083 1.084.083.333 0 .833.333.833.833s-.5.834-.833.834A9.887 9.887 0 0 1 2 12C2 6.5 6.5 2 12 2c5.417 0 9.75 4.333 10 9.667 0 .333-.333.916-.833.916M5.5 8.167A.18.18 0 0 0 5.333 8c-.166 0-.333.167-.5.25h.5-.083c-.083.167-.25.25-.333.417v.166c.083 0 .083 0 .166-.083l.084-.083c.083-.084.083-.167.166-.167q.126-.125.25 0s0 .083-.083.083v.084h.083s.084 0 .084-.084c.083 0 .083-.083.166-.083l.084-.083h-.084c-.333-.084-.333-.084-.333-.25M17.333 5.75h.084l-.25-.25c-.084-.083-.167-.083-.334-.083H17c-.083 0-.083-.084-.167-.084V5.5c0 .083.084.167.167.25.083 0 .167.083.333 0 .084.083 0 .083 0 0M19.167 9c.083.083.166.083.333.083.083 0 .167 0 .167-.083.083-.083 0-.167-.084-.25 0 0-.083 0-.166-.083h.166s0-.084-.083-.084c0 0-.083 0-.083-.083-.084-.083-.167-.083-.25-.167 0 0-.084-.083 0-.166 0 0 .083-.084.166-.084h.084c0-.083-.084-.166-.084-.166h-.25C19 7.917 19 8 18.917 8q-.126.125 0 .25c.083.083.166.25.333.333q.124.126 0 .25c-.167.084-.167.167-.083.167m1 1.583c0-.083 0-.166-.084-.25H20c-.167.084-.333 0-.5-.166V10l-.083-.083h-.167v.166c.083.084.167.167.167.25.083.167.083.167.25.167 0 .167.083.167.25.083.083-.083.166-.083.25-.166z"/><path fill="#46464A" d="M18.25 22a3.734 3.734 0 0 1-3.75-3.75 3.734 3.734 0 0 1 3.75-3.75A3.734 3.734 0 0 1 22 18.25 3.734 3.734 0 0 1 18.25 22"/></svg>