<svg xmlns="http://www.w3.org/2000/svg" fill="none" viewBox="0 0 24 24"><g clip-path="url(#a)"><path fill="#FFEDEA" d="M12 24c6.627 0 12-5.373 12-12S18.627 0 12 0 0 5.373 0 12s5.373 12 12 12"/><path fill="#B81F1E" fill-rule="evenodd" d="M5.334 7.527c0-.77.623-1.394 1.393-1.394h8.648a1.6 1.6 0 0 1 1.6 1.6v.12h.092a1.6 1.6 0 0 1 1.6 1.6v6.814a1.6 1.6 0 0 1-1.6 1.6H6.934a1.6 1.6 0 0 1-1.6-1.6zM6.4 8.882v7.385c0 .294.239.533.534.533h10.133a.533.533 0 0 0 .533-.533v-1.01h-3.899a1.6 1.6 0 0 1-1.6-1.6v-1.513a1.6 1.6 0 0 1 1.6-1.6h3.9v-1.09a.533.533 0 0 0-.534-.534H6.727q-.17 0-.327-.038m11.2 2.729h-3.899a.533.533 0 0 0-.533.533v1.514c0 .294.239.533.533.533h3.9zM6.4 7.527c0 .18.147.327.327.327h9.181v-.12a.533.533 0 0 0-.533-.534H6.727a.327.327 0 0 0-.327.327" clip-rule="evenodd"/></g><defs><clipPath id="a"><path fill="#fff" d="M0 0h24v24H0z"/></clipPath></defs></svg>