<svg xmlns="http://www.w3.org/2000/svg" fill="none" viewBox="0 0 24 24"><rect width="20" height="20" x="2" y="2" fill="#000" rx="10"/><path fill="#fff" d="M16.43 9.259c-2.447-2.345-6.413-2.345-8.86 0l-.322.309a.3.3 0 0 0-.092.212.3.3 0 0 0 .092.212l1.007.966a.16.16 0 0 0 .221 0l.434-.416c1.707-1.635 4.474-1.635 6.18 0l.405.388a.16.16 0 0 0 .222 0l1.007-.965a.29.29 0 0 0 .067-.327.3.3 0 0 0-.067-.097zm2.978 2.855-.896-.86a.32.32 0 0 0-.443 0l-2.868 2.75a.08.08 0 0 1-.111 0l-2.869-2.75a.32.32 0 0 0-.443 0l-2.868 2.75a.08.08 0 0 1-.11 0l-2.869-2.75a.32.32 0 0 0-.443 0l-.896.86a.29.29 0 0 0-.068.327q.024.056.068.097l4.041 3.874a.32.32 0 0 0 .444 0l2.868-2.75a.08.08 0 0 1 .11 0l2.869 2.75a.32.32 0 0 0 .443 0l4.041-3.874a.3.3 0 0 0 .092-.212.3.3 0 0 0-.092-.212"/></svg>