<svg xmlns="http://www.w3.org/2000/svg" fill="none" viewBox="0 0 22 24"><path fill="#FFC220" d="M10.72 8.08c.559 0 1.03-.292 1.091-.668l.555-6.28C12.366.508 11.633 0 10.719 0 9.8 0 9.073.51 9.073 1.131l.56 6.281c.058.376.527.668 1.086.668Zm-3.403 1.965c.277-.49.261-1.035-.038-1.278l-5.177-3.62c-.539-.315-1.345.06-1.806.852-.46.791-.367 1.68.16 1.987l5.732 2.658c.367.137.847-.118 1.129-.604m6.803 0c.294.486.774.74 1.13.61l5.732-2.664c.532-.314.612-1.193.162-1.985-.46-.792-1.271-1.164-1.808-.856l-5.179 3.617c-.287.246-.307.793-.03 1.283m-3.407 5.88c.559 0 1.03.292 1.091.668l.555 6.28c0 .623-.733 1.127-1.647 1.127-.919 0-1.646-.504-1.646-1.126l.56-6.281c.058-.376.527-.668 1.086-.668Zm3.4-1.96c.294-.487.774-.747 1.13-.606l5.732 2.66c.532.308.612 1.195.162 1.987-.46.787-1.271 1.16-1.808.853l-5.179-3.621c-.287-.245-.307-.79-.03-1.273m-6.81-.005c.277.49.261 1.033-.038 1.278l-5.177 3.616c-.539.314-1.345-.061-1.806-.848-.46-.791-.367-1.68.16-1.987l5.732-2.66c.367-.14.847.118 1.129.601Z"/></svg>