<svg xmlns="http://www.w3.org/2000/svg" fill="none" viewBox="0 0 24 24"><path fill="#FFC220" d="M12 8.08c.56 0 1.03-.292 1.092-.668l.555-6.28C13.647.508 12.914 0 12 0c-.918 0-1.646.51-1.646 1.131l.56 6.281c.058.376.527.668 1.086.668m-3.402 1.965c.277-.49.261-1.035-.038-1.278l-5.177-3.62c-.538-.315-1.344.06-1.806.852-.46.791-.366 1.68.161 1.987l5.731 2.658c.367.137.847-.118 1.13-.604m6.803 0c.293.486.773.74 1.13.61l5.731-2.664c.533-.314.612-1.193.162-1.985-.46-.792-1.27-1.164-1.808-.856l-5.178 3.616c-.287.247-.308.794-.03 1.284M12 15.925c.56 0 1.03.292 1.092.668l.555 6.28c0 .623-.733 1.127-1.647 1.127-.918 0-1.646-.504-1.646-1.126l.56-6.281c.058-.376.527-.668 1.086-.668m3.402-1.959c.293-.488.773-.748 1.13-.607l5.731 2.66c.533.308.612 1.195.162 1.987-.46.787-1.27 1.161-1.808.853l-5.178-3.621c-.287-.245-.308-.79-.03-1.272m-6.811-.006c.277.49.261 1.033-.038 1.278l-5.177 3.616c-.538.314-1.344-.062-1.806-.848-.46-.791-.366-1.68.161-1.987l5.731-2.66c.367-.14.847.118 1.13.601"/></svg>