<svg xmlns="http://www.w3.org/2000/svg" fill="none" viewBox="0 0 24 24"><g clip-path="url(#a)"><path fill="#136AAD" d="M12 24c6.627 0 12-5.373 12-12S18.627 0 12 0 0 5.373 0 12s5.373 12 12 12Z"/><path fill="#fff" fill-rule="evenodd" d="m6.429 8.96 1.65.7v3.933L12 11.248l3.958 2.345V9.66l1.613-.7v7.413L12 13.083l-5.571 3.29V8.96Zm.187-.302L12 5.5l5.422 3.158-1.464.605L12 6.975 8.08 9.263l-1.464-.605Zm1.163 7.318 1.22-.7 3.02 1.749L15 15.276l1.257.7-4.24 2.524-4.239-2.524Z" clip-rule="evenodd"/></g><defs><clipPath id="a"><path fill="#fff" d="M0 0h24v24H0z"/></clipPath></defs></svg>