<svg xmlns="http://www.w3.org/2000/svg" fill="none" viewBox="0 0 24 24"><path fill="currentColor" fill-rule="evenodd" d="M10.793 5.18a1.393 1.393 0 0 1 2.414 0l7.065 12.247a1.393 1.393 0 0 1-1.207 2.09H4.935a1.393 1.393 0 0 1-1.207-2.09L10.793 5.18Zm3.745-.768c-1.127-1.954-3.949-1.954-5.076 0L2.396 16.66c-1.127 1.954.283 4.395 2.539 4.395h14.13c2.256 0 3.665-2.441 2.538-4.395L14.538 4.412ZM12 8.154a.77.77 0 0 1 .77.77v3.845a.77.77 0 1 1-1.54 0V8.923a.77.77 0 0 1 .77-.77Zm1.1 7.946a1.1 1.1 0 1 1-2.2 0 1.1 1.1 0 0 1 2.2 0Z" clip-rule="evenodd"/></svg>