<svg xmlns="http://www.w3.org/2000/svg" fill="none" viewBox="0 0 24 24"><g clip-path="url(#a)"><path fill="#F89022" d="M12 24c6.627 0 12-5.373 12-12S18.627 0 12 0 0 5.373 0 12s5.373 12 12 12"/><path fill="#fff" fill-rule="evenodd" d="M19.5 13.539h-1.477l-1.049-.898-1.044.894h-1.249l-.597-.725h-2.057l.52-.643h1.012l-.77-.943-2.69 3.276H8.85l.779-.951h-1.3l-.704-1.971-.697 1.956h-1.32L4.5 10.464h1.013l.745 2.09L7 10.473h1.25l.74 2.077.74-2.078h1.016L9.63 13.549l.248-.304 2.283-2.778h1.256l1.9 2.317.913-.785L13.338 9.5h1.484zm-1.466-1.858-.697-.597.696-.593 1.406.002z" clip-rule="evenodd"/></g><defs><clipPath id="a"><path fill="#fff" d="M0 0h24v24H0z"/></clipPath></defs></svg>