<svg xmlns="http://www.w3.org/2000/svg" fill="none" viewBox="0 0 24 24"><g clip-path="url(#a)"><path fill="#201A2D" d="M12 24c6.627 0 12-5.373 12-12S18.627 0 12 0 0 5.373 0 12s5.373 12 12 12"/><path fill="#fff" d="m16.1 8.228-.357.357a5.053 5.053 0 0 1 0 6.82l.357.357a5.564 5.564 0 0 0 0-7.542zm-7.506.031a5.053 5.053 0 0 1 6.82 0l.357-.357a5.564 5.564 0 0 0-7.543 0zm-.335 7.15a5.053 5.053 0 0 1 0-6.817l-.357-.357a5.564 5.564 0 0 0 0 7.543zm7.15.33a5.053 5.053 0 0 1-6.82 0l-.357.356a5.564 5.564 0 0 0 7.542 0zm-1.155-4.93c-.072-.745-.714-.995-1.527-1.071V8.712h-.628V9.72h-.502V8.712h-.624v1.033H9.7v.672s.464-.008.457 0a.325.325 0 0 1 .357.276v2.827a.22.22 0 0 1-.076.154.22.22 0 0 1-.162.055c.008.007-.457 0-.457 0l-.12.75h1.263v1.05h.629v-1.034h.502v1.03h.63v-1.039c1.06-.064 1.8-.325 1.893-1.319.075-.8-.3-1.156-.902-1.3.366-.18.592-.513.54-1.058m-.88 2.234c0 .78-1.338.692-1.764.692V12.35c.426 0 1.763-.122 1.763.693m-.292-1.951c0 .714-1.117.627-1.471.627V10.46c.354 0 1.47-.112 1.47.632"/><path fill="#fff" d="M11.999 18.5A6.5 6.5 0 1 1 12 5.5a6.5 6.5 0 0 1-.002 13m0-12.493a5.99 5.99 0 1 0 .009 11.979 5.99 5.99 0 0 0-.01-11.98"/></g><defs><clipPath id="a"><path fill="#fff" d="M0 0h24v24H0z"/></clipPath></defs></svg>