<svg xmlns="http://www.w3.org/2000/svg" fill="none" viewBox="0 0 24 24"><path fill="#62757E" fill-rule="evenodd" d="m9.234 20.243-3.865-2.251a2.012 2.012 0 1 1-1.827-3.547V10.17a2.777 2.777 0 1 1 2.66-4.648L10.019 3.3A2.013 2.013 0 1 1 14 3.311l3.795 2.212a2.776 2.776 0 1 1 2.661 4.648.95.95 0 0 1-.834-.3c-.83-.894-1.263-1.154-2.513-1.567a2.8 2.8 0 0 1-.07-1.37l-3.887-2.265a2 2 0 0 1-1.143.356c-.429 0-.826-.134-1.153-.362L6.96 6.933a2.8 2.8 0 0 1-.017 1.175l2.849 1.59c.405.226.5.765.248 1.155-.228.354-.69.505-1.058.3l-2.884-1.61a2.8 2.8 0 0 1-.955.565v4.439a2.01 2.01 0 0 1 1.072 2.086l3.496 2.036c.212-.313.655-.257.905.026l.027.031c.271.304.247.794.147 1.19a1.26 1.26 0 0 0 1.22 1.567c.34 0 .65-.135.876-.354.292-.282.696-.547 1.093-.465.393.08.69.458.508.816a2.776 2.776 0 0 1-5.252-1.237M5.496 7.483a1.259 1.259 0 1 1-2.518 0 1.259 1.259 0 0 1 2.518 0M19.762 8.74a1.259 1.259 0 1 0 0-2.517 1.259 1.259 0 0 0 0 2.517M10 14.361C10 11.418 12.296 9 15.164 9s5.164 2.417 5.164 5.362a5.5 5.5 0 0 1-.777 2.829l2.2 2.29a.907.907 0 0 1 0 1.251.86.86 0 0 1-1.25 0l-2.103-2.19a5.03 5.03 0 0 1-3.234 1.181c-2.868 0-5.164-2.417-5.164-5.361m5.164-3.575c-1.87 0-3.415 1.584-3.415 3.576s1.545 3.575 3.415 3.575 3.415-1.584 3.415-3.575-1.546-3.576-3.415-3.576" clip-rule="evenodd"/></svg>