<svg xmlns="http://www.w3.org/2000/svg" fill="none" viewBox="0 0 24 24"><path fill="#62757E" fill-rule="evenodd" d="M12.01 5.025c.425 0 .819-.131 1.143-.356l3.888 2.265a2.8 2.8 0 0 0 .039 1.265l-4.253 2.36V7.693c0-.49-.366-.888-.817-.888s-.816.398-.816.888v2.835L6.94 8.116a2.8 2.8 0 0 0 .018-1.182l3.899-2.271c.326.228.724.362 1.152.362M14 3.311l3.797 2.212a2.776 2.776 0 1 1 2.661 4.648v4.27a2.017 2.017 0 1 1-1.834 3.555l-3.838 2.235v-.007a2.776 2.776 0 0 1-5.552.02L5.37 17.991a2.012 2.012 0 1 1-1.827-3.547V10.17a2.777 2.777 0 1 1 2.66-4.648L10.018 3.3a2.013 2.013 0 1 1 3.983.011M9.71 18.67a2.78 2.78 0 0 1 1.484-1.099v-4.2l-2.676 1.485a.833.833 0 0 1-.825-1.447l2.63-1.46L6.09 9.55a2.8 2.8 0 0 1-.949.559v4.439a2.01 2.01 0 0 1 1.073 2.086zm3.117-1.099a2.78 2.78 0 0 1 1.477 1.09l3.473-2.023a2.02 2.02 0 0 1 1.081-2.098v-4.431a2.8 2.8 0 0 1-.883-.501l-4.248 2.358 2.546 1.444a.833.833 0 0 1-.826 1.446l-2.62-1.486zM5.497 7.483a1.259 1.259 0 1 1-2.518 0 1.259 1.259 0 0 1 2.517 0M19.762 8.74a1.259 1.259 0 1 0 0-2.517 1.259 1.259 0 0 0 0 2.517m-6.494 11.483a1.259 1.259 0 1 1-2.517 0 1.259 1.259 0 0 1 2.517 0" clip-rule="evenodd"/></svg>