<svg xmlns="http://www.w3.org/2000/svg" fill="none" viewBox="0 0 24 24"><path fill="#62757E" fill-rule="evenodd" d="M17.625 10.75a4.375 4.375 0 1 0 0-8.75 4.375 4.375 0 0 0 0 8.75M9.15 17.625a2.775 2.775 0 1 1-5.55 0 2.775 2.775 0 0 1 5.55 0m1.6 0a4.375 4.375 0 1 1-8.75 0 4.375 4.375 0 0 1 8.75 0m1.035-13.282a.8.8 0 0 1-.628.942c-2.933.586-5.286 2.939-5.872 5.872a.8.8 0 0 1-1.57-.314c.714-3.566 3.562-6.414 7.128-7.127a.8.8 0 0 1 .942.627m.915 14.414a.8.8 0 0 0 .594 1.486c3.455-1.382 5.567-3.494 6.949-6.949a.8.8 0 0 0-1.486-.594c-1.219 3.048-3.009 4.838-6.057 6.057" clip-rule="evenodd"/></svg>