<svg xmlns="http://www.w3.org/2000/svg" fill="none" viewBox="0 0 24 24"><g fill-rule="evenodd" clip-path="url(#a)" clip-rule="evenodd"><path fill="#EDEFF1" d="M11.953 0a12 12 0 1 1 0 24 12 12 0 0 1 0-24"/><path fill="#343434" d="m12 5.5 2.176 3.252 2.177 3.252L12 14.197l-4.353-2.201 2.177-3.253zm0 9.573L7.89 12.88 12 18.492l4.111-5.613z"/><path fill="#303030" d="m12 5.5 2.176 3.243 2.177 3.253L12 10.353zm0 9.573 4.12-2.193L12 18.5z"/><path fill="#131313" d="m12 10.353 4.353 1.643L12 14.189z"/><path fill="#818384" d="M12 5.5 9.824 8.743l-2.177 3.253L12 10.353zm0 9.573L7.889 12.88l4.11 5.62z"/><path fill="#343434" d="m12 10.353-4.353 1.643L12 14.189z"/></g><defs><clipPath id="a"><path fill="#fff" d="M0 0h24v24H0z"/></clipPath></defs></svg>