<svg xmlns="http://www.w3.org/2000/svg" fill="none" viewBox="0 0 24 24"><g clip-path="url(#a)"><path fill="#B80000" d="M12 24c6.627 0 12-5.373 12-12S18.627 0 12 0 0 5.373 0 12s5.373 12 12 12"/><path fill="#fff" d="M18.925 8.07c.11.186.095.38-.014.571-.162.259-.312.523-.467.784l-1.274 2.176-2.55 4.327a.52.52 0 0 1-.498.27.54.54 0 0 1-.47-.3q-.157-.278-.321-.554l-1.073-1.828c-.08-.138-.162-.273-.254-.426-.09.152-.174.287-.254.426l-1.073 1.827q-.165.275-.322.554a.53.53 0 0 1-.47.302.52.52 0 0 1-.497-.271q-.604-1.02-1.204-2.042-.676-1.141-1.347-2.285-.635-1.088-1.274-2.176c-.154-.261-.306-.525-.466-.784-.116-.19-.133-.385-.024-.57.106-.183.278-.271.498-.271 1.378.004 2.756.014 4.134.002.348-.002.555.13.718.42.348.621.718 1.227 1.076 1.84.15.26.297.52.45.78.011.019.03.033.048.05a.2.2 0 0 0 .048-.05c.15-.258.297-.52.45-.78.36-.613.728-1.222 1.076-1.84.161-.29.37-.422.717-.42 1.378.012 2.756.002 4.134-.002.225 0 .397.088.503.27m-7.59 4.029a.22.22 0 0 0 .002-.183c-.07-.143-.162-.278-.244-.418-.493-.842-.987-1.68-1.477-2.524-.05-.086-.109-.117-.21-.117q-1.379.006-2.756.007c-.044 0-.087.007-.15.012l3.358 5.73c.097-.16.178-.29.256-.422q.615-1.04 1.22-2.085m2.807 2.507c1.123-1.918 2.236-3.817 3.36-5.73-.065-.005-.107-.012-.15-.012q-1.378-.001-2.756-.007c-.101 0-.16.031-.21.116q-.737 1.263-1.477 2.525c-.082.138-.172.273-.245.418a.22.22 0 0 0 0 .183q.609 1.043 1.222 2.085c.077.133.16.264.256.422"/></g><defs><clipPath id="a"><path fill="#fff" d="M0 0h24v24H0z"/></clipPath></defs></svg>