<svg xmlns="http://www.w3.org/2000/svg" fill="none" viewBox="0 0 24 24"><g clip-path="url(#a)"><path fill="#01D8B4" d="M11.123 19.844c1.042-1.457 1.888-3.464 3.158-6.688 1.97-4.974 3.524-6.812 7.468-8.143 0 0-3.6-.764-7.637 1.92-3.747 2.498-4.909 4.33-7.445 4.33a4.517 4.517 0 0 1-4.162-6 .115.115 0 0 0-.05-.152.125.125 0 0 0-.168.043 11.885 11.885 0 0 0 1.81 15.611 10.952 10.952 0 0 1-3.507 2.34.164.164 0 0 0 0 .306 9.595 9.595 0 0 0 6.868-.507 9.389 9.389 0 0 0 1.81-1.168 8.405 8.405 0 0 0 1.855-1.892Z"/><path fill="#DEEFF8" d="M22.038 5.678c-3.66 1.238-5.193 2.918-7.13 7.822-1.221 3.104-2.11 5.253-3.223 6.802a8.996 8.996 0 0 1-1.942 1.996 10.52 10.52 0 0 1-1.342.911c1.187.401 2.43.607 3.682.611A11.896 11.896 0 0 0 22.18 5.635l-.142.043Z"/><path fill="#1D2A98" d="M21.747 5.012c-3.085-.349-5.962.665-8.396 2.51-.993.753-1.967 1.533-2.964 2.282-.861.647-1.772 1.211-2.845 1.44-1.77.38-3.69-.46-4.682-2.028-.723-1.142-.87-2.488-.583-3.797.023-.108.041-.218.061-.327C5.031 1.402 8.63-.233 13.18.162c3.314.287 6.09 1.758 8.174 4.36.115.144.215.27.393.49Z"/><circle cx="11.597" cy="5.77" r=".171" fill="#fff"/><circle cx="12.142" cy="11.899" r=".751" fill="#1D2A98"/><circle cx="12.59" cy="2.473" r=".288" fill="#fff"/><circle cx="8.93" cy="4.52" r=".198" fill="#fff"/><circle cx="7.386" cy="7.592" r=".256" fill="#fff"/></g><defs><clipPath id="a"><path fill="#fff" d="M0 0h24v24H0z"/></clipPath></defs></svg>