<svg xmlns="http://www.w3.org/2000/svg" fill="none" viewBox="0 0 24 24"><g clip-path="url(#a)"><path fill="#00674B" d="M4.527 5.07c.341 0 .558-.33.774-.84.28-.631 1.58-1.8 3.375-1.8 1.363 0 2.694.81 3.778 1.65 1.022.81 1.858.84 1.858 1.2 0 .12-.217.21-.464.21-1.022 0-2.817-1.47-4.737-1.47-2.168 0-3.934 1.8-3.934 2.82 0 .3.124.54.527.54.465 0 .992-1.081 2.199-1.081 1.114 0 2.044 1.02 3.592.81.186-.03.247.24.122.301C8.52 9.09 5.24 10.68 5.24 15.99c0 4.079 2.384 8.01 7.647 8.01C18.369 24 21 20.58 21 15.99c0-3.96-2.506-7.62-5.882-7.62-.124 0-.248 0-.373.03a.52.52 0 0 0-.403.51c0 .329.094.42.31.568 2.17 1.472 2.914 2.912 2.914 6.902 0 2.82-1.21 5.95-4.246 5.95-3.281 0-4.675-3.37-4.675-6.4 0-3.51.93-5.161 3.222-6.81 2.475-1.8 5.42-2.64 5.42-4.29 0-.81-.9-.96-1.488-.99-.527-.03-1.27-.211-1.642-.72C12.64 1.59 10.874 0 8.77 0 5.766 0 4 3.06 4 4.2c0 .45.093.87.527.87"/></g><defs><clipPath id="a"><path fill="#fff" d="M0 0h24v24H0z"/></clipPath></defs></svg>