<svg xmlns="http://www.w3.org/2000/svg" fill="none" viewBox="0 0 24 24"><g clip-path="url(#a)"><path fill="#5783CB" d="M12 24c6.627 0 12-5.373 12-12S18.627 0 12 0 0 5.373 0 12s5.373 12 12 12"/><path fill="#fff" d="M11.626 5.5h.672a6.28 6.28 0 0 1 3.943 1.647c.184.119.184.411-.033.487-.184.043-.325-.119-.465-.216a5.82 5.82 0 0 0-8.017.931 5.688 5.688 0 0 0 6.283 8.96 5.85 5.85 0 0 0 3.814-4.334q.143-.594.184-1.202a.228.228 0 0 1 .455.043l-.022.672a6.32 6.32 0 0 1-1.863 4.149 6.46 6.46 0 0 1-4.225 1.863h-.64a6.51 6.51 0 0 1-6.174-6.197v-.606A6.53 6.53 0 0 1 11.626 5.5"/><path fill="#fff" d="M16.913 8.87c.433-.477 1.332-.217 1.43.422.14.574-.412 1.061-.975 1.018-.748.758-1.344 1.658-1.853 2.6-.206.282.054.65-.108.943-.195.574-1.04.693-1.408.216-.271-.303-.195-.726-.055-1.061a4.4 4.4 0 0 0-.812-1.16l-.325.011c-.712.784-1.3 1.672-1.744 2.633.076.292.13.639-.076.899-.27.444-.986.487-1.322.076-.249-.282-.216-.683-.086-1.019a10.2 10.2 0 0 0-1.582-2.816c-.423-.022-.867-.271-.92-.715-.142-.607.552-1.192 1.126-.921.509.184.65.834.4 1.278a10.4 10.4 0 0 0 1.701 2.86 9.2 9.2 0 0 0 1.875-2.676c-.087-.292-.141-.628.054-.899.292-.476 1.072-.487 1.376-.01.227.292.151.682.021.996.201.429.468.824.791 1.17l.325-.022c.79-.834 1.517-1.755 2.004-2.805-.054-.347-.119-.759.174-1.019z"/></g><defs><clipPath id="a"><path fill="#fff" d="M0 0h24v24H0z"/></clipPath></defs></svg>