<svg xmlns="http://www.w3.org/2000/svg" fill="none" viewBox="0 0 24 24"><g clip-path="url(#a)"><path fill="#5783CB" d="M12 24c6.627 0 12-5.373 12-12S18.627 0 12 0 0 5.373 0 12s5.373 12 12 12Z"/><path fill="#fff" d="M11.626 5.5h.672a6.275 6.275 0 0 1 3.943 1.647c.184.119.184.411-.033.487-.184.043-.325-.119-.465-.216a5.818 5.818 0 0 0-8.017.931 5.688 5.688 0 0 0 6.283 8.96 5.85 5.85 0 0 0 3.814-4.334c.095-.395.157-.797.184-1.202a.228.228 0 0 1 .455.043l-.022.671a6.316 6.316 0 0 1-1.863 4.15 6.457 6.457 0 0 1-4.225 1.863h-.64a6.51 6.51 0 0 1-6.174-6.197v-.606A6.532 6.532 0 0 1 11.626 5.5Z"/><path fill="#fff" d="M16.913 8.87c.433-.477 1.332-.217 1.43.422.14.574-.412 1.062-.976 1.018-.747.759-1.343 1.658-1.852 2.6-.206.282.054.65-.108.943-.195.574-1.04.693-1.409.216-.27-.303-.195-.725-.054-1.061a4.378 4.378 0 0 0-.812-1.16l-.325.011c-.712.784-1.3 1.672-1.745 2.633.076.292.13.64-.075.9-.271.443-.986.487-1.322.075-.25-.282-.217-.683-.087-1.018a10.184 10.184 0 0 0-1.581-2.817c-.423-.022-.867-.27-.921-.715-.141-.607.552-1.192 1.126-.92.51.183.65.833.401 1.277.41 1.04.984 2.005 1.701 2.86a9.184 9.184 0 0 0 1.874-2.675c-.086-.293-.14-.629.054-.9.293-.476 1.073-.487 1.376-.01.228.292.152.682.022.996.201.429.468.824.79 1.17l.326-.021c.79-.835 1.516-1.755 2.004-2.806-.054-.347-.12-.759.173-1.019h-.01Z"/></g><defs><clipPath id="a"><path fill="#fff" d="M0 0h24v24H0z"/></clipPath></defs></svg>