<svg xmlns="http://www.w3.org/2000/svg" fill="none" viewBox="0 0 24 24"><path fill="#62757E" fill-rule="evenodd" d="M6.5 3.67h11a2.83 2.83 0 1 1 0 5.66h-11a2.83 2.83 0 1 1 0-5.66M2 6.5A4.5 4.5 0 0 1 6.5 2h11a4.5 4.5 0 1 1 0 9h-11A4.5 4.5 0 0 1 2 6.5m4.622 1.794c.357 0 .69-.105.968-.286l.62.62a.371.371 0 1 0 .525-.526l-.62-.62a1.779 1.779 0 1 0-1.493.811m0-1a.78.78 0 1 0 0-1.558.78.78 0 0 0 0 1.559M2.2 18.546A3.255 3.255 0 0 0 5.455 21.8h2.454a3.254 3.254 0 0 0 3.255-3.255v-2.454a3.254 3.254 0 0 0-3.255-3.255H5.455A3.255 3.255 0 0 0 2.2 16.091zM5.455 20.2c-.914 0-1.655-.74-1.655-1.655v-2.454c0-.914.74-1.655 1.655-1.655h2.454c.914 0 1.655.741 1.655 1.655v2.454c0 .914-.741 1.655-1.655 1.655zm7.381-1.655a3.255 3.255 0 0 0 3.255 3.255h2.454a3.255 3.255 0 0 0 3.255-3.255v-2.454a3.255 3.255 0 0 0-3.254-3.255H16.09a3.255 3.255 0 0 0-3.255 3.255zm3.255 1.655c-.914 0-1.655-.74-1.655-1.655v-2.454c0-.914.741-1.655 1.655-1.655h2.454c.914 0 1.655.741 1.655 1.655v2.454c0 .914-.74 1.655-1.654 1.655z" clip-rule="evenodd"/></svg>