<svg xmlns="http://www.w3.org/2000/svg" fill="none" viewBox="0 0 24 24"><path fill="currentColor" fill-rule="evenodd" d="M2.2 18.545A3.255 3.255 0 0 0 5.455 21.8h2.454a3.254 3.254 0 0 0 3.255-3.255v-2.454a3.254 3.254 0 0 0-3.255-3.255H5.455A3.255 3.255 0 0 0 2.2 16.091v2.454ZM5.455 20.2c-.914 0-1.655-.74-1.655-1.655v-2.454c0-.914.74-1.655 1.655-1.655h2.454c.914 0 1.655.741 1.655 1.655v2.454c0 .914-.741 1.655-1.655 1.655H5.455Zm7.381-1.655a3.255 3.255 0 0 0 3.255 3.255h2.454a3.255 3.255 0 0 0 3.255-3.255v-2.454a3.255 3.255 0 0 0-3.255-3.255h-2.454a3.255 3.255 0 0 0-3.255 3.255v2.454Zm3.255 1.655c-.914 0-1.655-.74-1.655-1.655v-2.454c0-.914.741-1.655 1.655-1.655h2.454c.914 0 1.655.741 1.655 1.655v2.454c0 .914-.74 1.655-1.654 1.655H16.09ZM6.622 8.294c.357 0 .69-.105.968-.286l.62.62a.371.371 0 1 0 .525-.526l-.62-.62a1.779 1.779 0 1 0-1.493.811Zm0-1a.78.78 0 1 0 0-1.558.78.78 0 0 0 0 1.559Z" clip-rule="evenodd"/><path fill="currentColor" fill-rule="evenodd" d="M17.5 3.67h-11a2.83 2.83 0 1 0 0 5.66h11a2.83 2.83 0 1 0 0-5.66ZM6.5 2a4.5 4.5 0 0 0 0 9h11a4.5 4.5 0 1 0 0-9h-11Z" clip-rule="evenodd"/></svg>