<svg xmlns="http://www.w3.org/2000/svg" fill="none" viewBox="0 0 24 24"><path fill="#687485" fill-rule="evenodd" d="M2.2 18.545A3.255 3.255 0 0 0 5.455 21.8h2.454a3.255 3.255 0 0 0 3.255-3.255v-2.454a3.255 3.255 0 0 0-3.255-3.255H5.455A3.255 3.255 0 0 0 2.2 16.091v2.454ZM5.455 20.2c-.914 0-1.655-.74-1.655-1.655v-2.454c0-.914.74-1.655 1.655-1.655h2.454c.914 0 1.655.741 1.655 1.655v2.454c0 .914-.741 1.655-1.655 1.655H5.455Zm7.381-1.655a3.255 3.255 0 0 0 3.255 3.255h2.454a3.255 3.255 0 0 0 3.255-3.255v-2.454a3.255 3.255 0 0 0-3.255-3.255h-2.454a3.255 3.255 0 0 0-3.255 3.255v2.454Zm3.255 1.655c-.914 0-1.655-.74-1.655-1.655v-2.454c0-.914.741-1.655 1.655-1.655h2.454c.914 0 1.655.741 1.655 1.655v2.454c0 .914-.74 1.655-1.655 1.655h-2.454ZM2.2 7.91a3.255 3.255 0 0 0 3.255 3.254h2.454a3.255 3.255 0 0 0 3.255-3.255V5.455A3.255 3.255 0 0 0 7.909 2.2H5.455A3.255 3.255 0 0 0 2.2 5.455v2.454Zm3.255 1.654A1.655 1.655 0 0 1 3.8 7.909V5.455c0-.914.74-1.655 1.655-1.655h2.454c.914 0 1.655.74 1.655 1.655v2.454c0 .914-.741 1.655-1.655 1.655H5.455Zm11.863 1.6a.8.8 0 0 0 .8-.8V7.482H21a.8.8 0 0 0 0-1.6h-2.882V3a.8.8 0 1 0-1.6 0v2.882h-2.882a.8.8 0 0 0 0 1.6h2.882v2.882a.8.8 0 0 0 .8.8Z" clip-rule="evenodd"/></svg>