<svg xmlns="http://www.w3.org/2000/svg" fill="none" viewBox="0 0 24 24"><path fill="#62757E" fill-rule="evenodd" d="M19.33 6a2.33 2.33 0 1 1-4.66 0 2.33 2.33 0 0 1 4.66 0m-.154 3.357a4 4 0 1 1 1.18-1.18L21.75 9.57a.835.835 0 1 1-1.18 1.18zM2.2 18.545A3.255 3.255 0 0 0 5.455 21.8h2.454a3.255 3.255 0 0 0 3.255-3.255v-2.454a3.255 3.255 0 0 0-3.255-3.255H5.455A3.255 3.255 0 0 0 2.2 16.091zM5.455 20.2c-.914 0-1.655-.74-1.655-1.655v-2.454c0-.914.74-1.655 1.655-1.655h2.454c.914 0 1.655.741 1.655 1.655v2.454c0 .914-.741 1.655-1.655 1.655zm7.381-1.655a3.255 3.255 0 0 0 3.255 3.255h2.454a3.255 3.255 0 0 0 3.255-3.255v-2.454a3.255 3.255 0 0 0-3.255-3.255h-2.454a3.255 3.255 0 0 0-3.255 3.255zm3.255 1.655c-.914 0-1.655-.74-1.655-1.655v-2.454c0-.914.741-1.655 1.655-1.655h2.454c.914 0 1.655.741 1.655 1.655v2.454c0 .914-.74 1.655-1.655 1.655zM2.2 7.91a3.255 3.255 0 0 0 3.255 3.254h2.454a3.255 3.255 0 0 0 3.255-3.255V5.455A3.255 3.255 0 0 0 7.909 2.2H5.455A3.255 3.255 0 0 0 2.2 5.455zm3.255 1.654A1.655 1.655 0 0 1 3.8 7.909V5.455c0-.914.74-1.655 1.655-1.655h2.454c.914 0 1.655.74 1.655 1.655v2.454c0 .914-.741 1.655-1.655 1.655z" clip-rule="evenodd"/></svg>