<svg xmlns="http://www.w3.org/2000/svg" fill="none" viewBox="0 0 24 24"><path fill="#62757E" fill-rule="evenodd" d="M21.755 8.304a.82.82 0 0 1-1.166-.007 11.98 11.98 0 0 0-8.623-3.63c-3.23 0-6.27 1.268-8.56 3.568a.82.82 0 0 1-1.166-.003.84.84 0 0 1 .003-1.18C4.845 4.44 8.298 3 11.966 3a13.6 13.6 0 0 1 9.796 4.125.84.84 0 0 1-.007 1.18M12 7.143c2.302 0 4.553.804 6.339 2.262a.84.84 0 0 1 .124 1.172.82.82 0 0 1-1.16.125A8.3 8.3 0 0 0 12 8.81a8.42 8.42 0 0 0-6.339 2.9.817.817 0 0 1-1.163.075.84.84 0 0 1-.073-1.177A10.05 10.05 0 0 1 12 7.143m0 4.168a6.3 6.3 0 0 1 2.867.686.84.84 0 0 1 .366 1.12.82.82 0 0 1-1.106.37A4.66 4.66 0 0 0 12 12.979c-1.608 0-3.09.812-3.966 2.172a.82.82 0 0 1-1.14.244.84.84 0 0 1-.242-1.153A6.34 6.34 0 0 1 12 11.312m0 4.183c1.364 0 2.473 1.122 2.473 2.5 0 1.38-1.109 2.503-2.473 2.503s-2.474-1.123-2.474-2.503c0-1.378 1.11-2.5 2.474-2.5m0 3.335a.83.83 0 0 0 .825-.835.83.83 0 0 0-.825-.833.83.83 0 0 0-.825.833c0 .461.37.835.825.835m4.099-3.328v-.833c0-1.38 1.154-2.5 2.517-2.5 1.364 0 2.517 1.12 2.517 2.5 0 0 .052.126.01.834a.84.84 0 0 1 .828.832v3.333a.84.84 0 0 1-.838.833h-5.034a.84.84 0 0 1-.839-.833v-3.333a.84.84 0 0 1 .839-.833m3.356-.833a.84.84 0 0 0-.84-.834.84.84 0 0 0-.838.834v.833h1.678zm-2.517 4.166h3.356v-1.667h-3.356z" clip-rule="evenodd"/></svg>