<svg xmlns="http://www.w3.org/2000/svg" fill="none" viewBox="0 0 24 24"><path fill="#62757E" fill-rule="evenodd" d="M21.755 8.305A.82.82 0 0 1 20.59 8.3a11.97 11.97 0 0 0-8.622-3.63 12 12 0 0 0-8.562 3.567.82.82 0 0 1-1.166-.003.84.84 0 0 1 .004-1.18A13.63 13.63 0 0 1 11.967 3c3.713 0 7.192 1.465 9.794 4.126a.84.84 0 0 1-.006 1.18M12 7.144c2.899 0 5.66 1.26 7.576 3.46a.84.84 0 0 1-.073 1.176.817.817 0 0 1-1.163-.074A8.4 8.4 0 0 0 12 8.812a8.42 8.42 0 0 0-6.339 2.9.817.817 0 0 1-1.163.074.84.84 0 0 1-.073-1.176A10.06 10.06 0 0 1 12 7.144m0 4.17a6.34 6.34 0 0 1 5.349 2.93.84.84 0 0 1-.243 1.154.82.82 0 0 1-1.14-.245A4.7 4.7 0 0 0 12 12.981a4.7 4.7 0 0 0-3.965 2.172.82.82 0 0 1-1.141.245.84.84 0 0 1-.242-1.153A6.34 6.34 0 0 1 12 11.314m0 4.182c1.365 0 2.474 1.122 2.474 2.502S13.364 20.5 12 20.5s-2.474-1.123-2.474-2.502c0-1.38 1.11-2.502 2.474-2.502m0 3.336a.83.83 0 0 0 .825-.834.83.83 0 0 0-.825-.834.83.83 0 0 0-.824.834c0 .46.37.834.824.834" clip-rule="evenodd"/></svg>