<svg xmlns="http://www.w3.org/2000/svg" fill="none" viewBox="0 0 24 24"><path fill="#ECEFF1" d="M20.39 0H3.61A3.61 3.61 0 0 0 0 3.61v16.78A3.61 3.61 0 0 0 3.61 24h16.78A3.61 3.61 0 0 0 24 20.39V3.61A3.61 3.61 0 0 0 20.39 0"/><path fill="#2F2F2F" d="m2.672 6.89-.047.048v.328c0 .093.094.14.234.14.985.047.985.235 1.36 1.125l4.406 9.61c.328.703.797.797 1.219-.047l2.203-4.313 2.062 4.313c.375.75.797.797 1.172 0L19.5 8.578c.375-.844.938-1.172 1.734-1.172q.141 0 .141-.14v-.328l-.047-.047h-3.89l-.047.046v.329c0 .093.093.14.187.14.516 0 1.406.094 1.031.938l-3.422 8.11-.14-.048-2.11-4.312 1.782-3.516c.422-.75.515-1.172 1.265-1.172.094 0 .188-.047.188-.14v-.328l-.047-.047h-3.14l-.047.046v.329c0 .14.187.14.328.14.89.047.797.375.515.938l-1.36 2.719-1.218-2.532c-.422-.797-.515-1.031.094-1.078.187-.047.422-.047.422-.187v-.328l-.047-.047H8.297l-.047.046v.375c0 .094.094.094.234.094.563.094.563.14 1.125 1.266l1.97 4.125-1.829 3.656-.14-.047L5.86 8.25c-.376-.844.14-.797.89-.844.14 0 .14-.047.14-.14v-.328l-.046-.047z"/></svg>