<svg xmlns="http://www.w3.org/2000/svg" fill="none" viewBox="0 0 24 24"><path fill="currentColor" fill-rule="evenodd" d="M17.93 11.16c-.421 0-.84-.073-1.25-.22l-1.517 1.516 1.265.422a.82.82 0 0 1 .326.201l4.999 4.998a.832.832 0 0 1 0 1.178l-2.5 2.499a.83.83 0 0 1-1.178 0l-5-4.999a.821.821 0 0 1-.2-.324l-.422-1.265-1.564 1.563c.539 1.355.195 2.816-.976 4.015-.78.798-1.946 1.256-3.2 1.256a4.764 4.764 0 0 1-1.475-.227.834.834 0 0 1-.334-1.38l1.388-1.387-.65-.65a1.007 1.007 0 0 1-.069-.077l-.57-.572-1.388 1.388a.832.832 0 0 1-1.382-.333c-.532-1.645-.108-3.566 1.03-4.675 1.19-1.157 2.696-1.513 4.018-.99l2.317-2.317-2.943-2.944h-1.38a.832.832 0 0 1-.588-.243L2.244 5.15a.833.833 0 0 1-.01-1.168L3.902 2.26a.837.837 0 0 1 .591-.254c.2-.03.439.086.596.244l2.5 2.5a.834.834 0 0 1 .244.588V6.66l2.945 2.943L13.12 7.26c-.543-1.44-.21-2.814.98-4.007.789-.791 1.958-1.247 3.204-1.247a4.71 4.71 0 0 1 1.464.225c.276.09.486.316.554.597a.836.836 0 0 1-.22.784l-1.388 1.387.558.558a.82.82 0 0 1 .217.226l.514.514 1.386-1.388a.832.832 0 0 1 1.383.333c.53 1.642.108 3.562-1.029 4.674-.834.815-1.808 1.245-2.815 1.245Zm-3.537 4.557 4.271 4.27 1.321-1.321-4.27-4.27-1.825-.608-.104.105.607 1.824ZM6.166 5.683 4.51 4.027l-.508.525 1.62 1.618h.545v-.487Zm13.428 2.38a.859.859 0 0 1-1.179 0l-1.238-1.239a.738.738 0 0 1-.068-.076l-1.162-1.161a.832.832 0 0 1 0-1.177l.669-.669c-.53.11-.998.347-1.336.688-.833.835-.96 1.62-.428 2.621a.83.83 0 0 1-.147.98L8.034 14.7A.833.833 0 0 1 7 14.817c-.815-.511-1.751-.338-2.576.464-.367.357-.587.835-.687 1.335l.676-.675a.856.856 0 0 1 1.177 0l1.24 1.238a1 1 0 0 1 .067.077l1.16 1.16a.831.831 0 0 1 0 1.178l-.673.674c.534-.109 1.002-.346 1.336-.688.567-.58 1.106-1.501.445-2.583a.832.832 0 0 1 .122-1.023l6.617-6.614a.831.831 0 0 1 .98-.146c.932.496 1.857.328 2.694-.49.367-.359.586-.836.688-1.334l-.673.673Z" clip-rule="evenodd"/></svg>