<svg xmlns="http://www.w3.org/2000/svg" fill="none" viewBox="0 0 24 24"><path fill="#62757E" fill-rule="evenodd" d="M20.333 21.333H3.667c-.92 0-1.667-.748-1.667-1.666v-15C2 3.747 2.748 3 3.667 3h16.666C21.253 3 22 3.748 22 4.667v15c0 .918-.747 1.666-1.667 1.666ZM3.667 19.667H20.33L20.333 8H3.666v11.667Zm0-15v1.666h16.666V4.667H3.667Z" clip-rule="evenodd"/><path fill="#62757E" fill-rule="evenodd" d="M12 18.3c-3.898 0-6-3.194-6-4.5s2.102-4.5 6-4.5 6 3.194 6 4.5-2.102 4.5-6 4.5Zm0-7.65c-3.053 0-4.5 2.527-4.5 3.15 0 .623 1.447 3.15 4.5 3.15s4.5-2.527 4.5-3.15c0-.623-1.447-3.15-4.5-3.15Zm0 5.338A2.19 2.19 0 0 1 9.813 13.8 2.19 2.19 0 0 1 12 11.613a2.19 2.19 0 0 1 2.188 2.187A2.19 2.19 0 0 1 12 15.988Z" clip-rule="evenodd"/></svg>