<svg xmlns="http://www.w3.org/2000/svg" fill="none" viewBox="0 0 24 24"><path fill="#62757E" fill-rule="evenodd" d="M20 4.4H4a.4.4 0 0 0-.4.4v5.025h16.8V4.8a.4.4 0 0 0-.4-.4M3.6 19.2v-7.675h16.8V19.2a.4.4 0 0 1-.4.4H4a.4.4 0 0 1-.4-.4M4 2.8a2 2 0 0 0-2 2v14.4a2 2 0 0 0 2 2h16a2 2 0 0 0 2-2V4.8a2 2 0 0 0-2-2zm2.14 3.429a.85.85 0 0 0 0 1.7h.805a.85.85 0 0 0 0-1.7zm2.653.85c0-.47.38-.85.85-.85h.805a.85.85 0 0 1 0 1.7h-.805a.85.85 0 0 1-.85-.85m4.354-.85a.85.85 0 0 0 0 1.7h.804a.85.85 0 0 0 0-1.7z" clip-rule="evenodd"/></svg>