<svg xmlns="http://www.w3.org/2000/svg" fill="none" viewBox="0 0 24 24"><path fill="#62757E" fill-rule="evenodd" d="M20 4.4H4a.4.4 0 0 0-.4.4V6h16.8V4.8a.4.4 0 0 0-.4-.4M2 6v13.2a2 2 0 0 0 2 2h16a2 2 0 0 0 2-2V4.8a2 2 0 0 0-2-2H4a2 2 0 0 0-2 2zm18.4 13.2V7.6H3.6v11.6c0 .22.18.4.4.4h16a.4.4 0 0 0 .4-.4m-8.392-2.809v.475a3.2 3.2 0 0 0 0-6.4v.475a2.725 2.725 0 0 1 0 5.45m1.533-2.725a1.54 1.54 0 0 1-1.533 1.54v.474a2.014 2.014 0 0 0 0-4.028v.474a1.54 1.54 0 0 1 1.533 1.54m-.712 0a.83.83 0 0 0-.82-.829v1.658a.83.83 0 0 0 .82-.829M12 17.576a3.91 3.91 0 1 1 0-7.82 3.91 3.91 0 0 1 0 7.82" clip-rule="evenodd"/></svg>