<svg xmlns="http://www.w3.org/2000/svg" fill="none" viewBox="0 0 24 24"><path fill="#62757E" fill-rule="evenodd" d="M20.333 21.333A1.67 1.67 0 0 0 22 19.667v-15A1.67 1.67 0 0 0 20.333 3H3.667A1.67 1.67 0 0 0 2 4.667v15a1.67 1.67 0 0 0 1.667 1.666h16.666ZM3.667 19.667V8h16.666v11.667H3.667Zm0-13.334h16.666V4.667H3.667v1.666Zm6.063 3.932a.922.922 0 1 0-1.306 1.306l2.117 2.116-2.117 2.117a.923.923 0 1 0 1.306 1.305l2.116-2.116 2.117 2.116a.92.92 0 0 0 1.305 0 .921.921 0 0 0 0-1.305l-2.117-2.117 2.117-2.116a.921.921 0 0 0 0-1.306.921.921 0 0 0-1.305 0l-2.117 2.117-2.116-2.117Z" clip-rule="evenodd"/></svg>