<svg xmlns="http://www.w3.org/2000/svg" fill="none" viewBox="0 0 24 24"><path fill="#62757E" fill-rule="evenodd" d="M20 4.4h-9.309v15.2H20a.4.4 0 0 0 .4-.4V4.8a.4.4 0 0 0-.4-.4m-16 0h4.991v15.2H4a.4.4 0 0 1-.4-.4V4.8c0-.22.18-.4.4-.4m0-1.6a2 2 0 0 0-2 2v14.4a2 2 0 0 0 2 2h16a2 2 0 0 0 2-2V4.8a2 2 0 0 0-2-2zm2.648 5.333a.85.85 0 1 0 0-1.7h-.805a.85.85 0 0 0 0 1.7zm.85 2.534c0 .47-.38.85-.85.85h-.805a.85.85 0 0 1 0-1.7h.805c.47 0 .85.38.85.85m-.85 4.234a.85.85 0 0 0 0-1.7h-.805a.85.85 0 1 0 0 1.7z" clip-rule="evenodd"/></svg>