<svg xmlns="http://www.w3.org/2000/svg" fill="none" viewBox="0 0 24 24"><path fill="#62757E" d="M20 2.8a2 2 0 0 1 2 2v14.4a2 2 0 0 1-2 2H4a2 2 0 0 1-2-2V4.8a2 2 0 0 1 2-2zM8.621 16.152a.8.8 0 0 1-.75.525H3.6V19.2c0 .221.18.4.4.4h16a.4.4 0 0 0 .4-.4v-2.523h-3.78a.8.8 0 0 1-.719-.445l-1.122-2.276-1.539 3.759a.8.8 0 0 1-1.502-.06l-1.713-5.36zM3.6 15.077h3.71l2.014-5.529.053-.115a.8.8 0 0 1 1.46.145l1.756 5.496 1.379-3.365a.8.8 0 0 1 1.458-.05l1.686 3.418H20.4V7.6H3.6zM4 4.4a.4.4 0 0 0-.4.4V6h16.8V4.8a.4.4 0 0 0-.4-.4z"/></svg>