<svg xmlns="http://www.w3.org/2000/svg" fill="none" viewBox="0 0 24 24"><path fill="#62757E" fill-rule="evenodd" d="M20.333 21.333H3.667c-.92 0-1.667-.747-1.667-1.666v-15A1.67 1.67 0 0 1 3.667 3h16.666A1.67 1.67 0 0 1 22 4.667v15c0 .919-.748 1.666-1.667 1.666ZM3.667 19.667H20.33L20.333 8h-1.666v4.167a.834.834 0 0 1-1.296.693l-2.037-1.358-2.038 1.358A.835.835 0 0 1 12 12.167V8H3.667v11.667Zm0-13.334H12V4.667H3.667v1.666Zm10-1.666v5.943l1.205-.803a.834.834 0 0 1 .925 0l1.203.802V4.667h-3.333Zm5 0v1.666h1.666V4.667h-1.666Z" clip-rule="evenodd"/></svg>