<svg xmlns="http://www.w3.org/2000/svg" fill="none" viewBox="0 0 24 24"><path fill="#62757E" fill-rule="evenodd" d="M20 2.835a2 2 0 0 1 2 2v14.33a2 2 0 0 1-2 2H4a2 2 0 0 1-2-2V4.835a2 2 0 0 1 2-2zm-.667 1.819a1 1 0 0 1 1 1v12.77a1 1 0 0 1-1 1h-8.642V4.654zM4.667 19.424H8.99V4.654H4.667a1 1 0 0 0-1 1v12.77a1 1 0 0 0 1 1m1.98-11.291a.85.85 0 1 0 0-1.7h-.804a.85.85 0 0 0 0 1.7zm.85 2.534c0 .47-.38.85-.85.85h-.804a.85.85 0 0 1 0-1.7h.805c.47 0 .85.38.85.85m-.85 4.234a.85.85 0 0 0 0-1.7h-.804a.85.85 0 1 0 0 1.7z" clip-rule="evenodd"/></svg>