<svg xmlns="http://www.w3.org/2000/svg" fill="none" viewBox="0 0 24 24"><path fill="#62757E" fill-rule="evenodd" d="M20 2a2 2 0 0 1 2 2v16a2 2 0 0 1-2 2H4a2 2 0 0 1-2-2V4a2 2 0 0 1 2-2h16Zm-.667 1.819a1 1 0 0 1 1 1v14.366a1 1 0 0 1-1 1h-8.642V3.82h8.642Zm-10.342 0v16.366H4.667a1 1 0 0 1-1-1V4.82a1 1 0 0 1 1-1H8.99ZM6.648 7.298a.85.85 0 1 0 0-1.7h-.805a.85.85 0 0 0 0 1.7h.805Zm.85 2.534c0 .47-.38.85-.85.85h-.805a.85.85 0 1 1 0-1.7h.805c.47 0 .85.38.85.85Zm-.85 4.234a.85.85 0 0 0 0-1.7h-.805a.85.85 0 0 0 0 1.7h.805Z" clip-rule="evenodd"/></svg>