<svg xmlns="http://www.w3.org/2000/svg" fill="none" viewBox="0 0 24 24"><path fill="#62757E" fill-rule="evenodd" d="M1 6.5a3.8 3.8 0 0 1 3.8-3.8h14.4A3.8 3.8 0 0 1 23 6.5v11a3.8 3.8 0 0 1-3.8 3.8H4.8A3.8 3.8 0 0 1 1 17.5zm3.8-2.2a2.2 2.2 0 0 0-2.2 2.2v11a2.2 2.2 0 0 0 2.2 2.2h14.4a2.2 2.2 0 0 0 2.2-2.2v-11a2.2 2.2 0 0 0-2.2-2.2zm12.335 7.46a2.072 2.072 0 1 1-4.145 0 2.072 2.072 0 0 1 4.145 0m-.137 2.985a3.558 3.558 0 1 1 1.05-1.05l1.24 1.239a.743.743 0 0 1-1.05 1.05zM4.5 7.312c0-.43.348-.777.777-.777h.227c.76 0 1.448.312 1.942.816a2.7 2.7 0 0 1 1.94-.816h.228a.777.777 0 1 1 0 1.554h-.227a1.165 1.165 0 0 0-1.164 1.165v5.535a1.165 1.165 0 0 0 1.164 1.122h.227a.777.777 0 0 1 0 1.554h-.227a2.7 2.7 0 0 1-1.942-.816 2.7 2.7 0 0 1-1.94.816h-.228a.777.777 0 1 1 0-1.554h.227a1.165 1.165 0 0 0 1.164-1.165V9.212a1.165 1.165 0 0 0-1.164-1.123h-.227a.777.777 0 0 1-.777-.777" clip-rule="evenodd"/></svg>