<svg xmlns="http://www.w3.org/2000/svg" fill="none" viewBox="0 0 24 24"><path fill="#62757E" fill-rule="evenodd" d="M20.333 21.333H3.667c-.92 0-1.667-.747-1.667-1.666v-15A1.67 1.67 0 0 1 3.667 3h16.666C21.253 3 22 3.748 22 4.667v15c0 .919-.747 1.666-1.667 1.666ZM3.667 19.667H20.33L20.333 8H3.666v11.667Zm0-15v1.666h16.666V4.667H3.667Zm12.5 12.5h-3.334a.834.834 0 0 1 0-1.667h3.334a.833.833 0 1 1 0 1.667Zm-7.745-.245a.831.831 0 0 1-1.178 0 .832.832 0 0 1 0-1.178l1.911-1.91-1.91-1.912a.832.832 0 1 1 1.177-1.178l2.5 2.5a.832.832 0 0 1 0 1.178l-2.5 2.5Z" clip-rule="evenodd"/></svg>