<svg xmlns="http://www.w3.org/2000/svg" fill="none" viewBox="0 0 24 24"><path fill="#62757E" fill-rule="evenodd" d="M20.333 21.333A1.67 1.67 0 0 0 22 19.667v-15A1.67 1.67 0 0 0 20.333 3H3.667A1.67 1.67 0 0 0 2 4.667v15a1.67 1.67 0 0 0 1.667 1.666h16.666Zm0-16.666v1.666H3.667V4.667h16.666Zm0 3.333H3.667v11.667h16.666V8ZM6.66 12.832a4.277 4.277 0 0 0-.073-.357c-.064-.21-.322-.42-.484-.552a1.406 1.406 0 0 1-.117-.101c-.086-.093-.086-.467 0-.56.172-.187 2.2-.353 4.382-.094.133.016.24.04.355.065.262.056.561.122 1.277.122.718 0 1.016-.065 1.278-.123a3.54 3.54 0 0 1 .355-.064c2.183-.259 4.21-.093 4.383.094.086.093.086.466 0 .56a1.413 1.413 0 0 1-.119.102c-.16.13-.419.34-.483.55-.019.062-.042.191-.073.359-.106.586-.299 1.648-.7 2.01-.532.481-2.538.474-2.922.265-.842-.456-1.179-1.918-1.335-2.596l-.009-.038c-.086-.373-.374-.373-.374-.373s-.273 0-.359.373c-.152.66-.5 2.165-1.36 2.63-.384.208-2.39.216-2.921-.264-.401-.364-.594-1.424-.701-2.008Z" clip-rule="evenodd"/></svg>