<svg xmlns="http://www.w3.org/2000/svg" fill="none" viewBox="0 0 24 24"><path fill="#62757E" fill-rule="evenodd" d="M20.333 21.333H3.667c-.92 0-1.667-.747-1.667-1.666v-15A1.67 1.67 0 0 1 3.667 3h16.666C21.253 3 22 3.748 22 4.667v15c0 .919-.747 1.666-1.667 1.666ZM3.667 19.667H20.33L20.333 8H3.666v11.667Zm0-15v1.666h16.666V4.667H3.667Zm12.5 12.5a.834.834 0 0 1-.834-.834v-5a.834.834 0 0 1 1.667 0v5c0 .46-.373.834-.833.834Zm-6.667 0a3.337 3.337 0 0 1-3.333-3.334A3.337 3.337 0 0 1 9.5 10.5a3.337 3.337 0 0 1 3.333 3.333A3.337 3.337 0 0 1 9.5 17.167Zm0-5a1.668 1.668 0 0 0 0 3.333c.92 0 1.667-.748 1.667-1.667s-.748-1.666-1.667-1.666Z" clip-rule="evenodd"/></svg>