<svg xmlns="http://www.w3.org/2000/svg" fill="none" viewBox="0 0 24 24"><path fill="#62757e" d="M16.948 2.014c.738 0 1.441.159 2.075.445a.8.8 0 0 1 .235 1.295l-2.737 2.737c.202.435.553.787.988.989l2.739-2.737.073-.065a.8.8 0 0 1 1.22.301 5.04 5.04 0 0 1-4.787 7.11l4.292 4.292a3.299 3.299 0 0 1-4.665 4.665l-4.87-4.87-3.826 4.646a3.201 3.201 0 1 1-4.505-4.505l5.76-4.745L5.93 8.56h-.996a.8.8 0 0 1-.686-.389L2.128 4.64a.8.8 0 0 1 .12-.977L3.662 2.25a.8.8 0 0 1 .977-.12l3.533 2.119a.8.8 0 0 1 .389.686v.996l3.163 3.163c.191-.41.256-.967.201-1.61a5.04 5.04 0 0 1 5.023-5.469m-2.19 10.341q-.198.12-.335.285l-1.891 2.294 4.981 4.982a1.699 1.699 0 0 0 2.403-2.403zm2.19-8.741a3.44 3.44 0 0 0-3.428 3.734c.09 1.075-.036 2.555-1.14 3.465l-.097.08-8.086 6.658a1.6 1.6 0 1 0 2.253 2.253l6.738-8.181c.42-.511.97-.813 1.527-.979.645-.192 1.33-.213 1.938-.162q.145.012.295.012a3.44 3.44 0 0 0 3.434-3.624l-2.09 2.091a.8.8 0 0 1-.745.214 3.63 3.63 0 0 1-2.72-2.72.8.8 0 0 1 .213-.745l2.091-2.092a4 4 0 0 0-.183-.004m-11.661 14.3a.8.8 0 0 1 .8.8v.007a.8.8 0 0 1-.8.8H5.28a.8.8 0 0 1-.8-.8v-.007a.8.8 0 0 1 .8-.8zm9.681-2.946a.8.8 0 0 1 1.132 0l2.473 2.474a.8.8 0 1 1-1.131 1.13L14.968 16.1a.8.8 0 0 1 0-1.132M3.821 4.351l1.565 2.61h.875c.212 0 .417.084.567.234l3.354 3.354.403-.332-3.39-3.39a.8.8 0 0 1-.235-.566v-.875L4.351 3.821z"/></svg>