<svg xmlns="http://www.w3.org/2000/svg" fill="none" viewBox="0 0 24 24"><path fill="#62757E" fill-rule="evenodd" d="M20.333 21.333H3.667c-.92 0-1.667-.748-1.667-1.666v-15C2 3.747 2.748 3 3.667 3h16.666C21.253 3 22 3.748 22 4.667v15c0 .918-.747 1.666-1.667 1.666Zm-.002-1.666L20.333 8H3.666v11.667H20.33Zm-16.664-15v1.666h16.666V4.667H3.667Zm7.5 4.964a3.337 3.337 0 0 1 3.333 3.333 3.29 3.29 0 0 1-.473 1.683l1.896 1.895a.832.832 0 1 1-1.179 1.178l-1.895-1.895a3.29 3.29 0 0 1-1.682.473 3.337 3.337 0 0 1-3.334-3.334 3.337 3.337 0 0 1 3.334-3.333Zm0 5c.325 0 .626-.098.884-.26a.809.809 0 0 1 .193-.33.819.819 0 0 1 .33-.193 1.65 1.65 0 0 0 .26-.884c0-.918-.748-1.666-1.667-1.666-.92 0-1.667.748-1.667 1.666 0 .92.748 1.667 1.667 1.667Z" clip-rule="evenodd"/></svg>