<svg xmlns="http://www.w3.org/2000/svg" fill="none" viewBox="0 0 24 24"><path fill="#62757E" fill-rule="evenodd" d="M20.333 21.167A1.67 1.67 0 0 0 22 19.5v-15a1.67 1.67 0 0 0-1.667-1.667H3.667A1.67 1.67 0 0 0 2 4.5v15a1.67 1.67 0 0 0 1.667 1.667h16.666ZM3.667 4.5h16.666v5.325H3.667V4.5Zm0 7.024h16.666V19.5H3.667v-7.976ZM6.14 6.23a.85.85 0 0 0 0 1.7h.805a.85.85 0 0 0 0-1.7H6.14Zm2.653.85c0-.47.38-.85.85-.85h.805a.85.85 0 0 1 0 1.7h-.805a.85.85 0 0 1-.85-.85Zm4.354-.85a.85.85 0 0 0 0 1.7h.804a.85.85 0 0 0 0-1.7h-.805Z" clip-rule="evenodd"/></svg>