<svg xmlns="http://www.w3.org/2000/svg" fill="none" viewBox="0 0 24 24"><path fill="#62757E" fill-rule="evenodd" d="M20.333 21.333H3.667c-.92 0-1.667-.748-1.667-1.666v-15C2 3.747 2.748 3 3.667 3h16.666C21.253 3 22 3.748 22 4.667v15c0 .918-.747 1.666-1.667 1.666M3.667 19.667H20.33L20.333 8H3.666zm0-15v1.666h16.666V4.667zm11.194 10.85.674.672-1.178 1.18-.675-.674a3.3 3.3 0 0 1-.848.353v.953l-1.667-.002v-.95a3.3 3.3 0 0 1-.85-.355l-.703.704-1.178-1.179.703-.703a3.3 3.3 0 0 1-.353-.85h-.953V13h.953q.119-.455.353-.848l-.675-.675 1.178-1.179.676.675a3.3 3.3 0 0 1 .85-.354v-.952h1.666v.952q.455.12.848.354l.645-.646 1.18 1.179-.645.646q.234.394.353.848h.952v1.667h-.952q-.121.454-.354.85M12 12.167c-.918 0-1.666.748-1.666 1.666 0 .919.748 1.667 1.666 1.667.92 0 1.667-.748 1.667-1.667 0-.918-.748-1.665-1.667-1.665" clip-rule="evenodd"/></svg>