<svg xmlns="http://www.w3.org/2000/svg" fill="none" viewBox="0 0 24 24"><path fill="#62757E" fill-rule="evenodd" d="M20.333 21.333H3.667c-.92 0-1.667-.747-1.667-1.666v-15A1.67 1.67 0 0 1 3.667 3h16.666C21.253 3 22 3.748 22 4.667v15c0 .919-.747 1.666-1.667 1.666ZM3.667 19.667H20.33L20.333 8H3.666v11.667Zm0-15v1.666h16.666V4.667H3.667Zm11.868 8.676v.001l-.002.001L11.58 17.3c-.023.023-.052.03-.075.05a.805.805 0 0 1-.119.078.772.772 0 0 1-.175.073c-.021.006-.039.021-.062.026l-2.322.457a.833.833 0 0 1-.978-.978l.454-2.324c.006-.028.024-.049.032-.076a.761.761 0 0 1 .06-.143.77.77 0 0 1 .099-.15c.016-.018.022-.041.04-.058l3.953-3.955v-.002a2.144 2.144 0 0 1 1.524-.631c.576 0 1.117.225 1.523.632.407.405.632.946.632 1.523a2.135 2.135 0 0 1-.632 1.52v.001Zm-1.178-1.866a.481.481 0 0 0-.69 0L9.89 15.255l-.168.855.86-.169 3.773-3.775s0-.002.002-.002a.486.486 0 0 0-.001-.686Z" clip-rule="evenodd"/></svg>