<svg xmlns="http://www.w3.org/2000/svg" fill="none" viewBox="0 0 24 24"><path fill="#62757E" d="M17.227 2.8a4.8 4.8 0 0 1 4.8 4.8v8.8a4.8 4.8 0 0 1-4.8 4.8h-10.4a4.8 4.8 0 0 1-4.802-4.8V7.6a4.8 4.8 0 0 1 4.801-4.8zm-10.4 1.6a3.2 3.2 0 0 0-3.201 3.2v8.8a3.2 3.2 0 0 0 3.2 3.2h10.4a3.2 3.2 0 0 0 3.2-3.2V7.6a3.2 3.2 0 0 0-3.2-3.2zM16.6 6a2.2 2.2 0 0 1 2.2 2.2v7.6a2.2 2.2 0 0 1-2.2 2.2H7.4a2.2 2.2 0 0 1-2.2-2.2V8.2A2.2 2.2 0 0 1 7.4 6zM7.4 7.6a.6.6 0 0 0-.6.6v7.6a.6.6 0 0 0 .6.6h9.2a.6.6 0 0 0 .6-.6V8.2a.6.6 0 0 0-.6-.6z"/></svg>