<svg xmlns="http://www.w3.org/2000/svg" fill="none" viewBox="0 0 24 24"><path fill="#fff" d="M0 0h24v24H0z"/><path fill="#62757e" d="M20 2.8a2 2 0 0 1 2 2v14.4a2 2 0 0 1-2 2H4a2 2 0 0 1-2-2V4.8a2 2 0 0 1 2-2zM4 4.4a.4.4 0 0 0-.4.4v14.4c0 .221.18.4.4.4h16a.4.4 0 0 0 .4-.4V4.8a.4.4 0 0 0-.4-.4zm2 9.1a.8.8 0 0 1 .8.8v2.13h3.155a.8.8 0 0 1 0 1.601H6.4a1.2 1.2 0 0 1-1.2-1.2V14.3a.8.8 0 0 1 .8-.8m12.005 0a.8.8 0 0 1 .8.8v2.531a1.2 1.2 0 0 1-1.2 1.2H14.05a.8.8 0 0 1 0-1.6h3.155V14.3a.8.8 0 0 1 .8-.8M9.955 6a.801.801 0 0 1 0 1.6H6.8v2.13a.8.8 0 1 1-1.6 0V7.2A1.2 1.2 0 0 1 6.4 6zm7.65 0a1.2 1.2 0 0 1 1.2 1.2v2.53a.8.8 0 0 1-1.6 0V7.6H14.05a.8.8 0 0 1 0-1.6z"/></svg>