<svg xmlns="http://www.w3.org/2000/svg" fill="none" viewBox="0 0 24 24"><path fill="#62757E" fill-rule="evenodd" d="M4 4.4h16c.22 0 .4.18.4.4V6H3.6V4.8c0-.22.18-.4.4-.4M2 7.6V4.8a2 2 0 0 1 2-2h16a2 2 0 0 1 2 2v14.4a2 2 0 0 1-2 2H4a2 2 0 0 1-2-2zm18.4 0v11.6a.4.4 0 0 1-.4.4H4a.4.4 0 0 1-.4-.4V7.6zm-5.067 10.132H8.667a.833.833 0 0 1-.834-.834v-4.166c0-.461.374-.834.834-.834H9.5v-.051c0-1.338 1.122-2.424 2.5-2.424s2.5 1.086 2.5 2.424v.051h.833c.46 0 .834.373.834.834v4.166a.834.834 0 0 1-.834.834m-2.5-5.885c0-.419-.374-.759-.833-.759-.46 0-.833.34-.833.759v.051h1.666zm1.667 1.718h-4.05c-.04.006-.075.023-.117.023-.041 0-.076-.017-.116-.023H9.5v2.5h5z" clip-rule="evenodd"/></svg>