<svg xmlns="http://www.w3.org/2000/svg" fill="none" viewBox="0 0 24 24"><path fill="#62757E" fill-rule="evenodd" d="M20.333 21.333H3.667c-.92 0-1.667-.748-1.667-1.666v-15C2 3.747 2.748 3 3.667 3h16.666C21.253 3 22 3.748 22 4.667v15c0 .918-.747 1.666-1.667 1.666ZM3.667 19.667H20.33L20.333 8H3.666v11.667Zm0-15v1.666h16.666V4.667H3.667Zm12.031 9.42c-.26 2.197-2.113 3.913-4.38 3.913-.411 0-.81-.058-1.217-.176a.832.832 0 0 1-.568-1.032.829.829 0 0 1 1.033-.568c1.58.458 3.11-.58 3.446-2.056a.822.822 0 0 1-.345.083.833.833 0 0 1-.59-1.422l1.251-1.252a.835.835 0 0 1 1.179 0l1.249 1.251a.833.833 0 0 1-.001 1.18.823.823 0 0 1-1.057.08Zm-3.097-2.644c-1.582-.457-3.112.58-3.446 2.055a.827.827 0 0 1 .934.162.832.832 0 0 1 0 1.178L8.84 16.09a.833.833 0 0 1-1.178 0l-1.251-1.25a.834.834 0 0 1 0-1.18.824.824 0 0 1 1.058-.08c.26-2.197 2.114-3.912 4.38-3.912.412 0 .811.057 1.218.175a.832.832 0 1 1-.465 1.6Z" clip-rule="evenodd"/></svg>