<svg xmlns="http://www.w3.org/2000/svg" fill="none" viewBox="0 0 24 24"><path fill="#62757E" fill-rule="evenodd" d="M4 4.4h16c.22 0 .4.18.4.4V6H3.6V4.8c0-.22.18-.4.4-.4M2 7.6V4.8a2 2 0 0 1 2-2h16a2 2 0 0 1 2 2v14.4a2 2 0 0 1-2 2H4a2 2 0 0 1-2-2zm18.4 0v11.6a.4.4 0 0 1-.4.4H4a.4.4 0 0 1-.4-.4V7.6zm-2.567 10.14H14.5a.833.833 0 0 1-.833-.834V10.24c0-.461.373-.834.833-.834h3.333c.46 0 .834.373.834.834v6.666a.834.834 0 0 1-.834.834M17 11.073h-1.667v5H17zm-5.833 6.667h-5a.833.833 0 0 1-.834-.834V10.24c0-.461.374-.834.834-.834h5c.46 0 .833.373.833.834v6.666a.833.833 0 0 1-.833.834m-.834-6.667H7v5h3.333z" clip-rule="evenodd"/></svg>