<svg xmlns="http://www.w3.org/2000/svg" fill="none" viewBox="0 0 24 24"><path fill="#62757E" fill-rule="evenodd" d="M20.333 21.333H3.667c-.92 0-1.667-.747-1.667-1.666v-15A1.67 1.67 0 0 1 3.667 3h16.666C21.253 3 22 3.748 22 4.667v15c0 .919-.747 1.666-1.667 1.666ZM3.667 19.667H20.33L20.333 8H3.666v11.667Zm0-15v1.666h16.666V4.667H3.667Zm14.166 10h-5a.833.833 0 1 1 0-1.667h5a.833.833 0 1 1 0 1.667Zm0-2.5h-5a.833.833 0 1 1 0-1.667h5a.834.834 0 0 1 0 1.667Zm-8.333 5H6.167a.834.834 0 0 1-.834-.834v-5c0-.46.374-.833.834-.833H9.5c.46 0 .833.373.833.833v5c0 .46-.373.834-.833.834Zm-.833-5H7V15.5h1.667v-3.333Zm4.166 3.333H14.5a.833.833 0 1 1 0 1.667h-1.667a.834.834 0 0 1 0-1.667Z" clip-rule="evenodd"/></svg>