<svg xmlns="http://www.w3.org/2000/svg" fill="none" viewBox="0 0 24 24"><path fill="#62757E" fill-rule="evenodd" d="M20 4.4H4a.4.4 0 0 0-.4.4V6h16.8V4.8a.4.4 0 0 0-.4-.4M2 6v13.2a2 2 0 0 0 2 2h16a2 2 0 0 0 2-2V4.8a2 2 0 0 0-2-2H4a2 2 0 0 0-2 2zm18.4 13.2V7.6H3.6v11.6c0 .22.18.4.4.4h16a.4.4 0 0 0 .4-.4M6.659 12.832a4 4 0 0 0-.073-.357c-.064-.21-.322-.42-.484-.552a1 1 0 0 1-.117-.101c-.086-.093-.086-.467 0-.56.172-.187 2.2-.353 4.382-.094.133.016.24.04.355.065.262.056.561.122 1.277.122.718 0 1.016-.065 1.278-.123a4 4 0 0 1 .355-.064c2.183-.259 4.21-.093 4.383.094.086.093.086.466 0 .56a1 1 0 0 1-.119.102c-.16.13-.419.34-.483.55-.019.062-.042.191-.073.359-.106.586-.299 1.648-.7 2.01-.532.481-2.538.474-2.922.265-.842-.456-1.179-1.918-1.335-2.596l-.009-.038c-.086-.373-.374-.373-.374-.373s-.273 0-.359.373c-.152.66-.5 2.165-1.36 2.63-.384.208-2.39.216-2.921-.264-.401-.364-.594-1.424-.701-2.008" clip-rule="evenodd"/></svg>