<svg xmlns="http://www.w3.org/2000/svg" fill="none" viewBox="0 0 24 24"><path fill="#62757E" fill-rule="evenodd" d="M20 4.4H4a.4.4 0 0 0-.4.4V6h16.8V4.8a.4.4 0 0 0-.4-.4M2 6v13.2a2 2 0 0 0 2 2h16a2 2 0 0 0 2-2V4.8a2 2 0 0 0-2-2H4a2 2 0 0 0-2 2zm18.4 13.2V7.6H3.6v11.6c0 .22.18.4.4.4h16a.4.4 0 0 0 .4-.4M9.883 10.266a.922.922 0 1 0-1.305 1.305l2.117 2.116-2.117 2.117a.923.923 0 1 0 1.305 1.305L12 14.993l2.117 2.116a.92.92 0 0 0 1.304 0 .92.92 0 0 0 0-1.305l-2.116-2.117 2.116-2.116a.92.92 0 0 0 0-1.306.92.92 0 0 0-1.304 0L12 12.383z" clip-rule="evenodd"/></svg>