<svg xmlns="http://www.w3.org/2000/svg" fill="none" viewBox="0 0 24 24"><path fill="#62757E" fill-rule="evenodd" d="M20.333 21.333H3.667c-.92 0-1.667-.748-1.667-1.666v-15C2 3.747 2.748 3 3.667 3h16.666C21.253 3 22 3.748 22 4.667v15c0 .918-.747 1.666-1.667 1.666M3.667 19.667H20.33L20.333 8H3.666zm0-15v1.666h16.666V4.667zM15.333 16.75v.417a.833.833 0 1 1 0 1.666H8.667a.834.834 0 0 1 0-1.666v-.417c0-1.263.715-2.352 1.753-2.917a3.32 3.32 0 0 1-1.753-2.916V10.5a.833.833 0 1 1 0-1.667h6.666a.833.833 0 1 1 0 1.667v.417a3.32 3.32 0 0 1-1.753 2.916 3.32 3.32 0 0 1 1.753 2.917m-1.666-5.833V10.5h-3.334v.417a1.668 1.668 0 0 0 3.334 0m0 5.833c0-.92-.748-1.667-1.667-1.667-.92 0-1.667.748-1.667 1.667v.417h3.334z" clip-rule="evenodd"/></svg>