<svg xmlns="http://www.w3.org/2000/svg" fill="none" viewBox="0 0 24 24"><path fill="#62757E" fill-rule="evenodd" d="M4 4.4h16c.22 0 .4.18.4.4V6H3.6V4.8c0-.22.18-.4.4-.4M2 7.6V4.8a2 2 0 0 1 2-2h16a2 2 0 0 1 2 2v14.4a2 2 0 0 1-2 2H4a2 2 0 0 1-2-2zm18.4 0v11.6a.4.4 0 0 1-.4.4H4a.4.4 0 0 1-.4-.4V7.6zm-4.233 9.567h-3.334a.834.834 0 0 1 0-1.667h3.334a.833.833 0 1 1 0 1.667m-7.745-.245a.83.83 0 0 1-1.178 0 .83.83 0 0 1 0-1.178l1.911-1.91-1.91-1.912a.832.832 0 1 1 1.177-1.178l2.5 2.5a.83.83 0 0 1 0 1.178z" clip-rule="evenodd"/></svg>