<svg xmlns="http://www.w3.org/2000/svg" fill="none" viewBox="0 0 24 24"><path fill="#62757E" fill-rule="evenodd" d="M20.333 21.333H3.667c-.92 0-1.667-.747-1.667-1.666v-15A1.67 1.67 0 0 1 3.667 3h16.666C21.253 3 22 3.748 22 4.667v15c0 .919-.747 1.666-1.667 1.666M3.667 19.667H20.33L20.333 8H3.666zm0-15v1.666h16.666V4.667zM14.5 18h-5c-.935 0-1.667-.61-1.667-1.39v-.557c0-.041.018-.077.024-.118.009-.06.014-.118.035-.175.02-.05.05-.092.079-.137s.052-.093.089-.132c.04-.045.092-.076.142-.11.033-.024.056-.055.094-.074l1.444-.716a3.6 3.6 0 0 1-.24-1.263v-.047l.002-1.67q0-.075.014-.152c.207-1.107 1.45-1.792 2.484-1.792 1.033 0 2.276.684 2.485 1.79q.015.078.015.155v1.67l-.002.046c.006.224-.032.717-.236 1.257l1.445.722c.039.02.065.054.1.079.046.033.095.062.134.105.037.04.062.087.09.134.027.045.058.086.077.136.021.057.026.116.035.175.006.04.024.076.024.117v.557c0 .78-.732 1.39-1.667 1.39m-1.665-2.265c-.018-.006-.032-.018-.048-.024l-.05-.025c-.008-.004-.014-.013-.022-.018-.05-.027-.104-.049-.15-.088-.024-.02-.035-.05-.056-.072q-.037-.042-.066-.087a.8.8 0 0 1-.1-.176q-.022-.063-.034-.127a1 1 0 0 1-.022-.17 1 1 0 0 1 .02-.164 1 1 0 0 1 .038-.14c.01-.025.008-.052.02-.076.022-.041.057-.068.082-.105.015-.018.019-.041.035-.059.383-.443.35-1.055.35-1.062a1 1 0 0 1 .001-.125l-.001-1.49c-.08-.153-.448-.394-.832-.394s-.753.242-.833.394v1.475q.008.075 0 .15s-.031.61.352 1.052c.024.028.033.062.053.092s.048.05.065.083c.009.02.007.04.015.058a1 1 0 0 1 .044.166q.017.076.019.15-.002.081-.022.159a1 1 0 0 1-.04.15 1 1 0 0 1-.076.135 1 1 0 0 1-.104.135c-.015.014-.02.033-.036.047-.029.024-.063.033-.092.052-.03.02-.05.049-.084.066l-1.284.636h4.054z" clip-rule="evenodd"/></svg>