<svg xmlns="http://www.w3.org/2000/svg" fill="none" viewBox="0 0 24 24"><path fill="#62757E" fill-rule="evenodd" d="M4 4.4h16c.22 0 .4.18.4.4V6H3.6V4.8c0-.22.18-.4.4-.4M2 7.6V4.8a2 2 0 0 1 2-2h16a2 2 0 0 1 2 2v14.4a2 2 0 0 1-2 2H4a2 2 0 0 1-2-2zm18.4 0v11.6a.4.4 0 0 1-.4.4H4a.4.4 0 0 1-.4-.4V7.6zM9.2 17.626a.825.825 0 0 1-1.174-.11.855.855 0 0 1 .108-1.191c1.251-1.057 2.545-1.604 3.866-1.604s2.615.547 3.866 1.604a.855.855 0 0 1 .108 1.192.825.825 0 0 1-1.174.109c-.97-.82-1.9-1.212-2.8-1.212s-1.83.392-2.8 1.212m4.13-7.866a.847.847 0 0 0 0 1.198l.597.597-.598.597a.847.847 0 0 0 1.198 1.198l.597-.597.598.597a.847.847 0 1 0 1.197-1.198l-.597-.597.597-.597a.847.847 0 1 0-1.197-1.198l-.598.598-.597-.598a.847.847 0 0 0-1.197 0m-6.25 0a.847.847 0 0 0 0 1.198l.598.597-.597.597a.847.847 0 0 0 1.197 1.198l.597-.597.598.597a.847.847 0 1 0 1.197-1.198l-.597-.597.597-.597A.847.847 0 1 0 9.473 9.76l-.598.598-.597-.598a.847.847 0 0 0-1.197 0" clip-rule="evenodd"/></svg>