<svg xmlns="http://www.w3.org/2000/svg" fill="none" viewBox="0 0 24 24"><path fill="#62757E" fill-rule="evenodd" d="M20.333 21.333H3.667c-.92 0-1.667-.747-1.667-1.666v-15A1.67 1.67 0 0 1 3.667 3h16.666C21.253 3 22 3.748 22 4.667v15c0 .919-.747 1.666-1.667 1.666ZM3.667 19.667H20.33L20.333 8H3.666v11.667Zm0-15v1.666h16.666V4.667H3.667ZM17.833 18H14.5a.833.833 0 0 1-.833-.833V10.5c0-.46.373-.833.833-.833h3.333c.46 0 .834.372.834.833v6.667c0 .46-.374.833-.834.833ZM17 11.333h-1.667v5H17v-5ZM11.167 18h-5a.833.833 0 0 1-.834-.833V10.5c0-.46.374-.833.834-.833h5c.46 0 .833.372.833.833v6.667c0 .46-.373.833-.833.833Zm-.834-6.667H7v5h3.333v-5Z" clip-rule="evenodd"/></svg>