<svg xmlns="http://www.w3.org/2000/svg" fill="none" viewBox="0 0 24 24"><path fill="#62757E" fill-rule="evenodd" d="M20.333 21.333H3.667c-.92 0-1.667-.747-1.667-1.666v-15A1.67 1.67 0 0 1 3.667 3h16.666C21.253 3 22 3.748 22 4.667v15c0 .919-.747 1.666-1.667 1.666ZM3.667 19.667H20.33L20.333 8H3.666v11.667Zm0-15v1.666h16.666V4.667H3.667ZM15.333 18H8.667a.833.833 0 0 1-.834-.833V13c0-.46.374-.833.834-.833H9.5v-.052c0-1.338 1.122-2.424 2.5-2.424s2.5 1.086 2.5 2.424v.052h.833c.46 0 .834.372.834.833v4.167c0 .46-.374.833-.834.833Zm-2.5-5.885c0-.418-.374-.758-.833-.758-.46 0-.833.34-.833.758v.052h1.666v-.052Zm1.667 1.718h-4.05c-.04.006-.075.024-.117.024-.041 0-.076-.018-.116-.024H9.5v2.5h5v-2.5Z" clip-rule="evenodd"/></svg>