<svg xmlns="http://www.w3.org/2000/svg" fill="none" viewBox="0 0 24 24"><path fill="#62757E" fill-rule="evenodd" d="M20.333 21.333H3.667c-.92 0-1.667-.747-1.667-1.666v-15A1.67 1.67 0 0 1 3.667 3h16.666C21.253 3 22 3.748 22 4.667v15c0 .919-.747 1.666-1.667 1.666Zm-.002-1.666L20.333 8H3.666v11.667H20.33Zm-16.664-15v1.666h16.666V4.667H3.667ZM9.2 17.626a.825.825 0 0 1-1.174-.11.855.855 0 0 1 .108-1.191c1.251-1.057 2.545-1.604 3.866-1.604 1.322 0 2.615.546 3.866 1.604a.855.855 0 0 1 .108 1.192.825.825 0 0 1-1.174.109c-.97-.82-1.9-1.212-2.8-1.212-.9 0-1.83.392-2.8 1.212Zm4.13-7.866a.847.847 0 0 0 0 1.198l.597.597-.598.597a.847.847 0 0 0 1.198 1.198l.597-.597.598.597a.847.847 0 1 0 1.197-1.198l-.597-.597.597-.597a.847.847 0 1 0-1.197-1.198l-.598.598-.597-.598a.847.847 0 0 0-1.197 0Zm-6.25 0a.847.847 0 0 0 0 1.198l.598.597-.597.597a.847.847 0 0 0 1.197 1.198l.597-.597.598.597a.847.847 0 1 0 1.197-1.198l-.597-.597.597-.597A.847.847 0 1 0 9.473 9.76l-.598.598-.597-.598a.847.847 0 0 0-1.197 0Z" clip-rule="evenodd"/></svg>