<svg xmlns="http://www.w3.org/2000/svg" fill="none" viewBox="0 0 24 24"><path fill="#62757E" fill-rule="evenodd" d="M4 4.4h16c.22 0 .4.18.4.4V6H3.6V4.8c0-.22.18-.4.4-.4M2 7.6V4.8a2 2 0 0 1 2-2h16a2 2 0 0 1 2 2v14.4a2 2 0 0 1-2 2H4a2 2 0 0 1-2-2zm18.4 0v11.6a.4.4 0 0 1-.4.4H4a.4.4 0 0 1-.4-.4V7.6zm-4.285 6.488c-.26 2.196-2.113 3.912-4.38 3.912-.412 0-.81-.058-1.217-.176a.83.83 0 0 1-.568-1.032.83.83 0 0 1 1.033-.568c1.58.458 3.11-.58 3.445-2.056a.8.8 0 0 1-.344.083.833.833 0 0 1-.59-1.422l1.251-1.251a.835.835 0 0 1 1.179 0l1.249 1.25a.833.833 0 0 1-.001 1.18.82.82 0 0 1-1.057.08m-3.097-2.645c-1.582-.457-3.112.58-3.446 2.055a.83.83 0 0 1 .934.162.83.83 0 0 1 0 1.178l-1.25 1.251a.833.833 0 0 1-1.178 0l-1.251-1.25a.834.834 0 0 1 0-1.18.824.824 0 0 1 1.058-.08c.26-2.197 2.113-3.912 4.38-3.912.412 0 .81.057 1.218.175a.832.832 0 1 1-.465 1.6" clip-rule="evenodd"/></svg>