<svg xmlns="http://www.w3.org/2000/svg" fill="none" viewBox="0 0 24 24"><path fill="#62757E" fill-rule="evenodd" d="M4 4.4h16c.22 0 .4.18.4.4V6H3.6V4.8c0-.22.18-.4.4-.4M2 7.6V4.8a2 2 0 0 1 2-2h16a2 2 0 0 1 2 2v14.4a2 2 0 0 1-2 2H4a2 2 0 0 1-2-2zm18.4 0v11.6a.4.4 0 0 1-.4.4H4a.4.4 0 0 1-.4-.4V7.6zm-2.567 6.856h-5a.833.833 0 1 1 0-1.667h5a.833.833 0 1 1 0 1.667m0-2.5h-5a.833.833 0 1 1 0-1.667h5a.834.834 0 0 1 0 1.667m-8.333 5H6.167a.834.834 0 0 1-.834-.833v-5c0-.46.374-.834.834-.834H9.5c.46 0 .833.374.833.834v5c0 .46-.373.833-.833.833m-.833-5H7v3.333h1.667zm4.166 3.333H14.5a.833.833 0 1 1 0 1.667h-1.667a.834.834 0 0 1 0-1.667" clip-rule="evenodd"/></svg>