<svg xmlns="http://www.w3.org/2000/svg" fill="none" viewBox="0 0 24 24"><path fill="#62757E" fill-rule="evenodd" d="M20.333 21.333H3.667c-.92 0-1.667-.748-1.667-1.666v-15C2 3.747 2.748 3 3.667 3h16.666C21.253 3 22 3.748 22 4.667v15c0 .918-.747 1.666-1.667 1.666ZM3.667 19.667H20.33L20.333 8H3.666v11.667Zm0-15v1.666h16.666V4.667H3.667Zm11.194 10.85.674.672-1.178 1.18-.675-.674a3.29 3.29 0 0 1-.848.353v.953l-1.667-.002v-.95a3.268 3.268 0 0 1-.85-.355l-.703.704-1.178-1.179.703-.703a3.3 3.3 0 0 1-.353-.85h-.953V13h.953c.078-.303.198-.586.353-.848l-.675-.675 1.178-1.179.676.675a3.28 3.28 0 0 1 .85-.354v-.952h1.666v.952c.303.08.586.199.848.354l.645-.646 1.18 1.179-.645.646c.155.262.275.546.353.848h.952v1.667h-.952c-.08.302-.2.586-.354.85ZM12 12.167c-.918 0-1.666.748-1.666 1.666 0 .919.748 1.667 1.666 1.667.92 0 1.667-.748 1.667-1.667 0-.918-.748-1.665-1.667-1.665Z" clip-rule="evenodd"/></svg>