<svg xmlns="http://www.w3.org/2000/svg" fill="none" viewBox="0 0 24 24"><path fill="#62757E" fill-rule="evenodd" d="M4 4.4h16c.22 0 .4.18.4.4V6H3.6V4.8c0-.22.18-.4.4-.4M2 7.6V4.8a2 2 0 0 1 2-2h16a2 2 0 0 1 2 2v14.4a2 2 0 0 1-2 2H4a2 2 0 0 1-2-2zm18.4 0v11.6a.4.4 0 0 1-.4.4H4a.4.4 0 0 1-.4-.4V7.6zm-5.067 8.943v.416a.833.833 0 1 1 0 1.667H8.667a.834.834 0 0 1 0-1.667v-.416c0-1.263.715-2.352 1.753-2.917a3.32 3.32 0 0 1-1.753-2.916v-.417a.833.833 0 1 1 0-1.667h6.666a.833.833 0 1 1 0 1.667v.417a3.32 3.32 0 0 1-1.753 2.916 3.32 3.32 0 0 1 1.753 2.917m-1.666-5.833v-.417h-3.334v.417a1.668 1.668 0 0 0 3.334 0m0 5.833c0-.92-.748-1.667-1.667-1.667-.92 0-1.667.748-1.667 1.667v.416h3.334z" clip-rule="evenodd"/></svg>