<svg xmlns="http://www.w3.org/2000/svg" fill="none" viewBox="0 0 24 24"><path fill="#62757E" fill-rule="evenodd" d="M2 19.667c0 .918.748 1.666 1.667 1.666h16.666c.92 0 1.667-.748 1.667-1.666v-15C22 3.747 21.253 3 20.333 3H3.667C2.747 3 2 3.748 2 4.667v15Zm18.33 0H3.668V8h16.666l-.002 11.667ZM3.668 6.333V4.667h16.666v1.666H3.667ZM6 13.8c0 1.306 2.102 4.5 6 4.5s6-3.194 6-4.5-2.102-4.5-6-4.5-6 3.194-6 4.5Zm1.5 0c0-.623 1.447-3.15 4.5-3.15s4.5 2.527 4.5 3.15c0 .623-1.447 3.15-4.5 3.15s-4.5-2.527-4.5-3.15Zm2.313 0A2.19 2.19 0 0 0 12 15.988a2.19 2.19 0 0 0 2.188-2.188A2.19 2.19 0 0 0 12 11.613 2.19 2.19 0 0 0 9.813 13.8Z" clip-rule="evenodd"/></svg>