<svg xmlns="http://www.w3.org/2000/svg" fill="none" viewBox="0 0 24 24"><path fill="#62757E" fill-rule="evenodd" d="M4 4.4h16c.22 0 .4.18.4.4V6H3.6V4.8c0-.22.18-.4.4-.4M2 7.6V4.8a2 2 0 0 1 2-2h16a2 2 0 0 1 2 2v14.4a2 2 0 0 1-2 2H4a2 2 0 0 1-2-2zm18.4 0v11.6a.4.4 0 0 1-.4.4H4a.4.4 0 0 1-.4-.4V7.6zm-.9 9.567a.833.833 0 1 1-1.668 0V15.5h-1.669a.8.8 0 0 1-.382-.107c-.014-.007-.03-.004-.043-.012-.028-.017-.045-.044-.07-.064a1 1 0 0 1-.128-.117 1 1 0 0 1-.086-.127 1 1 0 0 1-.068-.146 1 1 0 0 1-.034-.164c-.003-.033-.019-.062-.019-.096 0-.02.01-.037.012-.057a1 1 0 0 1 .032-.16 1 1 0 0 1 .056-.16c.009-.016.009-.035.02-.052l2.499-4.167c.017-.03.045-.046.065-.072a1 1 0 0 1 .114-.125 1 1 0 0 1 .133-.09 1 1 0 0 1 .138-.064 1 1 0 0 1 .173-.035c.03-.003.058-.018.09-.018.02 0 .036.01.054.01.058.004.111.019.168.034.054.016.105.03.155.056.016.008.035.009.052.019.028.017.045.044.071.064a1 1 0 0 1 .128.117q.049.06.086.127.04.069.068.144a1 1 0 0 1 .033.166c.004.033.02.062.02.096zm-1.668-3.658-.194.324h.194zM12 18c-1.543 0-2.5-1.597-2.5-4.167s.957-4.166 2.5-4.166 2.5 1.596 2.5 4.166S13.543 18 12 18m0-6.667c-.4 0-.833.957-.833 2.5s.432 2.5.833 2.5.833-.956.833-2.5c0-1.543-.432-2.5-.833-2.5m-3.334 5.834a.833.833 0 1 1-1.667 0V15.5H5.33a.8.8 0 0 1-.383-.107c-.014-.007-.029-.004-.042-.012-.028-.017-.045-.044-.07-.064a.75.75 0 0 1-.215-.245 1 1 0 0 1-.067-.144 1 1 0 0 1-.034-.166c-.003-.032-.019-.061-.019-.095 0-.02.01-.037.012-.056a1 1 0 0 1 .032-.163 1 1 0 0 1 .056-.157c.01-.018.01-.036.02-.053l2.498-4.167c.018-.03.045-.046.066-.073a1 1 0 0 1 .114-.124 1 1 0 0 1 .134-.09 1 1 0 0 1 .136-.064 1 1 0 0 1 .174-.035c.03-.003.058-.018.09-.018.02 0 .035.009.054.01.057.004.11.019.167.034.054.016.106.03.155.056.017.009.036.009.053.019.028.017.045.044.07.063.047.037.09.073.129.118q.048.06.086.127.041.069.067.145a1 1 0 0 1 .034.165c.003.033.019.062.019.096zm-1.667-3.658-.194.324h.194z" clip-rule="evenodd"/></svg>