<svg xmlns="http://www.w3.org/2000/svg" fill="none" viewBox="0 0 24 24"><path fill="#62757E" fill-rule="evenodd" d="M4 4.4h16c.22 0 .4.18.4.4V6H3.6V4.8c0-.22.18-.4.4-.4M2 7.6V4.8a2 2 0 0 1 2-2h16a2 2 0 0 1 2 2v14.4a2 2 0 0 1-2 2H4a2 2 0 0 1-2-2zm18.4 0v11.6a.4.4 0 0 1-.4.4H4a.4.4 0 0 1-.4-.4V7.6zm-5.54 7.6.675.673-1.178 1.18-.675-.675a3.3 3.3 0 0 1-.848.354v.952l-1.667-.001v-.951a3.3 3.3 0 0 1-.85-.354l-.703.703-1.178-1.178.703-.704a3.3 3.3 0 0 1-.353-.849h-.953v-1.667h.953q.119-.453.353-.848l-.675-.675 1.179-1.178.675.675q.395-.236.85-.354V9.35h1.666v.953q.455.12.848.354l.645-.646 1.18 1.178-.645.646q.234.395.353.848h.952v1.667h-.952q-.121.455-.354.85M12 11.851c-.918 0-1.666.747-1.666 1.666s.748 1.667 1.666 1.667c.92 0 1.667-.749 1.667-1.667S12.919 11.85 12 11.85" clip-rule="evenodd"/></svg>