<svg xmlns="http://www.w3.org/2000/svg" fill="none" viewBox="0 0 24 24"><path fill="#62757E" fill-rule="evenodd" d="M4 4.4h16c.22 0 .4.18.4.4V6H3.6V4.8c0-.22.18-.4.4-.4M2 7.6V4.8a2 2 0 0 1 2-2h16a2 2 0 0 1 2 2v14.4a2 2 0 0 1-2 2H4a2 2 0 0 1-2-2zm18.4 0v11.6a.4.4 0 0 1-.4.4H4a.4.4 0 0 1-.4-.4V7.6zm-5.9 10.189h-5c-.935 0-1.667-.61-1.667-1.39v-.557c0-.041.018-.077.025-.118.008-.06.013-.118.035-.175.019-.05.05-.092.078-.137s.052-.093.089-.132c.04-.045.092-.076.142-.11.033-.024.056-.055.094-.073l1.444-.717a3.6 3.6 0 0 1-.24-1.264v-.046l.002-1.67q0-.075.014-.152c.207-1.107 1.45-1.792 2.484-1.792 1.033 0 2.276.684 2.485 1.79q.015.078.015.155v1.67l-.002.046c.006.224-.032.717-.236 1.257l1.445.723c.039.02.065.053.1.078.046.033.095.062.134.105.037.04.062.087.09.134.027.045.058.086.077.136.021.056.026.116.035.175.006.04.024.076.024.117v.557c0 .78-.732 1.39-1.667 1.39m-1.665-2.265c-.018-.006-.032-.017-.048-.024l-.05-.025c-.008-.004-.014-.013-.022-.018-.05-.027-.104-.049-.15-.088-.024-.02-.035-.05-.056-.072q-.037-.042-.066-.087a.8.8 0 0 1-.1-.176q-.022-.063-.034-.127a1 1 0 0 1-.022-.17q.002-.081.02-.164a1 1 0 0 1 .038-.14c.01-.025.008-.051.02-.076.022-.041.057-.068.082-.105.015-.018.019-.041.035-.059.383-.443.35-1.055.35-1.061a1 1 0 0 1 .001-.126l-.001-1.49c-.08-.153-.448-.394-.832-.394s-.753.242-.833.395v1.474q.008.075 0 .15s-.031.61.352 1.052c.024.028.033.062.053.092s.048.05.065.083c.009.02.007.04.015.058a1 1 0 0 1 .044.166q.017.076.019.15-.002.081-.022.159a1 1 0 0 1-.04.15 1 1 0 0 1-.076.135 1 1 0 0 1-.104.135c-.015.014-.02.033-.036.047-.029.024-.063.033-.092.052-.03.02-.05.05-.084.066l-1.284.636h4.054z" clip-rule="evenodd"/></svg>