<svg xmlns="http://www.w3.org/2000/svg" fill="none" viewBox="0 0 24 24"><path fill="currentColor" fill-rule="evenodd" d="M20.333 21.333A1.67 1.67 0 0 0 22 19.667v-15A1.67 1.67 0 0 0 20.333 3H3.667A1.67 1.67 0 0 0 2 4.667v15a1.67 1.67 0 0 0 1.667 1.666h16.666ZM3.667 4.667h16.666V6.3H3.667V4.667Zm0 3.333h16.666v11.667H7.85V8H3.667Zm11.267 8.967a.832.832 0 0 0 .59-1.422l-1.912-1.911 1.91-1.911a.832.832 0 1 0-1.178-1.179l-2.5 2.5a.832.832 0 0 0 0 1.179l2.5 2.5a.831.831 0 0 0 .59.244Z" clip-rule="evenodd"/></svg>