<svg xmlns="http://www.w3.org/2000/svg" fill="none" viewBox="0 0 24 24"><path fill="#62757E" fill-rule="evenodd" d="M20 4.4H4a.4.4 0 0 0-.4.4V6h16.8V4.8a.4.4 0 0 0-.4-.4M2 6v13.2a2 2 0 0 0 2 2h16a2 2 0 0 0 2-2V4.8a2 2 0 0 0-2-2H4a2 2 0 0 0-2 2zm18.4 13.2V7.6H3.6v11.6c0 .22.18.4.4.4h16a.4.4 0 0 0 .4-.4M6 13.547c0 1.306 2.102 4.5 6 4.5s6-3.194 6-4.5-2.102-4.5-6-4.5-6 3.194-6 4.5m1.5 0c0-.623 1.447-3.15 4.5-3.15s4.5 2.527 4.5 3.15-1.447 3.15-4.5 3.15-4.5-2.527-4.5-3.15m4.5 2.188a2.19 2.19 0 0 1-2.187-2.187A2.19 2.19 0 0 1 12 11.36a2.19 2.19 0 0 1 2.188 2.188A2.19 2.19 0 0 1 12 15.735" clip-rule="evenodd"/></svg>