<svg xmlns="http://www.w3.org/2000/svg" fill="none" viewBox="0 0 24 24"><g clip-path="url(#a)"><path fill="#0DC9F7" d="M12 24c6.627 0 12-5.373 12-12S18.627 0 12 0 0 5.373 0 12s5.373 12 12 12Z"/><path fill="#fff" fill-opacity=".305" d="M14.032 11.431 11.9 13.206l-.873-3.244L5.971 8.51l6.636.365 1.425 2.556Z"/><path fill="#fff" fill-opacity=".7" d="m6.59 17.622 11.42-9.497.99 2.36-1.298-.385-.046 2.448L6.59 17.622Z"/><path fill="#fff" d="m16.757 12.962-3.323-6.12L5 6.377l6.428 1.846 1.743 6.368 3.586-1.629Z"/></g><defs><clipPath id="a"><path fill="#fff" d="M0 0h24v24H0z"/></clipPath></defs></svg>