<svg xmlns="http://www.w3.org/2000/svg" fill="none" viewBox="0 0 24 24"><g clip-path="url(#a)"><path fill="#FFE600" d="M12 24c6.627 0 12-5.373 12-12S18.627 0 12 0 0 5.373 0 12s5.373 12 12 12"/><path fill="#000" fill-rule="evenodd" d="M5.038 6.34c.441-.5.936-.95 1.477-1.34l2.481 8.872 1.1-4.703h2.085l1.099 4.703 1.302-4.703h2.09l.02.084 2.27 8.2A9 9 0 0 1 17.54 19l-1.916-6.917-1.092 3.945-.02.084H12.18l-1.042-3.864-1.042 3.864H7.763l-.02-.084z" clip-rule="evenodd"/></g><defs><clipPath id="a"><path fill="#fff" d="M0 0h24v24H0z"/></clipPath></defs></svg>