<svg xmlns="http://www.w3.org/2000/svg" fill="none" viewBox="0 0 24 24"><path fill="#62757e" d="M20.385 7.555q0-.211-.023-.416l-2.48 2.481a.8.8 0 0 1-.745.214 3.96 3.96 0 0 1-2.97-2.97.8.8 0 0 1 .214-.745l2.48-2.481a3.94 3.94 0 0 0-4.34 4.254c.1 1.194-.044 2.806-1.24 3.792l-.022.016-6.957 5.348-.155.142a1.883 1.883 0 1 0 2.8 2.514l5.353-6.963.016-.02c.986-1.197 2.598-1.342 3.792-1.242q.167.014.337.014a3.94 3.94 0 0 0 3.94-3.938M5.579 17.62a.8.8 0 0 1 .8.8v.009a.8.8 0 0 1-.8.8h-.008a.8.8 0 0 1-.8-.8v-.01a.8.8 0 0 1 .8-.799zM21.984 7.555a5.54 5.54 0 0 1-6.01 5.518c-1.066-.09-1.957.105-2.417.657l-5.353 6.965-.017.02a3.483 3.483 0 1 1-4.903-4.902l.022-.016 6.957-5.35c.557-.46.754-1.35.664-2.42a5.54 5.54 0 0 1 7.8-5.521.8.8 0 0 1 .235 1.294l-3.105 3.103c.239.555.684 1 1.239 1.239L20.2 5.038a.8.8 0 0 1 1.295.236c.315.697.49 1.47.49 2.28"/></svg>