<svg xmlns="http://www.w3.org/2000/svg" fill="none" viewBox="0 0 24 24"><path fill="#62757E" fill-rule="evenodd" d="M20.06 10.536c-.01.01-.022.013-.031.02-.009.01-.011.022-.02.03l-6.782 6.784-.012.008c-.026.026-.062.039-.093.061-.06.045-.12.092-.187.117l-.005.004-2.804 1.053a.84.84 0 0 1-.882-.19.84.84 0 0 1-.191-.883l1.054-2.804.006-.009c.016-.042.049-.076.072-.115.034-.057.063-.118.108-.164l.004-.006 6.784-6.786c.009-.01.021-.012.031-.021.008-.008.01-.019.018-.026.39-.392.912-.609 1.464-.609h.001c.554 0 1.075.216 1.466.608.39.391.606.912.606 1.464 0 .555-.216 1.074-.607 1.464m-1.178-1.75a.4.4 0 0 0-.571 0c-.01.01-.024.012-.035.021-.007.009-.009.02-.017.027l-6.656 6.66-.343.913.918-.345 6.653-6.654c.01-.01.022-.012.032-.021.008-.01.01-.021.02-.03a.403.403 0 0 0 0-.572m-.716-2.62a.834.834 0 0 1-.834-.833V3.667h-6.697v4.17c0 .461-.342.83-.802.83H5.617v11.709h11.709l.006-5.043a.834.834 0 0 1 1.667 0v5.223A1.444 1.444 0 0 1 17.56 22H5.44C4.646 22 4 21.351 4 20.556V7.834c0-.018.01-.033.01-.051a.8.8 0 0 1 .045-.221c.01-.026.016-.053.028-.078a.8.8 0 0 1 .161-.24l5-5a.8.8 0 0 1 .241-.163q.036-.014.072-.025a.8.8 0 0 1 .228-.046c.016 0 .031-.01.048-.01h7.727c.794 0 1.44.649 1.44 1.444v1.89c0 .46-.374.833-.834.833M9 7V4.845L6.845 7z" clip-rule="evenodd"/></svg>