<svg xmlns="http://www.w3.org/2000/svg" fill="none" viewBox="0 0 24 24"><g clip-path="url(#a)"><path fill="#8200FF" d="M12 24c6.627 0 12-5.373 12-12S18.627 0 12 0 0 5.373 0 12s5.373 12 12 12"/><path fill="#fff" fill-rule="evenodd" d="m13.57 9.874-.443.108a.88.88 0 0 0-.679.852v2.95l-1.46.357a.448.448 0 0 1-.556-.427v-4.91c0-.202.14-.377.339-.427l2.241-.548a.45.45 0 0 1 .556.425v1.62zm-4.932-.028-.554.136a.88.88 0 0 0-.679.852v2.977l-1.348.33a.448.448 0 0 1-.557-.427v-4.91c0-.202.14-.377.34-.427l2.24-.547a.45.45 0 0 1 .557.425zm7.064-1.455 2.24-.549a.448.448 0 0 1 .558.426v4.912a.44.44 0 0 1-.34.425l-2.241.549a.448.448 0 0 1-.557-.426V8.817a.44.44 0 0 1 .34-.426" clip-rule="evenodd"/><path fill="#fff" fill-rule="evenodd" d="M9.983 9.97v3.745q0 .107.026.213a.9.9 0 0 0 .982.658v.61a.44.44 0 0 1-.34.427l-2.24.548a.448.448 0 0 1-.557-.426v-4.911a.44.44 0 0 1 .339-.426zm4.93.027v3.731q0 .108.027.214a.9.9 0 0 0 1.088.638l.006-.001v.617a.44.44 0 0 1-.339.427l-2.242.548a.448.448 0 0 1-.556-.426v-4.911a.44.44 0 0 1 .34-.426z" clip-rule="evenodd" opacity=".504"/></g><defs><clipPath id="a"><path fill="#fff" d="M0 0h24v24H0z"/></clipPath></defs></svg>