<svg xmlns="http://www.w3.org/2000/svg" fill="none" viewBox="0 0 24 24"><g clip-path="url(#a)"><path fill="#3B5998" d="M12 24c6.627 0 12-5.373 12-12S18.627 0 12 0 0 5.373 0 12s5.373 12 12 12"/><path fill="#fff" fill-rule="evenodd" d="M10.776 5.68h1.223v3.828L10.776 8.23z" clip-rule="evenodd"/><path fill="#fff" fill-rule="evenodd" d="M5.5 6.97h3.222C9.813 8.113 10.91 9.253 12 10.398q.948-.987 1.891-1.977.699-.724 1.393-1.451H18.5L14 11.52a41 41 0 0 0-.47.477q.059.06.112.123l4.407 4.456.45.453h-2.493c-.064 0-.129.004-.192-.005-.178-.005-.356.003-.534-.003l-.962-1.004-1.898-1.981c-.14-.146-.277-.296-.421-.438-.306.326-.62.647-.928.972L9.33 16.389q-.303.318-.608.632c-.176.005-.353 0-.53.002-.1.013-.203.004-.304.007H5.5l4.73-4.784q.123-.123.241-.249z" clip-rule="evenodd"/><path fill="#fff" fill-rule="evenodd" d="M12.002 14.48c.408.432.82.859 1.23 1.29q.002 1.275 0 2.55H12q0-1.92.003-3.84z" clip-rule="evenodd"/></g><defs><clipPath id="a"><path fill="#fff" d="M0 0h24v24H0z"/></clipPath></defs></svg>