<svg xmlns="http://www.w3.org/2000/svg" fill="none" viewBox="0 0 24 24"><g clip-path="url(#a)"><path fill="#FAA00D" d="M12 24c6.627 0 12-5.373 12-12S18.627 0 12 0 0 5.373 0 12s5.373 12 12 12"/><path fill="#fff" d="m18.994 10.23-6.628 7.707-.297.363-7.064-7.993.022-.009L5 10.294l2.745-4.59.002.002-.002-.006h8.578l-.001.005L19 10.229zm-9.194.32-1.52 2.573 3.747 4.278 3.754-4.313-1.486-2.545zm-1.944 2.086 1.232-2.085-3.054.005zm6.806-2.692 3.467-.006-2.177-3.645-3.417.007zm3.34.592-2.992.005 1.2 2.054zm-4.054-.59-1.884-3.23-1.911 3.235zM8.067 6.31l-2.17 3.65 3.542-.007 2.156-3.65z"/></g><defs><clipPath id="a"><path fill="#fff" d="M0 0h24v24H0z"/></clipPath></defs></svg>