<svg xmlns="http://www.w3.org/2000/svg" fill="none" viewBox="0 0 24 24"><g clip-path="url(#a)"><path fill="#F7931A" d="M12 24c6.627 0 12-5.373 12-12S18.627 0 12 0 0 5.373 0 12s5.373 12 12 12"/><path fill="#fff" d="m16.916 14.64-.34 1.358-.905-.226.339-1.359-1.359-.338.226-.906 1.358.339.34-1.359.905.226-.338 1.359 1.358.338-.226.906zm-3.34-3.73c-.126.84-.584 1.248-1.19 1.393.828.438 1.248 1.112.839 2.288-.508 1.46-1.696 1.59-3.274 1.295l-.393 1.569-.924-.23.386-1.55q-.37-.09-.737-.19l-.388 1.555-.923-.23.392-1.573q-.325-.085-.66-.17l-1.204-.3.465-1.085s.682.181.673.168c.262.064.38-.11.426-.227l.618-2.482.099.025a1 1 0 0 0-.097-.032l.442-1.771c.012-.201-.054-.454-.43-.548.016-.01-.67-.167-.67-.167l.251-1.01 1.276.318-.001.005q.288.071.59.139l.388-1.555.925.23-.38 1.525c.248.056.498.113.74.174l.378-1.514.925.23-.387 1.556c1.167.404 2.02 1.016 1.845 2.163m-2.133 3.039c.306-1.226-1.706-1.53-2.333-1.688l-.519 2.083c.628.156 2.561.78 2.854-.396zm.303-3.047c.278-1.115-1.405-1.354-1.927-1.484l-.47 1.89c.521.13 2.13.663 2.397-.406"/></g><defs><clipPath id="a"><path fill="#fff" d="M0 0h24v24H0z"/></clipPath></defs></svg>