<svg xmlns="http://www.w3.org/2000/svg" fill="none" viewBox="0 0 24 24"><g clip-path="url(#a)"><path fill="#21AF67" d="M12 24c6.627 0 12-5.373 12-12S18.627 0 12 0 0 5.373 0 12s5.373 12 12 12Z"/><path fill="#fff" d="M12 18.5a6.5 6.5 0 1 1 0-13 6.5 6.5 0 0 1 0 13Zm2.499-8.856c-.096-.13-.251-.235-.465-.318-.212-.081-.505-.123-.877-.123h-.785l.637-1.752.425-1.168a5.885 5.885 0 0 0-1.305-.174l-.13-.003A5.899 5.899 0 0 0 6.106 12a5.88 5.88 0 0 0 2.01 4.428l.461-1.27A4.643 4.643 0 0 1 7.34 12a4.667 4.667 0 0 1 4.337-4.65l-1.702 4.678 3.395-.335a.025.025 0 0 0-.005-.002c.106-.034.207-.079.303-.135A2.21 2.21 0 0 0 14.31 11a1.611 1.611 0 0 0 .327-.91.692.692 0 0 0-.138-.446Zm-1.449 1.14a.735.735 0 0 1-.35.426c-.149.08-.315.122-.485.123h-.612l.41-1.129h.613a.87.87 0 0 1 .216.028.395.395 0 0 1 .174.091.28.28 0 0 1 .081.18.628.628 0 0 1-.047.281Zm.683-4.418-.423 1.163a4.66 4.66 0 1 1-3.12 8.765 4.64 4.64 0 0 1-.28-.131l.482-1.325h.785c.71 0 1.293-.12 1.75-.361.455-.242.78-.627.973-1.156.07-.197.097-.369.076-.517a.938.938 0 0 0-.131-.382.828.828 0 0 0-.25-.254 1.433 1.433 0 0 0-.248-.129l-3.427.338L8.818 15.4l-.45 1.237A5.85 5.85 0 0 0 12 17.894 5.901 5.901 0 0 0 17.894 12a5.905 5.905 0 0 0-4.16-5.634ZM11.22 12.58h.715c.086 0 .17.009.255.025.08.013.16.042.23.086.064.045.11.11.13.187.023.081.011.189-.037.321a.937.937 0 0 1-.204.342.894.894 0 0 1-.268.19 1.003 1.003 0 0 1-.293.084c-.09.013-.179.02-.27.02h-.716l.458-1.255Z"/></g><defs><clipPath id="a"><path fill="#fff" d="M0 0h24v24H0z"/></clipPath></defs></svg>