<svg xmlns="http://www.w3.org/2000/svg" fill="none" viewBox="0 0 24 24"><g clip-path="url(#a)"><path fill="#21AF67" d="M12 24c6.627 0 12-5.373 12-12S18.627 0 12 0 0 5.373 0 12s5.373 12 12 12"/><path fill="#fff" d="M12 18.5a6.5 6.5 0 1 1 0-13 6.5 6.5 0 0 1 0 13m2.499-8.856q-.144-.194-.465-.318-.319-.122-.877-.123h-.785l.637-1.752.425-1.168a6 6 0 0 0-1.305-.174l-.13-.003q-.1 0-.2.005A5.9 5.9 0 0 0 6.107 12a5.88 5.88 0 0 0 2.01 4.428l.461-1.27A4.64 4.64 0 0 1 7.34 12a4.667 4.667 0 0 1 4.337-4.65l-1.702 4.678 3.395-.335-.005-.002q.159-.051.303-.135A2.2 2.2 0 0 0 14.31 11q.146-.189.227-.414.09-.24.1-.497a.7.7 0 0 0-.138-.445m-1.449 1.14q-.11.303-.35.426c-.149.08-.315.122-.485.123h-.612l.41-1.129h.613q.11 0 .216.028a.4.4 0 0 1 .174.091.28.28 0 0 1 .081.18.6.6 0 0 1-.047.281m.683-4.418-.423 1.163a4.66 4.66 0 1 1-3.12 8.765 5 5 0 0 1-.28-.131l.482-1.325h.785q1.065 0 1.75-.361.683-.363.973-1.156.106-.295.076-.517a.9.9 0 0 0-.131-.382.8.8 0 0 0-.25-.254 1.4 1.4 0 0 0-.248-.129l-3.427.338L8.818 15.4l-.45 1.237A5.85 5.85 0 0 0 12 17.894 5.9 5.9 0 0 0 17.894 12a5.905 5.905 0 0 0-4.16-5.634M11.22 12.58h.715q.128 0 .255.025c.08.013.16.042.23.086q.098.07.13.187.035.122-.037.321a.9.9 0 0 1-.204.342.9.9 0 0 1-.268.19q-.14.065-.293.084-.134.02-.27.02h-.716z"/></g><defs><clipPath id="a"><path fill="#fff" d="M0 0h24v24H0z"/></clipPath></defs></svg>