<svg xmlns="http://www.w3.org/2000/svg" fill="none" viewBox="0 0 24 24"><g clip-path="url(#a)"><path fill="#56F4F1" d="M12 24c6.627 0 12-5.373 12-12S18.627 0 12 0 0 5.373 0 12s5.373 12 12 12Z"/><path fill="#000" d="M5.5 6.486c0-.01.136-.01 1.897-.01l1.897.002 1.079 1.816 1.097 1.846.018.031.172-.292a6.31 6.31 0 0 0 .17-.3l-.918-1.547C10.41 7.186 10 6.489 10 6.485c0-.009.285-.01 1.997-.01 1.109 0 1.997.003 1.997.007 0 .013-4.235 7.213-4.245 7.215-.007 0-.626-1.046-2.129-3.6A762.314 762.314 0 0 1 5.5 6.486Zm9.191-.006c0-.003.858-.005 1.905-.005H18.5l-.003.014c-.002.009-.95 1.626-2.108 3.594-1.404 2.384-2.11 3.58-2.12 3.58-.008.002-.207-.33-.873-1.452-.476-.8-.867-1.456-.87-1.457-.005-.003-.346.576-.343.584 0 .003.392.663.87 1.466.293.488.58.979.864 1.472-.006.023-1.909 3.247-1.916 3.25a198.53 198.53 0 0 1-1.9-3.228c.003-.007 4.52-7.703 4.59-7.818Z"/></g><defs><clipPath id="a"><path fill="#fff" d="M0 0h24v24H0z"/></clipPath></defs></svg>