<svg xmlns="http://www.w3.org/2000/svg" fill="none" viewBox="0 0 24 24"><g clip-path="url(#a)"><path fill="#FFCE47" d="M12 24c6.627 0 12-5.373 12-12S18.627 0 12 0 0 5.373 0 12s5.373 12 12 12Z"/><path fill="#32407B" fill-rule="evenodd" d="M14.99 16.582H9.015a.221.221 0 0 1-.02.032l-.187.267h6.389l-.186-.266a.266.266 0 0 1-.02-.033Zm-6.918 1.345.382-.544h7.094l.381.544H8.072Zm-.7.114-.39.555a.253.253 0 0 0-.047.13.26.26 0 0 0 .029.131.249.249 0 0 0 .223.136.25.25 0 0 0 .121-.025.262.262 0 0 0 .09-.079l.322-.459h8.562l.321.46a.255.255 0 0 0 .093.075.244.244 0 0 0 .118.028l.005.007a.25.25 0 0 0 .248-.273.255.255 0 0 0-.045-.127l-1.42-2.018h1.355a.248.248 0 0 0 .253-.252v-4.563a.252.252 0 0 0 0-.123v-3.07a.258.258 0 0 0 0-.116v-.832A2.627 2.627 0 0 0 14.584 5H9.42a2.627 2.627 0 0 0-2.627 2.626v.849a.254.254 0 0 0 0 .096v3.063a.261.261 0 0 0 0 .137v4.56a.248.248 0 0 0 .154.232c.031.013.064.02.097.019h1.354l-1.017 1.446a.208.208 0 0 0-.009.013Zm9.334-6.088v4.127H7.294v-4.127h2.053v.003c.012 0 .025 0 .038-.003h7.321Zm-5.3-.499h5.3V8.773H7.294v2.681h1.938l1.072-1.22a.252.252 0 0 1 .377.33l-.78.89h.836l2.22-2.529a.252.252 0 0 1 .355-.022.251.251 0 0 1 .072.269.235.235 0 0 1-.05.085l-1.928 2.197Zm5.3-3.186H7.294v-.642A2.124 2.124 0 0 1 9.42 5.502h5.163a2.124 2.124 0 0 1 2.124 2.124v.642Zm-7.36 6.756a1.046 1.046 0 1 1-.004-2.091 1.046 1.046 0 0 1 .005 2.091Zm0-1.583a.543.543 0 0 0-.53.646.54.54 0 1 0 .53-.646Zm4.646 1.346a1.043 1.043 0 1 0 1.323-1.612 1.043 1.043 0 0 0-1.323 1.612Zm.362-1.256a.543.543 0 0 1 .777.195.54.54 0 1 1-.777-.195Zm-.846-6.68h-3.016a.25.25 0 1 1 0-.5h3.016a.252.252 0 0 1 0 .503v-.002Z" clip-rule="evenodd"/></g><defs><clipPath id="a"><path fill="#fff" d="M0 0h24v24H0z"/></clipPath></defs></svg>