<svg xmlns="http://www.w3.org/2000/svg" fill="none" viewBox="0 0 24 24"><g clip-path="url(#a)"><path fill="#ED1650" d="M12 24c6.627 0 12-5.373 12-12S18.627 0 12 0 0 5.373 0 12s5.373 12 12 12"/><path fill="#fff" fill-rule="evenodd" d="M16.78 7.546H14.2a.4.4 0 0 0-.28.118l-4.701 4.8a.4.4 0 0 1-.28.118h-.862a.4.4 0 0 1-.28-.119l-.61-.62a.4.4 0 0 1-.117-.285v-.878c0-.107.042-.21.117-.286l.61-.62a.4.4 0 0 1 .28-.12h.861a.4.4 0 0 1 .28.12l.375.38a.393.393 0 0 0 .56 0l.906-.92a.41.41 0 0 0 0-.57l-.982-1a.4.4 0 0 0-.28-.118H7.22a.4.4 0 0 0-.28.118L5.115 9.52A.4.4 0 0 0 5 9.806v2.625c0 .107.042.21.116.286l1.823 1.856a.4.4 0 0 0 .28.118h2.579a.4.4 0 0 0 .28-.118l4.702-4.799a.4.4 0 0 1 .28-.12h.862c.105 0 .206.044.28.12l.61.62a.4.4 0 0 1 .116.286v.878a.4.4 0 0 1-.116.285l-.61.62a.4.4 0 0 1-.28.119h-.862a.4.4 0 0 1-.28-.119l-.378-.384a.39.39 0 0 0-.558-.003l-1.115 1.11a.4.4 0 0 0-.12.29v2.574a.4.4 0 0 0 .397.404h1.3a.4.4 0 0 0 .398-.403v-.956a.4.4 0 0 1 .396-.404h1.68a.4.4 0 0 0 .28-.118l1.823-1.857a.4.4 0 0 0 .117-.285V9.806a.4.4 0 0 0-.116-.286l-1.823-1.856a.4.4 0 0 0-.28-.118" clip-rule="evenodd"/></g><defs><clipPath id="a"><path fill="#fff" d="M0 0h24v24H0z"/></clipPath></defs></svg>