<svg xmlns="http://www.w3.org/2000/svg" fill="none" viewBox="0 0 24 24"><g clip-path="url(#a)"><path fill="#4F7AA2" d="M12 24c6.627 0 12-5.373 12-12S18.627 0 12 0 0 5.373 0 12s5.373 12 12 12Z"/><path fill="#fff" d="M10.287 9.455h1.743c.841 0 2.344.51 2.344 2.545 0 2.034-1.502 2.546-2.344 2.546h-1.742V9.454Zm.961 4.06h.722c.6 0 1.322-.368 1.322-1.515 0-1.147-.721-1.514-1.322-1.514h-.72l-.002 3.029Zm3.788-4.06h.36l3.244 4.47v-4.47H19v5.09h-.36l-3.245-4.373v4.373h-.36v-5.09ZM5 9.455h1.201v1.272H5V9.455Zm1.803 0h1.2v1.272h-1.2V9.455Zm1.802 0h1.202v1.272H8.605V9.455Zm0 1.909h1.202v1.272H8.605v-1.272Zm0 1.909h1.202v1.273H8.605v-1.273Zm-1.802-1.91h1.2v1.273h-1.2v-1.272Z"/></g><defs><clipPath id="a"><path fill="#fff" d="M0 0h24v24H0z"/></clipPath></defs></svg>