<svg xmlns="http://www.w3.org/2000/svg" fill="none" viewBox="0 0 24 24"><g clip-path="url(#a)"><path fill="#67B2E8" d="M12 24c6.627 0 12-5.373 12-12S18.627 0 12 0 0 5.373 0 12s5.373 12 12 12Z"/><path fill="#fff" fill-rule="evenodd" d="M6.087 8.973A11.896 11.896 0 0 1 6 7.583a12.132 12.132 0 0 1 7.456-1.495 3.603 3.603 0 0 0-1.9 3.106c-.01.322-.042.575-.109.812a2.717 2.717 0 0 1-5.081.403.884.884 0 0 1-.06-.18 12.1 12.1 0 0 1-.219-1.256Zm9.967 5.136c-.142.222-.294.438-.45.65a3.538 3.538 0 0 0-.439-1.733 3.559 3.559 0 0 0-1.287-1.358l-.054-.033a5.048 5.048 0 0 1-.09-.054c-.682-.434-1.098-1.041-1.244-1.825a2.71 2.71 0 0 1 2.03-3.13 2.686 2.686 0 0 1 1.462.049c.371.117.747.27 1.204.484.264.124.53.262.814.423-.004.836-.095 1.67-.271 2.488a12.089 12.089 0 0 1-1.674 4.039Zm-1.822 2.203A12.313 12.313 0 0 1 12 18a12.225 12.225 0 0 1-4.983-5.616 3.616 3.616 0 0 0 3.62.007c.316-.18.664-.296 1.024-.341a2.712 2.712 0 0 1 2.941 1.923c.201.673.143 1.333-.17 1.984-.026.055-.049.1-.103.206l-.026.052a.348.348 0 0 1-.07.097Z" clip-rule="evenodd"/></g><defs><clipPath id="a"><path fill="#fff" d="M0 0h24v24H0z"/></clipPath></defs></svg>