<svg xmlns="http://www.w3.org/2000/svg" fill="none" viewBox="0 0 24 24"><g clip-path="url(#a)"><path fill="#67B2E8" d="M12 24c6.627 0 12-5.373 12-12S18.627 0 12 0 0 5.373 0 12s5.373 12 12 12"/><path fill="#fff" fill-rule="evenodd" d="M6.087 8.973A12 12 0 0 1 6 7.582a12.13 12.13 0 0 1 6.248-1.58c.34.008.834.045 1.208.086a3.6 3.6 0 0 0-1.9 3.106c-.01.322-.042.575-.109.812a2.718 2.718 0 0 1-5.081.403 1 1 0 0 1-.06-.18 12 12 0 0 1-.219-1.256m9.967 5.135q-.215.333-.45.651a3.54 3.54 0 0 0-.439-1.733 3.56 3.56 0 0 0-1.287-1.358l-.054-.033-.09-.054q-1.024-.65-1.244-1.825a2.71 2.71 0 0 1 2.03-3.13 2.7 2.7 0 0 1 1.462.049c.371.117.747.27 1.204.484.264.124.53.262.814.422a12 12 0 0 1-.271 2.49 12.1 12.1 0 0 1-1.674 4.037m-1.822 2.204A12.3 12.3 0 0 1 12 18a12.23 12.23 0 0 1-4.983-5.616 3.62 3.62 0 0 0 3.62.007c.316-.18.664-.296 1.024-.342a2.71 2.71 0 0 1 2.941 1.924q.3 1.008-.17 1.984c-.026.055-.049.1-.103.206l-.026.052a.4.4 0 0 1-.07.097" clip-rule="evenodd"/></g><defs><clipPath id="a"><path fill="#fff" d="M0 0h24v24H0z"/></clipPath></defs></svg>