<svg xmlns="http://www.w3.org/2000/svg" fill="none" viewBox="0 0 24 24"><path fill="#000" d="m6.43 17.33.596.597a6.8 6.8 0 0 1 3.128-.76c2.07 0 3.924.924 5.174 2.382l2.387-2.387a8.76 8.76 0 0 0-11.285.168"/><path fill="#000" d="m8.856 19.757 1.654 1.654a2.093 2.093 0 0 0 2.96 0l1.666-1.67a4.9 4.9 0 0 0-3.132-1.129 4.9 4.9 0 0 0-3.148 1.145m1.506-10.592c4.233 0 8.054 1.754 10.777 4.573l.248-.248a2.093 2.093 0 0 0 0-2.96L13.47 2.613a2.093 2.093 0 0 0-2.96 0L2.59 10.53A2.08 2.08 0 0 0 2 11.716a14.9 14.9 0 0 1 8.362-2.551"/><path fill="#000" d="M12.173 11.139c-3.32 0-6.348 1.241-8.655 3.28l.62.62a10.5 10.5 0 0 1 6.056-1.906c3.168 0 6.011 1.398 7.946 3.605l2.49-2.492a13.04 13.04 0 0 0-8.457-3.107"/></svg>