<svg xmlns="http://www.w3.org/2000/svg" fill="none" viewBox="0 0 24 24"><path fill="#000" d="m6.43 17.33.596.597a6.785 6.785 0 0 1 3.128-.761c2.07 0 3.925.925 5.174 2.383l2.387-2.387a8.758 8.758 0 0 0-11.286.168Z"/><path fill="#000" d="m8.856 19.757 1.654 1.654a2.093 2.093 0 0 0 2.96 0l1.666-1.67a4.89 4.89 0 0 0-3.132-1.129 4.887 4.887 0 0 0-3.148 1.145Zm1.506-10.592c4.233 0 8.054 1.754 10.777 4.573l.248-.248a2.093 2.093 0 0 0 0-2.96L13.47 2.613a2.093 2.093 0 0 0-2.96 0L2.59 10.53A2.078 2.078 0 0 0 2 11.716a14.908 14.908 0 0 1 8.362-2.551Z"/><path fill="#000" d="M12.172 11.139c-3.32 0-6.347 1.241-8.654 3.28l.62.62a10.51 10.51 0 0 1 6.056-1.906 10.54 10.54 0 0 1 7.945 3.605l2.491-2.491a13.036 13.036 0 0 0-8.458-3.108Z"/></svg>