<svg xmlns="http://www.w3.org/2000/svg" fill="none" viewBox="0 0 24 24"><g clip-path="url(#a)"><path fill="#1EB5FA" d="M12 24c6.627 0 12-5.373 12-12S18.627 0 12 0 0 5.373 0 12s5.373 12 12 12Z"/><path fill="#fff" d="m18.198 6.86-2.154.955a.399.399 0 0 0-.208.35v7.7a.392.392 0 0 0 .214.35l2.153.931a.2.2 0 0 0 .297-.178v-9.93a.207.207 0 0 0-.302-.178Zm-10.313.943-2.088-.949a.2.2 0 0 0-.297.178v9.93a.202.202 0 0 0 .308.172l2.1-1.109a.395.395 0 0 0 .19-.338V8.153a.415.415 0 0 0-.213-.35Zm6.549 2.628-2.249-1.287a.396.396 0 0 0-.397 0l-2.29 1.275a.405.405 0 0 0-.202.35v2.61c0 .145.078.278.202.35l2.29 1.317a.397.397 0 0 0 .397 0l2.249-1.305a.406.406 0 0 0 .201-.35v-2.61a.4.4 0 0 0-.201-.35Z"/></g><defs><clipPath id="a"><path fill="#fff" d="M0 0h24v24H0z"/></clipPath></defs></svg>