<svg xmlns="http://www.w3.org/2000/svg" fill="none" viewBox="0 0 24 24"><g clip-path="url(#a)"><path fill="#000" d="M12 24c6.627 0 12-5.373 12-12S18.627 0 12 0 0 5.373 0 12s5.373 12 12 12"/><path fill="#fff" d="m16.665 7.94-1.564.797-7.56 3.85a4.503 4.503 0 0 1 6.66-4.513l.896-.457.133-.068a5.5 5.5 0 0 0-8.714 4.87 1 1 0 0 1-.543.967l-.473.241v1.124l1.39-.71.451-.23.444-.226 7.968-4.06.895-.455 1.851-.944V7.004zM18.5 9.25 8.239 14.476l-.896.456-1.842.94v1.123l1.83-.931 1.564-.798 7.567-3.856a4.503 4.503 0 0 1-6.666 4.517l-.056.029-.97.495a5.5 5.5 0 0 0 8.714-4.871 1 1 0 0 1 .543-.967l.473-.241v-1.12"/></g><defs><clipPath id="a"><path fill="#fff" d="M0 0h24v24H0z"/></clipPath></defs></svg>