<svg xmlns="http://www.w3.org/2000/svg" fill="none" viewBox="0 0 24 24"><path fill="#1E1E1E" d="M12 22c5.523 0 10-4.477 10-10S17.523 2 12 2 2 6.477 2 12s4.477 10 10 10Z"/><path fill="#fff" d="m6.796 5.324 8.295.157c1.997.04 2.64 2.604.879 3.513l-8.89 4.598c-.419.215-.927-.075-.927-.533V5.931c0-.34.289-.614.642-.607Zm10.308 13.344-8.868-.162c-2.199-.038-2.887-2.965-.933-3.967l9.704-4.981a.564.564 0 0 1 .823.497v7.904c0 .397-.33.717-.726.709Z"/><path fill="#00F97D" d="M14.79 16.451a1.12 1.12 0 1 0 0-2.241 1.12 1.12 0 0 0 0 2.241Z"/></svg>