<svg xmlns="http://www.w3.org/2000/svg" fill="none" viewBox="0 0 24 24"><path fill="#1E1E1E" d="M12 22c5.523 0 10-4.477 10-10S17.523 2 12 2 2 6.477 2 12s4.477 10 10 10"/><path fill="#fff" d="m6.796 5.324 8.295.157c1.997.04 2.639 2.604.878 3.513l-8.888 4.598c-.419.215-.927-.075-.927-.533V5.93c0-.34.289-.615.642-.607m10.307 13.345-8.868-.162c-2.198-.039-2.886-2.965-.932-3.967l9.703-4.982a.564.564 0 0 1 .824.498v7.903c0 .398-.33.718-.727.71"/><path fill="#00F97D" d="M14.79 16.451a1.12 1.12 0 1 0 0-2.241 1.12 1.12 0 0 0 0 2.241"/></svg>