<svg xmlns="http://www.w3.org/2000/svg" fill="none" viewBox="0 0 24 24"><g clip-path="url(#a)"><path fill="#DD0632" d="M12 24c6.627 0 12-5.373 12-12S18.627 0 12 0 0 5.373 0 12s5.373 12 12 12"/><path fill="#fff" d="M15.62 7.099h-2.796l-.83 1.437-.829-1.437H8.37l-2.87 4.97 2.778 4.81 1.884-3.26L12 16.793l1.833-3.174 1.888 3.282 2.779-4.81zm-7.346 7.878-1.68-2.907L7.93 9.756l1.68 2.91-1.336 2.314zm.208-6.176.444-.77H10.6l.842 1.459-1.28 2.22zm3.51 6.084-1.279-2.222 1.28-2.22.572.99.71 1.23-1.282 2.22zm.551-5.395.844-1.459h1.675l.448.77-1.69 2.91zm4.316 3.54-1.133 1.968-1.348-2.34 1.68-2.903.452.78.895 1.55z"/></g><defs><clipPath id="a"><path fill="#fff" d="M0 0h24v24H0z"/></clipPath></defs></svg>