<svg xmlns="http://www.w3.org/2000/svg" fill="none" viewBox="0 0 24 24"><g clip-path="url(#a)"><path fill="#004A80" d="M12 24c6.627 0 12-5.373 12-12S18.627 0 12 0 0 5.373 0 12s5.373 12 12 12"/><path fill="#fff" fill-rule="evenodd" d="M16.278 14.163 15.37 17.5H7.722v-.558l4.15-4.717-4.066-5.119V6.5h7.536l.262 2.598h-.482q-.478-.888-.812-1.329t-.596-.55a1.6 1.6 0 0 0-.51-.127 7 7 0 0 0-.777-.04h-2.141l3.207 3.997v.192l-3.964 4.5h4.525q.333 0 .611-.158.277-.16.48-.4.214-.248.376-.533.173-.302.304-.625z" clip-rule="evenodd"/></g><defs><clipPath id="a"><path fill="#fff" d="M0 0h24v24H0z"/></clipPath></defs></svg>