<svg xmlns="http://www.w3.org/2000/svg" fill="none" viewBox="0 0 24 24"><g clip-path="url(#a)"><path fill="#004A80" d="M12 24c6.627 0 12-5.373 12-12S18.627 0 12 0 0 5.373 0 12s5.373 12 12 12Z"/><path fill="#fff" fill-rule="evenodd" d="M16.278 14.163 15.37 17.5H7.722v-.558l4.15-4.717-4.066-5.119V6.5h7.535l.263 2.598h-.482c-.319-.592-.589-1.035-.812-1.329-.223-.294-.421-.476-.596-.55a1.636 1.636 0 0 0-.51-.127 6.647 6.647 0 0 0-.777-.04h-2.141l3.207 3.997v.192l-3.964 4.5h4.525c.222 0 .426-.052.611-.158.185-.106.345-.24.48-.4.142-.165.268-.344.376-.533a5.15 5.15 0 0 0 .304-.625l.453.138Z" clip-rule="evenodd"/></g><defs><clipPath id="a"><path fill="#fff" d="M0 0h24v24H0z"/></clipPath></defs></svg>