<svg xmlns="http://www.w3.org/2000/svg" fill="none" viewBox="0 0 24 24"><g clip-path="url(#a)"><path fill="#F60" d="M12 24c6.627 0 12-5.373 12-12S18.627 0 12 0 0 5.373 0 12s5.373 12 12 12Z"/><path fill="#fff" d="M18.5 12A6.5 6.5 0 1 1 6.78 8.125l1.06 1.062A4.995 4.995 0 0 0 6.978 12a5.021 5.021 0 0 0 5.017 5.017A5.021 5.021 0 0 0 17.012 12a5.023 5.023 0 0 0-.863-2.814l1.061-1.061A6.424 6.424 0 0 1 18.5 12Z"/><path fill="#fff" d="M15.595 12A3.599 3.599 0 0 1 12 15.595a3.6 3.6 0 0 1-3.123-5.377L12 13.34l3.123-3.123A3.6 3.6 0 0 1 15.596 12"/><path fill="#fff" d="M16.25 7.084 12 11.33 8.76 8.095l-1.01-1.01A6.45 6.45 0 0 1 12 5.5a6.46 6.46 0 0 1 4.25 1.584Z"/></g><defs><clipPath id="a"><path fill="#fff" d="M0 0h24v24H0z"/></clipPath></defs></svg>