<svg xmlns="http://www.w3.org/2000/svg" fill="none" viewBox="0 0 24 24"><g clip-path="url(#a)"><path fill="#F60" d="M12 24c6.627 0 12-5.373 12-12S18.627 0 12 0 0 5.373 0 12s5.373 12 12 12"/><path fill="#fff" d="M12 5.5a6.5 6.5 0 0 1 6.5 6.509 6.7 6.7 0 0 1-.335 2.064h-1.937V8.604L12 12.838 7.772 8.604v5.469H5.834a6.7 6.7 0 0 1-.334-2.064A6.5 6.5 0 0 1 12 5.5m-.969 8.29.986.97.97-.97 1.831-1.852v3.44h2.73A6.49 6.49 0 0 1 12 18.5a6.51 6.51 0 0 1-5.549-3.122h2.73v-3.44z"/></g><defs><clipPath id="a"><path fill="#fff" d="M0 0h24v24H0z"/></clipPath></defs></svg>