<svg xmlns="http://www.w3.org/2000/svg" fill="none" viewBox="0 0 24 24"><g clip-path="url(#a)"><path fill="#EC1076" d="M12 24c6.627 0 12-5.373 12-12S18.627 0 12 0 0 5.373 0 12s5.373 12 12 12"/><path fill="#fff" fill-rule="evenodd" d="M15.22 15.355c-.384 0-.804-.193-.804-.77q0-.427.666-2.626.136-.34.136-.61c0-.346-.267-.692-.763-.692-.289 0-.917.114-1.108.73q-.19.618-.879 3.274-.267.694-.954.694c-.688 0-.803-.501-.803-.81q0-.183.55-2.21.214-.677.214-.986c0-.308-.229-.692-.764-.692-.534 0-1.031.384-1.26 1.231q-.229.849-.65 2.542-.229.924-1.03.925-.728 0-.764-.81l.878-3.658H5.937a.905.905 0 1 1-.019-1.81h3.266q.687 0 .84.654c.458-.577 1.07-.731 1.605-.731a1.7 1.7 0 0 1 1.527 1.002C13.576 9.539 14.302 9 15.334 9c.954 0 1.756.655 1.756 1.81q0 .654-.649 2.735l1.676-.012c.49 0 .883.408.883.91 0 .504-.393.912-.879.912z" clip-rule="evenodd"/></g><defs><clipPath id="a"><path fill="#fff" d="M0 0h24v24H0z"/></clipPath></defs></svg>