<svg xmlns="http://www.w3.org/2000/svg" fill="none" viewBox="0 0 24 24"><g clip-path="url(#a)"><path fill="#EC1076" d="M12 24c6.627 0 12-5.373 12-12S18.627 0 12 0 0 5.373 0 12s5.373 12 12 12Z"/><path fill="#fff" fill-rule="evenodd" d="M15.22 15.354c-.384 0-.804-.192-.804-.77 0-.284.223-1.16.666-2.625.091-.227.136-.43.136-.61 0-.346-.267-.692-.763-.692-.289 0-.917.114-1.108.73-.127.412-.42 1.503-.879 3.274-.178.462-.496.694-.954.694-.688 0-.803-.501-.803-.81 0-.121.183-.86.55-2.21.143-.452.214-.78.214-.986 0-.308-.229-.692-.764-.692-.534 0-1.031.384-1.26 1.231-.152.566-.37 1.413-.65 2.542-.152.616-.496.925-1.03.925-.485 0-.74-.27-.764-.81l.878-3.658H5.937a.905.905 0 1 1-.019-1.81h3.266c.458 0 .738.218.84.654.458-.577 1.07-.731 1.605-.731a1.7 1.7 0 0 1 1.527 1.002C13.576 9.539 14.302 9 15.334 9c.954 0 1.756.655 1.756 1.81 0 .436-.216 1.348-.649 2.735l1.676-.012c.49 0 .883.408.883.91 0 .504-.393.912-.879.912H15.22Z" clip-rule="evenodd"/></g><defs><clipPath id="a"><path fill="#fff" d="M0 0h24v24H0z"/></clipPath></defs></svg>