<svg xmlns="http://www.w3.org/2000/svg" fill="none" viewBox="0 0 24 24"><g clip-path="url(#a)"><path fill="#008200" d="M12 24c6.627 0 12-5.373 12-12S18.627 0 12 0 0 5.373 0 12s5.373 12 12 12"/><path fill="#fff" d="M11.285 16.136h-1.062l-.64-2.511 1.563-.817.509 1.454.379-1.918 2.077-1.085-.115.577 1.2.011q.694-.011 1.077-.469t.363-1.23a1.4 1.4 0 0 0-.02-.198l1.613-.844q.334.617.256 1.451-.13 1.216-1.051 1.946t-2.348.73l-1.362-.006-.578 2.91zm.249-6.494h1.034l-1.594 2.26L7.04 13.96l1.458-2.063-1.402-4.033h2.057l.727 2.83.621-1.052zH10.5l1.11-1.778h1.309l3.029.006q1.032.027 1.693.547l-1.654.865a1 1 0 0 0-.123-.015l-1.356-.012-.177.893-2.078 1.086.314-1.592zm-5.57 5.875 3.148-1.646-1.387 2.265H5.5l.453-.64z"/></g><defs><clipPath id="a"><path fill="#fff" d="M0 0h24v24H0z"/></clipPath></defs></svg>