<svg xmlns="http://www.w3.org/2000/svg" fill="none" viewBox="0 0 24 24"><g clip-path="url(#a)"><path fill="#4FA784" d="M12 24c6.627 0 12-5.373 12-12S18.627 0 12 0 0 5.373 0 12s5.373 12 12 12"/><path fill="#fff" fill-rule="evenodd" d="m18.193 9-5.857-1.678-2.004 3.412-2.327-2.699L9.06 7.9l1.087 1.277 1.206-2.137-5.309-1.522a.423.423 0 0 0-.531.506l2.351 9.444 2.526-4.253 2.327 2.7-1.055.135-1.086-1.277-2.39 3.984.354 1.423a.426.426 0 0 0 .707.203l9.122-8.674A.42.42 0 0 0 18.193 9" clip-rule="evenodd"/></g><defs><clipPath id="a"><path fill="#fff" d="M0 0h24v24H0z"/></clipPath></defs></svg>