<svg xmlns="http://www.w3.org/2000/svg" fill="none" viewBox="0 0 24 24"><g clip-path="url(#a)"><path fill="#4FA784" d="M12 24c6.627 0 12-5.373 12-12S18.627 0 12 0 0 5.373 0 12s5.373 12 12 12Z"/><path fill="#fff" fill-rule="evenodd" d="m18.192 9-5.857-1.678-2.003 3.412-2.327-2.699L9.059 7.9l1.087 1.277 1.206-2.137-5.308-1.522a.423.423 0 0 0-.532.506l2.352 9.444 2.526-4.253 2.326 2.7-1.054.135-1.086-1.277-2.39 3.984.353 1.423a.426.426 0 0 0 .708.203l9.122-8.674A.418.418 0 0 0 18.192 9Z" clip-rule="evenodd"/></g><defs><clipPath id="a"><path fill="#fff" d="M0 0h24v24H0z"/></clipPath></defs></svg>