<svg xmlns="http://www.w3.org/2000/svg" fill="none" viewBox="0 0 24 24"><g clip-path="url(#a)"><path fill="#23292F" d="M12 24c6.627 0 12-5.373 12-12S18.627 0 12 0 0 5.373 0 12s5.373 12 12 12"/><path fill="#fff" d="M16.242 7.031h1.734l-3.609 3.574a3.373 3.373 0 0 1-4.734 0L6.021 7.031h1.737L10.5 9.745a2.134 2.134 0 0 0 2.998 0zM7.737 16.97H6l3.633-3.596a3.373 3.373 0 0 1 4.734 0L18 16.968h-1.737L13.5 14.231a2.134 2.134 0 0 0-2.998 0z"/></g><defs><clipPath id="a"><path fill="#fff" d="M0 0h24v24H0z"/></clipPath></defs></svg>