<svg xmlns="http://www.w3.org/2000/svg" fill="none" viewBox="0 0 24 24"><g clip-path="url(#a)"><path fill="#D21E2B" d="M12 24c6.627 0 12-5.373 12-12S18.627 0 12 0 0 5.373 0 12s5.373 12 12 12"/><path fill="#fff" d="M12.085 6.977V5.5l5.495 3.171-1.27.739zm4.309 7.456V9.567l1.283-.738v6.342zm-4.31 2.59 4.226-2.432 1.27.738-5.495 3.171zM6.409 15.33l1.283-.738 4.212 2.432V18.5zm-.085-6.5 1.271.738v4.866l-1.27.738zm.085-.158L11.903 5.5v1.477L7.691 9.41zm5.598-1.555L7.77 9.55v4.89l4.236 2.445 4.224-2.445V9.55zm3.402 4.37-.182.314-1.21-.677-1.55.87 1.55.872 1.21-.677.182.314-1.017.57 1.017.568-.182.315-1.017-.569v1.138h-.375V13.18l-1.55-.871v1.743l1.2.665-.182.31-1.017-.57v1.138h-.376v-1.138l-1.017.57-.193-.315 1.21-.666v-1.737l-1.55.871v1.344h-.387v-1.138l-1.004.569-.194-.315 1.016-.569-1.016-.569.194-.314 1.198.677 1.561-.871-1.562-.872-1.197.678-.194-.315 1.016-.569-1.016-.568.194-.315 1.004.569V9.458h.388v1.344l1.549.871V9.936l-1.2-.666.182-.314 1.017.569V8.387h.375v1.138l1.017-.57.181.315-1.198.666v1.743l1.55-.871v-1.35h.375v1.138l1.017-.57.18.316-1.016.569z"/></g><defs><clipPath id="a"><path fill="#fff" d="M0 0h24v24H0z"/></clipPath></defs></svg>