<svg xmlns="http://www.w3.org/2000/svg" fill="none" viewBox="0 0 24 24"><g clip-path="url(#a)"><path fill="#fff" d="M12 24c6.627 0 12-5.373 12-12S18.627 0 12 0 0 5.373 0 12s5.373 12 12 12Z"/><path fill="#D8E3F3" d="M12 23.161c6.164 0 11.161-4.997 11.161-11.161S18.164.839 12 .839.839 5.836.839 12 5.836 23.161 12 23.161Z"/><path fill="#2C7DF7" d="M13.392 18.5c-.928 0-1.604-.224-2.03-.67a2.064 2.064 0 0 1-.638-1.444.96.96 0 0 1 .107-.478.832.832 0 0 1 .305-.305 1.063 1.063 0 0 1 .949 0 .82.82 0 0 1 .303.305c.08.146.12.311.116.478a.912.912 0 0 1-.163.558.766.766 0 0 1-.39.283c.153.194.369.328.61.38.27.078.55.118.831.12.372.002.736-.107 1.046-.313.32-.227.56-.551.68-.925.156-.444.232-.913.225-1.383a3.814 3.814 0 0 0-.245-1.438 1.773 1.773 0 0 0-.704-.893 1.873 1.873 0 0 0-1.015-.292 1.928 1.928 0 0 0-.876.298l-.653.327v-.328l2.931-3.932h-4.057v4.08a1.46 1.46 0 0 0 .223.835.77.77 0 0 0 .682.327c.244-.005.48-.089.674-.238.22-.162.41-.359.565-.584a.202.202 0 0 1 .073-.097.15.15 0 0 1 .097-.036c.072.005.14.033.195.08a.402.402 0 0 1 .103.277c-.008.068-.02.136-.036.203-.144.35-.386.65-.697.865a1.73 1.73 0 0 1-.973.297c-.88 0-1.489-.173-1.827-.52a1.947 1.947 0 0 1-.505-1.422V8.85H7.23v-.757h2.072V6.365l-.475-.476V5.5h1.379l.518.272v2.322l5.363-.017.535.537-3.29 3.31a2.2 2.2 0 0 1 .62-.15c.423.018.835.135 1.204.342.426.203.785.524 1.036.925.223.34.382.717.467 1.115.07.313.106.633.11.954a3.98 3.98 0 0 1-.405 1.77 2.597 2.597 0 0 1-1.219 1.218 3.947 3.947 0 0 1-1.753.402Z"/></g><defs><clipPath id="a"><path fill="#fff" d="M0 0h24v24H0z"/></clipPath></defs></svg>