<svg xmlns="http://www.w3.org/2000/svg" fill="none" viewBox="0 0 24 24"><path fill="#f03" d="m18.308 16.385.968.257-.723 1.64-.945-.31-1.04-.272.73-1.678zM9.072 6.494c-.4.1-2.327.137-2.827.27 1.3 1.934 3.358 4.423 4.025 5.39.367-.534 3.855-2.976 3.955-3.742-.5-.1-2.157-.34-2.423-.34l-.157-.856h7.86l-.567.857c-.335.034-1.724.345-2.19.444-.503.136-5.3 3.888-5.6 4.755-.067.3 0 3.507 0 3.527l2.713.183-.095.895c-.392-.028-2.908-.022-4.485-.022-.8 0-3.242.089-4.065.065l.103-.853c.514.043 1.3-.038 1.78-.166.481-.128.825-.32.825-.802v-2.8c-.167-.5-4.158-5.524-5.19-6.324-.302-.1-2.267-.314-2.733-.414l.096-.842h9.107zM24 7.917l-.668 1.088-3.643 6.196-1.497-.46 2.41-7.866z"/></svg>