<svg xmlns="http://www.w3.org/2000/svg" fill="none" viewBox="0 0 24 24"><path fill="#F03" fill-rule="evenodd" d="M17.092 8.443c.604-.131 1.573-.342 1.846-.369v-.001l.568-.857h-7.862l.158.857c.266 0 1.923.24 2.423.34-.063.482-1.475 1.633-2.6 2.55-.66.537-1.22.994-1.356 1.191-.261-.38-.737-.993-1.296-1.715-.868-1.12-1.937-2.5-2.728-3.676.268-.071.948-.114 1.582-.155.547-.035 1.06-.068 1.245-.114l.132-.775H.097L0 6.561c.205.044.7.11 1.216.178.657.088 1.348.18 1.517.237 1.032.799 5.023 5.823 5.19 6.324v2.8c0 .481-.344.673-.825.801-.48.128-1.266.21-1.78.166l-.103.853c.494.014 1.572-.012 2.528-.036.636-.015 1.218-.03 1.537-.03h.714c1.53 0 3.435-.001 3.77.022l.097-.894-2.713-.183s-.068-3.227 0-3.527c.3-.868 5.098-4.621 5.598-4.755zm-.524 9.256 1.04.272v.001l.945.31.723-1.64-.968-.257-1.01-.363zm1.624-2.957 1.497.459 3.643-6.196L24 7.916l-3.398-1.041z" clip-rule="evenodd"/></svg>