<svg xmlns="http://www.w3.org/2000/svg" fill="none" viewBox="0 0 24 24"><path fill="url(#a)" fill-rule="evenodd" d="M24 12c0 6.632-5.376 12-12 12S0 18.624 0 12 5.376 0 12 0s12 5.376 12 12Z" clip-rule="evenodd"/><path fill="#fff" fill-rule="evenodd" d="M23 12c0 6.074-4.926 11-11 11S1 18.074 1 12 5.926 1 12 1s11 4.926 11 11Z" clip-rule="evenodd"/><path fill="#EC1C24" fill-rule="evenodd" d="m19.728 7.048-6.424 6.28v7.808c0 .144-.608.256-1.304.264-.664-.008-1.304-.12-1.304-.264v-7.808l-6.424-6.28c-.104-.104.224-.592.728-1.096.504-.504 1-.832 1.096-.728l5.888 5.744 5.888-5.744c.104-.104.592.224 1.096.728.512.504.848.992.76 1.096Z" clip-rule="evenodd"/><defs><linearGradient id="a" x1="12.002" x2="12.002" y1="-4" y2="16.48" gradientUnits="userSpaceOnUse"><stop stop-color="#EDEDEE"/><stop offset="1" stop-color="#EDEDEE"/></linearGradient></defs></svg>