<svg xmlns="http://www.w3.org/2000/svg" fill="none" viewBox="0 0 24 24"><g fill-rule="evenodd" clip-path="url(#a)" clip-rule="evenodd"><path fill="url(#b)" d="M22 12c0-1.3-.26-2.62-.76-3.82S20 5.86 19.08 4.92A10.1 10.1 0 0 0 12 2c-1.3 0-2.62.26-3.82.76S5.86 4 4.92 4.92A10.1 10.1 0 0 0 2 12c0 1.3.26 2.62.76 3.82S4 18.14 4.92 19.08c.92.92 2.04 1.66 3.24 2.16S10.7 22 12 22s2.62-.26 3.82-.76 2.32-1.24 3.26-2.16c.92-.92 1.66-2.04 2.16-3.24S22 13.3 22 12"/><path fill="#fff" d="M11.48 7.48h1.04v9.04h-1.04z"/><path fill="#fff" d="M10.9 11.74v-1.08c-.82-.4-1.4-1.26-1.4-2.24a2.5 2.5 0 0 1 2.5-2.5c1.56 0 2.68 1.12 2.68 2.5 0 .34-.08.68-.24 1.08L14 8.06l-.88.28.78 2.98 3.04-1.12-.38-.88-1.14.38c.2-.44.24-.78.24-1.3 0-1.94-1.56-3.5-3.68-3.5-1.94 0-3.5 1.56-3.5 3.5a3.55 3.55 0 0 0 2.42 3.34m2.2.52v1.08c.82.4 1.4 1.26 1.4 2.24a2.5 2.5 0 0 1-2.5 2.5c-1.56 0-2.68-1.12-2.68-2.5 0-.34.08-.68.24-1.08l.44 1.44.88-.28-.78-2.98-3.04 1.12.38.88 1.14-.38c-.2.44-.24.78-.24 1.3 0 1.94 1.56 3.5 3.68 3.5 1.94 0 3.5-1.56 3.5-3.5a3.55 3.55 0 0 0-2.42-3.34"/></g><defs><linearGradient id="b" x1="2" x2="22" y1="2" y2="22" gradientUnits="userSpaceOnUse"><stop stop-color="#0077FC"/><stop offset="1" stop-color="#095EB5"/></linearGradient><clipPath id="a"><path fill="#fff" d="M2 2h20v20H2z"/></clipPath></defs></svg>