<svg xmlns="http://www.w3.org/2000/svg" fill="none" viewBox="0 0 24 24"><g clip-path="url(#a)"><path fill="#006AE3" d="M12 24c6.627 0 12-5.373 12-12S18.627 0 12 0 0 5.373 0 12s5.373 12 12 12"/><path fill="#fff" d="M11.552 16.486v-8.85h.963v8.85z"/><path fill="#fff" d="m16.457 10.584-2.977.79-.663-3.09.884-.2.35 1.464s.804-1.319-.268-2.685c-.632-.702-.932-.731-1.64-.842-.624-.09-2.073.121-2.504 1.812-.183 1.09.023 1.896 1.427 2.951l-.079 1.175s-1.567-1.105-1.972-1.88c-.312-.612-.85-1.822.12-3.507.52-.843 1.548-1.65 3.359-1.566.91.038 3.133 1.152 2.788 3.75-.06.488-.312 1.136-.312 1.136l1.222-.271zm-1.7 6.925c-.544.828-1.593 1.608-3.4 1.476-.91-.061-3.101-1.234-2.689-3.823.073-.484.343-1.125.343-1.125l-1.228.238-.24-.968 2.998-.71.582 3.106-.891.177-.31-1.475s-.839 1.296.195 2.691c.613.72.911.756 1.62.885.619.106 2.073-.068 2.55-1.746.21-1.083.025-1.896-1.349-2.99l.11-1.172s1.539 1.144 1.922 1.93c.293.623.797 1.848-.213 3.506"/></g><defs><clipPath id="a"><path fill="#fff" d="M0 0h24v24H0z"/></clipPath></defs></svg>