<svg xmlns="http://www.w3.org/2000/svg" fill="none" viewBox="0 0 24 24"><g clip-path="url(#a)"><path fill="red" d="m18.931 9.99-1.441-.601 1.717-.913a4.48 4.48 0 0 0 1.874-6.078 4.506 4.506 0 0 0-6.09-1.874L4.792 5.929a4.5 4.5 0 0 0-2.402 4.193 4.52 4.52 0 0 0 2.666 3.904c.036.012 1.442.6 1.442.6l-1.706.901a4.51 4.51 0 0 0-2.369 3.967A4.53 4.53 0 0 0 6.93 24c.725 0 1.437-.174 2.08-.508l10.21-5.406a4.493 4.493 0 0 0 1.602-6.522 4.53 4.53 0 0 0-1.891-1.574m-9.334 5.2V8.824l6.007 3.184z"/></g><defs><clipPath id="a"><path fill="#fff" d="M0 0h24v24H0z"/></clipPath></defs></svg>