<svg xmlns="http://www.w3.org/2000/svg" fill="none" viewBox="0 0 24 24"><g clip-path="url(#a)"><path fill="#21A5DE" d="M12 24c6.627 0 12-5.373 12-12S18.627 0 12 0 0 5.373 0 12s5.373 12 12 12"/><path fill="#fff" d="M15.843 12.403c.238.254.382.594.382.966 0 .79-.65 1.431-1.45 1.431s-1.45-.64-1.45-1.43c0-.373.145-.713.382-.967A.52.52 0 0 1 12.87 12c0-.114.039-.226.11-.315a1.46 1.46 0 0 1-.98.377c-.378 0-.722-.143-.98-.377.071.09.11.2.11.315a.52.52 0 0 1-.836.402c.236.255.38.595.38.967 0 .79-.649 1.431-1.449 1.431s-1.45-.64-1.45-1.43c0-.373.145-.713.381-.967A.52.52 0 0 1 7.32 12c0-.114.038-.226.11-.315a1.46 1.46 0 0 1-.98.377A1.44 1.44 0 0 1 5 10.631C5 9.84 5.649 9.2 6.45 9.2s1.45.64 1.45 1.43c0 .36-.137.705-.382.967a.52.52 0 0 1 .837.403.5.5 0 0 1-.11.315c.258-.234.602-.377.98-.377s.721.143.98.377a.5.5 0 0 1-.11-.315.52.52 0 1 1 .837-.402 1.42 1.42 0 0 1-.382-.967c0-.79.65-1.431 1.45-1.431s1.45.64 1.45 1.43c0 .36-.136.705-.382.967a.52.52 0 0 1 .837.403.5.5 0 0 1-.11.315c.258-.234.603-.377.98-.377.378 0 .721.143.98.377a.5.5 0 0 1-.11-.315.52.52 0 1 1 .837-.402 1.42 1.42 0 0 1-.381-.967c0-.79.649-1.431 1.45-1.431S19 9.84 19 10.63a1.44 1.44 0 0 1-1.45 1.432c-.378 0-.721-.143-.98-.377.072.09.11.2.11.315a.52.52 0 0 1-.836.402z"/></g><defs><clipPath id="a"><path fill="#fff" d="M0 0h24v24H0z"/></clipPath></defs></svg>