<svg xmlns="http://www.w3.org/2000/svg" fill="none" viewBox="0 0 24 24"><path fill="#98C93C" d="M10.756.053c.32-.02.64-.075.96-.043.378.028.756-.041 1.132.01 1.652.116 3.28.575 4.745 1.351a12.051 12.051 0 0 1 5.235 5.44A12.084 12.084 0 0 1 24 11.526c-.03.329-.023.658-.007.988a11.964 11.964 0 0 1-1.258 4.858 12.04 12.04 0 0 1-6.299 5.783 11.83 11.83 0 0 1-3.358.8c-.235.007-.468.066-.703.035a6.393 6.393 0 0 0-.845.007 11.999 11.999 0 0 1-5.81-1.766c-2.512-1.535-4.423-4.024-5.242-6.853-.283-.946-.43-1.93-.478-2.913.057-.435-.03-.873.026-1.307C.11 9.877.41 8.611.897 7.423a12.055 12.055 0 0 1 4.45-5.421 11.982 11.982 0 0 1 5.41-1.95m.454 2.087c-2.48.178-4.862 1.36-6.527 3.203a9.858 9.858 0 0 0-2.488 5.333 9.946 9.946 0 0 0 .595 4.942 9.936 9.936 0 0 0 5.933 5.719 9.896 9.896 0 0 0 4.03.526 9.809 9.809 0 0 0 5.154-1.93 9.926 9.926 0 0 0 3.176-4.016 9.941 9.941 0 0 0 .463-6.515 9.931 9.931 0 0 0-5.564-6.461 9.854 9.854 0 0 0-4.772-.801Zm-4.754 3.85c1.08-.017 2.162-.008 3.242-.001.761 2.045 1.52 4.092 2.28 6.138l.043.002c.713-2.047 1.425-4.095 2.14-6.142 1.065-.008 2.13-.01 3.195.003-1.79 4.366-3.569 8.736-5.356 13.102-1.111.004-2.223.013-3.335-.002l1.423-3.318c.041-.096.09-.19.116-.292-.02-.11-.073-.21-.112-.314-1.214-3.058-2.42-6.119-3.636-9.176Z"/></svg>