<svg xmlns="http://www.w3.org/2000/svg" fill="none" viewBox="0 0 24 24"><path fill="#98C93C" d="M10.756.053c.32-.02.64-.075.96-.043.378.028.756-.041 1.132.01 1.652.116 3.28.575 4.745 1.351a12.05 12.05 0 0 1 5.235 5.44A12.1 12.1 0 0 1 24 11.526a7 7 0 0 0-.007.988 12 12 0 0 1-1.258 4.858 12.04 12.04 0 0 1-6.299 5.783 11.8 11.8 0 0 1-3.358.8c-.235.007-.468.066-.703.035a6 6 0 0 0-.845.007 12 12 0 0 1-5.81-1.767 12.04 12.04 0 0 1-5.242-6.853A12.2 12.2 0 0 1 0 12.465c.057-.435-.03-.873.026-1.307C.11 9.877.41 8.611.897 7.423a12.06 12.06 0 0 1 4.45-5.421 12 12 0 0 1 5.41-1.95m.454 2.087c-2.48.178-4.862 1.36-6.527 3.203a9.86 9.86 0 0 0-2.488 5.333 9.95 9.95 0 0 0 .595 4.942 9.94 9.94 0 0 0 5.933 5.718 9.9 9.9 0 0 0 4.03.527 9.8 9.8 0 0 0 5.154-1.93 9.9 9.9 0 0 0 3.176-4.016 9.94 9.94 0 0 0 .463-6.515 9.93 9.93 0 0 0-5.564-6.461 9.85 9.85 0 0 0-4.773-.801m-4.754 3.85c1.08-.017 2.162-.008 3.242-.001l2.28 6.138.043.002 2.14-6.142c1.065-.008 2.13-.01 3.195.003-1.79 4.366-3.569 8.736-5.356 13.102-1.111.004-2.223.013-3.335-.002l1.423-3.318c.041-.096.09-.19.116-.292-.02-.11-.073-.21-.112-.314-1.214-3.058-2.42-6.119-3.636-9.176"/></svg>