<svg xmlns="http://www.w3.org/2000/svg" fill="none" viewBox="0 0 24 24"><g clip-path="url(#a)"><path fill="#2D2D2D" stroke="#464649" stroke-miterlimit="10" d="M3.552.5h16.896A3.05 3.05 0 0 1 23.5 3.553v16.903a3.063 3.063 0 0 1-3.06 3.044H3.551A3.05 3.05 0 0 1 .5 20.447V3.553A3.05 3.05 0 0 1 3.552.5Z"/><path fill="#fff" d="M10.344 19.026H3.738l9.909-14.043h6.605zm9.491 0H11.58l1.163-1.653a.98.98 0 0 1 .798-.417h6.295zM12.413 4.983l-1.155 1.643a.98.98 0 0 1-.798.417H4.156V4.974c.044.009 8.188.009 8.257.009"/></g><defs><clipPath id="a"><path fill="#fff" d="M0 0h24v24H0z"/></clipPath></defs></svg>