<svg xmlns="http://www.w3.org/2000/svg" fill="none" viewBox="0 0 24 24"><path fill="#E91C41" d="M14.685 7.185c1.936 0 2.507 2.258 1.936 3.375-.57 1.117-1.866 2.41-2.812 3.259-.86.76-2.101 1.505-3.664-.058a7 7 0 0 1-.243-.21l1.151-1.193.047.041c.7.7 1.06.706 1.76.006a43 43 0 0 0 1.994-2.16c.433-.517.674-1.628-1.27-1.628H10.52c-1.295 0-1.964.677-1.286 1.628l.148.186-1.225 1.274c-.294-.363-.532-.7-.643-.947-.794-1.563-.124-3.573 1.712-3.573zm-5.354 9.778c-1.935 0-2.506-2.259-1.935-3.375s1.866-2.41 2.812-3.26c.86-.76 2.1-1.505 3.664.059q.11.09.243.21l-1.151 1.193-.048-.042c-.699-.699-1.06-.706-1.76-.005a43 43 0 0 0-1.993 2.16c-.433.517-.674 1.627 1.269 1.627h3.065c1.294 0 1.963-.677 1.285-1.628l-.147-.185 1.225-1.274c.294.363.531.7.642.946.794 1.564.124 3.573-1.712 3.573z"/><path fill="#E91C41" d="M12 20.387a8.387 8.387 0 1 1 0-16.774 8.387 8.387 0 0 1 0 16.774M12 2C6.477 2 2 6.477 2 12s4.477 10 10 10 10-4.477 10-10S17.523 2 12 2"/></svg>