<svg xmlns="http://www.w3.org/2000/svg" fill="none" viewBox="0 0 24 24"><path fill="#E91C41" d="M14.685 7.185c1.936 0 2.507 2.258 1.936 3.375-.57 1.117-1.866 2.41-2.812 3.259-.86.76-2.101 1.505-3.665-.058a6.967 6.967 0 0 1-.242-.21l1.15-1.193c.016.012.034.031.048.042.7.699 1.06.705 1.76.005a42.871 42.871 0 0 0 1.994-2.16c.432-.517.674-1.627-1.27-1.627H10.52c-1.294 0-1.963.676-1.285 1.628l.147.185-1.224 1.274c-.294-.363-.532-.7-.643-.947-.794-1.563-.124-3.573 1.712-3.573h5.46Zm-5.354 9.778c-1.935 0-2.506-2.259-1.935-3.375.57-1.117 1.866-2.41 2.812-3.259.86-.76 2.1-1.505 3.664.058.072.059.155.131.243.21l-1.152 1.193c-.014-.012-.033-.031-.047-.042-.699-.699-1.06-.705-1.76-.005a42.894 42.894 0 0 0-1.994 2.16c-.432.517-.673 1.627 1.27 1.627h3.065c1.294 0 1.963-.677 1.285-1.628l-.147-.185 1.225-1.274c.294.363.531.7.642.946.794 1.564.124 3.574-1.712 3.574H9.331Z"/><path fill="#E91C41" d="M12 20.387a8.387 8.387 0 1 1 0-16.774 8.387 8.387 0 0 1 0 16.774ZM12 2C6.477 2 2 6.477 2 12s4.477 10 10 10 10-4.477 10-10S17.523 2 12 2Z"/></svg>