<svg xmlns="http://www.w3.org/2000/svg" fill="none" viewBox="0 0 24 24"><path fill="#030302" d="M22 12.022c-.002 5.553-4.448 9.982-10.017 9.978-5.54-.004-9.986-4.47-9.983-10.027C2.003 6.443 6.507 1.992 12.09 2c5.468.008 9.912 4.503 9.91 10.022Zm-2.203-.138c-.095-2.122-.801-3.981-2.325-5.47-1.988-1.94-4.38-2.5-7.046-2.06-3 .493-6.287 3.43-6.216 7.78.068 4.186 3.495 7.649 7.8 7.63 4.398-.02 7.857-3.599 7.787-7.88Z"/><path fill="#DEA038" d="M19.797 11.884c.07 4.281-3.39 7.86-7.787 7.88-4.305.019-7.732-3.445-7.8-7.63-.07-4.35 3.215-7.287 6.216-7.78 2.667-.44 5.058.12 7.046 2.06 1.524 1.489 2.23 3.348 2.325 5.47Z"/><path fill="#030302" d="M10.92 16.768H8.31c-.17-1.008-.05-1.878.625-2.693 1.184-1.431 2.153-3.035 3.459-4.493H8.599V7.244h2.304V5.512h2.133v1.723h2.558c.012.952.108 1.809-.567 2.634-1.174 1.437-2.151 3.036-3.415 4.534h4.133v2.346h-2.688v1.68H10.92v-1.661Z"/></svg>