<svg xmlns="http://www.w3.org/2000/svg" fill="none" viewBox="0 0 24 24"><g clip-path="url(#a)"><path fill="#C87035" d="M12 24c6.627 0 12-5.373 12-12S18.627 0 12 0 0 5.373 0 12s5.373 12 12 12Z"/><path fill="#fff" d="M11.995 18.5A6.501 6.501 0 0 1 5.5 11.992c0-3.588 2.914-6.494 6.509-6.492a6.499 6.499 0 0 1 6.491 6.501 6.501 6.501 0 0 1-6.505 6.499Zm-2.649-3.528.046-.085 1.747-3.074c.51-.897 1.02-1.795 1.527-2.693a.086.086 0 0 1 .09-.053c.592.003 1.188.003 1.78.003h.085c-.824 1.453-1.641 2.897-2.466 4.349a3685.78 3685.78 0 0 1 4.525.005c.05 0 .066-.019.077-.063a4.916 4.916 0 0 0-1.366-4.925 4.525 4.525 0 0 0-1.088-.766 4.854 4.854 0 0 0-3.123-.473c-1.087.193-2.003.707-2.754 1.519-.098.106-.188.22-.282.33l.01.018h4.242l-.057.107c-.259.458-.52.915-.776 1.374a.117.117 0 0 1-.12.068c-1.336-.002-2.673-.003-4.008-.002h-.08c-.678 2.129.279 4.8 2.678 5.867 2.324 1.038 4.76.083 5.902-1.51-2.195.004-4.391.005-6.588.004Zm7.471 1.122c.824-.916 1.557-2.423 1.511-4.233-.037-1.49-.547-2.8-1.502-3.959l-.876.883a5.074 5.074 0 0 1 .016 6.441l.851.868Z"/></g><defs><clipPath id="a"><path fill="#fff" d="M0 0h24v24H0z"/></clipPath></defs></svg>