<svg xmlns="http://www.w3.org/2000/svg" fill="none" viewBox="0 0 24 24"><g clip-path="url(#a)"><path fill="#C87035" d="M12 24c6.627 0 12-5.373 12-12S18.627 0 12 0 0 5.373 0 12s5.373 12 12 12"/><path fill="#fff" d="M11.995 18.5A6.5 6.5 0 0 1 5.5 11.992c0-3.588 2.914-6.494 6.509-6.492a6.5 6.5 0 0 1 6.491 6.501 6.5 6.5 0 0 1-6.505 6.499m-2.649-3.528.046-.085 1.747-3.074q.766-1.346 1.527-2.693a.09.09 0 0 1 .09-.053q.89.004 1.78.003h.085c-.824 1.453-1.641 2.897-2.466 4.349l4.525.005c.05 0 .066-.019.077-.062a4.92 4.92 0 0 0-1.366-4.926 4.5 4.5 0 0 0-1.088-.766 4.85 4.85 0 0 0-3.123-.473c-1.087.193-2.003.707-2.754 1.519-.098.106-.188.22-.282.33l.01.018h4.243c-.024.045-.04.077-.058.107q-.39.686-.776 1.374a.12.12 0 0 1-.12.068q-2.005-.003-4.008-.002h-.08c-.678 2.129.279 4.8 2.678 5.868 2.324 1.037 4.76.082 5.903-1.511q-3.293.006-6.59.004m7.471 1.122c.824-.916 1.557-2.423 1.511-4.233-.037-1.49-.547-2.8-1.501-3.959l-.877.883a5.074 5.074 0 0 1 .016 6.441z"/></g><defs><clipPath id="a"><path fill="#fff" d="M0 0h24v24H0z"/></clipPath></defs></svg>