<svg xmlns="http://www.w3.org/2000/svg" fill="none" viewBox="0 0 24 24"><path fill="#0374F2" d="M10.14 4c.124 0 .179.069.248.131l7.694 7.322a94.57 94.57 0 0 1 2.324 2.207.208.208 0 0 1 .09.244.209.209 0 0 1-.049.08c-.158.234-.31.475-.448.723-.138.249-.145.145-.262 0-1.117-1.075-2.247-2.144-3.371-3.212-2.39-2.276-4.78-4.546-7.17-6.812-.187-.173-.16-.262 0-.393.286-.172.61-.271.944-.29ZM7.747 9.137l.131.11 9.653 9.156c.11.11.138.193.048.324-.158.241-.303.483-.448.731-.145.248-.138.159-.262.034-.951-.917-1.917-1.834-2.882-2.757L7.03 10.15c-.227-.214-.227-.214 0-.414l.6-.503.117-.096ZM4.314 17.68a3.247 3.247 0 0 1-.731-.077 2.103 2.103 0 0 1-1.317-3.061 5.675 5.675 0 0 1 1.13-1.324c.325-.345.332-.345.69 0l3.516 3.337c.049.049.214.104 0 .193a8.21 8.21 0 0 1-3.288.931Zm14.782-1.49-.138.227c-.124.207-.262.407-.372.628-.11.22-.166.158-.297.034L9.106 8.337c-.159-.145-.125-.193 0-.338a3.57 3.57 0 0 1 .592-.469c.16-.096.228-.117.359 0l3.889 3.71 5.005 4.736c.055.076.138.11.145.214ZM12.725 4.055a8.46 8.46 0 0 1 2.255.607c.294.192.561.424.793.69 2.068 1.937 4.075 3.881 6.122 5.819.11.11.145.179.049.317-.166.241-.31.496-.456.751-.075.138-.124.145-.24 0l-3.855-3.613-4.633-4.412a.297.297 0 0 1-.104-.124c-.014-.049.042-.021.07-.035Zm-2.089 11.583c0 .076-.048.062-.083.07-.44.014-.874.095-1.289.24-.083 0-.117 0-.165-.068l-4.192-3.986c-.104-.096-.104-.151 0-.24.227-.2.448-.408.69-.614.082-.083.137-.104.234 0l4.75 4.53.055.068Z"/></svg>