<svg xmlns="http://www.w3.org/2000/svg" fill="none" viewBox="0 0 24 24"><g clip-path="url(#a)"><path fill="#ECB244" d="M12 24c6.627 0 12-5.373 12-12S18.627 0 12 0 0 5.373 0 12s5.373 12 12 12"/><path fill="#fff" d="M11.412 14.5h4.093v2.177h-2.519c.042.623.064 1.2.105 1.823h-2.12v-1.8H8.453c0-.711-.084-1.422.042-2.089.063-.356.441-.667.672-.978q1.197-1.496 2.414-2.977c.315-.379.63-.734.987-1.156H8.64V7.323h2.33V5.5h2.036v1.778h2.54c0 .733.084 1.444-.042 2.111-.063.356-.44.667-.692.978q-1.197 1.496-2.414 2.977-.475.594-.987 1.156"/></g><defs><clipPath id="a"><path fill="#fff" d="M0 0h24v24H0z"/></clipPath></defs></svg>