<svg xmlns="http://www.w3.org/2000/svg" fill="none" viewBox="0 0 24 24"><g clip-path="url(#a)"><path fill="#183C87" d="M12 24c6.627 0 12-5.373 12-12S18.627 0 12 0 0 5.373 0 12s5.373 12 12 12"/><path fill="#fff" fill-rule="evenodd" d="m5.5 12.068 2.656-1.5 2.656 1.5v2.864l-2.656 1.5-2.656-1.5zm7.688 0 2.656-1.5 2.656 1.5v2.864l-2.656 1.5-2.656-1.5zm-.28 2.488-.931.512-.886-.486V11.84l-2.423-1.368v-.995l3.309-1.909 3.308 1.909v1.022l-2.376 1.342z" clip-rule="evenodd"/></g><defs><clipPath id="a"><path fill="#fff" d="M0 0h24v24H0z"/></clipPath></defs></svg>