<svg xmlns="http://www.w3.org/2000/svg" fill="none" viewBox="0 0 24 24"><g fill="#f76f53" fill-rule="evenodd" clip-path="url(#a)" clip-rule="evenodd"><path d="M12 16.616a4.615 4.615 0 1 0 0-9.231 4.615 4.615 0 0 0 0 9.23M15.692 12a3.692 3.692 0 1 1-7.384 0 3.692 3.692 0 0 1 7.384 0"/><path d="M20 12a8 8 0 1 1-16 0 8 8 0 0 1 8-8 8 8 0 0 1 8 8m-8 6.461A6.461 6.461 0 1 0 12 5.54a6.461 6.461 0 0 0 0 12.922"/><path d="M24 12c0 6.627-5.373 12-12 12S0 18.627 0 12 5.373 0 12 0s12 5.373 12 12m-12 9.846c5.438 0 9.846-4.408 9.846-9.846S17.438 2.154 12 2.154 2.154 6.562 2.154 12 6.562 21.846 12 21.846"/></g><defs><clipPath id="a"><path fill="#fff" d="M0 0h24v24H0z"/></clipPath></defs></svg>