<svg xmlns="http://www.w3.org/2000/svg" fill="none" viewBox="0 0 24 24"><g clip-path="url(#a)"><path fill="#00EAAB" d="M12 24c6.627 0 12-5.373 12-12S18.627 0 12 0 0 5.373 0 12s5.373 12 12 12Z"/><path fill="#fff" d="m17.277 8.216-1.059 1.647c.338.661.513 1.394.51 2.137a4.719 4.719 0 0 1-4.723 4.722 4.61 4.61 0 0 1-2.127-.509l-1.657 1.069a6.498 6.498 0 0 0 3.774 1.218 6.5 6.5 0 0 0 6.5-6.5c0-1.418-.45-2.716-1.218-3.784Z"/><path fill="#fff" d="M12.005 15.245a3.26 3.26 0 0 0 3.205-2.666 7.415 7.415 0 0 0-5.911 1.229 3.245 3.245 0 0 0 2.706 1.437Z"/><path fill="#fff" d="M13.602 11.82c.57 0 1.118.06 1.658.18a3.266 3.266 0 0 0-4.614-2.972 3.258 3.258 0 0 0-1.876 3.41c-.818.63-1.208 1.12-1.228 1.14a4.72 4.72 0 0 1 4.453-6.29 4.6 4.6 0 0 1 2.126.509l1.648-1.069A6.337 6.337 0 0 0 12.005 5.5a6.494 6.494 0 0 0-6.5 6.5c0 1.448.47 2.776 1.268 3.854a7.668 7.668 0 0 1 1.108-1.528s.64-.668 1.129-1.008a7.752 7.752 0 0 1 4.592-1.498Z"/></g><defs><clipPath id="a"><path fill="#fff" d="M0 0h24v24H0z"/></clipPath></defs></svg>