<svg xmlns="http://www.w3.org/2000/svg" fill="none" viewBox="0 0 24 24"><g clip-path="url(#a)"><path fill="#07BC9C" d="M12 24c6.627 0 12-5.373 12-12S18.627 0 12 0 0 5.373 0 12s5.373 12 12 12Z"/><path fill="#fff" fill-rule="evenodd" d="M16.192 7.11c-.325-.082-1.082-.071-1.314.248.232.13.394.33.632.335.238.006.514-.222.816-.092-.13 0-.713.109-.75.287.08.134.179.257.29.368.153.124.169.167.396.043.278-.176.488-.44.595-.752 0-.162.048-.054-.07-.189a1.314 1.314 0 0 0-.595-.249Zm-3.05.286a2.02 2.02 0 0 1 1.433-.179 2.055 2.055 0 0 0-.681-1.352c.468.292.797.76.913 1.298.265-.043.541-.146.795-.184a2.195 2.195 0 0 0-.643-1.368C14.78 5.444 14.277 5 13.99 5c-.287 0-.66.649-.768.914a2.369 2.369 0 0 0-.08 1.482Z" clip-rule="evenodd"/><path fill="#fff" fill-rule="evenodd" d="M13.07 8.245c-.096-.233.33-.325.461-.309.232.069.445.191.622.357.34.255 1.01 1.007 1.503.828.492-.179-.092-1.05-.362-1.277a1.952 1.952 0 0 0-1.677-.502.972.972 0 0 0-.61.54c-.033.12-.152.363.065.363h-.001Z" clip-rule="evenodd"/><path fill="#fff" d="M15.332 11.489c-.303-.184-.412-.725-.6-1.022-.26-.417-.639-.757-.866-1.19-.227-.432-.254-.762-.643-.968a1.039 1.039 0 0 0-.968 0c-.484.22-.993.38-1.515.477a5.19 5.19 0 0 0-.68.21 3.81 3.81 0 0 1-.58.265c-.497.07-1.417-.54-1.33.405 0 .174.178.266.124.487-.054.222-.292.417-.405.59a5.307 5.307 0 0 0-.541 1.249 4.327 4.327 0 0 0 .167 3.012c.2.468.467.906.79 1.298.158.185.297.384.417.595.091.25.205.491.34.72a1.015 1.015 0 0 0 1 .362c.19-.065.371-.15.542-.254a3.69 3.69 0 0 1 .908-.233 4.866 4.866 0 0 0 2.925-1.622c.357-.43.634-.922.817-1.45a4.83 4.83 0 0 0 .233-.908c.027-.195-.032-.687.108-.816.091-.088.309-.109.373-.19.05-.108.088-.22.114-.335.102-.32-.498-.573-.73-.682Zm.41.773c-.08.184-.4.293-.54.487a3.29 3.29 0 0 1-.795.952 1.574 1.574 0 0 1-1.963-.422 1.67 1.67 0 0 1-.368-1.054c0-.298.325-1.044 0-1.206-.324-.162-.476.362-.6.54a1.911 1.911 0 0 1-.941.795 1.779 1.779 0 0 1-1.79-.389 1.812 1.812 0 0 1-.255-1.557 3.472 3.472 0 0 0-.07-.795c0-.39.341-.25.617-.195a4.85 4.85 0 0 1 1.903.784c.537.446 1.18.744 1.866.865.46.044.915.121 1.363.233.222.065.427.173.644.249.228.074.45.17.66.287.146.064.356.194.275.405l-.005.021Z"/></g><defs><clipPath id="a"><path fill="#fff" d="M0 0h24v24H0z"/></clipPath></defs></svg>