<svg xmlns="http://www.w3.org/2000/svg" fill="none" viewBox="0 0 24 24"><g clip-path="url(#a)"><path fill="#07BC9C" d="M12 24c6.627 0 12-5.373 12-12S18.627 0 12 0 0 5.373 0 12s5.373 12 12 12"/><path fill="#fff" fill-rule="evenodd" d="M16.192 7.11c-.325-.082-1.082-.071-1.314.248.232.13.394.33.632.335s.514-.222.816-.092c-.13 0-.713.109-.75.287q.122.201.29.368c.153.124.169.167.396.043.278-.176.488-.44.595-.752 0-.162.048-.054-.07-.189a1.3 1.3 0 0 0-.595-.249m-3.05.286a2.02 2.02 0 0 1 1.433-.179 2.06 2.06 0 0 0-.681-1.352c.468.292.797.76.913 1.298.265-.043.541-.146.795-.184a2.2 2.2 0 0 0-.643-1.368c-.179-.166-.682-.61-.969-.61s-.66.649-.768.914a2.37 2.37 0 0 0-.08 1.482" clip-rule="evenodd"/><path fill="#fff" fill-rule="evenodd" d="M13.071 8.245c-.097-.233.33-.324.46-.309.233.069.445.191.622.357.34.255 1.01 1.007 1.503.828s-.091-1.05-.362-1.276a1.95 1.95 0 0 0-1.677-.503.97.97 0 0 0-.61.54c-.033.12-.152.363.065.363" clip-rule="evenodd"/><path fill="#fff" d="M15.332 11.489c-.303-.184-.412-.725-.6-1.022-.26-.417-.639-.757-.866-1.19s-.254-.762-.643-.968a1.04 1.04 0 0 0-.968 0c-.484.22-.993.38-1.515.477q-.348.082-.68.21a4 4 0 0 1-.58.265c-.497.07-1.417-.54-1.33.405 0 .174.178.266.124.487-.054.222-.292.417-.405.59a5.3 5.3 0 0 0-.541 1.249 4.33 4.33 0 0 0 .167 3.012c.2.468.467.906.79 1.298q.237.278.417.595.137.376.34.72a1.01 1.01 0 0 0 1 .362q.285-.098.542-.254a3.7 3.7 0 0 1 .908-.233 4.87 4.87 0 0 0 2.925-1.622c.357-.43.634-.922.817-1.45a5 5 0 0 0 .233-.908c.027-.195-.032-.687.108-.816.091-.088.309-.109.373-.19q.075-.162.114-.335c.102-.32-.498-.573-.73-.682m.41.773c-.08.184-.4.293-.54.487a3.3 3.3 0 0 1-.795.952 1.574 1.574 0 0 1-1.963-.422 1.67 1.67 0 0 1-.368-1.054c0-.298.325-1.044 0-1.206-.324-.162-.476.362-.6.54a1.9 1.9 0 0 1-.941.795 1.78 1.78 0 0 1-1.79-.389 1.81 1.81 0 0 1-.255-1.557 3.5 3.5 0 0 0-.07-.795c0-.39.341-.25.617-.195a4.85 4.85 0 0 1 1.903.784c.537.446 1.18.744 1.866.865q.69.066 1.363.233c.222.065.427.173.644.249q.343.111.66.287c.146.064.356.194.275.405z"/></g><defs><clipPath id="a"><path fill="#fff" d="M0 0h24v24H0z"/></clipPath></defs></svg>