<svg xmlns="http://www.w3.org/2000/svg" fill="none" viewBox="0 0 24 24"><g clip-path="url(#a)"><path fill="#49C1BF" d="M12 24c6.627 0 12-5.373 12-12S18.627 0 12 0 0 5.373 0 12s5.373 12 12 12Z"/><path fill="#fff" fill-opacity=".304" d="m7.454 6.334 7.24 3.507 1.852-.835L9.336 5.5l-1.882.834Z"/><path fill="#fff" fill-opacity=".646" d="m14.693 9.832 1.853-.834v1.866l-1.853.835V9.832Zm0 8.654v-5.822l1.853-.844v5.831l-1.853.835Z"/><path fill="#fff" d="M7.454 6.336v1.888l5.01 2.434-5.01 2.482V15l7.24 3.5v-1.872l-4.918-2.391 4.917-2.528V9.841l-7.24-3.506Z"/></g><defs><clipPath id="a"><path fill="#fff" d="M0 0h24v24H0z"/></clipPath></defs></svg>