<svg xmlns="http://www.w3.org/2000/svg" fill="none" viewBox="0 0 24 24"><g clip-path="url(#a)"><path fill="#00004D" d="M12 24c6.627 0 12-5.373 12-12S18.627 0 12 0 0 5.373 0 12s5.373 12 12 12"/><path fill="#fff" d="M11.72 6.333c-.052.22-.208.916-.279 1.382-.028.19-.147.446.184.583-.075.015-.098.024-.122.02-.236-.03-.478-.064-.714-.093-.052-.006-.118-.015-.166.01a.69.69 0 0 0-.297.9.88.88 0 0 1 .08.57.3.3 0 0 0 .028.15c.185.452.218.902.071 1.373-.024.073-.009.162-.004.24.01.152.018.304.033.456-.232-.186-.487-.353-.681-.579a1.13 1.13 0 0 1-.265-.827c.005-.06-.042-.128-.08-.182-.109-.161-.236-.308-.326-.48-.128-.245-.284-.348-.54-.27a1.2 1.2 0 0 0-.354.207c-.094.067-.175.156-.26.235l-.033-.03c.015-.034.02-.073.038-.108.133-.244.128-.24-.056-.446-.355-.396-.663-.823-.795-1.362-.066-.269-.147-.534-.217-.799-.355.441-.402 2.03-.052 2.656-.11-.553-.218-1.077-.095-1.617.024.123.038.24.043.363q.03.654.307 1.235c.038.083.147.132.227.19.028.02.066.03.1.045-.005.02-.005.04-.01.054-.175-.01-.345-.03-.52-.034-.114-.006-.246-.035-.336.014a.75.75 0 0 0-.279.309c-.019.034.076.171.147.226.189.141.317.298.288.563-.005.063.066.176.128.2.17.065.217.192.245.353.02.103.034.236.1.294.212.197.279.432.284.716.004.18.099.367.075.544a.48.48 0 0 0 .071.352h-.005l.015.015c.037.059.09.107.15.152l.124.118s.212.23.217.455c.005.226-.014.255.052.456.067.196.156.353.185.52.028.166-.034.215.066.323.099.107.208.18.32.304.11.127.266.171.37.28.104.107.269.308.397.435.066.069.156.123.222.162.02.02.028.029.024.04-.09.195.094.19.165.253.123.108.298.177.387.31.162.24.37.362.63.436.023.005.052.01.06.024.034.04.057.088.086.132-.01.015-.024.03-.033.044.26.093.52.191.78.28.052.02.118.02.165.005.218-.073.436-.153.653-.23.042-.015.108-.06.104-.08-.033-.156.094-.131.165-.17.17-.094.369-.162.496-.294.156-.167.298-.339.506-.451.085-.05.255-.069.17-.255-.005-.01.043-.049.067-.073.032-.03.07-.055.118-.094a1 1 0 0 0 .132-.083q.289-.238.534-.52c.113-.142.298-.318.298-.318s-.119-.28-.042-.524l.401-.299c.085-.181.11-.25.204-.436.09-.187.113-.544.24-.687.114-.122.251-.22.246-.298a.56.56 0 0 0 .029-.26c-.014-.127.028-.26.043-.387.01-.108 0-.216.028-.318.047-.167.08-.363.184-.48.113-.128.19-.24.204-.412.014-.147.07-.265.217-.334a.3.3 0 0 0 .141-.23c-.004-.22.067-.377.246-.495.052-.033.09-.093.142-.132.085-.064.071-.137.024-.22-.123-.22-.308-.3-.553-.255a4 4 0 0 1-.563.054c-.099 0-.028-.074-.028-.074.35-.01.392-.298.472-.534.067-.196.104-.401.138-.607.033-.196.033-.29.07-.594.038-.303.128.589-.014 1.319.284-.431.194-1.995-.122-2.455-.01.01-.02.015-.02.024-.014.06-.023.118-.037.177-.137.75-.421 1.42-.946 1.97-.193.2-.184.205-.052.465.015.025.015.059.02.093-.114-.054-.199-.132-.284-.206a.77.77 0 0 0-.563-.215c-.226 0-.288.166-.354.328-.123.294-.411.475-.421.868-.014.573-.525.862-.856 1.244-.004.005-.019-.005-.038-.005-.004-.02-.018-.044-.014-.064 0-.352.095-.71-.06-1.048-.01-.02-.006-.05 0-.069.06-.495.117-.985.183-1.475.01-.063.043-.122.071-.18.166-.354.042-.755-.293-.932a.24.24 0 0 0-.132-.02c-.185.025-.364.06-.544.084-.09.014-.184.014-.274.02l-.014-.04c.15-.049.227-.142.194-.308l-.341-1.696c-.01-.044-.019-.265.033-.152.052.118.218.622.312.941.09.309.16.627.241.94-.132-.876-.335-1.73-.836-2.508q-.201.252-.317.554-.183.535-.34 1.078c-.08.28-.289.828-.199.842s.53-1.631.558-1.749c.028-.117.08-.113.028.108"/></g><defs><clipPath id="a"><path fill="#fff" d="M0 0h24v24H0z"/></clipPath></defs></svg>