<svg xmlns="http://www.w3.org/2000/svg" fill="none" viewBox="0 0 24 24"><path fill="#4DC0BE" d="M15.868 20.852c-.112.1-.201.005-.292-.039-1.846-.885-3.691-1.773-5.537-2.657a724.609 724.609 0 0 0-4.101-1.954c-.166-.078-.238-.166-.236-.356a98.83 98.83 0 0 0 .003-2.178c-.002-.156.034-.246.192-.322a1751.27 1751.27 0 0 0 6.466-3.147c.073-.035.19-.05.19-.138.001-.09-.119-.103-.19-.137-2.145-1.032-4.29-2.063-6.439-3.088-.157-.075-.224-.158-.222-.338.01-.726.003-1.452.007-2.178 0-.086-.056-.212.101-.24.005.082.07.105.131.133.248.118.495.235.742.354 1.35.651 2.697 1.305 4.047 1.954 1.68.807 3.364 1.61 5.045 2.414 0 .76 0 1.522.002 2.283 0 .095-.032.2.055.28-.477.306-.993.537-1.497.792l-5.167 2.616c-.05.026-.125.04-.13.105-.004.076.079.072.127.095 1.552.749 3.103 1.498 4.656 2.244.652.314 1.309.62 1.964.929l-.008 2.398c0 .074-.015.157.091.175Z"/><path fill="#077A8D" d="M15.775 8.935c-1.682-.805-3.364-1.607-5.045-2.414-1.35-.649-2.698-1.303-4.047-1.954-.247-.12-.495-.236-.742-.354-.06-.028-.126-.05-.131-.133.798-.351 1.598-.7 2.395-1.055.146-.064.259.008.377.065 1.073.516 2.143 1.036 3.216 1.55 2.138 1.025 4.278 2.046 6.416 3.068.022.01.042.027.062.041.016.099-.05.12-.125.152-.222.094-.438.203-.66.298-.571.248-1.144.491-1.716.736Z"/><path fill="#2E8D94" d="M15.868 20.852c-.106-.018-.092-.101-.092-.175l.009-2.398a.044.044 0 0 1 .022-.032c.041-.078.023-.163.023-.245.001-1.18.002-2.36 0-3.54 0-.524-.009-1.047-.014-1.57.084-.145.247-.158.379-.217.66-.298 1.323-.586 1.982-.885.161-.073.212-.056.211.135-.004 2.542-.003 5.084 0 7.627 0 .131-.036.203-.17.26-.786.34-1.567.692-2.35 1.04Z"/><path fill="#2F8D94" d="M15.775 8.935c.572-.245 1.145-.489 1.716-.736.222-.096.438-.204.66-.298.075-.032.14-.053.125-.152.123.031.11.131.11.221 0 .742-.004 1.484.003 2.226.002.145-.065.203-.184.255-.792.346-1.582.698-2.374 1.048-.086-.08-.054-.186-.054-.282-.003-.76-.002-1.521-.002-2.282Z"/></svg>