<svg xmlns="http://www.w3.org/2000/svg" fill="none" viewBox="0 0 24 24"><path fill="#4DC0BE" d="M15.868 20.852c-.112.1-.201.005-.293-.038-1.846-.886-3.69-1.773-5.536-2.658a732.242 732.242 0 0 0-4.101-1.954c-.166-.078-.239-.166-.236-.356.011-.726.008-1.452.002-2.178 0-.156.035-.246.193-.322a1751.27 1751.27 0 0 0 6.466-3.147c.073-.035.19-.05.19-.138.001-.09-.12-.103-.19-.137-2.145-1.032-4.29-2.063-6.44-3.088-.156-.075-.223-.158-.22-.338.01-.726.002-1.452.006-2.177 0-.087-.056-.213.1-.24.006.081.071.104.132.133.247.117.495.234.742.353 1.35.651 2.697 1.305 4.047 1.954 1.68.807 3.364 1.61 5.045 2.414 0 .76 0 1.522.002 2.283 0 .095-.032.2.055.281-.477.305-.993.537-1.497.791-1.722.873-3.445 1.744-5.167 2.616-.051.026-.125.04-.13.105-.005.076.078.072.127.095 1.552.749 3.103 1.498 4.656 2.244.652.314 1.309.62 1.964.929l-.009 2.398c0 .074-.014.157.092.175Z"/><path fill="#077A8D" d="M15.775 8.935c-1.682-.805-3.364-1.607-5.045-2.414-1.35-.649-2.698-1.303-4.047-1.954-.247-.12-.495-.236-.742-.354-.06-.028-.126-.05-.131-.133.798-.351 1.598-.7 2.395-1.055.145-.064.259.008.377.065 1.072.516 2.143 1.036 3.216 1.55 2.138 1.025 4.278 2.046 6.416 3.068.022.01.041.027.062.041.016.099-.05.12-.125.152-.222.094-.439.203-.66.298-.571.248-1.144.491-1.716.736Z"/><path fill="#2E8D94" d="M15.868 20.852c-.107-.018-.092-.101-.092-.175l.008-2.398a.044.044 0 0 1 .023-.032c.041-.078.023-.163.023-.245 0-1.18.002-2.36 0-3.54 0-.524-.009-1.047-.014-1.57.084-.145.246-.158.378-.217.66-.298 1.324-.586 1.983-.885.161-.073.211-.055.21.135-.003 2.542-.002 5.084 0 7.627 0 .131-.035.203-.169.26-.786.34-1.567.692-2.35 1.04Z"/><path fill="#2F8D94" d="M15.775 8.935c.572-.245 1.145-.488 1.716-.736.221-.095.438-.204.66-.298.075-.032.14-.053.125-.152.122.031.109.131.109.221 0 .742-.003 1.484.004 2.226.001.145-.065.203-.184.255-.792.346-1.583.698-2.374 1.048-.086-.08-.054-.186-.054-.281-.003-.761-.002-1.522-.002-2.283Z"/></svg>