<svg xmlns="http://www.w3.org/2000/svg" fill="none" viewBox="0 0 24 24"><path fill="#4DC0BE" d="M15.868 20.852c-.112.1-.201.005-.293-.038l-5.536-2.658a732 732 0 0 0-4.101-1.954c-.166-.078-.239-.166-.236-.356.011-.726.008-1.452.002-2.178 0-.156.035-.246.193-.322a1751 1751 0 0 0 6.466-3.147c.073-.035.19-.05.19-.138.001-.09-.12-.103-.19-.137q-3.216-1.55-6.44-3.088c-.156-.075-.223-.158-.22-.338.01-.726.002-1.452.006-2.177 0-.087-.056-.213.1-.24.006.081.071.104.132.133q.371.175.742.353 2.023.978 4.047 1.954 2.522 1.21 5.045 2.414l.002 2.283c0 .095-.032.2.055.281-.477.305-.993.537-1.497.791l-5.167 2.616c-.051.026-.125.04-.13.105-.005.076.078.072.127.095q2.327 1.124 4.656 2.244c.652.314 1.309.62 1.964.929l-.009 2.398c0 .074-.014.157.092.175"/><path fill="#077A8D" d="M15.775 8.935q-2.523-1.206-5.045-2.414-2.024-.976-4.047-1.954l-.742-.354c-.06-.028-.126-.05-.131-.133q1.198-.524 2.395-1.055c.145-.064.259.008.377.065 1.072.516 2.143 1.036 3.216 1.55q3.208 1.536 6.416 3.068c.022.01.041.027.062.041.016.099-.05.12-.125.152-.222.094-.439.203-.66.298q-.857.37-1.716.736"/><path fill="#2E8D94" d="M15.868 20.852c-.107-.018-.092-.101-.092-.175l.008-2.398a.04.04 0 0 1 .023-.032c.041-.078.023-.163.023-.245q.002-1.77 0-3.54c0-.524-.009-1.047-.014-1.57.084-.145.246-.158.378-.217.66-.298 1.324-.586 1.983-.885.161-.073.211-.055.21.135q-.004 3.813 0 7.627c0 .131-.035.203-.169.26-.786.34-1.567.692-2.35 1.04"/><path fill="#2F8D94" d="M15.775 8.935q.859-.366 1.716-.736c.221-.095.438-.204.66-.298.075-.032.14-.053.125-.152.122.031.109.131.109.221 0 .742-.003 1.484.004 2.226.001.145-.065.203-.184.255q-1.188.521-2.374 1.048c-.086-.08-.054-.186-.054-.281q-.003-1.141-.002-2.283"/></svg>