<svg xmlns="http://www.w3.org/2000/svg" fill="none" viewBox="0 0 24 24"><path fill="#62757E" d="M4.308 4.45c-.518 0-.959.18-1.318.54-.36.36-.54.8-.54 1.318v11.384c0 .518.18.959.54 1.318.36.36.8.54 1.318.54h4.265a.776.776 0 0 0 .57-.23.775.775 0 0 0 .23-.57.776.776 0 0 0-.23-.57.776.776 0 0 0-.57-.23H4.308a.25.25 0 0 1-.186-.072.25.25 0 0 1-.072-.186V6.308a.25.25 0 0 1 .072-.186.25.25 0 0 1 .186-.072H20.75a.775.775 0 0 0 .57-.23.774.774 0 0 0 .23-.57.776.776 0 0 0-.23-.57.775.775 0 0 0-.57-.23H4.308Z"/><path fill="#62757E" fill-rule="evenodd" d="M16.498 8.45c-1.406 0-2.6.49-3.58 1.47-.978.978-1.468 2.173-1.468 3.58v3c0 1.407.49 2.602 1.47 3.58.98.98 2.175 1.47 3.582 1.47 1.406 0 2.6-.49 3.58-1.47.978-.978 1.468-2.173 1.468-3.58v-3c0-1.407-.49-2.602-1.47-3.58-.98-.98-2.175-1.47-3.582-1.47ZM13.9 11.233a3.23 3.23 0 0 1 1.8-1.07V13.2h-2.63a3.405 3.405 0 0 1 .83-1.967Zm3.4 1.967v-3.036a3.23 3.23 0 0 1 1.8 1.069c.484.559.76 1.214.83 1.967H17.3Zm-4.25 3.3v-1.7h6.9v1.7c0 .953-.337 1.766-1.01 2.44a3.322 3.322 0 0 1-2.44 1.01 3.322 3.322 0 0 1-2.44-1.01 3.323 3.323 0 0 1-1.01-2.44Z" clip-rule="evenodd"/></svg>