<svg xmlns="http://www.w3.org/2000/svg" fill="none" viewBox="0 0 24 24"><path fill="#62757E" fill-rule="evenodd" d="M20.384 2.17a.85.85 0 0 0-1.202 0L3.346 18.007a.85.85 0 0 0 1.202 1.203L20.384 3.373a.85.85 0 0 0 0-1.202" clip-rule="evenodd"/><path fill="#62757E" fill-rule="evenodd" d="M19.173 4.564 17.687 6.05H4.307a.25.25 0 0 0-.185.072.25.25 0 0 0-.072.186v11.384a.25.25 0 0 0 .072.186.25.25 0 0 0 .186.072h1.479L4.19 19.547a1.78 1.78 0 0 1-1.2-.537q-.54-.54-.54-1.318V6.308q0-.778.54-1.318t1.318-.54H18.75q.238 0 .423.114M6.591 19.55h1.982a.78.78 0 0 0 .57-.23.78.78 0 0 0 .23-.57.78.78 0 0 0-.23-.57.78.78 0 0 0-.57-.23h-.382zm4.859-4.859V16.5q0 2.112 1.47 3.58 1.47 1.47 3.582 1.47 2.11 0 3.58-1.47 1.468-1.468 1.468-3.58v-3q0-2.112-1.47-3.58-1.076-1.076-2.495-1.364L15.7 10.44v2.76h-2.63q.006-.073.016-.145zm.178-2.582 3.482-3.482q-1.233.333-2.191 1.292-.959.96-1.291 2.19m5.672-1.945V13.2h2.63a3.4 3.4 0 0 0-.83-1.967 3.23 3.23 0 0 0-1.8-1.07M13.05 14.8v1.7q0 1.43 1.01 2.44a3.32 3.32 0 0 0 2.44 1.01q1.43 0 2.44-1.01a3.32 3.32 0 0 0 1.01-2.44v-1.7z" clip-rule="evenodd"/></svg>