<svg xmlns="http://www.w3.org/2000/svg" fill="none" viewBox="0 0 24 24"><path fill="#62757E" fill-rule="evenodd" d="M20.384 2.17a.85.85 0 0 0-1.202 0L3.346 18.007a.85.85 0 0 0 1.202 1.203L20.384 3.373a.85.85 0 0 0 0-1.202Z" clip-rule="evenodd"/><path fill="#62757E" fill-rule="evenodd" d="M19.173 4.564 17.687 6.05H4.307a.25.25 0 0 0-.185.072.25.25 0 0 0-.072.186v11.384a.25.25 0 0 0 .072.186.25.25 0 0 0 .186.072h1.479L4.19 19.547a1.782 1.782 0 0 1-1.2-.537c-.36-.36-.54-.8-.54-1.318V6.308c0-.518.18-.959.54-1.318.36-.36.8-.54 1.318-.54H18.75c.158 0 .3.038.423.114ZM6.591 19.55h1.982a.776.776 0 0 0 .57-.23.775.775 0 0 0 .23-.57.776.776 0 0 0-.23-.57.776.776 0 0 0-.57-.23h-.382l-1.6 1.6Zm4.859-4.859V16.5c0 1.407.49 2.602 1.47 3.58.98.98 2.175 1.47 3.582 1.47 1.406 0 2.6-.49 3.58-1.47.978-.978 1.468-2.173 1.468-3.58v-3c0-1.407-.49-2.602-1.47-3.58-.717-.717-1.55-1.172-2.495-1.364L15.7 10.44v2.76h-2.63c.004-.049.01-.097.016-.145l-1.636 1.636Zm.178-2.582 3.482-3.482c-.822.222-1.553.653-2.191 1.292-.639.639-1.07 1.37-1.291 2.19Zm5.672-1.945V13.2h2.63a3.405 3.405 0 0 0-.83-1.967 3.23 3.23 0 0 0-1.8-1.07ZM13.05 14.8v1.7c0 .953.336 1.766 1.01 2.44a3.322 3.322 0 0 0 2.44 1.01c.953 0 1.766-.336 2.44-1.01a3.323 3.323 0 0 0 1.01-2.44v-1.7h-6.9Z" clip-rule="evenodd"/></svg>