<svg xmlns="http://www.w3.org/2000/svg" fill="none" viewBox="0 0 24 24"><path fill="#62757E" d="M4.308 4.45q-.778 0-1.318.54t-.54 1.318v11.384q0 .778.54 1.318t1.318.54h4.265a.78.78 0 0 0 .57-.23.78.78 0 0 0 .23-.57.78.78 0 0 0-.23-.57.78.78 0 0 0-.57-.23H4.308a.25.25 0 0 1-.186-.072.25.25 0 0 1-.072-.186V6.308a.25.25 0 0 1 .072-.186.25.25 0 0 1 .186-.072H20.75a.78.78 0 0 0 .57-.23.77.77 0 0 0 .23-.57.78.78 0 0 0-.23-.57.78.78 0 0 0-.57-.23z"/><path fill="#62757E" fill-rule="evenodd" d="M16.498 8.45q-2.11 0-3.58 1.47-1.468 1.468-1.468 3.58v3q0 2.112 1.47 3.58 1.47 1.47 3.582 1.47 2.11 0 3.58-1.47 1.468-1.468 1.468-3.58v-3q0-2.112-1.47-3.58-1.47-1.47-3.582-1.47M13.9 11.233a3.23 3.23 0 0 1 1.8-1.07V13.2h-2.63q.104-1.129.83-1.967m3.4 1.967v-3.036a3.23 3.23 0 0 1 1.8 1.069q.726.838.83 1.967zm-4.25 3.3v-1.7h6.9v1.7q0 1.43-1.01 2.44a3.32 3.32 0 0 1-2.44 1.01 3.32 3.32 0 0 1-2.44-1.01 3.32 3.32 0 0 1-1.01-2.44" clip-rule="evenodd"/></svg>