<svg xmlns="http://www.w3.org/2000/svg" fill="none" viewBox="0 0 24 24"><g clip-path="url(#a)"><path fill="#302C2C" d="M12 24c6.627 0 12-5.373 12-12S18.627 0 12 0 0 5.373 0 12s5.373 12 12 12"/><path fill="#fff" fill-rule="evenodd" d="M11.703 18.5c-.16-.017-.32-.031-.479-.05a6.4 6.4 0 0 1-2.436-.806l-.043-.03 3.906-2.919.393.383q.33.318.653.642c.053.053.092.052.154.02a4.2 4.2 0 0 0 1.612-1.412l.063-.093q.028.03.05.057l1.36 1.81c.04.052.035.083-.007.13-1.053 1.197-2.363 1.935-3.94 2.187-.2.032-.401.044-.601.066q-.04.006-.08.015zm.573-13 .33.033a6.45 6.45 0 0 1 2.614.827c.012.007.022.016.042.03l-3.97 2.848-.153-.146q-.42-.407-.837-.818c-.044-.043-.078-.048-.133-.02a4.2 4.2 0 0 0-1.637 1.432l-.06.089-1.457-1.943c.147-.156.283-.312.43-.455a6.44 6.44 0 0 1 3.417-1.77c.254-.046.514-.062.77-.092q.044-.006.087-.015zM6.362 8.77l2.952 3.87-.596.61q-.22.23-.447.455c-.042.043-.044.075-.018.127a4.2 4.2 0 0 0 1.493 1.679c.003.002.005.008.016.028l-1.927 1.445c-1.153-.992-1.9-2.214-2.2-3.697-.322-1.587-.061-3.087.728-4.517m8.376 2.582.543-.563c.151-.157.3-.316.455-.469.048-.048.048-.084.02-.14a4.2 4.2 0 0 0-1.448-1.654c-.022-.015-.044-.03-.08-.057l1.937-1.454c1.097.94 1.826 2.098 2.16 3.495.418 1.745.046 3.47-.678 4.685z" clip-rule="evenodd"/></g><defs><clipPath id="a"><path fill="#fff" d="M0 0h24v24H0z"/></clipPath></defs></svg>